<?xml version="1.0" encoding="utf-8"?>
<svg xmlns="http://www.w3.org/2000/svg" xmlns:xlink="http://www.w3.org/1999/xlink" width="600" height="400" viewBox="0 0 2400 1600">
<defs>
  <clipPath id="clip790">
    <rect x="0" y="0" width="2400" height="1600"/>
  </clipPath>
</defs>
<path clip-path="url(#clip790)" d="
M0 1600 L2400 1600 L2400 0 L0 0  Z
  " fill="#ffffff" fill-rule="evenodd" fill-opacity="1"/>
<defs>
  <clipPath id="clip791">
    <rect x="480" y="0" width="1681" height="1600"/>
  </clipPath>
</defs>
<path clip-path="url(#clip790)" d="
M156.598 1486.45 L2352.76 1486.45 L2352.76 47.2441 L156.598 47.2441  Z
  " fill="#ffffff" fill-rule="evenodd" fill-opacity="1"/>
<defs>
  <clipPath id="clip792">
    <rect x="156" y="47" width="2197" height="1440"/>
  </clipPath>
</defs>
<polyline clip-path="url(#clip792)" style="stroke:#000000; stroke-linecap:butt; stroke-linejoin:round; stroke-width:2; stroke-opacity:0.1; fill:none" points="
  156.598,1486.45 156.598,47.2441 
  "/>
<polyline clip-path="url(#clip792)" style="stroke:#000000; stroke-linecap:butt; stroke-linejoin:round; stroke-width:2; stroke-opacity:0.1; fill:none" points="
  705.638,1486.45 705.638,47.2441 
  "/>
<polyline clip-path="url(#clip792)" style="stroke:#000000; stroke-linecap:butt; stroke-linejoin:round; stroke-width:2; stroke-opacity:0.1; fill:none" points="
  1254.68,1486.45 1254.68,47.2441 
  "/>
<polyline clip-path="url(#clip792)" style="stroke:#000000; stroke-linecap:butt; stroke-linejoin:round; stroke-width:2; stroke-opacity:0.1; fill:none" points="
  1803.72,1486.45 1803.72,47.2441 
  "/>
<polyline clip-path="url(#clip792)" style="stroke:#000000; stroke-linecap:butt; stroke-linejoin:round; stroke-width:2; stroke-opacity:0.1; fill:none" points="
  2352.76,1486.45 2352.76,47.2441 
  "/>
<polyline clip-path="url(#clip790)" style="stroke:#000000; stroke-linecap:butt; stroke-linejoin:round; stroke-width:4; stroke-opacity:1; fill:none" points="
  156.598,1486.45 2352.76,1486.45 
  "/>
<polyline clip-path="url(#clip790)" style="stroke:#000000; stroke-linecap:butt; stroke-linejoin:round; stroke-width:4; stroke-opacity:1; fill:none" points="
  156.598,1486.45 156.598,1467.55 
  "/>
<polyline clip-path="url(#clip790)" style="stroke:#000000; stroke-linecap:butt; stroke-linejoin:round; stroke-width:4; stroke-opacity:1; fill:none" points="
  705.638,1486.45 705.638,1467.55 
  "/>
<polyline clip-path="url(#clip790)" style="stroke:#000000; stroke-linecap:butt; stroke-linejoin:round; stroke-width:4; stroke-opacity:1; fill:none" points="
  1254.68,1486.45 1254.68,1467.55 
  "/>
<polyline clip-path="url(#clip790)" style="stroke:#000000; stroke-linecap:butt; stroke-linejoin:round; stroke-width:4; stroke-opacity:1; fill:none" points="
  1803.72,1486.45 1803.72,1467.55 
  "/>
<polyline clip-path="url(#clip790)" style="stroke:#000000; stroke-linecap:butt; stroke-linejoin:round; stroke-width:4; stroke-opacity:1; fill:none" points="
  2352.76,1486.45 2352.76,1467.55 
  "/>
<path clip-path="url(#clip790)" d="M103.126 1532.02 L132.802 1532.02 L132.802 1535.95 L103.126 1535.95 L103.126 1532.02 Z" fill="#000000" fill-rule="evenodd" fill-opacity="1" /><path clip-path="url(#clip790)" d="M143.705 1544.91 L151.344 1544.91 L151.344 1518.55 L143.033 1520.21 L143.033 1515.95 L151.297 1514.29 L155.973 1514.29 L155.973 1544.91 L163.612 1544.91 L163.612 1548.85 L143.705 1548.85 L143.705 1544.91 Z" fill="#000000" fill-rule="evenodd" fill-opacity="1" /><path clip-path="url(#clip790)" d="M173.056 1542.97 L177.941 1542.97 L177.941 1548.85 L173.056 1548.85 L173.056 1542.97 Z" fill="#000000" fill-rule="evenodd" fill-opacity="1" /><path clip-path="url(#clip790)" d="M198.126 1517.37 Q194.515 1517.37 192.686 1520.93 Q190.88 1524.47 190.88 1531.6 Q190.88 1538.71 192.686 1542.27 Q194.515 1545.82 198.126 1545.82 Q201.76 1545.82 203.566 1542.27 Q205.394 1538.71 205.394 1531.6 Q205.394 1524.47 203.566 1520.93 Q201.76 1517.37 198.126 1517.37 M198.126 1513.66 Q203.936 1513.66 206.991 1518.27 Q210.07 1522.85 210.07 1531.6 Q210.07 1540.33 206.991 1544.94 Q203.936 1549.52 198.126 1549.52 Q192.316 1549.52 189.237 1544.94 Q186.181 1540.33 186.181 1531.6 Q186.181 1522.85 189.237 1518.27 Q192.316 1513.66 198.126 1513.66 Z" fill="#000000" fill-rule="evenodd" fill-opacity="1" /><path clip-path="url(#clip790)" d="M652.663 1532.02 L682.339 1532.02 L682.339 1535.95 L652.663 1535.95 L652.663 1532.02 Z" fill="#000000" fill-rule="evenodd" fill-opacity="1" /><path clip-path="url(#clip790)" d="M702.432 1517.37 Q698.821 1517.37 696.992 1520.93 Q695.186 1524.47 695.186 1531.6 Q695.186 1538.71 696.992 1542.27 Q698.821 1545.82 702.432 1545.82 Q706.066 1545.82 707.871 1542.27 Q709.7 1538.71 709.7 1531.6 Q709.7 1524.47 707.871 1520.93 Q706.066 1517.37 702.432 1517.37 M702.432 1513.66 Q708.242 1513.66 711.297 1518.27 Q714.376 1522.85 714.376 1531.6 Q714.376 1540.33 711.297 1544.94 Q708.242 1549.52 702.432 1549.52 Q696.621 1549.52 693.543 1544.94 Q690.487 1540.33 690.487 1531.6 Q690.487 1522.85 693.543 1518.27 Q696.621 1513.66 702.432 1513.66 Z" fill="#000000" fill-rule="evenodd" fill-opacity="1" /><path clip-path="url(#clip790)" d="M722.594 1542.97 L727.478 1542.97 L727.478 1548.85 L722.594 1548.85 L722.594 1542.97 Z" fill="#000000" fill-rule="evenodd" fill-opacity="1" /><path clip-path="url(#clip790)" d="M737.709 1514.29 L756.066 1514.29 L756.066 1518.22 L741.992 1518.22 L741.992 1526.7 Q743.01 1526.35 744.029 1526.19 Q745.047 1526 746.066 1526 Q751.853 1526 755.232 1529.17 Q758.612 1532.34 758.612 1537.76 Q758.612 1543.34 755.14 1546.44 Q751.667 1549.52 745.348 1549.52 Q743.172 1549.52 740.904 1549.15 Q738.658 1548.78 736.251 1548.04 L736.251 1543.34 Q738.334 1544.47 740.556 1545.03 Q742.779 1545.58 745.255 1545.58 Q749.26 1545.58 751.598 1543.48 Q753.936 1541.37 753.936 1537.76 Q753.936 1534.15 751.598 1532.04 Q749.26 1529.94 745.255 1529.94 Q743.381 1529.94 741.506 1530.35 Q739.654 1530.77 737.709 1531.65 L737.709 1514.29 Z" fill="#000000" fill-rule="evenodd" fill-opacity="1" /><path clip-path="url(#clip790)" d="M1232.06 1517.37 Q1228.45 1517.37 1226.62 1520.93 Q1224.82 1524.47 1224.82 1531.6 Q1224.82 1538.71 1226.62 1542.27 Q1228.45 1545.82 1232.06 1545.82 Q1235.7 1545.82 1237.5 1542.27 Q1239.33 1538.71 1239.33 1531.6 Q1239.33 1524.47 1237.5 1520.93 Q1235.7 1517.37 1232.06 1517.37 M1232.06 1513.66 Q1237.87 1513.66 1240.93 1518.27 Q1244.01 1522.85 1244.01 1531.6 Q1244.01 1540.33 1240.93 1544.94 Q1237.87 1549.52 1232.06 1549.52 Q1226.25 1549.52 1223.17 1544.94 Q1220.12 1540.33 1220.12 1531.6 Q1220.12 1522.85 1223.17 1518.27 Q1226.25 1513.66 1232.06 1513.66 Z" fill="#000000" fill-rule="evenodd" fill-opacity="1" /><path clip-path="url(#clip790)" d="M1252.22 1542.97 L1257.11 1542.97 L1257.11 1548.85 L1252.22 1548.85 L1252.22 1542.97 Z" fill="#000000" fill-rule="evenodd" fill-opacity="1" /><path clip-path="url(#clip790)" d="M1277.29 1517.37 Q1273.68 1517.37 1271.85 1520.93 Q1270.05 1524.47 1270.05 1531.6 Q1270.05 1538.71 1271.85 1542.27 Q1273.68 1545.82 1277.29 1545.82 Q1280.93 1545.82 1282.73 1542.27 Q1284.56 1538.71 1284.56 1531.6 Q1284.56 1524.47 1282.73 1520.93 Q1280.93 1517.37 1277.29 1517.37 M1277.29 1513.66 Q1283.1 1513.66 1286.16 1518.27 Q1289.24 1522.85 1289.24 1531.6 Q1289.24 1540.33 1286.16 1544.94 Q1283.1 1549.52 1277.29 1549.52 Q1271.48 1549.52 1268.4 1544.94 Q1265.35 1540.33 1265.35 1531.6 Q1265.35 1522.85 1268.4 1518.27 Q1271.48 1513.66 1277.29 1513.66 Z" fill="#000000" fill-rule="evenodd" fill-opacity="1" /><path clip-path="url(#clip790)" d="M1781.6 1517.37 Q1777.99 1517.37 1776.16 1520.93 Q1774.35 1524.47 1774.35 1531.6 Q1774.35 1538.71 1776.16 1542.27 Q1777.99 1545.82 1781.6 1545.82 Q1785.23 1545.82 1787.04 1542.27 Q1788.87 1538.71 1788.87 1531.6 Q1788.87 1524.47 1787.04 1520.93 Q1785.23 1517.37 1781.6 1517.37 M1781.6 1513.66 Q1787.41 1513.66 1790.46 1518.27 Q1793.54 1522.85 1793.54 1531.6 Q1793.54 1540.33 1790.46 1544.94 Q1787.41 1549.52 1781.6 1549.52 Q1775.79 1549.52 1772.71 1544.94 Q1769.65 1540.33 1769.65 1531.6 Q1769.65 1522.85 1772.71 1518.27 Q1775.79 1513.66 1781.6 1513.66 Z" fill="#000000" fill-rule="evenodd" fill-opacity="1" /><path clip-path="url(#clip790)" d="M1801.76 1542.97 L1806.64 1542.97 L1806.64 1548.85 L1801.76 1548.85 L1801.76 1542.97 Z" fill="#000000" fill-rule="evenodd" fill-opacity="1" /><path clip-path="url(#clip790)" d="M1816.88 1514.29 L1835.23 1514.29 L1835.23 1518.22 L1821.16 1518.22 L1821.16 1526.7 Q1822.18 1526.35 1823.2 1526.19 Q1824.21 1526 1825.23 1526 Q1831.02 1526 1834.4 1529.17 Q1837.78 1532.34 1837.78 1537.76 Q1837.78 1543.34 1834.31 1546.44 Q1830.83 1549.52 1824.51 1549.52 Q1822.34 1549.52 1820.07 1549.15 Q1817.83 1548.78 1815.42 1548.04 L1815.42 1543.34 Q1817.5 1544.47 1819.72 1545.03 Q1821.95 1545.58 1824.42 1545.58 Q1828.43 1545.58 1830.76 1543.48 Q1833.1 1541.37 1833.1 1537.76 Q1833.1 1534.15 1830.76 1532.04 Q1828.43 1529.94 1824.42 1529.94 Q1822.55 1529.94 1820.67 1530.35 Q1818.82 1530.77 1816.88 1531.65 L1816.88 1514.29 Z" fill="#000000" fill-rule="evenodd" fill-opacity="1" /><path clip-path="url(#clip790)" d="M2319.91 1544.91 L2327.55 1544.91 L2327.55 1518.55 L2319.24 1520.21 L2319.24 1515.95 L2327.5 1514.29 L2332.18 1514.29 L2332.18 1544.91 L2339.82 1544.91 L2339.82 1548.85 L2319.91 1548.85 L2319.91 1544.91 Z" fill="#000000" fill-rule="evenodd" fill-opacity="1" /><path clip-path="url(#clip790)" d="M2349.26 1542.97 L2354.14 1542.97 L2354.14 1548.85 L2349.26 1548.85 L2349.26 1542.97 Z" fill="#000000" fill-rule="evenodd" fill-opacity="1" /><path clip-path="url(#clip790)" d="M2374.33 1517.37 Q2370.72 1517.37 2368.89 1520.93 Q2367.08 1524.47 2367.08 1531.6 Q2367.08 1538.71 2368.89 1542.27 Q2370.72 1545.82 2374.33 1545.82 Q2377.96 1545.82 2379.77 1542.27 Q2381.6 1538.71 2381.6 1531.6 Q2381.6 1524.47 2379.77 1520.93 Q2377.96 1517.37 2374.33 1517.37 M2374.33 1513.66 Q2380.14 1513.66 2383.2 1518.27 Q2386.27 1522.85 2386.27 1531.6 Q2386.27 1540.33 2383.2 1544.94 Q2380.14 1549.52 2374.33 1549.52 Q2368.52 1549.52 2365.44 1544.94 Q2362.39 1540.33 2362.39 1531.6 Q2362.39 1522.85 2365.44 1518.27 Q2368.52 1513.66 2374.33 1513.66 Z" fill="#000000" fill-rule="evenodd" fill-opacity="1" /><polyline clip-path="url(#clip792)" style="stroke:#000000; stroke-linecap:butt; stroke-linejoin:round; stroke-width:2; stroke-opacity:0.1; fill:none" points="
  156.598,1282.71 2352.76,1282.71 
  "/>
<polyline clip-path="url(#clip792)" style="stroke:#000000; stroke-linecap:butt; stroke-linejoin:round; stroke-width:2; stroke-opacity:0.1; fill:none" points="
  156.598,983.862 2352.76,983.862 
  "/>
<polyline clip-path="url(#clip792)" style="stroke:#000000; stroke-linecap:butt; stroke-linejoin:round; stroke-width:2; stroke-opacity:0.1; fill:none" points="
  156.598,685.015 2352.76,685.015 
  "/>
<polyline clip-path="url(#clip792)" style="stroke:#000000; stroke-linecap:butt; stroke-linejoin:round; stroke-width:2; stroke-opacity:0.1; fill:none" points="
  156.598,386.168 2352.76,386.168 
  "/>
<polyline clip-path="url(#clip792)" style="stroke:#000000; stroke-linecap:butt; stroke-linejoin:round; stroke-width:2; stroke-opacity:0.1; fill:none" points="
  156.598,87.3212 2352.76,87.3212 
  "/>
<polyline clip-path="url(#clip790)" style="stroke:#000000; stroke-linecap:butt; stroke-linejoin:round; stroke-width:4; stroke-opacity:1; fill:none" points="
  156.598,1486.45 156.598,47.2441 
  "/>
<polyline clip-path="url(#clip790)" style="stroke:#000000; stroke-linecap:butt; stroke-linejoin:round; stroke-width:4; stroke-opacity:1; fill:none" points="
  156.598,1282.71 175.496,1282.71 
  "/>
<polyline clip-path="url(#clip790)" style="stroke:#000000; stroke-linecap:butt; stroke-linejoin:round; stroke-width:4; stroke-opacity:1; fill:none" points="
  156.598,983.862 175.496,983.862 
  "/>
<polyline clip-path="url(#clip790)" style="stroke:#000000; stroke-linecap:butt; stroke-linejoin:round; stroke-width:4; stroke-opacity:1; fill:none" points="
  156.598,685.015 175.496,685.015 
  "/>
<polyline clip-path="url(#clip790)" style="stroke:#000000; stroke-linecap:butt; stroke-linejoin:round; stroke-width:4; stroke-opacity:1; fill:none" points="
  156.598,386.168 175.496,386.168 
  "/>
<polyline clip-path="url(#clip790)" style="stroke:#000000; stroke-linecap:butt; stroke-linejoin:round; stroke-width:4; stroke-opacity:1; fill:none" points="
  156.598,87.3212 175.496,87.3212 
  "/>
<path clip-path="url(#clip790)" d="M65.0198 1268.51 Q61.4087 1268.51 59.58 1272.07 Q57.7745 1275.61 57.7745 1282.74 Q57.7745 1289.85 59.58 1293.41 Q61.4087 1296.96 65.0198 1296.96 Q68.6541 1296.96 70.4596 1293.41 Q72.2883 1289.85 72.2883 1282.74 Q72.2883 1275.61 70.4596 1272.07 Q68.6541 1268.51 65.0198 1268.51 M65.0198 1264.8 Q70.83 1264.8 73.8855 1269.41 Q76.9642 1273.99 76.9642 1282.74 Q76.9642 1291.47 73.8855 1296.08 Q70.83 1300.66 65.0198 1300.66 Q59.2097 1300.66 56.131 1296.08 Q53.0754 1291.47 53.0754 1282.74 Q53.0754 1273.99 56.131 1269.41 Q59.2097 1264.8 65.0198 1264.8 Z" fill="#000000" fill-rule="evenodd" fill-opacity="1" /><path clip-path="url(#clip790)" d="M85.1818 1294.11 L90.066 1294.11 L90.066 1299.99 L85.1818 1299.99 L85.1818 1294.11 Z" fill="#000000" fill-rule="evenodd" fill-opacity="1" /><path clip-path="url(#clip790)" d="M104.279 1296.05 L120.598 1296.05 L120.598 1299.99 L98.6539 1299.99 L98.6539 1296.05 Q101.316 1293.3 105.899 1288.67 Q110.506 1284.02 111.686 1282.67 Q113.932 1280.15 114.811 1278.41 Q115.714 1276.66 115.714 1274.97 Q115.714 1272.21 113.77 1270.47 Q111.848 1268.74 108.746 1268.74 Q106.547 1268.74 104.094 1269.5 Q101.663 1270.27 98.8854 1271.82 L98.8854 1267.1 Q101.709 1265.96 104.163 1265.38 Q106.617 1264.8 108.654 1264.8 Q114.024 1264.8 117.219 1267.49 Q120.413 1270.17 120.413 1274.66 Q120.413 1276.79 119.603 1278.72 Q118.816 1280.61 116.709 1283.21 Q116.131 1283.88 113.029 1287.09 Q109.927 1290.29 104.279 1296.05 Z" fill="#000000" fill-rule="evenodd" fill-opacity="1" /><path clip-path="url(#clip790)" d="M62.9365 969.66 Q59.3254 969.66 57.4967 973.225 Q55.6912 976.767 55.6912 983.896 Q55.6912 991.003 57.4967 994.568 Q59.3254 998.109 62.9365 998.109 Q66.5707 998.109 68.3763 994.568 Q70.205 991.003 70.205 983.896 Q70.205 976.767 68.3763 973.225 Q66.5707 969.66 62.9365 969.66 M62.9365 965.957 Q68.7467 965.957 71.8022 970.563 Q74.8809 975.146 74.8809 983.896 Q74.8809 992.623 71.8022 997.23 Q68.7467 1001.81 62.9365 1001.81 Q57.1264 1001.81 54.0477 997.23 Q50.9921 992.623 50.9921 983.896 Q50.9921 975.146 54.0477 970.563 Q57.1264 965.957 62.9365 965.957 Z" fill="#000000" fill-rule="evenodd" fill-opacity="1" /><path clip-path="url(#clip790)" d="M83.0984 995.262 L87.9827 995.262 L87.9827 1001.14 L83.0984 1001.14 L83.0984 995.262 Z" fill="#000000" fill-rule="evenodd" fill-opacity="1" /><path clip-path="url(#clip790)" d="M111.015 970.656 L99.2095 989.105 L111.015 989.105 L111.015 970.656 M109.788 966.582 L115.668 966.582 L115.668 989.105 L120.598 989.105 L120.598 992.993 L115.668 992.993 L115.668 1001.14 L111.015 1001.14 L111.015 992.993 L95.4132 992.993 L95.4132 988.48 L109.788 966.582 Z" fill="#000000" fill-rule="evenodd" fill-opacity="1" /><path clip-path="url(#clip790)" d="M63.2606 670.813 Q59.6495 670.813 57.8208 674.378 Q56.0152 677.92 56.0152 685.049 Q56.0152 692.156 57.8208 695.721 Q59.6495 699.262 63.2606 699.262 Q66.8948 699.262 68.7004 695.721 Q70.5291 692.156 70.5291 685.049 Q70.5291 677.92 68.7004 674.378 Q66.8948 670.813 63.2606 670.813 M63.2606 667.11 Q69.0707 667.11 72.1263 671.716 Q75.205 676.3 75.205 685.049 Q75.205 693.776 72.1263 698.383 Q69.0707 702.966 63.2606 702.966 Q57.4504 702.966 54.3717 698.383 Q51.3162 693.776 51.3162 685.049 Q51.3162 676.3 54.3717 671.716 Q57.4504 667.11 63.2606 667.11 Z" fill="#000000" fill-rule="evenodd" fill-opacity="1" /><path clip-path="url(#clip790)" d="M83.4225 696.415 L88.3067 696.415 L88.3067 702.295 L83.4225 702.295 L83.4225 696.415 Z" fill="#000000" fill-rule="evenodd" fill-opacity="1" /><path clip-path="url(#clip790)" d="M109.071 683.151 Q105.922 683.151 104.071 685.304 Q102.242 687.457 102.242 691.207 Q102.242 694.934 104.071 697.11 Q105.922 699.262 109.071 699.262 Q112.219 699.262 114.047 697.11 Q115.899 694.934 115.899 691.207 Q115.899 687.457 114.047 685.304 Q112.219 683.151 109.071 683.151 M118.353 668.499 L118.353 672.758 Q116.594 671.925 114.788 671.485 Q113.006 671.045 111.246 671.045 Q106.617 671.045 104.163 674.17 Q101.733 677.295 101.385 683.614 Q102.751 681.6 104.811 680.536 Q106.871 679.448 109.348 679.448 Q114.557 679.448 117.566 682.619 Q120.598 685.767 120.598 691.207 Q120.598 696.531 117.45 699.748 Q114.302 702.966 109.071 702.966 Q103.075 702.966 99.9039 698.383 Q96.7326 693.776 96.7326 685.049 Q96.7326 676.855 100.621 671.994 Q104.51 667.11 111.061 667.11 Q112.82 667.11 114.603 667.457 Q116.408 667.804 118.353 668.499 Z" fill="#000000" fill-rule="evenodd" fill-opacity="1" /><path clip-path="url(#clip790)" d="M63.5152 371.967 Q59.9041 371.967 58.0754 375.531 Q56.2699 379.073 56.2699 386.203 Q56.2699 393.309 58.0754 396.874 Q59.9041 400.416 63.5152 400.416 Q67.1494 400.416 68.955 396.874 Q70.7837 393.309 70.7837 386.203 Q70.7837 379.073 68.955 375.531 Q67.1494 371.967 63.5152 371.967 M63.5152 368.263 Q69.3254 368.263 72.3809 372.869 Q75.4596 377.453 75.4596 386.203 Q75.4596 394.929 72.3809 399.536 Q69.3254 404.119 63.5152 404.119 Q57.7051 404.119 54.6264 399.536 Q51.5708 394.929 51.5708 386.203 Q51.5708 377.453 54.6264 372.869 Q57.7051 368.263 63.5152 368.263 Z" fill="#000000" fill-rule="evenodd" fill-opacity="1" /><path clip-path="url(#clip790)" d="M83.6771 397.568 L88.5614 397.568 L88.5614 403.448 L83.6771 403.448 L83.6771 397.568 Z" fill="#000000" fill-rule="evenodd" fill-opacity="1" /><path clip-path="url(#clip790)" d="M108.746 387.036 Q105.413 387.036 103.492 388.818 Q101.594 390.601 101.594 393.726 Q101.594 396.851 103.492 398.633 Q105.413 400.416 108.746 400.416 Q112.08 400.416 114.001 398.633 Q115.922 396.828 115.922 393.726 Q115.922 390.601 114.001 388.818 Q112.103 387.036 108.746 387.036 M104.071 385.045 Q101.061 384.305 99.3715 382.244 Q97.7048 380.184 97.7048 377.221 Q97.7048 373.078 100.645 370.67 Q103.608 368.263 108.746 368.263 Q113.908 368.263 116.848 370.67 Q119.788 373.078 119.788 377.221 Q119.788 380.184 118.098 382.244 Q116.432 384.305 113.445 385.045 Q116.825 385.832 118.7 388.124 Q120.598 390.416 120.598 393.726 Q120.598 398.749 117.52 401.434 Q114.464 404.119 108.746 404.119 Q103.029 404.119 99.9502 401.434 Q96.8947 398.749 96.8947 393.726 Q96.8947 390.416 98.7928 388.124 Q100.691 385.832 104.071 385.045 M102.358 377.661 Q102.358 380.346 104.024 381.851 Q105.714 383.355 108.746 383.355 Q111.756 383.355 113.445 381.851 Q115.158 380.346 115.158 377.661 Q115.158 374.976 113.445 373.471 Q111.756 371.967 108.746 371.967 Q105.714 371.967 104.024 373.471 Q102.358 374.976 102.358 377.661 Z" fill="#000000" fill-rule="evenodd" fill-opacity="1" /><path clip-path="url(#clip790)" d="M54.2328 100.666 L61.8717 100.666 L61.8717 74.3004 L53.5616 75.9671 L53.5616 71.7078 L61.8254 70.0412 L66.5013 70.0412 L66.5013 100.666 L74.1402 100.666 L74.1402 104.601 L54.2328 104.601 L54.2328 100.666 Z" fill="#000000" fill-rule="evenodd" fill-opacity="1" /><path clip-path="url(#clip790)" d="M83.5845 98.7216 L88.4688 98.7216 L88.4688 104.601 L83.5845 104.601 L83.5845 98.7216 Z" fill="#000000" fill-rule="evenodd" fill-opacity="1" /><path clip-path="url(#clip790)" d="M108.654 73.1199 Q105.043 73.1199 103.214 76.6847 Q101.409 80.2263 101.409 87.3559 Q101.409 94.4623 103.214 98.0271 Q105.043 101.569 108.654 101.569 Q112.288 101.569 114.094 98.0271 Q115.922 94.4623 115.922 87.3559 Q115.922 80.2263 114.094 76.6847 Q112.288 73.1199 108.654 73.1199 M108.654 69.4162 Q114.464 69.4162 117.52 74.0226 Q120.598 78.6059 120.598 87.3559 Q120.598 96.0827 117.52 100.689 Q114.464 105.272 108.654 105.272 Q102.844 105.272 99.765 100.689 Q96.7095 96.0827 96.7095 87.3559 Q96.7095 78.6059 99.765 74.0226 Q102.844 69.4162 108.654 69.4162 Z" fill="#000000" fill-rule="evenodd" fill-opacity="1" /><polyline clip-path="url(#clip792)" style="stroke:#009af9; stroke-linecap:butt; stroke-linejoin:round; stroke-width:16; stroke-opacity:1; fill:none" points="
  156.598,1445.72 167.322,1443.18 178.046,1440.62 277.201,1414.15 376.357,1379.57 435.945,1353.75 495.533,1323.02 545.914,1292.32 596.296,1256.36 651.024,1210.05 
  705.752,1154.51 756.206,1093.35 806.661,1020.79 833.707,976.535 860.753,928.167 887.799,875.484 914.846,818.32 977.517,668.807 1040.19,499.912 1095.88,345.656 
  1151.58,208.423 1176,160.384 1200.42,122.945 1224.84,98.3396 1249.26,87.9763 1275.88,93.0348 1302.51,115.132 1329.13,153.084 1355.75,204.098 1409.32,334.517 
  1462.88,482.413 1522.11,643.633 1581.33,788.801 1609.5,850.576 1637.68,907.418 1665.85,959.505 1694.03,1007.04 1752.62,1092.65 1811.21,1162.85 1860.53,1212.07 
  1909.85,1253.87 1970.06,1296.63 2030.27,1332.06 2086.88,1359.98 2143.48,1383.68 2234.16,1414.76 2324.84,1439.07 2338.8,1442.41 2352.76,1445.72 
  "/>
<circle clip-path="url(#clip792)" cx="156.598" cy="1445.72" r="14" fill="#e26f46" fill-rule="evenodd" fill-opacity="1" stroke="#000000" stroke-opacity="1" stroke-width="3.2"/>
<circle clip-path="url(#clip792)" cx="232.328" cy="1427" r="14" fill="#e26f46" fill-rule="evenodd" fill-opacity="1" stroke="#000000" stroke-opacity="1" stroke-width="3.2"/>
<circle clip-path="url(#clip792)" cx="308.057" cy="1404.34" r="14" fill="#e26f46" fill-rule="evenodd" fill-opacity="1" stroke="#000000" stroke-opacity="1" stroke-width="3.2"/>
<circle clip-path="url(#clip792)" cx="383.787" cy="1376.59" r="14" fill="#e26f46" fill-rule="evenodd" fill-opacity="1" stroke="#000000" stroke-opacity="1" stroke-width="3.2"/>
<circle clip-path="url(#clip792)" cx="459.517" cy="1342.24" r="14" fill="#e26f46" fill-rule="evenodd" fill-opacity="1" stroke="#000000" stroke-opacity="1" stroke-width="3.2"/>
<circle clip-path="url(#clip792)" cx="535.246" cy="1299.23" r="14" fill="#e26f46" fill-rule="evenodd" fill-opacity="1" stroke="#000000" stroke-opacity="1" stroke-width="3.2"/>
<circle clip-path="url(#clip792)" cx="610.976" cy="1244.74" r="14" fill="#e26f46" fill-rule="evenodd" fill-opacity="1" stroke="#000000" stroke-opacity="1" stroke-width="3.2"/>
<circle clip-path="url(#clip792)" cx="686.705" cy="1175" r="14" fill="#e26f46" fill-rule="evenodd" fill-opacity="1" stroke="#000000" stroke-opacity="1" stroke-width="3.2"/>
<circle clip-path="url(#clip792)" cx="762.435" cy="1085.05" r="14" fill="#e26f46" fill-rule="evenodd" fill-opacity="1" stroke="#000000" stroke-opacity="1" stroke-width="3.2"/>
<circle clip-path="url(#clip792)" cx="838.164" cy="968.854" r="14" fill="#e26f46" fill-rule="evenodd" fill-opacity="1" stroke="#000000" stroke-opacity="1" stroke-width="3.2"/>
<circle clip-path="url(#clip792)" cx="913.894" cy="820.41" r="14" fill="#e26f46" fill-rule="evenodd" fill-opacity="1" stroke="#000000" stroke-opacity="1" stroke-width="3.2"/>
<circle clip-path="url(#clip792)" cx="989.624" cy="637.415" r="14" fill="#e26f46" fill-rule="evenodd" fill-opacity="1" stroke="#000000" stroke-opacity="1" stroke-width="3.2"/>
<circle clip-path="url(#clip792)" cx="1065.35" cy="429.721" r="14" fill="#e26f46" fill-rule="evenodd" fill-opacity="1" stroke="#000000" stroke-opacity="1" stroke-width="3.2"/>
<circle clip-path="url(#clip792)" cx="1141.08" cy="231.769" r="14" fill="#e26f46" fill-rule="evenodd" fill-opacity="1" stroke="#000000" stroke-opacity="1" stroke-width="3.2"/>
<circle clip-path="url(#clip792)" cx="1216.81" cy="104.88" r="14" fill="#e26f46" fill-rule="evenodd" fill-opacity="1" stroke="#000000" stroke-opacity="1" stroke-width="3.2"/>
<circle clip-path="url(#clip792)" cx="1292.54" cy="104.88" r="14" fill="#e26f46" fill-rule="evenodd" fill-opacity="1" stroke="#000000" stroke-opacity="1" stroke-width="3.2"/>
<circle clip-path="url(#clip792)" cx="1368.27" cy="231.769" r="14" fill="#e26f46" fill-rule="evenodd" fill-opacity="1" stroke="#000000" stroke-opacity="1" stroke-width="3.2"/>
<circle clip-path="url(#clip792)" cx="1444" cy="429.721" r="14" fill="#e26f46" fill-rule="evenodd" fill-opacity="1" stroke="#000000" stroke-opacity="1" stroke-width="3.2"/>
<circle clip-path="url(#clip792)" cx="1519.73" cy="637.415" r="14" fill="#e26f46" fill-rule="evenodd" fill-opacity="1" stroke="#000000" stroke-opacity="1" stroke-width="3.2"/>
<circle clip-path="url(#clip792)" cx="1595.46" cy="820.41" r="14" fill="#e26f46" fill-rule="evenodd" fill-opacity="1" stroke="#000000" stroke-opacity="1" stroke-width="3.2"/>
<circle clip-path="url(#clip792)" cx="1671.19" cy="968.854" r="14" fill="#e26f46" fill-rule="evenodd" fill-opacity="1" stroke="#000000" stroke-opacity="1" stroke-width="3.2"/>
<circle clip-path="url(#clip792)" cx="1746.92" cy="1085.05" r="14" fill="#e26f46" fill-rule="evenodd" fill-opacity="1" stroke="#000000" stroke-opacity="1" stroke-width="3.2"/>
<circle clip-path="url(#clip792)" cx="1822.65" cy="1175" r="14" fill="#e26f46" fill-rule="evenodd" fill-opacity="1" stroke="#000000" stroke-opacity="1" stroke-width="3.2"/>
<circle clip-path="url(#clip792)" cx="1898.38" cy="1244.74" r="14" fill="#e26f46" fill-rule="evenodd" fill-opacity="1" stroke="#000000" stroke-opacity="1" stroke-width="3.2"/>
<circle clip-path="url(#clip792)" cx="1974.11" cy="1299.23" r="14" fill="#e26f46" fill-rule="evenodd" fill-opacity="1" stroke="#000000" stroke-opacity="1" stroke-width="3.2"/>
<circle clip-path="url(#clip792)" cx="2049.84" cy="1342.24" r="14" fill="#e26f46" fill-rule="evenodd" fill-opacity="1" stroke="#000000" stroke-opacity="1" stroke-width="3.2"/>
<circle clip-path="url(#clip792)" cx="2125.57" cy="1376.59" r="14" fill="#e26f46" fill-rule="evenodd" fill-opacity="1" stroke="#000000" stroke-opacity="1" stroke-width="3.2"/>
<circle clip-path="url(#clip792)" cx="2201.3" cy="1404.34" r="14" fill="#e26f46" fill-rule="evenodd" fill-opacity="1" stroke="#000000" stroke-opacity="1" stroke-width="3.2"/>
<circle clip-path="url(#clip792)" cx="2277.03" cy="1427" r="14" fill="#e26f46" fill-rule="evenodd" fill-opacity="1" stroke="#000000" stroke-opacity="1" stroke-width="3.2"/>
<circle clip-path="url(#clip792)" cx="2352.76" cy="1445.72" r="14" fill="#e26f46" fill-rule="evenodd" fill-opacity="1" stroke="#000000" stroke-opacity="1" stroke-width="3.2"/>
<path clip-path="url(#clip790)" d="
M1956.89 328.498 L2279.55 328.498 L2279.55 95.2176 L1956.89 95.2176  Z
  " fill="#ffffff" fill-rule="evenodd" fill-opacity="1"/>
<polyline clip-path="url(#clip790)" style="stroke:#000000; stroke-linecap:butt; stroke-linejoin:round; stroke-width:4; stroke-opacity:1; fill:none" points="
  1956.89,328.498 2279.55,328.498 2279.55,95.2176 1956.89,95.2176 1956.89,328.498 
  "/>
<polyline clip-path="url(#clip790)" style="stroke:#009af9; stroke-linecap:butt; stroke-linejoin:round; stroke-width:6; stroke-opacity:1; fill:none" points="
  1981.29,172.978 2127.7,172.978 
  "/>
<path clip-path="url(#clip790)" d="M2172.87 202.509 Q2170.16 209.453 2167.59 211.571 Q2165.02 213.689 2160.71 213.689 L2155.61 213.689 L2155.61 208.342 L2159.36 208.342 Q2162 208.342 2163.46 207.092 Q2164.91 205.842 2166.68 201.189 L2167.83 198.273 L2152.1 160.009 L2158.87 160.009 L2171.03 190.425 L2183.18 160.009 L2189.95 160.009 L2172.87 202.509 Z" fill="#000000" fill-rule="evenodd" fill-opacity="1" /><path clip-path="url(#clip790)" d="M2200.89 192.995 L2212.34 192.995 L2212.34 153.446 L2199.88 155.946 L2199.88 149.558 L2212.28 147.058 L2219.29 147.058 L2219.29 192.995 L2230.75 192.995 L2230.75 198.898 L2200.89 198.898 L2200.89 192.995 Z" fill="#000000" fill-rule="evenodd" fill-opacity="1" /><circle clip-path="url(#clip790)" cx="2054.49" cy="250.738" r="34" fill="#e26f46" fill-rule="evenodd" fill-opacity="1" stroke="#000000" stroke-opacity="1" stroke-width="7.68"/>
<path clip-path="url(#clip790)" d="M2172.87 280.269 Q2170.16 287.213 2167.59 289.331 Q2165.02 291.449 2160.71 291.449 L2155.61 291.449 L2155.61 286.102 L2159.36 286.102 Q2162 286.102 2163.46 284.852 Q2164.91 283.602 2166.68 278.949 L2167.83 276.033 L2152.1 237.769 L2158.87 237.769 L2171.03 268.185 L2183.18 237.769 L2189.95 237.769 L2172.87 280.269 Z" fill="#000000" fill-rule="evenodd" fill-opacity="1" /><path clip-path="url(#clip790)" d="M2205.71 270.755 L2230.19 270.755 L2230.19 276.658 L2197.28 276.658 L2197.28 270.755 Q2201.27 266.623 2208.14 259.678 Q2215.05 252.699 2216.82 250.685 Q2220.19 246.901 2221.51 244.297 Q2222.87 241.658 2222.87 239.123 Q2222.87 234.991 2219.95 232.387 Q2217.07 229.783 2212.41 229.783 Q2209.12 229.783 2205.43 230.929 Q2201.79 232.074 2197.62 234.401 L2197.62 227.318 Q2201.86 225.616 2205.54 224.748 Q2209.22 223.88 2212.28 223.88 Q2220.33 223.88 2225.12 227.908 Q2229.91 231.936 2229.91 238.672 Q2229.91 241.866 2228.7 244.748 Q2227.52 247.595 2224.36 251.484 Q2223.49 252.491 2218.84 257.317 Q2214.18 262.109 2205.71 270.755 Z" fill="#000000" fill-rule="evenodd" fill-opacity="1" /></svg>
