<?xml version="1.0" encoding="utf-8"?>
<svg xmlns="http://www.w3.org/2000/svg" xmlns:xlink="http://www.w3.org/1999/xlink" width="600" height="400" viewBox="0 0 2400 1600">
<defs>
  <clipPath id="clip660">
    <rect x="0" y="0" width="2400" height="1600"/>
  </clipPath>
</defs>
<path clip-path="url(#clip660)" d="
M0 1600 L2400 1600 L2400 0 L0 0  Z
  " fill="#ffffff" fill-rule="evenodd" fill-opacity="1"/>
<defs>
  <clipPath id="clip661">
    <rect x="480" y="0" width="1681" height="1600"/>
  </clipPath>
</defs>
<defs>
  <clipPath id="clip662">
    <rect x="147" y="47" width="2206" height="1440"/>
  </clipPath>
</defs>
<path clip-path="url(#clip660)" d="
M147.478 1486.45 L2352.76 1486.45 L2352.76 47.2441 L147.478 47.2441  Z
  " fill="#ffffff" fill-rule="evenodd" fill-opacity="1"/>
<polyline clip-path="url(#clip662)" style="stroke:#000000; stroke-linecap:butt; stroke-linejoin:round; stroke-width:2; stroke-opacity:0.1; fill:none" points="
  147.478,1486.45 147.478,47.2441 
  "/>
<polyline clip-path="url(#clip662)" style="stroke:#000000; stroke-linecap:butt; stroke-linejoin:round; stroke-width:2; stroke-opacity:0.1; fill:none" points="
  588.534,1486.45 588.534,47.2441 
  "/>
<polyline clip-path="url(#clip662)" style="stroke:#000000; stroke-linecap:butt; stroke-linejoin:round; stroke-width:2; stroke-opacity:0.1; fill:none" points="
  1029.59,1486.45 1029.59,47.2441 
  "/>
<polyline clip-path="url(#clip662)" style="stroke:#000000; stroke-linecap:butt; stroke-linejoin:round; stroke-width:2; stroke-opacity:0.1; fill:none" points="
  1470.64,1486.45 1470.64,47.2441 
  "/>
<polyline clip-path="url(#clip662)" style="stroke:#000000; stroke-linecap:butt; stroke-linejoin:round; stroke-width:2; stroke-opacity:0.1; fill:none" points="
  1911.7,1486.45 1911.7,47.2441 
  "/>
<polyline clip-path="url(#clip662)" style="stroke:#000000; stroke-linecap:butt; stroke-linejoin:round; stroke-width:2; stroke-opacity:0.1; fill:none" points="
  2352.76,1486.45 2352.76,47.2441 
  "/>
<polyline clip-path="url(#clip660)" style="stroke:#000000; stroke-linecap:butt; stroke-linejoin:round; stroke-width:4; stroke-opacity:1; fill:none" points="
  147.478,1486.45 2352.76,1486.45 
  "/>
<polyline clip-path="url(#clip660)" style="stroke:#000000; stroke-linecap:butt; stroke-linejoin:round; stroke-width:4; stroke-opacity:1; fill:none" points="
  147.478,1486.45 147.478,1467.55 
  "/>
<polyline clip-path="url(#clip660)" style="stroke:#000000; stroke-linecap:butt; stroke-linejoin:round; stroke-width:4; stroke-opacity:1; fill:none" points="
  588.534,1486.45 588.534,1467.55 
  "/>
<polyline clip-path="url(#clip660)" style="stroke:#000000; stroke-linecap:butt; stroke-linejoin:round; stroke-width:4; stroke-opacity:1; fill:none" points="
  1029.59,1486.45 1029.59,1467.55 
  "/>
<polyline clip-path="url(#clip660)" style="stroke:#000000; stroke-linecap:butt; stroke-linejoin:round; stroke-width:4; stroke-opacity:1; fill:none" points="
  1470.64,1486.45 1470.64,1467.55 
  "/>
<polyline clip-path="url(#clip660)" style="stroke:#000000; stroke-linecap:butt; stroke-linejoin:round; stroke-width:4; stroke-opacity:1; fill:none" points="
  1911.7,1486.45 1911.7,1467.55 
  "/>
<polyline clip-path="url(#clip660)" style="stroke:#000000; stroke-linecap:butt; stroke-linejoin:round; stroke-width:4; stroke-opacity:1; fill:none" points="
  2352.76,1486.45 2352.76,1467.55 
  "/>
<path clip-path="url(#clip660)" d="M117.42 1532.02 L147.096 1532.02 L147.096 1535.95 L117.42 1535.95 L117.42 1532.02 Z" fill="#000000" fill-rule="evenodd" fill-opacity="1" /><path clip-path="url(#clip660)" d="M161.216 1544.91 L177.536 1544.91 L177.536 1548.85 L155.591 1548.85 L155.591 1544.91 Q158.253 1542.16 162.837 1537.53 Q167.443 1532.88 168.624 1531.53 Q170.869 1529.01 171.749 1527.27 Q172.651 1525.51 172.651 1523.82 Q172.651 1521.07 170.707 1519.33 Q168.786 1517.6 165.684 1517.6 Q163.485 1517.6 161.031 1518.36 Q158.601 1519.13 155.823 1520.68 L155.823 1515.95 Q158.647 1514.82 161.101 1514.24 Q163.554 1513.66 165.591 1513.66 Q170.962 1513.66 174.156 1516.35 Q177.35 1519.03 177.35 1523.52 Q177.35 1525.65 176.54 1527.57 Q175.753 1529.47 173.647 1532.07 Q173.068 1532.74 169.966 1535.95 Q166.864 1539.15 161.216 1544.91 Z" fill="#000000" fill-rule="evenodd" fill-opacity="1" /><path clip-path="url(#clip660)" d="M558.291 1532.02 L587.966 1532.02 L587.966 1535.95 L558.291 1535.95 L558.291 1532.02 Z" fill="#000000" fill-rule="evenodd" fill-opacity="1" /><path clip-path="url(#clip660)" d="M598.869 1544.91 L606.508 1544.91 L606.508 1518.55 L598.198 1520.21 L598.198 1515.95 L606.462 1514.29 L611.138 1514.29 L611.138 1544.91 L618.776 1544.91 L618.776 1548.85 L598.869 1548.85 L598.869 1544.91 Z" fill="#000000" fill-rule="evenodd" fill-opacity="1" /><path clip-path="url(#clip660)" d="M1029.59 1517.37 Q1025.98 1517.37 1024.15 1520.93 Q1022.34 1524.47 1022.34 1531.6 Q1022.34 1538.71 1024.15 1542.27 Q1025.98 1545.82 1029.59 1545.82 Q1033.22 1545.82 1035.03 1542.27 Q1036.86 1538.71 1036.86 1531.6 Q1036.86 1524.47 1035.03 1520.93 Q1033.22 1517.37 1029.59 1517.37 M1029.59 1513.66 Q1035.4 1513.66 1038.45 1518.27 Q1041.53 1522.85 1041.53 1531.6 Q1041.53 1540.33 1038.45 1544.94 Q1035.4 1549.52 1029.59 1549.52 Q1023.78 1549.52 1020.7 1544.94 Q1017.64 1540.33 1017.64 1531.6 Q1017.64 1522.85 1020.7 1518.27 Q1023.78 1513.66 1029.59 1513.66 Z" fill="#000000" fill-rule="evenodd" fill-opacity="1" /><path clip-path="url(#clip660)" d="M1461.03 1544.91 L1468.67 1544.91 L1468.67 1518.55 L1460.36 1520.21 L1460.36 1515.95 L1468.62 1514.29 L1473.3 1514.29 L1473.3 1544.91 L1480.93 1544.91 L1480.93 1548.85 L1461.03 1548.85 L1461.03 1544.91 Z" fill="#000000" fill-rule="evenodd" fill-opacity="1" /><path clip-path="url(#clip660)" d="M1906.35 1544.91 L1922.67 1544.91 L1922.67 1548.85 L1900.73 1548.85 L1900.73 1544.91 Q1903.39 1542.16 1907.97 1537.53 Q1912.58 1532.88 1913.76 1531.53 Q1916.01 1529.01 1916.89 1527.27 Q1917.79 1525.51 1917.79 1523.82 Q1917.79 1521.07 1915.84 1519.33 Q1913.92 1517.6 1910.82 1517.6 Q1908.62 1517.6 1906.17 1518.36 Q1903.74 1519.13 1900.96 1520.68 L1900.96 1515.95 Q1903.78 1514.82 1906.24 1514.24 Q1908.69 1513.66 1910.73 1513.66 Q1916.1 1513.66 1919.29 1516.35 Q1922.49 1519.03 1922.49 1523.52 Q1922.49 1525.65 1921.68 1527.57 Q1920.89 1529.47 1918.78 1532.07 Q1918.2 1532.74 1915.1 1535.95 Q1912 1539.15 1906.35 1544.91 Z" fill="#000000" fill-rule="evenodd" fill-opacity="1" /><path clip-path="url(#clip660)" d="M2357 1530.21 Q2360.36 1530.93 2362.24 1533.2 Q2364.13 1535.47 2364.13 1538.8 Q2364.13 1543.92 2360.61 1546.72 Q2357.1 1549.52 2350.61 1549.52 Q2348.44 1549.52 2346.12 1549.08 Q2343.83 1548.66 2341.38 1547.81 L2341.38 1543.29 Q2343.32 1544.43 2345.64 1545.01 Q2347.95 1545.58 2350.48 1545.58 Q2354.87 1545.58 2357.17 1543.85 Q2359.48 1542.11 2359.48 1538.8 Q2359.48 1535.75 2357.33 1534.03 Q2355.2 1532.3 2351.38 1532.3 L2347.35 1532.3 L2347.35 1528.45 L2351.56 1528.45 Q2355.01 1528.45 2356.84 1527.09 Q2358.67 1525.7 2358.67 1523.11 Q2358.67 1520.45 2356.77 1519.03 Q2354.9 1517.6 2351.38 1517.6 Q2349.46 1517.6 2347.26 1518.01 Q2345.06 1518.43 2342.42 1519.31 L2342.42 1515.14 Q2345.08 1514.4 2347.4 1514.03 Q2349.74 1513.66 2351.8 1513.66 Q2357.12 1513.66 2360.22 1516.09 Q2363.32 1518.5 2363.32 1522.62 Q2363.32 1525.49 2361.68 1527.48 Q2360.04 1529.45 2357 1530.21 Z" fill="#000000" fill-rule="evenodd" fill-opacity="1" /><polyline clip-path="url(#clip662)" style="stroke:#000000; stroke-linecap:butt; stroke-linejoin:round; stroke-width:2; stroke-opacity:0.1; fill:none" points="
  147.478,1445.72 2352.76,1445.72 
  "/>
<polyline clip-path="url(#clip662)" style="stroke:#000000; stroke-linecap:butt; stroke-linejoin:round; stroke-width:2; stroke-opacity:0.1; fill:none" points="
  147.478,1174.17 2352.76,1174.17 
  "/>
<polyline clip-path="url(#clip662)" style="stroke:#000000; stroke-linecap:butt; stroke-linejoin:round; stroke-width:2; stroke-opacity:0.1; fill:none" points="
  147.478,902.62 2352.76,902.62 
  "/>
<polyline clip-path="url(#clip662)" style="stroke:#000000; stroke-linecap:butt; stroke-linejoin:round; stroke-width:2; stroke-opacity:0.1; fill:none" points="
  147.478,631.072 2352.76,631.072 
  "/>
<polyline clip-path="url(#clip662)" style="stroke:#000000; stroke-linecap:butt; stroke-linejoin:round; stroke-width:2; stroke-opacity:0.1; fill:none" points="
  147.478,359.524 2352.76,359.524 
  "/>
<polyline clip-path="url(#clip662)" style="stroke:#000000; stroke-linecap:butt; stroke-linejoin:round; stroke-width:2; stroke-opacity:0.1; fill:none" points="
  147.478,87.9763 2352.76,87.9763 
  "/>
<polyline clip-path="url(#clip660)" style="stroke:#000000; stroke-linecap:butt; stroke-linejoin:round; stroke-width:4; stroke-opacity:1; fill:none" points="
  147.478,1486.45 147.478,47.2441 
  "/>
<polyline clip-path="url(#clip660)" style="stroke:#000000; stroke-linecap:butt; stroke-linejoin:round; stroke-width:4; stroke-opacity:1; fill:none" points="
  147.478,1445.72 166.376,1445.72 
  "/>
<polyline clip-path="url(#clip660)" style="stroke:#000000; stroke-linecap:butt; stroke-linejoin:round; stroke-width:4; stroke-opacity:1; fill:none" points="
  147.478,1174.17 166.376,1174.17 
  "/>
<polyline clip-path="url(#clip660)" style="stroke:#000000; stroke-linecap:butt; stroke-linejoin:round; stroke-width:4; stroke-opacity:1; fill:none" points="
  147.478,902.62 166.376,902.62 
  "/>
<polyline clip-path="url(#clip660)" style="stroke:#000000; stroke-linecap:butt; stroke-linejoin:round; stroke-width:4; stroke-opacity:1; fill:none" points="
  147.478,631.072 166.376,631.072 
  "/>
<polyline clip-path="url(#clip660)" style="stroke:#000000; stroke-linecap:butt; stroke-linejoin:round; stroke-width:4; stroke-opacity:1; fill:none" points="
  147.478,359.524 166.376,359.524 
  "/>
<polyline clip-path="url(#clip660)" style="stroke:#000000; stroke-linecap:butt; stroke-linejoin:round; stroke-width:4; stroke-opacity:1; fill:none" points="
  147.478,87.9763 166.376,87.9763 
  "/>
<path clip-path="url(#clip660)" d="M51.3625 1446.17 L81.0383 1446.17 L81.0383 1450.1 L51.3625 1450.1 L51.3625 1446.17 Z" fill="#000000" fill-rule="evenodd" fill-opacity="1" /><path clip-path="url(#clip660)" d="M95.1586 1459.06 L111.478 1459.06 L111.478 1463 L89.5336 1463 L89.5336 1459.06 Q92.1956 1456.31 96.7789 1451.68 Q101.385 1447.02 102.566 1445.68 Q104.811 1443.16 105.691 1441.42 Q106.594 1439.66 106.594 1437.97 Q106.594 1435.22 104.649 1433.48 Q102.728 1431.75 99.6261 1431.75 Q97.4271 1431.75 94.9734 1432.51 Q92.5428 1433.27 89.7651 1434.82 L89.7651 1430.1 Q92.5891 1428.97 95.0428 1428.39 Q97.4965 1427.81 99.5335 1427.81 Q104.904 1427.81 108.098 1430.5 Q111.293 1433.18 111.293 1437.67 Q111.293 1439.8 110.483 1441.72 Q109.696 1443.62 107.589 1446.21 Q107.01 1446.88 103.909 1450.1 Q100.807 1453.3 95.1586 1459.06 Z" fill="#000000" fill-rule="evenodd" fill-opacity="1" /><path clip-path="url(#clip660)" d="M50.9921 1174.62 L80.6679 1174.62 L80.6679 1178.55 L50.9921 1178.55 L50.9921 1174.62 Z" fill="#000000" fill-rule="evenodd" fill-opacity="1" /><path clip-path="url(#clip660)" d="M91.5706 1187.51 L99.2095 1187.51 L99.2095 1161.15 L90.8993 1162.81 L90.8993 1158.55 L99.1632 1156.89 L103.839 1156.89 L103.839 1187.51 L111.478 1187.51 L111.478 1191.45 L91.5706 1191.45 L91.5706 1187.51 Z" fill="#000000" fill-rule="evenodd" fill-opacity="1" /><path clip-path="url(#clip660)" d="M99.5335 888.419 Q95.9224 888.419 94.0937 891.983 Q92.2882 895.525 92.2882 902.655 Q92.2882 909.761 94.0937 913.326 Q95.9224 916.868 99.5335 916.868 Q103.168 916.868 104.973 913.326 Q106.802 909.761 106.802 902.655 Q106.802 895.525 104.973 891.983 Q103.168 888.419 99.5335 888.419 M99.5335 884.715 Q105.344 884.715 108.399 889.321 Q111.478 893.905 111.478 902.655 Q111.478 911.381 108.399 915.988 Q105.344 920.571 99.5335 920.571 Q93.7234 920.571 90.6447 915.988 Q87.5892 911.381 87.5892 902.655 Q87.5892 893.905 90.6447 889.321 Q93.7234 884.715 99.5335 884.715 Z" fill="#000000" fill-rule="evenodd" fill-opacity="1" /><path clip-path="url(#clip660)" d="M91.5706 644.417 L99.2095 644.417 L99.2095 618.051 L90.8993 619.718 L90.8993 615.459 L99.1632 613.792 L103.839 613.792 L103.839 644.417 L111.478 644.417 L111.478 648.352 L91.5706 648.352 L91.5706 644.417 Z" fill="#000000" fill-rule="evenodd" fill-opacity="1" /><path clip-path="url(#clip660)" d="M95.1586 372.869 L111.478 372.869 L111.478 376.804 L89.5336 376.804 L89.5336 372.869 Q92.1956 370.114 96.7789 365.485 Q101.385 360.832 102.566 359.489 Q104.811 356.966 105.691 355.23 Q106.594 353.471 106.594 351.781 Q106.594 349.027 104.649 347.29 Q102.728 345.554 99.6261 345.554 Q97.4271 345.554 94.9734 346.318 Q92.5428 347.082 89.7651 348.633 L89.7651 343.911 Q92.5891 342.777 95.0428 342.198 Q97.4965 341.619 99.5335 341.619 Q104.904 341.619 108.098 344.304 Q111.293 346.99 111.293 351.48 Q111.293 353.61 110.483 355.531 Q109.696 357.429 107.589 360.022 Q107.01 360.693 103.909 363.911 Q100.807 367.105 95.1586 372.869 Z" fill="#000000" fill-rule="evenodd" fill-opacity="1" /><path clip-path="url(#clip660)" d="M104.348 86.6221 Q107.705 87.3397 109.58 89.6082 Q111.478 91.8767 111.478 95.21 Q111.478 100.326 107.959 103.127 Q104.441 105.928 97.9595 105.928 Q95.7836 105.928 93.4688 105.488 Q91.1771 105.071 88.7234 104.215 L88.7234 99.7008 Q90.6678 100.835 92.9826 101.414 Q95.2974 101.992 97.8206 101.992 Q102.219 101.992 104.51 100.256 Q106.825 98.5202 106.825 95.21 Q106.825 92.1545 104.672 90.4415 Q102.543 88.7054 98.7234 88.7054 L94.6956 88.7054 L94.6956 84.8629 L98.9085 84.8629 Q102.358 84.8629 104.186 83.4971 Q106.015 82.1083 106.015 79.5157 Q106.015 76.8537 104.117 75.4416 Q102.242 74.0064 98.7234 74.0064 Q96.8021 74.0064 94.603 74.4231 Q92.4039 74.8398 89.7651 75.7194 L89.7651 71.5528 Q92.4271 70.812 94.7419 70.4416 Q97.0798 70.0713 99.14 70.0713 Q104.464 70.0713 107.566 72.5018 Q110.668 74.9092 110.668 79.0296 Q110.668 81.8999 109.024 83.8907 Q107.381 85.8582 104.348 86.6221 Z" fill="#000000" fill-rule="evenodd" fill-opacity="1" /><polyline clip-path="url(#clip662)" style="stroke:#009af9; stroke-linecap:butt; stroke-linejoin:round; stroke-width:16; stroke-opacity:1; fill:none" points="
  147.478,1445.72 169.014,1432.46 368.149,1309.85 487.82,1236.17 589.001,1173.88 698.912,1106.21 800.24,1043.82 908.874,976.941 1034.74,899.45 1146.59,830.585 
  1244.68,770.196 1351.61,704.357 1459.19,638.126 1578.12,564.899 1691.29,495.226 1808.96,422.781 1908.01,361.799 2028.93,287.346 2142.61,217.358 2324.73,105.232 
  2352.76,87.9763 
  "/>
<polyline clip-path="url(#clip662)" style="stroke:#e26f46; stroke-linecap:butt; stroke-linejoin:round; stroke-width:16; stroke-opacity:1; fill:none" points="
  147.478,1015.62 169.014,1003.44 368.149,883.323 487.82,811.435 589.001,755.66 643.957,728.421 698.912,703.883 749.576,683.984 800.24,666.966 854.557,652.176 
  908.874,641.179 971.806,633.399 1034.74,631.091 1090.66,633.671 1146.59,640.571 1195.63,650.089 1244.68,662.726 1298.14,679.874 1351.61,700.292 1405.4,723.826 
  1459.19,750.017 1578.12,815.37 1691.29,883.484 1808.96,955.571 1908.01,1013.55 1968.47,1046.38 2028.93,1076.52 2085.77,1101.88 2142.61,1123.93 2188.14,1138.97 
  2233.67,1151.49 2279.2,1161.36 2324.73,1168.47 2331.74,1169.32 2338.74,1170.1 2345.75,1170.81 2352.76,1171.45 
  "/>
<circle clip-path="url(#clip662)" cx="1355.57" cy="701.923" r="14" fill="#3da44d" fill-rule="evenodd" fill-opacity="1" stroke="#000000" stroke-opacity="1" stroke-width="3.2"/>
<polyline clip-path="url(#clip662)" style="stroke:#c271d2; stroke-linecap:butt; stroke-linejoin:round; stroke-width:16; stroke-opacity:1; fill:none" points="
  1911.7,1015.62 846.045,654.248 1433,736.958 1298.66,680.056 1391.08,717.287 1330.61,691.9 1371.85,708.809 1344.38,697.349 1363,705.032 1350.52,699.842 
  1358.95,703.331 1353.28,700.977 1357.1,702.561 1354.53,701.494 1356.26,702.212 1355.1,701.728 
  "/>
<path clip-path="url(#clip662)" d="M1911.7 999.624 L1895.7 1015.62 L1911.7 1031.62 L1927.7 1015.62 L1911.7 999.624 Z" fill="#c271d2" fill-rule="evenodd" fill-opacity="1" stroke="#000000" stroke-opacity="1" stroke-width="3.2"/>
<path clip-path="url(#clip662)" d="M846.045 638.248 L830.045 654.248 L846.045 670.248 L862.045 654.248 L846.045 638.248 Z" fill="#c271d2" fill-rule="evenodd" fill-opacity="1" stroke="#000000" stroke-opacity="1" stroke-width="3.2"/>
<path clip-path="url(#clip662)" d="M1433 720.958 L1417 736.958 L1433 752.958 L1449 736.958 L1433 720.958 Z" fill="#c271d2" fill-rule="evenodd" fill-opacity="1" stroke="#000000" stroke-opacity="1" stroke-width="3.2"/>
<path clip-path="url(#clip662)" d="M1298.66 664.056 L1282.66 680.056 L1298.66 696.056 L1314.66 680.056 L1298.66 664.056 Z" fill="#c271d2" fill-rule="evenodd" fill-opacity="1" stroke="#000000" stroke-opacity="1" stroke-width="3.2"/>
<path clip-path="url(#clip662)" d="M1391.08 701.287 L1375.08 717.287 L1391.08 733.287 L1407.08 717.287 L1391.08 701.287 Z" fill="#c271d2" fill-rule="evenodd" fill-opacity="1" stroke="#000000" stroke-opacity="1" stroke-width="3.2"/>
<path clip-path="url(#clip662)" d="M1330.61 675.9 L1314.61 691.9 L1330.61 707.9 L1346.61 691.9 L1330.61 675.9 Z" fill="#c271d2" fill-rule="evenodd" fill-opacity="1" stroke="#000000" stroke-opacity="1" stroke-width="3.2"/>
<path clip-path="url(#clip662)" d="M1371.85 692.809 L1355.85 708.809 L1371.85 724.809 L1387.85 708.809 L1371.85 692.809 Z" fill="#c271d2" fill-rule="evenodd" fill-opacity="1" stroke="#000000" stroke-opacity="1" stroke-width="3.2"/>
<path clip-path="url(#clip662)" d="M1344.38 681.349 L1328.38 697.349 L1344.38 713.349 L1360.38 697.349 L1344.38 681.349 Z" fill="#c271d2" fill-rule="evenodd" fill-opacity="1" stroke="#000000" stroke-opacity="1" stroke-width="3.2"/>
<path clip-path="url(#clip662)" d="M1363 689.032 L1347 705.032 L1363 721.032 L1379 705.032 L1363 689.032 Z" fill="#c271d2" fill-rule="evenodd" fill-opacity="1" stroke="#000000" stroke-opacity="1" stroke-width="3.2"/>
<path clip-path="url(#clip662)" d="M1350.52 683.842 L1334.52 699.842 L1350.52 715.842 L1366.52 699.842 L1350.52 683.842 Z" fill="#c271d2" fill-rule="evenodd" fill-opacity="1" stroke="#000000" stroke-opacity="1" stroke-width="3.2"/>
<path clip-path="url(#clip662)" d="M1358.95 687.331 L1342.95 703.331 L1358.95 719.331 L1374.95 703.331 L1358.95 687.331 Z" fill="#c271d2" fill-rule="evenodd" fill-opacity="1" stroke="#000000" stroke-opacity="1" stroke-width="3.2"/>
<path clip-path="url(#clip662)" d="M1353.28 684.977 L1337.28 700.977 L1353.28 716.977 L1369.28 700.977 L1353.28 684.977 Z" fill="#c271d2" fill-rule="evenodd" fill-opacity="1" stroke="#000000" stroke-opacity="1" stroke-width="3.2"/>
<path clip-path="url(#clip662)" d="M1357.1 686.561 L1341.1 702.561 L1357.1 718.561 L1373.1 702.561 L1357.1 686.561 Z" fill="#c271d2" fill-rule="evenodd" fill-opacity="1" stroke="#000000" stroke-opacity="1" stroke-width="3.2"/>
<path clip-path="url(#clip662)" d="M1354.53 685.494 L1338.53 701.494 L1354.53 717.494 L1370.53 701.494 L1354.53 685.494 Z" fill="#c271d2" fill-rule="evenodd" fill-opacity="1" stroke="#000000" stroke-opacity="1" stroke-width="3.2"/>
<path clip-path="url(#clip662)" d="M1356.26 686.212 L1340.26 702.212 L1356.26 718.212 L1372.26 702.212 L1356.26 686.212 Z" fill="#c271d2" fill-rule="evenodd" fill-opacity="1" stroke="#000000" stroke-opacity="1" stroke-width="3.2"/>
<path clip-path="url(#clip662)" d="M1355.1 685.728 L1339.1 701.728 L1355.1 717.728 L1371.1 701.728 L1355.1 685.728 Z" fill="#c271d2" fill-rule="evenodd" fill-opacity="1" stroke="#000000" stroke-opacity="1" stroke-width="3.2"/>
<path clip-path="url(#clip660)" d="
M1965.07 354.418 L2279.25 354.418 L2279.25 95.2176 L1965.07 95.2176  Z
  " fill="#ffffff" fill-rule="evenodd" fill-opacity="1"/>
<polyline clip-path="url(#clip660)" style="stroke:#000000; stroke-linecap:butt; stroke-linejoin:round; stroke-width:4; stroke-opacity:1; fill:none" points="
  1965.07,354.418 2279.25,354.418 2279.25,95.2176 1965.07,95.2176 1965.07,354.418 
  "/>
<polyline clip-path="url(#clip660)" style="stroke:#009af9; stroke-linecap:butt; stroke-linejoin:round; stroke-width:4; stroke-opacity:1; fill:none" points="
  1989.57,147.058 2136.59,147.058 
  "/>
<path clip-path="url(#clip660)" d="M2174.94 166.745 Q2173.13 171.375 2171.42 172.787 Q2169.7 174.199 2166.83 174.199 L2163.43 174.199 L2163.43 170.634 L2165.93 170.634 Q2167.69 170.634 2168.66 169.8 Q2169.63 168.967 2170.81 165.865 L2171.58 163.921 L2161.09 138.412 L2165.61 138.412 L2173.71 158.689 L2181.81 138.412 L2186.32 138.412 L2174.94 166.745 Z" fill="#000000" fill-rule="evenodd" fill-opacity="1" /><path clip-path="url(#clip660)" d="M2193.62 160.402 L2201.25 160.402 L2201.25 134.037 L2192.94 135.703 L2192.94 131.444 L2201.21 129.778 L2205.88 129.778 L2205.88 160.402 L2213.52 160.402 L2213.52 164.338 L2193.62 164.338 L2193.62 160.402 Z" fill="#000000" fill-rule="evenodd" fill-opacity="1" /><polyline clip-path="url(#clip660)" style="stroke:#e26f46; stroke-linecap:butt; stroke-linejoin:round; stroke-width:4; stroke-opacity:1; fill:none" points="
  1989.57,198.898 2136.59,198.898 
  "/>
<path clip-path="url(#clip660)" d="M2174.94 218.585 Q2173.13 223.215 2171.42 224.627 Q2169.7 226.039 2166.83 226.039 L2163.43 226.039 L2163.43 222.474 L2165.93 222.474 Q2167.69 222.474 2168.66 221.64 Q2169.63 220.807 2170.81 217.705 L2171.58 215.761 L2161.09 190.252 L2165.61 190.252 L2173.71 210.529 L2181.81 190.252 L2186.32 190.252 L2174.94 218.585 Z" fill="#000000" fill-rule="evenodd" fill-opacity="1" /><path clip-path="url(#clip660)" d="M2196.83 212.242 L2213.15 212.242 L2213.15 216.178 L2191.21 216.178 L2191.21 212.242 Q2193.87 209.488 2198.45 204.858 Q2203.06 200.205 2204.24 198.863 Q2206.49 196.34 2207.37 194.604 Q2208.27 192.844 2208.27 191.155 Q2208.27 188.4 2206.32 186.664 Q2204.4 184.928 2201.3 184.928 Q2199.1 184.928 2196.65 185.692 Q2194.22 186.455 2191.44 188.006 L2191.44 183.284 Q2194.26 182.15 2196.72 181.571 Q2199.17 180.993 2201.21 180.993 Q2206.58 180.993 2209.77 183.678 Q2212.97 186.363 2212.97 190.854 Q2212.97 192.983 2212.16 194.905 Q2211.37 196.803 2209.26 199.395 Q2208.68 200.067 2205.58 203.284 Q2202.48 206.479 2196.83 212.242 Z" fill="#000000" fill-rule="evenodd" fill-opacity="1" /><circle clip-path="url(#clip660)" cx="2063.08" cy="250.738" r="23" fill="#3da44d" fill-rule="evenodd" fill-opacity="1" stroke="#000000" stroke-opacity="1" stroke-width="5.12"/>
<path clip-path="url(#clip660)" d="M2184.98 240.639 Q2184.98 241.951 2184.16 242.7 Q2183.34 243.427 2182.41 243.427 Q2181.52 243.427 2181.05 242.911 Q2180.58 242.396 2180.58 241.74 Q2180.58 240.85 2181.24 240.077 Q2181.89 239.304 2182.88 239.14 Q2181.92 238.531 2180.49 238.531 Q2179.55 238.531 2178.73 239.023 Q2177.93 239.515 2177.44 240.147 Q2176.97 240.78 2176.55 241.693 Q2176.15 242.583 2175.99 243.122 Q2175.85 243.637 2175.73 244.199 L2174.09 250.758 Q2173.3 253.873 2173.3 254.974 Q2173.3 256.332 2173.95 257.246 Q2174.61 258.136 2175.92 258.136 Q2176.43 258.136 2177.02 257.995 Q2177.61 257.831 2178.35 257.41 Q2179.13 256.965 2179.81 256.309 Q2180.51 255.63 2181.19 254.482 Q2181.87 253.334 2182.31 251.859 Q2182.45 251.343 2182.92 251.343 Q2183.51 251.343 2183.51 251.812 Q2183.51 252.21 2183.18 253.053 Q2182.88 253.873 2182.2 254.95 Q2181.54 256.004 2180.67 256.965 Q2179.81 257.902 2178.52 258.557 Q2177.23 259.213 2175.83 259.213 Q2173.81 259.213 2172.48 258.136 Q2171.14 257.058 2170.65 255.559 Q2170.53 255.77 2170.37 256.051 Q2170.2 256.332 2169.71 256.965 Q2169.24 257.574 2168.7 258.042 Q2168.17 258.487 2167.32 258.839 Q2166.5 259.213 2165.61 259.213 Q2164.49 259.213 2163.48 258.885 Q2162.5 258.557 2161.8 257.808 Q2161.09 257.058 2161.09 256.028 Q2161.09 254.88 2161.87 254.084 Q2162.66 253.264 2163.74 253.264 Q2164.42 253.264 2164.96 253.662 Q2165.52 254.06 2165.52 254.927 Q2165.52 255.887 2164.86 256.613 Q2164.21 257.339 2163.27 257.527 Q2164.23 258.136 2165.66 258.136 Q2167.21 258.136 2168.42 256.777 Q2169.64 255.419 2170.23 253.147 Q2171.68 247.689 2172.24 245.253 Q2172.8 242.794 2172.8 241.74 Q2172.8 240.756 2172.55 240.077 Q2172.29 239.398 2171.84 239.093 Q2171.42 238.765 2171.02 238.648 Q2170.65 238.531 2170.23 238.531 Q2169.52 238.531 2168.73 238.812 Q2167.96 239.093 2167.02 239.749 Q2166.11 240.382 2165.24 241.693 Q2164.37 243.005 2163.79 244.808 Q2163.67 245.347 2163.15 245.347 Q2162.59 245.324 2162.59 244.855 Q2162.59 244.457 2162.9 243.637 Q2163.22 242.794 2163.88 241.74 Q2164.56 240.686 2165.43 239.749 Q2166.32 238.789 2167.6 238.133 Q2168.92 237.477 2170.32 237.477 Q2170.95 237.477 2171.56 237.618 Q2172.19 237.735 2172.94 238.086 Q2173.72 238.438 2174.4 239.21 Q2175.08 239.983 2175.5 241.108 Q2175.78 240.569 2176.15 240.054 Q2176.55 239.538 2177.16 238.906 Q2177.79 238.25 2178.66 237.875 Q2179.55 237.477 2180.53 237.477 Q2181.49 237.477 2182.43 237.735 Q2183.37 237.969 2184.16 238.742 Q2184.98 239.492 2184.98 240.639 Z" fill="#000000" fill-rule="evenodd" fill-opacity="1" /><path clip-path="url(#clip660)" d="M2199.18 262.804 Q2199.18 262.23 2199.95 261.853 L2204.63 259.639 L2199.89 257.426 Q2199.18 257.098 2199.18 256.524 Q2199.18 256.196 2199.44 255.901 Q2199.72 255.589 2200.08 255.589 Q2200.35 255.589 2200.82 255.95 L2204.99 258.967 Q2204.48 253.425 2204.49 253.261 Q2204.49 252.933 2204.74 252.687 Q2204.99 252.425 2205.4 252.425 Q2205.72 252.425 2205.99 252.671 Q2206.27 252.901 2206.27 253.261 L2205.77 258.967 L2209.5 256.213 Q2210.36 255.573 2210.68 255.589 Q2211.05 255.589 2211.31 255.885 Q2211.58 256.18 2211.58 256.524 Q2211.58 257.098 2210.81 257.459 L2206.13 259.672 L2210.87 261.902 Q2211.58 262.23 2211.58 262.804 Q2211.58 263.132 2211.3 263.443 Q2211.04 263.738 2210.68 263.738 Q2210.48 263.738 2210.13 263.541 Q2210.07 263.509 2209.36 262.984 Q2208.66 262.459 2207.56 261.656 Q2206.48 260.853 2205.77 260.344 Q2206.28 265.886 2206.27 266.05 Q2206.27 266.378 2206.02 266.64 Q2205.77 266.903 2205.36 266.903 Q2205.04 266.903 2204.76 266.673 Q2204.49 266.427 2204.49 266.05 L2204.99 260.344 L2200.3 263.738 Q2199.79 263.738 2199.51 263.492 Q2199.25 263.23 2199.21 263.082 Q2199.18 262.935 2199.18 262.804 Z" fill="#000000" fill-rule="evenodd" fill-opacity="1" /><polyline clip-path="url(#clip660)" style="stroke:#c271d2; stroke-linecap:butt; stroke-linejoin:round; stroke-width:4; stroke-opacity:1; fill:none" points="
  1989.57,302.578 2136.59,302.578 
  "/>
<path clip-path="url(#clip660)" d="M2063.08 276.978 L2037.48 302.578 L2063.08 328.178 L2088.68 302.578 L2063.08 276.978 Z" fill="#c271d2" fill-rule="evenodd" fill-opacity="1" stroke="#000000" stroke-opacity="1" stroke-width="5.12"/>
<path clip-path="url(#clip660)" d="M2174.94 322.265 Q2173.13 326.895 2171.42 328.307 Q2169.7 329.719 2166.83 329.719 L2163.43 329.719 L2163.43 326.154 L2165.93 326.154 Q2167.69 326.154 2168.66 325.32 Q2169.63 324.487 2170.81 321.385 L2171.58 319.441 L2161.09 293.932 L2165.61 293.932 L2173.71 314.209 L2181.81 293.932 L2186.32 293.932 L2174.94 322.265 Z" fill="#000000" fill-rule="evenodd" fill-opacity="1" /><path clip-path="url(#clip660)" d="M2205.65 289.372 L2193.85 307.821 L2205.65 307.821 L2205.65 289.372 M2204.43 285.298 L2210.31 285.298 L2210.31 307.821 L2215.24 307.821 L2215.24 311.709 L2210.31 311.709 L2210.31 319.858 L2205.65 319.858 L2205.65 311.709 L2190.05 311.709 L2190.05 307.196 L2204.43 285.298 Z" fill="#000000" fill-rule="evenodd" fill-opacity="1" /></svg>
