<?xml version="1.0" encoding="utf-8"?>
<svg xmlns="http://www.w3.org/2000/svg" xmlns:xlink="http://www.w3.org/1999/xlink" width="600" height="400" viewBox="0 0 2400 1600">
<defs>
  <clipPath id="clip820">
    <rect x="0" y="0" width="2400" height="1600"/>
  </clipPath>
</defs>
<path clip-path="url(#clip820)" d="
M0 1600 L2400 1600 L2400 0 L0 0  Z
  " fill="#ffffff" fill-rule="evenodd" fill-opacity="1"/>
<defs>
  <clipPath id="clip821">
    <rect x="480" y="0" width="1681" height="1600"/>
  </clipPath>
</defs>
<defs>
  <clipPath id="clip822">
    <rect x="251" y="47" width="2102" height="1365"/>
  </clipPath>
</defs>
<path clip-path="url(#clip820)" d="
M251.56 1410.9 L2352.76 1410.9 L2352.76 47.2441 L251.56 47.2441  Z
  " fill="#ffffff" fill-rule="evenodd" fill-opacity="1"/>
<polyline clip-path="url(#clip822)" style="stroke:#000000; stroke-linecap:butt; stroke-linejoin:round; stroke-width:2; stroke-opacity:0.1; fill:none" points="
  730.582,1410.9 730.582,47.2441 
  "/>
<polyline clip-path="url(#clip822)" style="stroke:#000000; stroke-linecap:butt; stroke-linejoin:round; stroke-width:2; stroke-opacity:0.1; fill:none" points="
  1439.58,1410.9 1439.58,47.2441 
  "/>
<polyline clip-path="url(#clip822)" style="stroke:#000000; stroke-linecap:butt; stroke-linejoin:round; stroke-width:2; stroke-opacity:0.1; fill:none" points="
  2148.57,1410.9 2148.57,47.2441 
  "/>
<polyline clip-path="url(#clip820)" style="stroke:#000000; stroke-linecap:butt; stroke-linejoin:round; stroke-width:4; stroke-opacity:1; fill:none" points="
  251.56,1410.9 2352.76,1410.9 
  "/>
<polyline clip-path="url(#clip820)" style="stroke:#000000; stroke-linecap:butt; stroke-linejoin:round; stroke-width:4; stroke-opacity:1; fill:none" points="
  730.582,1410.9 730.582,1392 
  "/>
<polyline clip-path="url(#clip820)" style="stroke:#000000; stroke-linecap:butt; stroke-linejoin:round; stroke-width:4; stroke-opacity:1; fill:none" points="
  1439.58,1410.9 1439.58,1392 
  "/>
<polyline clip-path="url(#clip820)" style="stroke:#000000; stroke-linecap:butt; stroke-linejoin:round; stroke-width:4; stroke-opacity:1; fill:none" points="
  2148.57,1410.9 2148.57,1392 
  "/>
<path clip-path="url(#clip820)" d="M665.341 1485.02 L672.98 1485.02 L672.98 1458.66 L664.669 1460.32 L664.669 1456.06 L672.933 1454.4 L677.609 1454.4 L677.609 1485.02 L685.248 1485.02 L685.248 1488.96 L665.341 1488.96 L665.341 1485.02 Z" fill="#000000" fill-rule="evenodd" fill-opacity="1" /><path clip-path="url(#clip820)" d="M704.692 1457.48 Q701.081 1457.48 699.253 1461.04 Q697.447 1464.58 697.447 1471.71 Q697.447 1478.82 699.253 1482.38 Q701.081 1485.92 704.692 1485.92 Q708.327 1485.92 710.132 1482.38 Q711.961 1478.82 711.961 1471.71 Q711.961 1464.58 710.132 1461.04 Q708.327 1457.48 704.692 1457.48 M704.692 1453.77 Q710.502 1453.77 713.558 1458.38 Q716.637 1462.96 716.637 1471.71 Q716.637 1480.44 713.558 1485.04 Q710.502 1489.63 704.692 1489.63 Q698.882 1489.63 695.803 1485.04 Q692.748 1480.44 692.748 1471.71 Q692.748 1462.96 695.803 1458.38 Q698.882 1453.77 704.692 1453.77 Z" fill="#000000" fill-rule="evenodd" fill-opacity="1" /><path clip-path="url(#clip820)" d="M726.341 1435.97 Q723.407 1435.97 721.922 1438.86 Q720.455 1441.74 720.455 1447.53 Q720.455 1453.31 721.922 1456.2 Q723.407 1459.08 726.341 1459.08 Q729.294 1459.08 730.761 1456.2 Q732.247 1453.31 732.247 1447.53 Q732.247 1441.74 730.761 1438.86 Q729.294 1435.97 726.341 1435.97 M726.341 1432.96 Q731.062 1432.96 733.545 1436.7 Q736.046 1440.43 736.046 1447.53 Q736.046 1454.62 733.545 1458.37 Q731.062 1462.09 726.341 1462.09 Q721.621 1462.09 719.119 1458.37 Q716.637 1454.62 716.637 1447.53 Q716.637 1440.43 719.119 1436.7 Q721.621 1432.96 726.341 1432.96 Z" fill="#000000" fill-rule="evenodd" fill-opacity="1" /><path clip-path="url(#clip820)" d="M742.723 1456.77 L746.691 1456.77 L746.691 1461.55 L742.723 1461.55 L742.723 1456.77 Z" fill="#000000" fill-rule="evenodd" fill-opacity="1" /><path clip-path="url(#clip820)" d="M754.008 1433.47 L772.063 1433.47 L772.063 1435.08 L761.869 1461.55 L757.901 1461.55 L767.493 1436.66 L754.008 1436.66 L754.008 1433.47 Z" fill="#000000" fill-rule="evenodd" fill-opacity="1" /><path clip-path="url(#clip820)" d="M779.511 1433.47 L794.426 1433.47 L794.426 1436.66 L782.99 1436.66 L782.99 1443.55 Q783.818 1443.27 784.646 1443.13 Q785.473 1442.98 786.301 1442.98 Q791.003 1442.98 793.749 1445.56 Q796.494 1448.14 796.494 1452.54 Q796.494 1457.07 793.673 1459.59 Q790.852 1462.09 785.718 1462.09 Q783.95 1462.09 782.107 1461.79 Q780.282 1461.49 778.326 1460.89 L778.326 1457.07 Q780.019 1457.99 781.824 1458.44 Q783.63 1458.89 785.642 1458.89 Q788.896 1458.89 790.796 1457.18 Q792.695 1455.47 792.695 1452.54 Q792.695 1449.6 790.796 1447.89 Q788.896 1446.18 785.642 1446.18 Q784.119 1446.18 782.596 1446.52 Q781.091 1446.86 779.511 1447.57 L779.511 1433.47 Z" fill="#000000" fill-rule="evenodd" fill-opacity="1" /><path clip-path="url(#clip820)" d="M1374.78 1485.02 L1382.41 1485.02 L1382.41 1458.66 L1374.1 1460.32 L1374.1 1456.06 L1382.37 1454.4 L1387.04 1454.4 L1387.04 1485.02 L1394.68 1485.02 L1394.68 1488.96 L1374.78 1488.96 L1374.78 1485.02 Z" fill="#000000" fill-rule="evenodd" fill-opacity="1" /><path clip-path="url(#clip820)" d="M1414.13 1457.48 Q1410.52 1457.48 1408.69 1461.04 Q1406.88 1464.58 1406.88 1471.71 Q1406.88 1478.82 1408.69 1482.38 Q1410.52 1485.92 1414.13 1485.92 Q1417.76 1485.92 1419.57 1482.38 Q1421.4 1478.82 1421.4 1471.71 Q1421.4 1464.58 1419.57 1461.04 Q1417.76 1457.48 1414.13 1457.48 M1414.13 1453.77 Q1419.94 1453.77 1422.99 1458.38 Q1426.07 1462.96 1426.07 1471.71 Q1426.07 1480.44 1422.99 1485.04 Q1419.94 1489.63 1414.13 1489.63 Q1408.32 1489.63 1405.24 1485.04 Q1402.18 1480.44 1402.18 1471.71 Q1402.18 1462.96 1405.24 1458.38 Q1408.32 1453.77 1414.13 1453.77 Z" fill="#000000" fill-rule="evenodd" fill-opacity="1" /><path clip-path="url(#clip820)" d="M1426.62 1458.35 L1432.82 1458.35 L1432.82 1436.93 L1426.07 1438.28 L1426.07 1434.82 L1432.79 1433.47 L1436.59 1433.47 L1436.59 1458.35 L1442.79 1458.35 L1442.79 1461.55 L1426.62 1461.55 L1426.62 1458.35 Z" fill="#000000" fill-rule="evenodd" fill-opacity="1" /><path clip-path="url(#clip820)" d="M1450.47 1456.77 L1454.43 1456.77 L1454.43 1461.55 L1450.47 1461.55 L1450.47 1456.77 Z" fill="#000000" fill-rule="evenodd" fill-opacity="1" /><path clip-path="url(#clip820)" d="M1470.83 1435.97 Q1467.9 1435.97 1466.41 1438.86 Q1464.95 1441.74 1464.95 1447.53 Q1464.95 1453.31 1466.41 1456.2 Q1467.9 1459.08 1470.83 1459.08 Q1473.79 1459.08 1475.25 1456.2 Q1476.74 1453.31 1476.74 1447.53 Q1476.74 1441.74 1475.25 1438.86 Q1473.79 1435.97 1470.83 1435.97 M1470.83 1432.96 Q1475.56 1432.96 1478.04 1436.7 Q1480.54 1440.43 1480.54 1447.53 Q1480.54 1454.62 1478.04 1458.37 Q1475.56 1462.09 1470.83 1462.09 Q1466.11 1462.09 1463.61 1458.37 Q1461.13 1454.62 1461.13 1447.53 Q1461.13 1440.43 1463.61 1436.7 Q1466.11 1432.96 1470.83 1432.96 Z" fill="#000000" fill-rule="evenodd" fill-opacity="1" /><path clip-path="url(#clip820)" d="M1495.34 1435.97 Q1492.41 1435.97 1490.92 1438.86 Q1489.45 1441.74 1489.45 1447.53 Q1489.45 1453.31 1490.92 1456.2 Q1492.41 1459.08 1495.34 1459.08 Q1498.29 1459.08 1499.76 1456.2 Q1501.25 1453.31 1501.25 1447.53 Q1501.25 1441.74 1499.76 1438.86 Q1498.29 1435.97 1495.34 1435.97 M1495.34 1432.96 Q1500.06 1432.96 1502.54 1436.7 Q1505.05 1440.43 1505.05 1447.53 Q1505.05 1454.62 1502.54 1458.37 Q1500.06 1462.09 1495.34 1462.09 Q1490.62 1462.09 1488.12 1458.37 Q1485.64 1454.62 1485.64 1447.53 Q1485.64 1440.43 1488.12 1436.7 Q1490.62 1432.96 1495.34 1432.96 Z" fill="#000000" fill-rule="evenodd" fill-opacity="1" /><path clip-path="url(#clip820)" d="M2084.17 1485.02 L2091.81 1485.02 L2091.81 1458.66 L2083.5 1460.32 L2083.5 1456.06 L2091.77 1454.4 L2096.44 1454.4 L2096.44 1485.02 L2104.08 1485.02 L2104.08 1488.96 L2084.17 1488.96 L2084.17 1485.02 Z" fill="#000000" fill-rule="evenodd" fill-opacity="1" /><path clip-path="url(#clip820)" d="M2123.53 1457.48 Q2119.91 1457.48 2118.09 1461.04 Q2116.28 1464.58 2116.28 1471.71 Q2116.28 1478.82 2118.09 1482.38 Q2119.91 1485.92 2123.53 1485.92 Q2127.16 1485.92 2128.96 1482.38 Q2130.79 1478.82 2130.79 1471.71 Q2130.79 1464.58 2128.96 1461.04 Q2127.16 1457.48 2123.53 1457.48 M2123.53 1453.77 Q2129.34 1453.77 2132.39 1458.38 Q2135.47 1462.96 2135.47 1471.71 Q2135.47 1480.44 2132.39 1485.04 Q2129.34 1489.63 2123.53 1489.63 Q2117.71 1489.63 2114.64 1485.04 Q2111.58 1480.44 2111.58 1471.71 Q2111.58 1462.96 2114.64 1458.38 Q2117.71 1453.77 2123.53 1453.77 Z" fill="#000000" fill-rule="evenodd" fill-opacity="1" /><path clip-path="url(#clip820)" d="M2136.01 1458.35 L2142.22 1458.35 L2142.22 1436.93 L2135.47 1438.28 L2135.47 1434.82 L2142.18 1433.47 L2145.98 1433.47 L2145.98 1458.35 L2152.19 1458.35 L2152.19 1461.55 L2136.01 1461.55 L2136.01 1458.35 Z" fill="#000000" fill-rule="evenodd" fill-opacity="1" /><path clip-path="url(#clip820)" d="M2159.86 1456.77 L2163.83 1456.77 L2163.83 1461.55 L2159.86 1461.55 L2159.86 1456.77 Z" fill="#000000" fill-rule="evenodd" fill-opacity="1" /><path clip-path="url(#clip820)" d="M2175.38 1458.35 L2188.64 1458.35 L2188.64 1461.55 L2170.81 1461.55 L2170.81 1458.35 Q2172.97 1456.11 2176.7 1452.35 Q2180.44 1448.57 2181.4 1447.48 Q2183.22 1445.43 2183.94 1444.02 Q2184.67 1442.59 2184.67 1441.22 Q2184.67 1438.98 2183.09 1437.57 Q2181.53 1436.16 2179.01 1436.16 Q2177.22 1436.16 2175.23 1436.78 Q2173.25 1437.4 2171 1438.66 L2171 1434.82 Q2173.29 1433.9 2175.29 1433.43 Q2177.28 1432.96 2178.93 1432.96 Q2183.3 1432.96 2185.89 1435.14 Q2188.49 1437.32 2188.49 1440.97 Q2188.49 1442.7 2187.83 1444.26 Q2187.19 1445.8 2185.48 1447.91 Q2185.01 1448.46 2182.49 1451.07 Q2179.97 1453.67 2175.38 1458.35 Z" fill="#000000" fill-rule="evenodd" fill-opacity="1" /><path clip-path="url(#clip820)" d="M2196.65 1433.47 L2211.57 1433.47 L2211.57 1436.66 L2200.13 1436.66 L2200.13 1443.55 Q2200.96 1443.27 2201.79 1443.13 Q2202.61 1442.98 2203.44 1442.98 Q2208.14 1442.98 2210.89 1445.56 Q2213.63 1448.14 2213.63 1452.54 Q2213.63 1457.07 2210.81 1459.59 Q2207.99 1462.09 2202.86 1462.09 Q2201.09 1462.09 2199.25 1461.79 Q2197.42 1461.49 2195.47 1460.89 L2195.47 1457.07 Q2197.16 1457.99 2198.96 1458.44 Q2200.77 1458.89 2202.78 1458.89 Q2206.04 1458.89 2207.94 1457.18 Q2209.84 1455.47 2209.84 1452.54 Q2209.84 1449.6 2207.94 1447.89 Q2206.04 1446.18 2202.78 1446.18 Q2201.26 1446.18 2199.74 1446.52 Q2198.23 1446.86 2196.65 1447.57 L2196.65 1433.47 Z" fill="#000000" fill-rule="evenodd" fill-opacity="1" /><path clip-path="url(#clip820)" d="M1317.09 1552.67 L1317.09 1574.19 L1311.23 1574.19 L1311.23 1552.86 Q1311.23 1547.8 1309.26 1545.29 Q1307.28 1542.77 1303.34 1542.77 Q1298.59 1542.77 1295.86 1545.79 Q1293.12 1548.82 1293.12 1554.04 L1293.12 1574.19 L1287.23 1574.19 L1287.23 1538.54 L1293.12 1538.54 L1293.12 1544.08 Q1295.22 1540.86 1298.05 1539.27 Q1300.92 1537.68 1304.64 1537.68 Q1310.78 1537.68 1313.93 1541.5 Q1317.09 1545.29 1317.09 1552.67 Z" fill="#000000" fill-rule="evenodd" fill-opacity="1" /><polyline clip-path="url(#clip822)" style="stroke:#000000; stroke-linecap:butt; stroke-linejoin:round; stroke-width:2; stroke-opacity:0.1; fill:none" points="
  251.56,880.452 2352.76,880.452 
  "/>
<polyline clip-path="url(#clip822)" style="stroke:#000000; stroke-linecap:butt; stroke-linejoin:round; stroke-width:2; stroke-opacity:0.1; fill:none" points="
  251.56,90.6614 2352.76,90.6614 
  "/>
<polyline clip-path="url(#clip820)" style="stroke:#000000; stroke-linecap:butt; stroke-linejoin:round; stroke-width:4; stroke-opacity:1; fill:none" points="
  251.56,1410.9 251.56,47.2441 
  "/>
<polyline clip-path="url(#clip820)" style="stroke:#000000; stroke-linecap:butt; stroke-linejoin:round; stroke-width:4; stroke-opacity:1; fill:none" points="
  251.56,880.452 270.458,880.452 
  "/>
<polyline clip-path="url(#clip820)" style="stroke:#000000; stroke-linecap:butt; stroke-linejoin:round; stroke-width:4; stroke-opacity:1; fill:none" points="
  251.56,90.6614 270.458,90.6614 
  "/>
<path clip-path="url(#clip820)" d="M114.931 900.244 L122.57 900.244 L122.57 873.879 L114.26 875.545 L114.26 871.286 L122.524 869.619 L127.2 869.619 L127.2 900.244 L134.839 900.244 L134.839 904.179 L114.931 904.179 L114.931 900.244 Z" fill="#000000" fill-rule="evenodd" fill-opacity="1" /><path clip-path="url(#clip820)" d="M154.283 872.698 Q150.672 872.698 148.843 876.263 Q147.038 879.805 147.038 886.934 Q147.038 894.041 148.843 897.605 Q150.672 901.147 154.283 901.147 Q157.917 901.147 159.723 897.605 Q161.552 894.041 161.552 886.934 Q161.552 879.805 159.723 876.263 Q157.917 872.698 154.283 872.698 M154.283 868.994 Q160.093 868.994 163.149 873.601 Q166.227 878.184 166.227 886.934 Q166.227 895.661 163.149 900.267 Q160.093 904.851 154.283 904.851 Q148.473 904.851 145.394 900.267 Q142.339 895.661 142.339 886.934 Q142.339 878.184 145.394 873.601 Q148.473 868.994 154.283 868.994 Z" fill="#000000" fill-rule="evenodd" fill-opacity="1" /><path clip-path="url(#clip820)" d="M166.227 863.096 L190.339 863.096 L190.339 866.293 L166.227 866.293 L166.227 863.096 Z" fill="#000000" fill-rule="evenodd" fill-opacity="1" /><path clip-path="url(#clip820)" d="M198.577 848.689 L213.491 848.689 L213.491 851.886 L202.056 851.886 L202.056 858.77 Q202.884 858.488 203.711 858.356 Q204.539 858.206 205.366 858.206 Q210.068 858.206 212.814 860.782 Q215.56 863.359 215.56 867.76 Q215.56 872.293 212.739 874.813 Q209.918 877.314 204.783 877.314 Q203.015 877.314 201.172 877.013 Q199.348 876.713 197.392 876.111 L197.392 872.293 Q199.085 873.214 200.89 873.666 Q202.696 874.117 204.708 874.117 Q207.962 874.117 209.861 872.406 Q211.761 870.694 211.761 867.76 Q211.761 864.826 209.861 863.115 Q207.962 861.403 204.708 861.403 Q203.185 861.403 201.661 861.742 Q200.157 862.08 198.577 862.795 L198.577 848.689 Z" fill="#000000" fill-rule="evenodd" fill-opacity="1" /><path clip-path="url(#clip820)" d="M144.855 110.454 L152.493 110.454 L152.493 84.0883 L144.183 85.7549 L144.183 81.4957 L152.447 79.829 L157.123 79.829 L157.123 110.454 L164.762 110.454 L164.762 114.389 L144.855 114.389 L144.855 110.454 Z" fill="#000000" fill-rule="evenodd" fill-opacity="1" /><path clip-path="url(#clip820)" d="M184.206 82.9077 Q180.595 82.9077 178.766 86.4725 Q176.961 90.0142 176.961 97.1437 Q176.961 104.25 178.766 107.815 Q180.595 111.357 184.206 111.357 Q187.84 111.357 189.646 107.815 Q191.475 104.25 191.475 97.1437 Q191.475 90.0142 189.646 86.4725 Q187.84 82.9077 184.206 82.9077 M184.206 79.204 Q190.016 79.204 193.072 83.8105 Q196.151 88.3938 196.151 97.1437 Q196.151 105.871 193.072 110.477 Q190.016 115.06 184.206 115.06 Q178.396 115.06 175.317 110.477 Q172.262 105.871 172.262 97.1437 Q172.262 88.3938 175.317 83.8105 Q178.396 79.204 184.206 79.204 Z" fill="#000000" fill-rule="evenodd" fill-opacity="1" /><path clip-path="url(#clip820)" d="M205.855 61.4001 Q202.921 61.4001 201.436 64.2965 Q199.969 67.174 199.969 72.9668 Q199.969 78.7408 201.436 81.6372 Q202.921 84.5148 205.855 84.5148 Q208.808 84.5148 210.275 81.6372 Q211.761 78.7408 211.761 72.9668 Q211.761 67.174 210.275 64.2965 Q208.808 61.4001 205.855 61.4001 M205.855 58.3908 Q210.576 58.3908 213.059 62.1336 Q215.56 65.8575 215.56 72.9668 Q215.56 80.0574 213.059 83.8001 Q210.576 87.5241 205.855 87.5241 Q201.135 87.5241 198.633 83.8001 Q196.151 80.0574 196.151 72.9668 Q196.151 65.8575 198.633 62.1336 Q201.135 58.3908 205.855 58.3908 Z" fill="#000000" fill-rule="evenodd" fill-opacity="1" /><path clip-path="url(#clip820)" d="M44.7161 773.137 L47.5806 773.137 L47.5806 800.064 Q53.6281 799.682 56.8109 796.435 Q59.9619 793.157 59.9619 787.332 Q59.9619 783.959 59.1344 780.808 Q58.3069 777.625 56.6518 774.506 L62.1899 774.506 Q63.5267 777.657 64.227 780.967 Q64.9272 784.277 64.9272 787.683 Q64.9272 796.213 59.9619 801.21 Q54.9967 806.175 46.5303 806.175 Q37.7774 806.175 32.6531 801.464 Q27.4968 796.722 27.4968 788.701 Q27.4968 781.508 32.1438 777.338 Q36.7589 773.137 44.7161 773.137 M42.9973 778.993 Q38.1912 779.057 35.3266 781.699 Q32.4621 784.309 32.4621 788.637 Q32.4621 793.539 35.2312 796.499 Q38.0002 799.427 43.0292 799.873 L42.9973 778.993 Z" fill="#000000" fill-rule="evenodd" fill-opacity="1" /><path clip-path="url(#clip820)" d="M33.8307 742.868 Q33.2578 743.855 33.0032 745.032 Q32.7167 746.178 32.7167 747.579 Q32.7167 752.544 35.9632 755.218 Q39.1779 757.859 45.2253 757.859 L64.0042 757.859 L64.0042 763.748 L28.3562 763.748 L28.3562 757.859 L33.8944 757.859 Q30.6479 756.013 29.0883 753.053 Q27.4968 750.093 27.4968 745.86 Q27.4968 745.255 27.5923 744.523 Q27.656 743.791 27.8151 742.9 L33.8307 742.868 Z" fill="#000000" fill-rule="evenodd" fill-opacity="1" /><path clip-path="url(#clip820)" d="M33.8307 717.214 Q33.2578 718.201 33.0032 719.379 Q32.7167 720.524 32.7167 721.925 Q32.7167 726.89 35.9632 729.564 Q39.1779 732.205 45.2253 732.205 L64.0042 732.205 L64.0042 738.094 L28.3562 738.094 L28.3562 732.205 L33.8944 732.205 Q30.6479 730.359 29.0883 727.399 Q27.4968 724.439 27.4968 720.206 Q27.4968 719.601 27.5923 718.869 Q27.656 718.137 27.8151 717.246 L33.8307 717.214 Z" fill="#000000" fill-rule="evenodd" fill-opacity="1" /><path clip-path="url(#clip820)" d="M32.4621 698.69 Q32.4621 703.401 36.1542 706.138 Q39.8145 708.875 46.212 708.875 Q52.6095 708.875 56.3017 706.17 Q59.9619 703.432 59.9619 698.69 Q59.9619 694.011 56.2698 691.274 Q52.5777 688.537 46.212 688.537 Q39.8781 688.537 36.186 691.274 Q32.4621 694.011 32.4621 698.69 M27.4968 698.69 Q27.4968 691.051 32.4621 686.691 Q37.4273 682.33 46.212 682.33 Q54.9649 682.33 59.9619 686.691 Q64.9272 691.051 64.9272 698.69 Q64.9272 706.361 59.9619 710.721 Q54.9649 715.05 46.212 715.05 Q37.4273 715.05 32.4621 710.721 Q27.4968 706.361 27.4968 698.69 Z" fill="#000000" fill-rule="evenodd" fill-opacity="1" /><path clip-path="url(#clip820)" d="M33.8307 651.966 Q33.2578 652.952 33.0032 654.13 Q32.7167 655.276 32.7167 656.676 Q32.7167 661.642 35.9632 664.315 Q39.1779 666.957 45.2253 666.957 L64.0042 666.957 L64.0042 672.845 L28.3562 672.845 L28.3562 666.957 L33.8944 666.957 Q30.6479 665.111 29.0883 662.151 Q27.4968 659.191 27.4968 654.958 Q27.4968 654.353 27.5923 653.621 Q27.656 652.889 27.8151 651.998 L33.8307 651.966 Z" fill="#000000" fill-rule="evenodd" fill-opacity="1" /><circle clip-path="url(#clip822)" cx="311.028" cy="85.838" r="14" fill="#009af9" fill-rule="evenodd" fill-opacity="1" stroke="#000000" stroke-opacity="1" stroke-width="3.2"/>
<circle clip-path="url(#clip822)" cx="585.862" cy="144.831" r="14" fill="#009af9" fill-rule="evenodd" fill-opacity="1" stroke="#000000" stroke-opacity="1" stroke-width="3.2"/>
<circle clip-path="url(#clip822)" cx="810.418" cy="198.585" r="14" fill="#009af9" fill-rule="evenodd" fill-opacity="1" stroke="#000000" stroke-opacity="1" stroke-width="3.2"/>
<circle clip-path="url(#clip822)" cx="1000.28" cy="254.973" r="14" fill="#009af9" fill-rule="evenodd" fill-opacity="1" stroke="#000000" stroke-opacity="1" stroke-width="3.2"/>
<circle clip-path="url(#clip822)" cx="1164.74" cy="306.462" r="14" fill="#009af9" fill-rule="evenodd" fill-opacity="1" stroke="#000000" stroke-opacity="1" stroke-width="3.2"/>
<circle clip-path="url(#clip822)" cx="1309.81" cy="360.993" r="14" fill="#009af9" fill-rule="evenodd" fill-opacity="1" stroke="#000000" stroke-opacity="1" stroke-width="3.2"/>
<circle clip-path="url(#clip822)" cx="1439.58" cy="423.623" r="14" fill="#009af9" fill-rule="evenodd" fill-opacity="1" stroke="#000000" stroke-opacity="1" stroke-width="3.2"/>
<circle clip-path="url(#clip822)" cx="1556.96" cy="485.505" r="14" fill="#009af9" fill-rule="evenodd" fill-opacity="1" stroke="#000000" stroke-opacity="1" stroke-width="3.2"/>
<circle clip-path="url(#clip822)" cx="1664.13" cy="538.502" r="14" fill="#009af9" fill-rule="evenodd" fill-opacity="1" stroke="#000000" stroke-opacity="1" stroke-width="3.2"/>
<circle clip-path="url(#clip822)" cx="1762.72" cy="594.388" r="14" fill="#009af9" fill-rule="evenodd" fill-opacity="1" stroke="#000000" stroke-opacity="1" stroke-width="3.2"/>
<circle clip-path="url(#clip822)" cx="1853.99" cy="664.51" r="14" fill="#009af9" fill-rule="evenodd" fill-opacity="1" stroke="#000000" stroke-opacity="1" stroke-width="3.2"/>
<circle clip-path="url(#clip822)" cx="1938.97" cy="733.443" r="14" fill="#009af9" fill-rule="evenodd" fill-opacity="1" stroke="#000000" stroke-opacity="1" stroke-width="3.2"/>
<circle clip-path="url(#clip822)" cx="2018.45" cy="777.773" r="14" fill="#009af9" fill-rule="evenodd" fill-opacity="1" stroke="#000000" stroke-opacity="1" stroke-width="3.2"/>
<circle clip-path="url(#clip822)" cx="2093.12" cy="828.745" r="14" fill="#009af9" fill-rule="evenodd" fill-opacity="1" stroke="#000000" stroke-opacity="1" stroke-width="3.2"/>
<circle clip-path="url(#clip822)" cx="2163.52" cy="918.226" r="14" fill="#009af9" fill-rule="evenodd" fill-opacity="1" stroke="#000000" stroke-opacity="1" stroke-width="3.2"/>
<circle clip-path="url(#clip822)" cx="2230.11" cy="1014.39" r="14" fill="#009af9" fill-rule="evenodd" fill-opacity="1" stroke="#000000" stroke-opacity="1" stroke-width="3.2"/>
<circle clip-path="url(#clip822)" cx="2293.29" cy="1013.68" r="14" fill="#009af9" fill-rule="evenodd" fill-opacity="1" stroke="#000000" stroke-opacity="1" stroke-width="3.2"/>
<circle clip-path="url(#clip822)" cx="311.028" cy="152.936" r="14" fill="#e26f46" fill-rule="evenodd" fill-opacity="1" stroke="#000000" stroke-opacity="1" stroke-width="3.2"/>
<circle clip-path="url(#clip822)" cx="585.862" cy="225.327" r="14" fill="#e26f46" fill-rule="evenodd" fill-opacity="1" stroke="#000000" stroke-opacity="1" stroke-width="3.2"/>
<circle clip-path="url(#clip822)" cx="810.418" cy="322.443" r="14" fill="#e26f46" fill-rule="evenodd" fill-opacity="1" stroke="#000000" stroke-opacity="1" stroke-width="3.2"/>
<circle clip-path="url(#clip822)" cx="1000.28" cy="415.111" r="14" fill="#e26f46" fill-rule="evenodd" fill-opacity="1" stroke="#000000" stroke-opacity="1" stroke-width="3.2"/>
<circle clip-path="url(#clip822)" cx="1164.74" cy="485.874" r="14" fill="#e26f46" fill-rule="evenodd" fill-opacity="1" stroke="#000000" stroke-opacity="1" stroke-width="3.2"/>
<circle clip-path="url(#clip822)" cx="1309.81" cy="567.524" r="14" fill="#e26f46" fill-rule="evenodd" fill-opacity="1" stroke="#000000" stroke-opacity="1" stroke-width="3.2"/>
<circle clip-path="url(#clip822)" cx="1439.58" cy="689.89" r="14" fill="#e26f46" fill-rule="evenodd" fill-opacity="1" stroke="#000000" stroke-opacity="1" stroke-width="3.2"/>
<circle clip-path="url(#clip822)" cx="1556.96" cy="813.384" r="14" fill="#e26f46" fill-rule="evenodd" fill-opacity="1" stroke="#000000" stroke-opacity="1" stroke-width="3.2"/>
<circle clip-path="url(#clip822)" cx="1664.13" cy="829.543" r="14" fill="#e26f46" fill-rule="evenodd" fill-opacity="1" stroke="#000000" stroke-opacity="1" stroke-width="3.2"/>
<circle clip-path="url(#clip822)" cx="1762.72" cy="896.355" r="14" fill="#e26f46" fill-rule="evenodd" fill-opacity="1" stroke="#000000" stroke-opacity="1" stroke-width="3.2"/>
<circle clip-path="url(#clip822)" cx="1853.99" cy="1126.92" r="14" fill="#e26f46" fill-rule="evenodd" fill-opacity="1" stroke="#000000" stroke-opacity="1" stroke-width="3.2"/>
<circle clip-path="url(#clip822)" cx="1938.97" cy="1085.9" r="14" fill="#e26f46" fill-rule="evenodd" fill-opacity="1" stroke="#000000" stroke-opacity="1" stroke-width="3.2"/>
<circle clip-path="url(#clip822)" cx="2018.45" cy="1127.49" r="14" fill="#e26f46" fill-rule="evenodd" fill-opacity="1" stroke="#000000" stroke-opacity="1" stroke-width="3.2"/>
<circle clip-path="url(#clip822)" cx="2093.12" cy="1170.48" r="14" fill="#e26f46" fill-rule="evenodd" fill-opacity="1" stroke="#000000" stroke-opacity="1" stroke-width="3.2"/>
<circle clip-path="url(#clip822)" cx="2163.52" cy="1267.21" r="14" fill="#e26f46" fill-rule="evenodd" fill-opacity="1" stroke="#000000" stroke-opacity="1" stroke-width="3.2"/>
<circle clip-path="url(#clip822)" cx="2230.11" cy="1296.65" r="14" fill="#e26f46" fill-rule="evenodd" fill-opacity="1" stroke="#000000" stroke-opacity="1" stroke-width="3.2"/>
<circle clip-path="url(#clip822)" cx="2293.29" cy="1372.3" r="14" fill="#e26f46" fill-rule="evenodd" fill-opacity="1" stroke="#000000" stroke-opacity="1" stroke-width="3.2"/>
<polyline clip-path="url(#clip822)" style="stroke:#3da44d; stroke-linecap:butt; stroke-linejoin:round; stroke-width:16; stroke-opacity:1; fill:none" points="
  311.028,185.762 585.862,201.069 810.418,213.577 1000.28,224.151 1164.74,233.312 1309.81,241.392 1439.58,248.619 1556.96,255.158 1664.13,261.127 1762.72,266.618 
  1853.99,271.702 1938.97,276.435 2018.45,280.862 2093.12,285.021 2163.52,288.942 2230.11,292.651 2293.29,296.17 
  "/>
<polyline clip-path="url(#clip822)" style="stroke:#c271d2; stroke-linecap:butt; stroke-linejoin:round; stroke-width:16; stroke-opacity:1; fill:none" points="
  311.028,280.862 585.862,311.477 810.418,336.492 1000.28,357.642 1164.74,375.962 1309.81,392.122 1439.58,406.578 1556.96,419.654 1664.13,431.592 1762.72,442.574 
  1853.99,452.742 1938.97,462.208 2018.45,471.062 2093.12,479.38 2163.52,487.222 2230.11,494.64 2293.29,501.678 
  "/>
<polyline clip-path="url(#clip822)" style="stroke:#ac8d18; stroke-linecap:butt; stroke-linejoin:round; stroke-width:16; stroke-opacity:1; fill:none" points="
  311.028,375.962 585.862,421.885 810.418,459.407 1000.28,491.132 1164.74,518.612 1309.81,542.852 1439.58,564.536 1556.96,584.151 1664.13,602.058 1762.72,618.53 
  1853.99,633.782 1938.97,647.981 2018.45,661.263 2093.12,673.739 2163.52,685.503 2230.11,696.63 2293.29,707.186 
  "/>
<polyline clip-path="url(#clip822)" style="stroke:#00a9ad; stroke-linecap:butt; stroke-linejoin:round; stroke-width:16; stroke-opacity:1; fill:none" points="
  311.028,471.062 585.862,532.293 810.418,582.323 1000.28,624.622 1164.74,661.263 1309.81,693.583 1439.58,722.494 1556.96,748.647 1664.13,772.523 1762.72,794.487 
  1853.99,814.822 1938.97,833.754 2018.45,851.463 2093.12,868.099 2163.52,883.783 2230.11,898.619 2293.29,912.694 
  "/>
<polyline clip-path="url(#clip822)" style="stroke:#ed5d92; stroke-linecap:butt; stroke-linejoin:round; stroke-width:16; stroke-opacity:1; fill:none" points="
  311.028,566.163 585.862,642.701 810.418,705.238 1000.28,758.112 1164.74,803.913 1309.81,844.313 1439.58,880.452 1556.96,913.143 1664.13,942.988 1762.72,970.443 
  1853.99,995.862 1938.97,1019.53 2018.45,1041.66 2093.12,1062.46 2163.52,1082.06 2230.11,1100.61 2293.29,1118.2 
  "/>
<path clip-path="url(#clip820)" d="
M1789.6 714.779 L2282.72 714.779 L2282.72 92.6992 L1789.6 92.6992  Z
  " fill="#ffffff" fill-rule="evenodd" fill-opacity="1"/>
<polyline clip-path="url(#clip820)" style="stroke:#000000; stroke-linecap:butt; stroke-linejoin:round; stroke-width:4; stroke-opacity:1; fill:none" points="
  1789.6,714.779 2282.72,714.779 2282.72,92.6992 1789.6,92.6992 1789.6,714.779 
  "/>
<circle clip-path="url(#clip820)" cx="1882.98" cy="170.459" r="34" fill="#009af9" fill-rule="evenodd" fill-opacity="1" stroke="#000000" stroke-opacity="1" stroke-width="7.68"/>
<path clip-path="url(#clip820)" d="M2001.13 142.352 L2001.13 147.664 L1995.02 147.664 Q1991.58 147.664 1990.23 149.053 Q1988.91 150.442 1988.91 154.053 L1988.91 157.49 L1999.43 157.49 L1999.43 162.456 L1988.91 162.456 L1988.91 196.379 L1982.48 196.379 L1982.48 162.456 L1976.37 162.456 L1976.37 157.49 L1982.48 157.49 L1982.48 154.782 Q1982.48 148.289 1985.5 145.338 Q1988.52 142.352 1995.09 142.352 L2001.13 142.352 Z" fill="#000000" fill-rule="evenodd" fill-opacity="1" /><path clip-path="url(#clip820)" d="M2036.02 208.185 L2036.02 213.15 L1999.08 213.15 L1999.08 208.185 L2036.02 208.185 Z" fill="#000000" fill-rule="evenodd" fill-opacity="1" /><path clip-path="url(#clip820)" d="M2075.29 175.338 L2075.29 178.463 L2045.92 178.463 Q2046.34 185.06 2049.88 188.532 Q2053.45 191.969 2059.81 191.969 Q2063.49 191.969 2066.93 191.067 Q2070.4 190.164 2073.8 188.358 L2073.8 194.4 Q2070.36 195.858 2066.75 196.622 Q2063.14 197.386 2059.43 197.386 Q2050.12 197.386 2044.67 191.969 Q2039.25 186.553 2039.25 177.317 Q2039.25 167.768 2044.39 162.178 Q2049.57 156.553 2058.32 156.553 Q2066.16 156.553 2070.71 161.622 Q2075.29 166.657 2075.29 175.338 M2068.91 173.463 Q2068.84 168.22 2065.95 165.095 Q2063.11 161.97 2058.38 161.97 Q2053.04 161.97 2049.81 164.99 Q2046.61 168.011 2046.13 173.497 L2068.91 173.463 Z" fill="#000000" fill-rule="evenodd" fill-opacity="1" /><path clip-path="url(#clip820)" d="M2116.86 157.49 L2102.79 176.414 L2117.59 196.379 L2110.05 196.379 L2098.73 181.101 L2087.41 196.379 L2079.88 196.379 L2094.98 176.032 L2081.16 157.49 L2088.7 157.49 L2099.01 171.345 L2109.32 157.49 L2116.86 157.49 Z" fill="#000000" fill-rule="evenodd" fill-opacity="1" /><path clip-path="url(#clip820)" d="M2132.79 190.546 L2132.79 211.171 L2126.37 211.171 L2126.37 157.49 L2132.79 157.49 L2132.79 163.393 Q2134.81 159.921 2137.86 158.254 Q2140.95 156.553 2145.22 156.553 Q2152.31 156.553 2156.72 162.178 Q2161.16 167.803 2161.16 176.97 Q2161.16 186.136 2156.72 191.761 Q2152.31 197.386 2145.22 197.386 Q2140.95 197.386 2137.86 195.719 Q2134.81 194.018 2132.79 190.546 M2154.53 176.97 Q2154.53 169.921 2151.61 165.928 Q2148.73 161.9 2143.66 161.9 Q2138.59 161.9 2135.68 165.928 Q2132.79 169.921 2132.79 176.97 Q2132.79 184.018 2135.68 188.046 Q2138.59 192.039 2143.66 192.039 Q2148.73 192.039 2151.61 188.046 Q2154.53 184.018 2154.53 176.97 Z" fill="#000000" fill-rule="evenodd" fill-opacity="1" /><path clip-path="url(#clip820)" d="M2204.08 157.49 L2190.02 176.414 L2204.81 196.379 L2197.27 196.379 L2185.95 181.101 L2174.63 196.379 L2167.1 196.379 L2182.2 176.032 L2168.38 157.49 L2175.92 157.49 L2186.23 171.345 L2196.54 157.49 L2204.08 157.49 Z" fill="#000000" fill-rule="evenodd" fill-opacity="1" /><circle clip-path="url(#clip820)" cx="1882.98" cy="248.219" r="34" fill="#e26f46" fill-rule="evenodd" fill-opacity="1" stroke="#000000" stroke-opacity="1" stroke-width="7.68"/>
<path clip-path="url(#clip820)" d="M2001.13 220.112 L2001.13 225.424 L1995.02 225.424 Q1991.58 225.424 1990.23 226.813 Q1988.91 228.202 1988.91 231.813 L1988.91 235.25 L1999.43 235.25 L1999.43 240.216 L1988.91 240.216 L1988.91 274.139 L1982.48 274.139 L1982.48 240.216 L1976.37 240.216 L1976.37 235.25 L1982.48 235.25 L1982.48 232.542 Q1982.48 226.049 1985.5 223.098 Q1988.52 220.112 1995.09 220.112 L2001.13 220.112 Z" fill="#000000" fill-rule="evenodd" fill-opacity="1" /><path clip-path="url(#clip820)" d="M2036.02 285.945 L2036.02 290.91 L1999.08 290.91 L1999.08 285.945 L2036.02 285.945 Z" fill="#000000" fill-rule="evenodd" fill-opacity="1" /><path clip-path="url(#clip820)" d="M2067.62 241.153 L2067.62 220.112 L2074.01 220.112 L2074.01 274.139 L2067.62 274.139 L2067.62 268.306 Q2065.61 271.778 2062.52 273.479 Q2059.46 275.146 2055.16 275.146 Q2048.11 275.146 2043.66 269.521 Q2039.25 263.896 2039.25 254.73 Q2039.25 245.563 2043.66 239.938 Q2048.11 234.313 2055.16 234.313 Q2059.46 234.313 2062.52 236.014 Q2065.61 237.681 2067.62 241.153 M2045.85 254.73 Q2045.85 261.778 2048.73 265.806 Q2051.65 269.799 2056.72 269.799 Q2061.79 269.799 2064.7 265.806 Q2067.62 261.778 2067.62 254.73 Q2067.62 247.681 2064.7 243.688 Q2061.79 239.66 2056.72 239.66 Q2051.65 239.66 2048.73 243.688 Q2045.85 247.681 2045.85 254.73 Z" fill="#000000" fill-rule="evenodd" fill-opacity="1" /><path clip-path="url(#clip820)" d="M2093.49 224.209 L2093.49 235.25 L2106.65 235.25 L2106.65 240.216 L2093.49 240.216 L2093.49 261.327 Q2093.49 266.084 2094.77 267.438 Q2096.09 268.792 2100.09 268.792 L2106.65 268.792 L2106.65 274.139 L2100.09 274.139 Q2092.69 274.139 2089.88 271.396 Q2087.07 268.618 2087.07 261.327 L2087.07 240.216 L2082.38 240.216 L2082.38 235.25 L2087.07 235.25 L2087.07 224.209 L2093.49 224.209 Z" fill="#000000" fill-rule="evenodd" fill-opacity="1" /><path clip-path="url(#clip820)" d="M2132.72 254.591 Q2124.98 254.591 2122 256.361 Q2119.01 258.132 2119.01 262.403 Q2119.01 265.806 2121.23 267.82 Q2123.49 269.799 2127.34 269.799 Q2132.66 269.799 2135.85 266.049 Q2139.08 262.264 2139.08 256.014 L2139.08 254.591 L2132.72 254.591 M2145.47 251.952 L2145.47 274.139 L2139.08 274.139 L2139.08 268.236 Q2136.89 271.778 2133.63 273.479 Q2130.36 275.146 2125.64 275.146 Q2119.67 275.146 2116.13 271.813 Q2112.62 268.445 2112.62 262.82 Q2112.62 256.257 2117 252.924 Q2121.41 249.591 2130.12 249.591 L2139.08 249.591 L2139.08 248.966 Q2139.08 244.556 2136.16 242.16 Q2133.28 239.73 2128.04 239.73 Q2124.7 239.73 2121.54 240.528 Q2118.38 241.327 2115.47 242.924 L2115.47 237.021 Q2118.97 235.667 2122.27 235.007 Q2125.57 234.313 2128.7 234.313 Q2137.13 234.313 2141.3 238.688 Q2145.47 243.063 2145.47 251.952 Z" fill="#000000" fill-rule="evenodd" fill-opacity="1" /><path clip-path="url(#clip820)" d="M2190.95 250.667 L2190.95 274.139 L2184.56 274.139 L2184.56 250.875 Q2184.56 245.355 2182.41 242.612 Q2180.26 239.869 2175.95 239.869 Q2170.78 239.869 2167.79 243.167 Q2164.81 246.466 2164.81 252.16 L2164.81 274.139 L2158.38 274.139 L2158.38 235.25 L2164.81 235.25 L2164.81 241.292 Q2167.1 237.785 2170.19 236.049 Q2173.31 234.313 2177.38 234.313 Q2184.08 234.313 2187.52 238.48 Q2190.95 242.612 2190.95 250.667 Z" fill="#000000" fill-rule="evenodd" fill-opacity="1" /><path clip-path="url(#clip820)" d="M2236.02 250.667 L2236.02 274.139 L2229.63 274.139 L2229.63 250.875 Q2229.63 245.355 2227.48 242.612 Q2225.33 239.869 2221.02 239.869 Q2215.85 239.869 2212.86 243.167 Q2209.88 246.466 2209.88 252.16 L2209.88 274.139 L2203.45 274.139 L2203.45 220.112 L2209.88 220.112 L2209.88 241.292 Q2212.17 237.785 2215.26 236.049 Q2218.38 234.313 2222.45 234.313 Q2229.15 234.313 2232.59 238.48 Q2236.02 242.612 2236.02 250.667 Z" fill="#000000" fill-rule="evenodd" fill-opacity="1" /><polyline clip-path="url(#clip820)" style="stroke:#3da44d; stroke-linecap:butt; stroke-linejoin:round; stroke-width:6; stroke-opacity:1; fill:none" points="
  1812.95,325.979 1953.02,325.979 
  "/>
<path clip-path="url(#clip820)" d="M2015.37 353.027 Q2015.37 353.308 2015.05 354.397 Q2014.74 355.486 2013.96 357.172 Q2013.23 358.859 2012.21 360.405 Q2011.19 361.915 2009.5 363.04 Q2007.85 364.129 2005.95 364.129 Q2003.42 364.129 2001.74 362.442 Q2000.05 360.756 2000.05 358.226 Q2000.05 356.821 2000.79 354.889 Q2005.46 342.416 2005.46 338.13 Q2005.46 333.106 2001.56 333.106 Q1999.63 333.106 1997.8 333.844 Q1996.01 334.546 1994.78 335.53 Q1993.55 336.514 1992.43 337.884 Q1991.34 339.219 1990.78 340.133 Q1990.25 341.011 1989.83 341.889 L1988.91 345.473 Q1988.7 346.457 1987.68 350.286 L1986.1 356.786 Q1984.98 361.634 1984.73 362.091 Q1984.38 363.075 1983.61 363.602 Q1982.84 364.129 1982.06 364.129 Q1981.18 364.129 1980.59 363.602 Q1979.99 363.075 1979.99 362.161 Q1979.99 362.021 1980.1 361.494 Q1980.2 360.967 1980.38 360.229 Q1980.55 359.491 1980.62 359.07 L1984.8 342.451 Q1985.58 339.43 1985.75 338.481 Q1985.96 337.498 1985.96 336.408 Q1985.96 333.106 1983.71 333.106 Q1981.89 333.106 1980.69 335.284 Q1979.5 337.462 1978.48 341.678 Q1978.16 342.838 1977.95 343.084 Q1977.78 343.33 1977.25 343.33 Q1976.37 343.295 1976.37 342.592 Q1976.37 342.416 1976.65 341.257 Q1976.93 340.097 1977.46 338.446 Q1978.02 336.76 1978.55 335.635 Q1979.01 334.792 1979.25 334.406 Q1979.53 333.984 1980.2 333.176 Q1980.9 332.333 1981.82 331.946 Q1982.77 331.525 1983.93 331.525 Q1986.53 331.525 1988.42 333.211 Q1990.32 334.863 1990.57 337.779 Q1995.24 331.525 2001.77 331.525 Q2005.64 331.525 2007.85 333.563 Q2010.06 335.6 2010.06 339.219 Q2010.06 340.062 2009.89 341.151 Q2009.75 342.205 2009.4 343.541 Q2009.08 344.876 2008.8 345.894 Q2008.52 346.913 2007.96 348.565 Q2007.39 350.181 2007.15 350.883 Q2006.9 351.586 2006.31 353.237 Q2005.74 354.854 2005.67 355.029 Q2004.37 358.297 2004.37 360.159 Q2004.37 361.388 2004.76 361.951 Q2005.18 362.513 2006.09 362.513 Q2008.55 362.513 2010.38 360.088 Q2012.24 357.629 2013.44 353.624 Q2013.72 352.746 2013.86 352.535 Q2014.03 352.324 2014.53 352.324 Q2015.37 352.324 2015.37 353.027 Z" fill="#000000" fill-rule="evenodd" fill-opacity="1" /><path clip-path="url(#clip820)" d="M2055.93 328.5 Q2056.22 328.795 2056.22 329.213 Q2056.22 329.631 2055.93 329.926 Q2055.63 330.221 2055.21 330.221 L2023.68 330.221 Q2023.27 330.221 2022.97 329.926 Q2022.68 329.631 2022.68 329.213 Q2022.68 328.795 2022.97 328.5 Q2023.27 328.205 2023.68 328.205 L2055.21 328.205 Q2055.63 328.205 2055.93 328.5 Z" fill="#000000" fill-rule="evenodd" fill-opacity="1" /><path clip-path="url(#clip820)" d="M2061.48 313.055 L2061.48 311.481 Q2067.53 311.481 2070.65 308.259 Q2071.51 308.259 2071.66 308.456 Q2071.81 308.653 2071.81 309.563 L2071.81 337.821 Q2071.81 339.321 2072.55 339.788 Q2073.28 340.255 2076.51 340.255 L2078.1 340.255 L2078.1 341.805 Q2076.33 341.657 2069.94 341.657 Q2063.55 341.657 2061.8 341.805 L2061.8 340.255 L2063.4 340.255 Q2066.57 340.255 2067.33 339.813 Q2068.09 339.345 2068.09 337.821 L2068.09 311.727 Q2065.46 313.055 2061.48 313.055 Z" fill="#000000" fill-rule="evenodd" fill-opacity="1" /><polyline clip-path="url(#clip820)" style="stroke:#c271d2; stroke-linecap:butt; stroke-linejoin:round; stroke-width:6; stroke-opacity:1; fill:none" points="
  1812.95,403.739 1953.02,403.739 
  "/>
<path clip-path="url(#clip820)" d="M2015.37 430.787 Q2015.37 431.068 2015.05 432.157 Q2014.74 433.246 2013.96 434.932 Q2013.23 436.619 2012.21 438.165 Q2011.19 439.675 2009.5 440.8 Q2007.85 441.889 2005.95 441.889 Q2003.42 441.889 2001.74 440.202 Q2000.05 438.516 2000.05 435.986 Q2000.05 434.581 2000.79 432.649 Q2005.46 420.176 2005.46 415.89 Q2005.46 410.866 2001.56 410.866 Q1999.63 410.866 1997.8 411.604 Q1996.01 412.306 1994.78 413.29 Q1993.55 414.274 1992.43 415.644 Q1991.34 416.979 1990.78 417.893 Q1990.25 418.771 1989.83 419.649 L1988.91 423.233 Q1988.7 424.217 1987.68 428.046 L1986.1 434.546 Q1984.98 439.394 1984.73 439.851 Q1984.38 440.835 1983.61 441.362 Q1982.84 441.889 1982.06 441.889 Q1981.18 441.889 1980.59 441.362 Q1979.99 440.835 1979.99 439.921 Q1979.99 439.781 1980.1 439.254 Q1980.2 438.727 1980.38 437.989 Q1980.55 437.251 1980.62 436.83 L1984.8 420.211 Q1985.58 417.19 1985.75 416.241 Q1985.96 415.258 1985.96 414.168 Q1985.96 410.866 1983.71 410.866 Q1981.89 410.866 1980.69 413.044 Q1979.5 415.222 1978.48 419.438 Q1978.16 420.598 1977.95 420.844 Q1977.78 421.09 1977.25 421.09 Q1976.37 421.055 1976.37 420.352 Q1976.37 420.176 1976.65 419.017 Q1976.93 417.857 1977.46 416.206 Q1978.02 414.52 1978.55 413.395 Q1979.01 412.552 1979.25 412.166 Q1979.53 411.744 1980.2 410.936 Q1980.9 410.093 1981.82 409.706 Q1982.77 409.285 1983.93 409.285 Q1986.53 409.285 1988.42 410.971 Q1990.32 412.623 1990.57 415.539 Q1995.24 409.285 2001.77 409.285 Q2005.64 409.285 2007.85 411.323 Q2010.06 413.36 2010.06 416.979 Q2010.06 417.822 2009.89 418.911 Q2009.75 419.965 2009.4 421.301 Q2009.08 422.636 2008.8 423.654 Q2008.52 424.673 2007.96 426.325 Q2007.39 427.941 2007.15 428.643 Q2006.9 429.346 2006.31 430.997 Q2005.74 432.614 2005.67 432.789 Q2004.37 436.057 2004.37 437.919 Q2004.37 439.148 2004.76 439.711 Q2005.18 440.273 2006.09 440.273 Q2008.55 440.273 2010.38 437.848 Q2012.24 435.389 2013.44 431.384 Q2013.72 430.506 2013.86 430.295 Q2014.03 430.084 2014.53 430.084 Q2015.37 430.084 2015.37 430.787 Z" fill="#000000" fill-rule="evenodd" fill-opacity="1" /><path clip-path="url(#clip820)" d="M2055.93 406.26 Q2056.22 406.555 2056.22 406.973 Q2056.22 407.391 2055.93 407.686 Q2055.63 407.981 2055.21 407.981 L2023.68 407.981 Q2023.27 407.981 2022.97 407.686 Q2022.68 407.391 2022.68 406.973 Q2022.68 406.555 2022.97 406.26 Q2023.27 405.965 2023.68 405.965 L2055.21 405.965 Q2055.63 405.965 2055.93 406.26 Z" fill="#000000" fill-rule="evenodd" fill-opacity="1" /><path clip-path="url(#clip820)" d="M2061.48 419.565 Q2061.48 418.655 2061.55 418.384 Q2061.65 418.114 2062.04 417.696 L2071.71 406.924 Q2077 400.972 2077 395.783 Q2077 392.414 2075.23 390.003 Q2073.48 387.593 2070.26 387.593 Q2068.05 387.593 2066.18 388.946 Q2064.31 390.298 2063.45 392.709 Q2063.59 392.659 2064.11 392.659 Q2065.37 392.659 2066.05 393.446 Q2066.77 394.233 2066.77 395.291 Q2066.77 396.644 2065.88 397.308 Q2065.02 397.947 2064.16 397.947 Q2063.82 397.947 2063.35 397.873 Q2062.91 397.8 2062.19 397.111 Q2061.48 396.398 2061.48 395.143 Q2061.48 391.627 2064.14 388.823 Q2066.82 386.019 2070.9 386.019 Q2075.52 386.019 2078.55 388.774 Q2081.6 391.504 2081.6 395.783 Q2081.6 397.283 2081.13 398.66 Q2080.69 400.013 2080.07 401.07 Q2079.48 402.128 2077.86 403.825 Q2076.24 405.522 2074.93 406.727 Q2073.63 407.932 2070.7 410.49 L2065.37 415.679 L2074.44 415.679 Q2078.87 415.679 2079.21 415.286 Q2079.7 414.572 2080.32 410.81 L2081.6 410.81 L2080.17 419.565 L2061.48 419.565 Z" fill="#000000" fill-rule="evenodd" fill-opacity="1" /><polyline clip-path="url(#clip820)" style="stroke:#ac8d18; stroke-linecap:butt; stroke-linejoin:round; stroke-width:6; stroke-opacity:1; fill:none" points="
  1812.95,481.499 1953.02,481.499 
  "/>
<path clip-path="url(#clip820)" d="M2015.37 509.093 Q2015.37 509.375 2015.05 510.464 Q2014.74 511.553 2013.96 513.239 Q2013.23 514.926 2012.21 516.472 Q2011.19 517.982 2009.5 519.107 Q2007.85 520.196 2005.95 520.196 Q2003.42 520.196 2001.74 518.509 Q2000.05 516.823 2000.05 514.293 Q2000.05 512.888 2000.79 510.956 Q2005.46 498.483 2005.46 494.197 Q2005.46 489.173 2001.56 489.173 Q1999.63 489.173 1997.8 489.911 Q1996.01 490.613 1994.78 491.597 Q1993.55 492.581 1992.43 493.951 Q1991.34 495.286 1990.78 496.199 Q1990.25 497.078 1989.83 497.956 L1988.91 501.54 Q1988.7 502.523 1987.68 506.353 L1986.1 512.853 Q1984.98 517.701 1984.73 518.158 Q1984.38 519.142 1983.61 519.669 Q1982.84 520.196 1982.06 520.196 Q1981.18 520.196 1980.59 519.669 Q1979.99 519.142 1979.99 518.228 Q1979.99 518.088 1980.1 517.561 Q1980.2 517.034 1980.38 516.296 Q1980.55 515.558 1980.62 515.136 L1984.8 498.518 Q1985.58 495.497 1985.75 494.548 Q1985.96 493.564 1985.96 492.475 Q1985.96 489.173 1983.71 489.173 Q1981.89 489.173 1980.69 491.351 Q1979.5 493.529 1978.48 497.745 Q1978.16 498.905 1977.95 499.151 Q1977.78 499.397 1977.25 499.397 Q1976.37 499.361 1976.37 498.659 Q1976.37 498.483 1976.65 497.324 Q1976.93 496.164 1977.46 494.513 Q1978.02 492.827 1978.55 491.702 Q1979.01 490.859 1979.25 490.473 Q1979.53 490.051 1980.2 489.243 Q1980.9 488.4 1981.82 488.013 Q1982.77 487.592 1983.93 487.592 Q1986.53 487.592 1988.42 489.278 Q1990.32 490.929 1990.57 493.845 Q1995.24 487.592 2001.77 487.592 Q2005.64 487.592 2007.85 489.629 Q2010.06 491.667 2010.06 495.286 Q2010.06 496.129 2009.89 497.218 Q2009.75 498.272 2009.4 499.607 Q2009.08 500.942 2008.8 501.961 Q2008.52 502.98 2007.96 504.632 Q2007.39 506.248 2007.15 506.95 Q2006.9 507.653 2006.31 509.304 Q2005.74 510.92 2005.67 511.096 Q2004.37 514.364 2004.37 516.226 Q2004.37 517.455 2004.76 518.017 Q2005.18 518.58 2006.09 518.58 Q2008.55 518.58 2010.38 516.155 Q2012.24 513.696 2013.44 509.691 Q2013.72 508.812 2013.86 508.602 Q2014.03 508.391 2014.53 508.391 Q2015.37 508.391 2015.37 509.093 Z" fill="#000000" fill-rule="evenodd" fill-opacity="1" /><path clip-path="url(#clip820)" d="M2055.93 483.473 Q2056.22 483.768 2056.22 484.186 Q2056.22 484.604 2055.93 484.899 Q2055.63 485.194 2055.21 485.194 L2023.68 485.194 Q2023.27 485.194 2022.97 484.899 Q2022.68 484.604 2022.68 484.186 Q2022.68 483.768 2022.97 483.473 Q2023.27 483.178 2023.68 483.178 L2055.21 483.178 Q2055.63 483.178 2055.93 483.473 Z" fill="#000000" fill-rule="evenodd" fill-opacity="1" /><path clip-path="url(#clip820)" d="M2061.48 489.99 Q2061.48 488.49 2062.34 487.777 Q2063.2 487.064 2064.31 487.064 Q2065.46 487.064 2066.28 487.826 Q2067.11 488.564 2067.11 489.867 Q2067.11 491.269 2066.13 492.056 Q2065.17 492.843 2063.79 492.646 Q2065 494.663 2067.21 495.573 Q2069.45 496.483 2071.51 496.483 Q2073.68 496.483 2075.42 494.614 Q2077.19 492.745 2077.19 488.17 Q2077.19 484.284 2075.67 482.046 Q2074.17 479.808 2071.19 479.808 L2068.98 479.808 Q2068.22 479.808 2068 479.735 Q2067.78 479.661 2067.78 479.243 Q2067.78 478.751 2068.54 478.653 Q2069.3 478.653 2070.51 478.505 Q2073.43 478.407 2074.98 475.873 Q2076.38 473.512 2076.38 470.143 Q2076.38 467.069 2074.91 465.79 Q2073.46 464.487 2071.56 464.487 Q2069.79 464.487 2067.85 465.224 Q2065.91 465.962 2064.85 467.61 Q2067.97 467.61 2067.97 470.143 Q2067.97 471.25 2067.26 471.988 Q2066.57 472.701 2065.41 472.701 Q2064.31 472.701 2063.57 472.012 Q2062.83 471.299 2062.83 470.094 Q2062.83 467.216 2065.39 465.224 Q2067.97 463.232 2071.76 463.232 Q2075.5 463.232 2078.25 465.2 Q2081.03 467.167 2081.03 470.192 Q2081.03 473.168 2079.06 475.603 Q2077.1 478.038 2073.97 479.046 Q2077.81 479.808 2080.1 482.415 Q2082.38 484.998 2082.38 488.17 Q2082.38 492.105 2079.29 495.007 Q2076.19 497.885 2071.66 497.885 Q2067.48 497.885 2064.48 495.622 Q2061.48 493.359 2061.48 489.99 Z" fill="#000000" fill-rule="evenodd" fill-opacity="1" /><polyline clip-path="url(#clip820)" style="stroke:#00a9ad; stroke-linecap:butt; stroke-linejoin:round; stroke-width:6; stroke-opacity:1; fill:none" points="
  1812.95,559.259 1953.02,559.259 
  "/>
<path clip-path="url(#clip820)" d="M2015.37 586.502 Q2015.37 586.783 2015.05 587.872 Q2014.74 588.961 2013.96 590.648 Q2013.23 592.334 2012.21 593.88 Q2011.19 595.391 2009.5 596.515 Q2007.85 597.604 2005.95 597.604 Q2003.42 597.604 2001.74 595.918 Q2000.05 594.231 2000.05 591.702 Q2000.05 590.296 2000.79 588.364 Q2005.46 575.891 2005.46 571.605 Q2005.46 566.581 2001.56 566.581 Q1999.63 566.581 1997.8 567.319 Q1996.01 568.022 1994.78 569.005 Q1993.55 569.989 1992.43 571.359 Q1991.34 572.694 1990.78 573.608 Q1990.25 574.486 1989.83 575.364 L1988.91 578.948 Q1988.7 579.932 1987.68 583.761 L1986.1 590.261 Q1984.98 595.11 1984.73 595.566 Q1984.38 596.55 1983.61 597.077 Q1982.84 597.604 1982.06 597.604 Q1981.18 597.604 1980.59 597.077 Q1979.99 596.55 1979.99 595.637 Q1979.99 595.496 1980.1 594.969 Q1980.2 594.442 1980.38 593.704 Q1980.55 592.966 1980.62 592.545 L1984.8 575.927 Q1985.58 572.905 1985.75 571.957 Q1985.96 570.973 1985.96 569.884 Q1985.96 566.581 1983.71 566.581 Q1981.89 566.581 1980.69 568.759 Q1979.5 570.938 1978.48 575.154 Q1978.16 576.313 1977.95 576.559 Q1977.78 576.805 1977.25 576.805 Q1976.37 576.77 1976.37 576.067 Q1976.37 575.891 1976.65 574.732 Q1976.93 573.573 1977.46 571.921 Q1978.02 570.235 1978.55 569.111 Q1979.01 568.267 1979.25 567.881 Q1979.53 567.459 1980.2 566.651 Q1980.9 565.808 1981.82 565.422 Q1982.77 565 1983.93 565 Q1986.53 565 1988.42 566.686 Q1990.32 568.338 1990.57 571.254 Q1995.24 565 2001.77 565 Q2005.64 565 2007.85 567.038 Q2010.06 569.076 2010.06 572.694 Q2010.06 573.538 2009.89 574.627 Q2009.75 575.681 2009.4 577.016 Q2009.08 578.351 2008.8 579.37 Q2008.52 580.389 2007.96 582.04 Q2007.39 583.656 2007.15 584.359 Q2006.9 585.061 2006.31 586.713 Q2005.74 588.329 2005.67 588.504 Q2004.37 591.772 2004.37 593.634 Q2004.37 594.864 2004.76 595.426 Q2005.18 595.988 2006.09 595.988 Q2008.55 595.988 2010.38 593.564 Q2012.24 591.104 2013.44 587.099 Q2013.72 586.221 2013.86 586.01 Q2014.03 585.799 2014.53 585.799 Q2015.37 585.799 2015.37 586.502 Z" fill="#000000" fill-rule="evenodd" fill-opacity="1" /><path clip-path="url(#clip820)" d="M2055.93 562.142 Q2056.22 562.437 2056.22 562.856 Q2056.22 563.274 2055.93 563.569 Q2055.63 563.864 2055.21 563.864 L2023.68 563.864 Q2023.27 563.864 2022.97 563.569 Q2022.68 563.274 2022.68 562.856 Q2022.68 562.437 2022.97 562.142 Q2023.27 561.847 2023.68 561.847 L2055.21 561.847 Q2055.63 561.847 2055.93 562.142 Z" fill="#000000" fill-rule="evenodd" fill-opacity="1" /><path clip-path="url(#clip820)" d="M2061.48 567.135 L2061.48 565.585 L2076.95 541.951 Q2077.34 541.336 2077.96 541.361 Q2078.52 541.361 2078.65 541.582 Q2078.77 541.803 2078.77 542.664 L2078.77 565.585 L2083.81 565.585 L2083.81 567.135 L2078.77 567.135 L2078.77 571.512 Q2078.77 572.963 2079.36 573.431 Q2079.97 573.898 2082.58 573.898 L2083.64 573.898 L2083.64 575.447 Q2081.57 575.3 2076.8 575.3 Q2072.05 575.3 2069.99 575.447 L2069.99 573.898 L2071.05 573.898 Q2073.65 573.898 2074.27 573.455 Q2074.88 572.988 2074.88 571.512 L2074.88 567.135 L2061.48 567.135 M2062.91 565.585 L2075.18 565.585 L2075.18 546.796 L2062.91 565.585 Z" fill="#000000" fill-rule="evenodd" fill-opacity="1" /><polyline clip-path="url(#clip820)" style="stroke:#ed5d92; stroke-linecap:butt; stroke-linejoin:round; stroke-width:6; stroke-opacity:1; fill:none" points="
  1812.95,637.019 1953.02,637.019 
  "/>
<path clip-path="url(#clip820)" d="M2015.37 664.613 Q2015.37 664.895 2015.05 665.984 Q2014.74 667.073 2013.96 668.759 Q2013.23 670.446 2012.21 671.992 Q2011.19 673.502 2009.5 674.627 Q2007.85 675.716 2005.95 675.716 Q2003.42 675.716 2001.74 674.029 Q2000.05 672.343 2000.05 669.813 Q2000.05 668.408 2000.79 666.476 Q2005.46 654.003 2005.46 649.717 Q2005.46 644.693 2001.56 644.693 Q1999.63 644.693 1997.8 645.431 Q1996.01 646.133 1994.78 647.117 Q1993.55 648.101 1992.43 649.471 Q1991.34 650.806 1990.78 651.719 Q1990.25 652.598 1989.83 653.476 L1988.91 657.06 Q1988.7 658.043 1987.68 661.873 L1986.1 668.373 Q1984.98 673.221 1984.73 673.678 Q1984.38 674.662 1983.61 675.189 Q1982.84 675.716 1982.06 675.716 Q1981.18 675.716 1980.59 675.189 Q1979.99 674.662 1979.99 673.748 Q1979.99 673.608 1980.1 673.081 Q1980.2 672.554 1980.38 671.816 Q1980.55 671.078 1980.62 670.656 L1984.8 654.038 Q1985.58 651.017 1985.75 650.068 Q1985.96 649.084 1985.96 647.995 Q1985.96 644.693 1983.71 644.693 Q1981.89 644.693 1980.69 646.871 Q1979.5 649.049 1978.48 653.265 Q1978.16 654.425 1977.95 654.671 Q1977.78 654.917 1977.25 654.917 Q1976.37 654.881 1976.37 654.179 Q1976.37 654.003 1976.65 652.844 Q1976.93 651.684 1977.46 650.033 Q1978.02 648.347 1978.55 647.222 Q1979.01 646.379 1979.25 645.993 Q1979.53 645.571 1980.2 644.763 Q1980.9 643.92 1981.82 643.533 Q1982.77 643.112 1983.93 643.112 Q1986.53 643.112 1988.42 644.798 Q1990.32 646.449 1990.57 649.365 Q1995.24 643.112 2001.77 643.112 Q2005.64 643.112 2007.85 645.149 Q2010.06 647.187 2010.06 650.806 Q2010.06 651.649 2009.89 652.738 Q2009.75 653.792 2009.4 655.127 Q2009.08 656.462 2008.8 657.481 Q2008.52 658.5 2007.96 660.152 Q2007.39 661.768 2007.15 662.47 Q2006.9 663.173 2006.31 664.824 Q2005.74 666.44 2005.67 666.616 Q2004.37 669.884 2004.37 671.746 Q2004.37 672.975 2004.76 673.537 Q2005.18 674.1 2006.09 674.1 Q2008.55 674.1 2010.38 671.675 Q2012.24 669.216 2013.44 665.211 Q2013.72 664.332 2013.86 664.122 Q2014.03 663.911 2014.53 663.911 Q2015.37 663.911 2015.37 664.613 Z" fill="#000000" fill-rule="evenodd" fill-opacity="1" /><path clip-path="url(#clip820)" d="M2055.93 638.993 Q2056.22 639.288 2056.22 639.706 Q2056.22 640.124 2055.93 640.419 Q2055.63 640.714 2055.21 640.714 L2023.68 640.714 Q2023.27 640.714 2022.97 640.419 Q2022.68 640.124 2022.68 639.706 Q2022.68 639.288 2022.97 638.993 Q2023.27 638.698 2023.68 638.698 L2055.21 638.698 Q2055.63 638.698 2055.93 638.993 Z" fill="#000000" fill-rule="evenodd" fill-opacity="1" /><path clip-path="url(#clip820)" d="M2061.48 644.182 Q2061.48 642.682 2062.29 642.116 Q2063.1 641.526 2063.96 641.526 Q2065.12 641.526 2065.78 642.264 Q2066.47 642.977 2066.47 643.985 Q2066.47 644.994 2065.78 645.731 Q2065.12 646.445 2063.96 646.445 Q2063.4 646.445 2063.1 646.346 Q2063.77 648.658 2065.78 650.33 Q2067.82 652.003 2070.51 652.003 Q2073.87 652.003 2075.89 648.732 Q2077.1 646.617 2077.1 641.821 Q2077.1 637.591 2076.19 635.476 Q2074.78 632.254 2071.91 632.254 Q2067.82 632.254 2065.41 635.771 Q2065.12 636.214 2064.77 636.238 Q2064.28 636.238 2064.16 635.968 Q2064.06 635.673 2064.06 634.91 L2064.06 620.007 Q2064.06 618.802 2064.55 618.802 Q2064.75 618.802 2065.17 618.949 Q2068.34 620.351 2071.86 620.376 Q2075.47 620.376 2078.72 618.9 Q2078.97 618.752 2079.11 618.752 Q2079.6 618.752 2079.63 619.318 Q2079.63 619.515 2079.21 620.105 Q2078.82 620.671 2077.96 621.433 Q2077.1 622.171 2075.99 622.884 Q2074.88 623.597 2073.26 624.089 Q2071.66 624.556 2069.89 624.556 Q2067.78 624.556 2065.61 623.892 L2065.61 633.705 Q2068.22 631.147 2072.01 631.147 Q2076.04 631.147 2078.82 634.394 Q2081.6 637.64 2081.6 642.165 Q2081.6 646.912 2078.3 650.158 Q2075.03 653.405 2070.6 653.405 Q2066.57 653.405 2064.01 650.527 Q2061.48 647.65 2061.48 644.182 Z" fill="#000000" fill-rule="evenodd" fill-opacity="1" /></svg>
