<?xml version="1.0" encoding="utf-8"?>
<svg xmlns="http://www.w3.org/2000/svg" xmlns:xlink="http://www.w3.org/1999/xlink" width="600" height="400" viewBox="0 0 2400 1600">
<defs>
  <clipPath id="clip340">
    <rect x="0" y="0" width="2400" height="1600"/>
  </clipPath>
</defs>
<path clip-path="url(#clip340)" d="
M0 1600 L2400 1600 L2400 0 L0 0  Z
  " fill="#ffffff" fill-rule="evenodd" fill-opacity="1"/>
<defs>
  <clipPath id="clip341">
    <rect x="480" y="0" width="1681" height="1600"/>
  </clipPath>
</defs>
<path clip-path="url(#clip340)" d="
M213.607 1486.45 L2352.76 1486.45 L2352.76 47.2441 L213.607 47.2441  Z
  " fill="#ffffff" fill-rule="evenodd" fill-opacity="1"/>
<defs>
  <clipPath id="clip342">
    <rect x="213" y="47" width="2140" height="1440"/>
  </clipPath>
</defs>
<polyline clip-path="url(#clip342)" style="stroke:#000000; stroke-linecap:butt; stroke-linejoin:round; stroke-width:2; stroke-opacity:0.1; fill:none" points="
  242.117,1486.45 242.117,47.2441 
  "/>
<polyline clip-path="url(#clip342)" style="stroke:#000000; stroke-linecap:butt; stroke-linejoin:round; stroke-width:2; stroke-opacity:0.1; fill:none" points="
  562.444,1486.45 562.444,47.2441 
  "/>
<polyline clip-path="url(#clip342)" style="stroke:#000000; stroke-linecap:butt; stroke-linejoin:round; stroke-width:2; stroke-opacity:0.1; fill:none" points="
  882.772,1486.45 882.772,47.2441 
  "/>
<polyline clip-path="url(#clip342)" style="stroke:#000000; stroke-linecap:butt; stroke-linejoin:round; stroke-width:2; stroke-opacity:0.1; fill:none" points="
  1203.1,1486.45 1203.1,47.2441 
  "/>
<polyline clip-path="url(#clip342)" style="stroke:#000000; stroke-linecap:butt; stroke-linejoin:round; stroke-width:2; stroke-opacity:0.1; fill:none" points="
  1523.43,1486.45 1523.43,47.2441 
  "/>
<polyline clip-path="url(#clip342)" style="stroke:#000000; stroke-linecap:butt; stroke-linejoin:round; stroke-width:2; stroke-opacity:0.1; fill:none" points="
  1843.76,1486.45 1843.76,47.2441 
  "/>
<polyline clip-path="url(#clip342)" style="stroke:#000000; stroke-linecap:butt; stroke-linejoin:round; stroke-width:2; stroke-opacity:0.1; fill:none" points="
  2164.08,1486.45 2164.08,47.2441 
  "/>
<polyline clip-path="url(#clip340)" style="stroke:#000000; stroke-linecap:butt; stroke-linejoin:round; stroke-width:4; stroke-opacity:1; fill:none" points="
  213.607,1486.45 2352.76,1486.45 
  "/>
<polyline clip-path="url(#clip340)" style="stroke:#000000; stroke-linecap:butt; stroke-linejoin:round; stroke-width:4; stroke-opacity:1; fill:none" points="
  242.117,1486.45 242.117,1467.55 
  "/>
<polyline clip-path="url(#clip340)" style="stroke:#000000; stroke-linecap:butt; stroke-linejoin:round; stroke-width:4; stroke-opacity:1; fill:none" points="
  562.444,1486.45 562.444,1467.55 
  "/>
<polyline clip-path="url(#clip340)" style="stroke:#000000; stroke-linecap:butt; stroke-linejoin:round; stroke-width:4; stroke-opacity:1; fill:none" points="
  882.772,1486.45 882.772,1467.55 
  "/>
<polyline clip-path="url(#clip340)" style="stroke:#000000; stroke-linecap:butt; stroke-linejoin:round; stroke-width:4; stroke-opacity:1; fill:none" points="
  1203.1,1486.45 1203.1,1467.55 
  "/>
<polyline clip-path="url(#clip340)" style="stroke:#000000; stroke-linecap:butt; stroke-linejoin:round; stroke-width:4; stroke-opacity:1; fill:none" points="
  1523.43,1486.45 1523.43,1467.55 
  "/>
<polyline clip-path="url(#clip340)" style="stroke:#000000; stroke-linecap:butt; stroke-linejoin:round; stroke-width:4; stroke-opacity:1; fill:none" points="
  1843.76,1486.45 1843.76,1467.55 
  "/>
<polyline clip-path="url(#clip340)" style="stroke:#000000; stroke-linecap:butt; stroke-linejoin:round; stroke-width:4; stroke-opacity:1; fill:none" points="
  2164.08,1486.45 2164.08,1467.55 
  "/>
<path clip-path="url(#clip340)" d="M242.117 1517.37 Q238.506 1517.37 236.677 1520.93 Q234.871 1524.47 234.871 1531.6 Q234.871 1538.71 236.677 1542.27 Q238.506 1545.82 242.117 1545.82 Q245.751 1545.82 247.556 1542.27 Q249.385 1538.71 249.385 1531.6 Q249.385 1524.47 247.556 1520.93 Q245.751 1517.37 242.117 1517.37 M242.117 1513.66 Q247.927 1513.66 250.982 1518.27 Q254.061 1522.85 254.061 1531.6 Q254.061 1540.33 250.982 1544.94 Q247.927 1549.52 242.117 1549.52 Q236.306 1549.52 233.228 1544.94 Q230.172 1540.33 230.172 1531.6 Q230.172 1522.85 233.228 1518.27 Q236.306 1513.66 242.117 1513.66 Z" fill="#000000" fill-rule="evenodd" fill-opacity="1" /><path clip-path="url(#clip340)" d="M537.132 1544.91 L544.771 1544.91 L544.771 1518.55 L536.461 1520.21 L536.461 1515.95 L544.725 1514.29 L549.4 1514.29 L549.4 1544.91 L557.039 1544.91 L557.039 1548.85 L537.132 1548.85 L537.132 1544.91 Z" fill="#000000" fill-rule="evenodd" fill-opacity="1" /><path clip-path="url(#clip340)" d="M576.484 1517.37 Q572.873 1517.37 571.044 1520.93 Q569.238 1524.47 569.238 1531.6 Q569.238 1538.71 571.044 1542.27 Q572.873 1545.82 576.484 1545.82 Q580.118 1545.82 581.923 1542.27 Q583.752 1538.71 583.752 1531.6 Q583.752 1524.47 581.923 1520.93 Q580.118 1517.37 576.484 1517.37 M576.484 1513.66 Q582.294 1513.66 585.349 1518.27 Q588.428 1522.85 588.428 1531.6 Q588.428 1540.33 585.349 1544.94 Q582.294 1549.52 576.484 1549.52 Q570.673 1549.52 567.595 1544.94 Q564.539 1540.33 564.539 1531.6 Q564.539 1522.85 567.595 1518.27 Q570.673 1513.66 576.484 1513.66 Z" fill="#000000" fill-rule="evenodd" fill-opacity="1" /><path clip-path="url(#clip340)" d="M861.545 1544.91 L877.865 1544.91 L877.865 1548.85 L855.92 1548.85 L855.92 1544.91 Q858.582 1542.16 863.166 1537.53 Q867.772 1532.88 868.953 1531.53 Q871.198 1529.01 872.078 1527.27 Q872.98 1525.51 872.98 1523.82 Q872.98 1521.07 871.036 1519.33 Q869.115 1517.6 866.013 1517.6 Q863.814 1517.6 861.36 1518.36 Q858.93 1519.13 856.152 1520.68 L856.152 1515.95 Q858.976 1514.82 861.43 1514.24 Q863.883 1513.66 865.92 1513.66 Q871.291 1513.66 874.485 1516.35 Q877.679 1519.03 877.679 1523.52 Q877.679 1525.65 876.869 1527.57 Q876.082 1529.47 873.976 1532.07 Q873.397 1532.74 870.295 1535.95 Q867.193 1539.15 861.545 1544.91 Z" fill="#000000" fill-rule="evenodd" fill-opacity="1" /><path clip-path="url(#clip340)" d="M897.679 1517.37 Q894.068 1517.37 892.24 1520.93 Q890.434 1524.47 890.434 1531.6 Q890.434 1538.71 892.24 1542.27 Q894.068 1545.82 897.679 1545.82 Q901.314 1545.82 903.119 1542.27 Q904.948 1538.71 904.948 1531.6 Q904.948 1524.47 903.119 1520.93 Q901.314 1517.37 897.679 1517.37 M897.679 1513.66 Q903.49 1513.66 906.545 1518.27 Q909.624 1522.85 909.624 1531.6 Q909.624 1540.33 906.545 1544.94 Q903.49 1549.52 897.679 1549.52 Q891.869 1549.52 888.791 1544.94 Q885.735 1540.33 885.735 1531.6 Q885.735 1522.85 888.791 1518.27 Q891.869 1513.66 897.679 1513.66 Z" fill="#000000" fill-rule="evenodd" fill-opacity="1" /><path clip-path="url(#clip340)" d="M1191.94 1530.21 Q1195.3 1530.93 1197.17 1533.2 Q1199.07 1535.47 1199.07 1538.8 Q1199.07 1543.92 1195.55 1546.72 Q1192.04 1549.52 1185.55 1549.52 Q1183.38 1549.52 1181.06 1549.08 Q1178.77 1548.66 1176.32 1547.81 L1176.32 1543.29 Q1178.26 1544.43 1180.58 1545.01 Q1182.89 1545.58 1185.41 1545.58 Q1189.81 1545.58 1192.1 1543.85 Q1194.42 1542.11 1194.42 1538.8 Q1194.42 1535.75 1192.27 1534.03 Q1190.14 1532.3 1186.32 1532.3 L1182.29 1532.3 L1182.29 1528.45 L1186.5 1528.45 Q1189.95 1528.45 1191.78 1527.09 Q1193.61 1525.7 1193.61 1523.11 Q1193.61 1520.45 1191.71 1519.03 Q1189.84 1517.6 1186.32 1517.6 Q1184.4 1517.6 1182.2 1518.01 Q1180 1518.43 1177.36 1519.31 L1177.36 1515.14 Q1180.02 1514.4 1182.34 1514.03 Q1184.67 1513.66 1186.73 1513.66 Q1192.06 1513.66 1195.16 1516.09 Q1198.26 1518.5 1198.26 1522.62 Q1198.26 1525.49 1196.62 1527.48 Q1194.97 1529.45 1191.94 1530.21 Z" fill="#000000" fill-rule="evenodd" fill-opacity="1" /><path clip-path="url(#clip340)" d="M1217.94 1517.37 Q1214.33 1517.37 1212.5 1520.93 Q1210.69 1524.47 1210.69 1531.6 Q1210.69 1538.71 1212.5 1542.27 Q1214.33 1545.82 1217.94 1545.82 Q1221.57 1545.82 1223.38 1542.27 Q1225.21 1538.71 1225.21 1531.6 Q1225.21 1524.47 1223.38 1520.93 Q1221.57 1517.37 1217.94 1517.37 M1217.94 1513.66 Q1223.75 1513.66 1226.8 1518.27 Q1229.88 1522.85 1229.88 1531.6 Q1229.88 1540.33 1226.8 1544.94 Q1223.75 1549.52 1217.94 1549.52 Q1212.13 1549.52 1209.05 1544.94 Q1205.99 1540.33 1205.99 1531.6 Q1205.99 1522.85 1209.05 1518.27 Q1212.13 1513.66 1217.94 1513.66 Z" fill="#000000" fill-rule="evenodd" fill-opacity="1" /><path clip-path="url(#clip340)" d="M1511.6 1518.36 L1499.79 1536.81 L1511.6 1536.81 L1511.6 1518.36 M1510.37 1514.29 L1516.25 1514.29 L1516.25 1536.81 L1521.18 1536.81 L1521.18 1540.7 L1516.25 1540.7 L1516.25 1548.85 L1511.6 1548.85 L1511.6 1540.7 L1496 1540.7 L1496 1536.19 L1510.37 1514.29 Z" fill="#000000" fill-rule="evenodd" fill-opacity="1" /><path clip-path="url(#clip340)" d="M1538.91 1517.37 Q1535.3 1517.37 1533.47 1520.93 Q1531.67 1524.47 1531.67 1531.6 Q1531.67 1538.71 1533.47 1542.27 Q1535.3 1545.82 1538.91 1545.82 Q1542.55 1545.82 1544.35 1542.27 Q1546.18 1538.71 1546.18 1531.6 Q1546.18 1524.47 1544.35 1520.93 Q1542.55 1517.37 1538.91 1517.37 M1538.91 1513.66 Q1544.72 1513.66 1547.78 1518.27 Q1550.86 1522.85 1550.86 1531.6 Q1550.86 1540.33 1547.78 1544.94 Q1544.72 1549.52 1538.91 1549.52 Q1533.1 1549.52 1530.02 1544.94 Q1526.97 1540.33 1526.97 1531.6 Q1526.97 1522.85 1530.02 1518.27 Q1533.1 1513.66 1538.91 1513.66 Z" fill="#000000" fill-rule="evenodd" fill-opacity="1" /><path clip-path="url(#clip340)" d="M1818.45 1514.29 L1836.81 1514.29 L1836.81 1518.22 L1822.74 1518.22 L1822.74 1526.7 Q1823.76 1526.35 1824.77 1526.19 Q1825.79 1526 1826.81 1526 Q1832.6 1526 1835.98 1529.17 Q1839.36 1532.34 1839.36 1537.76 Q1839.36 1543.34 1835.88 1546.44 Q1832.41 1549.52 1826.09 1549.52 Q1823.92 1549.52 1821.65 1549.15 Q1819.4 1548.78 1817 1548.04 L1817 1543.34 Q1819.08 1544.47 1821.3 1545.03 Q1823.52 1545.58 1826 1545.58 Q1830.01 1545.58 1832.34 1543.48 Q1834.68 1541.37 1834.68 1537.76 Q1834.68 1534.15 1832.34 1532.04 Q1830.01 1529.94 1826 1529.94 Q1824.13 1529.94 1822.25 1530.35 Q1820.4 1530.77 1818.45 1531.65 L1818.45 1514.29 Z" fill="#000000" fill-rule="evenodd" fill-opacity="1" /><path clip-path="url(#clip340)" d="M1858.57 1517.37 Q1854.96 1517.37 1853.13 1520.93 Q1851.32 1524.47 1851.32 1531.6 Q1851.32 1538.71 1853.13 1542.27 Q1854.96 1545.82 1858.57 1545.82 Q1862.2 1545.82 1864.01 1542.27 Q1865.84 1538.71 1865.84 1531.6 Q1865.84 1524.47 1864.01 1520.93 Q1862.2 1517.37 1858.57 1517.37 M1858.57 1513.66 Q1864.38 1513.66 1867.44 1518.27 Q1870.51 1522.85 1870.51 1531.6 Q1870.51 1540.33 1867.44 1544.94 Q1864.38 1549.52 1858.57 1549.52 Q1852.76 1549.52 1849.68 1544.94 Q1846.63 1540.33 1846.63 1531.6 Q1846.63 1522.85 1849.68 1518.27 Q1852.76 1513.66 1858.57 1513.66 Z" fill="#000000" fill-rule="evenodd" fill-opacity="1" /><path clip-path="url(#clip340)" d="M2149.49 1529.7 Q2146.34 1529.7 2144.49 1531.86 Q2142.66 1534.01 2142.66 1537.76 Q2142.66 1541.49 2144.49 1543.66 Q2146.34 1545.82 2149.49 1545.82 Q2152.64 1545.82 2154.46 1543.66 Q2156.32 1541.49 2156.32 1537.76 Q2156.32 1534.01 2154.46 1531.86 Q2152.64 1529.7 2149.49 1529.7 M2158.77 1515.05 L2158.77 1519.31 Q2157.01 1518.48 2155.21 1518.04 Q2153.42 1517.6 2151.66 1517.6 Q2147.03 1517.6 2144.58 1520.72 Q2142.15 1523.85 2141.8 1530.17 Q2143.17 1528.15 2145.23 1527.09 Q2147.29 1526 2149.77 1526 Q2154.97 1526 2157.98 1529.17 Q2161.02 1532.32 2161.02 1537.76 Q2161.02 1543.08 2157.87 1546.3 Q2154.72 1549.52 2149.49 1549.52 Q2143.49 1549.52 2140.32 1544.94 Q2137.15 1540.33 2137.15 1531.6 Q2137.15 1523.41 2141.04 1518.55 Q2144.93 1513.66 2151.48 1513.66 Q2153.24 1513.66 2155.02 1514.01 Q2156.83 1514.36 2158.77 1515.05 Z" fill="#000000" fill-rule="evenodd" fill-opacity="1" /><path clip-path="url(#clip340)" d="M2179.07 1517.37 Q2175.46 1517.37 2173.63 1520.93 Q2171.83 1524.47 2171.83 1531.6 Q2171.83 1538.71 2173.63 1542.27 Q2175.46 1545.82 2179.07 1545.82 Q2182.71 1545.82 2184.51 1542.27 Q2186.34 1538.71 2186.34 1531.6 Q2186.34 1524.47 2184.51 1520.93 Q2182.71 1517.37 2179.07 1517.37 M2179.07 1513.66 Q2184.88 1513.66 2187.94 1518.27 Q2191.02 1522.85 2191.02 1531.6 Q2191.02 1540.33 2187.94 1544.94 Q2184.88 1549.52 2179.07 1549.52 Q2173.26 1549.52 2170.18 1544.94 Q2167.13 1540.33 2167.13 1531.6 Q2167.13 1522.85 2170.18 1518.27 Q2173.26 1513.66 2179.07 1513.66 Z" fill="#000000" fill-rule="evenodd" fill-opacity="1" /><polyline clip-path="url(#clip342)" style="stroke:#000000; stroke-linecap:butt; stroke-linejoin:round; stroke-width:2; stroke-opacity:0.1; fill:none" points="
  213.607,1296.57 2352.76,1296.57 
  "/>
<polyline clip-path="url(#clip342)" style="stroke:#000000; stroke-linecap:butt; stroke-linejoin:round; stroke-width:2; stroke-opacity:0.1; fill:none" points="
  213.607,718.439 2352.76,718.439 
  "/>
<polyline clip-path="url(#clip342)" style="stroke:#000000; stroke-linecap:butt; stroke-linejoin:round; stroke-width:2; stroke-opacity:0.1; fill:none" points="
  213.607,140.304 2352.76,140.304 
  "/>
<polyline clip-path="url(#clip340)" style="stroke:#000000; stroke-linecap:butt; stroke-linejoin:round; stroke-width:4; stroke-opacity:1; fill:none" points="
  213.607,1486.45 213.607,47.2441 
  "/>
<polyline clip-path="url(#clip340)" style="stroke:#000000; stroke-linecap:butt; stroke-linejoin:round; stroke-width:4; stroke-opacity:1; fill:none" points="
  213.607,1296.57 232.505,1296.57 
  "/>
<polyline clip-path="url(#clip340)" style="stroke:#000000; stroke-linecap:butt; stroke-linejoin:round; stroke-width:4; stroke-opacity:1; fill:none" points="
  213.607,718.439 232.505,718.439 
  "/>
<polyline clip-path="url(#clip340)" style="stroke:#000000; stroke-linecap:butt; stroke-linejoin:round; stroke-width:4; stroke-opacity:1; fill:none" points="
  213.607,140.304 232.505,140.304 
  "/>
<path clip-path="url(#clip340)" d="M51.6634 1316.37 L59.3023 1316.37 L59.3023 1290 L50.9921 1291.67 L50.9921 1287.41 L59.256 1285.74 L63.9319 1285.74 L63.9319 1316.37 L71.5707 1316.37 L71.5707 1320.3 L51.6634 1320.3 L51.6634 1316.37 Z" fill="#000000" fill-rule="evenodd" fill-opacity="1" /><path clip-path="url(#clip340)" d="M91.0151 1288.82 Q87.404 1288.82 85.5753 1292.39 Q83.7697 1295.93 83.7697 1303.06 Q83.7697 1310.16 85.5753 1313.73 Q87.404 1317.27 91.0151 1317.27 Q94.6493 1317.27 96.4548 1313.73 Q98.2835 1310.16 98.2835 1303.06 Q98.2835 1295.93 96.4548 1292.39 Q94.6493 1288.82 91.0151 1288.82 M91.0151 1285.12 Q96.8252 1285.12 99.8808 1289.72 Q102.959 1294.31 102.959 1303.06 Q102.959 1311.78 99.8808 1316.39 Q96.8252 1320.97 91.0151 1320.97 Q85.2049 1320.97 82.1262 1316.39 Q79.0707 1311.78 79.0707 1303.06 Q79.0707 1294.31 82.1262 1289.72 Q85.2049 1285.12 91.0151 1285.12 Z" fill="#000000" fill-rule="evenodd" fill-opacity="1" /><path clip-path="url(#clip340)" d="M102.959 1279.22 L127.071 1279.22 L127.071 1282.42 L102.959 1282.42 L102.959 1279.22 Z" fill="#000000" fill-rule="evenodd" fill-opacity="1" /><path clip-path="url(#clip340)" d="M135.929 1289.69 L142.136 1289.69 L142.136 1268.27 L135.384 1269.63 L135.384 1266.17 L142.098 1264.81 L145.898 1264.81 L145.898 1289.69 L152.104 1289.69 L152.104 1292.89 L135.929 1292.89 L135.929 1289.69 Z" fill="#000000" fill-rule="evenodd" fill-opacity="1" /><path clip-path="url(#clip340)" d="M167.903 1267.31 Q164.969 1267.31 163.483 1270.21 Q162.016 1273.09 162.016 1278.88 Q162.016 1284.65 163.483 1287.55 Q164.969 1290.43 167.903 1290.43 Q170.855 1290.43 172.322 1287.55 Q173.808 1284.65 173.808 1278.88 Q173.808 1273.09 172.322 1270.21 Q170.855 1267.31 167.903 1267.31 M167.903 1264.3 Q172.623 1264.3 175.106 1268.05 Q177.607 1271.77 177.607 1278.88 Q177.607 1285.97 175.106 1289.71 Q172.623 1293.44 167.903 1293.44 Q163.182 1293.44 160.68 1289.71 Q158.198 1285.97 158.198 1278.88 Q158.198 1271.77 160.68 1268.05 Q163.182 1264.3 167.903 1264.3 Z" fill="#000000" fill-rule="evenodd" fill-opacity="1" /><path clip-path="url(#clip340)" d="M76.9787 738.232 L84.6175 738.232 L84.6175 711.866 L76.3074 713.533 L76.3074 709.273 L84.5712 707.607 L89.2471 707.607 L89.2471 738.232 L96.886 738.232 L96.886 742.167 L76.9787 742.167 L76.9787 738.232 Z" fill="#000000" fill-rule="evenodd" fill-opacity="1" /><path clip-path="url(#clip340)" d="M116.33 710.685 Q112.719 710.685 110.891 714.25 Q109.085 717.792 109.085 724.921 Q109.085 732.028 110.891 735.593 Q112.719 739.134 116.33 739.134 Q119.965 739.134 121.77 735.593 Q123.599 732.028 123.599 724.921 Q123.599 717.792 121.77 714.25 Q119.965 710.685 116.33 710.685 M116.33 706.982 Q122.14 706.982 125.196 711.588 Q128.275 716.172 128.275 724.921 Q128.275 733.648 125.196 738.255 Q122.14 742.838 116.33 742.838 Q110.52 742.838 107.441 738.255 Q104.386 733.648 104.386 724.921 Q104.386 716.172 107.441 711.588 Q110.52 706.982 116.33 706.982 Z" fill="#000000" fill-rule="evenodd" fill-opacity="1" /><path clip-path="url(#clip340)" d="M128.275 701.083 L152.386 701.083 L152.386 704.28 L128.275 704.28 L128.275 701.083 Z" fill="#000000" fill-rule="evenodd" fill-opacity="1" /><path clip-path="url(#clip340)" d="M160.624 686.676 L175.539 686.676 L175.539 689.874 L164.103 689.874 L164.103 696.757 Q164.931 696.475 165.759 696.344 Q166.586 696.193 167.414 696.193 Q172.116 696.193 174.862 698.77 Q177.607 701.346 177.607 705.747 Q177.607 710.28 174.786 712.8 Q171.965 715.302 166.831 715.302 Q165.063 715.302 163.22 715.001 Q161.395 714.7 159.439 714.098 L159.439 710.28 Q161.132 711.202 162.937 711.653 Q164.743 712.104 166.755 712.104 Q170.009 712.104 171.909 710.393 Q173.808 708.681 173.808 705.747 Q173.808 702.813 171.909 701.102 Q170.009 699.39 166.755 699.39 Q165.232 699.39 163.709 699.729 Q162.204 700.067 160.624 700.782 L160.624 686.676 Z" fill="#000000" fill-rule="evenodd" fill-opacity="1" /><path clip-path="url(#clip340)" d="M106.902 160.096 L114.541 160.096 L114.541 133.731 L106.231 135.397 L106.231 131.138 L114.494 129.471 L119.17 129.471 L119.17 160.096 L126.809 160.096 L126.809 164.031 L106.902 164.031 L106.902 160.096 Z" fill="#000000" fill-rule="evenodd" fill-opacity="1" /><path clip-path="url(#clip340)" d="M146.253 132.55 Q142.642 132.55 140.814 136.115 Q139.008 139.656 139.008 146.786 Q139.008 153.892 140.814 157.457 Q142.642 160.999 146.253 160.999 Q149.888 160.999 151.693 157.457 Q153.522 153.892 153.522 146.786 Q153.522 139.656 151.693 136.115 Q149.888 132.55 146.253 132.55 M146.253 128.846 Q152.064 128.846 155.119 133.453 Q158.198 138.036 158.198 146.786 Q158.198 155.513 155.119 160.119 Q152.064 164.703 146.253 164.703 Q140.443 164.703 137.365 160.119 Q134.309 155.513 134.309 146.786 Q134.309 138.036 137.365 133.453 Q140.443 128.846 146.253 128.846 Z" fill="#000000" fill-rule="evenodd" fill-opacity="1" /><path clip-path="url(#clip340)" d="M167.903 111.042 Q164.969 111.042 163.483 113.939 Q162.016 116.816 162.016 122.609 Q162.016 128.383 163.483 131.279 Q164.969 134.157 167.903 134.157 Q170.855 134.157 172.322 131.279 Q173.808 128.383 173.808 122.609 Q173.808 116.816 172.322 113.939 Q170.855 111.042 167.903 111.042 M167.903 108.033 Q172.623 108.033 175.106 111.776 Q177.607 115.5 177.607 122.609 Q177.607 129.7 175.106 133.442 Q172.623 137.166 167.903 137.166 Q163.182 137.166 160.68 133.442 Q158.198 129.7 158.198 122.609 Q158.198 115.5 160.68 111.776 Q163.182 108.033 167.903 108.033 Z" fill="#000000" fill-rule="evenodd" fill-opacity="1" /><polyline clip-path="url(#clip342)" style="stroke:#009af9; stroke-linecap:butt; stroke-linejoin:round; stroke-width:16; stroke-opacity:1; fill:none" points="
  274.149,87.9763 306.182,110.012 338.215,131.93 370.248,153.757 402.28,175.513 434.313,197.214 466.346,218.872 498.379,240.497 530.412,262.096 562.444,283.677 
  594.477,305.242 626.51,326.795 658.543,348.34 690.575,369.878 722.608,391.411 754.641,412.939 786.674,434.465 818.707,455.988 850.739,477.509 882.772,499.029 
  914.805,520.548 946.838,542.066 978.87,563.583 1010.9,585.1 1042.94,606.617 1074.97,628.133 1107,649.649 1139.03,671.165 1171.07,692.68 1203.1,714.196 
  1235.13,735.711 1267.17,757.227 1299.2,778.742 1331.23,800.258 1363.26,821.773 1395.3,843.288 1427.33,864.804 1459.36,886.319 1491.39,907.834 1523.43,929.349 
  1555.46,950.865 1587.49,972.38 1619.53,993.895 1651.56,1015.41 1683.59,1036.93 1715.62,1058.44 1747.66,1079.96 1779.69,1101.47 1811.72,1122.99 1843.76,1144.5 
  1875.79,1166.02 1907.82,1187.53 1939.85,1209.05 1971.89,1230.56 2003.92,1252.08 2035.95,1273.59 2067.98,1295.11 2100.02,1316.62 2132.05,1338.14 2164.08,1359.65 
  2196.12,1381.17 2228.15,1402.69 2260.18,1424.2 2292.21,1445.72 
  "/>
<path clip-path="url(#clip340)" d="
M1965.12 250.738 L2281.45 250.738 L2281.45 95.2176 L1965.12 95.2176  Z
  " fill="#ffffff" fill-rule="evenodd" fill-opacity="1"/>
<polyline clip-path="url(#clip340)" style="stroke:#000000; stroke-linecap:butt; stroke-linejoin:round; stroke-width:4; stroke-opacity:1; fill:none" points="
  1965.12,250.738 2281.45,250.738 2281.45,95.2176 1965.12,95.2176 1965.12,250.738 
  "/>
<polyline clip-path="url(#clip340)" style="stroke:#009af9; stroke-linecap:butt; stroke-linejoin:round; stroke-width:6; stroke-opacity:1; fill:none" points="
  1988.89,172.978 2131.5,172.978 
  "/>
<path clip-path="url(#clip340)" d="M2176.03 202.509 Q2173.32 209.453 2170.75 211.571 Q2168.19 213.689 2163.88 213.689 L2158.78 213.689 L2158.78 208.342 L2162.53 208.342 Q2165.16 208.342 2166.62 207.092 Q2168.08 205.842 2169.85 201.189 L2171 198.273 L2155.27 160.009 L2162.04 160.009 L2174.19 190.425 L2186.35 160.009 L2193.12 160.009 L2176.03 202.509 Z" fill="#000000" fill-rule="evenodd" fill-opacity="1" /><path clip-path="url(#clip340)" d="M2204.05 192.995 L2215.51 192.995 L2215.51 153.446 L2203.05 155.946 L2203.05 149.558 L2215.44 147.058 L2222.46 147.058 L2222.46 192.995 L2233.91 192.995 L2233.91 198.898 L2204.05 198.898 L2204.05 192.995 Z" fill="#000000" fill-rule="evenodd" fill-opacity="1" /></svg>
