<?xml version="1.0" encoding="utf-8"?>
<svg xmlns="http://www.w3.org/2000/svg" xmlns:xlink="http://www.w3.org/1999/xlink" width="600" height="400" viewBox="0 0 2400 1600">
<defs>
  <clipPath id="clip830">
    <rect x="0" y="0" width="2400" height="1600"/>
  </clipPath>
</defs>
<path clip-path="url(#clip830)" d="
M0 1600 L2400 1600 L2400 0 L0 0  Z
  " fill="#ffffff" fill-rule="evenodd" fill-opacity="1"/>
<defs>
  <clipPath id="clip831">
    <rect x="480" y="0" width="1681" height="1600"/>
  </clipPath>
</defs>
<path clip-path="url(#clip830)" d="
M203.964 1423.18 L2352.76 1423.18 L2352.76 123.472 L203.964 123.472  Z
  " fill="#ffffff" fill-rule="evenodd" fill-opacity="1"/>
<defs>
  <clipPath id="clip832">
    <rect x="203" y="123" width="2150" height="1301"/>
  </clipPath>
</defs>
<polyline clip-path="url(#clip832)" style="stroke:#000000; stroke-linecap:butt; stroke-linejoin:round; stroke-width:2; stroke-opacity:0.1; fill:none" points="
  442.718,1423.18 442.718,123.472 
  "/>
<polyline clip-path="url(#clip832)" style="stroke:#000000; stroke-linecap:butt; stroke-linejoin:round; stroke-width:2; stroke-opacity:0.1; fill:none" points="
  920.228,1423.18 920.228,123.472 
  "/>
<polyline clip-path="url(#clip832)" style="stroke:#000000; stroke-linecap:butt; stroke-linejoin:round; stroke-width:2; stroke-opacity:0.1; fill:none" points="
  1397.74,1423.18 1397.74,123.472 
  "/>
<polyline clip-path="url(#clip832)" style="stroke:#000000; stroke-linecap:butt; stroke-linejoin:round; stroke-width:2; stroke-opacity:0.1; fill:none" points="
  1875.25,1423.18 1875.25,123.472 
  "/>
<polyline clip-path="url(#clip832)" style="stroke:#000000; stroke-linecap:butt; stroke-linejoin:round; stroke-width:2; stroke-opacity:0.1; fill:none" points="
  2352.76,1423.18 2352.76,123.472 
  "/>
<polyline clip-path="url(#clip830)" style="stroke:#000000; stroke-linecap:butt; stroke-linejoin:round; stroke-width:4; stroke-opacity:1; fill:none" points="
  203.964,1423.18 2352.76,1423.18 
  "/>
<polyline clip-path="url(#clip830)" style="stroke:#000000; stroke-linecap:butt; stroke-linejoin:round; stroke-width:4; stroke-opacity:1; fill:none" points="
  442.718,1423.18 442.718,1404.28 
  "/>
<polyline clip-path="url(#clip830)" style="stroke:#000000; stroke-linecap:butt; stroke-linejoin:round; stroke-width:4; stroke-opacity:1; fill:none" points="
  920.228,1423.18 920.228,1404.28 
  "/>
<polyline clip-path="url(#clip830)" style="stroke:#000000; stroke-linecap:butt; stroke-linejoin:round; stroke-width:4; stroke-opacity:1; fill:none" points="
  1397.74,1423.18 1397.74,1404.28 
  "/>
<polyline clip-path="url(#clip830)" style="stroke:#000000; stroke-linecap:butt; stroke-linejoin:round; stroke-width:4; stroke-opacity:1; fill:none" points="
  1875.25,1423.18 1875.25,1404.28 
  "/>
<polyline clip-path="url(#clip830)" style="stroke:#000000; stroke-linecap:butt; stroke-linejoin:round; stroke-width:4; stroke-opacity:1; fill:none" points="
  2352.76,1423.18 2352.76,1404.28 
  "/>
<path clip-path="url(#clip830)" d="M420.901 1454.1 Q417.29 1454.1 415.461 1457.66 Q413.656 1461.2 413.656 1468.33 Q413.656 1475.44 415.461 1479.01 Q417.29 1482.55 420.901 1482.55 Q424.536 1482.55 426.341 1479.01 Q428.17 1475.44 428.17 1468.33 Q428.17 1461.2 426.341 1457.66 Q424.536 1454.1 420.901 1454.1 M420.901 1450.39 Q426.711 1450.39 429.767 1455 Q432.846 1459.58 432.846 1468.33 Q432.846 1477.06 429.767 1481.67 Q426.711 1486.25 420.901 1486.25 Q415.091 1486.25 412.012 1481.67 Q408.957 1477.06 408.957 1468.33 Q408.957 1459.58 412.012 1455 Q415.091 1450.39 420.901 1450.39 Z" fill="#000000" fill-rule="evenodd" fill-opacity="1" /><path clip-path="url(#clip830)" d="M441.063 1479.7 L445.947 1479.7 L445.947 1485.58 L441.063 1485.58 L441.063 1479.7 Z" fill="#000000" fill-rule="evenodd" fill-opacity="1" /><path clip-path="url(#clip830)" d="M460.16 1481.64 L476.48 1481.64 L476.48 1485.58 L454.535 1485.58 L454.535 1481.64 Q457.197 1478.89 461.781 1474.26 Q466.387 1469.61 467.568 1468.27 Q469.813 1465.74 470.693 1464.01 Q471.595 1462.25 471.595 1460.56 Q471.595 1457.8 469.651 1456.07 Q467.73 1454.33 464.628 1454.33 Q462.429 1454.33 459.975 1455.09 Q457.545 1455.86 454.767 1457.41 L454.767 1452.69 Q457.591 1451.55 460.045 1450.97 Q462.498 1450.39 464.535 1450.39 Q469.906 1450.39 473.1 1453.08 Q476.294 1455.77 476.294 1460.26 Q476.294 1462.39 475.484 1464.31 Q474.697 1466.2 472.591 1468.8 Q472.012 1469.47 468.91 1472.69 Q465.808 1475.88 460.16 1481.64 Z" fill="#000000" fill-rule="evenodd" fill-opacity="1" /><path clip-path="url(#clip830)" d="M897.369 1454.1 Q893.758 1454.1 891.929 1457.66 Q890.124 1461.2 890.124 1468.33 Q890.124 1475.44 891.929 1479.01 Q893.758 1482.55 897.369 1482.55 Q901.003 1482.55 902.809 1479.01 Q904.637 1475.44 904.637 1468.33 Q904.637 1461.2 902.809 1457.66 Q901.003 1454.1 897.369 1454.1 M897.369 1450.39 Q903.179 1450.39 906.235 1455 Q909.313 1459.58 909.313 1468.33 Q909.313 1477.06 906.235 1481.67 Q903.179 1486.25 897.369 1486.25 Q891.559 1486.25 888.48 1481.67 Q885.425 1477.06 885.425 1468.33 Q885.425 1459.58 888.48 1455 Q891.559 1450.39 897.369 1450.39 Z" fill="#000000" fill-rule="evenodd" fill-opacity="1" /><path clip-path="url(#clip830)" d="M917.531 1479.7 L922.415 1479.7 L922.415 1485.58 L917.531 1485.58 L917.531 1479.7 Z" fill="#000000" fill-rule="evenodd" fill-opacity="1" /><path clip-path="url(#clip830)" d="M945.447 1455.09 L933.642 1473.54 L945.447 1473.54 L945.447 1455.09 M944.221 1451.02 L950.1 1451.02 L950.1 1473.54 L955.031 1473.54 L955.031 1477.43 L950.1 1477.43 L950.1 1485.58 L945.447 1485.58 L945.447 1477.43 L929.846 1477.43 L929.846 1472.92 L944.221 1451.02 Z" fill="#000000" fill-rule="evenodd" fill-opacity="1" /><path clip-path="url(#clip830)" d="M1375.04 1454.1 Q1371.43 1454.1 1369.6 1457.66 Q1367.8 1461.2 1367.8 1468.33 Q1367.8 1475.44 1369.6 1479.01 Q1371.43 1482.55 1375.04 1482.55 Q1378.67 1482.55 1380.48 1479.01 Q1382.31 1475.44 1382.31 1468.33 Q1382.31 1461.2 1380.48 1457.66 Q1378.67 1454.1 1375.04 1454.1 M1375.04 1450.39 Q1380.85 1450.39 1383.91 1455 Q1386.98 1459.58 1386.98 1468.33 Q1386.98 1477.06 1383.91 1481.67 Q1380.85 1486.25 1375.04 1486.25 Q1369.23 1486.25 1366.15 1481.67 Q1363.1 1477.06 1363.1 1468.33 Q1363.1 1459.58 1366.15 1455 Q1369.23 1450.39 1375.04 1450.39 Z" fill="#000000" fill-rule="evenodd" fill-opacity="1" /><path clip-path="url(#clip830)" d="M1395.2 1479.7 L1400.09 1479.7 L1400.09 1485.58 L1395.2 1485.58 L1395.2 1479.7 Z" fill="#000000" fill-rule="evenodd" fill-opacity="1" /><path clip-path="url(#clip830)" d="M1420.85 1466.44 Q1417.7 1466.44 1415.85 1468.59 Q1414.02 1470.74 1414.02 1474.49 Q1414.02 1478.22 1415.85 1480.39 Q1417.7 1482.55 1420.85 1482.55 Q1424 1482.55 1425.83 1480.39 Q1427.68 1478.22 1427.68 1474.49 Q1427.68 1470.74 1425.83 1468.59 Q1424 1466.44 1420.85 1466.44 M1430.13 1451.78 L1430.13 1456.04 Q1428.37 1455.21 1426.57 1454.77 Q1424.79 1454.33 1423.03 1454.33 Q1418.4 1454.33 1415.94 1457.45 Q1413.51 1460.58 1413.17 1466.9 Q1414.53 1464.89 1416.59 1463.82 Q1418.65 1462.73 1421.13 1462.73 Q1426.34 1462.73 1429.35 1465.9 Q1432.38 1469.05 1432.38 1474.49 Q1432.38 1479.82 1429.23 1483.03 Q1426.08 1486.25 1420.85 1486.25 Q1414.86 1486.25 1411.68 1481.67 Q1408.51 1477.06 1408.51 1468.33 Q1408.51 1460.14 1412.4 1455.28 Q1416.29 1450.39 1422.84 1450.39 Q1424.6 1450.39 1426.38 1450.74 Q1428.19 1451.09 1430.13 1451.78 Z" fill="#000000" fill-rule="evenodd" fill-opacity="1" /><path clip-path="url(#clip830)" d="M1852.68 1454.1 Q1849.07 1454.1 1847.24 1457.66 Q1845.43 1461.2 1845.43 1468.33 Q1845.43 1475.44 1847.24 1479.01 Q1849.07 1482.55 1852.68 1482.55 Q1856.31 1482.55 1858.12 1479.01 Q1859.95 1475.44 1859.95 1468.33 Q1859.95 1461.2 1858.12 1457.66 Q1856.31 1454.1 1852.68 1454.1 M1852.68 1450.39 Q1858.49 1450.39 1861.54 1455 Q1864.62 1459.58 1864.62 1468.33 Q1864.62 1477.06 1861.54 1481.67 Q1858.49 1486.25 1852.68 1486.25 Q1846.87 1486.25 1843.79 1481.67 Q1840.73 1477.06 1840.73 1468.33 Q1840.73 1459.58 1843.79 1455 Q1846.87 1450.39 1852.68 1450.39 Z" fill="#000000" fill-rule="evenodd" fill-opacity="1" /><path clip-path="url(#clip830)" d="M1872.84 1479.7 L1877.72 1479.7 L1877.72 1485.58 L1872.84 1485.58 L1872.84 1479.7 Z" fill="#000000" fill-rule="evenodd" fill-opacity="1" /><path clip-path="url(#clip830)" d="M1897.91 1469.17 Q1894.58 1469.17 1892.65 1470.95 Q1890.76 1472.73 1890.76 1475.86 Q1890.76 1478.98 1892.65 1480.77 Q1894.58 1482.55 1897.91 1482.55 Q1901.24 1482.55 1903.16 1480.77 Q1905.08 1478.96 1905.08 1475.86 Q1905.08 1472.73 1903.16 1470.95 Q1901.26 1469.17 1897.91 1469.17 M1893.23 1467.18 Q1890.22 1466.44 1888.53 1464.38 Q1886.87 1462.32 1886.87 1459.35 Q1886.87 1455.21 1889.81 1452.8 Q1892.77 1450.39 1897.91 1450.39 Q1903.07 1450.39 1906.01 1452.8 Q1908.95 1455.21 1908.95 1459.35 Q1908.95 1462.32 1907.26 1464.38 Q1905.59 1466.44 1902.61 1467.18 Q1905.99 1467.96 1907.86 1470.26 Q1909.76 1472.55 1909.76 1475.86 Q1909.76 1480.88 1906.68 1483.57 Q1903.63 1486.25 1897.91 1486.25 Q1892.19 1486.25 1889.11 1483.57 Q1886.06 1480.88 1886.06 1475.86 Q1886.06 1472.55 1887.95 1470.26 Q1889.85 1467.96 1893.23 1467.18 M1891.52 1459.79 Q1891.52 1462.48 1893.19 1463.98 Q1894.88 1465.49 1897.91 1465.49 Q1900.92 1465.49 1902.61 1463.98 Q1904.32 1462.48 1904.32 1459.79 Q1904.32 1457.11 1902.61 1455.6 Q1900.92 1454.1 1897.91 1454.1 Q1894.88 1454.1 1893.19 1455.6 Q1891.52 1457.11 1891.52 1459.79 Z" fill="#000000" fill-rule="evenodd" fill-opacity="1" /><path clip-path="url(#clip830)" d="M2319.91 1481.64 L2327.55 1481.64 L2327.55 1455.28 L2319.24 1456.95 L2319.24 1452.69 L2327.5 1451.02 L2332.18 1451.02 L2332.18 1481.64 L2339.82 1481.64 L2339.82 1485.58 L2319.91 1485.58 L2319.91 1481.64 Z" fill="#000000" fill-rule="evenodd" fill-opacity="1" /><path clip-path="url(#clip830)" d="M2349.26 1479.7 L2354.14 1479.7 L2354.14 1485.58 L2349.26 1485.58 L2349.26 1479.7 Z" fill="#000000" fill-rule="evenodd" fill-opacity="1" /><path clip-path="url(#clip830)" d="M2374.33 1454.1 Q2370.72 1454.1 2368.89 1457.66 Q2367.08 1461.2 2367.08 1468.33 Q2367.08 1475.44 2368.89 1479.01 Q2370.72 1482.55 2374.33 1482.55 Q2377.96 1482.55 2379.77 1479.01 Q2381.6 1475.44 2381.6 1468.33 Q2381.6 1461.2 2379.77 1457.66 Q2377.96 1454.1 2374.33 1454.1 M2374.33 1450.39 Q2380.14 1450.39 2383.2 1455 Q2386.27 1459.58 2386.27 1468.33 Q2386.27 1477.06 2383.2 1481.67 Q2380.14 1486.25 2374.33 1486.25 Q2368.52 1486.25 2365.44 1481.67 Q2362.39 1477.06 2362.39 1468.33 Q2362.39 1459.58 2365.44 1455 Q2368.52 1450.39 2374.33 1450.39 Z" fill="#000000" fill-rule="evenodd" fill-opacity="1" /><path clip-path="url(#clip830)" d="M1146.92 1537.81 L1146.92 1518.52 L1152.78 1518.52 L1152.78 1568.04 L1146.92 1568.04 L1146.92 1562.7 Q1145.08 1565.88 1142.25 1567.44 Q1139.44 1568.97 1135.5 1568.97 Q1129.04 1568.97 1124.96 1563.81 Q1120.92 1558.65 1120.92 1550.25 Q1120.92 1541.85 1124.96 1536.69 Q1129.04 1531.54 1135.5 1531.54 Q1139.44 1531.54 1142.25 1533.1 Q1145.08 1534.62 1146.92 1537.81 M1126.97 1550.25 Q1126.97 1556.71 1129.61 1560.4 Q1132.28 1564.07 1136.93 1564.07 Q1141.58 1564.07 1144.25 1560.4 Q1146.92 1556.71 1146.92 1550.25 Q1146.92 1543.79 1144.25 1540.13 Q1141.58 1536.44 1136.93 1536.44 Q1132.28 1536.44 1129.61 1540.13 Q1126.97 1543.79 1126.97 1550.25 Z" fill="#000000" fill-rule="evenodd" fill-opacity="1" /><path clip-path="url(#clip830)" d="M1195.34 1548.76 L1195.34 1551.62 L1168.41 1551.62 Q1168.79 1557.67 1172.04 1560.85 Q1175.31 1564 1181.14 1564 Q1184.51 1564 1187.66 1563.17 Q1190.85 1562.35 1193.97 1560.69 L1193.97 1566.23 Q1190.82 1567.57 1187.51 1568.27 Q1184.2 1568.97 1180.79 1568.97 Q1172.26 1568.97 1167.26 1564 Q1162.3 1559.04 1162.3 1550.57 Q1162.3 1541.82 1167.01 1536.69 Q1171.75 1531.54 1179.77 1531.54 Q1186.96 1531.54 1191.13 1536.18 Q1195.34 1540.8 1195.34 1548.76 M1189.48 1547.04 Q1189.41 1542.23 1186.77 1539.37 Q1184.16 1536.5 1179.83 1536.5 Q1174.93 1536.5 1171.97 1539.27 Q1169.04 1542.04 1168.6 1547.07 L1189.48 1547.04 Z" fill="#000000" fill-rule="evenodd" fill-opacity="1" /><path clip-path="url(#clip830)" d="M1210.61 1562.7 L1210.61 1581.6 L1204.72 1581.6 L1204.72 1532.4 L1210.61 1532.4 L1210.61 1537.81 Q1212.46 1534.62 1215.26 1533.1 Q1218.09 1531.54 1222.01 1531.54 Q1228.5 1531.54 1232.54 1536.69 Q1236.62 1541.85 1236.62 1550.25 Q1236.62 1558.65 1232.54 1563.81 Q1228.5 1568.97 1222.01 1568.97 Q1218.09 1568.97 1215.26 1567.44 Q1212.46 1565.88 1210.61 1562.7 M1230.54 1550.25 Q1230.54 1543.79 1227.86 1540.13 Q1225.22 1536.44 1220.58 1536.44 Q1215.93 1536.44 1213.25 1540.13 Q1210.61 1543.79 1210.61 1550.25 Q1210.61 1556.71 1213.25 1560.4 Q1215.93 1564.07 1220.58 1564.07 Q1225.22 1564.07 1227.86 1560.4 Q1230.54 1556.71 1230.54 1550.25 Z" fill="#000000" fill-rule="evenodd" fill-opacity="1" /><path clip-path="url(#clip830)" d="M1262.53 1550.12 Q1255.43 1550.12 1252.69 1551.75 Q1249.95 1553.37 1249.95 1557.29 Q1249.95 1560.4 1251.99 1562.25 Q1254.06 1564.07 1257.59 1564.07 Q1262.46 1564.07 1265.39 1560.63 Q1268.35 1557.16 1268.35 1551.43 L1268.35 1550.12 L1262.53 1550.12 M1274.21 1547.71 L1274.21 1568.04 L1268.35 1568.04 L1268.35 1562.63 Q1266.34 1565.88 1263.35 1567.44 Q1260.36 1568.97 1256.03 1568.97 Q1250.56 1568.97 1247.31 1565.91 Q1244.1 1562.82 1244.1 1557.67 Q1244.1 1551.65 1248.11 1548.6 Q1252.15 1545.54 1260.14 1545.54 L1268.35 1545.54 L1268.35 1544.97 Q1268.35 1540.93 1265.68 1538.73 Q1263.03 1536.5 1258.23 1536.5 Q1255.17 1536.5 1252.28 1537.23 Q1249.38 1537.97 1246.71 1539.43 L1246.71 1534.02 Q1249.92 1532.78 1252.94 1532.17 Q1255.97 1531.54 1258.83 1531.54 Q1266.57 1531.54 1270.39 1535.55 Q1274.21 1539.56 1274.21 1547.71 Z" fill="#000000" fill-rule="evenodd" fill-opacity="1" /><path clip-path="url(#clip830)" d="M1306.93 1537.87 Q1305.94 1537.3 1304.76 1537.04 Q1303.62 1536.76 1302.22 1536.76 Q1297.25 1536.76 1294.58 1540 Q1291.93 1543.22 1291.93 1549.27 L1291.93 1568.04 L1286.05 1568.04 L1286.05 1532.4 L1291.93 1532.4 L1291.93 1537.93 Q1293.78 1534.69 1296.74 1533.13 Q1299.7 1531.54 1303.93 1531.54 Q1304.54 1531.54 1305.27 1531.63 Q1306 1531.7 1306.89 1531.85 L1306.93 1537.87 Z" fill="#000000" fill-rule="evenodd" fill-opacity="1" /><path clip-path="url(#clip830)" d="M1318.86 1522.27 L1318.86 1532.4 L1330.92 1532.4 L1330.92 1536.95 L1318.86 1536.95 L1318.86 1556.3 Q1318.86 1560.66 1320.04 1561.9 Q1321.25 1563.14 1324.91 1563.14 L1330.92 1563.14 L1330.92 1568.04 L1324.91 1568.04 Q1318.13 1568.04 1315.55 1565.53 Q1312.97 1562.98 1312.97 1556.3 L1312.97 1536.95 L1308.68 1536.95 L1308.68 1532.4 L1312.97 1532.4 L1312.97 1522.27 L1318.86 1522.27 Z" fill="#000000" fill-rule="evenodd" fill-opacity="1" /><path clip-path="url(#clip830)" d="M1338.02 1553.98 L1338.02 1532.4 L1343.88 1532.4 L1343.88 1553.75 Q1343.88 1558.81 1345.85 1561.36 Q1347.83 1563.87 1351.77 1563.87 Q1356.51 1563.87 1359.25 1560.85 Q1362.02 1557.83 1362.02 1552.61 L1362.02 1532.4 L1367.88 1532.4 L1367.88 1568.04 L1362.02 1568.04 L1362.02 1562.57 Q1359.89 1565.82 1357.06 1567.41 Q1354.25 1568.97 1350.53 1568.97 Q1344.39 1568.97 1341.21 1565.15 Q1338.02 1561.33 1338.02 1553.98 M1352.76 1531.54 L1352.76 1531.54 Z" fill="#000000" fill-rule="evenodd" fill-opacity="1" /><path clip-path="url(#clip830)" d="M1400.6 1537.87 Q1399.61 1537.3 1398.43 1537.04 Q1397.29 1536.76 1395.89 1536.76 Q1390.92 1536.76 1388.25 1540 Q1385.61 1543.22 1385.61 1549.27 L1385.61 1568.04 L1379.72 1568.04 L1379.72 1532.4 L1385.61 1532.4 L1385.61 1537.93 Q1387.45 1534.69 1390.41 1533.13 Q1393.37 1531.54 1397.61 1531.54 Q1398.21 1531.54 1398.94 1531.63 Q1399.67 1531.7 1400.57 1531.85 L1400.6 1537.87 Z" fill="#000000" fill-rule="evenodd" fill-opacity="1" /><path clip-path="url(#clip830)" d="M1435.8 1548.76 L1435.8 1551.62 L1408.87 1551.62 Q1409.25 1557.67 1412.5 1560.85 Q1415.78 1564 1421.6 1564 Q1424.98 1564 1428.13 1563.17 Q1431.31 1562.35 1434.43 1560.69 L1434.43 1566.23 Q1431.28 1567.57 1427.97 1568.27 Q1424.66 1568.97 1421.25 1568.97 Q1412.72 1568.97 1407.73 1564 Q1402.76 1559.04 1402.76 1550.57 Q1402.76 1541.82 1407.47 1536.69 Q1412.21 1531.54 1420.24 1531.54 Q1427.43 1531.54 1431.6 1536.18 Q1435.8 1540.8 1435.8 1548.76 M1429.94 1547.04 Q1429.88 1542.23 1427.24 1539.37 Q1424.63 1536.5 1420.3 1536.5 Q1415.4 1536.5 1412.44 1539.27 Q1409.51 1542.04 1409.06 1547.07 L1429.94 1547.04 Z" fill="#000000" fill-rule="evenodd" fill-opacity="1" /><polyline clip-path="url(#clip832)" style="stroke:#000000; stroke-linecap:butt; stroke-linejoin:round; stroke-width:2; stroke-opacity:0.1; fill:none" points="
  203.964,1386.4 2352.76,1386.4 
  "/>
<polyline clip-path="url(#clip832)" style="stroke:#000000; stroke-linecap:butt; stroke-linejoin:round; stroke-width:2; stroke-opacity:0.1; fill:none" points="
  203.964,1120.14 2352.76,1120.14 
  "/>
<polyline clip-path="url(#clip832)" style="stroke:#000000; stroke-linecap:butt; stroke-linejoin:round; stroke-width:2; stroke-opacity:0.1; fill:none" points="
  203.964,853.89 2352.76,853.89 
  "/>
<polyline clip-path="url(#clip832)" style="stroke:#000000; stroke-linecap:butt; stroke-linejoin:round; stroke-width:2; stroke-opacity:0.1; fill:none" points="
  203.964,587.637 2352.76,587.637 
  "/>
<polyline clip-path="url(#clip832)" style="stroke:#000000; stroke-linecap:butt; stroke-linejoin:round; stroke-width:2; stroke-opacity:0.1; fill:none" points="
  203.964,321.385 2352.76,321.385 
  "/>
<polyline clip-path="url(#clip830)" style="stroke:#000000; stroke-linecap:butt; stroke-linejoin:round; stroke-width:4; stroke-opacity:1; fill:none" points="
  203.964,1423.18 203.964,123.472 
  "/>
<polyline clip-path="url(#clip830)" style="stroke:#000000; stroke-linecap:butt; stroke-linejoin:round; stroke-width:4; stroke-opacity:1; fill:none" points="
  203.964,1386.4 222.861,1386.4 
  "/>
<polyline clip-path="url(#clip830)" style="stroke:#000000; stroke-linecap:butt; stroke-linejoin:round; stroke-width:4; stroke-opacity:1; fill:none" points="
  203.964,1120.14 222.861,1120.14 
  "/>
<polyline clip-path="url(#clip830)" style="stroke:#000000; stroke-linecap:butt; stroke-linejoin:round; stroke-width:4; stroke-opacity:1; fill:none" points="
  203.964,853.89 222.861,853.89 
  "/>
<polyline clip-path="url(#clip830)" style="stroke:#000000; stroke-linecap:butt; stroke-linejoin:round; stroke-width:4; stroke-opacity:1; fill:none" points="
  203.964,587.637 222.861,587.637 
  "/>
<polyline clip-path="url(#clip830)" style="stroke:#000000; stroke-linecap:butt; stroke-linejoin:round; stroke-width:4; stroke-opacity:1; fill:none" points="
  203.964,321.385 222.861,321.385 
  "/>
<path clip-path="url(#clip830)" d="M156.019 1372.19 Q152.408 1372.19 150.579 1375.76 Q148.774 1379.3 148.774 1386.43 Q148.774 1393.54 150.579 1397.1 Q152.408 1400.64 156.019 1400.64 Q159.653 1400.64 161.459 1397.1 Q163.288 1393.54 163.288 1386.43 Q163.288 1379.3 161.459 1375.76 Q159.653 1372.19 156.019 1372.19 M156.019 1368.49 Q161.829 1368.49 164.885 1373.1 Q167.964 1377.68 167.964 1386.43 Q167.964 1395.16 164.885 1399.76 Q161.829 1404.35 156.019 1404.35 Q150.209 1404.35 147.13 1399.76 Q144.075 1395.16 144.075 1386.43 Q144.075 1377.68 147.13 1373.1 Q150.209 1368.49 156.019 1368.49 Z" fill="#000000" fill-rule="evenodd" fill-opacity="1" /><path clip-path="url(#clip830)" d="M147.061 1102.86 L165.417 1102.86 L165.417 1106.8 L151.343 1106.8 L151.343 1115.27 Q152.362 1114.92 153.38 1114.76 Q154.399 1114.58 155.417 1114.58 Q161.204 1114.58 164.584 1117.75 Q167.964 1120.92 167.964 1126.33 Q167.964 1131.91 164.491 1135.02 Q161.019 1138.09 154.7 1138.09 Q152.524 1138.09 150.255 1137.72 Q148.01 1137.35 145.603 1136.61 L145.603 1131.91 Q147.686 1133.05 149.908 1133.6 Q152.13 1134.16 154.607 1134.16 Q158.612 1134.16 160.95 1132.05 Q163.288 1129.95 163.288 1126.33 Q163.288 1122.72 160.95 1120.62 Q158.612 1118.51 154.607 1118.51 Q152.732 1118.51 150.857 1118.93 Q149.005 1119.34 147.061 1120.22 L147.061 1102.86 Z" fill="#000000" fill-rule="evenodd" fill-opacity="1" /><path clip-path="url(#clip830)" d="M116.668 867.235 L124.306 867.235 L124.306 840.869 L115.996 842.536 L115.996 838.277 L124.26 836.61 L128.936 836.61 L128.936 867.235 L136.575 867.235 L136.575 871.17 L116.668 871.17 L116.668 867.235 Z" fill="#000000" fill-rule="evenodd" fill-opacity="1" /><path clip-path="url(#clip830)" d="M156.019 839.689 Q152.408 839.689 150.579 843.254 Q148.774 846.795 148.774 853.925 Q148.774 861.031 150.579 864.596 Q152.408 868.138 156.019 868.138 Q159.653 868.138 161.459 864.596 Q163.288 861.031 163.288 853.925 Q163.288 846.795 161.459 843.254 Q159.653 839.689 156.019 839.689 M156.019 835.985 Q161.829 835.985 164.885 840.592 Q167.964 845.175 167.964 853.925 Q167.964 862.652 164.885 867.258 Q161.829 871.841 156.019 871.841 Q150.209 871.841 147.13 867.258 Q144.075 862.652 144.075 853.925 Q144.075 845.175 147.13 840.592 Q150.209 835.985 156.019 835.985 Z" fill="#000000" fill-rule="evenodd" fill-opacity="1" /><path clip-path="url(#clip830)" d="M117.663 600.982 L125.302 600.982 L125.302 574.617 L116.992 576.283 L116.992 572.024 L125.255 570.357 L129.931 570.357 L129.931 600.982 L137.57 600.982 L137.57 604.917 L117.663 604.917 L117.663 600.982 Z" fill="#000000" fill-rule="evenodd" fill-opacity="1" /><path clip-path="url(#clip830)" d="M147.061 570.357 L165.417 570.357 L165.417 574.292 L151.343 574.292 L151.343 582.765 Q152.362 582.417 153.38 582.255 Q154.399 582.07 155.417 582.07 Q161.204 582.07 164.584 585.242 Q167.964 588.413 167.964 593.829 Q167.964 599.408 164.491 602.51 Q161.019 605.589 154.7 605.589 Q152.524 605.589 150.255 605.218 Q148.01 604.848 145.603 604.107 L145.603 599.408 Q147.686 600.542 149.908 601.098 Q152.13 601.653 154.607 601.653 Q158.612 601.653 160.95 599.547 Q163.288 597.441 163.288 593.829 Q163.288 590.218 160.95 588.112 Q158.612 586.005 154.607 586.005 Q152.732 586.005 150.857 586.422 Q149.005 586.839 147.061 587.718 L147.061 570.357 Z" fill="#000000" fill-rule="evenodd" fill-opacity="1" /><path clip-path="url(#clip830)" d="M119.885 334.729 L136.204 334.729 L136.204 338.665 L114.26 338.665 L114.26 334.729 Q116.922 331.975 121.505 327.345 Q126.112 322.692 127.292 321.35 Q129.538 318.827 130.417 317.091 Q131.32 315.331 131.32 313.642 Q131.32 310.887 129.376 309.151 Q127.455 307.415 124.353 307.415 Q122.154 307.415 119.7 308.179 Q117.269 308.942 114.492 310.493 L114.492 305.771 Q117.316 304.637 119.769 304.058 Q122.223 303.48 124.26 303.48 Q129.63 303.48 132.825 306.165 Q136.019 308.85 136.019 313.341 Q136.019 315.47 135.209 317.392 Q134.422 319.29 132.316 321.882 Q131.737 322.554 128.635 325.771 Q125.533 328.966 119.885 334.729 Z" fill="#000000" fill-rule="evenodd" fill-opacity="1" /><path clip-path="url(#clip830)" d="M156.019 307.183 Q152.408 307.183 150.579 310.748 Q148.774 314.29 148.774 321.419 Q148.774 328.526 150.579 332.091 Q152.408 335.632 156.019 335.632 Q159.653 335.632 161.459 332.091 Q163.288 328.526 163.288 321.419 Q163.288 314.29 161.459 310.748 Q159.653 307.183 156.019 307.183 M156.019 303.48 Q161.829 303.48 164.885 308.086 Q167.964 312.669 167.964 321.419 Q167.964 330.146 164.885 334.753 Q161.829 339.336 156.019 339.336 Q150.209 339.336 147.13 334.753 Q144.075 330.146 144.075 321.419 Q144.075 312.669 147.13 308.086 Q150.209 303.48 156.019 303.48 Z" fill="#000000" fill-rule="evenodd" fill-opacity="1" /><path clip-path="url(#clip830)" d="M28.3562 839.641 L28.3562 833.784 L56.1743 826.464 L28.3562 819.175 L28.3562 812.268 L56.1743 804.948 L28.3562 797.659 L28.3562 791.802 L64.0042 801.128 L64.0042 808.035 L34.7856 815.706 L64.0042 823.408 L64.0042 830.315 L28.3562 839.641 Z" fill="#000000" fill-rule="evenodd" fill-opacity="1" /><path clip-path="url(#clip830)" d="M46.0847 766.722 Q46.0847 773.819 47.7079 776.557 Q49.3312 779.294 53.2461 779.294 Q56.3653 779.294 58.2114 777.257 Q60.0256 775.188 60.0256 771.655 Q60.0256 766.785 56.5881 763.857 Q53.1188 760.897 47.3897 760.897 L46.0847 760.897 L46.0847 766.722 M43.6657 755.04 L64.0042 755.04 L64.0042 760.897 L58.5933 760.897 Q61.8398 762.902 63.3994 765.894 Q64.9272 768.886 64.9272 773.215 Q64.9272 778.689 61.8716 781.936 Q58.7843 785.15 53.6281 785.15 Q47.6125 785.15 44.5569 781.14 Q41.5014 777.098 41.5014 769.109 L41.5014 760.897 L40.9285 760.897 Q36.8862 760.897 34.6901 763.571 Q32.4621 766.212 32.4621 771.018 Q32.4621 774.074 33.1941 776.97 Q33.9262 779.867 35.3903 782.54 L29.9795 782.54 Q28.7381 779.326 28.1334 776.302 Q27.4968 773.278 27.4968 770.414 Q27.4968 762.679 31.5072 758.86 Q35.5176 755.04 43.6657 755.04 Z" fill="#000000" fill-rule="evenodd" fill-opacity="1" /><path clip-path="url(#clip830)" d="M28.3562 742.977 L28.3562 737.121 L64.0042 737.121 L64.0042 742.977 L28.3562 742.977 M14.479 742.977 L14.479 737.121 L21.895 737.121 L21.895 742.977 L14.479 742.977 Z" fill="#000000" fill-rule="evenodd" fill-opacity="1" /><path clip-path="url(#clip830)" d="M18.2347 719.074 L28.3562 719.074 L28.3562 707.011 L32.9077 707.011 L32.9077 719.074 L52.2594 719.074 Q56.6199 719.074 57.8613 717.897 Q59.1026 716.687 59.1026 713.027 L59.1026 707.011 L64.0042 707.011 L64.0042 713.027 Q64.0042 719.806 61.4897 722.384 Q58.9434 724.963 52.2594 724.963 L32.9077 724.963 L32.9077 729.259 L28.3562 729.259 L28.3562 724.963 L18.2347 724.963 L18.2347 719.074 Z" fill="#000000" fill-rule="evenodd" fill-opacity="1" /><path clip-path="url(#clip830)" d="M740.967 34.0924 L740.967 9.54393 L748.42 9.54393 L748.42 72.576 L740.967 72.576 L740.967 65.7705 Q738.617 69.8214 735.012 71.8063 Q731.447 73.7508 726.424 73.7508 Q718.201 73.7508 713.016 67.1883 Q707.871 60.6258 707.871 49.9314 Q707.871 39.2371 713.016 32.6746 Q718.201 26.1121 726.424 26.1121 Q731.447 26.1121 735.012 28.0971 Q738.617 30.0415 740.967 34.0924 M715.568 49.9314 Q715.568 58.1548 718.93 62.8538 Q722.333 67.5124 728.247 67.5124 Q734.161 67.5124 737.564 62.8538 Q740.967 58.1548 740.967 49.9314 Q740.967 41.7081 737.564 37.0496 Q734.161 32.3505 728.247 32.3505 Q722.333 32.3505 718.93 37.0496 Q715.568 41.7081 715.568 49.9314 Z" fill="#000000" fill-rule="evenodd" fill-opacity="1" /><path clip-path="url(#clip830)" d="M782.327 17.4837 Q776.007 17.4837 772.807 23.7221 Q769.647 29.92 769.647 42.3968 Q769.647 54.833 772.807 61.0714 Q776.007 67.2693 782.327 67.2693 Q788.686 67.2693 791.846 61.0714 Q795.046 54.833 795.046 42.3968 Q795.046 29.92 791.846 23.7221 Q788.686 17.4837 782.327 17.4837 M782.327 11.0023 Q792.494 11.0023 797.841 19.0636 Q803.229 27.0843 803.229 42.3968 Q803.229 57.6687 797.841 65.73 Q792.494 73.7508 782.327 73.7508 Q772.159 73.7508 766.771 65.73 Q761.424 57.6687 761.424 42.3968 Q761.424 27.0843 766.771 19.0636 Q772.159 11.0023 782.327 11.0023 Z" fill="#000000" fill-rule="evenodd" fill-opacity="1" /><path clip-path="url(#clip830)" d="M843.9 34.9026 L895.833 34.9026 L895.833 41.7081 L843.9 41.7081 L843.9 34.9026 M843.9 51.4303 L895.833 51.4303 L895.833 58.3168 L843.9 58.3168 L843.9 51.4303 Z" fill="#000000" fill-rule="evenodd" fill-opacity="1" /><path clip-path="url(#clip830)" d="M957.366 17.4837 Q951.047 17.4837 947.846 23.7221 Q944.687 29.92 944.687 42.3968 Q944.687 54.833 947.846 61.0714 Q951.047 67.2693 957.366 67.2693 Q963.726 67.2693 966.886 61.0714 Q970.086 54.833 970.086 42.3968 Q970.086 29.92 966.886 23.7221 Q963.726 17.4837 957.366 17.4837 M957.366 11.0023 Q967.534 11.0023 972.881 19.0636 Q978.269 27.0843 978.269 42.3968 Q978.269 57.6687 972.881 65.73 Q967.534 73.7508 957.366 73.7508 Q947.198 73.7508 941.811 65.73 Q936.463 57.6687 936.463 42.3968 Q936.463 27.0843 941.811 19.0636 Q947.198 11.0023 957.366 11.0023 Z" fill="#000000" fill-rule="evenodd" fill-opacity="1" /><path clip-path="url(#clip830)" d="M992.649 62.2867 L1001.2 62.2867 L1001.2 72.576 L992.649 72.576 L992.649 62.2867 Z" fill="#000000" fill-rule="evenodd" fill-opacity="1" /><path clip-path="url(#clip830)" d="M1037.53 39.075 Q1032.02 39.075 1028.78 42.8424 Q1025.58 46.6097 1025.58 53.1722 Q1025.58 59.6941 1028.78 63.502 Q1032.02 67.2693 1037.53 67.2693 Q1043.04 67.2693 1046.24 63.502 Q1049.48 59.6941 1049.48 53.1722 Q1049.48 46.6097 1046.24 42.8424 Q1043.04 39.075 1037.53 39.075 M1053.78 13.4328 L1053.78 20.8865 Q1050.7 19.4281 1047.54 18.6585 Q1044.42 17.8888 1041.34 17.8888 Q1033.24 17.8888 1028.95 23.3575 Q1024.69 28.8262 1024.08 39.8852 Q1026.47 36.3609 1030.08 34.4975 Q1033.69 32.5936 1038.02 32.5936 Q1047.13 32.5936 1052.4 38.1433 Q1057.71 43.6525 1057.71 53.1722 Q1057.71 62.4892 1052.2 68.12 Q1046.69 73.7508 1037.53 73.7508 Q1027.04 73.7508 1021.49 65.73 Q1015.94 57.6687 1015.94 42.3968 Q1015.94 28.0566 1022.75 19.5497 Q1029.55 11.0023 1041.02 11.0023 Q1044.1 11.0023 1047.22 11.6099 Q1050.37 12.2175 1053.78 13.4328 Z" fill="#000000" fill-rule="evenodd" fill-opacity="1" /><path clip-path="url(#clip830)" d="M1073.22 65.6895 L1086.59 65.6895 L1086.59 19.5497 L1072.05 22.4663 L1072.05 15.0127 L1086.51 12.096 L1094.69 12.096 L1094.69 65.6895 L1108.06 65.6895 L1108.06 72.576 L1073.22 72.576 L1073.22 65.6895 Z" fill="#000000" fill-rule="evenodd" fill-opacity="1" /><path clip-path="url(#clip830)" d="M1131.64 65.6895 L1160.19 65.6895 L1160.19 72.576 L1121.79 72.576 L1121.79 65.6895 Q1126.45 60.8689 1134.47 52.7671 Q1142.53 44.6248 1144.6 42.2752 Q1148.53 37.8598 1150.07 34.8216 Q1151.65 31.7429 1151.65 28.7857 Q1151.65 23.9651 1148.24 20.927 Q1144.88 17.8888 1139.45 17.8888 Q1135.61 17.8888 1131.31 19.2256 Q1127.06 20.5624 1122.2 23.2765 L1122.2 15.0127 Q1127.14 13.0277 1131.43 12.015 Q1135.73 11.0023 1139.29 11.0023 Q1148.69 11.0023 1154.28 15.7013 Q1159.87 20.4004 1159.87 28.2591 Q1159.87 31.9859 1158.45 35.3482 Q1157.08 38.6699 1153.39 43.2069 Q1152.38 44.3817 1146.95 50.0125 Q1141.52 55.6027 1131.64 65.6895 Z" fill="#000000" fill-rule="evenodd" fill-opacity="1" /><path clip-path="url(#clip830)" d="M1177.45 12.096 L1209.58 12.096 L1209.58 18.9825 L1184.95 18.9825 L1184.95 33.8088 Q1186.73 33.2012 1188.51 32.9176 Q1190.29 32.5936 1192.08 32.5936 Q1202.2 32.5936 1208.12 38.1433 Q1214.03 43.6931 1214.03 53.1722 Q1214.03 62.9348 1207.96 68.3631 Q1201.88 73.7508 1190.82 73.7508 Q1187.01 73.7508 1183.04 73.1026 Q1179.11 72.4545 1174.9 71.1582 L1174.9 62.9348 Q1178.55 64.9198 1182.43 65.892 Q1186.32 66.8642 1190.66 66.8642 Q1197.67 66.8642 1201.76 63.1779 Q1205.85 59.4916 1205.85 53.1722 Q1205.85 46.8528 1201.76 43.1664 Q1197.67 39.4801 1190.66 39.4801 Q1187.38 39.4801 1184.1 40.2093 Q1180.85 40.9384 1177.45 42.4778 L1177.45 12.096 Z" fill="#000000" fill-rule="evenodd" fill-opacity="1" /><path clip-path="url(#clip830)" d="M1247.65 43.8551 Q1241.82 43.8551 1238.46 46.9743 Q1235.14 50.0935 1235.14 55.5622 Q1235.14 61.0309 1238.46 64.1501 Q1241.82 67.2693 1247.65 67.2693 Q1253.49 67.2693 1256.85 64.1501 Q1260.21 60.9904 1260.21 55.5622 Q1260.21 50.0935 1256.85 46.9743 Q1253.53 43.8551 1247.65 43.8551 M1239.47 40.3713 Q1234.2 39.075 1231.25 35.4697 Q1228.33 31.8644 1228.33 26.6793 Q1228.33 19.4281 1233.48 15.2152 Q1238.66 11.0023 1247.65 11.0023 Q1256.69 11.0023 1261.83 15.2152 Q1266.98 19.4281 1266.98 26.6793 Q1266.98 31.8644 1264.02 35.4697 Q1261.1 39.075 1255.88 40.3713 Q1261.79 41.7486 1265.07 45.759 Q1268.39 49.7694 1268.39 55.5622 Q1268.39 64.3527 1263.01 69.0517 Q1257.66 73.7508 1247.65 73.7508 Q1237.65 73.7508 1232.26 69.0517 Q1226.91 64.3527 1226.91 55.5622 Q1226.91 49.7694 1230.23 45.759 Q1233.56 41.7486 1239.47 40.3713 M1236.47 27.4489 Q1236.47 32.148 1239.39 34.7811 Q1242.35 37.4142 1247.65 37.4142 Q1252.92 37.4142 1255.88 34.7811 Q1258.87 32.148 1258.87 27.4489 Q1258.87 22.7499 1255.88 20.1168 Q1252.92 17.4837 1247.65 17.4837 Q1242.35 17.4837 1239.39 20.1168 Q1236.47 22.7499 1236.47 27.4489 Z" fill="#000000" fill-rule="evenodd" fill-opacity="1" /><path clip-path="url(#clip830)" d="M1305.42 19.2256 L1284.76 51.5113 L1305.42 51.5113 L1305.42 19.2256 M1303.27 12.096 L1313.56 12.096 L1313.56 51.5113 L1322.19 51.5113 L1322.19 58.3168 L1313.56 58.3168 L1313.56 72.576 L1305.42 72.576 L1305.42 58.3168 L1278.12 58.3168 L1278.12 50.4176 L1303.27 12.096 Z" fill="#000000" fill-rule="evenodd" fill-opacity="1" /><path clip-path="url(#clip830)" d="M1353.22 43.8551 Q1347.39 43.8551 1344.02 46.9743 Q1340.7 50.0935 1340.7 55.5622 Q1340.7 61.0309 1344.02 64.1501 Q1347.39 67.2693 1353.22 67.2693 Q1359.05 67.2693 1362.42 64.1501 Q1365.78 60.9904 1365.78 55.5622 Q1365.78 50.0935 1362.42 46.9743 Q1359.09 43.8551 1353.22 43.8551 M1345.04 40.3713 Q1339.77 39.075 1336.81 35.4697 Q1333.9 31.8644 1333.9 26.6793 Q1333.9 19.4281 1339.04 15.2152 Q1344.23 11.0023 1353.22 11.0023 Q1362.25 11.0023 1367.4 15.2152 Q1372.54 19.4281 1372.54 26.6793 Q1372.54 31.8644 1369.59 35.4697 Q1366.67 39.075 1361.44 40.3713 Q1367.36 41.7486 1370.64 45.759 Q1373.96 49.7694 1373.96 55.5622 Q1373.96 64.3527 1368.57 69.0517 Q1363.23 73.7508 1353.22 73.7508 Q1343.21 73.7508 1337.83 69.0517 Q1332.48 64.3527 1332.48 55.5622 Q1332.48 49.7694 1335.8 45.759 Q1339.12 41.7486 1345.04 40.3713 M1342.04 27.4489 Q1342.04 32.148 1344.96 34.7811 Q1347.91 37.4142 1353.22 37.4142 Q1358.49 37.4142 1361.44 34.7811 Q1364.44 32.148 1364.44 27.4489 Q1364.44 22.7499 1361.44 20.1168 Q1358.49 17.4837 1353.22 17.4837 Q1347.91 17.4837 1344.96 20.1168 Q1342.04 22.7499 1342.04 27.4489 Z" fill="#000000" fill-rule="evenodd" fill-opacity="1" /><path clip-path="url(#clip830)" d="M1395.55 65.6895 L1424.11 65.6895 L1424.11 72.576 L1385.71 72.576 L1385.71 65.6895 Q1390.37 60.8689 1398.39 52.7671 Q1406.45 44.6248 1408.52 42.2752 Q1412.44 37.8598 1413.98 34.8216 Q1415.56 31.7429 1415.56 28.7857 Q1415.56 23.9651 1412.16 20.927 Q1408.8 17.8888 1403.37 17.8888 Q1399.52 17.8888 1395.23 19.2256 Q1390.97 20.5624 1386.11 23.2765 L1386.11 15.0127 Q1391.06 13.0277 1395.35 12.015 Q1399.64 11.0023 1403.21 11.0023 Q1412.61 11.0023 1418.2 15.7013 Q1423.79 20.4004 1423.79 28.2591 Q1423.79 31.9859 1422.37 35.3482 Q1420.99 38.6699 1417.31 43.2069 Q1416.29 44.3817 1410.86 50.0125 Q1405.44 55.6027 1395.55 65.6895 Z" fill="#000000" fill-rule="evenodd" fill-opacity="1" /><path clip-path="url(#clip830)" d="M1466.08 39.9662 Q1471.95 41.222 1475.23 45.1919 Q1478.56 49.1618 1478.56 54.9951 Q1478.56 63.9476 1472.4 68.8492 Q1466.24 73.7508 1454.9 73.7508 Q1451.09 73.7508 1447.04 72.9811 Q1443.03 72.2519 1438.74 70.7531 L1438.74 62.8538 Q1442.14 64.8388 1446.19 65.8515 Q1450.24 66.8642 1454.66 66.8642 Q1462.35 66.8642 1466.36 63.826 Q1470.41 60.7879 1470.41 54.9951 Q1470.41 49.6479 1466.65 46.6502 Q1462.92 43.612 1456.23 43.612 L1449.19 43.612 L1449.19 36.8875 L1456.56 36.8875 Q1462.59 36.8875 1465.8 34.4975 Q1469 32.067 1469 27.5299 Q1469 22.8714 1465.67 20.4004 Q1462.39 17.8888 1456.23 17.8888 Q1452.87 17.8888 1449.02 18.618 Q1445.18 19.3471 1440.56 20.8865 L1440.56 13.5948 Q1445.22 12.2985 1449.27 11.6504 Q1453.36 11.0023 1456.96 11.0023 Q1466.28 11.0023 1471.71 15.2557 Q1477.14 19.4686 1477.14 26.6793 Q1477.14 31.7024 1474.26 35.1862 Q1471.39 38.6294 1466.08 39.9662 Z" fill="#000000" fill-rule="evenodd" fill-opacity="1" /><path clip-path="url(#clip830)" d="M1494.15 12.096 L1526.28 12.096 L1526.28 18.9825 L1501.65 18.9825 L1501.65 33.8088 Q1503.43 33.2012 1505.21 32.9176 Q1506.99 32.5936 1508.78 32.5936 Q1518.9 32.5936 1524.82 38.1433 Q1530.73 43.6931 1530.73 53.1722 Q1530.73 62.9348 1524.65 68.3631 Q1518.58 73.7508 1507.52 73.7508 Q1503.71 73.7508 1499.74 73.1026 Q1495.81 72.4545 1491.6 71.1582 L1491.6 62.9348 Q1495.25 64.9198 1499.13 65.892 Q1503.02 66.8642 1507.36 66.8642 Q1514.37 66.8642 1518.46 63.1779 Q1522.55 59.4916 1522.55 53.1722 Q1522.55 46.8528 1518.46 43.1664 Q1514.37 39.4801 1507.36 39.4801 Q1504.08 39.4801 1500.79 40.2093 Q1497.55 40.9384 1494.15 42.4778 L1494.15 12.096 Z" fill="#000000" fill-rule="evenodd" fill-opacity="1" /><path clip-path="url(#clip830)" d="M1564.35 17.4837 Q1558.03 17.4837 1554.83 23.7221 Q1551.67 29.92 1551.67 42.3968 Q1551.67 54.833 1554.83 61.0714 Q1558.03 67.2693 1564.35 67.2693 Q1570.71 67.2693 1573.87 61.0714 Q1577.07 54.833 1577.07 42.3968 Q1577.07 29.92 1573.87 23.7221 Q1570.71 17.4837 1564.35 17.4837 M1564.35 11.0023 Q1574.52 11.0023 1579.87 19.0636 Q1585.26 27.0843 1585.26 42.3968 Q1585.26 57.6687 1579.87 65.73 Q1574.52 73.7508 1564.35 73.7508 Q1554.19 73.7508 1548.8 65.73 Q1543.45 57.6687 1543.45 42.3968 Q1543.45 27.0843 1548.8 19.0636 Q1554.19 11.0023 1564.35 11.0023 Z" fill="#000000" fill-rule="evenodd" fill-opacity="1" /><path clip-path="url(#clip830)" d="M1601.05 65.6895 L1614.42 65.6895 L1614.42 19.5497 L1599.88 22.4663 L1599.88 15.0127 L1614.34 12.096 L1622.52 12.096 L1622.52 65.6895 L1635.89 65.6895 L1635.89 72.576 L1601.05 72.576 L1601.05 65.6895 Z" fill="#000000" fill-rule="evenodd" fill-opacity="1" /><path clip-path="url(#clip830)" d="M1652.66 71.3202 L1652.66 63.8666 Q1655.74 65.3249 1658.9 66.0946 Q1662.06 66.8642 1665.1 66.8642 Q1673.2 66.8642 1677.45 61.436 Q1681.75 55.9673 1682.36 44.8678 Q1680.01 48.3516 1676.4 50.215 Q1672.8 52.0784 1668.42 52.0784 Q1659.35 52.0784 1654.04 46.6097 Q1648.77 41.1005 1648.77 31.5808 Q1648.77 22.2638 1654.28 16.633 Q1659.79 11.0023 1668.95 11.0023 Q1679.44 11.0023 1684.95 19.0636 Q1690.5 27.0843 1690.5 42.3968 Q1690.5 56.6965 1683.69 65.2439 Q1676.93 73.7508 1665.46 73.7508 Q1662.39 73.7508 1659.23 73.1431 Q1656.07 72.5355 1652.66 71.3202 M1668.95 45.678 Q1674.46 45.678 1677.66 41.9107 Q1680.9 38.1433 1680.9 31.5808 Q1680.9 25.0589 1677.66 21.2916 Q1674.46 17.4837 1668.95 17.4837 Q1663.44 17.4837 1660.2 21.2916 Q1657 25.0589 1657 31.5808 Q1657 38.1433 1660.2 41.9107 Q1663.44 45.678 1668.95 45.678 Z" fill="#000000" fill-rule="evenodd" fill-opacity="1" /><path clip-path="url(#clip830)" d="M1703.14 12.096 L1742.03 12.096 L1742.03 15.5798 L1720.07 72.576 L1711.52 72.576 L1732.18 18.9825 L1703.14 18.9825 L1703.14 12.096 Z" fill="#000000" fill-rule="evenodd" fill-opacity="1" /><path clip-path="url(#clip830)" d="M1780.47 19.2256 L1759.81 51.5113 L1780.47 51.5113 L1780.47 19.2256 M1778.32 12.096 L1788.61 12.096 L1788.61 51.5113 L1797.24 51.5113 L1797.24 58.3168 L1788.61 58.3168 L1788.61 72.576 L1780.47 72.576 L1780.47 58.3168 L1753.17 58.3168 L1753.17 50.4176 L1778.32 12.096 Z" fill="#000000" fill-rule="evenodd" fill-opacity="1" /><path clip-path="url(#clip830)" d="M1811.01 71.3202 L1811.01 63.8666 Q1814.09 65.3249 1817.25 66.0946 Q1820.41 66.8642 1823.45 66.8642 Q1831.55 66.8642 1835.8 61.436 Q1840.1 55.9673 1840.71 44.8678 Q1838.36 48.3516 1834.75 50.215 Q1831.15 52.0784 1826.77 52.0784 Q1817.7 52.0784 1812.39 46.6097 Q1807.12 41.1005 1807.12 31.5808 Q1807.12 22.2638 1812.63 16.633 Q1818.14 11.0023 1827.3 11.0023 Q1837.79 11.0023 1843.3 19.0636 Q1848.85 27.0843 1848.85 42.3968 Q1848.85 56.6965 1842.04 65.2439 Q1835.28 73.7508 1823.81 73.7508 Q1820.74 73.7508 1817.58 73.1431 Q1814.42 72.5355 1811.01 71.3202 M1827.3 45.678 Q1832.81 45.678 1836.01 41.9107 Q1839.25 38.1433 1839.25 31.5808 Q1839.25 25.0589 1836.01 21.2916 Q1832.81 17.4837 1827.3 17.4837 Q1821.79 17.4837 1818.55 21.2916 Q1815.35 25.0589 1815.35 31.5808 Q1815.35 38.1433 1818.55 41.9107 Q1821.79 45.678 1827.3 45.678 Z" fill="#000000" fill-rule="evenodd" fill-opacity="1" /><polyline clip-path="url(#clip832)" style="stroke:#009af9; stroke-linecap:butt; stroke-linejoin:round; stroke-width:16; stroke-opacity:1; fill:none" points="
  203.964,160.256 209.21,197.944 214.456,233.81 219.702,267.976 224.948,300.553 237.075,370.329 249.203,433.254 261.33,490.242 273.457,542.053 297.711,632.605 
  321.965,708.943 346.22,774.016 370.474,830.026 394.728,878.648 418.982,921.178 448.134,965.653 477.285,1004.16 506.437,1037.75 535.589,1067.26 584.883,1109.66 
  634.178,1144.6 687.726,1176.07 741.273,1202.29 790.64,1222.8 840.006,1240.48 945.858,1271.03 1068.5,1297.44 1177.48,1315.31 1273.06,1327.89 1377.26,1339.11 
  1482.08,1348.37 1597.97,1356.81 1708.23,1363.45 1822.89,1369.22 1919.4,1373.36 2037.23,1377.7 2147.99,1381.17 2325.45,1385.78 2352.76,1386.4 
  "/>
<polyline clip-path="url(#clip832)" style="stroke:#e26f46; stroke-linecap:butt; stroke-linejoin:round; stroke-width:16; stroke-opacity:1; fill:none" points="
  203.964,1343.8 224.948,1343.8 418.982,1343.8 535.589,1343.8 634.178,1343.8 741.273,1343.8 840.006,1343.8 945.858,1343.8 1068.5,1343.8 1177.48,1343.8 
  1273.06,1343.8 1377.26,1343.8 1482.08,1343.8 1597.97,1343.8 1708.23,1343.8 1822.89,1343.8 1919.4,1343.8 2037.23,1343.8 2147.99,1343.8 2325.45,1343.8 
  2352.76,1343.8 
  "/>
<circle clip-path="url(#clip832)" cx="1427.78" cy="1386.4" r="14" fill="#3da44d" fill-rule="evenodd" fill-opacity="1" stroke="#000000" stroke-opacity="1" stroke-width="3.2"/>
<path clip-path="url(#clip830)" d="
M1989.37 374.156 L2281.13 374.156 L2281.13 166.796 L1989.37 166.796  Z
  " fill="#ffffff" fill-rule="evenodd" fill-opacity="1"/>
<polyline clip-path="url(#clip830)" style="stroke:#000000; stroke-linecap:butt; stroke-linejoin:round; stroke-width:4; stroke-opacity:1; fill:none" points="
  1989.37,374.156 2281.13,374.156 2281.13,166.796 1989.37,166.796 1989.37,374.156 
  "/>
<polyline clip-path="url(#clip830)" style="stroke:#009af9; stroke-linecap:butt; stroke-linejoin:round; stroke-width:4; stroke-opacity:1; fill:none" points="
  2013.24,218.636 2156.49,218.636 
  "/>
<path clip-path="url(#clip830)" d="M2194.21 238.323 Q2192.41 242.953 2190.69 244.365 Q2188.98 245.777 2186.11 245.777 L2182.71 245.777 L2182.71 242.212 L2185.21 242.212 Q2186.97 242.212 2187.94 241.379 Q2188.91 240.545 2190.09 237.443 L2190.86 235.499 L2180.37 209.99 L2184.88 209.99 L2192.99 230.268 L2201.09 209.99 L2205.6 209.99 L2194.21 238.323 Z" fill="#000000" fill-rule="evenodd" fill-opacity="1" /><path clip-path="url(#clip830)" d="M2212.89 231.981 L2220.53 231.981 L2220.53 205.615 L2212.22 207.282 L2212.22 203.022 L2220.49 201.356 L2225.16 201.356 L2225.16 231.981 L2232.8 231.981 L2232.8 235.916 L2212.89 235.916 L2212.89 231.981 Z" fill="#000000" fill-rule="evenodd" fill-opacity="1" /><polyline clip-path="url(#clip830)" style="stroke:#e26f46; stroke-linecap:butt; stroke-linejoin:round; stroke-width:4; stroke-opacity:1; fill:none" points="
  2013.24,270.476 2156.49,270.476 
  "/>
<path clip-path="url(#clip830)" d="M2194.21 290.163 Q2192.41 294.793 2190.69 296.205 Q2188.98 297.617 2186.11 297.617 L2182.71 297.617 L2182.71 294.052 L2185.21 294.052 Q2186.97 294.052 2187.94 293.219 Q2188.91 292.385 2190.09 289.283 L2190.86 287.339 L2180.37 261.83 L2184.88 261.83 L2192.99 282.108 L2201.09 261.83 L2205.6 261.83 L2194.21 290.163 Z" fill="#000000" fill-rule="evenodd" fill-opacity="1" /><path clip-path="url(#clip830)" d="M2216.11 283.821 L2232.43 283.821 L2232.43 287.756 L2210.49 287.756 L2210.49 283.821 Q2213.15 281.066 2217.73 276.436 Q2222.34 271.784 2223.52 270.441 Q2225.76 267.918 2226.64 266.182 Q2227.55 264.423 2227.55 262.733 Q2227.55 259.978 2225.6 258.242 Q2223.68 256.506 2220.58 256.506 Q2218.38 256.506 2215.92 257.27 Q2213.49 258.034 2210.72 259.585 L2210.72 254.862 Q2213.54 253.728 2215.99 253.149 Q2218.45 252.571 2220.49 252.571 Q2225.86 252.571 2229.05 255.256 Q2232.24 257.941 2232.24 262.432 Q2232.24 264.561 2231.43 266.483 Q2230.65 268.381 2228.54 270.973 Q2227.96 271.645 2224.86 274.862 Q2221.76 278.057 2216.11 283.821 Z" fill="#000000" fill-rule="evenodd" fill-opacity="1" /><circle clip-path="url(#clip830)" cx="2084.87" cy="322.316" r="23" fill="#3da44d" fill-rule="evenodd" fill-opacity="1" stroke="#000000" stroke-opacity="1" stroke-width="5.12"/>
<path clip-path="url(#clip830)" d="M2194.21 342.003 Q2192.41 346.633 2190.69 348.045 Q2188.98 349.457 2186.11 349.457 L2182.71 349.457 L2182.71 345.892 L2185.21 345.892 Q2186.97 345.892 2187.94 345.059 Q2188.91 344.225 2190.09 341.123 L2190.86 339.179 L2180.37 313.67 L2184.88 313.67 L2192.99 333.948 L2201.09 313.67 L2205.6 313.67 L2194.21 342.003 Z" fill="#000000" fill-rule="evenodd" fill-opacity="1" /><path clip-path="url(#clip830)" d="M2226.25 320.962 Q2229.61 321.679 2231.48 323.948 Q2233.38 326.216 2233.38 329.549 Q2233.38 334.665 2229.86 337.466 Q2226.34 340.267 2219.86 340.267 Q2217.68 340.267 2215.37 339.827 Q2213.08 339.411 2210.62 338.554 L2210.62 334.04 Q2212.57 335.174 2214.88 335.753 Q2217.2 336.332 2219.72 336.332 Q2224.12 336.332 2226.41 334.596 Q2228.73 332.86 2228.73 329.549 Q2228.73 326.494 2226.57 324.781 Q2224.44 323.045 2220.62 323.045 L2216.6 323.045 L2216.6 319.202 L2220.81 319.202 Q2224.26 319.202 2226.09 317.837 Q2227.92 316.448 2227.92 313.855 Q2227.92 311.193 2226.02 309.781 Q2224.14 308.346 2220.62 308.346 Q2218.7 308.346 2216.5 308.763 Q2214.3 309.179 2211.67 310.059 L2211.67 305.892 Q2214.33 305.151 2216.64 304.781 Q2218.98 304.411 2221.04 304.411 Q2226.36 304.411 2229.47 306.841 Q2232.57 309.249 2232.57 313.369 Q2232.57 316.239 2230.92 318.23 Q2229.28 320.198 2226.25 320.962 Z" fill="#000000" fill-rule="evenodd" fill-opacity="1" /></svg>
