<?xml version="1.0" encoding="utf-8"?>
<svg xmlns="http://www.w3.org/2000/svg" xmlns:xlink="http://www.w3.org/1999/xlink" width="600" height="400" viewBox="0 0 2400 1600">
<defs>
  <clipPath id="clip840">
    <rect x="0" y="0" width="2400" height="1600"/>
  </clipPath>
</defs>
<path clip-path="url(#clip840)" d="
M0 1600 L2400 1600 L2400 0 L0 0  Z
  " fill="#ffffff" fill-rule="evenodd" fill-opacity="1"/>
<defs>
  <clipPath id="clip841">
    <rect x="480" y="0" width="1681" height="1600"/>
  </clipPath>
</defs>
<path clip-path="url(#clip840)" d="
M193.936 1486.45 L1152.76 1486.45 L1152.76 47.2441 L193.936 47.2441  Z
  " fill="#ffffff" fill-rule="evenodd" fill-opacity="1"/>
<defs>
  <clipPath id="clip842">
    <rect x="193" y="47" width="960" height="1440"/>
  </clipPath>
</defs>
<polyline clip-path="url(#clip842)" style="stroke:#000000; stroke-linecap:butt; stroke-linejoin:round; stroke-width:2; stroke-opacity:0.1; fill:none" points="
  220.464,1486.45 220.464,47.2441 
  "/>
<polyline clip-path="url(#clip842)" style="stroke:#000000; stroke-linecap:butt; stroke-linejoin:round; stroke-width:2; stroke-opacity:0.1; fill:none" points="
  390.177,1486.45 390.177,47.2441 
  "/>
<polyline clip-path="url(#clip842)" style="stroke:#000000; stroke-linecap:butt; stroke-linejoin:round; stroke-width:2; stroke-opacity:0.1; fill:none" points="
  559.89,1486.45 559.89,47.2441 
  "/>
<polyline clip-path="url(#clip842)" style="stroke:#000000; stroke-linecap:butt; stroke-linejoin:round; stroke-width:2; stroke-opacity:0.1; fill:none" points="
  729.602,1486.45 729.602,47.2441 
  "/>
<polyline clip-path="url(#clip842)" style="stroke:#000000; stroke-linecap:butt; stroke-linejoin:round; stroke-width:2; stroke-opacity:0.1; fill:none" points="
  899.315,1486.45 899.315,47.2441 
  "/>
<polyline clip-path="url(#clip842)" style="stroke:#000000; stroke-linecap:butt; stroke-linejoin:round; stroke-width:2; stroke-opacity:0.1; fill:none" points="
  1069.03,1486.45 1069.03,47.2441 
  "/>
<polyline clip-path="url(#clip840)" style="stroke:#000000; stroke-linecap:butt; stroke-linejoin:round; stroke-width:4; stroke-opacity:1; fill:none" points="
  193.936,1486.45 1152.76,1486.45 
  "/>
<polyline clip-path="url(#clip840)" style="stroke:#000000; stroke-linecap:butt; stroke-linejoin:round; stroke-width:4; stroke-opacity:1; fill:none" points="
  220.464,1486.45 220.464,1467.55 
  "/>
<polyline clip-path="url(#clip840)" style="stroke:#000000; stroke-linecap:butt; stroke-linejoin:round; stroke-width:4; stroke-opacity:1; fill:none" points="
  390.177,1486.45 390.177,1467.55 
  "/>
<polyline clip-path="url(#clip840)" style="stroke:#000000; stroke-linecap:butt; stroke-linejoin:round; stroke-width:4; stroke-opacity:1; fill:none" points="
  559.89,1486.45 559.89,1467.55 
  "/>
<polyline clip-path="url(#clip840)" style="stroke:#000000; stroke-linecap:butt; stroke-linejoin:round; stroke-width:4; stroke-opacity:1; fill:none" points="
  729.602,1486.45 729.602,1467.55 
  "/>
<polyline clip-path="url(#clip840)" style="stroke:#000000; stroke-linecap:butt; stroke-linejoin:round; stroke-width:4; stroke-opacity:1; fill:none" points="
  899.315,1486.45 899.315,1467.55 
  "/>
<polyline clip-path="url(#clip840)" style="stroke:#000000; stroke-linecap:butt; stroke-linejoin:round; stroke-width:4; stroke-opacity:1; fill:none" points="
  1069.03,1486.45 1069.03,1467.55 
  "/>
<path clip-path="url(#clip840)" d="M166.992 1532.02 L196.668 1532.02 L196.668 1535.95 L166.992 1535.95 L166.992 1532.02 Z" fill="#000000" fill-rule="evenodd" fill-opacity="1" /><path clip-path="url(#clip840)" d="M207.571 1544.91 L215.209 1544.91 L215.209 1518.55 L206.899 1520.21 L206.899 1515.95 L215.163 1514.29 L219.839 1514.29 L219.839 1544.91 L227.478 1544.91 L227.478 1548.85 L207.571 1548.85 L207.571 1544.91 Z" fill="#000000" fill-rule="evenodd" fill-opacity="1" /><path clip-path="url(#clip840)" d="M236.922 1542.97 L241.807 1542.97 L241.807 1548.85 L236.922 1548.85 L236.922 1542.97 Z" fill="#000000" fill-rule="evenodd" fill-opacity="1" /><path clip-path="url(#clip840)" d="M261.992 1517.37 Q258.381 1517.37 256.552 1520.93 Q254.746 1524.47 254.746 1531.6 Q254.746 1538.71 256.552 1542.27 Q258.381 1545.82 261.992 1545.82 Q265.626 1545.82 267.431 1542.27 Q269.26 1538.71 269.26 1531.6 Q269.26 1524.47 267.431 1520.93 Q265.626 1517.37 261.992 1517.37 M261.992 1513.66 Q267.802 1513.66 270.857 1518.27 Q273.936 1522.85 273.936 1531.6 Q273.936 1540.33 270.857 1544.94 Q267.802 1549.52 261.992 1549.52 Q256.181 1549.52 253.103 1544.94 Q250.047 1540.33 250.047 1531.6 Q250.047 1522.85 253.103 1518.27 Q256.181 1513.66 261.992 1513.66 Z" fill="#000000" fill-rule="evenodd" fill-opacity="1" /><path clip-path="url(#clip840)" d="M337.203 1532.02 L366.878 1532.02 L366.878 1535.95 L337.203 1535.95 L337.203 1532.02 Z" fill="#000000" fill-rule="evenodd" fill-opacity="1" /><path clip-path="url(#clip840)" d="M386.971 1517.37 Q383.36 1517.37 381.531 1520.93 Q379.725 1524.47 379.725 1531.6 Q379.725 1538.71 381.531 1542.27 Q383.36 1545.82 386.971 1545.82 Q390.605 1545.82 392.411 1542.27 Q394.239 1538.71 394.239 1531.6 Q394.239 1524.47 392.411 1520.93 Q390.605 1517.37 386.971 1517.37 M386.971 1513.66 Q392.781 1513.66 395.836 1518.27 Q398.915 1522.85 398.915 1531.6 Q398.915 1540.33 395.836 1544.94 Q392.781 1549.52 386.971 1549.52 Q381.161 1549.52 378.082 1544.94 Q375.026 1540.33 375.026 1531.6 Q375.026 1522.85 378.082 1518.27 Q381.161 1513.66 386.971 1513.66 Z" fill="#000000" fill-rule="evenodd" fill-opacity="1" /><path clip-path="url(#clip840)" d="M407.133 1542.97 L412.017 1542.97 L412.017 1548.85 L407.133 1548.85 L407.133 1542.97 Z" fill="#000000" fill-rule="evenodd" fill-opacity="1" /><path clip-path="url(#clip840)" d="M422.248 1514.29 L440.605 1514.29 L440.605 1518.22 L426.531 1518.22 L426.531 1526.7 Q427.549 1526.35 428.568 1526.19 Q429.586 1526 430.605 1526 Q436.392 1526 439.771 1529.17 Q443.151 1532.34 443.151 1537.76 Q443.151 1543.34 439.679 1546.44 Q436.207 1549.52 429.887 1549.52 Q427.711 1549.52 425.443 1549.15 Q423.197 1548.78 420.79 1548.04 L420.79 1543.34 Q422.873 1544.47 425.096 1545.03 Q427.318 1545.58 429.795 1545.58 Q433.799 1545.58 436.137 1543.48 Q438.475 1541.37 438.475 1537.76 Q438.475 1534.15 436.137 1532.04 Q433.799 1529.94 429.795 1529.94 Q427.92 1529.94 426.045 1530.35 Q424.193 1530.77 422.248 1531.65 L422.248 1514.29 Z" fill="#000000" fill-rule="evenodd" fill-opacity="1" /><path clip-path="url(#clip840)" d="M537.274 1517.37 Q533.663 1517.37 531.834 1520.93 Q530.029 1524.47 530.029 1531.6 Q530.029 1538.71 531.834 1542.27 Q533.663 1545.82 537.274 1545.82 Q540.908 1545.82 542.714 1542.27 Q544.542 1538.71 544.542 1531.6 Q544.542 1524.47 542.714 1520.93 Q540.908 1517.37 537.274 1517.37 M537.274 1513.66 Q543.084 1513.66 546.14 1518.27 Q549.218 1522.85 549.218 1531.6 Q549.218 1540.33 546.14 1544.94 Q543.084 1549.52 537.274 1549.52 Q531.464 1549.52 528.385 1544.94 Q525.33 1540.33 525.33 1531.6 Q525.33 1522.85 528.385 1518.27 Q531.464 1513.66 537.274 1513.66 Z" fill="#000000" fill-rule="evenodd" fill-opacity="1" /><path clip-path="url(#clip840)" d="M557.436 1542.97 L562.32 1542.97 L562.32 1548.85 L557.436 1548.85 L557.436 1542.97 Z" fill="#000000" fill-rule="evenodd" fill-opacity="1" /><path clip-path="url(#clip840)" d="M582.505 1517.37 Q578.894 1517.37 577.065 1520.93 Q575.26 1524.47 575.26 1531.6 Q575.26 1538.71 577.065 1542.27 Q578.894 1545.82 582.505 1545.82 Q586.139 1545.82 587.945 1542.27 Q589.774 1538.71 589.774 1531.6 Q589.774 1524.47 587.945 1520.93 Q586.139 1517.37 582.505 1517.37 M582.505 1513.66 Q588.315 1513.66 591.371 1518.27 Q594.45 1522.85 594.45 1531.6 Q594.45 1540.33 591.371 1544.94 Q588.315 1549.52 582.505 1549.52 Q576.695 1549.52 573.616 1544.94 Q570.561 1540.33 570.561 1531.6 Q570.561 1522.85 573.616 1518.27 Q576.695 1513.66 582.505 1513.66 Z" fill="#000000" fill-rule="evenodd" fill-opacity="1" /><path clip-path="url(#clip840)" d="M707.484 1517.37 Q703.873 1517.37 702.045 1520.93 Q700.239 1524.47 700.239 1531.6 Q700.239 1538.71 702.045 1542.27 Q703.873 1545.82 707.484 1545.82 Q711.119 1545.82 712.924 1542.27 Q714.753 1538.71 714.753 1531.6 Q714.753 1524.47 712.924 1520.93 Q711.119 1517.37 707.484 1517.37 M707.484 1513.66 Q713.294 1513.66 716.35 1518.27 Q719.429 1522.85 719.429 1531.6 Q719.429 1540.33 716.35 1544.94 Q713.294 1549.52 707.484 1549.52 Q701.674 1549.52 698.595 1544.94 Q695.54 1540.33 695.54 1531.6 Q695.54 1522.85 698.595 1518.27 Q701.674 1513.66 707.484 1513.66 Z" fill="#000000" fill-rule="evenodd" fill-opacity="1" /><path clip-path="url(#clip840)" d="M727.646 1542.97 L732.53 1542.97 L732.53 1548.85 L727.646 1548.85 L727.646 1542.97 Z" fill="#000000" fill-rule="evenodd" fill-opacity="1" /><path clip-path="url(#clip840)" d="M742.762 1514.29 L761.118 1514.29 L761.118 1518.22 L747.044 1518.22 L747.044 1526.7 Q748.063 1526.35 749.081 1526.19 Q750.1 1526 751.118 1526 Q756.905 1526 760.285 1529.17 Q763.665 1532.34 763.665 1537.76 Q763.665 1543.34 760.192 1546.44 Q756.72 1549.52 750.401 1549.52 Q748.225 1549.52 745.956 1549.15 Q743.711 1548.78 741.304 1548.04 L741.304 1543.34 Q743.387 1544.47 745.609 1545.03 Q747.831 1545.58 750.308 1545.58 Q754.313 1545.58 756.651 1543.48 Q758.989 1541.37 758.989 1537.76 Q758.989 1534.15 756.651 1532.04 Q754.313 1529.94 750.308 1529.94 Q748.433 1529.94 746.558 1530.35 Q744.706 1530.77 742.762 1531.65 L742.762 1514.29 Z" fill="#000000" fill-rule="evenodd" fill-opacity="1" /><path clip-path="url(#clip840)" d="M866.468 1544.91 L874.107 1544.91 L874.107 1518.55 L865.797 1520.21 L865.797 1515.95 L874.06 1514.29 L878.736 1514.29 L878.736 1544.91 L886.375 1544.91 L886.375 1548.85 L866.468 1548.85 L866.468 1544.91 Z" fill="#000000" fill-rule="evenodd" fill-opacity="1" /><path clip-path="url(#clip840)" d="M895.82 1542.97 L900.704 1542.97 L900.704 1548.85 L895.82 1548.85 L895.82 1542.97 Z" fill="#000000" fill-rule="evenodd" fill-opacity="1" /><path clip-path="url(#clip840)" d="M920.889 1517.37 Q917.278 1517.37 915.449 1520.93 Q913.644 1524.47 913.644 1531.6 Q913.644 1538.71 915.449 1542.27 Q917.278 1545.82 920.889 1545.82 Q924.523 1545.82 926.329 1542.27 Q928.157 1538.71 928.157 1531.6 Q928.157 1524.47 926.329 1520.93 Q924.523 1517.37 920.889 1517.37 M920.889 1513.66 Q926.699 1513.66 929.755 1518.27 Q932.833 1522.85 932.833 1531.6 Q932.833 1540.33 929.755 1544.94 Q926.699 1549.52 920.889 1549.52 Q915.079 1549.52 912 1544.94 Q908.945 1540.33 908.945 1531.6 Q908.945 1522.85 912 1518.27 Q915.079 1513.66 920.889 1513.66 Z" fill="#000000" fill-rule="evenodd" fill-opacity="1" /><path clip-path="url(#clip840)" d="M1036.68 1544.91 L1044.32 1544.91 L1044.32 1518.55 L1036.01 1520.21 L1036.01 1515.95 L1044.27 1514.29 L1048.95 1514.29 L1048.95 1544.91 L1056.59 1544.91 L1056.59 1548.85 L1036.68 1548.85 L1036.68 1544.91 Z" fill="#000000" fill-rule="evenodd" fill-opacity="1" /><path clip-path="url(#clip840)" d="M1066.03 1542.97 L1070.91 1542.97 L1070.91 1548.85 L1066.03 1548.85 L1066.03 1542.97 Z" fill="#000000" fill-rule="evenodd" fill-opacity="1" /><path clip-path="url(#clip840)" d="M1081.15 1514.29 L1099.5 1514.29 L1099.5 1518.22 L1085.43 1518.22 L1085.43 1526.7 Q1086.45 1526.35 1087.47 1526.19 Q1088.48 1526 1089.5 1526 Q1095.29 1526 1098.67 1529.17 Q1102.05 1532.34 1102.05 1537.76 Q1102.05 1543.34 1098.58 1546.44 Q1095.1 1549.52 1088.78 1549.52 Q1086.61 1549.52 1084.34 1549.15 Q1082.09 1548.78 1079.69 1548.04 L1079.69 1543.34 Q1081.77 1544.47 1083.99 1545.03 Q1086.22 1545.58 1088.69 1545.58 Q1092.7 1545.58 1095.03 1543.48 Q1097.37 1541.37 1097.37 1537.76 Q1097.37 1534.15 1095.03 1532.04 Q1092.7 1529.94 1088.69 1529.94 Q1086.82 1529.94 1084.94 1530.35 Q1083.09 1530.77 1081.15 1531.65 L1081.15 1514.29 Z" fill="#000000" fill-rule="evenodd" fill-opacity="1" /><polyline clip-path="url(#clip842)" style="stroke:#000000; stroke-linecap:butt; stroke-linejoin:round; stroke-width:2; stroke-opacity:0.1; fill:none" points="
  193.936,1483.14 1152.76,1483.14 
  "/>
<polyline clip-path="url(#clip842)" style="stroke:#000000; stroke-linecap:butt; stroke-linejoin:round; stroke-width:2; stroke-opacity:0.1; fill:none" points="
  193.936,1143.72 1152.76,1143.72 
  "/>
<polyline clip-path="url(#clip842)" style="stroke:#000000; stroke-linecap:butt; stroke-linejoin:round; stroke-width:2; stroke-opacity:0.1; fill:none" points="
  193.936,804.294 1152.76,804.294 
  "/>
<polyline clip-path="url(#clip842)" style="stroke:#000000; stroke-linecap:butt; stroke-linejoin:round; stroke-width:2; stroke-opacity:0.1; fill:none" points="
  193.936,464.868 1152.76,464.868 
  "/>
<polyline clip-path="url(#clip842)" style="stroke:#000000; stroke-linecap:butt; stroke-linejoin:round; stroke-width:2; stroke-opacity:0.1; fill:none" points="
  193.936,125.443 1152.76,125.443 
  "/>
<polyline clip-path="url(#clip840)" style="stroke:#000000; stroke-linecap:butt; stroke-linejoin:round; stroke-width:4; stroke-opacity:1; fill:none" points="
  193.936,1486.45 193.936,47.2441 
  "/>
<polyline clip-path="url(#clip840)" style="stroke:#000000; stroke-linecap:butt; stroke-linejoin:round; stroke-width:4; stroke-opacity:1; fill:none" points="
  193.936,1483.14 212.834,1483.14 
  "/>
<polyline clip-path="url(#clip840)" style="stroke:#000000; stroke-linecap:butt; stroke-linejoin:round; stroke-width:4; stroke-opacity:1; fill:none" points="
  193.936,1143.72 212.834,1143.72 
  "/>
<polyline clip-path="url(#clip840)" style="stroke:#000000; stroke-linecap:butt; stroke-linejoin:round; stroke-width:4; stroke-opacity:1; fill:none" points="
  193.936,804.294 212.834,804.294 
  "/>
<polyline clip-path="url(#clip840)" style="stroke:#000000; stroke-linecap:butt; stroke-linejoin:round; stroke-width:4; stroke-opacity:1; fill:none" points="
  193.936,464.868 212.834,464.868 
  "/>
<polyline clip-path="url(#clip840)" style="stroke:#000000; stroke-linecap:butt; stroke-linejoin:round; stroke-width:4; stroke-opacity:1; fill:none" points="
  193.936,125.443 212.834,125.443 
  "/>
<path clip-path="url(#clip840)" d="M97.8206 1483.6 L127.496 1483.6 L127.496 1487.53 L97.8206 1487.53 L97.8206 1483.6 Z" fill="#000000" fill-rule="evenodd" fill-opacity="1" /><path clip-path="url(#clip840)" d="M141.617 1496.49 L157.936 1496.49 L157.936 1500.42 L135.992 1500.42 L135.992 1496.49 Q138.654 1493.73 143.237 1489.11 Q147.843 1484.45 149.024 1483.11 Q151.269 1480.59 152.149 1478.85 Q153.052 1477.09 153.052 1475.4 Q153.052 1472.65 151.107 1470.91 Q149.186 1469.17 146.084 1469.17 Q143.885 1469.17 141.431 1469.94 Q139.001 1470.7 136.223 1472.25 L136.223 1467.53 Q139.047 1466.4 141.501 1465.82 Q143.955 1465.24 145.992 1465.24 Q151.362 1465.24 154.556 1467.92 Q157.751 1470.61 157.751 1475.1 Q157.751 1477.23 156.941 1479.15 Q156.154 1481.05 154.047 1483.64 Q153.468 1484.31 150.367 1487.53 Q147.265 1490.73 141.617 1496.49 Z" fill="#000000" fill-rule="evenodd" fill-opacity="1" /><path clip-path="url(#clip840)" d="M97.4502 1144.17 L127.126 1144.17 L127.126 1148.11 L97.4502 1148.11 L97.4502 1144.17 Z" fill="#000000" fill-rule="evenodd" fill-opacity="1" /><path clip-path="url(#clip840)" d="M138.029 1157.06 L145.668 1157.06 L145.668 1130.7 L137.357 1132.37 L137.357 1128.11 L145.621 1126.44 L150.297 1126.44 L150.297 1157.06 L157.936 1157.06 L157.936 1161 L138.029 1161 L138.029 1157.06 Z" fill="#000000" fill-rule="evenodd" fill-opacity="1" /><path clip-path="url(#clip840)" d="M145.992 790.093 Q142.381 790.093 140.552 793.657 Q138.746 797.199 138.746 804.329 Q138.746 811.435 140.552 815 Q142.381 818.541 145.992 818.541 Q149.626 818.541 151.431 815 Q153.26 811.435 153.26 804.329 Q153.26 797.199 151.431 793.657 Q149.626 790.093 145.992 790.093 M145.992 786.389 Q151.802 786.389 154.857 790.995 Q157.936 795.579 157.936 804.329 Q157.936 813.055 154.857 817.662 Q151.802 822.245 145.992 822.245 Q140.181 822.245 137.103 817.662 Q134.047 813.055 134.047 804.329 Q134.047 795.579 137.103 790.995 Q140.181 786.389 145.992 786.389 Z" fill="#000000" fill-rule="evenodd" fill-opacity="1" /><path clip-path="url(#clip840)" d="M138.029 478.213 L145.668 478.213 L145.668 451.848 L137.357 453.514 L137.357 449.255 L145.621 447.588 L150.297 447.588 L150.297 478.213 L157.936 478.213 L157.936 482.148 L138.029 482.148 L138.029 478.213 Z" fill="#000000" fill-rule="evenodd" fill-opacity="1" /><path clip-path="url(#clip840)" d="M141.617 138.788 L157.936 138.788 L157.936 142.723 L135.992 142.723 L135.992 138.788 Q138.654 136.033 143.237 131.404 Q147.843 126.751 149.024 125.408 Q151.269 122.885 152.149 121.149 Q153.052 119.39 153.052 117.7 Q153.052 114.945 151.107 113.209 Q149.186 111.473 146.084 111.473 Q143.885 111.473 141.431 112.237 Q139.001 113.001 136.223 114.552 L136.223 109.83 Q139.047 108.695 141.501 108.117 Q143.955 107.538 145.992 107.538 Q151.362 107.538 154.556 110.223 Q157.751 112.908 157.751 117.399 Q157.751 119.529 156.941 121.45 Q156.154 123.348 154.047 125.941 Q153.468 126.612 150.367 129.83 Q147.265 133.024 141.617 138.788 Z" fill="#000000" fill-rule="evenodd" fill-opacity="1" /><circle clip-path="url(#clip842)" cx="899.315" cy="804.294" r="14" fill="#009af9" fill-rule="evenodd" fill-opacity="1" stroke="#000000" stroke-opacity="1" stroke-width="3.2"/>
<circle clip-path="url(#clip842)" cx="998.294" cy="747.768" r="14" fill="#009af9" fill-rule="evenodd" fill-opacity="1" stroke="#000000" stroke-opacity="1" stroke-width="3.2"/>
<circle clip-path="url(#clip842)" cx="1076.25" cy="668.889" r="14" fill="#009af9" fill-rule="evenodd" fill-opacity="1" stroke="#000000" stroke-opacity="1" stroke-width="3.2"/>
<circle clip-path="url(#clip842)" cx="1120.91" cy="577.162" r="14" fill="#009af9" fill-rule="evenodd" fill-opacity="1" stroke="#000000" stroke-opacity="1" stroke-width="3.2"/>
<circle clip-path="url(#clip842)" cx="1125.62" cy="485.681" r="14" fill="#009af9" fill-rule="evenodd" fill-opacity="1" stroke="#000000" stroke-opacity="1" stroke-width="3.2"/>
<circle clip-path="url(#clip842)" cx="1090.49" cy="408.297" r="14" fill="#009af9" fill-rule="evenodd" fill-opacity="1" stroke="#000000" stroke-opacity="1" stroke-width="3.2"/>
<circle clip-path="url(#clip842)" cx="1022.14" cy="356.633" r="14" fill="#009af9" fill-rule="evenodd" fill-opacity="1" stroke="#000000" stroke-opacity="1" stroke-width="3.2"/>
<circle clip-path="url(#clip842)" cx="932.04" cy="337.632" r="14" fill="#009af9" fill-rule="evenodd" fill-opacity="1" stroke="#000000" stroke-opacity="1" stroke-width="3.2"/>
<circle clip-path="url(#clip842)" cx="833.956" cy="352.193" r="14" fill="#009af9" fill-rule="evenodd" fill-opacity="1" stroke="#000000" stroke-opacity="1" stroke-width="3.2"/>
<circle clip-path="url(#clip842)" cx="740.991" cy="395.181" r="14" fill="#009af9" fill-rule="evenodd" fill-opacity="1" stroke="#000000" stroke-opacity="1" stroke-width="3.2"/>
<circle clip-path="url(#clip842)" cx="663.035" cy="456.761" r="14" fill="#009af9" fill-rule="evenodd" fill-opacity="1" stroke="#000000" stroke-opacity="1" stroke-width="3.2"/>
<circle clip-path="url(#clip842)" cx="605.092" cy="524.699" r="14" fill="#009af9" fill-rule="evenodd" fill-opacity="1" stroke="#000000" stroke-opacity="1" stroke-width="3.2"/>
<circle clip-path="url(#clip842)" cx="566.855" cy="587.075" r="14" fill="#009af9" fill-rule="evenodd" fill-opacity="1" stroke="#000000" stroke-opacity="1" stroke-width="3.2"/>
<circle clip-path="url(#clip842)" cx="543.533" cy="634.744" r="14" fill="#009af9" fill-rule="evenodd" fill-opacity="1" stroke="#000000" stroke-opacity="1" stroke-width="3.2"/>
<circle clip-path="url(#clip842)" cx="527.643" cy="663.014" r="14" fill="#009af9" fill-rule="evenodd" fill-opacity="1" stroke="#000000" stroke-opacity="1" stroke-width="3.2"/>
<circle clip-path="url(#clip842)" cx="511.267" cy="672.171" r="14" fill="#009af9" fill-rule="evenodd" fill-opacity="1" stroke="#000000" stroke-opacity="1" stroke-width="3.2"/>
<circle clip-path="url(#clip842)" cx="488.182" cy="666.843" r="14" fill="#009af9" fill-rule="evenodd" fill-opacity="1" stroke="#000000" stroke-opacity="1" stroke-width="3.2"/>
<circle clip-path="url(#clip842)" cx="455.341" cy="654.415" r="14" fill="#009af9" fill-rule="evenodd" fill-opacity="1" stroke="#000000" stroke-opacity="1" stroke-width="3.2"/>
<circle clip-path="url(#clip842)" cx="413.384" cy="642.975" r="14" fill="#009af9" fill-rule="evenodd" fill-opacity="1" stroke="#000000" stroke-opacity="1" stroke-width="3.2"/>
<circle clip-path="url(#clip842)" cx="366.114" cy="639.33" r="14" fill="#009af9" fill-rule="evenodd" fill-opacity="1" stroke="#000000" stroke-opacity="1" stroke-width="3.2"/>
<circle clip-path="url(#clip842)" cx="319.165" cy="647.6" r="14" fill="#009af9" fill-rule="evenodd" fill-opacity="1" stroke="#000000" stroke-opacity="1" stroke-width="3.2"/>
<circle clip-path="url(#clip842)" cx="278.276" cy="668.676" r="14" fill="#009af9" fill-rule="evenodd" fill-opacity="1" stroke="#000000" stroke-opacity="1" stroke-width="3.2"/>
<circle clip-path="url(#clip842)" cx="247.677" cy="700.632" r="14" fill="#009af9" fill-rule="evenodd" fill-opacity="1" stroke="#000000" stroke-opacity="1" stroke-width="3.2"/>
<circle clip-path="url(#clip842)" cx="229.038" cy="739.86" r="14" fill="#009af9" fill-rule="evenodd" fill-opacity="1" stroke="#000000" stroke-opacity="1" stroke-width="3.2"/>
<circle clip-path="url(#clip842)" cx="221.25" cy="782.553" r="14" fill="#009af9" fill-rule="evenodd" fill-opacity="1" stroke="#000000" stroke-opacity="1" stroke-width="3.2"/>
<circle clip-path="url(#clip842)" cx="221.072" cy="826.047" r="14" fill="#009af9" fill-rule="evenodd" fill-opacity="1" stroke="#000000" stroke-opacity="1" stroke-width="3.2"/>
<circle clip-path="url(#clip842)" cx="224.409" cy="869.629" r="14" fill="#009af9" fill-rule="evenodd" fill-opacity="1" stroke="#000000" stroke-opacity="1" stroke-width="3.2"/>
<circle clip-path="url(#clip842)" cx="227.835" cy="914.544" r="14" fill="#009af9" fill-rule="evenodd" fill-opacity="1" stroke="#000000" stroke-opacity="1" stroke-width="3.2"/>
<circle clip-path="url(#clip842)" cx="229.88" cy="963.218" r="14" fill="#009af9" fill-rule="evenodd" fill-opacity="1" stroke="#000000" stroke-opacity="1" stroke-width="3.2"/>
<circle clip-path="url(#clip842)" cx="231.677" cy="1017.94" r="14" fill="#009af9" fill-rule="evenodd" fill-opacity="1" stroke="#000000" stroke-opacity="1" stroke-width="3.2"/>
<circle clip-path="url(#clip842)" cx="236.757" cy="1079.38" r="14" fill="#009af9" fill-rule="evenodd" fill-opacity="1" stroke="#000000" stroke-opacity="1" stroke-width="3.2"/>
<circle clip-path="url(#clip842)" cx="250.003" cy="1145.51" r="14" fill="#009af9" fill-rule="evenodd" fill-opacity="1" stroke="#000000" stroke-opacity="1" stroke-width="3.2"/>
<circle clip-path="url(#clip842)" cx="276.056" cy="1211.19" r="14" fill="#009af9" fill-rule="evenodd" fill-opacity="1" stroke="#000000" stroke-opacity="1" stroke-width="3.2"/>
<circle clip-path="url(#clip842)" cx="317.603" cy="1268.71" r="14" fill="#009af9" fill-rule="evenodd" fill-opacity="1" stroke="#000000" stroke-opacity="1" stroke-width="3.2"/>
<circle clip-path="url(#clip842)" cx="374.061" cy="1309.25" r="14" fill="#009af9" fill-rule="evenodd" fill-opacity="1" stroke="#000000" stroke-opacity="1" stroke-width="3.2"/>
<circle clip-path="url(#clip842)" cx="441.077" cy="1324.84" r="14" fill="#009af9" fill-rule="evenodd" fill-opacity="1" stroke="#000000" stroke-opacity="1" stroke-width="3.2"/>
<circle clip-path="url(#clip842)" cx="511.06" cy="1310.46" r="14" fill="#009af9" fill-rule="evenodd" fill-opacity="1" stroke="#000000" stroke-opacity="1" stroke-width="3.2"/>
<circle clip-path="url(#clip842)" cx="574.682" cy="1265.58" r="14" fill="#009af9" fill-rule="evenodd" fill-opacity="1" stroke="#000000" stroke-opacity="1" stroke-width="3.2"/>
<circle clip-path="url(#clip842)" cx="623.031" cy="1194.85" r="14" fill="#009af9" fill-rule="evenodd" fill-opacity="1" stroke="#000000" stroke-opacity="1" stroke-width="3.2"/>
<circle clip-path="url(#clip842)" cx="649.895" cy="1107.55" r="14" fill="#009af9" fill-rule="evenodd" fill-opacity="1" stroke="#000000" stroke-opacity="1" stroke-width="3.2"/>
<circle clip-path="url(#clip842)" cx="653.575" cy="1015.93" r="14" fill="#009af9" fill-rule="evenodd" fill-opacity="1" stroke="#000000" stroke-opacity="1" stroke-width="3.2"/>
<circle clip-path="url(#clip842)" cx="637.734" cy="932.707" r="14" fill="#009af9" fill-rule="evenodd" fill-opacity="1" stroke="#000000" stroke-opacity="1" stroke-width="3.2"/>
<circle clip-path="url(#clip842)" cx="610.996" cy="868.379" r="14" fill="#009af9" fill-rule="evenodd" fill-opacity="1" stroke="#000000" stroke-opacity="1" stroke-width="3.2"/>
<circle clip-path="url(#clip842)" cx="585.295" cy="828.898" r="14" fill="#009af9" fill-rule="evenodd" fill-opacity="1" stroke="#000000" stroke-opacity="1" stroke-width="3.2"/>
<circle clip-path="url(#clip842)" cx="573.331" cy="814.325" r="14" fill="#009af9" fill-rule="evenodd" fill-opacity="1" stroke="#000000" stroke-opacity="1" stroke-width="3.2"/>
<circle clip-path="url(#clip842)" cx="585.655" cy="818.805" r="14" fill="#009af9" fill-rule="evenodd" fill-opacity="1" stroke="#000000" stroke-opacity="1" stroke-width="3.2"/>
<circle clip-path="url(#clip842)" cx="628.107" cy="831.912" r="14" fill="#009af9" fill-rule="evenodd" fill-opacity="1" stroke="#000000" stroke-opacity="1" stroke-width="3.2"/>
<circle clip-path="url(#clip842)" cx="700.181" cy="841.083" r="14" fill="#009af9" fill-rule="evenodd" fill-opacity="1" stroke="#000000" stroke-opacity="1" stroke-width="3.2"/>
<circle clip-path="url(#clip842)" cx="794.763" cy="834.577" r="14" fill="#009af9" fill-rule="evenodd" fill-opacity="1" stroke="#000000" stroke-opacity="1" stroke-width="3.2"/>
<circle clip-path="url(#clip842)" cx="899.315" cy="804.294" r="14" fill="#009af9" fill-rule="evenodd" fill-opacity="1" stroke="#000000" stroke-opacity="1" stroke-width="3.2"/>
<circle clip-path="url(#clip842)" cx="508.368" cy="425.79" r="14" fill="#e26f46" fill-rule="evenodd" fill-opacity="1" stroke="#000000" stroke-opacity="1" stroke-width="3.2"/>
<circle clip-path="url(#clip842)" cx="472.439" cy="322.923" r="14" fill="#e26f46" fill-rule="evenodd" fill-opacity="1" stroke="#000000" stroke-opacity="1" stroke-width="3.2"/>
<circle clip-path="url(#clip842)" cx="431.436" cy="246.471" r="14" fill="#e26f46" fill-rule="evenodd" fill-opacity="1" stroke="#000000" stroke-opacity="1" stroke-width="3.2"/>
<circle clip-path="url(#clip842)" cx="390.735" cy="208.847" r="14" fill="#e26f46" fill-rule="evenodd" fill-opacity="1" stroke="#000000" stroke-opacity="1" stroke-width="3.2"/>
<circle clip-path="url(#clip842)" cx="356.189" cy="215.746" r="14" fill="#e26f46" fill-rule="evenodd" fill-opacity="1" stroke="#000000" stroke-opacity="1" stroke-width="3.2"/>
<circle clip-path="url(#clip842)" cx="332.904" cy="265.198" r="14" fill="#e26f46" fill-rule="evenodd" fill-opacity="1" stroke="#000000" stroke-opacity="1" stroke-width="3.2"/>
<circle clip-path="url(#clip842)" cx="324.173" cy="348.282" r="14" fill="#e26f46" fill-rule="evenodd" fill-opacity="1" stroke="#000000" stroke-opacity="1" stroke-width="3.2"/>
<circle clip-path="url(#clip842)" cx="330.822" cy="451.274" r="14" fill="#e26f46" fill-rule="evenodd" fill-opacity="1" stroke="#000000" stroke-opacity="1" stroke-width="3.2"/>
<circle clip-path="url(#clip842)" cx="351.095" cy="558.717" r="14" fill="#e26f46" fill-rule="evenodd" fill-opacity="1" stroke="#000000" stroke-opacity="1" stroke-width="3.2"/>
<circle clip-path="url(#clip842)" cx="381.104" cy="656.675" r="14" fill="#e26f46" fill-rule="evenodd" fill-opacity="1" stroke="#000000" stroke-opacity="1" stroke-width="3.2"/>
<circle clip-path="url(#clip842)" cx="415.71" cy="735.428" r="14" fill="#e26f46" fill-rule="evenodd" fill-opacity="1" stroke="#000000" stroke-opacity="1" stroke-width="3.2"/>
<circle clip-path="url(#clip842)" cx="449.63" cy="791.019" r="14" fill="#e26f46" fill-rule="evenodd" fill-opacity="1" stroke="#000000" stroke-opacity="1" stroke-width="3.2"/>
<circle clip-path="url(#clip842)" cx="478.501" cy="825.375" r="14" fill="#e26f46" fill-rule="evenodd" fill-opacity="1" stroke="#000000" stroke-opacity="1" stroke-width="3.2"/>
<circle clip-path="url(#clip842)" cx="499.67" cy="845.051" r="14" fill="#e26f46" fill-rule="evenodd" fill-opacity="1" stroke="#000000" stroke-opacity="1" stroke-width="3.2"/>
<circle clip-path="url(#clip842)" cx="512.537" cy="859.016" r="14" fill="#e26f46" fill-rule="evenodd" fill-opacity="1" stroke="#000000" stroke-opacity="1" stroke-width="3.2"/>
<circle clip-path="url(#clip842)" cx="518.409" cy="876.061" r="14" fill="#e26f46" fill-rule="evenodd" fill-opacity="1" stroke="#000000" stroke-opacity="1" stroke-width="3.2"/>
<circle clip-path="url(#clip842)" cx="519.943" cy="902.512" r="14" fill="#e26f46" fill-rule="evenodd" fill-opacity="1" stroke="#000000" stroke-opacity="1" stroke-width="3.2"/>
<circle clip-path="url(#clip842)" cx="520.332" cy="940.784" r="14" fill="#e26f46" fill-rule="evenodd" fill-opacity="1" stroke="#000000" stroke-opacity="1" stroke-width="3.2"/>
<circle clip-path="url(#clip842)" cx="522.47" cy="989.091" r="14" fill="#e26f46" fill-rule="evenodd" fill-opacity="1" stroke="#000000" stroke-opacity="1" stroke-width="3.2"/>
<circle clip-path="url(#clip842)" cx="528.297" cy="1042.29" r="14" fill="#e26f46" fill-rule="evenodd" fill-opacity="1" stroke="#000000" stroke-opacity="1" stroke-width="3.2"/>
<circle clip-path="url(#clip842)" cx="538.481" cy="1093.54" r="14" fill="#e26f46" fill-rule="evenodd" fill-opacity="1" stroke="#000000" stroke-opacity="1" stroke-width="3.2"/>
<circle clip-path="url(#clip842)" cx="552.482" cy="1136.34" r="14" fill="#e26f46" fill-rule="evenodd" fill-opacity="1" stroke="#000000" stroke-opacity="1" stroke-width="3.2"/>
<circle clip-path="url(#clip842)" cx="568.945" cy="1166.22" r="14" fill="#e26f46" fill-rule="evenodd" fill-opacity="1" stroke="#000000" stroke-opacity="1" stroke-width="3.2"/>
<circle clip-path="url(#clip842)" cx="586.281" cy="1181.79" r="14" fill="#e26f46" fill-rule="evenodd" fill-opacity="1" stroke="#000000" stroke-opacity="1" stroke-width="3.2"/>
<circle clip-path="url(#clip842)" cx="603.252" cy="1184.81" r="14" fill="#e26f46" fill-rule="evenodd" fill-opacity="1" stroke="#000000" stroke-opacity="1" stroke-width="3.2"/>
<circle clip-path="url(#clip842)" cx="619.363" cy="1179.23" r="14" fill="#e26f46" fill-rule="evenodd" fill-opacity="1" stroke="#000000" stroke-opacity="1" stroke-width="3.2"/>
<circle clip-path="url(#clip842)" cx="634.974" cy="1169.72" r="14" fill="#e26f46" fill-rule="evenodd" fill-opacity="1" stroke="#000000" stroke-opacity="1" stroke-width="3.2"/>
<circle clip-path="url(#clip842)" cx="651.064" cy="1159.94" r="14" fill="#e26f46" fill-rule="evenodd" fill-opacity="1" stroke="#000000" stroke-opacity="1" stroke-width="3.2"/>
<circle clip-path="url(#clip842)" cx="668.755" cy="1151.19" r="14" fill="#e26f46" fill-rule="evenodd" fill-opacity="1" stroke="#000000" stroke-opacity="1" stroke-width="3.2"/>
<circle clip-path="url(#clip842)" cx="688.718" cy="1141.92" r="14" fill="#e26f46" fill-rule="evenodd" fill-opacity="1" stroke="#000000" stroke-opacity="1" stroke-width="3.2"/>
<circle clip-path="url(#clip842)" cx="710.669" cy="1128.1" r="14" fill="#e26f46" fill-rule="evenodd" fill-opacity="1" stroke="#000000" stroke-opacity="1" stroke-width="3.2"/>
<circle clip-path="url(#clip842)" cx="733.116" cy="1104.54" r="14" fill="#e26f46" fill-rule="evenodd" fill-opacity="1" stroke="#000000" stroke-opacity="1" stroke-width="3.2"/>
<circle clip-path="url(#clip842)" cx="753.449" cy="1066.77" r="14" fill="#e26f46" fill-rule="evenodd" fill-opacity="1" stroke="#000000" stroke-opacity="1" stroke-width="3.2"/>
<circle clip-path="url(#clip842)" cx="768.415" cy="1012.8" r="14" fill="#e26f46" fill-rule="evenodd" fill-opacity="1" stroke="#000000" stroke-opacity="1" stroke-width="3.2"/>
<circle clip-path="url(#clip842)" cx="774.838" cy="944.455" r="14" fill="#e26f46" fill-rule="evenodd" fill-opacity="1" stroke="#000000" stroke-opacity="1" stroke-width="3.2"/>
<circle clip-path="url(#clip842)" cx="770.432" cy="867.652" r="14" fill="#e26f46" fill-rule="evenodd" fill-opacity="1" stroke="#000000" stroke-opacity="1" stroke-width="3.2"/>
<circle clip-path="url(#clip842)" cx="754.489" cy="791.522" r="14" fill="#e26f46" fill-rule="evenodd" fill-opacity="1" stroke="#000000" stroke-opacity="1" stroke-width="3.2"/>
<circle clip-path="url(#clip842)" cx="728.233" cy="726.536" r="14" fill="#e26f46" fill-rule="evenodd" fill-opacity="1" stroke="#000000" stroke-opacity="1" stroke-width="3.2"/>
<circle clip-path="url(#clip842)" cx="694.738" cy="682.014" r="14" fill="#e26f46" fill-rule="evenodd" fill-opacity="1" stroke="#000000" stroke-opacity="1" stroke-width="3.2"/>
<circle clip-path="url(#clip842)" cx="658.377" cy="663.65" r="14" fill="#e26f46" fill-rule="evenodd" fill-opacity="1" stroke="#000000" stroke-opacity="1" stroke-width="3.2"/>
<circle clip-path="url(#clip842)" cx="623.936" cy="671.715" r="14" fill="#e26f46" fill-rule="evenodd" fill-opacity="1" stroke="#000000" stroke-opacity="1" stroke-width="3.2"/>
<circle clip-path="url(#clip842)" cx="595.563" cy="700.432" r="14" fill="#e26f46" fill-rule="evenodd" fill-opacity="1" stroke="#000000" stroke-opacity="1" stroke-width="3.2"/>
<circle clip-path="url(#clip842)" cx="575.832" cy="738.793" r="14" fill="#e26f46" fill-rule="evenodd" fill-opacity="1" stroke="#000000" stroke-opacity="1" stroke-width="3.2"/>
<circle clip-path="url(#clip842)" cx="565.132" cy="772.695" r="14" fill="#e26f46" fill-rule="evenodd" fill-opacity="1" stroke="#000000" stroke-opacity="1" stroke-width="3.2"/>
<circle clip-path="url(#clip842)" cx="561.559" cy="787.973" r="14" fill="#e26f46" fill-rule="evenodd" fill-opacity="1" stroke="#000000" stroke-opacity="1" stroke-width="3.2"/>
<circle clip-path="url(#clip842)" cx="561.345" cy="773.635" r="14" fill="#e26f46" fill-rule="evenodd" fill-opacity="1" stroke="#000000" stroke-opacity="1" stroke-width="3.2"/>
<circle clip-path="url(#clip842)" cx="559.748" cy="724.555" r="14" fill="#e26f46" fill-rule="evenodd" fill-opacity="1" stroke="#000000" stroke-opacity="1" stroke-width="3.2"/>
<circle clip-path="url(#clip842)" cx="552.2" cy="642.964" r="14" fill="#e26f46" fill-rule="evenodd" fill-opacity="1" stroke="#000000" stroke-opacity="1" stroke-width="3.2"/>
<circle clip-path="url(#clip842)" cx="535.437" cy="538.358" r="14" fill="#e26f46" fill-rule="evenodd" fill-opacity="1" stroke="#000000" stroke-opacity="1" stroke-width="3.2"/>
<circle clip-path="url(#clip842)" cx="508.368" cy="425.79" r="14" fill="#e26f46" fill-rule="evenodd" fill-opacity="1" stroke="#000000" stroke-opacity="1" stroke-width="3.2"/>
<path clip-path="url(#clip840)" d="
M903.427 328.498 L1120.8 328.498 L1120.8 95.2176 L903.427 95.2176  Z
  " fill="#ffffff" fill-rule="evenodd" fill-opacity="1"/>
<polyline clip-path="url(#clip840)" style="stroke:#000000; stroke-linecap:butt; stroke-linejoin:round; stroke-width:4; stroke-opacity:1; fill:none" points="
  903.427,328.498 1120.8,328.498 1120.8,95.2176 903.427,95.2176 903.427,328.498 
  "/>
<circle clip-path="url(#clip840)" cx="946.041" cy="172.978" r="34" fill="#009af9" fill-rule="evenodd" fill-opacity="1" stroke="#000000" stroke-opacity="1" stroke-width="7.68"/>
<path clip-path="url(#clip840)" d="M988.655 160.009 L995.044 160.009 L995.044 198.898 L988.655 198.898 L988.655 160.009 M988.655 144.87 L995.044 144.87 L995.044 152.96 L988.655 152.96 L988.655 144.87 Z" fill="#000000" fill-rule="evenodd" fill-opacity="1" /><path clip-path="url(#clip840)" d="M1040.74 175.425 L1040.74 198.898 L1034.35 198.898 L1034.35 175.634 Q1034.35 170.113 1032.2 167.37 Q1030.04 164.627 1025.74 164.627 Q1020.56 164.627 1017.58 167.925 Q1014.59 171.224 1014.59 176.919 L1014.59 198.898 L1008.17 198.898 L1008.17 160.009 L1014.59 160.009 L1014.59 166.051 Q1016.88 162.544 1019.97 160.807 Q1023.1 159.071 1027.16 159.071 Q1033.86 159.071 1037.3 163.238 Q1040.74 167.37 1040.74 175.425 Z" fill="#000000" fill-rule="evenodd" fill-opacity="1" /><circle clip-path="url(#clip840)" cx="946.041" cy="250.738" r="34" fill="#e26f46" fill-rule="evenodd" fill-opacity="1" stroke="#000000" stroke-opacity="1" stroke-width="7.68"/>
<path clip-path="url(#clip840)" d="M1006.5 242.248 Q1001.36 242.248 998.378 246.276 Q995.391 250.269 995.391 257.248 Q995.391 264.227 998.343 268.255 Q1001.33 272.248 1006.5 272.248 Q1011.61 272.248 1014.59 268.22 Q1017.58 264.192 1017.58 257.248 Q1017.58 250.338 1014.59 246.31 Q1011.61 242.248 1006.5 242.248 M1006.5 236.831 Q1014.84 236.831 1019.59 242.248 Q1024.35 247.665 1024.35 257.248 Q1024.35 266.796 1019.59 272.248 Q1014.84 277.664 1006.5 277.664 Q998.135 277.664 993.378 272.248 Q988.655 266.796 988.655 257.248 Q988.655 247.665 993.378 242.248 Q998.135 236.831 1006.5 236.831 Z" fill="#000000" fill-rule="evenodd" fill-opacity="1" /><path clip-path="url(#clip840)" d="M1034.28 261.31 L1034.28 237.769 L1040.67 237.769 L1040.67 261.067 Q1040.67 266.588 1042.82 269.366 Q1044.97 272.109 1049.28 272.109 Q1054.45 272.109 1057.44 268.81 Q1060.46 265.512 1060.46 259.817 L1060.46 237.769 L1066.85 237.769 L1066.85 276.658 L1060.46 276.658 L1060.46 270.685 Q1058.13 274.227 1055.04 275.963 Q1051.99 277.664 1047.93 277.664 Q1041.22 277.664 1037.75 273.498 Q1034.28 269.331 1034.28 261.31 M1050.36 236.831 L1050.36 236.831 Z" fill="#000000" fill-rule="evenodd" fill-opacity="1" /><path clip-path="url(#clip840)" d="M1086.33 226.727 L1086.33 237.769 L1099.49 237.769 L1099.49 242.734 L1086.33 242.734 L1086.33 263.845 Q1086.33 268.602 1087.61 269.956 Q1088.93 271.31 1092.93 271.31 L1099.49 271.31 L1099.49 276.658 L1092.93 276.658 Q1085.53 276.658 1082.72 273.915 Q1079.9 271.137 1079.9 263.845 L1079.9 242.734 L1075.22 242.734 L1075.22 237.769 L1079.9 237.769 L1079.9 226.727 L1086.33 226.727 Z" fill="#000000" fill-rule="evenodd" fill-opacity="1" /><path clip-path="url(#clip840)" d="
M1393.94 1486.45 L2352.76 1486.45 L2352.76 47.2441 L1393.94 47.2441  Z
  " fill="#ffffff" fill-rule="evenodd" fill-opacity="1"/>
<defs>
  <clipPath id="clip843">
    <rect x="1393" y="47" width="960" height="1440"/>
  </clipPath>
</defs>
<polyline clip-path="url(#clip843)" style="stroke:#000000; stroke-linecap:butt; stroke-linejoin:round; stroke-width:2; stroke-opacity:0.1; fill:none" points="
  1420.14,1486.45 1420.14,47.2441 
  "/>
<polyline clip-path="url(#clip843)" style="stroke:#000000; stroke-linecap:butt; stroke-linejoin:round; stroke-width:2; stroke-opacity:0.1; fill:none" points="
  1646.51,1486.45 1646.51,47.2441 
  "/>
<polyline clip-path="url(#clip843)" style="stroke:#000000; stroke-linecap:butt; stroke-linejoin:round; stroke-width:2; stroke-opacity:0.1; fill:none" points="
  1872.88,1486.45 1872.88,47.2441 
  "/>
<polyline clip-path="url(#clip843)" style="stroke:#000000; stroke-linecap:butt; stroke-linejoin:round; stroke-width:2; stroke-opacity:0.1; fill:none" points="
  2099.25,1486.45 2099.25,47.2441 
  "/>
<polyline clip-path="url(#clip843)" style="stroke:#000000; stroke-linecap:butt; stroke-linejoin:round; stroke-width:2; stroke-opacity:0.1; fill:none" points="
  2325.62,1486.45 2325.62,47.2441 
  "/>
<polyline clip-path="url(#clip840)" style="stroke:#000000; stroke-linecap:butt; stroke-linejoin:round; stroke-width:4; stroke-opacity:1; fill:none" points="
  1393.94,1486.45 2352.76,1486.45 
  "/>
<polyline clip-path="url(#clip840)" style="stroke:#000000; stroke-linecap:butt; stroke-linejoin:round; stroke-width:4; stroke-opacity:1; fill:none" points="
  1420.14,1486.45 1420.14,1467.55 
  "/>
<polyline clip-path="url(#clip840)" style="stroke:#000000; stroke-linecap:butt; stroke-linejoin:round; stroke-width:4; stroke-opacity:1; fill:none" points="
  1646.51,1486.45 1646.51,1467.55 
  "/>
<polyline clip-path="url(#clip840)" style="stroke:#000000; stroke-linecap:butt; stroke-linejoin:round; stroke-width:4; stroke-opacity:1; fill:none" points="
  1872.88,1486.45 1872.88,1467.55 
  "/>
<polyline clip-path="url(#clip840)" style="stroke:#000000; stroke-linecap:butt; stroke-linejoin:round; stroke-width:4; stroke-opacity:1; fill:none" points="
  2099.25,1486.45 2099.25,1467.55 
  "/>
<polyline clip-path="url(#clip840)" style="stroke:#000000; stroke-linecap:butt; stroke-linejoin:round; stroke-width:4; stroke-opacity:1; fill:none" points="
  2325.62,1486.45 2325.62,1467.55 
  "/>
<path clip-path="url(#clip840)" d="M1366.67 1532.02 L1396.35 1532.02 L1396.35 1535.95 L1366.67 1535.95 L1366.67 1532.02 Z" fill="#000000" fill-rule="evenodd" fill-opacity="1" /><path clip-path="url(#clip840)" d="M1407.25 1544.91 L1414.89 1544.91 L1414.89 1518.55 L1406.58 1520.21 L1406.58 1515.95 L1414.84 1514.29 L1419.52 1514.29 L1419.52 1544.91 L1427.16 1544.91 L1427.16 1548.85 L1407.25 1548.85 L1407.25 1544.91 Z" fill="#000000" fill-rule="evenodd" fill-opacity="1" /><path clip-path="url(#clip840)" d="M1436.6 1542.97 L1441.48 1542.97 L1441.48 1548.85 L1436.6 1548.85 L1436.6 1542.97 Z" fill="#000000" fill-rule="evenodd" fill-opacity="1" /><path clip-path="url(#clip840)" d="M1461.67 1517.37 Q1458.06 1517.37 1456.23 1520.93 Q1454.42 1524.47 1454.42 1531.6 Q1454.42 1538.71 1456.23 1542.27 Q1458.06 1545.82 1461.67 1545.82 Q1465.3 1545.82 1467.11 1542.27 Q1468.94 1538.71 1468.94 1531.6 Q1468.94 1524.47 1467.11 1520.93 Q1465.3 1517.37 1461.67 1517.37 M1461.67 1513.66 Q1467.48 1513.66 1470.54 1518.27 Q1473.61 1522.85 1473.61 1531.6 Q1473.61 1540.33 1470.54 1544.94 Q1467.48 1549.52 1461.67 1549.52 Q1455.86 1549.52 1452.78 1544.94 Q1449.73 1540.33 1449.73 1531.6 Q1449.73 1522.85 1452.78 1518.27 Q1455.86 1513.66 1461.67 1513.66 Z" fill="#000000" fill-rule="evenodd" fill-opacity="1" /><path clip-path="url(#clip840)" d="M1593.54 1532.02 L1623.21 1532.02 L1623.21 1535.95 L1593.54 1535.95 L1593.54 1532.02 Z" fill="#000000" fill-rule="evenodd" fill-opacity="1" /><path clip-path="url(#clip840)" d="M1643.31 1517.37 Q1639.69 1517.37 1637.87 1520.93 Q1636.06 1524.47 1636.06 1531.6 Q1636.06 1538.71 1637.87 1542.27 Q1639.69 1545.82 1643.31 1545.82 Q1646.94 1545.82 1648.75 1542.27 Q1650.57 1538.71 1650.57 1531.6 Q1650.57 1524.47 1648.75 1520.93 Q1646.94 1517.37 1643.31 1517.37 M1643.31 1513.66 Q1649.12 1513.66 1652.17 1518.27 Q1655.25 1522.85 1655.25 1531.6 Q1655.25 1540.33 1652.17 1544.94 Q1649.12 1549.52 1643.31 1549.52 Q1637.5 1549.52 1634.42 1544.94 Q1631.36 1540.33 1631.36 1531.6 Q1631.36 1522.85 1634.42 1518.27 Q1637.5 1513.66 1643.31 1513.66 Z" fill="#000000" fill-rule="evenodd" fill-opacity="1" /><path clip-path="url(#clip840)" d="M1663.47 1542.97 L1668.35 1542.97 L1668.35 1548.85 L1663.47 1548.85 L1663.47 1542.97 Z" fill="#000000" fill-rule="evenodd" fill-opacity="1" /><path clip-path="url(#clip840)" d="M1678.58 1514.29 L1696.94 1514.29 L1696.94 1518.22 L1682.87 1518.22 L1682.87 1526.7 Q1683.88 1526.35 1684.9 1526.19 Q1685.92 1526 1686.94 1526 Q1692.73 1526 1696.11 1529.17 Q1699.49 1532.34 1699.49 1537.76 Q1699.49 1543.34 1696.01 1546.44 Q1692.54 1549.52 1686.22 1549.52 Q1684.05 1549.52 1681.78 1549.15 Q1679.53 1548.78 1677.12 1548.04 L1677.12 1543.34 Q1679.21 1544.47 1681.43 1545.03 Q1683.65 1545.58 1686.13 1545.58 Q1690.13 1545.58 1692.47 1543.48 Q1694.81 1541.37 1694.81 1537.76 Q1694.81 1534.15 1692.47 1532.04 Q1690.13 1529.94 1686.13 1529.94 Q1684.25 1529.94 1682.38 1530.35 Q1680.53 1530.77 1678.58 1531.65 L1678.58 1514.29 Z" fill="#000000" fill-rule="evenodd" fill-opacity="1" /><path clip-path="url(#clip840)" d="M1850.27 1517.37 Q1846.65 1517.37 1844.83 1520.93 Q1843.02 1524.47 1843.02 1531.6 Q1843.02 1538.71 1844.83 1542.27 Q1846.65 1545.82 1850.27 1545.82 Q1853.9 1545.82 1855.71 1542.27 Q1857.53 1538.71 1857.53 1531.6 Q1857.53 1524.47 1855.71 1520.93 Q1853.9 1517.37 1850.27 1517.37 M1850.27 1513.66 Q1856.08 1513.66 1859.13 1518.27 Q1862.21 1522.85 1862.21 1531.6 Q1862.21 1540.33 1859.13 1544.94 Q1856.08 1549.52 1850.27 1549.52 Q1844.46 1549.52 1841.38 1544.94 Q1838.32 1540.33 1838.32 1531.6 Q1838.32 1522.85 1841.38 1518.27 Q1844.46 1513.66 1850.27 1513.66 Z" fill="#000000" fill-rule="evenodd" fill-opacity="1" /><path clip-path="url(#clip840)" d="M1870.43 1542.97 L1875.31 1542.97 L1875.31 1548.85 L1870.43 1548.85 L1870.43 1542.97 Z" fill="#000000" fill-rule="evenodd" fill-opacity="1" /><path clip-path="url(#clip840)" d="M1895.5 1517.37 Q1891.89 1517.37 1890.06 1520.93 Q1888.25 1524.47 1888.25 1531.6 Q1888.25 1538.71 1890.06 1542.27 Q1891.89 1545.82 1895.5 1545.82 Q1899.13 1545.82 1900.94 1542.27 Q1902.76 1538.71 1902.76 1531.6 Q1902.76 1524.47 1900.94 1520.93 Q1899.13 1517.37 1895.5 1517.37 M1895.5 1513.66 Q1901.31 1513.66 1904.36 1518.27 Q1907.44 1522.85 1907.44 1531.6 Q1907.44 1540.33 1904.36 1544.94 Q1901.31 1549.52 1895.5 1549.52 Q1889.69 1549.52 1886.61 1544.94 Q1883.55 1540.33 1883.55 1531.6 Q1883.55 1522.85 1886.61 1518.27 Q1889.69 1513.66 1895.5 1513.66 Z" fill="#000000" fill-rule="evenodd" fill-opacity="1" /><path clip-path="url(#clip840)" d="M2077.13 1517.37 Q2073.52 1517.37 2071.69 1520.93 Q2069.89 1524.47 2069.89 1531.6 Q2069.89 1538.71 2071.69 1542.27 Q2073.52 1545.82 2077.13 1545.82 Q2080.77 1545.82 2082.57 1542.27 Q2084.4 1538.71 2084.4 1531.6 Q2084.4 1524.47 2082.57 1520.93 Q2080.77 1517.37 2077.13 1517.37 M2077.13 1513.66 Q2082.94 1513.66 2086 1518.27 Q2089.08 1522.85 2089.08 1531.6 Q2089.08 1540.33 2086 1544.94 Q2082.94 1549.52 2077.13 1549.52 Q2071.32 1549.52 2068.24 1544.94 Q2065.19 1540.33 2065.19 1531.6 Q2065.19 1522.85 2068.24 1518.27 Q2071.32 1513.66 2077.13 1513.66 Z" fill="#000000" fill-rule="evenodd" fill-opacity="1" /><path clip-path="url(#clip840)" d="M2097.29 1542.97 L2102.18 1542.97 L2102.18 1548.85 L2097.29 1548.85 L2097.29 1542.97 Z" fill="#000000" fill-rule="evenodd" fill-opacity="1" /><path clip-path="url(#clip840)" d="M2112.41 1514.29 L2130.77 1514.29 L2130.77 1518.22 L2116.69 1518.22 L2116.69 1526.7 Q2117.71 1526.35 2118.73 1526.19 Q2119.75 1526 2120.77 1526 Q2126.55 1526 2129.93 1529.17 Q2133.31 1532.34 2133.31 1537.76 Q2133.31 1543.34 2129.84 1546.44 Q2126.37 1549.52 2120.05 1549.52 Q2117.87 1549.52 2115.6 1549.15 Q2113.36 1548.78 2110.95 1548.04 L2110.95 1543.34 Q2113.03 1544.47 2115.26 1545.03 Q2117.48 1545.58 2119.96 1545.58 Q2123.96 1545.58 2126.3 1543.48 Q2128.64 1541.37 2128.64 1537.76 Q2128.64 1534.15 2126.3 1532.04 Q2123.96 1529.94 2119.96 1529.94 Q2118.08 1529.94 2116.21 1530.35 Q2114.35 1530.77 2112.41 1531.65 L2112.41 1514.29 Z" fill="#000000" fill-rule="evenodd" fill-opacity="1" /><path clip-path="url(#clip840)" d="M2292.77 1544.91 L2300.41 1544.91 L2300.41 1518.55 L2292.1 1520.21 L2292.1 1515.95 L2300.36 1514.29 L2305.04 1514.29 L2305.04 1544.91 L2312.68 1544.91 L2312.68 1548.85 L2292.77 1548.85 L2292.77 1544.91 Z" fill="#000000" fill-rule="evenodd" fill-opacity="1" /><path clip-path="url(#clip840)" d="M2322.12 1542.97 L2327.01 1542.97 L2327.01 1548.85 L2322.12 1548.85 L2322.12 1542.97 Z" fill="#000000" fill-rule="evenodd" fill-opacity="1" /><path clip-path="url(#clip840)" d="M2347.19 1517.37 Q2343.58 1517.37 2341.75 1520.93 Q2339.95 1524.47 2339.95 1531.6 Q2339.95 1538.71 2341.75 1542.27 Q2343.58 1545.82 2347.19 1545.82 Q2350.83 1545.82 2352.63 1542.27 Q2354.46 1538.71 2354.46 1531.6 Q2354.46 1524.47 2352.63 1520.93 Q2350.83 1517.37 2347.19 1517.37 M2347.19 1513.66 Q2353 1513.66 2356.06 1518.27 Q2359.14 1522.85 2359.14 1531.6 Q2359.14 1540.33 2356.06 1544.94 Q2353 1549.52 2347.19 1549.52 Q2341.38 1549.52 2338.3 1544.94 Q2335.25 1540.33 2335.25 1531.6 Q2335.25 1522.85 2338.3 1518.27 Q2341.38 1513.66 2347.19 1513.66 Z" fill="#000000" fill-rule="evenodd" fill-opacity="1" /><polyline clip-path="url(#clip843)" style="stroke:#000000; stroke-linecap:butt; stroke-linejoin:round; stroke-width:2; stroke-opacity:0.1; fill:none" points="
  1393.94,1446.32 2352.76,1446.32 
  "/>
<polyline clip-path="url(#clip843)" style="stroke:#000000; stroke-linecap:butt; stroke-linejoin:round; stroke-width:2; stroke-opacity:0.1; fill:none" points="
  1393.94,1219.95 2352.76,1219.95 
  "/>
<polyline clip-path="url(#clip843)" style="stroke:#000000; stroke-linecap:butt; stroke-linejoin:round; stroke-width:2; stroke-opacity:0.1; fill:none" points="
  1393.94,993.58 2352.76,993.58 
  "/>
<polyline clip-path="url(#clip843)" style="stroke:#000000; stroke-linecap:butt; stroke-linejoin:round; stroke-width:2; stroke-opacity:0.1; fill:none" points="
  1393.94,767.21 2352.76,767.21 
  "/>
<polyline clip-path="url(#clip843)" style="stroke:#000000; stroke-linecap:butt; stroke-linejoin:round; stroke-width:2; stroke-opacity:0.1; fill:none" points="
  1393.94,540.841 2352.76,540.841 
  "/>
<polyline clip-path="url(#clip843)" style="stroke:#000000; stroke-linecap:butt; stroke-linejoin:round; stroke-width:2; stroke-opacity:0.1; fill:none" points="
  1393.94,314.472 2352.76,314.472 
  "/>
<polyline clip-path="url(#clip843)" style="stroke:#000000; stroke-linecap:butt; stroke-linejoin:round; stroke-width:2; stroke-opacity:0.1; fill:none" points="
  1393.94,88.1025 2352.76,88.1025 
  "/>
<polyline clip-path="url(#clip840)" style="stroke:#000000; stroke-linecap:butt; stroke-linejoin:round; stroke-width:4; stroke-opacity:1; fill:none" points="
  1393.94,1486.45 1393.94,47.2441 
  "/>
<polyline clip-path="url(#clip840)" style="stroke:#000000; stroke-linecap:butt; stroke-linejoin:round; stroke-width:4; stroke-opacity:1; fill:none" points="
  1393.94,1446.32 1412.83,1446.32 
  "/>
<polyline clip-path="url(#clip840)" style="stroke:#000000; stroke-linecap:butt; stroke-linejoin:round; stroke-width:4; stroke-opacity:1; fill:none" points="
  1393.94,1219.95 1412.83,1219.95 
  "/>
<polyline clip-path="url(#clip840)" style="stroke:#000000; stroke-linecap:butt; stroke-linejoin:round; stroke-width:4; stroke-opacity:1; fill:none" points="
  1393.94,993.58 1412.83,993.58 
  "/>
<polyline clip-path="url(#clip840)" style="stroke:#000000; stroke-linecap:butt; stroke-linejoin:round; stroke-width:4; stroke-opacity:1; fill:none" points="
  1393.94,767.21 1412.83,767.21 
  "/>
<polyline clip-path="url(#clip840)" style="stroke:#000000; stroke-linecap:butt; stroke-linejoin:round; stroke-width:4; stroke-opacity:1; fill:none" points="
  1393.94,540.841 1412.83,540.841 
  "/>
<polyline clip-path="url(#clip840)" style="stroke:#000000; stroke-linecap:butt; stroke-linejoin:round; stroke-width:4; stroke-opacity:1; fill:none" points="
  1393.94,314.472 1412.83,314.472 
  "/>
<polyline clip-path="url(#clip840)" style="stroke:#000000; stroke-linecap:butt; stroke-linejoin:round; stroke-width:4; stroke-opacity:1; fill:none" points="
  1393.94,88.1025 1412.83,88.1025 
  "/>
<path clip-path="url(#clip840)" d="M1251.99 1446.77 L1281.66 1446.77 L1281.66 1450.7 L1251.99 1450.7 L1251.99 1446.77 Z" fill="#000000" fill-rule="evenodd" fill-opacity="1" /><path clip-path="url(#clip840)" d="M1292.57 1459.66 L1300.2 1459.66 L1300.2 1433.3 L1291.89 1434.96 L1291.89 1430.71 L1300.16 1429.04 L1304.83 1429.04 L1304.83 1459.66 L1312.47 1459.66 L1312.47 1463.6 L1292.57 1463.6 L1292.57 1459.66 Z" fill="#000000" fill-rule="evenodd" fill-opacity="1" /><path clip-path="url(#clip840)" d="M1321.92 1457.72 L1326.8 1457.72 L1326.8 1463.6 L1321.92 1463.6 L1321.92 1457.72 Z" fill="#000000" fill-rule="evenodd" fill-opacity="1" /><path clip-path="url(#clip840)" d="M1337.03 1429.04 L1355.39 1429.04 L1355.39 1432.97 L1341.32 1432.97 L1341.32 1441.45 Q1342.33 1441.1 1343.35 1440.94 Q1344.37 1440.75 1345.39 1440.75 Q1351.18 1440.75 1354.56 1443.92 Q1357.94 1447.09 1357.94 1452.51 Q1357.94 1458.09 1354.46 1461.19 Q1350.99 1464.27 1344.67 1464.27 Q1342.5 1464.27 1340.23 1463.9 Q1337.98 1463.53 1335.58 1462.79 L1335.58 1458.09 Q1337.66 1459.22 1339.88 1459.78 Q1342.1 1460.33 1344.58 1460.33 Q1348.58 1460.33 1350.92 1458.23 Q1353.26 1456.12 1353.26 1452.51 Q1353.26 1448.9 1350.92 1446.79 Q1348.58 1444.69 1344.58 1444.69 Q1342.7 1444.69 1340.83 1445.1 Q1338.98 1445.52 1337.03 1446.4 L1337.03 1429.04 Z" fill="#000000" fill-rule="evenodd" fill-opacity="1" /><path clip-path="url(#clip840)" d="M1250.99 1220.4 L1280.67 1220.4 L1280.67 1224.34 L1250.99 1224.34 L1250.99 1220.4 Z" fill="#000000" fill-rule="evenodd" fill-opacity="1" /><path clip-path="url(#clip840)" d="M1291.57 1233.29 L1299.21 1233.29 L1299.21 1206.93 L1290.9 1208.59 L1290.9 1204.34 L1299.16 1202.67 L1303.84 1202.67 L1303.84 1233.29 L1311.48 1233.29 L1311.48 1237.23 L1291.57 1237.23 L1291.57 1233.29 Z" fill="#000000" fill-rule="evenodd" fill-opacity="1" /><path clip-path="url(#clip840)" d="M1320.92 1231.35 L1325.81 1231.35 L1325.81 1237.23 L1320.92 1237.23 L1320.92 1231.35 Z" fill="#000000" fill-rule="evenodd" fill-opacity="1" /><path clip-path="url(#clip840)" d="M1345.99 1205.75 Q1342.38 1205.75 1340.55 1209.31 Q1338.75 1212.85 1338.75 1219.98 Q1338.75 1227.09 1340.55 1230.66 Q1342.38 1234.2 1345.99 1234.2 Q1349.63 1234.2 1351.43 1230.66 Q1353.26 1227.09 1353.26 1219.98 Q1353.26 1212.85 1351.43 1209.31 Q1349.63 1205.75 1345.99 1205.75 M1345.99 1202.04 Q1351.8 1202.04 1354.86 1206.65 Q1357.94 1211.23 1357.94 1219.98 Q1357.94 1228.71 1354.86 1233.32 Q1351.8 1237.9 1345.99 1237.9 Q1340.18 1237.9 1337.1 1233.32 Q1334.05 1228.71 1334.05 1219.98 Q1334.05 1211.23 1337.1 1206.65 Q1340.18 1202.04 1345.99 1202.04 Z" fill="#000000" fill-rule="evenodd" fill-opacity="1" /><path clip-path="url(#clip840)" d="M1251.99 994.031 L1281.66 994.031 L1281.66 997.966 L1251.99 997.966 L1251.99 994.031 Z" fill="#000000" fill-rule="evenodd" fill-opacity="1" /><path clip-path="url(#clip840)" d="M1301.76 979.378 Q1298.14 979.378 1296.32 982.943 Q1294.51 986.485 1294.51 993.614 Q1294.51 1000.72 1296.32 1004.29 Q1298.14 1007.83 1301.76 1007.83 Q1305.39 1007.83 1307.2 1004.29 Q1309.02 1000.72 1309.02 993.614 Q1309.02 986.485 1307.2 982.943 Q1305.39 979.378 1301.76 979.378 M1301.76 975.675 Q1307.57 975.675 1310.62 980.281 Q1313.7 984.865 1313.7 993.614 Q1313.7 1002.34 1310.62 1006.95 Q1307.57 1011.53 1301.76 1011.53 Q1295.95 1011.53 1292.87 1006.95 Q1289.81 1002.34 1289.81 993.614 Q1289.81 984.865 1292.87 980.281 Q1295.95 975.675 1301.76 975.675 Z" fill="#000000" fill-rule="evenodd" fill-opacity="1" /><path clip-path="url(#clip840)" d="M1321.92 1004.98 L1326.8 1004.98 L1326.8 1010.86 L1321.92 1010.86 L1321.92 1004.98 Z" fill="#000000" fill-rule="evenodd" fill-opacity="1" /><path clip-path="url(#clip840)" d="M1337.03 976.3 L1355.39 976.3 L1355.39 980.235 L1341.32 980.235 L1341.32 988.707 Q1342.33 988.36 1343.35 988.198 Q1344.37 988.013 1345.39 988.013 Q1351.18 988.013 1354.56 991.184 Q1357.94 994.355 1357.94 999.772 Q1357.94 1005.35 1354.46 1008.45 Q1350.99 1011.53 1344.67 1011.53 Q1342.5 1011.53 1340.23 1011.16 Q1337.98 1010.79 1335.58 1010.05 L1335.58 1005.35 Q1337.66 1006.48 1339.88 1007.04 Q1342.1 1007.6 1344.58 1007.6 Q1348.58 1007.6 1350.92 1005.49 Q1353.26 1003.38 1353.26 999.772 Q1353.26 996.161 1350.92 994.054 Q1348.58 991.948 1344.58 991.948 Q1342.7 991.948 1340.83 992.364 Q1338.98 992.781 1337.03 993.661 L1337.03 976.3 Z" fill="#000000" fill-rule="evenodd" fill-opacity="1" /><path clip-path="url(#clip840)" d="M1300.76 753.009 Q1297.15 753.009 1295.32 756.574 Q1293.52 760.116 1293.52 767.245 Q1293.52 774.352 1295.32 777.916 Q1297.15 781.458 1300.76 781.458 Q1304.39 781.458 1306.2 777.916 Q1308.03 774.352 1308.03 767.245 Q1308.03 760.116 1306.2 756.574 Q1304.39 753.009 1300.76 753.009 M1300.76 749.305 Q1306.57 749.305 1309.63 753.912 Q1312.7 758.495 1312.7 767.245 Q1312.7 775.972 1309.63 780.578 Q1306.57 785.162 1300.76 785.162 Q1294.95 785.162 1291.87 780.578 Q1288.82 775.972 1288.82 767.245 Q1288.82 758.495 1291.87 753.912 Q1294.95 749.305 1300.76 749.305 Z" fill="#000000" fill-rule="evenodd" fill-opacity="1" /><path clip-path="url(#clip840)" d="M1320.92 778.611 L1325.81 778.611 L1325.81 784.49 L1320.92 784.49 L1320.92 778.611 Z" fill="#000000" fill-rule="evenodd" fill-opacity="1" /><path clip-path="url(#clip840)" d="M1345.99 753.009 Q1342.38 753.009 1340.55 756.574 Q1338.75 760.116 1338.75 767.245 Q1338.75 774.352 1340.55 777.916 Q1342.38 781.458 1345.99 781.458 Q1349.63 781.458 1351.43 777.916 Q1353.26 774.352 1353.26 767.245 Q1353.26 760.116 1351.43 756.574 Q1349.63 753.009 1345.99 753.009 M1345.99 749.305 Q1351.8 749.305 1354.86 753.912 Q1357.94 758.495 1357.94 767.245 Q1357.94 775.972 1354.86 780.578 Q1351.8 785.162 1345.99 785.162 Q1340.18 785.162 1337.1 780.578 Q1334.05 775.972 1334.05 767.245 Q1334.05 758.495 1337.1 753.912 Q1340.18 749.305 1345.99 749.305 Z" fill="#000000" fill-rule="evenodd" fill-opacity="1" /><path clip-path="url(#clip840)" d="M1301.76 526.64 Q1298.14 526.64 1296.32 530.205 Q1294.51 533.746 1294.51 540.876 Q1294.51 547.982 1296.32 551.547 Q1298.14 555.089 1301.76 555.089 Q1305.39 555.089 1307.2 551.547 Q1309.02 547.982 1309.02 540.876 Q1309.02 533.746 1307.2 530.205 Q1305.39 526.64 1301.76 526.64 M1301.76 522.936 Q1307.57 522.936 1310.62 527.543 Q1313.7 532.126 1313.7 540.876 Q1313.7 549.603 1310.62 554.209 Q1307.57 558.792 1301.76 558.792 Q1295.95 558.792 1292.87 554.209 Q1289.81 549.603 1289.81 540.876 Q1289.81 532.126 1292.87 527.543 Q1295.95 522.936 1301.76 522.936 Z" fill="#000000" fill-rule="evenodd" fill-opacity="1" /><path clip-path="url(#clip840)" d="M1321.92 552.242 L1326.8 552.242 L1326.8 558.121 L1321.92 558.121 L1321.92 552.242 Z" fill="#000000" fill-rule="evenodd" fill-opacity="1" /><path clip-path="url(#clip840)" d="M1337.03 523.561 L1355.39 523.561 L1355.39 527.496 L1341.32 527.496 L1341.32 535.968 Q1342.33 535.621 1343.35 535.459 Q1344.37 535.274 1345.39 535.274 Q1351.18 535.274 1354.56 538.445 Q1357.94 541.617 1357.94 547.033 Q1357.94 552.612 1354.46 555.714 Q1350.99 558.792 1344.67 558.792 Q1342.5 558.792 1340.23 558.422 Q1337.98 558.052 1335.58 557.311 L1335.58 552.612 Q1337.66 553.746 1339.88 554.302 Q1342.1 554.857 1344.58 554.857 Q1348.58 554.857 1350.92 552.751 Q1353.26 550.644 1353.26 547.033 Q1353.26 543.422 1350.92 541.316 Q1348.58 539.209 1344.58 539.209 Q1342.7 539.209 1340.83 539.626 Q1338.98 540.043 1337.03 540.922 L1337.03 523.561 Z" fill="#000000" fill-rule="evenodd" fill-opacity="1" /><path clip-path="url(#clip840)" d="M1291.57 327.817 L1299.21 327.817 L1299.21 301.451 L1290.9 303.118 L1290.9 298.858 L1299.16 297.192 L1303.84 297.192 L1303.84 327.817 L1311.48 327.817 L1311.48 331.752 L1291.57 331.752 L1291.57 327.817 Z" fill="#000000" fill-rule="evenodd" fill-opacity="1" /><path clip-path="url(#clip840)" d="M1320.92 325.872 L1325.81 325.872 L1325.81 331.752 L1320.92 331.752 L1320.92 325.872 Z" fill="#000000" fill-rule="evenodd" fill-opacity="1" /><path clip-path="url(#clip840)" d="M1345.99 300.27 Q1342.38 300.27 1340.55 303.835 Q1338.75 307.377 1338.75 314.507 Q1338.75 321.613 1340.55 325.178 Q1342.38 328.719 1345.99 328.719 Q1349.63 328.719 1351.43 325.178 Q1353.26 321.613 1353.26 314.507 Q1353.26 307.377 1351.43 303.835 Q1349.63 300.27 1345.99 300.27 M1345.99 296.567 Q1351.8 296.567 1354.86 301.173 Q1357.94 305.757 1357.94 314.507 Q1357.94 323.233 1354.86 327.84 Q1351.8 332.423 1345.99 332.423 Q1340.18 332.423 1337.1 327.84 Q1334.05 323.233 1334.05 314.507 Q1334.05 305.757 1337.1 301.173 Q1340.18 296.567 1345.99 296.567 Z" fill="#000000" fill-rule="evenodd" fill-opacity="1" /><path clip-path="url(#clip840)" d="M1292.57 101.447 L1300.2 101.447 L1300.2 75.0817 L1291.89 76.7484 L1291.89 72.4891 L1300.16 70.8225 L1304.83 70.8225 L1304.83 101.447 L1312.47 101.447 L1312.47 105.382 L1292.57 105.382 L1292.57 101.447 Z" fill="#000000" fill-rule="evenodd" fill-opacity="1" /><path clip-path="url(#clip840)" d="M1321.92 99.5029 L1326.8 99.5029 L1326.8 105.382 L1321.92 105.382 L1321.92 99.5029 Z" fill="#000000" fill-rule="evenodd" fill-opacity="1" /><path clip-path="url(#clip840)" d="M1337.03 70.8225 L1355.39 70.8225 L1355.39 74.7577 L1341.32 74.7577 L1341.32 83.2298 Q1342.33 82.8826 1343.35 82.7206 Q1344.37 82.5354 1345.39 82.5354 Q1351.18 82.5354 1354.56 85.7067 Q1357.94 88.8779 1357.94 94.2946 Q1357.94 99.8733 1354.46 102.975 Q1350.99 106.054 1344.67 106.054 Q1342.5 106.054 1340.23 105.683 Q1337.98 105.313 1335.58 104.572 L1335.58 99.8733 Q1337.66 101.008 1339.88 101.563 Q1342.1 102.119 1344.58 102.119 Q1348.58 102.119 1350.92 100.012 Q1353.26 97.9057 1353.26 94.2946 Q1353.26 90.6835 1350.92 88.577 Q1348.58 86.4706 1344.58 86.4706 Q1342.7 86.4706 1340.83 86.8872 Q1338.98 87.3039 1337.03 88.1835 L1337.03 70.8225 Z" fill="#000000" fill-rule="evenodd" fill-opacity="1" /><circle clip-path="url(#clip843)" cx="2325.62" cy="767.21" r="14" fill="#009af9" fill-rule="evenodd" fill-opacity="1" stroke="#000000" stroke-opacity="1" stroke-width="3.2"/>
<circle clip-path="url(#clip843)" cx="2321.9" cy="709.316" r="14" fill="#009af9" fill-rule="evenodd" fill-opacity="1" stroke="#000000" stroke-opacity="1" stroke-width="3.2"/>
<circle clip-path="url(#clip843)" cx="2310.81" cy="652.371" r="14" fill="#009af9" fill-rule="evenodd" fill-opacity="1" stroke="#000000" stroke-opacity="1" stroke-width="3.2"/>
<circle clip-path="url(#clip843)" cx="2292.53" cy="597.313" r="14" fill="#009af9" fill-rule="evenodd" fill-opacity="1" stroke="#000000" stroke-opacity="1" stroke-width="3.2"/>
<circle clip-path="url(#clip843)" cx="2267.36" cy="545.044" r="14" fill="#009af9" fill-rule="evenodd" fill-opacity="1" stroke="#000000" stroke-opacity="1" stroke-width="3.2"/>
<circle clip-path="url(#clip843)" cx="2235.71" cy="496.423" r="14" fill="#009af9" fill-rule="evenodd" fill-opacity="1" stroke="#000000" stroke-opacity="1" stroke-width="3.2"/>
<circle clip-path="url(#clip843)" cx="2198.11" cy="452.248" r="14" fill="#009af9" fill-rule="evenodd" fill-opacity="1" stroke="#000000" stroke-opacity="1" stroke-width="3.2"/>
<circle clip-path="url(#clip843)" cx="2155.16" cy="413.245" r="14" fill="#009af9" fill-rule="evenodd" fill-opacity="1" stroke="#000000" stroke-opacity="1" stroke-width="3.2"/>
<circle clip-path="url(#clip843)" cx="2107.58" cy="380.054" r="14" fill="#009af9" fill-rule="evenodd" fill-opacity="1" stroke="#000000" stroke-opacity="1" stroke-width="3.2"/>
<circle clip-path="url(#clip843)" cx="2056.14" cy="353.221" r="14" fill="#009af9" fill-rule="evenodd" fill-opacity="1" stroke="#000000" stroke-opacity="1" stroke-width="3.2"/>
<circle clip-path="url(#clip843)" cx="2001.7" cy="333.184" r="14" fill="#009af9" fill-rule="evenodd" fill-opacity="1" stroke="#000000" stroke-opacity="1" stroke-width="3.2"/>
<circle clip-path="url(#clip843)" cx="1945.14" cy="320.275" r="14" fill="#009af9" fill-rule="evenodd" fill-opacity="1" stroke="#000000" stroke-opacity="1" stroke-width="3.2"/>
<circle clip-path="url(#clip843)" cx="1887.39" cy="314.704" r="14" fill="#009af9" fill-rule="evenodd" fill-opacity="1" stroke="#000000" stroke-opacity="1" stroke-width="3.2"/>
<circle clip-path="url(#clip843)" cx="1829.41" cy="316.564" r="14" fill="#009af9" fill-rule="evenodd" fill-opacity="1" stroke="#000000" stroke-opacity="1" stroke-width="3.2"/>
<circle clip-path="url(#clip843)" cx="1772.14" cy="325.823" r="14" fill="#009af9" fill-rule="evenodd" fill-opacity="1" stroke="#000000" stroke-opacity="1" stroke-width="3.2"/>
<circle clip-path="url(#clip843)" cx="1716.52" cy="342.33" r="14" fill="#009af9" fill-rule="evenodd" fill-opacity="1" stroke="#000000" stroke-opacity="1" stroke-width="3.2"/>
<circle clip-path="url(#clip843)" cx="1663.47" cy="365.813" r="14" fill="#009af9" fill-rule="evenodd" fill-opacity="1" stroke="#000000" stroke-opacity="1" stroke-width="3.2"/>
<circle clip-path="url(#clip843)" cx="1613.86" cy="395.887" r="14" fill="#009af9" fill-rule="evenodd" fill-opacity="1" stroke="#000000" stroke-opacity="1" stroke-width="3.2"/>
<circle clip-path="url(#clip843)" cx="1568.5" cy="432.058" r="14" fill="#009af9" fill-rule="evenodd" fill-opacity="1" stroke="#000000" stroke-opacity="1" stroke-width="3.2"/>
<circle clip-path="url(#clip843)" cx="1528.14" cy="473.732" r="14" fill="#009af9" fill-rule="evenodd" fill-opacity="1" stroke="#000000" stroke-opacity="1" stroke-width="3.2"/>
<circle clip-path="url(#clip843)" cx="1493.45" cy="520.226" r="14" fill="#009af9" fill-rule="evenodd" fill-opacity="1" stroke="#000000" stroke-opacity="1" stroke-width="3.2"/>
<circle clip-path="url(#clip843)" cx="1464.98" cy="570.775" r="14" fill="#009af9" fill-rule="evenodd" fill-opacity="1" stroke="#000000" stroke-opacity="1" stroke-width="3.2"/>
<circle clip-path="url(#clip843)" cx="1443.21" cy="624.549" r="14" fill="#009af9" fill-rule="evenodd" fill-opacity="1" stroke="#000000" stroke-opacity="1" stroke-width="3.2"/>
<circle clip-path="url(#clip843)" cx="1428.49" cy="680.666" r="14" fill="#009af9" fill-rule="evenodd" fill-opacity="1" stroke="#000000" stroke-opacity="1" stroke-width="3.2"/>
<circle clip-path="url(#clip843)" cx="1421.07" cy="738.203" r="14" fill="#009af9" fill-rule="evenodd" fill-opacity="1" stroke="#000000" stroke-opacity="1" stroke-width="3.2"/>
<circle clip-path="url(#clip843)" cx="1421.07" cy="796.218" r="14" fill="#009af9" fill-rule="evenodd" fill-opacity="1" stroke="#000000" stroke-opacity="1" stroke-width="3.2"/>
<circle clip-path="url(#clip843)" cx="1428.49" cy="853.755" r="14" fill="#009af9" fill-rule="evenodd" fill-opacity="1" stroke="#000000" stroke-opacity="1" stroke-width="3.2"/>
<circle clip-path="url(#clip843)" cx="1443.21" cy="909.872" r="14" fill="#009af9" fill-rule="evenodd" fill-opacity="1" stroke="#000000" stroke-opacity="1" stroke-width="3.2"/>
<circle clip-path="url(#clip843)" cx="1464.98" cy="963.646" r="14" fill="#009af9" fill-rule="evenodd" fill-opacity="1" stroke="#000000" stroke-opacity="1" stroke-width="3.2"/>
<circle clip-path="url(#clip843)" cx="1493.45" cy="1014.2" r="14" fill="#009af9" fill-rule="evenodd" fill-opacity="1" stroke="#000000" stroke-opacity="1" stroke-width="3.2"/>
<circle clip-path="url(#clip843)" cx="1528.14" cy="1060.69" r="14" fill="#009af9" fill-rule="evenodd" fill-opacity="1" stroke="#000000" stroke-opacity="1" stroke-width="3.2"/>
<circle clip-path="url(#clip843)" cx="1568.5" cy="1102.36" r="14" fill="#009af9" fill-rule="evenodd" fill-opacity="1" stroke="#000000" stroke-opacity="1" stroke-width="3.2"/>
<circle clip-path="url(#clip843)" cx="1613.86" cy="1138.53" r="14" fill="#009af9" fill-rule="evenodd" fill-opacity="1" stroke="#000000" stroke-opacity="1" stroke-width="3.2"/>
<circle clip-path="url(#clip843)" cx="1663.47" cy="1168.61" r="14" fill="#009af9" fill-rule="evenodd" fill-opacity="1" stroke="#000000" stroke-opacity="1" stroke-width="3.2"/>
<circle clip-path="url(#clip843)" cx="1716.52" cy="1192.09" r="14" fill="#009af9" fill-rule="evenodd" fill-opacity="1" stroke="#000000" stroke-opacity="1" stroke-width="3.2"/>
<circle clip-path="url(#clip843)" cx="1772.14" cy="1208.6" r="14" fill="#009af9" fill-rule="evenodd" fill-opacity="1" stroke="#000000" stroke-opacity="1" stroke-width="3.2"/>
<circle clip-path="url(#clip843)" cx="1829.41" cy="1217.86" r="14" fill="#009af9" fill-rule="evenodd" fill-opacity="1" stroke="#000000" stroke-opacity="1" stroke-width="3.2"/>
<circle clip-path="url(#clip843)" cx="1887.39" cy="1219.72" r="14" fill="#009af9" fill-rule="evenodd" fill-opacity="1" stroke="#000000" stroke-opacity="1" stroke-width="3.2"/>
<circle clip-path="url(#clip843)" cx="1945.14" cy="1214.15" r="14" fill="#009af9" fill-rule="evenodd" fill-opacity="1" stroke="#000000" stroke-opacity="1" stroke-width="3.2"/>
<circle clip-path="url(#clip843)" cx="2001.7" cy="1201.24" r="14" fill="#009af9" fill-rule="evenodd" fill-opacity="1" stroke="#000000" stroke-opacity="1" stroke-width="3.2"/>
<circle clip-path="url(#clip843)" cx="2056.14" cy="1181.2" r="14" fill="#009af9" fill-rule="evenodd" fill-opacity="1" stroke="#000000" stroke-opacity="1" stroke-width="3.2"/>
<circle clip-path="url(#clip843)" cx="2107.58" cy="1154.37" r="14" fill="#009af9" fill-rule="evenodd" fill-opacity="1" stroke="#000000" stroke-opacity="1" stroke-width="3.2"/>
<circle clip-path="url(#clip843)" cx="2155.16" cy="1121.18" r="14" fill="#009af9" fill-rule="evenodd" fill-opacity="1" stroke="#000000" stroke-opacity="1" stroke-width="3.2"/>
<circle clip-path="url(#clip843)" cx="2198.11" cy="1082.17" r="14" fill="#009af9" fill-rule="evenodd" fill-opacity="1" stroke="#000000" stroke-opacity="1" stroke-width="3.2"/>
<circle clip-path="url(#clip843)" cx="2235.71" cy="1038" r="14" fill="#009af9" fill-rule="evenodd" fill-opacity="1" stroke="#000000" stroke-opacity="1" stroke-width="3.2"/>
<circle clip-path="url(#clip843)" cx="2267.36" cy="989.377" r="14" fill="#009af9" fill-rule="evenodd" fill-opacity="1" stroke="#000000" stroke-opacity="1" stroke-width="3.2"/>
<circle clip-path="url(#clip843)" cx="2292.53" cy="937.108" r="14" fill="#009af9" fill-rule="evenodd" fill-opacity="1" stroke="#000000" stroke-opacity="1" stroke-width="3.2"/>
<circle clip-path="url(#clip843)" cx="2310.81" cy="882.05" r="14" fill="#009af9" fill-rule="evenodd" fill-opacity="1" stroke="#000000" stroke-opacity="1" stroke-width="3.2"/>
<circle clip-path="url(#clip843)" cx="2321.9" cy="825.105" r="14" fill="#009af9" fill-rule="evenodd" fill-opacity="1" stroke="#000000" stroke-opacity="1" stroke-width="3.2"/>
<circle clip-path="url(#clip843)" cx="2325.62" cy="767.21" r="14" fill="#009af9" fill-rule="evenodd" fill-opacity="1" stroke="#000000" stroke-opacity="1" stroke-width="3.2"/>
<circle clip-path="url(#clip843)" cx="1804.16" cy="262.348" r="14" fill="#e26f46" fill-rule="evenodd" fill-opacity="1" stroke="#000000" stroke-opacity="1" stroke-width="3.2"/>
<circle clip-path="url(#clip843)" cx="1783.31" cy="274.182" r="14" fill="#e26f46" fill-rule="evenodd" fill-opacity="1" stroke="#000000" stroke-opacity="1" stroke-width="3.2"/>
<circle clip-path="url(#clip843)" cx="1763.94" cy="294.111" r="14" fill="#e26f46" fill-rule="evenodd" fill-opacity="1" stroke="#000000" stroke-opacity="1" stroke-width="3.2"/>
<circle clip-path="url(#clip843)" cx="1746.35" cy="321.809" r="14" fill="#e26f46" fill-rule="evenodd" fill-opacity="1" stroke="#000000" stroke-opacity="1" stroke-width="3.2"/>
<circle clip-path="url(#clip843)" cx="1730.84" cy="356.82" r="14" fill="#e26f46" fill-rule="evenodd" fill-opacity="1" stroke="#000000" stroke-opacity="1" stroke-width="3.2"/>
<circle clip-path="url(#clip843)" cx="1717.66" cy="398.57" r="14" fill="#e26f46" fill-rule="evenodd" fill-opacity="1" stroke="#000000" stroke-opacity="1" stroke-width="3.2"/>
<circle clip-path="url(#clip843)" cx="1707.04" cy="446.372" r="14" fill="#e26f46" fill-rule="evenodd" fill-opacity="1" stroke="#000000" stroke-opacity="1" stroke-width="3.2"/>
<circle clip-path="url(#clip843)" cx="1699.13" cy="499.443" r="14" fill="#e26f46" fill-rule="evenodd" fill-opacity="1" stroke="#000000" stroke-opacity="1" stroke-width="3.2"/>
<circle clip-path="url(#clip843)" cx="1694.08" cy="556.911" r="14" fill="#e26f46" fill-rule="evenodd" fill-opacity="1" stroke="#000000" stroke-opacity="1" stroke-width="3.2"/>
<circle clip-path="url(#clip843)" cx="1691.96" cy="617.832" r="14" fill="#e26f46" fill-rule="evenodd" fill-opacity="1" stroke="#000000" stroke-opacity="1" stroke-width="3.2"/>
<circle clip-path="url(#clip843)" cx="1692.82" cy="681.205" r="14" fill="#e26f46" fill-rule="evenodd" fill-opacity="1" stroke="#000000" stroke-opacity="1" stroke-width="3.2"/>
<circle clip-path="url(#clip843)" cx="1696.63" cy="745.991" r="14" fill="#e26f46" fill-rule="evenodd" fill-opacity="1" stroke="#000000" stroke-opacity="1" stroke-width="3.2"/>
<circle clip-path="url(#clip843)" cx="1703.33" cy="811.125" r="14" fill="#e26f46" fill-rule="evenodd" fill-opacity="1" stroke="#000000" stroke-opacity="1" stroke-width="3.2"/>
<circle clip-path="url(#clip843)" cx="1712.82" cy="875.539" r="14" fill="#e26f46" fill-rule="evenodd" fill-opacity="1" stroke="#000000" stroke-opacity="1" stroke-width="3.2"/>
<circle clip-path="url(#clip843)" cx="1724.94" cy="938.173" r="14" fill="#e26f46" fill-rule="evenodd" fill-opacity="1" stroke="#000000" stroke-opacity="1" stroke-width="3.2"/>
<circle clip-path="url(#clip843)" cx="1739.49" cy="998" r="14" fill="#e26f46" fill-rule="evenodd" fill-opacity="1" stroke="#000000" stroke-opacity="1" stroke-width="3.2"/>
<circle clip-path="url(#clip843)" cx="1756.22" cy="1054.04" r="14" fill="#e26f46" fill-rule="evenodd" fill-opacity="1" stroke="#000000" stroke-opacity="1" stroke-width="3.2"/>
<circle clip-path="url(#clip843)" cx="1774.88" cy="1105.37" r="14" fill="#e26f46" fill-rule="evenodd" fill-opacity="1" stroke="#000000" stroke-opacity="1" stroke-width="3.2"/>
<circle clip-path="url(#clip843)" cx="1795.14" cy="1151.14" r="14" fill="#e26f46" fill-rule="evenodd" fill-opacity="1" stroke="#000000" stroke-opacity="1" stroke-width="3.2"/>
<circle clip-path="url(#clip843)" cx="1816.68" cy="1190.61" r="14" fill="#e26f46" fill-rule="evenodd" fill-opacity="1" stroke="#000000" stroke-opacity="1" stroke-width="3.2"/>
<circle clip-path="url(#clip843)" cx="1839.14" cy="1223.13" r="14" fill="#e26f46" fill-rule="evenodd" fill-opacity="1" stroke="#000000" stroke-opacity="1" stroke-width="3.2"/>
<circle clip-path="url(#clip843)" cx="1862.15" cy="1248.16" r="14" fill="#e26f46" fill-rule="evenodd" fill-opacity="1" stroke="#000000" stroke-opacity="1" stroke-width="3.2"/>
<circle clip-path="url(#clip843)" cx="1885.34" cy="1265.3" r="14" fill="#e26f46" fill-rule="evenodd" fill-opacity="1" stroke="#000000" stroke-opacity="1" stroke-width="3.2"/>
<circle clip-path="url(#clip843)" cx="1908.33" cy="1274.26" r="14" fill="#e26f46" fill-rule="evenodd" fill-opacity="1" stroke="#000000" stroke-opacity="1" stroke-width="3.2"/>
<circle clip-path="url(#clip843)" cx="1930.73" cy="1274.89" r="14" fill="#e26f46" fill-rule="evenodd" fill-opacity="1" stroke="#000000" stroke-opacity="1" stroke-width="3.2"/>
<circle clip-path="url(#clip843)" cx="1952.19" cy="1267.18" r="14" fill="#e26f46" fill-rule="evenodd" fill-opacity="1" stroke="#000000" stroke-opacity="1" stroke-width="3.2"/>
<circle clip-path="url(#clip843)" cx="1972.34" cy="1251.27" r="14" fill="#e26f46" fill-rule="evenodd" fill-opacity="1" stroke="#000000" stroke-opacity="1" stroke-width="3.2"/>
<circle clip-path="url(#clip843)" cx="1990.86" cy="1227.41" r="14" fill="#e26f46" fill-rule="evenodd" fill-opacity="1" stroke="#000000" stroke-opacity="1" stroke-width="3.2"/>
<circle clip-path="url(#clip843)" cx="2007.44" cy="1195.99" r="14" fill="#e26f46" fill-rule="evenodd" fill-opacity="1" stroke="#000000" stroke-opacity="1" stroke-width="3.2"/>
<circle clip-path="url(#clip843)" cx="2021.81" cy="1157.53" r="14" fill="#e26f46" fill-rule="evenodd" fill-opacity="1" stroke="#000000" stroke-opacity="1" stroke-width="3.2"/>
<circle clip-path="url(#clip843)" cx="2033.74" cy="1112.66" r="14" fill="#e26f46" fill-rule="evenodd" fill-opacity="1" stroke="#000000" stroke-opacity="1" stroke-width="3.2"/>
<circle clip-path="url(#clip843)" cx="2043.03" cy="1062.12" r="14" fill="#e26f46" fill-rule="evenodd" fill-opacity="1" stroke="#000000" stroke-opacity="1" stroke-width="3.2"/>
<circle clip-path="url(#clip843)" cx="2049.52" cy="1006.74" r="14" fill="#e26f46" fill-rule="evenodd" fill-opacity="1" stroke="#000000" stroke-opacity="1" stroke-width="3.2"/>
<circle clip-path="url(#clip843)" cx="2053.11" cy="947.42" r="14" fill="#e26f46" fill-rule="evenodd" fill-opacity="1" stroke="#000000" stroke-opacity="1" stroke-width="3.2"/>
<circle clip-path="url(#clip843)" cx="2053.74" cy="885.145" r="14" fill="#e26f46" fill-rule="evenodd" fill-opacity="1" stroke="#000000" stroke-opacity="1" stroke-width="3.2"/>
<circle clip-path="url(#clip843)" cx="2051.4" cy="820.933" r="14" fill="#e26f46" fill-rule="evenodd" fill-opacity="1" stroke="#000000" stroke-opacity="1" stroke-width="3.2"/>
<circle clip-path="url(#clip843)" cx="2046.14" cy="755.839" r="14" fill="#e26f46" fill-rule="evenodd" fill-opacity="1" stroke="#000000" stroke-opacity="1" stroke-width="3.2"/>
<circle clip-path="url(#clip843)" cx="2038.02" cy="690.932" r="14" fill="#e26f46" fill-rule="evenodd" fill-opacity="1" stroke="#000000" stroke-opacity="1" stroke-width="3.2"/>
<circle clip-path="url(#clip843)" cx="2027.2" cy="627.278" r="14" fill="#e26f46" fill-rule="evenodd" fill-opacity="1" stroke="#000000" stroke-opacity="1" stroke-width="3.2"/>
<circle clip-path="url(#clip843)" cx="2013.84" cy="565.921" r="14" fill="#e26f46" fill-rule="evenodd" fill-opacity="1" stroke="#000000" stroke-opacity="1" stroke-width="3.2"/>
<circle clip-path="url(#clip843)" cx="1998.16" cy="507.869" r="14" fill="#e26f46" fill-rule="evenodd" fill-opacity="1" stroke="#000000" stroke-opacity="1" stroke-width="3.2"/>
<circle clip-path="url(#clip843)" cx="1980.43" cy="454.076" r="14" fill="#e26f46" fill-rule="evenodd" fill-opacity="1" stroke="#000000" stroke-opacity="1" stroke-width="3.2"/>
<circle clip-path="url(#clip843)" cx="1960.94" cy="405.424" r="14" fill="#e26f46" fill-rule="evenodd" fill-opacity="1" stroke="#000000" stroke-opacity="1" stroke-width="3.2"/>
<circle clip-path="url(#clip843)" cx="1939.99" cy="362.713" r="14" fill="#e26f46" fill-rule="evenodd" fill-opacity="1" stroke="#000000" stroke-opacity="1" stroke-width="3.2"/>
<circle clip-path="url(#clip843)" cx="1917.95" cy="326.644" r="14" fill="#e26f46" fill-rule="evenodd" fill-opacity="1" stroke="#000000" stroke-opacity="1" stroke-width="3.2"/>
<circle clip-path="url(#clip843)" cx="1895.16" cy="297.809" r="14" fill="#e26f46" fill-rule="evenodd" fill-opacity="1" stroke="#000000" stroke-opacity="1" stroke-width="3.2"/>
<circle clip-path="url(#clip843)" cx="1872.01" cy="276.681" r="14" fill="#e26f46" fill-rule="evenodd" fill-opacity="1" stroke="#000000" stroke-opacity="1" stroke-width="3.2"/>
<circle clip-path="url(#clip843)" cx="1848.88" cy="263.608" r="14" fill="#e26f46" fill-rule="evenodd" fill-opacity="1" stroke="#000000" stroke-opacity="1" stroke-width="3.2"/>
<circle clip-path="url(#clip843)" cx="1826.13" cy="258.804" r="14" fill="#e26f46" fill-rule="evenodd" fill-opacity="1" stroke="#000000" stroke-opacity="1" stroke-width="3.2"/>
<circle clip-path="url(#clip843)" cx="1804.16" cy="262.348" r="14" fill="#e26f46" fill-rule="evenodd" fill-opacity="1" stroke="#000000" stroke-opacity="1" stroke-width="3.2"/>
<path clip-path="url(#clip840)" d="
M2103.43 328.498 L2320.8 328.498 L2320.8 95.2176 L2103.43 95.2176  Z
  " fill="#ffffff" fill-rule="evenodd" fill-opacity="1"/>
<polyline clip-path="url(#clip840)" style="stroke:#000000; stroke-linecap:butt; stroke-linejoin:round; stroke-width:4; stroke-opacity:1; fill:none" points="
  2103.43,328.498 2320.8,328.498 2320.8,95.2176 2103.43,95.2176 2103.43,328.498 
  "/>
<circle clip-path="url(#clip840)" cx="2146.04" cy="172.978" r="34" fill="#009af9" fill-rule="evenodd" fill-opacity="1" stroke="#000000" stroke-opacity="1" stroke-width="7.68"/>
<path clip-path="url(#clip840)" d="M2188.66 160.009 L2195.04 160.009 L2195.04 198.898 L2188.66 198.898 L2188.66 160.009 M2188.66 144.87 L2195.04 144.87 L2195.04 152.96 L2188.66 152.96 L2188.66 144.87 Z" fill="#000000" fill-rule="evenodd" fill-opacity="1" /><path clip-path="url(#clip840)" d="M2240.74 175.425 L2240.74 198.898 L2234.35 198.898 L2234.35 175.634 Q2234.35 170.113 2232.2 167.37 Q2230.04 164.627 2225.74 164.627 Q2220.56 164.627 2217.58 167.925 Q2214.59 171.224 2214.59 176.919 L2214.59 198.898 L2208.17 198.898 L2208.17 160.009 L2214.59 160.009 L2214.59 166.051 Q2216.88 162.544 2219.97 160.807 Q2223.1 159.071 2227.16 159.071 Q2233.86 159.071 2237.3 163.238 Q2240.74 167.37 2240.74 175.425 Z" fill="#000000" fill-rule="evenodd" fill-opacity="1" /><circle clip-path="url(#clip840)" cx="2146.04" cy="250.738" r="34" fill="#e26f46" fill-rule="evenodd" fill-opacity="1" stroke="#000000" stroke-opacity="1" stroke-width="7.68"/>
<path clip-path="url(#clip840)" d="M2206.5 242.248 Q2201.36 242.248 2198.38 246.276 Q2195.39 250.269 2195.39 257.248 Q2195.39 264.227 2198.34 268.255 Q2201.33 272.248 2206.5 272.248 Q2211.61 272.248 2214.59 268.22 Q2217.58 264.192 2217.58 257.248 Q2217.58 250.338 2214.59 246.31 Q2211.61 242.248 2206.5 242.248 M2206.5 236.831 Q2214.84 236.831 2219.59 242.248 Q2224.35 247.665 2224.35 257.248 Q2224.35 266.796 2219.59 272.248 Q2214.84 277.664 2206.5 277.664 Q2198.13 277.664 2193.38 272.248 Q2188.66 266.796 2188.66 257.248 Q2188.66 247.665 2193.38 242.248 Q2198.13 236.831 2206.5 236.831 Z" fill="#000000" fill-rule="evenodd" fill-opacity="1" /><path clip-path="url(#clip840)" d="M2234.28 261.31 L2234.28 237.769 L2240.67 237.769 L2240.67 261.067 Q2240.67 266.588 2242.82 269.366 Q2244.97 272.109 2249.28 272.109 Q2254.45 272.109 2257.44 268.81 Q2260.46 265.512 2260.46 259.817 L2260.46 237.769 L2266.85 237.769 L2266.85 276.658 L2260.46 276.658 L2260.46 270.685 Q2258.13 274.227 2255.04 275.963 Q2251.99 277.664 2247.93 277.664 Q2241.22 277.664 2237.75 273.498 Q2234.28 269.331 2234.28 261.31 M2250.36 236.831 L2250.36 236.831 Z" fill="#000000" fill-rule="evenodd" fill-opacity="1" /><path clip-path="url(#clip840)" d="M2286.33 226.727 L2286.33 237.769 L2299.49 237.769 L2299.49 242.734 L2286.33 242.734 L2286.33 263.845 Q2286.33 268.602 2287.61 269.956 Q2288.93 271.31 2292.93 271.31 L2299.49 271.31 L2299.49 276.658 L2292.93 276.658 Q2285.53 276.658 2282.72 273.915 Q2279.9 271.137 2279.9 263.845 L2279.9 242.734 L2275.22 242.734 L2275.22 237.769 L2279.9 237.769 L2279.9 226.727 L2286.33 226.727 Z" fill="#000000" fill-rule="evenodd" fill-opacity="1" /></svg>
