<?xml version="1.0" encoding="utf-8"?>
<svg xmlns="http://www.w3.org/2000/svg" xmlns:xlink="http://www.w3.org/1999/xlink" width="600" height="400" viewBox="0 0 2400 1600">
<defs>
  <clipPath id="clip570">
    <rect x="0" y="0" width="2400" height="1600"/>
  </clipPath>
</defs>
<path clip-path="url(#clip570)" d="
M0 1600 L2400 1600 L2400 0 L0 0  Z
  " fill="#ffffff" fill-rule="evenodd" fill-opacity="1"/>
<defs>
  <clipPath id="clip571">
    <rect x="480" y="0" width="1681" height="1600"/>
  </clipPath>
</defs>
<path clip-path="url(#clip570)" d="
M179.654 1486.45 L2352.76 1486.45 L2352.76 47.2441 L179.654 47.2441  Z
  " fill="#ffffff" fill-rule="evenodd" fill-opacity="1"/>
<defs>
  <clipPath id="clip572">
    <rect x="179" y="47" width="2174" height="1440"/>
  </clipPath>
</defs>
<polyline clip-path="url(#clip572)" style="stroke:#000000; stroke-width:2; stroke-opacity:0.1; fill:none" points="
  241.157,1486.45 241.157,47.2441 
  "/>
<polyline clip-path="url(#clip572)" style="stroke:#000000; stroke-width:2; stroke-opacity:0.1; fill:none" points="
  582.839,1486.45 582.839,47.2441 
  "/>
<polyline clip-path="url(#clip572)" style="stroke:#000000; stroke-width:2; stroke-opacity:0.1; fill:none" points="
  924.522,1486.45 924.522,47.2441 
  "/>
<polyline clip-path="url(#clip572)" style="stroke:#000000; stroke-width:2; stroke-opacity:0.1; fill:none" points="
  1266.2,1486.45 1266.2,47.2441 
  "/>
<polyline clip-path="url(#clip572)" style="stroke:#000000; stroke-width:2; stroke-opacity:0.1; fill:none" points="
  1607.89,1486.45 1607.89,47.2441 
  "/>
<polyline clip-path="url(#clip572)" style="stroke:#000000; stroke-width:2; stroke-opacity:0.1; fill:none" points="
  1949.57,1486.45 1949.57,47.2441 
  "/>
<polyline clip-path="url(#clip572)" style="stroke:#000000; stroke-width:2; stroke-opacity:0.1; fill:none" points="
  2291.25,1486.45 2291.25,47.2441 
  "/>
<polyline clip-path="url(#clip570)" style="stroke:#000000; stroke-width:4; stroke-opacity:1; fill:none" points="
  179.654,1486.45 2352.76,1486.45 
  "/>
<polyline clip-path="url(#clip570)" style="stroke:#000000; stroke-width:4; stroke-opacity:1; fill:none" points="
  241.157,1486.45 241.157,1469.18 
  "/>
<polyline clip-path="url(#clip570)" style="stroke:#000000; stroke-width:4; stroke-opacity:1; fill:none" points="
  582.839,1486.45 582.839,1469.18 
  "/>
<polyline clip-path="url(#clip570)" style="stroke:#000000; stroke-width:4; stroke-opacity:1; fill:none" points="
  924.522,1486.45 924.522,1469.18 
  "/>
<polyline clip-path="url(#clip570)" style="stroke:#000000; stroke-width:4; stroke-opacity:1; fill:none" points="
  1266.2,1486.45 1266.2,1469.18 
  "/>
<polyline clip-path="url(#clip570)" style="stroke:#000000; stroke-width:4; stroke-opacity:1; fill:none" points="
  1607.89,1486.45 1607.89,1469.18 
  "/>
<polyline clip-path="url(#clip570)" style="stroke:#000000; stroke-width:4; stroke-opacity:1; fill:none" points="
  1949.57,1486.45 1949.57,1469.18 
  "/>
<polyline clip-path="url(#clip570)" style="stroke:#000000; stroke-width:4; stroke-opacity:1; fill:none" points="
  2291.25,1486.45 2291.25,1469.18 
  "/>
<path clip-path="url(#clip570)" d="M 0 0 M213.136 1530.29 L242.812 1530.29 L242.812 1534.23 L213.136 1534.23 L213.136 1530.29 Z" fill="#000000" fill-rule="evenodd" fill-opacity="1" /><path clip-path="url(#clip570)" d="M 0 0 M262.048 1528.49 Q265.404 1529.2 267.279 1531.47 Q269.177 1533.74 269.177 1537.07 Q269.177 1542.19 265.659 1544.99 Q262.14 1547.79 255.659 1547.79 Q253.483 1547.79 251.168 1547.35 Q248.876 1546.93 246.423 1546.08 L246.423 1541.56 Q248.367 1542.7 250.682 1543.28 Q252.997 1543.86 255.52 1543.86 Q259.918 1543.86 262.21 1542.12 Q264.524 1540.38 264.524 1537.07 Q264.524 1534.02 262.372 1532.31 Q260.242 1530.57 256.423 1530.57 L252.395 1530.57 L252.395 1526.73 L256.608 1526.73 Q260.057 1526.73 261.886 1525.36 Q263.714 1523.97 263.714 1521.38 Q263.714 1518.72 261.816 1517.31 Q259.941 1515.87 256.423 1515.87 Q254.501 1515.87 252.302 1516.29 Q250.103 1516.7 247.464 1517.58 L247.464 1513.42 Q250.126 1512.68 252.441 1512.31 Q254.779 1511.93 256.839 1511.93 Q262.163 1511.93 265.265 1514.37 Q268.367 1516.77 268.367 1520.89 Q268.367 1523.76 266.724 1525.75 Q265.08 1527.72 262.048 1528.49 Z" fill="#000000" fill-rule="evenodd" fill-opacity="1" /><path clip-path="url(#clip570)" d="M 0 0 M555.293 1530.29 L584.969 1530.29 L584.969 1534.23 L555.293 1534.23 L555.293 1530.29 Z" fill="#000000" fill-rule="evenodd" fill-opacity="1" /><path clip-path="url(#clip570)" d="M 0 0 M594.066 1543.18 L610.385 1543.18 L610.385 1547.12 L588.441 1547.12 L588.441 1543.18 Q591.103 1540.43 595.686 1535.8 Q600.293 1531.15 601.473 1529.81 Q603.719 1527.28 604.598 1525.55 Q605.501 1523.79 605.501 1522.1 Q605.501 1519.34 603.557 1517.61 Q601.635 1515.87 598.534 1515.87 Q596.335 1515.87 593.881 1516.63 Q591.45 1517.4 588.673 1518.95 L588.673 1514.23 Q591.497 1513.09 593.95 1512.51 Q596.404 1511.93 598.441 1511.93 Q603.811 1511.93 607.006 1514.62 Q610.2 1517.31 610.2 1521.8 Q610.2 1523.93 609.39 1525.85 Q608.603 1527.74 606.497 1530.34 Q605.918 1531.01 602.816 1534.23 Q599.714 1537.42 594.066 1543.18 Z" fill="#000000" fill-rule="evenodd" fill-opacity="1" /><path clip-path="url(#clip570)" d="M 0 0 M896.791 1530.29 L926.466 1530.29 L926.466 1534.23 L896.791 1534.23 L896.791 1530.29 Z" fill="#000000" fill-rule="evenodd" fill-opacity="1" /><path clip-path="url(#clip570)" d="M 0 0 M932.346 1543.18 L939.985 1543.18 L939.985 1516.82 L931.675 1518.49 L931.675 1514.23 L939.939 1512.56 L944.615 1512.56 L944.615 1543.18 L952.253 1543.18 L952.253 1547.12 L932.346 1547.12 L932.346 1543.18 Z" fill="#000000" fill-rule="evenodd" fill-opacity="1" /><path clip-path="url(#clip570)" d="M 0 0 M1266.2 1515.64 Q1262.59 1515.64 1260.77 1519.2 Q1258.96 1522.75 1258.96 1529.87 Q1258.96 1536.98 1260.77 1540.55 Q1262.59 1544.09 1266.2 1544.09 Q1269.84 1544.09 1271.64 1540.55 Q1273.47 1536.98 1273.47 1529.87 Q1273.47 1522.75 1271.64 1519.2 Q1269.84 1515.64 1266.2 1515.64 M1266.2 1511.93 Q1272.01 1511.93 1275.07 1516.54 Q1278.15 1521.12 1278.15 1529.87 Q1278.15 1538.6 1275.07 1543.21 Q1272.01 1547.79 1266.2 1547.79 Q1260.39 1547.79 1257.32 1543.21 Q1254.26 1538.6 1254.26 1529.87 Q1254.26 1521.12 1257.32 1516.54 Q1260.39 1511.93 1266.2 1511.93 Z" fill="#000000" fill-rule="evenodd" fill-opacity="1" /><path clip-path="url(#clip570)" d="M 0 0 M1598.27 1543.18 L1605.91 1543.18 L1605.91 1516.82 L1597.6 1518.49 L1597.6 1514.23 L1605.86 1512.56 L1610.54 1512.56 L1610.54 1543.18 L1618.18 1543.18 L1618.18 1547.12 L1598.27 1547.12 L1598.27 1543.18 Z" fill="#000000" fill-rule="evenodd" fill-opacity="1" /><path clip-path="url(#clip570)" d="M 0 0 M1944.22 1543.18 L1960.54 1543.18 L1960.54 1547.12 L1938.6 1547.12 L1938.6 1543.18 Q1941.26 1540.43 1945.84 1535.8 Q1950.45 1531.15 1951.63 1529.81 Q1953.88 1527.28 1954.76 1525.55 Q1955.66 1523.79 1955.66 1522.1 Q1955.66 1519.34 1953.71 1517.61 Q1951.79 1515.87 1948.69 1515.87 Q1946.49 1515.87 1944.04 1516.63 Q1941.61 1517.4 1938.83 1518.95 L1938.83 1514.23 Q1941.65 1513.09 1944.11 1512.51 Q1946.56 1511.93 1948.6 1511.93 Q1953.97 1511.93 1957.16 1514.62 Q1960.36 1517.31 1960.36 1521.8 Q1960.36 1523.93 1959.55 1525.85 Q1958.76 1527.74 1956.65 1530.34 Q1956.07 1531.01 1952.97 1534.23 Q1949.87 1537.42 1944.22 1543.18 Z" fill="#000000" fill-rule="evenodd" fill-opacity="1" /><path clip-path="url(#clip570)" d="M 0 0 M2295.5 1528.49 Q2298.86 1529.2 2300.73 1531.47 Q2302.63 1533.74 2302.63 1537.07 Q2302.63 1542.19 2299.11 1544.99 Q2295.59 1547.79 2289.11 1547.79 Q2286.94 1547.79 2284.62 1547.35 Q2282.33 1546.93 2279.88 1546.08 L2279.88 1541.56 Q2281.82 1542.7 2284.13 1543.28 Q2286.45 1543.86 2288.97 1543.86 Q2293.37 1543.86 2295.66 1542.12 Q2297.98 1540.38 2297.98 1537.07 Q2297.98 1534.02 2295.82 1532.31 Q2293.7 1530.57 2289.88 1530.57 L2285.85 1530.57 L2285.85 1526.73 L2290.06 1526.73 Q2293.51 1526.73 2295.34 1525.36 Q2297.17 1523.97 2297.17 1521.38 Q2297.17 1518.72 2295.27 1517.31 Q2293.39 1515.87 2289.88 1515.87 Q2287.95 1515.87 2285.76 1516.29 Q2283.56 1516.7 2280.92 1517.58 L2280.92 1513.42 Q2283.58 1512.68 2285.89 1512.31 Q2288.23 1511.93 2290.29 1511.93 Q2295.62 1511.93 2298.72 1514.37 Q2301.82 1516.77 2301.82 1520.89 Q2301.82 1523.76 2300.18 1525.75 Q2298.53 1527.72 2295.5 1528.49 Z" fill="#000000" fill-rule="evenodd" fill-opacity="1" /><polyline clip-path="url(#clip572)" style="stroke:#000000; stroke-width:2; stroke-opacity:0.1; fill:none" points="
  179.654,1446.26 2352.76,1446.26 
  "/>
<polyline clip-path="url(#clip572)" style="stroke:#000000; stroke-width:2; stroke-opacity:0.1; fill:none" points="
  179.654,1112.06 2352.76,1112.06 
  "/>
<polyline clip-path="url(#clip572)" style="stroke:#000000; stroke-width:2; stroke-opacity:0.1; fill:none" points="
  179.654,777.874 2352.76,777.874 
  "/>
<polyline clip-path="url(#clip572)" style="stroke:#000000; stroke-width:2; stroke-opacity:0.1; fill:none" points="
  179.654,443.683 2352.76,443.683 
  "/>
<polyline clip-path="url(#clip572)" style="stroke:#000000; stroke-width:2; stroke-opacity:0.1; fill:none" points="
  179.654,109.492 2352.76,109.492 
  "/>
<polyline clip-path="url(#clip570)" style="stroke:#000000; stroke-width:4; stroke-opacity:1; fill:none" points="
  179.654,1486.45 179.654,47.2441 
  "/>
<polyline clip-path="url(#clip570)" style="stroke:#000000; stroke-width:4; stroke-opacity:1; fill:none" points="
  179.654,1446.26 205.731,1446.26 
  "/>
<polyline clip-path="url(#clip570)" style="stroke:#000000; stroke-width:4; stroke-opacity:1; fill:none" points="
  179.654,1112.06 205.731,1112.06 
  "/>
<polyline clip-path="url(#clip570)" style="stroke:#000000; stroke-width:4; stroke-opacity:1; fill:none" points="
  179.654,777.874 205.731,777.874 
  "/>
<polyline clip-path="url(#clip570)" style="stroke:#000000; stroke-width:4; stroke-opacity:1; fill:none" points="
  179.654,443.683 205.731,443.683 
  "/>
<polyline clip-path="url(#clip570)" style="stroke:#000000; stroke-width:4; stroke-opacity:1; fill:none" points="
  179.654,109.492 205.731,109.492 
  "/>
<path clip-path="url(#clip570)" d="M 0 0 M51.2236 1446.71 L80.8994 1446.71 L80.8994 1450.64 L51.2236 1450.64 L51.2236 1446.71 Z" fill="#000000" fill-rule="evenodd" fill-opacity="1" /><path clip-path="url(#clip570)" d="M 0 0 M86.779 1459.6 L94.4178 1459.6 L94.4178 1433.23 L86.1077 1434.9 L86.1077 1430.64 L94.3715 1428.98 L99.0474 1428.98 L99.0474 1459.6 L106.686 1459.6 L106.686 1463.54 L86.779 1463.54 L86.779 1459.6 Z" fill="#000000" fill-rule="evenodd" fill-opacity="1" /><path clip-path="url(#clip570)" d="M 0 0 M111.756 1457.66 L116.64 1457.66 L116.64 1463.54 L111.756 1463.54 L111.756 1457.66 Z" fill="#000000" fill-rule="evenodd" fill-opacity="1" /><path clip-path="url(#clip570)" d="M 0 0 M131.709 1432.05 Q128.098 1432.05 126.27 1435.62 Q124.464 1439.16 124.464 1446.29 Q124.464 1453.4 126.27 1456.96 Q128.098 1460.5 131.709 1460.5 Q135.344 1460.5 137.149 1456.96 Q138.978 1453.4 138.978 1446.29 Q138.978 1439.16 137.149 1435.62 Q135.344 1432.05 131.709 1432.05 M131.709 1428.35 Q137.519 1428.35 140.575 1432.96 Q143.654 1437.54 143.654 1446.29 Q143.654 1455.02 140.575 1459.62 Q137.519 1464.21 131.709 1464.21 Q125.899 1464.21 122.82 1459.62 Q119.765 1455.02 119.765 1446.29 Q119.765 1437.54 122.82 1432.96 Q125.899 1428.35 131.709 1428.35 Z" fill="#000000" fill-rule="evenodd" fill-opacity="1" /><path clip-path="url(#clip570)" d="M 0 0 M50.9921 1112.52 L80.6679 1112.52 L80.6679 1116.45 L50.9921 1116.45 L50.9921 1112.52 Z" fill="#000000" fill-rule="evenodd" fill-opacity="1" /><path clip-path="url(#clip570)" d="M 0 0 M95.7373 1097.86 Q92.1262 1097.86 90.2975 1101.43 Q88.4919 1104.97 88.4919 1112.1 Q88.4919 1119.21 90.2975 1122.77 Q92.1262 1126.31 95.7373 1126.31 Q99.3715 1126.31 101.177 1122.77 Q103.006 1119.21 103.006 1112.1 Q103.006 1104.97 101.177 1101.43 Q99.3715 1097.86 95.7373 1097.86 M95.7373 1094.16 Q101.547 1094.16 104.603 1098.77 Q107.682 1103.35 107.682 1112.1 Q107.682 1120.83 104.603 1125.43 Q101.547 1130.02 95.7373 1130.02 Q89.9271 1130.02 86.8484 1125.43 Q83.7929 1120.83 83.7929 1112.1 Q83.7929 1103.35 86.8484 1098.77 Q89.9271 1094.16 95.7373 1094.16 Z" fill="#000000" fill-rule="evenodd" fill-opacity="1" /><path clip-path="url(#clip570)" d="M 0 0 M112.751 1123.46 L117.635 1123.46 L117.635 1129.34 L112.751 1129.34 L112.751 1123.46 Z" fill="#000000" fill-rule="evenodd" fill-opacity="1" /><path clip-path="url(#clip570)" d="M 0 0 M122.751 1094.78 L141.107 1094.78 L141.107 1098.72 L127.033 1098.72 L127.033 1107.19 Q128.052 1106.84 129.07 1106.68 Q130.089 1106.5 131.107 1106.5 Q136.894 1106.5 140.274 1109.67 Q143.654 1112.84 143.654 1118.26 Q143.654 1123.84 140.181 1126.94 Q136.709 1130.02 130.39 1130.02 Q128.214 1130.02 125.945 1129.65 Q123.7 1129.27 121.293 1128.53 L121.293 1123.84 Q123.376 1124.97 125.598 1125.53 Q127.82 1126.08 130.297 1126.08 Q134.302 1126.08 136.64 1123.97 Q138.978 1121.87 138.978 1118.26 Q138.978 1114.65 136.64 1112.54 Q134.302 1110.43 130.297 1110.43 Q128.422 1110.43 126.547 1110.85 Q124.695 1111.27 122.751 1112.15 L122.751 1094.78 Z" fill="#000000" fill-rule="evenodd" fill-opacity="1" /><path clip-path="url(#clip570)" d="M 0 0 M94.7419 763.672 Q91.1308 763.672 89.3021 767.237 Q87.4966 770.779 87.4966 777.908 Q87.4966 785.015 89.3021 788.58 Q91.1308 792.121 94.7419 792.121 Q98.3761 792.121 100.182 788.58 Q102.01 785.015 102.01 777.908 Q102.01 770.779 100.182 767.237 Q98.3761 763.672 94.7419 763.672 M94.7419 759.969 Q100.552 759.969 103.608 764.575 Q106.686 769.158 106.686 777.908 Q106.686 786.635 103.608 791.242 Q100.552 795.825 94.7419 795.825 Q88.9317 795.825 85.8531 791.242 Q82.7975 786.635 82.7975 777.908 Q82.7975 769.158 85.8531 764.575 Q88.9317 759.969 94.7419 759.969 Z" fill="#000000" fill-rule="evenodd" fill-opacity="1" /><path clip-path="url(#clip570)" d="M 0 0 M111.756 789.274 L116.64 789.274 L116.64 795.154 L111.756 795.154 L111.756 789.274 Z" fill="#000000" fill-rule="evenodd" fill-opacity="1" /><path clip-path="url(#clip570)" d="M 0 0 M131.709 763.672 Q128.098 763.672 126.27 767.237 Q124.464 770.779 124.464 777.908 Q124.464 785.015 126.27 788.58 Q128.098 792.121 131.709 792.121 Q135.344 792.121 137.149 788.58 Q138.978 785.015 138.978 777.908 Q138.978 770.779 137.149 767.237 Q135.344 763.672 131.709 763.672 M131.709 759.969 Q137.519 759.969 140.575 764.575 Q143.654 769.158 143.654 777.908 Q143.654 786.635 140.575 791.242 Q137.519 795.825 131.709 795.825 Q125.899 795.825 122.82 791.242 Q119.765 786.635 119.765 777.908 Q119.765 769.158 122.82 764.575 Q125.899 759.969 131.709 759.969 Z" fill="#000000" fill-rule="evenodd" fill-opacity="1" /><path clip-path="url(#clip570)" d="M 0 0 M95.7373 429.481 Q92.1262 429.481 90.2975 433.046 Q88.4919 436.588 88.4919 443.718 Q88.4919 450.824 90.2975 454.389 Q92.1262 457.93 95.7373 457.93 Q99.3715 457.93 101.177 454.389 Q103.006 450.824 103.006 443.718 Q103.006 436.588 101.177 433.046 Q99.3715 429.481 95.7373 429.481 M95.7373 425.778 Q101.547 425.778 104.603 430.384 Q107.682 434.968 107.682 443.718 Q107.682 452.444 104.603 457.051 Q101.547 461.634 95.7373 461.634 Q89.9271 461.634 86.8484 457.051 Q83.7929 452.444 83.7929 443.718 Q83.7929 434.968 86.8484 430.384 Q89.9271 425.778 95.7373 425.778 Z" fill="#000000" fill-rule="evenodd" fill-opacity="1" /><path clip-path="url(#clip570)" d="M 0 0 M112.751 455.083 L117.635 455.083 L117.635 460.963 L112.751 460.963 L112.751 455.083 Z" fill="#000000" fill-rule="evenodd" fill-opacity="1" /><path clip-path="url(#clip570)" d="M 0 0 M122.751 426.403 L141.107 426.403 L141.107 430.338 L127.033 430.338 L127.033 438.81 Q128.052 438.463 129.07 438.301 Q130.089 438.116 131.107 438.116 Q136.894 438.116 140.274 441.287 Q143.654 444.458 143.654 449.875 Q143.654 455.454 140.181 458.555 Q136.709 461.634 130.39 461.634 Q128.214 461.634 125.945 461.264 Q123.7 460.893 121.293 460.153 L121.293 455.454 Q123.376 456.588 125.598 457.143 Q127.82 457.699 130.297 457.699 Q134.302 457.699 136.64 455.592 Q138.978 453.486 138.978 449.875 Q138.978 446.264 136.64 444.157 Q134.302 442.051 130.297 442.051 Q128.422 442.051 126.547 442.468 Q124.695 442.884 122.751 443.764 L122.751 426.403 Z" fill="#000000" fill-rule="evenodd" fill-opacity="1" /><path clip-path="url(#clip570)" d="M 0 0 M86.779 122.837 L94.4178 122.837 L94.4178 96.4712 L86.1077 98.1379 L86.1077 93.8786 L94.3715 92.212 L99.0474 92.212 L99.0474 122.837 L106.686 122.837 L106.686 126.772 L86.779 126.772 L86.779 122.837 Z" fill="#000000" fill-rule="evenodd" fill-opacity="1" /><path clip-path="url(#clip570)" d="M 0 0 M111.756 120.892 L116.64 120.892 L116.64 126.772 L111.756 126.772 L111.756 120.892 Z" fill="#000000" fill-rule="evenodd" fill-opacity="1" /><path clip-path="url(#clip570)" d="M 0 0 M131.709 95.2907 Q128.098 95.2907 126.27 98.8554 Q124.464 102.397 124.464 109.527 Q124.464 116.633 126.27 120.198 Q128.098 123.74 131.709 123.74 Q135.344 123.74 137.149 120.198 Q138.978 116.633 138.978 109.527 Q138.978 102.397 137.149 98.8554 Q135.344 95.2907 131.709 95.2907 M131.709 91.587 Q137.519 91.587 140.575 96.1934 Q143.654 100.777 143.654 109.527 Q143.654 118.253 140.575 122.86 Q137.519 127.443 131.709 127.443 Q125.899 127.443 122.82 122.86 Q119.765 118.253 119.765 109.527 Q119.765 100.777 122.82 96.1934 Q125.899 91.587 131.709 91.587 Z" fill="#000000" fill-rule="evenodd" fill-opacity="1" /><circle clip-path="url(#clip572)" cx="753.681" cy="1444.58" r="14" fill="#009af9" fill-rule="evenodd" fill-opacity="1" stroke="#000000" stroke-opacity="1" stroke-width="3.2"/>
<circle clip-path="url(#clip572)" cx="1152.31" cy="996.565" r="14" fill="#009af9" fill-rule="evenodd" fill-opacity="1" stroke="#000000" stroke-opacity="1" stroke-width="3.2"/>
<circle clip-path="url(#clip572)" cx="1550.94" cy="283.153" r="14" fill="#009af9" fill-rule="evenodd" fill-opacity="1" stroke="#000000" stroke-opacity="1" stroke-width="3.2"/>
<circle clip-path="url(#clip572)" cx="1949.57" cy="170.116" r="14" fill="#009af9" fill-rule="evenodd" fill-opacity="1" stroke="#000000" stroke-opacity="1" stroke-width="3.2"/>
<polyline clip-path="url(#clip572)" style="stroke:#e26f46; stroke-width:4; stroke-opacity:1; fill:none" points="
  241.157,872.196 282.995,952.311 324.834,1029.81 366.673,1103.54 408.511,1172.4 450.35,1235.34 492.189,1291.44 534.027,1339.84 575.866,1379.83 617.705,1410.8 
  659.544,1432.3 701.382,1443.99 743.221,1445.72 785.06,1437.44 826.898,1419.28 868.737,1391.52 910.576,1354.56 952.415,1308.98 994.253,1255.44 1036.09,1194.74 
  1077.93,1127.81 1119.77,1055.63 1161.61,979.3 1203.45,899.948 1245.29,818.769 1287.12,736.978 1328.96,655.799 1370.8,576.448 1412.64,500.113 1454.48,427.938 
  1496.32,361.003 1538.16,300.311 1580,246.77 1621.83,201.182 1663.67,164.231 1705.51,136.469 1747.35,118.312 1789.19,110.032 1831.03,111.752 1872.87,123.448 
  1914.7,144.944 1956.54,175.918 1998.38,215.907 2040.22,264.311 2082.06,320.405 2123.9,383.351 2165.74,452.204 2207.58,525.934 2249.41,603.437 2291.25,683.552 
  
  "/>
<polyline clip-path="url(#clip572)" style="stroke:#3da44d; stroke-width:4; stroke-opacity:1; fill:none" points="
  241.157,237.325 282.995,450.074 324.834,639.101 366.673,805.407 408.511,949.994 450.35,1073.86 492.189,1178.01 534.027,1263.44 575.866,1331.16 617.705,1382.16 
  659.544,1417.45 701.382,1438.03 743.221,1444.89 785.06,1439.04 826.898,1421.49 868.737,1393.22 910.576,1355.24 952.415,1308.56 994.253,1254.18 1036.09,1193.08 
  1077.93,1126.29 1119.77,1054.79 1161.61,979.584 1203.45,901.681 1245.29,822.078 1287.12,741.776 1328.96,661.776 1370.8,583.078 1412.64,506.685 1454.48,433.596 
  1496.32,364.813 1538.16,301.337 1580,244.168 1621.83,194.308 1663.67,152.758 1705.51,120.519 1747.35,98.5912 1789.19,87.9763 1831.03,89.675 1872.87,104.688 
  1914.7,134.017 1956.54,178.663 1998.38,239.626 2040.22,317.908 2082.06,414.509 2123.9,530.431 2165.74,666.675 2207.58,824.241 2249.41,1004.13 2291.25,1207.34 
  
  "/>
<path clip-path="url(#clip570)" d="
M1987.27 337.138 L2280.32 337.138 L2280.32 95.2176 L1987.27 95.2176  Z
  " fill="#ffffff" fill-rule="evenodd" fill-opacity="1"/>
<polyline clip-path="url(#clip570)" style="stroke:#000000; stroke-width:4; stroke-opacity:1; fill:none" points="
  1987.27,337.138 2280.32,337.138 2280.32,95.2176 1987.27,95.2176 1987.27,337.138 
  "/>
<circle clip-path="url(#clip570)" cx="2083.85" cy="155.698" r="23" fill="#009af9" fill-rule="evenodd" fill-opacity="1" stroke="#000000" stroke-opacity="1" stroke-width="5.12"/>
<path clip-path="url(#clip570)" d="M 0 0 M2194.27 175.385 Q2192.47 180.015 2190.76 181.427 Q2189.04 182.839 2186.17 182.839 L2182.77 182.839 L2182.77 179.274 L2185.27 179.274 Q2187.03 179.274 2188 178.44 Q2188.97 177.607 2190.15 174.505 L2190.92 172.561 L2180.43 147.052 L2184.94 147.052 L2193.05 167.329 L2201.15 147.052 L2205.66 147.052 L2194.27 175.385 Z" fill="#000000" fill-rule="evenodd" fill-opacity="1" /><path clip-path="url(#clip570)" d="M 0 0 M2211.54 169.042 L2219.18 169.042 L2219.18 142.677 L2210.87 144.343 L2210.87 140.084 L2219.13 138.418 L2223.81 138.418 L2223.81 169.042 L2231.45 169.042 L2231.45 172.978 L2211.54 172.978 L2211.54 169.042 Z" fill="#000000" fill-rule="evenodd" fill-opacity="1" /><polyline clip-path="url(#clip570)" style="stroke:#e26f46; stroke-width:4; stroke-opacity:1; fill:none" points="
  2011.41,216.178 2156.29,216.178 
  "/>
<path clip-path="url(#clip570)" d="M 0 0 M2194.27 235.865 Q2192.47 240.495 2190.76 241.907 Q2189.04 243.319 2186.17 243.319 L2182.77 243.319 L2182.77 239.754 L2185.27 239.754 Q2187.03 239.754 2188 238.92 Q2188.97 238.087 2190.15 234.985 L2190.92 233.041 L2180.43 207.532 L2184.94 207.532 L2193.05 227.809 L2201.15 207.532 L2205.66 207.532 L2194.27 235.865 Z" fill="#000000" fill-rule="evenodd" fill-opacity="1" /><path clip-path="url(#clip570)" d="M 0 0 M2214.76 229.522 L2231.08 229.522 L2231.08 233.458 L2209.13 233.458 L2209.13 229.522 Q2211.8 226.768 2216.38 222.138 Q2220.99 217.485 2222.17 216.143 Q2224.41 213.62 2225.29 211.884 Q2226.19 210.124 2226.19 208.435 Q2226.19 205.68 2224.25 203.944 Q2222.33 202.208 2219.23 202.208 Q2217.03 202.208 2214.57 202.972 Q2212.14 203.735 2209.37 205.286 L2209.37 200.564 Q2212.19 199.43 2214.64 198.851 Q2217.1 198.273 2219.13 198.273 Q2224.5 198.273 2227.7 200.958 Q2230.89 203.643 2230.89 208.134 Q2230.89 210.263 2230.08 212.185 Q2229.3 214.083 2227.19 216.675 Q2226.61 217.347 2223.51 220.564 Q2220.41 223.759 2214.76 229.522 Z" fill="#000000" fill-rule="evenodd" fill-opacity="1" /><polyline clip-path="url(#clip570)" style="stroke:#3da44d; stroke-width:4; stroke-opacity:1; fill:none" points="
  2011.41,276.658 2156.29,276.658 
  "/>
<path clip-path="url(#clip570)" d="M 0 0 M2194.27 296.345 Q2192.47 300.975 2190.76 302.387 Q2189.04 303.799 2186.17 303.799 L2182.77 303.799 L2182.77 300.234 L2185.27 300.234 Q2187.03 300.234 2188 299.4 Q2188.97 298.567 2190.15 295.465 L2190.92 293.521 L2180.43 268.012 L2184.94 268.012 L2193.05 288.289 L2201.15 268.012 L2205.66 268.012 L2194.27 296.345 Z" fill="#000000" fill-rule="evenodd" fill-opacity="1" /><path clip-path="url(#clip570)" d="M 0 0 M2224.9 275.303 Q2228.25 276.021 2230.13 278.289 Q2232.03 280.558 2232.03 283.891 Q2232.03 289.007 2228.51 291.808 Q2224.99 294.609 2218.51 294.609 Q2216.33 294.609 2214.02 294.169 Q2211.73 293.752 2209.27 292.896 L2209.27 288.382 Q2211.22 289.516 2213.53 290.095 Q2215.85 290.674 2218.37 290.674 Q2222.77 290.674 2225.06 288.938 Q2227.38 287.201 2227.38 283.891 Q2227.38 280.836 2225.22 279.123 Q2223.09 277.387 2219.27 277.387 L2215.25 277.387 L2215.25 273.544 L2219.46 273.544 Q2222.91 273.544 2224.74 272.178 Q2226.57 270.79 2226.57 268.197 Q2226.57 265.535 2224.67 264.123 Q2222.79 262.688 2219.27 262.688 Q2217.35 262.688 2215.15 263.104 Q2212.95 263.521 2210.32 264.401 L2210.32 260.234 Q2212.98 259.493 2215.29 259.123 Q2217.63 258.753 2219.69 258.753 Q2225.01 258.753 2228.12 261.183 Q2231.22 263.59 2231.22 267.711 Q2231.22 270.581 2229.57 272.572 Q2227.93 274.54 2224.9 275.303 Z" fill="#000000" fill-rule="evenodd" fill-opacity="1" /></svg>
