<?xml version="1.0" encoding="utf-8"?>
<svg xmlns="http://www.w3.org/2000/svg" xmlns:xlink="http://www.w3.org/1999/xlink" width="600" height="400" viewBox="0 0 2400 1600">
<defs>
  <clipPath id="clip360">
    <rect x="0" y="0" width="2400" height="1600"/>
  </clipPath>
</defs>
<path clip-path="url(#clip360)" d="
M0 1600 L2400 1600 L2400 0 L0 0  Z
  " fill="#ffffff" fill-rule="evenodd" fill-opacity="1"/>
<defs>
  <clipPath id="clip361">
    <rect x="480" y="0" width="1681" height="1600"/>
  </clipPath>
</defs>
<path clip-path="url(#clip360)" d="
M155.765 1486.45 L2352.76 1486.45 L2352.76 47.2441 L155.765 47.2441  Z
  " fill="#ffffff" fill-rule="evenodd" fill-opacity="1"/>
<defs>
  <clipPath id="clip362">
    <rect x="155" y="47" width="2198" height="1440"/>
  </clipPath>
</defs>
<polyline clip-path="url(#clip362)" style="stroke:#000000; stroke-linecap:butt; stroke-linejoin:round; stroke-width:2; stroke-opacity:0.1; fill:none" points="
  155.765,1486.45 155.765,47.2441 
  "/>
<polyline clip-path="url(#clip362)" style="stroke:#000000; stroke-linecap:butt; stroke-linejoin:round; stroke-width:2; stroke-opacity:0.1; fill:none" points="
  705.013,1486.45 705.013,47.2441 
  "/>
<polyline clip-path="url(#clip362)" style="stroke:#000000; stroke-linecap:butt; stroke-linejoin:round; stroke-width:2; stroke-opacity:0.1; fill:none" points="
  1254.26,1486.45 1254.26,47.2441 
  "/>
<polyline clip-path="url(#clip362)" style="stroke:#000000; stroke-linecap:butt; stroke-linejoin:round; stroke-width:2; stroke-opacity:0.1; fill:none" points="
  1803.51,1486.45 1803.51,47.2441 
  "/>
<polyline clip-path="url(#clip362)" style="stroke:#000000; stroke-linecap:butt; stroke-linejoin:round; stroke-width:2; stroke-opacity:0.1; fill:none" points="
  2352.76,1486.45 2352.76,47.2441 
  "/>
<polyline clip-path="url(#clip360)" style="stroke:#000000; stroke-linecap:butt; stroke-linejoin:round; stroke-width:4; stroke-opacity:1; fill:none" points="
  155.765,1486.45 2352.76,1486.45 
  "/>
<polyline clip-path="url(#clip360)" style="stroke:#000000; stroke-linecap:butt; stroke-linejoin:round; stroke-width:4; stroke-opacity:1; fill:none" points="
  155.765,1486.45 155.765,1467.55 
  "/>
<polyline clip-path="url(#clip360)" style="stroke:#000000; stroke-linecap:butt; stroke-linejoin:round; stroke-width:4; stroke-opacity:1; fill:none" points="
  705.013,1486.45 705.013,1467.55 
  "/>
<polyline clip-path="url(#clip360)" style="stroke:#000000; stroke-linecap:butt; stroke-linejoin:round; stroke-width:4; stroke-opacity:1; fill:none" points="
  1254.26,1486.45 1254.26,1467.55 
  "/>
<polyline clip-path="url(#clip360)" style="stroke:#000000; stroke-linecap:butt; stroke-linejoin:round; stroke-width:4; stroke-opacity:1; fill:none" points="
  1803.51,1486.45 1803.51,1467.55 
  "/>
<polyline clip-path="url(#clip360)" style="stroke:#000000; stroke-linecap:butt; stroke-linejoin:round; stroke-width:4; stroke-opacity:1; fill:none" points="
  2352.76,1486.45 2352.76,1467.55 
  "/>
<path clip-path="url(#clip360)" d="M102.293 1532.02 L131.969 1532.02 L131.969 1535.95 L102.293 1535.95 L102.293 1532.02 Z" fill="#000000" fill-rule="evenodd" fill-opacity="1" /><path clip-path="url(#clip360)" d="M142.871 1544.91 L150.51 1544.91 L150.51 1518.55 L142.2 1520.21 L142.2 1515.95 L150.464 1514.29 L155.14 1514.29 L155.14 1544.91 L162.779 1544.91 L162.779 1548.85 L142.871 1548.85 L142.871 1544.91 Z" fill="#000000" fill-rule="evenodd" fill-opacity="1" /><path clip-path="url(#clip360)" d="M172.223 1542.97 L177.107 1542.97 L177.107 1548.85 L172.223 1548.85 L172.223 1542.97 Z" fill="#000000" fill-rule="evenodd" fill-opacity="1" /><path clip-path="url(#clip360)" d="M197.292 1517.37 Q193.681 1517.37 191.853 1520.93 Q190.047 1524.47 190.047 1531.6 Q190.047 1538.71 191.853 1542.27 Q193.681 1545.82 197.292 1545.82 Q200.927 1545.82 202.732 1542.27 Q204.561 1538.71 204.561 1531.6 Q204.561 1524.47 202.732 1520.93 Q200.927 1517.37 197.292 1517.37 M197.292 1513.66 Q203.103 1513.66 206.158 1518.27 Q209.237 1522.85 209.237 1531.6 Q209.237 1540.33 206.158 1544.94 Q203.103 1549.52 197.292 1549.52 Q191.482 1549.52 188.404 1544.94 Q185.348 1540.33 185.348 1531.6 Q185.348 1522.85 188.404 1518.27 Q191.482 1513.66 197.292 1513.66 Z" fill="#000000" fill-rule="evenodd" fill-opacity="1" /><path clip-path="url(#clip360)" d="M652.038 1532.02 L681.714 1532.02 L681.714 1535.95 L652.038 1535.95 L652.038 1532.02 Z" fill="#000000" fill-rule="evenodd" fill-opacity="1" /><path clip-path="url(#clip360)" d="M701.807 1517.37 Q698.196 1517.37 696.367 1520.93 Q694.561 1524.47 694.561 1531.6 Q694.561 1538.71 696.367 1542.27 Q698.196 1545.82 701.807 1545.82 Q705.441 1545.82 707.246 1542.27 Q709.075 1538.71 709.075 1531.6 Q709.075 1524.47 707.246 1520.93 Q705.441 1517.37 701.807 1517.37 M701.807 1513.66 Q707.617 1513.66 710.672 1518.27 Q713.751 1522.85 713.751 1531.6 Q713.751 1540.33 710.672 1544.94 Q707.617 1549.52 701.807 1549.52 Q695.997 1549.52 692.918 1544.94 Q689.862 1540.33 689.862 1531.6 Q689.862 1522.85 692.918 1518.27 Q695.997 1513.66 701.807 1513.66 Z" fill="#000000" fill-rule="evenodd" fill-opacity="1" /><path clip-path="url(#clip360)" d="M721.969 1542.97 L726.853 1542.97 L726.853 1548.85 L721.969 1548.85 L721.969 1542.97 Z" fill="#000000" fill-rule="evenodd" fill-opacity="1" /><path clip-path="url(#clip360)" d="M737.084 1514.29 L755.441 1514.29 L755.441 1518.22 L741.367 1518.22 L741.367 1526.7 Q742.385 1526.35 743.404 1526.19 Q744.422 1526 745.441 1526 Q751.228 1526 754.607 1529.17 Q757.987 1532.34 757.987 1537.76 Q757.987 1543.34 754.515 1546.44 Q751.043 1549.52 744.723 1549.52 Q742.547 1549.52 740.279 1549.15 Q738.033 1548.78 735.626 1548.04 L735.626 1543.34 Q737.709 1544.47 739.931 1545.03 Q742.154 1545.58 744.63 1545.58 Q748.635 1545.58 750.973 1543.48 Q753.311 1541.37 753.311 1537.76 Q753.311 1534.15 750.973 1532.04 Q748.635 1529.94 744.63 1529.94 Q742.756 1529.94 740.881 1530.35 Q739.029 1530.77 737.084 1531.65 L737.084 1514.29 Z" fill="#000000" fill-rule="evenodd" fill-opacity="1" /><path clip-path="url(#clip360)" d="M1231.64 1517.37 Q1228.03 1517.37 1226.21 1520.93 Q1224.4 1524.47 1224.4 1531.6 Q1224.4 1538.71 1226.21 1542.27 Q1228.03 1545.82 1231.64 1545.82 Q1235.28 1545.82 1237.08 1542.27 Q1238.91 1538.71 1238.91 1531.6 Q1238.91 1524.47 1237.08 1520.93 Q1235.28 1517.37 1231.64 1517.37 M1231.64 1513.66 Q1237.45 1513.66 1240.51 1518.27 Q1243.59 1522.85 1243.59 1531.6 Q1243.59 1540.33 1240.51 1544.94 Q1237.45 1549.52 1231.64 1549.52 Q1225.83 1549.52 1222.76 1544.94 Q1219.7 1540.33 1219.7 1531.6 Q1219.7 1522.85 1222.76 1518.27 Q1225.83 1513.66 1231.64 1513.66 Z" fill="#000000" fill-rule="evenodd" fill-opacity="1" /><path clip-path="url(#clip360)" d="M1251.81 1542.97 L1256.69 1542.97 L1256.69 1548.85 L1251.81 1548.85 L1251.81 1542.97 Z" fill="#000000" fill-rule="evenodd" fill-opacity="1" /><path clip-path="url(#clip360)" d="M1276.88 1517.37 Q1273.26 1517.37 1271.44 1520.93 Q1269.63 1524.47 1269.63 1531.6 Q1269.63 1538.71 1271.44 1542.27 Q1273.26 1545.82 1276.88 1545.82 Q1280.51 1545.82 1282.32 1542.27 Q1284.14 1538.71 1284.14 1531.6 Q1284.14 1524.47 1282.32 1520.93 Q1280.51 1517.37 1276.88 1517.37 M1276.88 1513.66 Q1282.69 1513.66 1285.74 1518.27 Q1288.82 1522.85 1288.82 1531.6 Q1288.82 1540.33 1285.74 1544.94 Q1282.69 1549.52 1276.88 1549.52 Q1271.07 1549.52 1267.99 1544.94 Q1264.93 1540.33 1264.93 1531.6 Q1264.93 1522.85 1267.99 1518.27 Q1271.07 1513.66 1276.88 1513.66 Z" fill="#000000" fill-rule="evenodd" fill-opacity="1" /><path clip-path="url(#clip360)" d="M1781.39 1517.37 Q1777.78 1517.37 1775.95 1520.93 Q1774.14 1524.47 1774.14 1531.6 Q1774.14 1538.71 1775.95 1542.27 Q1777.78 1545.82 1781.39 1545.82 Q1785.02 1545.82 1786.83 1542.27 Q1788.66 1538.71 1788.66 1531.6 Q1788.66 1524.47 1786.83 1520.93 Q1785.02 1517.37 1781.39 1517.37 M1781.39 1513.66 Q1787.2 1513.66 1790.26 1518.27 Q1793.33 1522.85 1793.33 1531.6 Q1793.33 1540.33 1790.26 1544.94 Q1787.2 1549.52 1781.39 1549.52 Q1775.58 1549.52 1772.5 1544.94 Q1769.45 1540.33 1769.45 1531.6 Q1769.45 1522.85 1772.5 1518.27 Q1775.58 1513.66 1781.39 1513.66 Z" fill="#000000" fill-rule="evenodd" fill-opacity="1" /><path clip-path="url(#clip360)" d="M1801.55 1542.97 L1806.44 1542.97 L1806.44 1548.85 L1801.55 1548.85 L1801.55 1542.97 Z" fill="#000000" fill-rule="evenodd" fill-opacity="1" /><path clip-path="url(#clip360)" d="M1816.67 1514.29 L1835.02 1514.29 L1835.02 1518.22 L1820.95 1518.22 L1820.95 1526.7 Q1821.97 1526.35 1822.99 1526.19 Q1824.01 1526 1825.02 1526 Q1830.81 1526 1834.19 1529.17 Q1837.57 1532.34 1837.57 1537.76 Q1837.57 1543.34 1834.1 1546.44 Q1830.63 1549.52 1824.31 1549.52 Q1822.13 1549.52 1819.86 1549.15 Q1817.62 1548.78 1815.21 1548.04 L1815.21 1543.34 Q1817.29 1544.47 1819.52 1545.03 Q1821.74 1545.58 1824.21 1545.58 Q1828.22 1545.58 1830.56 1543.48 Q1832.89 1541.37 1832.89 1537.76 Q1832.89 1534.15 1830.56 1532.04 Q1828.22 1529.94 1824.21 1529.94 Q1822.34 1529.94 1820.46 1530.35 Q1818.61 1530.77 1816.67 1531.65 L1816.67 1514.29 Z" fill="#000000" fill-rule="evenodd" fill-opacity="1" /><path clip-path="url(#clip360)" d="M2319.91 1544.91 L2327.55 1544.91 L2327.55 1518.55 L2319.24 1520.21 L2319.24 1515.95 L2327.5 1514.29 L2332.18 1514.29 L2332.18 1544.91 L2339.82 1544.91 L2339.82 1548.85 L2319.91 1548.85 L2319.91 1544.91 Z" fill="#000000" fill-rule="evenodd" fill-opacity="1" /><path clip-path="url(#clip360)" d="M2349.26 1542.97 L2354.14 1542.97 L2354.14 1548.85 L2349.26 1548.85 L2349.26 1542.97 Z" fill="#000000" fill-rule="evenodd" fill-opacity="1" /><path clip-path="url(#clip360)" d="M2374.33 1517.37 Q2370.72 1517.37 2368.89 1520.93 Q2367.08 1524.47 2367.08 1531.6 Q2367.08 1538.71 2368.89 1542.27 Q2370.72 1545.82 2374.33 1545.82 Q2377.96 1545.82 2379.77 1542.27 Q2381.6 1538.71 2381.6 1531.6 Q2381.6 1524.47 2379.77 1520.93 Q2377.96 1517.37 2374.33 1517.37 M2374.33 1513.66 Q2380.14 1513.66 2383.2 1518.27 Q2386.27 1522.85 2386.27 1531.6 Q2386.27 1540.33 2383.2 1544.94 Q2380.14 1549.52 2374.33 1549.52 Q2368.52 1549.52 2365.44 1544.94 Q2362.39 1540.33 2362.39 1531.6 Q2362.39 1522.85 2365.44 1518.27 Q2368.52 1513.66 2374.33 1513.66 Z" fill="#000000" fill-rule="evenodd" fill-opacity="1" /><polyline clip-path="url(#clip362)" style="stroke:#000000; stroke-linecap:butt; stroke-linejoin:round; stroke-width:2; stroke-opacity:0.1; fill:none" points="
  155.765,1330.22 2352.76,1330.22 
  "/>
<polyline clip-path="url(#clip362)" style="stroke:#000000; stroke-linecap:butt; stroke-linejoin:round; stroke-width:2; stroke-opacity:0.1; fill:none" points="
  155.765,1135.79 2352.76,1135.79 
  "/>
<polyline clip-path="url(#clip362)" style="stroke:#000000; stroke-linecap:butt; stroke-linejoin:round; stroke-width:2; stroke-opacity:0.1; fill:none" points="
  155.765,941.356 2352.76,941.356 
  "/>
<polyline clip-path="url(#clip362)" style="stroke:#000000; stroke-linecap:butt; stroke-linejoin:round; stroke-width:2; stroke-opacity:0.1; fill:none" points="
  155.765,746.923 2352.76,746.923 
  "/>
<polyline clip-path="url(#clip362)" style="stroke:#000000; stroke-linecap:butt; stroke-linejoin:round; stroke-width:2; stroke-opacity:0.1; fill:none" points="
  155.765,552.489 2352.76,552.489 
  "/>
<polyline clip-path="url(#clip362)" style="stroke:#000000; stroke-linecap:butt; stroke-linejoin:round; stroke-width:2; stroke-opacity:0.1; fill:none" points="
  155.765,358.055 2352.76,358.055 
  "/>
<polyline clip-path="url(#clip362)" style="stroke:#000000; stroke-linecap:butt; stroke-linejoin:round; stroke-width:2; stroke-opacity:0.1; fill:none" points="
  155.765,163.622 2352.76,163.622 
  "/>
<polyline clip-path="url(#clip360)" style="stroke:#000000; stroke-linecap:butt; stroke-linejoin:round; stroke-width:4; stroke-opacity:1; fill:none" points="
  155.765,1486.45 155.765,47.2441 
  "/>
<polyline clip-path="url(#clip360)" style="stroke:#000000; stroke-linecap:butt; stroke-linejoin:round; stroke-width:4; stroke-opacity:1; fill:none" points="
  155.765,1330.22 174.663,1330.22 
  "/>
<polyline clip-path="url(#clip360)" style="stroke:#000000; stroke-linecap:butt; stroke-linejoin:round; stroke-width:4; stroke-opacity:1; fill:none" points="
  155.765,1135.79 174.663,1135.79 
  "/>
<polyline clip-path="url(#clip360)" style="stroke:#000000; stroke-linecap:butt; stroke-linejoin:round; stroke-width:4; stroke-opacity:1; fill:none" points="
  155.765,941.356 174.663,941.356 
  "/>
<polyline clip-path="url(#clip360)" style="stroke:#000000; stroke-linecap:butt; stroke-linejoin:round; stroke-width:4; stroke-opacity:1; fill:none" points="
  155.765,746.923 174.663,746.923 
  "/>
<polyline clip-path="url(#clip360)" style="stroke:#000000; stroke-linecap:butt; stroke-linejoin:round; stroke-width:4; stroke-opacity:1; fill:none" points="
  155.765,552.489 174.663,552.489 
  "/>
<polyline clip-path="url(#clip360)" style="stroke:#000000; stroke-linecap:butt; stroke-linejoin:round; stroke-width:4; stroke-opacity:1; fill:none" points="
  155.765,358.055 174.663,358.055 
  "/>
<polyline clip-path="url(#clip360)" style="stroke:#000000; stroke-linecap:butt; stroke-linejoin:round; stroke-width:4; stroke-opacity:1; fill:none" points="
  155.765,163.622 174.663,163.622 
  "/>
<path clip-path="url(#clip360)" d="M63.5847 1316.02 Q59.9736 1316.02 58.1449 1319.59 Q56.3393 1323.13 56.3393 1330.26 Q56.3393 1337.36 58.1449 1340.93 Q59.9736 1344.47 63.5847 1344.47 Q67.2189 1344.47 69.0244 1340.93 Q70.8531 1337.36 70.8531 1330.26 Q70.8531 1323.13 69.0244 1319.59 Q67.2189 1316.02 63.5847 1316.02 M63.5847 1312.32 Q69.3948 1312.32 72.4503 1316.92 Q75.529 1321.51 75.529 1330.26 Q75.529 1338.98 72.4503 1343.59 Q69.3948 1348.17 63.5847 1348.17 Q57.7745 1348.17 54.6958 1343.59 Q51.6403 1338.98 51.6403 1330.26 Q51.6403 1321.51 54.6958 1316.92 Q57.7745 1312.32 63.5847 1312.32 Z" fill="#000000" fill-rule="evenodd" fill-opacity="1" /><path clip-path="url(#clip360)" d="M83.7466 1341.62 L88.6308 1341.62 L88.6308 1347.5 L83.7466 1347.5 L83.7466 1341.62 Z" fill="#000000" fill-rule="evenodd" fill-opacity="1" /><path clip-path="url(#clip360)" d="M98.8622 1312.94 L117.219 1312.94 L117.219 1316.88 L103.145 1316.88 L103.145 1325.35 Q104.163 1325 105.182 1324.84 Q106.2 1324.66 107.219 1324.66 Q113.006 1324.66 116.385 1327.83 Q119.765 1331 119.765 1336.42 Q119.765 1341.99 116.293 1345.1 Q112.82 1348.17 106.501 1348.17 Q104.325 1348.17 102.057 1347.8 Q99.8113 1347.43 97.4039 1346.69 L97.4039 1341.99 Q99.4872 1343.13 101.709 1343.68 Q103.932 1344.24 106.408 1344.24 Q110.413 1344.24 112.751 1342.13 Q115.089 1340.03 115.089 1336.42 Q115.089 1332.8 112.751 1330.7 Q110.413 1328.59 106.408 1328.59 Q104.534 1328.59 102.659 1329.01 Q100.807 1329.42 98.8622 1330.3 L98.8622 1312.94 Z" fill="#000000" fill-rule="evenodd" fill-opacity="1" /><path clip-path="url(#clip360)" d="M53.3995 1149.13 L61.0384 1149.13 L61.0384 1122.77 L52.7282 1124.44 L52.7282 1120.18 L60.9921 1118.51 L65.668 1118.51 L65.668 1149.13 L73.3068 1149.13 L73.3068 1153.07 L53.3995 1153.07 L53.3995 1149.13 Z" fill="#000000" fill-rule="evenodd" fill-opacity="1" /><path clip-path="url(#clip360)" d="M82.7512 1147.19 L87.6354 1147.19 L87.6354 1153.07 L82.7512 1153.07 L82.7512 1147.19 Z" fill="#000000" fill-rule="evenodd" fill-opacity="1" /><path clip-path="url(#clip360)" d="M107.821 1121.59 Q104.209 1121.59 102.381 1125.15 Q100.575 1128.69 100.575 1135.82 Q100.575 1142.93 102.381 1146.5 Q104.209 1150.04 107.821 1150.04 Q111.455 1150.04 113.26 1146.5 Q115.089 1142.93 115.089 1135.82 Q115.089 1128.69 113.26 1125.15 Q111.455 1121.59 107.821 1121.59 M107.821 1117.88 Q113.631 1117.88 116.686 1122.49 Q119.765 1127.07 119.765 1135.82 Q119.765 1144.55 116.686 1149.16 Q113.631 1153.74 107.821 1153.74 Q102.01 1153.74 98.9317 1149.16 Q95.8761 1144.55 95.8761 1135.82 Q95.8761 1127.07 98.9317 1122.49 Q102.01 1117.88 107.821 1117.88 Z" fill="#000000" fill-rule="evenodd" fill-opacity="1" /><path clip-path="url(#clip360)" d="M54.3949 954.701 L62.0337 954.701 L62.0337 928.335 L53.7236 930.002 L53.7236 925.743 L61.9874 924.076 L66.6633 924.076 L66.6633 954.701 L74.3022 954.701 L74.3022 958.636 L54.3949 958.636 L54.3949 954.701 Z" fill="#000000" fill-rule="evenodd" fill-opacity="1" /><path clip-path="url(#clip360)" d="M83.7466 952.757 L88.6308 952.757 L88.6308 958.636 L83.7466 958.636 L83.7466 952.757 Z" fill="#000000" fill-rule="evenodd" fill-opacity="1" /><path clip-path="url(#clip360)" d="M98.8622 924.076 L117.219 924.076 L117.219 928.011 L103.145 928.011 L103.145 936.483 Q104.163 936.136 105.182 935.974 Q106.2 935.789 107.219 935.789 Q113.006 935.789 116.385 938.96 Q119.765 942.132 119.765 947.548 Q119.765 953.127 116.293 956.229 Q112.82 959.307 106.501 959.307 Q104.325 959.307 102.057 958.937 Q99.8113 958.567 97.4039 957.826 L97.4039 953.127 Q99.4872 954.261 101.709 954.817 Q103.932 955.372 106.408 955.372 Q110.413 955.372 112.751 953.266 Q115.089 951.159 115.089 947.548 Q115.089 943.937 112.751 941.831 Q110.413 939.724 106.408 939.724 Q104.534 939.724 102.659 940.141 Q100.807 940.558 98.8622 941.437 L98.8622 924.076 Z" fill="#000000" fill-rule="evenodd" fill-opacity="1" /><path clip-path="url(#clip360)" d="M56.6171 760.267 L72.9365 760.267 L72.9365 764.203 L50.9921 764.203 L50.9921 760.267 Q53.6541 757.513 58.2375 752.883 Q62.8439 748.23 64.0245 746.888 Q66.2698 744.365 67.1494 742.629 Q68.0522 740.869 68.0522 739.18 Q68.0522 736.425 66.1078 734.689 Q64.1865 732.953 61.0847 732.953 Q58.8856 732.953 56.4319 733.717 Q54.0014 734.481 51.2236 736.031 L51.2236 731.309 Q54.0477 730.175 56.5014 729.596 Q58.955 729.018 60.9921 729.018 Q66.3624 729.018 69.5568 731.703 Q72.7513 734.388 72.7513 738.879 Q72.7513 741.008 71.9411 742.93 Q71.1541 744.828 69.0476 747.42 Q68.4689 748.092 65.367 751.309 Q62.2652 754.504 56.6171 760.267 Z" fill="#000000" fill-rule="evenodd" fill-opacity="1" /><path clip-path="url(#clip360)" d="M82.7512 758.323 L87.6354 758.323 L87.6354 764.203 L82.7512 764.203 L82.7512 758.323 Z" fill="#000000" fill-rule="evenodd" fill-opacity="1" /><path clip-path="url(#clip360)" d="M107.821 732.721 Q104.209 732.721 102.381 736.286 Q100.575 739.828 100.575 746.957 Q100.575 754.064 102.381 757.629 Q104.209 761.17 107.821 761.17 Q111.455 761.17 113.26 757.629 Q115.089 754.064 115.089 746.957 Q115.089 739.828 113.26 736.286 Q111.455 732.721 107.821 732.721 M107.821 729.018 Q113.631 729.018 116.686 733.624 Q119.765 738.207 119.765 746.957 Q119.765 755.684 116.686 760.291 Q113.631 764.874 107.821 764.874 Q102.01 764.874 98.9317 760.291 Q95.8761 755.684 95.8761 746.957 Q95.8761 738.207 98.9317 733.624 Q102.01 729.018 107.821 729.018 Z" fill="#000000" fill-rule="evenodd" fill-opacity="1" /><path clip-path="url(#clip360)" d="M57.6125 565.834 L73.9318 565.834 L73.9318 569.769 L51.9875 569.769 L51.9875 565.834 Q54.6495 563.079 59.2328 558.45 Q63.8393 553.797 65.0198 552.454 Q67.2652 549.931 68.1448 548.195 Q69.0476 546.436 69.0476 544.746 Q69.0476 541.991 67.1032 540.255 Q65.1819 538.519 62.08 538.519 Q59.881 538.519 57.4273 539.283 Q54.9967 540.047 52.219 541.598 L52.219 536.876 Q55.043 535.741 57.4967 535.163 Q59.9504 534.584 61.9874 534.584 Q67.3578 534.584 70.5522 537.269 Q73.7466 539.954 73.7466 544.445 Q73.7466 546.575 72.9365 548.496 Q72.1494 550.394 70.0429 552.987 Q69.4642 553.658 66.3624 556.876 Q63.2606 560.07 57.6125 565.834 Z" fill="#000000" fill-rule="evenodd" fill-opacity="1" /><path clip-path="url(#clip360)" d="M83.7466 563.889 L88.6308 563.889 L88.6308 569.769 L83.7466 569.769 L83.7466 563.889 Z" fill="#000000" fill-rule="evenodd" fill-opacity="1" /><path clip-path="url(#clip360)" d="M98.8622 535.209 L117.219 535.209 L117.219 539.144 L103.145 539.144 L103.145 547.616 Q104.163 547.269 105.182 547.107 Q106.2 546.922 107.219 546.922 Q113.006 546.922 116.385 550.093 Q119.765 553.264 119.765 558.681 Q119.765 564.26 116.293 567.362 Q112.82 570.44 106.501 570.44 Q104.325 570.44 102.057 570.07 Q99.8113 569.7 97.4039 568.959 L97.4039 564.26 Q99.4872 565.394 101.709 565.95 Q103.932 566.505 106.408 566.505 Q110.413 566.505 112.751 564.399 Q115.089 562.292 115.089 558.681 Q115.089 555.07 112.751 552.964 Q110.413 550.857 106.408 550.857 Q104.534 550.857 102.659 551.274 Q100.807 551.69 98.8622 552.57 L98.8622 535.209 Z" fill="#000000" fill-rule="evenodd" fill-opacity="1" /><path clip-path="url(#clip360)" d="M66.7559 356.701 Q70.1124 357.419 71.9874 359.687 Q73.8855 361.956 73.8855 365.289 Q73.8855 370.405 70.367 373.206 Q66.8485 376.007 60.3671 376.007 Q58.1912 376.007 55.8764 375.567 Q53.5847 375.15 51.131 374.294 L51.131 369.78 Q53.0754 370.914 55.3903 371.493 Q57.7051 372.072 60.2282 372.072 Q64.6263 372.072 66.918 370.335 Q69.2328 368.599 69.2328 365.289 Q69.2328 362.234 67.08 360.521 Q64.9504 358.785 61.131 358.785 L57.1032 358.785 L57.1032 354.942 L61.3161 354.942 Q64.7652 354.942 66.5939 353.576 Q68.4226 352.187 68.4226 349.595 Q68.4226 346.933 66.5245 345.521 Q64.6495 344.086 61.131 344.086 Q59.2097 344.086 57.0106 344.502 Q54.8115 344.919 52.1727 345.799 L52.1727 341.632 Q54.8347 340.891 57.1495 340.521 Q59.4875 340.15 61.5476 340.15 Q66.8717 340.15 69.9735 342.581 Q73.0753 344.988 73.0753 349.109 Q73.0753 351.979 71.4318 353.97 Q69.7883 355.937 66.7559 356.701 Z" fill="#000000" fill-rule="evenodd" fill-opacity="1" /><path clip-path="url(#clip360)" d="M82.7512 369.456 L87.6354 369.456 L87.6354 375.335 L82.7512 375.335 L82.7512 369.456 Z" fill="#000000" fill-rule="evenodd" fill-opacity="1" /><path clip-path="url(#clip360)" d="M107.821 343.854 Q104.209 343.854 102.381 347.419 Q100.575 350.961 100.575 358.09 Q100.575 365.197 102.381 368.761 Q104.209 372.303 107.821 372.303 Q111.455 372.303 113.26 368.761 Q115.089 365.197 115.089 358.09 Q115.089 350.961 113.26 347.419 Q111.455 343.854 107.821 343.854 M107.821 340.15 Q113.631 340.15 116.686 344.757 Q119.765 349.34 119.765 358.09 Q119.765 366.817 116.686 371.423 Q113.631 376.007 107.821 376.007 Q102.01 376.007 98.9317 371.423 Q95.8761 366.817 95.8761 358.09 Q95.8761 349.34 98.9317 344.757 Q102.01 340.15 107.821 340.15 Z" fill="#000000" fill-rule="evenodd" fill-opacity="1" /><path clip-path="url(#clip360)" d="M67.7513 162.268 Q71.1078 162.985 72.9827 165.254 Q74.8809 167.522 74.8809 170.856 Q74.8809 175.971 71.3624 178.772 Q67.8439 181.573 61.3624 181.573 Q59.1865 181.573 56.8717 181.133 Q54.5801 180.717 52.1264 179.86 L52.1264 175.346 Q54.0708 176.481 56.3856 177.059 Q58.7004 177.638 61.2236 177.638 Q65.6217 177.638 67.9133 175.902 Q70.2281 174.166 70.2281 170.856 Q70.2281 167.8 68.0754 166.087 Q65.9457 164.351 62.1263 164.351 L58.0986 164.351 L58.0986 160.508 L62.3115 160.508 Q65.7606 160.508 67.5893 159.143 Q69.418 157.754 69.418 155.161 Q69.418 152.499 67.5198 151.087 Q65.6448 149.652 62.1263 149.652 Q60.205 149.652 58.006 150.069 Q55.8069 150.485 53.168 151.365 L53.168 147.198 Q55.8301 146.458 58.1449 146.087 Q60.4828 145.717 62.543 145.717 Q67.867 145.717 70.9689 148.147 Q74.0707 150.555 74.0707 154.675 Q74.0707 157.545 72.4272 159.536 Q70.7837 161.504 67.7513 162.268 Z" fill="#000000" fill-rule="evenodd" fill-opacity="1" /><path clip-path="url(#clip360)" d="M83.7466 175.022 L88.6308 175.022 L88.6308 180.902 L83.7466 180.902 L83.7466 175.022 Z" fill="#000000" fill-rule="evenodd" fill-opacity="1" /><path clip-path="url(#clip360)" d="M98.8622 146.342 L117.219 146.342 L117.219 150.277 L103.145 150.277 L103.145 158.749 Q104.163 158.402 105.182 158.24 Q106.2 158.055 107.219 158.055 Q113.006 158.055 116.385 161.226 Q119.765 164.397 119.765 169.814 Q119.765 175.393 116.293 178.494 Q112.82 181.573 106.501 181.573 Q104.325 181.573 102.057 181.203 Q99.8113 180.832 97.4039 180.092 L97.4039 175.393 Q99.4872 176.527 101.709 177.082 Q103.932 177.638 106.408 177.638 Q110.413 177.638 112.751 175.532 Q115.089 173.425 115.089 169.814 Q115.089 166.203 112.751 164.096 Q110.413 161.99 106.408 161.99 Q104.534 161.99 102.659 162.407 Q100.807 162.823 98.8622 163.703 L98.8622 146.342 Z" fill="#000000" fill-rule="evenodd" fill-opacity="1" /><polyline clip-path="url(#clip362)" style="stroke:#009af9; stroke-linecap:butt; stroke-linejoin:round; stroke-width:16; stroke-opacity:1; fill:none" points="
  155.765,1445.72 177.22,1440.96 375.607,1382.15 494.829,1330.86 595.629,1276.15 705.127,1204.13 806.074,1126.7 914.3,1034.5 1039.69,922.403 1151.12,826.238 
  1248.84,750.78 1355.38,682.192 1462.55,628.486 1581.04,583.309 1693.78,547.012 1811,507.098 1909.68,465.408 1969.91,434.296 2030.15,397.897 2086.78,358.248 
  2143.4,312.831 2234.12,226.973 2324.83,123.574 2338.79,106.004 2352.76,87.9763 
  "/>
<polyline clip-path="url(#clip362)" style="stroke:#e26f46; stroke-linecap:butt; stroke-linejoin:round; stroke-width:16; stroke-opacity:1; fill:none" points="
  155.765,1361.34 177.22,1356.44 375.607,1307.22 494.829,1275.24 595.629,1247.82 705.127,1218.8 806.074,1193.96 860.187,1181.83 914.3,1170.78 976.995,1159.55 
  1039.69,1150.26 1095.41,1143.81 1151.12,1139.2 1199.98,1136.74 1248.84,1135.8 1302.11,1136.53 1355.38,1139.07 1408.96,1143.4 1462.55,1149.44 1521.79,1157.97 
  1581.04,1168.27 1637.41,1179.51 1693.78,1191.95 1811,1220.77 1909.68,1246.95 2030.15,1279.71 2143.4,1309.97 2324.83,1354.94 2352.76,1361.34 
  "/>
<path clip-path="url(#clip360)" d="
M1956.77 328.498 L2279.52 328.498 L2279.52 95.2176 L1956.77 95.2176  Z
  " fill="#ffffff" fill-rule="evenodd" fill-opacity="1"/>
<polyline clip-path="url(#clip360)" style="stroke:#000000; stroke-linecap:butt; stroke-linejoin:round; stroke-width:4; stroke-opacity:1; fill:none" points="
  1956.77,328.498 2279.52,328.498 2279.52,95.2176 1956.77,95.2176 1956.77,328.498 
  "/>
<polyline clip-path="url(#clip360)" style="stroke:#009af9; stroke-linecap:butt; stroke-linejoin:round; stroke-width:6; stroke-opacity:1; fill:none" points="
  1981.18,172.978 2127.64,172.978 
  "/>
<path clip-path="url(#clip360)" d="M2172.82 202.509 Q2170.11 209.453 2167.54 211.571 Q2164.97 213.689 2160.67 213.689 L2155.56 213.689 L2155.56 208.342 L2159.31 208.342 Q2161.95 208.342 2163.41 207.092 Q2164.87 205.842 2166.64 201.189 L2167.78 198.273 L2152.06 160.009 L2158.83 160.009 L2170.98 190.425 L2183.13 160.009 L2189.9 160.009 L2172.82 202.509 Z" fill="#000000" fill-rule="evenodd" fill-opacity="1" /><path clip-path="url(#clip360)" d="M2200.84 192.995 L2212.3 192.995 L2212.3 153.446 L2199.83 155.946 L2199.83 149.558 L2212.23 147.058 L2219.24 147.058 L2219.24 192.995 L2230.7 192.995 L2230.7 198.898 L2200.84 198.898 L2200.84 192.995 Z" fill="#000000" fill-rule="evenodd" fill-opacity="1" /><polyline clip-path="url(#clip360)" style="stroke:#e26f46; stroke-linecap:butt; stroke-linejoin:round; stroke-width:6; stroke-opacity:1; fill:none" points="
  1981.18,250.738 2127.64,250.738 
  "/>
<path clip-path="url(#clip360)" d="M2172.82 280.269 Q2170.11 287.213 2167.54 289.331 Q2164.97 291.449 2160.67 291.449 L2155.56 291.449 L2155.56 286.102 L2159.31 286.102 Q2161.95 286.102 2163.41 284.852 Q2164.87 283.602 2166.64 278.949 L2167.78 276.033 L2152.06 237.769 L2158.83 237.769 L2170.98 268.185 L2183.13 237.769 L2189.9 237.769 L2172.82 280.269 Z" fill="#000000" fill-rule="evenodd" fill-opacity="1" /><path clip-path="url(#clip360)" d="M2205.67 270.755 L2230.15 270.755 L2230.15 276.658 L2197.23 276.658 L2197.23 270.755 Q2201.22 266.623 2208.1 259.678 Q2215.01 252.699 2216.78 250.685 Q2220.15 246.901 2221.46 244.297 Q2222.82 241.658 2222.82 239.123 Q2222.82 234.991 2219.9 232.387 Q2217.02 229.783 2212.37 229.783 Q2209.07 229.783 2205.39 230.929 Q2201.74 232.074 2197.58 234.401 L2197.58 227.318 Q2201.81 225.616 2205.49 224.748 Q2209.17 223.88 2212.23 223.88 Q2220.28 223.88 2225.08 227.908 Q2229.87 231.936 2229.87 238.672 Q2229.87 241.866 2228.65 244.748 Q2227.47 247.595 2224.31 251.484 Q2223.44 252.491 2218.79 257.317 Q2214.14 262.109 2205.67 270.755 Z" fill="#000000" fill-rule="evenodd" fill-opacity="1" /></svg>
