<?xml version="1.0" encoding="utf-8"?>
<svg xmlns="http://www.w3.org/2000/svg" xmlns:xlink="http://www.w3.org/1999/xlink" width="600" height="400" viewBox="0 0 2400 1600">
<defs>
  <clipPath id="clip760">
    <rect x="0" y="0" width="2400" height="1600"/>
  </clipPath>
</defs>
<path clip-path="url(#clip760)" d="
M0 1600 L2400 1600 L2400 0 L0 0  Z
  " fill="#ffffff" fill-rule="evenodd" fill-opacity="1"/>
<defs>
  <clipPath id="clip761">
    <rect x="480" y="0" width="1681" height="1600"/>
  </clipPath>
</defs>
<path clip-path="url(#clip760)" d="
M193.936 1486.45 L1152.76 1486.45 L1152.76 47.2441 L193.936 47.2441  Z
  " fill="#ffffff" fill-rule="evenodd" fill-opacity="1"/>
<defs>
  <clipPath id="clip762">
    <rect x="193" y="47" width="960" height="1440"/>
  </clipPath>
</defs>
<polyline clip-path="url(#clip762)" style="stroke:#000000; stroke-linecap:butt; stroke-linejoin:round; stroke-width:2; stroke-opacity:0.1; fill:none" points="
  251.321,1486.45 251.321,47.2441 
  "/>
<polyline clip-path="url(#clip762)" style="stroke:#000000; stroke-linecap:butt; stroke-linejoin:round; stroke-width:2; stroke-opacity:0.1; fill:none" points="
  405.605,1486.45 405.605,47.2441 
  "/>
<polyline clip-path="url(#clip762)" style="stroke:#000000; stroke-linecap:butt; stroke-linejoin:round; stroke-width:2; stroke-opacity:0.1; fill:none" points="
  559.89,1486.45 559.89,47.2441 
  "/>
<polyline clip-path="url(#clip762)" style="stroke:#000000; stroke-linecap:butt; stroke-linejoin:round; stroke-width:2; stroke-opacity:0.1; fill:none" points="
  714.174,1486.45 714.174,47.2441 
  "/>
<polyline clip-path="url(#clip762)" style="stroke:#000000; stroke-linecap:butt; stroke-linejoin:round; stroke-width:2; stroke-opacity:0.1; fill:none" points="
  868.458,1486.45 868.458,47.2441 
  "/>
<polyline clip-path="url(#clip762)" style="stroke:#000000; stroke-linecap:butt; stroke-linejoin:round; stroke-width:2; stroke-opacity:0.1; fill:none" points="
  1022.74,1486.45 1022.74,47.2441 
  "/>
<polyline clip-path="url(#clip760)" style="stroke:#000000; stroke-linecap:butt; stroke-linejoin:round; stroke-width:4; stroke-opacity:1; fill:none" points="
  193.936,1486.45 1152.76,1486.45 
  "/>
<polyline clip-path="url(#clip760)" style="stroke:#000000; stroke-linecap:butt; stroke-linejoin:round; stroke-width:4; stroke-opacity:1; fill:none" points="
  251.321,1486.45 251.321,1467.55 
  "/>
<polyline clip-path="url(#clip760)" style="stroke:#000000; stroke-linecap:butt; stroke-linejoin:round; stroke-width:4; stroke-opacity:1; fill:none" points="
  405.605,1486.45 405.605,1467.55 
  "/>
<polyline clip-path="url(#clip760)" style="stroke:#000000; stroke-linecap:butt; stroke-linejoin:round; stroke-width:4; stroke-opacity:1; fill:none" points="
  559.89,1486.45 559.89,1467.55 
  "/>
<polyline clip-path="url(#clip760)" style="stroke:#000000; stroke-linecap:butt; stroke-linejoin:round; stroke-width:4; stroke-opacity:1; fill:none" points="
  714.174,1486.45 714.174,1467.55 
  "/>
<polyline clip-path="url(#clip760)" style="stroke:#000000; stroke-linecap:butt; stroke-linejoin:round; stroke-width:4; stroke-opacity:1; fill:none" points="
  868.458,1486.45 868.458,1467.55 
  "/>
<polyline clip-path="url(#clip760)" style="stroke:#000000; stroke-linecap:butt; stroke-linejoin:round; stroke-width:4; stroke-opacity:1; fill:none" points="
  1022.74,1486.45 1022.74,1467.55 
  "/>
<path clip-path="url(#clip760)" d="M197.849 1532.02 L227.525 1532.02 L227.525 1535.95 L197.849 1535.95 L197.849 1532.02 Z" fill="#000000" fill-rule="evenodd" fill-opacity="1" /><path clip-path="url(#clip760)" d="M238.427 1544.91 L246.066 1544.91 L246.066 1518.55 L237.756 1520.21 L237.756 1515.95 L246.02 1514.29 L250.696 1514.29 L250.696 1544.91 L258.335 1544.91 L258.335 1548.85 L238.427 1548.85 L238.427 1544.91 Z" fill="#000000" fill-rule="evenodd" fill-opacity="1" /><path clip-path="url(#clip760)" d="M267.779 1542.97 L272.663 1542.97 L272.663 1548.85 L267.779 1548.85 L267.779 1542.97 Z" fill="#000000" fill-rule="evenodd" fill-opacity="1" /><path clip-path="url(#clip760)" d="M292.848 1517.37 Q289.237 1517.37 287.409 1520.93 Q285.603 1524.47 285.603 1531.6 Q285.603 1538.71 287.409 1542.27 Q289.237 1545.82 292.848 1545.82 Q296.483 1545.82 298.288 1542.27 Q300.117 1538.71 300.117 1531.6 Q300.117 1524.47 298.288 1520.93 Q296.483 1517.37 292.848 1517.37 M292.848 1513.66 Q298.659 1513.66 301.714 1518.27 Q304.793 1522.85 304.793 1531.6 Q304.793 1540.33 301.714 1544.94 Q298.659 1549.52 292.848 1549.52 Q287.038 1549.52 283.96 1544.94 Q280.904 1540.33 280.904 1531.6 Q280.904 1522.85 283.96 1518.27 Q287.038 1513.66 292.848 1513.66 Z" fill="#000000" fill-rule="evenodd" fill-opacity="1" /><path clip-path="url(#clip760)" d="M352.631 1532.02 L382.307 1532.02 L382.307 1535.95 L352.631 1535.95 L352.631 1532.02 Z" fill="#000000" fill-rule="evenodd" fill-opacity="1" /><path clip-path="url(#clip760)" d="M402.399 1517.37 Q398.788 1517.37 396.959 1520.93 Q395.154 1524.47 395.154 1531.6 Q395.154 1538.71 396.959 1542.27 Q398.788 1545.82 402.399 1545.82 Q406.033 1545.82 407.839 1542.27 Q409.668 1538.71 409.668 1531.6 Q409.668 1524.47 407.839 1520.93 Q406.033 1517.37 402.399 1517.37 M402.399 1513.66 Q408.209 1513.66 411.265 1518.27 Q414.344 1522.85 414.344 1531.6 Q414.344 1540.33 411.265 1544.94 Q408.209 1549.52 402.399 1549.52 Q396.589 1549.52 393.51 1544.94 Q390.455 1540.33 390.455 1531.6 Q390.455 1522.85 393.51 1518.27 Q396.589 1513.66 402.399 1513.66 Z" fill="#000000" fill-rule="evenodd" fill-opacity="1" /><path clip-path="url(#clip760)" d="M422.561 1542.97 L427.445 1542.97 L427.445 1548.85 L422.561 1548.85 L422.561 1542.97 Z" fill="#000000" fill-rule="evenodd" fill-opacity="1" /><path clip-path="url(#clip760)" d="M437.677 1514.29 L456.033 1514.29 L456.033 1518.22 L441.959 1518.22 L441.959 1526.7 Q442.978 1526.35 443.996 1526.19 Q445.015 1526 446.033 1526 Q451.82 1526 455.2 1529.17 Q458.579 1532.34 458.579 1537.76 Q458.579 1543.34 455.107 1546.44 Q451.635 1549.52 445.316 1549.52 Q443.14 1549.52 440.871 1549.15 Q438.626 1548.78 436.218 1548.04 L436.218 1543.34 Q438.302 1544.47 440.524 1545.03 Q442.746 1545.58 445.223 1545.58 Q449.228 1545.58 451.566 1543.48 Q453.904 1541.37 453.904 1537.76 Q453.904 1534.15 451.566 1532.04 Q449.228 1529.94 445.223 1529.94 Q443.348 1529.94 441.473 1530.35 Q439.621 1530.77 437.677 1531.65 L437.677 1514.29 Z" fill="#000000" fill-rule="evenodd" fill-opacity="1" /><path clip-path="url(#clip760)" d="M537.274 1517.37 Q533.663 1517.37 531.834 1520.93 Q530.029 1524.47 530.029 1531.6 Q530.029 1538.71 531.834 1542.27 Q533.663 1545.82 537.274 1545.82 Q540.908 1545.82 542.714 1542.27 Q544.542 1538.71 544.542 1531.6 Q544.542 1524.47 542.714 1520.93 Q540.908 1517.37 537.274 1517.37 M537.274 1513.66 Q543.084 1513.66 546.14 1518.27 Q549.218 1522.85 549.218 1531.6 Q549.218 1540.33 546.14 1544.94 Q543.084 1549.52 537.274 1549.52 Q531.464 1549.52 528.385 1544.94 Q525.33 1540.33 525.33 1531.6 Q525.33 1522.85 528.385 1518.27 Q531.464 1513.66 537.274 1513.66 Z" fill="#000000" fill-rule="evenodd" fill-opacity="1" /><path clip-path="url(#clip760)" d="M557.436 1542.97 L562.32 1542.97 L562.32 1548.85 L557.436 1548.85 L557.436 1542.97 Z" fill="#000000" fill-rule="evenodd" fill-opacity="1" /><path clip-path="url(#clip760)" d="M582.505 1517.37 Q578.894 1517.37 577.065 1520.93 Q575.26 1524.47 575.26 1531.6 Q575.26 1538.71 577.065 1542.27 Q578.894 1545.82 582.505 1545.82 Q586.139 1545.82 587.945 1542.27 Q589.774 1538.71 589.774 1531.6 Q589.774 1524.47 587.945 1520.93 Q586.139 1517.37 582.505 1517.37 M582.505 1513.66 Q588.315 1513.66 591.371 1518.27 Q594.45 1522.85 594.45 1531.6 Q594.45 1540.33 591.371 1544.94 Q588.315 1549.52 582.505 1549.52 Q576.695 1549.52 573.616 1544.94 Q570.561 1540.33 570.561 1531.6 Q570.561 1522.85 573.616 1518.27 Q576.695 1513.66 582.505 1513.66 Z" fill="#000000" fill-rule="evenodd" fill-opacity="1" /><path clip-path="url(#clip760)" d="M692.056 1517.37 Q688.445 1517.37 686.616 1520.93 Q684.811 1524.47 684.811 1531.6 Q684.811 1538.71 686.616 1542.27 Q688.445 1545.82 692.056 1545.82 Q695.69 1545.82 697.496 1542.27 Q699.324 1538.71 699.324 1531.6 Q699.324 1524.47 697.496 1520.93 Q695.69 1517.37 692.056 1517.37 M692.056 1513.66 Q697.866 1513.66 700.922 1518.27 Q704 1522.85 704 1531.6 Q704 1540.33 700.922 1544.94 Q697.866 1549.52 692.056 1549.52 Q686.246 1549.52 683.167 1544.94 Q680.111 1540.33 680.111 1531.6 Q680.111 1522.85 683.167 1518.27 Q686.246 1513.66 692.056 1513.66 Z" fill="#000000" fill-rule="evenodd" fill-opacity="1" /><path clip-path="url(#clip760)" d="M712.218 1542.97 L717.102 1542.97 L717.102 1548.85 L712.218 1548.85 L712.218 1542.97 Z" fill="#000000" fill-rule="evenodd" fill-opacity="1" /><path clip-path="url(#clip760)" d="M727.333 1514.29 L745.69 1514.29 L745.69 1518.22 L731.616 1518.22 L731.616 1526.7 Q732.634 1526.35 733.653 1526.19 Q734.671 1526 735.69 1526 Q741.477 1526 744.857 1529.17 Q748.236 1532.34 748.236 1537.76 Q748.236 1543.34 744.764 1546.44 Q741.292 1549.52 734.972 1549.52 Q732.796 1549.52 730.528 1549.15 Q728.283 1548.78 725.875 1548.04 L725.875 1543.34 Q727.958 1544.47 730.181 1545.03 Q732.403 1545.58 734.88 1545.58 Q738.884 1545.58 741.222 1543.48 Q743.56 1541.37 743.56 1537.76 Q743.56 1534.15 741.222 1532.04 Q738.884 1529.94 734.88 1529.94 Q733.005 1529.94 731.13 1530.35 Q729.278 1530.77 727.333 1531.65 L727.333 1514.29 Z" fill="#000000" fill-rule="evenodd" fill-opacity="1" /><path clip-path="url(#clip760)" d="M835.611 1544.91 L843.25 1544.91 L843.25 1518.55 L834.94 1520.21 L834.94 1515.95 L843.204 1514.29 L847.88 1514.29 L847.88 1544.91 L855.518 1544.91 L855.518 1548.85 L835.611 1548.85 L835.611 1544.91 Z" fill="#000000" fill-rule="evenodd" fill-opacity="1" /><path clip-path="url(#clip760)" d="M864.963 1542.97 L869.847 1542.97 L869.847 1548.85 L864.963 1548.85 L864.963 1542.97 Z" fill="#000000" fill-rule="evenodd" fill-opacity="1" /><path clip-path="url(#clip760)" d="M890.032 1517.37 Q886.421 1517.37 884.592 1520.93 Q882.787 1524.47 882.787 1531.6 Q882.787 1538.71 884.592 1542.27 Q886.421 1545.82 890.032 1545.82 Q893.666 1545.82 895.472 1542.27 Q897.301 1538.71 897.301 1531.6 Q897.301 1524.47 895.472 1520.93 Q893.666 1517.37 890.032 1517.37 M890.032 1513.66 Q895.842 1513.66 898.898 1518.27 Q901.976 1522.85 901.976 1531.6 Q901.976 1540.33 898.898 1544.94 Q895.842 1549.52 890.032 1549.52 Q884.222 1549.52 881.143 1544.94 Q878.088 1540.33 878.088 1531.6 Q878.088 1522.85 881.143 1518.27 Q884.222 1513.66 890.032 1513.66 Z" fill="#000000" fill-rule="evenodd" fill-opacity="1" /><path clip-path="url(#clip760)" d="M990.393 1544.91 L998.032 1544.91 L998.032 1518.55 L989.722 1520.21 L989.722 1515.95 L997.986 1514.29 L1002.66 1514.29 L1002.66 1544.91 L1010.3 1544.91 L1010.3 1548.85 L990.393 1548.85 L990.393 1544.91 Z" fill="#000000" fill-rule="evenodd" fill-opacity="1" /><path clip-path="url(#clip760)" d="M1019.74 1542.97 L1024.63 1542.97 L1024.63 1548.85 L1019.74 1548.85 L1019.74 1542.97 Z" fill="#000000" fill-rule="evenodd" fill-opacity="1" /><path clip-path="url(#clip760)" d="M1034.86 1514.29 L1053.22 1514.29 L1053.22 1518.22 L1039.14 1518.22 L1039.14 1526.7 Q1040.16 1526.35 1041.18 1526.19 Q1042.2 1526 1043.22 1526 Q1049 1526 1052.38 1529.17 Q1055.76 1532.34 1055.76 1537.76 Q1055.76 1543.34 1052.29 1546.44 Q1048.82 1549.52 1042.5 1549.52 Q1040.32 1549.52 1038.05 1549.15 Q1035.81 1548.78 1033.4 1548.04 L1033.4 1543.34 Q1035.49 1544.47 1037.71 1545.03 Q1039.93 1545.58 1042.41 1545.58 Q1046.41 1545.58 1048.75 1543.48 Q1051.09 1541.37 1051.09 1537.76 Q1051.09 1534.15 1048.75 1532.04 Q1046.41 1529.94 1042.41 1529.94 Q1040.53 1529.94 1038.66 1530.35 Q1036.8 1530.77 1034.86 1531.65 L1034.86 1514.29 Z" fill="#000000" fill-rule="evenodd" fill-opacity="1" /><polyline clip-path="url(#clip762)" style="stroke:#000000; stroke-linecap:butt; stroke-linejoin:round; stroke-width:2; stroke-opacity:0.1; fill:none" points="
  193.936,1357.04 1152.76,1357.04 
  "/>
<polyline clip-path="url(#clip762)" style="stroke:#000000; stroke-linecap:butt; stroke-linejoin:round; stroke-width:2; stroke-opacity:0.1; fill:none" points="
  193.936,1048.47 1152.76,1048.47 
  "/>
<polyline clip-path="url(#clip762)" style="stroke:#000000; stroke-linecap:butt; stroke-linejoin:round; stroke-width:2; stroke-opacity:0.1; fill:none" points="
  193.936,739.902 1152.76,739.902 
  "/>
<polyline clip-path="url(#clip762)" style="stroke:#000000; stroke-linecap:butt; stroke-linejoin:round; stroke-width:2; stroke-opacity:0.1; fill:none" points="
  193.936,431.333 1152.76,431.333 
  "/>
<polyline clip-path="url(#clip762)" style="stroke:#000000; stroke-linecap:butt; stroke-linejoin:round; stroke-width:2; stroke-opacity:0.1; fill:none" points="
  193.936,122.764 1152.76,122.764 
  "/>
<polyline clip-path="url(#clip760)" style="stroke:#000000; stroke-linecap:butt; stroke-linejoin:round; stroke-width:4; stroke-opacity:1; fill:none" points="
  193.936,1486.45 193.936,47.2441 
  "/>
<polyline clip-path="url(#clip760)" style="stroke:#000000; stroke-linecap:butt; stroke-linejoin:round; stroke-width:4; stroke-opacity:1; fill:none" points="
  193.936,1357.04 212.834,1357.04 
  "/>
<polyline clip-path="url(#clip760)" style="stroke:#000000; stroke-linecap:butt; stroke-linejoin:round; stroke-width:4; stroke-opacity:1; fill:none" points="
  193.936,1048.47 212.834,1048.47 
  "/>
<polyline clip-path="url(#clip760)" style="stroke:#000000; stroke-linecap:butt; stroke-linejoin:round; stroke-width:4; stroke-opacity:1; fill:none" points="
  193.936,739.902 212.834,739.902 
  "/>
<polyline clip-path="url(#clip760)" style="stroke:#000000; stroke-linecap:butt; stroke-linejoin:round; stroke-width:4; stroke-opacity:1; fill:none" points="
  193.936,431.333 212.834,431.333 
  "/>
<polyline clip-path="url(#clip760)" style="stroke:#000000; stroke-linecap:butt; stroke-linejoin:round; stroke-width:4; stroke-opacity:1; fill:none" points="
  193.936,122.764 212.834,122.764 
  "/>
<path clip-path="url(#clip760)" d="M97.8206 1357.49 L127.496 1357.49 L127.496 1361.43 L97.8206 1361.43 L97.8206 1357.49 Z" fill="#000000" fill-rule="evenodd" fill-opacity="1" /><path clip-path="url(#clip760)" d="M141.617 1370.38 L157.936 1370.38 L157.936 1374.32 L135.992 1374.32 L135.992 1370.38 Q138.654 1367.63 143.237 1363 Q147.843 1358.35 149.024 1357 Q151.269 1354.48 152.149 1352.74 Q153.052 1350.99 153.052 1349.3 Q153.052 1346.54 151.107 1344.81 Q149.186 1343.07 146.084 1343.07 Q143.885 1343.07 141.431 1343.83 Q139.001 1344.6 136.223 1346.15 L136.223 1341.43 Q139.047 1340.29 141.501 1339.71 Q143.955 1339.13 145.992 1339.13 Q151.362 1339.13 154.556 1341.82 Q157.751 1344.5 157.751 1348.99 Q157.751 1351.12 156.941 1353.05 Q156.154 1354.94 154.047 1357.54 Q153.468 1358.21 150.367 1361.43 Q147.265 1364.62 141.617 1370.38 Z" fill="#000000" fill-rule="evenodd" fill-opacity="1" /><path clip-path="url(#clip760)" d="M97.4502 1048.92 L127.126 1048.92 L127.126 1052.86 L97.4502 1052.86 L97.4502 1048.92 Z" fill="#000000" fill-rule="evenodd" fill-opacity="1" /><path clip-path="url(#clip760)" d="M138.029 1061.82 L145.668 1061.82 L145.668 1035.45 L137.357 1037.12 L137.357 1032.86 L145.621 1031.19 L150.297 1031.19 L150.297 1061.82 L157.936 1061.82 L157.936 1065.75 L138.029 1065.75 L138.029 1061.82 Z" fill="#000000" fill-rule="evenodd" fill-opacity="1" /><path clip-path="url(#clip760)" d="M145.992 725.7 Q142.381 725.7 140.552 729.265 Q138.746 732.807 138.746 739.936 Q138.746 747.043 140.552 750.608 Q142.381 754.149 145.992 754.149 Q149.626 754.149 151.431 750.608 Q153.26 747.043 153.26 739.936 Q153.26 732.807 151.431 729.265 Q149.626 725.7 145.992 725.7 M145.992 721.997 Q151.802 721.997 154.857 726.603 Q157.936 731.186 157.936 739.936 Q157.936 748.663 154.857 753.27 Q151.802 757.853 145.992 757.853 Q140.181 757.853 137.103 753.27 Q134.047 748.663 134.047 739.936 Q134.047 731.186 137.103 726.603 Q140.181 721.997 145.992 721.997 Z" fill="#000000" fill-rule="evenodd" fill-opacity="1" /><path clip-path="url(#clip760)" d="M138.029 444.678 L145.668 444.678 L145.668 418.312 L137.357 419.979 L137.357 415.72 L145.621 414.053 L150.297 414.053 L150.297 444.678 L157.936 444.678 L157.936 448.613 L138.029 448.613 L138.029 444.678 Z" fill="#000000" fill-rule="evenodd" fill-opacity="1" /><path clip-path="url(#clip760)" d="M141.617 136.109 L157.936 136.109 L157.936 140.044 L135.992 140.044 L135.992 136.109 Q138.654 133.355 143.237 128.725 Q147.843 124.072 149.024 122.73 Q151.269 120.207 152.149 118.471 Q153.052 116.711 153.052 115.021 Q153.052 112.267 151.107 110.531 Q149.186 108.795 146.084 108.795 Q143.885 108.795 141.431 109.559 Q139.001 110.322 136.223 111.873 L136.223 107.151 Q139.047 106.017 141.501 105.438 Q143.955 104.86 145.992 104.86 Q151.362 104.86 154.556 107.545 Q157.751 110.23 157.751 114.721 Q157.751 116.85 156.941 118.771 Q156.154 120.67 154.047 123.262 Q153.468 123.933 150.367 127.151 Q147.265 130.345 141.617 136.109 Z" fill="#000000" fill-rule="evenodd" fill-opacity="1" /><circle clip-path="url(#clip762)" cx="868.458" cy="739.902" r="14" fill="#009af9" fill-rule="evenodd" fill-opacity="1" stroke="#000000" stroke-opacity="1" stroke-width="3.2"/>
<circle clip-path="url(#clip762)" cx="958.439" cy="688.514" r="14" fill="#009af9" fill-rule="evenodd" fill-opacity="1" stroke="#000000" stroke-opacity="1" stroke-width="3.2"/>
<circle clip-path="url(#clip762)" cx="1029.31" cy="616.806" r="14" fill="#009af9" fill-rule="evenodd" fill-opacity="1" stroke="#000000" stroke-opacity="1" stroke-width="3.2"/>
<circle clip-path="url(#clip762)" cx="1069.91" cy="533.418" r="14" fill="#009af9" fill-rule="evenodd" fill-opacity="1" stroke="#000000" stroke-opacity="1" stroke-width="3.2"/>
<circle clip-path="url(#clip762)" cx="1074.19" cy="450.253" r="14" fill="#009af9" fill-rule="evenodd" fill-opacity="1" stroke="#000000" stroke-opacity="1" stroke-width="3.2"/>
<circle clip-path="url(#clip762)" cx="1042.25" cy="379.905" r="14" fill="#009af9" fill-rule="evenodd" fill-opacity="1" stroke="#000000" stroke-opacity="1" stroke-width="3.2"/>
<circle clip-path="url(#clip762)" cx="980.113" cy="332.938" r="14" fill="#009af9" fill-rule="evenodd" fill-opacity="1" stroke="#000000" stroke-opacity="1" stroke-width="3.2"/>
<circle clip-path="url(#clip762)" cx="898.208" cy="315.663" r="14" fill="#009af9" fill-rule="evenodd" fill-opacity="1" stroke="#000000" stroke-opacity="1" stroke-width="3.2"/>
<circle clip-path="url(#clip762)" cx="809.041" cy="328.901" r="14" fill="#009af9" fill-rule="evenodd" fill-opacity="1" stroke="#000000" stroke-opacity="1" stroke-width="3.2"/>
<circle clip-path="url(#clip762)" cx="724.528" cy="367.981" r="14" fill="#009af9" fill-rule="evenodd" fill-opacity="1" stroke="#000000" stroke-opacity="1" stroke-width="3.2"/>
<circle clip-path="url(#clip762)" cx="653.659" cy="423.963" r="14" fill="#009af9" fill-rule="evenodd" fill-opacity="1" stroke="#000000" stroke-opacity="1" stroke-width="3.2"/>
<circle clip-path="url(#clip762)" cx="600.983" cy="485.725" r="14" fill="#009af9" fill-rule="evenodd" fill-opacity="1" stroke="#000000" stroke-opacity="1" stroke-width="3.2"/>
<circle clip-path="url(#clip762)" cx="566.222" cy="542.43" r="14" fill="#009af9" fill-rule="evenodd" fill-opacity="1" stroke="#000000" stroke-opacity="1" stroke-width="3.2"/>
<circle clip-path="url(#clip762)" cx="545.02" cy="585.766" r="14" fill="#009af9" fill-rule="evenodd" fill-opacity="1" stroke="#000000" stroke-opacity="1" stroke-width="3.2"/>
<circle clip-path="url(#clip762)" cx="530.575" cy="611.465" r="14" fill="#009af9" fill-rule="evenodd" fill-opacity="1" stroke="#000000" stroke-opacity="1" stroke-width="3.2"/>
<circle clip-path="url(#clip762)" cx="515.687" cy="619.79" r="14" fill="#009af9" fill-rule="evenodd" fill-opacity="1" stroke="#000000" stroke-opacity="1" stroke-width="3.2"/>
<circle clip-path="url(#clip762)" cx="494.701" cy="614.947" r="14" fill="#009af9" fill-rule="evenodd" fill-opacity="1" stroke="#000000" stroke-opacity="1" stroke-width="3.2"/>
<circle clip-path="url(#clip762)" cx="464.845" cy="603.649" r="14" fill="#009af9" fill-rule="evenodd" fill-opacity="1" stroke="#000000" stroke-opacity="1" stroke-width="3.2"/>
<circle clip-path="url(#clip762)" cx="426.703" cy="593.248" r="14" fill="#009af9" fill-rule="evenodd" fill-opacity="1" stroke="#000000" stroke-opacity="1" stroke-width="3.2"/>
<circle clip-path="url(#clip762)" cx="383.73" cy="589.935" r="14" fill="#009af9" fill-rule="evenodd" fill-opacity="1" stroke="#000000" stroke-opacity="1" stroke-width="3.2"/>
<circle clip-path="url(#clip762)" cx="341.049" cy="597.452" r="14" fill="#009af9" fill-rule="evenodd" fill-opacity="1" stroke="#000000" stroke-opacity="1" stroke-width="3.2"/>
<circle clip-path="url(#clip762)" cx="303.877" cy="616.613" r="14" fill="#009af9" fill-rule="evenodd" fill-opacity="1" stroke="#000000" stroke-opacity="1" stroke-width="3.2"/>
<circle clip-path="url(#clip762)" cx="276.06" cy="645.664" r="14" fill="#009af9" fill-rule="evenodd" fill-opacity="1" stroke="#000000" stroke-opacity="1" stroke-width="3.2"/>
<circle clip-path="url(#clip762)" cx="259.115" cy="681.326" r="14" fill="#009af9" fill-rule="evenodd" fill-opacity="1" stroke="#000000" stroke-opacity="1" stroke-width="3.2"/>
<circle clip-path="url(#clip762)" cx="252.036" cy="720.137" r="14" fill="#009af9" fill-rule="evenodd" fill-opacity="1" stroke="#000000" stroke-opacity="1" stroke-width="3.2"/>
<circle clip-path="url(#clip762)" cx="251.874" cy="759.677" r="14" fill="#009af9" fill-rule="evenodd" fill-opacity="1" stroke="#000000" stroke-opacity="1" stroke-width="3.2"/>
<circle clip-path="url(#clip762)" cx="254.907" cy="799.297" r="14" fill="#009af9" fill-rule="evenodd" fill-opacity="1" stroke="#000000" stroke-opacity="1" stroke-width="3.2"/>
<circle clip-path="url(#clip762)" cx="258.022" cy="840.129" r="14" fill="#009af9" fill-rule="evenodd" fill-opacity="1" stroke="#000000" stroke-opacity="1" stroke-width="3.2"/>
<circle clip-path="url(#clip762)" cx="259.88" cy="884.378" r="14" fill="#009af9" fill-rule="evenodd" fill-opacity="1" stroke="#000000" stroke-opacity="1" stroke-width="3.2"/>
<circle clip-path="url(#clip762)" cx="261.514" cy="934.122" r="14" fill="#009af9" fill-rule="evenodd" fill-opacity="1" stroke="#000000" stroke-opacity="1" stroke-width="3.2"/>
<circle clip-path="url(#clip762)" cx="266.132" cy="989.981" r="14" fill="#009af9" fill-rule="evenodd" fill-opacity="1" stroke="#000000" stroke-opacity="1" stroke-width="3.2"/>
<circle clip-path="url(#clip762)" cx="278.175" cy="1050.1" r="14" fill="#009af9" fill-rule="evenodd" fill-opacity="1" stroke="#000000" stroke-opacity="1" stroke-width="3.2"/>
<circle clip-path="url(#clip762)" cx="301.859" cy="1109.81" r="14" fill="#009af9" fill-rule="evenodd" fill-opacity="1" stroke="#000000" stroke-opacity="1" stroke-width="3.2"/>
<circle clip-path="url(#clip762)" cx="339.629" cy="1162.1" r="14" fill="#009af9" fill-rule="evenodd" fill-opacity="1" stroke="#000000" stroke-opacity="1" stroke-width="3.2"/>
<circle clip-path="url(#clip762)" cx="390.954" cy="1198.95" r="14" fill="#009af9" fill-rule="evenodd" fill-opacity="1" stroke="#000000" stroke-opacity="1" stroke-width="3.2"/>
<circle clip-path="url(#clip762)" cx="451.878" cy="1213.13" r="14" fill="#009af9" fill-rule="evenodd" fill-opacity="1" stroke="#000000" stroke-opacity="1" stroke-width="3.2"/>
<circle clip-path="url(#clip762)" cx="515.499" cy="1200.05" r="14" fill="#009af9" fill-rule="evenodd" fill-opacity="1" stroke="#000000" stroke-opacity="1" stroke-width="3.2"/>
<circle clip-path="url(#clip762)" cx="573.337" cy="1159.25" r="14" fill="#009af9" fill-rule="evenodd" fill-opacity="1" stroke="#000000" stroke-opacity="1" stroke-width="3.2"/>
<circle clip-path="url(#clip762)" cx="617.291" cy="1094.95" r="14" fill="#009af9" fill-rule="evenodd" fill-opacity="1" stroke="#000000" stroke-opacity="1" stroke-width="3.2"/>
<circle clip-path="url(#clip762)" cx="641.713" cy="1015.59" r="14" fill="#009af9" fill-rule="evenodd" fill-opacity="1" stroke="#000000" stroke-opacity="1" stroke-width="3.2"/>
<circle clip-path="url(#clip762)" cx="645.058" cy="932.299" r="14" fill="#009af9" fill-rule="evenodd" fill-opacity="1" stroke="#000000" stroke-opacity="1" stroke-width="3.2"/>
<circle clip-path="url(#clip762)" cx="630.658" cy="856.641" r="14" fill="#009af9" fill-rule="evenodd" fill-opacity="1" stroke="#000000" stroke-opacity="1" stroke-width="3.2"/>
<circle clip-path="url(#clip762)" cx="606.35" cy="798.161" r="14" fill="#009af9" fill-rule="evenodd" fill-opacity="1" stroke="#000000" stroke-opacity="1" stroke-width="3.2"/>
<circle clip-path="url(#clip762)" cx="582.986" cy="762.269" r="14" fill="#009af9" fill-rule="evenodd" fill-opacity="1" stroke="#000000" stroke-opacity="1" stroke-width="3.2"/>
<circle clip-path="url(#clip762)" cx="572.109" cy="749.021" r="14" fill="#009af9" fill-rule="evenodd" fill-opacity="1" stroke="#000000" stroke-opacity="1" stroke-width="3.2"/>
<circle clip-path="url(#clip762)" cx="583.313" cy="753.093" r="14" fill="#009af9" fill-rule="evenodd" fill-opacity="1" stroke="#000000" stroke-opacity="1" stroke-width="3.2"/>
<circle clip-path="url(#clip762)" cx="621.905" cy="765.009" r="14" fill="#009af9" fill-rule="evenodd" fill-opacity="1" stroke="#000000" stroke-opacity="1" stroke-width="3.2"/>
<circle clip-path="url(#clip762)" cx="687.428" cy="773.346" r="14" fill="#009af9" fill-rule="evenodd" fill-opacity="1" stroke="#000000" stroke-opacity="1" stroke-width="3.2"/>
<circle clip-path="url(#clip762)" cx="773.41" cy="767.432" r="14" fill="#009af9" fill-rule="evenodd" fill-opacity="1" stroke="#000000" stroke-opacity="1" stroke-width="3.2"/>
<circle clip-path="url(#clip762)" cx="868.458" cy="739.902" r="14" fill="#009af9" fill-rule="evenodd" fill-opacity="1" stroke="#000000" stroke-opacity="1" stroke-width="3.2"/>
<circle clip-path="url(#clip762)" cx="899.315" cy="739.902" r="14" fill="#e26f46" fill-rule="evenodd" fill-opacity="1" stroke="#000000" stroke-opacity="1" stroke-width="3.2"/>
<circle clip-path="url(#clip762)" cx="998.294" cy="683.376" r="14" fill="#e26f46" fill-rule="evenodd" fill-opacity="1" stroke="#000000" stroke-opacity="1" stroke-width="3.2"/>
<circle clip-path="url(#clip762)" cx="1076.25" cy="604.497" r="14" fill="#e26f46" fill-rule="evenodd" fill-opacity="1" stroke="#000000" stroke-opacity="1" stroke-width="3.2"/>
<circle clip-path="url(#clip762)" cx="1120.91" cy="512.77" r="14" fill="#e26f46" fill-rule="evenodd" fill-opacity="1" stroke="#000000" stroke-opacity="1" stroke-width="3.2"/>
<circle clip-path="url(#clip762)" cx="1125.62" cy="421.288" r="14" fill="#e26f46" fill-rule="evenodd" fill-opacity="1" stroke="#000000" stroke-opacity="1" stroke-width="3.2"/>
<circle clip-path="url(#clip762)" cx="1090.49" cy="343.905" r="14" fill="#e26f46" fill-rule="evenodd" fill-opacity="1" stroke="#000000" stroke-opacity="1" stroke-width="3.2"/>
<circle clip-path="url(#clip762)" cx="1022.14" cy="292.241" r="14" fill="#e26f46" fill-rule="evenodd" fill-opacity="1" stroke="#000000" stroke-opacity="1" stroke-width="3.2"/>
<circle clip-path="url(#clip762)" cx="932.04" cy="273.24" r="14" fill="#e26f46" fill-rule="evenodd" fill-opacity="1" stroke="#000000" stroke-opacity="1" stroke-width="3.2"/>
<circle clip-path="url(#clip762)" cx="833.956" cy="287.801" r="14" fill="#e26f46" fill-rule="evenodd" fill-opacity="1" stroke="#000000" stroke-opacity="1" stroke-width="3.2"/>
<circle clip-path="url(#clip762)" cx="740.991" cy="330.789" r="14" fill="#e26f46" fill-rule="evenodd" fill-opacity="1" stroke="#000000" stroke-opacity="1" stroke-width="3.2"/>
<circle clip-path="url(#clip762)" cx="663.035" cy="392.369" r="14" fill="#e26f46" fill-rule="evenodd" fill-opacity="1" stroke="#000000" stroke-opacity="1" stroke-width="3.2"/>
<circle clip-path="url(#clip762)" cx="605.092" cy="460.307" r="14" fill="#e26f46" fill-rule="evenodd" fill-opacity="1" stroke="#000000" stroke-opacity="1" stroke-width="3.2"/>
<circle clip-path="url(#clip762)" cx="566.855" cy="522.682" r="14" fill="#e26f46" fill-rule="evenodd" fill-opacity="1" stroke="#000000" stroke-opacity="1" stroke-width="3.2"/>
<circle clip-path="url(#clip762)" cx="543.533" cy="570.352" r="14" fill="#e26f46" fill-rule="evenodd" fill-opacity="1" stroke="#000000" stroke-opacity="1" stroke-width="3.2"/>
<circle clip-path="url(#clip762)" cx="527.643" cy="598.622" r="14" fill="#e26f46" fill-rule="evenodd" fill-opacity="1" stroke="#000000" stroke-opacity="1" stroke-width="3.2"/>
<circle clip-path="url(#clip762)" cx="511.267" cy="607.779" r="14" fill="#e26f46" fill-rule="evenodd" fill-opacity="1" stroke="#000000" stroke-opacity="1" stroke-width="3.2"/>
<circle clip-path="url(#clip762)" cx="488.182" cy="602.451" r="14" fill="#e26f46" fill-rule="evenodd" fill-opacity="1" stroke="#000000" stroke-opacity="1" stroke-width="3.2"/>
<circle clip-path="url(#clip762)" cx="455.341" cy="590.023" r="14" fill="#e26f46" fill-rule="evenodd" fill-opacity="1" stroke="#000000" stroke-opacity="1" stroke-width="3.2"/>
<circle clip-path="url(#clip762)" cx="413.384" cy="578.583" r="14" fill="#e26f46" fill-rule="evenodd" fill-opacity="1" stroke="#000000" stroke-opacity="1" stroke-width="3.2"/>
<circle clip-path="url(#clip762)" cx="366.114" cy="574.938" r="14" fill="#e26f46" fill-rule="evenodd" fill-opacity="1" stroke="#000000" stroke-opacity="1" stroke-width="3.2"/>
<circle clip-path="url(#clip762)" cx="319.165" cy="583.207" r="14" fill="#e26f46" fill-rule="evenodd" fill-opacity="1" stroke="#000000" stroke-opacity="1" stroke-width="3.2"/>
<circle clip-path="url(#clip762)" cx="278.276" cy="604.284" r="14" fill="#e26f46" fill-rule="evenodd" fill-opacity="1" stroke="#000000" stroke-opacity="1" stroke-width="3.2"/>
<circle clip-path="url(#clip762)" cx="247.677" cy="636.24" r="14" fill="#e26f46" fill-rule="evenodd" fill-opacity="1" stroke="#000000" stroke-opacity="1" stroke-width="3.2"/>
<circle clip-path="url(#clip762)" cx="229.038" cy="675.468" r="14" fill="#e26f46" fill-rule="evenodd" fill-opacity="1" stroke="#000000" stroke-opacity="1" stroke-width="3.2"/>
<circle clip-path="url(#clip762)" cx="221.25" cy="718.16" r="14" fill="#e26f46" fill-rule="evenodd" fill-opacity="1" stroke="#000000" stroke-opacity="1" stroke-width="3.2"/>
<circle clip-path="url(#clip762)" cx="221.072" cy="761.654" r="14" fill="#e26f46" fill-rule="evenodd" fill-opacity="1" stroke="#000000" stroke-opacity="1" stroke-width="3.2"/>
<circle clip-path="url(#clip762)" cx="224.409" cy="805.236" r="14" fill="#e26f46" fill-rule="evenodd" fill-opacity="1" stroke="#000000" stroke-opacity="1" stroke-width="3.2"/>
<circle clip-path="url(#clip762)" cx="227.835" cy="850.151" r="14" fill="#e26f46" fill-rule="evenodd" fill-opacity="1" stroke="#000000" stroke-opacity="1" stroke-width="3.2"/>
<circle clip-path="url(#clip762)" cx="229.88" cy="898.826" r="14" fill="#e26f46" fill-rule="evenodd" fill-opacity="1" stroke="#000000" stroke-opacity="1" stroke-width="3.2"/>
<circle clip-path="url(#clip762)" cx="231.677" cy="953.544" r="14" fill="#e26f46" fill-rule="evenodd" fill-opacity="1" stroke="#000000" stroke-opacity="1" stroke-width="3.2"/>
<circle clip-path="url(#clip762)" cx="236.757" cy="1014.99" r="14" fill="#e26f46" fill-rule="evenodd" fill-opacity="1" stroke="#000000" stroke-opacity="1" stroke-width="3.2"/>
<circle clip-path="url(#clip762)" cx="250.003" cy="1081.12" r="14" fill="#e26f46" fill-rule="evenodd" fill-opacity="1" stroke="#000000" stroke-opacity="1" stroke-width="3.2"/>
<circle clip-path="url(#clip762)" cx="276.056" cy="1146.8" r="14" fill="#e26f46" fill-rule="evenodd" fill-opacity="1" stroke="#000000" stroke-opacity="1" stroke-width="3.2"/>
<circle clip-path="url(#clip762)" cx="317.603" cy="1204.32" r="14" fill="#e26f46" fill-rule="evenodd" fill-opacity="1" stroke="#000000" stroke-opacity="1" stroke-width="3.2"/>
<circle clip-path="url(#clip762)" cx="374.061" cy="1244.86" r="14" fill="#e26f46" fill-rule="evenodd" fill-opacity="1" stroke="#000000" stroke-opacity="1" stroke-width="3.2"/>
<circle clip-path="url(#clip762)" cx="441.077" cy="1260.45" r="14" fill="#e26f46" fill-rule="evenodd" fill-opacity="1" stroke="#000000" stroke-opacity="1" stroke-width="3.2"/>
<circle clip-path="url(#clip762)" cx="511.06" cy="1246.07" r="14" fill="#e26f46" fill-rule="evenodd" fill-opacity="1" stroke="#000000" stroke-opacity="1" stroke-width="3.2"/>
<circle clip-path="url(#clip762)" cx="574.682" cy="1201.18" r="14" fill="#e26f46" fill-rule="evenodd" fill-opacity="1" stroke="#000000" stroke-opacity="1" stroke-width="3.2"/>
<circle clip-path="url(#clip762)" cx="623.031" cy="1130.46" r="14" fill="#e26f46" fill-rule="evenodd" fill-opacity="1" stroke="#000000" stroke-opacity="1" stroke-width="3.2"/>
<circle clip-path="url(#clip762)" cx="649.895" cy="1043.16" r="14" fill="#e26f46" fill-rule="evenodd" fill-opacity="1" stroke="#000000" stroke-opacity="1" stroke-width="3.2"/>
<circle clip-path="url(#clip762)" cx="653.575" cy="951.539" r="14" fill="#e26f46" fill-rule="evenodd" fill-opacity="1" stroke="#000000" stroke-opacity="1" stroke-width="3.2"/>
<circle clip-path="url(#clip762)" cx="637.734" cy="868.315" r="14" fill="#e26f46" fill-rule="evenodd" fill-opacity="1" stroke="#000000" stroke-opacity="1" stroke-width="3.2"/>
<circle clip-path="url(#clip762)" cx="610.996" cy="803.987" r="14" fill="#e26f46" fill-rule="evenodd" fill-opacity="1" stroke="#000000" stroke-opacity="1" stroke-width="3.2"/>
<circle clip-path="url(#clip762)" cx="585.295" cy="764.506" r="14" fill="#e26f46" fill-rule="evenodd" fill-opacity="1" stroke="#000000" stroke-opacity="1" stroke-width="3.2"/>
<circle clip-path="url(#clip762)" cx="573.331" cy="749.933" r="14" fill="#e26f46" fill-rule="evenodd" fill-opacity="1" stroke="#000000" stroke-opacity="1" stroke-width="3.2"/>
<circle clip-path="url(#clip762)" cx="585.655" cy="754.413" r="14" fill="#e26f46" fill-rule="evenodd" fill-opacity="1" stroke="#000000" stroke-opacity="1" stroke-width="3.2"/>
<circle clip-path="url(#clip762)" cx="628.107" cy="767.52" r="14" fill="#e26f46" fill-rule="evenodd" fill-opacity="1" stroke="#000000" stroke-opacity="1" stroke-width="3.2"/>
<circle clip-path="url(#clip762)" cx="700.181" cy="776.691" r="14" fill="#e26f46" fill-rule="evenodd" fill-opacity="1" stroke="#000000" stroke-opacity="1" stroke-width="3.2"/>
<circle clip-path="url(#clip762)" cx="794.763" cy="770.185" r="14" fill="#e26f46" fill-rule="evenodd" fill-opacity="1" stroke="#000000" stroke-opacity="1" stroke-width="3.2"/>
<circle clip-path="url(#clip762)" cx="899.315" cy="739.902" r="14" fill="#e26f46" fill-rule="evenodd" fill-opacity="1" stroke="#000000" stroke-opacity="1" stroke-width="3.2"/>
<path clip-path="url(#clip760)" d="
M903.427 328.498 L1120.8 328.498 L1120.8 95.2176 L903.427 95.2176  Z
  " fill="#ffffff" fill-rule="evenodd" fill-opacity="1"/>
<polyline clip-path="url(#clip760)" style="stroke:#000000; stroke-linecap:butt; stroke-linejoin:round; stroke-width:4; stroke-opacity:1; fill:none" points="
  903.427,328.498 1120.8,328.498 1120.8,95.2176 903.427,95.2176 903.427,328.498 
  "/>
<circle clip-path="url(#clip760)" cx="946.041" cy="172.978" r="34" fill="#009af9" fill-rule="evenodd" fill-opacity="1" stroke="#000000" stroke-opacity="1" stroke-width="7.68"/>
<path clip-path="url(#clip760)" d="M988.655 160.009 L995.044 160.009 L995.044 198.898 L988.655 198.898 L988.655 160.009 M988.655 144.87 L995.044 144.87 L995.044 152.96 L988.655 152.96 L988.655 144.87 Z" fill="#000000" fill-rule="evenodd" fill-opacity="1" /><path clip-path="url(#clip760)" d="M1040.74 175.425 L1040.74 198.898 L1034.35 198.898 L1034.35 175.634 Q1034.35 170.113 1032.2 167.37 Q1030.04 164.627 1025.74 164.627 Q1020.56 164.627 1017.58 167.925 Q1014.59 171.224 1014.59 176.919 L1014.59 198.898 L1008.17 198.898 L1008.17 160.009 L1014.59 160.009 L1014.59 166.051 Q1016.88 162.544 1019.97 160.807 Q1023.1 159.071 1027.16 159.071 Q1033.86 159.071 1037.3 163.238 Q1040.74 167.37 1040.74 175.425 Z" fill="#000000" fill-rule="evenodd" fill-opacity="1" /><circle clip-path="url(#clip760)" cx="946.041" cy="250.738" r="34" fill="#e26f46" fill-rule="evenodd" fill-opacity="1" stroke="#000000" stroke-opacity="1" stroke-width="7.68"/>
<path clip-path="url(#clip760)" d="M1006.5 242.248 Q1001.36 242.248 998.378 246.276 Q995.391 250.269 995.391 257.248 Q995.391 264.227 998.343 268.255 Q1001.33 272.248 1006.5 272.248 Q1011.61 272.248 1014.59 268.22 Q1017.58 264.192 1017.58 257.248 Q1017.58 250.338 1014.59 246.31 Q1011.61 242.248 1006.5 242.248 M1006.5 236.831 Q1014.84 236.831 1019.59 242.248 Q1024.35 247.665 1024.35 257.248 Q1024.35 266.796 1019.59 272.248 Q1014.84 277.664 1006.5 277.664 Q998.135 277.664 993.378 272.248 Q988.655 266.796 988.655 257.248 Q988.655 247.665 993.378 242.248 Q998.135 236.831 1006.5 236.831 Z" fill="#000000" fill-rule="evenodd" fill-opacity="1" /><path clip-path="url(#clip760)" d="M1034.28 261.31 L1034.28 237.769 L1040.67 237.769 L1040.67 261.067 Q1040.67 266.588 1042.82 269.366 Q1044.97 272.109 1049.28 272.109 Q1054.45 272.109 1057.44 268.81 Q1060.46 265.512 1060.46 259.817 L1060.46 237.769 L1066.85 237.769 L1066.85 276.658 L1060.46 276.658 L1060.46 270.685 Q1058.13 274.227 1055.04 275.963 Q1051.99 277.664 1047.93 277.664 Q1041.22 277.664 1037.75 273.498 Q1034.28 269.331 1034.28 261.31 M1050.36 236.831 L1050.36 236.831 Z" fill="#000000" fill-rule="evenodd" fill-opacity="1" /><path clip-path="url(#clip760)" d="M1086.33 226.727 L1086.33 237.769 L1099.49 237.769 L1099.49 242.734 L1086.33 242.734 L1086.33 263.845 Q1086.33 268.602 1087.61 269.956 Q1088.93 271.31 1092.93 271.31 L1099.49 271.31 L1099.49 276.658 L1092.93 276.658 Q1085.53 276.658 1082.72 273.915 Q1079.9 271.137 1079.9 263.845 L1079.9 242.734 L1075.22 242.734 L1075.22 237.769 L1079.9 237.769 L1079.9 226.727 L1086.33 226.727 Z" fill="#000000" fill-rule="evenodd" fill-opacity="1" /><path clip-path="url(#clip760)" d="
M1393.94 1486.45 L2352.76 1486.45 L2352.76 47.2441 L1393.94 47.2441  Z
  " fill="#ffffff" fill-rule="evenodd" fill-opacity="1"/>
<defs>
  <clipPath id="clip763">
    <rect x="1393" y="47" width="960" height="1440"/>
  </clipPath>
</defs>
<polyline clip-path="url(#clip763)" style="stroke:#000000; stroke-linecap:butt; stroke-linejoin:round; stroke-width:2; stroke-opacity:0.1; fill:none" points="
  1461.3,1486.45 1461.3,47.2441 
  "/>
<polyline clip-path="url(#clip763)" style="stroke:#000000; stroke-linecap:butt; stroke-linejoin:round; stroke-width:2; stroke-opacity:0.1; fill:none" points="
  1667.09,1486.45 1667.09,47.2441 
  "/>
<polyline clip-path="url(#clip763)" style="stroke:#000000; stroke-linecap:butt; stroke-linejoin:round; stroke-width:2; stroke-opacity:0.1; fill:none" points="
  1872.88,1486.45 1872.88,47.2441 
  "/>
<polyline clip-path="url(#clip763)" style="stroke:#000000; stroke-linecap:butt; stroke-linejoin:round; stroke-width:2; stroke-opacity:0.1; fill:none" points="
  2078.67,1486.45 2078.67,47.2441 
  "/>
<polyline clip-path="url(#clip763)" style="stroke:#000000; stroke-linecap:butt; stroke-linejoin:round; stroke-width:2; stroke-opacity:0.1; fill:none" points="
  2284.46,1486.45 2284.46,47.2441 
  "/>
<polyline clip-path="url(#clip760)" style="stroke:#000000; stroke-linecap:butt; stroke-linejoin:round; stroke-width:4; stroke-opacity:1; fill:none" points="
  1393.94,1486.45 2352.76,1486.45 
  "/>
<polyline clip-path="url(#clip760)" style="stroke:#000000; stroke-linecap:butt; stroke-linejoin:round; stroke-width:4; stroke-opacity:1; fill:none" points="
  1461.3,1486.45 1461.3,1467.55 
  "/>
<polyline clip-path="url(#clip760)" style="stroke:#000000; stroke-linecap:butt; stroke-linejoin:round; stroke-width:4; stroke-opacity:1; fill:none" points="
  1667.09,1486.45 1667.09,1467.55 
  "/>
<polyline clip-path="url(#clip760)" style="stroke:#000000; stroke-linecap:butt; stroke-linejoin:round; stroke-width:4; stroke-opacity:1; fill:none" points="
  1872.88,1486.45 1872.88,1467.55 
  "/>
<polyline clip-path="url(#clip760)" style="stroke:#000000; stroke-linecap:butt; stroke-linejoin:round; stroke-width:4; stroke-opacity:1; fill:none" points="
  2078.67,1486.45 2078.67,1467.55 
  "/>
<polyline clip-path="url(#clip760)" style="stroke:#000000; stroke-linecap:butt; stroke-linejoin:round; stroke-width:4; stroke-opacity:1; fill:none" points="
  2284.46,1486.45 2284.46,1467.55 
  "/>
<path clip-path="url(#clip760)" d="M1407.83 1532.02 L1437.5 1532.02 L1437.5 1535.95 L1407.83 1535.95 L1407.83 1532.02 Z" fill="#000000" fill-rule="evenodd" fill-opacity="1" /><path clip-path="url(#clip760)" d="M1448.41 1544.91 L1456.05 1544.91 L1456.05 1518.55 L1447.74 1520.21 L1447.74 1515.95 L1456 1514.29 L1460.68 1514.29 L1460.68 1544.91 L1468.31 1544.91 L1468.31 1548.85 L1448.41 1548.85 L1448.41 1544.91 Z" fill="#000000" fill-rule="evenodd" fill-opacity="1" /><path clip-path="url(#clip760)" d="M1477.76 1542.97 L1482.64 1542.97 L1482.64 1548.85 L1477.76 1548.85 L1477.76 1542.97 Z" fill="#000000" fill-rule="evenodd" fill-opacity="1" /><path clip-path="url(#clip760)" d="M1502.83 1517.37 Q1499.22 1517.37 1497.39 1520.93 Q1495.58 1524.47 1495.58 1531.6 Q1495.58 1538.71 1497.39 1542.27 Q1499.22 1545.82 1502.83 1545.82 Q1506.46 1545.82 1508.27 1542.27 Q1510.1 1538.71 1510.1 1531.6 Q1510.1 1524.47 1508.27 1520.93 Q1506.46 1517.37 1502.83 1517.37 M1502.83 1513.66 Q1508.64 1513.66 1511.69 1518.27 Q1514.77 1522.85 1514.77 1531.6 Q1514.77 1540.33 1511.69 1544.94 Q1508.64 1549.52 1502.83 1549.52 Q1497.02 1549.52 1493.94 1544.94 Q1490.88 1540.33 1490.88 1531.6 Q1490.88 1522.85 1493.94 1518.27 Q1497.02 1513.66 1502.83 1513.66 Z" fill="#000000" fill-rule="evenodd" fill-opacity="1" /><path clip-path="url(#clip760)" d="M1614.12 1532.02 L1643.79 1532.02 L1643.79 1535.95 L1614.12 1535.95 L1614.12 1532.02 Z" fill="#000000" fill-rule="evenodd" fill-opacity="1" /><path clip-path="url(#clip760)" d="M1663.88 1517.37 Q1660.27 1517.37 1658.44 1520.93 Q1656.64 1524.47 1656.64 1531.6 Q1656.64 1538.71 1658.44 1542.27 Q1660.27 1545.82 1663.88 1545.82 Q1667.52 1545.82 1669.32 1542.27 Q1671.15 1538.71 1671.15 1531.6 Q1671.15 1524.47 1669.32 1520.93 Q1667.52 1517.37 1663.88 1517.37 M1663.88 1513.66 Q1669.69 1513.66 1672.75 1518.27 Q1675.83 1522.85 1675.83 1531.6 Q1675.83 1540.33 1672.75 1544.94 Q1669.69 1549.52 1663.88 1549.52 Q1658.07 1549.52 1655 1544.94 Q1651.94 1540.33 1651.94 1531.6 Q1651.94 1522.85 1655 1518.27 Q1658.07 1513.66 1663.88 1513.66 Z" fill="#000000" fill-rule="evenodd" fill-opacity="1" /><path clip-path="url(#clip760)" d="M1684.05 1542.97 L1688.93 1542.97 L1688.93 1548.85 L1684.05 1548.85 L1684.05 1542.97 Z" fill="#000000" fill-rule="evenodd" fill-opacity="1" /><path clip-path="url(#clip760)" d="M1699.16 1514.29 L1717.52 1514.29 L1717.52 1518.22 L1703.44 1518.22 L1703.44 1526.7 Q1704.46 1526.35 1705.48 1526.19 Q1706.5 1526 1707.52 1526 Q1713.31 1526 1716.69 1529.17 Q1720.06 1532.34 1720.06 1537.76 Q1720.06 1543.34 1716.59 1546.44 Q1713.12 1549.52 1706.8 1549.52 Q1704.63 1549.52 1702.36 1549.15 Q1700.11 1548.78 1697.7 1548.04 L1697.7 1543.34 Q1699.79 1544.47 1702.01 1545.03 Q1704.23 1545.58 1706.71 1545.58 Q1710.71 1545.58 1713.05 1543.48 Q1715.39 1541.37 1715.39 1537.76 Q1715.39 1534.15 1713.05 1532.04 Q1710.71 1529.94 1706.71 1529.94 Q1704.83 1529.94 1702.96 1530.35 Q1701.11 1530.77 1699.16 1531.65 L1699.16 1514.29 Z" fill="#000000" fill-rule="evenodd" fill-opacity="1" /><path clip-path="url(#clip760)" d="M1850.27 1517.37 Q1846.65 1517.37 1844.83 1520.93 Q1843.02 1524.47 1843.02 1531.6 Q1843.02 1538.71 1844.83 1542.27 Q1846.65 1545.82 1850.27 1545.82 Q1853.9 1545.82 1855.71 1542.27 Q1857.53 1538.71 1857.53 1531.6 Q1857.53 1524.47 1855.71 1520.93 Q1853.9 1517.37 1850.27 1517.37 M1850.27 1513.66 Q1856.08 1513.66 1859.13 1518.27 Q1862.21 1522.85 1862.21 1531.6 Q1862.21 1540.33 1859.13 1544.94 Q1856.08 1549.52 1850.27 1549.52 Q1844.46 1549.52 1841.38 1544.94 Q1838.32 1540.33 1838.32 1531.6 Q1838.32 1522.85 1841.38 1518.27 Q1844.46 1513.66 1850.27 1513.66 Z" fill="#000000" fill-rule="evenodd" fill-opacity="1" /><path clip-path="url(#clip760)" d="M1870.43 1542.97 L1875.31 1542.97 L1875.31 1548.85 L1870.43 1548.85 L1870.43 1542.97 Z" fill="#000000" fill-rule="evenodd" fill-opacity="1" /><path clip-path="url(#clip760)" d="M1895.5 1517.37 Q1891.89 1517.37 1890.06 1520.93 Q1888.25 1524.47 1888.25 1531.6 Q1888.25 1538.71 1890.06 1542.27 Q1891.89 1545.82 1895.5 1545.82 Q1899.13 1545.82 1900.94 1542.27 Q1902.76 1538.71 1902.76 1531.6 Q1902.76 1524.47 1900.94 1520.93 Q1899.13 1517.37 1895.5 1517.37 M1895.5 1513.66 Q1901.31 1513.66 1904.36 1518.27 Q1907.44 1522.85 1907.44 1531.6 Q1907.44 1540.33 1904.36 1544.94 Q1901.31 1549.52 1895.5 1549.52 Q1889.69 1549.52 1886.61 1544.94 Q1883.55 1540.33 1883.55 1531.6 Q1883.55 1522.85 1886.61 1518.27 Q1889.69 1513.66 1895.5 1513.66 Z" fill="#000000" fill-rule="evenodd" fill-opacity="1" /><path clip-path="url(#clip760)" d="M2056.55 1517.37 Q2052.94 1517.37 2051.11 1520.93 Q2049.31 1524.47 2049.31 1531.6 Q2049.31 1538.71 2051.11 1542.27 Q2052.94 1545.82 2056.55 1545.82 Q2060.19 1545.82 2061.99 1542.27 Q2063.82 1538.71 2063.82 1531.6 Q2063.82 1524.47 2061.99 1520.93 Q2060.19 1517.37 2056.55 1517.37 M2056.55 1513.66 Q2062.36 1513.66 2065.42 1518.27 Q2068.5 1522.85 2068.5 1531.6 Q2068.5 1540.33 2065.42 1544.94 Q2062.36 1549.52 2056.55 1549.52 Q2050.74 1549.52 2047.66 1544.94 Q2044.61 1540.33 2044.61 1531.6 Q2044.61 1522.85 2047.66 1518.27 Q2050.74 1513.66 2056.55 1513.66 Z" fill="#000000" fill-rule="evenodd" fill-opacity="1" /><path clip-path="url(#clip760)" d="M2076.72 1542.97 L2081.6 1542.97 L2081.6 1548.85 L2076.72 1548.85 L2076.72 1542.97 Z" fill="#000000" fill-rule="evenodd" fill-opacity="1" /><path clip-path="url(#clip760)" d="M2091.83 1514.29 L2110.19 1514.29 L2110.19 1518.22 L2096.11 1518.22 L2096.11 1526.7 Q2097.13 1526.35 2098.15 1526.19 Q2099.17 1526 2100.19 1526 Q2105.97 1526 2109.35 1529.17 Q2112.73 1532.34 2112.73 1537.76 Q2112.73 1543.34 2109.26 1546.44 Q2105.79 1549.52 2099.47 1549.52 Q2097.29 1549.52 2095.03 1549.15 Q2092.78 1548.78 2090.37 1548.04 L2090.37 1543.34 Q2092.46 1544.47 2094.68 1545.03 Q2096.9 1545.58 2099.38 1545.58 Q2103.38 1545.58 2105.72 1543.48 Q2108.06 1541.37 2108.06 1537.76 Q2108.06 1534.15 2105.72 1532.04 Q2103.38 1529.94 2099.38 1529.94 Q2097.5 1529.94 2095.63 1530.35 Q2093.78 1530.77 2091.83 1531.65 L2091.83 1514.29 Z" fill="#000000" fill-rule="evenodd" fill-opacity="1" /><path clip-path="url(#clip760)" d="M2251.61 1544.91 L2259.25 1544.91 L2259.25 1518.55 L2250.94 1520.21 L2250.94 1515.95 L2259.21 1514.29 L2263.88 1514.29 L2263.88 1544.91 L2271.52 1544.91 L2271.52 1548.85 L2251.61 1548.85 L2251.61 1544.91 Z" fill="#000000" fill-rule="evenodd" fill-opacity="1" /><path clip-path="url(#clip760)" d="M2280.97 1542.97 L2285.85 1542.97 L2285.85 1548.85 L2280.97 1548.85 L2280.97 1542.97 Z" fill="#000000" fill-rule="evenodd" fill-opacity="1" /><path clip-path="url(#clip760)" d="M2306.04 1517.37 Q2302.42 1517.37 2300.6 1520.93 Q2298.79 1524.47 2298.79 1531.6 Q2298.79 1538.71 2300.6 1542.27 Q2302.42 1545.82 2306.04 1545.82 Q2309.67 1545.82 2311.48 1542.27 Q2313.3 1538.71 2313.3 1531.6 Q2313.3 1524.47 2311.48 1520.93 Q2309.67 1517.37 2306.04 1517.37 M2306.04 1513.66 Q2311.85 1513.66 2314.9 1518.27 Q2317.98 1522.85 2317.98 1531.6 Q2317.98 1540.33 2314.9 1544.94 Q2311.85 1549.52 2306.04 1549.52 Q2300.23 1549.52 2297.15 1544.94 Q2294.09 1540.33 2294.09 1531.6 Q2294.09 1522.85 2297.15 1518.27 Q2300.23 1513.66 2306.04 1513.66 Z" fill="#000000" fill-rule="evenodd" fill-opacity="1" /><polyline clip-path="url(#clip763)" style="stroke:#000000; stroke-linecap:butt; stroke-linejoin:round; stroke-width:2; stroke-opacity:0.1; fill:none" points="
  1393.94,1384.22 2352.76,1384.22 
  "/>
<polyline clip-path="url(#clip763)" style="stroke:#000000; stroke-linecap:butt; stroke-linejoin:round; stroke-width:2; stroke-opacity:0.1; fill:none" points="
  1393.94,1178.43 2352.76,1178.43 
  "/>
<polyline clip-path="url(#clip763)" style="stroke:#000000; stroke-linecap:butt; stroke-linejoin:round; stroke-width:2; stroke-opacity:0.1; fill:none" points="
  1393.94,972.636 2352.76,972.636 
  "/>
<polyline clip-path="url(#clip763)" style="stroke:#000000; stroke-linecap:butt; stroke-linejoin:round; stroke-width:2; stroke-opacity:0.1; fill:none" points="
  1393.94,766.846 2352.76,766.846 
  "/>
<polyline clip-path="url(#clip763)" style="stroke:#000000; stroke-linecap:butt; stroke-linejoin:round; stroke-width:2; stroke-opacity:0.1; fill:none" points="
  1393.94,561.056 2352.76,561.056 
  "/>
<polyline clip-path="url(#clip763)" style="stroke:#000000; stroke-linecap:butt; stroke-linejoin:round; stroke-width:2; stroke-opacity:0.1; fill:none" points="
  1393.94,355.265 2352.76,355.265 
  "/>
<polyline clip-path="url(#clip763)" style="stroke:#000000; stroke-linecap:butt; stroke-linejoin:round; stroke-width:2; stroke-opacity:0.1; fill:none" points="
  1393.94,149.475 2352.76,149.475 
  "/>
<polyline clip-path="url(#clip760)" style="stroke:#000000; stroke-linecap:butt; stroke-linejoin:round; stroke-width:4; stroke-opacity:1; fill:none" points="
  1393.94,1486.45 1393.94,47.2441 
  "/>
<polyline clip-path="url(#clip760)" style="stroke:#000000; stroke-linecap:butt; stroke-linejoin:round; stroke-width:4; stroke-opacity:1; fill:none" points="
  1393.94,1384.22 1412.83,1384.22 
  "/>
<polyline clip-path="url(#clip760)" style="stroke:#000000; stroke-linecap:butt; stroke-linejoin:round; stroke-width:4; stroke-opacity:1; fill:none" points="
  1393.94,1178.43 1412.83,1178.43 
  "/>
<polyline clip-path="url(#clip760)" style="stroke:#000000; stroke-linecap:butt; stroke-linejoin:round; stroke-width:4; stroke-opacity:1; fill:none" points="
  1393.94,972.636 1412.83,972.636 
  "/>
<polyline clip-path="url(#clip760)" style="stroke:#000000; stroke-linecap:butt; stroke-linejoin:round; stroke-width:4; stroke-opacity:1; fill:none" points="
  1393.94,766.846 1412.83,766.846 
  "/>
<polyline clip-path="url(#clip760)" style="stroke:#000000; stroke-linecap:butt; stroke-linejoin:round; stroke-width:4; stroke-opacity:1; fill:none" points="
  1393.94,561.056 1412.83,561.056 
  "/>
<polyline clip-path="url(#clip760)" style="stroke:#000000; stroke-linecap:butt; stroke-linejoin:round; stroke-width:4; stroke-opacity:1; fill:none" points="
  1393.94,355.265 1412.83,355.265 
  "/>
<polyline clip-path="url(#clip760)" style="stroke:#000000; stroke-linecap:butt; stroke-linejoin:round; stroke-width:4; stroke-opacity:1; fill:none" points="
  1393.94,149.475 1412.83,149.475 
  "/>
<path clip-path="url(#clip760)" d="M1251.99 1384.67 L1281.66 1384.67 L1281.66 1388.6 L1251.99 1388.6 L1251.99 1384.67 Z" fill="#000000" fill-rule="evenodd" fill-opacity="1" /><path clip-path="url(#clip760)" d="M1292.57 1397.56 L1300.2 1397.56 L1300.2 1371.2 L1291.89 1372.86 L1291.89 1368.6 L1300.16 1366.94 L1304.83 1366.94 L1304.83 1397.56 L1312.47 1397.56 L1312.47 1401.5 L1292.57 1401.5 L1292.57 1397.56 Z" fill="#000000" fill-rule="evenodd" fill-opacity="1" /><path clip-path="url(#clip760)" d="M1321.92 1395.62 L1326.8 1395.62 L1326.8 1401.5 L1321.92 1401.5 L1321.92 1395.62 Z" fill="#000000" fill-rule="evenodd" fill-opacity="1" /><path clip-path="url(#clip760)" d="M1337.03 1366.94 L1355.39 1366.94 L1355.39 1370.87 L1341.32 1370.87 L1341.32 1379.34 Q1342.33 1379 1343.35 1378.83 Q1344.37 1378.65 1345.39 1378.65 Q1351.18 1378.65 1354.56 1381.82 Q1357.94 1384.99 1357.94 1390.41 Q1357.94 1395.99 1354.46 1399.09 Q1350.99 1402.17 1344.67 1402.17 Q1342.5 1402.17 1340.23 1401.8 Q1337.98 1401.43 1335.58 1400.69 L1335.58 1395.99 Q1337.66 1397.12 1339.88 1397.68 Q1342.1 1398.23 1344.58 1398.23 Q1348.58 1398.23 1350.92 1396.13 Q1353.26 1394.02 1353.26 1390.41 Q1353.26 1386.8 1350.92 1384.69 Q1348.58 1382.58 1344.58 1382.58 Q1342.7 1382.58 1340.83 1383 Q1338.98 1383.42 1337.03 1384.3 L1337.03 1366.94 Z" fill="#000000" fill-rule="evenodd" fill-opacity="1" /><path clip-path="url(#clip760)" d="M1250.99 1178.88 L1280.67 1178.88 L1280.67 1182.81 L1250.99 1182.81 L1250.99 1178.88 Z" fill="#000000" fill-rule="evenodd" fill-opacity="1" /><path clip-path="url(#clip760)" d="M1291.57 1191.77 L1299.21 1191.77 L1299.21 1165.41 L1290.9 1167.07 L1290.9 1162.81 L1299.16 1161.15 L1303.84 1161.15 L1303.84 1191.77 L1311.48 1191.77 L1311.48 1195.71 L1291.57 1195.71 L1291.57 1191.77 Z" fill="#000000" fill-rule="evenodd" fill-opacity="1" /><path clip-path="url(#clip760)" d="M1320.92 1189.83 L1325.81 1189.83 L1325.81 1195.71 L1320.92 1195.71 L1320.92 1189.83 Z" fill="#000000" fill-rule="evenodd" fill-opacity="1" /><path clip-path="url(#clip760)" d="M1345.99 1164.23 Q1342.38 1164.23 1340.55 1167.79 Q1338.75 1171.33 1338.75 1178.46 Q1338.75 1185.57 1340.55 1189.13 Q1342.38 1192.67 1345.99 1192.67 Q1349.63 1192.67 1351.43 1189.13 Q1353.26 1185.57 1353.26 1178.46 Q1353.26 1171.33 1351.43 1167.79 Q1349.63 1164.23 1345.99 1164.23 M1345.99 1160.52 Q1351.8 1160.52 1354.86 1165.13 Q1357.94 1169.71 1357.94 1178.46 Q1357.94 1187.19 1354.86 1191.79 Q1351.8 1196.38 1345.99 1196.38 Q1340.18 1196.38 1337.1 1191.79 Q1334.05 1187.19 1334.05 1178.46 Q1334.05 1169.71 1337.1 1165.13 Q1340.18 1160.52 1345.99 1160.52 Z" fill="#000000" fill-rule="evenodd" fill-opacity="1" /><path clip-path="url(#clip760)" d="M1251.99 973.088 L1281.66 973.088 L1281.66 977.023 L1251.99 977.023 L1251.99 973.088 Z" fill="#000000" fill-rule="evenodd" fill-opacity="1" /><path clip-path="url(#clip760)" d="M1301.76 958.435 Q1298.14 958.435 1296.32 962 Q1294.51 965.541 1294.51 972.671 Q1294.51 979.777 1296.32 983.342 Q1298.14 986.884 1301.76 986.884 Q1305.39 986.884 1307.2 983.342 Q1309.02 979.777 1309.02 972.671 Q1309.02 965.541 1307.2 962 Q1305.39 958.435 1301.76 958.435 M1301.76 954.731 Q1307.57 954.731 1310.62 959.338 Q1313.7 963.921 1313.7 972.671 Q1313.7 981.398 1310.62 986.004 Q1307.57 990.588 1301.76 990.588 Q1295.95 990.588 1292.87 986.004 Q1289.81 981.398 1289.81 972.671 Q1289.81 963.921 1292.87 959.338 Q1295.95 954.731 1301.76 954.731 Z" fill="#000000" fill-rule="evenodd" fill-opacity="1" /><path clip-path="url(#clip760)" d="M1321.92 984.037 L1326.8 984.037 L1326.8 989.916 L1321.92 989.916 L1321.92 984.037 Z" fill="#000000" fill-rule="evenodd" fill-opacity="1" /><path clip-path="url(#clip760)" d="M1337.03 955.356 L1355.39 955.356 L1355.39 959.291 L1341.32 959.291 L1341.32 967.764 Q1342.33 967.416 1343.35 967.254 Q1344.37 967.069 1345.39 967.069 Q1351.18 967.069 1354.56 970.24 Q1357.94 973.412 1357.94 978.828 Q1357.94 984.407 1354.46 987.509 Q1350.99 990.588 1344.67 990.588 Q1342.5 990.588 1340.23 990.217 Q1337.98 989.847 1335.58 989.106 L1335.58 984.407 Q1337.66 985.541 1339.88 986.097 Q1342.1 986.652 1344.58 986.652 Q1348.58 986.652 1350.92 984.546 Q1353.26 982.439 1353.26 978.828 Q1353.26 975.217 1350.92 973.111 Q1348.58 971.004 1344.58 971.004 Q1342.7 971.004 1340.83 971.421 Q1338.98 971.838 1337.03 972.717 L1337.03 955.356 Z" fill="#000000" fill-rule="evenodd" fill-opacity="1" /><path clip-path="url(#clip760)" d="M1300.76 752.645 Q1297.15 752.645 1295.32 756.209 Q1293.52 759.751 1293.52 766.881 Q1293.52 773.987 1295.32 777.552 Q1297.15 781.094 1300.76 781.094 Q1304.39 781.094 1306.2 777.552 Q1308.03 773.987 1308.03 766.881 Q1308.03 759.751 1306.2 756.209 Q1304.39 752.645 1300.76 752.645 M1300.76 748.941 Q1306.57 748.941 1309.63 753.547 Q1312.7 758.131 1312.7 766.881 Q1312.7 775.608 1309.63 780.214 Q1306.57 784.797 1300.76 784.797 Q1294.95 784.797 1291.87 780.214 Q1288.82 775.608 1288.82 766.881 Q1288.82 758.131 1291.87 753.547 Q1294.95 748.941 1300.76 748.941 Z" fill="#000000" fill-rule="evenodd" fill-opacity="1" /><path clip-path="url(#clip760)" d="M1320.92 778.246 L1325.81 778.246 L1325.81 784.126 L1320.92 784.126 L1320.92 778.246 Z" fill="#000000" fill-rule="evenodd" fill-opacity="1" /><path clip-path="url(#clip760)" d="M1345.99 752.645 Q1342.38 752.645 1340.55 756.209 Q1338.75 759.751 1338.75 766.881 Q1338.75 773.987 1340.55 777.552 Q1342.38 781.094 1345.99 781.094 Q1349.63 781.094 1351.43 777.552 Q1353.26 773.987 1353.26 766.881 Q1353.26 759.751 1351.43 756.209 Q1349.63 752.645 1345.99 752.645 M1345.99 748.941 Q1351.8 748.941 1354.86 753.547 Q1357.94 758.131 1357.94 766.881 Q1357.94 775.608 1354.86 780.214 Q1351.8 784.797 1345.99 784.797 Q1340.18 784.797 1337.1 780.214 Q1334.05 775.608 1334.05 766.881 Q1334.05 758.131 1337.1 753.547 Q1340.18 748.941 1345.99 748.941 Z" fill="#000000" fill-rule="evenodd" fill-opacity="1" /><path clip-path="url(#clip760)" d="M1301.76 546.854 Q1298.14 546.854 1296.32 550.419 Q1294.51 553.961 1294.51 561.09 Q1294.51 568.197 1296.32 571.762 Q1298.14 575.303 1301.76 575.303 Q1305.39 575.303 1307.2 571.762 Q1309.02 568.197 1309.02 561.09 Q1309.02 553.961 1307.2 550.419 Q1305.39 546.854 1301.76 546.854 M1301.76 543.151 Q1307.57 543.151 1310.62 547.757 Q1313.7 552.34 1313.7 561.09 Q1313.7 569.817 1310.62 574.424 Q1307.57 579.007 1301.76 579.007 Q1295.95 579.007 1292.87 574.424 Q1289.81 569.817 1289.81 561.09 Q1289.81 552.34 1292.87 547.757 Q1295.95 543.151 1301.76 543.151 Z" fill="#000000" fill-rule="evenodd" fill-opacity="1" /><path clip-path="url(#clip760)" d="M1321.92 572.456 L1326.8 572.456 L1326.8 578.336 L1321.92 578.336 L1321.92 572.456 Z" fill="#000000" fill-rule="evenodd" fill-opacity="1" /><path clip-path="url(#clip760)" d="M1337.03 543.776 L1355.39 543.776 L1355.39 547.711 L1341.32 547.711 L1341.32 556.183 Q1342.33 555.836 1343.35 555.674 Q1344.37 555.489 1345.39 555.489 Q1351.18 555.489 1354.56 558.66 Q1357.94 561.831 1357.94 567.248 Q1357.94 572.826 1354.46 575.928 Q1350.99 579.007 1344.67 579.007 Q1342.5 579.007 1340.23 578.637 Q1337.98 578.266 1335.58 577.526 L1335.58 572.826 Q1337.66 573.961 1339.88 574.516 Q1342.1 575.072 1344.58 575.072 Q1348.58 575.072 1350.92 572.965 Q1353.26 570.859 1353.26 567.248 Q1353.26 563.637 1350.92 561.53 Q1348.58 559.424 1344.58 559.424 Q1342.7 559.424 1340.83 559.84 Q1338.98 560.257 1337.03 561.137 L1337.03 543.776 Z" fill="#000000" fill-rule="evenodd" fill-opacity="1" /><path clip-path="url(#clip760)" d="M1291.57 368.61 L1299.21 368.61 L1299.21 342.245 L1290.9 343.911 L1290.9 339.652 L1299.16 337.985 L1303.84 337.985 L1303.84 368.61 L1311.48 368.61 L1311.48 372.545 L1291.57 372.545 L1291.57 368.61 Z" fill="#000000" fill-rule="evenodd" fill-opacity="1" /><path clip-path="url(#clip760)" d="M1320.92 366.666 L1325.81 366.666 L1325.81 372.545 L1320.92 372.545 L1320.92 366.666 Z" fill="#000000" fill-rule="evenodd" fill-opacity="1" /><path clip-path="url(#clip760)" d="M1345.99 341.064 Q1342.38 341.064 1340.55 344.629 Q1338.75 348.171 1338.75 355.3 Q1338.75 362.407 1340.55 365.971 Q1342.38 369.513 1345.99 369.513 Q1349.63 369.513 1351.43 365.971 Q1353.26 362.407 1353.26 355.3 Q1353.26 348.171 1351.43 344.629 Q1349.63 341.064 1345.99 341.064 M1345.99 337.36 Q1351.8 337.36 1354.86 341.967 Q1357.94 346.55 1357.94 355.3 Q1357.94 364.027 1354.86 368.633 Q1351.8 373.217 1345.99 373.217 Q1340.18 373.217 1337.1 368.633 Q1334.05 364.027 1334.05 355.3 Q1334.05 346.55 1337.1 341.967 Q1340.18 337.36 1345.99 337.36 Z" fill="#000000" fill-rule="evenodd" fill-opacity="1" /><path clip-path="url(#clip760)" d="M1292.57 162.82 L1300.2 162.82 L1300.2 136.454 L1291.89 138.121 L1291.89 133.862 L1300.16 132.195 L1304.83 132.195 L1304.83 162.82 L1312.47 162.82 L1312.47 166.755 L1292.57 166.755 L1292.57 162.82 Z" fill="#000000" fill-rule="evenodd" fill-opacity="1" /><path clip-path="url(#clip760)" d="M1321.92 160.876 L1326.8 160.876 L1326.8 166.755 L1321.92 166.755 L1321.92 160.876 Z" fill="#000000" fill-rule="evenodd" fill-opacity="1" /><path clip-path="url(#clip760)" d="M1337.03 132.195 L1355.39 132.195 L1355.39 136.13 L1341.32 136.13 L1341.32 144.602 Q1342.33 144.255 1343.35 144.093 Q1344.37 143.908 1345.39 143.908 Q1351.18 143.908 1354.56 147.079 Q1357.94 150.251 1357.94 155.667 Q1357.94 161.246 1354.46 164.348 Q1350.99 167.426 1344.67 167.426 Q1342.5 167.426 1340.23 167.056 Q1337.98 166.686 1335.58 165.945 L1335.58 161.246 Q1337.66 162.38 1339.88 162.936 Q1342.1 163.491 1344.58 163.491 Q1348.58 163.491 1350.92 161.385 Q1353.26 159.278 1353.26 155.667 Q1353.26 152.056 1350.92 149.95 Q1348.58 147.843 1344.58 147.843 Q1342.7 147.843 1340.83 148.26 Q1338.98 148.677 1337.03 149.556 L1337.03 132.195 Z" fill="#000000" fill-rule="evenodd" fill-opacity="1" /><circle clip-path="url(#clip763)" cx="2284.46" cy="766.846" r="14" fill="#009af9" fill-rule="evenodd" fill-opacity="1" stroke="#000000" stroke-opacity="1" stroke-width="3.2"/>
<circle clip-path="url(#clip763)" cx="2281.08" cy="714.214" r="14" fill="#009af9" fill-rule="evenodd" fill-opacity="1" stroke="#000000" stroke-opacity="1" stroke-width="3.2"/>
<circle clip-path="url(#clip763)" cx="2271" cy="662.447" r="14" fill="#009af9" fill-rule="evenodd" fill-opacity="1" stroke="#000000" stroke-opacity="1" stroke-width="3.2"/>
<circle clip-path="url(#clip763)" cx="2254.38" cy="612.393" r="14" fill="#009af9" fill-rule="evenodd" fill-opacity="1" stroke="#000000" stroke-opacity="1" stroke-width="3.2"/>
<circle clip-path="url(#clip763)" cx="2231.5" cy="564.876" r="14" fill="#009af9" fill-rule="evenodd" fill-opacity="1" stroke="#000000" stroke-opacity="1" stroke-width="3.2"/>
<circle clip-path="url(#clip763)" cx="2202.73" cy="520.675" r="14" fill="#009af9" fill-rule="evenodd" fill-opacity="1" stroke="#000000" stroke-opacity="1" stroke-width="3.2"/>
<circle clip-path="url(#clip763)" cx="2168.54" cy="480.517" r="14" fill="#009af9" fill-rule="evenodd" fill-opacity="1" stroke="#000000" stroke-opacity="1" stroke-width="3.2"/>
<circle clip-path="url(#clip763)" cx="2129.5" cy="445.059" r="14" fill="#009af9" fill-rule="evenodd" fill-opacity="1" stroke="#000000" stroke-opacity="1" stroke-width="3.2"/>
<circle clip-path="url(#clip763)" cx="2086.24" cy="414.886" r="14" fill="#009af9" fill-rule="evenodd" fill-opacity="1" stroke="#000000" stroke-opacity="1" stroke-width="3.2"/>
<circle clip-path="url(#clip763)" cx="2039.48" cy="390.492" r="14" fill="#009af9" fill-rule="evenodd" fill-opacity="1" stroke="#000000" stroke-opacity="1" stroke-width="3.2"/>
<circle clip-path="url(#clip763)" cx="1989.99" cy="372.277" r="14" fill="#009af9" fill-rule="evenodd" fill-opacity="1" stroke="#000000" stroke-opacity="1" stroke-width="3.2"/>
<circle clip-path="url(#clip763)" cx="1938.57" cy="360.541" r="14" fill="#009af9" fill-rule="evenodd" fill-opacity="1" stroke="#000000" stroke-opacity="1" stroke-width="3.2"/>
<circle clip-path="url(#clip763)" cx="1886.07" cy="355.477" r="14" fill="#009af9" fill-rule="evenodd" fill-opacity="1" stroke="#000000" stroke-opacity="1" stroke-width="3.2"/>
<circle clip-path="url(#clip763)" cx="1833.36" cy="357.167" r="14" fill="#009af9" fill-rule="evenodd" fill-opacity="1" stroke="#000000" stroke-opacity="1" stroke-width="3.2"/>
<circle clip-path="url(#clip763)" cx="1781.3" cy="365.585" r="14" fill="#009af9" fill-rule="evenodd" fill-opacity="1" stroke="#000000" stroke-opacity="1" stroke-width="3.2"/>
<circle clip-path="url(#clip763)" cx="1730.74" cy="380.591" r="14" fill="#009af9" fill-rule="evenodd" fill-opacity="1" stroke="#000000" stroke-opacity="1" stroke-width="3.2"/>
<circle clip-path="url(#clip763)" cx="1682.51" cy="401.939" r="14" fill="#009af9" fill-rule="evenodd" fill-opacity="1" stroke="#000000" stroke-opacity="1" stroke-width="3.2"/>
<circle clip-path="url(#clip763)" cx="1637.41" cy="429.279" r="14" fill="#009af9" fill-rule="evenodd" fill-opacity="1" stroke="#000000" stroke-opacity="1" stroke-width="3.2"/>
<circle clip-path="url(#clip763)" cx="1596.17" cy="462.162" r="14" fill="#009af9" fill-rule="evenodd" fill-opacity="1" stroke="#000000" stroke-opacity="1" stroke-width="3.2"/>
<circle clip-path="url(#clip763)" cx="1559.48" cy="500.048" r="14" fill="#009af9" fill-rule="evenodd" fill-opacity="1" stroke="#000000" stroke-opacity="1" stroke-width="3.2"/>
<circle clip-path="url(#clip763)" cx="1527.94" cy="542.314" r="14" fill="#009af9" fill-rule="evenodd" fill-opacity="1" stroke="#000000" stroke-opacity="1" stroke-width="3.2"/>
<circle clip-path="url(#clip763)" cx="1502.06" cy="588.268" r="14" fill="#009af9" fill-rule="evenodd" fill-opacity="1" stroke="#000000" stroke-opacity="1" stroke-width="3.2"/>
<circle clip-path="url(#clip763)" cx="1482.27" cy="637.154" r="14" fill="#009af9" fill-rule="evenodd" fill-opacity="1" stroke="#000000" stroke-opacity="1" stroke-width="3.2"/>
<circle clip-path="url(#clip763)" cx="1468.89" cy="688.169" r="14" fill="#009af9" fill-rule="evenodd" fill-opacity="1" stroke="#000000" stroke-opacity="1" stroke-width="3.2"/>
<circle clip-path="url(#clip763)" cx="1462.15" cy="740.476" r="14" fill="#009af9" fill-rule="evenodd" fill-opacity="1" stroke="#000000" stroke-opacity="1" stroke-width="3.2"/>
<circle clip-path="url(#clip763)" cx="1462.15" cy="793.216" r="14" fill="#009af9" fill-rule="evenodd" fill-opacity="1" stroke="#000000" stroke-opacity="1" stroke-width="3.2"/>
<circle clip-path="url(#clip763)" cx="1468.89" cy="845.523" r="14" fill="#009af9" fill-rule="evenodd" fill-opacity="1" stroke="#000000" stroke-opacity="1" stroke-width="3.2"/>
<circle clip-path="url(#clip763)" cx="1482.27" cy="896.538" r="14" fill="#009af9" fill-rule="evenodd" fill-opacity="1" stroke="#000000" stroke-opacity="1" stroke-width="3.2"/>
<circle clip-path="url(#clip763)" cx="1502.06" cy="945.424" r="14" fill="#009af9" fill-rule="evenodd" fill-opacity="1" stroke="#000000" stroke-opacity="1" stroke-width="3.2"/>
<circle clip-path="url(#clip763)" cx="1527.94" cy="991.378" r="14" fill="#009af9" fill-rule="evenodd" fill-opacity="1" stroke="#000000" stroke-opacity="1" stroke-width="3.2"/>
<circle clip-path="url(#clip763)" cx="1559.48" cy="1033.64" r="14" fill="#009af9" fill-rule="evenodd" fill-opacity="1" stroke="#000000" stroke-opacity="1" stroke-width="3.2"/>
<circle clip-path="url(#clip763)" cx="1596.17" cy="1071.53" r="14" fill="#009af9" fill-rule="evenodd" fill-opacity="1" stroke="#000000" stroke-opacity="1" stroke-width="3.2"/>
<circle clip-path="url(#clip763)" cx="1637.41" cy="1104.41" r="14" fill="#009af9" fill-rule="evenodd" fill-opacity="1" stroke="#000000" stroke-opacity="1" stroke-width="3.2"/>
<circle clip-path="url(#clip763)" cx="1682.51" cy="1131.75" r="14" fill="#009af9" fill-rule="evenodd" fill-opacity="1" stroke="#000000" stroke-opacity="1" stroke-width="3.2"/>
<circle clip-path="url(#clip763)" cx="1730.74" cy="1153.1" r="14" fill="#009af9" fill-rule="evenodd" fill-opacity="1" stroke="#000000" stroke-opacity="1" stroke-width="3.2"/>
<circle clip-path="url(#clip763)" cx="1781.3" cy="1168.11" r="14" fill="#009af9" fill-rule="evenodd" fill-opacity="1" stroke="#000000" stroke-opacity="1" stroke-width="3.2"/>
<circle clip-path="url(#clip763)" cx="1833.36" cy="1176.52" r="14" fill="#009af9" fill-rule="evenodd" fill-opacity="1" stroke="#000000" stroke-opacity="1" stroke-width="3.2"/>
<circle clip-path="url(#clip763)" cx="1886.07" cy="1178.22" r="14" fill="#009af9" fill-rule="evenodd" fill-opacity="1" stroke="#000000" stroke-opacity="1" stroke-width="3.2"/>
<circle clip-path="url(#clip763)" cx="1938.57" cy="1173.15" r="14" fill="#009af9" fill-rule="evenodd" fill-opacity="1" stroke="#000000" stroke-opacity="1" stroke-width="3.2"/>
<circle clip-path="url(#clip763)" cx="1989.99" cy="1161.42" r="14" fill="#009af9" fill-rule="evenodd" fill-opacity="1" stroke="#000000" stroke-opacity="1" stroke-width="3.2"/>
<circle clip-path="url(#clip763)" cx="2039.48" cy="1143.2" r="14" fill="#009af9" fill-rule="evenodd" fill-opacity="1" stroke="#000000" stroke-opacity="1" stroke-width="3.2"/>
<circle clip-path="url(#clip763)" cx="2086.24" cy="1118.81" r="14" fill="#009af9" fill-rule="evenodd" fill-opacity="1" stroke="#000000" stroke-opacity="1" stroke-width="3.2"/>
<circle clip-path="url(#clip763)" cx="2129.5" cy="1088.63" r="14" fill="#009af9" fill-rule="evenodd" fill-opacity="1" stroke="#000000" stroke-opacity="1" stroke-width="3.2"/>
<circle clip-path="url(#clip763)" cx="2168.54" cy="1053.18" r="14" fill="#009af9" fill-rule="evenodd" fill-opacity="1" stroke="#000000" stroke-opacity="1" stroke-width="3.2"/>
<circle clip-path="url(#clip763)" cx="2202.73" cy="1013.02" r="14" fill="#009af9" fill-rule="evenodd" fill-opacity="1" stroke="#000000" stroke-opacity="1" stroke-width="3.2"/>
<circle clip-path="url(#clip763)" cx="2231.5" cy="968.816" r="14" fill="#009af9" fill-rule="evenodd" fill-opacity="1" stroke="#000000" stroke-opacity="1" stroke-width="3.2"/>
<circle clip-path="url(#clip763)" cx="2254.38" cy="921.299" r="14" fill="#009af9" fill-rule="evenodd" fill-opacity="1" stroke="#000000" stroke-opacity="1" stroke-width="3.2"/>
<circle clip-path="url(#clip763)" cx="2271" cy="871.245" r="14" fill="#009af9" fill-rule="evenodd" fill-opacity="1" stroke="#000000" stroke-opacity="1" stroke-width="3.2"/>
<circle clip-path="url(#clip763)" cx="2281.08" cy="819.478" r="14" fill="#009af9" fill-rule="evenodd" fill-opacity="1" stroke="#000000" stroke-opacity="1" stroke-width="3.2"/>
<circle clip-path="url(#clip763)" cx="2284.46" cy="766.846" r="14" fill="#009af9" fill-rule="evenodd" fill-opacity="1" stroke="#000000" stroke-opacity="1" stroke-width="3.2"/>
<circle clip-path="url(#clip763)" cx="2325.62" cy="766.846" r="14" fill="#e26f46" fill-rule="evenodd" fill-opacity="1" stroke="#000000" stroke-opacity="1" stroke-width="3.2"/>
<circle clip-path="url(#clip763)" cx="2321.9" cy="708.951" r="14" fill="#e26f46" fill-rule="evenodd" fill-opacity="1" stroke="#000000" stroke-opacity="1" stroke-width="3.2"/>
<circle clip-path="url(#clip763)" cx="2310.81" cy="652.007" r="14" fill="#e26f46" fill-rule="evenodd" fill-opacity="1" stroke="#000000" stroke-opacity="1" stroke-width="3.2"/>
<circle clip-path="url(#clip763)" cx="2292.53" cy="596.948" r="14" fill="#e26f46" fill-rule="evenodd" fill-opacity="1" stroke="#000000" stroke-opacity="1" stroke-width="3.2"/>
<circle clip-path="url(#clip763)" cx="2267.36" cy="544.679" r="14" fill="#e26f46" fill-rule="evenodd" fill-opacity="1" stroke="#000000" stroke-opacity="1" stroke-width="3.2"/>
<circle clip-path="url(#clip763)" cx="2235.71" cy="496.058" r="14" fill="#e26f46" fill-rule="evenodd" fill-opacity="1" stroke="#000000" stroke-opacity="1" stroke-width="3.2"/>
<circle clip-path="url(#clip763)" cx="2198.11" cy="451.884" r="14" fill="#e26f46" fill-rule="evenodd" fill-opacity="1" stroke="#000000" stroke-opacity="1" stroke-width="3.2"/>
<circle clip-path="url(#clip763)" cx="2155.16" cy="412.881" r="14" fill="#e26f46" fill-rule="evenodd" fill-opacity="1" stroke="#000000" stroke-opacity="1" stroke-width="3.2"/>
<circle clip-path="url(#clip763)" cx="2107.58" cy="379.69" r="14" fill="#e26f46" fill-rule="evenodd" fill-opacity="1" stroke="#000000" stroke-opacity="1" stroke-width="3.2"/>
<circle clip-path="url(#clip763)" cx="2056.14" cy="352.856" r="14" fill="#e26f46" fill-rule="evenodd" fill-opacity="1" stroke="#000000" stroke-opacity="1" stroke-width="3.2"/>
<circle clip-path="url(#clip763)" cx="2001.7" cy="332.82" r="14" fill="#e26f46" fill-rule="evenodd" fill-opacity="1" stroke="#000000" stroke-opacity="1" stroke-width="3.2"/>
<circle clip-path="url(#clip763)" cx="1945.14" cy="319.911" r="14" fill="#e26f46" fill-rule="evenodd" fill-opacity="1" stroke="#000000" stroke-opacity="1" stroke-width="3.2"/>
<circle clip-path="url(#clip763)" cx="1887.39" cy="314.34" r="14" fill="#e26f46" fill-rule="evenodd" fill-opacity="1" stroke="#000000" stroke-opacity="1" stroke-width="3.2"/>
<circle clip-path="url(#clip763)" cx="1829.41" cy="316.199" r="14" fill="#e26f46" fill-rule="evenodd" fill-opacity="1" stroke="#000000" stroke-opacity="1" stroke-width="3.2"/>
<circle clip-path="url(#clip763)" cx="1772.14" cy="325.458" r="14" fill="#e26f46" fill-rule="evenodd" fill-opacity="1" stroke="#000000" stroke-opacity="1" stroke-width="3.2"/>
<circle clip-path="url(#clip763)" cx="1716.52" cy="341.965" r="14" fill="#e26f46" fill-rule="evenodd" fill-opacity="1" stroke="#000000" stroke-opacity="1" stroke-width="3.2"/>
<circle clip-path="url(#clip763)" cx="1663.47" cy="365.448" r="14" fill="#e26f46" fill-rule="evenodd" fill-opacity="1" stroke="#000000" stroke-opacity="1" stroke-width="3.2"/>
<circle clip-path="url(#clip763)" cx="1613.86" cy="395.522" r="14" fill="#e26f46" fill-rule="evenodd" fill-opacity="1" stroke="#000000" stroke-opacity="1" stroke-width="3.2"/>
<circle clip-path="url(#clip763)" cx="1568.5" cy="431.694" r="14" fill="#e26f46" fill-rule="evenodd" fill-opacity="1" stroke="#000000" stroke-opacity="1" stroke-width="3.2"/>
<circle clip-path="url(#clip763)" cx="1528.14" cy="473.368" r="14" fill="#e26f46" fill-rule="evenodd" fill-opacity="1" stroke="#000000" stroke-opacity="1" stroke-width="3.2"/>
<circle clip-path="url(#clip763)" cx="1493.45" cy="519.861" r="14" fill="#e26f46" fill-rule="evenodd" fill-opacity="1" stroke="#000000" stroke-opacity="1" stroke-width="3.2"/>
<circle clip-path="url(#clip763)" cx="1464.98" cy="570.41" r="14" fill="#e26f46" fill-rule="evenodd" fill-opacity="1" stroke="#000000" stroke-opacity="1" stroke-width="3.2"/>
<circle clip-path="url(#clip763)" cx="1443.21" cy="624.184" r="14" fill="#e26f46" fill-rule="evenodd" fill-opacity="1" stroke="#000000" stroke-opacity="1" stroke-width="3.2"/>
<circle clip-path="url(#clip763)" cx="1428.49" cy="680.301" r="14" fill="#e26f46" fill-rule="evenodd" fill-opacity="1" stroke="#000000" stroke-opacity="1" stroke-width="3.2"/>
<circle clip-path="url(#clip763)" cx="1421.07" cy="737.839" r="14" fill="#e26f46" fill-rule="evenodd" fill-opacity="1" stroke="#000000" stroke-opacity="1" stroke-width="3.2"/>
<circle clip-path="url(#clip763)" cx="1421.07" cy="795.853" r="14" fill="#e26f46" fill-rule="evenodd" fill-opacity="1" stroke="#000000" stroke-opacity="1" stroke-width="3.2"/>
<circle clip-path="url(#clip763)" cx="1428.49" cy="853.391" r="14" fill="#e26f46" fill-rule="evenodd" fill-opacity="1" stroke="#000000" stroke-opacity="1" stroke-width="3.2"/>
<circle clip-path="url(#clip763)" cx="1443.21" cy="909.508" r="14" fill="#e26f46" fill-rule="evenodd" fill-opacity="1" stroke="#000000" stroke-opacity="1" stroke-width="3.2"/>
<circle clip-path="url(#clip763)" cx="1464.98" cy="963.282" r="14" fill="#e26f46" fill-rule="evenodd" fill-opacity="1" stroke="#000000" stroke-opacity="1" stroke-width="3.2"/>
<circle clip-path="url(#clip763)" cx="1493.45" cy="1013.83" r="14" fill="#e26f46" fill-rule="evenodd" fill-opacity="1" stroke="#000000" stroke-opacity="1" stroke-width="3.2"/>
<circle clip-path="url(#clip763)" cx="1528.14" cy="1060.32" r="14" fill="#e26f46" fill-rule="evenodd" fill-opacity="1" stroke="#000000" stroke-opacity="1" stroke-width="3.2"/>
<circle clip-path="url(#clip763)" cx="1568.5" cy="1102" r="14" fill="#e26f46" fill-rule="evenodd" fill-opacity="1" stroke="#000000" stroke-opacity="1" stroke-width="3.2"/>
<circle clip-path="url(#clip763)" cx="1613.86" cy="1138.17" r="14" fill="#e26f46" fill-rule="evenodd" fill-opacity="1" stroke="#000000" stroke-opacity="1" stroke-width="3.2"/>
<circle clip-path="url(#clip763)" cx="1663.47" cy="1168.24" r="14" fill="#e26f46" fill-rule="evenodd" fill-opacity="1" stroke="#000000" stroke-opacity="1" stroke-width="3.2"/>
<circle clip-path="url(#clip763)" cx="1716.52" cy="1191.73" r="14" fill="#e26f46" fill-rule="evenodd" fill-opacity="1" stroke="#000000" stroke-opacity="1" stroke-width="3.2"/>
<circle clip-path="url(#clip763)" cx="1772.14" cy="1208.23" r="14" fill="#e26f46" fill-rule="evenodd" fill-opacity="1" stroke="#000000" stroke-opacity="1" stroke-width="3.2"/>
<circle clip-path="url(#clip763)" cx="1829.41" cy="1217.49" r="14" fill="#e26f46" fill-rule="evenodd" fill-opacity="1" stroke="#000000" stroke-opacity="1" stroke-width="3.2"/>
<circle clip-path="url(#clip763)" cx="1887.39" cy="1219.35" r="14" fill="#e26f46" fill-rule="evenodd" fill-opacity="1" stroke="#000000" stroke-opacity="1" stroke-width="3.2"/>
<circle clip-path="url(#clip763)" cx="1945.14" cy="1213.78" r="14" fill="#e26f46" fill-rule="evenodd" fill-opacity="1" stroke="#000000" stroke-opacity="1" stroke-width="3.2"/>
<circle clip-path="url(#clip763)" cx="2001.7" cy="1200.87" r="14" fill="#e26f46" fill-rule="evenodd" fill-opacity="1" stroke="#000000" stroke-opacity="1" stroke-width="3.2"/>
<circle clip-path="url(#clip763)" cx="2056.14" cy="1180.84" r="14" fill="#e26f46" fill-rule="evenodd" fill-opacity="1" stroke="#000000" stroke-opacity="1" stroke-width="3.2"/>
<circle clip-path="url(#clip763)" cx="2107.58" cy="1154" r="14" fill="#e26f46" fill-rule="evenodd" fill-opacity="1" stroke="#000000" stroke-opacity="1" stroke-width="3.2"/>
<circle clip-path="url(#clip763)" cx="2155.16" cy="1120.81" r="14" fill="#e26f46" fill-rule="evenodd" fill-opacity="1" stroke="#000000" stroke-opacity="1" stroke-width="3.2"/>
<circle clip-path="url(#clip763)" cx="2198.11" cy="1081.81" r="14" fill="#e26f46" fill-rule="evenodd" fill-opacity="1" stroke="#000000" stroke-opacity="1" stroke-width="3.2"/>
<circle clip-path="url(#clip763)" cx="2235.71" cy="1037.63" r="14" fill="#e26f46" fill-rule="evenodd" fill-opacity="1" stroke="#000000" stroke-opacity="1" stroke-width="3.2"/>
<circle clip-path="url(#clip763)" cx="2267.36" cy="989.013" r="14" fill="#e26f46" fill-rule="evenodd" fill-opacity="1" stroke="#000000" stroke-opacity="1" stroke-width="3.2"/>
<circle clip-path="url(#clip763)" cx="2292.53" cy="936.744" r="14" fill="#e26f46" fill-rule="evenodd" fill-opacity="1" stroke="#000000" stroke-opacity="1" stroke-width="3.2"/>
<circle clip-path="url(#clip763)" cx="2310.81" cy="881.685" r="14" fill="#e26f46" fill-rule="evenodd" fill-opacity="1" stroke="#000000" stroke-opacity="1" stroke-width="3.2"/>
<circle clip-path="url(#clip763)" cx="2321.9" cy="824.741" r="14" fill="#e26f46" fill-rule="evenodd" fill-opacity="1" stroke="#000000" stroke-opacity="1" stroke-width="3.2"/>
<circle clip-path="url(#clip763)" cx="2325.62" cy="766.846" r="14" fill="#e26f46" fill-rule="evenodd" fill-opacity="1" stroke="#000000" stroke-opacity="1" stroke-width="3.2"/>
<path clip-path="url(#clip760)" d="
M2103.43 328.498 L2320.8 328.498 L2320.8 95.2176 L2103.43 95.2176  Z
  " fill="#ffffff" fill-rule="evenodd" fill-opacity="1"/>
<polyline clip-path="url(#clip760)" style="stroke:#000000; stroke-linecap:butt; stroke-linejoin:round; stroke-width:4; stroke-opacity:1; fill:none" points="
  2103.43,328.498 2320.8,328.498 2320.8,95.2176 2103.43,95.2176 2103.43,328.498 
  "/>
<circle clip-path="url(#clip760)" cx="2146.04" cy="172.978" r="34" fill="#009af9" fill-rule="evenodd" fill-opacity="1" stroke="#000000" stroke-opacity="1" stroke-width="7.68"/>
<path clip-path="url(#clip760)" d="M2188.66 160.009 L2195.04 160.009 L2195.04 198.898 L2188.66 198.898 L2188.66 160.009 M2188.66 144.87 L2195.04 144.87 L2195.04 152.96 L2188.66 152.96 L2188.66 144.87 Z" fill="#000000" fill-rule="evenodd" fill-opacity="1" /><path clip-path="url(#clip760)" d="M2240.74 175.425 L2240.74 198.898 L2234.35 198.898 L2234.35 175.634 Q2234.35 170.113 2232.2 167.37 Q2230.04 164.627 2225.74 164.627 Q2220.56 164.627 2217.58 167.925 Q2214.59 171.224 2214.59 176.919 L2214.59 198.898 L2208.17 198.898 L2208.17 160.009 L2214.59 160.009 L2214.59 166.051 Q2216.88 162.544 2219.97 160.807 Q2223.1 159.071 2227.16 159.071 Q2233.86 159.071 2237.3 163.238 Q2240.74 167.37 2240.74 175.425 Z" fill="#000000" fill-rule="evenodd" fill-opacity="1" /><circle clip-path="url(#clip760)" cx="2146.04" cy="250.738" r="34" fill="#e26f46" fill-rule="evenodd" fill-opacity="1" stroke="#000000" stroke-opacity="1" stroke-width="7.68"/>
<path clip-path="url(#clip760)" d="M2206.5 242.248 Q2201.36 242.248 2198.38 246.276 Q2195.39 250.269 2195.39 257.248 Q2195.39 264.227 2198.34 268.255 Q2201.33 272.248 2206.5 272.248 Q2211.61 272.248 2214.59 268.22 Q2217.58 264.192 2217.58 257.248 Q2217.58 250.338 2214.59 246.31 Q2211.61 242.248 2206.5 242.248 M2206.5 236.831 Q2214.84 236.831 2219.59 242.248 Q2224.35 247.665 2224.35 257.248 Q2224.35 266.796 2219.59 272.248 Q2214.84 277.664 2206.5 277.664 Q2198.13 277.664 2193.38 272.248 Q2188.66 266.796 2188.66 257.248 Q2188.66 247.665 2193.38 242.248 Q2198.13 236.831 2206.5 236.831 Z" fill="#000000" fill-rule="evenodd" fill-opacity="1" /><path clip-path="url(#clip760)" d="M2234.28 261.31 L2234.28 237.769 L2240.67 237.769 L2240.67 261.067 Q2240.67 266.588 2242.82 269.366 Q2244.97 272.109 2249.28 272.109 Q2254.45 272.109 2257.44 268.81 Q2260.46 265.512 2260.46 259.817 L2260.46 237.769 L2266.85 237.769 L2266.85 276.658 L2260.46 276.658 L2260.46 270.685 Q2258.13 274.227 2255.04 275.963 Q2251.99 277.664 2247.93 277.664 Q2241.22 277.664 2237.75 273.498 Q2234.28 269.331 2234.28 261.31 M2250.36 236.831 L2250.36 236.831 Z" fill="#000000" fill-rule="evenodd" fill-opacity="1" /><path clip-path="url(#clip760)" d="M2286.33 226.727 L2286.33 237.769 L2299.49 237.769 L2299.49 242.734 L2286.33 242.734 L2286.33 263.845 Q2286.33 268.602 2287.61 269.956 Q2288.93 271.31 2292.93 271.31 L2299.49 271.31 L2299.49 276.658 L2292.93 276.658 Q2285.53 276.658 2282.72 273.915 Q2279.9 271.137 2279.9 263.845 L2279.9 242.734 L2275.22 242.734 L2275.22 237.769 L2279.9 237.769 L2279.9 226.727 L2286.33 226.727 Z" fill="#000000" fill-rule="evenodd" fill-opacity="1" /></svg>
