<?xml version="1.0" encoding="utf-8"?>
<svg xmlns="http://www.w3.org/2000/svg" xmlns:xlink="http://www.w3.org/1999/xlink" width="600" height="400" viewBox="0 0 2400 1600">
<defs>
  <clipPath id="clip800">
    <rect x="0" y="0" width="2400" height="1600"/>
  </clipPath>
</defs>
<path clip-path="url(#clip800)" d="
M0 1600 L2400 1600 L2400 0 L0 0  Z
  " fill="#ffffff" fill-rule="evenodd" fill-opacity="1"/>
<defs>
  <clipPath id="clip801">
    <rect x="480" y="0" width="1681" height="1600"/>
  </clipPath>
</defs>
<path clip-path="url(#clip800)" d="
M213.607 1486.45 L2352.76 1486.45 L2352.76 123.472 L213.607 123.472  Z
  " fill="#ffffff" fill-rule="evenodd" fill-opacity="1"/>
<defs>
  <clipPath id="clip802">
    <rect x="213" y="123" width="2140" height="1364"/>
  </clipPath>
</defs>
<polyline clip-path="url(#clip802)" style="stroke:#000000; stroke-linecap:butt; stroke-linejoin:round; stroke-width:2; stroke-opacity:0.1; fill:none" points="
  442.321,1486.45 442.321,123.472 
  "/>
<polyline clip-path="url(#clip802)" style="stroke:#000000; stroke-linecap:butt; stroke-linejoin:round; stroke-width:2; stroke-opacity:0.1; fill:none" points="
  722.608,1486.45 722.608,123.472 
  "/>
<polyline clip-path="url(#clip802)" style="stroke:#000000; stroke-linecap:butt; stroke-linejoin:round; stroke-width:2; stroke-opacity:0.1; fill:none" points="
  1002.89,1486.45 1002.89,123.472 
  "/>
<polyline clip-path="url(#clip802)" style="stroke:#000000; stroke-linecap:butt; stroke-linejoin:round; stroke-width:2; stroke-opacity:0.1; fill:none" points="
  1283.18,1486.45 1283.18,123.472 
  "/>
<polyline clip-path="url(#clip802)" style="stroke:#000000; stroke-linecap:butt; stroke-linejoin:round; stroke-width:2; stroke-opacity:0.1; fill:none" points="
  1563.47,1486.45 1563.47,123.472 
  "/>
<polyline clip-path="url(#clip802)" style="stroke:#000000; stroke-linecap:butt; stroke-linejoin:round; stroke-width:2; stroke-opacity:0.1; fill:none" points="
  1843.76,1486.45 1843.76,123.472 
  "/>
<polyline clip-path="url(#clip802)" style="stroke:#000000; stroke-linecap:butt; stroke-linejoin:round; stroke-width:2; stroke-opacity:0.1; fill:none" points="
  2124.04,1486.45 2124.04,123.472 
  "/>
<polyline clip-path="url(#clip800)" style="stroke:#000000; stroke-linecap:butt; stroke-linejoin:round; stroke-width:4; stroke-opacity:1; fill:none" points="
  213.607,1486.45 2352.76,1486.45 
  "/>
<polyline clip-path="url(#clip800)" style="stroke:#000000; stroke-linecap:butt; stroke-linejoin:round; stroke-width:4; stroke-opacity:1; fill:none" points="
  442.321,1486.45 442.321,1467.55 
  "/>
<polyline clip-path="url(#clip800)" style="stroke:#000000; stroke-linecap:butt; stroke-linejoin:round; stroke-width:4; stroke-opacity:1; fill:none" points="
  722.608,1486.45 722.608,1467.55 
  "/>
<polyline clip-path="url(#clip800)" style="stroke:#000000; stroke-linecap:butt; stroke-linejoin:round; stroke-width:4; stroke-opacity:1; fill:none" points="
  1002.89,1486.45 1002.89,1467.55 
  "/>
<polyline clip-path="url(#clip800)" style="stroke:#000000; stroke-linecap:butt; stroke-linejoin:round; stroke-width:4; stroke-opacity:1; fill:none" points="
  1283.18,1486.45 1283.18,1467.55 
  "/>
<polyline clip-path="url(#clip800)" style="stroke:#000000; stroke-linecap:butt; stroke-linejoin:round; stroke-width:4; stroke-opacity:1; fill:none" points="
  1563.47,1486.45 1563.47,1467.55 
  "/>
<polyline clip-path="url(#clip800)" style="stroke:#000000; stroke-linecap:butt; stroke-linejoin:round; stroke-width:4; stroke-opacity:1; fill:none" points="
  1843.76,1486.45 1843.76,1467.55 
  "/>
<polyline clip-path="url(#clip800)" style="stroke:#000000; stroke-linecap:butt; stroke-linejoin:round; stroke-width:4; stroke-opacity:1; fill:none" points="
  2124.04,1486.45 2124.04,1467.55 
  "/>
<path clip-path="url(#clip800)" d="M414.058 1544.91 L430.377 1544.91 L430.377 1548.85 L408.433 1548.85 L408.433 1544.91 Q411.095 1542.16 415.678 1537.53 Q420.285 1532.88 421.465 1531.53 Q423.71 1529.01 424.59 1527.27 Q425.493 1525.51 425.493 1523.82 Q425.493 1521.07 423.548 1519.33 Q421.627 1517.6 418.525 1517.6 Q416.326 1517.6 413.873 1518.36 Q411.442 1519.13 408.664 1520.68 L408.664 1515.95 Q411.488 1514.82 413.942 1514.24 Q416.396 1513.66 418.433 1513.66 Q423.803 1513.66 426.997 1516.35 Q430.192 1519.03 430.192 1523.52 Q430.192 1525.65 429.382 1527.57 Q428.595 1529.47 426.488 1532.07 Q425.91 1532.74 422.808 1535.95 Q419.706 1539.15 414.058 1544.91 Z" fill="#000000" fill-rule="evenodd" fill-opacity="1" /><path clip-path="url(#clip800)" d="M440.192 1542.97 L445.076 1542.97 L445.076 1548.85 L440.192 1548.85 L440.192 1542.97 Z" fill="#000000" fill-rule="evenodd" fill-opacity="1" /><path clip-path="url(#clip800)" d="M455.308 1514.29 L473.664 1514.29 L473.664 1518.22 L459.59 1518.22 L459.59 1526.7 Q460.608 1526.35 461.627 1526.19 Q462.645 1526 463.664 1526 Q469.451 1526 472.831 1529.17 Q476.21 1532.34 476.21 1537.76 Q476.21 1543.34 472.738 1546.44 Q469.266 1549.52 462.946 1549.52 Q460.77 1549.52 458.502 1549.15 Q456.257 1548.78 453.849 1548.04 L453.849 1543.34 Q455.932 1544.47 458.155 1545.03 Q460.377 1545.58 462.854 1545.58 Q466.858 1545.58 469.196 1543.48 Q471.534 1541.37 471.534 1537.76 Q471.534 1534.15 469.196 1532.04 Q466.858 1529.94 462.854 1529.94 Q460.979 1529.94 459.104 1530.35 Q457.252 1530.77 455.308 1531.65 L455.308 1514.29 Z" fill="#000000" fill-rule="evenodd" fill-opacity="1" /><path clip-path="url(#clip800)" d="M689.773 1514.29 L708.129 1514.29 L708.129 1518.22 L694.055 1518.22 L694.055 1526.7 Q695.074 1526.35 696.092 1526.19 Q697.111 1526 698.129 1526 Q703.916 1526 707.296 1529.17 Q710.675 1532.34 710.675 1537.76 Q710.675 1543.34 707.203 1546.44 Q703.731 1549.52 697.412 1549.52 Q695.236 1549.52 692.967 1549.15 Q690.722 1548.78 688.314 1548.04 L688.314 1543.34 Q690.398 1544.47 692.62 1545.03 Q694.842 1545.58 697.319 1545.58 Q701.324 1545.58 703.662 1543.48 Q705.999 1541.37 705.999 1537.76 Q705.999 1534.15 703.662 1532.04 Q701.324 1529.94 697.319 1529.94 Q695.444 1529.94 693.569 1530.35 Q691.717 1530.77 689.773 1531.65 L689.773 1514.29 Z" fill="#000000" fill-rule="evenodd" fill-opacity="1" /><path clip-path="url(#clip800)" d="M719.888 1542.97 L724.773 1542.97 L724.773 1548.85 L719.888 1548.85 L719.888 1542.97 Z" fill="#000000" fill-rule="evenodd" fill-opacity="1" /><path clip-path="url(#clip800)" d="M744.958 1517.37 Q741.347 1517.37 739.518 1520.93 Q737.712 1524.47 737.712 1531.6 Q737.712 1538.71 739.518 1542.27 Q741.347 1545.82 744.958 1545.82 Q748.592 1545.82 750.397 1542.27 Q752.226 1538.71 752.226 1531.6 Q752.226 1524.47 750.397 1520.93 Q748.592 1517.37 744.958 1517.37 M744.958 1513.66 Q750.768 1513.66 753.823 1518.27 Q756.902 1522.85 756.902 1531.6 Q756.902 1540.33 753.823 1544.94 Q750.768 1549.52 744.958 1549.52 Q739.147 1549.52 736.069 1544.94 Q733.013 1540.33 733.013 1531.6 Q733.013 1522.85 736.069 1518.27 Q739.147 1513.66 744.958 1513.66 Z" fill="#000000" fill-rule="evenodd" fill-opacity="1" /><path clip-path="url(#clip800)" d="M969.215 1514.29 L991.437 1514.29 L991.437 1516.28 L978.89 1548.85 L974.006 1548.85 L985.812 1518.22 L969.215 1518.22 L969.215 1514.29 Z" fill="#000000" fill-rule="evenodd" fill-opacity="1" /><path clip-path="url(#clip800)" d="M1000.56 1542.97 L1005.44 1542.97 L1005.44 1548.85 L1000.56 1548.85 L1000.56 1542.97 Z" fill="#000000" fill-rule="evenodd" fill-opacity="1" /><path clip-path="url(#clip800)" d="M1015.67 1514.29 L1034.03 1514.29 L1034.03 1518.22 L1019.96 1518.22 L1019.96 1526.7 Q1020.97 1526.35 1021.99 1526.19 Q1023.01 1526 1024.03 1526 Q1029.82 1526 1033.2 1529.17 Q1036.58 1532.34 1036.58 1537.76 Q1036.58 1543.34 1033.1 1546.44 Q1029.63 1549.52 1023.31 1549.52 Q1021.14 1549.52 1018.87 1549.15 Q1016.62 1548.78 1014.21 1548.04 L1014.21 1543.34 Q1016.3 1544.47 1018.52 1545.03 Q1020.74 1545.58 1023.22 1545.58 Q1027.22 1545.58 1029.56 1543.48 Q1031.9 1541.37 1031.9 1537.76 Q1031.9 1534.15 1029.56 1532.04 Q1027.22 1529.94 1023.22 1529.94 Q1021.34 1529.94 1019.47 1530.35 Q1017.62 1530.77 1015.67 1531.65 L1015.67 1514.29 Z" fill="#000000" fill-rule="evenodd" fill-opacity="1" /><path clip-path="url(#clip800)" d="M1235.25 1544.91 L1242.89 1544.91 L1242.89 1518.55 L1234.58 1520.21 L1234.58 1515.95 L1242.85 1514.29 L1247.52 1514.29 L1247.52 1544.91 L1255.16 1544.91 L1255.16 1548.85 L1235.25 1548.85 L1235.25 1544.91 Z" fill="#000000" fill-rule="evenodd" fill-opacity="1" /><path clip-path="url(#clip800)" d="M1274.61 1517.37 Q1270.99 1517.37 1269.17 1520.93 Q1267.36 1524.47 1267.36 1531.6 Q1267.36 1538.71 1269.17 1542.27 Q1270.99 1545.82 1274.61 1545.82 Q1278.24 1545.82 1280.05 1542.27 Q1281.87 1538.71 1281.87 1531.6 Q1281.87 1524.47 1280.05 1520.93 Q1278.24 1517.37 1274.61 1517.37 M1274.61 1513.66 Q1280.42 1513.66 1283.47 1518.27 Q1286.55 1522.85 1286.55 1531.6 Q1286.55 1540.33 1283.47 1544.94 Q1280.42 1549.52 1274.61 1549.52 Q1268.8 1549.52 1265.72 1544.94 Q1262.66 1540.33 1262.66 1531.6 Q1262.66 1522.85 1265.72 1518.27 Q1268.8 1513.66 1274.61 1513.66 Z" fill="#000000" fill-rule="evenodd" fill-opacity="1" /><path clip-path="url(#clip800)" d="M1294.77 1542.97 L1299.65 1542.97 L1299.65 1548.85 L1294.77 1548.85 L1294.77 1542.97 Z" fill="#000000" fill-rule="evenodd" fill-opacity="1" /><path clip-path="url(#clip800)" d="M1319.84 1517.37 Q1316.23 1517.37 1314.4 1520.93 Q1312.59 1524.47 1312.59 1531.6 Q1312.59 1538.71 1314.4 1542.27 Q1316.23 1545.82 1319.84 1545.82 Q1323.47 1545.82 1325.28 1542.27 Q1327.11 1538.71 1327.11 1531.6 Q1327.11 1524.47 1325.28 1520.93 Q1323.47 1517.37 1319.84 1517.37 M1319.84 1513.66 Q1325.65 1513.66 1328.7 1518.27 Q1331.78 1522.85 1331.78 1531.6 Q1331.78 1540.33 1328.7 1544.94 Q1325.65 1549.52 1319.84 1549.52 Q1314.03 1549.52 1310.95 1544.94 Q1307.89 1540.33 1307.89 1531.6 Q1307.89 1522.85 1310.95 1518.27 Q1314.03 1513.66 1319.84 1513.66 Z" fill="#000000" fill-rule="evenodd" fill-opacity="1" /><path clip-path="url(#clip800)" d="M1516.04 1544.91 L1523.68 1544.91 L1523.68 1518.55 L1515.37 1520.21 L1515.37 1515.95 L1523.63 1514.29 L1528.31 1514.29 L1528.31 1544.91 L1535.95 1544.91 L1535.95 1548.85 L1516.04 1548.85 L1516.04 1544.91 Z" fill="#000000" fill-rule="evenodd" fill-opacity="1" /><path clip-path="url(#clip800)" d="M1549.42 1544.91 L1565.74 1544.91 L1565.74 1548.85 L1543.79 1548.85 L1543.79 1544.91 Q1546.45 1542.16 1551.04 1537.53 Q1555.64 1532.88 1556.82 1531.53 Q1559.07 1529.01 1559.95 1527.27 Q1560.85 1525.51 1560.85 1523.82 Q1560.85 1521.07 1558.91 1519.33 Q1556.99 1517.6 1553.89 1517.6 Q1551.69 1517.6 1549.23 1518.36 Q1546.8 1519.13 1544.02 1520.68 L1544.02 1515.95 Q1546.85 1514.82 1549.3 1514.24 Q1551.76 1513.66 1553.79 1513.66 Q1559.16 1513.66 1562.36 1516.35 Q1565.55 1519.03 1565.55 1523.52 Q1565.55 1525.65 1564.74 1527.57 Q1563.95 1529.47 1561.85 1532.07 Q1561.27 1532.74 1558.17 1535.95 Q1555.07 1539.15 1549.42 1544.91 Z" fill="#000000" fill-rule="evenodd" fill-opacity="1" /><path clip-path="url(#clip800)" d="M1575.55 1542.97 L1580.44 1542.97 L1580.44 1548.85 L1575.55 1548.85 L1575.55 1542.97 Z" fill="#000000" fill-rule="evenodd" fill-opacity="1" /><path clip-path="url(#clip800)" d="M1590.67 1514.29 L1609.02 1514.29 L1609.02 1518.22 L1594.95 1518.22 L1594.95 1526.7 Q1595.97 1526.35 1596.99 1526.19 Q1598.01 1526 1599.02 1526 Q1604.81 1526 1608.19 1529.17 Q1611.57 1532.34 1611.57 1537.76 Q1611.57 1543.34 1608.1 1546.44 Q1604.63 1549.52 1598.31 1549.52 Q1596.13 1549.52 1593.86 1549.15 Q1591.62 1548.78 1589.21 1548.04 L1589.21 1543.34 Q1591.29 1544.47 1593.51 1545.03 Q1595.74 1545.58 1598.21 1545.58 Q1602.22 1545.58 1604.56 1543.48 Q1606.89 1541.37 1606.89 1537.76 Q1606.89 1534.15 1604.56 1532.04 Q1602.22 1529.94 1598.21 1529.94 Q1596.34 1529.94 1594.46 1530.35 Q1592.61 1530.77 1590.67 1531.65 L1590.67 1514.29 Z" fill="#000000" fill-rule="evenodd" fill-opacity="1" /><path clip-path="url(#clip800)" d="M1795.83 1544.91 L1803.47 1544.91 L1803.47 1518.55 L1795.16 1520.21 L1795.16 1515.95 L1803.42 1514.29 L1808.1 1514.29 L1808.1 1544.91 L1815.73 1544.91 L1815.73 1548.85 L1795.83 1548.85 L1795.83 1544.91 Z" fill="#000000" fill-rule="evenodd" fill-opacity="1" /><path clip-path="url(#clip800)" d="M1825.23 1514.29 L1843.58 1514.29 L1843.58 1518.22 L1829.51 1518.22 L1829.51 1526.7 Q1830.53 1526.35 1831.54 1526.19 Q1832.56 1526 1833.58 1526 Q1839.37 1526 1842.75 1529.17 Q1846.13 1532.34 1846.13 1537.76 Q1846.13 1543.34 1842.66 1546.44 Q1839.18 1549.52 1832.86 1549.52 Q1830.69 1549.52 1828.42 1549.15 Q1826.17 1548.78 1823.77 1548.04 L1823.77 1543.34 Q1825.85 1544.47 1828.07 1545.03 Q1830.29 1545.58 1832.77 1545.58 Q1836.78 1545.58 1839.11 1543.48 Q1841.45 1541.37 1841.45 1537.76 Q1841.45 1534.15 1839.11 1532.04 Q1836.78 1529.94 1832.77 1529.94 Q1830.9 1529.94 1829.02 1530.35 Q1827.17 1530.77 1825.23 1531.65 L1825.23 1514.29 Z" fill="#000000" fill-rule="evenodd" fill-opacity="1" /><path clip-path="url(#clip800)" d="M1855.34 1542.97 L1860.22 1542.97 L1860.22 1548.85 L1855.34 1548.85 L1855.34 1542.97 Z" fill="#000000" fill-rule="evenodd" fill-opacity="1" /><path clip-path="url(#clip800)" d="M1880.41 1517.37 Q1876.8 1517.37 1874.97 1520.93 Q1873.16 1524.47 1873.16 1531.6 Q1873.16 1538.71 1874.97 1542.27 Q1876.8 1545.82 1880.41 1545.82 Q1884.04 1545.82 1885.85 1542.27 Q1887.68 1538.71 1887.68 1531.6 Q1887.68 1524.47 1885.85 1520.93 Q1884.04 1517.37 1880.41 1517.37 M1880.41 1513.66 Q1886.22 1513.66 1889.28 1518.27 Q1892.35 1522.85 1892.35 1531.6 Q1892.35 1540.33 1889.28 1544.94 Q1886.22 1549.52 1880.41 1549.52 Q1874.6 1549.52 1871.52 1544.94 Q1868.47 1540.33 1868.47 1531.6 Q1868.47 1522.85 1871.52 1518.27 Q1874.6 1513.66 1880.41 1513.66 Z" fill="#000000" fill-rule="evenodd" fill-opacity="1" /><path clip-path="url(#clip800)" d="M2076.61 1544.91 L2084.25 1544.91 L2084.25 1518.55 L2075.94 1520.21 L2075.94 1515.95 L2084.2 1514.29 L2088.88 1514.29 L2088.88 1544.91 L2096.52 1544.91 L2096.52 1548.85 L2076.61 1548.85 L2076.61 1544.91 Z" fill="#000000" fill-rule="evenodd" fill-opacity="1" /><path clip-path="url(#clip800)" d="M2104.78 1514.29 L2127 1514.29 L2127 1516.28 L2114.46 1548.85 L2109.57 1548.85 L2121.38 1518.22 L2104.78 1518.22 L2104.78 1514.29 Z" fill="#000000" fill-rule="evenodd" fill-opacity="1" /><path clip-path="url(#clip800)" d="M2136.13 1542.97 L2141.01 1542.97 L2141.01 1548.85 L2136.13 1548.85 L2136.13 1542.97 Z" fill="#000000" fill-rule="evenodd" fill-opacity="1" /><path clip-path="url(#clip800)" d="M2151.24 1514.29 L2169.6 1514.29 L2169.6 1518.22 L2155.52 1518.22 L2155.52 1526.7 Q2156.54 1526.35 2157.56 1526.19 Q2158.58 1526 2159.6 1526 Q2165.38 1526 2168.76 1529.17 Q2172.14 1532.34 2172.14 1537.76 Q2172.14 1543.34 2168.67 1546.44 Q2165.2 1549.52 2158.88 1549.52 Q2156.7 1549.52 2154.44 1549.15 Q2152.19 1548.78 2149.78 1548.04 L2149.78 1543.34 Q2151.87 1544.47 2154.09 1545.03 Q2156.31 1545.58 2158.79 1545.58 Q2162.79 1545.58 2165.13 1543.48 Q2167.47 1541.37 2167.47 1537.76 Q2167.47 1534.15 2165.13 1532.04 Q2162.79 1529.94 2158.79 1529.94 Q2156.91 1529.94 2155.04 1530.35 Q2153.19 1530.77 2151.24 1531.65 L2151.24 1514.29 Z" fill="#000000" fill-rule="evenodd" fill-opacity="1" /><polyline clip-path="url(#clip802)" style="stroke:#000000; stroke-linecap:butt; stroke-linejoin:round; stroke-width:2; stroke-opacity:0.1; fill:none" points="
  213.607,951.846 2352.76,951.846 
  "/>
<polyline clip-path="url(#clip802)" style="stroke:#000000; stroke-linecap:butt; stroke-linejoin:round; stroke-width:2; stroke-opacity:0.1; fill:none" points="
  213.607,158.915 2352.76,158.915 
  "/>
<polyline clip-path="url(#clip800)" style="stroke:#000000; stroke-linecap:butt; stroke-linejoin:round; stroke-width:4; stroke-opacity:1; fill:none" points="
  213.607,1486.45 213.607,123.472 
  "/>
<polyline clip-path="url(#clip800)" style="stroke:#000000; stroke-linecap:butt; stroke-linejoin:round; stroke-width:4; stroke-opacity:1; fill:none" points="
  213.607,951.846 232.505,951.846 
  "/>
<polyline clip-path="url(#clip800)" style="stroke:#000000; stroke-linecap:butt; stroke-linejoin:round; stroke-width:4; stroke-opacity:1; fill:none" points="
  213.607,158.915 232.505,158.915 
  "/>
<path clip-path="url(#clip800)" d="M51.6634 971.638 L59.3023 971.638 L59.3023 945.272 L50.9921 946.939 L50.9921 942.68 L59.256 941.013 L63.9319 941.013 L63.9319 971.638 L71.5707 971.638 L71.5707 975.573 L51.6634 975.573 L51.6634 971.638 Z" fill="#000000" fill-rule="evenodd" fill-opacity="1" /><path clip-path="url(#clip800)" d="M91.0151 944.092 Q87.404 944.092 85.5753 947.657 Q83.7697 951.198 83.7697 958.328 Q83.7697 965.434 85.5753 968.999 Q87.404 972.541 91.0151 972.541 Q94.6493 972.541 96.4548 968.999 Q98.2835 965.434 98.2835 958.328 Q98.2835 951.198 96.4548 947.657 Q94.6493 944.092 91.0151 944.092 M91.0151 940.388 Q96.8252 940.388 99.8808 944.995 Q102.959 949.578 102.959 958.328 Q102.959 967.055 99.8808 971.661 Q96.8252 976.245 91.0151 976.245 Q85.2049 976.245 82.1262 971.661 Q79.0707 967.055 79.0707 958.328 Q79.0707 949.578 82.1262 944.995 Q85.2049 940.388 91.0151 940.388 Z" fill="#000000" fill-rule="evenodd" fill-opacity="1" /><path clip-path="url(#clip800)" d="M102.959 934.49 L127.071 934.49 L127.071 937.687 L102.959 937.687 L102.959 934.49 Z" fill="#000000" fill-rule="evenodd" fill-opacity="1" /><path clip-path="url(#clip800)" d="M135.929 944.965 L142.136 944.965 L142.136 923.543 L135.384 924.898 L135.384 921.437 L142.098 920.083 L145.898 920.083 L145.898 944.965 L152.104 944.965 L152.104 948.163 L135.929 948.163 L135.929 944.965 Z" fill="#000000" fill-rule="evenodd" fill-opacity="1" /><path clip-path="url(#clip800)" d="M167.903 922.584 Q164.969 922.584 163.483 925.481 Q162.016 928.358 162.016 934.151 Q162.016 939.925 163.483 942.821 Q164.969 945.699 167.903 945.699 Q170.855 945.699 172.322 942.821 Q173.808 939.925 173.808 934.151 Q173.808 928.358 172.322 925.481 Q170.855 922.584 167.903 922.584 M167.903 919.575 Q172.623 919.575 175.106 923.318 Q177.607 927.042 177.607 934.151 Q177.607 941.242 175.106 944.984 Q172.623 948.708 167.903 948.708 Q163.182 948.708 160.68 944.984 Q158.198 941.242 158.198 934.151 Q158.198 927.042 160.68 923.318 Q163.182 919.575 167.903 919.575 Z" fill="#000000" fill-rule="evenodd" fill-opacity="1" /><path clip-path="url(#clip800)" d="M106.902 178.707 L114.541 178.707 L114.541 152.341 L106.231 154.008 L106.231 149.749 L114.494 148.082 L119.17 148.082 L119.17 178.707 L126.809 178.707 L126.809 182.642 L106.902 182.642 L106.902 178.707 Z" fill="#000000" fill-rule="evenodd" fill-opacity="1" /><path clip-path="url(#clip800)" d="M146.253 151.161 Q142.642 151.161 140.814 154.726 Q139.008 158.267 139.008 165.397 Q139.008 172.503 140.814 176.068 Q142.642 179.61 146.253 179.61 Q149.888 179.61 151.693 176.068 Q153.522 172.503 153.522 165.397 Q153.522 158.267 151.693 154.726 Q149.888 151.161 146.253 151.161 M146.253 147.457 Q152.064 147.457 155.119 152.064 Q158.198 156.647 158.198 165.397 Q158.198 174.124 155.119 178.73 Q152.064 183.314 146.253 183.314 Q140.443 183.314 137.365 178.73 Q134.309 174.124 134.309 165.397 Q134.309 156.647 137.365 152.064 Q140.443 147.457 146.253 147.457 Z" fill="#000000" fill-rule="evenodd" fill-opacity="1" /><path clip-path="url(#clip800)" d="M167.903 129.653 Q164.969 129.653 163.483 132.55 Q162.016 135.427 162.016 141.22 Q162.016 146.994 163.483 149.89 Q164.969 152.768 167.903 152.768 Q170.855 152.768 172.322 149.89 Q173.808 146.994 173.808 141.22 Q173.808 135.427 172.322 132.55 Q170.855 129.653 167.903 129.653 M167.903 126.644 Q172.623 126.644 175.106 130.387 Q177.607 134.111 177.607 141.22 Q177.607 148.311 175.106 152.053 Q172.623 155.777 167.903 155.777 Q163.182 155.777 160.68 152.053 Q158.198 148.311 158.198 141.22 Q158.198 134.111 160.68 130.387 Q163.182 126.644 167.903 126.644 Z" fill="#000000" fill-rule="evenodd" fill-opacity="1" /><path clip-path="url(#clip800)" d="M841.734 16.7545 L841.734 25.383 Q837.602 21.5346 832.903 19.6307 Q828.245 17.7268 822.979 17.7268 Q812.608 17.7268 807.099 24.0867 Q801.59 30.4061 801.59 42.3968 Q801.59 54.3469 807.099 60.7069 Q812.608 67.0263 822.979 67.0263 Q828.245 67.0263 832.903 65.1223 Q837.602 63.2184 841.734 59.3701 L841.734 67.9175 Q837.44 70.8341 832.62 72.2924 Q827.84 73.7508 822.493 73.7508 Q808.76 73.7508 800.861 65.3654 Q792.962 56.9395 792.962 42.3968 Q792.962 27.8135 800.861 19.4281 Q808.76 11.0023 822.493 11.0023 Q827.921 11.0023 832.701 12.4606 Q837.521 13.8784 841.734 16.7545 Z" fill="#000000" fill-rule="evenodd" fill-opacity="1" /><path clip-path="url(#clip800)" d="M854.049 9.54393 L861.503 9.54393 L861.503 72.576 L854.049 72.576 L854.049 9.54393 Z" fill="#000000" fill-rule="evenodd" fill-opacity="1" /><path clip-path="url(#clip800)" d="M897.718 49.7694 Q888.684 49.7694 885.201 51.8354 Q881.717 53.9013 881.717 58.8839 Q881.717 62.8538 884.309 65.2034 Q886.942 67.5124 891.439 67.5124 Q897.637 67.5124 901.364 63.1374 Q905.131 58.7219 905.131 51.4303 L905.131 49.7694 L897.718 49.7694 M912.585 46.6907 L912.585 72.576 L905.131 72.576 L905.131 65.6895 Q902.579 69.8214 898.771 71.8063 Q894.963 73.7508 889.454 73.7508 Q882.487 73.7508 878.355 69.8619 Q874.263 65.9325 874.263 59.3701 Q874.263 51.7138 879.367 47.825 Q884.512 43.9361 894.68 43.9361 L905.131 43.9361 L905.131 43.2069 Q905.131 38.0623 901.728 35.2672 Q898.366 32.4315 892.249 32.4315 Q888.36 32.4315 884.674 33.3632 Q880.988 34.295 877.585 36.1584 L877.585 29.2718 Q881.676 27.692 885.525 26.9223 Q889.373 26.1121 893.019 26.1121 Q902.863 26.1121 907.724 31.2163 Q912.585 36.3204 912.585 46.6907 Z" fill="#000000" fill-rule="evenodd" fill-opacity="1" /><path clip-path="url(#clip800)" d="M956.861 28.5427 L956.861 35.5912 Q953.701 33.9709 950.299 33.1607 Q946.896 32.3505 943.25 32.3505 Q937.7 32.3505 934.905 34.0519 Q932.151 35.7533 932.151 39.156 Q932.151 41.7486 934.136 43.2475 Q936.12 44.7058 942.116 46.0426 L944.668 46.6097 Q952.608 48.3111 955.929 51.4303 Q959.292 54.509 959.292 60.0587 Q959.292 66.3781 954.269 70.0644 Q949.286 73.7508 940.536 73.7508 Q936.89 73.7508 932.92 73.0216 Q928.991 72.3329 924.616 70.9151 L924.616 63.2184 Q928.748 65.3654 932.758 66.4591 Q936.769 67.5124 940.698 67.5124 Q945.964 67.5124 948.8 65.73 Q951.635 63.9071 951.635 60.6258 Q951.635 57.5877 949.569 55.9673 Q947.544 54.3469 940.617 52.8481 L938.024 52.2405 Q931.097 50.7821 928.019 47.7845 Q924.94 44.7463 924.94 39.4801 Q924.94 33.0797 929.477 29.5959 Q934.014 26.1121 942.359 26.1121 Q946.491 26.1121 950.137 26.7198 Q953.782 27.3274 956.861 28.5427 Z" fill="#000000" fill-rule="evenodd" fill-opacity="1" /><path clip-path="url(#clip800)" d="M1000.08 28.5427 L1000.08 35.5912 Q996.925 33.9709 993.522 33.1607 Q990.119 32.3505 986.473 32.3505 Q980.923 32.3505 978.128 34.0519 Q975.374 35.7533 975.374 39.156 Q975.374 41.7486 977.359 43.2475 Q979.344 44.7058 985.339 46.0426 L987.891 46.6097 Q995.831 48.3111 999.153 51.4303 Q1002.51 54.509 1002.51 60.0587 Q1002.51 66.3781 997.492 70.0644 Q992.509 73.7508 983.759 73.7508 Q980.113 73.7508 976.143 73.0216 Q972.214 72.3329 967.839 70.9151 L967.839 63.2184 Q971.971 65.3654 975.981 66.4591 Q979.992 67.5124 983.921 67.5124 Q989.187 67.5124 992.023 65.73 Q994.859 63.9071 994.859 60.6258 Q994.859 57.5877 992.793 55.9673 Q990.767 54.3469 983.84 52.8481 L981.248 52.2405 Q974.32 50.7821 971.242 47.7845 Q968.163 44.7463 968.163 39.4801 Q968.163 33.0797 972.7 29.5959 Q977.237 26.1121 985.582 26.1121 Q989.714 26.1121 993.36 26.7198 Q997.006 27.3274 1000.08 28.5427 Z" fill="#000000" fill-rule="evenodd" fill-opacity="1" /><path clip-path="url(#clip800)" d="M1014.38 27.2059 L1021.84 27.2059 L1021.84 72.576 L1014.38 72.576 L1014.38 27.2059 M1014.38 9.54393 L1021.84 9.54393 L1021.84 18.9825 L1014.38 18.9825 L1014.38 9.54393 Z" fill="#000000" fill-rule="evenodd" fill-opacity="1" /><path clip-path="url(#clip800)" d="M1070.08 28.9478 L1070.08 35.9153 Q1066.92 34.1734 1063.72 33.3227 Q1060.56 32.4315 1057.32 32.4315 Q1050.07 32.4315 1046.06 37.0496 Q1042.05 41.6271 1042.05 49.9314 Q1042.05 58.2358 1046.06 62.8538 Q1050.07 67.4314 1057.32 67.4314 Q1060.56 67.4314 1063.72 66.5807 Q1066.92 65.6895 1070.08 63.9476 L1070.08 70.8341 Q1066.96 72.2924 1063.6 73.0216 Q1060.28 73.7508 1056.51 73.7508 Q1046.26 73.7508 1040.23 67.3098 Q1034.19 60.8689 1034.19 49.9314 Q1034.19 38.832 1040.27 32.472 Q1046.39 26.1121 1057 26.1121 Q1060.44 26.1121 1063.72 26.8413 Q1067.01 27.5299 1070.08 28.9478 Z" fill="#000000" fill-rule="evenodd" fill-opacity="1" /><path clip-path="url(#clip800)" d="M1103.67 49.7694 Q1094.63 49.7694 1091.15 51.8354 Q1087.66 53.9013 1087.66 58.8839 Q1087.66 62.8538 1090.26 65.2034 Q1092.89 67.5124 1097.39 67.5124 Q1103.58 67.5124 1107.31 63.1374 Q1111.08 58.7219 1111.08 51.4303 L1111.08 49.7694 L1103.67 49.7694 M1118.53 46.6907 L1118.53 72.576 L1111.08 72.576 L1111.08 65.6895 Q1108.53 69.8214 1104.72 71.8063 Q1100.91 73.7508 1095.4 73.7508 Q1088.43 73.7508 1084.3 69.8619 Q1080.21 65.9325 1080.21 59.3701 Q1080.21 51.7138 1085.32 47.825 Q1090.46 43.9361 1100.63 43.9361 L1111.08 43.9361 L1111.08 43.2069 Q1111.08 38.0623 1107.68 35.2672 Q1104.31 32.4315 1098.2 32.4315 Q1094.31 32.4315 1090.62 33.3632 Q1086.94 34.295 1083.53 36.1584 L1083.53 29.2718 Q1087.62 27.692 1091.47 26.9223 Q1095.32 26.1121 1098.97 26.1121 Q1108.81 26.1121 1113.67 31.2163 Q1118.53 36.3204 1118.53 46.6907 Z" fill="#000000" fill-rule="evenodd" fill-opacity="1" /><path clip-path="url(#clip800)" d="M1133.89 9.54393 L1141.34 9.54393 L1141.34 72.576 L1133.89 72.576 L1133.89 9.54393 Z" fill="#000000" fill-rule="evenodd" fill-opacity="1" /><path clip-path="url(#clip800)" d="M1224.87 63.9476 L1224.87 47.7034 L1211.5 47.7034 L1211.5 40.9789 L1232.97 40.9789 L1232.97 66.9452 Q1228.23 70.3075 1222.52 72.0494 Q1216.81 73.7508 1210.33 73.7508 Q1196.15 73.7508 1188.13 65.4869 Q1180.15 57.1826 1180.15 42.3968 Q1180.15 27.5705 1188.13 19.3066 Q1196.15 11.0023 1210.33 11.0023 Q1216.24 11.0023 1221.55 12.4606 Q1226.89 13.9189 1231.39 16.7545 L1231.39 25.464 Q1226.85 21.6156 1221.75 19.6712 Q1216.65 17.7268 1211.01 17.7268 Q1199.92 17.7268 1194.33 23.9246 Q1188.78 30.1225 1188.78 42.3968 Q1188.78 54.6305 1194.33 60.8284 Q1199.92 67.0263 1211.01 67.0263 Q1215.35 67.0263 1218.75 66.2971 Q1222.15 65.5274 1224.87 63.9476 Z" fill="#000000" fill-rule="evenodd" fill-opacity="1" /><path clip-path="url(#clip800)" d="M1273.88 34.1734 Q1272.63 33.4443 1271.13 33.1202 Q1269.67 32.7556 1267.89 32.7556 Q1261.57 32.7556 1258.17 36.8875 Q1254.81 40.9789 1254.81 48.6757 L1254.81 72.576 L1247.31 72.576 L1247.31 27.2059 L1254.81 27.2059 L1254.81 34.2544 Q1257.15 30.1225 1260.92 28.1376 Q1264.69 26.1121 1270.08 26.1121 Q1270.85 26.1121 1271.78 26.2337 Q1272.71 26.3147 1273.84 26.5172 L1273.88 34.1734 Z" fill="#000000" fill-rule="evenodd" fill-opacity="1" /><path clip-path="url(#clip800)" d="M1302.32 49.7694 Q1293.29 49.7694 1289.8 51.8354 Q1286.32 53.9013 1286.32 58.8839 Q1286.32 62.8538 1288.91 65.2034 Q1291.55 67.5124 1296.04 67.5124 Q1302.24 67.5124 1305.97 63.1374 Q1309.74 58.7219 1309.74 51.4303 L1309.74 49.7694 L1302.32 49.7694 M1317.19 46.6907 L1317.19 72.576 L1309.74 72.576 L1309.74 65.6895 Q1307.18 69.8214 1303.38 71.8063 Q1299.57 73.7508 1294.06 73.7508 Q1287.09 73.7508 1282.96 69.8619 Q1278.87 65.9325 1278.87 59.3701 Q1278.87 51.7138 1283.97 47.825 Q1289.12 43.9361 1299.28 43.9361 L1309.74 43.9361 L1309.74 43.2069 Q1309.74 38.0623 1306.33 35.2672 Q1302.97 32.4315 1296.85 32.4315 Q1292.96 32.4315 1289.28 33.3632 Q1285.59 34.295 1282.19 36.1584 L1282.19 29.2718 Q1286.28 27.692 1290.13 26.9223 Q1293.98 26.1121 1297.62 26.1121 Q1307.47 26.1121 1312.33 31.2163 Q1317.19 36.3204 1317.19 46.6907 Z" fill="#000000" fill-rule="evenodd" fill-opacity="1" /><path clip-path="url(#clip800)" d="M1367.87 35.9153 Q1370.66 30.8922 1374.55 28.5022 Q1378.44 26.1121 1383.7 26.1121 Q1390.79 26.1121 1394.64 31.0947 Q1398.49 36.0368 1398.49 45.1919 L1398.49 72.576 L1391 72.576 L1391 45.4349 Q1391 38.913 1388.69 35.7533 Q1386.38 32.5936 1381.64 32.5936 Q1375.85 32.5936 1372.48 36.4419 Q1369.12 40.2903 1369.12 46.9338 L1369.12 72.576 L1361.63 72.576 L1361.63 45.4349 Q1361.63 38.8725 1359.32 35.7533 Q1357.01 32.5936 1352.19 32.5936 Q1346.48 32.5936 1343.11 36.4824 Q1339.75 40.3308 1339.75 46.9338 L1339.75 72.576 L1332.26 72.576 L1332.26 27.2059 L1339.75 27.2059 L1339.75 34.2544 Q1342.3 30.082 1345.87 28.0971 Q1349.43 26.1121 1354.34 26.1121 Q1359.28 26.1121 1362.72 28.6237 Q1366.2 31.1352 1367.87 35.9153 Z" fill="#000000" fill-rule="evenodd" fill-opacity="1" /><path clip-path="url(#clip800)" d="M1409.59 46.5287 L1431.42 46.5287 L1431.42 53.1722 L1409.59 53.1722 L1409.59 46.5287 Z" fill="#000000" fill-rule="evenodd" fill-opacity="1" /><path clip-path="url(#clip800)" d="M1479.87 14.0809 L1479.87 22.0612 Q1475.21 19.8332 1471.08 18.7395 Q1466.95 17.6457 1463.1 17.6457 Q1456.42 17.6457 1452.77 20.2383 Q1449.17 22.8309 1449.17 27.611 Q1449.17 31.6214 1451.56 33.6873 Q1453.99 35.7128 1460.71 36.9686 L1465.65 37.9813 Q1474.81 39.7232 1479.14 44.1387 Q1483.52 48.5136 1483.52 55.8863 Q1483.52 64.6767 1477.6 69.2137 Q1471.73 73.7508 1460.35 73.7508 Q1456.05 73.7508 1451.19 72.7785 Q1446.37 71.8063 1441.19 69.9024 L1441.19 61.4765 Q1446.17 64.2716 1450.95 65.6895 Q1455.73 67.1073 1460.35 67.1073 Q1467.36 67.1073 1471.16 64.3527 Q1474.97 61.598 1474.97 56.4939 Q1474.97 52.0379 1472.22 49.5264 Q1469.5 47.0148 1463.26 45.759 L1458.28 44.7868 Q1449.13 42.9639 1445.04 39.075 Q1440.94 35.1862 1440.94 28.2591 Q1440.94 20.2383 1446.57 15.6203 Q1452.25 11.0023 1462.17 11.0023 Q1466.42 11.0023 1470.84 11.7719 Q1475.26 12.5416 1479.87 14.0809 Z" fill="#000000" fill-rule="evenodd" fill-opacity="1" /><path clip-path="url(#clip800)" d="M1528.61 28.9478 L1528.61 35.9153 Q1525.45 34.1734 1522.25 33.3227 Q1519.09 32.4315 1515.85 32.4315 Q1508.59 32.4315 1504.58 37.0496 Q1500.57 41.6271 1500.57 49.9314 Q1500.57 58.2358 1504.58 62.8538 Q1508.59 67.4314 1515.85 67.4314 Q1519.09 67.4314 1522.25 66.5807 Q1525.45 65.6895 1528.61 63.9476 L1528.61 70.8341 Q1525.49 72.2924 1522.12 73.0216 Q1518.8 73.7508 1515.04 73.7508 Q1504.79 73.7508 1498.75 67.3098 Q1492.71 60.8689 1492.71 49.9314 Q1492.71 38.832 1498.79 32.472 Q1504.91 26.1121 1515.52 26.1121 Q1518.96 26.1121 1522.25 26.8413 Q1525.53 27.5299 1528.61 28.9478 Z" fill="#000000" fill-rule="evenodd" fill-opacity="1" /><path clip-path="url(#clip800)" d="M1579.28 45.1919 L1579.28 72.576 L1571.83 72.576 L1571.83 45.4349 Q1571.83 38.994 1569.32 35.7938 Q1566.81 32.5936 1561.78 32.5936 Q1555.75 32.5936 1552.26 36.4419 Q1548.78 40.2903 1548.78 46.9338 L1548.78 72.576 L1541.29 72.576 L1541.29 9.54393 L1548.78 9.54393 L1548.78 34.2544 Q1551.45 30.163 1555.06 28.1376 Q1558.7 26.1121 1563.44 26.1121 Q1571.26 26.1121 1575.27 30.9732 Q1579.28 35.7938 1579.28 45.1919 Z" fill="#000000" fill-rule="evenodd" fill-opacity="1" /><path clip-path="url(#clip800)" d="M1629.47 35.9153 Q1632.27 30.8922 1636.16 28.5022 Q1640.05 26.1121 1645.31 26.1121 Q1652.4 26.1121 1656.25 31.0947 Q1660.1 36.0368 1660.1 45.1919 L1660.1 72.576 L1652.6 72.576 L1652.6 45.4349 Q1652.6 38.913 1650.29 35.7533 Q1647.99 32.5936 1643.25 32.5936 Q1637.45 32.5936 1634.09 36.4419 Q1630.73 40.2903 1630.73 46.9338 L1630.73 72.576 L1623.23 72.576 L1623.23 45.4349 Q1623.23 38.8725 1620.93 35.7533 Q1618.62 32.5936 1613.8 32.5936 Q1608.08 32.5936 1604.72 36.4824 Q1601.36 40.3308 1601.36 46.9338 L1601.36 72.576 L1593.87 72.576 L1593.87 27.2059 L1601.36 27.2059 L1601.36 34.2544 Q1603.91 30.082 1607.48 28.0971 Q1611.04 26.1121 1615.94 26.1121 Q1620.89 26.1121 1624.33 28.6237 Q1627.81 31.1352 1629.47 35.9153 Z" fill="#000000" fill-rule="evenodd" fill-opacity="1" /><path clip-path="url(#clip800)" d="M1674.96 27.2059 L1682.42 27.2059 L1682.42 72.576 L1674.96 72.576 L1674.96 27.2059 M1674.96 9.54393 L1682.42 9.54393 L1682.42 18.9825 L1674.96 18.9825 L1674.96 9.54393 Z" fill="#000000" fill-rule="evenodd" fill-opacity="1" /><path clip-path="url(#clip800)" d="M1727.87 34.0924 L1727.87 9.54393 L1735.32 9.54393 L1735.32 72.576 L1727.87 72.576 L1727.87 65.7705 Q1725.52 69.8214 1721.91 71.8063 Q1718.35 73.7508 1713.33 73.7508 Q1705.1 73.7508 1699.92 67.1883 Q1694.77 60.6258 1694.77 49.9314 Q1694.77 39.2371 1699.92 32.6746 Q1705.1 26.1121 1713.33 26.1121 Q1718.35 26.1121 1721.91 28.0971 Q1725.52 30.0415 1727.87 34.0924 M1702.47 49.9314 Q1702.47 58.1548 1705.83 62.8538 Q1709.24 67.5124 1715.15 67.5124 Q1721.06 67.5124 1724.47 62.8538 Q1727.87 58.1548 1727.87 49.9314 Q1727.87 41.7081 1724.47 37.0496 Q1721.06 32.3505 1715.15 32.3505 Q1709.24 32.3505 1705.83 37.0496 Q1702.47 41.7081 1702.47 49.9314 Z" fill="#000000" fill-rule="evenodd" fill-opacity="1" /><path clip-path="url(#clip800)" d="M1758.05 14.324 L1758.05 27.2059 L1773.4 27.2059 L1773.4 32.9987 L1758.05 32.9987 L1758.05 57.6282 Q1758.05 63.1779 1759.55 64.7578 Q1761.09 66.3376 1765.75 66.3376 L1773.4 66.3376 L1773.4 72.576 L1765.75 72.576 Q1757.12 72.576 1753.84 69.3758 Q1750.55 66.1351 1750.55 57.6282 L1750.55 32.9987 L1745.09 32.9987 L1745.09 27.2059 L1750.55 27.2059 L1750.55 14.324 L1758.05 14.324 Z" fill="#000000" fill-rule="evenodd" fill-opacity="1" /><circle clip-path="url(#clip802)" cx="274.149" cy="1416.32" r="14" fill="#009af9" fill-rule="evenodd" fill-opacity="1" stroke="#000000" stroke-opacity="1" stroke-width="3.2"/>
<circle clip-path="url(#clip802)" cx="386.264" cy="165.608" r="14" fill="#009af9" fill-rule="evenodd" fill-opacity="1" stroke="#000000" stroke-opacity="1" stroke-width="3.2"/>
<circle clip-path="url(#clip802)" cx="498.379" cy="1447.87" r="14" fill="#009af9" fill-rule="evenodd" fill-opacity="1" stroke="#000000" stroke-opacity="1" stroke-width="3.2"/>
<circle clip-path="url(#clip802)" cx="610.494" cy="162.047" r="14" fill="#009af9" fill-rule="evenodd" fill-opacity="1" stroke="#000000" stroke-opacity="1" stroke-width="3.2"/>
<circle clip-path="url(#clip802)" cx="722.608" cy="1346.48" r="14" fill="#009af9" fill-rule="evenodd" fill-opacity="1" stroke="#000000" stroke-opacity="1" stroke-width="3.2"/>
<circle clip-path="url(#clip802)" cx="834.723" cy="174.402" r="14" fill="#009af9" fill-rule="evenodd" fill-opacity="1" stroke="#000000" stroke-opacity="1" stroke-width="3.2"/>
<circle clip-path="url(#clip802)" cx="946.838" cy="1320.84" r="14" fill="#009af9" fill-rule="evenodd" fill-opacity="1" stroke="#000000" stroke-opacity="1" stroke-width="3.2"/>
<circle clip-path="url(#clip802)" cx="1058.95" cy="198.843" r="14" fill="#009af9" fill-rule="evenodd" fill-opacity="1" stroke="#000000" stroke-opacity="1" stroke-width="3.2"/>
<circle clip-path="url(#clip802)" cx="1171.07" cy="1188.67" r="14" fill="#009af9" fill-rule="evenodd" fill-opacity="1" stroke="#000000" stroke-opacity="1" stroke-width="3.2"/>
<circle clip-path="url(#clip802)" cx="1283.18" cy="235.075" r="14" fill="#009af9" fill-rule="evenodd" fill-opacity="1" stroke="#000000" stroke-opacity="1" stroke-width="3.2"/>
<circle clip-path="url(#clip802)" cx="1395.3" cy="1187.74" r="14" fill="#009af9" fill-rule="evenodd" fill-opacity="1" stroke="#000000" stroke-opacity="1" stroke-width="3.2"/>
<circle clip-path="url(#clip802)" cx="1507.41" cy="283.999" r="14" fill="#009af9" fill-rule="evenodd" fill-opacity="1" stroke="#000000" stroke-opacity="1" stroke-width="3.2"/>
<circle clip-path="url(#clip802)" cx="1619.53" cy="1064.82" r="14" fill="#009af9" fill-rule="evenodd" fill-opacity="1" stroke="#000000" stroke-opacity="1" stroke-width="3.2"/>
<circle clip-path="url(#clip802)" cx="1731.64" cy="347.604" r="14" fill="#009af9" fill-rule="evenodd" fill-opacity="1" stroke="#000000" stroke-opacity="1" stroke-width="3.2"/>
<circle clip-path="url(#clip802)" cx="1843.76" cy="957.917" r="14" fill="#009af9" fill-rule="evenodd" fill-opacity="1" stroke="#000000" stroke-opacity="1" stroke-width="3.2"/>
<circle clip-path="url(#clip802)" cx="1955.87" cy="429.61" r="14" fill="#009af9" fill-rule="evenodd" fill-opacity="1" stroke="#000000" stroke-opacity="1" stroke-width="3.2"/>
<circle clip-path="url(#clip802)" cx="2067.98" cy="958.088" r="14" fill="#009af9" fill-rule="evenodd" fill-opacity="1" stroke="#000000" stroke-opacity="1" stroke-width="3.2"/>
<circle clip-path="url(#clip802)" cx="2180.1" cy="557.411" r="14" fill="#009af9" fill-rule="evenodd" fill-opacity="1" stroke="#000000" stroke-opacity="1" stroke-width="3.2"/>
<circle clip-path="url(#clip802)" cx="2292.21" cy="826.453" r="14" fill="#009af9" fill-rule="evenodd" fill-opacity="1" stroke="#000000" stroke-opacity="1" stroke-width="3.2"/>
<path clip-path="url(#clip800)" d="
M1965.12 324.425 L2281.45 324.425 L2281.45 168.905 L1965.12 168.905  Z
  " fill="#ffffff" fill-rule="evenodd" fill-opacity="1"/>
<polyline clip-path="url(#clip800)" style="stroke:#000000; stroke-linecap:butt; stroke-linejoin:round; stroke-width:4; stroke-opacity:1; fill:none" points="
  1965.12,324.425 2281.45,324.425 2281.45,168.905 1965.12,168.905 1965.12,324.425 
  "/>
<circle clip-path="url(#clip800)" cx="2060.2" cy="246.665" r="34" fill="#009af9" fill-rule="evenodd" fill-opacity="1" stroke="#000000" stroke-opacity="1" stroke-width="7.68"/>
<path clip-path="url(#clip800)" d="M2176.03 276.196 Q2173.32 283.14 2170.75 285.258 Q2168.19 287.376 2163.88 287.376 L2158.78 287.376 L2158.78 282.029 L2162.53 282.029 Q2165.16 282.029 2166.62 280.779 Q2168.08 279.529 2169.85 274.876 L2171 271.96 L2155.27 233.696 L2162.04 233.696 L2174.19 264.112 L2186.35 233.696 L2193.12 233.696 L2176.03 276.196 Z" fill="#000000" fill-rule="evenodd" fill-opacity="1" /><path clip-path="url(#clip800)" d="M2204.05 266.682 L2215.51 266.682 L2215.51 227.134 L2203.05 229.633 L2203.05 223.245 L2215.44 220.745 L2222.46 220.745 L2222.46 266.682 L2233.91 266.682 L2233.91 272.585 L2204.05 272.585 L2204.05 266.682 Z" fill="#000000" fill-rule="evenodd" fill-opacity="1" /></svg>
