<?xml version="1.0" encoding="utf-8"?>
<svg xmlns="http://www.w3.org/2000/svg" xmlns:xlink="http://www.w3.org/1999/xlink" width="600" height="400" viewBox="0 0 2400 1600">
<defs>
  <clipPath id="clip310">
    <rect x="0" y="0" width="2400" height="1600"/>
  </clipPath>
</defs>
<path clip-path="url(#clip310)" d="
M0 1600 L2400 1600 L2400 0 L0 0  Z
  " fill="#ffffff" fill-rule="evenodd" fill-opacity="1"/>
<defs>
  <clipPath id="clip311">
    <rect x="480" y="0" width="1681" height="1600"/>
  </clipPath>
</defs>
<path clip-path="url(#clip310)" d="
M456.019 1453.74 L2352.76 1453.74 L2352.76 67.666 L456.019 67.666  Z
  " fill="#ffffff" fill-rule="evenodd" fill-opacity="1"/>
<defs>
  <clipPath id="clip312">
    <rect x="456" y="67" width="1898" height="1387"/>
  </clipPath>
</defs>
<polyline clip-path="url(#clip312)" style="stroke:#000000; stroke-linecap:butt; stroke-linejoin:round; stroke-width:2; stroke-opacity:0.1; fill:none" points="
  450,1450 450,25 
  "/>
<polyline clip-path="url(#clip312)" style="stroke:#000000; stroke-linecap:butt; stroke-linejoin:round; stroke-width:2; stroke-opacity:0.1; fill:none" points="
  825,1450 825,25 
  "/>
<polyline clip-path="url(#clip312)" style="stroke:#000000; stroke-linecap:butt; stroke-linejoin:round; stroke-width:2; stroke-opacity:0.1; fill:none" points="
  1050,1450 1050,25 
  "/>
<polyline clip-path="url(#clip312)" style="stroke:#000000; stroke-linecap:butt; stroke-linejoin:round; stroke-width:2; stroke-opacity:0.1; fill:none" points="
  1425,1450 1425,25 
  "/>
<polyline clip-path="url(#clip312)" style="stroke:#000000; stroke-linecap:butt; stroke-linejoin:round; stroke-width:2; stroke-opacity:0.1; fill:none" points="
  1725,1450 1725,25 
  "/>
<polyline clip-path="url(#clip312)" style="stroke:#000000; stroke-linecap:butt; stroke-linejoin:round; stroke-width:2; stroke-opacity:0.1; fill:none" points="
  2100,1450 2100,25 
  "/>
<polyline clip-path="url(#clip310)" style="stroke:#000000; stroke-linecap:butt; stroke-linejoin:round; stroke-width:4; stroke-opacity:1; fill:none" points="
  450,1450 2325,1450 
  "/>
<polyline clip-path="url(#clip310)" style="stroke:#000000; stroke-linecap:butt; stroke-linejoin:round; stroke-width:4; stroke-opacity:1; fill:none" points="
  450,1450 450,1450 
  "/>
<polyline clip-path="url(#clip310)" style="stroke:#000000; stroke-linecap:butt; stroke-linejoin:round; stroke-width:4; stroke-opacity:1; fill:none" points="
  825,1450 825,1450 
  "/>
<polyline clip-path="url(#clip310)" style="stroke:#000000; stroke-linecap:butt; stroke-linejoin:round; stroke-width:4; stroke-opacity:1; fill:none" points="
  1050,1450 1050,1450 
  "/>
<polyline clip-path="url(#clip310)" style="stroke:#000000; stroke-linecap:butt; stroke-linejoin:round; stroke-width:4; stroke-opacity:1; fill:none" points="
  1425,1450 1425,1450 
  "/>
<polyline clip-path="url(#clip310)" style="stroke:#000000; stroke-linecap:butt; stroke-linejoin:round; stroke-width:4; stroke-opacity:1; fill:none" points="
  1725,1450 1725,1450 
  "/>
<polyline clip-path="url(#clip310)" style="stroke:#000000; stroke-linecap:butt; stroke-linejoin:round; stroke-width:4; stroke-opacity:1; fill:none" points="
  2100,1450 2100,1450 
  "/>
<path clip-path="url(#clip310)" d="M237.003 1493.5 L255.359 1493.5 L255.359 1497.44 L241.285 1497.44 L241.285 1505.91 Q242.304 1505.56 243.322 1505.4 Q244.341 1505.21 245.359 1505.21 Q251.146 1505.21 254.526 1508.38 Q257.905 1511.56 257.905 1516.97 Q257.905 1522.55 254.433 1525.65 Q250.961 1528.73 244.642 1528.73 Q242.466 1528.73 240.197 1528.36 Q237.952 1527.99 235.544 1527.25 L235.544 1522.55 Q237.628 1523.69 239.85 1524.24 Q242.072 1524.8 244.549 1524.8 Q248.554 1524.8 250.892 1522.69 Q253.229 1520.58 253.229 1516.97 Q253.229 1513.36 250.892 1511.25 Q248.554 1509.15 244.549 1509.15 Q242.674 1509.15 240.799 1509.56 Q238.947 1509.98 237.003 1510.86 L237.003 1493.5 Z" fill="#000000" fill-rule="evenodd" fill-opacity="1" /><path clip-path="url(#clip310)" d="M267.118 1522.18 L272.003 1522.18 L272.003 1528.06 L267.118 1528.06 L267.118 1522.18 Z" fill="#000000" fill-rule="evenodd" fill-opacity="1" /><path clip-path="url(#clip310)" d="M295.035 1497.57 L283.229 1516.02 L295.035 1516.02 L295.035 1497.57 M293.808 1493.5 L299.688 1493.5 L299.688 1516.02 L304.618 1516.02 L304.618 1519.91 L299.688 1519.91 L299.688 1528.06 L295.035 1528.06 L295.035 1519.91 L279.433 1519.91 L279.433 1515.4 L293.808 1493.5 Z" fill="#000000" fill-rule="evenodd" fill-opacity="1" /><path clip-path="url(#clip310)" d="M322.349 1496.58 Q318.738 1496.58 316.91 1500.14 Q315.104 1503.69 315.104 1510.81 Q315.104 1517.92 316.91 1521.49 Q318.738 1525.03 322.349 1525.03 Q325.984 1525.03 327.789 1521.49 Q329.618 1517.92 329.618 1510.81 Q329.618 1503.69 327.789 1500.14 Q325.984 1496.58 322.349 1496.58 M322.349 1492.88 Q328.16 1492.88 331.215 1497.48 Q334.294 1502.06 334.294 1510.81 Q334.294 1519.54 331.215 1524.15 Q328.16 1528.73 322.349 1528.73 Q316.539 1528.73 313.461 1524.15 Q310.405 1519.54 310.405 1510.81 Q310.405 1502.06 313.461 1497.48 Q316.539 1492.88 322.349 1492.88 Z" fill="#000000" fill-rule="evenodd" fill-opacity="1" /><path clip-path="url(#clip310)" d="M356.678 1509.43 Q360.034 1510.14 361.909 1512.41 Q363.808 1514.68 363.808 1518.01 Q363.808 1523.13 360.289 1525.93 Q356.771 1528.73 350.289 1528.73 Q348.113 1528.73 345.798 1528.29 Q343.507 1527.87 341.053 1527.02 L341.053 1522.5 Q342.998 1523.64 345.312 1524.22 Q347.627 1524.8 350.15 1524.8 Q354.548 1524.8 356.84 1523.06 Q359.155 1521.32 359.155 1518.01 Q359.155 1514.96 357.002 1513.25 Q354.872 1511.51 351.053 1511.51 L347.025 1511.51 L347.025 1507.67 L351.238 1507.67 Q354.687 1507.67 356.516 1506.3 Q358.345 1504.91 358.345 1502.32 Q358.345 1499.66 356.447 1498.25 Q354.572 1496.81 351.053 1496.81 Q349.132 1496.81 346.933 1497.23 Q344.734 1497.64 342.095 1498.52 L342.095 1494.36 Q344.757 1493.62 347.072 1493.25 Q349.41 1492.88 351.47 1492.88 Q356.794 1492.88 359.896 1495.31 Q362.997 1497.71 362.997 1501.83 Q362.997 1504.7 361.354 1506.69 Q359.71 1508.66 356.678 1509.43 Z" fill="#000000" fill-rule="evenodd" fill-opacity="1" /><path clip-path="url(#clip310)" d="M382.673 1496.58 Q379.062 1496.58 377.233 1500.14 Q375.428 1503.69 375.428 1510.81 Q375.428 1517.92 377.233 1521.49 Q379.062 1525.03 382.673 1525.03 Q386.307 1525.03 388.113 1521.49 Q389.942 1517.92 389.942 1510.81 Q389.942 1503.69 388.113 1500.14 Q386.307 1496.58 382.673 1496.58 M382.673 1492.88 Q388.483 1492.88 391.539 1497.48 Q394.618 1502.06 394.618 1510.81 Q394.618 1519.54 391.539 1524.15 Q388.483 1528.73 382.673 1528.73 Q376.863 1528.73 373.784 1524.15 Q370.729 1519.54 370.729 1510.81 Q370.729 1502.06 373.784 1497.48 Q376.863 1492.88 382.673 1492.88 Z" fill="#000000" fill-rule="evenodd" fill-opacity="1" /><path clip-path="url(#clip310)" d="M406.863 1524.12 L423.182 1524.12 L423.182 1528.06 L401.238 1528.06 L401.238 1524.12 Q403.9 1521.37 408.483 1516.74 Q413.09 1512.09 414.27 1510.75 Q416.516 1508.22 417.395 1506.49 Q418.298 1504.73 418.298 1503.04 Q418.298 1500.28 416.354 1498.55 Q414.432 1496.81 411.331 1496.81 Q409.131 1496.81 406.678 1497.57 Q404.247 1498.34 401.469 1499.89 L401.469 1495.17 Q404.294 1494.03 406.747 1493.45 Q409.201 1492.88 411.238 1492.88 Q416.608 1492.88 419.803 1495.56 Q422.997 1498.25 422.997 1502.74 Q422.997 1504.87 422.187 1506.79 Q421.4 1508.69 419.293 1511.28 Q418.715 1511.95 415.613 1515.17 Q412.511 1518.36 406.863 1524.12 Z" fill="#000000" fill-rule="evenodd" fill-opacity="1" /><path clip-path="url(#clip310)" d="M447.164 1509.43 Q450.52 1510.14 452.395 1512.41 Q454.293 1514.68 454.293 1518.01 Q454.293 1523.13 450.775 1525.93 Q447.256 1528.73 440.775 1528.73 Q438.599 1528.73 436.284 1528.29 Q433.992 1527.87 431.539 1527.02 L431.539 1522.5 Q433.483 1523.64 435.798 1524.22 Q438.113 1524.8 440.636 1524.8 Q445.034 1524.8 447.326 1523.06 Q449.64 1521.32 449.64 1518.01 Q449.64 1514.96 447.488 1513.25 Q445.358 1511.51 441.539 1511.51 L437.511 1511.51 L437.511 1507.67 L441.724 1507.67 Q445.173 1507.67 447.002 1506.3 Q448.83 1504.91 448.83 1502.32 Q448.83 1499.66 446.932 1498.25 Q445.057 1496.81 441.539 1496.81 Q439.617 1496.81 437.418 1497.23 Q435.219 1497.64 432.58 1498.52 L432.58 1494.36 Q435.242 1493.62 437.557 1493.25 Q439.895 1492.88 441.955 1492.88 Q447.279 1492.88 450.381 1495.31 Q453.483 1497.71 453.483 1501.83 Q453.483 1504.7 451.84 1506.69 Q450.196 1508.66 447.164 1509.43 Z" fill="#000000" fill-rule="evenodd" fill-opacity="1" /><path clip-path="url(#clip310)" d="M473.159 1496.58 Q469.548 1496.58 467.719 1500.14 Q465.914 1503.69 465.914 1510.81 Q465.914 1517.92 467.719 1521.49 Q469.548 1525.03 473.159 1525.03 Q476.793 1525.03 478.599 1521.49 Q480.427 1517.92 480.427 1510.81 Q480.427 1503.69 478.599 1500.14 Q476.793 1496.58 473.159 1496.58 M473.159 1492.88 Q478.969 1492.88 482.025 1497.48 Q485.103 1502.06 485.103 1510.81 Q485.103 1519.54 482.025 1524.15 Q478.969 1528.73 473.159 1528.73 Q467.349 1528.73 464.27 1524.15 Q461.214 1519.54 461.214 1510.81 Q461.214 1502.06 464.27 1497.48 Q467.349 1492.88 473.159 1492.88 Z" fill="#000000" fill-rule="evenodd" fill-opacity="1" /><path clip-path="url(#clip310)" d="M503.899 1508.92 Q500.751 1508.92 498.899 1511.07 Q497.071 1513.22 497.071 1516.97 Q497.071 1520.7 498.899 1522.87 Q500.751 1525.03 503.899 1525.03 Q507.048 1525.03 508.876 1522.87 Q510.728 1520.7 510.728 1516.97 Q510.728 1513.22 508.876 1511.07 Q507.048 1508.92 503.899 1508.92 M513.182 1494.26 L513.182 1498.52 Q511.423 1497.69 509.617 1497.25 Q507.835 1496.81 506.075 1496.81 Q501.446 1496.81 498.992 1499.94 Q496.562 1503.06 496.214 1509.38 Q497.58 1507.37 499.64 1506.3 Q501.7 1505.21 504.177 1505.21 Q509.386 1505.21 512.395 1508.38 Q515.427 1511.53 515.427 1516.97 Q515.427 1522.3 512.279 1525.51 Q509.131 1528.73 503.899 1528.73 Q497.904 1528.73 494.733 1524.15 Q491.562 1519.54 491.562 1510.81 Q491.562 1502.62 495.45 1497.76 Q499.339 1492.88 505.89 1492.88 Q507.649 1492.88 509.432 1493.22 Q511.237 1493.57 513.182 1494.26 Z" fill="#000000" fill-rule="evenodd" fill-opacity="1" /><path clip-path="url(#clip310)" d="M551.654 1502.6 L541.075 1513.22 L551.654 1523.8 L548.899 1526.6 L538.274 1515.98 L527.649 1526.6 L524.918 1523.8 L535.473 1513.22 L524.918 1502.6 L527.649 1499.8 L538.274 1510.42 L548.899 1499.8 L551.654 1502.6 Z" fill="#000000" fill-rule="evenodd" fill-opacity="1" /><path clip-path="url(#clip310)" d="M564.015 1524.12 L571.654 1524.12 L571.654 1497.76 L563.344 1499.43 L563.344 1495.17 L571.607 1493.5 L576.283 1493.5 L576.283 1524.12 L583.922 1524.12 L583.922 1528.06 L564.015 1528.06 L564.015 1524.12 Z" fill="#000000" fill-rule="evenodd" fill-opacity="1" /><path clip-path="url(#clip310)" d="M603.367 1496.58 Q599.755 1496.58 597.927 1500.14 Q596.121 1503.69 596.121 1510.81 Q596.121 1517.92 597.927 1521.49 Q599.755 1525.03 603.367 1525.03 Q607.001 1525.03 608.806 1521.49 Q610.635 1517.92 610.635 1510.81 Q610.635 1503.69 608.806 1500.14 Q607.001 1496.58 603.367 1496.58 M603.367 1492.88 Q609.177 1492.88 612.232 1497.48 Q615.311 1502.06 615.311 1510.81 Q615.311 1519.54 612.232 1524.15 Q609.177 1528.73 603.367 1528.73 Q597.556 1528.73 594.478 1524.15 Q591.422 1519.54 591.422 1510.81 Q591.422 1502.06 594.478 1497.48 Q597.556 1492.88 603.367 1492.88 Z" fill="#000000" fill-rule="evenodd" fill-opacity="1" /><path clip-path="url(#clip310)" d="M615.311 1486.98 L639.422 1486.98 L639.422 1490.17 L615.311 1490.17 L615.311 1486.98 Z" fill="#000000" fill-rule="evenodd" fill-opacity="1" /><path clip-path="url(#clip310)" d="M648.281 1497.45 L654.487 1497.45 L654.487 1476.03 L647.735 1477.38 L647.735 1473.92 L654.45 1472.57 L658.249 1472.57 L658.249 1497.45 L664.456 1497.45 L664.456 1500.65 L648.281 1500.65 L648.281 1497.45 Z" fill="#000000" fill-rule="evenodd" fill-opacity="1" /><path clip-path="url(#clip310)" d="M612.003 1493.5 L630.359 1493.5 L630.359 1497.44 L616.285 1497.44 L616.285 1505.91 Q617.304 1505.56 618.322 1505.4 Q619.341 1505.21 620.359 1505.21 Q626.146 1505.21 629.526 1508.38 Q632.905 1511.56 632.905 1516.97 Q632.905 1522.55 629.433 1525.65 Q625.961 1528.73 619.642 1528.73 Q617.466 1528.73 615.197 1528.36 Q612.952 1527.99 610.544 1527.25 L610.544 1522.55 Q612.628 1523.69 614.85 1524.24 Q617.072 1524.8 619.549 1524.8 Q623.554 1524.8 625.892 1522.69 Q628.229 1520.58 628.229 1516.97 Q628.229 1513.36 625.892 1511.25 Q623.554 1509.15 619.549 1509.15 Q617.674 1509.15 615.799 1509.56 Q613.947 1509.98 612.003 1510.86 L612.003 1493.5 Z" fill="#000000" fill-rule="evenodd" fill-opacity="1" /><path clip-path="url(#clip310)" d="M642.118 1522.18 L647.003 1522.18 L647.003 1528.06 L642.118 1528.06 L642.118 1522.18 Z" fill="#000000" fill-rule="evenodd" fill-opacity="1" /><path clip-path="url(#clip310)" d="M670.035 1497.57 L658.229 1516.02 L670.035 1516.02 L670.035 1497.57 M668.808 1493.5 L674.688 1493.5 L674.688 1516.02 L679.618 1516.02 L679.618 1519.91 L674.688 1519.91 L674.688 1528.06 L670.035 1528.06 L670.035 1519.91 L654.433 1519.91 L654.433 1515.4 L668.808 1493.5 Z" fill="#000000" fill-rule="evenodd" fill-opacity="1" /><path clip-path="url(#clip310)" d="M697.349 1496.58 Q693.738 1496.58 691.91 1500.14 Q690.104 1503.69 690.104 1510.81 Q690.104 1517.92 691.91 1521.49 Q693.738 1525.03 697.349 1525.03 Q700.984 1525.03 702.789 1521.49 Q704.618 1517.92 704.618 1510.81 Q704.618 1503.69 702.789 1500.14 Q700.984 1496.58 697.349 1496.58 M697.349 1492.88 Q703.16 1492.88 706.215 1497.48 Q709.294 1502.06 709.294 1510.81 Q709.294 1519.54 706.215 1524.15 Q703.16 1528.73 697.349 1528.73 Q691.539 1528.73 688.461 1524.15 Q685.405 1519.54 685.405 1510.81 Q685.405 1502.06 688.461 1497.48 Q691.539 1492.88 697.349 1492.88 Z" fill="#000000" fill-rule="evenodd" fill-opacity="1" /><path clip-path="url(#clip310)" d="M731.678 1509.43 Q735.034 1510.14 736.909 1512.41 Q738.808 1514.68 738.808 1518.01 Q738.808 1523.13 735.289 1525.93 Q731.771 1528.73 725.289 1528.73 Q723.113 1528.73 720.798 1528.29 Q718.507 1527.87 716.053 1527.02 L716.053 1522.5 Q717.998 1523.64 720.312 1524.22 Q722.627 1524.8 725.15 1524.8 Q729.548 1524.8 731.84 1523.06 Q734.155 1521.32 734.155 1518.01 Q734.155 1514.96 732.002 1513.25 Q729.872 1511.51 726.053 1511.51 L722.025 1511.51 L722.025 1507.67 L726.238 1507.67 Q729.687 1507.67 731.516 1506.3 Q733.345 1504.91 733.345 1502.32 Q733.345 1499.66 731.447 1498.25 Q729.572 1496.81 726.053 1496.81 Q724.132 1496.81 721.933 1497.23 Q719.734 1497.64 717.095 1498.52 L717.095 1494.36 Q719.757 1493.62 722.072 1493.25 Q724.41 1492.88 726.47 1492.88 Q731.794 1492.88 734.896 1495.31 Q737.997 1497.71 737.997 1501.83 Q737.997 1504.7 736.354 1506.69 Q734.71 1508.66 731.678 1509.43 Z" fill="#000000" fill-rule="evenodd" fill-opacity="1" /><path clip-path="url(#clip310)" d="M757.673 1496.58 Q754.062 1496.58 752.233 1500.14 Q750.428 1503.69 750.428 1510.81 Q750.428 1517.92 752.233 1521.49 Q754.062 1525.03 757.673 1525.03 Q761.307 1525.03 763.113 1521.49 Q764.942 1517.92 764.942 1510.81 Q764.942 1503.69 763.113 1500.14 Q761.307 1496.58 757.673 1496.58 M757.673 1492.88 Q763.483 1492.88 766.539 1497.48 Q769.618 1502.06 769.618 1510.81 Q769.618 1519.54 766.539 1524.15 Q763.483 1528.73 757.673 1528.73 Q751.863 1528.73 748.784 1524.15 Q745.729 1519.54 745.729 1510.81 Q745.729 1502.06 748.784 1497.48 Q751.863 1492.88 757.673 1492.88 Z" fill="#000000" fill-rule="evenodd" fill-opacity="1" /><path clip-path="url(#clip310)" d="M781.863 1524.12 L798.182 1524.12 L798.182 1528.06 L776.238 1528.06 L776.238 1524.12 Q778.9 1521.37 783.483 1516.74 Q788.09 1512.09 789.27 1510.75 Q791.516 1508.22 792.395 1506.49 Q793.298 1504.73 793.298 1503.04 Q793.298 1500.28 791.354 1498.55 Q789.432 1496.81 786.331 1496.81 Q784.131 1496.81 781.678 1497.57 Q779.247 1498.34 776.469 1499.89 L776.469 1495.17 Q779.294 1494.03 781.747 1493.45 Q784.201 1492.88 786.238 1492.88 Q791.608 1492.88 794.803 1495.56 Q797.997 1498.25 797.997 1502.74 Q797.997 1504.87 797.187 1506.79 Q796.4 1508.69 794.293 1511.28 Q793.715 1511.95 790.613 1515.17 Q787.511 1518.36 781.863 1524.12 Z" fill="#000000" fill-rule="evenodd" fill-opacity="1" /><path clip-path="url(#clip310)" d="M822.164 1509.43 Q825.52 1510.14 827.395 1512.41 Q829.293 1514.68 829.293 1518.01 Q829.293 1523.13 825.775 1525.93 Q822.256 1528.73 815.775 1528.73 Q813.599 1528.73 811.284 1528.29 Q808.992 1527.87 806.539 1527.02 L806.539 1522.5 Q808.483 1523.64 810.798 1524.22 Q813.113 1524.8 815.636 1524.8 Q820.034 1524.8 822.326 1523.06 Q824.64 1521.32 824.64 1518.01 Q824.64 1514.96 822.488 1513.25 Q820.358 1511.51 816.539 1511.51 L812.511 1511.51 L812.511 1507.67 L816.724 1507.67 Q820.173 1507.67 822.002 1506.3 Q823.83 1504.91 823.83 1502.32 Q823.83 1499.66 821.932 1498.25 Q820.057 1496.81 816.539 1496.81 Q814.617 1496.81 812.418 1497.23 Q810.219 1497.64 807.58 1498.52 L807.58 1494.36 Q810.242 1493.62 812.557 1493.25 Q814.895 1492.88 816.955 1492.88 Q822.279 1492.88 825.381 1495.31 Q828.483 1497.71 828.483 1501.83 Q828.483 1504.7 826.84 1506.69 Q825.196 1508.66 822.164 1509.43 Z" fill="#000000" fill-rule="evenodd" fill-opacity="1" /><path clip-path="url(#clip310)" d="M848.159 1496.58 Q844.548 1496.58 842.719 1500.14 Q840.914 1503.69 840.914 1510.81 Q840.914 1517.92 842.719 1521.49 Q844.548 1525.03 848.159 1525.03 Q851.793 1525.03 853.599 1521.49 Q855.427 1517.92 855.427 1510.81 Q855.427 1503.69 853.599 1500.14 Q851.793 1496.58 848.159 1496.58 M848.159 1492.88 Q853.969 1492.88 857.025 1497.48 Q860.103 1502.06 860.103 1510.81 Q860.103 1519.54 857.025 1524.15 Q853.969 1528.73 848.159 1528.73 Q842.349 1528.73 839.27 1524.15 Q836.214 1519.54 836.214 1510.81 Q836.214 1502.06 839.27 1497.48 Q842.349 1492.88 848.159 1492.88 Z" fill="#000000" fill-rule="evenodd" fill-opacity="1" /><path clip-path="url(#clip310)" d="M878.899 1508.92 Q875.751 1508.92 873.899 1511.07 Q872.071 1513.22 872.071 1516.97 Q872.071 1520.7 873.899 1522.87 Q875.751 1525.03 878.899 1525.03 Q882.048 1525.03 883.876 1522.87 Q885.728 1520.7 885.728 1516.97 Q885.728 1513.22 883.876 1511.07 Q882.048 1508.92 878.899 1508.92 M888.182 1494.26 L888.182 1498.52 Q886.423 1497.69 884.617 1497.25 Q882.835 1496.81 881.075 1496.81 Q876.446 1496.81 873.992 1499.94 Q871.562 1503.06 871.214 1509.38 Q872.58 1507.37 874.64 1506.3 Q876.7 1505.21 879.177 1505.21 Q884.386 1505.21 887.395 1508.38 Q890.427 1511.53 890.427 1516.97 Q890.427 1522.3 887.279 1525.51 Q884.131 1528.73 878.899 1528.73 Q872.904 1528.73 869.733 1524.15 Q866.562 1519.54 866.562 1510.81 Q866.562 1502.62 870.45 1497.76 Q874.339 1492.88 880.89 1492.88 Q882.649 1492.88 884.432 1493.22 Q886.237 1493.57 888.182 1494.26 Z" fill="#000000" fill-rule="evenodd" fill-opacity="1" /><path clip-path="url(#clip310)" d="M926.654 1502.6 L916.075 1513.22 L926.654 1523.8 L923.899 1526.6 L913.274 1515.98 L902.649 1526.6 L899.918 1523.8 L910.473 1513.22 L899.918 1502.6 L902.649 1499.8 L913.274 1510.42 L923.899 1499.8 L926.654 1502.6 Z" fill="#000000" fill-rule="evenodd" fill-opacity="1" /><path clip-path="url(#clip310)" d="M939.015 1524.12 L946.654 1524.12 L946.654 1497.76 L938.344 1499.43 L938.344 1495.17 L946.607 1493.5 L951.283 1493.5 L951.283 1524.12 L958.922 1524.12 L958.922 1528.06 L939.015 1528.06 L939.015 1524.12 Z" fill="#000000" fill-rule="evenodd" fill-opacity="1" /><path clip-path="url(#clip310)" d="M978.367 1496.58 Q974.755 1496.58 972.927 1500.14 Q971.121 1503.69 971.121 1510.81 Q971.121 1517.92 972.927 1521.49 Q974.755 1525.03 978.367 1525.03 Q982.001 1525.03 983.806 1521.49 Q985.635 1517.92 985.635 1510.81 Q985.635 1503.69 983.806 1500.14 Q982.001 1496.58 978.367 1496.58 M978.367 1492.88 Q984.177 1492.88 987.232 1497.48 Q990.311 1502.06 990.311 1510.81 Q990.311 1519.54 987.232 1524.15 Q984.177 1528.73 978.367 1528.73 Q972.556 1528.73 969.478 1524.15 Q966.422 1519.54 966.422 1510.81 Q966.422 1502.06 969.478 1497.48 Q972.556 1492.88 978.367 1492.88 Z" fill="#000000" fill-rule="evenodd" fill-opacity="1" /><path clip-path="url(#clip310)" d="M990.311 1486.98 L1014.42 1486.98 L1014.42 1490.17 L990.311 1490.17 L990.311 1486.98 Z" fill="#000000" fill-rule="evenodd" fill-opacity="1" /><path clip-path="url(#clip310)" d="M1023.28 1497.45 L1029.49 1497.45 L1029.49 1476.03 L1022.74 1477.38 L1022.74 1473.92 L1029.45 1472.57 L1033.25 1472.57 L1033.25 1497.45 L1039.46 1497.45 L1039.46 1500.65 L1023.28 1500.65 L1023.28 1497.45 Z" fill="#000000" fill-rule="evenodd" fill-opacity="1" /><path clip-path="url(#clip310)" d="M837.003 1493.5 L855.359 1493.5 L855.359 1497.44 L841.285 1497.44 L841.285 1505.91 Q842.304 1505.56 843.322 1505.4 Q844.341 1505.21 845.359 1505.21 Q851.146 1505.21 854.526 1508.38 Q857.905 1511.56 857.905 1516.97 Q857.905 1522.55 854.433 1525.65 Q850.961 1528.73 844.642 1528.73 Q842.466 1528.73 840.197 1528.36 Q837.952 1527.99 835.544 1527.25 L835.544 1522.55 Q837.628 1523.69 839.85 1524.24 Q842.072 1524.8 844.549 1524.8 Q848.554 1524.8 850.892 1522.69 Q853.229 1520.58 853.229 1516.97 Q853.229 1513.36 850.892 1511.25 Q848.554 1509.15 844.549 1509.15 Q842.674 1509.15 840.799 1509.56 Q838.947 1509.98 837.003 1510.86 L837.003 1493.5 Z" fill="#000000" fill-rule="evenodd" fill-opacity="1" /><path clip-path="url(#clip310)" d="M867.118 1522.18 L872.003 1522.18 L872.003 1528.06 L867.118 1528.06 L867.118 1522.18 Z" fill="#000000" fill-rule="evenodd" fill-opacity="1" /><path clip-path="url(#clip310)" d="M895.035 1497.57 L883.229 1516.02 L895.035 1516.02 L895.035 1497.57 M893.808 1493.5 L899.688 1493.5 L899.688 1516.02 L904.618 1516.02 L904.618 1519.91 L899.688 1519.91 L899.688 1528.06 L895.035 1528.06 L895.035 1519.91 L879.433 1519.91 L879.433 1515.4 L893.808 1493.5 Z" fill="#000000" fill-rule="evenodd" fill-opacity="1" /><path clip-path="url(#clip310)" d="M922.349 1496.58 Q918.738 1496.58 916.91 1500.14 Q915.104 1503.69 915.104 1510.81 Q915.104 1517.92 916.91 1521.49 Q918.738 1525.03 922.349 1525.03 Q925.984 1525.03 927.789 1521.49 Q929.618 1517.92 929.618 1510.81 Q929.618 1503.69 927.789 1500.14 Q925.984 1496.58 922.349 1496.58 M922.349 1492.88 Q928.16 1492.88 931.215 1497.48 Q934.294 1502.06 934.294 1510.81 Q934.294 1519.54 931.215 1524.15 Q928.16 1528.73 922.349 1528.73 Q916.539 1528.73 913.461 1524.15 Q910.405 1519.54 910.405 1510.81 Q910.405 1502.06 913.461 1497.48 Q916.539 1492.88 922.349 1492.88 Z" fill="#000000" fill-rule="evenodd" fill-opacity="1" /><path clip-path="url(#clip310)" d="M956.678 1509.43 Q960.034 1510.14 961.909 1512.41 Q963.808 1514.68 963.808 1518.01 Q963.808 1523.13 960.289 1525.93 Q956.771 1528.73 950.289 1528.73 Q948.113 1528.73 945.798 1528.29 Q943.507 1527.87 941.053 1527.02 L941.053 1522.5 Q942.998 1523.64 945.312 1524.22 Q947.627 1524.8 950.15 1524.8 Q954.548 1524.8 956.84 1523.06 Q959.155 1521.32 959.155 1518.01 Q959.155 1514.96 957.002 1513.25 Q954.872 1511.51 951.053 1511.51 L947.025 1511.51 L947.025 1507.67 L951.238 1507.67 Q954.687 1507.67 956.516 1506.3 Q958.345 1504.91 958.345 1502.32 Q958.345 1499.66 956.447 1498.25 Q954.572 1496.81 951.053 1496.81 Q949.132 1496.81 946.933 1497.23 Q944.734 1497.64 942.095 1498.52 L942.095 1494.36 Q944.757 1493.62 947.072 1493.25 Q949.41 1492.88 951.47 1492.88 Q956.794 1492.88 959.896 1495.31 Q962.997 1497.71 962.997 1501.83 Q962.997 1504.7 961.354 1506.69 Q959.71 1508.66 956.678 1509.43 Z" fill="#000000" fill-rule="evenodd" fill-opacity="1" /><path clip-path="url(#clip310)" d="M982.673 1496.58 Q979.062 1496.58 977.233 1500.14 Q975.428 1503.69 975.428 1510.81 Q975.428 1517.92 977.233 1521.49 Q979.062 1525.03 982.673 1525.03 Q986.307 1525.03 988.113 1521.49 Q989.942 1517.92 989.942 1510.81 Q989.942 1503.69 988.113 1500.14 Q986.307 1496.58 982.673 1496.58 M982.673 1492.88 Q988.483 1492.88 991.539 1497.48 Q994.618 1502.06 994.618 1510.81 Q994.618 1519.54 991.539 1524.15 Q988.483 1528.73 982.673 1528.73 Q976.863 1528.73 973.784 1524.15 Q970.729 1519.54 970.729 1510.81 Q970.729 1502.06 973.784 1497.48 Q976.863 1492.88 982.673 1492.88 Z" fill="#000000" fill-rule="evenodd" fill-opacity="1" /><path clip-path="url(#clip310)" d="M1006.86 1524.12 L1023.18 1524.12 L1023.18 1528.06 L1001.24 1528.06 L1001.24 1524.12 Q1003.9 1521.37 1008.48 1516.74 Q1013.09 1512.09 1014.27 1510.75 Q1016.52 1508.22 1017.4 1506.49 Q1018.3 1504.73 1018.3 1503.04 Q1018.3 1500.28 1016.35 1498.55 Q1014.43 1496.81 1011.33 1496.81 Q1009.13 1496.81 1006.68 1497.57 Q1004.25 1498.34 1001.47 1499.89 L1001.47 1495.17 Q1004.29 1494.03 1006.75 1493.45 Q1009.2 1492.88 1011.24 1492.88 Q1016.61 1492.88 1019.8 1495.56 Q1023 1498.25 1023 1502.74 Q1023 1504.87 1022.19 1506.79 Q1021.4 1508.69 1019.29 1511.28 Q1018.71 1511.95 1015.61 1515.17 Q1012.51 1518.36 1006.86 1524.12 Z" fill="#000000" fill-rule="evenodd" fill-opacity="1" /><path clip-path="url(#clip310)" d="M1047.16 1509.43 Q1050.52 1510.14 1052.4 1512.41 Q1054.29 1514.68 1054.29 1518.01 Q1054.29 1523.13 1050.77 1525.93 Q1047.26 1528.73 1040.77 1528.73 Q1038.6 1528.73 1036.28 1528.29 Q1033.99 1527.87 1031.54 1527.02 L1031.54 1522.5 Q1033.48 1523.64 1035.8 1524.22 Q1038.11 1524.8 1040.64 1524.8 Q1045.03 1524.8 1047.33 1523.06 Q1049.64 1521.32 1049.64 1518.01 Q1049.64 1514.96 1047.49 1513.25 Q1045.36 1511.51 1041.54 1511.51 L1037.51 1511.51 L1037.51 1507.67 L1041.72 1507.67 Q1045.17 1507.67 1047 1506.3 Q1048.83 1504.91 1048.83 1502.32 Q1048.83 1499.66 1046.93 1498.25 Q1045.06 1496.81 1041.54 1496.81 Q1039.62 1496.81 1037.42 1497.23 Q1035.22 1497.64 1032.58 1498.52 L1032.58 1494.36 Q1035.24 1493.62 1037.56 1493.25 Q1039.9 1492.88 1041.96 1492.88 Q1047.28 1492.88 1050.38 1495.31 Q1053.48 1497.71 1053.48 1501.83 Q1053.48 1504.7 1051.84 1506.69 Q1050.2 1508.66 1047.16 1509.43 Z" fill="#000000" fill-rule="evenodd" fill-opacity="1" /><path clip-path="url(#clip310)" d="M1073.16 1496.58 Q1069.55 1496.58 1067.72 1500.14 Q1065.91 1503.69 1065.91 1510.81 Q1065.91 1517.92 1067.72 1521.49 Q1069.55 1525.03 1073.16 1525.03 Q1076.79 1525.03 1078.6 1521.49 Q1080.43 1517.92 1080.43 1510.81 Q1080.43 1503.69 1078.6 1500.14 Q1076.79 1496.58 1073.16 1496.58 M1073.16 1492.88 Q1078.97 1492.88 1082.02 1497.48 Q1085.1 1502.06 1085.1 1510.81 Q1085.1 1519.54 1082.02 1524.15 Q1078.97 1528.73 1073.16 1528.73 Q1067.35 1528.73 1064.27 1524.15 Q1061.21 1519.54 1061.21 1510.81 Q1061.21 1502.06 1064.27 1497.48 Q1067.35 1492.88 1073.16 1492.88 Z" fill="#000000" fill-rule="evenodd" fill-opacity="1" /><path clip-path="url(#clip310)" d="M1103.9 1508.92 Q1100.75 1508.92 1098.9 1511.07 Q1097.07 1513.22 1097.07 1516.97 Q1097.07 1520.7 1098.9 1522.87 Q1100.75 1525.03 1103.9 1525.03 Q1107.05 1525.03 1108.88 1522.87 Q1110.73 1520.7 1110.73 1516.97 Q1110.73 1513.22 1108.88 1511.07 Q1107.05 1508.92 1103.9 1508.92 M1113.18 1494.26 L1113.18 1498.52 Q1111.42 1497.69 1109.62 1497.25 Q1107.83 1496.81 1106.08 1496.81 Q1101.45 1496.81 1098.99 1499.94 Q1096.56 1503.06 1096.21 1509.38 Q1097.58 1507.37 1099.64 1506.3 Q1101.7 1505.21 1104.18 1505.21 Q1109.39 1505.21 1112.39 1508.38 Q1115.43 1511.53 1115.43 1516.97 Q1115.43 1522.3 1112.28 1525.51 Q1109.13 1528.73 1103.9 1528.73 Q1097.9 1528.73 1094.73 1524.15 Q1091.56 1519.54 1091.56 1510.81 Q1091.56 1502.62 1095.45 1497.76 Q1099.34 1492.88 1105.89 1492.88 Q1107.65 1492.88 1109.43 1493.22 Q1111.24 1493.57 1113.18 1494.26 Z" fill="#000000" fill-rule="evenodd" fill-opacity="1" /><path clip-path="url(#clip310)" d="M1151.65 1502.6 L1141.08 1513.22 L1151.65 1523.8 L1148.9 1526.6 L1138.27 1515.98 L1127.65 1526.6 L1124.92 1523.8 L1135.47 1513.22 L1124.92 1502.6 L1127.65 1499.8 L1138.27 1510.42 L1148.9 1499.8 L1151.65 1502.6 Z" fill="#000000" fill-rule="evenodd" fill-opacity="1" /><path clip-path="url(#clip310)" d="M1164.01 1524.12 L1171.65 1524.12 L1171.65 1497.76 L1163.34 1499.43 L1163.34 1495.17 L1171.61 1493.5 L1176.28 1493.5 L1176.28 1524.12 L1183.92 1524.12 L1183.92 1528.06 L1164.01 1528.06 L1164.01 1524.12 Z" fill="#000000" fill-rule="evenodd" fill-opacity="1" /><path clip-path="url(#clip310)" d="M1203.37 1496.58 Q1199.76 1496.58 1197.93 1500.14 Q1196.12 1503.69 1196.12 1510.81 Q1196.12 1517.92 1197.93 1521.49 Q1199.76 1525.03 1203.37 1525.03 Q1207 1525.03 1208.81 1521.49 Q1210.63 1517.92 1210.63 1510.81 Q1210.63 1503.69 1208.81 1500.14 Q1207 1496.58 1203.37 1496.58 M1203.37 1492.88 Q1209.18 1492.88 1212.23 1497.48 Q1215.31 1502.06 1215.31 1510.81 Q1215.31 1519.54 1212.23 1524.15 Q1209.18 1528.73 1203.37 1528.73 Q1197.56 1528.73 1194.48 1524.15 Q1191.42 1519.54 1191.42 1510.81 Q1191.42 1502.06 1194.48 1497.48 Q1197.56 1492.88 1203.37 1492.88 Z" fill="#000000" fill-rule="evenodd" fill-opacity="1" /><path clip-path="url(#clip310)" d="M1215.31 1486.98 L1239.42 1486.98 L1239.42 1490.17 L1215.31 1490.17 L1215.31 1486.98 Z" fill="#000000" fill-rule="evenodd" fill-opacity="1" /><path clip-path="url(#clip310)" d="M1248.28 1497.45 L1254.49 1497.45 L1254.49 1476.03 L1247.74 1477.38 L1247.74 1473.92 L1254.45 1472.57 L1258.25 1472.57 L1258.25 1497.45 L1264.46 1497.45 L1264.46 1500.65 L1248.28 1500.65 L1248.28 1497.45 Z" fill="#000000" fill-rule="evenodd" fill-opacity="1" /><path clip-path="url(#clip310)" d="M1212 1493.5 L1230.36 1493.5 L1230.36 1497.44 L1216.29 1497.44 L1216.29 1505.91 Q1217.3 1505.56 1218.32 1505.4 Q1219.34 1505.21 1220.36 1505.21 Q1226.15 1505.21 1229.53 1508.38 Q1232.91 1511.56 1232.91 1516.97 Q1232.91 1522.55 1229.43 1525.65 Q1225.96 1528.73 1219.64 1528.73 Q1217.47 1528.73 1215.2 1528.36 Q1212.95 1527.99 1210.54 1527.25 L1210.54 1522.55 Q1212.63 1523.69 1214.85 1524.24 Q1217.07 1524.8 1219.55 1524.8 Q1223.55 1524.8 1225.89 1522.69 Q1228.23 1520.58 1228.23 1516.97 Q1228.23 1513.36 1225.89 1511.25 Q1223.55 1509.15 1219.55 1509.15 Q1217.67 1509.15 1215.8 1509.56 Q1213.95 1509.98 1212 1510.86 L1212 1493.5 Z" fill="#000000" fill-rule="evenodd" fill-opacity="1" /><path clip-path="url(#clip310)" d="M1242.12 1522.18 L1247 1522.18 L1247 1528.06 L1242.12 1528.06 L1242.12 1522.18 Z" fill="#000000" fill-rule="evenodd" fill-opacity="1" /><path clip-path="url(#clip310)" d="M1270.03 1497.57 L1258.23 1516.02 L1270.03 1516.02 L1270.03 1497.57 M1268.81 1493.5 L1274.69 1493.5 L1274.69 1516.02 L1279.62 1516.02 L1279.62 1519.91 L1274.69 1519.91 L1274.69 1528.06 L1270.03 1528.06 L1270.03 1519.91 L1254.43 1519.91 L1254.43 1515.4 L1268.81 1493.5 Z" fill="#000000" fill-rule="evenodd" fill-opacity="1" /><path clip-path="url(#clip310)" d="M1297.35 1496.58 Q1293.74 1496.58 1291.91 1500.14 Q1290.1 1503.69 1290.1 1510.81 Q1290.1 1517.92 1291.91 1521.49 Q1293.74 1525.03 1297.35 1525.03 Q1300.98 1525.03 1302.79 1521.49 Q1304.62 1517.92 1304.62 1510.81 Q1304.62 1503.69 1302.79 1500.14 Q1300.98 1496.58 1297.35 1496.58 M1297.35 1492.88 Q1303.16 1492.88 1306.22 1497.48 Q1309.29 1502.06 1309.29 1510.81 Q1309.29 1519.54 1306.22 1524.15 Q1303.16 1528.73 1297.35 1528.73 Q1291.54 1528.73 1288.46 1524.15 Q1285.41 1519.54 1285.41 1510.81 Q1285.41 1502.06 1288.46 1497.48 Q1291.54 1492.88 1297.35 1492.88 Z" fill="#000000" fill-rule="evenodd" fill-opacity="1" /><path clip-path="url(#clip310)" d="M1331.68 1509.43 Q1335.03 1510.14 1336.91 1512.41 Q1338.81 1514.68 1338.81 1518.01 Q1338.81 1523.13 1335.29 1525.93 Q1331.77 1528.73 1325.29 1528.73 Q1323.11 1528.73 1320.8 1528.29 Q1318.51 1527.87 1316.05 1527.02 L1316.05 1522.5 Q1318 1523.64 1320.31 1524.22 Q1322.63 1524.8 1325.15 1524.8 Q1329.55 1524.8 1331.84 1523.06 Q1334.15 1521.32 1334.15 1518.01 Q1334.15 1514.96 1332 1513.25 Q1329.87 1511.51 1326.05 1511.51 L1322.03 1511.51 L1322.03 1507.67 L1326.24 1507.67 Q1329.69 1507.67 1331.52 1506.3 Q1333.34 1504.91 1333.34 1502.32 Q1333.34 1499.66 1331.45 1498.25 Q1329.57 1496.81 1326.05 1496.81 Q1324.13 1496.81 1321.93 1497.23 Q1319.73 1497.64 1317.09 1498.52 L1317.09 1494.36 Q1319.76 1493.62 1322.07 1493.25 Q1324.41 1492.88 1326.47 1492.88 Q1331.79 1492.88 1334.9 1495.31 Q1338 1497.71 1338 1501.83 Q1338 1504.7 1336.35 1506.69 Q1334.71 1508.66 1331.68 1509.43 Z" fill="#000000" fill-rule="evenodd" fill-opacity="1" /><path clip-path="url(#clip310)" d="M1357.67 1496.58 Q1354.06 1496.58 1352.23 1500.14 Q1350.43 1503.69 1350.43 1510.81 Q1350.43 1517.92 1352.23 1521.49 Q1354.06 1525.03 1357.67 1525.03 Q1361.31 1525.03 1363.11 1521.49 Q1364.94 1517.92 1364.94 1510.81 Q1364.94 1503.69 1363.11 1500.14 Q1361.31 1496.58 1357.67 1496.58 M1357.67 1492.88 Q1363.48 1492.88 1366.54 1497.48 Q1369.62 1502.06 1369.62 1510.81 Q1369.62 1519.54 1366.54 1524.15 Q1363.48 1528.73 1357.67 1528.73 Q1351.86 1528.73 1348.78 1524.15 Q1345.73 1519.54 1345.73 1510.81 Q1345.73 1502.06 1348.78 1497.48 Q1351.86 1492.88 1357.67 1492.88 Z" fill="#000000" fill-rule="evenodd" fill-opacity="1" /><path clip-path="url(#clip310)" d="M1381.86 1524.12 L1398.18 1524.12 L1398.18 1528.06 L1376.24 1528.06 L1376.24 1524.12 Q1378.9 1521.37 1383.48 1516.74 Q1388.09 1512.09 1389.27 1510.75 Q1391.52 1508.22 1392.4 1506.49 Q1393.3 1504.73 1393.3 1503.04 Q1393.3 1500.28 1391.35 1498.55 Q1389.43 1496.81 1386.33 1496.81 Q1384.13 1496.81 1381.68 1497.57 Q1379.25 1498.34 1376.47 1499.89 L1376.47 1495.17 Q1379.29 1494.03 1381.75 1493.45 Q1384.2 1492.88 1386.24 1492.88 Q1391.61 1492.88 1394.8 1495.56 Q1398 1498.25 1398 1502.74 Q1398 1504.87 1397.19 1506.79 Q1396.4 1508.69 1394.29 1511.28 Q1393.71 1511.95 1390.61 1515.17 Q1387.51 1518.36 1381.86 1524.12 Z" fill="#000000" fill-rule="evenodd" fill-opacity="1" /><path clip-path="url(#clip310)" d="M1422.16 1509.43 Q1425.52 1510.14 1427.4 1512.41 Q1429.29 1514.68 1429.29 1518.01 Q1429.29 1523.13 1425.77 1525.93 Q1422.26 1528.73 1415.77 1528.73 Q1413.6 1528.73 1411.28 1528.29 Q1408.99 1527.87 1406.54 1527.02 L1406.54 1522.5 Q1408.48 1523.64 1410.8 1524.22 Q1413.11 1524.8 1415.64 1524.8 Q1420.03 1524.8 1422.33 1523.06 Q1424.64 1521.32 1424.64 1518.01 Q1424.64 1514.96 1422.49 1513.25 Q1420.36 1511.51 1416.54 1511.51 L1412.51 1511.51 L1412.51 1507.67 L1416.72 1507.67 Q1420.17 1507.67 1422 1506.3 Q1423.83 1504.91 1423.83 1502.32 Q1423.83 1499.66 1421.93 1498.25 Q1420.06 1496.81 1416.54 1496.81 Q1414.62 1496.81 1412.42 1497.23 Q1410.22 1497.64 1407.58 1498.52 L1407.58 1494.36 Q1410.24 1493.62 1412.56 1493.25 Q1414.9 1492.88 1416.96 1492.88 Q1422.28 1492.88 1425.38 1495.31 Q1428.48 1497.71 1428.48 1501.83 Q1428.48 1504.7 1426.84 1506.69 Q1425.2 1508.66 1422.16 1509.43 Z" fill="#000000" fill-rule="evenodd" fill-opacity="1" /><path clip-path="url(#clip310)" d="M1448.16 1496.58 Q1444.55 1496.58 1442.72 1500.14 Q1440.91 1503.69 1440.91 1510.81 Q1440.91 1517.92 1442.72 1521.49 Q1444.55 1525.03 1448.16 1525.03 Q1451.79 1525.03 1453.6 1521.49 Q1455.43 1517.92 1455.43 1510.81 Q1455.43 1503.69 1453.6 1500.14 Q1451.79 1496.58 1448.16 1496.58 M1448.16 1492.88 Q1453.97 1492.88 1457.02 1497.48 Q1460.1 1502.06 1460.1 1510.81 Q1460.1 1519.54 1457.02 1524.15 Q1453.97 1528.73 1448.16 1528.73 Q1442.35 1528.73 1439.27 1524.15 Q1436.21 1519.54 1436.21 1510.81 Q1436.21 1502.06 1439.27 1497.48 Q1442.35 1492.88 1448.16 1492.88 Z" fill="#000000" fill-rule="evenodd" fill-opacity="1" /><path clip-path="url(#clip310)" d="M1478.9 1508.92 Q1475.75 1508.92 1473.9 1511.07 Q1472.07 1513.22 1472.07 1516.97 Q1472.07 1520.7 1473.9 1522.87 Q1475.75 1525.03 1478.9 1525.03 Q1482.05 1525.03 1483.88 1522.87 Q1485.73 1520.7 1485.73 1516.97 Q1485.73 1513.22 1483.88 1511.07 Q1482.05 1508.92 1478.9 1508.92 M1488.18 1494.26 L1488.18 1498.52 Q1486.42 1497.69 1484.62 1497.25 Q1482.83 1496.81 1481.08 1496.81 Q1476.45 1496.81 1473.99 1499.94 Q1471.56 1503.06 1471.21 1509.38 Q1472.58 1507.37 1474.64 1506.3 Q1476.7 1505.21 1479.18 1505.21 Q1484.39 1505.21 1487.39 1508.38 Q1490.43 1511.53 1490.43 1516.97 Q1490.43 1522.3 1487.28 1525.51 Q1484.13 1528.73 1478.9 1528.73 Q1472.9 1528.73 1469.73 1524.15 Q1466.56 1519.54 1466.56 1510.81 Q1466.56 1502.62 1470.45 1497.76 Q1474.34 1492.88 1480.89 1492.88 Q1482.65 1492.88 1484.43 1493.22 Q1486.24 1493.57 1488.18 1494.26 Z" fill="#000000" fill-rule="evenodd" fill-opacity="1" /><path clip-path="url(#clip310)" d="M1526.65 1502.6 L1516.08 1513.22 L1526.65 1523.8 L1523.9 1526.6 L1513.27 1515.98 L1502.65 1526.6 L1499.92 1523.8 L1510.47 1513.22 L1499.92 1502.6 L1502.65 1499.8 L1513.27 1510.42 L1523.9 1499.8 L1526.65 1502.6 Z" fill="#000000" fill-rule="evenodd" fill-opacity="1" /><path clip-path="url(#clip310)" d="M1539.01 1524.12 L1546.65 1524.12 L1546.65 1497.76 L1538.34 1499.43 L1538.34 1495.17 L1546.61 1493.5 L1551.28 1493.5 L1551.28 1524.12 L1558.92 1524.12 L1558.92 1528.06 L1539.01 1528.06 L1539.01 1524.12 Z" fill="#000000" fill-rule="evenodd" fill-opacity="1" /><path clip-path="url(#clip310)" d="M1578.37 1496.58 Q1574.76 1496.58 1572.93 1500.14 Q1571.12 1503.69 1571.12 1510.81 Q1571.12 1517.92 1572.93 1521.49 Q1574.76 1525.03 1578.37 1525.03 Q1582 1525.03 1583.81 1521.49 Q1585.63 1517.92 1585.63 1510.81 Q1585.63 1503.69 1583.81 1500.14 Q1582 1496.58 1578.37 1496.58 M1578.37 1492.88 Q1584.18 1492.88 1587.23 1497.48 Q1590.31 1502.06 1590.31 1510.81 Q1590.31 1519.54 1587.23 1524.15 Q1584.18 1528.73 1578.37 1528.73 Q1572.56 1528.73 1569.48 1524.15 Q1566.42 1519.54 1566.42 1510.81 Q1566.42 1502.06 1569.48 1497.48 Q1572.56 1492.88 1578.37 1492.88 Z" fill="#000000" fill-rule="evenodd" fill-opacity="1" /><path clip-path="url(#clip310)" d="M1590.31 1486.98 L1614.42 1486.98 L1614.42 1490.17 L1590.31 1490.17 L1590.31 1486.98 Z" fill="#000000" fill-rule="evenodd" fill-opacity="1" /><path clip-path="url(#clip310)" d="M1623.28 1497.45 L1629.49 1497.45 L1629.49 1476.03 L1622.74 1477.38 L1622.74 1473.92 L1629.45 1472.57 L1633.25 1472.57 L1633.25 1497.45 L1639.46 1497.45 L1639.46 1500.65 L1623.28 1500.65 L1623.28 1497.45 Z" fill="#000000" fill-rule="evenodd" fill-opacity="1" /><path clip-path="url(#clip310)" d="M1512 1493.5 L1530.36 1493.5 L1530.36 1497.44 L1516.29 1497.44 L1516.29 1505.91 Q1517.3 1505.56 1518.32 1505.4 Q1519.34 1505.21 1520.36 1505.21 Q1526.15 1505.21 1529.53 1508.38 Q1532.91 1511.56 1532.91 1516.97 Q1532.91 1522.55 1529.43 1525.65 Q1525.96 1528.73 1519.64 1528.73 Q1517.47 1528.73 1515.2 1528.36 Q1512.95 1527.99 1510.54 1527.25 L1510.54 1522.55 Q1512.63 1523.69 1514.85 1524.24 Q1517.07 1524.8 1519.55 1524.8 Q1523.55 1524.8 1525.89 1522.69 Q1528.23 1520.58 1528.23 1516.97 Q1528.23 1513.36 1525.89 1511.25 Q1523.55 1509.15 1519.55 1509.15 Q1517.67 1509.15 1515.8 1509.56 Q1513.95 1509.98 1512 1510.86 L1512 1493.5 Z" fill="#000000" fill-rule="evenodd" fill-opacity="1" /><path clip-path="url(#clip310)" d="M1542.12 1522.18 L1547 1522.18 L1547 1528.06 L1542.12 1528.06 L1542.12 1522.18 Z" fill="#000000" fill-rule="evenodd" fill-opacity="1" /><path clip-path="url(#clip310)" d="M1570.03 1497.57 L1558.23 1516.02 L1570.03 1516.02 L1570.03 1497.57 M1568.81 1493.5 L1574.69 1493.5 L1574.69 1516.02 L1579.62 1516.02 L1579.62 1519.91 L1574.69 1519.91 L1574.69 1528.06 L1570.03 1528.06 L1570.03 1519.91 L1554.43 1519.91 L1554.43 1515.4 L1568.81 1493.5 Z" fill="#000000" fill-rule="evenodd" fill-opacity="1" /><path clip-path="url(#clip310)" d="M1597.35 1496.58 Q1593.74 1496.58 1591.91 1500.14 Q1590.1 1503.69 1590.1 1510.81 Q1590.1 1517.92 1591.91 1521.49 Q1593.74 1525.03 1597.35 1525.03 Q1600.98 1525.03 1602.79 1521.49 Q1604.62 1517.92 1604.62 1510.81 Q1604.62 1503.69 1602.79 1500.14 Q1600.98 1496.58 1597.35 1496.58 M1597.35 1492.88 Q1603.16 1492.88 1606.22 1497.48 Q1609.29 1502.06 1609.29 1510.81 Q1609.29 1519.54 1606.22 1524.15 Q1603.16 1528.73 1597.35 1528.73 Q1591.54 1528.73 1588.46 1524.15 Q1585.41 1519.54 1585.41 1510.81 Q1585.41 1502.06 1588.46 1497.48 Q1591.54 1492.88 1597.35 1492.88 Z" fill="#000000" fill-rule="evenodd" fill-opacity="1" /><path clip-path="url(#clip310)" d="M1631.68 1509.43 Q1635.03 1510.14 1636.91 1512.41 Q1638.81 1514.68 1638.81 1518.01 Q1638.81 1523.13 1635.29 1525.93 Q1631.77 1528.73 1625.29 1528.73 Q1623.11 1528.73 1620.8 1528.29 Q1618.51 1527.87 1616.05 1527.02 L1616.05 1522.5 Q1618 1523.64 1620.31 1524.22 Q1622.63 1524.8 1625.15 1524.8 Q1629.55 1524.8 1631.84 1523.06 Q1634.15 1521.32 1634.15 1518.01 Q1634.15 1514.96 1632 1513.25 Q1629.87 1511.51 1626.05 1511.51 L1622.03 1511.51 L1622.03 1507.67 L1626.24 1507.67 Q1629.69 1507.67 1631.52 1506.3 Q1633.34 1504.91 1633.34 1502.32 Q1633.34 1499.66 1631.45 1498.25 Q1629.57 1496.81 1626.05 1496.81 Q1624.13 1496.81 1621.93 1497.23 Q1619.73 1497.64 1617.09 1498.52 L1617.09 1494.36 Q1619.76 1493.62 1622.07 1493.25 Q1624.41 1492.88 1626.47 1492.88 Q1631.79 1492.88 1634.9 1495.31 Q1638 1497.71 1638 1501.83 Q1638 1504.7 1636.35 1506.69 Q1634.71 1508.66 1631.68 1509.43 Z" fill="#000000" fill-rule="evenodd" fill-opacity="1" /><path clip-path="url(#clip310)" d="M1657.67 1496.58 Q1654.06 1496.58 1652.23 1500.14 Q1650.43 1503.69 1650.43 1510.81 Q1650.43 1517.92 1652.23 1521.49 Q1654.06 1525.03 1657.67 1525.03 Q1661.31 1525.03 1663.11 1521.49 Q1664.94 1517.92 1664.94 1510.81 Q1664.94 1503.69 1663.11 1500.14 Q1661.31 1496.58 1657.67 1496.58 M1657.67 1492.88 Q1663.48 1492.88 1666.54 1497.48 Q1669.62 1502.06 1669.62 1510.81 Q1669.62 1519.54 1666.54 1524.15 Q1663.48 1528.73 1657.67 1528.73 Q1651.86 1528.73 1648.78 1524.15 Q1645.73 1519.54 1645.73 1510.81 Q1645.73 1502.06 1648.78 1497.48 Q1651.86 1492.88 1657.67 1492.88 Z" fill="#000000" fill-rule="evenodd" fill-opacity="1" /><path clip-path="url(#clip310)" d="M1681.86 1524.12 L1698.18 1524.12 L1698.18 1528.06 L1676.24 1528.06 L1676.24 1524.12 Q1678.9 1521.37 1683.48 1516.74 Q1688.09 1512.09 1689.27 1510.75 Q1691.52 1508.22 1692.4 1506.49 Q1693.3 1504.73 1693.3 1503.04 Q1693.3 1500.28 1691.35 1498.55 Q1689.43 1496.81 1686.33 1496.81 Q1684.13 1496.81 1681.68 1497.57 Q1679.25 1498.34 1676.47 1499.89 L1676.47 1495.17 Q1679.29 1494.03 1681.75 1493.45 Q1684.2 1492.88 1686.24 1492.88 Q1691.61 1492.88 1694.8 1495.56 Q1698 1498.25 1698 1502.74 Q1698 1504.87 1697.19 1506.79 Q1696.4 1508.69 1694.29 1511.28 Q1693.71 1511.95 1690.61 1515.17 Q1687.51 1518.36 1681.86 1524.12 Z" fill="#000000" fill-rule="evenodd" fill-opacity="1" /><path clip-path="url(#clip310)" d="M1722.16 1509.43 Q1725.52 1510.14 1727.4 1512.41 Q1729.29 1514.68 1729.29 1518.01 Q1729.29 1523.13 1725.77 1525.93 Q1722.26 1528.73 1715.77 1528.73 Q1713.6 1528.73 1711.28 1528.29 Q1708.99 1527.87 1706.54 1527.02 L1706.54 1522.5 Q1708.48 1523.64 1710.8 1524.22 Q1713.11 1524.8 1715.64 1524.8 Q1720.03 1524.8 1722.33 1523.06 Q1724.64 1521.32 1724.64 1518.01 Q1724.64 1514.96 1722.49 1513.25 Q1720.36 1511.51 1716.54 1511.51 L1712.51 1511.51 L1712.51 1507.67 L1716.72 1507.67 Q1720.17 1507.67 1722 1506.3 Q1723.83 1504.91 1723.83 1502.32 Q1723.83 1499.66 1721.93 1498.25 Q1720.06 1496.81 1716.54 1496.81 Q1714.62 1496.81 1712.42 1497.23 Q1710.22 1497.64 1707.58 1498.52 L1707.58 1494.36 Q1710.24 1493.62 1712.56 1493.25 Q1714.9 1492.88 1716.96 1492.88 Q1722.28 1492.88 1725.38 1495.31 Q1728.48 1497.71 1728.48 1501.83 Q1728.48 1504.7 1726.84 1506.69 Q1725.2 1508.66 1722.16 1509.43 Z" fill="#000000" fill-rule="evenodd" fill-opacity="1" /><path clip-path="url(#clip310)" d="M1748.16 1496.58 Q1744.55 1496.58 1742.72 1500.14 Q1740.91 1503.69 1740.91 1510.81 Q1740.91 1517.92 1742.72 1521.49 Q1744.55 1525.03 1748.16 1525.03 Q1751.79 1525.03 1753.6 1521.49 Q1755.43 1517.92 1755.43 1510.81 Q1755.43 1503.69 1753.6 1500.14 Q1751.79 1496.58 1748.16 1496.58 M1748.16 1492.88 Q1753.97 1492.88 1757.02 1497.48 Q1760.1 1502.06 1760.1 1510.81 Q1760.1 1519.54 1757.02 1524.15 Q1753.97 1528.73 1748.16 1528.73 Q1742.35 1528.73 1739.27 1524.15 Q1736.21 1519.54 1736.21 1510.81 Q1736.21 1502.06 1739.27 1497.48 Q1742.35 1492.88 1748.16 1492.88 Z" fill="#000000" fill-rule="evenodd" fill-opacity="1" /><path clip-path="url(#clip310)" d="M1778.9 1508.92 Q1775.75 1508.92 1773.9 1511.07 Q1772.07 1513.22 1772.07 1516.97 Q1772.07 1520.7 1773.9 1522.87 Q1775.75 1525.03 1778.9 1525.03 Q1782.05 1525.03 1783.88 1522.87 Q1785.73 1520.7 1785.73 1516.97 Q1785.73 1513.22 1783.88 1511.07 Q1782.05 1508.92 1778.9 1508.92 M1788.18 1494.26 L1788.18 1498.52 Q1786.42 1497.69 1784.62 1497.25 Q1782.83 1496.81 1781.08 1496.81 Q1776.45 1496.81 1773.99 1499.94 Q1771.56 1503.06 1771.21 1509.38 Q1772.58 1507.37 1774.64 1506.3 Q1776.7 1505.21 1779.18 1505.21 Q1784.39 1505.21 1787.39 1508.38 Q1790.43 1511.53 1790.43 1516.97 Q1790.43 1522.3 1787.28 1525.51 Q1784.13 1528.73 1778.9 1528.73 Q1772.9 1528.73 1769.73 1524.15 Q1766.56 1519.54 1766.56 1510.81 Q1766.56 1502.62 1770.45 1497.76 Q1774.34 1492.88 1780.89 1492.88 Q1782.65 1492.88 1784.43 1493.22 Q1786.24 1493.57 1788.18 1494.26 Z" fill="#000000" fill-rule="evenodd" fill-opacity="1" /><path clip-path="url(#clip310)" d="M1826.65 1502.6 L1816.08 1513.22 L1826.65 1523.8 L1823.9 1526.6 L1813.27 1515.98 L1802.65 1526.6 L1799.92 1523.8 L1810.47 1513.22 L1799.92 1502.6 L1802.65 1499.8 L1813.27 1510.42 L1823.9 1499.8 L1826.65 1502.6 Z" fill="#000000" fill-rule="evenodd" fill-opacity="1" /><path clip-path="url(#clip310)" d="M1839.01 1524.12 L1846.65 1524.12 L1846.65 1497.76 L1838.34 1499.43 L1838.34 1495.17 L1846.61 1493.5 L1851.28 1493.5 L1851.28 1524.12 L1858.92 1524.12 L1858.92 1528.06 L1839.01 1528.06 L1839.01 1524.12 Z" fill="#000000" fill-rule="evenodd" fill-opacity="1" /><path clip-path="url(#clip310)" d="M1878.37 1496.58 Q1874.76 1496.58 1872.93 1500.14 Q1871.12 1503.69 1871.12 1510.81 Q1871.12 1517.92 1872.93 1521.49 Q1874.76 1525.03 1878.37 1525.03 Q1882 1525.03 1883.81 1521.49 Q1885.63 1517.92 1885.63 1510.81 Q1885.63 1503.69 1883.81 1500.14 Q1882 1496.58 1878.37 1496.58 M1878.37 1492.88 Q1884.18 1492.88 1887.23 1497.48 Q1890.31 1502.06 1890.31 1510.81 Q1890.31 1519.54 1887.23 1524.15 Q1884.18 1528.73 1878.37 1528.73 Q1872.56 1528.73 1869.48 1524.15 Q1866.42 1519.54 1866.42 1510.81 Q1866.42 1502.06 1869.48 1497.48 Q1872.56 1492.88 1878.37 1492.88 Z" fill="#000000" fill-rule="evenodd" fill-opacity="1" /><path clip-path="url(#clip310)" d="M1890.31 1486.98 L1914.42 1486.98 L1914.42 1490.17 L1890.31 1490.17 L1890.31 1486.98 Z" fill="#000000" fill-rule="evenodd" fill-opacity="1" /><path clip-path="url(#clip310)" d="M1923.28 1497.45 L1929.49 1497.45 L1929.49 1476.03 L1922.74 1477.38 L1922.74 1473.92 L1929.45 1472.57 L1933.25 1472.57 L1933.25 1497.45 L1939.46 1497.45 L1939.46 1500.65 L1923.28 1500.65 L1923.28 1497.45 Z" fill="#000000" fill-rule="evenodd" fill-opacity="1" /><path clip-path="url(#clip310)" d="M1887 1493.5 L1905.36 1493.5 L1905.36 1497.44 L1891.29 1497.44 L1891.29 1505.91 Q1892.3 1505.56 1893.32 1505.4 Q1894.34 1505.21 1895.36 1505.21 Q1901.15 1505.21 1904.53 1508.38 Q1907.91 1511.56 1907.91 1516.97 Q1907.91 1522.55 1904.43 1525.65 Q1900.96 1528.73 1894.64 1528.73 Q1892.47 1528.73 1890.2 1528.36 Q1887.95 1527.99 1885.54 1527.25 L1885.54 1522.55 Q1887.63 1523.69 1889.85 1524.24 Q1892.07 1524.8 1894.55 1524.8 Q1898.55 1524.8 1900.89 1522.69 Q1903.23 1520.58 1903.23 1516.97 Q1903.23 1513.36 1900.89 1511.25 Q1898.55 1509.15 1894.55 1509.15 Q1892.67 1509.15 1890.8 1509.56 Q1888.95 1509.98 1887 1510.86 L1887 1493.5 Z" fill="#000000" fill-rule="evenodd" fill-opacity="1" /><path clip-path="url(#clip310)" d="M1917.12 1522.18 L1922 1522.18 L1922 1528.06 L1917.12 1528.06 L1917.12 1522.18 Z" fill="#000000" fill-rule="evenodd" fill-opacity="1" /><path clip-path="url(#clip310)" d="M1945.03 1497.57 L1933.23 1516.02 L1945.03 1516.02 L1945.03 1497.57 M1943.81 1493.5 L1949.69 1493.5 L1949.69 1516.02 L1954.62 1516.02 L1954.62 1519.91 L1949.69 1519.91 L1949.69 1528.06 L1945.03 1528.06 L1945.03 1519.91 L1929.43 1519.91 L1929.43 1515.4 L1943.81 1493.5 Z" fill="#000000" fill-rule="evenodd" fill-opacity="1" /><path clip-path="url(#clip310)" d="M1972.35 1496.58 Q1968.74 1496.58 1966.91 1500.14 Q1965.1 1503.69 1965.1 1510.81 Q1965.1 1517.92 1966.91 1521.49 Q1968.74 1525.03 1972.35 1525.03 Q1975.98 1525.03 1977.79 1521.49 Q1979.62 1517.92 1979.62 1510.81 Q1979.62 1503.69 1977.79 1500.14 Q1975.98 1496.58 1972.35 1496.58 M1972.35 1492.88 Q1978.16 1492.88 1981.22 1497.48 Q1984.29 1502.06 1984.29 1510.81 Q1984.29 1519.54 1981.22 1524.15 Q1978.16 1528.73 1972.35 1528.73 Q1966.54 1528.73 1963.46 1524.15 Q1960.41 1519.54 1960.41 1510.81 Q1960.41 1502.06 1963.46 1497.48 Q1966.54 1492.88 1972.35 1492.88 Z" fill="#000000" fill-rule="evenodd" fill-opacity="1" /><path clip-path="url(#clip310)" d="M2006.68 1509.43 Q2010.03 1510.14 2011.91 1512.41 Q2013.81 1514.68 2013.81 1518.01 Q2013.81 1523.13 2010.29 1525.93 Q2006.77 1528.73 2000.29 1528.73 Q1998.11 1528.73 1995.8 1528.29 Q1993.51 1527.87 1991.05 1527.02 L1991.05 1522.5 Q1993 1523.64 1995.31 1524.22 Q1997.63 1524.8 2000.15 1524.8 Q2004.55 1524.8 2006.84 1523.06 Q2009.15 1521.32 2009.15 1518.01 Q2009.15 1514.96 2007 1513.25 Q2004.87 1511.51 2001.05 1511.51 L1997.03 1511.51 L1997.03 1507.67 L2001.24 1507.67 Q2004.69 1507.67 2006.52 1506.3 Q2008.34 1504.91 2008.34 1502.32 Q2008.34 1499.66 2006.45 1498.25 Q2004.57 1496.81 2001.05 1496.81 Q1999.13 1496.81 1996.93 1497.23 Q1994.73 1497.64 1992.09 1498.52 L1992.09 1494.36 Q1994.76 1493.62 1997.07 1493.25 Q1999.41 1492.88 2001.47 1492.88 Q2006.79 1492.88 2009.9 1495.31 Q2013 1497.71 2013 1501.83 Q2013 1504.7 2011.35 1506.69 Q2009.71 1508.66 2006.68 1509.43 Z" fill="#000000" fill-rule="evenodd" fill-opacity="1" /><path clip-path="url(#clip310)" d="M2032.67 1496.58 Q2029.06 1496.58 2027.23 1500.14 Q2025.43 1503.69 2025.43 1510.81 Q2025.43 1517.92 2027.23 1521.49 Q2029.06 1525.03 2032.67 1525.03 Q2036.31 1525.03 2038.11 1521.49 Q2039.94 1517.92 2039.94 1510.81 Q2039.94 1503.69 2038.11 1500.14 Q2036.31 1496.58 2032.67 1496.58 M2032.67 1492.88 Q2038.48 1492.88 2041.54 1497.48 Q2044.62 1502.06 2044.62 1510.81 Q2044.62 1519.54 2041.54 1524.15 Q2038.48 1528.73 2032.67 1528.73 Q2026.86 1528.73 2023.78 1524.15 Q2020.73 1519.54 2020.73 1510.81 Q2020.73 1502.06 2023.78 1497.48 Q2026.86 1492.88 2032.67 1492.88 Z" fill="#000000" fill-rule="evenodd" fill-opacity="1" /><path clip-path="url(#clip310)" d="M2056.86 1524.12 L2073.18 1524.12 L2073.18 1528.06 L2051.24 1528.06 L2051.24 1524.12 Q2053.9 1521.37 2058.48 1516.74 Q2063.09 1512.09 2064.27 1510.75 Q2066.52 1508.22 2067.4 1506.49 Q2068.3 1504.73 2068.3 1503.04 Q2068.3 1500.28 2066.35 1498.55 Q2064.43 1496.81 2061.33 1496.81 Q2059.13 1496.81 2056.68 1497.57 Q2054.25 1498.34 2051.47 1499.89 L2051.47 1495.17 Q2054.29 1494.03 2056.75 1493.45 Q2059.2 1492.88 2061.24 1492.88 Q2066.61 1492.88 2069.8 1495.56 Q2073 1498.25 2073 1502.74 Q2073 1504.87 2072.19 1506.79 Q2071.4 1508.69 2069.29 1511.28 Q2068.71 1511.95 2065.61 1515.17 Q2062.51 1518.36 2056.86 1524.12 Z" fill="#000000" fill-rule="evenodd" fill-opacity="1" /><path clip-path="url(#clip310)" d="M2097.16 1509.43 Q2100.52 1510.14 2102.4 1512.41 Q2104.29 1514.68 2104.29 1518.01 Q2104.29 1523.13 2100.77 1525.93 Q2097.26 1528.73 2090.77 1528.73 Q2088.6 1528.73 2086.28 1528.29 Q2083.99 1527.87 2081.54 1527.02 L2081.54 1522.5 Q2083.48 1523.64 2085.8 1524.22 Q2088.11 1524.8 2090.64 1524.8 Q2095.03 1524.8 2097.33 1523.06 Q2099.64 1521.32 2099.64 1518.01 Q2099.64 1514.96 2097.49 1513.25 Q2095.36 1511.51 2091.54 1511.51 L2087.51 1511.51 L2087.51 1507.67 L2091.72 1507.67 Q2095.17 1507.67 2097 1506.3 Q2098.83 1504.91 2098.83 1502.32 Q2098.83 1499.66 2096.93 1498.25 Q2095.06 1496.81 2091.54 1496.81 Q2089.62 1496.81 2087.42 1497.23 Q2085.22 1497.64 2082.58 1498.52 L2082.58 1494.36 Q2085.24 1493.62 2087.56 1493.25 Q2089.9 1492.88 2091.96 1492.88 Q2097.28 1492.88 2100.38 1495.31 Q2103.48 1497.71 2103.48 1501.83 Q2103.48 1504.7 2101.84 1506.69 Q2100.2 1508.66 2097.16 1509.43 Z" fill="#000000" fill-rule="evenodd" fill-opacity="1" /><path clip-path="url(#clip310)" d="M2123.16 1496.58 Q2119.55 1496.58 2117.72 1500.14 Q2115.91 1503.69 2115.91 1510.81 Q2115.91 1517.92 2117.72 1521.49 Q2119.55 1525.03 2123.16 1525.03 Q2126.79 1525.03 2128.6 1521.49 Q2130.43 1517.92 2130.43 1510.81 Q2130.43 1503.69 2128.6 1500.14 Q2126.79 1496.58 2123.16 1496.58 M2123.16 1492.88 Q2128.97 1492.88 2132.02 1497.48 Q2135.1 1502.06 2135.1 1510.81 Q2135.1 1519.54 2132.02 1524.15 Q2128.97 1528.73 2123.16 1528.73 Q2117.35 1528.73 2114.27 1524.15 Q2111.21 1519.54 2111.21 1510.81 Q2111.21 1502.06 2114.27 1497.48 Q2117.35 1492.88 2123.16 1492.88 Z" fill="#000000" fill-rule="evenodd" fill-opacity="1" /><path clip-path="url(#clip310)" d="M2153.9 1508.92 Q2150.75 1508.92 2148.9 1511.07 Q2147.07 1513.22 2147.07 1516.97 Q2147.07 1520.7 2148.9 1522.87 Q2150.75 1525.03 2153.9 1525.03 Q2157.05 1525.03 2158.88 1522.87 Q2160.73 1520.7 2160.73 1516.97 Q2160.73 1513.22 2158.88 1511.07 Q2157.05 1508.92 2153.9 1508.92 M2163.18 1494.26 L2163.18 1498.52 Q2161.42 1497.69 2159.62 1497.25 Q2157.83 1496.81 2156.08 1496.81 Q2151.45 1496.81 2148.99 1499.94 Q2146.56 1503.06 2146.21 1509.38 Q2147.58 1507.37 2149.64 1506.3 Q2151.7 1505.21 2154.18 1505.21 Q2159.39 1505.21 2162.39 1508.38 Q2165.43 1511.53 2165.43 1516.97 Q2165.43 1522.3 2162.28 1525.51 Q2159.13 1528.73 2153.9 1528.73 Q2147.9 1528.73 2144.73 1524.15 Q2141.56 1519.54 2141.56 1510.81 Q2141.56 1502.62 2145.45 1497.76 Q2149.34 1492.88 2155.89 1492.88 Q2157.65 1492.88 2159.43 1493.22 Q2161.24 1493.57 2163.18 1494.26 Z" fill="#000000" fill-rule="evenodd" fill-opacity="1" /><path clip-path="url(#clip310)" d="M2201.65 1502.6 L2191.08 1513.22 L2201.65 1523.8 L2198.9 1526.6 L2188.27 1515.98 L2177.65 1526.6 L2174.92 1523.8 L2185.47 1513.22 L2174.92 1502.6 L2177.65 1499.8 L2188.27 1510.42 L2198.9 1499.8 L2201.65 1502.6 Z" fill="#000000" fill-rule="evenodd" fill-opacity="1" /><path clip-path="url(#clip310)" d="M2214.01 1524.12 L2221.65 1524.12 L2221.65 1497.76 L2213.34 1499.43 L2213.34 1495.17 L2221.61 1493.5 L2226.28 1493.5 L2226.28 1524.12 L2233.92 1524.12 L2233.92 1528.06 L2214.01 1528.06 L2214.01 1524.12 Z" fill="#000000" fill-rule="evenodd" fill-opacity="1" /><path clip-path="url(#clip310)" d="M2253.37 1496.58 Q2249.76 1496.58 2247.93 1500.14 Q2246.12 1503.69 2246.12 1510.81 Q2246.12 1517.92 2247.93 1521.49 Q2249.76 1525.03 2253.37 1525.03 Q2257 1525.03 2258.81 1521.49 Q2260.63 1517.92 2260.63 1510.81 Q2260.63 1503.69 2258.81 1500.14 Q2257 1496.58 2253.37 1496.58 M2253.37 1492.88 Q2259.18 1492.88 2262.23 1497.48 Q2265.31 1502.06 2265.31 1510.81 Q2265.31 1519.54 2262.23 1524.15 Q2259.18 1528.73 2253.37 1528.73 Q2247.56 1528.73 2244.48 1524.15 Q2241.42 1519.54 2241.42 1510.81 Q2241.42 1502.06 2244.48 1497.48 Q2247.56 1492.88 2253.37 1492.88 Z" fill="#000000" fill-rule="evenodd" fill-opacity="1" /><path clip-path="url(#clip310)" d="M2265.31 1486.98 L2289.42 1486.98 L2289.42 1490.17 L2265.31 1490.17 L2265.31 1486.98 Z" fill="#000000" fill-rule="evenodd" fill-opacity="1" /><path clip-path="url(#clip310)" d="M2298.28 1497.45 L2304.49 1497.45 L2304.49 1476.03 L2297.74 1477.38 L2297.74 1473.92 L2304.45 1472.57 L2308.25 1472.57 L2308.25 1497.45 L2314.46 1497.45 L2314.46 1500.65 L2298.28 1500.65 L2298.28 1497.45 Z" fill="#000000" fill-rule="evenodd" fill-opacity="1" /><polyline clip-path="url(#clip312)" style="stroke:#000000; stroke-linecap:butt; stroke-linejoin:round; stroke-width:2; stroke-opacity:0.1; fill:none" points="
  450,1225 2325,1225 
  "/>
<polyline clip-path="url(#clip312)" style="stroke:#000000; stroke-linecap:butt; stroke-linejoin:round; stroke-width:2; stroke-opacity:0.1; fill:none" points="
  450,925 2325,925 
  "/>
<polyline clip-path="url(#clip312)" style="stroke:#000000; stroke-linecap:butt; stroke-linejoin:round; stroke-width:2; stroke-opacity:0.1; fill:none" points="
  450,550 2325,550 
  "/>
<polyline clip-path="url(#clip312)" style="stroke:#000000; stroke-linecap:butt; stroke-linejoin:round; stroke-width:2; stroke-opacity:0.1; fill:none" points="
  450,250 2325,250 
  "/>
<polyline clip-path="url(#clip310)" style="stroke:#000000; stroke-linecap:butt; stroke-linejoin:round; stroke-width:4; stroke-opacity:1; fill:none" points="
  450,1450 450,25 
  "/>
<polyline clip-path="url(#clip310)" style="stroke:#000000; stroke-linecap:butt; stroke-linejoin:round; stroke-width:4; stroke-opacity:1; fill:none" points="
  450,1225 450,1225 
  "/>
<polyline clip-path="url(#clip310)" style="stroke:#000000; stroke-linecap:butt; stroke-linejoin:round; stroke-width:4; stroke-opacity:1; fill:none" points="
  450,925 450,925 
  "/>
<polyline clip-path="url(#clip310)" style="stroke:#000000; stroke-linecap:butt; stroke-linejoin:round; stroke-width:4; stroke-opacity:1; fill:none" points="
  450,550 450,550 
  "/>
<polyline clip-path="url(#clip310)" style="stroke:#000000; stroke-linecap:butt; stroke-linejoin:round; stroke-width:4; stroke-opacity:1; fill:none" points="
  450,250 450,250 
  "/>
<path clip-path="url(#clip310)" d="M56.8245 1232.32 Q53.4912 1232.32 51.5699 1234.1 Q49.6718 1235.88 49.6718 1239.01 Q49.6718 1242.13 51.5699 1243.91 Q53.4912 1245.7 56.8245 1245.7 Q60.1579 1245.7 62.0791 1243.91 Q64.0004 1242.11 64.0004 1239.01 Q64.0004 1235.88 62.0791 1234.1 Q60.181 1232.32 56.8245 1232.32 M52.1486 1230.32 Q49.1394 1229.58 47.4496 1227.52 Q45.7829 1225.46 45.7829 1222.5 Q45.7829 1218.36 48.7227 1215.95 Q51.6857 1213.54 56.8245 1213.54 Q61.9866 1213.54 64.9263 1215.95 Q67.8661 1218.36 67.8661 1222.5 Q67.8661 1225.46 66.1763 1227.52 Q64.5097 1229.58 61.5236 1230.32 Q64.9032 1231.11 66.7782 1233.4 Q68.6763 1235.7 68.6763 1239.01 Q68.6763 1244.03 65.5976 1246.71 Q62.5421 1249.4 56.8245 1249.4 Q51.107 1249.4 48.0283 1246.71 Q44.9728 1244.03 44.9728 1239.01 Q44.9728 1235.7 46.8709 1233.4 Q48.769 1231.11 52.1486 1230.32 M50.4357 1222.94 Q50.4357 1225.63 52.1023 1227.13 Q53.7922 1228.64 56.8245 1228.64 Q59.8338 1228.64 61.5236 1227.13 Q63.2365 1225.63 63.2365 1222.94 Q63.2365 1220.26 61.5236 1218.75 Q59.8338 1217.25 56.8245 1217.25 Q53.7922 1217.25 52.1023 1218.75 Q50.4357 1220.26 50.4357 1222.94 Z" fill="#000000" fill-rule="evenodd" fill-opacity="1" /><path clip-path="url(#clip310)" d="M76.9865 1242.85 L81.8707 1242.85 L81.8707 1248.73 L76.9865 1248.73 L76.9865 1242.85 Z" fill="#000000" fill-rule="evenodd" fill-opacity="1" /><path clip-path="url(#clip310)" d="M104.903 1218.24 L93.0975 1236.69 L104.903 1236.69 L104.903 1218.24 M103.676 1214.17 L109.556 1214.17 L109.556 1236.69 L114.486 1236.69 L114.486 1240.58 L109.556 1240.58 L109.556 1248.73 L104.903 1248.73 L104.903 1240.58 L89.3012 1240.58 L89.3012 1236.07 L103.676 1214.17 Z" fill="#000000" fill-rule="evenodd" fill-opacity="1" /><path clip-path="url(#clip310)" d="M123.028 1244.79 L130.667 1244.79 L130.667 1218.43 L122.357 1220.09 L122.357 1215.83 L130.62 1214.17 L135.296 1214.17 L135.296 1244.79 L142.935 1244.79 L142.935 1248.73 L123.028 1248.73 L123.028 1244.79 Z" fill="#000000" fill-rule="evenodd" fill-opacity="1" /><path clip-path="url(#clip310)" d="M165.227 1218.24 L153.421 1236.69 L165.227 1236.69 L165.227 1218.24 M164 1214.17 L169.879 1214.17 L169.879 1236.69 L174.81 1236.69 L174.81 1240.58 L169.879 1240.58 L169.879 1248.73 L165.227 1248.73 L165.227 1240.58 L149.625 1240.58 L149.625 1236.07 L164 1214.17 Z" fill="#000000" fill-rule="evenodd" fill-opacity="1" /><path clip-path="url(#clip310)" d="M181.361 1214.17 L203.583 1214.17 L203.583 1216.16 L191.037 1248.73 L186.153 1248.73 L197.958 1218.1 L181.361 1218.1 L181.361 1214.17 Z" fill="#000000" fill-rule="evenodd" fill-opacity="1" /><path clip-path="url(#clip310)" d="M213.514 1244.79 L221.152 1244.79 L221.152 1218.43 L212.842 1220.09 L212.842 1215.83 L221.106 1214.17 L225.782 1214.17 L225.782 1244.79 L233.421 1244.79 L233.421 1248.73 L213.514 1248.73 L213.514 1244.79 Z" fill="#000000" fill-rule="evenodd" fill-opacity="1" /><path clip-path="url(#clip310)" d="M252.865 1217.25 Q249.254 1217.25 247.425 1220.81 Q245.62 1224.35 245.62 1231.48 Q245.62 1238.59 247.425 1242.15 Q249.254 1245.7 252.865 1245.7 Q256.499 1245.7 258.305 1242.15 Q260.134 1238.59 260.134 1231.48 Q260.134 1224.35 258.305 1220.81 Q256.499 1217.25 252.865 1217.25 M252.865 1213.54 Q258.675 1213.54 261.731 1218.15 Q264.81 1222.73 264.81 1231.48 Q264.81 1240.21 261.731 1244.82 Q258.675 1249.4 252.865 1249.4 Q247.055 1249.4 243.976 1244.82 Q240.921 1240.21 240.921 1231.48 Q240.921 1222.73 243.976 1218.15 Q247.055 1213.54 252.865 1213.54 Z" fill="#000000" fill-rule="evenodd" fill-opacity="1" /><path clip-path="url(#clip310)" d="M301.198 1223.26 L290.62 1233.89 L301.198 1244.47 L298.444 1247.27 L287.819 1236.64 L277.194 1247.27 L274.462 1244.47 L285.018 1233.89 L274.462 1223.26 L277.194 1220.46 L287.819 1231.09 L298.444 1220.46 L301.198 1223.26 Z" fill="#000000" fill-rule="evenodd" fill-opacity="1" /><path clip-path="url(#clip310)" d="M313.559 1244.79 L321.198 1244.79 L321.198 1218.43 L312.888 1220.09 L312.888 1215.83 L321.152 1214.17 L325.828 1214.17 L325.828 1244.79 L333.467 1244.79 L333.467 1248.73 L313.559 1248.73 L313.559 1244.79 Z" fill="#000000" fill-rule="evenodd" fill-opacity="1" /><path clip-path="url(#clip310)" d="M352.911 1217.25 Q349.3 1217.25 347.471 1220.81 Q345.666 1224.35 345.666 1231.48 Q345.666 1238.59 347.471 1242.15 Q349.3 1245.7 352.911 1245.7 Q356.545 1245.7 358.351 1242.15 Q360.179 1238.59 360.179 1231.48 Q360.179 1224.35 358.351 1220.81 Q356.545 1217.25 352.911 1217.25 M352.911 1213.54 Q358.721 1213.54 361.777 1218.15 Q364.855 1222.73 364.855 1231.48 Q364.855 1240.21 361.777 1244.82 Q358.721 1249.4 352.911 1249.4 Q347.101 1249.4 344.022 1244.82 Q340.967 1240.21 340.967 1231.48 Q340.967 1222.73 344.022 1218.15 Q347.101 1213.54 352.911 1213.54 Z" fill="#000000" fill-rule="evenodd" fill-opacity="1" /><path clip-path="url(#clip310)" d="M364.855 1207.64 L388.967 1207.64 L388.967 1210.84 L364.855 1210.84 L364.855 1207.64 Z" fill="#000000" fill-rule="evenodd" fill-opacity="1" /><path clip-path="url(#clip310)" d="M397.825 1218.12 L404.032 1218.12 L404.032 1196.7 L397.28 1198.05 L397.28 1194.59 L403.994 1193.24 L407.793 1193.24 L407.793 1218.12 L414 1218.12 L414 1221.32 L397.825 1221.32 L397.825 1218.12 Z" fill="#000000" fill-rule="evenodd" fill-opacity="1" /><path clip-path="url(#clip310)" d="M56.8245 932.316 Q53.4912 932.316 51.5699 934.098 Q49.6718 935.88 49.6718 939.005 Q49.6718 942.13 51.5699 943.913 Q53.4912 945.695 56.8245 945.695 Q60.1579 945.695 62.0791 943.913 Q64.0004 942.107 64.0004 939.005 Q64.0004 935.88 62.0791 934.098 Q60.181 932.316 56.8245 932.316 M52.1486 930.325 Q49.1394 929.584 47.4496 927.524 Q45.7829 925.464 45.7829 922.501 Q45.7829 918.357 48.7227 915.95 Q51.6857 913.543 56.8245 913.543 Q61.9866 913.543 64.9263 915.95 Q67.8661 918.357 67.8661 922.501 Q67.8661 925.464 66.1763 927.524 Q64.5097 929.584 61.5236 930.325 Q64.9032 931.112 66.7782 933.404 Q68.6763 935.695 68.6763 939.005 Q68.6763 944.029 65.5976 946.714 Q62.5421 949.399 56.8245 949.399 Q51.107 949.399 48.0283 946.714 Q44.9728 944.029 44.9728 939.005 Q44.9728 935.695 46.8709 933.404 Q48.769 931.112 52.1486 930.325 M50.4357 922.941 Q50.4357 925.626 52.1023 927.13 Q53.7922 928.635 56.8245 928.635 Q59.8338 928.635 61.5236 927.13 Q63.2365 925.626 63.2365 922.941 Q63.2365 920.256 61.5236 918.751 Q59.8338 917.246 56.8245 917.246 Q53.7922 917.246 52.1023 918.751 Q50.4357 920.256 50.4357 922.941 Z" fill="#000000" fill-rule="evenodd" fill-opacity="1" /><path clip-path="url(#clip310)" d="M76.9865 942.848 L81.8707 942.848 L81.8707 948.728 L76.9865 948.728 L76.9865 942.848 Z" fill="#000000" fill-rule="evenodd" fill-opacity="1" /><path clip-path="url(#clip310)" d="M104.903 918.242 L93.0975 936.691 L104.903 936.691 L104.903 918.242 M103.676 914.168 L109.556 914.168 L109.556 936.691 L114.486 936.691 L114.486 940.579 L109.556 940.579 L109.556 948.728 L104.903 948.728 L104.903 940.579 L89.3012 940.579 L89.3012 936.066 L103.676 914.168 Z" fill="#000000" fill-rule="evenodd" fill-opacity="1" /><path clip-path="url(#clip310)" d="M123.028 944.792 L130.667 944.792 L130.667 918.427 L122.357 920.093 L122.357 915.834 L130.62 914.168 L135.296 914.168 L135.296 944.792 L142.935 944.792 L142.935 948.728 L123.028 948.728 L123.028 944.792 Z" fill="#000000" fill-rule="evenodd" fill-opacity="1" /><path clip-path="url(#clip310)" d="M165.227 918.242 L153.421 936.691 L165.227 936.691 L165.227 918.242 M164 914.168 L169.879 914.168 L169.879 936.691 L174.81 936.691 L174.81 940.579 L169.879 940.579 L169.879 948.728 L165.227 948.728 L165.227 940.579 L149.625 940.579 L149.625 936.066 L164 914.168 Z" fill="#000000" fill-rule="evenodd" fill-opacity="1" /><path clip-path="url(#clip310)" d="M181.361 914.168 L203.583 914.168 L203.583 916.158 L191.037 948.728 L186.153 948.728 L197.958 918.103 L181.361 918.103 L181.361 914.168 Z" fill="#000000" fill-rule="evenodd" fill-opacity="1" /><path clip-path="url(#clip310)" d="M213.514 944.792 L221.152 944.792 L221.152 918.427 L212.842 920.093 L212.842 915.834 L221.106 914.168 L225.782 914.168 L225.782 944.792 L233.421 944.792 L233.421 948.728 L213.514 948.728 L213.514 944.792 Z" fill="#000000" fill-rule="evenodd" fill-opacity="1" /><path clip-path="url(#clip310)" d="M252.865 917.246 Q249.254 917.246 247.425 920.811 Q245.62 924.353 245.62 931.482 Q245.62 938.589 247.425 942.154 Q249.254 945.695 252.865 945.695 Q256.499 945.695 258.305 942.154 Q260.134 938.589 260.134 931.482 Q260.134 924.353 258.305 920.811 Q256.499 917.246 252.865 917.246 M252.865 913.543 Q258.675 913.543 261.731 918.149 Q264.81 922.732 264.81 931.482 Q264.81 940.209 261.731 944.816 Q258.675 949.399 252.865 949.399 Q247.055 949.399 243.976 944.816 Q240.921 940.209 240.921 931.482 Q240.921 922.732 243.976 918.149 Q247.055 913.543 252.865 913.543 Z" fill="#000000" fill-rule="evenodd" fill-opacity="1" /><path clip-path="url(#clip310)" d="M301.198 923.265 L290.62 933.89 L301.198 944.468 L298.444 947.269 L287.819 936.644 L277.194 947.269 L274.462 944.468 L285.018 933.89 L274.462 923.265 L277.194 920.464 L287.819 931.089 L298.444 920.464 L301.198 923.265 Z" fill="#000000" fill-rule="evenodd" fill-opacity="1" /><path clip-path="url(#clip310)" d="M313.559 944.792 L321.198 944.792 L321.198 918.427 L312.888 920.093 L312.888 915.834 L321.152 914.168 L325.828 914.168 L325.828 944.792 L333.467 944.792 L333.467 948.728 L313.559 948.728 L313.559 944.792 Z" fill="#000000" fill-rule="evenodd" fill-opacity="1" /><path clip-path="url(#clip310)" d="M352.911 917.246 Q349.3 917.246 347.471 920.811 Q345.666 924.353 345.666 931.482 Q345.666 938.589 347.471 942.154 Q349.3 945.695 352.911 945.695 Q356.545 945.695 358.351 942.154 Q360.179 938.589 360.179 931.482 Q360.179 924.353 358.351 920.811 Q356.545 917.246 352.911 917.246 M352.911 913.543 Q358.721 913.543 361.777 918.149 Q364.855 922.732 364.855 931.482 Q364.855 940.209 361.777 944.816 Q358.721 949.399 352.911 949.399 Q347.101 949.399 344.022 944.816 Q340.967 940.209 340.967 931.482 Q340.967 922.732 344.022 918.149 Q347.101 913.543 352.911 913.543 Z" fill="#000000" fill-rule="evenodd" fill-opacity="1" /><path clip-path="url(#clip310)" d="M364.855 907.644 L388.967 907.644 L388.967 910.841 L364.855 910.841 L364.855 907.644 Z" fill="#000000" fill-rule="evenodd" fill-opacity="1" /><path clip-path="url(#clip310)" d="M397.825 918.12 L404.032 918.12 L404.032 896.698 L397.28 898.052 L397.28 894.591 L403.994 893.237 L407.793 893.237 L407.793 918.12 L414 918.12 L414 921.317 L397.825 921.317 L397.825 918.12 Z" fill="#000000" fill-rule="evenodd" fill-opacity="1" /><path clip-path="url(#clip310)" d="M56.8245 557.316 Q53.4912 557.316 51.5699 559.098 Q49.6718 560.88 49.6718 564.005 Q49.6718 567.13 51.5699 568.913 Q53.4912 570.695 56.8245 570.695 Q60.1579 570.695 62.0791 568.913 Q64.0004 567.107 64.0004 564.005 Q64.0004 560.88 62.0791 559.098 Q60.181 557.316 56.8245 557.316 M52.1486 555.325 Q49.1394 554.584 47.4496 552.524 Q45.7829 550.464 45.7829 547.501 Q45.7829 543.357 48.7227 540.95 Q51.6857 538.543 56.8245 538.543 Q61.9866 538.543 64.9263 540.95 Q67.8661 543.357 67.8661 547.501 Q67.8661 550.464 66.1763 552.524 Q64.5097 554.584 61.5236 555.325 Q64.9032 556.112 66.7782 558.404 Q68.6763 560.695 68.6763 564.005 Q68.6763 569.029 65.5976 571.714 Q62.5421 574.399 56.8245 574.399 Q51.107 574.399 48.0283 571.714 Q44.9728 569.029 44.9728 564.005 Q44.9728 560.695 46.8709 558.404 Q48.769 556.112 52.1486 555.325 M50.4357 547.941 Q50.4357 550.626 52.1023 552.13 Q53.7922 553.635 56.8245 553.635 Q59.8338 553.635 61.5236 552.13 Q63.2365 550.626 63.2365 547.941 Q63.2365 545.256 61.5236 543.751 Q59.8338 542.246 56.8245 542.246 Q53.7922 542.246 52.1023 543.751 Q50.4357 545.256 50.4357 547.941 Z" fill="#000000" fill-rule="evenodd" fill-opacity="1" /><path clip-path="url(#clip310)" d="M76.9865 567.848 L81.8707 567.848 L81.8707 573.728 L76.9865 573.728 L76.9865 567.848 Z" fill="#000000" fill-rule="evenodd" fill-opacity="1" /><path clip-path="url(#clip310)" d="M104.903 543.242 L93.0975 561.691 L104.903 561.691 L104.903 543.242 M103.676 539.168 L109.556 539.168 L109.556 561.691 L114.486 561.691 L114.486 565.579 L109.556 565.579 L109.556 573.728 L104.903 573.728 L104.903 565.579 L89.3012 565.579 L89.3012 561.066 L103.676 539.168 Z" fill="#000000" fill-rule="evenodd" fill-opacity="1" /><path clip-path="url(#clip310)" d="M123.028 569.792 L130.667 569.792 L130.667 543.427 L122.357 545.093 L122.357 540.834 L130.62 539.168 L135.296 539.168 L135.296 569.792 L142.935 569.792 L142.935 573.728 L123.028 573.728 L123.028 569.792 Z" fill="#000000" fill-rule="evenodd" fill-opacity="1" /><path clip-path="url(#clip310)" d="M165.227 543.242 L153.421 561.691 L165.227 561.691 L165.227 543.242 M164 539.168 L169.879 539.168 L169.879 561.691 L174.81 561.691 L174.81 565.579 L169.879 565.579 L169.879 573.728 L165.227 573.728 L165.227 565.579 L149.625 565.579 L149.625 561.066 L164 539.168 Z" fill="#000000" fill-rule="evenodd" fill-opacity="1" /><path clip-path="url(#clip310)" d="M181.361 539.168 L203.583 539.168 L203.583 541.158 L191.037 573.728 L186.153 573.728 L197.958 543.103 L181.361 543.103 L181.361 539.168 Z" fill="#000000" fill-rule="evenodd" fill-opacity="1" /><path clip-path="url(#clip310)" d="M213.514 569.792 L221.152 569.792 L221.152 543.427 L212.842 545.093 L212.842 540.834 L221.106 539.168 L225.782 539.168 L225.782 569.792 L233.421 569.792 L233.421 573.728 L213.514 573.728 L213.514 569.792 Z" fill="#000000" fill-rule="evenodd" fill-opacity="1" /><path clip-path="url(#clip310)" d="M252.865 542.246 Q249.254 542.246 247.425 545.811 Q245.62 549.353 245.62 556.482 Q245.62 563.589 247.425 567.154 Q249.254 570.695 252.865 570.695 Q256.499 570.695 258.305 567.154 Q260.134 563.589 260.134 556.482 Q260.134 549.353 258.305 545.811 Q256.499 542.246 252.865 542.246 M252.865 538.543 Q258.675 538.543 261.731 543.149 Q264.81 547.732 264.81 556.482 Q264.81 565.209 261.731 569.816 Q258.675 574.399 252.865 574.399 Q247.055 574.399 243.976 569.816 Q240.921 565.209 240.921 556.482 Q240.921 547.732 243.976 543.149 Q247.055 538.543 252.865 538.543 Z" fill="#000000" fill-rule="evenodd" fill-opacity="1" /><path clip-path="url(#clip310)" d="M301.198 548.265 L290.62 558.89 L301.198 569.468 L298.444 572.269 L287.819 561.644 L277.194 572.269 L274.462 569.468 L285.018 558.89 L274.462 548.265 L277.194 545.464 L287.819 556.089 L298.444 545.464 L301.198 548.265 Z" fill="#000000" fill-rule="evenodd" fill-opacity="1" /><path clip-path="url(#clip310)" d="M313.559 569.792 L321.198 569.792 L321.198 543.427 L312.888 545.093 L312.888 540.834 L321.152 539.168 L325.828 539.168 L325.828 569.792 L333.467 569.792 L333.467 573.728 L313.559 573.728 L313.559 569.792 Z" fill="#000000" fill-rule="evenodd" fill-opacity="1" /><path clip-path="url(#clip310)" d="M352.911 542.246 Q349.3 542.246 347.471 545.811 Q345.666 549.353 345.666 556.482 Q345.666 563.589 347.471 567.154 Q349.3 570.695 352.911 570.695 Q356.545 570.695 358.351 567.154 Q360.179 563.589 360.179 556.482 Q360.179 549.353 358.351 545.811 Q356.545 542.246 352.911 542.246 M352.911 538.543 Q358.721 538.543 361.777 543.149 Q364.855 547.732 364.855 556.482 Q364.855 565.209 361.777 569.816 Q358.721 574.399 352.911 574.399 Q347.101 574.399 344.022 569.816 Q340.967 565.209 340.967 556.482 Q340.967 547.732 344.022 543.149 Q347.101 538.543 352.911 538.543 Z" fill="#000000" fill-rule="evenodd" fill-opacity="1" /><path clip-path="url(#clip310)" d="M364.855 532.644 L388.967 532.644 L388.967 535.841 L364.855 535.841 L364.855 532.644 Z" fill="#000000" fill-rule="evenodd" fill-opacity="1" /><path clip-path="url(#clip310)" d="M397.825 543.12 L404.032 543.12 L404.032 521.698 L397.28 523.052 L397.28 519.591 L403.994 518.237 L407.793 518.237 L407.793 543.12 L414 543.12 L414 546.317 L397.825 546.317 L397.825 543.12 Z" fill="#000000" fill-rule="evenodd" fill-opacity="1" /><path clip-path="url(#clip310)" d="M56.8245 257.316 Q53.4912 257.316 51.5699 259.098 Q49.6718 260.88 49.6718 264.005 Q49.6718 267.13 51.5699 268.913 Q53.4912 270.695 56.8245 270.695 Q60.1579 270.695 62.0791 268.913 Q64.0004 267.107 64.0004 264.005 Q64.0004 260.88 62.0791 259.098 Q60.181 257.316 56.8245 257.316 M52.1486 255.325 Q49.1394 254.584 47.4496 252.524 Q45.7829 250.464 45.7829 247.501 Q45.7829 243.357 48.7227 240.95 Q51.6857 238.543 56.8245 238.543 Q61.9866 238.543 64.9263 240.95 Q67.8661 243.357 67.8661 247.501 Q67.8661 250.464 66.1763 252.524 Q64.5097 254.584 61.5236 255.325 Q64.9032 256.112 66.7782 258.404 Q68.6763 260.695 68.6763 264.005 Q68.6763 269.029 65.5976 271.714 Q62.5421 274.399 56.8245 274.399 Q51.107 274.399 48.0283 271.714 Q44.9728 269.029 44.9728 264.005 Q44.9728 260.695 46.8709 258.404 Q48.769 256.112 52.1486 255.325 M50.4357 247.941 Q50.4357 250.626 52.1023 252.13 Q53.7922 253.635 56.8245 253.635 Q59.8338 253.635 61.5236 252.13 Q63.2365 250.626 63.2365 247.941 Q63.2365 245.256 61.5236 243.751 Q59.8338 242.246 56.8245 242.246 Q53.7922 242.246 52.1023 243.751 Q50.4357 245.256 50.4357 247.941 Z" fill="#000000" fill-rule="evenodd" fill-opacity="1" /><path clip-path="url(#clip310)" d="M76.9865 267.848 L81.8707 267.848 L81.8707 273.728 L76.9865 273.728 L76.9865 267.848 Z" fill="#000000" fill-rule="evenodd" fill-opacity="1" /><path clip-path="url(#clip310)" d="M104.903 243.242 L93.0975 261.691 L104.903 261.691 L104.903 243.242 M103.676 239.168 L109.556 239.168 L109.556 261.691 L114.486 261.691 L114.486 265.579 L109.556 265.579 L109.556 273.728 L104.903 273.728 L104.903 265.579 L89.3012 265.579 L89.3012 261.066 L103.676 239.168 Z" fill="#000000" fill-rule="evenodd" fill-opacity="1" /><path clip-path="url(#clip310)" d="M123.028 269.792 L130.667 269.792 L130.667 243.427 L122.357 245.093 L122.357 240.834 L130.62 239.168 L135.296 239.168 L135.296 269.792 L142.935 269.792 L142.935 273.728 L123.028 273.728 L123.028 269.792 Z" fill="#000000" fill-rule="evenodd" fill-opacity="1" /><path clip-path="url(#clip310)" d="M165.227 243.242 L153.421 261.691 L165.227 261.691 L165.227 243.242 M164 239.168 L169.879 239.168 L169.879 261.691 L174.81 261.691 L174.81 265.579 L169.879 265.579 L169.879 273.728 L165.227 273.728 L165.227 265.579 L149.625 265.579 L149.625 261.066 L164 239.168 Z" fill="#000000" fill-rule="evenodd" fill-opacity="1" /><path clip-path="url(#clip310)" d="M181.361 239.168 L203.583 239.168 L203.583 241.158 L191.037 273.728 L186.153 273.728 L197.958 243.103 L181.361 243.103 L181.361 239.168 Z" fill="#000000" fill-rule="evenodd" fill-opacity="1" /><path clip-path="url(#clip310)" d="M213.514 269.792 L221.152 269.792 L221.152 243.427 L212.842 245.093 L212.842 240.834 L221.106 239.168 L225.782 239.168 L225.782 269.792 L233.421 269.792 L233.421 273.728 L213.514 273.728 L213.514 269.792 Z" fill="#000000" fill-rule="evenodd" fill-opacity="1" /><path clip-path="url(#clip310)" d="M252.865 242.246 Q249.254 242.246 247.425 245.811 Q245.62 249.353 245.62 256.482 Q245.62 263.589 247.425 267.154 Q249.254 270.695 252.865 270.695 Q256.499 270.695 258.305 267.154 Q260.134 263.589 260.134 256.482 Q260.134 249.353 258.305 245.811 Q256.499 242.246 252.865 242.246 M252.865 238.543 Q258.675 238.543 261.731 243.149 Q264.81 247.732 264.81 256.482 Q264.81 265.209 261.731 269.816 Q258.675 274.399 252.865 274.399 Q247.055 274.399 243.976 269.816 Q240.921 265.209 240.921 256.482 Q240.921 247.732 243.976 243.149 Q247.055 238.543 252.865 238.543 Z" fill="#000000" fill-rule="evenodd" fill-opacity="1" /><path clip-path="url(#clip310)" d="M301.198 248.265 L290.62 258.89 L301.198 269.468 L298.444 272.269 L287.819 261.644 L277.194 272.269 L274.462 269.468 L285.018 258.89 L274.462 248.265 L277.194 245.464 L287.819 256.089 L298.444 245.464 L301.198 248.265 Z" fill="#000000" fill-rule="evenodd" fill-opacity="1" /><path clip-path="url(#clip310)" d="M313.559 269.792 L321.198 269.792 L321.198 243.427 L312.888 245.093 L312.888 240.834 L321.152 239.168 L325.828 239.168 L325.828 269.792 L333.467 269.792 L333.467 273.728 L313.559 273.728 L313.559 269.792 Z" fill="#000000" fill-rule="evenodd" fill-opacity="1" /><path clip-path="url(#clip310)" d="M352.911 242.246 Q349.3 242.246 347.471 245.811 Q345.666 249.353 345.666 256.482 Q345.666 263.589 347.471 267.154 Q349.3 270.695 352.911 270.695 Q356.545 270.695 358.351 267.154 Q360.179 263.589 360.179 256.482 Q360.179 249.353 358.351 245.811 Q356.545 242.246 352.911 242.246 M352.911 238.543 Q358.721 238.543 361.777 243.149 Q364.855 247.732 364.855 256.482 Q364.855 265.209 361.777 269.816 Q358.721 274.399 352.911 274.399 Q347.101 274.399 344.022 269.816 Q340.967 265.209 340.967 256.482 Q340.967 247.732 344.022 243.149 Q347.101 238.543 352.911 238.543 Z" fill="#000000" fill-rule="evenodd" fill-opacity="1" /><path clip-path="url(#clip310)" d="M364.855 232.644 L388.967 232.644 L388.967 235.841 L364.855 235.841 L364.855 232.644 Z" fill="#000000" fill-rule="evenodd" fill-opacity="1" /><path clip-path="url(#clip310)" d="M397.825 243.12 L404.032 243.12 L404.032 221.698 L397.28 223.052 L397.28 219.591 L403.994 218.237 L407.793 218.237 L407.793 243.12 L414 243.12 L414 246.317 L397.825 246.317 L397.825 243.12 Z" fill="#000000" fill-rule="evenodd" fill-opacity="1" /><circle clip-path="url(#clip312)" cx="2250" cy="1300" r="14" fill="#009af9" fill-rule="evenodd" fill-opacity="1" stroke="#000000" stroke-opacity="1" stroke-width="3.2"/>
<circle clip-path="url(#clip312)" cx="2250" cy="1300" r="14" fill="#009af9" fill-rule="evenodd" fill-opacity="1" stroke="#000000" stroke-opacity="1" stroke-width="3.2"/>
<circle clip-path="url(#clip312)" cx="2250" cy="1300" r="14" fill="#009af9" fill-rule="evenodd" fill-opacity="1" stroke="#000000" stroke-opacity="1" stroke-width="3.2"/>
<circle clip-path="url(#clip312)" cx="2100" cy="1225" r="14" fill="#009af9" fill-rule="evenodd" fill-opacity="1" stroke="#000000" stroke-opacity="1" stroke-width="3.2"/>
<circle clip-path="url(#clip312)" cx="2250" cy="1300" r="14" fill="#009af9" fill-rule="evenodd" fill-opacity="1" stroke="#000000" stroke-opacity="1" stroke-width="3.2"/>
<circle clip-path="url(#clip312)" cx="2100" cy="1225" r="14" fill="#009af9" fill-rule="evenodd" fill-opacity="1" stroke="#000000" stroke-opacity="1" stroke-width="3.2"/>
<circle clip-path="url(#clip312)" cx="2100" cy="1225" r="14" fill="#009af9" fill-rule="evenodd" fill-opacity="1" stroke="#000000" stroke-opacity="1" stroke-width="3.2"/>
<circle clip-path="url(#clip312)" cx="2100" cy="1225" r="14" fill="#009af9" fill-rule="evenodd" fill-opacity="1" stroke="#000000" stroke-opacity="1" stroke-width="3.2"/>
<circle clip-path="url(#clip312)" cx="2100" cy="1225" r="14" fill="#009af9" fill-rule="evenodd" fill-opacity="1" stroke="#000000" stroke-opacity="1" stroke-width="3.2"/>
<circle clip-path="url(#clip312)" cx="2100" cy="1225" r="14" fill="#009af9" fill-rule="evenodd" fill-opacity="1" stroke="#000000" stroke-opacity="1" stroke-width="3.2"/>
<circle clip-path="url(#clip312)" cx="1950" cy="1150" r="14" fill="#009af9" fill-rule="evenodd" fill-opacity="1" stroke="#000000" stroke-opacity="1" stroke-width="3.2"/>
<circle clip-path="url(#clip312)" cx="2100" cy="1225" r="14" fill="#009af9" fill-rule="evenodd" fill-opacity="1" stroke="#000000" stroke-opacity="1" stroke-width="3.2"/>
<circle clip-path="url(#clip312)" cx="1950" cy="1150" r="14" fill="#009af9" fill-rule="evenodd" fill-opacity="1" stroke="#000000" stroke-opacity="1" stroke-width="3.2"/>
<circle clip-path="url(#clip312)" cx="1950" cy="1150" r="14" fill="#009af9" fill-rule="evenodd" fill-opacity="1" stroke="#000000" stroke-opacity="1" stroke-width="3.2"/>
<circle clip-path="url(#clip312)" cx="1950" cy="1150" r="14" fill="#009af9" fill-rule="evenodd" fill-opacity="1" stroke="#000000" stroke-opacity="1" stroke-width="3.2"/>
<circle clip-path="url(#clip312)" cx="1950" cy="1150" r="14" fill="#009af9" fill-rule="evenodd" fill-opacity="1" stroke="#000000" stroke-opacity="1" stroke-width="3.2"/>
<circle clip-path="url(#clip312)" cx="1950" cy="1150" r="14" fill="#009af9" fill-rule="evenodd" fill-opacity="1" stroke="#000000" stroke-opacity="1" stroke-width="3.2"/>
<circle clip-path="url(#clip312)" cx="1950" cy="1150" r="14" fill="#009af9" fill-rule="evenodd" fill-opacity="1" stroke="#000000" stroke-opacity="1" stroke-width="3.2"/>
<circle clip-path="url(#clip312)" cx="1950" cy="1150" r="14" fill="#009af9" fill-rule="evenodd" fill-opacity="1" stroke="#000000" stroke-opacity="1" stroke-width="3.2"/>
<circle clip-path="url(#clip312)" cx="1950" cy="1150" r="14" fill="#009af9" fill-rule="evenodd" fill-opacity="1" stroke="#000000" stroke-opacity="1" stroke-width="3.2"/>
<circle clip-path="url(#clip312)" cx="1875" cy="1075" r="14" fill="#009af9" fill-rule="evenodd" fill-opacity="1" stroke="#000000" stroke-opacity="1" stroke-width="3.2"/>
<circle clip-path="url(#clip312)" cx="1875" cy="1075" r="14" fill="#009af9" fill-rule="evenodd" fill-opacity="1" stroke="#000000" stroke-opacity="1" stroke-width="3.2"/>
<circle clip-path="url(#clip312)" cx="1875" cy="1075" r="14" fill="#009af9" fill-rule="evenodd" fill-opacity="1" stroke="#000000" stroke-opacity="1" stroke-width="3.2"/>
<circle clip-path="url(#clip312)" cx="1725" cy="1000" r="14" fill="#009af9" fill-rule="evenodd" fill-opacity="1" stroke="#000000" stroke-opacity="1" stroke-width="3.2"/>
<circle clip-path="url(#clip312)" cx="1875" cy="1075" r="14" fill="#009af9" fill-rule="evenodd" fill-opacity="1" stroke="#000000" stroke-opacity="1" stroke-width="3.2"/>
<circle clip-path="url(#clip312)" cx="1875" cy="1075" r="14" fill="#009af9" fill-rule="evenodd" fill-opacity="1" stroke="#000000" stroke-opacity="1" stroke-width="3.2"/>
<circle clip-path="url(#clip312)" cx="1725" cy="1000" r="14" fill="#009af9" fill-rule="evenodd" fill-opacity="1" stroke="#000000" stroke-opacity="1" stroke-width="3.2"/>
<circle clip-path="url(#clip312)" cx="1725" cy="1000" r="14" fill="#009af9" fill-rule="evenodd" fill-opacity="1" stroke="#000000" stroke-opacity="1" stroke-width="3.2"/>
<circle clip-path="url(#clip312)" cx="1725" cy="1000" r="14" fill="#009af9" fill-rule="evenodd" fill-opacity="1" stroke="#000000" stroke-opacity="1" stroke-width="3.2"/>
<circle clip-path="url(#clip312)" cx="1725" cy="1000" r="14" fill="#009af9" fill-rule="evenodd" fill-opacity="1" stroke="#000000" stroke-opacity="1" stroke-width="3.2"/>
<circle clip-path="url(#clip312)" cx="1725" cy="1000" r="14" fill="#009af9" fill-rule="evenodd" fill-opacity="1" stroke="#000000" stroke-opacity="1" stroke-width="3.2"/>
<circle clip-path="url(#clip312)" cx="1725" cy="1000" r="14" fill="#009af9" fill-rule="evenodd" fill-opacity="1" stroke="#000000" stroke-opacity="1" stroke-width="3.2"/>
<circle clip-path="url(#clip312)" cx="1725" cy="1000" r="14" fill="#009af9" fill-rule="evenodd" fill-opacity="1" stroke="#000000" stroke-opacity="1" stroke-width="3.2"/>
<circle clip-path="url(#clip312)" cx="1575" cy="925" r="14" fill="#009af9" fill-rule="evenodd" fill-opacity="1" stroke="#000000" stroke-opacity="1" stroke-width="3.2"/>
<circle clip-path="url(#clip312)" cx="1575" cy="925" r="14" fill="#009af9" fill-rule="evenodd" fill-opacity="1" stroke="#000000" stroke-opacity="1" stroke-width="3.2"/>
<circle clip-path="url(#clip312)" cx="1575" cy="925" r="14" fill="#009af9" fill-rule="evenodd" fill-opacity="1" stroke="#000000" stroke-opacity="1" stroke-width="3.2"/>
<circle clip-path="url(#clip312)" cx="1575" cy="925" r="14" fill="#009af9" fill-rule="evenodd" fill-opacity="1" stroke="#000000" stroke-opacity="1" stroke-width="3.2"/>
<circle clip-path="url(#clip312)" cx="1500" cy="775" r="14" fill="#009af9" fill-rule="evenodd" fill-opacity="1" stroke="#000000" stroke-opacity="1" stroke-width="3.2"/>
<circle clip-path="url(#clip312)" cx="1575" cy="925" r="14" fill="#009af9" fill-rule="evenodd" fill-opacity="1" stroke="#000000" stroke-opacity="1" stroke-width="3.2"/>
<circle clip-path="url(#clip312)" cx="1500" cy="775" r="14" fill="#009af9" fill-rule="evenodd" fill-opacity="1" stroke="#000000" stroke-opacity="1" stroke-width="3.2"/>
<circle clip-path="url(#clip312)" cx="1500" cy="775" r="14" fill="#009af9" fill-rule="evenodd" fill-opacity="1" stroke="#000000" stroke-opacity="1" stroke-width="3.2"/>
<circle clip-path="url(#clip312)" cx="1500" cy="775" r="14" fill="#009af9" fill-rule="evenodd" fill-opacity="1" stroke="#000000" stroke-opacity="1" stroke-width="3.2"/>
<circle clip-path="url(#clip312)" cx="1500" cy="775" r="14" fill="#009af9" fill-rule="evenodd" fill-opacity="1" stroke="#000000" stroke-opacity="1" stroke-width="3.2"/>
<circle clip-path="url(#clip312)" cx="1500" cy="775" r="14" fill="#009af9" fill-rule="evenodd" fill-opacity="1" stroke="#000000" stroke-opacity="1" stroke-width="3.2"/>
<circle clip-path="url(#clip312)" cx="1500" cy="775" r="14" fill="#009af9" fill-rule="evenodd" fill-opacity="1" stroke="#000000" stroke-opacity="1" stroke-width="3.2"/>
<circle clip-path="url(#clip312)" cx="1500" cy="775" r="14" fill="#009af9" fill-rule="evenodd" fill-opacity="1" stroke="#000000" stroke-opacity="1" stroke-width="3.2"/>
<circle clip-path="url(#clip312)" cx="1500" cy="775" r="14" fill="#009af9" fill-rule="evenodd" fill-opacity="1" stroke="#000000" stroke-opacity="1" stroke-width="3.2"/>
<circle clip-path="url(#clip312)" cx="1350" cy="700" r="14" fill="#009af9" fill-rule="evenodd" fill-opacity="1" stroke="#000000" stroke-opacity="1" stroke-width="3.2"/>
<circle clip-path="url(#clip312)" cx="1350" cy="700" r="14" fill="#009af9" fill-rule="evenodd" fill-opacity="1" stroke="#000000" stroke-opacity="1" stroke-width="3.2"/>
<circle clip-path="url(#clip312)" cx="1350" cy="700" r="14" fill="#009af9" fill-rule="evenodd" fill-opacity="1" stroke="#000000" stroke-opacity="1" stroke-width="3.2"/>
<circle clip-path="url(#clip312)" cx="1350" cy="700" r="14" fill="#009af9" fill-rule="evenodd" fill-opacity="1" stroke="#000000" stroke-opacity="1" stroke-width="3.2"/>
<circle clip-path="url(#clip312)" cx="1350" cy="700" r="14" fill="#009af9" fill-rule="evenodd" fill-opacity="1" stroke="#000000" stroke-opacity="1" stroke-width="3.2"/>
<circle clip-path="url(#clip312)" cx="1200" cy="625" r="14" fill="#009af9" fill-rule="evenodd" fill-opacity="1" stroke="#000000" stroke-opacity="1" stroke-width="3.2"/>
<circle clip-path="url(#clip312)" cx="1200" cy="625" r="14" fill="#009af9" fill-rule="evenodd" fill-opacity="1" stroke="#000000" stroke-opacity="1" stroke-width="3.2"/>
<circle clip-path="url(#clip312)" cx="1200" cy="625" r="14" fill="#009af9" fill-rule="evenodd" fill-opacity="1" stroke="#000000" stroke-opacity="1" stroke-width="3.2"/>
<circle clip-path="url(#clip312)" cx="1200" cy="625" r="14" fill="#009af9" fill-rule="evenodd" fill-opacity="1" stroke="#000000" stroke-opacity="1" stroke-width="3.2"/>
<circle clip-path="url(#clip312)" cx="1200" cy="625" r="14" fill="#009af9" fill-rule="evenodd" fill-opacity="1" stroke="#000000" stroke-opacity="1" stroke-width="3.2"/>
<circle clip-path="url(#clip312)" cx="1200" cy="625" r="14" fill="#009af9" fill-rule="evenodd" fill-opacity="1" stroke="#000000" stroke-opacity="1" stroke-width="3.2"/>
<circle clip-path="url(#clip312)" cx="1200" cy="625" r="14" fill="#009af9" fill-rule="evenodd" fill-opacity="1" stroke="#000000" stroke-opacity="1" stroke-width="3.2"/>
<circle clip-path="url(#clip312)" cx="1200" cy="625" r="14" fill="#009af9" fill-rule="evenodd" fill-opacity="1" stroke="#000000" stroke-opacity="1" stroke-width="3.2"/>
<circle clip-path="url(#clip312)" cx="1200" cy="625" r="14" fill="#009af9" fill-rule="evenodd" fill-opacity="1" stroke="#000000" stroke-opacity="1" stroke-width="3.2"/>
<circle clip-path="url(#clip312)" cx="1200" cy="625" r="14" fill="#009af9" fill-rule="evenodd" fill-opacity="1" stroke="#000000" stroke-opacity="1" stroke-width="3.2"/>
<circle clip-path="url(#clip312)" cx="1050" cy="550" r="14" fill="#009af9" fill-rule="evenodd" fill-opacity="1" stroke="#000000" stroke-opacity="1" stroke-width="3.2"/>
<circle clip-path="url(#clip312)" cx="1050" cy="550" r="14" fill="#009af9" fill-rule="evenodd" fill-opacity="1" stroke="#000000" stroke-opacity="1" stroke-width="3.2"/>
<circle clip-path="url(#clip312)" cx="1050" cy="550" r="14" fill="#009af9" fill-rule="evenodd" fill-opacity="1" stroke="#000000" stroke-opacity="1" stroke-width="3.2"/>
<circle clip-path="url(#clip312)" cx="1050" cy="550" r="14" fill="#009af9" fill-rule="evenodd" fill-opacity="1" stroke="#000000" stroke-opacity="1" stroke-width="3.2"/>
<circle clip-path="url(#clip312)" cx="975" cy="475" r="14" fill="#009af9" fill-rule="evenodd" fill-opacity="1" stroke="#000000" stroke-opacity="1" stroke-width="3.2"/>
<circle clip-path="url(#clip312)" cx="975" cy="475" r="14" fill="#009af9" fill-rule="evenodd" fill-opacity="1" stroke="#000000" stroke-opacity="1" stroke-width="3.2"/>
<circle clip-path="url(#clip312)" cx="975" cy="475" r="14" fill="#009af9" fill-rule="evenodd" fill-opacity="1" stroke="#000000" stroke-opacity="1" stroke-width="3.2"/>
<circle clip-path="url(#clip312)" cx="975" cy="475" r="14" fill="#009af9" fill-rule="evenodd" fill-opacity="1" stroke="#000000" stroke-opacity="1" stroke-width="3.2"/>
<circle clip-path="url(#clip312)" cx="975" cy="475" r="14" fill="#009af9" fill-rule="evenodd" fill-opacity="1" stroke="#000000" stroke-opacity="1" stroke-width="3.2"/>
<circle clip-path="url(#clip312)" cx="975" cy="475" r="14" fill="#009af9" fill-rule="evenodd" fill-opacity="1" stroke="#000000" stroke-opacity="1" stroke-width="3.2"/>
<circle clip-path="url(#clip312)" cx="975" cy="475" r="14" fill="#009af9" fill-rule="evenodd" fill-opacity="1" stroke="#000000" stroke-opacity="1" stroke-width="3.2"/>
<circle clip-path="url(#clip312)" cx="975" cy="475" r="14" fill="#009af9" fill-rule="evenodd" fill-opacity="1" stroke="#000000" stroke-opacity="1" stroke-width="3.2"/>
<circle clip-path="url(#clip312)" cx="975" cy="475" r="14" fill="#009af9" fill-rule="evenodd" fill-opacity="1" stroke="#000000" stroke-opacity="1" stroke-width="3.2"/>
<circle clip-path="url(#clip312)" cx="975" cy="475" r="14" fill="#009af9" fill-rule="evenodd" fill-opacity="1" stroke="#000000" stroke-opacity="1" stroke-width="3.2"/>
<circle clip-path="url(#clip312)" cx="975" cy="475" r="14" fill="#009af9" fill-rule="evenodd" fill-opacity="1" stroke="#000000" stroke-opacity="1" stroke-width="3.2"/>
<circle clip-path="url(#clip312)" cx="825" cy="400" r="14" fill="#009af9" fill-rule="evenodd" fill-opacity="1" stroke="#000000" stroke-opacity="1" stroke-width="3.2"/>
<circle clip-path="url(#clip312)" cx="825" cy="400" r="14" fill="#009af9" fill-rule="evenodd" fill-opacity="1" stroke="#000000" stroke-opacity="1" stroke-width="3.2"/>
<circle clip-path="url(#clip312)" cx="825" cy="400" r="14" fill="#009af9" fill-rule="evenodd" fill-opacity="1" stroke="#000000" stroke-opacity="1" stroke-width="3.2"/>
<circle clip-path="url(#clip312)" cx="750" cy="325" r="14" fill="#009af9" fill-rule="evenodd" fill-opacity="1" stroke="#000000" stroke-opacity="1" stroke-width="3.2"/>
<circle clip-path="url(#clip312)" cx="750" cy="325" r="14" fill="#009af9" fill-rule="evenodd" fill-opacity="1" stroke="#000000" stroke-opacity="1" stroke-width="3.2"/>
<circle clip-path="url(#clip312)" cx="750" cy="325" r="14" fill="#009af9" fill-rule="evenodd" fill-opacity="1" stroke="#000000" stroke-opacity="1" stroke-width="3.2"/>
<circle clip-path="url(#clip312)" cx="750" cy="325" r="14" fill="#009af9" fill-rule="evenodd" fill-opacity="1" stroke="#000000" stroke-opacity="1" stroke-width="3.2"/>
<circle clip-path="url(#clip312)" cx="750" cy="325" r="14" fill="#009af9" fill-rule="evenodd" fill-opacity="1" stroke="#000000" stroke-opacity="1" stroke-width="3.2"/>
<circle clip-path="url(#clip312)" cx="750" cy="325" r="14" fill="#009af9" fill-rule="evenodd" fill-opacity="1" stroke="#000000" stroke-opacity="1" stroke-width="3.2"/>
<circle clip-path="url(#clip312)" cx="750" cy="325" r="14" fill="#009af9" fill-rule="evenodd" fill-opacity="1" stroke="#000000" stroke-opacity="1" stroke-width="3.2"/>
<circle clip-path="url(#clip312)" cx="750" cy="325" r="14" fill="#009af9" fill-rule="evenodd" fill-opacity="1" stroke="#000000" stroke-opacity="1" stroke-width="3.2"/>
<circle clip-path="url(#clip312)" cx="750" cy="325" r="14" fill="#009af9" fill-rule="evenodd" fill-opacity="1" stroke="#000000" stroke-opacity="1" stroke-width="3.2"/>
<circle clip-path="url(#clip312)" cx="750" cy="325" r="14" fill="#009af9" fill-rule="evenodd" fill-opacity="1" stroke="#000000" stroke-opacity="1" stroke-width="3.2"/>
<circle clip-path="url(#clip312)" cx="750" cy="325" r="14" fill="#009af9" fill-rule="evenodd" fill-opacity="1" stroke="#000000" stroke-opacity="1" stroke-width="3.2"/>
<circle clip-path="url(#clip312)" cx="675" cy="250" r="14" fill="#009af9" fill-rule="evenodd" fill-opacity="1" stroke="#000000" stroke-opacity="1" stroke-width="3.2"/>
<circle clip-path="url(#clip312)" cx="675" cy="250" r="14" fill="#009af9" fill-rule="evenodd" fill-opacity="1" stroke="#000000" stroke-opacity="1" stroke-width="3.2"/>
<circle clip-path="url(#clip312)" cx="675" cy="250" r="14" fill="#009af9" fill-rule="evenodd" fill-opacity="1" stroke="#000000" stroke-opacity="1" stroke-width="3.2"/>
<circle clip-path="url(#clip312)" cx="525" cy="175" r="14" fill="#009af9" fill-rule="evenodd" fill-opacity="1" stroke="#000000" stroke-opacity="1" stroke-width="3.2"/>
<circle clip-path="url(#clip312)" cx="525" cy="175" r="14" fill="#009af9" fill-rule="evenodd" fill-opacity="1" stroke="#000000" stroke-opacity="1" stroke-width="3.2"/>
<circle clip-path="url(#clip312)" cx="525" cy="175" r="14" fill="#009af9" fill-rule="evenodd" fill-opacity="1" stroke="#000000" stroke-opacity="1" stroke-width="3.2"/>
<circle clip-path="url(#clip312)" cx="525" cy="175" r="14" fill="#009af9" fill-rule="evenodd" fill-opacity="1" stroke="#000000" stroke-opacity="1" stroke-width="3.2"/>
<circle clip-path="url(#clip312)" cx="525" cy="175" r="14" fill="#009af9" fill-rule="evenodd" fill-opacity="1" stroke="#000000" stroke-opacity="1" stroke-width="3.2"/>
<circle clip-path="url(#clip312)" cx="525" cy="175" r="14" fill="#009af9" fill-rule="evenodd" fill-opacity="1" stroke="#000000" stroke-opacity="1" stroke-width="3.2"/>
</svg>
