<?xml version="1.0" encoding="utf-8"?>
<svg xmlns="http://www.w3.org/2000/svg" xmlns:xlink="http://www.w3.org/1999/xlink" width="600" height="400" viewBox="0 0 2400 1600">
<defs>
  <clipPath id="clip960">
    <rect x="0" y="0" width="2400" height="1600"/>
  </clipPath>
</defs>
<path clip-path="url(#clip960)" d="
M0 1600 L2400 1600 L2400 0 L0 0  Z
  " fill="#ffffff" fill-rule="evenodd" fill-opacity="1"/>
<defs>
  <clipPath id="clip961">
    <rect x="480" y="0" width="1681" height="1600"/>
  </clipPath>
</defs>
<path clip-path="url(#clip960)" d="
M193.936 1486.45 L2352.76 1486.45 L2352.76 47.2441 L193.936 47.2441  Z
  " fill="#ffffff" fill-rule="evenodd" fill-opacity="1"/>
<defs>
  <clipPath id="clip962">
    <rect x="193" y="47" width="2160" height="1440"/>
  </clipPath>
</defs>
<polyline clip-path="url(#clip962)" style="stroke:#000000; stroke-linecap:butt; stroke-linejoin:round; stroke-width:2; stroke-opacity:0.1; fill:none" points="
  458.697,1486.45 458.697,47.2441 
  "/>
<polyline clip-path="url(#clip962)" style="stroke:#000000; stroke-linecap:butt; stroke-linejoin:round; stroke-width:2; stroke-opacity:0.1; fill:none" points="
  866.021,1486.45 866.021,47.2441 
  "/>
<polyline clip-path="url(#clip962)" style="stroke:#000000; stroke-linecap:butt; stroke-linejoin:round; stroke-width:2; stroke-opacity:0.1; fill:none" points="
  1273.35,1486.45 1273.35,47.2441 
  "/>
<polyline clip-path="url(#clip962)" style="stroke:#000000; stroke-linecap:butt; stroke-linejoin:round; stroke-width:2; stroke-opacity:0.1; fill:none" points="
  1680.67,1486.45 1680.67,47.2441 
  "/>
<polyline clip-path="url(#clip962)" style="stroke:#000000; stroke-linecap:butt; stroke-linejoin:round; stroke-width:2; stroke-opacity:0.1; fill:none" points="
  2087.99,1486.45 2087.99,47.2441 
  "/>
<polyline clip-path="url(#clip960)" style="stroke:#000000; stroke-linecap:butt; stroke-linejoin:round; stroke-width:4; stroke-opacity:1; fill:none" points="
  193.936,1486.45 2352.76,1486.45 
  "/>
<polyline clip-path="url(#clip960)" style="stroke:#000000; stroke-linecap:butt; stroke-linejoin:round; stroke-width:4; stroke-opacity:1; fill:none" points="
  458.697,1486.45 458.697,1467.55 
  "/>
<polyline clip-path="url(#clip960)" style="stroke:#000000; stroke-linecap:butt; stroke-linejoin:round; stroke-width:4; stroke-opacity:1; fill:none" points="
  866.021,1486.45 866.021,1467.55 
  "/>
<polyline clip-path="url(#clip960)" style="stroke:#000000; stroke-linecap:butt; stroke-linejoin:round; stroke-width:4; stroke-opacity:1; fill:none" points="
  1273.35,1486.45 1273.35,1467.55 
  "/>
<polyline clip-path="url(#clip960)" style="stroke:#000000; stroke-linecap:butt; stroke-linejoin:round; stroke-width:4; stroke-opacity:1; fill:none" points="
  1680.67,1486.45 1680.67,1467.55 
  "/>
<polyline clip-path="url(#clip960)" style="stroke:#000000; stroke-linecap:butt; stroke-linejoin:round; stroke-width:4; stroke-opacity:1; fill:none" points="
  2087.99,1486.45 2087.99,1467.55 
  "/>
<path clip-path="url(#clip960)" d="M428.639 1532.02 L458.315 1532.02 L458.315 1535.95 L428.639 1535.95 L428.639 1532.02 Z" fill="#000000" fill-rule="evenodd" fill-opacity="1" /><path clip-path="url(#clip960)" d="M472.435 1544.91 L488.755 1544.91 L488.755 1548.85 L466.81 1548.85 L466.81 1544.91 Q469.472 1542.16 474.056 1537.53 Q478.662 1532.88 479.843 1531.53 Q482.088 1529.01 482.968 1527.27 Q483.87 1525.51 483.87 1523.82 Q483.87 1521.07 481.926 1519.33 Q480.005 1517.6 476.903 1517.6 Q474.704 1517.6 472.25 1518.36 Q469.82 1519.13 467.042 1520.68 L467.042 1515.95 Q469.866 1514.82 472.32 1514.24 Q474.773 1513.66 476.81 1513.66 Q482.181 1513.66 485.375 1516.35 Q488.569 1519.03 488.569 1523.52 Q488.569 1525.65 487.759 1527.57 Q486.972 1529.47 484.866 1532.07 Q484.287 1532.74 481.185 1535.95 Q478.083 1539.15 472.435 1544.91 Z" fill="#000000" fill-rule="evenodd" fill-opacity="1" /><path clip-path="url(#clip960)" d="M835.779 1532.02 L865.454 1532.02 L865.454 1535.95 L835.779 1535.95 L835.779 1532.02 Z" fill="#000000" fill-rule="evenodd" fill-opacity="1" /><path clip-path="url(#clip960)" d="M876.357 1544.91 L883.996 1544.91 L883.996 1518.55 L875.686 1520.21 L875.686 1515.95 L883.95 1514.29 L888.625 1514.29 L888.625 1544.91 L896.264 1544.91 L896.264 1548.85 L876.357 1548.85 L876.357 1544.91 Z" fill="#000000" fill-rule="evenodd" fill-opacity="1" /><path clip-path="url(#clip960)" d="M1273.35 1517.37 Q1269.73 1517.37 1267.91 1520.93 Q1266.1 1524.47 1266.1 1531.6 Q1266.1 1538.71 1267.91 1542.27 Q1269.73 1545.82 1273.35 1545.82 Q1276.98 1545.82 1278.79 1542.27 Q1280.61 1538.71 1280.61 1531.6 Q1280.61 1524.47 1278.79 1520.93 Q1276.98 1517.37 1273.35 1517.37 M1273.35 1513.66 Q1279.16 1513.66 1282.21 1518.27 Q1285.29 1522.85 1285.29 1531.6 Q1285.29 1540.33 1282.21 1544.94 Q1279.16 1549.52 1273.35 1549.52 Q1267.54 1549.52 1264.46 1544.94 Q1261.4 1540.33 1261.4 1531.6 Q1261.4 1522.85 1264.46 1518.27 Q1267.54 1513.66 1273.35 1513.66 Z" fill="#000000" fill-rule="evenodd" fill-opacity="1" /><path clip-path="url(#clip960)" d="M1671.05 1544.91 L1678.69 1544.91 L1678.69 1518.55 L1670.38 1520.21 L1670.38 1515.95 L1678.65 1514.29 L1683.32 1514.29 L1683.32 1544.91 L1690.96 1544.91 L1690.96 1548.85 L1671.05 1548.85 L1671.05 1544.91 Z" fill="#000000" fill-rule="evenodd" fill-opacity="1" /><path clip-path="url(#clip960)" d="M2082.65 1544.91 L2098.97 1544.91 L2098.97 1548.85 L2077.02 1548.85 L2077.02 1544.91 Q2079.68 1542.16 2084.27 1537.53 Q2088.87 1532.88 2090.06 1531.53 Q2092.3 1529.01 2093.18 1527.27 Q2094.08 1525.51 2094.08 1523.82 Q2094.08 1521.07 2092.14 1519.33 Q2090.22 1517.6 2087.12 1517.6 Q2084.92 1517.6 2082.46 1518.36 Q2080.03 1519.13 2077.25 1520.68 L2077.25 1515.95 Q2080.08 1514.82 2082.53 1514.24 Q2084.99 1513.66 2087.02 1513.66 Q2092.39 1513.66 2095.59 1516.35 Q2098.78 1519.03 2098.78 1523.52 Q2098.78 1525.65 2097.97 1527.57 Q2097.18 1529.47 2095.08 1532.07 Q2094.5 1532.74 2091.4 1535.95 Q2088.3 1539.15 2082.65 1544.91 Z" fill="#000000" fill-rule="evenodd" fill-opacity="1" /><polyline clip-path="url(#clip962)" style="stroke:#000000; stroke-linecap:butt; stroke-linejoin:round; stroke-width:2; stroke-opacity:0.1; fill:none" points="
  193.936,1294.44 2352.76,1294.44 
  "/>
<polyline clip-path="url(#clip962)" style="stroke:#000000; stroke-linecap:butt; stroke-linejoin:round; stroke-width:2; stroke-opacity:0.1; fill:none" points="
  193.936,994.273 2352.76,994.273 
  "/>
<polyline clip-path="url(#clip962)" style="stroke:#000000; stroke-linecap:butt; stroke-linejoin:round; stroke-width:2; stroke-opacity:0.1; fill:none" points="
  193.936,694.105 2352.76,694.105 
  "/>
<polyline clip-path="url(#clip962)" style="stroke:#000000; stroke-linecap:butt; stroke-linejoin:round; stroke-width:2; stroke-opacity:0.1; fill:none" points="
  193.936,393.938 2352.76,393.938 
  "/>
<polyline clip-path="url(#clip962)" style="stroke:#000000; stroke-linecap:butt; stroke-linejoin:round; stroke-width:2; stroke-opacity:0.1; fill:none" points="
  193.936,93.7706 2352.76,93.7706 
  "/>
<polyline clip-path="url(#clip960)" style="stroke:#000000; stroke-linecap:butt; stroke-linejoin:round; stroke-width:4; stroke-opacity:1; fill:none" points="
  193.936,1486.45 193.936,47.2441 
  "/>
<polyline clip-path="url(#clip960)" style="stroke:#000000; stroke-linecap:butt; stroke-linejoin:round; stroke-width:4; stroke-opacity:1; fill:none" points="
  193.936,1294.44 212.834,1294.44 
  "/>
<polyline clip-path="url(#clip960)" style="stroke:#000000; stroke-linecap:butt; stroke-linejoin:round; stroke-width:4; stroke-opacity:1; fill:none" points="
  193.936,994.273 212.834,994.273 
  "/>
<polyline clip-path="url(#clip960)" style="stroke:#000000; stroke-linecap:butt; stroke-linejoin:round; stroke-width:4; stroke-opacity:1; fill:none" points="
  193.936,694.105 212.834,694.105 
  "/>
<polyline clip-path="url(#clip960)" style="stroke:#000000; stroke-linecap:butt; stroke-linejoin:round; stroke-width:4; stroke-opacity:1; fill:none" points="
  193.936,393.938 212.834,393.938 
  "/>
<polyline clip-path="url(#clip960)" style="stroke:#000000; stroke-linecap:butt; stroke-linejoin:round; stroke-width:4; stroke-opacity:1; fill:none" points="
  193.936,93.7706 212.834,93.7706 
  "/>
<path clip-path="url(#clip960)" d="M51.9875 1294.89 L81.6633 1294.89 L81.6633 1298.83 L51.9875 1298.83 L51.9875 1294.89 Z" fill="#000000" fill-rule="evenodd" fill-opacity="1" /><path clip-path="url(#clip960)" d="M90.5752 1277.16 L112.797 1277.16 L112.797 1279.15 L100.251 1311.72 L95.3669 1311.72 L107.172 1281.1 L90.5752 1281.1 L90.5752 1277.16 Z" fill="#000000" fill-rule="evenodd" fill-opacity="1" /><path clip-path="url(#clip960)" d="M121.918 1305.84 L126.802 1305.84 L126.802 1311.72 L121.918 1311.72 L121.918 1305.84 Z" fill="#000000" fill-rule="evenodd" fill-opacity="1" /><path clip-path="url(#clip960)" d="M137.033 1277.16 L155.39 1277.16 L155.39 1281.1 L141.316 1281.1 L141.316 1289.57 Q142.334 1289.22 143.353 1289.06 Q144.371 1288.87 145.39 1288.87 Q151.177 1288.87 154.556 1292.04 Q157.936 1295.22 157.936 1300.63 Q157.936 1306.21 154.464 1309.31 Q150.992 1312.39 144.672 1312.39 Q142.496 1312.39 140.228 1312.02 Q137.982 1311.65 135.575 1310.91 L135.575 1306.21 Q137.658 1307.35 139.881 1307.9 Q142.103 1308.46 144.58 1308.46 Q148.584 1308.46 150.922 1306.35 Q153.26 1304.24 153.26 1300.63 Q153.26 1297.02 150.922 1294.91 Q148.584 1292.81 144.58 1292.81 Q142.705 1292.81 140.83 1293.22 Q138.978 1293.64 137.033 1294.52 L137.033 1277.16 Z" fill="#000000" fill-rule="evenodd" fill-opacity="1" /><path clip-path="url(#clip960)" d="M50.9921 994.724 L80.6679 994.724 L80.6679 998.659 L50.9921 998.659 L50.9921 994.724 Z" fill="#000000" fill-rule="evenodd" fill-opacity="1" /><path clip-path="url(#clip960)" d="M90.8067 976.993 L109.163 976.993 L109.163 980.928 L95.0891 980.928 L95.0891 989.4 Q96.1076 989.053 97.1261 988.891 Q98.1447 988.706 99.1632 988.706 Q104.95 988.706 108.33 991.877 Q111.709 995.048 111.709 1000.46 Q111.709 1006.04 108.237 1009.15 Q104.765 1012.22 98.4456 1012.22 Q96.2697 1012.22 94.0012 1011.85 Q91.7558 1011.48 89.3484 1010.74 L89.3484 1006.04 Q91.4317 1007.18 93.6539 1007.73 Q95.8761 1008.29 98.353 1008.29 Q102.358 1008.29 104.696 1006.18 Q107.033 1004.08 107.033 1000.46 Q107.033 996.854 104.696 994.747 Q102.358 992.641 98.353 992.641 Q96.478 992.641 94.603 993.057 Q92.7512 993.474 90.8067 994.354 L90.8067 976.993 Z" fill="#000000" fill-rule="evenodd" fill-opacity="1" /><path clip-path="url(#clip960)" d="M120.922 1005.67 L125.807 1005.67 L125.807 1011.55 L120.922 1011.55 L120.922 1005.67 Z" fill="#000000" fill-rule="evenodd" fill-opacity="1" /><path clip-path="url(#clip960)" d="M145.992 980.071 Q142.381 980.071 140.552 983.636 Q138.746 987.178 138.746 994.307 Q138.746 1001.41 140.552 1004.98 Q142.381 1008.52 145.992 1008.52 Q149.626 1008.52 151.431 1004.98 Q153.26 1001.41 153.26 994.307 Q153.26 987.178 151.431 983.636 Q149.626 980.071 145.992 980.071 M145.992 976.368 Q151.802 976.368 154.857 980.974 Q157.936 985.557 157.936 994.307 Q157.936 1003.03 154.857 1007.64 Q151.802 1012.22 145.992 1012.22 Q140.181 1012.22 137.103 1007.64 Q134.047 1003.03 134.047 994.307 Q134.047 985.557 137.103 980.974 Q140.181 976.368 145.992 976.368 Z" fill="#000000" fill-rule="evenodd" fill-opacity="1" /><path clip-path="url(#clip960)" d="M51.9875 694.557 L81.6633 694.557 L81.6633 698.492 L51.9875 698.492 L51.9875 694.557 Z" fill="#000000" fill-rule="evenodd" fill-opacity="1" /><path clip-path="url(#clip960)" d="M95.7836 707.45 L112.103 707.45 L112.103 711.385 L90.1586 711.385 L90.1586 707.45 Q92.8206 704.696 97.4039 700.066 Q102.01 695.413 103.191 694.071 Q105.436 691.547 106.316 689.811 Q107.219 688.052 107.219 686.362 Q107.219 683.608 105.274 681.872 Q103.353 680.136 100.251 680.136 Q98.0521 680.136 95.5984 680.899 Q93.1678 681.663 90.3901 683.214 L90.3901 678.492 Q93.2141 677.358 95.6678 676.779 Q98.1215 676.2 100.159 676.2 Q105.529 676.2 108.723 678.886 Q111.918 681.571 111.918 686.061 Q111.918 688.191 111.108 690.112 Q110.321 692.01 108.214 694.603 Q107.635 695.274 104.534 698.492 Q101.432 701.686 95.7836 707.45 Z" fill="#000000" fill-rule="evenodd" fill-opacity="1" /><path clip-path="url(#clip960)" d="M121.918 705.506 L126.802 705.506 L126.802 711.385 L121.918 711.385 L121.918 705.506 Z" fill="#000000" fill-rule="evenodd" fill-opacity="1" /><path clip-path="url(#clip960)" d="M137.033 676.825 L155.39 676.825 L155.39 680.761 L141.316 680.761 L141.316 689.233 Q142.334 688.885 143.353 688.723 Q144.371 688.538 145.39 688.538 Q151.177 688.538 154.556 691.71 Q157.936 694.881 157.936 700.297 Q157.936 705.876 154.464 708.978 Q150.992 712.057 144.672 712.057 Q142.496 712.057 140.228 711.686 Q137.982 711.316 135.575 710.575 L135.575 705.876 Q137.658 707.01 139.881 707.566 Q142.103 708.121 144.58 708.121 Q148.584 708.121 150.922 706.015 Q153.26 703.909 153.26 700.297 Q153.26 696.686 150.922 694.58 Q148.584 692.473 144.58 692.473 Q142.705 692.473 140.83 692.89 Q138.978 693.307 137.033 694.186 L137.033 676.825 Z" fill="#000000" fill-rule="evenodd" fill-opacity="1" /><path clip-path="url(#clip960)" d="M100.76 379.737 Q97.1493 379.737 95.3206 383.301 Q93.515 386.843 93.515 393.973 Q93.515 401.079 95.3206 404.644 Q97.1493 408.186 100.76 408.186 Q104.395 408.186 106.2 404.644 Q108.029 401.079 108.029 393.973 Q108.029 386.843 106.2 383.301 Q104.395 379.737 100.76 379.737 M100.76 376.033 Q106.571 376.033 109.626 380.639 Q112.705 385.223 112.705 393.973 Q112.705 402.7 109.626 407.306 Q106.571 411.889 100.76 411.889 Q94.9502 411.889 91.8715 407.306 Q88.816 402.7 88.816 393.973 Q88.816 385.223 91.8715 380.639 Q94.9502 376.033 100.76 376.033 Z" fill="#000000" fill-rule="evenodd" fill-opacity="1" /><path clip-path="url(#clip960)" d="M120.922 405.338 L125.807 405.338 L125.807 411.218 L120.922 411.218 L120.922 405.338 Z" fill="#000000" fill-rule="evenodd" fill-opacity="1" /><path clip-path="url(#clip960)" d="M145.992 379.737 Q142.381 379.737 140.552 383.301 Q138.746 386.843 138.746 393.973 Q138.746 401.079 140.552 404.644 Q142.381 408.186 145.992 408.186 Q149.626 408.186 151.431 404.644 Q153.26 401.079 153.26 393.973 Q153.26 386.843 151.431 383.301 Q149.626 379.737 145.992 379.737 M145.992 376.033 Q151.802 376.033 154.857 380.639 Q157.936 385.223 157.936 393.973 Q157.936 402.7 154.857 407.306 Q151.802 411.889 145.992 411.889 Q140.181 411.889 137.103 407.306 Q134.047 402.7 134.047 393.973 Q134.047 385.223 137.103 380.639 Q140.181 376.033 145.992 376.033 Z" fill="#000000" fill-rule="evenodd" fill-opacity="1" /><path clip-path="url(#clip960)" d="M95.7836 107.115 L112.103 107.115 L112.103 111.051 L90.1586 111.051 L90.1586 107.115 Q92.8206 104.361 97.4039 99.7312 Q102.01 95.0785 103.191 93.7359 Q105.436 91.2128 106.316 89.4767 Q107.219 87.7174 107.219 86.0276 Q107.219 83.273 105.274 81.5369 Q103.353 79.8008 100.251 79.8008 Q98.0521 79.8008 95.5984 80.5647 Q93.1678 81.3286 90.3901 82.8795 L90.3901 78.1573 Q93.2141 77.023 95.6678 76.4443 Q98.1215 75.8656 100.159 75.8656 Q105.529 75.8656 108.723 78.5508 Q111.918 81.236 111.918 85.7267 Q111.918 87.8563 111.108 89.7776 Q110.321 91.6757 108.214 94.2683 Q107.635 94.9396 104.534 98.1572 Q101.432 101.352 95.7836 107.115 Z" fill="#000000" fill-rule="evenodd" fill-opacity="1" /><path clip-path="url(#clip960)" d="M121.918 105.171 L126.802 105.171 L126.802 111.051 L121.918 111.051 L121.918 105.171 Z" fill="#000000" fill-rule="evenodd" fill-opacity="1" /><path clip-path="url(#clip960)" d="M137.033 76.4906 L155.39 76.4906 L155.39 80.4258 L141.316 80.4258 L141.316 88.898 Q142.334 88.5508 143.353 88.3887 Q144.371 88.2035 145.39 88.2035 Q151.177 88.2035 154.556 91.3748 Q157.936 94.5461 157.936 99.9627 Q157.936 105.541 154.464 108.643 Q150.992 111.722 144.672 111.722 Q142.496 111.722 140.228 111.352 Q137.982 110.981 135.575 110.24 L135.575 105.541 Q137.658 106.676 139.881 107.231 Q142.103 107.787 144.58 107.787 Q148.584 107.787 150.922 105.68 Q153.26 103.574 153.26 99.9627 Q153.26 96.3516 150.922 94.2452 Q148.584 92.1387 144.58 92.1387 Q142.705 92.1387 140.83 92.5554 Q138.978 92.972 137.033 93.8516 L137.033 76.4906 Z" fill="#000000" fill-rule="evenodd" fill-opacity="1" /><polyline clip-path="url(#clip962)" style="stroke:#009af9; stroke-linecap:butt; stroke-linejoin:round; stroke-width:12; stroke-opacity:1; fill:none" points="
  255.035,281.767 274.924,281.85 458.829,280.631 569.348,277.216 662.791,271.946 764.296,263.013 857.875,251.212 958.201,234.251 1074.44,208.803 1177.74,181.527 
  1268.32,155.285 1367.08,126.72 1466.43,102.257 1521.35,92.8119 1576.27,87.9763 1628.52,89.1394 1680.78,97.5557 1735.11,115.942 1789.45,146.371 1835.18,183.114 
  1880.92,231.668 1908.84,267.798 1936.76,309.298 1964.68,356.539 1992.6,409.889 2018.85,465.933 2045.09,527.984 2071.34,596.32 2097.58,671.199 2139.63,805.381 
  2181.68,957.774 2223.73,1128.95 2265.77,1319.18 2272.24,1350.14 2278.72,1381.56 2285.19,1413.41 2291.66,1445.72 
  "/>
<polyline clip-path="url(#clip962)" style="stroke:#e26f46; stroke-linecap:butt; stroke-linejoin:round; stroke-width:12; stroke-opacity:1; fill:none" points="
  255.035,393.938 274.924,393.938 458.829,393.938 569.348,393.938 662.791,393.938 764.296,393.938 857.875,393.938 958.201,393.938 1074.44,393.938 1177.74,393.938 
  1268.32,393.938 1367.08,393.938 1466.43,393.938 1576.27,393.938 1680.78,393.938 1789.45,393.938 1880.92,393.938 1992.6,393.938 2097.58,393.938 2265.77,393.938 
  2291.66,393.938 
  "/>
<path clip-path="url(#clip960)" d="
M1988.5 250.738 L2280.8 250.738 L2280.8 95.2176 L1988.5 95.2176  Z
  " fill="#ffffff" fill-rule="evenodd" fill-opacity="1"/>
<polyline clip-path="url(#clip960)" style="stroke:#000000; stroke-linecap:butt; stroke-linejoin:round; stroke-width:4; stroke-opacity:1; fill:none" points="
  1988.5,250.738 2280.8,250.738 2280.8,95.2176 1988.5,95.2176 1988.5,250.738 
  "/>
<polyline clip-path="url(#clip960)" style="stroke:#009af9; stroke-linecap:butt; stroke-linejoin:round; stroke-width:4; stroke-opacity:1; fill:none" points="
  2012.48,147.058 2156.4,147.058 
  "/>
<path clip-path="url(#clip960)" d="M2194.23 166.745 Q2192.43 171.375 2190.72 172.787 Q2189 174.199 2186.13 174.199 L2182.73 174.199 L2182.73 170.634 L2185.23 170.634 Q2186.99 170.634 2187.96 169.8 Q2188.93 168.967 2190.11 165.865 L2190.88 163.921 L2180.39 138.412 L2184.91 138.412 L2193.01 158.689 L2201.11 138.412 L2205.62 138.412 L2194.23 166.745 Z" fill="#000000" fill-rule="evenodd" fill-opacity="1" /><path clip-path="url(#clip960)" d="M2212.91 160.402 L2220.55 160.402 L2220.55 134.037 L2212.24 135.703 L2212.24 131.444 L2220.51 129.778 L2225.18 129.778 L2225.18 160.402 L2232.82 160.402 L2232.82 164.338 L2212.91 164.338 L2212.91 160.402 Z" fill="#000000" fill-rule="evenodd" fill-opacity="1" /><polyline clip-path="url(#clip960)" style="stroke:#e26f46; stroke-linecap:butt; stroke-linejoin:round; stroke-width:4; stroke-opacity:1; fill:none" points="
  2012.48,198.898 2156.4,198.898 
  "/>
<path clip-path="url(#clip960)" d="M2194.23 218.585 Q2192.43 223.215 2190.72 224.627 Q2189 226.039 2186.13 226.039 L2182.73 226.039 L2182.73 222.474 L2185.23 222.474 Q2186.99 222.474 2187.96 221.64 Q2188.93 220.807 2190.11 217.705 L2190.88 215.761 L2180.39 190.252 L2184.91 190.252 L2193.01 210.529 L2201.11 190.252 L2205.62 190.252 L2194.23 218.585 Z" fill="#000000" fill-rule="evenodd" fill-opacity="1" /><path clip-path="url(#clip960)" d="M2216.13 212.242 L2232.45 212.242 L2232.45 216.178 L2210.51 216.178 L2210.51 212.242 Q2213.17 209.488 2217.75 204.858 Q2222.36 200.205 2223.54 198.863 Q2225.78 196.34 2226.66 194.604 Q2227.57 192.844 2227.57 191.155 Q2227.57 188.4 2225.62 186.664 Q2223.7 184.928 2220.6 184.928 Q2218.4 184.928 2215.95 185.692 Q2213.52 186.455 2210.74 188.006 L2210.74 183.284 Q2213.56 182.15 2216.02 181.571 Q2218.47 180.993 2220.51 180.993 Q2225.88 180.993 2229.07 183.678 Q2232.27 186.363 2232.27 190.854 Q2232.27 192.983 2231.46 194.905 Q2230.67 196.803 2228.56 199.395 Q2227.98 200.067 2224.88 203.284 Q2221.78 206.479 2216.13 212.242 Z" fill="#000000" fill-rule="evenodd" fill-opacity="1" /></svg>
