<?xml version="1.0" encoding="utf-8"?>
<svg xmlns="http://www.w3.org/2000/svg" xmlns:xlink="http://www.w3.org/1999/xlink" width="600" height="400" viewBox="0 0 2400 1600">
<defs>
  <clipPath id="clip880">
    <rect x="0" y="0" width="2400" height="1600"/>
  </clipPath>
</defs>
<path clip-path="url(#clip880)" d="
M0 1600 L2400 1600 L2400 0 L0 0  Z
  " fill="#ffffff" fill-rule="evenodd" fill-opacity="1"/>
<defs>
  <clipPath id="clip881">
    <rect x="480" y="0" width="1681" height="1600"/>
  </clipPath>
</defs>
<defs>
  <clipPath id="clip882">
    <rect x="193" y="47" width="2160" height="1440"/>
  </clipPath>
</defs>
<path clip-path="url(#clip880)" d="
M156.598 1486.45 L2352.76 1486.45 L2352.76 47.2441 L156.598 47.2441  Z
  " fill="#ffffff" fill-rule="evenodd" fill-opacity="1"/>
<defs>
  <clipPath id="clip883">
    <rect x="156" y="47" width="2197" height="1440"/>
  </clipPath>
</defs>
<polyline clip-path="url(#clip883)" style="stroke:#000000; stroke-linecap:butt; stroke-linejoin:round; stroke-width:2; stroke-opacity:0.1; fill:none" points="
  218.754,1486.45 218.754,47.2441 
  "/>
<polyline clip-path="url(#clip883)" style="stroke:#000000; stroke-linecap:butt; stroke-linejoin:round; stroke-width:2; stroke-opacity:0.1; fill:none" points="
  736.715,1486.45 736.715,47.2441 
  "/>
<polyline clip-path="url(#clip883)" style="stroke:#000000; stroke-linecap:butt; stroke-linejoin:round; stroke-width:2; stroke-opacity:0.1; fill:none" points="
  1254.68,1486.45 1254.68,47.2441 
  "/>
<polyline clip-path="url(#clip883)" style="stroke:#000000; stroke-linecap:butt; stroke-linejoin:round; stroke-width:2; stroke-opacity:0.1; fill:none" points="
  1772.64,1486.45 1772.64,47.2441 
  "/>
<polyline clip-path="url(#clip883)" style="stroke:#000000; stroke-linecap:butt; stroke-linejoin:round; stroke-width:2; stroke-opacity:0.1; fill:none" points="
  2290.6,1486.45 2290.6,47.2441 
  "/>
<polyline clip-path="url(#clip880)" style="stroke:#000000; stroke-linecap:butt; stroke-linejoin:round; stroke-width:4; stroke-opacity:1; fill:none" points="
  156.598,1486.45 2352.76,1486.45 
  "/>
<polyline clip-path="url(#clip880)" style="stroke:#000000; stroke-linecap:butt; stroke-linejoin:round; stroke-width:4; stroke-opacity:1; fill:none" points="
  218.754,1486.45 218.754,1467.55 
  "/>
<polyline clip-path="url(#clip880)" style="stroke:#000000; stroke-linecap:butt; stroke-linejoin:round; stroke-width:4; stroke-opacity:1; fill:none" points="
  736.715,1486.45 736.715,1467.55 
  "/>
<polyline clip-path="url(#clip880)" style="stroke:#000000; stroke-linecap:butt; stroke-linejoin:round; stroke-width:4; stroke-opacity:1; fill:none" points="
  1254.68,1486.45 1254.68,1467.55 
  "/>
<polyline clip-path="url(#clip880)" style="stroke:#000000; stroke-linecap:butt; stroke-linejoin:round; stroke-width:4; stroke-opacity:1; fill:none" points="
  1772.64,1486.45 1772.64,1467.55 
  "/>
<polyline clip-path="url(#clip880)" style="stroke:#000000; stroke-linecap:butt; stroke-linejoin:round; stroke-width:4; stroke-opacity:1; fill:none" points="
  2290.6,1486.45 2290.6,1467.55 
  "/>
<path clip-path="url(#clip880)" d="M165.282 1532.02 L194.957 1532.02 L194.957 1535.95 L165.282 1535.95 L165.282 1532.02 Z" fill="#000000" fill-rule="evenodd" fill-opacity="1" /><path clip-path="url(#clip880)" d="M205.86 1544.91 L213.499 1544.91 L213.499 1518.55 L205.189 1520.21 L205.189 1515.95 L213.453 1514.29 L218.129 1514.29 L218.129 1544.91 L225.767 1544.91 L225.767 1548.85 L205.86 1548.85 L205.86 1544.91 Z" fill="#000000" fill-rule="evenodd" fill-opacity="1" /><path clip-path="url(#clip880)" d="M235.212 1542.97 L240.096 1542.97 L240.096 1548.85 L235.212 1548.85 L235.212 1542.97 Z" fill="#000000" fill-rule="evenodd" fill-opacity="1" /><path clip-path="url(#clip880)" d="M260.281 1517.37 Q256.67 1517.37 254.841 1520.93 Q253.036 1524.47 253.036 1531.6 Q253.036 1538.71 254.841 1542.27 Q256.67 1545.82 260.281 1545.82 Q263.915 1545.82 265.721 1542.27 Q267.55 1538.71 267.55 1531.6 Q267.55 1524.47 265.721 1520.93 Q263.915 1517.37 260.281 1517.37 M260.281 1513.66 Q266.091 1513.66 269.147 1518.27 Q272.226 1522.85 272.226 1531.6 Q272.226 1540.33 269.147 1544.94 Q266.091 1549.52 260.281 1549.52 Q254.471 1549.52 251.392 1544.94 Q248.337 1540.33 248.337 1531.6 Q248.337 1522.85 251.392 1518.27 Q254.471 1513.66 260.281 1513.66 Z" fill="#000000" fill-rule="evenodd" fill-opacity="1" /><path clip-path="url(#clip880)" d="M683.741 1532.02 L713.417 1532.02 L713.417 1535.95 L683.741 1535.95 L683.741 1532.02 Z" fill="#000000" fill-rule="evenodd" fill-opacity="1" /><path clip-path="url(#clip880)" d="M733.509 1517.37 Q729.898 1517.37 728.07 1520.93 Q726.264 1524.47 726.264 1531.6 Q726.264 1538.71 728.07 1542.27 Q729.898 1545.82 733.509 1545.82 Q737.144 1545.82 738.949 1542.27 Q740.778 1538.71 740.778 1531.6 Q740.778 1524.47 738.949 1520.93 Q737.144 1517.37 733.509 1517.37 M733.509 1513.66 Q739.32 1513.66 742.375 1518.27 Q745.454 1522.85 745.454 1531.6 Q745.454 1540.33 742.375 1544.94 Q739.32 1549.52 733.509 1549.52 Q727.699 1549.52 724.621 1544.94 Q721.565 1540.33 721.565 1531.6 Q721.565 1522.85 724.621 1518.27 Q727.699 1513.66 733.509 1513.66 Z" fill="#000000" fill-rule="evenodd" fill-opacity="1" /><path clip-path="url(#clip880)" d="M753.671 1542.97 L758.556 1542.97 L758.556 1548.85 L753.671 1548.85 L753.671 1542.97 Z" fill="#000000" fill-rule="evenodd" fill-opacity="1" /><path clip-path="url(#clip880)" d="M768.787 1514.29 L787.143 1514.29 L787.143 1518.22 L773.069 1518.22 L773.069 1526.7 Q774.088 1526.35 775.106 1526.19 Q776.125 1526 777.143 1526 Q782.93 1526 786.31 1529.17 Q789.69 1532.34 789.69 1537.76 Q789.69 1543.34 786.217 1546.44 Q782.745 1549.52 776.426 1549.52 Q774.25 1549.52 771.981 1549.15 Q769.736 1548.78 767.329 1548.04 L767.329 1543.34 Q769.412 1544.47 771.634 1545.03 Q773.856 1545.58 776.333 1545.58 Q780.338 1545.58 782.676 1543.48 Q785.014 1541.37 785.014 1537.76 Q785.014 1534.15 782.676 1532.04 Q780.338 1529.94 776.333 1529.94 Q774.458 1529.94 772.583 1530.35 Q770.731 1530.77 768.787 1531.65 L768.787 1514.29 Z" fill="#000000" fill-rule="evenodd" fill-opacity="1" /><path clip-path="url(#clip880)" d="M1232.06 1517.37 Q1228.45 1517.37 1226.62 1520.93 Q1224.82 1524.47 1224.82 1531.6 Q1224.82 1538.71 1226.62 1542.27 Q1228.45 1545.82 1232.06 1545.82 Q1235.7 1545.82 1237.5 1542.27 Q1239.33 1538.71 1239.33 1531.6 Q1239.33 1524.47 1237.5 1520.93 Q1235.7 1517.37 1232.06 1517.37 M1232.06 1513.66 Q1237.87 1513.66 1240.93 1518.27 Q1244.01 1522.85 1244.01 1531.6 Q1244.01 1540.33 1240.93 1544.94 Q1237.87 1549.52 1232.06 1549.52 Q1226.25 1549.52 1223.17 1544.94 Q1220.12 1540.33 1220.12 1531.6 Q1220.12 1522.85 1223.17 1518.27 Q1226.25 1513.66 1232.06 1513.66 Z" fill="#000000" fill-rule="evenodd" fill-opacity="1" /><path clip-path="url(#clip880)" d="M1252.22 1542.97 L1257.11 1542.97 L1257.11 1548.85 L1252.22 1548.85 L1252.22 1542.97 Z" fill="#000000" fill-rule="evenodd" fill-opacity="1" /><path clip-path="url(#clip880)" d="M1277.29 1517.37 Q1273.68 1517.37 1271.85 1520.93 Q1270.05 1524.47 1270.05 1531.6 Q1270.05 1538.71 1271.85 1542.27 Q1273.68 1545.82 1277.29 1545.82 Q1280.93 1545.82 1282.73 1542.27 Q1284.56 1538.71 1284.56 1531.6 Q1284.56 1524.47 1282.73 1520.93 Q1280.93 1517.37 1277.29 1517.37 M1277.29 1513.66 Q1283.1 1513.66 1286.16 1518.27 Q1289.24 1522.85 1289.24 1531.6 Q1289.24 1540.33 1286.16 1544.94 Q1283.1 1549.52 1277.29 1549.52 Q1271.48 1549.52 1268.4 1544.94 Q1265.35 1540.33 1265.35 1531.6 Q1265.35 1522.85 1268.4 1518.27 Q1271.48 1513.66 1277.29 1513.66 Z" fill="#000000" fill-rule="evenodd" fill-opacity="1" /><path clip-path="url(#clip880)" d="M1750.52 1517.37 Q1746.91 1517.37 1745.08 1520.93 Q1743.28 1524.47 1743.28 1531.6 Q1743.28 1538.71 1745.08 1542.27 Q1746.91 1545.82 1750.52 1545.82 Q1754.16 1545.82 1755.96 1542.27 Q1757.79 1538.71 1757.79 1531.6 Q1757.79 1524.47 1755.96 1520.93 Q1754.16 1517.37 1750.52 1517.37 M1750.52 1513.66 Q1756.33 1513.66 1759.39 1518.27 Q1762.47 1522.85 1762.47 1531.6 Q1762.47 1540.33 1759.39 1544.94 Q1756.33 1549.52 1750.52 1549.52 Q1744.71 1549.52 1741.63 1544.94 Q1738.58 1540.33 1738.58 1531.6 Q1738.58 1522.85 1741.63 1518.27 Q1744.71 1513.66 1750.52 1513.66 Z" fill="#000000" fill-rule="evenodd" fill-opacity="1" /><path clip-path="url(#clip880)" d="M1770.68 1542.97 L1775.57 1542.97 L1775.57 1548.85 L1770.68 1548.85 L1770.68 1542.97 Z" fill="#000000" fill-rule="evenodd" fill-opacity="1" /><path clip-path="url(#clip880)" d="M1785.8 1514.29 L1804.15 1514.29 L1804.15 1518.22 L1790.08 1518.22 L1790.08 1526.7 Q1791.1 1526.35 1792.12 1526.19 Q1793.14 1526 1794.15 1526 Q1799.94 1526 1803.32 1529.17 Q1806.7 1532.34 1806.7 1537.76 Q1806.7 1543.34 1803.23 1546.44 Q1799.76 1549.52 1793.44 1549.52 Q1791.26 1549.52 1788.99 1549.15 Q1786.75 1548.78 1784.34 1548.04 L1784.34 1543.34 Q1786.42 1544.47 1788.65 1545.03 Q1790.87 1545.58 1793.34 1545.58 Q1797.35 1545.58 1799.69 1543.48 Q1802.03 1541.37 1802.03 1537.76 Q1802.03 1534.15 1799.69 1532.04 Q1797.35 1529.94 1793.34 1529.94 Q1791.47 1529.94 1789.59 1530.35 Q1787.74 1530.77 1785.8 1531.65 L1785.8 1514.29 Z" fill="#000000" fill-rule="evenodd" fill-opacity="1" /><path clip-path="url(#clip880)" d="M2257.75 1544.91 L2265.39 1544.91 L2265.39 1518.55 L2257.08 1520.21 L2257.08 1515.95 L2265.35 1514.29 L2270.02 1514.29 L2270.02 1544.91 L2277.66 1544.91 L2277.66 1548.85 L2257.75 1548.85 L2257.75 1544.91 Z" fill="#000000" fill-rule="evenodd" fill-opacity="1" /><path clip-path="url(#clip880)" d="M2287.11 1542.97 L2291.99 1542.97 L2291.99 1548.85 L2287.11 1548.85 L2287.11 1542.97 Z" fill="#000000" fill-rule="evenodd" fill-opacity="1" /><path clip-path="url(#clip880)" d="M2312.17 1517.37 Q2308.56 1517.37 2306.73 1520.93 Q2304.93 1524.47 2304.93 1531.6 Q2304.93 1538.71 2306.73 1542.27 Q2308.56 1545.82 2312.17 1545.82 Q2315.81 1545.82 2317.61 1542.27 Q2319.44 1538.71 2319.44 1531.6 Q2319.44 1524.47 2317.61 1520.93 Q2315.81 1517.37 2312.17 1517.37 M2312.17 1513.66 Q2317.98 1513.66 2321.04 1518.27 Q2324.12 1522.85 2324.12 1531.6 Q2324.12 1540.33 2321.04 1544.94 Q2317.98 1549.52 2312.17 1549.52 Q2306.36 1549.52 2303.29 1544.94 Q2300.23 1540.33 2300.23 1531.6 Q2300.23 1522.85 2303.29 1518.27 Q2306.36 1513.66 2312.17 1513.66 Z" fill="#000000" fill-rule="evenodd" fill-opacity="1" /><polyline clip-path="url(#clip883)" style="stroke:#000000; stroke-linecap:butt; stroke-linejoin:round; stroke-width:2; stroke-opacity:0.1; fill:none" points="
  156.598,1276.27 2352.76,1276.27 
  "/>
<polyline clip-path="url(#clip883)" style="stroke:#000000; stroke-linecap:butt; stroke-linejoin:round; stroke-width:2; stroke-opacity:0.1; fill:none" points="
  156.598,979.185 2352.76,979.185 
  "/>
<polyline clip-path="url(#clip883)" style="stroke:#000000; stroke-linecap:butt; stroke-linejoin:round; stroke-width:2; stroke-opacity:0.1; fill:none" points="
  156.598,682.096 2352.76,682.096 
  "/>
<polyline clip-path="url(#clip883)" style="stroke:#000000; stroke-linecap:butt; stroke-linejoin:round; stroke-width:2; stroke-opacity:0.1; fill:none" points="
  156.598,385.006 2352.76,385.006 
  "/>
<polyline clip-path="url(#clip883)" style="stroke:#000000; stroke-linecap:butt; stroke-linejoin:round; stroke-width:2; stroke-opacity:0.1; fill:none" points="
  156.598,87.9166 2352.76,87.9166 
  "/>
<polyline clip-path="url(#clip880)" style="stroke:#000000; stroke-linecap:butt; stroke-linejoin:round; stroke-width:4; stroke-opacity:1; fill:none" points="
  156.598,1486.45 156.598,47.2441 
  "/>
<polyline clip-path="url(#clip880)" style="stroke:#000000; stroke-linecap:butt; stroke-linejoin:round; stroke-width:4; stroke-opacity:1; fill:none" points="
  156.598,1276.27 175.496,1276.27 
  "/>
<polyline clip-path="url(#clip880)" style="stroke:#000000; stroke-linecap:butt; stroke-linejoin:round; stroke-width:4; stroke-opacity:1; fill:none" points="
  156.598,979.185 175.496,979.185 
  "/>
<polyline clip-path="url(#clip880)" style="stroke:#000000; stroke-linecap:butt; stroke-linejoin:round; stroke-width:4; stroke-opacity:1; fill:none" points="
  156.598,682.096 175.496,682.096 
  "/>
<polyline clip-path="url(#clip880)" style="stroke:#000000; stroke-linecap:butt; stroke-linejoin:round; stroke-width:4; stroke-opacity:1; fill:none" points="
  156.598,385.006 175.496,385.006 
  "/>
<polyline clip-path="url(#clip880)" style="stroke:#000000; stroke-linecap:butt; stroke-linejoin:round; stroke-width:4; stroke-opacity:1; fill:none" points="
  156.598,87.9166 175.496,87.9166 
  "/>
<path clip-path="url(#clip880)" d="M65.0198 1262.07 Q61.4087 1262.07 59.58 1265.64 Q57.7745 1269.18 57.7745 1276.31 Q57.7745 1283.42 59.58 1286.98 Q61.4087 1290.52 65.0198 1290.52 Q68.6541 1290.52 70.4596 1286.98 Q72.2883 1283.42 72.2883 1276.31 Q72.2883 1269.18 70.4596 1265.64 Q68.6541 1262.07 65.0198 1262.07 M65.0198 1258.37 Q70.83 1258.37 73.8855 1262.98 Q76.9642 1267.56 76.9642 1276.31 Q76.9642 1285.04 73.8855 1289.64 Q70.83 1294.23 65.0198 1294.23 Q59.2097 1294.23 56.131 1289.64 Q53.0754 1285.04 53.0754 1276.31 Q53.0754 1267.56 56.131 1262.98 Q59.2097 1258.37 65.0198 1258.37 Z" fill="#000000" fill-rule="evenodd" fill-opacity="1" /><path clip-path="url(#clip880)" d="M85.1818 1287.68 L90.066 1287.68 L90.066 1293.55 L85.1818 1293.55 L85.1818 1287.68 Z" fill="#000000" fill-rule="evenodd" fill-opacity="1" /><path clip-path="url(#clip880)" d="M104.279 1289.62 L120.598 1289.62 L120.598 1293.55 L98.6539 1293.55 L98.6539 1289.62 Q101.316 1286.87 105.899 1282.24 Q110.506 1277.58 111.686 1276.24 Q113.932 1273.72 114.811 1271.98 Q115.714 1270.22 115.714 1268.53 Q115.714 1265.78 113.77 1264.04 Q111.848 1262.31 108.746 1262.31 Q106.547 1262.31 104.094 1263.07 Q101.663 1263.83 98.8854 1265.38 L98.8854 1260.66 Q101.709 1259.53 104.163 1258.95 Q106.617 1258.37 108.654 1258.37 Q114.024 1258.37 117.219 1261.06 Q120.413 1263.74 120.413 1268.23 Q120.413 1270.36 119.603 1272.28 Q118.816 1274.18 116.709 1276.77 Q116.131 1277.44 113.029 1280.66 Q109.927 1283.86 104.279 1289.62 Z" fill="#000000" fill-rule="evenodd" fill-opacity="1" /><path clip-path="url(#clip880)" d="M62.9365 964.984 Q59.3254 964.984 57.4967 968.549 Q55.6912 972.091 55.6912 979.22 Q55.6912 986.327 57.4967 989.891 Q59.3254 993.433 62.9365 993.433 Q66.5707 993.433 68.3763 989.891 Q70.205 986.327 70.205 979.22 Q70.205 972.091 68.3763 968.549 Q66.5707 964.984 62.9365 964.984 M62.9365 961.28 Q68.7467 961.28 71.8022 965.887 Q74.8809 970.47 74.8809 979.22 Q74.8809 987.947 71.8022 992.553 Q68.7467 997.137 62.9365 997.137 Q57.1264 997.137 54.0477 992.553 Q50.9921 987.947 50.9921 979.22 Q50.9921 970.47 54.0477 965.887 Q57.1264 961.28 62.9365 961.28 Z" fill="#000000" fill-rule="evenodd" fill-opacity="1" /><path clip-path="url(#clip880)" d="M83.0984 990.586 L87.9827 990.586 L87.9827 996.465 L83.0984 996.465 L83.0984 990.586 Z" fill="#000000" fill-rule="evenodd" fill-opacity="1" /><path clip-path="url(#clip880)" d="M111.015 965.979 L99.2095 984.428 L111.015 984.428 L111.015 965.979 M109.788 961.905 L115.668 961.905 L115.668 984.428 L120.598 984.428 L120.598 988.317 L115.668 988.317 L115.668 996.465 L111.015 996.465 L111.015 988.317 L95.4132 988.317 L95.4132 983.803 L109.788 961.905 Z" fill="#000000" fill-rule="evenodd" fill-opacity="1" /><path clip-path="url(#clip880)" d="M63.2606 667.894 Q59.6495 667.894 57.8208 671.459 Q56.0152 675.001 56.0152 682.131 Q56.0152 689.237 57.8208 692.802 Q59.6495 696.343 63.2606 696.343 Q66.8948 696.343 68.7004 692.802 Q70.5291 689.237 70.5291 682.131 Q70.5291 675.001 68.7004 671.459 Q66.8948 667.894 63.2606 667.894 M63.2606 664.191 Q69.0707 664.191 72.1263 668.797 Q75.205 673.381 75.205 682.131 Q75.205 690.857 72.1263 695.464 Q69.0707 700.047 63.2606 700.047 Q57.4504 700.047 54.3717 695.464 Q51.3162 690.857 51.3162 682.131 Q51.3162 673.381 54.3717 668.797 Q57.4504 664.191 63.2606 664.191 Z" fill="#000000" fill-rule="evenodd" fill-opacity="1" /><path clip-path="url(#clip880)" d="M83.4225 693.496 L88.3067 693.496 L88.3067 699.376 L83.4225 699.376 L83.4225 693.496 Z" fill="#000000" fill-rule="evenodd" fill-opacity="1" /><path clip-path="url(#clip880)" d="M109.071 680.232 Q105.922 680.232 104.071 682.385 Q102.242 684.538 102.242 688.288 Q102.242 692.015 104.071 694.191 Q105.922 696.343 109.071 696.343 Q112.219 696.343 114.047 694.191 Q115.899 692.015 115.899 688.288 Q115.899 684.538 114.047 682.385 Q112.219 680.232 109.071 680.232 M118.353 665.58 L118.353 669.839 Q116.594 669.006 114.788 668.566 Q113.006 668.126 111.246 668.126 Q106.617 668.126 104.163 671.251 Q101.733 674.376 101.385 680.695 Q102.751 678.681 104.811 677.617 Q106.871 676.529 109.348 676.529 Q114.557 676.529 117.566 679.7 Q120.598 682.848 120.598 688.288 Q120.598 693.612 117.45 696.83 Q114.302 700.047 109.071 700.047 Q103.075 700.047 99.9039 695.464 Q96.7326 690.857 96.7326 682.131 Q96.7326 673.936 100.621 669.075 Q104.51 664.191 111.061 664.191 Q112.82 664.191 114.603 664.538 Q116.408 664.885 118.353 665.58 Z" fill="#000000" fill-rule="evenodd" fill-opacity="1" /><path clip-path="url(#clip880)" d="M63.5152 370.805 Q59.9041 370.805 58.0754 374.37 Q56.2699 377.911 56.2699 385.041 Q56.2699 392.147 58.0754 395.712 Q59.9041 399.254 63.5152 399.254 Q67.1494 399.254 68.955 395.712 Q70.7837 392.147 70.7837 385.041 Q70.7837 377.911 68.955 374.37 Q67.1494 370.805 63.5152 370.805 M63.5152 367.101 Q69.3254 367.101 72.3809 371.708 Q75.4596 376.291 75.4596 385.041 Q75.4596 393.768 72.3809 398.374 Q69.3254 402.958 63.5152 402.958 Q57.7051 402.958 54.6264 398.374 Q51.5708 393.768 51.5708 385.041 Q51.5708 376.291 54.6264 371.708 Q57.7051 367.101 63.5152 367.101 Z" fill="#000000" fill-rule="evenodd" fill-opacity="1" /><path clip-path="url(#clip880)" d="M83.6771 396.407 L88.5614 396.407 L88.5614 402.286 L83.6771 402.286 L83.6771 396.407 Z" fill="#000000" fill-rule="evenodd" fill-opacity="1" /><path clip-path="url(#clip880)" d="M108.746 385.874 Q105.413 385.874 103.492 387.657 Q101.594 389.439 101.594 392.564 Q101.594 395.689 103.492 397.471 Q105.413 399.254 108.746 399.254 Q112.08 399.254 114.001 397.471 Q115.922 395.666 115.922 392.564 Q115.922 389.439 114.001 387.657 Q112.103 385.874 108.746 385.874 M104.071 383.884 Q101.061 383.143 99.3715 381.083 Q97.7048 379.022 97.7048 376.059 Q97.7048 371.916 100.645 369.509 Q103.608 367.101 108.746 367.101 Q113.908 367.101 116.848 369.509 Q119.788 371.916 119.788 376.059 Q119.788 379.022 118.098 381.083 Q116.432 383.143 113.445 383.884 Q116.825 384.671 118.7 386.962 Q120.598 389.254 120.598 392.564 Q120.598 397.587 117.52 400.272 Q114.464 402.958 108.746 402.958 Q103.029 402.958 99.9502 400.272 Q96.8947 397.587 96.8947 392.564 Q96.8947 389.254 98.7928 386.962 Q100.691 384.671 104.071 383.884 M102.358 376.499 Q102.358 379.184 104.024 380.689 Q105.714 382.194 108.746 382.194 Q111.756 382.194 113.445 380.689 Q115.158 379.184 115.158 376.499 Q115.158 373.814 113.445 372.31 Q111.756 370.805 108.746 370.805 Q105.714 370.805 104.024 372.31 Q102.358 373.814 102.358 376.499 Z" fill="#000000" fill-rule="evenodd" fill-opacity="1" /><path clip-path="url(#clip880)" d="M54.2328 101.261 L61.8717 101.261 L61.8717 74.8959 L53.5616 76.5625 L53.5616 72.3033 L61.8254 70.6366 L66.5013 70.6366 L66.5013 101.261 L74.1402 101.261 L74.1402 105.197 L54.2328 105.197 L54.2328 101.261 Z" fill="#000000" fill-rule="evenodd" fill-opacity="1" /><path clip-path="url(#clip880)" d="M83.5845 99.317 L88.4688 99.317 L88.4688 105.197 L83.5845 105.197 L83.5845 99.317 Z" fill="#000000" fill-rule="evenodd" fill-opacity="1" /><path clip-path="url(#clip880)" d="M108.654 73.7153 Q105.043 73.7153 103.214 77.2801 Q101.409 80.8218 101.409 87.9513 Q101.409 95.0578 103.214 98.6226 Q105.043 102.164 108.654 102.164 Q112.288 102.164 114.094 98.6226 Q115.922 95.0578 115.922 87.9513 Q115.922 80.8218 114.094 77.2801 Q112.288 73.7153 108.654 73.7153 M108.654 70.0116 Q114.464 70.0116 117.52 74.6181 Q120.598 79.2014 120.598 87.9513 Q120.598 96.6782 117.52 101.285 Q114.464 105.868 108.654 105.868 Q102.844 105.868 99.765 101.285 Q96.7095 96.6782 96.7095 87.9513 Q96.7095 79.2014 99.765 74.6181 Q102.844 70.0116 108.654 70.0116 Z" fill="#000000" fill-rule="evenodd" fill-opacity="1" /><polyline clip-path="url(#clip883)" style="stroke:#009af9; stroke-linecap:butt; stroke-linejoin:round; stroke-width:16; stroke-opacity:1; fill:none" points="
  218.754,1423.98 222.906,1427.49 227.058,1428.04 231.21,1426.52 235.362,1423.67 239.514,1420.07 243.666,1416.16 247.818,1412.27 251.97,1408.64 256.122,1405.44 
  260.274,1402.78 264.426,1400.71 268.578,1399.25 272.73,1398.38 276.882,1398.07 281.034,1398.26 285.186,1398.88 289.338,1399.87 293.49,1401.15 297.642,1402.65 
  301.794,1404.29 305.946,1406 310.098,1407.71 314.25,1409.38 318.402,1410.94 322.554,1412.35 326.706,1413.58 330.858,1414.59 335.01,1415.36 339.162,1415.87 
  343.314,1416.1 347.466,1416.07 351.618,1415.75 355.77,1415.15 359.922,1414.29 364.074,1413.18 368.226,1411.82 372.378,1410.23 376.53,1408.44 380.682,1406.45 
  384.834,1404.3 388.986,1401.99 393.138,1399.55 397.29,1397.01 401.442,1394.38 405.594,1391.68 409.746,1388.92 413.898,1386.13 418.05,1383.33 422.202,1380.51 
  426.354,1377.71 430.506,1374.93 434.658,1372.17 438.81,1369.46 442.962,1366.78 447.114,1364.16 451.266,1361.59 455.418,1359.08 459.57,1356.62 463.722,1354.23 
  467.874,1351.88 472.026,1349.6 476.177,1347.36 480.329,1345.17 484.481,1343.02 488.633,1340.91 492.785,1338.83 496.937,1336.77 501.089,1334.74 505.241,1332.72 
  509.393,1330.7 513.545,1328.68 517.697,1326.66 521.849,1324.62 526.001,1322.57 530.153,1320.48 534.305,1318.37 538.457,1316.22 542.609,1314.03 546.761,1311.79 
  550.913,1309.5 555.065,1307.16 559.217,1304.76 563.369,1302.3 567.521,1299.78 571.673,1297.19 575.825,1294.54 579.977,1291.82 584.129,1289.03 588.281,1286.17 
  592.433,1283.25 596.585,1280.26 600.737,1277.2 604.889,1274.07 609.041,1270.88 613.193,1267.63 617.345,1264.31 621.497,1260.93 625.649,1257.5 629.801,1254.01 
  633.953,1250.46 638.105,1246.86 642.257,1243.21 646.409,1239.51 650.561,1235.76 654.713,1231.97 658.865,1228.13 663.017,1224.25 667.169,1220.33 671.321,1216.37 
  675.473,1212.37 679.625,1208.33 683.777,1204.25 687.929,1200.13 692.081,1195.97 696.233,1191.78 700.385,1187.54 704.537,1183.27 708.689,1178.96 712.841,1174.6 
  716.993,1170.2 721.145,1165.76 725.297,1161.26 729.449,1156.72 733.601,1152.13 737.753,1147.48 741.905,1142.78 746.057,1138.02 750.209,1133.19 754.361,1128.3 
  758.513,1123.34 762.665,1118.31 766.817,1113.21 770.969,1108.02 775.121,1102.76 779.273,1097.41 783.425,1091.97 787.577,1086.43 791.729,1080.81 795.881,1075.08 
  800.033,1069.25 804.185,1063.31 808.337,1057.26 812.489,1051.11 816.641,1044.83 820.793,1038.44 824.945,1031.93 829.097,1025.29 833.249,1018.53 837.401,1011.63 
  841.553,1004.61 845.705,997.453 849.857,990.162 854.009,982.735 858.161,975.169 862.313,967.464 866.465,959.618 870.617,951.632 874.769,943.503 878.921,935.231 
  883.073,926.817 887.225,918.26 891.377,909.56 895.529,900.717 899.681,891.732 903.833,882.606 907.985,873.34 912.137,863.934 916.289,854.39 920.441,844.71 
  924.593,834.895 928.745,824.947 932.897,814.869 937.049,804.661 941.201,794.328 945.353,783.872 949.505,773.295 953.657,762.601 957.809,751.792 961.961,740.873 
  966.113,729.847 970.265,718.717 974.417,707.488 978.569,696.164 982.721,684.75 986.873,673.249 991.025,661.666 995.177,650.007 999.329,638.276 1003.48,626.479 
  1007.63,614.622 1011.79,602.709 1015.94,590.747 1020.09,578.742 1024.24,566.7 1028.39,554.628 1032.55,542.532 1036.7,530.418 1040.85,518.295 1045,506.169 
  1049.15,494.048 1053.31,481.939 1057.46,469.85 1061.61,457.789 1065.76,445.765 1069.91,433.785 1074.07,421.858 1078.22,409.993 1082.37,398.198 1086.52,386.483 
  1090.67,374.857 1094.83,363.33 1098.98,351.91 1103.13,340.608 1107.28,329.433 1111.43,318.395 1115.59,307.504 1119.74,296.771 1123.89,286.205 1128.04,275.816 
  1132.19,265.616 1136.35,255.614 1140.5,245.82 1144.65,236.246 1148.8,226.901 1152.95,217.796 1157.11,208.941 1161.26,200.346 1165.41,192.022 1169.56,183.978 
  1173.71,176.224 1177.87,168.771 1182.02,161.628 1186.17,154.804 1190.32,148.308 1194.47,142.15 1198.63,136.338 1202.78,130.881 1206.93,125.786 1211.08,121.061 
  1215.23,116.714 1219.39,112.753 1223.54,109.182 1227.69,106.01 1231.84,103.242 1235.99,100.882 1240.15,98.9362 1244.3,97.4088 1248.45,96.3036 1252.6,95.6239 
  1256.75,95.3725 1260.91,95.5517 1265.06,96.1632 1269.21,97.2081 1273.36,98.6867 1277.51,100.599 1281.67,102.944 1285.82,105.721 1289.97,108.928 1294.12,112.562 
  1298.27,116.619 1302.43,121.097 1306.58,125.99 1310.73,131.293 1314.88,137.001 1319.03,143.108 1323.19,149.606 1327.34,156.487 1331.49,163.745 1335.64,171.369 
  1339.79,179.351 1343.95,187.681 1348.1,196.35 1352.25,205.345 1356.4,214.656 1360.55,224.271 1364.71,234.178 1368.86,244.365 1373.01,254.819 1377.16,265.526 
  1381.31,276.474 1385.46,287.648 1389.62,299.035 1393.77,310.62 1397.92,322.389 1402.07,334.328 1406.22,346.422 1410.38,358.657 1414.53,371.017 1418.68,383.489 
  1422.83,396.057 1426.98,408.708 1431.14,421.427 1435.29,434.199 1439.44,447.012 1443.59,459.85 1447.74,472.701 1451.9,485.552 1456.05,498.389 1460.2,511.201 
  1464.35,523.975 1468.5,536.699 1472.66,549.363 1476.81,561.955 1480.96,574.465 1485.11,586.885 1489.26,599.204 1493.42,611.413 1497.57,623.506 1501.72,635.474 
  1505.87,647.311 1510.02,659.011 1514.18,670.567 1518.33,681.975 1522.48,693.231 1526.63,704.33 1530.78,715.27 1534.94,726.049 1539.09,736.663 1543.24,747.113 
  1547.39,757.397 1551.54,767.515 1555.7,777.467 1559.85,787.255 1564,796.88 1568.15,806.344 1572.3,815.649 1576.46,824.799 1580.61,833.795 1584.76,842.643 
  1588.91,851.346 1593.06,859.908 1597.22,868.335 1601.37,876.63 1605.52,884.798 1609.67,892.846 1613.82,900.778 1617.98,908.601 1622.13,916.318 1626.28,923.936 
  1630.43,931.461 1634.58,938.897 1638.74,946.25 1642.89,953.526 1647.04,960.73 1651.19,967.866 1655.34,974.939 1659.5,981.953 1663.65,988.913 1667.8,995.822 
  1671.95,1002.68 1676.1,1009.5 1680.26,1016.28 1684.41,1023.02 1688.56,1029.72 1692.71,1036.39 1696.86,1043.02 1701.02,1049.62 1705.17,1056.18 1709.32,1062.71 
  1713.47,1069.21 1717.62,1075.67 1721.78,1082.09 1725.93,1088.47 1730.08,1094.82 1734.23,1101.11 1738.38,1107.36 1742.54,1113.56 1746.69,1119.7 1750.84,1125.79 
  1754.99,1131.81 1759.14,1137.76 1763.3,1143.64 1767.45,1149.44 1771.6,1155.16 1775.75,1160.79 1779.9,1166.32 1784.06,1171.75 1788.21,1177.09 1792.36,1182.31 
  1796.51,1187.41 1800.66,1192.4 1804.82,1197.26 1808.97,1202 1813.12,1206.6 1817.27,1211.07 1821.42,1215.4 1825.58,1219.58 1829.73,1223.62 1833.88,1227.52 
  1838.03,1231.27 1842.18,1234.86 1846.34,1238.31 1850.49,1241.62 1854.64,1244.77 1858.79,1247.78 1862.94,1250.64 1867.1,1253.37 1871.25,1255.96 1875.4,1258.41 
  1879.55,1260.74 1883.7,1262.94 1887.86,1265.03 1892.01,1267.01 1896.16,1268.88 1900.31,1270.66 1904.46,1272.35 1908.62,1273.96 1912.77,1275.51 1916.92,1276.99 
  1921.07,1278.42 1925.22,1279.8 1929.38,1281.16 1933.53,1282.49 1937.68,1283.81 1941.83,1285.12 1945.98,1286.45 1950.14,1287.78 1954.29,1289.15 1958.44,1290.54 
  1962.59,1291.98 1966.74,1293.46 1970.9,1295.01 1975.05,1296.61 1979.2,1298.28 1983.35,1300.03 1987.5,1301.85 1991.66,1303.76 1995.81,1305.75 1999.96,1307.82 
  2004.11,1309.98 2008.26,1312.22 2012.42,1314.55 2016.57,1316.96 2020.72,1319.45 2024.87,1322.02 2029.02,1324.66 2033.18,1327.36 2037.33,1330.11 2041.48,1332.92 
  2045.63,1335.77 2049.78,1338.66 2053.94,1341.57 2058.09,1344.5 2062.24,1347.44 2066.39,1350.38 2070.54,1353.3 2074.7,1356.21 2078.85,1359.08 2083,1361.92 
  2087.15,1364.71 2091.3,1367.45 2095.46,1370.14 2099.61,1372.76 2103.76,1375.3 2107.91,1377.78 2112.06,1380.19 2116.22,1382.52 2120.37,1384.77 2124.52,1386.96 
  2128.67,1389.07 2132.82,1391.12 2136.98,1393.12 2141.13,1395.06 2145.28,1396.95 2149.43,1398.82 2153.58,1400.65 2157.74,1402.47 2161.89,1404.28 2166.04,1406.1 
  2170.19,1407.93 2174.34,1409.77 2178.5,1411.65 2182.65,1413.55 2186.8,1415.49 2190.95,1417.46 2195.1,1419.46 2199.26,1421.49 2203.41,1423.53 2207.56,1425.58 
  2211.71,1427.61 2215.86,1429.6 2220.02,1431.53 2224.17,1433.37 2228.32,1435.09 2232.47,1436.66 2236.62,1438.05 2240.78,1439.22 2244.93,1440.16 2249.08,1440.85 
  2253.23,1441.27 2257.38,1441.44 2261.54,1441.4 2265.69,1441.19 2269.84,1440.92 2273.99,1440.72 2278.14,1440.79 2282.3,1441.4 2286.45,1442.89 2290.6,1445.72 
  
  "/>
<polyline clip-path="url(#clip883)" style="stroke:#e26f46; stroke-linecap:butt; stroke-linejoin:round; stroke-width:16; stroke-opacity:1; fill:none" points="
  218.754,1438.32 222.906,1437.33 227.058,1436.33 231.21,1435.32 235.362,1434.3 239.514,1433.27 243.666,1432.23 247.818,1431.17 251.97,1430.11 256.122,1429.03 
  260.274,1427.94 264.426,1426.84 268.578,1425.72 272.73,1424.6 276.882,1423.46 281.034,1422.31 285.186,1421.14 289.338,1419.97 293.49,1418.78 297.642,1417.57 
  301.794,1416.36 305.946,1415.13 310.098,1413.88 314.25,1412.62 318.402,1411.35 322.554,1410.06 326.706,1408.76 330.858,1407.44 335.01,1406.11 339.162,1404.76 
  343.314,1403.4 347.466,1402.02 351.618,1400.63 355.77,1399.21 359.922,1397.78 364.074,1396.34 368.226,1394.88 372.378,1393.4 376.53,1391.9 380.682,1390.38 
  384.834,1388.85 388.986,1387.3 393.138,1385.73 397.29,1384.14 401.442,1382.53 405.594,1380.9 409.746,1379.25 413.898,1377.58 418.05,1375.9 422.202,1374.19 
  426.354,1372.45 430.506,1370.7 434.658,1368.93 438.81,1367.13 442.962,1365.31 447.114,1363.47 451.266,1361.61 455.418,1359.72 459.57,1357.8 463.722,1355.87 
  467.874,1353.91 472.026,1351.92 476.177,1349.91 480.329,1347.87 484.481,1345.8 488.633,1343.71 492.785,1341.6 496.937,1339.45 501.089,1337.28 505.241,1335.07 
  509.393,1332.84 513.545,1330.58 517.697,1328.29 521.849,1325.97 526.001,1323.62 530.153,1321.23 534.305,1318.82 538.457,1316.37 542.609,1313.89 546.761,1311.38 
  550.913,1308.83 555.065,1306.25 559.217,1303.63 563.369,1300.97 567.521,1298.28 571.673,1295.56 575.825,1292.79 579.977,1289.99 584.129,1287.15 588.281,1284.26 
  592.433,1281.34 596.585,1278.38 600.737,1275.38 604.889,1272.33 609.041,1269.24 613.193,1266.11 617.345,1262.93 621.497,1259.71 625.649,1256.44 629.801,1253.13 
  633.953,1249.76 638.105,1246.35 642.257,1242.9 646.409,1239.39 650.561,1235.83 654.713,1232.22 658.865,1228.55 663.017,1224.83 667.169,1221.06 671.321,1217.24 
  675.473,1213.35 679.625,1209.42 683.777,1205.42 687.929,1201.36 692.081,1197.25 696.233,1193.07 700.385,1188.83 704.537,1184.53 708.689,1180.17 712.841,1175.74 
  716.993,1171.24 721.145,1166.68 725.297,1162.05 729.449,1157.35 733.601,1152.58 737.753,1147.73 741.905,1142.82 746.057,1137.83 750.209,1132.77 754.361,1127.63 
  758.513,1122.41 762.665,1117.11 766.817,1111.74 770.969,1106.28 775.121,1100.74 779.273,1095.12 783.425,1089.42 787.577,1083.62 791.729,1077.74 795.881,1071.77 
  800.033,1065.72 804.185,1059.57 808.337,1053.33 812.489,1046.99 816.641,1040.56 820.793,1034.04 824.945,1027.41 829.097,1020.69 833.249,1013.87 837.401,1006.95 
  841.553,999.92 845.705,992.791 849.857,985.558 854.009,978.218 858.161,970.772 862.313,963.217 866.465,955.553 870.617,947.779 874.769,939.894 878.921,931.896 
  883.073,923.785 887.225,915.559 891.377,907.219 895.529,898.763 899.681,890.19 903.833,881.501 907.985,872.693 912.137,863.768 916.289,854.724 920.441,845.561 
  924.593,836.278 928.745,826.877 932.897,817.356 937.049,807.716 941.201,797.957 945.353,788.079 949.505,778.084 953.657,767.971 957.809,757.741 961.961,747.396 
  966.113,736.936 970.265,726.363 974.417,715.678 978.569,704.884 982.721,693.982 986.873,682.974 991.025,671.863 995.177,660.651 999.329,649.342 1003.48,637.938 
  1007.63,626.443 1011.79,614.861 1015.94,603.195 1020.09,591.451 1024.24,579.632 1028.39,567.745 1032.55,555.793 1036.7,543.784 1040.85,531.722 1045,519.614 
  1049.15,507.467 1053.31,495.289 1057.46,483.086 1061.61,470.867 1065.76,458.64 1069.91,446.413 1074.07,434.195 1078.22,421.997 1082.37,409.827 1086.52,397.697 
  1090.67,385.616 1094.83,373.595 1098.98,361.647 1103.13,349.782 1107.28,338.012 1111.43,326.351 1115.59,314.809 1119.74,303.401 1123.89,292.14 1128.04,281.038 
  1132.19,270.11 1136.35,259.369 1140.5,248.828 1144.65,238.503 1148.8,228.407 1152.95,218.555 1157.11,208.959 1161.26,199.635 1165.41,190.596 1169.56,181.857 
  1173.71,173.43 1177.87,165.33 1182.02,157.569 1186.17,150.16 1190.32,143.116 1194.47,136.448 1198.63,130.169 1202.78,124.289 1206.93,118.818 1211.08,113.767 
  1215.23,109.145 1219.39,104.959 1223.54,101.219 1227.69,97.9306 1231.84,95.1001 1235.99,92.7331 1240.15,90.834 1244.3,89.4065 1248.45,88.4533 1252.6,87.9763 
  1256.75,87.9763 1260.91,88.4533 1265.06,89.4065 1269.21,90.834 1273.36,92.7331 1277.51,95.1001 1281.67,97.9306 1285.82,101.219 1289.97,104.959 1294.12,109.145 
  1298.27,113.767 1302.43,118.818 1306.58,124.289 1310.73,130.169 1314.88,136.448 1319.03,143.116 1323.19,150.16 1327.34,157.569 1331.49,165.33 1335.64,173.43 
  1339.79,181.857 1343.95,190.596 1348.1,199.635 1352.25,208.959 1356.4,218.555 1360.55,228.407 1364.71,238.503 1368.86,248.828 1373.01,259.369 1377.16,270.11 
  1381.31,281.038 1385.46,292.14 1389.62,303.401 1393.77,314.809 1397.92,326.351 1402.07,338.012 1406.22,349.782 1410.38,361.647 1414.53,373.595 1418.68,385.616 
  1422.83,397.697 1426.98,409.827 1431.14,421.997 1435.29,434.195 1439.44,446.413 1443.59,458.64 1447.74,470.867 1451.9,483.086 1456.05,495.289 1460.2,507.467 
  1464.35,519.614 1468.5,531.722 1472.66,543.784 1476.81,555.793 1480.96,567.745 1485.11,579.632 1489.26,591.451 1493.42,603.195 1497.57,614.861 1501.72,626.443 
  1505.87,637.938 1510.02,649.342 1514.18,660.651 1518.33,671.863 1522.48,682.974 1526.63,693.982 1530.78,704.884 1534.94,715.678 1539.09,726.363 1543.24,736.936 
  1547.39,747.396 1551.54,757.741 1555.7,767.971 1559.85,778.084 1564,788.079 1568.15,797.957 1572.3,807.716 1576.46,817.356 1580.61,826.877 1584.76,836.278 
  1588.91,845.561 1593.06,854.724 1597.22,863.768 1601.37,872.693 1605.52,881.501 1609.67,890.19 1613.82,898.763 1617.98,907.219 1622.13,915.559 1626.28,923.785 
  1630.43,931.896 1634.58,939.894 1638.74,947.779 1642.89,955.553 1647.04,963.217 1651.19,970.772 1655.34,978.218 1659.5,985.558 1663.65,992.791 1667.8,999.92 
  1671.95,1006.95 1676.1,1013.87 1680.26,1020.69 1684.41,1027.41 1688.56,1034.04 1692.71,1040.56 1696.86,1046.99 1701.02,1053.33 1705.17,1059.57 1709.32,1065.72 
  1713.47,1071.77 1717.62,1077.74 1721.78,1083.62 1725.93,1089.42 1730.08,1095.12 1734.23,1100.74 1738.38,1106.28 1742.54,1111.74 1746.69,1117.11 1750.84,1122.41 
  1754.99,1127.63 1759.14,1132.77 1763.3,1137.83 1767.45,1142.82 1771.6,1147.73 1775.75,1152.58 1779.9,1157.35 1784.06,1162.05 1788.21,1166.68 1792.36,1171.24 
  1796.51,1175.74 1800.66,1180.17 1804.82,1184.53 1808.97,1188.83 1813.12,1193.07 1817.27,1197.25 1821.42,1201.36 1825.58,1205.42 1829.73,1209.42 1833.88,1213.35 
  1838.03,1217.24 1842.18,1221.06 1846.34,1224.83 1850.49,1228.55 1854.64,1232.22 1858.79,1235.83 1862.94,1239.39 1867.1,1242.9 1871.25,1246.35 1875.4,1249.76 
  1879.55,1253.13 1883.7,1256.44 1887.86,1259.71 1892.01,1262.93 1896.16,1266.11 1900.31,1269.24 1904.46,1272.33 1908.62,1275.38 1912.77,1278.38 1916.92,1281.34 
  1921.07,1284.26 1925.22,1287.15 1929.38,1289.99 1933.53,1292.79 1937.68,1295.56 1941.83,1298.28 1945.98,1300.97 1950.14,1303.63 1954.29,1306.25 1958.44,1308.83 
  1962.59,1311.38 1966.74,1313.89 1970.9,1316.37 1975.05,1318.82 1979.2,1321.23 1983.35,1323.62 1987.5,1325.97 1991.66,1328.29 1995.81,1330.58 1999.96,1332.84 
  2004.11,1335.07 2008.26,1337.28 2012.42,1339.45 2016.57,1341.6 2020.72,1343.71 2024.87,1345.8 2029.02,1347.87 2033.18,1349.91 2037.33,1351.92 2041.48,1353.91 
  2045.63,1355.87 2049.78,1357.8 2053.94,1359.72 2058.09,1361.61 2062.24,1363.47 2066.39,1365.31 2070.54,1367.13 2074.7,1368.93 2078.85,1370.7 2083,1372.45 
  2087.15,1374.19 2091.3,1375.9 2095.46,1377.58 2099.61,1379.25 2103.76,1380.9 2107.91,1382.53 2112.06,1384.14 2116.22,1385.73 2120.37,1387.3 2124.52,1388.85 
  2128.67,1390.38 2132.82,1391.9 2136.98,1393.4 2141.13,1394.88 2145.28,1396.34 2149.43,1397.78 2153.58,1399.21 2157.74,1400.63 2161.89,1402.02 2166.04,1403.4 
  2170.19,1404.76 2174.34,1406.11 2178.5,1407.44 2182.65,1408.76 2186.8,1410.06 2190.95,1411.35 2195.1,1412.62 2199.26,1413.88 2203.41,1415.13 2207.56,1416.36 
  2211.71,1417.57 2215.86,1418.78 2220.02,1419.97 2224.17,1421.14 2228.32,1422.31 2232.47,1423.46 2236.62,1424.6 2240.78,1425.72 2244.93,1426.84 2249.08,1427.94 
  2253.23,1429.03 2257.38,1430.11 2261.54,1431.17 2265.69,1432.23 2269.84,1433.27 2273.99,1434.3 2278.14,1435.32 2282.3,1436.33 2286.45,1437.33 2290.6,1438.32 
  
  "/>
<path clip-path="url(#clip880)" d="
M1807.89 344.429 L2279.55 344.429 L2279.55 95.2176 L1807.89 95.2176  Z
  " fill="#ffffff" fill-rule="evenodd" fill-opacity="1"/>
<polyline clip-path="url(#clip880)" style="stroke:#000000; stroke-linecap:butt; stroke-linejoin:round; stroke-width:4; stroke-opacity:1; fill:none" points="
  1807.89,344.429 2279.55,344.429 2279.55,95.2176 1807.89,95.2176 1807.89,344.429 
  "/>
<polyline clip-path="url(#clip880)" style="stroke:#009af9; stroke-linecap:butt; stroke-linejoin:round; stroke-width:6; stroke-opacity:1; fill:none" points="
  1832.29,178.288 1978.7,178.288 
  "/>
<path clip-path="url(#clip880)" d="M2055.27 165.405 L2053.83 177.843 Q2053.73 178.967 2053.55 179.318 Q2053.38 179.634 2052.81 179.634 Q2052.39 179.634 2052.15 179.388 Q2051.94 179.107 2051.94 178.791 Q2051.94 178.616 2051.97 178.159 Q2052.01 177.702 2052.01 177.491 Q2052.32 175.313 2052.32 173.662 Q2052.32 170.605 2051.41 168.954 Q2050.5 167.267 2048.14 166.494 Q2045.79 165.686 2041.36 165.686 L2031.24 165.686 Q2028.92 165.686 2028.36 166.108 Q2027.83 166.53 2027.34 168.497 L2023.02 185.818 L2029.8 185.818 Q2032.33 185.818 2033.84 185.502 Q2035.39 185.186 2036.41 184.307 Q2037.46 183.394 2038.02 182.164 Q2038.62 180.934 2039.22 178.721 Q2039.39 177.983 2039.57 177.702 Q2039.78 177.421 2040.24 177.421 Q2040.59 177.421 2040.83 177.667 Q2041.08 177.878 2041.08 178.194 L2036.97 195.023 Q2036.76 195.866 2036.55 196.182 Q2036.34 196.463 2035.91 196.463 Q2035.46 196.463 2035.21 196.218 Q2034.97 195.972 2034.97 195.69 Q2034.97 195.409 2035.18 194.882 Q2035.7 192.599 2035.7 191.369 Q2035.7 190.666 2035.63 190.315 Q2035.6 189.964 2035.28 189.472 Q2035 188.945 2034.37 188.699 Q2033.74 188.453 2032.54 188.277 Q2031.35 188.066 2029.56 188.066 L2022.46 188.066 L2017.54 207.706 Q2017.19 209.006 2017.19 209.357 Q2017.19 209.744 2017.36 209.885 Q2017.58 209.99 2018.14 210.06 Q2018.77 210.166 2019.72 210.166 L2030.22 210.166 Q2032.54 210.166 2034.4 209.955 Q2036.27 209.744 2037.81 209.217 Q2039.39 208.69 2040.59 208.093 Q2041.78 207.495 2042.91 206.406 Q2044.03 205.282 2044.8 204.298 Q2045.61 203.279 2046.56 201.558 Q2047.51 199.836 2048.18 198.431 Q2048.84 196.99 2049.86 194.672 Q2050.14 193.828 2050.81 193.828 Q2051.2 193.828 2051.41 194.039 Q2051.62 194.215 2051.65 194.391 L2051.65 194.601 Q2051.44 195.269 2051.3 195.62 L2044.7 211.149 Q2044.31 212.028 2044 212.203 Q2043.68 212.379 2042.45 212.379 L2005.1 212.379 Q2004.26 212.379 2003.91 212.344 Q2003.59 212.309 2003.35 212.133 Q2003.1 211.922 2003.1 211.501 Q2003.1 210.833 2003.38 210.552 Q2003.66 210.236 2003.98 210.201 Q2004.29 210.166 2005.1 210.166 Q2006.86 210.166 2007.91 210.06 Q2008.97 209.955 2009.63 209.814 Q2010.34 209.639 2010.69 209.147 Q2011.08 208.655 2011.25 208.233 Q2011.43 207.776 2011.67 206.758 L2021.16 168.708 Q2021.51 167.408 2021.51 166.986 Q2021.51 166.53 2021.19 166.248 Q2020.91 165.967 2020.14 165.862 Q2019.37 165.721 2018.73 165.721 Q2018.14 165.686 2016.84 165.686 Q2015.99 165.686 2015.64 165.651 Q2015.33 165.616 2015.08 165.44 Q2014.83 165.265 2014.83 164.878 Q2014.83 163.895 2015.26 163.684 Q2015.71 163.438 2016.98 163.438 L2053.31 163.438 Q2054.75 163.438 2055.06 163.754 Q2055.41 164.035 2055.27 165.405 Z" fill="#000000" fill-rule="evenodd" fill-opacity="1" /><path clip-path="url(#clip880)" d="M2065.18 230.367 L2065.18 158.414 L2076.04 158.414 L2076.04 160.065 L2070 160.065 L2070 228.716 L2076.04 228.716 L2076.04 230.367 L2065.18 230.367 Z" fill="#000000" fill-rule="evenodd" fill-opacity="1" /><path clip-path="url(#clip880)" d="M2117.36 153.159 L2116.75 154.167 Q2112.94 152.519 2108.19 149.888 Q2103.44 152.519 2099.63 154.167 L2099.04 153.159 Q2103.2 149.544 2108.19 146.765 Q2113.23 149.568 2117.36 153.159 Z" fill="#000000" fill-rule="evenodd" fill-opacity="1" /><path clip-path="url(#clip880)" d="M2120.85 166.6 Q2120.85 168.532 2119.62 169.727 Q2118.43 170.921 2116.92 170.921 Q2115.83 170.921 2115.02 170.254 Q2114.25 169.586 2114.25 168.427 Q2114.25 167.232 2115.16 165.967 Q2116.08 164.703 2118.15 164.527 Q2116.78 163.227 2114.6 163.227 Q2113.51 163.227 2112.6 163.93 Q2111.72 164.597 2111.23 165.686 Q2110.7 166.811 2109.51 173.17 Q2109.12 175.243 2108.77 177.245 Q2108.42 179.248 2108 181.356 L2113.97 181.356 Q2114.74 181.356 2115.06 181.391 Q2115.37 181.426 2115.62 181.602 Q2115.9 181.778 2115.9 182.164 Q2115.9 183.148 2115.44 183.394 Q2115.02 183.605 2113.76 183.605 L2107.57 183.605 L2103.25 206.406 Q2103.15 207.074 2102.69 209.182 Q2102.27 211.255 2101.25 214.663 Q2100.23 218.106 2099.21 220.144 Q2098.65 221.303 2097.91 222.392 Q2097.21 223.516 2096.19 224.641 Q2095.17 225.765 2093.84 226.432 Q2092.5 227.135 2091.1 227.135 Q2088.71 227.135 2086.85 225.8 Q2084.98 224.465 2084.98 222.181 Q2084.98 220.249 2086.18 219.054 Q2087.41 217.86 2088.92 217.86 Q2090.01 217.86 2090.78 218.527 Q2091.59 219.195 2091.59 220.354 Q2091.59 220.846 2091.41 221.408 Q2091.24 221.97 2090.85 222.603 Q2090.46 223.27 2089.62 223.727 Q2088.78 224.184 2087.62 224.254 Q2088.99 225.554 2091.1 225.554 Q2091.76 225.554 2092.36 225.273 Q2092.96 225.027 2093.45 224.395 Q2093.98 223.762 2094.36 223.13 Q2094.75 222.533 2095.14 221.373 Q2095.52 220.249 2095.77 219.406 Q2096.02 218.563 2096.33 217.052 Q2096.68 215.541 2096.86 214.628 Q2097.03 213.749 2097.35 212.028 L2102.73 183.605 L2097.98 183.605 Q2097.14 183.605 2096.79 183.569 Q2096.47 183.534 2096.23 183.359 Q2095.98 183.148 2095.98 182.726 Q2095.98 182.059 2096.26 181.778 Q2096.58 181.461 2096.93 181.426 Q2097.28 181.356 2098.12 181.356 L2103.11 181.356 Q2104.8 172.467 2105.47 170.078 Q2106.24 167.548 2107.43 165.792 Q2108.63 164 2109.96 163.157 Q2111.3 162.314 2112.39 161.997 Q2113.51 161.646 2114.6 161.646 Q2117.06 161.646 2118.96 162.981 Q2120.85 164.281 2120.85 166.6 Z" fill="#000000" fill-rule="evenodd" fill-opacity="1" /><path clip-path="url(#clip880)" d="M2121.28 194.391 Q2121.28 182.234 2125.81 172.432 Q2127.74 168.321 2130.45 164.878 Q2133.15 161.435 2134.94 159.924 Q2136.74 158.414 2137.23 158.414 Q2137.93 158.414 2137.97 159.116 Q2137.97 159.468 2137.02 160.346 Q2125.42 172.151 2125.46 194.391 Q2125.46 216.7 2136.74 228.049 Q2137.97 229.278 2137.97 229.665 Q2137.97 230.367 2137.23 230.367 Q2136.74 230.367 2135.01 228.927 Q2133.29 227.486 2130.62 224.184 Q2127.95 220.881 2126.02 216.841 Q2121.28 207.039 2121.28 194.391 Z" fill="#000000" fill-rule="evenodd" fill-opacity="1" /><path clip-path="url(#clip880)" d="M2179.27 185.326 Q2179.27 187.294 2178.04 188.418 Q2176.81 189.507 2175.41 189.507 Q2174.07 189.507 2173.37 188.734 Q2172.67 187.961 2172.67 186.977 Q2172.67 185.642 2173.65 184.483 Q2174.63 183.323 2176.11 183.078 Q2174.67 182.164 2172.52 182.164 Q2171.12 182.164 2169.89 182.902 Q2168.69 183.64 2167.96 184.588 Q2167.25 185.537 2166.62 186.907 Q2166.02 188.242 2165.78 189.05 Q2165.57 189.823 2165.39 190.666 L2162.93 200.504 Q2161.74 205.177 2161.74 206.828 Q2161.74 208.866 2162.72 210.236 Q2163.71 211.571 2165.67 211.571 Q2166.45 211.571 2167.32 211.36 Q2168.2 211.114 2169.33 210.482 Q2170.49 209.814 2171.51 208.83 Q2172.56 207.812 2173.58 206.09 Q2174.6 204.369 2175.26 202.155 Q2175.48 201.382 2176.18 201.382 Q2177.06 201.382 2177.06 202.085 Q2177.06 202.682 2176.56 203.947 Q2176.11 205.177 2175.09 206.793 Q2174.11 208.374 2172.81 209.814 Q2171.51 211.22 2169.57 212.203 Q2167.64 213.187 2165.53 213.187 Q2162.51 213.187 2160.51 211.571 Q2158.51 209.955 2157.77 207.706 Q2157.59 208.022 2157.35 208.444 Q2157.1 208.866 2156.36 209.814 Q2155.66 210.728 2154.85 211.43 Q2154.04 212.098 2152.78 212.625 Q2151.55 213.187 2150.21 213.187 Q2148.53 213.187 2147.02 212.695 Q2145.54 212.203 2144.49 211.079 Q2143.43 209.955 2143.43 208.409 Q2143.43 206.687 2144.59 205.493 Q2145.79 204.263 2147.4 204.263 Q2148.42 204.263 2149.23 204.86 Q2150.07 205.458 2150.07 206.758 Q2150.07 208.198 2149.09 209.287 Q2148.11 210.376 2146.7 210.657 Q2148.14 211.571 2150.28 211.571 Q2152.6 211.571 2154.43 209.533 Q2156.26 207.495 2157.14 204.087 Q2159.31 195.901 2160.16 192.247 Q2161 188.558 2161 186.977 Q2161 185.502 2160.61 184.483 Q2160.23 183.464 2159.56 183.007 Q2158.93 182.515 2158.33 182.34 Q2157.77 182.164 2157.14 182.164 Q2156.08 182.164 2154.89 182.586 Q2153.73 183.007 2152.32 183.991 Q2150.95 184.94 2149.65 186.907 Q2148.35 188.875 2147.47 191.58 Q2147.3 192.388 2146.53 192.388 Q2145.68 192.353 2145.68 191.65 Q2145.68 191.053 2146.14 189.823 Q2146.63 188.558 2147.61 186.977 Q2148.63 185.396 2149.93 183.991 Q2151.27 182.551 2153.2 181.567 Q2155.17 180.583 2157.28 180.583 Q2158.23 180.583 2159.14 180.794 Q2160.09 180.969 2161.21 181.496 Q2162.37 182.024 2163.39 183.183 Q2164.41 184.342 2165.04 186.029 Q2165.46 185.221 2166.02 184.448 Q2166.62 183.675 2167.54 182.726 Q2168.48 181.742 2169.78 181.18 Q2171.12 180.583 2172.59 180.583 Q2174.04 180.583 2175.44 180.969 Q2176.85 181.321 2178.04 182.48 Q2179.27 183.605 2179.27 185.326 Z" fill="#000000" fill-rule="evenodd" fill-opacity="1" /><path clip-path="url(#clip880)" d="M2186.2 229.665 Q2186.2 229.313 2187.11 228.435 Q2198.71 216.63 2198.71 194.391 Q2198.71 172.081 2187.57 160.803 Q2186.2 159.503 2186.2 159.116 Q2186.2 158.414 2186.9 158.414 Q2187.39 158.414 2189.11 159.854 Q2190.87 161.295 2193.51 164.597 Q2196.18 167.9 2198.14 171.94 Q2202.89 181.742 2202.89 194.391 Q2202.89 206.547 2198.35 216.349 Q2196.42 220.46 2193.72 223.903 Q2191.01 227.346 2189.22 228.857 Q2187.43 230.367 2186.9 230.367 Q2186.2 230.367 2186.2 229.665 Z" fill="#000000" fill-rule="evenodd" fill-opacity="1" /><path clip-path="url(#clip880)" d="M2210.95 228.716 L2216.99 228.716 L2216.99 160.065 L2210.95 160.065 L2210.95 158.414 L2221.8 158.414 L2221.8 230.367 L2210.95 230.367 L2210.95 228.716 Z" fill="#000000" fill-rule="evenodd" fill-opacity="1" /><polyline clip-path="url(#clip880)" style="stroke:#e26f46; stroke-linecap:butt; stroke-linejoin:round; stroke-width:6; stroke-opacity:1; fill:none" points="
  1832.29,261.359 1978.7,261.359 
  "/>
<path clip-path="url(#clip880)" d="M2038.97 243.768 Q2038.97 245.7 2037.74 246.895 Q2036.55 248.089 2035.04 248.089 Q2033.95 248.089 2033.14 247.422 Q2032.37 246.754 2032.37 245.595 Q2032.37 244.4 2033.28 243.136 Q2034.19 241.871 2036.27 241.695 Q2034.9 240.395 2032.72 240.395 Q2031.63 240.395 2030.72 241.098 Q2029.84 241.765 2029.34 242.854 Q2028.82 243.979 2027.62 250.338 Q2027.24 252.411 2026.89 254.413 Q2026.53 256.416 2026.11 258.524 L2032.09 258.524 Q2032.86 258.524 2033.17 258.559 Q2033.49 258.594 2033.74 258.77 Q2034.02 258.946 2034.02 259.332 Q2034.02 260.316 2033.56 260.562 Q2033.14 260.773 2031.87 260.773 L2025.69 260.773 L2021.37 283.574 Q2021.26 284.242 2020.81 286.35 Q2020.39 288.423 2019.37 291.831 Q2018.35 295.274 2017.33 297.312 Q2016.77 298.471 2016.03 299.56 Q2015.33 300.684 2014.31 301.809 Q2013.29 302.933 2011.95 303.601 Q2010.62 304.303 2009.21 304.303 Q2006.82 304.303 2004.96 302.968 Q2003.1 301.633 2003.1 299.349 Q2003.1 297.417 2004.29 296.223 Q2005.52 295.028 2007.03 295.028 Q2008.12 295.028 2008.9 295.696 Q2009.71 296.363 2009.71 297.522 Q2009.71 298.014 2009.53 298.576 Q2009.35 299.139 2008.97 299.771 Q2008.58 300.439 2007.74 300.895 Q2006.89 301.352 2005.74 301.422 Q2007.11 302.722 2009.21 302.722 Q2009.88 302.722 2010.48 302.441 Q2011.08 302.195 2011.57 301.563 Q2012.09 300.93 2012.48 300.298 Q2012.87 299.701 2013.25 298.541 Q2013.64 297.417 2013.89 296.574 Q2014.13 295.731 2014.45 294.22 Q2014.8 292.709 2014.98 291.796 Q2015.15 290.917 2015.47 289.196 L2020.84 260.773 L2016.1 260.773 Q2015.26 260.773 2014.9 260.738 Q2014.59 260.702 2014.34 260.527 Q2014.1 260.316 2014.1 259.894 Q2014.1 259.227 2014.38 258.946 Q2014.69 258.629 2015.05 258.594 Q2015.4 258.524 2016.24 258.524 L2021.23 258.524 Q2022.92 249.635 2023.58 247.246 Q2024.36 244.717 2025.55 242.96 Q2026.74 241.168 2028.08 240.325 Q2029.42 239.482 2030.5 239.165 Q2031.63 238.814 2032.72 238.814 Q2035.18 238.814 2037.07 240.149 Q2038.97 241.449 2038.97 243.768 Z" fill="#000000" fill-rule="evenodd" fill-opacity="1" /><path clip-path="url(#clip880)" d="M2048.66 271.559 Q2048.66 259.402 2053.19 249.6 Q2055.12 245.489 2057.83 242.046 Q2060.53 238.603 2062.33 237.093 Q2064.12 235.582 2064.61 235.582 Q2065.31 235.582 2065.35 236.284 Q2065.35 236.636 2064.4 237.514 Q2052.8 249.319 2052.84 271.559 Q2052.84 293.869 2064.12 305.217 Q2065.35 306.446 2065.35 306.833 Q2065.35 307.536 2064.61 307.536 Q2064.12 307.536 2062.4 306.095 Q2060.67 304.655 2058 301.352 Q2055.33 298.049 2053.4 294.009 Q2048.66 284.207 2048.66 271.559 Z" fill="#000000" fill-rule="evenodd" fill-opacity="1" /><path clip-path="url(#clip880)" d="M2106.65 262.494 Q2106.65 264.462 2105.42 265.586 Q2104.19 266.675 2102.79 266.675 Q2101.45 266.675 2100.75 265.902 Q2100.05 265.129 2100.05 264.145 Q2100.05 262.81 2101.03 261.651 Q2102.01 260.492 2103.49 260.246 Q2102.05 259.332 2099.91 259.332 Q2098.5 259.332 2097.27 260.07 Q2096.08 260.808 2095.34 261.756 Q2094.64 262.705 2094 264.075 Q2093.41 265.41 2093.16 266.218 Q2092.95 266.991 2092.77 267.835 L2090.31 277.672 Q2089.12 282.345 2089.12 283.996 Q2089.12 286.034 2090.1 287.404 Q2091.09 288.739 2093.06 288.739 Q2093.83 288.739 2094.71 288.528 Q2095.58 288.282 2096.71 287.65 Q2097.87 286.982 2098.89 285.999 Q2099.94 284.98 2100.96 283.258 Q2101.98 281.537 2102.65 279.323 Q2102.86 278.55 2103.56 278.55 Q2104.44 278.55 2104.44 279.253 Q2104.44 279.85 2103.95 281.115 Q2103.49 282.345 2102.47 283.961 Q2101.49 285.542 2100.19 286.982 Q2098.89 288.388 2096.95 289.371 Q2095.02 290.355 2092.91 290.355 Q2089.89 290.355 2087.89 288.739 Q2085.89 287.123 2085.15 284.874 Q2084.97 285.191 2084.73 285.612 Q2084.48 286.034 2083.74 286.982 Q2083.04 287.896 2082.23 288.599 Q2081.43 289.266 2080.16 289.793 Q2078.93 290.355 2077.6 290.355 Q2075.91 290.355 2074.4 289.863 Q2072.92 289.371 2071.87 288.247 Q2070.82 287.123 2070.82 285.577 Q2070.82 283.855 2071.97 282.661 Q2073.17 281.431 2074.79 281.431 Q2075.8 281.431 2076.61 282.029 Q2077.46 282.626 2077.46 283.926 Q2077.46 285.366 2076.47 286.455 Q2075.49 287.544 2074.08 287.826 Q2075.52 288.739 2077.67 288.739 Q2079.99 288.739 2081.81 286.701 Q2083.64 284.664 2084.52 281.256 Q2086.7 273.069 2087.54 269.416 Q2088.38 265.726 2088.38 264.145 Q2088.38 262.67 2088 261.651 Q2087.61 260.632 2086.94 260.175 Q2086.31 259.683 2085.71 259.508 Q2085.15 259.332 2084.52 259.332 Q2083.46 259.332 2082.27 259.754 Q2081.11 260.175 2079.7 261.159 Q2078.33 262.108 2077.03 264.075 Q2075.73 266.043 2074.86 268.748 Q2074.68 269.556 2073.91 269.556 Q2073.06 269.521 2073.06 268.818 Q2073.06 268.221 2073.52 266.991 Q2074.01 265.726 2075 264.145 Q2076.02 262.564 2077.32 261.159 Q2078.65 259.719 2080.58 258.735 Q2082.55 257.751 2084.66 257.751 Q2085.61 257.751 2086.52 257.962 Q2087.47 258.138 2088.59 258.665 Q2089.75 259.192 2090.77 260.351 Q2091.79 261.51 2092.42 263.197 Q2092.84 262.389 2093.41 261.616 Q2094 260.843 2094.92 259.894 Q2095.87 258.911 2097.17 258.348 Q2098.5 257.751 2099.98 257.751 Q2101.42 257.751 2102.82 258.138 Q2104.23 258.489 2105.42 259.648 Q2106.65 260.773 2106.65 262.494 Z" fill="#000000" fill-rule="evenodd" fill-opacity="1" /><path clip-path="url(#clip880)" d="M2113.58 306.833 Q2113.58 306.482 2114.49 305.603 Q2126.09 293.798 2126.09 271.559 Q2126.09 249.249 2114.95 237.971 Q2113.58 236.671 2113.58 236.284 Q2113.58 235.582 2114.28 235.582 Q2114.77 235.582 2116.5 237.022 Q2118.25 238.463 2120.89 241.765 Q2123.56 245.068 2125.52 249.108 Q2130.27 258.911 2130.27 271.559 Q2130.27 283.715 2125.74 293.517 Q2123.8 297.628 2121.1 301.071 Q2118.39 304.514 2116.6 306.025 Q2114.81 307.536 2114.28 307.536 Q2113.58 307.536 2113.58 306.833 Z" fill="#000000" fill-rule="evenodd" fill-opacity="1" /></svg>
