<?xml version="1.0" encoding="utf-8"?>
<svg xmlns="http://www.w3.org/2000/svg" xmlns:xlink="http://www.w3.org/1999/xlink" width="600" height="400" viewBox="0 0 2400 1600">
<defs>
  <clipPath id="clip240">
    <rect x="0" y="0" width="2400" height="1600"/>
  </clipPath>
</defs>
<path clip-path="url(#clip240)" d="
M0 1600 L2400 1600 L2400 0 L0 0  Z
  " fill="#ffffff" fill-rule="evenodd" fill-opacity="1"/>
<defs>
  <clipPath id="clip241">
    <rect x="480" y="0" width="1681" height="1600"/>
  </clipPath>
</defs>
<path clip-path="url(#clip240)" d="
M213.607 1486.45 L2352.76 1486.45 L2352.76 47.2441 L213.607 47.2441  Z
  " fill="#ffffff" fill-rule="evenodd" fill-opacity="1"/>
<defs>
  <clipPath id="clip242">
    <rect x="213" y="47" width="2140" height="1440"/>
  </clipPath>
</defs>
<polyline clip-path="url(#clip242)" style="stroke:#000000; stroke-linecap:butt; stroke-linejoin:round; stroke-width:2; stroke-opacity:0.1; fill:none" points="
  213.607,1486.45 213.607,47.2441 
  "/>
<polyline clip-path="url(#clip242)" style="stroke:#000000; stroke-linecap:butt; stroke-linejoin:round; stroke-width:2; stroke-opacity:0.1; fill:none" points="
  748.395,1486.45 748.395,47.2441 
  "/>
<polyline clip-path="url(#clip242)" style="stroke:#000000; stroke-linecap:butt; stroke-linejoin:round; stroke-width:2; stroke-opacity:0.1; fill:none" points="
  1283.18,1486.45 1283.18,47.2441 
  "/>
<polyline clip-path="url(#clip242)" style="stroke:#000000; stroke-linecap:butt; stroke-linejoin:round; stroke-width:2; stroke-opacity:0.1; fill:none" points="
  1817.97,1486.45 1817.97,47.2441 
  "/>
<polyline clip-path="url(#clip242)" style="stroke:#000000; stroke-linecap:butt; stroke-linejoin:round; stroke-width:2; stroke-opacity:0.1; fill:none" points="
  2352.76,1486.45 2352.76,47.2441 
  "/>
<polyline clip-path="url(#clip240)" style="stroke:#000000; stroke-linecap:butt; stroke-linejoin:round; stroke-width:4; stroke-opacity:1; fill:none" points="
  213.607,1486.45 2352.76,1486.45 
  "/>
<polyline clip-path="url(#clip240)" style="stroke:#000000; stroke-linecap:butt; stroke-linejoin:round; stroke-width:4; stroke-opacity:1; fill:none" points="
  213.607,1486.45 213.607,1467.55 
  "/>
<polyline clip-path="url(#clip240)" style="stroke:#000000; stroke-linecap:butt; stroke-linejoin:round; stroke-width:4; stroke-opacity:1; fill:none" points="
  748.395,1486.45 748.395,1467.55 
  "/>
<polyline clip-path="url(#clip240)" style="stroke:#000000; stroke-linecap:butt; stroke-linejoin:round; stroke-width:4; stroke-opacity:1; fill:none" points="
  1283.18,1486.45 1283.18,1467.55 
  "/>
<polyline clip-path="url(#clip240)" style="stroke:#000000; stroke-linecap:butt; stroke-linejoin:round; stroke-width:4; stroke-opacity:1; fill:none" points="
  1817.97,1486.45 1817.97,1467.55 
  "/>
<polyline clip-path="url(#clip240)" style="stroke:#000000; stroke-linecap:butt; stroke-linejoin:round; stroke-width:4; stroke-opacity:1; fill:none" points="
  2352.76,1486.45 2352.76,1467.55 
  "/>
<path clip-path="url(#clip240)" d="M213.607 1517.37 Q209.996 1517.37 208.168 1520.93 Q206.362 1524.47 206.362 1531.6 Q206.362 1538.71 208.168 1542.27 Q209.996 1545.82 213.607 1545.82 Q217.242 1545.82 219.047 1542.27 Q220.876 1538.71 220.876 1531.6 Q220.876 1524.47 219.047 1520.93 Q217.242 1517.37 213.607 1517.37 M213.607 1513.66 Q219.418 1513.66 222.473 1518.27 Q225.552 1522.85 225.552 1531.6 Q225.552 1540.33 222.473 1544.94 Q219.418 1549.52 213.607 1549.52 Q207.797 1549.52 204.719 1544.94 Q201.663 1540.33 201.663 1531.6 Q201.663 1522.85 204.719 1518.27 Q207.797 1513.66 213.607 1513.66 Z" fill="#000000" fill-rule="evenodd" fill-opacity="1" /><path clip-path="url(#clip240)" d="M738.672 1514.29 L757.029 1514.29 L757.029 1518.22 L742.955 1518.22 L742.955 1526.7 Q743.973 1526.35 744.992 1526.19 Q746.01 1526 747.029 1526 Q752.816 1526 756.195 1529.17 Q759.575 1532.34 759.575 1537.76 Q759.575 1543.34 756.103 1546.44 Q752.631 1549.52 746.311 1549.52 Q744.135 1549.52 741.867 1549.15 Q739.621 1548.78 737.214 1548.04 L737.214 1543.34 Q739.297 1544.47 741.52 1545.03 Q743.742 1545.58 746.219 1545.58 Q750.223 1545.58 752.561 1543.48 Q754.899 1541.37 754.899 1537.76 Q754.899 1534.15 752.561 1532.04 Q750.223 1529.94 746.219 1529.94 Q744.344 1529.94 742.469 1530.35 Q740.617 1530.77 738.672 1531.65 L738.672 1514.29 Z" fill="#000000" fill-rule="evenodd" fill-opacity="1" /><path clip-path="url(#clip240)" d="M1257.87 1544.91 L1265.51 1544.91 L1265.51 1518.55 L1257.2 1520.21 L1257.2 1515.95 L1265.46 1514.29 L1270.14 1514.29 L1270.14 1544.91 L1277.78 1544.91 L1277.78 1548.85 L1257.87 1548.85 L1257.87 1544.91 Z" fill="#000000" fill-rule="evenodd" fill-opacity="1" /><path clip-path="url(#clip240)" d="M1297.22 1517.37 Q1293.61 1517.37 1291.78 1520.93 Q1289.98 1524.47 1289.98 1531.6 Q1289.98 1538.71 1291.78 1542.27 Q1293.61 1545.82 1297.22 1545.82 Q1300.86 1545.82 1302.66 1542.27 Q1304.49 1538.71 1304.49 1531.6 Q1304.49 1524.47 1302.66 1520.93 Q1300.86 1517.37 1297.22 1517.37 M1297.22 1513.66 Q1303.03 1513.66 1306.09 1518.27 Q1309.17 1522.85 1309.17 1531.6 Q1309.17 1540.33 1306.09 1544.94 Q1303.03 1549.52 1297.22 1549.52 Q1291.41 1549.52 1288.33 1544.94 Q1285.28 1540.33 1285.28 1531.6 Q1285.28 1522.85 1288.33 1518.27 Q1291.41 1513.66 1297.22 1513.66 Z" fill="#000000" fill-rule="evenodd" fill-opacity="1" /><path clip-path="url(#clip240)" d="M1793.15 1544.91 L1800.79 1544.91 L1800.79 1518.55 L1792.48 1520.21 L1792.48 1515.95 L1800.75 1514.29 L1805.42 1514.29 L1805.42 1544.91 L1813.06 1544.91 L1813.06 1548.85 L1793.15 1548.85 L1793.15 1544.91 Z" fill="#000000" fill-rule="evenodd" fill-opacity="1" /><path clip-path="url(#clip240)" d="M1822.55 1514.29 L1840.91 1514.29 L1840.91 1518.22 L1826.83 1518.22 L1826.83 1526.7 Q1827.85 1526.35 1828.87 1526.19 Q1829.89 1526 1830.91 1526 Q1836.7 1526 1840.08 1529.17 Q1843.45 1532.34 1843.45 1537.76 Q1843.45 1543.34 1839.98 1546.44 Q1836.51 1549.52 1830.19 1549.52 Q1828.02 1549.52 1825.75 1549.15 Q1823.5 1548.78 1821.09 1548.04 L1821.09 1543.34 Q1823.18 1544.47 1825.4 1545.03 Q1827.62 1545.58 1830.1 1545.58 Q1834.1 1545.58 1836.44 1543.48 Q1838.78 1541.37 1838.78 1537.76 Q1838.78 1534.15 1836.44 1532.04 Q1834.1 1529.94 1830.1 1529.94 Q1828.22 1529.94 1826.35 1530.35 Q1824.5 1530.77 1822.55 1531.65 L1822.55 1514.29 Z" fill="#000000" fill-rule="evenodd" fill-opacity="1" /><path clip-path="url(#clip240)" d="M2331.53 1544.91 L2347.85 1544.91 L2347.85 1548.85 L2325.9 1548.85 L2325.9 1544.91 Q2328.57 1542.16 2333.15 1537.53 Q2337.76 1532.88 2338.94 1531.53 Q2341.18 1529.01 2342.06 1527.27 Q2342.96 1525.51 2342.96 1523.82 Q2342.96 1521.07 2341.02 1519.33 Q2339.1 1517.6 2336 1517.6 Q2333.8 1517.6 2331.34 1518.36 Q2328.91 1519.13 2326.14 1520.68 L2326.14 1515.95 Q2328.96 1514.82 2331.41 1514.24 Q2333.87 1513.66 2335.9 1513.66 Q2341.27 1513.66 2344.47 1516.35 Q2347.66 1519.03 2347.66 1523.52 Q2347.66 1525.65 2346.85 1527.57 Q2346.07 1529.47 2343.96 1532.07 Q2343.38 1532.74 2340.28 1535.95 Q2337.18 1539.15 2331.53 1544.91 Z" fill="#000000" fill-rule="evenodd" fill-opacity="1" /><path clip-path="url(#clip240)" d="M2367.66 1517.37 Q2364.05 1517.37 2362.22 1520.93 Q2360.42 1524.47 2360.42 1531.6 Q2360.42 1538.71 2362.22 1542.27 Q2364.05 1545.82 2367.66 1545.82 Q2371.3 1545.82 2373.1 1542.27 Q2374.93 1538.71 2374.93 1531.6 Q2374.93 1524.47 2373.1 1520.93 Q2371.3 1517.37 2367.66 1517.37 M2367.66 1513.66 Q2373.47 1513.66 2376.53 1518.27 Q2379.61 1522.85 2379.61 1531.6 Q2379.61 1540.33 2376.53 1544.94 Q2373.47 1549.52 2367.66 1549.52 Q2361.85 1549.52 2358.77 1544.94 Q2355.72 1540.33 2355.72 1531.6 Q2355.72 1522.85 2358.77 1518.27 Q2361.85 1513.66 2367.66 1513.66 Z" fill="#000000" fill-rule="evenodd" fill-opacity="1" /><polyline clip-path="url(#clip242)" style="stroke:#000000; stroke-linecap:butt; stroke-linejoin:round; stroke-width:2; stroke-opacity:0.1; fill:none" points="
  213.607,1486.45 2352.76,1486.45 
  "/>
<polyline clip-path="url(#clip242)" style="stroke:#000000; stroke-linecap:butt; stroke-linejoin:round; stroke-width:2; stroke-opacity:0.1; fill:none" points="
  213.607,832.264 2352.76,832.264 
  "/>
<polyline clip-path="url(#clip242)" style="stroke:#000000; stroke-linecap:butt; stroke-linejoin:round; stroke-width:2; stroke-opacity:0.1; fill:none" points="
  213.607,178.081 2352.76,178.081 
  "/>
<polyline clip-path="url(#clip240)" style="stroke:#000000; stroke-linecap:butt; stroke-linejoin:round; stroke-width:4; stroke-opacity:1; fill:none" points="
  213.607,1486.45 213.607,47.2441 
  "/>
<polyline clip-path="url(#clip240)" style="stroke:#000000; stroke-linecap:butt; stroke-linejoin:round; stroke-width:4; stroke-opacity:1; fill:none" points="
  213.607,1486.45 232.505,1486.45 
  "/>
<polyline clip-path="url(#clip240)" style="stroke:#000000; stroke-linecap:butt; stroke-linejoin:round; stroke-width:4; stroke-opacity:1; fill:none" points="
  213.607,832.264 232.505,832.264 
  "/>
<polyline clip-path="url(#clip240)" style="stroke:#000000; stroke-linecap:butt; stroke-linejoin:round; stroke-width:4; stroke-opacity:1; fill:none" points="
  213.607,178.081 232.505,178.081 
  "/>
<path clip-path="url(#clip240)" d="M51.6634 1506.24 L59.3023 1506.24 L59.3023 1479.87 L50.9921 1481.54 L50.9921 1477.28 L59.256 1475.62 L63.9319 1475.62 L63.9319 1506.24 L71.5707 1506.24 L71.5707 1510.18 L51.6634 1510.18 L51.6634 1506.24 Z" fill="#000000" fill-rule="evenodd" fill-opacity="1" /><path clip-path="url(#clip240)" d="M91.0151 1478.69 Q87.404 1478.69 85.5753 1482.26 Q83.7697 1485.8 83.7697 1492.93 Q83.7697 1500.04 85.5753 1503.6 Q87.404 1507.14 91.0151 1507.14 Q94.6493 1507.14 96.4548 1503.6 Q98.2835 1500.04 98.2835 1492.93 Q98.2835 1485.8 96.4548 1482.26 Q94.6493 1478.69 91.0151 1478.69 M91.0151 1474.99 Q96.8252 1474.99 99.8808 1479.6 Q102.959 1484.18 102.959 1492.93 Q102.959 1501.66 99.8808 1506.26 Q96.8252 1510.85 91.0151 1510.85 Q85.2049 1510.85 82.1262 1506.26 Q79.0707 1501.66 79.0707 1492.93 Q79.0707 1484.18 82.1262 1479.6 Q85.2049 1474.99 91.0151 1474.99 Z" fill="#000000" fill-rule="evenodd" fill-opacity="1" /><path clip-path="url(#clip240)" d="M102.959 1469.09 L127.071 1469.09 L127.071 1472.29 L102.959 1472.29 L102.959 1469.09 Z" fill="#000000" fill-rule="evenodd" fill-opacity="1" /><path clip-path="url(#clip240)" d="M135.929 1479.57 L142.136 1479.57 L142.136 1458.15 L135.384 1459.5 L135.384 1456.04 L142.098 1454.69 L145.898 1454.69 L145.898 1479.57 L152.104 1479.57 L152.104 1482.77 L135.929 1482.77 L135.929 1479.57 Z" fill="#000000" fill-rule="evenodd" fill-opacity="1" /><path clip-path="url(#clip240)" d="M167.903 1457.19 Q164.969 1457.19 163.483 1460.08 Q162.016 1462.96 162.016 1468.75 Q162.016 1474.53 163.483 1477.42 Q164.969 1480.3 167.903 1480.3 Q170.855 1480.3 172.322 1477.42 Q173.808 1474.53 173.808 1468.75 Q173.808 1462.96 172.322 1460.08 Q170.855 1457.19 167.903 1457.19 M167.903 1454.18 Q172.623 1454.18 175.106 1457.92 Q177.607 1461.64 177.607 1468.75 Q177.607 1475.84 175.106 1479.59 Q172.623 1483.31 167.903 1483.31 Q163.182 1483.31 160.68 1479.59 Q158.198 1475.84 158.198 1468.75 Q158.198 1461.64 160.68 1457.92 Q163.182 1454.18 167.903 1454.18 Z" fill="#000000" fill-rule="evenodd" fill-opacity="1" /><path clip-path="url(#clip240)" d="M76.9787 852.057 L84.6175 852.057 L84.6175 825.691 L76.3074 827.358 L76.3074 823.099 L84.5712 821.432 L89.2471 821.432 L89.2471 852.057 L96.886 852.057 L96.886 855.992 L76.9787 855.992 L76.9787 852.057 Z" fill="#000000" fill-rule="evenodd" fill-opacity="1" /><path clip-path="url(#clip240)" d="M116.33 824.511 Q112.719 824.511 110.891 828.075 Q109.085 831.617 109.085 838.747 Q109.085 845.853 110.891 849.418 Q112.719 852.96 116.33 852.96 Q119.965 852.96 121.77 849.418 Q123.599 845.853 123.599 838.747 Q123.599 831.617 121.77 828.075 Q119.965 824.511 116.33 824.511 M116.33 820.807 Q122.14 820.807 125.196 825.413 Q128.275 829.997 128.275 838.747 Q128.275 847.473 125.196 852.08 Q122.14 856.663 116.33 856.663 Q110.52 856.663 107.441 852.08 Q104.386 847.473 104.386 838.747 Q104.386 829.997 107.441 825.413 Q110.52 820.807 116.33 820.807 Z" fill="#000000" fill-rule="evenodd" fill-opacity="1" /><path clip-path="url(#clip240)" d="M128.275 814.908 L152.386 814.908 L152.386 818.106 L128.275 818.106 L128.275 814.908 Z" fill="#000000" fill-rule="evenodd" fill-opacity="1" /><path clip-path="url(#clip240)" d="M160.624 800.502 L175.539 800.502 L175.539 803.699 L164.103 803.699 L164.103 810.583 Q164.931 810.3 165.759 810.169 Q166.586 810.018 167.414 810.018 Q172.116 810.018 174.862 812.595 Q177.607 815.172 177.607 819.573 Q177.607 824.105 174.786 826.626 Q171.965 829.127 166.831 829.127 Q165.063 829.127 163.22 828.826 Q161.395 828.525 159.439 827.923 L159.439 824.105 Q161.132 825.027 162.937 825.478 Q164.743 825.93 166.755 825.93 Q170.009 825.93 171.909 824.218 Q173.808 822.507 173.808 819.573 Q173.808 816.639 171.909 814.927 Q170.009 813.216 166.755 813.216 Q165.232 813.216 163.709 813.554 Q162.204 813.893 160.624 814.607 L160.624 800.502 Z" fill="#000000" fill-rule="evenodd" fill-opacity="1" /><path clip-path="url(#clip240)" d="M106.902 197.873 L114.541 197.873 L114.541 171.508 L106.231 173.174 L106.231 168.915 L114.494 167.248 L119.17 167.248 L119.17 197.873 L126.809 197.873 L126.809 201.808 L106.902 201.808 L106.902 197.873 Z" fill="#000000" fill-rule="evenodd" fill-opacity="1" /><path clip-path="url(#clip240)" d="M146.253 170.327 Q142.642 170.327 140.814 173.892 Q139.008 177.434 139.008 184.563 Q139.008 191.67 140.814 195.234 Q142.642 198.776 146.253 198.776 Q149.888 198.776 151.693 195.234 Q153.522 191.67 153.522 184.563 Q153.522 177.434 151.693 173.892 Q149.888 170.327 146.253 170.327 M146.253 166.623 Q152.064 166.623 155.119 171.23 Q158.198 175.813 158.198 184.563 Q158.198 193.29 155.119 197.896 Q152.064 202.48 146.253 202.48 Q140.443 202.48 137.365 197.896 Q134.309 193.29 134.309 184.563 Q134.309 175.813 137.365 171.23 Q140.443 166.623 146.253 166.623 Z" fill="#000000" fill-rule="evenodd" fill-opacity="1" /><path clip-path="url(#clip240)" d="M167.903 148.819 Q164.969 148.819 163.483 151.716 Q162.016 154.593 162.016 160.386 Q162.016 166.16 163.483 169.057 Q164.969 171.934 167.903 171.934 Q170.855 171.934 172.322 169.057 Q173.808 166.16 173.808 160.386 Q173.808 154.593 172.322 151.716 Q170.855 148.819 167.903 148.819 M167.903 145.81 Q172.623 145.81 175.106 149.553 Q177.607 153.277 177.607 160.386 Q177.607 167.477 175.106 171.219 Q172.623 174.943 167.903 174.943 Q163.182 174.943 160.68 171.219 Q158.198 167.477 158.198 160.386 Q158.198 153.277 160.68 149.553 Q163.182 145.81 167.903 145.81 Z" fill="#000000" fill-rule="evenodd" fill-opacity="1" /><circle clip-path="url(#clip242)" cx="320.565" cy="284.309" r="14" fill="#009af9" fill-rule="evenodd" fill-opacity="1" stroke="#000000" stroke-opacity="1" stroke-width="3.2"/>
<circle clip-path="url(#clip242)" cx="427.522" cy="491.916" r="14" fill="#009af9" fill-rule="evenodd" fill-opacity="1" stroke="#000000" stroke-opacity="1" stroke-width="3.2"/>
<circle clip-path="url(#clip242)" cx="534.48" cy="494.573" r="14" fill="#009af9" fill-rule="evenodd" fill-opacity="1" stroke="#000000" stroke-opacity="1" stroke-width="3.2"/>
<circle clip-path="url(#clip242)" cx="641.437" cy="649.117" r="14" fill="#009af9" fill-rule="evenodd" fill-opacity="1" stroke="#000000" stroke-opacity="1" stroke-width="3.2"/>
<circle clip-path="url(#clip242)" cx="748.395" cy="822.727" r="14" fill="#009af9" fill-rule="evenodd" fill-opacity="1" stroke="#000000" stroke-opacity="1" stroke-width="3.2"/>
<circle clip-path="url(#clip242)" cx="855.352" cy="828.376" r="14" fill="#009af9" fill-rule="evenodd" fill-opacity="1" stroke="#000000" stroke-opacity="1" stroke-width="3.2"/>
<circle clip-path="url(#clip242)" cx="962.309" cy="832.826" r="14" fill="#009af9" fill-rule="evenodd" fill-opacity="1" stroke="#000000" stroke-opacity="1" stroke-width="3.2"/>
<circle clip-path="url(#clip242)" cx="1069.27" cy="834.075" r="14" fill="#009af9" fill-rule="evenodd" fill-opacity="1" stroke="#000000" stroke-opacity="1" stroke-width="3.2"/>
<circle clip-path="url(#clip242)" cx="1176.22" cy="975.159" r="14" fill="#009af9" fill-rule="evenodd" fill-opacity="1" stroke="#000000" stroke-opacity="1" stroke-width="3.2"/>
<circle clip-path="url(#clip242)" cx="1283.18" cy="1129.08" r="14" fill="#009af9" fill-rule="evenodd" fill-opacity="1" stroke="#000000" stroke-opacity="1" stroke-width="3.2"/>
<circle clip-path="url(#clip242)" cx="1390.14" cy="1143.34" r="14" fill="#009af9" fill-rule="evenodd" fill-opacity="1" stroke="#000000" stroke-opacity="1" stroke-width="3.2"/>
<circle clip-path="url(#clip242)" cx="1497.1" cy="1147.85" r="14" fill="#009af9" fill-rule="evenodd" fill-opacity="1" stroke="#000000" stroke-opacity="1" stroke-width="3.2"/>
<circle clip-path="url(#clip242)" cx="1604.05" cy="1149.68" r="14" fill="#009af9" fill-rule="evenodd" fill-opacity="1" stroke="#000000" stroke-opacity="1" stroke-width="3.2"/>
<circle clip-path="url(#clip242)" cx="1711.01" cy="1155.62" r="14" fill="#009af9" fill-rule="evenodd" fill-opacity="1" stroke="#000000" stroke-opacity="1" stroke-width="3.2"/>
<circle clip-path="url(#clip242)" cx="1817.97" cy="1161.5" r="14" fill="#009af9" fill-rule="evenodd" fill-opacity="1" stroke="#000000" stroke-opacity="1" stroke-width="3.2"/>
<circle clip-path="url(#clip242)" cx="1924.93" cy="1295.52" r="14" fill="#009af9" fill-rule="evenodd" fill-opacity="1" stroke="#000000" stroke-opacity="1" stroke-width="3.2"/>
<circle clip-path="url(#clip242)" cx="2031.88" cy="1426.3" r="14" fill="#009af9" fill-rule="evenodd" fill-opacity="1" stroke="#000000" stroke-opacity="1" stroke-width="3.2"/>
<circle clip-path="url(#clip242)" cx="2138.84" cy="1448.66" r="14" fill="#009af9" fill-rule="evenodd" fill-opacity="1" stroke="#000000" stroke-opacity="1" stroke-width="3.2"/>
<circle clip-path="url(#clip242)" cx="2245.8" cy="1450.35" r="14" fill="#009af9" fill-rule="evenodd" fill-opacity="1" stroke="#000000" stroke-opacity="1" stroke-width="3.2"/>
<circle clip-path="url(#clip242)" cx="2352.76" cy="1466.51" r="14" fill="#009af9" fill-rule="evenodd" fill-opacity="1" stroke="#000000" stroke-opacity="1" stroke-width="3.2"/>
<path clip-path="url(#clip240)" d="
M1965.12 250.738 L2281.45 250.738 L2281.45 95.2176 L1965.12 95.2176  Z
  " fill="#ffffff" fill-rule="evenodd" fill-opacity="1"/>
<polyline clip-path="url(#clip240)" style="stroke:#000000; stroke-linecap:butt; stroke-linejoin:round; stroke-width:4; stroke-opacity:1; fill:none" points="
  1965.12,250.738 2281.45,250.738 2281.45,95.2176 1965.12,95.2176 1965.12,250.738 
  "/>
<circle clip-path="url(#clip240)" cx="2060.2" cy="172.978" r="34" fill="#009af9" fill-rule="evenodd" fill-opacity="1" stroke="#000000" stroke-opacity="1" stroke-width="7.68"/>
<path clip-path="url(#clip240)" d="M2176.03 202.509 Q2173.32 209.453 2170.75 211.571 Q2168.19 213.689 2163.88 213.689 L2158.78 213.689 L2158.78 208.342 L2162.53 208.342 Q2165.16 208.342 2166.62 207.092 Q2168.08 205.842 2169.85 201.189 L2171 198.273 L2155.27 160.009 L2162.04 160.009 L2174.19 190.425 L2186.35 160.009 L2193.12 160.009 L2176.03 202.509 Z" fill="#000000" fill-rule="evenodd" fill-opacity="1" /><path clip-path="url(#clip240)" d="M2204.05 192.995 L2215.51 192.995 L2215.51 153.446 L2203.05 155.946 L2203.05 149.558 L2215.44 147.058 L2222.46 147.058 L2222.46 192.995 L2233.91 192.995 L2233.91 198.898 L2204.05 198.898 L2204.05 192.995 Z" fill="#000000" fill-rule="evenodd" fill-opacity="1" /></svg>
