<?xml version="1.0" encoding="utf-8"?>
<svg xmlns="http://www.w3.org/2000/svg" xmlns:xlink="http://www.w3.org/1999/xlink" width="600" height="400" viewBox="0 0 2400 1600">
<defs>
  <clipPath id="clip880">
    <rect x="0" y="0" width="2400" height="1600"/>
  </clipPath>
</defs>
<path clip-path="url(#clip880)" d="
M0 1600 L2400 1600 L2400 0 L0 0  Z
  " fill="#ffffff" fill-rule="evenodd" fill-opacity="1"/>
<defs>
  <clipPath id="clip881">
    <rect x="480" y="0" width="1681" height="1600"/>
  </clipPath>
</defs>
<path clip-path="url(#clip880)" d="
M213.607 1486.45 L2352.76 1486.45 L2352.76 47.2441 L213.607 47.2441  Z
  " fill="#ffffff" fill-rule="evenodd" fill-opacity="1"/>
<defs>
  <clipPath id="clip882">
    <rect x="213" y="47" width="2140" height="1440"/>
  </clipPath>
</defs>
<polyline clip-path="url(#clip882)" style="stroke:#000000; stroke-linecap:butt; stroke-linejoin:round; stroke-width:2; stroke-opacity:0.1; fill:none" points="
  250.953,1486.45 250.953,47.2441 
  "/>
<polyline clip-path="url(#clip882)" style="stroke:#000000; stroke-linecap:butt; stroke-linejoin:round; stroke-width:2; stroke-opacity:0.1; fill:none" points="
  714.876,1486.45 714.876,47.2441 
  "/>
<polyline clip-path="url(#clip882)" style="stroke:#000000; stroke-linecap:butt; stroke-linejoin:round; stroke-width:2; stroke-opacity:0.1; fill:none" points="
  1178.8,1486.45 1178.8,47.2441 
  "/>
<polyline clip-path="url(#clip882)" style="stroke:#000000; stroke-linecap:butt; stroke-linejoin:round; stroke-width:2; stroke-opacity:0.1; fill:none" points="
  1642.72,1486.45 1642.72,47.2441 
  "/>
<polyline clip-path="url(#clip882)" style="stroke:#000000; stroke-linecap:butt; stroke-linejoin:round; stroke-width:2; stroke-opacity:0.1; fill:none" points="
  2106.64,1486.45 2106.64,47.2441 
  "/>
<polyline clip-path="url(#clip880)" style="stroke:#000000; stroke-linecap:butt; stroke-linejoin:round; stroke-width:4; stroke-opacity:1; fill:none" points="
  213.607,1486.45 2352.76,1486.45 
  "/>
<polyline clip-path="url(#clip880)" style="stroke:#000000; stroke-linecap:butt; stroke-linejoin:round; stroke-width:4; stroke-opacity:1; fill:none" points="
  250.953,1486.45 250.953,1467.55 
  "/>
<polyline clip-path="url(#clip880)" style="stroke:#000000; stroke-linecap:butt; stroke-linejoin:round; stroke-width:4; stroke-opacity:1; fill:none" points="
  714.876,1486.45 714.876,1467.55 
  "/>
<polyline clip-path="url(#clip880)" style="stroke:#000000; stroke-linecap:butt; stroke-linejoin:round; stroke-width:4; stroke-opacity:1; fill:none" points="
  1178.8,1486.45 1178.8,1467.55 
  "/>
<polyline clip-path="url(#clip880)" style="stroke:#000000; stroke-linecap:butt; stroke-linejoin:round; stroke-width:4; stroke-opacity:1; fill:none" points="
  1642.72,1486.45 1642.72,1467.55 
  "/>
<polyline clip-path="url(#clip880)" style="stroke:#000000; stroke-linecap:butt; stroke-linejoin:round; stroke-width:4; stroke-opacity:1; fill:none" points="
  2106.64,1486.45 2106.64,1467.55 
  "/>
<path clip-path="url(#clip880)" d="M250.953 1517.37 Q247.342 1517.37 245.513 1520.93 Q243.708 1524.47 243.708 1531.6 Q243.708 1538.71 245.513 1542.27 Q247.342 1545.82 250.953 1545.82 Q254.588 1545.82 256.393 1542.27 Q258.222 1538.71 258.222 1531.6 Q258.222 1524.47 256.393 1520.93 Q254.588 1517.37 250.953 1517.37 M250.953 1513.66 Q256.763 1513.66 259.819 1518.27 Q262.898 1522.85 262.898 1531.6 Q262.898 1540.33 259.819 1544.94 Q256.763 1549.52 250.953 1549.52 Q245.143 1549.52 242.064 1544.94 Q239.009 1540.33 239.009 1531.6 Q239.009 1522.85 242.064 1518.27 Q245.143 1513.66 250.953 1513.66 Z" fill="#000000" fill-rule="evenodd" fill-opacity="1" /><path clip-path="url(#clip880)" d="M693.649 1544.91 L709.969 1544.91 L709.969 1548.85 L688.024 1548.85 L688.024 1544.91 Q690.686 1542.16 695.27 1537.53 Q699.876 1532.88 701.057 1531.53 Q703.302 1529.01 704.182 1527.27 Q705.085 1525.51 705.085 1523.82 Q705.085 1521.07 703.14 1519.33 Q701.219 1517.6 698.117 1517.6 Q695.918 1517.6 693.464 1518.36 Q691.034 1519.13 688.256 1520.68 L688.256 1515.95 Q691.08 1514.82 693.534 1514.24 Q695.987 1513.66 698.024 1513.66 Q703.395 1513.66 706.589 1516.35 Q709.784 1519.03 709.784 1523.52 Q709.784 1525.65 708.973 1527.57 Q708.186 1529.47 706.08 1532.07 Q705.501 1532.74 702.399 1535.95 Q699.298 1539.15 693.649 1544.91 Z" fill="#000000" fill-rule="evenodd" fill-opacity="1" /><path clip-path="url(#clip880)" d="M729.783 1517.37 Q726.172 1517.37 724.344 1520.93 Q722.538 1524.47 722.538 1531.6 Q722.538 1538.71 724.344 1542.27 Q726.172 1545.82 729.783 1545.82 Q733.418 1545.82 735.223 1542.27 Q737.052 1538.71 737.052 1531.6 Q737.052 1524.47 735.223 1520.93 Q733.418 1517.37 729.783 1517.37 M729.783 1513.66 Q735.594 1513.66 738.649 1518.27 Q741.728 1522.85 741.728 1531.6 Q741.728 1540.33 738.649 1544.94 Q735.594 1549.52 729.783 1549.52 Q723.973 1549.52 720.895 1544.94 Q717.839 1540.33 717.839 1531.6 Q717.839 1522.85 720.895 1518.27 Q723.973 1513.66 729.783 1513.66 Z" fill="#000000" fill-rule="evenodd" fill-opacity="1" /><path clip-path="url(#clip880)" d="M1166.97 1518.36 L1155.16 1536.81 L1166.97 1536.81 L1166.97 1518.36 M1165.74 1514.29 L1171.62 1514.29 L1171.62 1536.81 L1176.55 1536.81 L1176.55 1540.7 L1171.62 1540.7 L1171.62 1548.85 L1166.97 1548.85 L1166.97 1540.7 L1151.37 1540.7 L1151.37 1536.19 L1165.74 1514.29 Z" fill="#000000" fill-rule="evenodd" fill-opacity="1" /><path clip-path="url(#clip880)" d="M1194.29 1517.37 Q1190.67 1517.37 1188.85 1520.93 Q1187.04 1524.47 1187.04 1531.6 Q1187.04 1538.71 1188.85 1542.27 Q1190.67 1545.82 1194.29 1545.82 Q1197.92 1545.82 1199.72 1542.27 Q1201.55 1538.71 1201.55 1531.6 Q1201.55 1524.47 1199.72 1520.93 Q1197.92 1517.37 1194.29 1517.37 M1194.29 1513.66 Q1200.1 1513.66 1203.15 1518.27 Q1206.23 1522.85 1206.23 1531.6 Q1206.23 1540.33 1203.15 1544.94 Q1200.1 1549.52 1194.29 1549.52 Q1188.47 1549.52 1185.4 1544.94 Q1182.34 1540.33 1182.34 1531.6 Q1182.34 1522.85 1185.4 1518.27 Q1188.47 1513.66 1194.29 1513.66 Z" fill="#000000" fill-rule="evenodd" fill-opacity="1" /><path clip-path="url(#clip880)" d="M1628.13 1529.7 Q1624.98 1529.7 1623.13 1531.86 Q1621.3 1534.01 1621.3 1537.76 Q1621.3 1541.49 1623.13 1543.66 Q1624.98 1545.82 1628.13 1545.82 Q1631.28 1545.82 1633.1 1543.66 Q1634.96 1541.49 1634.96 1537.76 Q1634.96 1534.01 1633.1 1531.86 Q1631.28 1529.7 1628.13 1529.7 M1637.41 1515.05 L1637.41 1519.31 Q1635.65 1518.48 1633.84 1518.04 Q1632.06 1517.6 1630.3 1517.6 Q1625.67 1517.6 1623.22 1520.72 Q1620.79 1523.85 1620.44 1530.17 Q1621.81 1528.15 1623.87 1527.09 Q1625.93 1526 1628.4 1526 Q1633.61 1526 1636.62 1529.17 Q1639.65 1532.32 1639.65 1537.76 Q1639.65 1543.08 1636.51 1546.3 Q1633.36 1549.52 1628.13 1549.52 Q1622.13 1549.52 1618.96 1544.94 Q1615.79 1540.33 1615.79 1531.6 Q1615.79 1523.41 1619.68 1518.55 Q1623.57 1513.66 1630.12 1513.66 Q1631.88 1513.66 1633.66 1514.01 Q1635.47 1514.36 1637.41 1515.05 Z" fill="#000000" fill-rule="evenodd" fill-opacity="1" /><path clip-path="url(#clip880)" d="M1657.71 1517.37 Q1654.1 1517.37 1652.27 1520.93 Q1650.46 1524.47 1650.46 1531.6 Q1650.46 1538.71 1652.27 1542.27 Q1654.1 1545.82 1657.71 1545.82 Q1661.34 1545.82 1663.15 1542.27 Q1664.98 1538.71 1664.98 1531.6 Q1664.98 1524.47 1663.15 1520.93 Q1661.34 1517.37 1657.71 1517.37 M1657.71 1513.66 Q1663.52 1513.66 1666.58 1518.27 Q1669.65 1522.85 1669.65 1531.6 Q1669.65 1540.33 1666.58 1544.94 Q1663.52 1549.52 1657.71 1549.52 Q1651.9 1549.52 1648.82 1544.94 Q1645.77 1540.33 1645.77 1531.6 Q1645.77 1522.85 1648.82 1518.27 Q1651.9 1513.66 1657.71 1513.66 Z" fill="#000000" fill-rule="evenodd" fill-opacity="1" /><path clip-path="url(#clip880)" d="M2091.52 1532.44 Q2088.18 1532.44 2086.26 1534.22 Q2084.36 1536 2084.36 1539.13 Q2084.36 1542.25 2086.26 1544.03 Q2088.18 1545.82 2091.52 1545.82 Q2094.85 1545.82 2096.77 1544.03 Q2098.69 1542.23 2098.69 1539.13 Q2098.69 1536 2096.77 1534.22 Q2094.87 1532.44 2091.52 1532.44 M2086.84 1530.45 Q2083.83 1529.7 2082.14 1527.64 Q2080.48 1525.58 2080.48 1522.62 Q2080.48 1518.48 2083.42 1516.07 Q2086.38 1513.66 2091.52 1513.66 Q2096.68 1513.66 2099.62 1516.07 Q2102.56 1518.48 2102.56 1522.62 Q2102.56 1525.58 2100.87 1527.64 Q2099.2 1529.7 2096.22 1530.45 Q2099.6 1531.23 2101.47 1533.52 Q2103.37 1535.82 2103.37 1539.13 Q2103.37 1544.15 2100.29 1546.83 Q2097.24 1549.52 2091.52 1549.52 Q2085.8 1549.52 2082.72 1546.83 Q2079.67 1544.15 2079.67 1539.13 Q2079.67 1535.82 2081.56 1533.52 Q2083.46 1531.23 2086.84 1530.45 M2085.13 1523.06 Q2085.13 1525.75 2086.8 1527.25 Q2088.49 1528.76 2091.52 1528.76 Q2094.53 1528.76 2096.22 1527.25 Q2097.93 1525.75 2097.93 1523.06 Q2097.93 1520.38 2096.22 1518.87 Q2094.53 1517.37 2091.52 1517.37 Q2088.49 1517.37 2086.8 1518.87 Q2085.13 1520.38 2085.13 1523.06 Z" fill="#000000" fill-rule="evenodd" fill-opacity="1" /><path clip-path="url(#clip880)" d="M2121.68 1517.37 Q2118.07 1517.37 2116.24 1520.93 Q2114.43 1524.47 2114.43 1531.6 Q2114.43 1538.71 2116.24 1542.27 Q2118.07 1545.82 2121.68 1545.82 Q2125.31 1545.82 2127.12 1542.27 Q2128.95 1538.71 2128.95 1531.6 Q2128.95 1524.47 2127.12 1520.93 Q2125.31 1517.37 2121.68 1517.37 M2121.68 1513.66 Q2127.49 1513.66 2130.55 1518.27 Q2133.62 1522.85 2133.62 1531.6 Q2133.62 1540.33 2130.55 1544.94 Q2127.49 1549.52 2121.68 1549.52 Q2115.87 1549.52 2112.79 1544.94 Q2109.74 1540.33 2109.74 1531.6 Q2109.74 1522.85 2112.79 1518.27 Q2115.87 1513.66 2121.68 1513.66 Z" fill="#000000" fill-rule="evenodd" fill-opacity="1" /><polyline clip-path="url(#clip882)" style="stroke:#000000; stroke-linecap:butt; stroke-linejoin:round; stroke-width:2; stroke-opacity:0.1; fill:none" points="
  213.607,1187.12 2352.76,1187.12 
  "/>
<polyline clip-path="url(#clip882)" style="stroke:#000000; stroke-linecap:butt; stroke-linejoin:round; stroke-width:2; stroke-opacity:0.1; fill:none" points="
  213.607,736.54 2352.76,736.54 
  "/>
<polyline clip-path="url(#clip882)" style="stroke:#000000; stroke-linecap:butt; stroke-linejoin:round; stroke-width:2; stroke-opacity:0.1; fill:none" points="
  213.607,285.964 2352.76,285.964 
  "/>
<polyline clip-path="url(#clip880)" style="stroke:#000000; stroke-linecap:butt; stroke-linejoin:round; stroke-width:4; stroke-opacity:1; fill:none" points="
  213.607,1486.45 213.607,47.2441 
  "/>
<polyline clip-path="url(#clip880)" style="stroke:#000000; stroke-linecap:butt; stroke-linejoin:round; stroke-width:4; stroke-opacity:1; fill:none" points="
  213.607,1187.12 232.505,1187.12 
  "/>
<polyline clip-path="url(#clip880)" style="stroke:#000000; stroke-linecap:butt; stroke-linejoin:round; stroke-width:4; stroke-opacity:1; fill:none" points="
  213.607,736.54 232.505,736.54 
  "/>
<polyline clip-path="url(#clip880)" style="stroke:#000000; stroke-linecap:butt; stroke-linejoin:round; stroke-width:4; stroke-opacity:1; fill:none" points="
  213.607,285.964 232.505,285.964 
  "/>
<path clip-path="url(#clip880)" d="M51.6634 1206.91 L59.3023 1206.91 L59.3023 1180.54 L50.9921 1182.21 L50.9921 1177.95 L59.256 1176.28 L63.9319 1176.28 L63.9319 1206.91 L71.5707 1206.91 L71.5707 1210.84 L51.6634 1210.84 L51.6634 1206.91 Z" fill="#000000" fill-rule="evenodd" fill-opacity="1" /><path clip-path="url(#clip880)" d="M91.0151 1179.36 Q87.404 1179.36 85.5753 1182.93 Q83.7697 1186.47 83.7697 1193.6 Q83.7697 1200.7 85.5753 1204.27 Q87.404 1207.81 91.0151 1207.81 Q94.6493 1207.81 96.4548 1204.27 Q98.2835 1200.7 98.2835 1193.6 Q98.2835 1186.47 96.4548 1182.93 Q94.6493 1179.36 91.0151 1179.36 M91.0151 1175.66 Q96.8252 1175.66 99.8808 1180.26 Q102.959 1184.85 102.959 1193.6 Q102.959 1202.33 99.8808 1206.93 Q96.8252 1211.51 91.0151 1211.51 Q85.2049 1211.51 82.1262 1206.93 Q79.0707 1202.33 79.0707 1193.6 Q79.0707 1184.85 82.1262 1180.26 Q85.2049 1175.66 91.0151 1175.66 Z" fill="#000000" fill-rule="evenodd" fill-opacity="1" /><path clip-path="url(#clip880)" d="M102.959 1169.76 L127.071 1169.76 L127.071 1172.96 L102.959 1172.96 L102.959 1169.76 Z" fill="#000000" fill-rule="evenodd" fill-opacity="1" /><path clip-path="url(#clip880)" d="M135.929 1180.24 L142.136 1180.24 L142.136 1158.81 L135.384 1160.17 L135.384 1156.71 L142.098 1155.35 L145.898 1155.35 L145.898 1180.24 L152.104 1180.24 L152.104 1183.43 L135.929 1183.43 L135.929 1180.24 Z" fill="#000000" fill-rule="evenodd" fill-opacity="1" /><path clip-path="url(#clip880)" d="M167.903 1157.85 Q164.969 1157.85 163.483 1160.75 Q162.016 1163.63 162.016 1169.42 Q162.016 1175.2 163.483 1178.09 Q164.969 1180.97 167.903 1180.97 Q170.855 1180.97 172.322 1178.09 Q173.808 1175.2 173.808 1169.42 Q173.808 1163.63 172.322 1160.75 Q170.855 1157.85 167.903 1157.85 M167.903 1154.85 Q172.623 1154.85 175.106 1158.59 Q177.607 1162.31 177.607 1169.42 Q177.607 1176.51 175.106 1180.25 Q172.623 1183.98 167.903 1183.98 Q163.182 1183.98 160.68 1180.25 Q158.198 1176.51 158.198 1169.42 Q158.198 1162.31 160.68 1158.59 Q163.182 1154.85 167.903 1154.85 Z" fill="#000000" fill-rule="evenodd" fill-opacity="1" /><path clip-path="url(#clip880)" d="M76.9787 756.332 L84.6175 756.332 L84.6175 729.967 L76.3074 731.633 L76.3074 727.374 L84.5712 725.707 L89.2471 725.707 L89.2471 756.332 L96.886 756.332 L96.886 760.267 L76.9787 760.267 L76.9787 756.332 Z" fill="#000000" fill-rule="evenodd" fill-opacity="1" /><path clip-path="url(#clip880)" d="M116.33 728.786 Q112.719 728.786 110.891 732.351 Q109.085 735.892 109.085 743.022 Q109.085 750.129 110.891 753.693 Q112.719 757.235 116.33 757.235 Q119.965 757.235 121.77 753.693 Q123.599 750.129 123.599 743.022 Q123.599 735.892 121.77 732.351 Q119.965 728.786 116.33 728.786 M116.33 725.082 Q122.14 725.082 125.196 729.689 Q128.275 734.272 128.275 743.022 Q128.275 751.749 125.196 756.355 Q122.14 760.939 116.33 760.939 Q110.52 760.939 107.441 756.355 Q104.386 751.749 104.386 743.022 Q104.386 734.272 107.441 729.689 Q110.52 725.082 116.33 725.082 Z" fill="#000000" fill-rule="evenodd" fill-opacity="1" /><path clip-path="url(#clip880)" d="M128.275 719.184 L152.386 719.184 L152.386 722.381 L128.275 722.381 L128.275 719.184 Z" fill="#000000" fill-rule="evenodd" fill-opacity="1" /><path clip-path="url(#clip880)" d="M160.624 704.777 L175.539 704.777 L175.539 707.974 L164.103 707.974 L164.103 714.858 Q164.931 714.576 165.759 714.444 Q166.586 714.294 167.414 714.294 Q172.116 714.294 174.862 716.87 Q177.607 719.447 177.607 723.848 Q177.607 728.381 174.786 730.901 Q171.965 733.402 166.831 733.402 Q165.063 733.402 163.22 733.101 Q161.395 732.801 159.439 732.199 L159.439 728.381 Q161.132 729.302 162.937 729.754 Q164.743 730.205 166.755 730.205 Q170.009 730.205 171.909 728.494 Q173.808 726.782 173.808 723.848 Q173.808 720.914 171.909 719.202 Q170.009 717.491 166.755 717.491 Q165.232 717.491 163.709 717.83 Q162.204 718.168 160.624 718.883 L160.624 704.777 Z" fill="#000000" fill-rule="evenodd" fill-opacity="1" /><path clip-path="url(#clip880)" d="M106.902 305.756 L114.541 305.756 L114.541 279.39 L106.231 281.057 L106.231 276.798 L114.494 275.131 L119.17 275.131 L119.17 305.756 L126.809 305.756 L126.809 309.691 L106.902 309.691 L106.902 305.756 Z" fill="#000000" fill-rule="evenodd" fill-opacity="1" /><path clip-path="url(#clip880)" d="M146.253 278.21 Q142.642 278.21 140.814 281.775 Q139.008 285.316 139.008 292.446 Q139.008 299.552 140.814 303.117 Q142.642 306.659 146.253 306.659 Q149.888 306.659 151.693 303.117 Q153.522 299.552 153.522 292.446 Q153.522 285.316 151.693 281.775 Q149.888 278.21 146.253 278.21 M146.253 274.506 Q152.064 274.506 155.119 279.113 Q158.198 283.696 158.198 292.446 Q158.198 301.173 155.119 305.779 Q152.064 310.362 146.253 310.362 Q140.443 310.362 137.365 305.779 Q134.309 301.173 134.309 292.446 Q134.309 283.696 137.365 279.113 Q140.443 274.506 146.253 274.506 Z" fill="#000000" fill-rule="evenodd" fill-opacity="1" /><path clip-path="url(#clip880)" d="M167.903 256.702 Q164.969 256.702 163.483 259.599 Q162.016 262.476 162.016 268.269 Q162.016 274.043 163.483 276.939 Q164.969 279.817 167.903 279.817 Q170.855 279.817 172.322 276.939 Q173.808 274.043 173.808 268.269 Q173.808 262.476 172.322 259.599 Q170.855 256.702 167.903 256.702 M167.903 253.693 Q172.623 253.693 175.106 257.436 Q177.607 261.16 177.607 268.269 Q177.607 275.359 175.106 279.102 Q172.623 282.826 167.903 282.826 Q163.182 282.826 160.68 279.102 Q158.198 275.359 158.198 268.269 Q158.198 261.16 160.68 257.436 Q163.182 253.693 167.903 253.693 Z" fill="#000000" fill-rule="evenodd" fill-opacity="1" /><polyline clip-path="url(#clip882)" style="stroke:#009af9; stroke-linecap:butt; stroke-linejoin:round; stroke-width:16; stroke-opacity:1; fill:none" points="
  274.149,87.9763 297.346,115.567 320.542,136.076 343.738,155.905 366.934,175.502 390.13,194.952 413.326,214.276 436.522,233.479 459.719,252.564 482.915,271.534 
  506.111,290.389 529.307,309.133 552.503,327.768 575.699,346.297 598.895,364.723 622.092,383.049 645.288,401.277 668.484,419.412 691.68,437.455 714.876,455.408 
  738.072,473.273 761.268,491.053 784.465,508.747 807.661,526.357 830.857,543.882 854.053,561.322 877.249,578.676 900.445,595.942 923.641,613.117 946.838,630.2 
  970.034,647.186 993.23,664.071 1016.43,680.853 1039.62,697.525 1062.82,714.083 1086.01,730.522 1109.21,746.838 1132.41,763.024 1155.6,779.077 1178.8,794.992 
  1202,810.766 1225.19,826.394 1248.39,841.875 1271.58,857.207 1294.78,872.39 1317.98,887.423 1341.17,902.308 1364.37,917.048 1387.56,931.645 1410.76,946.103 
  1433.96,960.428 1457.15,974.624 1480.35,988.699 1503.55,1002.66 1526.74,1016.51 1549.94,1030.25 1573.13,1043.91 1596.33,1057.47 1619.53,1070.95 1642.72,1084.36 
  1665.92,1097.69 1689.11,1110.97 1712.31,1124.18 1735.51,1137.35 1758.7,1150.46 1781.9,1163.54 1805.09,1176.57 1828.29,1189.57 1851.49,1202.54 1874.68,1215.49 
  1897.88,1228.4 1921.08,1241.29 1944.27,1254.18 1967.47,1267.01 1990.66,1279.86 2013.86,1292.72 2037.06,1305.5 2060.25,1318.28 2083.45,1331.19 2106.64,1343.93 
  2129.84,1356.64 2153.04,1369.41 2176.23,1382.52 2199.43,1394.96 2222.63,1407.46 2245.82,1419.63 2269.02,1433.44 2292.21,1445.72 
  "/>
<path clip-path="url(#clip880)" d="
M1965.12 250.738 L2281.45 250.738 L2281.45 95.2176 L1965.12 95.2176  Z
  " fill="#ffffff" fill-rule="evenodd" fill-opacity="1"/>
<polyline clip-path="url(#clip880)" style="stroke:#000000; stroke-linecap:butt; stroke-linejoin:round; stroke-width:4; stroke-opacity:1; fill:none" points="
  1965.12,250.738 2281.45,250.738 2281.45,95.2176 1965.12,95.2176 1965.12,250.738 
  "/>
<polyline clip-path="url(#clip880)" style="stroke:#009af9; stroke-linecap:butt; stroke-linejoin:round; stroke-width:6; stroke-opacity:1; fill:none" points="
  1988.89,172.978 2131.5,172.978 
  "/>
<path clip-path="url(#clip880)" d="M2176.03 202.509 Q2173.32 209.453 2170.75 211.571 Q2168.19 213.689 2163.88 213.689 L2158.78 213.689 L2158.78 208.342 L2162.53 208.342 Q2165.16 208.342 2166.62 207.092 Q2168.08 205.842 2169.85 201.189 L2171 198.273 L2155.27 160.009 L2162.04 160.009 L2174.19 190.425 L2186.35 160.009 L2193.12 160.009 L2176.03 202.509 Z" fill="#000000" fill-rule="evenodd" fill-opacity="1" /><path clip-path="url(#clip880)" d="M2204.05 192.995 L2215.51 192.995 L2215.51 153.446 L2203.05 155.946 L2203.05 149.558 L2215.44 147.058 L2222.46 147.058 L2222.46 192.995 L2233.91 192.995 L2233.91 198.898 L2204.05 198.898 L2204.05 192.995 Z" fill="#000000" fill-rule="evenodd" fill-opacity="1" /></svg>
