<?xml version="1.0" encoding="utf-8"?>
<svg xmlns="http://www.w3.org/2000/svg" xmlns:xlink="http://www.w3.org/1999/xlink" width="600" height="400" viewBox="0 0 2400 1600">
<defs>
  <clipPath id="clip020">
    <rect x="0" y="0" width="2400" height="1600"/>
  </clipPath>
</defs>
<path clip-path="url(#clip020)" d="
M0 1600 L2400 1600 L2400 0 L0 0  Z
  " fill="#ffffff" fill-rule="evenodd" fill-opacity="1"/>
<defs>
  <clipPath id="clip021">
    <rect x="480" y="0" width="1681" height="1600"/>
  </clipPath>
</defs>
<path clip-path="url(#clip020)" d="
M193.936 1486.45 L2352.76 1486.45 L2352.76 47.2441 L193.936 47.2441  Z
  " fill="#ffffff" fill-rule="evenodd" fill-opacity="1"/>
<defs>
  <clipPath id="clip022">
    <rect x="193" y="47" width="2160" height="1440"/>
  </clipPath>
</defs>
<polyline clip-path="url(#clip022)" style="stroke:#000000; stroke-linecap:butt; stroke-linejoin:round; stroke-width:2; stroke-opacity:0.1; fill:none" points="
  255.035,1486.45 255.035,47.2441 
  "/>
<polyline clip-path="url(#clip022)" style="stroke:#000000; stroke-linecap:butt; stroke-linejoin:round; stroke-width:2; stroke-opacity:0.1; fill:none" points="
  764.19,1486.45 764.19,47.2441 
  "/>
<polyline clip-path="url(#clip022)" style="stroke:#000000; stroke-linecap:butt; stroke-linejoin:round; stroke-width:2; stroke-opacity:0.1; fill:none" points="
  1273.35,1486.45 1273.35,47.2441 
  "/>
<polyline clip-path="url(#clip022)" style="stroke:#000000; stroke-linecap:butt; stroke-linejoin:round; stroke-width:2; stroke-opacity:0.1; fill:none" points="
  1782.5,1486.45 1782.5,47.2441 
  "/>
<polyline clip-path="url(#clip022)" style="stroke:#000000; stroke-linecap:butt; stroke-linejoin:round; stroke-width:2; stroke-opacity:0.1; fill:none" points="
  2291.66,1486.45 2291.66,47.2441 
  "/>
<polyline clip-path="url(#clip020)" style="stroke:#000000; stroke-linecap:butt; stroke-linejoin:round; stroke-width:4; stroke-opacity:1; fill:none" points="
  193.936,1486.45 2352.76,1486.45 
  "/>
<polyline clip-path="url(#clip020)" style="stroke:#000000; stroke-linecap:butt; stroke-linejoin:round; stroke-width:4; stroke-opacity:1; fill:none" points="
  255.035,1486.45 255.035,1467.55 
  "/>
<polyline clip-path="url(#clip020)" style="stroke:#000000; stroke-linecap:butt; stroke-linejoin:round; stroke-width:4; stroke-opacity:1; fill:none" points="
  764.19,1486.45 764.19,1467.55 
  "/>
<polyline clip-path="url(#clip020)" style="stroke:#000000; stroke-linecap:butt; stroke-linejoin:round; stroke-width:4; stroke-opacity:1; fill:none" points="
  1273.35,1486.45 1273.35,1467.55 
  "/>
<polyline clip-path="url(#clip020)" style="stroke:#000000; stroke-linecap:butt; stroke-linejoin:round; stroke-width:4; stroke-opacity:1; fill:none" points="
  1782.5,1486.45 1782.5,1467.55 
  "/>
<polyline clip-path="url(#clip020)" style="stroke:#000000; stroke-linecap:butt; stroke-linejoin:round; stroke-width:4; stroke-opacity:1; fill:none" points="
  2291.66,1486.45 2291.66,1467.55 
  "/>
<path clip-path="url(#clip020)" d="M232.419 1517.37 Q228.808 1517.37 226.979 1520.93 Q225.174 1524.47 225.174 1531.6 Q225.174 1538.71 226.979 1542.27 Q228.808 1545.82 232.419 1545.82 Q236.053 1545.82 237.859 1542.27 Q239.688 1538.71 239.688 1531.6 Q239.688 1524.47 237.859 1520.93 Q236.053 1517.37 232.419 1517.37 M232.419 1513.66 Q238.229 1513.66 241.285 1518.27 Q244.363 1522.85 244.363 1531.6 Q244.363 1540.33 241.285 1544.94 Q238.229 1549.52 232.419 1549.52 Q226.609 1549.52 223.53 1544.94 Q220.475 1540.33 220.475 1531.6 Q220.475 1522.85 223.53 1518.27 Q226.609 1513.66 232.419 1513.66 Z" fill="#000000" fill-rule="evenodd" fill-opacity="1" /><path clip-path="url(#clip020)" d="M252.581 1542.97 L257.465 1542.97 L257.465 1548.85 L252.581 1548.85 L252.581 1542.97 Z" fill="#000000" fill-rule="evenodd" fill-opacity="1" /><path clip-path="url(#clip020)" d="M277.65 1517.37 Q274.039 1517.37 272.211 1520.93 Q270.405 1524.47 270.405 1531.6 Q270.405 1538.71 272.211 1542.27 Q274.039 1545.82 277.65 1545.82 Q281.285 1545.82 283.09 1542.27 Q284.919 1538.71 284.919 1531.6 Q284.919 1524.47 283.09 1520.93 Q281.285 1517.37 277.65 1517.37 M277.65 1513.66 Q283.46 1513.66 286.516 1518.27 Q289.595 1522.85 289.595 1531.6 Q289.595 1540.33 286.516 1544.94 Q283.46 1549.52 277.65 1549.52 Q271.84 1549.52 268.761 1544.94 Q265.706 1540.33 265.706 1531.6 Q265.706 1522.85 268.761 1518.27 Q271.84 1513.66 277.65 1513.66 Z" fill="#000000" fill-rule="evenodd" fill-opacity="1" /><path clip-path="url(#clip020)" d="M735.927 1544.91 L752.246 1544.91 L752.246 1548.85 L730.302 1548.85 L730.302 1544.91 Q732.964 1542.16 737.547 1537.53 Q742.153 1532.88 743.334 1531.53 Q745.579 1529.01 746.459 1527.27 Q747.362 1525.51 747.362 1523.82 Q747.362 1521.07 745.417 1519.33 Q743.496 1517.6 740.394 1517.6 Q738.195 1517.6 735.741 1518.36 Q733.311 1519.13 730.533 1520.68 L730.533 1515.95 Q733.357 1514.82 735.811 1514.24 Q738.265 1513.66 740.302 1513.66 Q745.672 1513.66 748.866 1516.35 Q752.061 1519.03 752.061 1523.52 Q752.061 1525.65 751.251 1527.57 Q750.464 1529.47 748.357 1532.07 Q747.778 1532.74 744.677 1535.95 Q741.575 1539.15 735.927 1544.91 Z" fill="#000000" fill-rule="evenodd" fill-opacity="1" /><path clip-path="url(#clip020)" d="M762.061 1542.97 L766.945 1542.97 L766.945 1548.85 L762.061 1548.85 L762.061 1542.97 Z" fill="#000000" fill-rule="evenodd" fill-opacity="1" /><path clip-path="url(#clip020)" d="M777.176 1514.29 L795.533 1514.29 L795.533 1518.22 L781.459 1518.22 L781.459 1526.7 Q782.477 1526.35 783.496 1526.19 Q784.514 1526 785.533 1526 Q791.32 1526 794.699 1529.17 Q798.079 1532.34 798.079 1537.76 Q798.079 1543.34 794.607 1546.44 Q791.135 1549.52 784.815 1549.52 Q782.639 1549.52 780.371 1549.15 Q778.125 1548.78 775.718 1548.04 L775.718 1543.34 Q777.801 1544.47 780.024 1545.03 Q782.246 1545.58 784.723 1545.58 Q788.727 1545.58 791.065 1543.48 Q793.403 1541.37 793.403 1537.76 Q793.403 1534.15 791.065 1532.04 Q788.727 1529.94 784.723 1529.94 Q782.848 1529.94 780.973 1530.35 Q779.121 1530.77 777.176 1531.65 L777.176 1514.29 Z" fill="#000000" fill-rule="evenodd" fill-opacity="1" /><path clip-path="url(#clip020)" d="M1240.51 1514.29 L1258.87 1514.29 L1258.87 1518.22 L1244.79 1518.22 L1244.79 1526.7 Q1245.81 1526.35 1246.83 1526.19 Q1247.85 1526 1248.87 1526 Q1254.65 1526 1258.03 1529.17 Q1261.41 1532.34 1261.41 1537.76 Q1261.41 1543.34 1257.94 1546.44 Q1254.47 1549.52 1248.15 1549.52 Q1245.97 1549.52 1243.7 1549.15 Q1241.46 1548.78 1239.05 1548.04 L1239.05 1543.34 Q1241.14 1544.47 1243.36 1545.03 Q1245.58 1545.58 1248.06 1545.58 Q1252.06 1545.58 1254.4 1543.48 Q1256.74 1541.37 1256.74 1537.76 Q1256.74 1534.15 1254.4 1532.04 Q1252.06 1529.94 1248.06 1529.94 Q1246.18 1529.94 1244.31 1530.35 Q1242.45 1530.77 1240.51 1531.65 L1240.51 1514.29 Z" fill="#000000" fill-rule="evenodd" fill-opacity="1" /><path clip-path="url(#clip020)" d="M1270.63 1542.97 L1275.51 1542.97 L1275.51 1548.85 L1270.63 1548.85 L1270.63 1542.97 Z" fill="#000000" fill-rule="evenodd" fill-opacity="1" /><path clip-path="url(#clip020)" d="M1295.7 1517.37 Q1292.08 1517.37 1290.26 1520.93 Q1288.45 1524.47 1288.45 1531.6 Q1288.45 1538.71 1290.26 1542.27 Q1292.08 1545.82 1295.7 1545.82 Q1299.33 1545.82 1301.14 1542.27 Q1302.96 1538.71 1302.96 1531.6 Q1302.96 1524.47 1301.14 1520.93 Q1299.33 1517.37 1295.7 1517.37 M1295.7 1513.66 Q1301.51 1513.66 1304.56 1518.27 Q1307.64 1522.85 1307.64 1531.6 Q1307.64 1540.33 1304.56 1544.94 Q1301.51 1549.52 1295.7 1549.52 Q1289.89 1549.52 1286.81 1544.94 Q1283.75 1540.33 1283.75 1531.6 Q1283.75 1522.85 1286.81 1518.27 Q1289.89 1513.66 1295.7 1513.66 Z" fill="#000000" fill-rule="evenodd" fill-opacity="1" /><path clip-path="url(#clip020)" d="M1748.82 1514.29 L1771.04 1514.29 L1771.04 1516.28 L1758.5 1548.85 L1753.61 1548.85 L1765.42 1518.22 L1748.82 1518.22 L1748.82 1514.29 Z" fill="#000000" fill-rule="evenodd" fill-opacity="1" /><path clip-path="url(#clip020)" d="M1780.16 1542.97 L1785.05 1542.97 L1785.05 1548.85 L1780.16 1548.85 L1780.16 1542.97 Z" fill="#000000" fill-rule="evenodd" fill-opacity="1" /><path clip-path="url(#clip020)" d="M1795.28 1514.29 L1813.64 1514.29 L1813.64 1518.22 L1799.56 1518.22 L1799.56 1526.7 Q1800.58 1526.35 1801.6 1526.19 Q1802.62 1526 1803.64 1526 Q1809.42 1526 1812.8 1529.17 Q1816.18 1532.34 1816.18 1537.76 Q1816.18 1543.34 1812.71 1546.44 Q1809.24 1549.52 1802.92 1549.52 Q1800.74 1549.52 1798.47 1549.15 Q1796.23 1548.78 1793.82 1548.04 L1793.82 1543.34 Q1795.9 1544.47 1798.13 1545.03 Q1800.35 1545.58 1802.83 1545.58 Q1806.83 1545.58 1809.17 1543.48 Q1811.51 1541.37 1811.51 1537.76 Q1811.51 1534.15 1809.17 1532.04 Q1806.83 1529.94 1802.83 1529.94 Q1800.95 1529.94 1799.08 1530.35 Q1797.22 1530.77 1795.28 1531.65 L1795.28 1514.29 Z" fill="#000000" fill-rule="evenodd" fill-opacity="1" /><path clip-path="url(#clip020)" d="M2243.73 1544.91 L2251.37 1544.91 L2251.37 1518.55 L2243.06 1520.21 L2243.06 1515.95 L2251.32 1514.29 L2256 1514.29 L2256 1544.91 L2263.64 1544.91 L2263.64 1548.85 L2243.73 1548.85 L2243.73 1544.91 Z" fill="#000000" fill-rule="evenodd" fill-opacity="1" /><path clip-path="url(#clip020)" d="M2283.08 1517.37 Q2279.47 1517.37 2277.64 1520.93 Q2275.84 1524.47 2275.84 1531.6 Q2275.84 1538.71 2277.64 1542.27 Q2279.47 1545.82 2283.08 1545.82 Q2286.72 1545.82 2288.52 1542.27 Q2290.35 1538.71 2290.35 1531.6 Q2290.35 1524.47 2288.52 1520.93 Q2286.72 1517.37 2283.08 1517.37 M2283.08 1513.66 Q2288.89 1513.66 2291.95 1518.27 Q2295.03 1522.85 2295.03 1531.6 Q2295.03 1540.33 2291.95 1544.94 Q2288.89 1549.52 2283.08 1549.52 Q2277.27 1549.52 2274.19 1544.94 Q2271.14 1540.33 2271.14 1531.6 Q2271.14 1522.85 2274.19 1518.27 Q2277.27 1513.66 2283.08 1513.66 Z" fill="#000000" fill-rule="evenodd" fill-opacity="1" /><path clip-path="url(#clip020)" d="M2303.24 1542.97 L2308.13 1542.97 L2308.13 1548.85 L2303.24 1548.85 L2303.24 1542.97 Z" fill="#000000" fill-rule="evenodd" fill-opacity="1" /><path clip-path="url(#clip020)" d="M2328.31 1517.37 Q2324.7 1517.37 2322.87 1520.93 Q2321.07 1524.47 2321.07 1531.6 Q2321.07 1538.71 2322.87 1542.27 Q2324.7 1545.82 2328.31 1545.82 Q2331.95 1545.82 2333.75 1542.27 Q2335.58 1538.71 2335.58 1531.6 Q2335.58 1524.47 2333.75 1520.93 Q2331.95 1517.37 2328.31 1517.37 M2328.31 1513.66 Q2334.12 1513.66 2337.18 1518.27 Q2340.26 1522.85 2340.26 1531.6 Q2340.26 1540.33 2337.18 1544.94 Q2334.12 1549.52 2328.31 1549.52 Q2322.5 1549.52 2319.42 1544.94 Q2316.37 1540.33 2316.37 1531.6 Q2316.37 1522.85 2319.42 1518.27 Q2322.5 1513.66 2328.31 1513.66 Z" fill="#000000" fill-rule="evenodd" fill-opacity="1" /><polyline clip-path="url(#clip022)" style="stroke:#000000; stroke-linecap:butt; stroke-linejoin:round; stroke-width:2; stroke-opacity:0.1; fill:none" points="
  193.936,1446.14 2352.76,1446.14 
  "/>
<polyline clip-path="url(#clip022)" style="stroke:#000000; stroke-linecap:butt; stroke-linejoin:round; stroke-width:2; stroke-opacity:0.1; fill:none" points="
  193.936,1106.6 2352.76,1106.6 
  "/>
<polyline clip-path="url(#clip022)" style="stroke:#000000; stroke-linecap:butt; stroke-linejoin:round; stroke-width:2; stroke-opacity:0.1; fill:none" points="
  193.936,767.057 2352.76,767.057 
  "/>
<polyline clip-path="url(#clip022)" style="stroke:#000000; stroke-linecap:butt; stroke-linejoin:round; stroke-width:2; stroke-opacity:0.1; fill:none" points="
  193.936,427.516 2352.76,427.516 
  "/>
<polyline clip-path="url(#clip022)" style="stroke:#000000; stroke-linecap:butt; stroke-linejoin:round; stroke-width:2; stroke-opacity:0.1; fill:none" points="
  193.936,87.9763 2352.76,87.9763 
  "/>
<polyline clip-path="url(#clip020)" style="stroke:#000000; stroke-linecap:butt; stroke-linejoin:round; stroke-width:4; stroke-opacity:1; fill:none" points="
  193.936,1486.45 193.936,47.2441 
  "/>
<polyline clip-path="url(#clip020)" style="stroke:#000000; stroke-linecap:butt; stroke-linejoin:round; stroke-width:4; stroke-opacity:1; fill:none" points="
  193.936,1446.14 212.834,1446.14 
  "/>
<polyline clip-path="url(#clip020)" style="stroke:#000000; stroke-linecap:butt; stroke-linejoin:round; stroke-width:4; stroke-opacity:1; fill:none" points="
  193.936,1106.6 212.834,1106.6 
  "/>
<polyline clip-path="url(#clip020)" style="stroke:#000000; stroke-linecap:butt; stroke-linejoin:round; stroke-width:4; stroke-opacity:1; fill:none" points="
  193.936,767.057 212.834,767.057 
  "/>
<polyline clip-path="url(#clip020)" style="stroke:#000000; stroke-linecap:butt; stroke-linejoin:round; stroke-width:4; stroke-opacity:1; fill:none" points="
  193.936,427.516 212.834,427.516 
  "/>
<polyline clip-path="url(#clip020)" style="stroke:#000000; stroke-linecap:butt; stroke-linejoin:round; stroke-width:4; stroke-opacity:1; fill:none" points="
  193.936,87.9763 212.834,87.9763 
  "/>
<path clip-path="url(#clip020)" d="M50.9921 1446.59 L80.6679 1446.59 L80.6679 1450.52 L50.9921 1450.52 L50.9921 1446.59 Z" fill="#000000" fill-rule="evenodd" fill-opacity="1" /><path clip-path="url(#clip020)" d="M91.5706 1459.48 L99.2095 1459.48 L99.2095 1433.12 L90.8993 1434.78 L90.8993 1430.52 L99.1632 1428.86 L103.839 1428.86 L103.839 1459.48 L111.478 1459.48 L111.478 1463.42 L91.5706 1463.42 L91.5706 1459.48 Z" fill="#000000" fill-rule="evenodd" fill-opacity="1" /><path clip-path="url(#clip020)" d="M120.922 1457.54 L125.807 1457.54 L125.807 1463.42 L120.922 1463.42 L120.922 1457.54 Z" fill="#000000" fill-rule="evenodd" fill-opacity="1" /><path clip-path="url(#clip020)" d="M145.992 1431.94 Q142.381 1431.94 140.552 1435.5 Q138.746 1439.04 138.746 1446.17 Q138.746 1453.28 140.552 1456.84 Q142.381 1460.38 145.992 1460.38 Q149.626 1460.38 151.431 1456.84 Q153.26 1453.28 153.26 1446.17 Q153.26 1439.04 151.431 1435.5 Q149.626 1431.94 145.992 1431.94 M145.992 1428.23 Q151.802 1428.23 154.857 1432.84 Q157.936 1437.42 157.936 1446.17 Q157.936 1454.9 154.857 1459.5 Q151.802 1464.09 145.992 1464.09 Q140.181 1464.09 137.103 1459.5 Q134.047 1454.9 134.047 1446.17 Q134.047 1437.42 137.103 1432.84 Q140.181 1428.23 145.992 1428.23 Z" fill="#000000" fill-rule="evenodd" fill-opacity="1" /><path clip-path="url(#clip020)" d="M51.9875 1107.05 L81.6633 1107.05 L81.6633 1110.98 L51.9875 1110.98 L51.9875 1107.05 Z" fill="#000000" fill-rule="evenodd" fill-opacity="1" /><path clip-path="url(#clip020)" d="M101.756 1092.4 Q98.1447 1092.4 96.316 1095.96 Q94.5104 1099.5 94.5104 1106.63 Q94.5104 1113.74 96.316 1117.3 Q98.1447 1120.84 101.756 1120.84 Q105.39 1120.84 107.196 1117.3 Q109.024 1113.74 109.024 1106.63 Q109.024 1099.5 107.196 1095.96 Q105.39 1092.4 101.756 1092.4 M101.756 1088.69 Q107.566 1088.69 110.621 1093.3 Q113.7 1097.88 113.7 1106.63 Q113.7 1115.36 110.621 1119.96 Q107.566 1124.55 101.756 1124.55 Q95.9456 1124.55 92.8669 1119.96 Q89.8114 1115.36 89.8114 1106.63 Q89.8114 1097.88 92.8669 1093.3 Q95.9456 1088.69 101.756 1088.69 Z" fill="#000000" fill-rule="evenodd" fill-opacity="1" /><path clip-path="url(#clip020)" d="M121.918 1118 L126.802 1118 L126.802 1123.88 L121.918 1123.88 L121.918 1118 Z" fill="#000000" fill-rule="evenodd" fill-opacity="1" /><path clip-path="url(#clip020)" d="M137.033 1089.32 L155.39 1089.32 L155.39 1093.25 L141.316 1093.25 L141.316 1101.72 Q142.334 1101.38 143.353 1101.21 Q144.371 1101.03 145.39 1101.03 Q151.177 1101.03 154.556 1104.2 Q157.936 1107.37 157.936 1112.79 Q157.936 1118.37 154.464 1121.47 Q150.992 1124.55 144.672 1124.55 Q142.496 1124.55 140.228 1124.18 Q137.982 1123.81 135.575 1123.07 L135.575 1118.37 Q137.658 1119.5 139.881 1120.06 Q142.103 1120.61 144.58 1120.61 Q148.584 1120.61 150.922 1118.51 Q153.26 1116.4 153.26 1112.79 Q153.26 1109.18 150.922 1107.07 Q148.584 1104.96 144.58 1104.96 Q142.705 1104.96 140.83 1105.38 Q138.978 1105.8 137.033 1106.68 L137.033 1089.32 Z" fill="#000000" fill-rule="evenodd" fill-opacity="1" /><path clip-path="url(#clip020)" d="M100.76 752.855 Q97.1493 752.855 95.3206 756.42 Q93.515 759.962 93.515 767.091 Q93.515 774.198 95.3206 777.762 Q97.1493 781.304 100.76 781.304 Q104.395 781.304 106.2 777.762 Q108.029 774.198 108.029 767.091 Q108.029 759.962 106.2 756.42 Q104.395 752.855 100.76 752.855 M100.76 749.152 Q106.571 749.152 109.626 753.758 Q112.705 758.341 112.705 767.091 Q112.705 775.818 109.626 780.424 Q106.571 785.008 100.76 785.008 Q94.9502 785.008 91.8715 780.424 Q88.816 775.818 88.816 767.091 Q88.816 758.341 91.8715 753.758 Q94.9502 749.152 100.76 749.152 Z" fill="#000000" fill-rule="evenodd" fill-opacity="1" /><path clip-path="url(#clip020)" d="M120.922 778.457 L125.807 778.457 L125.807 784.337 L120.922 784.337 L120.922 778.457 Z" fill="#000000" fill-rule="evenodd" fill-opacity="1" /><path clip-path="url(#clip020)" d="M145.992 752.855 Q142.381 752.855 140.552 756.42 Q138.746 759.962 138.746 767.091 Q138.746 774.198 140.552 777.762 Q142.381 781.304 145.992 781.304 Q149.626 781.304 151.431 777.762 Q153.26 774.198 153.26 767.091 Q153.26 759.962 151.431 756.42 Q149.626 752.855 145.992 752.855 M145.992 749.152 Q151.802 749.152 154.857 753.758 Q157.936 758.341 157.936 767.091 Q157.936 775.818 154.857 780.424 Q151.802 785.008 145.992 785.008 Q140.181 785.008 137.103 780.424 Q134.047 775.818 134.047 767.091 Q134.047 758.341 137.103 753.758 Q140.181 749.152 145.992 749.152 Z" fill="#000000" fill-rule="evenodd" fill-opacity="1" /><path clip-path="url(#clip020)" d="M101.756 413.315 Q98.1447 413.315 96.316 416.88 Q94.5104 420.422 94.5104 427.551 Q94.5104 434.658 96.316 438.222 Q98.1447 441.764 101.756 441.764 Q105.39 441.764 107.196 438.222 Q109.024 434.658 109.024 427.551 Q109.024 420.422 107.196 416.88 Q105.39 413.315 101.756 413.315 M101.756 409.611 Q107.566 409.611 110.621 414.218 Q113.7 418.801 113.7 427.551 Q113.7 436.278 110.621 440.884 Q107.566 445.468 101.756 445.468 Q95.9456 445.468 92.8669 440.884 Q89.8114 436.278 89.8114 427.551 Q89.8114 418.801 92.8669 414.218 Q95.9456 409.611 101.756 409.611 Z" fill="#000000" fill-rule="evenodd" fill-opacity="1" /><path clip-path="url(#clip020)" d="M121.918 438.917 L126.802 438.917 L126.802 444.796 L121.918 444.796 L121.918 438.917 Z" fill="#000000" fill-rule="evenodd" fill-opacity="1" /><path clip-path="url(#clip020)" d="M137.033 410.236 L155.39 410.236 L155.39 414.172 L141.316 414.172 L141.316 422.644 Q142.334 422.297 143.353 422.134 Q144.371 421.949 145.39 421.949 Q151.177 421.949 154.556 425.121 Q157.936 428.292 157.936 433.708 Q157.936 439.287 154.464 442.389 Q150.992 445.468 144.672 445.468 Q142.496 445.468 140.228 445.097 Q137.982 444.727 135.575 443.986 L135.575 439.287 Q137.658 440.421 139.881 440.977 Q142.103 441.533 144.58 441.533 Q148.584 441.533 150.922 439.426 Q153.26 437.32 153.26 433.708 Q153.26 430.097 150.922 427.991 Q148.584 425.884 144.58 425.884 Q142.705 425.884 140.83 426.301 Q138.978 426.718 137.033 427.597 L137.033 410.236 Z" fill="#000000" fill-rule="evenodd" fill-opacity="1" /><path clip-path="url(#clip020)" d="M91.5706 101.321 L99.2095 101.321 L99.2095 74.9555 L90.8993 76.6222 L90.8993 72.3629 L99.1632 70.6963 L103.839 70.6963 L103.839 101.321 L111.478 101.321 L111.478 105.256 L91.5706 105.256 L91.5706 101.321 Z" fill="#000000" fill-rule="evenodd" fill-opacity="1" /><path clip-path="url(#clip020)" d="M120.922 99.3767 L125.807 99.3767 L125.807 105.256 L120.922 105.256 L120.922 99.3767 Z" fill="#000000" fill-rule="evenodd" fill-opacity="1" /><path clip-path="url(#clip020)" d="M145.992 73.775 Q142.381 73.775 140.552 77.3398 Q138.746 80.8814 138.746 88.011 Q138.746 95.1174 140.552 98.6822 Q142.381 102.224 145.992 102.224 Q149.626 102.224 151.431 98.6822 Q153.26 95.1174 153.26 88.011 Q153.26 80.8814 151.431 77.3398 Q149.626 73.775 145.992 73.775 M145.992 70.0713 Q151.802 70.0713 154.857 74.6777 Q157.936 79.261 157.936 88.011 Q157.936 96.7378 154.857 101.344 Q151.802 105.928 145.992 105.928 Q140.181 105.928 137.103 101.344 Q134.047 96.7378 134.047 88.011 Q134.047 79.261 137.103 74.6777 Q140.181 70.0713 145.992 70.0713 Z" fill="#000000" fill-rule="evenodd" fill-opacity="1" /><circle clip-path="url(#clip022)" cx="255.035" cy="87.9763" r="14" fill="#009af9" fill-rule="evenodd" fill-opacity="1" stroke="#000000" stroke-opacity="1" stroke-width="3.2"/>
<circle clip-path="url(#clip022)" cx="275.401" cy="87.9763" r="14" fill="#009af9" fill-rule="evenodd" fill-opacity="1" stroke="#000000" stroke-opacity="1" stroke-width="3.2"/>
<circle clip-path="url(#clip022)" cx="295.767" cy="89.3333" r="14" fill="#009af9" fill-rule="evenodd" fill-opacity="1" stroke="#000000" stroke-opacity="1" stroke-width="3.2"/>
<circle clip-path="url(#clip022)" cx="316.133" cy="94.2051" r="14" fill="#009af9" fill-rule="evenodd" fill-opacity="1" stroke="#000000" stroke-opacity="1" stroke-width="3.2"/>
<circle clip-path="url(#clip022)" cx="336.5" cy="103.846" r="14" fill="#009af9" fill-rule="evenodd" fill-opacity="1" stroke="#000000" stroke-opacity="1" stroke-width="3.2"/>
<circle clip-path="url(#clip022)" cx="356.866" cy="118.94" r="14" fill="#009af9" fill-rule="evenodd" fill-opacity="1" stroke="#000000" stroke-opacity="1" stroke-width="3.2"/>
<circle clip-path="url(#clip022)" cx="377.232" cy="139.807" r="14" fill="#009af9" fill-rule="evenodd" fill-opacity="1" stroke="#000000" stroke-opacity="1" stroke-width="3.2"/>
<circle clip-path="url(#clip022)" cx="397.598" cy="166.519" r="14" fill="#009af9" fill-rule="evenodd" fill-opacity="1" stroke="#000000" stroke-opacity="1" stroke-width="3.2"/>
<circle clip-path="url(#clip022)" cx="417.964" cy="198.978" r="14" fill="#009af9" fill-rule="evenodd" fill-opacity="1" stroke="#000000" stroke-opacity="1" stroke-width="3.2"/>
<circle clip-path="url(#clip022)" cx="438.331" cy="236.962" r="14" fill="#009af9" fill-rule="evenodd" fill-opacity="1" stroke="#000000" stroke-opacity="1" stroke-width="3.2"/>
<circle clip-path="url(#clip022)" cx="458.697" cy="280.15" r="14" fill="#009af9" fill-rule="evenodd" fill-opacity="1" stroke="#000000" stroke-opacity="1" stroke-width="3.2"/>
<circle clip-path="url(#clip022)" cx="479.063" cy="328.149" r="14" fill="#009af9" fill-rule="evenodd" fill-opacity="1" stroke="#000000" stroke-opacity="1" stroke-width="3.2"/>
<circle clip-path="url(#clip022)" cx="499.429" cy="380.501" r="14" fill="#009af9" fill-rule="evenodd" fill-opacity="1" stroke="#000000" stroke-opacity="1" stroke-width="3.2"/>
<circle clip-path="url(#clip022)" cx="519.796" cy="436.695" r="14" fill="#009af9" fill-rule="evenodd" fill-opacity="1" stroke="#000000" stroke-opacity="1" stroke-width="3.2"/>
<circle clip-path="url(#clip022)" cx="540.162" cy="496.178" r="14" fill="#009af9" fill-rule="evenodd" fill-opacity="1" stroke="#000000" stroke-opacity="1" stroke-width="3.2"/>
<circle clip-path="url(#clip022)" cx="560.528" cy="558.361" r="14" fill="#009af9" fill-rule="evenodd" fill-opacity="1" stroke="#000000" stroke-opacity="1" stroke-width="3.2"/>
<circle clip-path="url(#clip022)" cx="580.894" cy="622.625" r="14" fill="#009af9" fill-rule="evenodd" fill-opacity="1" stroke="#000000" stroke-opacity="1" stroke-width="3.2"/>
<circle clip-path="url(#clip022)" cx="601.261" cy="688.329" r="14" fill="#009af9" fill-rule="evenodd" fill-opacity="1" stroke="#000000" stroke-opacity="1" stroke-width="3.2"/>
<circle clip-path="url(#clip022)" cx="621.627" cy="754.818" r="14" fill="#009af9" fill-rule="evenodd" fill-opacity="1" stroke="#000000" stroke-opacity="1" stroke-width="3.2"/>
<circle clip-path="url(#clip022)" cx="641.993" cy="821.429" r="14" fill="#009af9" fill-rule="evenodd" fill-opacity="1" stroke="#000000" stroke-opacity="1" stroke-width="3.2"/>
<circle clip-path="url(#clip022)" cx="662.359" cy="887.496" r="14" fill="#009af9" fill-rule="evenodd" fill-opacity="1" stroke="#000000" stroke-opacity="1" stroke-width="3.2"/>
<circle clip-path="url(#clip022)" cx="682.725" cy="952.359" r="14" fill="#009af9" fill-rule="evenodd" fill-opacity="1" stroke="#000000" stroke-opacity="1" stroke-width="3.2"/>
<circle clip-path="url(#clip022)" cx="703.092" cy="1015.37" r="14" fill="#009af9" fill-rule="evenodd" fill-opacity="1" stroke="#000000" stroke-opacity="1" stroke-width="3.2"/>
<circle clip-path="url(#clip022)" cx="723.458" cy="1075.9" r="14" fill="#009af9" fill-rule="evenodd" fill-opacity="1" stroke="#000000" stroke-opacity="1" stroke-width="3.2"/>
<circle clip-path="url(#clip022)" cx="743.824" cy="1133.34" r="14" fill="#009af9" fill-rule="evenodd" fill-opacity="1" stroke="#000000" stroke-opacity="1" stroke-width="3.2"/>
<circle clip-path="url(#clip022)" cx="764.19" cy="1187.13" r="14" fill="#009af9" fill-rule="evenodd" fill-opacity="1" stroke="#000000" stroke-opacity="1" stroke-width="3.2"/>
<circle clip-path="url(#clip022)" cx="784.557" cy="1236.72" r="14" fill="#009af9" fill-rule="evenodd" fill-opacity="1" stroke="#000000" stroke-opacity="1" stroke-width="3.2"/>
<circle clip-path="url(#clip022)" cx="804.923" cy="1281.61" r="14" fill="#009af9" fill-rule="evenodd" fill-opacity="1" stroke="#000000" stroke-opacity="1" stroke-width="3.2"/>
<circle clip-path="url(#clip022)" cx="825.289" cy="1321.36" r="14" fill="#009af9" fill-rule="evenodd" fill-opacity="1" stroke="#000000" stroke-opacity="1" stroke-width="3.2"/>
<circle clip-path="url(#clip022)" cx="845.655" cy="1355.58" r="14" fill="#009af9" fill-rule="evenodd" fill-opacity="1" stroke="#000000" stroke-opacity="1" stroke-width="3.2"/>
<circle clip-path="url(#clip022)" cx="866.021" cy="1383.91" r="14" fill="#009af9" fill-rule="evenodd" fill-opacity="1" stroke="#000000" stroke-opacity="1" stroke-width="3.2"/>
<circle clip-path="url(#clip022)" cx="886.388" cy="1406.08" r="14" fill="#009af9" fill-rule="evenodd" fill-opacity="1" stroke="#000000" stroke-opacity="1" stroke-width="3.2"/>
<circle clip-path="url(#clip022)" cx="906.754" cy="1421.87" r="14" fill="#009af9" fill-rule="evenodd" fill-opacity="1" stroke="#000000" stroke-opacity="1" stroke-width="3.2"/>
<circle clip-path="url(#clip022)" cx="927.12" cy="1431.11" r="14" fill="#009af9" fill-rule="evenodd" fill-opacity="1" stroke="#000000" stroke-opacity="1" stroke-width="3.2"/>
<circle clip-path="url(#clip022)" cx="947.486" cy="1433.72" r="14" fill="#009af9" fill-rule="evenodd" fill-opacity="1" stroke="#000000" stroke-opacity="1" stroke-width="3.2"/>
<circle clip-path="url(#clip022)" cx="967.853" cy="1429.67" r="14" fill="#009af9" fill-rule="evenodd" fill-opacity="1" stroke="#000000" stroke-opacity="1" stroke-width="3.2"/>
<circle clip-path="url(#clip022)" cx="988.219" cy="1419" r="14" fill="#009af9" fill-rule="evenodd" fill-opacity="1" stroke="#000000" stroke-opacity="1" stroke-width="3.2"/>
<circle clip-path="url(#clip022)" cx="1008.59" cy="1401.81" r="14" fill="#009af9" fill-rule="evenodd" fill-opacity="1" stroke="#000000" stroke-opacity="1" stroke-width="3.2"/>
<circle clip-path="url(#clip022)" cx="1028.95" cy="1378.28" r="14" fill="#009af9" fill-rule="evenodd" fill-opacity="1" stroke="#000000" stroke-opacity="1" stroke-width="3.2"/>
<circle clip-path="url(#clip022)" cx="1049.32" cy="1348.64" r="14" fill="#009af9" fill-rule="evenodd" fill-opacity="1" stroke="#000000" stroke-opacity="1" stroke-width="3.2"/>
<circle clip-path="url(#clip022)" cx="1069.68" cy="1313.19" r="14" fill="#009af9" fill-rule="evenodd" fill-opacity="1" stroke="#000000" stroke-opacity="1" stroke-width="3.2"/>
<circle clip-path="url(#clip022)" cx="1090.05" cy="1272.29" r="14" fill="#009af9" fill-rule="evenodd" fill-opacity="1" stroke="#000000" stroke-opacity="1" stroke-width="3.2"/>
<circle clip-path="url(#clip022)" cx="1110.42" cy="1226.34" r="14" fill="#009af9" fill-rule="evenodd" fill-opacity="1" stroke="#000000" stroke-opacity="1" stroke-width="3.2"/>
<circle clip-path="url(#clip022)" cx="1130.78" cy="1175.8" r="14" fill="#009af9" fill-rule="evenodd" fill-opacity="1" stroke="#000000" stroke-opacity="1" stroke-width="3.2"/>
<circle clip-path="url(#clip022)" cx="1151.15" cy="1121.17" r="14" fill="#009af9" fill-rule="evenodd" fill-opacity="1" stroke="#000000" stroke-opacity="1" stroke-width="3.2"/>
<circle clip-path="url(#clip022)" cx="1171.51" cy="1063.01" r="14" fill="#009af9" fill-rule="evenodd" fill-opacity="1" stroke="#000000" stroke-opacity="1" stroke-width="3.2"/>
<circle clip-path="url(#clip022)" cx="1191.88" cy="1001.89" r="14" fill="#009af9" fill-rule="evenodd" fill-opacity="1" stroke="#000000" stroke-opacity="1" stroke-width="3.2"/>
<circle clip-path="url(#clip022)" cx="1212.25" cy="938.418" r="14" fill="#009af9" fill-rule="evenodd" fill-opacity="1" stroke="#000000" stroke-opacity="1" stroke-width="3.2"/>
<circle clip-path="url(#clip022)" cx="1232.61" cy="873.238" r="14" fill="#009af9" fill-rule="evenodd" fill-opacity="1" stroke="#000000" stroke-opacity="1" stroke-width="3.2"/>
<circle clip-path="url(#clip022)" cx="1252.98" cy="806.998" r="14" fill="#009af9" fill-rule="evenodd" fill-opacity="1" stroke="#000000" stroke-opacity="1" stroke-width="3.2"/>
<circle clip-path="url(#clip022)" cx="1273.35" cy="740.359" r="14" fill="#009af9" fill-rule="evenodd" fill-opacity="1" stroke="#000000" stroke-opacity="1" stroke-width="3.2"/>
<circle clip-path="url(#clip022)" cx="1293.71" cy="673.986" r="14" fill="#009af9" fill-rule="evenodd" fill-opacity="1" stroke="#000000" stroke-opacity="1" stroke-width="3.2"/>
<circle clip-path="url(#clip022)" cx="1314.08" cy="608.543" r="14" fill="#009af9" fill-rule="evenodd" fill-opacity="1" stroke="#000000" stroke-opacity="1" stroke-width="3.2"/>
<circle clip-path="url(#clip022)" cx="1334.44" cy="544.684" r="14" fill="#009af9" fill-rule="evenodd" fill-opacity="1" stroke="#000000" stroke-opacity="1" stroke-width="3.2"/>
<circle clip-path="url(#clip022)" cx="1354.81" cy="483.047" r="14" fill="#009af9" fill-rule="evenodd" fill-opacity="1" stroke="#000000" stroke-opacity="1" stroke-width="3.2"/>
<circle clip-path="url(#clip022)" cx="1375.18" cy="424.248" r="14" fill="#009af9" fill-rule="evenodd" fill-opacity="1" stroke="#000000" stroke-opacity="1" stroke-width="3.2"/>
<circle clip-path="url(#clip022)" cx="1395.54" cy="368.874" r="14" fill="#009af9" fill-rule="evenodd" fill-opacity="1" stroke="#000000" stroke-opacity="1" stroke-width="3.2"/>
<circle clip-path="url(#clip022)" cx="1415.91" cy="317.478" r="14" fill="#009af9" fill-rule="evenodd" fill-opacity="1" stroke="#000000" stroke-opacity="1" stroke-width="3.2"/>
<circle clip-path="url(#clip022)" cx="1436.28" cy="270.575" r="14" fill="#009af9" fill-rule="evenodd" fill-opacity="1" stroke="#000000" stroke-opacity="1" stroke-width="3.2"/>
<circle clip-path="url(#clip022)" cx="1456.64" cy="228.632" r="14" fill="#009af9" fill-rule="evenodd" fill-opacity="1" stroke="#000000" stroke-opacity="1" stroke-width="3.2"/>
<circle clip-path="url(#clip022)" cx="1477.01" cy="192.069" r="14" fill="#009af9" fill-rule="evenodd" fill-opacity="1" stroke="#000000" stroke-opacity="1" stroke-width="3.2"/>
<circle clip-path="url(#clip022)" cx="1497.37" cy="161.251" r="14" fill="#009af9" fill-rule="evenodd" fill-opacity="1" stroke="#000000" stroke-opacity="1" stroke-width="3.2"/>
<circle clip-path="url(#clip022)" cx="1517.74" cy="136.486" r="14" fill="#009af9" fill-rule="evenodd" fill-opacity="1" stroke="#000000" stroke-opacity="1" stroke-width="3.2"/>
<circle clip-path="url(#clip022)" cx="1538.11" cy="118.021" r="14" fill="#009af9" fill-rule="evenodd" fill-opacity="1" stroke="#000000" stroke-opacity="1" stroke-width="3.2"/>
<circle clip-path="url(#clip022)" cx="1558.47" cy="106.042" r="14" fill="#009af9" fill-rule="evenodd" fill-opacity="1" stroke="#000000" stroke-opacity="1" stroke-width="3.2"/>
<circle clip-path="url(#clip022)" cx="1578.84" cy="100.667" r="14" fill="#009af9" fill-rule="evenodd" fill-opacity="1" stroke="#000000" stroke-opacity="1" stroke-width="3.2"/>
<circle clip-path="url(#clip022)" cx="1599.21" cy="101.95" r="14" fill="#009af9" fill-rule="evenodd" fill-opacity="1" stroke="#000000" stroke-opacity="1" stroke-width="3.2"/>
<circle clip-path="url(#clip022)" cx="1619.57" cy="109.879" r="14" fill="#009af9" fill-rule="evenodd" fill-opacity="1" stroke="#000000" stroke-opacity="1" stroke-width="3.2"/>
<circle clip-path="url(#clip022)" cx="1639.94" cy="124.374" r="14" fill="#009af9" fill-rule="evenodd" fill-opacity="1" stroke="#000000" stroke-opacity="1" stroke-width="3.2"/>
<circle clip-path="url(#clip022)" cx="1660.3" cy="145.291" r="14" fill="#009af9" fill-rule="evenodd" fill-opacity="1" stroke="#000000" stroke-opacity="1" stroke-width="3.2"/>
<circle clip-path="url(#clip022)" cx="1680.67" cy="172.42" r="14" fill="#009af9" fill-rule="evenodd" fill-opacity="1" stroke="#000000" stroke-opacity="1" stroke-width="3.2"/>
<circle clip-path="url(#clip022)" cx="1701.04" cy="205.491" r="14" fill="#009af9" fill-rule="evenodd" fill-opacity="1" stroke="#000000" stroke-opacity="1" stroke-width="3.2"/>
<circle clip-path="url(#clip022)" cx="1721.4" cy="244.172" r="14" fill="#009af9" fill-rule="evenodd" fill-opacity="1" stroke="#000000" stroke-opacity="1" stroke-width="3.2"/>
<circle clip-path="url(#clip022)" cx="1741.77" cy="288.078" r="14" fill="#009af9" fill-rule="evenodd" fill-opacity="1" stroke="#000000" stroke-opacity="1" stroke-width="3.2"/>
<circle clip-path="url(#clip022)" cx="1762.14" cy="336.77" r="14" fill="#009af9" fill-rule="evenodd" fill-opacity="1" stroke="#000000" stroke-opacity="1" stroke-width="3.2"/>
<circle clip-path="url(#clip022)" cx="1782.5" cy="389.761" r="14" fill="#009af9" fill-rule="evenodd" fill-opacity="1" stroke="#000000" stroke-opacity="1" stroke-width="3.2"/>
<circle clip-path="url(#clip022)" cx="1802.87" cy="446.522" r="14" fill="#009af9" fill-rule="evenodd" fill-opacity="1" stroke="#000000" stroke-opacity="1" stroke-width="3.2"/>
<circle clip-path="url(#clip022)" cx="1823.23" cy="506.486" r="14" fill="#009af9" fill-rule="evenodd" fill-opacity="1" stroke="#000000" stroke-opacity="1" stroke-width="3.2"/>
<circle clip-path="url(#clip022)" cx="1843.6" cy="569.053" r="14" fill="#009af9" fill-rule="evenodd" fill-opacity="1" stroke="#000000" stroke-opacity="1" stroke-width="3.2"/>
<circle clip-path="url(#clip022)" cx="1863.97" cy="633.598" r="14" fill="#009af9" fill-rule="evenodd" fill-opacity="1" stroke="#000000" stroke-opacity="1" stroke-width="3.2"/>
<circle clip-path="url(#clip022)" cx="1884.33" cy="699.477" r="14" fill="#009af9" fill-rule="evenodd" fill-opacity="1" stroke="#000000" stroke-opacity="1" stroke-width="3.2"/>
<circle clip-path="url(#clip022)" cx="1904.7" cy="766.031" r="14" fill="#009af9" fill-rule="evenodd" fill-opacity="1" stroke="#000000" stroke-opacity="1" stroke-width="3.2"/>
<circle clip-path="url(#clip022)" cx="1925.07" cy="832.596" r="14" fill="#009af9" fill-rule="evenodd" fill-opacity="1" stroke="#000000" stroke-opacity="1" stroke-width="3.2"/>
<circle clip-path="url(#clip022)" cx="1945.43" cy="898.505" r="14" fill="#009af9" fill-rule="evenodd" fill-opacity="1" stroke="#000000" stroke-opacity="1" stroke-width="3.2"/>
<circle clip-path="url(#clip022)" cx="1965.8" cy="963.102" r="14" fill="#009af9" fill-rule="evenodd" fill-opacity="1" stroke="#000000" stroke-opacity="1" stroke-width="3.2"/>
<circle clip-path="url(#clip022)" cx="1986.16" cy="1025.74" r="14" fill="#009af9" fill-rule="evenodd" fill-opacity="1" stroke="#000000" stroke-opacity="1" stroke-width="3.2"/>
<circle clip-path="url(#clip022)" cx="2006.53" cy="1085.79" r="14" fill="#009af9" fill-rule="evenodd" fill-opacity="1" stroke="#000000" stroke-opacity="1" stroke-width="3.2"/>
<circle clip-path="url(#clip022)" cx="2026.9" cy="1142.66" r="14" fill="#009af9" fill-rule="evenodd" fill-opacity="1" stroke="#000000" stroke-opacity="1" stroke-width="3.2"/>
<circle clip-path="url(#clip022)" cx="2047.26" cy="1195.77" r="14" fill="#009af9" fill-rule="evenodd" fill-opacity="1" stroke="#000000" stroke-opacity="1" stroke-width="3.2"/>
<circle clip-path="url(#clip022)" cx="2067.63" cy="1244.61" r="14" fill="#009af9" fill-rule="evenodd" fill-opacity="1" stroke="#000000" stroke-opacity="1" stroke-width="3.2"/>
<circle clip-path="url(#clip022)" cx="2087.99" cy="1288.67" r="14" fill="#009af9" fill-rule="evenodd" fill-opacity="1" stroke="#000000" stroke-opacity="1" stroke-width="3.2"/>
<circle clip-path="url(#clip022)" cx="2108.36" cy="1327.51" r="14" fill="#009af9" fill-rule="evenodd" fill-opacity="1" stroke="#000000" stroke-opacity="1" stroke-width="3.2"/>
<circle clip-path="url(#clip022)" cx="2128.73" cy="1360.76" r="14" fill="#009af9" fill-rule="evenodd" fill-opacity="1" stroke="#000000" stroke-opacity="1" stroke-width="3.2"/>
<circle clip-path="url(#clip022)" cx="2149.09" cy="1388.08" r="14" fill="#009af9" fill-rule="evenodd" fill-opacity="1" stroke="#000000" stroke-opacity="1" stroke-width="3.2"/>
<circle clip-path="url(#clip022)" cx="2169.46" cy="1409.19" r="14" fill="#009af9" fill-rule="evenodd" fill-opacity="1" stroke="#000000" stroke-opacity="1" stroke-width="3.2"/>
<circle clip-path="url(#clip022)" cx="2189.83" cy="1423.89" r="14" fill="#009af9" fill-rule="evenodd" fill-opacity="1" stroke="#000000" stroke-opacity="1" stroke-width="3.2"/>
<circle clip-path="url(#clip022)" cx="2210.19" cy="1432.02" r="14" fill="#009af9" fill-rule="evenodd" fill-opacity="1" stroke="#000000" stroke-opacity="1" stroke-width="3.2"/>
<circle clip-path="url(#clip022)" cx="2230.56" cy="1433.51" r="14" fill="#009af9" fill-rule="evenodd" fill-opacity="1" stroke="#000000" stroke-opacity="1" stroke-width="3.2"/>
<circle clip-path="url(#clip022)" cx="2250.92" cy="1428.34" r="14" fill="#009af9" fill-rule="evenodd" fill-opacity="1" stroke="#000000" stroke-opacity="1" stroke-width="3.2"/>
<circle clip-path="url(#clip022)" cx="2271.29" cy="1416.56" r="14" fill="#009af9" fill-rule="evenodd" fill-opacity="1" stroke="#000000" stroke-opacity="1" stroke-width="3.2"/>
<circle clip-path="url(#clip022)" cx="2291.66" cy="1398.29" r="14" fill="#009af9" fill-rule="evenodd" fill-opacity="1" stroke="#000000" stroke-opacity="1" stroke-width="3.2"/>
<polyline clip-path="url(#clip022)" style="stroke:#e26f46; stroke-linecap:butt; stroke-linejoin:round; stroke-width:16; stroke-opacity:1; fill:none" points="
  255.035,87.9763 260.007,88.1787 264.979,88.7857 269.952,89.797 274.924,91.2119 297.912,102.97 320.9,123.181 343.888,151.586 366.877,187.824 389.865,231.434 
  412.853,281.86 435.841,338.462 458.829,400.519 514.089,567.142 569.348,748.393 616.07,903.246 662.791,1050.96 688.167,1125.43 713.544,1194.33 738.92,1256.62 
  764.296,1311.31 787.691,1354.27 811.085,1389.49 834.48,1416.51 857.875,1434.97 882.956,1444.98 908.038,1444.72 933.119,1434.19 958.201,1413.56 987.26,1377.43 
  1016.32,1328.91 1045.38,1268.96 1074.44,1198.81 1126.09,1053.5 1177.74,889.86 1223.03,739.529 1268.32,590.553 1317.7,438.278 1367.08,305.236 1391.92,248.101 
  1416.75,198.674 1441.59,157.69 1466.43,125.757 1493.89,101.554 1521.35,89.4313 1548.81,89.609 1576.27,102.084 1602.4,125.166 1628.52,158.797 1654.65,202.426 
  1680.78,255.335 1707.95,319.253 1735.11,391.127 1762.28,469.68 1789.45,553.517 1835.18,702.433 1880.92,854.594 1936.76,1033.66 1992.6,1192.8 2018.85,1257.26 
  2045.09,1313.59 2071.34,1360.85 2097.58,1398.27 2118.61,1420.72 2139.63,1436.2 2160.65,1444.57 2181.68,1445.72 2202.7,1439.64 2223.73,1426.4 2244.75,1406.14 
  2265.77,1379.08 2272.24,1369.43 2278.72,1359.16 2285.19,1348.3 2291.66,1336.85 
  "/>
<path clip-path="url(#clip020)" d="
M1962.28 328.498 L2280.8 328.498 L2280.8 95.2176 L1962.28 95.2176  Z
  " fill="#ffffff" fill-rule="evenodd" fill-opacity="1"/>
<polyline clip-path="url(#clip020)" style="stroke:#000000; stroke-linecap:butt; stroke-linejoin:round; stroke-width:4; stroke-opacity:1; fill:none" points="
  1962.28,328.498 2280.8,328.498 2280.8,95.2176 1962.28,95.2176 1962.28,328.498 
  "/>
<circle clip-path="url(#clip020)" cx="2058.23" cy="172.978" r="34" fill="#009af9" fill-rule="evenodd" fill-opacity="1" stroke="#000000" stroke-opacity="1" stroke-width="7.68"/>
<path clip-path="url(#clip020)" d="M2174.94 202.509 Q2172.23 209.453 2169.66 211.571 Q2167.09 213.689 2162.79 213.689 L2157.68 213.689 L2157.68 208.342 L2161.43 208.342 Q2164.07 208.342 2165.53 207.092 Q2166.99 205.842 2168.76 201.189 L2169.91 198.273 L2154.18 160.009 L2160.95 160.009 L2173.1 190.425 L2185.25 160.009 L2192.02 160.009 L2174.94 202.509 Z" fill="#000000" fill-rule="evenodd" fill-opacity="1" /><path clip-path="url(#clip020)" d="M2202.96 192.995 L2214.42 192.995 L2214.42 153.446 L2201.95 155.946 L2201.95 149.558 L2214.35 147.058 L2221.36 147.058 L2221.36 192.995 L2232.82 192.995 L2232.82 198.898 L2202.96 198.898 L2202.96 192.995 Z" fill="#000000" fill-rule="evenodd" fill-opacity="1" /><polyline clip-path="url(#clip020)" style="stroke:#e26f46; stroke-linecap:butt; stroke-linejoin:round; stroke-width:6; stroke-opacity:1; fill:none" points="
  1986.27,250.738 2130.19,250.738 
  "/>
<path clip-path="url(#clip020)" d="M2174.94 280.269 Q2172.23 287.213 2169.66 289.331 Q2167.09 291.449 2162.79 291.449 L2157.68 291.449 L2157.68 286.102 L2161.43 286.102 Q2164.07 286.102 2165.53 284.852 Q2166.99 283.602 2168.76 278.949 L2169.91 276.033 L2154.18 237.769 L2160.95 237.769 L2173.1 268.185 L2185.25 237.769 L2192.02 237.769 L2174.94 280.269 Z" fill="#000000" fill-rule="evenodd" fill-opacity="1" /><path clip-path="url(#clip020)" d="M2207.79 270.755 L2232.27 270.755 L2232.27 276.658 L2199.35 276.658 L2199.35 270.755 Q2203.34 266.623 2210.22 259.678 Q2217.13 252.699 2218.9 250.685 Q2222.27 246.901 2223.59 244.297 Q2224.94 241.658 2224.94 239.123 Q2224.94 234.991 2222.02 232.387 Q2219.14 229.783 2214.49 229.783 Q2211.19 229.783 2207.51 230.929 Q2203.86 232.074 2199.7 234.401 L2199.7 227.318 Q2203.93 225.616 2207.61 224.748 Q2211.29 223.88 2214.35 223.88 Q2222.4 223.88 2227.2 227.908 Q2231.99 231.936 2231.99 238.672 Q2231.99 241.866 2230.77 244.748 Q2229.59 247.595 2226.43 251.484 Q2225.56 252.491 2220.91 257.317 Q2216.26 262.109 2207.79 270.755 Z" fill="#000000" fill-rule="evenodd" fill-opacity="1" /></svg>
