<?xml version="1.0" encoding="utf-8"?>
<svg xmlns="http://www.w3.org/2000/svg" xmlns:xlink="http://www.w3.org/1999/xlink" width="600" height="400" viewBox="0 0 2400 1600">
<defs>
  <clipPath id="clip560">
    <rect x="0" y="0" width="2400" height="1600"/>
  </clipPath>
</defs>
<path clip-path="url(#clip560)" d="
M0 1600 L2400 1600 L2400 0 L0 0  Z
  " fill="#ffffff" fill-rule="evenodd" fill-opacity="1"/>
<defs>
  <clipPath id="clip561">
    <rect x="480" y="0" width="1681" height="1600"/>
  </clipPath>
</defs>
<path clip-path="url(#clip560)" d="
M193.936 1486.45 L2352.76 1486.45 L2352.76 123.472 L193.936 123.472  Z
  " fill="#ffffff" fill-rule="evenodd" fill-opacity="1"/>
<defs>
  <clipPath id="clip562">
    <rect x="193" y="123" width="2160" height="1364"/>
  </clipPath>
</defs>
<polyline clip-path="url(#clip562)" style="stroke:#000000; stroke-linecap:butt; stroke-linejoin:round; stroke-width:2; stroke-opacity:0.1; fill:none" points="
  255.035,1486.45 255.035,123.472 
  "/>
<polyline clip-path="url(#clip562)" style="stroke:#000000; stroke-linecap:butt; stroke-linejoin:round; stroke-width:2; stroke-opacity:0.1; fill:none" points="
  764.19,1486.45 764.19,123.472 
  "/>
<polyline clip-path="url(#clip562)" style="stroke:#000000; stroke-linecap:butt; stroke-linejoin:round; stroke-width:2; stroke-opacity:0.1; fill:none" points="
  1273.35,1486.45 1273.35,123.472 
  "/>
<polyline clip-path="url(#clip562)" style="stroke:#000000; stroke-linecap:butt; stroke-linejoin:round; stroke-width:2; stroke-opacity:0.1; fill:none" points="
  1782.5,1486.45 1782.5,123.472 
  "/>
<polyline clip-path="url(#clip562)" style="stroke:#000000; stroke-linecap:butt; stroke-linejoin:round; stroke-width:2; stroke-opacity:0.1; fill:none" points="
  2291.66,1486.45 2291.66,123.472 
  "/>
<polyline clip-path="url(#clip560)" style="stroke:#000000; stroke-linecap:butt; stroke-linejoin:round; stroke-width:4; stroke-opacity:1; fill:none" points="
  193.936,1486.45 2352.76,1486.45 
  "/>
<polyline clip-path="url(#clip560)" style="stroke:#000000; stroke-linecap:butt; stroke-linejoin:round; stroke-width:4; stroke-opacity:1; fill:none" points="
  255.035,1486.45 255.035,1467.55 
  "/>
<polyline clip-path="url(#clip560)" style="stroke:#000000; stroke-linecap:butt; stroke-linejoin:round; stroke-width:4; stroke-opacity:1; fill:none" points="
  764.19,1486.45 764.19,1467.55 
  "/>
<polyline clip-path="url(#clip560)" style="stroke:#000000; stroke-linecap:butt; stroke-linejoin:round; stroke-width:4; stroke-opacity:1; fill:none" points="
  1273.35,1486.45 1273.35,1467.55 
  "/>
<polyline clip-path="url(#clip560)" style="stroke:#000000; stroke-linecap:butt; stroke-linejoin:round; stroke-width:4; stroke-opacity:1; fill:none" points="
  1782.5,1486.45 1782.5,1467.55 
  "/>
<polyline clip-path="url(#clip560)" style="stroke:#000000; stroke-linecap:butt; stroke-linejoin:round; stroke-width:4; stroke-opacity:1; fill:none" points="
  2291.66,1486.45 2291.66,1467.55 
  "/>
<path clip-path="url(#clip560)" d="M201.563 1532.02 L231.239 1532.02 L231.239 1535.95 L201.563 1535.95 L201.563 1532.02 Z" fill="#000000" fill-rule="evenodd" fill-opacity="1" /><path clip-path="url(#clip560)" d="M242.141 1544.91 L249.78 1544.91 L249.78 1518.55 L241.47 1520.21 L241.47 1515.95 L249.734 1514.29 L254.41 1514.29 L254.41 1544.91 L262.049 1544.91 L262.049 1548.85 L242.141 1548.85 L242.141 1544.91 Z" fill="#000000" fill-rule="evenodd" fill-opacity="1" /><path clip-path="url(#clip560)" d="M271.493 1542.97 L276.377 1542.97 L276.377 1548.85 L271.493 1548.85 L271.493 1542.97 Z" fill="#000000" fill-rule="evenodd" fill-opacity="1" /><path clip-path="url(#clip560)" d="M296.562 1517.37 Q292.951 1517.37 291.122 1520.93 Q289.317 1524.47 289.317 1531.6 Q289.317 1538.71 291.122 1542.27 Q292.951 1545.82 296.562 1545.82 Q300.196 1545.82 302.002 1542.27 Q303.831 1538.71 303.831 1531.6 Q303.831 1524.47 302.002 1520.93 Q300.196 1517.37 296.562 1517.37 M296.562 1513.66 Q302.372 1513.66 305.428 1518.27 Q308.507 1522.85 308.507 1531.6 Q308.507 1540.33 305.428 1544.94 Q302.372 1549.52 296.562 1549.52 Q290.752 1549.52 287.673 1544.94 Q284.618 1540.33 284.618 1531.6 Q284.618 1522.85 287.673 1518.27 Q290.752 1513.66 296.562 1513.66 Z" fill="#000000" fill-rule="evenodd" fill-opacity="1" /><path clip-path="url(#clip560)" d="M711.216 1532.02 L740.892 1532.02 L740.892 1535.95 L711.216 1535.95 L711.216 1532.02 Z" fill="#000000" fill-rule="evenodd" fill-opacity="1" /><path clip-path="url(#clip560)" d="M760.984 1517.37 Q757.373 1517.37 755.545 1520.93 Q753.739 1524.47 753.739 1531.6 Q753.739 1538.71 755.545 1542.27 Q757.373 1545.82 760.984 1545.82 Q764.619 1545.82 766.424 1542.27 Q768.253 1538.71 768.253 1531.6 Q768.253 1524.47 766.424 1520.93 Q764.619 1517.37 760.984 1517.37 M760.984 1513.66 Q766.794 1513.66 769.85 1518.27 Q772.929 1522.85 772.929 1531.6 Q772.929 1540.33 769.85 1544.94 Q766.794 1549.52 760.984 1549.52 Q755.174 1549.52 752.095 1544.94 Q749.04 1540.33 749.04 1531.6 Q749.04 1522.85 752.095 1518.27 Q755.174 1513.66 760.984 1513.66 Z" fill="#000000" fill-rule="evenodd" fill-opacity="1" /><path clip-path="url(#clip560)" d="M781.146 1542.97 L786.03 1542.97 L786.03 1548.85 L781.146 1548.85 L781.146 1542.97 Z" fill="#000000" fill-rule="evenodd" fill-opacity="1" /><path clip-path="url(#clip560)" d="M796.262 1514.29 L814.618 1514.29 L814.618 1518.22 L800.544 1518.22 L800.544 1526.7 Q801.563 1526.35 802.581 1526.19 Q803.6 1526 804.618 1526 Q810.405 1526 813.785 1529.17 Q817.165 1532.34 817.165 1537.76 Q817.165 1543.34 813.692 1546.44 Q810.22 1549.52 803.901 1549.52 Q801.725 1549.52 799.456 1549.15 Q797.211 1548.78 794.804 1548.04 L794.804 1543.34 Q796.887 1544.47 799.109 1545.03 Q801.331 1545.58 803.808 1545.58 Q807.813 1545.58 810.151 1543.48 Q812.489 1541.37 812.489 1537.76 Q812.489 1534.15 810.151 1532.04 Q807.813 1529.94 803.808 1529.94 Q801.933 1529.94 800.058 1530.35 Q798.206 1530.77 796.262 1531.65 L796.262 1514.29 Z" fill="#000000" fill-rule="evenodd" fill-opacity="1" /><path clip-path="url(#clip560)" d="M1250.73 1517.37 Q1247.12 1517.37 1245.29 1520.93 Q1243.49 1524.47 1243.49 1531.6 Q1243.49 1538.71 1245.29 1542.27 Q1247.12 1545.82 1250.73 1545.82 Q1254.36 1545.82 1256.17 1542.27 Q1258 1538.71 1258 1531.6 Q1258 1524.47 1256.17 1520.93 Q1254.36 1517.37 1250.73 1517.37 M1250.73 1513.66 Q1256.54 1513.66 1259.6 1518.27 Q1262.67 1522.85 1262.67 1531.6 Q1262.67 1540.33 1259.6 1544.94 Q1256.54 1549.52 1250.73 1549.52 Q1244.92 1549.52 1241.84 1544.94 Q1238.79 1540.33 1238.79 1531.6 Q1238.79 1522.85 1241.84 1518.27 Q1244.92 1513.66 1250.73 1513.66 Z" fill="#000000" fill-rule="evenodd" fill-opacity="1" /><path clip-path="url(#clip560)" d="M1270.89 1542.97 L1275.78 1542.97 L1275.78 1548.85 L1270.89 1548.85 L1270.89 1542.97 Z" fill="#000000" fill-rule="evenodd" fill-opacity="1" /><path clip-path="url(#clip560)" d="M1295.96 1517.37 Q1292.35 1517.37 1290.52 1520.93 Q1288.72 1524.47 1288.72 1531.6 Q1288.72 1538.71 1290.52 1542.27 Q1292.35 1545.82 1295.96 1545.82 Q1299.6 1545.82 1301.4 1542.27 Q1303.23 1538.71 1303.23 1531.6 Q1303.23 1524.47 1301.4 1520.93 Q1299.6 1517.37 1295.96 1517.37 M1295.96 1513.66 Q1301.77 1513.66 1304.83 1518.27 Q1307.91 1522.85 1307.91 1531.6 Q1307.91 1540.33 1304.83 1544.94 Q1301.77 1549.52 1295.96 1549.52 Q1290.15 1549.52 1287.07 1544.94 Q1284.02 1540.33 1284.02 1531.6 Q1284.02 1522.85 1287.07 1518.27 Q1290.15 1513.66 1295.96 1513.66 Z" fill="#000000" fill-rule="evenodd" fill-opacity="1" /><path clip-path="url(#clip560)" d="M1760.38 1517.37 Q1756.77 1517.37 1754.94 1520.93 Q1753.14 1524.47 1753.14 1531.6 Q1753.14 1538.71 1754.94 1542.27 Q1756.77 1545.82 1760.38 1545.82 Q1764.02 1545.82 1765.82 1542.27 Q1767.65 1538.71 1767.65 1531.6 Q1767.65 1524.47 1765.82 1520.93 Q1764.02 1517.37 1760.38 1517.37 M1760.38 1513.66 Q1766.19 1513.66 1769.25 1518.27 Q1772.33 1522.85 1772.33 1531.6 Q1772.33 1540.33 1769.25 1544.94 Q1766.19 1549.52 1760.38 1549.52 Q1754.57 1549.52 1751.49 1544.94 Q1748.44 1540.33 1748.44 1531.6 Q1748.44 1522.85 1751.49 1518.27 Q1754.57 1513.66 1760.38 1513.66 Z" fill="#000000" fill-rule="evenodd" fill-opacity="1" /><path clip-path="url(#clip560)" d="M1780.55 1542.97 L1785.43 1542.97 L1785.43 1548.85 L1780.55 1548.85 L1780.55 1542.97 Z" fill="#000000" fill-rule="evenodd" fill-opacity="1" /><path clip-path="url(#clip560)" d="M1795.66 1514.29 L1814.02 1514.29 L1814.02 1518.22 L1799.94 1518.22 L1799.94 1526.7 Q1800.96 1526.35 1801.98 1526.19 Q1803 1526 1804.02 1526 Q1809.8 1526 1813.18 1529.17 Q1816.56 1532.34 1816.56 1537.76 Q1816.56 1543.34 1813.09 1546.44 Q1809.62 1549.52 1803.3 1549.52 Q1801.12 1549.52 1798.86 1549.15 Q1796.61 1548.78 1794.2 1548.04 L1794.2 1543.34 Q1796.29 1544.47 1798.51 1545.03 Q1800.73 1545.58 1803.21 1545.58 Q1807.21 1545.58 1809.55 1543.48 Q1811.89 1541.37 1811.89 1537.76 Q1811.89 1534.15 1809.55 1532.04 Q1807.21 1529.94 1803.21 1529.94 Q1801.33 1529.94 1799.46 1530.35 Q1797.61 1530.77 1795.66 1531.65 L1795.66 1514.29 Z" fill="#000000" fill-rule="evenodd" fill-opacity="1" /><path clip-path="url(#clip560)" d="M2258.81 1544.91 L2266.45 1544.91 L2266.45 1518.55 L2258.14 1520.21 L2258.14 1515.95 L2266.4 1514.29 L2271.08 1514.29 L2271.08 1544.91 L2278.72 1544.91 L2278.72 1548.85 L2258.81 1548.85 L2258.81 1544.91 Z" fill="#000000" fill-rule="evenodd" fill-opacity="1" /><path clip-path="url(#clip560)" d="M2288.16 1542.97 L2293.05 1542.97 L2293.05 1548.85 L2288.16 1548.85 L2288.16 1542.97 Z" fill="#000000" fill-rule="evenodd" fill-opacity="1" /><path clip-path="url(#clip560)" d="M2313.23 1517.37 Q2309.62 1517.37 2307.79 1520.93 Q2305.99 1524.47 2305.99 1531.6 Q2305.99 1538.71 2307.79 1542.27 Q2309.62 1545.82 2313.23 1545.82 Q2316.87 1545.82 2318.67 1542.27 Q2320.5 1538.71 2320.5 1531.6 Q2320.5 1524.47 2318.67 1520.93 Q2316.87 1517.37 2313.23 1517.37 M2313.23 1513.66 Q2319.04 1513.66 2322.1 1518.27 Q2325.18 1522.85 2325.18 1531.6 Q2325.18 1540.33 2322.1 1544.94 Q2319.04 1549.52 2313.23 1549.52 Q2307.42 1549.52 2304.34 1544.94 Q2301.29 1540.33 2301.29 1531.6 Q2301.29 1522.85 2304.34 1518.27 Q2307.42 1513.66 2313.23 1513.66 Z" fill="#000000" fill-rule="evenodd" fill-opacity="1" /><polyline clip-path="url(#clip562)" style="stroke:#000000; stroke-linecap:butt; stroke-linejoin:round; stroke-width:2; stroke-opacity:0.1; fill:none" points="
  193.936,1447.87 2352.76,1447.87 
  "/>
<polyline clip-path="url(#clip562)" style="stroke:#000000; stroke-linecap:butt; stroke-linejoin:round; stroke-width:2; stroke-opacity:0.1; fill:none" points="
  193.936,1126.42 2352.76,1126.42 
  "/>
<polyline clip-path="url(#clip562)" style="stroke:#000000; stroke-linecap:butt; stroke-linejoin:round; stroke-width:2; stroke-opacity:0.1; fill:none" points="
  193.936,804.96 2352.76,804.96 
  "/>
<polyline clip-path="url(#clip562)" style="stroke:#000000; stroke-linecap:butt; stroke-linejoin:round; stroke-width:2; stroke-opacity:0.1; fill:none" points="
  193.936,483.503 2352.76,483.503 
  "/>
<polyline clip-path="url(#clip562)" style="stroke:#000000; stroke-linecap:butt; stroke-linejoin:round; stroke-width:2; stroke-opacity:0.1; fill:none" points="
  193.936,162.047 2352.76,162.047 
  "/>
<polyline clip-path="url(#clip560)" style="stroke:#000000; stroke-linecap:butt; stroke-linejoin:round; stroke-width:4; stroke-opacity:1; fill:none" points="
  193.936,1486.45 193.936,123.472 
  "/>
<polyline clip-path="url(#clip560)" style="stroke:#000000; stroke-linecap:butt; stroke-linejoin:round; stroke-width:4; stroke-opacity:1; fill:none" points="
  193.936,1447.87 212.834,1447.87 
  "/>
<polyline clip-path="url(#clip560)" style="stroke:#000000; stroke-linecap:butt; stroke-linejoin:round; stroke-width:4; stroke-opacity:1; fill:none" points="
  193.936,1126.42 212.834,1126.42 
  "/>
<polyline clip-path="url(#clip560)" style="stroke:#000000; stroke-linecap:butt; stroke-linejoin:round; stroke-width:4; stroke-opacity:1; fill:none" points="
  193.936,804.96 212.834,804.96 
  "/>
<polyline clip-path="url(#clip560)" style="stroke:#000000; stroke-linecap:butt; stroke-linejoin:round; stroke-width:4; stroke-opacity:1; fill:none" points="
  193.936,483.503 212.834,483.503 
  "/>
<polyline clip-path="url(#clip560)" style="stroke:#000000; stroke-linecap:butt; stroke-linejoin:round; stroke-width:4; stroke-opacity:1; fill:none" points="
  193.936,162.047 212.834,162.047 
  "/>
<path clip-path="url(#clip560)" d="M50.9921 1448.32 L80.6679 1448.32 L80.6679 1452.26 L50.9921 1452.26 L50.9921 1448.32 Z" fill="#000000" fill-rule="evenodd" fill-opacity="1" /><path clip-path="url(#clip560)" d="M91.5706 1461.22 L99.2095 1461.22 L99.2095 1434.85 L90.8993 1436.52 L90.8993 1432.26 L99.1632 1430.59 L103.839 1430.59 L103.839 1461.22 L111.478 1461.22 L111.478 1465.15 L91.5706 1465.15 L91.5706 1461.22 Z" fill="#000000" fill-rule="evenodd" fill-opacity="1" /><path clip-path="url(#clip560)" d="M120.922 1459.27 L125.807 1459.27 L125.807 1465.15 L120.922 1465.15 L120.922 1459.27 Z" fill="#000000" fill-rule="evenodd" fill-opacity="1" /><path clip-path="url(#clip560)" d="M145.992 1433.67 Q142.381 1433.67 140.552 1437.24 Q138.746 1440.78 138.746 1447.91 Q138.746 1455.01 140.552 1458.58 Q142.381 1462.12 145.992 1462.12 Q149.626 1462.12 151.431 1458.58 Q153.26 1455.01 153.26 1447.91 Q153.26 1440.78 151.431 1437.24 Q149.626 1433.67 145.992 1433.67 M145.992 1429.97 Q151.802 1429.97 154.857 1434.57 Q157.936 1439.16 157.936 1447.91 Q157.936 1456.63 154.857 1461.24 Q151.802 1465.82 145.992 1465.82 Q140.181 1465.82 137.103 1461.24 Q134.047 1456.63 134.047 1447.91 Q134.047 1439.16 137.103 1434.57 Q140.181 1429.97 145.992 1429.97 Z" fill="#000000" fill-rule="evenodd" fill-opacity="1" /><path clip-path="url(#clip560)" d="M51.9875 1126.87 L81.6633 1126.87 L81.6633 1130.8 L51.9875 1130.8 L51.9875 1126.87 Z" fill="#000000" fill-rule="evenodd" fill-opacity="1" /><path clip-path="url(#clip560)" d="M101.756 1112.22 Q98.1447 1112.22 96.316 1115.78 Q94.5104 1119.32 94.5104 1126.45 Q94.5104 1133.56 96.316 1137.12 Q98.1447 1140.66 101.756 1140.66 Q105.39 1140.66 107.196 1137.12 Q109.024 1133.56 109.024 1126.45 Q109.024 1119.32 107.196 1115.78 Q105.39 1112.22 101.756 1112.22 M101.756 1108.51 Q107.566 1108.51 110.621 1113.12 Q113.7 1117.7 113.7 1126.45 Q113.7 1135.18 110.621 1139.78 Q107.566 1144.37 101.756 1144.37 Q95.9456 1144.37 92.8669 1139.78 Q89.8114 1135.18 89.8114 1126.45 Q89.8114 1117.7 92.8669 1113.12 Q95.9456 1108.51 101.756 1108.51 Z" fill="#000000" fill-rule="evenodd" fill-opacity="1" /><path clip-path="url(#clip560)" d="M121.918 1137.82 L126.802 1137.82 L126.802 1143.7 L121.918 1143.7 L121.918 1137.82 Z" fill="#000000" fill-rule="evenodd" fill-opacity="1" /><path clip-path="url(#clip560)" d="M137.033 1109.14 L155.39 1109.14 L155.39 1113.07 L141.316 1113.07 L141.316 1121.54 Q142.334 1121.2 143.353 1121.03 Q144.371 1120.85 145.39 1120.85 Q151.177 1120.85 154.556 1124.02 Q157.936 1127.19 157.936 1132.61 Q157.936 1138.19 154.464 1141.29 Q150.992 1144.37 144.672 1144.37 Q142.496 1144.37 140.228 1144 Q137.982 1143.63 135.575 1142.89 L135.575 1138.19 Q137.658 1139.32 139.881 1139.88 Q142.103 1140.43 144.58 1140.43 Q148.584 1140.43 150.922 1138.33 Q153.26 1136.22 153.26 1132.61 Q153.26 1129 150.922 1126.89 Q148.584 1124.78 144.58 1124.78 Q142.705 1124.78 140.83 1125.2 Q138.978 1125.62 137.033 1126.5 L137.033 1109.14 Z" fill="#000000" fill-rule="evenodd" fill-opacity="1" /><path clip-path="url(#clip560)" d="M100.76 790.759 Q97.1493 790.759 95.3206 794.323 Q93.515 797.865 93.515 804.995 Q93.515 812.101 95.3206 815.666 Q97.1493 819.208 100.76 819.208 Q104.395 819.208 106.2 815.666 Q108.029 812.101 108.029 804.995 Q108.029 797.865 106.2 794.323 Q104.395 790.759 100.76 790.759 M100.76 787.055 Q106.571 787.055 109.626 791.661 Q112.705 796.245 112.705 804.995 Q112.705 813.722 109.626 818.328 Q106.571 822.911 100.76 822.911 Q94.9502 822.911 91.8715 818.328 Q88.816 813.722 88.816 804.995 Q88.816 796.245 91.8715 791.661 Q94.9502 787.055 100.76 787.055 Z" fill="#000000" fill-rule="evenodd" fill-opacity="1" /><path clip-path="url(#clip560)" d="M120.922 816.36 L125.807 816.36 L125.807 822.24 L120.922 822.24 L120.922 816.36 Z" fill="#000000" fill-rule="evenodd" fill-opacity="1" /><path clip-path="url(#clip560)" d="M145.992 790.759 Q142.381 790.759 140.552 794.323 Q138.746 797.865 138.746 804.995 Q138.746 812.101 140.552 815.666 Q142.381 819.208 145.992 819.208 Q149.626 819.208 151.431 815.666 Q153.26 812.101 153.26 804.995 Q153.26 797.865 151.431 794.323 Q149.626 790.759 145.992 790.759 M145.992 787.055 Q151.802 787.055 154.857 791.661 Q157.936 796.245 157.936 804.995 Q157.936 813.722 154.857 818.328 Q151.802 822.911 145.992 822.911 Q140.181 822.911 137.103 818.328 Q134.047 813.722 134.047 804.995 Q134.047 796.245 137.103 791.661 Q140.181 787.055 145.992 787.055 Z" fill="#000000" fill-rule="evenodd" fill-opacity="1" /><path clip-path="url(#clip560)" d="M101.756 469.302 Q98.1447 469.302 96.316 472.867 Q94.5104 476.409 94.5104 483.538 Q94.5104 490.645 96.316 494.209 Q98.1447 497.751 101.756 497.751 Q105.39 497.751 107.196 494.209 Q109.024 490.645 109.024 483.538 Q109.024 476.409 107.196 472.867 Q105.39 469.302 101.756 469.302 M101.756 465.598 Q107.566 465.598 110.621 470.205 Q113.7 474.788 113.7 483.538 Q113.7 492.265 110.621 496.871 Q107.566 501.455 101.756 501.455 Q95.9456 501.455 92.8669 496.871 Q89.8114 492.265 89.8114 483.538 Q89.8114 474.788 92.8669 470.205 Q95.9456 465.598 101.756 465.598 Z" fill="#000000" fill-rule="evenodd" fill-opacity="1" /><path clip-path="url(#clip560)" d="M121.918 494.904 L126.802 494.904 L126.802 500.783 L121.918 500.783 L121.918 494.904 Z" fill="#000000" fill-rule="evenodd" fill-opacity="1" /><path clip-path="url(#clip560)" d="M137.033 466.223 L155.39 466.223 L155.39 470.159 L141.316 470.159 L141.316 478.631 Q142.334 478.284 143.353 478.122 Q144.371 477.936 145.39 477.936 Q151.177 477.936 154.556 481.108 Q157.936 484.279 157.936 489.696 Q157.936 495.274 154.464 498.376 Q150.992 501.455 144.672 501.455 Q142.496 501.455 140.228 501.084 Q137.982 500.714 135.575 499.973 L135.575 495.274 Q137.658 496.408 139.881 496.964 Q142.103 497.52 144.58 497.52 Q148.584 497.52 150.922 495.413 Q153.26 493.307 153.26 489.696 Q153.26 486.084 150.922 483.978 Q148.584 481.872 144.58 481.872 Q142.705 481.872 140.83 482.288 Q138.978 482.705 137.033 483.584 L137.033 466.223 Z" fill="#000000" fill-rule="evenodd" fill-opacity="1" /><path clip-path="url(#clip560)" d="M91.5706 175.392 L99.2095 175.392 L99.2095 149.026 L90.8993 150.693 L90.8993 146.434 L99.1632 144.767 L103.839 144.767 L103.839 175.392 L111.478 175.392 L111.478 179.327 L91.5706 179.327 L91.5706 175.392 Z" fill="#000000" fill-rule="evenodd" fill-opacity="1" /><path clip-path="url(#clip560)" d="M120.922 173.447 L125.807 173.447 L125.807 179.327 L120.922 179.327 L120.922 173.447 Z" fill="#000000" fill-rule="evenodd" fill-opacity="1" /><path clip-path="url(#clip560)" d="M145.992 147.846 Q142.381 147.846 140.552 151.41 Q138.746 154.952 138.746 162.082 Q138.746 169.188 140.552 172.753 Q142.381 176.295 145.992 176.295 Q149.626 176.295 151.431 172.753 Q153.26 169.188 153.26 162.082 Q153.26 154.952 151.431 151.41 Q149.626 147.846 145.992 147.846 M145.992 144.142 Q151.802 144.142 154.857 148.748 Q157.936 153.332 157.936 162.082 Q157.936 170.808 154.857 175.415 Q151.802 179.998 145.992 179.998 Q140.181 179.998 137.103 175.415 Q134.047 170.808 134.047 162.082 Q134.047 153.332 137.103 148.748 Q140.181 144.142 145.992 144.142 Z" fill="#000000" fill-rule="evenodd" fill-opacity="1" /><path clip-path="url(#clip560)" d="M833.722 16.7545 L833.722 25.383 Q829.59 21.5346 824.891 19.6307 Q820.232 17.7268 814.966 17.7268 Q804.596 17.7268 799.086 24.0867 Q793.577 30.4061 793.577 42.3968 Q793.577 54.3469 799.086 60.7069 Q804.596 67.0263 814.966 67.0263 Q820.232 67.0263 824.891 65.1223 Q829.59 63.2184 833.722 59.3701 L833.722 67.9175 Q829.428 70.8341 824.607 72.2924 Q819.827 73.7508 814.48 73.7508 Q800.747 73.7508 792.848 65.3654 Q784.949 56.9395 784.949 42.3968 Q784.949 27.8135 792.848 19.4281 Q800.747 11.0023 814.48 11.0023 Q819.908 11.0023 824.688 12.4606 Q829.509 13.8784 833.722 16.7545 Z" fill="#000000" fill-rule="evenodd" fill-opacity="1" /><path clip-path="url(#clip560)" d="M883.75 45.1919 L883.75 72.576 L876.297 72.576 L876.297 45.4349 Q876.297 38.994 873.785 35.7938 Q871.273 32.5936 866.25 32.5936 Q860.214 32.5936 856.731 36.4419 Q853.247 40.2903 853.247 46.9338 L853.247 72.576 L845.753 72.576 L845.753 9.54393 L853.247 9.54393 L853.247 34.2544 Q855.921 30.163 859.526 28.1376 Q863.172 26.1121 867.911 26.1121 Q875.729 26.1121 879.74 30.9732 Q883.75 35.7938 883.75 45.1919 Z" fill="#000000" fill-rule="evenodd" fill-opacity="1" /><path clip-path="url(#clip560)" d="M937.425 48.0275 L937.425 51.6733 L903.154 51.6733 Q903.64 59.3701 907.772 63.421 Q911.945 67.4314 919.358 67.4314 Q923.652 67.4314 927.662 66.3781 Q931.713 65.3249 935.683 63.2184 L935.683 70.267 Q931.672 71.9684 927.459 72.8596 Q923.247 73.7508 918.912 73.7508 Q908.056 73.7508 901.696 67.4314 Q895.376 61.1119 895.376 50.3365 Q895.376 39.1965 901.372 32.6746 Q907.408 26.1121 917.616 26.1121 Q926.771 26.1121 932.078 32.0264 Q937.425 37.9003 937.425 48.0275 M929.971 45.84 Q929.89 39.7232 926.528 36.0774 Q923.206 32.4315 917.697 32.4315 Q911.458 32.4315 907.691 35.9558 Q903.964 39.4801 903.397 45.8805 L929.971 45.84 Z" fill="#000000" fill-rule="evenodd" fill-opacity="1" /><path clip-path="url(#clip560)" d="M982.228 49.9314 Q982.228 41.7081 978.825 37.0496 Q975.463 32.3505 969.548 32.3505 Q963.634 32.3505 960.231 37.0496 Q956.869 41.7081 956.869 49.9314 Q956.869 58.1548 960.231 62.8538 Q963.634 67.5124 969.548 67.5124 Q975.463 67.5124 978.825 62.8538 Q982.228 58.1548 982.228 49.9314 M956.869 34.0924 Q959.219 30.0415 962.783 28.0971 Q966.389 26.1121 971.371 26.1121 Q979.635 26.1121 984.78 32.6746 Q989.965 39.2371 989.965 49.9314 Q989.965 60.6258 984.78 67.1883 Q979.635 73.7508 971.371 73.7508 Q966.389 73.7508 962.783 71.8063 Q959.219 69.8214 956.869 65.7705 L956.869 72.576 L949.375 72.576 L949.375 9.54393 L956.869 9.54393 L956.869 34.0924 Z" fill="#000000" fill-rule="evenodd" fill-opacity="1" /><path clip-path="url(#clip560)" d="M1021.2 76.7889 Q1018.04 84.8907 1015.04 87.3618 Q1012.04 89.8329 1007.02 89.8329 L1001.06 89.8329 L1001.06 83.5945 L1005.44 83.5945 Q1008.52 83.5945 1010.22 82.1361 Q1011.92 80.6778 1013.99 75.2496 L1015.32 71.8468 L996.973 27.2059 L1004.87 27.2059 L1019.05 62.6918 L1033.23 27.2059 L1041.13 27.2059 L1021.2 76.7889 Z" fill="#000000" fill-rule="evenodd" fill-opacity="1" /><path clip-path="url(#clip560)" d="M1080.34 28.5427 L1080.34 35.5912 Q1077.18 33.9709 1073.78 33.1607 Q1070.38 32.3505 1066.73 32.3505 Q1061.18 32.3505 1058.38 34.0519 Q1055.63 35.7533 1055.63 39.156 Q1055.63 41.7486 1057.62 43.2475 Q1059.6 44.7058 1065.6 46.0426 L1068.15 46.6097 Q1076.09 48.3111 1079.41 51.4303 Q1082.77 54.509 1082.77 60.0587 Q1082.77 66.3781 1077.75 70.0644 Q1072.77 73.7508 1064.02 73.7508 Q1060.37 73.7508 1056.4 73.0216 Q1052.47 72.3329 1048.1 70.9151 L1048.1 63.2184 Q1052.23 65.3654 1056.24 66.4591 Q1060.25 67.5124 1064.18 67.5124 Q1069.44 67.5124 1072.28 65.73 Q1075.11 63.9071 1075.11 60.6258 Q1075.11 57.5877 1073.05 55.9673 Q1071.02 54.3469 1064.1 52.8481 L1061.5 52.2405 Q1054.58 50.7821 1051.5 47.7845 Q1048.42 44.7463 1048.42 39.4801 Q1048.42 33.0797 1052.96 29.5959 Q1057.49 26.1121 1065.84 26.1121 Q1069.97 26.1121 1073.62 26.7198 Q1077.26 27.3274 1080.34 28.5427 Z" fill="#000000" fill-rule="evenodd" fill-opacity="1" /><path clip-path="url(#clip560)" d="M1132.35 45.1919 L1132.35 72.576 L1124.9 72.576 L1124.9 45.4349 Q1124.9 38.994 1122.39 35.7938 Q1119.88 32.5936 1114.85 32.5936 Q1108.82 32.5936 1105.33 36.4419 Q1101.85 40.2903 1101.85 46.9338 L1101.85 72.576 L1094.36 72.576 L1094.36 9.54393 L1101.85 9.54393 L1101.85 34.2544 Q1104.52 30.163 1108.13 28.1376 Q1111.78 26.1121 1116.52 26.1121 Q1124.33 26.1121 1128.34 30.9732 Q1132.35 35.7938 1132.35 45.1919 Z" fill="#000000" fill-rule="evenodd" fill-opacity="1" /><path clip-path="url(#clip560)" d="M1186.03 48.0275 L1186.03 51.6733 L1151.76 51.6733 Q1152.24 59.3701 1156.38 63.421 Q1160.55 67.4314 1167.96 67.4314 Q1172.26 67.4314 1176.27 66.3781 Q1180.32 65.3249 1184.29 63.2184 L1184.29 70.267 Q1180.28 71.9684 1176.06 72.8596 Q1171.85 73.7508 1167.52 73.7508 Q1156.66 73.7508 1150.3 67.4314 Q1143.98 61.1119 1143.98 50.3365 Q1143.98 39.1965 1149.98 32.6746 Q1156.01 26.1121 1166.22 26.1121 Q1175.37 26.1121 1180.68 32.0264 Q1186.03 37.9003 1186.03 48.0275 M1178.58 45.84 Q1178.49 39.7232 1175.13 36.0774 Q1171.81 32.4315 1166.3 32.4315 Q1160.06 32.4315 1156.3 35.9558 Q1152.57 39.4801 1152 45.8805 L1178.58 45.84 Z" fill="#000000" fill-rule="evenodd" fill-opacity="1" /><path clip-path="url(#clip560)" d="M1192.92 27.2059 L1200.81 27.2059 L1214.99 65.2844 L1229.17 27.2059 L1237.07 27.2059 L1220.06 72.576 L1209.93 72.576 L1192.92 27.2059 Z" fill="#000000" fill-rule="evenodd" fill-opacity="1" /><path clip-path="url(#clip560)" d="M1280.94 65.7705 L1280.94 89.8329 L1273.45 89.8329 L1273.45 27.2059 L1280.94 27.2059 L1280.94 34.0924 Q1283.29 30.0415 1286.86 28.0971 Q1290.46 26.1121 1295.44 26.1121 Q1303.71 26.1121 1308.85 32.6746 Q1314.04 39.2371 1314.04 49.9314 Q1314.04 60.6258 1308.85 67.1883 Q1303.71 73.7508 1295.44 73.7508 Q1290.46 73.7508 1286.86 71.8063 Q1283.29 69.8214 1280.94 65.7705 M1306.3 49.9314 Q1306.3 41.7081 1302.9 37.0496 Q1299.54 32.3505 1293.62 32.3505 Q1287.71 32.3505 1284.3 37.0496 Q1280.94 41.7081 1280.94 49.9314 Q1280.94 58.1548 1284.3 62.8538 Q1287.71 67.5124 1293.62 67.5124 Q1299.54 67.5124 1302.9 62.8538 Q1306.3 58.1548 1306.3 49.9314 Z" fill="#000000" fill-rule="evenodd" fill-opacity="1" /><path clip-path="url(#clip560)" d="M1343.97 32.4315 Q1337.98 32.4315 1334.49 37.1306 Q1331.01 41.7891 1331.01 49.9314 Q1331.01 58.0738 1334.45 62.7728 Q1337.94 67.4314 1343.97 67.4314 Q1349.93 67.4314 1353.41 62.7323 Q1356.9 58.0333 1356.9 49.9314 Q1356.9 41.8701 1353.41 37.1711 Q1349.93 32.4315 1343.97 32.4315 M1343.97 26.1121 Q1353.7 26.1121 1359.25 32.4315 Q1364.8 38.7509 1364.8 49.9314 Q1364.8 61.0714 1359.25 67.4314 Q1353.7 73.7508 1343.97 73.7508 Q1334.21 73.7508 1328.66 67.4314 Q1323.15 61.0714 1323.15 49.9314 Q1323.15 38.7509 1328.66 32.4315 Q1334.21 26.1121 1343.97 26.1121 Z" fill="#000000" fill-rule="evenodd" fill-opacity="1" /><path clip-path="url(#clip560)" d="M1377.15 9.54393 L1384.6 9.54393 L1384.6 72.576 L1377.15 72.576 L1377.15 9.54393 Z" fill="#000000" fill-rule="evenodd" fill-opacity="1" /><path clip-path="url(#clip560)" d="M1419.08 76.7889 Q1415.92 84.8907 1412.92 87.3618 Q1409.92 89.8329 1404.9 89.8329 L1398.94 89.8329 L1398.94 83.5945 L1403.32 83.5945 Q1406.4 83.5945 1408.1 82.1361 Q1409.8 80.6778 1411.87 75.2496 L1413.2 71.8468 L1394.85 27.2059 L1402.75 27.2059 L1416.93 62.6918 L1431.11 27.2059 L1439.01 27.2059 L1419.08 76.7889 Z" fill="#000000" fill-rule="evenodd" fill-opacity="1" /><path clip-path="url(#clip560)" d="M1487.01 45.1919 L1487.01 72.576 L1479.56 72.576 L1479.56 45.4349 Q1479.56 38.994 1477.05 35.7938 Q1474.53 32.5936 1469.51 32.5936 Q1463.48 32.5936 1459.99 36.4419 Q1456.51 40.2903 1456.51 46.9338 L1456.51 72.576 L1449.01 72.576 L1449.01 27.2059 L1456.51 27.2059 L1456.51 34.2544 Q1459.18 30.163 1462.79 28.1376 Q1466.43 26.1121 1471.17 26.1121 Q1478.99 26.1121 1483 30.9732 Q1487.01 35.7938 1487.01 45.1919 Z" fill="#000000" fill-rule="evenodd" fill-opacity="1" /><path clip-path="url(#clip560)" d="M1519.46 32.4315 Q1513.46 32.4315 1509.98 37.1306 Q1506.5 41.7891 1506.5 49.9314 Q1506.5 58.0738 1509.94 62.7728 Q1513.42 67.4314 1519.46 67.4314 Q1525.41 67.4314 1528.9 62.7323 Q1532.38 58.0333 1532.38 49.9314 Q1532.38 41.8701 1528.9 37.1711 Q1525.41 32.4315 1519.46 32.4315 M1519.46 26.1121 Q1529.18 26.1121 1534.73 32.4315 Q1540.28 38.7509 1540.28 49.9314 Q1540.28 61.0714 1534.73 67.4314 Q1529.18 73.7508 1519.46 73.7508 Q1509.7 73.7508 1504.15 67.4314 Q1498.64 61.0714 1498.64 49.9314 Q1498.64 38.7509 1504.15 32.4315 Q1509.7 26.1121 1519.46 26.1121 Z" fill="#000000" fill-rule="evenodd" fill-opacity="1" /><path clip-path="url(#clip560)" d="M1587.96 35.9153 Q1590.75 30.8922 1594.64 28.5022 Q1598.53 26.1121 1603.8 26.1121 Q1610.89 26.1121 1614.74 31.0947 Q1618.58 36.0368 1618.58 45.1919 L1618.58 72.576 L1611.09 72.576 L1611.09 45.4349 Q1611.09 38.913 1608.78 35.7533 Q1606.47 32.5936 1601.73 32.5936 Q1595.94 32.5936 1592.58 36.4419 Q1589.22 40.2903 1589.22 46.9338 L1589.22 72.576 L1581.72 72.576 L1581.72 45.4349 Q1581.72 38.8725 1579.41 35.7533 Q1577.1 32.5936 1572.28 32.5936 Q1566.57 32.5936 1563.21 36.4824 Q1559.85 40.3308 1559.85 46.9338 L1559.85 72.576 L1552.35 72.576 L1552.35 27.2059 L1559.85 27.2059 L1559.85 34.2544 Q1562.4 30.082 1565.96 28.0971 Q1569.53 26.1121 1574.43 26.1121 Q1579.37 26.1121 1582.81 28.6237 Q1586.3 31.1352 1587.96 35.9153 Z" fill="#000000" fill-rule="evenodd" fill-opacity="1" /><path clip-path="url(#clip560)" d="M1633.45 27.2059 L1640.9 27.2059 L1640.9 72.576 L1633.45 72.576 L1633.45 27.2059 M1633.45 9.54393 L1640.9 9.54393 L1640.9 18.9825 L1633.45 18.9825 L1633.45 9.54393 Z" fill="#000000" fill-rule="evenodd" fill-opacity="1" /><path clip-path="url(#clip560)" d="M1677.12 49.7694 Q1668.09 49.7694 1664.6 51.8354 Q1661.12 53.9013 1661.12 58.8839 Q1661.12 62.8538 1663.71 65.2034 Q1666.34 67.5124 1670.84 67.5124 Q1677.04 67.5124 1680.77 63.1374 Q1684.53 58.7219 1684.53 51.4303 L1684.53 49.7694 L1677.12 49.7694 M1691.99 46.6907 L1691.99 72.576 L1684.53 72.576 L1684.53 65.6895 Q1681.98 69.8214 1678.17 71.8063 Q1674.37 73.7508 1668.86 73.7508 Q1661.89 73.7508 1657.76 69.8619 Q1653.67 65.9325 1653.67 59.3701 Q1653.67 51.7138 1658.77 47.825 Q1663.91 43.9361 1674.08 43.9361 L1684.53 43.9361 L1684.53 43.2069 Q1684.53 38.0623 1681.13 35.2672 Q1677.77 32.4315 1671.65 32.4315 Q1667.76 32.4315 1664.08 33.3632 Q1660.39 34.295 1656.99 36.1584 L1656.99 29.2718 Q1661.08 27.692 1664.93 26.9223 Q1668.77 26.1121 1672.42 26.1121 Q1682.26 26.1121 1687.13 31.2163 Q1691.99 36.3204 1691.99 46.6907 Z" fill="#000000" fill-rule="evenodd" fill-opacity="1" /><path clip-path="url(#clip560)" d="M1707.34 9.54393 L1714.79 9.54393 L1714.79 72.576 L1707.34 72.576 L1707.34 9.54393 Z" fill="#000000" fill-rule="evenodd" fill-opacity="1" /><path clip-path="url(#clip560)" d="M1759.31 28.5427 L1759.31 35.5912 Q1756.15 33.9709 1752.75 33.1607 Q1749.35 32.3505 1745.7 32.3505 Q1740.15 32.3505 1737.36 34.0519 Q1734.6 35.7533 1734.6 39.156 Q1734.6 41.7486 1736.59 43.2475 Q1738.57 44.7058 1744.57 46.0426 L1747.12 46.6097 Q1755.06 48.3111 1758.38 51.4303 Q1761.74 54.509 1761.74 60.0587 Q1761.74 66.3781 1756.72 70.0644 Q1751.74 73.7508 1742.99 73.7508 Q1739.34 73.7508 1735.37 73.0216 Q1731.44 72.3329 1727.07 70.9151 L1727.07 63.2184 Q1731.2 65.3654 1735.21 66.4591 Q1739.22 67.5124 1743.15 67.5124 Q1748.42 67.5124 1751.25 65.73 Q1754.09 63.9071 1754.09 60.6258 Q1754.09 57.5877 1752.02 55.9673 Q1750 54.3469 1743.07 52.8481 L1740.48 52.2405 Q1733.55 50.7821 1730.47 47.7845 Q1727.39 44.7463 1727.39 39.4801 Q1727.39 33.0797 1731.93 29.5959 Q1736.47 26.1121 1744.81 26.1121 Q1748.94 26.1121 1752.59 26.7198 Q1756.23 27.3274 1759.31 28.5427 Z" fill="#000000" fill-rule="evenodd" fill-opacity="1" /><polyline clip-path="url(#clip562)" style="stroke:#009af9; stroke-linecap:butt; stroke-linejoin:round; stroke-width:16; stroke-opacity:1; fill:none" points="
  255.035,162.047 296.598,162.047 338.162,162.047 379.726,162.047 421.29,162.047 462.853,162.047 504.417,162.047 545.981,162.047 587.544,162.047 629.108,162.047 
  670.672,162.047 712.236,162.047 753.799,162.047 795.363,162.047 836.927,162.047 878.491,162.047 920.054,162.047 961.618,162.047 1003.18,162.047 1044.75,162.047 
  1086.31,162.047 1127.87,162.047 1169.44,162.047 1211,162.047 1252.56,162.047 1294.13,162.047 1335.69,162.047 1377.26,162.047 1418.82,162.047 1460.38,162.047 
  1501.95,162.047 1543.51,162.047 1585.07,162.047 1626.64,162.047 1668.2,162.047 1709.77,162.047 1751.33,162.047 1792.89,162.047 1834.46,162.047 1876.02,162.047 
  1917.58,162.047 1959.15,162.047 2000.71,162.047 2042.27,162.047 2083.84,162.047 2125.4,162.047 2166.97,162.047 2208.53,162.047 2250.09,162.047 2291.66,162.047 
  
  "/>
<polyline clip-path="url(#clip562)" style="stroke:#e26f46; stroke-linecap:butt; stroke-linejoin:round; stroke-width:16; stroke-opacity:1; fill:none" points="
  255.035,1447.87 296.598,1421.63 338.162,1395.39 379.726,1369.15 421.29,1342.91 462.853,1316.67 504.417,1290.42 545.981,1264.18 587.544,1237.94 629.108,1211.7 
  670.672,1185.46 712.236,1159.22 753.799,1132.98 795.363,1106.74 836.927,1080.49 878.491,1054.25 920.054,1028.01 961.618,1001.77 1003.18,975.529 1044.75,949.287 
  1086.31,923.046 1127.87,896.805 1169.44,870.563 1211,844.322 1252.56,818.081 1294.13,791.839 1335.69,765.598 1377.26,739.357 1418.82,713.115 1460.38,686.874 
  1501.95,660.633 1543.51,634.391 1585.07,608.15 1626.64,581.909 1668.2,555.667 1709.77,529.426 1751.33,503.184 1792.89,476.943 1834.46,450.702 1876.02,424.46 
  1917.58,398.219 1959.15,371.978 2000.71,345.736 2042.27,319.495 2083.84,293.254 2125.4,267.012 2166.97,240.771 2208.53,214.53 2250.09,188.288 2291.66,162.047 
  
  "/>
<polyline clip-path="url(#clip562)" style="stroke:#3da44d; stroke-linecap:butt; stroke-linejoin:round; stroke-width:16; stroke-opacity:1; fill:none" points="
  255.035,162.047 296.598,264.87 338.162,363.409 379.726,457.664 421.29,547.634 462.853,633.32 504.417,714.722 545.981,791.839 587.544,864.672 629.108,933.221 
  670.672,997.486 712.236,1057.47 753.799,1113.16 795.363,1164.57 836.927,1211.7 878.491,1254.54 920.054,1293.1 961.618,1327.38 1003.18,1357.37 1044.75,1383.07 
  1086.31,1404.49 1127.87,1421.63 1169.44,1434.48 1211,1443.05 1252.56,1447.34 1294.13,1447.34 1335.69,1443.05 1377.26,1434.48 1418.82,1421.63 1460.38,1404.49 
  1501.95,1383.07 1543.51,1357.37 1585.07,1327.38 1626.64,1293.1 1668.2,1254.54 1709.77,1211.7 1751.33,1164.57 1792.89,1113.16 1834.46,1057.47 1876.02,997.486 
  1917.58,933.221 1959.15,864.672 2000.71,791.839 2042.27,714.722 2083.84,633.32 2125.4,547.634 2166.97,457.664 2208.53,363.409 2250.09,264.87 2291.66,162.047 
  
  "/>
<polyline clip-path="url(#clip562)" style="stroke:#c271d2; stroke-linecap:butt; stroke-linejoin:round; stroke-width:16; stroke-opacity:1; fill:none" points="
  255.035,1447.87 296.598,1224.38 338.162,1025.54 379.726,850.311 421.29,697.639 462.853,566.476 504.417,455.773 545.981,364.48 587.544,291.549 629.108,235.929 
  670.672,196.573 712.236,172.43 753.799,162.451 795.363,165.588 836.927,180.791 878.491,207.01 920.054,243.197 961.618,288.303 1003.18,341.277 1044.75,401.072 
  1086.31,466.637 1127.87,536.923 1169.44,610.882 1211,687.464 1252.56,765.62 1294.13,844.3 1335.69,922.456 1377.26,999.038 1418.82,1073 1460.38,1143.28 
  1501.95,1208.85 1543.51,1268.64 1585.07,1321.62 1626.64,1366.72 1668.2,1402.91 1709.77,1429.13 1751.33,1444.33 1792.89,1447.47 1834.46,1437.49 1876.02,1413.35 
  1917.58,1373.99 1959.15,1318.37 2000.71,1245.44 2042.27,1154.15 2083.84,1043.44 2125.4,912.281 2166.97,759.609 2208.53,584.379 2250.09,385.541 2291.66,162.047 
  
  "/>
<polyline clip-path="url(#clip562)" style="stroke:#ac8d18; stroke-linecap:butt; stroke-linejoin:round; stroke-width:16; stroke-opacity:1; fill:none" points="
  255.035,162.047 296.598,540.45 338.162,841.361 379.726,1072.66 421.29,1241.88 462.853,1356.23 504.417,1422.54 545.981,1447.34 587.544,1436.78 629.108,1396.7 
  670.672,1332.57 712.236,1249.53 753.799,1152.38 795.363,1045.57 836.927,933.221 878.491,819.092 920.054,706.612 961.618,598.864 1003.18,498.589 1044.75,408.185 
  1086.31,329.707 1127.87,264.87 1169.44,215.043 1211,181.254 1252.56,164.188 1294.13,164.188 1335.69,181.254 1377.26,215.043 1418.82,264.87 1460.38,329.707 
  1501.95,408.185 1543.51,498.589 1585.07,598.864 1626.64,706.612 1668.2,819.092 1709.77,933.221 1751.33,1045.57 1792.89,1152.38 1834.46,1249.53 1876.02,1332.57 
  1917.58,1396.7 1959.15,1436.78 2000.71,1447.34 2042.27,1422.54 2083.84,1356.23 2125.4,1241.88 2166.97,1072.66 2208.53,841.361 2250.09,540.45 2291.66,162.047 
  
  "/>
<path clip-path="url(#clip560)" d="
M1959.71 635.465 L2280.8 635.465 L2280.8 168.905 L1959.71 168.905  Z
  " fill="#ffffff" fill-rule="evenodd" fill-opacity="1"/>
<polyline clip-path="url(#clip560)" style="stroke:#000000; stroke-linecap:butt; stroke-linejoin:round; stroke-width:4; stroke-opacity:1; fill:none" points="
  1959.71,635.465 2280.8,635.465 2280.8,168.905 1959.71,168.905 1959.71,635.465 
  "/>
<polyline clip-path="url(#clip560)" style="stroke:#009af9; stroke-linecap:butt; stroke-linejoin:round; stroke-width:6; stroke-opacity:1; fill:none" points="
  1983.7,246.665 2127.62,246.665 
  "/>
<path clip-path="url(#clip560)" d="M2172.37 276.196 Q2169.66 283.14 2167.09 285.258 Q2164.52 287.376 2160.22 287.376 L2155.11 287.376 L2155.11 282.029 L2158.86 282.029 Q2161.5 282.029 2162.96 280.779 Q2164.42 279.529 2166.19 274.876 L2167.34 271.96 L2151.61 233.696 L2158.38 233.696 L2170.53 264.112 L2182.68 233.696 L2189.45 233.696 L2172.37 276.196 Z" fill="#000000" fill-rule="evenodd" fill-opacity="1" /><path clip-path="url(#clip560)" d="M2200.39 266.682 L2211.85 266.682 L2211.85 227.134 L2199.38 229.633 L2199.38 223.245 L2211.78 220.745 L2218.79 220.745 L2218.79 266.682 L2230.25 266.682 L2230.25 272.585 L2200.39 272.585 L2200.39 266.682 Z" fill="#000000" fill-rule="evenodd" fill-opacity="1" /><polyline clip-path="url(#clip560)" style="stroke:#e26f46; stroke-linecap:butt; stroke-linejoin:round; stroke-width:6; stroke-opacity:1; fill:none" points="
  1983.7,324.425 2127.62,324.425 
  "/>
<path clip-path="url(#clip560)" d="M2172.37 353.956 Q2169.66 360.9 2167.09 363.018 Q2164.52 365.136 2160.22 365.136 L2155.11 365.136 L2155.11 359.789 L2158.86 359.789 Q2161.5 359.789 2162.96 358.539 Q2164.42 357.289 2166.19 352.636 L2167.34 349.72 L2151.61 311.456 L2158.38 311.456 L2170.53 341.872 L2182.68 311.456 L2189.45 311.456 L2172.37 353.956 Z" fill="#000000" fill-rule="evenodd" fill-opacity="1" /><path clip-path="url(#clip560)" d="M2205.22 344.442 L2229.7 344.442 L2229.7 350.345 L2196.78 350.345 L2196.78 344.442 Q2200.77 340.31 2207.65 333.366 Q2214.56 326.386 2216.33 324.373 Q2219.7 320.588 2221.02 317.984 Q2222.37 315.345 2222.37 312.81 Q2222.37 308.678 2219.45 306.074 Q2216.57 303.47 2211.92 303.47 Q2208.62 303.47 2204.94 304.616 Q2201.29 305.762 2197.13 308.088 L2197.13 301.005 Q2201.36 299.303 2205.04 298.435 Q2208.72 297.567 2211.78 297.567 Q2219.84 297.567 2224.63 301.595 Q2229.42 305.623 2229.42 312.359 Q2229.42 315.553 2228.2 318.435 Q2227.02 321.282 2223.86 325.171 Q2223 326.178 2218.34 331.004 Q2213.69 335.796 2205.22 344.442 Z" fill="#000000" fill-rule="evenodd" fill-opacity="1" /><polyline clip-path="url(#clip560)" style="stroke:#3da44d; stroke-linecap:butt; stroke-linejoin:round; stroke-width:6; stroke-opacity:1; fill:none" points="
  1983.7,402.185 2127.62,402.185 
  "/>
<path clip-path="url(#clip560)" d="M2172.37 431.716 Q2169.66 438.66 2167.09 440.778 Q2164.52 442.896 2160.22 442.896 L2155.11 442.896 L2155.11 437.549 L2158.86 437.549 Q2161.5 437.549 2162.96 436.299 Q2164.42 435.049 2166.19 430.396 L2167.34 427.48 L2151.61 389.216 L2158.38 389.216 L2170.53 419.632 L2182.68 389.216 L2189.45 389.216 L2172.37 431.716 Z" fill="#000000" fill-rule="evenodd" fill-opacity="1" /><path clip-path="url(#clip560)" d="M2220.43 400.153 Q2225.46 401.23 2228.27 404.633 Q2231.12 408.035 2231.12 413.035 Q2231.12 420.709 2225.84 424.91 Q2220.56 429.112 2210.84 429.112 Q2207.58 429.112 2204.11 428.452 Q2200.67 427.827 2196.99 426.542 L2196.99 419.771 Q2199.9 421.473 2203.38 422.341 Q2206.85 423.209 2210.63 423.209 Q2217.23 423.209 2220.67 420.605 Q2224.14 418.001 2224.14 413.035 Q2224.14 408.452 2220.91 405.883 Q2217.72 403.278 2211.99 403.278 L2205.95 403.278 L2205.95 397.515 L2212.27 397.515 Q2217.44 397.515 2220.18 395.466 Q2222.93 393.383 2222.93 389.494 Q2222.93 385.501 2220.08 383.383 Q2217.27 381.23 2211.99 381.23 Q2209.11 381.23 2205.81 381.855 Q2202.51 382.48 2198.55 383.799 L2198.55 377.549 Q2202.54 376.438 2206.02 375.883 Q2209.52 375.327 2212.61 375.327 Q2220.6 375.327 2225.25 378.973 Q2229.9 382.584 2229.9 388.765 Q2229.9 393.07 2227.44 396.056 Q2224.97 399.008 2220.43 400.153 Z" fill="#000000" fill-rule="evenodd" fill-opacity="1" /><polyline clip-path="url(#clip560)" style="stroke:#c271d2; stroke-linecap:butt; stroke-linejoin:round; stroke-width:6; stroke-opacity:1; fill:none" points="
  1983.7,479.945 2127.62,479.945 
  "/>
<path clip-path="url(#clip560)" d="M2172.37 509.476 Q2169.66 516.42 2167.09 518.538 Q2164.52 520.656 2160.22 520.656 L2155.11 520.656 L2155.11 515.309 L2158.86 515.309 Q2161.5 515.309 2162.96 514.059 Q2164.42 512.809 2166.19 508.156 L2167.34 505.24 L2151.61 466.976 L2158.38 466.976 L2170.53 497.392 L2182.68 466.976 L2189.45 466.976 L2172.37 509.476 Z" fill="#000000" fill-rule="evenodd" fill-opacity="1" /><path clip-path="url(#clip560)" d="M2218.45 460.136 L2200.74 487.809 L2218.45 487.809 L2218.45 460.136 M2216.61 454.025 L2225.43 454.025 L2225.43 487.809 L2232.82 487.809 L2232.82 493.642 L2225.43 493.642 L2225.43 505.865 L2218.45 505.865 L2218.45 493.642 L2195.04 493.642 L2195.04 486.872 L2216.61 454.025 Z" fill="#000000" fill-rule="evenodd" fill-opacity="1" /><polyline clip-path="url(#clip560)" style="stroke:#ac8d18; stroke-linecap:butt; stroke-linejoin:round; stroke-width:6; stroke-opacity:1; fill:none" points="
  1983.7,557.705 2127.62,557.705 
  "/>
<path clip-path="url(#clip560)" d="M2172.37 587.236 Q2169.66 594.18 2167.09 596.298 Q2164.52 598.416 2160.22 598.416 L2155.11 598.416 L2155.11 593.069 L2158.86 593.069 Q2161.5 593.069 2162.96 591.819 Q2164.42 590.569 2166.19 585.916 L2167.34 583 L2151.61 544.736 L2158.38 544.736 L2170.53 575.152 L2182.68 544.736 L2189.45 544.736 L2172.37 587.236 Z" fill="#000000" fill-rule="evenodd" fill-opacity="1" /><path clip-path="url(#clip560)" d="M2199.25 531.785 L2226.78 531.785 L2226.78 537.687 L2205.67 537.687 L2205.67 550.396 Q2207.2 549.875 2208.72 549.632 Q2210.25 549.354 2211.78 549.354 Q2220.46 549.354 2225.53 554.111 Q2230.6 558.868 2230.6 566.993 Q2230.6 575.361 2225.39 580.014 Q2220.18 584.632 2210.7 584.632 Q2207.44 584.632 2204.04 584.076 Q2200.67 583.52 2197.06 582.409 L2197.06 575.361 Q2200.18 577.062 2203.52 577.896 Q2206.85 578.729 2210.56 578.729 Q2216.57 578.729 2220.08 575.569 Q2223.59 572.409 2223.59 566.993 Q2223.59 561.576 2220.08 558.416 Q2216.57 555.257 2210.56 555.257 Q2207.75 555.257 2204.94 555.882 Q2202.16 556.507 2199.25 557.826 L2199.25 531.785 Z" fill="#000000" fill-rule="evenodd" fill-opacity="1" /></svg>
