<?xml version="1.0" encoding="utf-8"?>
<svg xmlns="http://www.w3.org/2000/svg" xmlns:xlink="http://www.w3.org/1999/xlink" width="600" height="400" viewBox="0 0 2400 1600">
<defs>
  <clipPath id="clip280">
    <rect x="0" y="0" width="2400" height="1600"/>
  </clipPath>
</defs>
<path clip-path="url(#clip280)" d="
M0 1600 L2400 1600 L2400 0 L0 0  Z
  " fill="#ffffff" fill-rule="evenodd" fill-opacity="1"/>
<defs>
  <clipPath id="clip281">
    <rect x="480" y="0" width="1681" height="1600"/>
  </clipPath>
</defs>
<path clip-path="url(#clip280)" d="
M213.607 1486.45 L2352.76 1486.45 L2352.76 47.2441 L213.607 47.2441  Z
  " fill="#ffffff" fill-rule="evenodd" fill-opacity="1"/>
<defs>
  <clipPath id="clip282">
    <rect x="213" y="47" width="2140" height="1440"/>
  </clipPath>
</defs>
<polyline clip-path="url(#clip282)" style="stroke:#000000; stroke-linecap:butt; stroke-linejoin:round; stroke-width:2; stroke-opacity:0.1; fill:none" points="
  274.149,1486.45 274.149,47.2441 
  "/>
<polyline clip-path="url(#clip282)" style="stroke:#000000; stroke-linecap:butt; stroke-linejoin:round; stroke-width:2; stroke-opacity:0.1; fill:none" points="
  946.838,1486.45 946.838,47.2441 
  "/>
<polyline clip-path="url(#clip282)" style="stroke:#000000; stroke-linecap:butt; stroke-linejoin:round; stroke-width:2; stroke-opacity:0.1; fill:none" points="
  1619.53,1486.45 1619.53,47.2441 
  "/>
<polyline clip-path="url(#clip282)" style="stroke:#000000; stroke-linecap:butt; stroke-linejoin:round; stroke-width:2; stroke-opacity:0.1; fill:none" points="
  2292.21,1486.45 2292.21,47.2441 
  "/>
<polyline clip-path="url(#clip280)" style="stroke:#000000; stroke-linecap:butt; stroke-linejoin:round; stroke-width:4; stroke-opacity:1; fill:none" points="
  213.607,1486.45 2352.76,1486.45 
  "/>
<polyline clip-path="url(#clip280)" style="stroke:#000000; stroke-linecap:butt; stroke-linejoin:round; stroke-width:4; stroke-opacity:1; fill:none" points="
  274.149,1486.45 274.149,1467.55 
  "/>
<polyline clip-path="url(#clip280)" style="stroke:#000000; stroke-linecap:butt; stroke-linejoin:round; stroke-width:4; stroke-opacity:1; fill:none" points="
  946.838,1486.45 946.838,1467.55 
  "/>
<polyline clip-path="url(#clip280)" style="stroke:#000000; stroke-linecap:butt; stroke-linejoin:round; stroke-width:4; stroke-opacity:1; fill:none" points="
  1619.53,1486.45 1619.53,1467.55 
  "/>
<polyline clip-path="url(#clip280)" style="stroke:#000000; stroke-linecap:butt; stroke-linejoin:round; stroke-width:4; stroke-opacity:1; fill:none" points="
  2292.21,1486.45 2292.21,1467.55 
  "/>
<path clip-path="url(#clip280)" d="M264.531 1544.91 L272.17 1544.91 L272.17 1518.55 L263.86 1520.21 L263.86 1515.95 L272.124 1514.29 L276.8 1514.29 L276.8 1544.91 L284.439 1544.91 L284.439 1548.85 L264.531 1548.85 L264.531 1544.91 Z" fill="#000000" fill-rule="evenodd" fill-opacity="1" /><path clip-path="url(#clip280)" d="M941.49 1544.91 L957.81 1544.91 L957.81 1548.85 L935.865 1548.85 L935.865 1544.91 Q938.527 1542.16 943.111 1537.53 Q947.717 1532.88 948.898 1531.53 Q951.143 1529.01 952.023 1527.27 Q952.926 1525.51 952.926 1523.82 Q952.926 1521.07 950.981 1519.33 Q949.06 1517.6 945.958 1517.6 Q943.759 1517.6 941.305 1518.36 Q938.875 1519.13 936.097 1520.68 L936.097 1515.95 Q938.921 1514.82 941.375 1514.24 Q943.828 1513.66 945.865 1513.66 Q951.236 1513.66 954.43 1516.35 Q957.625 1519.03 957.625 1523.52 Q957.625 1525.65 956.814 1527.57 Q956.027 1529.47 953.921 1532.07 Q953.342 1532.74 950.24 1535.95 Q947.139 1539.15 941.49 1544.91 Z" fill="#000000" fill-rule="evenodd" fill-opacity="1" /><path clip-path="url(#clip280)" d="M1623.77 1530.21 Q1627.13 1530.93 1629 1533.2 Q1630.9 1535.47 1630.9 1538.8 Q1630.9 1543.92 1627.38 1546.72 Q1623.87 1549.52 1617.38 1549.52 Q1615.21 1549.52 1612.89 1549.08 Q1610.6 1548.66 1608.15 1547.81 L1608.15 1543.29 Q1610.09 1544.43 1612.41 1545.01 Q1614.72 1545.58 1617.25 1545.58 Q1621.64 1545.58 1623.94 1543.85 Q1626.25 1542.11 1626.25 1538.8 Q1626.25 1535.75 1624.1 1534.03 Q1621.97 1532.3 1618.15 1532.3 L1614.12 1532.3 L1614.12 1528.45 L1618.33 1528.45 Q1621.78 1528.45 1623.61 1527.09 Q1625.44 1525.7 1625.44 1523.11 Q1625.44 1520.45 1623.54 1519.03 Q1621.67 1517.6 1618.15 1517.6 Q1616.23 1517.6 1614.03 1518.01 Q1611.83 1518.43 1609.19 1519.31 L1609.19 1515.14 Q1611.85 1514.4 1614.17 1514.03 Q1616.5 1513.66 1618.57 1513.66 Q1623.89 1513.66 1626.99 1516.09 Q1630.09 1518.5 1630.09 1522.62 Q1630.09 1525.49 1628.45 1527.48 Q1626.81 1529.45 1623.77 1530.21 Z" fill="#000000" fill-rule="evenodd" fill-opacity="1" /><path clip-path="url(#clip280)" d="M2295.22 1518.36 L2283.42 1536.81 L2295.22 1536.81 L2295.22 1518.36 M2294 1514.29 L2299.88 1514.29 L2299.88 1536.81 L2304.81 1536.81 L2304.81 1540.7 L2299.88 1540.7 L2299.88 1548.85 L2295.22 1548.85 L2295.22 1540.7 L2279.62 1540.7 L2279.62 1536.19 L2294 1514.29 Z" fill="#000000" fill-rule="evenodd" fill-opacity="1" /><polyline clip-path="url(#clip282)" style="stroke:#000000; stroke-linecap:butt; stroke-linejoin:round; stroke-width:2; stroke-opacity:0.1; fill:none" points="
  213.607,1231.34 2352.76,1231.34 
  "/>
<polyline clip-path="url(#clip282)" style="stroke:#000000; stroke-linecap:butt; stroke-linejoin:round; stroke-width:2; stroke-opacity:0.1; fill:none" points="
  213.607,664.771 2352.76,664.771 
  "/>
<polyline clip-path="url(#clip282)" style="stroke:#000000; stroke-linecap:butt; stroke-linejoin:round; stroke-width:2; stroke-opacity:0.1; fill:none" points="
  213.607,98.2004 2352.76,98.2004 
  "/>
<polyline clip-path="url(#clip280)" style="stroke:#000000; stroke-linecap:butt; stroke-linejoin:round; stroke-width:4; stroke-opacity:1; fill:none" points="
  213.607,1486.45 213.607,47.2441 
  "/>
<polyline clip-path="url(#clip280)" style="stroke:#000000; stroke-linecap:butt; stroke-linejoin:round; stroke-width:4; stroke-opacity:1; fill:none" points="
  213.607,1231.34 232.505,1231.34 
  "/>
<polyline clip-path="url(#clip280)" style="stroke:#000000; stroke-linecap:butt; stroke-linejoin:round; stroke-width:4; stroke-opacity:1; fill:none" points="
  213.607,664.771 232.505,664.771 
  "/>
<polyline clip-path="url(#clip280)" style="stroke:#000000; stroke-linecap:butt; stroke-linejoin:round; stroke-width:4; stroke-opacity:1; fill:none" points="
  213.607,98.2004 232.505,98.2004 
  "/>
<path clip-path="url(#clip280)" d="M51.6634 1251.13 L59.3023 1251.13 L59.3023 1224.77 L50.9921 1226.44 L50.9921 1222.18 L59.256 1220.51 L63.9319 1220.51 L63.9319 1251.13 L71.5707 1251.13 L71.5707 1255.07 L51.6634 1255.07 L51.6634 1251.13 Z" fill="#000000" fill-rule="evenodd" fill-opacity="1" /><path clip-path="url(#clip280)" d="M91.0151 1223.59 Q87.404 1223.59 85.5753 1227.15 Q83.7697 1230.69 83.7697 1237.82 Q83.7697 1244.93 85.5753 1248.5 Q87.404 1252.04 91.0151 1252.04 Q94.6493 1252.04 96.4548 1248.5 Q98.2835 1244.93 98.2835 1237.82 Q98.2835 1230.69 96.4548 1227.15 Q94.6493 1223.59 91.0151 1223.59 M91.0151 1219.88 Q96.8252 1219.88 99.8808 1224.49 Q102.959 1229.07 102.959 1237.82 Q102.959 1246.55 99.8808 1251.16 Q96.8252 1255.74 91.0151 1255.74 Q85.2049 1255.74 82.1262 1251.16 Q79.0707 1246.55 79.0707 1237.82 Q79.0707 1229.07 82.1262 1224.49 Q85.2049 1219.88 91.0151 1219.88 Z" fill="#000000" fill-rule="evenodd" fill-opacity="1" /><path clip-path="url(#clip280)" d="M102.959 1213.99 L127.071 1213.99 L127.071 1217.18 L102.959 1217.18 L102.959 1213.99 Z" fill="#000000" fill-rule="evenodd" fill-opacity="1" /><path clip-path="url(#clip280)" d="M135.929 1224.46 L142.136 1224.46 L142.136 1203.04 L135.384 1204.39 L135.384 1200.93 L142.098 1199.58 L145.898 1199.58 L145.898 1224.46 L152.104 1224.46 L152.104 1227.66 L135.929 1227.66 L135.929 1224.46 Z" fill="#000000" fill-rule="evenodd" fill-opacity="1" /><path clip-path="url(#clip280)" d="M167.903 1202.08 Q164.969 1202.08 163.483 1204.98 Q162.016 1207.85 162.016 1213.65 Q162.016 1219.42 163.483 1222.32 Q164.969 1225.19 167.903 1225.19 Q170.855 1225.19 172.322 1222.32 Q173.808 1219.42 173.808 1213.65 Q173.808 1207.85 172.322 1204.98 Q170.855 1202.08 167.903 1202.08 M167.903 1199.07 Q172.623 1199.07 175.106 1202.81 Q177.607 1206.54 177.607 1213.65 Q177.607 1220.74 175.106 1224.48 Q172.623 1228.2 167.903 1228.2 Q163.182 1228.2 160.68 1224.48 Q158.198 1220.74 158.198 1213.65 Q158.198 1206.54 160.68 1202.81 Q163.182 1199.07 167.903 1199.07 Z" fill="#000000" fill-rule="evenodd" fill-opacity="1" /><path clip-path="url(#clip280)" d="M76.9787 684.563 L84.6175 684.563 L84.6175 658.198 L76.3074 659.864 L76.3074 655.605 L84.5712 653.939 L89.2471 653.939 L89.2471 684.563 L96.886 684.563 L96.886 688.499 L76.9787 688.499 L76.9787 684.563 Z" fill="#000000" fill-rule="evenodd" fill-opacity="1" /><path clip-path="url(#clip280)" d="M116.33 657.017 Q112.719 657.017 110.891 660.582 Q109.085 664.124 109.085 671.253 Q109.085 678.36 110.891 681.925 Q112.719 685.466 116.33 685.466 Q119.965 685.466 121.77 681.925 Q123.599 678.36 123.599 671.253 Q123.599 664.124 121.77 660.582 Q119.965 657.017 116.33 657.017 M116.33 653.314 Q122.14 653.314 125.196 657.92 Q128.275 662.503 128.275 671.253 Q128.275 679.98 125.196 684.587 Q122.14 689.17 116.33 689.17 Q110.52 689.17 107.441 684.587 Q104.386 679.98 104.386 671.253 Q104.386 662.503 107.441 657.92 Q110.52 653.314 116.33 653.314 Z" fill="#000000" fill-rule="evenodd" fill-opacity="1" /><path clip-path="url(#clip280)" d="M128.275 647.415 L152.386 647.415 L152.386 650.612 L128.275 650.612 L128.275 647.415 Z" fill="#000000" fill-rule="evenodd" fill-opacity="1" /><path clip-path="url(#clip280)" d="M160.624 633.008 L175.539 633.008 L175.539 636.205 L164.103 636.205 L164.103 643.089 Q164.931 642.807 165.759 642.675 Q166.586 642.525 167.414 642.525 Q172.116 642.525 174.862 645.102 Q177.607 647.678 177.607 652.079 Q177.607 656.612 174.786 659.132 Q171.965 661.634 166.831 661.634 Q165.063 661.634 163.22 661.333 Q161.395 661.032 159.439 660.43 L159.439 656.612 Q161.132 657.533 162.937 657.985 Q164.743 658.436 166.755 658.436 Q170.009 658.436 171.909 656.725 Q173.808 655.013 173.808 652.079 Q173.808 649.145 171.909 647.434 Q170.009 645.722 166.755 645.722 Q165.232 645.722 163.709 646.061 Q162.204 646.399 160.624 647.114 L160.624 633.008 Z" fill="#000000" fill-rule="evenodd" fill-opacity="1" /><path clip-path="url(#clip280)" d="M106.902 117.993 L114.541 117.993 L114.541 91.6272 L106.231 93.2939 L106.231 89.0346 L114.494 87.368 L119.17 87.368 L119.17 117.993 L126.809 117.993 L126.809 121.928 L106.902 121.928 L106.902 117.993 Z" fill="#000000" fill-rule="evenodd" fill-opacity="1" /><path clip-path="url(#clip280)" d="M146.253 90.4467 Q142.642 90.4467 140.814 94.0115 Q139.008 97.5531 139.008 104.683 Q139.008 111.789 140.814 115.354 Q142.642 118.896 146.253 118.896 Q149.888 118.896 151.693 115.354 Q153.522 111.789 153.522 104.683 Q153.522 97.5531 151.693 94.0115 Q149.888 90.4467 146.253 90.4467 M146.253 86.743 Q152.064 86.743 155.119 91.3494 Q158.198 95.9328 158.198 104.683 Q158.198 113.41 155.119 118.016 Q152.064 122.599 146.253 122.599 Q140.443 122.599 137.365 118.016 Q134.309 113.41 134.309 104.683 Q134.309 95.9328 137.365 91.3494 Q140.443 86.743 146.253 86.743 Z" fill="#000000" fill-rule="evenodd" fill-opacity="1" /><path clip-path="url(#clip280)" d="M167.903 68.939 Q164.969 68.939 163.483 71.8354 Q162.016 74.713 162.016 80.5058 Q162.016 86.2798 163.483 89.1762 Q164.969 92.0538 167.903 92.0538 Q170.855 92.0538 172.322 89.1762 Q173.808 86.2798 173.808 80.5058 Q173.808 74.713 172.322 71.8354 Q170.855 68.939 167.903 68.939 M167.903 65.9298 Q172.623 65.9298 175.106 69.6725 Q177.607 73.3965 177.607 80.5058 Q177.607 87.5963 175.106 91.3391 Q172.623 95.063 167.903 95.063 Q163.182 95.063 160.68 91.3391 Q158.198 87.5963 158.198 80.5058 Q158.198 73.3965 160.68 69.6725 Q163.182 65.9298 167.903 65.9298 Z" fill="#000000" fill-rule="evenodd" fill-opacity="1" /><polyline clip-path="url(#clip282)" style="stroke:#009af9; stroke-linecap:butt; stroke-linejoin:round; stroke-width:16; stroke-opacity:1; fill:none" points="
  274.149,87.9763 946.838,379.244 1619.53,734.791 2292.21,1445.72 
  "/>
<circle clip-path="url(#clip282)" cx="274.149" cy="87.9763" r="14" fill="#009af9" fill-rule="evenodd" fill-opacity="1" stroke="#000000" stroke-opacity="1" stroke-width="3.2"/>
<circle clip-path="url(#clip282)" cx="946.838" cy="379.244" r="14" fill="#009af9" fill-rule="evenodd" fill-opacity="1" stroke="#000000" stroke-opacity="1" stroke-width="3.2"/>
<circle clip-path="url(#clip282)" cx="1619.53" cy="734.791" r="14" fill="#009af9" fill-rule="evenodd" fill-opacity="1" stroke="#000000" stroke-opacity="1" stroke-width="3.2"/>
<circle clip-path="url(#clip282)" cx="2292.21" cy="1445.72" r="14" fill="#009af9" fill-rule="evenodd" fill-opacity="1" stroke="#000000" stroke-opacity="1" stroke-width="3.2"/>
<path clip-path="url(#clip280)" d="
M1965.12 250.738 L2281.45 250.738 L2281.45 95.2176 L1965.12 95.2176  Z
  " fill="#ffffff" fill-rule="evenodd" fill-opacity="1"/>
<polyline clip-path="url(#clip280)" style="stroke:#000000; stroke-linecap:butt; stroke-linejoin:round; stroke-width:4; stroke-opacity:1; fill:none" points="
  1965.12,250.738 2281.45,250.738 2281.45,95.2176 1965.12,95.2176 1965.12,250.738 
  "/>
<polyline clip-path="url(#clip280)" style="stroke:#009af9; stroke-linecap:butt; stroke-linejoin:round; stroke-width:6; stroke-opacity:1; fill:none" points="
  1988.89,172.978 2131.5,172.978 
  "/>
<circle clip-path="url(#clip280)" cx="2060.2" cy="172.978" r="34" fill="#009af9" fill-rule="evenodd" fill-opacity="1" stroke="#000000" stroke-opacity="1" stroke-width="7.68"/>
<path clip-path="url(#clip280)" d="M2176.03 202.509 Q2173.32 209.453 2170.75 211.571 Q2168.19 213.689 2163.88 213.689 L2158.78 213.689 L2158.78 208.342 L2162.53 208.342 Q2165.16 208.342 2166.62 207.092 Q2168.08 205.842 2169.85 201.189 L2171 198.273 L2155.27 160.009 L2162.04 160.009 L2174.19 190.425 L2186.35 160.009 L2193.12 160.009 L2176.03 202.509 Z" fill="#000000" fill-rule="evenodd" fill-opacity="1" /><path clip-path="url(#clip280)" d="M2204.05 192.995 L2215.51 192.995 L2215.51 153.446 L2203.05 155.946 L2203.05 149.558 L2215.44 147.058 L2222.46 147.058 L2222.46 192.995 L2233.91 192.995 L2233.91 198.898 L2204.05 198.898 L2204.05 192.995 Z" fill="#000000" fill-rule="evenodd" fill-opacity="1" /></svg>
