<?xml version="1.0" encoding="utf-8"?>
<svg xmlns="http://www.w3.org/2000/svg" xmlns:xlink="http://www.w3.org/1999/xlink" width="600" height="400" viewBox="0 0 2400 1600">
<defs>
  <clipPath id="clip760">
    <rect x="0" y="0" width="2400" height="1600"/>
  </clipPath>
</defs>
<path clip-path="url(#clip760)" d="
M0 1600 L2400 1600 L2400 0 L0 0  Z
  " fill="#ffffff" fill-rule="evenodd" fill-opacity="1"/>
<defs>
  <clipPath id="clip761">
    <rect x="480" y="0" width="1681" height="1600"/>
  </clipPath>
</defs>
<path clip-path="url(#clip760)" d="
M193.936 1486.45 L2112.76 1486.45 L2112.76 47.2441 L193.936 47.2441  Z
  " fill="#ffffff" fill-rule="evenodd" fill-opacity="1"/>
<defs>
  <clipPath id="clip762">
    <rect x="193" y="47" width="1920" height="1440"/>
  </clipPath>
</defs>
<polyline clip-path="url(#clip762)" style="stroke:#000000; stroke-linecap:butt; stroke-linejoin:round; stroke-width:2; stroke-opacity:0.1; fill:none" points="
  248.242,1486.45 248.242,47.2441 
  "/>
<polyline clip-path="url(#clip762)" style="stroke:#000000; stroke-linecap:butt; stroke-linejoin:round; stroke-width:2; stroke-opacity:0.1; fill:none" points="
  700.794,1486.45 700.794,47.2441 
  "/>
<polyline clip-path="url(#clip762)" style="stroke:#000000; stroke-linecap:butt; stroke-linejoin:round; stroke-width:2; stroke-opacity:0.1; fill:none" points="
  1153.35,1486.45 1153.35,47.2441 
  "/>
<polyline clip-path="url(#clip762)" style="stroke:#000000; stroke-linecap:butt; stroke-linejoin:round; stroke-width:2; stroke-opacity:0.1; fill:none" points="
  1605.9,1486.45 1605.9,47.2441 
  "/>
<polyline clip-path="url(#clip762)" style="stroke:#000000; stroke-linecap:butt; stroke-linejoin:round; stroke-width:2; stroke-opacity:0.1; fill:none" points="
  2058.45,1486.45 2058.45,47.2441 
  "/>
<polyline clip-path="url(#clip760)" style="stroke:#000000; stroke-linecap:butt; stroke-linejoin:round; stroke-width:4; stroke-opacity:1; fill:none" points="
  193.936,1486.45 2112.76,1486.45 
  "/>
<polyline clip-path="url(#clip760)" style="stroke:#000000; stroke-linecap:butt; stroke-linejoin:round; stroke-width:4; stroke-opacity:1; fill:none" points="
  248.242,1486.45 248.242,1467.55 
  "/>
<polyline clip-path="url(#clip760)" style="stroke:#000000; stroke-linecap:butt; stroke-linejoin:round; stroke-width:4; stroke-opacity:1; fill:none" points="
  700.794,1486.45 700.794,1467.55 
  "/>
<polyline clip-path="url(#clip760)" style="stroke:#000000; stroke-linecap:butt; stroke-linejoin:round; stroke-width:4; stroke-opacity:1; fill:none" points="
  1153.35,1486.45 1153.35,1467.55 
  "/>
<polyline clip-path="url(#clip760)" style="stroke:#000000; stroke-linecap:butt; stroke-linejoin:round; stroke-width:4; stroke-opacity:1; fill:none" points="
  1605.9,1486.45 1605.9,1467.55 
  "/>
<polyline clip-path="url(#clip760)" style="stroke:#000000; stroke-linecap:butt; stroke-linejoin:round; stroke-width:4; stroke-opacity:1; fill:none" points="
  2058.45,1486.45 2058.45,1467.55 
  "/>
<path clip-path="url(#clip760)" d="M194.77 1532.02 L224.446 1532.02 L224.446 1535.95 L194.77 1535.95 L194.77 1532.02 Z" fill="#000000" fill-rule="evenodd" fill-opacity="1" /><path clip-path="url(#clip760)" d="M235.349 1544.91 L242.988 1544.91 L242.988 1518.55 L234.677 1520.21 L234.677 1515.95 L242.941 1514.29 L247.617 1514.29 L247.617 1544.91 L255.256 1544.91 L255.256 1548.85 L235.349 1548.85 L235.349 1544.91 Z" fill="#000000" fill-rule="evenodd" fill-opacity="1" /><path clip-path="url(#clip760)" d="M264.7 1542.97 L269.585 1542.97 L269.585 1548.85 L264.7 1548.85 L264.7 1542.97 Z" fill="#000000" fill-rule="evenodd" fill-opacity="1" /><path clip-path="url(#clip760)" d="M289.77 1517.37 Q286.159 1517.37 284.33 1520.93 Q282.524 1524.47 282.524 1531.6 Q282.524 1538.71 284.33 1542.27 Q286.159 1545.82 289.77 1545.82 Q293.404 1545.82 295.21 1542.27 Q297.038 1538.71 297.038 1531.6 Q297.038 1524.47 295.21 1520.93 Q293.404 1517.37 289.77 1517.37 M289.77 1513.66 Q295.58 1513.66 298.635 1518.27 Q301.714 1522.85 301.714 1531.6 Q301.714 1540.33 298.635 1544.94 Q295.58 1549.52 289.77 1549.52 Q283.96 1549.52 280.881 1544.94 Q277.825 1540.33 277.825 1531.6 Q277.825 1522.85 280.881 1518.27 Q283.96 1513.66 289.77 1513.66 Z" fill="#000000" fill-rule="evenodd" fill-opacity="1" /><path clip-path="url(#clip760)" d="M647.82 1532.02 L677.496 1532.02 L677.496 1535.95 L647.82 1535.95 L647.82 1532.02 Z" fill="#000000" fill-rule="evenodd" fill-opacity="1" /><path clip-path="url(#clip760)" d="M697.588 1517.37 Q693.977 1517.37 692.148 1520.93 Q690.343 1524.47 690.343 1531.6 Q690.343 1538.71 692.148 1542.27 Q693.977 1545.82 697.588 1545.82 Q701.222 1545.82 703.028 1542.27 Q704.857 1538.71 704.857 1531.6 Q704.857 1524.47 703.028 1520.93 Q701.222 1517.37 697.588 1517.37 M697.588 1513.66 Q703.398 1513.66 706.454 1518.27 Q709.532 1522.85 709.532 1531.6 Q709.532 1540.33 706.454 1544.94 Q703.398 1549.52 697.588 1549.52 Q691.778 1549.52 688.699 1544.94 Q685.644 1540.33 685.644 1531.6 Q685.644 1522.85 688.699 1518.27 Q691.778 1513.66 697.588 1513.66 Z" fill="#000000" fill-rule="evenodd" fill-opacity="1" /><path clip-path="url(#clip760)" d="M717.75 1542.97 L722.634 1542.97 L722.634 1548.85 L717.75 1548.85 L717.75 1542.97 Z" fill="#000000" fill-rule="evenodd" fill-opacity="1" /><path clip-path="url(#clip760)" d="M732.866 1514.29 L751.222 1514.29 L751.222 1518.22 L737.148 1518.22 L737.148 1526.7 Q738.167 1526.35 739.185 1526.19 Q740.204 1526 741.222 1526 Q747.009 1526 750.389 1529.17 Q753.768 1532.34 753.768 1537.76 Q753.768 1543.34 750.296 1546.44 Q746.824 1549.52 740.505 1549.52 Q738.329 1549.52 736.06 1549.15 Q733.815 1548.78 731.407 1548.04 L731.407 1543.34 Q733.491 1544.47 735.713 1545.03 Q737.935 1545.58 740.412 1545.58 Q744.417 1545.58 746.754 1543.48 Q749.092 1541.37 749.092 1537.76 Q749.092 1534.15 746.754 1532.04 Q744.417 1529.94 740.412 1529.94 Q738.537 1529.94 736.662 1530.35 Q734.81 1530.77 732.866 1531.65 L732.866 1514.29 Z" fill="#000000" fill-rule="evenodd" fill-opacity="1" /><path clip-path="url(#clip760)" d="M1130.73 1517.37 Q1127.12 1517.37 1125.29 1520.93 Q1123.49 1524.47 1123.49 1531.6 Q1123.49 1538.71 1125.29 1542.27 Q1127.12 1545.82 1130.73 1545.82 Q1134.36 1545.82 1136.17 1542.27 Q1138 1538.71 1138 1531.6 Q1138 1524.47 1136.17 1520.93 Q1134.36 1517.37 1130.73 1517.37 M1130.73 1513.66 Q1136.54 1513.66 1139.6 1518.27 Q1142.67 1522.85 1142.67 1531.6 Q1142.67 1540.33 1139.6 1544.94 Q1136.54 1549.52 1130.73 1549.52 Q1124.92 1549.52 1121.84 1544.94 Q1118.79 1540.33 1118.79 1531.6 Q1118.79 1522.85 1121.84 1518.27 Q1124.92 1513.66 1130.73 1513.66 Z" fill="#000000" fill-rule="evenodd" fill-opacity="1" /><path clip-path="url(#clip760)" d="M1150.89 1542.97 L1155.78 1542.97 L1155.78 1548.85 L1150.89 1548.85 L1150.89 1542.97 Z" fill="#000000" fill-rule="evenodd" fill-opacity="1" /><path clip-path="url(#clip760)" d="M1175.96 1517.37 Q1172.35 1517.37 1170.52 1520.93 Q1168.72 1524.47 1168.72 1531.6 Q1168.72 1538.71 1170.52 1542.27 Q1172.35 1545.82 1175.96 1545.82 Q1179.6 1545.82 1181.4 1542.27 Q1183.23 1538.71 1183.23 1531.6 Q1183.23 1524.47 1181.4 1520.93 Q1179.6 1517.37 1175.96 1517.37 M1175.96 1513.66 Q1181.77 1513.66 1184.83 1518.27 Q1187.91 1522.85 1187.91 1531.6 Q1187.91 1540.33 1184.83 1544.94 Q1181.77 1549.52 1175.96 1549.52 Q1170.15 1549.52 1167.07 1544.94 Q1164.02 1540.33 1164.02 1531.6 Q1164.02 1522.85 1167.07 1518.27 Q1170.15 1513.66 1175.96 1513.66 Z" fill="#000000" fill-rule="evenodd" fill-opacity="1" /><path clip-path="url(#clip760)" d="M1583.78 1517.37 Q1580.17 1517.37 1578.34 1520.93 Q1576.53 1524.47 1576.53 1531.6 Q1576.53 1538.71 1578.34 1542.27 Q1580.17 1545.82 1583.78 1545.82 Q1587.41 1545.82 1589.22 1542.27 Q1591.05 1538.71 1591.05 1531.6 Q1591.05 1524.47 1589.22 1520.93 Q1587.41 1517.37 1583.78 1517.37 M1583.78 1513.66 Q1589.59 1513.66 1592.65 1518.27 Q1595.72 1522.85 1595.72 1531.6 Q1595.72 1540.33 1592.65 1544.94 Q1589.59 1549.52 1583.78 1549.52 Q1577.97 1549.52 1574.89 1544.94 Q1571.84 1540.33 1571.84 1531.6 Q1571.84 1522.85 1574.89 1518.27 Q1577.97 1513.66 1583.78 1513.66 Z" fill="#000000" fill-rule="evenodd" fill-opacity="1" /><path clip-path="url(#clip760)" d="M1603.94 1542.97 L1608.83 1542.97 L1608.83 1548.85 L1603.94 1548.85 L1603.94 1542.97 Z" fill="#000000" fill-rule="evenodd" fill-opacity="1" /><path clip-path="url(#clip760)" d="M1619.06 1514.29 L1637.41 1514.29 L1637.41 1518.22 L1623.34 1518.22 L1623.34 1526.7 Q1624.36 1526.35 1625.38 1526.19 Q1626.4 1526 1627.41 1526 Q1633.2 1526 1636.58 1529.17 Q1639.96 1532.34 1639.96 1537.76 Q1639.96 1543.34 1636.49 1546.44 Q1633.02 1549.52 1626.7 1549.52 Q1624.52 1549.52 1622.25 1549.15 Q1620.01 1548.78 1617.6 1548.04 L1617.6 1543.34 Q1619.68 1544.47 1621.9 1545.03 Q1624.13 1545.58 1626.6 1545.58 Q1630.61 1545.58 1632.95 1543.48 Q1635.28 1541.37 1635.28 1537.76 Q1635.28 1534.15 1632.95 1532.04 Q1630.61 1529.94 1626.6 1529.94 Q1624.73 1529.94 1622.85 1530.35 Q1621 1530.77 1619.06 1531.65 L1619.06 1514.29 Z" fill="#000000" fill-rule="evenodd" fill-opacity="1" /><path clip-path="url(#clip760)" d="M2025.6 1544.91 L2033.24 1544.91 L2033.24 1518.55 L2024.93 1520.21 L2024.93 1515.95 L2033.2 1514.29 L2037.87 1514.29 L2037.87 1544.91 L2045.51 1544.91 L2045.51 1548.85 L2025.6 1548.85 L2025.6 1544.91 Z" fill="#000000" fill-rule="evenodd" fill-opacity="1" /><path clip-path="url(#clip760)" d="M2054.95 1542.97 L2059.84 1542.97 L2059.84 1548.85 L2054.95 1548.85 L2054.95 1542.97 Z" fill="#000000" fill-rule="evenodd" fill-opacity="1" /><path clip-path="url(#clip760)" d="M2080.02 1517.37 Q2076.41 1517.37 2074.58 1520.93 Q2072.78 1524.47 2072.78 1531.6 Q2072.78 1538.71 2074.58 1542.27 Q2076.41 1545.82 2080.02 1545.82 Q2083.66 1545.82 2085.46 1542.27 Q2087.29 1538.71 2087.29 1531.6 Q2087.29 1524.47 2085.46 1520.93 Q2083.66 1517.37 2080.02 1517.37 M2080.02 1513.66 Q2085.83 1513.66 2088.89 1518.27 Q2091.97 1522.85 2091.97 1531.6 Q2091.97 1540.33 2088.89 1544.94 Q2085.83 1549.52 2080.02 1549.52 Q2074.21 1549.52 2071.13 1544.94 Q2068.08 1540.33 2068.08 1531.6 Q2068.08 1522.85 2071.13 1518.27 Q2074.21 1513.66 2080.02 1513.66 Z" fill="#000000" fill-rule="evenodd" fill-opacity="1" /><polyline clip-path="url(#clip762)" style="stroke:#000000; stroke-linecap:butt; stroke-linejoin:round; stroke-width:2; stroke-opacity:0.1; fill:none" points="
  193.936,1445.72 2112.76,1445.72 
  "/>
<polyline clip-path="url(#clip762)" style="stroke:#000000; stroke-linecap:butt; stroke-linejoin:round; stroke-width:2; stroke-opacity:0.1; fill:none" points="
  193.936,1106.28 2112.76,1106.28 
  "/>
<polyline clip-path="url(#clip762)" style="stroke:#000000; stroke-linecap:butt; stroke-linejoin:round; stroke-width:2; stroke-opacity:0.1; fill:none" points="
  193.936,766.846 2112.76,766.846 
  "/>
<polyline clip-path="url(#clip762)" style="stroke:#000000; stroke-linecap:butt; stroke-linejoin:round; stroke-width:2; stroke-opacity:0.1; fill:none" points="
  193.936,427.411 2112.76,427.411 
  "/>
<polyline clip-path="url(#clip762)" style="stroke:#000000; stroke-linecap:butt; stroke-linejoin:round; stroke-width:2; stroke-opacity:0.1; fill:none" points="
  193.936,87.9763 2112.76,87.9763 
  "/>
<polyline clip-path="url(#clip760)" style="stroke:#000000; stroke-linecap:butt; stroke-linejoin:round; stroke-width:4; stroke-opacity:1; fill:none" points="
  193.936,1486.45 193.936,47.2441 
  "/>
<polyline clip-path="url(#clip760)" style="stroke:#000000; stroke-linecap:butt; stroke-linejoin:round; stroke-width:4; stroke-opacity:1; fill:none" points="
  193.936,1445.72 210.733,1445.72 
  "/>
<polyline clip-path="url(#clip760)" style="stroke:#000000; stroke-linecap:butt; stroke-linejoin:round; stroke-width:4; stroke-opacity:1; fill:none" points="
  193.936,1106.28 210.733,1106.28 
  "/>
<polyline clip-path="url(#clip760)" style="stroke:#000000; stroke-linecap:butt; stroke-linejoin:round; stroke-width:4; stroke-opacity:1; fill:none" points="
  193.936,766.846 210.733,766.846 
  "/>
<polyline clip-path="url(#clip760)" style="stroke:#000000; stroke-linecap:butt; stroke-linejoin:round; stroke-width:4; stroke-opacity:1; fill:none" points="
  193.936,427.411 210.733,427.411 
  "/>
<polyline clip-path="url(#clip760)" style="stroke:#000000; stroke-linecap:butt; stroke-linejoin:round; stroke-width:4; stroke-opacity:1; fill:none" points="
  193.936,87.9763 210.733,87.9763 
  "/>
<path clip-path="url(#clip760)" d="M50.9921 1446.17 L80.6679 1446.17 L80.6679 1450.1 L50.9921 1450.1 L50.9921 1446.17 Z" fill="#000000" fill-rule="evenodd" fill-opacity="1" /><path clip-path="url(#clip760)" d="M91.5706 1459.06 L99.2095 1459.06 L99.2095 1432.69 L90.8993 1434.36 L90.8993 1430.1 L99.1632 1428.44 L103.839 1428.44 L103.839 1459.06 L111.478 1459.06 L111.478 1463 L91.5706 1463 L91.5706 1459.06 Z" fill="#000000" fill-rule="evenodd" fill-opacity="1" /><path clip-path="url(#clip760)" d="M120.922 1457.12 L125.807 1457.12 L125.807 1463 L120.922 1463 L120.922 1457.12 Z" fill="#000000" fill-rule="evenodd" fill-opacity="1" /><path clip-path="url(#clip760)" d="M145.992 1431.51 Q142.381 1431.51 140.552 1435.08 Q138.746 1438.62 138.746 1445.75 Q138.746 1452.86 140.552 1456.42 Q142.381 1459.96 145.992 1459.96 Q149.626 1459.96 151.431 1456.42 Q153.26 1452.86 153.26 1445.75 Q153.26 1438.62 151.431 1435.08 Q149.626 1431.51 145.992 1431.51 M145.992 1427.81 Q151.802 1427.81 154.857 1432.42 Q157.936 1437 157.936 1445.75 Q157.936 1454.48 154.857 1459.08 Q151.802 1463.67 145.992 1463.67 Q140.181 1463.67 137.103 1459.08 Q134.047 1454.48 134.047 1445.75 Q134.047 1437 137.103 1432.42 Q140.181 1427.81 145.992 1427.81 Z" fill="#000000" fill-rule="evenodd" fill-opacity="1" /><path clip-path="url(#clip760)" d="M51.9875 1106.73 L81.6633 1106.73 L81.6633 1110.67 L51.9875 1110.67 L51.9875 1106.73 Z" fill="#000000" fill-rule="evenodd" fill-opacity="1" /><path clip-path="url(#clip760)" d="M101.756 1092.08 Q98.1447 1092.08 96.316 1095.64 Q94.5104 1099.19 94.5104 1106.32 Q94.5104 1113.42 96.316 1116.99 Q98.1447 1120.53 101.756 1120.53 Q105.39 1120.53 107.196 1116.99 Q109.024 1113.42 109.024 1106.32 Q109.024 1099.19 107.196 1095.64 Q105.39 1092.08 101.756 1092.08 M101.756 1088.38 Q107.566 1088.38 110.621 1092.98 Q113.7 1097.57 113.7 1106.32 Q113.7 1115.04 110.621 1119.65 Q107.566 1124.23 101.756 1124.23 Q95.9456 1124.23 92.8669 1119.65 Q89.8114 1115.04 89.8114 1106.32 Q89.8114 1097.57 92.8669 1092.98 Q95.9456 1088.38 101.756 1088.38 Z" fill="#000000" fill-rule="evenodd" fill-opacity="1" /><path clip-path="url(#clip760)" d="M121.918 1117.68 L126.802 1117.68 L126.802 1123.56 L121.918 1123.56 L121.918 1117.68 Z" fill="#000000" fill-rule="evenodd" fill-opacity="1" /><path clip-path="url(#clip760)" d="M137.033 1089 L155.39 1089 L155.39 1092.94 L141.316 1092.94 L141.316 1101.41 Q142.334 1101.06 143.353 1100.9 Q144.371 1100.71 145.39 1100.71 Q151.177 1100.71 154.556 1103.89 Q157.936 1107.06 157.936 1112.47 Q157.936 1118.05 154.464 1121.15 Q150.992 1124.23 144.672 1124.23 Q142.496 1124.23 140.228 1123.86 Q137.982 1123.49 135.575 1122.75 L135.575 1118.05 Q137.658 1119.19 139.881 1119.74 Q142.103 1120.3 144.58 1120.3 Q148.584 1120.3 150.922 1118.19 Q153.26 1116.08 153.26 1112.47 Q153.26 1108.86 150.922 1106.76 Q148.584 1104.65 144.58 1104.65 Q142.705 1104.65 140.83 1105.07 Q138.978 1105.48 137.033 1106.36 L137.033 1089 Z" fill="#000000" fill-rule="evenodd" fill-opacity="1" /><path clip-path="url(#clip760)" d="M100.76 752.645 Q97.1493 752.645 95.3206 756.209 Q93.515 759.751 93.515 766.881 Q93.515 773.987 95.3206 777.552 Q97.1493 781.094 100.76 781.094 Q104.395 781.094 106.2 777.552 Q108.029 773.987 108.029 766.881 Q108.029 759.751 106.2 756.209 Q104.395 752.645 100.76 752.645 M100.76 748.941 Q106.571 748.941 109.626 753.547 Q112.705 758.131 112.705 766.881 Q112.705 775.608 109.626 780.214 Q106.571 784.797 100.76 784.797 Q94.9502 784.797 91.8715 780.214 Q88.816 775.608 88.816 766.881 Q88.816 758.131 91.8715 753.547 Q94.9502 748.941 100.76 748.941 Z" fill="#000000" fill-rule="evenodd" fill-opacity="1" /><path clip-path="url(#clip760)" d="M120.922 778.246 L125.807 778.246 L125.807 784.126 L120.922 784.126 L120.922 778.246 Z" fill="#000000" fill-rule="evenodd" fill-opacity="1" /><path clip-path="url(#clip760)" d="M145.992 752.645 Q142.381 752.645 140.552 756.209 Q138.746 759.751 138.746 766.881 Q138.746 773.987 140.552 777.552 Q142.381 781.094 145.992 781.094 Q149.626 781.094 151.431 777.552 Q153.26 773.987 153.26 766.881 Q153.26 759.751 151.431 756.209 Q149.626 752.645 145.992 752.645 M145.992 748.941 Q151.802 748.941 154.857 753.547 Q157.936 758.131 157.936 766.881 Q157.936 775.608 154.857 780.214 Q151.802 784.797 145.992 784.797 Q140.181 784.797 137.103 780.214 Q134.047 775.608 134.047 766.881 Q134.047 758.131 137.103 753.547 Q140.181 748.941 145.992 748.941 Z" fill="#000000" fill-rule="evenodd" fill-opacity="1" /><path clip-path="url(#clip760)" d="M101.756 413.21 Q98.1447 413.21 96.316 416.775 Q94.5104 420.316 94.5104 427.446 Q94.5104 434.552 96.316 438.117 Q98.1447 441.659 101.756 441.659 Q105.39 441.659 107.196 438.117 Q109.024 434.552 109.024 427.446 Q109.024 420.316 107.196 416.775 Q105.39 413.21 101.756 413.21 M101.756 409.506 Q107.566 409.506 110.621 414.113 Q113.7 418.696 113.7 427.446 Q113.7 436.173 110.621 440.779 Q107.566 445.362 101.756 445.362 Q95.9456 445.362 92.8669 440.779 Q89.8114 436.173 89.8114 427.446 Q89.8114 418.696 92.8669 414.113 Q95.9456 409.506 101.756 409.506 Z" fill="#000000" fill-rule="evenodd" fill-opacity="1" /><path clip-path="url(#clip760)" d="M121.918 438.812 L126.802 438.812 L126.802 444.691 L121.918 444.691 L121.918 438.812 Z" fill="#000000" fill-rule="evenodd" fill-opacity="1" /><path clip-path="url(#clip760)" d="M137.033 410.131 L155.39 410.131 L155.39 414.066 L141.316 414.066 L141.316 422.538 Q142.334 422.191 143.353 422.029 Q144.371 421.844 145.39 421.844 Q151.177 421.844 154.556 425.015 Q157.936 428.187 157.936 433.603 Q157.936 439.182 154.464 442.284 Q150.992 445.362 144.672 445.362 Q142.496 445.362 140.228 444.992 Q137.982 444.622 135.575 443.881 L135.575 439.182 Q137.658 440.316 139.881 440.872 Q142.103 441.427 144.58 441.427 Q148.584 441.427 150.922 439.321 Q153.26 437.214 153.26 433.603 Q153.26 429.992 150.922 427.886 Q148.584 425.779 144.58 425.779 Q142.705 425.779 140.83 426.196 Q138.978 426.613 137.033 427.492 L137.033 410.131 Z" fill="#000000" fill-rule="evenodd" fill-opacity="1" /><path clip-path="url(#clip760)" d="M91.5706 101.321 L99.2095 101.321 L99.2095 74.9555 L90.8993 76.6222 L90.8993 72.3629 L99.1632 70.6963 L103.839 70.6963 L103.839 101.321 L111.478 101.321 L111.478 105.256 L91.5706 105.256 L91.5706 101.321 Z" fill="#000000" fill-rule="evenodd" fill-opacity="1" /><path clip-path="url(#clip760)" d="M120.922 99.3767 L125.807 99.3767 L125.807 105.256 L120.922 105.256 L120.922 99.3767 Z" fill="#000000" fill-rule="evenodd" fill-opacity="1" /><path clip-path="url(#clip760)" d="M145.992 73.775 Q142.381 73.775 140.552 77.3398 Q138.746 80.8814 138.746 88.011 Q138.746 95.1174 140.552 98.6822 Q142.381 102.224 145.992 102.224 Q149.626 102.224 151.431 98.6822 Q153.26 95.1174 153.26 88.011 Q153.26 80.8814 151.431 77.3398 Q149.626 73.775 145.992 73.775 M145.992 70.0713 Q151.802 70.0713 154.857 74.6777 Q157.936 79.261 157.936 88.011 Q157.936 96.7378 154.857 101.344 Q151.802 105.928 145.992 105.928 Q140.181 105.928 137.103 101.344 Q134.047 96.7378 134.047 88.011 Q134.047 79.261 137.103 74.6777 Q140.181 70.0713 145.992 70.0713 Z" fill="#000000" fill-rule="evenodd" fill-opacity="1" /><polyline clip-path="url(#clip762)" style="stroke:#009af9; stroke-linecap:butt; stroke-linejoin:round; stroke-width:16; stroke-opacity:1; fill:none" points="
  1967.94,155.863 1821.31,1310.62 1826.44,376.917 1719.08,1124.23 1711.04,519.131 1631.13,1002.66 1616.42,610.443 1555.98,923.228 1538.51,668.92 1492.09,871.187 
  1474.13,706.24 1437.98,836.985 1420.78,729.949 1392.28,814.416 1376.49,744.919 1353.77,799.451 1339.65,754.292 1321.37,789.465 1308.97,760.093 1294.15,782.753 
  1283.39,763.625 1271.3,778.201 1262.04,765.724 1252.13,775.081 1244.22,766.926 1236.05,772.917 1229.34,767.573 1222.59,771.395 1216.9,767.881 1211.31,770.308 
  1206.5,767.989 1201.86,769.52 1197.81,767.981 1193.95,768.939 1190.54,767.912 1187.32,768.504 1184.46,767.813 1181.78,768.173 1179.38,767.704 1177.14,767.917 
  1175.13,767.595 1173.26,767.717 1171.57,767.493 1170.01,767.558 1168.59,767.401 1167.29,767.431 1166.1,767.319 1165.01,767.329 1164.02,767.247 1163.11,767.246 
  1162.28,767.185 1161.51,767.177 1160.82,767.132 1160.18,767.121 1159.6,767.087 1159.06,767.075 1158.58,767.049 1158.13,767.037 1157.72,767.016 1157.35,767.005 
  1157.01,766.989 1156.7,766.979 1156.41,766.966 1156.15,766.957 1155.91,766.946 1155.69,766.939 1155.49,766.93 1155.31,766.924 1155.14,766.916 1154.99,766.911 
  1154.85,766.905 1154.72,766.9 1154.6,766.895 1154.5,766.891 1154.4,766.887 1154.31,766.884 1154.23,766.881 1154.15,766.878 1154.08,766.875 1154.02,766.873 
  1153.96,766.87 1153.91,766.868 1153.86,766.866 1153.82,766.865 1153.78,766.863 1153.74,766.862 1153.71,766.86 1153.68,766.859 1153.65,766.858 1153.62,766.857 
  1153.6,766.856 1153.58,766.855 1153.56,766.854 1153.54,766.854 1153.52,766.853 1153.51,766.852 1153.49,766.852 1153.48,766.851 1153.47,766.851 1153.46,766.85 
  1153.45,766.85 1153.44,766.85 1153.43,766.849 1153.43,766.849 1153.42,766.849 1153.41,766.849 1153.41,766.848 1153.4,766.848 1153.4,766.848 1153.39,766.848 
  1153.39,766.848 1153.38,766.848 1153.38,766.847 1153.38,766.847 1153.38,766.847 1153.37,766.847 1153.37,766.847 1153.37,766.847 1153.37,766.847 1153.36,766.847 
  1153.36,766.847 1153.36,766.847 1153.36,766.847 1153.36,766.847 1153.36,766.846 1153.36,766.846 1153.36,766.846 1153.36,766.846 1153.35,766.846 
  "/>
<circle clip-path="url(#clip762)" cx="1967.94" cy="155.863" r="14" fill="#009af9" fill-rule="evenodd" fill-opacity="1" stroke="#000000" stroke-opacity="1" stroke-width="3.2"/>
<circle clip-path="url(#clip762)" cx="1821.31" cy="1310.62" r="14" fill="#009af9" fill-rule="evenodd" fill-opacity="1" stroke="#000000" stroke-opacity="1" stroke-width="3.2"/>
<circle clip-path="url(#clip762)" cx="1826.44" cy="376.917" r="14" fill="#009af9" fill-rule="evenodd" fill-opacity="1" stroke="#000000" stroke-opacity="1" stroke-width="3.2"/>
<circle clip-path="url(#clip762)" cx="1719.08" cy="1124.23" r="14" fill="#009af9" fill-rule="evenodd" fill-opacity="1" stroke="#000000" stroke-opacity="1" stroke-width="3.2"/>
<circle clip-path="url(#clip762)" cx="1711.04" cy="519.131" r="14" fill="#009af9" fill-rule="evenodd" fill-opacity="1" stroke="#000000" stroke-opacity="1" stroke-width="3.2"/>
<circle clip-path="url(#clip762)" cx="1631.13" cy="1002.66" r="14" fill="#009af9" fill-rule="evenodd" fill-opacity="1" stroke="#000000" stroke-opacity="1" stroke-width="3.2"/>
<circle clip-path="url(#clip762)" cx="1616.42" cy="610.443" r="14" fill="#009af9" fill-rule="evenodd" fill-opacity="1" stroke="#000000" stroke-opacity="1" stroke-width="3.2"/>
<circle clip-path="url(#clip762)" cx="1555.98" cy="923.228" r="14" fill="#009af9" fill-rule="evenodd" fill-opacity="1" stroke="#000000" stroke-opacity="1" stroke-width="3.2"/>
<circle clip-path="url(#clip762)" cx="1538.51" cy="668.92" r="14" fill="#009af9" fill-rule="evenodd" fill-opacity="1" stroke="#000000" stroke-opacity="1" stroke-width="3.2"/>
<circle clip-path="url(#clip762)" cx="1492.09" cy="871.187" r="14" fill="#009af9" fill-rule="evenodd" fill-opacity="1" stroke="#000000" stroke-opacity="1" stroke-width="3.2"/>
<circle clip-path="url(#clip762)" cx="1474.13" cy="706.24" r="14" fill="#009af9" fill-rule="evenodd" fill-opacity="1" stroke="#000000" stroke-opacity="1" stroke-width="3.2"/>
<circle clip-path="url(#clip762)" cx="1437.98" cy="836.985" r="14" fill="#009af9" fill-rule="evenodd" fill-opacity="1" stroke="#000000" stroke-opacity="1" stroke-width="3.2"/>
<circle clip-path="url(#clip762)" cx="1420.78" cy="729.949" r="14" fill="#009af9" fill-rule="evenodd" fill-opacity="1" stroke="#000000" stroke-opacity="1" stroke-width="3.2"/>
<circle clip-path="url(#clip762)" cx="1392.28" cy="814.416" r="14" fill="#009af9" fill-rule="evenodd" fill-opacity="1" stroke="#000000" stroke-opacity="1" stroke-width="3.2"/>
<circle clip-path="url(#clip762)" cx="1376.49" cy="744.919" r="14" fill="#009af9" fill-rule="evenodd" fill-opacity="1" stroke="#000000" stroke-opacity="1" stroke-width="3.2"/>
<circle clip-path="url(#clip762)" cx="1353.77" cy="799.451" r="14" fill="#009af9" fill-rule="evenodd" fill-opacity="1" stroke="#000000" stroke-opacity="1" stroke-width="3.2"/>
<circle clip-path="url(#clip762)" cx="1339.65" cy="754.292" r="14" fill="#009af9" fill-rule="evenodd" fill-opacity="1" stroke="#000000" stroke-opacity="1" stroke-width="3.2"/>
<circle clip-path="url(#clip762)" cx="1321.37" cy="789.465" r="14" fill="#009af9" fill-rule="evenodd" fill-opacity="1" stroke="#000000" stroke-opacity="1" stroke-width="3.2"/>
<circle clip-path="url(#clip762)" cx="1308.97" cy="760.093" r="14" fill="#009af9" fill-rule="evenodd" fill-opacity="1" stroke="#000000" stroke-opacity="1" stroke-width="3.2"/>
<circle clip-path="url(#clip762)" cx="1294.15" cy="782.753" r="14" fill="#009af9" fill-rule="evenodd" fill-opacity="1" stroke="#000000" stroke-opacity="1" stroke-width="3.2"/>
<circle clip-path="url(#clip762)" cx="1283.39" cy="763.625" r="14" fill="#009af9" fill-rule="evenodd" fill-opacity="1" stroke="#000000" stroke-opacity="1" stroke-width="3.2"/>
<circle clip-path="url(#clip762)" cx="1271.3" cy="778.201" r="14" fill="#009af9" fill-rule="evenodd" fill-opacity="1" stroke="#000000" stroke-opacity="1" stroke-width="3.2"/>
<circle clip-path="url(#clip762)" cx="1262.04" cy="765.724" r="14" fill="#009af9" fill-rule="evenodd" fill-opacity="1" stroke="#000000" stroke-opacity="1" stroke-width="3.2"/>
<circle clip-path="url(#clip762)" cx="1252.13" cy="775.081" r="14" fill="#009af9" fill-rule="evenodd" fill-opacity="1" stroke="#000000" stroke-opacity="1" stroke-width="3.2"/>
<circle clip-path="url(#clip762)" cx="1244.22" cy="766.926" r="14" fill="#009af9" fill-rule="evenodd" fill-opacity="1" stroke="#000000" stroke-opacity="1" stroke-width="3.2"/>
<circle clip-path="url(#clip762)" cx="1236.05" cy="772.917" r="14" fill="#009af9" fill-rule="evenodd" fill-opacity="1" stroke="#000000" stroke-opacity="1" stroke-width="3.2"/>
<circle clip-path="url(#clip762)" cx="1229.34" cy="767.573" r="14" fill="#009af9" fill-rule="evenodd" fill-opacity="1" stroke="#000000" stroke-opacity="1" stroke-width="3.2"/>
<circle clip-path="url(#clip762)" cx="1222.59" cy="771.395" r="14" fill="#009af9" fill-rule="evenodd" fill-opacity="1" stroke="#000000" stroke-opacity="1" stroke-width="3.2"/>
<circle clip-path="url(#clip762)" cx="1216.9" cy="767.881" r="14" fill="#009af9" fill-rule="evenodd" fill-opacity="1" stroke="#000000" stroke-opacity="1" stroke-width="3.2"/>
<circle clip-path="url(#clip762)" cx="1211.31" cy="770.308" r="14" fill="#009af9" fill-rule="evenodd" fill-opacity="1" stroke="#000000" stroke-opacity="1" stroke-width="3.2"/>
<circle clip-path="url(#clip762)" cx="1206.5" cy="767.989" r="14" fill="#009af9" fill-rule="evenodd" fill-opacity="1" stroke="#000000" stroke-opacity="1" stroke-width="3.2"/>
<circle clip-path="url(#clip762)" cx="1201.86" cy="769.52" r="14" fill="#009af9" fill-rule="evenodd" fill-opacity="1" stroke="#000000" stroke-opacity="1" stroke-width="3.2"/>
<circle clip-path="url(#clip762)" cx="1197.81" cy="767.981" r="14" fill="#009af9" fill-rule="evenodd" fill-opacity="1" stroke="#000000" stroke-opacity="1" stroke-width="3.2"/>
<circle clip-path="url(#clip762)" cx="1193.95" cy="768.939" r="14" fill="#009af9" fill-rule="evenodd" fill-opacity="1" stroke="#000000" stroke-opacity="1" stroke-width="3.2"/>
<circle clip-path="url(#clip762)" cx="1190.54" cy="767.912" r="14" fill="#009af9" fill-rule="evenodd" fill-opacity="1" stroke="#000000" stroke-opacity="1" stroke-width="3.2"/>
<circle clip-path="url(#clip762)" cx="1187.32" cy="768.504" r="14" fill="#009af9" fill-rule="evenodd" fill-opacity="1" stroke="#000000" stroke-opacity="1" stroke-width="3.2"/>
<circle clip-path="url(#clip762)" cx="1184.46" cy="767.813" r="14" fill="#009af9" fill-rule="evenodd" fill-opacity="1" stroke="#000000" stroke-opacity="1" stroke-width="3.2"/>
<circle clip-path="url(#clip762)" cx="1181.78" cy="768.173" r="14" fill="#009af9" fill-rule="evenodd" fill-opacity="1" stroke="#000000" stroke-opacity="1" stroke-width="3.2"/>
<circle clip-path="url(#clip762)" cx="1179.38" cy="767.704" r="14" fill="#009af9" fill-rule="evenodd" fill-opacity="1" stroke="#000000" stroke-opacity="1" stroke-width="3.2"/>
<circle clip-path="url(#clip762)" cx="1177.14" cy="767.917" r="14" fill="#009af9" fill-rule="evenodd" fill-opacity="1" stroke="#000000" stroke-opacity="1" stroke-width="3.2"/>
<circle clip-path="url(#clip762)" cx="1175.13" cy="767.595" r="14" fill="#009af9" fill-rule="evenodd" fill-opacity="1" stroke="#000000" stroke-opacity="1" stroke-width="3.2"/>
<circle clip-path="url(#clip762)" cx="1173.26" cy="767.717" r="14" fill="#009af9" fill-rule="evenodd" fill-opacity="1" stroke="#000000" stroke-opacity="1" stroke-width="3.2"/>
<circle clip-path="url(#clip762)" cx="1171.57" cy="767.493" r="14" fill="#009af9" fill-rule="evenodd" fill-opacity="1" stroke="#000000" stroke-opacity="1" stroke-width="3.2"/>
<circle clip-path="url(#clip762)" cx="1170.01" cy="767.558" r="14" fill="#009af9" fill-rule="evenodd" fill-opacity="1" stroke="#000000" stroke-opacity="1" stroke-width="3.2"/>
<circle clip-path="url(#clip762)" cx="1168.59" cy="767.401" r="14" fill="#009af9" fill-rule="evenodd" fill-opacity="1" stroke="#000000" stroke-opacity="1" stroke-width="3.2"/>
<circle clip-path="url(#clip762)" cx="1167.29" cy="767.431" r="14" fill="#009af9" fill-rule="evenodd" fill-opacity="1" stroke="#000000" stroke-opacity="1" stroke-width="3.2"/>
<circle clip-path="url(#clip762)" cx="1166.1" cy="767.319" r="14" fill="#009af9" fill-rule="evenodd" fill-opacity="1" stroke="#000000" stroke-opacity="1" stroke-width="3.2"/>
<circle clip-path="url(#clip762)" cx="1165.01" cy="767.329" r="14" fill="#009af9" fill-rule="evenodd" fill-opacity="1" stroke="#000000" stroke-opacity="1" stroke-width="3.2"/>
<circle clip-path="url(#clip762)" cx="1164.02" cy="767.247" r="14" fill="#009af9" fill-rule="evenodd" fill-opacity="1" stroke="#000000" stroke-opacity="1" stroke-width="3.2"/>
<circle clip-path="url(#clip762)" cx="1163.11" cy="767.246" r="14" fill="#009af9" fill-rule="evenodd" fill-opacity="1" stroke="#000000" stroke-opacity="1" stroke-width="3.2"/>
<circle clip-path="url(#clip762)" cx="1162.28" cy="767.185" r="14" fill="#009af9" fill-rule="evenodd" fill-opacity="1" stroke="#000000" stroke-opacity="1" stroke-width="3.2"/>
<circle clip-path="url(#clip762)" cx="1161.51" cy="767.177" r="14" fill="#009af9" fill-rule="evenodd" fill-opacity="1" stroke="#000000" stroke-opacity="1" stroke-width="3.2"/>
<circle clip-path="url(#clip762)" cx="1160.82" cy="767.132" r="14" fill="#009af9" fill-rule="evenodd" fill-opacity="1" stroke="#000000" stroke-opacity="1" stroke-width="3.2"/>
<circle clip-path="url(#clip762)" cx="1160.18" cy="767.121" r="14" fill="#009af9" fill-rule="evenodd" fill-opacity="1" stroke="#000000" stroke-opacity="1" stroke-width="3.2"/>
<circle clip-path="url(#clip762)" cx="1159.6" cy="767.087" r="14" fill="#009af9" fill-rule="evenodd" fill-opacity="1" stroke="#000000" stroke-opacity="1" stroke-width="3.2"/>
<circle clip-path="url(#clip762)" cx="1159.06" cy="767.075" r="14" fill="#009af9" fill-rule="evenodd" fill-opacity="1" stroke="#000000" stroke-opacity="1" stroke-width="3.2"/>
<circle clip-path="url(#clip762)" cx="1158.58" cy="767.049" r="14" fill="#009af9" fill-rule="evenodd" fill-opacity="1" stroke="#000000" stroke-opacity="1" stroke-width="3.2"/>
<circle clip-path="url(#clip762)" cx="1158.13" cy="767.037" r="14" fill="#009af9" fill-rule="evenodd" fill-opacity="1" stroke="#000000" stroke-opacity="1" stroke-width="3.2"/>
<circle clip-path="url(#clip762)" cx="1157.72" cy="767.016" r="14" fill="#009af9" fill-rule="evenodd" fill-opacity="1" stroke="#000000" stroke-opacity="1" stroke-width="3.2"/>
<circle clip-path="url(#clip762)" cx="1157.35" cy="767.005" r="14" fill="#009af9" fill-rule="evenodd" fill-opacity="1" stroke="#000000" stroke-opacity="1" stroke-width="3.2"/>
<circle clip-path="url(#clip762)" cx="1157.01" cy="766.989" r="14" fill="#009af9" fill-rule="evenodd" fill-opacity="1" stroke="#000000" stroke-opacity="1" stroke-width="3.2"/>
<circle clip-path="url(#clip762)" cx="1156.7" cy="766.979" r="14" fill="#009af9" fill-rule="evenodd" fill-opacity="1" stroke="#000000" stroke-opacity="1" stroke-width="3.2"/>
<circle clip-path="url(#clip762)" cx="1156.41" cy="766.966" r="14" fill="#009af9" fill-rule="evenodd" fill-opacity="1" stroke="#000000" stroke-opacity="1" stroke-width="3.2"/>
<circle clip-path="url(#clip762)" cx="1156.15" cy="766.957" r="14" fill="#009af9" fill-rule="evenodd" fill-opacity="1" stroke="#000000" stroke-opacity="1" stroke-width="3.2"/>
<circle clip-path="url(#clip762)" cx="1155.91" cy="766.946" r="14" fill="#009af9" fill-rule="evenodd" fill-opacity="1" stroke="#000000" stroke-opacity="1" stroke-width="3.2"/>
<circle clip-path="url(#clip762)" cx="1155.69" cy="766.939" r="14" fill="#009af9" fill-rule="evenodd" fill-opacity="1" stroke="#000000" stroke-opacity="1" stroke-width="3.2"/>
<circle clip-path="url(#clip762)" cx="1155.49" cy="766.93" r="14" fill="#009af9" fill-rule="evenodd" fill-opacity="1" stroke="#000000" stroke-opacity="1" stroke-width="3.2"/>
<circle clip-path="url(#clip762)" cx="1155.31" cy="766.924" r="14" fill="#009af9" fill-rule="evenodd" fill-opacity="1" stroke="#000000" stroke-opacity="1" stroke-width="3.2"/>
<circle clip-path="url(#clip762)" cx="1155.14" cy="766.916" r="14" fill="#009af9" fill-rule="evenodd" fill-opacity="1" stroke="#000000" stroke-opacity="1" stroke-width="3.2"/>
<circle clip-path="url(#clip762)" cx="1154.99" cy="766.911" r="14" fill="#009af9" fill-rule="evenodd" fill-opacity="1" stroke="#000000" stroke-opacity="1" stroke-width="3.2"/>
<circle clip-path="url(#clip762)" cx="1154.85" cy="766.905" r="14" fill="#009af9" fill-rule="evenodd" fill-opacity="1" stroke="#000000" stroke-opacity="1" stroke-width="3.2"/>
<circle clip-path="url(#clip762)" cx="1154.72" cy="766.9" r="14" fill="#009af9" fill-rule="evenodd" fill-opacity="1" stroke="#000000" stroke-opacity="1" stroke-width="3.2"/>
<circle clip-path="url(#clip762)" cx="1154.6" cy="766.895" r="14" fill="#009af9" fill-rule="evenodd" fill-opacity="1" stroke="#000000" stroke-opacity="1" stroke-width="3.2"/>
<circle clip-path="url(#clip762)" cx="1154.5" cy="766.891" r="14" fill="#009af9" fill-rule="evenodd" fill-opacity="1" stroke="#000000" stroke-opacity="1" stroke-width="3.2"/>
<circle clip-path="url(#clip762)" cx="1154.4" cy="766.887" r="14" fill="#009af9" fill-rule="evenodd" fill-opacity="1" stroke="#000000" stroke-opacity="1" stroke-width="3.2"/>
<circle clip-path="url(#clip762)" cx="1154.31" cy="766.884" r="14" fill="#009af9" fill-rule="evenodd" fill-opacity="1" stroke="#000000" stroke-opacity="1" stroke-width="3.2"/>
<circle clip-path="url(#clip762)" cx="1154.23" cy="766.881" r="14" fill="#009af9" fill-rule="evenodd" fill-opacity="1" stroke="#000000" stroke-opacity="1" stroke-width="3.2"/>
<circle clip-path="url(#clip762)" cx="1154.15" cy="766.878" r="14" fill="#009af9" fill-rule="evenodd" fill-opacity="1" stroke="#000000" stroke-opacity="1" stroke-width="3.2"/>
<circle clip-path="url(#clip762)" cx="1154.08" cy="766.875" r="14" fill="#009af9" fill-rule="evenodd" fill-opacity="1" stroke="#000000" stroke-opacity="1" stroke-width="3.2"/>
<circle clip-path="url(#clip762)" cx="1154.02" cy="766.873" r="14" fill="#009af9" fill-rule="evenodd" fill-opacity="1" stroke="#000000" stroke-opacity="1" stroke-width="3.2"/>
<circle clip-path="url(#clip762)" cx="1153.96" cy="766.87" r="14" fill="#009af9" fill-rule="evenodd" fill-opacity="1" stroke="#000000" stroke-opacity="1" stroke-width="3.2"/>
<circle clip-path="url(#clip762)" cx="1153.91" cy="766.868" r="14" fill="#009af9" fill-rule="evenodd" fill-opacity="1" stroke="#000000" stroke-opacity="1" stroke-width="3.2"/>
<circle clip-path="url(#clip762)" cx="1153.86" cy="766.866" r="14" fill="#009af9" fill-rule="evenodd" fill-opacity="1" stroke="#000000" stroke-opacity="1" stroke-width="3.2"/>
<circle clip-path="url(#clip762)" cx="1153.82" cy="766.865" r="14" fill="#009af9" fill-rule="evenodd" fill-opacity="1" stroke="#000000" stroke-opacity="1" stroke-width="3.2"/>
<circle clip-path="url(#clip762)" cx="1153.78" cy="766.863" r="14" fill="#009af9" fill-rule="evenodd" fill-opacity="1" stroke="#000000" stroke-opacity="1" stroke-width="3.2"/>
<circle clip-path="url(#clip762)" cx="1153.74" cy="766.862" r="14" fill="#009af9" fill-rule="evenodd" fill-opacity="1" stroke="#000000" stroke-opacity="1" stroke-width="3.2"/>
<circle clip-path="url(#clip762)" cx="1153.71" cy="766.86" r="14" fill="#009af9" fill-rule="evenodd" fill-opacity="1" stroke="#000000" stroke-opacity="1" stroke-width="3.2"/>
<circle clip-path="url(#clip762)" cx="1153.68" cy="766.859" r="14" fill="#009af9" fill-rule="evenodd" fill-opacity="1" stroke="#000000" stroke-opacity="1" stroke-width="3.2"/>
<circle clip-path="url(#clip762)" cx="1153.65" cy="766.858" r="14" fill="#009af9" fill-rule="evenodd" fill-opacity="1" stroke="#000000" stroke-opacity="1" stroke-width="3.2"/>
<circle clip-path="url(#clip762)" cx="1153.62" cy="766.857" r="14" fill="#009af9" fill-rule="evenodd" fill-opacity="1" stroke="#000000" stroke-opacity="1" stroke-width="3.2"/>
<circle clip-path="url(#clip762)" cx="1153.6" cy="766.856" r="14" fill="#009af9" fill-rule="evenodd" fill-opacity="1" stroke="#000000" stroke-opacity="1" stroke-width="3.2"/>
<circle clip-path="url(#clip762)" cx="1153.58" cy="766.855" r="14" fill="#009af9" fill-rule="evenodd" fill-opacity="1" stroke="#000000" stroke-opacity="1" stroke-width="3.2"/>
<circle clip-path="url(#clip762)" cx="1153.56" cy="766.854" r="14" fill="#009af9" fill-rule="evenodd" fill-opacity="1" stroke="#000000" stroke-opacity="1" stroke-width="3.2"/>
<circle clip-path="url(#clip762)" cx="1153.54" cy="766.854" r="14" fill="#009af9" fill-rule="evenodd" fill-opacity="1" stroke="#000000" stroke-opacity="1" stroke-width="3.2"/>
<circle clip-path="url(#clip762)" cx="1153.52" cy="766.853" r="14" fill="#009af9" fill-rule="evenodd" fill-opacity="1" stroke="#000000" stroke-opacity="1" stroke-width="3.2"/>
<circle clip-path="url(#clip762)" cx="1153.51" cy="766.852" r="14" fill="#009af9" fill-rule="evenodd" fill-opacity="1" stroke="#000000" stroke-opacity="1" stroke-width="3.2"/>
<circle clip-path="url(#clip762)" cx="1153.49" cy="766.852" r="14" fill="#009af9" fill-rule="evenodd" fill-opacity="1" stroke="#000000" stroke-opacity="1" stroke-width="3.2"/>
<circle clip-path="url(#clip762)" cx="1153.48" cy="766.851" r="14" fill="#009af9" fill-rule="evenodd" fill-opacity="1" stroke="#000000" stroke-opacity="1" stroke-width="3.2"/>
<circle clip-path="url(#clip762)" cx="1153.47" cy="766.851" r="14" fill="#009af9" fill-rule="evenodd" fill-opacity="1" stroke="#000000" stroke-opacity="1" stroke-width="3.2"/>
<circle clip-path="url(#clip762)" cx="1153.46" cy="766.85" r="14" fill="#009af9" fill-rule="evenodd" fill-opacity="1" stroke="#000000" stroke-opacity="1" stroke-width="3.2"/>
<circle clip-path="url(#clip762)" cx="1153.45" cy="766.85" r="14" fill="#009af9" fill-rule="evenodd" fill-opacity="1" stroke="#000000" stroke-opacity="1" stroke-width="3.2"/>
<circle clip-path="url(#clip762)" cx="1153.44" cy="766.85" r="14" fill="#009af9" fill-rule="evenodd" fill-opacity="1" stroke="#000000" stroke-opacity="1" stroke-width="3.2"/>
<circle clip-path="url(#clip762)" cx="1153.43" cy="766.849" r="14" fill="#009af9" fill-rule="evenodd" fill-opacity="1" stroke="#000000" stroke-opacity="1" stroke-width="3.2"/>
<circle clip-path="url(#clip762)" cx="1153.43" cy="766.849" r="14" fill="#009af9" fill-rule="evenodd" fill-opacity="1" stroke="#000000" stroke-opacity="1" stroke-width="3.2"/>
<circle clip-path="url(#clip762)" cx="1153.42" cy="766.849" r="14" fill="#009af9" fill-rule="evenodd" fill-opacity="1" stroke="#000000" stroke-opacity="1" stroke-width="3.2"/>
<circle clip-path="url(#clip762)" cx="1153.41" cy="766.849" r="14" fill="#009af9" fill-rule="evenodd" fill-opacity="1" stroke="#000000" stroke-opacity="1" stroke-width="3.2"/>
<circle clip-path="url(#clip762)" cx="1153.41" cy="766.848" r="14" fill="#009af9" fill-rule="evenodd" fill-opacity="1" stroke="#000000" stroke-opacity="1" stroke-width="3.2"/>
<circle clip-path="url(#clip762)" cx="1153.4" cy="766.848" r="14" fill="#009af9" fill-rule="evenodd" fill-opacity="1" stroke="#000000" stroke-opacity="1" stroke-width="3.2"/>
<circle clip-path="url(#clip762)" cx="1153.4" cy="766.848" r="14" fill="#009af9" fill-rule="evenodd" fill-opacity="1" stroke="#000000" stroke-opacity="1" stroke-width="3.2"/>
<circle clip-path="url(#clip762)" cx="1153.39" cy="766.848" r="14" fill="#009af9" fill-rule="evenodd" fill-opacity="1" stroke="#000000" stroke-opacity="1" stroke-width="3.2"/>
<circle clip-path="url(#clip762)" cx="1153.39" cy="766.848" r="14" fill="#009af9" fill-rule="evenodd" fill-opacity="1" stroke="#000000" stroke-opacity="1" stroke-width="3.2"/>
<circle clip-path="url(#clip762)" cx="1153.38" cy="766.848" r="14" fill="#009af9" fill-rule="evenodd" fill-opacity="1" stroke="#000000" stroke-opacity="1" stroke-width="3.2"/>
<circle clip-path="url(#clip762)" cx="1153.38" cy="766.847" r="14" fill="#009af9" fill-rule="evenodd" fill-opacity="1" stroke="#000000" stroke-opacity="1" stroke-width="3.2"/>
<circle clip-path="url(#clip762)" cx="1153.38" cy="766.847" r="14" fill="#009af9" fill-rule="evenodd" fill-opacity="1" stroke="#000000" stroke-opacity="1" stroke-width="3.2"/>
<circle clip-path="url(#clip762)" cx="1153.38" cy="766.847" r="14" fill="#009af9" fill-rule="evenodd" fill-opacity="1" stroke="#000000" stroke-opacity="1" stroke-width="3.2"/>
<circle clip-path="url(#clip762)" cx="1153.37" cy="766.847" r="14" fill="#009af9" fill-rule="evenodd" fill-opacity="1" stroke="#000000" stroke-opacity="1" stroke-width="3.2"/>
<circle clip-path="url(#clip762)" cx="1153.37" cy="766.847" r="14" fill="#009af9" fill-rule="evenodd" fill-opacity="1" stroke="#000000" stroke-opacity="1" stroke-width="3.2"/>
<circle clip-path="url(#clip762)" cx="1153.37" cy="766.847" r="14" fill="#009af9" fill-rule="evenodd" fill-opacity="1" stroke="#000000" stroke-opacity="1" stroke-width="3.2"/>
<circle clip-path="url(#clip762)" cx="1153.37" cy="766.847" r="14" fill="#009af9" fill-rule="evenodd" fill-opacity="1" stroke="#000000" stroke-opacity="1" stroke-width="3.2"/>
<circle clip-path="url(#clip762)" cx="1153.36" cy="766.847" r="14" fill="#009af9" fill-rule="evenodd" fill-opacity="1" stroke="#000000" stroke-opacity="1" stroke-width="3.2"/>
<circle clip-path="url(#clip762)" cx="1153.36" cy="766.847" r="14" fill="#009af9" fill-rule="evenodd" fill-opacity="1" stroke="#000000" stroke-opacity="1" stroke-width="3.2"/>
<circle clip-path="url(#clip762)" cx="1153.36" cy="766.847" r="14" fill="#009af9" fill-rule="evenodd" fill-opacity="1" stroke="#000000" stroke-opacity="1" stroke-width="3.2"/>
<circle clip-path="url(#clip762)" cx="1153.36" cy="766.847" r="14" fill="#009af9" fill-rule="evenodd" fill-opacity="1" stroke="#000000" stroke-opacity="1" stroke-width="3.2"/>
<circle clip-path="url(#clip762)" cx="1153.36" cy="766.847" r="14" fill="#009af9" fill-rule="evenodd" fill-opacity="1" stroke="#000000" stroke-opacity="1" stroke-width="3.2"/>
<circle clip-path="url(#clip762)" cx="1153.36" cy="766.846" r="14" fill="#009af9" fill-rule="evenodd" fill-opacity="1" stroke="#000000" stroke-opacity="1" stroke-width="3.2"/>
<circle clip-path="url(#clip762)" cx="1153.36" cy="766.846" r="14" fill="#009af9" fill-rule="evenodd" fill-opacity="1" stroke="#000000" stroke-opacity="1" stroke-width="3.2"/>
<circle clip-path="url(#clip762)" cx="1153.36" cy="766.846" r="14" fill="#009af9" fill-rule="evenodd" fill-opacity="1" stroke="#000000" stroke-opacity="1" stroke-width="3.2"/>
<circle clip-path="url(#clip762)" cx="1153.36" cy="766.846" r="14" fill="#009af9" fill-rule="evenodd" fill-opacity="1" stroke="#000000" stroke-opacity="1" stroke-width="3.2"/>
<circle clip-path="url(#clip762)" cx="1153.35" cy="766.846" r="14" fill="#009af9" fill-rule="evenodd" fill-opacity="1" stroke="#000000" stroke-opacity="1" stroke-width="3.2"/>
<polyline clip-path="url(#clip762)" style="stroke:#f1e864; stroke-linecap:butt; stroke-linejoin:round; stroke-width:16; stroke-opacity:1; fill:none" points="
  248.242,1421.72 310.663,1426.18 373.084,1430.51 435.505,1434.72 497.926,1438.79 560.347,1442.73 609.404,1445.72 
  "/>
<polyline clip-path="url(#clip762)" style="stroke:#a12b61; stroke-linecap:butt; stroke-linejoin:round; stroke-width:16; stroke-opacity:1; fill:none" points="
  248.242,1190.87 310.663,1196.45 373.084,1201.84 435.505,1207.05 492.502,1211.62 497.926,1212.02 560.347,1216.38 622.768,1220.56 685.189,1224.55 747.61,1228.35 
  810.031,1231.96 872.452,1235.38 934.873,1238.61 997.294,1241.63 1059.71,1244.45 1122.14,1247.07 1184.56,1249.47 1246.98,1251.67 1309.4,1253.65 1371.82,1255.41 
  1434.24,1256.95 1496.66,1258.27 1506.63,1258.44 1559.08,1259.27 1621.5,1260.05 1683.92,1260.61 1746.34,1260.95 1808.77,1261.07 1871.19,1260.97 1933.61,1260.65 
  1996.03,1260.09 2058.45,1259.3 
  "/>
<polyline clip-path="url(#clip762)" style="stroke:#ba3655; stroke-linecap:butt; stroke-linejoin:round; stroke-width:16; stroke-opacity:1; fill:none" points="
  2058.45,1293.7 1996.03,1294.32 1933.61,1294.71 1871.19,1294.87 1808.77,1294.81 1746.34,1294.53 1683.92,1294.03 1621.5,1293.31 1559.08,1292.38 1496.66,1291.24 
  1434.24,1289.89 1371.82,1288.34 1309.4,1286.59 1246.98,1284.64 1184.56,1282.49 1122.14,1280.15 1059.71,1277.62 997.294,1274.91 934.873,1272.01 872.452,1268.92 
  810.031,1265.66 747.61,1262.21 685.189,1258.6 682.658,1258.44 622.768,1254.46 560.347,1250.12 497.926,1245.6 435.505,1240.9 373.084,1236.02 310.663,1230.98 
  248.242,1225.76 
  "/>
<polyline clip-path="url(#clip762)" style="stroke:#d04544; stroke-linecap:butt; stroke-linejoin:round; stroke-width:16; stroke-opacity:1; fill:none" points="
  248.242,1258.68 310.663,1263.6 373.084,1268.35 435.505,1272.95 497.926,1277.38 560.347,1281.64 622.768,1285.74 685.189,1289.66 747.61,1293.42 810.031,1297 
  872.452,1300.4 934.873,1303.63 968.37,1305.26 997.294,1306.56 1059.71,1309.18 1122.14,1311.63 1184.56,1313.9 1246.98,1316 1309.4,1317.92 1371.82,1319.66 
  1434.24,1321.21 1496.66,1322.57 1559.08,1323.75 1621.5,1324.74 1683.92,1325.53 1746.34,1326.12 1808.77,1326.52 1871.19,1326.72 1933.61,1326.71 1996.03,1326.49 
  2058.45,1326.07 
  "/>
<polyline clip-path="url(#clip762)" style="stroke:#e35832; stroke-linecap:butt; stroke-linejoin:round; stroke-width:16; stroke-opacity:1; fill:none" points="
  2058.45,1356.98 1996.03,1357.24 1933.61,1357.32 1871.19,1357.2 1808.77,1356.9 1746.34,1356.41 1683.92,1355.74 1621.5,1354.89 1559.08,1353.87 1496.66,1352.66 
  1470.13,1352.08 1434.24,1351.22 1371.82,1349.54 1309.4,1347.68 1246.98,1345.64 1184.56,1343.42 1122.14,1341.02 1059.71,1338.45 997.294,1335.7 934.873,1332.79 
  872.452,1329.71 810.031,1326.46 747.61,1323.05 685.189,1319.48 622.768,1315.75 560.347,1311.86 497.926,1307.82 459.953,1305.26 435.505,1303.48 373.084,1298.75 
  310.663,1293.87 248.242,1288.83 
  "/>
<polyline clip-path="url(#clip762)" style="stroke:#f0701e; stroke-linecap:butt; stroke-linejoin:round; stroke-width:16; stroke-opacity:1; fill:none" points="
  248.242,1317.89 310.663,1322.65 373.084,1327.26 435.505,1331.72 497.926,1336.03 560.347,1340.19 622.768,1344.19 685.189,1348.04 747.61,1351.73 753.831,1352.08 
  810.031,1355.02 872.452,1358.12 934.873,1361.08 997.294,1363.88 1059.71,1366.52 1122.14,1369 1184.56,1371.32 1246.98,1373.48 1309.4,1375.47 1371.82,1377.3 
  1434.24,1378.95 1496.66,1380.44 1559.08,1381.75 1621.5,1382.89 1683.92,1383.85 1746.34,1384.63 1808.77,1385.23 1871.19,1385.64 1933.61,1385.87 1996.03,1385.92 
  2058.45,1385.77 
  "/>
<polyline clip-path="url(#clip762)" style="stroke:#f98c09; stroke-linecap:butt; stroke-linejoin:round; stroke-width:16; stroke-opacity:1; fill:none" points="
  2058.45,1413.38 1996.03,1413.41 1933.61,1413.27 1871.19,1412.96 1808.77,1412.47 1746.34,1411.81 1683.92,1410.99 1621.5,1410 1559.08,1408.85 1496.66,1407.53 
  1434.24,1406.06 1371.82,1404.42 1309.4,1402.63 1246.98,1400.68 1193.92,1398.9 1184.56,1398.56 1122.14,1396.13 1059.71,1393.55 997.294,1390.8 934.873,1387.9 
  872.452,1384.85 810.031,1381.64 747.61,1378.28 685.189,1374.77 622.768,1371.11 560.347,1367.3 497.926,1363.35 435.505,1359.26 373.084,1355.02 331.164,1352.08 
  310.663,1350.53 248.242,1345.66 
  "/>
<polyline clip-path="url(#clip762)" style="stroke:#fbaa0e; stroke-linecap:butt; stroke-linejoin:round; stroke-width:16; stroke-opacity:1; fill:none" points="
  248.242,1371.88 310.663,1376.49 373.084,1380.96 435.505,1385.29 497.926,1389.48 560.347,1393.53 622.768,1397.43 647.174,1398.9 685.189,1401.03 747.61,1404.39 
  810.031,1407.6 872.452,1410.68 934.873,1413.61 997.294,1416.4 1059.71,1419.04 1122.14,1421.53 1184.56,1423.87 1246.98,1426.06 1309.4,1428.1 1371.82,1429.98 
  1434.24,1431.71 1496.66,1433.28 1559.08,1434.69 1621.5,1435.94 1683.92,1437.02 1746.34,1437.94 1808.77,1438.7 1871.19,1439.28 1933.61,1439.69 1996.03,1439.93 
  2058.45,1440 
  "/>
<polyline clip-path="url(#clip762)" style="stroke:#88216a; stroke-linecap:butt; stroke-linejoin:round; stroke-width:16; stroke-opacity:1; fill:none" points="
  2058.45,1221.29 1996.03,1222.37 1933.61,1223.19 1871.19,1223.75 1808.77,1224.05 1746.34,1224.11 1683.92,1223.92 1621.5,1223.49 1559.08,1222.83 1496.66,1221.93 
  1434.24,1220.8 1371.82,1219.44 1309.4,1217.86 1246.98,1216.06 1184.56,1214.04 1122.14,1211.81 1117.31,1211.62 1059.71,1209.12 997.294,1206.19 934.873,1203.03 
  872.452,1199.65 810.031,1196.05 747.61,1192.25 685.189,1188.23 622.768,1184.01 560.347,1179.58 497.926,1174.96 435.505,1170.14 373.084,1165.12 369.274,1164.8 
  310.663,1159.36 248.242,1153.35 
  "/>
<polyline clip-path="url(#clip762)" style="stroke:#6e186e; stroke-linecap:butt; stroke-linejoin:round; stroke-width:16; stroke-opacity:1; fill:none" points="
  248.242,1112.18 303.859,1117.99 310.663,1118.62 373.084,1124.19 435.505,1129.55 497.926,1134.69 560.347,1139.63 622.768,1144.34 685.189,1148.83 747.61,1153.09 
  810.031,1157.12 872.452,1160.92 934.873,1164.47 941.149,1164.8 997.294,1167.46 1059.71,1170.18 1122.14,1172.67 1184.56,1174.94 1246.98,1176.96 1309.4,1178.74 
  1371.82,1180.28 1434.24,1181.57 1496.66,1182.6 1559.08,1183.38 1621.5,1183.9 1683.92,1184.14 1746.34,1184.12 1808.77,1183.82 1871.19,1183.24 1933.61,1182.37 
  1996.03,1181.21 2058.45,1179.75 
  "/>
<polyline clip-path="url(#clip762)" style="stroke:#550f6d; stroke-linecap:butt; stroke-linejoin:round; stroke-width:16; stroke-opacity:1; fill:none" points="
  2058.45,1133.23 1996.03,1135.2 1933.61,1136.83 1871.19,1138.12 1808.77,1139.09 1746.34,1139.72 1683.92,1140.04 1621.5,1140.05 1559.08,1139.76 1496.66,1139.16 
  1434.24,1138.27 1371.82,1137.09 1309.4,1135.64 1246.98,1133.9 1184.56,1131.89 1122.14,1129.62 1059.71,1127.08 997.294,1124.29 934.873,1121.24 873.13,1117.99 
  872.452,1117.94 810.031,1113.92 747.61,1109.64 685.189,1105.09 622.768,1100.29 560.347,1095.24 497.926,1089.95 435.505,1084.42 373.084,1078.65 310.663,1072.65 
  295.819,1071.17 248.242,1065.73 
  "/>
<polyline clip-path="url(#clip762)" style="stroke:#3b0964; stroke-linecap:butt; stroke-linejoin:round; stroke-width:16; stroke-opacity:1; fill:none" points="
  248.242,1011.23 310.663,1019.15 353.156,1024.35 373.084,1026.44 435.505,1032.68 497.926,1038.67 560.347,1044.38 622.768,1049.82 685.189,1054.98 747.61,1059.84 
  810.031,1064.42 872.452,1068.69 911.651,1071.17 934.873,1072.44 997.294,1075.57 1059.71,1078.42 1122.14,1080.97 1184.56,1083.22 1246.98,1085.16 1309.4,1086.8 
  1371.82,1088.11 1434.24,1089.1 1496.66,1089.76 1559.08,1090.07 1621.5,1090.04 1683.92,1089.65 1746.34,1088.89 1808.77,1087.76 1871.19,1086.25 1933.61,1084.35 
  1996.03,1082.05 2058.45,1079.34 
  "/>
<polyline clip-path="url(#clip762)" style="stroke:#1f0c47; stroke-linecap:butt; stroke-linejoin:round; stroke-width:16; stroke-opacity:1; fill:none" points="
  2058.45,1011.45 1996.03,1016.2 1933.61,1020.3 1871.19,1023.79 1859.13,1024.35 1808.77,1026.25 1746.34,1028.14 1683.92,1029.57 1621.5,1030.56 1559.08,1031.13 
  1496.66,1031.27 1434.24,1031.01 1371.82,1030.35 1309.4,1029.3 1246.98,1027.88 1184.56,1026.09 1134.19,1024.35 1122.14,1023.85 1059.71,1020.86 997.294,1017.47 
  934.873,1013.69 872.452,1009.54 810.031,1005.02 747.61,1000.14 685.189,994.923 622.768,989.369 560.347,983.489 500.348,977.53 497.926,977.239 435.505,969.311 
  373.084,961.048 310.663,952.462 248.242,943.561 
  "/>
<polyline clip-path="url(#clip762)" style="stroke:#090621; stroke-linecap:butt; stroke-linejoin:round; stroke-width:16; stroke-opacity:1; fill:none" points="
  248.242,840.483 310.663,854.111 373.084,867.367 435.505,880.228 454.145,883.892 497.926,890.181 560.347,898.692 622.768,906.768 685.189,914.39 747.61,921.537 
  810.031,928.187 835.963,930.711 872.452,933.464 934.873,937.702 997.294,941.476 1059.71,944.767 1122.14,947.559 1184.56,949.832 1246.98,951.567 1309.4,952.742 
  1371.82,953.336 1434.24,953.326 1496.66,952.687 1559.08,951.393 1621.5,949.418 1683.92,946.733 1746.34,943.308 1808.77,939.111 1871.19,934.107 1907.68,930.711 
  1933.61,927.23 1996.03,917.591 2058.45,906.498 
  "/>
<polyline clip-path="url(#clip762)" style="stroke:#090621; stroke-linecap:butt; stroke-linejoin:round; stroke-width:16; stroke-opacity:1; fill:none" points="
  2058.45,693.209 1996.03,679.581 1933.61,666.325 1871.19,653.464 1852.55,649.799 1808.77,643.511 1746.34,635 1683.92,626.924 1621.5,619.302 1559.08,612.155 
  1496.66,605.505 1470.73,602.981 1434.24,600.228 1371.82,595.99 1309.4,592.216 1246.98,588.925 1184.56,586.133 1122.14,583.86 1059.71,582.125 997.294,580.95 
  934.873,580.356 872.452,580.366 810.031,581.005 747.61,582.299 685.189,584.274 622.768,586.959 560.347,590.384 497.926,594.581 435.505,599.585 399.016,602.981 
  373.084,606.461 310.663,616.101 248.242,627.194 
  "/>
<polyline clip-path="url(#clip762)" style="stroke:#1f0c47; stroke-linecap:butt; stroke-linejoin:round; stroke-width:16; stroke-opacity:1; fill:none" points="
  248.242,522.246 310.663,517.496 373.084,513.39 435.505,509.906 447.564,509.344 497.926,507.446 560.347,505.557 622.768,504.121 685.189,503.127 747.61,502.563 
  810.031,502.418 872.452,502.681 934.873,503.341 997.294,504.388 1059.71,505.813 1122.14,507.605 1172.5,509.344 1184.56,509.839 1246.98,512.832 1309.4,516.224 
  1371.82,520.002 1434.24,524.157 1496.66,528.676 1559.08,533.55 1621.5,538.769 1683.92,544.323 1746.34,550.203 1806.34,556.162 1808.77,556.453 1871.19,564.381 
  1933.61,572.644 1996.03,581.23 2058.45,590.131 
  "/>
<polyline clip-path="url(#clip762)" style="stroke:#3b0964; stroke-linecap:butt; stroke-linejoin:round; stroke-width:16; stroke-opacity:1; fill:none" points="
  2058.45,522.467 1996.03,514.539 1953.54,509.344 1933.61,507.257 1871.19,501.01 1808.77,495.027 1746.34,489.312 1683.92,483.874 1621.5,478.717 1559.08,473.848 
  1496.66,469.275 1434.24,465.005 1395.04,462.525 1371.82,461.251 1309.4,458.12 1246.98,455.277 1184.56,452.726 1122.14,450.474 1059.71,448.528 997.294,446.894 
  934.873,445.579 872.452,444.59 810.031,443.935 747.61,443.62 685.189,443.654 622.768,444.045 560.347,444.8 497.926,445.928 435.505,447.439 373.084,449.34 
  310.663,451.642 248.242,454.353 
  "/>
<polyline clip-path="url(#clip762)" style="stroke:#550f6d; stroke-linecap:butt; stroke-linejoin:round; stroke-width:16; stroke-opacity:1; fill:none" points="
  248.242,400.462 310.663,398.489 373.084,396.86 435.505,395.568 497.926,394.607 560.347,393.969 622.768,393.649 685.189,393.64 747.61,393.937 810.031,394.532 
  872.452,395.421 934.873,396.598 997.294,398.057 1059.71,399.793 1122.14,401.8 1184.56,404.075 1246.98,406.611 1309.4,409.404 1371.82,412.449 1433.56,415.706 
  1434.24,415.747 1496.66,419.769 1559.08,424.056 1621.5,428.601 1683.92,433.401 1746.34,438.45 1808.77,443.743 1871.19,449.275 1933.61,455.042 1996.03,461.038 
  2010.87,462.525 2058.45,467.964 
  "/>
<polyline clip-path="url(#clip762)" style="stroke:#6e186e; stroke-linecap:butt; stroke-linejoin:round; stroke-width:16; stroke-opacity:1; fill:none" points="
  2058.45,421.511 2002.83,415.706 1996.03,415.074 1933.61,409.506 1871.19,404.147 1808.77,398.999 1746.34,394.067 1683.92,389.354 1621.5,384.864 1559.08,380.601 
  1496.66,376.57 1434.24,372.775 1371.82,369.219 1365.54,368.888 1309.4,366.234 1246.98,363.511 1184.56,361.017 1122.14,358.756 1059.71,356.732 997.294,354.949 
  934.873,353.412 872.452,352.123 810.031,351.088 747.61,350.311 685.189,349.796 622.768,349.548 560.347,349.572 497.926,349.872 435.505,350.454 373.084,351.322 
  310.663,352.482 248.242,353.939 
  "/>
<polyline clip-path="url(#clip762)" style="stroke:#88216a; stroke-linecap:butt; stroke-linejoin:round; stroke-width:16; stroke-opacity:1; fill:none" points="
  248.242,312.4 310.663,311.322 373.084,310.505 435.505,309.945 497.926,309.639 560.347,309.581 622.768,309.769 685.189,310.197 747.61,310.864 810.031,311.764 
  872.452,312.894 934.873,314.251 997.294,315.832 1059.71,317.632 1122.14,319.649 1184.56,321.88 1189.39,322.069 1246.98,324.568 1309.4,327.505 1371.82,330.664 
  1434.24,334.044 1496.66,337.639 1559.08,341.446 1621.5,345.463 1683.92,349.685 1746.34,354.11 1808.77,358.735 1871.19,363.555 1933.61,368.569 1937.42,368.888 
  1996.03,374.335 2058.45,380.341 
  "/>
<polyline clip-path="url(#clip762)" style="stroke:#a12b61; stroke-linecap:butt; stroke-linejoin:round; stroke-width:16; stroke-opacity:1; fill:none" points="
  2058.45,342.823 1996.03,337.244 1933.61,331.851 1871.19,326.646 1814.19,322.069 1808.77,321.673 1746.34,317.313 1683.92,313.136 1621.5,309.145 1559.08,305.341 
  1496.66,301.729 1434.24,298.309 1371.82,295.087 1309.4,292.063 1246.98,289.243 1184.56,286.627 1122.14,284.22 1059.71,282.024 997.294,280.044 934.873,278.281 
  872.452,276.74 810.031,275.424 800.061,275.251 747.61,274.421 685.189,273.646 622.768,273.085 560.347,272.742 497.926,272.618 435.505,272.717 373.084,273.044 
  310.663,273.6 248.242,274.389 
  "/>
<polyline clip-path="url(#clip762)" style="stroke:#ba3655; stroke-linecap:butt; stroke-linejoin:round; stroke-width:16; stroke-opacity:1; fill:none" points="
  248.242,239.994 310.663,239.372 373.084,238.98 435.505,238.817 497.926,238.88 560.347,239.164 622.768,239.666 685.189,240.385 747.61,241.315 810.031,242.456 
  872.452,243.803 934.873,245.354 997.294,247.106 1059.71,249.056 1122.14,251.201 1184.56,253.54 1246.98,256.069 1309.4,258.785 1371.82,261.687 1434.24,264.771 
  1496.66,268.036 1559.08,271.478 1621.5,275.096 1624.03,275.251 1683.92,279.236 1746.34,283.575 1808.77,288.095 1871.19,292.794 1933.61,297.669 1996.03,302.717 
  2058.45,307.936 
  "/>
<polyline clip-path="url(#clip762)" style="stroke:#d04544; stroke-linecap:butt; stroke-linejoin:round; stroke-width:16; stroke-opacity:1; fill:none" points="
  2058.45,275.007 1996.03,270.094 1933.61,265.339 1871.19,260.746 1808.77,256.316 1746.34,252.052 1683.92,247.955 1621.5,244.028 1559.08,240.272 1496.66,236.692 
  1434.24,233.287 1371.82,230.062 1338.32,228.432 1309.4,227.135 1246.98,224.512 1184.56,222.063 1122.14,219.788 1059.71,217.691 997.294,215.773 934.873,214.036 
  872.452,212.484 810.031,211.118 747.61,209.941 685.189,208.956 622.768,208.164 560.347,207.568 497.926,207.171 435.505,206.976 373.084,206.984 310.663,207.2 
  248.242,207.625 
  "/>
<polyline clip-path="url(#clip762)" style="stroke:#e35832; stroke-linecap:butt; stroke-linejoin:round; stroke-width:16; stroke-opacity:1; fill:none" points="
  248.242,176.715 310.663,176.45 373.084,176.376 435.505,176.491 497.926,176.793 560.347,177.28 622.768,177.949 685.189,178.797 747.61,179.824 810.031,181.027 
  836.56,181.613 872.452,182.471 934.873,184.15 997.294,186.012 1059.71,188.055 1122.14,190.276 1184.56,192.673 1246.98,195.245 1309.4,197.988 1371.82,200.901 
  1434.24,203.982 1496.66,207.228 1559.08,210.638 1621.5,214.209 1683.92,217.94 1746.34,221.829 1808.77,225.874 1846.74,228.432 1871.19,230.214 1933.61,234.939 
  1996.03,239.823 2058.45,244.866 
  "/>
<polyline clip-path="url(#clip762)" style="stroke:#f0701e; stroke-linecap:butt; stroke-linejoin:round; stroke-width:16; stroke-opacity:1; fill:none" points="
  2058.45,215.802 1996.03,211.042 1933.61,206.431 1871.19,201.969 1808.77,197.658 1746.34,193.5 1683.92,189.497 1621.5,185.651 1559.08,181.964 1552.86,181.613 
  1496.66,178.676 1434.24,175.568 1371.82,172.613 1309.4,169.814 1246.98,167.173 1184.56,164.691 1122.14,162.371 1059.71,160.213 997.294,158.221 934.873,156.396 
  872.452,154.74 810.031,153.254 747.61,151.942 685.189,150.805 622.768,149.845 560.347,149.064 497.926,148.464 435.505,148.048 373.084,147.818 310.663,147.776 
  248.242,147.924 
  "/>
<polyline clip-path="url(#clip762)" style="stroke:#f98c09; stroke-linecap:butt; stroke-linejoin:round; stroke-width:16; stroke-opacity:1; fill:none" points="
  248.242,120.313 310.663,120.279 373.084,120.421 435.505,120.736 497.926,121.223 560.347,121.879 622.768,122.702 685.189,123.692 747.61,124.845 810.031,126.16 
  872.452,127.636 934.873,129.271 997.294,131.062 1059.71,133.009 1112.77,134.795 1122.14,135.133 1184.56,137.558 1246.98,140.144 1309.4,142.888 1371.82,145.789 
  1434.24,148.845 1496.66,152.054 1559.08,155.415 1621.5,158.926 1683.92,162.585 1746.34,166.391 1808.77,170.342 1871.19,174.435 1933.61,178.671 1975.53,181.613 
  1996.03,183.16 2058.45,188.029 
  "/>
<polyline clip-path="url(#clip762)" style="stroke:#fbaa0e; stroke-linecap:butt; stroke-linejoin:round; stroke-width:16; stroke-opacity:1; fill:none" points="
  2058.45,161.813 1996.03,157.204 1933.61,152.733 1871.19,148.402 1808.77,144.212 1746.34,140.164 1683.92,136.261 1659.52,134.795 1621.5,132.663 1559.08,129.305 
  1496.66,126.088 1434.24,123.013 1371.82,120.081 1309.4,117.295 1246.98,114.655 1184.56,112.163 1122.14,109.82 1059.71,107.629 997.294,105.591 934.873,103.708 
  872.452,101.98 810.031,100.411 747.61,99.0015 685.189,97.7534 622.768,96.6685 560.347,95.7487 497.926,94.9958 435.505,94.4117 373.084,93.9982 310.663,93.7572 
  248.242,93.6908 
  "/>
<polyline clip-path="url(#clip762)" style="stroke:#f8c931; stroke-linecap:butt; stroke-linejoin:round; stroke-width:16; stroke-opacity:1; fill:none" points="
  1208.97,87.9763 1246.98,89.5459 1309.4,92.2749 1371.82,95.1498 1434.24,98.169 1496.66,101.331 1559.08,104.634 1621.5,108.078 1683.92,111.659 1746.34,115.378 
  1808.77,119.232 1871.19,123.221 1933.61,127.342 1996.03,131.595 
  "/>
<polyline clip-path="url(#clip762)" style="stroke:#f8c931; stroke-linecap:butt; stroke-linejoin:round; stroke-width:16; stroke-opacity:1; fill:none" points="
  2041.57,134.795 2058.45,136.063 
  "/>
<polyline clip-path="url(#clip762)" style="stroke:#f1e864; stroke-linecap:butt; stroke-linejoin:round; stroke-width:16; stroke-opacity:1; fill:none" points="
  2058.45,111.977 1996.03,107.512 
  "/>
<polyline clip-path="url(#clip762)" style="stroke:#f1e864; stroke-linecap:butt; stroke-linejoin:round; stroke-width:16; stroke-opacity:1; fill:none" points="
  1697.29,87.9763 1746.34,90.9631 1808.77,94.9014 1871.19,98.9732 1933.61,103.177 1996.03,107.512 
  "/>
<polyline clip-path="url(#clip762)" style="stroke:#f8c931; stroke-linecap:butt; stroke-linejoin:round; stroke-width:16; stroke-opacity:1; fill:none" points="
  248.242,1397.63 265.124,1398.9 310.663,1402.1 373.084,1406.35 435.505,1410.47 497.926,1414.46 560.347,1418.31 622.768,1422.03 685.189,1425.61 747.61,1429.06 
  810.031,1432.36 872.452,1435.52 934.873,1438.54 997.294,1441.42 1059.71,1444.15 1097.72,1445.72 
  "/>
<defs>
  <clipPath id="clip763">
    <rect x="2160" y="47" width="73" height="1440"/>
  </clipPath>
</defs>
<polyline clip-path="url(#clip763)" style="stroke:#0a0723; stroke-linecap:butt; stroke-linejoin:round; stroke-width:16; stroke-opacity:1; fill:none" points="
  2160.76,1396.5 2232.76,1396.5 
  "/>
<polyline clip-path="url(#clip763)" style="stroke:#200c4a; stroke-linecap:butt; stroke-linejoin:round; stroke-width:16; stroke-opacity:1; fill:none" points="
  2160.76,1306.55 2232.76,1306.55 
  "/>
<polyline clip-path="url(#clip763)" style="stroke:#3c0965; stroke-linecap:butt; stroke-linejoin:round; stroke-width:16; stroke-opacity:1; fill:none" points="
  2160.76,1216.6 2232.76,1216.6 
  "/>
<polyline clip-path="url(#clip763)" style="stroke:#570f6d; stroke-linecap:butt; stroke-linejoin:round; stroke-width:16; stroke-opacity:1; fill:none" points="
  2160.76,1126.65 2232.76,1126.65 
  "/>
<polyline clip-path="url(#clip763)" style="stroke:#70196e; stroke-linecap:butt; stroke-linejoin:round; stroke-width:16; stroke-opacity:1; fill:none" points="
  2160.76,1036.7 2232.76,1036.7 
  "/>
<polyline clip-path="url(#clip763)" style="stroke:#892269; stroke-linecap:butt; stroke-linejoin:round; stroke-width:16; stroke-opacity:1; fill:none" points="
  2160.76,946.746 2232.76,946.746 
  "/>
<polyline clip-path="url(#clip763)" style="stroke:#a32b61; stroke-linecap:butt; stroke-linejoin:round; stroke-width:16; stroke-opacity:1; fill:none" points="
  2160.76,856.796 2232.76,856.796 
  "/>
<polyline clip-path="url(#clip763)" style="stroke:#bb3754; stroke-linecap:butt; stroke-linejoin:round; stroke-width:16; stroke-opacity:1; fill:none" points="
  2160.76,766.846 2232.76,766.846 
  "/>
<polyline clip-path="url(#clip763)" style="stroke:#d04544; stroke-linecap:butt; stroke-linejoin:round; stroke-width:16; stroke-opacity:1; fill:none" points="
  2160.76,676.896 2232.76,676.896 
  "/>
<polyline clip-path="url(#clip763)" style="stroke:#e35832; stroke-linecap:butt; stroke-linejoin:round; stroke-width:16; stroke-opacity:1; fill:none" points="
  2160.76,586.946 2232.76,586.946 
  "/>
<polyline clip-path="url(#clip763)" style="stroke:#f0701e; stroke-linecap:butt; stroke-linejoin:round; stroke-width:16; stroke-opacity:1; fill:none" points="
  2160.76,496.995 2232.76,496.995 
  "/>
<polyline clip-path="url(#clip763)" style="stroke:#f98c09; stroke-linecap:butt; stroke-linejoin:round; stroke-width:16; stroke-opacity:1; fill:none" points="
  2160.76,407.045 2232.76,407.045 
  "/>
<polyline clip-path="url(#clip763)" style="stroke:#fbaa0e; stroke-linecap:butt; stroke-linejoin:round; stroke-width:16; stroke-opacity:1; fill:none" points="
  2160.76,317.095 2232.76,317.095 
  "/>
<polyline clip-path="url(#clip763)" style="stroke:#f8c931; stroke-linecap:butt; stroke-linejoin:round; stroke-width:16; stroke-opacity:1; fill:none" points="
  2160.76,227.145 2232.76,227.145 
  "/>
<polyline clip-path="url(#clip763)" style="stroke:#f1e864; stroke-linecap:butt; stroke-linejoin:round; stroke-width:16; stroke-opacity:1; fill:none" points="
  2160.76,137.194 2232.76,137.194 
  "/>
<path clip-path="url(#clip760)" d="M2274.38 1184.4 L2290.7 1184.4 L2290.7 1188.34 L2268.76 1188.34 L2268.76 1184.4 Q2271.42 1181.65 2276 1177.02 Q2280.61 1172.36 2281.79 1171.02 Q2284.03 1168.5 2284.91 1166.76 Q2285.82 1165 2285.82 1163.31 Q2285.82 1160.56 2283.87 1158.82 Q2281.95 1157.09 2278.85 1157.09 Q2276.65 1157.09 2274.2 1157.85 Q2271.77 1158.61 2268.99 1160.16 L2268.99 1155.44 Q2271.81 1154.31 2274.27 1153.73 Q2276.72 1153.15 2278.76 1153.15 Q2284.13 1153.15 2287.32 1155.84 Q2290.52 1158.52 2290.52 1163.01 Q2290.52 1165.14 2289.7 1167.06 Q2288.92 1168.96 2286.81 1171.55 Q2286.23 1172.23 2283.13 1175.44 Q2280.03 1178.64 2274.38 1184.4 Z" fill="#000000" fill-rule="evenodd" fill-opacity="1" /><path clip-path="url(#clip760)" d="M2300.51 1182.46 L2305.4 1182.46 L2305.4 1188.34 L2300.51 1188.34 L2300.51 1182.46 Z" fill="#000000" fill-rule="evenodd" fill-opacity="1" /><path clip-path="url(#clip760)" d="M2315.63 1153.78 L2333.99 1153.78 L2333.99 1157.71 L2319.91 1157.71 L2319.91 1166.18 Q2320.93 1165.84 2321.95 1165.67 Q2322.97 1165.49 2323.99 1165.49 Q2329.77 1165.49 2333.15 1168.66 Q2336.53 1171.83 2336.53 1177.25 Q2336.53 1182.83 2333.06 1185.93 Q2329.59 1189.01 2323.27 1189.01 Q2321.09 1189.01 2318.83 1188.64 Q2316.58 1188.27 2314.17 1187.53 L2314.17 1182.83 Q2316.26 1183.96 2318.48 1184.52 Q2320.7 1185.07 2323.18 1185.07 Q2327.18 1185.07 2329.52 1182.97 Q2331.86 1180.86 2331.86 1177.25 Q2331.86 1173.64 2329.52 1171.53 Q2327.18 1169.42 2323.18 1169.42 Q2321.3 1169.42 2319.43 1169.84 Q2317.58 1170.26 2315.63 1171.14 L2315.63 1153.78 Z" fill="#000000" fill-rule="evenodd" fill-opacity="1" /><path clip-path="url(#clip760)" d="M2270.21 840.598 L2288.57 840.598 L2288.57 844.533 L2274.5 844.533 L2274.5 853.005 Q2275.52 852.658 2276.53 852.496 Q2277.55 852.311 2278.57 852.311 Q2284.36 852.311 2287.74 855.482 Q2291.12 858.654 2291.12 864.07 Q2291.12 869.649 2287.64 872.751 Q2284.17 875.829 2277.85 875.829 Q2275.68 875.829 2273.41 875.459 Q2271.16 875.089 2268.76 874.348 L2268.76 869.649 Q2270.84 870.783 2273.06 871.339 Q2275.28 871.894 2277.76 871.894 Q2281.77 871.894 2284.1 869.788 Q2286.44 867.681 2286.44 864.07 Q2286.44 860.459 2284.1 858.353 Q2281.77 856.246 2277.76 856.246 Q2275.89 856.246 2274.01 856.663 Q2272.16 857.08 2270.21 857.959 L2270.21 840.598 Z" fill="#000000" fill-rule="evenodd" fill-opacity="1" /><path clip-path="url(#clip760)" d="M2300.33 869.279 L2305.21 869.279 L2305.21 875.158 L2300.33 875.158 L2300.33 869.279 Z" fill="#000000" fill-rule="evenodd" fill-opacity="1" /><path clip-path="url(#clip760)" d="M2325.4 843.677 Q2321.79 843.677 2319.96 847.242 Q2318.15 850.783 2318.15 857.913 Q2318.15 865.019 2319.96 868.584 Q2321.79 872.126 2325.4 872.126 Q2329.03 872.126 2330.84 868.584 Q2332.67 865.019 2332.67 857.913 Q2332.67 850.783 2330.84 847.242 Q2329.03 843.677 2325.4 843.677 M2325.4 839.973 Q2331.21 839.973 2334.26 844.58 Q2337.34 849.163 2337.34 857.913 Q2337.34 866.64 2334.26 871.246 Q2331.21 875.829 2325.4 875.829 Q2319.59 875.829 2316.51 871.246 Q2313.45 866.64 2313.45 857.913 Q2313.45 849.163 2316.51 844.58 Q2319.59 839.973 2325.4 839.973 Z" fill="#000000" fill-rule="evenodd" fill-opacity="1" /><path clip-path="url(#clip760)" d="M2268.76 527.42 L2290.98 527.42 L2290.98 529.411 L2278.43 561.98 L2273.55 561.98 L2285.35 531.355 L2268.76 531.355 L2268.76 527.42 Z" fill="#000000" fill-rule="evenodd" fill-opacity="1" /><path clip-path="url(#clip760)" d="M2300.1 556.101 L2304.98 556.101 L2304.98 561.98 L2300.1 561.98 L2300.1 556.101 Z" fill="#000000" fill-rule="evenodd" fill-opacity="1" /><path clip-path="url(#clip760)" d="M2315.21 527.42 L2333.57 527.42 L2333.57 531.355 L2319.5 531.355 L2319.5 539.827 Q2320.51 539.48 2321.53 539.318 Q2322.55 539.133 2323.57 539.133 Q2329.36 539.133 2332.74 542.304 Q2336.12 545.476 2336.12 550.892 Q2336.12 556.471 2332.64 559.573 Q2329.17 562.651 2322.85 562.651 Q2320.68 562.651 2318.41 562.281 Q2316.16 561.911 2313.76 561.17 L2313.76 556.471 Q2315.84 557.605 2318.06 558.161 Q2320.28 558.716 2322.76 558.716 Q2326.76 558.716 2329.1 556.61 Q2331.44 554.503 2331.44 550.892 Q2331.44 547.281 2329.1 545.175 Q2326.76 543.068 2322.76 543.068 Q2320.89 543.068 2319.01 543.485 Q2317.16 543.902 2315.21 544.781 L2315.21 527.42 Z" fill="#000000" fill-rule="evenodd" fill-opacity="1" /><path clip-path="url(#clip760)" d="M2269.43 244.867 L2277.07 244.867 L2277.07 218.501 L2268.76 220.168 L2268.76 215.909 L2277.02 214.242 L2281.7 214.242 L2281.7 244.867 L2289.33 244.867 L2289.33 248.802 L2269.43 248.802 L2269.43 244.867 Z" fill="#000000" fill-rule="evenodd" fill-opacity="1" /><path clip-path="url(#clip760)" d="M2308.78 217.321 Q2305.17 217.321 2303.34 220.886 Q2301.53 224.427 2301.53 231.557 Q2301.53 238.663 2303.34 242.228 Q2305.17 245.77 2308.78 245.77 Q2312.41 245.77 2314.22 242.228 Q2316.05 238.663 2316.05 231.557 Q2316.05 224.427 2314.22 220.886 Q2312.41 217.321 2308.78 217.321 M2308.78 213.617 Q2314.59 213.617 2317.64 218.224 Q2320.72 222.807 2320.72 231.557 Q2320.72 240.284 2317.64 244.89 Q2314.59 249.473 2308.78 249.473 Q2302.97 249.473 2299.89 244.89 Q2296.83 240.284 2296.83 231.557 Q2296.83 222.807 2299.89 218.224 Q2302.97 213.617 2308.78 213.617 Z" fill="#000000" fill-rule="evenodd" fill-opacity="1" /><path clip-path="url(#clip760)" d="M2328.94 242.923 L2333.83 242.923 L2333.83 248.802 L2328.94 248.802 L2328.94 242.923 Z" fill="#000000" fill-rule="evenodd" fill-opacity="1" /><path clip-path="url(#clip760)" d="M2354.01 217.321 Q2350.4 217.321 2348.57 220.886 Q2346.76 224.427 2346.76 231.557 Q2346.76 238.663 2348.57 242.228 Q2350.4 245.77 2354.01 245.77 Q2357.64 245.77 2359.45 242.228 Q2361.28 238.663 2361.28 231.557 Q2361.28 224.427 2359.45 220.886 Q2357.64 217.321 2354.01 217.321 M2354.01 213.617 Q2359.82 213.617 2362.88 218.224 Q2365.95 222.807 2365.95 231.557 Q2365.95 240.284 2362.88 244.89 Q2359.82 249.473 2354.01 249.473 Q2348.2 249.473 2345.12 244.89 Q2342.07 240.284 2342.07 231.557 Q2342.07 222.807 2345.12 218.224 Q2348.2 213.617 2354.01 213.617 Z" fill="#000000" fill-rule="evenodd" fill-opacity="1" /><polyline clip-path="url(#clip760)" style="stroke:#000000; stroke-linecap:butt; stroke-linejoin:round; stroke-width:4; stroke-opacity:1; fill:none" points="
  2232.76,1486.45 2232.76,1174.68 2256.76,1174.68 2232.76,1174.68 2232.76,861.507 2256.76,861.507 2232.76,861.507 2232.76,548.329 2256.76,548.329 2232.76,548.329 
  2232.76,235.151 2256.76,235.151 2232.76,235.151 2232.76,47.2441 
  "/>
<path clip-path="url(#clip760)" d="
M1756.95 250.738 L2048.8 250.738 L2048.8 95.2176 L1756.95 95.2176  Z
  " fill="#ffffff" fill-rule="evenodd" fill-opacity="1"/>
<polyline clip-path="url(#clip760)" style="stroke:#000000; stroke-linecap:butt; stroke-linejoin:round; stroke-width:4; stroke-opacity:1; fill:none" points="
  1756.95,250.738 2048.8,250.738 2048.8,95.2176 1756.95,95.2176 1756.95,250.738 
  "/>
<polyline clip-path="url(#clip760)" style="stroke:#009af9; stroke-linecap:butt; stroke-linejoin:round; stroke-width:6; stroke-opacity:1; fill:none" points="
  1778.27,172.978 1906.19,172.978 
  "/>
<circle clip-path="url(#clip760)" cx="1842.23" cy="172.978" r="34" fill="#009af9" fill-rule="evenodd" fill-opacity="1" stroke="#000000" stroke-opacity="1" stroke-width="7.68"/>
<path clip-path="url(#clip760)" d="M1948.27 202.509 Q1945.56 209.453 1943 211.571 Q1940.43 213.689 1936.12 213.689 L1931.02 213.689 L1931.02 208.342 L1934.77 208.342 Q1937.41 208.342 1938.86 207.092 Q1940.32 205.842 1942.09 201.189 L1943.24 198.273 L1927.51 160.009 L1934.28 160.009 L1946.43 190.425 L1958.59 160.009 L1965.36 160.009 L1948.27 202.509 Z" fill="#000000" fill-rule="evenodd" fill-opacity="1" /><path clip-path="url(#clip760)" d="M1976.29 192.995 L1987.75 192.995 L1987.75 153.446 L1975.29 155.946 L1975.29 149.558 L1987.68 147.058 L1994.7 147.058 L1994.7 192.995 L2006.15 192.995 L2006.15 198.898 L1976.29 198.898 L1976.29 192.995 Z" fill="#000000" fill-rule="evenodd" fill-opacity="1" /></svg>
