<?xml version="1.0" encoding="utf-8"?>
<svg xmlns="http://www.w3.org/2000/svg" xmlns:xlink="http://www.w3.org/1999/xlink" width="600" height="400" viewBox="0 0 2400 1600">
<defs>
  <clipPath id="clip280">
    <rect x="0" y="0" width="2400" height="1600"/>
  </clipPath>
</defs>
<path clip-path="url(#clip280)" d="
M0 1600 L2400 1600 L2400 0 L0 0  Z
  " fill="#ffffff" fill-rule="evenodd" fill-opacity="1"/>
<defs>
  <clipPath id="clip281">
    <rect x="480" y="0" width="1681" height="1600"/>
  </clipPath>
</defs>
<path clip-path="url(#clip280)" d="
M178.867 1486.45 L2352.76 1486.45 L2352.76 47.2441 L178.867 47.2441  Z
  " fill="#ffffff" fill-rule="evenodd" fill-opacity="1"/>
<defs>
  <clipPath id="clip282">
    <rect x="178" y="47" width="2175" height="1440"/>
  </clipPath>
</defs>
<polyline clip-path="url(#clip282)" style="stroke:#000000; stroke-linecap:butt; stroke-linejoin:round; stroke-width:2; stroke-opacity:0.1; fill:none" points="
  377.114,1486.45 377.114,47.2441 
  "/>
<polyline clip-path="url(#clip282)" style="stroke:#000000; stroke-linecap:butt; stroke-linejoin:round; stroke-width:2; stroke-opacity:0.1; fill:none" points="
  924.005,1486.45 924.005,47.2441 
  "/>
<polyline clip-path="url(#clip282)" style="stroke:#000000; stroke-linecap:butt; stroke-linejoin:round; stroke-width:2; stroke-opacity:0.1; fill:none" points="
  1470.9,1486.45 1470.9,47.2441 
  "/>
<polyline clip-path="url(#clip282)" style="stroke:#000000; stroke-linecap:butt; stroke-linejoin:round; stroke-width:2; stroke-opacity:0.1; fill:none" points="
  2017.79,1486.45 2017.79,47.2441 
  "/>
<polyline clip-path="url(#clip280)" style="stroke:#000000; stroke-linecap:butt; stroke-linejoin:round; stroke-width:4; stroke-opacity:1; fill:none" points="
  178.867,1486.45 2352.76,1486.45 
  "/>
<polyline clip-path="url(#clip280)" style="stroke:#000000; stroke-linecap:butt; stroke-linejoin:round; stroke-width:4; stroke-opacity:1; fill:none" points="
  377.114,1486.45 377.114,1467.55 
  "/>
<polyline clip-path="url(#clip280)" style="stroke:#000000; stroke-linecap:butt; stroke-linejoin:round; stroke-width:4; stroke-opacity:1; fill:none" points="
  924.005,1486.45 924.005,1467.55 
  "/>
<polyline clip-path="url(#clip280)" style="stroke:#000000; stroke-linecap:butt; stroke-linejoin:round; stroke-width:4; stroke-opacity:1; fill:none" points="
  1470.9,1486.45 1470.9,1467.55 
  "/>
<polyline clip-path="url(#clip280)" style="stroke:#000000; stroke-linecap:butt; stroke-linejoin:round; stroke-width:4; stroke-opacity:1; fill:none" points="
  2017.79,1486.45 2017.79,1467.55 
  "/>
<path clip-path="url(#clip280)" d="M347.057 1532.02 L376.732 1532.02 L376.732 1535.95 L347.057 1535.95 L347.057 1532.02 Z" fill="#000000" fill-rule="evenodd" fill-opacity="1" /><path clip-path="url(#clip280)" d="M390.853 1544.91 L407.172 1544.91 L407.172 1548.85 L385.228 1548.85 L385.228 1544.91 Q387.89 1542.16 392.473 1537.53 Q397.08 1532.88 398.26 1531.53 Q400.505 1529.01 401.385 1527.27 Q402.288 1525.51 402.288 1523.82 Q402.288 1521.07 400.343 1519.33 Q398.422 1517.6 395.32 1517.6 Q393.121 1517.6 390.668 1518.36 Q388.237 1519.13 385.459 1520.68 L385.459 1515.95 Q388.283 1514.82 390.737 1514.24 Q393.191 1513.66 395.228 1513.66 Q400.598 1513.66 403.792 1516.35 Q406.987 1519.03 406.987 1523.52 Q406.987 1525.65 406.177 1527.57 Q405.39 1529.47 403.283 1532.07 Q402.705 1532.74 399.603 1535.95 Q396.501 1539.15 390.853 1544.91 Z" fill="#000000" fill-rule="evenodd" fill-opacity="1" /><path clip-path="url(#clip280)" d="M924.005 1517.37 Q920.394 1517.37 918.565 1520.93 Q916.759 1524.47 916.759 1531.6 Q916.759 1538.71 918.565 1542.27 Q920.394 1545.82 924.005 1545.82 Q927.639 1545.82 929.445 1542.27 Q931.273 1538.71 931.273 1531.6 Q931.273 1524.47 929.445 1520.93 Q927.639 1517.37 924.005 1517.37 M924.005 1513.66 Q929.815 1513.66 932.87 1518.27 Q935.949 1522.85 935.949 1531.6 Q935.949 1540.33 932.87 1544.94 Q929.815 1549.52 924.005 1549.52 Q918.195 1549.52 915.116 1544.94 Q912.06 1540.33 912.06 1531.6 Q912.06 1522.85 915.116 1518.27 Q918.195 1513.66 924.005 1513.66 Z" fill="#000000" fill-rule="evenodd" fill-opacity="1" /><path clip-path="url(#clip280)" d="M1465.55 1544.91 L1481.87 1544.91 L1481.87 1548.85 L1459.92 1548.85 L1459.92 1544.91 Q1462.59 1542.16 1467.17 1537.53 Q1471.77 1532.88 1472.96 1531.53 Q1475.2 1529.01 1476.08 1527.27 Q1476.98 1525.51 1476.98 1523.82 Q1476.98 1521.07 1475.04 1519.33 Q1473.12 1517.6 1470.02 1517.6 Q1467.82 1517.6 1465.36 1518.36 Q1462.93 1519.13 1460.15 1520.68 L1460.15 1515.95 Q1462.98 1514.82 1465.43 1514.24 Q1467.89 1513.66 1469.92 1513.66 Q1475.29 1513.66 1478.49 1516.35 Q1481.68 1519.03 1481.68 1523.52 Q1481.68 1525.65 1480.87 1527.57 Q1480.08 1529.47 1477.98 1532.07 Q1477.4 1532.74 1474.3 1535.95 Q1471.2 1539.15 1465.55 1544.91 Z" fill="#000000" fill-rule="evenodd" fill-opacity="1" /><path clip-path="url(#clip280)" d="M2020.79 1518.36 L2008.99 1536.81 L2020.79 1536.81 L2020.79 1518.36 M2019.57 1514.29 L2025.45 1514.29 L2025.45 1536.81 L2030.38 1536.81 L2030.38 1540.7 L2025.45 1540.7 L2025.45 1548.85 L2020.79 1548.85 L2020.79 1540.7 L2005.19 1540.7 L2005.19 1536.19 L2019.57 1514.29 Z" fill="#000000" fill-rule="evenodd" fill-opacity="1" /><polyline clip-path="url(#clip282)" style="stroke:#000000; stroke-linecap:butt; stroke-linejoin:round; stroke-width:2; stroke-opacity:0.1; fill:none" points="
  178.867,1186.91 2352.76,1186.91 
  "/>
<polyline clip-path="url(#clip282)" style="stroke:#000000; stroke-linecap:butt; stroke-linejoin:round; stroke-width:2; stroke-opacity:0.1; fill:none" points="
  178.867,838.59 2352.76,838.59 
  "/>
<polyline clip-path="url(#clip282)" style="stroke:#000000; stroke-linecap:butt; stroke-linejoin:round; stroke-width:2; stroke-opacity:0.1; fill:none" points="
  178.867,490.271 2352.76,490.271 
  "/>
<polyline clip-path="url(#clip282)" style="stroke:#000000; stroke-linecap:butt; stroke-linejoin:round; stroke-width:2; stroke-opacity:0.1; fill:none" points="
  178.867,141.952 2352.76,141.952 
  "/>
<polyline clip-path="url(#clip280)" style="stroke:#000000; stroke-linecap:butt; stroke-linejoin:round; stroke-width:4; stroke-opacity:1; fill:none" points="
  178.867,1486.45 178.867,47.2441 
  "/>
<polyline clip-path="url(#clip280)" style="stroke:#000000; stroke-linecap:butt; stroke-linejoin:round; stroke-width:4; stroke-opacity:1; fill:none" points="
  178.867,1186.91 197.764,1186.91 
  "/>
<polyline clip-path="url(#clip280)" style="stroke:#000000; stroke-linecap:butt; stroke-linejoin:round; stroke-width:4; stroke-opacity:1; fill:none" points="
  178.867,838.59 197.764,838.59 
  "/>
<polyline clip-path="url(#clip280)" style="stroke:#000000; stroke-linecap:butt; stroke-linejoin:round; stroke-width:4; stroke-opacity:1; fill:none" points="
  178.867,490.271 197.764,490.271 
  "/>
<polyline clip-path="url(#clip280)" style="stroke:#000000; stroke-linecap:butt; stroke-linejoin:round; stroke-width:4; stroke-opacity:1; fill:none" points="
  178.867,141.952 197.764,141.952 
  "/>
<path clip-path="url(#clip280)" d="M50.9921 1187.36 L80.6679 1187.36 L80.6679 1191.3 L50.9921 1191.3 L50.9921 1187.36 Z" fill="#000000" fill-rule="evenodd" fill-opacity="1" /><path clip-path="url(#clip280)" d="M94.7882 1200.25 L111.108 1200.25 L111.108 1204.19 L89.1632 1204.19 L89.1632 1200.25 Q91.8252 1197.5 96.4085 1192.87 Q101.015 1188.22 102.196 1186.87 Q104.441 1184.35 105.321 1182.61 Q106.223 1180.86 106.223 1179.17 Q106.223 1176.41 104.279 1174.68 Q102.358 1172.94 99.2558 1172.94 Q97.0567 1172.94 94.603 1173.7 Q92.1725 1174.47 89.3947 1176.02 L89.3947 1171.3 Q92.2188 1170.16 94.6724 1169.58 Q97.1261 1169 99.1632 1169 Q104.534 1169 107.728 1171.69 Q110.922 1174.37 110.922 1178.86 Q110.922 1180.99 110.112 1182.92 Q109.325 1184.81 107.219 1187.41 Q106.64 1188.08 103.538 1191.3 Q100.436 1194.49 94.7882 1200.25 Z" fill="#000000" fill-rule="evenodd" fill-opacity="1" /><path clip-path="url(#clip280)" d="M130.922 1172.71 Q127.311 1172.71 125.482 1176.27 Q123.677 1179.81 123.677 1186.94 Q123.677 1194.05 125.482 1197.61 Q127.311 1201.16 130.922 1201.16 Q134.556 1201.16 136.362 1197.61 Q138.191 1194.05 138.191 1186.94 Q138.191 1179.81 136.362 1176.27 Q134.556 1172.71 130.922 1172.71 M130.922 1169 Q136.732 1169 139.788 1173.61 Q142.867 1178.19 142.867 1186.94 Q142.867 1195.67 139.788 1200.28 Q136.732 1204.86 130.922 1204.86 Q125.112 1204.86 122.033 1200.28 Q118.978 1195.67 118.978 1186.94 Q118.978 1178.19 122.033 1173.61 Q125.112 1169 130.922 1169 Z" fill="#000000" fill-rule="evenodd" fill-opacity="1" /><path clip-path="url(#clip280)" d="M130.922 824.389 Q127.311 824.389 125.482 827.953 Q123.677 831.495 123.677 838.625 Q123.677 845.731 125.482 849.296 Q127.311 852.837 130.922 852.837 Q134.556 852.837 136.362 849.296 Q138.191 845.731 138.191 838.625 Q138.191 831.495 136.362 827.953 Q134.556 824.389 130.922 824.389 M130.922 820.685 Q136.732 820.685 139.788 825.291 Q142.867 829.875 142.867 838.625 Q142.867 847.351 139.788 851.958 Q136.732 856.541 130.922 856.541 Q125.112 856.541 122.033 851.958 Q118.978 847.351 118.978 838.625 Q118.978 829.875 122.033 825.291 Q125.112 820.685 130.922 820.685 Z" fill="#000000" fill-rule="evenodd" fill-opacity="1" /><path clip-path="url(#clip280)" d="M94.7882 503.616 L111.108 503.616 L111.108 507.551 L89.1632 507.551 L89.1632 503.616 Q91.8252 500.861 96.4085 496.231 Q101.015 491.579 102.196 490.236 Q104.441 487.713 105.321 485.977 Q106.223 484.218 106.223 482.528 Q106.223 479.773 104.279 478.037 Q102.358 476.301 99.2558 476.301 Q97.0567 476.301 94.603 477.065 Q92.1725 477.829 89.3947 479.38 L89.3947 474.657 Q92.2188 473.523 94.6724 472.945 Q97.1261 472.366 99.1632 472.366 Q104.534 472.366 107.728 475.051 Q110.922 477.736 110.922 482.227 Q110.922 484.356 110.112 486.278 Q109.325 488.176 107.219 490.769 Q106.64 491.44 103.538 494.657 Q100.436 497.852 94.7882 503.616 Z" fill="#000000" fill-rule="evenodd" fill-opacity="1" /><path clip-path="url(#clip280)" d="M130.922 476.07 Q127.311 476.07 125.482 479.634 Q123.677 483.176 123.677 490.306 Q123.677 497.412 125.482 500.977 Q127.311 504.518 130.922 504.518 Q134.556 504.518 136.362 500.977 Q138.191 497.412 138.191 490.306 Q138.191 483.176 136.362 479.634 Q134.556 476.07 130.922 476.07 M130.922 472.366 Q136.732 472.366 139.788 476.972 Q142.867 481.556 142.867 490.306 Q142.867 499.032 139.788 503.639 Q136.732 508.222 130.922 508.222 Q125.112 508.222 122.033 503.639 Q118.978 499.032 118.978 490.306 Q118.978 481.556 122.033 476.972 Q125.112 472.366 130.922 472.366 Z" fill="#000000" fill-rule="evenodd" fill-opacity="1" /><path clip-path="url(#clip280)" d="M103.608 128.746 L91.8021 147.195 L103.608 147.195 L103.608 128.746 M102.381 124.672 L108.26 124.672 L108.26 147.195 L113.191 147.195 L113.191 151.084 L108.26 151.084 L108.26 159.232 L103.608 159.232 L103.608 151.084 L88.0058 151.084 L88.0058 146.57 L102.381 124.672 Z" fill="#000000" fill-rule="evenodd" fill-opacity="1" /><path clip-path="url(#clip280)" d="M130.922 127.75 Q127.311 127.75 125.482 131.315 Q123.677 134.857 123.677 141.987 Q123.677 149.093 125.482 152.658 Q127.311 156.199 130.922 156.199 Q134.556 156.199 136.362 152.658 Q138.191 149.093 138.191 141.987 Q138.191 134.857 136.362 131.315 Q134.556 127.75 130.922 127.75 M130.922 124.047 Q136.732 124.047 139.788 128.653 Q142.867 133.237 142.867 141.987 Q142.867 150.713 139.788 155.32 Q136.732 159.903 130.922 159.903 Q125.112 159.903 122.033 155.32 Q118.978 150.713 118.978 141.987 Q118.978 133.237 122.033 128.653 Q125.112 124.047 130.922 124.047 Z" fill="#000000" fill-rule="evenodd" fill-opacity="1" /><polyline clip-path="url(#clip282)" style="stroke:#009af9; stroke-linecap:butt; stroke-linejoin:round; stroke-width:12; stroke-opacity:1; fill:none" points="
  240.392,822.319 260.42,822.336 445.609,821.712 556.9,820.144 650.995,817.698 753.208,813.609 847.44,808.524 948.466,802.204 1065.52,795.779 1169.53,794.532 
  1260.75,801.313 1310.48,809.951 1360.2,823.267 1410.22,842.391 1460.24,868.257 1515.54,905.783 1570.85,953.543 1623.47,1008.79 1676.09,1073.13 1730.8,1148.02 
  1785.51,1227.81 1831.57,1294.87 1877.63,1356.99 1905.74,1389.91 1933.86,1417.03 1961.97,1436.37 1990.09,1445.72 2016.52,1443.15 2042.94,1427.24 2056.16,1413.5 
  2069.37,1395.46 2082.59,1372.78 2095.8,1345.09 2116.97,1289.36 2138.14,1218.23 2148.73,1176.37 2159.31,1130.04 2169.9,1079.02 2180.48,1023.09 2191.07,962.028 
  2201.65,895.611 2212.24,823.616 2222.83,745.817 2233.41,661.991 2244,571.913 2254.58,475.36 2265.17,372.112 2271.68,305.131 2278.2,235.481 2284.71,163.112 
  2291.23,87.9763 
  "/>
<polyline clip-path="url(#clip282)" style="stroke:#e26f46; stroke-linecap:butt; stroke-linejoin:round; stroke-width:12; stroke-opacity:1; fill:none" points="
  240.392,838.59 260.42,838.59 445.609,838.59 556.9,838.59 650.995,838.59 753.208,838.59 847.44,838.59 948.466,838.59 1065.52,838.59 1169.53,838.59 
  1260.75,838.59 1360.2,838.59 1460.24,838.59 1570.85,838.59 1676.09,838.59 1785.51,838.59 1877.63,838.59 1990.09,838.59 2095.8,838.59 2265.17,838.59 
  2291.23,838.59 
  "/>
<path clip-path="url(#clip280)" d="
M1986.32 250.738 L2280.29 250.738 L2280.29 95.2176 L1986.32 95.2176  Z
  " fill="#ffffff" fill-rule="evenodd" fill-opacity="1"/>
<polyline clip-path="url(#clip280)" style="stroke:#000000; stroke-linecap:butt; stroke-linejoin:round; stroke-width:4; stroke-opacity:1; fill:none" points="
  1986.32,250.738 2280.29,250.738 2280.29,95.2176 1986.32,95.2176 1986.32,250.738 
  "/>
<polyline clip-path="url(#clip280)" style="stroke:#009af9; stroke-linecap:butt; stroke-linejoin:round; stroke-width:4; stroke-opacity:1; fill:none" points="
  2010.47,147.058 2155.4,147.058 
  "/>
<path clip-path="url(#clip280)" d="M2193.4 166.745 Q2191.59 171.375 2189.88 172.787 Q2188.17 174.199 2185.29 174.199 L2181.89 174.199 L2181.89 170.634 L2184.39 170.634 Q2186.15 170.634 2187.12 169.8 Q2188.1 168.967 2189.28 165.865 L2190.04 163.921 L2179.55 138.412 L2184.07 138.412 L2192.17 158.689 L2200.27 138.412 L2204.79 138.412 L2193.4 166.745 Z" fill="#000000" fill-rule="evenodd" fill-opacity="1" /><path clip-path="url(#clip280)" d="M2212.08 160.402 L2219.72 160.402 L2219.72 134.037 L2211.41 135.703 L2211.41 131.444 L2219.67 129.778 L2224.35 129.778 L2224.35 160.402 L2231.98 160.402 L2231.98 164.338 L2212.08 164.338 L2212.08 160.402 Z" fill="#000000" fill-rule="evenodd" fill-opacity="1" /><polyline clip-path="url(#clip280)" style="stroke:#e26f46; stroke-linecap:butt; stroke-linejoin:round; stroke-width:4; stroke-opacity:1; fill:none" points="
  2010.47,198.898 2155.4,198.898 
  "/>
<path clip-path="url(#clip280)" d="M2193.4 218.585 Q2191.59 223.215 2189.88 224.627 Q2188.17 226.039 2185.29 226.039 L2181.89 226.039 L2181.89 222.474 L2184.39 222.474 Q2186.15 222.474 2187.12 221.64 Q2188.1 220.807 2189.28 217.705 L2190.04 215.761 L2179.55 190.252 L2184.07 190.252 L2192.17 210.529 L2200.27 190.252 L2204.79 190.252 L2193.4 218.585 Z" fill="#000000" fill-rule="evenodd" fill-opacity="1" /><path clip-path="url(#clip280)" d="M2215.29 212.242 L2231.61 212.242 L2231.61 216.178 L2209.67 216.178 L2209.67 212.242 Q2212.33 209.488 2216.91 204.858 Q2221.52 200.205 2222.7 198.863 Q2224.95 196.34 2225.83 194.604 Q2226.73 192.844 2226.73 191.155 Q2226.73 188.4 2224.79 186.664 Q2222.86 184.928 2219.76 184.928 Q2217.56 184.928 2215.11 185.692 Q2212.68 186.455 2209.9 188.006 L2209.9 183.284 Q2212.73 182.15 2215.18 181.571 Q2217.63 180.993 2219.67 180.993 Q2225.04 180.993 2228.23 183.678 Q2231.43 186.363 2231.43 190.854 Q2231.43 192.983 2230.62 194.905 Q2229.83 196.803 2227.73 199.395 Q2227.15 200.067 2224.04 203.284 Q2220.94 206.479 2215.29 212.242 Z" fill="#000000" fill-rule="evenodd" fill-opacity="1" /></svg>
