<?xml version="1.0" encoding="utf-8"?>
<svg xmlns="http://www.w3.org/2000/svg" xmlns:xlink="http://www.w3.org/1999/xlink" width="600" height="400" viewBox="0 0 2400 1600">
<defs>
  <clipPath id="clip370">
    <rect x="0" y="0" width="2400" height="1600"/>
  </clipPath>
</defs>
<path clip-path="url(#clip370)" d="
M0 1600 L2400 1600 L2400 0 L0 0  Z
  " fill="#ffffff" fill-rule="evenodd" fill-opacity="1"/>
<defs>
  <clipPath id="clip371">
    <rect x="480" y="0" width="1681" height="1600"/>
  </clipPath>
</defs>
<path clip-path="url(#clip370)" d="
M147.478 1486.45 L2352.76 1486.45 L2352.76 47.2441 L147.478 47.2441  Z
  " fill="#ffffff" fill-rule="evenodd" fill-opacity="1"/>
<defs>
  <clipPath id="clip372">
    <rect x="147" y="47" width="2206" height="1440"/>
  </clipPath>
</defs>
<polyline clip-path="url(#clip372)" style="stroke:#000000; stroke-linecap:butt; stroke-linejoin:round; stroke-width:2; stroke-opacity:0.1; fill:none" points="
  147.478,1486.45 147.478,47.2441 
  "/>
<polyline clip-path="url(#clip372)" style="stroke:#000000; stroke-linecap:butt; stroke-linejoin:round; stroke-width:2; stroke-opacity:0.1; fill:none" points="
  698.797,1486.45 698.797,47.2441 
  "/>
<polyline clip-path="url(#clip372)" style="stroke:#000000; stroke-linecap:butt; stroke-linejoin:round; stroke-width:2; stroke-opacity:0.1; fill:none" points="
  1250.12,1486.45 1250.12,47.2441 
  "/>
<polyline clip-path="url(#clip372)" style="stroke:#000000; stroke-linecap:butt; stroke-linejoin:round; stroke-width:2; stroke-opacity:0.1; fill:none" points="
  1801.44,1486.45 1801.44,47.2441 
  "/>
<polyline clip-path="url(#clip372)" style="stroke:#000000; stroke-linecap:butt; stroke-linejoin:round; stroke-width:2; stroke-opacity:0.1; fill:none" points="
  2352.76,1486.45 2352.76,47.2441 
  "/>
<polyline clip-path="url(#clip370)" style="stroke:#000000; stroke-linecap:butt; stroke-linejoin:round; stroke-width:4; stroke-opacity:1; fill:none" points="
  147.478,1486.45 2352.76,1486.45 
  "/>
<polyline clip-path="url(#clip370)" style="stroke:#000000; stroke-linecap:butt; stroke-linejoin:round; stroke-width:4; stroke-opacity:1; fill:none" points="
  147.478,1486.45 147.478,1467.55 
  "/>
<polyline clip-path="url(#clip370)" style="stroke:#000000; stroke-linecap:butt; stroke-linejoin:round; stroke-width:4; stroke-opacity:1; fill:none" points="
  698.797,1486.45 698.797,1467.55 
  "/>
<polyline clip-path="url(#clip370)" style="stroke:#000000; stroke-linecap:butt; stroke-linejoin:round; stroke-width:4; stroke-opacity:1; fill:none" points="
  1250.12,1486.45 1250.12,1467.55 
  "/>
<polyline clip-path="url(#clip370)" style="stroke:#000000; stroke-linecap:butt; stroke-linejoin:round; stroke-width:4; stroke-opacity:1; fill:none" points="
  1801.44,1486.45 1801.44,1467.55 
  "/>
<polyline clip-path="url(#clip370)" style="stroke:#000000; stroke-linecap:butt; stroke-linejoin:round; stroke-width:4; stroke-opacity:1; fill:none" points="
  2352.76,1486.45 2352.76,1467.55 
  "/>
<path clip-path="url(#clip370)" d="M124.862 1517.37 Q121.251 1517.37 119.423 1520.93 Q117.617 1524.47 117.617 1531.6 Q117.617 1538.71 119.423 1542.27 Q121.251 1545.82 124.862 1545.82 Q128.497 1545.82 130.302 1542.27 Q132.131 1538.71 132.131 1531.6 Q132.131 1524.47 130.302 1520.93 Q128.497 1517.37 124.862 1517.37 M124.862 1513.66 Q130.672 1513.66 133.728 1518.27 Q136.807 1522.85 136.807 1531.6 Q136.807 1540.33 133.728 1544.94 Q130.672 1549.52 124.862 1549.52 Q119.052 1549.52 115.973 1544.94 Q112.918 1540.33 112.918 1531.6 Q112.918 1522.85 115.973 1518.27 Q119.052 1513.66 124.862 1513.66 Z" fill="#000000" fill-rule="evenodd" fill-opacity="1" /><path clip-path="url(#clip370)" d="M145.024 1542.97 L149.908 1542.97 L149.908 1548.85 L145.024 1548.85 L145.024 1542.97 Z" fill="#000000" fill-rule="evenodd" fill-opacity="1" /><path clip-path="url(#clip370)" d="M170.094 1517.37 Q166.482 1517.37 164.654 1520.93 Q162.848 1524.47 162.848 1531.6 Q162.848 1538.71 164.654 1542.27 Q166.482 1545.82 170.094 1545.82 Q173.728 1545.82 175.533 1542.27 Q177.362 1538.71 177.362 1531.6 Q177.362 1524.47 175.533 1520.93 Q173.728 1517.37 170.094 1517.37 M170.094 1513.66 Q175.904 1513.66 178.959 1518.27 Q182.038 1522.85 182.038 1531.6 Q182.038 1540.33 178.959 1544.94 Q175.904 1549.52 170.094 1549.52 Q164.283 1549.52 161.205 1544.94 Q158.149 1540.33 158.149 1531.6 Q158.149 1522.85 161.205 1518.27 Q164.283 1513.66 170.094 1513.66 Z" fill="#000000" fill-rule="evenodd" fill-opacity="1" /><path clip-path="url(#clip370)" d="M676.679 1517.37 Q673.068 1517.37 671.24 1520.93 Q669.434 1524.47 669.434 1531.6 Q669.434 1538.71 671.24 1542.27 Q673.068 1545.82 676.679 1545.82 Q680.314 1545.82 682.119 1542.27 Q683.948 1538.71 683.948 1531.6 Q683.948 1524.47 682.119 1520.93 Q680.314 1517.37 676.679 1517.37 M676.679 1513.66 Q682.49 1513.66 685.545 1518.27 Q688.624 1522.85 688.624 1531.6 Q688.624 1540.33 685.545 1544.94 Q682.49 1549.52 676.679 1549.52 Q670.869 1549.52 667.791 1544.94 Q664.735 1540.33 664.735 1531.6 Q664.735 1522.85 667.791 1518.27 Q670.869 1513.66 676.679 1513.66 Z" fill="#000000" fill-rule="evenodd" fill-opacity="1" /><path clip-path="url(#clip370)" d="M696.841 1542.97 L701.726 1542.97 L701.726 1548.85 L696.841 1548.85 L696.841 1542.97 Z" fill="#000000" fill-rule="evenodd" fill-opacity="1" /><path clip-path="url(#clip370)" d="M711.957 1514.29 L730.313 1514.29 L730.313 1518.22 L716.239 1518.22 L716.239 1526.7 Q717.258 1526.35 718.276 1526.19 Q719.295 1526 720.313 1526 Q726.101 1526 729.48 1529.17 Q732.86 1532.34 732.86 1537.76 Q732.86 1543.34 729.388 1546.44 Q725.915 1549.52 719.596 1549.52 Q717.42 1549.52 715.151 1549.15 Q712.906 1548.78 710.499 1548.04 L710.499 1543.34 Q712.582 1544.47 714.804 1545.03 Q717.026 1545.58 719.503 1545.58 Q723.508 1545.58 725.846 1543.48 Q728.184 1541.37 728.184 1537.76 Q728.184 1534.15 725.846 1532.04 Q723.508 1529.94 719.503 1529.94 Q717.628 1529.94 715.753 1530.35 Q713.901 1530.77 711.957 1531.65 L711.957 1514.29 Z" fill="#000000" fill-rule="evenodd" fill-opacity="1" /><path clip-path="url(#clip370)" d="M1217.27 1544.91 L1224.91 1544.91 L1224.91 1518.55 L1216.6 1520.21 L1216.6 1515.95 L1224.86 1514.29 L1229.54 1514.29 L1229.54 1544.91 L1237.18 1544.91 L1237.18 1548.85 L1217.27 1548.85 L1217.27 1544.91 Z" fill="#000000" fill-rule="evenodd" fill-opacity="1" /><path clip-path="url(#clip370)" d="M1246.62 1542.97 L1251.51 1542.97 L1251.51 1548.85 L1246.62 1548.85 L1246.62 1542.97 Z" fill="#000000" fill-rule="evenodd" fill-opacity="1" /><path clip-path="url(#clip370)" d="M1271.69 1517.37 Q1268.08 1517.37 1266.25 1520.93 Q1264.45 1524.47 1264.45 1531.6 Q1264.45 1538.71 1266.25 1542.27 Q1268.08 1545.82 1271.69 1545.82 Q1275.33 1545.82 1277.13 1542.27 Q1278.96 1538.71 1278.96 1531.6 Q1278.96 1524.47 1277.13 1520.93 Q1275.33 1517.37 1271.69 1517.37 M1271.69 1513.66 Q1277.5 1513.66 1280.56 1518.27 Q1283.64 1522.85 1283.64 1531.6 Q1283.64 1540.33 1280.56 1544.94 Q1277.5 1549.52 1271.69 1549.52 Q1265.88 1549.52 1262.8 1544.94 Q1259.75 1540.33 1259.75 1531.6 Q1259.75 1522.85 1262.8 1518.27 Q1265.88 1513.66 1271.69 1513.66 Z" fill="#000000" fill-rule="evenodd" fill-opacity="1" /><path clip-path="url(#clip370)" d="M1769.09 1544.91 L1776.73 1544.91 L1776.73 1518.55 L1768.42 1520.21 L1768.42 1515.95 L1776.68 1514.29 L1781.36 1514.29 L1781.36 1544.91 L1788.99 1544.91 L1788.99 1548.85 L1769.09 1548.85 L1769.09 1544.91 Z" fill="#000000" fill-rule="evenodd" fill-opacity="1" /><path clip-path="url(#clip370)" d="M1798.44 1542.97 L1803.32 1542.97 L1803.32 1548.85 L1798.44 1548.85 L1798.44 1542.97 Z" fill="#000000" fill-rule="evenodd" fill-opacity="1" /><path clip-path="url(#clip370)" d="M1813.55 1514.29 L1831.91 1514.29 L1831.91 1518.22 L1817.84 1518.22 L1817.84 1526.7 Q1818.86 1526.35 1819.87 1526.19 Q1820.89 1526 1821.91 1526 Q1827.7 1526 1831.08 1529.17 Q1834.46 1532.34 1834.46 1537.76 Q1834.46 1543.34 1830.98 1546.44 Q1827.51 1549.52 1821.19 1549.52 Q1819.02 1549.52 1816.75 1549.15 Q1814.5 1548.78 1812.1 1548.04 L1812.1 1543.34 Q1814.18 1544.47 1816.4 1545.03 Q1818.62 1545.58 1821.1 1545.58 Q1825.11 1545.58 1827.44 1543.48 Q1829.78 1541.37 1829.78 1537.76 Q1829.78 1534.15 1827.44 1532.04 Q1825.11 1529.94 1821.1 1529.94 Q1819.23 1529.94 1817.35 1530.35 Q1815.5 1530.77 1813.55 1531.65 L1813.55 1514.29 Z" fill="#000000" fill-rule="evenodd" fill-opacity="1" /><path clip-path="url(#clip370)" d="M2323.99 1544.91 L2340.31 1544.91 L2340.31 1548.85 L2318.37 1548.85 L2318.37 1544.91 Q2321.03 1542.16 2325.61 1537.53 Q2330.22 1532.88 2331.4 1531.53 Q2333.65 1529.01 2334.53 1527.27 Q2335.43 1525.51 2335.43 1523.82 Q2335.43 1521.07 2333.49 1519.33 Q2331.56 1517.6 2328.46 1517.6 Q2326.26 1517.6 2323.81 1518.36 Q2321.38 1519.13 2318.6 1520.68 L2318.6 1515.95 Q2321.43 1514.82 2323.88 1514.24 Q2326.33 1513.66 2328.37 1513.66 Q2333.74 1513.66 2336.93 1516.35 Q2340.13 1519.03 2340.13 1523.52 Q2340.13 1525.65 2339.32 1527.57 Q2338.53 1529.47 2336.42 1532.07 Q2335.85 1532.74 2332.74 1535.95 Q2329.64 1539.15 2323.99 1544.91 Z" fill="#000000" fill-rule="evenodd" fill-opacity="1" /><path clip-path="url(#clip370)" d="M2350.13 1542.97 L2355.01 1542.97 L2355.01 1548.85 L2350.13 1548.85 L2350.13 1542.97 Z" fill="#000000" fill-rule="evenodd" fill-opacity="1" /><path clip-path="url(#clip370)" d="M2375.2 1517.37 Q2371.59 1517.37 2369.76 1520.93 Q2367.95 1524.47 2367.95 1531.6 Q2367.95 1538.71 2369.76 1542.27 Q2371.59 1545.82 2375.2 1545.82 Q2378.83 1545.82 2380.64 1542.27 Q2382.47 1538.71 2382.47 1531.6 Q2382.47 1524.47 2380.64 1520.93 Q2378.83 1517.37 2375.2 1517.37 M2375.2 1513.66 Q2381.01 1513.66 2384.06 1518.27 Q2387.14 1522.85 2387.14 1531.6 Q2387.14 1540.33 2384.06 1544.94 Q2381.01 1549.52 2375.2 1549.52 Q2369.39 1549.52 2366.31 1544.94 Q2363.25 1540.33 2363.25 1531.6 Q2363.25 1522.85 2366.31 1518.27 Q2369.39 1513.66 2375.2 1513.66 Z" fill="#000000" fill-rule="evenodd" fill-opacity="1" /><polyline clip-path="url(#clip372)" style="stroke:#000000; stroke-linecap:butt; stroke-linejoin:round; stroke-width:2; stroke-opacity:0.1; fill:none" points="
  147.478,1486.45 2352.76,1486.45 
  "/>
<polyline clip-path="url(#clip372)" style="stroke:#000000; stroke-linecap:butt; stroke-linejoin:round; stroke-width:2; stroke-opacity:0.1; fill:none" points="
  147.478,1126.65 2352.76,1126.65 
  "/>
<polyline clip-path="url(#clip372)" style="stroke:#000000; stroke-linecap:butt; stroke-linejoin:round; stroke-width:2; stroke-opacity:0.1; fill:none" points="
  147.478,766.846 2352.76,766.846 
  "/>
<polyline clip-path="url(#clip372)" style="stroke:#000000; stroke-linecap:butt; stroke-linejoin:round; stroke-width:2; stroke-opacity:0.1; fill:none" points="
  147.478,407.045 2352.76,407.045 
  "/>
<polyline clip-path="url(#clip372)" style="stroke:#000000; stroke-linecap:butt; stroke-linejoin:round; stroke-width:2; stroke-opacity:0.1; fill:none" points="
  147.478,47.2441 2352.76,47.2441 
  "/>
<polyline clip-path="url(#clip370)" style="stroke:#000000; stroke-linecap:butt; stroke-linejoin:round; stroke-width:4; stroke-opacity:1; fill:none" points="
  147.478,1486.45 147.478,47.2441 
  "/>
<polyline clip-path="url(#clip370)" style="stroke:#000000; stroke-linecap:butt; stroke-linejoin:round; stroke-width:4; stroke-opacity:1; fill:none" points="
  147.478,1486.45 166.376,1486.45 
  "/>
<polyline clip-path="url(#clip370)" style="stroke:#000000; stroke-linecap:butt; stroke-linejoin:round; stroke-width:4; stroke-opacity:1; fill:none" points="
  147.478,1126.65 166.376,1126.65 
  "/>
<polyline clip-path="url(#clip370)" style="stroke:#000000; stroke-linecap:butt; stroke-linejoin:round; stroke-width:4; stroke-opacity:1; fill:none" points="
  147.478,766.846 166.376,766.846 
  "/>
<polyline clip-path="url(#clip370)" style="stroke:#000000; stroke-linecap:butt; stroke-linejoin:round; stroke-width:4; stroke-opacity:1; fill:none" points="
  147.478,407.045 166.376,407.045 
  "/>
<polyline clip-path="url(#clip370)" style="stroke:#000000; stroke-linecap:butt; stroke-linejoin:round; stroke-width:4; stroke-opacity:1; fill:none" points="
  147.478,47.2441 166.376,47.2441 
  "/>
<path clip-path="url(#clip370)" d="M51.3625 1486.9 L81.0383 1486.9 L81.0383 1490.83 L51.3625 1490.83 L51.3625 1486.9 Z" fill="#000000" fill-rule="evenodd" fill-opacity="1" /><path clip-path="url(#clip370)" d="M95.1586 1499.79 L111.478 1499.79 L111.478 1503.73 L89.5336 1503.73 L89.5336 1499.79 Q92.1956 1497.04 96.7789 1492.41 Q101.385 1487.76 102.566 1486.41 Q104.811 1483.89 105.691 1482.15 Q106.594 1480.39 106.594 1478.7 Q106.594 1475.95 104.649 1474.21 Q102.728 1472.48 99.6261 1472.48 Q97.4271 1472.48 94.9734 1473.24 Q92.5428 1474.01 89.7651 1475.56 L89.7651 1470.83 Q92.5891 1469.7 95.0428 1469.12 Q97.4965 1468.54 99.5335 1468.54 Q104.904 1468.54 108.098 1471.23 Q111.293 1473.91 111.293 1478.4 Q111.293 1480.53 110.483 1482.45 Q109.696 1484.35 107.589 1486.95 Q107.01 1487.62 103.909 1490.83 Q100.807 1494.03 95.1586 1499.79 Z" fill="#000000" fill-rule="evenodd" fill-opacity="1" /><path clip-path="url(#clip370)" d="M50.9921 1127.1 L80.6679 1127.1 L80.6679 1131.03 L50.9921 1131.03 L50.9921 1127.1 Z" fill="#000000" fill-rule="evenodd" fill-opacity="1" /><path clip-path="url(#clip370)" d="M91.5706 1139.99 L99.2095 1139.99 L99.2095 1113.63 L90.8993 1115.29 L90.8993 1111.03 L99.1632 1109.37 L103.839 1109.37 L103.839 1139.99 L111.478 1139.99 L111.478 1143.93 L91.5706 1143.93 L91.5706 1139.99 Z" fill="#000000" fill-rule="evenodd" fill-opacity="1" /><path clip-path="url(#clip370)" d="M99.5335 752.645 Q95.9224 752.645 94.0937 756.209 Q92.2882 759.751 92.2882 766.881 Q92.2882 773.987 94.0937 777.552 Q95.9224 781.094 99.5335 781.094 Q103.168 781.094 104.973 777.552 Q106.802 773.987 106.802 766.881 Q106.802 759.751 104.973 756.209 Q103.168 752.645 99.5335 752.645 M99.5335 748.941 Q105.344 748.941 108.399 753.547 Q111.478 758.131 111.478 766.881 Q111.478 775.608 108.399 780.214 Q105.344 784.797 99.5335 784.797 Q93.7234 784.797 90.6447 780.214 Q87.5892 775.608 87.5892 766.881 Q87.5892 758.131 90.6447 753.547 Q93.7234 748.941 99.5335 748.941 Z" fill="#000000" fill-rule="evenodd" fill-opacity="1" /><path clip-path="url(#clip370)" d="M91.5706 420.39 L99.2095 420.39 L99.2095 394.024 L90.8993 395.691 L90.8993 391.432 L99.1632 389.765 L103.839 389.765 L103.839 420.39 L111.478 420.39 L111.478 424.325 L91.5706 424.325 L91.5706 420.39 Z" fill="#000000" fill-rule="evenodd" fill-opacity="1" /><path clip-path="url(#clip370)" d="M95.1586 60.5889 L111.478 60.5889 L111.478 64.5241 L89.5336 64.5241 L89.5336 60.5889 Q92.1956 57.8343 96.7789 53.2047 Q101.385 48.552 102.566 47.2094 Q104.811 44.6862 105.691 42.9501 Q106.594 41.1909 106.594 39.5011 Q106.594 36.7465 104.649 35.0104 Q102.728 33.2743 99.6261 33.2743 Q97.4271 33.2743 94.9734 34.0381 Q92.5428 34.802 89.7651 36.3529 L89.7651 31.6308 Q92.5891 30.4965 95.0428 29.9178 Q97.4965 29.3391 99.5335 29.3391 Q104.904 29.3391 108.098 32.0243 Q111.293 34.7094 111.293 39.2002 Q111.293 41.3298 110.483 43.2511 Q109.696 45.1492 107.589 47.7418 Q107.01 48.4131 103.909 51.6306 Q100.807 54.8251 95.1586 60.5889 Z" fill="#000000" fill-rule="evenodd" fill-opacity="1" /><polyline clip-path="url(#clip372)" style="stroke:#009af9; stroke-linecap:butt; stroke-linejoin:round; stroke-width:16; stroke-opacity:1; fill:none" points="
  147.478,766.846 152.862,741.704 158.246,731.29 163.63,723.299 169.014,716.562 193.906,693.015 218.798,675.34 243.69,660.564 268.582,647.605 318.365,625.201 
  368.149,605.886 427.985,585.371 487.82,566.95 538.411,552.608 589.001,539.167 698.912,512.402 800.24,490.01 908.874,467.86 1034.74,444.092 1146.59,424.352 
  1244.68,407.934 1351.61,390.85 1459.19,374.414 1578.12,357.008 1691.29,341.108 1808.96,325.181 1908.01,312.207 2028.93,296.852 2142.61,282.861 2324.73,261.254 
  2352.76,258.011 
  "/>
<polyline clip-path="url(#clip372)" style="stroke:#e26f46; stroke-linecap:butt; stroke-linejoin:round; stroke-width:16; stroke-opacity:1; fill:none" points="
  147.646,3928.69 147.814,3679.29 147.983,3533.4 148.151,3429.9 148.319,3349.61 148.487,3284.01 148.656,3228.55 148.824,3180.5 149.16,3100.21 149.497,3034.61 
  149.833,2979.15 150.17,2931.11 150.843,2850.82 151.516,2785.22 152.189,2729.76 152.862,2681.71 154.208,2601.42 155.554,2535.82 156.9,2480.36 158.246,2432.32 
  160.938,2352.03 163.63,2286.43 166.322,2230.97 169.014,2182.92 175.237,2091.59 181.46,2018.82 187.683,1958.31 193.906,1906.54 206.352,1821.08 218.798,1752.08 
  243.69,1644.37 268.582,1561.58 293.473,1494.32 318.365,1437.68 343.257,1388.75 368.149,1345.69 398.067,1299.94 427.985,1259.36 457.903,1222.9 487.82,1189.8 
  538.411,1139.93 589.001,1096.15 698.912,1016.17 800.24,955.471 908.874,900.083 1034.74,845.039 1146.59,802.32 1244.68,768.626 1351.61,735.163 1459.19,704.375 
  1578.12,673.147 1691.29,645.755 1808.96,619.327 1908.01,598.492 2028.93,574.59 2142.61,553.483 2324.73,522.053 2352.76,517.451 
  "/>
<polyline clip-path="url(#clip372)" style="stroke:#3da44d; stroke-linecap:butt; stroke-linejoin:round; stroke-width:16; stroke-opacity:1; fill:none" points="
  147.646,-13796.7 147.814,-9531.16 147.983,-7641.44 148.151,-6514.94 148.319,-5746.18 148.487,-5178.71 148.656,-4737.67 148.824,-4382.15 148.992,-4087.68 149.16,-3838.56 
  149.329,-3624.24 149.497,-3437.3 149.833,-3125.43 150.17,-2874.05 150.506,-2665.82 150.843,-2489.67 151.179,-2338.12 151.516,-2205.93 152.189,-1985.41 152.862,-1807.65 
  153.535,-1660.42 154.208,-1535.86 154.881,-1428.7 155.554,-1335.22 156.9,-1179.29 158.246,-1053.6 159.592,-949.488 160.938,-861.411 162.284,-785.636 163.63,-719.543 
  164.976,-661.23 166.322,-609.282 167.668,-562.62 169.014,-520.404 175.237,-366.976 181.46,-257.916 187.683,-175.277 193.906,-109.869 206.352,-11.7047 218.798,59.4814 
  243.69,157.822 268.582,224.008 293.473,272.445 318.365,309.869 343.257,339.907 368.149,364.707 427.985,410.167 487.82,443.036 538.411,464.713 589.001,482.549 
  698.912,512.455 800.24,533.031 908.874,550.353 1034.74,566.296 1146.59,577.855 1244.68,586.5 1351.61,594.694 1459.19,601.904 1578.12,608.909 1691.29,614.808 
  1808.96,620.291 1908.01,624.473 2028.93,629.124 2142.61,633.105 2324.73,638.821 2352.76,639.637 
  "/>
<path clip-path="url(#clip370)" d="
M1954.7 406.258 L2279.25 406.258 L2279.25 95.2176 L1954.7 95.2176  Z
  " fill="#ffffff" fill-rule="evenodd" fill-opacity="1"/>
<polyline clip-path="url(#clip370)" style="stroke:#000000; stroke-linecap:butt; stroke-linejoin:round; stroke-width:4; stroke-opacity:1; fill:none" points="
  1954.7,406.258 2279.25,406.258 2279.25,95.2176 1954.7,95.2176 1954.7,406.258 
  "/>
<polyline clip-path="url(#clip370)" style="stroke:#009af9; stroke-linecap:butt; stroke-linejoin:round; stroke-width:6; stroke-opacity:1; fill:none" points="
  1979.21,172.978 2126.22,172.978 
  "/>
<path clip-path="url(#clip370)" d="M2171.49 202.509 Q2168.78 209.453 2166.21 211.571 Q2163.64 213.689 2159.34 213.689 L2154.23 213.689 L2154.23 208.342 L2157.98 208.342 Q2160.62 208.342 2162.08 207.092 Q2163.54 205.842 2165.31 201.189 L2166.46 198.273 L2150.73 160.009 L2157.5 160.009 L2169.65 190.425 L2181.8 160.009 L2188.57 160.009 L2171.49 202.509 Z" fill="#000000" fill-rule="evenodd" fill-opacity="1" /><path clip-path="url(#clip370)" d="M2199.51 192.995 L2210.97 192.995 L2210.97 153.446 L2198.5 155.946 L2198.5 149.558 L2210.9 147.058 L2217.91 147.058 L2217.91 192.995 L2229.37 192.995 L2229.37 198.898 L2199.51 198.898 L2199.51 192.995 Z" fill="#000000" fill-rule="evenodd" fill-opacity="1" /><polyline clip-path="url(#clip370)" style="stroke:#e26f46; stroke-linecap:butt; stroke-linejoin:round; stroke-width:6; stroke-opacity:1; fill:none" points="
  1979.21,250.738 2126.22,250.738 
  "/>
<path clip-path="url(#clip370)" d="M2171.49 280.269 Q2168.78 287.213 2166.21 289.331 Q2163.64 291.449 2159.34 291.449 L2154.23 291.449 L2154.23 286.102 L2157.98 286.102 Q2160.62 286.102 2162.08 284.852 Q2163.54 283.602 2165.31 278.949 L2166.46 276.033 L2150.73 237.769 L2157.5 237.769 L2169.65 268.185 L2181.8 237.769 L2188.57 237.769 L2171.49 280.269 Z" fill="#000000" fill-rule="evenodd" fill-opacity="1" /><path clip-path="url(#clip370)" d="M2204.34 270.755 L2228.82 270.755 L2228.82 276.658 L2195.9 276.658 L2195.9 270.755 Q2199.89 266.623 2206.77 259.678 Q2213.68 252.699 2215.45 250.685 Q2218.82 246.901 2220.14 244.297 Q2221.49 241.658 2221.49 239.123 Q2221.49 234.991 2218.57 232.387 Q2215.69 229.783 2211.04 229.783 Q2207.74 229.783 2204.06 230.929 Q2200.41 232.074 2196.25 234.401 L2196.25 227.318 Q2200.48 225.616 2204.16 224.748 Q2207.84 223.88 2210.9 223.88 Q2218.96 223.88 2223.75 227.908 Q2228.54 231.936 2228.54 238.672 Q2228.54 241.866 2227.32 244.748 Q2226.14 247.595 2222.98 251.484 Q2222.12 252.491 2217.46 257.317 Q2212.81 262.109 2204.34 270.755 Z" fill="#000000" fill-rule="evenodd" fill-opacity="1" /><polyline clip-path="url(#clip370)" style="stroke:#3da44d; stroke-linecap:butt; stroke-linejoin:round; stroke-width:6; stroke-opacity:1; fill:none" points="
  1979.21,328.498 2126.22,328.498 
  "/>
<path clip-path="url(#clip370)" d="M2171.49 358.029 Q2168.78 364.973 2166.21 367.091 Q2163.64 369.209 2159.34 369.209 L2154.23 369.209 L2154.23 363.862 L2157.98 363.862 Q2160.62 363.862 2162.08 362.612 Q2163.54 361.362 2165.31 356.709 L2166.46 353.793 L2150.73 315.529 L2157.5 315.529 L2169.65 345.945 L2181.8 315.529 L2188.57 315.529 L2171.49 358.029 Z" fill="#000000" fill-rule="evenodd" fill-opacity="1" /><path clip-path="url(#clip370)" d="M2219.55 326.466 Q2224.58 327.543 2227.39 330.945 Q2230.24 334.348 2230.24 339.348 Q2230.24 347.022 2224.96 351.223 Q2219.68 355.424 2209.96 355.424 Q2206.7 355.424 2203.23 354.765 Q2199.79 354.14 2196.11 352.855 L2196.11 346.084 Q2199.03 347.786 2202.5 348.654 Q2205.97 349.522 2209.75 349.522 Q2216.35 349.522 2219.79 346.918 Q2223.26 344.313 2223.26 339.348 Q2223.26 334.765 2220.03 332.195 Q2216.84 329.591 2211.11 329.591 L2205.07 329.591 L2205.07 323.827 L2211.39 323.827 Q2216.56 323.827 2219.3 321.779 Q2222.05 319.696 2222.05 315.807 Q2222.05 311.814 2219.2 309.696 Q2216.39 307.543 2211.11 307.543 Q2208.23 307.543 2204.93 308.168 Q2201.63 308.793 2197.67 310.112 L2197.67 303.862 Q2201.66 302.751 2205.14 302.196 Q2208.64 301.64 2211.73 301.64 Q2219.72 301.64 2224.37 305.286 Q2229.03 308.897 2229.03 315.077 Q2229.03 319.383 2226.56 322.369 Q2224.09 325.32 2219.55 326.466 Z" fill="#000000" fill-rule="evenodd" fill-opacity="1" /></svg>
