<?xml version="1.0" encoding="utf-8"?>
<svg xmlns="http://www.w3.org/2000/svg" xmlns:xlink="http://www.w3.org/1999/xlink" width="800" height="500" viewBox="0 0 3200 2000">
<defs>
  <clipPath id="clip340">
    <rect x="0" y="0" width="3200" height="2000"/>
  </clipPath>
</defs>
<path clip-path="url(#clip340)" d="
M0 2000 L3200 2000 L3200 0 L0 0  Z
  " fill="#ffffff" fill-rule="evenodd" fill-opacity="1"/>
<defs>
  <clipPath id="clip341">
    <rect x="640" y="0" width="2241" height="2000"/>
  </clipPath>
</defs>
<path clip-path="url(#clip340)" d="
M201.936 1884.61 L3152.76 1884.61 L3152.76 47.2441 L201.936 47.2441  Z
  " fill="#ffffff" fill-rule="evenodd" fill-opacity="1"/>
<defs>
  <clipPath id="clip342">
    <rect x="201" y="47" width="2952" height="1838"/>
  </clipPath>
</defs>
<polyline clip-path="url(#clip342)" style="stroke:#000000; stroke-linecap:butt; stroke-linejoin:round; stroke-width:2; stroke-opacity:0.1; fill:none" points="
  285.45,1884.61 285.45,47.2441 
  "/>
<polyline clip-path="url(#clip342)" style="stroke:#000000; stroke-linecap:butt; stroke-linejoin:round; stroke-width:2; stroke-opacity:0.1; fill:none" points="
  842.208,1884.61 842.208,47.2441 
  "/>
<polyline clip-path="url(#clip342)" style="stroke:#000000; stroke-linecap:butt; stroke-linejoin:round; stroke-width:2; stroke-opacity:0.1; fill:none" points="
  1398.97,1884.61 1398.97,47.2441 
  "/>
<polyline clip-path="url(#clip342)" style="stroke:#000000; stroke-linecap:butt; stroke-linejoin:round; stroke-width:2; stroke-opacity:0.1; fill:none" points="
  1955.73,1884.61 1955.73,47.2441 
  "/>
<polyline clip-path="url(#clip342)" style="stroke:#000000; stroke-linecap:butt; stroke-linejoin:round; stroke-width:2; stroke-opacity:0.1; fill:none" points="
  2512.48,1884.61 2512.48,47.2441 
  "/>
<polyline clip-path="url(#clip342)" style="stroke:#000000; stroke-linecap:butt; stroke-linejoin:round; stroke-width:2; stroke-opacity:0.1; fill:none" points="
  3069.24,1884.61 3069.24,47.2441 
  "/>
<polyline clip-path="url(#clip340)" style="stroke:#000000; stroke-linecap:butt; stroke-linejoin:round; stroke-width:4; stroke-opacity:1; fill:none" points="
  201.936,1884.61 3152.76,1884.61 
  "/>
<polyline clip-path="url(#clip340)" style="stroke:#000000; stroke-linecap:butt; stroke-linejoin:round; stroke-width:4; stroke-opacity:1; fill:none" points="
  285.45,1884.61 285.45,1865.71 
  "/>
<polyline clip-path="url(#clip340)" style="stroke:#000000; stroke-linecap:butt; stroke-linejoin:round; stroke-width:4; stroke-opacity:1; fill:none" points="
  842.208,1884.61 842.208,1865.71 
  "/>
<polyline clip-path="url(#clip340)" style="stroke:#000000; stroke-linecap:butt; stroke-linejoin:round; stroke-width:4; stroke-opacity:1; fill:none" points="
  1398.97,1884.61 1398.97,1865.71 
  "/>
<polyline clip-path="url(#clip340)" style="stroke:#000000; stroke-linecap:butt; stroke-linejoin:round; stroke-width:4; stroke-opacity:1; fill:none" points="
  1955.73,1884.61 1955.73,1865.71 
  "/>
<polyline clip-path="url(#clip340)" style="stroke:#000000; stroke-linecap:butt; stroke-linejoin:round; stroke-width:4; stroke-opacity:1; fill:none" points="
  2512.48,1884.61 2512.48,1865.71 
  "/>
<polyline clip-path="url(#clip340)" style="stroke:#000000; stroke-linecap:butt; stroke-linejoin:round; stroke-width:4; stroke-opacity:1; fill:none" points="
  3069.24,1884.61 3069.24,1865.71 
  "/>
<path clip-path="url(#clip340)" d="M285.45 1921.93 Q281.839 1921.93 280.01 1925.49 Q278.204 1929.03 278.204 1936.16 Q278.204 1943.27 280.01 1946.83 Q281.839 1950.38 285.45 1950.38 Q289.084 1950.38 290.89 1946.83 Q292.718 1943.27 292.718 1936.16 Q292.718 1929.03 290.89 1925.49 Q289.084 1921.93 285.45 1921.93 M285.45 1918.22 Q291.26 1918.22 294.315 1922.83 Q297.394 1927.41 297.394 1936.16 Q297.394 1944.89 294.315 1949.5 Q291.26 1954.08 285.45 1954.08 Q279.64 1954.08 276.561 1949.5 Q273.505 1944.89 273.505 1936.16 Q273.505 1927.41 276.561 1922.83 Q279.64 1918.22 285.45 1918.22 Z" fill="#000000" fill-rule="evenodd" fill-opacity="1" /><path clip-path="url(#clip340)" d="M816.896 1949.47 L824.535 1949.47 L824.535 1923.11 L816.225 1924.77 L816.225 1920.51 L824.488 1918.85 L829.164 1918.85 L829.164 1949.47 L836.803 1949.47 L836.803 1953.41 L816.896 1953.41 L816.896 1949.47 Z" fill="#000000" fill-rule="evenodd" fill-opacity="1" /><path clip-path="url(#clip340)" d="M856.248 1921.93 Q852.636 1921.93 850.808 1925.49 Q849.002 1929.03 849.002 1936.16 Q849.002 1943.27 850.808 1946.83 Q852.636 1950.38 856.248 1950.38 Q859.882 1950.38 861.687 1946.83 Q863.516 1943.27 863.516 1936.16 Q863.516 1929.03 861.687 1925.49 Q859.882 1921.93 856.248 1921.93 M856.248 1918.22 Q862.058 1918.22 865.113 1922.83 Q868.192 1927.41 868.192 1936.16 Q868.192 1944.89 865.113 1949.5 Q862.058 1954.08 856.248 1954.08 Q850.437 1954.08 847.359 1949.5 Q844.303 1944.89 844.303 1936.16 Q844.303 1927.41 847.359 1922.83 Q850.437 1918.22 856.248 1918.22 Z" fill="#000000" fill-rule="evenodd" fill-opacity="1" /><path clip-path="url(#clip340)" d="M1377.74 1949.47 L1394.06 1949.47 L1394.06 1953.41 L1372.12 1953.41 L1372.12 1949.47 Q1374.78 1946.72 1379.36 1942.09 Q1383.97 1937.44 1385.15 1936.09 Q1387.39 1933.57 1388.27 1931.83 Q1389.18 1930.07 1389.18 1928.38 Q1389.18 1925.63 1387.23 1923.89 Q1385.31 1922.16 1382.21 1922.16 Q1380.01 1922.16 1377.55 1922.92 Q1375.12 1923.69 1372.35 1925.24 L1372.35 1920.51 Q1375.17 1919.38 1377.62 1918.8 Q1380.08 1918.22 1382.11 1918.22 Q1387.49 1918.22 1390.68 1920.91 Q1393.87 1923.59 1393.87 1928.08 Q1393.87 1930.21 1393.06 1932.13 Q1392.28 1934.03 1390.17 1936.63 Q1389.59 1937.3 1386.49 1940.51 Q1383.39 1943.71 1377.74 1949.47 Z" fill="#000000" fill-rule="evenodd" fill-opacity="1" /><path clip-path="url(#clip340)" d="M1413.87 1921.93 Q1410.26 1921.93 1408.43 1925.49 Q1406.63 1929.03 1406.63 1936.16 Q1406.63 1943.27 1408.43 1946.83 Q1410.26 1950.38 1413.87 1950.38 Q1417.51 1950.38 1419.31 1946.83 Q1421.14 1943.27 1421.14 1936.16 Q1421.14 1929.03 1419.31 1925.49 Q1417.51 1921.93 1413.87 1921.93 M1413.87 1918.22 Q1419.68 1918.22 1422.74 1922.83 Q1425.82 1927.41 1425.82 1936.16 Q1425.82 1944.89 1422.74 1949.5 Q1419.68 1954.08 1413.87 1954.08 Q1408.06 1954.08 1404.99 1949.5 Q1401.93 1944.89 1401.93 1936.16 Q1401.93 1927.41 1404.99 1922.83 Q1408.06 1918.22 1413.87 1918.22 Z" fill="#000000" fill-rule="evenodd" fill-opacity="1" /><path clip-path="url(#clip340)" d="M1944.57 1934.77 Q1947.92 1935.49 1949.8 1937.76 Q1951.7 1940.03 1951.7 1943.36 Q1951.7 1948.48 1948.18 1951.28 Q1944.66 1954.08 1938.18 1954.08 Q1936 1954.08 1933.69 1953.64 Q1931.4 1953.22 1928.94 1952.37 L1928.94 1947.85 Q1930.89 1948.99 1933.2 1949.57 Q1935.52 1950.14 1938.04 1950.14 Q1942.44 1950.14 1944.73 1948.41 Q1947.04 1946.67 1947.04 1943.36 Q1947.04 1940.31 1944.89 1938.59 Q1942.76 1936.86 1938.94 1936.86 L1934.92 1936.86 L1934.92 1933.01 L1939.13 1933.01 Q1942.58 1933.01 1944.41 1931.65 Q1946.23 1930.26 1946.23 1927.67 Q1946.23 1925.01 1944.34 1923.59 Q1942.46 1922.16 1938.94 1922.16 Q1937.02 1922.16 1934.82 1922.57 Q1932.62 1922.99 1929.98 1923.87 L1929.98 1919.7 Q1932.65 1918.96 1934.96 1918.59 Q1937.3 1918.22 1939.36 1918.22 Q1944.68 1918.22 1947.79 1920.65 Q1950.89 1923.06 1950.89 1927.18 Q1950.89 1930.05 1949.24 1932.04 Q1947.6 1934.01 1944.57 1934.77 Z" fill="#000000" fill-rule="evenodd" fill-opacity="1" /><path clip-path="url(#clip340)" d="M1970.56 1921.93 Q1966.95 1921.93 1965.12 1925.49 Q1963.32 1929.03 1963.32 1936.16 Q1963.32 1943.27 1965.12 1946.83 Q1966.95 1950.38 1970.56 1950.38 Q1974.2 1950.38 1976 1946.83 Q1977.83 1943.27 1977.83 1936.16 Q1977.83 1929.03 1976 1925.49 Q1974.2 1921.93 1970.56 1921.93 M1970.56 1918.22 Q1976.37 1918.22 1979.43 1922.83 Q1982.51 1927.41 1982.51 1936.16 Q1982.51 1944.89 1979.43 1949.5 Q1976.37 1954.08 1970.56 1954.08 Q1964.75 1954.08 1961.67 1949.5 Q1958.62 1944.89 1958.62 1936.16 Q1958.62 1927.41 1961.67 1922.83 Q1964.75 1918.22 1970.56 1918.22 Z" fill="#000000" fill-rule="evenodd" fill-opacity="1" /><path clip-path="url(#clip340)" d="M2500.66 1922.92 L2488.85 1941.37 L2500.66 1941.37 L2500.66 1922.92 M2499.43 1918.85 L2505.31 1918.85 L2505.31 1941.37 L2510.24 1941.37 L2510.24 1945.26 L2505.31 1945.26 L2505.31 1953.41 L2500.66 1953.41 L2500.66 1945.26 L2485.05 1945.26 L2485.05 1940.75 L2499.43 1918.85 Z" fill="#000000" fill-rule="evenodd" fill-opacity="1" /><path clip-path="url(#clip340)" d="M2527.97 1921.93 Q2524.36 1921.93 2522.53 1925.49 Q2520.72 1929.03 2520.72 1936.16 Q2520.72 1943.27 2522.53 1946.83 Q2524.36 1950.38 2527.97 1950.38 Q2531.6 1950.38 2533.41 1946.83 Q2535.24 1943.27 2535.24 1936.16 Q2535.24 1929.03 2533.41 1925.49 Q2531.6 1921.93 2527.97 1921.93 M2527.97 1918.22 Q2533.78 1918.22 2536.84 1922.83 Q2539.91 1927.41 2539.91 1936.16 Q2539.91 1944.89 2536.84 1949.5 Q2533.78 1954.08 2527.97 1954.08 Q2522.16 1954.08 2519.08 1949.5 Q2516.03 1944.89 2516.03 1936.16 Q2516.03 1927.41 2519.08 1922.83 Q2522.16 1918.22 2527.97 1918.22 Z" fill="#000000" fill-rule="evenodd" fill-opacity="1" /><path clip-path="url(#clip340)" d="M3043.94 1918.85 L3062.3 1918.85 L3062.3 1922.78 L3048.22 1922.78 L3048.22 1931.26 Q3049.24 1930.91 3050.26 1930.75 Q3051.28 1930.56 3052.3 1930.56 Q3058.08 1930.56 3061.46 1933.73 Q3064.84 1936.9 3064.84 1942.32 Q3064.84 1947.9 3061.37 1951 Q3057.9 1954.08 3051.58 1954.08 Q3049.4 1954.08 3047.14 1953.71 Q3044.89 1953.34 3042.48 1952.6 L3042.48 1947.9 Q3044.57 1949.03 3046.79 1949.59 Q3049.01 1950.14 3051.49 1950.14 Q3055.49 1950.14 3057.83 1948.04 Q3060.17 1945.93 3060.17 1942.32 Q3060.17 1938.71 3057.83 1936.6 Q3055.49 1934.5 3051.49 1934.5 Q3049.61 1934.5 3047.74 1934.91 Q3045.89 1935.33 3043.94 1936.21 L3043.94 1918.85 Z" fill="#000000" fill-rule="evenodd" fill-opacity="1" /><path clip-path="url(#clip340)" d="M3084.06 1921.93 Q3080.45 1921.93 3078.62 1925.49 Q3076.81 1929.03 3076.81 1936.16 Q3076.81 1943.27 3078.62 1946.83 Q3080.45 1950.38 3084.06 1950.38 Q3087.69 1950.38 3089.5 1946.83 Q3091.33 1943.27 3091.33 1936.16 Q3091.33 1929.03 3089.5 1925.49 Q3087.69 1921.93 3084.06 1921.93 M3084.06 1918.22 Q3089.87 1918.22 3092.92 1922.83 Q3096 1927.41 3096 1936.16 Q3096 1944.89 3092.92 1949.5 Q3089.87 1954.08 3084.06 1954.08 Q3078.25 1954.08 3075.17 1949.5 Q3072.11 1944.89 3072.11 1936.16 Q3072.11 1927.41 3075.17 1922.83 Q3078.25 1918.22 3084.06 1918.22 Z" fill="#000000" fill-rule="evenodd" fill-opacity="1" /><polyline clip-path="url(#clip342)" style="stroke:#000000; stroke-linecap:butt; stroke-linejoin:round; stroke-width:2; stroke-opacity:0.1; fill:none" points="
  201.936,1832.64 3152.76,1832.64 
  "/>
<polyline clip-path="url(#clip342)" style="stroke:#000000; stroke-linecap:butt; stroke-linejoin:round; stroke-width:2; stroke-opacity:0.1; fill:none" points="
  201.936,1399.29 3152.76,1399.29 
  "/>
<polyline clip-path="url(#clip342)" style="stroke:#000000; stroke-linecap:butt; stroke-linejoin:round; stroke-width:2; stroke-opacity:0.1; fill:none" points="
  201.936,965.942 3152.76,965.942 
  "/>
<polyline clip-path="url(#clip342)" style="stroke:#000000; stroke-linecap:butt; stroke-linejoin:round; stroke-width:2; stroke-opacity:0.1; fill:none" points="
  201.936,532.594 3152.76,532.594 
  "/>
<polyline clip-path="url(#clip342)" style="stroke:#000000; stroke-linecap:butt; stroke-linejoin:round; stroke-width:2; stroke-opacity:0.1; fill:none" points="
  201.936,99.245 3152.76,99.245 
  "/>
<polyline clip-path="url(#clip340)" style="stroke:#000000; stroke-linecap:butt; stroke-linejoin:round; stroke-width:4; stroke-opacity:1; fill:none" points="
  201.936,1884.61 201.936,47.2441 
  "/>
<polyline clip-path="url(#clip340)" style="stroke:#000000; stroke-linecap:butt; stroke-linejoin:round; stroke-width:4; stroke-opacity:1; fill:none" points="
  201.936,1832.64 220.834,1832.64 
  "/>
<polyline clip-path="url(#clip340)" style="stroke:#000000; stroke-linecap:butt; stroke-linejoin:round; stroke-width:4; stroke-opacity:1; fill:none" points="
  201.936,1399.29 220.834,1399.29 
  "/>
<polyline clip-path="url(#clip340)" style="stroke:#000000; stroke-linecap:butt; stroke-linejoin:round; stroke-width:4; stroke-opacity:1; fill:none" points="
  201.936,965.942 220.834,965.942 
  "/>
<polyline clip-path="url(#clip340)" style="stroke:#000000; stroke-linecap:butt; stroke-linejoin:round; stroke-width:4; stroke-opacity:1; fill:none" points="
  201.936,532.594 220.834,532.594 
  "/>
<polyline clip-path="url(#clip340)" style="stroke:#000000; stroke-linecap:butt; stroke-linejoin:round; stroke-width:4; stroke-opacity:1; fill:none" points="
  201.936,99.245 220.834,99.245 
  "/>
<path clip-path="url(#clip340)" d="M46.9921 1833.09 L76.6679 1833.09 L76.6679 1837.03 L46.9921 1837.03 L46.9921 1833.09 Z" fill="#000000" fill-rule="evenodd" fill-opacity="1" /><path clip-path="url(#clip340)" d="M87.5706 1845.98 L95.2095 1845.98 L95.2095 1819.62 L86.8993 1821.29 L86.8993 1817.03 L95.1632 1815.36 L99.8391 1815.36 L99.8391 1845.98 L107.478 1845.98 L107.478 1849.92 L87.5706 1849.92 L87.5706 1845.98 Z" fill="#000000" fill-rule="evenodd" fill-opacity="1" /><path clip-path="url(#clip340)" d="M116.922 1844.04 L121.807 1844.04 L121.807 1849.92 L116.922 1849.92 L116.922 1844.04 Z" fill="#000000" fill-rule="evenodd" fill-opacity="1" /><path clip-path="url(#clip340)" d="M141.992 1818.44 Q138.381 1818.44 136.552 1822 Q134.746 1825.54 134.746 1832.67 Q134.746 1839.78 136.552 1843.35 Q138.381 1846.89 141.992 1846.89 Q145.626 1846.89 147.431 1843.35 Q149.26 1839.78 149.26 1832.67 Q149.26 1825.54 147.431 1822 Q145.626 1818.44 141.992 1818.44 M141.992 1814.73 Q147.802 1814.73 150.857 1819.34 Q153.936 1823.92 153.936 1832.67 Q153.936 1841.4 150.857 1846.01 Q147.802 1850.59 141.992 1850.59 Q136.181 1850.59 133.103 1846.01 Q130.047 1841.4 130.047 1832.67 Q130.047 1823.92 133.103 1819.34 Q136.181 1814.73 141.992 1814.73 Z" fill="#000000" fill-rule="evenodd" fill-opacity="1" /><path clip-path="url(#clip340)" d="M47.9875 1399.74 L77.6633 1399.74 L77.6633 1403.68 L47.9875 1403.68 L47.9875 1399.74 Z" fill="#000000" fill-rule="evenodd" fill-opacity="1" /><path clip-path="url(#clip340)" d="M97.7557 1385.09 Q94.1447 1385.09 92.316 1388.65 Q90.5104 1392.2 90.5104 1399.33 Q90.5104 1406.43 92.316 1410 Q94.1447 1413.54 97.7557 1413.54 Q101.39 1413.54 103.196 1410 Q105.024 1406.43 105.024 1399.33 Q105.024 1392.2 103.196 1388.65 Q101.39 1385.09 97.7557 1385.09 M97.7557 1381.39 Q103.566 1381.39 106.621 1385.99 Q109.7 1390.58 109.7 1399.33 Q109.7 1408.05 106.621 1412.66 Q103.566 1417.24 97.7557 1417.24 Q91.9456 1417.24 88.8669 1412.66 Q85.8114 1408.05 85.8114 1399.33 Q85.8114 1390.58 88.8669 1385.99 Q91.9456 1381.39 97.7557 1381.39 Z" fill="#000000" fill-rule="evenodd" fill-opacity="1" /><path clip-path="url(#clip340)" d="M117.918 1410.69 L122.802 1410.69 L122.802 1416.57 L117.918 1416.57 L117.918 1410.69 Z" fill="#000000" fill-rule="evenodd" fill-opacity="1" /><path clip-path="url(#clip340)" d="M133.033 1382.01 L151.39 1382.01 L151.39 1385.95 L137.316 1385.95 L137.316 1394.42 Q138.334 1394.07 139.353 1393.91 Q140.371 1393.72 141.39 1393.72 Q147.177 1393.72 150.556 1396.9 Q153.936 1400.07 153.936 1405.48 Q153.936 1411.06 150.464 1414.16 Q146.992 1417.24 140.672 1417.24 Q138.496 1417.24 136.228 1416.87 Q133.982 1416.5 131.575 1415.76 L131.575 1411.06 Q133.658 1412.2 135.881 1412.75 Q138.103 1413.31 140.58 1413.31 Q144.584 1413.31 146.922 1411.2 Q149.26 1409.09 149.26 1405.48 Q149.26 1401.87 146.922 1399.77 Q144.584 1397.66 140.58 1397.66 Q138.705 1397.66 136.83 1398.08 Q134.978 1398.49 133.033 1399.37 L133.033 1382.01 Z" fill="#000000" fill-rule="evenodd" fill-opacity="1" /><path clip-path="url(#clip340)" d="M96.7604 951.741 Q93.1493 951.741 91.3206 955.306 Q89.515 958.847 89.515 965.977 Q89.515 973.083 91.3206 976.648 Q93.1493 980.19 96.7604 980.19 Q100.395 980.19 102.2 976.648 Q104.029 973.083 104.029 965.977 Q104.029 958.847 102.2 955.306 Q100.395 951.741 96.7604 951.741 M96.7604 948.037 Q102.571 948.037 105.626 952.644 Q108.705 957.227 108.705 965.977 Q108.705 974.704 105.626 979.31 Q102.571 983.894 96.7604 983.894 Q90.9502 983.894 87.8715 979.31 Q84.816 974.704 84.816 965.977 Q84.816 957.227 87.8715 952.644 Q90.9502 948.037 96.7604 948.037 Z" fill="#000000" fill-rule="evenodd" fill-opacity="1" /><path clip-path="url(#clip340)" d="M116.922 977.343 L121.807 977.343 L121.807 983.222 L116.922 983.222 L116.922 977.343 Z" fill="#000000" fill-rule="evenodd" fill-opacity="1" /><path clip-path="url(#clip340)" d="M141.992 951.741 Q138.381 951.741 136.552 955.306 Q134.746 958.847 134.746 965.977 Q134.746 973.083 136.552 976.648 Q138.381 980.19 141.992 980.19 Q145.626 980.19 147.431 976.648 Q149.26 973.083 149.26 965.977 Q149.26 958.847 147.431 955.306 Q145.626 951.741 141.992 951.741 M141.992 948.037 Q147.802 948.037 150.857 952.644 Q153.936 957.227 153.936 965.977 Q153.936 974.704 150.857 979.31 Q147.802 983.894 141.992 983.894 Q136.181 983.894 133.103 979.31 Q130.047 974.704 130.047 965.977 Q130.047 957.227 133.103 952.644 Q136.181 948.037 141.992 948.037 Z" fill="#000000" fill-rule="evenodd" fill-opacity="1" /><path clip-path="url(#clip340)" d="M97.7557 518.392 Q94.1447 518.392 92.316 521.957 Q90.5104 525.499 90.5104 532.628 Q90.5104 539.735 92.316 543.3 Q94.1447 546.841 97.7557 546.841 Q101.39 546.841 103.196 543.3 Q105.024 539.735 105.024 532.628 Q105.024 525.499 103.196 521.957 Q101.39 518.392 97.7557 518.392 M97.7557 514.689 Q103.566 514.689 106.621 519.295 Q109.7 523.878 109.7 532.628 Q109.7 541.355 106.621 545.962 Q103.566 550.545 97.7557 550.545 Q91.9456 550.545 88.8669 545.962 Q85.8114 541.355 85.8114 532.628 Q85.8114 523.878 88.8669 519.295 Q91.9456 514.689 97.7557 514.689 Z" fill="#000000" fill-rule="evenodd" fill-opacity="1" /><path clip-path="url(#clip340)" d="M117.918 543.994 L122.802 543.994 L122.802 549.874 L117.918 549.874 L117.918 543.994 Z" fill="#000000" fill-rule="evenodd" fill-opacity="1" /><path clip-path="url(#clip340)" d="M133.033 515.314 L151.39 515.314 L151.39 519.249 L137.316 519.249 L137.316 527.721 Q138.334 527.374 139.353 527.212 Q140.371 527.027 141.39 527.027 Q147.177 527.027 150.556 530.198 Q153.936 533.369 153.936 538.786 Q153.936 544.364 150.464 547.466 Q146.992 550.545 140.672 550.545 Q138.496 550.545 136.228 550.175 Q133.982 549.804 131.575 549.063 L131.575 544.364 Q133.658 545.499 135.881 546.054 Q138.103 546.61 140.58 546.61 Q144.584 546.61 146.922 544.503 Q149.26 542.397 149.26 538.786 Q149.26 535.175 146.922 533.068 Q144.584 530.962 140.58 530.962 Q138.705 530.962 136.83 531.378 Q134.978 531.795 133.033 532.675 L133.033 515.314 Z" fill="#000000" fill-rule="evenodd" fill-opacity="1" /><path clip-path="url(#clip340)" d="M87.5706 112.59 L95.2095 112.59 L95.2095 86.2242 L86.8993 87.8909 L86.8993 83.6316 L95.1632 81.965 L99.8391 81.965 L99.8391 112.59 L107.478 112.59 L107.478 116.525 L87.5706 116.525 L87.5706 112.59 Z" fill="#000000" fill-rule="evenodd" fill-opacity="1" /><path clip-path="url(#clip340)" d="M116.922 110.645 L121.807 110.645 L121.807 116.525 L116.922 116.525 L116.922 110.645 Z" fill="#000000" fill-rule="evenodd" fill-opacity="1" /><path clip-path="url(#clip340)" d="M141.992 85.0436 Q138.381 85.0436 136.552 88.6084 Q134.746 92.1501 134.746 99.2797 Q134.746 106.386 136.552 109.951 Q138.381 113.493 141.992 113.493 Q145.626 113.493 147.431 109.951 Q149.26 106.386 149.26 99.2797 Q149.26 92.1501 147.431 88.6084 Q145.626 85.0436 141.992 85.0436 M141.992 81.34 Q147.802 81.34 150.857 85.9464 Q153.936 90.5297 153.936 99.2797 Q153.936 108.006 150.857 112.613 Q147.802 117.196 141.992 117.196 Q136.181 117.196 133.103 112.613 Q130.047 108.006 130.047 99.2797 Q130.047 90.5297 133.103 85.9464 Q136.181 81.34 141.992 81.34 Z" fill="#000000" fill-rule="evenodd" fill-opacity="1" /><circle clip-path="url(#clip342)" cx="285.45" cy="965.942" r="14" fill="#009af9" fill-rule="evenodd" fill-opacity="1" stroke="#000000" stroke-opacity="1" stroke-width="4"/>
<circle clip-path="url(#clip342)" cx="313.288" cy="550.65" r="14" fill="#009af9" fill-rule="evenodd" fill-opacity="1" stroke="#000000" stroke-opacity="1" stroke-width="4"/>
<circle clip-path="url(#clip342)" cx="341.126" cy="237.017" r="14" fill="#009af9" fill-rule="evenodd" fill-opacity="1" stroke="#000000" stroke-opacity="1" stroke-width="4"/>
<circle clip-path="url(#clip342)" cx="368.964" cy="101.733" r="14" fill="#009af9" fill-rule="evenodd" fill-opacity="1" stroke="#000000" stroke-opacity="1" stroke-width="4"/>
<circle clip-path="url(#clip342)" cx="396.801" cy="177.846" r="14" fill="#009af9" fill-rule="evenodd" fill-opacity="1" stroke="#000000" stroke-opacity="1" stroke-width="4"/>
<circle clip-path="url(#clip342)" cx="424.639" cy="446.697" r="14" fill="#009af9" fill-rule="evenodd" fill-opacity="1" stroke="#000000" stroke-opacity="1" stroke-width="4"/>
<circle clip-path="url(#clip342)" cx="452.477" cy="842.489" r="14" fill="#009af9" fill-rule="evenodd" fill-opacity="1" stroke="#000000" stroke-opacity="1" stroke-width="4"/>
<circle clip-path="url(#clip342)" cx="480.315" cy="1268.39" r="14" fill="#009af9" fill-rule="evenodd" fill-opacity="1" stroke="#000000" stroke-opacity="1" stroke-width="4"/>
<circle clip-path="url(#clip342)" cx="508.153" cy="1620.23" r="14" fill="#009af9" fill-rule="evenodd" fill-opacity="1" stroke="#000000" stroke-opacity="1" stroke-width="4"/>
<circle clip-path="url(#clip342)" cx="535.991" cy="1811.97" r="14" fill="#009af9" fill-rule="evenodd" fill-opacity="1" stroke="#000000" stroke-opacity="1" stroke-width="4"/>
<circle clip-path="url(#clip342)" cx="563.829" cy="1796.75" r="14" fill="#009af9" fill-rule="evenodd" fill-opacity="1" stroke="#000000" stroke-opacity="1" stroke-width="4"/>
<circle clip-path="url(#clip342)" cx="591.667" cy="1578.33" r="14" fill="#009af9" fill-rule="evenodd" fill-opacity="1" stroke="#000000" stroke-opacity="1" stroke-width="4"/>
<circle clip-path="url(#clip342)" cx="619.505" cy="1210.17" r="14" fill="#009af9" fill-rule="evenodd" fill-opacity="1" stroke="#000000" stroke-opacity="1" stroke-width="4"/>
<circle clip-path="url(#clip342)" cx="647.343" cy="782.364" r="14" fill="#009af9" fill-rule="evenodd" fill-opacity="1" stroke="#000000" stroke-opacity="1" stroke-width="4"/>
<circle clip-path="url(#clip342)" cx="675.181" cy="399.544" r="14" fill="#009af9" fill-rule="evenodd" fill-opacity="1" stroke="#000000" stroke-opacity="1" stroke-width="4"/>
<circle clip-path="url(#clip342)" cx="703.019" cy="155.335" r="14" fill="#009af9" fill-rule="evenodd" fill-opacity="1" stroke="#000000" stroke-opacity="1" stroke-width="4"/>
<circle clip-path="url(#clip342)" cx="730.857" cy="109.437" r="14" fill="#009af9" fill-rule="evenodd" fill-opacity="1" stroke="#000000" stroke-opacity="1" stroke-width="4"/>
<circle clip-path="url(#clip342)" cx="758.694" cy="273.034" r="14" fill="#009af9" fill-rule="evenodd" fill-opacity="1" stroke="#000000" stroke-opacity="1" stroke-width="4"/>
<circle clip-path="url(#clip342)" cx="786.532" cy="606.068" r="14" fill="#009af9" fill-rule="evenodd" fill-opacity="1" stroke="#000000" stroke-opacity="1" stroke-width="4"/>
<circle clip-path="url(#clip342)" cx="814.37" cy="1027.05" r="14" fill="#009af9" fill-rule="evenodd" fill-opacity="1" stroke="#000000" stroke-opacity="1" stroke-width="4"/>
<circle clip-path="url(#clip342)" cx="842.208" cy="1433" r="14" fill="#009af9" fill-rule="evenodd" fill-opacity="1" stroke="#000000" stroke-opacity="1" stroke-width="4"/>
<circle clip-path="url(#clip342)" cx="870.046" cy="1724.63" r="14" fill="#009af9" fill-rule="evenodd" fill-opacity="1" stroke="#000000" stroke-opacity="1" stroke-width="4"/>
<circle clip-path="url(#clip342)" cx="897.884" cy="1830.64" r="14" fill="#009af9" fill-rule="evenodd" fill-opacity="1" stroke="#000000" stroke-opacity="1" stroke-width="4"/>
<circle clip-path="url(#clip342)" cx="925.722" cy="1725.13" r="14" fill="#009af9" fill-rule="evenodd" fill-opacity="1" stroke="#000000" stroke-opacity="1" stroke-width="4"/>
<circle clip-path="url(#clip342)" cx="953.56" cy="1433.97" r="14" fill="#009af9" fill-rule="evenodd" fill-opacity="1" stroke="#000000" stroke-opacity="1" stroke-width="4"/>
<circle clip-path="url(#clip342)" cx="981.398" cy="1028.39" r="14" fill="#009af9" fill-rule="evenodd" fill-opacity="1" stroke="#000000" stroke-opacity="1" stroke-width="4"/>
<circle clip-path="url(#clip342)" cx="1009.24" cy="607.63" r="14" fill="#009af9" fill-rule="evenodd" fill-opacity="1" stroke="#000000" stroke-opacity="1" stroke-width="4"/>
<circle clip-path="url(#clip342)" cx="1037.07" cy="274.591" r="14" fill="#009af9" fill-rule="evenodd" fill-opacity="1" stroke="#000000" stroke-opacity="1" stroke-width="4"/>
<circle clip-path="url(#clip342)" cx="1064.91" cy="110.714" r="14" fill="#009af9" fill-rule="evenodd" fill-opacity="1" stroke="#000000" stroke-opacity="1" stroke-width="4"/>
<circle clip-path="url(#clip342)" cx="1092.75" cy="156.044" r="14" fill="#009af9" fill-rule="evenodd" fill-opacity="1" stroke="#000000" stroke-opacity="1" stroke-width="4"/>
<circle clip-path="url(#clip342)" cx="1120.59" cy="399.451" r="14" fill="#009af9" fill-rule="evenodd" fill-opacity="1" stroke="#000000" stroke-opacity="1" stroke-width="4"/>
<circle clip-path="url(#clip342)" cx="1148.43" cy="781.36" r="14" fill="#009af9" fill-rule="evenodd" fill-opacity="1" stroke="#000000" stroke-opacity="1" stroke-width="4"/>
<circle clip-path="url(#clip342)" cx="1176.26" cy="1208.33" r="14" fill="#009af9" fill-rule="evenodd" fill-opacity="1" stroke="#000000" stroke-opacity="1" stroke-width="4"/>
<circle clip-path="url(#clip342)" cx="1204.1" cy="1575.93" r="14" fill="#009af9" fill-rule="evenodd" fill-opacity="1" stroke="#000000" stroke-opacity="1" stroke-width="4"/>
<circle clip-path="url(#clip342)" cx="1231.94" cy="1794.26" r="14" fill="#009af9" fill-rule="evenodd" fill-opacity="1" stroke="#000000" stroke-opacity="1" stroke-width="4"/>
<circle clip-path="url(#clip342)" cx="1259.78" cy="1809.96" r="14" fill="#009af9" fill-rule="evenodd" fill-opacity="1" stroke="#000000" stroke-opacity="1" stroke-width="4"/>
<circle clip-path="url(#clip342)" cx="1287.62" cy="1619.21" r="14" fill="#009af9" fill-rule="evenodd" fill-opacity="1" stroke="#000000" stroke-opacity="1" stroke-width="4"/>
<circle clip-path="url(#clip342)" cx="1315.45" cy="1268.74" r="14" fill="#009af9" fill-rule="evenodd" fill-opacity="1" stroke="#000000" stroke-opacity="1" stroke-width="4"/>
<circle clip-path="url(#clip342)" cx="1343.29" cy="844.272" r="14" fill="#009af9" fill-rule="evenodd" fill-opacity="1" stroke="#000000" stroke-opacity="1" stroke-width="4"/>
<circle clip-path="url(#clip342)" cx="1371.13" cy="449.656" r="14" fill="#009af9" fill-rule="evenodd" fill-opacity="1" stroke="#000000" stroke-opacity="1" stroke-width="4"/>
<circle clip-path="url(#clip342)" cx="1398.97" cy="181.398" r="14" fill="#009af9" fill-rule="evenodd" fill-opacity="1" stroke="#000000" stroke-opacity="1" stroke-width="4"/>
<circle clip-path="url(#clip342)" cx="1426.8" cy="105.08" r="14" fill="#009af9" fill-rule="evenodd" fill-opacity="1" stroke="#000000" stroke-opacity="1" stroke-width="4"/>
<circle clip-path="url(#clip342)" cx="1454.64" cy="239.33" r="14" fill="#009af9" fill-rule="evenodd" fill-opacity="1" stroke="#000000" stroke-opacity="1" stroke-width="4"/>
<circle clip-path="url(#clip342)" cx="1482.48" cy="551.267" r="14" fill="#009af9" fill-rule="evenodd" fill-opacity="1" stroke="#000000" stroke-opacity="1" stroke-width="4"/>
<circle clip-path="url(#clip342)" cx="1510.32" cy="964.561" r="14" fill="#009af9" fill-rule="evenodd" fill-opacity="1" stroke="#000000" stroke-opacity="1" stroke-width="4"/>
<circle clip-path="url(#clip342)" cx="1538.16" cy="1378.11" r="14" fill="#009af9" fill-rule="evenodd" fill-opacity="1" stroke="#000000" stroke-opacity="1" stroke-width="4"/>
<circle clip-path="url(#clip342)" cx="1565.99" cy="1690.76" r="14" fill="#009af9" fill-rule="evenodd" fill-opacity="1" stroke="#000000" stroke-opacity="1" stroke-width="4"/>
<circle clip-path="url(#clip342)" cx="1593.83" cy="1826.06" r="14" fill="#009af9" fill-rule="evenodd" fill-opacity="1" stroke="#000000" stroke-opacity="1" stroke-width="4"/>
<circle clip-path="url(#clip342)" cx="1621.67" cy="1750.97" r="14" fill="#009af9" fill-rule="evenodd" fill-opacity="1" stroke="#000000" stroke-opacity="1" stroke-width="4"/>
<circle clip-path="url(#clip342)" cx="1649.51" cy="1483.9" r="14" fill="#009af9" fill-rule="evenodd" fill-opacity="1" stroke="#000000" stroke-opacity="1" stroke-width="4"/>
<circle clip-path="url(#clip342)" cx="1677.35" cy="1090.19" r="14" fill="#009af9" fill-rule="evenodd" fill-opacity="1" stroke="#000000" stroke-opacity="1" stroke-width="4"/>
<circle clip-path="url(#clip342)" cx="1705.18" cy="666.182" r="14" fill="#009af9" fill-rule="evenodd" fill-opacity="1" stroke="#000000" stroke-opacity="1" stroke-width="4"/>
<circle clip-path="url(#clip342)" cx="1733.02" cy="315.577" r="14" fill="#009af9" fill-rule="evenodd" fill-opacity="1" stroke="#000000" stroke-opacity="1" stroke-width="4"/>
<circle clip-path="url(#clip342)" cx="1760.86" cy="124.112" r="14" fill="#009af9" fill-rule="evenodd" fill-opacity="1" stroke="#000000" stroke-opacity="1" stroke-width="4"/>
<circle clip-path="url(#clip342)" cx="1788.7" cy="138.584" r="14" fill="#009af9" fill-rule="evenodd" fill-opacity="1" stroke="#000000" stroke-opacity="1" stroke-width="4"/>
<circle clip-path="url(#clip342)" cx="1816.54" cy="355.41" r="14" fill="#009af9" fill-rule="evenodd" fill-opacity="1" stroke="#000000" stroke-opacity="1" stroke-width="4"/>
<circle clip-path="url(#clip342)" cx="1844.37" cy="721.514" r="14" fill="#009af9" fill-rule="evenodd" fill-opacity="1" stroke="#000000" stroke-opacity="1" stroke-width="4"/>
<circle clip-path="url(#clip342)" cx="1872.21" cy="1147.32" r="14" fill="#009af9" fill-rule="evenodd" fill-opacity="1" stroke="#000000" stroke-opacity="1" stroke-width="4"/>
<circle clip-path="url(#clip342)" cx="1900.05" cy="1528.68" r="14" fill="#009af9" fill-rule="evenodd" fill-opacity="1" stroke="#000000" stroke-opacity="1" stroke-width="4"/>
<circle clip-path="url(#clip342)" cx="1927.89" cy="1772.32" r="14" fill="#009af9" fill-rule="evenodd" fill-opacity="1" stroke="#000000" stroke-opacity="1" stroke-width="4"/>
<circle clip-path="url(#clip342)" cx="1955.73" cy="1818.69" r="14" fill="#009af9" fill-rule="evenodd" fill-opacity="1" stroke="#000000" stroke-opacity="1" stroke-width="4"/>
<circle clip-path="url(#clip342)" cx="1983.56" cy="1656.48" r="14" fill="#009af9" fill-rule="evenodd" fill-opacity="1" stroke="#000000" stroke-opacity="1" stroke-width="4"/>
<circle clip-path="url(#clip342)" cx="2011.4" cy="1325.41" r="14" fill="#009af9" fill-rule="evenodd" fill-opacity="1" stroke="#000000" stroke-opacity="1" stroke-width="4"/>
<circle clip-path="url(#clip342)" cx="2039.24" cy="906.49" r="14" fill="#009af9" fill-rule="evenodd" fill-opacity="1" stroke="#000000" stroke-opacity="1" stroke-width="4"/>
<circle clip-path="url(#clip342)" cx="2067.08" cy="502.201" r="14" fill="#009af9" fill-rule="evenodd" fill-opacity="1" stroke="#000000" stroke-opacity="1" stroke-width="4"/>
<circle clip-path="url(#clip342)" cx="2094.91" cy="211.419" r="14" fill="#009af9" fill-rule="evenodd" fill-opacity="1" stroke="#000000" stroke-opacity="1" stroke-width="4"/>
<circle clip-path="url(#clip342)" cx="2122.75" cy="105.24" r="14" fill="#009af9" fill-rule="evenodd" fill-opacity="1" stroke="#000000" stroke-opacity="1" stroke-width="4"/>
<circle clip-path="url(#clip342)" cx="2150.59" cy="209.596" r="14" fill="#009af9" fill-rule="evenodd" fill-opacity="1" stroke="#000000" stroke-opacity="1" stroke-width="4"/>
<circle clip-path="url(#clip342)" cx="2178.43" cy="498.918" r="14" fill="#009af9" fill-rule="evenodd" fill-opacity="1" stroke="#000000" stroke-opacity="1" stroke-width="4"/>
<circle clip-path="url(#clip342)" cx="2206.27" cy="902.405" r="14" fill="#009af9" fill-rule="evenodd" fill-opacity="1" stroke="#000000" stroke-opacity="1" stroke-width="4"/>
<circle clip-path="url(#clip342)" cx="2234.1" cy="1321.35" r="14" fill="#009af9" fill-rule="evenodd" fill-opacity="1" stroke="#000000" stroke-opacity="1" stroke-width="4"/>
<circle clip-path="url(#clip342)" cx="2261.94" cy="1653.28" r="14" fill="#009af9" fill-rule="evenodd" fill-opacity="1" stroke="#000000" stroke-opacity="1" stroke-width="4"/>
<circle clip-path="url(#clip342)" cx="2289.78" cy="1817.03" r="14" fill="#009af9" fill-rule="evenodd" fill-opacity="1" stroke="#000000" stroke-opacity="1" stroke-width="4"/>
<circle clip-path="url(#clip342)" cx="2317.62" cy="1772.58" r="14" fill="#009af9" fill-rule="evenodd" fill-opacity="1" stroke="#000000" stroke-opacity="1" stroke-width="4"/>
<circle clip-path="url(#clip342)" cx="2345.46" cy="1530.86" r="14" fill="#009af9" fill-rule="evenodd" fill-opacity="1" stroke="#000000" stroke-opacity="1" stroke-width="4"/>
<circle clip-path="url(#clip342)" cx="2373.29" cy="1151.02" r="14" fill="#009af9" fill-rule="evenodd" fill-opacity="1" stroke="#000000" stroke-opacity="1" stroke-width="4"/>
<circle clip-path="url(#clip342)" cx="2401.13" cy="725.991" r="14" fill="#009af9" fill-rule="evenodd" fill-opacity="1" stroke="#000000" stroke-opacity="1" stroke-width="4"/>
<circle clip-path="url(#clip342)" cx="2428.97" cy="359.742" r="14" fill="#009af9" fill-rule="evenodd" fill-opacity="1" stroke="#000000" stroke-opacity="1" stroke-width="4"/>
<circle clip-path="url(#clip342)" cx="2456.81" cy="141.834" r="14" fill="#009af9" fill-rule="evenodd" fill-opacity="1" stroke="#000000" stroke-opacity="1" stroke-width="4"/>
<circle clip-path="url(#clip342)" cx="2484.65" cy="125.534" r="14" fill="#009af9" fill-rule="evenodd" fill-opacity="1" stroke="#000000" stroke-opacity="1" stroke-width="4"/>
<circle clip-path="url(#clip342)" cx="2512.48" cy="314.786" r="14" fill="#009af9" fill-rule="evenodd" fill-opacity="1" stroke="#000000" stroke-opacity="1" stroke-width="4"/>
<circle clip-path="url(#clip342)" cx="2540.32" cy="663.258" r="14" fill="#009af9" fill-rule="evenodd" fill-opacity="1" stroke="#000000" stroke-opacity="1" stroke-width="4"/>
<circle clip-path="url(#clip342)" cx="2568.16" cy="1085.69" r="14" fill="#009af9" fill-rule="evenodd" fill-opacity="1" stroke="#000000" stroke-opacity="1" stroke-width="4"/>
<circle clip-path="url(#clip342)" cx="2596" cy="1478.74" r="14" fill="#009af9" fill-rule="evenodd" fill-opacity="1" stroke="#000000" stroke-opacity="1" stroke-width="4"/>
<circle clip-path="url(#clip342)" cx="2623.84" cy="1746.29" r="14" fill="#009af9" fill-rule="evenodd" fill-opacity="1" stroke="#000000" stroke-opacity="1" stroke-width="4"/>
<circle clip-path="url(#clip342)" cx="2651.67" cy="1822.93" r="14" fill="#009af9" fill-rule="evenodd" fill-opacity="1" stroke="#000000" stroke-opacity="1" stroke-width="4"/>
<circle clip-path="url(#clip342)" cx="2679.51" cy="1689.94" r="14" fill="#009af9" fill-rule="evenodd" fill-opacity="1" stroke="#000000" stroke-opacity="1" stroke-width="4"/>
<circle clip-path="url(#clip342)" cx="2707.35" cy="1379.91" r="14" fill="#009af9" fill-rule="evenodd" fill-opacity="1" stroke="#000000" stroke-opacity="1" stroke-width="4"/>
<circle clip-path="url(#clip342)" cx="2735.19" cy="968.693" r="14" fill="#009af9" fill-rule="evenodd" fill-opacity="1" stroke="#000000" stroke-opacity="1" stroke-width="4"/>
<circle clip-path="url(#clip342)" cx="2763.02" cy="556.89" r="14" fill="#009af9" fill-rule="evenodd" fill-opacity="1" stroke="#000000" stroke-opacity="1" stroke-width="4"/>
<circle clip-path="url(#clip342)" cx="2790.86" cy="245.22" r="14" fill="#009af9" fill-rule="evenodd" fill-opacity="1" stroke="#000000" stroke-opacity="1" stroke-width="4"/>
<circle clip-path="url(#clip342)" cx="2818.7" cy="109.891" r="14" fill="#009af9" fill-rule="evenodd" fill-opacity="1" stroke="#000000" stroke-opacity="1" stroke-width="4"/>
<circle clip-path="url(#clip342)" cx="2846.54" cy="183.965" r="14" fill="#009af9" fill-rule="evenodd" fill-opacity="1" stroke="#000000" stroke-opacity="1" stroke-width="4"/>
<circle clip-path="url(#clip342)" cx="2874.38" cy="449.281" r="14" fill="#009af9" fill-rule="evenodd" fill-opacity="1" stroke="#000000" stroke-opacity="1" stroke-width="4"/>
<circle clip-path="url(#clip342)" cx="2902.21" cy="840.906" r="14" fill="#009af9" fill-rule="evenodd" fill-opacity="1" stroke="#000000" stroke-opacity="1" stroke-width="4"/>
<circle clip-path="url(#clip342)" cx="2930.05" cy="1263.03" r="14" fill="#009af9" fill-rule="evenodd" fill-opacity="1" stroke="#000000" stroke-opacity="1" stroke-width="4"/>
<circle clip-path="url(#clip342)" cx="2957.89" cy="1612.4" r="14" fill="#009af9" fill-rule="evenodd" fill-opacity="1" stroke="#000000" stroke-opacity="1" stroke-width="4"/>
<circle clip-path="url(#clip342)" cx="2985.73" cy="1803.59" r="14" fill="#009af9" fill-rule="evenodd" fill-opacity="1" stroke="#000000" stroke-opacity="1" stroke-width="4"/>
<circle clip-path="url(#clip342)" cx="3013.57" cy="1789.87" r="14" fill="#009af9" fill-rule="evenodd" fill-opacity="1" stroke="#000000" stroke-opacity="1" stroke-width="4"/>
<circle clip-path="url(#clip342)" cx="3041.4" cy="1574.63" r="14" fill="#009af9" fill-rule="evenodd" fill-opacity="1" stroke="#000000" stroke-opacity="1" stroke-width="4"/>
<circle clip-path="url(#clip342)" cx="3069.24" cy="1210.56" r="14" fill="#009af9" fill-rule="evenodd" fill-opacity="1" stroke="#000000" stroke-opacity="1" stroke-width="4"/>
<circle clip-path="url(#clip342)" cx="285.45" cy="99.245" r="14" fill="#e26f46" fill-rule="evenodd" fill-opacity="1" stroke="#000000" stroke-opacity="1" stroke-width="4"/>
<circle clip-path="url(#clip342)" cx="313.288" cy="205.325" r="14" fill="#e26f46" fill-rule="evenodd" fill-opacity="1" stroke="#000000" stroke-opacity="1" stroke-width="4"/>
<circle clip-path="url(#clip342)" cx="341.126" cy="497.416" r="14" fill="#e26f46" fill-rule="evenodd" fill-opacity="1" stroke="#000000" stroke-opacity="1" stroke-width="4"/>
<circle clip-path="url(#clip342)" cx="368.964" cy="904.038" r="14" fill="#e26f46" fill-rule="evenodd" fill-opacity="1" stroke="#000000" stroke-opacity="1" stroke-width="4"/>
<circle clip-path="url(#clip342)" cx="396.801" cy="1325.72" r="14" fill="#e26f46" fill-rule="evenodd" fill-opacity="1" stroke="#000000" stroke-opacity="1" stroke-width="4"/>
<circle clip-path="url(#clip342)" cx="424.639" cy="1659.31" r="14" fill="#e26f46" fill-rule="evenodd" fill-opacity="1" stroke="#000000" stroke-opacity="1" stroke-width="4"/>
<circle clip-path="url(#clip342)" cx="452.477" cy="1823.25" r="14" fill="#e26f46" fill-rule="evenodd" fill-opacity="1" stroke="#000000" stroke-opacity="1" stroke-width="4"/>
<circle clip-path="url(#clip342)" cx="480.315" cy="1777.47" r="14" fill="#e26f46" fill-rule="evenodd" fill-opacity="1" stroke="#000000" stroke-opacity="1" stroke-width="4"/>
<circle clip-path="url(#clip342)" cx="508.153" cy="1533.22" r="14" fill="#e26f46" fill-rule="evenodd" fill-opacity="1" stroke="#000000" stroke-opacity="1" stroke-width="4"/>
<circle clip-path="url(#clip342)" cx="535.991" cy="1150.27" r="14" fill="#e26f46" fill-rule="evenodd" fill-opacity="1" stroke="#000000" stroke-opacity="1" stroke-width="4"/>
<circle clip-path="url(#clip342)" cx="563.829" cy="722.324" r="14" fill="#e26f46" fill-rule="evenodd" fill-opacity="1" stroke="#000000" stroke-opacity="1" stroke-width="4"/>
<circle clip-path="url(#clip342)" cx="591.667" cy="354.048" r="14" fill="#e26f46" fill-rule="evenodd" fill-opacity="1" stroke="#000000" stroke-opacity="1" stroke-width="4"/>
<circle clip-path="url(#clip342)" cx="619.505" cy="135.507" r="14" fill="#e26f46" fill-rule="evenodd" fill-opacity="1" stroke="#000000" stroke-opacity="1" stroke-width="4"/>
<circle clip-path="url(#clip342)" cx="647.343" cy="120.121" r="14" fill="#e26f46" fill-rule="evenodd" fill-opacity="1" stroke="#000000" stroke-opacity="1" stroke-width="4"/>
<circle clip-path="url(#clip342)" cx="675.181" cy="311.611" r="14" fill="#e26f46" fill-rule="evenodd" fill-opacity="1" stroke="#000000" stroke-opacity="1" stroke-width="4"/>
<circle clip-path="url(#clip342)" cx="703.019" cy="663.097" r="14" fill="#e26f46" fill-rule="evenodd" fill-opacity="1" stroke="#000000" stroke-opacity="1" stroke-width="4"/>
<circle clip-path="url(#clip342)" cx="730.857" cy="1088.58" r="14" fill="#e26f46" fill-rule="evenodd" fill-opacity="1" stroke="#000000" stroke-opacity="1" stroke-width="4"/>
<circle clip-path="url(#clip342)" cx="758.694" cy="1483.98" r="14" fill="#e26f46" fill-rule="evenodd" fill-opacity="1" stroke="#000000" stroke-opacity="1" stroke-width="4"/>
<circle clip-path="url(#clip342)" cx="786.532" cy="1752.59" r="14" fill="#e26f46" fill-rule="evenodd" fill-opacity="1" stroke="#000000" stroke-opacity="1" stroke-width="4"/>
<circle clip-path="url(#clip342)" cx="814.37" cy="1828.75" r="14" fill="#e26f46" fill-rule="evenodd" fill-opacity="1" stroke="#000000" stroke-opacity="1" stroke-width="4"/>
<circle clip-path="url(#clip342)" cx="842.208" cy="1693.86" r="14" fill="#e26f46" fill-rule="evenodd" fill-opacity="1" stroke="#000000" stroke-opacity="1" stroke-width="4"/>
<circle clip-path="url(#clip342)" cx="870.046" cy="1380.97" r="14" fill="#e26f46" fill-rule="evenodd" fill-opacity="1" stroke="#000000" stroke-opacity="1" stroke-width="4"/>
<circle clip-path="url(#clip342)" cx="897.884" cy="966.635" r="14" fill="#e26f46" fill-rule="evenodd" fill-opacity="1" stroke="#000000" stroke-opacity="1" stroke-width="4"/>
<circle clip-path="url(#clip342)" cx="925.722" cy="552.217" r="14" fill="#e26f46" fill-rule="evenodd" fill-opacity="1" stroke="#000000" stroke-opacity="1" stroke-width="4"/>
<circle clip-path="url(#clip342)" cx="953.56" cy="239.076" r="14" fill="#e26f46" fill-rule="evenodd" fill-opacity="1" stroke="#000000" stroke-opacity="1" stroke-width="4"/>
<circle clip-path="url(#clip342)" cx="981.398" cy="103.779" r="14" fill="#e26f46" fill-rule="evenodd" fill-opacity="1" stroke="#000000" stroke-opacity="1" stroke-width="4"/>
<circle clip-path="url(#clip342)" cx="1009.24" cy="179.379" r="14" fill="#e26f46" fill-rule="evenodd" fill-opacity="1" stroke="#000000" stroke-opacity="1" stroke-width="4"/>
<circle clip-path="url(#clip342)" cx="1037.07" cy="447.342" r="14" fill="#e26f46" fill-rule="evenodd" fill-opacity="1" stroke="#000000" stroke-opacity="1" stroke-width="4"/>
<circle clip-path="url(#clip342)" cx="1064.91" cy="842.089" r="14" fill="#e26f46" fill-rule="evenodd" fill-opacity="1" stroke="#000000" stroke-opacity="1" stroke-width="4"/>
<circle clip-path="url(#clip342)" cx="1092.75" cy="1267.05" r="14" fill="#e26f46" fill-rule="evenodd" fill-opacity="1" stroke="#000000" stroke-opacity="1" stroke-width="4"/>
<circle clip-path="url(#clip342)" cx="1120.59" cy="1618.27" r="14" fill="#e26f46" fill-rule="evenodd" fill-opacity="1" stroke="#000000" stroke-opacity="1" stroke-width="4"/>
<circle clip-path="url(#clip342)" cx="1148.43" cy="1809.87" r="14" fill="#e26f46" fill-rule="evenodd" fill-opacity="1" stroke="#000000" stroke-opacity="1" stroke-width="4"/>
<circle clip-path="url(#clip342)" cx="1176.26" cy="1795.02" r="14" fill="#e26f46" fill-rule="evenodd" fill-opacity="1" stroke="#000000" stroke-opacity="1" stroke-width="4"/>
<circle clip-path="url(#clip342)" cx="1204.1" cy="1577.4" r="14" fill="#e26f46" fill-rule="evenodd" fill-opacity="1" stroke="#000000" stroke-opacity="1" stroke-width="4"/>
<circle clip-path="url(#clip342)" cx="1231.94" cy="1210.27" r="14" fill="#e26f46" fill-rule="evenodd" fill-opacity="1" stroke="#000000" stroke-opacity="1" stroke-width="4"/>
<circle clip-path="url(#clip342)" cx="1259.78" cy="783.464" r="14" fill="#e26f46" fill-rule="evenodd" fill-opacity="1" stroke="#000000" stroke-opacity="1" stroke-width="4"/>
<circle clip-path="url(#clip342)" cx="1287.62" cy="401.376" r="14" fill="#e26f46" fill-rule="evenodd" fill-opacity="1" stroke="#000000" stroke-opacity="1" stroke-width="4"/>
<circle clip-path="url(#clip342)" cx="1315.45" cy="157.45" r="14" fill="#e26f46" fill-rule="evenodd" fill-opacity="1" stroke="#000000" stroke-opacity="1" stroke-width="4"/>
<circle clip-path="url(#clip342)" cx="1343.29" cy="111.318" r="14" fill="#e26f46" fill-rule="evenodd" fill-opacity="1" stroke="#000000" stroke-opacity="1" stroke-width="4"/>
<circle clip-path="url(#clip342)" cx="1371.13" cy="274.221" r="14" fill="#e26f46" fill-rule="evenodd" fill-opacity="1" stroke="#000000" stroke-opacity="1" stroke-width="4"/>
<circle clip-path="url(#clip342)" cx="1398.97" cy="606.271" r="14" fill="#e26f46" fill-rule="evenodd" fill-opacity="1" stroke="#000000" stroke-opacity="1" stroke-width="4"/>
<circle clip-path="url(#clip342)" cx="1426.8" cy="1026.22" r="14" fill="#e26f46" fill-rule="evenodd" fill-opacity="1" stroke="#000000" stroke-opacity="1" stroke-width="4"/>
<circle clip-path="url(#clip342)" cx="1454.64" cy="1431.34" r="14" fill="#e26f46" fill-rule="evenodd" fill-opacity="1" stroke="#000000" stroke-opacity="1" stroke-width="4"/>
<circle clip-path="url(#clip342)" cx="1482.48" cy="1722.55" r="14" fill="#e26f46" fill-rule="evenodd" fill-opacity="1" stroke="#000000" stroke-opacity="1" stroke-width="4"/>
<circle clip-path="url(#clip342)" cx="1510.32" cy="1828.64" r="14" fill="#e26f46" fill-rule="evenodd" fill-opacity="1" stroke="#000000" stroke-opacity="1" stroke-width="4"/>
<circle clip-path="url(#clip342)" cx="1538.16" cy="1723.71" r="14" fill="#e26f46" fill-rule="evenodd" fill-opacity="1" stroke="#000000" stroke-opacity="1" stroke-width="4"/>
<circle clip-path="url(#clip342)" cx="1565.99" cy="1433.47" r="14" fill="#e26f46" fill-rule="evenodd" fill-opacity="1" stroke="#000000" stroke-opacity="1" stroke-width="4"/>
<circle clip-path="url(#clip342)" cx="1593.83" cy="1028.94" r="14" fill="#e26f46" fill-rule="evenodd" fill-opacity="1" stroke="#000000" stroke-opacity="1" stroke-width="4"/>
<circle clip-path="url(#clip342)" cx="1621.67" cy="609.086" r="14" fill="#e26f46" fill-rule="evenodd" fill-opacity="1" stroke="#000000" stroke-opacity="1" stroke-width="4"/>
<circle clip-path="url(#clip342)" cx="1649.51" cy="276.603" r="14" fill="#e26f46" fill-rule="evenodd" fill-opacity="1" stroke="#000000" stroke-opacity="1" stroke-width="4"/>
<circle clip-path="url(#clip342)" cx="1677.35" cy="112.789" r="14" fill="#e26f46" fill-rule="evenodd" fill-opacity="1" stroke="#000000" stroke-opacity="1" stroke-width="4"/>
<circle clip-path="url(#clip342)" cx="1705.18" cy="157.675" r="14" fill="#e26f46" fill-rule="evenodd" fill-opacity="1" stroke="#000000" stroke-opacity="1" stroke-width="4"/>
<circle clip-path="url(#clip342)" cx="1733.02" cy="400.239" r="14" fill="#e26f46" fill-rule="evenodd" fill-opacity="1" stroke="#000000" stroke-opacity="1" stroke-width="4"/>
<circle clip-path="url(#clip342)" cx="1760.86" cy="781.112" r="14" fill="#e26f46" fill-rule="evenodd" fill-opacity="1" stroke="#000000" stroke-opacity="1" stroke-width="4"/>
<circle clip-path="url(#clip342)" cx="1788.7" cy="1207.11" r="14" fill="#e26f46" fill-rule="evenodd" fill-opacity="1" stroke="#000000" stroke-opacity="1" stroke-width="4"/>
<circle clip-path="url(#clip342)" cx="1816.54" cy="1574.04" r="14" fill="#e26f46" fill-rule="evenodd" fill-opacity="1" stroke="#000000" stroke-opacity="1" stroke-width="4"/>
<circle clip-path="url(#clip342)" cx="1844.37" cy="1792.15" r="14" fill="#e26f46" fill-rule="evenodd" fill-opacity="1" stroke="#000000" stroke-opacity="1" stroke-width="4"/>
<circle clip-path="url(#clip342)" cx="1872.21" cy="1808.15" r="14" fill="#e26f46" fill-rule="evenodd" fill-opacity="1" stroke="#000000" stroke-opacity="1" stroke-width="4"/>
<circle clip-path="url(#clip342)" cx="1900.05" cy="1618.16" r="14" fill="#e26f46" fill-rule="evenodd" fill-opacity="1" stroke="#000000" stroke-opacity="1" stroke-width="4"/>
<circle clip-path="url(#clip342)" cx="1927.89" cy="1268.68" r="14" fill="#e26f46" fill-rule="evenodd" fill-opacity="1" stroke="#000000" stroke-opacity="1" stroke-width="4"/>
<circle clip-path="url(#clip342)" cx="1955.73" cy="845.236" r="14" fill="#e26f46" fill-rule="evenodd" fill-opacity="1" stroke="#000000" stroke-opacity="1" stroke-width="4"/>
<circle clip-path="url(#clip342)" cx="1983.56" cy="451.402" r="14" fill="#e26f46" fill-rule="evenodd" fill-opacity="1" stroke="#000000" stroke-opacity="1" stroke-width="4"/>
<circle clip-path="url(#clip342)" cx="2011.4" cy="183.498" r="14" fill="#e26f46" fill-rule="evenodd" fill-opacity="1" stroke="#000000" stroke-opacity="1" stroke-width="4"/>
<circle clip-path="url(#clip342)" cx="2039.24" cy="107.021" r="14" fill="#e26f46" fill-rule="evenodd" fill-opacity="1" stroke="#000000" stroke-opacity="1" stroke-width="4"/>
<circle clip-path="url(#clip342)" cx="2067.08" cy="240.637" r="14" fill="#e26f46" fill-rule="evenodd" fill-opacity="1" stroke="#000000" stroke-opacity="1" stroke-width="4"/>
<circle clip-path="url(#clip342)" cx="2094.91" cy="551.621" r="14" fill="#e26f46" fill-rule="evenodd" fill-opacity="1" stroke="#000000" stroke-opacity="1" stroke-width="4"/>
<circle clip-path="url(#clip342)" cx="2122.75" cy="963.875" r="14" fill="#e26f46" fill-rule="evenodd" fill-opacity="1" stroke="#000000" stroke-opacity="1" stroke-width="4"/>
<circle clip-path="url(#clip342)" cx="2150.59" cy="1376.55" r="14" fill="#e26f46" fill-rule="evenodd" fill-opacity="1" stroke="#000000" stroke-opacity="1" stroke-width="4"/>
<circle clip-path="url(#clip342)" cx="2178.43" cy="1688.71" r="14" fill="#e26f46" fill-rule="evenodd" fill-opacity="1" stroke="#000000" stroke-opacity="1" stroke-width="4"/>
<circle clip-path="url(#clip342)" cx="2206.27" cy="1824.03" r="14" fill="#e26f46" fill-rule="evenodd" fill-opacity="1" stroke="#000000" stroke-opacity="1" stroke-width="4"/>
<circle clip-path="url(#clip342)" cx="2234.1" cy="1749.45" r="14" fill="#e26f46" fill-rule="evenodd" fill-opacity="1" stroke="#000000" stroke-opacity="1" stroke-width="4"/>
<circle clip-path="url(#clip342)" cx="2261.94" cy="1483.25" r="14" fill="#e26f46" fill-rule="evenodd" fill-opacity="1" stroke="#000000" stroke-opacity="1" stroke-width="4"/>
<circle clip-path="url(#clip342)" cx="2289.78" cy="1090.59" r="14" fill="#e26f46" fill-rule="evenodd" fill-opacity="1" stroke="#000000" stroke-opacity="1" stroke-width="4"/>
<circle clip-path="url(#clip342)" cx="2317.62" cy="667.52" r="14" fill="#e26f46" fill-rule="evenodd" fill-opacity="1" stroke="#000000" stroke-opacity="1" stroke-width="4"/>
<circle clip-path="url(#clip342)" cx="2345.46" cy="317.531" r="14" fill="#e26f46" fill-rule="evenodd" fill-opacity="1" stroke="#000000" stroke-opacity="1" stroke-width="4"/>
<circle clip-path="url(#clip342)" cx="2373.29" cy="126.205" r="14" fill="#e26f46" fill-rule="evenodd" fill-opacity="1" stroke="#000000" stroke-opacity="1" stroke-width="4"/>
<circle clip-path="url(#clip342)" cx="2401.13" cy="140.303" r="14" fill="#e26f46" fill-rule="evenodd" fill-opacity="1" stroke="#000000" stroke-opacity="1" stroke-width="4"/>
<circle clip-path="url(#clip342)" cx="2428.97" cy="356.334" r="14" fill="#e26f46" fill-rule="evenodd" fill-opacity="1" stroke="#000000" stroke-opacity="1" stroke-width="4"/>
<circle clip-path="url(#clip342)" cx="2456.81" cy="721.419" r="14" fill="#e26f46" fill-rule="evenodd" fill-opacity="1" stroke="#000000" stroke-opacity="1" stroke-width="4"/>
<circle clip-path="url(#clip342)" cx="2484.65" cy="1146.23" r="14" fill="#e26f46" fill-rule="evenodd" fill-opacity="1" stroke="#000000" stroke-opacity="1" stroke-width="4"/>
<circle clip-path="url(#clip342)" cx="2512.48" cy="1526.86" r="14" fill="#e26f46" fill-rule="evenodd" fill-opacity="1" stroke="#000000" stroke-opacity="1" stroke-width="4"/>
<circle clip-path="url(#clip342)" cx="2540.32" cy="1770.22" r="14" fill="#e26f46" fill-rule="evenodd" fill-opacity="1" stroke="#000000" stroke-opacity="1" stroke-width="4"/>
<circle clip-path="url(#clip342)" cx="2568.16" cy="1816.82" r="14" fill="#e26f46" fill-rule="evenodd" fill-opacity="1" stroke="#000000" stroke-opacity="1" stroke-width="4"/>
<circle clip-path="url(#clip342)" cx="2596" cy="1655.29" r="14" fill="#e26f46" fill-rule="evenodd" fill-opacity="1" stroke="#000000" stroke-opacity="1" stroke-width="4"/>
<circle clip-path="url(#clip342)" cx="2623.84" cy="1325.2" r="14" fill="#e26f46" fill-rule="evenodd" fill-opacity="1" stroke="#000000" stroke-opacity="1" stroke-width="4"/>
<circle clip-path="url(#clip342)" cx="2651.67" cy="907.314" r="14" fill="#e26f46" fill-rule="evenodd" fill-opacity="1" stroke="#000000" stroke-opacity="1" stroke-width="4"/>
<circle clip-path="url(#clip342)" cx="2679.51" cy="503.851" r="14" fill="#e26f46" fill-rule="evenodd" fill-opacity="1" stroke="#000000" stroke-opacity="1" stroke-width="4"/>
<circle clip-path="url(#clip342)" cx="2707.35" cy="213.493" r="14" fill="#e26f46" fill-rule="evenodd" fill-opacity="1" stroke="#000000" stroke-opacity="1" stroke-width="4"/>
<circle clip-path="url(#clip342)" cx="2735.19" cy="107.23" r="14" fill="#e26f46" fill-rule="evenodd" fill-opacity="1" stroke="#000000" stroke-opacity="1" stroke-width="4"/>
<circle clip-path="url(#clip342)" cx="2763.02" cy="211.015" r="14" fill="#e26f46" fill-rule="evenodd" fill-opacity="1" stroke="#000000" stroke-opacity="1" stroke-width="4"/>
<circle clip-path="url(#clip342)" cx="2790.86" cy="499.419" r="14" fill="#e26f46" fill-rule="evenodd" fill-opacity="1" stroke="#000000" stroke-opacity="1" stroke-width="4"/>
<circle clip-path="url(#clip342)" cx="2818.7" cy="901.866" r="14" fill="#e26f46" fill-rule="evenodd" fill-opacity="1" stroke="#000000" stroke-opacity="1" stroke-width="4"/>
<circle clip-path="url(#clip342)" cx="2846.54" cy="1319.9" r="14" fill="#e26f46" fill-rule="evenodd" fill-opacity="1" stroke="#000000" stroke-opacity="1" stroke-width="4"/>
<circle clip-path="url(#clip342)" cx="2874.38" cy="1651.27" r="14" fill="#e26f46" fill-rule="evenodd" fill-opacity="1" stroke="#000000" stroke-opacity="1" stroke-width="4"/>
<circle clip-path="url(#clip342)" cx="2902.21" cy="1814.96" r="14" fill="#e26f46" fill-rule="evenodd" fill-opacity="1" stroke="#000000" stroke-opacity="1" stroke-width="4"/>
<circle clip-path="url(#clip342)" cx="2930.05" cy="1770.96" r="14" fill="#e26f46" fill-rule="evenodd" fill-opacity="1" stroke="#000000" stroke-opacity="1" stroke-width="4"/>
<circle clip-path="url(#clip342)" cx="2957.89" cy="1530.07" r="14" fill="#e26f46" fill-rule="evenodd" fill-opacity="1" stroke="#000000" stroke-opacity="1" stroke-width="4"/>
<circle clip-path="url(#clip342)" cx="2985.73" cy="1151.26" r="14" fill="#e26f46" fill-rule="evenodd" fill-opacity="1" stroke="#000000" stroke-opacity="1" stroke-width="4"/>
<circle clip-path="url(#clip342)" cx="3013.57" cy="727.205" r="14" fill="#e26f46" fill-rule="evenodd" fill-opacity="1" stroke="#000000" stroke-opacity="1" stroke-width="4"/>
<circle clip-path="url(#clip342)" cx="3041.4" cy="361.629" r="14" fill="#e26f46" fill-rule="evenodd" fill-opacity="1" stroke="#000000" stroke-opacity="1" stroke-width="4"/>
<circle clip-path="url(#clip342)" cx="3069.24" cy="143.934" r="14" fill="#e26f46" fill-rule="evenodd" fill-opacity="1" stroke="#000000" stroke-opacity="1" stroke-width="4"/>
<polyline clip-path="url(#clip342)" style="stroke:#3da44d; stroke-linecap:butt; stroke-linejoin:round; stroke-width:16; stroke-opacity:1; fill:none" points="
  285.45,99.245 292.246,105.695 299.043,124.948 305.839,156.717 312.636,200.531 320.491,265.312 328.347,344.018 336.202,435.084 344.058,536.7 359.768,763.336 
  375.479,1006 391.19,1245.49 406.901,1462.87 414.756,1557.79 422.612,1640.95 430.467,1710.69 438.323,1765.63 446.178,1804.67 454.034,1827.05 461.889,1832.31 
  469.744,1820.36 477.6,1791.42 485.455,1746.08 493.311,1685.24 501.166,1610.1 509.022,1522.15 516.877,1423.16 524.733,1315.07 532.588,1200.05 548.299,958.426 
  564.01,717.397 573.451,580.833 582.893,455.319 592.334,344.453 601.776,251.417 606.497,212.442 611.218,178.88 615.938,150.974 620.659,128.924 625.38,112.887 
  630.101,102.98 634.822,99.2732 639.542,101.794 648.984,125.399 658.426,173.119 663.146,205.62 667.867,243.584 672.588,286.738 677.309,334.772 686.75,444.068 
  696.192,568.337 705.633,704.012 715.075,847.201 731.04,1094.88 747.006,1332.03 754.989,1440.52 762.971,1539.28 770.954,1626.26 778.937,1699.7 786.92,1758.08 
  794.902,1800.2 802.885,1825.21 810.868,1832.57 818.851,1822.16 826.833,1794.17 834.816,1749.18 842.799,1688.12 851.47,1605.05 860.142,1506.5 868.813,1394.87 
  877.485,1272.85 894.828,1009.67 912.171,742.27 920.842,615.089 929.514,496.402 938.185,389.082 946.857,295.727 955.528,218.597 964.2,159.56 972.871,120.044 
  981.543,101.007 989.537,102.004 997.531,120.783 1005.53,156.957 1013.52,209.781 1021.51,278.169 1029.51,360.712 1037.5,455.712 1045.5,561.214 1061.49,794.864 
  1077.47,1042.53 1093.46,1283.92 1109.45,1499.26 1113.74,1550.22 1118.02,1597.71 1122.31,1641.46 1126.59,1681.22 1135.16,1747.8 1143.74,1795.9 1152.31,1824.37 
  1160.88,1832.53 1165.16,1828.92 1169.45,1820.2 1173.73,1806.42 1178.02,1787.67 1186.59,1735.7 1195.16,1665.52 1203.73,1578.8 1212.3,1477.59 1220.87,1364.27 
  1229.44,1241.53 1238.01,1112.28 1246.58,979.56 1256.51,825.601 1266.44,676.094 1276.37,535.783 1286.3,409.12 1291.27,352.183 1296.24,300.123 1301.2,253.355 
  1306.17,212.25 1311.13,177.135 1316.1,148.289 1321.06,125.941 1326.03,110.269 1330.99,101.397 1335.96,99.3963 1340.92,104.282 1345.89,116.016 1350.85,134.505 
  1355.82,159.601 1360.78,191.106 1365.75,228.769 1375.68,321.324 1385.61,434.331 1395.54,564.204 1405.47,706.822 1423.12,977.543 1440.76,1247.11 1449.59,1372.98 
  1458.41,1488.65 1467.24,1591.22 1476.06,1678.11 1480.48,1714.98 1484.89,1747.15 1489.3,1774.41 1493.71,1796.6 1502.54,1825.22 1511.36,1832.31 1520.19,1817.67 
  1529.01,1781.69 1537.84,1725.25 1546.66,1649.77 1554.4,1569.4 1562.14,1477.4 1569.88,1375.53 1577.61,1265.75 1593.09,1031.09 1608.57,791.428 1616.31,675.495 
  1624.05,565.163 1631.78,462.562 1639.52,369.669 1647.26,288.277 1655,219.956 1662.74,166.022 1670.48,127.517 1678.91,103.981 1687.35,100.2 1695.79,116.262 
  1704.22,151.799 1712.66,205.995 1721.1,277.609 1729.54,365 1737.97,466.165 1754.85,700.276 1771.72,958.605 1788.59,1217.6 1805.47,1453.66 1813.96,1556.8 
  1822.44,1646.23 1830.93,1719.88 1839.42,1776.05 1847.9,1813.43 1856.39,1831.16 1860.63,1832.5 1864.88,1828.82 1869.12,1820.12 1873.37,1806.46 1881.85,1764.62 
  1890.34,1704.25 1898.83,1626.75 1907.31,1533.93 1915.8,1427.94 1924.29,1311.23 1932.78,1186.52 1941.26,1056.68 1960.03,766.508 1978.8,498.778 1988.18,382.942 
  1997.56,283.627 2006.95,203.649 2016.33,145.273 2021.02,124.728 2025.72,110.153 2030.41,101.653 2035.1,99.2859 2039.79,103.07 2044.48,112.978 2049.17,128.94 
  2053.87,150.842 2063.25,211.805 2072.63,294.139 2077.33,342.614 2082.02,395.512 2086.71,452.458 2091.4,513.049 2109.26,769.101 2127.11,1045.23 2136.04,1182.02 
  2144.97,1313.27 2153.9,1435.6 2162.83,1545.89 2167.29,1595.61 2171.76,1641.29 2176.22,1682.63 2180.68,1719.36 2189.61,1778.1 2198.54,1816 2207.47,1832.08 
  2216.4,1825.94 2220.86,1814.56 2225.32,1797.73 2229.79,1775.55 2234.25,1748.18 2243.54,1675.39 2252.82,1582.92 2262.1,1473.34 2271.39,1349.69 2289.95,1074.18 
  2308.52,786.738 2317.8,648.488 2327.09,519.044 2336.37,401.995 2345.65,300.589 2350.29,256.65 2354.94,217.638 2359.58,183.825 2364.22,155.444 2373.5,115.73 
  2382.79,99.5998 2390.6,104.65 2398.42,126.641 2406.23,165.14 2414.04,219.388 2421.86,288.321 2429.67,370.581 2437.49,464.55 2445.3,568.381 2460.93,797.305 
  2476.56,1039.43 2492.19,1275.8 2507.82,1487.92 2512.59,1545.21 2517.36,1598.26 2522.13,1646.66 2526.9,1690.07 2536.44,1760.68 2545.98,1808 2550.75,1822.47 
  2555.52,1830.66 2560.29,1832.5 2565.06,1827.98 2574.61,1800.06 2584.15,1747.7 2593.69,1672.44 2603.23,1576.48 2612.77,1462.64 2622.31,1334.25 2641.39,1049.18 
  2660.47,754.432 2669.44,622.364 2678.41,499.192 2687.38,388.105 2696.35,291.98 2705.31,213.306 2714.28,154.119 2718.77,132.333 2723.25,115.952 2727.74,105.082 
  2732.22,99.7935 2741.19,106.062 2750.16,134.595 2754.64,157.001 2759.13,184.653 2763.61,217.37 2768.09,254.941 2777.06,343.638 2786.03,448.449 2795,566.659 
  2803.97,695.207 2818.34,914.299 2832.71,1136.81 2839.89,1244.73 2847.07,1348.01 2854.26,1444.93 2861.44,1533.9 2868.63,1613.42 2875.81,1682.17 2882.99,1739.02 
  2890.18,1783.01 2897.36,1813.41 2904.55,1829.73 2911.73,1831.68 2918.92,1819.24 2926.1,1792.61 2933.28,1752.23 2940.47,1698.78 2947.65,1633.15 2954.84,1556.42 
  2962.02,1469.88 2969.2,1374.95 2976.39,1273.23 2990.76,1056.22 3005.13,833.243 3019.49,619.05 3033.86,427.832 3038.28,375.619 3042.71,327.128 3047.13,282.665 
  3051.55,242.511 3055.97,206.919 3060.4,176.114 3064.82,150.29 3069.24,129.609 
  "/>
<polyline clip-path="url(#clip342)" style="stroke:#c271d2; stroke-linecap:butt; stroke-linejoin:round; stroke-width:16; stroke-opacity:1; fill:none" points="
  285.45,965.942 292.246,860.405 299.043,756.438 305.839,655.589 312.636,559.36 320.491,455.764 328.347,362.308 336.202,280.848 344.058,213.004 351.913,160.124 
  359.768,123.259 367.624,103.141 375.479,100.171 383.335,114.407 391.19,145.567 399.046,193.03 406.901,255.855 414.756,332.792 422.612,422.312 430.467,522.636 
  438.323,631.771 454.034,867.663 469.744,1111.33 477.6,1230.04 485.455,1343.5 493.311,1449.45 501.166,1545.8 505.094,1589.76 509.022,1630.62 512.949,1668.17 
  516.877,1702.23 524.733,1759.21 532.588,1800.42 540.443,1825.05 548.299,1832.61 556.154,1822.94 564.01,1796.24 573.451,1742.38 582.893,1666.25 592.334,1570.02 
  601.776,1456.47 620.659,1190.81 639.542,899.523 648.984,754.634 658.426,615.806 667.867,487.024 677.309,371.982 682.029,320.663 686.75,273.98 691.471,232.269 
  696.192,195.829 705.633,139.772 715.075,107.417 723.058,99.2603 731.04,108.889 739.023,136.107 747.006,180.355 754.989,240.725 762.971,315.978 770.954,404.57 
  778.937,504.682 794.902,731.057 810.868,976.614 826.833,1221.3 842.799,1445.13 847.134,1499.86 851.47,1551.35 855.806,1599.3 860.142,1643.41 868.813,1719.06 
  877.485,1776.48 886.156,1814.28 894.828,1831.54 903.499,1827.84 912.171,1803.28 920.842,1758.45 929.514,1694.43 938.185,1612.78 946.857,1515.47 955.528,1404.85 
  964.2,1283.61 972.871,1154.68 981.543,1021.18 997.531,773.927 1013.52,542.404 1021.51,438.56 1029.51,345.571 1037.5,265.35 1045.5,199.549 1053.49,149.521 
  1061.49,116.297 1069.48,100.561 1077.47,102.635 1085.47,122.478 1093.46,159.682 1101.46,213.479 1109.45,282.764 1118.02,372.619 1126.59,476.506 1135.16,591.97 
  1143.74,716.278 1160.88,979.528 1178.02,1241.5 1186.59,1364.24 1195.16,1477.56 1203.73,1578.78 1212.3,1665.5 1216.59,1702.77 1220.87,1735.68 1225.16,1764.03 
  1229.44,1787.66 1238.01,1820.2 1246.58,1832.53 1251.55,1830.3 1256.51,1821.2 1261.48,1805.3 1266.44,1782.74 1271.41,1753.68 1276.37,1718.36 1281.34,1677.06 
  1286.3,1630.11 1296.24,1520.78 1306.17,1393.86 1316.1,1253.36 1326.03,1103.74 1345.89,796.266 1365.75,510.158 1375.68,386.605 1385.61,281.433 1390.57,236.808 
  1395.54,197.977 1400.5,165.25 1405.47,138.887 1414.29,108.355 1423.12,99.3226 1431.94,112.017 1440.76,146.119 1449.59,200.774 1458.41,274.612 1462.83,318.164 
  1467.24,365.782 1471.65,417.167 1476.06,471.998 1493.71,718.606 1511.36,989.861 1529.01,1258.73 1546.66,1498.43 1554.4,1588.03 1562.14,1665.64 1569.88,1729.75 
  1577.61,1779.13 1585.35,1812.83 1593.09,1830.19 1600.83,1830.88 1608.57,1814.89 1616.31,1782.52 1624.05,1734.41 1631.78,1671.47 1639.52,1594.93 1647.26,1506.25 
  1655,1407.15 1662.74,1299.55 1670.48,1185.51 1687.35,925.265 1704.22,668.732 1712.66,549.236 1721.1,439.291 1729.54,341.416 1737.97,257.856 1746.41,190.525 
  1754.85,140.966 1763.28,110.316 1771.72,99.276 1780.16,108.1 1788.59,136.586 1792.81,158.015 1797.03,184.081 1801.25,214.632 1805.47,249.495 1813.96,331.863 
  1822.44,428.936 1830.93,538.464 1839.42,657.906 1856.39,915.287 1873.37,1177.34 1881.85,1302.52 1890.34,1419.89 1898.83,1526.74 1907.31,1620.58 1915.8,1699.24 
  1924.29,1760.89 1932.78,1804.1 1941.26,1827.88 1945.95,1832.46 1950.65,1830.88 1955.34,1823.18 1960.03,1809.38 1964.72,1789.6 1969.41,1763.98 1974.11,1732.69 
  1978.8,1695.96 1988.18,1607.25 1997.56,1500.37 2006.95,1378.34 2016.33,1244.63 2035.1,957.522 2053.87,671.364 2063.25,538.81 2072.63,418.361 2082.02,313.429 
  2091.4,226.989 2095.86,193.089 2100.33,164.154 2104.79,140.372 2109.26,121.894 2118.19,101.293 2127.11,102.879 2136.04,126.612 2144.97,171.884 2149.43,202.254 
  2153.9,237.531 2158.36,277.489 2162.83,321.87 2171.76,422.737 2180.68,537.542 2189.61,663.341 2198.54,796.905 2216.4,1073.51 2234.25,1339.14 2243.54,1463.79 
  2252.82,1574.63 2262.1,1668.59 2271.39,1743.05 2276.03,1772.31 2280.67,1795.97 2285.31,1813.86 2289.95,1825.85 2294.59,1831.88 2299.24,1831.89 2303.88,1825.89 
  2308.52,1813.91 2317.8,1772.41 2327.09,1708.54 2336.37,1624.07 2345.65,1521.34 2354.94,1403.21 2364.22,1272.95 2373.5,1134.18 2382.79,990.739 2398.42,749.752 
  2414.04,525.691 2421.86,425.578 2429.67,336.094 2437.49,258.998 2445.3,195.806 2453.12,147.762 2460.93,115.809 2468.75,100.578 2476.56,102.366 2484.38,121.14 
  2492.19,156.529 2500.01,207.838 2507.82,274.058 2517.36,373.202 2526.9,489.709 2536.44,620.166 2545.98,760.753 2565.06,1055.66 2584.15,1340.14 2593.69,1467.97 
  2603.23,1581.09 2612.77,1676.19 2622.31,1750.49 2627.08,1779.13 2631.85,1801.8 2636.62,1818.34 2641.39,1828.63 2646.16,1832.59 2650.93,1830.19 2655.7,1821.45 
  2660.47,1806.43 2669.44,1761.63 2678.41,1696.22 2687.38,1611.91 2696.35,1510.86 2705.31,1395.71 2714.28,1269.43 2723.25,1135.3 2732.22,996.774 2741.19,857.453 
  2750.16,720.942 2759.13,590.774 2768.09,470.32 2777.06,362.699 2786.03,270.698 2795,196.698 2803.97,142.616 2811.15,114.623 2818.34,100.785 2825.52,101.332 
  2832.71,116.255 2839.89,145.306 2847.07,188.002 2854.26,243.633 2861.44,311.273 2868.63,389.799 2875.81,477.905 2882.99,574.125 2890.18,676.86 2904.55,894.962 
  2918.92,1117.76 2926.1,1226.3 2933.28,1330.51 2940.47,1428.66 2947.65,1519.11 2954.84,1600.37 2962.02,1671.08 2969.2,1730.06 2976.39,1776.34 2983.57,1809.14 
  2990.76,1827.92 2997.94,1832.38 3005.13,1822.42 3012.31,1798.22 3019.49,1760.19 3026.68,1708.95 3033.86,1645.36 3042.71,1551.67 3051.55,1443.24 3060.4,1322.78 
  3069.24,1193.34 
  "/>
<path clip-path="url(#clip340)" d="
M2645.31 497.29 L3054.4 497.29 L3054.4 108.49 L2645.31 108.49  Z
  " fill="#ffffff" fill-rule="evenodd" fill-opacity="1"/>
<polyline clip-path="url(#clip340)" style="stroke:#000000; stroke-linecap:butt; stroke-linejoin:round; stroke-width:4; stroke-opacity:1; fill:none" points="
  2645.31,497.29 3054.4,497.29 3054.4,108.49 2645.31,108.49 2645.31,497.29 
  "/>
<circle clip-path="url(#clip340)" cx="2776.46" cy="186.25" r="34" fill="#009af9" fill-rule="evenodd" fill-opacity="1" stroke="#000000" stroke-opacity="1" stroke-width="9.6"/>
<path clip-path="url(#clip340)" d="M2928.37 215.781 Q2925.66 222.725 2923.09 224.843 Q2920.52 226.961 2916.22 226.961 L2911.11 226.961 L2911.11 221.614 L2914.86 221.614 Q2917.5 221.614 2918.96 220.364 Q2920.42 219.114 2922.19 214.461 L2923.34 211.545 L2907.61 173.281 L2914.38 173.281 L2926.53 203.697 L2938.68 173.281 L2945.45 173.281 L2928.37 215.781 Z" fill="#000000" fill-rule="evenodd" fill-opacity="1" /><path clip-path="url(#clip340)" d="M2956.39 206.267 L2967.85 206.267 L2967.85 166.718 L2955.38 169.218 L2955.38 162.83 L2967.78 160.33 L2974.79 160.33 L2974.79 206.267 L2986.25 206.267 L2986.25 212.17 L2956.39 212.17 L2956.39 206.267 Z" fill="#000000" fill-rule="evenodd" fill-opacity="1" /><circle clip-path="url(#clip340)" cx="2776.46" cy="264.01" r="34" fill="#e26f46" fill-rule="evenodd" fill-opacity="1" stroke="#000000" stroke-opacity="1" stroke-width="9.6"/>
<path clip-path="url(#clip340)" d="M2928.37 293.541 Q2925.66 300.485 2923.09 302.603 Q2920.52 304.721 2916.22 304.721 L2911.11 304.721 L2911.11 299.374 L2914.86 299.374 Q2917.5 299.374 2918.96 298.124 Q2920.42 296.874 2922.19 292.221 L2923.34 289.305 L2907.61 251.041 L2914.38 251.041 L2926.53 281.457 L2938.68 251.041 L2945.45 251.041 L2928.37 293.541 Z" fill="#000000" fill-rule="evenodd" fill-opacity="1" /><path clip-path="url(#clip340)" d="M2961.22 284.027 L2985.7 284.027 L2985.7 289.93 L2952.78 289.93 L2952.78 284.027 Q2956.77 279.895 2963.65 272.95 Q2970.56 265.971 2972.33 263.957 Q2975.7 260.173 2977.02 257.569 Q2978.37 254.93 2978.37 252.395 Q2978.37 248.263 2975.45 245.659 Q2972.57 243.055 2967.92 243.055 Q2964.62 243.055 2960.94 244.201 Q2957.29 245.346 2953.13 247.673 L2953.13 240.59 Q2957.36 238.888 2961.04 238.02 Q2964.72 237.152 2967.78 237.152 Q2975.84 237.152 2980.63 241.18 Q2985.42 245.208 2985.42 251.944 Q2985.42 255.138 2984.2 258.02 Q2983.02 260.867 2979.86 264.756 Q2979 265.763 2974.34 270.589 Q2969.69 275.381 2961.22 284.027 Z" fill="#000000" fill-rule="evenodd" fill-opacity="1" /><polyline clip-path="url(#clip340)" style="stroke:#3da44d; stroke-linecap:butt; stroke-linejoin:round; stroke-width:6; stroke-opacity:1; fill:none" points="
  2678.1,341.77 2874.82,341.77 
  "/>
<path clip-path="url(#clip340)" d="M2928.37 371.301 Q2925.66 378.245 2923.09 380.363 Q2920.52 382.481 2916.22 382.481 L2911.11 382.481 L2911.11 377.134 L2914.86 377.134 Q2917.5 377.134 2918.96 375.884 Q2920.42 374.634 2922.19 369.981 L2923.34 367.065 L2907.61 328.801 L2914.38 328.801 L2926.53 359.217 L2938.68 328.801 L2945.45 328.801 L2928.37 371.301 Z" fill="#000000" fill-rule="evenodd" fill-opacity="1" /><path clip-path="url(#clip340)" d="M2976.43 339.738 Q2981.46 340.815 2984.27 344.217 Q2987.12 347.62 2987.12 352.62 Q2987.12 360.294 2981.84 364.495 Q2976.56 368.696 2966.84 368.696 Q2963.58 368.696 2960.11 368.037 Q2956.67 367.412 2952.99 366.127 L2952.99 359.356 Q2955.9 361.058 2959.38 361.926 Q2962.85 362.794 2966.63 362.794 Q2973.23 362.794 2976.67 360.19 Q2980.14 357.585 2980.14 352.62 Q2980.14 348.037 2976.91 345.467 Q2973.72 342.863 2967.99 342.863 L2961.95 342.863 L2961.95 337.099 L2968.27 337.099 Q2973.44 337.099 2976.18 335.051 Q2978.93 332.968 2978.93 329.079 Q2978.93 325.086 2976.08 322.968 Q2973.27 320.815 2967.99 320.815 Q2965.11 320.815 2961.81 321.44 Q2958.51 322.065 2954.55 323.384 L2954.55 317.134 Q2958.54 316.023 2962.02 315.468 Q2965.52 314.912 2968.61 314.912 Q2976.6 314.912 2981.25 318.558 Q2985.9 322.169 2985.9 328.349 Q2985.9 332.655 2983.44 335.641 Q2980.97 338.592 2976.43 339.738 Z" fill="#000000" fill-rule="evenodd" fill-opacity="1" /><polyline clip-path="url(#clip340)" style="stroke:#c271d2; stroke-linecap:butt; stroke-linejoin:round; stroke-width:6; stroke-opacity:1; fill:none" points="
  2678.1,419.53 2874.82,419.53 
  "/>
<path clip-path="url(#clip340)" d="M2928.37 449.061 Q2925.66 456.005 2923.09 458.123 Q2920.52 460.241 2916.22 460.241 L2911.11 460.241 L2911.11 454.894 L2914.86 454.894 Q2917.5 454.894 2918.96 453.644 Q2920.42 452.394 2922.19 447.741 L2923.34 444.825 L2907.61 406.561 L2914.38 406.561 L2926.53 436.977 L2938.68 406.561 L2945.45 406.561 L2928.37 449.061 Z" fill="#000000" fill-rule="evenodd" fill-opacity="1" /><path clip-path="url(#clip340)" d="M2974.45 399.721 L2956.74 427.394 L2974.45 427.394 L2974.45 399.721 M2972.61 393.61 L2981.43 393.61 L2981.43 427.394 L2988.82 427.394 L2988.82 433.227 L2981.43 433.227 L2981.43 445.45 L2974.45 445.45 L2974.45 433.227 L2951.04 433.227 L2951.04 426.457 L2972.61 393.61 Z" fill="#000000" fill-rule="evenodd" fill-opacity="1" /></svg>
