<?xml version="1.0" encoding="utf-8"?>
<svg xmlns="http://www.w3.org/2000/svg" xmlns:xlink="http://www.w3.org/1999/xlink" width="600" height="400" viewBox="0 0 2400 1600">
<defs>
  <clipPath id="clip820">
    <rect x="0" y="0" width="2400" height="1600"/>
  </clipPath>
</defs>
<path clip-path="url(#clip820)" d="
M0 1600 L2400 1600 L2400 0 L0 0  Z
  " fill="#ffffff" fill-rule="evenodd" fill-opacity="1"/>
<defs>
  <clipPath id="clip821">
    <rect x="480" y="0" width="1681" height="1600"/>
  </clipPath>
</defs>
<defs>
  <clipPath id="clip822">
    <rect x="251" y="47" width="2102" height="1365"/>
  </clipPath>
</defs>
<path clip-path="url(#clip820)" d="
M251.842 1410.9 L2352.76 1410.9 L2352.76 47.2441 L251.842 47.2441  Z
  " fill="#ffffff" fill-rule="evenodd" fill-opacity="1"/>
<polyline clip-path="url(#clip822)" style="stroke:#000000; stroke-linecap:butt; stroke-linejoin:round; stroke-width:2; stroke-opacity:0.1; fill:none" points="
  695.283,1410.9 695.283,47.2441 
  "/>
<polyline clip-path="url(#clip822)" style="stroke:#000000; stroke-linecap:butt; stroke-linejoin:round; stroke-width:2; stroke-opacity:0.1; fill:none" points="
  1635.86,1410.9 1635.86,47.2441 
  "/>
<polyline clip-path="url(#clip820)" style="stroke:#000000; stroke-linecap:butt; stroke-linejoin:round; stroke-width:4; stroke-opacity:1; fill:none" points="
  251.842,1410.9 2352.76,1410.9 
  "/>
<polyline clip-path="url(#clip820)" style="stroke:#000000; stroke-linecap:butt; stroke-linejoin:round; stroke-width:4; stroke-opacity:1; fill:none" points="
  695.283,1410.9 695.283,1392 
  "/>
<polyline clip-path="url(#clip820)" style="stroke:#000000; stroke-linecap:butt; stroke-linejoin:round; stroke-width:4; stroke-opacity:1; fill:none" points="
  1635.86,1410.9 1635.86,1392 
  "/>
<path clip-path="url(#clip820)" d="M645.549 1485.02 L653.188 1485.02 L653.188 1458.66 L644.878 1460.32 L644.878 1456.06 L653.142 1454.4 L657.818 1454.4 L657.818 1485.02 L665.456 1485.02 L665.456 1488.96 L645.549 1488.96 L645.549 1485.02 Z" fill="#000000" fill-rule="evenodd" fill-opacity="1" /><path clip-path="url(#clip820)" d="M684.901 1457.48 Q681.29 1457.48 679.461 1461.04 Q677.655 1464.58 677.655 1471.71 Q677.655 1478.82 679.461 1482.38 Q681.29 1485.92 684.901 1485.92 Q688.535 1485.92 690.341 1482.38 Q692.169 1478.82 692.169 1471.71 Q692.169 1464.58 690.341 1461.04 Q688.535 1457.48 684.901 1457.48 M684.901 1453.77 Q690.711 1453.77 693.767 1458.38 Q696.845 1462.96 696.845 1471.71 Q696.845 1480.44 693.767 1485.04 Q690.711 1489.63 684.901 1489.63 Q679.091 1489.63 676.012 1485.04 Q672.956 1480.44 672.956 1471.71 Q672.956 1462.96 676.012 1458.38 Q679.091 1453.77 684.901 1453.77 Z" fill="#000000" fill-rule="evenodd" fill-opacity="1" /><path clip-path="url(#clip820)" d="M696.845 1447.87 L720.957 1447.87 L720.957 1451.07 L696.845 1451.07 L696.845 1447.87 Z" fill="#000000" fill-rule="evenodd" fill-opacity="1" /><path clip-path="url(#clip820)" d="M732.43 1458.35 L745.689 1458.35 L745.689 1461.55 L727.859 1461.55 L727.859 1458.35 Q730.022 1456.11 733.746 1452.35 Q737.489 1448.57 738.448 1447.48 Q740.272 1445.43 740.987 1444.02 Q741.721 1442.59 741.721 1441.22 Q741.721 1438.98 740.141 1437.57 Q738.58 1436.16 736.059 1436.16 Q734.273 1436.16 732.279 1436.78 Q730.304 1437.4 728.047 1438.66 L728.047 1434.82 Q730.342 1433.9 732.335 1433.43 Q734.329 1432.96 735.984 1432.96 Q740.348 1432.96 742.943 1435.14 Q745.539 1437.32 745.539 1440.97 Q745.539 1442.7 744.88 1444.26 Q744.241 1445.8 742.529 1447.91 Q742.059 1448.46 739.539 1451.07 Q737.019 1453.67 732.43 1458.35 Z" fill="#000000" fill-rule="evenodd" fill-opacity="1" /><path clip-path="url(#clip820)" d="M1585.98 1485.02 L1593.61 1485.02 L1593.61 1458.66 L1585.3 1460.32 L1585.3 1456.06 L1593.57 1454.4 L1598.24 1454.4 L1598.24 1485.02 L1605.88 1485.02 L1605.88 1488.96 L1585.98 1488.96 L1585.98 1485.02 Z" fill="#000000" fill-rule="evenodd" fill-opacity="1" /><path clip-path="url(#clip820)" d="M1625.33 1457.48 Q1621.72 1457.48 1619.89 1461.04 Q1618.08 1464.58 1618.08 1471.71 Q1618.08 1478.82 1619.89 1482.38 Q1621.72 1485.92 1625.33 1485.92 Q1628.96 1485.92 1630.77 1482.38 Q1632.6 1478.82 1632.6 1471.71 Q1632.6 1464.58 1630.77 1461.04 Q1628.96 1457.48 1625.33 1457.48 M1625.33 1453.77 Q1631.14 1453.77 1634.19 1458.38 Q1637.27 1462.96 1637.27 1471.71 Q1637.27 1480.44 1634.19 1485.04 Q1631.14 1489.63 1625.33 1489.63 Q1619.52 1489.63 1616.44 1485.04 Q1613.38 1480.44 1613.38 1471.71 Q1613.38 1462.96 1616.44 1458.38 Q1619.52 1453.77 1625.33 1453.77 Z" fill="#000000" fill-rule="evenodd" fill-opacity="1" /><path clip-path="url(#clip820)" d="M1637.27 1447.87 L1661.38 1447.87 L1661.38 1451.07 L1637.27 1451.07 L1637.27 1447.87 Z" fill="#000000" fill-rule="evenodd" fill-opacity="1" /><path clip-path="url(#clip820)" d="M1670.24 1458.35 L1676.45 1458.35 L1676.45 1436.93 L1669.7 1438.28 L1669.7 1434.82 L1676.41 1433.47 L1680.21 1433.47 L1680.21 1458.35 L1686.42 1458.35 L1686.42 1461.55 L1670.24 1461.55 L1670.24 1458.35 Z" fill="#000000" fill-rule="evenodd" fill-opacity="1" /><path clip-path="url(#clip820)" d="M1263.85 1584.68 Q1263.85 1584.42 1264.72 1582.74 Q1265.59 1581.04 1268.65 1574.95 Q1271.71 1568.83 1274.86 1562.42 L1286.23 1539.56 Q1287.04 1538.11 1288.07 1538.11 Q1289 1538.11 1289.42 1538.69 Q1289.84 1539.27 1291.77 1543.16 Q1292.77 1545.06 1293.35 1546.29 L1311.99 1583.61 Q1312.32 1584.42 1312.35 1584.68 Q1312.35 1585.32 1311.22 1585.32 L1265.59 1585.32 Q1263.85 1585.32 1263.85 1584.68 M1268.19 1580.3 L1303.69 1580.3 L1285.94 1544.68 L1268.19 1580.3 Z" fill="#000000" fill-rule="evenodd" fill-opacity="1" /><path clip-path="url(#clip820)" d="M1337.44 1557.62 Q1337.44 1558.53 1337.02 1558.75 Q1336.6 1558.94 1335.44 1558.94 L1329.26 1558.94 L1324.36 1578.4 Q1323.97 1580.1 1323.97 1581.55 Q1323.97 1583.16 1324.46 1583.87 Q1324.97 1584.58 1326.03 1584.58 Q1328.13 1584.58 1330.38 1582.68 Q1332.67 1580.78 1334.6 1576.14 Q1334.86 1575.53 1334.99 1575.4 Q1335.15 1575.24 1335.57 1575.24 Q1336.37 1575.24 1336.37 1575.88 Q1336.37 1576.11 1335.92 1577.14 Q1335.5 1578.17 1334.57 1579.69 Q1333.67 1581.2 1332.48 1582.62 Q1331.32 1584.03 1329.55 1585.06 Q1327.77 1586.06 1325.87 1586.06 Q1323.2 1586.06 1321.49 1584.35 Q1319.82 1582.65 1319.82 1579.97 Q1319.82 1579.11 1320.5 1576.34 Q1321.17 1573.53 1324.84 1558.94 L1319.01 1558.94 Q1318.21 1558.94 1317.89 1558.91 Q1317.6 1558.88 1317.37 1558.72 Q1317.18 1558.53 1317.18 1558.14 Q1317.18 1557.53 1317.44 1557.27 Q1317.69 1556.98 1318.02 1556.95 Q1318.37 1556.88 1319.17 1556.88 L1325.36 1556.88 L1327.93 1546.42 Q1328.19 1545.39 1328.84 1544.81 Q1329.51 1544.19 1329.9 1544.13 Q1330.29 1544.03 1330.58 1544.03 Q1331.45 1544.03 1331.96 1544.52 Q1332.48 1544.97 1332.48 1545.8 Q1332.48 1546.26 1329.77 1556.88 L1335.57 1556.88 Q1336.31 1556.88 1336.6 1556.92 Q1336.92 1556.95 1337.18 1557.11 Q1337.44 1557.27 1337.44 1557.62 Z" fill="#000000" fill-rule="evenodd" fill-opacity="1" /><polyline clip-path="url(#clip822)" style="stroke:#000000; stroke-linecap:butt; stroke-linejoin:round; stroke-width:2; stroke-opacity:0.1; fill:none" points="
  251.842,968.28 2352.76,968.28 
  "/>
<polyline clip-path="url(#clip822)" style="stroke:#000000; stroke-linecap:butt; stroke-linejoin:round; stroke-width:2; stroke-opacity:0.1; fill:none" points="
  251.842,301.018 2352.76,301.018 
  "/>
<polyline clip-path="url(#clip820)" style="stroke:#000000; stroke-linecap:butt; stroke-linejoin:round; stroke-width:4; stroke-opacity:1; fill:none" points="
  251.842,1410.9 251.842,47.2441 
  "/>
<polyline clip-path="url(#clip820)" style="stroke:#000000; stroke-linecap:butt; stroke-linejoin:round; stroke-width:4; stroke-opacity:1; fill:none" points="
  251.842,968.28 270.74,968.28 
  "/>
<polyline clip-path="url(#clip820)" style="stroke:#000000; stroke-linecap:butt; stroke-linejoin:round; stroke-width:4; stroke-opacity:1; fill:none" points="
  251.842,301.018 270.74,301.018 
  "/>
<path clip-path="url(#clip820)" d="M114.931 988.072 L122.57 988.072 L122.57 961.707 L114.26 963.373 L114.26 959.114 L122.524 957.447 L127.2 957.447 L127.2 988.072 L134.839 988.072 L134.839 992.007 L114.931 992.007 L114.931 988.072 Z" fill="#000000" fill-rule="evenodd" fill-opacity="1" /><path clip-path="url(#clip820)" d="M154.283 960.526 Q150.672 960.526 148.843 964.091 Q147.038 967.633 147.038 974.762 Q147.038 981.869 148.843 985.433 Q150.672 988.975 154.283 988.975 Q157.917 988.975 159.723 985.433 Q161.552 981.869 161.552 974.762 Q161.552 967.633 159.723 964.091 Q157.917 960.526 154.283 960.526 M154.283 956.822 Q160.093 956.822 163.149 961.429 Q166.227 966.012 166.227 974.762 Q166.227 983.489 163.149 988.095 Q160.093 992.679 154.283 992.679 Q148.473 992.679 145.394 988.095 Q142.339 983.489 142.339 974.762 Q142.339 966.012 145.394 961.429 Q148.473 956.822 154.283 956.822 Z" fill="#000000" fill-rule="evenodd" fill-opacity="1" /><path clip-path="url(#clip820)" d="M166.227 950.924 L190.339 950.924 L190.339 954.121 L166.227 954.121 L166.227 950.924 Z" fill="#000000" fill-rule="evenodd" fill-opacity="1" /><path clip-path="url(#clip820)" d="M210.05 949.457 Q212.777 950.04 214.3 951.883 Q215.842 953.726 215.842 956.435 Q215.842 960.591 212.984 962.867 Q210.125 965.143 204.859 965.143 Q203.091 965.143 201.21 964.785 Q199.348 964.447 197.354 963.751 L197.354 960.083 Q198.934 961.005 200.815 961.475 Q202.696 961.945 204.746 961.945 Q208.319 961.945 210.181 960.535 Q212.062 959.124 212.062 956.435 Q212.062 953.952 210.313 952.56 Q208.583 951.15 205.479 951.15 L202.207 951.15 L202.207 948.027 L205.63 948.027 Q208.432 948.027 209.918 946.918 Q211.404 945.789 211.404 943.683 Q211.404 941.52 209.861 940.373 Q208.338 939.207 205.479 939.207 Q203.918 939.207 202.132 939.545 Q200.345 939.884 198.201 940.598 L198.201 937.213 Q200.364 936.611 202.244 936.31 Q204.144 936.009 205.818 936.009 Q210.144 936.009 212.664 937.984 Q215.184 939.94 215.184 943.288 Q215.184 945.62 213.849 947.238 Q212.513 948.836 210.05 949.457 Z" fill="#000000" fill-rule="evenodd" fill-opacity="1" /><path clip-path="url(#clip820)" d="M145.137 320.81 L152.776 320.81 L152.776 294.445 L144.465 296.111 L144.465 291.852 L152.729 290.185 L157.405 290.185 L157.405 320.81 L165.044 320.81 L165.044 324.745 L145.137 324.745 L145.137 320.81 Z" fill="#000000" fill-rule="evenodd" fill-opacity="1" /><path clip-path="url(#clip820)" d="M184.488 293.264 Q180.877 293.264 179.049 296.829 Q177.243 300.37 177.243 307.5 Q177.243 314.606 179.049 318.171 Q180.877 321.713 184.488 321.713 Q188.123 321.713 189.928 318.171 Q191.757 314.606 191.757 307.5 Q191.757 300.37 189.928 296.829 Q188.123 293.264 184.488 293.264 M184.488 289.56 Q190.299 289.56 193.354 294.167 Q196.433 298.75 196.433 307.5 Q196.433 316.227 193.354 320.833 Q190.299 325.417 184.488 325.417 Q178.678 325.417 175.6 320.833 Q172.544 316.227 172.544 307.5 Q172.544 298.75 175.6 294.167 Q178.678 289.56 184.488 289.56 Z" fill="#000000" fill-rule="evenodd" fill-opacity="1" /><path clip-path="url(#clip820)" d="M206.138 271.756 Q203.204 271.756 201.718 274.653 Q200.251 277.53 200.251 283.323 Q200.251 289.097 201.718 291.993 Q203.204 294.871 206.138 294.871 Q209.09 294.871 210.557 291.993 Q212.043 289.097 212.043 283.323 Q212.043 277.53 210.557 274.653 Q209.09 271.756 206.138 271.756 M206.138 268.747 Q210.858 268.747 213.341 272.49 Q215.842 276.214 215.842 283.323 Q215.842 290.414 213.341 294.156 Q210.858 297.88 206.138 297.88 Q201.417 297.88 198.915 294.156 Q196.433 290.414 196.433 283.323 Q196.433 276.214 198.915 272.49 Q201.417 268.747 206.138 268.747 Z" fill="#000000" fill-rule="evenodd" fill-opacity="1" /><path clip-path="url(#clip820)" d="M29.7248 765.912 L35.1993 765.912 Q33.8307 768.395 33.1623 770.909 Q32.4621 773.392 32.4621 775.938 Q32.4621 781.635 36.0905 784.786 Q39.6872 787.937 46.212 787.937 Q52.7369 787.937 56.3653 784.786 Q59.9619 781.635 59.9619 775.938 Q59.9619 773.392 59.2935 770.909 Q58.5933 768.395 57.2247 765.912 L62.6355 765.912 Q63.7814 768.363 64.3543 771.004 Q64.9272 773.614 64.9272 776.574 Q64.9272 784.627 59.8664 789.37 Q54.8057 794.112 46.212 794.112 Q37.491 794.112 32.4939 789.338 Q27.4968 784.532 27.4968 776.193 Q27.4968 773.487 28.0697 770.909 Q28.6108 768.331 29.7248 765.912 Z" fill="#000000" fill-rule="evenodd" fill-opacity="1" /><path clip-path="url(#clip820)" d="M32.4621 741.913 Q32.4621 746.624 36.1542 749.361 Q39.8145 752.098 46.212 752.098 Q52.6095 752.098 56.3017 749.393 Q59.9619 746.656 59.9619 741.913 Q59.9619 737.234 56.2698 734.497 Q52.5777 731.76 46.212 731.76 Q39.8781 731.76 36.186 734.497 Q32.4621 737.234 32.4621 741.913 M27.4968 741.913 Q27.4968 734.274 32.4621 729.914 Q37.4273 725.553 46.212 725.553 Q54.9649 725.553 59.9619 729.914 Q64.9272 734.274 64.9272 741.913 Q64.9272 749.584 59.9619 753.944 Q54.9649 758.273 46.212 758.273 Q37.4273 758.273 32.4621 753.944 Q27.4968 749.584 27.4968 741.913 Z" fill="#000000" fill-rule="evenodd" fill-opacity="1" /><path clip-path="url(#clip820)" d="M29.4065 693.12 L34.9447 693.12 Q33.6716 695.603 33.035 698.276 Q32.3984 700.95 32.3984 703.814 Q32.3984 708.175 33.7352 710.371 Q35.072 712.535 37.7456 712.535 Q39.7826 712.535 40.9603 710.976 Q42.1061 709.416 43.1565 704.706 L43.6021 702.7 Q44.9389 696.462 47.3897 693.852 Q49.8086 691.21 54.1691 691.21 Q59.1344 691.21 62.0308 695.157 Q64.9272 699.072 64.9272 705.947 Q64.9272 708.812 64.3543 711.931 Q63.8132 715.018 62.6992 718.456 L56.6518 718.456 Q58.3387 715.209 59.198 712.058 Q60.0256 708.907 60.0256 705.82 Q60.0256 701.682 58.6251 699.454 Q57.1929 697.226 54.6147 697.226 Q52.2276 697.226 50.9545 698.849 Q49.6813 700.441 48.5037 705.883 L48.0262 707.92 Q46.8804 713.363 44.5251 715.782 Q42.138 718.201 38.0002 718.201 Q32.9713 718.201 30.2341 714.636 Q27.4968 711.071 27.4968 704.515 Q27.4968 701.268 27.9743 698.404 Q28.4517 695.539 29.4065 693.12 Z" fill="#000000" fill-rule="evenodd" fill-opacity="1" /><path clip-path="url(#clip820)" d="M18.2347 676.092 L28.3562 676.092 L28.3562 664.029 L32.9077 664.029 L32.9077 676.092 L52.2594 676.092 Q56.6199 676.092 57.8613 674.914 Q59.1026 673.705 59.1026 670.044 L59.1026 664.029 L64.0042 664.029 L64.0042 670.044 Q64.0042 676.824 61.4897 679.402 Q58.9434 681.98 52.2594 681.98 L32.9077 681.98 L32.9077 686.277 L28.3562 686.277 L28.3562 681.98 L18.2347 681.98 L18.2347 676.092 Z" fill="#000000" fill-rule="evenodd" fill-opacity="1" /><polyline clip-path="url(#clip822)" style="stroke:#009af9; stroke-linecap:butt; stroke-linejoin:round; stroke-width:16; stroke-opacity:1; fill:none" points="
  2293.3,85.838 2010.15,669.337 1727.01,739.398 1443.87,807.987 1160.73,875.78 877.586,943.16 594.444,1010.33 311.302,1077.39 
  "/>
<circle clip-path="url(#clip822)" cx="2293.3" cy="85.838" r="14" fill="#009af9" fill-rule="evenodd" fill-opacity="1" stroke="#000000" stroke-opacity="1" stroke-width="3.2"/>
<circle clip-path="url(#clip822)" cx="2010.15" cy="669.337" r="14" fill="#009af9" fill-rule="evenodd" fill-opacity="1" stroke="#000000" stroke-opacity="1" stroke-width="3.2"/>
<circle clip-path="url(#clip822)" cx="1727.01" cy="739.398" r="14" fill="#009af9" fill-rule="evenodd" fill-opacity="1" stroke="#000000" stroke-opacity="1" stroke-width="3.2"/>
<circle clip-path="url(#clip822)" cx="1443.87" cy="807.987" r="14" fill="#009af9" fill-rule="evenodd" fill-opacity="1" stroke="#000000" stroke-opacity="1" stroke-width="3.2"/>
<circle clip-path="url(#clip822)" cx="1160.73" cy="875.78" r="14" fill="#009af9" fill-rule="evenodd" fill-opacity="1" stroke="#000000" stroke-opacity="1" stroke-width="3.2"/>
<circle clip-path="url(#clip822)" cx="877.586" cy="943.16" r="14" fill="#009af9" fill-rule="evenodd" fill-opacity="1" stroke="#000000" stroke-opacity="1" stroke-width="3.2"/>
<circle clip-path="url(#clip822)" cx="594.444" cy="1010.33" r="14" fill="#009af9" fill-rule="evenodd" fill-opacity="1" stroke="#000000" stroke-opacity="1" stroke-width="3.2"/>
<circle clip-path="url(#clip822)" cx="311.302" cy="1077.39" r="14" fill="#009af9" fill-rule="evenodd" fill-opacity="1" stroke="#000000" stroke-opacity="1" stroke-width="3.2"/>
<polyline clip-path="url(#clip822)" style="stroke:#e26f46; stroke-linecap:butt; stroke-linejoin:round; stroke-width:16; stroke-opacity:1; fill:none" points="
  2293.3,367.973 2010.15,434.928 1727.01,501.884 1443.87,568.839 1160.73,635.794 877.586,702.75 594.444,769.705 311.302,836.66 
  "/>
<polyline clip-path="url(#clip822)" style="stroke:#3da44d; stroke-linecap:butt; stroke-linejoin:round; stroke-width:16; stroke-opacity:1; fill:none" points="
  2293.3,434.928 2010.15,568.839 1727.01,702.75 1443.87,836.66 1160.73,970.571 877.586,1104.48 594.444,1238.39 311.302,1372.3 
  "/>
<path clip-path="url(#clip820)" d="
M321.873 403.739 L633.953 403.739 L633.953 92.6992 L321.873 92.6992  Z
  " fill="#ffffff" fill-rule="evenodd" fill-opacity="1"/>
<polyline clip-path="url(#clip820)" style="stroke:#000000; stroke-linecap:butt; stroke-linejoin:round; stroke-width:4; stroke-opacity:1; fill:none" points="
  321.873,403.739 633.953,403.739 633.953,92.6992 321.873,92.6992 321.873,403.739 
  "/>
<polyline clip-path="url(#clip820)" style="stroke:#009af9; stroke-linecap:butt; stroke-linejoin:round; stroke-width:6; stroke-opacity:1; fill:none" points="
  345.216,170.459 485.277,170.459 
  "/>
<circle clip-path="url(#clip820)" cx="415.247" cy="170.459" r="34" fill="#009af9" fill-rule="evenodd" fill-opacity="1" stroke="#000000" stroke-opacity="1" stroke-width="7.68"/>
<path clip-path="url(#clip820)" d="M529.384 199.99 Q526.676 206.935 524.107 209.053 Q521.537 211.171 517.232 211.171 L512.128 211.171 L512.128 205.824 L515.878 205.824 Q518.516 205.824 519.975 204.574 Q521.433 203.324 523.204 198.671 L524.35 195.754 L508.621 157.49 L515.391 157.49 L527.544 187.907 L539.697 157.49 L546.468 157.49 L529.384 199.99 Z" fill="#000000" fill-rule="evenodd" fill-opacity="1" /><path clip-path="url(#clip820)" d="M557.405 190.476 L568.863 190.476 L568.863 150.928 L556.398 153.428 L556.398 147.039 L568.794 144.539 L575.808 144.539 L575.808 190.476 L587.266 190.476 L587.266 196.379 L557.405 196.379 L557.405 190.476 Z" fill="#000000" fill-rule="evenodd" fill-opacity="1" /><polyline clip-path="url(#clip820)" style="stroke:#e26f46; stroke-linecap:butt; stroke-linejoin:round; stroke-width:6; stroke-opacity:1; fill:none" points="
  345.216,248.219 485.277,248.219 
  "/>
<path clip-path="url(#clip820)" d="M543.93 272.621 Q543.93 272.902 543.614 273.991 Q543.298 275.08 542.525 276.767 Q541.787 278.453 540.768 279.999 Q539.749 281.51 538.063 282.634 Q536.411 283.723 534.514 283.723 Q531.985 283.723 530.298 282.037 Q528.612 280.351 528.612 277.821 Q528.612 277.47 528.647 277.118 Q528.682 276.767 528.717 276.556 Q528.752 276.31 528.858 275.924 Q528.998 275.502 529.033 275.326 Q529.104 275.151 529.279 274.624 Q529.49 274.062 529.56 273.851 Q534.022 262.468 534.022 257.724 Q534.022 252.7 530.122 252.7 Q526.644 252.7 523.201 255.23 Q521.62 256.495 520.109 258.743 Q518.599 260.992 518.318 261.835 Q518.001 263.662 517.545 265.067 Q517.334 266.051 516.315 269.881 L514.734 276.38 L513.364 281.826 Q513.083 282.599 512.31 283.161 Q511.537 283.723 510.694 283.723 Q509.991 283.723 509.288 283.232 Q508.621 282.775 508.621 281.686 Q508.621 281.123 508.902 280.105 L519.336 238.647 L519.547 237.242 Q519.547 236.82 519.372 236.609 Q519.231 236.363 518.388 236.188 Q517.58 236.012 515.964 236.012 Q515.296 236.012 514.98 235.977 Q514.699 235.942 514.453 235.766 Q514.207 235.555 514.207 235.134 Q514.207 234.536 514.453 234.22 Q514.734 233.869 514.945 233.798 Q515.156 233.728 515.577 233.693 Q516.174 233.658 518.177 233.482 Q520.18 233.271 521.901 233.131 Q523.623 232.99 524.361 232.99 Q524.782 232.99 524.993 233.201 Q525.239 233.377 525.274 233.588 L525.309 233.763 L519.688 256.635 Q524.15 251.119 530.333 251.119 Q534.339 251.119 536.482 253.192 Q538.625 255.23 538.625 258.814 Q538.625 262.924 534.233 274.624 Q532.933 277.891 532.933 279.753 Q532.933 280.983 533.32 281.545 Q533.741 282.107 534.655 282.107 Q536.06 282.107 537.29 281.299 Q538.555 280.456 539.433 279.086 Q540.311 277.68 540.909 276.275 Q541.541 274.835 541.998 273.218 Q542.279 272.34 542.419 272.129 Q542.595 271.918 543.087 271.918 Q543.93 271.918 543.93 272.621 Z" fill="#000000" fill-rule="evenodd" fill-opacity="1" /><polyline clip-path="url(#clip820)" style="stroke:#3da44d; stroke-linecap:butt; stroke-linejoin:round; stroke-width:6; stroke-opacity:1; fill:none" points="
  345.216,325.979 485.277,325.979 
  "/>
<path clip-path="url(#clip820)" d="M543.93 362.011 Q543.93 362.292 543.614 363.381 Q543.298 364.47 542.525 366.157 Q541.787 367.843 540.768 369.389 Q539.749 370.9 538.063 372.024 Q536.411 373.113 534.514 373.113 Q531.985 373.113 530.298 371.427 Q528.612 369.74 528.612 367.211 Q528.612 366.859 528.647 366.508 Q528.682 366.157 528.717 365.946 Q528.752 365.7 528.858 365.314 Q528.998 364.892 529.033 364.716 Q529.104 364.541 529.279 364.014 Q529.49 363.451 529.56 363.241 Q534.022 351.857 534.022 347.114 Q534.022 342.09 530.122 342.09 Q526.644 342.09 523.201 344.62 Q521.62 345.885 520.109 348.133 Q518.599 350.382 518.318 351.225 Q518.001 353.052 517.545 354.457 Q517.334 355.441 516.315 359.271 L514.734 365.77 L513.364 371.216 Q513.083 371.989 512.31 372.551 Q511.537 373.113 510.694 373.113 Q509.991 373.113 509.288 372.621 Q508.621 372.165 508.621 371.075 Q508.621 370.513 508.902 369.494 L519.336 328.037 L519.547 326.631 Q519.547 326.21 519.372 325.999 Q519.231 325.753 518.388 325.577 Q517.58 325.402 515.964 325.402 Q515.296 325.402 514.98 325.367 Q514.699 325.331 514.453 325.156 Q514.207 324.945 514.207 324.523 Q514.207 323.926 514.453 323.61 Q514.734 323.259 514.945 323.188 Q515.156 323.118 515.577 323.083 Q516.174 323.048 518.177 322.872 Q520.18 322.661 521.901 322.521 Q523.623 322.38 524.361 322.38 Q524.782 322.38 524.993 322.591 Q525.239 322.767 525.274 322.977 L525.309 323.153 L519.688 346.025 Q524.15 340.509 530.333 340.509 Q534.339 340.509 536.482 342.582 Q538.625 344.62 538.625 348.203 Q538.625 352.314 534.233 364.014 Q532.933 367.281 532.933 369.143 Q532.933 370.373 533.32 370.935 Q533.741 371.497 534.655 371.497 Q536.06 371.497 537.29 370.689 Q538.555 369.846 539.433 368.476 Q540.311 367.07 540.909 365.665 Q541.541 364.224 541.998 362.608 Q542.279 361.73 542.419 361.519 Q542.595 361.308 543.087 361.308 Q543.93 361.308 543.93 362.011 Z" fill="#000000" fill-rule="evenodd" fill-opacity="1" /><path clip-path="url(#clip820)" d="M551.269 332.82 Q551.269 331.91 551.343 331.64 Q551.442 331.369 551.835 330.951 L561.5 320.179 Q566.788 314.228 566.788 309.038 Q566.788 305.669 565.017 303.259 Q563.271 300.849 560.049 300.849 Q557.836 300.849 555.967 302.201 Q554.098 303.554 553.237 305.964 Q553.384 305.915 553.901 305.915 Q555.155 305.915 555.844 306.702 Q556.557 307.489 556.557 308.547 Q556.557 309.899 555.672 310.563 Q554.811 311.203 553.95 311.203 Q553.606 311.203 553.139 311.129 Q552.696 311.055 551.983 310.367 Q551.269 309.653 551.269 308.399 Q551.269 304.882 553.926 302.079 Q556.606 299.275 560.689 299.275 Q565.312 299.275 568.337 302.029 Q571.387 304.759 571.387 309.038 Q571.387 310.539 570.92 311.916 Q570.477 313.269 569.862 314.326 Q569.272 315.384 567.649 317.081 Q566.026 318.778 564.722 319.983 Q563.419 321.188 560.492 323.745 L555.155 328.935 L564.23 328.935 Q568.657 328.935 569.001 328.541 Q569.493 327.828 570.108 324.065 L571.387 324.065 L569.961 332.82 L551.269 332.82 Z" fill="#000000" fill-rule="evenodd" fill-opacity="1" /></svg>
