<?xml version="1.0" encoding="utf-8"?>
<svg xmlns="http://www.w3.org/2000/svg" xmlns:xlink="http://www.w3.org/1999/xlink" width="600" height="400" viewBox="0 0 2400 1600">
<defs>
  <clipPath id="clip840">
    <rect x="0" y="0" width="2400" height="1600"/>
  </clipPath>
</defs>
<path clip-path="url(#clip840)" d="
M0 1600 L2400 1600 L2400 0 L0 0  Z
  " fill="#ffffff" fill-rule="evenodd" fill-opacity="1"/>
<defs>
  <clipPath id="clip841">
    <rect x="480" y="0" width="1681" height="1600"/>
  </clipPath>
</defs>
<path clip-path="url(#clip840)" d="
M328.011 1474.16 L2352.76 1474.16 L2352.76 47.2441 L328.011 47.2441  Z
  " fill="#ffffff" fill-rule="evenodd" fill-opacity="1"/>
<defs>
  <clipPath id="clip842">
    <rect x="328" y="47" width="2026" height="1428"/>
  </clipPath>
</defs>
<polyline clip-path="url(#clip842)" style="stroke:#000000; stroke-linecap:butt; stroke-linejoin:round; stroke-width:2; stroke-opacity:0.1; fill:none" points="
  328.011,1474.16 328.011,47.2441 
  "/>
<polyline clip-path="url(#clip842)" style="stroke:#000000; stroke-linecap:butt; stroke-linejoin:round; stroke-width:2; stroke-opacity:0.1; fill:none" points="
  834.197,1474.16 834.197,47.2441 
  "/>
<polyline clip-path="url(#clip842)" style="stroke:#000000; stroke-linecap:butt; stroke-linejoin:round; stroke-width:2; stroke-opacity:0.1; fill:none" points="
  1340.38,1474.16 1340.38,47.2441 
  "/>
<polyline clip-path="url(#clip842)" style="stroke:#000000; stroke-linecap:butt; stroke-linejoin:round; stroke-width:2; stroke-opacity:0.1; fill:none" points="
  1846.57,1474.16 1846.57,47.2441 
  "/>
<polyline clip-path="url(#clip842)" style="stroke:#000000; stroke-linecap:butt; stroke-linejoin:round; stroke-width:2; stroke-opacity:0.1; fill:none" points="
  2352.76,1474.16 2352.76,47.2441 
  "/>
<polyline clip-path="url(#clip840)" style="stroke:#000000; stroke-linecap:butt; stroke-linejoin:round; stroke-width:4; stroke-opacity:1; fill:none" points="
  328.011,1474.16 2352.76,1474.16 
  "/>
<polyline clip-path="url(#clip840)" style="stroke:#000000; stroke-linecap:butt; stroke-linejoin:round; stroke-width:4; stroke-opacity:1; fill:none" points="
  328.011,1474.16 328.011,1455.27 
  "/>
<polyline clip-path="url(#clip840)" style="stroke:#000000; stroke-linecap:butt; stroke-linejoin:round; stroke-width:4; stroke-opacity:1; fill:none" points="
  834.197,1474.16 834.197,1455.27 
  "/>
<polyline clip-path="url(#clip840)" style="stroke:#000000; stroke-linecap:butt; stroke-linejoin:round; stroke-width:4; stroke-opacity:1; fill:none" points="
  1340.38,1474.16 1340.38,1455.27 
  "/>
<polyline clip-path="url(#clip840)" style="stroke:#000000; stroke-linecap:butt; stroke-linejoin:round; stroke-width:4; stroke-opacity:1; fill:none" points="
  1846.57,1474.16 1846.57,1455.27 
  "/>
<polyline clip-path="url(#clip840)" style="stroke:#000000; stroke-linecap:butt; stroke-linejoin:round; stroke-width:4; stroke-opacity:1; fill:none" points="
  2352.76,1474.16 2352.76,1455.27 
  "/>
<path clip-path="url(#clip840)" d="M235.436 1548.29 L243.075 1548.29 L243.075 1521.92 L234.765 1523.59 L234.765 1519.33 L243.029 1517.66 L247.705 1517.66 L247.705 1548.29 L255.343 1548.29 L255.343 1552.22 L235.436 1552.22 L235.436 1548.29 Z" fill="#000000" fill-rule="evenodd" fill-opacity="1" /><path clip-path="url(#clip840)" d="M264.788 1546.35 L269.672 1546.35 L269.672 1552.22 L264.788 1552.22 L264.788 1546.35 Z" fill="#000000" fill-rule="evenodd" fill-opacity="1" /><path clip-path="url(#clip840)" d="M289.857 1520.74 Q286.246 1520.74 284.417 1524.31 Q282.612 1527.85 282.612 1534.98 Q282.612 1542.09 284.417 1545.65 Q286.246 1549.19 289.857 1549.19 Q293.491 1549.19 295.297 1545.65 Q297.126 1542.09 297.126 1534.98 Q297.126 1527.85 295.297 1524.31 Q293.491 1520.74 289.857 1520.74 M289.857 1517.04 Q295.667 1517.04 298.723 1521.65 Q301.801 1526.23 301.801 1534.98 Q301.801 1543.71 298.723 1548.31 Q295.667 1552.9 289.857 1552.9 Q284.047 1552.9 280.968 1548.31 Q277.913 1543.71 277.913 1534.98 Q277.913 1526.23 280.968 1521.65 Q284.047 1517.04 289.857 1517.04 Z" fill="#000000" fill-rule="evenodd" fill-opacity="1" /><path clip-path="url(#clip840)" d="M338.19 1526.76 L327.612 1537.39 L338.19 1547.97 L335.436 1550.77 L324.811 1540.14 L314.186 1550.77 L311.454 1547.97 L322.01 1537.39 L311.454 1526.76 L314.186 1523.96 L324.811 1534.59 L335.436 1523.96 L338.19 1526.76 Z" fill="#000000" fill-rule="evenodd" fill-opacity="1" /><path clip-path="url(#clip840)" d="M350.551 1548.29 L358.19 1548.29 L358.19 1521.92 L349.88 1523.59 L349.88 1519.33 L358.144 1517.66 L362.82 1517.66 L362.82 1548.29 L370.458 1548.29 L370.458 1552.22 L350.551 1552.22 L350.551 1548.29 Z" fill="#000000" fill-rule="evenodd" fill-opacity="1" /><path clip-path="url(#clip840)" d="M389.903 1520.74 Q386.292 1520.74 384.463 1524.31 Q382.658 1527.85 382.658 1534.98 Q382.658 1542.09 384.463 1545.65 Q386.292 1549.19 389.903 1549.19 Q393.537 1549.19 395.343 1545.65 Q397.171 1542.09 397.171 1534.98 Q397.171 1527.85 395.343 1524.31 Q393.537 1520.74 389.903 1520.74 M389.903 1517.04 Q395.713 1517.04 398.769 1521.65 Q401.847 1526.23 401.847 1534.98 Q401.847 1543.71 398.769 1548.31 Q395.713 1552.9 389.903 1552.9 Q384.093 1552.9 381.014 1548.31 Q377.958 1543.71 377.958 1534.98 Q377.958 1526.23 381.014 1521.65 Q384.093 1517.04 389.903 1517.04 Z" fill="#000000" fill-rule="evenodd" fill-opacity="1" /><path clip-path="url(#clip840)" d="M411.552 1499.24 Q408.618 1499.24 407.132 1502.13 Q405.665 1505.01 405.665 1510.8 Q405.665 1516.58 407.132 1519.47 Q408.618 1522.35 411.552 1522.35 Q414.505 1522.35 415.972 1519.47 Q417.458 1516.58 417.458 1510.8 Q417.458 1505.01 415.972 1502.13 Q414.505 1499.24 411.552 1499.24 M411.552 1496.23 Q416.273 1496.23 418.755 1499.97 Q421.257 1503.69 421.257 1510.8 Q421.257 1517.89 418.755 1521.64 Q416.273 1525.36 411.552 1525.36 Q406.831 1525.36 404.33 1521.64 Q401.847 1517.89 401.847 1510.8 Q401.847 1503.69 404.33 1499.97 Q406.831 1496.23 411.552 1496.23 Z" fill="#000000" fill-rule="evenodd" fill-opacity="1" /><path clip-path="url(#clip840)" d="M741.622 1548.29 L749.261 1548.29 L749.261 1521.92 L740.951 1523.59 L740.951 1519.33 L749.215 1517.66 L753.891 1517.66 L753.891 1548.29 L761.53 1548.29 L761.53 1552.22 L741.622 1552.22 L741.622 1548.29 Z" fill="#000000" fill-rule="evenodd" fill-opacity="1" /><path clip-path="url(#clip840)" d="M770.974 1546.35 L775.858 1546.35 L775.858 1552.22 L770.974 1552.22 L770.974 1546.35 Z" fill="#000000" fill-rule="evenodd" fill-opacity="1" /><path clip-path="url(#clip840)" d="M796.043 1520.74 Q792.432 1520.74 790.604 1524.31 Q788.798 1527.85 788.798 1534.98 Q788.798 1542.09 790.604 1545.65 Q792.432 1549.19 796.043 1549.19 Q799.678 1549.19 801.483 1545.65 Q803.312 1542.09 803.312 1534.98 Q803.312 1527.85 801.483 1524.31 Q799.678 1520.74 796.043 1520.74 M796.043 1517.04 Q801.854 1517.04 804.909 1521.65 Q807.988 1526.23 807.988 1534.98 Q807.988 1543.71 804.909 1548.31 Q801.854 1552.9 796.043 1552.9 Q790.233 1552.9 787.155 1548.31 Q784.099 1543.71 784.099 1534.98 Q784.099 1526.23 787.155 1521.65 Q790.233 1517.04 796.043 1517.04 Z" fill="#000000" fill-rule="evenodd" fill-opacity="1" /><path clip-path="url(#clip840)" d="M844.376 1526.76 L833.798 1537.39 L844.376 1547.97 L841.622 1550.77 L830.997 1540.14 L820.372 1550.77 L817.64 1547.97 L828.196 1537.39 L817.64 1526.76 L820.372 1523.96 L830.997 1534.59 L841.622 1523.96 L844.376 1526.76 Z" fill="#000000" fill-rule="evenodd" fill-opacity="1" /><path clip-path="url(#clip840)" d="M856.737 1548.29 L864.376 1548.29 L864.376 1521.92 L856.066 1523.59 L856.066 1519.33 L864.33 1517.66 L869.006 1517.66 L869.006 1548.29 L876.645 1548.29 L876.645 1552.22 L856.737 1552.22 L856.737 1548.29 Z" fill="#000000" fill-rule="evenodd" fill-opacity="1" /><path clip-path="url(#clip840)" d="M896.089 1520.74 Q892.478 1520.74 890.649 1524.31 Q888.844 1527.85 888.844 1534.98 Q888.844 1542.09 890.649 1545.65 Q892.478 1549.19 896.089 1549.19 Q899.723 1549.19 901.529 1545.65 Q903.358 1542.09 903.358 1534.98 Q903.358 1527.85 901.529 1524.31 Q899.723 1520.74 896.089 1520.74 M896.089 1517.04 Q901.899 1517.04 904.955 1521.65 Q908.033 1526.23 908.033 1534.98 Q908.033 1543.71 904.955 1548.31 Q901.899 1552.9 896.089 1552.9 Q890.279 1552.9 887.2 1548.31 Q884.145 1543.71 884.145 1534.98 Q884.145 1526.23 887.2 1521.65 Q890.279 1517.04 896.089 1517.04 Z" fill="#000000" fill-rule="evenodd" fill-opacity="1" /><path clip-path="url(#clip840)" d="M917.738 1499.24 Q914.804 1499.24 913.318 1502.13 Q911.851 1505.01 911.851 1510.8 Q911.851 1516.58 913.318 1519.47 Q914.804 1522.35 917.738 1522.35 Q920.691 1522.35 922.158 1519.47 Q923.644 1516.58 923.644 1510.8 Q923.644 1505.01 922.158 1502.13 Q920.691 1499.24 917.738 1499.24 M917.738 1496.23 Q922.459 1496.23 924.942 1499.97 Q927.443 1503.69 927.443 1510.8 Q927.443 1517.89 924.942 1521.64 Q922.459 1525.36 917.738 1525.36 Q913.018 1525.36 910.516 1521.64 Q908.033 1517.89 908.033 1510.8 Q908.033 1503.69 910.516 1499.97 Q913.018 1496.23 917.738 1496.23 Z" fill="#000000" fill-rule="evenodd" fill-opacity="1" /><path clip-path="url(#clip840)" d="M1247.81 1548.29 L1255.45 1548.29 L1255.45 1521.92 L1247.14 1523.59 L1247.14 1519.33 L1255.4 1517.66 L1260.08 1517.66 L1260.08 1548.29 L1267.72 1548.29 L1267.72 1552.22 L1247.81 1552.22 L1247.81 1548.29 Z" fill="#000000" fill-rule="evenodd" fill-opacity="1" /><path clip-path="url(#clip840)" d="M1277.16 1546.35 L1282.04 1546.35 L1282.04 1552.22 L1277.16 1552.22 L1277.16 1546.35 Z" fill="#000000" fill-rule="evenodd" fill-opacity="1" /><path clip-path="url(#clip840)" d="M1302.23 1520.74 Q1298.62 1520.74 1296.79 1524.31 Q1294.98 1527.85 1294.98 1534.98 Q1294.98 1542.09 1296.79 1545.65 Q1298.62 1549.19 1302.23 1549.19 Q1305.86 1549.19 1307.67 1545.65 Q1309.5 1542.09 1309.5 1534.98 Q1309.5 1527.85 1307.67 1524.31 Q1305.86 1520.74 1302.23 1520.74 M1302.23 1517.04 Q1308.04 1517.04 1311.1 1521.65 Q1314.17 1526.23 1314.17 1534.98 Q1314.17 1543.71 1311.1 1548.31 Q1308.04 1552.9 1302.23 1552.9 Q1296.42 1552.9 1293.34 1548.31 Q1290.29 1543.71 1290.29 1534.98 Q1290.29 1526.23 1293.34 1521.65 Q1296.42 1517.04 1302.23 1517.04 Z" fill="#000000" fill-rule="evenodd" fill-opacity="1" /><path clip-path="url(#clip840)" d="M1350.56 1526.76 L1339.98 1537.39 L1350.56 1547.97 L1347.81 1550.77 L1337.18 1540.14 L1326.56 1550.77 L1323.83 1547.97 L1334.38 1537.39 L1323.83 1526.76 L1326.56 1523.96 L1337.18 1534.59 L1347.81 1523.96 L1350.56 1526.76 Z" fill="#000000" fill-rule="evenodd" fill-opacity="1" /><path clip-path="url(#clip840)" d="M1362.92 1548.29 L1370.56 1548.29 L1370.56 1521.92 L1362.25 1523.59 L1362.25 1519.33 L1370.52 1517.66 L1375.19 1517.66 L1375.19 1548.29 L1382.83 1548.29 L1382.83 1552.22 L1362.92 1552.22 L1362.92 1548.29 Z" fill="#000000" fill-rule="evenodd" fill-opacity="1" /><path clip-path="url(#clip840)" d="M1402.28 1520.74 Q1398.66 1520.74 1396.84 1524.31 Q1395.03 1527.85 1395.03 1534.98 Q1395.03 1542.09 1396.84 1545.65 Q1398.66 1549.19 1402.28 1549.19 Q1405.91 1549.19 1407.72 1545.65 Q1409.54 1542.09 1409.54 1534.98 Q1409.54 1527.85 1407.72 1524.31 Q1405.91 1520.74 1402.28 1520.74 M1402.28 1517.04 Q1408.09 1517.04 1411.14 1521.65 Q1414.22 1526.23 1414.22 1534.98 Q1414.22 1543.71 1411.14 1548.31 Q1408.09 1552.9 1402.28 1552.9 Q1396.47 1552.9 1393.39 1548.31 Q1390.33 1543.71 1390.33 1534.98 Q1390.33 1526.23 1393.39 1521.65 Q1396.47 1517.04 1402.28 1517.04 Z" fill="#000000" fill-rule="evenodd" fill-opacity="1" /><path clip-path="url(#clip840)" d="M1423.92 1499.24 Q1420.99 1499.24 1419.5 1502.13 Q1418.04 1505.01 1418.04 1510.8 Q1418.04 1516.58 1419.5 1519.47 Q1420.99 1522.35 1423.92 1522.35 Q1426.88 1522.35 1428.34 1519.47 Q1429.83 1516.58 1429.83 1510.8 Q1429.83 1505.01 1428.34 1502.13 Q1426.88 1499.24 1423.92 1499.24 M1423.92 1496.23 Q1428.65 1496.23 1431.13 1499.97 Q1433.63 1503.69 1433.63 1510.8 Q1433.63 1517.89 1431.13 1521.64 Q1428.65 1525.36 1423.92 1525.36 Q1419.2 1525.36 1416.7 1521.64 Q1414.22 1517.89 1414.22 1510.8 Q1414.22 1503.69 1416.7 1499.97 Q1419.2 1496.23 1423.92 1496.23 Z" fill="#000000" fill-rule="evenodd" fill-opacity="1" /><path clip-path="url(#clip840)" d="M1753.99 1548.29 L1761.63 1548.29 L1761.63 1521.92 L1753.32 1523.59 L1753.32 1519.33 L1761.59 1517.66 L1766.26 1517.66 L1766.26 1548.29 L1773.9 1548.29 L1773.9 1552.22 L1753.99 1552.22 L1753.99 1548.29 Z" fill="#000000" fill-rule="evenodd" fill-opacity="1" /><path clip-path="url(#clip840)" d="M1783.35 1546.35 L1788.23 1546.35 L1788.23 1552.22 L1783.35 1552.22 L1783.35 1546.35 Z" fill="#000000" fill-rule="evenodd" fill-opacity="1" /><path clip-path="url(#clip840)" d="M1808.42 1520.74 Q1804.8 1520.74 1802.98 1524.31 Q1801.17 1527.85 1801.17 1534.98 Q1801.17 1542.09 1802.98 1545.65 Q1804.8 1549.19 1808.42 1549.19 Q1812.05 1549.19 1813.86 1545.65 Q1815.68 1542.09 1815.68 1534.98 Q1815.68 1527.85 1813.86 1524.31 Q1812.05 1520.74 1808.42 1520.74 M1808.42 1517.04 Q1814.23 1517.04 1817.28 1521.65 Q1820.36 1526.23 1820.36 1534.98 Q1820.36 1543.71 1817.28 1548.31 Q1814.23 1552.9 1808.42 1552.9 Q1802.61 1552.9 1799.53 1548.31 Q1796.47 1543.71 1796.47 1534.98 Q1796.47 1526.23 1799.53 1521.65 Q1802.61 1517.04 1808.42 1517.04 Z" fill="#000000" fill-rule="evenodd" fill-opacity="1" /><path clip-path="url(#clip840)" d="M1856.75 1526.76 L1846.17 1537.39 L1856.75 1547.97 L1853.99 1550.77 L1843.37 1540.14 L1832.74 1550.77 L1830.01 1547.97 L1840.57 1537.39 L1830.01 1526.76 L1832.74 1523.96 L1843.37 1534.59 L1853.99 1523.96 L1856.75 1526.76 Z" fill="#000000" fill-rule="evenodd" fill-opacity="1" /><path clip-path="url(#clip840)" d="M1869.11 1548.29 L1876.75 1548.29 L1876.75 1521.92 L1868.44 1523.59 L1868.44 1519.33 L1876.7 1517.66 L1881.38 1517.66 L1881.38 1548.29 L1889.02 1548.29 L1889.02 1552.22 L1869.11 1552.22 L1869.11 1548.29 Z" fill="#000000" fill-rule="evenodd" fill-opacity="1" /><path clip-path="url(#clip840)" d="M1908.46 1520.74 Q1904.85 1520.74 1903.02 1524.31 Q1901.22 1527.85 1901.22 1534.98 Q1901.22 1542.09 1903.02 1545.65 Q1904.85 1549.19 1908.46 1549.19 Q1912.1 1549.19 1913.9 1545.65 Q1915.73 1542.09 1915.73 1534.98 Q1915.73 1527.85 1913.9 1524.31 Q1912.1 1520.74 1908.46 1520.74 M1908.46 1517.04 Q1914.27 1517.04 1917.33 1521.65 Q1920.41 1526.23 1920.41 1534.98 Q1920.41 1543.71 1917.33 1548.31 Q1914.27 1552.9 1908.46 1552.9 Q1902.65 1552.9 1899.57 1548.31 Q1896.52 1543.71 1896.52 1534.98 Q1896.52 1526.23 1899.57 1521.65 Q1902.65 1517.04 1908.46 1517.04 Z" fill="#000000" fill-rule="evenodd" fill-opacity="1" /><path clip-path="url(#clip840)" d="M1930.11 1499.24 Q1927.18 1499.24 1925.69 1502.13 Q1924.22 1505.01 1924.22 1510.8 Q1924.22 1516.58 1925.69 1519.47 Q1927.18 1522.35 1930.11 1522.35 Q1933.06 1522.35 1934.53 1519.47 Q1936.02 1516.58 1936.02 1510.8 Q1936.02 1505.01 1934.53 1502.13 Q1933.06 1499.24 1930.11 1499.24 M1930.11 1496.23 Q1934.83 1496.23 1937.31 1499.97 Q1939.82 1503.69 1939.82 1510.8 Q1939.82 1517.89 1937.31 1521.64 Q1934.83 1525.36 1930.11 1525.36 Q1925.39 1525.36 1922.89 1521.64 Q1920.41 1517.89 1920.41 1510.8 Q1920.41 1503.69 1922.89 1499.97 Q1925.39 1496.23 1930.11 1496.23 Z" fill="#000000" fill-rule="evenodd" fill-opacity="1" /><path clip-path="url(#clip840)" d="M2260.18 1548.29 L2267.82 1548.29 L2267.82 1521.92 L2259.51 1523.59 L2259.51 1519.33 L2267.77 1517.66 L2272.45 1517.66 L2272.45 1548.29 L2280.09 1548.29 L2280.09 1552.22 L2260.18 1552.22 L2260.18 1548.29 Z" fill="#000000" fill-rule="evenodd" fill-opacity="1" /><path clip-path="url(#clip840)" d="M2289.53 1546.35 L2294.42 1546.35 L2294.42 1552.22 L2289.53 1552.22 L2289.53 1546.35 Z" fill="#000000" fill-rule="evenodd" fill-opacity="1" /><path clip-path="url(#clip840)" d="M2314.6 1520.74 Q2310.99 1520.74 2309.16 1524.31 Q2307.36 1527.85 2307.36 1534.98 Q2307.36 1542.09 2309.16 1545.65 Q2310.99 1549.19 2314.6 1549.19 Q2318.24 1549.19 2320.04 1545.65 Q2321.87 1542.09 2321.87 1534.98 Q2321.87 1527.85 2320.04 1524.31 Q2318.24 1520.74 2314.6 1520.74 M2314.6 1517.04 Q2320.41 1517.04 2323.47 1521.65 Q2326.55 1526.23 2326.55 1534.98 Q2326.55 1543.71 2323.47 1548.31 Q2320.41 1552.9 2314.6 1552.9 Q2308.79 1552.9 2305.71 1548.31 Q2302.66 1543.71 2302.66 1534.98 Q2302.66 1526.23 2305.71 1521.65 Q2308.79 1517.04 2314.6 1517.04 Z" fill="#000000" fill-rule="evenodd" fill-opacity="1" /><path clip-path="url(#clip840)" d="M2362.94 1526.76 L2352.36 1537.39 L2362.94 1547.97 L2360.18 1550.77 L2349.56 1540.14 L2338.93 1550.77 L2336.2 1547.97 L2346.75 1537.39 L2336.2 1526.76 L2338.93 1523.96 L2349.56 1534.59 L2360.18 1523.96 L2362.94 1526.76 Z" fill="#000000" fill-rule="evenodd" fill-opacity="1" /><path clip-path="url(#clip840)" d="M2375.3 1548.29 L2382.94 1548.29 L2382.94 1521.92 L2374.62 1523.59 L2374.62 1519.33 L2382.89 1517.66 L2387.56 1517.66 L2387.56 1548.29 L2395.2 1548.29 L2395.2 1552.22 L2375.3 1552.22 L2375.3 1548.29 Z" fill="#000000" fill-rule="evenodd" fill-opacity="1" /><path clip-path="url(#clip840)" d="M2414.65 1520.74 Q2411.04 1520.74 2409.21 1524.31 Q2407.4 1527.85 2407.4 1534.98 Q2407.4 1542.09 2409.21 1545.65 Q2411.04 1549.19 2414.65 1549.19 Q2418.28 1549.19 2420.09 1545.65 Q2421.92 1542.09 2421.92 1534.98 Q2421.92 1527.85 2420.09 1524.31 Q2418.28 1520.74 2414.65 1520.74 M2414.65 1517.04 Q2420.46 1517.04 2423.51 1521.65 Q2426.59 1526.23 2426.59 1534.98 Q2426.59 1543.71 2423.51 1548.31 Q2420.46 1552.9 2414.65 1552.9 Q2408.84 1552.9 2405.76 1548.31 Q2402.7 1543.71 2402.7 1534.98 Q2402.7 1526.23 2405.76 1521.65 Q2408.84 1517.04 2414.65 1517.04 Z" fill="#000000" fill-rule="evenodd" fill-opacity="1" /><path clip-path="url(#clip840)" d="M2436.3 1499.24 Q2433.36 1499.24 2431.88 1502.13 Q2430.41 1505.01 2430.41 1510.8 Q2430.41 1516.58 2431.88 1519.47 Q2433.36 1522.35 2436.3 1522.35 Q2439.25 1522.35 2440.72 1519.47 Q2442.2 1516.58 2442.2 1510.8 Q2442.2 1505.01 2440.72 1502.13 Q2439.25 1499.24 2436.3 1499.24 M2436.3 1496.23 Q2441.02 1496.23 2443.5 1499.97 Q2446 1503.69 2446 1510.8 Q2446 1517.89 2443.5 1521.64 Q2441.02 1525.36 2436.3 1525.36 Q2431.58 1525.36 2429.07 1521.64 Q2426.59 1517.89 2426.59 1510.8 Q2426.59 1503.69 2429.07 1499.97 Q2431.58 1496.23 2436.3 1496.23 Z" fill="#000000" fill-rule="evenodd" fill-opacity="1" /><polyline clip-path="url(#clip842)" style="stroke:#000000; stroke-linecap:butt; stroke-linejoin:round; stroke-width:2; stroke-opacity:0.1; fill:none" points="
  328.011,1434.28 2352.76,1434.28 
  "/>
<polyline clip-path="url(#clip842)" style="stroke:#000000; stroke-linecap:butt; stroke-linejoin:round; stroke-width:2; stroke-opacity:0.1; fill:none" points="
  328.011,1186.15 2352.76,1186.15 
  "/>
<polyline clip-path="url(#clip842)" style="stroke:#000000; stroke-linecap:butt; stroke-linejoin:round; stroke-width:2; stroke-opacity:0.1; fill:none" points="
  328.011,938.03 2352.76,938.03 
  "/>
<polyline clip-path="url(#clip842)" style="stroke:#000000; stroke-linecap:butt; stroke-linejoin:round; stroke-width:2; stroke-opacity:0.1; fill:none" points="
  328.011,689.906 2352.76,689.906 
  "/>
<polyline clip-path="url(#clip842)" style="stroke:#000000; stroke-linecap:butt; stroke-linejoin:round; stroke-width:2; stroke-opacity:0.1; fill:none" points="
  328.011,441.783 2352.76,441.783 
  "/>
<polyline clip-path="url(#clip842)" style="stroke:#000000; stroke-linecap:butt; stroke-linejoin:round; stroke-width:2; stroke-opacity:0.1; fill:none" points="
  328.011,193.66 2352.76,193.66 
  "/>
<polyline clip-path="url(#clip840)" style="stroke:#000000; stroke-linecap:butt; stroke-linejoin:round; stroke-width:4; stroke-opacity:1; fill:none" points="
  328.011,1474.16 328.011,47.2441 
  "/>
<polyline clip-path="url(#clip840)" style="stroke:#000000; stroke-linecap:butt; stroke-linejoin:round; stroke-width:4; stroke-opacity:1; fill:none" points="
  328.011,1434.28 346.908,1434.28 
  "/>
<polyline clip-path="url(#clip840)" style="stroke:#000000; stroke-linecap:butt; stroke-linejoin:round; stroke-width:4; stroke-opacity:1; fill:none" points="
  328.011,1186.15 346.908,1186.15 
  "/>
<polyline clip-path="url(#clip840)" style="stroke:#000000; stroke-linecap:butt; stroke-linejoin:round; stroke-width:4; stroke-opacity:1; fill:none" points="
  328.011,938.03 346.908,938.03 
  "/>
<polyline clip-path="url(#clip840)" style="stroke:#000000; stroke-linecap:butt; stroke-linejoin:round; stroke-width:4; stroke-opacity:1; fill:none" points="
  328.011,689.906 346.908,689.906 
  "/>
<polyline clip-path="url(#clip840)" style="stroke:#000000; stroke-linecap:butt; stroke-linejoin:round; stroke-width:4; stroke-opacity:1; fill:none" points="
  328.011,441.783 346.908,441.783 
  "/>
<polyline clip-path="url(#clip840)" style="stroke:#000000; stroke-linecap:butt; stroke-linejoin:round; stroke-width:4; stroke-opacity:1; fill:none" points="
  328.011,193.66 346.908,193.66 
  "/>
<path clip-path="url(#clip840)" d="M280.066 1420.08 Q276.455 1420.08 274.627 1423.64 Q272.821 1427.18 272.821 1434.31 Q272.821 1441.42 274.627 1444.98 Q276.455 1448.52 280.066 1448.52 Q283.701 1448.52 285.506 1444.98 Q287.335 1441.42 287.335 1434.31 Q287.335 1427.18 285.506 1423.64 Q283.701 1420.08 280.066 1420.08 M280.066 1416.37 Q285.877 1416.37 288.932 1420.98 Q292.011 1425.56 292.011 1434.31 Q292.011 1443.04 288.932 1447.64 Q285.877 1452.23 280.066 1452.23 Q274.256 1452.23 271.178 1447.64 Q268.122 1443.04 268.122 1434.31 Q268.122 1425.56 271.178 1420.98 Q274.256 1416.37 280.066 1416.37 Z" fill="#000000" fill-rule="evenodd" fill-opacity="1" /><path clip-path="url(#clip840)" d="M52.4504 1175.32 L70.8068 1175.32 L70.8068 1179.26 L56.7328 1179.26 L56.7328 1187.73 Q57.7513 1187.38 58.7699 1187.22 Q59.7884 1187.03 60.8069 1187.03 Q66.5939 1187.03 69.9735 1190.2 Q73.3531 1193.38 73.3531 1198.79 Q73.3531 1204.37 69.8809 1207.47 Q66.4087 1210.55 60.0893 1210.55 Q57.9134 1210.55 55.6449 1210.18 Q53.3995 1209.81 50.9921 1209.07 L50.9921 1204.37 Q53.0754 1205.51 55.2977 1206.06 Q57.5199 1206.62 59.9967 1206.62 Q64.0013 1206.62 66.3393 1204.51 Q68.6772 1202.4 68.6772 1198.79 Q68.6772 1195.18 66.3393 1193.08 Q64.0013 1190.97 59.9967 1190.97 Q58.1217 1190.97 56.2467 1191.39 Q54.3949 1191.8 52.4504 1192.68 L52.4504 1175.32 Z" fill="#000000" fill-rule="evenodd" fill-opacity="1" /><path clip-path="url(#clip840)" d="M82.566 1204 L87.4503 1204 L87.4503 1209.88 L82.566 1209.88 L82.566 1204 Z" fill="#000000" fill-rule="evenodd" fill-opacity="1" /><path clip-path="url(#clip840)" d="M107.635 1178.4 Q104.024 1178.4 102.196 1181.96 Q100.39 1185.51 100.39 1192.64 Q100.39 1199.74 102.196 1203.31 Q104.024 1206.85 107.635 1206.85 Q111.27 1206.85 113.075 1203.31 Q114.904 1199.74 114.904 1192.64 Q114.904 1185.51 113.075 1181.96 Q111.27 1178.4 107.635 1178.4 M107.635 1174.7 Q113.445 1174.7 116.501 1179.3 Q119.58 1183.89 119.58 1192.64 Q119.58 1201.36 116.501 1205.97 Q113.445 1210.55 107.635 1210.55 Q101.825 1210.55 98.7465 1205.97 Q95.691 1201.36 95.691 1192.64 Q95.691 1183.89 98.7465 1179.3 Q101.825 1174.7 107.635 1174.7 Z" fill="#000000" fill-rule="evenodd" fill-opacity="1" /><path clip-path="url(#clip840)" d="M137.797 1178.4 Q134.186 1178.4 132.357 1181.96 Q130.552 1185.51 130.552 1192.64 Q130.552 1199.74 132.357 1203.31 Q134.186 1206.85 137.797 1206.85 Q141.431 1206.85 143.237 1203.31 Q145.066 1199.74 145.066 1192.64 Q145.066 1185.51 143.237 1181.96 Q141.431 1178.4 137.797 1178.4 M137.797 1174.7 Q143.607 1174.7 146.663 1179.3 Q149.742 1183.89 149.742 1192.64 Q149.742 1201.36 146.663 1205.97 Q143.607 1210.55 137.797 1210.55 Q131.987 1210.55 128.908 1205.97 Q125.853 1201.36 125.853 1192.64 Q125.853 1183.89 128.908 1179.3 Q131.987 1174.7 137.797 1174.7 Z" fill="#000000" fill-rule="evenodd" fill-opacity="1" /><path clip-path="url(#clip840)" d="M186.13 1184.42 L175.552 1195.04 L186.13 1205.62 L183.376 1208.42 L172.751 1197.8 L162.126 1208.42 L159.394 1205.62 L169.95 1195.04 L159.394 1184.42 L162.126 1181.62 L172.751 1192.24 L183.376 1181.62 L186.13 1184.42 Z" fill="#000000" fill-rule="evenodd" fill-opacity="1" /><path clip-path="url(#clip840)" d="M198.491 1205.95 L206.13 1205.95 L206.13 1179.58 L197.82 1181.25 L197.82 1176.99 L206.084 1175.32 L210.76 1175.32 L210.76 1205.95 L218.399 1205.95 L218.399 1209.88 L198.491 1209.88 L198.491 1205.95 Z" fill="#000000" fill-rule="evenodd" fill-opacity="1" /><path clip-path="url(#clip840)" d="M237.843 1178.4 Q234.232 1178.4 232.403 1181.96 Q230.598 1185.51 230.598 1192.64 Q230.598 1199.74 232.403 1203.31 Q234.232 1206.85 237.843 1206.85 Q241.477 1206.85 243.283 1203.31 Q245.111 1199.74 245.111 1192.64 Q245.111 1185.51 243.283 1181.96 Q241.477 1178.4 237.843 1178.4 M237.843 1174.7 Q243.653 1174.7 246.709 1179.3 Q249.787 1183.89 249.787 1192.64 Q249.787 1201.36 246.709 1205.97 Q243.653 1210.55 237.843 1210.55 Q232.033 1210.55 228.954 1205.97 Q225.899 1201.36 225.899 1192.64 Q225.899 1183.89 228.954 1179.3 Q232.033 1174.7 237.843 1174.7 Z" fill="#000000" fill-rule="evenodd" fill-opacity="1" /><path clip-path="url(#clip840)" d="M250.333 1179.27 L256.539 1179.27 L256.539 1157.85 L249.787 1159.21 L249.787 1155.74 L256.502 1154.39 L260.301 1154.39 L260.301 1179.27 L266.507 1179.27 L266.507 1182.47 L250.333 1182.47 L250.333 1179.27 Z" fill="#000000" fill-rule="evenodd" fill-opacity="1" /><path clip-path="url(#clip840)" d="M282.306 1156.89 Q279.372 1156.89 277.886 1159.79 Q276.419 1162.67 276.419 1168.46 Q276.419 1174.23 277.886 1177.13 Q279.372 1180.01 282.306 1180.01 Q285.259 1180.01 286.726 1177.13 Q288.212 1174.23 288.212 1168.46 Q288.212 1162.67 286.726 1159.79 Q285.259 1156.89 282.306 1156.89 M282.306 1153.88 Q287.027 1153.88 289.509 1157.63 Q292.011 1161.35 292.011 1168.46 Q292.011 1175.55 289.509 1179.29 Q287.027 1183.02 282.306 1183.02 Q277.585 1183.02 275.084 1179.29 Q272.601 1175.55 272.601 1168.46 Q272.601 1161.35 275.084 1157.63 Q277.585 1153.88 282.306 1153.88 Z" fill="#000000" fill-rule="evenodd" fill-opacity="1" /><path clip-path="url(#clip840)" d="M54.2111 957.822 L61.85 957.822 L61.85 931.456 L53.5398 933.123 L53.5398 928.864 L61.8037 927.197 L66.4796 927.197 L66.4796 957.822 L74.1184 957.822 L74.1184 961.757 L54.2111 961.757 L54.2111 957.822 Z" fill="#000000" fill-rule="evenodd" fill-opacity="1" /><path clip-path="url(#clip840)" d="M83.5628 955.878 L88.4471 955.878 L88.4471 961.757 L83.5628 961.757 L83.5628 955.878 Z" fill="#000000" fill-rule="evenodd" fill-opacity="1" /><path clip-path="url(#clip840)" d="M108.632 930.276 Q105.021 930.276 103.192 933.841 Q101.387 937.382 101.387 944.512 Q101.387 951.618 103.192 955.183 Q105.021 958.725 108.632 958.725 Q112.266 958.725 114.072 955.183 Q115.901 951.618 115.901 944.512 Q115.901 937.382 114.072 933.841 Q112.266 930.276 108.632 930.276 M108.632 926.572 Q114.442 926.572 117.498 931.179 Q120.577 935.762 120.577 944.512 Q120.577 953.239 117.498 957.845 Q114.442 962.429 108.632 962.429 Q102.822 962.429 99.7433 957.845 Q96.6878 953.239 96.6878 944.512 Q96.6878 935.762 99.7433 931.179 Q102.822 926.572 108.632 926.572 Z" fill="#000000" fill-rule="evenodd" fill-opacity="1" /><path clip-path="url(#clip840)" d="M138.794 930.276 Q135.183 930.276 133.354 933.841 Q131.549 937.382 131.549 944.512 Q131.549 951.618 133.354 955.183 Q135.183 958.725 138.794 958.725 Q142.428 958.725 144.234 955.183 Q146.062 951.618 146.062 944.512 Q146.062 937.382 144.234 933.841 Q142.428 930.276 138.794 930.276 M138.794 926.572 Q144.604 926.572 147.66 931.179 Q150.738 935.762 150.738 944.512 Q150.738 953.239 147.66 957.845 Q144.604 962.429 138.794 962.429 Q132.984 962.429 129.905 957.845 Q126.85 953.239 126.85 944.512 Q126.85 935.762 129.905 931.179 Q132.984 926.572 138.794 926.572 Z" fill="#000000" fill-rule="evenodd" fill-opacity="1" /><path clip-path="url(#clip840)" d="M187.127 936.294 L176.548 946.919 L187.127 957.498 L184.372 960.299 L173.748 949.674 L163.123 960.299 L160.391 957.498 L170.947 946.919 L160.391 936.294 L163.123 933.494 L173.748 944.118 L184.372 933.494 L187.127 936.294 Z" fill="#000000" fill-rule="evenodd" fill-opacity="1" /><path clip-path="url(#clip840)" d="M199.488 957.822 L207.127 957.822 L207.127 931.456 L198.817 933.123 L198.817 928.864 L207.081 927.197 L211.757 927.197 L211.757 957.822 L219.395 957.822 L219.395 961.757 L199.488 961.757 L199.488 957.822 Z" fill="#000000" fill-rule="evenodd" fill-opacity="1" /><path clip-path="url(#clip840)" d="M238.84 930.276 Q235.229 930.276 233.4 933.841 Q231.594 937.382 231.594 944.512 Q231.594 951.618 233.4 955.183 Q235.229 958.725 238.84 958.725 Q242.474 958.725 244.28 955.183 Q246.108 951.618 246.108 944.512 Q246.108 937.382 244.28 933.841 Q242.474 930.276 238.84 930.276 M238.84 926.572 Q244.65 926.572 247.705 931.179 Q250.784 935.762 250.784 944.512 Q250.784 953.239 247.705 957.845 Q244.65 962.429 238.84 962.429 Q233.03 962.429 229.951 957.845 Q226.895 953.239 226.895 944.512 Q226.895 935.762 229.951 931.179 Q233.03 926.572 238.84 926.572 Z" fill="#000000" fill-rule="evenodd" fill-opacity="1" /><path clip-path="url(#clip840)" d="M251.33 931.15 L257.536 931.15 L257.536 909.727 L250.784 911.082 L250.784 907.621 L257.499 906.267 L261.298 906.267 L261.298 931.15 L267.504 931.15 L267.504 934.347 L251.33 934.347 L251.33 931.15 Z" fill="#000000" fill-rule="evenodd" fill-opacity="1" /><path clip-path="url(#clip840)" d="M275.836 931.15 L282.043 931.15 L282.043 909.727 L275.291 911.082 L275.291 907.621 L282.005 906.267 L285.804 906.267 L285.804 931.15 L292.011 931.15 L292.011 934.347 L275.836 934.347 L275.836 931.15 Z" fill="#000000" fill-rule="evenodd" fill-opacity="1" /><path clip-path="url(#clip840)" d="M54.2111 709.699 L61.85 709.699 L61.85 683.333 L53.5398 685 L53.5398 680.741 L61.8037 679.074 L66.4796 679.074 L66.4796 709.699 L74.1184 709.699 L74.1184 713.634 L54.2111 713.634 L54.2111 709.699 Z" fill="#000000" fill-rule="evenodd" fill-opacity="1" /><path clip-path="url(#clip840)" d="M83.5628 707.754 L88.4471 707.754 L88.4471 713.634 L83.5628 713.634 L83.5628 707.754 Z" fill="#000000" fill-rule="evenodd" fill-opacity="1" /><path clip-path="url(#clip840)" d="M98.6785 679.074 L117.035 679.074 L117.035 683.009 L102.961 683.009 L102.961 691.481 Q103.979 691.134 104.998 690.972 Q106.016 690.787 107.035 690.787 Q112.822 690.787 116.202 693.958 Q119.581 697.129 119.581 702.546 Q119.581 708.125 116.109 711.226 Q112.637 714.305 106.317 714.305 Q104.141 714.305 101.873 713.935 Q99.6276 713.564 97.2202 712.824 L97.2202 708.125 Q99.3035 709.259 101.526 709.814 Q103.748 710.37 106.225 710.37 Q110.229 710.37 112.567 708.264 Q114.905 706.157 114.905 702.546 Q114.905 698.935 112.567 696.828 Q110.229 694.722 106.225 694.722 Q104.35 694.722 102.475 695.139 Q100.623 695.555 98.6785 696.435 L98.6785 679.074 Z" fill="#000000" fill-rule="evenodd" fill-opacity="1" /><path clip-path="url(#clip840)" d="M138.794 682.153 Q135.183 682.153 133.354 685.717 Q131.549 689.259 131.549 696.389 Q131.549 703.495 133.354 707.06 Q135.183 710.601 138.794 710.601 Q142.428 710.601 144.234 707.06 Q146.062 703.495 146.062 696.389 Q146.062 689.259 144.234 685.717 Q142.428 682.153 138.794 682.153 M138.794 678.449 Q144.604 678.449 147.66 683.055 Q150.738 687.639 150.738 696.389 Q150.738 705.115 147.66 709.722 Q144.604 714.305 138.794 714.305 Q132.984 714.305 129.905 709.722 Q126.85 705.115 126.85 696.389 Q126.85 687.639 129.905 683.055 Q132.984 678.449 138.794 678.449 Z" fill="#000000" fill-rule="evenodd" fill-opacity="1" /><path clip-path="url(#clip840)" d="M187.127 688.171 L176.548 698.796 L187.127 709.375 L184.372 712.176 L173.748 701.551 L163.123 712.176 L160.391 709.375 L170.947 698.796 L160.391 688.171 L163.123 685.37 L173.748 695.995 L184.372 685.37 L187.127 688.171 Z" fill="#000000" fill-rule="evenodd" fill-opacity="1" /><path clip-path="url(#clip840)" d="M199.488 709.699 L207.127 709.699 L207.127 683.333 L198.817 685 L198.817 680.741 L207.081 679.074 L211.757 679.074 L211.757 709.699 L219.395 709.699 L219.395 713.634 L199.488 713.634 L199.488 709.699 Z" fill="#000000" fill-rule="evenodd" fill-opacity="1" /><path clip-path="url(#clip840)" d="M238.84 682.153 Q235.229 682.153 233.4 685.717 Q231.594 689.259 231.594 696.389 Q231.594 703.495 233.4 707.06 Q235.229 710.601 238.84 710.601 Q242.474 710.601 244.28 707.06 Q246.108 703.495 246.108 696.389 Q246.108 689.259 244.28 685.717 Q242.474 682.153 238.84 682.153 M238.84 678.449 Q244.65 678.449 247.705 683.055 Q250.784 687.639 250.784 696.389 Q250.784 705.115 247.705 709.722 Q244.65 714.305 238.84 714.305 Q233.03 714.305 229.951 709.722 Q226.895 705.115 226.895 696.389 Q226.895 687.639 229.951 683.055 Q233.03 678.449 238.84 678.449 Z" fill="#000000" fill-rule="evenodd" fill-opacity="1" /><path clip-path="url(#clip840)" d="M251.33 683.026 L257.536 683.026 L257.536 661.604 L250.784 662.958 L250.784 659.498 L257.499 658.143 L261.298 658.143 L261.298 683.026 L267.504 683.026 L267.504 686.223 L251.33 686.223 L251.33 683.026 Z" fill="#000000" fill-rule="evenodd" fill-opacity="1" /><path clip-path="url(#clip840)" d="M275.836 683.026 L282.043 683.026 L282.043 661.604 L275.291 662.958 L275.291 659.498 L282.005 658.143 L285.804 658.143 L285.804 683.026 L292.011 683.026 L292.011 686.223 L275.836 686.223 L275.836 683.026 Z" fill="#000000" fill-rule="evenodd" fill-opacity="1" /><path clip-path="url(#clip840)" d="M57.4287 461.575 L73.7481 461.575 L73.7481 465.511 L51.8037 465.511 L51.8037 461.575 Q54.4658 458.821 59.0491 454.191 Q63.6555 449.538 64.8361 448.196 Q67.0814 445.673 67.9611 443.937 Q68.8638 442.177 68.8638 440.488 Q68.8638 437.733 66.9194 435.997 Q64.9981 434.261 61.8963 434.261 Q59.6972 434.261 57.2435 435.025 Q54.813 435.788 52.0352 437.339 L52.0352 432.617 Q54.8593 431.483 57.313 430.904 Q59.7667 430.326 61.8037 430.326 Q67.174 430.326 70.3685 433.011 Q73.5629 435.696 73.5629 440.187 Q73.5629 442.316 72.7527 444.237 Q71.9657 446.136 69.8592 448.728 Q69.2805 449.399 66.1787 452.617 Q63.0768 455.811 57.4287 461.575 Z" fill="#000000" fill-rule="evenodd" fill-opacity="1" /><path clip-path="url(#clip840)" d="M83.5628 459.631 L88.4471 459.631 L88.4471 465.511 L83.5628 465.511 L83.5628 459.631 Z" fill="#000000" fill-rule="evenodd" fill-opacity="1" /><path clip-path="url(#clip840)" d="M108.632 434.029 Q105.021 434.029 103.192 437.594 Q101.387 441.136 101.387 448.265 Q101.387 455.372 103.192 458.936 Q105.021 462.478 108.632 462.478 Q112.266 462.478 114.072 458.936 Q115.901 455.372 115.901 448.265 Q115.901 441.136 114.072 437.594 Q112.266 434.029 108.632 434.029 M108.632 430.326 Q114.442 430.326 117.498 434.932 Q120.577 439.515 120.577 448.265 Q120.577 456.992 117.498 461.599 Q114.442 466.182 108.632 466.182 Q102.822 466.182 99.7433 461.599 Q96.6878 456.992 96.6878 448.265 Q96.6878 439.515 99.7433 434.932 Q102.822 430.326 108.632 430.326 Z" fill="#000000" fill-rule="evenodd" fill-opacity="1" /><path clip-path="url(#clip840)" d="M138.794 434.029 Q135.183 434.029 133.354 437.594 Q131.549 441.136 131.549 448.265 Q131.549 455.372 133.354 458.936 Q135.183 462.478 138.794 462.478 Q142.428 462.478 144.234 458.936 Q146.062 455.372 146.062 448.265 Q146.062 441.136 144.234 437.594 Q142.428 434.029 138.794 434.029 M138.794 430.326 Q144.604 430.326 147.66 434.932 Q150.738 439.515 150.738 448.265 Q150.738 456.992 147.66 461.599 Q144.604 466.182 138.794 466.182 Q132.984 466.182 129.905 461.599 Q126.85 456.992 126.85 448.265 Q126.85 439.515 129.905 434.932 Q132.984 430.326 138.794 430.326 Z" fill="#000000" fill-rule="evenodd" fill-opacity="1" /><path clip-path="url(#clip840)" d="M187.127 440.048 L176.548 450.673 L187.127 461.251 L184.372 464.052 L173.748 453.427 L163.123 464.052 L160.391 461.251 L170.947 450.673 L160.391 440.048 L163.123 437.247 L173.748 447.872 L184.372 437.247 L187.127 440.048 Z" fill="#000000" fill-rule="evenodd" fill-opacity="1" /><path clip-path="url(#clip840)" d="M199.488 461.575 L207.127 461.575 L207.127 435.21 L198.817 436.876 L198.817 432.617 L207.081 430.951 L211.757 430.951 L211.757 461.575 L219.395 461.575 L219.395 465.511 L199.488 465.511 L199.488 461.575 Z" fill="#000000" fill-rule="evenodd" fill-opacity="1" /><path clip-path="url(#clip840)" d="M238.84 434.029 Q235.229 434.029 233.4 437.594 Q231.594 441.136 231.594 448.265 Q231.594 455.372 233.4 458.936 Q235.229 462.478 238.84 462.478 Q242.474 462.478 244.28 458.936 Q246.108 455.372 246.108 448.265 Q246.108 441.136 244.28 437.594 Q242.474 434.029 238.84 434.029 M238.84 430.326 Q244.65 430.326 247.705 434.932 Q250.784 439.515 250.784 448.265 Q250.784 456.992 247.705 461.599 Q244.65 466.182 238.84 466.182 Q233.03 466.182 229.951 461.599 Q226.895 456.992 226.895 448.265 Q226.895 439.515 229.951 434.932 Q233.03 430.326 238.84 430.326 Z" fill="#000000" fill-rule="evenodd" fill-opacity="1" /><path clip-path="url(#clip840)" d="M251.33 434.903 L257.536 434.903 L257.536 413.481 L250.784 414.835 L250.784 411.374 L257.499 410.02 L261.298 410.02 L261.298 434.903 L267.504 434.903 L267.504 438.1 L251.33 438.1 L251.33 434.903 Z" fill="#000000" fill-rule="evenodd" fill-opacity="1" /><path clip-path="url(#clip840)" d="M275.836 434.903 L282.043 434.903 L282.043 413.481 L275.291 414.835 L275.291 411.374 L282.005 410.02 L285.804 410.02 L285.804 434.903 L292.011 434.903 L292.011 438.1 L275.836 438.1 L275.836 434.903 Z" fill="#000000" fill-rule="evenodd" fill-opacity="1" /><path clip-path="url(#clip840)" d="M57.4287 213.452 L73.7481 213.452 L73.7481 217.387 L51.8037 217.387 L51.8037 213.452 Q54.4658 210.697 59.0491 206.068 Q63.6555 201.415 64.8361 200.072 Q67.0814 197.549 67.9611 195.813 Q68.8638 194.054 68.8638 192.364 Q68.8638 189.61 66.9194 187.873 Q64.9981 186.137 61.8963 186.137 Q59.6972 186.137 57.2435 186.901 Q54.813 187.665 52.0352 189.216 L52.0352 184.494 Q54.8593 183.36 57.313 182.781 Q59.7667 182.202 61.8037 182.202 Q67.174 182.202 70.3685 184.887 Q73.5629 187.572 73.5629 192.063 Q73.5629 194.193 72.7527 196.114 Q71.9657 198.012 69.8592 200.605 Q69.2805 201.276 66.1787 204.494 Q63.0768 207.688 57.4287 213.452 Z" fill="#000000" fill-rule="evenodd" fill-opacity="1" /><path clip-path="url(#clip840)" d="M83.5628 211.508 L88.4471 211.508 L88.4471 217.387 L83.5628 217.387 L83.5628 211.508 Z" fill="#000000" fill-rule="evenodd" fill-opacity="1" /><path clip-path="url(#clip840)" d="M98.6785 182.827 L117.035 182.827 L117.035 186.762 L102.961 186.762 L102.961 195.234 Q103.979 194.887 104.998 194.725 Q106.016 194.54 107.035 194.54 Q112.822 194.54 116.202 197.711 Q119.581 200.883 119.581 206.299 Q119.581 211.878 116.109 214.98 Q112.637 218.058 106.317 218.058 Q104.141 218.058 101.873 217.688 Q99.6276 217.318 97.2202 216.577 L97.2202 211.878 Q99.3035 213.012 101.526 213.568 Q103.748 214.123 106.225 214.123 Q110.229 214.123 112.567 212.017 Q114.905 209.91 114.905 206.299 Q114.905 202.688 112.567 200.582 Q110.229 198.475 106.225 198.475 Q104.35 198.475 102.475 198.892 Q100.623 199.309 98.6785 200.188 L98.6785 182.827 Z" fill="#000000" fill-rule="evenodd" fill-opacity="1" /><path clip-path="url(#clip840)" d="M138.794 185.906 Q135.183 185.906 133.354 189.471 Q131.549 193.012 131.549 200.142 Q131.549 207.248 133.354 210.813 Q135.183 214.355 138.794 214.355 Q142.428 214.355 144.234 210.813 Q146.062 207.248 146.062 200.142 Q146.062 193.012 144.234 189.471 Q142.428 185.906 138.794 185.906 M138.794 182.202 Q144.604 182.202 147.66 186.809 Q150.738 191.392 150.738 200.142 Q150.738 208.869 147.66 213.475 Q144.604 218.058 138.794 218.058 Q132.984 218.058 129.905 213.475 Q126.85 208.869 126.85 200.142 Q126.85 191.392 129.905 186.809 Q132.984 182.202 138.794 182.202 Z" fill="#000000" fill-rule="evenodd" fill-opacity="1" /><path clip-path="url(#clip840)" d="M187.127 191.924 L176.548 202.549 L187.127 213.128 L184.372 215.929 L173.748 205.304 L163.123 215.929 L160.391 213.128 L170.947 202.549 L160.391 191.924 L163.123 189.123 L173.748 199.748 L184.372 189.123 L187.127 191.924 Z" fill="#000000" fill-rule="evenodd" fill-opacity="1" /><path clip-path="url(#clip840)" d="M199.488 213.452 L207.127 213.452 L207.127 187.086 L198.817 188.753 L198.817 184.494 L207.081 182.827 L211.757 182.827 L211.757 213.452 L219.395 213.452 L219.395 217.387 L199.488 217.387 L199.488 213.452 Z" fill="#000000" fill-rule="evenodd" fill-opacity="1" /><path clip-path="url(#clip840)" d="M238.84 185.906 Q235.229 185.906 233.4 189.471 Q231.594 193.012 231.594 200.142 Q231.594 207.248 233.4 210.813 Q235.229 214.355 238.84 214.355 Q242.474 214.355 244.28 210.813 Q246.108 207.248 246.108 200.142 Q246.108 193.012 244.28 189.471 Q242.474 185.906 238.84 185.906 M238.84 182.202 Q244.65 182.202 247.705 186.809 Q250.784 191.392 250.784 200.142 Q250.784 208.869 247.705 213.475 Q244.65 218.058 238.84 218.058 Q233.03 218.058 229.951 213.475 Q226.895 208.869 226.895 200.142 Q226.895 191.392 229.951 186.809 Q233.03 182.202 238.84 182.202 Z" fill="#000000" fill-rule="evenodd" fill-opacity="1" /><path clip-path="url(#clip840)" d="M251.33 186.779 L257.536 186.779 L257.536 165.357 L250.784 166.712 L250.784 163.251 L257.499 161.897 L261.298 161.897 L261.298 186.779 L267.504 186.779 L267.504 189.977 L251.33 189.977 L251.33 186.779 Z" fill="#000000" fill-rule="evenodd" fill-opacity="1" /><path clip-path="url(#clip840)" d="M275.836 186.779 L282.043 186.779 L282.043 165.357 L275.291 166.712 L275.291 163.251 L282.005 161.897 L285.804 161.897 L285.804 186.779 L292.011 186.779 L292.011 189.977 L275.836 189.977 L275.836 186.779 Z" fill="#000000" fill-rule="evenodd" fill-opacity="1" /><polyline clip-path="url(#clip842)" style="stroke:#009af9; stroke-linecap:butt; stroke-linejoin:round; stroke-width:16; stroke-opacity:1; fill:none" points="
  328.011,1433.78 347.784,1433.77 530.617,1433.66 640.492,1433.56 733.389,1433.45 834.302,1433.28 927.335,1433.06 1027.08,1432.67 1142.64,1431.74 1168.31,1431.36 
  1193.98,1430.84 1219.66,1430.11 1245.33,1428.99 1256.59,1428.28 1267.85,1427.35 1279.1,1426.08 1290.36,1424.23 1295.99,1422.96 1301.62,1421.32 1307.24,1419.12 
  1312.87,1416.01 1318.5,1411.32 1324.13,1403.37 1326.94,1396.89 1329.76,1386.99 1331.17,1379.77 1332.57,1369.96 1333.98,1355.82 1335.39,1333.73 1336.15,1315.49 
  1336.92,1289.17 1337.69,1247.88 1338.46,1173.72 1339.22,1001.58 1339.99,159.196 1340.76,87.6286 1341.52,993.634 1342.29,1170.86 1343.06,1246.42 1343.82,1288.29 
  1344.59,1314.9 1345.36,1333.3 1346.13,1346.79 1346.89,1357.1 1347.66,1365.24 1349.19,1377.26 1350.73,1385.71 1352.26,1391.98 1353.8,1396.82 1356.86,1403.79 
  1359.93,1408.58 1366.07,1414.72 1372.21,1418.49 1378.34,1421.04 1384.48,1422.88 1396.75,1425.36 1409.03,1426.96 1421.3,1428.07 1433.57,1428.89 1458.26,1430.01 
  1482.95,1430.75 1507.65,1431.27 1532.34,1431.66 1641.54,1432.61 1745.44,1433.04 1853.47,1433.3 1944.41,1433.44 2055.44,1433.57 2159.81,1433.66 2327.02,1433.77 
  2352.76,1433.78 
  "/>
<path clip-path="url(#clip840)" d="
M2007.86 198.488 L2285.26 198.488 L2285.26 94.8081 L2007.86 94.8081  Z
  " fill="#ffffff" fill-rule="evenodd" fill-opacity="1"/>
<polyline clip-path="url(#clip840)" style="stroke:#000000; stroke-linecap:butt; stroke-linejoin:round; stroke-width:4; stroke-opacity:1; fill:none" points="
  2007.86,198.488 2285.26,198.488 2285.26,94.8081 2007.86,94.8081 2007.86,198.488 
  "/>
<polyline clip-path="url(#clip840)" style="stroke:#009af9; stroke-linecap:butt; stroke-linejoin:round; stroke-width:4; stroke-opacity:1; fill:none" points="
  2030.36,146.648 2165.34,146.648 
  "/>
<path clip-path="url(#clip840)" d="M2201.68 166.336 Q2199.88 170.965 2198.16 172.377 Q2196.45 173.789 2193.58 173.789 L2190.18 173.789 L2190.18 170.224 L2192.68 170.224 Q2194.44 170.224 2195.41 169.391 Q2196.38 168.558 2197.56 165.456 L2198.33 163.511 L2187.84 138.002 L2192.35 138.002 L2200.46 158.28 L2208.56 138.002 L2213.07 138.002 L2201.68 166.336 Z" fill="#000000" fill-rule="evenodd" fill-opacity="1" /><path clip-path="url(#clip840)" d="M2220.36 159.993 L2228 159.993 L2228 133.627 L2219.69 135.294 L2219.69 131.035 L2227.96 129.368 L2232.63 129.368 L2232.63 159.993 L2240.27 159.993 L2240.27 163.928 L2220.36 163.928 L2220.36 159.993 Z" fill="#000000" fill-rule="evenodd" fill-opacity="1" /></svg>
