<?xml version="1.0" encoding="utf-8"?>
<svg xmlns="http://www.w3.org/2000/svg" xmlns:xlink="http://www.w3.org/1999/xlink" width="600" height="400" viewBox="0 0 2400 1600">
<defs>
  <clipPath id="clip850">
    <rect x="0" y="0" width="2400" height="1600"/>
  </clipPath>
</defs>
<path clip-path="url(#clip850)" d="
M0 1600 L2400 1600 L2400 0 L0 0  Z
  " fill="#ffffff" fill-rule="evenodd" fill-opacity="1"/>
<defs>
  <clipPath id="clip851">
    <rect x="480" y="0" width="1681" height="1600"/>
  </clipPath>
</defs>
<path clip-path="url(#clip850)" d="
M141.853 1486.45 L2352.76 1486.45 L2352.76 47.2441 L141.853 47.2441  Z
  " fill="#ffffff" fill-rule="evenodd" fill-opacity="1"/>
<defs>
  <clipPath id="clip852">
    <rect x="141" y="47" width="2212" height="1440"/>
  </clipPath>
</defs>
<polyline clip-path="url(#clip852)" style="stroke:#000000; stroke-linecap:butt; stroke-linejoin:round; stroke-width:2; stroke-opacity:0.1; fill:none" points="
  141.853,1486.45 141.853,47.2441 
  "/>
<polyline clip-path="url(#clip852)" style="stroke:#000000; stroke-linecap:butt; stroke-linejoin:round; stroke-width:2; stroke-opacity:0.1; fill:none" points="
  694.579,1486.45 694.579,47.2441 
  "/>
<polyline clip-path="url(#clip852)" style="stroke:#000000; stroke-linecap:butt; stroke-linejoin:round; stroke-width:2; stroke-opacity:0.1; fill:none" points="
  1247.3,1486.45 1247.3,47.2441 
  "/>
<polyline clip-path="url(#clip852)" style="stroke:#000000; stroke-linecap:butt; stroke-linejoin:round; stroke-width:2; stroke-opacity:0.1; fill:none" points="
  1800.03,1486.45 1800.03,47.2441 
  "/>
<polyline clip-path="url(#clip852)" style="stroke:#000000; stroke-linecap:butt; stroke-linejoin:round; stroke-width:2; stroke-opacity:0.1; fill:none" points="
  2352.76,1486.45 2352.76,47.2441 
  "/>
<polyline clip-path="url(#clip850)" style="stroke:#000000; stroke-linecap:butt; stroke-linejoin:round; stroke-width:4; stroke-opacity:1; fill:none" points="
  141.853,1486.45 2352.76,1486.45 
  "/>
<polyline clip-path="url(#clip850)" style="stroke:#000000; stroke-linecap:butt; stroke-linejoin:round; stroke-width:4; stroke-opacity:1; fill:none" points="
  141.853,1486.45 141.853,1467.55 
  "/>
<polyline clip-path="url(#clip850)" style="stroke:#000000; stroke-linecap:butt; stroke-linejoin:round; stroke-width:4; stroke-opacity:1; fill:none" points="
  694.579,1486.45 694.579,1467.55 
  "/>
<polyline clip-path="url(#clip850)" style="stroke:#000000; stroke-linecap:butt; stroke-linejoin:round; stroke-width:4; stroke-opacity:1; fill:none" points="
  1247.3,1486.45 1247.3,1467.55 
  "/>
<polyline clip-path="url(#clip850)" style="stroke:#000000; stroke-linecap:butt; stroke-linejoin:round; stroke-width:4; stroke-opacity:1; fill:none" points="
  1800.03,1486.45 1800.03,1467.55 
  "/>
<polyline clip-path="url(#clip850)" style="stroke:#000000; stroke-linecap:butt; stroke-linejoin:round; stroke-width:4; stroke-opacity:1; fill:none" points="
  2352.76,1486.45 2352.76,1467.55 
  "/>
<path clip-path="url(#clip850)" d="M110.754 1532.02 L140.429 1532.02 L140.429 1535.95 L110.754 1535.95 L110.754 1532.02 Z" fill="#000000" fill-rule="evenodd" fill-opacity="1" /><path clip-path="url(#clip850)" d="M163.369 1518.36 L151.564 1536.81 L163.369 1536.81 L163.369 1518.36 M162.142 1514.29 L168.022 1514.29 L168.022 1536.81 L172.952 1536.81 L172.952 1540.7 L168.022 1540.7 L168.022 1548.85 L163.369 1548.85 L163.369 1540.7 L147.767 1540.7 L147.767 1536.19 L162.142 1514.29 Z" fill="#000000" fill-rule="evenodd" fill-opacity="1" /><path clip-path="url(#clip850)" d="M664.521 1532.02 L694.197 1532.02 L694.197 1535.95 L664.521 1535.95 L664.521 1532.02 Z" fill="#000000" fill-rule="evenodd" fill-opacity="1" /><path clip-path="url(#clip850)" d="M708.317 1544.91 L724.636 1544.91 L724.636 1548.85 L702.692 1548.85 L702.692 1544.91 Q705.354 1542.16 709.937 1537.53 Q714.544 1532.88 715.724 1531.53 Q717.97 1529.01 718.849 1527.27 Q719.752 1525.51 719.752 1523.82 Q719.752 1521.07 717.808 1519.33 Q715.886 1517.6 712.785 1517.6 Q710.586 1517.6 708.132 1518.36 Q705.701 1519.13 702.924 1520.68 L702.924 1515.95 Q705.748 1514.82 708.201 1514.24 Q710.655 1513.66 712.692 1513.66 Q718.062 1513.66 721.257 1516.35 Q724.451 1519.03 724.451 1523.52 Q724.451 1525.65 723.641 1527.57 Q722.854 1529.47 720.748 1532.07 Q720.169 1532.74 717.067 1535.95 Q713.965 1539.15 708.317 1544.91 Z" fill="#000000" fill-rule="evenodd" fill-opacity="1" /><path clip-path="url(#clip850)" d="M1247.3 1517.37 Q1243.69 1517.37 1241.86 1520.93 Q1240.06 1524.47 1240.06 1531.6 Q1240.06 1538.71 1241.86 1542.27 Q1243.69 1545.82 1247.3 1545.82 Q1250.94 1545.82 1252.74 1542.27 Q1254.57 1538.71 1254.57 1531.6 Q1254.57 1524.47 1252.74 1520.93 Q1250.94 1517.37 1247.3 1517.37 M1247.3 1513.66 Q1253.11 1513.66 1256.17 1518.27 Q1259.25 1522.85 1259.25 1531.6 Q1259.25 1540.33 1256.17 1544.94 Q1253.11 1549.52 1247.3 1549.52 Q1241.49 1549.52 1238.42 1544.94 Q1235.36 1540.33 1235.36 1531.6 Q1235.36 1522.85 1238.42 1518.27 Q1241.49 1513.66 1247.3 1513.66 Z" fill="#000000" fill-rule="evenodd" fill-opacity="1" /><path clip-path="url(#clip850)" d="M1794.68 1544.91 L1811 1544.91 L1811 1548.85 L1789.06 1548.85 L1789.06 1544.91 Q1791.72 1542.16 1796.3 1537.53 Q1800.91 1532.88 1802.09 1531.53 Q1804.34 1529.01 1805.22 1527.27 Q1806.12 1525.51 1806.12 1523.82 Q1806.12 1521.07 1804.17 1519.33 Q1802.25 1517.6 1799.15 1517.6 Q1796.95 1517.6 1794.5 1518.36 Q1792.07 1519.13 1789.29 1520.68 L1789.29 1515.95 Q1792.11 1514.82 1794.57 1514.24 Q1797.02 1513.66 1799.06 1513.66 Q1804.43 1513.66 1807.62 1516.35 Q1810.82 1519.03 1810.82 1523.52 Q1810.82 1525.65 1810.01 1527.57 Q1809.22 1529.47 1807.11 1532.07 Q1806.53 1532.74 1803.43 1535.95 Q1800.33 1539.15 1794.68 1544.91 Z" fill="#000000" fill-rule="evenodd" fill-opacity="1" /><path clip-path="url(#clip850)" d="M2355.77 1518.36 L2343.96 1536.81 L2355.77 1536.81 L2355.77 1518.36 M2354.54 1514.29 L2360.42 1514.29 L2360.42 1536.81 L2365.35 1536.81 L2365.35 1540.7 L2360.42 1540.7 L2360.42 1548.85 L2355.77 1548.85 L2355.77 1540.7 L2340.16 1540.7 L2340.16 1536.19 L2354.54 1514.29 Z" fill="#000000" fill-rule="evenodd" fill-opacity="1" /><polyline clip-path="url(#clip852)" style="stroke:#000000; stroke-linecap:butt; stroke-linejoin:round; stroke-width:2; stroke-opacity:0.1; fill:none" points="
  141.853,1445.72 2352.76,1445.72 
  "/>
<polyline clip-path="url(#clip852)" style="stroke:#000000; stroke-linecap:butt; stroke-linejoin:round; stroke-width:2; stroke-opacity:0.1; fill:none" points="
  141.853,1219.43 2352.76,1219.43 
  "/>
<polyline clip-path="url(#clip852)" style="stroke:#000000; stroke-linecap:butt; stroke-linejoin:round; stroke-width:2; stroke-opacity:0.1; fill:none" points="
  141.853,993.136 2352.76,993.136 
  "/>
<polyline clip-path="url(#clip852)" style="stroke:#000000; stroke-linecap:butt; stroke-linejoin:round; stroke-width:2; stroke-opacity:0.1; fill:none" points="
  141.853,766.846 2352.76,766.846 
  "/>
<polyline clip-path="url(#clip852)" style="stroke:#000000; stroke-linecap:butt; stroke-linejoin:round; stroke-width:2; stroke-opacity:0.1; fill:none" points="
  141.853,540.556 2352.76,540.556 
  "/>
<polyline clip-path="url(#clip852)" style="stroke:#000000; stroke-linecap:butt; stroke-linejoin:round; stroke-width:2; stroke-opacity:0.1; fill:none" points="
  141.853,314.266 2352.76,314.266 
  "/>
<polyline clip-path="url(#clip852)" style="stroke:#000000; stroke-linecap:butt; stroke-linejoin:round; stroke-width:2; stroke-opacity:0.1; fill:none" points="
  141.853,87.9763 2352.76,87.9763 
  "/>
<polyline clip-path="url(#clip850)" style="stroke:#000000; stroke-linecap:butt; stroke-linejoin:round; stroke-width:4; stroke-opacity:1; fill:none" points="
  141.853,1486.45 141.853,47.2441 
  "/>
<polyline clip-path="url(#clip850)" style="stroke:#000000; stroke-linecap:butt; stroke-linejoin:round; stroke-width:4; stroke-opacity:1; fill:none" points="
  141.853,1445.72 160.751,1445.72 
  "/>
<polyline clip-path="url(#clip850)" style="stroke:#000000; stroke-linecap:butt; stroke-linejoin:round; stroke-width:4; stroke-opacity:1; fill:none" points="
  141.853,1219.43 160.751,1219.43 
  "/>
<polyline clip-path="url(#clip850)" style="stroke:#000000; stroke-linecap:butt; stroke-linejoin:round; stroke-width:4; stroke-opacity:1; fill:none" points="
  141.853,993.136 160.751,993.136 
  "/>
<polyline clip-path="url(#clip850)" style="stroke:#000000; stroke-linecap:butt; stroke-linejoin:round; stroke-width:4; stroke-opacity:1; fill:none" points="
  141.853,766.846 160.751,766.846 
  "/>
<polyline clip-path="url(#clip850)" style="stroke:#000000; stroke-linecap:butt; stroke-linejoin:round; stroke-width:4; stroke-opacity:1; fill:none" points="
  141.853,540.556 160.751,540.556 
  "/>
<polyline clip-path="url(#clip850)" style="stroke:#000000; stroke-linecap:butt; stroke-linejoin:round; stroke-width:4; stroke-opacity:1; fill:none" points="
  141.853,314.266 160.751,314.266 
  "/>
<polyline clip-path="url(#clip850)" style="stroke:#000000; stroke-linecap:butt; stroke-linejoin:round; stroke-width:4; stroke-opacity:1; fill:none" points="
  141.853,87.9763 160.751,87.9763 
  "/>
<path clip-path="url(#clip850)" d="M93.9086 1431.51 Q90.2975 1431.51 88.4688 1435.08 Q86.6632 1438.62 86.6632 1445.75 Q86.6632 1452.86 88.4688 1456.42 Q90.2975 1459.96 93.9086 1459.96 Q97.5428 1459.96 99.3483 1456.42 Q101.177 1452.86 101.177 1445.75 Q101.177 1438.62 99.3483 1435.08 Q97.5428 1431.51 93.9086 1431.51 M93.9086 1427.81 Q99.7187 1427.81 102.774 1432.42 Q105.853 1437 105.853 1445.75 Q105.853 1454.48 102.774 1459.08 Q99.7187 1463.67 93.9086 1463.67 Q88.0984 1463.67 85.0197 1459.08 Q81.9642 1454.48 81.9642 1445.75 Q81.9642 1437 85.0197 1432.42 Q88.0984 1427.81 93.9086 1427.81 Z" fill="#000000" fill-rule="evenodd" fill-opacity="1" /><path clip-path="url(#clip850)" d="M54.5569 1232.77 L62.1958 1232.77 L62.1958 1206.41 L53.8856 1208.07 L53.8856 1203.81 L62.1495 1202.15 L66.8254 1202.15 L66.8254 1232.77 L74.4642 1232.77 L74.4642 1236.71 L54.5569 1236.71 L54.5569 1232.77 Z" fill="#000000" fill-rule="evenodd" fill-opacity="1" /><path clip-path="url(#clip850)" d="M93.9086 1205.22 Q90.2975 1205.22 88.4688 1208.79 Q86.6632 1212.33 86.6632 1219.46 Q86.6632 1226.57 88.4688 1230.13 Q90.2975 1233.67 93.9086 1233.67 Q97.5428 1233.67 99.3483 1230.13 Q101.177 1226.57 101.177 1219.46 Q101.177 1212.33 99.3483 1208.79 Q97.5428 1205.22 93.9086 1205.22 M93.9086 1201.52 Q99.7187 1201.52 102.774 1206.13 Q105.853 1210.71 105.853 1219.46 Q105.853 1228.19 102.774 1232.79 Q99.7187 1237.38 93.9086 1237.38 Q88.0984 1237.38 85.0197 1232.79 Q81.9642 1228.19 81.9642 1219.46 Q81.9642 1210.71 85.0197 1206.13 Q88.0984 1201.52 93.9086 1201.52 Z" fill="#000000" fill-rule="evenodd" fill-opacity="1" /><path clip-path="url(#clip850)" d="M57.7745 1006.48 L74.0939 1006.48 L74.0939 1010.42 L52.1495 1010.42 L52.1495 1006.48 Q54.8115 1003.73 59.3949 999.097 Q64.0013 994.444 65.1819 993.101 Q67.4272 990.578 68.3068 988.842 Q69.2096 987.083 69.2096 985.393 Q69.2096 982.638 67.2652 980.902 Q65.3439 979.166 62.2421 979.166 Q60.043 979.166 57.5893 979.93 Q55.1588 980.694 52.381 982.245 L52.381 977.523 Q55.2051 976.388 57.6588 975.81 Q60.1124 975.231 62.1495 975.231 Q67.5198 975.231 70.7142 977.916 Q73.9087 980.601 73.9087 985.092 Q73.9087 987.222 73.0985 989.143 Q72.3115 991.041 70.205 993.634 Q69.6263 994.305 66.5245 997.522 Q63.4226 1000.72 57.7745 1006.48 Z" fill="#000000" fill-rule="evenodd" fill-opacity="1" /><path clip-path="url(#clip850)" d="M93.9086 978.935 Q90.2975 978.935 88.4688 982.499 Q86.6632 986.041 86.6632 993.171 Q86.6632 1000.28 88.4688 1003.84 Q90.2975 1007.38 93.9086 1007.38 Q97.5428 1007.38 99.3483 1003.84 Q101.177 1000.28 101.177 993.171 Q101.177 986.041 99.3483 982.499 Q97.5428 978.935 93.9086 978.935 M93.9086 975.231 Q99.7187 975.231 102.774 979.837 Q105.853 984.421 105.853 993.171 Q105.853 1001.9 102.774 1006.5 Q99.7187 1011.09 93.9086 1011.09 Q88.0984 1011.09 85.0197 1006.5 Q81.9642 1001.9 81.9642 993.171 Q81.9642 984.421 85.0197 979.837 Q88.0984 975.231 93.9086 975.231 Z" fill="#000000" fill-rule="evenodd" fill-opacity="1" /><path clip-path="url(#clip850)" d="M67.9133 765.492 Q71.2698 766.209 73.1448 768.478 Q75.0429 770.746 75.0429 774.08 Q75.0429 779.195 71.5244 781.996 Q68.0059 784.797 61.5245 784.797 Q59.3486 784.797 57.0338 784.357 Q54.7421 783.941 52.2884 783.084 L52.2884 778.57 Q54.2328 779.705 56.5477 780.283 Q58.8625 780.862 61.3856 780.862 Q65.7837 780.862 68.0754 779.126 Q70.3902 777.39 70.3902 774.08 Q70.3902 771.024 68.2374 769.311 Q66.1078 767.575 62.2884 767.575 L58.2606 767.575 L58.2606 763.733 L62.4735 763.733 Q65.9226 763.733 67.7513 762.367 Q69.58 760.978 69.58 758.385 Q69.58 755.723 67.6819 754.311 Q65.8069 752.876 62.2884 752.876 Q60.3671 752.876 58.168 753.293 Q55.969 753.709 53.3301 754.589 L53.3301 750.422 Q55.9921 749.682 58.3069 749.311 Q60.6449 748.941 62.705 748.941 Q68.0291 748.941 71.1309 751.372 Q74.2327 753.779 74.2327 757.899 Q74.2327 760.77 72.5892 762.76 Q70.9457 764.728 67.9133 765.492 Z" fill="#000000" fill-rule="evenodd" fill-opacity="1" /><path clip-path="url(#clip850)" d="M93.9086 752.645 Q90.2975 752.645 88.4688 756.209 Q86.6632 759.751 86.6632 766.881 Q86.6632 773.987 88.4688 777.552 Q90.2975 781.094 93.9086 781.094 Q97.5428 781.094 99.3483 777.552 Q101.177 773.987 101.177 766.881 Q101.177 759.751 99.3483 756.209 Q97.5428 752.645 93.9086 752.645 M93.9086 748.941 Q99.7187 748.941 102.774 753.547 Q105.853 758.131 105.853 766.881 Q105.853 775.608 102.774 780.214 Q99.7187 784.797 93.9086 784.797 Q88.0984 784.797 85.0197 780.214 Q81.9642 775.608 81.9642 766.881 Q81.9642 758.131 85.0197 753.547 Q88.0984 748.941 93.9086 748.941 Z" fill="#000000" fill-rule="evenodd" fill-opacity="1" /><path clip-path="url(#clip850)" d="M66.5939 527.35 L54.7884 545.799 L66.5939 545.799 L66.5939 527.35 M65.367 523.276 L71.2466 523.276 L71.2466 545.799 L76.1772 545.799 L76.1772 549.688 L71.2466 549.688 L71.2466 557.836 L66.5939 557.836 L66.5939 549.688 L50.9921 549.688 L50.9921 545.174 L65.367 523.276 Z" fill="#000000" fill-rule="evenodd" fill-opacity="1" /><path clip-path="url(#clip850)" d="M93.9086 526.355 Q90.2975 526.355 88.4688 529.92 Q86.6632 533.461 86.6632 540.591 Q86.6632 547.697 88.4688 551.262 Q90.2975 554.804 93.9086 554.804 Q97.5428 554.804 99.3483 551.262 Q101.177 547.697 101.177 540.591 Q101.177 533.461 99.3483 529.92 Q97.5428 526.355 93.9086 526.355 M93.9086 522.651 Q99.7187 522.651 102.774 527.258 Q105.853 531.841 105.853 540.591 Q105.853 549.318 102.774 553.924 Q99.7187 558.507 93.9086 558.507 Q88.0984 558.507 85.0197 553.924 Q81.9642 549.318 81.9642 540.591 Q81.9642 531.841 85.0197 527.258 Q88.0984 522.651 93.9086 522.651 Z" fill="#000000" fill-rule="evenodd" fill-opacity="1" /><path clip-path="url(#clip850)" d="M53.793 296.986 L72.1494 296.986 L72.1494 300.921 L58.0754 300.921 L58.0754 309.394 Q59.0939 309.046 60.1124 308.884 Q61.131 308.699 62.1495 308.699 Q67.9365 308.699 71.3161 311.87 Q74.6957 315.042 74.6957 320.458 Q74.6957 326.037 71.2235 329.139 Q67.7513 332.217 61.4319 332.217 Q59.256 332.217 56.9875 331.847 Q54.7421 331.477 52.3347 330.736 L52.3347 326.037 Q54.418 327.171 56.6402 327.727 Q58.8625 328.282 61.3393 328.282 Q65.3439 328.282 67.6819 326.176 Q70.0198 324.069 70.0198 320.458 Q70.0198 316.847 67.6819 314.741 Q65.3439 312.634 61.3393 312.634 Q59.4643 312.634 57.5893 313.051 Q55.7375 313.468 53.793 314.347 L53.793 296.986 Z" fill="#000000" fill-rule="evenodd" fill-opacity="1" /><path clip-path="url(#clip850)" d="M93.9086 300.065 Q90.2975 300.065 88.4688 303.63 Q86.6632 307.171 86.6632 314.301 Q86.6632 321.407 88.4688 324.972 Q90.2975 328.514 93.9086 328.514 Q97.5428 328.514 99.3483 324.972 Q101.177 321.407 101.177 314.301 Q101.177 307.171 99.3483 303.63 Q97.5428 300.065 93.9086 300.065 M93.9086 296.361 Q99.7187 296.361 102.774 300.968 Q105.853 305.551 105.853 314.301 Q105.853 323.028 102.774 327.634 Q99.7187 332.217 93.9086 332.217 Q88.0984 332.217 85.0197 327.634 Q81.9642 323.028 81.9642 314.301 Q81.9642 305.551 85.0197 300.968 Q88.0984 296.361 93.9086 296.361 Z" fill="#000000" fill-rule="evenodd" fill-opacity="1" /><path clip-path="url(#clip850)" d="M64.3254 86.1129 Q61.1773 86.1129 59.3254 88.2656 Q57.4967 90.4184 57.4967 94.1684 Q57.4967 97.8952 59.3254 100.071 Q61.1773 102.224 64.3254 102.224 Q67.4735 102.224 69.3022 100.071 Q71.1541 97.8952 71.1541 94.1684 Q71.1541 90.4184 69.3022 88.2656 Q67.4735 86.1129 64.3254 86.1129 M73.6077 71.4602 L73.6077 75.7194 Q71.8485 74.8861 70.0429 74.4463 Q68.2606 74.0064 66.5013 74.0064 Q61.8717 74.0064 59.418 77.1314 Q56.9875 80.2564 56.6402 86.5758 Q58.006 84.5619 60.0662 83.4971 Q62.1263 82.4092 64.6032 82.4092 Q69.8115 82.4092 72.8207 85.5805 Q75.8531 88.7286 75.8531 94.1684 Q75.8531 99.4924 72.705 102.71 Q69.5568 105.928 64.3254 105.928 Q58.33 105.928 55.1588 101.344 Q51.9875 96.7378 51.9875 88.011 Q51.9875 79.8166 55.8764 74.9555 Q59.7652 70.0713 66.3161 70.0713 Q68.0754 70.0713 69.8578 70.4185 Q71.6633 70.7657 73.6077 71.4602 Z" fill="#000000" fill-rule="evenodd" fill-opacity="1" /><path clip-path="url(#clip850)" d="M93.9086 73.775 Q90.2975 73.775 88.4688 77.3398 Q86.6632 80.8814 86.6632 88.011 Q86.6632 95.1174 88.4688 98.6822 Q90.2975 102.224 93.9086 102.224 Q97.5428 102.224 99.3483 98.6822 Q101.177 95.1174 101.177 88.011 Q101.177 80.8814 99.3483 77.3398 Q97.5428 73.775 93.9086 73.775 M93.9086 70.0713 Q99.7187 70.0713 102.774 74.6777 Q105.853 79.261 105.853 88.011 Q105.853 96.7378 102.774 101.344 Q99.7187 105.928 93.9086 105.928 Q88.0984 105.928 85.0197 101.344 Q81.9642 96.7378 81.9642 88.011 Q81.9642 79.261 85.0197 74.6777 Q88.0984 70.0713 93.9086 70.0713 Z" fill="#000000" fill-rule="evenodd" fill-opacity="1" /><path clip-path="url(#clip852)" d="
M749.851 1219.43 L749.851 1445.72 L777.488 1445.72 L777.488 1219.43 L749.851 1219.43 L749.851 1219.43  Z
  " fill="#009af9" fill-rule="evenodd" fill-opacity="1"/>
<polyline clip-path="url(#clip852)" style="stroke:#000000; stroke-linecap:butt; stroke-linejoin:round; stroke-width:16; stroke-opacity:1; fill:none" points="
  749.851,1219.43 749.851,1445.72 777.488,1445.72 777.488,1219.43 749.851,1219.43 
  "/>
<path clip-path="url(#clip852)" d="
M777.488 993.136 L777.488 1445.72 L805.124 1445.72 L805.124 993.136 L777.488 993.136 L777.488 993.136  Z
  " fill="#009af9" fill-rule="evenodd" fill-opacity="1"/>
<polyline clip-path="url(#clip852)" style="stroke:#000000; stroke-linecap:butt; stroke-linejoin:round; stroke-width:16; stroke-opacity:1; fill:none" points="
  777.488,993.136 777.488,1445.72 805.124,1445.72 805.124,993.136 777.488,993.136 
  "/>
<path clip-path="url(#clip852)" d="
M805.124 1445.72 L805.124 1445.72 L832.76 1445.72 L832.76 1445.72 L805.124 1445.72 L805.124 1445.72  Z
  " fill="#009af9" fill-rule="evenodd" fill-opacity="1"/>
<polyline clip-path="url(#clip852)" style="stroke:#000000; stroke-linecap:butt; stroke-linejoin:round; stroke-width:16; stroke-opacity:1; fill:none" points="
  805.124,1445.72 805.124,1445.72 832.76,1445.72 805.124,1445.72 
  "/>
<path clip-path="url(#clip852)" d="
M832.76 1219.43 L832.76 1445.72 L860.396 1445.72 L860.396 1219.43 L832.76 1219.43 L832.76 1219.43  Z
  " fill="#009af9" fill-rule="evenodd" fill-opacity="1"/>
<polyline clip-path="url(#clip852)" style="stroke:#000000; stroke-linecap:butt; stroke-linejoin:round; stroke-width:16; stroke-opacity:1; fill:none" points="
  832.76,1219.43 832.76,1445.72 860.396,1445.72 860.396,1219.43 832.76,1219.43 
  "/>
<path clip-path="url(#clip852)" d="
M860.396 314.266 L860.396 1445.72 L888.033 1445.72 L888.033 314.266 L860.396 314.266 L860.396 314.266  Z
  " fill="#009af9" fill-rule="evenodd" fill-opacity="1"/>
<polyline clip-path="url(#clip852)" style="stroke:#000000; stroke-linecap:butt; stroke-linejoin:round; stroke-width:16; stroke-opacity:1; fill:none" points="
  860.396,314.266 860.396,1445.72 888.033,1445.72 888.033,314.266 860.396,314.266 
  "/>
<path clip-path="url(#clip852)" d="
M888.033 1219.43 L888.033 1445.72 L915.669 1445.72 L915.669 1219.43 L888.033 1219.43 L888.033 1219.43  Z
  " fill="#009af9" fill-rule="evenodd" fill-opacity="1"/>
<polyline clip-path="url(#clip852)" style="stroke:#000000; stroke-linecap:butt; stroke-linejoin:round; stroke-width:16; stroke-opacity:1; fill:none" points="
  888.033,1219.43 888.033,1445.72 915.669,1445.72 915.669,1219.43 888.033,1219.43 
  "/>
<path clip-path="url(#clip852)" d="
M915.669 766.846 L915.669 1445.72 L943.305 1445.72 L943.305 766.846 L915.669 766.846 L915.669 766.846  Z
  " fill="#009af9" fill-rule="evenodd" fill-opacity="1"/>
<polyline clip-path="url(#clip852)" style="stroke:#000000; stroke-linecap:butt; stroke-linejoin:round; stroke-width:16; stroke-opacity:1; fill:none" points="
  915.669,766.846 915.669,1445.72 943.305,1445.72 943.305,766.846 915.669,766.846 
  "/>
<path clip-path="url(#clip852)" d="
M943.305 993.136 L943.305 1445.72 L970.942 1445.72 L970.942 993.136 L943.305 993.136 L943.305 993.136  Z
  " fill="#009af9" fill-rule="evenodd" fill-opacity="1"/>
<polyline clip-path="url(#clip852)" style="stroke:#000000; stroke-linecap:butt; stroke-linejoin:round; stroke-width:16; stroke-opacity:1; fill:none" points="
  943.305,993.136 943.305,1445.72 970.942,1445.72 970.942,993.136 943.305,993.136 
  "/>
<path clip-path="url(#clip852)" d="
M970.942 540.556 L970.942 1445.72 L998.578 1445.72 L998.578 540.556 L970.942 540.556 L970.942 540.556  Z
  " fill="#009af9" fill-rule="evenodd" fill-opacity="1"/>
<polyline clip-path="url(#clip852)" style="stroke:#000000; stroke-linecap:butt; stroke-linejoin:round; stroke-width:16; stroke-opacity:1; fill:none" points="
  970.942,540.556 970.942,1445.72 998.578,1445.72 998.578,540.556 970.942,540.556 
  "/>
<path clip-path="url(#clip852)" d="
M998.578 1219.43 L998.578 1445.72 L1026.21 1445.72 L1026.21 1219.43 L998.578 1219.43 L998.578 1219.43  Z
  " fill="#009af9" fill-rule="evenodd" fill-opacity="1"/>
<polyline clip-path="url(#clip852)" style="stroke:#000000; stroke-linecap:butt; stroke-linejoin:round; stroke-width:16; stroke-opacity:1; fill:none" points="
  998.578,1219.43 998.578,1445.72 1026.21,1445.72 1026.21,1219.43 998.578,1219.43 
  "/>
<path clip-path="url(#clip852)" d="
M1026.21 766.846 L1026.21 1445.72 L1053.85 1445.72 L1053.85 766.846 L1026.21 766.846 L1026.21 766.846  Z
  " fill="#009af9" fill-rule="evenodd" fill-opacity="1"/>
<polyline clip-path="url(#clip852)" style="stroke:#000000; stroke-linecap:butt; stroke-linejoin:round; stroke-width:16; stroke-opacity:1; fill:none" points="
  1026.21,766.846 1026.21,1445.72 1053.85,1445.72 1053.85,766.846 1026.21,766.846 
  "/>
<path clip-path="url(#clip852)" d="
M1053.85 314.266 L1053.85 1445.72 L1081.49 1445.72 L1081.49 314.266 L1053.85 314.266 L1053.85 314.266  Z
  " fill="#009af9" fill-rule="evenodd" fill-opacity="1"/>
<polyline clip-path="url(#clip852)" style="stroke:#000000; stroke-linecap:butt; stroke-linejoin:round; stroke-width:16; stroke-opacity:1; fill:none" points="
  1053.85,314.266 1053.85,1445.72 1081.49,1445.72 1081.49,314.266 1053.85,314.266 
  "/>
<path clip-path="url(#clip852)" d="
M1081.49 540.556 L1081.49 1445.72 L1109.12 1445.72 L1109.12 540.556 L1081.49 540.556 L1081.49 540.556  Z
  " fill="#009af9" fill-rule="evenodd" fill-opacity="1"/>
<polyline clip-path="url(#clip852)" style="stroke:#000000; stroke-linecap:butt; stroke-linejoin:round; stroke-width:16; stroke-opacity:1; fill:none" points="
  1081.49,540.556 1081.49,1445.72 1109.12,1445.72 1109.12,540.556 1081.49,540.556 
  "/>
<path clip-path="url(#clip852)" d="
M1109.12 87.9763 L1109.12 1445.72 L1136.76 1445.72 L1136.76 87.9763 L1109.12 87.9763 L1109.12 87.9763  Z
  " fill="#009af9" fill-rule="evenodd" fill-opacity="1"/>
<polyline clip-path="url(#clip852)" style="stroke:#000000; stroke-linecap:butt; stroke-linejoin:round; stroke-width:16; stroke-opacity:1; fill:none" points="
  1109.12,87.9763 1109.12,1445.72 1136.76,1445.72 1136.76,87.9763 1109.12,87.9763 
  "/>
<path clip-path="url(#clip852)" d="
M1136.76 540.556 L1136.76 1445.72 L1164.4 1445.72 L1164.4 540.556 L1136.76 540.556 L1136.76 540.556  Z
  " fill="#009af9" fill-rule="evenodd" fill-opacity="1"/>
<polyline clip-path="url(#clip852)" style="stroke:#000000; stroke-linecap:butt; stroke-linejoin:round; stroke-width:16; stroke-opacity:1; fill:none" points="
  1136.76,540.556 1136.76,1445.72 1164.4,1445.72 1164.4,540.556 1136.76,540.556 
  "/>
<path clip-path="url(#clip852)" d="
M1164.4 314.266 L1164.4 1445.72 L1192.03 1445.72 L1192.03 314.266 L1164.4 314.266 L1164.4 314.266  Z
  " fill="#009af9" fill-rule="evenodd" fill-opacity="1"/>
<polyline clip-path="url(#clip852)" style="stroke:#000000; stroke-linecap:butt; stroke-linejoin:round; stroke-width:16; stroke-opacity:1; fill:none" points="
  1164.4,314.266 1164.4,1445.72 1192.03,1445.72 1192.03,314.266 1164.4,314.266 
  "/>
<path clip-path="url(#clip852)" d="
M1192.03 993.136 L1192.03 1445.72 L1219.67 1445.72 L1219.67 993.136 L1192.03 993.136 L1192.03 993.136  Z
  " fill="#009af9" fill-rule="evenodd" fill-opacity="1"/>
<polyline clip-path="url(#clip852)" style="stroke:#000000; stroke-linecap:butt; stroke-linejoin:round; stroke-width:16; stroke-opacity:1; fill:none" points="
  1192.03,993.136 1192.03,1445.72 1219.67,1445.72 1219.67,993.136 1192.03,993.136 
  "/>
<path clip-path="url(#clip852)" d="
M1219.67 993.136 L1219.67 1445.72 L1247.3 1445.72 L1247.3 993.136 L1219.67 993.136 L1219.67 993.136  Z
  " fill="#009af9" fill-rule="evenodd" fill-opacity="1"/>
<polyline clip-path="url(#clip852)" style="stroke:#000000; stroke-linecap:butt; stroke-linejoin:round; stroke-width:16; stroke-opacity:1; fill:none" points="
  1219.67,993.136 1219.67,1445.72 1247.3,1445.72 1247.3,993.136 1219.67,993.136 
  "/>
<path clip-path="url(#clip852)" d="
M1247.3 766.846 L1247.3 1445.72 L1274.94 1445.72 L1274.94 766.846 L1247.3 766.846 L1247.3 766.846  Z
  " fill="#009af9" fill-rule="evenodd" fill-opacity="1"/>
<polyline clip-path="url(#clip852)" style="stroke:#000000; stroke-linecap:butt; stroke-linejoin:round; stroke-width:16; stroke-opacity:1; fill:none" points="
  1247.3,766.846 1247.3,1445.72 1274.94,1445.72 1274.94,766.846 1247.3,766.846 
  "/>
<path clip-path="url(#clip852)" d="
M1274.94 993.136 L1274.94 1445.72 L1302.58 1445.72 L1302.58 993.136 L1274.94 993.136 L1274.94 993.136  Z
  " fill="#009af9" fill-rule="evenodd" fill-opacity="1"/>
<polyline clip-path="url(#clip852)" style="stroke:#000000; stroke-linecap:butt; stroke-linejoin:round; stroke-width:16; stroke-opacity:1; fill:none" points="
  1274.94,993.136 1274.94,1445.72 1302.58,1445.72 1302.58,993.136 1274.94,993.136 
  "/>
<path clip-path="url(#clip852)" d="
M1302.58 540.556 L1302.58 1445.72 L1330.21 1445.72 L1330.21 540.556 L1302.58 540.556 L1302.58 540.556  Z
  " fill="#009af9" fill-rule="evenodd" fill-opacity="1"/>
<polyline clip-path="url(#clip852)" style="stroke:#000000; stroke-linecap:butt; stroke-linejoin:round; stroke-width:16; stroke-opacity:1; fill:none" points="
  1302.58,540.556 1302.58,1445.72 1330.21,1445.72 1330.21,540.556 1302.58,540.556 
  "/>
<path clip-path="url(#clip852)" d="
M1330.21 993.136 L1330.21 1445.72 L1357.85 1445.72 L1357.85 993.136 L1330.21 993.136 L1330.21 993.136  Z
  " fill="#009af9" fill-rule="evenodd" fill-opacity="1"/>
<polyline clip-path="url(#clip852)" style="stroke:#000000; stroke-linecap:butt; stroke-linejoin:round; stroke-width:16; stroke-opacity:1; fill:none" points="
  1330.21,993.136 1330.21,1445.72 1357.85,1445.72 1357.85,993.136 1330.21,993.136 
  "/>
<path clip-path="url(#clip852)" d="
M1357.85 314.266 L1357.85 1445.72 L1385.49 1445.72 L1385.49 314.266 L1357.85 314.266 L1357.85 314.266  Z
  " fill="#009af9" fill-rule="evenodd" fill-opacity="1"/>
<polyline clip-path="url(#clip852)" style="stroke:#000000; stroke-linecap:butt; stroke-linejoin:round; stroke-width:16; stroke-opacity:1; fill:none" points="
  1357.85,314.266 1357.85,1445.72 1385.49,1445.72 1385.49,314.266 1357.85,314.266 
  "/>
<path clip-path="url(#clip852)" d="
M1385.49 314.266 L1385.49 1445.72 L1413.12 1445.72 L1413.12 314.266 L1385.49 314.266 L1385.49 314.266  Z
  " fill="#009af9" fill-rule="evenodd" fill-opacity="1"/>
<polyline clip-path="url(#clip852)" style="stroke:#000000; stroke-linecap:butt; stroke-linejoin:round; stroke-width:16; stroke-opacity:1; fill:none" points="
  1385.49,314.266 1385.49,1445.72 1413.12,1445.72 1413.12,314.266 1385.49,314.266 
  "/>
<path clip-path="url(#clip852)" d="
M1413.12 314.266 L1413.12 1445.72 L1440.76 1445.72 L1440.76 314.266 L1413.12 314.266 L1413.12 314.266  Z
  " fill="#009af9" fill-rule="evenodd" fill-opacity="1"/>
<polyline clip-path="url(#clip852)" style="stroke:#000000; stroke-linecap:butt; stroke-linejoin:round; stroke-width:16; stroke-opacity:1; fill:none" points="
  1413.12,314.266 1413.12,1445.72 1440.76,1445.72 1440.76,314.266 1413.12,314.266 
  "/>
<path clip-path="url(#clip852)" d="
M1440.76 540.556 L1440.76 1445.72 L1468.39 1445.72 L1468.39 540.556 L1440.76 540.556 L1440.76 540.556  Z
  " fill="#009af9" fill-rule="evenodd" fill-opacity="1"/>
<polyline clip-path="url(#clip852)" style="stroke:#000000; stroke-linecap:butt; stroke-linejoin:round; stroke-width:16; stroke-opacity:1; fill:none" points="
  1440.76,540.556 1440.76,1445.72 1468.39,1445.72 1468.39,540.556 1440.76,540.556 
  "/>
<path clip-path="url(#clip852)" d="
M1468.39 993.136 L1468.39 1445.72 L1496.03 1445.72 L1496.03 993.136 L1468.39 993.136 L1468.39 993.136  Z
  " fill="#009af9" fill-rule="evenodd" fill-opacity="1"/>
<polyline clip-path="url(#clip852)" style="stroke:#000000; stroke-linecap:butt; stroke-linejoin:round; stroke-width:16; stroke-opacity:1; fill:none" points="
  1468.39,993.136 1468.39,1445.72 1496.03,1445.72 1496.03,993.136 1468.39,993.136 
  "/>
<path clip-path="url(#clip852)" d="
M1496.03 993.136 L1496.03 1445.72 L1523.67 1445.72 L1523.67 993.136 L1496.03 993.136 L1496.03 993.136  Z
  " fill="#009af9" fill-rule="evenodd" fill-opacity="1"/>
<polyline clip-path="url(#clip852)" style="stroke:#000000; stroke-linecap:butt; stroke-linejoin:round; stroke-width:16; stroke-opacity:1; fill:none" points="
  1496.03,993.136 1496.03,1445.72 1523.67,1445.72 1523.67,993.136 1496.03,993.136 
  "/>
<path clip-path="url(#clip852)" d="
M1523.67 993.136 L1523.67 1445.72 L1551.3 1445.72 L1551.3 993.136 L1523.67 993.136 L1523.67 993.136  Z
  " fill="#009af9" fill-rule="evenodd" fill-opacity="1"/>
<polyline clip-path="url(#clip852)" style="stroke:#000000; stroke-linecap:butt; stroke-linejoin:round; stroke-width:16; stroke-opacity:1; fill:none" points="
  1523.67,993.136 1523.67,1445.72 1551.3,1445.72 1551.3,993.136 1523.67,993.136 
  "/>
<path clip-path="url(#clip852)" d="
M1551.3 540.556 L1551.3 1445.72 L1578.94 1445.72 L1578.94 540.556 L1551.3 540.556 L1551.3 540.556  Z
  " fill="#009af9" fill-rule="evenodd" fill-opacity="1"/>
<polyline clip-path="url(#clip852)" style="stroke:#000000; stroke-linecap:butt; stroke-linejoin:round; stroke-width:16; stroke-opacity:1; fill:none" points="
  1551.3,540.556 1551.3,1445.72 1578.94,1445.72 1578.94,540.556 1551.3,540.556 
  "/>
<path clip-path="url(#clip852)" d="
M1578.94 1219.43 L1578.94 1445.72 L1606.58 1445.72 L1606.58 1219.43 L1578.94 1219.43 L1578.94 1219.43  Z
  " fill="#009af9" fill-rule="evenodd" fill-opacity="1"/>
<polyline clip-path="url(#clip852)" style="stroke:#000000; stroke-linecap:butt; stroke-linejoin:round; stroke-width:16; stroke-opacity:1; fill:none" points="
  1578.94,1219.43 1578.94,1445.72 1606.58,1445.72 1606.58,1219.43 1578.94,1219.43 
  "/>
<path clip-path="url(#clip852)" d="
M1606.58 1445.72 L1606.58 1445.72 L1634.21 1445.72 L1634.21 1445.72 L1606.58 1445.72 L1606.58 1445.72  Z
  " fill="#009af9" fill-rule="evenodd" fill-opacity="1"/>
<polyline clip-path="url(#clip852)" style="stroke:#000000; stroke-linecap:butt; stroke-linejoin:round; stroke-width:16; stroke-opacity:1; fill:none" points="
  1606.58,1445.72 1606.58,1445.72 1634.21,1445.72 1606.58,1445.72 
  "/>
<path clip-path="url(#clip852)" d="
M1634.21 993.136 L1634.21 1445.72 L1661.85 1445.72 L1661.85 993.136 L1634.21 993.136 L1634.21 993.136  Z
  " fill="#009af9" fill-rule="evenodd" fill-opacity="1"/>
<polyline clip-path="url(#clip852)" style="stroke:#000000; stroke-linecap:butt; stroke-linejoin:round; stroke-width:16; stroke-opacity:1; fill:none" points="
  1634.21,993.136 1634.21,1445.72 1661.85,1445.72 1661.85,993.136 1634.21,993.136 
  "/>
<path clip-path="url(#clip852)" d="
M1661.85 1445.72 L1661.85 1445.72 L1689.49 1445.72 L1689.49 1445.72 L1661.85 1445.72 L1661.85 1445.72  Z
  " fill="#009af9" fill-rule="evenodd" fill-opacity="1"/>
<polyline clip-path="url(#clip852)" style="stroke:#000000; stroke-linecap:butt; stroke-linejoin:round; stroke-width:16; stroke-opacity:1; fill:none" points="
  1661.85,1445.72 1661.85,1445.72 1689.49,1445.72 1661.85,1445.72 
  "/>
<path clip-path="url(#clip852)" d="
M1689.49 1219.43 L1689.49 1445.72 L1717.12 1445.72 L1717.12 1219.43 L1689.49 1219.43 L1689.49 1219.43  Z
  " fill="#009af9" fill-rule="evenodd" fill-opacity="1"/>
<polyline clip-path="url(#clip852)" style="stroke:#000000; stroke-linecap:butt; stroke-linejoin:round; stroke-width:16; stroke-opacity:1; fill:none" points="
  1689.49,1219.43 1689.49,1445.72 1717.12,1445.72 1717.12,1219.43 1689.49,1219.43 
  "/>
<path clip-path="url(#clip852)" d="
M1717.12 1445.72 L1717.12 1445.72 L1744.76 1445.72 L1744.76 1445.72 L1717.12 1445.72 L1717.12 1445.72  Z
  " fill="#009af9" fill-rule="evenodd" fill-opacity="1"/>
<polyline clip-path="url(#clip852)" style="stroke:#000000; stroke-linecap:butt; stroke-linejoin:round; stroke-width:16; stroke-opacity:1; fill:none" points="
  1717.12,1445.72 1717.12,1445.72 1744.76,1445.72 1717.12,1445.72 
  "/>
<path clip-path="url(#clip852)" d="
M1744.76 993.136 L1744.76 1445.72 L1772.39 1445.72 L1772.39 993.136 L1744.76 993.136 L1744.76 993.136  Z
  " fill="#009af9" fill-rule="evenodd" fill-opacity="1"/>
<polyline clip-path="url(#clip852)" style="stroke:#000000; stroke-linecap:butt; stroke-linejoin:round; stroke-width:16; stroke-opacity:1; fill:none" points="
  1744.76,993.136 1744.76,1445.72 1772.39,1445.72 1772.39,993.136 1744.76,993.136 
  "/>
<path clip-path="url(#clip852)" d="
M1772.39 1445.72 L1772.39 1445.72 L1800.03 1445.72 L1800.03 1445.72 L1772.39 1445.72 L1772.39 1445.72  Z
  " fill="#009af9" fill-rule="evenodd" fill-opacity="1"/>
<polyline clip-path="url(#clip852)" style="stroke:#000000; stroke-linecap:butt; stroke-linejoin:round; stroke-width:16; stroke-opacity:1; fill:none" points="
  1772.39,1445.72 1772.39,1445.72 1800.03,1445.72 1772.39,1445.72 
  "/>
<path clip-path="url(#clip852)" d="
M1800.03 1445.72 L1800.03 1445.72 L1827.67 1445.72 L1827.67 1445.72 L1800.03 1445.72 L1800.03 1445.72  Z
  " fill="#009af9" fill-rule="evenodd" fill-opacity="1"/>
<polyline clip-path="url(#clip852)" style="stroke:#000000; stroke-linecap:butt; stroke-linejoin:round; stroke-width:16; stroke-opacity:1; fill:none" points="
  1800.03,1445.72 1800.03,1445.72 1827.67,1445.72 1800.03,1445.72 
  "/>
<path clip-path="url(#clip852)" d="
M1827.67 1219.43 L1827.67 1445.72 L1855.3 1445.72 L1855.3 1219.43 L1827.67 1219.43 L1827.67 1219.43  Z
  " fill="#009af9" fill-rule="evenodd" fill-opacity="1"/>
<polyline clip-path="url(#clip852)" style="stroke:#000000; stroke-linecap:butt; stroke-linejoin:round; stroke-width:16; stroke-opacity:1; fill:none" points="
  1827.67,1219.43 1827.67,1445.72 1855.3,1445.72 1855.3,1219.43 1827.67,1219.43 
  "/>
<path clip-path="url(#clip852)" d="
M1855.3 1219.43 L1855.3 1445.72 L1882.94 1445.72 L1882.94 1219.43 L1855.3 1219.43 L1855.3 1219.43  Z
  " fill="#009af9" fill-rule="evenodd" fill-opacity="1"/>
<polyline clip-path="url(#clip852)" style="stroke:#000000; stroke-linecap:butt; stroke-linejoin:round; stroke-width:16; stroke-opacity:1; fill:none" points="
  1855.3,1219.43 1855.3,1445.72 1882.94,1445.72 1882.94,1219.43 1855.3,1219.43 
  "/>
<path clip-path="url(#clip852)" d="
M1882.94 1445.72 L1882.94 1445.72 L1910.58 1445.72 L1910.58 1445.72 L1882.94 1445.72 L1882.94 1445.72  Z
  " fill="#009af9" fill-rule="evenodd" fill-opacity="1"/>
<polyline clip-path="url(#clip852)" style="stroke:#000000; stroke-linecap:butt; stroke-linejoin:round; stroke-width:16; stroke-opacity:1; fill:none" points="
  1882.94,1445.72 1882.94,1445.72 1910.58,1445.72 1882.94,1445.72 
  "/>
<path clip-path="url(#clip852)" d="
M1910.58 1445.72 L1910.58 1445.72 L1938.21 1445.72 L1938.21 1445.72 L1910.58 1445.72 L1910.58 1445.72  Z
  " fill="#009af9" fill-rule="evenodd" fill-opacity="1"/>
<polyline clip-path="url(#clip852)" style="stroke:#000000; stroke-linecap:butt; stroke-linejoin:round; stroke-width:16; stroke-opacity:1; fill:none" points="
  1910.58,1445.72 1910.58,1445.72 1938.21,1445.72 1910.58,1445.72 
  "/>
<path clip-path="url(#clip852)" d="
M1938.21 1219.43 L1938.21 1445.72 L1965.85 1445.72 L1965.85 1219.43 L1938.21 1219.43 L1938.21 1219.43  Z
  " fill="#009af9" fill-rule="evenodd" fill-opacity="1"/>
<polyline clip-path="url(#clip852)" style="stroke:#000000; stroke-linecap:butt; stroke-linejoin:round; stroke-width:16; stroke-opacity:1; fill:none" points="
  1938.21,1219.43 1938.21,1445.72 1965.85,1445.72 1965.85,1219.43 1938.21,1219.43 
  "/>
<circle clip-path="url(#clip852)" style="fill:#009af9; stroke:none; fill-opacity:0" cx="763.669" cy="1219.43" r="2"/>
<circle clip-path="url(#clip852)" style="fill:#009af9; stroke:none; fill-opacity:0" cx="791.306" cy="993.136" r="2"/>
<circle clip-path="url(#clip852)" style="fill:#009af9; stroke:none; fill-opacity:0" cx="818.942" cy="1445.72" r="2"/>
<circle clip-path="url(#clip852)" style="fill:#009af9; stroke:none; fill-opacity:0" cx="846.578" cy="1219.43" r="2"/>
<circle clip-path="url(#clip852)" style="fill:#009af9; stroke:none; fill-opacity:0" cx="874.215" cy="314.266" r="2"/>
<circle clip-path="url(#clip852)" style="fill:#009af9; stroke:none; fill-opacity:0" cx="901.851" cy="1219.43" r="2"/>
<circle clip-path="url(#clip852)" style="fill:#009af9; stroke:none; fill-opacity:0" cx="929.487" cy="766.846" r="2"/>
<circle clip-path="url(#clip852)" style="fill:#009af9; stroke:none; fill-opacity:0" cx="957.123" cy="993.136" r="2"/>
<circle clip-path="url(#clip852)" style="fill:#009af9; stroke:none; fill-opacity:0" cx="984.76" cy="540.556" r="2"/>
<circle clip-path="url(#clip852)" style="fill:#009af9; stroke:none; fill-opacity:0" cx="1012.4" cy="1219.43" r="2"/>
<circle clip-path="url(#clip852)" style="fill:#009af9; stroke:none; fill-opacity:0" cx="1040.03" cy="766.846" r="2"/>
<circle clip-path="url(#clip852)" style="fill:#009af9; stroke:none; fill-opacity:0" cx="1067.67" cy="314.266" r="2"/>
<circle clip-path="url(#clip852)" style="fill:#009af9; stroke:none; fill-opacity:0" cx="1095.3" cy="540.556" r="2"/>
<circle clip-path="url(#clip852)" style="fill:#009af9; stroke:none; fill-opacity:0" cx="1122.94" cy="87.9763" r="2"/>
<circle clip-path="url(#clip852)" style="fill:#009af9; stroke:none; fill-opacity:0" cx="1150.58" cy="540.556" r="2"/>
<circle clip-path="url(#clip852)" style="fill:#009af9; stroke:none; fill-opacity:0" cx="1178.21" cy="314.266" r="2"/>
<circle clip-path="url(#clip852)" style="fill:#009af9; stroke:none; fill-opacity:0" cx="1205.85" cy="993.136" r="2"/>
<circle clip-path="url(#clip852)" style="fill:#009af9; stroke:none; fill-opacity:0" cx="1233.49" cy="993.136" r="2"/>
<circle clip-path="url(#clip852)" style="fill:#009af9; stroke:none; fill-opacity:0" cx="1261.12" cy="766.846" r="2"/>
<circle clip-path="url(#clip852)" style="fill:#009af9; stroke:none; fill-opacity:0" cx="1288.76" cy="993.136" r="2"/>
<circle clip-path="url(#clip852)" style="fill:#009af9; stroke:none; fill-opacity:0" cx="1316.4" cy="540.556" r="2"/>
<circle clip-path="url(#clip852)" style="fill:#009af9; stroke:none; fill-opacity:0" cx="1344.03" cy="993.136" r="2"/>
<circle clip-path="url(#clip852)" style="fill:#009af9; stroke:none; fill-opacity:0" cx="1371.67" cy="314.266" r="2"/>
<circle clip-path="url(#clip852)" style="fill:#009af9; stroke:none; fill-opacity:0" cx="1399.3" cy="314.266" r="2"/>
<circle clip-path="url(#clip852)" style="fill:#009af9; stroke:none; fill-opacity:0" cx="1426.94" cy="314.266" r="2"/>
<circle clip-path="url(#clip852)" style="fill:#009af9; stroke:none; fill-opacity:0" cx="1454.58" cy="540.556" r="2"/>
<circle clip-path="url(#clip852)" style="fill:#009af9; stroke:none; fill-opacity:0" cx="1482.21" cy="993.136" r="2"/>
<circle clip-path="url(#clip852)" style="fill:#009af9; stroke:none; fill-opacity:0" cx="1509.85" cy="993.136" r="2"/>
<circle clip-path="url(#clip852)" style="fill:#009af9; stroke:none; fill-opacity:0" cx="1537.49" cy="993.136" r="2"/>
<circle clip-path="url(#clip852)" style="fill:#009af9; stroke:none; fill-opacity:0" cx="1565.12" cy="540.556" r="2"/>
<circle clip-path="url(#clip852)" style="fill:#009af9; stroke:none; fill-opacity:0" cx="1592.76" cy="1219.43" r="2"/>
<circle clip-path="url(#clip852)" style="fill:#009af9; stroke:none; fill-opacity:0" cx="1620.39" cy="1445.72" r="2"/>
<circle clip-path="url(#clip852)" style="fill:#009af9; stroke:none; fill-opacity:0" cx="1648.03" cy="993.136" r="2"/>
<circle clip-path="url(#clip852)" style="fill:#009af9; stroke:none; fill-opacity:0" cx="1675.67" cy="1445.72" r="2"/>
<circle clip-path="url(#clip852)" style="fill:#009af9; stroke:none; fill-opacity:0" cx="1703.3" cy="1219.43" r="2"/>
<circle clip-path="url(#clip852)" style="fill:#009af9; stroke:none; fill-opacity:0" cx="1730.94" cy="1445.72" r="2"/>
<circle clip-path="url(#clip852)" style="fill:#009af9; stroke:none; fill-opacity:0" cx="1758.58" cy="993.136" r="2"/>
<circle clip-path="url(#clip852)" style="fill:#009af9; stroke:none; fill-opacity:0" cx="1786.21" cy="1445.72" r="2"/>
<circle clip-path="url(#clip852)" style="fill:#009af9; stroke:none; fill-opacity:0" cx="1813.85" cy="1445.72" r="2"/>
<circle clip-path="url(#clip852)" style="fill:#009af9; stroke:none; fill-opacity:0" cx="1841.48" cy="1219.43" r="2"/>
<circle clip-path="url(#clip852)" style="fill:#009af9; stroke:none; fill-opacity:0" cx="1869.12" cy="1219.43" r="2"/>
<circle clip-path="url(#clip852)" style="fill:#009af9; stroke:none; fill-opacity:0" cx="1896.76" cy="1445.72" r="2"/>
<circle clip-path="url(#clip852)" style="fill:#009af9; stroke:none; fill-opacity:0" cx="1924.39" cy="1445.72" r="2"/>
<circle clip-path="url(#clip852)" style="fill:#009af9; stroke:none; fill-opacity:0" cx="1952.03" cy="1219.43" r="2"/>
<polyline clip-path="url(#clip852)" style="stroke:#e26f46; stroke-linecap:butt; stroke-linejoin:round; stroke-width:16; stroke-opacity:1; fill:none" points="
  141.853,1445.41 152.649,1445.36 163.444,1445.3 263.265,1444.12 363.087,1440.31 423.075,1435.15 483.064,1425.99 533.783,1413.5 584.503,1394.83 612.05,1381.41 
  639.598,1365.25 667.146,1346.03 694.694,1323.44 720.09,1299.39 745.487,1272.09 770.883,1241.42 796.28,1207.36 823.508,1167.14 850.736,1123.28 877.964,1076.11 
  905.191,1026.14 968.284,903.426 1031.38,780.42 1059.41,729.24 1087.44,682.022 1115.48,640.026 1143.51,604.422 1168.1,579.276 1192.68,560.412 1217.26,548.267 
  1241.85,543.125 1268.65,545.639 1295.45,556.548 1322.26,575.548 1349.06,602.115 1376.02,635.744 1402.98,675.4 1429.95,720.054 1456.91,768.595 1516.53,884.02 
  1576.15,1000.96 1604.51,1054.15 1632.88,1104.6 1661.24,1151.66 1689.6,1194.88 1719.09,1235.47 1748.59,1271.48 1778.08,1302.95 1807.57,1330.07 1857.22,1366.66 
  1906.87,1393.39 1967.49,1415.45 2028.11,1429.03 2085.09,1436.6 2142.07,1440.94 2233.37,1444.16 2324.66,1445.26 2338.71,1445.35 2352.76,1445.41 
  "/>
<path clip-path="url(#clip850)" d="
M1954.76 328.498 L2279.06 328.498 L2279.06 95.2176 L1954.76 95.2176  Z
  " fill="#ffffff" fill-rule="evenodd" fill-opacity="1"/>
<polyline clip-path="url(#clip850)" style="stroke:#000000; stroke-linecap:butt; stroke-linejoin:round; stroke-width:4; stroke-opacity:1; fill:none" points="
  1954.76,328.498 2279.06,328.498 2279.06,95.2176 1954.76,95.2176 1954.76,328.498 
  "/>
<path clip-path="url(#clip850)" d="
M1979.32 204.082 L2126.72 204.082 L2126.72 141.874 L1979.32 141.874 L1979.32 204.082  Z
  " fill="#009af9" fill-rule="evenodd" fill-opacity="1"/>
<polyline clip-path="url(#clip850)" style="stroke:#000000; stroke-linecap:butt; stroke-linejoin:round; stroke-width:16; stroke-opacity:1; fill:none" points="
  1979.32,204.082 2126.72,204.082 2126.72,141.874 1979.32,141.874 1979.32,204.082 
  "/>
<path clip-path="url(#clip850)" d="M2172.05 202.509 Q2169.34 209.453 2166.77 211.571 Q2164.2 213.689 2159.89 213.689 L2154.79 213.689 L2154.79 208.342 L2158.54 208.342 Q2161.18 208.342 2162.64 207.092 Q2164.09 205.842 2165.87 201.189 L2167.01 198.273 L2151.28 160.009 L2158.05 160.009 L2170.21 190.425 L2182.36 160.009 L2189.13 160.009 L2172.05 202.509 Z" fill="#000000" fill-rule="evenodd" fill-opacity="1" /><path clip-path="url(#clip850)" d="M2200.07 192.995 L2211.53 192.995 L2211.53 153.446 L2199.06 155.946 L2199.06 149.558 L2211.46 147.058 L2218.47 147.058 L2218.47 192.995 L2229.93 192.995 L2229.93 198.898 L2200.07 198.898 L2200.07 192.995 Z" fill="#000000" fill-rule="evenodd" fill-opacity="1" /><polyline clip-path="url(#clip850)" style="stroke:#e26f46; stroke-linecap:butt; stroke-linejoin:round; stroke-width:6; stroke-opacity:1; fill:none" points="
  1979.32,250.738 2126.72,250.738 
  "/>
<path clip-path="url(#clip850)" d="M2172.05 280.269 Q2169.34 287.213 2166.77 289.331 Q2164.2 291.449 2159.89 291.449 L2154.79 291.449 L2154.79 286.102 L2158.54 286.102 Q2161.18 286.102 2162.64 284.852 Q2164.09 283.602 2165.87 278.949 L2167.01 276.033 L2151.28 237.769 L2158.05 237.769 L2170.21 268.185 L2182.36 237.769 L2189.13 237.769 L2172.05 280.269 Z" fill="#000000" fill-rule="evenodd" fill-opacity="1" /><path clip-path="url(#clip850)" d="M2204.89 270.755 L2229.37 270.755 L2229.37 276.658 L2196.46 276.658 L2196.46 270.755 Q2200.45 266.623 2207.32 259.678 Q2214.23 252.699 2216 250.685 Q2219.37 246.901 2220.69 244.297 Q2222.05 241.658 2222.05 239.123 Q2222.05 234.991 2219.13 232.387 Q2216.25 229.783 2211.59 229.783 Q2208.3 229.783 2204.62 230.929 Q2200.97 232.074 2196.8 234.401 L2196.8 227.318 Q2201.04 225.616 2204.72 224.748 Q2208.4 223.88 2211.46 223.88 Q2219.51 223.88 2224.3 227.908 Q2229.09 231.936 2229.09 238.672 Q2229.09 241.866 2227.88 244.748 Q2226.7 247.595 2223.54 251.484 Q2222.67 252.491 2218.02 257.317 Q2213.37 262.109 2204.89 270.755 Z" fill="#000000" fill-rule="evenodd" fill-opacity="1" /></svg>
