<?xml version="1.0" encoding="utf-8"?>
<svg xmlns="http://www.w3.org/2000/svg" xmlns:xlink="http://www.w3.org/1999/xlink" width="600" height="400" viewBox="0 0 2400 1600">
<defs>
  <clipPath id="clip830">
    <rect x="0" y="0" width="2400" height="1600"/>
  </clipPath>
</defs>
<path clip-path="url(#clip830)" d="
M0 1600 L2400 1600 L2400 0 L0 0  Z
  " fill="#ffffff" fill-rule="evenodd" fill-opacity="1"/>
<defs>
  <clipPath id="clip831">
    <rect x="480" y="0" width="1681" height="1600"/>
  </clipPath>
</defs>
<defs>
  <clipPath id="clip832">
    <rect x="186" y="47" width="2167" height="1440"/>
  </clipPath>
</defs>
<path clip-path="url(#clip830)" d="
M156.598 1486.45 L2352.76 1486.45 L2352.76 47.2441 L156.598 47.2441  Z
  " fill="#ffffff" fill-rule="evenodd" fill-opacity="1"/>
<defs>
  <clipPath id="clip833">
    <rect x="156" y="47" width="2197" height="1440"/>
  </clipPath>
</defs>
<polyline clip-path="url(#clip833)" style="stroke:#000000; stroke-linecap:butt; stroke-linejoin:round; stroke-width:2; stroke-opacity:0.1; fill:none" points="
  218.754,1486.45 218.754,47.2441 
  "/>
<polyline clip-path="url(#clip833)" style="stroke:#000000; stroke-linecap:butt; stroke-linejoin:round; stroke-width:2; stroke-opacity:0.1; fill:none" points="
  736.715,1486.45 736.715,47.2441 
  "/>
<polyline clip-path="url(#clip833)" style="stroke:#000000; stroke-linecap:butt; stroke-linejoin:round; stroke-width:2; stroke-opacity:0.1; fill:none" points="
  1254.68,1486.45 1254.68,47.2441 
  "/>
<polyline clip-path="url(#clip833)" style="stroke:#000000; stroke-linecap:butt; stroke-linejoin:round; stroke-width:2; stroke-opacity:0.1; fill:none" points="
  1772.64,1486.45 1772.64,47.2441 
  "/>
<polyline clip-path="url(#clip833)" style="stroke:#000000; stroke-linecap:butt; stroke-linejoin:round; stroke-width:2; stroke-opacity:0.1; fill:none" points="
  2290.6,1486.45 2290.6,47.2441 
  "/>
<polyline clip-path="url(#clip830)" style="stroke:#000000; stroke-linecap:butt; stroke-linejoin:round; stroke-width:4; stroke-opacity:1; fill:none" points="
  156.598,1486.45 2352.76,1486.45 
  "/>
<polyline clip-path="url(#clip830)" style="stroke:#000000; stroke-linecap:butt; stroke-linejoin:round; stroke-width:4; stroke-opacity:1; fill:none" points="
  218.754,1486.45 218.754,1467.55 
  "/>
<polyline clip-path="url(#clip830)" style="stroke:#000000; stroke-linecap:butt; stroke-linejoin:round; stroke-width:4; stroke-opacity:1; fill:none" points="
  736.715,1486.45 736.715,1467.55 
  "/>
<polyline clip-path="url(#clip830)" style="stroke:#000000; stroke-linecap:butt; stroke-linejoin:round; stroke-width:4; stroke-opacity:1; fill:none" points="
  1254.68,1486.45 1254.68,1467.55 
  "/>
<polyline clip-path="url(#clip830)" style="stroke:#000000; stroke-linecap:butt; stroke-linejoin:round; stroke-width:4; stroke-opacity:1; fill:none" points="
  1772.64,1486.45 1772.64,1467.55 
  "/>
<polyline clip-path="url(#clip830)" style="stroke:#000000; stroke-linecap:butt; stroke-linejoin:round; stroke-width:4; stroke-opacity:1; fill:none" points="
  2290.6,1486.45 2290.6,1467.55 
  "/>
<path clip-path="url(#clip830)" d="M165.282 1532.02 L194.957 1532.02 L194.957 1535.95 L165.282 1535.95 L165.282 1532.02 Z" fill="#000000" fill-rule="evenodd" fill-opacity="1" /><path clip-path="url(#clip830)" d="M205.86 1544.91 L213.499 1544.91 L213.499 1518.55 L205.189 1520.21 L205.189 1515.95 L213.453 1514.29 L218.129 1514.29 L218.129 1544.91 L225.767 1544.91 L225.767 1548.85 L205.86 1548.85 L205.86 1544.91 Z" fill="#000000" fill-rule="evenodd" fill-opacity="1" /><path clip-path="url(#clip830)" d="M235.212 1542.97 L240.096 1542.97 L240.096 1548.85 L235.212 1548.85 L235.212 1542.97 Z" fill="#000000" fill-rule="evenodd" fill-opacity="1" /><path clip-path="url(#clip830)" d="M260.281 1517.37 Q256.67 1517.37 254.841 1520.93 Q253.036 1524.47 253.036 1531.6 Q253.036 1538.71 254.841 1542.27 Q256.67 1545.82 260.281 1545.82 Q263.915 1545.82 265.721 1542.27 Q267.55 1538.71 267.55 1531.6 Q267.55 1524.47 265.721 1520.93 Q263.915 1517.37 260.281 1517.37 M260.281 1513.66 Q266.091 1513.66 269.147 1518.27 Q272.226 1522.85 272.226 1531.6 Q272.226 1540.33 269.147 1544.94 Q266.091 1549.52 260.281 1549.52 Q254.471 1549.52 251.392 1544.94 Q248.337 1540.33 248.337 1531.6 Q248.337 1522.85 251.392 1518.27 Q254.471 1513.66 260.281 1513.66 Z" fill="#000000" fill-rule="evenodd" fill-opacity="1" /><path clip-path="url(#clip830)" d="M683.741 1532.02 L713.417 1532.02 L713.417 1535.95 L683.741 1535.95 L683.741 1532.02 Z" fill="#000000" fill-rule="evenodd" fill-opacity="1" /><path clip-path="url(#clip830)" d="M733.509 1517.37 Q729.898 1517.37 728.07 1520.93 Q726.264 1524.47 726.264 1531.6 Q726.264 1538.71 728.07 1542.27 Q729.898 1545.82 733.509 1545.82 Q737.144 1545.82 738.949 1542.27 Q740.778 1538.71 740.778 1531.6 Q740.778 1524.47 738.949 1520.93 Q737.144 1517.37 733.509 1517.37 M733.509 1513.66 Q739.32 1513.66 742.375 1518.27 Q745.454 1522.85 745.454 1531.6 Q745.454 1540.33 742.375 1544.94 Q739.32 1549.52 733.509 1549.52 Q727.699 1549.52 724.621 1544.94 Q721.565 1540.33 721.565 1531.6 Q721.565 1522.85 724.621 1518.27 Q727.699 1513.66 733.509 1513.66 Z" fill="#000000" fill-rule="evenodd" fill-opacity="1" /><path clip-path="url(#clip830)" d="M753.671 1542.97 L758.556 1542.97 L758.556 1548.85 L753.671 1548.85 L753.671 1542.97 Z" fill="#000000" fill-rule="evenodd" fill-opacity="1" /><path clip-path="url(#clip830)" d="M768.787 1514.29 L787.143 1514.29 L787.143 1518.22 L773.069 1518.22 L773.069 1526.7 Q774.088 1526.35 775.106 1526.19 Q776.125 1526 777.143 1526 Q782.93 1526 786.31 1529.17 Q789.69 1532.34 789.69 1537.76 Q789.69 1543.34 786.217 1546.44 Q782.745 1549.52 776.426 1549.52 Q774.25 1549.52 771.981 1549.15 Q769.736 1548.78 767.329 1548.04 L767.329 1543.34 Q769.412 1544.47 771.634 1545.03 Q773.856 1545.58 776.333 1545.58 Q780.338 1545.58 782.676 1543.48 Q785.014 1541.37 785.014 1537.76 Q785.014 1534.15 782.676 1532.04 Q780.338 1529.94 776.333 1529.94 Q774.458 1529.94 772.583 1530.35 Q770.731 1530.77 768.787 1531.65 L768.787 1514.29 Z" fill="#000000" fill-rule="evenodd" fill-opacity="1" /><path clip-path="url(#clip830)" d="M1232.06 1517.37 Q1228.45 1517.37 1226.62 1520.93 Q1224.82 1524.47 1224.82 1531.6 Q1224.82 1538.71 1226.62 1542.27 Q1228.45 1545.82 1232.06 1545.82 Q1235.7 1545.82 1237.5 1542.27 Q1239.33 1538.71 1239.33 1531.6 Q1239.33 1524.47 1237.5 1520.93 Q1235.7 1517.37 1232.06 1517.37 M1232.06 1513.66 Q1237.87 1513.66 1240.93 1518.27 Q1244.01 1522.85 1244.01 1531.6 Q1244.01 1540.33 1240.93 1544.94 Q1237.87 1549.52 1232.06 1549.52 Q1226.25 1549.52 1223.17 1544.94 Q1220.12 1540.33 1220.12 1531.6 Q1220.12 1522.85 1223.17 1518.27 Q1226.25 1513.66 1232.06 1513.66 Z" fill="#000000" fill-rule="evenodd" fill-opacity="1" /><path clip-path="url(#clip830)" d="M1252.22 1542.97 L1257.11 1542.97 L1257.11 1548.85 L1252.22 1548.85 L1252.22 1542.97 Z" fill="#000000" fill-rule="evenodd" fill-opacity="1" /><path clip-path="url(#clip830)" d="M1277.29 1517.37 Q1273.68 1517.37 1271.85 1520.93 Q1270.05 1524.47 1270.05 1531.6 Q1270.05 1538.71 1271.85 1542.27 Q1273.68 1545.82 1277.29 1545.82 Q1280.93 1545.82 1282.73 1542.27 Q1284.56 1538.71 1284.56 1531.6 Q1284.56 1524.47 1282.73 1520.93 Q1280.93 1517.37 1277.29 1517.37 M1277.29 1513.66 Q1283.1 1513.66 1286.16 1518.27 Q1289.24 1522.85 1289.24 1531.6 Q1289.24 1540.33 1286.16 1544.94 Q1283.1 1549.52 1277.29 1549.52 Q1271.48 1549.52 1268.4 1544.94 Q1265.35 1540.33 1265.35 1531.6 Q1265.35 1522.85 1268.4 1518.27 Q1271.48 1513.66 1277.29 1513.66 Z" fill="#000000" fill-rule="evenodd" fill-opacity="1" /><path clip-path="url(#clip830)" d="M1750.52 1517.37 Q1746.91 1517.37 1745.08 1520.93 Q1743.28 1524.47 1743.28 1531.6 Q1743.28 1538.71 1745.08 1542.27 Q1746.91 1545.82 1750.52 1545.82 Q1754.16 1545.82 1755.96 1542.27 Q1757.79 1538.71 1757.79 1531.6 Q1757.79 1524.47 1755.96 1520.93 Q1754.16 1517.37 1750.52 1517.37 M1750.52 1513.66 Q1756.33 1513.66 1759.39 1518.27 Q1762.47 1522.85 1762.47 1531.6 Q1762.47 1540.33 1759.39 1544.94 Q1756.33 1549.52 1750.52 1549.52 Q1744.71 1549.52 1741.63 1544.94 Q1738.58 1540.33 1738.58 1531.6 Q1738.58 1522.85 1741.63 1518.27 Q1744.71 1513.66 1750.52 1513.66 Z" fill="#000000" fill-rule="evenodd" fill-opacity="1" /><path clip-path="url(#clip830)" d="M1770.68 1542.97 L1775.57 1542.97 L1775.57 1548.85 L1770.68 1548.85 L1770.68 1542.97 Z" fill="#000000" fill-rule="evenodd" fill-opacity="1" /><path clip-path="url(#clip830)" d="M1785.8 1514.29 L1804.15 1514.29 L1804.15 1518.22 L1790.08 1518.22 L1790.08 1526.7 Q1791.1 1526.35 1792.12 1526.19 Q1793.14 1526 1794.15 1526 Q1799.94 1526 1803.32 1529.17 Q1806.7 1532.34 1806.7 1537.76 Q1806.7 1543.34 1803.23 1546.44 Q1799.76 1549.52 1793.44 1549.52 Q1791.26 1549.52 1788.99 1549.15 Q1786.75 1548.78 1784.34 1548.04 L1784.34 1543.34 Q1786.42 1544.47 1788.65 1545.03 Q1790.87 1545.58 1793.34 1545.58 Q1797.35 1545.58 1799.69 1543.48 Q1802.03 1541.37 1802.03 1537.76 Q1802.03 1534.15 1799.69 1532.04 Q1797.35 1529.94 1793.34 1529.94 Q1791.47 1529.94 1789.59 1530.35 Q1787.74 1530.77 1785.8 1531.65 L1785.8 1514.29 Z" fill="#000000" fill-rule="evenodd" fill-opacity="1" /><path clip-path="url(#clip830)" d="M2257.75 1544.91 L2265.39 1544.91 L2265.39 1518.55 L2257.08 1520.21 L2257.08 1515.95 L2265.35 1514.29 L2270.02 1514.29 L2270.02 1544.91 L2277.66 1544.91 L2277.66 1548.85 L2257.75 1548.85 L2257.75 1544.91 Z" fill="#000000" fill-rule="evenodd" fill-opacity="1" /><path clip-path="url(#clip830)" d="M2287.11 1542.97 L2291.99 1542.97 L2291.99 1548.85 L2287.11 1548.85 L2287.11 1542.97 Z" fill="#000000" fill-rule="evenodd" fill-opacity="1" /><path clip-path="url(#clip830)" d="M2312.17 1517.37 Q2308.56 1517.37 2306.73 1520.93 Q2304.93 1524.47 2304.93 1531.6 Q2304.93 1538.71 2306.73 1542.27 Q2308.56 1545.82 2312.17 1545.82 Q2315.81 1545.82 2317.61 1542.27 Q2319.44 1538.71 2319.44 1531.6 Q2319.44 1524.47 2317.61 1520.93 Q2315.81 1517.37 2312.17 1517.37 M2312.17 1513.66 Q2317.98 1513.66 2321.04 1518.27 Q2324.12 1522.85 2324.12 1531.6 Q2324.12 1540.33 2321.04 1544.94 Q2317.98 1549.52 2312.17 1549.52 Q2306.36 1549.52 2303.29 1544.94 Q2300.23 1540.33 2300.23 1531.6 Q2300.23 1522.85 2303.29 1518.27 Q2306.36 1513.66 2312.17 1513.66 Z" fill="#000000" fill-rule="evenodd" fill-opacity="1" /><polyline clip-path="url(#clip833)" style="stroke:#000000; stroke-linecap:butt; stroke-linejoin:round; stroke-width:2; stroke-opacity:0.1; fill:none" points="
  156.598,1234.62 2352.76,1234.62 
  "/>
<polyline clip-path="url(#clip833)" style="stroke:#000000; stroke-linecap:butt; stroke-linejoin:round; stroke-width:2; stroke-opacity:0.1; fill:none" points="
  156.598,947.948 2352.76,947.948 
  "/>
<polyline clip-path="url(#clip833)" style="stroke:#000000; stroke-linecap:butt; stroke-linejoin:round; stroke-width:2; stroke-opacity:0.1; fill:none" points="
  156.598,661.271 2352.76,661.271 
  "/>
<polyline clip-path="url(#clip833)" style="stroke:#000000; stroke-linecap:butt; stroke-linejoin:round; stroke-width:2; stroke-opacity:0.1; fill:none" points="
  156.598,374.595 2352.76,374.595 
  "/>
<polyline clip-path="url(#clip833)" style="stroke:#000000; stroke-linecap:butt; stroke-linejoin:round; stroke-width:2; stroke-opacity:0.1; fill:none" points="
  156.598,87.9187 2352.76,87.9187 
  "/>
<polyline clip-path="url(#clip830)" style="stroke:#000000; stroke-linecap:butt; stroke-linejoin:round; stroke-width:4; stroke-opacity:1; fill:none" points="
  156.598,1486.45 156.598,47.2441 
  "/>
<polyline clip-path="url(#clip830)" style="stroke:#000000; stroke-linecap:butt; stroke-linejoin:round; stroke-width:4; stroke-opacity:1; fill:none" points="
  156.598,1234.62 175.496,1234.62 
  "/>
<polyline clip-path="url(#clip830)" style="stroke:#000000; stroke-linecap:butt; stroke-linejoin:round; stroke-width:4; stroke-opacity:1; fill:none" points="
  156.598,947.948 175.496,947.948 
  "/>
<polyline clip-path="url(#clip830)" style="stroke:#000000; stroke-linecap:butt; stroke-linejoin:round; stroke-width:4; stroke-opacity:1; fill:none" points="
  156.598,661.271 175.496,661.271 
  "/>
<polyline clip-path="url(#clip830)" style="stroke:#000000; stroke-linecap:butt; stroke-linejoin:round; stroke-width:4; stroke-opacity:1; fill:none" points="
  156.598,374.595 175.496,374.595 
  "/>
<polyline clip-path="url(#clip830)" style="stroke:#000000; stroke-linecap:butt; stroke-linejoin:round; stroke-width:4; stroke-opacity:1; fill:none" points="
  156.598,87.9187 175.496,87.9187 
  "/>
<path clip-path="url(#clip830)" d="M65.0198 1220.42 Q61.4087 1220.42 59.58 1223.99 Q57.7745 1227.53 57.7745 1234.66 Q57.7745 1241.76 59.58 1245.33 Q61.4087 1248.87 65.0198 1248.87 Q68.6541 1248.87 70.4596 1245.33 Q72.2883 1241.76 72.2883 1234.66 Q72.2883 1227.53 70.4596 1223.99 Q68.6541 1220.42 65.0198 1220.42 M65.0198 1216.72 Q70.83 1216.72 73.8855 1221.33 Q76.9642 1225.91 76.9642 1234.66 Q76.9642 1243.39 73.8855 1247.99 Q70.83 1252.58 65.0198 1252.58 Q59.2097 1252.58 56.131 1247.99 Q53.0754 1243.39 53.0754 1234.66 Q53.0754 1225.91 56.131 1221.33 Q59.2097 1216.72 65.0198 1216.72 Z" fill="#000000" fill-rule="evenodd" fill-opacity="1" /><path clip-path="url(#clip830)" d="M85.1818 1246.02 L90.066 1246.02 L90.066 1251.9 L85.1818 1251.9 L85.1818 1246.02 Z" fill="#000000" fill-rule="evenodd" fill-opacity="1" /><path clip-path="url(#clip830)" d="M104.279 1247.97 L120.598 1247.97 L120.598 1251.9 L98.6539 1251.9 L98.6539 1247.97 Q101.316 1245.21 105.899 1240.58 Q110.506 1235.93 111.686 1234.59 Q113.932 1232.07 114.811 1230.33 Q115.714 1228.57 115.714 1226.88 Q115.714 1224.13 113.77 1222.39 Q111.848 1220.65 108.746 1220.65 Q106.547 1220.65 104.094 1221.42 Q101.663 1222.18 98.8854 1223.73 L98.8854 1219.01 Q101.709 1217.88 104.163 1217.3 Q106.617 1216.72 108.654 1216.72 Q114.024 1216.72 117.219 1219.4 Q120.413 1222.09 120.413 1226.58 Q120.413 1228.71 119.603 1230.63 Q118.816 1232.53 116.709 1235.12 Q116.131 1235.79 113.029 1239.01 Q109.927 1242.2 104.279 1247.97 Z" fill="#000000" fill-rule="evenodd" fill-opacity="1" /><path clip-path="url(#clip830)" d="M62.9365 933.746 Q59.3254 933.746 57.4967 937.311 Q55.6912 940.853 55.6912 947.982 Q55.6912 955.089 57.4967 958.654 Q59.3254 962.195 62.9365 962.195 Q66.5707 962.195 68.3763 958.654 Q70.205 955.089 70.205 947.982 Q70.205 940.853 68.3763 937.311 Q66.5707 933.746 62.9365 933.746 M62.9365 930.043 Q68.7467 930.043 71.8022 934.649 Q74.8809 939.232 74.8809 947.982 Q74.8809 956.709 71.8022 961.316 Q68.7467 965.899 62.9365 965.899 Q57.1264 965.899 54.0477 961.316 Q50.9921 956.709 50.9921 947.982 Q50.9921 939.232 54.0477 934.649 Q57.1264 930.043 62.9365 930.043 Z" fill="#000000" fill-rule="evenodd" fill-opacity="1" /><path clip-path="url(#clip830)" d="M83.0984 959.348 L87.9827 959.348 L87.9827 965.228 L83.0984 965.228 L83.0984 959.348 Z" fill="#000000" fill-rule="evenodd" fill-opacity="1" /><path clip-path="url(#clip830)" d="M111.015 934.742 L99.2095 953.191 L111.015 953.191 L111.015 934.742 M109.788 930.668 L115.668 930.668 L115.668 953.191 L120.598 953.191 L120.598 957.079 L115.668 957.079 L115.668 965.228 L111.015 965.228 L111.015 957.079 L95.4132 957.079 L95.4132 952.566 L109.788 930.668 Z" fill="#000000" fill-rule="evenodd" fill-opacity="1" /><path clip-path="url(#clip830)" d="M63.2606 647.07 Q59.6495 647.07 57.8208 650.635 Q56.0152 654.176 56.0152 661.306 Q56.0152 668.412 57.8208 671.977 Q59.6495 675.519 63.2606 675.519 Q66.8948 675.519 68.7004 671.977 Q70.5291 668.412 70.5291 661.306 Q70.5291 654.176 68.7004 650.635 Q66.8948 647.07 63.2606 647.07 M63.2606 643.366 Q69.0707 643.366 72.1263 647.973 Q75.205 652.556 75.205 661.306 Q75.205 670.033 72.1263 674.639 Q69.0707 679.223 63.2606 679.223 Q57.4504 679.223 54.3717 674.639 Q51.3162 670.033 51.3162 661.306 Q51.3162 652.556 54.3717 647.973 Q57.4504 643.366 63.2606 643.366 Z" fill="#000000" fill-rule="evenodd" fill-opacity="1" /><path clip-path="url(#clip830)" d="M83.4225 672.672 L88.3067 672.672 L88.3067 678.551 L83.4225 678.551 L83.4225 672.672 Z" fill="#000000" fill-rule="evenodd" fill-opacity="1" /><path clip-path="url(#clip830)" d="M109.071 659.408 Q105.922 659.408 104.071 661.561 Q102.242 663.713 102.242 667.463 Q102.242 671.19 104.071 673.366 Q105.922 675.519 109.071 675.519 Q112.219 675.519 114.047 673.366 Q115.899 671.19 115.899 667.463 Q115.899 663.713 114.047 661.561 Q112.219 659.408 109.071 659.408 M118.353 644.755 L118.353 649.014 Q116.594 648.181 114.788 647.741 Q113.006 647.301 111.246 647.301 Q106.617 647.301 104.163 650.426 Q101.733 653.551 101.385 659.871 Q102.751 657.857 104.811 656.792 Q106.871 655.704 109.348 655.704 Q114.557 655.704 117.566 658.875 Q120.598 662.024 120.598 667.463 Q120.598 672.787 117.45 676.005 Q114.302 679.223 109.071 679.223 Q103.075 679.223 99.9039 674.639 Q96.7326 670.033 96.7326 661.306 Q96.7326 653.112 100.621 648.251 Q104.51 643.366 111.061 643.366 Q112.82 643.366 114.603 643.713 Q116.408 644.061 118.353 644.755 Z" fill="#000000" fill-rule="evenodd" fill-opacity="1" /><path clip-path="url(#clip830)" d="M63.5152 360.394 Q59.9041 360.394 58.0754 363.958 Q56.2699 367.5 56.2699 374.63 Q56.2699 381.736 58.0754 385.301 Q59.9041 388.843 63.5152 388.843 Q67.1494 388.843 68.955 385.301 Q70.7837 381.736 70.7837 374.63 Q70.7837 367.5 68.955 363.958 Q67.1494 360.394 63.5152 360.394 M63.5152 356.69 Q69.3254 356.69 72.3809 361.296 Q75.4596 365.88 75.4596 374.63 Q75.4596 383.357 72.3809 387.963 Q69.3254 392.546 63.5152 392.546 Q57.7051 392.546 54.6264 387.963 Q51.5708 383.357 51.5708 374.63 Q51.5708 365.88 54.6264 361.296 Q57.7051 356.69 63.5152 356.69 Z" fill="#000000" fill-rule="evenodd" fill-opacity="1" /><path clip-path="url(#clip830)" d="M83.6771 385.995 L88.5614 385.995 L88.5614 391.875 L83.6771 391.875 L83.6771 385.995 Z" fill="#000000" fill-rule="evenodd" fill-opacity="1" /><path clip-path="url(#clip830)" d="M108.746 375.463 Q105.413 375.463 103.492 377.245 Q101.594 379.028 101.594 382.153 Q101.594 385.278 103.492 387.06 Q105.413 388.843 108.746 388.843 Q112.08 388.843 114.001 387.06 Q115.922 385.255 115.922 382.153 Q115.922 379.028 114.001 377.245 Q112.103 375.463 108.746 375.463 M104.071 373.472 Q101.061 372.732 99.3715 370.671 Q97.7048 368.611 97.7048 365.648 Q97.7048 361.505 100.645 359.097 Q103.608 356.69 108.746 356.69 Q113.908 356.69 116.848 359.097 Q119.788 361.505 119.788 365.648 Q119.788 368.611 118.098 370.671 Q116.432 372.732 113.445 373.472 Q116.825 374.259 118.7 376.551 Q120.598 378.843 120.598 382.153 Q120.598 387.176 117.52 389.861 Q114.464 392.546 108.746 392.546 Q103.029 392.546 99.9502 389.861 Q96.8947 387.176 96.8947 382.153 Q96.8947 378.843 98.7928 376.551 Q100.691 374.259 104.071 373.472 M102.358 366.088 Q102.358 368.773 104.024 370.278 Q105.714 371.783 108.746 371.783 Q111.756 371.783 113.445 370.278 Q115.158 368.773 115.158 366.088 Q115.158 363.403 113.445 361.898 Q111.756 360.394 108.746 360.394 Q105.714 360.394 104.024 361.898 Q102.358 363.403 102.358 366.088 Z" fill="#000000" fill-rule="evenodd" fill-opacity="1" /><path clip-path="url(#clip830)" d="M54.2328 101.264 L61.8717 101.264 L61.8717 74.898 L53.5616 76.5646 L53.5616 72.3054 L61.8254 70.6387 L66.5013 70.6387 L66.5013 101.264 L74.1402 101.264 L74.1402 105.199 L54.2328 105.199 L54.2328 101.264 Z" fill="#000000" fill-rule="evenodd" fill-opacity="1" /><path clip-path="url(#clip830)" d="M83.5845 99.3191 L88.4688 99.3191 L88.4688 105.199 L83.5845 105.199 L83.5845 99.3191 Z" fill="#000000" fill-rule="evenodd" fill-opacity="1" /><path clip-path="url(#clip830)" d="M108.654 73.7174 Q105.043 73.7174 103.214 77.2822 Q101.409 80.8238 101.409 87.9534 Q101.409 95.0599 103.214 98.6247 Q105.043 102.166 108.654 102.166 Q112.288 102.166 114.094 98.6247 Q115.922 95.0599 115.922 87.9534 Q115.922 80.8238 114.094 77.2822 Q112.288 73.7174 108.654 73.7174 M108.654 70.0137 Q114.464 70.0137 117.52 74.6202 Q120.598 79.2035 120.598 87.9534 Q120.598 96.6802 117.52 101.287 Q114.464 105.87 108.654 105.87 Q102.844 105.87 99.765 101.287 Q96.7095 96.6802 96.7095 87.9534 Q96.7095 79.2035 99.765 74.6202 Q102.844 70.0137 108.654 70.0137 Z" fill="#000000" fill-rule="evenodd" fill-opacity="1" /><polyline clip-path="url(#clip833)" style="stroke:#009af9; stroke-linecap:butt; stroke-linejoin:round; stroke-width:16; stroke-opacity:1; fill:none" points="
  218.754,1165.53 222.906,1178.75 227.058,1191.6 231.21,1204.09 235.362,1216.21 239.514,1227.98 243.666,1239.38 247.818,1250.44 251.97,1261.15 256.122,1271.51 
  260.274,1281.53 264.426,1291.22 268.578,1300.57 272.73,1309.59 276.882,1318.29 281.034,1326.67 285.186,1334.72 289.338,1342.47 293.49,1349.9 297.642,1357.02 
  301.794,1363.84 305.946,1370.36 310.098,1376.58 314.25,1382.51 318.402,1388.15 322.554,1393.5 326.706,1398.57 330.858,1403.35 335.01,1407.87 339.162,1412.11 
  343.314,1416.08 347.466,1419.78 351.618,1423.22 355.77,1426.41 359.922,1429.34 364.074,1432.01 368.226,1434.44 372.378,1436.62 376.53,1438.55 380.682,1440.25 
  384.834,1441.72 388.986,1442.94 393.138,1443.95 397.29,1444.72 401.442,1445.27 405.594,1445.6 409.746,1445.72 413.898,1445.62 418.05,1445.31 422.202,1444.79 
  426.354,1444.07 430.506,1443.15 434.658,1442.03 438.81,1440.71 442.962,1439.2 447.114,1437.51 451.266,1435.63 455.418,1433.56 459.57,1431.32 463.722,1428.9 
  467.874,1426.3 472.026,1423.53 476.177,1420.6 480.329,1417.5 484.481,1414.24 488.633,1410.81 492.785,1407.24 496.937,1403.5 501.089,1399.62 505.241,1395.59 
  509.393,1391.41 513.545,1387.1 517.697,1382.64 521.849,1378.04 526.001,1373.31 530.153,1368.45 534.305,1363.46 538.457,1358.34 542.609,1353.1 546.761,1347.74 
  550.913,1342.27 555.065,1336.67 559.217,1330.96 563.369,1325.15 567.521,1319.22 571.673,1313.19 575.825,1307.06 579.977,1300.83 584.129,1294.49 588.281,1288.07 
  592.433,1281.55 596.585,1274.94 600.737,1268.25 604.889,1261.46 609.041,1254.6 613.193,1247.66 617.345,1240.63 621.497,1233.54 625.649,1226.37 629.801,1219.12 
  633.953,1211.81 638.105,1204.44 642.257,1197 646.409,1189.49 650.561,1181.93 654.713,1174.31 658.865,1166.64 663.017,1158.91 667.169,1151.14 671.321,1143.31 
  675.473,1135.44 679.625,1127.53 683.777,1119.57 687.929,1111.57 692.081,1103.54 696.233,1095.47 700.385,1087.37 704.537,1079.24 708.689,1071.07 712.841,1062.88 
  716.993,1054.67 721.145,1046.43 725.297,1038.17 729.449,1029.89 733.601,1021.6 737.753,1013.29 741.905,1004.97 746.057,996.631 750.209,988.287 754.361,979.935 
  758.513,971.578 762.665,963.216 766.817,954.853 770.969,946.49 775.121,938.128 779.273,929.769 783.425,921.416 787.577,913.07 791.729,904.733 795.881,896.406 
  800.033,888.091 804.185,879.79 808.337,871.505 812.489,863.237 816.641,854.988 820.793,846.76 824.945,838.553 829.097,830.37 833.249,822.213 837.401,814.083 
  841.553,805.981 845.705,797.909 849.857,789.869 854.009,781.862 858.161,773.89 862.313,765.953 866.465,758.054 870.617,750.194 874.769,742.375 878.921,734.598 
  883.073,726.863 887.225,719.174 891.377,711.53 895.529,703.934 899.681,696.387 903.833,688.889 907.985,681.443 912.137,674.05 916.289,666.711 920.441,659.427 
  924.593,652.2 928.745,645.03 932.897,637.919 937.049,630.869 941.201,623.879 945.353,616.953 949.505,610.09 953.657,603.292 957.809,596.559 961.961,589.894 
  966.113,583.297 970.265,576.77 974.417,570.313 978.569,563.927 982.721,557.613 986.873,551.373 991.025,545.208 995.177,539.117 999.329,533.104 1003.48,527.167 
  1007.63,521.309 1011.79,515.531 1015.94,509.832 1020.09,504.215 1024.24,498.679 1028.39,493.226 1032.55,487.857 1036.7,482.573 1040.85,477.373 1045,472.26 
  1049.15,467.234 1053.31,462.296 1057.46,457.445 1061.61,452.685 1065.76,448.014 1069.91,443.433 1074.07,438.944 1078.22,434.547 1082.37,430.243 1086.52,426.032 
  1090.67,421.915 1094.83,417.893 1098.98,413.965 1103.13,410.134 1107.28,406.399 1111.43,402.76 1115.59,399.22 1119.74,395.777 1123.89,392.433 1128.04,389.187 
  1132.19,386.041 1136.35,382.996 1140.5,380.05 1144.65,377.205 1148.8,374.462 1152.95,371.82 1157.11,369.28 1161.26,366.843 1165.41,364.508 1169.56,362.277 
  1173.71,360.148 1177.87,358.124 1182.02,356.204 1186.17,354.388 1190.32,352.676 1194.47,351.069 1198.63,349.568 1202.78,348.172 1206.93,346.881 1211.08,345.695 
  1215.23,344.616 1219.39,343.643 1223.54,342.776 1227.69,342.015 1231.84,341.36 1235.99,340.812 1240.15,340.37 1244.3,340.035 1248.45,339.807 1252.6,339.685 
  1256.75,339.67 1260.91,339.762 1265.06,339.961 1269.21,340.266 1273.36,340.677 1277.51,341.196 1281.67,341.821 1285.82,342.552 1289.97,343.389 1294.12,344.333 
  1298.27,345.382 1302.43,346.538 1306.58,347.799 1310.73,349.166 1314.88,350.638 1319.03,352.215 1323.19,353.897 1327.34,355.684 1331.49,357.575 1335.64,359.57 
  1339.79,361.669 1343.95,363.872 1348.1,366.177 1352.25,368.586 1356.4,371.097 1360.55,373.71 1364.71,376.425 1368.86,379.241 1373.01,382.158 1377.16,385.175 
  1381.31,388.293 1385.46,391.51 1389.62,394.826 1393.77,398.241 1397.92,401.754 1402.07,405.365 1406.22,409.072 1410.38,412.876 1414.53,416.776 1418.68,420.772 
  1422.83,424.862 1426.98,429.046 1431.14,433.323 1435.29,437.694 1439.44,442.156 1443.59,446.71 1447.74,451.355 1451.9,456.09 1456.05,460.915 1460.2,465.827 
  1464.35,470.828 1468.5,475.916 1472.66,481.09 1476.81,486.35 1480.96,491.695 1485.11,497.123 1489.26,502.634 1493.42,508.228 1497.57,513.902 1501.72,519.657 
  1505.87,525.492 1510.02,531.405 1514.18,537.396 1518.33,543.463 1522.48,549.606 1526.63,555.824 1530.78,562.115 1534.94,568.479 1539.09,574.915 1543.24,581.421 
  1547.39,587.997 1551.54,594.641 1555.7,601.353 1559.85,608.13 1564,614.973 1568.15,621.88 1572.3,628.85 1576.46,635.881 1580.61,642.973 1584.76,650.124 
  1588.91,657.333 1593.06,664.599 1597.22,671.92 1601.37,679.296 1605.52,686.724 1609.67,694.205 1613.82,701.736 1617.98,709.315 1622.13,716.943 1626.28,724.617 
  1630.43,732.336 1634.58,740.098 1638.74,747.903 1642.89,755.748 1647.04,763.633 1651.19,771.556 1655.34,779.515 1659.5,787.509 1663.65,795.536 1667.8,803.596 
  1671.95,811.685 1676.1,819.804 1680.26,827.95 1684.41,836.122 1688.56,844.318 1692.71,852.536 1696.86,860.775 1701.02,869.034 1705.17,877.31 1709.32,885.602 
  1713.47,893.909 1717.62,902.228 1721.78,910.558 1725.93,918.897 1730.08,927.243 1734.23,935.595 1738.38,943.951 1742.54,952.309 1746.69,960.668 1750.84,969.025 
  1754.99,977.378 1759.14,985.726 1763.3,994.067 1767.45,1002.4 1771.6,1010.72 1775.75,1019.03 1779.9,1027.32 1784.06,1035.6 1788.21,1043.86 1792.36,1052.09 
  1796.51,1060.31 1800.66,1068.5 1804.82,1076.66 1808.97,1084.8 1813.12,1092.9 1817.27,1100.97 1821.42,1109.01 1825.58,1117.01 1829.73,1124.97 1833.88,1132.89 
  1838.03,1140.77 1842.18,1148.6 1846.34,1156.38 1850.49,1164.11 1854.64,1171.79 1858.79,1179.42 1862.94,1186.99 1867.1,1194.5 1871.25,1201.95 1875.4,1209.34 
  1879.55,1216.66 1883.7,1223.91 1887.86,1231.09 1892.01,1238.2 1896.16,1245.24 1900.31,1252.2 1904.46,1259.07 1908.62,1265.87 1912.77,1272.58 1916.92,1279.2 
  1921.07,1285.74 1925.22,1292.18 1929.38,1298.53 1933.53,1304.78 1937.68,1310.93 1941.83,1316.98 1945.98,1322.92 1950.14,1328.76 1954.29,1334.49 1958.44,1340.1 
  1962.59,1345.6 1966.74,1350.99 1970.9,1356.25 1975.05,1361.39 1979.2,1366.4 1983.35,1371.29 1987.5,1376.05 1991.66,1380.67 1995.81,1385.15 1999.96,1389.5 
  2004.11,1393.7 2008.26,1397.76 2012.42,1401.68 2016.57,1405.44 2020.72,1409.05 2024.87,1412.5 2029.02,1415.79 2033.18,1418.93 2037.33,1421.89 2041.48,1424.69 
  2045.63,1427.32 2049.78,1429.78 2053.94,1432.06 2058.09,1434.16 2062.24,1436.08 2066.39,1437.82 2070.54,1439.36 2074.7,1440.72 2078.85,1441.88 2083,1442.84 
  2087.15,1443.6 2091.3,1444.16 2095.46,1444.52 2099.61,1444.66 2103.76,1444.59 2107.91,1444.3 2112.06,1443.8 2116.22,1443.07 2120.37,1442.12 2124.52,1440.94 
  2128.67,1439.52 2132.82,1437.88 2136.98,1435.99 2141.13,1433.86 2145.28,1431.49 2149.43,1428.86 2153.58,1425.99 2157.74,1422.86 2161.89,1419.47 2166.04,1415.82 
  2170.19,1411.91 2174.34,1407.73 2178.5,1403.27 2182.65,1398.54 2186.8,1393.53 2190.95,1388.24 2195.1,1382.67 2199.26,1376.8 2203.41,1370.64 2207.56,1364.19 
  2211.71,1357.43 2215.86,1350.38 2220.02,1343.01 2224.17,1335.34 2228.32,1327.35 2232.47,1319.04 2236.62,1310.41 2240.78,1301.46 2244.93,1292.18 2249.08,1282.57 
  2253.23,1272.62 2257.38,1262.33 2261.54,1251.69 2265.69,1240.71 2269.84,1229.38 2273.99,1217.7 2278.14,1205.65 2282.3,1193.25 2286.45,1180.48 2290.6,1167.33 
  
  "/>
<polyline clip-path="url(#clip833)" style="stroke:#e26f46; stroke-linecap:butt; stroke-linejoin:round; stroke-width:16; stroke-opacity:1; fill:none" points="
  218.754,1390.99 222.906,1390.04 227.058,1389.07 231.21,1388.1 235.362,1387.11 239.514,1386.12 243.666,1385.11 247.818,1384.09 251.97,1383.06 256.122,1382.02 
  260.274,1380.97 264.426,1379.91 268.578,1378.83 272.73,1377.75 276.882,1376.65 281.034,1375.54 285.186,1374.42 289.338,1373.28 293.49,1372.13 297.642,1370.97 
  301.794,1369.8 305.946,1368.61 310.098,1367.41 314.25,1366.19 318.402,1364.97 322.554,1363.72 326.706,1362.47 330.858,1361.2 335.01,1359.91 339.162,1358.61 
  343.314,1357.29 347.466,1355.96 351.618,1354.62 355.77,1353.25 359.922,1351.87 364.074,1350.48 368.226,1349.07 372.378,1347.64 376.53,1346.2 380.682,1344.73 
  384.834,1343.25 388.986,1341.76 393.138,1340.24 397.29,1338.71 401.442,1337.15 405.594,1335.58 409.746,1333.99 413.898,1332.38 418.05,1330.75 422.202,1329.1 
  426.354,1327.43 430.506,1325.74 434.658,1324.03 438.81,1322.3 442.962,1320.54 447.114,1318.76 451.266,1316.96 455.418,1315.14 459.57,1313.3 463.722,1311.43 
  467.874,1309.53 472.026,1307.62 476.177,1305.68 480.329,1303.71 484.481,1301.72 488.633,1299.7 492.785,1297.65 496.937,1295.58 501.089,1293.49 505.241,1291.36 
  509.393,1289.21 513.545,1287.03 517.697,1284.82 521.849,1282.58 526.001,1280.31 530.153,1278.01 534.305,1275.68 538.457,1273.31 542.609,1270.92 546.761,1268.49 
  550.913,1266.04 555.065,1263.54 559.217,1261.02 563.369,1258.46 567.521,1255.86 571.673,1253.23 575.825,1250.56 579.977,1247.86 584.129,1245.11 588.281,1242.33 
  592.433,1239.51 596.585,1236.66 600.737,1233.76 604.889,1230.82 609.041,1227.84 613.193,1224.81 617.345,1221.75 621.497,1218.64 625.649,1215.49 629.801,1212.29 
  633.953,1209.04 638.105,1205.75 642.257,1202.41 646.409,1199.03 650.561,1195.59 654.713,1192.11 658.865,1188.57 663.017,1184.99 667.169,1181.35 671.321,1177.66 
  675.473,1173.91 679.625,1170.11 683.777,1166.25 687.929,1162.34 692.081,1158.37 696.233,1154.34 700.385,1150.25 704.537,1146.1 708.689,1141.88 712.841,1137.61 
  716.993,1133.27 721.145,1128.87 725.297,1124.4 729.449,1119.86 733.601,1115.26 737.753,1110.59 741.905,1105.85 746.057,1101.03 750.209,1096.15 754.361,1091.19 
  758.513,1086.15 762.665,1081.04 766.817,1075.85 770.969,1070.59 775.121,1065.25 779.273,1059.82 783.425,1054.31 787.577,1048.72 791.729,1043.05 795.881,1037.29 
  800.033,1031.45 804.185,1025.51 808.337,1019.49 812.489,1013.38 816.641,1007.17 820.793,1000.87 824.945,994.484 829.097,987.997 833.249,981.415 837.401,974.734 
  841.553,967.955 845.705,961.077 849.857,954.097 854.009,947.014 858.161,939.829 862.313,932.539 866.465,925.144 870.617,917.642 874.769,910.033 878.921,902.315 
  883.073,894.489 887.225,886.552 891.377,878.504 895.529,870.344 899.681,862.072 903.833,853.687 907.985,845.188 912.137,836.575 916.289,827.848 920.441,819.006 
  924.593,810.049 928.745,800.977 932.897,791.79 937.049,782.488 941.201,773.071 945.353,763.54 949.505,753.895 953.657,744.136 957.809,734.265 961.961,724.282 
  966.113,714.189 970.265,703.987 974.417,693.677 978.569,683.261 982.721,672.741 986.873,662.119 991.025,651.397 995.177,640.578 999.329,629.665 1003.48,618.661 
  1007.63,607.569 1011.79,596.393 1015.94,585.136 1020.09,573.804 1024.24,562.399 1028.39,550.928 1032.55,539.396 1036.7,527.807 1040.85,516.168 1045,504.485 
  1049.15,492.764 1053.31,481.012 1057.46,469.237 1061.61,457.446 1065.76,445.647 1069.91,433.849 1074.07,422.06 1078.22,410.289 1082.37,398.546 1086.52,386.841 
  1090.67,375.183 1094.83,363.584 1098.98,352.054 1103.13,340.605 1107.28,329.248 1111.43,317.995 1115.59,306.859 1119.74,295.851 1123.89,284.984 1128.04,274.271 
  1132.19,263.726 1136.35,253.361 1140.5,243.19 1144.65,233.227 1148.8,223.485 1152.95,213.978 1157.11,204.719 1161.26,195.721 1165.41,187 1169.56,178.566 
  1173.71,170.435 1177.87,162.619 1182.02,155.13 1186.17,147.981 1190.32,141.183 1194.47,134.749 1198.63,128.69 1202.78,123.016 1206.93,117.737 1211.08,112.863 
  1215.23,108.403 1219.39,104.364 1223.54,100.755 1227.69,97.5817 1231.84,94.8504 1235.99,92.5664 1240.15,90.7339 1244.3,89.3564 1248.45,88.4366 1252.6,87.9763 
  1256.75,87.9763 1260.91,88.4366 1265.06,89.3564 1269.21,90.7339 1273.36,92.5664 1277.51,94.8504 1281.67,97.5817 1285.82,100.755 1289.97,104.364 1294.12,108.403 
  1298.27,112.863 1302.43,117.737 1306.58,123.016 1310.73,128.69 1314.88,134.749 1319.03,141.183 1323.19,147.981 1327.34,155.13 1331.49,162.619 1335.64,170.435 
  1339.79,178.566 1343.95,187 1348.1,195.721 1352.25,204.719 1356.4,213.978 1360.55,223.485 1364.71,233.227 1368.86,243.19 1373.01,253.361 1377.16,263.726 
  1381.31,274.271 1385.46,284.984 1389.62,295.851 1393.77,306.859 1397.92,317.995 1402.07,329.248 1406.22,340.605 1410.38,352.054 1414.53,363.584 1418.68,375.183 
  1422.83,386.841 1426.98,398.546 1431.14,410.289 1435.29,422.06 1439.44,433.849 1443.59,445.647 1447.74,457.446 1451.9,469.237 1456.05,481.012 1460.2,492.764 
  1464.35,504.485 1468.5,516.168 1472.66,527.807 1476.81,539.396 1480.96,550.928 1485.11,562.399 1489.26,573.804 1493.42,585.136 1497.57,596.393 1501.72,607.569 
  1505.87,618.661 1510.02,629.665 1514.18,640.578 1518.33,651.397 1522.48,662.119 1526.63,672.741 1530.78,683.261 1534.94,693.677 1539.09,703.987 1543.24,714.189 
  1547.39,724.282 1551.54,734.265 1555.7,744.136 1559.85,753.895 1564,763.54 1568.15,773.071 1572.3,782.488 1576.46,791.79 1580.61,800.977 1584.76,810.049 
  1588.91,819.006 1593.06,827.848 1597.22,836.575 1601.37,845.188 1605.52,853.687 1609.67,862.072 1613.82,870.344 1617.98,878.504 1622.13,886.552 1626.28,894.489 
  1630.43,902.315 1634.58,910.033 1638.74,917.642 1642.89,925.144 1647.04,932.539 1651.19,939.829 1655.34,947.014 1659.5,954.097 1663.65,961.077 1667.8,967.955 
  1671.95,974.734 1676.1,981.415 1680.26,987.997 1684.41,994.484 1688.56,1000.87 1692.71,1007.17 1696.86,1013.38 1701.02,1019.49 1705.17,1025.51 1709.32,1031.45 
  1713.47,1037.29 1717.62,1043.05 1721.78,1048.72 1725.93,1054.31 1730.08,1059.82 1734.23,1065.25 1738.38,1070.59 1742.54,1075.85 1746.69,1081.04 1750.84,1086.15 
  1754.99,1091.19 1759.14,1096.15 1763.3,1101.03 1767.45,1105.85 1771.6,1110.59 1775.75,1115.26 1779.9,1119.86 1784.06,1124.4 1788.21,1128.87 1792.36,1133.27 
  1796.51,1137.61 1800.66,1141.88 1804.82,1146.1 1808.97,1150.25 1813.12,1154.34 1817.27,1158.37 1821.42,1162.34 1825.58,1166.25 1829.73,1170.11 1833.88,1173.91 
  1838.03,1177.66 1842.18,1181.35 1846.34,1184.99 1850.49,1188.57 1854.64,1192.11 1858.79,1195.59 1862.94,1199.03 1867.1,1202.41 1871.25,1205.75 1875.4,1209.04 
  1879.55,1212.29 1883.7,1215.49 1887.86,1218.64 1892.01,1221.75 1896.16,1224.81 1900.31,1227.84 1904.46,1230.82 1908.62,1233.76 1912.77,1236.66 1916.92,1239.51 
  1921.07,1242.33 1925.22,1245.11 1929.38,1247.86 1933.53,1250.56 1937.68,1253.23 1941.83,1255.86 1945.98,1258.46 1950.14,1261.02 1954.29,1263.54 1958.44,1266.04 
  1962.59,1268.49 1966.74,1270.92 1970.9,1273.31 1975.05,1275.68 1979.2,1278.01 1983.35,1280.31 1987.5,1282.58 1991.66,1284.82 1995.81,1287.03 1999.96,1289.21 
  2004.11,1291.36 2008.26,1293.49 2012.42,1295.58 2016.57,1297.65 2020.72,1299.7 2024.87,1301.72 2029.02,1303.71 2033.18,1305.68 2037.33,1307.62 2041.48,1309.53 
  2045.63,1311.43 2049.78,1313.3 2053.94,1315.14 2058.09,1316.96 2062.24,1318.76 2066.39,1320.54 2070.54,1322.3 2074.7,1324.03 2078.85,1325.74 2083,1327.43 
  2087.15,1329.1 2091.3,1330.75 2095.46,1332.38 2099.61,1333.99 2103.76,1335.58 2107.91,1337.15 2112.06,1338.71 2116.22,1340.24 2120.37,1341.76 2124.52,1343.25 
  2128.67,1344.73 2132.82,1346.2 2136.98,1347.64 2141.13,1349.07 2145.28,1350.48 2149.43,1351.87 2153.58,1353.25 2157.74,1354.62 2161.89,1355.96 2166.04,1357.29 
  2170.19,1358.61 2174.34,1359.91 2178.5,1361.2 2182.65,1362.47 2186.8,1363.72 2190.95,1364.97 2195.1,1366.19 2199.26,1367.41 2203.41,1368.61 2207.56,1369.8 
  2211.71,1370.97 2215.86,1372.13 2220.02,1373.28 2224.17,1374.42 2228.32,1375.54 2232.47,1376.65 2236.62,1377.75 2240.78,1378.83 2244.93,1379.91 2249.08,1380.97 
  2253.23,1382.02 2257.38,1383.06 2261.54,1384.09 2265.69,1385.11 2269.84,1386.12 2273.99,1387.11 2278.14,1388.1 2282.3,1389.07 2286.45,1390.04 2290.6,1390.99 
  
  "/>
<path clip-path="url(#clip830)" d="
M1807.89 344.429 L2279.55 344.429 L2279.55 95.2176 L1807.89 95.2176  Z
  " fill="#ffffff" fill-rule="evenodd" fill-opacity="1"/>
<polyline clip-path="url(#clip830)" style="stroke:#000000; stroke-linecap:butt; stroke-linejoin:round; stroke-width:4; stroke-opacity:1; fill:none" points="
  1807.89,344.429 2279.55,344.429 2279.55,95.2176 1807.89,95.2176 1807.89,344.429 
  "/>
<polyline clip-path="url(#clip830)" style="stroke:#009af9; stroke-linecap:butt; stroke-linejoin:round; stroke-width:6; stroke-opacity:1; fill:none" points="
  1832.29,178.288 1978.7,178.288 
  "/>
<path clip-path="url(#clip830)" d="M2055.27 165.405 L2053.83 177.843 Q2053.73 178.967 2053.55 179.318 Q2053.38 179.634 2052.81 179.634 Q2052.39 179.634 2052.15 179.388 Q2051.94 179.107 2051.94 178.791 Q2051.94 178.616 2051.97 178.159 Q2052.01 177.702 2052.01 177.491 Q2052.32 175.313 2052.32 173.662 Q2052.32 170.605 2051.41 168.954 Q2050.5 167.267 2048.14 166.494 Q2045.79 165.686 2041.36 165.686 L2031.24 165.686 Q2028.92 165.686 2028.36 166.108 Q2027.83 166.53 2027.34 168.497 L2023.02 185.818 L2029.8 185.818 Q2032.33 185.818 2033.84 185.502 Q2035.39 185.186 2036.41 184.307 Q2037.46 183.394 2038.02 182.164 Q2038.62 180.934 2039.22 178.721 Q2039.39 177.983 2039.57 177.702 Q2039.78 177.421 2040.24 177.421 Q2040.59 177.421 2040.83 177.667 Q2041.08 177.878 2041.08 178.194 L2036.97 195.023 Q2036.76 195.866 2036.55 196.182 Q2036.34 196.463 2035.91 196.463 Q2035.46 196.463 2035.21 196.218 Q2034.97 195.972 2034.97 195.69 Q2034.97 195.409 2035.18 194.882 Q2035.7 192.599 2035.7 191.369 Q2035.7 190.666 2035.63 190.315 Q2035.6 189.964 2035.28 189.472 Q2035 188.945 2034.37 188.699 Q2033.74 188.453 2032.54 188.277 Q2031.35 188.066 2029.56 188.066 L2022.46 188.066 L2017.54 207.706 Q2017.19 209.006 2017.19 209.357 Q2017.19 209.744 2017.36 209.885 Q2017.58 209.99 2018.14 210.06 Q2018.77 210.166 2019.72 210.166 L2030.22 210.166 Q2032.54 210.166 2034.4 209.955 Q2036.27 209.744 2037.81 209.217 Q2039.39 208.69 2040.59 208.093 Q2041.78 207.495 2042.91 206.406 Q2044.03 205.282 2044.8 204.298 Q2045.61 203.279 2046.56 201.558 Q2047.51 199.836 2048.18 198.431 Q2048.84 196.99 2049.86 194.672 Q2050.14 193.828 2050.81 193.828 Q2051.2 193.828 2051.41 194.039 Q2051.62 194.215 2051.65 194.391 L2051.65 194.601 Q2051.44 195.269 2051.3 195.62 L2044.7 211.149 Q2044.31 212.028 2044 212.203 Q2043.68 212.379 2042.45 212.379 L2005.1 212.379 Q2004.26 212.379 2003.91 212.344 Q2003.59 212.309 2003.35 212.133 Q2003.1 211.922 2003.1 211.501 Q2003.1 210.833 2003.38 210.552 Q2003.66 210.236 2003.98 210.201 Q2004.29 210.166 2005.1 210.166 Q2006.86 210.166 2007.91 210.06 Q2008.97 209.955 2009.63 209.814 Q2010.34 209.639 2010.69 209.147 Q2011.08 208.655 2011.25 208.233 Q2011.43 207.776 2011.67 206.758 L2021.16 168.708 Q2021.51 167.408 2021.51 166.986 Q2021.51 166.53 2021.19 166.248 Q2020.91 165.967 2020.14 165.862 Q2019.37 165.721 2018.73 165.721 Q2018.14 165.686 2016.84 165.686 Q2015.99 165.686 2015.64 165.651 Q2015.33 165.616 2015.08 165.44 Q2014.83 165.265 2014.83 164.878 Q2014.83 163.895 2015.26 163.684 Q2015.71 163.438 2016.98 163.438 L2053.31 163.438 Q2054.75 163.438 2055.06 163.754 Q2055.41 164.035 2055.27 165.405 Z" fill="#000000" fill-rule="evenodd" fill-opacity="1" /><path clip-path="url(#clip830)" d="M2065.18 230.367 L2065.18 158.414 L2076.04 158.414 L2076.04 160.065 L2070 160.065 L2070 228.716 L2076.04 228.716 L2076.04 230.367 L2065.18 230.367 Z" fill="#000000" fill-rule="evenodd" fill-opacity="1" /><path clip-path="url(#clip830)" d="M2117.36 153.159 L2116.75 154.167 Q2112.94 152.519 2108.19 149.888 Q2103.44 152.519 2099.63 154.167 L2099.04 153.159 Q2103.2 149.544 2108.19 146.765 Q2113.23 149.568 2117.36 153.159 Z" fill="#000000" fill-rule="evenodd" fill-opacity="1" /><path clip-path="url(#clip830)" d="M2120.85 166.6 Q2120.85 168.532 2119.62 169.727 Q2118.43 170.921 2116.92 170.921 Q2115.83 170.921 2115.02 170.254 Q2114.25 169.586 2114.25 168.427 Q2114.25 167.232 2115.16 165.967 Q2116.08 164.703 2118.15 164.527 Q2116.78 163.227 2114.6 163.227 Q2113.51 163.227 2112.6 163.93 Q2111.72 164.597 2111.23 165.686 Q2110.7 166.811 2109.51 173.17 Q2109.12 175.243 2108.77 177.245 Q2108.42 179.248 2108 181.356 L2113.97 181.356 Q2114.74 181.356 2115.06 181.391 Q2115.37 181.426 2115.62 181.602 Q2115.9 181.778 2115.9 182.164 Q2115.9 183.148 2115.44 183.394 Q2115.02 183.605 2113.76 183.605 L2107.57 183.605 L2103.25 206.406 Q2103.15 207.074 2102.69 209.182 Q2102.27 211.255 2101.25 214.663 Q2100.23 218.106 2099.21 220.144 Q2098.65 221.303 2097.91 222.392 Q2097.21 223.516 2096.19 224.641 Q2095.17 225.765 2093.84 226.432 Q2092.5 227.135 2091.1 227.135 Q2088.71 227.135 2086.85 225.8 Q2084.98 224.465 2084.98 222.181 Q2084.98 220.249 2086.18 219.054 Q2087.41 217.86 2088.92 217.86 Q2090.01 217.86 2090.78 218.527 Q2091.59 219.195 2091.59 220.354 Q2091.59 220.846 2091.41 221.408 Q2091.24 221.97 2090.85 222.603 Q2090.46 223.27 2089.62 223.727 Q2088.78 224.184 2087.62 224.254 Q2088.99 225.554 2091.1 225.554 Q2091.76 225.554 2092.36 225.273 Q2092.96 225.027 2093.45 224.395 Q2093.98 223.762 2094.36 223.13 Q2094.75 222.533 2095.14 221.373 Q2095.52 220.249 2095.77 219.406 Q2096.02 218.563 2096.33 217.052 Q2096.68 215.541 2096.86 214.628 Q2097.03 213.749 2097.35 212.028 L2102.73 183.605 L2097.98 183.605 Q2097.14 183.605 2096.79 183.569 Q2096.47 183.534 2096.23 183.359 Q2095.98 183.148 2095.98 182.726 Q2095.98 182.059 2096.26 181.778 Q2096.58 181.461 2096.93 181.426 Q2097.28 181.356 2098.12 181.356 L2103.11 181.356 Q2104.8 172.467 2105.47 170.078 Q2106.24 167.548 2107.43 165.792 Q2108.63 164 2109.96 163.157 Q2111.3 162.314 2112.39 161.997 Q2113.51 161.646 2114.6 161.646 Q2117.06 161.646 2118.96 162.981 Q2120.85 164.281 2120.85 166.6 Z" fill="#000000" fill-rule="evenodd" fill-opacity="1" /><path clip-path="url(#clip830)" d="M2121.28 194.391 Q2121.28 182.234 2125.81 172.432 Q2127.74 168.321 2130.45 164.878 Q2133.15 161.435 2134.94 159.924 Q2136.74 158.414 2137.23 158.414 Q2137.93 158.414 2137.97 159.116 Q2137.97 159.468 2137.02 160.346 Q2125.42 172.151 2125.46 194.391 Q2125.46 216.7 2136.74 228.049 Q2137.97 229.278 2137.97 229.665 Q2137.97 230.367 2137.23 230.367 Q2136.74 230.367 2135.01 228.927 Q2133.29 227.486 2130.62 224.184 Q2127.95 220.881 2126.02 216.841 Q2121.28 207.039 2121.28 194.391 Z" fill="#000000" fill-rule="evenodd" fill-opacity="1" /><path clip-path="url(#clip830)" d="M2179.27 185.326 Q2179.27 187.294 2178.04 188.418 Q2176.81 189.507 2175.41 189.507 Q2174.07 189.507 2173.37 188.734 Q2172.67 187.961 2172.67 186.977 Q2172.67 185.642 2173.65 184.483 Q2174.63 183.323 2176.11 183.078 Q2174.67 182.164 2172.52 182.164 Q2171.12 182.164 2169.89 182.902 Q2168.69 183.64 2167.96 184.588 Q2167.25 185.537 2166.62 186.907 Q2166.02 188.242 2165.78 189.05 Q2165.57 189.823 2165.39 190.666 L2162.93 200.504 Q2161.74 205.177 2161.74 206.828 Q2161.74 208.866 2162.72 210.236 Q2163.71 211.571 2165.67 211.571 Q2166.45 211.571 2167.32 211.36 Q2168.2 211.114 2169.33 210.482 Q2170.49 209.814 2171.51 208.83 Q2172.56 207.812 2173.58 206.09 Q2174.6 204.369 2175.26 202.155 Q2175.48 201.382 2176.18 201.382 Q2177.06 201.382 2177.06 202.085 Q2177.06 202.682 2176.56 203.947 Q2176.11 205.177 2175.09 206.793 Q2174.11 208.374 2172.81 209.814 Q2171.51 211.22 2169.57 212.203 Q2167.64 213.187 2165.53 213.187 Q2162.51 213.187 2160.51 211.571 Q2158.51 209.955 2157.77 207.706 Q2157.59 208.022 2157.35 208.444 Q2157.1 208.866 2156.36 209.814 Q2155.66 210.728 2154.85 211.43 Q2154.04 212.098 2152.78 212.625 Q2151.55 213.187 2150.21 213.187 Q2148.53 213.187 2147.02 212.695 Q2145.54 212.203 2144.49 211.079 Q2143.43 209.955 2143.43 208.409 Q2143.43 206.687 2144.59 205.493 Q2145.79 204.263 2147.4 204.263 Q2148.42 204.263 2149.23 204.86 Q2150.07 205.458 2150.07 206.758 Q2150.07 208.198 2149.09 209.287 Q2148.11 210.376 2146.7 210.657 Q2148.14 211.571 2150.28 211.571 Q2152.6 211.571 2154.43 209.533 Q2156.26 207.495 2157.14 204.087 Q2159.31 195.901 2160.16 192.247 Q2161 188.558 2161 186.977 Q2161 185.502 2160.61 184.483 Q2160.23 183.464 2159.56 183.007 Q2158.93 182.515 2158.33 182.34 Q2157.77 182.164 2157.14 182.164 Q2156.08 182.164 2154.89 182.586 Q2153.73 183.007 2152.32 183.991 Q2150.95 184.94 2149.65 186.907 Q2148.35 188.875 2147.47 191.58 Q2147.3 192.388 2146.53 192.388 Q2145.68 192.353 2145.68 191.65 Q2145.68 191.053 2146.14 189.823 Q2146.63 188.558 2147.61 186.977 Q2148.63 185.396 2149.93 183.991 Q2151.27 182.551 2153.2 181.567 Q2155.17 180.583 2157.28 180.583 Q2158.23 180.583 2159.14 180.794 Q2160.09 180.969 2161.21 181.496 Q2162.37 182.024 2163.39 183.183 Q2164.41 184.342 2165.04 186.029 Q2165.46 185.221 2166.02 184.448 Q2166.62 183.675 2167.54 182.726 Q2168.48 181.742 2169.78 181.18 Q2171.12 180.583 2172.59 180.583 Q2174.04 180.583 2175.44 180.969 Q2176.85 181.321 2178.04 182.48 Q2179.27 183.605 2179.27 185.326 Z" fill="#000000" fill-rule="evenodd" fill-opacity="1" /><path clip-path="url(#clip830)" d="M2186.2 229.665 Q2186.2 229.313 2187.11 228.435 Q2198.71 216.63 2198.71 194.391 Q2198.71 172.081 2187.57 160.803 Q2186.2 159.503 2186.2 159.116 Q2186.2 158.414 2186.9 158.414 Q2187.39 158.414 2189.11 159.854 Q2190.87 161.295 2193.51 164.597 Q2196.18 167.9 2198.14 171.94 Q2202.89 181.742 2202.89 194.391 Q2202.89 206.547 2198.35 216.349 Q2196.42 220.46 2193.72 223.903 Q2191.01 227.346 2189.22 228.857 Q2187.43 230.367 2186.9 230.367 Q2186.2 230.367 2186.2 229.665 Z" fill="#000000" fill-rule="evenodd" fill-opacity="1" /><path clip-path="url(#clip830)" d="M2210.95 228.716 L2216.99 228.716 L2216.99 160.065 L2210.95 160.065 L2210.95 158.414 L2221.8 158.414 L2221.8 230.367 L2210.95 230.367 L2210.95 228.716 Z" fill="#000000" fill-rule="evenodd" fill-opacity="1" /><polyline clip-path="url(#clip830)" style="stroke:#e26f46; stroke-linecap:butt; stroke-linejoin:round; stroke-width:6; stroke-opacity:1; fill:none" points="
  1832.29,261.359 1978.7,261.359 
  "/>
<path clip-path="url(#clip830)" d="M2038.97 243.768 Q2038.97 245.7 2037.74 246.895 Q2036.55 248.089 2035.04 248.089 Q2033.95 248.089 2033.14 247.422 Q2032.37 246.754 2032.37 245.595 Q2032.37 244.4 2033.28 243.136 Q2034.19 241.871 2036.27 241.695 Q2034.9 240.395 2032.72 240.395 Q2031.63 240.395 2030.72 241.098 Q2029.84 241.765 2029.34 242.854 Q2028.82 243.979 2027.62 250.338 Q2027.24 252.411 2026.89 254.413 Q2026.53 256.416 2026.11 258.524 L2032.09 258.524 Q2032.86 258.524 2033.17 258.559 Q2033.49 258.594 2033.74 258.77 Q2034.02 258.946 2034.02 259.332 Q2034.02 260.316 2033.56 260.562 Q2033.14 260.773 2031.87 260.773 L2025.69 260.773 L2021.37 283.574 Q2021.26 284.242 2020.81 286.35 Q2020.39 288.423 2019.37 291.831 Q2018.35 295.274 2017.33 297.312 Q2016.77 298.471 2016.03 299.56 Q2015.33 300.684 2014.31 301.809 Q2013.29 302.933 2011.95 303.601 Q2010.62 304.303 2009.21 304.303 Q2006.82 304.303 2004.96 302.968 Q2003.1 301.633 2003.1 299.349 Q2003.1 297.417 2004.29 296.223 Q2005.52 295.028 2007.03 295.028 Q2008.12 295.028 2008.9 295.696 Q2009.71 296.363 2009.71 297.522 Q2009.71 298.014 2009.53 298.576 Q2009.35 299.139 2008.97 299.771 Q2008.58 300.439 2007.74 300.895 Q2006.89 301.352 2005.74 301.422 Q2007.11 302.722 2009.21 302.722 Q2009.88 302.722 2010.48 302.441 Q2011.08 302.195 2011.57 301.563 Q2012.09 300.93 2012.48 300.298 Q2012.87 299.701 2013.25 298.541 Q2013.64 297.417 2013.89 296.574 Q2014.13 295.731 2014.45 294.22 Q2014.8 292.709 2014.98 291.796 Q2015.15 290.917 2015.47 289.196 L2020.84 260.773 L2016.1 260.773 Q2015.26 260.773 2014.9 260.738 Q2014.59 260.702 2014.34 260.527 Q2014.1 260.316 2014.1 259.894 Q2014.1 259.227 2014.38 258.946 Q2014.69 258.629 2015.05 258.594 Q2015.4 258.524 2016.24 258.524 L2021.23 258.524 Q2022.92 249.635 2023.58 247.246 Q2024.36 244.717 2025.55 242.96 Q2026.74 241.168 2028.08 240.325 Q2029.42 239.482 2030.5 239.165 Q2031.63 238.814 2032.72 238.814 Q2035.18 238.814 2037.07 240.149 Q2038.97 241.449 2038.97 243.768 Z" fill="#000000" fill-rule="evenodd" fill-opacity="1" /><path clip-path="url(#clip830)" d="M2048.66 271.559 Q2048.66 259.402 2053.19 249.6 Q2055.12 245.489 2057.83 242.046 Q2060.53 238.603 2062.33 237.093 Q2064.12 235.582 2064.61 235.582 Q2065.31 235.582 2065.35 236.284 Q2065.35 236.636 2064.4 237.514 Q2052.8 249.319 2052.84 271.559 Q2052.84 293.869 2064.12 305.217 Q2065.35 306.446 2065.35 306.833 Q2065.35 307.536 2064.61 307.536 Q2064.12 307.536 2062.4 306.095 Q2060.67 304.655 2058 301.352 Q2055.33 298.049 2053.4 294.009 Q2048.66 284.207 2048.66 271.559 Z" fill="#000000" fill-rule="evenodd" fill-opacity="1" /><path clip-path="url(#clip830)" d="M2106.65 262.494 Q2106.65 264.462 2105.42 265.586 Q2104.19 266.675 2102.79 266.675 Q2101.45 266.675 2100.75 265.902 Q2100.05 265.129 2100.05 264.145 Q2100.05 262.81 2101.03 261.651 Q2102.01 260.492 2103.49 260.246 Q2102.05 259.332 2099.91 259.332 Q2098.5 259.332 2097.27 260.07 Q2096.08 260.808 2095.34 261.756 Q2094.64 262.705 2094 264.075 Q2093.41 265.41 2093.16 266.218 Q2092.95 266.991 2092.77 267.835 L2090.31 277.672 Q2089.12 282.345 2089.12 283.996 Q2089.12 286.034 2090.1 287.404 Q2091.09 288.739 2093.06 288.739 Q2093.83 288.739 2094.71 288.528 Q2095.58 288.282 2096.71 287.65 Q2097.87 286.982 2098.89 285.999 Q2099.94 284.98 2100.96 283.258 Q2101.98 281.537 2102.65 279.323 Q2102.86 278.55 2103.56 278.55 Q2104.44 278.55 2104.44 279.253 Q2104.44 279.85 2103.95 281.115 Q2103.49 282.345 2102.47 283.961 Q2101.49 285.542 2100.19 286.982 Q2098.89 288.388 2096.95 289.371 Q2095.02 290.355 2092.91 290.355 Q2089.89 290.355 2087.89 288.739 Q2085.89 287.123 2085.15 284.874 Q2084.97 285.191 2084.73 285.612 Q2084.48 286.034 2083.74 286.982 Q2083.04 287.896 2082.23 288.599 Q2081.43 289.266 2080.16 289.793 Q2078.93 290.355 2077.6 290.355 Q2075.91 290.355 2074.4 289.863 Q2072.92 289.371 2071.87 288.247 Q2070.82 287.123 2070.82 285.577 Q2070.82 283.855 2071.97 282.661 Q2073.17 281.431 2074.79 281.431 Q2075.8 281.431 2076.61 282.029 Q2077.46 282.626 2077.46 283.926 Q2077.46 285.366 2076.47 286.455 Q2075.49 287.544 2074.08 287.826 Q2075.52 288.739 2077.67 288.739 Q2079.99 288.739 2081.81 286.701 Q2083.64 284.664 2084.52 281.256 Q2086.7 273.069 2087.54 269.416 Q2088.38 265.726 2088.38 264.145 Q2088.38 262.67 2088 261.651 Q2087.61 260.632 2086.94 260.175 Q2086.31 259.683 2085.71 259.508 Q2085.15 259.332 2084.52 259.332 Q2083.46 259.332 2082.27 259.754 Q2081.11 260.175 2079.7 261.159 Q2078.33 262.108 2077.03 264.075 Q2075.73 266.043 2074.86 268.748 Q2074.68 269.556 2073.91 269.556 Q2073.06 269.521 2073.06 268.818 Q2073.06 268.221 2073.52 266.991 Q2074.01 265.726 2075 264.145 Q2076.02 262.564 2077.32 261.159 Q2078.65 259.719 2080.58 258.735 Q2082.55 257.751 2084.66 257.751 Q2085.61 257.751 2086.52 257.962 Q2087.47 258.138 2088.59 258.665 Q2089.75 259.192 2090.77 260.351 Q2091.79 261.51 2092.42 263.197 Q2092.84 262.389 2093.41 261.616 Q2094 260.843 2094.92 259.894 Q2095.87 258.911 2097.17 258.348 Q2098.5 257.751 2099.98 257.751 Q2101.42 257.751 2102.82 258.138 Q2104.23 258.489 2105.42 259.648 Q2106.65 260.773 2106.65 262.494 Z" fill="#000000" fill-rule="evenodd" fill-opacity="1" /><path clip-path="url(#clip830)" d="M2113.58 306.833 Q2113.58 306.482 2114.49 305.603 Q2126.09 293.798 2126.09 271.559 Q2126.09 249.249 2114.95 237.971 Q2113.58 236.671 2113.58 236.284 Q2113.58 235.582 2114.28 235.582 Q2114.77 235.582 2116.5 237.022 Q2118.25 238.463 2120.89 241.765 Q2123.56 245.068 2125.52 249.108 Q2130.27 258.911 2130.27 271.559 Q2130.27 283.715 2125.74 293.517 Q2123.8 297.628 2121.1 301.071 Q2118.39 304.514 2116.6 306.025 Q2114.81 307.536 2114.28 307.536 Q2113.58 307.536 2113.58 306.833 Z" fill="#000000" fill-rule="evenodd" fill-opacity="1" /></svg>
