<?xml version="1.0" encoding="utf-8"?>
<svg xmlns="http://www.w3.org/2000/svg" xmlns:xlink="http://www.w3.org/1999/xlink" width="600" height="400" viewBox="0 0 2400 1600">
<defs>
  <clipPath id="clip800">
    <rect x="0" y="0" width="2400" height="1600"/>
  </clipPath>
</defs>
<path clip-path="url(#clip800)" d="
M0 1600 L2400 1600 L2400 0 L0 0  Z
  " fill="#ffffff" fill-rule="evenodd" fill-opacity="1"/>
<defs>
  <clipPath id="clip801">
    <rect x="480" y="0" width="1681" height="1600"/>
  </clipPath>
</defs>
<path clip-path="url(#clip800)" d="
M186.274 1486.45 L2352.76 1486.45 L2352.76 47.2441 L186.274 47.2441  Z
  " fill="#ffffff" fill-rule="evenodd" fill-opacity="1"/>
<defs>
  <clipPath id="clip802">
    <rect x="186" y="47" width="2167" height="1440"/>
  </clipPath>
</defs>
<polyline clip-path="url(#clip802)" style="stroke:#000000; stroke-linecap:butt; stroke-linejoin:round; stroke-width:2; stroke-opacity:0.1; fill:none" points="
  247.59,1486.45 247.59,47.2441 
  "/>
<polyline clip-path="url(#clip802)" style="stroke:#000000; stroke-linecap:butt; stroke-linejoin:round; stroke-width:2; stroke-opacity:0.1; fill:none" points="
  758.552,1486.45 758.552,47.2441 
  "/>
<polyline clip-path="url(#clip802)" style="stroke:#000000; stroke-linecap:butt; stroke-linejoin:round; stroke-width:2; stroke-opacity:0.1; fill:none" points="
  1269.51,1486.45 1269.51,47.2441 
  "/>
<polyline clip-path="url(#clip802)" style="stroke:#000000; stroke-linecap:butt; stroke-linejoin:round; stroke-width:2; stroke-opacity:0.1; fill:none" points="
  1780.48,1486.45 1780.48,47.2441 
  "/>
<polyline clip-path="url(#clip802)" style="stroke:#000000; stroke-linecap:butt; stroke-linejoin:round; stroke-width:2; stroke-opacity:0.1; fill:none" points="
  2291.44,1486.45 2291.44,47.2441 
  "/>
<polyline clip-path="url(#clip800)" style="stroke:#000000; stroke-linecap:butt; stroke-linejoin:round; stroke-width:4; stroke-opacity:1; fill:none" points="
  186.274,1486.45 2352.76,1486.45 
  "/>
<polyline clip-path="url(#clip800)" style="stroke:#000000; stroke-linecap:butt; stroke-linejoin:round; stroke-width:4; stroke-opacity:1; fill:none" points="
  247.59,1486.45 247.59,1467.55 
  "/>
<polyline clip-path="url(#clip800)" style="stroke:#000000; stroke-linecap:butt; stroke-linejoin:round; stroke-width:4; stroke-opacity:1; fill:none" points="
  758.552,1486.45 758.552,1467.55 
  "/>
<polyline clip-path="url(#clip800)" style="stroke:#000000; stroke-linecap:butt; stroke-linejoin:round; stroke-width:4; stroke-opacity:1; fill:none" points="
  1269.51,1486.45 1269.51,1467.55 
  "/>
<polyline clip-path="url(#clip800)" style="stroke:#000000; stroke-linecap:butt; stroke-linejoin:round; stroke-width:4; stroke-opacity:1; fill:none" points="
  1780.48,1486.45 1780.48,1467.55 
  "/>
<polyline clip-path="url(#clip800)" style="stroke:#000000; stroke-linecap:butt; stroke-linejoin:round; stroke-width:4; stroke-opacity:1; fill:none" points="
  2291.44,1486.45 2291.44,1467.55 
  "/>
<path clip-path="url(#clip800)" d="M194.118 1532.02 L223.793 1532.02 L223.793 1535.95 L194.118 1535.95 L194.118 1532.02 Z" fill="#000000" fill-rule="evenodd" fill-opacity="1" /><path clip-path="url(#clip800)" d="M234.696 1544.91 L242.335 1544.91 L242.335 1518.55 L234.025 1520.21 L234.025 1515.95 L242.289 1514.29 L246.965 1514.29 L246.965 1544.91 L254.603 1544.91 L254.603 1548.85 L234.696 1548.85 L234.696 1544.91 Z" fill="#000000" fill-rule="evenodd" fill-opacity="1" /><path clip-path="url(#clip800)" d="M264.048 1542.97 L268.932 1542.97 L268.932 1548.85 L264.048 1548.85 L264.048 1542.97 Z" fill="#000000" fill-rule="evenodd" fill-opacity="1" /><path clip-path="url(#clip800)" d="M289.117 1517.37 Q285.506 1517.37 283.677 1520.93 Q281.872 1524.47 281.872 1531.6 Q281.872 1538.71 283.677 1542.27 Q285.506 1545.82 289.117 1545.82 Q292.751 1545.82 294.557 1542.27 Q296.386 1538.71 296.386 1531.6 Q296.386 1524.47 294.557 1520.93 Q292.751 1517.37 289.117 1517.37 M289.117 1513.66 Q294.927 1513.66 297.983 1518.27 Q301.061 1522.85 301.061 1531.6 Q301.061 1540.33 297.983 1544.94 Q294.927 1549.52 289.117 1549.52 Q283.307 1549.52 280.228 1544.94 Q277.173 1540.33 277.173 1531.6 Q277.173 1522.85 280.228 1518.27 Q283.307 1513.66 289.117 1513.66 Z" fill="#000000" fill-rule="evenodd" fill-opacity="1" /><path clip-path="url(#clip800)" d="M705.578 1532.02 L735.254 1532.02 L735.254 1535.95 L705.578 1535.95 L705.578 1532.02 Z" fill="#000000" fill-rule="evenodd" fill-opacity="1" /><path clip-path="url(#clip800)" d="M755.346 1517.37 Q751.735 1517.37 749.906 1520.93 Q748.101 1524.47 748.101 1531.6 Q748.101 1538.71 749.906 1542.27 Q751.735 1545.82 755.346 1545.82 Q758.98 1545.82 760.786 1542.27 Q762.615 1538.71 762.615 1531.6 Q762.615 1524.47 760.786 1520.93 Q758.98 1517.37 755.346 1517.37 M755.346 1513.66 Q761.156 1513.66 764.212 1518.27 Q767.291 1522.85 767.291 1531.6 Q767.291 1540.33 764.212 1544.94 Q761.156 1549.52 755.346 1549.52 Q749.536 1549.52 746.457 1544.94 Q743.402 1540.33 743.402 1531.6 Q743.402 1522.85 746.457 1518.27 Q749.536 1513.66 755.346 1513.66 Z" fill="#000000" fill-rule="evenodd" fill-opacity="1" /><path clip-path="url(#clip800)" d="M775.508 1542.97 L780.392 1542.97 L780.392 1548.85 L775.508 1548.85 L775.508 1542.97 Z" fill="#000000" fill-rule="evenodd" fill-opacity="1" /><path clip-path="url(#clip800)" d="M790.624 1514.29 L808.98 1514.29 L808.98 1518.22 L794.906 1518.22 L794.906 1526.7 Q795.925 1526.35 796.943 1526.19 Q797.962 1526 798.98 1526 Q804.767 1526 808.147 1529.17 Q811.526 1532.34 811.526 1537.76 Q811.526 1543.34 808.054 1546.44 Q804.582 1549.52 798.263 1549.52 Q796.087 1549.52 793.818 1549.15 Q791.573 1548.78 789.166 1548.04 L789.166 1543.34 Q791.249 1544.47 793.471 1545.03 Q795.693 1545.58 798.17 1545.58 Q802.175 1545.58 804.513 1543.48 Q806.851 1541.37 806.851 1537.76 Q806.851 1534.15 804.513 1532.04 Q802.175 1529.94 798.17 1529.94 Q796.295 1529.94 794.42 1530.35 Q792.568 1530.77 790.624 1531.65 L790.624 1514.29 Z" fill="#000000" fill-rule="evenodd" fill-opacity="1" /><path clip-path="url(#clip800)" d="M1246.9 1517.37 Q1243.29 1517.37 1241.46 1520.93 Q1239.65 1524.47 1239.65 1531.6 Q1239.65 1538.71 1241.46 1542.27 Q1243.29 1545.82 1246.9 1545.82 Q1250.53 1545.82 1252.34 1542.27 Q1254.17 1538.71 1254.17 1531.6 Q1254.17 1524.47 1252.34 1520.93 Q1250.53 1517.37 1246.9 1517.37 M1246.9 1513.66 Q1252.71 1513.66 1255.77 1518.27 Q1258.84 1522.85 1258.84 1531.6 Q1258.84 1540.33 1255.77 1544.94 Q1252.71 1549.52 1246.9 1549.52 Q1241.09 1549.52 1238.01 1544.94 Q1234.95 1540.33 1234.95 1531.6 Q1234.95 1522.85 1238.01 1518.27 Q1241.09 1513.66 1246.9 1513.66 Z" fill="#000000" fill-rule="evenodd" fill-opacity="1" /><path clip-path="url(#clip800)" d="M1267.06 1542.97 L1271.95 1542.97 L1271.95 1548.85 L1267.06 1548.85 L1267.06 1542.97 Z" fill="#000000" fill-rule="evenodd" fill-opacity="1" /><path clip-path="url(#clip800)" d="M1292.13 1517.37 Q1288.52 1517.37 1286.69 1520.93 Q1284.89 1524.47 1284.89 1531.6 Q1284.89 1538.71 1286.69 1542.27 Q1288.52 1545.82 1292.13 1545.82 Q1295.76 1545.82 1297.57 1542.27 Q1299.4 1538.71 1299.4 1531.6 Q1299.4 1524.47 1297.57 1520.93 Q1295.76 1517.37 1292.13 1517.37 M1292.13 1513.66 Q1297.94 1513.66 1301 1518.27 Q1304.07 1522.85 1304.07 1531.6 Q1304.07 1540.33 1301 1544.94 Q1297.94 1549.52 1292.13 1549.52 Q1286.32 1549.52 1283.24 1544.94 Q1280.19 1540.33 1280.19 1531.6 Q1280.19 1522.85 1283.24 1518.27 Q1286.32 1513.66 1292.13 1513.66 Z" fill="#000000" fill-rule="evenodd" fill-opacity="1" /><path clip-path="url(#clip800)" d="M1758.36 1517.37 Q1754.75 1517.37 1752.92 1520.93 Q1751.11 1524.47 1751.11 1531.6 Q1751.11 1538.71 1752.92 1542.27 Q1754.75 1545.82 1758.36 1545.82 Q1761.99 1545.82 1763.8 1542.27 Q1765.63 1538.71 1765.63 1531.6 Q1765.63 1524.47 1763.8 1520.93 Q1761.99 1517.37 1758.36 1517.37 M1758.36 1513.66 Q1764.17 1513.66 1767.23 1518.27 Q1770.3 1522.85 1770.3 1531.6 Q1770.3 1540.33 1767.23 1544.94 Q1764.17 1549.52 1758.36 1549.52 Q1752.55 1549.52 1749.47 1544.94 Q1746.42 1540.33 1746.42 1531.6 Q1746.42 1522.85 1749.47 1518.27 Q1752.55 1513.66 1758.36 1513.66 Z" fill="#000000" fill-rule="evenodd" fill-opacity="1" /><path clip-path="url(#clip800)" d="M1778.52 1542.97 L1783.41 1542.97 L1783.41 1548.85 L1778.52 1548.85 L1778.52 1542.97 Z" fill="#000000" fill-rule="evenodd" fill-opacity="1" /><path clip-path="url(#clip800)" d="M1793.64 1514.29 L1811.99 1514.29 L1811.99 1518.22 L1797.92 1518.22 L1797.92 1526.7 Q1798.94 1526.35 1799.96 1526.19 Q1800.98 1526 1801.99 1526 Q1807.78 1526 1811.16 1529.17 Q1814.54 1532.34 1814.54 1537.76 Q1814.54 1543.34 1811.07 1546.44 Q1807.6 1549.52 1801.28 1549.52 Q1799.1 1549.52 1796.83 1549.15 Q1794.59 1548.78 1792.18 1548.04 L1792.18 1543.34 Q1794.26 1544.47 1796.48 1545.03 Q1798.71 1545.58 1801.18 1545.58 Q1805.19 1545.58 1807.53 1543.48 Q1809.86 1541.37 1809.86 1537.76 Q1809.86 1534.15 1807.53 1532.04 Q1805.19 1529.94 1801.18 1529.94 Q1799.31 1529.94 1797.43 1530.35 Q1795.58 1530.77 1793.64 1531.65 L1793.64 1514.29 Z" fill="#000000" fill-rule="evenodd" fill-opacity="1" /><path clip-path="url(#clip800)" d="M2258.59 1544.91 L2266.23 1544.91 L2266.23 1518.55 L2257.92 1520.21 L2257.92 1515.95 L2266.19 1514.29 L2270.86 1514.29 L2270.86 1544.91 L2278.5 1544.91 L2278.5 1548.85 L2258.59 1548.85 L2258.59 1544.91 Z" fill="#000000" fill-rule="evenodd" fill-opacity="1" /><path clip-path="url(#clip800)" d="M2287.95 1542.97 L2292.83 1542.97 L2292.83 1548.85 L2287.95 1548.85 L2287.95 1542.97 Z" fill="#000000" fill-rule="evenodd" fill-opacity="1" /><path clip-path="url(#clip800)" d="M2313.01 1517.37 Q2309.4 1517.37 2307.57 1520.93 Q2305.77 1524.47 2305.77 1531.6 Q2305.77 1538.71 2307.57 1542.27 Q2309.4 1545.82 2313.01 1545.82 Q2316.65 1545.82 2318.45 1542.27 Q2320.28 1538.71 2320.28 1531.6 Q2320.28 1524.47 2318.45 1520.93 Q2316.65 1517.37 2313.01 1517.37 M2313.01 1513.66 Q2318.82 1513.66 2321.88 1518.27 Q2324.96 1522.85 2324.96 1531.6 Q2324.96 1540.33 2321.88 1544.94 Q2318.82 1549.52 2313.01 1549.52 Q2307.2 1549.52 2304.13 1544.94 Q2301.07 1540.33 2301.07 1531.6 Q2301.07 1522.85 2304.13 1518.27 Q2307.2 1513.66 2313.01 1513.66 Z" fill="#000000" fill-rule="evenodd" fill-opacity="1" /><polyline clip-path="url(#clip802)" style="stroke:#000000; stroke-linecap:butt; stroke-linejoin:round; stroke-width:2; stroke-opacity:0.1; fill:none" points="
  186.274,1445.72 2352.76,1445.72 
  "/>
<polyline clip-path="url(#clip802)" style="stroke:#000000; stroke-linecap:butt; stroke-linejoin:round; stroke-width:2; stroke-opacity:0.1; fill:none" points="
  186.274,1106.28 2352.76,1106.28 
  "/>
<polyline clip-path="url(#clip802)" style="stroke:#000000; stroke-linecap:butt; stroke-linejoin:round; stroke-width:2; stroke-opacity:0.1; fill:none" points="
  186.274,766.846 2352.76,766.846 
  "/>
<polyline clip-path="url(#clip802)" style="stroke:#000000; stroke-linecap:butt; stroke-linejoin:round; stroke-width:2; stroke-opacity:0.1; fill:none" points="
  186.274,427.411 2352.76,427.411 
  "/>
<polyline clip-path="url(#clip802)" style="stroke:#000000; stroke-linecap:butt; stroke-linejoin:round; stroke-width:2; stroke-opacity:0.1; fill:none" points="
  186.274,87.9763 2352.76,87.9763 
  "/>
<polyline clip-path="url(#clip800)" style="stroke:#000000; stroke-linecap:butt; stroke-linejoin:round; stroke-width:4; stroke-opacity:1; fill:none" points="
  186.274,1486.45 186.274,47.2441 
  "/>
<polyline clip-path="url(#clip800)" style="stroke:#000000; stroke-linecap:butt; stroke-linejoin:round; stroke-width:4; stroke-opacity:1; fill:none" points="
  186.274,1445.72 205.172,1445.72 
  "/>
<polyline clip-path="url(#clip800)" style="stroke:#000000; stroke-linecap:butt; stroke-linejoin:round; stroke-width:4; stroke-opacity:1; fill:none" points="
  186.274,1106.28 205.172,1106.28 
  "/>
<polyline clip-path="url(#clip800)" style="stroke:#000000; stroke-linecap:butt; stroke-linejoin:round; stroke-width:4; stroke-opacity:1; fill:none" points="
  186.274,766.846 205.172,766.846 
  "/>
<polyline clip-path="url(#clip800)" style="stroke:#000000; stroke-linecap:butt; stroke-linejoin:round; stroke-width:4; stroke-opacity:1; fill:none" points="
  186.274,427.411 205.172,427.411 
  "/>
<polyline clip-path="url(#clip800)" style="stroke:#000000; stroke-linecap:butt; stroke-linejoin:round; stroke-width:4; stroke-opacity:1; fill:none" points="
  186.274,87.9763 205.172,87.9763 
  "/>
<path clip-path="url(#clip800)" d="M62.9365 1431.51 Q59.3254 1431.51 57.4967 1435.08 Q55.6912 1438.62 55.6912 1445.75 Q55.6912 1452.86 57.4967 1456.42 Q59.3254 1459.96 62.9365 1459.96 Q66.5707 1459.96 68.3763 1456.42 Q70.205 1452.86 70.205 1445.75 Q70.205 1438.62 68.3763 1435.08 Q66.5707 1431.51 62.9365 1431.51 M62.9365 1427.81 Q68.7467 1427.81 71.8022 1432.42 Q74.8809 1437 74.8809 1445.75 Q74.8809 1454.48 71.8022 1459.08 Q68.7467 1463.67 62.9365 1463.67 Q57.1264 1463.67 54.0477 1459.08 Q50.9921 1454.48 50.9921 1445.75 Q50.9921 1437 54.0477 1432.42 Q57.1264 1427.81 62.9365 1427.81 Z" fill="#000000" fill-rule="evenodd" fill-opacity="1" /><path clip-path="url(#clip800)" d="M83.0984 1457.12 L87.9827 1457.12 L87.9827 1463 L83.0984 1463 L83.0984 1457.12 Z" fill="#000000" fill-rule="evenodd" fill-opacity="1" /><path clip-path="url(#clip800)" d="M108.168 1431.51 Q104.557 1431.51 102.728 1435.08 Q100.922 1438.62 100.922 1445.75 Q100.922 1452.86 102.728 1456.42 Q104.557 1459.96 108.168 1459.96 Q111.802 1459.96 113.608 1456.42 Q115.436 1452.86 115.436 1445.75 Q115.436 1438.62 113.608 1435.08 Q111.802 1431.51 108.168 1431.51 M108.168 1427.81 Q113.978 1427.81 117.033 1432.42 Q120.112 1437 120.112 1445.75 Q120.112 1454.48 117.033 1459.08 Q113.978 1463.67 108.168 1463.67 Q102.358 1463.67 99.2789 1459.08 Q96.2234 1454.48 96.2234 1445.75 Q96.2234 1437 99.2789 1432.42 Q102.358 1427.81 108.168 1427.81 Z" fill="#000000" fill-rule="evenodd" fill-opacity="1" /><path clip-path="url(#clip800)" d="M138.33 1431.51 Q134.719 1431.51 132.89 1435.08 Q131.084 1438.62 131.084 1445.75 Q131.084 1452.86 132.89 1456.42 Q134.719 1459.96 138.33 1459.96 Q141.964 1459.96 143.769 1456.42 Q145.598 1452.86 145.598 1445.75 Q145.598 1438.62 143.769 1435.08 Q141.964 1431.51 138.33 1431.51 M138.33 1427.81 Q144.14 1427.81 147.195 1432.42 Q150.274 1437 150.274 1445.75 Q150.274 1454.48 147.195 1459.08 Q144.14 1463.67 138.33 1463.67 Q132.519 1463.67 129.441 1459.08 Q126.385 1454.48 126.385 1445.75 Q126.385 1437 129.441 1432.42 Q132.519 1427.81 138.33 1427.81 Z" fill="#000000" fill-rule="evenodd" fill-opacity="1" /><path clip-path="url(#clip800)" d="M63.9319 1092.08 Q60.3208 1092.08 58.4921 1095.64 Q56.6865 1099.19 56.6865 1106.32 Q56.6865 1113.42 58.4921 1116.99 Q60.3208 1120.53 63.9319 1120.53 Q67.5661 1120.53 69.3717 1116.99 Q71.2004 1113.42 71.2004 1106.32 Q71.2004 1099.19 69.3717 1095.64 Q67.5661 1092.08 63.9319 1092.08 M63.9319 1088.38 Q69.742 1088.38 72.7976 1092.98 Q75.8763 1097.57 75.8763 1106.32 Q75.8763 1115.04 72.7976 1119.65 Q69.742 1124.23 63.9319 1124.23 Q58.1217 1124.23 55.043 1119.65 Q51.9875 1115.04 51.9875 1106.32 Q51.9875 1097.57 55.043 1092.98 Q58.1217 1088.38 63.9319 1088.38 Z" fill="#000000" fill-rule="evenodd" fill-opacity="1" /><path clip-path="url(#clip800)" d="M84.0938 1117.68 L88.978 1117.68 L88.978 1123.56 L84.0938 1123.56 L84.0938 1117.68 Z" fill="#000000" fill-rule="evenodd" fill-opacity="1" /><path clip-path="url(#clip800)" d="M103.191 1119.63 L119.51 1119.63 L119.51 1123.56 L97.566 1123.56 L97.566 1119.63 Q100.228 1116.87 104.811 1112.24 Q109.418 1107.59 110.598 1106.25 Q112.844 1103.72 113.723 1101.99 Q114.626 1100.23 114.626 1098.54 Q114.626 1095.78 112.682 1094.05 Q110.76 1092.31 107.658 1092.31 Q105.459 1092.31 103.006 1093.07 Q100.575 1093.84 97.7974 1095.39 L97.7974 1090.67 Q100.621 1089.53 103.075 1088.95 Q105.529 1088.38 107.566 1088.38 Q112.936 1088.38 116.131 1091.06 Q119.325 1093.75 119.325 1098.24 Q119.325 1100.37 118.515 1102.29 Q117.728 1104.19 115.621 1106.78 Q115.043 1107.45 111.941 1110.67 Q108.839 1113.86 103.191 1119.63 Z" fill="#000000" fill-rule="evenodd" fill-opacity="1" /><path clip-path="url(#clip800)" d="M129.371 1089 L147.728 1089 L147.728 1092.94 L133.654 1092.94 L133.654 1101.41 Q134.672 1101.06 135.691 1100.9 Q136.709 1100.71 137.728 1100.71 Q143.515 1100.71 146.894 1103.89 Q150.274 1107.06 150.274 1112.47 Q150.274 1118.05 146.802 1121.15 Q143.33 1124.23 137.01 1124.23 Q134.834 1124.23 132.566 1123.86 Q130.32 1123.49 127.913 1122.75 L127.913 1118.05 Q129.996 1119.19 132.219 1119.74 Q134.441 1120.3 136.918 1120.3 Q140.922 1120.3 143.26 1118.19 Q145.598 1116.08 145.598 1112.47 Q145.598 1108.86 143.26 1106.76 Q140.922 1104.65 136.918 1104.65 Q135.043 1104.65 133.168 1105.07 Q131.316 1105.48 129.371 1106.36 L129.371 1089 Z" fill="#000000" fill-rule="evenodd" fill-opacity="1" /><path clip-path="url(#clip800)" d="M62.9365 752.645 Q59.3254 752.645 57.4967 756.209 Q55.6912 759.751 55.6912 766.881 Q55.6912 773.987 57.4967 777.552 Q59.3254 781.094 62.9365 781.094 Q66.5707 781.094 68.3763 777.552 Q70.205 773.987 70.205 766.881 Q70.205 759.751 68.3763 756.209 Q66.5707 752.645 62.9365 752.645 M62.9365 748.941 Q68.7467 748.941 71.8022 753.547 Q74.8809 758.131 74.8809 766.881 Q74.8809 775.608 71.8022 780.214 Q68.7467 784.797 62.9365 784.797 Q57.1264 784.797 54.0477 780.214 Q50.9921 775.608 50.9921 766.881 Q50.9921 758.131 54.0477 753.547 Q57.1264 748.941 62.9365 748.941 Z" fill="#000000" fill-rule="evenodd" fill-opacity="1" /><path clip-path="url(#clip800)" d="M83.0984 778.246 L87.9827 778.246 L87.9827 784.126 L83.0984 784.126 L83.0984 778.246 Z" fill="#000000" fill-rule="evenodd" fill-opacity="1" /><path clip-path="url(#clip800)" d="M98.2141 749.566 L116.57 749.566 L116.57 753.501 L102.496 753.501 L102.496 761.973 Q103.515 761.626 104.534 761.464 Q105.552 761.279 106.571 761.279 Q112.358 761.279 115.737 764.45 Q119.117 767.621 119.117 773.038 Q119.117 778.617 115.645 781.719 Q112.172 784.797 105.853 784.797 Q103.677 784.797 101.409 784.427 Q99.1632 784.057 96.7558 783.316 L96.7558 778.617 Q98.8391 779.751 101.061 780.307 Q103.284 780.862 105.76 780.862 Q109.765 780.862 112.103 778.756 Q114.441 776.649 114.441 773.038 Q114.441 769.427 112.103 767.321 Q109.765 765.214 105.76 765.214 Q103.885 765.214 102.01 765.631 Q100.159 766.047 98.2141 766.927 L98.2141 749.566 Z" fill="#000000" fill-rule="evenodd" fill-opacity="1" /><path clip-path="url(#clip800)" d="M138.33 752.645 Q134.719 752.645 132.89 756.209 Q131.084 759.751 131.084 766.881 Q131.084 773.987 132.89 777.552 Q134.719 781.094 138.33 781.094 Q141.964 781.094 143.769 777.552 Q145.598 773.987 145.598 766.881 Q145.598 759.751 143.769 756.209 Q141.964 752.645 138.33 752.645 M138.33 748.941 Q144.14 748.941 147.195 753.547 Q150.274 758.131 150.274 766.881 Q150.274 775.608 147.195 780.214 Q144.14 784.797 138.33 784.797 Q132.519 784.797 129.441 780.214 Q126.385 775.608 126.385 766.881 Q126.385 758.131 129.441 753.547 Q132.519 748.941 138.33 748.941 Z" fill="#000000" fill-rule="evenodd" fill-opacity="1" /><path clip-path="url(#clip800)" d="M63.9319 413.21 Q60.3208 413.21 58.4921 416.775 Q56.6865 420.316 56.6865 427.446 Q56.6865 434.552 58.4921 438.117 Q60.3208 441.659 63.9319 441.659 Q67.5661 441.659 69.3717 438.117 Q71.2004 434.552 71.2004 427.446 Q71.2004 420.316 69.3717 416.775 Q67.5661 413.21 63.9319 413.21 M63.9319 409.506 Q69.742 409.506 72.7976 414.113 Q75.8763 418.696 75.8763 427.446 Q75.8763 436.173 72.7976 440.779 Q69.742 445.362 63.9319 445.362 Q58.1217 445.362 55.043 440.779 Q51.9875 436.173 51.9875 427.446 Q51.9875 418.696 55.043 414.113 Q58.1217 409.506 63.9319 409.506 Z" fill="#000000" fill-rule="evenodd" fill-opacity="1" /><path clip-path="url(#clip800)" d="M84.0938 438.812 L88.978 438.812 L88.978 444.691 L84.0938 444.691 L84.0938 438.812 Z" fill="#000000" fill-rule="evenodd" fill-opacity="1" /><path clip-path="url(#clip800)" d="M97.9826 410.131 L120.205 410.131 L120.205 412.122 L107.658 444.691 L102.774 444.691 L114.58 414.066 L97.9826 414.066 L97.9826 410.131 Z" fill="#000000" fill-rule="evenodd" fill-opacity="1" /><path clip-path="url(#clip800)" d="M129.371 410.131 L147.728 410.131 L147.728 414.066 L133.654 414.066 L133.654 422.538 Q134.672 422.191 135.691 422.029 Q136.709 421.844 137.728 421.844 Q143.515 421.844 146.894 425.015 Q150.274 428.187 150.274 433.603 Q150.274 439.182 146.802 442.284 Q143.33 445.362 137.01 445.362 Q134.834 445.362 132.566 444.992 Q130.32 444.622 127.913 443.881 L127.913 439.182 Q129.996 440.316 132.219 440.872 Q134.441 441.427 136.918 441.427 Q140.922 441.427 143.26 439.321 Q145.598 437.214 145.598 433.603 Q145.598 429.992 143.26 427.886 Q140.922 425.779 136.918 425.779 Q135.043 425.779 133.168 426.196 Q131.316 426.613 129.371 427.492 L129.371 410.131 Z" fill="#000000" fill-rule="evenodd" fill-opacity="1" /><path clip-path="url(#clip800)" d="M53.7467 101.321 L61.3856 101.321 L61.3856 74.9555 L53.0754 76.6222 L53.0754 72.3629 L61.3393 70.6963 L66.0152 70.6963 L66.0152 101.321 L73.654 101.321 L73.654 105.256 L53.7467 105.256 L53.7467 101.321 Z" fill="#000000" fill-rule="evenodd" fill-opacity="1" /><path clip-path="url(#clip800)" d="M83.0984 99.3767 L87.9827 99.3767 L87.9827 105.256 L83.0984 105.256 L83.0984 99.3767 Z" fill="#000000" fill-rule="evenodd" fill-opacity="1" /><path clip-path="url(#clip800)" d="M108.168 73.775 Q104.557 73.775 102.728 77.3398 Q100.922 80.8814 100.922 88.011 Q100.922 95.1174 102.728 98.6822 Q104.557 102.224 108.168 102.224 Q111.802 102.224 113.608 98.6822 Q115.436 95.1174 115.436 88.011 Q115.436 80.8814 113.608 77.3398 Q111.802 73.775 108.168 73.775 M108.168 70.0713 Q113.978 70.0713 117.033 74.6777 Q120.112 79.261 120.112 88.011 Q120.112 96.7378 117.033 101.344 Q113.978 105.928 108.168 105.928 Q102.358 105.928 99.2789 101.344 Q96.2234 96.7378 96.2234 88.011 Q96.2234 79.261 99.2789 74.6777 Q102.358 70.0713 108.168 70.0713 Z" fill="#000000" fill-rule="evenodd" fill-opacity="1" /><path clip-path="url(#clip800)" d="M138.33 73.775 Q134.719 73.775 132.89 77.3398 Q131.084 80.8814 131.084 88.011 Q131.084 95.1174 132.89 98.6822 Q134.719 102.224 138.33 102.224 Q141.964 102.224 143.769 98.6822 Q145.598 95.1174 145.598 88.011 Q145.598 80.8814 143.769 77.3398 Q141.964 73.775 138.33 73.775 M138.33 70.0713 Q144.14 70.0713 147.195 74.6777 Q150.274 79.261 150.274 88.011 Q150.274 96.7378 147.195 101.344 Q144.14 105.928 138.33 105.928 Q132.519 105.928 129.441 101.344 Q126.385 96.7378 126.385 88.011 Q126.385 79.261 129.441 74.6777 Q132.519 70.0713 138.33 70.0713 Z" fill="#000000" fill-rule="evenodd" fill-opacity="1" /><polyline clip-path="url(#clip802)" style="stroke:#009af9; stroke-linecap:butt; stroke-linejoin:round; stroke-width:16; stroke-opacity:1; fill:none" points="
  247.59,87.9763 268.234,87.9763 288.879,1445.72 309.524,1445.72 330.169,1445.72 350.814,1445.72 371.459,1445.72 392.104,1445.72 412.749,1445.72 433.394,1445.72 
  454.039,1445.72 474.684,1445.72 495.329,1445.72 515.974,1445.72 536.619,1445.72 557.264,1445.72 577.909,1445.72 598.554,1445.72 619.199,1445.72 639.844,1445.72 
  660.489,1445.72 681.134,1445.72 701.779,1445.72 722.424,1445.72 743.069,1445.72 763.713,1445.72 784.358,1445.72 805.003,1445.72 825.648,1445.72 846.293,1445.72 
  866.938,1445.72 887.583,1445.72 908.228,1445.72 928.873,1445.72 949.518,1445.72 970.163,1445.72 990.808,1445.72 1011.45,1445.72 1032.1,1445.72 1052.74,1445.72 
  1073.39,1445.72 1094.03,1445.72 1114.68,1445.72 1135.32,1445.72 1155.97,1445.72 1176.61,1445.72 1197.26,1445.72 1217.9,1445.72 1238.55,1445.72 1259.19,1445.72 
  1279.84,1445.72 1300.48,1445.72 1321.13,1445.72 1341.77,1445.72 1362.42,1445.72 1383.06,1445.72 1403.71,1445.72 1424.35,1445.72 1445,1445.72 1465.64,1445.72 
  1486.29,1445.72 1506.93,1445.72 1527.58,1445.72 1548.22,1445.72 1568.87,1445.72 1589.51,1445.72 1610.16,1445.72 1630.8,1445.72 1651.45,1445.72 1672.09,1445.72 
  1692.74,1445.72 1713.38,1445.72 1734.03,1445.72 1754.67,1445.72 1775.32,1445.72 1795.96,1445.72 1816.61,1445.72 1837.25,1445.72 1857.9,1445.72 1878.54,1445.72 
  1899.19,1445.72 1919.83,1445.72 1940.48,1445.72 1961.12,1445.72 1981.77,1445.72 2002.41,1445.72 2023.06,1445.72 2043.7,1445.72 2064.35,1445.72 2084.99,1445.72 
  2105.64,1445.72 2126.28,1445.72 2146.93,1445.72 2167.57,1445.72 2188.22,1445.72 2208.86,1445.72 2229.51,1445.72 2250.15,1445.72 2270.8,1445.72 2291.44,1445.72 
  
  "/>
<polyline clip-path="url(#clip802)" style="stroke:#e26f46; stroke-linecap:butt; stroke-linejoin:round; stroke-width:16; stroke-opacity:1; fill:none" points="
  247.59,1445.72 268.234,1445.72 288.879,87.9763 309.524,87.9763 330.169,87.9763 350.814,87.9763 371.459,87.9763 392.104,87.9763 412.749,87.9763 433.394,87.9763 
  454.039,1445.72 474.684,1445.72 495.329,1445.72 515.974,1445.72 536.619,1445.72 557.264,1445.72 577.909,1445.72 598.554,1445.72 619.199,1445.72 639.844,1445.72 
  660.489,1445.72 681.134,1445.72 701.779,1445.72 722.424,1445.72 743.069,1445.72 763.713,1445.72 784.358,1445.72 805.003,1445.72 825.648,1445.72 846.293,1445.72 
  866.938,1445.72 887.583,1445.72 908.228,1445.72 928.873,1445.72 949.518,1445.72 970.163,1445.72 990.808,1445.72 1011.45,1445.72 1032.1,1445.72 1052.74,1445.72 
  1073.39,1445.72 1094.03,1445.72 1114.68,1445.72 1135.32,1445.72 1155.97,1445.72 1176.61,1445.72 1197.26,1445.72 1217.9,1445.72 1238.55,1445.72 1259.19,1445.72 
  1279.84,1445.72 1300.48,1445.72 1321.13,1445.72 1341.77,1445.72 1362.42,1445.72 1383.06,1445.72 1403.71,1445.72 1424.35,1445.72 1445,1445.72 1465.64,1445.72 
  1486.29,1445.72 1506.93,1445.72 1527.58,1445.72 1548.22,1445.72 1568.87,1445.72 1589.51,1445.72 1610.16,1445.72 1630.8,1445.72 1651.45,1445.72 1672.09,1445.72 
  1692.74,1445.72 1713.38,1445.72 1734.03,1445.72 1754.67,1445.72 1775.32,1445.72 1795.96,1445.72 1816.61,1445.72 1837.25,1445.72 1857.9,1445.72 1878.54,1445.72 
  1899.19,1445.72 1919.83,1445.72 1940.48,1445.72 1961.12,1445.72 1981.77,1445.72 2002.41,1445.72 2023.06,1445.72 2043.7,1445.72 2064.35,1445.72 2084.99,1445.72 
  2105.64,1445.72 2126.28,1445.72 2146.93,1445.72 2167.57,1445.72 2188.22,1445.72 2208.86,1445.72 2229.51,1445.72 2250.15,1445.72 2270.8,1445.72 2291.44,1445.72 
  
  "/>
<polyline clip-path="url(#clip802)" style="stroke:#3da44d; stroke-linecap:butt; stroke-linejoin:round; stroke-width:16; stroke-opacity:1; fill:none" points="
  247.59,1445.72 268.234,1445.72 288.879,1445.72 309.524,1445.72 330.169,1445.72 350.814,1445.72 371.459,1445.72 392.104,1445.72 412.749,1445.72 433.394,1445.72 
  454.039,87.9763 474.684,87.9763 495.329,87.9763 515.974,87.9763 536.619,87.9763 557.264,87.9763 577.909,87.9763 598.554,87.9763 619.199,87.9763 639.844,87.9763 
  660.489,87.9763 681.134,87.9763 701.779,87.9763 722.424,1445.72 743.069,1445.72 763.713,1445.72 784.358,1445.72 805.003,1445.72 825.648,1445.72 846.293,1445.72 
  866.938,1445.72 887.583,1445.72 908.228,1445.72 928.873,1445.72 949.518,1445.72 970.163,1445.72 990.808,1445.72 1011.45,1445.72 1032.1,1445.72 1052.74,1445.72 
  1073.39,1445.72 1094.03,1445.72 1114.68,1445.72 1135.32,1445.72 1155.97,1445.72 1176.61,1445.72 1197.26,1445.72 1217.9,1445.72 1238.55,1445.72 1259.19,1445.72 
  1279.84,1445.72 1300.48,1445.72 1321.13,1445.72 1341.77,1445.72 1362.42,1445.72 1383.06,1445.72 1403.71,1445.72 1424.35,1445.72 1445,1445.72 1465.64,1445.72 
  1486.29,1445.72 1506.93,1445.72 1527.58,1445.72 1548.22,1445.72 1568.87,1445.72 1589.51,1445.72 1610.16,1445.72 1630.8,1445.72 1651.45,1445.72 1672.09,1445.72 
  1692.74,1445.72 1713.38,1445.72 1734.03,1445.72 1754.67,1445.72 1775.32,1445.72 1795.96,1445.72 1816.61,1445.72 1837.25,1445.72 1857.9,1445.72 1878.54,1445.72 
  1899.19,1445.72 1919.83,1445.72 1940.48,1445.72 1961.12,1445.72 1981.77,1445.72 2002.41,1445.72 2023.06,1445.72 2043.7,1445.72 2064.35,1445.72 2084.99,1445.72 
  2105.64,1445.72 2126.28,1445.72 2146.93,1445.72 2167.57,1445.72 2188.22,1445.72 2208.86,1445.72 2229.51,1445.72 2250.15,1445.72 2270.8,1445.72 2291.44,1445.72 
  
  "/>
<polyline clip-path="url(#clip802)" style="stroke:#c271d2; stroke-linecap:butt; stroke-linejoin:round; stroke-width:16; stroke-opacity:1; fill:none" points="
  247.59,1445.72 268.234,1445.72 288.879,1445.72 309.524,1445.72 330.169,1445.72 350.814,1445.72 371.459,1445.72 392.104,1445.72 412.749,1445.72 433.394,1445.72 
  454.039,1445.72 474.684,1445.72 495.329,1445.72 515.974,1445.72 536.619,1445.72 557.264,1445.72 577.909,1445.72 598.554,1445.72 619.199,1445.72 639.844,1445.72 
  660.489,1445.72 681.134,1445.72 701.779,1445.72 722.424,87.9763 743.069,87.9763 763.713,87.9763 784.358,87.9763 805.003,87.9763 825.648,87.9763 846.293,87.9763 
  866.938,87.9763 887.583,87.9763 908.228,87.9763 928.873,87.9763 949.518,87.9763 970.163,87.9763 990.808,87.9763 1011.45,87.9763 1032.1,87.9763 1052.74,87.9763 
  1073.39,87.9763 1094.03,1445.72 1114.68,1445.72 1135.32,1445.72 1155.97,1445.72 1176.61,1445.72 1197.26,1445.72 1217.9,1445.72 1238.55,1445.72 1259.19,1445.72 
  1279.84,1445.72 1300.48,1445.72 1321.13,1445.72 1341.77,1445.72 1362.42,1445.72 1383.06,1445.72 1403.71,1445.72 1424.35,1445.72 1445,1445.72 1465.64,1445.72 
  1486.29,1445.72 1506.93,1445.72 1527.58,1445.72 1548.22,1445.72 1568.87,1445.72 1589.51,1445.72 1610.16,1445.72 1630.8,1445.72 1651.45,1445.72 1672.09,1445.72 
  1692.74,1445.72 1713.38,1445.72 1734.03,1445.72 1754.67,1445.72 1775.32,1445.72 1795.96,1445.72 1816.61,1445.72 1837.25,1445.72 1857.9,1445.72 1878.54,1445.72 
  1899.19,1445.72 1919.83,1445.72 1940.48,1445.72 1961.12,1445.72 1981.77,1445.72 2002.41,1445.72 2023.06,1445.72 2043.7,1445.72 2064.35,1445.72 2084.99,1445.72 
  2105.64,1445.72 2126.28,1445.72 2146.93,1445.72 2167.57,1445.72 2188.22,1445.72 2208.86,1445.72 2229.51,1445.72 2250.15,1445.72 2270.8,1445.72 2291.44,1445.72 
  
  "/>
<polyline clip-path="url(#clip802)" style="stroke:#ac8d18; stroke-linecap:butt; stroke-linejoin:round; stroke-width:16; stroke-opacity:1; fill:none" points="
  247.59,1445.72 268.234,1445.72 288.879,1445.72 309.524,1445.72 330.169,1445.72 350.814,1445.72 371.459,1445.72 392.104,1445.72 412.749,1445.72 433.394,1445.72 
  454.039,1445.72 474.684,1445.72 495.329,1445.72 515.974,1445.72 536.619,1445.72 557.264,1445.72 577.909,1445.72 598.554,1445.72 619.199,1445.72 639.844,1445.72 
  660.489,1445.72 681.134,1445.72 701.779,1445.72 722.424,1445.72 743.069,1445.72 763.713,1445.72 784.358,1445.72 805.003,1445.72 825.648,1445.72 846.293,1445.72 
  866.938,1445.72 887.583,1445.72 908.228,1445.72 928.873,1445.72 949.518,1445.72 970.163,1445.72 990.808,1445.72 1011.45,1445.72 1032.1,1445.72 1052.74,1445.72 
  1073.39,1445.72 1094.03,87.9763 1114.68,87.9763 1135.32,87.9763 1155.97,87.9763 1176.61,87.9763 1197.26,87.9763 1217.9,87.9763 1238.55,87.9763 1259.19,87.9763 
  1279.84,87.9763 1300.48,87.9763 1321.13,87.9763 1341.77,87.9763 1362.42,87.9763 1383.06,87.9763 1403.71,87.9763 1424.35,87.9763 1445,87.9763 1465.64,1445.72 
  1486.29,1445.72 1506.93,1445.72 1527.58,1445.72 1548.22,1445.72 1568.87,1445.72 1589.51,1445.72 1610.16,1445.72 1630.8,1445.72 1651.45,1445.72 1672.09,1445.72 
  1692.74,1445.72 1713.38,1445.72 1734.03,1445.72 1754.67,1445.72 1775.32,1445.72 1795.96,1445.72 1816.61,1445.72 1837.25,1445.72 1857.9,1445.72 1878.54,1445.72 
  1899.19,1445.72 1919.83,1445.72 1940.48,1445.72 1961.12,1445.72 1981.77,1445.72 2002.41,1445.72 2023.06,1445.72 2043.7,1445.72 2064.35,1445.72 2084.99,1445.72 
  2105.64,1445.72 2126.28,1445.72 2146.93,1445.72 2167.57,1445.72 2188.22,1445.72 2208.86,1445.72 2229.51,1445.72 2250.15,1445.72 2270.8,1445.72 2291.44,1445.72 
  
  "/>
<circle clip-path="url(#clip802)" cx="247.59" cy="87.9763" r="14" fill="#00a9ad" fill-rule="evenodd" fill-opacity="1" stroke="#000000" stroke-opacity="1" stroke-width="3.2"/>
<circle clip-path="url(#clip802)" cx="325.379" cy="87.9763" r="14" fill="#00a9ad" fill-rule="evenodd" fill-opacity="1" stroke="#000000" stroke-opacity="1" stroke-width="3.2"/>
<circle clip-path="url(#clip802)" cx="546.905" cy="87.9763" r="14" fill="#00a9ad" fill-rule="evenodd" fill-opacity="1" stroke="#000000" stroke-opacity="1" stroke-width="3.2"/>
<circle clip-path="url(#clip802)" cx="878.441" cy="87.9763" r="14" fill="#00a9ad" fill-rule="evenodd" fill-opacity="1" stroke="#000000" stroke-opacity="1" stroke-width="3.2"/>
<circle clip-path="url(#clip802)" cx="1269.51" cy="87.9763" r="14" fill="#00a9ad" fill-rule="evenodd" fill-opacity="1" stroke="#000000" stroke-opacity="1" stroke-width="3.2"/>
<circle clip-path="url(#clip802)" cx="1660.59" cy="87.9763" r="14" fill="#00a9ad" fill-rule="evenodd" fill-opacity="1" stroke="#000000" stroke-opacity="1" stroke-width="3.2"/>
<circle clip-path="url(#clip802)" cx="1992.13" cy="87.9763" r="14" fill="#00a9ad" fill-rule="evenodd" fill-opacity="1" stroke="#000000" stroke-opacity="1" stroke-width="3.2"/>
<circle clip-path="url(#clip802)" cx="2213.65" cy="87.9763" r="14" fill="#00a9ad" fill-rule="evenodd" fill-opacity="1" stroke="#000000" stroke-opacity="1" stroke-width="3.2"/>
<circle clip-path="url(#clip802)" cx="2291.44" cy="87.9763" r="14" fill="#00a9ad" fill-rule="evenodd" fill-opacity="1" stroke="#000000" stroke-opacity="1" stroke-width="3.2"/>
<path clip-path="url(#clip800)" d="
M1958.6 639.538 L2280.54 639.538 L2280.54 95.2176 L1958.6 95.2176  Z
  " fill="#ffffff" fill-rule="evenodd" fill-opacity="1"/>
<polyline clip-path="url(#clip800)" style="stroke:#000000; stroke-linecap:butt; stroke-linejoin:round; stroke-width:4; stroke-opacity:1; fill:none" points="
  1958.6,639.538 2280.54,639.538 2280.54,95.2176 1958.6,95.2176 1958.6,639.538 
  "/>
<polyline clip-path="url(#clip800)" style="stroke:#009af9; stroke-linecap:butt; stroke-linejoin:round; stroke-width:6; stroke-opacity:1; fill:none" points="
  1982.68,172.978 2127.11,172.978 
  "/>
<path clip-path="url(#clip800)" d="M2171.94 202.509 Q2169.24 209.453 2166.67 211.571 Q2164.1 213.689 2159.79 213.689 L2154.69 213.689 L2154.69 208.342 L2158.44 208.342 Q2161.08 208.342 2162.54 207.092 Q2163.99 205.842 2165.76 201.189 L2166.91 198.273 L2151.18 160.009 L2157.95 160.009 L2170.1 190.425 L2182.26 160.009 L2189.03 160.009 L2171.94 202.509 Z" fill="#000000" fill-rule="evenodd" fill-opacity="1" /><path clip-path="url(#clip800)" d="M2199.97 192.995 L2211.42 192.995 L2211.42 153.446 L2198.96 155.946 L2198.96 149.558 L2211.35 147.058 L2218.37 147.058 L2218.37 192.995 L2229.83 192.995 L2229.83 198.898 L2199.97 198.898 L2199.97 192.995 Z" fill="#000000" fill-rule="evenodd" fill-opacity="1" /><polyline clip-path="url(#clip800)" style="stroke:#e26f46; stroke-linecap:butt; stroke-linejoin:round; stroke-width:6; stroke-opacity:1; fill:none" points="
  1982.68,250.738 2127.11,250.738 
  "/>
<path clip-path="url(#clip800)" d="M2171.94 280.269 Q2169.24 287.213 2166.67 289.331 Q2164.1 291.449 2159.79 291.449 L2154.69 291.449 L2154.69 286.102 L2158.44 286.102 Q2161.08 286.102 2162.54 284.852 Q2163.99 283.602 2165.76 278.949 L2166.91 276.033 L2151.18 237.769 L2157.95 237.769 L2170.1 268.185 L2182.26 237.769 L2189.03 237.769 L2171.94 280.269 Z" fill="#000000" fill-rule="evenodd" fill-opacity="1" /><path clip-path="url(#clip800)" d="M2204.79 270.755 L2229.27 270.755 L2229.27 276.658 L2196.35 276.658 L2196.35 270.755 Q2200.35 266.623 2207.22 259.678 Q2214.13 252.699 2215.9 250.685 Q2219.27 246.901 2220.59 244.297 Q2221.94 241.658 2221.94 239.123 Q2221.94 234.991 2219.03 232.387 Q2216.15 229.783 2211.49 229.783 Q2208.19 229.783 2204.51 230.929 Q2200.87 232.074 2196.7 234.401 L2196.7 227.318 Q2200.94 225.616 2204.62 224.748 Q2208.3 223.88 2211.35 223.88 Q2219.41 223.88 2224.2 227.908 Q2228.99 231.936 2228.99 238.672 Q2228.99 241.866 2227.78 244.748 Q2226.6 247.595 2223.44 251.484 Q2222.57 252.491 2217.92 257.317 Q2213.26 262.109 2204.79 270.755 Z" fill="#000000" fill-rule="evenodd" fill-opacity="1" /><polyline clip-path="url(#clip800)" style="stroke:#3da44d; stroke-linecap:butt; stroke-linejoin:round; stroke-width:6; stroke-opacity:1; fill:none" points="
  1982.68,328.498 2127.11,328.498 
  "/>
<path clip-path="url(#clip800)" d="M2171.94 358.029 Q2169.24 364.973 2166.67 367.091 Q2164.1 369.209 2159.79 369.209 L2154.69 369.209 L2154.69 363.862 L2158.44 363.862 Q2161.08 363.862 2162.54 362.612 Q2163.99 361.362 2165.76 356.709 L2166.91 353.793 L2151.18 315.529 L2157.95 315.529 L2170.1 345.945 L2182.26 315.529 L2189.03 315.529 L2171.94 358.029 Z" fill="#000000" fill-rule="evenodd" fill-opacity="1" /><path clip-path="url(#clip800)" d="M2220 326.466 Q2225.03 327.543 2227.85 330.945 Q2230.69 334.348 2230.69 339.348 Q2230.69 347.022 2225.42 351.223 Q2220.14 355.424 2210.42 355.424 Q2207.15 355.424 2203.68 354.765 Q2200.24 354.14 2196.56 352.855 L2196.56 346.084 Q2199.48 347.786 2202.95 348.654 Q2206.42 349.522 2210.21 349.522 Q2216.81 349.522 2220.24 346.918 Q2223.72 344.313 2223.72 339.348 Q2223.72 334.765 2220.49 332.195 Q2217.29 329.591 2211.56 329.591 L2205.52 329.591 L2205.52 323.827 L2211.84 323.827 Q2217.01 323.827 2219.76 321.779 Q2222.5 319.696 2222.5 315.807 Q2222.5 311.814 2219.65 309.696 Q2216.84 307.543 2211.56 307.543 Q2208.68 307.543 2205.38 308.168 Q2202.08 308.793 2198.13 310.112 L2198.13 303.862 Q2202.12 302.751 2205.59 302.196 Q2209.1 301.64 2212.19 301.64 Q2220.17 301.64 2224.83 305.286 Q2229.48 308.897 2229.48 315.077 Q2229.48 319.383 2227.01 322.369 Q2224.55 325.32 2220 326.466 Z" fill="#000000" fill-rule="evenodd" fill-opacity="1" /><polyline clip-path="url(#clip800)" style="stroke:#c271d2; stroke-linecap:butt; stroke-linejoin:round; stroke-width:6; stroke-opacity:1; fill:none" points="
  1982.68,406.258 2127.11,406.258 
  "/>
<path clip-path="url(#clip800)" d="M2171.94 435.789 Q2169.24 442.733 2166.67 444.851 Q2164.1 446.969 2159.79 446.969 L2154.69 446.969 L2154.69 441.622 L2158.44 441.622 Q2161.08 441.622 2162.54 440.372 Q2163.99 439.122 2165.76 434.469 L2166.91 431.553 L2151.18 393.289 L2157.95 393.289 L2170.1 423.705 L2182.26 393.289 L2189.03 393.289 L2171.94 435.789 Z" fill="#000000" fill-rule="evenodd" fill-opacity="1" /><path clip-path="url(#clip800)" d="M2218.02 386.449 L2200.31 414.122 L2218.02 414.122 L2218.02 386.449 M2216.18 380.338 L2225 380.338 L2225 414.122 L2232.4 414.122 L2232.4 419.955 L2225 419.955 L2225 432.178 L2218.02 432.178 L2218.02 419.955 L2194.62 419.955 L2194.62 413.185 L2216.18 380.338 Z" fill="#000000" fill-rule="evenodd" fill-opacity="1" /><polyline clip-path="url(#clip800)" style="stroke:#ac8d18; stroke-linecap:butt; stroke-linejoin:round; stroke-width:6; stroke-opacity:1; fill:none" points="
  1982.68,484.018 2127.11,484.018 
  "/>
<path clip-path="url(#clip800)" d="M2171.94 513.549 Q2169.24 520.493 2166.67 522.611 Q2164.1 524.729 2159.79 524.729 L2154.69 524.729 L2154.69 519.382 L2158.44 519.382 Q2161.08 519.382 2162.54 518.132 Q2163.99 516.882 2165.76 512.229 L2166.91 509.313 L2151.18 471.049 L2157.95 471.049 L2170.1 501.465 L2182.26 471.049 L2189.03 471.049 L2171.94 513.549 Z" fill="#000000" fill-rule="evenodd" fill-opacity="1" /><path clip-path="url(#clip800)" d="M2198.82 458.098 L2226.35 458.098 L2226.35 464 L2205.24 464 L2205.24 476.709 Q2206.77 476.188 2208.3 475.945 Q2209.83 475.667 2211.35 475.667 Q2220.03 475.667 2225.1 480.424 Q2230.17 485.181 2230.17 493.306 Q2230.17 501.674 2224.97 506.326 Q2219.76 510.944 2210.28 510.944 Q2207.01 510.944 2203.61 510.389 Q2200.24 509.833 2196.63 508.722 L2196.63 501.674 Q2199.76 503.375 2203.09 504.208 Q2206.42 505.042 2210.14 505.042 Q2216.15 505.042 2219.65 501.882 Q2223.16 498.722 2223.16 493.306 Q2223.16 487.889 2219.65 484.729 Q2216.15 481.57 2210.14 481.57 Q2207.33 481.57 2204.51 482.195 Q2201.74 482.82 2198.82 484.139 L2198.82 458.098 Z" fill="#000000" fill-rule="evenodd" fill-opacity="1" /><circle clip-path="url(#clip800)" cx="2054.89" cy="561.778" r="34" fill="#00a9ad" fill-rule="evenodd" fill-opacity="1" stroke="#000000" stroke-opacity="1" stroke-width="7.68"/>
<path clip-path="url(#clip800)" d="M2171.94 591.309 Q2169.24 598.253 2166.67 600.371 Q2164.1 602.489 2159.79 602.489 L2154.69 602.489 L2154.69 597.142 L2158.44 597.142 Q2161.08 597.142 2162.54 595.892 Q2163.99 594.642 2165.76 589.989 L2166.91 587.073 L2151.18 548.809 L2157.95 548.809 L2170.1 579.225 L2182.26 548.809 L2189.03 548.809 L2171.94 591.309 Z" fill="#000000" fill-rule="evenodd" fill-opacity="1" /><path clip-path="url(#clip800)" d="M2214.62 558.982 Q2209.9 558.982 2207.12 562.212 Q2204.38 565.441 2204.38 571.066 Q2204.38 576.656 2207.12 579.92 Q2209.9 583.149 2214.62 583.149 Q2219.34 583.149 2222.08 579.92 Q2224.86 576.656 2224.86 571.066 Q2224.86 565.441 2222.08 562.212 Q2219.34 558.982 2214.62 558.982 M2228.54 537.003 L2228.54 543.392 Q2225.9 542.142 2223.19 541.483 Q2220.52 540.823 2217.88 540.823 Q2210.94 540.823 2207.26 545.51 Q2203.61 550.198 2203.09 559.677 Q2205.14 556.656 2208.23 555.059 Q2211.32 553.427 2215.03 553.427 Q2222.85 553.427 2227.36 558.184 Q2231.91 562.906 2231.91 571.066 Q2231.91 579.052 2227.19 583.878 Q2222.47 588.704 2214.62 588.704 Q2205.63 588.704 2200.87 581.83 Q2196.11 574.92 2196.11 561.83 Q2196.11 549.538 2201.94 542.246 Q2207.78 534.92 2217.6 534.92 Q2220.24 534.92 2222.92 535.441 Q2225.63 535.962 2228.54 537.003 Z" fill="#000000" fill-rule="evenodd" fill-opacity="1" /></svg>
