<?xml version="1.0" encoding="utf-8"?>
<svg xmlns="http://www.w3.org/2000/svg" xmlns:xlink="http://www.w3.org/1999/xlink" width="600" height="400" viewBox="0 0 2400 1600">
<defs>
  <clipPath id="clip730">
    <rect x="0" y="0" width="2400" height="1600"/>
  </clipPath>
</defs>
<path clip-path="url(#clip730)" d="
M0 1600 L2400 1600 L2400 0 L0 0  Z
  " fill="#ffffff" fill-rule="evenodd" fill-opacity="1"/>
<defs>
  <clipPath id="clip731">
    <rect x="480" y="0" width="1681" height="1600"/>
  </clipPath>
</defs>
<path clip-path="url(#clip730)" d="
M156.598 1486.45 L2352.76 1486.45 L2352.76 47.2441 L156.598 47.2441  Z
  " fill="#ffffff" fill-rule="evenodd" fill-opacity="1"/>
<defs>
  <clipPath id="clip732">
    <rect x="156" y="47" width="2197" height="1440"/>
  </clipPath>
</defs>
<polyline clip-path="url(#clip732)" style="stroke:#000000; stroke-linecap:butt; stroke-linejoin:round; stroke-width:2; stroke-opacity:0.1; fill:none" points="
  218.754,1486.45 218.754,47.2441 
  "/>
<polyline clip-path="url(#clip732)" style="stroke:#000000; stroke-linecap:butt; stroke-linejoin:round; stroke-width:2; stroke-opacity:0.1; fill:none" points="
  736.715,1486.45 736.715,47.2441 
  "/>
<polyline clip-path="url(#clip732)" style="stroke:#000000; stroke-linecap:butt; stroke-linejoin:round; stroke-width:2; stroke-opacity:0.1; fill:none" points="
  1254.68,1486.45 1254.68,47.2441 
  "/>
<polyline clip-path="url(#clip732)" style="stroke:#000000; stroke-linecap:butt; stroke-linejoin:round; stroke-width:2; stroke-opacity:0.1; fill:none" points="
  1772.64,1486.45 1772.64,47.2441 
  "/>
<polyline clip-path="url(#clip732)" style="stroke:#000000; stroke-linecap:butt; stroke-linejoin:round; stroke-width:2; stroke-opacity:0.1; fill:none" points="
  2290.6,1486.45 2290.6,47.2441 
  "/>
<polyline clip-path="url(#clip730)" style="stroke:#000000; stroke-linecap:butt; stroke-linejoin:round; stroke-width:4; stroke-opacity:1; fill:none" points="
  156.598,1486.45 2352.76,1486.45 
  "/>
<polyline clip-path="url(#clip730)" style="stroke:#000000; stroke-linecap:butt; stroke-linejoin:round; stroke-width:4; stroke-opacity:1; fill:none" points="
  218.754,1486.45 218.754,1467.55 
  "/>
<polyline clip-path="url(#clip730)" style="stroke:#000000; stroke-linecap:butt; stroke-linejoin:round; stroke-width:4; stroke-opacity:1; fill:none" points="
  736.715,1486.45 736.715,1467.55 
  "/>
<polyline clip-path="url(#clip730)" style="stroke:#000000; stroke-linecap:butt; stroke-linejoin:round; stroke-width:4; stroke-opacity:1; fill:none" points="
  1254.68,1486.45 1254.68,1467.55 
  "/>
<polyline clip-path="url(#clip730)" style="stroke:#000000; stroke-linecap:butt; stroke-linejoin:round; stroke-width:4; stroke-opacity:1; fill:none" points="
  1772.64,1486.45 1772.64,1467.55 
  "/>
<polyline clip-path="url(#clip730)" style="stroke:#000000; stroke-linecap:butt; stroke-linejoin:round; stroke-width:4; stroke-opacity:1; fill:none" points="
  2290.6,1486.45 2290.6,1467.55 
  "/>
<path clip-path="url(#clip730)" d="M165.282 1532.02 L194.957 1532.02 L194.957 1535.95 L165.282 1535.95 L165.282 1532.02 Z" fill="#000000" fill-rule="evenodd" fill-opacity="1" /><path clip-path="url(#clip730)" d="M205.86 1544.91 L213.499 1544.91 L213.499 1518.55 L205.189 1520.21 L205.189 1515.95 L213.453 1514.29 L218.129 1514.29 L218.129 1544.91 L225.767 1544.91 L225.767 1548.85 L205.86 1548.85 L205.86 1544.91 Z" fill="#000000" fill-rule="evenodd" fill-opacity="1" /><path clip-path="url(#clip730)" d="M235.212 1542.97 L240.096 1542.97 L240.096 1548.85 L235.212 1548.85 L235.212 1542.97 Z" fill="#000000" fill-rule="evenodd" fill-opacity="1" /><path clip-path="url(#clip730)" d="M260.281 1517.37 Q256.67 1517.37 254.841 1520.93 Q253.036 1524.47 253.036 1531.6 Q253.036 1538.71 254.841 1542.27 Q256.67 1545.82 260.281 1545.82 Q263.915 1545.82 265.721 1542.27 Q267.55 1538.71 267.55 1531.6 Q267.55 1524.47 265.721 1520.93 Q263.915 1517.37 260.281 1517.37 M260.281 1513.66 Q266.091 1513.66 269.147 1518.27 Q272.226 1522.85 272.226 1531.6 Q272.226 1540.33 269.147 1544.94 Q266.091 1549.52 260.281 1549.52 Q254.471 1549.52 251.392 1544.94 Q248.337 1540.33 248.337 1531.6 Q248.337 1522.85 251.392 1518.27 Q254.471 1513.66 260.281 1513.66 Z" fill="#000000" fill-rule="evenodd" fill-opacity="1" /><path clip-path="url(#clip730)" d="M683.741 1532.02 L713.417 1532.02 L713.417 1535.95 L683.741 1535.95 L683.741 1532.02 Z" fill="#000000" fill-rule="evenodd" fill-opacity="1" /><path clip-path="url(#clip730)" d="M733.509 1517.37 Q729.898 1517.37 728.07 1520.93 Q726.264 1524.47 726.264 1531.6 Q726.264 1538.71 728.07 1542.27 Q729.898 1545.82 733.509 1545.82 Q737.144 1545.82 738.949 1542.27 Q740.778 1538.71 740.778 1531.6 Q740.778 1524.47 738.949 1520.93 Q737.144 1517.37 733.509 1517.37 M733.509 1513.66 Q739.32 1513.66 742.375 1518.27 Q745.454 1522.85 745.454 1531.6 Q745.454 1540.33 742.375 1544.94 Q739.32 1549.52 733.509 1549.52 Q727.699 1549.52 724.621 1544.94 Q721.565 1540.33 721.565 1531.6 Q721.565 1522.85 724.621 1518.27 Q727.699 1513.66 733.509 1513.66 Z" fill="#000000" fill-rule="evenodd" fill-opacity="1" /><path clip-path="url(#clip730)" d="M753.671 1542.97 L758.556 1542.97 L758.556 1548.85 L753.671 1548.85 L753.671 1542.97 Z" fill="#000000" fill-rule="evenodd" fill-opacity="1" /><path clip-path="url(#clip730)" d="M768.787 1514.29 L787.143 1514.29 L787.143 1518.22 L773.069 1518.22 L773.069 1526.7 Q774.088 1526.35 775.106 1526.19 Q776.125 1526 777.143 1526 Q782.93 1526 786.31 1529.17 Q789.69 1532.34 789.69 1537.76 Q789.69 1543.34 786.217 1546.44 Q782.745 1549.52 776.426 1549.52 Q774.25 1549.52 771.981 1549.15 Q769.736 1548.78 767.329 1548.04 L767.329 1543.34 Q769.412 1544.47 771.634 1545.03 Q773.856 1545.58 776.333 1545.58 Q780.338 1545.58 782.676 1543.48 Q785.014 1541.37 785.014 1537.76 Q785.014 1534.15 782.676 1532.04 Q780.338 1529.94 776.333 1529.94 Q774.458 1529.94 772.583 1530.35 Q770.731 1530.77 768.787 1531.65 L768.787 1514.29 Z" fill="#000000" fill-rule="evenodd" fill-opacity="1" /><path clip-path="url(#clip730)" d="M1232.06 1517.37 Q1228.45 1517.37 1226.62 1520.93 Q1224.82 1524.47 1224.82 1531.6 Q1224.82 1538.71 1226.62 1542.27 Q1228.45 1545.82 1232.06 1545.82 Q1235.7 1545.82 1237.5 1542.27 Q1239.33 1538.71 1239.33 1531.6 Q1239.33 1524.47 1237.5 1520.93 Q1235.7 1517.37 1232.06 1517.37 M1232.06 1513.66 Q1237.87 1513.66 1240.93 1518.27 Q1244.01 1522.85 1244.01 1531.6 Q1244.01 1540.33 1240.93 1544.94 Q1237.87 1549.52 1232.06 1549.52 Q1226.25 1549.52 1223.17 1544.94 Q1220.12 1540.33 1220.12 1531.6 Q1220.12 1522.85 1223.17 1518.27 Q1226.25 1513.66 1232.06 1513.66 Z" fill="#000000" fill-rule="evenodd" fill-opacity="1" /><path clip-path="url(#clip730)" d="M1252.22 1542.97 L1257.11 1542.97 L1257.11 1548.85 L1252.22 1548.85 L1252.22 1542.97 Z" fill="#000000" fill-rule="evenodd" fill-opacity="1" /><path clip-path="url(#clip730)" d="M1277.29 1517.37 Q1273.68 1517.37 1271.85 1520.93 Q1270.05 1524.47 1270.05 1531.6 Q1270.05 1538.71 1271.85 1542.27 Q1273.68 1545.82 1277.29 1545.82 Q1280.93 1545.82 1282.73 1542.27 Q1284.56 1538.71 1284.56 1531.6 Q1284.56 1524.47 1282.73 1520.93 Q1280.93 1517.37 1277.29 1517.37 M1277.29 1513.66 Q1283.1 1513.66 1286.16 1518.27 Q1289.24 1522.85 1289.24 1531.6 Q1289.24 1540.33 1286.16 1544.94 Q1283.1 1549.52 1277.29 1549.52 Q1271.48 1549.52 1268.4 1544.94 Q1265.35 1540.33 1265.35 1531.6 Q1265.35 1522.85 1268.4 1518.27 Q1271.48 1513.66 1277.29 1513.66 Z" fill="#000000" fill-rule="evenodd" fill-opacity="1" /><path clip-path="url(#clip730)" d="M1750.52 1517.37 Q1746.91 1517.37 1745.08 1520.93 Q1743.28 1524.47 1743.28 1531.6 Q1743.28 1538.71 1745.08 1542.27 Q1746.91 1545.82 1750.52 1545.82 Q1754.16 1545.82 1755.96 1542.27 Q1757.79 1538.71 1757.79 1531.6 Q1757.79 1524.47 1755.96 1520.93 Q1754.16 1517.37 1750.52 1517.37 M1750.52 1513.66 Q1756.33 1513.66 1759.39 1518.27 Q1762.47 1522.85 1762.47 1531.6 Q1762.47 1540.33 1759.39 1544.94 Q1756.33 1549.52 1750.52 1549.52 Q1744.71 1549.52 1741.63 1544.94 Q1738.58 1540.33 1738.58 1531.6 Q1738.58 1522.85 1741.63 1518.27 Q1744.71 1513.66 1750.52 1513.66 Z" fill="#000000" fill-rule="evenodd" fill-opacity="1" /><path clip-path="url(#clip730)" d="M1770.68 1542.97 L1775.57 1542.97 L1775.57 1548.85 L1770.68 1548.85 L1770.68 1542.97 Z" fill="#000000" fill-rule="evenodd" fill-opacity="1" /><path clip-path="url(#clip730)" d="M1785.8 1514.29 L1804.15 1514.29 L1804.15 1518.22 L1790.08 1518.22 L1790.08 1526.7 Q1791.1 1526.35 1792.12 1526.19 Q1793.14 1526 1794.15 1526 Q1799.94 1526 1803.32 1529.17 Q1806.7 1532.34 1806.7 1537.76 Q1806.7 1543.34 1803.23 1546.44 Q1799.76 1549.52 1793.44 1549.52 Q1791.26 1549.52 1788.99 1549.15 Q1786.75 1548.78 1784.34 1548.04 L1784.34 1543.34 Q1786.42 1544.47 1788.65 1545.03 Q1790.87 1545.58 1793.34 1545.58 Q1797.35 1545.58 1799.69 1543.48 Q1802.03 1541.37 1802.03 1537.76 Q1802.03 1534.15 1799.69 1532.04 Q1797.35 1529.94 1793.34 1529.94 Q1791.47 1529.94 1789.59 1530.35 Q1787.74 1530.77 1785.8 1531.65 L1785.8 1514.29 Z" fill="#000000" fill-rule="evenodd" fill-opacity="1" /><path clip-path="url(#clip730)" d="M2257.75 1544.91 L2265.39 1544.91 L2265.39 1518.55 L2257.08 1520.21 L2257.08 1515.95 L2265.35 1514.29 L2270.02 1514.29 L2270.02 1544.91 L2277.66 1544.91 L2277.66 1548.85 L2257.75 1548.85 L2257.75 1544.91 Z" fill="#000000" fill-rule="evenodd" fill-opacity="1" /><path clip-path="url(#clip730)" d="M2287.11 1542.97 L2291.99 1542.97 L2291.99 1548.85 L2287.11 1548.85 L2287.11 1542.97 Z" fill="#000000" fill-rule="evenodd" fill-opacity="1" /><path clip-path="url(#clip730)" d="M2312.17 1517.37 Q2308.56 1517.37 2306.73 1520.93 Q2304.93 1524.47 2304.93 1531.6 Q2304.93 1538.71 2306.73 1542.27 Q2308.56 1545.82 2312.17 1545.82 Q2315.81 1545.82 2317.61 1542.27 Q2319.44 1538.71 2319.44 1531.6 Q2319.44 1524.47 2317.61 1520.93 Q2315.81 1517.37 2312.17 1517.37 M2312.17 1513.66 Q2317.98 1513.66 2321.04 1518.27 Q2324.12 1522.85 2324.12 1531.6 Q2324.12 1540.33 2321.04 1544.94 Q2317.98 1549.52 2312.17 1549.52 Q2306.36 1549.52 2303.29 1544.94 Q2300.23 1540.33 2300.23 1531.6 Q2300.23 1522.85 2303.29 1518.27 Q2306.36 1513.66 2312.17 1513.66 Z" fill="#000000" fill-rule="evenodd" fill-opacity="1" /><polyline clip-path="url(#clip732)" style="stroke:#000000; stroke-linecap:butt; stroke-linejoin:round; stroke-width:2; stroke-opacity:0.1; fill:none" points="
  156.598,1282.78 2352.76,1282.78 
  "/>
<polyline clip-path="url(#clip732)" style="stroke:#000000; stroke-linecap:butt; stroke-linejoin:round; stroke-width:2; stroke-opacity:0.1; fill:none" points="
  156.598,984.062 2352.76,984.062 
  "/>
<polyline clip-path="url(#clip732)" style="stroke:#000000; stroke-linecap:butt; stroke-linejoin:round; stroke-width:2; stroke-opacity:0.1; fill:none" points="
  156.598,685.347 2352.76,685.347 
  "/>
<polyline clip-path="url(#clip732)" style="stroke:#000000; stroke-linecap:butt; stroke-linejoin:round; stroke-width:2; stroke-opacity:0.1; fill:none" points="
  156.598,386.632 2352.76,386.632 
  "/>
<polyline clip-path="url(#clip732)" style="stroke:#000000; stroke-linecap:butt; stroke-linejoin:round; stroke-width:2; stroke-opacity:0.1; fill:none" points="
  156.598,87.9163 2352.76,87.9163 
  "/>
<polyline clip-path="url(#clip730)" style="stroke:#000000; stroke-linecap:butt; stroke-linejoin:round; stroke-width:4; stroke-opacity:1; fill:none" points="
  156.598,1486.45 156.598,47.2441 
  "/>
<polyline clip-path="url(#clip730)" style="stroke:#000000; stroke-linecap:butt; stroke-linejoin:round; stroke-width:4; stroke-opacity:1; fill:none" points="
  156.598,1282.78 175.496,1282.78 
  "/>
<polyline clip-path="url(#clip730)" style="stroke:#000000; stroke-linecap:butt; stroke-linejoin:round; stroke-width:4; stroke-opacity:1; fill:none" points="
  156.598,984.062 175.496,984.062 
  "/>
<polyline clip-path="url(#clip730)" style="stroke:#000000; stroke-linecap:butt; stroke-linejoin:round; stroke-width:4; stroke-opacity:1; fill:none" points="
  156.598,685.347 175.496,685.347 
  "/>
<polyline clip-path="url(#clip730)" style="stroke:#000000; stroke-linecap:butt; stroke-linejoin:round; stroke-width:4; stroke-opacity:1; fill:none" points="
  156.598,386.632 175.496,386.632 
  "/>
<polyline clip-path="url(#clip730)" style="stroke:#000000; stroke-linecap:butt; stroke-linejoin:round; stroke-width:4; stroke-opacity:1; fill:none" points="
  156.598,87.9163 175.496,87.9163 
  "/>
<path clip-path="url(#clip730)" d="M65.0198 1268.58 Q61.4087 1268.58 59.58 1272.14 Q57.7745 1275.68 57.7745 1282.81 Q57.7745 1289.92 59.58 1293.48 Q61.4087 1297.02 65.0198 1297.02 Q68.6541 1297.02 70.4596 1293.48 Q72.2883 1289.92 72.2883 1282.81 Q72.2883 1275.68 70.4596 1272.14 Q68.6541 1268.58 65.0198 1268.58 M65.0198 1264.87 Q70.83 1264.87 73.8855 1269.48 Q76.9642 1274.06 76.9642 1282.81 Q76.9642 1291.54 73.8855 1296.15 Q70.83 1300.73 65.0198 1300.73 Q59.2097 1300.73 56.131 1296.15 Q53.0754 1291.54 53.0754 1282.81 Q53.0754 1274.06 56.131 1269.48 Q59.2097 1264.87 65.0198 1264.87 Z" fill="#000000" fill-rule="evenodd" fill-opacity="1" /><path clip-path="url(#clip730)" d="M85.1818 1294.18 L90.066 1294.18 L90.066 1300.06 L85.1818 1300.06 L85.1818 1294.18 Z" fill="#000000" fill-rule="evenodd" fill-opacity="1" /><path clip-path="url(#clip730)" d="M104.279 1296.12 L120.598 1296.12 L120.598 1300.06 L98.6539 1300.06 L98.6539 1296.12 Q101.316 1293.37 105.899 1288.74 Q110.506 1284.09 111.686 1282.74 Q113.932 1280.22 114.811 1278.48 Q115.714 1276.72 115.714 1275.03 Q115.714 1272.28 113.77 1270.54 Q111.848 1268.81 108.746 1268.81 Q106.547 1268.81 104.094 1269.57 Q101.663 1270.34 98.8854 1271.89 L98.8854 1267.16 Q101.709 1266.03 104.163 1265.45 Q106.617 1264.87 108.654 1264.87 Q114.024 1264.87 117.219 1267.56 Q120.413 1270.24 120.413 1274.73 Q120.413 1276.86 119.603 1278.78 Q118.816 1280.68 116.709 1283.27 Q116.131 1283.95 113.029 1287.16 Q109.927 1290.36 104.279 1296.12 Z" fill="#000000" fill-rule="evenodd" fill-opacity="1" /><path clip-path="url(#clip730)" d="M62.9365 969.861 Q59.3254 969.861 57.4967 973.425 Q55.6912 976.967 55.6912 984.097 Q55.6912 991.203 57.4967 994.768 Q59.3254 998.31 62.9365 998.31 Q66.5707 998.31 68.3763 994.768 Q70.205 991.203 70.205 984.097 Q70.205 976.967 68.3763 973.425 Q66.5707 969.861 62.9365 969.861 M62.9365 966.157 Q68.7467 966.157 71.8022 970.763 Q74.8809 975.347 74.8809 984.097 Q74.8809 992.824 71.8022 997.43 Q68.7467 1002.01 62.9365 1002.01 Q57.1264 1002.01 54.0477 997.43 Q50.9921 992.824 50.9921 984.097 Q50.9921 975.347 54.0477 970.763 Q57.1264 966.157 62.9365 966.157 Z" fill="#000000" fill-rule="evenodd" fill-opacity="1" /><path clip-path="url(#clip730)" d="M83.0984 995.462 L87.9827 995.462 L87.9827 1001.34 L83.0984 1001.34 L83.0984 995.462 Z" fill="#000000" fill-rule="evenodd" fill-opacity="1" /><path clip-path="url(#clip730)" d="M111.015 970.856 L99.2095 989.305 L111.015 989.305 L111.015 970.856 M109.788 966.782 L115.668 966.782 L115.668 989.305 L120.598 989.305 L120.598 993.194 L115.668 993.194 L115.668 1001.34 L111.015 1001.34 L111.015 993.194 L95.4132 993.194 L95.4132 988.68 L109.788 966.782 Z" fill="#000000" fill-rule="evenodd" fill-opacity="1" /><path clip-path="url(#clip730)" d="M63.2606 671.145 Q59.6495 671.145 57.8208 674.71 Q56.0152 678.252 56.0152 685.381 Q56.0152 692.488 57.8208 696.053 Q59.6495 699.594 63.2606 699.594 Q66.8948 699.594 68.7004 696.053 Q70.5291 692.488 70.5291 685.381 Q70.5291 678.252 68.7004 674.71 Q66.8948 671.145 63.2606 671.145 M63.2606 667.442 Q69.0707 667.442 72.1263 672.048 Q75.205 676.632 75.205 685.381 Q75.205 694.108 72.1263 698.715 Q69.0707 703.298 63.2606 703.298 Q57.4504 703.298 54.3717 698.715 Q51.3162 694.108 51.3162 685.381 Q51.3162 676.632 54.3717 672.048 Q57.4504 667.442 63.2606 667.442 Z" fill="#000000" fill-rule="evenodd" fill-opacity="1" /><path clip-path="url(#clip730)" d="M83.4225 696.747 L88.3067 696.747 L88.3067 702.627 L83.4225 702.627 L83.4225 696.747 Z" fill="#000000" fill-rule="evenodd" fill-opacity="1" /><path clip-path="url(#clip730)" d="M109.071 683.483 Q105.922 683.483 104.071 685.636 Q102.242 687.789 102.242 691.539 Q102.242 695.266 104.071 697.442 Q105.922 699.594 109.071 699.594 Q112.219 699.594 114.047 697.442 Q115.899 695.266 115.899 691.539 Q115.899 687.789 114.047 685.636 Q112.219 683.483 109.071 683.483 M118.353 668.831 L118.353 673.09 Q116.594 672.257 114.788 671.817 Q113.006 671.377 111.246 671.377 Q106.617 671.377 104.163 674.502 Q101.733 677.627 101.385 683.946 Q102.751 681.932 104.811 680.868 Q106.871 679.78 109.348 679.78 Q114.557 679.78 117.566 682.951 Q120.598 686.099 120.598 691.539 Q120.598 696.863 117.45 700.08 Q114.302 703.298 109.071 703.298 Q103.075 703.298 99.9039 698.715 Q96.7326 694.108 96.7326 685.381 Q96.7326 677.187 100.621 672.326 Q104.51 667.442 111.061 667.442 Q112.82 667.442 114.603 667.789 Q116.408 668.136 118.353 668.831 Z" fill="#000000" fill-rule="evenodd" fill-opacity="1" /><path clip-path="url(#clip730)" d="M63.5152 372.43 Q59.9041 372.43 58.0754 375.995 Q56.2699 379.537 56.2699 386.666 Q56.2699 393.773 58.0754 397.337 Q59.9041 400.879 63.5152 400.879 Q67.1494 400.879 68.955 397.337 Q70.7837 393.773 70.7837 386.666 Q70.7837 379.537 68.955 375.995 Q67.1494 372.43 63.5152 372.43 M63.5152 368.727 Q69.3254 368.727 72.3809 373.333 Q75.4596 377.916 75.4596 386.666 Q75.4596 395.393 72.3809 400 Q69.3254 404.583 63.5152 404.583 Q57.7051 404.583 54.6264 400 Q51.5708 395.393 51.5708 386.666 Q51.5708 377.916 54.6264 373.333 Q57.7051 368.727 63.5152 368.727 Z" fill="#000000" fill-rule="evenodd" fill-opacity="1" /><path clip-path="url(#clip730)" d="M83.6771 398.032 L88.5614 398.032 L88.5614 403.912 L83.6771 403.912 L83.6771 398.032 Z" fill="#000000" fill-rule="evenodd" fill-opacity="1" /><path clip-path="url(#clip730)" d="M108.746 387.5 Q105.413 387.5 103.492 389.282 Q101.594 391.064 101.594 394.189 Q101.594 397.314 103.492 399.097 Q105.413 400.879 108.746 400.879 Q112.08 400.879 114.001 399.097 Q115.922 397.291 115.922 394.189 Q115.922 391.064 114.001 389.282 Q112.103 387.5 108.746 387.5 M104.071 385.509 Q101.061 384.768 99.3715 382.708 Q97.7048 380.648 97.7048 377.685 Q97.7048 373.541 100.645 371.134 Q103.608 368.727 108.746 368.727 Q113.908 368.727 116.848 371.134 Q119.788 373.541 119.788 377.685 Q119.788 380.648 118.098 382.708 Q116.432 384.768 113.445 385.509 Q116.825 386.296 118.7 388.588 Q120.598 390.879 120.598 394.189 Q120.598 399.212 117.52 401.898 Q114.464 404.583 108.746 404.583 Q103.029 404.583 99.9502 401.898 Q96.8947 399.212 96.8947 394.189 Q96.8947 390.879 98.7928 388.588 Q100.691 386.296 104.071 385.509 M102.358 378.125 Q102.358 380.81 104.024 382.314 Q105.714 383.819 108.746 383.819 Q111.756 383.819 113.445 382.314 Q115.158 380.81 115.158 378.125 Q115.158 375.439 113.445 373.935 Q111.756 372.43 108.746 372.43 Q105.714 372.43 104.024 373.935 Q102.358 375.439 102.358 378.125 Z" fill="#000000" fill-rule="evenodd" fill-opacity="1" /><path clip-path="url(#clip730)" d="M54.2328 101.261 L61.8717 101.261 L61.8717 74.8955 L53.5616 76.5622 L53.5616 72.303 L61.8254 70.6363 L66.5013 70.6363 L66.5013 101.261 L74.1402 101.261 L74.1402 105.196 L54.2328 105.196 L54.2328 101.261 Z" fill="#000000" fill-rule="evenodd" fill-opacity="1" /><path clip-path="url(#clip730)" d="M83.5845 99.3167 L88.4688 99.3167 L88.4688 105.196 L83.5845 105.196 L83.5845 99.3167 Z" fill="#000000" fill-rule="evenodd" fill-opacity="1" /><path clip-path="url(#clip730)" d="M108.654 73.715 Q105.043 73.715 103.214 77.2798 Q101.409 80.8214 101.409 87.951 Q101.409 95.0575 103.214 98.6223 Q105.043 102.164 108.654 102.164 Q112.288 102.164 114.094 98.6223 Q115.922 95.0575 115.922 87.951 Q115.922 80.8214 114.094 77.2798 Q112.288 73.715 108.654 73.715 M108.654 70.0113 Q114.464 70.0113 117.52 74.6178 Q120.598 79.2011 120.598 87.951 Q120.598 96.6778 117.52 101.284 Q114.464 105.868 108.654 105.868 Q102.844 105.868 99.765 101.284 Q96.7095 96.6778 96.7095 87.951 Q96.7095 79.2011 99.765 74.6178 Q102.844 70.0113 108.654 70.0113 Z" fill="#000000" fill-rule="evenodd" fill-opacity="1" /><polyline clip-path="url(#clip732)" style="stroke:#009af9; stroke-linecap:butt; stroke-linejoin:round; stroke-width:16; stroke-opacity:1; fill:none" points="
  218.754,1445.71 222.906,1444.72 227.058,1443.71 231.21,1442.7 235.362,1441.67 239.514,1440.63 243.666,1439.58 247.818,1438.52 251.97,1437.45 256.122,1436.37 
  260.274,1435.27 264.426,1434.16 268.578,1433.04 272.73,1431.91 276.882,1430.77 281.034,1429.61 285.186,1428.44 289.338,1427.26 293.49,1426.06 297.642,1424.85 
  301.794,1423.63 305.946,1422.39 310.098,1421.14 314.25,1419.87 318.402,1418.59 322.554,1417.3 326.706,1415.99 330.858,1414.66 335.01,1413.32 339.162,1411.97 
  343.314,1410.6 347.466,1409.21 351.618,1407.81 355.77,1406.39 359.922,1404.95 364.074,1403.5 368.226,1402.03 372.378,1400.54 376.53,1399.03 380.682,1397.51 
  384.834,1395.97 388.986,1394.41 393.138,1392.83 397.29,1391.23 401.442,1389.61 405.594,1387.98 409.746,1386.32 413.898,1384.64 418.05,1382.94 422.202,1381.22 
  426.354,1379.48 430.506,1377.72 434.658,1375.94 438.81,1374.13 442.962,1372.3 447.114,1370.45 451.266,1368.57 455.418,1366.68 459.57,1364.75 463.722,1362.81 
  467.874,1360.83 472.026,1358.84 476.177,1356.81 480.329,1354.76 484.481,1352.69 488.633,1350.59 492.785,1348.46 496.937,1346.3 501.089,1344.11 505.241,1341.9 
  509.393,1339.65 513.545,1337.38 517.697,1335.08 521.849,1332.74 526.001,1330.38 530.153,1327.98 534.305,1325.55 538.457,1323.09 542.609,1320.6 546.761,1318.07 
  550.913,1315.51 555.065,1312.91 559.217,1310.28 563.369,1307.61 567.521,1304.91 571.673,1302.16 575.825,1299.38 579.977,1296.56 584.129,1293.71 588.281,1290.81 
  592.433,1287.87 596.585,1284.89 600.737,1281.87 604.889,1278.81 609.041,1275.71 613.193,1272.56 617.345,1269.36 621.497,1266.12 625.649,1262.84 629.801,1259.5 
  633.953,1256.12 638.105,1252.69 642.257,1249.21 646.409,1245.69 650.561,1242.11 654.713,1238.48 658.865,1234.79 663.017,1231.06 667.169,1227.26 671.321,1223.42 
  675.473,1219.51 679.625,1215.55 683.777,1211.53 687.929,1207.46 692.081,1203.32 696.233,1199.12 700.385,1194.86 704.537,1190.53 708.689,1186.14 712.841,1181.69 
  716.993,1177.17 721.145,1172.58 725.297,1167.92 729.449,1163.2 733.601,1158.4 737.753,1153.53 741.905,1148.59 746.057,1143.57 750.209,1138.48 754.361,1133.32 
  758.513,1128.07 762.665,1122.75 766.817,1117.34 770.969,1111.85 775.121,1106.29 779.273,1100.63 783.425,1094.9 787.577,1089.07 791.729,1083.16 795.881,1077.16 
  800.033,1071.07 804.185,1064.88 808.337,1058.61 812.489,1052.24 816.641,1045.77 820.793,1039.21 824.945,1032.55 829.097,1025.79 833.249,1018.93 837.401,1011.97 
  841.553,1004.91 845.705,997.742 849.857,990.469 854.009,983.09 858.161,975.602 862.313,968.006 866.465,960.301 870.617,952.484 874.769,944.555 878.921,936.514 
  883.073,928.358 887.225,920.088 891.377,911.702 895.529,903.199 899.681,894.58 903.833,885.843 907.985,876.987 912.137,868.013 916.289,858.919 920.441,849.706 
  924.593,840.373 928.745,830.92 932.897,821.347 937.049,811.654 941.201,801.842 945.353,791.91 949.505,781.86 953.657,771.691 957.809,761.406 961.961,751.004 
  966.113,740.487 970.265,729.856 974.417,719.113 978.569,708.26 982.721,697.298 986.873,686.23 991.025,675.058 995.177,663.785 999.329,652.413 1003.48,640.947 
  1007.63,629.389 1011.79,617.744 1015.94,606.014 1020.09,594.206 1024.24,582.323 1028.39,570.37 1032.55,558.353 1036.7,546.278 1040.85,534.15 1045,521.976 
  1049.15,509.763 1053.31,497.518 1057.46,485.248 1061.61,472.962 1065.76,460.668 1069.91,448.374 1074.07,436.09 1078.22,423.825 1082.37,411.588 1086.52,399.392 
  1090.67,387.244 1094.83,375.158 1098.98,363.144 1103.13,351.214 1107.28,339.381 1111.43,327.655 1115.59,316.051 1119.74,304.58 1123.89,293.257 1128.04,282.095 
  1132.19,271.106 1136.35,260.306 1140.5,249.709 1144.65,239.327 1148.8,229.176 1152.95,219.269 1157.11,209.621 1161.26,200.246 1165.41,191.158 1169.56,182.371 
  1173.71,173.898 1177.87,165.753 1182.02,157.95 1186.17,150.5 1190.32,143.418 1194.47,136.714 1198.63,130.4 1202.78,124.488 1206.93,118.987 1211.08,113.908 
  1215.23,109.261 1219.39,105.052 1223.54,101.292 1227.69,97.985 1231.84,95.1391 1235.99,92.7591 1240.15,90.8497 1244.3,89.4144 1248.45,88.4559 1252.6,87.9763 
  1256.75,87.9763 1260.91,88.4559 1265.06,89.4144 1269.21,90.8497 1273.36,92.7591 1277.51,95.1391 1281.67,97.985 1285.82,101.292 1289.97,105.052 1294.12,109.261 
  1298.27,113.908 1302.43,118.987 1306.58,124.488 1310.73,130.4 1314.88,136.714 1319.03,143.418 1323.19,150.5 1327.34,157.95 1331.49,165.753 1335.64,173.898 
  1339.79,182.371 1343.95,191.158 1348.1,200.246 1352.25,209.621 1356.4,219.269 1360.55,229.176 1364.71,239.327 1368.86,249.709 1373.01,260.306 1377.16,271.106 
  1381.31,282.095 1385.46,293.257 1389.62,304.58 1393.77,316.051 1397.92,327.655 1402.07,339.381 1406.22,351.214 1410.38,363.144 1414.53,375.158 1418.68,387.244 
  1422.83,399.392 1426.98,411.588 1431.14,423.825 1435.29,436.09 1439.44,448.374 1443.59,460.668 1447.74,472.962 1451.9,485.248 1456.05,497.518 1460.2,509.763 
  1464.35,521.976 1468.5,534.15 1472.66,546.278 1476.81,558.353 1480.96,570.37 1485.11,582.323 1489.26,594.206 1493.42,606.014 1497.57,617.744 1501.72,629.389 
  1505.87,640.947 1510.02,652.413 1514.18,663.785 1518.33,675.058 1522.48,686.23 1526.63,697.298 1530.78,708.26 1534.94,719.113 1539.09,729.856 1543.24,740.487 
  1547.39,751.004 1551.54,761.406 1555.7,771.691 1559.85,781.86 1564,791.91 1568.15,801.842 1572.3,811.654 1576.46,821.347 1580.61,830.92 1584.76,840.373 
  1588.91,849.706 1593.06,858.919 1597.22,868.013 1601.37,876.987 1605.52,885.843 1609.67,894.58 1613.82,903.199 1617.98,911.702 1622.13,920.088 1626.28,928.358 
  1630.43,936.514 1634.58,944.555 1638.74,952.484 1642.89,960.301 1647.04,968.006 1651.19,975.602 1655.34,983.09 1659.5,990.469 1663.65,997.742 1667.8,1004.91 
  1671.95,1011.97 1676.1,1018.93 1680.26,1025.79 1684.41,1032.55 1688.56,1039.21 1692.71,1045.77 1696.86,1052.24 1701.02,1058.61 1705.17,1064.88 1709.32,1071.07 
  1713.47,1077.16 1717.62,1083.16 1721.78,1089.07 1725.93,1094.9 1730.08,1100.63 1734.23,1106.29 1738.38,1111.85 1742.54,1117.34 1746.69,1122.75 1750.84,1128.07 
  1754.99,1133.32 1759.14,1138.48 1763.3,1143.57 1767.45,1148.59 1771.6,1153.53 1775.75,1158.4 1779.9,1163.2 1784.06,1167.92 1788.21,1172.58 1792.36,1177.17 
  1796.51,1181.69 1800.66,1186.14 1804.82,1190.53 1808.97,1194.86 1813.12,1199.12 1817.27,1203.32 1821.42,1207.46 1825.58,1211.53 1829.73,1215.55 1833.88,1219.51 
  1838.03,1223.42 1842.18,1227.26 1846.34,1231.06 1850.49,1234.79 1854.64,1238.48 1858.79,1242.11 1862.94,1245.69 1867.1,1249.21 1871.25,1252.69 1875.4,1256.12 
  1879.55,1259.5 1883.7,1262.84 1887.86,1266.12 1892.01,1269.36 1896.16,1272.56 1900.31,1275.71 1904.46,1278.81 1908.62,1281.87 1912.77,1284.89 1916.92,1287.87 
  1921.07,1290.81 1925.22,1293.71 1929.38,1296.56 1933.53,1299.38 1937.68,1302.16 1941.83,1304.91 1945.98,1307.61 1950.14,1310.28 1954.29,1312.91 1958.44,1315.51 
  1962.59,1318.07 1966.74,1320.6 1970.9,1323.09 1975.05,1325.55 1979.2,1327.98 1983.35,1330.38 1987.5,1332.74 1991.66,1335.08 1995.81,1337.38 1999.96,1339.65 
  2004.11,1341.9 2008.26,1344.11 2012.42,1346.3 2016.57,1348.46 2020.72,1350.59 2024.87,1352.69 2029.02,1354.76 2033.18,1356.81 2037.33,1358.84 2041.48,1360.83 
  2045.63,1362.81 2049.78,1364.75 2053.94,1366.68 2058.09,1368.57 2062.24,1370.45 2066.39,1372.3 2070.54,1374.13 2074.7,1375.94 2078.85,1377.72 2083,1379.48 
  2087.15,1381.22 2091.3,1382.94 2095.46,1384.64 2099.61,1386.32 2103.76,1387.98 2107.91,1389.61 2112.06,1391.23 2116.22,1392.83 2120.37,1394.41 2124.52,1395.97 
  2128.67,1397.51 2132.82,1399.03 2136.98,1400.54 2141.13,1402.03 2145.28,1403.5 2149.43,1404.95 2153.58,1406.39 2157.74,1407.81 2161.89,1409.21 2166.04,1410.6 
  2170.19,1411.97 2174.34,1413.32 2178.5,1414.66 2182.65,1415.99 2186.8,1417.3 2190.95,1418.59 2195.1,1419.87 2199.26,1421.14 2203.41,1422.39 2207.56,1423.63 
  2211.71,1424.85 2215.86,1426.06 2220.02,1427.26 2224.17,1428.44 2228.32,1429.61 2232.47,1430.77 2236.62,1431.91 2240.78,1433.04 2244.93,1434.16 2249.08,1435.27 
  2253.23,1436.37 2257.38,1437.45 2261.54,1438.52 2265.69,1439.58 2269.84,1440.63 2273.99,1441.67 2278.14,1442.7 2282.3,1443.71 2286.45,1444.72 2290.6,1445.71 
  
  "/>
<polyline clip-path="url(#clip732)" style="stroke:#e26f46; stroke-linecap:butt; stroke-linejoin:round; stroke-width:16; stroke-opacity:1; fill:none" points="
  218.754,1445.72 222.906,1426.47 227.058,1413.15 231.21,1404.55 235.362,1399.63 239.514,1397.53 243.666,1397.53 247.818,1399.03 251.97,1401.55 256.122,1404.69 
  260.274,1408.15 264.426,1411.67 268.578,1415.08 272.73,1418.22 276.882,1421.01 281.034,1423.38 285.186,1425.29 289.338,1426.73 293.49,1427.7 297.642,1428.22 
  301.794,1428.3 305.946,1428 310.098,1427.33 314.25,1426.34 318.402,1425.08 322.554,1423.59 326.706,1421.9 330.858,1420.06 335.01,1418.1 339.162,1416.05 
  343.314,1413.95 347.466,1411.81 351.618,1409.67 355.77,1407.54 359.922,1405.43 364.074,1403.37 368.226,1401.35 372.378,1399.38 376.53,1397.48 380.682,1395.64 
  384.834,1393.85 388.986,1392.13 393.138,1390.46 397.29,1388.84 401.442,1387.26 405.594,1385.72 409.746,1384.21 413.898,1382.72 418.05,1381.24 422.202,1379.77 
  426.354,1378.3 430.506,1376.83 434.658,1375.33 438.81,1373.81 442.962,1372.27 447.114,1370.69 451.266,1369.07 455.418,1367.4 459.57,1365.69 463.722,1363.93 
  467.874,1362.11 472.026,1360.24 476.177,1358.31 480.329,1356.33 484.481,1354.28 488.633,1352.18 492.785,1350.03 496.937,1347.82 501.089,1345.55 505.241,1343.24 
  509.393,1340.87 513.545,1338.46 517.697,1336 521.849,1333.5 526.001,1330.95 530.153,1328.37 534.305,1325.76 538.457,1323.11 542.609,1320.43 546.761,1317.73 
  550.913,1314.99 555.065,1312.23 559.217,1309.45 563.369,1306.64 567.521,1303.82 571.673,1300.97 575.825,1298.1 579.977,1295.22 584.129,1292.31 588.281,1289.38 
  592.433,1286.44 596.585,1283.47 600.737,1280.47 604.889,1277.46 609.041,1274.41 613.193,1271.34 617.345,1268.24 621.497,1265.11 625.649,1261.95 629.801,1258.74 
  633.953,1255.5 638.105,1252.22 642.257,1248.89 646.409,1245.52 650.561,1242.1 654.713,1238.62 658.865,1235.1 663.017,1231.51 667.169,1227.86 671.321,1224.16 
  675.473,1220.38 679.625,1216.54 683.777,1212.63 687.929,1208.65 692.081,1204.6 696.233,1200.47 700.385,1196.26 704.537,1191.98 708.689,1187.61 712.841,1183.17 
  716.993,1178.64 721.145,1174.03 725.297,1169.34 729.449,1164.56 733.601,1159.69 737.753,1154.74 741.905,1149.71 746.057,1144.59 750.209,1139.38 754.361,1134.08 
  758.513,1128.71 762.665,1123.24 766.817,1117.69 770.969,1112.05 775.121,1106.33 779.273,1100.52 783.425,1094.63 787.577,1088.65 791.729,1082.59 795.881,1076.45 
  800.033,1070.22 804.185,1063.9 808.337,1057.5 812.489,1051.02 816.641,1044.46 820.793,1037.8 824.945,1031.07 829.097,1024.25 833.249,1017.34 837.401,1010.34 
  841.553,1003.26 845.705,996.089 849.857,988.827 854.009,981.474 858.161,974.029 862.313,966.49 866.465,958.856 870.617,951.125 874.769,943.295 878.921,935.364 
  883.073,927.331 887.225,919.194 891.377,910.95 895.529,902.598 899.681,894.136 903.833,885.562 907.985,876.873 912.137,868.068 916.289,859.144 920.441,850.101 
  924.593,840.936 928.745,831.647 932.897,822.234 937.049,812.694 941.201,803.027 945.353,793.231 949.505,783.306 953.657,773.251 957.809,763.067 961.961,752.752 
  966.113,742.307 970.265,731.733 974.417,721.03 978.569,710.201 982.721,699.246 986.873,688.167 991.025,676.967 995.177,665.648 999.329,654.214 1003.48,642.669 
  1007.63,631.016 1011.79,619.259 1015.94,607.404 1020.09,595.456 1024.24,583.421 1028.39,571.304 1032.55,559.114 1036.7,546.856 1040.85,534.539 1045,522.17 
  1049.15,509.759 1053.31,497.313 1057.46,484.843 1061.61,472.357 1065.76,459.867 1069.91,447.383 1074.07,434.915 1078.22,422.476 1082.37,410.075 1086.52,397.726 
  1090.67,385.441 1094.83,373.231 1098.98,361.11 1103.13,349.09 1107.28,337.185 1111.43,325.408 1115.59,313.771 1119.74,302.29 1123.89,290.976 1128.04,279.844 
  1132.19,268.907 1136.35,258.179 1140.5,247.673 1144.65,237.403 1148.8,227.381 1152.95,217.622 1157.11,208.137 1161.26,198.94 1165.41,190.044 1169.56,181.459 
  1173.71,173.199 1177.87,165.275 1182.02,157.697 1186.17,150.478 1190.32,143.626 1194.47,137.152 1198.63,131.065 1202.78,125.375 1206.93,120.089 1211.08,115.215 
  1215.23,110.76 1219.39,106.732 1223.54,103.136 1227.69,99.9777 1231.84,97.2615 1235.99,94.9917 1240.15,93.1717 1244.3,91.8043 1248.45,90.8915 1252.6,90.4348 
  1256.75,90.4348 1260.91,90.8915 1265.06,91.8043 1269.21,93.1717 1273.36,94.9917 1277.51,97.2615 1281.67,99.9777 1285.82,103.136 1289.97,106.732 1294.12,110.76 
  1298.27,115.215 1302.43,120.089 1306.58,125.375 1310.73,131.065 1314.88,137.152 1319.03,143.626 1323.19,150.478 1327.34,157.697 1331.49,165.275 1335.64,173.199 
  1339.79,181.459 1343.95,190.044 1348.1,198.94 1352.25,208.137 1356.4,217.622 1360.55,227.381 1364.71,237.403 1368.86,247.673 1373.01,258.179 1377.16,268.907 
  1381.31,279.844 1385.46,290.976 1389.62,302.29 1393.77,313.771 1397.92,325.408 1402.07,337.185 1406.22,349.09 1410.38,361.11 1414.53,373.231 1418.68,385.441 
  1422.83,397.726 1426.98,410.075 1431.14,422.476 1435.29,434.915 1439.44,447.383 1443.59,459.867 1447.74,472.357 1451.9,484.843 1456.05,497.313 1460.2,509.759 
  1464.35,522.17 1468.5,534.539 1472.66,546.856 1476.81,559.114 1480.96,571.304 1485.11,583.421 1489.26,595.456 1493.42,607.404 1497.57,619.259 1501.72,631.016 
  1505.87,642.669 1510.02,654.214 1514.18,665.648 1518.33,676.967 1522.48,688.167 1526.63,699.246 1530.78,710.201 1534.94,721.03 1539.09,731.733 1543.24,742.307 
  1547.39,752.752 1551.54,763.067 1555.7,773.251 1559.85,783.306 1564,793.231 1568.15,803.027 1572.3,812.694 1576.46,822.234 1580.61,831.647 1584.76,840.936 
  1588.91,850.101 1593.06,859.144 1597.22,868.068 1601.37,876.873 1605.52,885.562 1609.67,894.136 1613.82,902.598 1617.98,910.95 1622.13,919.194 1626.28,927.331 
  1630.43,935.364 1634.58,943.295 1638.74,951.125 1642.89,958.856 1647.04,966.49 1651.19,974.029 1655.34,981.474 1659.5,988.827 1663.65,996.089 1667.8,1003.26 
  1671.95,1010.34 1676.1,1017.34 1680.26,1024.25 1684.41,1031.07 1688.56,1037.8 1692.71,1044.46 1696.86,1051.02 1701.02,1057.5 1705.17,1063.9 1709.32,1070.22 
  1713.47,1076.45 1717.62,1082.59 1721.78,1088.65 1725.93,1094.63 1730.08,1100.52 1734.23,1106.33 1738.38,1112.05 1742.54,1117.69 1746.69,1123.24 1750.84,1128.71 
  1754.99,1134.08 1759.14,1139.38 1763.3,1144.59 1767.45,1149.71 1771.6,1154.74 1775.75,1159.69 1779.9,1164.56 1784.06,1169.34 1788.21,1174.03 1792.36,1178.64 
  1796.51,1183.17 1800.66,1187.61 1804.82,1191.98 1808.97,1196.26 1813.12,1200.47 1817.27,1204.6 1821.42,1208.65 1825.58,1212.63 1829.73,1216.54 1833.88,1220.38 
  1838.03,1224.16 1842.18,1227.86 1846.34,1231.51 1850.49,1235.1 1854.64,1238.62 1858.79,1242.1 1862.94,1245.52 1867.1,1248.89 1871.25,1252.22 1875.4,1255.5 
  1879.55,1258.74 1883.7,1261.95 1887.86,1265.11 1892.01,1268.24 1896.16,1271.34 1900.31,1274.41 1904.46,1277.46 1908.62,1280.47 1912.77,1283.47 1916.92,1286.44 
  1921.07,1289.38 1925.22,1292.31 1929.38,1295.22 1933.53,1298.1 1937.68,1300.97 1941.83,1303.82 1945.98,1306.64 1950.14,1309.45 1954.29,1312.23 1958.44,1314.99 
  1962.59,1317.73 1966.74,1320.43 1970.9,1323.11 1975.05,1325.76 1979.2,1328.37 1983.35,1330.95 1987.5,1333.5 1991.66,1336 1995.81,1338.46 1999.96,1340.87 
  2004.11,1343.24 2008.26,1345.55 2012.42,1347.82 2016.57,1350.03 2020.72,1352.18 2024.87,1354.28 2029.02,1356.33 2033.18,1358.31 2037.33,1360.24 2041.48,1362.11 
  2045.63,1363.93 2049.78,1365.69 2053.94,1367.4 2058.09,1369.07 2062.24,1370.69 2066.39,1372.27 2070.54,1373.81 2074.7,1375.33 2078.85,1376.83 2083,1378.3 
  2087.15,1379.77 2091.3,1381.24 2095.46,1382.72 2099.61,1384.21 2103.76,1385.72 2107.91,1387.26 2112.06,1388.84 2116.22,1390.46 2120.37,1392.13 2124.52,1393.85 
  2128.67,1395.64 2132.82,1397.48 2136.98,1399.38 2141.13,1401.35 2145.28,1403.37 2149.43,1405.43 2153.58,1407.54 2157.74,1409.67 2161.89,1411.81 2166.04,1413.95 
  2170.19,1416.05 2174.34,1418.1 2178.5,1420.06 2182.65,1421.9 2186.8,1423.59 2190.95,1425.08 2195.1,1426.34 2199.26,1427.33 2203.41,1428 2207.56,1428.3 
  2211.71,1428.22 2215.86,1427.7 2220.02,1426.73 2224.17,1425.29 2228.32,1423.38 2232.47,1421.01 2236.62,1418.22 2240.78,1415.08 2244.93,1411.67 2249.08,1408.15 
  2253.23,1404.69 2257.38,1401.55 2261.54,1399.03 2265.69,1397.53 2269.84,1397.53 2273.99,1399.63 2278.14,1404.55 2282.3,1413.15 2286.45,1426.47 2290.6,1445.72 
  
  "/>
<circle clip-path="url(#clip732)" cx="218.754" cy="1445.71" r="14" fill="#3da44d" fill-rule="evenodd" fill-opacity="1" stroke="#000000" stroke-opacity="1" stroke-width="3.2"/>
<circle clip-path="url(#clip732)" cx="290.197" cy="1427.01" r="14" fill="#3da44d" fill-rule="evenodd" fill-opacity="1" stroke="#000000" stroke-opacity="1" stroke-width="3.2"/>
<circle clip-path="url(#clip732)" cx="361.64" cy="1404.35" r="14" fill="#3da44d" fill-rule="evenodd" fill-opacity="1" stroke="#000000" stroke-opacity="1" stroke-width="3.2"/>
<circle clip-path="url(#clip732)" cx="433.083" cy="1376.62" r="14" fill="#3da44d" fill-rule="evenodd" fill-opacity="1" stroke="#000000" stroke-opacity="1" stroke-width="3.2"/>
<circle clip-path="url(#clip732)" cx="504.526" cy="1342.28" r="14" fill="#3da44d" fill-rule="evenodd" fill-opacity="1" stroke="#000000" stroke-opacity="1" stroke-width="3.2"/>
<circle clip-path="url(#clip732)" cx="575.969" cy="1299.29" r="14" fill="#3da44d" fill-rule="evenodd" fill-opacity="1" stroke="#000000" stroke-opacity="1" stroke-width="3.2"/>
<circle clip-path="url(#clip732)" cx="647.412" cy="1244.83" r="14" fill="#3da44d" fill-rule="evenodd" fill-opacity="1" stroke="#000000" stroke-opacity="1" stroke-width="3.2"/>
<circle clip-path="url(#clip732)" cx="718.855" cy="1175.12" r="14" fill="#3da44d" fill-rule="evenodd" fill-opacity="1" stroke="#000000" stroke-opacity="1" stroke-width="3.2"/>
<circle clip-path="url(#clip732)" cx="790.298" cy="1085.21" r="14" fill="#3da44d" fill-rule="evenodd" fill-opacity="1" stroke="#000000" stroke-opacity="1" stroke-width="3.2"/>
<circle clip-path="url(#clip732)" cx="861.741" cy="969.061" r="14" fill="#3da44d" fill-rule="evenodd" fill-opacity="1" stroke="#000000" stroke-opacity="1" stroke-width="3.2"/>
<circle clip-path="url(#clip732)" cx="933.184" cy="820.682" r="14" fill="#3da44d" fill-rule="evenodd" fill-opacity="1" stroke="#000000" stroke-opacity="1" stroke-width="3.2"/>
<circle clip-path="url(#clip732)" cx="1004.63" cy="637.768" r="14" fill="#3da44d" fill-rule="evenodd" fill-opacity="1" stroke="#000000" stroke-opacity="1" stroke-width="3.2"/>
<circle clip-path="url(#clip732)" cx="1076.07" cy="430.166" r="14" fill="#3da44d" fill-rule="evenodd" fill-opacity="1" stroke="#000000" stroke-opacity="1" stroke-width="3.2"/>
<circle clip-path="url(#clip732)" cx="1147.51" cy="232.301" r="14" fill="#3da44d" fill-rule="evenodd" fill-opacity="1" stroke="#000000" stroke-opacity="1" stroke-width="3.2"/>
<circle clip-path="url(#clip732)" cx="1218.96" cy="105.467" r="14" fill="#3da44d" fill-rule="evenodd" fill-opacity="1" stroke="#000000" stroke-opacity="1" stroke-width="3.2"/>
<circle clip-path="url(#clip732)" cx="1290.4" cy="105.467" r="14" fill="#3da44d" fill-rule="evenodd" fill-opacity="1" stroke="#000000" stroke-opacity="1" stroke-width="3.2"/>
<circle clip-path="url(#clip732)" cx="1361.84" cy="232.301" r="14" fill="#3da44d" fill-rule="evenodd" fill-opacity="1" stroke="#000000" stroke-opacity="1" stroke-width="3.2"/>
<circle clip-path="url(#clip732)" cx="1433.28" cy="430.166" r="14" fill="#3da44d" fill-rule="evenodd" fill-opacity="1" stroke="#000000" stroke-opacity="1" stroke-width="3.2"/>
<circle clip-path="url(#clip732)" cx="1504.73" cy="637.768" r="14" fill="#3da44d" fill-rule="evenodd" fill-opacity="1" stroke="#000000" stroke-opacity="1" stroke-width="3.2"/>
<circle clip-path="url(#clip732)" cx="1576.17" cy="820.682" r="14" fill="#3da44d" fill-rule="evenodd" fill-opacity="1" stroke="#000000" stroke-opacity="1" stroke-width="3.2"/>
<circle clip-path="url(#clip732)" cx="1647.61" cy="969.061" r="14" fill="#3da44d" fill-rule="evenodd" fill-opacity="1" stroke="#000000" stroke-opacity="1" stroke-width="3.2"/>
<circle clip-path="url(#clip732)" cx="1719.06" cy="1085.21" r="14" fill="#3da44d" fill-rule="evenodd" fill-opacity="1" stroke="#000000" stroke-opacity="1" stroke-width="3.2"/>
<circle clip-path="url(#clip732)" cx="1790.5" cy="1175.12" r="14" fill="#3da44d" fill-rule="evenodd" fill-opacity="1" stroke="#000000" stroke-opacity="1" stroke-width="3.2"/>
<circle clip-path="url(#clip732)" cx="1861.94" cy="1244.83" r="14" fill="#3da44d" fill-rule="evenodd" fill-opacity="1" stroke="#000000" stroke-opacity="1" stroke-width="3.2"/>
<circle clip-path="url(#clip732)" cx="1933.39" cy="1299.29" r="14" fill="#3da44d" fill-rule="evenodd" fill-opacity="1" stroke="#000000" stroke-opacity="1" stroke-width="3.2"/>
<circle clip-path="url(#clip732)" cx="2004.83" cy="1342.28" r="14" fill="#3da44d" fill-rule="evenodd" fill-opacity="1" stroke="#000000" stroke-opacity="1" stroke-width="3.2"/>
<circle clip-path="url(#clip732)" cx="2076.27" cy="1376.62" r="14" fill="#3da44d" fill-rule="evenodd" fill-opacity="1" stroke="#000000" stroke-opacity="1" stroke-width="3.2"/>
<circle clip-path="url(#clip732)" cx="2147.71" cy="1404.35" r="14" fill="#3da44d" fill-rule="evenodd" fill-opacity="1" stroke="#000000" stroke-opacity="1" stroke-width="3.2"/>
<circle clip-path="url(#clip732)" cx="2219.16" cy="1427.01" r="14" fill="#3da44d" fill-rule="evenodd" fill-opacity="1" stroke="#000000" stroke-opacity="1" stroke-width="3.2"/>
<circle clip-path="url(#clip732)" cx="2290.6" cy="1445.71" r="14" fill="#3da44d" fill-rule="evenodd" fill-opacity="1" stroke="#000000" stroke-opacity="1" stroke-width="3.2"/>
<path clip-path="url(#clip730)" d="
M1956.02 406.258 L2279.55 406.258 L2279.55 95.2176 L1956.02 95.2176  Z
  " fill="#ffffff" fill-rule="evenodd" fill-opacity="1"/>
<polyline clip-path="url(#clip730)" style="stroke:#000000; stroke-linecap:butt; stroke-linejoin:round; stroke-width:4; stroke-opacity:1; fill:none" points="
  1956.02,406.258 2279.55,406.258 2279.55,95.2176 1956.02,95.2176 1956.02,406.258 
  "/>
<polyline clip-path="url(#clip730)" style="stroke:#009af9; stroke-linecap:butt; stroke-linejoin:round; stroke-width:6; stroke-opacity:1; fill:none" points="
  1980.42,172.978 2126.83,172.978 
  "/>
<path clip-path="url(#clip730)" d="M2172 202.509 Q2169.29 209.453 2166.72 211.571 Q2164.15 213.689 2159.84 213.689 L2154.74 213.689 L2154.74 208.342 L2158.49 208.342 Q2161.13 208.342 2162.59 207.092 Q2164.05 205.842 2165.82 201.189 L2166.96 198.273 L2151.23 160.009 L2158 160.009 L2170.16 190.425 L2182.31 160.009 L2189.08 160.009 L2172 202.509 Z" fill="#000000" fill-rule="evenodd" fill-opacity="1" /><path clip-path="url(#clip730)" d="M2200.02 192.995 L2211.48 192.995 L2211.48 153.446 L2199.01 155.946 L2199.01 149.558 L2211.41 147.058 L2218.42 147.058 L2218.42 192.995 L2229.88 192.995 L2229.88 198.898 L2200.02 198.898 L2200.02 192.995 Z" fill="#000000" fill-rule="evenodd" fill-opacity="1" /><polyline clip-path="url(#clip730)" style="stroke:#e26f46; stroke-linecap:butt; stroke-linejoin:round; stroke-width:6; stroke-opacity:1; fill:none" points="
  1980.42,250.738 2126.83,250.738 
  "/>
<path clip-path="url(#clip730)" d="M2172 280.269 Q2169.29 287.213 2166.72 289.331 Q2164.15 291.449 2159.84 291.449 L2154.74 291.449 L2154.74 286.102 L2158.49 286.102 Q2161.13 286.102 2162.59 284.852 Q2164.05 283.602 2165.82 278.949 L2166.96 276.033 L2151.23 237.769 L2158 237.769 L2170.16 268.185 L2182.31 237.769 L2189.08 237.769 L2172 280.269 Z" fill="#000000" fill-rule="evenodd" fill-opacity="1" /><path clip-path="url(#clip730)" d="M2204.84 270.755 L2229.32 270.755 L2229.32 276.658 L2196.41 276.658 L2196.41 270.755 Q2200.4 266.623 2207.28 259.678 Q2214.18 252.699 2215.96 250.685 Q2219.32 246.901 2220.64 244.297 Q2222 241.658 2222 239.123 Q2222 234.991 2219.08 232.387 Q2216.2 229.783 2211.55 229.783 Q2208.25 229.783 2204.57 230.929 Q2200.92 232.074 2196.75 234.401 L2196.75 227.318 Q2200.99 225.616 2204.67 224.748 Q2208.35 223.88 2211.41 223.88 Q2219.46 223.88 2224.25 227.908 Q2229.05 231.936 2229.05 238.672 Q2229.05 241.866 2227.83 244.748 Q2226.65 247.595 2223.49 251.484 Q2222.62 252.491 2217.97 257.317 Q2213.32 262.109 2204.84 270.755 Z" fill="#000000" fill-rule="evenodd" fill-opacity="1" /><circle clip-path="url(#clip730)" cx="2053.63" cy="328.498" r="34" fill="#3da44d" fill-rule="evenodd" fill-opacity="1" stroke="#000000" stroke-opacity="1" stroke-width="7.68"/>
<path clip-path="url(#clip730)" d="M2172 358.029 Q2169.29 364.973 2166.72 367.091 Q2164.15 369.209 2159.84 369.209 L2154.74 369.209 L2154.74 363.862 L2158.49 363.862 Q2161.13 363.862 2162.59 362.612 Q2164.05 361.362 2165.82 356.709 L2166.96 353.793 L2151.23 315.529 L2158 315.529 L2170.16 345.945 L2182.31 315.529 L2189.08 315.529 L2172 358.029 Z" fill="#000000" fill-rule="evenodd" fill-opacity="1" /><path clip-path="url(#clip730)" d="M2220.05 326.466 Q2225.09 327.543 2227.9 330.945 Q2230.75 334.348 2230.75 339.348 Q2230.75 347.022 2225.47 351.223 Q2220.19 355.424 2210.47 355.424 Q2207.21 355.424 2203.73 354.765 Q2200.3 354.14 2196.62 352.855 L2196.62 346.084 Q2199.53 347.786 2203 348.654 Q2206.48 349.522 2210.26 349.522 Q2216.86 349.522 2220.3 346.918 Q2223.77 344.313 2223.77 339.348 Q2223.77 334.765 2220.54 332.195 Q2217.34 329.591 2211.62 329.591 L2205.57 329.591 L2205.57 323.827 L2211.89 323.827 Q2217.07 323.827 2219.81 321.779 Q2222.55 319.696 2222.55 315.807 Q2222.55 311.814 2219.71 309.696 Q2216.89 307.543 2211.62 307.543 Q2208.73 307.543 2205.43 308.168 Q2202.14 308.793 2198.18 310.112 L2198.18 303.862 Q2202.17 302.751 2205.64 302.196 Q2209.15 301.64 2212.24 301.64 Q2220.23 301.64 2224.88 305.286 Q2229.53 308.897 2229.53 315.077 Q2229.53 319.383 2227.07 322.369 Q2224.6 325.32 2220.05 326.466 Z" fill="#000000" fill-rule="evenodd" fill-opacity="1" /></svg>
