<?xml version="1.0" encoding="utf-8"?>
<svg xmlns="http://www.w3.org/2000/svg" xmlns:xlink="http://www.w3.org/1999/xlink" width="600" height="400" viewBox="0 0 2400 1600">
<defs>
  <clipPath id="clip080">
    <rect x="0" y="0" width="2400" height="1600"/>
  </clipPath>
</defs>
<path clip-path="url(#clip080)" d="
M0 1600 L2400 1600 L2400 0 L0 0  Z
  " fill="#ffffff" fill-rule="evenodd" fill-opacity="1"/>
<defs>
  <clipPath id="clip081">
    <rect x="480" y="0" width="1681" height="1600"/>
  </clipPath>
</defs>
<path clip-path="url(#clip080)" d="
M188.104 1486.45 L2352.76 1486.45 L2352.76 47.2441 L188.104 47.2441  Z
  " fill="#ffffff" fill-rule="evenodd" fill-opacity="1"/>
<defs>
  <clipPath id="clip082">
    <rect x="188" y="47" width="2166" height="1440"/>
  </clipPath>
</defs>
<polyline clip-path="url(#clip082)" style="stroke:#000000; stroke-linecap:butt; stroke-linejoin:round; stroke-width:2; stroke-opacity:0.1; fill:none" points="
  521.651,1486.45 521.651,47.2441 
  "/>
<polyline clip-path="url(#clip082)" style="stroke:#000000; stroke-linecap:butt; stroke-linejoin:round; stroke-width:2; stroke-opacity:0.1; fill:none" points="
  862.005,1486.45 862.005,47.2441 
  "/>
<polyline clip-path="url(#clip082)" style="stroke:#000000; stroke-linecap:butt; stroke-linejoin:round; stroke-width:2; stroke-opacity:0.1; fill:none" points="
  1202.36,1486.45 1202.36,47.2441 
  "/>
<polyline clip-path="url(#clip082)" style="stroke:#000000; stroke-linecap:butt; stroke-linejoin:round; stroke-width:2; stroke-opacity:0.1; fill:none" points="
  1542.71,1486.45 1542.71,47.2441 
  "/>
<polyline clip-path="url(#clip082)" style="stroke:#000000; stroke-linecap:butt; stroke-linejoin:round; stroke-width:2; stroke-opacity:0.1; fill:none" points="
  1883.07,1486.45 1883.07,47.2441 
  "/>
<polyline clip-path="url(#clip082)" style="stroke:#000000; stroke-linecap:butt; stroke-linejoin:round; stroke-width:2; stroke-opacity:0.1; fill:none" points="
  2223.42,1486.45 2223.42,47.2441 
  "/>
<polyline clip-path="url(#clip080)" style="stroke:#000000; stroke-linecap:butt; stroke-linejoin:round; stroke-width:4; stroke-opacity:1; fill:none" points="
  188.104,1486.45 2352.76,1486.45 
  "/>
<polyline clip-path="url(#clip080)" style="stroke:#000000; stroke-linecap:butt; stroke-linejoin:round; stroke-width:4; stroke-opacity:1; fill:none" points="
  521.651,1486.45 521.651,1467.55 
  "/>
<polyline clip-path="url(#clip080)" style="stroke:#000000; stroke-linecap:butt; stroke-linejoin:round; stroke-width:4; stroke-opacity:1; fill:none" points="
  862.005,1486.45 862.005,1467.55 
  "/>
<polyline clip-path="url(#clip080)" style="stroke:#000000; stroke-linecap:butt; stroke-linejoin:round; stroke-width:4; stroke-opacity:1; fill:none" points="
  1202.36,1486.45 1202.36,1467.55 
  "/>
<polyline clip-path="url(#clip080)" style="stroke:#000000; stroke-linecap:butt; stroke-linejoin:round; stroke-width:4; stroke-opacity:1; fill:none" points="
  1542.71,1486.45 1542.71,1467.55 
  "/>
<polyline clip-path="url(#clip080)" style="stroke:#000000; stroke-linecap:butt; stroke-linejoin:round; stroke-width:4; stroke-opacity:1; fill:none" points="
  1883.07,1486.45 1883.07,1467.55 
  "/>
<polyline clip-path="url(#clip080)" style="stroke:#000000; stroke-linecap:butt; stroke-linejoin:round; stroke-width:4; stroke-opacity:1; fill:none" points="
  2223.42,1486.45 2223.42,1467.55 
  "/>
<path clip-path="url(#clip080)" d="M511.929 1514.29 L530.285 1514.29 L530.285 1518.22 L516.211 1518.22 L516.211 1526.7 Q517.23 1526.35 518.248 1526.19 Q519.267 1526 520.285 1526 Q526.072 1526 529.452 1529.17 Q532.832 1532.34 532.832 1537.76 Q532.832 1543.34 529.359 1546.44 Q525.887 1549.52 519.568 1549.52 Q517.392 1549.52 515.123 1549.15 Q512.878 1548.78 510.471 1548.04 L510.471 1543.34 Q512.554 1544.47 514.776 1545.03 Q516.998 1545.58 519.475 1545.58 Q523.48 1545.58 525.818 1543.48 Q528.156 1541.37 528.156 1537.76 Q528.156 1534.15 525.818 1532.04 Q523.48 1529.94 519.475 1529.94 Q517.6 1529.94 515.725 1530.35 Q513.873 1530.77 511.929 1531.65 L511.929 1514.29 Z" fill="#000000" fill-rule="evenodd" fill-opacity="1" /><path clip-path="url(#clip080)" d="M836.693 1544.91 L844.332 1544.91 L844.332 1518.55 L836.022 1520.21 L836.022 1515.95 L844.285 1514.29 L848.961 1514.29 L848.961 1544.91 L856.6 1544.91 L856.6 1548.85 L836.693 1548.85 L836.693 1544.91 Z" fill="#000000" fill-rule="evenodd" fill-opacity="1" /><path clip-path="url(#clip080)" d="M876.044 1517.37 Q872.433 1517.37 870.605 1520.93 Q868.799 1524.47 868.799 1531.6 Q868.799 1538.71 870.605 1542.27 Q872.433 1545.82 876.044 1545.82 Q879.679 1545.82 881.484 1542.27 Q883.313 1538.71 883.313 1531.6 Q883.313 1524.47 881.484 1520.93 Q879.679 1517.37 876.044 1517.37 M876.044 1513.66 Q881.855 1513.66 884.91 1518.27 Q887.989 1522.85 887.989 1531.6 Q887.989 1540.33 884.91 1544.94 Q881.855 1549.52 876.044 1549.52 Q870.234 1549.52 867.156 1544.94 Q864.1 1540.33 864.1 1531.6 Q864.1 1522.85 867.156 1518.27 Q870.234 1513.66 876.044 1513.66 Z" fill="#000000" fill-rule="evenodd" fill-opacity="1" /><path clip-path="url(#clip080)" d="M1177.54 1544.91 L1185.18 1544.91 L1185.18 1518.55 L1176.87 1520.21 L1176.87 1515.95 L1185.14 1514.29 L1189.81 1514.29 L1189.81 1544.91 L1197.45 1544.91 L1197.45 1548.85 L1177.54 1548.85 L1177.54 1544.91 Z" fill="#000000" fill-rule="evenodd" fill-opacity="1" /><path clip-path="url(#clip080)" d="M1206.94 1514.29 L1225.3 1514.29 L1225.3 1518.22 L1211.22 1518.22 L1211.22 1526.7 Q1212.24 1526.35 1213.26 1526.19 Q1214.28 1526 1215.3 1526 Q1221.09 1526 1224.47 1529.17 Q1227.85 1532.34 1227.85 1537.76 Q1227.85 1543.34 1224.37 1546.44 Q1220.9 1549.52 1214.58 1549.52 Q1212.41 1549.52 1210.14 1549.15 Q1207.89 1548.78 1205.48 1548.04 L1205.48 1543.34 Q1207.57 1544.47 1209.79 1545.03 Q1212.01 1545.58 1214.49 1545.58 Q1218.49 1545.58 1220.83 1543.48 Q1223.17 1541.37 1223.17 1537.76 Q1223.17 1534.15 1220.83 1532.04 Q1218.49 1529.94 1214.49 1529.94 Q1212.61 1529.94 1210.74 1530.35 Q1208.89 1530.77 1206.94 1531.65 L1206.94 1514.29 Z" fill="#000000" fill-rule="evenodd" fill-opacity="1" /><path clip-path="url(#clip080)" d="M1521.49 1544.91 L1537.81 1544.91 L1537.81 1548.85 L1515.86 1548.85 L1515.86 1544.91 Q1518.52 1542.16 1523.11 1537.53 Q1527.71 1532.88 1528.89 1531.53 Q1531.14 1529.01 1532.02 1527.27 Q1532.92 1525.51 1532.92 1523.82 Q1532.92 1521.07 1530.98 1519.33 Q1529.06 1517.6 1525.95 1517.6 Q1523.76 1517.6 1521.3 1518.36 Q1518.87 1519.13 1516.09 1520.68 L1516.09 1515.95 Q1518.92 1514.82 1521.37 1514.24 Q1523.82 1513.66 1525.86 1513.66 Q1531.23 1513.66 1534.43 1516.35 Q1537.62 1519.03 1537.62 1523.52 Q1537.62 1525.65 1536.81 1527.57 Q1536.02 1529.47 1533.92 1532.07 Q1533.34 1532.74 1530.24 1535.95 Q1527.13 1539.15 1521.49 1544.91 Z" fill="#000000" fill-rule="evenodd" fill-opacity="1" /><path clip-path="url(#clip080)" d="M1557.62 1517.37 Q1554.01 1517.37 1552.18 1520.93 Q1550.38 1524.47 1550.38 1531.6 Q1550.38 1538.71 1552.18 1542.27 Q1554.01 1545.82 1557.62 1545.82 Q1561.25 1545.82 1563.06 1542.27 Q1564.89 1538.71 1564.89 1531.6 Q1564.89 1524.47 1563.06 1520.93 Q1561.25 1517.37 1557.62 1517.37 M1557.62 1513.66 Q1563.43 1513.66 1566.49 1518.27 Q1569.56 1522.85 1569.56 1531.6 Q1569.56 1540.33 1566.49 1544.94 Q1563.43 1549.52 1557.62 1549.52 Q1551.81 1549.52 1548.73 1544.94 Q1545.68 1540.33 1545.68 1531.6 Q1545.68 1522.85 1548.73 1518.27 Q1551.81 1513.66 1557.62 1513.66 Z" fill="#000000" fill-rule="evenodd" fill-opacity="1" /><path clip-path="url(#clip080)" d="M1862.34 1544.91 L1878.66 1544.91 L1878.66 1548.85 L1856.71 1548.85 L1856.71 1544.91 Q1859.38 1542.16 1863.96 1537.53 Q1868.57 1532.88 1869.75 1531.53 Q1871.99 1529.01 1872.87 1527.27 Q1873.77 1525.51 1873.77 1523.82 Q1873.77 1521.07 1871.83 1519.33 Q1869.91 1517.6 1866.81 1517.6 Q1864.61 1517.6 1862.15 1518.36 Q1859.72 1519.13 1856.94 1520.68 L1856.94 1515.95 Q1859.77 1514.82 1862.22 1514.24 Q1864.68 1513.66 1866.71 1513.66 Q1872.08 1513.66 1875.28 1516.35 Q1878.47 1519.03 1878.47 1523.52 Q1878.47 1525.65 1877.66 1527.57 Q1876.88 1529.47 1874.77 1532.07 Q1874.19 1532.74 1871.09 1535.95 Q1867.99 1539.15 1862.34 1544.91 Z" fill="#000000" fill-rule="evenodd" fill-opacity="1" /><path clip-path="url(#clip080)" d="M1888.52 1514.29 L1906.88 1514.29 L1906.88 1518.22 L1892.8 1518.22 L1892.8 1526.7 Q1893.82 1526.35 1894.84 1526.19 Q1895.86 1526 1896.88 1526 Q1902.66 1526 1906.04 1529.17 Q1909.42 1532.34 1909.42 1537.76 Q1909.42 1543.34 1905.95 1546.44 Q1902.48 1549.52 1896.16 1549.52 Q1893.98 1549.52 1891.71 1549.15 Q1889.47 1548.78 1887.06 1548.04 L1887.06 1543.34 Q1889.14 1544.47 1891.37 1545.03 Q1893.59 1545.58 1896.06 1545.58 Q1900.07 1545.58 1902.41 1543.48 Q1904.75 1541.37 1904.75 1537.76 Q1904.75 1534.15 1902.41 1532.04 Q1900.07 1529.94 1896.06 1529.94 Q1894.19 1529.94 1892.31 1530.35 Q1890.46 1530.77 1888.52 1531.65 L1888.52 1514.29 Z" fill="#000000" fill-rule="evenodd" fill-opacity="1" /><path clip-path="url(#clip080)" d="M2212.26 1530.21 Q2215.62 1530.93 2217.5 1533.2 Q2219.39 1535.47 2219.39 1538.8 Q2219.39 1543.92 2215.88 1546.72 Q2212.36 1549.52 2205.88 1549.52 Q2203.7 1549.52 2201.38 1549.08 Q2199.09 1548.66 2196.64 1547.81 L2196.64 1543.29 Q2198.58 1544.43 2200.9 1545.01 Q2203.21 1545.58 2205.74 1545.58 Q2210.13 1545.58 2212.43 1543.85 Q2214.74 1542.11 2214.74 1538.8 Q2214.74 1535.75 2212.59 1534.03 Q2210.46 1532.3 2206.64 1532.3 L2202.61 1532.3 L2202.61 1528.45 L2206.82 1528.45 Q2210.27 1528.45 2212.1 1527.09 Q2213.93 1525.7 2213.93 1523.11 Q2213.93 1520.45 2212.03 1519.03 Q2210.16 1517.6 2206.64 1517.6 Q2204.72 1517.6 2202.52 1518.01 Q2200.32 1518.43 2197.68 1519.31 L2197.68 1515.14 Q2200.34 1514.4 2202.66 1514.03 Q2205 1513.66 2207.06 1513.66 Q2212.38 1513.66 2215.48 1516.09 Q2218.58 1518.5 2218.58 1522.62 Q2218.58 1525.49 2216.94 1527.48 Q2215.3 1529.45 2212.26 1530.21 Z" fill="#000000" fill-rule="evenodd" fill-opacity="1" /><path clip-path="url(#clip080)" d="M2238.26 1517.37 Q2234.65 1517.37 2232.82 1520.93 Q2231.01 1524.47 2231.01 1531.6 Q2231.01 1538.71 2232.82 1542.27 Q2234.65 1545.82 2238.26 1545.82 Q2241.89 1545.82 2243.7 1542.27 Q2245.53 1538.71 2245.53 1531.6 Q2245.53 1524.47 2243.7 1520.93 Q2241.89 1517.37 2238.26 1517.37 M2238.26 1513.66 Q2244.07 1513.66 2247.12 1518.27 Q2250.2 1522.85 2250.2 1531.6 Q2250.2 1540.33 2247.12 1544.94 Q2244.07 1549.52 2238.26 1549.52 Q2232.45 1549.52 2229.37 1544.94 Q2226.31 1540.33 2226.31 1531.6 Q2226.31 1522.85 2229.37 1518.27 Q2232.45 1513.66 2238.26 1513.66 Z" fill="#000000" fill-rule="evenodd" fill-opacity="1" /><polyline clip-path="url(#clip082)" style="stroke:#000000; stroke-linecap:butt; stroke-linejoin:round; stroke-width:2; stroke-opacity:0.1; fill:none" points="
  188.104,1022 2352.76,1022 
  "/>
<polyline clip-path="url(#clip082)" style="stroke:#000000; stroke-linecap:butt; stroke-linejoin:round; stroke-width:2; stroke-opacity:0.1; fill:none" points="
  188.104,554.987 2352.76,554.987 
  "/>
<polyline clip-path="url(#clip082)" style="stroke:#000000; stroke-linecap:butt; stroke-linejoin:round; stroke-width:2; stroke-opacity:0.1; fill:none" points="
  188.104,87.9763 2352.76,87.9763 
  "/>
<polyline clip-path="url(#clip080)" style="stroke:#000000; stroke-linecap:butt; stroke-linejoin:round; stroke-width:4; stroke-opacity:1; fill:none" points="
  188.104,1486.45 188.104,47.2441 
  "/>
<polyline clip-path="url(#clip080)" style="stroke:#000000; stroke-linecap:butt; stroke-linejoin:round; stroke-width:4; stroke-opacity:1; fill:none" points="
  188.104,1022 207.002,1022 
  "/>
<polyline clip-path="url(#clip080)" style="stroke:#000000; stroke-linecap:butt; stroke-linejoin:round; stroke-width:4; stroke-opacity:1; fill:none" points="
  188.104,554.987 207.002,554.987 
  "/>
<polyline clip-path="url(#clip080)" style="stroke:#000000; stroke-linecap:butt; stroke-linejoin:round; stroke-width:4; stroke-opacity:1; fill:none" points="
  188.104,87.9763 207.002,87.9763 
  "/>
<path clip-path="url(#clip080)" d="M51.9643 1041.79 L59.6032 1041.79 L59.6032 1015.42 L51.2931 1017.09 L51.2931 1012.83 L59.5569 1011.16 L64.2328 1011.16 L64.2328 1041.79 L71.8716 1041.79 L71.8716 1045.72 L51.9643 1045.72 L51.9643 1041.79 Z" fill="#000000" fill-rule="evenodd" fill-opacity="1" /><path clip-path="url(#clip080)" d="M91.316 1014.24 Q87.7049 1014.24 85.8762 1017.81 Q84.0707 1021.35 84.0707 1028.48 Q84.0707 1035.59 85.8762 1039.15 Q87.7049 1042.69 91.316 1042.69 Q94.9502 1042.69 96.7558 1039.15 Q98.5845 1035.59 98.5845 1028.48 Q98.5845 1021.35 96.7558 1017.81 Q94.9502 1014.24 91.316 1014.24 M91.316 1010.54 Q97.1261 1010.54 100.182 1015.15 Q103.26 1019.73 103.26 1028.48 Q103.26 1037.21 100.182 1041.81 Q97.1261 1046.4 91.316 1046.4 Q85.5058 1046.4 82.4271 1041.81 Q79.3716 1037.21 79.3716 1028.48 Q79.3716 1019.73 82.4271 1015.15 Q85.5058 1010.54 91.316 1010.54 Z" fill="#000000" fill-rule="evenodd" fill-opacity="1" /><path clip-path="url(#clip080)" d="M103.26 1004.64 L127.372 1004.64 L127.372 1007.84 L103.26 1007.84 L103.26 1004.64 Z" fill="#000000" fill-rule="evenodd" fill-opacity="1" /><path clip-path="url(#clip080)" d="M138.845 1015.12 L152.104 1015.12 L152.104 1018.31 L134.274 1018.31 L134.274 1015.12 Q136.437 1012.88 140.161 1009.12 Q143.904 1005.34 144.863 1004.25 Q146.688 1002.2 147.402 1000.79 Q148.136 999.356 148.136 997.983 Q148.136 995.745 146.556 994.334 Q144.995 992.924 142.475 992.924 Q140.688 992.924 138.694 993.544 Q136.719 994.165 134.462 995.425 L134.462 991.588 Q136.757 990.667 138.751 990.197 Q140.744 989.726 142.399 989.726 Q146.763 989.726 149.358 991.908 Q151.954 994.09 151.954 997.739 Q151.954 999.469 151.295 1001.03 Q150.656 1002.57 148.944 1004.68 Q148.474 1005.22 145.954 1007.84 Q143.434 1010.43 138.845 1015.12 Z" fill="#000000" fill-rule="evenodd" fill-opacity="1" /><path clip-path="url(#clip080)" d="M51.6634 574.779 L59.3023 574.779 L59.3023 548.413 L50.9921 550.08 L50.9921 545.821 L59.256 544.154 L63.9319 544.154 L63.9319 574.779 L71.5707 574.779 L71.5707 578.714 L51.6634 578.714 L51.6634 574.779 Z" fill="#000000" fill-rule="evenodd" fill-opacity="1" /><path clip-path="url(#clip080)" d="M91.0151 547.233 Q87.404 547.233 85.5753 550.798 Q83.7697 554.339 83.7697 561.469 Q83.7697 568.575 85.5753 572.14 Q87.404 575.682 91.0151 575.682 Q94.6493 575.682 96.4548 572.14 Q98.2835 568.575 98.2835 561.469 Q98.2835 554.339 96.4548 550.798 Q94.6493 547.233 91.0151 547.233 M91.0151 543.529 Q96.8252 543.529 99.8808 548.136 Q102.959 552.719 102.959 561.469 Q102.959 570.196 99.8808 574.802 Q96.8252 579.386 91.0151 579.386 Q85.2049 579.386 82.1262 574.802 Q79.0707 570.196 79.0707 561.469 Q79.0707 552.719 82.1262 548.136 Q85.2049 543.529 91.0151 543.529 Z" fill="#000000" fill-rule="evenodd" fill-opacity="1" /><path clip-path="url(#clip080)" d="M102.959 537.631 L127.071 537.631 L127.071 540.828 L102.959 540.828 L102.959 537.631 Z" fill="#000000" fill-rule="evenodd" fill-opacity="1" /><path clip-path="url(#clip080)" d="M135.929 548.107 L142.136 548.107 L142.136 526.684 L135.384 528.039 L135.384 524.578 L142.098 523.224 L145.898 523.224 L145.898 548.107 L152.104 548.107 L152.104 551.304 L135.929 551.304 L135.929 548.107 Z" fill="#000000" fill-rule="evenodd" fill-opacity="1" /><path clip-path="url(#clip080)" d="M81.3985 107.769 L89.0374 107.769 L89.0374 81.4031 L80.7272 83.0698 L80.7272 78.8105 L88.9911 77.1439 L93.667 77.1439 L93.667 107.769 L101.306 107.769 L101.306 111.704 L81.3985 111.704 L81.3985 107.769 Z" fill="#000000" fill-rule="evenodd" fill-opacity="1" /><path clip-path="url(#clip080)" d="M120.75 80.2226 Q117.139 80.2226 115.31 83.7874 Q113.505 87.329 113.505 94.4586 Q113.505 101.565 115.31 105.13 Q117.139 108.671 120.75 108.671 Q124.384 108.671 126.19 105.13 Q128.019 101.565 128.019 94.4586 Q128.019 87.329 126.19 83.7874 Q124.384 80.2226 120.75 80.2226 M120.75 76.5189 Q126.56 76.5189 129.616 81.1253 Q132.695 85.7086 132.695 94.4586 Q132.695 103.185 129.616 107.792 Q126.56 112.375 120.75 112.375 Q114.94 112.375 111.861 107.792 Q108.806 103.185 108.806 94.4586 Q108.806 85.7086 111.861 81.1253 Q114.94 76.5189 120.75 76.5189 Z" fill="#000000" fill-rule="evenodd" fill-opacity="1" /><path clip-path="url(#clip080)" d="M142.399 58.7149 Q139.465 58.7149 137.98 61.6113 Q136.513 64.4889 136.513 70.2817 Q136.513 76.0557 137.98 78.9521 Q139.465 81.8297 142.399 81.8297 Q145.352 81.8297 146.819 78.9521 Q148.305 76.0557 148.305 70.2817 Q148.305 64.4889 146.819 61.6113 Q145.352 58.7149 142.399 58.7149 M142.399 55.7057 Q147.12 55.7057 149.603 59.4484 Q152.104 63.1724 152.104 70.2817 Q152.104 77.3722 149.603 81.115 Q147.12 84.8389 142.399 84.8389 Q137.679 84.8389 135.177 81.115 Q132.695 77.3722 132.695 70.2817 Q132.695 63.1724 135.177 59.4484 Q137.679 55.7057 142.399 55.7057 Z" fill="#000000" fill-rule="evenodd" fill-opacity="1" /><polyline clip-path="url(#clip082)" style="stroke:#009af9; stroke-linecap:butt; stroke-linejoin:round; stroke-width:16; stroke-opacity:1; fill:none" points="
  249.368,87.9763 317.439,133.234 385.509,178.492 453.58,223.75 521.651,269.008 589.722,314.266 657.793,359.524 725.864,404.782 793.934,450.04 862.005,495.298 
  930.076,540.556 998.147,585.814 1066.22,631.072 1134.29,676.33 1202.36,721.588 1270.43,766.846 1338.5,812.104 1406.57,857.362 1474.64,902.62 1542.71,947.878 
  1610.78,993.136 1678.85,1038.39 1746.93,1083.65 1815,1128.91 1883.07,1174.17 1951.14,1219.43 2019.21,1264.68 2087.28,1309.94 2155.35,1355.2 2223.42,1400.46 
  2291.49,1445.72 
  "/>
<path clip-path="url(#clip080)" d="
M1987.65 198.898 L2280.6 198.898 L2280.6 95.2176 L1987.65 95.2176  Z
  " fill="#ffffff" fill-rule="evenodd" fill-opacity="1"/>
<polyline clip-path="url(#clip080)" style="stroke:#000000; stroke-linecap:butt; stroke-linejoin:round; stroke-width:4; stroke-opacity:1; fill:none" points="
  1987.65,198.898 2280.6,198.898 2280.6,95.2176 1987.65,95.2176 1987.65,198.898 
  "/>
<polyline clip-path="url(#clip080)" style="stroke:#009af9; stroke-linecap:butt; stroke-linejoin:round; stroke-width:4; stroke-opacity:1; fill:none" points="
  2011.71,147.058 2156.02,147.058 
  "/>
<path clip-path="url(#clip080)" d="M2193.91 166.745 Q2192.1 171.375 2190.39 172.787 Q2188.68 174.199 2185.81 174.199 L2182.41 174.199 L2182.41 170.634 L2184.91 170.634 Q2186.66 170.634 2187.64 169.8 Q2188.61 168.967 2189.79 165.865 L2190.55 163.921 L2180.07 138.412 L2184.58 138.412 L2192.68 158.689 L2200.78 138.412 L2205.3 138.412 L2193.91 166.745 Z" fill="#000000" fill-rule="evenodd" fill-opacity="1" /><path clip-path="url(#clip080)" d="M2212.59 160.402 L2220.23 160.402 L2220.23 134.037 L2211.92 135.703 L2211.92 131.444 L2220.18 129.778 L2224.86 129.778 L2224.86 160.402 L2232.5 160.402 L2232.5 164.338 L2212.59 164.338 L2212.59 160.402 Z" fill="#000000" fill-rule="evenodd" fill-opacity="1" /></svg>
