<?xml version="1.0" encoding="utf-8"?>
<svg xmlns="http://www.w3.org/2000/svg" xmlns:xlink="http://www.w3.org/1999/xlink" width="600" height="400" viewBox="0 0 2400 1600">
<defs>
  <clipPath id="clip250">
    <rect x="0" y="0" width="2400" height="1600"/>
  </clipPath>
</defs>
<path clip-path="url(#clip250)" d="
M0 1600 L2400 1600 L2400 0 L0 0  Z
  " fill="#ffffff" fill-rule="evenodd" fill-opacity="1"/>
<defs>
  <clipPath id="clip251">
    <rect x="480" y="0" width="1681" height="1600"/>
  </clipPath>
</defs>
<path clip-path="url(#clip250)" d="
M193.822 1486.45 L2352.76 1486.45 L2352.76 47.2441 L193.822 47.2441  Z
  " fill="#ffffff" fill-rule="evenodd" fill-opacity="1"/>
<defs>
  <clipPath id="clip252">
    <rect x="193" y="47" width="2160" height="1440"/>
  </clipPath>
</defs>
<polyline clip-path="url(#clip252)" style="stroke:#000000; stroke-linecap:butt; stroke-linejoin:round; stroke-width:2; stroke-opacity:0.1; fill:none" points="
  250.85,1486.45 250.85,47.2441 
  "/>
<polyline clip-path="url(#clip252)" style="stroke:#000000; stroke-linecap:butt; stroke-linejoin:round; stroke-width:2; stroke-opacity:0.1; fill:none" points="
  658.196,1486.45 658.196,47.2441 
  "/>
<polyline clip-path="url(#clip252)" style="stroke:#000000; stroke-linecap:butt; stroke-linejoin:round; stroke-width:2; stroke-opacity:0.1; fill:none" points="
  1065.54,1486.45 1065.54,47.2441 
  "/>
<polyline clip-path="url(#clip252)" style="stroke:#000000; stroke-linecap:butt; stroke-linejoin:round; stroke-width:2; stroke-opacity:0.1; fill:none" points="
  1472.89,1486.45 1472.89,47.2441 
  "/>
<polyline clip-path="url(#clip252)" style="stroke:#000000; stroke-linecap:butt; stroke-linejoin:round; stroke-width:2; stroke-opacity:0.1; fill:none" points="
  1880.23,1486.45 1880.23,47.2441 
  "/>
<polyline clip-path="url(#clip252)" style="stroke:#000000; stroke-linecap:butt; stroke-linejoin:round; stroke-width:2; stroke-opacity:0.1; fill:none" points="
  2287.58,1486.45 2287.58,47.2441 
  "/>
<polyline clip-path="url(#clip250)" style="stroke:#000000; stroke-linecap:butt; stroke-linejoin:round; stroke-width:4; stroke-opacity:1; fill:none" points="
  193.822,1486.45 2352.76,1486.45 
  "/>
<polyline clip-path="url(#clip250)" style="stroke:#000000; stroke-linecap:butt; stroke-linejoin:round; stroke-width:4; stroke-opacity:1; fill:none" points="
  250.85,1486.45 250.85,1467.55 
  "/>
<polyline clip-path="url(#clip250)" style="stroke:#000000; stroke-linecap:butt; stroke-linejoin:round; stroke-width:4; stroke-opacity:1; fill:none" points="
  658.196,1486.45 658.196,1467.55 
  "/>
<polyline clip-path="url(#clip250)" style="stroke:#000000; stroke-linecap:butt; stroke-linejoin:round; stroke-width:4; stroke-opacity:1; fill:none" points="
  1065.54,1486.45 1065.54,1467.55 
  "/>
<polyline clip-path="url(#clip250)" style="stroke:#000000; stroke-linecap:butt; stroke-linejoin:round; stroke-width:4; stroke-opacity:1; fill:none" points="
  1472.89,1486.45 1472.89,1467.55 
  "/>
<polyline clip-path="url(#clip250)" style="stroke:#000000; stroke-linecap:butt; stroke-linejoin:round; stroke-width:4; stroke-opacity:1; fill:none" points="
  1880.23,1486.45 1880.23,1467.55 
  "/>
<polyline clip-path="url(#clip250)" style="stroke:#000000; stroke-linecap:butt; stroke-linejoin:round; stroke-width:4; stroke-opacity:1; fill:none" points="
  2287.58,1486.45 2287.58,1467.55 
  "/>
<path clip-path="url(#clip250)" d="M250.85 1517.37 Q247.239 1517.37 245.41 1520.93 Q243.605 1524.47 243.605 1531.6 Q243.605 1538.71 245.41 1542.27 Q247.239 1545.82 250.85 1545.82 Q254.484 1545.82 256.29 1542.27 Q258.119 1538.71 258.119 1531.6 Q258.119 1524.47 256.29 1520.93 Q254.484 1517.37 250.85 1517.37 M250.85 1513.66 Q256.66 1513.66 259.716 1518.27 Q262.795 1522.85 262.795 1531.6 Q262.795 1540.33 259.716 1544.94 Q256.66 1549.52 250.85 1549.52 Q245.04 1549.52 241.961 1544.94 Q238.906 1540.33 238.906 1531.6 Q238.906 1522.85 241.961 1518.27 Q245.04 1513.66 250.85 1513.66 Z" fill="#000000" fill-rule="evenodd" fill-opacity="1" /><path clip-path="url(#clip250)" d="M617.803 1544.91 L625.442 1544.91 L625.442 1518.55 L617.132 1520.21 L617.132 1515.95 L625.395 1514.29 L630.071 1514.29 L630.071 1544.91 L637.71 1544.91 L637.71 1548.85 L617.803 1548.85 L617.803 1544.91 Z" fill="#000000" fill-rule="evenodd" fill-opacity="1" /><path clip-path="url(#clip250)" d="M657.155 1517.37 Q653.543 1517.37 651.715 1520.93 Q649.909 1524.47 649.909 1531.6 Q649.909 1538.71 651.715 1542.27 Q653.543 1545.82 657.155 1545.82 Q660.789 1545.82 662.594 1542.27 Q664.423 1538.71 664.423 1531.6 Q664.423 1524.47 662.594 1520.93 Q660.789 1517.37 657.155 1517.37 M657.155 1513.66 Q662.965 1513.66 666.02 1518.27 Q669.099 1522.85 669.099 1531.6 Q669.099 1540.33 666.02 1544.94 Q662.965 1549.52 657.155 1549.52 Q651.344 1549.52 648.266 1544.94 Q645.21 1540.33 645.21 1531.6 Q645.21 1522.85 648.266 1518.27 Q651.344 1513.66 657.155 1513.66 Z" fill="#000000" fill-rule="evenodd" fill-opacity="1" /><path clip-path="url(#clip250)" d="M687.316 1517.37 Q683.705 1517.37 681.877 1520.93 Q680.071 1524.47 680.071 1531.6 Q680.071 1538.71 681.877 1542.27 Q683.705 1545.82 687.316 1545.82 Q690.951 1545.82 692.756 1542.27 Q694.585 1538.71 694.585 1531.6 Q694.585 1524.47 692.756 1520.93 Q690.951 1517.37 687.316 1517.37 M687.316 1513.66 Q693.127 1513.66 696.182 1518.27 Q699.261 1522.85 699.261 1531.6 Q699.261 1540.33 696.182 1544.94 Q693.127 1549.52 687.316 1549.52 Q681.506 1549.52 678.428 1544.94 Q675.372 1540.33 675.372 1531.6 Q675.372 1522.85 678.428 1518.27 Q681.506 1513.66 687.316 1513.66 Z" fill="#000000" fill-rule="evenodd" fill-opacity="1" /><path clip-path="url(#clip250)" d="M1029.23 1544.91 L1045.55 1544.91 L1045.55 1548.85 L1023.61 1548.85 L1023.61 1544.91 Q1026.27 1542.16 1030.85 1537.53 Q1035.46 1532.88 1036.64 1531.53 Q1038.89 1529.01 1039.77 1527.27 Q1040.67 1525.51 1040.67 1523.82 Q1040.67 1521.07 1038.73 1519.33 Q1036.8 1517.6 1033.7 1517.6 Q1031.5 1517.6 1029.05 1518.36 Q1026.62 1519.13 1023.84 1520.68 L1023.84 1515.95 Q1026.67 1514.82 1029.12 1514.24 Q1031.57 1513.66 1033.61 1513.66 Q1038.98 1513.66 1042.17 1516.35 Q1045.37 1519.03 1045.37 1523.52 Q1045.37 1525.65 1044.56 1527.57 Q1043.77 1529.47 1041.67 1532.07 Q1041.09 1532.74 1037.98 1535.95 Q1034.88 1539.15 1029.23 1544.91 Z" fill="#000000" fill-rule="evenodd" fill-opacity="1" /><path clip-path="url(#clip250)" d="M1065.37 1517.37 Q1061.76 1517.37 1059.93 1520.93 Q1058.12 1524.47 1058.12 1531.6 Q1058.12 1538.71 1059.93 1542.27 Q1061.76 1545.82 1065.37 1545.82 Q1069 1545.82 1070.81 1542.27 Q1072.64 1538.71 1072.64 1531.6 Q1072.64 1524.47 1070.81 1520.93 Q1069 1517.37 1065.37 1517.37 M1065.37 1513.66 Q1071.18 1513.66 1074.23 1518.27 Q1077.31 1522.85 1077.31 1531.6 Q1077.31 1540.33 1074.23 1544.94 Q1071.18 1549.52 1065.37 1549.52 Q1059.56 1549.52 1056.48 1544.94 Q1053.42 1540.33 1053.42 1531.6 Q1053.42 1522.85 1056.48 1518.27 Q1059.56 1513.66 1065.37 1513.66 Z" fill="#000000" fill-rule="evenodd" fill-opacity="1" /><path clip-path="url(#clip250)" d="M1095.53 1517.37 Q1091.92 1517.37 1090.09 1520.93 Q1088.29 1524.47 1088.29 1531.6 Q1088.29 1538.71 1090.09 1542.27 Q1091.92 1545.82 1095.53 1545.82 Q1099.16 1545.82 1100.97 1542.27 Q1102.8 1538.71 1102.8 1531.6 Q1102.8 1524.47 1100.97 1520.93 Q1099.16 1517.37 1095.53 1517.37 M1095.53 1513.66 Q1101.34 1513.66 1104.4 1518.27 Q1107.47 1522.85 1107.47 1531.6 Q1107.47 1540.33 1104.4 1544.94 Q1101.34 1549.52 1095.53 1549.52 Q1089.72 1549.52 1086.64 1544.94 Q1083.59 1540.33 1083.59 1531.6 Q1083.59 1522.85 1086.64 1518.27 Q1089.72 1513.66 1095.53 1513.66 Z" fill="#000000" fill-rule="evenodd" fill-opacity="1" /><path clip-path="url(#clip250)" d="M1446.65 1530.21 Q1450.01 1530.93 1451.88 1533.2 Q1453.78 1535.47 1453.78 1538.8 Q1453.78 1543.92 1450.26 1546.72 Q1446.74 1549.52 1440.26 1549.52 Q1438.09 1549.52 1435.77 1549.08 Q1433.48 1548.66 1431.03 1547.81 L1431.03 1543.29 Q1432.97 1544.43 1435.28 1545.01 Q1437.6 1545.58 1440.12 1545.58 Q1444.52 1545.58 1446.81 1543.85 Q1449.13 1542.11 1449.13 1538.8 Q1449.13 1535.75 1446.97 1534.03 Q1444.84 1532.3 1441.03 1532.3 L1437 1532.3 L1437 1528.45 L1441.21 1528.45 Q1444.66 1528.45 1446.49 1527.09 Q1448.32 1525.7 1448.32 1523.11 Q1448.32 1520.45 1446.42 1519.03 Q1444.54 1517.6 1441.03 1517.6 Q1439.1 1517.6 1436.9 1518.01 Q1434.71 1518.43 1432.07 1519.31 L1432.07 1515.14 Q1434.73 1514.4 1437.04 1514.03 Q1439.38 1513.66 1441.44 1513.66 Q1446.77 1513.66 1449.87 1516.09 Q1452.97 1518.5 1452.97 1522.62 Q1452.97 1525.49 1451.33 1527.48 Q1449.68 1529.45 1446.65 1530.21 Z" fill="#000000" fill-rule="evenodd" fill-opacity="1" /><path clip-path="url(#clip250)" d="M1472.65 1517.37 Q1469.03 1517.37 1467.21 1520.93 Q1465.4 1524.47 1465.4 1531.6 Q1465.4 1538.71 1467.21 1542.27 Q1469.03 1545.82 1472.65 1545.82 Q1476.28 1545.82 1478.09 1542.27 Q1479.91 1538.71 1479.91 1531.6 Q1479.91 1524.47 1478.09 1520.93 Q1476.28 1517.37 1472.65 1517.37 M1472.65 1513.66 Q1478.46 1513.66 1481.51 1518.27 Q1484.59 1522.85 1484.59 1531.6 Q1484.59 1540.33 1481.51 1544.94 Q1478.46 1549.52 1472.65 1549.52 Q1466.84 1549.52 1463.76 1544.94 Q1460.7 1540.33 1460.7 1531.6 Q1460.7 1522.85 1463.76 1518.27 Q1466.84 1513.66 1472.65 1513.66 Z" fill="#000000" fill-rule="evenodd" fill-opacity="1" /><path clip-path="url(#clip250)" d="M1502.81 1517.37 Q1499.2 1517.37 1497.37 1520.93 Q1495.56 1524.47 1495.56 1531.6 Q1495.56 1538.71 1497.37 1542.27 Q1499.2 1545.82 1502.81 1545.82 Q1506.44 1545.82 1508.25 1542.27 Q1510.08 1538.71 1510.08 1531.6 Q1510.08 1524.47 1508.25 1520.93 Q1506.44 1517.37 1502.81 1517.37 M1502.81 1513.66 Q1508.62 1513.66 1511.67 1518.27 Q1514.75 1522.85 1514.75 1531.6 Q1514.75 1540.33 1511.67 1544.94 Q1508.62 1549.52 1502.81 1549.52 Q1497 1549.52 1493.92 1544.94 Q1490.86 1540.33 1490.86 1531.6 Q1490.86 1522.85 1493.92 1518.27 Q1497 1513.66 1502.81 1513.66 Z" fill="#000000" fill-rule="evenodd" fill-opacity="1" /><path clip-path="url(#clip250)" d="M1853.32 1518.36 L1841.52 1536.81 L1853.32 1536.81 L1853.32 1518.36 M1852.1 1514.29 L1857.98 1514.29 L1857.98 1536.81 L1862.91 1536.81 L1862.91 1540.7 L1857.98 1540.7 L1857.98 1548.85 L1853.32 1548.85 L1853.32 1540.7 L1837.72 1540.7 L1837.72 1536.19 L1852.1 1514.29 Z" fill="#000000" fill-rule="evenodd" fill-opacity="1" /><path clip-path="url(#clip250)" d="M1880.64 1517.37 Q1877.03 1517.37 1875.2 1520.93 Q1873.39 1524.47 1873.39 1531.6 Q1873.39 1538.71 1875.2 1542.27 Q1877.03 1545.82 1880.64 1545.82 Q1884.27 1545.82 1886.08 1542.27 Q1887.91 1538.71 1887.91 1531.6 Q1887.91 1524.47 1886.08 1520.93 Q1884.27 1517.37 1880.64 1517.37 M1880.64 1513.66 Q1886.45 1513.66 1889.51 1518.27 Q1892.58 1522.85 1892.58 1531.6 Q1892.58 1540.33 1889.51 1544.94 Q1886.45 1549.52 1880.64 1549.52 Q1874.83 1549.52 1871.75 1544.94 Q1868.7 1540.33 1868.7 1531.6 Q1868.7 1522.85 1871.75 1518.27 Q1874.83 1513.66 1880.64 1513.66 Z" fill="#000000" fill-rule="evenodd" fill-opacity="1" /><path clip-path="url(#clip250)" d="M1910.8 1517.37 Q1907.19 1517.37 1905.36 1520.93 Q1903.56 1524.47 1903.56 1531.6 Q1903.56 1538.71 1905.36 1542.27 Q1907.19 1545.82 1910.8 1545.82 Q1914.44 1545.82 1916.24 1542.27 Q1918.07 1538.71 1918.07 1531.6 Q1918.07 1524.47 1916.24 1520.93 Q1914.44 1517.37 1910.8 1517.37 M1910.8 1513.66 Q1916.61 1513.66 1919.67 1518.27 Q1922.75 1522.85 1922.75 1531.6 Q1922.75 1540.33 1919.67 1544.94 Q1916.61 1549.52 1910.8 1549.52 Q1904.99 1549.52 1901.91 1544.94 Q1898.86 1540.33 1898.86 1531.6 Q1898.86 1522.85 1901.91 1518.27 Q1904.99 1513.66 1910.8 1513.66 Z" fill="#000000" fill-rule="evenodd" fill-opacity="1" /><path clip-path="url(#clip250)" d="M2247.2 1514.29 L2265.56 1514.29 L2265.56 1518.22 L2251.48 1518.22 L2251.48 1526.7 Q2252.5 1526.35 2253.52 1526.19 Q2254.54 1526 2255.56 1526 Q2261.34 1526 2264.72 1529.17 Q2268.1 1532.34 2268.1 1537.76 Q2268.1 1543.34 2264.63 1546.44 Q2261.16 1549.52 2254.84 1549.52 Q2252.66 1549.52 2250.39 1549.15 Q2248.15 1548.78 2245.74 1548.04 L2245.74 1543.34 Q2247.82 1544.47 2250.05 1545.03 Q2252.27 1545.58 2254.75 1545.58 Q2258.75 1545.58 2261.09 1543.48 Q2263.43 1541.37 2263.43 1537.76 Q2263.43 1534.15 2261.09 1532.04 Q2258.75 1529.94 2254.75 1529.94 Q2252.87 1529.94 2251 1530.35 Q2249.14 1530.77 2247.2 1531.65 L2247.2 1514.29 Z" fill="#000000" fill-rule="evenodd" fill-opacity="1" /><path clip-path="url(#clip250)" d="M2287.31 1517.37 Q2283.7 1517.37 2281.87 1520.93 Q2280.07 1524.47 2280.07 1531.6 Q2280.07 1538.71 2281.87 1542.27 Q2283.7 1545.82 2287.31 1545.82 Q2290.95 1545.82 2292.75 1542.27 Q2294.58 1538.71 2294.58 1531.6 Q2294.58 1524.47 2292.75 1520.93 Q2290.95 1517.37 2287.31 1517.37 M2287.31 1513.66 Q2293.12 1513.66 2296.18 1518.27 Q2299.26 1522.85 2299.26 1531.6 Q2299.26 1540.33 2296.18 1544.94 Q2293.12 1549.52 2287.31 1549.52 Q2281.5 1549.52 2278.43 1544.94 Q2275.37 1540.33 2275.37 1531.6 Q2275.37 1522.85 2278.43 1518.27 Q2281.5 1513.66 2287.31 1513.66 Z" fill="#000000" fill-rule="evenodd" fill-opacity="1" /><path clip-path="url(#clip250)" d="M2317.48 1517.37 Q2313.87 1517.37 2312.04 1520.93 Q2310.23 1524.47 2310.23 1531.6 Q2310.23 1538.71 2312.04 1542.27 Q2313.87 1545.82 2317.48 1545.82 Q2321.11 1545.82 2322.92 1542.27 Q2324.74 1538.71 2324.74 1531.6 Q2324.74 1524.47 2322.92 1520.93 Q2321.11 1517.37 2317.48 1517.37 M2317.48 1513.66 Q2323.29 1513.66 2326.34 1518.27 Q2329.42 1522.85 2329.42 1531.6 Q2329.42 1540.33 2326.34 1544.94 Q2323.29 1549.52 2317.48 1549.52 Q2311.67 1549.52 2308.59 1544.94 Q2305.53 1540.33 2305.53 1531.6 Q2305.53 1522.85 2308.59 1518.27 Q2311.67 1513.66 2317.48 1513.66 Z" fill="#000000" fill-rule="evenodd" fill-opacity="1" /><polyline clip-path="url(#clip252)" style="stroke:#000000; stroke-linecap:butt; stroke-linejoin:round; stroke-width:2; stroke-opacity:0.1; fill:none" points="
  193.822,1319.93 2352.76,1319.93 
  "/>
<polyline clip-path="url(#clip252)" style="stroke:#000000; stroke-linecap:butt; stroke-linejoin:round; stroke-width:2; stroke-opacity:0.1; fill:none" points="
  193.822,819.917 2352.76,819.917 
  "/>
<polyline clip-path="url(#clip252)" style="stroke:#000000; stroke-linecap:butt; stroke-linejoin:round; stroke-width:2; stroke-opacity:0.1; fill:none" points="
  193.822,319.906 2352.76,319.906 
  "/>
<polyline clip-path="url(#clip250)" style="stroke:#000000; stroke-linecap:butt; stroke-linejoin:round; stroke-width:4; stroke-opacity:1; fill:none" points="
  193.822,1486.45 193.822,47.2441 
  "/>
<polyline clip-path="url(#clip250)" style="stroke:#000000; stroke-linecap:butt; stroke-linejoin:round; stroke-width:4; stroke-opacity:1; fill:none" points="
  193.822,1319.93 212.719,1319.93 
  "/>
<polyline clip-path="url(#clip250)" style="stroke:#000000; stroke-linecap:butt; stroke-linejoin:round; stroke-width:4; stroke-opacity:1; fill:none" points="
  193.822,819.917 212.719,819.917 
  "/>
<polyline clip-path="url(#clip250)" style="stroke:#000000; stroke-linecap:butt; stroke-linejoin:round; stroke-width:4; stroke-opacity:1; fill:none" points="
  193.822,319.906 212.719,319.906 
  "/>
<path clip-path="url(#clip250)" d="M51.6634 1339.72 L59.3023 1339.72 L59.3023 1313.36 L50.9921 1315.02 L50.9921 1310.76 L59.256 1309.1 L63.9319 1309.1 L63.9319 1339.72 L71.5707 1339.72 L71.5707 1343.66 L51.6634 1343.66 L51.6634 1339.72 Z" fill="#000000" fill-rule="evenodd" fill-opacity="1" /><path clip-path="url(#clip250)" d="M91.0151 1312.18 Q87.404 1312.18 85.5753 1315.74 Q83.7697 1319.28 83.7697 1326.41 Q83.7697 1333.52 85.5753 1337.08 Q87.404 1340.62 91.0151 1340.62 Q94.6493 1340.62 96.4548 1337.08 Q98.2835 1333.52 98.2835 1326.41 Q98.2835 1319.28 96.4548 1315.74 Q94.6493 1312.18 91.0151 1312.18 M91.0151 1308.47 Q96.8252 1308.47 99.8808 1313.08 Q102.959 1317.66 102.959 1326.41 Q102.959 1335.14 99.8808 1339.74 Q96.8252 1344.33 91.0151 1344.33 Q85.2049 1344.33 82.1262 1339.74 Q79.0707 1335.14 79.0707 1326.41 Q79.0707 1317.66 82.1262 1313.08 Q85.2049 1308.47 91.0151 1308.47 Z" fill="#000000" fill-rule="evenodd" fill-opacity="1" /><path clip-path="url(#clip250)" d="M103.505 1313.05 L109.711 1313.05 L109.711 1291.63 L102.959 1292.98 L102.959 1289.52 L109.674 1288.17 L113.473 1288.17 L113.473 1313.05 L119.68 1313.05 L119.68 1316.25 L103.505 1316.25 L103.505 1313.05 Z" fill="#000000" fill-rule="evenodd" fill-opacity="1" /><path clip-path="url(#clip250)" d="M127.353 1311.47 L131.322 1311.47 L131.322 1316.25 L127.353 1316.25 L127.353 1311.47 Z" fill="#000000" fill-rule="evenodd" fill-opacity="1" /><path clip-path="url(#clip250)" d="M150.035 1291.48 L140.443 1306.47 L150.035 1306.47 L150.035 1291.48 M149.038 1288.17 L153.816 1288.17 L153.816 1306.47 L157.822 1306.47 L157.822 1309.63 L153.816 1309.63 L153.816 1316.25 L150.035 1316.25 L150.035 1309.63 L137.359 1309.63 L137.359 1305.96 L149.038 1288.17 Z" fill="#000000" fill-rule="evenodd" fill-opacity="1" /><path clip-path="url(#clip250)" d="M52.8671 839.71 L60.506 839.71 L60.506 813.344 L52.1958 815.011 L52.1958 810.751 L60.4597 809.085 L65.1356 809.085 L65.1356 839.71 L72.7744 839.71 L72.7744 843.645 L52.8671 843.645 L52.8671 839.71 Z" fill="#000000" fill-rule="evenodd" fill-opacity="1" /><path clip-path="url(#clip250)" d="M92.2188 812.163 Q88.6077 812.163 86.779 815.728 Q84.9734 819.27 84.9734 826.399 Q84.9734 833.506 86.779 837.071 Q88.6077 840.612 92.2188 840.612 Q95.853 840.612 97.6585 837.071 Q99.4872 833.506 99.4872 826.399 Q99.4872 819.27 97.6585 815.728 Q95.853 812.163 92.2188 812.163 M92.2188 808.46 Q98.0289 808.46 101.084 813.066 Q104.163 817.65 104.163 826.399 Q104.163 835.126 101.084 839.733 Q98.0289 844.316 92.2188 844.316 Q86.4086 844.316 83.3299 839.733 Q80.2744 835.126 80.2744 826.399 Q80.2744 817.65 83.3299 813.066 Q86.4086 808.46 92.2188 808.46 Z" fill="#000000" fill-rule="evenodd" fill-opacity="1" /><path clip-path="url(#clip250)" d="M104.709 813.037 L110.915 813.037 L110.915 791.615 L104.163 792.969 L104.163 789.509 L110.878 788.154 L114.677 788.154 L114.677 813.037 L120.883 813.037 L120.883 816.234 L104.709 816.234 L104.709 813.037 Z" fill="#000000" fill-rule="evenodd" fill-opacity="1" /><path clip-path="url(#clip250)" d="M128.557 811.457 L132.525 811.457 L132.525 816.234 L128.557 816.234 L128.557 811.457 Z" fill="#000000" fill-rule="evenodd" fill-opacity="1" /><path clip-path="url(#clip250)" d="M140.838 788.154 L155.753 788.154 L155.753 791.352 L144.318 791.352 L144.318 798.235 Q145.145 797.953 145.973 797.822 Q146.8 797.671 147.628 797.671 Q152.33 797.671 155.076 800.248 Q157.822 802.824 157.822 807.225 Q157.822 811.758 155.001 814.278 Q152.179 816.78 147.045 816.78 Q145.277 816.78 143.434 816.479 Q141.609 816.178 139.653 815.576 L139.653 811.758 Q141.346 812.68 143.152 813.131 Q144.957 813.582 146.97 813.582 Q150.223 813.582 152.123 811.871 Q154.023 810.159 154.023 807.225 Q154.023 804.291 152.123 802.58 Q150.223 800.868 146.97 800.868 Q145.446 800.868 143.923 801.207 Q142.418 801.546 140.838 802.26 L140.838 788.154 Z" fill="#000000" fill-rule="evenodd" fill-opacity="1" /><path clip-path="url(#clip250)" d="M51.9267 339.698 L59.5656 339.698 L59.5656 313.332 L51.2554 314.999 L51.2554 310.74 L59.5193 309.073 L64.1952 309.073 L64.1952 339.698 L71.834 339.698 L71.834 343.633 L51.9267 343.633 L51.9267 339.698 Z" fill="#000000" fill-rule="evenodd" fill-opacity="1" /><path clip-path="url(#clip250)" d="M91.2784 312.152 Q87.6673 312.152 85.8386 315.717 Q84.033 319.258 84.033 326.388 Q84.033 333.494 85.8386 337.059 Q87.6673 340.601 91.2784 340.601 Q94.9126 340.601 96.7182 337.059 Q98.5468 333.494 98.5468 326.388 Q98.5468 319.258 96.7182 315.717 Q94.9126 312.152 91.2784 312.152 M91.2784 308.448 Q97.0885 308.448 100.144 313.055 Q103.223 317.638 103.223 326.388 Q103.223 335.115 100.144 339.721 Q97.0885 344.304 91.2784 344.304 Q85.4682 344.304 82.3895 339.721 Q79.334 335.115 79.334 326.388 Q79.334 317.638 82.3895 313.055 Q85.4682 308.448 91.2784 308.448 Z" fill="#000000" fill-rule="evenodd" fill-opacity="1" /><path clip-path="url(#clip250)" d="M103.768 313.025 L109.975 313.025 L109.975 291.603 L103.223 292.958 L103.223 289.497 L109.937 288.143 L113.736 288.143 L113.736 313.025 L119.943 313.025 L119.943 316.223 L103.768 316.223 L103.768 313.025 Z" fill="#000000" fill-rule="evenodd" fill-opacity="1" /><path clip-path="url(#clip250)" d="M127.616 311.446 L131.585 311.446 L131.585 316.223 L127.616 316.223 L127.616 311.446 Z" fill="#000000" fill-rule="evenodd" fill-opacity="1" /><path clip-path="url(#clip250)" d="M148.455 300.669 Q145.898 300.669 144.393 302.418 Q142.907 304.167 142.907 307.214 Q142.907 310.242 144.393 312.01 Q145.898 313.759 148.455 313.759 Q151.013 313.759 152.499 312.01 Q154.004 310.242 154.004 307.214 Q154.004 304.167 152.499 302.418 Q151.013 300.669 148.455 300.669 M155.997 288.763 L155.997 292.224 Q154.568 291.547 153.101 291.19 Q151.653 290.832 150.223 290.832 Q146.462 290.832 144.468 293.371 Q142.493 295.91 142.211 301.045 Q143.321 299.409 144.995 298.543 Q146.669 297.659 148.681 297.659 Q152.913 297.659 155.358 300.236 Q157.822 302.794 157.822 307.214 Q157.822 311.54 155.264 314.154 Q152.706 316.768 148.455 316.768 Q143.584 316.768 141.008 313.044 Q138.431 309.301 138.431 302.211 Q138.431 295.553 141.591 291.603 Q144.75 287.635 150.073 287.635 Q151.502 287.635 152.95 287.917 Q154.417 288.199 155.997 288.763 Z" fill="#000000" fill-rule="evenodd" fill-opacity="1" /><polyline clip-path="url(#clip252)" style="stroke:#009af9; stroke-linecap:butt; stroke-linejoin:round; stroke-width:16; stroke-opacity:1; fill:none" points="
  254.924,87.9763 258.997,822.887 263.071,881.169 267.144,914.91 271.217,937.256 275.291,953.299 279.364,965.481 283.438,975.128 287.511,983.027 291.585,989.675 
  295.658,995.401 299.732,1000.43 303.805,1004.92 307.879,1008.99 311.952,1012.73 316.026,1016.2 320.099,1019.46 324.172,1022.53 328.246,1025.46 332.319,1028.26 
  336.393,1030.97 340.466,1033.58 344.54,1036.12 348.613,1038.6 352.687,1041.02 356.76,1043.4 360.834,1045.74 364.907,1048.04 368.981,1050.31 373.054,1052.55 
  377.127,1054.77 381.201,1056.97 385.274,1059.15 389.348,1061.31 393.421,1063.46 397.495,1065.59 401.568,1067.71 405.642,1069.81 409.715,1071.91 413.789,1073.99 
  417.862,1076.06 421.936,1078.13 426.009,1080.18 430.082,1082.22 434.156,1084.26 438.229,1086.29 442.303,1088.31 446.376,1090.32 450.45,1092.32 454.523,1094.32 
  458.597,1096.3 462.67,1098.28 466.744,1100.25 470.817,1102.21 474.89,1104.17 478.964,1106.11 483.037,1108.05 487.111,1109.98 491.184,1111.91 495.258,1113.82 
  499.331,1115.72 503.405,1117.62 507.478,1119.51 511.552,1121.39 515.625,1123.26 519.699,1125.13 523.772,1126.98 527.845,1128.83 531.919,1130.67 535.992,1132.5 
  540.066,1134.32 544.139,1136.13 548.213,1137.93 552.286,1139.73 556.36,1141.51 560.433,1143.29 564.507,1145.05 568.58,1146.81 572.654,1148.56 576.727,1150.3 
  580.8,1152.03 584.874,1153.76 588.947,1155.47 593.021,1157.17 597.094,1158.87 601.168,1160.56 605.241,1162.23 609.315,1163.9 613.388,1165.56 617.462,1167.21 
  621.535,1168.85 625.609,1170.49 629.682,1172.11 633.755,1173.72 637.829,1175.33 641.902,1176.93 645.976,1178.51 650.049,1180.09 654.123,1181.66 658.196,1183.22 
  662.27,1184.77 666.343,1186.32 670.417,1187.85 674.49,1189.38 678.564,1190.9 682.637,1192.41 686.71,1193.91 690.784,1195.4 694.857,1196.88 698.931,1198.35 
  703.004,1199.82 707.078,1201.28 711.151,1202.73 715.225,1204.17 719.298,1205.6 723.372,1207.02 727.445,1208.44 731.519,1209.85 735.592,1211.25 739.665,1212.64 
  743.739,1214.02 747.812,1215.4 751.886,1216.76 755.959,1218.12 760.033,1219.47 764.106,1220.82 768.18,1222.15 772.253,1223.48 776.327,1224.8 780.4,1226.11 
  784.474,1227.42 788.547,1228.71 792.62,1230 796.694,1231.28 800.767,1232.56 804.841,1233.83 808.914,1235.09 812.988,1236.34 817.061,1237.58 821.135,1238.82 
  825.208,1240.05 829.282,1241.27 833.355,1242.49 837.429,1243.7 841.502,1244.9 845.575,1246.1 849.649,1247.29 853.722,1248.47 857.796,1249.64 861.869,1250.81 
  865.943,1251.97 870.016,1253.13 874.09,1254.27 878.163,1255.41 882.237,1256.55 886.31,1257.68 890.383,1258.8 894.457,1259.91 898.53,1261.02 902.604,1262.13 
  906.677,1263.22 910.751,1264.31 914.824,1265.39 918.898,1266.47 922.971,1267.54 927.045,1268.61 931.118,1269.67 935.192,1270.72 939.265,1271.77 943.338,1272.81 
  947.412,1273.85 951.485,1274.88 955.559,1275.9 959.632,1276.92 963.706,1277.93 967.779,1278.94 971.853,1279.94 975.926,1280.93 980,1281.92 984.073,1282.91 
  988.147,1283.89 992.22,1284.86 996.293,1285.83 1000.37,1286.79 1004.44,1287.75 1008.51,1288.7 1012.59,1289.65 1016.66,1290.59 1020.73,1291.53 1024.81,1292.46 
  1028.88,1293.39 1032.95,1294.31 1037.03,1295.22 1041.1,1296.13 1045.18,1297.04 1049.25,1297.94 1053.32,1298.84 1057.4,1299.73 1061.47,1300.62 1065.54,1301.5 
  1069.62,1302.38 1073.69,1303.25 1077.76,1304.12 1081.84,1304.98 1085.91,1305.84 1089.98,1306.7 1094.06,1307.55 1098.13,1308.39 1102.2,1309.23 1106.28,1310.07 
  1110.35,1310.9 1114.42,1311.73 1118.5,1312.55 1122.57,1313.37 1126.64,1314.19 1130.72,1315 1134.79,1315.8 1138.86,1316.61 1142.94,1317.4 1147.01,1318.2 
  1151.08,1318.99 1155.16,1319.77 1159.23,1320.56 1163.31,1321.33 1167.38,1322.11 1171.45,1322.88 1175.53,1323.64 1179.6,1324.4 1183.67,1325.16 1187.75,1325.92 
  1191.82,1326.67 1195.89,1327.41 1199.97,1328.16 1204.04,1328.9 1208.11,1329.63 1212.19,1330.36 1216.26,1331.09 1220.33,1331.82 1224.41,1332.54 1228.48,1333.25 
  1232.55,1333.97 1236.63,1334.68 1240.7,1335.38 1244.77,1336.09 1248.85,1336.79 1252.92,1337.48 1256.99,1338.18 1261.07,1338.87 1265.14,1339.55 1269.22,1340.24 
  1273.29,1340.91 1277.36,1341.59 1281.44,1342.26 1285.51,1342.93 1289.58,1343.6 1293.66,1344.26 1297.73,1344.92 1301.8,1345.58 1305.88,1346.23 1309.95,1346.88 
  1314.02,1347.53 1318.1,1348.18 1322.17,1348.82 1326.24,1349.46 1330.32,1350.09 1334.39,1350.72 1338.46,1351.35 1342.54,1351.98 1346.61,1352.6 1350.68,1353.22 
  1354.76,1353.84 1358.83,1354.46 1362.9,1355.07 1366.98,1355.68 1371.05,1356.28 1375.13,1356.89 1379.2,1357.49 1383.27,1358.09 1387.35,1358.68 1391.42,1359.27 
  1395.49,1359.86 1399.57,1360.45 1403.64,1361.04 1407.71,1361.62 1411.79,1362.2 1415.86,1362.77 1419.93,1363.35 1424.01,1363.92 1428.08,1364.49 1432.15,1365.05 
  1436.23,1365.62 1440.3,1366.18 1444.37,1366.74 1448.45,1367.29 1452.52,1367.85 1456.59,1368.4 1460.67,1368.95 1464.74,1369.49 1468.81,1370.04 1472.89,1370.58 
  1476.96,1371.12 1481.04,1371.65 1485.11,1372.19 1489.18,1372.72 1493.26,1373.25 1497.33,1373.78 1501.4,1374.3 1505.48,1374.83 1509.55,1375.35 1513.62,1375.87 
  1517.7,1376.38 1521.77,1376.9 1525.84,1377.41 1529.92,1377.92 1533.99,1378.43 1538.06,1378.93 1542.14,1379.43 1546.21,1379.93 1550.28,1380.43 1554.36,1380.93 
  1558.43,1381.43 1562.5,1381.92 1566.58,1382.41 1570.65,1382.9 1574.72,1383.38 1578.8,1383.87 1582.87,1384.35 1586.95,1384.83 1591.02,1385.31 1595.09,1385.78 
  1599.17,1386.26 1603.24,1386.73 1607.31,1387.2 1611.39,1387.67 1615.46,1388.14 1619.53,1388.6 1623.61,1389.07 1627.68,1389.53 1631.75,1389.99 1635.83,1390.44 
  1639.9,1390.9 1643.97,1391.35 1648.05,1391.8 1652.12,1392.25 1656.19,1392.7 1660.27,1393.15 1664.34,1393.59 1668.41,1394.03 1672.49,1394.47 1676.56,1394.91 
  1680.63,1395.35 1684.71,1395.79 1688.78,1396.22 1692.86,1396.65 1696.93,1397.08 1701,1397.51 1705.08,1397.94 1709.15,1398.36 1713.22,1398.79 1717.3,1399.21 
  1721.37,1399.63 1725.44,1400.05 1729.52,1400.47 1733.59,1400.88 1737.66,1401.3 1741.74,1401.71 1745.81,1402.12 1749.88,1402.53 1753.96,1402.94 1758.03,1403.34 
  1762.1,1403.75 1766.18,1404.15 1770.25,1404.55 1774.32,1404.95 1778.4,1405.35 1782.47,1405.75 1786.54,1406.14 1790.62,1406.53 1794.69,1406.93 1798.77,1407.32 
  1802.84,1407.71 1806.91,1408.09 1810.99,1408.48 1815.06,1408.87 1819.13,1409.25 1823.21,1409.63 1827.28,1410.01 1831.35,1410.39 1835.43,1410.77 1839.5,1411.15 
  1843.57,1411.52 1847.65,1411.89 1851.72,1412.27 1855.79,1412.64 1859.87,1413.01 1863.94,1413.38 1868.01,1413.74 1872.09,1414.11 1876.16,1414.47 1880.23,1414.83 
  1884.31,1415.2 1888.38,1415.56 1892.45,1415.92 1896.53,1416.27 1900.6,1416.63 1904.68,1416.98 1908.75,1417.34 1912.82,1417.69 1916.9,1418.04 1920.97,1418.39 
  1925.04,1418.74 1929.12,1419.09 1933.19,1419.43 1937.26,1419.78 1941.34,1420.12 1945.41,1420.46 1949.48,1420.81 1953.56,1421.15 1957.63,1421.49 1961.7,1421.82 
  1965.78,1422.16 1969.85,1422.49 1973.92,1422.83 1978,1423.16 1982.07,1423.49 1986.14,1423.82 1990.22,1424.15 1994.29,1424.48 1998.36,1424.81 2002.44,1425.14 
  2006.51,1425.46 2010.59,1425.78 2014.66,1426.11 2018.73,1426.43 2022.81,1426.75 2026.88,1427.07 2030.95,1427.39 2035.03,1427.7 2039.1,1428.02 2043.17,1428.34 
  2047.25,1428.65 2051.32,1428.96 2055.39,1429.27 2059.47,1429.59 2063.54,1429.89 2067.61,1430.2 2071.69,1430.51 2075.76,1430.82 2079.83,1431.12 2083.91,1431.43 
  2087.98,1431.73 2092.05,1432.03 2096.13,1432.34 2100.2,1432.64 2104.27,1432.94 2108.35,1433.23 2112.42,1433.53 2116.5,1433.83 2120.57,1434.12 2124.64,1434.42 
  2128.72,1434.71 2132.79,1435.01 2136.86,1435.3 2140.94,1435.59 2145.01,1435.88 2149.08,1436.17 2153.16,1436.45 2157.23,1436.74 2161.3,1437.03 2165.38,1437.31 
  2169.45,1437.6 2173.52,1437.88 2177.6,1438.16 2181.67,1438.44 2185.74,1438.73 2189.82,1439 2193.89,1439.28 2197.96,1439.56 2202.04,1439.84 2206.11,1440.11 
  2210.18,1440.39 2214.26,1440.66 2218.33,1440.94 2222.41,1441.21 2226.48,1441.48 2230.55,1441.75 2234.63,1442.02 2238.7,1442.29 2242.77,1442.56 2246.85,1442.83 
  2250.92,1443.09 2254.99,1443.36 2259.07,1443.63 2263.14,1443.89 2267.21,1444.15 2271.29,1444.42 2275.36,1444.68 2279.43,1444.94 2283.51,1445.2 2287.58,1445.46 
  2291.65,1445.72 
  "/>
<path clip-path="url(#clip250)" d="
M1962.26 250.738 L2280.79 250.738 L2280.79 95.2176 L1962.26 95.2176  Z
  " fill="#ffffff" fill-rule="evenodd" fill-opacity="1"/>
<polyline clip-path="url(#clip250)" style="stroke:#000000; stroke-linecap:butt; stroke-linejoin:round; stroke-width:4; stroke-opacity:1; fill:none" points="
  1962.26,250.738 2280.79,250.738 2280.79,95.2176 1962.26,95.2176 1962.26,250.738 
  "/>
<polyline clip-path="url(#clip250)" style="stroke:#009af9; stroke-linecap:butt; stroke-linejoin:round; stroke-width:6; stroke-opacity:1; fill:none" points="
  1986.25,172.978 2130.18,172.978 
  "/>
<path clip-path="url(#clip250)" d="M2174.93 202.509 Q2172.23 209.453 2169.66 211.571 Q2167.09 213.689 2162.78 213.689 L2157.68 213.689 L2157.68 208.342 L2161.43 208.342 Q2164.07 208.342 2165.52 207.092 Q2166.98 205.842 2168.75 201.189 L2169.9 198.273 L2154.17 160.009 L2160.94 160.009 L2173.09 190.425 L2185.25 160.009 L2192.02 160.009 L2174.93 202.509 Z" fill="#000000" fill-rule="evenodd" fill-opacity="1" /><path clip-path="url(#clip250)" d="M2202.95 192.995 L2214.41 192.995 L2214.41 153.446 L2201.95 155.946 L2201.95 149.558 L2214.34 147.058 L2221.36 147.058 L2221.36 192.995 L2232.82 192.995 L2232.82 198.898 L2202.95 198.898 L2202.95 192.995 Z" fill="#000000" fill-rule="evenodd" fill-opacity="1" /></svg>
