<?xml version="1.0" encoding="utf-8"?>
<svg xmlns="http://www.w3.org/2000/svg" xmlns:xlink="http://www.w3.org/1999/xlink" width="600" height="400" viewBox="0 0 2400 1600">
<defs>
  <clipPath id="clip920">
    <rect x="0" y="0" width="2400" height="1600"/>
  </clipPath>
</defs>
<path clip-path="url(#clip920)" d="
M0 1600 L2400 1600 L2400 0 L0 0  Z
  " fill="#ffffff" fill-rule="evenodd" fill-opacity="1"/>
<defs>
  <clipPath id="clip921">
    <rect x="480" y="0" width="1681" height="1600"/>
  </clipPath>
</defs>
<defs>
  <clipPath id="clip922">
    <rect x="186" y="47" width="2167" height="1440"/>
  </clipPath>
</defs>
<path clip-path="url(#clip920)" d="
M186.274 1486.45 L2352.76 1486.45 L2352.76 47.2441 L186.274 47.2441  Z
  " fill="#ffffff" fill-rule="evenodd" fill-opacity="1"/>
<polyline clip-path="url(#clip922)" style="stroke:#000000; stroke-linecap:butt; stroke-linejoin:round; stroke-width:2; stroke-opacity:0.1; fill:none" points="
  247.59,1486.45 247.59,47.2441 
  "/>
<polyline clip-path="url(#clip922)" style="stroke:#000000; stroke-linecap:butt; stroke-linejoin:round; stroke-width:2; stroke-opacity:0.1; fill:none" points="
  758.552,1486.45 758.552,47.2441 
  "/>
<polyline clip-path="url(#clip922)" style="stroke:#000000; stroke-linecap:butt; stroke-linejoin:round; stroke-width:2; stroke-opacity:0.1; fill:none" points="
  1269.51,1486.45 1269.51,47.2441 
  "/>
<polyline clip-path="url(#clip922)" style="stroke:#000000; stroke-linecap:butt; stroke-linejoin:round; stroke-width:2; stroke-opacity:0.1; fill:none" points="
  1780.48,1486.45 1780.48,47.2441 
  "/>
<polyline clip-path="url(#clip922)" style="stroke:#000000; stroke-linecap:butt; stroke-linejoin:round; stroke-width:2; stroke-opacity:0.1; fill:none" points="
  2291.44,1486.45 2291.44,47.2441 
  "/>
<polyline clip-path="url(#clip920)" style="stroke:#000000; stroke-linecap:butt; stroke-linejoin:round; stroke-width:4; stroke-opacity:1; fill:none" points="
  186.274,1486.45 2352.76,1486.45 
  "/>
<polyline clip-path="url(#clip920)" style="stroke:#000000; stroke-linecap:butt; stroke-linejoin:round; stroke-width:4; stroke-opacity:1; fill:none" points="
  247.59,1486.45 247.59,1467.55 
  "/>
<polyline clip-path="url(#clip920)" style="stroke:#000000; stroke-linecap:butt; stroke-linejoin:round; stroke-width:4; stroke-opacity:1; fill:none" points="
  758.552,1486.45 758.552,1467.55 
  "/>
<polyline clip-path="url(#clip920)" style="stroke:#000000; stroke-linecap:butt; stroke-linejoin:round; stroke-width:4; stroke-opacity:1; fill:none" points="
  1269.51,1486.45 1269.51,1467.55 
  "/>
<polyline clip-path="url(#clip920)" style="stroke:#000000; stroke-linecap:butt; stroke-linejoin:round; stroke-width:4; stroke-opacity:1; fill:none" points="
  1780.48,1486.45 1780.48,1467.55 
  "/>
<polyline clip-path="url(#clip920)" style="stroke:#000000; stroke-linecap:butt; stroke-linejoin:round; stroke-width:4; stroke-opacity:1; fill:none" points="
  2291.44,1486.45 2291.44,1467.55 
  "/>
<path clip-path="url(#clip920)" d="M194.118 1532.02 L223.793 1532.02 L223.793 1535.95 L194.118 1535.95 L194.118 1532.02 Z" fill="#000000" fill-rule="evenodd" fill-opacity="1" /><path clip-path="url(#clip920)" d="M234.696 1544.91 L242.335 1544.91 L242.335 1518.55 L234.025 1520.21 L234.025 1515.95 L242.289 1514.29 L246.965 1514.29 L246.965 1544.91 L254.603 1544.91 L254.603 1548.85 L234.696 1548.85 L234.696 1544.91 Z" fill="#000000" fill-rule="evenodd" fill-opacity="1" /><path clip-path="url(#clip920)" d="M264.048 1542.97 L268.932 1542.97 L268.932 1548.85 L264.048 1548.85 L264.048 1542.97 Z" fill="#000000" fill-rule="evenodd" fill-opacity="1" /><path clip-path="url(#clip920)" d="M289.117 1517.37 Q285.506 1517.37 283.677 1520.93 Q281.872 1524.47 281.872 1531.6 Q281.872 1538.71 283.677 1542.27 Q285.506 1545.82 289.117 1545.82 Q292.751 1545.82 294.557 1542.27 Q296.386 1538.71 296.386 1531.6 Q296.386 1524.47 294.557 1520.93 Q292.751 1517.37 289.117 1517.37 M289.117 1513.66 Q294.927 1513.66 297.983 1518.27 Q301.061 1522.85 301.061 1531.6 Q301.061 1540.33 297.983 1544.94 Q294.927 1549.52 289.117 1549.52 Q283.307 1549.52 280.228 1544.94 Q277.173 1540.33 277.173 1531.6 Q277.173 1522.85 280.228 1518.27 Q283.307 1513.66 289.117 1513.66 Z" fill="#000000" fill-rule="evenodd" fill-opacity="1" /><path clip-path="url(#clip920)" d="M705.578 1532.02 L735.254 1532.02 L735.254 1535.95 L705.578 1535.95 L705.578 1532.02 Z" fill="#000000" fill-rule="evenodd" fill-opacity="1" /><path clip-path="url(#clip920)" d="M755.346 1517.37 Q751.735 1517.37 749.906 1520.93 Q748.101 1524.47 748.101 1531.6 Q748.101 1538.71 749.906 1542.27 Q751.735 1545.82 755.346 1545.82 Q758.98 1545.82 760.786 1542.27 Q762.615 1538.71 762.615 1531.6 Q762.615 1524.47 760.786 1520.93 Q758.98 1517.37 755.346 1517.37 M755.346 1513.66 Q761.156 1513.66 764.212 1518.27 Q767.291 1522.85 767.291 1531.6 Q767.291 1540.33 764.212 1544.94 Q761.156 1549.52 755.346 1549.52 Q749.536 1549.52 746.457 1544.94 Q743.402 1540.33 743.402 1531.6 Q743.402 1522.85 746.457 1518.27 Q749.536 1513.66 755.346 1513.66 Z" fill="#000000" fill-rule="evenodd" fill-opacity="1" /><path clip-path="url(#clip920)" d="M775.508 1542.97 L780.392 1542.97 L780.392 1548.85 L775.508 1548.85 L775.508 1542.97 Z" fill="#000000" fill-rule="evenodd" fill-opacity="1" /><path clip-path="url(#clip920)" d="M790.624 1514.29 L808.98 1514.29 L808.98 1518.22 L794.906 1518.22 L794.906 1526.7 Q795.925 1526.35 796.943 1526.19 Q797.962 1526 798.98 1526 Q804.767 1526 808.147 1529.17 Q811.526 1532.34 811.526 1537.76 Q811.526 1543.34 808.054 1546.44 Q804.582 1549.52 798.263 1549.52 Q796.087 1549.52 793.818 1549.15 Q791.573 1548.78 789.166 1548.04 L789.166 1543.34 Q791.249 1544.47 793.471 1545.03 Q795.693 1545.58 798.17 1545.58 Q802.175 1545.58 804.513 1543.48 Q806.851 1541.37 806.851 1537.76 Q806.851 1534.15 804.513 1532.04 Q802.175 1529.94 798.17 1529.94 Q796.295 1529.94 794.42 1530.35 Q792.568 1530.77 790.624 1531.65 L790.624 1514.29 Z" fill="#000000" fill-rule="evenodd" fill-opacity="1" /><path clip-path="url(#clip920)" d="M1246.9 1517.37 Q1243.29 1517.37 1241.46 1520.93 Q1239.65 1524.47 1239.65 1531.6 Q1239.65 1538.71 1241.46 1542.27 Q1243.29 1545.82 1246.9 1545.82 Q1250.53 1545.82 1252.34 1542.27 Q1254.17 1538.71 1254.17 1531.6 Q1254.17 1524.47 1252.34 1520.93 Q1250.53 1517.37 1246.9 1517.37 M1246.9 1513.66 Q1252.71 1513.66 1255.77 1518.27 Q1258.84 1522.85 1258.84 1531.6 Q1258.84 1540.33 1255.77 1544.94 Q1252.71 1549.52 1246.9 1549.52 Q1241.09 1549.52 1238.01 1544.94 Q1234.95 1540.33 1234.95 1531.6 Q1234.95 1522.85 1238.01 1518.27 Q1241.09 1513.66 1246.9 1513.66 Z" fill="#000000" fill-rule="evenodd" fill-opacity="1" /><path clip-path="url(#clip920)" d="M1267.06 1542.97 L1271.95 1542.97 L1271.95 1548.85 L1267.06 1548.85 L1267.06 1542.97 Z" fill="#000000" fill-rule="evenodd" fill-opacity="1" /><path clip-path="url(#clip920)" d="M1292.13 1517.37 Q1288.52 1517.37 1286.69 1520.93 Q1284.89 1524.47 1284.89 1531.6 Q1284.89 1538.71 1286.69 1542.27 Q1288.52 1545.82 1292.13 1545.82 Q1295.76 1545.82 1297.57 1542.27 Q1299.4 1538.71 1299.4 1531.6 Q1299.4 1524.47 1297.57 1520.93 Q1295.76 1517.37 1292.13 1517.37 M1292.13 1513.66 Q1297.94 1513.66 1301 1518.27 Q1304.07 1522.85 1304.07 1531.6 Q1304.07 1540.33 1301 1544.94 Q1297.94 1549.52 1292.13 1549.52 Q1286.32 1549.52 1283.24 1544.94 Q1280.19 1540.33 1280.19 1531.6 Q1280.19 1522.85 1283.24 1518.27 Q1286.32 1513.66 1292.13 1513.66 Z" fill="#000000" fill-rule="evenodd" fill-opacity="1" /><path clip-path="url(#clip920)" d="M1758.36 1517.37 Q1754.75 1517.37 1752.92 1520.93 Q1751.11 1524.47 1751.11 1531.6 Q1751.11 1538.71 1752.92 1542.27 Q1754.75 1545.82 1758.36 1545.82 Q1761.99 1545.82 1763.8 1542.27 Q1765.63 1538.71 1765.63 1531.6 Q1765.63 1524.47 1763.8 1520.93 Q1761.99 1517.37 1758.36 1517.37 M1758.36 1513.66 Q1764.17 1513.66 1767.23 1518.27 Q1770.3 1522.85 1770.3 1531.6 Q1770.3 1540.33 1767.23 1544.94 Q1764.17 1549.52 1758.36 1549.52 Q1752.55 1549.52 1749.47 1544.94 Q1746.42 1540.33 1746.42 1531.6 Q1746.42 1522.85 1749.47 1518.27 Q1752.55 1513.66 1758.36 1513.66 Z" fill="#000000" fill-rule="evenodd" fill-opacity="1" /><path clip-path="url(#clip920)" d="M1778.52 1542.97 L1783.41 1542.97 L1783.41 1548.85 L1778.52 1548.85 L1778.52 1542.97 Z" fill="#000000" fill-rule="evenodd" fill-opacity="1" /><path clip-path="url(#clip920)" d="M1793.64 1514.29 L1811.99 1514.29 L1811.99 1518.22 L1797.92 1518.22 L1797.92 1526.7 Q1798.94 1526.35 1799.96 1526.19 Q1800.98 1526 1801.99 1526 Q1807.78 1526 1811.16 1529.17 Q1814.54 1532.34 1814.54 1537.76 Q1814.54 1543.34 1811.07 1546.44 Q1807.6 1549.52 1801.28 1549.52 Q1799.1 1549.52 1796.83 1549.15 Q1794.59 1548.78 1792.18 1548.04 L1792.18 1543.34 Q1794.26 1544.47 1796.48 1545.03 Q1798.71 1545.58 1801.18 1545.58 Q1805.19 1545.58 1807.53 1543.48 Q1809.86 1541.37 1809.86 1537.76 Q1809.86 1534.15 1807.53 1532.04 Q1805.19 1529.94 1801.18 1529.94 Q1799.31 1529.94 1797.43 1530.35 Q1795.58 1530.77 1793.64 1531.65 L1793.64 1514.29 Z" fill="#000000" fill-rule="evenodd" fill-opacity="1" /><path clip-path="url(#clip920)" d="M2258.59 1544.91 L2266.23 1544.91 L2266.23 1518.55 L2257.92 1520.21 L2257.92 1515.95 L2266.19 1514.29 L2270.86 1514.29 L2270.86 1544.91 L2278.5 1544.91 L2278.5 1548.85 L2258.59 1548.85 L2258.59 1544.91 Z" fill="#000000" fill-rule="evenodd" fill-opacity="1" /><path clip-path="url(#clip920)" d="M2287.95 1542.97 L2292.83 1542.97 L2292.83 1548.85 L2287.95 1548.85 L2287.95 1542.97 Z" fill="#000000" fill-rule="evenodd" fill-opacity="1" /><path clip-path="url(#clip920)" d="M2313.01 1517.37 Q2309.4 1517.37 2307.57 1520.93 Q2305.77 1524.47 2305.77 1531.6 Q2305.77 1538.71 2307.57 1542.27 Q2309.4 1545.82 2313.01 1545.82 Q2316.65 1545.82 2318.45 1542.27 Q2320.28 1538.71 2320.28 1531.6 Q2320.28 1524.47 2318.45 1520.93 Q2316.65 1517.37 2313.01 1517.37 M2313.01 1513.66 Q2318.82 1513.66 2321.88 1518.27 Q2324.96 1522.85 2324.96 1531.6 Q2324.96 1540.33 2321.88 1544.94 Q2318.82 1549.52 2313.01 1549.52 Q2307.2 1549.52 2304.13 1544.94 Q2301.07 1540.33 2301.07 1531.6 Q2301.07 1522.85 2304.13 1518.27 Q2307.2 1513.66 2313.01 1513.66 Z" fill="#000000" fill-rule="evenodd" fill-opacity="1" /><polyline clip-path="url(#clip922)" style="stroke:#000000; stroke-linecap:butt; stroke-linejoin:round; stroke-width:2; stroke-opacity:0.1; fill:none" points="
  186.274,1424.77 2352.76,1424.77 
  "/>
<polyline clip-path="url(#clip922)" style="stroke:#000000; stroke-linecap:butt; stroke-linejoin:round; stroke-width:2; stroke-opacity:0.1; fill:none" points="
  186.274,1090.56 2352.76,1090.56 
  "/>
<polyline clip-path="url(#clip922)" style="stroke:#000000; stroke-linecap:butt; stroke-linejoin:round; stroke-width:2; stroke-opacity:0.1; fill:none" points="
  186.274,756.345 2352.76,756.345 
  "/>
<polyline clip-path="url(#clip922)" style="stroke:#000000; stroke-linecap:butt; stroke-linejoin:round; stroke-width:2; stroke-opacity:0.1; fill:none" points="
  186.274,422.134 2352.76,422.134 
  "/>
<polyline clip-path="url(#clip922)" style="stroke:#000000; stroke-linecap:butt; stroke-linejoin:round; stroke-width:2; stroke-opacity:0.1; fill:none" points="
  186.274,87.9226 2352.76,87.9226 
  "/>
<polyline clip-path="url(#clip920)" style="stroke:#000000; stroke-linecap:butt; stroke-linejoin:round; stroke-width:4; stroke-opacity:1; fill:none" points="
  186.274,1486.45 186.274,47.2441 
  "/>
<polyline clip-path="url(#clip920)" style="stroke:#000000; stroke-linecap:butt; stroke-linejoin:round; stroke-width:4; stroke-opacity:1; fill:none" points="
  186.274,1424.77 205.172,1424.77 
  "/>
<polyline clip-path="url(#clip920)" style="stroke:#000000; stroke-linecap:butt; stroke-linejoin:round; stroke-width:4; stroke-opacity:1; fill:none" points="
  186.274,1090.56 205.172,1090.56 
  "/>
<polyline clip-path="url(#clip920)" style="stroke:#000000; stroke-linecap:butt; stroke-linejoin:round; stroke-width:4; stroke-opacity:1; fill:none" points="
  186.274,756.345 205.172,756.345 
  "/>
<polyline clip-path="url(#clip920)" style="stroke:#000000; stroke-linecap:butt; stroke-linejoin:round; stroke-width:4; stroke-opacity:1; fill:none" points="
  186.274,422.134 205.172,422.134 
  "/>
<polyline clip-path="url(#clip920)" style="stroke:#000000; stroke-linecap:butt; stroke-linejoin:round; stroke-width:4; stroke-opacity:1; fill:none" points="
  186.274,87.9226 205.172,87.9226 
  "/>
<path clip-path="url(#clip920)" d="M62.9365 1410.57 Q59.3254 1410.57 57.4967 1414.13 Q55.6912 1417.67 55.6912 1424.8 Q55.6912 1431.91 57.4967 1435.47 Q59.3254 1439.02 62.9365 1439.02 Q66.5707 1439.02 68.3763 1435.47 Q70.205 1431.91 70.205 1424.8 Q70.205 1417.67 68.3763 1414.13 Q66.5707 1410.57 62.9365 1410.57 M62.9365 1406.86 Q68.7467 1406.86 71.8022 1411.47 Q74.8809 1416.05 74.8809 1424.8 Q74.8809 1433.53 71.8022 1438.14 Q68.7467 1442.72 62.9365 1442.72 Q57.1264 1442.72 54.0477 1438.14 Q50.9921 1433.53 50.9921 1424.8 Q50.9921 1416.05 54.0477 1411.47 Q57.1264 1406.86 62.9365 1406.86 Z" fill="#000000" fill-rule="evenodd" fill-opacity="1" /><path clip-path="url(#clip920)" d="M83.0984 1436.17 L87.9827 1436.17 L87.9827 1442.05 L83.0984 1442.05 L83.0984 1436.17 Z" fill="#000000" fill-rule="evenodd" fill-opacity="1" /><path clip-path="url(#clip920)" d="M108.168 1410.57 Q104.557 1410.57 102.728 1414.13 Q100.922 1417.67 100.922 1424.8 Q100.922 1431.91 102.728 1435.47 Q104.557 1439.02 108.168 1439.02 Q111.802 1439.02 113.608 1435.47 Q115.436 1431.91 115.436 1424.8 Q115.436 1417.67 113.608 1414.13 Q111.802 1410.57 108.168 1410.57 M108.168 1406.86 Q113.978 1406.86 117.033 1411.47 Q120.112 1416.05 120.112 1424.8 Q120.112 1433.53 117.033 1438.14 Q113.978 1442.72 108.168 1442.72 Q102.358 1442.72 99.2789 1438.14 Q96.2234 1433.53 96.2234 1424.8 Q96.2234 1416.05 99.2789 1411.47 Q102.358 1406.86 108.168 1406.86 Z" fill="#000000" fill-rule="evenodd" fill-opacity="1" /><path clip-path="url(#clip920)" d="M138.33 1410.57 Q134.719 1410.57 132.89 1414.13 Q131.084 1417.67 131.084 1424.8 Q131.084 1431.91 132.89 1435.47 Q134.719 1439.02 138.33 1439.02 Q141.964 1439.02 143.769 1435.47 Q145.598 1431.91 145.598 1424.8 Q145.598 1417.67 143.769 1414.13 Q141.964 1410.57 138.33 1410.57 M138.33 1406.86 Q144.14 1406.86 147.195 1411.47 Q150.274 1416.05 150.274 1424.8 Q150.274 1433.53 147.195 1438.14 Q144.14 1442.72 138.33 1442.72 Q132.519 1442.72 129.441 1438.14 Q126.385 1433.53 126.385 1424.8 Q126.385 1416.05 129.441 1411.47 Q132.519 1406.86 138.33 1406.86 Z" fill="#000000" fill-rule="evenodd" fill-opacity="1" /><path clip-path="url(#clip920)" d="M63.9319 1076.36 Q60.3208 1076.36 58.4921 1079.92 Q56.6865 1083.46 56.6865 1090.59 Q56.6865 1097.7 58.4921 1101.26 Q60.3208 1104.8 63.9319 1104.8 Q67.5661 1104.8 69.3717 1101.26 Q71.2004 1097.7 71.2004 1090.59 Q71.2004 1083.46 69.3717 1079.92 Q67.5661 1076.36 63.9319 1076.36 M63.9319 1072.65 Q69.742 1072.65 72.7976 1077.26 Q75.8763 1081.84 75.8763 1090.59 Q75.8763 1099.32 72.7976 1103.92 Q69.742 1108.51 63.9319 1108.51 Q58.1217 1108.51 55.043 1103.92 Q51.9875 1099.32 51.9875 1090.59 Q51.9875 1081.84 55.043 1077.26 Q58.1217 1072.65 63.9319 1072.65 Z" fill="#000000" fill-rule="evenodd" fill-opacity="1" /><path clip-path="url(#clip920)" d="M84.0938 1101.96 L88.978 1101.96 L88.978 1107.84 L84.0938 1107.84 L84.0938 1101.96 Z" fill="#000000" fill-rule="evenodd" fill-opacity="1" /><path clip-path="url(#clip920)" d="M103.191 1103.9 L119.51 1103.9 L119.51 1107.84 L97.566 1107.84 L97.566 1103.9 Q100.228 1101.15 104.811 1096.52 Q109.418 1091.86 110.598 1090.52 Q112.844 1088 113.723 1086.26 Q114.626 1084.5 114.626 1082.81 Q114.626 1080.06 112.682 1078.32 Q110.76 1076.59 107.658 1076.59 Q105.459 1076.59 103.006 1077.35 Q100.575 1078.11 97.7974 1079.67 L97.7974 1074.94 Q100.621 1073.81 103.075 1073.23 Q105.529 1072.65 107.566 1072.65 Q112.936 1072.65 116.131 1075.34 Q119.325 1078.02 119.325 1082.51 Q119.325 1084.64 118.515 1086.56 Q117.728 1088.46 115.621 1091.05 Q115.043 1091.73 111.941 1094.94 Q108.839 1098.14 103.191 1103.9 Z" fill="#000000" fill-rule="evenodd" fill-opacity="1" /><path clip-path="url(#clip920)" d="M129.371 1073.28 L147.728 1073.28 L147.728 1077.21 L133.654 1077.21 L133.654 1085.68 Q134.672 1085.34 135.691 1085.17 Q136.709 1084.99 137.728 1084.99 Q143.515 1084.99 146.894 1088.16 Q150.274 1091.33 150.274 1096.75 Q150.274 1102.33 146.802 1105.43 Q143.33 1108.51 137.01 1108.51 Q134.834 1108.51 132.566 1108.14 Q130.32 1107.77 127.913 1107.03 L127.913 1102.33 Q129.996 1103.46 132.219 1104.02 Q134.441 1104.57 136.918 1104.57 Q140.922 1104.57 143.26 1102.47 Q145.598 1100.36 145.598 1096.75 Q145.598 1093.14 143.26 1091.03 Q140.922 1088.92 136.918 1088.92 Q135.043 1088.92 133.168 1089.34 Q131.316 1089.76 129.371 1090.64 L129.371 1073.28 Z" fill="#000000" fill-rule="evenodd" fill-opacity="1" /><path clip-path="url(#clip920)" d="M62.9365 742.144 Q59.3254 742.144 57.4967 745.709 Q55.6912 749.25 55.6912 756.38 Q55.6912 763.486 57.4967 767.051 Q59.3254 770.593 62.9365 770.593 Q66.5707 770.593 68.3763 767.051 Q70.205 763.486 70.205 756.38 Q70.205 749.25 68.3763 745.709 Q66.5707 742.144 62.9365 742.144 M62.9365 738.44 Q68.7467 738.44 71.8022 743.047 Q74.8809 747.63 74.8809 756.38 Q74.8809 765.107 71.8022 769.713 Q68.7467 774.297 62.9365 774.297 Q57.1264 774.297 54.0477 769.713 Q50.9921 765.107 50.9921 756.38 Q50.9921 747.63 54.0477 743.047 Q57.1264 738.44 62.9365 738.44 Z" fill="#000000" fill-rule="evenodd" fill-opacity="1" /><path clip-path="url(#clip920)" d="M83.0984 767.746 L87.9827 767.746 L87.9827 773.625 L83.0984 773.625 L83.0984 767.746 Z" fill="#000000" fill-rule="evenodd" fill-opacity="1" /><path clip-path="url(#clip920)" d="M98.2141 739.065 L116.57 739.065 L116.57 743 L102.496 743 L102.496 751.473 Q103.515 751.125 104.534 750.963 Q105.552 750.778 106.571 750.778 Q112.358 750.778 115.737 753.949 Q119.117 757.121 119.117 762.537 Q119.117 768.116 115.645 771.218 Q112.172 774.297 105.853 774.297 Q103.677 774.297 101.409 773.926 Q99.1632 773.556 96.7558 772.815 L96.7558 768.116 Q98.8391 769.25 101.061 769.806 Q103.284 770.361 105.76 770.361 Q109.765 770.361 112.103 768.255 Q114.441 766.148 114.441 762.537 Q114.441 758.926 112.103 756.82 Q109.765 754.713 105.76 754.713 Q103.885 754.713 102.01 755.13 Q100.159 755.547 98.2141 756.426 L98.2141 739.065 Z" fill="#000000" fill-rule="evenodd" fill-opacity="1" /><path clip-path="url(#clip920)" d="M138.33 742.144 Q134.719 742.144 132.89 745.709 Q131.084 749.25 131.084 756.38 Q131.084 763.486 132.89 767.051 Q134.719 770.593 138.33 770.593 Q141.964 770.593 143.769 767.051 Q145.598 763.486 145.598 756.38 Q145.598 749.25 143.769 745.709 Q141.964 742.144 138.33 742.144 M138.33 738.44 Q144.14 738.44 147.195 743.047 Q150.274 747.63 150.274 756.38 Q150.274 765.107 147.195 769.713 Q144.14 774.297 138.33 774.297 Q132.519 774.297 129.441 769.713 Q126.385 765.107 126.385 756.38 Q126.385 747.63 129.441 743.047 Q132.519 738.44 138.33 738.44 Z" fill="#000000" fill-rule="evenodd" fill-opacity="1" /><path clip-path="url(#clip920)" d="M63.9319 407.933 Q60.3208 407.933 58.4921 411.497 Q56.6865 415.039 56.6865 422.169 Q56.6865 429.275 58.4921 432.84 Q60.3208 436.382 63.9319 436.382 Q67.5661 436.382 69.3717 432.84 Q71.2004 429.275 71.2004 422.169 Q71.2004 415.039 69.3717 411.497 Q67.5661 407.933 63.9319 407.933 M63.9319 404.229 Q69.742 404.229 72.7976 408.835 Q75.8763 413.419 75.8763 422.169 Q75.8763 430.895 72.7976 435.502 Q69.742 440.085 63.9319 440.085 Q58.1217 440.085 55.043 435.502 Q51.9875 430.895 51.9875 422.169 Q51.9875 413.419 55.043 408.835 Q58.1217 404.229 63.9319 404.229 Z" fill="#000000" fill-rule="evenodd" fill-opacity="1" /><path clip-path="url(#clip920)" d="M84.0938 433.534 L88.978 433.534 L88.978 439.414 L84.0938 439.414 L84.0938 433.534 Z" fill="#000000" fill-rule="evenodd" fill-opacity="1" /><path clip-path="url(#clip920)" d="M97.9826 404.854 L120.205 404.854 L120.205 406.845 L107.658 439.414 L102.774 439.414 L114.58 408.789 L97.9826 408.789 L97.9826 404.854 Z" fill="#000000" fill-rule="evenodd" fill-opacity="1" /><path clip-path="url(#clip920)" d="M129.371 404.854 L147.728 404.854 L147.728 408.789 L133.654 408.789 L133.654 417.261 Q134.672 416.914 135.691 416.752 Q136.709 416.567 137.728 416.567 Q143.515 416.567 146.894 419.738 Q150.274 422.909 150.274 428.326 Q150.274 433.905 146.802 437.007 Q143.33 440.085 137.01 440.085 Q134.834 440.085 132.566 439.715 Q130.32 439.345 127.913 438.604 L127.913 433.905 Q129.996 435.039 132.219 435.595 Q134.441 436.15 136.918 436.15 Q140.922 436.15 143.26 434.044 Q145.598 431.937 145.598 428.326 Q145.598 424.715 143.26 422.608 Q140.922 420.502 136.918 420.502 Q135.043 420.502 133.168 420.919 Q131.316 421.335 129.371 422.215 L129.371 404.854 Z" fill="#000000" fill-rule="evenodd" fill-opacity="1" /><path clip-path="url(#clip920)" d="M53.7467 101.267 L61.3856 101.267 L61.3856 74.9018 L53.0754 76.5685 L53.0754 72.3092 L61.3393 70.6426 L66.0152 70.6426 L66.0152 101.267 L73.654 101.267 L73.654 105.203 L53.7467 105.203 L53.7467 101.267 Z" fill="#000000" fill-rule="evenodd" fill-opacity="1" /><path clip-path="url(#clip920)" d="M83.0984 99.323 L87.9827 99.323 L87.9827 105.203 L83.0984 105.203 L83.0984 99.323 Z" fill="#000000" fill-rule="evenodd" fill-opacity="1" /><path clip-path="url(#clip920)" d="M108.168 73.7213 Q104.557 73.7213 102.728 77.2861 Q100.922 80.8277 100.922 87.9573 Q100.922 95.0638 102.728 98.6286 Q104.557 102.17 108.168 102.17 Q111.802 102.17 113.608 98.6286 Q115.436 95.0638 115.436 87.9573 Q115.436 80.8277 113.608 77.2861 Q111.802 73.7213 108.168 73.7213 M108.168 70.0176 Q113.978 70.0176 117.033 74.6241 Q120.112 79.2074 120.112 87.9573 Q120.112 96.6841 117.033 101.291 Q113.978 105.874 108.168 105.874 Q102.358 105.874 99.2789 101.291 Q96.2234 96.6841 96.2234 87.9573 Q96.2234 79.2074 99.2789 74.6241 Q102.358 70.0176 108.168 70.0176 Z" fill="#000000" fill-rule="evenodd" fill-opacity="1" /><path clip-path="url(#clip920)" d="M138.33 73.7213 Q134.719 73.7213 132.89 77.2861 Q131.084 80.8277 131.084 87.9573 Q131.084 95.0638 132.89 98.6286 Q134.719 102.17 138.33 102.17 Q141.964 102.17 143.769 98.6286 Q145.598 95.0638 145.598 87.9573 Q145.598 80.8277 143.769 77.2861 Q141.964 73.7213 138.33 73.7213 M138.33 70.0176 Q144.14 70.0176 147.195 74.6241 Q150.274 79.2074 150.274 87.9573 Q150.274 96.6841 147.195 101.291 Q144.14 105.874 138.33 105.874 Q132.519 105.874 129.441 101.291 Q126.385 96.6841 126.385 87.9573 Q126.385 79.2074 129.441 74.6241 Q132.519 70.0176 138.33 70.0176 Z" fill="#000000" fill-rule="evenodd" fill-opacity="1" /><polyline clip-path="url(#clip922)" style="stroke:#009af9; stroke-linecap:butt; stroke-linejoin:round; stroke-width:16; stroke-opacity:1; fill:none" points="
  247.59,1445.72 251.685,1428.32 255.781,1411.76 259.877,1396.01 263.973,1381.05 268.069,1366.86 272.165,1353.41 276.261,1340.68 280.357,1328.65 284.453,1317.29 
  288.548,1306.58 292.644,1296.5 296.74,1287.03 300.836,1278.14 304.932,1269.83 309.028,1262.06 313.124,1254.81 317.22,1248.07 321.316,1241.83 325.412,1236.05 
  329.507,1230.72 333.603,1225.83 337.699,1221.35 341.795,1217.27 345.891,1213.57 349.987,1210.24 354.083,1207.25 358.179,1204.6 362.275,1202.26 366.37,1200.22 
  370.466,1198.48 374.562,1197 378.658,1195.78 382.754,1194.8 386.85,1194.06 390.946,1193.53 395.042,1193.2 399.138,1193.06 403.233,1193.1 407.329,1193.31 
  411.425,1193.67 415.521,1194.17 419.617,1194.8 423.713,1195.55 427.809,1196.41 431.905,1197.37 436.001,1198.42 440.097,1199.54 444.192,1200.73 448.288,1201.98 
  452.384,1203.27 456.48,1204.61 460.576,1205.98 464.672,1207.37 468.768,1208.78 472.864,1210.19 476.96,1211.6 481.055,1213 485.151,1214.38 489.247,1215.74 
  493.343,1217.07 497.439,1218.37 501.535,1219.62 505.631,1220.82 509.727,1221.96 513.823,1223.04 517.918,1224.06 522.014,1225 526.11,1225.87 530.206,1226.65 
  534.302,1227.35 538.398,1227.95 542.494,1228.46 546.59,1228.86 550.686,1229.17 554.782,1229.36 558.877,1229.44 562.973,1229.41 567.069,1229.25 571.165,1228.98 
  575.261,1228.58 579.357,1228.05 583.453,1227.39 587.549,1226.6 591.645,1225.67 595.74,1224.61 599.836,1223.41 603.932,1222.06 608.028,1220.57 612.124,1218.94 
  616.22,1217.16 620.316,1215.24 624.412,1213.16 628.508,1210.94 632.604,1208.56 636.699,1206.04 640.795,1203.36 644.891,1200.53 648.987,1197.55 653.083,1194.42 
  657.179,1191.13 661.275,1187.69 665.371,1184.1 669.467,1180.36 673.562,1176.46 677.658,1172.41 681.754,1168.21 685.85,1163.86 689.946,1159.36 694.042,1154.72 
  698.138,1149.92 702.234,1144.98 706.33,1139.89 710.425,1134.66 714.521,1129.28 718.617,1123.76 722.713,1118.1 726.809,1112.31 730.905,1106.37 735.001,1100.31 
  739.097,1094.1 743.193,1087.77 747.289,1081.31 751.384,1074.72 755.48,1068 759.576,1061.16 763.672,1054.2 767.768,1047.12 771.864,1039.92 775.96,1032.61 
  780.056,1025.19 784.152,1017.66 788.247,1010.02 792.343,1002.28 796.439,994.441 800.535,986.5 804.631,978.463 808.727,970.333 812.823,962.113 816.919,953.806 
  821.015,945.414 825.111,936.942 829.206,928.39 833.302,919.763 837.398,911.064 841.494,902.296 845.59,893.462 849.686,884.564 853.782,875.607 857.878,866.594 
  861.974,857.526 866.069,848.409 870.165,839.245 874.261,830.037 878.357,820.789 882.453,811.504 886.549,802.184 890.645,792.835 894.741,783.458 898.837,774.058 
  902.932,764.637 907.028,755.199 911.124,745.748 915.22,736.286 919.316,726.817 923.412,717.345 927.508,707.872 931.604,698.402 935.7,688.939 939.796,679.486 
  943.891,670.045 947.987,660.621 952.083,651.217 956.179,641.837 960.275,632.482 964.371,623.157 968.467,613.865 972.563,604.61 976.659,595.394 980.754,586.22 
  984.85,577.093 988.946,568.014 993.042,558.988 997.138,550.018 1001.23,541.105 1005.33,532.255 1009.43,523.469 1013.52,514.751 1017.62,506.104 1021.71,497.531 
  1025.81,489.034 1029.91,480.618 1034,472.283 1038.1,464.035 1042.19,455.875 1046.29,447.805 1050.38,439.83 1054.48,431.952 1058.58,424.173 1062.67,416.496 
  1066.77,408.923 1070.86,401.458 1074.96,394.103 1079.06,386.86 1083.15,379.732 1087.25,372.721 1091.34,365.83 1095.44,359.061 1099.54,352.417 1103.63,345.899 
  1107.73,339.509 1111.82,333.251 1115.92,327.126 1120.01,321.136 1124.11,315.283 1128.21,309.57 1132.3,303.997 1136.4,298.568 1140.49,293.283 1144.59,288.145 
  1148.69,283.156 1152.78,278.317 1156.88,273.629 1160.97,269.095 1165.07,264.716 1169.17,260.493 1173.26,256.427 1177.36,252.521 1181.45,248.776 1185.55,245.192 
  1189.65,241.771 1193.74,238.514 1197.84,235.422 1201.93,232.497 1206.03,229.739 1210.12,227.149 1214.22,224.728 1218.32,222.477 1222.41,220.396 1226.51,218.487 
  1230.6,216.75 1234.7,215.186 1238.8,213.795 1242.89,212.577 1246.99,211.534 1251.08,210.664 1255.18,209.97 1259.28,209.451 1263.37,209.106 1267.47,208.938 
  1271.56,208.944 1275.66,209.126 1279.75,209.483 1283.85,210.016 1287.95,210.723 1292.04,211.606 1296.14,212.663 1300.23,213.894 1304.33,215.299 1308.43,216.878 
  1312.52,218.63 1316.62,220.554 1320.71,222.649 1324.81,224.916 1328.91,227.353 1333,229.96 1337.1,232.736 1341.19,235.679 1345.29,238.789 1349.38,242.065 
  1353.48,245.506 1357.58,249.11 1361.67,252.877 1365.77,256.805 1369.86,260.893 1373.96,265.139 1378.06,269.543 1382.15,274.103 1386.25,278.816 1390.34,283.683 
  1394.44,288.7 1398.54,293.867 1402.63,299.181 1406.73,304.642 1410.82,310.247 1414.92,315.993 1419.02,321.881 1423.11,327.906 1427.21,334.068 1431.3,340.364 
  1435.4,346.793 1439.49,353.351 1443.59,360.038 1447.69,366.85 1451.78,373.785 1455.88,380.842 1459.97,388.017 1464.07,395.308 1468.17,402.713 1472.26,410.229 
  1476.36,417.854 1480.45,425.586 1484.55,433.42 1488.65,441.356 1492.74,449.39 1496.84,457.519 1500.93,465.741 1505.03,474.053 1509.12,482.452 1513.22,490.936 
  1517.32,499.5 1521.41,508.143 1525.51,516.862 1529.6,525.653 1533.7,534.513 1537.8,543.439 1541.89,552.429 1545.99,561.48 1550.08,570.587 1554.18,579.748 
  1558.28,588.96 1562.37,598.219 1566.47,607.523 1570.56,616.868 1574.66,626.251 1578.75,635.669 1582.85,645.118 1586.95,654.595 1591.04,664.097 1595.14,673.62 
  1599.23,683.162 1603.33,692.718 1607.43,702.285 1611.52,711.861 1615.62,721.441 1619.71,731.023 1623.81,740.602 1627.91,750.176 1632,759.742 1636.1,769.295 
  1640.19,778.833 1644.29,788.351 1648.39,797.848 1652.48,807.319 1656.58,816.76 1660.67,826.17 1664.77,835.544 1668.86,844.878 1672.96,854.171 1677.06,863.417 
  1681.15,872.615 1685.25,881.761 1689.34,890.851 1693.44,899.883 1697.54,908.853 1701.63,917.758 1705.73,926.594 1709.82,935.36 1713.92,944.051 1718.02,952.664 
  1722.11,961.197 1726.21,969.647 1730.3,978.01 1734.4,986.283 1738.49,994.465 1742.59,1002.55 1746.69,1010.54 1750.78,1018.43 1754.88,1026.21 1758.97,1033.89 
  1763.07,1041.46 1767.17,1048.92 1771.26,1056.26 1775.36,1063.49 1779.45,1070.6 1783.55,1077.58 1787.65,1084.45 1791.74,1091.19 1795.84,1097.8 1799.93,1104.28 
  1804.03,1110.63 1808.12,1116.85 1812.22,1122.93 1816.32,1128.87 1820.41,1134.67 1824.51,1140.34 1828.6,1145.86 1832.7,1151.23 1836.8,1156.46 1840.89,1161.55 
  1844.99,1166.48 1849.08,1171.27 1853.18,1175.9 1857.28,1180.39 1861.37,1184.72 1865.47,1188.9 1869.56,1192.93 1873.66,1196.8 1877.76,1200.52 1881.85,1204.09 
  1885.95,1207.5 1890.04,1210.75 1894.14,1213.85 1898.23,1216.79 1902.33,1219.58 1906.43,1222.22 1910.52,1224.7 1914.62,1227.02 1918.71,1229.2 1922.81,1231.22 
  1926.91,1233.09 1931,1234.82 1935.1,1236.39 1939.19,1237.82 1943.29,1239.1 1947.39,1240.24 1951.48,1241.24 1955.58,1242.09 1959.67,1242.81 1963.77,1243.4 
  1967.86,1243.85 1971.96,1244.17 1976.06,1244.37 1980.15,1244.44 1984.25,1244.38 1988.34,1244.22 1992.44,1243.93 1996.54,1243.54 2000.63,1243.04 2004.73,1242.43 
  2008.82,1241.73 2012.92,1240.93 2017.02,1240.05 2021.11,1239.08 2025.21,1238.03 2029.3,1236.9 2033.4,1235.71 2037.49,1234.45 2041.59,1233.13 2045.69,1231.77 
  2049.78,1230.35 2053.88,1228.9 2057.97,1227.42 2062.07,1225.91 2066.17,1224.38 2070.26,1222.84 2074.36,1221.29 2078.45,1219.76 2082.55,1218.23 2086.65,1216.72 
  2090.74,1215.25 2094.84,1213.81 2098.93,1212.42 2103.03,1211.08 2107.13,1209.81 2111.22,1208.62 2115.32,1207.51 2119.41,1206.5 2123.51,1205.6 2127.6,1204.81 
  2131.7,1204.15 2135.8,1203.63 2139.89,1203.26 2143.99,1203.06 2148.08,1203.03 2152.18,1203.2 2156.28,1203.56 2160.37,1204.14 2164.47,1204.94 2168.56,1205.99 
  2172.66,1207.3 2176.76,1208.87 2180.85,1210.73 2184.95,1212.89 2189.04,1215.36 2193.14,1218.17 2197.23,1221.32 2201.33,1224.84 2205.43,1228.74 2209.52,1233.03 
  2213.62,1237.74 2217.71,1242.88 2221.81,1248.47 2225.91,1254.53 2230,1261.08 2234.1,1268.13 2238.19,1275.71 2242.29,1283.84 2246.39,1292.53 2250.48,1301.81 
  2254.58,1311.69 2258.67,1322.21 2262.77,1333.37 2266.87,1345.21 2270.96,1357.74 2275.06,1370.99 2279.15,1384.98 2283.25,1399.74 2287.34,1415.29 2291.44,1431.65 
  
  "/>
<polyline clip-path="url(#clip922)" style="stroke:#e26f46; stroke-linecap:butt; stroke-linejoin:round; stroke-width:16; stroke-opacity:1; fill:none" points="
  247.59,1303.24 251.685,1302.35 255.781,1301.45 259.877,1300.54 263.973,1299.62 268.069,1298.69 272.165,1297.75 276.261,1296.8 280.357,1295.84 284.453,1294.87 
  288.548,1293.89 292.644,1292.9 296.74,1291.9 300.836,1290.88 304.932,1289.86 309.028,1288.82 313.124,1287.78 317.22,1286.72 321.316,1285.65 325.412,1284.56 
  329.507,1283.47 333.603,1282.36 337.699,1281.24 341.795,1280.11 345.891,1278.96 349.987,1277.8 354.083,1276.63 358.179,1275.45 362.275,1274.25 366.37,1273.03 
  370.466,1271.81 374.562,1270.57 378.658,1269.31 382.754,1268.04 386.85,1266.75 390.946,1265.45 395.042,1264.14 399.138,1262.8 403.233,1261.46 407.329,1260.09 
  411.425,1258.71 415.521,1257.32 419.617,1255.9 423.713,1254.47 427.809,1253.02 431.905,1251.56 436.001,1250.08 440.097,1248.57 444.192,1247.05 448.288,1245.51 
  452.384,1243.96 456.48,1242.38 460.576,1240.78 464.672,1239.17 468.768,1237.53 472.864,1235.87 476.96,1234.19 481.055,1232.49 485.151,1230.77 489.247,1229.03 
  493.343,1227.26 497.439,1225.48 501.535,1223.67 505.631,1221.83 509.727,1219.97 513.823,1218.09 517.918,1216.18 522.014,1214.25 526.11,1212.3 530.206,1210.32 
  534.302,1208.31 538.398,1206.27 542.494,1204.21 546.59,1202.12 550.686,1200.01 554.782,1197.86 558.877,1195.69 562.973,1193.48 567.069,1191.25 571.165,1188.99 
  575.261,1186.7 579.357,1184.37 583.453,1182.01 587.549,1179.63 591.645,1177.21 595.74,1174.75 599.836,1172.26 603.932,1169.74 608.028,1167.18 612.124,1164.59 
  616.22,1161.96 620.316,1159.29 624.412,1156.59 628.508,1153.85 632.604,1151.07 636.699,1148.25 640.795,1145.39 644.891,1142.49 648.987,1139.55 653.083,1136.57 
  657.179,1133.54 661.275,1130.47 665.371,1127.36 669.467,1124.2 673.562,1121 677.658,1117.75 681.754,1114.45 685.85,1111.1 689.946,1107.71 694.042,1104.27 
  698.138,1100.77 702.234,1097.23 706.33,1093.63 710.425,1089.98 714.521,1086.28 718.617,1082.52 722.713,1078.7 726.809,1074.83 730.905,1070.9 735.001,1066.92 
  739.097,1062.87 743.193,1058.77 747.289,1054.6 751.384,1050.37 755.48,1046.07 759.576,1041.72 763.672,1037.29 767.768,1032.8 771.864,1028.25 775.96,1023.62 
  780.056,1018.93 784.152,1014.16 788.247,1009.32 792.343,1004.41 796.439,999.428 800.535,994.368 804.631,989.233 808.727,984.019 812.823,978.728 816.919,973.356 
  821.015,967.904 825.111,962.37 829.206,956.753 833.302,951.052 837.398,945.266 841.494,939.393 845.59,933.432 849.686,927.382 853.782,921.243 857.878,915.013 
  861.974,908.69 866.069,902.275 870.165,895.765 874.261,889.16 878.357,882.458 882.453,875.659 886.549,868.762 890.645,861.765 894.741,854.669 898.837,847.471 
  902.932,840.171 907.028,832.769 911.124,825.263 915.22,817.653 919.316,809.938 923.412,802.117 927.508,794.191 931.604,786.158 935.7,778.019 939.796,769.773 
  943.891,761.419 947.987,752.958 952.083,744.39 956.179,735.714 960.275,726.931 964.371,718.042 968.467,709.046 972.563,699.945 976.659,690.738 980.754,681.428 
  984.85,672.015 988.946,662.499 993.042,652.884 997.138,643.169 1001.23,633.358 1005.33,623.451 1009.43,613.452 1013.52,603.361 1017.62,593.183 1021.71,582.92 
  1025.81,572.575 1029.91,562.152 1034,551.653 1038.1,541.084 1042.19,530.448 1046.29,519.749 1050.38,508.993 1054.48,498.185 1058.58,487.33 1062.67,476.433 
  1066.77,465.502 1070.86,454.542 1074.96,443.56 1079.06,432.563 1083.15,421.559 1087.25,410.555 1091.34,399.56 1095.44,388.582 1099.54,377.63 1103.63,366.713 
  1107.73,355.84 1111.82,345.022 1115.92,334.269 1120.01,323.591 1124.11,312.999 1128.21,302.504 1132.3,292.117 1136.4,281.851 1140.49,271.716 1144.59,261.724 
  1148.69,251.889 1152.78,242.223 1156.88,232.737 1160.97,223.445 1165.07,214.359 1169.17,205.492 1173.26,196.856 1177.36,188.465 1181.45,180.33 1185.55,172.465 
  1189.65,164.882 1193.74,157.592 1197.84,150.607 1201.93,143.939 1206.03,137.6 1210.12,131.599 1214.22,125.948 1218.32,120.656 1222.41,115.733 1226.51,111.187 
  1230.6,107.027 1234.7,103.261 1238.8,99.8943 1242.89,96.9348 1246.99,94.3875 1251.08,92.2572 1255.18,90.5482 1259.28,89.2635 1263.37,88.4056 1267.47,87.9763 
  1271.56,87.9763 1275.66,88.4056 1279.75,89.2635 1283.85,90.5482 1287.95,92.2572 1292.04,94.3875 1296.14,96.9348 1300.23,99.8943 1304.33,103.261 1308.43,107.027 
  1312.52,111.187 1316.62,115.733 1320.71,120.656 1324.81,125.948 1328.91,131.599 1333,137.6 1337.1,143.939 1341.19,150.607 1345.29,157.592 1349.38,164.882 
  1353.48,172.465 1357.58,180.33 1361.67,188.465 1365.77,196.856 1369.86,205.492 1373.96,214.359 1378.06,223.445 1382.15,232.737 1386.25,242.223 1390.34,251.889 
  1394.44,261.724 1398.54,271.716 1402.63,281.851 1406.73,292.117 1410.82,302.504 1414.92,312.999 1419.02,323.591 1423.11,334.269 1427.21,345.022 1431.3,355.84 
  1435.4,366.713 1439.49,377.63 1443.59,388.582 1447.69,399.56 1451.78,410.555 1455.88,421.559 1459.97,432.563 1464.07,443.56 1468.17,454.542 1472.26,465.502 
  1476.36,476.433 1480.45,487.33 1484.55,498.185 1488.65,508.993 1492.74,519.749 1496.84,530.448 1500.93,541.084 1505.03,551.653 1509.12,562.152 1513.22,572.575 
  1517.32,582.92 1521.41,593.183 1525.51,603.361 1529.6,613.452 1533.7,623.451 1537.8,633.358 1541.89,643.169 1545.99,652.884 1550.08,662.499 1554.18,672.015 
  1558.28,681.428 1562.37,690.738 1566.47,699.945 1570.56,709.046 1574.66,718.042 1578.75,726.931 1582.85,735.714 1586.95,744.39 1591.04,752.958 1595.14,761.419 
  1599.23,769.773 1603.33,778.019 1607.43,786.158 1611.52,794.191 1615.62,802.117 1619.71,809.938 1623.81,817.653 1627.91,825.263 1632,832.769 1636.1,840.171 
  1640.19,847.471 1644.29,854.669 1648.39,861.765 1652.48,868.762 1656.58,875.659 1660.67,882.458 1664.77,889.16 1668.86,895.765 1672.96,902.275 1677.06,908.69 
  1681.15,915.013 1685.25,921.243 1689.34,927.382 1693.44,933.432 1697.54,939.393 1701.63,945.266 1705.73,951.052 1709.82,956.753 1713.92,962.37 1718.02,967.904 
  1722.11,973.356 1726.21,978.728 1730.3,984.019 1734.4,989.233 1738.49,994.368 1742.59,999.428 1746.69,1004.41 1750.78,1009.32 1754.88,1014.16 1758.97,1018.93 
  1763.07,1023.62 1767.17,1028.25 1771.26,1032.8 1775.36,1037.29 1779.45,1041.72 1783.55,1046.07 1787.65,1050.37 1791.74,1054.6 1795.84,1058.77 1799.93,1062.87 
  1804.03,1066.92 1808.12,1070.9 1812.22,1074.83 1816.32,1078.7 1820.41,1082.52 1824.51,1086.28 1828.6,1089.98 1832.7,1093.63 1836.8,1097.23 1840.89,1100.77 
  1844.99,1104.27 1849.08,1107.71 1853.18,1111.1 1857.28,1114.45 1861.37,1117.75 1865.47,1121 1869.56,1124.2 1873.66,1127.36 1877.76,1130.47 1881.85,1133.54 
  1885.95,1136.57 1890.04,1139.55 1894.14,1142.49 1898.23,1145.39 1902.33,1148.25 1906.43,1151.07 1910.52,1153.85 1914.62,1156.59 1918.71,1159.29 1922.81,1161.96 
  1926.91,1164.59 1931,1167.18 1935.1,1169.74 1939.19,1172.26 1943.29,1174.75 1947.39,1177.21 1951.48,1179.63 1955.58,1182.01 1959.67,1184.37 1963.77,1186.7 
  1967.86,1188.99 1971.96,1191.25 1976.06,1193.48 1980.15,1195.69 1984.25,1197.86 1988.34,1200.01 1992.44,1202.12 1996.54,1204.21 2000.63,1206.27 2004.73,1208.31 
  2008.82,1210.32 2012.92,1212.3 2017.02,1214.25 2021.11,1216.18 2025.21,1218.09 2029.3,1219.97 2033.4,1221.83 2037.49,1223.67 2041.59,1225.48 2045.69,1227.26 
  2049.78,1229.03 2053.88,1230.77 2057.97,1232.49 2062.07,1234.19 2066.17,1235.87 2070.26,1237.53 2074.36,1239.17 2078.45,1240.78 2082.55,1242.38 2086.65,1243.96 
  2090.74,1245.51 2094.84,1247.05 2098.93,1248.57 2103.03,1250.08 2107.13,1251.56 2111.22,1253.02 2115.32,1254.47 2119.41,1255.9 2123.51,1257.32 2127.6,1258.71 
  2131.7,1260.09 2135.8,1261.46 2139.89,1262.8 2143.99,1264.14 2148.08,1265.45 2152.18,1266.75 2156.28,1268.04 2160.37,1269.31 2164.47,1270.57 2168.56,1271.81 
  2172.66,1273.03 2176.76,1274.25 2180.85,1275.45 2184.95,1276.63 2189.04,1277.8 2193.14,1278.96 2197.23,1280.11 2201.33,1281.24 2205.43,1282.36 2209.52,1283.47 
  2213.62,1284.56 2217.71,1285.65 2221.81,1286.72 2225.91,1287.78 2230,1288.82 2234.1,1289.86 2238.19,1290.88 2242.29,1291.9 2246.39,1292.9 2250.48,1293.89 
  2254.58,1294.87 2258.67,1295.84 2262.77,1296.8 2266.87,1297.75 2270.96,1298.69 2275.06,1299.62 2279.15,1300.54 2283.25,1301.45 2287.34,1302.35 2291.44,1303.24 
  
  "/>
<path clip-path="url(#clip920)" d="
M1812.17 344.429 L2280.54 344.429 L2280.54 95.2176 L1812.17 95.2176  Z
  " fill="#ffffff" fill-rule="evenodd" fill-opacity="1"/>
<polyline clip-path="url(#clip920)" style="stroke:#000000; stroke-linecap:butt; stroke-linejoin:round; stroke-width:4; stroke-opacity:1; fill:none" points="
  1812.17,344.429 2280.54,344.429 2280.54,95.2176 1812.17,95.2176 1812.17,344.429 
  "/>
<polyline clip-path="url(#clip920)" style="stroke:#009af9; stroke-linecap:butt; stroke-linejoin:round; stroke-width:6; stroke-opacity:1; fill:none" points="
  1836.24,178.288 1980.68,178.288 
  "/>
<path clip-path="url(#clip920)" d="M2056.92 165.405 L2055.48 177.843 Q2055.38 178.967 2055.2 179.318 Q2055.02 179.634 2054.46 179.634 Q2054.04 179.634 2053.8 179.388 Q2053.58 179.107 2053.58 178.791 Q2053.58 178.616 2053.62 178.159 Q2053.65 177.702 2053.65 177.491 Q2053.97 175.313 2053.97 173.662 Q2053.97 170.605 2053.06 168.954 Q2052.14 167.267 2049.79 166.494 Q2047.44 165.686 2043.01 165.686 L2032.89 165.686 Q2030.57 165.686 2030.01 166.108 Q2029.48 166.53 2028.99 168.497 L2024.67 185.818 L2031.45 185.818 Q2033.98 185.818 2035.49 185.502 Q2037.04 185.186 2038.06 184.307 Q2039.11 183.394 2039.67 182.164 Q2040.27 180.934 2040.87 178.721 Q2041.04 177.983 2041.22 177.702 Q2041.43 177.421 2041.88 177.421 Q2042.24 177.421 2042.48 177.667 Q2042.73 177.878 2042.73 178.194 L2038.62 195.023 Q2038.41 195.866 2038.2 196.182 Q2037.99 196.463 2037.56 196.463 Q2037.11 196.463 2036.86 196.218 Q2036.61 195.972 2036.61 195.69 Q2036.61 195.409 2036.83 194.882 Q2037.35 192.599 2037.35 191.369 Q2037.35 190.666 2037.28 190.315 Q2037.25 189.964 2036.93 189.472 Q2036.65 188.945 2036.02 188.699 Q2035.39 188.453 2034.19 188.277 Q2033 188.066 2031.2 188.066 L2024.11 188.066 L2019.19 207.706 Q2018.84 209.006 2018.84 209.357 Q2018.84 209.744 2019.01 209.885 Q2019.22 209.99 2019.79 210.06 Q2020.42 210.166 2021.37 210.166 L2031.87 210.166 Q2034.19 210.166 2036.05 209.955 Q2037.91 209.744 2039.46 209.217 Q2041.04 208.69 2042.24 208.093 Q2043.43 207.495 2044.56 206.406 Q2045.68 205.282 2046.45 204.298 Q2047.26 203.279 2048.21 201.558 Q2049.16 199.836 2049.83 198.431 Q2050.49 196.99 2051.51 194.672 Q2051.79 193.828 2052.46 193.828 Q2052.85 193.828 2053.06 194.039 Q2053.27 194.215 2053.3 194.391 L2053.3 194.601 Q2053.09 195.269 2052.95 195.62 L2046.35 211.149 Q2045.96 212.028 2045.64 212.203 Q2045.33 212.379 2044.1 212.379 L2006.75 212.379 Q2005.91 212.379 2005.56 212.344 Q2005.24 212.309 2004.99 212.133 Q2004.75 211.922 2004.75 211.501 Q2004.75 210.833 2005.03 210.552 Q2005.31 210.236 2005.63 210.201 Q2005.94 210.166 2006.75 210.166 Q2008.51 210.166 2009.56 210.06 Q2010.62 209.955 2011.28 209.814 Q2011.99 209.639 2012.34 209.147 Q2012.72 208.655 2012.9 208.233 Q2013.08 207.776 2013.32 206.758 L2022.81 168.708 Q2023.16 167.408 2023.16 166.986 Q2023.16 166.53 2022.84 166.248 Q2022.56 165.967 2021.79 165.862 Q2021.02 165.721 2020.38 165.721 Q2019.79 165.686 2018.49 165.686 Q2017.64 165.686 2017.29 165.651 Q2016.98 165.616 2016.73 165.44 Q2016.48 165.265 2016.48 164.878 Q2016.48 163.895 2016.9 163.684 Q2017.36 163.438 2018.63 163.438 L2054.95 163.438 Q2056.4 163.438 2056.71 163.754 Q2057.06 164.035 2056.92 165.405 Z" fill="#000000" fill-rule="evenodd" fill-opacity="1" /><path clip-path="url(#clip920)" d="M2066.83 230.367 L2066.83 158.414 L2077.69 158.414 L2077.69 160.065 L2071.65 160.065 L2071.65 228.716 L2077.69 228.716 L2077.69 230.367 L2066.83 230.367 Z" fill="#000000" fill-rule="evenodd" fill-opacity="1" /><path clip-path="url(#clip920)" d="M2119.01 153.159 L2118.4 154.167 Q2114.58 152.519 2109.84 149.888 Q2105.09 152.519 2101.28 154.167 L2100.69 153.159 Q2104.85 149.544 2109.84 146.765 Q2114.88 149.568 2119.01 153.159 Z" fill="#000000" fill-rule="evenodd" fill-opacity="1" /><path clip-path="url(#clip920)" d="M2122.5 166.6 Q2122.5 168.532 2121.27 169.727 Q2120.08 170.921 2118.57 170.921 Q2117.48 170.921 2116.67 170.254 Q2115.9 169.586 2115.9 168.427 Q2115.9 167.232 2116.81 165.967 Q2117.73 164.703 2119.8 164.527 Q2118.43 163.227 2116.25 163.227 Q2115.16 163.227 2114.25 163.93 Q2113.37 164.597 2112.88 165.686 Q2112.35 166.811 2111.16 173.17 Q2110.77 175.243 2110.42 177.245 Q2110.07 179.248 2109.64 181.356 L2115.62 181.356 Q2116.39 181.356 2116.71 181.391 Q2117.02 181.426 2117.27 181.602 Q2117.55 181.778 2117.55 182.164 Q2117.55 183.148 2117.09 183.394 Q2116.67 183.605 2115.41 183.605 L2109.22 183.605 L2104.9 206.406 Q2104.8 207.074 2104.34 209.182 Q2103.92 211.255 2102.9 214.663 Q2101.88 218.106 2100.86 220.144 Q2100.3 221.303 2099.56 222.392 Q2098.86 223.516 2097.84 224.641 Q2096.82 225.765 2095.49 226.432 Q2094.15 227.135 2092.75 227.135 Q2090.36 227.135 2088.49 225.8 Q2086.63 224.465 2086.63 222.181 Q2086.63 220.249 2087.83 219.054 Q2089.06 217.86 2090.57 217.86 Q2091.66 217.86 2092.43 218.527 Q2093.24 219.195 2093.24 220.354 Q2093.24 220.846 2093.06 221.408 Q2092.89 221.97 2092.5 222.603 Q2092.11 223.27 2091.27 223.727 Q2090.43 224.184 2089.27 224.254 Q2090.64 225.554 2092.75 225.554 Q2093.41 225.554 2094.01 225.273 Q2094.61 225.027 2095.1 224.395 Q2095.63 223.762 2096.01 223.13 Q2096.4 222.533 2096.79 221.373 Q2097.17 220.249 2097.42 219.406 Q2097.66 218.563 2097.98 217.052 Q2098.33 215.541 2098.51 214.628 Q2098.68 213.749 2099 212.028 L2104.37 183.605 L2099.63 183.605 Q2098.79 183.605 2098.44 183.569 Q2098.12 183.534 2097.87 183.359 Q2097.63 183.148 2097.63 182.726 Q2097.63 182.059 2097.91 181.778 Q2098.23 181.461 2098.58 181.426 Q2098.93 181.356 2099.77 181.356 L2104.76 181.356 Q2106.45 172.467 2107.11 170.078 Q2107.89 167.548 2109.08 165.792 Q2110.28 164 2111.61 163.157 Q2112.95 162.314 2114.04 161.997 Q2115.16 161.646 2116.25 161.646 Q2118.71 161.646 2120.61 162.981 Q2122.5 164.281 2122.5 166.6 Z" fill="#000000" fill-rule="evenodd" fill-opacity="1" /><path clip-path="url(#clip920)" d="M2122.93 194.391 Q2122.93 182.234 2127.46 172.432 Q2129.39 168.321 2132.1 164.878 Q2134.8 161.435 2136.59 159.924 Q2138.38 158.414 2138.88 158.414 Q2139.58 158.414 2139.61 159.116 Q2139.61 159.468 2138.67 160.346 Q2127.07 172.151 2127.11 194.391 Q2127.11 216.7 2138.38 228.049 Q2139.61 229.278 2139.61 229.665 Q2139.61 230.367 2138.88 230.367 Q2138.38 230.367 2136.66 228.927 Q2134.94 227.486 2132.27 224.184 Q2129.6 220.881 2127.67 216.841 Q2122.93 207.039 2122.93 194.391 Z" fill="#000000" fill-rule="evenodd" fill-opacity="1" /><path clip-path="url(#clip920)" d="M2180.92 185.326 Q2180.92 187.294 2179.69 188.418 Q2178.46 189.507 2177.05 189.507 Q2175.72 189.507 2175.02 188.734 Q2174.31 187.961 2174.31 186.977 Q2174.31 185.642 2175.3 184.483 Q2176.28 183.323 2177.76 183.078 Q2176.32 182.164 2174.17 182.164 Q2172.77 182.164 2171.54 182.902 Q2170.34 183.64 2169.61 184.588 Q2168.9 185.537 2168.27 186.907 Q2167.67 188.242 2167.43 189.05 Q2167.22 189.823 2167.04 190.666 L2164.58 200.504 Q2163.39 205.177 2163.39 206.828 Q2163.39 208.866 2164.37 210.236 Q2165.35 211.571 2167.32 211.571 Q2168.1 211.571 2168.97 211.36 Q2169.85 211.114 2170.98 210.482 Q2172.14 209.814 2173.15 208.83 Q2174.21 207.812 2175.23 206.09 Q2176.25 204.369 2176.91 202.155 Q2177.12 201.382 2177.83 201.382 Q2178.71 201.382 2178.71 202.085 Q2178.71 202.682 2178.21 203.947 Q2177.76 205.177 2176.74 206.793 Q2175.75 208.374 2174.45 209.814 Q2173.15 211.22 2171.22 212.203 Q2169.29 213.187 2167.18 213.187 Q2164.16 213.187 2162.16 211.571 Q2160.15 209.955 2159.42 207.706 Q2159.24 208.022 2159 208.444 Q2158.75 208.866 2158.01 209.814 Q2157.31 210.728 2156.5 211.43 Q2155.69 212.098 2154.43 212.625 Q2153.2 213.187 2151.86 213.187 Q2150.18 213.187 2148.67 212.695 Q2147.19 212.203 2146.14 211.079 Q2145.08 209.955 2145.08 208.409 Q2145.08 206.687 2146.24 205.493 Q2147.44 204.263 2149.05 204.263 Q2150.07 204.263 2150.88 204.86 Q2151.72 205.458 2151.72 206.758 Q2151.72 208.198 2150.74 209.287 Q2149.76 210.376 2148.35 210.657 Q2149.79 211.571 2151.93 211.571 Q2154.25 211.571 2156.08 209.533 Q2157.91 207.495 2158.78 204.087 Q2160.96 195.901 2161.81 192.247 Q2162.65 188.558 2162.65 186.977 Q2162.65 185.502 2162.26 184.483 Q2161.88 183.464 2161.21 183.007 Q2160.58 182.515 2159.98 182.34 Q2159.42 182.164 2158.78 182.164 Q2157.73 182.164 2156.54 182.586 Q2155.38 183.007 2153.97 183.991 Q2152.6 184.94 2151.3 186.907 Q2150 188.875 2149.12 191.58 Q2148.95 192.388 2148.17 192.388 Q2147.33 192.353 2147.33 191.65 Q2147.33 191.053 2147.79 189.823 Q2148.28 188.558 2149.26 186.977 Q2150.28 185.396 2151.58 183.991 Q2152.92 182.551 2154.85 181.567 Q2156.82 180.583 2158.93 180.583 Q2159.87 180.583 2160.79 180.794 Q2161.74 180.969 2162.86 181.496 Q2164.02 182.024 2165.04 183.183 Q2166.06 184.342 2166.69 186.029 Q2167.11 185.221 2167.67 184.448 Q2168.27 183.675 2169.18 182.726 Q2170.13 181.742 2171.43 181.18 Q2172.77 180.583 2174.24 180.583 Q2175.68 180.583 2177.09 180.969 Q2178.49 181.321 2179.69 182.48 Q2180.92 183.605 2180.92 185.326 Z" fill="#000000" fill-rule="evenodd" fill-opacity="1" /><path clip-path="url(#clip920)" d="M2187.85 229.665 Q2187.85 229.313 2188.76 228.435 Q2200.35 216.63 2200.35 194.391 Q2200.35 172.081 2189.22 160.803 Q2187.85 159.503 2187.85 159.116 Q2187.85 158.414 2188.55 158.414 Q2189.04 158.414 2190.76 159.854 Q2192.52 161.295 2195.15 164.597 Q2197.82 167.9 2199.79 171.94 Q2204.54 181.742 2204.54 194.391 Q2204.54 206.547 2200 216.349 Q2198.07 220.46 2195.37 223.903 Q2192.66 227.346 2190.87 228.857 Q2189.08 230.367 2188.55 230.367 Q2187.85 230.367 2187.85 229.665 Z" fill="#000000" fill-rule="evenodd" fill-opacity="1" /><path clip-path="url(#clip920)" d="M2212.6 228.716 L2218.64 228.716 L2218.64 160.065 L2212.6 160.065 L2212.6 158.414 L2223.45 158.414 L2223.45 230.367 L2212.6 230.367 L2212.6 228.716 Z" fill="#000000" fill-rule="evenodd" fill-opacity="1" /><polyline clip-path="url(#clip920)" style="stroke:#e26f46; stroke-linecap:butt; stroke-linejoin:round; stroke-width:6; stroke-opacity:1; fill:none" points="
  1836.24,261.359 1980.68,261.359 
  "/>
<path clip-path="url(#clip920)" d="M2040.62 243.768 Q2040.62 245.7 2039.39 246.895 Q2038.2 248.089 2036.69 248.089 Q2035.6 248.089 2034.79 247.422 Q2034.02 246.754 2034.02 245.595 Q2034.02 244.4 2034.93 243.136 Q2035.84 241.871 2037.91 241.695 Q2036.54 240.395 2034.37 240.395 Q2033.28 240.395 2032.36 241.098 Q2031.49 241.765 2030.99 242.854 Q2030.47 243.979 2029.27 250.338 Q2028.89 252.411 2028.53 254.413 Q2028.18 256.416 2027.76 258.524 L2033.73 258.524 Q2034.51 258.524 2034.82 258.559 Q2035.14 258.594 2035.39 258.77 Q2035.67 258.946 2035.67 259.332 Q2035.67 260.316 2035.21 260.562 Q2034.79 260.773 2033.52 260.773 L2027.34 260.773 L2023.02 283.574 Q2022.91 284.242 2022.46 286.35 Q2022.03 288.423 2021.02 291.831 Q2020 295.274 2018.98 297.312 Q2018.42 298.471 2017.68 299.56 Q2016.98 300.684 2015.96 301.809 Q2014.94 302.933 2013.6 303.601 Q2012.27 304.303 2010.86 304.303 Q2008.47 304.303 2006.61 302.968 Q2004.75 301.633 2004.75 299.349 Q2004.75 297.417 2005.94 296.223 Q2007.17 295.028 2008.68 295.028 Q2009.77 295.028 2010.55 295.696 Q2011.35 296.363 2011.35 297.522 Q2011.35 298.014 2011.18 298.576 Q2011 299.139 2010.62 299.771 Q2010.23 300.439 2009.39 300.895 Q2008.54 301.352 2007.38 301.422 Q2008.75 302.722 2010.86 302.722 Q2011.53 302.722 2012.13 302.441 Q2012.72 302.195 2013.22 301.563 Q2013.74 300.93 2014.13 300.298 Q2014.52 299.701 2014.9 298.541 Q2015.29 297.417 2015.53 296.574 Q2015.78 295.731 2016.1 294.22 Q2016.45 292.709 2016.62 291.796 Q2016.8 290.917 2017.12 289.196 L2022.49 260.773 L2017.75 260.773 Q2016.9 260.773 2016.55 260.738 Q2016.24 260.702 2015.99 260.527 Q2015.75 260.316 2015.75 259.894 Q2015.75 259.227 2016.03 258.946 Q2016.34 258.629 2016.69 258.594 Q2017.05 258.524 2017.89 258.524 L2022.88 258.524 Q2024.56 249.635 2025.23 247.246 Q2026 244.717 2027.2 242.96 Q2028.39 241.168 2029.73 240.325 Q2031.06 239.482 2032.15 239.165 Q2033.28 238.814 2034.37 238.814 Q2036.83 238.814 2038.72 240.149 Q2040.62 241.449 2040.62 243.768 Z" fill="#000000" fill-rule="evenodd" fill-opacity="1" /><path clip-path="url(#clip920)" d="M2050.31 271.559 Q2050.31 259.402 2054.84 249.6 Q2056.77 245.489 2059.48 242.046 Q2062.18 238.603 2063.97 237.093 Q2065.77 235.582 2066.26 235.582 Q2066.96 235.582 2067 236.284 Q2067 236.636 2066.05 237.514 Q2054.45 249.319 2054.49 271.559 Q2054.49 293.869 2065.77 305.217 Q2067 306.446 2067 306.833 Q2067 307.536 2066.26 307.536 Q2065.77 307.536 2064.04 306.095 Q2062.32 304.655 2059.65 301.352 Q2056.98 298.049 2055.05 294.009 Q2050.31 284.207 2050.31 271.559 Z" fill="#000000" fill-rule="evenodd" fill-opacity="1" /><path clip-path="url(#clip920)" d="M2108.3 262.494 Q2108.3 264.462 2107.07 265.586 Q2105.84 266.675 2104.44 266.675 Q2103.1 266.675 2102.4 265.902 Q2101.7 265.129 2101.7 264.145 Q2101.7 262.81 2102.68 261.651 Q2103.66 260.492 2105.14 260.246 Q2103.7 259.332 2101.55 259.332 Q2100.15 259.332 2098.92 260.07 Q2097.73 260.808 2096.99 261.756 Q2096.28 262.705 2095.65 264.075 Q2095.06 265.41 2094.81 266.218 Q2094.6 266.991 2094.42 267.835 L2091.96 277.672 Q2090.77 282.345 2090.77 283.996 Q2090.77 286.034 2091.75 287.404 Q2092.74 288.739 2094.7 288.739 Q2095.48 288.739 2096.35 288.528 Q2097.23 288.282 2098.36 287.65 Q2099.52 286.982 2100.54 285.999 Q2101.59 284.98 2102.61 283.258 Q2103.63 281.537 2104.3 279.323 Q2104.51 278.55 2105.21 278.55 Q2106.09 278.55 2106.09 279.253 Q2106.09 279.85 2105.6 281.115 Q2105.14 282.345 2104.12 283.961 Q2103.14 285.542 2101.84 286.982 Q2100.54 288.388 2098.6 289.371 Q2096.67 290.355 2094.56 290.355 Q2091.54 290.355 2089.54 288.739 Q2087.54 287.123 2086.8 284.874 Q2086.62 285.191 2086.38 285.612 Q2086.13 286.034 2085.39 286.982 Q2084.69 287.896 2083.88 288.599 Q2083.07 289.266 2081.81 289.793 Q2080.58 290.355 2079.24 290.355 Q2077.56 290.355 2076.05 289.863 Q2074.57 289.371 2073.52 288.247 Q2072.46 287.123 2072.46 285.577 Q2072.46 283.855 2073.62 282.661 Q2074.82 281.431 2076.43 281.431 Q2077.45 281.431 2078.26 282.029 Q2079.1 282.626 2079.1 283.926 Q2079.1 285.366 2078.12 286.455 Q2077.14 287.544 2075.73 287.826 Q2077.17 288.739 2079.32 288.739 Q2081.63 288.739 2083.46 286.701 Q2085.29 284.664 2086.17 281.256 Q2088.34 273.069 2089.19 269.416 Q2090.03 265.726 2090.03 264.145 Q2090.03 262.67 2089.64 261.651 Q2089.26 260.632 2088.59 260.175 Q2087.96 259.683 2087.36 259.508 Q2086.8 259.332 2086.17 259.332 Q2085.11 259.332 2083.92 259.754 Q2082.76 260.175 2081.35 261.159 Q2079.98 262.108 2078.68 264.075 Q2077.38 266.043 2076.5 268.748 Q2076.33 269.556 2075.56 269.556 Q2074.71 269.521 2074.71 268.818 Q2074.71 268.221 2075.17 266.991 Q2075.66 265.726 2076.64 264.145 Q2077.66 262.564 2078.96 261.159 Q2080.3 259.719 2082.23 258.735 Q2084.2 257.751 2086.31 257.751 Q2087.26 257.751 2088.17 257.962 Q2089.12 258.138 2090.24 258.665 Q2091.4 259.192 2092.42 260.351 Q2093.44 261.51 2094.07 263.197 Q2094.49 262.389 2095.06 261.616 Q2095.65 260.843 2096.57 259.894 Q2097.51 258.911 2098.81 258.348 Q2100.15 257.751 2101.63 257.751 Q2103.07 257.751 2104.47 258.138 Q2105.88 258.489 2107.07 259.648 Q2108.3 260.773 2108.3 262.494 Z" fill="#000000" fill-rule="evenodd" fill-opacity="1" /><path clip-path="url(#clip920)" d="M2115.23 306.833 Q2115.23 306.482 2116.14 305.603 Q2127.74 293.798 2127.74 271.559 Q2127.74 249.249 2116.6 237.971 Q2115.23 236.671 2115.23 236.284 Q2115.23 235.582 2115.93 235.582 Q2116.42 235.582 2118.14 237.022 Q2119.9 238.463 2122.54 241.765 Q2125.21 245.068 2127.17 249.108 Q2131.92 258.911 2131.92 271.559 Q2131.92 283.715 2127.38 293.517 Q2125.45 297.628 2122.75 301.071 Q2120.04 304.514 2118.25 306.025 Q2116.46 307.536 2115.93 307.536 Q2115.23 307.536 2115.23 306.833 Z" fill="#000000" fill-rule="evenodd" fill-opacity="1" /></svg>
