<?xml version="1.0" encoding="utf-8"?>
<svg xmlns="http://www.w3.org/2000/svg" xmlns:xlink="http://www.w3.org/1999/xlink" width="600" height="400" viewBox="0 0 2400 1600">
<defs>
  <clipPath id="clip360">
    <rect x="0" y="0" width="2400" height="1600"/>
  </clipPath>
</defs>
<path clip-path="url(#clip360)" d="
M0 1600 L2400 1600 L2400 0 L0 0  Z
  " fill="#ffffff" fill-rule="evenodd" fill-opacity="1"/>
<defs>
  <clipPath id="clip361">
    <rect x="480" y="0" width="1681" height="1600"/>
  </clipPath>
</defs>
<path clip-path="url(#clip360)" d="
M147.478 1486.45 L2352.76 1486.45 L2352.76 47.2441 L147.478 47.2441  Z
  " fill="#ffffff" fill-rule="evenodd" fill-opacity="1"/>
<defs>
  <clipPath id="clip362">
    <rect x="147" y="47" width="2206" height="1440"/>
  </clipPath>
</defs>
<polyline clip-path="url(#clip362)" style="stroke:#000000; stroke-linecap:butt; stroke-linejoin:round; stroke-width:2; stroke-opacity:0.1; fill:none" points="
  209.891,1486.45 209.891,47.2441 
  "/>
<polyline clip-path="url(#clip362)" style="stroke:#000000; stroke-linecap:butt; stroke-linejoin:round; stroke-width:2; stroke-opacity:0.1; fill:none" points="
  730.004,1486.45 730.004,47.2441 
  "/>
<polyline clip-path="url(#clip362)" style="stroke:#000000; stroke-linecap:butt; stroke-linejoin:round; stroke-width:2; stroke-opacity:0.1; fill:none" points="
  1250.12,1486.45 1250.12,47.2441 
  "/>
<polyline clip-path="url(#clip362)" style="stroke:#000000; stroke-linecap:butt; stroke-linejoin:round; stroke-width:2; stroke-opacity:0.1; fill:none" points="
  1770.23,1486.45 1770.23,47.2441 
  "/>
<polyline clip-path="url(#clip362)" style="stroke:#000000; stroke-linecap:butt; stroke-linejoin:round; stroke-width:2; stroke-opacity:0.1; fill:none" points="
  2290.34,1486.45 2290.34,47.2441 
  "/>
<polyline clip-path="url(#clip360)" style="stroke:#000000; stroke-linecap:butt; stroke-linejoin:round; stroke-width:4; stroke-opacity:1; fill:none" points="
  147.478,1486.45 2352.76,1486.45 
  "/>
<polyline clip-path="url(#clip360)" style="stroke:#000000; stroke-linecap:butt; stroke-linejoin:round; stroke-width:4; stroke-opacity:1; fill:none" points="
  209.891,1486.45 209.891,1467.55 
  "/>
<polyline clip-path="url(#clip360)" style="stroke:#000000; stroke-linecap:butt; stroke-linejoin:round; stroke-width:4; stroke-opacity:1; fill:none" points="
  730.004,1486.45 730.004,1467.55 
  "/>
<polyline clip-path="url(#clip360)" style="stroke:#000000; stroke-linecap:butt; stroke-linejoin:round; stroke-width:4; stroke-opacity:1; fill:none" points="
  1250.12,1486.45 1250.12,1467.55 
  "/>
<polyline clip-path="url(#clip360)" style="stroke:#000000; stroke-linecap:butt; stroke-linejoin:round; stroke-width:4; stroke-opacity:1; fill:none" points="
  1770.23,1486.45 1770.23,1467.55 
  "/>
<polyline clip-path="url(#clip360)" style="stroke:#000000; stroke-linecap:butt; stroke-linejoin:round; stroke-width:4; stroke-opacity:1; fill:none" points="
  2290.34,1486.45 2290.34,1467.55 
  "/>
<path clip-path="url(#clip360)" d="M156.42 1532.02 L186.095 1532.02 L186.095 1535.95 L156.42 1535.95 L156.42 1532.02 Z" fill="#000000" fill-rule="evenodd" fill-opacity="1" /><path clip-path="url(#clip360)" d="M196.998 1544.91 L204.637 1544.91 L204.637 1518.55 L196.327 1520.21 L196.327 1515.95 L204.591 1514.29 L209.266 1514.29 L209.266 1544.91 L216.905 1544.91 L216.905 1548.85 L196.998 1548.85 L196.998 1544.91 Z" fill="#000000" fill-rule="evenodd" fill-opacity="1" /><path clip-path="url(#clip360)" d="M226.35 1542.97 L231.234 1542.97 L231.234 1548.85 L226.35 1548.85 L226.35 1542.97 Z" fill="#000000" fill-rule="evenodd" fill-opacity="1" /><path clip-path="url(#clip360)" d="M251.419 1517.37 Q247.808 1517.37 245.979 1520.93 Q244.174 1524.47 244.174 1531.6 Q244.174 1538.71 245.979 1542.27 Q247.808 1545.82 251.419 1545.82 Q255.053 1545.82 256.859 1542.27 Q258.687 1538.71 258.687 1531.6 Q258.687 1524.47 256.859 1520.93 Q255.053 1517.37 251.419 1517.37 M251.419 1513.66 Q257.229 1513.66 260.285 1518.27 Q263.363 1522.85 263.363 1531.6 Q263.363 1540.33 260.285 1544.94 Q257.229 1549.52 251.419 1549.52 Q245.609 1549.52 242.53 1544.94 Q239.475 1540.33 239.475 1531.6 Q239.475 1522.85 242.53 1518.27 Q245.609 1513.66 251.419 1513.66 Z" fill="#000000" fill-rule="evenodd" fill-opacity="1" /><path clip-path="url(#clip360)" d="M677.03 1532.02 L706.706 1532.02 L706.706 1535.95 L677.03 1535.95 L677.03 1532.02 Z" fill="#000000" fill-rule="evenodd" fill-opacity="1" /><path clip-path="url(#clip360)" d="M726.798 1517.37 Q723.187 1517.37 721.358 1520.93 Q719.553 1524.47 719.553 1531.6 Q719.553 1538.71 721.358 1542.27 Q723.187 1545.82 726.798 1545.82 Q730.432 1545.82 732.238 1542.27 Q734.067 1538.71 734.067 1531.6 Q734.067 1524.47 732.238 1520.93 Q730.432 1517.37 726.798 1517.37 M726.798 1513.66 Q732.608 1513.66 735.664 1518.27 Q738.743 1522.85 738.743 1531.6 Q738.743 1540.33 735.664 1544.94 Q732.608 1549.52 726.798 1549.52 Q720.988 1549.52 717.909 1544.94 Q714.854 1540.33 714.854 1531.6 Q714.854 1522.85 717.909 1518.27 Q720.988 1513.66 726.798 1513.66 Z" fill="#000000" fill-rule="evenodd" fill-opacity="1" /><path clip-path="url(#clip360)" d="M746.96 1542.97 L751.844 1542.97 L751.844 1548.85 L746.96 1548.85 L746.96 1542.97 Z" fill="#000000" fill-rule="evenodd" fill-opacity="1" /><path clip-path="url(#clip360)" d="M762.076 1514.29 L780.432 1514.29 L780.432 1518.22 L766.358 1518.22 L766.358 1526.7 Q767.377 1526.35 768.395 1526.19 Q769.414 1526 770.432 1526 Q776.219 1526 779.599 1529.17 Q782.978 1532.34 782.978 1537.76 Q782.978 1543.34 779.506 1546.44 Q776.034 1549.52 769.715 1549.52 Q767.539 1549.52 765.27 1549.15 Q763.025 1548.78 760.617 1548.04 L760.617 1543.34 Q762.701 1544.47 764.923 1545.03 Q767.145 1545.58 769.622 1545.58 Q773.627 1545.58 775.965 1543.48 Q778.303 1541.37 778.303 1537.76 Q778.303 1534.15 775.965 1532.04 Q773.627 1529.94 769.622 1529.94 Q767.747 1529.94 765.872 1530.35 Q764.02 1530.77 762.076 1531.65 L762.076 1514.29 Z" fill="#000000" fill-rule="evenodd" fill-opacity="1" /><path clip-path="url(#clip360)" d="M1227.5 1517.37 Q1223.89 1517.37 1222.06 1520.93 Q1220.26 1524.47 1220.26 1531.6 Q1220.26 1538.71 1222.06 1542.27 Q1223.89 1545.82 1227.5 1545.82 Q1231.14 1545.82 1232.94 1542.27 Q1234.77 1538.71 1234.77 1531.6 Q1234.77 1524.47 1232.94 1520.93 Q1231.14 1517.37 1227.5 1517.37 M1227.5 1513.66 Q1233.31 1513.66 1236.37 1518.27 Q1239.45 1522.85 1239.45 1531.6 Q1239.45 1540.33 1236.37 1544.94 Q1233.31 1549.52 1227.5 1549.52 Q1221.69 1549.52 1218.61 1544.94 Q1215.56 1540.33 1215.56 1531.6 Q1215.56 1522.85 1218.61 1518.27 Q1221.69 1513.66 1227.5 1513.66 Z" fill="#000000" fill-rule="evenodd" fill-opacity="1" /><path clip-path="url(#clip360)" d="M1247.66 1542.97 L1252.55 1542.97 L1252.55 1548.85 L1247.66 1548.85 L1247.66 1542.97 Z" fill="#000000" fill-rule="evenodd" fill-opacity="1" /><path clip-path="url(#clip360)" d="M1272.73 1517.37 Q1269.12 1517.37 1267.29 1520.93 Q1265.49 1524.47 1265.49 1531.6 Q1265.49 1538.71 1267.29 1542.27 Q1269.12 1545.82 1272.73 1545.82 Q1276.37 1545.82 1278.17 1542.27 Q1280 1538.71 1280 1531.6 Q1280 1524.47 1278.17 1520.93 Q1276.37 1517.37 1272.73 1517.37 M1272.73 1513.66 Q1278.54 1513.66 1281.6 1518.27 Q1284.68 1522.85 1284.68 1531.6 Q1284.68 1540.33 1281.6 1544.94 Q1278.54 1549.52 1272.73 1549.52 Q1266.92 1549.52 1263.84 1544.94 Q1260.79 1540.33 1260.79 1531.6 Q1260.79 1522.85 1263.84 1518.27 Q1266.92 1513.66 1272.73 1513.66 Z" fill="#000000" fill-rule="evenodd" fill-opacity="1" /><path clip-path="url(#clip360)" d="M1748.11 1517.37 Q1744.5 1517.37 1742.67 1520.93 Q1740.87 1524.47 1740.87 1531.6 Q1740.87 1538.71 1742.67 1542.27 Q1744.5 1545.82 1748.11 1545.82 Q1751.75 1545.82 1753.55 1542.27 Q1755.38 1538.71 1755.38 1531.6 Q1755.38 1524.47 1753.55 1520.93 Q1751.75 1517.37 1748.11 1517.37 M1748.11 1513.66 Q1753.92 1513.66 1756.98 1518.27 Q1760.06 1522.85 1760.06 1531.6 Q1760.06 1540.33 1756.98 1544.94 Q1753.92 1549.52 1748.11 1549.52 Q1742.3 1549.52 1739.22 1544.94 Q1736.17 1540.33 1736.17 1531.6 Q1736.17 1522.85 1739.22 1518.27 Q1742.3 1513.66 1748.11 1513.66 Z" fill="#000000" fill-rule="evenodd" fill-opacity="1" /><path clip-path="url(#clip360)" d="M1768.27 1542.97 L1773.16 1542.97 L1773.16 1548.85 L1768.27 1548.85 L1768.27 1542.97 Z" fill="#000000" fill-rule="evenodd" fill-opacity="1" /><path clip-path="url(#clip360)" d="M1783.39 1514.29 L1801.75 1514.29 L1801.75 1518.22 L1787.67 1518.22 L1787.67 1526.7 Q1788.69 1526.35 1789.71 1526.19 Q1790.73 1526 1791.75 1526 Q1797.53 1526 1800.91 1529.17 Q1804.29 1532.34 1804.29 1537.76 Q1804.29 1543.34 1800.82 1546.44 Q1797.35 1549.52 1791.03 1549.52 Q1788.85 1549.52 1786.58 1549.15 Q1784.34 1548.78 1781.93 1548.04 L1781.93 1543.34 Q1784.01 1544.47 1786.24 1545.03 Q1788.46 1545.58 1790.94 1545.58 Q1794.94 1545.58 1797.28 1543.48 Q1799.62 1541.37 1799.62 1537.76 Q1799.62 1534.15 1797.28 1532.04 Q1794.94 1529.94 1790.94 1529.94 Q1789.06 1529.94 1787.19 1530.35 Q1785.33 1530.77 1783.39 1531.65 L1783.39 1514.29 Z" fill="#000000" fill-rule="evenodd" fill-opacity="1" /><path clip-path="url(#clip360)" d="M2257.5 1544.91 L2265.13 1544.91 L2265.13 1518.55 L2256.82 1520.21 L2256.82 1515.95 L2265.09 1514.29 L2269.76 1514.29 L2269.76 1544.91 L2277.4 1544.91 L2277.4 1548.85 L2257.5 1548.85 L2257.5 1544.91 Z" fill="#000000" fill-rule="evenodd" fill-opacity="1" /><path clip-path="url(#clip360)" d="M2286.85 1542.97 L2291.73 1542.97 L2291.73 1548.85 L2286.85 1548.85 L2286.85 1542.97 Z" fill="#000000" fill-rule="evenodd" fill-opacity="1" /><path clip-path="url(#clip360)" d="M2311.92 1517.37 Q2308.31 1517.37 2306.48 1520.93 Q2304.67 1524.47 2304.67 1531.6 Q2304.67 1538.71 2306.48 1542.27 Q2308.31 1545.82 2311.92 1545.82 Q2315.55 1545.82 2317.36 1542.27 Q2319.18 1538.71 2319.18 1531.6 Q2319.18 1524.47 2317.36 1520.93 Q2315.55 1517.37 2311.92 1517.37 M2311.92 1513.66 Q2317.73 1513.66 2320.78 1518.27 Q2323.86 1522.85 2323.86 1531.6 Q2323.86 1540.33 2320.78 1544.94 Q2317.73 1549.52 2311.92 1549.52 Q2306.11 1549.52 2303.03 1544.94 Q2299.97 1540.33 2299.97 1531.6 Q2299.97 1522.85 2303.03 1518.27 Q2306.11 1513.66 2311.92 1513.66 Z" fill="#000000" fill-rule="evenodd" fill-opacity="1" /><polyline clip-path="url(#clip362)" style="stroke:#000000; stroke-linecap:butt; stroke-linejoin:round; stroke-width:2; stroke-opacity:0.1; fill:none" points="
  147.478,1342.64 2352.76,1342.64 
  "/>
<polyline clip-path="url(#clip362)" style="stroke:#000000; stroke-linecap:butt; stroke-linejoin:round; stroke-width:2; stroke-opacity:0.1; fill:none" points="
  147.478,936.57 2352.76,936.57 
  "/>
<polyline clip-path="url(#clip362)" style="stroke:#000000; stroke-linecap:butt; stroke-linejoin:round; stroke-width:2; stroke-opacity:0.1; fill:none" points="
  147.478,530.499 2352.76,530.499 
  "/>
<polyline clip-path="url(#clip362)" style="stroke:#000000; stroke-linecap:butt; stroke-linejoin:round; stroke-width:2; stroke-opacity:0.1; fill:none" points="
  147.478,124.428 2352.76,124.428 
  "/>
<polyline clip-path="url(#clip360)" style="stroke:#000000; stroke-linecap:butt; stroke-linejoin:round; stroke-width:4; stroke-opacity:1; fill:none" points="
  147.478,1486.45 147.478,47.2441 
  "/>
<polyline clip-path="url(#clip360)" style="stroke:#000000; stroke-linecap:butt; stroke-linejoin:round; stroke-width:4; stroke-opacity:1; fill:none" points="
  147.478,1342.64 166.376,1342.64 
  "/>
<polyline clip-path="url(#clip360)" style="stroke:#000000; stroke-linecap:butt; stroke-linejoin:round; stroke-width:4; stroke-opacity:1; fill:none" points="
  147.478,936.57 166.376,936.57 
  "/>
<polyline clip-path="url(#clip360)" style="stroke:#000000; stroke-linecap:butt; stroke-linejoin:round; stroke-width:4; stroke-opacity:1; fill:none" points="
  147.478,530.499 166.376,530.499 
  "/>
<polyline clip-path="url(#clip360)" style="stroke:#000000; stroke-linecap:butt; stroke-linejoin:round; stroke-width:4; stroke-opacity:1; fill:none" points="
  147.478,124.428 166.376,124.428 
  "/>
<path clip-path="url(#clip360)" d="M50.9921 1343.09 L80.6679 1343.09 L80.6679 1347.03 L50.9921 1347.03 L50.9921 1343.09 Z" fill="#000000" fill-rule="evenodd" fill-opacity="1" /><path clip-path="url(#clip360)" d="M91.5706 1355.99 L99.2095 1355.99 L99.2095 1329.62 L90.8993 1331.29 L90.8993 1327.03 L99.1632 1325.36 L103.839 1325.36 L103.839 1355.99 L111.478 1355.99 L111.478 1359.92 L91.5706 1359.92 L91.5706 1355.99 Z" fill="#000000" fill-rule="evenodd" fill-opacity="1" /><path clip-path="url(#clip360)" d="M99.5335 922.369 Q95.9224 922.369 94.0937 925.933 Q92.2882 929.475 92.2882 936.605 Q92.2882 943.711 94.0937 947.276 Q95.9224 950.818 99.5335 950.818 Q103.168 950.818 104.973 947.276 Q106.802 943.711 106.802 936.605 Q106.802 929.475 104.973 925.933 Q103.168 922.369 99.5335 922.369 M99.5335 918.665 Q105.344 918.665 108.399 923.271 Q111.478 927.855 111.478 936.605 Q111.478 945.331 108.399 949.938 Q105.344 954.521 99.5335 954.521 Q93.7234 954.521 90.6447 949.938 Q87.5892 945.331 87.5892 936.605 Q87.5892 927.855 90.6447 923.271 Q93.7234 918.665 99.5335 918.665 Z" fill="#000000" fill-rule="evenodd" fill-opacity="1" /><path clip-path="url(#clip360)" d="M91.5706 543.844 L99.2095 543.844 L99.2095 517.478 L90.8993 519.145 L90.8993 514.886 L99.1632 513.219 L103.839 513.219 L103.839 543.844 L111.478 543.844 L111.478 547.779 L91.5706 547.779 L91.5706 543.844 Z" fill="#000000" fill-rule="evenodd" fill-opacity="1" /><path clip-path="url(#clip360)" d="M95.1586 137.773 L111.478 137.773 L111.478 141.708 L89.5336 141.708 L89.5336 137.773 Q92.1956 135.018 96.7789 130.388 Q101.385 125.736 102.566 124.393 Q104.811 121.87 105.691 120.134 Q106.594 118.375 106.594 116.685 Q106.594 113.93 104.649 112.194 Q102.728 110.458 99.6261 110.458 Q97.4271 110.458 94.9734 111.222 Q92.5428 111.986 89.7651 113.537 L89.7651 108.815 Q92.5891 107.68 95.0428 107.102 Q97.4965 106.523 99.5335 106.523 Q104.904 106.523 108.098 109.208 Q111.293 111.893 111.293 116.384 Q111.293 118.514 110.483 120.435 Q109.696 122.333 107.589 124.926 Q107.01 125.597 103.909 128.814 Q100.807 132.009 95.1586 137.773 Z" fill="#000000" fill-rule="evenodd" fill-opacity="1" /><circle clip-path="url(#clip362)" cx="209.891" cy="1215.42" r="14" fill="#009af9" fill-rule="evenodd" fill-opacity="1" stroke="#000000" stroke-opacity="1" stroke-width="3.2"/>
<circle clip-path="url(#clip362)" cx="220.346" cy="781.467" r="14" fill="#009af9" fill-rule="evenodd" fill-opacity="1" stroke="#000000" stroke-opacity="1" stroke-width="3.2"/>
<circle clip-path="url(#clip362)" cx="230.8" cy="963.211" r="14" fill="#009af9" fill-rule="evenodd" fill-opacity="1" stroke="#000000" stroke-opacity="1" stroke-width="3.2"/>
<circle clip-path="url(#clip362)" cx="241.255" cy="1445.72" r="14" fill="#009af9" fill-rule="evenodd" fill-opacity="1" stroke="#000000" stroke-opacity="1" stroke-width="3.2"/>
<circle clip-path="url(#clip362)" cx="251.71" cy="693.965" r="14" fill="#009af9" fill-rule="evenodd" fill-opacity="1" stroke="#000000" stroke-opacity="1" stroke-width="3.2"/>
<circle clip-path="url(#clip362)" cx="262.164" cy="376.54" r="14" fill="#009af9" fill-rule="evenodd" fill-opacity="1" stroke="#000000" stroke-opacity="1" stroke-width="3.2"/>
<circle clip-path="url(#clip362)" cx="272.619" cy="881.083" r="14" fill="#009af9" fill-rule="evenodd" fill-opacity="1" stroke="#000000" stroke-opacity="1" stroke-width="3.2"/>
<circle clip-path="url(#clip362)" cx="283.073" cy="947.546" r="14" fill="#009af9" fill-rule="evenodd" fill-opacity="1" stroke="#000000" stroke-opacity="1" stroke-width="3.2"/>
<circle clip-path="url(#clip362)" cx="293.528" cy="1019.5" r="14" fill="#009af9" fill-rule="evenodd" fill-opacity="1" stroke="#000000" stroke-opacity="1" stroke-width="3.2"/>
<circle clip-path="url(#clip362)" cx="303.982" cy="880.122" r="14" fill="#009af9" fill-rule="evenodd" fill-opacity="1" stroke="#000000" stroke-opacity="1" stroke-width="3.2"/>
<circle clip-path="url(#clip362)" cx="314.437" cy="882.909" r="14" fill="#009af9" fill-rule="evenodd" fill-opacity="1" stroke="#000000" stroke-opacity="1" stroke-width="3.2"/>
<circle clip-path="url(#clip362)" cx="324.891" cy="870.478" r="14" fill="#009af9" fill-rule="evenodd" fill-opacity="1" stroke="#000000" stroke-opacity="1" stroke-width="3.2"/>
<circle clip-path="url(#clip362)" cx="335.346" cy="766.989" r="14" fill="#009af9" fill-rule="evenodd" fill-opacity="1" stroke="#000000" stroke-opacity="1" stroke-width="3.2"/>
<circle clip-path="url(#clip362)" cx="345.8" cy="906.867" r="14" fill="#009af9" fill-rule="evenodd" fill-opacity="1" stroke="#000000" stroke-opacity="1" stroke-width="3.2"/>
<circle clip-path="url(#clip362)" cx="356.255" cy="697.566" r="14" fill="#009af9" fill-rule="evenodd" fill-opacity="1" stroke="#000000" stroke-opacity="1" stroke-width="3.2"/>
<circle clip-path="url(#clip362)" cx="366.709" cy="824.476" r="14" fill="#009af9" fill-rule="evenodd" fill-opacity="1" stroke="#000000" stroke-opacity="1" stroke-width="3.2"/>
<circle clip-path="url(#clip362)" cx="377.164" cy="828.288" r="14" fill="#009af9" fill-rule="evenodd" fill-opacity="1" stroke="#000000" stroke-opacity="1" stroke-width="3.2"/>
<circle clip-path="url(#clip362)" cx="387.618" cy="1001.77" r="14" fill="#009af9" fill-rule="evenodd" fill-opacity="1" stroke="#000000" stroke-opacity="1" stroke-width="3.2"/>
<circle clip-path="url(#clip362)" cx="398.073" cy="1032.14" r="14" fill="#009af9" fill-rule="evenodd" fill-opacity="1" stroke="#000000" stroke-opacity="1" stroke-width="3.2"/>
<circle clip-path="url(#clip362)" cx="408.527" cy="688.645" r="14" fill="#009af9" fill-rule="evenodd" fill-opacity="1" stroke="#000000" stroke-opacity="1" stroke-width="3.2"/>
<circle clip-path="url(#clip362)" cx="418.982" cy="1092.75" r="14" fill="#009af9" fill-rule="evenodd" fill-opacity="1" stroke="#000000" stroke-opacity="1" stroke-width="3.2"/>
<circle clip-path="url(#clip362)" cx="429.437" cy="679.383" r="14" fill="#009af9" fill-rule="evenodd" fill-opacity="1" stroke="#000000" stroke-opacity="1" stroke-width="3.2"/>
<circle clip-path="url(#clip362)" cx="439.891" cy="973.979" r="14" fill="#009af9" fill-rule="evenodd" fill-opacity="1" stroke="#000000" stroke-opacity="1" stroke-width="3.2"/>
<circle clip-path="url(#clip362)" cx="450.346" cy="789.238" r="14" fill="#009af9" fill-rule="evenodd" fill-opacity="1" stroke="#000000" stroke-opacity="1" stroke-width="3.2"/>
<circle clip-path="url(#clip362)" cx="460.8" cy="843.302" r="14" fill="#009af9" fill-rule="evenodd" fill-opacity="1" stroke="#000000" stroke-opacity="1" stroke-width="3.2"/>
<circle clip-path="url(#clip362)" cx="471.255" cy="1057.7" r="14" fill="#009af9" fill-rule="evenodd" fill-opacity="1" stroke="#000000" stroke-opacity="1" stroke-width="3.2"/>
<circle clip-path="url(#clip362)" cx="481.709" cy="169.603" r="14" fill="#009af9" fill-rule="evenodd" fill-opacity="1" stroke="#000000" stroke-opacity="1" stroke-width="3.2"/>
<circle clip-path="url(#clip362)" cx="492.164" cy="818.315" r="14" fill="#009af9" fill-rule="evenodd" fill-opacity="1" stroke="#000000" stroke-opacity="1" stroke-width="3.2"/>
<circle clip-path="url(#clip362)" cx="502.618" cy="712.335" r="14" fill="#009af9" fill-rule="evenodd" fill-opacity="1" stroke="#000000" stroke-opacity="1" stroke-width="3.2"/>
<circle clip-path="url(#clip362)" cx="513.073" cy="662.991" r="14" fill="#009af9" fill-rule="evenodd" fill-opacity="1" stroke="#000000" stroke-opacity="1" stroke-width="3.2"/>
<circle clip-path="url(#clip362)" cx="523.527" cy="823.622" r="14" fill="#009af9" fill-rule="evenodd" fill-opacity="1" stroke="#000000" stroke-opacity="1" stroke-width="3.2"/>
<circle clip-path="url(#clip362)" cx="533.982" cy="793.302" r="14" fill="#009af9" fill-rule="evenodd" fill-opacity="1" stroke="#000000" stroke-opacity="1" stroke-width="3.2"/>
<circle clip-path="url(#clip362)" cx="544.436" cy="1118.07" r="14" fill="#009af9" fill-rule="evenodd" fill-opacity="1" stroke="#000000" stroke-opacity="1" stroke-width="3.2"/>
<circle clip-path="url(#clip362)" cx="554.891" cy="945.956" r="14" fill="#009af9" fill-rule="evenodd" fill-opacity="1" stroke="#000000" stroke-opacity="1" stroke-width="3.2"/>
<circle clip-path="url(#clip362)" cx="565.345" cy="952.619" r="14" fill="#009af9" fill-rule="evenodd" fill-opacity="1" stroke="#000000" stroke-opacity="1" stroke-width="3.2"/>
<circle clip-path="url(#clip362)" cx="575.8" cy="585.998" r="14" fill="#009af9" fill-rule="evenodd" fill-opacity="1" stroke="#000000" stroke-opacity="1" stroke-width="3.2"/>
<circle clip-path="url(#clip362)" cx="586.254" cy="658.559" r="14" fill="#009af9" fill-rule="evenodd" fill-opacity="1" stroke="#000000" stroke-opacity="1" stroke-width="3.2"/>
<circle clip-path="url(#clip362)" cx="596.709" cy="788.579" r="14" fill="#009af9" fill-rule="evenodd" fill-opacity="1" stroke="#000000" stroke-opacity="1" stroke-width="3.2"/>
<circle clip-path="url(#clip362)" cx="607.163" cy="712.273" r="14" fill="#009af9" fill-rule="evenodd" fill-opacity="1" stroke="#000000" stroke-opacity="1" stroke-width="3.2"/>
<circle clip-path="url(#clip362)" cx="617.618" cy="721.671" r="14" fill="#009af9" fill-rule="evenodd" fill-opacity="1" stroke="#000000" stroke-opacity="1" stroke-width="3.2"/>
<circle clip-path="url(#clip362)" cx="628.073" cy="707.603" r="14" fill="#009af9" fill-rule="evenodd" fill-opacity="1" stroke="#000000" stroke-opacity="1" stroke-width="3.2"/>
<circle clip-path="url(#clip362)" cx="638.527" cy="1002.53" r="14" fill="#009af9" fill-rule="evenodd" fill-opacity="1" stroke="#000000" stroke-opacity="1" stroke-width="3.2"/>
<circle clip-path="url(#clip362)" cx="648.982" cy="1251.49" r="14" fill="#009af9" fill-rule="evenodd" fill-opacity="1" stroke="#000000" stroke-opacity="1" stroke-width="3.2"/>
<circle clip-path="url(#clip362)" cx="659.436" cy="791.23" r="14" fill="#009af9" fill-rule="evenodd" fill-opacity="1" stroke="#000000" stroke-opacity="1" stroke-width="3.2"/>
<circle clip-path="url(#clip362)" cx="669.891" cy="874.527" r="14" fill="#009af9" fill-rule="evenodd" fill-opacity="1" stroke="#000000" stroke-opacity="1" stroke-width="3.2"/>
<circle clip-path="url(#clip362)" cx="680.345" cy="712.339" r="14" fill="#009af9" fill-rule="evenodd" fill-opacity="1" stroke="#000000" stroke-opacity="1" stroke-width="3.2"/>
<circle clip-path="url(#clip362)" cx="690.8" cy="707.157" r="14" fill="#009af9" fill-rule="evenodd" fill-opacity="1" stroke="#000000" stroke-opacity="1" stroke-width="3.2"/>
<circle clip-path="url(#clip362)" cx="701.254" cy="678.732" r="14" fill="#009af9" fill-rule="evenodd" fill-opacity="1" stroke="#000000" stroke-opacity="1" stroke-width="3.2"/>
<circle clip-path="url(#clip362)" cx="711.709" cy="937.053" r="14" fill="#009af9" fill-rule="evenodd" fill-opacity="1" stroke="#000000" stroke-opacity="1" stroke-width="3.2"/>
<circle clip-path="url(#clip362)" cx="722.163" cy="1282.69" r="14" fill="#009af9" fill-rule="evenodd" fill-opacity="1" stroke="#000000" stroke-opacity="1" stroke-width="3.2"/>
<circle clip-path="url(#clip362)" cx="732.618" cy="435.311" r="14" fill="#009af9" fill-rule="evenodd" fill-opacity="1" stroke="#000000" stroke-opacity="1" stroke-width="3.2"/>
<circle clip-path="url(#clip362)" cx="743.072" cy="944.431" r="14" fill="#009af9" fill-rule="evenodd" fill-opacity="1" stroke="#000000" stroke-opacity="1" stroke-width="3.2"/>
<circle clip-path="url(#clip362)" cx="753.527" cy="656.816" r="14" fill="#009af9" fill-rule="evenodd" fill-opacity="1" stroke="#000000" stroke-opacity="1" stroke-width="3.2"/>
<circle clip-path="url(#clip362)" cx="763.981" cy="388.259" r="14" fill="#009af9" fill-rule="evenodd" fill-opacity="1" stroke="#000000" stroke-opacity="1" stroke-width="3.2"/>
<circle clip-path="url(#clip362)" cx="774.436" cy="706.234" r="14" fill="#009af9" fill-rule="evenodd" fill-opacity="1" stroke="#000000" stroke-opacity="1" stroke-width="3.2"/>
<circle clip-path="url(#clip362)" cx="784.89" cy="1000" r="14" fill="#009af9" fill-rule="evenodd" fill-opacity="1" stroke="#000000" stroke-opacity="1" stroke-width="3.2"/>
<circle clip-path="url(#clip362)" cx="795.345" cy="641.776" r="14" fill="#009af9" fill-rule="evenodd" fill-opacity="1" stroke="#000000" stroke-opacity="1" stroke-width="3.2"/>
<circle clip-path="url(#clip362)" cx="805.799" cy="1150.01" r="14" fill="#009af9" fill-rule="evenodd" fill-opacity="1" stroke="#000000" stroke-opacity="1" stroke-width="3.2"/>
<circle clip-path="url(#clip362)" cx="816.254" cy="761.632" r="14" fill="#009af9" fill-rule="evenodd" fill-opacity="1" stroke="#000000" stroke-opacity="1" stroke-width="3.2"/>
<circle clip-path="url(#clip362)" cx="826.709" cy="658.718" r="14" fill="#009af9" fill-rule="evenodd" fill-opacity="1" stroke="#000000" stroke-opacity="1" stroke-width="3.2"/>
<circle clip-path="url(#clip362)" cx="837.163" cy="740.711" r="14" fill="#009af9" fill-rule="evenodd" fill-opacity="1" stroke="#000000" stroke-opacity="1" stroke-width="3.2"/>
<circle clip-path="url(#clip362)" cx="847.618" cy="951.805" r="14" fill="#009af9" fill-rule="evenodd" fill-opacity="1" stroke="#000000" stroke-opacity="1" stroke-width="3.2"/>
<circle clip-path="url(#clip362)" cx="858.072" cy="1120.44" r="14" fill="#009af9" fill-rule="evenodd" fill-opacity="1" stroke="#000000" stroke-opacity="1" stroke-width="3.2"/>
<circle clip-path="url(#clip362)" cx="868.527" cy="1173.21" r="14" fill="#009af9" fill-rule="evenodd" fill-opacity="1" stroke="#000000" stroke-opacity="1" stroke-width="3.2"/>
<circle clip-path="url(#clip362)" cx="878.981" cy="715.825" r="14" fill="#009af9" fill-rule="evenodd" fill-opacity="1" stroke="#000000" stroke-opacity="1" stroke-width="3.2"/>
<circle clip-path="url(#clip362)" cx="889.436" cy="660.29" r="14" fill="#009af9" fill-rule="evenodd" fill-opacity="1" stroke="#000000" stroke-opacity="1" stroke-width="3.2"/>
<circle clip-path="url(#clip362)" cx="899.89" cy="853.772" r="14" fill="#009af9" fill-rule="evenodd" fill-opacity="1" stroke="#000000" stroke-opacity="1" stroke-width="3.2"/>
<circle clip-path="url(#clip362)" cx="910.345" cy="592.081" r="14" fill="#009af9" fill-rule="evenodd" fill-opacity="1" stroke="#000000" stroke-opacity="1" stroke-width="3.2"/>
<circle clip-path="url(#clip362)" cx="920.799" cy="912.476" r="14" fill="#009af9" fill-rule="evenodd" fill-opacity="1" stroke="#000000" stroke-opacity="1" stroke-width="3.2"/>
<circle clip-path="url(#clip362)" cx="931.254" cy="692.69" r="14" fill="#009af9" fill-rule="evenodd" fill-opacity="1" stroke="#000000" stroke-opacity="1" stroke-width="3.2"/>
<circle clip-path="url(#clip362)" cx="941.708" cy="675.614" r="14" fill="#009af9" fill-rule="evenodd" fill-opacity="1" stroke="#000000" stroke-opacity="1" stroke-width="3.2"/>
<circle clip-path="url(#clip362)" cx="952.163" cy="931.269" r="14" fill="#009af9" fill-rule="evenodd" fill-opacity="1" stroke="#000000" stroke-opacity="1" stroke-width="3.2"/>
<circle clip-path="url(#clip362)" cx="962.617" cy="739.708" r="14" fill="#009af9" fill-rule="evenodd" fill-opacity="1" stroke="#000000" stroke-opacity="1" stroke-width="3.2"/>
<circle clip-path="url(#clip362)" cx="973.072" cy="618.967" r="14" fill="#009af9" fill-rule="evenodd" fill-opacity="1" stroke="#000000" stroke-opacity="1" stroke-width="3.2"/>
<circle clip-path="url(#clip362)" cx="983.526" cy="534.342" r="14" fill="#009af9" fill-rule="evenodd" fill-opacity="1" stroke="#000000" stroke-opacity="1" stroke-width="3.2"/>
<circle clip-path="url(#clip362)" cx="993.981" cy="452.195" r="14" fill="#009af9" fill-rule="evenodd" fill-opacity="1" stroke="#000000" stroke-opacity="1" stroke-width="3.2"/>
<circle clip-path="url(#clip362)" cx="1004.44" cy="741.363" r="14" fill="#009af9" fill-rule="evenodd" fill-opacity="1" stroke="#000000" stroke-opacity="1" stroke-width="3.2"/>
<circle clip-path="url(#clip362)" cx="1014.89" cy="884.813" r="14" fill="#009af9" fill-rule="evenodd" fill-opacity="1" stroke="#000000" stroke-opacity="1" stroke-width="3.2"/>
<circle clip-path="url(#clip362)" cx="1025.34" cy="540.744" r="14" fill="#009af9" fill-rule="evenodd" fill-opacity="1" stroke="#000000" stroke-opacity="1" stroke-width="3.2"/>
<circle clip-path="url(#clip362)" cx="1035.8" cy="677.016" r="14" fill="#009af9" fill-rule="evenodd" fill-opacity="1" stroke="#000000" stroke-opacity="1" stroke-width="3.2"/>
<circle clip-path="url(#clip362)" cx="1046.25" cy="603.161" r="14" fill="#009af9" fill-rule="evenodd" fill-opacity="1" stroke="#000000" stroke-opacity="1" stroke-width="3.2"/>
<circle clip-path="url(#clip362)" cx="1056.71" cy="799.393" r="14" fill="#009af9" fill-rule="evenodd" fill-opacity="1" stroke="#000000" stroke-opacity="1" stroke-width="3.2"/>
<circle clip-path="url(#clip362)" cx="1067.16" cy="624.823" r="14" fill="#009af9" fill-rule="evenodd" fill-opacity="1" stroke="#000000" stroke-opacity="1" stroke-width="3.2"/>
<circle clip-path="url(#clip362)" cx="1077.62" cy="844.612" r="14" fill="#009af9" fill-rule="evenodd" fill-opacity="1" stroke="#000000" stroke-opacity="1" stroke-width="3.2"/>
<circle clip-path="url(#clip362)" cx="1088.07" cy="353.375" r="14" fill="#009af9" fill-rule="evenodd" fill-opacity="1" stroke="#000000" stroke-opacity="1" stroke-width="3.2"/>
<circle clip-path="url(#clip362)" cx="1098.53" cy="367.698" r="14" fill="#009af9" fill-rule="evenodd" fill-opacity="1" stroke="#000000" stroke-opacity="1" stroke-width="3.2"/>
<circle clip-path="url(#clip362)" cx="1108.98" cy="699.804" r="14" fill="#009af9" fill-rule="evenodd" fill-opacity="1" stroke="#000000" stroke-opacity="1" stroke-width="3.2"/>
<circle clip-path="url(#clip362)" cx="1119.44" cy="698.175" r="14" fill="#009af9" fill-rule="evenodd" fill-opacity="1" stroke="#000000" stroke-opacity="1" stroke-width="3.2"/>
<circle clip-path="url(#clip362)" cx="1129.89" cy="352.257" r="14" fill="#009af9" fill-rule="evenodd" fill-opacity="1" stroke="#000000" stroke-opacity="1" stroke-width="3.2"/>
<circle clip-path="url(#clip362)" cx="1140.34" cy="530.08" r="14" fill="#009af9" fill-rule="evenodd" fill-opacity="1" stroke="#000000" stroke-opacity="1" stroke-width="3.2"/>
<circle clip-path="url(#clip362)" cx="1150.8" cy="519.465" r="14" fill="#009af9" fill-rule="evenodd" fill-opacity="1" stroke="#000000" stroke-opacity="1" stroke-width="3.2"/>
<circle clip-path="url(#clip362)" cx="1161.25" cy="294.462" r="14" fill="#009af9" fill-rule="evenodd" fill-opacity="1" stroke="#000000" stroke-opacity="1" stroke-width="3.2"/>
<circle clip-path="url(#clip362)" cx="1171.71" cy="364.681" r="14" fill="#009af9" fill-rule="evenodd" fill-opacity="1" stroke="#000000" stroke-opacity="1" stroke-width="3.2"/>
<circle clip-path="url(#clip362)" cx="1182.16" cy="753.965" r="14" fill="#009af9" fill-rule="evenodd" fill-opacity="1" stroke="#000000" stroke-opacity="1" stroke-width="3.2"/>
<circle clip-path="url(#clip362)" cx="1192.62" cy="87.9763" r="14" fill="#009af9" fill-rule="evenodd" fill-opacity="1" stroke="#000000" stroke-opacity="1" stroke-width="3.2"/>
<circle clip-path="url(#clip362)" cx="1203.07" cy="114.593" r="14" fill="#009af9" fill-rule="evenodd" fill-opacity="1" stroke="#000000" stroke-opacity="1" stroke-width="3.2"/>
<circle clip-path="url(#clip362)" cx="1213.53" cy="428.918" r="14" fill="#009af9" fill-rule="evenodd" fill-opacity="1" stroke="#000000" stroke-opacity="1" stroke-width="3.2"/>
<circle clip-path="url(#clip362)" cx="1223.98" cy="470.071" r="14" fill="#009af9" fill-rule="evenodd" fill-opacity="1" stroke="#000000" stroke-opacity="1" stroke-width="3.2"/>
<circle clip-path="url(#clip362)" cx="1234.44" cy="594.774" r="14" fill="#009af9" fill-rule="evenodd" fill-opacity="1" stroke="#000000" stroke-opacity="1" stroke-width="3.2"/>
<circle clip-path="url(#clip362)" cx="1244.89" cy="270.885" r="14" fill="#009af9" fill-rule="evenodd" fill-opacity="1" stroke="#000000" stroke-opacity="1" stroke-width="3.2"/>
<circle clip-path="url(#clip362)" cx="1255.34" cy="657.511" r="14" fill="#009af9" fill-rule="evenodd" fill-opacity="1" stroke="#000000" stroke-opacity="1" stroke-width="3.2"/>
<circle clip-path="url(#clip362)" cx="1265.8" cy="705.838" r="14" fill="#009af9" fill-rule="evenodd" fill-opacity="1" stroke="#000000" stroke-opacity="1" stroke-width="3.2"/>
<circle clip-path="url(#clip362)" cx="1276.25" cy="734.035" r="14" fill="#009af9" fill-rule="evenodd" fill-opacity="1" stroke="#000000" stroke-opacity="1" stroke-width="3.2"/>
<circle clip-path="url(#clip362)" cx="1286.71" cy="516.709" r="14" fill="#009af9" fill-rule="evenodd" fill-opacity="1" stroke="#000000" stroke-opacity="1" stroke-width="3.2"/>
<circle clip-path="url(#clip362)" cx="1297.16" cy="513.263" r="14" fill="#009af9" fill-rule="evenodd" fill-opacity="1" stroke="#000000" stroke-opacity="1" stroke-width="3.2"/>
<circle clip-path="url(#clip362)" cx="1307.62" cy="364.912" r="14" fill="#009af9" fill-rule="evenodd" fill-opacity="1" stroke="#000000" stroke-opacity="1" stroke-width="3.2"/>
<circle clip-path="url(#clip362)" cx="1318.07" cy="445.686" r="14" fill="#009af9" fill-rule="evenodd" fill-opacity="1" stroke="#000000" stroke-opacity="1" stroke-width="3.2"/>
<circle clip-path="url(#clip362)" cx="1328.53" cy="598.707" r="14" fill="#009af9" fill-rule="evenodd" fill-opacity="1" stroke="#000000" stroke-opacity="1" stroke-width="3.2"/>
<circle clip-path="url(#clip362)" cx="1338.98" cy="579.615" r="14" fill="#009af9" fill-rule="evenodd" fill-opacity="1" stroke="#000000" stroke-opacity="1" stroke-width="3.2"/>
<circle clip-path="url(#clip362)" cx="1349.43" cy="1106.84" r="14" fill="#009af9" fill-rule="evenodd" fill-opacity="1" stroke="#000000" stroke-opacity="1" stroke-width="3.2"/>
<circle clip-path="url(#clip362)" cx="1359.89" cy="430.519" r="14" fill="#009af9" fill-rule="evenodd" fill-opacity="1" stroke="#000000" stroke-opacity="1" stroke-width="3.2"/>
<circle clip-path="url(#clip362)" cx="1370.34" cy="328.918" r="14" fill="#009af9" fill-rule="evenodd" fill-opacity="1" stroke="#000000" stroke-opacity="1" stroke-width="3.2"/>
<circle clip-path="url(#clip362)" cx="1380.8" cy="666.405" r="14" fill="#009af9" fill-rule="evenodd" fill-opacity="1" stroke="#000000" stroke-opacity="1" stroke-width="3.2"/>
<circle clip-path="url(#clip362)" cx="1391.25" cy="576.589" r="14" fill="#009af9" fill-rule="evenodd" fill-opacity="1" stroke="#000000" stroke-opacity="1" stroke-width="3.2"/>
<circle clip-path="url(#clip362)" cx="1401.71" cy="901.765" r="14" fill="#009af9" fill-rule="evenodd" fill-opacity="1" stroke="#000000" stroke-opacity="1" stroke-width="3.2"/>
<circle clip-path="url(#clip362)" cx="1412.16" cy="965.319" r="14" fill="#009af9" fill-rule="evenodd" fill-opacity="1" stroke="#000000" stroke-opacity="1" stroke-width="3.2"/>
<circle clip-path="url(#clip362)" cx="1422.62" cy="532.3" r="14" fill="#009af9" fill-rule="evenodd" fill-opacity="1" stroke="#000000" stroke-opacity="1" stroke-width="3.2"/>
<circle clip-path="url(#clip362)" cx="1433.07" cy="529.699" r="14" fill="#009af9" fill-rule="evenodd" fill-opacity="1" stroke="#000000" stroke-opacity="1" stroke-width="3.2"/>
<circle clip-path="url(#clip362)" cx="1443.53" cy="700.87" r="14" fill="#009af9" fill-rule="evenodd" fill-opacity="1" stroke="#000000" stroke-opacity="1" stroke-width="3.2"/>
<circle clip-path="url(#clip362)" cx="1453.98" cy="578.411" r="14" fill="#009af9" fill-rule="evenodd" fill-opacity="1" stroke="#000000" stroke-opacity="1" stroke-width="3.2"/>
<circle clip-path="url(#clip362)" cx="1464.43" cy="1020" r="14" fill="#009af9" fill-rule="evenodd" fill-opacity="1" stroke="#000000" stroke-opacity="1" stroke-width="3.2"/>
<circle clip-path="url(#clip362)" cx="1474.89" cy="683.378" r="14" fill="#009af9" fill-rule="evenodd" fill-opacity="1" stroke="#000000" stroke-opacity="1" stroke-width="3.2"/>
<circle clip-path="url(#clip362)" cx="1485.34" cy="450.155" r="14" fill="#009af9" fill-rule="evenodd" fill-opacity="1" stroke="#000000" stroke-opacity="1" stroke-width="3.2"/>
<circle clip-path="url(#clip362)" cx="1495.8" cy="783.876" r="14" fill="#009af9" fill-rule="evenodd" fill-opacity="1" stroke="#000000" stroke-opacity="1" stroke-width="3.2"/>
<circle clip-path="url(#clip362)" cx="1506.25" cy="632.483" r="14" fill="#009af9" fill-rule="evenodd" fill-opacity="1" stroke="#000000" stroke-opacity="1" stroke-width="3.2"/>
<circle clip-path="url(#clip362)" cx="1516.71" cy="491.703" r="14" fill="#009af9" fill-rule="evenodd" fill-opacity="1" stroke="#000000" stroke-opacity="1" stroke-width="3.2"/>
<circle clip-path="url(#clip362)" cx="1527.16" cy="721.027" r="14" fill="#009af9" fill-rule="evenodd" fill-opacity="1" stroke="#000000" stroke-opacity="1" stroke-width="3.2"/>
<circle clip-path="url(#clip362)" cx="1537.62" cy="216.286" r="14" fill="#009af9" fill-rule="evenodd" fill-opacity="1" stroke="#000000" stroke-opacity="1" stroke-width="3.2"/>
<circle clip-path="url(#clip362)" cx="1548.07" cy="606.358" r="14" fill="#009af9" fill-rule="evenodd" fill-opacity="1" stroke="#000000" stroke-opacity="1" stroke-width="3.2"/>
<circle clip-path="url(#clip362)" cx="1558.53" cy="840.13" r="14" fill="#009af9" fill-rule="evenodd" fill-opacity="1" stroke="#000000" stroke-opacity="1" stroke-width="3.2"/>
<circle clip-path="url(#clip362)" cx="1568.98" cy="649.581" r="14" fill="#009af9" fill-rule="evenodd" fill-opacity="1" stroke="#000000" stroke-opacity="1" stroke-width="3.2"/>
<circle clip-path="url(#clip362)" cx="1579.43" cy="706.808" r="14" fill="#009af9" fill-rule="evenodd" fill-opacity="1" stroke="#000000" stroke-opacity="1" stroke-width="3.2"/>
<circle clip-path="url(#clip362)" cx="1589.89" cy="529.178" r="14" fill="#009af9" fill-rule="evenodd" fill-opacity="1" stroke="#000000" stroke-opacity="1" stroke-width="3.2"/>
<circle clip-path="url(#clip362)" cx="1600.34" cy="1008.81" r="14" fill="#009af9" fill-rule="evenodd" fill-opacity="1" stroke="#000000" stroke-opacity="1" stroke-width="3.2"/>
<circle clip-path="url(#clip362)" cx="1610.8" cy="982.246" r="14" fill="#009af9" fill-rule="evenodd" fill-opacity="1" stroke="#000000" stroke-opacity="1" stroke-width="3.2"/>
<circle clip-path="url(#clip362)" cx="1621.25" cy="769.497" r="14" fill="#009af9" fill-rule="evenodd" fill-opacity="1" stroke="#000000" stroke-opacity="1" stroke-width="3.2"/>
<circle clip-path="url(#clip362)" cx="1631.71" cy="664.74" r="14" fill="#009af9" fill-rule="evenodd" fill-opacity="1" stroke="#000000" stroke-opacity="1" stroke-width="3.2"/>
<circle clip-path="url(#clip362)" cx="1642.16" cy="631.265" r="14" fill="#009af9" fill-rule="evenodd" fill-opacity="1" stroke="#000000" stroke-opacity="1" stroke-width="3.2"/>
<circle clip-path="url(#clip362)" cx="1652.62" cy="930.621" r="14" fill="#009af9" fill-rule="evenodd" fill-opacity="1" stroke="#000000" stroke-opacity="1" stroke-width="3.2"/>
<circle clip-path="url(#clip362)" cx="1663.07" cy="1096.46" r="14" fill="#009af9" fill-rule="evenodd" fill-opacity="1" stroke="#000000" stroke-opacity="1" stroke-width="3.2"/>
<circle clip-path="url(#clip362)" cx="1673.53" cy="926.108" r="14" fill="#009af9" fill-rule="evenodd" fill-opacity="1" stroke="#000000" stroke-opacity="1" stroke-width="3.2"/>
<circle clip-path="url(#clip362)" cx="1683.98" cy="863.59" r="14" fill="#009af9" fill-rule="evenodd" fill-opacity="1" stroke="#000000" stroke-opacity="1" stroke-width="3.2"/>
<circle clip-path="url(#clip362)" cx="1694.43" cy="818.569" r="14" fill="#009af9" fill-rule="evenodd" fill-opacity="1" stroke="#000000" stroke-opacity="1" stroke-width="3.2"/>
<circle clip-path="url(#clip362)" cx="1704.89" cy="926.33" r="14" fill="#009af9" fill-rule="evenodd" fill-opacity="1" stroke="#000000" stroke-opacity="1" stroke-width="3.2"/>
<circle clip-path="url(#clip362)" cx="1715.34" cy="1037.8" r="14" fill="#009af9" fill-rule="evenodd" fill-opacity="1" stroke="#000000" stroke-opacity="1" stroke-width="3.2"/>
<circle clip-path="url(#clip362)" cx="1725.8" cy="701.386" r="14" fill="#009af9" fill-rule="evenodd" fill-opacity="1" stroke="#000000" stroke-opacity="1" stroke-width="3.2"/>
<circle clip-path="url(#clip362)" cx="1736.25" cy="845.037" r="14" fill="#009af9" fill-rule="evenodd" fill-opacity="1" stroke="#000000" stroke-opacity="1" stroke-width="3.2"/>
<circle clip-path="url(#clip362)" cx="1746.71" cy="1082.16" r="14" fill="#009af9" fill-rule="evenodd" fill-opacity="1" stroke="#000000" stroke-opacity="1" stroke-width="3.2"/>
<circle clip-path="url(#clip362)" cx="1757.16" cy="679.226" r="14" fill="#009af9" fill-rule="evenodd" fill-opacity="1" stroke="#000000" stroke-opacity="1" stroke-width="3.2"/>
<circle clip-path="url(#clip362)" cx="1767.62" cy="886.631" r="14" fill="#009af9" fill-rule="evenodd" fill-opacity="1" stroke="#000000" stroke-opacity="1" stroke-width="3.2"/>
<circle clip-path="url(#clip362)" cx="1778.07" cy="779.744" r="14" fill="#009af9" fill-rule="evenodd" fill-opacity="1" stroke="#000000" stroke-opacity="1" stroke-width="3.2"/>
<circle clip-path="url(#clip362)" cx="1788.53" cy="613.98" r="14" fill="#009af9" fill-rule="evenodd" fill-opacity="1" stroke="#000000" stroke-opacity="1" stroke-width="3.2"/>
<circle clip-path="url(#clip362)" cx="1798.98" cy="644.81" r="14" fill="#009af9" fill-rule="evenodd" fill-opacity="1" stroke="#000000" stroke-opacity="1" stroke-width="3.2"/>
<circle clip-path="url(#clip362)" cx="1809.43" cy="536.361" r="14" fill="#009af9" fill-rule="evenodd" fill-opacity="1" stroke="#000000" stroke-opacity="1" stroke-width="3.2"/>
<circle clip-path="url(#clip362)" cx="1819.89" cy="928.138" r="14" fill="#009af9" fill-rule="evenodd" fill-opacity="1" stroke="#000000" stroke-opacity="1" stroke-width="3.2"/>
<circle clip-path="url(#clip362)" cx="1830.34" cy="785.936" r="14" fill="#009af9" fill-rule="evenodd" fill-opacity="1" stroke="#000000" stroke-opacity="1" stroke-width="3.2"/>
<circle clip-path="url(#clip362)" cx="1840.8" cy="995.561" r="14" fill="#009af9" fill-rule="evenodd" fill-opacity="1" stroke="#000000" stroke-opacity="1" stroke-width="3.2"/>
<circle clip-path="url(#clip362)" cx="1851.25" cy="976.307" r="14" fill="#009af9" fill-rule="evenodd" fill-opacity="1" stroke="#000000" stroke-opacity="1" stroke-width="3.2"/>
<circle clip-path="url(#clip362)" cx="1861.71" cy="829.801" r="14" fill="#009af9" fill-rule="evenodd" fill-opacity="1" stroke="#000000" stroke-opacity="1" stroke-width="3.2"/>
<circle clip-path="url(#clip362)" cx="1872.16" cy="622.922" r="14" fill="#009af9" fill-rule="evenodd" fill-opacity="1" stroke="#000000" stroke-opacity="1" stroke-width="3.2"/>
<circle clip-path="url(#clip362)" cx="1882.62" cy="1202.41" r="14" fill="#009af9" fill-rule="evenodd" fill-opacity="1" stroke="#000000" stroke-opacity="1" stroke-width="3.2"/>
<circle clip-path="url(#clip362)" cx="1893.07" cy="572.668" r="14" fill="#009af9" fill-rule="evenodd" fill-opacity="1" stroke="#000000" stroke-opacity="1" stroke-width="3.2"/>
<circle clip-path="url(#clip362)" cx="1903.52" cy="1147.26" r="14" fill="#009af9" fill-rule="evenodd" fill-opacity="1" stroke="#000000" stroke-opacity="1" stroke-width="3.2"/>
<circle clip-path="url(#clip362)" cx="1913.98" cy="934.74" r="14" fill="#009af9" fill-rule="evenodd" fill-opacity="1" stroke="#000000" stroke-opacity="1" stroke-width="3.2"/>
<circle clip-path="url(#clip362)" cx="1924.43" cy="880.459" r="14" fill="#009af9" fill-rule="evenodd" fill-opacity="1" stroke="#000000" stroke-opacity="1" stroke-width="3.2"/>
<circle clip-path="url(#clip362)" cx="1934.89" cy="534.643" r="14" fill="#009af9" fill-rule="evenodd" fill-opacity="1" stroke="#000000" stroke-opacity="1" stroke-width="3.2"/>
<circle clip-path="url(#clip362)" cx="1945.34" cy="1203.37" r="14" fill="#009af9" fill-rule="evenodd" fill-opacity="1" stroke="#000000" stroke-opacity="1" stroke-width="3.2"/>
<circle clip-path="url(#clip362)" cx="1955.8" cy="690.334" r="14" fill="#009af9" fill-rule="evenodd" fill-opacity="1" stroke="#000000" stroke-opacity="1" stroke-width="3.2"/>
<circle clip-path="url(#clip362)" cx="1966.25" cy="872.808" r="14" fill="#009af9" fill-rule="evenodd" fill-opacity="1" stroke="#000000" stroke-opacity="1" stroke-width="3.2"/>
<circle clip-path="url(#clip362)" cx="1976.71" cy="967.174" r="14" fill="#009af9" fill-rule="evenodd" fill-opacity="1" stroke="#000000" stroke-opacity="1" stroke-width="3.2"/>
<circle clip-path="url(#clip362)" cx="1987.16" cy="840.553" r="14" fill="#009af9" fill-rule="evenodd" fill-opacity="1" stroke="#000000" stroke-opacity="1" stroke-width="3.2"/>
<circle clip-path="url(#clip362)" cx="1997.62" cy="533.212" r="14" fill="#009af9" fill-rule="evenodd" fill-opacity="1" stroke="#000000" stroke-opacity="1" stroke-width="3.2"/>
<circle clip-path="url(#clip362)" cx="2008.07" cy="1036.98" r="14" fill="#009af9" fill-rule="evenodd" fill-opacity="1" stroke="#000000" stroke-opacity="1" stroke-width="3.2"/>
<circle clip-path="url(#clip362)" cx="2018.52" cy="863.197" r="14" fill="#009af9" fill-rule="evenodd" fill-opacity="1" stroke="#000000" stroke-opacity="1" stroke-width="3.2"/>
<circle clip-path="url(#clip362)" cx="2028.98" cy="894.13" r="14" fill="#009af9" fill-rule="evenodd" fill-opacity="1" stroke="#000000" stroke-opacity="1" stroke-width="3.2"/>
<circle clip-path="url(#clip362)" cx="2039.43" cy="714.86" r="14" fill="#009af9" fill-rule="evenodd" fill-opacity="1" stroke="#000000" stroke-opacity="1" stroke-width="3.2"/>
<circle clip-path="url(#clip362)" cx="2049.89" cy="564.882" r="14" fill="#009af9" fill-rule="evenodd" fill-opacity="1" stroke="#000000" stroke-opacity="1" stroke-width="3.2"/>
<circle clip-path="url(#clip362)" cx="2060.34" cy="673.417" r="14" fill="#009af9" fill-rule="evenodd" fill-opacity="1" stroke="#000000" stroke-opacity="1" stroke-width="3.2"/>
<circle clip-path="url(#clip362)" cx="2070.8" cy="758.884" r="14" fill="#009af9" fill-rule="evenodd" fill-opacity="1" stroke="#000000" stroke-opacity="1" stroke-width="3.2"/>
<circle clip-path="url(#clip362)" cx="2081.25" cy="1034.49" r="14" fill="#009af9" fill-rule="evenodd" fill-opacity="1" stroke="#000000" stroke-opacity="1" stroke-width="3.2"/>
<circle clip-path="url(#clip362)" cx="2091.71" cy="1020.63" r="14" fill="#009af9" fill-rule="evenodd" fill-opacity="1" stroke="#000000" stroke-opacity="1" stroke-width="3.2"/>
<circle clip-path="url(#clip362)" cx="2102.16" cy="1144.95" r="14" fill="#009af9" fill-rule="evenodd" fill-opacity="1" stroke="#000000" stroke-opacity="1" stroke-width="3.2"/>
<circle clip-path="url(#clip362)" cx="2112.62" cy="772.733" r="14" fill="#009af9" fill-rule="evenodd" fill-opacity="1" stroke="#000000" stroke-opacity="1" stroke-width="3.2"/>
<circle clip-path="url(#clip362)" cx="2123.07" cy="799.703" r="14" fill="#009af9" fill-rule="evenodd" fill-opacity="1" stroke="#000000" stroke-opacity="1" stroke-width="3.2"/>
<circle clip-path="url(#clip362)" cx="2133.52" cy="819.03" r="14" fill="#009af9" fill-rule="evenodd" fill-opacity="1" stroke="#000000" stroke-opacity="1" stroke-width="3.2"/>
<circle clip-path="url(#clip362)" cx="2143.98" cy="803.415" r="14" fill="#009af9" fill-rule="evenodd" fill-opacity="1" stroke="#000000" stroke-opacity="1" stroke-width="3.2"/>
<circle clip-path="url(#clip362)" cx="2154.43" cy="786.689" r="14" fill="#009af9" fill-rule="evenodd" fill-opacity="1" stroke="#000000" stroke-opacity="1" stroke-width="3.2"/>
<circle clip-path="url(#clip362)" cx="2164.89" cy="707.064" r="14" fill="#009af9" fill-rule="evenodd" fill-opacity="1" stroke="#000000" stroke-opacity="1" stroke-width="3.2"/>
<circle clip-path="url(#clip362)" cx="2175.34" cy="1078.17" r="14" fill="#009af9" fill-rule="evenodd" fill-opacity="1" stroke="#000000" stroke-opacity="1" stroke-width="3.2"/>
<circle clip-path="url(#clip362)" cx="2185.8" cy="825.232" r="14" fill="#009af9" fill-rule="evenodd" fill-opacity="1" stroke="#000000" stroke-opacity="1" stroke-width="3.2"/>
<circle clip-path="url(#clip362)" cx="2196.25" cy="738.237" r="14" fill="#009af9" fill-rule="evenodd" fill-opacity="1" stroke="#000000" stroke-opacity="1" stroke-width="3.2"/>
<circle clip-path="url(#clip362)" cx="2206.71" cy="822.682" r="14" fill="#009af9" fill-rule="evenodd" fill-opacity="1" stroke="#000000" stroke-opacity="1" stroke-width="3.2"/>
<circle clip-path="url(#clip362)" cx="2217.16" cy="647.892" r="14" fill="#009af9" fill-rule="evenodd" fill-opacity="1" stroke="#000000" stroke-opacity="1" stroke-width="3.2"/>
<circle clip-path="url(#clip362)" cx="2227.62" cy="961.718" r="14" fill="#009af9" fill-rule="evenodd" fill-opacity="1" stroke="#000000" stroke-opacity="1" stroke-width="3.2"/>
<circle clip-path="url(#clip362)" cx="2238.07" cy="1280.53" r="14" fill="#009af9" fill-rule="evenodd" fill-opacity="1" stroke="#000000" stroke-opacity="1" stroke-width="3.2"/>
<circle clip-path="url(#clip362)" cx="2248.52" cy="708.791" r="14" fill="#009af9" fill-rule="evenodd" fill-opacity="1" stroke="#000000" stroke-opacity="1" stroke-width="3.2"/>
<circle clip-path="url(#clip362)" cx="2258.98" cy="1101.22" r="14" fill="#009af9" fill-rule="evenodd" fill-opacity="1" stroke="#000000" stroke-opacity="1" stroke-width="3.2"/>
<circle clip-path="url(#clip362)" cx="2269.43" cy="1350.13" r="14" fill="#009af9" fill-rule="evenodd" fill-opacity="1" stroke="#000000" stroke-opacity="1" stroke-width="3.2"/>
<circle clip-path="url(#clip362)" cx="2279.89" cy="1275.42" r="14" fill="#009af9" fill-rule="evenodd" fill-opacity="1" stroke="#000000" stroke-opacity="1" stroke-width="3.2"/>
<circle clip-path="url(#clip362)" cx="2290.34" cy="979.053" r="14" fill="#009af9" fill-rule="evenodd" fill-opacity="1" stroke="#000000" stroke-opacity="1" stroke-width="3.2"/>
<polyline clip-path="url(#clip362)" style="stroke:#000000; stroke-linecap:butt; stroke-linejoin:round; stroke-width:16; stroke-opacity:1; fill:none" points="
  209.891,899.654 220.05,898.99 230.209,898.309 324.14,891.067 418.072,881.68 474.52,874.662 530.969,866.309 578.696,857.968 626.423,848.196 678.268,835.61 
  730.112,820.515 777.909,803.897 825.705,784.178 851.326,772.15 876.947,759.009 902.569,744.691 928.19,729.155 987.559,688.524 1046.93,642.644 1099.69,600.73 
  1152.45,563.395 1175.58,550.328 1198.72,540.177 1221.85,533.475 1244.98,530.598 1270.2,532.008 1295.43,538.059 1320.65,548.346 1345.87,562.218 1396.61,597.705 
  1447.35,637.882 1503.46,681.681 1559.56,721.138 1586.25,737.92 1612.94,753.371 1639.63,767.523 1666.32,780.44 1721.82,803.706 1777.32,822.782 1824.05,836.16 
  1870.77,847.517 1927.81,859.139 1984.85,868.766 2038.47,876.355 2092.09,882.797 2178,891.232 2263.9,897.889 2277.12,898.787 2290.34,899.654 
  "/>
<polyline clip-path="url(#clip362)" style="stroke:#3da44d; stroke-linecap:butt; stroke-linejoin:round; stroke-width:16; stroke-opacity:1; fill:none" points="
  209.891,1154.39 220.346,1009.12 230.8,935.365 241.255,897.827 251.71,877.308 262.164,864.397 272.619,855.22 283.073,848.695 293.528,844.859 303.982,843.935 
  314.437,845.886 324.891,850.282 335.346,856.335 345.8,863.034 356.255,869.296 366.709,874.112 377.164,876.665 387.618,876.401 398.073,873.07 408.527,866.722 
  418.982,857.678 429.437,846.481 439.891,833.832 450.346,820.518 460.8,807.35 471.255,795.096 481.709,784.43 492.164,775.897 502.618,769.878 513.073,766.586 
  523.527,766.057 533.982,768.165 544.436,772.641 554.891,779.097 565.345,787.058 575.8,795.994 586.254,805.355 596.709,814.601 607.163,823.231 617.618,830.808 
  628.073,836.978 638.527,841.481 648.982,844.163 659.436,844.973 669.891,843.961 680.345,841.27 690.8,837.124 701.254,831.811 711.709,825.664 722.163,819.044 
  732.618,812.319 743.072,805.847 753.527,799.952 763.981,794.919 774.436,790.969 784.89,788.258 795.345,786.868 805.799,786.799 816.254,787.977 826.709,790.251 
  837.163,793.402 847.618,797.155 858.072,801.184 868.527,805.13 878.981,808.616 889.436,811.257 899.89,812.681 910.345,812.538 920.799,810.518 931.254,806.362 
  941.708,799.869 952.163,790.91 962.617,779.427 973.072,765.443 983.526,749.056 993.981,730.442 1004.44,709.849 1014.89,687.587 1025.34,664.026 1035.8,639.577 
  1046.25,614.687 1056.71,589.824 1067.16,565.46 1077.62,542.063 1088.07,520.08 1098.53,499.925 1108.98,481.969 1119.44,466.526 1129.89,453.85 1140.34,444.126 
  1150.8,437.462 1161.25,433.895 1171.71,433.382 1182.16,435.809 1192.62,440.993 1203.07,448.689 1213.53,458.598 1223.98,470.376 1234.44,483.647 1244.89,498.011 
  1255.34,513.063 1265.8,528.397 1276.25,543.624 1286.71,558.381 1297.16,572.344 1307.62,585.234 1318.07,596.824 1328.53,606.949 1338.98,615.507 1349.43,622.46 
  1359.89,627.835 1370.34,631.721 1380.8,634.264 1391.25,635.662 1401.71,636.154 1412.16,636.014 1422.62,635.537 1433.07,635.031 1443.53,634.802 1453.98,635.146 
  1464.43,636.334 1474.89,638.605 1485.34,642.154 1495.8,647.126 1506.25,653.611 1516.71,661.636 1527.16,671.169 1537.62,682.117 1548.07,694.326 1558.53,707.593 
  1568.98,721.667 1579.43,736.26 1589.89,751.061 1600.34,765.741 1610.8,779.973 1621.25,793.44 1631.71,805.85 1642.16,816.946 1652.62,826.52 1663.07,834.418 
  1673.53,840.55 1683.98,844.892 1694.43,847.491 1704.89,848.461 1715.34,847.977 1725.8,846.272 1736.25,843.625 1746.71,840.346 1757.16,836.765 1767.62,833.215 
  1778.07,830.012 1788.53,827.444 1798.98,825.75 1809.43,825.108 1819.89,825.624 1830.34,827.323 1840.8,830.144 1851.25,833.944 1861.71,838.5 1872.16,843.521 
  1882.62,848.665 1893.07,853.558 1903.52,857.82 1913.98,861.091 1924.43,863.06 1934.89,863.49 1945.34,862.248 1955.8,859.324 1966.25,854.842 1976.71,849.071 
  1987.16,842.415 1997.62,835.397 2008.07,828.628 2018.52,822.763 2028.98,818.445 2039.43,816.241 2049.89,816.571 2060.34,819.636 2070.8,825.358 2081.25,833.331 
  2091.71,842.798 2102.16,852.674 2112.62,861.603 2123.07,868.086 2133.52,870.666 2143.98,868.18 2154.43,860.074 2164.89,846.751 2175.34,829.928 2185.8,812.929 
  2196.25,800.822 2206.71,800.276 2217.16,818.916 2227.62,863.952 2238.07,939.693 2248.52,1043.51 2258.98,1159.65 2269.43,1250.1 2279.89,1241.57 2290.34,1007.36 
  
  "/>
<polyline clip-path="url(#clip362)" style="stroke:#c271d2; stroke-linecap:butt; stroke-linejoin:round; stroke-width:16; stroke-opacity:1; fill:none" points="
  209.891,898.54 220.05,897.836 230.209,897.113 324.14,889.392 418.072,879.295 474.52,871.685 530.969,862.564 578.696,853.391 626.423,842.57 678.268,828.521 
  730.112,811.524 777.909,792.648 825.705,770.063 851.326,756.207 876.947,741.012 902.569,724.407 928.19,706.352 987.559,659.155 1046.93,606.524 1073.31,582.858 
  1099.69,560.184 1126.07,539.579 1152.45,522.23 1175.58,510.614 1198.72,503.065 1221.85,500.045 1244.98,501.747 1270.2,508.849 1295.43,520.906 1320.65,537.088 
  1345.87,556.389 1396.61,600.523 1447.35,645.971 1475.4,669.898 1503.46,692.39 1531.51,713.226 1559.56,732.326 1586.25,748.901 1612.94,763.982 1639.63,777.662 
  1666.32,790.048 1721.82,812.152 1777.32,830.113 1824.05,842.64 1870.77,853.241 1927.81,864.064 1984.85,873.018 2038.47,880.072 2092.09,886.061 2178,893.907 
  2263.9,900.107 2277.12,900.943 2290.34,901.752 
  "/>
<path clip-path="url(#clip360)" d="
M1550.99 484.018 L2279.25 484.018 L2279.25 95.2176 L1550.99 95.2176  Z
  " fill="#ffffff" fill-rule="evenodd" fill-opacity="1"/>
<polyline clip-path="url(#clip360)" style="stroke:#000000; stroke-linecap:butt; stroke-linejoin:round; stroke-width:4; stroke-opacity:1; fill:none" points="
  1550.99,484.018 2279.25,484.018 2279.25,95.2176 1550.99,95.2176 1550.99,484.018 
  "/>
<circle clip-path="url(#clip360)" cx="1649" cy="172.978" r="34" fill="#009af9" fill-rule="evenodd" fill-opacity="1" stroke="#000000" stroke-opacity="1" stroke-width="7.68"/>
<path clip-path="url(#clip360)" d="M1767.78 202.509 Q1765.07 209.453 1762.5 211.571 Q1759.93 213.689 1755.62 213.689 L1750.52 213.689 L1750.52 208.342 L1754.27 208.342 Q1756.91 208.342 1758.37 207.092 Q1759.83 205.842 1761.6 201.189 L1762.74 198.273 L1747.01 160.009 L1753.78 160.009 L1765.94 190.425 L1778.09 160.009 L1784.86 160.009 L1767.78 202.509 Z" fill="#000000" fill-rule="evenodd" fill-opacity="1" /><path clip-path="url(#clip360)" d="M1795.8 192.995 L1807.26 192.995 L1807.26 153.446 L1794.79 155.946 L1794.79 149.558 L1807.19 147.058 L1814.2 147.058 L1814.2 192.995 L1825.66 192.995 L1825.66 198.898 L1795.8 198.898 L1795.8 192.995 Z" fill="#000000" fill-rule="evenodd" fill-opacity="1" /><polyline clip-path="url(#clip360)" style="stroke:#000000; stroke-linecap:butt; stroke-linejoin:round; stroke-width:6; stroke-opacity:1; fill:none" points="
  1575.49,250.738 1722.51,250.738 
  "/>
<path clip-path="url(#clip360)" d="M1771.6 252.352 Q1773.85 253.116 1775.97 255.616 Q1778.12 258.116 1780.28 262.491 L1787.4 276.658 L1779.86 276.658 L1773.23 263.359 Q1770.66 258.151 1768.23 256.449 Q1765.83 254.748 1761.67 254.748 L1754.03 254.748 L1754.03 276.658 L1747.01 276.658 L1747.01 224.818 L1762.85 224.818 Q1771.74 224.818 1776.11 228.533 Q1780.49 232.248 1780.49 239.748 Q1780.49 244.644 1778.19 247.873 Q1775.94 251.102 1771.6 252.352 M1754.03 230.581 L1754.03 248.984 L1762.85 248.984 Q1767.92 248.984 1770.49 246.658 Q1773.09 244.297 1773.09 239.748 Q1773.09 235.199 1770.49 232.908 Q1767.92 230.581 1762.85 230.581 L1754.03 230.581 Z" fill="#000000" fill-rule="evenodd" fill-opacity="1" /><path clip-path="url(#clip360)" d="M1792.29 261.31 L1792.29 237.769 L1798.68 237.769 L1798.68 261.067 Q1798.68 266.588 1800.83 269.366 Q1802.99 272.109 1807.29 272.109 Q1812.46 272.109 1815.45 268.81 Q1818.47 265.512 1818.47 259.817 L1818.47 237.769 L1824.86 237.769 L1824.86 276.658 L1818.47 276.658 L1818.47 270.685 Q1816.15 274.227 1813.06 275.963 Q1810 277.664 1805.94 277.664 Q1799.24 277.664 1795.76 273.498 Q1792.29 269.331 1792.29 261.31 M1808.37 236.831 L1808.37 236.831 Z" fill="#000000" fill-rule="evenodd" fill-opacity="1" /><path clip-path="url(#clip360)" d="M1870.35 253.185 L1870.35 276.658 L1863.96 276.658 L1863.96 253.394 Q1863.96 247.873 1861.8 245.13 Q1859.65 242.387 1855.35 242.387 Q1850.17 242.387 1847.19 245.685 Q1844.2 248.984 1844.2 254.679 L1844.2 276.658 L1837.78 276.658 L1837.78 237.769 L1844.2 237.769 L1844.2 243.811 Q1846.49 240.304 1849.58 238.567 Q1852.71 236.831 1856.77 236.831 Q1863.47 236.831 1866.91 240.998 Q1870.35 245.13 1870.35 253.185 Z" fill="#000000" fill-rule="evenodd" fill-opacity="1" /><path clip-path="url(#clip360)" d="M1908.68 256.762 Q1908.68 249.817 1905.8 245.998 Q1902.95 242.179 1897.78 242.179 Q1892.64 242.179 1889.76 245.998 Q1886.91 249.817 1886.91 256.762 Q1886.91 263.672 1889.76 267.491 Q1892.64 271.31 1897.78 271.31 Q1902.95 271.31 1905.8 267.491 Q1908.68 263.672 1908.68 256.762 M1915.07 271.831 Q1915.07 281.762 1910.66 286.588 Q1906.25 291.449 1897.15 291.449 Q1893.78 291.449 1890.8 290.928 Q1887.81 290.442 1885 289.401 L1885 283.185 Q1887.81 284.713 1890.55 285.442 Q1893.3 286.171 1896.15 286.171 Q1902.43 286.171 1905.55 282.873 Q1908.68 279.609 1908.68 272.977 L1908.68 269.817 Q1906.7 273.255 1903.61 274.956 Q1900.52 276.658 1896.21 276.658 Q1889.06 276.658 1884.69 271.206 Q1880.31 265.755 1880.31 256.762 Q1880.31 247.734 1884.69 242.283 Q1889.06 236.831 1896.21 236.831 Q1900.52 236.831 1903.61 238.533 Q1906.7 240.234 1908.68 243.672 L1908.68 237.769 L1915.07 237.769 L1915.07 271.831 Z" fill="#000000" fill-rule="evenodd" fill-opacity="1" /><path clip-path="url(#clip360)" d="M1961.49 255.616 L1961.49 258.741 L1932.12 258.741 Q1932.53 265.338 1936.08 268.81 Q1939.65 272.248 1946.01 272.248 Q1949.69 272.248 1953.12 271.345 Q1956.6 270.442 1960 268.637 L1960 274.678 Q1956.56 276.137 1952.95 276.901 Q1949.34 277.664 1945.62 277.664 Q1936.32 277.664 1930.87 272.248 Q1925.45 266.831 1925.45 257.595 Q1925.45 248.047 1930.59 242.456 Q1935.76 236.831 1944.51 236.831 Q1952.36 236.831 1956.91 241.901 Q1961.49 246.935 1961.49 255.616 M1955.1 253.741 Q1955.03 248.498 1952.15 245.373 Q1949.3 242.248 1944.58 242.248 Q1939.24 242.248 1936.01 245.269 Q1932.81 248.29 1932.33 253.776 L1955.1 253.741 Z" fill="#000000" fill-rule="evenodd" fill-opacity="1" /><polyline clip-path="url(#clip360)" style="stroke:#3da44d; stroke-linecap:butt; stroke-linejoin:round; stroke-width:6; stroke-opacity:1; fill:none" points="
  1575.49,328.498 1722.51,328.498 
  "/>
<path clip-path="url(#clip360)" d="M1788.82 306.571 L1788.82 313.966 Q1785.28 310.668 1781.25 309.036 Q1777.26 307.404 1772.74 307.404 Q1763.85 307.404 1759.13 312.855 Q1754.41 318.272 1754.41 328.55 Q1754.41 338.793 1759.13 344.244 Q1763.85 349.661 1772.74 349.661 Q1777.26 349.661 1781.25 348.029 Q1785.28 346.397 1788.82 343.098 L1788.82 350.425 Q1785.14 352.925 1781.01 354.174 Q1776.91 355.424 1772.33 355.424 Q1760.56 355.424 1753.78 348.237 Q1747.01 341.015 1747.01 328.55 Q1747.01 316.05 1753.78 308.862 Q1760.56 301.64 1772.33 301.64 Q1776.98 301.64 1781.08 302.89 Q1785.21 304.105 1788.82 306.571 Z" fill="#000000" fill-rule="evenodd" fill-opacity="1" /><path clip-path="url(#clip360)" d="M1831.7 330.945 L1831.7 354.418 L1825.31 354.418 L1825.31 331.154 Q1825.31 325.633 1823.16 322.89 Q1821.01 320.147 1816.7 320.147 Q1811.53 320.147 1808.54 323.445 Q1805.56 326.744 1805.56 332.439 L1805.56 354.418 L1799.13 354.418 L1799.13 300.39 L1805.56 300.39 L1805.56 321.571 Q1807.85 318.064 1810.94 316.327 Q1814.06 314.591 1818.12 314.591 Q1824.83 314.591 1828.26 318.758 Q1831.7 322.89 1831.7 330.945 Z" fill="#000000" fill-rule="evenodd" fill-opacity="1" /><path clip-path="url(#clip360)" d="M1877.71 333.376 L1877.71 336.501 L1848.33 336.501 Q1848.75 343.098 1852.29 346.57 Q1855.87 350.008 1862.22 350.008 Q1865.9 350.008 1869.34 349.105 Q1872.81 348.202 1876.21 346.397 L1876.21 352.438 Q1872.78 353.897 1869.17 354.661 Q1865.55 355.424 1861.84 355.424 Q1852.53 355.424 1847.08 350.008 Q1841.67 344.591 1841.67 335.355 Q1841.67 325.807 1846.81 320.216 Q1851.98 314.591 1860.73 314.591 Q1868.58 314.591 1873.12 319.661 Q1877.71 324.695 1877.71 333.376 M1871.32 331.501 Q1871.25 326.258 1868.37 323.133 Q1865.52 320.008 1860.8 320.008 Q1855.45 320.008 1852.22 323.029 Q1849.03 326.05 1848.54 331.536 L1871.32 331.501 Z" fill="#000000" fill-rule="evenodd" fill-opacity="1" /><path clip-path="url(#clip360)" d="M1916.11 335.008 Q1916.11 327.959 1913.19 323.966 Q1910.31 319.939 1905.24 319.939 Q1900.17 319.939 1897.26 323.966 Q1894.37 327.959 1894.37 335.008 Q1894.37 342.057 1897.26 346.084 Q1900.17 350.077 1905.24 350.077 Q1910.31 350.077 1913.19 346.084 Q1916.11 342.057 1916.11 335.008 M1894.37 321.432 Q1896.39 317.959 1899.44 316.293 Q1902.53 314.591 1906.8 314.591 Q1913.89 314.591 1918.3 320.216 Q1922.74 325.841 1922.74 335.008 Q1922.74 344.175 1918.3 349.8 Q1913.89 355.424 1906.8 355.424 Q1902.53 355.424 1899.44 353.758 Q1896.39 352.056 1894.37 348.584 L1894.37 354.418 L1887.95 354.418 L1887.95 300.39 L1894.37 300.39 L1894.37 321.432 Z" fill="#000000" fill-rule="evenodd" fill-opacity="1" /><path clip-path="url(#clip360)" d="M1949.51 358.029 Q1946.8 364.973 1944.24 367.091 Q1941.67 369.209 1937.36 369.209 L1932.26 369.209 L1932.26 363.862 L1936.01 363.862 Q1938.64 363.862 1940.1 362.612 Q1941.56 361.362 1943.33 356.709 L1944.48 353.793 L1928.75 315.529 L1935.52 315.529 L1947.67 345.945 L1959.83 315.529 L1966.6 315.529 L1949.51 358.029 Z" fill="#000000" fill-rule="evenodd" fill-opacity="1" /><path clip-path="url(#clip360)" d="M2000.21 316.675 L2000.21 322.716 Q1997.5 321.327 1994.58 320.633 Q1991.67 319.939 1988.54 319.939 Q1983.78 319.939 1981.39 321.397 Q1979.03 322.855 1979.03 325.772 Q1979.03 327.994 1980.73 329.279 Q1982.43 330.529 1987.57 331.675 L1989.76 332.161 Q1996.56 333.619 1999.41 336.293 Q2002.29 338.932 2002.29 343.688 Q2002.29 349.105 1997.98 352.265 Q1993.71 355.424 1986.21 355.424 Q1983.09 355.424 1979.69 354.799 Q1976.32 354.209 1972.57 352.994 L1972.57 346.397 Q1976.11 348.237 1979.55 349.175 Q1982.98 350.077 1986.35 350.077 Q1990.87 350.077 1993.3 348.55 Q1995.73 346.987 1995.73 344.175 Q1995.73 341.57 1993.96 340.182 Q1992.22 338.793 1986.28 337.508 L1984.06 336.987 Q1978.12 335.737 1975.48 333.168 Q1972.85 330.564 1972.85 326.05 Q1972.85 320.564 1976.73 317.577 Q1980.62 314.591 1987.78 314.591 Q1991.32 314.591 1994.44 315.112 Q1997.57 315.633 2000.21 316.675 Z" fill="#000000" fill-rule="evenodd" fill-opacity="1" /><path clip-path="url(#clip360)" d="M2044.79 330.945 L2044.79 354.418 L2038.4 354.418 L2038.4 331.154 Q2038.4 325.633 2036.25 322.89 Q2034.1 320.147 2029.79 320.147 Q2024.62 320.147 2021.63 323.445 Q2018.64 326.744 2018.64 332.439 L2018.64 354.418 L2012.22 354.418 L2012.22 300.39 L2018.64 300.39 L2018.64 321.571 Q2020.94 318.064 2024.03 316.327 Q2027.15 314.591 2031.21 314.591 Q2037.92 314.591 2041.35 318.758 Q2044.79 322.89 2044.79 330.945 Z" fill="#000000" fill-rule="evenodd" fill-opacity="1" /><path clip-path="url(#clip360)" d="M2090.8 333.376 L2090.8 336.501 L2061.42 336.501 Q2061.84 343.098 2065.38 346.57 Q2068.96 350.008 2075.31 350.008 Q2078.99 350.008 2082.43 349.105 Q2085.9 348.202 2089.3 346.397 L2089.3 352.438 Q2085.87 353.897 2082.26 354.661 Q2078.64 355.424 2074.93 355.424 Q2065.62 355.424 2060.17 350.008 Q2054.76 344.591 2054.76 335.355 Q2054.76 325.807 2059.89 320.216 Q2065.07 314.591 2073.82 314.591 Q2081.66 314.591 2086.21 319.661 Q2090.8 324.695 2090.8 333.376 M2084.41 331.501 Q2084.34 326.258 2081.46 323.133 Q2078.61 320.008 2073.89 320.008 Q2068.54 320.008 2065.31 323.029 Q2062.12 326.05 2061.63 331.536 L2084.41 331.501 Z" fill="#000000" fill-rule="evenodd" fill-opacity="1" /><path clip-path="url(#clip360)" d="M2096.7 315.529 L2103.47 315.529 L2115.62 348.168 L2127.78 315.529 L2134.55 315.529 L2119.96 354.418 L2111.28 354.418 L2096.7 315.529 Z" fill="#000000" fill-rule="evenodd" fill-opacity="1" /><path clip-path="url(#clip360)" d="M2185.66 300.39 L2185.66 305.703 L2179.55 305.703 Q2176.11 305.703 2174.75 307.091 Q2173.44 308.48 2173.44 312.091 L2173.44 315.529 L2183.96 315.529 L2183.96 320.494 L2173.44 320.494 L2173.44 354.418 L2167.01 354.418 L2167.01 320.494 L2160.9 320.494 L2160.9 315.529 L2167.01 315.529 L2167.01 312.821 Q2167.01 306.328 2170.03 303.376 Q2173.05 300.39 2179.62 300.39 L2185.66 300.39 Z" fill="#000000" fill-rule="evenodd" fill-opacity="1" /><path clip-path="url(#clip360)" d="M2191 315.529 L2197.39 315.529 L2197.39 354.418 L2191 354.418 L2191 315.529 M2191 300.39 L2197.39 300.39 L2197.39 308.48 L2191 308.48 L2191 300.39 Z" fill="#000000" fill-rule="evenodd" fill-opacity="1" /><path clip-path="url(#clip360)" d="M2217.08 304.487 L2217.08 315.529 L2230.24 315.529 L2230.24 320.494 L2217.08 320.494 L2217.08 341.605 Q2217.08 346.362 2218.37 347.716 Q2219.68 349.07 2223.68 349.07 L2230.24 349.07 L2230.24 354.418 L2223.68 354.418 Q2216.28 354.418 2213.47 351.675 Q2210.66 348.897 2210.66 341.605 L2210.66 320.494 L2205.97 320.494 L2205.97 315.529 L2210.66 315.529 L2210.66 304.487 L2217.08 304.487 Z" fill="#000000" fill-rule="evenodd" fill-opacity="1" /><polyline clip-path="url(#clip360)" style="stroke:#c271d2; stroke-linecap:butt; stroke-linejoin:round; stroke-width:6; stroke-opacity:1; fill:none" points="
  1575.49,406.258 1722.51,406.258 
  "/>
<path clip-path="url(#clip360)" d="M1771.6 407.872 Q1773.85 408.636 1775.97 411.136 Q1778.12 413.636 1780.28 418.011 L1787.4 432.178 L1779.86 432.178 L1773.23 418.879 Q1770.66 413.671 1768.23 411.969 Q1765.83 410.268 1761.67 410.268 L1754.03 410.268 L1754.03 432.178 L1747.01 432.178 L1747.01 380.338 L1762.85 380.338 Q1771.74 380.338 1776.11 384.053 Q1780.49 387.768 1780.49 395.268 Q1780.49 400.164 1778.19 403.393 Q1775.94 406.622 1771.6 407.872 M1754.03 386.101 L1754.03 404.504 L1762.85 404.504 Q1767.92 404.504 1770.49 402.178 Q1773.09 399.817 1773.09 395.268 Q1773.09 390.719 1770.49 388.428 Q1767.92 386.101 1762.85 386.101 L1754.03 386.101 Z" fill="#000000" fill-rule="evenodd" fill-opacity="1" /><path clip-path="url(#clip360)" d="M1812.26 412.629 Q1804.51 412.629 1801.53 414.4 Q1798.54 416.171 1798.54 420.442 Q1798.54 423.844 1800.76 425.858 Q1803.02 427.837 1806.87 427.837 Q1812.19 427.837 1815.38 424.087 Q1818.61 420.303 1818.61 414.053 L1818.61 412.629 L1812.26 412.629 M1825 409.99 L1825 432.178 L1818.61 432.178 L1818.61 426.275 Q1816.42 429.816 1813.16 431.518 Q1809.9 433.184 1805.17 433.184 Q1799.2 433.184 1795.66 429.851 Q1792.15 426.483 1792.15 420.858 Q1792.15 414.296 1796.53 410.962 Q1800.94 407.629 1809.65 407.629 L1818.61 407.629 L1818.61 407.004 Q1818.61 402.594 1815.69 400.199 Q1812.81 397.768 1807.57 397.768 Q1804.24 397.768 1801.08 398.567 Q1797.92 399.365 1795 400.962 L1795 395.06 Q1798.51 393.706 1801.81 393.046 Q1805.1 392.351 1808.23 392.351 Q1816.67 392.351 1820.83 396.726 Q1825 401.101 1825 409.99 Z" fill="#000000" fill-rule="evenodd" fill-opacity="1" /><path clip-path="url(#clip360)" d="M1844.48 382.247 L1844.48 393.289 L1857.64 393.289 L1857.64 398.254 L1844.48 398.254 L1844.48 419.365 Q1844.48 424.122 1845.76 425.476 Q1847.08 426.83 1851.08 426.83 L1857.64 426.83 L1857.64 432.178 L1851.08 432.178 Q1843.68 432.178 1840.87 429.435 Q1838.06 426.657 1838.06 419.365 L1838.06 398.254 L1833.37 398.254 L1833.37 393.289 L1838.06 393.289 L1838.06 382.247 L1844.48 382.247 Z" fill="#000000" fill-rule="evenodd" fill-opacity="1" /><path clip-path="url(#clip360)" d="M1866.04 393.289 L1872.43 393.289 L1872.43 432.178 L1866.04 432.178 L1866.04 393.289 M1866.04 378.15 L1872.43 378.15 L1872.43 386.24 L1866.04 386.24 L1866.04 378.15 Z" fill="#000000" fill-rule="evenodd" fill-opacity="1" /><path clip-path="url(#clip360)" d="M1900.87 397.768 Q1895.73 397.768 1892.74 401.796 Q1889.76 405.789 1889.76 412.768 Q1889.76 419.747 1892.71 423.775 Q1895.69 427.768 1900.87 427.768 Q1905.97 427.768 1908.96 423.74 Q1911.94 419.712 1911.94 412.768 Q1911.94 405.858 1908.96 401.83 Q1905.97 397.768 1900.87 397.768 M1900.87 392.351 Q1909.2 392.351 1913.96 397.768 Q1918.71 403.185 1918.71 412.768 Q1918.71 422.316 1913.96 427.768 Q1909.2 433.184 1900.87 433.184 Q1892.5 433.184 1887.74 427.768 Q1883.02 422.316 1883.02 412.768 Q1883.02 403.185 1887.74 397.768 Q1892.5 392.351 1900.87 392.351 Z" fill="#000000" fill-rule="evenodd" fill-opacity="1" /><path clip-path="url(#clip360)" d="M1961.63 408.705 L1961.63 432.178 L1955.24 432.178 L1955.24 408.914 Q1955.24 403.393 1953.09 400.65 Q1950.94 397.907 1946.63 397.907 Q1941.46 397.907 1938.47 401.205 Q1935.49 404.504 1935.49 410.199 L1935.49 432.178 L1929.06 432.178 L1929.06 393.289 L1935.49 393.289 L1935.49 399.331 Q1937.78 395.824 1940.87 394.087 Q1943.99 392.351 1948.05 392.351 Q1954.76 392.351 1958.19 396.518 Q1961.63 400.65 1961.63 408.705 Z" fill="#000000" fill-rule="evenodd" fill-opacity="1" /><path clip-path="url(#clip360)" d="M1992.05 412.629 Q1984.3 412.629 1981.32 414.4 Q1978.33 416.171 1978.33 420.442 Q1978.33 423.844 1980.55 425.858 Q1982.81 427.837 1986.67 427.837 Q1991.98 427.837 1995.17 424.087 Q1998.4 420.303 1998.4 414.053 L1998.4 412.629 L1992.05 412.629 M2004.79 409.99 L2004.79 432.178 L1998.4 432.178 L1998.4 426.275 Q1996.21 429.816 1992.95 431.518 Q1989.69 433.184 1984.96 433.184 Q1978.99 433.184 1975.45 429.851 Q1971.94 426.483 1971.94 420.858 Q1971.94 414.296 1976.32 410.962 Q1980.73 407.629 1989.44 407.629 L1998.4 407.629 L1998.4 407.004 Q1998.4 402.594 1995.48 400.199 Q1992.6 397.768 1987.36 397.768 Q1984.03 397.768 1980.87 398.567 Q1977.71 399.365 1974.79 400.962 L1974.79 395.06 Q1978.3 393.706 1981.6 393.046 Q1984.89 392.351 1988.02 392.351 Q1996.46 392.351 2000.62 396.726 Q2004.79 401.101 2004.79 409.99 Z" fill="#000000" fill-rule="evenodd" fill-opacity="1" /><path clip-path="url(#clip360)" d="M2017.95 378.15 L2024.34 378.15 L2024.34 432.178 L2017.95 432.178 L2017.95 378.15 Z" fill="#000000" fill-rule="evenodd" fill-opacity="1" /><path clip-path="url(#clip360)" d="M2080 378.15 L2080 383.463 L2073.89 383.463 Q2070.45 383.463 2069.1 384.851 Q2067.78 386.24 2067.78 389.851 L2067.78 393.289 L2078.3 393.289 L2078.3 398.254 L2067.78 398.254 L2067.78 432.178 L2061.35 432.178 L2061.35 398.254 L2055.24 398.254 L2055.24 393.289 L2061.35 393.289 L2061.35 390.581 Q2061.35 384.088 2064.37 381.136 Q2067.39 378.15 2073.96 378.15 L2080 378.15 Z" fill="#000000" fill-rule="evenodd" fill-opacity="1" /><path clip-path="url(#clip360)" d="M2085.35 393.289 L2091.73 393.289 L2091.73 432.178 L2085.35 432.178 L2085.35 393.289 M2085.35 378.15 L2091.73 378.15 L2091.73 386.24 L2085.35 386.24 L2085.35 378.15 Z" fill="#000000" fill-rule="evenodd" fill-opacity="1" /><path clip-path="url(#clip360)" d="M2111.42 382.247 L2111.42 393.289 L2124.58 393.289 L2124.58 398.254 L2111.42 398.254 L2111.42 419.365 Q2111.42 424.122 2112.71 425.476 Q2114.03 426.83 2118.02 426.83 L2124.58 426.83 L2124.58 432.178 L2118.02 432.178 Q2110.62 432.178 2107.81 429.435 Q2105 426.657 2105 419.365 L2105 398.254 L2100.31 398.254 L2100.31 393.289 L2105 393.289 L2105 382.247 L2111.42 382.247 Z" fill="#000000" fill-rule="evenodd" fill-opacity="1" /></svg>
