<?xml version="1.0" encoding="utf-8"?>
<svg xmlns="http://www.w3.org/2000/svg" xmlns:xlink="http://www.w3.org/1999/xlink" width="600" height="400" viewBox="0 0 2400 1600">
<defs>
  <clipPath id="clip600">
    <rect x="0" y="0" width="2400" height="1600"/>
  </clipPath>
</defs>
<path clip-path="url(#clip600)" d="
M0 1600 L2400 1600 L2400 0 L0 0  Z
  " fill="#ffffff" fill-rule="evenodd" fill-opacity="1"/>
<defs>
  <clipPath id="clip601">
    <rect x="480" y="0" width="1681" height="1600"/>
  </clipPath>
</defs>
<path clip-path="url(#clip600)" d="
M246.598 1486.45 L2352.76 1486.45 L2352.76 47.2441 L246.598 47.2441  Z
  " fill="#ffffff" fill-rule="evenodd" fill-opacity="1"/>
<defs>
  <clipPath id="clip602">
    <rect x="246" y="47" width="2107" height="1440"/>
  </clipPath>
</defs>
<polyline clip-path="url(#clip602)" style="stroke:#000000; stroke-linecap:butt; stroke-linejoin:round; stroke-width:2; stroke-opacity:0.1; fill:none" points="
  306.206,1486.45 306.206,47.2441 
  "/>
<polyline clip-path="url(#clip602)" style="stroke:#000000; stroke-linecap:butt; stroke-linejoin:round; stroke-width:2; stroke-opacity:0.1; fill:none" points="
  802.941,1486.45 802.941,47.2441 
  "/>
<polyline clip-path="url(#clip602)" style="stroke:#000000; stroke-linecap:butt; stroke-linejoin:round; stroke-width:2; stroke-opacity:0.1; fill:none" points="
  1299.68,1486.45 1299.68,47.2441 
  "/>
<polyline clip-path="url(#clip602)" style="stroke:#000000; stroke-linecap:butt; stroke-linejoin:round; stroke-width:2; stroke-opacity:0.1; fill:none" points="
  1796.41,1486.45 1796.41,47.2441 
  "/>
<polyline clip-path="url(#clip602)" style="stroke:#000000; stroke-linecap:butt; stroke-linejoin:round; stroke-width:2; stroke-opacity:0.1; fill:none" points="
  2293.15,1486.45 2293.15,47.2441 
  "/>
<polyline clip-path="url(#clip600)" style="stroke:#000000; stroke-linecap:butt; stroke-linejoin:round; stroke-width:4; stroke-opacity:1; fill:none" points="
  246.598,1486.45 2352.76,1486.45 
  "/>
<polyline clip-path="url(#clip600)" style="stroke:#000000; stroke-linecap:butt; stroke-linejoin:round; stroke-width:4; stroke-opacity:1; fill:none" points="
  306.206,1486.45 306.206,1467.55 
  "/>
<polyline clip-path="url(#clip600)" style="stroke:#000000; stroke-linecap:butt; stroke-linejoin:round; stroke-width:4; stroke-opacity:1; fill:none" points="
  802.941,1486.45 802.941,1467.55 
  "/>
<polyline clip-path="url(#clip600)" style="stroke:#000000; stroke-linecap:butt; stroke-linejoin:round; stroke-width:4; stroke-opacity:1; fill:none" points="
  1299.68,1486.45 1299.68,1467.55 
  "/>
<polyline clip-path="url(#clip600)" style="stroke:#000000; stroke-linecap:butt; stroke-linejoin:round; stroke-width:4; stroke-opacity:1; fill:none" points="
  1796.41,1486.45 1796.41,1467.55 
  "/>
<polyline clip-path="url(#clip600)" style="stroke:#000000; stroke-linecap:butt; stroke-linejoin:round; stroke-width:4; stroke-opacity:1; fill:none" points="
  2293.15,1486.45 2293.15,1467.55 
  "/>
<path clip-path="url(#clip600)" d="M252.734 1532.02 L282.41 1532.02 L282.41 1535.95 L252.734 1535.95 L252.734 1532.02 Z" fill="#000000" fill-rule="evenodd" fill-opacity="1" /><path clip-path="url(#clip600)" d="M293.313 1544.91 L300.951 1544.91 L300.951 1518.55 L292.641 1520.21 L292.641 1515.95 L300.905 1514.29 L305.581 1514.29 L305.581 1544.91 L313.22 1544.91 L313.22 1548.85 L293.313 1548.85 L293.313 1544.91 Z" fill="#000000" fill-rule="evenodd" fill-opacity="1" /><path clip-path="url(#clip600)" d="M322.664 1542.97 L327.548 1542.97 L327.548 1548.85 L322.664 1548.85 L322.664 1542.97 Z" fill="#000000" fill-rule="evenodd" fill-opacity="1" /><path clip-path="url(#clip600)" d="M347.734 1517.37 Q344.122 1517.37 342.294 1520.93 Q340.488 1524.47 340.488 1531.6 Q340.488 1538.71 342.294 1542.27 Q344.122 1545.82 347.734 1545.82 Q351.368 1545.82 353.173 1542.27 Q355.002 1538.71 355.002 1531.6 Q355.002 1524.47 353.173 1520.93 Q351.368 1517.37 347.734 1517.37 M347.734 1513.66 Q353.544 1513.66 356.599 1518.27 Q359.678 1522.85 359.678 1531.6 Q359.678 1540.33 356.599 1544.94 Q353.544 1549.52 347.734 1549.52 Q341.923 1549.52 338.845 1544.94 Q335.789 1540.33 335.789 1531.6 Q335.789 1522.85 338.845 1518.27 Q341.923 1513.66 347.734 1513.66 Z" fill="#000000" fill-rule="evenodd" fill-opacity="1" /><path clip-path="url(#clip600)" d="M749.967 1532.02 L779.643 1532.02 L779.643 1535.95 L749.967 1535.95 L749.967 1532.02 Z" fill="#000000" fill-rule="evenodd" fill-opacity="1" /><path clip-path="url(#clip600)" d="M799.735 1517.37 Q796.124 1517.37 794.296 1520.93 Q792.49 1524.47 792.49 1531.6 Q792.49 1538.71 794.296 1542.27 Q796.124 1545.82 799.735 1545.82 Q803.37 1545.82 805.175 1542.27 Q807.004 1538.71 807.004 1531.6 Q807.004 1524.47 805.175 1520.93 Q803.37 1517.37 799.735 1517.37 M799.735 1513.66 Q805.546 1513.66 808.601 1518.27 Q811.68 1522.85 811.68 1531.6 Q811.68 1540.33 808.601 1544.94 Q805.546 1549.52 799.735 1549.52 Q793.925 1549.52 790.847 1544.94 Q787.791 1540.33 787.791 1531.6 Q787.791 1522.85 790.847 1518.27 Q793.925 1513.66 799.735 1513.66 Z" fill="#000000" fill-rule="evenodd" fill-opacity="1" /><path clip-path="url(#clip600)" d="M819.897 1542.97 L824.782 1542.97 L824.782 1548.85 L819.897 1548.85 L819.897 1542.97 Z" fill="#000000" fill-rule="evenodd" fill-opacity="1" /><path clip-path="url(#clip600)" d="M835.013 1514.29 L853.369 1514.29 L853.369 1518.22 L839.295 1518.22 L839.295 1526.7 Q840.314 1526.35 841.332 1526.19 Q842.351 1526 843.369 1526 Q849.156 1526 852.536 1529.17 Q855.916 1532.34 855.916 1537.76 Q855.916 1543.34 852.443 1546.44 Q848.971 1549.52 842.652 1549.52 Q840.476 1549.52 838.207 1549.15 Q835.962 1548.78 833.555 1548.04 L833.555 1543.34 Q835.638 1544.47 837.86 1545.03 Q840.082 1545.58 842.559 1545.58 Q846.564 1545.58 848.902 1543.48 Q851.24 1541.37 851.24 1537.76 Q851.24 1534.15 848.902 1532.04 Q846.564 1529.94 842.559 1529.94 Q840.684 1529.94 838.809 1530.35 Q836.957 1530.77 835.013 1531.65 L835.013 1514.29 Z" fill="#000000" fill-rule="evenodd" fill-opacity="1" /><path clip-path="url(#clip600)" d="M1277.06 1517.37 Q1273.45 1517.37 1271.62 1520.93 Q1269.82 1524.47 1269.82 1531.6 Q1269.82 1538.71 1271.62 1542.27 Q1273.45 1545.82 1277.06 1545.82 Q1280.7 1545.82 1282.5 1542.27 Q1284.33 1538.71 1284.33 1531.6 Q1284.33 1524.47 1282.5 1520.93 Q1280.7 1517.37 1277.06 1517.37 M1277.06 1513.66 Q1282.87 1513.66 1285.93 1518.27 Q1289.01 1522.85 1289.01 1531.6 Q1289.01 1540.33 1285.93 1544.94 Q1282.87 1549.52 1277.06 1549.52 Q1271.25 1549.52 1268.17 1544.94 Q1265.12 1540.33 1265.12 1531.6 Q1265.12 1522.85 1268.17 1518.27 Q1271.25 1513.66 1277.06 1513.66 Z" fill="#000000" fill-rule="evenodd" fill-opacity="1" /><path clip-path="url(#clip600)" d="M1297.22 1542.97 L1302.11 1542.97 L1302.11 1548.85 L1297.22 1548.85 L1297.22 1542.97 Z" fill="#000000" fill-rule="evenodd" fill-opacity="1" /><path clip-path="url(#clip600)" d="M1322.29 1517.37 Q1318.68 1517.37 1316.85 1520.93 Q1315.05 1524.47 1315.05 1531.6 Q1315.05 1538.71 1316.85 1542.27 Q1318.68 1545.82 1322.29 1545.82 Q1325.93 1545.82 1327.73 1542.27 Q1329.56 1538.71 1329.56 1531.6 Q1329.56 1524.47 1327.73 1520.93 Q1325.93 1517.37 1322.29 1517.37 M1322.29 1513.66 Q1328.1 1513.66 1331.16 1518.27 Q1334.24 1522.85 1334.24 1531.6 Q1334.24 1540.33 1331.16 1544.94 Q1328.1 1549.52 1322.29 1549.52 Q1316.48 1549.52 1313.4 1544.94 Q1310.35 1540.33 1310.35 1531.6 Q1310.35 1522.85 1313.4 1518.27 Q1316.48 1513.66 1322.29 1513.66 Z" fill="#000000" fill-rule="evenodd" fill-opacity="1" /><path clip-path="url(#clip600)" d="M1774.29 1517.37 Q1770.68 1517.37 1768.85 1520.93 Q1767.05 1524.47 1767.05 1531.6 Q1767.05 1538.71 1768.85 1542.27 Q1770.68 1545.82 1774.29 1545.82 Q1777.93 1545.82 1779.73 1542.27 Q1781.56 1538.71 1781.56 1531.6 Q1781.56 1524.47 1779.73 1520.93 Q1777.93 1517.37 1774.29 1517.37 M1774.29 1513.66 Q1780.1 1513.66 1783.16 1518.27 Q1786.24 1522.85 1786.24 1531.6 Q1786.24 1540.33 1783.16 1544.94 Q1780.1 1549.52 1774.29 1549.52 Q1768.48 1549.52 1765.41 1544.94 Q1762.35 1540.33 1762.35 1531.6 Q1762.35 1522.85 1765.41 1518.27 Q1768.48 1513.66 1774.29 1513.66 Z" fill="#000000" fill-rule="evenodd" fill-opacity="1" /><path clip-path="url(#clip600)" d="M1794.46 1542.97 L1799.34 1542.97 L1799.34 1548.85 L1794.46 1548.85 L1794.46 1542.97 Z" fill="#000000" fill-rule="evenodd" fill-opacity="1" /><path clip-path="url(#clip600)" d="M1809.57 1514.29 L1827.93 1514.29 L1827.93 1518.22 L1813.85 1518.22 L1813.85 1526.7 Q1814.87 1526.35 1815.89 1526.19 Q1816.91 1526 1817.93 1526 Q1823.72 1526 1827.09 1529.17 Q1830.47 1532.34 1830.47 1537.76 Q1830.47 1543.34 1827 1546.44 Q1823.53 1549.52 1817.21 1549.52 Q1815.03 1549.52 1812.77 1549.15 Q1810.52 1548.78 1808.11 1548.04 L1808.11 1543.34 Q1810.2 1544.47 1812.42 1545.03 Q1814.64 1545.58 1817.12 1545.58 Q1821.12 1545.58 1823.46 1543.48 Q1825.8 1541.37 1825.8 1537.76 Q1825.8 1534.15 1823.46 1532.04 Q1821.12 1529.94 1817.12 1529.94 Q1815.24 1529.94 1813.37 1530.35 Q1811.52 1530.77 1809.57 1531.65 L1809.57 1514.29 Z" fill="#000000" fill-rule="evenodd" fill-opacity="1" /><path clip-path="url(#clip600)" d="M2260.3 1544.91 L2267.94 1544.91 L2267.94 1518.55 L2259.63 1520.21 L2259.63 1515.95 L2267.89 1514.29 L2272.57 1514.29 L2272.57 1544.91 L2280.21 1544.91 L2280.21 1548.85 L2260.3 1548.85 L2260.3 1544.91 Z" fill="#000000" fill-rule="evenodd" fill-opacity="1" /><path clip-path="url(#clip600)" d="M2289.65 1542.97 L2294.54 1542.97 L2294.54 1548.85 L2289.65 1548.85 L2289.65 1542.97 Z" fill="#000000" fill-rule="evenodd" fill-opacity="1" /><path clip-path="url(#clip600)" d="M2314.72 1517.37 Q2311.11 1517.37 2309.28 1520.93 Q2307.48 1524.47 2307.48 1531.6 Q2307.48 1538.71 2309.28 1542.27 Q2311.11 1545.82 2314.72 1545.82 Q2318.36 1545.82 2320.16 1542.27 Q2321.99 1538.71 2321.99 1531.6 Q2321.99 1524.47 2320.16 1520.93 Q2318.36 1517.37 2314.72 1517.37 M2314.72 1513.66 Q2320.53 1513.66 2323.59 1518.27 Q2326.67 1522.85 2326.67 1531.6 Q2326.67 1540.33 2323.59 1544.94 Q2320.53 1549.52 2314.72 1549.52 Q2308.91 1549.52 2305.83 1544.94 Q2302.78 1540.33 2302.78 1531.6 Q2302.78 1522.85 2305.83 1518.27 Q2308.91 1513.66 2314.72 1513.66 Z" fill="#000000" fill-rule="evenodd" fill-opacity="1" /><polyline clip-path="url(#clip602)" style="stroke:#000000; stroke-linecap:butt; stroke-linejoin:round; stroke-width:2; stroke-opacity:0.1; fill:none" points="
  246.598,1366.3 2352.76,1366.3 
  "/>
<polyline clip-path="url(#clip602)" style="stroke:#000000; stroke-linecap:butt; stroke-linejoin:round; stroke-width:2; stroke-opacity:0.1; fill:none" points="
  246.598,1107.44 2352.76,1107.44 
  "/>
<polyline clip-path="url(#clip602)" style="stroke:#000000; stroke-linecap:butt; stroke-linejoin:round; stroke-width:2; stroke-opacity:0.1; fill:none" points="
  246.598,848.573 2352.76,848.573 
  "/>
<polyline clip-path="url(#clip602)" style="stroke:#000000; stroke-linecap:butt; stroke-linejoin:round; stroke-width:2; stroke-opacity:0.1; fill:none" points="
  246.598,589.71 2352.76,589.71 
  "/>
<polyline clip-path="url(#clip602)" style="stroke:#000000; stroke-linecap:butt; stroke-linejoin:round; stroke-width:2; stroke-opacity:0.1; fill:none" points="
  246.598,330.847 2352.76,330.847 
  "/>
<polyline clip-path="url(#clip602)" style="stroke:#000000; stroke-linecap:butt; stroke-linejoin:round; stroke-width:2; stroke-opacity:0.1; fill:none" points="
  246.598,71.9833 2352.76,71.9833 
  "/>
<polyline clip-path="url(#clip600)" style="stroke:#000000; stroke-linecap:butt; stroke-linejoin:round; stroke-width:4; stroke-opacity:1; fill:none" points="
  246.598,1486.45 246.598,47.2441 
  "/>
<polyline clip-path="url(#clip600)" style="stroke:#000000; stroke-linecap:butt; stroke-linejoin:round; stroke-width:4; stroke-opacity:1; fill:none" points="
  246.598,1366.3 265.495,1366.3 
  "/>
<polyline clip-path="url(#clip600)" style="stroke:#000000; stroke-linecap:butt; stroke-linejoin:round; stroke-width:4; stroke-opacity:1; fill:none" points="
  246.598,1107.44 265.495,1107.44 
  "/>
<polyline clip-path="url(#clip600)" style="stroke:#000000; stroke-linecap:butt; stroke-linejoin:round; stroke-width:4; stroke-opacity:1; fill:none" points="
  246.598,848.573 265.495,848.573 
  "/>
<polyline clip-path="url(#clip600)" style="stroke:#000000; stroke-linecap:butt; stroke-linejoin:round; stroke-width:4; stroke-opacity:1; fill:none" points="
  246.598,589.71 265.495,589.71 
  "/>
<polyline clip-path="url(#clip600)" style="stroke:#000000; stroke-linecap:butt; stroke-linejoin:round; stroke-width:4; stroke-opacity:1; fill:none" points="
  246.598,330.847 265.495,330.847 
  "/>
<polyline clip-path="url(#clip600)" style="stroke:#000000; stroke-linecap:butt; stroke-linejoin:round; stroke-width:4; stroke-opacity:1; fill:none" points="
  246.598,71.9833 265.495,71.9833 
  "/>
<path clip-path="url(#clip600)" d="M63.9319 1352.1 Q60.3208 1352.1 58.4921 1355.66 Q56.6865 1359.21 56.6865 1366.33 Q56.6865 1373.44 58.4921 1377.01 Q60.3208 1380.55 63.9319 1380.55 Q67.5661 1380.55 69.3717 1377.01 Q71.2004 1373.44 71.2004 1366.33 Q71.2004 1359.21 69.3717 1355.66 Q67.5661 1352.1 63.9319 1352.1 M63.9319 1348.4 Q69.742 1348.4 72.7976 1353 Q75.8763 1357.58 75.8763 1366.33 Q75.8763 1375.06 72.7976 1379.67 Q69.742 1384.25 63.9319 1384.25 Q58.1217 1384.25 55.043 1379.67 Q51.9875 1375.06 51.9875 1366.33 Q51.9875 1357.58 55.043 1353 Q58.1217 1348.4 63.9319 1348.4 Z" fill="#000000" fill-rule="evenodd" fill-opacity="1" /><path clip-path="url(#clip600)" d="M84.0938 1377.7 L88.978 1377.7 L88.978 1383.58 L84.0938 1383.58 L84.0938 1377.7 Z" fill="#000000" fill-rule="evenodd" fill-opacity="1" /><path clip-path="url(#clip600)" d="M109.163 1352.1 Q105.552 1352.1 103.723 1355.66 Q101.918 1359.21 101.918 1366.33 Q101.918 1373.44 103.723 1377.01 Q105.552 1380.55 109.163 1380.55 Q112.797 1380.55 114.603 1377.01 Q116.432 1373.44 116.432 1366.33 Q116.432 1359.21 114.603 1355.66 Q112.797 1352.1 109.163 1352.1 M109.163 1348.4 Q114.973 1348.4 118.029 1353 Q121.107 1357.58 121.107 1366.33 Q121.107 1375.06 118.029 1379.67 Q114.973 1384.25 109.163 1384.25 Q103.353 1384.25 100.274 1379.67 Q97.2187 1375.06 97.2187 1366.33 Q97.2187 1357.58 100.274 1353 Q103.353 1348.4 109.163 1348.4 Z" fill="#000000" fill-rule="evenodd" fill-opacity="1" /><path clip-path="url(#clip600)" d="M139.325 1352.1 Q135.714 1352.1 133.885 1355.66 Q132.08 1359.21 132.08 1366.33 Q132.08 1373.44 133.885 1377.01 Q135.714 1380.55 139.325 1380.55 Q142.959 1380.55 144.765 1377.01 Q146.593 1373.44 146.593 1366.33 Q146.593 1359.21 144.765 1355.66 Q142.959 1352.1 139.325 1352.1 M139.325 1348.4 Q145.135 1348.4 148.191 1353 Q151.269 1357.58 151.269 1366.33 Q151.269 1375.06 148.191 1379.67 Q145.135 1384.25 139.325 1384.25 Q133.515 1384.25 130.436 1379.67 Q127.381 1375.06 127.381 1366.33 Q127.381 1357.58 130.436 1353 Q133.515 1348.4 139.325 1348.4 Z" fill="#000000" fill-rule="evenodd" fill-opacity="1" /><path clip-path="url(#clip600)" d="M169.487 1352.1 Q165.876 1352.1 164.047 1355.66 Q162.242 1359.21 162.242 1366.33 Q162.242 1373.44 164.047 1377.01 Q165.876 1380.55 169.487 1380.55 Q173.121 1380.55 174.927 1377.01 Q176.755 1373.44 176.755 1366.33 Q176.755 1359.21 174.927 1355.66 Q173.121 1352.1 169.487 1352.1 M169.487 1348.4 Q175.297 1348.4 178.353 1353 Q181.431 1357.58 181.431 1366.33 Q181.431 1375.06 178.353 1379.67 Q175.297 1384.25 169.487 1384.25 Q163.677 1384.25 160.598 1379.67 Q157.542 1375.06 157.542 1366.33 Q157.542 1357.58 160.598 1353 Q163.677 1348.4 169.487 1348.4 Z" fill="#000000" fill-rule="evenodd" fill-opacity="1" /><path clip-path="url(#clip600)" d="M189.695 1349.02 L208.051 1349.02 L208.051 1352.96 L193.977 1352.96 L193.977 1361.43 Q194.996 1361.08 196.014 1360.92 Q197.033 1360.73 198.052 1360.73 Q203.839 1360.73 207.218 1363.9 Q210.598 1367.08 210.598 1372.49 Q210.598 1378.07 207.126 1381.17 Q203.653 1384.25 197.334 1384.25 Q195.158 1384.25 192.89 1383.88 Q190.644 1383.51 188.237 1382.77 L188.237 1378.07 Q190.32 1379.21 192.542 1379.76 Q194.765 1380.32 197.241 1380.32 Q201.246 1380.32 203.584 1378.21 Q205.922 1376.1 205.922 1372.49 Q205.922 1368.88 203.584 1366.77 Q201.246 1364.67 197.241 1364.67 Q195.366 1364.67 193.491 1365.08 Q191.64 1365.5 189.695 1366.38 L189.695 1349.02 Z" fill="#000000" fill-rule="evenodd" fill-opacity="1" /><path clip-path="url(#clip600)" d="M62.9365 1093.24 Q59.3254 1093.24 57.4967 1096.8 Q55.6912 1100.34 55.6912 1107.47 Q55.6912 1114.58 57.4967 1118.14 Q59.3254 1121.68 62.9365 1121.68 Q66.5707 1121.68 68.3763 1118.14 Q70.205 1114.58 70.205 1107.47 Q70.205 1100.34 68.3763 1096.8 Q66.5707 1093.24 62.9365 1093.24 M62.9365 1089.53 Q68.7467 1089.53 71.8022 1094.14 Q74.8809 1098.72 74.8809 1107.47 Q74.8809 1116.2 71.8022 1120.8 Q68.7467 1125.39 62.9365 1125.39 Q57.1264 1125.39 54.0477 1120.8 Q50.9921 1116.2 50.9921 1107.47 Q50.9921 1098.72 54.0477 1094.14 Q57.1264 1089.53 62.9365 1089.53 Z" fill="#000000" fill-rule="evenodd" fill-opacity="1" /><path clip-path="url(#clip600)" d="M83.0984 1118.84 L87.9827 1118.84 L87.9827 1124.72 L83.0984 1124.72 L83.0984 1118.84 Z" fill="#000000" fill-rule="evenodd" fill-opacity="1" /><path clip-path="url(#clip600)" d="M108.168 1093.24 Q104.557 1093.24 102.728 1096.8 Q100.922 1100.34 100.922 1107.47 Q100.922 1114.58 102.728 1118.14 Q104.557 1121.68 108.168 1121.68 Q111.802 1121.68 113.608 1118.14 Q115.436 1114.58 115.436 1107.47 Q115.436 1100.34 113.608 1096.8 Q111.802 1093.24 108.168 1093.24 M108.168 1089.53 Q113.978 1089.53 117.033 1094.14 Q120.112 1098.72 120.112 1107.47 Q120.112 1116.2 117.033 1120.8 Q113.978 1125.39 108.168 1125.39 Q102.358 1125.39 99.2789 1120.8 Q96.2234 1116.2 96.2234 1107.47 Q96.2234 1098.72 99.2789 1094.14 Q102.358 1089.53 108.168 1089.53 Z" fill="#000000" fill-rule="evenodd" fill-opacity="1" /><path clip-path="url(#clip600)" d="M138.33 1093.24 Q134.719 1093.24 132.89 1096.8 Q131.084 1100.34 131.084 1107.47 Q131.084 1114.58 132.89 1118.14 Q134.719 1121.68 138.33 1121.68 Q141.964 1121.68 143.769 1118.14 Q145.598 1114.58 145.598 1107.47 Q145.598 1100.34 143.769 1096.8 Q141.964 1093.24 138.33 1093.24 M138.33 1089.53 Q144.14 1089.53 147.195 1094.14 Q150.274 1098.72 150.274 1107.47 Q150.274 1116.2 147.195 1120.8 Q144.14 1125.39 138.33 1125.39 Q132.519 1125.39 129.441 1120.8 Q126.385 1116.2 126.385 1107.47 Q126.385 1098.72 129.441 1094.14 Q132.519 1089.53 138.33 1089.53 Z" fill="#000000" fill-rule="evenodd" fill-opacity="1" /><path clip-path="url(#clip600)" d="M159.302 1120.78 L166.941 1120.78 L166.941 1094.42 L158.63 1096.08 L158.63 1091.82 L166.894 1090.16 L171.57 1090.16 L171.57 1120.78 L179.209 1120.78 L179.209 1124.72 L159.302 1124.72 L159.302 1120.78 Z" fill="#000000" fill-rule="evenodd" fill-opacity="1" /><path clip-path="url(#clip600)" d="M198.653 1093.24 Q195.042 1093.24 193.214 1096.8 Q191.408 1100.34 191.408 1107.47 Q191.408 1114.58 193.214 1118.14 Q195.042 1121.68 198.653 1121.68 Q202.288 1121.68 204.093 1118.14 Q205.922 1114.58 205.922 1107.47 Q205.922 1100.34 204.093 1096.8 Q202.288 1093.24 198.653 1093.24 M198.653 1089.53 Q204.464 1089.53 207.519 1094.14 Q210.598 1098.72 210.598 1107.47 Q210.598 1116.2 207.519 1120.8 Q204.464 1125.39 198.653 1125.39 Q192.843 1125.39 189.765 1120.8 Q186.709 1116.2 186.709 1107.47 Q186.709 1098.72 189.765 1094.14 Q192.843 1089.53 198.653 1089.53 Z" fill="#000000" fill-rule="evenodd" fill-opacity="1" /><path clip-path="url(#clip600)" d="M63.9319 834.372 Q60.3208 834.372 58.4921 837.937 Q56.6865 841.478 56.6865 848.608 Q56.6865 855.715 58.4921 859.279 Q60.3208 862.821 63.9319 862.821 Q67.5661 862.821 69.3717 859.279 Q71.2004 855.715 71.2004 848.608 Q71.2004 841.478 69.3717 837.937 Q67.5661 834.372 63.9319 834.372 M63.9319 830.668 Q69.742 830.668 72.7976 835.275 Q75.8763 839.858 75.8763 848.608 Q75.8763 857.335 72.7976 861.941 Q69.742 866.525 63.9319 866.525 Q58.1217 866.525 55.043 861.941 Q51.9875 857.335 51.9875 848.608 Q51.9875 839.858 55.043 835.275 Q58.1217 830.668 63.9319 830.668 Z" fill="#000000" fill-rule="evenodd" fill-opacity="1" /><path clip-path="url(#clip600)" d="M84.0938 859.974 L88.978 859.974 L88.978 865.853 L84.0938 865.853 L84.0938 859.974 Z" fill="#000000" fill-rule="evenodd" fill-opacity="1" /><path clip-path="url(#clip600)" d="M109.163 834.372 Q105.552 834.372 103.723 837.937 Q101.918 841.478 101.918 848.608 Q101.918 855.715 103.723 859.279 Q105.552 862.821 109.163 862.821 Q112.797 862.821 114.603 859.279 Q116.432 855.715 116.432 848.608 Q116.432 841.478 114.603 837.937 Q112.797 834.372 109.163 834.372 M109.163 830.668 Q114.973 830.668 118.029 835.275 Q121.107 839.858 121.107 848.608 Q121.107 857.335 118.029 861.941 Q114.973 866.525 109.163 866.525 Q103.353 866.525 100.274 861.941 Q97.2187 857.335 97.2187 848.608 Q97.2187 839.858 100.274 835.275 Q103.353 830.668 109.163 830.668 Z" fill="#000000" fill-rule="evenodd" fill-opacity="1" /><path clip-path="url(#clip600)" d="M139.325 834.372 Q135.714 834.372 133.885 837.937 Q132.08 841.478 132.08 848.608 Q132.08 855.715 133.885 859.279 Q135.714 862.821 139.325 862.821 Q142.959 862.821 144.765 859.279 Q146.593 855.715 146.593 848.608 Q146.593 841.478 144.765 837.937 Q142.959 834.372 139.325 834.372 M139.325 830.668 Q145.135 830.668 148.191 835.275 Q151.269 839.858 151.269 848.608 Q151.269 857.335 148.191 861.941 Q145.135 866.525 139.325 866.525 Q133.515 866.525 130.436 861.941 Q127.381 857.335 127.381 848.608 Q127.381 839.858 130.436 835.275 Q133.515 830.668 139.325 830.668 Z" fill="#000000" fill-rule="evenodd" fill-opacity="1" /><path clip-path="url(#clip600)" d="M160.297 861.918 L167.936 861.918 L167.936 835.553 L159.626 837.219 L159.626 832.96 L167.89 831.293 L172.566 831.293 L172.566 861.918 L180.204 861.918 L180.204 865.853 L160.297 865.853 L160.297 861.918 Z" fill="#000000" fill-rule="evenodd" fill-opacity="1" /><path clip-path="url(#clip600)" d="M189.695 831.293 L208.051 831.293 L208.051 835.229 L193.977 835.229 L193.977 843.701 Q194.996 843.353 196.014 843.191 Q197.033 843.006 198.052 843.006 Q203.839 843.006 207.218 846.178 Q210.598 849.349 210.598 854.765 Q210.598 860.344 207.126 863.446 Q203.653 866.525 197.334 866.525 Q195.158 866.525 192.89 866.154 Q190.644 865.784 188.237 865.043 L188.237 860.344 Q190.32 861.478 192.542 862.034 Q194.765 862.589 197.241 862.589 Q201.246 862.589 203.584 860.483 Q205.922 858.377 205.922 854.765 Q205.922 851.154 203.584 849.048 Q201.246 846.941 197.241 846.941 Q195.366 846.941 193.491 847.358 Q191.64 847.775 189.695 848.654 L189.695 831.293 Z" fill="#000000" fill-rule="evenodd" fill-opacity="1" /><path clip-path="url(#clip600)" d="M62.9365 575.509 Q59.3254 575.509 57.4967 579.073 Q55.6912 582.615 55.6912 589.745 Q55.6912 596.851 57.4967 600.416 Q59.3254 603.958 62.9365 603.958 Q66.5707 603.958 68.3763 600.416 Q70.205 596.851 70.205 589.745 Q70.205 582.615 68.3763 579.073 Q66.5707 575.509 62.9365 575.509 M62.9365 571.805 Q68.7467 571.805 71.8022 576.411 Q74.8809 580.995 74.8809 589.745 Q74.8809 598.472 71.8022 603.078 Q68.7467 607.661 62.9365 607.661 Q57.1264 607.661 54.0477 603.078 Q50.9921 598.472 50.9921 589.745 Q50.9921 580.995 54.0477 576.411 Q57.1264 571.805 62.9365 571.805 Z" fill="#000000" fill-rule="evenodd" fill-opacity="1" /><path clip-path="url(#clip600)" d="M83.0984 601.11 L87.9827 601.11 L87.9827 606.99 L83.0984 606.99 L83.0984 601.11 Z" fill="#000000" fill-rule="evenodd" fill-opacity="1" /><path clip-path="url(#clip600)" d="M108.168 575.509 Q104.557 575.509 102.728 579.073 Q100.922 582.615 100.922 589.745 Q100.922 596.851 102.728 600.416 Q104.557 603.958 108.168 603.958 Q111.802 603.958 113.608 600.416 Q115.436 596.851 115.436 589.745 Q115.436 582.615 113.608 579.073 Q111.802 575.509 108.168 575.509 M108.168 571.805 Q113.978 571.805 117.033 576.411 Q120.112 580.995 120.112 589.745 Q120.112 598.472 117.033 603.078 Q113.978 607.661 108.168 607.661 Q102.358 607.661 99.2789 603.078 Q96.2234 598.472 96.2234 589.745 Q96.2234 580.995 99.2789 576.411 Q102.358 571.805 108.168 571.805 Z" fill="#000000" fill-rule="evenodd" fill-opacity="1" /><path clip-path="url(#clip600)" d="M138.33 575.509 Q134.719 575.509 132.89 579.073 Q131.084 582.615 131.084 589.745 Q131.084 596.851 132.89 600.416 Q134.719 603.958 138.33 603.958 Q141.964 603.958 143.769 600.416 Q145.598 596.851 145.598 589.745 Q145.598 582.615 143.769 579.073 Q141.964 575.509 138.33 575.509 M138.33 571.805 Q144.14 571.805 147.195 576.411 Q150.274 580.995 150.274 589.745 Q150.274 598.472 147.195 603.078 Q144.14 607.661 138.33 607.661 Q132.519 607.661 129.441 603.078 Q126.385 598.472 126.385 589.745 Q126.385 580.995 129.441 576.411 Q132.519 571.805 138.33 571.805 Z" fill="#000000" fill-rule="evenodd" fill-opacity="1" /><path clip-path="url(#clip600)" d="M162.519 603.055 L178.839 603.055 L178.839 606.99 L156.894 606.99 L156.894 603.055 Q159.556 600.3 164.14 595.671 Q168.746 591.018 169.927 589.675 Q172.172 587.152 173.052 585.416 Q173.954 583.657 173.954 581.967 Q173.954 579.212 172.01 577.476 Q170.089 575.74 166.987 575.74 Q164.788 575.74 162.334 576.504 Q159.904 577.268 157.126 578.819 L157.126 574.097 Q159.95 572.962 162.404 572.384 Q164.857 571.805 166.894 571.805 Q172.265 571.805 175.459 574.49 Q178.653 577.175 178.653 581.666 Q178.653 583.796 177.843 585.717 Q177.056 587.615 174.95 590.208 Q174.371 590.879 171.269 594.097 Q168.167 597.291 162.519 603.055 Z" fill="#000000" fill-rule="evenodd" fill-opacity="1" /><path clip-path="url(#clip600)" d="M198.653 575.509 Q195.042 575.509 193.214 579.073 Q191.408 582.615 191.408 589.745 Q191.408 596.851 193.214 600.416 Q195.042 603.958 198.653 603.958 Q202.288 603.958 204.093 600.416 Q205.922 596.851 205.922 589.745 Q205.922 582.615 204.093 579.073 Q202.288 575.509 198.653 575.509 M198.653 571.805 Q204.464 571.805 207.519 576.411 Q210.598 580.995 210.598 589.745 Q210.598 598.472 207.519 603.078 Q204.464 607.661 198.653 607.661 Q192.843 607.661 189.765 603.078 Q186.709 598.472 186.709 589.745 Q186.709 580.995 189.765 576.411 Q192.843 571.805 198.653 571.805 Z" fill="#000000" fill-rule="evenodd" fill-opacity="1" /><path clip-path="url(#clip600)" d="M63.9319 316.645 Q60.3208 316.645 58.4921 320.21 Q56.6865 323.752 56.6865 330.881 Q56.6865 337.988 58.4921 341.553 Q60.3208 345.094 63.9319 345.094 Q67.5661 345.094 69.3717 341.553 Q71.2004 337.988 71.2004 330.881 Q71.2004 323.752 69.3717 320.21 Q67.5661 316.645 63.9319 316.645 M63.9319 312.942 Q69.742 312.942 72.7976 317.548 Q75.8763 322.131 75.8763 330.881 Q75.8763 339.608 72.7976 344.215 Q69.742 348.798 63.9319 348.798 Q58.1217 348.798 55.043 344.215 Q51.9875 339.608 51.9875 330.881 Q51.9875 322.131 55.043 317.548 Q58.1217 312.942 63.9319 312.942 Z" fill="#000000" fill-rule="evenodd" fill-opacity="1" /><path clip-path="url(#clip600)" d="M84.0938 342.247 L88.978 342.247 L88.978 348.127 L84.0938 348.127 L84.0938 342.247 Z" fill="#000000" fill-rule="evenodd" fill-opacity="1" /><path clip-path="url(#clip600)" d="M109.163 316.645 Q105.552 316.645 103.723 320.21 Q101.918 323.752 101.918 330.881 Q101.918 337.988 103.723 341.553 Q105.552 345.094 109.163 345.094 Q112.797 345.094 114.603 341.553 Q116.432 337.988 116.432 330.881 Q116.432 323.752 114.603 320.21 Q112.797 316.645 109.163 316.645 M109.163 312.942 Q114.973 312.942 118.029 317.548 Q121.107 322.131 121.107 330.881 Q121.107 339.608 118.029 344.215 Q114.973 348.798 109.163 348.798 Q103.353 348.798 100.274 344.215 Q97.2187 339.608 97.2187 330.881 Q97.2187 322.131 100.274 317.548 Q103.353 312.942 109.163 312.942 Z" fill="#000000" fill-rule="evenodd" fill-opacity="1" /><path clip-path="url(#clip600)" d="M139.325 316.645 Q135.714 316.645 133.885 320.21 Q132.08 323.752 132.08 330.881 Q132.08 337.988 133.885 341.553 Q135.714 345.094 139.325 345.094 Q142.959 345.094 144.765 341.553 Q146.593 337.988 146.593 330.881 Q146.593 323.752 144.765 320.21 Q142.959 316.645 139.325 316.645 M139.325 312.942 Q145.135 312.942 148.191 317.548 Q151.269 322.131 151.269 330.881 Q151.269 339.608 148.191 344.215 Q145.135 348.798 139.325 348.798 Q133.515 348.798 130.436 344.215 Q127.381 339.608 127.381 330.881 Q127.381 322.131 130.436 317.548 Q133.515 312.942 139.325 312.942 Z" fill="#000000" fill-rule="evenodd" fill-opacity="1" /><path clip-path="url(#clip600)" d="M163.515 344.191 L179.834 344.191 L179.834 348.127 L157.89 348.127 L157.89 344.191 Q160.552 341.437 165.135 336.807 Q169.741 332.155 170.922 330.812 Q173.167 328.289 174.047 326.553 Q174.95 324.793 174.95 323.104 Q174.95 320.349 173.005 318.613 Q171.084 316.877 167.982 316.877 Q165.783 316.877 163.329 317.641 Q160.899 318.405 158.121 319.955 L158.121 315.233 Q160.945 314.099 163.399 313.52 Q165.853 312.942 167.89 312.942 Q173.26 312.942 176.454 315.627 Q179.649 318.312 179.649 322.803 Q179.649 324.932 178.839 326.854 Q178.052 328.752 175.945 331.344 Q175.366 332.016 172.265 335.233 Q169.163 338.428 163.515 344.191 Z" fill="#000000" fill-rule="evenodd" fill-opacity="1" /><path clip-path="url(#clip600)" d="M189.695 313.567 L208.051 313.567 L208.051 317.502 L193.977 317.502 L193.977 325.974 Q194.996 325.627 196.014 325.465 Q197.033 325.28 198.052 325.28 Q203.839 325.28 207.218 328.451 Q210.598 331.622 210.598 337.039 Q210.598 342.617 207.126 345.719 Q203.653 348.798 197.334 348.798 Q195.158 348.798 192.89 348.428 Q190.644 348.057 188.237 347.316 L188.237 342.617 Q190.32 343.752 192.542 344.307 Q194.765 344.863 197.241 344.863 Q201.246 344.863 203.584 342.756 Q205.922 340.65 205.922 337.039 Q205.922 333.428 203.584 331.321 Q201.246 329.215 197.241 329.215 Q195.366 329.215 193.491 329.631 Q191.64 330.048 189.695 330.928 L189.695 313.567 Z" fill="#000000" fill-rule="evenodd" fill-opacity="1" /><path clip-path="url(#clip600)" d="M62.9365 57.782 Q59.3254 57.782 57.4967 61.3468 Q55.6912 64.8884 55.6912 72.018 Q55.6912 79.1244 57.4967 82.6892 Q59.3254 86.2309 62.9365 86.2309 Q66.5707 86.2309 68.3763 82.6892 Q70.205 79.1244 70.205 72.018 Q70.205 64.8884 68.3763 61.3468 Q66.5707 57.782 62.9365 57.782 M62.9365 54.0783 Q68.7467 54.0783 71.8022 58.6847 Q74.8809 63.2681 74.8809 72.018 Q74.8809 80.7448 71.8022 85.3513 Q68.7467 89.9346 62.9365 89.9346 Q57.1264 89.9346 54.0477 85.3513 Q50.9921 80.7448 50.9921 72.018 Q50.9921 63.2681 54.0477 58.6847 Q57.1264 54.0783 62.9365 54.0783 Z" fill="#000000" fill-rule="evenodd" fill-opacity="1" /><path clip-path="url(#clip600)" d="M83.0984 83.3837 L87.9827 83.3837 L87.9827 89.2633 L83.0984 89.2633 L83.0984 83.3837 Z" fill="#000000" fill-rule="evenodd" fill-opacity="1" /><path clip-path="url(#clip600)" d="M108.168 57.782 Q104.557 57.782 102.728 61.3468 Q100.922 64.8884 100.922 72.018 Q100.922 79.1244 102.728 82.6892 Q104.557 86.2309 108.168 86.2309 Q111.802 86.2309 113.608 82.6892 Q115.436 79.1244 115.436 72.018 Q115.436 64.8884 113.608 61.3468 Q111.802 57.782 108.168 57.782 M108.168 54.0783 Q113.978 54.0783 117.033 58.6847 Q120.112 63.2681 120.112 72.018 Q120.112 80.7448 117.033 85.3513 Q113.978 89.9346 108.168 89.9346 Q102.358 89.9346 99.2789 85.3513 Q96.2234 80.7448 96.2234 72.018 Q96.2234 63.2681 99.2789 58.6847 Q102.358 54.0783 108.168 54.0783 Z" fill="#000000" fill-rule="evenodd" fill-opacity="1" /><path clip-path="url(#clip600)" d="M138.33 57.782 Q134.719 57.782 132.89 61.3468 Q131.084 64.8884 131.084 72.018 Q131.084 79.1244 132.89 82.6892 Q134.719 86.2309 138.33 86.2309 Q141.964 86.2309 143.769 82.6892 Q145.598 79.1244 145.598 72.018 Q145.598 64.8884 143.769 61.3468 Q141.964 57.782 138.33 57.782 M138.33 54.0783 Q144.14 54.0783 147.195 58.6847 Q150.274 63.2681 150.274 72.018 Q150.274 80.7448 147.195 85.3513 Q144.14 89.9346 138.33 89.9346 Q132.519 89.9346 129.441 85.3513 Q126.385 80.7448 126.385 72.018 Q126.385 63.2681 129.441 58.6847 Q132.519 54.0783 138.33 54.0783 Z" fill="#000000" fill-rule="evenodd" fill-opacity="1" /><path clip-path="url(#clip600)" d="M172.658 70.6291 Q176.015 71.3467 177.89 73.6152 Q179.788 75.8837 179.788 79.217 Q179.788 84.3328 176.269 87.1337 Q172.751 89.9346 166.269 89.9346 Q164.093 89.9346 161.779 89.4948 Q159.487 89.0781 157.033 88.2216 L157.033 83.7078 Q158.978 84.842 161.292 85.4207 Q163.607 85.9994 166.13 85.9994 Q170.529 85.9994 172.82 84.2633 Q175.135 82.5272 175.135 79.217 Q175.135 76.1615 172.982 74.4485 Q170.853 72.7124 167.033 72.7124 L163.005 72.7124 L163.005 68.8699 L167.218 68.8699 Q170.667 68.8699 172.496 67.5041 Q174.325 66.1153 174.325 63.5227 Q174.325 60.8607 172.427 59.4486 Q170.552 58.0134 167.033 58.0134 Q165.112 58.0134 162.913 58.4301 Q160.714 58.8468 158.075 59.7264 L158.075 55.5598 Q160.737 54.819 163.052 54.4487 Q165.39 54.0783 167.45 54.0783 Q172.774 54.0783 175.876 56.5088 Q178.978 58.9162 178.978 63.0366 Q178.978 65.9069 177.334 67.8977 Q175.691 69.8652 172.658 70.6291 Z" fill="#000000" fill-rule="evenodd" fill-opacity="1" /><path clip-path="url(#clip600)" d="M198.653 57.782 Q195.042 57.782 193.214 61.3468 Q191.408 64.8884 191.408 72.018 Q191.408 79.1244 193.214 82.6892 Q195.042 86.2309 198.653 86.2309 Q202.288 86.2309 204.093 82.6892 Q205.922 79.1244 205.922 72.018 Q205.922 64.8884 204.093 61.3468 Q202.288 57.782 198.653 57.782 M198.653 54.0783 Q204.464 54.0783 207.519 58.6847 Q210.598 63.2681 210.598 72.018 Q210.598 80.7448 207.519 85.3513 Q204.464 89.9346 198.653 89.9346 Q192.843 89.9346 189.765 85.3513 Q186.709 80.7448 186.709 72.018 Q186.709 63.2681 189.765 58.6847 Q192.843 54.0783 198.653 54.0783 Z" fill="#000000" fill-rule="evenodd" fill-opacity="1" /><polyline clip-path="url(#clip602)" style="stroke:#009af9; stroke-linecap:butt; stroke-linejoin:round; stroke-width:16; stroke-opacity:1; fill:none" points="
  306.206,87.9763 310.188,166.405 314.17,241.311 318.152,312.814 322.133,381.03 326.115,446.072 330.097,508.052 334.079,567.077 338.061,623.251 342.043,676.678 
  346.024,727.456 350.006,775.683 353.988,821.451 357.97,864.854 361.952,905.98 365.934,944.915 369.916,981.743 373.897,1016.55 377.879,1049.41 381.861,1080.4 
  385.843,1109.6 389.825,1137.07 393.807,1162.9 397.788,1187.15 401.77,1209.88 405.752,1231.17 409.734,1251.06 413.716,1269.63 417.698,1286.93 421.68,1303.03 
  425.661,1317.96 429.643,1331.79 433.625,1344.58 437.607,1356.36 441.589,1367.19 445.571,1377.12 449.552,1386.18 453.534,1394.43 457.516,1401.91 461.498,1408.65 
  465.48,1414.7 469.462,1420.09 473.444,1424.86 477.425,1429.05 481.407,1432.69 485.389,1435.82 489.371,1438.45 493.353,1440.63 497.335,1442.39 501.317,1443.75 
  505.298,1444.73 509.28,1445.37 513.262,1445.69 517.244,1445.72 521.226,1445.47 525.208,1444.96 529.189,1444.23 533.171,1443.29 537.153,1442.15 541.135,1440.84 
  545.117,1439.37 549.099,1437.77 553.081,1436.04 557.062,1434.2 561.044,1432.26 565.026,1430.25 569.008,1428.16 572.99,1426.02 576.972,1423.84 580.953,1421.62 
  584.935,1419.38 588.917,1417.13 592.899,1414.87 596.881,1412.62 600.863,1410.37 604.845,1408.15 608.826,1405.95 612.808,1403.79 616.79,1401.67 620.772,1399.58 
  624.754,1397.55 628.736,1395.58 632.717,1393.66 636.699,1391.81 640.681,1390.02 644.663,1388.3 648.645,1386.65 652.627,1385.08 656.609,1383.58 660.59,1382.17 
  664.572,1380.83 668.554,1379.58 672.536,1378.41 676.518,1377.32 680.5,1376.32 684.481,1375.4 688.463,1374.56 692.445,1373.81 696.427,1373.15 700.409,1372.56 
  704.391,1372.07 708.373,1371.65 712.354,1371.31 716.336,1371.06 720.318,1370.88 724.3,1370.79 728.282,1370.76 732.264,1370.82 736.245,1370.94 740.227,1371.14 
  744.209,1371.4 748.191,1371.73 752.173,1372.13 756.155,1372.59 760.137,1373.11 764.118,1373.69 768.1,1374.32 772.082,1375.01 776.064,1375.75 780.046,1376.53 
  784.028,1377.37 788.009,1378.25 791.991,1379.16 795.973,1380.12 799.955,1381.12 803.937,1382.15 807.919,1383.21 811.901,1384.3 815.882,1385.41 819.864,1386.55 
  823.846,1387.71 827.828,1388.89 831.81,1390.09 835.792,1391.3 839.774,1392.53 843.755,1393.76 847.737,1395 851.719,1396.25 855.701,1397.5 859.683,1398.75 
  863.665,1400 867.646,1401.25 871.628,1402.49 875.61,1403.72 879.592,1404.95 883.574,1406.16 887.556,1407.36 891.538,1408.55 895.519,1409.72 899.501,1410.88 
  903.483,1412.01 907.465,1413.13 911.447,1414.22 915.429,1415.29 919.41,1416.33 923.392,1417.35 927.374,1418.34 931.356,1419.31 935.338,1420.24 939.32,1421.15 
  943.302,1422.02 947.283,1422.86 951.265,1423.67 955.247,1424.44 959.229,1425.18 963.211,1425.89 967.193,1426.56 971.174,1427.19 975.156,1427.79 979.138,1428.35 
  983.12,1428.88 987.102,1429.37 991.084,1429.82 995.066,1430.23 999.047,1430.61 1003.03,1430.95 1007.01,1431.25 1010.99,1431.51 1014.97,1431.74 1018.96,1431.93 
  1022.94,1432.09 1026.92,1432.2 1030.9,1432.29 1034.88,1432.33 1038.87,1432.34 1042.85,1432.32 1046.83,1432.26 1050.81,1432.17 1054.79,1432.05 1058.78,1431.89 
  1062.76,1431.7 1066.74,1431.48 1070.72,1431.23 1074.7,1430.95 1078.68,1430.65 1082.67,1430.31 1086.65,1429.95 1090.63,1429.56 1094.61,1429.15 1098.59,1428.72 
  1102.58,1428.26 1106.56,1427.77 1110.54,1427.27 1114.52,1426.75 1118.5,1426.21 1122.48,1425.65 1126.47,1425.07 1130.45,1424.48 1134.43,1423.87 1138.41,1423.25 
  1142.39,1422.61 1146.38,1421.97 1150.36,1421.31 1154.34,1420.65 1158.32,1419.97 1162.3,1419.29 1166.28,1418.61 1170.27,1417.91 1174.25,1417.22 1178.23,1416.52 
  1182.21,1415.82 1186.19,1415.12 1190.18,1414.42 1194.16,1413.72 1198.14,1413.02 1202.12,1412.33 1206.1,1411.64 1210.09,1410.96 1214.07,1410.28 1218.05,1409.62 
  1222.03,1408.95 1226.01,1408.3 1229.99,1407.66 1233.98,1407.03 1237.96,1406.41 1241.94,1405.81 1245.92,1405.21 1249.9,1404.63 1253.89,1404.07 1257.87,1403.52 
  1261.85,1402.99 1265.83,1402.47 1269.81,1401.97 1273.79,1401.49 1277.78,1401.03 1281.76,1400.59 1285.74,1400.17 1289.72,1399.76 1293.7,1399.38 1297.69,1399.02 
  1301.67,1398.68 1305.65,1398.36 1309.63,1398.06 1313.61,1397.78 1317.6,1397.53 1321.58,1397.3 1325.56,1397.09 1329.54,1396.9 1333.52,1396.73 1337.5,1396.59 
  1341.49,1396.47 1345.47,1396.37 1349.45,1396.3 1353.43,1396.25 1357.41,1396.21 1361.4,1396.21 1365.38,1396.22 1369.36,1396.25 1373.34,1396.31 1377.32,1396.38 
  1381.3,1396.48 1385.29,1396.59 1389.27,1396.73 1393.25,1396.88 1397.23,1397.05 1401.21,1397.24 1405.2,1397.45 1409.18,1397.68 1413.16,1397.92 1417.14,1398.17 
  1421.12,1398.44 1425.11,1398.73 1429.09,1399.03 1433.07,1399.34 1437.05,1399.66 1441.03,1400 1445.01,1400.34 1449,1400.69 1452.98,1401.05 1456.96,1401.42 
  1460.94,1401.8 1464.92,1402.18 1468.91,1402.57 1472.89,1402.96 1476.87,1403.35 1480.85,1403.74 1484.83,1404.14 1488.81,1404.54 1492.8,1404.93 1496.78,1405.32 
  1500.76,1405.71 1504.74,1406.1 1508.72,1406.48 1512.71,1406.85 1516.69,1407.21 1520.67,1407.57 1524.65,1407.92 1528.63,1408.26 1532.61,1408.58 1536.6,1408.9 
  1540.58,1409.2 1544.56,1409.48 1548.54,1409.75 1552.52,1410 1556.51,1410.24 1560.49,1410.46 1564.47,1410.66 1568.45,1410.83 1572.43,1410.99 1576.42,1411.12 
  1580.4,1411.23 1584.38,1411.32 1588.36,1411.39 1592.34,1411.42 1596.32,1411.43 1600.31,1411.42 1604.29,1411.38 1608.27,1411.31 1612.25,1411.21 1616.23,1411.08 
  1620.22,1410.92 1624.2,1410.73 1628.18,1410.51 1632.16,1410.25 1636.14,1409.97 1640.12,1409.65 1644.11,1409.3 1648.09,1408.92 1652.07,1408.51 1656.05,1408.06 
  1660.03,1407.58 1664.02,1407.06 1668,1406.51 1671.98,1405.93 1675.96,1405.31 1679.94,1404.66 1683.93,1403.98 1687.91,1403.27 1691.89,1402.52 1695.87,1401.74 
  1699.85,1400.92 1703.83,1400.08 1707.82,1399.2 1711.8,1398.29 1715.78,1397.35 1719.76,1396.39 1723.74,1395.39 1727.73,1394.37 1731.71,1393.31 1735.69,1392.24 
  1739.67,1391.13 1743.65,1390 1747.63,1388.85 1751.62,1387.67 1755.6,1386.48 1759.58,1385.26 1763.56,1384.02 1767.54,1382.76 1771.53,1381.49 1775.51,1380.2 
  1779.49,1378.9 1783.47,1377.59 1787.45,1376.26 1791.43,1374.92 1795.42,1373.58 1799.4,1372.23 1803.38,1370.87 1807.36,1369.51 1811.34,1368.14 1815.33,1366.78 
  1819.31,1365.42 1823.29,1364.06 1827.27,1362.7 1831.25,1361.35 1835.24,1360.01 1839.22,1358.68 1843.2,1357.36 1847.18,1356.06 1851.16,1354.77 1855.14,1353.49 
  1859.13,1352.23 1863.11,1351 1867.09,1349.78 1871.07,1348.59 1875.05,1347.42 1879.04,1346.28 1883.02,1345.17 1887,1344.08 1890.98,1343.03 1894.96,1342.01 
  1898.94,1341.02 1902.93,1340.07 1906.91,1339.15 1910.89,1338.27 1914.87,1337.42 1918.85,1336.61 1922.84,1335.84 1926.82,1335.11 1930.8,1334.42 1934.78,1333.77 
  1938.76,1333.16 1942.75,1332.59 1946.73,1332.06 1950.71,1331.57 1954.69,1331.12 1958.67,1330.71 1962.65,1330.33 1966.64,1329.99 1970.62,1329.68 1974.6,1329.41 
  1978.58,1329.17 1982.56,1328.95 1986.55,1328.77 1990.53,1328.6 1994.51,1328.46 1998.49,1328.34 2002.47,1328.23 2006.45,1328.13 2010.44,1328.03 2014.42,1327.94 
  2018.4,1327.84 2022.38,1327.74 2026.36,1327.62 2030.35,1327.47 2034.33,1327.3 2038.31,1327.09 2042.29,1326.84 2046.27,1326.54 2050.25,1326.18 2054.24,1325.75 
  2058.22,1325.24 2062.2,1324.64 2066.18,1323.95 2070.16,1323.14 2074.15,1322.21 2078.13,1321.14 2082.11,1319.92 2086.09,1318.54 2090.07,1316.98 2094.06,1315.23 
  2098.04,1313.27 2102.02,1311.08 2106,1308.64 2109.98,1305.95 2113.96,1302.97 2117.95,1299.69 2121.93,1296.08 2125.91,1292.13 2129.89,1287.81 2133.87,1283.09 
  2137.86,1277.96 2141.84,1272.39 2145.82,1266.34 2149.8,1259.8 2153.78,1252.72 2157.76,1245.09 2161.75,1236.87 2165.73,1228.03 2169.71,1218.53 2173.69,1208.33 
  2177.67,1197.41 2181.66,1185.73 2185.64,1173.24 2189.62,1159.9 2193.6,1145.68 2197.58,1130.53 2201.57,1114.41 2205.55,1097.26 2209.53,1079.04 2213.51,1059.71 
  2217.49,1039.2 2221.47,1017.48 2225.46,994.473 2229.44,970.137 2233.42,944.412 2237.4,917.236 2241.38,888.548 2245.37,858.285 2249.35,826.381 2253.33,792.769 
  2257.31,757.38 2261.29,720.142 2265.27,680.981 2269.26,639.822 2273.24,596.586 2277.22,551.194 2281.2,503.563 2285.18,453.607 2289.17,401.241 2293.15,346.374 
  
  "/>
<path clip-path="url(#clip600)" d="
M1969.89 250.738 L2282.55 250.738 L2282.55 95.2176 L1969.89 95.2176  Z
  " fill="#ffffff" fill-rule="evenodd" fill-opacity="1"/>
<polyline clip-path="url(#clip600)" style="stroke:#000000; stroke-linecap:butt; stroke-linejoin:round; stroke-width:4; stroke-opacity:1; fill:none" points="
  1969.89,250.738 2282.55,250.738 2282.55,95.2176 1969.89,95.2176 1969.89,250.738 
  "/>
<polyline clip-path="url(#clip600)" style="stroke:#009af9; stroke-linecap:butt; stroke-linejoin:round; stroke-width:6; stroke-opacity:1; fill:none" points="
  1993.29,172.978 2133.7,172.978 
  "/>
<path clip-path="url(#clip600)" d="M2177.87 202.509 Q2175.16 209.453 2172.59 211.571 Q2170.02 213.689 2165.71 213.689 L2160.61 213.689 L2160.61 208.342 L2164.36 208.342 Q2167 208.342 2168.46 207.092 Q2169.91 205.842 2171.68 201.189 L2172.83 198.273 L2157.1 160.009 L2163.87 160.009 L2176.03 190.425 L2188.18 160.009 L2194.95 160.009 L2177.87 202.509 Z" fill="#000000" fill-rule="evenodd" fill-opacity="1" /><path clip-path="url(#clip600)" d="M2205.89 192.995 L2217.34 192.995 L2217.34 153.446 L2204.88 155.946 L2204.88 149.558 L2217.27 147.058 L2224.29 147.058 L2224.29 192.995 L2235.75 192.995 L2235.75 198.898 L2205.89 198.898 L2205.89 192.995 Z" fill="#000000" fill-rule="evenodd" fill-opacity="1" /></svg>
