<?xml version="1.0" encoding="utf-8"?>
<svg xmlns="http://www.w3.org/2000/svg" xmlns:xlink="http://www.w3.org/1999/xlink" width="600" height="400" viewBox="0 0 2400 1600">
<defs>
  <clipPath id="clip710">
    <rect x="0" y="0" width="2400" height="1600"/>
  </clipPath>
</defs>
<path clip-path="url(#clip710)" d="
M0 1600 L2400 1600 L2400 0 L0 0  Z
  " fill="#ffffff" fill-rule="evenodd" fill-opacity="1"/>
<defs>
  <clipPath id="clip711">
    <rect x="480" y="0" width="1681" height="1600"/>
  </clipPath>
</defs>
<path clip-path="url(#clip710)" d="
M147.478 1486.45 L2352.76 1486.45 L2352.76 47.2441 L147.478 47.2441  Z
  " fill="#ffffff" fill-rule="evenodd" fill-opacity="1"/>
<defs>
  <clipPath id="clip712">
    <rect x="147" y="47" width="2206" height="1440"/>
  </clipPath>
</defs>
<polyline clip-path="url(#clip712)" style="stroke:#000000; stroke-linecap:butt; stroke-linejoin:round; stroke-width:2; stroke-opacity:0.1; fill:none" points="
  209.891,1486.45 209.891,47.2441 
  "/>
<polyline clip-path="url(#clip712)" style="stroke:#000000; stroke-linecap:butt; stroke-linejoin:round; stroke-width:2; stroke-opacity:0.1; fill:none" points="
  556.633,1486.45 556.633,47.2441 
  "/>
<polyline clip-path="url(#clip712)" style="stroke:#000000; stroke-linecap:butt; stroke-linejoin:round; stroke-width:2; stroke-opacity:0.1; fill:none" points="
  903.375,1486.45 903.375,47.2441 
  "/>
<polyline clip-path="url(#clip712)" style="stroke:#000000; stroke-linecap:butt; stroke-linejoin:round; stroke-width:2; stroke-opacity:0.1; fill:none" points="
  1250.12,1486.45 1250.12,47.2441 
  "/>
<polyline clip-path="url(#clip712)" style="stroke:#000000; stroke-linecap:butt; stroke-linejoin:round; stroke-width:2; stroke-opacity:0.1; fill:none" points="
  1596.86,1486.45 1596.86,47.2441 
  "/>
<polyline clip-path="url(#clip712)" style="stroke:#000000; stroke-linecap:butt; stroke-linejoin:round; stroke-width:2; stroke-opacity:0.1; fill:none" points="
  1943.6,1486.45 1943.6,47.2441 
  "/>
<polyline clip-path="url(#clip712)" style="stroke:#000000; stroke-linecap:butt; stroke-linejoin:round; stroke-width:2; stroke-opacity:0.1; fill:none" points="
  2290.34,1486.45 2290.34,47.2441 
  "/>
<polyline clip-path="url(#clip710)" style="stroke:#000000; stroke-linecap:butt; stroke-linejoin:round; stroke-width:4; stroke-opacity:1; fill:none" points="
  147.478,1486.45 2352.76,1486.45 
  "/>
<polyline clip-path="url(#clip710)" style="stroke:#000000; stroke-linecap:butt; stroke-linejoin:round; stroke-width:4; stroke-opacity:1; fill:none" points="
  209.891,1486.45 209.891,1467.55 
  "/>
<polyline clip-path="url(#clip710)" style="stroke:#000000; stroke-linecap:butt; stroke-linejoin:round; stroke-width:4; stroke-opacity:1; fill:none" points="
  556.633,1486.45 556.633,1467.55 
  "/>
<polyline clip-path="url(#clip710)" style="stroke:#000000; stroke-linecap:butt; stroke-linejoin:round; stroke-width:4; stroke-opacity:1; fill:none" points="
  903.375,1486.45 903.375,1467.55 
  "/>
<polyline clip-path="url(#clip710)" style="stroke:#000000; stroke-linecap:butt; stroke-linejoin:round; stroke-width:4; stroke-opacity:1; fill:none" points="
  1250.12,1486.45 1250.12,1467.55 
  "/>
<polyline clip-path="url(#clip710)" style="stroke:#000000; stroke-linecap:butt; stroke-linejoin:round; stroke-width:4; stroke-opacity:1; fill:none" points="
  1596.86,1486.45 1596.86,1467.55 
  "/>
<polyline clip-path="url(#clip710)" style="stroke:#000000; stroke-linecap:butt; stroke-linejoin:round; stroke-width:4; stroke-opacity:1; fill:none" points="
  1943.6,1486.45 1943.6,1467.55 
  "/>
<polyline clip-path="url(#clip710)" style="stroke:#000000; stroke-linecap:butt; stroke-linejoin:round; stroke-width:4; stroke-opacity:1; fill:none" points="
  2290.34,1486.45 2290.34,1467.55 
  "/>
<path clip-path="url(#clip710)" d="M179.359 1532.02 L209.035 1532.02 L209.035 1535.95 L179.359 1535.95 L179.359 1532.02 Z" fill="#000000" fill-rule="evenodd" fill-opacity="1" /><path clip-path="url(#clip710)" d="M233.294 1530.21 Q236.651 1530.93 238.526 1533.2 Q240.424 1535.47 240.424 1538.8 Q240.424 1543.92 236.905 1546.72 Q233.387 1549.52 226.905 1549.52 Q224.729 1549.52 222.415 1549.08 Q220.123 1548.66 217.669 1547.81 L217.669 1543.29 Q219.614 1544.43 221.928 1545.01 Q224.243 1545.58 226.766 1545.58 Q231.164 1545.58 233.456 1543.85 Q235.771 1542.11 235.771 1538.8 Q235.771 1535.75 233.618 1534.03 Q231.489 1532.3 227.669 1532.3 L223.641 1532.3 L223.641 1528.45 L227.854 1528.45 Q231.303 1528.45 233.132 1527.09 Q234.961 1525.7 234.961 1523.11 Q234.961 1520.45 233.063 1519.03 Q231.188 1517.6 227.669 1517.6 Q225.748 1517.6 223.549 1518.01 Q221.35 1518.43 218.711 1519.31 L218.711 1515.14 Q221.373 1514.4 223.688 1514.03 Q226.026 1513.66 228.086 1513.66 Q233.41 1513.66 236.512 1516.09 Q239.614 1518.5 239.614 1522.62 Q239.614 1525.49 237.97 1527.48 Q236.326 1529.45 233.294 1530.21 Z" fill="#000000" fill-rule="evenodd" fill-opacity="1" /><path clip-path="url(#clip710)" d="M526.576 1532.02 L556.251 1532.02 L556.251 1535.95 L526.576 1535.95 L526.576 1532.02 Z" fill="#000000" fill-rule="evenodd" fill-opacity="1" /><path clip-path="url(#clip710)" d="M570.372 1544.91 L586.691 1544.91 L586.691 1548.85 L564.747 1548.85 L564.747 1544.91 Q567.409 1542.16 571.992 1537.53 Q576.598 1532.88 577.779 1531.53 Q580.024 1529.01 580.904 1527.27 Q581.807 1525.51 581.807 1523.82 Q581.807 1521.07 579.862 1519.33 Q577.941 1517.6 574.839 1517.6 Q572.64 1517.6 570.186 1518.36 Q567.756 1519.13 564.978 1520.68 L564.978 1515.95 Q567.802 1514.82 570.256 1514.24 Q572.71 1513.66 574.747 1513.66 Q580.117 1513.66 583.311 1516.35 Q586.506 1519.03 586.506 1523.52 Q586.506 1525.65 585.696 1527.57 Q584.909 1529.47 582.802 1532.07 Q582.223 1532.74 579.122 1535.95 Q576.02 1539.15 570.372 1544.91 Z" fill="#000000" fill-rule="evenodd" fill-opacity="1" /><path clip-path="url(#clip710)" d="M873.132 1532.02 L902.808 1532.02 L902.808 1535.95 L873.132 1535.95 L873.132 1532.02 Z" fill="#000000" fill-rule="evenodd" fill-opacity="1" /><path clip-path="url(#clip710)" d="M913.711 1544.91 L921.35 1544.91 L921.35 1518.55 L913.039 1520.21 L913.039 1515.95 L921.303 1514.29 L925.979 1514.29 L925.979 1544.91 L933.618 1544.91 L933.618 1548.85 L913.711 1548.85 L913.711 1544.91 Z" fill="#000000" fill-rule="evenodd" fill-opacity="1" /><path clip-path="url(#clip710)" d="M1250.12 1517.37 Q1246.51 1517.37 1244.68 1520.93 Q1242.87 1524.47 1242.87 1531.6 Q1242.87 1538.71 1244.68 1542.27 Q1246.51 1545.82 1250.12 1545.82 Q1253.75 1545.82 1255.56 1542.27 Q1257.39 1538.71 1257.39 1531.6 Q1257.39 1524.47 1255.56 1520.93 Q1253.75 1517.37 1250.12 1517.37 M1250.12 1513.66 Q1255.93 1513.66 1258.98 1518.27 Q1262.06 1522.85 1262.06 1531.6 Q1262.06 1540.33 1258.98 1544.94 Q1255.93 1549.52 1250.12 1549.52 Q1244.31 1549.52 1241.23 1544.94 Q1238.17 1540.33 1238.17 1531.6 Q1238.17 1522.85 1241.23 1518.27 Q1244.31 1513.66 1250.12 1513.66 Z" fill="#000000" fill-rule="evenodd" fill-opacity="1" /><path clip-path="url(#clip710)" d="M1587.24 1544.91 L1594.88 1544.91 L1594.88 1518.55 L1586.57 1520.21 L1586.57 1515.95 L1594.83 1514.29 L1599.51 1514.29 L1599.51 1544.91 L1607.15 1544.91 L1607.15 1548.85 L1587.24 1548.85 L1587.24 1544.91 Z" fill="#000000" fill-rule="evenodd" fill-opacity="1" /><path clip-path="url(#clip710)" d="M1938.25 1544.91 L1954.57 1544.91 L1954.57 1548.85 L1932.63 1548.85 L1932.63 1544.91 Q1935.29 1542.16 1939.87 1537.53 Q1944.48 1532.88 1945.66 1531.53 Q1947.91 1529.01 1948.79 1527.27 Q1949.69 1525.51 1949.69 1523.82 Q1949.69 1521.07 1947.74 1519.33 Q1945.82 1517.6 1942.72 1517.6 Q1940.52 1517.6 1938.07 1518.36 Q1935.64 1519.13 1932.86 1520.68 L1932.86 1515.95 Q1935.68 1514.82 1938.14 1514.24 Q1940.59 1513.66 1942.63 1513.66 Q1948 1513.66 1951.19 1516.35 Q1954.39 1519.03 1954.39 1523.52 Q1954.39 1525.65 1953.58 1527.57 Q1952.79 1529.47 1950.68 1532.07 Q1950.11 1532.74 1947 1535.95 Q1943.9 1539.15 1938.25 1544.91 Z" fill="#000000" fill-rule="evenodd" fill-opacity="1" /><path clip-path="url(#clip710)" d="M2294.59 1530.21 Q2297.95 1530.93 2299.82 1533.2 Q2301.72 1535.47 2301.72 1538.8 Q2301.72 1543.92 2298.2 1546.72 Q2294.68 1549.52 2288.2 1549.52 Q2286.03 1549.52 2283.71 1549.08 Q2281.42 1548.66 2278.97 1547.81 L2278.97 1543.29 Q2280.91 1544.43 2283.22 1545.01 Q2285.54 1545.58 2288.06 1545.58 Q2292.46 1545.58 2294.75 1543.85 Q2297.07 1542.11 2297.07 1538.8 Q2297.07 1535.75 2294.91 1534.03 Q2292.78 1532.3 2288.97 1532.3 L2284.94 1532.3 L2284.94 1528.45 L2289.15 1528.45 Q2292.6 1528.45 2294.43 1527.09 Q2296.26 1525.7 2296.26 1523.11 Q2296.26 1520.45 2294.36 1519.03 Q2292.48 1517.6 2288.97 1517.6 Q2287.04 1517.6 2284.84 1518.01 Q2282.65 1518.43 2280.01 1519.31 L2280.01 1515.14 Q2282.67 1514.4 2284.98 1514.03 Q2287.32 1513.66 2289.38 1513.66 Q2294.71 1513.66 2297.81 1516.09 Q2300.91 1518.5 2300.91 1522.62 Q2300.91 1525.49 2299.27 1527.48 Q2297.62 1529.45 2294.59 1530.21 Z" fill="#000000" fill-rule="evenodd" fill-opacity="1" /><polyline clip-path="url(#clip712)" style="stroke:#000000; stroke-linecap:butt; stroke-linejoin:round; stroke-width:2; stroke-opacity:0.1; fill:none" points="
  147.478,1486.45 2352.76,1486.45 
  "/>
<polyline clip-path="url(#clip712)" style="stroke:#000000; stroke-linecap:butt; stroke-linejoin:round; stroke-width:2; stroke-opacity:0.1; fill:none" points="
  147.478,1126.65 2352.76,1126.65 
  "/>
<polyline clip-path="url(#clip712)" style="stroke:#000000; stroke-linecap:butt; stroke-linejoin:round; stroke-width:2; stroke-opacity:0.1; fill:none" points="
  147.478,766.846 2352.76,766.846 
  "/>
<polyline clip-path="url(#clip712)" style="stroke:#000000; stroke-linecap:butt; stroke-linejoin:round; stroke-width:2; stroke-opacity:0.1; fill:none" points="
  147.478,407.045 2352.76,407.045 
  "/>
<polyline clip-path="url(#clip712)" style="stroke:#000000; stroke-linecap:butt; stroke-linejoin:round; stroke-width:2; stroke-opacity:0.1; fill:none" points="
  147.478,47.2441 2352.76,47.2441 
  "/>
<polyline clip-path="url(#clip710)" style="stroke:#000000; stroke-linecap:butt; stroke-linejoin:round; stroke-width:4; stroke-opacity:1; fill:none" points="
  147.478,1486.45 147.478,47.2441 
  "/>
<polyline clip-path="url(#clip710)" style="stroke:#000000; stroke-linecap:butt; stroke-linejoin:round; stroke-width:4; stroke-opacity:1; fill:none" points="
  147.478,1486.45 166.376,1486.45 
  "/>
<polyline clip-path="url(#clip710)" style="stroke:#000000; stroke-linecap:butt; stroke-linejoin:round; stroke-width:4; stroke-opacity:1; fill:none" points="
  147.478,1126.65 166.376,1126.65 
  "/>
<polyline clip-path="url(#clip710)" style="stroke:#000000; stroke-linecap:butt; stroke-linejoin:round; stroke-width:4; stroke-opacity:1; fill:none" points="
  147.478,766.846 166.376,766.846 
  "/>
<polyline clip-path="url(#clip710)" style="stroke:#000000; stroke-linecap:butt; stroke-linejoin:round; stroke-width:4; stroke-opacity:1; fill:none" points="
  147.478,407.045 166.376,407.045 
  "/>
<polyline clip-path="url(#clip710)" style="stroke:#000000; stroke-linecap:butt; stroke-linejoin:round; stroke-width:4; stroke-opacity:1; fill:none" points="
  147.478,47.2441 166.376,47.2441 
  "/>
<path clip-path="url(#clip710)" d="M51.3625 1486.9 L81.0383 1486.9 L81.0383 1490.83 L51.3625 1490.83 L51.3625 1486.9 Z" fill="#000000" fill-rule="evenodd" fill-opacity="1" /><path clip-path="url(#clip710)" d="M95.1586 1499.79 L111.478 1499.79 L111.478 1503.73 L89.5336 1503.73 L89.5336 1499.79 Q92.1956 1497.04 96.7789 1492.41 Q101.385 1487.76 102.566 1486.41 Q104.811 1483.89 105.691 1482.15 Q106.594 1480.39 106.594 1478.7 Q106.594 1475.95 104.649 1474.21 Q102.728 1472.48 99.6261 1472.48 Q97.4271 1472.48 94.9734 1473.24 Q92.5428 1474.01 89.7651 1475.56 L89.7651 1470.83 Q92.5891 1469.7 95.0428 1469.12 Q97.4965 1468.54 99.5335 1468.54 Q104.904 1468.54 108.098 1471.23 Q111.293 1473.91 111.293 1478.4 Q111.293 1480.53 110.483 1482.45 Q109.696 1484.35 107.589 1486.95 Q107.01 1487.62 103.909 1490.83 Q100.807 1494.03 95.1586 1499.79 Z" fill="#000000" fill-rule="evenodd" fill-opacity="1" /><path clip-path="url(#clip710)" d="M50.9921 1127.1 L80.6679 1127.1 L80.6679 1131.03 L50.9921 1131.03 L50.9921 1127.1 Z" fill="#000000" fill-rule="evenodd" fill-opacity="1" /><path clip-path="url(#clip710)" d="M91.5706 1139.99 L99.2095 1139.99 L99.2095 1113.63 L90.8993 1115.29 L90.8993 1111.03 L99.1632 1109.37 L103.839 1109.37 L103.839 1139.99 L111.478 1139.99 L111.478 1143.93 L91.5706 1143.93 L91.5706 1139.99 Z" fill="#000000" fill-rule="evenodd" fill-opacity="1" /><path clip-path="url(#clip710)" d="M99.5335 752.645 Q95.9224 752.645 94.0937 756.209 Q92.2882 759.751 92.2882 766.881 Q92.2882 773.987 94.0937 777.552 Q95.9224 781.094 99.5335 781.094 Q103.168 781.094 104.973 777.552 Q106.802 773.987 106.802 766.881 Q106.802 759.751 104.973 756.209 Q103.168 752.645 99.5335 752.645 M99.5335 748.941 Q105.344 748.941 108.399 753.547 Q111.478 758.131 111.478 766.881 Q111.478 775.608 108.399 780.214 Q105.344 784.797 99.5335 784.797 Q93.7234 784.797 90.6447 780.214 Q87.5892 775.608 87.5892 766.881 Q87.5892 758.131 90.6447 753.547 Q93.7234 748.941 99.5335 748.941 Z" fill="#000000" fill-rule="evenodd" fill-opacity="1" /><path clip-path="url(#clip710)" d="M91.5706 420.39 L99.2095 420.39 L99.2095 394.024 L90.8993 395.691 L90.8993 391.432 L99.1632 389.765 L103.839 389.765 L103.839 420.39 L111.478 420.39 L111.478 424.325 L91.5706 424.325 L91.5706 420.39 Z" fill="#000000" fill-rule="evenodd" fill-opacity="1" /><path clip-path="url(#clip710)" d="M95.1586 60.5889 L111.478 60.5889 L111.478 64.5241 L89.5336 64.5241 L89.5336 60.5889 Q92.1956 57.8343 96.7789 53.2047 Q101.385 48.552 102.566 47.2094 Q104.811 44.6862 105.691 42.9501 Q106.594 41.1909 106.594 39.5011 Q106.594 36.7465 104.649 35.0104 Q102.728 33.2743 99.6261 33.2743 Q97.4271 33.2743 94.9734 34.0381 Q92.5428 34.802 89.7651 36.3529 L89.7651 31.6308 Q92.5891 30.4965 95.0428 29.9178 Q97.4965 29.3391 99.5335 29.3391 Q104.904 29.3391 108.098 32.0243 Q111.293 34.7094 111.293 39.2002 Q111.293 41.3298 110.483 43.2511 Q109.696 45.1492 107.589 47.7418 Q107.01 48.4131 103.909 51.6306 Q100.807 54.8251 95.1586 60.5889 Z" fill="#000000" fill-rule="evenodd" fill-opacity="1" /><polyline clip-path="url(#clip712)" style="stroke:#009af9; stroke-linecap:butt; stroke-linejoin:round; stroke-width:16; stroke-opacity:1; fill:none" points="
  209.891,-1163.28 252.35,-972.172 294.808,-793.67 337.266,-627.359 379.724,-472.823 422.182,-329.646 464.641,-197.411 507.099,-75.704 549.557,35.8924 592.015,137.794 
  634.473,230.416 676.931,314.176 719.39,389.488 761.848,456.769 804.306,516.436 846.764,568.903 889.222,614.588 931.681,653.905 974.139,687.271 1016.6,715.103 
  1059.06,737.815 1101.51,755.824 1143.97,769.546 1186.43,779.397 1228.89,785.793 1271.35,789.15 1313.8,789.884 1356.26,788.411 1398.72,785.147 1441.18,780.507 
  1483.64,774.909 1526.1,768.767 1568.55,762.498 1611.01,756.519 1653.47,751.244 1695.93,747.09 1738.39,744.472 1780.84,743.808 1823.3,745.513 1865.76,750.002 
  1908.22,757.692 1950.68,768.999 1993.14,784.339 2035.59,804.128 2078.05,828.781 2120.51,858.716 2162.97,894.347 2205.43,936.091 2247.88,984.364 2290.34,1039.58 
  
  "/>
<polyline clip-path="url(#clip712)" style="stroke:#e26f46; stroke-linecap:butt; stroke-linejoin:round; stroke-width:16; stroke-opacity:1; fill:none" points="
  209.891,4023.94 252.35,3591.59 294.808,3193.1 337.266,2827.22 379.724,2492.7 422.182,2188.29 464.641,1912.75 507.099,1664.83 549.557,1443.27 592.015,1246.84 
  634.473,1074.28 676.931,924.347 719.39,795.791 761.848,687.364 804.306,597.819 846.764,525.907 889.222,470.381 931.681,429.993 974.139,403.494 1016.6,389.637 
  1059.06,387.173 1101.51,394.855 1143.97,411.434 1186.43,435.664 1228.89,466.295 1271.35,502.079 1313.8,541.77 1356.26,584.118 1398.72,627.876 1441.18,671.795 
  1483.64,714.629 1526.1,755.128 1568.55,792.045 1611.01,824.132 1653.47,850.141 1695.93,868.824 1738.39,878.932 1780.84,879.219 1823.3,868.435 1865.76,845.333 
  1908.22,808.666 1950.68,757.184 1993.14,689.64 2035.59,604.787 2078.05,501.375 2120.51,378.157 2162.97,233.886 2205.43,67.3122 2247.88,-122.811 2290.34,-337.732 
  
  "/>
<polyline clip-path="url(#clip712)" style="stroke:#3da44d; stroke-linecap:butt; stroke-linejoin:round; stroke-width:16; stroke-opacity:1; fill:none" points="
  209.891,-1498.96 252.35,-1169.82 294.808,-870.587 337.266,-599.995 379.724,-356.801 422.182,-139.757 464.641,52.3853 507.099,220.874 549.557,366.956 592.015,491.88 
  634.473,596.895 676.931,683.247 719.39,752.186 761.848,804.959 804.306,842.813 846.764,866.998 889.222,878.76 931.681,879.348 974.139,870.011 1016.6,851.995 
  1059.06,826.549 1101.51,794.921 1143.97,758.359 1186.43,718.11 1228.89,675.424 1271.35,631.547 1313.8,587.728 1356.26,545.214 1398.72,505.255 1441.18,469.097 
  1483.64,437.989 1526.1,413.179 1568.55,395.914 1611.01,387.443 1653.47,389.013 1695.93,401.874 1738.39,427.271 1780.84,466.455 1823.3,520.672 1865.76,591.17 
  1908.22,679.198 1950.68,786.004 1993.14,912.835 2035.59,1060.94 2078.05,1231.57 2120.51,1425.96 2162.97,1645.37 2205.43,1891.05 2247.88,2164.24 2290.34,2466.2 
  
  "/>
<polyline clip-path="url(#clip712)" style="stroke:#c271d2; stroke-linecap:butt; stroke-linejoin:round; stroke-width:16; stroke-opacity:1; fill:none" points="
  209.891,1345.88 252.35,1257.99 294.808,1178.74 337.266,1107.72 379.724,1044.51 422.182,988.694 464.641,939.859 507.099,897.586 549.557,861.462 592.015,831.069 
  634.473,805.991 676.931,785.813 719.39,770.118 761.848,758.491 804.306,750.515 846.764,745.775 889.222,743.854 931.681,744.337 974.139,746.807 1016.6,750.849 
  1059.06,756.046 1101.51,761.983 1143.97,768.244 1186.43,774.412 1228.89,780.072 1271.35,784.807 1313.8,788.202 1356.26,789.84 1398.72,789.306 1441.18,786.183 
  1483.64,780.056 1526.1,770.509 1568.55,757.126 1611.01,739.489 1653.47,717.185 1695.93,689.796 1738.39,656.907 1780.84,618.102 1823.3,572.964 1865.76,521.077 
  1908.22,462.027 1950.68,395.396 1993.14,320.769 2035.59,237.729 2078.05,145.861 2120.51,44.7487 2162.97,-66.0238 2205.43,-186.873 2247.88,-318.214 2290.34,-460.463 
  
  "/>
<circle clip-path="url(#clip712)" cx="730.004" cy="766.846" r="14" fill="#000000" fill-rule="evenodd" fill-opacity="1" stroke="none"/>
<circle clip-path="url(#clip712)" cx="1134.54" cy="766.846" r="14" fill="#000000" fill-rule="evenodd" fill-opacity="1" stroke="none"/>
<circle clip-path="url(#clip712)" cx="1539.07" cy="766.846" r="14" fill="#000000" fill-rule="evenodd" fill-opacity="1" stroke="none"/>
<circle clip-path="url(#clip712)" cx="1943.6" cy="766.846" r="14" fill="#000000" fill-rule="evenodd" fill-opacity="1" stroke="none"/>
<circle clip-path="url(#clip712)" cx="730.004" cy="407.045" r="14" fill="#000000" fill-rule="evenodd" fill-opacity="1" stroke="none"/>
<circle clip-path="url(#clip712)" cx="1134.54" cy="407.045" r="14" fill="#000000" fill-rule="evenodd" fill-opacity="1" stroke="none"/>
<circle clip-path="url(#clip712)" cx="1539.07" cy="407.045" r="14" fill="#000000" fill-rule="evenodd" fill-opacity="1" stroke="none"/>
<circle clip-path="url(#clip712)" cx="1943.6" cy="407.045" r="14" fill="#000000" fill-rule="evenodd" fill-opacity="1" stroke="none"/>
</svg>
