<?xml version="1.0" encoding="utf-8"?>
<svg xmlns="http://www.w3.org/2000/svg" xmlns:xlink="http://www.w3.org/1999/xlink" width="600" height="400" viewBox="0 0 2400 1600">
<defs>
  <clipPath id="clip580">
    <rect x="0" y="0" width="2400" height="1600"/>
  </clipPath>
</defs>
<path clip-path="url(#clip580)" d="
M0 1600 L2400 1600 L2400 0 L0 0  Z
  " fill="#ffffff" fill-rule="evenodd" fill-opacity="1"/>
<defs>
  <clipPath id="clip581">
    <rect x="480" y="0" width="1681" height="1600"/>
  </clipPath>
</defs>
<path clip-path="url(#clip580)" d="
M193.936 1486.45 L1152.76 1486.45 L1152.76 47.2441 L193.936 47.2441  Z
  " fill="#ffffff" fill-rule="evenodd" fill-opacity="1"/>
<defs>
  <clipPath id="clip582">
    <rect x="193" y="47" width="960" height="1440"/>
  </clipPath>
</defs>
<polyline clip-path="url(#clip582)" style="stroke:#000000; stroke-linecap:butt; stroke-linejoin:round; stroke-width:2; stroke-opacity:0.1; fill:none" points="
  220.464,1486.45 220.464,47.2441 
  "/>
<polyline clip-path="url(#clip582)" style="stroke:#000000; stroke-linecap:butt; stroke-linejoin:round; stroke-width:2; stroke-opacity:0.1; fill:none" points="
  390.177,1486.45 390.177,47.2441 
  "/>
<polyline clip-path="url(#clip582)" style="stroke:#000000; stroke-linecap:butt; stroke-linejoin:round; stroke-width:2; stroke-opacity:0.1; fill:none" points="
  559.89,1486.45 559.89,47.2441 
  "/>
<polyline clip-path="url(#clip582)" style="stroke:#000000; stroke-linecap:butt; stroke-linejoin:round; stroke-width:2; stroke-opacity:0.1; fill:none" points="
  729.602,1486.45 729.602,47.2441 
  "/>
<polyline clip-path="url(#clip582)" style="stroke:#000000; stroke-linecap:butt; stroke-linejoin:round; stroke-width:2; stroke-opacity:0.1; fill:none" points="
  899.315,1486.45 899.315,47.2441 
  "/>
<polyline clip-path="url(#clip582)" style="stroke:#000000; stroke-linecap:butt; stroke-linejoin:round; stroke-width:2; stroke-opacity:0.1; fill:none" points="
  1069.03,1486.45 1069.03,47.2441 
  "/>
<polyline clip-path="url(#clip580)" style="stroke:#000000; stroke-linecap:butt; stroke-linejoin:round; stroke-width:4; stroke-opacity:1; fill:none" points="
  193.936,1486.45 1152.76,1486.45 
  "/>
<polyline clip-path="url(#clip580)" style="stroke:#000000; stroke-linecap:butt; stroke-linejoin:round; stroke-width:4; stroke-opacity:1; fill:none" points="
  220.464,1486.45 220.464,1467.55 
  "/>
<polyline clip-path="url(#clip580)" style="stroke:#000000; stroke-linecap:butt; stroke-linejoin:round; stroke-width:4; stroke-opacity:1; fill:none" points="
  390.177,1486.45 390.177,1467.55 
  "/>
<polyline clip-path="url(#clip580)" style="stroke:#000000; stroke-linecap:butt; stroke-linejoin:round; stroke-width:4; stroke-opacity:1; fill:none" points="
  559.89,1486.45 559.89,1467.55 
  "/>
<polyline clip-path="url(#clip580)" style="stroke:#000000; stroke-linecap:butt; stroke-linejoin:round; stroke-width:4; stroke-opacity:1; fill:none" points="
  729.602,1486.45 729.602,1467.55 
  "/>
<polyline clip-path="url(#clip580)" style="stroke:#000000; stroke-linecap:butt; stroke-linejoin:round; stroke-width:4; stroke-opacity:1; fill:none" points="
  899.315,1486.45 899.315,1467.55 
  "/>
<polyline clip-path="url(#clip580)" style="stroke:#000000; stroke-linecap:butt; stroke-linejoin:round; stroke-width:4; stroke-opacity:1; fill:none" points="
  1069.03,1486.45 1069.03,1467.55 
  "/>
<path clip-path="url(#clip580)" d="M166.992 1532.02 L196.668 1532.02 L196.668 1535.95 L166.992 1535.95 L166.992 1532.02 Z" fill="#000000" fill-rule="evenodd" fill-opacity="1" /><path clip-path="url(#clip580)" d="M207.571 1544.91 L215.209 1544.91 L215.209 1518.55 L206.899 1520.21 L206.899 1515.95 L215.163 1514.29 L219.839 1514.29 L219.839 1544.91 L227.478 1544.91 L227.478 1548.85 L207.571 1548.85 L207.571 1544.91 Z" fill="#000000" fill-rule="evenodd" fill-opacity="1" /><path clip-path="url(#clip580)" d="M236.922 1542.97 L241.807 1542.97 L241.807 1548.85 L236.922 1548.85 L236.922 1542.97 Z" fill="#000000" fill-rule="evenodd" fill-opacity="1" /><path clip-path="url(#clip580)" d="M261.992 1517.37 Q258.381 1517.37 256.552 1520.93 Q254.746 1524.47 254.746 1531.6 Q254.746 1538.71 256.552 1542.27 Q258.381 1545.82 261.992 1545.82 Q265.626 1545.82 267.431 1542.27 Q269.26 1538.71 269.26 1531.6 Q269.26 1524.47 267.431 1520.93 Q265.626 1517.37 261.992 1517.37 M261.992 1513.66 Q267.802 1513.66 270.857 1518.27 Q273.936 1522.85 273.936 1531.6 Q273.936 1540.33 270.857 1544.94 Q267.802 1549.52 261.992 1549.52 Q256.181 1549.52 253.103 1544.94 Q250.047 1540.33 250.047 1531.6 Q250.047 1522.85 253.103 1518.27 Q256.181 1513.66 261.992 1513.66 Z" fill="#000000" fill-rule="evenodd" fill-opacity="1" /><path clip-path="url(#clip580)" d="M337.203 1532.02 L366.878 1532.02 L366.878 1535.95 L337.203 1535.95 L337.203 1532.02 Z" fill="#000000" fill-rule="evenodd" fill-opacity="1" /><path clip-path="url(#clip580)" d="M386.971 1517.37 Q383.36 1517.37 381.531 1520.93 Q379.725 1524.47 379.725 1531.6 Q379.725 1538.71 381.531 1542.27 Q383.36 1545.82 386.971 1545.82 Q390.605 1545.82 392.411 1542.27 Q394.239 1538.71 394.239 1531.6 Q394.239 1524.47 392.411 1520.93 Q390.605 1517.37 386.971 1517.37 M386.971 1513.66 Q392.781 1513.66 395.836 1518.27 Q398.915 1522.85 398.915 1531.6 Q398.915 1540.33 395.836 1544.94 Q392.781 1549.52 386.971 1549.52 Q381.161 1549.52 378.082 1544.94 Q375.026 1540.33 375.026 1531.6 Q375.026 1522.85 378.082 1518.27 Q381.161 1513.66 386.971 1513.66 Z" fill="#000000" fill-rule="evenodd" fill-opacity="1" /><path clip-path="url(#clip580)" d="M407.133 1542.97 L412.017 1542.97 L412.017 1548.85 L407.133 1548.85 L407.133 1542.97 Z" fill="#000000" fill-rule="evenodd" fill-opacity="1" /><path clip-path="url(#clip580)" d="M422.248 1514.29 L440.605 1514.29 L440.605 1518.22 L426.531 1518.22 L426.531 1526.7 Q427.549 1526.35 428.568 1526.19 Q429.586 1526 430.605 1526 Q436.392 1526 439.771 1529.17 Q443.151 1532.34 443.151 1537.76 Q443.151 1543.34 439.679 1546.44 Q436.207 1549.52 429.887 1549.52 Q427.711 1549.52 425.443 1549.15 Q423.197 1548.78 420.79 1548.04 L420.79 1543.34 Q422.873 1544.47 425.096 1545.03 Q427.318 1545.58 429.795 1545.58 Q433.799 1545.58 436.137 1543.48 Q438.475 1541.37 438.475 1537.76 Q438.475 1534.15 436.137 1532.04 Q433.799 1529.94 429.795 1529.94 Q427.92 1529.94 426.045 1530.35 Q424.193 1530.77 422.248 1531.65 L422.248 1514.29 Z" fill="#000000" fill-rule="evenodd" fill-opacity="1" /><path clip-path="url(#clip580)" d="M537.274 1517.37 Q533.663 1517.37 531.834 1520.93 Q530.029 1524.47 530.029 1531.6 Q530.029 1538.71 531.834 1542.27 Q533.663 1545.82 537.274 1545.82 Q540.908 1545.82 542.714 1542.27 Q544.542 1538.71 544.542 1531.6 Q544.542 1524.47 542.714 1520.93 Q540.908 1517.37 537.274 1517.37 M537.274 1513.66 Q543.084 1513.66 546.14 1518.27 Q549.218 1522.85 549.218 1531.6 Q549.218 1540.33 546.14 1544.94 Q543.084 1549.52 537.274 1549.52 Q531.464 1549.52 528.385 1544.94 Q525.33 1540.33 525.33 1531.6 Q525.33 1522.85 528.385 1518.27 Q531.464 1513.66 537.274 1513.66 Z" fill="#000000" fill-rule="evenodd" fill-opacity="1" /><path clip-path="url(#clip580)" d="M557.436 1542.97 L562.32 1542.97 L562.32 1548.85 L557.436 1548.85 L557.436 1542.97 Z" fill="#000000" fill-rule="evenodd" fill-opacity="1" /><path clip-path="url(#clip580)" d="M582.505 1517.37 Q578.894 1517.37 577.065 1520.93 Q575.26 1524.47 575.26 1531.6 Q575.26 1538.71 577.065 1542.27 Q578.894 1545.82 582.505 1545.82 Q586.139 1545.82 587.945 1542.27 Q589.774 1538.71 589.774 1531.6 Q589.774 1524.47 587.945 1520.93 Q586.139 1517.37 582.505 1517.37 M582.505 1513.66 Q588.315 1513.66 591.371 1518.27 Q594.45 1522.85 594.45 1531.6 Q594.45 1540.33 591.371 1544.94 Q588.315 1549.52 582.505 1549.52 Q576.695 1549.52 573.616 1544.94 Q570.561 1540.33 570.561 1531.6 Q570.561 1522.85 573.616 1518.27 Q576.695 1513.66 582.505 1513.66 Z" fill="#000000" fill-rule="evenodd" fill-opacity="1" /><path clip-path="url(#clip580)" d="M707.484 1517.37 Q703.873 1517.37 702.045 1520.93 Q700.239 1524.47 700.239 1531.6 Q700.239 1538.71 702.045 1542.27 Q703.873 1545.82 707.484 1545.82 Q711.119 1545.82 712.924 1542.27 Q714.753 1538.71 714.753 1531.6 Q714.753 1524.47 712.924 1520.93 Q711.119 1517.37 707.484 1517.37 M707.484 1513.66 Q713.294 1513.66 716.35 1518.27 Q719.429 1522.85 719.429 1531.6 Q719.429 1540.33 716.35 1544.94 Q713.294 1549.52 707.484 1549.52 Q701.674 1549.52 698.595 1544.94 Q695.54 1540.33 695.54 1531.6 Q695.54 1522.85 698.595 1518.27 Q701.674 1513.66 707.484 1513.66 Z" fill="#000000" fill-rule="evenodd" fill-opacity="1" /><path clip-path="url(#clip580)" d="M727.646 1542.97 L732.53 1542.97 L732.53 1548.85 L727.646 1548.85 L727.646 1542.97 Z" fill="#000000" fill-rule="evenodd" fill-opacity="1" /><path clip-path="url(#clip580)" d="M742.762 1514.29 L761.118 1514.29 L761.118 1518.22 L747.044 1518.22 L747.044 1526.7 Q748.063 1526.35 749.081 1526.19 Q750.1 1526 751.118 1526 Q756.905 1526 760.285 1529.17 Q763.665 1532.34 763.665 1537.76 Q763.665 1543.34 760.192 1546.44 Q756.72 1549.52 750.401 1549.52 Q748.225 1549.52 745.956 1549.15 Q743.711 1548.78 741.304 1548.04 L741.304 1543.34 Q743.387 1544.47 745.609 1545.03 Q747.831 1545.58 750.308 1545.58 Q754.313 1545.58 756.651 1543.48 Q758.989 1541.37 758.989 1537.76 Q758.989 1534.15 756.651 1532.04 Q754.313 1529.94 750.308 1529.94 Q748.433 1529.94 746.558 1530.35 Q744.706 1530.77 742.762 1531.65 L742.762 1514.29 Z" fill="#000000" fill-rule="evenodd" fill-opacity="1" /><path clip-path="url(#clip580)" d="M866.468 1544.91 L874.107 1544.91 L874.107 1518.55 L865.797 1520.21 L865.797 1515.95 L874.06 1514.29 L878.736 1514.29 L878.736 1544.91 L886.375 1544.91 L886.375 1548.85 L866.468 1548.85 L866.468 1544.91 Z" fill="#000000" fill-rule="evenodd" fill-opacity="1" /><path clip-path="url(#clip580)" d="M895.82 1542.97 L900.704 1542.97 L900.704 1548.85 L895.82 1548.85 L895.82 1542.97 Z" fill="#000000" fill-rule="evenodd" fill-opacity="1" /><path clip-path="url(#clip580)" d="M920.889 1517.37 Q917.278 1517.37 915.449 1520.93 Q913.644 1524.47 913.644 1531.6 Q913.644 1538.71 915.449 1542.27 Q917.278 1545.82 920.889 1545.82 Q924.523 1545.82 926.329 1542.27 Q928.157 1538.71 928.157 1531.6 Q928.157 1524.47 926.329 1520.93 Q924.523 1517.37 920.889 1517.37 M920.889 1513.66 Q926.699 1513.66 929.755 1518.27 Q932.833 1522.85 932.833 1531.6 Q932.833 1540.33 929.755 1544.94 Q926.699 1549.52 920.889 1549.52 Q915.079 1549.52 912 1544.94 Q908.945 1540.33 908.945 1531.6 Q908.945 1522.85 912 1518.27 Q915.079 1513.66 920.889 1513.66 Z" fill="#000000" fill-rule="evenodd" fill-opacity="1" /><path clip-path="url(#clip580)" d="M1036.68 1544.91 L1044.32 1544.91 L1044.32 1518.55 L1036.01 1520.21 L1036.01 1515.95 L1044.27 1514.29 L1048.95 1514.29 L1048.95 1544.91 L1056.59 1544.91 L1056.59 1548.85 L1036.68 1548.85 L1036.68 1544.91 Z" fill="#000000" fill-rule="evenodd" fill-opacity="1" /><path clip-path="url(#clip580)" d="M1066.03 1542.97 L1070.91 1542.97 L1070.91 1548.85 L1066.03 1548.85 L1066.03 1542.97 Z" fill="#000000" fill-rule="evenodd" fill-opacity="1" /><path clip-path="url(#clip580)" d="M1081.15 1514.29 L1099.5 1514.29 L1099.5 1518.22 L1085.43 1518.22 L1085.43 1526.7 Q1086.45 1526.35 1087.47 1526.19 Q1088.48 1526 1089.5 1526 Q1095.29 1526 1098.67 1529.17 Q1102.05 1532.34 1102.05 1537.76 Q1102.05 1543.34 1098.58 1546.44 Q1095.1 1549.52 1088.78 1549.52 Q1086.61 1549.52 1084.34 1549.15 Q1082.09 1548.78 1079.69 1548.04 L1079.69 1543.34 Q1081.77 1544.47 1083.99 1545.03 Q1086.22 1545.58 1088.69 1545.58 Q1092.7 1545.58 1095.03 1543.48 Q1097.37 1541.37 1097.37 1537.76 Q1097.37 1534.15 1095.03 1532.04 Q1092.7 1529.94 1088.69 1529.94 Q1086.82 1529.94 1084.94 1530.35 Q1083.09 1530.77 1081.15 1531.65 L1081.15 1514.29 Z" fill="#000000" fill-rule="evenodd" fill-opacity="1" /><polyline clip-path="url(#clip582)" style="stroke:#000000; stroke-linecap:butt; stroke-linejoin:round; stroke-width:2; stroke-opacity:0.1; fill:none" points="
  193.936,1418.75 1152.76,1418.75 
  "/>
<polyline clip-path="url(#clip582)" style="stroke:#000000; stroke-linecap:butt; stroke-linejoin:round; stroke-width:2; stroke-opacity:0.1; fill:none" points="
  193.936,1079.33 1152.76,1079.33 
  "/>
<polyline clip-path="url(#clip582)" style="stroke:#000000; stroke-linecap:butt; stroke-linejoin:round; stroke-width:2; stroke-opacity:0.1; fill:none" points="
  193.936,739.902 1152.76,739.902 
  "/>
<polyline clip-path="url(#clip582)" style="stroke:#000000; stroke-linecap:butt; stroke-linejoin:round; stroke-width:2; stroke-opacity:0.1; fill:none" points="
  193.936,400.476 1152.76,400.476 
  "/>
<polyline clip-path="url(#clip582)" style="stroke:#000000; stroke-linecap:butt; stroke-linejoin:round; stroke-width:2; stroke-opacity:0.1; fill:none" points="
  193.936,61.0508 1152.76,61.0508 
  "/>
<polyline clip-path="url(#clip580)" style="stroke:#000000; stroke-linecap:butt; stroke-linejoin:round; stroke-width:4; stroke-opacity:1; fill:none" points="
  193.936,1486.45 193.936,47.2441 
  "/>
<polyline clip-path="url(#clip580)" style="stroke:#000000; stroke-linecap:butt; stroke-linejoin:round; stroke-width:4; stroke-opacity:1; fill:none" points="
  193.936,1418.75 212.834,1418.75 
  "/>
<polyline clip-path="url(#clip580)" style="stroke:#000000; stroke-linecap:butt; stroke-linejoin:round; stroke-width:4; stroke-opacity:1; fill:none" points="
  193.936,1079.33 212.834,1079.33 
  "/>
<polyline clip-path="url(#clip580)" style="stroke:#000000; stroke-linecap:butt; stroke-linejoin:round; stroke-width:4; stroke-opacity:1; fill:none" points="
  193.936,739.902 212.834,739.902 
  "/>
<polyline clip-path="url(#clip580)" style="stroke:#000000; stroke-linecap:butt; stroke-linejoin:round; stroke-width:4; stroke-opacity:1; fill:none" points="
  193.936,400.476 212.834,400.476 
  "/>
<polyline clip-path="url(#clip580)" style="stroke:#000000; stroke-linecap:butt; stroke-linejoin:round; stroke-width:4; stroke-opacity:1; fill:none" points="
  193.936,61.0508 212.834,61.0508 
  "/>
<path clip-path="url(#clip580)" d="M97.8206 1419.2 L127.496 1419.2 L127.496 1423.14 L97.8206 1423.14 L97.8206 1419.2 Z" fill="#000000" fill-rule="evenodd" fill-opacity="1" /><path clip-path="url(#clip580)" d="M141.617 1432.1 L157.936 1432.1 L157.936 1436.03 L135.992 1436.03 L135.992 1432.1 Q138.654 1429.34 143.237 1424.71 Q147.843 1420.06 149.024 1418.72 Q151.269 1416.19 152.149 1414.46 Q153.052 1412.7 153.052 1411.01 Q153.052 1408.25 151.107 1406.52 Q149.186 1404.78 146.084 1404.78 Q143.885 1404.78 141.431 1405.55 Q139.001 1406.31 136.223 1407.86 L136.223 1403.14 Q139.047 1402 141.501 1401.43 Q143.955 1400.85 145.992 1400.85 Q151.362 1400.85 154.556 1403.53 Q157.751 1406.22 157.751 1410.71 Q157.751 1412.84 156.941 1414.76 Q156.154 1416.66 154.047 1419.25 Q153.468 1419.92 150.367 1423.14 Q147.265 1426.33 141.617 1432.1 Z" fill="#000000" fill-rule="evenodd" fill-opacity="1" /><path clip-path="url(#clip580)" d="M97.4502 1079.78 L127.126 1079.78 L127.126 1083.71 L97.4502 1083.71 L97.4502 1079.78 Z" fill="#000000" fill-rule="evenodd" fill-opacity="1" /><path clip-path="url(#clip580)" d="M138.029 1092.67 L145.668 1092.67 L145.668 1066.31 L137.357 1067.97 L137.357 1063.71 L145.621 1062.05 L150.297 1062.05 L150.297 1092.67 L157.936 1092.67 L157.936 1096.61 L138.029 1096.61 L138.029 1092.67 Z" fill="#000000" fill-rule="evenodd" fill-opacity="1" /><path clip-path="url(#clip580)" d="M145.992 725.7 Q142.381 725.7 140.552 729.265 Q138.746 732.807 138.746 739.936 Q138.746 747.043 140.552 750.608 Q142.381 754.149 145.992 754.149 Q149.626 754.149 151.431 750.608 Q153.26 747.043 153.26 739.936 Q153.26 732.807 151.431 729.265 Q149.626 725.7 145.992 725.7 M145.992 721.997 Q151.802 721.997 154.857 726.603 Q157.936 731.186 157.936 739.936 Q157.936 748.663 154.857 753.27 Q151.802 757.853 145.992 757.853 Q140.181 757.853 137.103 753.27 Q134.047 748.663 134.047 739.936 Q134.047 731.186 137.103 726.603 Q140.181 721.997 145.992 721.997 Z" fill="#000000" fill-rule="evenodd" fill-opacity="1" /><path clip-path="url(#clip580)" d="M138.029 413.821 L145.668 413.821 L145.668 387.455 L137.357 389.122 L137.357 384.863 L145.621 383.196 L150.297 383.196 L150.297 413.821 L157.936 413.821 L157.936 417.756 L138.029 417.756 L138.029 413.821 Z" fill="#000000" fill-rule="evenodd" fill-opacity="1" /><path clip-path="url(#clip580)" d="M141.617 74.3956 L157.936 74.3956 L157.936 78.3308 L135.992 78.3308 L135.992 74.3956 Q138.654 71.641 143.237 67.0114 Q147.843 62.3586 149.024 61.0161 Q151.269 58.4929 152.149 56.7568 Q153.052 54.9976 153.052 53.3078 Q153.052 50.5532 151.107 48.817 Q149.186 47.0809 146.084 47.0809 Q143.885 47.0809 141.431 47.8448 Q139.001 48.6087 136.223 50.1596 L136.223 45.4374 Q139.047 44.3032 141.501 43.7245 Q143.955 43.1458 145.992 43.1458 Q151.362 43.1458 154.556 45.831 Q157.751 48.5161 157.751 53.0068 Q157.751 55.1365 156.941 57.0577 Q156.154 58.9559 154.047 61.5485 Q153.468 62.2198 150.367 65.4373 Q147.265 68.6318 141.617 74.3956 Z" fill="#000000" fill-rule="evenodd" fill-opacity="1" /><circle clip-path="url(#clip582)" cx="899.315" cy="739.902" r="14" fill="#009af9" fill-rule="evenodd" fill-opacity="1" stroke="#000000" stroke-opacity="1" stroke-width="3.2"/>
<circle clip-path="url(#clip582)" cx="998.294" cy="683.376" r="14" fill="#009af9" fill-rule="evenodd" fill-opacity="1" stroke="#000000" stroke-opacity="1" stroke-width="3.2"/>
<circle clip-path="url(#clip582)" cx="1076.25" cy="604.497" r="14" fill="#009af9" fill-rule="evenodd" fill-opacity="1" stroke="#000000" stroke-opacity="1" stroke-width="3.2"/>
<circle clip-path="url(#clip582)" cx="1120.91" cy="512.77" r="14" fill="#009af9" fill-rule="evenodd" fill-opacity="1" stroke="#000000" stroke-opacity="1" stroke-width="3.2"/>
<circle clip-path="url(#clip582)" cx="1125.62" cy="421.288" r="14" fill="#009af9" fill-rule="evenodd" fill-opacity="1" stroke="#000000" stroke-opacity="1" stroke-width="3.2"/>
<circle clip-path="url(#clip582)" cx="1090.49" cy="343.905" r="14" fill="#009af9" fill-rule="evenodd" fill-opacity="1" stroke="#000000" stroke-opacity="1" stroke-width="3.2"/>
<circle clip-path="url(#clip582)" cx="1022.14" cy="292.241" r="14" fill="#009af9" fill-rule="evenodd" fill-opacity="1" stroke="#000000" stroke-opacity="1" stroke-width="3.2"/>
<circle clip-path="url(#clip582)" cx="932.04" cy="273.24" r="14" fill="#009af9" fill-rule="evenodd" fill-opacity="1" stroke="#000000" stroke-opacity="1" stroke-width="3.2"/>
<circle clip-path="url(#clip582)" cx="833.956" cy="287.801" r="14" fill="#009af9" fill-rule="evenodd" fill-opacity="1" stroke="#000000" stroke-opacity="1" stroke-width="3.2"/>
<circle clip-path="url(#clip582)" cx="740.991" cy="330.789" r="14" fill="#009af9" fill-rule="evenodd" fill-opacity="1" stroke="#000000" stroke-opacity="1" stroke-width="3.2"/>
<circle clip-path="url(#clip582)" cx="663.035" cy="392.369" r="14" fill="#009af9" fill-rule="evenodd" fill-opacity="1" stroke="#000000" stroke-opacity="1" stroke-width="3.2"/>
<circle clip-path="url(#clip582)" cx="605.092" cy="460.307" r="14" fill="#009af9" fill-rule="evenodd" fill-opacity="1" stroke="#000000" stroke-opacity="1" stroke-width="3.2"/>
<circle clip-path="url(#clip582)" cx="566.855" cy="522.682" r="14" fill="#009af9" fill-rule="evenodd" fill-opacity="1" stroke="#000000" stroke-opacity="1" stroke-width="3.2"/>
<circle clip-path="url(#clip582)" cx="543.533" cy="570.352" r="14" fill="#009af9" fill-rule="evenodd" fill-opacity="1" stroke="#000000" stroke-opacity="1" stroke-width="3.2"/>
<circle clip-path="url(#clip582)" cx="527.643" cy="598.622" r="14" fill="#009af9" fill-rule="evenodd" fill-opacity="1" stroke="#000000" stroke-opacity="1" stroke-width="3.2"/>
<circle clip-path="url(#clip582)" cx="511.267" cy="607.779" r="14" fill="#009af9" fill-rule="evenodd" fill-opacity="1" stroke="#000000" stroke-opacity="1" stroke-width="3.2"/>
<circle clip-path="url(#clip582)" cx="488.182" cy="602.451" r="14" fill="#009af9" fill-rule="evenodd" fill-opacity="1" stroke="#000000" stroke-opacity="1" stroke-width="3.2"/>
<circle clip-path="url(#clip582)" cx="455.341" cy="590.023" r="14" fill="#009af9" fill-rule="evenodd" fill-opacity="1" stroke="#000000" stroke-opacity="1" stroke-width="3.2"/>
<circle clip-path="url(#clip582)" cx="413.384" cy="578.583" r="14" fill="#009af9" fill-rule="evenodd" fill-opacity="1" stroke="#000000" stroke-opacity="1" stroke-width="3.2"/>
<circle clip-path="url(#clip582)" cx="366.114" cy="574.938" r="14" fill="#009af9" fill-rule="evenodd" fill-opacity="1" stroke="#000000" stroke-opacity="1" stroke-width="3.2"/>
<circle clip-path="url(#clip582)" cx="319.165" cy="583.207" r="14" fill="#009af9" fill-rule="evenodd" fill-opacity="1" stroke="#000000" stroke-opacity="1" stroke-width="3.2"/>
<circle clip-path="url(#clip582)" cx="278.276" cy="604.284" r="14" fill="#009af9" fill-rule="evenodd" fill-opacity="1" stroke="#000000" stroke-opacity="1" stroke-width="3.2"/>
<circle clip-path="url(#clip582)" cx="247.677" cy="636.24" r="14" fill="#009af9" fill-rule="evenodd" fill-opacity="1" stroke="#000000" stroke-opacity="1" stroke-width="3.2"/>
<circle clip-path="url(#clip582)" cx="229.038" cy="675.468" r="14" fill="#009af9" fill-rule="evenodd" fill-opacity="1" stroke="#000000" stroke-opacity="1" stroke-width="3.2"/>
<circle clip-path="url(#clip582)" cx="221.25" cy="718.16" r="14" fill="#009af9" fill-rule="evenodd" fill-opacity="1" stroke="#000000" stroke-opacity="1" stroke-width="3.2"/>
<circle clip-path="url(#clip582)" cx="221.072" cy="761.654" r="14" fill="#009af9" fill-rule="evenodd" fill-opacity="1" stroke="#000000" stroke-opacity="1" stroke-width="3.2"/>
<circle clip-path="url(#clip582)" cx="224.409" cy="805.236" r="14" fill="#009af9" fill-rule="evenodd" fill-opacity="1" stroke="#000000" stroke-opacity="1" stroke-width="3.2"/>
<circle clip-path="url(#clip582)" cx="227.835" cy="850.151" r="14" fill="#009af9" fill-rule="evenodd" fill-opacity="1" stroke="#000000" stroke-opacity="1" stroke-width="3.2"/>
<circle clip-path="url(#clip582)" cx="229.88" cy="898.826" r="14" fill="#009af9" fill-rule="evenodd" fill-opacity="1" stroke="#000000" stroke-opacity="1" stroke-width="3.2"/>
<circle clip-path="url(#clip582)" cx="231.677" cy="953.544" r="14" fill="#009af9" fill-rule="evenodd" fill-opacity="1" stroke="#000000" stroke-opacity="1" stroke-width="3.2"/>
<circle clip-path="url(#clip582)" cx="236.757" cy="1014.99" r="14" fill="#009af9" fill-rule="evenodd" fill-opacity="1" stroke="#000000" stroke-opacity="1" stroke-width="3.2"/>
<circle clip-path="url(#clip582)" cx="250.003" cy="1081.12" r="14" fill="#009af9" fill-rule="evenodd" fill-opacity="1" stroke="#000000" stroke-opacity="1" stroke-width="3.2"/>
<circle clip-path="url(#clip582)" cx="276.056" cy="1146.8" r="14" fill="#009af9" fill-rule="evenodd" fill-opacity="1" stroke="#000000" stroke-opacity="1" stroke-width="3.2"/>
<circle clip-path="url(#clip582)" cx="317.603" cy="1204.32" r="14" fill="#009af9" fill-rule="evenodd" fill-opacity="1" stroke="#000000" stroke-opacity="1" stroke-width="3.2"/>
<circle clip-path="url(#clip582)" cx="374.061" cy="1244.86" r="14" fill="#009af9" fill-rule="evenodd" fill-opacity="1" stroke="#000000" stroke-opacity="1" stroke-width="3.2"/>
<circle clip-path="url(#clip582)" cx="441.077" cy="1260.45" r="14" fill="#009af9" fill-rule="evenodd" fill-opacity="1" stroke="#000000" stroke-opacity="1" stroke-width="3.2"/>
<circle clip-path="url(#clip582)" cx="511.06" cy="1246.07" r="14" fill="#009af9" fill-rule="evenodd" fill-opacity="1" stroke="#000000" stroke-opacity="1" stroke-width="3.2"/>
<circle clip-path="url(#clip582)" cx="574.682" cy="1201.18" r="14" fill="#009af9" fill-rule="evenodd" fill-opacity="1" stroke="#000000" stroke-opacity="1" stroke-width="3.2"/>
<circle clip-path="url(#clip582)" cx="623.031" cy="1130.46" r="14" fill="#009af9" fill-rule="evenodd" fill-opacity="1" stroke="#000000" stroke-opacity="1" stroke-width="3.2"/>
<circle clip-path="url(#clip582)" cx="649.895" cy="1043.16" r="14" fill="#009af9" fill-rule="evenodd" fill-opacity="1" stroke="#000000" stroke-opacity="1" stroke-width="3.2"/>
<circle clip-path="url(#clip582)" cx="653.575" cy="951.539" r="14" fill="#009af9" fill-rule="evenodd" fill-opacity="1" stroke="#000000" stroke-opacity="1" stroke-width="3.2"/>
<circle clip-path="url(#clip582)" cx="637.734" cy="868.315" r="14" fill="#009af9" fill-rule="evenodd" fill-opacity="1" stroke="#000000" stroke-opacity="1" stroke-width="3.2"/>
<circle clip-path="url(#clip582)" cx="610.996" cy="803.987" r="14" fill="#009af9" fill-rule="evenodd" fill-opacity="1" stroke="#000000" stroke-opacity="1" stroke-width="3.2"/>
<circle clip-path="url(#clip582)" cx="585.295" cy="764.506" r="14" fill="#009af9" fill-rule="evenodd" fill-opacity="1" stroke="#000000" stroke-opacity="1" stroke-width="3.2"/>
<circle clip-path="url(#clip582)" cx="573.331" cy="749.933" r="14" fill="#009af9" fill-rule="evenodd" fill-opacity="1" stroke="#000000" stroke-opacity="1" stroke-width="3.2"/>
<circle clip-path="url(#clip582)" cx="585.655" cy="754.413" r="14" fill="#009af9" fill-rule="evenodd" fill-opacity="1" stroke="#000000" stroke-opacity="1" stroke-width="3.2"/>
<circle clip-path="url(#clip582)" cx="628.107" cy="767.52" r="14" fill="#009af9" fill-rule="evenodd" fill-opacity="1" stroke="#000000" stroke-opacity="1" stroke-width="3.2"/>
<circle clip-path="url(#clip582)" cx="700.181" cy="776.691" r="14" fill="#009af9" fill-rule="evenodd" fill-opacity="1" stroke="#000000" stroke-opacity="1" stroke-width="3.2"/>
<circle clip-path="url(#clip582)" cx="794.763" cy="770.185" r="14" fill="#009af9" fill-rule="evenodd" fill-opacity="1" stroke="#000000" stroke-opacity="1" stroke-width="3.2"/>
<circle clip-path="url(#clip582)" cx="899.315" cy="739.902" r="14" fill="#009af9" fill-rule="evenodd" fill-opacity="1" stroke="#000000" stroke-opacity="1" stroke-width="3.2"/>
<circle clip-path="url(#clip582)" cx="816.027" cy="739.902" r="14" fill="#e26f46" fill-rule="evenodd" fill-opacity="1" stroke="#000000" stroke-opacity="1" stroke-width="3.2"/>
<circle clip-path="url(#clip582)" cx="890.719" cy="729.418" r="14" fill="#e26f46" fill-rule="evenodd" fill-opacity="1" stroke="#000000" stroke-opacity="1" stroke-width="3.2"/>
<circle clip-path="url(#clip582)" cx="949.543" cy="714.789" r="14" fill="#e26f46" fill-rule="evenodd" fill-opacity="1" stroke="#000000" stroke-opacity="1" stroke-width="3.2"/>
<circle clip-path="url(#clip582)" cx="983.248" cy="697.777" r="14" fill="#e26f46" fill-rule="evenodd" fill-opacity="1" stroke="#000000" stroke-opacity="1" stroke-width="3.2"/>
<circle clip-path="url(#clip582)" cx="986.801" cy="680.81" r="14" fill="#e26f46" fill-rule="evenodd" fill-opacity="1" stroke="#000000" stroke-opacity="1" stroke-width="3.2"/>
<circle clip-path="url(#clip582)" cx="960.291" cy="666.458" r="14" fill="#e26f46" fill-rule="evenodd" fill-opacity="1" stroke="#000000" stroke-opacity="1" stroke-width="3.2"/>
<circle clip-path="url(#clip582)" cx="908.71" cy="656.876" r="14" fill="#e26f46" fill-rule="evenodd" fill-opacity="1" stroke="#000000" stroke-opacity="1" stroke-width="3.2"/>
<circle clip-path="url(#clip582)" cx="840.722" cy="653.352" r="14" fill="#e26f46" fill-rule="evenodd" fill-opacity="1" stroke="#000000" stroke-opacity="1" stroke-width="3.2"/>
<circle clip-path="url(#clip582)" cx="766.706" cy="656.053" r="14" fill="#e26f46" fill-rule="evenodd" fill-opacity="1" stroke="#000000" stroke-opacity="1" stroke-width="3.2"/>
<circle clip-path="url(#clip582)" cx="696.553" cy="664.025" r="14" fill="#e26f46" fill-rule="evenodd" fill-opacity="1" stroke="#000000" stroke-opacity="1" stroke-width="3.2"/>
<circle clip-path="url(#clip582)" cx="637.726" cy="675.446" r="14" fill="#e26f46" fill-rule="evenodd" fill-opacity="1" stroke="#000000" stroke-opacity="1" stroke-width="3.2"/>
<circle clip-path="url(#clip582)" cx="594" cy="688.047" r="14" fill="#e26f46" fill-rule="evenodd" fill-opacity="1" stroke="#000000" stroke-opacity="1" stroke-width="3.2"/>
<circle clip-path="url(#clip582)" cx="565.146" cy="699.615" r="14" fill="#e26f46" fill-rule="evenodd" fill-opacity="1" stroke="#000000" stroke-opacity="1" stroke-width="3.2"/>
<circle clip-path="url(#clip582)" cx="547.547" cy="708.456" r="14" fill="#e26f46" fill-rule="evenodd" fill-opacity="1" stroke="#000000" stroke-opacity="1" stroke-width="3.2"/>
<circle clip-path="url(#clip582)" cx="535.556" cy="713.699" r="14" fill="#e26f46" fill-rule="evenodd" fill-opacity="1" stroke="#000000" stroke-opacity="1" stroke-width="3.2"/>
<circle clip-path="url(#clip582)" cx="523.198" cy="715.397" r="14" fill="#e26f46" fill-rule="evenodd" fill-opacity="1" stroke="#000000" stroke-opacity="1" stroke-width="3.2"/>
<circle clip-path="url(#clip582)" cx="505.777" cy="714.409" r="14" fill="#e26f46" fill-rule="evenodd" fill-opacity="1" stroke="#000000" stroke-opacity="1" stroke-width="3.2"/>
<circle clip-path="url(#clip582)" cx="480.995" cy="712.104" r="14" fill="#e26f46" fill-rule="evenodd" fill-opacity="1" stroke="#000000" stroke-opacity="1" stroke-width="3.2"/>
<circle clip-path="url(#clip582)" cx="449.333" cy="709.983" r="14" fill="#e26f46" fill-rule="evenodd" fill-opacity="1" stroke="#000000" stroke-opacity="1" stroke-width="3.2"/>
<circle clip-path="url(#clip582)" cx="413.662" cy="709.307" r="14" fill="#e26f46" fill-rule="evenodd" fill-opacity="1" stroke="#000000" stroke-opacity="1" stroke-width="3.2"/>
<circle clip-path="url(#clip582)" cx="378.234" cy="710.84" r="14" fill="#e26f46" fill-rule="evenodd" fill-opacity="1" stroke="#000000" stroke-opacity="1" stroke-width="3.2"/>
<circle clip-path="url(#clip582)" cx="347.378" cy="714.749" r="14" fill="#e26f46" fill-rule="evenodd" fill-opacity="1" stroke="#000000" stroke-opacity="1" stroke-width="3.2"/>
<circle clip-path="url(#clip582)" cx="324.287" cy="720.676" r="14" fill="#e26f46" fill-rule="evenodd" fill-opacity="1" stroke="#000000" stroke-opacity="1" stroke-width="3.2"/>
<circle clip-path="url(#clip582)" cx="310.222" cy="727.952" r="14" fill="#e26f46" fill-rule="evenodd" fill-opacity="1" stroke="#000000" stroke-opacity="1" stroke-width="3.2"/>
<circle clip-path="url(#clip582)" cx="304.345" cy="735.869" r="14" fill="#e26f46" fill-rule="evenodd" fill-opacity="1" stroke="#000000" stroke-opacity="1" stroke-width="3.2"/>
<circle clip-path="url(#clip582)" cx="304.211" cy="743.936" r="14" fill="#e26f46" fill-rule="evenodd" fill-opacity="1" stroke="#000000" stroke-opacity="1" stroke-width="3.2"/>
<circle clip-path="url(#clip582)" cx="306.729" cy="752.019" r="14" fill="#e26f46" fill-rule="evenodd" fill-opacity="1" stroke="#000000" stroke-opacity="1" stroke-width="3.2"/>
<circle clip-path="url(#clip582)" cx="309.314" cy="760.349" r="14" fill="#e26f46" fill-rule="evenodd" fill-opacity="1" stroke="#000000" stroke-opacity="1" stroke-width="3.2"/>
<circle clip-path="url(#clip582)" cx="310.857" cy="769.377" r="14" fill="#e26f46" fill-rule="evenodd" fill-opacity="1" stroke="#000000" stroke-opacity="1" stroke-width="3.2"/>
<circle clip-path="url(#clip582)" cx="312.213" cy="779.525" r="14" fill="#e26f46" fill-rule="evenodd" fill-opacity="1" stroke="#000000" stroke-opacity="1" stroke-width="3.2"/>
<circle clip-path="url(#clip582)" cx="316.047" cy="790.921" r="14" fill="#e26f46" fill-rule="evenodd" fill-opacity="1" stroke="#000000" stroke-opacity="1" stroke-width="3.2"/>
<circle clip-path="url(#clip582)" cx="326.043" cy="803.186" r="14" fill="#e26f46" fill-rule="evenodd" fill-opacity="1" stroke="#000000" stroke-opacity="1" stroke-width="3.2"/>
<circle clip-path="url(#clip582)" cx="345.703" cy="815.367" r="14" fill="#e26f46" fill-rule="evenodd" fill-opacity="1" stroke="#000000" stroke-opacity="1" stroke-width="3.2"/>
<circle clip-path="url(#clip582)" cx="377.055" cy="826.035" r="14" fill="#e26f46" fill-rule="evenodd" fill-opacity="1" stroke="#000000" stroke-opacity="1" stroke-width="3.2"/>
<circle clip-path="url(#clip582)" cx="419.659" cy="833.554" r="14" fill="#e26f46" fill-rule="evenodd" fill-opacity="1" stroke="#000000" stroke-opacity="1" stroke-width="3.2"/>
<circle clip-path="url(#clip582)" cx="470.231" cy="836.446" r="14" fill="#e26f46" fill-rule="evenodd" fill-opacity="1" stroke="#000000" stroke-opacity="1" stroke-width="3.2"/>
<circle clip-path="url(#clip582)" cx="523.042" cy="833.778" r="14" fill="#e26f46" fill-rule="evenodd" fill-opacity="1" stroke="#000000" stroke-opacity="1" stroke-width="3.2"/>
<circle clip-path="url(#clip582)" cx="571.052" cy="825.454" r="14" fill="#e26f46" fill-rule="evenodd" fill-opacity="1" stroke="#000000" stroke-opacity="1" stroke-width="3.2"/>
<circle clip-path="url(#clip582)" cx="607.538" cy="812.336" r="14" fill="#e26f46" fill-rule="evenodd" fill-opacity="1" stroke="#000000" stroke-opacity="1" stroke-width="3.2"/>
<circle clip-path="url(#clip582)" cx="627.81" cy="796.146" r="14" fill="#e26f46" fill-rule="evenodd" fill-opacity="1" stroke="#000000" stroke-opacity="1" stroke-width="3.2"/>
<circle clip-path="url(#clip582)" cx="630.587" cy="779.153" r="14" fill="#e26f46" fill-rule="evenodd" fill-opacity="1" stroke="#000000" stroke-opacity="1" stroke-width="3.2"/>
<circle clip-path="url(#clip582)" cx="618.633" cy="763.718" r="14" fill="#e26f46" fill-rule="evenodd" fill-opacity="1" stroke="#000000" stroke-opacity="1" stroke-width="3.2"/>
<circle clip-path="url(#clip582)" cx="598.455" cy="751.787" r="14" fill="#e26f46" fill-rule="evenodd" fill-opacity="1" stroke="#000000" stroke-opacity="1" stroke-width="3.2"/>
<circle clip-path="url(#clip582)" cx="579.061" cy="744.465" r="14" fill="#e26f46" fill-rule="evenodd" fill-opacity="1" stroke="#000000" stroke-opacity="1" stroke-width="3.2"/>
<circle clip-path="url(#clip582)" cx="570.032" cy="741.762" r="14" fill="#e26f46" fill-rule="evenodd" fill-opacity="1" stroke="#000000" stroke-opacity="1" stroke-width="3.2"/>
<circle clip-path="url(#clip582)" cx="579.333" cy="742.593" r="14" fill="#e26f46" fill-rule="evenodd" fill-opacity="1" stroke="#000000" stroke-opacity="1" stroke-width="3.2"/>
<circle clip-path="url(#clip582)" cx="611.368" cy="745.024" r="14" fill="#e26f46" fill-rule="evenodd" fill-opacity="1" stroke="#000000" stroke-opacity="1" stroke-width="3.2"/>
<circle clip-path="url(#clip582)" cx="665.757" cy="746.725" r="14" fill="#e26f46" fill-rule="evenodd" fill-opacity="1" stroke="#000000" stroke-opacity="1" stroke-width="3.2"/>
<circle clip-path="url(#clip582)" cx="737.13" cy="745.518" r="14" fill="#e26f46" fill-rule="evenodd" fill-opacity="1" stroke="#000000" stroke-opacity="1" stroke-width="3.2"/>
<circle clip-path="url(#clip582)" cx="816.027" cy="739.902" r="14" fill="#e26f46" fill-rule="evenodd" fill-opacity="1" stroke="#000000" stroke-opacity="1" stroke-width="3.2"/>
<path clip-path="url(#clip580)" d="
M903.427 328.498 L1120.8 328.498 L1120.8 95.2176 L903.427 95.2176  Z
  " fill="#ffffff" fill-rule="evenodd" fill-opacity="1"/>
<polyline clip-path="url(#clip580)" style="stroke:#000000; stroke-linecap:butt; stroke-linejoin:round; stroke-width:4; stroke-opacity:1; fill:none" points="
  903.427,328.498 1120.8,328.498 1120.8,95.2176 903.427,95.2176 903.427,328.498 
  "/>
<circle clip-path="url(#clip580)" cx="946.041" cy="172.978" r="34" fill="#009af9" fill-rule="evenodd" fill-opacity="1" stroke="#000000" stroke-opacity="1" stroke-width="7.68"/>
<path clip-path="url(#clip580)" d="M988.655 160.009 L995.044 160.009 L995.044 198.898 L988.655 198.898 L988.655 160.009 M988.655 144.87 L995.044 144.87 L995.044 152.96 L988.655 152.96 L988.655 144.87 Z" fill="#000000" fill-rule="evenodd" fill-opacity="1" /><path clip-path="url(#clip580)" d="M1040.74 175.425 L1040.74 198.898 L1034.35 198.898 L1034.35 175.634 Q1034.35 170.113 1032.2 167.37 Q1030.04 164.627 1025.74 164.627 Q1020.56 164.627 1017.58 167.925 Q1014.59 171.224 1014.59 176.919 L1014.59 198.898 L1008.17 198.898 L1008.17 160.009 L1014.59 160.009 L1014.59 166.051 Q1016.88 162.544 1019.97 160.807 Q1023.1 159.071 1027.16 159.071 Q1033.86 159.071 1037.3 163.238 Q1040.74 167.37 1040.74 175.425 Z" fill="#000000" fill-rule="evenodd" fill-opacity="1" /><circle clip-path="url(#clip580)" cx="946.041" cy="250.738" r="34" fill="#e26f46" fill-rule="evenodd" fill-opacity="1" stroke="#000000" stroke-opacity="1" stroke-width="7.68"/>
<path clip-path="url(#clip580)" d="M1006.5 242.248 Q1001.36 242.248 998.378 246.276 Q995.391 250.269 995.391 257.248 Q995.391 264.227 998.343 268.255 Q1001.33 272.248 1006.5 272.248 Q1011.61 272.248 1014.59 268.22 Q1017.58 264.192 1017.58 257.248 Q1017.58 250.338 1014.59 246.31 Q1011.61 242.248 1006.5 242.248 M1006.5 236.831 Q1014.84 236.831 1019.59 242.248 Q1024.35 247.665 1024.35 257.248 Q1024.35 266.796 1019.59 272.248 Q1014.84 277.664 1006.5 277.664 Q998.135 277.664 993.378 272.248 Q988.655 266.796 988.655 257.248 Q988.655 247.665 993.378 242.248 Q998.135 236.831 1006.5 236.831 Z" fill="#000000" fill-rule="evenodd" fill-opacity="1" /><path clip-path="url(#clip580)" d="M1034.28 261.31 L1034.28 237.769 L1040.67 237.769 L1040.67 261.067 Q1040.67 266.588 1042.82 269.366 Q1044.97 272.109 1049.28 272.109 Q1054.45 272.109 1057.44 268.81 Q1060.46 265.512 1060.46 259.817 L1060.46 237.769 L1066.85 237.769 L1066.85 276.658 L1060.46 276.658 L1060.46 270.685 Q1058.13 274.227 1055.04 275.963 Q1051.99 277.664 1047.93 277.664 Q1041.22 277.664 1037.75 273.498 Q1034.28 269.331 1034.28 261.31 M1050.36 236.831 L1050.36 236.831 Z" fill="#000000" fill-rule="evenodd" fill-opacity="1" /><path clip-path="url(#clip580)" d="M1086.33 226.727 L1086.33 237.769 L1099.49 237.769 L1099.49 242.734 L1086.33 242.734 L1086.33 263.845 Q1086.33 268.602 1087.61 269.956 Q1088.93 271.31 1092.93 271.31 L1099.49 271.31 L1099.49 276.658 L1092.93 276.658 Q1085.53 276.658 1082.72 273.915 Q1079.9 271.137 1079.9 263.845 L1079.9 242.734 L1075.22 242.734 L1075.22 237.769 L1079.9 237.769 L1079.9 226.727 L1086.33 226.727 Z" fill="#000000" fill-rule="evenodd" fill-opacity="1" /><path clip-path="url(#clip580)" d="
M1393.94 1486.45 L2352.76 1486.45 L2352.76 47.2441 L1393.94 47.2441  Z
  " fill="#ffffff" fill-rule="evenodd" fill-opacity="1"/>
<defs>
  <clipPath id="clip583">
    <rect x="1393" y="47" width="960" height="1440"/>
  </clipPath>
</defs>
<polyline clip-path="url(#clip583)" style="stroke:#000000; stroke-linecap:butt; stroke-linejoin:round; stroke-width:2; stroke-opacity:0.1; fill:none" points="
  1420.14,1486.45 1420.14,47.2441 
  "/>
<polyline clip-path="url(#clip583)" style="stroke:#000000; stroke-linecap:butt; stroke-linejoin:round; stroke-width:2; stroke-opacity:0.1; fill:none" points="
  1646.51,1486.45 1646.51,47.2441 
  "/>
<polyline clip-path="url(#clip583)" style="stroke:#000000; stroke-linecap:butt; stroke-linejoin:round; stroke-width:2; stroke-opacity:0.1; fill:none" points="
  1872.88,1486.45 1872.88,47.2441 
  "/>
<polyline clip-path="url(#clip583)" style="stroke:#000000; stroke-linecap:butt; stroke-linejoin:round; stroke-width:2; stroke-opacity:0.1; fill:none" points="
  2099.25,1486.45 2099.25,47.2441 
  "/>
<polyline clip-path="url(#clip583)" style="stroke:#000000; stroke-linecap:butt; stroke-linejoin:round; stroke-width:2; stroke-opacity:0.1; fill:none" points="
  2325.62,1486.45 2325.62,47.2441 
  "/>
<polyline clip-path="url(#clip580)" style="stroke:#000000; stroke-linecap:butt; stroke-linejoin:round; stroke-width:4; stroke-opacity:1; fill:none" points="
  1393.94,1486.45 2352.76,1486.45 
  "/>
<polyline clip-path="url(#clip580)" style="stroke:#000000; stroke-linecap:butt; stroke-linejoin:round; stroke-width:4; stroke-opacity:1; fill:none" points="
  1420.14,1486.45 1420.14,1467.55 
  "/>
<polyline clip-path="url(#clip580)" style="stroke:#000000; stroke-linecap:butt; stroke-linejoin:round; stroke-width:4; stroke-opacity:1; fill:none" points="
  1646.51,1486.45 1646.51,1467.55 
  "/>
<polyline clip-path="url(#clip580)" style="stroke:#000000; stroke-linecap:butt; stroke-linejoin:round; stroke-width:4; stroke-opacity:1; fill:none" points="
  1872.88,1486.45 1872.88,1467.55 
  "/>
<polyline clip-path="url(#clip580)" style="stroke:#000000; stroke-linecap:butt; stroke-linejoin:round; stroke-width:4; stroke-opacity:1; fill:none" points="
  2099.25,1486.45 2099.25,1467.55 
  "/>
<polyline clip-path="url(#clip580)" style="stroke:#000000; stroke-linecap:butt; stroke-linejoin:round; stroke-width:4; stroke-opacity:1; fill:none" points="
  2325.62,1486.45 2325.62,1467.55 
  "/>
<path clip-path="url(#clip580)" d="M1366.67 1532.02 L1396.35 1532.02 L1396.35 1535.95 L1366.67 1535.95 L1366.67 1532.02 Z" fill="#000000" fill-rule="evenodd" fill-opacity="1" /><path clip-path="url(#clip580)" d="M1407.25 1544.91 L1414.89 1544.91 L1414.89 1518.55 L1406.58 1520.21 L1406.58 1515.95 L1414.84 1514.29 L1419.52 1514.29 L1419.52 1544.91 L1427.16 1544.91 L1427.16 1548.85 L1407.25 1548.85 L1407.25 1544.91 Z" fill="#000000" fill-rule="evenodd" fill-opacity="1" /><path clip-path="url(#clip580)" d="M1436.6 1542.97 L1441.48 1542.97 L1441.48 1548.85 L1436.6 1548.85 L1436.6 1542.97 Z" fill="#000000" fill-rule="evenodd" fill-opacity="1" /><path clip-path="url(#clip580)" d="M1461.67 1517.37 Q1458.06 1517.37 1456.23 1520.93 Q1454.42 1524.47 1454.42 1531.6 Q1454.42 1538.71 1456.23 1542.27 Q1458.06 1545.82 1461.67 1545.82 Q1465.3 1545.82 1467.11 1542.27 Q1468.94 1538.71 1468.94 1531.6 Q1468.94 1524.47 1467.11 1520.93 Q1465.3 1517.37 1461.67 1517.37 M1461.67 1513.66 Q1467.48 1513.66 1470.54 1518.27 Q1473.61 1522.85 1473.61 1531.6 Q1473.61 1540.33 1470.54 1544.94 Q1467.48 1549.52 1461.67 1549.52 Q1455.86 1549.52 1452.78 1544.94 Q1449.73 1540.33 1449.73 1531.6 Q1449.73 1522.85 1452.78 1518.27 Q1455.86 1513.66 1461.67 1513.66 Z" fill="#000000" fill-rule="evenodd" fill-opacity="1" /><path clip-path="url(#clip580)" d="M1593.54 1532.02 L1623.21 1532.02 L1623.21 1535.95 L1593.54 1535.95 L1593.54 1532.02 Z" fill="#000000" fill-rule="evenodd" fill-opacity="1" /><path clip-path="url(#clip580)" d="M1643.31 1517.37 Q1639.69 1517.37 1637.87 1520.93 Q1636.06 1524.47 1636.06 1531.6 Q1636.06 1538.71 1637.87 1542.27 Q1639.69 1545.82 1643.31 1545.82 Q1646.94 1545.82 1648.75 1542.27 Q1650.57 1538.71 1650.57 1531.6 Q1650.57 1524.47 1648.75 1520.93 Q1646.94 1517.37 1643.31 1517.37 M1643.31 1513.66 Q1649.12 1513.66 1652.17 1518.27 Q1655.25 1522.85 1655.25 1531.6 Q1655.25 1540.33 1652.17 1544.94 Q1649.12 1549.52 1643.31 1549.52 Q1637.5 1549.52 1634.42 1544.94 Q1631.36 1540.33 1631.36 1531.6 Q1631.36 1522.85 1634.42 1518.27 Q1637.5 1513.66 1643.31 1513.66 Z" fill="#000000" fill-rule="evenodd" fill-opacity="1" /><path clip-path="url(#clip580)" d="M1663.47 1542.97 L1668.35 1542.97 L1668.35 1548.85 L1663.47 1548.85 L1663.47 1542.97 Z" fill="#000000" fill-rule="evenodd" fill-opacity="1" /><path clip-path="url(#clip580)" d="M1678.58 1514.29 L1696.94 1514.29 L1696.94 1518.22 L1682.87 1518.22 L1682.87 1526.7 Q1683.88 1526.35 1684.9 1526.19 Q1685.92 1526 1686.94 1526 Q1692.73 1526 1696.11 1529.17 Q1699.49 1532.34 1699.49 1537.76 Q1699.49 1543.34 1696.01 1546.44 Q1692.54 1549.52 1686.22 1549.52 Q1684.05 1549.52 1681.78 1549.15 Q1679.53 1548.78 1677.12 1548.04 L1677.12 1543.34 Q1679.21 1544.47 1681.43 1545.03 Q1683.65 1545.58 1686.13 1545.58 Q1690.13 1545.58 1692.47 1543.48 Q1694.81 1541.37 1694.81 1537.76 Q1694.81 1534.15 1692.47 1532.04 Q1690.13 1529.94 1686.13 1529.94 Q1684.25 1529.94 1682.38 1530.35 Q1680.53 1530.77 1678.58 1531.65 L1678.58 1514.29 Z" fill="#000000" fill-rule="evenodd" fill-opacity="1" /><path clip-path="url(#clip580)" d="M1850.27 1517.37 Q1846.65 1517.37 1844.83 1520.93 Q1843.02 1524.47 1843.02 1531.6 Q1843.02 1538.71 1844.83 1542.27 Q1846.65 1545.82 1850.27 1545.82 Q1853.9 1545.82 1855.71 1542.27 Q1857.53 1538.71 1857.53 1531.6 Q1857.53 1524.47 1855.71 1520.93 Q1853.9 1517.37 1850.27 1517.37 M1850.27 1513.66 Q1856.08 1513.66 1859.13 1518.27 Q1862.21 1522.85 1862.21 1531.6 Q1862.21 1540.33 1859.13 1544.94 Q1856.08 1549.52 1850.27 1549.52 Q1844.46 1549.52 1841.38 1544.94 Q1838.32 1540.33 1838.32 1531.6 Q1838.32 1522.85 1841.38 1518.27 Q1844.46 1513.66 1850.27 1513.66 Z" fill="#000000" fill-rule="evenodd" fill-opacity="1" /><path clip-path="url(#clip580)" d="M1870.43 1542.97 L1875.31 1542.97 L1875.31 1548.85 L1870.43 1548.85 L1870.43 1542.97 Z" fill="#000000" fill-rule="evenodd" fill-opacity="1" /><path clip-path="url(#clip580)" d="M1895.5 1517.37 Q1891.89 1517.37 1890.06 1520.93 Q1888.25 1524.47 1888.25 1531.6 Q1888.25 1538.71 1890.06 1542.27 Q1891.89 1545.82 1895.5 1545.82 Q1899.13 1545.82 1900.94 1542.27 Q1902.76 1538.71 1902.76 1531.6 Q1902.76 1524.47 1900.94 1520.93 Q1899.13 1517.37 1895.5 1517.37 M1895.5 1513.66 Q1901.31 1513.66 1904.36 1518.27 Q1907.44 1522.85 1907.44 1531.6 Q1907.44 1540.33 1904.36 1544.94 Q1901.31 1549.52 1895.5 1549.52 Q1889.69 1549.52 1886.61 1544.94 Q1883.55 1540.33 1883.55 1531.6 Q1883.55 1522.85 1886.61 1518.27 Q1889.69 1513.66 1895.5 1513.66 Z" fill="#000000" fill-rule="evenodd" fill-opacity="1" /><path clip-path="url(#clip580)" d="M2077.13 1517.37 Q2073.52 1517.37 2071.69 1520.93 Q2069.89 1524.47 2069.89 1531.6 Q2069.89 1538.71 2071.69 1542.27 Q2073.52 1545.82 2077.13 1545.82 Q2080.77 1545.82 2082.57 1542.27 Q2084.4 1538.71 2084.4 1531.6 Q2084.4 1524.47 2082.57 1520.93 Q2080.77 1517.37 2077.13 1517.37 M2077.13 1513.66 Q2082.94 1513.66 2086 1518.27 Q2089.08 1522.85 2089.08 1531.6 Q2089.08 1540.33 2086 1544.94 Q2082.94 1549.52 2077.13 1549.52 Q2071.32 1549.52 2068.24 1544.94 Q2065.19 1540.33 2065.19 1531.6 Q2065.19 1522.85 2068.24 1518.27 Q2071.32 1513.66 2077.13 1513.66 Z" fill="#000000" fill-rule="evenodd" fill-opacity="1" /><path clip-path="url(#clip580)" d="M2097.29 1542.97 L2102.18 1542.97 L2102.18 1548.85 L2097.29 1548.85 L2097.29 1542.97 Z" fill="#000000" fill-rule="evenodd" fill-opacity="1" /><path clip-path="url(#clip580)" d="M2112.41 1514.29 L2130.77 1514.29 L2130.77 1518.22 L2116.69 1518.22 L2116.69 1526.7 Q2117.71 1526.35 2118.73 1526.19 Q2119.75 1526 2120.77 1526 Q2126.55 1526 2129.93 1529.17 Q2133.31 1532.34 2133.31 1537.76 Q2133.31 1543.34 2129.84 1546.44 Q2126.37 1549.52 2120.05 1549.52 Q2117.87 1549.52 2115.6 1549.15 Q2113.36 1548.78 2110.95 1548.04 L2110.95 1543.34 Q2113.03 1544.47 2115.26 1545.03 Q2117.48 1545.58 2119.96 1545.58 Q2123.96 1545.58 2126.3 1543.48 Q2128.64 1541.37 2128.64 1537.76 Q2128.64 1534.15 2126.3 1532.04 Q2123.96 1529.94 2119.96 1529.94 Q2118.08 1529.94 2116.21 1530.35 Q2114.35 1530.77 2112.41 1531.65 L2112.41 1514.29 Z" fill="#000000" fill-rule="evenodd" fill-opacity="1" /><path clip-path="url(#clip580)" d="M2292.77 1544.91 L2300.41 1544.91 L2300.41 1518.55 L2292.1 1520.21 L2292.1 1515.95 L2300.36 1514.29 L2305.04 1514.29 L2305.04 1544.91 L2312.68 1544.91 L2312.68 1548.85 L2292.77 1548.85 L2292.77 1544.91 Z" fill="#000000" fill-rule="evenodd" fill-opacity="1" /><path clip-path="url(#clip580)" d="M2322.12 1542.97 L2327.01 1542.97 L2327.01 1548.85 L2322.12 1548.85 L2322.12 1542.97 Z" fill="#000000" fill-rule="evenodd" fill-opacity="1" /><path clip-path="url(#clip580)" d="M2347.19 1517.37 Q2343.58 1517.37 2341.75 1520.93 Q2339.95 1524.47 2339.95 1531.6 Q2339.95 1538.71 2341.75 1542.27 Q2343.58 1545.82 2347.19 1545.82 Q2350.83 1545.82 2352.63 1542.27 Q2354.46 1538.71 2354.46 1531.6 Q2354.46 1524.47 2352.63 1520.93 Q2350.83 1517.37 2347.19 1517.37 M2347.19 1513.66 Q2353 1513.66 2356.06 1518.27 Q2359.14 1522.85 2359.14 1531.6 Q2359.14 1540.33 2356.06 1544.94 Q2353 1549.52 2347.19 1549.52 Q2341.38 1549.52 2338.3 1544.94 Q2335.25 1540.33 2335.25 1531.6 Q2335.25 1522.85 2338.3 1518.27 Q2341.38 1513.66 2347.19 1513.66 Z" fill="#000000" fill-rule="evenodd" fill-opacity="1" /><polyline clip-path="url(#clip583)" style="stroke:#000000; stroke-linecap:butt; stroke-linejoin:round; stroke-width:2; stroke-opacity:0.1; fill:none" points="
  1393.94,1445.95 2352.76,1445.95 
  "/>
<polyline clip-path="url(#clip583)" style="stroke:#000000; stroke-linecap:butt; stroke-linejoin:round; stroke-width:2; stroke-opacity:0.1; fill:none" points="
  1393.94,1219.58 2352.76,1219.58 
  "/>
<polyline clip-path="url(#clip583)" style="stroke:#000000; stroke-linecap:butt; stroke-linejoin:round; stroke-width:2; stroke-opacity:0.1; fill:none" points="
  1393.94,993.215 2352.76,993.215 
  "/>
<polyline clip-path="url(#clip583)" style="stroke:#000000; stroke-linecap:butt; stroke-linejoin:round; stroke-width:2; stroke-opacity:0.1; fill:none" points="
  1393.94,766.846 2352.76,766.846 
  "/>
<polyline clip-path="url(#clip583)" style="stroke:#000000; stroke-linecap:butt; stroke-linejoin:round; stroke-width:2; stroke-opacity:0.1; fill:none" points="
  1393.94,540.477 2352.76,540.477 
  "/>
<polyline clip-path="url(#clip583)" style="stroke:#000000; stroke-linecap:butt; stroke-linejoin:round; stroke-width:2; stroke-opacity:0.1; fill:none" points="
  1393.94,314.107 2352.76,314.107 
  "/>
<polyline clip-path="url(#clip583)" style="stroke:#000000; stroke-linecap:butt; stroke-linejoin:round; stroke-width:2; stroke-opacity:0.1; fill:none" points="
  1393.94,87.738 2352.76,87.738 
  "/>
<polyline clip-path="url(#clip580)" style="stroke:#000000; stroke-linecap:butt; stroke-linejoin:round; stroke-width:4; stroke-opacity:1; fill:none" points="
  1393.94,1486.45 1393.94,47.2441 
  "/>
<polyline clip-path="url(#clip580)" style="stroke:#000000; stroke-linecap:butt; stroke-linejoin:round; stroke-width:4; stroke-opacity:1; fill:none" points="
  1393.94,1445.95 1412.83,1445.95 
  "/>
<polyline clip-path="url(#clip580)" style="stroke:#000000; stroke-linecap:butt; stroke-linejoin:round; stroke-width:4; stroke-opacity:1; fill:none" points="
  1393.94,1219.58 1412.83,1219.58 
  "/>
<polyline clip-path="url(#clip580)" style="stroke:#000000; stroke-linecap:butt; stroke-linejoin:round; stroke-width:4; stroke-opacity:1; fill:none" points="
  1393.94,993.215 1412.83,993.215 
  "/>
<polyline clip-path="url(#clip580)" style="stroke:#000000; stroke-linecap:butt; stroke-linejoin:round; stroke-width:4; stroke-opacity:1; fill:none" points="
  1393.94,766.846 1412.83,766.846 
  "/>
<polyline clip-path="url(#clip580)" style="stroke:#000000; stroke-linecap:butt; stroke-linejoin:round; stroke-width:4; stroke-opacity:1; fill:none" points="
  1393.94,540.477 1412.83,540.477 
  "/>
<polyline clip-path="url(#clip580)" style="stroke:#000000; stroke-linecap:butt; stroke-linejoin:round; stroke-width:4; stroke-opacity:1; fill:none" points="
  1393.94,314.107 1412.83,314.107 
  "/>
<polyline clip-path="url(#clip580)" style="stroke:#000000; stroke-linecap:butt; stroke-linejoin:round; stroke-width:4; stroke-opacity:1; fill:none" points="
  1393.94,87.738 1412.83,87.738 
  "/>
<path clip-path="url(#clip580)" d="M1251.99 1446.41 L1281.66 1446.41 L1281.66 1450.34 L1251.99 1450.34 L1251.99 1446.41 Z" fill="#000000" fill-rule="evenodd" fill-opacity="1" /><path clip-path="url(#clip580)" d="M1292.57 1459.3 L1300.2 1459.3 L1300.2 1432.93 L1291.89 1434.6 L1291.89 1430.34 L1300.16 1428.67 L1304.83 1428.67 L1304.83 1459.3 L1312.47 1459.3 L1312.47 1463.23 L1292.57 1463.23 L1292.57 1459.3 Z" fill="#000000" fill-rule="evenodd" fill-opacity="1" /><path clip-path="url(#clip580)" d="M1321.92 1457.35 L1326.8 1457.35 L1326.8 1463.23 L1321.92 1463.23 L1321.92 1457.35 Z" fill="#000000" fill-rule="evenodd" fill-opacity="1" /><path clip-path="url(#clip580)" d="M1337.03 1428.67 L1355.39 1428.67 L1355.39 1432.61 L1341.32 1432.61 L1341.32 1441.08 Q1342.33 1440.73 1343.35 1440.57 Q1344.37 1440.39 1345.39 1440.39 Q1351.18 1440.39 1354.56 1443.56 Q1357.94 1446.73 1357.94 1452.15 Q1357.94 1457.72 1354.46 1460.83 Q1350.99 1463.91 1344.67 1463.91 Q1342.5 1463.91 1340.23 1463.53 Q1337.98 1463.16 1335.58 1462.42 L1335.58 1457.72 Q1337.66 1458.86 1339.88 1459.41 Q1342.1 1459.97 1344.58 1459.97 Q1348.58 1459.97 1350.92 1457.86 Q1353.26 1455.76 1353.26 1452.15 Q1353.26 1448.53 1350.92 1446.43 Q1348.58 1444.32 1344.58 1444.32 Q1342.7 1444.32 1340.83 1444.74 Q1338.98 1445.16 1337.03 1446.03 L1337.03 1428.67 Z" fill="#000000" fill-rule="evenodd" fill-opacity="1" /><path clip-path="url(#clip580)" d="M1250.99 1220.04 L1280.67 1220.04 L1280.67 1223.97 L1250.99 1223.97 L1250.99 1220.04 Z" fill="#000000" fill-rule="evenodd" fill-opacity="1" /><path clip-path="url(#clip580)" d="M1291.57 1232.93 L1299.21 1232.93 L1299.21 1206.56 L1290.9 1208.23 L1290.9 1203.97 L1299.16 1202.3 L1303.84 1202.3 L1303.84 1232.93 L1311.48 1232.93 L1311.48 1236.86 L1291.57 1236.86 L1291.57 1232.93 Z" fill="#000000" fill-rule="evenodd" fill-opacity="1" /><path clip-path="url(#clip580)" d="M1320.92 1230.99 L1325.81 1230.99 L1325.81 1236.86 L1320.92 1236.86 L1320.92 1230.99 Z" fill="#000000" fill-rule="evenodd" fill-opacity="1" /><path clip-path="url(#clip580)" d="M1345.99 1205.38 Q1342.38 1205.38 1340.55 1208.95 Q1338.75 1212.49 1338.75 1219.62 Q1338.75 1226.73 1340.55 1230.29 Q1342.38 1233.83 1345.99 1233.83 Q1349.63 1233.83 1351.43 1230.29 Q1353.26 1226.73 1353.26 1219.62 Q1353.26 1212.49 1351.43 1208.95 Q1349.63 1205.38 1345.99 1205.38 M1345.99 1201.68 Q1351.8 1201.68 1354.86 1206.29 Q1357.94 1210.87 1357.94 1219.62 Q1357.94 1228.35 1354.86 1232.95 Q1351.8 1237.54 1345.99 1237.54 Q1340.18 1237.54 1337.1 1232.95 Q1334.05 1228.35 1334.05 1219.62 Q1334.05 1210.87 1337.1 1206.29 Q1340.18 1201.68 1345.99 1201.68 Z" fill="#000000" fill-rule="evenodd" fill-opacity="1" /><path clip-path="url(#clip580)" d="M1251.99 993.667 L1281.66 993.667 L1281.66 997.602 L1251.99 997.602 L1251.99 993.667 Z" fill="#000000" fill-rule="evenodd" fill-opacity="1" /><path clip-path="url(#clip580)" d="M1301.76 979.014 Q1298.14 979.014 1296.32 982.579 Q1294.51 986.12 1294.51 993.25 Q1294.51 1000.36 1296.32 1003.92 Q1298.14 1007.46 1301.76 1007.46 Q1305.39 1007.46 1307.2 1003.92 Q1309.02 1000.36 1309.02 993.25 Q1309.02 986.12 1307.2 982.579 Q1305.39 979.014 1301.76 979.014 M1301.76 975.31 Q1307.57 975.31 1310.62 979.917 Q1313.7 984.5 1313.7 993.25 Q1313.7 1001.98 1310.62 1006.58 Q1307.57 1011.17 1301.76 1011.17 Q1295.95 1011.17 1292.87 1006.58 Q1289.81 1001.98 1289.81 993.25 Q1289.81 984.5 1292.87 979.917 Q1295.95 975.31 1301.76 975.31 Z" fill="#000000" fill-rule="evenodd" fill-opacity="1" /><path clip-path="url(#clip580)" d="M1321.92 1004.62 L1326.8 1004.62 L1326.8 1010.5 L1321.92 1010.5 L1321.92 1004.62 Z" fill="#000000" fill-rule="evenodd" fill-opacity="1" /><path clip-path="url(#clip580)" d="M1337.03 975.935 L1355.39 975.935 L1355.39 979.87 L1341.32 979.87 L1341.32 988.343 Q1342.33 987.995 1343.35 987.833 Q1344.37 987.648 1345.39 987.648 Q1351.18 987.648 1354.56 990.819 Q1357.94 993.991 1357.94 999.407 Q1357.94 1004.99 1354.46 1008.09 Q1350.99 1011.17 1344.67 1011.17 Q1342.5 1011.17 1340.23 1010.8 Q1337.98 1010.43 1335.58 1009.69 L1335.58 1004.99 Q1337.66 1006.12 1339.88 1006.68 Q1342.1 1007.23 1344.58 1007.23 Q1348.58 1007.23 1350.92 1005.12 Q1353.26 1003.02 1353.26 999.407 Q1353.26 995.796 1350.92 993.69 Q1348.58 991.583 1344.58 991.583 Q1342.7 991.583 1340.83 992 Q1338.98 992.417 1337.03 993.296 L1337.03 975.935 Z" fill="#000000" fill-rule="evenodd" fill-opacity="1" /><path clip-path="url(#clip580)" d="M1300.76 752.645 Q1297.15 752.645 1295.32 756.209 Q1293.52 759.751 1293.52 766.881 Q1293.52 773.987 1295.32 777.552 Q1297.15 781.094 1300.76 781.094 Q1304.39 781.094 1306.2 777.552 Q1308.03 773.987 1308.03 766.881 Q1308.03 759.751 1306.2 756.209 Q1304.39 752.645 1300.76 752.645 M1300.76 748.941 Q1306.57 748.941 1309.63 753.547 Q1312.7 758.131 1312.7 766.881 Q1312.7 775.608 1309.63 780.214 Q1306.57 784.797 1300.76 784.797 Q1294.95 784.797 1291.87 780.214 Q1288.82 775.608 1288.82 766.881 Q1288.82 758.131 1291.87 753.547 Q1294.95 748.941 1300.76 748.941 Z" fill="#000000" fill-rule="evenodd" fill-opacity="1" /><path clip-path="url(#clip580)" d="M1320.92 778.246 L1325.81 778.246 L1325.81 784.126 L1320.92 784.126 L1320.92 778.246 Z" fill="#000000" fill-rule="evenodd" fill-opacity="1" /><path clip-path="url(#clip580)" d="M1345.99 752.645 Q1342.38 752.645 1340.55 756.209 Q1338.75 759.751 1338.75 766.881 Q1338.75 773.987 1340.55 777.552 Q1342.38 781.094 1345.99 781.094 Q1349.63 781.094 1351.43 777.552 Q1353.26 773.987 1353.26 766.881 Q1353.26 759.751 1351.43 756.209 Q1349.63 752.645 1345.99 752.645 M1345.99 748.941 Q1351.8 748.941 1354.86 753.547 Q1357.94 758.131 1357.94 766.881 Q1357.94 775.608 1354.86 780.214 Q1351.8 784.797 1345.99 784.797 Q1340.18 784.797 1337.1 780.214 Q1334.05 775.608 1334.05 766.881 Q1334.05 758.131 1337.1 753.547 Q1340.18 748.941 1345.99 748.941 Z" fill="#000000" fill-rule="evenodd" fill-opacity="1" /><path clip-path="url(#clip580)" d="M1301.76 526.275 Q1298.14 526.275 1296.32 529.84 Q1294.51 533.382 1294.51 540.511 Q1294.51 547.618 1296.32 551.183 Q1298.14 554.724 1301.76 554.724 Q1305.39 554.724 1307.2 551.183 Q1309.02 547.618 1309.02 540.511 Q1309.02 533.382 1307.2 529.84 Q1305.39 526.275 1301.76 526.275 M1301.76 522.572 Q1307.57 522.572 1310.62 527.178 Q1313.7 531.761 1313.7 540.511 Q1313.7 549.238 1310.62 553.845 Q1307.57 558.428 1301.76 558.428 Q1295.95 558.428 1292.87 553.845 Q1289.81 549.238 1289.81 540.511 Q1289.81 531.761 1292.87 527.178 Q1295.95 522.572 1301.76 522.572 Z" fill="#000000" fill-rule="evenodd" fill-opacity="1" /><path clip-path="url(#clip580)" d="M1321.92 551.877 L1326.8 551.877 L1326.8 557.757 L1321.92 557.757 L1321.92 551.877 Z" fill="#000000" fill-rule="evenodd" fill-opacity="1" /><path clip-path="url(#clip580)" d="M1337.03 523.197 L1355.39 523.197 L1355.39 527.132 L1341.32 527.132 L1341.32 535.604 Q1342.33 535.257 1343.35 535.095 Q1344.37 534.91 1345.39 534.91 Q1351.18 534.91 1354.56 538.081 Q1357.94 541.252 1357.94 546.669 Q1357.94 552.247 1354.46 555.349 Q1350.99 558.428 1344.67 558.428 Q1342.5 558.428 1340.23 558.058 Q1337.98 557.687 1335.58 556.946 L1335.58 552.247 Q1337.66 553.382 1339.88 553.937 Q1342.1 554.493 1344.58 554.493 Q1348.58 554.493 1350.92 552.386 Q1353.26 550.28 1353.26 546.669 Q1353.26 543.058 1350.92 540.951 Q1348.58 538.845 1344.58 538.845 Q1342.7 538.845 1340.83 539.261 Q1338.98 539.678 1337.03 540.558 L1337.03 523.197 Z" fill="#000000" fill-rule="evenodd" fill-opacity="1" /><path clip-path="url(#clip580)" d="M1291.57 327.452 L1299.21 327.452 L1299.21 301.087 L1290.9 302.753 L1290.9 298.494 L1299.16 296.827 L1303.84 296.827 L1303.84 327.452 L1311.48 327.452 L1311.48 331.387 L1291.57 331.387 L1291.57 327.452 Z" fill="#000000" fill-rule="evenodd" fill-opacity="1" /><path clip-path="url(#clip580)" d="M1320.92 325.508 L1325.81 325.508 L1325.81 331.387 L1320.92 331.387 L1320.92 325.508 Z" fill="#000000" fill-rule="evenodd" fill-opacity="1" /><path clip-path="url(#clip580)" d="M1345.99 299.906 Q1342.38 299.906 1340.55 303.471 Q1338.75 307.012 1338.75 314.142 Q1338.75 321.249 1340.55 324.813 Q1342.38 328.355 1345.99 328.355 Q1349.63 328.355 1351.43 324.813 Q1353.26 321.249 1353.26 314.142 Q1353.26 307.012 1351.43 303.471 Q1349.63 299.906 1345.99 299.906 M1345.99 296.202 Q1351.8 296.202 1354.86 300.809 Q1357.94 305.392 1357.94 314.142 Q1357.94 322.869 1354.86 327.475 Q1351.8 332.059 1345.99 332.059 Q1340.18 332.059 1337.1 327.475 Q1334.05 322.869 1334.05 314.142 Q1334.05 305.392 1337.1 300.809 Q1340.18 296.202 1345.99 296.202 Z" fill="#000000" fill-rule="evenodd" fill-opacity="1" /><path clip-path="url(#clip580)" d="M1292.57 101.083 L1300.2 101.083 L1300.2 74.7173 L1291.89 76.3839 L1291.89 72.1247 L1300.16 70.458 L1304.83 70.458 L1304.83 101.083 L1312.47 101.083 L1312.47 105.018 L1292.57 105.018 L1292.57 101.083 Z" fill="#000000" fill-rule="evenodd" fill-opacity="1" /><path clip-path="url(#clip580)" d="M1321.92 99.1384 L1326.8 99.1384 L1326.8 105.018 L1321.92 105.018 L1321.92 99.1384 Z" fill="#000000" fill-rule="evenodd" fill-opacity="1" /><path clip-path="url(#clip580)" d="M1337.03 70.458 L1355.39 70.458 L1355.39 74.3932 L1341.32 74.3932 L1341.32 82.8654 Q1342.33 82.5181 1343.35 82.3561 Q1344.37 82.1709 1345.39 82.1709 Q1351.18 82.1709 1354.56 85.3422 Q1357.94 88.5135 1357.94 93.9301 Q1357.94 99.5088 1354.46 102.611 Q1350.99 105.689 1344.67 105.689 Q1342.5 105.689 1340.23 105.319 Q1337.98 104.949 1335.58 104.208 L1335.58 99.5088 Q1337.66 100.643 1339.88 101.199 Q1342.1 101.754 1344.58 101.754 Q1348.58 101.754 1350.92 99.6477 Q1353.26 97.5412 1353.26 93.9301 Q1353.26 90.319 1350.92 88.2126 Q1348.58 86.1061 1344.58 86.1061 Q1342.7 86.1061 1340.83 86.5228 Q1338.98 86.9394 1337.03 87.819 L1337.03 70.458 Z" fill="#000000" fill-rule="evenodd" fill-opacity="1" /><circle clip-path="url(#clip583)" cx="2325.62" cy="766.846" r="14" fill="#009af9" fill-rule="evenodd" fill-opacity="1" stroke="#000000" stroke-opacity="1" stroke-width="3.2"/>
<circle clip-path="url(#clip583)" cx="2321.9" cy="708.951" r="14" fill="#009af9" fill-rule="evenodd" fill-opacity="1" stroke="#000000" stroke-opacity="1" stroke-width="3.2"/>
<circle clip-path="url(#clip583)" cx="2310.81" cy="652.007" r="14" fill="#009af9" fill-rule="evenodd" fill-opacity="1" stroke="#000000" stroke-opacity="1" stroke-width="3.2"/>
<circle clip-path="url(#clip583)" cx="2292.53" cy="596.948" r="14" fill="#009af9" fill-rule="evenodd" fill-opacity="1" stroke="#000000" stroke-opacity="1" stroke-width="3.2"/>
<circle clip-path="url(#clip583)" cx="2267.36" cy="544.679" r="14" fill="#009af9" fill-rule="evenodd" fill-opacity="1" stroke="#000000" stroke-opacity="1" stroke-width="3.2"/>
<circle clip-path="url(#clip583)" cx="2235.71" cy="496.058" r="14" fill="#009af9" fill-rule="evenodd" fill-opacity="1" stroke="#000000" stroke-opacity="1" stroke-width="3.2"/>
<circle clip-path="url(#clip583)" cx="2198.11" cy="451.884" r="14" fill="#009af9" fill-rule="evenodd" fill-opacity="1" stroke="#000000" stroke-opacity="1" stroke-width="3.2"/>
<circle clip-path="url(#clip583)" cx="2155.16" cy="412.881" r="14" fill="#009af9" fill-rule="evenodd" fill-opacity="1" stroke="#000000" stroke-opacity="1" stroke-width="3.2"/>
<circle clip-path="url(#clip583)" cx="2107.58" cy="379.69" r="14" fill="#009af9" fill-rule="evenodd" fill-opacity="1" stroke="#000000" stroke-opacity="1" stroke-width="3.2"/>
<circle clip-path="url(#clip583)" cx="2056.14" cy="352.856" r="14" fill="#009af9" fill-rule="evenodd" fill-opacity="1" stroke="#000000" stroke-opacity="1" stroke-width="3.2"/>
<circle clip-path="url(#clip583)" cx="2001.7" cy="332.82" r="14" fill="#009af9" fill-rule="evenodd" fill-opacity="1" stroke="#000000" stroke-opacity="1" stroke-width="3.2"/>
<circle clip-path="url(#clip583)" cx="1945.14" cy="319.911" r="14" fill="#009af9" fill-rule="evenodd" fill-opacity="1" stroke="#000000" stroke-opacity="1" stroke-width="3.2"/>
<circle clip-path="url(#clip583)" cx="1887.39" cy="314.34" r="14" fill="#009af9" fill-rule="evenodd" fill-opacity="1" stroke="#000000" stroke-opacity="1" stroke-width="3.2"/>
<circle clip-path="url(#clip583)" cx="1829.41" cy="316.199" r="14" fill="#009af9" fill-rule="evenodd" fill-opacity="1" stroke="#000000" stroke-opacity="1" stroke-width="3.2"/>
<circle clip-path="url(#clip583)" cx="1772.14" cy="325.458" r="14" fill="#009af9" fill-rule="evenodd" fill-opacity="1" stroke="#000000" stroke-opacity="1" stroke-width="3.2"/>
<circle clip-path="url(#clip583)" cx="1716.52" cy="341.965" r="14" fill="#009af9" fill-rule="evenodd" fill-opacity="1" stroke="#000000" stroke-opacity="1" stroke-width="3.2"/>
<circle clip-path="url(#clip583)" cx="1663.47" cy="365.448" r="14" fill="#009af9" fill-rule="evenodd" fill-opacity="1" stroke="#000000" stroke-opacity="1" stroke-width="3.2"/>
<circle clip-path="url(#clip583)" cx="1613.86" cy="395.522" r="14" fill="#009af9" fill-rule="evenodd" fill-opacity="1" stroke="#000000" stroke-opacity="1" stroke-width="3.2"/>
<circle clip-path="url(#clip583)" cx="1568.5" cy="431.694" r="14" fill="#009af9" fill-rule="evenodd" fill-opacity="1" stroke="#000000" stroke-opacity="1" stroke-width="3.2"/>
<circle clip-path="url(#clip583)" cx="1528.14" cy="473.368" r="14" fill="#009af9" fill-rule="evenodd" fill-opacity="1" stroke="#000000" stroke-opacity="1" stroke-width="3.2"/>
<circle clip-path="url(#clip583)" cx="1493.45" cy="519.861" r="14" fill="#009af9" fill-rule="evenodd" fill-opacity="1" stroke="#000000" stroke-opacity="1" stroke-width="3.2"/>
<circle clip-path="url(#clip583)" cx="1464.98" cy="570.41" r="14" fill="#009af9" fill-rule="evenodd" fill-opacity="1" stroke="#000000" stroke-opacity="1" stroke-width="3.2"/>
<circle clip-path="url(#clip583)" cx="1443.21" cy="624.184" r="14" fill="#009af9" fill-rule="evenodd" fill-opacity="1" stroke="#000000" stroke-opacity="1" stroke-width="3.2"/>
<circle clip-path="url(#clip583)" cx="1428.49" cy="680.301" r="14" fill="#009af9" fill-rule="evenodd" fill-opacity="1" stroke="#000000" stroke-opacity="1" stroke-width="3.2"/>
<circle clip-path="url(#clip583)" cx="1421.07" cy="737.839" r="14" fill="#009af9" fill-rule="evenodd" fill-opacity="1" stroke="#000000" stroke-opacity="1" stroke-width="3.2"/>
<circle clip-path="url(#clip583)" cx="1421.07" cy="795.853" r="14" fill="#009af9" fill-rule="evenodd" fill-opacity="1" stroke="#000000" stroke-opacity="1" stroke-width="3.2"/>
<circle clip-path="url(#clip583)" cx="1428.49" cy="853.391" r="14" fill="#009af9" fill-rule="evenodd" fill-opacity="1" stroke="#000000" stroke-opacity="1" stroke-width="3.2"/>
<circle clip-path="url(#clip583)" cx="1443.21" cy="909.508" r="14" fill="#009af9" fill-rule="evenodd" fill-opacity="1" stroke="#000000" stroke-opacity="1" stroke-width="3.2"/>
<circle clip-path="url(#clip583)" cx="1464.98" cy="963.282" r="14" fill="#009af9" fill-rule="evenodd" fill-opacity="1" stroke="#000000" stroke-opacity="1" stroke-width="3.2"/>
<circle clip-path="url(#clip583)" cx="1493.45" cy="1013.83" r="14" fill="#009af9" fill-rule="evenodd" fill-opacity="1" stroke="#000000" stroke-opacity="1" stroke-width="3.2"/>
<circle clip-path="url(#clip583)" cx="1528.14" cy="1060.32" r="14" fill="#009af9" fill-rule="evenodd" fill-opacity="1" stroke="#000000" stroke-opacity="1" stroke-width="3.2"/>
<circle clip-path="url(#clip583)" cx="1568.5" cy="1102" r="14" fill="#009af9" fill-rule="evenodd" fill-opacity="1" stroke="#000000" stroke-opacity="1" stroke-width="3.2"/>
<circle clip-path="url(#clip583)" cx="1613.86" cy="1138.17" r="14" fill="#009af9" fill-rule="evenodd" fill-opacity="1" stroke="#000000" stroke-opacity="1" stroke-width="3.2"/>
<circle clip-path="url(#clip583)" cx="1663.47" cy="1168.24" r="14" fill="#009af9" fill-rule="evenodd" fill-opacity="1" stroke="#000000" stroke-opacity="1" stroke-width="3.2"/>
<circle clip-path="url(#clip583)" cx="1716.52" cy="1191.73" r="14" fill="#009af9" fill-rule="evenodd" fill-opacity="1" stroke="#000000" stroke-opacity="1" stroke-width="3.2"/>
<circle clip-path="url(#clip583)" cx="1772.14" cy="1208.23" r="14" fill="#009af9" fill-rule="evenodd" fill-opacity="1" stroke="#000000" stroke-opacity="1" stroke-width="3.2"/>
<circle clip-path="url(#clip583)" cx="1829.41" cy="1217.49" r="14" fill="#009af9" fill-rule="evenodd" fill-opacity="1" stroke="#000000" stroke-opacity="1" stroke-width="3.2"/>
<circle clip-path="url(#clip583)" cx="1887.39" cy="1219.35" r="14" fill="#009af9" fill-rule="evenodd" fill-opacity="1" stroke="#000000" stroke-opacity="1" stroke-width="3.2"/>
<circle clip-path="url(#clip583)" cx="1945.14" cy="1213.78" r="14" fill="#009af9" fill-rule="evenodd" fill-opacity="1" stroke="#000000" stroke-opacity="1" stroke-width="3.2"/>
<circle clip-path="url(#clip583)" cx="2001.7" cy="1200.87" r="14" fill="#009af9" fill-rule="evenodd" fill-opacity="1" stroke="#000000" stroke-opacity="1" stroke-width="3.2"/>
<circle clip-path="url(#clip583)" cx="2056.14" cy="1180.84" r="14" fill="#009af9" fill-rule="evenodd" fill-opacity="1" stroke="#000000" stroke-opacity="1" stroke-width="3.2"/>
<circle clip-path="url(#clip583)" cx="2107.58" cy="1154" r="14" fill="#009af9" fill-rule="evenodd" fill-opacity="1" stroke="#000000" stroke-opacity="1" stroke-width="3.2"/>
<circle clip-path="url(#clip583)" cx="2155.16" cy="1120.81" r="14" fill="#009af9" fill-rule="evenodd" fill-opacity="1" stroke="#000000" stroke-opacity="1" stroke-width="3.2"/>
<circle clip-path="url(#clip583)" cx="2198.11" cy="1081.81" r="14" fill="#009af9" fill-rule="evenodd" fill-opacity="1" stroke="#000000" stroke-opacity="1" stroke-width="3.2"/>
<circle clip-path="url(#clip583)" cx="2235.71" cy="1037.63" r="14" fill="#009af9" fill-rule="evenodd" fill-opacity="1" stroke="#000000" stroke-opacity="1" stroke-width="3.2"/>
<circle clip-path="url(#clip583)" cx="2267.36" cy="989.013" r="14" fill="#009af9" fill-rule="evenodd" fill-opacity="1" stroke="#000000" stroke-opacity="1" stroke-width="3.2"/>
<circle clip-path="url(#clip583)" cx="2292.53" cy="936.744" r="14" fill="#009af9" fill-rule="evenodd" fill-opacity="1" stroke="#000000" stroke-opacity="1" stroke-width="3.2"/>
<circle clip-path="url(#clip583)" cx="2310.81" cy="881.685" r="14" fill="#009af9" fill-rule="evenodd" fill-opacity="1" stroke="#000000" stroke-opacity="1" stroke-width="3.2"/>
<circle clip-path="url(#clip583)" cx="2321.9" cy="824.741" r="14" fill="#009af9" fill-rule="evenodd" fill-opacity="1" stroke="#000000" stroke-opacity="1" stroke-width="3.2"/>
<circle clip-path="url(#clip583)" cx="2325.62" cy="766.846" r="14" fill="#009af9" fill-rule="evenodd" fill-opacity="1" stroke="#000000" stroke-opacity="1" stroke-width="3.2"/>
<circle clip-path="url(#clip583)" cx="2214.53" cy="766.846" r="14" fill="#e26f46" fill-rule="evenodd" fill-opacity="1" stroke="#000000" stroke-opacity="1" stroke-width="3.2"/>
<circle clip-path="url(#clip583)" cx="2211.72" cy="756.108" r="14" fill="#e26f46" fill-rule="evenodd" fill-opacity="1" stroke="#000000" stroke-opacity="1" stroke-width="3.2"/>
<circle clip-path="url(#clip583)" cx="2203.35" cy="745.547" r="14" fill="#e26f46" fill-rule="evenodd" fill-opacity="1" stroke="#000000" stroke-opacity="1" stroke-width="3.2"/>
<circle clip-path="url(#clip583)" cx="2189.56" cy="735.336" r="14" fill="#e26f46" fill-rule="evenodd" fill-opacity="1" stroke="#000000" stroke-opacity="1" stroke-width="3.2"/>
<circle clip-path="url(#clip583)" cx="2170.56" cy="725.642" r="14" fill="#e26f46" fill-rule="evenodd" fill-opacity="1" stroke="#000000" stroke-opacity="1" stroke-width="3.2"/>
<circle clip-path="url(#clip583)" cx="2146.68" cy="716.624" r="14" fill="#e26f46" fill-rule="evenodd" fill-opacity="1" stroke="#000000" stroke-opacity="1" stroke-width="3.2"/>
<circle clip-path="url(#clip583)" cx="2118.3" cy="708.431" r="14" fill="#e26f46" fill-rule="evenodd" fill-opacity="1" stroke="#000000" stroke-opacity="1" stroke-width="3.2"/>
<circle clip-path="url(#clip583)" cx="2085.89" cy="701.198" r="14" fill="#e26f46" fill-rule="evenodd" fill-opacity="1" stroke="#000000" stroke-opacity="1" stroke-width="3.2"/>
<circle clip-path="url(#clip583)" cx="2049.99" cy="695.042" r="14" fill="#e26f46" fill-rule="evenodd" fill-opacity="1" stroke="#000000" stroke-opacity="1" stroke-width="3.2"/>
<circle clip-path="url(#clip583)" cx="2011.17" cy="690.065" r="14" fill="#e26f46" fill-rule="evenodd" fill-opacity="1" stroke="#000000" stroke-opacity="1" stroke-width="3.2"/>
<circle clip-path="url(#clip583)" cx="1970.09" cy="686.349" r="14" fill="#e26f46" fill-rule="evenodd" fill-opacity="1" stroke="#000000" stroke-opacity="1" stroke-width="3.2"/>
<circle clip-path="url(#clip583)" cx="1927.41" cy="683.955" r="14" fill="#e26f46" fill-rule="evenodd" fill-opacity="1" stroke="#000000" stroke-opacity="1" stroke-width="3.2"/>
<circle clip-path="url(#clip583)" cx="1883.83" cy="682.922" r="14" fill="#e26f46" fill-rule="evenodd" fill-opacity="1" stroke="#000000" stroke-opacity="1" stroke-width="3.2"/>
<circle clip-path="url(#clip583)" cx="1840.07" cy="683.267" r="14" fill="#e26f46" fill-rule="evenodd" fill-opacity="1" stroke="#000000" stroke-opacity="1" stroke-width="3.2"/>
<circle clip-path="url(#clip583)" cx="1796.86" cy="684.984" r="14" fill="#e26f46" fill-rule="evenodd" fill-opacity="1" stroke="#000000" stroke-opacity="1" stroke-width="3.2"/>
<circle clip-path="url(#clip583)" cx="1754.89" cy="688.045" r="14" fill="#e26f46" fill-rule="evenodd" fill-opacity="1" stroke="#000000" stroke-opacity="1" stroke-width="3.2"/>
<circle clip-path="url(#clip583)" cx="1714.86" cy="692.401" r="14" fill="#e26f46" fill-rule="evenodd" fill-opacity="1" stroke="#000000" stroke-opacity="1" stroke-width="3.2"/>
<circle clip-path="url(#clip583)" cx="1677.42" cy="697.978" r="14" fill="#e26f46" fill-rule="evenodd" fill-opacity="1" stroke="#000000" stroke-opacity="1" stroke-width="3.2"/>
<circle clip-path="url(#clip583)" cx="1643.19" cy="704.687" r="14" fill="#e26f46" fill-rule="evenodd" fill-opacity="1" stroke="#000000" stroke-opacity="1" stroke-width="3.2"/>
<circle clip-path="url(#clip583)" cx="1612.74" cy="712.416" r="14" fill="#e26f46" fill-rule="evenodd" fill-opacity="1" stroke="#000000" stroke-opacity="1" stroke-width="3.2"/>
<circle clip-path="url(#clip583)" cx="1586.55" cy="721.039" r="14" fill="#e26f46" fill-rule="evenodd" fill-opacity="1" stroke="#000000" stroke-opacity="1" stroke-width="3.2"/>
<circle clip-path="url(#clip583)" cx="1565.07" cy="730.414" r="14" fill="#e26f46" fill-rule="evenodd" fill-opacity="1" stroke="#000000" stroke-opacity="1" stroke-width="3.2"/>
<circle clip-path="url(#clip583)" cx="1548.64" cy="740.387" r="14" fill="#e26f46" fill-rule="evenodd" fill-opacity="1" stroke="#000000" stroke-opacity="1" stroke-width="3.2"/>
<circle clip-path="url(#clip583)" cx="1537.54" cy="750.795" r="14" fill="#e26f46" fill-rule="evenodd" fill-opacity="1" stroke="#000000" stroke-opacity="1" stroke-width="3.2"/>
<circle clip-path="url(#clip583)" cx="1531.94" cy="761.466" r="14" fill="#e26f46" fill-rule="evenodd" fill-opacity="1" stroke="#000000" stroke-opacity="1" stroke-width="3.2"/>
<circle clip-path="url(#clip583)" cx="1531.94" cy="772.226" r="14" fill="#e26f46" fill-rule="evenodd" fill-opacity="1" stroke="#000000" stroke-opacity="1" stroke-width="3.2"/>
<circle clip-path="url(#clip583)" cx="1537.54" cy="782.897" r="14" fill="#e26f46" fill-rule="evenodd" fill-opacity="1" stroke="#000000" stroke-opacity="1" stroke-width="3.2"/>
<circle clip-path="url(#clip583)" cx="1548.64" cy="793.305" r="14" fill="#e26f46" fill-rule="evenodd" fill-opacity="1" stroke="#000000" stroke-opacity="1" stroke-width="3.2"/>
<circle clip-path="url(#clip583)" cx="1565.07" cy="803.278" r="14" fill="#e26f46" fill-rule="evenodd" fill-opacity="1" stroke="#000000" stroke-opacity="1" stroke-width="3.2"/>
<circle clip-path="url(#clip583)" cx="1586.55" cy="812.653" r="14" fill="#e26f46" fill-rule="evenodd" fill-opacity="1" stroke="#000000" stroke-opacity="1" stroke-width="3.2"/>
<circle clip-path="url(#clip583)" cx="1612.74" cy="821.276" r="14" fill="#e26f46" fill-rule="evenodd" fill-opacity="1" stroke="#000000" stroke-opacity="1" stroke-width="3.2"/>
<circle clip-path="url(#clip583)" cx="1643.19" cy="829.005" r="14" fill="#e26f46" fill-rule="evenodd" fill-opacity="1" stroke="#000000" stroke-opacity="1" stroke-width="3.2"/>
<circle clip-path="url(#clip583)" cx="1677.42" cy="835.714" r="14" fill="#e26f46" fill-rule="evenodd" fill-opacity="1" stroke="#000000" stroke-opacity="1" stroke-width="3.2"/>
<circle clip-path="url(#clip583)" cx="1714.86" cy="841.291" r="14" fill="#e26f46" fill-rule="evenodd" fill-opacity="1" stroke="#000000" stroke-opacity="1" stroke-width="3.2"/>
<circle clip-path="url(#clip583)" cx="1754.89" cy="845.647" r="14" fill="#e26f46" fill-rule="evenodd" fill-opacity="1" stroke="#000000" stroke-opacity="1" stroke-width="3.2"/>
<circle clip-path="url(#clip583)" cx="1796.86" cy="848.708" r="14" fill="#e26f46" fill-rule="evenodd" fill-opacity="1" stroke="#000000" stroke-opacity="1" stroke-width="3.2"/>
<circle clip-path="url(#clip583)" cx="1840.07" cy="850.425" r="14" fill="#e26f46" fill-rule="evenodd" fill-opacity="1" stroke="#000000" stroke-opacity="1" stroke-width="3.2"/>
<circle clip-path="url(#clip583)" cx="1883.83" cy="850.77" r="14" fill="#e26f46" fill-rule="evenodd" fill-opacity="1" stroke="#000000" stroke-opacity="1" stroke-width="3.2"/>
<circle clip-path="url(#clip583)" cx="1927.41" cy="849.737" r="14" fill="#e26f46" fill-rule="evenodd" fill-opacity="1" stroke="#000000" stroke-opacity="1" stroke-width="3.2"/>
<circle clip-path="url(#clip583)" cx="1970.09" cy="847.343" r="14" fill="#e26f46" fill-rule="evenodd" fill-opacity="1" stroke="#000000" stroke-opacity="1" stroke-width="3.2"/>
<circle clip-path="url(#clip583)" cx="2011.17" cy="843.627" r="14" fill="#e26f46" fill-rule="evenodd" fill-opacity="1" stroke="#000000" stroke-opacity="1" stroke-width="3.2"/>
<circle clip-path="url(#clip583)" cx="2049.99" cy="838.65" r="14" fill="#e26f46" fill-rule="evenodd" fill-opacity="1" stroke="#000000" stroke-opacity="1" stroke-width="3.2"/>
<circle clip-path="url(#clip583)" cx="2085.89" cy="832.494" r="14" fill="#e26f46" fill-rule="evenodd" fill-opacity="1" stroke="#000000" stroke-opacity="1" stroke-width="3.2"/>
<circle clip-path="url(#clip583)" cx="2118.3" cy="825.261" r="14" fill="#e26f46" fill-rule="evenodd" fill-opacity="1" stroke="#000000" stroke-opacity="1" stroke-width="3.2"/>
<circle clip-path="url(#clip583)" cx="2146.68" cy="817.068" r="14" fill="#e26f46" fill-rule="evenodd" fill-opacity="1" stroke="#000000" stroke-opacity="1" stroke-width="3.2"/>
<circle clip-path="url(#clip583)" cx="2170.56" cy="808.05" r="14" fill="#e26f46" fill-rule="evenodd" fill-opacity="1" stroke="#000000" stroke-opacity="1" stroke-width="3.2"/>
<circle clip-path="url(#clip583)" cx="2189.56" cy="798.356" r="14" fill="#e26f46" fill-rule="evenodd" fill-opacity="1" stroke="#000000" stroke-opacity="1" stroke-width="3.2"/>
<circle clip-path="url(#clip583)" cx="2203.35" cy="788.145" r="14" fill="#e26f46" fill-rule="evenodd" fill-opacity="1" stroke="#000000" stroke-opacity="1" stroke-width="3.2"/>
<circle clip-path="url(#clip583)" cx="2211.72" cy="777.583" r="14" fill="#e26f46" fill-rule="evenodd" fill-opacity="1" stroke="#000000" stroke-opacity="1" stroke-width="3.2"/>
<circle clip-path="url(#clip583)" cx="2214.53" cy="766.846" r="14" fill="#e26f46" fill-rule="evenodd" fill-opacity="1" stroke="#000000" stroke-opacity="1" stroke-width="3.2"/>
<path clip-path="url(#clip580)" d="
M2103.43 328.498 L2320.8 328.498 L2320.8 95.2176 L2103.43 95.2176  Z
  " fill="#ffffff" fill-rule="evenodd" fill-opacity="1"/>
<polyline clip-path="url(#clip580)" style="stroke:#000000; stroke-linecap:butt; stroke-linejoin:round; stroke-width:4; stroke-opacity:1; fill:none" points="
  2103.43,328.498 2320.8,328.498 2320.8,95.2176 2103.43,95.2176 2103.43,328.498 
  "/>
<circle clip-path="url(#clip580)" cx="2146.04" cy="172.978" r="34" fill="#009af9" fill-rule="evenodd" fill-opacity="1" stroke="#000000" stroke-opacity="1" stroke-width="7.68"/>
<path clip-path="url(#clip580)" d="M2188.66 160.009 L2195.04 160.009 L2195.04 198.898 L2188.66 198.898 L2188.66 160.009 M2188.66 144.87 L2195.04 144.87 L2195.04 152.96 L2188.66 152.96 L2188.66 144.87 Z" fill="#000000" fill-rule="evenodd" fill-opacity="1" /><path clip-path="url(#clip580)" d="M2240.74 175.425 L2240.74 198.898 L2234.35 198.898 L2234.35 175.634 Q2234.35 170.113 2232.2 167.37 Q2230.04 164.627 2225.74 164.627 Q2220.56 164.627 2217.58 167.925 Q2214.59 171.224 2214.59 176.919 L2214.59 198.898 L2208.17 198.898 L2208.17 160.009 L2214.59 160.009 L2214.59 166.051 Q2216.88 162.544 2219.97 160.807 Q2223.1 159.071 2227.16 159.071 Q2233.86 159.071 2237.3 163.238 Q2240.74 167.37 2240.74 175.425 Z" fill="#000000" fill-rule="evenodd" fill-opacity="1" /><circle clip-path="url(#clip580)" cx="2146.04" cy="250.738" r="34" fill="#e26f46" fill-rule="evenodd" fill-opacity="1" stroke="#000000" stroke-opacity="1" stroke-width="7.68"/>
<path clip-path="url(#clip580)" d="M2206.5 242.248 Q2201.36 242.248 2198.38 246.276 Q2195.39 250.269 2195.39 257.248 Q2195.39 264.227 2198.34 268.255 Q2201.33 272.248 2206.5 272.248 Q2211.61 272.248 2214.59 268.22 Q2217.58 264.192 2217.58 257.248 Q2217.58 250.338 2214.59 246.31 Q2211.61 242.248 2206.5 242.248 M2206.5 236.831 Q2214.84 236.831 2219.59 242.248 Q2224.35 247.665 2224.35 257.248 Q2224.35 266.796 2219.59 272.248 Q2214.84 277.664 2206.5 277.664 Q2198.13 277.664 2193.38 272.248 Q2188.66 266.796 2188.66 257.248 Q2188.66 247.665 2193.38 242.248 Q2198.13 236.831 2206.5 236.831 Z" fill="#000000" fill-rule="evenodd" fill-opacity="1" /><path clip-path="url(#clip580)" d="M2234.28 261.31 L2234.28 237.769 L2240.67 237.769 L2240.67 261.067 Q2240.67 266.588 2242.82 269.366 Q2244.97 272.109 2249.28 272.109 Q2254.45 272.109 2257.44 268.81 Q2260.46 265.512 2260.46 259.817 L2260.46 237.769 L2266.85 237.769 L2266.85 276.658 L2260.46 276.658 L2260.46 270.685 Q2258.13 274.227 2255.04 275.963 Q2251.99 277.664 2247.93 277.664 Q2241.22 277.664 2237.75 273.498 Q2234.28 269.331 2234.28 261.31 M2250.36 236.831 L2250.36 236.831 Z" fill="#000000" fill-rule="evenodd" fill-opacity="1" /><path clip-path="url(#clip580)" d="M2286.33 226.727 L2286.33 237.769 L2299.49 237.769 L2299.49 242.734 L2286.33 242.734 L2286.33 263.845 Q2286.33 268.602 2287.61 269.956 Q2288.93 271.31 2292.93 271.31 L2299.49 271.31 L2299.49 276.658 L2292.93 276.658 Q2285.53 276.658 2282.72 273.915 Q2279.9 271.137 2279.9 263.845 L2279.9 242.734 L2275.22 242.734 L2275.22 237.769 L2279.9 237.769 L2279.9 226.727 L2286.33 226.727 Z" fill="#000000" fill-rule="evenodd" fill-opacity="1" /></svg>
