<?xml version="1.0" encoding="utf-8"?>
<svg xmlns="http://www.w3.org/2000/svg" xmlns:xlink="http://www.w3.org/1999/xlink" width="600" height="400" viewBox="0 0 2400 1600">
<defs>
  <clipPath id="clip380">
    <rect x="0" y="0" width="2400" height="1600"/>
  </clipPath>
</defs>
<path clip-path="url(#clip380)" d="
M0 1600 L2400 1600 L2400 0 L0 0  Z
  " fill="#ffffff" fill-rule="evenodd" fill-opacity="1"/>
<defs>
  <clipPath id="clip381">
    <rect x="480" y="0" width="1681" height="1600"/>
  </clipPath>
</defs>
<path clip-path="url(#clip380)" d="
M193.936 1486.45 L2352.76 1486.45 L2352.76 47.2441 L193.936 47.2441  Z
  " fill="#ffffff" fill-rule="evenodd" fill-opacity="1"/>
<defs>
  <clipPath id="clip382">
    <rect x="193" y="47" width="2160" height="1440"/>
  </clipPath>
</defs>
<polyline clip-path="url(#clip382)" style="stroke:#000000; stroke-linecap:butt; stroke-linejoin:round; stroke-width:2; stroke-opacity:0.1; fill:none" points="
  240.068,1486.45 240.068,47.2441 
  "/>
<polyline clip-path="url(#clip382)" style="stroke:#000000; stroke-linecap:butt; stroke-linejoin:round; stroke-width:2; stroke-opacity:0.1; fill:none" points="
  682.726,1486.45 682.726,47.2441 
  "/>
<polyline clip-path="url(#clip382)" style="stroke:#000000; stroke-linecap:butt; stroke-linejoin:round; stroke-width:2; stroke-opacity:0.1; fill:none" points="
  1125.38,1486.45 1125.38,47.2441 
  "/>
<polyline clip-path="url(#clip382)" style="stroke:#000000; stroke-linecap:butt; stroke-linejoin:round; stroke-width:2; stroke-opacity:0.1; fill:none" points="
  1568.04,1486.45 1568.04,47.2441 
  "/>
<polyline clip-path="url(#clip382)" style="stroke:#000000; stroke-linecap:butt; stroke-linejoin:round; stroke-width:2; stroke-opacity:0.1; fill:none" points="
  2010.7,1486.45 2010.7,47.2441 
  "/>
<polyline clip-path="url(#clip380)" style="stroke:#000000; stroke-linecap:butt; stroke-linejoin:round; stroke-width:4; stroke-opacity:1; fill:none" points="
  193.936,1486.45 2352.76,1486.45 
  "/>
<polyline clip-path="url(#clip380)" style="stroke:#000000; stroke-linecap:butt; stroke-linejoin:round; stroke-width:4; stroke-opacity:1; fill:none" points="
  240.068,1486.45 240.068,1467.55 
  "/>
<polyline clip-path="url(#clip380)" style="stroke:#000000; stroke-linecap:butt; stroke-linejoin:round; stroke-width:4; stroke-opacity:1; fill:none" points="
  682.726,1486.45 682.726,1467.55 
  "/>
<polyline clip-path="url(#clip380)" style="stroke:#000000; stroke-linecap:butt; stroke-linejoin:round; stroke-width:4; stroke-opacity:1; fill:none" points="
  1125.38,1486.45 1125.38,1467.55 
  "/>
<polyline clip-path="url(#clip380)" style="stroke:#000000; stroke-linecap:butt; stroke-linejoin:round; stroke-width:4; stroke-opacity:1; fill:none" points="
  1568.04,1486.45 1568.04,1467.55 
  "/>
<polyline clip-path="url(#clip380)" style="stroke:#000000; stroke-linecap:butt; stroke-linejoin:round; stroke-width:4; stroke-opacity:1; fill:none" points="
  2010.7,1486.45 2010.7,1467.55 
  "/>
<path clip-path="url(#clip380)" d="M210.01 1532.02 L239.686 1532.02 L239.686 1535.95 L210.01 1535.95 L210.01 1532.02 Z" fill="#000000" fill-rule="evenodd" fill-opacity="1" /><path clip-path="url(#clip380)" d="M253.806 1544.91 L270.126 1544.91 L270.126 1548.85 L248.181 1548.85 L248.181 1544.91 Q250.843 1542.16 255.427 1537.53 Q260.033 1532.88 261.214 1531.53 Q263.459 1529.01 264.339 1527.27 Q265.242 1525.51 265.242 1523.82 Q265.242 1521.07 263.297 1519.33 Q261.376 1517.6 258.274 1517.6 Q256.075 1517.6 253.621 1518.36 Q251.191 1519.13 248.413 1520.68 L248.413 1515.95 Q251.237 1514.82 253.691 1514.24 Q256.144 1513.66 258.181 1513.66 Q263.552 1513.66 266.746 1516.35 Q269.941 1519.03 269.941 1523.52 Q269.941 1525.65 269.13 1527.57 Q268.343 1529.47 266.237 1532.07 Q265.658 1532.74 262.556 1535.95 Q259.455 1539.15 253.806 1544.91 Z" fill="#000000" fill-rule="evenodd" fill-opacity="1" /><path clip-path="url(#clip380)" d="M652.483 1532.02 L682.158 1532.02 L682.158 1535.95 L652.483 1535.95 L652.483 1532.02 Z" fill="#000000" fill-rule="evenodd" fill-opacity="1" /><path clip-path="url(#clip380)" d="M693.061 1544.91 L700.7 1544.91 L700.7 1518.55 L692.39 1520.21 L692.39 1515.95 L700.654 1514.29 L705.33 1514.29 L705.33 1544.91 L712.968 1544.91 L712.968 1548.85 L693.061 1548.85 L693.061 1544.91 Z" fill="#000000" fill-rule="evenodd" fill-opacity="1" /><path clip-path="url(#clip380)" d="M1125.38 1517.37 Q1121.77 1517.37 1119.94 1520.93 Q1118.14 1524.47 1118.14 1531.6 Q1118.14 1538.71 1119.94 1542.27 Q1121.77 1545.82 1125.38 1545.82 Q1129.02 1545.82 1130.82 1542.27 Q1132.65 1538.71 1132.65 1531.6 Q1132.65 1524.47 1130.82 1520.93 Q1129.02 1517.37 1125.38 1517.37 M1125.38 1513.66 Q1131.19 1513.66 1134.25 1518.27 Q1137.33 1522.85 1137.33 1531.6 Q1137.33 1540.33 1134.25 1544.94 Q1131.19 1549.52 1125.38 1549.52 Q1119.57 1549.52 1116.49 1544.94 Q1113.44 1540.33 1113.44 1531.6 Q1113.44 1522.85 1116.49 1518.27 Q1119.57 1513.66 1125.38 1513.66 Z" fill="#000000" fill-rule="evenodd" fill-opacity="1" /><path clip-path="url(#clip380)" d="M1558.42 1544.91 L1566.06 1544.91 L1566.06 1518.55 L1557.75 1520.21 L1557.75 1515.95 L1566.02 1514.29 L1570.69 1514.29 L1570.69 1544.91 L1578.33 1544.91 L1578.33 1548.85 L1558.42 1548.85 L1558.42 1544.91 Z" fill="#000000" fill-rule="evenodd" fill-opacity="1" /><path clip-path="url(#clip380)" d="M2005.35 1544.91 L2021.67 1544.91 L2021.67 1548.85 L1999.73 1548.85 L1999.73 1544.91 Q2002.39 1542.16 2006.97 1537.53 Q2011.58 1532.88 2012.76 1531.53 Q2015 1529.01 2015.88 1527.27 Q2016.79 1525.51 2016.79 1523.82 Q2016.79 1521.07 2014.84 1519.33 Q2012.92 1517.6 2009.82 1517.6 Q2007.62 1517.6 2005.17 1518.36 Q2002.74 1519.13 1999.96 1520.68 L1999.96 1515.95 Q2002.78 1514.82 2005.24 1514.24 Q2007.69 1513.66 2009.73 1513.66 Q2015.1 1513.66 2018.29 1516.35 Q2021.49 1519.03 2021.49 1523.52 Q2021.49 1525.65 2020.67 1527.57 Q2019.89 1529.47 2017.78 1532.07 Q2017.2 1532.74 2014.1 1535.95 Q2011 1539.15 2005.35 1544.91 Z" fill="#000000" fill-rule="evenodd" fill-opacity="1" /><polyline clip-path="url(#clip382)" style="stroke:#000000; stroke-linecap:butt; stroke-linejoin:round; stroke-width:2; stroke-opacity:0.1; fill:none" points="
  193.936,1430.83 2352.76,1430.83 
  "/>
<polyline clip-path="url(#clip382)" style="stroke:#000000; stroke-linecap:butt; stroke-linejoin:round; stroke-width:2; stroke-opacity:0.1; fill:none" points="
  193.936,1209.5 2352.76,1209.5 
  "/>
<polyline clip-path="url(#clip382)" style="stroke:#000000; stroke-linecap:butt; stroke-linejoin:round; stroke-width:2; stroke-opacity:0.1; fill:none" points="
  193.936,988.175 2352.76,988.175 
  "/>
<polyline clip-path="url(#clip382)" style="stroke:#000000; stroke-linecap:butt; stroke-linejoin:round; stroke-width:2; stroke-opacity:0.1; fill:none" points="
  193.936,766.846 2352.76,766.846 
  "/>
<polyline clip-path="url(#clip382)" style="stroke:#000000; stroke-linecap:butt; stroke-linejoin:round; stroke-width:2; stroke-opacity:0.1; fill:none" points="
  193.936,545.517 2352.76,545.517 
  "/>
<polyline clip-path="url(#clip382)" style="stroke:#000000; stroke-linecap:butt; stroke-linejoin:round; stroke-width:2; stroke-opacity:0.1; fill:none" points="
  193.936,324.188 2352.76,324.188 
  "/>
<polyline clip-path="url(#clip382)" style="stroke:#000000; stroke-linecap:butt; stroke-linejoin:round; stroke-width:2; stroke-opacity:0.1; fill:none" points="
  193.936,102.86 2352.76,102.86 
  "/>
<polyline clip-path="url(#clip380)" style="stroke:#000000; stroke-linecap:butt; stroke-linejoin:round; stroke-width:4; stroke-opacity:1; fill:none" points="
  193.936,1486.45 193.936,47.2441 
  "/>
<polyline clip-path="url(#clip380)" style="stroke:#000000; stroke-linecap:butt; stroke-linejoin:round; stroke-width:4; stroke-opacity:1; fill:none" points="
  193.936,1430.83 212.834,1430.83 
  "/>
<polyline clip-path="url(#clip380)" style="stroke:#000000; stroke-linecap:butt; stroke-linejoin:round; stroke-width:4; stroke-opacity:1; fill:none" points="
  193.936,1209.5 212.834,1209.5 
  "/>
<polyline clip-path="url(#clip380)" style="stroke:#000000; stroke-linecap:butt; stroke-linejoin:round; stroke-width:4; stroke-opacity:1; fill:none" points="
  193.936,988.175 212.834,988.175 
  "/>
<polyline clip-path="url(#clip380)" style="stroke:#000000; stroke-linecap:butt; stroke-linejoin:round; stroke-width:4; stroke-opacity:1; fill:none" points="
  193.936,766.846 212.834,766.846 
  "/>
<polyline clip-path="url(#clip380)" style="stroke:#000000; stroke-linecap:butt; stroke-linejoin:round; stroke-width:4; stroke-opacity:1; fill:none" points="
  193.936,545.517 212.834,545.517 
  "/>
<polyline clip-path="url(#clip380)" style="stroke:#000000; stroke-linecap:butt; stroke-linejoin:round; stroke-width:4; stroke-opacity:1; fill:none" points="
  193.936,324.188 212.834,324.188 
  "/>
<polyline clip-path="url(#clip380)" style="stroke:#000000; stroke-linecap:butt; stroke-linejoin:round; stroke-width:4; stroke-opacity:1; fill:none" points="
  193.936,102.86 212.834,102.86 
  "/>
<path clip-path="url(#clip380)" d="M51.9875 1431.28 L81.6633 1431.28 L81.6633 1435.22 L51.9875 1435.22 L51.9875 1431.28 Z" fill="#000000" fill-rule="evenodd" fill-opacity="1" /><path clip-path="url(#clip380)" d="M92.566 1444.18 L100.205 1444.18 L100.205 1417.81 L91.8947 1419.48 L91.8947 1415.22 L100.159 1413.55 L104.834 1413.55 L104.834 1444.18 L112.473 1444.18 L112.473 1448.11 L92.566 1448.11 L92.566 1444.18 Z" fill="#000000" fill-rule="evenodd" fill-opacity="1" /><path clip-path="url(#clip380)" d="M121.918 1442.23 L126.802 1442.23 L126.802 1448.11 L121.918 1448.11 L121.918 1442.23 Z" fill="#000000" fill-rule="evenodd" fill-opacity="1" /><path clip-path="url(#clip380)" d="M137.033 1413.55 L155.39 1413.55 L155.39 1417.49 L141.316 1417.49 L141.316 1425.96 Q142.334 1425.61 143.353 1425.45 Q144.371 1425.27 145.39 1425.27 Q151.177 1425.27 154.556 1428.44 Q157.936 1431.61 157.936 1437.02 Q157.936 1442.6 154.464 1445.7 Q150.992 1448.78 144.672 1448.78 Q142.496 1448.78 140.228 1448.41 Q137.982 1448.04 135.575 1447.3 L135.575 1442.6 Q137.658 1443.74 139.881 1444.29 Q142.103 1444.85 144.58 1444.85 Q148.584 1444.85 150.922 1442.74 Q153.26 1440.64 153.26 1437.02 Q153.26 1433.41 150.922 1431.31 Q148.584 1429.2 144.58 1429.2 Q142.705 1429.2 140.83 1429.62 Q138.978 1430.03 137.033 1430.91 L137.033 1413.55 Z" fill="#000000" fill-rule="evenodd" fill-opacity="1" /><path clip-path="url(#clip380)" d="M50.9921 1209.95 L80.6679 1209.95 L80.6679 1213.89 L50.9921 1213.89 L50.9921 1209.95 Z" fill="#000000" fill-rule="evenodd" fill-opacity="1" /><path clip-path="url(#clip380)" d="M91.5706 1222.85 L99.2095 1222.85 L99.2095 1196.48 L90.8993 1198.15 L90.8993 1193.89 L99.1632 1192.22 L103.839 1192.22 L103.839 1222.85 L111.478 1222.85 L111.478 1226.78 L91.5706 1226.78 L91.5706 1222.85 Z" fill="#000000" fill-rule="evenodd" fill-opacity="1" /><path clip-path="url(#clip380)" d="M120.922 1220.9 L125.807 1220.9 L125.807 1226.78 L120.922 1226.78 L120.922 1220.9 Z" fill="#000000" fill-rule="evenodd" fill-opacity="1" /><path clip-path="url(#clip380)" d="M145.992 1195.3 Q142.381 1195.3 140.552 1198.87 Q138.746 1202.41 138.746 1209.54 Q138.746 1216.64 140.552 1220.21 Q142.381 1223.75 145.992 1223.75 Q149.626 1223.75 151.431 1220.21 Q153.26 1216.64 153.26 1209.54 Q153.26 1202.41 151.431 1198.87 Q149.626 1195.3 145.992 1195.3 M145.992 1191.6 Q151.802 1191.6 154.857 1196.2 Q157.936 1200.79 157.936 1209.54 Q157.936 1218.27 154.857 1222.87 Q151.802 1227.45 145.992 1227.45 Q140.181 1227.45 137.103 1222.87 Q134.047 1218.27 134.047 1209.54 Q134.047 1200.79 137.103 1196.2 Q140.181 1191.6 145.992 1191.6 Z" fill="#000000" fill-rule="evenodd" fill-opacity="1" /><path clip-path="url(#clip380)" d="M51.9875 988.626 L81.6633 988.626 L81.6633 992.561 L51.9875 992.561 L51.9875 988.626 Z" fill="#000000" fill-rule="evenodd" fill-opacity="1" /><path clip-path="url(#clip380)" d="M101.756 973.973 Q98.1447 973.973 96.316 977.538 Q94.5104 981.08 94.5104 988.209 Q94.5104 995.316 96.316 998.881 Q98.1447 1002.42 101.756 1002.42 Q105.39 1002.42 107.196 998.881 Q109.024 995.316 109.024 988.209 Q109.024 981.08 107.196 977.538 Q105.39 973.973 101.756 973.973 M101.756 970.27 Q107.566 970.27 110.621 974.876 Q113.7 979.46 113.7 988.209 Q113.7 996.936 110.621 1001.54 Q107.566 1006.13 101.756 1006.13 Q95.9456 1006.13 92.8669 1001.54 Q89.8114 996.936 89.8114 988.209 Q89.8114 979.46 92.8669 974.876 Q95.9456 970.27 101.756 970.27 Z" fill="#000000" fill-rule="evenodd" fill-opacity="1" /><path clip-path="url(#clip380)" d="M121.918 999.575 L126.802 999.575 L126.802 1005.45 L121.918 1005.45 L121.918 999.575 Z" fill="#000000" fill-rule="evenodd" fill-opacity="1" /><path clip-path="url(#clip380)" d="M137.033 970.895 L155.39 970.895 L155.39 974.83 L141.316 974.83 L141.316 983.302 Q142.334 982.955 143.353 982.793 Q144.371 982.608 145.39 982.608 Q151.177 982.608 154.556 985.779 Q157.936 988.95 157.936 994.367 Q157.936 999.946 154.464 1003.05 Q150.992 1006.13 144.672 1006.13 Q142.496 1006.13 140.228 1005.76 Q137.982 1005.39 135.575 1004.64 L135.575 999.946 Q137.658 1001.08 139.881 1001.64 Q142.103 1002.19 144.58 1002.19 Q148.584 1002.19 150.922 1000.08 Q153.26 997.978 153.26 994.367 Q153.26 990.756 150.922 988.649 Q148.584 986.543 144.58 986.543 Q142.705 986.543 140.83 986.959 Q138.978 987.376 137.033 988.256 L137.033 970.895 Z" fill="#000000" fill-rule="evenodd" fill-opacity="1" /><path clip-path="url(#clip380)" d="M100.76 752.645 Q97.1493 752.645 95.3206 756.209 Q93.515 759.751 93.515 766.881 Q93.515 773.987 95.3206 777.552 Q97.1493 781.094 100.76 781.094 Q104.395 781.094 106.2 777.552 Q108.029 773.987 108.029 766.881 Q108.029 759.751 106.2 756.209 Q104.395 752.645 100.76 752.645 M100.76 748.941 Q106.571 748.941 109.626 753.547 Q112.705 758.131 112.705 766.881 Q112.705 775.608 109.626 780.214 Q106.571 784.797 100.76 784.797 Q94.9502 784.797 91.8715 780.214 Q88.816 775.608 88.816 766.881 Q88.816 758.131 91.8715 753.547 Q94.9502 748.941 100.76 748.941 Z" fill="#000000" fill-rule="evenodd" fill-opacity="1" /><path clip-path="url(#clip380)" d="M120.922 778.246 L125.807 778.246 L125.807 784.126 L120.922 784.126 L120.922 778.246 Z" fill="#000000" fill-rule="evenodd" fill-opacity="1" /><path clip-path="url(#clip380)" d="M145.992 752.645 Q142.381 752.645 140.552 756.209 Q138.746 759.751 138.746 766.881 Q138.746 773.987 140.552 777.552 Q142.381 781.094 145.992 781.094 Q149.626 781.094 151.431 777.552 Q153.26 773.987 153.26 766.881 Q153.26 759.751 151.431 756.209 Q149.626 752.645 145.992 752.645 M145.992 748.941 Q151.802 748.941 154.857 753.547 Q157.936 758.131 157.936 766.881 Q157.936 775.608 154.857 780.214 Q151.802 784.797 145.992 784.797 Q140.181 784.797 137.103 780.214 Q134.047 775.608 134.047 766.881 Q134.047 758.131 137.103 753.547 Q140.181 748.941 145.992 748.941 Z" fill="#000000" fill-rule="evenodd" fill-opacity="1" /><path clip-path="url(#clip380)" d="M101.756 531.316 Q98.1447 531.316 96.316 534.881 Q94.5104 538.422 94.5104 545.552 Q94.5104 552.658 96.316 556.223 Q98.1447 559.765 101.756 559.765 Q105.39 559.765 107.196 556.223 Q109.024 552.658 109.024 545.552 Q109.024 538.422 107.196 534.881 Q105.39 531.316 101.756 531.316 M101.756 527.612 Q107.566 527.612 110.621 532.219 Q113.7 536.802 113.7 545.552 Q113.7 554.279 110.621 558.885 Q107.566 563.469 101.756 563.469 Q95.9456 563.469 92.8669 558.885 Q89.8114 554.279 89.8114 545.552 Q89.8114 536.802 92.8669 532.219 Q95.9456 527.612 101.756 527.612 Z" fill="#000000" fill-rule="evenodd" fill-opacity="1" /><path clip-path="url(#clip380)" d="M121.918 556.918 L126.802 556.918 L126.802 562.797 L121.918 562.797 L121.918 556.918 Z" fill="#000000" fill-rule="evenodd" fill-opacity="1" /><path clip-path="url(#clip380)" d="M137.033 528.237 L155.39 528.237 L155.39 532.172 L141.316 532.172 L141.316 540.645 Q142.334 540.297 143.353 540.135 Q144.371 539.95 145.39 539.95 Q151.177 539.95 154.556 543.121 Q157.936 546.293 157.936 551.709 Q157.936 557.288 154.464 560.39 Q150.992 563.469 144.672 563.469 Q142.496 563.469 140.228 563.098 Q137.982 562.728 135.575 561.987 L135.575 557.288 Q137.658 558.422 139.881 558.978 Q142.103 559.533 144.58 559.533 Q148.584 559.533 150.922 557.427 Q153.26 555.32 153.26 551.709 Q153.26 548.098 150.922 545.992 Q148.584 543.885 144.58 543.885 Q142.705 543.885 140.83 544.302 Q138.978 544.719 137.033 545.598 L137.033 528.237 Z" fill="#000000" fill-rule="evenodd" fill-opacity="1" /><path clip-path="url(#clip380)" d="M91.5706 337.533 L99.2095 337.533 L99.2095 311.168 L90.8993 312.834 L90.8993 308.575 L99.1632 306.908 L103.839 306.908 L103.839 337.533 L111.478 337.533 L111.478 341.468 L91.5706 341.468 L91.5706 337.533 Z" fill="#000000" fill-rule="evenodd" fill-opacity="1" /><path clip-path="url(#clip380)" d="M120.922 335.589 L125.807 335.589 L125.807 341.468 L120.922 341.468 L120.922 335.589 Z" fill="#000000" fill-rule="evenodd" fill-opacity="1" /><path clip-path="url(#clip380)" d="M145.992 309.987 Q142.381 309.987 140.552 313.552 Q138.746 317.094 138.746 324.223 Q138.746 331.33 140.552 334.894 Q142.381 338.436 145.992 338.436 Q149.626 338.436 151.431 334.894 Q153.26 331.33 153.26 324.223 Q153.26 317.094 151.431 313.552 Q149.626 309.987 145.992 309.987 M145.992 306.283 Q151.802 306.283 154.857 310.89 Q157.936 315.473 157.936 324.223 Q157.936 332.95 154.857 337.556 Q151.802 342.14 145.992 342.14 Q140.181 342.14 137.103 337.556 Q134.047 332.95 134.047 324.223 Q134.047 315.473 137.103 310.89 Q140.181 306.283 145.992 306.283 Z" fill="#000000" fill-rule="evenodd" fill-opacity="1" /><path clip-path="url(#clip380)" d="M92.566 116.205 L100.205 116.205 L100.205 89.8389 L91.8947 91.5056 L91.8947 87.2463 L100.159 85.5797 L104.834 85.5797 L104.834 116.205 L112.473 116.205 L112.473 120.14 L92.566 120.14 L92.566 116.205 Z" fill="#000000" fill-rule="evenodd" fill-opacity="1" /><path clip-path="url(#clip380)" d="M121.918 114.26 L126.802 114.26 L126.802 120.14 L121.918 120.14 L121.918 114.26 Z" fill="#000000" fill-rule="evenodd" fill-opacity="1" /><path clip-path="url(#clip380)" d="M137.033 85.5797 L155.39 85.5797 L155.39 89.5149 L141.316 89.5149 L141.316 97.987 Q142.334 97.6398 143.353 97.4778 Q144.371 97.2926 145.39 97.2926 Q151.177 97.2926 154.556 100.464 Q157.936 103.635 157.936 109.052 Q157.936 114.63 154.464 117.732 Q150.992 120.811 144.672 120.811 Q142.496 120.811 140.228 120.441 Q137.982 120.07 135.575 119.33 L135.575 114.63 Q137.658 115.765 139.881 116.32 Q142.103 116.876 144.58 116.876 Q148.584 116.876 150.922 114.769 Q153.26 112.663 153.26 109.052 Q153.26 105.441 150.922 103.334 Q148.584 101.228 144.58 101.228 Q142.705 101.228 140.83 101.644 Q138.978 102.061 137.033 102.941 L137.033 85.5797 Z" fill="#000000" fill-rule="evenodd" fill-opacity="1" /><circle clip-path="url(#clip382)" cx="1568.04" cy="766.846" r="14" fill="#009af9" fill-rule="evenodd" fill-opacity="1" stroke="#000000" stroke-opacity="1" stroke-width="3.2"/>
<circle clip-path="url(#clip382)" cx="1697.12" cy="693.128" r="14" fill="#009af9" fill-rule="evenodd" fill-opacity="1" stroke="#000000" stroke-opacity="1" stroke-width="3.2"/>
<circle clip-path="url(#clip382)" cx="1798.78" cy="590.26" r="14" fill="#009af9" fill-rule="evenodd" fill-opacity="1" stroke="#000000" stroke-opacity="1" stroke-width="3.2"/>
<circle clip-path="url(#clip382)" cx="1857.03" cy="470.634" r="14" fill="#009af9" fill-rule="evenodd" fill-opacity="1" stroke="#000000" stroke-opacity="1" stroke-width="3.2"/>
<circle clip-path="url(#clip382)" cx="1863.17" cy="351.331" r="14" fill="#009af9" fill-rule="evenodd" fill-opacity="1" stroke="#000000" stroke-opacity="1" stroke-width="3.2"/>
<circle clip-path="url(#clip382)" cx="1817.36" cy="250.412" r="14" fill="#009af9" fill-rule="evenodd" fill-opacity="1" stroke="#000000" stroke-opacity="1" stroke-width="3.2"/>
<circle clip-path="url(#clip382)" cx="1728.22" cy="183.035" r="14" fill="#009af9" fill-rule="evenodd" fill-opacity="1" stroke="#000000" stroke-opacity="1" stroke-width="3.2"/>
<circle clip-path="url(#clip382)" cx="1610.72" cy="158.254" r="14" fill="#009af9" fill-rule="evenodd" fill-opacity="1" stroke="#000000" stroke-opacity="1" stroke-width="3.2"/>
<circle clip-path="url(#clip382)" cx="1482.8" cy="177.244" r="14" fill="#009af9" fill-rule="evenodd" fill-opacity="1" stroke="#000000" stroke-opacity="1" stroke-width="3.2"/>
<circle clip-path="url(#clip382)" cx="1361.57" cy="233.307" r="14" fill="#009af9" fill-rule="evenodd" fill-opacity="1" stroke="#000000" stroke-opacity="1" stroke-width="3.2"/>
<circle clip-path="url(#clip382)" cx="1259.9" cy="313.615" r="14" fill="#009af9" fill-rule="evenodd" fill-opacity="1" stroke="#000000" stroke-opacity="1" stroke-width="3.2"/>
<circle clip-path="url(#clip382)" cx="1184.33" cy="402.216" r="14" fill="#009af9" fill-rule="evenodd" fill-opacity="1" stroke="#000000" stroke-opacity="1" stroke-width="3.2"/>
<circle clip-path="url(#clip382)" cx="1134.47" cy="483.562" r="14" fill="#009af9" fill-rule="evenodd" fill-opacity="1" stroke="#000000" stroke-opacity="1" stroke-width="3.2"/>
<circle clip-path="url(#clip382)" cx="1104.05" cy="545.73" r="14" fill="#009af9" fill-rule="evenodd" fill-opacity="1" stroke="#000000" stroke-opacity="1" stroke-width="3.2"/>
<circle clip-path="url(#clip382)" cx="1083.33" cy="582.597" r="14" fill="#009af9" fill-rule="evenodd" fill-opacity="1" stroke="#000000" stroke-opacity="1" stroke-width="3.2"/>
<circle clip-path="url(#clip382)" cx="1061.97" cy="594.54" r="14" fill="#009af9" fill-rule="evenodd" fill-opacity="1" stroke="#000000" stroke-opacity="1" stroke-width="3.2"/>
<circle clip-path="url(#clip382)" cx="1031.87" cy="587.592" r="14" fill="#009af9" fill-rule="evenodd" fill-opacity="1" stroke="#000000" stroke-opacity="1" stroke-width="3.2"/>
<circle clip-path="url(#clip382)" cx="989.037" cy="571.384" r="14" fill="#009af9" fill-rule="evenodd" fill-opacity="1" stroke="#000000" stroke-opacity="1" stroke-width="3.2"/>
<circle clip-path="url(#clip382)" cx="934.32" cy="556.464" r="14" fill="#009af9" fill-rule="evenodd" fill-opacity="1" stroke="#000000" stroke-opacity="1" stroke-width="3.2"/>
<circle clip-path="url(#clip382)" cx="872.673" cy="551.711" r="14" fill="#009af9" fill-rule="evenodd" fill-opacity="1" stroke="#000000" stroke-opacity="1" stroke-width="3.2"/>
<circle clip-path="url(#clip382)" cx="811.445" cy="562.495" r="14" fill="#009af9" fill-rule="evenodd" fill-opacity="1" stroke="#000000" stroke-opacity="1" stroke-width="3.2"/>
<circle clip-path="url(#clip382)" cx="758.12" cy="589.982" r="14" fill="#009af9" fill-rule="evenodd" fill-opacity="1" stroke="#000000" stroke-opacity="1" stroke-width="3.2"/>
<circle clip-path="url(#clip382)" cx="718.215" cy="631.657" r="14" fill="#009af9" fill-rule="evenodd" fill-opacity="1" stroke="#000000" stroke-opacity="1" stroke-width="3.2"/>
<circle clip-path="url(#clip382)" cx="693.907" cy="682.816" r="14" fill="#009af9" fill-rule="evenodd" fill-opacity="1" stroke="#000000" stroke-opacity="1" stroke-width="3.2"/>
<circle clip-path="url(#clip382)" cx="683.751" cy="738.492" r="14" fill="#009af9" fill-rule="evenodd" fill-opacity="1" stroke="#000000" stroke-opacity="1" stroke-width="3.2"/>
<circle clip-path="url(#clip382)" cx="683.519" cy="795.215" r="14" fill="#009af9" fill-rule="evenodd" fill-opacity="1" stroke="#000000" stroke-opacity="1" stroke-width="3.2"/>
<circle clip-path="url(#clip382)" cx="687.87" cy="852.052" r="14" fill="#009af9" fill-rule="evenodd" fill-opacity="1" stroke="#000000" stroke-opacity="1" stroke-width="3.2"/>
<circle clip-path="url(#clip382)" cx="692.338" cy="910.627" r="14" fill="#009af9" fill-rule="evenodd" fill-opacity="1" stroke="#000000" stroke-opacity="1" stroke-width="3.2"/>
<circle clip-path="url(#clip382)" cx="695.005" cy="974.105" r="14" fill="#009af9" fill-rule="evenodd" fill-opacity="1" stroke="#000000" stroke-opacity="1" stroke-width="3.2"/>
<circle clip-path="url(#clip382)" cx="697.349" cy="1045.47" r="14" fill="#009af9" fill-rule="evenodd" fill-opacity="1" stroke="#000000" stroke-opacity="1" stroke-width="3.2"/>
<circle clip-path="url(#clip382)" cx="703.973" cy="1125.6" r="14" fill="#009af9" fill-rule="evenodd" fill-opacity="1" stroke="#000000" stroke-opacity="1" stroke-width="3.2"/>
<circle clip-path="url(#clip382)" cx="721.249" cy="1211.84" r="14" fill="#009af9" fill-rule="evenodd" fill-opacity="1" stroke="#000000" stroke-opacity="1" stroke-width="3.2"/>
<circle clip-path="url(#clip382)" cx="755.226" cy="1297.49" r="14" fill="#009af9" fill-rule="evenodd" fill-opacity="1" stroke="#000000" stroke-opacity="1" stroke-width="3.2"/>
<circle clip-path="url(#clip382)" cx="809.408" cy="1372.51" r="14" fill="#009af9" fill-rule="evenodd" fill-opacity="1" stroke="#000000" stroke-opacity="1" stroke-width="3.2"/>
<circle clip-path="url(#clip382)" cx="883.037" cy="1425.38" r="14" fill="#009af9" fill-rule="evenodd" fill-opacity="1" stroke="#000000" stroke-opacity="1" stroke-width="3.2"/>
<circle clip-path="url(#clip382)" cx="970.436" cy="1445.72" r="14" fill="#009af9" fill-rule="evenodd" fill-opacity="1" stroke="#000000" stroke-opacity="1" stroke-width="3.2"/>
<circle clip-path="url(#clip382)" cx="1061.7" cy="1426.95" r="14" fill="#009af9" fill-rule="evenodd" fill-opacity="1" stroke="#000000" stroke-opacity="1" stroke-width="3.2"/>
<circle clip-path="url(#clip382)" cx="1144.67" cy="1368.42" r="14" fill="#009af9" fill-rule="evenodd" fill-opacity="1" stroke="#000000" stroke-opacity="1" stroke-width="3.2"/>
<circle clip-path="url(#clip382)" cx="1207.73" cy="1276.18" r="14" fill="#009af9" fill-rule="evenodd" fill-opacity="1" stroke="#000000" stroke-opacity="1" stroke-width="3.2"/>
<circle clip-path="url(#clip382)" cx="1242.76" cy="1162.34" r="14" fill="#009af9" fill-rule="evenodd" fill-opacity="1" stroke="#000000" stroke-opacity="1" stroke-width="3.2"/>
<circle clip-path="url(#clip382)" cx="1247.56" cy="1042.85" r="14" fill="#009af9" fill-rule="evenodd" fill-opacity="1" stroke="#000000" stroke-opacity="1" stroke-width="3.2"/>
<circle clip-path="url(#clip382)" cx="1226.9" cy="934.315" r="14" fill="#009af9" fill-rule="evenodd" fill-opacity="1" stroke="#000000" stroke-opacity="1" stroke-width="3.2"/>
<circle clip-path="url(#clip382)" cx="1192.03" cy="850.422" r="14" fill="#009af9" fill-rule="evenodd" fill-opacity="1" stroke="#000000" stroke-opacity="1" stroke-width="3.2"/>
<circle clip-path="url(#clip382)" cx="1158.52" cy="798.933" r="14" fill="#009af9" fill-rule="evenodd" fill-opacity="1" stroke="#000000" stroke-opacity="1" stroke-width="3.2"/>
<circle clip-path="url(#clip382)" cx="1142.91" cy="779.928" r="14" fill="#009af9" fill-rule="evenodd" fill-opacity="1" stroke="#000000" stroke-opacity="1" stroke-width="3.2"/>
<circle clip-path="url(#clip382)" cx="1158.98" cy="785.77" r="14" fill="#009af9" fill-rule="evenodd" fill-opacity="1" stroke="#000000" stroke-opacity="1" stroke-width="3.2"/>
<circle clip-path="url(#clip382)" cx="1214.35" cy="802.864" r="14" fill="#009af9" fill-rule="evenodd" fill-opacity="1" stroke="#000000" stroke-opacity="1" stroke-width="3.2"/>
<circle clip-path="url(#clip382)" cx="1308.34" cy="814.824" r="14" fill="#009af9" fill-rule="evenodd" fill-opacity="1" stroke="#000000" stroke-opacity="1" stroke-width="3.2"/>
<circle clip-path="url(#clip382)" cx="1431.69" cy="806.34" r="14" fill="#009af9" fill-rule="evenodd" fill-opacity="1" stroke="#000000" stroke-opacity="1" stroke-width="3.2"/>
<circle clip-path="url(#clip382)" cx="1568.04" cy="766.846" r="14" fill="#009af9" fill-rule="evenodd" fill-opacity="1" stroke="#000000" stroke-opacity="1" stroke-width="3.2"/>
<circle clip-path="url(#clip382)" cx="1568.04" cy="766.846" r="14" fill="#e26f46" fill-rule="evenodd" fill-opacity="1" stroke="#000000" stroke-opacity="1" stroke-width="3.2"/>
<circle clip-path="url(#clip382)" cx="1697.12" cy="840.564" r="14" fill="#e26f46" fill-rule="evenodd" fill-opacity="1" stroke="#000000" stroke-opacity="1" stroke-width="3.2"/>
<circle clip-path="url(#clip382)" cx="1798.78" cy="943.432" r="14" fill="#e26f46" fill-rule="evenodd" fill-opacity="1" stroke="#000000" stroke-opacity="1" stroke-width="3.2"/>
<circle clip-path="url(#clip382)" cx="1857.03" cy="1063.06" r="14" fill="#e26f46" fill-rule="evenodd" fill-opacity="1" stroke="#000000" stroke-opacity="1" stroke-width="3.2"/>
<circle clip-path="url(#clip382)" cx="1863.17" cy="1182.36" r="14" fill="#e26f46" fill-rule="evenodd" fill-opacity="1" stroke="#000000" stroke-opacity="1" stroke-width="3.2"/>
<circle clip-path="url(#clip382)" cx="1817.36" cy="1283.28" r="14" fill="#e26f46" fill-rule="evenodd" fill-opacity="1" stroke="#000000" stroke-opacity="1" stroke-width="3.2"/>
<circle clip-path="url(#clip382)" cx="1728.22" cy="1350.66" r="14" fill="#e26f46" fill-rule="evenodd" fill-opacity="1" stroke="#000000" stroke-opacity="1" stroke-width="3.2"/>
<circle clip-path="url(#clip382)" cx="1610.72" cy="1375.44" r="14" fill="#e26f46" fill-rule="evenodd" fill-opacity="1" stroke="#000000" stroke-opacity="1" stroke-width="3.2"/>
<circle clip-path="url(#clip382)" cx="1482.8" cy="1356.45" r="14" fill="#e26f46" fill-rule="evenodd" fill-opacity="1" stroke="#000000" stroke-opacity="1" stroke-width="3.2"/>
<circle clip-path="url(#clip382)" cx="1361.57" cy="1300.38" r="14" fill="#e26f46" fill-rule="evenodd" fill-opacity="1" stroke="#000000" stroke-opacity="1" stroke-width="3.2"/>
<circle clip-path="url(#clip382)" cx="1259.9" cy="1220.08" r="14" fill="#e26f46" fill-rule="evenodd" fill-opacity="1" stroke="#000000" stroke-opacity="1" stroke-width="3.2"/>
<circle clip-path="url(#clip382)" cx="1184.33" cy="1131.48" r="14" fill="#e26f46" fill-rule="evenodd" fill-opacity="1" stroke="#000000" stroke-opacity="1" stroke-width="3.2"/>
<circle clip-path="url(#clip382)" cx="1134.47" cy="1050.13" r="14" fill="#e26f46" fill-rule="evenodd" fill-opacity="1" stroke="#000000" stroke-opacity="1" stroke-width="3.2"/>
<circle clip-path="url(#clip382)" cx="1104.05" cy="987.962" r="14" fill="#e26f46" fill-rule="evenodd" fill-opacity="1" stroke="#000000" stroke-opacity="1" stroke-width="3.2"/>
<circle clip-path="url(#clip382)" cx="1083.33" cy="951.095" r="14" fill="#e26f46" fill-rule="evenodd" fill-opacity="1" stroke="#000000" stroke-opacity="1" stroke-width="3.2"/>
<circle clip-path="url(#clip382)" cx="1061.97" cy="939.152" r="14" fill="#e26f46" fill-rule="evenodd" fill-opacity="1" stroke="#000000" stroke-opacity="1" stroke-width="3.2"/>
<circle clip-path="url(#clip382)" cx="1031.87" cy="946.1" r="14" fill="#e26f46" fill-rule="evenodd" fill-opacity="1" stroke="#000000" stroke-opacity="1" stroke-width="3.2"/>
<circle clip-path="url(#clip382)" cx="989.037" cy="962.308" r="14" fill="#e26f46" fill-rule="evenodd" fill-opacity="1" stroke="#000000" stroke-opacity="1" stroke-width="3.2"/>
<circle clip-path="url(#clip382)" cx="934.32" cy="977.228" r="14" fill="#e26f46" fill-rule="evenodd" fill-opacity="1" stroke="#000000" stroke-opacity="1" stroke-width="3.2"/>
<circle clip-path="url(#clip382)" cx="872.673" cy="981.981" r="14" fill="#e26f46" fill-rule="evenodd" fill-opacity="1" stroke="#000000" stroke-opacity="1" stroke-width="3.2"/>
<circle clip-path="url(#clip382)" cx="811.445" cy="971.197" r="14" fill="#e26f46" fill-rule="evenodd" fill-opacity="1" stroke="#000000" stroke-opacity="1" stroke-width="3.2"/>
<circle clip-path="url(#clip382)" cx="758.12" cy="943.71" r="14" fill="#e26f46" fill-rule="evenodd" fill-opacity="1" stroke="#000000" stroke-opacity="1" stroke-width="3.2"/>
<circle clip-path="url(#clip382)" cx="718.215" cy="902.035" r="14" fill="#e26f46" fill-rule="evenodd" fill-opacity="1" stroke="#000000" stroke-opacity="1" stroke-width="3.2"/>
<circle clip-path="url(#clip382)" cx="693.907" cy="850.876" r="14" fill="#e26f46" fill-rule="evenodd" fill-opacity="1" stroke="#000000" stroke-opacity="1" stroke-width="3.2"/>
<circle clip-path="url(#clip382)" cx="683.751" cy="795.2" r="14" fill="#e26f46" fill-rule="evenodd" fill-opacity="1" stroke="#000000" stroke-opacity="1" stroke-width="3.2"/>
<circle clip-path="url(#clip382)" cx="683.519" cy="738.477" r="14" fill="#e26f46" fill-rule="evenodd" fill-opacity="1" stroke="#000000" stroke-opacity="1" stroke-width="3.2"/>
<circle clip-path="url(#clip382)" cx="687.87" cy="681.64" r="14" fill="#e26f46" fill-rule="evenodd" fill-opacity="1" stroke="#000000" stroke-opacity="1" stroke-width="3.2"/>
<circle clip-path="url(#clip382)" cx="692.338" cy="623.065" r="14" fill="#e26f46" fill-rule="evenodd" fill-opacity="1" stroke="#000000" stroke-opacity="1" stroke-width="3.2"/>
<circle clip-path="url(#clip382)" cx="695.005" cy="559.587" r="14" fill="#e26f46" fill-rule="evenodd" fill-opacity="1" stroke="#000000" stroke-opacity="1" stroke-width="3.2"/>
<circle clip-path="url(#clip382)" cx="697.349" cy="488.227" r="14" fill="#e26f46" fill-rule="evenodd" fill-opacity="1" stroke="#000000" stroke-opacity="1" stroke-width="3.2"/>
<circle clip-path="url(#clip382)" cx="703.973" cy="408.095" r="14" fill="#e26f46" fill-rule="evenodd" fill-opacity="1" stroke="#000000" stroke-opacity="1" stroke-width="3.2"/>
<circle clip-path="url(#clip382)" cx="721.249" cy="321.849" r="14" fill="#e26f46" fill-rule="evenodd" fill-opacity="1" stroke="#000000" stroke-opacity="1" stroke-width="3.2"/>
<circle clip-path="url(#clip382)" cx="755.226" cy="236.197" r="14" fill="#e26f46" fill-rule="evenodd" fill-opacity="1" stroke="#000000" stroke-opacity="1" stroke-width="3.2"/>
<circle clip-path="url(#clip382)" cx="809.408" cy="161.181" r="14" fill="#e26f46" fill-rule="evenodd" fill-opacity="1" stroke="#000000" stroke-opacity="1" stroke-width="3.2"/>
<circle clip-path="url(#clip382)" cx="883.037" cy="108.312" r="14" fill="#e26f46" fill-rule="evenodd" fill-opacity="1" stroke="#000000" stroke-opacity="1" stroke-width="3.2"/>
<circle clip-path="url(#clip382)" cx="970.436" cy="87.9763" r="14" fill="#e26f46" fill-rule="evenodd" fill-opacity="1" stroke="#000000" stroke-opacity="1" stroke-width="3.2"/>
<circle clip-path="url(#clip382)" cx="1061.7" cy="106.738" r="14" fill="#e26f46" fill-rule="evenodd" fill-opacity="1" stroke="#000000" stroke-opacity="1" stroke-width="3.2"/>
<circle clip-path="url(#clip382)" cx="1144.67" cy="165.27" r="14" fill="#e26f46" fill-rule="evenodd" fill-opacity="1" stroke="#000000" stroke-opacity="1" stroke-width="3.2"/>
<circle clip-path="url(#clip382)" cx="1207.73" cy="257.509" r="14" fill="#e26f46" fill-rule="evenodd" fill-opacity="1" stroke="#000000" stroke-opacity="1" stroke-width="3.2"/>
<circle clip-path="url(#clip382)" cx="1242.76" cy="371.354" r="14" fill="#e26f46" fill-rule="evenodd" fill-opacity="1" stroke="#000000" stroke-opacity="1" stroke-width="3.2"/>
<circle clip-path="url(#clip382)" cx="1247.56" cy="490.842" r="14" fill="#e26f46" fill-rule="evenodd" fill-opacity="1" stroke="#000000" stroke-opacity="1" stroke-width="3.2"/>
<circle clip-path="url(#clip382)" cx="1226.9" cy="599.377" r="14" fill="#e26f46" fill-rule="evenodd" fill-opacity="1" stroke="#000000" stroke-opacity="1" stroke-width="3.2"/>
<circle clip-path="url(#clip382)" cx="1192.03" cy="683.27" r="14" fill="#e26f46" fill-rule="evenodd" fill-opacity="1" stroke="#000000" stroke-opacity="1" stroke-width="3.2"/>
<circle clip-path="url(#clip382)" cx="1158.52" cy="734.759" r="14" fill="#e26f46" fill-rule="evenodd" fill-opacity="1" stroke="#000000" stroke-opacity="1" stroke-width="3.2"/>
<circle clip-path="url(#clip382)" cx="1142.91" cy="753.764" r="14" fill="#e26f46" fill-rule="evenodd" fill-opacity="1" stroke="#000000" stroke-opacity="1" stroke-width="3.2"/>
<circle clip-path="url(#clip382)" cx="1158.98" cy="747.922" r="14" fill="#e26f46" fill-rule="evenodd" fill-opacity="1" stroke="#000000" stroke-opacity="1" stroke-width="3.2"/>
<circle clip-path="url(#clip382)" cx="1214.35" cy="730.828" r="14" fill="#e26f46" fill-rule="evenodd" fill-opacity="1" stroke="#000000" stroke-opacity="1" stroke-width="3.2"/>
<circle clip-path="url(#clip382)" cx="1308.34" cy="718.868" r="14" fill="#e26f46" fill-rule="evenodd" fill-opacity="1" stroke="#000000" stroke-opacity="1" stroke-width="3.2"/>
<circle clip-path="url(#clip382)" cx="1431.69" cy="727.352" r="14" fill="#e26f46" fill-rule="evenodd" fill-opacity="1" stroke="#000000" stroke-opacity="1" stroke-width="3.2"/>
<circle clip-path="url(#clip382)" cx="1568.04" cy="766.846" r="14" fill="#e26f46" fill-rule="evenodd" fill-opacity="1" stroke="#000000" stroke-opacity="1" stroke-width="3.2"/>
<path clip-path="url(#clip380)" d="
M1996.55 328.498 L2280.8 328.498 L2280.8 95.2176 L1996.55 95.2176  Z
  " fill="#ffffff" fill-rule="evenodd" fill-opacity="1"/>
<polyline clip-path="url(#clip380)" style="stroke:#000000; stroke-linecap:butt; stroke-linejoin:round; stroke-width:4; stroke-opacity:1; fill:none" points="
  1996.55,328.498 2280.8,328.498 2280.8,95.2176 1996.55,95.2176 1996.55,328.498 
  "/>
<circle clip-path="url(#clip380)" cx="2092.5" cy="172.978" r="34" fill="#009af9" fill-rule="evenodd" fill-opacity="1" stroke="#000000" stroke-opacity="1" stroke-width="7.68"/>
<path clip-path="url(#clip380)" d="M2190.81 147.058 L2198.34 147.058 L2211.22 166.328 L2224.18 147.058 L2231.71 147.058 L2215.04 171.953 L2232.82 198.898 L2225.29 198.898 L2210.7 176.849 L2196.02 198.898 L2188.45 198.898 L2206.95 171.224 L2190.81 147.058 Z" fill="#000000" fill-rule="evenodd" fill-opacity="1" /><circle clip-path="url(#clip380)" cx="2092.5" cy="250.738" r="34" fill="#e26f46" fill-rule="evenodd" fill-opacity="1" stroke="#000000" stroke-opacity="1" stroke-width="7.68"/>
<path clip-path="url(#clip380)" d="M2188.45 224.818 L2195.98 224.818 L2210.36 246.137 L2224.63 224.818 L2232.16 224.818 L2213.83 251.97 L2213.83 276.658 L2206.78 276.658 L2206.78 251.97 L2188.45 224.818 Z" fill="#000000" fill-rule="evenodd" fill-opacity="1" /></svg>
