<?xml version="1.0" encoding="utf-8"?>
<svg xmlns="http://www.w3.org/2000/svg" xmlns:xlink="http://www.w3.org/1999/xlink" width="600" height="400" viewBox="0 0 2400 1600">
<defs>
  <clipPath id="clip000">
    <rect x="0" y="0" width="2400" height="1600"/>
  </clipPath>
</defs>
<path clip-path="url(#clip000)" d="
M0 1600 L2400 1600 L2400 0 L0 0  Z
  " fill="#ffffff" fill-rule="evenodd" fill-opacity="1"/>
<defs>
  <clipPath id="clip001">
    <rect x="480" y="0" width="1681" height="1600"/>
  </clipPath>
</defs>
<path clip-path="url(#clip000)" d="
M350.093 1486.45 L2352.76 1486.45 L2352.76 47.2441 L350.093 47.2441  Z
  " fill="#ffffff" fill-rule="evenodd" fill-opacity="1"/>
<defs>
  <clipPath id="clip002">
    <rect x="350" y="47" width="2004" height="1440"/>
  </clipPath>
</defs>
<polyline clip-path="url(#clip002)" style="stroke:#000000; stroke-linecap:butt; stroke-linejoin:round; stroke-width:2; stroke-opacity:0.1; fill:none" points="
  536.781,1486.45 536.781,47.2441 
  "/>
<polyline clip-path="url(#clip002)" style="stroke:#000000; stroke-linecap:butt; stroke-linejoin:round; stroke-width:2; stroke-opacity:0.1; fill:none" points="
  808.328,1486.45 808.328,47.2441 
  "/>
<polyline clip-path="url(#clip002)" style="stroke:#000000; stroke-linecap:butt; stroke-linejoin:round; stroke-width:2; stroke-opacity:0.1; fill:none" points="
  1079.88,1486.45 1079.88,47.2441 
  "/>
<polyline clip-path="url(#clip002)" style="stroke:#000000; stroke-linecap:butt; stroke-linejoin:round; stroke-width:2; stroke-opacity:0.1; fill:none" points="
  1351.42,1486.45 1351.42,47.2441 
  "/>
<polyline clip-path="url(#clip002)" style="stroke:#000000; stroke-linecap:butt; stroke-linejoin:round; stroke-width:2; stroke-opacity:0.1; fill:none" points="
  1622.97,1486.45 1622.97,47.2441 
  "/>
<polyline clip-path="url(#clip002)" style="stroke:#000000; stroke-linecap:butt; stroke-linejoin:round; stroke-width:2; stroke-opacity:0.1; fill:none" points="
  1894.52,1486.45 1894.52,47.2441 
  "/>
<polyline clip-path="url(#clip002)" style="stroke:#000000; stroke-linecap:butt; stroke-linejoin:round; stroke-width:2; stroke-opacity:0.1; fill:none" points="
  2166.07,1486.45 2166.07,47.2441 
  "/>
<polyline clip-path="url(#clip000)" style="stroke:#000000; stroke-linecap:butt; stroke-linejoin:round; stroke-width:4; stroke-opacity:1; fill:none" points="
  350.093,1486.45 2352.76,1486.45 
  "/>
<polyline clip-path="url(#clip000)" style="stroke:#000000; stroke-linecap:butt; stroke-linejoin:round; stroke-width:4; stroke-opacity:1; fill:none" points="
  536.781,1486.45 536.781,1467.55 
  "/>
<polyline clip-path="url(#clip000)" style="stroke:#000000; stroke-linecap:butt; stroke-linejoin:round; stroke-width:4; stroke-opacity:1; fill:none" points="
  808.328,1486.45 808.328,1467.55 
  "/>
<polyline clip-path="url(#clip000)" style="stroke:#000000; stroke-linecap:butt; stroke-linejoin:round; stroke-width:4; stroke-opacity:1; fill:none" points="
  1079.88,1486.45 1079.88,1467.55 
  "/>
<polyline clip-path="url(#clip000)" style="stroke:#000000; stroke-linecap:butt; stroke-linejoin:round; stroke-width:4; stroke-opacity:1; fill:none" points="
  1351.42,1486.45 1351.42,1467.55 
  "/>
<polyline clip-path="url(#clip000)" style="stroke:#000000; stroke-linecap:butt; stroke-linejoin:round; stroke-width:4; stroke-opacity:1; fill:none" points="
  1622.97,1486.45 1622.97,1467.55 
  "/>
<polyline clip-path="url(#clip000)" style="stroke:#000000; stroke-linecap:butt; stroke-linejoin:round; stroke-width:4; stroke-opacity:1; fill:none" points="
  1894.52,1486.45 1894.52,1467.55 
  "/>
<polyline clip-path="url(#clip000)" style="stroke:#000000; stroke-linecap:butt; stroke-linejoin:round; stroke-width:4; stroke-opacity:1; fill:none" points="
  2166.07,1486.45 2166.07,1467.55 
  "/>
<path clip-path="url(#clip000)" d="M421.874 1548.13 L421.874 1543.87 Q423.633 1544.7 425.439 1545.14 Q427.244 1545.58 428.98 1545.58 Q433.61 1545.58 436.04 1542.48 Q438.494 1539.36 438.841 1533.01 Q437.499 1535.01 435.439 1536.07 Q433.378 1537.13 430.878 1537.13 Q425.693 1537.13 422.661 1534.01 Q419.652 1530.86 419.652 1525.42 Q419.652 1520.1 422.8 1516.88 Q425.948 1513.66 431.179 1513.66 Q437.175 1513.66 440.323 1518.27 Q443.494 1522.85 443.494 1531.6 Q443.494 1539.77 439.605 1544.66 Q435.739 1549.52 429.189 1549.52 Q427.429 1549.52 425.624 1549.17 Q423.818 1548.82 421.874 1548.13 M431.179 1533.48 Q434.327 1533.48 436.156 1531.32 Q438.008 1529.17 438.008 1525.42 Q438.008 1521.7 436.156 1519.54 Q434.327 1517.37 431.179 1517.37 Q428.031 1517.37 426.179 1519.54 Q424.351 1521.7 424.351 1525.42 Q424.351 1529.17 426.179 1531.32 Q428.031 1533.48 431.179 1533.48 Z" fill="#000000" fill-rule="evenodd" fill-opacity="1" /><path clip-path="url(#clip000)" d="M452.036 1548.13 L452.036 1543.87 Q453.795 1544.7 455.6 1545.14 Q457.406 1545.58 459.142 1545.58 Q463.772 1545.58 466.202 1542.48 Q468.656 1539.36 469.003 1533.01 Q467.661 1535.01 465.6 1536.07 Q463.54 1537.13 461.04 1537.13 Q455.855 1537.13 452.823 1534.01 Q449.813 1530.86 449.813 1525.42 Q449.813 1520.1 452.962 1516.88 Q456.11 1513.66 461.341 1513.66 Q467.337 1513.66 470.485 1518.27 Q473.656 1522.85 473.656 1531.6 Q473.656 1539.77 469.767 1544.66 Q465.901 1549.52 459.35 1549.52 Q457.591 1549.52 455.786 1549.17 Q453.98 1548.82 452.036 1548.13 M461.341 1533.48 Q464.489 1533.48 466.318 1531.32 Q468.17 1529.17 468.17 1525.42 Q468.17 1521.7 466.318 1519.54 Q464.489 1517.37 461.341 1517.37 Q458.193 1517.37 456.341 1519.54 Q454.513 1521.7 454.513 1525.42 Q454.513 1529.17 456.341 1531.32 Q458.193 1533.48 461.341 1533.48 Z" fill="#000000" fill-rule="evenodd" fill-opacity="1" /><path clip-path="url(#clip000)" d="M482.198 1548.13 L482.198 1543.87 Q483.957 1544.7 485.762 1545.14 Q487.568 1545.58 489.304 1545.58 Q493.934 1545.58 496.364 1542.48 Q498.818 1539.36 499.165 1533.01 Q497.822 1535.01 495.762 1536.07 Q493.702 1537.13 491.202 1537.13 Q486.017 1537.13 482.985 1534.01 Q479.975 1530.86 479.975 1525.42 Q479.975 1520.1 483.123 1516.88 Q486.272 1513.66 491.503 1513.66 Q497.498 1513.66 500.647 1518.27 Q503.818 1522.85 503.818 1531.6 Q503.818 1539.77 499.929 1544.66 Q496.063 1549.52 489.512 1549.52 Q487.753 1549.52 485.948 1549.17 Q484.142 1548.82 482.198 1548.13 M491.503 1533.48 Q494.651 1533.48 496.48 1531.32 Q498.332 1529.17 498.332 1525.42 Q498.332 1521.7 496.48 1519.54 Q494.651 1517.37 491.503 1517.37 Q488.355 1517.37 486.503 1519.54 Q484.674 1521.7 484.674 1525.42 Q484.674 1529.17 486.503 1531.32 Q488.355 1533.48 491.503 1533.48 Z" fill="#000000" fill-rule="evenodd" fill-opacity="1" /><path clip-path="url(#clip000)" d="M512.359 1548.13 L512.359 1543.87 Q514.119 1544.7 515.924 1545.14 Q517.73 1545.58 519.466 1545.58 Q524.095 1545.58 526.526 1542.48 Q528.98 1539.36 529.327 1533.01 Q527.984 1535.01 525.924 1536.07 Q523.864 1537.13 521.364 1537.13 Q516.179 1537.13 513.146 1534.01 Q510.137 1530.86 510.137 1525.42 Q510.137 1520.1 513.285 1516.88 Q516.433 1513.66 521.665 1513.66 Q527.66 1513.66 530.808 1518.27 Q533.98 1522.85 533.98 1531.6 Q533.98 1539.77 530.091 1544.66 Q526.225 1549.52 519.674 1549.52 Q517.915 1549.52 516.109 1549.17 Q514.304 1548.82 512.359 1548.13 M521.665 1533.48 Q524.813 1533.48 526.642 1531.32 Q528.494 1529.17 528.494 1525.42 Q528.494 1521.7 526.642 1519.54 Q524.813 1517.37 521.665 1517.37 Q518.517 1517.37 516.665 1519.54 Q514.836 1521.7 514.836 1525.42 Q514.836 1529.17 516.665 1531.32 Q518.517 1533.48 521.665 1533.48 Z" fill="#000000" fill-rule="evenodd" fill-opacity="1" /><path clip-path="url(#clip000)" d="M542.521 1548.13 L542.521 1543.87 Q544.281 1544.7 546.086 1545.14 Q547.892 1545.58 549.628 1545.58 Q554.257 1545.58 556.688 1542.48 Q559.142 1539.36 559.489 1533.01 Q558.146 1535.01 556.086 1536.07 Q554.026 1537.13 551.526 1537.13 Q546.341 1537.13 543.308 1534.01 Q540.299 1530.86 540.299 1525.42 Q540.299 1520.1 543.447 1516.88 Q546.595 1513.66 551.827 1513.66 Q557.822 1513.66 560.97 1518.27 Q564.142 1522.85 564.142 1531.6 Q564.142 1539.77 560.253 1544.66 Q556.387 1549.52 549.836 1549.52 Q548.077 1549.52 546.271 1549.17 Q544.466 1548.82 542.521 1548.13 M551.827 1533.48 Q554.975 1533.48 556.804 1531.32 Q558.655 1529.17 558.655 1525.42 Q558.655 1521.7 556.804 1519.54 Q554.975 1517.37 551.827 1517.37 Q548.679 1517.37 546.827 1519.54 Q544.998 1521.7 544.998 1525.42 Q544.998 1529.17 546.827 1531.32 Q548.679 1533.48 551.827 1533.48 Z" fill="#000000" fill-rule="evenodd" fill-opacity="1" /><path clip-path="url(#clip000)" d="M572.683 1548.13 L572.683 1543.87 Q574.442 1544.7 576.248 1545.14 Q578.054 1545.58 579.79 1545.58 Q584.419 1545.58 586.85 1542.48 Q589.303 1539.36 589.651 1533.01 Q588.308 1535.01 586.248 1536.07 Q584.188 1537.13 581.688 1537.13 Q576.503 1537.13 573.47 1534.01 Q570.461 1530.86 570.461 1525.42 Q570.461 1520.1 573.609 1516.88 Q576.757 1513.66 581.989 1513.66 Q587.984 1513.66 591.132 1518.27 Q594.303 1522.85 594.303 1531.6 Q594.303 1539.77 590.415 1544.66 Q586.549 1549.52 579.998 1549.52 Q578.239 1549.52 576.433 1549.17 Q574.628 1548.82 572.683 1548.13 M581.989 1533.48 Q585.137 1533.48 586.966 1531.32 Q588.817 1529.17 588.817 1525.42 Q588.817 1521.7 586.966 1519.54 Q585.137 1517.37 581.989 1517.37 Q578.841 1517.37 576.989 1519.54 Q575.16 1521.7 575.16 1525.42 Q575.16 1529.17 576.989 1531.32 Q578.841 1533.48 581.989 1533.48 Z" fill="#000000" fill-rule="evenodd" fill-opacity="1" /><path clip-path="url(#clip000)" d="M602.845 1548.13 L602.845 1543.87 Q604.604 1544.7 606.41 1545.14 Q608.215 1545.58 609.951 1545.58 Q614.581 1545.58 617.012 1542.48 Q619.465 1539.36 619.813 1533.01 Q618.47 1535.01 616.41 1536.07 Q614.35 1537.13 611.85 1537.13 Q606.664 1537.13 603.632 1534.01 Q600.623 1530.86 600.623 1525.42 Q600.623 1520.1 603.771 1516.88 Q606.919 1513.66 612.151 1513.66 Q618.146 1513.66 621.294 1518.27 Q624.465 1522.85 624.465 1531.6 Q624.465 1539.77 620.576 1544.66 Q616.711 1549.52 610.16 1549.52 Q608.401 1549.52 606.595 1549.17 Q604.789 1548.82 602.845 1548.13 M612.151 1533.48 Q615.299 1533.48 617.127 1531.32 Q618.979 1529.17 618.979 1525.42 Q618.979 1521.7 617.127 1519.54 Q615.299 1517.37 612.151 1517.37 Q609.002 1517.37 607.151 1519.54 Q605.322 1521.7 605.322 1525.42 Q605.322 1529.17 607.151 1531.32 Q609.002 1533.48 612.151 1533.48 Z" fill="#000000" fill-rule="evenodd" fill-opacity="1" /><path clip-path="url(#clip000)" d="M631.687 1514.29 L653.91 1514.29 L653.91 1516.28 L641.363 1548.85 L636.479 1548.85 L648.285 1518.22 L631.687 1518.22 L631.687 1514.29 Z" fill="#000000" fill-rule="evenodd" fill-opacity="1" /><path clip-path="url(#clip000)" d="M693.017 1548.13 L693.017 1543.87 Q694.776 1544.7 696.581 1545.14 Q698.387 1545.58 700.123 1545.58 Q704.753 1545.58 707.183 1542.48 Q709.637 1539.36 709.984 1533.01 Q708.642 1535.01 706.581 1536.07 Q704.521 1537.13 702.021 1537.13 Q696.836 1537.13 693.804 1534.01 Q690.794 1530.86 690.794 1525.42 Q690.794 1520.1 693.943 1516.88 Q697.091 1513.66 702.322 1513.66 Q708.317 1513.66 711.466 1518.27 Q714.637 1522.85 714.637 1531.6 Q714.637 1539.77 710.748 1544.66 Q706.882 1549.52 700.331 1549.52 Q698.572 1549.52 696.767 1549.17 Q694.961 1548.82 693.017 1548.13 M702.322 1533.48 Q705.47 1533.48 707.299 1531.32 Q709.151 1529.17 709.151 1525.42 Q709.151 1521.7 707.299 1519.54 Q705.47 1517.37 702.322 1517.37 Q699.174 1517.37 697.322 1519.54 Q695.493 1521.7 695.493 1525.42 Q695.493 1529.17 697.322 1531.32 Q699.174 1533.48 702.322 1533.48 Z" fill="#000000" fill-rule="evenodd" fill-opacity="1" /><path clip-path="url(#clip000)" d="M723.178 1548.13 L723.178 1543.87 Q724.938 1544.7 726.743 1545.14 Q728.549 1545.58 730.285 1545.58 Q734.915 1545.58 737.345 1542.48 Q739.799 1539.36 740.146 1533.01 Q738.803 1535.01 736.743 1536.07 Q734.683 1537.13 732.183 1537.13 Q726.998 1537.13 723.965 1534.01 Q720.956 1530.86 720.956 1525.42 Q720.956 1520.1 724.104 1516.88 Q727.253 1513.66 732.484 1513.66 Q738.479 1513.66 741.627 1518.27 Q744.799 1522.85 744.799 1531.6 Q744.799 1539.77 740.91 1544.66 Q737.044 1549.52 730.493 1549.52 Q728.734 1549.52 726.928 1549.17 Q725.123 1548.82 723.178 1548.13 M732.484 1533.48 Q735.632 1533.48 737.461 1531.32 Q739.313 1529.17 739.313 1525.42 Q739.313 1521.7 737.461 1519.54 Q735.632 1517.37 732.484 1517.37 Q729.336 1517.37 727.484 1519.54 Q725.655 1521.7 725.655 1525.42 Q725.655 1529.17 727.484 1531.32 Q729.336 1533.48 732.484 1533.48 Z" fill="#000000" fill-rule="evenodd" fill-opacity="1" /><path clip-path="url(#clip000)" d="M753.34 1548.13 L753.34 1543.87 Q755.1 1544.7 756.905 1545.14 Q758.711 1545.58 760.447 1545.58 Q765.076 1545.58 767.507 1542.48 Q769.961 1539.36 770.308 1533.01 Q768.965 1535.01 766.905 1536.07 Q764.845 1537.13 762.345 1537.13 Q757.16 1537.13 754.127 1534.01 Q751.118 1530.86 751.118 1525.42 Q751.118 1520.1 754.266 1516.88 Q757.414 1513.66 762.646 1513.66 Q768.641 1513.66 771.789 1518.27 Q774.961 1522.85 774.961 1531.6 Q774.961 1539.77 771.072 1544.66 Q767.206 1549.52 760.655 1549.52 Q758.896 1549.52 757.09 1549.17 Q755.285 1548.82 753.34 1548.13 M762.646 1533.48 Q765.794 1533.48 767.623 1531.32 Q769.475 1529.17 769.475 1525.42 Q769.475 1521.7 767.623 1519.54 Q765.794 1517.37 762.646 1517.37 Q759.498 1517.37 757.646 1519.54 Q755.817 1521.7 755.817 1525.42 Q755.817 1529.17 757.646 1531.32 Q759.498 1533.48 762.646 1533.48 Z" fill="#000000" fill-rule="evenodd" fill-opacity="1" /><path clip-path="url(#clip000)" d="M783.502 1548.13 L783.502 1543.87 Q785.261 1544.7 787.067 1545.14 Q788.873 1545.58 790.609 1545.58 Q795.238 1545.58 797.669 1542.48 Q800.122 1539.36 800.47 1533.01 Q799.127 1535.01 797.067 1536.07 Q795.007 1537.13 792.507 1537.13 Q787.322 1537.13 784.289 1534.01 Q781.28 1530.86 781.28 1525.42 Q781.28 1520.1 784.428 1516.88 Q787.576 1513.66 792.808 1513.66 Q798.803 1513.66 801.951 1518.27 Q805.122 1522.85 805.122 1531.6 Q805.122 1539.77 801.234 1544.66 Q797.368 1549.52 790.817 1549.52 Q789.058 1549.52 787.252 1549.17 Q785.447 1548.82 783.502 1548.13 M792.808 1533.48 Q795.956 1533.48 797.785 1531.32 Q799.636 1529.17 799.636 1525.42 Q799.636 1521.7 797.785 1519.54 Q795.956 1517.37 792.808 1517.37 Q789.66 1517.37 787.808 1519.54 Q785.979 1521.7 785.979 1525.42 Q785.979 1529.17 787.808 1531.32 Q789.66 1533.48 792.808 1533.48 Z" fill="#000000" fill-rule="evenodd" fill-opacity="1" /><path clip-path="url(#clip000)" d="M813.664 1548.13 L813.664 1543.87 Q815.423 1544.7 817.229 1545.14 Q819.034 1545.58 820.771 1545.58 Q825.4 1545.58 827.831 1542.48 Q830.284 1539.36 830.632 1533.01 Q829.289 1535.01 827.229 1536.07 Q825.169 1537.13 822.669 1537.13 Q817.484 1537.13 814.451 1534.01 Q811.442 1530.86 811.442 1525.42 Q811.442 1520.1 814.59 1516.88 Q817.738 1513.66 822.97 1513.66 Q828.965 1513.66 832.113 1518.27 Q835.284 1522.85 835.284 1531.6 Q835.284 1539.77 831.395 1544.66 Q827.53 1549.52 820.979 1549.52 Q819.22 1549.52 817.414 1549.17 Q815.609 1548.82 813.664 1548.13 M822.97 1533.48 Q826.118 1533.48 827.946 1531.32 Q829.798 1529.17 829.798 1525.42 Q829.798 1521.7 827.946 1519.54 Q826.118 1517.37 822.97 1517.37 Q819.821 1517.37 817.97 1519.54 Q816.141 1521.7 816.141 1525.42 Q816.141 1529.17 817.97 1531.32 Q819.821 1533.48 822.97 1533.48 Z" fill="#000000" fill-rule="evenodd" fill-opacity="1" /><path clip-path="url(#clip000)" d="M843.826 1548.13 L843.826 1543.87 Q845.585 1544.7 847.391 1545.14 Q849.196 1545.58 850.932 1545.58 Q855.562 1545.58 857.993 1542.48 Q860.446 1539.36 860.793 1533.01 Q859.451 1535.01 857.391 1536.07 Q855.331 1537.13 852.831 1537.13 Q847.645 1537.13 844.613 1534.01 Q841.604 1530.86 841.604 1525.42 Q841.604 1520.1 844.752 1516.88 Q847.9 1513.66 853.131 1513.66 Q859.127 1513.66 862.275 1518.27 Q865.446 1522.85 865.446 1531.6 Q865.446 1539.77 861.557 1544.66 Q857.692 1549.52 851.141 1549.52 Q849.381 1549.52 847.576 1549.17 Q845.77 1548.82 843.826 1548.13 M853.131 1533.48 Q856.28 1533.48 858.108 1531.32 Q859.96 1529.17 859.96 1525.42 Q859.96 1521.7 858.108 1519.54 Q856.28 1517.37 853.131 1517.37 Q849.983 1517.37 848.131 1519.54 Q846.303 1521.7 846.303 1525.42 Q846.303 1529.17 848.131 1531.32 Q849.983 1533.48 853.131 1533.48 Z" fill="#000000" fill-rule="evenodd" fill-opacity="1" /><path clip-path="url(#clip000)" d="M873.988 1548.13 L873.988 1543.87 Q875.747 1544.7 877.553 1545.14 Q879.358 1545.58 881.094 1545.58 Q885.724 1545.58 888.154 1542.48 Q890.608 1539.36 890.955 1533.01 Q889.613 1535.01 887.553 1536.07 Q885.492 1537.13 882.992 1537.13 Q877.807 1537.13 874.775 1534.01 Q871.766 1530.86 871.766 1525.42 Q871.766 1520.1 874.914 1516.88 Q878.062 1513.66 883.293 1513.66 Q889.289 1513.66 892.437 1518.27 Q895.608 1522.85 895.608 1531.6 Q895.608 1539.77 891.719 1544.66 Q887.854 1549.52 881.303 1549.52 Q879.543 1549.52 877.738 1549.17 Q875.932 1548.82 873.988 1548.13 M883.293 1533.48 Q886.441 1533.48 888.27 1531.32 Q890.122 1529.17 890.122 1525.42 Q890.122 1521.7 888.27 1519.54 Q886.441 1517.37 883.293 1517.37 Q880.145 1517.37 878.293 1519.54 Q876.465 1521.7 876.465 1525.42 Q876.465 1529.17 878.293 1531.32 Q880.145 1533.48 883.293 1533.48 Z" fill="#000000" fill-rule="evenodd" fill-opacity="1" /><path clip-path="url(#clip000)" d="M914.011 1532.44 Q910.677 1532.44 908.756 1534.22 Q906.858 1536 906.858 1539.13 Q906.858 1542.25 908.756 1544.03 Q910.677 1545.82 914.011 1545.82 Q917.344 1545.82 919.265 1544.03 Q921.187 1542.23 921.187 1539.13 Q921.187 1536 919.265 1534.22 Q917.367 1532.44 914.011 1532.44 M909.335 1530.45 Q906.326 1529.7 904.636 1527.64 Q902.969 1525.58 902.969 1522.62 Q902.969 1518.48 905.909 1516.07 Q908.872 1513.66 914.011 1513.66 Q919.173 1513.66 922.113 1516.07 Q925.052 1518.48 925.052 1522.62 Q925.052 1525.58 923.363 1527.64 Q921.696 1529.7 918.71 1530.45 Q922.089 1531.23 923.964 1533.52 Q925.863 1535.82 925.863 1539.13 Q925.863 1544.15 922.784 1546.83 Q919.728 1549.52 914.011 1549.52 Q908.293 1549.52 905.215 1546.83 Q902.159 1544.15 902.159 1539.13 Q902.159 1535.82 904.057 1533.52 Q905.955 1531.23 909.335 1530.45 M907.622 1523.06 Q907.622 1525.75 909.289 1527.25 Q910.978 1528.76 914.011 1528.76 Q917.02 1528.76 918.71 1527.25 Q920.423 1525.75 920.423 1523.06 Q920.423 1520.38 918.71 1518.87 Q917.02 1517.37 914.011 1517.37 Q910.978 1517.37 909.289 1518.87 Q907.622 1520.38 907.622 1523.06 Z" fill="#000000" fill-rule="evenodd" fill-opacity="1" /><path clip-path="url(#clip000)" d="M964.611 1548.13 L964.611 1543.87 Q966.37 1544.7 968.176 1545.14 Q969.981 1545.58 971.717 1545.58 Q976.347 1545.58 978.777 1542.48 Q981.231 1539.36 981.578 1533.01 Q980.236 1535.01 978.176 1536.07 Q976.115 1537.13 973.615 1537.13 Q968.43 1537.13 965.398 1534.01 Q962.389 1530.86 962.389 1525.42 Q962.389 1520.1 965.537 1516.88 Q968.685 1513.66 973.916 1513.66 Q979.912 1513.66 983.06 1518.27 Q986.231 1522.85 986.231 1531.6 Q986.231 1539.77 982.342 1544.66 Q978.476 1549.52 971.926 1549.52 Q970.166 1549.52 968.361 1549.17 Q966.555 1548.82 964.611 1548.13 M973.916 1533.48 Q977.064 1533.48 978.893 1531.32 Q980.745 1529.17 980.745 1525.42 Q980.745 1521.7 978.893 1519.54 Q977.064 1517.37 973.916 1517.37 Q970.768 1517.37 968.916 1519.54 Q967.088 1521.7 967.088 1525.42 Q967.088 1529.17 968.916 1531.32 Q970.768 1533.48 973.916 1533.48 Z" fill="#000000" fill-rule="evenodd" fill-opacity="1" /><path clip-path="url(#clip000)" d="M994.773 1548.13 L994.773 1543.87 Q996.532 1544.7 998.337 1545.14 Q1000.14 1545.58 1001.88 1545.58 Q1006.51 1545.58 1008.94 1542.48 Q1011.39 1539.36 1011.74 1533.01 Q1010.4 1535.01 1008.34 1536.07 Q1006.28 1537.13 1003.78 1537.13 Q998.592 1537.13 995.56 1534.01 Q992.55 1530.86 992.55 1525.42 Q992.55 1520.1 995.699 1516.88 Q998.847 1513.66 1004.08 1513.66 Q1010.07 1513.66 1013.22 1518.27 Q1016.39 1522.85 1016.39 1531.6 Q1016.39 1539.77 1012.5 1544.66 Q1008.64 1549.52 1002.09 1549.52 Q1000.33 1549.52 998.523 1549.17 Q996.717 1548.82 994.773 1548.13 M1004.08 1533.48 Q1007.23 1533.48 1009.05 1531.32 Q1010.91 1529.17 1010.91 1525.42 Q1010.91 1521.7 1009.05 1519.54 Q1007.23 1517.37 1004.08 1517.37 Q1000.93 1517.37 999.078 1519.54 Q997.249 1521.7 997.249 1525.42 Q997.249 1529.17 999.078 1531.32 Q1000.93 1533.48 1004.08 1533.48 Z" fill="#000000" fill-rule="evenodd" fill-opacity="1" /><path clip-path="url(#clip000)" d="M1024.93 1548.13 L1024.93 1543.87 Q1026.69 1544.7 1028.5 1545.14 Q1030.3 1545.58 1032.04 1545.58 Q1036.67 1545.58 1039.1 1542.48 Q1041.55 1539.36 1041.9 1533.01 Q1040.56 1535.01 1038.5 1536.07 Q1036.44 1537.13 1033.94 1537.13 Q1028.75 1537.13 1025.72 1534.01 Q1022.71 1530.86 1022.71 1525.42 Q1022.71 1520.1 1025.86 1516.88 Q1029.01 1513.66 1034.24 1513.66 Q1040.24 1513.66 1043.38 1518.27 Q1046.55 1522.85 1046.55 1531.6 Q1046.55 1539.77 1042.67 1544.66 Q1038.8 1549.52 1032.25 1549.52 Q1030.49 1549.52 1028.68 1549.17 Q1026.88 1548.82 1024.93 1548.13 M1034.24 1533.48 Q1037.39 1533.48 1039.22 1531.32 Q1041.07 1529.17 1041.07 1525.42 Q1041.07 1521.7 1039.22 1519.54 Q1037.39 1517.37 1034.24 1517.37 Q1031.09 1517.37 1029.24 1519.54 Q1027.41 1521.7 1027.41 1525.42 Q1027.41 1529.17 1029.24 1531.32 Q1031.09 1533.48 1034.24 1533.48 Z" fill="#000000" fill-rule="evenodd" fill-opacity="1" /><path clip-path="url(#clip000)" d="M1055.1 1548.13 L1055.1 1543.87 Q1056.86 1544.7 1058.66 1545.14 Q1060.47 1545.58 1062.2 1545.58 Q1066.83 1545.58 1069.26 1542.48 Q1071.72 1539.36 1072.06 1533.01 Q1070.72 1535.01 1068.66 1536.07 Q1066.6 1537.13 1064.1 1537.13 Q1058.92 1537.13 1055.88 1534.01 Q1052.87 1530.86 1052.87 1525.42 Q1052.87 1520.1 1056.02 1516.88 Q1059.17 1513.66 1064.4 1513.66 Q1070.4 1513.66 1073.55 1518.27 Q1076.72 1522.85 1076.72 1531.6 Q1076.72 1539.77 1072.83 1544.66 Q1068.96 1549.52 1062.41 1549.52 Q1060.65 1549.52 1058.85 1549.17 Q1057.04 1548.82 1055.1 1548.13 M1064.4 1533.48 Q1067.55 1533.48 1069.38 1531.32 Q1071.23 1529.17 1071.23 1525.42 Q1071.23 1521.7 1069.38 1519.54 Q1067.55 1517.37 1064.4 1517.37 Q1061.25 1517.37 1059.4 1519.54 Q1057.57 1521.7 1057.57 1525.42 Q1057.57 1529.17 1059.4 1531.32 Q1061.25 1533.48 1064.4 1533.48 Z" fill="#000000" fill-rule="evenodd" fill-opacity="1" /><path clip-path="url(#clip000)" d="M1085.26 1548.13 L1085.26 1543.87 Q1087.02 1544.7 1088.82 1545.14 Q1090.63 1545.58 1092.36 1545.58 Q1096.99 1545.58 1099.42 1542.48 Q1101.88 1539.36 1102.23 1533.01 Q1100.88 1535.01 1098.82 1536.07 Q1096.76 1537.13 1094.26 1537.13 Q1089.08 1537.13 1086.05 1534.01 Q1083.04 1530.86 1083.04 1525.42 Q1083.04 1520.1 1086.18 1516.88 Q1089.33 1513.66 1094.56 1513.66 Q1100.56 1513.66 1103.71 1518.27 Q1106.88 1522.85 1106.88 1531.6 Q1106.88 1539.77 1102.99 1544.66 Q1099.12 1549.52 1092.57 1549.52 Q1090.81 1549.52 1089.01 1549.17 Q1087.2 1548.82 1085.26 1548.13 M1094.56 1533.48 Q1097.71 1533.48 1099.54 1531.32 Q1101.39 1529.17 1101.39 1525.42 Q1101.39 1521.7 1099.54 1519.54 Q1097.71 1517.37 1094.56 1517.37 Q1091.42 1517.37 1089.56 1519.54 Q1087.74 1521.7 1087.74 1525.42 Q1087.74 1529.17 1089.56 1531.32 Q1091.42 1533.48 1094.56 1533.48 Z" fill="#000000" fill-rule="evenodd" fill-opacity="1" /><path clip-path="url(#clip000)" d="M1115.42 1548.13 L1115.42 1543.87 Q1117.18 1544.7 1118.98 1545.14 Q1120.79 1545.58 1122.53 1545.58 Q1127.16 1545.58 1129.59 1542.48 Q1132.04 1539.36 1132.39 1533.01 Q1131.05 1535.01 1128.98 1536.07 Q1126.92 1537.13 1124.42 1537.13 Q1119.24 1537.13 1116.21 1534.01 Q1113.2 1530.86 1113.2 1525.42 Q1113.2 1520.1 1116.35 1516.88 Q1119.49 1513.66 1124.73 1513.66 Q1130.72 1513.66 1133.87 1518.27 Q1137.04 1522.85 1137.04 1531.6 Q1137.04 1539.77 1133.15 1544.66 Q1129.29 1549.52 1122.73 1549.52 Q1120.98 1549.52 1119.17 1549.17 Q1117.36 1548.82 1115.42 1548.13 M1124.73 1533.48 Q1127.87 1533.48 1129.7 1531.32 Q1131.55 1529.17 1131.55 1525.42 Q1131.55 1521.7 1129.7 1519.54 Q1127.87 1517.37 1124.73 1517.37 Q1121.58 1517.37 1119.73 1519.54 Q1117.9 1521.7 1117.9 1525.42 Q1117.9 1529.17 1119.73 1531.32 Q1121.58 1533.48 1124.73 1533.48 Z" fill="#000000" fill-rule="evenodd" fill-opacity="1" /><path clip-path="url(#clip000)" d="M1145.58 1548.13 L1145.58 1543.87 Q1147.34 1544.7 1149.15 1545.14 Q1150.95 1545.58 1152.69 1545.58 Q1157.32 1545.58 1159.75 1542.48 Q1162.2 1539.36 1162.55 1533.01 Q1161.21 1535.01 1159.15 1536.07 Q1157.09 1537.13 1154.59 1537.13 Q1149.4 1537.13 1146.37 1534.01 Q1143.36 1530.86 1143.36 1525.42 Q1143.36 1520.1 1146.51 1516.88 Q1149.66 1513.66 1154.89 1513.66 Q1160.88 1513.66 1164.03 1518.27 Q1167.2 1522.85 1167.2 1531.6 Q1167.2 1539.77 1163.31 1544.66 Q1159.45 1549.52 1152.9 1549.52 Q1151.14 1549.52 1149.33 1549.17 Q1147.53 1548.82 1145.58 1548.13 M1154.89 1533.48 Q1158.04 1533.48 1159.86 1531.32 Q1161.72 1529.17 1161.72 1525.42 Q1161.72 1521.7 1159.86 1519.54 Q1158.04 1517.37 1154.89 1517.37 Q1151.74 1517.37 1149.89 1519.54 Q1148.06 1521.7 1148.06 1525.42 Q1148.06 1529.17 1149.89 1531.32 Q1151.74 1533.48 1154.89 1533.48 Z" fill="#000000" fill-rule="evenodd" fill-opacity="1" /><path clip-path="url(#clip000)" d="M1175.74 1548.13 L1175.74 1543.87 Q1177.5 1544.7 1179.31 1545.14 Q1181.11 1545.58 1182.85 1545.58 Q1187.48 1545.58 1189.91 1542.48 Q1192.36 1539.36 1192.71 1533.01 Q1191.37 1535.01 1189.31 1536.07 Q1187.25 1537.13 1184.75 1537.13 Q1179.56 1537.13 1176.53 1534.01 Q1173.52 1530.86 1173.52 1525.42 Q1173.52 1520.1 1176.67 1516.88 Q1179.82 1513.66 1185.05 1513.66 Q1191.04 1513.66 1194.19 1518.27 Q1197.36 1522.85 1197.36 1531.6 Q1197.36 1539.77 1193.48 1544.66 Q1189.61 1549.52 1183.06 1549.52 Q1181.3 1549.52 1179.49 1549.17 Q1177.69 1548.82 1175.74 1548.13 M1185.05 1533.48 Q1188.2 1533.48 1190.03 1531.32 Q1191.88 1529.17 1191.88 1525.42 Q1191.88 1521.7 1190.03 1519.54 Q1188.2 1517.37 1185.05 1517.37 Q1181.9 1517.37 1180.05 1519.54 Q1178.22 1521.7 1178.22 1525.42 Q1178.22 1529.17 1180.05 1531.32 Q1181.9 1533.48 1185.05 1533.48 Z" fill="#000000" fill-rule="evenodd" fill-opacity="1" /><path clip-path="url(#clip000)" d="M1220.55 1544.91 L1228.18 1544.91 L1228.18 1518.55 L1219.87 1520.21 L1219.87 1515.95 L1228.14 1514.29 L1232.81 1514.29 L1232.81 1544.91 L1240.45 1544.91 L1240.45 1548.85 L1220.55 1548.85 L1220.55 1544.91 Z" fill="#000000" fill-rule="evenodd" fill-opacity="1" /><path clip-path="url(#clip000)" d="M1259.9 1517.37 Q1256.29 1517.37 1254.46 1520.93 Q1252.65 1524.47 1252.65 1531.6 Q1252.65 1538.71 1254.46 1542.27 Q1256.29 1545.82 1259.9 1545.82 Q1263.53 1545.82 1265.34 1542.27 Q1267.17 1538.71 1267.17 1531.6 Q1267.17 1524.47 1265.34 1520.93 Q1263.53 1517.37 1259.9 1517.37 M1259.9 1513.66 Q1265.71 1513.66 1268.76 1518.27 Q1271.84 1522.85 1271.84 1531.6 Q1271.84 1540.33 1268.76 1544.94 Q1265.71 1549.52 1259.9 1549.52 Q1254.09 1549.52 1251.01 1544.94 Q1247.95 1540.33 1247.95 1531.6 Q1247.95 1522.85 1251.01 1518.27 Q1254.09 1513.66 1259.9 1513.66 Z" fill="#000000" fill-rule="evenodd" fill-opacity="1" /><path clip-path="url(#clip000)" d="M1290.06 1517.37 Q1286.45 1517.37 1284.62 1520.93 Q1282.81 1524.47 1282.81 1531.6 Q1282.81 1538.71 1284.62 1542.27 Q1286.45 1545.82 1290.06 1545.82 Q1293.69 1545.82 1295.5 1542.27 Q1297.33 1538.71 1297.33 1531.6 Q1297.33 1524.47 1295.5 1520.93 Q1293.69 1517.37 1290.06 1517.37 M1290.06 1513.66 Q1295.87 1513.66 1298.92 1518.27 Q1302 1522.85 1302 1531.6 Q1302 1540.33 1298.92 1544.94 Q1295.87 1549.52 1290.06 1549.52 Q1284.25 1549.52 1281.17 1544.94 Q1278.11 1540.33 1278.11 1531.6 Q1278.11 1522.85 1281.17 1518.27 Q1284.25 1513.66 1290.06 1513.66 Z" fill="#000000" fill-rule="evenodd" fill-opacity="1" /><path clip-path="url(#clip000)" d="M1320.22 1517.37 Q1316.61 1517.37 1314.78 1520.93 Q1312.98 1524.47 1312.98 1531.6 Q1312.98 1538.71 1314.78 1542.27 Q1316.61 1545.82 1320.22 1545.82 Q1323.85 1545.82 1325.66 1542.27 Q1327.49 1538.71 1327.49 1531.6 Q1327.49 1524.47 1325.66 1520.93 Q1323.85 1517.37 1320.22 1517.37 M1320.22 1513.66 Q1326.03 1513.66 1329.09 1518.27 Q1332.17 1522.85 1332.17 1531.6 Q1332.17 1540.33 1329.09 1544.94 Q1326.03 1549.52 1320.22 1549.52 Q1314.41 1549.52 1311.33 1544.94 Q1308.28 1540.33 1308.28 1531.6 Q1308.28 1522.85 1311.33 1518.27 Q1314.41 1513.66 1320.22 1513.66 Z" fill="#000000" fill-rule="evenodd" fill-opacity="1" /><path clip-path="url(#clip000)" d="M1350.38 1517.37 Q1346.77 1517.37 1344.94 1520.93 Q1343.14 1524.47 1343.14 1531.6 Q1343.14 1538.71 1344.94 1542.27 Q1346.77 1545.82 1350.38 1545.82 Q1354.02 1545.82 1355.82 1542.27 Q1357.65 1538.71 1357.65 1531.6 Q1357.65 1524.47 1355.82 1520.93 Q1354.02 1517.37 1350.38 1517.37 M1350.38 1513.66 Q1356.19 1513.66 1359.25 1518.27 Q1362.33 1522.85 1362.33 1531.6 Q1362.33 1540.33 1359.25 1544.94 Q1356.19 1549.52 1350.38 1549.52 Q1344.57 1549.52 1341.49 1544.94 Q1338.44 1540.33 1338.44 1531.6 Q1338.44 1522.85 1341.49 1518.27 Q1344.57 1513.66 1350.38 1513.66 Z" fill="#000000" fill-rule="evenodd" fill-opacity="1" /><path clip-path="url(#clip000)" d="M1380.54 1517.37 Q1376.93 1517.37 1375.1 1520.93 Q1373.3 1524.47 1373.3 1531.6 Q1373.3 1538.71 1375.1 1542.27 Q1376.93 1545.82 1380.54 1545.82 Q1384.18 1545.82 1385.98 1542.27 Q1387.81 1538.71 1387.81 1531.6 Q1387.81 1524.47 1385.98 1520.93 Q1384.18 1517.37 1380.54 1517.37 M1380.54 1513.66 Q1386.35 1513.66 1389.41 1518.27 Q1392.49 1522.85 1392.49 1531.6 Q1392.49 1540.33 1389.41 1544.94 Q1386.35 1549.52 1380.54 1549.52 Q1374.73 1549.52 1371.66 1544.94 Q1368.6 1540.33 1368.6 1531.6 Q1368.6 1522.85 1371.66 1518.27 Q1374.73 1513.66 1380.54 1513.66 Z" fill="#000000" fill-rule="evenodd" fill-opacity="1" /><path clip-path="url(#clip000)" d="M1410.71 1517.37 Q1407.1 1517.37 1405.27 1520.93 Q1403.46 1524.47 1403.46 1531.6 Q1403.46 1538.71 1405.27 1542.27 Q1407.1 1545.82 1410.71 1545.82 Q1414.34 1545.82 1416.15 1542.27 Q1417.97 1538.71 1417.97 1531.6 Q1417.97 1524.47 1416.15 1520.93 Q1414.34 1517.37 1410.71 1517.37 M1410.71 1513.66 Q1416.52 1513.66 1419.57 1518.27 Q1422.65 1522.85 1422.65 1531.6 Q1422.65 1540.33 1419.57 1544.94 Q1416.52 1549.52 1410.71 1549.52 Q1404.9 1549.52 1401.82 1544.94 Q1398.76 1540.33 1398.76 1531.6 Q1398.76 1522.85 1401.82 1518.27 Q1404.9 1513.66 1410.71 1513.66 Z" fill="#000000" fill-rule="evenodd" fill-opacity="1" /><path clip-path="url(#clip000)" d="M1440.87 1517.37 Q1437.26 1517.37 1435.43 1520.93 Q1433.62 1524.47 1433.62 1531.6 Q1433.62 1538.71 1435.43 1542.27 Q1437.26 1545.82 1440.87 1545.82 Q1444.5 1545.82 1446.31 1542.27 Q1448.14 1538.71 1448.14 1531.6 Q1448.14 1524.47 1446.31 1520.93 Q1444.5 1517.37 1440.87 1517.37 M1440.87 1513.66 Q1446.68 1513.66 1449.73 1518.27 Q1452.81 1522.85 1452.81 1531.6 Q1452.81 1540.33 1449.73 1544.94 Q1446.68 1549.52 1440.87 1549.52 Q1435.06 1549.52 1431.98 1544.94 Q1428.92 1540.33 1428.92 1531.6 Q1428.92 1522.85 1431.98 1518.27 Q1435.06 1513.66 1440.87 1513.66 Z" fill="#000000" fill-rule="evenodd" fill-opacity="1" /><path clip-path="url(#clip000)" d="M1471.03 1517.37 Q1467.42 1517.37 1465.59 1520.93 Q1463.78 1524.47 1463.78 1531.6 Q1463.78 1538.71 1465.59 1542.27 Q1467.42 1545.82 1471.03 1545.82 Q1474.66 1545.82 1476.47 1542.27 Q1478.3 1538.71 1478.3 1531.6 Q1478.3 1524.47 1476.47 1520.93 Q1474.66 1517.37 1471.03 1517.37 M1471.03 1513.66 Q1476.84 1513.66 1479.9 1518.27 Q1482.97 1522.85 1482.97 1531.6 Q1482.97 1540.33 1479.9 1544.94 Q1476.84 1549.52 1471.03 1549.52 Q1465.22 1549.52 1462.14 1544.94 Q1459.09 1540.33 1459.09 1531.6 Q1459.09 1522.85 1462.14 1518.27 Q1465.22 1513.66 1471.03 1513.66 Z" fill="#000000" fill-rule="evenodd" fill-opacity="1" /><path clip-path="url(#clip000)" d="M1492.71 1544.91 L1500.35 1544.91 L1500.35 1518.55 L1492.04 1520.21 L1492.04 1515.95 L1500.3 1514.29 L1504.98 1514.29 L1504.98 1544.91 L1512.61 1544.91 L1512.61 1548.85 L1492.71 1548.85 L1492.71 1544.91 Z" fill="#000000" fill-rule="evenodd" fill-opacity="1" /><path clip-path="url(#clip000)" d="M1532.06 1517.37 Q1528.45 1517.37 1526.62 1520.93 Q1524.81 1524.47 1524.81 1531.6 Q1524.81 1538.71 1526.62 1542.27 Q1528.45 1545.82 1532.06 1545.82 Q1535.69 1545.82 1537.5 1542.27 Q1539.33 1538.71 1539.33 1531.6 Q1539.33 1524.47 1537.5 1520.93 Q1535.69 1517.37 1532.06 1517.37 M1532.06 1513.66 Q1537.87 1513.66 1540.92 1518.27 Q1544 1522.85 1544 1531.6 Q1544 1540.33 1540.92 1544.94 Q1537.87 1549.52 1532.06 1549.52 Q1526.25 1549.52 1523.17 1544.94 Q1520.11 1540.33 1520.11 1531.6 Q1520.11 1522.85 1523.17 1518.27 Q1526.25 1513.66 1532.06 1513.66 Z" fill="#000000" fill-rule="evenodd" fill-opacity="1" /><path clip-path="url(#clip000)" d="M1562.22 1517.37 Q1558.61 1517.37 1556.78 1520.93 Q1554.97 1524.47 1554.97 1531.6 Q1554.97 1538.71 1556.78 1542.27 Q1558.61 1545.82 1562.22 1545.82 Q1565.85 1545.82 1567.66 1542.27 Q1569.49 1538.71 1569.49 1531.6 Q1569.49 1524.47 1567.66 1520.93 Q1565.85 1517.37 1562.22 1517.37 M1562.22 1513.66 Q1568.03 1513.66 1571.09 1518.27 Q1574.16 1522.85 1574.16 1531.6 Q1574.16 1540.33 1571.09 1544.94 Q1568.03 1549.52 1562.22 1549.52 Q1556.41 1549.52 1553.33 1544.94 Q1550.28 1540.33 1550.28 1531.6 Q1550.28 1522.85 1553.33 1518.27 Q1556.41 1513.66 1562.22 1513.66 Z" fill="#000000" fill-rule="evenodd" fill-opacity="1" /><path clip-path="url(#clip000)" d="M1592.38 1517.37 Q1588.77 1517.37 1586.94 1520.93 Q1585.14 1524.47 1585.14 1531.6 Q1585.14 1538.71 1586.94 1542.27 Q1588.77 1545.82 1592.38 1545.82 Q1596.02 1545.82 1597.82 1542.27 Q1599.65 1538.71 1599.65 1531.6 Q1599.65 1524.47 1597.82 1520.93 Q1596.02 1517.37 1592.38 1517.37 M1592.38 1513.66 Q1598.19 1513.66 1601.25 1518.27 Q1604.33 1522.85 1604.33 1531.6 Q1604.33 1540.33 1601.25 1544.94 Q1598.19 1549.52 1592.38 1549.52 Q1586.57 1549.52 1583.49 1544.94 Q1580.44 1540.33 1580.44 1531.6 Q1580.44 1522.85 1583.49 1518.27 Q1586.57 1513.66 1592.38 1513.66 Z" fill="#000000" fill-rule="evenodd" fill-opacity="1" /><path clip-path="url(#clip000)" d="M1622.54 1517.37 Q1618.93 1517.37 1617.1 1520.93 Q1615.3 1524.47 1615.3 1531.6 Q1615.3 1538.71 1617.1 1542.27 Q1618.93 1545.82 1622.54 1545.82 Q1626.18 1545.82 1627.98 1542.27 Q1629.81 1538.71 1629.81 1531.6 Q1629.81 1524.47 1627.98 1520.93 Q1626.18 1517.37 1622.54 1517.37 M1622.54 1513.66 Q1628.35 1513.66 1631.41 1518.27 Q1634.49 1522.85 1634.49 1531.6 Q1634.49 1540.33 1631.41 1544.94 Q1628.35 1549.52 1622.54 1549.52 Q1616.73 1549.52 1613.66 1544.94 Q1610.6 1540.33 1610.6 1531.6 Q1610.6 1522.85 1613.66 1518.27 Q1616.73 1513.66 1622.54 1513.66 Z" fill="#000000" fill-rule="evenodd" fill-opacity="1" /><path clip-path="url(#clip000)" d="M1652.71 1517.37 Q1649.09 1517.37 1647.27 1520.93 Q1645.46 1524.47 1645.46 1531.6 Q1645.46 1538.71 1647.27 1542.27 Q1649.09 1545.82 1652.71 1545.82 Q1656.34 1545.82 1658.15 1542.27 Q1659.97 1538.71 1659.97 1531.6 Q1659.97 1524.47 1658.15 1520.93 Q1656.34 1517.37 1652.71 1517.37 M1652.71 1513.66 Q1658.52 1513.66 1661.57 1518.27 Q1664.65 1522.85 1664.65 1531.6 Q1664.65 1540.33 1661.57 1544.94 Q1658.52 1549.52 1652.71 1549.52 Q1646.9 1549.52 1643.82 1544.94 Q1640.76 1540.33 1640.76 1531.6 Q1640.76 1522.85 1643.82 1518.27 Q1646.9 1513.66 1652.71 1513.66 Z" fill="#000000" fill-rule="evenodd" fill-opacity="1" /><path clip-path="url(#clip000)" d="M1682.87 1517.37 Q1679.26 1517.37 1677.43 1520.93 Q1675.62 1524.47 1675.62 1531.6 Q1675.62 1538.71 1677.43 1542.27 Q1679.26 1545.82 1682.87 1545.82 Q1686.5 1545.82 1688.31 1542.27 Q1690.14 1538.71 1690.14 1531.6 Q1690.14 1524.47 1688.31 1520.93 Q1686.5 1517.37 1682.87 1517.37 M1682.87 1513.66 Q1688.68 1513.66 1691.73 1518.27 Q1694.81 1522.85 1694.81 1531.6 Q1694.81 1540.33 1691.73 1544.94 Q1688.68 1549.52 1682.87 1549.52 Q1677.06 1549.52 1673.98 1544.94 Q1670.92 1540.33 1670.92 1531.6 Q1670.92 1522.85 1673.98 1518.27 Q1677.06 1513.66 1682.87 1513.66 Z" fill="#000000" fill-rule="evenodd" fill-opacity="1" /><path clip-path="url(#clip000)" d="M1713.03 1517.37 Q1709.42 1517.37 1707.59 1520.93 Q1705.78 1524.47 1705.78 1531.6 Q1705.78 1538.71 1707.59 1542.27 Q1709.42 1545.82 1713.03 1545.82 Q1716.66 1545.82 1718.47 1542.27 Q1720.3 1538.71 1720.3 1531.6 Q1720.3 1524.47 1718.47 1520.93 Q1716.66 1517.37 1713.03 1517.37 M1713.03 1513.66 Q1718.84 1513.66 1721.9 1518.27 Q1724.97 1522.85 1724.97 1531.6 Q1724.97 1540.33 1721.9 1544.94 Q1718.84 1549.52 1713.03 1549.52 Q1707.22 1549.52 1704.14 1544.94 Q1701.09 1540.33 1701.09 1531.6 Q1701.09 1522.85 1704.14 1518.27 Q1707.22 1513.66 1713.03 1513.66 Z" fill="#000000" fill-rule="evenodd" fill-opacity="1" /><path clip-path="url(#clip000)" d="M1734 1544.91 L1741.64 1544.91 L1741.64 1518.55 L1733.33 1520.21 L1733.33 1515.95 L1741.59 1514.29 L1746.27 1514.29 L1746.27 1544.91 L1753.91 1544.91 L1753.91 1548.85 L1734 1548.85 L1734 1544.91 Z" fill="#000000" fill-rule="evenodd" fill-opacity="1" /><path clip-path="url(#clip000)" d="M1764.44 1544.91 L1772.08 1544.91 L1772.08 1518.55 L1763.77 1520.21 L1763.77 1515.95 L1772.03 1514.29 L1776.71 1514.29 L1776.71 1544.91 L1784.35 1544.91 L1784.35 1548.85 L1764.44 1548.85 L1764.44 1544.91 Z" fill="#000000" fill-rule="evenodd" fill-opacity="1" /><path clip-path="url(#clip000)" d="M1803.79 1517.37 Q1800.18 1517.37 1798.35 1520.93 Q1796.55 1524.47 1796.55 1531.6 Q1796.55 1538.71 1798.35 1542.27 Q1800.18 1545.82 1803.79 1545.82 Q1807.43 1545.82 1809.23 1542.27 Q1811.06 1538.71 1811.06 1531.6 Q1811.06 1524.47 1809.23 1520.93 Q1807.43 1517.37 1803.79 1517.37 M1803.79 1513.66 Q1809.6 1513.66 1812.66 1518.27 Q1815.74 1522.85 1815.74 1531.6 Q1815.74 1540.33 1812.66 1544.94 Q1809.6 1549.52 1803.79 1549.52 Q1797.98 1549.52 1794.9 1544.94 Q1791.85 1540.33 1791.85 1531.6 Q1791.85 1522.85 1794.9 1518.27 Q1797.98 1513.66 1803.79 1513.66 Z" fill="#000000" fill-rule="evenodd" fill-opacity="1" /><path clip-path="url(#clip000)" d="M1833.95 1517.37 Q1830.34 1517.37 1828.51 1520.93 Q1826.71 1524.47 1826.71 1531.6 Q1826.71 1538.71 1828.51 1542.27 Q1830.34 1545.82 1833.95 1545.82 Q1837.59 1545.82 1839.39 1542.27 Q1841.22 1538.71 1841.22 1531.6 Q1841.22 1524.47 1839.39 1520.93 Q1837.59 1517.37 1833.95 1517.37 M1833.95 1513.66 Q1839.76 1513.66 1842.82 1518.27 Q1845.9 1522.85 1845.9 1531.6 Q1845.9 1540.33 1842.82 1544.94 Q1839.76 1549.52 1833.95 1549.52 Q1828.14 1549.52 1825.06 1544.94 Q1822.01 1540.33 1822.01 1531.6 Q1822.01 1522.85 1825.06 1518.27 Q1828.14 1513.66 1833.95 1513.66 Z" fill="#000000" fill-rule="evenodd" fill-opacity="1" /><path clip-path="url(#clip000)" d="M1864.12 1517.37 Q1860.5 1517.37 1858.68 1520.93 Q1856.87 1524.47 1856.87 1531.6 Q1856.87 1538.71 1858.68 1542.27 Q1860.5 1545.82 1864.12 1545.82 Q1867.75 1545.82 1869.55 1542.27 Q1871.38 1538.71 1871.38 1531.6 Q1871.38 1524.47 1869.55 1520.93 Q1867.75 1517.37 1864.12 1517.37 M1864.12 1513.66 Q1869.93 1513.66 1872.98 1518.27 Q1876.06 1522.85 1876.06 1531.6 Q1876.06 1540.33 1872.98 1544.94 Q1869.93 1549.52 1864.12 1549.52 Q1858.3 1549.52 1855.23 1544.94 Q1852.17 1540.33 1852.17 1531.6 Q1852.17 1522.85 1855.23 1518.27 Q1858.3 1513.66 1864.12 1513.66 Z" fill="#000000" fill-rule="evenodd" fill-opacity="1" /><path clip-path="url(#clip000)" d="M1894.28 1517.37 Q1890.67 1517.37 1888.84 1520.93 Q1887.03 1524.47 1887.03 1531.6 Q1887.03 1538.71 1888.84 1542.27 Q1890.67 1545.82 1894.28 1545.82 Q1897.91 1545.82 1899.72 1542.27 Q1901.55 1538.71 1901.55 1531.6 Q1901.55 1524.47 1899.72 1520.93 Q1897.91 1517.37 1894.28 1517.37 M1894.28 1513.66 Q1900.09 1513.66 1903.14 1518.27 Q1906.22 1522.85 1906.22 1531.6 Q1906.22 1540.33 1903.14 1544.94 Q1900.09 1549.52 1894.28 1549.52 Q1888.47 1549.52 1885.39 1544.94 Q1882.33 1540.33 1882.33 1531.6 Q1882.33 1522.85 1885.39 1518.27 Q1888.47 1513.66 1894.28 1513.66 Z" fill="#000000" fill-rule="evenodd" fill-opacity="1" /><path clip-path="url(#clip000)" d="M1924.44 1517.37 Q1920.83 1517.37 1919 1520.93 Q1917.19 1524.47 1917.19 1531.6 Q1917.19 1538.71 1919 1542.27 Q1920.83 1545.82 1924.44 1545.82 Q1928.07 1545.82 1929.88 1542.27 Q1931.71 1538.71 1931.71 1531.6 Q1931.71 1524.47 1929.88 1520.93 Q1928.07 1517.37 1924.44 1517.37 M1924.44 1513.66 Q1930.25 1513.66 1933.3 1518.27 Q1936.38 1522.85 1936.38 1531.6 Q1936.38 1540.33 1933.3 1544.94 Q1930.25 1549.52 1924.44 1549.52 Q1918.63 1549.52 1915.55 1544.94 Q1912.49 1540.33 1912.49 1531.6 Q1912.49 1522.85 1915.55 1518.27 Q1918.63 1513.66 1924.44 1513.66 Z" fill="#000000" fill-rule="evenodd" fill-opacity="1" /><path clip-path="url(#clip000)" d="M1954.6 1517.37 Q1950.99 1517.37 1949.16 1520.93 Q1947.36 1524.47 1947.36 1531.6 Q1947.36 1538.71 1949.16 1542.27 Q1950.99 1545.82 1954.6 1545.82 Q1958.23 1545.82 1960.04 1542.27 Q1961.87 1538.71 1961.87 1531.6 Q1961.87 1524.47 1960.04 1520.93 Q1958.23 1517.37 1954.6 1517.37 M1954.6 1513.66 Q1960.41 1513.66 1963.47 1518.27 Q1966.55 1522.85 1966.55 1531.6 Q1966.55 1540.33 1963.47 1544.94 Q1960.41 1549.52 1954.6 1549.52 Q1948.79 1549.52 1945.71 1544.94 Q1942.66 1540.33 1942.66 1531.6 Q1942.66 1522.85 1945.71 1518.27 Q1948.79 1513.66 1954.6 1513.66 Z" fill="#000000" fill-rule="evenodd" fill-opacity="1" /><path clip-path="url(#clip000)" d="M1984.76 1517.37 Q1981.15 1517.37 1979.32 1520.93 Q1977.52 1524.47 1977.52 1531.6 Q1977.52 1538.71 1979.32 1542.27 Q1981.15 1545.82 1984.76 1545.82 Q1988.4 1545.82 1990.2 1542.27 Q1992.03 1538.71 1992.03 1531.6 Q1992.03 1524.47 1990.2 1520.93 Q1988.4 1517.37 1984.76 1517.37 M1984.76 1513.66 Q1990.57 1513.66 1993.63 1518.27 Q1996.71 1522.85 1996.71 1531.6 Q1996.71 1540.33 1993.63 1544.94 Q1990.57 1549.52 1984.76 1549.52 Q1978.95 1549.52 1975.87 1544.94 Q1972.82 1540.33 1972.82 1531.6 Q1972.82 1522.85 1975.87 1518.27 Q1978.95 1513.66 1984.76 1513.66 Z" fill="#000000" fill-rule="evenodd" fill-opacity="1" /><path clip-path="url(#clip000)" d="M2008.95 1544.91 L2025.27 1544.91 L2025.27 1548.85 L2003.33 1548.85 L2003.33 1544.91 Q2005.99 1542.16 2010.57 1537.53 Q2015.18 1532.88 2016.36 1531.53 Q2018.6 1529.01 2019.48 1527.27 Q2020.39 1525.51 2020.39 1523.82 Q2020.39 1521.07 2018.44 1519.33 Q2016.52 1517.6 2013.42 1517.6 Q2011.22 1517.6 2008.77 1518.36 Q2006.34 1519.13 2003.56 1520.68 L2003.56 1515.95 Q2006.38 1514.82 2008.84 1514.24 Q2011.29 1513.66 2013.33 1513.66 Q2018.7 1513.66 2021.89 1516.35 Q2025.09 1519.03 2025.09 1523.52 Q2025.09 1525.65 2024.28 1527.57 Q2023.49 1529.47 2021.38 1532.07 Q2020.8 1532.74 2017.7 1535.95 Q2014.6 1539.15 2008.95 1544.91 Z" fill="#000000" fill-rule="evenodd" fill-opacity="1" /><path clip-path="url(#clip000)" d="M2035.51 1544.91 L2043.15 1544.91 L2043.15 1518.55 L2034.84 1520.21 L2034.84 1515.95 L2043.11 1514.29 L2047.78 1514.29 L2047.78 1544.91 L2055.42 1544.91 L2055.42 1548.85 L2035.51 1548.85 L2035.51 1544.91 Z" fill="#000000" fill-rule="evenodd" fill-opacity="1" /><path clip-path="url(#clip000)" d="M2074.86 1517.37 Q2071.25 1517.37 2069.42 1520.93 Q2067.62 1524.47 2067.62 1531.6 Q2067.62 1538.71 2069.42 1542.27 Q2071.25 1545.82 2074.86 1545.82 Q2078.5 1545.82 2080.3 1542.27 Q2082.13 1538.71 2082.13 1531.6 Q2082.13 1524.47 2080.3 1520.93 Q2078.5 1517.37 2074.86 1517.37 M2074.86 1513.66 Q2080.67 1513.66 2083.73 1518.27 Q2086.81 1522.85 2086.81 1531.6 Q2086.81 1540.33 2083.73 1544.94 Q2080.67 1549.52 2074.86 1549.52 Q2069.05 1549.52 2065.98 1544.94 Q2062.92 1540.33 2062.92 1531.6 Q2062.92 1522.85 2065.98 1518.27 Q2069.05 1513.66 2074.86 1513.66 Z" fill="#000000" fill-rule="evenodd" fill-opacity="1" /><path clip-path="url(#clip000)" d="M2105.03 1517.37 Q2101.42 1517.37 2099.59 1520.93 Q2097.78 1524.47 2097.78 1531.6 Q2097.78 1538.71 2099.59 1542.27 Q2101.42 1545.82 2105.03 1545.82 Q2108.66 1545.82 2110.47 1542.27 Q2112.3 1538.71 2112.3 1531.6 Q2112.3 1524.47 2110.47 1520.93 Q2108.66 1517.37 2105.03 1517.37 M2105.03 1513.66 Q2110.84 1513.66 2113.89 1518.27 Q2116.97 1522.85 2116.97 1531.6 Q2116.97 1540.33 2113.89 1544.94 Q2110.84 1549.52 2105.03 1549.52 Q2099.22 1549.52 2096.14 1544.94 Q2093.08 1540.33 2093.08 1531.6 Q2093.08 1522.85 2096.14 1518.27 Q2099.22 1513.66 2105.03 1513.66 Z" fill="#000000" fill-rule="evenodd" fill-opacity="1" /><path clip-path="url(#clip000)" d="M2135.19 1517.37 Q2131.58 1517.37 2129.75 1520.93 Q2127.94 1524.47 2127.94 1531.6 Q2127.94 1538.71 2129.75 1542.27 Q2131.58 1545.82 2135.19 1545.82 Q2138.82 1545.82 2140.63 1542.27 Q2142.46 1538.71 2142.46 1531.6 Q2142.46 1524.47 2140.63 1520.93 Q2138.82 1517.37 2135.19 1517.37 M2135.19 1513.66 Q2141 1513.66 2144.05 1518.27 Q2147.13 1522.85 2147.13 1531.6 Q2147.13 1540.33 2144.05 1544.94 Q2141 1549.52 2135.19 1549.52 Q2129.38 1549.52 2126.3 1544.94 Q2123.24 1540.33 2123.24 1531.6 Q2123.24 1522.85 2126.3 1518.27 Q2129.38 1513.66 2135.19 1513.66 Z" fill="#000000" fill-rule="evenodd" fill-opacity="1" /><path clip-path="url(#clip000)" d="M2165.35 1517.37 Q2161.74 1517.37 2159.91 1520.93 Q2158.1 1524.47 2158.1 1531.6 Q2158.1 1538.71 2159.91 1542.27 Q2161.74 1545.82 2165.35 1545.82 Q2168.98 1545.82 2170.79 1542.27 Q2172.62 1538.71 2172.62 1531.6 Q2172.62 1524.47 2170.79 1520.93 Q2168.98 1517.37 2165.35 1517.37 M2165.35 1513.66 Q2171.16 1513.66 2174.22 1518.27 Q2177.29 1522.85 2177.29 1531.6 Q2177.29 1540.33 2174.22 1544.94 Q2171.16 1549.52 2165.35 1549.52 Q2159.54 1549.52 2156.46 1544.94 Q2153.41 1540.33 2153.41 1531.6 Q2153.41 1522.85 2156.46 1518.27 Q2159.54 1513.66 2165.35 1513.66 Z" fill="#000000" fill-rule="evenodd" fill-opacity="1" /><path clip-path="url(#clip000)" d="M2195.51 1517.37 Q2191.9 1517.37 2190.07 1520.93 Q2188.27 1524.47 2188.27 1531.6 Q2188.27 1538.71 2190.07 1542.27 Q2191.9 1545.82 2195.51 1545.82 Q2199.15 1545.82 2200.95 1542.27 Q2202.78 1538.71 2202.78 1531.6 Q2202.78 1524.47 2200.95 1520.93 Q2199.15 1517.37 2195.51 1517.37 M2195.51 1513.66 Q2201.32 1513.66 2204.38 1518.27 Q2207.46 1522.85 2207.46 1531.6 Q2207.46 1540.33 2204.38 1544.94 Q2201.32 1549.52 2195.51 1549.52 Q2189.7 1549.52 2186.62 1544.94 Q2183.57 1540.33 2183.57 1531.6 Q2183.57 1522.85 2186.62 1518.27 Q2189.7 1513.66 2195.51 1513.66 Z" fill="#000000" fill-rule="evenodd" fill-opacity="1" /><path clip-path="url(#clip000)" d="M2225.67 1517.37 Q2222.06 1517.37 2220.23 1520.93 Q2218.43 1524.47 2218.43 1531.6 Q2218.43 1538.71 2220.23 1542.27 Q2222.06 1545.82 2225.67 1545.82 Q2229.31 1545.82 2231.11 1542.27 Q2232.94 1538.71 2232.94 1531.6 Q2232.94 1524.47 2231.11 1520.93 Q2229.31 1517.37 2225.67 1517.37 M2225.67 1513.66 Q2231.48 1513.66 2234.54 1518.27 Q2237.62 1522.85 2237.62 1531.6 Q2237.62 1540.33 2234.54 1544.94 Q2231.48 1549.52 2225.67 1549.52 Q2219.86 1549.52 2216.79 1544.94 Q2213.73 1540.33 2213.73 1531.6 Q2213.73 1522.85 2216.79 1518.27 Q2219.86 1513.66 2225.67 1513.66 Z" fill="#000000" fill-rule="evenodd" fill-opacity="1" /><path clip-path="url(#clip000)" d="M2255.84 1517.37 Q2252.22 1517.37 2250.4 1520.93 Q2248.59 1524.47 2248.59 1531.6 Q2248.59 1538.71 2250.4 1542.27 Q2252.22 1545.82 2255.84 1545.82 Q2259.47 1545.82 2261.28 1542.27 Q2263.1 1538.71 2263.1 1531.6 Q2263.1 1524.47 2261.28 1520.93 Q2259.47 1517.37 2255.84 1517.37 M2255.84 1513.66 Q2261.65 1513.66 2264.7 1518.27 Q2267.78 1522.85 2267.78 1531.6 Q2267.78 1540.33 2264.7 1544.94 Q2261.65 1549.52 2255.84 1549.52 Q2250.03 1549.52 2246.95 1544.94 Q2243.89 1540.33 2243.89 1531.6 Q2243.89 1522.85 2246.95 1518.27 Q2250.03 1513.66 2255.84 1513.66 Z" fill="#000000" fill-rule="evenodd" fill-opacity="1" /><path clip-path="url(#clip000)" d="M2290.16 1530.21 Q2293.52 1530.93 2295.4 1533.2 Q2297.29 1535.47 2297.29 1538.8 Q2297.29 1543.92 2293.78 1546.72 Q2290.26 1549.52 2283.78 1549.52 Q2281.6 1549.52 2279.28 1549.08 Q2276.99 1548.66 2274.54 1547.81 L2274.54 1543.29 Q2276.48 1544.43 2278.8 1545.01 Q2281.11 1545.58 2283.64 1545.58 Q2288.03 1545.58 2290.33 1543.85 Q2292.64 1542.11 2292.64 1538.8 Q2292.64 1535.75 2290.49 1534.03 Q2288.36 1532.3 2284.54 1532.3 L2280.51 1532.3 L2280.51 1528.45 L2284.72 1528.45 Q2288.17 1528.45 2290 1527.09 Q2291.83 1525.7 2291.83 1523.11 Q2291.83 1520.45 2289.93 1519.03 Q2288.06 1517.6 2284.54 1517.6 Q2282.62 1517.6 2280.42 1518.01 Q2278.22 1518.43 2275.58 1519.31 L2275.58 1515.14 Q2278.24 1514.4 2280.56 1514.03 Q2282.9 1513.66 2284.96 1513.66 Q2290.28 1513.66 2293.38 1516.09 Q2296.48 1518.5 2296.48 1522.62 Q2296.48 1525.49 2294.84 1527.48 Q2293.2 1529.45 2290.16 1530.21 Z" fill="#000000" fill-rule="evenodd" fill-opacity="1" /><polyline clip-path="url(#clip002)" style="stroke:#000000; stroke-linecap:butt; stroke-linejoin:round; stroke-width:2; stroke-opacity:0.1; fill:none" points="
  350.093,1445.72 2352.76,1445.72 
  "/>
<polyline clip-path="url(#clip002)" style="stroke:#000000; stroke-linecap:butt; stroke-linejoin:round; stroke-width:2; stroke-opacity:0.1; fill:none" points="
  350.093,1174.17 2352.76,1174.17 
  "/>
<polyline clip-path="url(#clip002)" style="stroke:#000000; stroke-linecap:butt; stroke-linejoin:round; stroke-width:2; stroke-opacity:0.1; fill:none" points="
  350.093,902.62 2352.76,902.62 
  "/>
<polyline clip-path="url(#clip002)" style="stroke:#000000; stroke-linecap:butt; stroke-linejoin:round; stroke-width:2; stroke-opacity:0.1; fill:none" points="
  350.093,631.072 2352.76,631.072 
  "/>
<polyline clip-path="url(#clip002)" style="stroke:#000000; stroke-linecap:butt; stroke-linejoin:round; stroke-width:2; stroke-opacity:0.1; fill:none" points="
  350.093,359.524 2352.76,359.524 
  "/>
<polyline clip-path="url(#clip002)" style="stroke:#000000; stroke-linecap:butt; stroke-linejoin:round; stroke-width:2; stroke-opacity:0.1; fill:none" points="
  350.093,87.9763 2352.76,87.9763 
  "/>
<polyline clip-path="url(#clip000)" style="stroke:#000000; stroke-linecap:butt; stroke-linejoin:round; stroke-width:4; stroke-opacity:1; fill:none" points="
  350.093,1486.45 350.093,47.2441 
  "/>
<polyline clip-path="url(#clip000)" style="stroke:#000000; stroke-linecap:butt; stroke-linejoin:round; stroke-width:4; stroke-opacity:1; fill:none" points="
  350.093,1445.72 368.99,1445.72 
  "/>
<polyline clip-path="url(#clip000)" style="stroke:#000000; stroke-linecap:butt; stroke-linejoin:round; stroke-width:4; stroke-opacity:1; fill:none" points="
  350.093,1174.17 368.99,1174.17 
  "/>
<polyline clip-path="url(#clip000)" style="stroke:#000000; stroke-linecap:butt; stroke-linejoin:round; stroke-width:4; stroke-opacity:1; fill:none" points="
  350.093,902.62 368.99,902.62 
  "/>
<polyline clip-path="url(#clip000)" style="stroke:#000000; stroke-linecap:butt; stroke-linejoin:round; stroke-width:4; stroke-opacity:1; fill:none" points="
  350.093,631.072 368.99,631.072 
  "/>
<polyline clip-path="url(#clip000)" style="stroke:#000000; stroke-linecap:butt; stroke-linejoin:round; stroke-width:4; stroke-opacity:1; fill:none" points="
  350.093,359.524 368.99,359.524 
  "/>
<polyline clip-path="url(#clip000)" style="stroke:#000000; stroke-linecap:butt; stroke-linejoin:round; stroke-width:4; stroke-opacity:1; fill:none" points="
  350.093,87.9763 368.99,87.9763 
  "/>
<path clip-path="url(#clip000)" d="M81.2466 1462.28 L81.2466 1458.02 Q83.0058 1458.85 84.8114 1459.29 Q86.6169 1459.73 88.353 1459.73 Q92.9826 1459.73 95.4132 1456.63 Q97.8669 1453.5 98.2141 1447.16 Q96.8715 1449.15 94.8113 1450.22 Q92.7512 1451.28 90.2512 1451.28 Q85.066 1451.28 82.0336 1448.16 Q79.0244 1445.01 79.0244 1439.57 Q79.0244 1434.25 82.1725 1431.03 Q85.3206 1427.81 90.5521 1427.81 Q96.5474 1427.81 99.6956 1432.42 Q102.867 1437 102.867 1445.75 Q102.867 1453.92 98.978 1458.81 Q95.1123 1463.67 88.5614 1463.67 Q86.8021 1463.67 84.9966 1463.32 Q83.191 1462.97 81.2466 1462.28 M90.5521 1447.63 Q93.7002 1447.63 95.5289 1445.47 Q97.3808 1443.32 97.3808 1439.57 Q97.3808 1435.84 95.5289 1433.69 Q93.7002 1431.51 90.5521 1431.51 Q87.404 1431.51 85.5521 1433.69 Q83.7234 1435.84 83.7234 1439.57 Q83.7234 1443.32 85.5521 1445.47 Q87.404 1447.63 90.5521 1447.63 Z" fill="#000000" fill-rule="evenodd" fill-opacity="1" /><path clip-path="url(#clip000)" d="M111.408 1462.28 L111.408 1458.02 Q113.168 1458.85 114.973 1459.29 Q116.779 1459.73 118.515 1459.73 Q123.145 1459.73 125.575 1456.63 Q128.029 1453.5 128.376 1447.16 Q127.033 1449.15 124.973 1450.22 Q122.913 1451.28 120.413 1451.28 Q115.228 1451.28 112.196 1448.16 Q109.186 1445.01 109.186 1439.57 Q109.186 1434.25 112.334 1431.03 Q115.483 1427.81 120.714 1427.81 Q126.709 1427.81 129.857 1432.42 Q133.029 1437 133.029 1445.75 Q133.029 1453.92 129.14 1458.81 Q125.274 1463.67 118.723 1463.67 Q116.964 1463.67 115.158 1463.32 Q113.353 1462.97 111.408 1462.28 M120.714 1447.63 Q123.862 1447.63 125.691 1445.47 Q127.543 1443.32 127.543 1439.57 Q127.543 1435.84 125.691 1433.69 Q123.862 1431.51 120.714 1431.51 Q117.566 1431.51 115.714 1433.69 Q113.885 1435.84 113.885 1439.57 Q113.885 1443.32 115.714 1445.47 Q117.566 1447.63 120.714 1447.63 Z" fill="#000000" fill-rule="evenodd" fill-opacity="1" /><path clip-path="url(#clip000)" d="M141.57 1462.28 L141.57 1458.02 Q143.33 1458.85 145.135 1459.29 Q146.941 1459.73 148.677 1459.73 Q153.306 1459.73 155.737 1456.63 Q158.191 1453.5 158.538 1447.16 Q157.195 1449.15 155.135 1450.22 Q153.075 1451.28 150.575 1451.28 Q145.39 1451.28 142.357 1448.16 Q139.348 1445.01 139.348 1439.57 Q139.348 1434.25 142.496 1431.03 Q145.644 1427.81 150.876 1427.81 Q156.871 1427.81 160.019 1432.42 Q163.191 1437 163.191 1445.75 Q163.191 1453.92 159.302 1458.81 Q155.436 1463.67 148.885 1463.67 Q147.126 1463.67 145.32 1463.32 Q143.515 1462.97 141.57 1462.28 M150.876 1447.63 Q154.024 1447.63 155.853 1445.47 Q157.705 1443.32 157.705 1439.57 Q157.705 1435.84 155.853 1433.69 Q154.024 1431.51 150.876 1431.51 Q147.728 1431.51 145.876 1433.69 Q144.047 1435.84 144.047 1439.57 Q144.047 1443.32 145.876 1445.47 Q147.728 1447.63 150.876 1447.63 Z" fill="#000000" fill-rule="evenodd" fill-opacity="1" /><path clip-path="url(#clip000)" d="M171.732 1462.28 L171.732 1458.02 Q173.491 1458.85 175.297 1459.29 Q177.103 1459.73 178.839 1459.73 Q183.468 1459.73 185.899 1456.63 Q188.353 1453.5 188.7 1447.16 Q187.357 1449.15 185.297 1450.22 Q183.237 1451.28 180.737 1451.28 Q175.552 1451.28 172.519 1448.16 Q169.51 1445.01 169.51 1439.57 Q169.51 1434.25 172.658 1431.03 Q175.806 1427.81 181.038 1427.81 Q187.033 1427.81 190.181 1432.42 Q193.352 1437 193.352 1445.75 Q193.352 1453.92 189.464 1458.81 Q185.598 1463.67 179.047 1463.67 Q177.288 1463.67 175.482 1463.32 Q173.677 1462.97 171.732 1462.28 M181.038 1447.63 Q184.186 1447.63 186.015 1445.47 Q187.866 1443.32 187.866 1439.57 Q187.866 1435.84 186.015 1433.69 Q184.186 1431.51 181.038 1431.51 Q177.89 1431.51 176.038 1433.69 Q174.209 1435.84 174.209 1439.57 Q174.209 1443.32 176.038 1445.47 Q177.89 1447.63 181.038 1447.63 Z" fill="#000000" fill-rule="evenodd" fill-opacity="1" /><path clip-path="url(#clip000)" d="M201.894 1462.28 L201.894 1458.02 Q203.653 1458.85 205.459 1459.29 Q207.264 1459.73 209.001 1459.73 Q213.63 1459.73 216.061 1456.63 Q218.514 1453.5 218.862 1447.16 Q217.519 1449.15 215.459 1450.22 Q213.399 1451.28 210.899 1451.28 Q205.714 1451.28 202.681 1448.16 Q199.672 1445.01 199.672 1439.57 Q199.672 1434.25 202.82 1431.03 Q205.968 1427.81 211.2 1427.81 Q217.195 1427.81 220.343 1432.42 Q223.514 1437 223.514 1445.75 Q223.514 1453.92 219.625 1458.81 Q215.76 1463.67 209.209 1463.67 Q207.45 1463.67 205.644 1463.32 Q203.839 1462.97 201.894 1462.28 M211.2 1447.63 Q214.348 1447.63 216.176 1445.47 Q218.028 1443.32 218.028 1439.57 Q218.028 1435.84 216.176 1433.69 Q214.348 1431.51 211.2 1431.51 Q208.051 1431.51 206.2 1433.69 Q204.371 1435.84 204.371 1439.57 Q204.371 1443.32 206.2 1445.47 Q208.051 1447.63 211.2 1447.63 Z" fill="#000000" fill-rule="evenodd" fill-opacity="1" /><path clip-path="url(#clip000)" d="M232.056 1462.28 L232.056 1458.02 Q233.815 1458.85 235.621 1459.29 Q237.426 1459.73 239.162 1459.73 Q243.792 1459.73 246.223 1456.63 Q248.676 1453.5 249.023 1447.16 Q247.681 1449.15 245.621 1450.22 Q243.561 1451.28 241.061 1451.28 Q235.875 1451.28 232.843 1448.16 Q229.834 1445.01 229.834 1439.57 Q229.834 1434.25 232.982 1431.03 Q236.13 1427.81 241.361 1427.81 Q247.357 1427.81 250.505 1432.42 Q253.676 1437 253.676 1445.75 Q253.676 1453.92 249.787 1458.81 Q245.922 1463.67 239.371 1463.67 Q237.611 1463.67 235.806 1463.32 Q234 1462.97 232.056 1462.28 M241.361 1447.63 Q244.51 1447.63 246.338 1445.47 Q248.19 1443.32 248.19 1439.57 Q248.19 1435.84 246.338 1433.69 Q244.51 1431.51 241.361 1431.51 Q238.213 1431.51 236.362 1433.69 Q234.533 1435.84 234.533 1439.57 Q234.533 1443.32 236.362 1445.47 Q238.213 1447.63 241.361 1447.63 Z" fill="#000000" fill-rule="evenodd" fill-opacity="1" /><path clip-path="url(#clip000)" d="M262.218 1462.28 L262.218 1458.02 Q263.977 1458.85 265.783 1459.29 Q267.588 1459.73 269.324 1459.73 Q273.954 1459.73 276.384 1456.63 Q278.838 1453.5 279.185 1447.16 Q277.843 1449.15 275.783 1450.22 Q273.722 1451.28 271.222 1451.28 Q266.037 1451.28 263.005 1448.16 Q259.996 1445.01 259.996 1439.57 Q259.996 1434.25 263.144 1431.03 Q266.292 1427.81 271.523 1427.81 Q277.519 1427.81 280.667 1432.42 Q283.838 1437 283.838 1445.75 Q283.838 1453.92 279.949 1458.81 Q276.084 1463.67 269.533 1463.67 Q267.773 1463.67 265.968 1463.32 Q264.162 1462.97 262.218 1462.28 M271.523 1447.63 Q274.671 1447.63 276.5 1445.47 Q278.352 1443.32 278.352 1439.57 Q278.352 1435.84 276.5 1433.69 Q274.671 1431.51 271.523 1431.51 Q268.375 1431.51 266.523 1433.69 Q264.695 1435.84 264.695 1439.57 Q264.695 1443.32 266.523 1445.47 Q268.375 1447.63 271.523 1447.63 Z" fill="#000000" fill-rule="evenodd" fill-opacity="1" /><path clip-path="url(#clip000)" d="M302.241 1446.58 Q298.907 1446.58 296.986 1448.37 Q295.088 1450.15 295.088 1453.27 Q295.088 1456.4 296.986 1458.18 Q298.907 1459.96 302.241 1459.96 Q305.574 1459.96 307.495 1458.18 Q309.417 1456.38 309.417 1453.27 Q309.417 1450.15 307.495 1448.37 Q305.597 1446.58 302.241 1446.58 M297.565 1444.59 Q294.556 1443.85 292.866 1441.79 Q291.199 1439.73 291.199 1436.77 Q291.199 1432.63 294.139 1430.22 Q297.102 1427.81 302.241 1427.81 Q307.403 1427.81 310.343 1430.22 Q313.282 1432.63 313.282 1436.77 Q313.282 1439.73 311.593 1441.79 Q309.926 1443.85 306.94 1444.59 Q310.319 1445.38 312.194 1447.67 Q314.093 1449.96 314.093 1453.27 Q314.093 1458.3 311.014 1460.98 Q307.958 1463.67 302.241 1463.67 Q296.523 1463.67 293.445 1460.98 Q290.389 1458.3 290.389 1453.27 Q290.389 1449.96 292.287 1447.67 Q294.185 1445.38 297.565 1444.59 M295.852 1437.21 Q295.852 1439.89 297.519 1441.4 Q299.208 1442.9 302.241 1442.9 Q305.25 1442.9 306.94 1441.4 Q308.653 1439.89 308.653 1437.21 Q308.653 1434.52 306.94 1433.02 Q305.25 1431.51 302.241 1431.51 Q299.208 1431.51 297.519 1433.02 Q295.852 1434.52 295.852 1437.21 Z" fill="#000000" fill-rule="evenodd" fill-opacity="1" /><path clip-path="url(#clip000)" d="M81.3392 1190.73 L81.3392 1186.47 Q83.0984 1187.3 84.904 1187.74 Q86.7095 1188.18 88.4456 1188.18 Q93.0752 1188.18 95.5058 1185.08 Q97.9595 1181.96 98.3067 1175.61 Q96.9641 1177.61 94.9039 1178.67 Q92.8438 1179.73 90.3438 1179.73 Q85.1586 1179.73 82.1262 1176.61 Q79.117 1173.46 79.117 1168.02 Q79.117 1162.7 82.2651 1159.48 Q85.4132 1156.26 90.6447 1156.26 Q96.64 1156.26 99.7882 1160.87 Q102.959 1165.45 102.959 1174.2 Q102.959 1182.37 99.0706 1187.26 Q95.2049 1192.12 88.654 1192.12 Q86.8947 1192.12 85.0892 1191.77 Q83.2836 1191.42 81.3392 1190.73 M90.6447 1176.08 Q93.7928 1176.08 95.6215 1173.92 Q97.4734 1171.77 97.4734 1168.02 Q97.4734 1164.3 95.6215 1162.14 Q93.7928 1159.97 90.6447 1159.97 Q87.4966 1159.97 85.6447 1162.14 Q83.816 1164.3 83.816 1168.02 Q83.816 1171.77 85.6447 1173.92 Q87.4966 1176.08 90.6447 1176.08 Z" fill="#000000" fill-rule="evenodd" fill-opacity="1" /><path clip-path="url(#clip000)" d="M111.501 1190.73 L111.501 1186.47 Q113.26 1187.3 115.066 1187.74 Q116.871 1188.18 118.608 1188.18 Q123.237 1188.18 125.668 1185.08 Q128.121 1181.96 128.469 1175.61 Q127.126 1177.61 125.066 1178.67 Q123.006 1179.73 120.506 1179.73 Q115.32 1179.73 112.288 1176.61 Q109.279 1173.46 109.279 1168.02 Q109.279 1162.7 112.427 1159.48 Q115.575 1156.26 120.807 1156.26 Q126.802 1156.26 129.95 1160.87 Q133.121 1165.45 133.121 1174.2 Q133.121 1182.37 129.232 1187.26 Q125.367 1192.12 118.816 1192.12 Q117.057 1192.12 115.251 1191.77 Q113.445 1191.42 111.501 1190.73 M120.807 1176.08 Q123.955 1176.08 125.783 1173.92 Q127.635 1171.77 127.635 1168.02 Q127.635 1164.3 125.783 1162.14 Q123.955 1159.97 120.807 1159.97 Q117.658 1159.97 115.807 1162.14 Q113.978 1164.3 113.978 1168.02 Q113.978 1171.77 115.807 1173.92 Q117.658 1176.08 120.807 1176.08 Z" fill="#000000" fill-rule="evenodd" fill-opacity="1" /><path clip-path="url(#clip000)" d="M141.663 1190.73 L141.663 1186.47 Q143.422 1187.3 145.228 1187.74 Q147.033 1188.18 148.769 1188.18 Q153.399 1188.18 155.83 1185.08 Q158.283 1181.96 158.63 1175.61 Q157.288 1177.61 155.228 1178.67 Q153.168 1179.73 150.668 1179.73 Q145.482 1179.73 142.45 1176.61 Q139.441 1173.46 139.441 1168.02 Q139.441 1162.7 142.589 1159.48 Q145.737 1156.26 150.968 1156.26 Q156.964 1156.26 160.112 1160.87 Q163.283 1165.45 163.283 1174.2 Q163.283 1182.37 159.394 1187.26 Q155.529 1192.12 148.978 1192.12 Q147.218 1192.12 145.413 1191.77 Q143.607 1191.42 141.663 1190.73 M150.968 1176.08 Q154.117 1176.08 155.945 1173.92 Q157.797 1171.77 157.797 1168.02 Q157.797 1164.3 155.945 1162.14 Q154.117 1159.97 150.968 1159.97 Q147.82 1159.97 145.968 1162.14 Q144.14 1164.3 144.14 1168.02 Q144.14 1171.77 145.968 1173.92 Q147.82 1176.08 150.968 1176.08 Z" fill="#000000" fill-rule="evenodd" fill-opacity="1" /><path clip-path="url(#clip000)" d="M171.825 1190.73 L171.825 1186.47 Q173.584 1187.3 175.39 1187.74 Q177.195 1188.18 178.931 1188.18 Q183.561 1188.18 185.991 1185.08 Q188.445 1181.96 188.792 1175.61 Q187.45 1177.61 185.39 1178.67 Q183.329 1179.73 180.829 1179.73 Q175.644 1179.73 172.612 1176.61 Q169.603 1173.46 169.603 1168.02 Q169.603 1162.7 172.751 1159.48 Q175.899 1156.26 181.13 1156.26 Q187.126 1156.26 190.274 1160.87 Q193.445 1165.45 193.445 1174.2 Q193.445 1182.37 189.556 1187.26 Q185.69 1192.12 179.14 1192.12 Q177.38 1192.12 175.575 1191.77 Q173.769 1191.42 171.825 1190.73 M181.13 1176.08 Q184.278 1176.08 186.107 1173.92 Q187.959 1171.77 187.959 1168.02 Q187.959 1164.3 186.107 1162.14 Q184.278 1159.97 181.13 1159.97 Q177.982 1159.97 176.13 1162.14 Q174.302 1164.3 174.302 1168.02 Q174.302 1171.77 176.13 1173.92 Q177.982 1176.08 181.13 1176.08 Z" fill="#000000" fill-rule="evenodd" fill-opacity="1" /><path clip-path="url(#clip000)" d="M201.987 1190.73 L201.987 1186.47 Q203.746 1187.3 205.551 1187.74 Q207.357 1188.18 209.093 1188.18 Q213.723 1188.18 216.153 1185.08 Q218.607 1181.96 218.954 1175.61 Q217.612 1177.61 215.551 1178.67 Q213.491 1179.73 210.991 1179.73 Q205.806 1179.73 202.774 1176.61 Q199.764 1173.46 199.764 1168.02 Q199.764 1162.7 202.913 1159.48 Q206.061 1156.26 211.292 1156.26 Q217.288 1156.26 220.436 1160.87 Q223.607 1165.45 223.607 1174.2 Q223.607 1182.37 219.718 1187.26 Q215.852 1192.12 209.301 1192.12 Q207.542 1192.12 205.737 1191.77 Q203.931 1191.42 201.987 1190.73 M211.292 1176.08 Q214.44 1176.08 216.269 1173.92 Q218.121 1171.77 218.121 1168.02 Q218.121 1164.3 216.269 1162.14 Q214.44 1159.97 211.292 1159.97 Q208.144 1159.97 206.292 1162.14 Q204.464 1164.3 204.464 1168.02 Q204.464 1171.77 206.292 1173.92 Q208.144 1176.08 211.292 1176.08 Z" fill="#000000" fill-rule="evenodd" fill-opacity="1" /><path clip-path="url(#clip000)" d="M232.149 1190.73 L232.149 1186.47 Q233.908 1187.3 235.713 1187.74 Q237.519 1188.18 239.255 1188.18 Q243.885 1188.18 246.315 1185.08 Q248.769 1181.96 249.116 1175.61 Q247.773 1177.61 245.713 1178.67 Q243.653 1179.73 241.153 1179.73 Q235.968 1179.73 232.936 1176.61 Q229.926 1173.46 229.926 1168.02 Q229.926 1162.7 233.074 1159.48 Q236.223 1156.26 241.454 1156.26 Q247.449 1156.26 250.598 1160.87 Q253.769 1165.45 253.769 1174.2 Q253.769 1182.37 249.88 1187.26 Q246.014 1192.12 239.463 1192.12 Q237.704 1192.12 235.899 1191.77 Q234.093 1191.42 232.149 1190.73 M241.454 1176.08 Q244.602 1176.08 246.431 1173.92 Q248.283 1171.77 248.283 1168.02 Q248.283 1164.3 246.431 1162.14 Q244.602 1159.97 241.454 1159.97 Q238.306 1159.97 236.454 1162.14 Q234.625 1164.3 234.625 1168.02 Q234.625 1171.77 236.454 1173.92 Q238.306 1176.08 241.454 1176.08 Z" fill="#000000" fill-rule="evenodd" fill-opacity="1" /><path clip-path="url(#clip000)" d="M262.31 1190.73 L262.31 1186.47 Q264.07 1187.3 265.875 1187.74 Q267.681 1188.18 269.417 1188.18 Q274.046 1188.18 276.477 1185.08 Q278.931 1181.96 279.278 1175.61 Q277.935 1177.61 275.875 1178.67 Q273.815 1179.73 271.315 1179.73 Q266.13 1179.73 263.097 1176.61 Q260.088 1173.46 260.088 1168.02 Q260.088 1162.7 263.236 1159.48 Q266.384 1156.26 271.616 1156.26 Q277.611 1156.26 280.759 1160.87 Q283.931 1165.45 283.931 1174.2 Q283.931 1182.37 280.042 1187.26 Q276.176 1192.12 269.625 1192.12 Q267.866 1192.12 266.06 1191.77 Q264.255 1191.42 262.31 1190.73 M271.616 1176.08 Q274.764 1176.08 276.593 1173.92 Q278.445 1171.77 278.445 1168.02 Q278.445 1164.3 276.593 1162.14 Q274.764 1159.97 271.616 1159.97 Q268.468 1159.97 266.616 1162.14 Q264.787 1164.3 264.787 1168.02 Q264.787 1171.77 266.616 1173.92 Q268.468 1176.08 271.616 1176.08 Z" fill="#000000" fill-rule="evenodd" fill-opacity="1" /><path clip-path="url(#clip000)" d="M292.472 1190.73 L292.472 1186.47 Q294.232 1187.3 296.037 1187.74 Q297.843 1188.18 299.579 1188.18 Q304.208 1188.18 306.639 1185.08 Q309.093 1181.96 309.44 1175.61 Q308.097 1177.61 306.037 1178.67 Q303.977 1179.73 301.477 1179.73 Q296.292 1179.73 293.259 1176.61 Q290.25 1173.46 290.25 1168.02 Q290.25 1162.7 293.398 1159.48 Q296.546 1156.26 301.778 1156.26 Q307.773 1156.26 310.921 1160.87 Q314.093 1165.45 314.093 1174.2 Q314.093 1182.37 310.204 1187.26 Q306.338 1192.12 299.787 1192.12 Q298.028 1192.12 296.222 1191.77 Q294.417 1191.42 292.472 1190.73 M301.778 1176.08 Q304.926 1176.08 306.755 1173.92 Q308.606 1171.77 308.606 1168.02 Q308.606 1164.3 306.755 1162.14 Q304.926 1159.97 301.778 1159.97 Q298.63 1159.97 296.778 1162.14 Q294.949 1164.3 294.949 1168.02 Q294.949 1171.77 296.778 1173.92 Q298.63 1176.08 301.778 1176.08 Z" fill="#000000" fill-rule="evenodd" fill-opacity="1" /><path clip-path="url(#clip000)" d="M51.6634 915.965 L59.3023 915.965 L59.3023 889.599 L50.9921 891.266 L50.9921 887.007 L59.256 885.34 L63.9319 885.34 L63.9319 915.965 L71.5707 915.965 L71.5707 919.9 L51.6634 919.9 L51.6634 915.965 Z" fill="#000000" fill-rule="evenodd" fill-opacity="1" /><path clip-path="url(#clip000)" d="M91.0151 888.419 Q87.404 888.419 85.5753 891.983 Q83.7697 895.525 83.7697 902.655 Q83.7697 909.761 85.5753 913.326 Q87.404 916.868 91.0151 916.868 Q94.6493 916.868 96.4548 913.326 Q98.2835 909.761 98.2835 902.655 Q98.2835 895.525 96.4548 891.983 Q94.6493 888.419 91.0151 888.419 M91.0151 884.715 Q96.8252 884.715 99.8808 889.321 Q102.959 893.905 102.959 902.655 Q102.959 911.381 99.8808 915.988 Q96.8252 920.571 91.0151 920.571 Q85.2049 920.571 82.1262 915.988 Q79.0707 911.381 79.0707 902.655 Q79.0707 893.905 82.1262 889.321 Q85.2049 884.715 91.0151 884.715 Z" fill="#000000" fill-rule="evenodd" fill-opacity="1" /><path clip-path="url(#clip000)" d="M121.177 888.419 Q117.566 888.419 115.737 891.983 Q113.932 895.525 113.932 902.655 Q113.932 909.761 115.737 913.326 Q117.566 916.868 121.177 916.868 Q124.811 916.868 126.617 913.326 Q128.445 909.761 128.445 902.655 Q128.445 895.525 126.617 891.983 Q124.811 888.419 121.177 888.419 M121.177 884.715 Q126.987 884.715 130.043 889.321 Q133.121 893.905 133.121 902.655 Q133.121 911.381 130.043 915.988 Q126.987 920.571 121.177 920.571 Q115.367 920.571 112.288 915.988 Q109.233 911.381 109.233 902.655 Q109.233 893.905 112.288 889.321 Q115.367 884.715 121.177 884.715 Z" fill="#000000" fill-rule="evenodd" fill-opacity="1" /><path clip-path="url(#clip000)" d="M151.339 888.419 Q147.728 888.419 145.899 891.983 Q144.093 895.525 144.093 902.655 Q144.093 909.761 145.899 913.326 Q147.728 916.868 151.339 916.868 Q154.973 916.868 156.779 913.326 Q158.607 909.761 158.607 902.655 Q158.607 895.525 156.779 891.983 Q154.973 888.419 151.339 888.419 M151.339 884.715 Q157.149 884.715 160.205 889.321 Q163.283 893.905 163.283 902.655 Q163.283 911.381 160.205 915.988 Q157.149 920.571 151.339 920.571 Q145.529 920.571 142.45 915.988 Q139.394 911.381 139.394 902.655 Q139.394 893.905 142.45 889.321 Q145.529 884.715 151.339 884.715 Z" fill="#000000" fill-rule="evenodd" fill-opacity="1" /><path clip-path="url(#clip000)" d="M181.501 888.419 Q177.89 888.419 176.061 891.983 Q174.255 895.525 174.255 902.655 Q174.255 909.761 176.061 913.326 Q177.89 916.868 181.501 916.868 Q185.135 916.868 186.94 913.326 Q188.769 909.761 188.769 902.655 Q188.769 895.525 186.94 891.983 Q185.135 888.419 181.501 888.419 M181.501 884.715 Q187.311 884.715 190.366 889.321 Q193.445 893.905 193.445 902.655 Q193.445 911.381 190.366 915.988 Q187.311 920.571 181.501 920.571 Q175.691 920.571 172.612 915.988 Q169.556 911.381 169.556 902.655 Q169.556 893.905 172.612 889.321 Q175.691 884.715 181.501 884.715 Z" fill="#000000" fill-rule="evenodd" fill-opacity="1" /><path clip-path="url(#clip000)" d="M211.663 888.419 Q208.051 888.419 206.223 891.983 Q204.417 895.525 204.417 902.655 Q204.417 909.761 206.223 913.326 Q208.051 916.868 211.663 916.868 Q215.297 916.868 217.102 913.326 Q218.931 909.761 218.931 902.655 Q218.931 895.525 217.102 891.983 Q215.297 888.419 211.663 888.419 M211.663 884.715 Q217.473 884.715 220.528 889.321 Q223.607 893.905 223.607 902.655 Q223.607 911.381 220.528 915.988 Q217.473 920.571 211.663 920.571 Q205.852 920.571 202.774 915.988 Q199.718 911.381 199.718 902.655 Q199.718 893.905 202.774 889.321 Q205.852 884.715 211.663 884.715 Z" fill="#000000" fill-rule="evenodd" fill-opacity="1" /><path clip-path="url(#clip000)" d="M241.824 888.419 Q238.213 888.419 236.385 891.983 Q234.579 895.525 234.579 902.655 Q234.579 909.761 236.385 913.326 Q238.213 916.868 241.824 916.868 Q245.459 916.868 247.264 913.326 Q249.093 909.761 249.093 902.655 Q249.093 895.525 247.264 891.983 Q245.459 888.419 241.824 888.419 M241.824 884.715 Q247.635 884.715 250.69 889.321 Q253.769 893.905 253.769 902.655 Q253.769 911.381 250.69 915.988 Q247.635 920.571 241.824 920.571 Q236.014 920.571 232.936 915.988 Q229.88 911.381 229.88 902.655 Q229.88 893.905 232.936 889.321 Q236.014 884.715 241.824 884.715 Z" fill="#000000" fill-rule="evenodd" fill-opacity="1" /><path clip-path="url(#clip000)" d="M271.986 888.419 Q268.375 888.419 266.547 891.983 Q264.741 895.525 264.741 902.655 Q264.741 909.761 266.547 913.326 Q268.375 916.868 271.986 916.868 Q275.621 916.868 277.426 913.326 Q279.255 909.761 279.255 902.655 Q279.255 895.525 277.426 891.983 Q275.621 888.419 271.986 888.419 M271.986 884.715 Q277.796 884.715 280.852 889.321 Q283.931 893.905 283.931 902.655 Q283.931 911.381 280.852 915.988 Q277.796 920.571 271.986 920.571 Q266.176 920.571 263.097 915.988 Q260.042 911.381 260.042 902.655 Q260.042 893.905 263.097 889.321 Q266.176 884.715 271.986 884.715 Z" fill="#000000" fill-rule="evenodd" fill-opacity="1" /><path clip-path="url(#clip000)" d="M302.148 888.419 Q298.537 888.419 296.708 891.983 Q294.903 895.525 294.903 902.655 Q294.903 909.761 296.708 913.326 Q298.537 916.868 302.148 916.868 Q305.782 916.868 307.588 913.326 Q309.417 909.761 309.417 902.655 Q309.417 895.525 307.588 891.983 Q305.782 888.419 302.148 888.419 M302.148 884.715 Q307.958 884.715 311.014 889.321 Q314.093 893.905 314.093 902.655 Q314.093 911.381 311.014 915.988 Q307.958 920.571 302.148 920.571 Q296.338 920.571 293.259 915.988 Q290.204 911.381 290.204 902.655 Q290.204 893.905 293.259 889.321 Q296.338 884.715 302.148 884.715 Z" fill="#000000" fill-rule="evenodd" fill-opacity="1" /><path clip-path="url(#clip000)" d="M52.8903 644.417 L60.5291 644.417 L60.5291 618.051 L52.219 619.718 L52.219 615.459 L60.4828 613.792 L65.1587 613.792 L65.1587 644.417 L72.7976 644.417 L72.7976 648.352 L52.8903 648.352 L52.8903 644.417 Z" fill="#000000" fill-rule="evenodd" fill-opacity="1" /><path clip-path="url(#clip000)" d="M92.2419 616.871 Q88.6308 616.871 86.8021 620.436 Q84.9966 623.977 84.9966 631.107 Q84.9966 638.213 86.8021 641.778 Q88.6308 645.32 92.2419 645.32 Q95.8761 645.32 97.6817 641.778 Q99.5104 638.213 99.5104 631.107 Q99.5104 623.977 97.6817 620.436 Q95.8761 616.871 92.2419 616.871 M92.2419 613.167 Q98.0521 613.167 101.108 617.773 Q104.186 622.357 104.186 631.107 Q104.186 639.834 101.108 644.44 Q98.0521 649.023 92.2419 649.023 Q86.4318 649.023 83.3531 644.44 Q80.2975 639.834 80.2975 631.107 Q80.2975 622.357 83.3531 617.773 Q86.4318 613.167 92.2419 613.167 Z" fill="#000000" fill-rule="evenodd" fill-opacity="1" /><path clip-path="url(#clip000)" d="M122.404 616.871 Q118.793 616.871 116.964 620.436 Q115.158 623.977 115.158 631.107 Q115.158 638.213 116.964 641.778 Q118.793 645.32 122.404 645.32 Q126.038 645.32 127.844 641.778 Q129.672 638.213 129.672 631.107 Q129.672 623.977 127.844 620.436 Q126.038 616.871 122.404 616.871 M122.404 613.167 Q128.214 613.167 131.269 617.773 Q134.348 622.357 134.348 631.107 Q134.348 639.834 131.269 644.44 Q128.214 649.023 122.404 649.023 Q116.594 649.023 113.515 644.44 Q110.459 639.834 110.459 631.107 Q110.459 622.357 113.515 617.773 Q116.594 613.167 122.404 613.167 Z" fill="#000000" fill-rule="evenodd" fill-opacity="1" /><path clip-path="url(#clip000)" d="M152.566 616.871 Q148.955 616.871 147.126 620.436 Q145.32 623.977 145.32 631.107 Q145.32 638.213 147.126 641.778 Q148.955 645.32 152.566 645.32 Q156.2 645.32 158.005 641.778 Q159.834 638.213 159.834 631.107 Q159.834 623.977 158.005 620.436 Q156.2 616.871 152.566 616.871 M152.566 613.167 Q158.376 613.167 161.431 617.773 Q164.51 622.357 164.51 631.107 Q164.51 639.834 161.431 644.44 Q158.376 649.023 152.566 649.023 Q146.756 649.023 143.677 644.44 Q140.621 639.834 140.621 631.107 Q140.621 622.357 143.677 617.773 Q146.756 613.167 152.566 613.167 Z" fill="#000000" fill-rule="evenodd" fill-opacity="1" /><path clip-path="url(#clip000)" d="M182.728 616.871 Q179.116 616.871 177.288 620.436 Q175.482 623.977 175.482 631.107 Q175.482 638.213 177.288 641.778 Q179.116 645.32 182.728 645.32 Q186.362 645.32 188.167 641.778 Q189.996 638.213 189.996 631.107 Q189.996 623.977 188.167 620.436 Q186.362 616.871 182.728 616.871 M182.728 613.167 Q188.538 613.167 191.593 617.773 Q194.672 622.357 194.672 631.107 Q194.672 639.834 191.593 644.44 Q188.538 649.023 182.728 649.023 Q176.917 649.023 173.839 644.44 Q170.783 639.834 170.783 631.107 Q170.783 622.357 173.839 617.773 Q176.917 613.167 182.728 613.167 Z" fill="#000000" fill-rule="evenodd" fill-opacity="1" /><path clip-path="url(#clip000)" d="M212.889 616.871 Q209.278 616.871 207.45 620.436 Q205.644 623.977 205.644 631.107 Q205.644 638.213 207.45 641.778 Q209.278 645.32 212.889 645.32 Q216.524 645.32 218.329 641.778 Q220.158 638.213 220.158 631.107 Q220.158 623.977 218.329 620.436 Q216.524 616.871 212.889 616.871 M212.889 613.167 Q218.7 613.167 221.755 617.773 Q224.834 622.357 224.834 631.107 Q224.834 639.834 221.755 644.44 Q218.7 649.023 212.889 649.023 Q207.079 649.023 204.001 644.44 Q200.945 639.834 200.945 631.107 Q200.945 622.357 204.001 617.773 Q207.079 613.167 212.889 613.167 Z" fill="#000000" fill-rule="evenodd" fill-opacity="1" /><path clip-path="url(#clip000)" d="M243.051 616.871 Q239.44 616.871 237.611 620.436 Q235.806 623.977 235.806 631.107 Q235.806 638.213 237.611 641.778 Q239.44 645.32 243.051 645.32 Q246.686 645.32 248.491 641.778 Q250.32 638.213 250.32 631.107 Q250.32 623.977 248.491 620.436 Q246.686 616.871 243.051 616.871 M243.051 613.167 Q248.861 613.167 251.917 617.773 Q254.996 622.357 254.996 631.107 Q254.996 639.834 251.917 644.44 Q248.861 649.023 243.051 649.023 Q237.241 649.023 234.162 644.44 Q231.107 639.834 231.107 631.107 Q231.107 622.357 234.162 617.773 Q237.241 613.167 243.051 613.167 Z" fill="#000000" fill-rule="evenodd" fill-opacity="1" /><path clip-path="url(#clip000)" d="M273.213 616.871 Q269.602 616.871 267.773 620.436 Q265.968 623.977 265.968 631.107 Q265.968 638.213 267.773 641.778 Q269.602 645.32 273.213 645.32 Q276.847 645.32 278.653 641.778 Q280.482 638.213 280.482 631.107 Q280.482 623.977 278.653 620.436 Q276.847 616.871 273.213 616.871 M273.213 613.167 Q279.023 613.167 282.079 617.773 Q285.158 622.357 285.158 631.107 Q285.158 639.834 282.079 644.44 Q279.023 649.023 273.213 649.023 Q267.403 649.023 264.324 644.44 Q261.269 639.834 261.269 631.107 Q261.269 622.357 264.324 617.773 Q267.403 613.167 273.213 613.167 Z" fill="#000000" fill-rule="evenodd" fill-opacity="1" /><path clip-path="url(#clip000)" d="M294.185 644.417 L301.824 644.417 L301.824 618.051 L293.514 619.718 L293.514 615.459 L301.778 613.792 L306.454 613.792 L306.454 644.417 L314.093 644.417 L314.093 648.352 L294.185 648.352 L294.185 644.417 Z" fill="#000000" fill-rule="evenodd" fill-opacity="1" /><path clip-path="url(#clip000)" d="M53.2606 372.869 L60.8995 372.869 L60.8995 346.503 L52.5893 348.17 L52.5893 343.911 L60.8532 342.244 L65.5291 342.244 L65.5291 372.869 L73.1679 372.869 L73.1679 376.804 L53.2606 376.804 L53.2606 372.869 Z" fill="#000000" fill-rule="evenodd" fill-opacity="1" /><path clip-path="url(#clip000)" d="M92.6123 345.323 Q89.0012 345.323 87.1725 348.888 Q85.3669 352.429 85.3669 359.559 Q85.3669 366.665 87.1725 370.23 Q89.0012 373.772 92.6123 373.772 Q96.2465 373.772 98.0521 370.23 Q99.8808 366.665 99.8808 359.559 Q99.8808 352.429 98.0521 348.888 Q96.2465 345.323 92.6123 345.323 M92.6123 341.619 Q98.4224 341.619 101.478 346.226 Q104.557 350.809 104.557 359.559 Q104.557 368.286 101.478 372.892 Q98.4224 377.475 92.6123 377.475 Q86.8021 377.475 83.7234 372.892 Q80.6679 368.286 80.6679 359.559 Q80.6679 350.809 83.7234 346.226 Q86.8021 341.619 92.6123 341.619 Z" fill="#000000" fill-rule="evenodd" fill-opacity="1" /><path clip-path="url(#clip000)" d="M122.774 345.323 Q119.163 345.323 117.334 348.888 Q115.529 352.429 115.529 359.559 Q115.529 366.665 117.334 370.23 Q119.163 373.772 122.774 373.772 Q126.408 373.772 128.214 370.23 Q130.043 366.665 130.043 359.559 Q130.043 352.429 128.214 348.888 Q126.408 345.323 122.774 345.323 M122.774 341.619 Q128.584 341.619 131.64 346.226 Q134.719 350.809 134.719 359.559 Q134.719 368.286 131.64 372.892 Q128.584 377.475 122.774 377.475 Q116.964 377.475 113.885 372.892 Q110.83 368.286 110.83 359.559 Q110.83 350.809 113.885 346.226 Q116.964 341.619 122.774 341.619 Z" fill="#000000" fill-rule="evenodd" fill-opacity="1" /><path clip-path="url(#clip000)" d="M152.936 345.323 Q149.325 345.323 147.496 348.888 Q145.691 352.429 145.691 359.559 Q145.691 366.665 147.496 370.23 Q149.325 373.772 152.936 373.772 Q156.57 373.772 158.376 370.23 Q160.205 366.665 160.205 359.559 Q160.205 352.429 158.376 348.888 Q156.57 345.323 152.936 345.323 M152.936 341.619 Q158.746 341.619 161.802 346.226 Q164.88 350.809 164.88 359.559 Q164.88 368.286 161.802 372.892 Q158.746 377.475 152.936 377.475 Q147.126 377.475 144.047 372.892 Q140.992 368.286 140.992 359.559 Q140.992 350.809 144.047 346.226 Q147.126 341.619 152.936 341.619 Z" fill="#000000" fill-rule="evenodd" fill-opacity="1" /><path clip-path="url(#clip000)" d="M183.098 345.323 Q179.487 345.323 177.658 348.888 Q175.853 352.429 175.853 359.559 Q175.853 366.665 177.658 370.23 Q179.487 373.772 183.098 373.772 Q186.732 373.772 188.538 370.23 Q190.366 366.665 190.366 359.559 Q190.366 352.429 188.538 348.888 Q186.732 345.323 183.098 345.323 M183.098 341.619 Q188.908 341.619 191.964 346.226 Q195.042 350.809 195.042 359.559 Q195.042 368.286 191.964 372.892 Q188.908 377.475 183.098 377.475 Q177.288 377.475 174.209 372.892 Q171.154 368.286 171.154 359.559 Q171.154 350.809 174.209 346.226 Q177.288 341.619 183.098 341.619 Z" fill="#000000" fill-rule="evenodd" fill-opacity="1" /><path clip-path="url(#clip000)" d="M213.26 345.323 Q209.649 345.323 207.82 348.888 Q206.014 352.429 206.014 359.559 Q206.014 366.665 207.82 370.23 Q209.649 373.772 213.26 373.772 Q216.894 373.772 218.7 370.23 Q220.528 366.665 220.528 359.559 Q220.528 352.429 218.7 348.888 Q216.894 345.323 213.26 345.323 M213.26 341.619 Q219.07 341.619 222.125 346.226 Q225.204 350.809 225.204 359.559 Q225.204 368.286 222.125 372.892 Q219.07 377.475 213.26 377.475 Q207.45 377.475 204.371 372.892 Q201.315 368.286 201.315 359.559 Q201.315 350.809 204.371 346.226 Q207.45 341.619 213.26 341.619 Z" fill="#000000" fill-rule="evenodd" fill-opacity="1" /><path clip-path="url(#clip000)" d="M243.422 345.323 Q239.811 345.323 237.982 348.888 Q236.176 352.429 236.176 359.559 Q236.176 366.665 237.982 370.23 Q239.811 373.772 243.422 373.772 Q247.056 373.772 248.861 370.23 Q250.69 366.665 250.69 359.559 Q250.69 352.429 248.861 348.888 Q247.056 345.323 243.422 345.323 M243.422 341.619 Q249.232 341.619 252.287 346.226 Q255.366 350.809 255.366 359.559 Q255.366 368.286 252.287 372.892 Q249.232 377.475 243.422 377.475 Q237.611 377.475 234.533 372.892 Q231.477 368.286 231.477 359.559 Q231.477 350.809 234.533 346.226 Q237.611 341.619 243.422 341.619 Z" fill="#000000" fill-rule="evenodd" fill-opacity="1" /><path clip-path="url(#clip000)" d="M273.584 345.323 Q269.972 345.323 268.144 348.888 Q266.338 352.429 266.338 359.559 Q266.338 366.665 268.144 370.23 Q269.972 373.772 273.584 373.772 Q277.218 373.772 279.023 370.23 Q280.852 366.665 280.852 359.559 Q280.852 352.429 279.023 348.888 Q277.218 345.323 273.584 345.323 M273.584 341.619 Q279.394 341.619 282.449 346.226 Q285.528 350.809 285.528 359.559 Q285.528 368.286 282.449 372.892 Q279.394 377.475 273.584 377.475 Q267.773 377.475 264.695 372.892 Q261.639 368.286 261.639 359.559 Q261.639 350.809 264.695 346.226 Q267.773 341.619 273.584 341.619 Z" fill="#000000" fill-rule="evenodd" fill-opacity="1" /><path clip-path="url(#clip000)" d="M297.773 372.869 L314.093 372.869 L314.093 376.804 L292.148 376.804 L292.148 372.869 Q294.81 370.114 299.394 365.485 Q304 360.832 305.181 359.489 Q307.426 356.966 308.306 355.23 Q309.208 353.471 309.208 351.781 Q309.208 349.027 307.264 347.29 Q305.343 345.554 302.241 345.554 Q300.042 345.554 297.588 346.318 Q295.157 347.082 292.38 348.633 L292.38 343.911 Q295.204 342.777 297.657 342.198 Q300.111 341.619 302.148 341.619 Q307.519 341.619 310.713 344.304 Q313.907 346.99 313.907 351.48 Q313.907 353.61 313.097 355.531 Q312.31 357.429 310.204 360.022 Q309.625 360.693 306.523 363.911 Q303.421 367.105 297.773 372.869 Z" fill="#000000" fill-rule="evenodd" fill-opacity="1" /><path clip-path="url(#clip000)" d="M52.3116 101.321 L59.9504 101.321 L59.9504 74.9555 L51.6403 76.6222 L51.6403 72.3629 L59.9041 70.6963 L64.58 70.6963 L64.58 101.321 L72.2189 101.321 L72.2189 105.256 L52.3116 105.256 L52.3116 101.321 Z" fill="#000000" fill-rule="evenodd" fill-opacity="1" /><path clip-path="url(#clip000)" d="M91.6632 73.775 Q88.0521 73.775 86.2234 77.3398 Q84.4179 80.8814 84.4179 88.011 Q84.4179 95.1174 86.2234 98.6822 Q88.0521 102.224 91.6632 102.224 Q95.2974 102.224 97.103 98.6822 Q98.9317 95.1174 98.9317 88.011 Q98.9317 80.8814 97.103 77.3398 Q95.2974 73.775 91.6632 73.775 M91.6632 70.0713 Q97.4734 70.0713 100.529 74.6777 Q103.608 79.261 103.608 88.011 Q103.608 96.7378 100.529 101.344 Q97.4734 105.928 91.6632 105.928 Q85.8531 105.928 82.7744 101.344 Q79.7188 96.7378 79.7188 88.011 Q79.7188 79.261 82.7744 74.6777 Q85.8531 70.0713 91.6632 70.0713 Z" fill="#000000" fill-rule="evenodd" fill-opacity="1" /><path clip-path="url(#clip000)" d="M121.825 73.775 Q118.214 73.775 116.385 77.3398 Q114.58 80.8814 114.58 88.011 Q114.58 95.1174 116.385 98.6822 Q118.214 102.224 121.825 102.224 Q125.459 102.224 127.265 98.6822 Q129.094 95.1174 129.094 88.011 Q129.094 80.8814 127.265 77.3398 Q125.459 73.775 121.825 73.775 M121.825 70.0713 Q127.635 70.0713 130.691 74.6777 Q133.769 79.261 133.769 88.011 Q133.769 96.7378 130.691 101.344 Q127.635 105.928 121.825 105.928 Q116.015 105.928 112.936 101.344 Q109.881 96.7378 109.881 88.011 Q109.881 79.261 112.936 74.6777 Q116.015 70.0713 121.825 70.0713 Z" fill="#000000" fill-rule="evenodd" fill-opacity="1" /><path clip-path="url(#clip000)" d="M151.987 73.775 Q148.376 73.775 146.547 77.3398 Q144.742 80.8814 144.742 88.011 Q144.742 95.1174 146.547 98.6822 Q148.376 102.224 151.987 102.224 Q155.621 102.224 157.427 98.6822 Q159.255 95.1174 159.255 88.011 Q159.255 80.8814 157.427 77.3398 Q155.621 73.775 151.987 73.775 M151.987 70.0713 Q157.797 70.0713 160.853 74.6777 Q163.931 79.261 163.931 88.011 Q163.931 96.7378 160.853 101.344 Q157.797 105.928 151.987 105.928 Q146.177 105.928 143.098 101.344 Q140.043 96.7378 140.043 88.011 Q140.043 79.261 143.098 74.6777 Q146.177 70.0713 151.987 70.0713 Z" fill="#000000" fill-rule="evenodd" fill-opacity="1" /><path clip-path="url(#clip000)" d="M182.149 73.775 Q178.538 73.775 176.709 77.3398 Q174.904 80.8814 174.904 88.011 Q174.904 95.1174 176.709 98.6822 Q178.538 102.224 182.149 102.224 Q185.783 102.224 187.589 98.6822 Q189.417 95.1174 189.417 88.011 Q189.417 80.8814 187.589 77.3398 Q185.783 73.775 182.149 73.775 M182.149 70.0713 Q187.959 70.0713 191.015 74.6777 Q194.093 79.261 194.093 88.011 Q194.093 96.7378 191.015 101.344 Q187.959 105.928 182.149 105.928 Q176.339 105.928 173.26 101.344 Q170.204 96.7378 170.204 88.011 Q170.204 79.261 173.26 74.6777 Q176.339 70.0713 182.149 70.0713 Z" fill="#000000" fill-rule="evenodd" fill-opacity="1" /><path clip-path="url(#clip000)" d="M212.311 73.775 Q208.7 73.775 206.871 77.3398 Q205.065 80.8814 205.065 88.011 Q205.065 95.1174 206.871 98.6822 Q208.7 102.224 212.311 102.224 Q215.945 102.224 217.75 98.6822 Q219.579 95.1174 219.579 88.011 Q219.579 80.8814 217.75 77.3398 Q215.945 73.775 212.311 73.775 M212.311 70.0713 Q218.121 70.0713 221.176 74.6777 Q224.255 79.261 224.255 88.011 Q224.255 96.7378 221.176 101.344 Q218.121 105.928 212.311 105.928 Q206.501 105.928 203.422 101.344 Q200.366 96.7378 200.366 88.011 Q200.366 79.261 203.422 74.6777 Q206.501 70.0713 212.311 70.0713 Z" fill="#000000" fill-rule="evenodd" fill-opacity="1" /><path clip-path="url(#clip000)" d="M242.473 73.775 Q238.861 73.775 237.033 77.3398 Q235.227 80.8814 235.227 88.011 Q235.227 95.1174 237.033 98.6822 Q238.861 102.224 242.473 102.224 Q246.107 102.224 247.912 98.6822 Q249.741 95.1174 249.741 88.011 Q249.741 80.8814 247.912 77.3398 Q246.107 73.775 242.473 73.775 M242.473 70.0713 Q248.283 70.0713 251.338 74.6777 Q254.417 79.261 254.417 88.011 Q254.417 96.7378 251.338 101.344 Q248.283 105.928 242.473 105.928 Q236.662 105.928 233.584 101.344 Q230.528 96.7378 230.528 88.011 Q230.528 79.261 233.584 74.6777 Q236.662 70.0713 242.473 70.0713 Z" fill="#000000" fill-rule="evenodd" fill-opacity="1" /><path clip-path="url(#clip000)" d="M272.634 73.775 Q269.023 73.775 267.195 77.3398 Q265.389 80.8814 265.389 88.011 Q265.389 95.1174 267.195 98.6822 Q269.023 102.224 272.634 102.224 Q276.269 102.224 278.074 98.6822 Q279.903 95.1174 279.903 88.011 Q279.903 80.8814 278.074 77.3398 Q276.269 73.775 272.634 73.775 M272.634 70.0713 Q278.445 70.0713 281.5 74.6777 Q284.579 79.261 284.579 88.011 Q284.579 96.7378 281.5 101.344 Q278.445 105.928 272.634 105.928 Q266.824 105.928 263.746 101.344 Q260.69 96.7378 260.69 88.011 Q260.69 79.261 263.746 74.6777 Q266.824 70.0713 272.634 70.0713 Z" fill="#000000" fill-rule="evenodd" fill-opacity="1" /><path clip-path="url(#clip000)" d="M306.963 86.6221 Q310.319 87.3397 312.194 89.6082 Q314.093 91.8767 314.093 95.21 Q314.093 100.326 310.574 103.127 Q307.056 105.928 300.574 105.928 Q298.398 105.928 296.083 105.488 Q293.792 105.071 291.338 104.215 L291.338 99.7007 Q293.282 100.835 295.597 101.414 Q297.912 101.992 300.435 101.992 Q304.833 101.992 307.125 100.256 Q309.44 98.5202 309.44 95.21 Q309.44 92.1545 307.287 90.4415 Q305.157 88.7054 301.338 88.7054 L297.31 88.7054 L297.31 84.8629 L301.523 84.8629 Q304.972 84.8629 306.801 83.4971 Q308.63 82.1082 308.63 79.5157 Q308.63 76.8536 306.731 75.4416 Q304.857 74.0064 301.338 74.0064 Q299.417 74.0064 297.218 74.4231 Q295.019 74.8398 292.38 75.7194 L292.38 71.5528 Q295.042 70.812 297.357 70.4416 Q299.694 70.0713 301.755 70.0713 Q307.079 70.0713 310.181 72.5018 Q313.282 74.9092 313.282 79.0296 Q313.282 81.8999 311.639 83.8906 Q309.995 85.8582 306.963 86.6221 Z" fill="#000000" fill-rule="evenodd" fill-opacity="1" /><path clip-path="url(#clip002)" d="
M1622.97 902.62 L1894.52 631.072 L1622.97 87.9763 L1351.42 631.072 L1079.88 495.298 L808.328 1174.17 L1487.2 1445.72 L1622.97 902.62 L1622.97 902.62  Z
  " fill="#009af9" fill-rule="evenodd" fill-opacity="1"/>
<polyline clip-path="url(#clip002)" style="stroke:#000000; stroke-linecap:butt; stroke-linejoin:round; stroke-width:16; stroke-opacity:1; fill:none" points="
  1622.97,902.62 1894.52,631.072 1622.97,87.9763 1351.42,631.072 1079.88,495.298 808.328,1174.17 1487.2,1445.72 1622.97,902.62 
  "/>
<path clip-path="url(#clip000)" d="
M2011.05 198.898 L2286 198.898 L2286 95.2176 L2011.05 95.2176  Z
  " fill="#ffffff" fill-rule="evenodd" fill-opacity="1"/>
<polyline clip-path="url(#clip000)" style="stroke:#000000; stroke-linecap:butt; stroke-linejoin:round; stroke-width:4; stroke-opacity:1; fill:none" points="
  2011.05,198.898 2286,198.898 2286,95.2176 2011.05,95.2176 2011.05,198.898 
  "/>
<path clip-path="url(#clip000)" d="
M2033.3 167.794 L2166.81 167.794 L2166.81 126.322 L2033.3 126.322 L2033.3 167.794  Z
  " fill="#009af9" fill-rule="evenodd" fill-opacity="1"/>
<polyline clip-path="url(#clip000)" style="stroke:#000000; stroke-linecap:butt; stroke-linejoin:round; stroke-width:16; stroke-opacity:1; fill:none" points="
  2033.3,167.794 2166.81,167.794 2166.81,126.322 2033.3,126.322 2033.3,167.794 
  "/>
<path clip-path="url(#clip000)" d="M2202.91 166.745 Q2201.1 171.375 2199.39 172.787 Q2197.68 174.199 2194.81 174.199 L2191.4 174.199 L2191.4 170.634 L2193.9 170.634 Q2195.66 170.634 2196.64 169.8 Q2197.61 168.967 2198.79 165.865 L2199.55 163.921 L2189.07 138.412 L2193.58 138.412 L2201.68 158.689 L2209.78 138.412 L2214.3 138.412 L2202.91 166.745 Z" fill="#000000" fill-rule="evenodd" fill-opacity="1" /><path clip-path="url(#clip000)" d="M2221.59 160.402 L2229.23 160.402 L2229.23 134.037 L2220.92 135.703 L2220.92 131.444 L2229.18 129.778 L2233.86 129.778 L2233.86 160.402 L2241.5 160.402 L2241.5 164.338 L2221.59 164.338 L2221.59 160.402 Z" fill="#000000" fill-rule="evenodd" fill-opacity="1" /></svg>
