<?xml version="1.0" encoding="utf-8"?>
<svg xmlns="http://www.w3.org/2000/svg" xmlns:xlink="http://www.w3.org/1999/xlink" width="600" height="400" viewBox="0 0 2400 1600">
<defs>
  <clipPath id="clip170">
    <rect x="0" y="0" width="2400" height="1600"/>
  </clipPath>
</defs>
<path clip-path="url(#clip170)" d="
M0 1600 L2400 1600 L2400 0 L0 0  Z
  " fill="#ffffff" fill-rule="evenodd" fill-opacity="1"/>
<defs>
  <clipPath id="clip171">
    <rect x="480" y="0" width="1681" height="1600"/>
  </clipPath>
</defs>
<path clip-path="url(#clip170)" d="
M267.341 1486.45 L2352.76 1486.45 L2352.76 47.2441 L267.341 47.2441  Z
  " fill="#ffffff" fill-rule="evenodd" fill-opacity="1"/>
<defs>
  <clipPath id="clip172">
    <rect x="267" y="47" width="2086" height="1440"/>
  </clipPath>
</defs>
<polyline clip-path="url(#clip172)" style="stroke:#000000; stroke-linecap:butt; stroke-linejoin:round; stroke-width:2; stroke-opacity:0.1; fill:none" points="
  322.428,1486.45 322.428,47.2441 
  "/>
<polyline clip-path="url(#clip172)" style="stroke:#000000; stroke-linecap:butt; stroke-linejoin:round; stroke-width:2; stroke-opacity:0.1; fill:none" points="
  715.902,1486.45 715.902,47.2441 
  "/>
<polyline clip-path="url(#clip172)" style="stroke:#000000; stroke-linecap:butt; stroke-linejoin:round; stroke-width:2; stroke-opacity:0.1; fill:none" points="
  1109.38,1486.45 1109.38,47.2441 
  "/>
<polyline clip-path="url(#clip172)" style="stroke:#000000; stroke-linecap:butt; stroke-linejoin:round; stroke-width:2; stroke-opacity:0.1; fill:none" points="
  1502.85,1486.45 1502.85,47.2441 
  "/>
<polyline clip-path="url(#clip172)" style="stroke:#000000; stroke-linecap:butt; stroke-linejoin:round; stroke-width:2; stroke-opacity:0.1; fill:none" points="
  1896.33,1486.45 1896.33,47.2441 
  "/>
<polyline clip-path="url(#clip172)" style="stroke:#000000; stroke-linecap:butt; stroke-linejoin:round; stroke-width:2; stroke-opacity:0.1; fill:none" points="
  2289.8,1486.45 2289.8,47.2441 
  "/>
<polyline clip-path="url(#clip170)" style="stroke:#000000; stroke-linecap:butt; stroke-linejoin:round; stroke-width:4; stroke-opacity:1; fill:none" points="
  267.341,1486.45 2352.76,1486.45 
  "/>
<polyline clip-path="url(#clip170)" style="stroke:#000000; stroke-linecap:butt; stroke-linejoin:round; stroke-width:4; stroke-opacity:1; fill:none" points="
  322.428,1486.45 322.428,1467.55 
  "/>
<polyline clip-path="url(#clip170)" style="stroke:#000000; stroke-linecap:butt; stroke-linejoin:round; stroke-width:4; stroke-opacity:1; fill:none" points="
  715.902,1486.45 715.902,1467.55 
  "/>
<polyline clip-path="url(#clip170)" style="stroke:#000000; stroke-linecap:butt; stroke-linejoin:round; stroke-width:4; stroke-opacity:1; fill:none" points="
  1109.38,1486.45 1109.38,1467.55 
  "/>
<polyline clip-path="url(#clip170)" style="stroke:#000000; stroke-linecap:butt; stroke-linejoin:round; stroke-width:4; stroke-opacity:1; fill:none" points="
  1502.85,1486.45 1502.85,1467.55 
  "/>
<polyline clip-path="url(#clip170)" style="stroke:#000000; stroke-linecap:butt; stroke-linejoin:round; stroke-width:4; stroke-opacity:1; fill:none" points="
  1896.33,1486.45 1896.33,1467.55 
  "/>
<polyline clip-path="url(#clip170)" style="stroke:#000000; stroke-linecap:butt; stroke-linejoin:round; stroke-width:4; stroke-opacity:1; fill:none" points="
  2289.8,1486.45 2289.8,1467.55 
  "/>
<path clip-path="url(#clip170)" d="M322.428 1517.37 Q318.817 1517.37 316.988 1520.93 Q315.182 1524.47 315.182 1531.6 Q315.182 1538.71 316.988 1542.27 Q318.817 1545.82 322.428 1545.82 Q326.062 1545.82 327.867 1542.27 Q329.696 1538.71 329.696 1531.6 Q329.696 1524.47 327.867 1520.93 Q326.062 1517.37 322.428 1517.37 M322.428 1513.66 Q328.238 1513.66 331.293 1518.27 Q334.372 1522.85 334.372 1531.6 Q334.372 1540.33 331.293 1544.94 Q328.238 1549.52 322.428 1549.52 Q316.618 1549.52 313.539 1544.94 Q310.483 1540.33 310.483 1531.6 Q310.483 1522.85 313.539 1518.27 Q316.618 1513.66 322.428 1513.66 Z" fill="#000000" fill-rule="evenodd" fill-opacity="1" /><path clip-path="url(#clip170)" d="M675.509 1544.91 L683.148 1544.91 L683.148 1518.55 L674.838 1520.21 L674.838 1515.95 L683.101 1514.29 L687.777 1514.29 L687.777 1544.91 L695.416 1544.91 L695.416 1548.85 L675.509 1548.85 L675.509 1544.91 Z" fill="#000000" fill-rule="evenodd" fill-opacity="1" /><path clip-path="url(#clip170)" d="M714.86 1517.37 Q711.249 1517.37 709.421 1520.93 Q707.615 1524.47 707.615 1531.6 Q707.615 1538.71 709.421 1542.27 Q711.249 1545.82 714.86 1545.82 Q718.495 1545.82 720.3 1542.27 Q722.129 1538.71 722.129 1531.6 Q722.129 1524.47 720.3 1520.93 Q718.495 1517.37 714.86 1517.37 M714.86 1513.66 Q720.671 1513.66 723.726 1518.27 Q726.805 1522.85 726.805 1531.6 Q726.805 1540.33 723.726 1544.94 Q720.671 1549.52 714.86 1549.52 Q709.05 1549.52 705.972 1544.94 Q702.916 1540.33 702.916 1531.6 Q702.916 1522.85 705.972 1518.27 Q709.05 1513.66 714.86 1513.66 Z" fill="#000000" fill-rule="evenodd" fill-opacity="1" /><path clip-path="url(#clip170)" d="M745.022 1517.37 Q741.411 1517.37 739.583 1520.93 Q737.777 1524.47 737.777 1531.6 Q737.777 1538.71 739.583 1542.27 Q741.411 1545.82 745.022 1545.82 Q748.657 1545.82 750.462 1542.27 Q752.291 1538.71 752.291 1531.6 Q752.291 1524.47 750.462 1520.93 Q748.657 1517.37 745.022 1517.37 M745.022 1513.66 Q750.833 1513.66 753.888 1518.27 Q756.967 1522.85 756.967 1531.6 Q756.967 1540.33 753.888 1544.94 Q750.833 1549.52 745.022 1549.52 Q739.212 1549.52 736.134 1544.94 Q733.078 1540.33 733.078 1531.6 Q733.078 1522.85 736.134 1518.27 Q739.212 1513.66 745.022 1513.66 Z" fill="#000000" fill-rule="evenodd" fill-opacity="1" /><path clip-path="url(#clip170)" d="M1073.07 1544.91 L1089.39 1544.91 L1089.39 1548.85 L1067.44 1548.85 L1067.44 1544.91 Q1070.11 1542.16 1074.69 1537.53 Q1079.3 1532.88 1080.48 1531.53 Q1082.72 1529.01 1083.6 1527.27 Q1084.5 1525.51 1084.5 1523.82 Q1084.5 1521.07 1082.56 1519.33 Q1080.64 1517.6 1077.54 1517.6 Q1075.34 1517.6 1072.88 1518.36 Q1070.45 1519.13 1067.68 1520.68 L1067.68 1515.95 Q1070.5 1514.82 1072.95 1514.24 Q1075.41 1513.66 1077.44 1513.66 Q1082.81 1513.66 1086.01 1516.35 Q1089.2 1519.03 1089.2 1523.52 Q1089.2 1525.65 1088.39 1527.57 Q1087.61 1529.47 1085.5 1532.07 Q1084.92 1532.74 1081.82 1535.95 Q1078.72 1539.15 1073.07 1544.91 Z" fill="#000000" fill-rule="evenodd" fill-opacity="1" /><path clip-path="url(#clip170)" d="M1109.2 1517.37 Q1105.59 1517.37 1103.76 1520.93 Q1101.96 1524.47 1101.96 1531.6 Q1101.96 1538.71 1103.76 1542.27 Q1105.59 1545.82 1109.2 1545.82 Q1112.84 1545.82 1114.64 1542.27 Q1116.47 1538.71 1116.47 1531.6 Q1116.47 1524.47 1114.64 1520.93 Q1112.84 1517.37 1109.2 1517.37 M1109.2 1513.66 Q1115.01 1513.66 1118.07 1518.27 Q1121.15 1522.85 1121.15 1531.6 Q1121.15 1540.33 1118.07 1544.94 Q1115.01 1549.52 1109.2 1549.52 Q1103.39 1549.52 1100.31 1544.94 Q1097.26 1540.33 1097.26 1531.6 Q1097.26 1522.85 1100.31 1518.27 Q1103.39 1513.66 1109.2 1513.66 Z" fill="#000000" fill-rule="evenodd" fill-opacity="1" /><path clip-path="url(#clip170)" d="M1139.36 1517.37 Q1135.75 1517.37 1133.93 1520.93 Q1132.12 1524.47 1132.12 1531.6 Q1132.12 1538.71 1133.93 1542.27 Q1135.75 1545.82 1139.36 1545.82 Q1143 1545.82 1144.8 1542.27 Q1146.63 1538.71 1146.63 1531.6 Q1146.63 1524.47 1144.8 1520.93 Q1143 1517.37 1139.36 1517.37 M1139.36 1513.66 Q1145.18 1513.66 1148.23 1518.27 Q1151.31 1522.85 1151.31 1531.6 Q1151.31 1540.33 1148.23 1544.94 Q1145.18 1549.52 1139.36 1549.52 Q1133.55 1549.52 1130.48 1544.94 Q1127.42 1540.33 1127.42 1531.6 Q1127.42 1522.85 1130.48 1518.27 Q1133.55 1513.66 1139.36 1513.66 Z" fill="#000000" fill-rule="evenodd" fill-opacity="1" /><path clip-path="url(#clip170)" d="M1476.61 1530.21 Q1479.97 1530.93 1481.84 1533.2 Q1483.74 1535.47 1483.74 1538.8 Q1483.74 1543.92 1480.22 1546.72 Q1476.71 1549.52 1470.22 1549.52 Q1468.05 1549.52 1465.73 1549.08 Q1463.44 1548.66 1460.99 1547.81 L1460.99 1543.29 Q1462.93 1544.43 1465.25 1545.01 Q1467.56 1545.58 1470.09 1545.58 Q1474.48 1545.58 1476.77 1543.85 Q1479.09 1542.11 1479.09 1538.8 Q1479.09 1535.75 1476.94 1534.03 Q1474.81 1532.3 1470.99 1532.3 L1466.96 1532.3 L1466.96 1528.45 L1471.17 1528.45 Q1474.62 1528.45 1476.45 1527.09 Q1478.28 1525.7 1478.28 1523.11 Q1478.28 1520.45 1476.38 1519.03 Q1474.51 1517.6 1470.99 1517.6 Q1469.07 1517.6 1466.87 1518.01 Q1464.67 1518.43 1462.03 1519.31 L1462.03 1515.14 Q1464.69 1514.4 1467.01 1514.03 Q1469.34 1513.66 1471.4 1513.66 Q1476.73 1513.66 1479.83 1516.09 Q1482.93 1518.5 1482.93 1522.62 Q1482.93 1525.49 1481.29 1527.48 Q1479.65 1529.45 1476.61 1530.21 Z" fill="#000000" fill-rule="evenodd" fill-opacity="1" /><path clip-path="url(#clip170)" d="M1502.61 1517.37 Q1499 1517.37 1497.17 1520.93 Q1495.36 1524.47 1495.36 1531.6 Q1495.36 1538.71 1497.17 1542.27 Q1499 1545.82 1502.61 1545.82 Q1506.24 1545.82 1508.05 1542.27 Q1509.88 1538.71 1509.88 1531.6 Q1509.88 1524.47 1508.05 1520.93 Q1506.24 1517.37 1502.61 1517.37 M1502.61 1513.66 Q1508.42 1513.66 1511.47 1518.27 Q1514.55 1522.85 1514.55 1531.6 Q1514.55 1540.33 1511.47 1544.94 Q1508.42 1549.52 1502.61 1549.52 Q1496.8 1549.52 1493.72 1544.94 Q1490.66 1540.33 1490.66 1531.6 Q1490.66 1522.85 1493.72 1518.27 Q1496.8 1513.66 1502.61 1513.66 Z" fill="#000000" fill-rule="evenodd" fill-opacity="1" /><path clip-path="url(#clip170)" d="M1532.77 1517.37 Q1529.16 1517.37 1527.33 1520.93 Q1525.52 1524.47 1525.52 1531.6 Q1525.52 1538.71 1527.33 1542.27 Q1529.16 1545.82 1532.77 1545.82 Q1536.4 1545.82 1538.21 1542.27 Q1540.04 1538.71 1540.04 1531.6 Q1540.04 1524.47 1538.21 1520.93 Q1536.4 1517.37 1532.77 1517.37 M1532.77 1513.66 Q1538.58 1513.66 1541.64 1518.27 Q1544.71 1522.85 1544.71 1531.6 Q1544.71 1540.33 1541.64 1544.94 Q1538.58 1549.52 1532.77 1549.52 Q1526.96 1549.52 1523.88 1544.94 Q1520.83 1540.33 1520.83 1531.6 Q1520.83 1522.85 1523.88 1518.27 Q1526.96 1513.66 1532.77 1513.66 Z" fill="#000000" fill-rule="evenodd" fill-opacity="1" /><path clip-path="url(#clip170)" d="M1869.42 1518.36 L1857.61 1536.81 L1869.42 1536.81 L1869.42 1518.36 M1868.19 1514.29 L1874.07 1514.29 L1874.07 1536.81 L1879 1536.81 L1879 1540.7 L1874.07 1540.7 L1874.07 1548.85 L1869.42 1548.85 L1869.42 1540.7 L1853.81 1540.7 L1853.81 1536.19 L1868.19 1514.29 Z" fill="#000000" fill-rule="evenodd" fill-opacity="1" /><path clip-path="url(#clip170)" d="M1896.73 1517.37 Q1893.12 1517.37 1891.29 1520.93 Q1889.49 1524.47 1889.49 1531.6 Q1889.49 1538.71 1891.29 1542.27 Q1893.12 1545.82 1896.73 1545.82 Q1900.36 1545.82 1902.17 1542.27 Q1904 1538.71 1904 1531.6 Q1904 1524.47 1902.17 1520.93 Q1900.36 1517.37 1896.73 1517.37 M1896.73 1513.66 Q1902.54 1513.66 1905.6 1518.27 Q1908.68 1522.85 1908.68 1531.6 Q1908.68 1540.33 1905.6 1544.94 Q1902.54 1549.52 1896.73 1549.52 Q1890.92 1549.52 1887.84 1544.94 Q1884.79 1540.33 1884.79 1531.6 Q1884.79 1522.85 1887.84 1518.27 Q1890.92 1513.66 1896.73 1513.66 Z" fill="#000000" fill-rule="evenodd" fill-opacity="1" /><path clip-path="url(#clip170)" d="M1926.89 1517.37 Q1923.28 1517.37 1921.45 1520.93 Q1919.65 1524.47 1919.65 1531.6 Q1919.65 1538.71 1921.45 1542.27 Q1923.28 1545.82 1926.89 1545.82 Q1930.53 1545.82 1932.33 1542.27 Q1934.16 1538.71 1934.16 1531.6 Q1934.16 1524.47 1932.33 1520.93 Q1930.53 1517.37 1926.89 1517.37 M1926.89 1513.66 Q1932.7 1513.66 1935.76 1518.27 Q1938.84 1522.85 1938.84 1531.6 Q1938.84 1540.33 1935.76 1544.94 Q1932.7 1549.52 1926.89 1549.52 Q1921.08 1549.52 1918 1544.94 Q1914.95 1540.33 1914.95 1531.6 Q1914.95 1522.85 1918 1518.27 Q1921.08 1513.66 1926.89 1513.66 Z" fill="#000000" fill-rule="evenodd" fill-opacity="1" /><path clip-path="url(#clip170)" d="M2249.42 1514.29 L2267.77 1514.29 L2267.77 1518.22 L2253.7 1518.22 L2253.7 1526.7 Q2254.72 1526.35 2255.74 1526.19 Q2256.76 1526 2257.77 1526 Q2263.56 1526 2266.94 1529.17 Q2270.32 1532.34 2270.32 1537.76 Q2270.32 1543.34 2266.85 1546.44 Q2263.38 1549.52 2257.06 1549.52 Q2254.88 1549.52 2252.61 1549.15 Q2250.37 1548.78 2247.96 1548.04 L2247.96 1543.34 Q2250.04 1544.47 2252.27 1545.03 Q2254.49 1545.58 2256.96 1545.58 Q2260.97 1545.58 2263.31 1543.48 Q2265.65 1541.37 2265.65 1537.76 Q2265.65 1534.15 2263.31 1532.04 Q2260.97 1529.94 2256.96 1529.94 Q2255.09 1529.94 2253.21 1530.35 Q2251.36 1530.77 2249.42 1531.65 L2249.42 1514.29 Z" fill="#000000" fill-rule="evenodd" fill-opacity="1" /><path clip-path="url(#clip170)" d="M2289.53 1517.37 Q2285.92 1517.37 2284.09 1520.93 Q2282.29 1524.47 2282.29 1531.6 Q2282.29 1538.71 2284.09 1542.27 Q2285.92 1545.82 2289.53 1545.82 Q2293.17 1545.82 2294.97 1542.27 Q2296.8 1538.71 2296.8 1531.6 Q2296.8 1524.47 2294.97 1520.93 Q2293.17 1517.37 2289.53 1517.37 M2289.53 1513.66 Q2295.34 1513.66 2298.4 1518.27 Q2301.48 1522.85 2301.48 1531.6 Q2301.48 1540.33 2298.4 1544.94 Q2295.34 1549.52 2289.53 1549.52 Q2283.72 1549.52 2280.64 1544.94 Q2277.59 1540.33 2277.59 1531.6 Q2277.59 1522.85 2280.64 1518.27 Q2283.72 1513.66 2289.53 1513.66 Z" fill="#000000" fill-rule="evenodd" fill-opacity="1" /><path clip-path="url(#clip170)" d="M2319.7 1517.37 Q2316.08 1517.37 2314.26 1520.93 Q2312.45 1524.47 2312.45 1531.6 Q2312.45 1538.71 2314.26 1542.27 Q2316.08 1545.82 2319.7 1545.82 Q2323.33 1545.82 2325.14 1542.27 Q2326.96 1538.71 2326.96 1531.6 Q2326.96 1524.47 2325.14 1520.93 Q2323.33 1517.37 2319.7 1517.37 M2319.7 1513.66 Q2325.51 1513.66 2328.56 1518.27 Q2331.64 1522.85 2331.64 1531.6 Q2331.64 1540.33 2328.56 1544.94 Q2325.51 1549.52 2319.7 1549.52 Q2313.89 1549.52 2310.81 1544.94 Q2307.75 1540.33 2307.75 1531.6 Q2307.75 1522.85 2310.81 1518.27 Q2313.89 1513.66 2319.7 1513.66 Z" fill="#000000" fill-rule="evenodd" fill-opacity="1" /><polyline clip-path="url(#clip172)" style="stroke:#000000; stroke-linecap:butt; stroke-linejoin:round; stroke-width:2; stroke-opacity:0.1; fill:none" points="
  267.341,1285.83 2352.76,1285.83 
  "/>
<polyline clip-path="url(#clip172)" style="stroke:#000000; stroke-linecap:butt; stroke-linejoin:round; stroke-width:2; stroke-opacity:0.1; fill:none" points="
  267.341,940.038 2352.76,940.038 
  "/>
<polyline clip-path="url(#clip172)" style="stroke:#000000; stroke-linecap:butt; stroke-linejoin:round; stroke-width:2; stroke-opacity:0.1; fill:none" points="
  267.341,594.241 2352.76,594.241 
  "/>
<polyline clip-path="url(#clip172)" style="stroke:#000000; stroke-linecap:butt; stroke-linejoin:round; stroke-width:2; stroke-opacity:0.1; fill:none" points="
  267.341,248.445 2352.76,248.445 
  "/>
<polyline clip-path="url(#clip170)" style="stroke:#000000; stroke-linecap:butt; stroke-linejoin:round; stroke-width:4; stroke-opacity:1; fill:none" points="
  267.341,1486.45 267.341,47.2441 
  "/>
<polyline clip-path="url(#clip170)" style="stroke:#000000; stroke-linecap:butt; stroke-linejoin:round; stroke-width:4; stroke-opacity:1; fill:none" points="
  267.341,1285.83 286.239,1285.83 
  "/>
<polyline clip-path="url(#clip170)" style="stroke:#000000; stroke-linecap:butt; stroke-linejoin:round; stroke-width:4; stroke-opacity:1; fill:none" points="
  267.341,940.038 286.239,940.038 
  "/>
<polyline clip-path="url(#clip170)" style="stroke:#000000; stroke-linecap:butt; stroke-linejoin:round; stroke-width:4; stroke-opacity:1; fill:none" points="
  267.341,594.241 286.239,594.241 
  "/>
<polyline clip-path="url(#clip170)" style="stroke:#000000; stroke-linecap:butt; stroke-linejoin:round; stroke-width:4; stroke-opacity:1; fill:none" points="
  267.341,248.445 286.239,248.445 
  "/>
<path clip-path="url(#clip170)" d="M53.0552 1305.63 L60.694 1305.63 L60.694 1279.26 L52.3839 1280.93 L52.3839 1276.67 L60.6477 1275 L65.3236 1275 L65.3236 1305.63 L72.9625 1305.63 L72.9625 1309.56 L53.0552 1309.56 L53.0552 1305.63 Z" fill="#000000" fill-rule="evenodd" fill-opacity="1" /><path clip-path="url(#clip170)" d="M92.4068 1278.08 Q88.7957 1278.08 86.967 1281.65 Q85.1615 1285.19 85.1615 1292.32 Q85.1615 1299.42 86.967 1302.99 Q88.7957 1306.53 92.4068 1306.53 Q96.0411 1306.53 97.8466 1302.99 Q99.6753 1299.42 99.6753 1292.32 Q99.6753 1285.19 97.8466 1281.65 Q96.0411 1278.08 92.4068 1278.08 M92.4068 1274.38 Q98.217 1274.38 101.273 1278.98 Q104.351 1283.57 104.351 1292.32 Q104.351 1301.04 101.273 1305.65 Q98.217 1310.23 92.4068 1310.23 Q86.5967 1310.23 83.518 1305.65 Q80.4625 1301.04 80.4625 1292.32 Q80.4625 1283.57 83.518 1278.98 Q86.5967 1274.38 92.4068 1274.38 Z" fill="#000000" fill-rule="evenodd" fill-opacity="1" /><path clip-path="url(#clip170)" d="M104.897 1278.95 L111.103 1278.95 L111.103 1257.53 L104.351 1258.89 L104.351 1255.43 L111.066 1254.07 L114.865 1254.07 L114.865 1278.95 L121.071 1278.95 L121.071 1282.15 L104.897 1282.15 L104.897 1278.95 Z" fill="#000000" fill-rule="evenodd" fill-opacity="1" /><path clip-path="url(#clip170)" d="M128.745 1277.37 L132.713 1277.37 L132.713 1282.15 L128.745 1282.15 L128.745 1277.37 Z" fill="#000000" fill-rule="evenodd" fill-opacity="1" /><path clip-path="url(#clip170)" d="M151.427 1257.38 L141.835 1272.37 L151.427 1272.37 L151.427 1257.38 M150.43 1254.07 L155.207 1254.07 L155.207 1272.37 L159.213 1272.37 L159.213 1275.53 L155.207 1275.53 L155.207 1282.15 L151.427 1282.15 L151.427 1275.53 L138.751 1275.53 L138.751 1271.86 L150.43 1254.07 Z" fill="#000000" fill-rule="evenodd" fill-opacity="1" /><path clip-path="url(#clip170)" d="M177.006 1267.01 Q179.733 1267.59 181.256 1269.44 Q182.798 1271.28 182.798 1273.99 Q182.798 1278.15 179.94 1280.42 Q177.081 1282.7 171.815 1282.7 Q170.047 1282.7 168.166 1282.34 Q166.304 1282 164.31 1281.31 L164.31 1277.64 Q165.89 1278.56 167.771 1279.03 Q169.652 1279.5 171.702 1279.5 Q175.275 1279.5 177.137 1278.09 Q179.018 1276.68 179.018 1273.99 Q179.018 1271.51 177.269 1270.12 Q175.539 1268.7 172.435 1268.7 L169.163 1268.7 L169.163 1265.58 L172.586 1265.58 Q175.388 1265.58 176.874 1264.47 Q178.36 1263.34 178.36 1261.24 Q178.36 1259.08 176.818 1257.93 Q175.294 1256.76 172.435 1256.76 Q170.874 1256.76 169.088 1257.1 Q167.301 1257.44 165.157 1258.15 L165.157 1254.77 Q167.32 1254.17 169.2 1253.87 Q171.1 1253.56 172.774 1253.56 Q177.1 1253.56 179.62 1255.54 Q182.14 1257.5 182.14 1260.84 Q182.14 1263.18 180.805 1264.79 Q179.469 1266.39 177.006 1267.01 Z" fill="#000000" fill-rule="evenodd" fill-opacity="1" /><path clip-path="url(#clip170)" d="M198.597 1266.6 Q196.039 1266.6 194.534 1268.35 Q193.049 1270.1 193.049 1273.14 Q193.049 1276.17 194.534 1277.94 Q196.039 1279.69 198.597 1279.69 Q201.155 1279.69 202.641 1277.94 Q204.145 1276.17 204.145 1273.14 Q204.145 1270.1 202.641 1268.35 Q201.155 1266.6 198.597 1266.6 M206.139 1254.69 L206.139 1258.15 Q204.709 1257.48 203.242 1257.12 Q201.794 1256.76 200.365 1256.76 Q196.603 1256.76 194.61 1259.3 Q192.635 1261.84 192.353 1266.97 Q193.462 1265.34 195.136 1264.47 Q196.81 1263.59 198.823 1263.59 Q203.054 1263.59 205.499 1266.17 Q207.963 1268.72 207.963 1273.14 Q207.963 1277.47 205.405 1280.08 Q202.848 1282.7 198.597 1282.7 Q193.726 1282.7 191.149 1278.97 Q188.572 1275.23 188.572 1268.14 Q188.572 1261.48 191.732 1257.53 Q194.892 1253.56 200.214 1253.56 Q201.644 1253.56 203.092 1253.85 Q204.559 1254.13 206.139 1254.69 Z" fill="#000000" fill-rule="evenodd" fill-opacity="1" /><path clip-path="url(#clip170)" d="M215.167 1278.95 L221.373 1278.95 L221.373 1257.53 L214.621 1258.89 L214.621 1255.43 L221.336 1254.07 L225.135 1254.07 L225.135 1278.95 L231.341 1278.95 L231.341 1282.15 L215.167 1282.15 L215.167 1278.95 Z" fill="#000000" fill-rule="evenodd" fill-opacity="1" /><path clip-path="url(#clip170)" d="M51.6634 959.831 L59.3023 959.831 L59.3023 933.465 L50.9921 935.132 L50.9921 930.872 L59.256 929.206 L63.9319 929.206 L63.9319 959.831 L71.5707 959.831 L71.5707 963.766 L51.6634 963.766 L51.6634 959.831 Z" fill="#000000" fill-rule="evenodd" fill-opacity="1" /><path clip-path="url(#clip170)" d="M91.0151 932.285 Q87.404 932.285 85.5753 935.849 Q83.7697 939.391 83.7697 946.521 Q83.7697 953.627 85.5753 957.192 Q87.404 960.733 91.0151 960.733 Q94.6493 960.733 96.4548 957.192 Q98.2835 953.627 98.2835 946.521 Q98.2835 939.391 96.4548 935.849 Q94.6493 932.285 91.0151 932.285 M91.0151 928.581 Q96.8252 928.581 99.8808 933.187 Q102.959 937.771 102.959 946.521 Q102.959 955.247 99.8808 959.854 Q96.8252 964.437 91.0151 964.437 Q85.2049 964.437 82.1262 959.854 Q79.0707 955.247 79.0707 946.521 Q79.0707 937.771 82.1262 933.187 Q85.2049 928.581 91.0151 928.581 Z" fill="#000000" fill-rule="evenodd" fill-opacity="1" /><path clip-path="url(#clip170)" d="M103.505 933.158 L109.711 933.158 L109.711 911.736 L102.959 913.09 L102.959 909.63 L109.674 908.275 L113.473 908.275 L113.473 933.158 L119.68 933.158 L119.68 936.355 L103.505 936.355 L103.505 933.158 Z" fill="#000000" fill-rule="evenodd" fill-opacity="1" /><path clip-path="url(#clip170)" d="M127.353 931.578 L131.322 931.578 L131.322 936.355 L127.353 936.355 L127.353 931.578 Z" fill="#000000" fill-rule="evenodd" fill-opacity="1" /><path clip-path="url(#clip170)" d="M150.035 911.586 L140.443 926.575 L150.035 926.575 L150.035 911.586 M149.038 908.275 L153.816 908.275 L153.816 926.575 L157.822 926.575 L157.822 929.735 L153.816 929.735 L153.816 936.355 L150.035 936.355 L150.035 929.735 L137.359 929.735 L137.359 926.068 L149.038 908.275 Z" fill="#000000" fill-rule="evenodd" fill-opacity="1" /><path clip-path="url(#clip170)" d="M175.614 921.215 Q178.341 921.798 179.864 923.641 Q181.407 925.485 181.407 928.193 Q181.407 932.349 178.548 934.625 Q175.689 936.901 170.423 936.901 Q168.655 936.901 166.774 936.544 Q164.912 936.205 162.919 935.509 L162.919 931.842 Q164.498 932.763 166.379 933.233 Q168.26 933.704 170.31 933.704 Q173.884 933.704 175.746 932.293 Q177.626 930.882 177.626 928.193 Q177.626 925.71 175.877 924.318 Q174.147 922.908 171.044 922.908 L167.771 922.908 L167.771 919.786 L171.194 919.786 Q173.996 919.786 175.482 918.676 Q176.968 917.548 176.968 915.441 Q176.968 913.278 175.426 912.131 Q173.902 910.965 171.044 910.965 Q169.483 910.965 167.696 911.303 Q165.909 911.642 163.765 912.357 L163.765 908.971 Q165.928 908.369 167.809 908.069 Q169.708 907.768 171.382 907.768 Q175.708 907.768 178.228 909.742 Q180.748 911.698 180.748 915.046 Q180.748 917.378 179.413 918.996 Q178.078 920.595 175.614 921.215 Z" fill="#000000" fill-rule="evenodd" fill-opacity="1" /><path clip-path="url(#clip170)" d="M197.205 920.801 Q194.647 920.801 193.143 922.551 Q191.657 924.3 191.657 927.347 Q191.657 930.375 193.143 932.142 Q194.647 933.892 197.205 933.892 Q199.763 933.892 201.249 932.142 Q202.753 930.375 202.753 927.347 Q202.753 924.3 201.249 922.551 Q199.763 920.801 197.205 920.801 M204.747 908.896 L204.747 912.357 Q203.318 911.68 201.851 911.322 Q200.402 910.965 198.973 910.965 Q195.212 910.965 193.218 913.504 Q191.243 916.043 190.961 921.178 Q192.071 919.541 193.745 918.676 Q195.418 917.792 197.431 917.792 Q201.663 917.792 204.108 920.369 Q206.571 922.927 206.571 927.347 Q206.571 931.672 204.014 934.287 Q201.456 936.901 197.205 936.901 Q192.334 936.901 189.757 933.177 Q187.181 929.434 187.181 922.344 Q187.181 915.686 190.34 911.736 Q193.5 907.768 198.823 907.768 Q200.252 907.768 201.7 908.05 Q203.167 908.332 204.747 908.896 Z" fill="#000000" fill-rule="evenodd" fill-opacity="1" /><path clip-path="url(#clip170)" d="M223.555 911.586 L213.963 926.575 L223.555 926.575 L223.555 911.586 M222.558 908.275 L227.335 908.275 L227.335 926.575 L231.341 926.575 L231.341 929.735 L227.335 929.735 L227.335 936.355 L223.555 936.355 L223.555 929.735 L210.878 929.735 L210.878 926.068 L222.558 908.275 Z" fill="#000000" fill-rule="evenodd" fill-opacity="1" /><path clip-path="url(#clip170)" d="M52.7919 614.034 L60.4307 614.034 L60.4307 587.668 L52.1206 589.335 L52.1206 585.076 L60.3844 583.409 L65.0603 583.409 L65.0603 614.034 L72.6992 614.034 L72.6992 617.969 L52.7919 617.969 L52.7919 614.034 Z" fill="#000000" fill-rule="evenodd" fill-opacity="1" /><path clip-path="url(#clip170)" d="M92.1435 586.488 Q88.5324 586.488 86.7037 590.053 Q84.8982 593.594 84.8982 600.724 Q84.8982 607.83 86.7037 611.395 Q88.5324 614.937 92.1435 614.937 Q95.7778 614.937 97.5833 611.395 Q99.412 607.83 99.412 600.724 Q99.412 593.594 97.5833 590.053 Q95.7778 586.488 92.1435 586.488 M92.1435 582.784 Q97.9537 582.784 101.009 587.391 Q104.088 591.974 104.088 600.724 Q104.088 609.451 101.009 614.057 Q97.9537 618.64 92.1435 618.64 Q86.3334 618.64 83.2547 614.057 Q80.1991 609.451 80.1991 600.724 Q80.1991 591.974 83.2547 587.391 Q86.3334 582.784 92.1435 582.784 Z" fill="#000000" fill-rule="evenodd" fill-opacity="1" /><path clip-path="url(#clip170)" d="M104.633 587.361 L110.84 587.361 L110.84 565.939 L104.088 567.293 L104.088 563.833 L110.802 562.479 L114.601 562.479 L114.601 587.361 L120.808 587.361 L120.808 590.559 L104.633 590.559 L104.633 587.361 Z" fill="#000000" fill-rule="evenodd" fill-opacity="1" /><path clip-path="url(#clip170)" d="M128.482 585.782 L132.45 585.782 L132.45 590.559 L128.482 590.559 L128.482 585.782 Z" fill="#000000" fill-rule="evenodd" fill-opacity="1" /><path clip-path="url(#clip170)" d="M151.164 565.789 L141.572 580.779 L151.164 580.779 L151.164 565.789 M150.167 562.479 L154.944 562.479 L154.944 580.779 L158.95 580.779 L158.95 583.938 L154.944 583.938 L154.944 590.559 L151.164 590.559 L151.164 583.938 L138.487 583.938 L138.487 580.271 L150.167 562.479 Z" fill="#000000" fill-rule="evenodd" fill-opacity="1" /><path clip-path="url(#clip170)" d="M176.742 575.418 Q179.469 576.001 180.993 577.845 Q182.535 579.688 182.535 582.396 Q182.535 586.553 179.676 588.828 Q176.818 591.104 171.551 591.104 Q169.783 591.104 167.903 590.747 Q166.041 590.408 164.047 589.712 L164.047 586.045 Q165.627 586.966 167.508 587.437 Q169.388 587.907 171.439 587.907 Q175.012 587.907 176.874 586.496 Q178.755 585.086 178.755 582.396 Q178.755 579.913 177.006 578.522 Q175.275 577.111 172.172 577.111 L168.899 577.111 L168.899 573.989 L172.322 573.989 Q175.125 573.989 176.611 572.879 Q178.096 571.751 178.096 569.644 Q178.096 567.482 176.554 566.334 Q175.031 565.168 172.172 565.168 Q170.611 565.168 168.824 565.507 Q167.038 565.845 164.893 566.56 L164.893 563.175 Q167.056 562.573 168.937 562.272 Q170.837 561.971 172.511 561.971 Q176.836 561.971 179.357 563.946 Q181.877 565.902 181.877 569.249 Q181.877 571.582 180.541 573.199 Q179.206 574.798 176.742 575.418 Z" fill="#000000" fill-rule="evenodd" fill-opacity="1" /><path clip-path="url(#clip170)" d="M198.334 575.005 Q195.776 575.005 194.271 576.754 Q192.785 578.503 192.785 581.55 Q192.785 584.578 194.271 586.346 Q195.776 588.095 198.334 588.095 Q200.891 588.095 202.377 586.346 Q203.882 584.578 203.882 581.55 Q203.882 578.503 202.377 576.754 Q200.891 575.005 198.334 575.005 M205.876 563.099 L205.876 566.56 Q204.446 565.883 202.979 565.526 Q201.531 565.168 200.102 565.168 Q196.34 565.168 194.346 567.707 Q192.372 570.246 192.089 575.381 Q193.199 573.745 194.873 572.879 Q196.547 571.995 198.559 571.995 Q202.791 571.995 205.236 574.572 Q207.7 577.13 207.7 581.55 Q207.7 585.876 205.142 588.49 Q202.584 591.104 198.334 591.104 Q193.462 591.104 190.886 587.38 Q188.309 583.637 188.309 576.547 Q188.309 569.889 191.469 565.939 Q194.629 561.971 199.951 561.971 Q201.38 561.971 202.829 562.253 Q204.296 562.535 205.876 563.099 Z" fill="#000000" fill-rule="evenodd" fill-opacity="1" /><path clip-path="url(#clip170)" d="M213.286 562.479 L231.341 562.479 L231.341 564.096 L221.147 590.559 L217.179 590.559 L226.771 565.676 L213.286 565.676 L213.286 562.479 Z" fill="#000000" fill-rule="evenodd" fill-opacity="1" /><path clip-path="url(#clip170)" d="M52.0584 268.237 L59.6972 268.237 L59.6972 241.872 L51.3871 243.538 L51.3871 239.279 L59.6509 237.612 L64.3268 237.612 L64.3268 268.237 L71.9657 268.237 L71.9657 272.172 L52.0584 272.172 L52.0584 268.237 Z" fill="#000000" fill-rule="evenodd" fill-opacity="1" /><path clip-path="url(#clip170)" d="M91.41 240.691 Q87.7989 240.691 85.9702 244.256 Q84.1647 247.797 84.1647 254.927 Q84.1647 262.034 85.9702 265.598 Q87.7989 269.14 91.41 269.14 Q95.0443 269.14 96.8498 265.598 Q98.6785 262.034 98.6785 254.927 Q98.6785 247.797 96.8498 244.256 Q95.0443 240.691 91.41 240.691 M91.41 236.987 Q97.2202 236.987 100.276 241.594 Q103.354 246.177 103.354 254.927 Q103.354 263.654 100.276 268.26 Q97.2202 272.844 91.41 272.844 Q85.5999 272.844 82.5212 268.26 Q79.4656 263.654 79.4656 254.927 Q79.4656 246.177 82.5212 241.594 Q85.5999 236.987 91.41 236.987 Z" fill="#000000" fill-rule="evenodd" fill-opacity="1" /><path clip-path="url(#clip170)" d="M103.9 241.565 L110.106 241.565 L110.106 220.143 L103.354 221.497 L103.354 218.036 L110.069 216.682 L113.868 216.682 L113.868 241.565 L120.075 241.565 L120.075 244.762 L103.9 244.762 L103.9 241.565 Z" fill="#000000" fill-rule="evenodd" fill-opacity="1" /><path clip-path="url(#clip170)" d="M127.748 239.985 L131.717 239.985 L131.717 244.762 L127.748 244.762 L127.748 239.985 Z" fill="#000000" fill-rule="evenodd" fill-opacity="1" /><path clip-path="url(#clip170)" d="M150.43 219.992 L140.838 234.982 L150.43 234.982 L150.43 219.992 M149.433 216.682 L154.211 216.682 L154.211 234.982 L158.217 234.982 L158.217 238.142 L154.211 238.142 L154.211 244.762 L150.43 244.762 L150.43 238.142 L137.754 238.142 L137.754 234.474 L149.433 216.682 Z" fill="#000000" fill-rule="evenodd" fill-opacity="1" /><path clip-path="url(#clip170)" d="M176.009 229.622 Q178.736 230.205 180.259 232.048 Q181.802 233.891 181.802 236.599 Q181.802 240.756 178.943 243.032 Q176.084 245.307 170.818 245.307 Q169.05 245.307 167.169 244.95 Q165.307 244.611 163.314 243.916 L163.314 240.248 Q164.893 241.17 166.774 241.64 Q168.655 242.11 170.705 242.11 Q174.279 242.11 176.14 240.699 Q178.021 239.289 178.021 236.599 Q178.021 234.117 176.272 232.725 Q174.542 231.314 171.439 231.314 L168.166 231.314 L168.166 228.192 L171.589 228.192 Q174.391 228.192 175.877 227.083 Q177.363 225.954 177.363 223.848 Q177.363 221.685 175.821 220.538 Q174.297 219.371 171.439 219.371 Q169.877 219.371 168.091 219.71 Q166.304 220.049 164.16 220.763 L164.16 217.378 Q166.323 216.776 168.204 216.475 Q170.103 216.174 171.777 216.174 Q176.103 216.174 178.623 218.149 Q181.143 220.105 181.143 223.453 Q181.143 225.785 179.808 227.402 Q178.473 229.001 176.009 229.622 Z" fill="#000000" fill-rule="evenodd" fill-opacity="1" /><path clip-path="url(#clip170)" d="M188.046 216.682 L206.101 216.682 L206.101 218.299 L195.907 244.762 L191.939 244.762 L201.531 219.879 L188.046 219.879 L188.046 216.682 Z" fill="#000000" fill-rule="evenodd" fill-opacity="1" /><path clip-path="url(#clip170)" d="M221.636 219.183 Q218.702 219.183 217.217 222.08 Q215.75 224.957 215.75 230.75 Q215.75 236.524 217.217 239.421 Q218.702 242.298 221.636 242.298 Q224.589 242.298 226.056 239.421 Q227.542 236.524 227.542 230.75 Q227.542 224.957 226.056 222.08 Q224.589 219.183 221.636 219.183 M221.636 216.174 Q226.357 216.174 228.84 219.917 Q231.341 223.641 231.341 230.75 Q231.341 237.841 228.84 241.583 Q226.357 245.307 221.636 245.307 Q216.916 245.307 214.414 241.583 Q211.932 237.841 211.932 230.75 Q211.932 223.641 214.414 219.917 Q216.916 216.174 221.636 216.174 Z" fill="#000000" fill-rule="evenodd" fill-opacity="1" /><polyline clip-path="url(#clip172)" style="stroke:#009af9; stroke-linecap:butt; stroke-linejoin:round; stroke-width:16; stroke-opacity:1; fill:none" points="
  326.362,87.9763 330.297,476.36 334.232,654.799 338.167,742.511 342.101,788.035 346.036,813.002 349.971,827.635 353.906,836.955 357.84,843.496 361.775,848.565 
  365.71,852.84 369.645,856.683 373.579,860.281 377.514,863.738 381.449,867.108 385.384,870.42 389.318,873.69 393.253,876.927 397.188,880.135 401.123,883.318 
  405.057,886.476 408.992,889.61 412.927,892.722 416.862,895.811 420.796,898.878 424.731,901.923 428.666,904.946 432.601,907.948 436.535,910.929 440.47,913.888 
  444.405,916.827 448.34,919.745 452.274,922.642 456.209,925.519 460.144,928.376 464.079,931.213 468.013,934.03 471.948,936.827 475.883,939.605 479.817,942.363 
  483.752,945.103 487.687,947.823 491.622,950.525 495.556,953.208 499.491,955.872 503.426,958.518 507.361,961.146 511.295,963.757 515.23,966.349 519.165,968.923 
  523.1,971.48 527.034,974.02 530.969,976.542 534.904,979.048 538.839,981.536 542.773,984.008 546.708,986.463 550.643,988.902 554.578,991.324 558.512,993.73 
  562.447,996.12 566.382,998.495 570.317,1000.85 574.251,1003.2 578.186,1005.52 582.121,1007.84 586.056,1010.13 589.99,1012.41 593.925,1014.68 597.86,1016.93 
  601.795,1019.17 605.729,1021.39 609.664,1023.6 613.599,1025.8 617.534,1027.98 621.468,1030.14 625.403,1032.29 629.338,1034.43 633.273,1036.56 637.207,1038.67 
  641.142,1040.76 645.077,1042.85 649.012,1044.92 652.946,1046.98 656.881,1049.02 660.816,1051.05 664.75,1053.07 668.685,1055.08 672.62,1057.07 676.555,1059.06 
  680.489,1061.03 684.424,1062.98 688.359,1064.93 692.294,1066.86 696.228,1068.78 700.163,1070.69 704.098,1072.59 708.033,1074.48 711.967,1076.35 715.902,1078.22 
  719.837,1080.07 723.772,1081.91 727.706,1083.74 731.641,1085.56 735.576,1087.37 739.511,1089.16 743.445,1090.95 747.38,1092.73 751.315,1094.49 755.25,1096.25 
  759.184,1097.99 763.119,1099.73 767.054,1101.45 770.989,1103.17 774.923,1104.87 778.858,1106.57 782.793,1108.25 786.728,1109.93 790.662,1111.6 794.597,1113.25 
  798.532,1114.9 802.467,1116.54 806.401,1118.17 810.336,1119.78 814.271,1121.39 818.206,1123 822.14,1124.59 826.075,1126.17 830.01,1127.75 833.944,1129.31 
  837.879,1130.87 841.814,1132.42 845.749,1133.96 849.683,1135.49 853.618,1137.01 857.553,1138.53 861.488,1140.04 865.422,1141.53 869.357,1143.03 873.292,1144.51 
  877.227,1145.98 881.161,1147.45 885.096,1148.91 889.031,1150.36 892.966,1151.81 896.9,1153.24 900.835,1154.67 904.77,1156.09 908.705,1157.51 912.639,1158.91 
  916.574,1160.31 920.509,1161.71 924.444,1163.09 928.378,1164.47 932.313,1165.84 936.248,1167.21 940.183,1168.56 944.117,1169.91 948.052,1171.26 951.987,1172.6 
  955.922,1173.93 959.856,1175.25 963.791,1176.57 967.726,1177.88 971.661,1179.18 975.595,1180.48 979.53,1181.77 983.465,1183.06 987.4,1184.34 991.334,1185.61 
  995.269,1186.88 999.204,1188.14 1003.14,1189.4 1007.07,1190.65 1011.01,1191.89 1014.94,1193.13 1018.88,1194.36 1022.81,1195.59 1026.75,1196.81 1030.68,1198.02 
  1034.62,1199.23 1038.55,1200.44 1042.49,1201.64 1046.42,1202.83 1050.36,1204.02 1054.29,1205.2 1058.22,1206.38 1062.16,1207.55 1066.09,1208.72 1070.03,1209.88 
  1073.96,1211.03 1077.9,1212.19 1081.83,1213.33 1085.77,1214.47 1089.7,1215.61 1093.64,1216.74 1097.57,1217.87 1101.51,1218.99 1105.44,1220.11 1109.38,1221.22 
  1113.31,1222.33 1117.25,1223.43 1121.18,1224.53 1125.12,1225.62 1129.05,1226.71 1132.99,1227.8 1136.92,1228.88 1140.85,1229.95 1144.79,1231.02 1148.72,1232.09 
  1152.66,1233.15 1156.59,1234.21 1160.53,1235.27 1164.46,1236.32 1168.4,1237.36 1172.33,1238.41 1176.27,1239.44 1180.2,1240.48 1184.14,1241.51 1188.07,1242.53 
  1192.01,1243.56 1195.94,1244.57 1199.88,1245.59 1203.81,1246.6 1207.75,1247.6 1211.68,1248.61 1215.61,1249.61 1219.55,1250.6 1223.48,1251.59 1227.42,1252.58 
  1231.35,1253.56 1235.29,1254.54 1239.22,1255.52 1243.16,1256.49 1247.09,1257.46 1251.03,1258.43 1254.96,1259.39 1258.9,1260.35 1262.83,1261.31 1266.77,1262.26 
  1270.7,1263.21 1274.64,1264.16 1278.57,1265.1 1282.51,1266.04 1286.44,1266.98 1290.37,1267.91 1294.31,1268.84 1298.24,1269.77 1302.18,1270.69 1306.11,1271.61 
  1310.05,1272.53 1313.98,1273.44 1317.92,1274.35 1321.85,1275.26 1325.79,1276.17 1329.72,1277.07 1333.66,1277.97 1337.59,1278.86 1341.53,1279.76 1345.46,1280.65 
  1349.4,1281.54 1353.33,1282.42 1357.27,1283.3 1361.2,1284.18 1365.14,1285.06 1369.07,1285.93 1373,1286.81 1376.94,1287.67 1380.87,1288.54 1384.81,1289.4 
  1388.74,1290.26 1392.68,1291.12 1396.61,1291.98 1400.55,1292.83 1404.48,1293.68 1408.42,1294.53 1412.35,1295.38 1416.29,1296.22 1420.22,1297.06 1424.16,1297.9 
  1428.09,1298.73 1432.03,1299.57 1435.96,1300.4 1439.9,1301.23 1443.83,1302.05 1447.76,1302.88 1451.7,1303.7 1455.63,1304.52 1459.57,1305.33 1463.5,1306.15 
  1467.44,1306.96 1471.37,1307.77 1475.31,1308.58 1479.24,1309.38 1483.18,1310.19 1487.11,1310.99 1491.05,1311.79 1494.98,1312.59 1498.92,1313.38 1502.85,1314.17 
  1506.79,1314.97 1510.72,1315.75 1514.66,1316.54 1518.59,1317.33 1522.52,1318.11 1526.46,1318.89 1530.39,1319.67 1534.33,1320.45 1538.26,1321.22 1542.2,1321.99 
  1546.13,1322.77 1550.07,1323.54 1554,1324.3 1557.94,1325.07 1561.87,1325.83 1565.81,1326.59 1569.74,1327.35 1573.68,1328.11 1577.61,1328.87 1581.55,1329.62 
  1585.48,1330.37 1589.42,1331.13 1593.35,1331.88 1597.28,1332.62 1601.22,1333.37 1605.15,1334.11 1609.09,1334.85 1613.02,1335.6 1616.96,1336.33 1620.89,1337.07 
  1624.83,1337.81 1628.76,1338.54 1632.7,1339.27 1636.63,1340 1640.57,1340.73 1644.5,1341.46 1648.44,1342.19 1652.37,1342.91 1656.31,1343.63 1660.24,1344.35 
  1664.18,1345.07 1668.11,1345.79 1672.05,1346.51 1675.98,1347.22 1679.91,1347.94 1683.85,1348.65 1687.78,1349.36 1691.72,1350.07 1695.65,1350.78 1699.59,1351.48 
  1703.52,1352.19 1707.46,1352.89 1711.39,1353.59 1715.33,1354.29 1719.26,1354.99 1723.2,1355.69 1727.13,1356.39 1731.07,1357.08 1735,1357.78 1738.94,1358.47 
  1742.87,1359.16 1746.81,1359.85 1750.74,1360.54 1754.67,1361.22 1758.61,1361.91 1762.54,1362.59 1766.48,1363.28 1770.41,1363.96 1774.35,1364.64 1778.28,1365.32 
  1782.22,1366 1786.15,1366.67 1790.09,1367.35 1794.02,1368.02 1797.96,1368.69 1801.89,1369.37 1805.83,1370.04 1809.76,1370.71 1813.7,1371.37 1817.63,1372.04 
  1821.57,1372.71 1825.5,1373.37 1829.43,1374.04 1833.37,1374.7 1837.3,1375.36 1841.24,1376.02 1845.17,1376.68 1849.11,1377.33 1853.04,1377.99 1856.98,1378.65 
  1860.91,1379.3 1864.85,1379.95 1868.78,1380.61 1872.72,1381.26 1876.65,1381.91 1880.59,1382.56 1884.52,1383.2 1888.46,1383.85 1892.39,1384.5 1896.33,1385.14 
  1900.26,1385.78 1904.2,1386.43 1908.13,1387.07 1912.06,1387.71 1916,1388.35 1919.93,1388.99 1923.87,1389.62 1927.8,1390.26 1931.74,1390.9 1935.67,1391.53 
  1939.61,1392.16 1943.54,1392.8 1947.48,1393.43 1951.41,1394.06 1955.35,1394.69 1959.28,1395.32 1963.22,1395.94 1967.15,1396.57 1971.09,1397.2 1975.02,1397.82 
  1978.96,1398.45 1982.89,1399.07 1986.82,1399.69 1990.76,1400.31 1994.69,1400.93 1998.63,1401.55 2002.56,1402.17 2006.5,1402.79 2010.43,1403.4 2014.37,1404.02 
  2018.3,1404.63 2022.24,1405.25 2026.17,1405.86 2030.11,1406.47 2034.04,1407.09 2037.98,1407.7 2041.91,1408.31 2045.85,1408.91 2049.78,1409.52 2053.72,1410.13 
  2057.65,1410.74 2061.58,1411.34 2065.52,1411.95 2069.45,1412.55 2073.39,1413.15 2077.32,1413.75 2081.26,1414.36 2085.19,1414.96 2089.13,1415.56 2093.06,1416.15 
  2097,1416.75 2100.93,1417.35 2104.87,1417.95 2108.8,1418.54 2112.74,1419.14 2116.67,1419.73 2120.61,1420.32 2124.54,1420.92 2128.48,1421.51 2132.41,1422.1 
  2136.34,1422.69 2140.28,1423.28 2144.21,1423.87 2148.15,1424.46 2152.08,1425.04 2156.02,1425.63 2159.95,1426.22 2163.89,1426.8 2167.82,1427.39 2171.76,1427.97 
  2175.69,1428.55 2179.63,1429.13 2183.56,1429.72 2187.5,1430.3 2191.43,1430.88 2195.37,1431.46 2199.3,1432.03 2203.24,1432.61 2207.17,1433.19 2211.11,1433.77 
  2215.04,1434.34 2218.97,1434.92 2222.91,1435.49 2226.84,1436.07 2230.78,1436.64 2234.71,1437.21 2238.65,1437.78 2242.58,1438.35 2246.52,1438.92 2250.45,1439.49 
  2254.39,1440.06 2258.32,1440.63 2262.26,1441.2 2266.19,1441.76 2270.13,1442.33 2274.06,1442.9 2278,1443.46 2281.93,1444.03 2285.87,1444.59 2289.8,1445.15 
  2293.73,1445.72 
  "/>
<path clip-path="url(#clip170)" d="
M1972.88 250.738 L2283.24 250.738 L2283.24 95.2176 L1972.88 95.2176  Z
  " fill="#ffffff" fill-rule="evenodd" fill-opacity="1"/>
<polyline clip-path="url(#clip170)" style="stroke:#000000; stroke-linecap:butt; stroke-linejoin:round; stroke-width:4; stroke-opacity:1; fill:none" points="
  1972.88,250.738 2283.24,250.738 2283.24,95.2176 1972.88,95.2176 1972.88,250.738 
  "/>
<polyline clip-path="url(#clip170)" style="stroke:#009af9; stroke-linecap:butt; stroke-linejoin:round; stroke-width:6; stroke-opacity:1; fill:none" points="
  1996.06,172.978 2135.08,172.978 
  "/>
<path clip-path="url(#clip170)" d="M2179.02 202.509 Q2176.31 209.453 2173.74 211.571 Q2171.17 213.689 2166.87 213.689 L2161.76 213.689 L2161.76 208.342 L2165.51 208.342 Q2168.15 208.342 2169.61 207.092 Q2171.07 205.842 2172.84 201.189 L2173.98 198.273 L2158.25 160.009 L2165.02 160.009 L2177.18 190.425 L2189.33 160.009 L2196.1 160.009 L2179.02 202.509 Z" fill="#000000" fill-rule="evenodd" fill-opacity="1" /><path clip-path="url(#clip170)" d="M2207.04 192.995 L2218.5 192.995 L2218.5 153.446 L2206.03 155.946 L2206.03 149.558 L2218.43 147.058 L2225.44 147.058 L2225.44 192.995 L2236.9 192.995 L2236.9 198.898 L2207.04 198.898 L2207.04 192.995 Z" fill="#000000" fill-rule="evenodd" fill-opacity="1" /></svg>
