<?xml version="1.0" encoding="utf-8"?>
<svg xmlns="http://www.w3.org/2000/svg" xmlns:xlink="http://www.w3.org/1999/xlink" width="600" height="400" viewBox="0 0 2400 1600">
<defs>
  <clipPath id="clip270">
    <rect x="0" y="0" width="2400" height="1600"/>
  </clipPath>
</defs>
<path clip-path="url(#clip270)" d="
M0 1600 L2400 1600 L2400 0 L0 0  Z
  " fill="#ffffff" fill-rule="evenodd" fill-opacity="1"/>
<defs>
  <clipPath id="clip271">
    <rect x="480" y="0" width="1681" height="1600"/>
  </clipPath>
</defs>
<path clip-path="url(#clip270)" d="
M239.19 1486.45 L2352.76 1486.45 L2352.76 47.2441 L239.19 47.2441  Z
  " fill="#ffffff" fill-rule="evenodd" fill-opacity="1"/>
<defs>
  <clipPath id="clip272">
    <rect x="239" y="47" width="2115" height="1440"/>
  </clipPath>
</defs>
<polyline clip-path="url(#clip272)" style="stroke:#000000; stroke-linecap:butt; stroke-linejoin:round; stroke-width:2; stroke-opacity:0.1; fill:none" points="
  333.223,1486.45 333.223,47.2441 
  "/>
<polyline clip-path="url(#clip272)" style="stroke:#000000; stroke-linecap:butt; stroke-linejoin:round; stroke-width:2; stroke-opacity:0.1; fill:none" points="
  703.511,1486.45 703.511,47.2441 
  "/>
<polyline clip-path="url(#clip272)" style="stroke:#000000; stroke-linecap:butt; stroke-linejoin:round; stroke-width:2; stroke-opacity:0.1; fill:none" points="
  1073.8,1486.45 1073.8,47.2441 
  "/>
<polyline clip-path="url(#clip272)" style="stroke:#000000; stroke-linecap:butt; stroke-linejoin:round; stroke-width:2; stroke-opacity:0.1; fill:none" points="
  1444.09,1486.45 1444.09,47.2441 
  "/>
<polyline clip-path="url(#clip272)" style="stroke:#000000; stroke-linecap:butt; stroke-linejoin:round; stroke-width:2; stroke-opacity:0.1; fill:none" points="
  1814.38,1486.45 1814.38,47.2441 
  "/>
<polyline clip-path="url(#clip272)" style="stroke:#000000; stroke-linecap:butt; stroke-linejoin:round; stroke-width:2; stroke-opacity:0.1; fill:none" points="
  2184.67,1486.45 2184.67,47.2441 
  "/>
<polyline clip-path="url(#clip270)" style="stroke:#000000; stroke-linecap:butt; stroke-linejoin:round; stroke-width:4; stroke-opacity:1; fill:none" points="
  239.19,1486.45 2352.76,1486.45 
  "/>
<polyline clip-path="url(#clip270)" style="stroke:#000000; stroke-linecap:butt; stroke-linejoin:round; stroke-width:4; stroke-opacity:1; fill:none" points="
  333.223,1486.45 333.223,1467.55 
  "/>
<polyline clip-path="url(#clip270)" style="stroke:#000000; stroke-linecap:butt; stroke-linejoin:round; stroke-width:4; stroke-opacity:1; fill:none" points="
  703.511,1486.45 703.511,1467.55 
  "/>
<polyline clip-path="url(#clip270)" style="stroke:#000000; stroke-linecap:butt; stroke-linejoin:round; stroke-width:4; stroke-opacity:1; fill:none" points="
  1073.8,1486.45 1073.8,1467.55 
  "/>
<polyline clip-path="url(#clip270)" style="stroke:#000000; stroke-linecap:butt; stroke-linejoin:round; stroke-width:4; stroke-opacity:1; fill:none" points="
  1444.09,1486.45 1444.09,1467.55 
  "/>
<polyline clip-path="url(#clip270)" style="stroke:#000000; stroke-linecap:butt; stroke-linejoin:round; stroke-width:4; stroke-opacity:1; fill:none" points="
  1814.38,1486.45 1814.38,1467.55 
  "/>
<polyline clip-path="url(#clip270)" style="stroke:#000000; stroke-linecap:butt; stroke-linejoin:round; stroke-width:4; stroke-opacity:1; fill:none" points="
  2184.67,1486.45 2184.67,1467.55 
  "/>
<path clip-path="url(#clip270)" d="M333.223 1517.37 Q329.612 1517.37 327.783 1520.93 Q325.978 1524.47 325.978 1531.6 Q325.978 1538.71 327.783 1542.27 Q329.612 1545.82 333.223 1545.82 Q336.857 1545.82 338.663 1542.27 Q340.491 1538.71 340.491 1531.6 Q340.491 1524.47 338.663 1520.93 Q336.857 1517.37 333.223 1517.37 M333.223 1513.66 Q339.033 1513.66 342.089 1518.27 Q345.167 1522.85 345.167 1531.6 Q345.167 1540.33 342.089 1544.94 Q339.033 1549.52 333.223 1549.52 Q327.413 1549.52 324.334 1544.94 Q321.279 1540.33 321.279 1531.6 Q321.279 1522.85 324.334 1518.27 Q327.413 1513.66 333.223 1513.66 Z" fill="#000000" fill-rule="evenodd" fill-opacity="1" /><path clip-path="url(#clip270)" d="M678.199 1544.91 L685.838 1544.91 L685.838 1518.55 L677.528 1520.21 L677.528 1515.95 L685.792 1514.29 L690.468 1514.29 L690.468 1544.91 L698.106 1544.91 L698.106 1548.85 L678.199 1548.85 L678.199 1544.91 Z" fill="#000000" fill-rule="evenodd" fill-opacity="1" /><path clip-path="url(#clip270)" d="M717.551 1517.37 Q713.94 1517.37 712.111 1520.93 Q710.305 1524.47 710.305 1531.6 Q710.305 1538.71 712.111 1542.27 Q713.94 1545.82 717.551 1545.82 Q721.185 1545.82 722.991 1542.27 Q724.819 1538.71 724.819 1531.6 Q724.819 1524.47 722.991 1520.93 Q721.185 1517.37 717.551 1517.37 M717.551 1513.66 Q723.361 1513.66 726.416 1518.27 Q729.495 1522.85 729.495 1531.6 Q729.495 1540.33 726.416 1544.94 Q723.361 1549.52 717.551 1549.52 Q711.741 1549.52 708.662 1544.94 Q705.606 1540.33 705.606 1531.6 Q705.606 1522.85 708.662 1518.27 Q711.741 1513.66 717.551 1513.66 Z" fill="#000000" fill-rule="evenodd" fill-opacity="1" /><path clip-path="url(#clip270)" d="M1052.57 1544.91 L1068.89 1544.91 L1068.89 1548.85 L1046.95 1548.85 L1046.95 1544.91 Q1049.61 1542.16 1054.19 1537.53 Q1058.8 1532.88 1059.98 1531.53 Q1062.23 1529.01 1063.11 1527.27 Q1064.01 1525.51 1064.01 1523.82 Q1064.01 1521.07 1062.06 1519.33 Q1060.14 1517.6 1057.04 1517.6 Q1054.84 1517.6 1052.39 1518.36 Q1049.96 1519.13 1047.18 1520.68 L1047.18 1515.95 Q1050 1514.82 1052.46 1514.24 Q1054.91 1513.66 1056.95 1513.66 Q1062.32 1513.66 1065.51 1516.35 Q1068.71 1519.03 1068.71 1523.52 Q1068.71 1525.65 1067.9 1527.57 Q1067.11 1529.47 1065 1532.07 Q1064.43 1532.74 1061.32 1535.95 Q1058.22 1539.15 1052.57 1544.91 Z" fill="#000000" fill-rule="evenodd" fill-opacity="1" /><path clip-path="url(#clip270)" d="M1088.71 1517.37 Q1085.1 1517.37 1083.27 1520.93 Q1081.46 1524.47 1081.46 1531.6 Q1081.46 1538.71 1083.27 1542.27 Q1085.1 1545.82 1088.71 1545.82 Q1092.34 1545.82 1094.15 1542.27 Q1095.98 1538.71 1095.98 1531.6 Q1095.98 1524.47 1094.15 1520.93 Q1092.34 1517.37 1088.71 1517.37 M1088.71 1513.66 Q1094.52 1513.66 1097.57 1518.27 Q1100.65 1522.85 1100.65 1531.6 Q1100.65 1540.33 1097.57 1544.94 Q1094.52 1549.52 1088.71 1549.52 Q1082.9 1549.52 1079.82 1544.94 Q1076.76 1540.33 1076.76 1531.6 Q1076.76 1522.85 1079.82 1518.27 Q1082.9 1513.66 1088.71 1513.66 Z" fill="#000000" fill-rule="evenodd" fill-opacity="1" /><path clip-path="url(#clip270)" d="M1432.93 1530.21 Q1436.29 1530.93 1438.16 1533.2 Q1440.06 1535.47 1440.06 1538.8 Q1440.06 1543.92 1436.54 1546.72 Q1433.02 1549.52 1426.54 1549.52 Q1424.37 1549.52 1422.05 1549.08 Q1419.76 1548.66 1417.31 1547.81 L1417.31 1543.29 Q1419.25 1544.43 1421.57 1545.01 Q1423.88 1545.58 1426.4 1545.58 Q1430.8 1545.58 1433.09 1543.85 Q1435.41 1542.11 1435.41 1538.8 Q1435.41 1535.75 1433.26 1534.03 Q1431.13 1532.3 1427.31 1532.3 L1423.28 1532.3 L1423.28 1528.45 L1427.49 1528.45 Q1430.94 1528.45 1432.77 1527.09 Q1434.6 1525.7 1434.6 1523.11 Q1434.6 1520.45 1432.7 1519.03 Q1430.82 1517.6 1427.31 1517.6 Q1425.38 1517.6 1423.19 1518.01 Q1420.99 1518.43 1418.35 1519.31 L1418.35 1515.14 Q1421.01 1514.4 1423.32 1514.03 Q1425.66 1513.66 1427.72 1513.66 Q1433.05 1513.66 1436.15 1516.09 Q1439.25 1518.5 1439.25 1522.62 Q1439.25 1525.49 1437.61 1527.48 Q1435.96 1529.45 1432.93 1530.21 Z" fill="#000000" fill-rule="evenodd" fill-opacity="1" /><path clip-path="url(#clip270)" d="M1458.93 1517.37 Q1455.32 1517.37 1453.49 1520.93 Q1451.68 1524.47 1451.68 1531.6 Q1451.68 1538.71 1453.49 1542.27 Q1455.32 1545.82 1458.93 1545.82 Q1462.56 1545.82 1464.37 1542.27 Q1466.19 1538.71 1466.19 1531.6 Q1466.19 1524.47 1464.37 1520.93 Q1462.56 1517.37 1458.93 1517.37 M1458.93 1513.66 Q1464.74 1513.66 1467.79 1518.27 Q1470.87 1522.85 1470.87 1531.6 Q1470.87 1540.33 1467.79 1544.94 Q1464.74 1549.52 1458.93 1549.52 Q1453.12 1549.52 1450.04 1544.94 Q1446.98 1540.33 1446.98 1531.6 Q1446.98 1522.85 1450.04 1518.27 Q1453.12 1513.66 1458.93 1513.66 Z" fill="#000000" fill-rule="evenodd" fill-opacity="1" /><path clip-path="url(#clip270)" d="M1802.55 1518.36 L1790.74 1536.81 L1802.55 1536.81 L1802.55 1518.36 M1801.32 1514.29 L1807.2 1514.29 L1807.2 1536.81 L1812.13 1536.81 L1812.13 1540.7 L1807.2 1540.7 L1807.2 1548.85 L1802.55 1548.85 L1802.55 1540.7 L1786.95 1540.7 L1786.95 1536.19 L1801.32 1514.29 Z" fill="#000000" fill-rule="evenodd" fill-opacity="1" /><path clip-path="url(#clip270)" d="M1829.86 1517.37 Q1826.25 1517.37 1824.42 1520.93 Q1822.62 1524.47 1822.62 1531.6 Q1822.62 1538.71 1824.42 1542.27 Q1826.25 1545.82 1829.86 1545.82 Q1833.5 1545.82 1835.3 1542.27 Q1837.13 1538.71 1837.13 1531.6 Q1837.13 1524.47 1835.3 1520.93 Q1833.5 1517.37 1829.86 1517.37 M1829.86 1513.66 Q1835.67 1513.66 1838.73 1518.27 Q1841.81 1522.85 1841.81 1531.6 Q1841.81 1540.33 1838.73 1544.94 Q1835.67 1549.52 1829.86 1549.52 Q1824.05 1549.52 1820.97 1544.94 Q1817.92 1540.33 1817.92 1531.6 Q1817.92 1522.85 1820.97 1518.27 Q1824.05 1513.66 1829.86 1513.66 Z" fill="#000000" fill-rule="evenodd" fill-opacity="1" /><path clip-path="url(#clip270)" d="M2159.36 1514.29 L2177.72 1514.29 L2177.72 1518.22 L2163.65 1518.22 L2163.65 1526.7 Q2164.67 1526.35 2165.68 1526.19 Q2166.7 1526 2167.72 1526 Q2173.51 1526 2176.89 1529.17 Q2180.27 1532.34 2180.27 1537.76 Q2180.27 1543.34 2176.8 1546.44 Q2173.32 1549.52 2167 1549.52 Q2164.83 1549.52 2162.56 1549.15 Q2160.31 1548.78 2157.91 1548.04 L2157.91 1543.34 Q2159.99 1544.47 2162.21 1545.03 Q2164.43 1545.58 2166.91 1545.58 Q2170.92 1545.58 2173.25 1543.48 Q2175.59 1541.37 2175.59 1537.76 Q2175.59 1534.15 2173.25 1532.04 Q2170.92 1529.94 2166.91 1529.94 Q2165.04 1529.94 2163.16 1530.35 Q2161.31 1530.77 2159.36 1531.65 L2159.36 1514.29 Z" fill="#000000" fill-rule="evenodd" fill-opacity="1" /><path clip-path="url(#clip270)" d="M2199.48 1517.37 Q2195.87 1517.37 2194.04 1520.93 Q2192.24 1524.47 2192.24 1531.6 Q2192.24 1538.71 2194.04 1542.27 Q2195.87 1545.82 2199.48 1545.82 Q2203.11 1545.82 2204.92 1542.27 Q2206.75 1538.71 2206.75 1531.6 Q2206.75 1524.47 2204.92 1520.93 Q2203.11 1517.37 2199.48 1517.37 M2199.48 1513.66 Q2205.29 1513.66 2208.35 1518.27 Q2211.42 1522.85 2211.42 1531.6 Q2211.42 1540.33 2208.35 1544.94 Q2205.29 1549.52 2199.48 1549.52 Q2193.67 1549.52 2190.59 1544.94 Q2187.54 1540.33 2187.54 1531.6 Q2187.54 1522.85 2190.59 1518.27 Q2193.67 1513.66 2199.48 1513.66 Z" fill="#000000" fill-rule="evenodd" fill-opacity="1" /><polyline clip-path="url(#clip272)" style="stroke:#000000; stroke-linecap:butt; stroke-linejoin:round; stroke-width:2; stroke-opacity:0.1; fill:none" points="
  239.19,1259.54 2352.76,1259.54 
  "/>
<polyline clip-path="url(#clip272)" style="stroke:#000000; stroke-linecap:butt; stroke-linejoin:round; stroke-width:2; stroke-opacity:0.1; fill:none" points="
  239.19,1013.19 2352.76,1013.19 
  "/>
<polyline clip-path="url(#clip272)" style="stroke:#000000; stroke-linecap:butt; stroke-linejoin:round; stroke-width:2; stroke-opacity:0.1; fill:none" points="
  239.19,766.846 2352.76,766.846 
  "/>
<polyline clip-path="url(#clip272)" style="stroke:#000000; stroke-linecap:butt; stroke-linejoin:round; stroke-width:2; stroke-opacity:0.1; fill:none" points="
  239.19,520.498 2352.76,520.498 
  "/>
<polyline clip-path="url(#clip272)" style="stroke:#000000; stroke-linecap:butt; stroke-linejoin:round; stroke-width:2; stroke-opacity:0.1; fill:none" points="
  239.19,274.15 2352.76,274.15 
  "/>
<polyline clip-path="url(#clip270)" style="stroke:#000000; stroke-linecap:butt; stroke-linejoin:round; stroke-width:4; stroke-opacity:1; fill:none" points="
  239.19,1486.45 239.19,47.2441 
  "/>
<polyline clip-path="url(#clip270)" style="stroke:#000000; stroke-linecap:butt; stroke-linejoin:round; stroke-width:4; stroke-opacity:1; fill:none" points="
  239.19,1259.54 258.088,1259.54 
  "/>
<polyline clip-path="url(#clip270)" style="stroke:#000000; stroke-linecap:butt; stroke-linejoin:round; stroke-width:4; stroke-opacity:1; fill:none" points="
  239.19,1013.19 258.088,1013.19 
  "/>
<polyline clip-path="url(#clip270)" style="stroke:#000000; stroke-linecap:butt; stroke-linejoin:round; stroke-width:4; stroke-opacity:1; fill:none" points="
  239.19,766.846 258.088,766.846 
  "/>
<polyline clip-path="url(#clip270)" style="stroke:#000000; stroke-linecap:butt; stroke-linejoin:round; stroke-width:4; stroke-opacity:1; fill:none" points="
  239.19,520.498 258.088,520.498 
  "/>
<polyline clip-path="url(#clip270)" style="stroke:#000000; stroke-linecap:butt; stroke-linejoin:round; stroke-width:4; stroke-opacity:1; fill:none" points="
  239.19,274.15 258.088,274.15 
  "/>
<path clip-path="url(#clip270)" d="M50.9921 1259.99 L80.6679 1259.99 L80.6679 1263.93 L50.9921 1263.93 L50.9921 1259.99 Z" fill="#000000" fill-rule="evenodd" fill-opacity="1" /><path clip-path="url(#clip270)" d="M94.7882 1272.89 L111.108 1272.89 L111.108 1276.82 L89.1632 1276.82 L89.1632 1272.89 Q91.8252 1270.13 96.4085 1265.5 Q101.015 1260.85 102.196 1259.51 Q104.441 1256.98 105.321 1255.25 Q106.223 1253.49 106.223 1251.8 Q106.223 1249.04 104.279 1247.31 Q102.358 1245.57 99.2558 1245.57 Q97.0567 1245.57 94.603 1246.34 Q92.1725 1247.1 89.3947 1248.65 L89.3947 1243.93 Q92.2188 1242.79 94.6724 1242.22 Q97.1261 1241.64 99.1632 1241.64 Q104.534 1241.64 107.728 1244.32 Q110.922 1247.01 110.922 1251.5 Q110.922 1253.63 110.112 1255.55 Q109.325 1257.45 107.219 1260.04 Q106.64 1260.71 103.538 1263.93 Q100.436 1267.12 94.7882 1272.89 Z" fill="#000000" fill-rule="evenodd" fill-opacity="1" /><path clip-path="url(#clip270)" d="M130.922 1245.34 Q127.311 1245.34 125.482 1248.91 Q123.677 1252.45 123.677 1259.58 Q123.677 1266.68 125.482 1270.25 Q127.311 1273.79 130.922 1273.79 Q134.556 1273.79 136.362 1270.25 Q138.191 1266.68 138.191 1259.58 Q138.191 1252.45 136.362 1248.91 Q134.556 1245.34 130.922 1245.34 M130.922 1241.64 Q136.732 1241.64 139.788 1246.24 Q142.867 1250.83 142.867 1259.58 Q142.867 1268.3 139.788 1272.91 Q136.732 1277.49 130.922 1277.49 Q125.112 1277.49 122.033 1272.91 Q118.978 1268.3 118.978 1259.58 Q118.978 1250.83 122.033 1246.24 Q125.112 1241.64 130.922 1241.64 Z" fill="#000000" fill-rule="evenodd" fill-opacity="1" /><path clip-path="url(#clip270)" d="M161.084 1245.34 Q157.473 1245.34 155.644 1248.91 Q153.839 1252.45 153.839 1259.58 Q153.839 1266.68 155.644 1270.25 Q157.473 1273.79 161.084 1273.79 Q164.718 1273.79 166.524 1270.25 Q168.353 1266.68 168.353 1259.58 Q168.353 1252.45 166.524 1248.91 Q164.718 1245.34 161.084 1245.34 M161.084 1241.64 Q166.894 1241.64 169.95 1246.24 Q173.029 1250.83 173.029 1259.58 Q173.029 1268.3 169.95 1272.91 Q166.894 1277.49 161.084 1277.49 Q155.274 1277.49 152.195 1272.91 Q149.14 1268.3 149.14 1259.58 Q149.14 1250.83 152.195 1246.24 Q155.274 1241.64 161.084 1241.64 Z" fill="#000000" fill-rule="evenodd" fill-opacity="1" /><path clip-path="url(#clip270)" d="M191.246 1245.34 Q187.635 1245.34 185.806 1248.91 Q184.001 1252.45 184.001 1259.58 Q184.001 1266.68 185.806 1270.25 Q187.635 1273.79 191.246 1273.79 Q194.88 1273.79 196.686 1270.25 Q198.514 1266.68 198.514 1259.58 Q198.514 1252.45 196.686 1248.91 Q194.88 1245.34 191.246 1245.34 M191.246 1241.64 Q197.056 1241.64 200.112 1246.24 Q203.19 1250.83 203.19 1259.58 Q203.19 1268.3 200.112 1272.91 Q197.056 1277.49 191.246 1277.49 Q185.436 1277.49 182.357 1272.91 Q179.302 1268.3 179.302 1259.58 Q179.302 1250.83 182.357 1246.24 Q185.436 1241.64 191.246 1241.64 Z" fill="#000000" fill-rule="evenodd" fill-opacity="1" /><path clip-path="url(#clip270)" d="M50.9921 1013.65 L80.6679 1013.65 L80.6679 1017.58 L50.9921 1017.58 L50.9921 1013.65 Z" fill="#000000" fill-rule="evenodd" fill-opacity="1" /><path clip-path="url(#clip270)" d="M91.5706 1026.54 L99.2095 1026.54 L99.2095 1000.17 L90.8993 1001.84 L90.8993 997.581 L99.1632 995.914 L103.839 995.914 L103.839 1026.54 L111.478 1026.54 L111.478 1030.47 L91.5706 1030.47 L91.5706 1026.54 Z" fill="#000000" fill-rule="evenodd" fill-opacity="1" /><path clip-path="url(#clip270)" d="M130.922 998.993 Q127.311 998.993 125.482 1002.56 Q123.677 1006.1 123.677 1013.23 Q123.677 1020.34 125.482 1023.9 Q127.311 1027.44 130.922 1027.44 Q134.556 1027.44 136.362 1023.9 Q138.191 1020.34 138.191 1013.23 Q138.191 1006.1 136.362 1002.56 Q134.556 998.993 130.922 998.993 M130.922 995.289 Q136.732 995.289 139.788 999.896 Q142.867 1004.48 142.867 1013.23 Q142.867 1021.96 139.788 1026.56 Q136.732 1031.15 130.922 1031.15 Q125.112 1031.15 122.033 1026.56 Q118.978 1021.96 118.978 1013.23 Q118.978 1004.48 122.033 999.896 Q125.112 995.289 130.922 995.289 Z" fill="#000000" fill-rule="evenodd" fill-opacity="1" /><path clip-path="url(#clip270)" d="M161.084 998.993 Q157.473 998.993 155.644 1002.56 Q153.839 1006.1 153.839 1013.23 Q153.839 1020.34 155.644 1023.9 Q157.473 1027.44 161.084 1027.44 Q164.718 1027.44 166.524 1023.9 Q168.353 1020.34 168.353 1013.23 Q168.353 1006.1 166.524 1002.56 Q164.718 998.993 161.084 998.993 M161.084 995.289 Q166.894 995.289 169.95 999.896 Q173.029 1004.48 173.029 1013.23 Q173.029 1021.96 169.95 1026.56 Q166.894 1031.15 161.084 1031.15 Q155.274 1031.15 152.195 1026.56 Q149.14 1021.96 149.14 1013.23 Q149.14 1004.48 152.195 999.896 Q155.274 995.289 161.084 995.289 Z" fill="#000000" fill-rule="evenodd" fill-opacity="1" /><path clip-path="url(#clip270)" d="M191.246 998.993 Q187.635 998.993 185.806 1002.56 Q184.001 1006.1 184.001 1013.23 Q184.001 1020.34 185.806 1023.9 Q187.635 1027.44 191.246 1027.44 Q194.88 1027.44 196.686 1023.9 Q198.514 1020.34 198.514 1013.23 Q198.514 1006.1 196.686 1002.56 Q194.88 998.993 191.246 998.993 M191.246 995.289 Q197.056 995.289 200.112 999.896 Q203.19 1004.48 203.19 1013.23 Q203.19 1021.96 200.112 1026.56 Q197.056 1031.15 191.246 1031.15 Q185.436 1031.15 182.357 1026.56 Q179.302 1021.96 179.302 1013.23 Q179.302 1004.48 182.357 999.896 Q185.436 995.289 191.246 995.289 Z" fill="#000000" fill-rule="evenodd" fill-opacity="1" /><path clip-path="url(#clip270)" d="M191.246 752.645 Q187.635 752.645 185.806 756.209 Q184.001 759.751 184.001 766.881 Q184.001 773.987 185.806 777.552 Q187.635 781.094 191.246 781.094 Q194.88 781.094 196.686 777.552 Q198.514 773.987 198.514 766.881 Q198.514 759.751 196.686 756.209 Q194.88 752.645 191.246 752.645 M191.246 748.941 Q197.056 748.941 200.112 753.547 Q203.19 758.131 203.19 766.881 Q203.19 775.608 200.112 780.214 Q197.056 784.797 191.246 784.797 Q185.436 784.797 182.357 780.214 Q179.302 775.608 179.302 766.881 Q179.302 758.131 182.357 753.547 Q185.436 748.941 191.246 748.941 Z" fill="#000000" fill-rule="evenodd" fill-opacity="1" /><path clip-path="url(#clip270)" d="M91.5706 533.843 L99.2095 533.843 L99.2095 507.477 L90.8993 509.144 L90.8993 504.884 L99.1632 503.218 L103.839 503.218 L103.839 533.843 L111.478 533.843 L111.478 537.778 L91.5706 537.778 L91.5706 533.843 Z" fill="#000000" fill-rule="evenodd" fill-opacity="1" /><path clip-path="url(#clip270)" d="M130.922 506.296 Q127.311 506.296 125.482 509.861 Q123.677 513.403 123.677 520.532 Q123.677 527.639 125.482 531.204 Q127.311 534.745 130.922 534.745 Q134.556 534.745 136.362 531.204 Q138.191 527.639 138.191 520.532 Q138.191 513.403 136.362 509.861 Q134.556 506.296 130.922 506.296 M130.922 502.593 Q136.732 502.593 139.788 507.199 Q142.867 511.783 142.867 520.532 Q142.867 529.259 139.788 533.866 Q136.732 538.449 130.922 538.449 Q125.112 538.449 122.033 533.866 Q118.978 529.259 118.978 520.532 Q118.978 511.783 122.033 507.199 Q125.112 502.593 130.922 502.593 Z" fill="#000000" fill-rule="evenodd" fill-opacity="1" /><path clip-path="url(#clip270)" d="M161.084 506.296 Q157.473 506.296 155.644 509.861 Q153.839 513.403 153.839 520.532 Q153.839 527.639 155.644 531.204 Q157.473 534.745 161.084 534.745 Q164.718 534.745 166.524 531.204 Q168.353 527.639 168.353 520.532 Q168.353 513.403 166.524 509.861 Q164.718 506.296 161.084 506.296 M161.084 502.593 Q166.894 502.593 169.95 507.199 Q173.029 511.783 173.029 520.532 Q173.029 529.259 169.95 533.866 Q166.894 538.449 161.084 538.449 Q155.274 538.449 152.195 533.866 Q149.14 529.259 149.14 520.532 Q149.14 511.783 152.195 507.199 Q155.274 502.593 161.084 502.593 Z" fill="#000000" fill-rule="evenodd" fill-opacity="1" /><path clip-path="url(#clip270)" d="M191.246 506.296 Q187.635 506.296 185.806 509.861 Q184.001 513.403 184.001 520.532 Q184.001 527.639 185.806 531.204 Q187.635 534.745 191.246 534.745 Q194.88 534.745 196.686 531.204 Q198.514 527.639 198.514 520.532 Q198.514 513.403 196.686 509.861 Q194.88 506.296 191.246 506.296 M191.246 502.593 Q197.056 502.593 200.112 507.199 Q203.19 511.783 203.19 520.532 Q203.19 529.259 200.112 533.866 Q197.056 538.449 191.246 538.449 Q185.436 538.449 182.357 533.866 Q179.302 529.259 179.302 520.532 Q179.302 511.783 182.357 507.199 Q185.436 502.593 191.246 502.593 Z" fill="#000000" fill-rule="evenodd" fill-opacity="1" /><path clip-path="url(#clip270)" d="M94.7882 287.494 L111.108 287.494 L111.108 291.43 L89.1632 291.43 L89.1632 287.494 Q91.8252 284.74 96.4085 280.11 Q101.015 275.457 102.196 274.115 Q104.441 271.592 105.321 269.856 Q106.223 268.096 106.223 266.406 Q106.223 263.652 104.279 261.916 Q102.358 260.18 99.2558 260.18 Q97.0567 260.18 94.603 260.944 Q92.1725 261.707 89.3947 263.258 L89.3947 258.536 Q92.2188 257.402 94.6724 256.823 Q97.1261 256.245 99.1632 256.245 Q104.534 256.245 107.728 258.93 Q110.922 261.615 110.922 266.106 Q110.922 268.235 110.112 270.156 Q109.325 272.055 107.219 274.647 Q106.64 275.318 103.538 278.536 Q100.436 281.73 94.7882 287.494 Z" fill="#000000" fill-rule="evenodd" fill-opacity="1" /><path clip-path="url(#clip270)" d="M130.922 259.948 Q127.311 259.948 125.482 263.513 Q123.677 267.055 123.677 274.184 Q123.677 281.291 125.482 284.855 Q127.311 288.397 130.922 288.397 Q134.556 288.397 136.362 284.855 Q138.191 281.291 138.191 274.184 Q138.191 267.055 136.362 263.513 Q134.556 259.948 130.922 259.948 M130.922 256.245 Q136.732 256.245 139.788 260.851 Q142.867 265.434 142.867 274.184 Q142.867 282.911 139.788 287.517 Q136.732 292.101 130.922 292.101 Q125.112 292.101 122.033 287.517 Q118.978 282.911 118.978 274.184 Q118.978 265.434 122.033 260.851 Q125.112 256.245 130.922 256.245 Z" fill="#000000" fill-rule="evenodd" fill-opacity="1" /><path clip-path="url(#clip270)" d="M161.084 259.948 Q157.473 259.948 155.644 263.513 Q153.839 267.055 153.839 274.184 Q153.839 281.291 155.644 284.855 Q157.473 288.397 161.084 288.397 Q164.718 288.397 166.524 284.855 Q168.353 281.291 168.353 274.184 Q168.353 267.055 166.524 263.513 Q164.718 259.948 161.084 259.948 M161.084 256.245 Q166.894 256.245 169.95 260.851 Q173.029 265.434 173.029 274.184 Q173.029 282.911 169.95 287.517 Q166.894 292.101 161.084 292.101 Q155.274 292.101 152.195 287.517 Q149.14 282.911 149.14 274.184 Q149.14 265.434 152.195 260.851 Q155.274 256.245 161.084 256.245 Z" fill="#000000" fill-rule="evenodd" fill-opacity="1" /><path clip-path="url(#clip270)" d="M191.246 259.948 Q187.635 259.948 185.806 263.513 Q184.001 267.055 184.001 274.184 Q184.001 281.291 185.806 284.855 Q187.635 288.397 191.246 288.397 Q194.88 288.397 196.686 284.855 Q198.514 281.291 198.514 274.184 Q198.514 267.055 196.686 263.513 Q194.88 259.948 191.246 259.948 M191.246 256.245 Q197.056 256.245 200.112 260.851 Q203.19 265.434 203.19 274.184 Q203.19 282.911 200.112 287.517 Q197.056 292.101 191.246 292.101 Q185.436 292.101 182.357 287.517 Q179.302 282.911 179.302 274.184 Q179.302 265.434 182.357 260.851 Q185.436 256.245 191.246 256.245 Z" fill="#000000" fill-rule="evenodd" fill-opacity="1" /><path clip-path="url(#clip272)" d="
M355.44 766.6 L355.44 766.846 L385.063 766.846 L385.063 766.6 L355.44 766.6 L355.44 766.6  Z
  " fill="#009af9" fill-rule="evenodd" fill-opacity="1"/>
<polyline clip-path="url(#clip272)" style="stroke:#000000; stroke-linecap:butt; stroke-linejoin:round; stroke-width:16; stroke-opacity:1; fill:none" points="
  355.44,766.6 355.44,766.846 385.063,766.846 385.063,766.6 355.44,766.6 
  "/>
<path clip-path="url(#clip272)" d="
M392.469 769.309 L392.469 766.846 L422.092 766.846 L422.092 769.309 L392.469 769.309 L392.469 769.309  Z
  " fill="#009af9" fill-rule="evenodd" fill-opacity="1"/>
<polyline clip-path="url(#clip272)" style="stroke:#000000; stroke-linecap:butt; stroke-linejoin:round; stroke-width:16; stroke-opacity:1; fill:none" points="
  392.469,769.309 392.469,766.846 422.092,766.846 422.092,769.309 392.469,769.309 
  "/>
<path clip-path="url(#clip272)" d="
M429.498 754.529 L429.498 766.846 L459.121 766.846 L459.121 754.529 L429.498 754.529 L429.498 754.529  Z
  " fill="#009af9" fill-rule="evenodd" fill-opacity="1"/>
<polyline clip-path="url(#clip272)" style="stroke:#000000; stroke-linecap:butt; stroke-linejoin:round; stroke-width:16; stroke-opacity:1; fill:none" points="
  429.498,754.529 429.498,766.846 459.121,766.846 459.121,754.529 429.498,754.529 
  "/>
<path clip-path="url(#clip272)" d="
M466.527 807.904 L466.527 766.846 L496.15 766.846 L496.15 807.904 L466.527 807.904 L466.527 807.904  Z
  " fill="#009af9" fill-rule="evenodd" fill-opacity="1"/>
<polyline clip-path="url(#clip272)" style="stroke:#000000; stroke-linecap:butt; stroke-linejoin:round; stroke-width:16; stroke-opacity:1; fill:none" points="
  466.527,807.904 466.527,766.846 496.15,766.846 496.15,807.904 466.527,807.904 
  "/>
<path clip-path="url(#clip272)" d="
M503.556 664.201 L503.556 766.846 L533.179 766.846 L533.179 664.201 L503.556 664.201 L503.556 664.201  Z
  " fill="#009af9" fill-rule="evenodd" fill-opacity="1"/>
<polyline clip-path="url(#clip272)" style="stroke:#000000; stroke-linecap:butt; stroke-linejoin:round; stroke-width:16; stroke-opacity:1; fill:none" points="
  503.556,664.201 503.556,766.846 533.179,766.846 533.179,664.201 503.556,664.201 
  "/>
<path clip-path="url(#clip272)" d="
M540.585 972.136 L540.585 766.846 L570.208 766.846 L570.208 972.136 L540.585 972.136 L540.585 972.136  Z
  " fill="#009af9" fill-rule="evenodd" fill-opacity="1"/>
<polyline clip-path="url(#clip272)" style="stroke:#000000; stroke-linecap:butt; stroke-linejoin:round; stroke-width:16; stroke-opacity:1; fill:none" points="
  540.585,972.136 540.585,766.846 570.208,766.846 570.208,972.136 540.585,972.136 
  "/>
<path clip-path="url(#clip272)" d="
M577.613 424.696 L577.613 766.846 L607.236 766.846 L607.236 424.696 L577.613 424.696 L577.613 424.696  Z
  " fill="#009af9" fill-rule="evenodd" fill-opacity="1"/>
<polyline clip-path="url(#clip272)" style="stroke:#000000; stroke-linecap:butt; stroke-linejoin:round; stroke-width:16; stroke-opacity:1; fill:none" points="
  577.613,424.696 577.613,766.846 607.236,766.846 607.236,424.696 577.613,424.696 
  "/>
<path clip-path="url(#clip272)" d="
M614.642 1255.63 L614.642 766.846 L644.265 766.846 L644.265 1255.63 L614.642 1255.63 L614.642 1255.63  Z
  " fill="#009af9" fill-rule="evenodd" fill-opacity="1"/>
<polyline clip-path="url(#clip272)" style="stroke:#000000; stroke-linecap:butt; stroke-linejoin:round; stroke-width:16; stroke-opacity:1; fill:none" points="
  614.642,1255.63 614.642,766.846 644.265,766.846 644.265,1255.63 614.642,1255.63 
  "/>
<path clip-path="url(#clip272)" d="
M651.671 155.863 L651.671 766.846 L681.294 766.846 L681.294 155.863 L651.671 155.863 L651.671 155.863  Z
  " fill="#009af9" fill-rule="evenodd" fill-opacity="1"/>
<polyline clip-path="url(#clip272)" style="stroke:#000000; stroke-linecap:butt; stroke-linejoin:round; stroke-width:16; stroke-opacity:1; fill:none" points="
  651.671,155.863 651.671,766.846 681.294,766.846 681.294,155.863 651.671,155.863 
  "/>
<path clip-path="url(#clip272)" d="
M688.7 1445.72 L688.7 766.846 L718.323 766.846 L718.323 1445.72 L688.7 1445.72 L688.7 1445.72  Z
  " fill="#009af9" fill-rule="evenodd" fill-opacity="1"/>
<polyline clip-path="url(#clip272)" style="stroke:#000000; stroke-linecap:butt; stroke-linejoin:round; stroke-width:16; stroke-opacity:1; fill:none" points="
  688.7,1445.72 688.7,766.846 718.323,766.846 718.323,1445.72 688.7,1445.72 
  "/>
<path clip-path="url(#clip272)" d="
M725.729 87.9763 L725.729 766.846 L755.352 766.846 L755.352 87.9763 L725.729 87.9763 L725.729 87.9763  Z
  " fill="#009af9" fill-rule="evenodd" fill-opacity="1"/>
<polyline clip-path="url(#clip272)" style="stroke:#000000; stroke-linecap:butt; stroke-linejoin:round; stroke-width:16; stroke-opacity:1; fill:none" points="
  725.729,87.9763 725.729,766.846 755.352,766.846 755.352,87.9763 725.729,87.9763 
  "/>
<path clip-path="url(#clip272)" d="
M762.758 1384 L762.758 766.846 L792.381 766.846 L792.381 1384 L762.758 1384 L762.758 1384  Z
  " fill="#009af9" fill-rule="evenodd" fill-opacity="1"/>
<polyline clip-path="url(#clip272)" style="stroke:#000000; stroke-linecap:butt; stroke-linejoin:round; stroke-width:16; stroke-opacity:1; fill:none" points="
  762.758,1384 762.758,766.846 792.381,766.846 792.381,1384 762.758,1384 
  "/>
<path clip-path="url(#clip272)" d="
M799.786 252.551 L799.786 766.846 L829.41 766.846 L829.41 252.551 L799.786 252.551 L799.786 252.551  Z
  " fill="#009af9" fill-rule="evenodd" fill-opacity="1"/>
<polyline clip-path="url(#clip272)" style="stroke:#000000; stroke-linecap:butt; stroke-linejoin:round; stroke-width:16; stroke-opacity:1; fill:none" points="
  799.786,252.551 799.786,766.846 829.41,766.846 829.41,252.551 799.786,252.551 
  "/>
<path clip-path="url(#clip272)" d="
M836.815 1162.46 L836.815 766.846 L866.438 766.846 L866.438 1162.46 L836.815 1162.46 L836.815 1162.46  Z
  " fill="#009af9" fill-rule="evenodd" fill-opacity="1"/>
<polyline clip-path="url(#clip272)" style="stroke:#000000; stroke-linecap:butt; stroke-linejoin:round; stroke-width:16; stroke-opacity:1; fill:none" points="
  836.815,1162.46 836.815,766.846 866.438,766.846 866.438,1162.46 836.815,1162.46 
  "/>
<path clip-path="url(#clip272)" d="
M873.844 484.266 L873.844 766.846 L903.467 766.846 L903.467 484.266 L873.844 484.266 L873.844 484.266  Z
  " fill="#009af9" fill-rule="evenodd" fill-opacity="1"/>
<polyline clip-path="url(#clip272)" style="stroke:#000000; stroke-linecap:butt; stroke-linejoin:round; stroke-width:16; stroke-opacity:1; fill:none" points="
  873.844,484.266 873.844,766.846 903.467,766.846 903.467,484.266 873.844,484.266 
  "/>
<path clip-path="url(#clip272)" d="
M910.873 955.233 L910.873 766.846 L940.496 766.846 L940.496 955.233 L910.873 955.233 L910.873 955.233  Z
  " fill="#009af9" fill-rule="evenodd" fill-opacity="1"/>
<polyline clip-path="url(#clip272)" style="stroke:#000000; stroke-linecap:butt; stroke-linejoin:round; stroke-width:16; stroke-opacity:1; fill:none" points="
  910.873,955.233 910.873,766.846 940.496,766.846 940.496,955.233 910.873,955.233 
  "/>
<path clip-path="url(#clip272)" d="
M947.902 649.104 L947.902 766.846 L977.525 766.846 L977.525 649.104 L947.902 649.104 L947.902 649.104  Z
  " fill="#009af9" fill-rule="evenodd" fill-opacity="1"/>
<polyline clip-path="url(#clip272)" style="stroke:#000000; stroke-linecap:butt; stroke-linejoin:round; stroke-width:16; stroke-opacity:1; fill:none" points="
  947.902,649.104 947.902,766.846 977.525,766.846 977.525,649.104 947.902,649.104 
  "/>
<path clip-path="url(#clip272)" d="
M984.931 836.106 L984.931 766.846 L1014.55 766.846 L1014.55 836.106 L984.931 836.106 L984.931 836.106  Z
  " fill="#009af9" fill-rule="evenodd" fill-opacity="1"/>
<polyline clip-path="url(#clip272)" style="stroke:#000000; stroke-linecap:butt; stroke-linejoin:round; stroke-width:16; stroke-opacity:1; fill:none" points="
  984.931,836.106 984.931,766.846 1014.55,766.846 1014.55,836.106 984.931,836.106 
  "/>
<path clip-path="url(#clip272)" d="
M1021.96 728.368 L1021.96 766.846 L1051.58 766.846 L1051.58 728.368 L1021.96 728.368 L1021.96 728.368  Z
  " fill="#009af9" fill-rule="evenodd" fill-opacity="1"/>
<polyline clip-path="url(#clip272)" style="stroke:#000000; stroke-linecap:butt; stroke-linejoin:round; stroke-width:16; stroke-opacity:1; fill:none" points="
  1021.96,728.368 1021.96,766.846 1051.58,766.846 1051.58,728.368 1021.96,728.368 
  "/>
<path clip-path="url(#clip272)" d="
M1058.99 787.097 L1058.99 766.846 L1088.61 766.846 L1088.61 787.097 L1058.99 787.097 L1058.99 787.097  Z
  " fill="#009af9" fill-rule="evenodd" fill-opacity="1"/>
<polyline clip-path="url(#clip272)" style="stroke:#000000; stroke-linecap:butt; stroke-linejoin:round; stroke-width:16; stroke-opacity:1; fill:none" points="
  1058.99,787.097 1058.99,766.846 1088.61,766.846 1088.61,787.097 1058.99,787.097 
  "/>
<path clip-path="url(#clip272)" d="
M1096.02 756.72 L1096.02 766.846 L1125.64 766.846 L1125.64 756.72 L1096.02 756.72 L1096.02 756.72  Z
  " fill="#009af9" fill-rule="evenodd" fill-opacity="1"/>
<polyline clip-path="url(#clip272)" style="stroke:#000000; stroke-linecap:butt; stroke-linejoin:round; stroke-width:16; stroke-opacity:1; fill:none" points="
  1096.02,756.72 1096.02,766.846 1125.64,766.846 1125.64,756.72 1096.02,756.72 
  "/>
<path clip-path="url(#clip272)" d="
M1133.05 771.668 L1133.05 766.846 L1162.67 766.846 L1162.67 771.668 L1133.05 771.668 L1133.05 771.668  Z
  " fill="#009af9" fill-rule="evenodd" fill-opacity="1"/>
<polyline clip-path="url(#clip272)" style="stroke:#000000; stroke-linecap:butt; stroke-linejoin:round; stroke-width:16; stroke-opacity:1; fill:none" points="
  1133.05,771.668 1133.05,766.846 1162.67,766.846 1162.67,771.668 1133.05,771.668 
  "/>
<path clip-path="url(#clip272)" d="
M1170.08 764.654 L1170.08 766.846 L1199.7 766.846 L1199.7 764.654 L1170.08 764.654 L1170.08 764.654  Z
  " fill="#009af9" fill-rule="evenodd" fill-opacity="1"/>
<polyline clip-path="url(#clip272)" style="stroke:#000000; stroke-linecap:butt; stroke-linejoin:round; stroke-width:16; stroke-opacity:1; fill:none" points="
  1170.08,764.654 1170.08,766.846 1199.7,766.846 1199.7,764.654 1170.08,764.654 
  "/>
<path clip-path="url(#clip272)" d="
M1207.1 767.799 L1207.1 766.846 L1236.73 766.846 L1236.73 767.799 L1207.1 767.799 L1207.1 767.799  Z
  " fill="#009af9" fill-rule="evenodd" fill-opacity="1"/>
<polyline clip-path="url(#clip272)" style="stroke:#000000; stroke-linecap:butt; stroke-linejoin:round; stroke-width:16; stroke-opacity:1; fill:none" points="
  1207.1,767.799 1207.1,766.846 1236.73,766.846 1236.73,767.799 1207.1,767.799 
  "/>
<path clip-path="url(#clip272)" d="
M1244.13 766.449 L1244.13 766.846 L1273.76 766.846 L1273.76 766.449 L1244.13 766.449 L1244.13 766.449  Z
  " fill="#009af9" fill-rule="evenodd" fill-opacity="1"/>
<polyline clip-path="url(#clip272)" style="stroke:#000000; stroke-linecap:butt; stroke-linejoin:round; stroke-width:16; stroke-opacity:1; fill:none" points="
  1244.13,766.449 1244.13,766.846 1273.76,766.846 1273.76,766.449 1244.13,766.449 
  "/>
<path clip-path="url(#clip272)" d="
M1281.16 767.005 L1281.16 766.846 L1310.78 766.846 L1310.78 767.005 L1281.16 767.005 L1281.16 767.005  Z
  " fill="#009af9" fill-rule="evenodd" fill-opacity="1"/>
<polyline clip-path="url(#clip272)" style="stroke:#000000; stroke-linecap:butt; stroke-linejoin:round; stroke-width:16; stroke-opacity:1; fill:none" points="
  1281.16,767.005 1281.16,766.846 1310.78,766.846 1310.78,767.005 1281.16,767.005 
  "/>
<path clip-path="url(#clip272)" d="
M1318.19 766.785 L1318.19 766.846 L1347.81 766.846 L1347.81 766.785 L1318.19 766.785 L1318.19 766.785  Z
  " fill="#009af9" fill-rule="evenodd" fill-opacity="1"/>
<polyline clip-path="url(#clip272)" style="stroke:#000000; stroke-linecap:butt; stroke-linejoin:round; stroke-width:16; stroke-opacity:1; fill:none" points="
  1318.19,766.785 1318.19,766.846 1347.81,766.846 1347.81,766.785 1318.19,766.785 
  "/>
<path clip-path="url(#clip272)" d="
M1355.22 766.869 L1355.22 766.846 L1384.84 766.846 L1384.84 766.869 L1355.22 766.869 L1355.22 766.869  Z
  " fill="#009af9" fill-rule="evenodd" fill-opacity="1"/>
<polyline clip-path="url(#clip272)" style="stroke:#000000; stroke-linecap:butt; stroke-linejoin:round; stroke-width:16; stroke-opacity:1; fill:none" points="
  1355.22,766.869 1355.22,766.846 1384.84,766.846 1384.84,766.869 1355.22,766.869 
  "/>
<path clip-path="url(#clip272)" d="
M1392.25 766.838 L1392.25 766.846 L1421.87 766.846 L1421.87 766.838 L1392.25 766.838 L1392.25 766.838  Z
  " fill="#009af9" fill-rule="evenodd" fill-opacity="1"/>
<polyline clip-path="url(#clip272)" style="stroke:#000000; stroke-linecap:butt; stroke-linejoin:round; stroke-width:16; stroke-opacity:1; fill:none" points="
  1392.25,766.838 1392.25,766.846 1421.87,766.846 1421.87,766.838 1392.25,766.838 
  "/>
<path clip-path="url(#clip272)" d="
M1429.28 766.849 L1429.28 766.846 L1458.9 766.846 L1458.9 766.849 L1429.28 766.849 L1429.28 766.849  Z
  " fill="#009af9" fill-rule="evenodd" fill-opacity="1"/>
<polyline clip-path="url(#clip272)" style="stroke:#000000; stroke-linecap:butt; stroke-linejoin:round; stroke-width:16; stroke-opacity:1; fill:none" points="
  1429.28,766.849 1429.28,766.846 1458.9,766.846 1458.9,766.849 1429.28,766.849 
  "/>
<path clip-path="url(#clip272)" d="
M1466.31 766.845 L1466.31 766.846 L1495.93 766.846 L1495.93 766.845 L1466.31 766.845 L1466.31 766.845  Z
  " fill="#009af9" fill-rule="evenodd" fill-opacity="1"/>
<polyline clip-path="url(#clip272)" style="stroke:#000000; stroke-linecap:butt; stroke-linejoin:round; stroke-width:16; stroke-opacity:1; fill:none" points="
  1466.31,766.845 1466.31,766.846 1495.93,766.846 1495.93,766.845 1466.31,766.845 
  "/>
<path clip-path="url(#clip272)" d="
M1503.33 766.846 L1503.33 766.846 L1532.96 766.846 L1532.96 766.846 L1503.33 766.846 L1503.33 766.846  Z
  " fill="#009af9" fill-rule="evenodd" fill-opacity="1"/>
<polyline clip-path="url(#clip272)" style="stroke:#000000; stroke-linecap:butt; stroke-linejoin:round; stroke-width:16; stroke-opacity:1; fill:none" points="
  1503.33,766.846 1503.33,766.846 1532.96,766.846 1532.96,766.846 1503.33,766.846 
  "/>
<path clip-path="url(#clip272)" d="
M1540.36 766.846 L1540.36 766.846 L1569.99 766.846 L1569.99 766.846 L1540.36 766.846 L1540.36 766.846  Z
  " fill="#009af9" fill-rule="evenodd" fill-opacity="1"/>
<polyline clip-path="url(#clip272)" style="stroke:#000000; stroke-linecap:butt; stroke-linejoin:round; stroke-width:16; stroke-opacity:1; fill:none" points="
  1540.36,766.846 1540.36,766.846 1569.99,766.846 1569.99,766.846 1540.36,766.846 
  "/>
<path clip-path="url(#clip272)" d="
M1577.39 766.846 L1577.39 766.846 L1607.02 766.846 L1607.02 766.846 L1577.39 766.846 L1577.39 766.846  Z
  " fill="#009af9" fill-rule="evenodd" fill-opacity="1"/>
<polyline clip-path="url(#clip272)" style="stroke:#000000; stroke-linecap:butt; stroke-linejoin:round; stroke-width:16; stroke-opacity:1; fill:none" points="
  1577.39,766.846 1577.39,766.846 1607.02,766.846 1607.02,766.846 1577.39,766.846 
  "/>
<path clip-path="url(#clip272)" d="
M1614.42 766.846 L1614.42 766.846 L1644.04 766.846 L1644.04 766.846 L1614.42 766.846 L1614.42 766.846  Z
  " fill="#009af9" fill-rule="evenodd" fill-opacity="1"/>
<polyline clip-path="url(#clip272)" style="stroke:#000000; stroke-linecap:butt; stroke-linejoin:round; stroke-width:16; stroke-opacity:1; fill:none" points="
  1614.42,766.846 1614.42,766.846 1644.04,766.846 1644.04,766.846 1614.42,766.846 
  "/>
<path clip-path="url(#clip272)" d="
M1651.45 766.846 L1651.45 766.846 L1681.07 766.846 L1681.07 766.846 L1651.45 766.846 L1651.45 766.846  Z
  " fill="#009af9" fill-rule="evenodd" fill-opacity="1"/>
<polyline clip-path="url(#clip272)" style="stroke:#000000; stroke-linecap:butt; stroke-linejoin:round; stroke-width:16; stroke-opacity:1; fill:none" points="
  1651.45,766.846 1651.45,766.846 1681.07,766.846 1681.07,766.846 1651.45,766.846 
  "/>
<path clip-path="url(#clip272)" d="
M1688.48 766.846 L1688.48 766.846 L1718.1 766.846 L1718.1 766.846 L1688.48 766.846 L1688.48 766.846  Z
  " fill="#009af9" fill-rule="evenodd" fill-opacity="1"/>
<polyline clip-path="url(#clip272)" style="stroke:#000000; stroke-linecap:butt; stroke-linejoin:round; stroke-width:16; stroke-opacity:1; fill:none" points="
  1688.48,766.846 1688.48,766.846 1718.1,766.846 1718.1,766.846 1688.48,766.846 
  "/>
<path clip-path="url(#clip272)" d="
M1725.51 766.846 L1725.51 766.846 L1755.13 766.846 L1755.13 766.846 L1725.51 766.846 L1725.51 766.846  Z
  " fill="#009af9" fill-rule="evenodd" fill-opacity="1"/>
<polyline clip-path="url(#clip272)" style="stroke:#000000; stroke-linecap:butt; stroke-linejoin:round; stroke-width:16; stroke-opacity:1; fill:none" points="
  1725.51,766.846 1725.51,766.846 1755.13,766.846 1755.13,766.846 1725.51,766.846 
  "/>
<path clip-path="url(#clip272)" d="
M1762.54 766.846 L1762.54 766.846 L1792.16 766.846 L1792.16 766.846 L1762.54 766.846 L1762.54 766.846  Z
  " fill="#009af9" fill-rule="evenodd" fill-opacity="1"/>
<polyline clip-path="url(#clip272)" style="stroke:#000000; stroke-linecap:butt; stroke-linejoin:round; stroke-width:16; stroke-opacity:1; fill:none" points="
  1762.54,766.846 1762.54,766.846 1792.16,766.846 1792.16,766.846 1762.54,766.846 
  "/>
<path clip-path="url(#clip272)" d="
M1799.57 766.846 L1799.57 766.846 L1829.19 766.846 L1829.19 766.846 L1799.57 766.846 L1799.57 766.846  Z
  " fill="#009af9" fill-rule="evenodd" fill-opacity="1"/>
<polyline clip-path="url(#clip272)" style="stroke:#000000; stroke-linecap:butt; stroke-linejoin:round; stroke-width:16; stroke-opacity:1; fill:none" points="
  1799.57,766.846 1799.57,766.846 1829.19,766.846 1829.19,766.846 1799.57,766.846 
  "/>
<path clip-path="url(#clip272)" d="
M1836.59 766.846 L1836.59 766.846 L1866.22 766.846 L1866.22 766.846 L1836.59 766.846 L1836.59 766.846  Z
  " fill="#009af9" fill-rule="evenodd" fill-opacity="1"/>
<polyline clip-path="url(#clip272)" style="stroke:#000000; stroke-linecap:butt; stroke-linejoin:round; stroke-width:16; stroke-opacity:1; fill:none" points="
  1836.59,766.846 1836.59,766.846 1866.22,766.846 1866.22,766.846 1836.59,766.846 
  "/>
<path clip-path="url(#clip272)" d="
M1873.62 766.846 L1873.62 766.846 L1903.25 766.846 L1903.25 766.846 L1873.62 766.846 L1873.62 766.846  Z
  " fill="#009af9" fill-rule="evenodd" fill-opacity="1"/>
<polyline clip-path="url(#clip272)" style="stroke:#000000; stroke-linecap:butt; stroke-linejoin:round; stroke-width:16; stroke-opacity:1; fill:none" points="
  1873.62,766.846 1873.62,766.846 1903.25,766.846 1903.25,766.846 1873.62,766.846 
  "/>
<path clip-path="url(#clip272)" d="
M1910.65 766.846 L1910.65 766.846 L1940.28 766.846 L1940.28 766.846 L1910.65 766.846 L1910.65 766.846  Z
  " fill="#009af9" fill-rule="evenodd" fill-opacity="1"/>
<polyline clip-path="url(#clip272)" style="stroke:#000000; stroke-linecap:butt; stroke-linejoin:round; stroke-width:16; stroke-opacity:1; fill:none" points="
  1910.65,766.846 1910.65,766.846 1940.28,766.846 1940.28,766.846 1910.65,766.846 
  "/>
<path clip-path="url(#clip272)" d="
M1947.68 766.846 L1947.68 766.846 L1977.3 766.846 L1977.3 766.846 L1947.68 766.846 L1947.68 766.846  Z
  " fill="#009af9" fill-rule="evenodd" fill-opacity="1"/>
<polyline clip-path="url(#clip272)" style="stroke:#000000; stroke-linecap:butt; stroke-linejoin:round; stroke-width:16; stroke-opacity:1; fill:none" points="
  1947.68,766.846 1947.68,766.846 1977.3,766.846 1977.3,766.846 1947.68,766.846 
  "/>
<path clip-path="url(#clip272)" d="
M1984.71 766.846 L1984.71 766.846 L2014.33 766.846 L2014.33 766.846 L1984.71 766.846 L1984.71 766.846  Z
  " fill="#009af9" fill-rule="evenodd" fill-opacity="1"/>
<polyline clip-path="url(#clip272)" style="stroke:#000000; stroke-linecap:butt; stroke-linejoin:round; stroke-width:16; stroke-opacity:1; fill:none" points="
  1984.71,766.846 1984.71,766.846 2014.33,766.846 2014.33,766.846 1984.71,766.846 
  "/>
<path clip-path="url(#clip272)" d="
M2021.74 766.846 L2021.74 766.846 L2051.36 766.846 L2051.36 766.846 L2021.74 766.846 L2021.74 766.846  Z
  " fill="#009af9" fill-rule="evenodd" fill-opacity="1"/>
<polyline clip-path="url(#clip272)" style="stroke:#000000; stroke-linecap:butt; stroke-linejoin:round; stroke-width:16; stroke-opacity:1; fill:none" points="
  2021.74,766.846 2021.74,766.846 2051.36,766.846 2051.36,766.846 2021.74,766.846 
  "/>
<path clip-path="url(#clip272)" d="
M2058.77 766.846 L2058.77 766.846 L2088.39 766.846 L2088.39 766.846 L2058.77 766.846 L2058.77 766.846  Z
  " fill="#009af9" fill-rule="evenodd" fill-opacity="1"/>
<polyline clip-path="url(#clip272)" style="stroke:#000000; stroke-linecap:butt; stroke-linejoin:round; stroke-width:16; stroke-opacity:1; fill:none" points="
  2058.77,766.846 2058.77,766.846 2088.39,766.846 2088.39,766.846 2058.77,766.846 
  "/>
<path clip-path="url(#clip272)" d="
M2095.8 766.846 L2095.8 766.846 L2125.42 766.846 L2125.42 766.846 L2095.8 766.846 L2095.8 766.846  Z
  " fill="#009af9" fill-rule="evenodd" fill-opacity="1"/>
<polyline clip-path="url(#clip272)" style="stroke:#000000; stroke-linecap:butt; stroke-linejoin:round; stroke-width:16; stroke-opacity:1; fill:none" points="
  2095.8,766.846 2095.8,766.846 2125.42,766.846 2125.42,766.846 2095.8,766.846 
  "/>
<path clip-path="url(#clip272)" d="
M2132.83 766.846 L2132.83 766.846 L2162.45 766.846 L2162.45 766.846 L2132.83 766.846 L2132.83 766.846  Z
  " fill="#009af9" fill-rule="evenodd" fill-opacity="1"/>
<polyline clip-path="url(#clip272)" style="stroke:#000000; stroke-linecap:butt; stroke-linejoin:round; stroke-width:16; stroke-opacity:1; fill:none" points="
  2132.83,766.846 2132.83,766.846 2162.45,766.846 2132.83,766.846 
  "/>
<path clip-path="url(#clip272)" d="
M2169.85 766.846 L2169.85 766.846 L2199.48 766.846 L2199.48 766.846 L2169.85 766.846 L2169.85 766.846  Z
  " fill="#009af9" fill-rule="evenodd" fill-opacity="1"/>
<polyline clip-path="url(#clip272)" style="stroke:#000000; stroke-linecap:butt; stroke-linejoin:round; stroke-width:16; stroke-opacity:1; fill:none" points="
  2169.85,766.846 2169.85,766.846 2199.48,766.846 2169.85,766.846 
  "/>
<path clip-path="url(#clip272)" d="
M2206.88 766.846 L2206.88 766.846 L2236.51 766.846 L2236.51 766.846 L2206.88 766.846 L2206.88 766.846  Z
  " fill="#009af9" fill-rule="evenodd" fill-opacity="1"/>
<polyline clip-path="url(#clip272)" style="stroke:#000000; stroke-linecap:butt; stroke-linejoin:round; stroke-width:16; stroke-opacity:1; fill:none" points="
  2206.88,766.846 2206.88,766.846 2236.51,766.846 2206.88,766.846 
  "/>
<circle clip-path="url(#clip272)" style="fill:#009af9; stroke:none; fill-opacity:0" cx="370.252" cy="766.6" r="2"/>
<circle clip-path="url(#clip272)" style="fill:#009af9; stroke:none; fill-opacity:0" cx="407.281" cy="769.309" r="2"/>
<circle clip-path="url(#clip272)" style="fill:#009af9; stroke:none; fill-opacity:0" cx="444.31" cy="754.529" r="2"/>
<circle clip-path="url(#clip272)" style="fill:#009af9; stroke:none; fill-opacity:0" cx="481.338" cy="807.904" r="2"/>
<circle clip-path="url(#clip272)" style="fill:#009af9; stroke:none; fill-opacity:0" cx="518.367" cy="664.201" r="2"/>
<circle clip-path="url(#clip272)" style="fill:#009af9; stroke:none; fill-opacity:0" cx="555.396" cy="972.136" r="2"/>
<circle clip-path="url(#clip272)" style="fill:#009af9; stroke:none; fill-opacity:0" cx="592.425" cy="424.696" r="2"/>
<circle clip-path="url(#clip272)" style="fill:#009af9; stroke:none; fill-opacity:0" cx="629.454" cy="1255.63" r="2"/>
<circle clip-path="url(#clip272)" style="fill:#009af9; stroke:none; fill-opacity:0" cx="666.483" cy="155.863" r="2"/>
<circle clip-path="url(#clip272)" style="fill:#009af9; stroke:none; fill-opacity:0" cx="703.511" cy="1445.72" r="2"/>
<circle clip-path="url(#clip272)" style="fill:#009af9; stroke:none; fill-opacity:0" cx="740.54" cy="87.9763" r="2"/>
<circle clip-path="url(#clip272)" style="fill:#009af9; stroke:none; fill-opacity:0" cx="777.569" cy="1384" r="2"/>
<circle clip-path="url(#clip272)" style="fill:#009af9; stroke:none; fill-opacity:0" cx="814.598" cy="252.551" r="2"/>
<circle clip-path="url(#clip272)" style="fill:#009af9; stroke:none; fill-opacity:0" cx="851.627" cy="1162.46" r="2"/>
<circle clip-path="url(#clip272)" style="fill:#009af9; stroke:none; fill-opacity:0" cx="888.656" cy="484.266" r="2"/>
<circle clip-path="url(#clip272)" style="fill:#009af9; stroke:none; fill-opacity:0" cx="925.685" cy="955.233" r="2"/>
<circle clip-path="url(#clip272)" style="fill:#009af9; stroke:none; fill-opacity:0" cx="962.713" cy="649.104" r="2"/>
<circle clip-path="url(#clip272)" style="fill:#009af9; stroke:none; fill-opacity:0" cx="999.742" cy="836.106" r="2"/>
<circle clip-path="url(#clip272)" style="fill:#009af9; stroke:none; fill-opacity:0" cx="1036.77" cy="728.368" r="2"/>
<circle clip-path="url(#clip272)" style="fill:#009af9; stroke:none; fill-opacity:0" cx="1073.8" cy="787.097" r="2"/>
<circle clip-path="url(#clip272)" style="fill:#009af9; stroke:none; fill-opacity:0" cx="1110.83" cy="756.72" r="2"/>
<circle clip-path="url(#clip272)" style="fill:#009af9; stroke:none; fill-opacity:0" cx="1147.86" cy="771.668" r="2"/>
<circle clip-path="url(#clip272)" style="fill:#009af9; stroke:none; fill-opacity:0" cx="1184.89" cy="764.654" r="2"/>
<circle clip-path="url(#clip272)" style="fill:#009af9; stroke:none; fill-opacity:0" cx="1221.92" cy="767.799" r="2"/>
<circle clip-path="url(#clip272)" style="fill:#009af9; stroke:none; fill-opacity:0" cx="1258.94" cy="766.449" r="2"/>
<circle clip-path="url(#clip272)" style="fill:#009af9; stroke:none; fill-opacity:0" cx="1295.97" cy="767.005" r="2"/>
<circle clip-path="url(#clip272)" style="fill:#009af9; stroke:none; fill-opacity:0" cx="1333" cy="766.785" r="2"/>
<circle clip-path="url(#clip272)" style="fill:#009af9; stroke:none; fill-opacity:0" cx="1370.03" cy="766.869" r="2"/>
<circle clip-path="url(#clip272)" style="fill:#009af9; stroke:none; fill-opacity:0" cx="1407.06" cy="766.838" r="2"/>
<circle clip-path="url(#clip272)" style="fill:#009af9; stroke:none; fill-opacity:0" cx="1444.09" cy="766.849" r="2"/>
<circle clip-path="url(#clip272)" style="fill:#009af9; stroke:none; fill-opacity:0" cx="1481.12" cy="766.845" r="2"/>
<circle clip-path="url(#clip272)" style="fill:#009af9; stroke:none; fill-opacity:0" cx="1518.15" cy="766.846" r="2"/>
<circle clip-path="url(#clip272)" style="fill:#009af9; stroke:none; fill-opacity:0" cx="1555.18" cy="766.846" r="2"/>
<circle clip-path="url(#clip272)" style="fill:#009af9; stroke:none; fill-opacity:0" cx="1592.2" cy="766.846" r="2"/>
<circle clip-path="url(#clip272)" style="fill:#009af9; stroke:none; fill-opacity:0" cx="1629.23" cy="766.846" r="2"/>
<circle clip-path="url(#clip272)" style="fill:#009af9; stroke:none; fill-opacity:0" cx="1666.26" cy="766.846" r="2"/>
<circle clip-path="url(#clip272)" style="fill:#009af9; stroke:none; fill-opacity:0" cx="1703.29" cy="766.846" r="2"/>
<circle clip-path="url(#clip272)" style="fill:#009af9; stroke:none; fill-opacity:0" cx="1740.32" cy="766.846" r="2"/>
<circle clip-path="url(#clip272)" style="fill:#009af9; stroke:none; fill-opacity:0" cx="1777.35" cy="766.846" r="2"/>
<circle clip-path="url(#clip272)" style="fill:#009af9; stroke:none; fill-opacity:0" cx="1814.38" cy="766.846" r="2"/>
<circle clip-path="url(#clip272)" style="fill:#009af9; stroke:none; fill-opacity:0" cx="1851.41" cy="766.846" r="2"/>
<circle clip-path="url(#clip272)" style="fill:#009af9; stroke:none; fill-opacity:0" cx="1888.43" cy="766.846" r="2"/>
<circle clip-path="url(#clip272)" style="fill:#009af9; stroke:none; fill-opacity:0" cx="1925.46" cy="766.846" r="2"/>
<circle clip-path="url(#clip272)" style="fill:#009af9; stroke:none; fill-opacity:0" cx="1962.49" cy="766.846" r="2"/>
<circle clip-path="url(#clip272)" style="fill:#009af9; stroke:none; fill-opacity:0" cx="1999.52" cy="766.846" r="2"/>
<circle clip-path="url(#clip272)" style="fill:#009af9; stroke:none; fill-opacity:0" cx="2036.55" cy="766.846" r="2"/>
<circle clip-path="url(#clip272)" style="fill:#009af9; stroke:none; fill-opacity:0" cx="2073.58" cy="766.846" r="2"/>
<circle clip-path="url(#clip272)" style="fill:#009af9; stroke:none; fill-opacity:0" cx="2110.61" cy="766.846" r="2"/>
<circle clip-path="url(#clip272)" style="fill:#009af9; stroke:none; fill-opacity:0" cx="2147.64" cy="766.846" r="2"/>
<circle clip-path="url(#clip272)" style="fill:#009af9; stroke:none; fill-opacity:0" cx="2184.67" cy="766.846" r="2"/>
<circle clip-path="url(#clip272)" style="fill:#009af9; stroke:none; fill-opacity:0" cx="2221.69" cy="766.846" r="2"/>
<path clip-path="url(#clip270)" d="
M1995.03 198.898 L2282.3 198.898 L2282.3 95.2176 L1995.03 95.2176  Z
  " fill="#ffffff" fill-rule="evenodd" fill-opacity="1"/>
<polyline clip-path="url(#clip270)" style="stroke:#000000; stroke-linecap:butt; stroke-linejoin:round; stroke-width:4; stroke-opacity:1; fill:none" points="
  1995.03,198.898 2282.3,198.898 2282.3,95.2176 1995.03,95.2176 1995.03,198.898 
  "/>
<path clip-path="url(#clip270)" d="
M2018.52 167.794 L2159.42 167.794 L2159.42 126.322 L2018.52 126.322 L2018.52 167.794  Z
  " fill="#009af9" fill-rule="evenodd" fill-opacity="1"/>
<polyline clip-path="url(#clip270)" style="stroke:#000000; stroke-linecap:butt; stroke-linejoin:round; stroke-width:16; stroke-opacity:1; fill:none" points="
  2018.52,167.794 2159.42,167.794 2159.42,126.322 2018.52,126.322 2018.52,167.794 
  "/>
<path clip-path="url(#clip270)" d="M2196.75 166.745 Q2194.94 171.375 2193.23 172.787 Q2191.52 174.199 2188.65 174.199 L2185.24 174.199 L2185.24 170.634 L2187.74 170.634 Q2189.5 170.634 2190.47 169.8 Q2191.45 168.967 2192.63 165.865 L2193.39 163.921 L2182.91 138.412 L2187.42 138.412 L2195.52 158.689 L2203.62 138.412 L2208.14 138.412 L2196.75 166.745 Z" fill="#000000" fill-rule="evenodd" fill-opacity="1" /><path clip-path="url(#clip270)" d="M2215.43 160.402 L2223.07 160.402 L2223.07 134.037 L2214.76 135.703 L2214.76 131.444 L2223.02 129.778 L2227.7 129.778 L2227.7 160.402 L2235.34 160.402 L2235.34 164.338 L2215.43 164.338 L2215.43 160.402 Z" fill="#000000" fill-rule="evenodd" fill-opacity="1" /></svg>
