<?xml version="1.0" encoding="utf-8"?>
<svg xmlns="http://www.w3.org/2000/svg" xmlns:xlink="http://www.w3.org/1999/xlink" width="600" height="400" viewBox="0 0 2400 1600">
<defs>
  <clipPath id="clip490">
    <rect x="0" y="0" width="2400" height="1600"/>
  </clipPath>
</defs>
<path clip-path="url(#clip490)" d="
M0 1600 L2400 1600 L2400 0 L0 0  Z
  " fill="#ffffff" fill-rule="evenodd" fill-opacity="1"/>
<defs>
  <clipPath id="clip491">
    <rect x="480" y="0" width="1681" height="1600"/>
  </clipPath>
</defs>
<path clip-path="url(#clip490)" d="
M213.607 1486.45 L2352.76 1486.45 L2352.76 47.2441 L213.607 47.2441  Z
  " fill="#ffffff" fill-rule="evenodd" fill-opacity="1"/>
<defs>
  <clipPath id="clip492">
    <rect x="213" y="47" width="2140" height="1440"/>
  </clipPath>
</defs>
<polyline clip-path="url(#clip492)" style="stroke:#000000; stroke-linecap:butt; stroke-linejoin:round; stroke-width:2; stroke-opacity:0.1; fill:none" points="
  213.607,1486.45 213.607,47.2441 
  "/>
<polyline clip-path="url(#clip492)" style="stroke:#000000; stroke-linecap:butt; stroke-linejoin:round; stroke-width:2; stroke-opacity:0.1; fill:none" points="
  748.395,1486.45 748.395,47.2441 
  "/>
<polyline clip-path="url(#clip492)" style="stroke:#000000; stroke-linecap:butt; stroke-linejoin:round; stroke-width:2; stroke-opacity:0.1; fill:none" points="
  1283.18,1486.45 1283.18,47.2441 
  "/>
<polyline clip-path="url(#clip492)" style="stroke:#000000; stroke-linecap:butt; stroke-linejoin:round; stroke-width:2; stroke-opacity:0.1; fill:none" points="
  1817.97,1486.45 1817.97,47.2441 
  "/>
<polyline clip-path="url(#clip492)" style="stroke:#000000; stroke-linecap:butt; stroke-linejoin:round; stroke-width:2; stroke-opacity:0.1; fill:none" points="
  2352.76,1486.45 2352.76,47.2441 
  "/>
<polyline clip-path="url(#clip490)" style="stroke:#000000; stroke-linecap:butt; stroke-linejoin:round; stroke-width:4; stroke-opacity:1; fill:none" points="
  213.607,1486.45 2352.76,1486.45 
  "/>
<polyline clip-path="url(#clip490)" style="stroke:#000000; stroke-linecap:butt; stroke-linejoin:round; stroke-width:4; stroke-opacity:1; fill:none" points="
  213.607,1486.45 213.607,1467.55 
  "/>
<polyline clip-path="url(#clip490)" style="stroke:#000000; stroke-linecap:butt; stroke-linejoin:round; stroke-width:4; stroke-opacity:1; fill:none" points="
  748.395,1486.45 748.395,1467.55 
  "/>
<polyline clip-path="url(#clip490)" style="stroke:#000000; stroke-linecap:butt; stroke-linejoin:round; stroke-width:4; stroke-opacity:1; fill:none" points="
  1283.18,1486.45 1283.18,1467.55 
  "/>
<polyline clip-path="url(#clip490)" style="stroke:#000000; stroke-linecap:butt; stroke-linejoin:round; stroke-width:4; stroke-opacity:1; fill:none" points="
  1817.97,1486.45 1817.97,1467.55 
  "/>
<polyline clip-path="url(#clip490)" style="stroke:#000000; stroke-linecap:butt; stroke-linejoin:round; stroke-width:4; stroke-opacity:1; fill:none" points="
  2352.76,1486.45 2352.76,1467.55 
  "/>
<path clip-path="url(#clip490)" d="M167.67 1532.02 L197.346 1532.02 L197.346 1535.95 L167.67 1535.95 L167.67 1532.02 Z" fill="#000000" fill-rule="evenodd" fill-opacity="1" /><path clip-path="url(#clip490)" d="M211.466 1544.91 L227.786 1544.91 L227.786 1548.85 L205.841 1548.85 L205.841 1544.91 Q208.503 1542.16 213.087 1537.53 Q217.693 1532.88 218.874 1531.53 Q221.119 1529.01 221.999 1527.27 Q222.901 1525.51 222.901 1523.82 Q222.901 1521.07 220.957 1519.33 Q219.036 1517.6 215.934 1517.6 Q213.735 1517.6 211.281 1518.36 Q208.851 1519.13 206.073 1520.68 L206.073 1515.95 Q208.897 1514.82 211.351 1514.24 Q213.804 1513.66 215.841 1513.66 Q221.212 1513.66 224.406 1516.35 Q227.6 1519.03 227.6 1523.52 Q227.6 1525.65 226.79 1527.57 Q226.003 1529.47 223.897 1532.07 Q223.318 1532.74 220.216 1535.95 Q217.114 1539.15 211.466 1544.91 Z" fill="#000000" fill-rule="evenodd" fill-opacity="1" /><path clip-path="url(#clip490)" d="M247.6 1517.37 Q243.989 1517.37 242.161 1520.93 Q240.355 1524.47 240.355 1531.6 Q240.355 1538.71 242.161 1542.27 Q243.989 1545.82 247.6 1545.82 Q251.235 1545.82 253.04 1542.27 Q254.869 1538.71 254.869 1531.6 Q254.869 1524.47 253.04 1520.93 Q251.235 1517.37 247.6 1517.37 M247.6 1513.66 Q253.411 1513.66 256.466 1518.27 Q259.545 1522.85 259.545 1531.6 Q259.545 1540.33 256.466 1544.94 Q253.411 1549.52 247.6 1549.52 Q241.79 1549.52 238.712 1544.94 Q235.656 1540.33 235.656 1531.6 Q235.656 1522.85 238.712 1518.27 Q241.79 1513.66 247.6 1513.66 Z" fill="#000000" fill-rule="evenodd" fill-opacity="1" /><path clip-path="url(#clip490)" d="M702.457 1532.02 L732.133 1532.02 L732.133 1535.95 L702.457 1535.95 L702.457 1532.02 Z" fill="#000000" fill-rule="evenodd" fill-opacity="1" /><path clip-path="url(#clip490)" d="M743.036 1544.91 L750.675 1544.91 L750.675 1518.55 L742.365 1520.21 L742.365 1515.95 L750.628 1514.29 L755.304 1514.29 L755.304 1544.91 L762.943 1544.91 L762.943 1548.85 L743.036 1548.85 L743.036 1544.91 Z" fill="#000000" fill-rule="evenodd" fill-opacity="1" /><path clip-path="url(#clip490)" d="M782.387 1517.37 Q778.776 1517.37 776.948 1520.93 Q775.142 1524.47 775.142 1531.6 Q775.142 1538.71 776.948 1542.27 Q778.776 1545.82 782.387 1545.82 Q786.022 1545.82 787.827 1542.27 Q789.656 1538.71 789.656 1531.6 Q789.656 1524.47 787.827 1520.93 Q786.022 1517.37 782.387 1517.37 M782.387 1513.66 Q788.198 1513.66 791.253 1518.27 Q794.332 1522.85 794.332 1531.6 Q794.332 1540.33 791.253 1544.94 Q788.198 1549.52 782.387 1549.52 Q776.577 1549.52 773.499 1544.94 Q770.443 1540.33 770.443 1531.6 Q770.443 1522.85 773.499 1518.27 Q776.577 1513.66 782.387 1513.66 Z" fill="#000000" fill-rule="evenodd" fill-opacity="1" /><path clip-path="url(#clip490)" d="M1283.18 1517.37 Q1279.57 1517.37 1277.74 1520.93 Q1275.94 1524.47 1275.94 1531.6 Q1275.94 1538.71 1277.74 1542.27 Q1279.57 1545.82 1283.18 1545.82 Q1286.82 1545.82 1288.62 1542.27 Q1290.45 1538.71 1290.45 1531.6 Q1290.45 1524.47 1288.62 1520.93 Q1286.82 1517.37 1283.18 1517.37 M1283.18 1513.66 Q1288.99 1513.66 1292.05 1518.27 Q1295.13 1522.85 1295.13 1531.6 Q1295.13 1540.33 1292.05 1544.94 Q1288.99 1549.52 1283.18 1549.52 Q1277.37 1549.52 1274.29 1544.94 Q1271.24 1540.33 1271.24 1531.6 Q1271.24 1522.85 1274.29 1518.27 Q1277.37 1513.66 1283.18 1513.66 Z" fill="#000000" fill-rule="evenodd" fill-opacity="1" /><path clip-path="url(#clip490)" d="M1792.66 1544.91 L1800.3 1544.91 L1800.3 1518.55 L1791.99 1520.21 L1791.99 1515.95 L1800.25 1514.29 L1804.92 1514.29 L1804.92 1544.91 L1812.56 1544.91 L1812.56 1548.85 L1792.66 1548.85 L1792.66 1544.91 Z" fill="#000000" fill-rule="evenodd" fill-opacity="1" /><path clip-path="url(#clip490)" d="M1832.01 1517.37 Q1828.4 1517.37 1826.57 1520.93 Q1824.76 1524.47 1824.76 1531.6 Q1824.76 1538.71 1826.57 1542.27 Q1828.4 1545.82 1832.01 1545.82 Q1835.64 1545.82 1837.45 1542.27 Q1839.28 1538.71 1839.28 1531.6 Q1839.28 1524.47 1837.45 1520.93 Q1835.64 1517.37 1832.01 1517.37 M1832.01 1513.66 Q1837.82 1513.66 1840.87 1518.27 Q1843.95 1522.85 1843.95 1531.6 Q1843.95 1540.33 1840.87 1544.94 Q1837.82 1549.52 1832.01 1549.52 Q1826.2 1549.52 1823.12 1544.94 Q1820.06 1540.33 1820.06 1531.6 Q1820.06 1522.85 1823.12 1518.27 Q1826.2 1513.66 1832.01 1513.66 Z" fill="#000000" fill-rule="evenodd" fill-opacity="1" /><path clip-path="url(#clip490)" d="M2331.53 1544.91 L2347.85 1544.91 L2347.85 1548.85 L2325.9 1548.85 L2325.9 1544.91 Q2328.57 1542.16 2333.15 1537.53 Q2337.76 1532.88 2338.94 1531.53 Q2341.18 1529.01 2342.06 1527.27 Q2342.96 1525.51 2342.96 1523.82 Q2342.96 1521.07 2341.02 1519.33 Q2339.1 1517.6 2336 1517.6 Q2333.8 1517.6 2331.34 1518.36 Q2328.91 1519.13 2326.14 1520.68 L2326.14 1515.95 Q2328.96 1514.82 2331.41 1514.24 Q2333.87 1513.66 2335.9 1513.66 Q2341.27 1513.66 2344.47 1516.35 Q2347.66 1519.03 2347.66 1523.52 Q2347.66 1525.65 2346.85 1527.57 Q2346.07 1529.47 2343.96 1532.07 Q2343.38 1532.74 2340.28 1535.95 Q2337.18 1539.15 2331.53 1544.91 Z" fill="#000000" fill-rule="evenodd" fill-opacity="1" /><path clip-path="url(#clip490)" d="M2367.66 1517.37 Q2364.05 1517.37 2362.22 1520.93 Q2360.42 1524.47 2360.42 1531.6 Q2360.42 1538.71 2362.22 1542.27 Q2364.05 1545.82 2367.66 1545.82 Q2371.3 1545.82 2373.1 1542.27 Q2374.93 1538.71 2374.93 1531.6 Q2374.93 1524.47 2373.1 1520.93 Q2371.3 1517.37 2367.66 1517.37 M2367.66 1513.66 Q2373.47 1513.66 2376.53 1518.27 Q2379.61 1522.85 2379.61 1531.6 Q2379.61 1540.33 2376.53 1544.94 Q2373.47 1549.52 2367.66 1549.52 Q2361.85 1549.52 2358.77 1544.94 Q2355.72 1540.33 2355.72 1531.6 Q2355.72 1522.85 2358.77 1518.27 Q2361.85 1513.66 2367.66 1513.66 Z" fill="#000000" fill-rule="evenodd" fill-opacity="1" /><polyline clip-path="url(#clip492)" style="stroke:#000000; stroke-linecap:butt; stroke-linejoin:round; stroke-width:2; stroke-opacity:0.1; fill:none" points="
  213.607,908.783 2352.76,908.783 
  "/>
<polyline clip-path="url(#clip492)" style="stroke:#000000; stroke-linecap:butt; stroke-linejoin:round; stroke-width:2; stroke-opacity:0.1; fill:none" points="
  213.607,141.737 2352.76,141.737 
  "/>
<polyline clip-path="url(#clip490)" style="stroke:#000000; stroke-linecap:butt; stroke-linejoin:round; stroke-width:4; stroke-opacity:1; fill:none" points="
  213.607,1486.45 213.607,47.2441 
  "/>
<polyline clip-path="url(#clip490)" style="stroke:#000000; stroke-linecap:butt; stroke-linejoin:round; stroke-width:4; stroke-opacity:1; fill:none" points="
  213.607,908.783 232.505,908.783 
  "/>
<polyline clip-path="url(#clip490)" style="stroke:#000000; stroke-linecap:butt; stroke-linejoin:round; stroke-width:4; stroke-opacity:1; fill:none" points="
  213.607,141.737 232.505,141.737 
  "/>
<path clip-path="url(#clip490)" d="M51.6634 928.576 L59.3023 928.576 L59.3023 902.21 L50.9921 903.877 L50.9921 899.618 L59.256 897.951 L63.9319 897.951 L63.9319 928.576 L71.5707 928.576 L71.5707 932.511 L51.6634 932.511 L51.6634 928.576 Z" fill="#000000" fill-rule="evenodd" fill-opacity="1" /><path clip-path="url(#clip490)" d="M91.0151 901.03 Q87.404 901.03 85.5753 904.594 Q83.7697 908.136 83.7697 915.266 Q83.7697 922.372 85.5753 925.937 Q87.404 929.478 91.0151 929.478 Q94.6493 929.478 96.4548 925.937 Q98.2835 922.372 98.2835 915.266 Q98.2835 908.136 96.4548 904.594 Q94.6493 901.03 91.0151 901.03 M91.0151 897.326 Q96.8252 897.326 99.8808 901.932 Q102.959 906.516 102.959 915.266 Q102.959 923.992 99.8808 928.599 Q96.8252 933.182 91.0151 933.182 Q85.2049 933.182 82.1262 928.599 Q79.0707 923.992 79.0707 915.266 Q79.0707 906.516 82.1262 901.932 Q85.2049 897.326 91.0151 897.326 Z" fill="#000000" fill-rule="evenodd" fill-opacity="1" /><path clip-path="url(#clip490)" d="M102.959 891.427 L127.071 891.427 L127.071 894.625 L102.959 894.625 L102.959 891.427 Z" fill="#000000" fill-rule="evenodd" fill-opacity="1" /><path clip-path="url(#clip490)" d="M135.929 901.903 L142.136 901.903 L142.136 880.481 L135.384 881.835 L135.384 878.375 L142.098 877.02 L145.898 877.02 L145.898 901.903 L152.104 901.903 L152.104 905.1 L135.929 905.1 L135.929 901.903 Z" fill="#000000" fill-rule="evenodd" fill-opacity="1" /><path clip-path="url(#clip490)" d="M167.903 879.522 Q164.969 879.522 163.483 882.418 Q162.016 885.296 162.016 891.089 Q162.016 896.863 163.483 899.759 Q164.969 902.637 167.903 902.637 Q170.855 902.637 172.322 899.759 Q173.808 896.863 173.808 891.089 Q173.808 885.296 172.322 882.418 Q170.855 879.522 167.903 879.522 M167.903 876.513 Q172.623 876.513 175.106 880.255 Q177.607 883.979 177.607 891.089 Q177.607 898.179 175.106 901.922 Q172.623 905.646 167.903 905.646 Q163.182 905.646 160.68 901.922 Q158.198 898.179 158.198 891.089 Q158.198 883.979 160.68 880.255 Q163.182 876.513 167.903 876.513 Z" fill="#000000" fill-rule="evenodd" fill-opacity="1" /><path clip-path="url(#clip490)" d="M106.902 161.529 L114.541 161.529 L114.541 135.164 L106.231 136.83 L106.231 132.571 L114.494 130.904 L119.17 130.904 L119.17 161.529 L126.809 161.529 L126.809 165.464 L106.902 165.464 L106.902 161.529 Z" fill="#000000" fill-rule="evenodd" fill-opacity="1" /><path clip-path="url(#clip490)" d="M146.253 133.983 Q142.642 133.983 140.814 137.548 Q139.008 141.09 139.008 148.219 Q139.008 155.326 140.814 158.89 Q142.642 162.432 146.253 162.432 Q149.888 162.432 151.693 158.89 Q153.522 155.326 153.522 148.219 Q153.522 141.09 151.693 137.548 Q149.888 133.983 146.253 133.983 M146.253 130.279 Q152.064 130.279 155.119 134.886 Q158.198 139.469 158.198 148.219 Q158.198 156.946 155.119 161.552 Q152.064 166.136 146.253 166.136 Q140.443 166.136 137.365 161.552 Q134.309 156.946 134.309 148.219 Q134.309 139.469 137.365 134.886 Q140.443 130.279 146.253 130.279 Z" fill="#000000" fill-rule="evenodd" fill-opacity="1" /><path clip-path="url(#clip490)" d="M167.903 112.476 Q164.969 112.476 163.483 115.372 Q162.016 118.25 162.016 124.042 Q162.016 129.816 163.483 132.713 Q164.969 135.59 167.903 135.59 Q170.855 135.59 172.322 132.713 Q173.808 129.816 173.808 124.042 Q173.808 118.25 172.322 115.372 Q170.855 112.476 167.903 112.476 M167.903 109.466 Q172.623 109.466 175.106 113.209 Q177.607 116.933 177.607 124.042 Q177.607 131.133 175.106 134.876 Q172.623 138.6 167.903 138.6 Q163.182 138.6 160.68 134.876 Q158.198 131.133 158.198 124.042 Q158.198 116.933 160.68 113.209 Q163.182 109.466 167.903 109.466 Z" fill="#000000" fill-rule="evenodd" fill-opacity="1" /><polyline clip-path="url(#clip492)" style="stroke:#009af9; stroke-linecap:butt; stroke-linejoin:round; stroke-width:16; stroke-opacity:1; fill:none" points="
  213.607,118.938 213.771,108.133 213.934,102.314 214.097,110.498 214.26,155.679 214.424,156.487 214.587,164.146 214.75,148.92 214.913,103.723 215.076,160.477 
  215.24,87.9763 215.403,103.518 215.566,229.018 215.729,99.2635 215.892,99.891 216.056,147.647 216.219,113.231 216.382,130.479 216.545,114.203 216.708,217.944 
  216.872,122.408 217.035,248.858 217.198,133.788 217.361,91.4633 217.524,147.414 217.688,118.403 217.851,133.901 218.014,101.401 218.177,109.668 218.34,121.947 
  218.504,170.459 218.667,173.878 218.83,131.645 218.993,155.839 219.157,136.464 219.32,148.366 219.483,148.17 219.646,137.176 219.809,153.556 219.973,132.584 
  220.136,132.087 220.299,135.906 220.462,229.113 220.625,135.991 220.789,162.915 220.952,89.6802 221.115,120.196 221.278,126.85 221.441,116.334 221.605,122.781 
  221.768,208.172 221.931,170.151 222.094,127.964 222.257,108.846 222.421,220.584 222.584,149.092 222.747,145.748 222.91,133.132 223.074,171.808 223.237,125.519 
  223.4,158.263 223.563,140.75 223.726,119.749 223.89,139.916 224.053,121.411 224.216,115.953 224.379,108.421 224.542,117.847 224.706,215.815 224.869,127.75 
  225.032,127.979 225.195,108.967 225.358,158.813 225.522,160.133 225.685,109.276 225.848,115.102 226.011,123.083 226.174,124.67 226.338,231.195 226.501,143.211 
  226.664,183.338 226.827,146.812 226.99,170.786 227.154,248.12 227.317,131.423 227.48,244.348 227.643,127.277 227.807,119.523 227.97,128.039 228.133,157.592 
  228.296,163.005 228.459,120.134 228.623,164.659 228.786,222.513 228.949,162.44 229.112,193.288 229.275,173.741 229.439,176.399 229.602,175.359 229.765,123.579 
  229.928,144.743 230.091,121.565 230.255,146.368 230.418,123.914 230.581,197.145 230.744,121.201 230.907,147.031 231.071,198.36 231.234,166.413 231.397,154.117 
  231.56,173.367 231.723,119.402 231.887,131.642 232.05,141.069 232.213,144.628 232.376,154.478 232.54,128.123 232.703,151.561 232.866,133.49 233.029,194.619 
  233.192,260.861 233.356,158.755 233.519,144.901 233.682,182.309 233.845,168.751 234.008,137.163 234.172,122.7 234.335,172.127 234.498,262.846 236.007,164.257 
  237.516,155.753 239.025,217.452 240.534,146.149 242.043,172.373 243.553,161.85 245.062,159.043 246.571,241.62 248.08,180.85 249.589,319.417 251.098,194.04 
  252.607,140.024 254.116,169.568 255.625,194.244 257.134,138.143 258.643,170.742 260.152,157.344 261.662,234.205 263.171,181.998 264.68,157.365 266.189,203.953 
  267.698,166.234 269.207,180.944 270.716,201.45 272.225,200.646 273.734,204.241 275.243,176.527 276.752,192.667 278.262,289.546 279.771,224.659 281.28,250.619 
  282.789,233.496 284.298,202.048 285.807,182.675 287.316,189.554 288.825,236.272 290.334,222.174 291.843,243.579 293.352,246.372 294.862,243.041 297.88,235.597 
  300.898,242.477 303.916,248.908 306.934,249.79 308.443,214.144 309.952,260.742 311.461,228.838 312.971,230.786 314.48,249.676 315.989,289.991 317.498,293.336 
  319.007,276.321 320.516,324.246 322.025,273.764 323.534,225.781 325.043,279.802 326.552,249.712 328.061,304.226 329.571,244.531 331.08,325.656 332.589,298.947 
  334.098,323.811 335.607,270.007 337.116,267.547 338.625,269.27 340.134,317.689 341.643,266.731 343.152,301.675 344.661,258.156 346.17,285.845 347.68,294.312 
  349.189,288.617 350.698,455.839 352.207,280.263 353.716,304.895 355.225,285.943 356.734,342.958 358.243,287.52 359.752,286.309 361.261,319.224 362.77,376.046 
  364.28,345.606 365.789,335.215 367.298,400.219 368.807,315.26 370.316,299.541 371.825,360.156 373.334,311.302 374.843,305.157 376.352,341.008 377.861,390.811 
  379.37,320.809 380.879,415.82 382.389,441.098 383.898,320.778 385.407,349.663 386.916,347.073 388.425,339.402 389.934,385.347 391.443,362.678 392.952,352.569 
  394.461,389.346 395.97,342.727 397.479,388.177 398.989,379.622 400.498,500.717 402.007,401.75 403.516,361.74 405.025,354.607 406.534,353.527 408.043,419.06 
  409.552,363.942 411.061,357.706 412.57,359.177 414.079,446.416 415.588,381.458 417.098,377.593 418.607,367.232 420.116,353.893 421.625,404.449 423.134,377.304 
  424.643,468.566 426.152,412.28 427.661,477.225 428.568,402.97 429.475,460.208 430.382,377.491 431.289,408.247 432.196,440.177 433.103,371.845 434.009,523.856 
  434.916,458.17 435.823,437.63 436.73,419.226 437.637,386.065 438.544,493.012 439.451,402.028 440.358,399.531 441.265,406.253 442.172,378.839 443.078,414.817 
  443.985,395.574 444.892,460.174 445.799,384.887 446.706,361.91 447.613,461.149 448.52,389.973 449.427,415.042 450.334,404.145 451.241,399.18 452.147,456.597 
  453.054,496.805 453.961,410.52 454.868,482.35 455.775,447.473 456.682,436.056 457.589,503.99 458.496,445.427 459.403,415.541 460.31,395.65 461.216,498.119 
  462.123,405.815 463.03,417.717 463.937,455.044 464.844,413.789 465.751,503.149 466.658,432.958 467.565,439.813 468.472,433.967 469.379,430.87 470.285,446.794 
  471.192,439.332 472.099,456.253 473.006,452.34 473.913,483.549 474.82,417.398 475.727,428.551 476.634,443.345 477.541,450.503 478.448,438.966 479.354,485.678 
  480.261,435.698 481.168,435.107 482.075,454.094 482.982,555.474 483.889,455.86 484.796,450.801 485.703,499.293 486.61,490.248 487.516,505.065 488.423,496.677 
  489.33,583.821 490.237,536.296 491.144,479.756 492.051,450.285 492.958,536.729 493.865,438.773 494.772,477.142 495.679,465.177 496.585,468.905 497.492,448.449 
  498.399,484.826 499.306,649.218 500.213,473.832 501.12,456.034 502.027,470.434 502.934,493.198 503.841,482.205 504.748,461.103 505.654,468.737 506.561,482.133 
  507.468,494.195 508.375,474.29 509.282,482.722 510.189,482.622 511.096,551.077 512.003,513.857 512.91,480.422 513.817,514.683 514.723,554.794 515.63,533.077 
  516.537,528.934 517.444,505.528 518.351,494.825 519.258,481.702 520.165,493.177 521.072,492.813 521.979,578.101 522.886,468.319 523.792,521.959 524.699,480.682 
  525.606,508.953 526.513,516.632 527.42,527.957 528.327,529.336 529.234,691.028 530.141,553.553 531.048,484.891 531.955,533.76 532.861,550.916 533.768,534.098 
  534.675,594.738 535.582,533.957 536.489,508.509 537.396,570.633 538.303,530.103 539.21,525.696 540.117,527.856 541.024,518.542 541.93,540.864 542.837,601.321 
  543.744,574.078 544.511,555.324 545.278,538.436 546.045,551.623 546.811,545.09 547.578,530.09 548.345,525.447 549.112,590.898 549.878,547.007 550.645,595.2 
  551.412,553.879 552.179,578.336 552.945,544.306 553.712,566.782 554.479,559.917 555.246,525.424 556.013,525.48 556.779,543.795 557.546,538.481 558.313,566.278 
  559.08,579.582 559.846,530.487 560.613,589.31 561.38,597.052 562.147,563.37 562.913,639.271 563.68,594.477 564.447,549.713 565.214,541.355 565.981,551.748 
  566.747,590.855 567.514,595.694 568.281,551.509 569.048,568.138 569.814,596.878 570.581,564.879 571.348,575.911 572.115,551.481 572.882,625.314 573.648,601.834 
  574.415,601.986 575.949,586.066 577.482,566.465 578.249,572.268 579.016,578.645 579.782,571.728 580.549,581.792 581.316,587.971 582.083,562.519 582.85,577.574 
  583.616,599.554 584.383,565.608 585.15,541.281 585.917,617.72 586.683,619.174 587.45,578.39 588.217,608.029 588.984,575.486 589.75,560.957 590.517,559.794 
  591.284,594.991 592.051,675.233 592.818,575.09 593.584,608.161 594.351,681.618 595.118,640.074 595.885,633.134 596.651,564.229 597.418,615.717 598.185,626.228 
  598.952,583.36 599.719,602.896 600.485,605.403 601.252,617.895 602.019,703.775 602.786,587.075 603.552,660.556 604.319,640.305 605.086,636.803 605.853,639.985 
  606.619,630.02 607.386,587.14 608.153,594.489 608.92,678.297 609.687,618.205 610.453,653.687 611.22,612.276 611.987,643.484 612.754,622.272 613.52,586.899 
  614.287,636.089 615.054,616.766 615.821,683.749 616.587,610.519 617.354,625.286 618.121,627.912 618.888,628.868 619.655,600.034 620.421,613.112 621.188,654.022 
  621.955,633.815 622.722,646.634 623.488,688.847 624.255,654.53 625.022,652.27 625.789,647.214 626.555,662.437 627.322,602.552 628.089,625.279 628.856,614.813 
  629.623,609.768 630.389,634.44 631.156,605.022 631.923,634.603 632.69,609.231 633.456,650.903 634.223,665.404 634.99,644.728 635.757,619.228 636.524,705.437 
  637.29,694.444 638.057,624.73 638.824,614.316 639.591,660.894 640.357,665.083 641.124,698.182 641.891,636.907 642.724,676.884 643.557,638.785 644.39,640.852 
  645.223,657.078 646.056,635.723 646.888,691.036 647.721,656.128 648.554,703.045 649.387,665.77 650.22,680.394 651.053,707.156 651.886,672.536 652.719,663.609 
  653.552,686.174 654.385,699.344 655.218,699.507 656.051,732.58 656.884,640.108 657.717,679.304 658.549,667.611 659.382,765.957 660.215,652.82 661.048,714.37 
  661.881,679.675 662.714,734.391 663.547,698.263 664.38,669.793 665.213,648.463 666.046,692.384 666.879,689.141 667.712,696.16 668.545,673.692 669.378,665.645 
  670.21,719.674 671.043,674.25 671.876,729.607 672.709,668.776 673.542,665.901 674.375,699.233 675.208,748.979 676.041,727.259 676.874,691.88 677.707,736.921 
  678.54,719.51 679.373,700.812 680.206,740.924 681.039,742.018 681.871,678.767 682.704,675.454 683.537,770.456 684.37,729.831 685.203,780.069 686.036,697.609 
  686.869,714.81 687.702,683.731 688.535,694.508 689.368,692.538 690.201,795.264 691.034,741.425 691.867,737.738 692.7,690.556 693.532,699.576 694.365,739.068 
  695.198,728.52 696.864,723.768 698.53,732.702 699.363,744.416 700.196,722.149 701.029,761.165 701.862,741.452 702.695,729.183 703.528,720.679 704.361,736.803 
  705.193,745.966 706.026,801.815 706.859,740.629 707.692,748.71 708.525,729.335 709.358,779.623 710.191,828.349 711.024,745.132 711.857,714.016 712.69,718.797 
  713.523,719.311 714.356,755.501 715.189,722.327 716.022,736.698 716.854,741.587 717.687,735.803 718.52,741.821 719.353,729.041 720.186,740.195 721.019,790.033 
  721.852,743.06 722.685,867.312 723.518,746.509 724.351,729.939 725.184,815.015 726.017,749.891 726.85,752.673 727.683,774.658 728.515,781.571 729.348,776.846 
  730.181,813.187 731.014,738.796 731.847,772.7 732.68,745.261 733.513,817.214 734.346,782.369 735.179,788.492 736.012,799.47 736.845,797.853 737.678,752.643 
  738.511,794.344 739.344,763.61 740.176,850.809 741.009,761.955 741.842,772.127 742.675,760.773 743.508,844.939 744.341,797.92 745.174,808.392 746.007,808.28 
  746.84,781.17 747.673,824.562 748.506,756.206 749.274,774.591 750.042,775.916 750.809,777.932 751.577,819.91 752.345,876.161 753.113,782.659 753.881,786.114 
  754.649,868.545 755.417,814.746 756.185,792.08 756.953,788.323 757.72,789.558 758.488,793.184 759.256,855.94 760.024,780.29 760.792,856.841 761.56,805.206 
  762.328,869.182 763.096,758.994 763.863,806.691 764.631,842.037 765.399,773.861 766.167,785.918 766.935,783.263 767.703,796.53 768.471,831.505 769.239,821.202 
  770.007,832.218 770.774,808.473 771.542,822.948 772.31,835.924 773.078,803.134 773.846,831.005 774.614,833.931 775.382,943.174 776.15,875.512 776.918,825.132 
  777.685,834.468 778.453,860.633 779.221,817.952 779.989,803.555 780.757,862.549 781.525,836.559 782.293,821.246 783.061,811.906 783.829,831.136 784.596,966.923 
  785.364,824.709 786.132,873.396 786.9,801.011 787.668,832.822 788.436,831.816 789.204,863.121 789.972,796.093 790.74,834.625 791.507,875.439 792.275,822.32 
  793.043,813.726 793.811,825.903 794.579,839.398 795.347,920.606 796.115,824.587 796.883,891.964 797.65,823.106 798.418,857.763 799.186,839.371 799.954,853.511 
  800.722,859.056 801.49,900.672 802.258,834.727 803.026,877.573 803.794,828.919 804.561,846.97 805.329,919.414 806.097,850.45 806.865,844.52 807.633,827.024 
  808.401,838.337 809.169,876.916 809.937,853.732 810.705,951.121 811.472,893.564 812.24,845.401 813.008,888.326 813.776,884.035 814.544,858.346 815.312,852.401 
  816.08,859.115 816.848,887.523 817.616,894.708 818.383,930.356 819.151,1014.2 819.919,854.136 820.687,883.809 821.455,855.733 822.223,860.243 822.991,848.501 
  823.759,874.828 824.527,858.125 825.294,882.664 826.062,935.32 826.83,902.986 827.598,859.976 828.366,964.586 829.134,873.171 829.902,966.589 830.67,852.762 
  831.437,893.321 832.205,869.823 832.973,901.17 833.741,932.698 834.509,904.365 835.277,897.6 836.045,889.401 836.813,906.497 837.581,876.97 838.348,905.311 
  839.116,903.076 839.884,959.173 840.652,881.674 841.42,956.108 842.188,909.23 842.956,1107.75 843.724,892.495 844.492,912.581 845.259,885.274 846.027,922.901 
  846.795,947.516 847.618,935.179 848.442,1025.2 849.265,928.7 850.088,903.055 850.911,935.585 851.735,925.403 852.558,1008.81 853.381,893.933 854.205,943.542 
  855.028,906.201 855.851,907.988 856.674,936.49 857.498,919.921 858.321,1073.61 859.144,911.828 859.967,949.854 860.791,926.882 861.614,953.683 862.437,948.42 
  863.26,968.073 864.084,936.929 864.907,961.982 865.73,928.611 866.553,1040.61 867.377,922.224 868.2,940.331 869.023,920.352 869.846,920.527 870.67,963.584 
  871.493,1019.2 872.316,941.692 873.139,970.903 873.963,916.196 874.786,994.763 875.609,912.933 876.432,961.688 877.256,932.897 878.079,946.646 878.902,1011.5 
  879.725,955.946 880.549,1032.42 881.372,1099.83 882.195,946.04 883.018,1096.27 883.842,1016.34 884.665,980.085 885.488,993.68 886.311,983.328 887.135,983.208 
  887.958,935.376 888.781,1017 889.604,976.238 890.428,975.392 891.251,986.097 892.074,976.258 892.898,1052.84 893.721,986.487 894.544,956.434 895.367,994.078 
  896.191,1016 897.014,993.559 897.837,978.104 898.66,972.849 899.484,1000.85 900.307,966.04 901.13,994.335 901.953,982.429 902.777,980.344 903.6,1000.73 
  904.423,951.382 905.246,971.415 906.07,994.062 906.893,995.828 907.716,977.394 908.539,961.668 909.363,1087.06 910.186,1081.35 911.009,1077.15 911.832,1015.02 
  912.656,951.907 913.479,987.966 914.302,999.116 915.125,987.938 915.949,983.614 916.772,975.234 917.595,978.451 918.418,995.21 919.242,990.046 920.065,1032.94 
  920.888,988.5 921.711,982.572 922.535,1065.1 923.358,993.383 924.181,1000.27 925.004,1023.22 925.828,1021.13 926.651,1092.14 927.474,994.42 928.297,1013.03 
  929.121,1019.42 929.944,1004.34 930.767,1040.83 931.591,1099.19 932.414,1048.3 933.237,1022.33 934.06,1008.61 934.884,1067.56 935.707,991.182 936.53,1041.81 
  937.353,1017.4 938.177,1041.48 939,1008.62 939.823,1028.77 940.646,1015.72 941.47,1061.68 942.293,1039.74 943.116,1077.8 943.939,1016.97 944.763,1039.59 
  945.586,1028.44 946.409,1154.53 947.232,1043.45 948.056,1043.49 948.879,1120.49 949.702,1079.22 950.525,1026.47 951.349,1031.82 952.172,1020.34 953.126,1053.17 
  954.08,1038.66 955.033,1074.09 955.987,1082.37 956.941,1036.5 957.895,1029.13 958.849,1066.59 959.802,1013.27 960.756,1010 961.71,1041.23 962.664,1024.16 
  963.618,1030.2 964.572,1114.45 965.525,1100.8 966.479,1028.26 967.433,1076.34 968.387,1046.48 969.341,1089.46 970.295,1085.46 971.248,1075.58 972.202,1055.34 
  973.156,1040.92 974.11,1038.8 975.064,1113.67 976.017,1057.43 976.971,1088.65 977.925,1058.07 978.879,1121.84 979.833,1059.24 980.787,1058.67 981.74,1092.56 
  982.694,1049.37 983.648,1118.36 984.602,1091.71 985.556,1088.07 986.509,1078.72 987.463,1076.68 988.417,1101.8 989.371,1179.28 990.325,1071.03 991.279,1059.14 
  992.232,1055.18 993.186,1132.65 994.14,1075.63 995.094,1085.18 996.048,1150.86 997.002,1079.07 997.955,1106.72 998.909,1072.07 999.863,1068.95 1000.82,1149.89 
  1001.77,1064.61 1002.72,1084.92 1003.68,1260.57 1004.63,1100.93 1005.59,1094.87 1006.54,1135.8 1007.49,1162.55 1008.45,1100.16 1009.4,1189.91 1010.36,1151.82 
  1011.31,1152.7 1012.26,1108.25 1013.22,1185.44 1014.17,1128.39 1015.12,1090.27 1016.08,1239.53 1017.03,1115.56 1017.99,1090.26 1018.94,1139.22 1019.89,1098.87 
  1020.85,1092.6 1021.8,1117.55 1022.75,1116.41 1023.71,1220.36 1024.66,1118.93 1025.62,1306.52 1026.57,1137.26 1027.52,1149.77 1028.48,1118.37 1029.43,1134.97 
  1030.39,1170.43 1031.34,1119.53 1032.29,1122.66 1033.25,1152.58 1034.2,1181.17 1035.15,1142.88 1036.11,1114.2 1037.06,1124.49 1038.02,1123.19 1038.97,1189.28 
  1039.92,1110.26 1040.88,1124 1041.83,1166.25 1042.78,1155.74 1043.74,1129.87 1044.69,1141.54 1045.65,1183.48 1046.6,1147.8 1047.55,1160.39 1048.51,1163.8 
  1049.46,1146.86 1050.42,1240.57 1051.37,1171.72 1052.32,1211.85 1053.28,1172.55 1054.23,1138.81 1055.18,1162.79 1056.14,1160.1 1057.09,1176.24 1058.05,1194.54 
  1059,1269.87 1059.95,1340.48 1060.91,1185.03 1061.86,1180.96 1062.82,1171.27 1063.77,1172.82 1064.72,1228.37 1065.68,1203.47 1066.63,1207 1067.58,1309.52 
  1068.54,1175.03 1069.49,1178.59 1070.45,1173.14 1071.4,1174.97 1072.35,1228.43 1073.31,1235.79 1074.26,1205.26 1075.11,1286.27 1075.96,1181.19 1076.8,1180.55 
  1077.65,1157.71 1078.5,1241.24 1079.35,1173.72 1080.19,1167.42 1081.04,1175.99 1081.89,1228.73 1082.74,1207.33 1083.59,1283.2 1084.43,1191.6 1085.28,1188.01 
  1086.13,1248.35 1086.98,1246.5 1087.82,1189.39 1088.67,1235.25 1089.52,1244.81 1090.37,1222.29 1091.21,1212.6 1092.06,1223.34 1092.91,1219.49 1093.76,1209.88 
  1094.6,1211.78 1095.45,1256.7 1096.3,1242.45 1097.15,1223.53 1098,1210.25 1098.84,1201.51 1099.69,1204 1100.54,1217.27 1101.39,1445.72 1102.23,1188.27 
  1103.08,1234.64 1103.93,1253.76 1104.78,1211.47 1105.62,1270.41 1106.47,1247.93 1107.32,1274.95 1108.17,1245.82 1109.01,1231.87 1109.86,1216.4 1110.71,1313.23 
  1111.56,1313.75 1112.41,1232.08 1113.25,1217.91 1114.1,1226.46 1114.95,1306.4 1115.8,1259.12 1116.64,1257.75 1117.49,1239.16 1118.34,1233.97 1119.19,1245.86 
  1120.03,1270.64 1120.88,1213.38 1121.73,1266.95 1122.58,1249.22 1123.42,1320.98 1124.27,1232.04 1125.12,1357.02 1125.97,1243.41 1126.82,1306.36 1127.66,1229.99 
  1128.51,1236.19 1129.36,1324.58 1130.21,1445.72 1131.05,1244.61 1131.9,1250.26 1132.75,1361.42 1133.6,1244.34 1134.44,1288.24 1135.29,1262.66 1136.14,1289.28 
  1136.99,1289.81 1137.83,1290.33 1138.68,1284.83 1139.53,1321.42 1140.38,1321.93 1141.23,1266.34 1142.07,1281.83 1142.92,1310.26 1143.77,1445.72 1144.62,1278.99 
  1145.46,1275.62 1146.31,1289.55 1147.16,1296.08 1148.01,1313.37 1148.85,1236.67 1149.7,1304.98 1150.55,1269.24 1151.4,1298.69 1152.24,1279.81 1153.09,1445.72 
  1153.94,1266.23 1154.79,1266.75 1155.63,1285.8 1156.48,1272.91 1157.33,1276.32 1158.18,1319.57 1159.03,1280.52 1159.87,1265.48 1160.72,1298.43 1161.57,1334.74 
  1162.42,1322.15 1163.26,1322.66 1164.11,1445.72 1164.96,1323.69 1165.81,1281.56 1166.65,1308.06 1167.5,1297.53 1168.35,1316.39 1169.2,1339.31 1170.04,1310.14 
  1170.89,1287.86 1171.74,1318.46 1172.59,1288.9 1173.44,1341.84 1174.28,1320.01 1175.13,1307.28 1175.98,1279.88 1176.83,1343.86 1177.67,1445.72 1178.52,1445.72 
  1179.37,1445.72 1180.22,1282.5 1181.06,1283.02 1181.91,1311.43 1182.76,1311.95 1183.5,1347.81 1184.25,1348.25 1184.99,1445.72 1185.73,1313.77 1186.48,1314.22 
  1187.22,1445.72 1187.96,1328.31 1188.71,1306.17 1189.45,1306.63 1190.19,1351.74 1190.94,1352.18 1191.68,1445.72 1192.42,1353.04 1193.17,1331.45 1193.91,1318.76 
  1194.65,1332.35 1196.14,1333.24 1197.63,1334.13 1198.37,1312.09 1199.11,1335.03 1199.86,1357.37 1200.6,1357.8 1201.34,1358.23 1202.09,1336.81 1202.83,1324.18 
  1203.57,1359.51 1204.32,1359.94 1205.06,1338.59 1205.8,1325.98 1206.55,1361.22 1207.29,1361.65 1208.03,1445.72 1208.78,1340.81 1209.52,1318.89 1210.26,1445.72 
  1211.01,1342.14 1211.75,1320.25 1212.49,1445.72 1213.24,1343.46 1213.98,1343.91 1214.72,1445.72 1215.47,1344.79 1216.21,1445.72 1216.95,1445.72 1217.7,1323.87 
  1218.44,1445.72 1219.18,1346.99 1219.92,1347.43 1220.67,1347.86 1221.41,1348.3 1222.15,1326.57 1222.9,1327.02 1223.64,1445.72 1224.38,1327.92 1225.13,1328.37 
  1225.87,1315.64 1226.61,1351.36 1227.36,1351.8 1228.1,1330.16 1228.84,1445.72 1229.59,1445.72 1230.33,1353.54 1231.07,1331.96 1231.82,1319.27 1232.56,1354.84 
  1233.3,1445.72 1234.05,1445.72 1234.79,1445.72 1235.53,1356.56 1236.28,1356.99 1237.02,1335.53 1237.76,1357.85 1238.51,1336.42 1239.25,1358.71 1240.74,1359.57 
  1242.22,1360.43 1242.97,1360.85 1243.71,1361.28 1244.45,1339.98 1245.2,1445.72 1245.94,1362.56 1246.68,1445.72 1247.43,1319.41 1248.17,1319.86 1248.91,1445.72 
  1249.66,1445.72 1250.4,1343.52 1251.14,1445.72 1251.89,1344.4 1252.63,1445.72 1253.37,1345.28 1254.12,1445.72 1254.86,1346.16 1255.6,1346.6 1256.35,1347.04 
  1257.09,1445.72 1257.83,1445.72 1258.58,1326.18 1259.32,1445.72 1260.06,1445.72 1260.81,1445.72 1261.55,1445.72 1262.29,1445.72 1263.04,1350.98 1263.78,1351.42 
  1264.52,1329.77 1265.27,1330.22 1266.01,1352.72 1266.75,1353.16 1267.5,1445.72 1268.24,1354.03 1268.98,1354.46 1269.73,1354.89 1270.47,1355.32 1271.21,1445.72 
  1271.96,1445.72 1272.7,1356.62 1273.44,1445.72 1274.19,1357.48 1274.93,1445.72 1275.67,1358.34 1276.42,1358.77 1277.16,1445.72 1277.9,1359.63 1278.71,1360.09 
  1279.52,1360.56 1280.33,1361.02 1281.14,1445.72 1281.96,1361.95 1282.77,1362.42 1283.58,1445.72 1284.39,1341.69 1285.2,1342.17 1286.01,1342.65 1286.82,1343.13 
  1287.63,1445.72 1288.44,1344.1 1289.25,1445.72 1290.06,1322.79 1290.87,1345.54 1291.68,1445.72 1292.49,1324.26 1293.3,1346.98 1294.11,1347.45 1294.92,1347.93 
  1295.73,1348.41 1296.54,1348.89 1297.35,1349.36 1298.16,1349.84 1298.97,1445.72 1299.78,1350.79 1300.59,1445.72 1301.4,1329.66 1302.22,1445.72 1303.03,1445.72 
  1303.84,1331.13 1304.65,1331.62 1305.46,1354.11 1306.27,1354.58 1307.08,1445.72 1307.89,1355.53 1308.7,1356 1309.51,1445.72 1310.32,1356.94 1311.13,1445.72 
  1311.94,1357.88 1312.75,1336.49 1313.56,1445.72 1314.37,1445.72 1315.18,1445.72 1315.99,1360.21 1316.8,1445.72 1317.61,1361.14 1318.42,1361.61 1319.23,1340.36 
  1320.04,1445.72 1320.85,1318.97 1321.66,1341.81 1322.48,1445.72 1323.29,1445.72 1324.1,1343.26 1324.91,1343.74 1325.72,1445.72 1326.53,1445.72 1327.34,1445.72 
  1328.15,1323.41 1328.96,1445.72 1329.77,1324.39 1330.58,1445.72 1331.39,1347.58 1332.2,1445.72 1333.01,1445.72 1333.82,1349.01 1334.63,1349.49 1335.44,1327.83 
  1336.25,1445.72 1337.06,1328.81 1337.87,1351.39 1338.68,1445.72 1339.49,1330.28 1340.3,1352.81 1341.11,1445.72 1341.92,1331.74 1342.74,1354.23 1343.55,1354.71 
  1344.36,1445.72 1345.17,1333.69 1345.98,1445.72 1346.79,1334.67 1347.6,1445.72 1348.41,1322.54 1349.22,1358 1350.03,1445.72 1350.84,1358.93 1351.65,1337.58 
  1352.46,1359.87 1353.27,1360.33 1354.08,1339.04 1354.89,1361.27 1355.7,1445.72 1356.51,1340.49 1357.32,1340.97 1358.13,1445.72 1358.94,1341.94 1359.75,1320.09 
  1360.56,1445.72 1361.37,1445.72 1362.19,1321.57 1363,1322.06 1363.81,1344.83 1364.62,1445.72 1365.43,1445.72 1366.24,1346.27 1367.05,1445.72 1367.86,1325.01 
  1368.67,1445.72 1369.48,1325.99 1370.29,1445.72 1371.1,1304.36 1371.91,1445.72 1372.72,1350.09 1373.53,1350.56 1374.34,1328.93 1375.15,1351.51 1375.96,1351.99 
  1376.77,1330.4 1377.58,1445.72 1378.39,1445.72 1379.2,1331.87 1380.01,1354.36 1380.82,1445.72 1381.63,1333.33 1382.45,1355.77 1383.27,1356.25 1384.08,1356.72 
  1384.9,1357.19 1385.71,1335.78 1386.53,1358.14 1387.34,1445.72 1388.16,1337.25 1388.97,1359.55 1389.79,1360.02 1390.6,1338.71 1391.42,1339.2 1392.23,1326.64 
  1393.05,1445.72 1393.86,1362.36 1394.68,1445.72 1395.49,1341.63 1396.31,1342.11 1397.12,1342.6 1397.94,1343.08 1398.75,1321.26 1399.57,1344.05 1400.38,1445.72 
  1401.2,1322.75 1402.02,1345.5 1402.83,1323.74 1403.65,1346.47 1404.46,1302.08 1405.28,1347.43 1406.09,1445.72 1406.91,1326.21 1407.72,1348.87 1408.54,1445.72 
  1409.35,1327.69 1410.17,1445.72 1410.98,1350.79 1411.8,1329.17 1412.61,1329.66 1413.43,1445.72 1414.24,1445.72 1415.06,1445.72 1415.87,1445.72 1416.69,1354.13 
  1417.5,1332.61 1418.32,1355.08 1419.14,1355.55 1419.95,1356.02 1420.77,1321.46 1421.58,1356.97 1422.4,1357.44 1423.21,1336.04 1424.03,1336.53 1424.84,1337.02 
  1425.66,1445.72 1426.47,1445.72 1427.29,1445.72 1428.1,1360.73 1428.92,1361.2 1429.73,1317.56 1430.55,1362.14 1431.36,1445.72 1432.18,1319.05 1432.99,1341.89 
  1433.81,1342.37 1437.07,1344.31 1440.33,1346.24 1441.15,1324.5 1441.96,1324.99 1442.78,1347.68 1443.59,1348.17 1444.41,1313.28 1445.22,1326.97 1446.04,1349.61 
  1446.85,1327.95 1447.67,1350.56 1448.48,1351.04 1449.3,1316.26 1450.11,1445.72 1450.93,1330.41 1451.74,1330.91 1452.56,1353.43 1453.37,1318.75 1454.19,1354.38 
  1455,1332.87 1455.82,1445.72 1456.64,1445.72 1457.45,1334.34 1458.27,1356.75 1459.08,1335.32 1459.9,1357.69 1460.71,1336.3 1461.53,1445.72 1462.34,1359.11 
  1463.16,1359.58 1463.97,1360.04 1464.79,1360.51 1465.6,1445.72 1466.42,1326.67 1467.23,1445.72 1468.05,1362.38 1468.86,1341.17 1469.68,1306.05 1470.49,1445.72 
  1471.31,1342.63 1472.12,1445.72 1472.94,1445.72 1473.75,1445.72 1474.57,1344.56 1475.39,1445.72 1476.2,1345.53 1477.02,1346.01 1477.83,1346.5 1478.65,1445.72 
  1479.46,1445.72 1480.28,1445.72 1481.09,1445.72 1481.91,1445.72 1482.72,1349.38 1483.54,1327.72 1484.35,1445.72 1485.17,1445.72 1485.98,1316.03 1486.88,1316.58 
  1487.79,1352.35 1488.69,1352.88 1489.59,1353.4 1490.49,1353.93 1491.39,1332.46 1492.29,1445.72 1493.19,1445.72 1494.1,1356.03 1495,1356.55 1495.9,1357.08 
  1496.8,1357.6 1498.6,1358.64 1500.4,1359.68 1501.31,1338.41 1502.21,1360.71 1503.11,1339.49 1504.01,1317.64 1504.91,1362.26 1505.81,1341.1 1506.71,1341.64 
  1507.62,1319.84 1508.52,1320.38 1509.42,1445.72 1510.32,1343.78 1511.22,1445.72 1512.12,1322.58 1513.02,1345.38 1513.92,1323.67 1514.83,1311 1515.73,1346.98 
  1516.63,1445.72 1517.53,1445.72 1518.43,1313.21 1519.33,1326.95 1520.23,1314.31 1521.14,1328.04 1522.04,1445.72 1522.94,1329.13 1523.84,1351.76 1524.74,1352.28 
  1525.64,1352.81 1526.54,1445.72 1527.44,1331.85 1528.35,1354.39 1529.25,1332.93 1530.15,1355.44 1531.05,1355.96 1531.95,1445.72 1532.85,1335.1 1533.75,1335.64 
  1534.66,1358.05 1535.56,1358.57 1536.46,1445.72 1537.36,1324.73 1538.26,1338.34 1539.16,1338.88 1540.06,1445.72 1540.96,1445.72 1541.87,1362.2 1542.77,1318.67 
  1543.67,1341.57 1544.57,1342.11 1545.47,1342.64 1546.37,1307.62 1547.27,1445.72 1548.18,1445.72 1549.08,1344.78 1549.98,1445.72 1550.88,1300.94 1551.78,1346.38 
  1552.68,1346.92 1553.58,1347.45 1554.48,1325.79 1555.39,1326.33 1556.29,1445.72 1557.19,1327.43 1558.09,1327.97 1558.99,1315.34 1559.89,1329.06 1560.79,1445.72 
  1561.7,1316.99 1562.6,1352.75 1563.5,1331.24 1564.4,1445.72 1565.3,1354.32 1566.2,1310.34 1567.1,1355.37 1568,1445.72 1568.91,1356.42 1569.81,1356.94 
  1570.71,1445.72 1571.61,1336.11 1572.51,1336.65 1573.41,1359.03 1574.31,1445.72 1575.22,1445.72 1576.12,1360.58 1577.02,1361.1 1577.92,1361.62 1578.82,1362.13 
  1579.72,1318.6 1580.62,1341.5 1581.52,1306.44 1582.43,1320.25 1583.33,1320.79 1584.23,1445.72 1585.13,1445.72 1586.03,1309.21 1586.93,1309.76 1587.83,1445.72 
  1588.73,1445.72 1589.64,1324.63 1590.54,1445.72 1591.44,1445.72 1592.34,1348.45 1593.24,1348.98 1594.14,1314.17 1595.04,1445.72 1595.95,1350.57 1596.85,1351.09 
  1597.75,1351.62 1598.65,1352.15 1599.55,1445.72 1600.45,1353.21 1601.35,1331.71 1602.21,1445.72 1603.07,1319.61 1603.93,1320.13 1604.78,1320.66 1605.64,1356.23 
  1606.5,1321.7 1607.36,1357.22 1608.21,1445.72 1609.07,1445.72 1609.93,1307.11 1610.79,1337.38 1611.64,1359.7 1612.5,1360.19 1613.36,1360.68 1614.22,1361.18 
  1615.08,1339.94 1618.51,1341.99 1621.94,1344.03 1622.79,1344.53 1623.65,1322.77 1624.51,1345.55 1625.37,1323.81 1626.22,1346.57 1627.08,1445.72 1627.94,1445.72 
  1628.8,1325.89 1629.65,1348.59 1630.51,1326.93 1631.37,1445.72 1632.23,1445.72 1633.08,1328.49 1633.94,1445.72 1634.8,1316.36 1635.66,1307.47 1636.51,1352.62 
  1637.37,1331.08 1638.23,1301.73 1639.09,1354.12 1639.95,1332.63 1640.8,1445.72 1641.66,1333.66 1642.52,1445.72 1643.38,1304.89 1644.23,1335.21 1645.09,1335.72 
  1645.95,1336.24 1646.81,1323.67 1647.66,1337.26 1648.52,1337.78 1649.38,1360.08 1650.24,1338.8 1651.09,1339.31 1651.95,1339.83 1652.81,1340.34 1654.52,1341.36 
  1656.24,1320.05 1657.1,1320.57 1657.95,1343.4 1658.81,1308.38 1659.67,1322.14 1661.39,1323.18 1663.1,1324.22 1664.82,1325.26 1666.53,1326.3 1667.39,1348.98 
  1668.25,1349.49 1669.1,1349.99 1669.96,1315.2 1670.82,1445.72 1671.68,1351.5 1672.53,1316.77 1673.39,1352.5 1674.25,1317.81 1675.11,1331.48 1675.96,1354.01 
  1676.82,1445.72 1677.68,1333.03 1678.54,1303.72 1679.39,1334.06 1680.25,1321.47 1681.11,1335.09 1681.97,1299.83 1682.83,1357.99 1683.68,1336.63 1684.54,1358.98 
  1685.4,1315.23 1686.26,1359.97 1687.11,1338.69 1687.97,1326.15 1688.83,1361.45 1689.69,1361.94 1690.54,1362.43 1691.4,1305.63 1692.26,1341.76 1693.12,1319.93 
  1693.97,1445.72 1694.83,1445.72 1695.69,1343.8 1696.55,1344.31 1697.4,1445.72 1698.26,1445.72 1699.12,1345.83 1699.98,1310.88 1700.83,1346.85 1701.69,1311.93 
  1702.55,1312.46 1703.41,1348.36 1704.26,1304.08 1705.12,1349.37 1705.98,1327.74 1706.84,1350.38 1707.7,1350.89 1708.55,1329.29 1709.41,1329.81 1710.27,1330.33 
  1711.13,1330.85 1712.02,1353.41 1712.91,1353.94 1713.8,1354.46 1714.69,1319.87 1715.58,1320.41 1716.48,1356.01 1717.37,1356.53 1718.26,1322.04 1719.15,1313.2 
  1720.04,1313.75 1720.93,1358.59 1721.83,1359.11 1722.72,1445.72 1723.61,1338.35 1724.5,1338.88 1725.39,1445.72 1726.28,1317.56 1727.18,1304.83 1728.07,1445.72 
  1728.96,1341.54 1729.85,1445.72 1730.74,1342.6 1731.63,1343.13 1732.53,1321.36 1733.42,1321.9 1734.31,1309.21 1735.2,1445.72 1736.09,1310.3 1736.98,1346.3 
  1737.88,1346.83 1738.77,1445.72 1739.66,1347.88 1740.55,1348.41 1741.44,1326.77 1742.34,1349.46 1743.23,1349.98 1744.12,1350.51 1745.01,1445.72 1745.9,1306.88 
  1746.79,1352.07 1747.69,1352.6 1748.58,1353.12 1749.47,1353.64 1750.36,1354.16 1751.25,1319.56 1752.14,1333.23 1753.04,1292.87 1753.93,1356.23 1754.82,1321.73 
  1755.71,1335.37 1756.6,1335.9 1757.49,1336.44 1758.39,1358.81 1759.28,1337.51 1760.17,1338.04 1761.06,1445.72 1761.95,1316.7 1762.84,1361.38 1763.74,1340.17 
  1764.63,1327.68 1765.52,1341.24 1766.41,1341.77 1767.3,1445.72 1768.19,1445.72 1769.09,1307.8 1769.98,1343.89 1770.87,1322.13 1771.76,1309.44 1772.65,1323.21 
  1773.54,1323.76 1774.44,1346.53 1775.33,1311.63 1776.22,1347.58 1777.11,1445.72 1778,1326.46 1778.89,1349.16 1779.79,1314.35 1780.68,1314.9 1781.57,1328.62 
  1782.46,1315.99 1783.35,1445.72 1784.25,1445.72 1785.14,1308.21 1786.03,1353.34 1786.92,1331.85 1787.81,1445.72 1788.7,1319.79 1789.6,1333.46 1790.49,1333.99 
  1791.38,1445.72 1792.27,1335.06 1793.16,1335.6 1794.05,1358.01 1794.95,1358.52 1795.84,1445.72 1796.73,1359.55 1797.62,1360.06 1798.51,1445.72 1799.4,1339.34 
  1800.3,1445.72 1801.19,1445.72 1802.08,1318.57 1802.97,1305.85 1803.86,1341.99 1804.75,1306.95 1805.65,1445.72 1806.54,1343.59 1807.43,1308.59 1808.32,1445.72 
  1809.21,1322.91 1810.1,1323.45 1811,1346.23 1811.89,1346.75 1812.78,1325.07 1813.67,1445.72 1814.56,1326.15 1815.45,1348.86 1816.35,1327.23 1817.24,1327.77 
  1818.13,1445.72 1819.02,1306.26 1819.91,1351.48 1820.8,1352 1821.7,1307.9 1822.59,1353.04 1823.48,1353.56 1824.37,1445.72 1825.26,1445.72 1826.01,1355.04 
  1826.76,1355.48 1827.52,1355.91 1828.27,1356.35 1829.02,1334.87 1829.77,1312.84 1830.52,1445.72 1831.27,1445.72 1832.02,1445.72 1832.77,1358.96 1833.52,1359.39 
  1834.27,1324.95 1835.02,1308.75 1835.77,1325.86 1836.52,1361.12 1837.27,1445.72 1838.02,1361.98 1838.77,1340.71 1839.52,1341.16 1840.28,1341.6 1841.03,1306.46 
  1841.78,1342.5 1842.53,1320.62 1843.28,1321.08 1844.03,1445.72 1844.78,1445.72 1845.53,1445.72 1846.28,1345.17 1847.03,1445.72 1847.78,1310.6 1848.53,1311.06 
  1849.28,1346.95 1850.03,1347.39 1850.78,1445.72 1851.53,1326.09 1852.29,1348.72 1853.04,1349.16 1853.79,1349.6 1854.54,1327.91 1855.29,1350.48 1856.04,1315.64 
  1856.79,1329.27 1857.54,1351.81 1858.29,1352.25 1859.04,1445.72 1859.79,1445.72 1860.54,1308.99 1861.29,1309.45 1862.04,1319.31 1862.79,1319.76 1863.54,1333.34 
  1864.3,1333.79 1865.05,1321.13 1865.8,1321.59 1866.55,1357.05 1867.3,1357.49 1868.05,1357.92 1868.8,1323.41 1869.55,1314.5 1870.3,1445.72 1871.05,1324.78 
  1871.8,1308.58 1872.55,1325.69 1873.3,1326.14 1874.05,1445.72 1874.8,1361.81 1875.55,1340.54 1876.31,1340.99 1877.06,1341.43 1877.81,1341.88 1878.56,1306.74 
  1879.31,1307.2 1880.06,1343.22 1880.81,1298.67 1881.56,1344.11 1882.31,1445.72 1883.06,1345 1883.81,1345.45 1884.56,1323.64 1885.31,1346.33 1886.06,1294.56 
  1886.81,1445.72 1887.56,1445.72 1888.32,1348.11 1889.07,1313.18 1889.82,1304.21 1890.57,1349.43 1891.32,1327.74 1892.07,1328.19 1892.82,1298.72 1893.57,1445.72 
  1894.32,1445.72 1895.07,1330 1895.82,1330.46 1896.57,1352.95 1897.32,1353.39 1898.07,1445.72 1898.82,1354.27 1899.57,1332.72 1900.33,1355.14 1901.08,1333.62 
  1901.83,1356.02 1902.58,1356.45 1903.33,1445.72 1904.08,1335.43 1904.83,1357.76 1905.58,1445.72 1906.33,1336.78 1907.08,1337.23 1907.83,1359.49 1908.58,1359.92 
  1909.33,1338.57 1910.08,1316.62 1910.83,1361.22 1911.58,1361.65 1912.34,1299.66 1913.09,1445.72 1913.84,1341.26 1914.59,1341.71 1915.34,1445.72 1916.09,1320.27 
  1916.84,1307.48 1917.59,1445.72 1918.34,1343.94 1919.09,1322.1 1919.84,1344.83 1920.59,1445.72 1921.34,1323.47 1922.26,1324.02 1923.18,1324.58 1924.09,1347.34 
  1925.01,1295.72 1925.92,1445.72 1926.84,1348.97 1927.76,1314.17 1928.67,1327.91 1929.59,1350.58 1930.51,1306.43 1931.42,1306.99 1932.34,1307.56 1933.26,1317.52 
  1934.17,1445.72 1935.09,1353.8 1936.01,1309.8 1936.92,1354.87 1937.84,1333.44 1938.75,1355.93 1939.67,1445.72 1940.59,1294.23 1941.5,1357.53 1942.42,1358.06 
  1943.34,1336.74 1944.25,1359.12 1945.17,1359.64 1946.09,1360.17 1947,1338.93 1947.92,1309.79 1948.84,1317.64 1949.75,1327.54 1950.67,1341.12 1951.58,1341.67 
  1952.5,1445.72 1953.42,1320.43 1954.33,1307.75 1955.25,1445.72 1956.17,1344.39 1957.08,1322.66 1958,1345.48 1958.92,1301.11 1959.83,1445.72 1960.75,1302.24 
  1961.67,1325.44 1962.58,1326 1963.5,1348.72 1964.41,1327.11 1965.33,1314.48 1966.25,1445.72 1967.16,1350.88 1968.08,1316.15 1969,1351.95 1969.91,1352.49 
  1970.83,1353.02 1971.75,1331.53 1972.66,1332.09 1973.58,1310.11 1974.5,1445.72 1975.41,1355.69 1976.33,1356.23 1977.24,1334.84 1978.16,1299.61 1979.08,1357.82 
  1979.99,1358.35 1980.91,1323.96 1981.83,1359.41 1982.74,1338.14 1983.66,1316.27 1984.58,1339.23 1985.49,1326.74 1986.41,1340.33 1987.33,1445.72 1988.24,1341.42 
  1989.16,1341.97 1990.07,1342.51 1990.99,1320.74 1991.91,1445.72 1992.82,1445.72 1993.74,1322.41 1994.66,1345.23 1995.57,1345.77 1996.49,1346.32 1997.41,1324.64 
  1998.32,1325.19 1999.24,1347.94 2000.15,1445.72 2001.07,1349.02 2001.99,1314.22 2002.9,1314.78 2003.82,1350.64 2004.74,1351.17 2005.65,1445.72 2006.57,1294.28 
  2007.49,1330.73 2008.4,1331.29 2009.32,1331.84 2010.24,1445.72 2011.15,1310.42 2012.07,1445.72 2012.98,1355.99 2013.9,1321.49 2014.82,1335.15 2015.73,1445.72 
  2016.65,1358.11 2017.57,1358.64 2018.48,1359.17 2019.4,1359.7 2020.32,1445.72 2021.23,1445.72 2022.15,1326.49 2023.07,1327.04 2023.98,1310.97 2024.9,1341.18 
  2025.81,1341.72 2026.73,1342.27 2027.65,1320.49 2028.56,1307.8 2029.48,1321.6 2030.4,1322.16 2031.31,1322.72 2032.23,1345.53 2033.15,1445.72 2034.06,1346.61 
  2034.98,1347.16 2035.9,1445.72 2036.81,1348.24 2037.73,1303.99 2038.64,1327.16 2039.51,1291.73 2040.37,1305.61 2041.23,1350.84 2042.09,1351.34 2042.95,1351.85 
  2043.81,1300.39 2044.67,1445.72 2045.54,1318.18 2046.4,1445.72 2047.26,1296.51 2048.12,1354.86 2048.98,1333.4 2049.84,1304.1 2050.71,1445.72 2051.57,1356.87 
  2052.43,1335.47 2053.29,1335.99 2054.15,1358.36 2055.01,1445.72 2055.87,1359.36 2056.74,1359.85 2057.6,1325.51 2058.46,1360.84 2059.32,1326.55 2060.18,1361.83 
  2061.04,1327.59 2061.9,1445.72 2062.77,1445.72 2063.63,1342.16 2064.49,1307.1 2065.35,1343.19 2066.21,1321.4 2067.07,1321.92 2067.93,1445.72 2068.8,1309.74 
  2069.66,1345.74 2070.52,1310.8 2071.38,1346.76 2072.24,1347.27 2073.1,1445.72 2073.96,1445.72 2074.83,1348.8 2075.69,1349.3 2076.55,1327.67 2077.41,1445.72 
  2078.27,1315.54 2079.13,1445.72 2080,1329.75 2080.86,1352.34 2081.72,1352.84 2082.58,1445.72 2083.44,1445.72 2084.3,1309.82 2085.16,1445.72 2086.03,1355.35 
  2086.89,1320.78 2087.75,1311.92 2088.61,1445.72 2089.47,1322.36 2090.33,1357.85 2091.19,1358.35 2092.06,1314.56 2092.92,1301.8 2093.78,1324.97 2094.64,1308.84 
  2095.5,1360.83 2096.36,1339.58 2097.22,1327.06 2098.09,1362.31 2098.95,1318.76 2099.81,1319.29 2100.67,1445.72 2101.53,1342.66 2102.39,1343.17 2103.25,1343.68 
  2104.12,1299.22 2104.98,1322.43 2105.84,1345.22 2106.7,1323.48 2107.56,1310.78 2108.42,1346.75 2109.28,1302.4 2110.15,1347.76 2111.01,1445.72 2111.87,1348.78 
  2112.73,1445.72 2113.59,1349.79 2114.45,1314.99 2115.32,1328.69 2116.18,1329.21 2117.04,1445.72 2117.9,1352.32 2118.76,1300.89 2119.62,1318.15 2120.48,1318.67 
  2121.35,1302.48 2122.21,1354.83 2123.07,1355.34 2123.93,1311.38 2124.79,1321.29 2125.65,1321.82 2126.51,1312.96 2127.38,1335.96 2128.24,1358.33 2129.1,1358.83 
  2129.96,1359.33 2130.82,1445.72 2131.68,1308.82 2132.54,1326 2133.41,1317.17 2134.27,1310.41 2135.13,1340.59 2135.99,1341.11 2136.85,1445.72 2137.71,1445.72 
  2138.57,1320.32 2139.44,1320.84 2140.3,1308.13 2141.16,1308.65 2142.02,1344.69 2142.88,1322.94 2143.74,1345.71 2144.6,1323.98 2145.47,1346.73 2146.33,1311.82 
  2147.19,1325.55 2148.05,1326.07 2148.91,1313.4 2150.29,1314.24 2151.67,1315.09 2153.05,1329.1 2154.43,1445.72 2155.81,1330.76 2157.19,1309.05 2158.57,1354.43 
  2159.95,1320.13 2161.33,1445.72 2162.71,1299.13 2164.09,1445.72 2165.47,1336.57 2166.85,1307.66 2168.23,1360.02 2169.61,1360.81 2170.99,1361.61 2172.37,1362.4 
  2173.75,1341.52 2175.13,1342.34 2176.51,1343.16 2179.28,1344.8 2182.04,1346.44 2183.42,1311.83 2184.8,1325.88 2186.18,1326.71 2187.56,1327.55 2188.94,1315.2 
  2190.32,1445.72 2191.7,1352.12 2193.08,1295 2194.46,1353.73 2195.84,1302.7 2197.22,1292.47 2198.6,1304.39 2199.98,1445.72 2201.36,1357.74 2202.74,1445.72 
  2204.12,1337.52 2205.5,1325.28 2206.88,1326.12 2208.26,1361.72 2209.64,1362.51 2211.02,1306.03 2212.4,1445.72 2213.78,1307.72 2215.16,1321.81 2217.92,1323.48 
  2220.68,1325.16 2222.06,1303.37 2223.44,1304.21 2224.82,1349.81 2226.2,1328.5 2227.58,1445.72 2228.96,1352.24 2230.34,1445.72 2231.72,1353.85 2233.1,1302.82 
  2234.48,1320.37 2235.86,1445.72 2237.24,1445.72 2238.62,1445.72 2240,1445.72 2241.38,1359.45 2242.76,1360.24 2244.14,1326.24 2245.52,1361.83 2246.9,1318.57 
  2248.28,1445.72 2249.66,1320.25 2251.04,1321.09 2252.42,1344.22 2253.8,1345.03 2255.18,1310.38 2256.56,1346.67 2257.94,1347.48 2259.32,1326.11 2260.7,1349.11 
  2262.08,1349.92 2263.46,1445.72 2264.84,1299.54 2266.22,1317.13 2267.6,1353.16 2268.98,1309.41 2270.36,1296.94 2271.74,1355.57 2273.12,1356.37 2274.5,1322.17 
  2275.88,1357.97 2277.26,1323.84 2278.64,1302.03 2280.02,1338.58 2281.4,1361.15 2282.79,1304.58 2284.17,1445.72 2285.55,1319.53 2286.93,1307.12 2288.31,1321.2 
  2289.69,1322.04 2291.07,1322.88 2292.45,1310.5 2293.83,1324.56 2295.21,1325.39 2296.59,1348.41 2297.97,1304.45 2299.35,1327.9 2300.73,1328.74 2302.11,1329.57 
  2303.49,1330.4 2306.25,1332.07 2309.01,1333.73 2310.39,1334.56 2311.77,1305.6 2313.15,1313.75 2314.53,1314.59 2315.91,1359.67 2317.29,1308.98 2318.67,1326.47 
  2320.05,1327.31 2321.43,1341.16 2322.81,1445.72 2324.19,1297.78 2325.57,1343.63 2325.78,1445.72 2325.99,1445.72 2326.21,1308.47 2326.42,1308.6 2326.84,1322.1 
  2327.27,1322.36 2327.48,1322.49 2327.69,1344.89 2327.91,1445.72 2328.12,1322.87 2328.33,1292.98 2328.54,1309.9 2328.76,1293.25 2328.97,1445.72 2329.18,1323.52 
  2329.39,1310.42 2329.6,1278.24 2329.82,1301.25 2330.03,1324.03 2330.24,1283.05 2330.45,1301.64 2330.67,1346.65 2330.88,1445.72 2331.09,1346.9 2331.3,1347.02 
  2331.52,1445.72 2331.73,1445.72 2331.94,1325.19 2332.15,1312.11 2332.37,1312.24 2332.58,1347.78 2332.79,1312.5 2333,1325.84 2333.22,1348.15 2333.43,1326.09 
  2333.64,1326.22 2333.85,1348.53 2334.07,1348.65 2334.28,1313.41 2334.49,1348.9 2334.7,1326.86 2334.91,1445.72 2335.13,1445.72 2335.34,1349.4 2335.55,1314.19 
  2335.76,1349.65 2335.98,1327.64 2336.19,1445.72 2336.4,1327.89 2336.61,1350.15 2336.83,1305.55 2337.04,1305.68 2337.25,1328.41 2337.46,1287.52 2337.68,1350.78 
  2337.89,1328.79 2338.1,1351.03 2338.31,1299.13 2338.53,1351.27 2338.74,1445.72 2338.95,1316.27 2339.16,1329.56 2339.37,1351.77 2339.59,1307.25 2339.8,1316.78 
  2340.01,1316.91 2340.22,1317.04 2340.44,1352.39 2340.65,1352.52 2340.86,1330.59 2341.07,1352.77 2341.29,1352.89 2341.5,1353.01 2341.71,1290.14 2341.92,1331.23 
  2342.14,1353.39 2342.35,1331.48 2342.56,1445.72 2342.77,1309.2 2342.99,1353.88 2343.2,1309.46 2343.41,1318.99 2343.62,1332.25 2343.84,1354.38 2344.05,1296.66 
  2344.26,1445.72 2344.47,1319.63 2344.68,1319.76 2344.9,1319.89 2345.11,1297.31 2345.32,1355.24 2345.53,1333.4 2345.75,1320.41 2345.96,1333.66 2346.17,1445.72 
  2346.38,1311.41 2346.6,1445.72 2346.81,1321.05 2347.02,1334.3 2347.23,1311.93 2347.45,1312.06 2347.66,1334.68 2347.87,1356.72 2348.08,1334.93 2348.3,1312.58 
  2348.51,1357.09 2348.72,1357.22 2348.93,1322.34 2349.15,1335.57 2349.36,1445.72 2349.57,1357.71 2349.78,1445.72 2349.99,1357.95 2350.21,1300.45 2350.42,1445.72 
  2350.63,1336.46 2350.84,1358.44 2351.06,1300.97 2351.27,1336.84 2351.48,1358.81 2351.69,1324.02 2351.91,1307.48 2352.12,1445.72 2352.33,1324.41 2352.54,1359.43 
  2352.76,1324.67 
  "/>
<path clip-path="url(#clip490)" d="
M1991.34 198.898 L2281.45 198.898 L2281.45 95.2176 L1991.34 95.2176  Z
  " fill="#ffffff" fill-rule="evenodd" fill-opacity="1"/>
<polyline clip-path="url(#clip490)" style="stroke:#000000; stroke-linecap:butt; stroke-linejoin:round; stroke-width:4; stroke-opacity:1; fill:none" points="
  1991.34,198.898 2281.45,198.898 2281.45,95.2176 1991.34,95.2176 1991.34,198.898 
  "/>
<polyline clip-path="url(#clip490)" style="stroke:#009af9; stroke-linecap:butt; stroke-linejoin:round; stroke-width:4; stroke-opacity:1; fill:none" points="
  2015.11,147.058 2157.72,147.058 
  "/>
<path clip-path="url(#clip490)" d="M2195.33 166.745 Q2193.52 171.375 2191.81 172.787 Q2190.1 174.199 2187.22 174.199 L2183.82 174.199 L2183.82 170.634 L2186.32 170.634 Q2188.08 170.634 2189.05 169.8 Q2190.03 168.967 2191.21 165.865 L2191.97 163.921 L2181.48 138.412 L2186 138.412 L2194.1 158.689 L2202.2 138.412 L2206.72 138.412 L2195.33 166.745 Z" fill="#000000" fill-rule="evenodd" fill-opacity="1" /><path clip-path="url(#clip490)" d="M2214.01 160.402 L2221.65 160.402 L2221.65 134.037 L2213.34 135.703 L2213.34 131.444 L2221.6 129.778 L2226.28 129.778 L2226.28 160.402 L2233.91 160.402 L2233.91 164.338 L2214.01 164.338 L2214.01 160.402 Z" fill="#000000" fill-rule="evenodd" fill-opacity="1" /></svg>
