<?xml version="1.0" encoding="utf-8"?>
<svg xmlns="http://www.w3.org/2000/svg" xmlns:xlink="http://www.w3.org/1999/xlink" width="600" height="400" viewBox="0 0 2400 1600">
<defs>
  <clipPath id="clip960">
    <rect x="0" y="0" width="2400" height="1600"/>
  </clipPath>
</defs>
<path clip-path="url(#clip960)" d="
M0 1600 L2400 1600 L2400 0 L0 0  Z
  " fill="#ffffff" fill-rule="evenodd" fill-opacity="1"/>
<defs>
  <clipPath id="clip961">
    <rect x="480" y="0" width="1681" height="1600"/>
  </clipPath>
</defs>
<path clip-path="url(#clip960)" d="
M216.922 1486.45 L2352.76 1486.45 L2352.76 47.2441 L216.922 47.2441  Z
  " fill="#ffffff" fill-rule="evenodd" fill-opacity="1"/>
<defs>
  <clipPath id="clip962">
    <rect x="216" y="47" width="2137" height="1440"/>
  </clipPath>
</defs>
<polyline clip-path="url(#clip962)" style="stroke:#000000; stroke-linecap:butt; stroke-linejoin:round; stroke-width:2; stroke-opacity:0.1; fill:none" points="
  277.37,1486.45 277.37,47.2441 
  "/>
<polyline clip-path="url(#clip962)" style="stroke:#000000; stroke-linecap:butt; stroke-linejoin:round; stroke-width:2; stroke-opacity:0.1; fill:none" points="
  781.105,1486.45 781.105,47.2441 
  "/>
<polyline clip-path="url(#clip962)" style="stroke:#000000; stroke-linecap:butt; stroke-linejoin:round; stroke-width:2; stroke-opacity:0.1; fill:none" points="
  1284.84,1486.45 1284.84,47.2441 
  "/>
<polyline clip-path="url(#clip962)" style="stroke:#000000; stroke-linecap:butt; stroke-linejoin:round; stroke-width:2; stroke-opacity:0.1; fill:none" points="
  1788.57,1486.45 1788.57,47.2441 
  "/>
<polyline clip-path="url(#clip962)" style="stroke:#000000; stroke-linecap:butt; stroke-linejoin:round; stroke-width:2; stroke-opacity:0.1; fill:none" points="
  2292.31,1486.45 2292.31,47.2441 
  "/>
<polyline clip-path="url(#clip960)" style="stroke:#000000; stroke-linecap:butt; stroke-linejoin:round; stroke-width:4; stroke-opacity:1; fill:none" points="
  216.922,1486.45 2352.76,1486.45 
  "/>
<polyline clip-path="url(#clip960)" style="stroke:#000000; stroke-linecap:butt; stroke-linejoin:round; stroke-width:4; stroke-opacity:1; fill:none" points="
  277.37,1486.45 277.37,1467.55 
  "/>
<polyline clip-path="url(#clip960)" style="stroke:#000000; stroke-linecap:butt; stroke-linejoin:round; stroke-width:4; stroke-opacity:1; fill:none" points="
  781.105,1486.45 781.105,1467.55 
  "/>
<polyline clip-path="url(#clip960)" style="stroke:#000000; stroke-linecap:butt; stroke-linejoin:round; stroke-width:4; stroke-opacity:1; fill:none" points="
  1284.84,1486.45 1284.84,1467.55 
  "/>
<polyline clip-path="url(#clip960)" style="stroke:#000000; stroke-linecap:butt; stroke-linejoin:round; stroke-width:4; stroke-opacity:1; fill:none" points="
  1788.57,1486.45 1788.57,1467.55 
  "/>
<polyline clip-path="url(#clip960)" style="stroke:#000000; stroke-linecap:butt; stroke-linejoin:round; stroke-width:4; stroke-opacity:1; fill:none" points="
  2292.31,1486.45 2292.31,1467.55 
  "/>
<path clip-path="url(#clip960)" d="M223.898 1532.02 L253.574 1532.02 L253.574 1535.95 L223.898 1535.95 L223.898 1532.02 Z" fill="#000000" fill-rule="evenodd" fill-opacity="1" /><path clip-path="url(#clip960)" d="M264.477 1544.91 L272.116 1544.91 L272.116 1518.55 L263.805 1520.21 L263.805 1515.95 L272.069 1514.29 L276.745 1514.29 L276.745 1544.91 L284.384 1544.91 L284.384 1548.85 L264.477 1548.85 L264.477 1544.91 Z" fill="#000000" fill-rule="evenodd" fill-opacity="1" /><path clip-path="url(#clip960)" d="M293.828 1542.97 L298.713 1542.97 L298.713 1548.85 L293.828 1548.85 L293.828 1542.97 Z" fill="#000000" fill-rule="evenodd" fill-opacity="1" /><path clip-path="url(#clip960)" d="M318.898 1517.37 Q315.287 1517.37 313.458 1520.93 Q311.652 1524.47 311.652 1531.6 Q311.652 1538.71 313.458 1542.27 Q315.287 1545.82 318.898 1545.82 Q322.532 1545.82 324.337 1542.27 Q326.166 1538.71 326.166 1531.6 Q326.166 1524.47 324.337 1520.93 Q322.532 1517.37 318.898 1517.37 M318.898 1513.66 Q324.708 1513.66 327.763 1518.27 Q330.842 1522.85 330.842 1531.6 Q330.842 1540.33 327.763 1544.94 Q324.708 1549.52 318.898 1549.52 Q313.088 1549.52 310.009 1544.94 Q306.953 1540.33 306.953 1531.6 Q306.953 1522.85 310.009 1518.27 Q313.088 1513.66 318.898 1513.66 Z" fill="#000000" fill-rule="evenodd" fill-opacity="1" /><path clip-path="url(#clip960)" d="M728.13 1532.02 L757.806 1532.02 L757.806 1535.95 L728.13 1535.95 L728.13 1532.02 Z" fill="#000000" fill-rule="evenodd" fill-opacity="1" /><path clip-path="url(#clip960)" d="M777.899 1517.37 Q774.287 1517.37 772.459 1520.93 Q770.653 1524.47 770.653 1531.6 Q770.653 1538.71 772.459 1542.27 Q774.287 1545.82 777.899 1545.82 Q781.533 1545.82 783.338 1542.27 Q785.167 1538.71 785.167 1531.6 Q785.167 1524.47 783.338 1520.93 Q781.533 1517.37 777.899 1517.37 M777.899 1513.66 Q783.709 1513.66 786.764 1518.27 Q789.843 1522.85 789.843 1531.6 Q789.843 1540.33 786.764 1544.94 Q783.709 1549.52 777.899 1549.52 Q772.088 1549.52 769.01 1544.94 Q765.954 1540.33 765.954 1531.6 Q765.954 1522.85 769.01 1518.27 Q772.088 1513.66 777.899 1513.66 Z" fill="#000000" fill-rule="evenodd" fill-opacity="1" /><path clip-path="url(#clip960)" d="M798.06 1542.97 L802.945 1542.97 L802.945 1548.85 L798.06 1548.85 L798.06 1542.97 Z" fill="#000000" fill-rule="evenodd" fill-opacity="1" /><path clip-path="url(#clip960)" d="M813.176 1514.29 L831.533 1514.29 L831.533 1518.22 L817.459 1518.22 L817.459 1526.7 Q818.477 1526.35 819.496 1526.19 Q820.514 1526 821.533 1526 Q827.32 1526 830.699 1529.17 Q834.079 1532.34 834.079 1537.76 Q834.079 1543.34 830.607 1546.44 Q827.134 1549.52 820.815 1549.52 Q818.639 1549.52 816.371 1549.15 Q814.125 1548.78 811.718 1548.04 L811.718 1543.34 Q813.801 1544.47 816.023 1545.03 Q818.246 1545.58 820.722 1545.58 Q824.727 1545.58 827.065 1543.48 Q829.403 1541.37 829.403 1537.76 Q829.403 1534.15 827.065 1532.04 Q824.727 1529.94 820.722 1529.94 Q818.847 1529.94 816.972 1530.35 Q815.121 1530.77 813.176 1531.65 L813.176 1514.29 Z" fill="#000000" fill-rule="evenodd" fill-opacity="1" /><path clip-path="url(#clip960)" d="M1262.22 1517.37 Q1258.61 1517.37 1256.78 1520.93 Q1254.98 1524.47 1254.98 1531.6 Q1254.98 1538.71 1256.78 1542.27 Q1258.61 1545.82 1262.22 1545.82 Q1265.86 1545.82 1267.66 1542.27 Q1269.49 1538.71 1269.49 1531.6 Q1269.49 1524.47 1267.66 1520.93 Q1265.86 1517.37 1262.22 1517.37 M1262.22 1513.66 Q1268.03 1513.66 1271.09 1518.27 Q1274.17 1522.85 1274.17 1531.6 Q1274.17 1540.33 1271.09 1544.94 Q1268.03 1549.52 1262.22 1549.52 Q1256.41 1549.52 1253.33 1544.94 Q1250.28 1540.33 1250.28 1531.6 Q1250.28 1522.85 1253.33 1518.27 Q1256.41 1513.66 1262.22 1513.66 Z" fill="#000000" fill-rule="evenodd" fill-opacity="1" /><path clip-path="url(#clip960)" d="M1282.39 1542.97 L1287.27 1542.97 L1287.27 1548.85 L1282.39 1548.85 L1282.39 1542.97 Z" fill="#000000" fill-rule="evenodd" fill-opacity="1" /><path clip-path="url(#clip960)" d="M1307.45 1517.37 Q1303.84 1517.37 1302.01 1520.93 Q1300.21 1524.47 1300.21 1531.6 Q1300.21 1538.71 1302.01 1542.27 Q1303.84 1545.82 1307.45 1545.82 Q1311.09 1545.82 1312.89 1542.27 Q1314.72 1538.71 1314.72 1531.6 Q1314.72 1524.47 1312.89 1520.93 Q1311.09 1517.37 1307.45 1517.37 M1307.45 1513.66 Q1313.26 1513.66 1316.32 1518.27 Q1319.4 1522.85 1319.4 1531.6 Q1319.4 1540.33 1316.32 1544.94 Q1313.26 1549.52 1307.45 1549.52 Q1301.64 1549.52 1298.57 1544.94 Q1295.51 1540.33 1295.51 1531.6 Q1295.51 1522.85 1298.57 1518.27 Q1301.64 1513.66 1307.45 1513.66 Z" fill="#000000" fill-rule="evenodd" fill-opacity="1" /><path clip-path="url(#clip960)" d="M1766.46 1517.37 Q1762.84 1517.37 1761.02 1520.93 Q1759.21 1524.47 1759.21 1531.6 Q1759.21 1538.71 1761.02 1542.27 Q1762.84 1545.82 1766.46 1545.82 Q1770.09 1545.82 1771.9 1542.27 Q1773.72 1538.71 1773.72 1531.6 Q1773.72 1524.47 1771.9 1520.93 Q1770.09 1517.37 1766.46 1517.37 M1766.46 1513.66 Q1772.27 1513.66 1775.32 1518.27 Q1778.4 1522.85 1778.4 1531.6 Q1778.4 1540.33 1775.32 1544.94 Q1772.27 1549.52 1766.46 1549.52 Q1760.65 1549.52 1757.57 1544.94 Q1754.51 1540.33 1754.51 1531.6 Q1754.51 1522.85 1757.57 1518.27 Q1760.65 1513.66 1766.46 1513.66 Z" fill="#000000" fill-rule="evenodd" fill-opacity="1" /><path clip-path="url(#clip960)" d="M1786.62 1542.97 L1791.5 1542.97 L1791.5 1548.85 L1786.62 1548.85 L1786.62 1542.97 Z" fill="#000000" fill-rule="evenodd" fill-opacity="1" /><path clip-path="url(#clip960)" d="M1801.73 1514.29 L1820.09 1514.29 L1820.09 1518.22 L1806.02 1518.22 L1806.02 1526.7 Q1807.03 1526.35 1808.05 1526.19 Q1809.07 1526 1810.09 1526 Q1815.88 1526 1819.26 1529.17 Q1822.64 1532.34 1822.64 1537.76 Q1822.64 1543.34 1819.16 1546.44 Q1815.69 1549.52 1809.37 1549.52 Q1807.2 1549.52 1804.93 1549.15 Q1802.68 1548.78 1800.27 1548.04 L1800.27 1543.34 Q1802.36 1544.47 1804.58 1545.03 Q1806.8 1545.58 1809.28 1545.58 Q1813.28 1545.58 1815.62 1543.48 Q1817.96 1541.37 1817.96 1537.76 Q1817.96 1534.15 1815.62 1532.04 Q1813.28 1529.94 1809.28 1529.94 Q1807.4 1529.94 1805.53 1530.35 Q1803.68 1530.77 1801.73 1531.65 L1801.73 1514.29 Z" fill="#000000" fill-rule="evenodd" fill-opacity="1" /><path clip-path="url(#clip960)" d="M2259.46 1544.91 L2267.1 1544.91 L2267.1 1518.55 L2258.79 1520.21 L2258.79 1515.95 L2267.05 1514.29 L2271.73 1514.29 L2271.73 1544.91 L2279.37 1544.91 L2279.37 1548.85 L2259.46 1548.85 L2259.46 1544.91 Z" fill="#000000" fill-rule="evenodd" fill-opacity="1" /><path clip-path="url(#clip960)" d="M2288.81 1542.97 L2293.7 1542.97 L2293.7 1548.85 L2288.81 1548.85 L2288.81 1542.97 Z" fill="#000000" fill-rule="evenodd" fill-opacity="1" /><path clip-path="url(#clip960)" d="M2313.88 1517.37 Q2310.27 1517.37 2308.44 1520.93 Q2306.64 1524.47 2306.64 1531.6 Q2306.64 1538.71 2308.44 1542.27 Q2310.27 1545.82 2313.88 1545.82 Q2317.52 1545.82 2319.32 1542.27 Q2321.15 1538.71 2321.15 1531.6 Q2321.15 1524.47 2319.32 1520.93 Q2317.52 1517.37 2313.88 1517.37 M2313.88 1513.66 Q2319.69 1513.66 2322.75 1518.27 Q2325.83 1522.85 2325.83 1531.6 Q2325.83 1540.33 2322.75 1544.94 Q2319.69 1549.52 2313.88 1549.52 Q2308.07 1549.52 2304.99 1544.94 Q2301.94 1540.33 2301.94 1531.6 Q2301.94 1522.85 2304.99 1518.27 Q2308.07 1513.66 2313.88 1513.66 Z" fill="#000000" fill-rule="evenodd" fill-opacity="1" /><polyline clip-path="url(#clip962)" style="stroke:#000000; stroke-linecap:butt; stroke-linejoin:round; stroke-width:2; stroke-opacity:0.1; fill:none" points="
  216.922,1331.02 2352.76,1331.02 
  "/>
<polyline clip-path="url(#clip962)" style="stroke:#000000; stroke-linecap:butt; stroke-linejoin:round; stroke-width:2; stroke-opacity:0.1; fill:none" points="
  216.922,1129.97 2352.76,1129.97 
  "/>
<polyline clip-path="url(#clip962)" style="stroke:#000000; stroke-linecap:butt; stroke-linejoin:round; stroke-width:2; stroke-opacity:0.1; fill:none" points="
  216.922,928.918 2352.76,928.918 
  "/>
<polyline clip-path="url(#clip962)" style="stroke:#000000; stroke-linecap:butt; stroke-linejoin:round; stroke-width:2; stroke-opacity:0.1; fill:none" points="
  216.922,727.869 2352.76,727.869 
  "/>
<polyline clip-path="url(#clip962)" style="stroke:#000000; stroke-linecap:butt; stroke-linejoin:round; stroke-width:2; stroke-opacity:0.1; fill:none" points="
  216.922,526.819 2352.76,526.819 
  "/>
<polyline clip-path="url(#clip962)" style="stroke:#000000; stroke-linecap:butt; stroke-linejoin:round; stroke-width:2; stroke-opacity:0.1; fill:none" points="
  216.922,325.769 2352.76,325.769 
  "/>
<polyline clip-path="url(#clip962)" style="stroke:#000000; stroke-linecap:butt; stroke-linejoin:round; stroke-width:2; stroke-opacity:0.1; fill:none" points="
  216.922,124.72 2352.76,124.72 
  "/>
<polyline clip-path="url(#clip960)" style="stroke:#000000; stroke-linecap:butt; stroke-linejoin:round; stroke-width:4; stroke-opacity:1; fill:none" points="
  216.922,1486.45 216.922,47.2441 
  "/>
<polyline clip-path="url(#clip960)" style="stroke:#000000; stroke-linecap:butt; stroke-linejoin:round; stroke-width:4; stroke-opacity:1; fill:none" points="
  216.922,1331.02 235.82,1331.02 
  "/>
<polyline clip-path="url(#clip960)" style="stroke:#000000; stroke-linecap:butt; stroke-linejoin:round; stroke-width:4; stroke-opacity:1; fill:none" points="
  216.922,1129.97 235.82,1129.97 
  "/>
<polyline clip-path="url(#clip960)" style="stroke:#000000; stroke-linecap:butt; stroke-linejoin:round; stroke-width:4; stroke-opacity:1; fill:none" points="
  216.922,928.918 235.82,928.918 
  "/>
<polyline clip-path="url(#clip960)" style="stroke:#000000; stroke-linecap:butt; stroke-linejoin:round; stroke-width:4; stroke-opacity:1; fill:none" points="
  216.922,727.869 235.82,727.869 
  "/>
<polyline clip-path="url(#clip960)" style="stroke:#000000; stroke-linecap:butt; stroke-linejoin:round; stroke-width:4; stroke-opacity:1; fill:none" points="
  216.922,526.819 235.82,526.819 
  "/>
<polyline clip-path="url(#clip960)" style="stroke:#000000; stroke-linecap:butt; stroke-linejoin:round; stroke-width:4; stroke-opacity:1; fill:none" points="
  216.922,325.769 235.82,325.769 
  "/>
<polyline clip-path="url(#clip960)" style="stroke:#000000; stroke-linecap:butt; stroke-linejoin:round; stroke-width:4; stroke-opacity:1; fill:none" points="
  216.922,124.72 235.82,124.72 
  "/>
<path clip-path="url(#clip960)" d="M64.6495 1316.82 Q61.0384 1316.82 59.2097 1320.38 Q57.4041 1323.92 57.4041 1331.05 Q57.4041 1338.16 59.2097 1341.72 Q61.0384 1345.27 64.6495 1345.27 Q68.2837 1345.27 70.0892 1341.72 Q71.9179 1338.16 71.9179 1331.05 Q71.9179 1323.92 70.0892 1320.38 Q68.2837 1316.82 64.6495 1316.82 M64.6495 1313.11 Q70.4596 1313.11 73.5152 1317.72 Q76.5938 1322.3 76.5938 1331.05 Q76.5938 1339.78 73.5152 1344.39 Q70.4596 1348.97 64.6495 1348.97 Q58.8393 1348.97 55.7606 1344.39 Q52.7051 1339.78 52.7051 1331.05 Q52.7051 1322.3 55.7606 1317.72 Q58.8393 1313.11 64.6495 1313.11 Z" fill="#000000" fill-rule="evenodd" fill-opacity="1" /><path clip-path="url(#clip960)" d="M84.8114 1342.42 L89.6956 1342.42 L89.6956 1348.3 L84.8114 1348.3 L84.8114 1342.42 Z" fill="#000000" fill-rule="evenodd" fill-opacity="1" /><path clip-path="url(#clip960)" d="M109.881 1316.82 Q106.27 1316.82 104.441 1320.38 Q102.635 1323.92 102.635 1331.05 Q102.635 1338.16 104.441 1341.72 Q106.27 1345.27 109.881 1345.27 Q113.515 1345.27 115.32 1341.72 Q117.149 1338.16 117.149 1331.05 Q117.149 1323.92 115.32 1320.38 Q113.515 1316.82 109.881 1316.82 M109.881 1313.11 Q115.691 1313.11 118.746 1317.72 Q121.825 1322.3 121.825 1331.05 Q121.825 1339.78 118.746 1344.39 Q115.691 1348.97 109.881 1348.97 Q104.071 1348.97 100.992 1344.39 Q97.9363 1339.78 97.9363 1331.05 Q97.9363 1322.3 100.992 1317.72 Q104.071 1313.11 109.881 1313.11 Z" fill="#000000" fill-rule="evenodd" fill-opacity="1" /><path clip-path="url(#clip960)" d="M140.043 1316.82 Q136.431 1316.82 134.603 1320.38 Q132.797 1323.92 132.797 1331.05 Q132.797 1338.16 134.603 1341.72 Q136.431 1345.27 140.043 1345.27 Q143.677 1345.27 145.482 1341.72 Q147.311 1338.16 147.311 1331.05 Q147.311 1323.92 145.482 1320.38 Q143.677 1316.82 140.043 1316.82 M140.043 1313.11 Q145.853 1313.11 148.908 1317.72 Q151.987 1322.3 151.987 1331.05 Q151.987 1339.78 148.908 1344.39 Q145.853 1348.97 140.043 1348.97 Q134.232 1348.97 131.154 1344.39 Q128.098 1339.78 128.098 1331.05 Q128.098 1322.3 131.154 1317.72 Q134.232 1313.11 140.043 1313.11 Z" fill="#000000" fill-rule="evenodd" fill-opacity="1" /><path clip-path="url(#clip960)" d="M161.015 1344.36 L168.654 1344.36 L168.654 1318 L160.343 1319.66 L160.343 1315.4 L168.607 1313.74 L173.283 1313.74 L173.283 1344.36 L180.922 1344.36 L180.922 1348.3 L161.015 1348.3 L161.015 1344.36 Z" fill="#000000" fill-rule="evenodd" fill-opacity="1" /><path clip-path="url(#clip960)" d="M65.0198 1115.77 Q61.4087 1115.77 59.58 1119.33 Q57.7745 1122.87 57.7745 1130 Q57.7745 1137.11 59.58 1140.67 Q61.4087 1144.22 65.0198 1144.22 Q68.6541 1144.22 70.4596 1140.67 Q72.2883 1137.11 72.2883 1130 Q72.2883 1122.87 70.4596 1119.33 Q68.6541 1115.77 65.0198 1115.77 M65.0198 1112.06 Q70.83 1112.06 73.8855 1116.67 Q76.9642 1121.25 76.9642 1130 Q76.9642 1138.73 73.8855 1143.34 Q70.83 1147.92 65.0198 1147.92 Q59.2097 1147.92 56.131 1143.34 Q53.0754 1138.73 53.0754 1130 Q53.0754 1121.25 56.131 1116.67 Q59.2097 1112.06 65.0198 1112.06 Z" fill="#000000" fill-rule="evenodd" fill-opacity="1" /><path clip-path="url(#clip960)" d="M85.1818 1141.37 L90.066 1141.37 L90.066 1147.25 L85.1818 1147.25 L85.1818 1141.37 Z" fill="#000000" fill-rule="evenodd" fill-opacity="1" /><path clip-path="url(#clip960)" d="M110.251 1115.77 Q106.64 1115.77 104.811 1119.33 Q103.006 1122.87 103.006 1130 Q103.006 1137.11 104.811 1140.67 Q106.64 1144.22 110.251 1144.22 Q113.885 1144.22 115.691 1140.67 Q117.52 1137.11 117.52 1130 Q117.52 1122.87 115.691 1119.33 Q113.885 1115.77 110.251 1115.77 M110.251 1112.06 Q116.061 1112.06 119.117 1116.67 Q122.195 1121.25 122.195 1130 Q122.195 1138.73 119.117 1143.34 Q116.061 1147.92 110.251 1147.92 Q104.441 1147.92 101.362 1143.34 Q98.3067 1138.73 98.3067 1130 Q98.3067 1121.25 101.362 1116.67 Q104.441 1112.06 110.251 1112.06 Z" fill="#000000" fill-rule="evenodd" fill-opacity="1" /><path clip-path="url(#clip960)" d="M140.413 1115.77 Q136.802 1115.77 134.973 1119.33 Q133.168 1122.87 133.168 1130 Q133.168 1137.11 134.973 1140.67 Q136.802 1144.22 140.413 1144.22 Q144.047 1144.22 145.853 1140.67 Q147.681 1137.11 147.681 1130 Q147.681 1122.87 145.853 1119.33 Q144.047 1115.77 140.413 1115.77 M140.413 1112.06 Q146.223 1112.06 149.279 1116.67 Q152.357 1121.25 152.357 1130 Q152.357 1138.73 149.279 1143.34 Q146.223 1147.92 140.413 1147.92 Q134.603 1147.92 131.524 1143.34 Q128.469 1138.73 128.469 1130 Q128.469 1121.25 131.524 1116.67 Q134.603 1112.06 140.413 1112.06 Z" fill="#000000" fill-rule="evenodd" fill-opacity="1" /><path clip-path="url(#clip960)" d="M164.603 1143.31 L180.922 1143.31 L180.922 1147.25 L158.978 1147.25 L158.978 1143.31 Q161.64 1140.56 166.223 1135.93 Q170.829 1131.28 172.01 1129.93 Q174.255 1127.41 175.135 1125.67 Q176.038 1123.91 176.038 1122.23 Q176.038 1119.47 174.093 1117.73 Q172.172 1116 169.07 1116 Q166.871 1116 164.417 1116.76 Q161.987 1117.53 159.209 1119.08 L159.209 1114.35 Q162.033 1113.22 164.487 1112.64 Q166.941 1112.06 168.978 1112.06 Q174.348 1112.06 177.542 1114.75 Q180.737 1117.43 180.737 1121.92 Q180.737 1124.05 179.927 1125.97 Q179.14 1127.87 177.033 1130.47 Q176.454 1131.14 173.353 1134.35 Q170.251 1137.55 164.603 1143.31 Z" fill="#000000" fill-rule="evenodd" fill-opacity="1" /><path clip-path="url(#clip960)" d="M64.0708 914.717 Q60.4597 914.717 58.631 918.282 Q56.8254 921.823 56.8254 928.953 Q56.8254 936.06 58.631 939.624 Q60.4597 943.166 64.0708 943.166 Q67.705 943.166 69.5105 939.624 Q71.3392 936.06 71.3392 928.953 Q71.3392 921.823 69.5105 918.282 Q67.705 914.717 64.0708 914.717 M64.0708 911.013 Q69.8809 911.013 72.9365 915.62 Q76.0151 920.203 76.0151 928.953 Q76.0151 937.68 72.9365 942.286 Q69.8809 946.87 64.0708 946.87 Q58.2606 946.87 55.1819 942.286 Q52.1264 937.68 52.1264 928.953 Q52.1264 920.203 55.1819 915.62 Q58.2606 911.013 64.0708 911.013 Z" fill="#000000" fill-rule="evenodd" fill-opacity="1" /><path clip-path="url(#clip960)" d="M84.2327 940.319 L89.1169 940.319 L89.1169 946.198 L84.2327 946.198 L84.2327 940.319 Z" fill="#000000" fill-rule="evenodd" fill-opacity="1" /><path clip-path="url(#clip960)" d="M109.302 914.717 Q105.691 914.717 103.862 918.282 Q102.057 921.823 102.057 928.953 Q102.057 936.06 103.862 939.624 Q105.691 943.166 109.302 943.166 Q112.936 943.166 114.742 939.624 Q116.57 936.06 116.57 928.953 Q116.57 921.823 114.742 918.282 Q112.936 914.717 109.302 914.717 M109.302 911.013 Q115.112 911.013 118.168 915.62 Q121.246 920.203 121.246 928.953 Q121.246 937.68 118.168 942.286 Q115.112 946.87 109.302 946.87 Q103.492 946.87 100.413 942.286 Q97.3576 937.68 97.3576 928.953 Q97.3576 920.203 100.413 915.62 Q103.492 911.013 109.302 911.013 Z" fill="#000000" fill-rule="evenodd" fill-opacity="1" /><path clip-path="url(#clip960)" d="M139.464 914.717 Q135.853 914.717 134.024 918.282 Q132.219 921.823 132.219 928.953 Q132.219 936.06 134.024 939.624 Q135.853 943.166 139.464 943.166 Q143.098 943.166 144.904 939.624 Q146.732 936.06 146.732 928.953 Q146.732 921.823 144.904 918.282 Q143.098 914.717 139.464 914.717 M139.464 911.013 Q145.274 911.013 148.33 915.62 Q151.408 920.203 151.408 928.953 Q151.408 937.68 148.33 942.286 Q145.274 946.87 139.464 946.87 Q133.654 946.87 130.575 942.286 Q127.519 937.68 127.519 928.953 Q127.519 920.203 130.575 915.62 Q133.654 911.013 139.464 911.013 Z" fill="#000000" fill-rule="evenodd" fill-opacity="1" /><path clip-path="url(#clip960)" d="M173.792 927.564 Q177.149 928.282 179.024 930.55 Q180.922 932.819 180.922 936.152 Q180.922 941.268 177.403 944.069 Q173.885 946.87 167.404 946.87 Q165.228 946.87 162.913 946.43 Q160.621 946.013 158.167 945.157 L158.167 940.643 Q160.112 941.777 162.427 942.356 Q164.742 942.934 167.265 942.934 Q171.663 942.934 173.954 941.198 Q176.269 939.462 176.269 936.152 Q176.269 933.097 174.116 931.384 Q171.987 929.648 168.167 929.648 L164.14 929.648 L164.14 925.805 L168.353 925.805 Q171.802 925.805 173.63 924.439 Q175.459 923.05 175.459 920.458 Q175.459 917.796 173.561 916.384 Q171.686 914.949 168.167 914.949 Q166.246 914.949 164.047 915.365 Q161.848 915.782 159.209 916.661 L159.209 912.495 Q161.871 911.754 164.186 911.384 Q166.524 911.013 168.584 911.013 Q173.908 911.013 177.01 913.444 Q180.112 915.851 180.112 919.972 Q180.112 922.842 178.468 924.833 Q176.825 926.8 173.792 927.564 Z" fill="#000000" fill-rule="evenodd" fill-opacity="1" /><path clip-path="url(#clip960)" d="M62.9365 713.667 Q59.3254 713.667 57.4967 717.232 Q55.6912 720.774 55.6912 727.903 Q55.6912 735.01 57.4967 738.575 Q59.3254 742.116 62.9365 742.116 Q66.5707 742.116 68.3763 738.575 Q70.205 735.01 70.205 727.903 Q70.205 720.774 68.3763 717.232 Q66.5707 713.667 62.9365 713.667 M62.9365 709.964 Q68.7467 709.964 71.8022 714.57 Q74.8809 719.153 74.8809 727.903 Q74.8809 736.63 71.8022 741.237 Q68.7467 745.82 62.9365 745.82 Q57.1264 745.82 54.0477 741.237 Q50.9921 736.63 50.9921 727.903 Q50.9921 719.153 54.0477 714.57 Q57.1264 709.964 62.9365 709.964 Z" fill="#000000" fill-rule="evenodd" fill-opacity="1" /><path clip-path="url(#clip960)" d="M83.0984 739.269 L87.9827 739.269 L87.9827 745.149 L83.0984 745.149 L83.0984 739.269 Z" fill="#000000" fill-rule="evenodd" fill-opacity="1" /><path clip-path="url(#clip960)" d="M108.168 713.667 Q104.557 713.667 102.728 717.232 Q100.922 720.774 100.922 727.903 Q100.922 735.01 102.728 738.575 Q104.557 742.116 108.168 742.116 Q111.802 742.116 113.608 738.575 Q115.436 735.01 115.436 727.903 Q115.436 720.774 113.608 717.232 Q111.802 713.667 108.168 713.667 M108.168 709.964 Q113.978 709.964 117.033 714.57 Q120.112 719.153 120.112 727.903 Q120.112 736.63 117.033 741.237 Q113.978 745.82 108.168 745.82 Q102.358 745.82 99.2789 741.237 Q96.2234 736.63 96.2234 727.903 Q96.2234 719.153 99.2789 714.57 Q102.358 709.964 108.168 709.964 Z" fill="#000000" fill-rule="evenodd" fill-opacity="1" /><path clip-path="url(#clip960)" d="M138.33 713.667 Q134.719 713.667 132.89 717.232 Q131.084 720.774 131.084 727.903 Q131.084 735.01 132.89 738.575 Q134.719 742.116 138.33 742.116 Q141.964 742.116 143.769 738.575 Q145.598 735.01 145.598 727.903 Q145.598 720.774 143.769 717.232 Q141.964 713.667 138.33 713.667 M138.33 709.964 Q144.14 709.964 147.195 714.57 Q150.274 719.153 150.274 727.903 Q150.274 736.63 147.195 741.237 Q144.14 745.82 138.33 745.82 Q132.519 745.82 129.441 741.237 Q126.385 736.63 126.385 727.903 Q126.385 719.153 129.441 714.57 Q132.519 709.964 138.33 709.964 Z" fill="#000000" fill-rule="evenodd" fill-opacity="1" /><path clip-path="url(#clip960)" d="M171.339 714.663 L159.533 733.112 L171.339 733.112 L171.339 714.663 M170.112 710.589 L175.991 710.589 L175.991 733.112 L180.922 733.112 L180.922 737.001 L175.991 737.001 L175.991 745.149 L171.339 745.149 L171.339 737.001 L155.737 737.001 L155.737 732.487 L170.112 710.589 Z" fill="#000000" fill-rule="evenodd" fill-opacity="1" /><path clip-path="url(#clip960)" d="M64.418 512.618 Q60.8069 512.618 58.9782 516.182 Q57.1726 519.724 57.1726 526.854 Q57.1726 533.96 58.9782 537.525 Q60.8069 541.067 64.418 541.067 Q68.0522 541.067 69.8578 537.525 Q71.6865 533.96 71.6865 526.854 Q71.6865 519.724 69.8578 516.182 Q68.0522 512.618 64.418 512.618 M64.418 508.914 Q70.2281 508.914 73.2837 513.52 Q76.3624 518.104 76.3624 526.854 Q76.3624 535.581 73.2837 540.187 Q70.2281 544.77 64.418 544.77 Q58.6078 544.77 55.5291 540.187 Q52.4736 535.581 52.4736 526.854 Q52.4736 518.104 55.5291 513.52 Q58.6078 508.914 64.418 508.914 Z" fill="#000000" fill-rule="evenodd" fill-opacity="1" /><path clip-path="url(#clip960)" d="M84.5799 538.219 L89.4641 538.219 L89.4641 544.099 L84.5799 544.099 L84.5799 538.219 Z" fill="#000000" fill-rule="evenodd" fill-opacity="1" /><path clip-path="url(#clip960)" d="M109.649 512.618 Q106.038 512.618 104.209 516.182 Q102.404 519.724 102.404 526.854 Q102.404 533.96 104.209 537.525 Q106.038 541.067 109.649 541.067 Q113.283 541.067 115.089 537.525 Q116.918 533.96 116.918 526.854 Q116.918 519.724 115.089 516.182 Q113.283 512.618 109.649 512.618 M109.649 508.914 Q115.459 508.914 118.515 513.52 Q121.594 518.104 121.594 526.854 Q121.594 535.581 118.515 540.187 Q115.459 544.77 109.649 544.77 Q103.839 544.77 100.76 540.187 Q97.7048 535.581 97.7048 526.854 Q97.7048 518.104 100.76 513.52 Q103.839 508.914 109.649 508.914 Z" fill="#000000" fill-rule="evenodd" fill-opacity="1" /><path clip-path="url(#clip960)" d="M139.811 512.618 Q136.2 512.618 134.371 516.182 Q132.566 519.724 132.566 526.854 Q132.566 533.96 134.371 537.525 Q136.2 541.067 139.811 541.067 Q143.445 541.067 145.251 537.525 Q147.08 533.96 147.08 526.854 Q147.08 519.724 145.251 516.182 Q143.445 512.618 139.811 512.618 M139.811 508.914 Q145.621 508.914 148.677 513.52 Q151.755 518.104 151.755 526.854 Q151.755 535.581 148.677 540.187 Q145.621 544.77 139.811 544.77 Q134.001 544.77 130.922 540.187 Q127.867 535.581 127.867 526.854 Q127.867 518.104 130.922 513.52 Q134.001 508.914 139.811 508.914 Z" fill="#000000" fill-rule="evenodd" fill-opacity="1" /><path clip-path="url(#clip960)" d="M160.019 509.539 L178.376 509.539 L178.376 513.474 L164.302 513.474 L164.302 521.946 Q165.32 521.599 166.339 521.437 Q167.357 521.252 168.376 521.252 Q174.163 521.252 177.542 524.423 Q180.922 527.594 180.922 533.011 Q180.922 538.59 177.45 541.692 Q173.978 544.77 167.658 544.77 Q165.482 544.77 163.214 544.4 Q160.968 544.03 158.561 543.289 L158.561 538.59 Q160.644 539.724 162.867 540.28 Q165.089 540.835 167.566 540.835 Q171.57 540.835 173.908 538.729 Q176.246 536.622 176.246 533.011 Q176.246 529.4 173.908 527.294 Q171.57 525.187 167.566 525.187 Q165.691 525.187 163.816 525.604 Q161.964 526.02 160.019 526.9 L160.019 509.539 Z" fill="#000000" fill-rule="evenodd" fill-opacity="1" /><path clip-path="url(#clip960)" d="M63.2606 311.568 Q59.6495 311.568 57.8208 315.133 Q56.0152 318.674 56.0152 325.804 Q56.0152 332.911 57.8208 336.475 Q59.6495 340.017 63.2606 340.017 Q66.8948 340.017 68.7004 336.475 Q70.5291 332.911 70.5291 325.804 Q70.5291 318.674 68.7004 315.133 Q66.8948 311.568 63.2606 311.568 M63.2606 307.864 Q69.0707 307.864 72.1263 312.471 Q75.205 317.054 75.205 325.804 Q75.205 334.531 72.1263 339.137 Q69.0707 343.721 63.2606 343.721 Q57.4504 343.721 54.3717 339.137 Q51.3162 334.531 51.3162 325.804 Q51.3162 317.054 54.3717 312.471 Q57.4504 307.864 63.2606 307.864 Z" fill="#000000" fill-rule="evenodd" fill-opacity="1" /><path clip-path="url(#clip960)" d="M83.4225 337.17 L88.3067 337.17 L88.3067 343.049 L83.4225 343.049 L83.4225 337.17 Z" fill="#000000" fill-rule="evenodd" fill-opacity="1" /><path clip-path="url(#clip960)" d="M108.492 311.568 Q104.881 311.568 103.052 315.133 Q101.246 318.674 101.246 325.804 Q101.246 332.911 103.052 336.475 Q104.881 340.017 108.492 340.017 Q112.126 340.017 113.932 336.475 Q115.76 332.911 115.76 325.804 Q115.76 318.674 113.932 315.133 Q112.126 311.568 108.492 311.568 M108.492 307.864 Q114.302 307.864 117.358 312.471 Q120.436 317.054 120.436 325.804 Q120.436 334.531 117.358 339.137 Q114.302 343.721 108.492 343.721 Q102.682 343.721 99.603 339.137 Q96.5474 334.531 96.5474 325.804 Q96.5474 317.054 99.603 312.471 Q102.682 307.864 108.492 307.864 Z" fill="#000000" fill-rule="evenodd" fill-opacity="1" /><path clip-path="url(#clip960)" d="M138.654 311.568 Q135.043 311.568 133.214 315.133 Q131.408 318.674 131.408 325.804 Q131.408 332.911 133.214 336.475 Q135.043 340.017 138.654 340.017 Q142.288 340.017 144.093 336.475 Q145.922 332.911 145.922 325.804 Q145.922 318.674 144.093 315.133 Q142.288 311.568 138.654 311.568 M138.654 307.864 Q144.464 307.864 147.519 312.471 Q150.598 317.054 150.598 325.804 Q150.598 334.531 147.519 339.137 Q144.464 343.721 138.654 343.721 Q132.844 343.721 129.765 339.137 Q126.709 334.531 126.709 325.804 Q126.709 317.054 129.765 312.471 Q132.844 307.864 138.654 307.864 Z" fill="#000000" fill-rule="evenodd" fill-opacity="1" /><path clip-path="url(#clip960)" d="M169.394 323.906 Q166.246 323.906 164.394 326.059 Q162.566 328.211 162.566 331.961 Q162.566 335.688 164.394 337.864 Q166.246 340.017 169.394 340.017 Q172.542 340.017 174.371 337.864 Q176.223 335.688 176.223 331.961 Q176.223 328.211 174.371 326.059 Q172.542 323.906 169.394 323.906 M178.677 309.253 L178.677 313.512 Q176.917 312.679 175.112 312.239 Q173.329 311.8 171.57 311.8 Q166.941 311.8 164.487 314.924 Q162.056 318.049 161.709 324.369 Q163.075 322.355 165.135 321.29 Q167.195 320.202 169.672 320.202 Q174.88 320.202 177.89 323.374 Q180.922 326.522 180.922 331.961 Q180.922 337.285 177.774 340.503 Q174.626 343.721 169.394 343.721 Q163.399 343.721 160.228 339.137 Q157.056 334.531 157.056 325.804 Q157.056 317.61 160.945 312.749 Q164.834 307.864 171.385 307.864 Q173.144 307.864 174.927 308.212 Q176.732 308.559 178.677 309.253 Z" fill="#000000" fill-rule="evenodd" fill-opacity="1" /><path clip-path="url(#clip960)" d="M64.3254 110.518 Q60.7143 110.518 58.8856 114.083 Q57.0801 117.625 57.0801 124.754 Q57.0801 131.861 58.8856 135.426 Q60.7143 138.967 64.3254 138.967 Q67.9596 138.967 69.7652 135.426 Q71.5939 131.861 71.5939 124.754 Q71.5939 117.625 69.7652 114.083 Q67.9596 110.518 64.3254 110.518 M64.3254 106.815 Q70.1355 106.815 73.1911 111.421 Q76.2698 116.004 76.2698 124.754 Q76.2698 133.481 73.1911 138.088 Q70.1355 142.671 64.3254 142.671 Q58.5152 142.671 55.4365 138.088 Q52.381 133.481 52.381 124.754 Q52.381 116.004 55.4365 111.421 Q58.5152 106.815 64.3254 106.815 Z" fill="#000000" fill-rule="evenodd" fill-opacity="1" /><path clip-path="url(#clip960)" d="M84.4873 136.12 L89.3715 136.12 L89.3715 142 L84.4873 142 L84.4873 136.12 Z" fill="#000000" fill-rule="evenodd" fill-opacity="1" /><path clip-path="url(#clip960)" d="M109.557 110.518 Q105.946 110.518 104.117 114.083 Q102.311 117.625 102.311 124.754 Q102.311 131.861 104.117 135.426 Q105.946 138.967 109.557 138.967 Q113.191 138.967 114.996 135.426 Q116.825 131.861 116.825 124.754 Q116.825 117.625 114.996 114.083 Q113.191 110.518 109.557 110.518 M109.557 106.815 Q115.367 106.815 118.422 111.421 Q121.501 116.004 121.501 124.754 Q121.501 133.481 118.422 138.088 Q115.367 142.671 109.557 142.671 Q103.746 142.671 100.668 138.088 Q97.6122 133.481 97.6122 124.754 Q97.6122 116.004 100.668 111.421 Q103.746 106.815 109.557 106.815 Z" fill="#000000" fill-rule="evenodd" fill-opacity="1" /><path clip-path="url(#clip960)" d="M139.719 110.518 Q136.107 110.518 134.279 114.083 Q132.473 117.625 132.473 124.754 Q132.473 131.861 134.279 135.426 Q136.107 138.967 139.719 138.967 Q143.353 138.967 145.158 135.426 Q146.987 131.861 146.987 124.754 Q146.987 117.625 145.158 114.083 Q143.353 110.518 139.719 110.518 M139.719 106.815 Q145.529 106.815 148.584 111.421 Q151.663 116.004 151.663 124.754 Q151.663 133.481 148.584 138.088 Q145.529 142.671 139.719 142.671 Q133.908 142.671 130.83 138.088 Q127.774 133.481 127.774 124.754 Q127.774 116.004 130.83 111.421 Q133.908 106.815 139.719 106.815 Z" fill="#000000" fill-rule="evenodd" fill-opacity="1" /><path clip-path="url(#clip960)" d="M158.7 107.44 L180.922 107.44 L180.922 109.43 L168.376 142 L163.492 142 L175.297 111.375 L158.7 111.375 L158.7 107.44 Z" fill="#000000" fill-rule="evenodd" fill-opacity="1" /><polyline clip-path="url(#clip962)" style="stroke:#009af9; stroke-linecap:butt; stroke-linejoin:round; stroke-width:16; stroke-opacity:1; fill:none" points="
  277.37,87.9763 281.408,221.867 285.446,344.063 289.484,455.395 293.522,556.649 297.56,648.564 301.598,731.835 305.636,807.115 309.674,875.02 313.712,936.126 
  317.75,990.974 321.788,1040.07 325.826,1083.89 329.863,1122.88 333.901,1157.45 337.939,1188 341.977,1214.87 346.015,1238.41 350.053,1258.94 354.091,1276.74 
  358.129,1292.08 362.167,1305.21 366.205,1316.37 370.243,1325.77 374.281,1333.6 378.319,1340.05 382.357,1345.28 386.395,1349.46 390.433,1352.71 394.471,1355.16 
  398.509,1356.94 402.547,1358.14 406.585,1358.87 410.623,1359.21 414.66,1359.24 418.698,1359.03 422.736,1358.64 426.774,1358.12 430.812,1357.52 434.85,1356.9 
  438.888,1356.27 442.926,1355.68 446.964,1355.16 451.002,1354.72 455.04,1354.38 459.078,1354.16 463.116,1354.08 467.154,1354.14 471.192,1354.34 475.23,1354.69 
  479.268,1355.2 483.306,1355.86 487.344,1356.66 491.382,1357.62 495.419,1358.71 499.457,1359.94 503.495,1361.3 507.533,1362.78 511.571,1364.37 515.609,1366.06 
  519.647,1367.84 523.685,1369.7 527.723,1371.64 531.761,1373.64 535.799,1375.69 539.837,1377.78 543.875,1379.9 547.913,1382.04 551.951,1384.19 555.989,1386.33 
  560.027,1388.47 564.065,1390.59 568.103,1392.69 572.141,1394.75 576.179,1396.76 580.216,1398.72 584.254,1400.63 588.292,1402.46 592.33,1404.23 596.368,1405.93 
  600.406,1407.54 604.444,1409.06 608.482,1410.49 612.52,1411.83 616.558,1413.08 620.596,1414.22 624.634,1415.26 628.672,1416.2 632.71,1417.03 636.748,1417.76 
  640.786,1418.38 644.824,1418.89 648.862,1419.3 652.9,1419.6 656.938,1419.8 660.975,1419.9 665.013,1419.89 669.051,1419.78 673.089,1419.58 677.127,1419.28 
  681.165,1418.89 685.203,1418.41 689.241,1417.84 693.279,1417.19 697.317,1416.46 701.355,1415.66 705.393,1414.78 709.431,1413.83 713.469,1412.82 717.507,1411.75 
  721.545,1410.62 725.583,1409.43 729.621,1408.2 733.659,1406.93 737.697,1405.61 741.735,1404.26 745.772,1402.87 749.81,1401.46 753.848,1400.02 757.886,1398.56 
  761.924,1397.08 765.962,1395.59 770,1394.09 774.038,1392.59 778.076,1391.08 782.114,1389.57 786.152,1388.07 790.19,1386.58 794.228,1385.09 798.266,1383.62 
  802.304,1382.17 806.342,1380.73 810.38,1379.32 814.418,1377.93 818.456,1376.57 822.494,1375.23 826.531,1373.93 830.569,1372.65 834.607,1371.41 838.645,1370.21 
  842.683,1369.04 846.721,1367.91 850.759,1366.82 854.797,1365.77 858.835,1364.76 862.873,1363.79 866.911,1362.86 870.949,1361.98 874.987,1361.14 879.025,1360.34 
  883.063,1359.59 887.101,1358.88 891.139,1358.22 895.177,1357.59 899.215,1357.02 903.253,1356.48 907.291,1355.99 911.328,1355.54 915.366,1355.13 919.404,1354.76 
  923.442,1354.44 927.48,1354.15 931.518,1353.9 935.556,1353.69 939.594,1353.52 943.632,1353.39 947.67,1353.29 951.708,1353.22 955.746,1353.19 959.784,1353.19 
  963.822,1353.22 967.86,1353.29 971.898,1353.38 975.936,1353.5 979.974,1353.65 984.012,1353.83 988.05,1354.03 992.087,1354.26 996.125,1354.51 1000.16,1354.78 
  1004.2,1355.07 1008.24,1355.39 1012.28,1355.72 1016.32,1356.07 1020.35,1356.45 1024.39,1356.83 1028.43,1357.24 1032.47,1357.66 1036.5,1358.1 1040.54,1358.54 
  1044.58,1359.01 1048.62,1359.48 1052.66,1359.97 1056.69,1360.47 1060.73,1360.99 1064.77,1361.51 1068.81,1362.04 1072.85,1362.59 1076.88,1363.14 1080.92,1363.71 
  1084.96,1364.28 1089,1364.86 1093.04,1365.45 1097.07,1366.05 1101.11,1366.66 1105.15,1367.28 1109.19,1367.9 1113.23,1368.54 1117.26,1369.18 1121.3,1369.83 
  1125.34,1370.49 1129.38,1371.16 1133.42,1371.84 1137.45,1372.53 1141.49,1373.22 1145.53,1373.93 1149.57,1374.64 1153.61,1375.36 1157.64,1376.1 1161.68,1376.84 
  1165.72,1377.6 1169.76,1378.36 1173.8,1379.13 1177.83,1379.92 1181.87,1380.71 1185.91,1381.52 1189.95,1382.34 1193.99,1383.17 1198.02,1384.01 1202.06,1384.86 
  1206.1,1385.72 1210.14,1386.59 1214.17,1387.48 1218.21,1388.38 1222.25,1389.29 1226.29,1390.21 1230.33,1391.14 1234.36,1392.08 1238.4,1393.03 1242.44,1394 
  1246.48,1394.97 1250.52,1395.96 1254.55,1396.96 1258.59,1397.96 1262.63,1398.98 1266.67,1400 1270.71,1401.03 1274.74,1402.07 1278.78,1403.12 1282.82,1404.17 
  1286.86,1405.24 1290.9,1406.3 1294.93,1407.37 1298.97,1408.45 1303.01,1409.53 1307.05,1410.61 1311.09,1411.69 1315.12,1412.78 1319.16,1413.86 1323.2,1414.95 
  1327.24,1416.03 1331.28,1417.11 1335.31,1418.18 1339.35,1419.25 1343.39,1420.32 1347.43,1421.38 1351.47,1422.43 1355.5,1423.47 1359.54,1424.49 1363.58,1425.51 
  1367.62,1426.52 1371.65,1427.51 1375.69,1428.48 1379.73,1429.44 1383.77,1430.39 1387.81,1431.31 1391.84,1432.21 1395.88,1433.1 1399.92,1433.96 1403.96,1434.8 
  1408,1435.61 1412.03,1436.4 1416.07,1437.16 1420.11,1437.9 1424.15,1438.6 1428.19,1439.28 1432.22,1439.93 1436.26,1440.55 1440.3,1441.13 1444.34,1441.68 
  1448.38,1442.2 1452.41,1442.69 1456.45,1443.14 1460.49,1443.55 1464.53,1443.93 1468.57,1444.28 1472.6,1444.59 1476.64,1444.86 1480.68,1445.09 1484.72,1445.29 
  1488.76,1445.45 1492.79,1445.57 1496.83,1445.66 1500.87,1445.7 1504.91,1445.72 1508.95,1445.69 1512.98,1445.63 1517.02,1445.53 1521.06,1445.4 1525.1,1445.24 
  1529.13,1445.04 1533.17,1444.8 1537.21,1444.54 1541.25,1444.24 1545.29,1443.91 1549.32,1443.56 1553.36,1443.17 1557.4,1442.76 1561.44,1442.32 1565.48,1441.86 
  1569.51,1441.38 1573.55,1440.87 1577.59,1440.35 1581.63,1439.8 1585.67,1439.24 1589.7,1438.67 1593.74,1438.08 1597.78,1437.48 1601.82,1436.87 1605.86,1436.25 
  1609.89,1435.63 1613.93,1435 1617.97,1434.37 1622.01,1433.74 1626.05,1433.11 1630.08,1432.49 1634.12,1431.87 1638.16,1431.26 1642.2,1430.66 1646.24,1430.07 
  1650.27,1429.49 1654.31,1428.93 1658.35,1428.38 1662.39,1427.85 1666.43,1427.35 1670.46,1426.86 1674.5,1426.4 1678.54,1425.96 1682.58,1425.55 1686.62,1425.17 
  1690.65,1424.81 1694.69,1424.49 1698.73,1424.19 1702.77,1423.93 1706.8,1423.7 1710.84,1423.5 1714.88,1423.34 1718.92,1423.21 1722.96,1423.11 1726.99,1423.05 
  1731.03,1423.03 1735.07,1423.04 1739.11,1423.08 1743.15,1423.16 1747.18,1423.27 1751.22,1423.41 1755.26,1423.58 1759.3,1423.78 1763.34,1424.01 1767.37,1424.27 
  1771.41,1424.55 1775.45,1424.85 1779.49,1425.18 1783.53,1425.52 1787.56,1425.88 1791.6,1426.26 1795.64,1426.64 1799.68,1427.04 1803.72,1427.44 1807.75,1427.84 
  1811.79,1428.24 1815.83,1428.63 1819.87,1429.01 1823.91,1429.38 1827.94,1429.74 1831.98,1430.07 1836.02,1430.38 1840.06,1430.66 1844.1,1430.9 1848.13,1431.11 
  1852.17,1431.27 1856.21,1431.38 1860.25,1431.44 1864.28,1431.45 1868.32,1431.39 1872.36,1431.27 1876.4,1431.07 1880.44,1430.8 1884.47,1430.45 1888.51,1430.01 
  1892.55,1429.49 1896.59,1428.87 1900.63,1428.15 1904.66,1427.33 1908.7,1426.41 1912.74,1425.37 1916.78,1424.23 1920.82,1422.97 1924.85,1421.59 1928.89,1420.08 
  1932.93,1418.46 1936.97,1416.71 1941.01,1414.83 1945.04,1412.83 1949.08,1410.69 1953.12,1408.43 1957.16,1406.04 1961.2,1403.52 1965.23,1400.87 1969.27,1398.1 
  1973.31,1395.2 1977.35,1392.18 1981.39,1389.05 1985.42,1385.79 1989.46,1382.43 1993.5,1378.97 1997.54,1375.4 2001.58,1371.74 2005.61,1368 2009.65,1364.17 
  2013.69,1360.27 2017.73,1356.31 2021.77,1352.3 2025.8,1348.24 2029.84,1344.15 2033.88,1340.03 2037.92,1335.9 2041.95,1331.77 2045.99,1327.65 2050.03,1323.55 
  2054.07,1319.49 2058.11,1315.48 2062.14,1311.53 2066.18,1307.65 2070.22,1303.87 2074.26,1300.18 2078.3,1296.61 2082.33,1293.17 2086.37,1289.87 2090.41,1286.72 
  2094.45,1283.73 2098.49,1280.92 2102.52,1278.29 2106.56,1275.85 2110.6,1273.61 2114.64,1271.57 2118.68,1269.74 2122.71,1268.12 2126.75,1266.71 2130.79,1265.5 
  2134.83,1264.49 2138.87,1263.68 2142.9,1263.04 2146.94,1262.55 2150.98,1262.21 2155.02,1261.99 2159.06,1261.85 2163.09,1261.75 2167.13,1261.67 2171.17,1261.54 
  2175.21,1261.32 2179.25,1260.94 2183.28,1260.33 2187.32,1259.42 2191.36,1258.1 2195.4,1256.3 2199.43,1253.88 2203.47,1250.75 2207.51,1246.75 2211.55,1241.76 
  2215.59,1235.59 2219.62,1228.09 2223.66,1219.07 2227.7,1208.3 2231.74,1195.57 2235.78,1180.64 2239.81,1163.23 2243.85,1143.07 2247.89,1119.85 2251.93,1093.23 
  2255.97,1062.85 2260,1028.33 2264.04,989.268 2268.08,945.21 2272.12,895.685 2276.16,840.189 2280.19,778.179 2284.23,709.079 2288.27,632.27 2292.31,547.098 
  
  "/>
<path clip-path="url(#clip960)" d="
M1965.6 250.738 L2281.56 250.738 L2281.56 95.2176 L1965.6 95.2176  Z
  " fill="#ffffff" fill-rule="evenodd" fill-opacity="1"/>
<polyline clip-path="url(#clip960)" style="stroke:#000000; stroke-linecap:butt; stroke-linejoin:round; stroke-width:4; stroke-opacity:1; fill:none" points="
  1965.6,250.738 2281.56,250.738 2281.56,95.2176 1965.6,95.2176 1965.6,250.738 
  "/>
<polyline clip-path="url(#clip960)" style="stroke:#009af9; stroke-linecap:butt; stroke-linejoin:round; stroke-width:6; stroke-opacity:1; fill:none" points="
  1989.33,172.978 2131.72,172.978 
  "/>
<path clip-path="url(#clip960)" d="M2176.22 202.509 Q2173.51 209.453 2170.94 211.571 Q2168.37 213.689 2164.06 213.689 L2158.96 213.689 L2158.96 208.342 L2162.71 208.342 Q2165.35 208.342 2166.81 207.092 Q2168.27 205.842 2170.04 201.189 L2171.18 198.273 L2155.45 160.009 L2162.22 160.009 L2174.38 190.425 L2186.53 160.009 L2193.3 160.009 L2176.22 202.509 Z" fill="#000000" fill-rule="evenodd" fill-opacity="1" /><path clip-path="url(#clip960)" d="M2204.24 192.995 L2215.7 192.995 L2215.7 153.446 L2203.23 155.946 L2203.23 149.558 L2215.63 147.058 L2222.64 147.058 L2222.64 192.995 L2234.1 192.995 L2234.1 198.898 L2204.24 198.898 L2204.24 192.995 Z" fill="#000000" fill-rule="evenodd" fill-opacity="1" /></svg>
