<?xml version="1.0" encoding="utf-8"?>
<svg xmlns="http://www.w3.org/2000/svg" xmlns:xlink="http://www.w3.org/1999/xlink" width="600" height="400" viewBox="0 0 2400 1600">
<defs>
  <clipPath id="clip760">
    <rect x="0" y="0" width="2400" height="1600"/>
  </clipPath>
</defs>
<path clip-path="url(#clip760)" d="
M0 1600 L2400 1600 L2400 0 L0 0  Z
  " fill="#ffffff" fill-rule="evenodd" fill-opacity="1"/>
<defs>
  <clipPath id="clip761">
    <rect x="480" y="0" width="1681" height="1600"/>
  </clipPath>
</defs>
<defs>
  <clipPath id="clip762">
    <rect x="193" y="47" width="2160" height="1440"/>
  </clipPath>
</defs>
<path clip-path="url(#clip760)" d="
M156.598 1486.45 L2352.76 1486.45 L2352.76 47.2441 L156.598 47.2441  Z
  " fill="#ffffff" fill-rule="evenodd" fill-opacity="1"/>
<defs>
  <clipPath id="clip763">
    <rect x="156" y="47" width="2197" height="1440"/>
  </clipPath>
</defs>
<polyline clip-path="url(#clip763)" style="stroke:#000000; stroke-linecap:round; stroke-linejoin:round; stroke-width:2; stroke-opacity:0.1; fill:none" points="
  218.754,1486.45 218.754,47.2441 
  "/>
<polyline clip-path="url(#clip763)" style="stroke:#000000; stroke-linecap:round; stroke-linejoin:round; stroke-width:2; stroke-opacity:0.1; fill:none" points="
  736.715,1486.45 736.715,47.2441 
  "/>
<polyline clip-path="url(#clip763)" style="stroke:#000000; stroke-linecap:round; stroke-linejoin:round; stroke-width:2; stroke-opacity:0.1; fill:none" points="
  1254.68,1486.45 1254.68,47.2441 
  "/>
<polyline clip-path="url(#clip763)" style="stroke:#000000; stroke-linecap:round; stroke-linejoin:round; stroke-width:2; stroke-opacity:0.1; fill:none" points="
  1772.64,1486.45 1772.64,47.2441 
  "/>
<polyline clip-path="url(#clip763)" style="stroke:#000000; stroke-linecap:round; stroke-linejoin:round; stroke-width:2; stroke-opacity:0.1; fill:none" points="
  2290.6,1486.45 2290.6,47.2441 
  "/>
<polyline clip-path="url(#clip760)" style="stroke:#000000; stroke-linecap:round; stroke-linejoin:round; stroke-width:4; stroke-opacity:1; fill:none" points="
  156.598,1486.45 2352.76,1486.45 
  "/>
<polyline clip-path="url(#clip760)" style="stroke:#000000; stroke-linecap:round; stroke-linejoin:round; stroke-width:4; stroke-opacity:1; fill:none" points="
  218.754,1486.45 218.754,1467.55 
  "/>
<polyline clip-path="url(#clip760)" style="stroke:#000000; stroke-linecap:round; stroke-linejoin:round; stroke-width:4; stroke-opacity:1; fill:none" points="
  736.715,1486.45 736.715,1467.55 
  "/>
<polyline clip-path="url(#clip760)" style="stroke:#000000; stroke-linecap:round; stroke-linejoin:round; stroke-width:4; stroke-opacity:1; fill:none" points="
  1254.68,1486.45 1254.68,1467.55 
  "/>
<polyline clip-path="url(#clip760)" style="stroke:#000000; stroke-linecap:round; stroke-linejoin:round; stroke-width:4; stroke-opacity:1; fill:none" points="
  1772.64,1486.45 1772.64,1467.55 
  "/>
<polyline clip-path="url(#clip760)" style="stroke:#000000; stroke-linecap:round; stroke-linejoin:round; stroke-width:4; stroke-opacity:1; fill:none" points="
  2290.6,1486.45 2290.6,1467.55 
  "/>
<path clip-path="url(#clip760)" d="M165.282 1532.02 L194.957 1532.02 L194.957 1535.95 L165.282 1535.95 L165.282 1532.02 Z" fill="#000000" fill-rule="evenodd" fill-opacity="1" /><path clip-path="url(#clip760)" d="M205.86 1544.91 L213.499 1544.91 L213.499 1518.55 L205.189 1520.21 L205.189 1515.95 L213.453 1514.29 L218.129 1514.29 L218.129 1544.91 L225.767 1544.91 L225.767 1548.85 L205.86 1548.85 L205.86 1544.91 Z" fill="#000000" fill-rule="evenodd" fill-opacity="1" /><path clip-path="url(#clip760)" d="M235.212 1542.97 L240.096 1542.97 L240.096 1548.85 L235.212 1548.85 L235.212 1542.97 Z" fill="#000000" fill-rule="evenodd" fill-opacity="1" /><path clip-path="url(#clip760)" d="M260.281 1517.37 Q256.67 1517.37 254.841 1520.93 Q253.036 1524.47 253.036 1531.6 Q253.036 1538.71 254.841 1542.27 Q256.67 1545.82 260.281 1545.82 Q263.915 1545.82 265.721 1542.27 Q267.55 1538.71 267.55 1531.6 Q267.55 1524.47 265.721 1520.93 Q263.915 1517.37 260.281 1517.37 M260.281 1513.66 Q266.091 1513.66 269.147 1518.27 Q272.226 1522.85 272.226 1531.6 Q272.226 1540.33 269.147 1544.94 Q266.091 1549.52 260.281 1549.52 Q254.471 1549.52 251.392 1544.94 Q248.337 1540.33 248.337 1531.6 Q248.337 1522.85 251.392 1518.27 Q254.471 1513.66 260.281 1513.66 Z" fill="#000000" fill-rule="evenodd" fill-opacity="1" /><path clip-path="url(#clip760)" d="M683.741 1532.02 L713.417 1532.02 L713.417 1535.95 L683.741 1535.95 L683.741 1532.02 Z" fill="#000000" fill-rule="evenodd" fill-opacity="1" /><path clip-path="url(#clip760)" d="M733.509 1517.37 Q729.898 1517.37 728.07 1520.93 Q726.264 1524.47 726.264 1531.6 Q726.264 1538.71 728.07 1542.27 Q729.898 1545.82 733.509 1545.82 Q737.144 1545.82 738.949 1542.27 Q740.778 1538.71 740.778 1531.6 Q740.778 1524.47 738.949 1520.93 Q737.144 1517.37 733.509 1517.37 M733.509 1513.66 Q739.32 1513.66 742.375 1518.27 Q745.454 1522.85 745.454 1531.6 Q745.454 1540.33 742.375 1544.94 Q739.32 1549.52 733.509 1549.52 Q727.699 1549.52 724.621 1544.94 Q721.565 1540.33 721.565 1531.6 Q721.565 1522.85 724.621 1518.27 Q727.699 1513.66 733.509 1513.66 Z" fill="#000000" fill-rule="evenodd" fill-opacity="1" /><path clip-path="url(#clip760)" d="M753.671 1542.97 L758.556 1542.97 L758.556 1548.85 L753.671 1548.85 L753.671 1542.97 Z" fill="#000000" fill-rule="evenodd" fill-opacity="1" /><path clip-path="url(#clip760)" d="M768.787 1514.29 L787.143 1514.29 L787.143 1518.22 L773.069 1518.22 L773.069 1526.7 Q774.088 1526.35 775.106 1526.19 Q776.125 1526 777.143 1526 Q782.93 1526 786.31 1529.17 Q789.69 1532.34 789.69 1537.76 Q789.69 1543.34 786.217 1546.44 Q782.745 1549.52 776.426 1549.52 Q774.25 1549.52 771.981 1549.15 Q769.736 1548.78 767.329 1548.04 L767.329 1543.34 Q769.412 1544.47 771.634 1545.03 Q773.856 1545.58 776.333 1545.58 Q780.338 1545.58 782.676 1543.48 Q785.014 1541.37 785.014 1537.76 Q785.014 1534.15 782.676 1532.04 Q780.338 1529.94 776.333 1529.94 Q774.458 1529.94 772.583 1530.35 Q770.731 1530.77 768.787 1531.65 L768.787 1514.29 Z" fill="#000000" fill-rule="evenodd" fill-opacity="1" /><path clip-path="url(#clip760)" d="M1232.06 1517.37 Q1228.45 1517.37 1226.62 1520.93 Q1224.82 1524.47 1224.82 1531.6 Q1224.82 1538.71 1226.62 1542.27 Q1228.45 1545.82 1232.06 1545.82 Q1235.7 1545.82 1237.5 1542.27 Q1239.33 1538.71 1239.33 1531.6 Q1239.33 1524.47 1237.5 1520.93 Q1235.7 1517.37 1232.06 1517.37 M1232.06 1513.66 Q1237.87 1513.66 1240.93 1518.27 Q1244.01 1522.85 1244.01 1531.6 Q1244.01 1540.33 1240.93 1544.94 Q1237.87 1549.52 1232.06 1549.52 Q1226.25 1549.52 1223.17 1544.94 Q1220.12 1540.33 1220.12 1531.6 Q1220.12 1522.85 1223.17 1518.27 Q1226.25 1513.66 1232.06 1513.66 Z" fill="#000000" fill-rule="evenodd" fill-opacity="1" /><path clip-path="url(#clip760)" d="M1252.22 1542.97 L1257.11 1542.97 L1257.11 1548.85 L1252.22 1548.85 L1252.22 1542.97 Z" fill="#000000" fill-rule="evenodd" fill-opacity="1" /><path clip-path="url(#clip760)" d="M1277.29 1517.37 Q1273.68 1517.37 1271.85 1520.93 Q1270.05 1524.47 1270.05 1531.6 Q1270.05 1538.71 1271.85 1542.27 Q1273.68 1545.82 1277.29 1545.82 Q1280.93 1545.82 1282.73 1542.27 Q1284.56 1538.71 1284.56 1531.6 Q1284.56 1524.47 1282.73 1520.93 Q1280.93 1517.37 1277.29 1517.37 M1277.29 1513.66 Q1283.1 1513.66 1286.16 1518.27 Q1289.24 1522.85 1289.24 1531.6 Q1289.24 1540.33 1286.16 1544.94 Q1283.1 1549.52 1277.29 1549.52 Q1271.48 1549.52 1268.4 1544.94 Q1265.35 1540.33 1265.35 1531.6 Q1265.35 1522.85 1268.4 1518.27 Q1271.48 1513.66 1277.29 1513.66 Z" fill="#000000" fill-rule="evenodd" fill-opacity="1" /><path clip-path="url(#clip760)" d="M1750.52 1517.37 Q1746.91 1517.37 1745.08 1520.93 Q1743.28 1524.47 1743.28 1531.6 Q1743.28 1538.71 1745.08 1542.27 Q1746.91 1545.82 1750.52 1545.82 Q1754.16 1545.82 1755.96 1542.27 Q1757.79 1538.71 1757.79 1531.6 Q1757.79 1524.47 1755.96 1520.93 Q1754.16 1517.37 1750.52 1517.37 M1750.52 1513.66 Q1756.33 1513.66 1759.39 1518.27 Q1762.47 1522.85 1762.47 1531.6 Q1762.47 1540.33 1759.39 1544.94 Q1756.33 1549.52 1750.52 1549.52 Q1744.71 1549.52 1741.63 1544.94 Q1738.58 1540.33 1738.58 1531.6 Q1738.58 1522.85 1741.63 1518.27 Q1744.71 1513.66 1750.52 1513.66 Z" fill="#000000" fill-rule="evenodd" fill-opacity="1" /><path clip-path="url(#clip760)" d="M1770.68 1542.97 L1775.57 1542.97 L1775.57 1548.85 L1770.68 1548.85 L1770.68 1542.97 Z" fill="#000000" fill-rule="evenodd" fill-opacity="1" /><path clip-path="url(#clip760)" d="M1785.8 1514.29 L1804.15 1514.29 L1804.15 1518.22 L1790.08 1518.22 L1790.08 1526.7 Q1791.1 1526.35 1792.12 1526.19 Q1793.14 1526 1794.15 1526 Q1799.94 1526 1803.32 1529.17 Q1806.7 1532.34 1806.7 1537.76 Q1806.7 1543.34 1803.23 1546.44 Q1799.76 1549.52 1793.44 1549.52 Q1791.26 1549.52 1788.99 1549.15 Q1786.75 1548.78 1784.34 1548.04 L1784.34 1543.34 Q1786.42 1544.47 1788.65 1545.03 Q1790.87 1545.58 1793.34 1545.58 Q1797.35 1545.58 1799.69 1543.48 Q1802.03 1541.37 1802.03 1537.76 Q1802.03 1534.15 1799.69 1532.04 Q1797.35 1529.94 1793.34 1529.94 Q1791.47 1529.94 1789.59 1530.35 Q1787.74 1530.77 1785.8 1531.65 L1785.8 1514.29 Z" fill="#000000" fill-rule="evenodd" fill-opacity="1" /><path clip-path="url(#clip760)" d="M2257.75 1544.91 L2265.39 1544.91 L2265.39 1518.55 L2257.08 1520.21 L2257.08 1515.95 L2265.35 1514.29 L2270.02 1514.29 L2270.02 1544.91 L2277.66 1544.91 L2277.66 1548.85 L2257.75 1548.85 L2257.75 1544.91 Z" fill="#000000" fill-rule="evenodd" fill-opacity="1" /><path clip-path="url(#clip760)" d="M2287.11 1542.97 L2291.99 1542.97 L2291.99 1548.85 L2287.11 1548.85 L2287.11 1542.97 Z" fill="#000000" fill-rule="evenodd" fill-opacity="1" /><path clip-path="url(#clip760)" d="M2312.17 1517.37 Q2308.56 1517.37 2306.73 1520.93 Q2304.93 1524.47 2304.93 1531.6 Q2304.93 1538.71 2306.73 1542.27 Q2308.56 1545.82 2312.17 1545.82 Q2315.81 1545.82 2317.61 1542.27 Q2319.44 1538.71 2319.44 1531.6 Q2319.44 1524.47 2317.61 1520.93 Q2315.81 1517.37 2312.17 1517.37 M2312.17 1513.66 Q2317.98 1513.66 2321.04 1518.27 Q2324.12 1522.85 2324.12 1531.6 Q2324.12 1540.33 2321.04 1544.94 Q2317.98 1549.52 2312.17 1549.52 Q2306.36 1549.52 2303.29 1544.94 Q2300.23 1540.33 2300.23 1531.6 Q2300.23 1522.85 2303.29 1518.27 Q2306.36 1513.66 2312.17 1513.66 Z" fill="#000000" fill-rule="evenodd" fill-opacity="1" /><polyline clip-path="url(#clip763)" style="stroke:#000000; stroke-linecap:round; stroke-linejoin:round; stroke-width:2; stroke-opacity:0.1; fill:none" points="
  156.598,1253.14 2352.76,1253.14 
  "/>
<polyline clip-path="url(#clip763)" style="stroke:#000000; stroke-linecap:round; stroke-linejoin:round; stroke-width:2; stroke-opacity:0.1; fill:none" points="
  156.598,964.729 2352.76,964.729 
  "/>
<polyline clip-path="url(#clip763)" style="stroke:#000000; stroke-linecap:round; stroke-linejoin:round; stroke-width:2; stroke-opacity:0.1; fill:none" points="
  156.598,676.322 2352.76,676.322 
  "/>
<polyline clip-path="url(#clip763)" style="stroke:#000000; stroke-linecap:round; stroke-linejoin:round; stroke-width:2; stroke-opacity:0.1; fill:none" points="
  156.598,387.916 2352.76,387.916 
  "/>
<polyline clip-path="url(#clip763)" style="stroke:#000000; stroke-linecap:round; stroke-linejoin:round; stroke-width:2; stroke-opacity:0.1; fill:none" points="
  156.598,99.509 2352.76,99.509 
  "/>
<polyline clip-path="url(#clip760)" style="stroke:#000000; stroke-linecap:round; stroke-linejoin:round; stroke-width:4; stroke-opacity:1; fill:none" points="
  156.598,1486.45 156.598,47.2441 
  "/>
<polyline clip-path="url(#clip760)" style="stroke:#000000; stroke-linecap:round; stroke-linejoin:round; stroke-width:4; stroke-opacity:1; fill:none" points="
  156.598,1253.14 175.496,1253.14 
  "/>
<polyline clip-path="url(#clip760)" style="stroke:#000000; stroke-linecap:round; stroke-linejoin:round; stroke-width:4; stroke-opacity:1; fill:none" points="
  156.598,964.729 175.496,964.729 
  "/>
<polyline clip-path="url(#clip760)" style="stroke:#000000; stroke-linecap:round; stroke-linejoin:round; stroke-width:4; stroke-opacity:1; fill:none" points="
  156.598,676.322 175.496,676.322 
  "/>
<polyline clip-path="url(#clip760)" style="stroke:#000000; stroke-linecap:round; stroke-linejoin:round; stroke-width:4; stroke-opacity:1; fill:none" points="
  156.598,387.916 175.496,387.916 
  "/>
<polyline clip-path="url(#clip760)" style="stroke:#000000; stroke-linecap:round; stroke-linejoin:round; stroke-width:4; stroke-opacity:1; fill:none" points="
  156.598,99.509 175.496,99.509 
  "/>
<path clip-path="url(#clip760)" d="M65.0198 1238.93 Q61.4087 1238.93 59.58 1242.5 Q57.7745 1246.04 57.7745 1253.17 Q57.7745 1260.28 59.58 1263.84 Q61.4087 1267.38 65.0198 1267.38 Q68.6541 1267.38 70.4596 1263.84 Q72.2883 1260.28 72.2883 1253.17 Q72.2883 1246.04 70.4596 1242.5 Q68.6541 1238.93 65.0198 1238.93 M65.0198 1235.23 Q70.83 1235.23 73.8855 1239.84 Q76.9642 1244.42 76.9642 1253.17 Q76.9642 1261.9 73.8855 1266.5 Q70.83 1271.09 65.0198 1271.09 Q59.2097 1271.09 56.131 1266.5 Q53.0754 1261.9 53.0754 1253.17 Q53.0754 1244.42 56.131 1239.84 Q59.2097 1235.23 65.0198 1235.23 Z" fill="#000000" fill-rule="evenodd" fill-opacity="1" /><path clip-path="url(#clip760)" d="M85.1818 1264.54 L90.066 1264.54 L90.066 1270.42 L85.1818 1270.42 L85.1818 1264.54 Z" fill="#000000" fill-rule="evenodd" fill-opacity="1" /><path clip-path="url(#clip760)" d="M104.279 1266.48 L120.598 1266.48 L120.598 1270.42 L98.6539 1270.42 L98.6539 1266.48 Q101.316 1263.73 105.899 1259.1 Q110.506 1254.44 111.686 1253.1 Q113.932 1250.58 114.811 1248.84 Q115.714 1247.08 115.714 1245.39 Q115.714 1242.64 113.77 1240.9 Q111.848 1239.17 108.746 1239.17 Q106.547 1239.17 104.094 1239.93 Q101.663 1240.69 98.8854 1242.24 L98.8854 1237.52 Q101.709 1236.39 104.163 1235.81 Q106.617 1235.23 108.654 1235.23 Q114.024 1235.23 117.219 1237.92 Q120.413 1240.6 120.413 1245.09 Q120.413 1247.22 119.603 1249.14 Q118.816 1251.04 116.709 1253.63 Q116.131 1254.3 113.029 1257.52 Q109.927 1260.72 104.279 1266.48 Z" fill="#000000" fill-rule="evenodd" fill-opacity="1" /><path clip-path="url(#clip760)" d="M62.9365 950.528 Q59.3254 950.528 57.4967 954.092 Q55.6912 957.634 55.6912 964.764 Q55.6912 971.87 57.4967 975.435 Q59.3254 978.976 62.9365 978.976 Q66.5707 978.976 68.3763 975.435 Q70.205 971.87 70.205 964.764 Q70.205 957.634 68.3763 954.092 Q66.5707 950.528 62.9365 950.528 M62.9365 946.824 Q68.7467 946.824 71.8022 951.43 Q74.8809 956.014 74.8809 964.764 Q74.8809 973.49 71.8022 978.097 Q68.7467 982.68 62.9365 982.68 Q57.1264 982.68 54.0477 978.097 Q50.9921 973.49 50.9921 964.764 Q50.9921 956.014 54.0477 951.43 Q57.1264 946.824 62.9365 946.824 Z" fill="#000000" fill-rule="evenodd" fill-opacity="1" /><path clip-path="url(#clip760)" d="M83.0984 976.129 L87.9827 976.129 L87.9827 982.009 L83.0984 982.009 L83.0984 976.129 Z" fill="#000000" fill-rule="evenodd" fill-opacity="1" /><path clip-path="url(#clip760)" d="M111.015 951.523 L99.2095 969.972 L111.015 969.972 L111.015 951.523 M109.788 947.449 L115.668 947.449 L115.668 969.972 L120.598 969.972 L120.598 973.861 L115.668 973.861 L115.668 982.009 L111.015 982.009 L111.015 973.861 L95.4132 973.861 L95.4132 969.347 L109.788 947.449 Z" fill="#000000" fill-rule="evenodd" fill-opacity="1" /><path clip-path="url(#clip760)" d="M63.2606 662.121 Q59.6495 662.121 57.8208 665.686 Q56.0152 669.227 56.0152 676.357 Q56.0152 683.463 57.8208 687.028 Q59.6495 690.57 63.2606 690.57 Q66.8948 690.57 68.7004 687.028 Q70.5291 683.463 70.5291 676.357 Q70.5291 669.227 68.7004 665.686 Q66.8948 662.121 63.2606 662.121 M63.2606 658.417 Q69.0707 658.417 72.1263 663.024 Q75.205 667.607 75.205 676.357 Q75.205 685.084 72.1263 689.69 Q69.0707 694.274 63.2606 694.274 Q57.4504 694.274 54.3717 689.69 Q51.3162 685.084 51.3162 676.357 Q51.3162 667.607 54.3717 663.024 Q57.4504 658.417 63.2606 658.417 Z" fill="#000000" fill-rule="evenodd" fill-opacity="1" /><path clip-path="url(#clip760)" d="M83.4225 687.723 L88.3067 687.723 L88.3067 693.602 L83.4225 693.602 L83.4225 687.723 Z" fill="#000000" fill-rule="evenodd" fill-opacity="1" /><path clip-path="url(#clip760)" d="M109.071 674.459 Q105.922 674.459 104.071 676.612 Q102.242 678.764 102.242 682.514 Q102.242 686.241 104.071 688.417 Q105.922 690.57 109.071 690.57 Q112.219 690.57 114.047 688.417 Q115.899 686.241 115.899 682.514 Q115.899 678.764 114.047 676.612 Q112.219 674.459 109.071 674.459 M118.353 659.806 L118.353 664.065 Q116.594 663.232 114.788 662.792 Q113.006 662.352 111.246 662.352 Q106.617 662.352 104.163 665.477 Q101.733 668.602 101.385 674.922 Q102.751 672.908 104.811 671.843 Q106.871 670.755 109.348 670.755 Q114.557 670.755 117.566 673.926 Q120.598 677.075 120.598 682.514 Q120.598 687.838 117.45 691.056 Q114.302 694.274 109.071 694.274 Q103.075 694.274 99.9039 689.69 Q96.7326 685.084 96.7326 676.357 Q96.7326 668.163 100.621 663.301 Q104.51 658.417 111.061 658.417 Q112.82 658.417 114.603 658.764 Q116.408 659.112 118.353 659.806 Z" fill="#000000" fill-rule="evenodd" fill-opacity="1" /><path clip-path="url(#clip760)" d="M63.5152 373.714 Q59.9041 373.714 58.0754 377.279 Q56.2699 380.821 56.2699 387.95 Q56.2699 395.057 58.0754 398.622 Q59.9041 402.163 63.5152 402.163 Q67.1494 402.163 68.955 398.622 Q70.7837 395.057 70.7837 387.95 Q70.7837 380.821 68.955 377.279 Q67.1494 373.714 63.5152 373.714 M63.5152 370.011 Q69.3254 370.011 72.3809 374.617 Q75.4596 379.2 75.4596 387.95 Q75.4596 396.677 72.3809 401.284 Q69.3254 405.867 63.5152 405.867 Q57.7051 405.867 54.6264 401.284 Q51.5708 396.677 51.5708 387.95 Q51.5708 379.2 54.6264 374.617 Q57.7051 370.011 63.5152 370.011 Z" fill="#000000" fill-rule="evenodd" fill-opacity="1" /><path clip-path="url(#clip760)" d="M83.6771 399.316 L88.5614 399.316 L88.5614 405.196 L83.6771 405.196 L83.6771 399.316 Z" fill="#000000" fill-rule="evenodd" fill-opacity="1" /><path clip-path="url(#clip760)" d="M108.746 388.784 Q105.413 388.784 103.492 390.566 Q101.594 392.348 101.594 395.473 Q101.594 398.598 103.492 400.381 Q105.413 402.163 108.746 402.163 Q112.08 402.163 114.001 400.381 Q115.922 398.575 115.922 395.473 Q115.922 392.348 114.001 390.566 Q112.103 388.784 108.746 388.784 M104.071 386.793 Q101.061 386.052 99.3715 383.992 Q97.7048 381.932 97.7048 378.969 Q97.7048 374.825 100.645 372.418 Q103.608 370.011 108.746 370.011 Q113.908 370.011 116.848 372.418 Q119.788 374.825 119.788 378.969 Q119.788 381.932 118.098 383.992 Q116.432 386.052 113.445 386.793 Q116.825 387.58 118.7 389.872 Q120.598 392.163 120.598 395.473 Q120.598 400.497 117.52 403.182 Q114.464 405.867 108.746 405.867 Q103.029 405.867 99.9502 403.182 Q96.8947 400.497 96.8947 395.473 Q96.8947 392.163 98.7928 389.872 Q100.691 387.58 104.071 386.793 M102.358 379.409 Q102.358 382.094 104.024 383.598 Q105.714 385.103 108.746 385.103 Q111.756 385.103 113.445 383.598 Q115.158 382.094 115.158 379.409 Q115.158 376.724 113.445 375.219 Q111.756 373.714 108.746 373.714 Q105.714 373.714 104.024 375.219 Q102.358 376.724 102.358 379.409 Z" fill="#000000" fill-rule="evenodd" fill-opacity="1" /><path clip-path="url(#clip760)" d="M54.2328 112.854 L61.8717 112.854 L61.8717 86.4882 L53.5616 88.1548 L53.5616 83.8956 L61.8254 82.229 L66.5013 82.229 L66.5013 112.854 L74.1402 112.854 L74.1402 116.789 L54.2328 116.789 L54.2328 112.854 Z" fill="#000000" fill-rule="evenodd" fill-opacity="1" /><path clip-path="url(#clip760)" d="M83.5845 110.909 L88.4688 110.909 L88.4688 116.789 L83.5845 116.789 L83.5845 110.909 Z" fill="#000000" fill-rule="evenodd" fill-opacity="1" /><path clip-path="url(#clip760)" d="M108.654 85.3076 Q105.043 85.3076 103.214 88.8724 Q101.409 92.4141 101.409 99.5437 Q101.409 106.65 103.214 110.215 Q105.043 113.757 108.654 113.757 Q112.288 113.757 114.094 110.215 Q115.922 106.65 115.922 99.5437 Q115.922 92.4141 114.094 88.8724 Q112.288 85.3076 108.654 85.3076 M108.654 81.604 Q114.464 81.604 117.52 86.2104 Q120.598 90.7937 120.598 99.5437 Q120.598 108.27 117.52 112.877 Q114.464 117.46 108.654 117.46 Q102.844 117.46 99.765 112.877 Q96.7095 108.27 96.7095 99.5437 Q96.7095 90.7937 99.765 86.2104 Q102.844 81.604 108.654 81.604 Z" fill="#000000" fill-rule="evenodd" fill-opacity="1" /><polyline clip-path="url(#clip763)" style="stroke:#009af9; stroke-linecap:round; stroke-linejoin:round; stroke-width:16; stroke-opacity:1; fill:none" points="
  218.754,1426.12 222.906,1437.31 227.058,1443.45 231.21,1445.72 235.362,1445.06 239.514,1442.29 243.666,1438.06 247.818,1432.89 251.97,1427.21 256.122,1421.34 
  260.274,1415.53 264.426,1409.99 268.578,1404.83 272.73,1400.14 276.882,1395.98 281.034,1392.37 285.186,1389.3 289.338,1386.77 293.49,1384.72 297.642,1383.13 
  301.794,1381.94 305.946,1381.1 310.098,1380.55 314.25,1380.24 318.402,1380.11 322.554,1380.11 326.706,1380.19 330.858,1380.32 335.01,1380.44 339.162,1380.53 
  343.314,1380.55 347.466,1380.47 351.618,1380.29 355.77,1379.97 359.922,1379.51 364.074,1378.89 368.226,1378.12 372.378,1377.18 376.53,1376.08 380.682,1374.83 
  384.834,1373.42 388.986,1371.87 393.138,1370.18 397.29,1368.36 401.442,1366.42 405.594,1364.38 409.746,1362.24 413.898,1360.02 418.05,1357.73 422.202,1355.38 
  426.354,1352.98 430.506,1350.54 434.658,1348.08 438.81,1345.59 442.962,1343.1 447.114,1340.6 451.266,1338.11 455.418,1335.62 459.57,1333.16 463.722,1330.71 
  467.874,1328.28 472.026,1325.88 476.177,1323.5 480.329,1321.15 484.481,1318.82 488.633,1316.52 492.785,1314.24 496.937,1311.99 501.089,1309.75 505.241,1307.53 
  509.393,1305.32 513.545,1303.12 517.697,1300.92 521.849,1298.72 526.001,1296.51 530.153,1294.29 534.305,1292.06 538.457,1289.81 542.609,1287.54 546.761,1285.24 
  550.913,1282.9 555.065,1280.52 559.217,1278.11 563.369,1275.64 567.521,1273.13 571.673,1270.56 575.825,1267.94 579.977,1265.26 584.129,1262.52 588.281,1259.71 
  592.433,1256.83 596.585,1253.89 600.737,1250.88 604.889,1247.8 609.041,1244.65 613.193,1241.43 617.345,1238.14 621.497,1234.77 625.649,1231.34 629.801,1227.83 
  633.953,1224.26 638.105,1220.61 642.257,1216.91 646.409,1213.13 650.561,1209.29 654.713,1205.39 658.865,1201.43 663.017,1197.4 667.169,1193.32 671.321,1189.19 
  675.473,1185 679.625,1180.76 683.777,1176.47 687.929,1172.13 692.081,1167.74 696.233,1163.31 700.385,1158.83 704.537,1154.31 708.689,1149.75 712.841,1145.15 
  716.993,1140.52 721.145,1135.84 725.297,1131.12 729.449,1126.37 733.601,1121.58 737.753,1116.76 741.905,1111.89 746.057,1106.99 750.209,1102.05 754.361,1097.07 
  758.513,1092.05 762.665,1087 766.817,1081.89 770.969,1076.75 775.121,1071.56 779.273,1066.32 783.425,1061.03 787.577,1055.7 791.729,1050.3 795.881,1044.85 
  800.033,1039.34 804.185,1033.77 808.337,1028.14 812.489,1022.43 816.641,1016.66 820.793,1010.81 824.945,1004.88 829.097,998.866 833.249,992.77 837.401,986.586 
  841.553,980.309 845.705,973.937 849.857,967.465 854.009,960.89 858.161,954.209 862.313,947.418 866.465,940.513 870.617,933.492 874.769,926.35 878.921,919.086 
  883.073,911.694 887.225,904.173 891.377,896.52 895.529,888.733 899.681,880.807 903.833,872.742 907.985,864.535 912.137,856.185 916.289,847.689 920.441,839.045 
  924.593,830.254 928.745,821.313 932.897,812.222 937.049,802.981 941.201,793.589 945.353,784.047 949.505,774.355 953.657,764.513 957.809,754.523 961.961,744.386 
  966.113,734.104 970.265,723.679 974.417,713.113 978.569,702.409 982.721,691.571 986.873,680.601 991.025,669.503 995.177,658.282 999.329,646.943 1003.48,635.489 
  1007.63,623.927 1011.79,612.263 1015.94,600.501 1020.09,588.65 1024.24,576.715 1028.39,564.703 1032.55,552.622 1036.7,540.481 1040.85,528.287 1045,516.048 
  1049.15,503.773 1053.31,491.473 1057.46,479.155 1061.61,466.831 1065.76,454.509 1069.91,442.201 1074.07,429.916 1078.22,417.666 1082.37,405.462 1086.52,393.315 
  1090.67,381.237 1094.83,369.238 1098.98,357.332 1103.13,345.53 1107.28,333.843 1111.43,322.285 1115.59,310.868 1119.74,299.603 1123.89,288.503 1128.04,277.581 
  1132.19,266.85 1136.35,256.32 1140.5,246.005 1144.65,235.918 1148.8,226.069 1152.95,216.471 1157.11,207.137 1161.26,198.077 1165.41,189.303 1169.56,180.827 
  1173.71,172.66 1177.87,164.812 1182.02,157.293 1186.17,150.115 1190.32,143.286 1194.47,136.817 1198.63,130.716 1202.78,124.992 1206.93,119.653 1211.08,114.707 
  1215.23,110.162 1219.39,106.024 1223.54,102.299 1227.69,98.9944 1231.84,96.1141 1235.99,93.6632 1240.15,91.646 1244.3,90.066 1248.45,88.9262 1252.6,88.229 
  1256.75,87.9763 1260.91,88.1692 1265.06,88.8082 1269.21,89.8934 1273.36,91.424 1277.51,93.3987 1281.67,95.8156 1285.82,98.6721 1289.97,101.965 1294.12,105.69 
  1298.27,109.844 1302.43,114.42 1306.58,119.414 1310.73,124.819 1314.88,130.628 1319.03,136.834 1323.19,143.429 1327.34,150.405 1331.49,157.752 1335.64,165.461 
  1339.79,173.522 1343.95,181.925 1348.1,190.658 1352.25,199.711 1356.4,209.072 1360.55,218.729 1364.71,228.669 1368.86,238.88 1373.01,249.349 1377.16,260.062 
  1381.31,271.007 1385.46,282.17 1389.62,293.537 1393.77,305.094 1397.92,316.828 1402.07,328.724 1406.22,340.768 1410.38,352.947 1414.53,365.245 1418.68,377.65 
  1422.83,390.148 1426.98,402.724 1431.14,415.366 1435.29,428.059 1439.44,440.792 1443.59,453.55 1447.74,466.321 1451.9,479.093 1456.05,491.854 1460.2,504.593 
  1464.35,517.297 1468.5,529.956 1472.66,542.559 1476.81,555.097 1480.96,567.559 1485.11,579.937 1489.26,592.222 1493.42,604.405 1497.57,616.479 1501.72,628.437 
  1505.87,640.271 1510.02,651.976 1514.18,663.546 1518.33,674.976 1522.48,686.261 1526.63,697.397 1530.78,708.381 1534.94,719.208 1539.09,729.877 1543.24,740.386 
  1547.39,750.733 1551.54,760.916 1555.7,770.936 1559.85,780.791 1564,790.482 1568.15,800.01 1572.3,809.375 1576.46,818.578 1580.61,827.622 1584.76,836.508 
  1588.91,845.239 1593.06,853.817 1597.22,862.245 1601.37,870.526 1605.52,878.663 1609.67,886.659 1613.82,894.519 1617.98,902.246 1622.13,909.842 1626.28,917.314 
  1630.43,924.663 1634.58,931.895 1638.74,939.013 1642.89,946.02 1647.04,952.922 1651.19,959.72 1655.34,966.42 1659.5,973.024 1663.65,979.536 1667.8,985.96 
  1671.95,992.298 1676.1,998.553 1680.26,1004.73 1684.41,1010.82 1688.56,1016.85 1692.71,1022.8 1696.86,1028.67 1701.02,1034.48 1705.17,1040.22 1709.32,1045.89 
  1713.47,1051.5 1717.62,1057.04 1721.78,1062.52 1725.93,1067.93 1730.08,1073.28 1734.23,1078.56 1738.38,1083.78 1742.54,1088.93 1746.69,1094.02 1750.84,1099.04 
  1754.99,1103.99 1759.14,1108.88 1763.3,1113.7 1767.45,1118.45 1771.6,1123.12 1775.75,1127.73 1779.9,1132.26 1784.06,1136.72 1788.21,1141.1 1792.36,1145.41 
  1796.51,1149.64 1800.66,1153.8 1804.82,1157.88 1808.97,1161.88 1813.12,1165.81 1817.27,1169.66 1821.42,1173.43 1825.58,1177.13 1829.73,1180.75 1833.88,1184.3 
  1838.03,1187.78 1842.18,1191.19 1846.34,1194.53 1850.49,1197.81 1854.64,1201.03 1858.79,1204.18 1862.94,1207.28 1867.1,1210.33 1871.25,1213.33 1875.4,1216.29 
  1879.55,1219.2 1883.7,1222.08 1887.86,1224.93 1892.01,1227.76 1896.16,1230.56 1900.31,1233.34 1904.46,1236.12 1908.62,1238.89 1912.77,1241.65 1916.92,1244.42 
  1921.07,1247.2 1925.22,1249.99 1929.38,1252.8 1933.53,1255.63 1937.68,1258.49 1941.83,1261.38 1945.98,1264.29 1950.14,1267.24 1954.29,1270.23 1958.44,1273.25 
  1962.59,1276.32 1966.74,1279.42 1970.9,1282.56 1975.05,1285.74 1979.2,1288.96 1983.35,1292.21 1987.5,1295.5 1991.66,1298.81 1995.81,1302.14 1999.96,1305.5 
  2004.11,1308.87 2008.26,1312.24 2012.42,1315.61 2016.57,1318.98 2020.72,1322.33 2024.87,1325.66 2029.02,1328.95 2033.18,1332.2 2037.33,1335.4 2041.48,1338.54 
  2045.63,1341.61 2049.78,1344.59 2053.94,1347.49 2058.09,1350.29 2062.24,1352.98 2066.39,1355.56 2070.54,1358.01 2074.7,1360.34 2078.85,1362.53 2083,1364.58 
  2087.15,1366.48 2091.3,1368.25 2095.46,1369.86 2099.61,1371.33 2103.76,1372.66 2107.91,1373.84 2112.06,1374.9 2116.22,1375.82 2120.37,1376.63 2124.52,1377.34 
  2128.67,1377.94 2132.82,1378.47 2136.98,1378.94 2141.13,1379.35 2145.28,1379.74 2149.43,1380.11 2153.58,1380.5 2157.74,1380.91 2161.89,1381.38 2166.04,1381.92 
  2170.19,1382.54 2174.34,1383.28 2178.5,1384.14 2182.65,1385.14 2186.8,1386.29 2190.95,1387.61 2195.1,1389.09 2199.26,1390.75 2203.41,1392.57 2207.56,1394.56 
  2211.71,1396.68 2215.86,1398.94 2220.02,1401.3 2224.17,1403.73 2228.32,1406.19 2232.47,1408.65 2236.62,1411.05 2240.78,1413.34 2244.93,1415.47 2249.08,1417.38 
  2253.23,1419.02 2257.38,1420.33 2261.54,1421.27 2265.69,1421.79 2269.84,1421.89 2273.99,1421.57 2278.14,1420.85 2282.3,1419.8 2286.45,1418.54 2290.6,1417.24 
  
  "/>
<polyline clip-path="url(#clip763)" style="stroke:#e26f46; stroke-linecap:round; stroke-linejoin:round; stroke-width:16; stroke-opacity:1; fill:none" points="
  218.754,1410.45 222.906,1409.49 227.058,1408.52 231.21,1407.54 235.362,1406.54 239.514,1405.54 243.666,1404.53 247.818,1403.51 251.97,1402.47 256.122,1401.42 
  260.274,1400.37 264.426,1399.3 268.578,1398.22 272.73,1397.12 276.882,1396.02 281.034,1394.9 285.186,1393.77 289.338,1392.63 293.49,1391.47 297.642,1390.31 
  301.794,1389.12 305.946,1387.93 310.098,1386.72 314.25,1385.5 318.402,1384.26 322.554,1383.01 326.706,1381.75 330.858,1380.47 335.01,1379.18 339.162,1377.87 
  343.314,1376.55 347.466,1375.21 351.618,1373.85 355.77,1372.48 359.922,1371.09 364.074,1369.69 368.226,1368.27 372.378,1366.83 376.53,1365.38 380.682,1363.91 
  384.834,1362.42 388.986,1360.91 393.138,1359.39 397.29,1357.85 401.442,1356.28 405.594,1354.7 409.746,1353.1 413.898,1351.48 418.05,1349.84 422.202,1348.18 
  426.354,1346.5 430.506,1344.8 434.658,1343.08 438.81,1341.34 442.962,1339.57 447.114,1337.78 451.266,1335.97 455.418,1334.14 459.57,1332.28 463.722,1330.4 
  467.874,1328.5 472.026,1326.57 476.177,1324.62 480.329,1322.64 484.481,1320.63 488.633,1318.6 492.785,1316.55 496.937,1314.46 501.089,1312.35 505.241,1310.22 
  509.393,1308.05 513.545,1305.85 517.697,1303.63 521.849,1301.38 526.001,1299.09 530.153,1296.78 534.305,1294.44 538.457,1292.06 542.609,1289.65 546.761,1287.21 
  550.913,1284.74 555.065,1282.23 559.217,1279.69 563.369,1277.11 567.521,1274.5 571.673,1271.85 575.825,1269.17 579.977,1266.45 584.129,1263.69 588.281,1260.89 
  592.433,1258.06 596.585,1255.18 600.737,1252.26 604.889,1249.31 609.041,1246.31 613.193,1243.27 617.345,1240.18 621.497,1237.05 625.649,1233.88 629.801,1230.66 
  633.953,1227.4 638.105,1224.09 642.257,1220.73 646.409,1217.32 650.561,1213.87 654.713,1210.36 658.865,1206.81 663.017,1203.2 667.169,1199.54 671.321,1195.82 
  675.473,1192.05 679.625,1188.23 683.777,1184.35 687.929,1180.41 692.081,1176.42 696.233,1172.36 700.385,1168.25 704.537,1164.07 708.689,1159.84 712.841,1155.54 
  716.993,1151.17 721.145,1146.74 725.297,1142.25 729.449,1137.68 733.601,1133.05 737.753,1128.35 741.905,1123.58 746.057,1118.74 750.209,1113.82 754.361,1108.83 
  758.513,1103.77 762.665,1098.63 766.817,1093.41 770.969,1088.11 775.121,1082.73 779.273,1077.28 783.425,1071.74 787.577,1066.11 791.729,1060.41 795.881,1054.61 
  800.033,1048.73 804.185,1042.76 808.337,1036.7 812.489,1030.55 816.641,1024.31 820.793,1017.98 824.945,1011.55 829.097,1005.02 833.249,998.398 837.401,991.677 
  841.553,984.858 845.705,977.937 849.857,970.915 854.009,963.79 858.161,956.561 862.313,949.227 866.465,941.788 870.617,934.241 874.769,926.585 878.921,918.821 
  883.073,910.947 887.225,902.962 891.377,894.866 895.529,886.657 899.681,878.335 903.833,869.899 907.985,861.349 912.137,852.685 916.289,843.905 920.441,835.009 
  924.593,825.998 928.745,816.872 932.897,807.629 937.049,798.271 941.201,788.797 945.353,779.208 949.505,769.505 953.657,759.687 957.809,749.756 961.961,739.713 
  966.113,729.559 970.265,719.296 974.417,708.923 978.569,698.444 982.721,687.861 986.873,677.175 991.025,666.388 995.177,655.504 999.329,644.525 1003.48,633.455 
  1007.63,622.296 1011.79,611.052 1015.94,599.728 1020.09,588.327 1024.24,576.854 1028.39,565.313 1032.55,553.711 1036.7,542.052 1040.85,530.343 1045,518.589 
  1049.15,506.798 1053.31,494.975 1057.46,483.129 1061.61,471.267 1065.76,459.397 1069.91,447.527 1074.07,435.667 1078.22,423.825 1082.37,412.011 1086.52,400.235 
  1090.67,388.507 1094.83,376.838 1098.98,365.239 1103.13,353.721 1107.28,342.295 1111.43,330.974 1115.59,319.77 1119.74,308.696 1123.89,297.763 1128.04,286.986 
  1132.19,276.377 1136.35,265.95 1140.5,255.718 1144.65,245.695 1148.8,235.894 1152.95,226.329 1157.11,217.014 1161.26,207.962 1165.41,199.188 1169.56,190.704 
  1173.71,182.523 1177.87,174.66 1182.02,167.126 1186.17,159.933 1190.32,153.095 1194.47,146.622 1198.63,140.526 1202.78,134.818 1206.93,129.507 1211.08,124.604 
  1215.23,120.117 1219.39,116.054 1223.54,112.423 1227.69,109.23 1231.84,106.483 1235.99,104.185 1240.15,102.341 1244.3,100.955 1248.45,100.03 1252.6,99.5669 
  1256.75,99.5669 1260.91,100.03 1265.06,100.955 1269.21,102.341 1273.36,104.185 1277.51,106.483 1281.67,109.23 1285.82,112.423 1289.97,116.054 1294.12,120.117 
  1298.27,124.604 1302.43,129.507 1306.58,134.818 1310.73,140.526 1314.88,146.622 1319.03,153.095 1323.19,159.933 1327.34,167.126 1331.49,174.66 1335.64,182.523 
  1339.79,190.704 1343.95,199.188 1348.1,207.962 1352.25,217.014 1356.4,226.329 1360.55,235.894 1364.71,245.695 1368.86,255.718 1373.01,265.95 1377.16,276.377 
  1381.31,286.986 1385.46,297.763 1389.62,308.696 1393.77,319.77 1397.92,330.974 1402.07,342.295 1406.22,353.721 1410.38,365.239 1414.53,376.838 1418.68,388.507 
  1422.83,400.235 1426.98,412.011 1431.14,423.825 1435.29,435.667 1439.44,447.527 1443.59,459.397 1447.74,471.267 1451.9,483.129 1456.05,494.975 1460.2,506.798 
  1464.35,518.589 1468.5,530.343 1472.66,542.052 1476.81,553.711 1480.96,565.313 1485.11,576.854 1489.26,588.327 1493.42,599.728 1497.57,611.052 1501.72,622.296 
  1505.87,633.455 1510.02,644.525 1514.18,655.504 1518.33,666.388 1522.48,677.175 1526.63,687.861 1530.78,698.444 1534.94,708.923 1539.09,719.296 1543.24,729.559 
  1547.39,739.713 1551.54,749.756 1555.7,759.687 1559.85,769.505 1564,779.208 1568.15,788.797 1572.3,798.271 1576.46,807.629 1580.61,816.872 1584.76,825.998 
  1588.91,835.009 1593.06,843.905 1597.22,852.685 1601.37,861.349 1605.52,869.899 1609.67,878.335 1613.82,886.657 1617.98,894.866 1622.13,902.962 1626.28,910.947 
  1630.43,918.821 1634.58,926.585 1638.74,934.241 1642.89,941.788 1647.04,949.227 1651.19,956.561 1655.34,963.79 1659.5,970.915 1663.65,977.937 1667.8,984.858 
  1671.95,991.677 1676.1,998.398 1680.26,1005.02 1684.41,1011.55 1688.56,1017.98 1692.71,1024.31 1696.86,1030.55 1701.02,1036.7 1705.17,1042.76 1709.32,1048.73 
  1713.47,1054.61 1717.62,1060.41 1721.78,1066.11 1725.93,1071.74 1730.08,1077.28 1734.23,1082.73 1738.38,1088.11 1742.54,1093.41 1746.69,1098.63 1750.84,1103.77 
  1754.99,1108.83 1759.14,1113.82 1763.3,1118.74 1767.45,1123.58 1771.6,1128.35 1775.75,1133.05 1779.9,1137.68 1784.06,1142.25 1788.21,1146.74 1792.36,1151.17 
  1796.51,1155.54 1800.66,1159.84 1804.82,1164.07 1808.97,1168.25 1813.12,1172.36 1817.27,1176.42 1821.42,1180.41 1825.58,1184.35 1829.73,1188.23 1833.88,1192.05 
  1838.03,1195.82 1842.18,1199.54 1846.34,1203.2 1850.49,1206.81 1854.64,1210.36 1858.79,1213.87 1862.94,1217.32 1867.1,1220.73 1871.25,1224.09 1875.4,1227.4 
  1879.55,1230.66 1883.7,1233.88 1887.86,1237.05 1892.01,1240.18 1896.16,1243.27 1900.31,1246.31 1904.46,1249.31 1908.62,1252.26 1912.77,1255.18 1916.92,1258.06 
  1921.07,1260.89 1925.22,1263.69 1929.38,1266.45 1933.53,1269.17 1937.68,1271.85 1941.83,1274.5 1945.98,1277.11 1950.14,1279.69 1954.29,1282.23 1958.44,1284.74 
  1962.59,1287.21 1966.74,1289.65 1970.9,1292.06 1975.05,1294.44 1979.2,1296.78 1983.35,1299.09 1987.5,1301.38 1991.66,1303.63 1995.81,1305.85 1999.96,1308.05 
  2004.11,1310.22 2008.26,1312.35 2012.42,1314.46 2016.57,1316.55 2020.72,1318.6 2024.87,1320.63 2029.02,1322.64 2033.18,1324.62 2037.33,1326.57 2041.48,1328.5 
  2045.63,1330.4 2049.78,1332.28 2053.94,1334.14 2058.09,1335.97 2062.24,1337.78 2066.39,1339.57 2070.54,1341.34 2074.7,1343.08 2078.85,1344.8 2083,1346.5 
  2087.15,1348.18 2091.3,1349.84 2095.46,1351.48 2099.61,1353.1 2103.76,1354.7 2107.91,1356.28 2112.06,1357.85 2116.22,1359.39 2120.37,1360.91 2124.52,1362.42 
  2128.67,1363.91 2132.82,1365.38 2136.98,1366.83 2141.13,1368.27 2145.28,1369.69 2149.43,1371.09 2153.58,1372.48 2157.74,1373.85 2161.89,1375.21 2166.04,1376.55 
  2170.19,1377.87 2174.34,1379.18 2178.5,1380.47 2182.65,1381.75 2186.8,1383.01 2190.95,1384.26 2195.1,1385.5 2199.26,1386.72 2203.41,1387.93 2207.56,1389.12 
  2211.71,1390.31 2215.86,1391.47 2220.02,1392.63 2224.17,1393.77 2228.32,1394.9 2232.47,1396.02 2236.62,1397.12 2240.78,1398.22 2244.93,1399.3 2249.08,1400.37 
  2253.23,1401.42 2257.38,1402.47 2261.54,1403.51 2265.69,1404.53 2269.84,1405.54 2273.99,1406.54 2278.14,1407.54 2282.3,1408.52 2286.45,1409.49 2290.6,1410.45 
  
  "/>
<path clip-path="url(#clip760)" d="
M1807.89 344.429 L2279.55 344.429 L2279.55 95.2176 L1807.89 95.2176  Z
  " fill="#ffffff" fill-rule="evenodd" fill-opacity="1"/>
<polyline clip-path="url(#clip760)" style="stroke:#000000; stroke-linecap:round; stroke-linejoin:round; stroke-width:4; stroke-opacity:1; fill:none" points="
  1807.89,344.429 2279.55,344.429 2279.55,95.2176 1807.89,95.2176 1807.89,344.429 
  "/>
<polyline clip-path="url(#clip760)" style="stroke:#009af9; stroke-linecap:round; stroke-linejoin:round; stroke-width:6; stroke-opacity:1; fill:none" points="
  1832.29,178.288 1978.7,178.288 
  "/>
<path clip-path="url(#clip760)" d="M2055.27 155.037 L2053.83 167.475 Q2053.73 168.599 2053.55 168.95 Q2053.38 169.266 2052.81 169.266 Q2052.39 169.266 2052.15 169.02 Q2051.94 168.739 2051.94 168.423 Q2051.94 168.248 2051.97 167.791 Q2052.01 167.334 2052.01 167.123 Q2052.32 164.945 2052.32 163.294 Q2052.32 160.237 2051.41 158.586 Q2050.5 156.899 2048.14 156.126 Q2045.79 155.318 2041.36 155.318 L2031.24 155.318 Q2028.92 155.318 2028.36 155.74 Q2027.83 156.162 2027.34 158.129 L2023.02 175.45 L2029.8 175.45 Q2032.33 175.45 2033.84 175.134 Q2035.39 174.818 2036.41 173.939 Q2037.46 173.026 2038.02 171.796 Q2038.62 170.566 2039.22 168.353 Q2039.39 167.615 2039.57 167.334 Q2039.78 167.053 2040.24 167.053 Q2040.59 167.053 2040.83 167.299 Q2041.08 167.51 2041.08 167.826 L2036.97 184.655 Q2036.76 185.498 2036.55 185.814 Q2036.34 186.095 2035.91 186.095 Q2035.46 186.095 2035.21 185.85 Q2034.97 185.604 2034.97 185.322 Q2034.97 185.041 2035.18 184.514 Q2035.7 182.231 2035.7 181.001 Q2035.7 180.298 2035.63 179.947 Q2035.6 179.596 2035.28 179.104 Q2035 178.577 2034.37 178.331 Q2033.74 178.085 2032.54 177.909 Q2031.35 177.698 2029.56 177.698 L2022.46 177.698 L2017.54 197.338 Q2017.19 198.638 2017.19 198.989 Q2017.19 199.376 2017.36 199.517 Q2017.58 199.622 2018.14 199.692 Q2018.77 199.798 2019.72 199.798 L2030.22 199.798 Q2032.54 199.798 2034.4 199.587 Q2036.27 199.376 2037.81 198.849 Q2039.39 198.322 2040.59 197.725 Q2041.78 197.127 2042.91 196.038 Q2044.03 194.914 2044.8 193.93 Q2045.61 192.911 2046.56 191.19 Q2047.51 189.468 2048.18 188.063 Q2048.84 186.622 2049.86 184.304 Q2050.14 183.46 2050.81 183.46 Q2051.2 183.46 2051.41 183.671 Q2051.62 183.847 2051.65 184.023 L2051.65 184.233 Q2051.44 184.901 2051.3 185.252 L2044.7 200.781 Q2044.31 201.66 2044 201.835 Q2043.68 202.011 2042.45 202.011 L2005.1 202.011 Q2004.26 202.011 2003.91 201.976 Q2003.59 201.941 2003.35 201.765 Q2003.1 201.554 2003.1 201.133 Q2003.1 200.465 2003.38 200.184 Q2003.66 199.868 2003.98 199.833 Q2004.29 199.798 2005.1 199.798 Q2006.86 199.798 2007.91 199.692 Q2008.97 199.587 2009.63 199.446 Q2010.34 199.271 2010.69 198.779 Q2011.08 198.287 2011.25 197.865 Q2011.43 197.408 2011.67 196.39 L2021.16 158.34 Q2021.51 157.04 2021.51 156.618 Q2021.51 156.162 2021.19 155.88 Q2020.91 155.599 2020.14 155.494 Q2019.37 155.353 2018.73 155.353 Q2018.14 155.318 2016.84 155.318 Q2015.99 155.318 2015.64 155.283 Q2015.33 155.248 2015.08 155.072 Q2014.83 154.897 2014.83 154.51 Q2014.83 153.527 2015.26 153.316 Q2015.71 153.07 2016.98 153.07 L2053.31 153.07 Q2054.75 153.07 2055.06 153.386 Q2055.41 153.667 2055.27 155.037 Z" fill="#000000" fill-rule="evenodd" fill-opacity="1" /><path clip-path="url(#clip760)" d="M2065.18 219.999 L2065.18 148.046 L2076.04 148.046 L2076.04 149.697 L2070 149.697 L2070 218.348 L2076.04 218.348 L2076.04 219.999 L2065.18 219.999 Z" fill="#000000" fill-rule="evenodd" fill-opacity="1" /><path clip-path="url(#clip760)" d="M2117.36 142.791 L2116.75 143.799 Q2112.94 142.151 2108.19 139.52 Q2103.44 142.151 2099.63 143.799 L2099.04 142.791 Q2103.2 139.176 2108.19 136.397 Q2113.23 139.2 2117.36 142.791 Z" fill="#000000" fill-rule="evenodd" fill-opacity="1" /><path clip-path="url(#clip760)" d="M2120.85 156.232 Q2120.85 158.164 2119.62 159.359 Q2118.43 160.553 2116.92 160.553 Q2115.83 160.553 2115.02 159.886 Q2114.25 159.218 2114.25 158.059 Q2114.25 156.864 2115.16 155.599 Q2116.08 154.335 2118.15 154.159 Q2116.78 152.859 2114.6 152.859 Q2113.51 152.859 2112.6 153.562 Q2111.72 154.229 2111.23 155.318 Q2110.7 156.443 2109.51 162.802 Q2109.12 164.875 2108.77 166.877 Q2108.42 168.88 2108 170.988 L2113.97 170.988 Q2114.74 170.988 2115.06 171.023 Q2115.37 171.058 2115.62 171.234 Q2115.9 171.41 2115.9 171.796 Q2115.9 172.78 2115.44 173.026 Q2115.02 173.237 2113.76 173.237 L2107.57 173.237 L2103.25 196.038 Q2103.15 196.706 2102.69 198.814 Q2102.27 200.887 2101.25 204.295 Q2100.23 207.738 2099.21 209.776 Q2098.65 210.935 2097.91 212.024 Q2097.21 213.148 2096.19 214.273 Q2095.17 215.397 2093.84 216.064 Q2092.5 216.767 2091.1 216.767 Q2088.71 216.767 2086.85 215.432 Q2084.98 214.097 2084.98 211.813 Q2084.98 209.881 2086.18 208.686 Q2087.41 207.492 2088.92 207.492 Q2090.01 207.492 2090.78 208.159 Q2091.59 208.827 2091.59 209.986 Q2091.59 210.478 2091.41 211.04 Q2091.24 211.602 2090.85 212.235 Q2090.46 212.902 2089.62 213.359 Q2088.78 213.816 2087.62 213.886 Q2088.99 215.186 2091.1 215.186 Q2091.76 215.186 2092.36 214.905 Q2092.96 214.659 2093.45 214.027 Q2093.98 213.394 2094.36 212.762 Q2094.75 212.165 2095.14 211.005 Q2095.52 209.881 2095.77 209.038 Q2096.02 208.195 2096.33 206.684 Q2096.68 205.173 2096.86 204.26 Q2097.03 203.381 2097.35 201.66 L2102.73 173.237 L2097.98 173.237 Q2097.14 173.237 2096.79 173.201 Q2096.47 173.166 2096.23 172.991 Q2095.98 172.78 2095.98 172.358 Q2095.98 171.691 2096.26 171.41 Q2096.58 171.093 2096.93 171.058 Q2097.28 170.988 2098.12 170.988 L2103.11 170.988 Q2104.8 162.099 2105.47 159.71 Q2106.24 157.18 2107.43 155.424 Q2108.63 153.632 2109.96 152.789 Q2111.3 151.946 2112.39 151.629 Q2113.51 151.278 2114.6 151.278 Q2117.06 151.278 2118.96 152.613 Q2120.85 153.913 2120.85 156.232 Z" fill="#000000" fill-rule="evenodd" fill-opacity="1" /><path clip-path="url(#clip760)" d="M2121.28 184.023 Q2121.28 171.866 2125.81 162.064 Q2127.74 157.953 2130.45 154.51 Q2133.15 151.067 2134.94 149.556 Q2136.74 148.046 2137.23 148.046 Q2137.93 148.046 2137.97 148.748 Q2137.97 149.1 2137.02 149.978 Q2125.42 161.783 2125.46 184.023 Q2125.46 206.332 2136.74 217.681 Q2137.97 218.91 2137.97 219.297 Q2137.97 219.999 2137.23 219.999 Q2136.74 219.999 2135.01 218.559 Q2133.29 217.118 2130.62 213.816 Q2127.95 210.513 2126.02 206.473 Q2121.28 196.671 2121.28 184.023 Z" fill="#000000" fill-rule="evenodd" fill-opacity="1" /><path clip-path="url(#clip760)" d="M2179.27 174.958 Q2179.27 176.926 2178.04 178.05 Q2176.81 179.139 2175.41 179.139 Q2174.07 179.139 2173.37 178.366 Q2172.67 177.593 2172.67 176.609 Q2172.67 175.274 2173.65 174.115 Q2174.63 172.955 2176.11 172.71 Q2174.67 171.796 2172.52 171.796 Q2171.12 171.796 2169.89 172.534 Q2168.69 173.272 2167.96 174.22 Q2167.25 175.169 2166.62 176.539 Q2166.02 177.874 2165.78 178.682 Q2165.57 179.455 2165.39 180.298 L2162.93 190.136 Q2161.74 194.809 2161.74 196.46 Q2161.74 198.498 2162.72 199.868 Q2163.71 201.203 2165.67 201.203 Q2166.45 201.203 2167.32 200.992 Q2168.2 200.746 2169.33 200.114 Q2170.49 199.446 2171.51 198.462 Q2172.56 197.444 2173.58 195.722 Q2174.6 194.001 2175.26 191.787 Q2175.48 191.014 2176.18 191.014 Q2177.06 191.014 2177.06 191.717 Q2177.06 192.314 2176.56 193.579 Q2176.11 194.809 2175.09 196.425 Q2174.11 198.006 2172.81 199.446 Q2171.51 200.852 2169.57 201.835 Q2167.64 202.819 2165.53 202.819 Q2162.51 202.819 2160.51 201.203 Q2158.51 199.587 2157.77 197.338 Q2157.59 197.654 2157.35 198.076 Q2157.1 198.498 2156.36 199.446 Q2155.66 200.36 2154.85 201.062 Q2154.04 201.73 2152.78 202.257 Q2151.55 202.819 2150.21 202.819 Q2148.53 202.819 2147.02 202.327 Q2145.54 201.835 2144.49 200.711 Q2143.43 199.587 2143.43 198.041 Q2143.43 196.319 2144.59 195.125 Q2145.79 193.895 2147.4 193.895 Q2148.42 193.895 2149.23 194.492 Q2150.07 195.09 2150.07 196.39 Q2150.07 197.83 2149.09 198.919 Q2148.11 200.008 2146.7 200.289 Q2148.14 201.203 2150.28 201.203 Q2152.6 201.203 2154.43 199.165 Q2156.26 197.127 2157.14 193.719 Q2159.31 185.533 2160.16 181.879 Q2161 178.19 2161 176.609 Q2161 175.134 2160.61 174.115 Q2160.23 173.096 2159.56 172.639 Q2158.93 172.147 2158.33 171.972 Q2157.77 171.796 2157.14 171.796 Q2156.08 171.796 2154.89 172.218 Q2153.73 172.639 2152.32 173.623 Q2150.95 174.572 2149.65 176.539 Q2148.35 178.507 2147.47 181.212 Q2147.3 182.02 2146.53 182.02 Q2145.68 181.985 2145.68 181.282 Q2145.68 180.685 2146.14 179.455 Q2146.63 178.19 2147.61 176.609 Q2148.63 175.028 2149.93 173.623 Q2151.27 172.183 2153.2 171.199 Q2155.17 170.215 2157.28 170.215 Q2158.23 170.215 2159.14 170.426 Q2160.09 170.601 2161.21 171.128 Q2162.37 171.656 2163.39 172.815 Q2164.41 173.974 2165.04 175.661 Q2165.46 174.853 2166.02 174.08 Q2166.62 173.307 2167.54 172.358 Q2168.48 171.374 2169.78 170.812 Q2171.12 170.215 2172.59 170.215 Q2174.04 170.215 2175.44 170.601 Q2176.85 170.953 2178.04 172.112 Q2179.27 173.237 2179.27 174.958 Z" fill="#000000" fill-rule="evenodd" fill-opacity="1" /><path clip-path="url(#clip760)" d="M2186.2 219.297 Q2186.2 218.945 2187.11 218.067 Q2198.71 206.262 2198.71 184.023 Q2198.71 161.713 2187.57 150.435 Q2186.2 149.135 2186.2 148.748 Q2186.2 148.046 2186.9 148.046 Q2187.39 148.046 2189.11 149.486 Q2190.87 150.927 2193.51 154.229 Q2196.18 157.532 2198.14 161.572 Q2202.89 171.374 2202.89 184.023 Q2202.89 196.179 2198.35 205.981 Q2196.42 210.092 2193.72 213.535 Q2191.01 216.978 2189.22 218.489 Q2187.43 219.999 2186.9 219.999 Q2186.2 219.999 2186.2 219.297 Z" fill="#000000" fill-rule="evenodd" fill-opacity="1" /><path clip-path="url(#clip760)" d="M2210.95 218.348 L2216.99 218.348 L2216.99 149.697 L2210.95 149.697 L2210.95 148.046 L2221.8 148.046 L2221.8 219.999 L2210.95 219.999 L2210.95 218.348 Z" fill="#000000" fill-rule="evenodd" fill-opacity="1" /><polyline clip-path="url(#clip760)" style="stroke:#e26f46; stroke-linecap:round; stroke-linejoin:round; stroke-width:6; stroke-opacity:1; fill:none" points="
  1832.29,261.359 1978.7,261.359 
  "/>
<path clip-path="url(#clip760)" d="M2038.97 233.4 Q2038.97 235.332 2037.74 236.527 Q2036.55 237.721 2035.04 237.721 Q2033.95 237.721 2033.14 237.054 Q2032.37 236.386 2032.37 235.227 Q2032.37 234.032 2033.28 232.768 Q2034.19 231.503 2036.27 231.327 Q2034.9 230.027 2032.72 230.027 Q2031.63 230.027 2030.72 230.73 Q2029.84 231.397 2029.34 232.486 Q2028.82 233.611 2027.62 239.97 Q2027.24 242.043 2026.89 244.045 Q2026.53 246.048 2026.11 248.156 L2032.09 248.156 Q2032.86 248.156 2033.17 248.191 Q2033.49 248.226 2033.74 248.402 Q2034.02 248.578 2034.02 248.964 Q2034.02 249.948 2033.56 250.194 Q2033.14 250.405 2031.87 250.405 L2025.69 250.405 L2021.37 273.206 Q2021.26 273.874 2020.81 275.982 Q2020.39 278.055 2019.37 281.463 Q2018.35 284.906 2017.33 286.944 Q2016.77 288.103 2016.03 289.192 Q2015.33 290.316 2014.31 291.441 Q2013.29 292.565 2011.95 293.233 Q2010.62 293.935 2009.21 293.935 Q2006.82 293.935 2004.96 292.6 Q2003.1 291.265 2003.1 288.981 Q2003.1 287.049 2004.29 285.855 Q2005.52 284.66 2007.03 284.66 Q2008.12 284.66 2008.9 285.328 Q2009.71 285.995 2009.71 287.154 Q2009.71 287.646 2009.53 288.208 Q2009.35 288.771 2008.97 289.403 Q2008.58 290.071 2007.74 290.527 Q2006.89 290.984 2005.74 291.054 Q2007.11 292.354 2009.21 292.354 Q2009.88 292.354 2010.48 292.073 Q2011.08 291.827 2011.57 291.195 Q2012.09 290.562 2012.48 289.93 Q2012.87 289.333 2013.25 288.173 Q2013.64 287.049 2013.89 286.206 Q2014.13 285.363 2014.45 283.852 Q2014.8 282.341 2014.98 281.428 Q2015.15 280.549 2015.47 278.828 L2020.84 250.405 L2016.1 250.405 Q2015.26 250.405 2014.9 250.37 Q2014.59 250.334 2014.34 250.159 Q2014.1 249.948 2014.1 249.526 Q2014.1 248.859 2014.38 248.578 Q2014.69 248.261 2015.05 248.226 Q2015.4 248.156 2016.24 248.156 L2021.23 248.156 Q2022.92 239.267 2023.58 236.878 Q2024.36 234.349 2025.55 232.592 Q2026.74 230.8 2028.08 229.957 Q2029.42 229.114 2030.5 228.797 Q2031.63 228.446 2032.72 228.446 Q2035.18 228.446 2037.07 229.781 Q2038.97 231.081 2038.97 233.4 Z" fill="#000000" fill-rule="evenodd" fill-opacity="1" /><path clip-path="url(#clip760)" d="M2048.66 261.191 Q2048.66 249.034 2053.19 239.232 Q2055.12 235.121 2057.83 231.678 Q2060.53 228.235 2062.33 226.725 Q2064.12 225.214 2064.61 225.214 Q2065.31 225.214 2065.35 225.916 Q2065.35 226.268 2064.4 227.146 Q2052.8 238.951 2052.84 261.191 Q2052.84 283.501 2064.12 294.849 Q2065.35 296.078 2065.35 296.465 Q2065.35 297.168 2064.61 297.168 Q2064.12 297.168 2062.4 295.727 Q2060.67 294.287 2058 290.984 Q2055.33 287.681 2053.4 283.641 Q2048.66 273.839 2048.66 261.191 Z" fill="#000000" fill-rule="evenodd" fill-opacity="1" /><path clip-path="url(#clip760)" d="M2106.65 252.126 Q2106.65 254.094 2105.42 255.218 Q2104.19 256.307 2102.79 256.307 Q2101.45 256.307 2100.75 255.534 Q2100.05 254.761 2100.05 253.777 Q2100.05 252.442 2101.03 251.283 Q2102.01 250.124 2103.49 249.878 Q2102.05 248.964 2099.91 248.964 Q2098.5 248.964 2097.27 249.702 Q2096.08 250.44 2095.34 251.388 Q2094.64 252.337 2094 253.707 Q2093.41 255.042 2093.16 255.85 Q2092.95 256.623 2092.77 257.467 L2090.31 267.304 Q2089.12 271.977 2089.12 273.628 Q2089.12 275.666 2090.1 277.036 Q2091.09 278.371 2093.06 278.371 Q2093.83 278.371 2094.71 278.16 Q2095.58 277.914 2096.71 277.282 Q2097.87 276.614 2098.89 275.631 Q2099.94 274.612 2100.96 272.89 Q2101.98 271.169 2102.65 268.955 Q2102.86 268.182 2103.56 268.182 Q2104.44 268.182 2104.44 268.885 Q2104.44 269.482 2103.95 270.747 Q2103.49 271.977 2102.47 273.593 Q2101.49 275.174 2100.19 276.614 Q2098.89 278.02 2096.95 279.003 Q2095.02 279.987 2092.91 279.987 Q2089.89 279.987 2087.89 278.371 Q2085.89 276.755 2085.15 274.506 Q2084.97 274.823 2084.73 275.244 Q2084.48 275.666 2083.74 276.614 Q2083.04 277.528 2082.23 278.231 Q2081.43 278.898 2080.16 279.425 Q2078.93 279.987 2077.6 279.987 Q2075.91 279.987 2074.4 279.495 Q2072.92 279.003 2071.87 277.879 Q2070.82 276.755 2070.82 275.209 Q2070.82 273.487 2071.97 272.293 Q2073.17 271.063 2074.79 271.063 Q2075.8 271.063 2076.61 271.661 Q2077.46 272.258 2077.46 273.558 Q2077.46 274.998 2076.47 276.087 Q2075.49 277.176 2074.08 277.458 Q2075.52 278.371 2077.67 278.371 Q2079.99 278.371 2081.81 276.333 Q2083.64 274.296 2084.52 270.888 Q2086.7 262.701 2087.54 259.048 Q2088.38 255.358 2088.38 253.777 Q2088.38 252.302 2088 251.283 Q2087.61 250.264 2086.94 249.807 Q2086.31 249.315 2085.71 249.14 Q2085.15 248.964 2084.52 248.964 Q2083.46 248.964 2082.27 249.386 Q2081.11 249.807 2079.7 250.791 Q2078.33 251.74 2077.03 253.707 Q2075.73 255.675 2074.86 258.38 Q2074.68 259.188 2073.91 259.188 Q2073.06 259.153 2073.06 258.45 Q2073.06 257.853 2073.52 256.623 Q2074.01 255.358 2075 253.777 Q2076.02 252.196 2077.32 250.791 Q2078.65 249.351 2080.58 248.367 Q2082.55 247.383 2084.66 247.383 Q2085.61 247.383 2086.52 247.594 Q2087.47 247.77 2088.59 248.297 Q2089.75 248.824 2090.77 249.983 Q2091.79 251.142 2092.42 252.829 Q2092.84 252.021 2093.41 251.248 Q2094 250.475 2094.92 249.526 Q2095.87 248.543 2097.17 247.98 Q2098.5 247.383 2099.98 247.383 Q2101.42 247.383 2102.82 247.77 Q2104.23 248.121 2105.42 249.28 Q2106.65 250.405 2106.65 252.126 Z" fill="#000000" fill-rule="evenodd" fill-opacity="1" /><path clip-path="url(#clip760)" d="M2113.58 296.465 Q2113.58 296.114 2114.49 295.235 Q2126.09 283.43 2126.09 261.191 Q2126.09 238.881 2114.95 227.603 Q2113.58 226.303 2113.58 225.916 Q2113.58 225.214 2114.28 225.214 Q2114.77 225.214 2116.5 226.654 Q2118.25 228.095 2120.89 231.397 Q2123.56 234.7 2125.52 238.74 Q2130.27 248.543 2130.27 261.191 Q2130.27 273.347 2125.74 283.149 Q2123.8 287.26 2121.1 290.703 Q2118.39 294.146 2116.6 295.657 Q2114.81 297.168 2114.28 297.168 Q2113.58 297.168 2113.58 296.465 Z" fill="#000000" fill-rule="evenodd" fill-opacity="1" /></svg>
