<?xml version="1.0" encoding="utf-8"?>
<svg xmlns="http://www.w3.org/2000/svg" xmlns:xlink="http://www.w3.org/1999/xlink" width="600" height="400" viewBox="0 0 2400 1600">
<defs>
  <clipPath id="clip970">
    <rect x="0" y="0" width="2400" height="1600"/>
  </clipPath>
</defs>
<path clip-path="url(#clip970)" d="
M0 1600 L2400 1600 L2400 0 L0 0  Z
  " fill="#ffffff" fill-rule="evenodd" fill-opacity="1"/>
<defs>
  <clipPath id="clip971">
    <rect x="480" y="0" width="1681" height="1600"/>
  </clipPath>
</defs>
<path clip-path="url(#clip970)" d="
M530.804 1486.45 L1970.01 1486.45 L1970.01 47.2441 L530.804 47.2441  Z
  " fill="#ffffff" fill-rule="evenodd" fill-opacity="1"/>
<defs>
  <clipPath id="clip972">
    <rect x="530" y="47" width="1440" height="1440"/>
  </clipPath>
</defs>
<polyline clip-path="url(#clip972)" style="stroke:#000000; stroke-linecap:round; stroke-linejoin:round; stroke-width:2; stroke-opacity:0.1; fill:none" points="
  530.804,1486.45 530.804,47.2441 
  "/>
<polyline clip-path="url(#clip972)" style="stroke:#000000; stroke-linecap:round; stroke-linejoin:round; stroke-width:2; stroke-opacity:0.1; fill:none" points="
  770.672,1486.45 770.672,47.2441 
  "/>
<polyline clip-path="url(#clip972)" style="stroke:#000000; stroke-linecap:round; stroke-linejoin:round; stroke-width:2; stroke-opacity:0.1; fill:none" points="
  1010.54,1486.45 1010.54,47.2441 
  "/>
<polyline clip-path="url(#clip972)" style="stroke:#000000; stroke-linecap:round; stroke-linejoin:round; stroke-width:2; stroke-opacity:0.1; fill:none" points="
  1250.41,1486.45 1250.41,47.2441 
  "/>
<polyline clip-path="url(#clip972)" style="stroke:#000000; stroke-linecap:round; stroke-linejoin:round; stroke-width:2; stroke-opacity:0.1; fill:none" points="
  1490.27,1486.45 1490.27,47.2441 
  "/>
<polyline clip-path="url(#clip972)" style="stroke:#000000; stroke-linecap:round; stroke-linejoin:round; stroke-width:2; stroke-opacity:0.1; fill:none" points="
  1730.14,1486.45 1730.14,47.2441 
  "/>
<polyline clip-path="url(#clip972)" style="stroke:#000000; stroke-linecap:round; stroke-linejoin:round; stroke-width:2; stroke-opacity:0.1; fill:none" points="
  1970.01,1486.45 1970.01,47.2441 
  "/>
<polyline clip-path="url(#clip970)" style="stroke:#000000; stroke-linecap:round; stroke-linejoin:round; stroke-width:4; stroke-opacity:1; fill:none" points="
  530.804,1486.45 1970.01,1486.45 
  "/>
<polyline clip-path="url(#clip970)" style="stroke:#000000; stroke-linecap:round; stroke-linejoin:round; stroke-width:4; stroke-opacity:1; fill:none" points="
  530.804,1486.45 530.804,1467.55 
  "/>
<polyline clip-path="url(#clip970)" style="stroke:#000000; stroke-linecap:round; stroke-linejoin:round; stroke-width:4; stroke-opacity:1; fill:none" points="
  770.672,1486.45 770.672,1467.55 
  "/>
<polyline clip-path="url(#clip970)" style="stroke:#000000; stroke-linecap:round; stroke-linejoin:round; stroke-width:4; stroke-opacity:1; fill:none" points="
  1010.54,1486.45 1010.54,1467.55 
  "/>
<polyline clip-path="url(#clip970)" style="stroke:#000000; stroke-linecap:round; stroke-linejoin:round; stroke-width:4; stroke-opacity:1; fill:none" points="
  1250.41,1486.45 1250.41,1467.55 
  "/>
<polyline clip-path="url(#clip970)" style="stroke:#000000; stroke-linecap:round; stroke-linejoin:round; stroke-width:4; stroke-opacity:1; fill:none" points="
  1490.27,1486.45 1490.27,1467.55 
  "/>
<polyline clip-path="url(#clip970)" style="stroke:#000000; stroke-linecap:round; stroke-linejoin:round; stroke-width:4; stroke-opacity:1; fill:none" points="
  1730.14,1486.45 1730.14,1467.55 
  "/>
<polyline clip-path="url(#clip970)" style="stroke:#000000; stroke-linecap:round; stroke-linejoin:round; stroke-width:4; stroke-opacity:1; fill:none" points="
  1970.01,1486.45 1970.01,1467.55 
  "/>
<path clip-path="url(#clip970)" d="M500.272 1532.02 L529.948 1532.02 L529.948 1535.95 L500.272 1535.95 L500.272 1532.02 Z" fill="#000000" fill-rule="evenodd" fill-opacity="1" /><path clip-path="url(#clip970)" d="M554.207 1530.21 Q557.563 1530.93 559.438 1533.2 Q561.337 1535.47 561.337 1538.8 Q561.337 1543.92 557.818 1546.72 Q554.3 1549.52 547.818 1549.52 Q545.642 1549.52 543.327 1549.08 Q541.036 1548.66 538.582 1547.81 L538.582 1543.29 Q540.527 1544.43 542.841 1545.01 Q545.156 1545.58 547.679 1545.58 Q552.077 1545.58 554.369 1543.85 Q556.684 1542.11 556.684 1538.8 Q556.684 1535.75 554.531 1534.03 Q552.401 1532.3 548.582 1532.3 L544.554 1532.3 L544.554 1528.45 L548.767 1528.45 Q552.216 1528.45 554.045 1527.09 Q555.874 1525.7 555.874 1523.11 Q555.874 1520.45 553.976 1519.03 Q552.101 1517.6 548.582 1517.6 Q546.661 1517.6 544.462 1518.01 Q542.263 1518.43 539.624 1519.31 L539.624 1515.14 Q542.286 1514.4 544.601 1514.03 Q546.939 1513.66 548.999 1513.66 Q554.323 1513.66 557.425 1516.09 Q560.526 1518.5 560.526 1522.62 Q560.526 1525.49 558.883 1527.48 Q557.239 1529.45 554.207 1530.21 Z" fill="#000000" fill-rule="evenodd" fill-opacity="1" /><path clip-path="url(#clip970)" d="M740.614 1532.02 L770.29 1532.02 L770.29 1535.95 L740.614 1535.95 L740.614 1532.02 Z" fill="#000000" fill-rule="evenodd" fill-opacity="1" /><path clip-path="url(#clip970)" d="M784.41 1544.91 L800.729 1544.91 L800.729 1548.85 L778.785 1548.85 L778.785 1544.91 Q781.447 1542.16 786.03 1537.53 Q790.637 1532.88 791.817 1531.53 Q794.063 1529.01 794.942 1527.27 Q795.845 1525.51 795.845 1523.82 Q795.845 1521.07 793.901 1519.33 Q791.979 1517.6 788.878 1517.6 Q786.679 1517.6 784.225 1518.36 Q781.794 1519.13 779.017 1520.68 L779.017 1515.95 Q781.841 1514.82 784.294 1514.24 Q786.748 1513.66 788.785 1513.66 Q794.155 1513.66 797.35 1516.35 Q800.544 1519.03 800.544 1523.52 Q800.544 1525.65 799.734 1527.57 Q798.947 1529.47 796.841 1532.07 Q796.262 1532.74 793.16 1535.95 Q790.058 1539.15 784.41 1544.91 Z" fill="#000000" fill-rule="evenodd" fill-opacity="1" /><path clip-path="url(#clip970)" d="M980.296 1532.02 L1009.97 1532.02 L1009.97 1535.95 L980.296 1535.95 L980.296 1532.02 Z" fill="#000000" fill-rule="evenodd" fill-opacity="1" /><path clip-path="url(#clip970)" d="M1020.87 1544.91 L1028.51 1544.91 L1028.51 1518.55 L1020.2 1520.21 L1020.2 1515.95 L1028.47 1514.29 L1033.14 1514.29 L1033.14 1544.91 L1040.78 1544.91 L1040.78 1548.85 L1020.87 1548.85 L1020.87 1544.91 Z" fill="#000000" fill-rule="evenodd" fill-opacity="1" /><path clip-path="url(#clip970)" d="M1250.41 1517.37 Q1246.8 1517.37 1244.97 1520.93 Q1243.16 1524.47 1243.16 1531.6 Q1243.16 1538.71 1244.97 1542.27 Q1246.8 1545.82 1250.41 1545.82 Q1254.04 1545.82 1255.85 1542.27 Q1257.67 1538.71 1257.67 1531.6 Q1257.67 1524.47 1255.85 1520.93 Q1254.04 1517.37 1250.41 1517.37 M1250.41 1513.66 Q1256.22 1513.66 1259.27 1518.27 Q1262.35 1522.85 1262.35 1531.6 Q1262.35 1540.33 1259.27 1544.94 Q1256.22 1549.52 1250.41 1549.52 Q1244.6 1549.52 1241.52 1544.94 Q1238.46 1540.33 1238.46 1531.6 Q1238.46 1522.85 1241.52 1518.27 Q1244.6 1513.66 1250.41 1513.66 Z" fill="#000000" fill-rule="evenodd" fill-opacity="1" /><path clip-path="url(#clip970)" d="M1480.66 1544.91 L1488.29 1544.91 L1488.29 1518.55 L1479.98 1520.21 L1479.98 1515.95 L1488.25 1514.29 L1492.92 1514.29 L1492.92 1544.91 L1500.56 1544.91 L1500.56 1548.85 L1480.66 1548.85 L1480.66 1544.91 Z" fill="#000000" fill-rule="evenodd" fill-opacity="1" /><path clip-path="url(#clip970)" d="M1724.79 1544.91 L1741.11 1544.91 L1741.11 1548.85 L1719.17 1548.85 L1719.17 1544.91 Q1721.83 1542.16 1726.41 1537.53 Q1731.02 1532.88 1732.2 1531.53 Q1734.45 1529.01 1735.33 1527.27 Q1736.23 1525.51 1736.23 1523.82 Q1736.23 1521.07 1734.28 1519.33 Q1732.36 1517.6 1729.26 1517.6 Q1727.06 1517.6 1724.61 1518.36 Q1722.18 1519.13 1719.4 1520.68 L1719.4 1515.95 Q1722.22 1514.82 1724.68 1514.24 Q1727.13 1513.66 1729.17 1513.66 Q1734.54 1513.66 1737.73 1516.35 Q1740.93 1519.03 1740.93 1523.52 Q1740.93 1525.65 1740.12 1527.57 Q1739.33 1529.47 1737.22 1532.07 Q1736.65 1532.74 1733.54 1535.95 Q1730.44 1539.15 1724.79 1544.91 Z" fill="#000000" fill-rule="evenodd" fill-opacity="1" /><path clip-path="url(#clip970)" d="M1974.26 1530.21 Q1977.61 1530.93 1979.49 1533.2 Q1981.39 1535.47 1981.39 1538.8 Q1981.39 1543.92 1977.87 1546.72 Q1974.35 1549.52 1967.87 1549.52 Q1965.69 1549.52 1963.38 1549.08 Q1961.08 1548.66 1958.63 1547.81 L1958.63 1543.29 Q1960.58 1544.43 1962.89 1545.01 Q1965.2 1545.58 1967.73 1545.58 Q1972.13 1545.58 1974.42 1543.85 Q1976.73 1542.11 1976.73 1538.8 Q1976.73 1535.75 1974.58 1534.03 Q1972.45 1532.3 1968.63 1532.3 L1964.6 1532.3 L1964.6 1528.45 L1968.82 1528.45 Q1972.27 1528.45 1974.09 1527.09 Q1975.92 1525.7 1975.92 1523.11 Q1975.92 1520.45 1974.02 1519.03 Q1972.15 1517.6 1968.63 1517.6 Q1966.71 1517.6 1964.51 1518.01 Q1962.31 1518.43 1959.67 1519.31 L1959.67 1515.14 Q1962.33 1514.4 1964.65 1514.03 Q1966.99 1513.66 1969.05 1513.66 Q1974.37 1513.66 1977.47 1516.09 Q1980.58 1518.5 1980.58 1522.62 Q1980.58 1525.49 1978.93 1527.48 Q1977.29 1529.45 1974.26 1530.21 Z" fill="#000000" fill-rule="evenodd" fill-opacity="1" /><polyline clip-path="url(#clip972)" style="stroke:#000000; stroke-linecap:round; stroke-linejoin:round; stroke-width:2; stroke-opacity:0.1; fill:none" points="
  530.804,1486.45 1970.01,1486.45 
  "/>
<polyline clip-path="url(#clip972)" style="stroke:#000000; stroke-linecap:round; stroke-linejoin:round; stroke-width:2; stroke-opacity:0.1; fill:none" points="
  530.804,1246.58 1970.01,1246.58 
  "/>
<polyline clip-path="url(#clip972)" style="stroke:#000000; stroke-linecap:round; stroke-linejoin:round; stroke-width:2; stroke-opacity:0.1; fill:none" points="
  530.804,1006.71 1970.01,1006.71 
  "/>
<polyline clip-path="url(#clip972)" style="stroke:#000000; stroke-linecap:round; stroke-linejoin:round; stroke-width:2; stroke-opacity:0.1; fill:none" points="
  530.804,766.846 1970.01,766.846 
  "/>
<polyline clip-path="url(#clip972)" style="stroke:#000000; stroke-linecap:round; stroke-linejoin:round; stroke-width:2; stroke-opacity:0.1; fill:none" points="
  530.804,526.979 1970.01,526.979 
  "/>
<polyline clip-path="url(#clip972)" style="stroke:#000000; stroke-linecap:round; stroke-linejoin:round; stroke-width:2; stroke-opacity:0.1; fill:none" points="
  530.804,287.111 1970.01,287.111 
  "/>
<polyline clip-path="url(#clip972)" style="stroke:#000000; stroke-linecap:round; stroke-linejoin:round; stroke-width:2; stroke-opacity:0.1; fill:none" points="
  530.804,47.2441 1970.01,47.2441 
  "/>
<polyline clip-path="url(#clip970)" style="stroke:#000000; stroke-linecap:round; stroke-linejoin:round; stroke-width:4; stroke-opacity:1; fill:none" points="
  530.804,1486.45 530.804,47.2441 
  "/>
<polyline clip-path="url(#clip970)" style="stroke:#000000; stroke-linecap:round; stroke-linejoin:round; stroke-width:4; stroke-opacity:1; fill:none" points="
  530.804,1486.45 543.141,1486.45 
  "/>
<polyline clip-path="url(#clip970)" style="stroke:#000000; stroke-linecap:round; stroke-linejoin:round; stroke-width:4; stroke-opacity:1; fill:none" points="
  530.804,1246.58 543.141,1246.58 
  "/>
<polyline clip-path="url(#clip970)" style="stroke:#000000; stroke-linecap:round; stroke-linejoin:round; stroke-width:4; stroke-opacity:1; fill:none" points="
  530.804,1006.71 543.141,1006.71 
  "/>
<polyline clip-path="url(#clip970)" style="stroke:#000000; stroke-linecap:round; stroke-linejoin:round; stroke-width:4; stroke-opacity:1; fill:none" points="
  530.804,766.846 543.141,766.846 
  "/>
<polyline clip-path="url(#clip970)" style="stroke:#000000; stroke-linecap:round; stroke-linejoin:round; stroke-width:4; stroke-opacity:1; fill:none" points="
  530.804,526.979 543.141,526.979 
  "/>
<polyline clip-path="url(#clip970)" style="stroke:#000000; stroke-linecap:round; stroke-linejoin:round; stroke-width:4; stroke-opacity:1; fill:none" points="
  530.804,287.111 543.141,287.111 
  "/>
<polyline clip-path="url(#clip970)" style="stroke:#000000; stroke-linecap:round; stroke-linejoin:round; stroke-width:4; stroke-opacity:1; fill:none" points="
  530.804,47.2441 543.141,47.2441 
  "/>
<path clip-path="url(#clip970)" d="M433.74 1486.9 L463.416 1486.9 L463.416 1490.83 L433.74 1490.83 L433.74 1486.9 Z" fill="#000000" fill-rule="evenodd" fill-opacity="1" /><path clip-path="url(#clip970)" d="M487.675 1485.09 Q491.031 1485.81 492.906 1488.08 Q494.804 1490.35 494.804 1493.68 Q494.804 1498.8 491.286 1501.6 Q487.767 1504.4 481.286 1504.4 Q479.11 1504.4 476.795 1503.96 Q474.504 1503.54 472.05 1502.69 L472.05 1498.17 Q473.994 1499.31 476.309 1499.89 Q478.624 1500.46 481.147 1500.46 Q485.545 1500.46 487.837 1498.73 Q490.152 1496.99 490.152 1493.68 Q490.152 1490.63 487.999 1488.91 Q485.869 1487.18 482.05 1487.18 L478.022 1487.18 L478.022 1483.33 L482.235 1483.33 Q485.684 1483.33 487.513 1481.97 Q489.341 1480.58 489.341 1477.99 Q489.341 1475.33 487.443 1473.91 Q485.568 1472.48 482.05 1472.48 Q480.129 1472.48 477.929 1472.89 Q475.73 1473.31 473.092 1474.19 L473.092 1470.02 Q475.754 1469.28 478.068 1468.91 Q480.406 1468.54 482.466 1468.54 Q487.791 1468.54 490.892 1470.97 Q493.994 1473.38 493.994 1477.5 Q493.994 1480.37 492.351 1482.36 Q490.707 1484.33 487.675 1485.09 Z" fill="#000000" fill-rule="evenodd" fill-opacity="1" /><path clip-path="url(#clip970)" d="M434.689 1247.03 L464.365 1247.03 L464.365 1250.97 L434.689 1250.97 L434.689 1247.03 Z" fill="#000000" fill-rule="evenodd" fill-opacity="1" /><path clip-path="url(#clip970)" d="M478.485 1259.93 L494.804 1259.93 L494.804 1263.86 L472.86 1263.86 L472.86 1259.93 Q475.522 1257.17 480.105 1252.54 Q484.712 1247.89 485.892 1246.55 Q488.138 1244.02 489.017 1242.29 Q489.92 1240.53 489.92 1238.84 Q489.92 1236.08 487.976 1234.35 Q486.054 1232.61 482.953 1232.61 Q480.754 1232.61 478.3 1233.37 Q475.869 1234.14 473.092 1235.69 L473.092 1230.97 Q475.916 1229.83 478.369 1229.25 Q480.823 1228.68 482.86 1228.68 Q488.23 1228.68 491.425 1231.36 Q494.619 1234.05 494.619 1238.54 Q494.619 1240.67 493.809 1242.59 Q493.022 1244.49 490.916 1247.08 Q490.337 1247.75 487.235 1250.97 Q484.133 1254.16 478.485 1259.93 Z" fill="#000000" fill-rule="evenodd" fill-opacity="1" /><path clip-path="url(#clip970)" d="M434.319 1007.16 L463.994 1007.16 L463.994 1011.1 L434.319 1011.1 L434.319 1007.16 Z" fill="#000000" fill-rule="evenodd" fill-opacity="1" /><path clip-path="url(#clip970)" d="M474.897 1020.06 L482.536 1020.06 L482.536 993.693 L474.226 995.359 L474.226 991.1 L482.49 989.433 L487.166 989.433 L487.166 1020.06 L494.804 1020.06 L494.804 1023.99 L474.897 1023.99 L474.897 1020.06 Z" fill="#000000" fill-rule="evenodd" fill-opacity="1" /><path clip-path="url(#clip970)" d="M482.86 752.645 Q479.249 752.645 477.42 756.209 Q475.615 759.751 475.615 766.881 Q475.615 773.987 477.42 777.552 Q479.249 781.094 482.86 781.094 Q486.494 781.094 488.3 777.552 Q490.128 773.987 490.128 766.881 Q490.128 759.751 488.3 756.209 Q486.494 752.645 482.86 752.645 M482.86 748.941 Q488.67 748.941 491.726 753.547 Q494.804 758.131 494.804 766.881 Q494.804 775.608 491.726 780.214 Q488.67 784.797 482.86 784.797 Q477.05 784.797 473.971 780.214 Q470.916 775.608 470.916 766.881 Q470.916 758.131 473.971 753.547 Q477.05 748.941 482.86 748.941 Z" fill="#000000" fill-rule="evenodd" fill-opacity="1" /><path clip-path="url(#clip970)" d="M474.897 540.324 L482.536 540.324 L482.536 513.958 L474.226 515.625 L474.226 511.365 L482.49 509.699 L487.166 509.699 L487.166 540.324 L494.804 540.324 L494.804 544.259 L474.897 544.259 L474.897 540.324 Z" fill="#000000" fill-rule="evenodd" fill-opacity="1" /><path clip-path="url(#clip970)" d="M478.485 300.456 L494.804 300.456 L494.804 304.391 L472.86 304.391 L472.86 300.456 Q475.522 297.702 480.105 293.072 Q484.712 288.419 485.892 287.077 Q488.138 284.554 489.017 282.817 Q489.92 281.058 489.92 279.368 Q489.92 276.614 487.976 274.878 Q486.054 273.142 482.953 273.142 Q480.754 273.142 478.3 273.905 Q475.869 274.669 473.092 276.22 L473.092 271.498 Q475.916 270.364 478.369 269.785 Q480.823 269.206 482.86 269.206 Q488.23 269.206 491.425 271.892 Q494.619 274.577 494.619 279.067 Q494.619 281.197 493.809 283.118 Q493.022 285.016 490.916 287.609 Q490.337 288.28 487.235 291.498 Q484.133 294.692 478.485 300.456 Z" fill="#000000" fill-rule="evenodd" fill-opacity="1" /><path clip-path="url(#clip970)" d="M487.675 45.8899 Q491.031 46.6075 492.906 48.876 Q494.804 51.1445 494.804 54.4779 Q494.804 59.5936 491.286 62.3945 Q487.767 65.1954 481.286 65.1954 Q479.11 65.1954 476.795 64.7556 Q474.504 64.3389 472.05 63.4824 L472.05 58.9686 Q473.994 60.1028 476.309 60.6815 Q478.624 61.2602 481.147 61.2602 Q485.545 61.2602 487.837 59.5241 Q490.152 57.788 490.152 54.4779 Q490.152 51.4223 487.999 49.7094 Q485.869 47.9733 482.05 47.9733 L478.022 47.9733 L478.022 44.1307 L482.235 44.1307 Q485.684 44.1307 487.513 42.765 Q489.341 41.3761 489.341 38.7835 Q489.341 36.1215 487.443 34.7094 Q485.568 33.2743 482.05 33.2743 Q480.129 33.2743 477.929 33.6909 Q475.73 34.1076 473.092 34.9872 L473.092 30.8206 Q475.754 30.0798 478.068 29.7095 Q480.406 29.3391 482.466 29.3391 Q487.791 29.3391 490.892 31.7696 Q493.994 34.177 493.994 38.2974 Q493.994 41.1677 492.351 43.1585 Q490.707 45.1261 487.675 45.8899 Z" fill="#000000" fill-rule="evenodd" fill-opacity="1" /><path clip-path="url(#clip972)" d="
M1458.14 646.912 L1545.93 319.248 L1098.34 23.7188 L1130.47 559.115 L862.775 575.183 L954.878 1214.44 L1594.14 1122.34 L1458.14 646.912 L1458.14 646.912  Z
  " fill="#009af9" fill-rule="evenodd" fill-opacity="1"/>
<polyline clip-path="url(#clip972)" style="stroke:#000000; stroke-linecap:round; stroke-linejoin:round; stroke-width:16; stroke-opacity:1; fill:none" points="
  1458.14,646.912 1545.93,319.248 1098.34,23.7188 1130.47,559.115 862.775,575.183 954.878,1214.44 1594.14,1122.34 1458.14,646.912 
  "/>
<path clip-path="url(#clip970)" d="
M1599.12 198.898 L1896.52 198.898 L1896.52 95.2176 L1599.12 95.2176  Z
  " fill="#ffffff" fill-rule="evenodd" fill-opacity="1"/>
<polyline clip-path="url(#clip970)" style="stroke:#000000; stroke-linecap:round; stroke-linejoin:round; stroke-width:4; stroke-opacity:1; fill:none" points="
  1599.12,198.898 1896.52,198.898 1896.52,95.2176 1599.12,95.2176 1599.12,198.898 
  "/>
<path clip-path="url(#clip970)" d="
M1623.62 167.794 L1770.6 167.794 L1770.6 126.322 L1623.62 126.322 L1623.62 167.794  Z
  " fill="#009af9" fill-rule="evenodd" fill-opacity="1"/>
<polyline clip-path="url(#clip970)" style="stroke:#000000; stroke-linecap:round; stroke-linejoin:round; stroke-width:16; stroke-opacity:1; fill:none" points="
  1623.62,167.794 1770.6,167.794 1770.6,126.322 1623.62,126.322 1623.62,167.794 
  "/>
<path clip-path="url(#clip970)" d="M1808.94 166.745 Q1807.13 171.375 1805.42 172.787 Q1803.71 174.199 1800.84 174.199 L1797.43 174.199 L1797.43 170.634 L1799.93 170.634 Q1801.69 170.634 1802.66 169.8 Q1803.64 168.967 1804.82 165.865 L1805.58 163.921 L1795.09 138.412 L1799.61 138.412 L1807.71 158.689 L1815.81 138.412 L1820.33 138.412 L1808.94 166.745 Z" fill="#000000" fill-rule="evenodd" fill-opacity="1" /><path clip-path="url(#clip970)" d="M1827.62 160.402 L1835.26 160.402 L1835.26 134.037 L1826.95 135.703 L1826.95 131.444 L1835.21 129.778 L1839.89 129.778 L1839.89 160.402 L1847.52 160.402 L1847.52 164.338 L1827.62 164.338 L1827.62 160.402 Z" fill="#000000" fill-rule="evenodd" fill-opacity="1" /></svg>
