<?xml version="1.0" encoding="utf-8"?>
<svg xmlns="http://www.w3.org/2000/svg" xmlns:xlink="http://www.w3.org/1999/xlink" width="600" height="400" viewBox="0 0 2400 1600">
<defs>
  <clipPath id="clip370">
    <rect x="0" y="0" width="2400" height="1600"/>
  </clipPath>
</defs>
<path clip-path="url(#clip370)" d="
M0 1600 L2400 1600 L2400 0 L0 0  Z
  " fill="#ffffff" fill-rule="evenodd" fill-opacity="1"/>
<defs>
  <clipPath id="clip371">
    <rect x="480" y="0" width="1681" height="1600"/>
  </clipPath>
</defs>
<defs>
  <clipPath id="clip372">
    <rect x="251" y="47" width="2102" height="1365"/>
  </clipPath>
</defs>
<path clip-path="url(#clip370)" d="
M251.56 1410.9 L2352.76 1410.9 L2352.76 47.2441 L251.56 47.2441  Z
  " fill="#ffffff" fill-rule="evenodd" fill-opacity="1"/>
<polyline clip-path="url(#clip372)" style="stroke:#000000; stroke-linecap:round; stroke-linejoin:round; stroke-width:2; stroke-opacity:0.1; fill:none" points="
  822.435,1410.9 822.435,47.2441 
  "/>
<polyline clip-path="url(#clip372)" style="stroke:#000000; stroke-linecap:round; stroke-linejoin:round; stroke-width:2; stroke-opacity:0.1; fill:none" points="
  1554.09,1410.9 1554.09,47.2441 
  "/>
<polyline clip-path="url(#clip372)" style="stroke:#000000; stroke-linecap:round; stroke-linejoin:round; stroke-width:2; stroke-opacity:0.1; fill:none" points="
  2285.75,1410.9 2285.75,47.2441 
  "/>
<polyline clip-path="url(#clip370)" style="stroke:#000000; stroke-linecap:round; stroke-linejoin:round; stroke-width:4; stroke-opacity:1; fill:none" points="
  251.56,1410.9 2352.76,1410.9 
  "/>
<polyline clip-path="url(#clip370)" style="stroke:#000000; stroke-linecap:round; stroke-linejoin:round; stroke-width:4; stroke-opacity:1; fill:none" points="
  822.435,1410.9 822.435,1392 
  "/>
<polyline clip-path="url(#clip370)" style="stroke:#000000; stroke-linecap:round; stroke-linejoin:round; stroke-width:4; stroke-opacity:1; fill:none" points="
  1554.09,1410.9 1554.09,1392 
  "/>
<polyline clip-path="url(#clip370)" style="stroke:#000000; stroke-linecap:round; stroke-linejoin:round; stroke-width:4; stroke-opacity:1; fill:none" points="
  2285.75,1410.9 2285.75,1392 
  "/>
<path clip-path="url(#clip370)" d="M788.763 1485.02 L796.402 1485.02 L796.402 1458.66 L788.092 1460.32 L788.092 1456.06 L796.355 1454.4 L801.031 1454.4 L801.031 1485.02 L808.67 1485.02 L808.67 1488.96 L788.763 1488.96 L788.763 1485.02 Z" fill="#000000" fill-rule="evenodd" fill-opacity="1" /><path clip-path="url(#clip370)" d="M828.115 1457.48 Q824.503 1457.48 822.675 1461.04 Q820.869 1464.58 820.869 1471.71 Q820.869 1478.82 822.675 1482.38 Q824.503 1485.92 828.115 1485.92 Q831.749 1485.92 833.554 1482.38 Q835.383 1478.82 835.383 1471.71 Q835.383 1464.58 833.554 1461.04 Q831.749 1457.48 828.115 1457.48 M828.115 1453.77 Q833.925 1453.77 836.98 1458.38 Q840.059 1462.96 840.059 1471.71 Q840.059 1480.44 836.98 1485.04 Q833.925 1489.63 828.115 1489.63 Q822.304 1489.63 819.226 1485.04 Q816.17 1480.44 816.17 1471.71 Q816.17 1462.96 819.226 1458.38 Q822.304 1453.77 828.115 1453.77 Z" fill="#000000" fill-rule="evenodd" fill-opacity="1" /><path clip-path="url(#clip370)" d="M840.604 1458.35 L846.811 1458.35 L846.811 1436.93 L840.059 1438.28 L840.059 1434.82 L846.773 1433.47 L850.572 1433.47 L850.572 1458.35 L856.779 1458.35 L856.779 1461.55 L840.604 1461.55 L840.604 1458.35 Z" fill="#000000" fill-rule="evenodd" fill-opacity="1" /><path clip-path="url(#clip370)" d="M1519.87 1485.02 L1527.51 1485.02 L1527.51 1458.66 L1519.2 1460.32 L1519.2 1456.06 L1527.46 1454.4 L1532.13 1454.4 L1532.13 1485.02 L1539.77 1485.02 L1539.77 1488.96 L1519.87 1488.96 L1519.87 1485.02 Z" fill="#000000" fill-rule="evenodd" fill-opacity="1" /><path clip-path="url(#clip370)" d="M1559.22 1457.48 Q1555.61 1457.48 1553.78 1461.04 Q1551.97 1464.58 1551.97 1471.71 Q1551.97 1478.82 1553.78 1482.38 Q1555.61 1485.92 1559.22 1485.92 Q1562.85 1485.92 1564.66 1482.38 Q1566.49 1478.82 1566.49 1471.71 Q1566.49 1464.58 1564.66 1461.04 Q1562.85 1457.48 1559.22 1457.48 M1559.22 1453.77 Q1565.03 1453.77 1568.08 1458.38 Q1571.16 1462.96 1571.16 1471.71 Q1571.16 1480.44 1568.08 1485.04 Q1565.03 1489.63 1559.22 1489.63 Q1553.41 1489.63 1550.33 1485.04 Q1547.27 1480.44 1547.27 1471.71 Q1547.27 1462.96 1550.33 1458.38 Q1553.41 1453.77 1559.22 1453.77 Z" fill="#000000" fill-rule="evenodd" fill-opacity="1" /><path clip-path="url(#clip370)" d="M1575.73 1458.35 L1588.99 1458.35 L1588.99 1461.55 L1571.16 1461.55 L1571.16 1458.35 Q1573.33 1456.11 1577.05 1452.35 Q1580.79 1448.57 1581.75 1447.48 Q1583.58 1445.43 1584.29 1444.02 Q1585.02 1442.59 1585.02 1441.22 Q1585.02 1438.98 1583.44 1437.57 Q1581.88 1436.16 1579.36 1436.16 Q1577.58 1436.16 1575.58 1436.78 Q1573.61 1437.4 1571.35 1438.66 L1571.35 1434.82 Q1573.65 1433.9 1575.64 1433.43 Q1577.63 1432.96 1579.29 1432.96 Q1583.65 1432.96 1586.25 1435.14 Q1588.84 1437.32 1588.84 1440.97 Q1588.84 1442.7 1588.18 1444.26 Q1587.54 1445.8 1585.83 1447.91 Q1585.36 1448.46 1582.84 1451.07 Q1580.32 1453.67 1575.73 1458.35 Z" fill="#000000" fill-rule="evenodd" fill-opacity="1" /><path clip-path="url(#clip370)" d="M2251.2 1485.02 L2258.83 1485.02 L2258.83 1458.66 L2250.52 1460.32 L2250.52 1456.06 L2258.79 1454.4 L2263.46 1454.4 L2263.46 1485.02 L2271.1 1485.02 L2271.1 1488.96 L2251.2 1488.96 L2251.2 1485.02 Z" fill="#000000" fill-rule="evenodd" fill-opacity="1" /><path clip-path="url(#clip370)" d="M2290.55 1457.48 Q2286.94 1457.48 2285.11 1461.04 Q2283.3 1464.58 2283.3 1471.71 Q2283.3 1478.82 2285.11 1482.38 Q2286.94 1485.92 2290.55 1485.92 Q2294.18 1485.92 2295.99 1482.38 Q2297.82 1478.82 2297.82 1471.71 Q2297.82 1464.58 2295.99 1461.04 Q2294.18 1457.48 2290.55 1457.48 M2290.55 1453.77 Q2296.36 1453.77 2299.41 1458.38 Q2302.49 1462.96 2302.49 1471.71 Q2302.49 1480.44 2299.41 1485.04 Q2296.36 1489.63 2290.55 1489.63 Q2284.74 1489.63 2281.66 1485.04 Q2278.6 1480.44 2278.6 1471.71 Q2278.6 1462.96 2281.66 1458.38 Q2284.74 1453.77 2290.55 1453.77 Z" fill="#000000" fill-rule="evenodd" fill-opacity="1" /><path clip-path="url(#clip370)" d="M2315.19 1446.41 Q2317.91 1446.99 2319.44 1448.83 Q2320.98 1450.68 2320.98 1453.38 Q2320.98 1457.54 2318.12 1459.82 Q2315.26 1462.09 2310 1462.09 Q2308.23 1462.09 2306.35 1461.73 Q2304.49 1461.4 2302.49 1460.7 L2302.49 1457.03 Q2304.07 1457.95 2305.95 1458.42 Q2307.83 1458.89 2309.88 1458.89 Q2313.46 1458.89 2315.32 1457.48 Q2317.2 1456.07 2317.2 1453.38 Q2317.2 1450.9 2315.45 1449.51 Q2313.72 1448.1 2310.62 1448.1 L2307.34 1448.1 L2307.34 1444.98 L2310.77 1444.98 Q2313.57 1444.98 2315.06 1443.87 Q2316.54 1442.74 2316.54 1440.63 Q2316.54 1438.47 2315 1437.32 Q2313.48 1436.16 2310.62 1436.16 Q2309.06 1436.16 2307.27 1436.49 Q2305.48 1436.83 2303.34 1437.55 L2303.34 1434.16 Q2305.5 1433.56 2307.38 1433.26 Q2309.28 1432.96 2310.96 1432.96 Q2315.28 1432.96 2317.8 1434.93 Q2320.32 1436.89 2320.32 1440.24 Q2320.32 1442.57 2318.99 1444.19 Q2317.65 1445.79 2315.19 1446.41 Z" fill="#000000" fill-rule="evenodd" fill-opacity="1" /><path clip-path="url(#clip370)" d="M1317.09 1552.67 L1317.09 1574.19 L1311.23 1574.19 L1311.23 1552.86 Q1311.23 1547.8 1309.26 1545.29 Q1307.28 1542.77 1303.34 1542.77 Q1298.59 1542.77 1295.86 1545.79 Q1293.12 1548.82 1293.12 1554.04 L1293.12 1574.19 L1287.23 1574.19 L1287.23 1538.54 L1293.12 1538.54 L1293.12 1544.08 Q1295.22 1540.86 1298.05 1539.27 Q1300.92 1537.68 1304.64 1537.68 Q1310.78 1537.68 1313.93 1541.5 Q1317.09 1545.29 1317.09 1552.67 Z" fill="#000000" fill-rule="evenodd" fill-opacity="1" /><polyline clip-path="url(#clip372)" style="stroke:#000000; stroke-linecap:round; stroke-linejoin:round; stroke-width:2; stroke-opacity:0.1; fill:none" points="
  251.56,1126.68 2352.76,1126.68 
  "/>
<polyline clip-path="url(#clip372)" style="stroke:#000000; stroke-linecap:round; stroke-linejoin:round; stroke-width:2; stroke-opacity:0.1; fill:none" points="
  251.56,285.259 2352.76,285.259 
  "/>
<polyline clip-path="url(#clip370)" style="stroke:#000000; stroke-linecap:round; stroke-linejoin:round; stroke-width:4; stroke-opacity:1; fill:none" points="
  251.56,1410.9 251.56,47.2441 
  "/>
<polyline clip-path="url(#clip370)" style="stroke:#000000; stroke-linecap:round; stroke-linejoin:round; stroke-width:4; stroke-opacity:1; fill:none" points="
  251.56,1126.68 270.458,1126.68 
  "/>
<polyline clip-path="url(#clip370)" style="stroke:#000000; stroke-linecap:round; stroke-linejoin:round; stroke-width:4; stroke-opacity:1; fill:none" points="
  251.56,285.259 270.458,285.259 
  "/>
<path clip-path="url(#clip370)" d="M114.931 1146.48 L122.57 1146.48 L122.57 1120.11 L114.26 1121.78 L114.26 1117.52 L122.524 1115.85 L127.2 1115.85 L127.2 1146.48 L134.839 1146.48 L134.839 1150.41 L114.931 1150.41 L114.931 1146.48 Z" fill="#000000" fill-rule="evenodd" fill-opacity="1" /><path clip-path="url(#clip370)" d="M154.283 1118.93 Q150.672 1118.93 148.843 1122.49 Q147.038 1126.04 147.038 1133.17 Q147.038 1140.27 148.843 1143.84 Q150.672 1147.38 154.283 1147.38 Q157.917 1147.38 159.723 1143.84 Q161.552 1140.27 161.552 1133.17 Q161.552 1126.04 159.723 1122.49 Q157.917 1118.93 154.283 1118.93 M154.283 1115.23 Q160.093 1115.23 163.149 1119.83 Q166.227 1124.42 166.227 1133.17 Q166.227 1141.89 163.149 1146.5 Q160.093 1151.08 154.283 1151.08 Q148.473 1151.08 145.394 1146.5 Q142.339 1141.89 142.339 1133.17 Q142.339 1124.42 145.394 1119.83 Q148.473 1115.23 154.283 1115.23 Z" fill="#000000" fill-rule="evenodd" fill-opacity="1" /><path clip-path="url(#clip370)" d="M166.227 1109.33 L190.339 1109.33 L190.339 1112.52 L166.227 1112.52 L166.227 1109.33 Z" fill="#000000" fill-rule="evenodd" fill-opacity="1" /><path clip-path="url(#clip370)" d="M198.577 1094.92 L213.491 1094.92 L213.491 1098.12 L202.056 1098.12 L202.056 1105 Q202.884 1104.72 203.711 1104.59 Q204.539 1104.44 205.366 1104.44 Q210.068 1104.44 212.814 1107.01 Q215.56 1109.59 215.56 1113.99 Q215.56 1118.52 212.739 1121.04 Q209.918 1123.55 204.783 1123.55 Q203.015 1123.55 201.172 1123.24 Q199.348 1122.94 197.392 1122.34 L197.392 1118.52 Q199.085 1119.45 200.89 1119.9 Q202.696 1120.35 204.708 1120.35 Q207.962 1120.35 209.861 1118.64 Q211.761 1116.93 211.761 1113.99 Q211.761 1111.06 209.861 1109.35 Q207.962 1107.63 204.708 1107.63 Q203.185 1107.63 201.661 1107.97 Q200.157 1108.31 198.577 1109.03 L198.577 1094.92 Z" fill="#000000" fill-rule="evenodd" fill-opacity="1" /><path clip-path="url(#clip370)" d="M144.855 305.052 L152.493 305.052 L152.493 278.686 L144.183 280.353 L144.183 276.094 L152.447 274.427 L157.123 274.427 L157.123 305.052 L164.762 305.052 L164.762 308.987 L144.855 308.987 L144.855 305.052 Z" fill="#000000" fill-rule="evenodd" fill-opacity="1" /><path clip-path="url(#clip370)" d="M184.206 277.506 Q180.595 277.506 178.766 281.07 Q176.961 284.612 176.961 291.742 Q176.961 298.848 178.766 302.413 Q180.595 305.954 184.206 305.954 Q187.84 305.954 189.646 302.413 Q191.475 298.848 191.475 291.742 Q191.475 284.612 189.646 281.07 Q187.84 277.506 184.206 277.506 M184.206 273.802 Q190.016 273.802 193.072 278.408 Q196.151 282.992 196.151 291.742 Q196.151 300.468 193.072 305.075 Q190.016 309.658 184.206 309.658 Q178.396 309.658 175.317 305.075 Q172.262 300.468 172.262 291.742 Q172.262 282.992 175.317 278.408 Q178.396 273.802 184.206 273.802 Z" fill="#000000" fill-rule="evenodd" fill-opacity="1" /><path clip-path="url(#clip370)" d="M205.855 255.998 Q202.921 255.998 201.436 258.894 Q199.969 261.772 199.969 267.565 Q199.969 273.339 201.436 276.235 Q202.921 279.113 205.855 279.113 Q208.808 279.113 210.275 276.235 Q211.761 273.339 211.761 267.565 Q211.761 261.772 210.275 258.894 Q208.808 255.998 205.855 255.998 M205.855 252.989 Q210.576 252.989 213.059 256.731 Q215.56 260.455 215.56 267.565 Q215.56 274.655 213.059 278.398 Q210.576 282.122 205.855 282.122 Q201.135 282.122 198.633 278.398 Q196.151 274.655 196.151 267.565 Q196.151 260.455 198.633 256.731 Q201.135 252.989 205.855 252.989 Z" fill="#000000" fill-rule="evenodd" fill-opacity="1" /><path clip-path="url(#clip370)" d="M44.7161 773.137 L47.5806 773.137 L47.5806 800.064 Q53.6281 799.682 56.8109 796.435 Q59.9619 793.157 59.9619 787.332 Q59.9619 783.959 59.1344 780.808 Q58.3069 777.625 56.6518 774.506 L62.1899 774.506 Q63.5267 777.657 64.227 780.967 Q64.9272 784.277 64.9272 787.683 Q64.9272 796.213 59.9619 801.21 Q54.9967 806.175 46.5303 806.175 Q37.7774 806.175 32.6531 801.464 Q27.4968 796.722 27.4968 788.701 Q27.4968 781.508 32.1438 777.338 Q36.7589 773.137 44.7161 773.137 M42.9973 778.993 Q38.1912 779.057 35.3266 781.699 Q32.4621 784.309 32.4621 788.637 Q32.4621 793.539 35.2312 796.499 Q38.0002 799.427 43.0292 799.873 L42.9973 778.993 Z" fill="#000000" fill-rule="evenodd" fill-opacity="1" /><path clip-path="url(#clip370)" d="M33.8307 742.868 Q33.2578 743.855 33.0032 745.032 Q32.7167 746.178 32.7167 747.579 Q32.7167 752.544 35.9632 755.218 Q39.1779 757.859 45.2253 757.859 L64.0042 757.859 L64.0042 763.748 L28.3562 763.748 L28.3562 757.859 L33.8944 757.859 Q30.6479 756.013 29.0883 753.053 Q27.4968 750.093 27.4968 745.86 Q27.4968 745.255 27.5923 744.523 Q27.656 743.791 27.8151 742.9 L33.8307 742.868 Z" fill="#000000" fill-rule="evenodd" fill-opacity="1" /><path clip-path="url(#clip370)" d="M33.8307 717.214 Q33.2578 718.201 33.0032 719.379 Q32.7167 720.524 32.7167 721.925 Q32.7167 726.89 35.9632 729.564 Q39.1779 732.205 45.2253 732.205 L64.0042 732.205 L64.0042 738.094 L28.3562 738.094 L28.3562 732.205 L33.8944 732.205 Q30.6479 730.359 29.0883 727.399 Q27.4968 724.439 27.4968 720.206 Q27.4968 719.601 27.5923 718.869 Q27.656 718.137 27.8151 717.246 L33.8307 717.214 Z" fill="#000000" fill-rule="evenodd" fill-opacity="1" /><path clip-path="url(#clip370)" d="M32.4621 698.69 Q32.4621 703.401 36.1542 706.138 Q39.8145 708.875 46.212 708.875 Q52.6095 708.875 56.3017 706.17 Q59.9619 703.432 59.9619 698.69 Q59.9619 694.011 56.2698 691.274 Q52.5777 688.537 46.212 688.537 Q39.8781 688.537 36.186 691.274 Q32.4621 694.011 32.4621 698.69 M27.4968 698.69 Q27.4968 691.051 32.4621 686.691 Q37.4273 682.33 46.212 682.33 Q54.9649 682.33 59.9619 686.691 Q64.9272 691.051 64.9272 698.69 Q64.9272 706.361 59.9619 710.721 Q54.9649 715.05 46.212 715.05 Q37.4273 715.05 32.4621 710.721 Q27.4968 706.361 27.4968 698.69 Z" fill="#000000" fill-rule="evenodd" fill-opacity="1" /><path clip-path="url(#clip370)" d="M33.8307 651.966 Q33.2578 652.952 33.0032 654.13 Q32.7167 655.276 32.7167 656.676 Q32.7167 661.642 35.9632 664.315 Q39.1779 666.957 45.2253 666.957 L64.0042 666.957 L64.0042 672.845 L28.3562 672.845 L28.3562 666.957 L33.8944 666.957 Q30.6479 665.111 29.0883 662.151 Q27.4968 659.191 27.4968 654.958 Q27.4968 654.353 27.5923 653.621 Q27.656 652.889 27.8151 651.998 L33.8307 651.966 Z" fill="#000000" fill-rule="evenodd" fill-opacity="1" /><circle clip-path="url(#clip372)" cx="311.028" cy="85.838" r="14.4" fill="#009af9" fill-rule="evenodd" fill-opacity="1" stroke="#000000" stroke-opacity="1" stroke-width="3.2"/>
<circle clip-path="url(#clip372)" cx="531.279" cy="224.099" r="14.4" fill="#009af9" fill-rule="evenodd" fill-opacity="1" stroke="#000000" stroke-opacity="1" stroke-width="3.2"/>
<circle clip-path="url(#clip372)" cx="751.53" cy="337.214" r="14.4" fill="#009af9" fill-rule="evenodd" fill-opacity="1" stroke="#000000" stroke-opacity="1" stroke-width="3.2"/>
<circle clip-path="url(#clip372)" cx="971.781" cy="447.756" r="14.4" fill="#009af9" fill-rule="evenodd" fill-opacity="1" stroke="#000000" stroke-opacity="1" stroke-width="3.2"/>
<circle clip-path="url(#clip372)" cx="1192.03" cy="553.715" r="14.4" fill="#009af9" fill-rule="evenodd" fill-opacity="1" stroke="#000000" stroke-opacity="1" stroke-width="3.2"/>
<circle clip-path="url(#clip372)" cx="1412.28" cy="657.336" r="14.4" fill="#009af9" fill-rule="evenodd" fill-opacity="1" stroke="#000000" stroke-opacity="1" stroke-width="3.2"/>
<circle clip-path="url(#clip372)" cx="1632.53" cy="759.8" r="14.4" fill="#009af9" fill-rule="evenodd" fill-opacity="1" stroke="#000000" stroke-opacity="1" stroke-width="3.2"/>
<circle clip-path="url(#clip372)" cx="1852.79" cy="861.69" r="14.4" fill="#009af9" fill-rule="evenodd" fill-opacity="1" stroke="#000000" stroke-opacity="1" stroke-width="3.2"/>
<circle clip-path="url(#clip372)" cx="2073.04" cy="963.294" r="14.4" fill="#009af9" fill-rule="evenodd" fill-opacity="1" stroke="#000000" stroke-opacity="1" stroke-width="3.2"/>
<circle clip-path="url(#clip372)" cx="2293.29" cy="1064.75" r="14.4" fill="#009af9" fill-rule="evenodd" fill-opacity="1" stroke="#000000" stroke-opacity="1" stroke-width="3.2"/>
<circle clip-path="url(#clip372)" cx="311.028" cy="248.862" r="14.4" fill="#e26f46" fill-rule="evenodd" fill-opacity="1" stroke="#000000" stroke-opacity="1" stroke-width="3.2"/>
<circle clip-path="url(#clip372)" cx="531.279" cy="476.662" r="14.4" fill="#e26f46" fill-rule="evenodd" fill-opacity="1" stroke="#000000" stroke-opacity="1" stroke-width="3.2"/>
<circle clip-path="url(#clip372)" cx="751.53" cy="644.92" r="14.4" fill="#e26f46" fill-rule="evenodd" fill-opacity="1" stroke="#000000" stroke-opacity="1" stroke-width="3.2"/>
<circle clip-path="url(#clip372)" cx="971.781" cy="755.38" r="14.4" fill="#e26f46" fill-rule="evenodd" fill-opacity="1" stroke="#000000" stroke-opacity="1" stroke-width="3.2"/>
<circle clip-path="url(#clip372)" cx="1192.03" cy="861.281" r="14.4" fill="#e26f46" fill-rule="evenodd" fill-opacity="1" stroke="#000000" stroke-opacity="1" stroke-width="3.2"/>
<circle clip-path="url(#clip372)" cx="1412.28" cy="964.889" r="14.4" fill="#e26f46" fill-rule="evenodd" fill-opacity="1" stroke="#000000" stroke-opacity="1" stroke-width="3.2"/>
<circle clip-path="url(#clip372)" cx="1632.53" cy="1067.35" r="14.4" fill="#e26f46" fill-rule="evenodd" fill-opacity="1" stroke="#000000" stroke-opacity="1" stroke-width="3.2"/>
<circle clip-path="url(#clip372)" cx="1852.79" cy="1169.24" r="14.4" fill="#e26f46" fill-rule="evenodd" fill-opacity="1" stroke="#000000" stroke-opacity="1" stroke-width="3.2"/>
<circle clip-path="url(#clip372)" cx="2073.04" cy="1270.84" r="14.4" fill="#e26f46" fill-rule="evenodd" fill-opacity="1" stroke="#000000" stroke-opacity="1" stroke-width="3.2"/>
<circle clip-path="url(#clip372)" cx="2293.29" cy="1372.3" r="14.4" fill="#e26f46" fill-rule="evenodd" fill-opacity="1" stroke="#000000" stroke-opacity="1" stroke-width="3.2"/>
<polyline clip-path="url(#clip372)" style="stroke:#3da44d; stroke-linecap:round; stroke-linejoin:round; stroke-width:16; stroke-opacity:1; fill:none" points="
  311.028,335.918 531.279,386.577 751.53,437.236 971.781,487.894 1192.03,538.553 1412.28,589.212 1632.53,639.871 1852.79,690.529 2073.04,741.188 2293.29,791.847 
  
  "/>
<polyline clip-path="url(#clip372)" style="stroke:#c271d2; stroke-linecap:round; stroke-linejoin:round; stroke-width:16; stroke-opacity:1; fill:none" points="
  311.028,386.577 531.279,487.894 751.53,589.212 971.781,690.529 1192.03,791.847 1412.28,893.165 1632.53,994.482 1852.79,1095.8 2073.04,1197.12 2293.29,1298.43 
  
  "/>
<path clip-path="url(#clip370)" d="
M1789.6 481.499 L2282.72 481.499 L2282.72 92.6992 L1789.6 92.6992  Z
  " fill="#ffffff" fill-rule="evenodd" fill-opacity="1"/>
<polyline clip-path="url(#clip370)" style="stroke:#000000; stroke-linecap:round; stroke-linejoin:round; stroke-width:4; stroke-opacity:1; fill:none" points="
  1789.6,481.499 2282.72,481.499 2282.72,92.6992 1789.6,92.6992 1789.6,481.499 
  "/>
<circle clip-path="url(#clip370)" cx="1882.98" cy="170.459" r="34.56" fill="#009af9" fill-rule="evenodd" fill-opacity="1" stroke="#000000" stroke-opacity="1" stroke-width="7.68"/>
<path clip-path="url(#clip370)" d="M2001.13 142.352 L2001.13 147.664 L1995.02 147.664 Q1991.58 147.664 1990.23 149.053 Q1988.91 150.442 1988.91 154.053 L1988.91 157.49 L1999.43 157.49 L1999.43 162.456 L1988.91 162.456 L1988.91 196.379 L1982.48 196.379 L1982.48 162.456 L1976.37 162.456 L1976.37 157.49 L1982.48 157.49 L1982.48 154.782 Q1982.48 148.289 1985.5 145.338 Q1988.52 142.352 1995.09 142.352 L2001.13 142.352 Z" fill="#000000" fill-rule="evenodd" fill-opacity="1" /><path clip-path="url(#clip370)" d="M2036.02 208.185 L2036.02 213.15 L1999.08 213.15 L1999.08 208.185 L2036.02 208.185 Z" fill="#000000" fill-rule="evenodd" fill-opacity="1" /><path clip-path="url(#clip370)" d="M2075.29 175.338 L2075.29 178.463 L2045.92 178.463 Q2046.34 185.06 2049.88 188.532 Q2053.45 191.969 2059.81 191.969 Q2063.49 191.969 2066.93 191.067 Q2070.4 190.164 2073.8 188.358 L2073.8 194.4 Q2070.36 195.858 2066.75 196.622 Q2063.14 197.386 2059.43 197.386 Q2050.12 197.386 2044.67 191.969 Q2039.25 186.553 2039.25 177.317 Q2039.25 167.768 2044.39 162.178 Q2049.57 156.553 2058.32 156.553 Q2066.16 156.553 2070.71 161.622 Q2075.29 166.657 2075.29 175.338 M2068.91 173.463 Q2068.84 168.22 2065.95 165.095 Q2063.11 161.97 2058.38 161.97 Q2053.04 161.97 2049.81 164.99 Q2046.61 168.011 2046.13 173.497 L2068.91 173.463 Z" fill="#000000" fill-rule="evenodd" fill-opacity="1" /><path clip-path="url(#clip370)" d="M2116.86 157.49 L2102.79 176.414 L2117.59 196.379 L2110.05 196.379 L2098.73 181.101 L2087.41 196.379 L2079.88 196.379 L2094.98 176.032 L2081.16 157.49 L2088.7 157.49 L2099.01 171.345 L2109.32 157.49 L2116.86 157.49 Z" fill="#000000" fill-rule="evenodd" fill-opacity="1" /><path clip-path="url(#clip370)" d="M2132.79 190.546 L2132.79 211.171 L2126.37 211.171 L2126.37 157.49 L2132.79 157.49 L2132.79 163.393 Q2134.81 159.921 2137.86 158.254 Q2140.95 156.553 2145.22 156.553 Q2152.31 156.553 2156.72 162.178 Q2161.16 167.803 2161.16 176.97 Q2161.16 186.136 2156.72 191.761 Q2152.31 197.386 2145.22 197.386 Q2140.95 197.386 2137.86 195.719 Q2134.81 194.018 2132.79 190.546 M2154.53 176.97 Q2154.53 169.921 2151.61 165.928 Q2148.73 161.9 2143.66 161.9 Q2138.59 161.9 2135.68 165.928 Q2132.79 169.921 2132.79 176.97 Q2132.79 184.018 2135.68 188.046 Q2138.59 192.039 2143.66 192.039 Q2148.73 192.039 2151.61 188.046 Q2154.53 184.018 2154.53 176.97 Z" fill="#000000" fill-rule="evenodd" fill-opacity="1" /><path clip-path="url(#clip370)" d="M2204.08 157.49 L2190.02 176.414 L2204.81 196.379 L2197.27 196.379 L2185.95 181.101 L2174.63 196.379 L2167.1 196.379 L2182.2 176.032 L2168.38 157.49 L2175.92 157.49 L2186.23 171.345 L2196.54 157.49 L2204.08 157.49 Z" fill="#000000" fill-rule="evenodd" fill-opacity="1" /><circle clip-path="url(#clip370)" cx="1882.98" cy="248.219" r="34.56" fill="#e26f46" fill-rule="evenodd" fill-opacity="1" stroke="#000000" stroke-opacity="1" stroke-width="7.68"/>
<path clip-path="url(#clip370)" d="M2001.13 220.112 L2001.13 225.424 L1995.02 225.424 Q1991.58 225.424 1990.23 226.813 Q1988.91 228.202 1988.91 231.813 L1988.91 235.25 L1999.43 235.25 L1999.43 240.216 L1988.91 240.216 L1988.91 274.139 L1982.48 274.139 L1982.48 240.216 L1976.37 240.216 L1976.37 235.25 L1982.48 235.25 L1982.48 232.542 Q1982.48 226.049 1985.5 223.098 Q1988.52 220.112 1995.09 220.112 L2001.13 220.112 Z" fill="#000000" fill-rule="evenodd" fill-opacity="1" /><path clip-path="url(#clip370)" d="M2036.02 285.945 L2036.02 290.91 L1999.08 290.91 L1999.08 285.945 L2036.02 285.945 Z" fill="#000000" fill-rule="evenodd" fill-opacity="1" /><path clip-path="url(#clip370)" d="M2067.62 241.153 L2067.62 220.112 L2074.01 220.112 L2074.01 274.139 L2067.62 274.139 L2067.62 268.306 Q2065.61 271.778 2062.52 273.479 Q2059.46 275.146 2055.16 275.146 Q2048.11 275.146 2043.66 269.521 Q2039.25 263.896 2039.25 254.73 Q2039.25 245.563 2043.66 239.938 Q2048.11 234.313 2055.16 234.313 Q2059.46 234.313 2062.52 236.014 Q2065.61 237.681 2067.62 241.153 M2045.85 254.73 Q2045.85 261.778 2048.73 265.806 Q2051.65 269.799 2056.72 269.799 Q2061.79 269.799 2064.7 265.806 Q2067.62 261.778 2067.62 254.73 Q2067.62 247.681 2064.7 243.688 Q2061.79 239.66 2056.72 239.66 Q2051.65 239.66 2048.73 243.688 Q2045.85 247.681 2045.85 254.73 Z" fill="#000000" fill-rule="evenodd" fill-opacity="1" /><path clip-path="url(#clip370)" d="M2093.49 224.209 L2093.49 235.25 L2106.65 235.25 L2106.65 240.216 L2093.49 240.216 L2093.49 261.327 Q2093.49 266.084 2094.77 267.438 Q2096.09 268.792 2100.09 268.792 L2106.65 268.792 L2106.65 274.139 L2100.09 274.139 Q2092.69 274.139 2089.88 271.396 Q2087.07 268.618 2087.07 261.327 L2087.07 240.216 L2082.38 240.216 L2082.38 235.25 L2087.07 235.25 L2087.07 224.209 L2093.49 224.209 Z" fill="#000000" fill-rule="evenodd" fill-opacity="1" /><path clip-path="url(#clip370)" d="M2132.72 254.591 Q2124.98 254.591 2122 256.361 Q2119.01 258.132 2119.01 262.403 Q2119.01 265.806 2121.23 267.82 Q2123.49 269.799 2127.34 269.799 Q2132.66 269.799 2135.85 266.049 Q2139.08 262.264 2139.08 256.014 L2139.08 254.591 L2132.72 254.591 M2145.47 251.952 L2145.47 274.139 L2139.08 274.139 L2139.08 268.236 Q2136.89 271.778 2133.63 273.479 Q2130.36 275.146 2125.64 275.146 Q2119.67 275.146 2116.13 271.813 Q2112.62 268.445 2112.62 262.82 Q2112.62 256.257 2117 252.924 Q2121.41 249.591 2130.12 249.591 L2139.08 249.591 L2139.08 248.966 Q2139.08 244.556 2136.16 242.16 Q2133.28 239.73 2128.04 239.73 Q2124.7 239.73 2121.54 240.528 Q2118.38 241.327 2115.47 242.924 L2115.47 237.021 Q2118.97 235.667 2122.27 235.007 Q2125.57 234.313 2128.7 234.313 Q2137.13 234.313 2141.3 238.688 Q2145.47 243.063 2145.47 251.952 Z" fill="#000000" fill-rule="evenodd" fill-opacity="1" /><path clip-path="url(#clip370)" d="M2190.95 250.667 L2190.95 274.139 L2184.56 274.139 L2184.56 250.875 Q2184.56 245.355 2182.41 242.612 Q2180.26 239.869 2175.95 239.869 Q2170.78 239.869 2167.79 243.167 Q2164.81 246.466 2164.81 252.16 L2164.81 274.139 L2158.38 274.139 L2158.38 235.25 L2164.81 235.25 L2164.81 241.292 Q2167.1 237.785 2170.19 236.049 Q2173.31 234.313 2177.38 234.313 Q2184.08 234.313 2187.52 238.48 Q2190.95 242.612 2190.95 250.667 Z" fill="#000000" fill-rule="evenodd" fill-opacity="1" /><path clip-path="url(#clip370)" d="M2236.02 250.667 L2236.02 274.139 L2229.63 274.139 L2229.63 250.875 Q2229.63 245.355 2227.48 242.612 Q2225.33 239.869 2221.02 239.869 Q2215.85 239.869 2212.86 243.167 Q2209.88 246.466 2209.88 252.16 L2209.88 274.139 L2203.45 274.139 L2203.45 220.112 L2209.88 220.112 L2209.88 241.292 Q2212.17 237.785 2215.26 236.049 Q2218.38 234.313 2222.45 234.313 Q2229.15 234.313 2232.59 238.48 Q2236.02 242.612 2236.02 250.667 Z" fill="#000000" fill-rule="evenodd" fill-opacity="1" /><polyline clip-path="url(#clip370)" style="stroke:#3da44d; stroke-linecap:round; stroke-linejoin:round; stroke-width:6; stroke-opacity:1; fill:none" points="
  1812.95,325.979 1953.02,325.979 
  "/>
<path clip-path="url(#clip370)" d="M2015.37 342.659 Q2015.37 342.94 2015.05 344.029 Q2014.74 345.118 2013.96 346.804 Q2013.23 348.491 2012.21 350.037 Q2011.19 351.547 2009.5 352.672 Q2007.85 353.761 2005.95 353.761 Q2003.42 353.761 2001.74 352.074 Q2000.05 350.388 2000.05 347.858 Q2000.05 346.453 2000.79 344.521 Q2005.46 332.048 2005.46 327.762 Q2005.46 322.738 2001.56 322.738 Q1999.63 322.738 1997.8 323.476 Q1996.01 324.178 1994.78 325.162 Q1993.55 326.146 1992.43 327.516 Q1991.34 328.851 1990.78 329.765 Q1990.25 330.643 1989.83 331.521 L1988.91 335.105 Q1988.7 336.089 1987.68 339.918 L1986.1 346.418 Q1984.98 351.266 1984.73 351.723 Q1984.38 352.707 1983.61 353.234 Q1982.84 353.761 1982.06 353.761 Q1981.18 353.761 1980.59 353.234 Q1979.99 352.707 1979.99 351.793 Q1979.99 351.653 1980.1 351.126 Q1980.2 350.599 1980.38 349.861 Q1980.55 349.123 1980.62 348.702 L1984.8 332.083 Q1985.58 329.062 1985.75 328.113 Q1985.96 327.13 1985.96 326.04 Q1985.96 322.738 1983.71 322.738 Q1981.89 322.738 1980.69 324.916 Q1979.5 327.094 1978.48 331.31 Q1978.16 332.47 1977.95 332.716 Q1977.78 332.962 1977.25 332.962 Q1976.37 332.927 1976.37 332.224 Q1976.37 332.048 1976.65 330.889 Q1976.93 329.729 1977.46 328.078 Q1978.02 326.392 1978.55 325.267 Q1979.01 324.424 1979.25 324.038 Q1979.53 323.616 1980.2 322.808 Q1980.9 321.965 1981.82 321.578 Q1982.77 321.157 1983.93 321.157 Q1986.53 321.157 1988.42 322.843 Q1990.32 324.495 1990.57 327.411 Q1995.24 321.157 2001.77 321.157 Q2005.64 321.157 2007.85 323.195 Q2010.06 325.232 2010.06 328.851 Q2010.06 329.694 2009.89 330.783 Q2009.75 331.837 2009.4 333.173 Q2009.08 334.508 2008.8 335.526 Q2008.52 336.545 2007.96 338.197 Q2007.39 339.813 2007.15 340.515 Q2006.9 341.218 2006.31 342.869 Q2005.74 344.486 2005.67 344.661 Q2004.37 347.929 2004.37 349.791 Q2004.37 351.02 2004.76 351.583 Q2005.18 352.145 2006.09 352.145 Q2008.55 352.145 2010.38 349.72 Q2012.24 347.261 2013.44 343.256 Q2013.72 342.378 2013.86 342.167 Q2014.03 341.956 2014.53 341.956 Q2015.37 341.956 2015.37 342.659 Z" fill="#000000" fill-rule="evenodd" fill-opacity="1" /><path clip-path="url(#clip370)" d="M2055.93 318.132 Q2056.22 318.427 2056.22 318.845 Q2056.22 319.263 2055.93 319.558 Q2055.63 319.853 2055.21 319.853 L2023.68 319.853 Q2023.27 319.853 2022.97 319.558 Q2022.68 319.263 2022.68 318.845 Q2022.68 318.427 2022.97 318.132 Q2023.27 317.837 2023.68 317.837 L2055.21 317.837 Q2055.63 317.837 2055.93 318.132 Z" fill="#000000" fill-rule="evenodd" fill-opacity="1" /><path clip-path="url(#clip370)" d="M2061.48 302.687 L2061.48 301.113 Q2067.53 301.113 2070.65 297.891 Q2071.51 297.891 2071.66 298.088 Q2071.81 298.285 2071.81 299.195 L2071.81 327.453 Q2071.81 328.953 2072.55 329.42 Q2073.28 329.887 2076.51 329.887 L2078.1 329.887 L2078.1 331.437 Q2076.33 331.289 2069.94 331.289 Q2063.55 331.289 2061.8 331.437 L2061.8 329.887 L2063.4 329.887 Q2066.57 329.887 2067.33 329.445 Q2068.09 328.977 2068.09 327.453 L2068.09 301.359 Q2065.46 302.687 2061.48 302.687 Z" fill="#000000" fill-rule="evenodd" fill-opacity="1" /><polyline clip-path="url(#clip370)" style="stroke:#c271d2; stroke-linecap:round; stroke-linejoin:round; stroke-width:6; stroke-opacity:1; fill:none" points="
  1812.95,403.739 1953.02,403.739 
  "/>
<path clip-path="url(#clip370)" d="M2015.37 420.419 Q2015.37 420.7 2015.05 421.789 Q2014.74 422.878 2013.96 424.564 Q2013.23 426.251 2012.21 427.797 Q2011.19 429.307 2009.5 430.432 Q2007.85 431.521 2005.95 431.521 Q2003.42 431.521 2001.74 429.834 Q2000.05 428.148 2000.05 425.618 Q2000.05 424.213 2000.79 422.281 Q2005.46 409.808 2005.46 405.522 Q2005.46 400.498 2001.56 400.498 Q1999.63 400.498 1997.8 401.236 Q1996.01 401.938 1994.78 402.922 Q1993.55 403.906 1992.43 405.276 Q1991.34 406.611 1990.78 407.525 Q1990.25 408.403 1989.83 409.281 L1988.91 412.865 Q1988.7 413.849 1987.68 417.678 L1986.1 424.178 Q1984.98 429.026 1984.73 429.483 Q1984.38 430.467 1983.61 430.994 Q1982.84 431.521 1982.06 431.521 Q1981.18 431.521 1980.59 430.994 Q1979.99 430.467 1979.99 429.553 Q1979.99 429.413 1980.1 428.886 Q1980.2 428.359 1980.38 427.621 Q1980.55 426.883 1980.62 426.462 L1984.8 409.843 Q1985.58 406.822 1985.75 405.873 Q1985.96 404.89 1985.96 403.8 Q1985.96 400.498 1983.71 400.498 Q1981.89 400.498 1980.69 402.676 Q1979.5 404.854 1978.48 409.07 Q1978.16 410.23 1977.95 410.476 Q1977.78 410.722 1977.25 410.722 Q1976.37 410.687 1976.37 409.984 Q1976.37 409.808 1976.65 408.649 Q1976.93 407.489 1977.46 405.838 Q1978.02 404.152 1978.55 403.027 Q1979.01 402.184 1979.25 401.798 Q1979.53 401.376 1980.2 400.568 Q1980.9 399.725 1981.82 399.338 Q1982.77 398.917 1983.93 398.917 Q1986.53 398.917 1988.42 400.603 Q1990.32 402.255 1990.57 405.171 Q1995.24 398.917 2001.77 398.917 Q2005.64 398.917 2007.85 400.955 Q2010.06 402.992 2010.06 406.611 Q2010.06 407.454 2009.89 408.543 Q2009.75 409.597 2009.4 410.933 Q2009.08 412.268 2008.8 413.286 Q2008.52 414.305 2007.96 415.957 Q2007.39 417.573 2007.15 418.275 Q2006.9 418.978 2006.31 420.629 Q2005.74 422.246 2005.67 422.421 Q2004.37 425.689 2004.37 427.551 Q2004.37 428.78 2004.76 429.343 Q2005.18 429.905 2006.09 429.905 Q2008.55 429.905 2010.38 427.48 Q2012.24 425.021 2013.44 421.016 Q2013.72 420.138 2013.86 419.927 Q2014.03 419.716 2014.53 419.716 Q2015.37 419.716 2015.37 420.419 Z" fill="#000000" fill-rule="evenodd" fill-opacity="1" /><path clip-path="url(#clip370)" d="M2055.93 395.892 Q2056.22 396.187 2056.22 396.605 Q2056.22 397.023 2055.93 397.318 Q2055.63 397.613 2055.21 397.613 L2023.68 397.613 Q2023.27 397.613 2022.97 397.318 Q2022.68 397.023 2022.68 396.605 Q2022.68 396.187 2022.97 395.892 Q2023.27 395.597 2023.68 395.597 L2055.21 395.597 Q2055.63 395.597 2055.93 395.892 Z" fill="#000000" fill-rule="evenodd" fill-opacity="1" /><path clip-path="url(#clip370)" d="M2061.48 409.197 Q2061.48 408.287 2061.55 408.016 Q2061.65 407.746 2062.04 407.328 L2071.71 396.556 Q2077 390.604 2077 385.415 Q2077 382.046 2075.23 379.635 Q2073.48 377.225 2070.26 377.225 Q2068.05 377.225 2066.18 378.578 Q2064.31 379.93 2063.45 382.341 Q2063.59 382.291 2064.11 382.291 Q2065.37 382.291 2066.05 383.078 Q2066.77 383.865 2066.77 384.923 Q2066.77 386.276 2065.88 386.94 Q2065.02 387.579 2064.16 387.579 Q2063.82 387.579 2063.35 387.505 Q2062.91 387.432 2062.19 386.743 Q2061.48 386.03 2061.48 384.775 Q2061.48 381.259 2064.14 378.455 Q2066.82 375.651 2070.9 375.651 Q2075.52 375.651 2078.55 378.406 Q2081.6 381.136 2081.6 385.415 Q2081.6 386.915 2081.13 388.292 Q2080.69 389.645 2080.07 390.702 Q2079.48 391.76 2077.86 393.457 Q2076.24 395.154 2074.93 396.359 Q2073.63 397.564 2070.7 400.122 L2065.37 405.311 L2074.44 405.311 Q2078.87 405.311 2079.21 404.918 Q2079.7 404.204 2080.32 400.442 L2081.6 400.442 L2080.17 409.197 L2061.48 409.197 Z" fill="#000000" fill-rule="evenodd" fill-opacity="1" /></svg>
