<?xml version="1.0" encoding="utf-8"?>
<svg xmlns="http://www.w3.org/2000/svg" xmlns:xlink="http://www.w3.org/1999/xlink" width="600" height="400" viewBox="0 0 2400 1600">
<defs>
  <clipPath id="clip560">
    <rect x="0" y="0" width="2400" height="1600"/>
  </clipPath>
</defs>
<path clip-path="url(#clip560)" d="
M0 1600 L2400 1600 L2400 0 L0 0  Z
  " fill="#ffffff" fill-rule="evenodd" fill-opacity="1"/>
<defs>
  <clipPath id="clip561">
    <rect x="480" y="0" width="1681" height="1600"/>
  </clipPath>
</defs>
<path clip-path="url(#clip560)" d="
M188.104 1474.16 L2352.76 1474.16 L2352.76 47.2441 L188.104 47.2441  Z
  " fill="#ffffff" fill-rule="evenodd" fill-opacity="1"/>
<defs>
  <clipPath id="clip562">
    <rect x="188" y="47" width="2166" height="1428"/>
  </clipPath>
</defs>
<polyline clip-path="url(#clip562)" style="stroke:#000000; stroke-linecap:round; stroke-linejoin:round; stroke-width:2; stroke-opacity:0.1; fill:none" points="
  952.544,1474.16 952.544,47.2441 
  "/>
<polyline clip-path="url(#clip562)" style="stroke:#000000; stroke-linecap:round; stroke-linejoin:round; stroke-width:2; stroke-opacity:0.1; fill:none" points="
  2297.36,1474.16 2297.36,47.2441 
  "/>
<polyline clip-path="url(#clip560)" style="stroke:#000000; stroke-linecap:round; stroke-linejoin:round; stroke-width:4; stroke-opacity:1; fill:none" points="
  188.104,1474.16 2352.76,1474.16 
  "/>
<polyline clip-path="url(#clip560)" style="stroke:#000000; stroke-linecap:round; stroke-linejoin:round; stroke-width:4; stroke-opacity:1; fill:none" points="
  952.544,1474.16 952.544,1455.27 
  "/>
<polyline clip-path="url(#clip560)" style="stroke:#000000; stroke-linecap:round; stroke-linejoin:round; stroke-width:4; stroke-opacity:1; fill:none" points="
  2297.36,1474.16 2297.36,1455.27 
  "/>
<path clip-path="url(#clip560)" d="M918.872 1548.29 L926.511 1548.29 L926.511 1521.92 L918.201 1523.59 L918.201 1519.33 L926.465 1517.66 L931.14 1517.66 L931.14 1548.29 L938.779 1548.29 L938.779 1552.22 L918.872 1552.22 L918.872 1548.29 Z" fill="#000000" fill-rule="evenodd" fill-opacity="1" /><path clip-path="url(#clip560)" d="M958.224 1520.74 Q954.613 1520.74 952.784 1524.31 Q950.978 1527.85 950.978 1534.98 Q950.978 1542.09 952.784 1545.65 Q954.613 1549.19 958.224 1549.19 Q961.858 1549.19 963.663 1545.65 Q965.492 1542.09 965.492 1534.98 Q965.492 1527.85 963.663 1524.31 Q961.858 1520.74 958.224 1520.74 M958.224 1517.04 Q964.034 1517.04 967.089 1521.65 Q970.168 1526.23 970.168 1534.98 Q970.168 1543.71 967.089 1548.31 Q964.034 1552.9 958.224 1552.9 Q952.413 1552.9 949.335 1548.31 Q946.279 1543.71 946.279 1534.98 Q946.279 1526.23 949.335 1521.65 Q952.413 1517.04 958.224 1517.04 Z" fill="#000000" fill-rule="evenodd" fill-opacity="1" /><path clip-path="url(#clip560)" d="M970.713 1521.62 L976.92 1521.62 L976.92 1500.19 L970.168 1501.55 L970.168 1498.09 L976.882 1496.73 L980.682 1496.73 L980.682 1521.62 L986.888 1521.62 L986.888 1524.81 L970.713 1524.81 L970.713 1521.62 Z" fill="#000000" fill-rule="evenodd" fill-opacity="1" /><path clip-path="url(#clip560)" d="M2263.13 1548.29 L2270.77 1548.29 L2270.77 1521.92 L2262.46 1523.59 L2262.46 1519.33 L2270.73 1517.66 L2275.4 1517.66 L2275.4 1548.29 L2283.04 1548.29 L2283.04 1552.22 L2263.13 1552.22 L2263.13 1548.29 Z" fill="#000000" fill-rule="evenodd" fill-opacity="1" /><path clip-path="url(#clip560)" d="M2302.49 1520.74 Q2298.88 1520.74 2297.05 1524.31 Q2295.24 1527.85 2295.24 1534.98 Q2295.24 1542.09 2297.05 1545.65 Q2298.88 1549.19 2302.49 1549.19 Q2306.12 1549.19 2307.93 1545.65 Q2309.75 1542.09 2309.75 1534.98 Q2309.75 1527.85 2307.93 1524.31 Q2306.12 1520.74 2302.49 1520.74 M2302.49 1517.04 Q2308.3 1517.04 2311.35 1521.65 Q2314.43 1526.23 2314.43 1534.98 Q2314.43 1543.71 2311.35 1548.31 Q2308.3 1552.9 2302.49 1552.9 Q2296.68 1552.9 2293.6 1548.31 Q2290.54 1543.71 2290.54 1534.98 Q2290.54 1526.23 2293.6 1521.65 Q2296.68 1517.04 2302.49 1517.04 Z" fill="#000000" fill-rule="evenodd" fill-opacity="1" /><path clip-path="url(#clip560)" d="M2319 1521.62 L2332.26 1521.62 L2332.26 1524.81 L2314.43 1524.81 L2314.43 1521.62 Q2316.59 1519.38 2320.32 1515.62 Q2324.06 1511.84 2325.02 1510.75 Q2326.84 1508.7 2327.56 1507.29 Q2328.29 1505.86 2328.29 1504.48 Q2328.29 1502.24 2326.71 1500.83 Q2325.15 1499.42 2322.63 1499.42 Q2320.84 1499.42 2318.85 1500.04 Q2316.88 1500.67 2314.62 1501.93 L2314.62 1498.09 Q2316.91 1497.17 2318.91 1496.7 Q2320.9 1496.23 2322.56 1496.23 Q2326.92 1496.23 2329.51 1498.41 Q2332.11 1500.59 2332.11 1504.24 Q2332.11 1505.97 2331.45 1507.53 Q2330.81 1509.07 2329.1 1511.18 Q2328.63 1511.72 2326.11 1514.34 Q2323.59 1516.93 2319 1521.62 Z" fill="#000000" fill-rule="evenodd" fill-opacity="1" /><polyline clip-path="url(#clip562)" style="stroke:#000000; stroke-linecap:round; stroke-linejoin:round; stroke-width:2; stroke-opacity:0.1; fill:none" points="
  188.104,1176.99 2352.76,1176.99 
  "/>
<polyline clip-path="url(#clip562)" style="stroke:#000000; stroke-linecap:round; stroke-linejoin:round; stroke-width:2; stroke-opacity:0.1; fill:none" points="
  188.104,461.658 2352.76,461.658 
  "/>
<polyline clip-path="url(#clip560)" style="stroke:#000000; stroke-linecap:round; stroke-linejoin:round; stroke-width:4; stroke-opacity:1; fill:none" points="
  188.104,1474.16 188.104,47.2441 
  "/>
<polyline clip-path="url(#clip560)" style="stroke:#000000; stroke-linecap:round; stroke-linejoin:round; stroke-width:4; stroke-opacity:1; fill:none" points="
  188.104,1176.99 207.002,1176.99 
  "/>
<polyline clip-path="url(#clip560)" style="stroke:#000000; stroke-linecap:round; stroke-linejoin:round; stroke-width:4; stroke-opacity:1; fill:none" points="
  188.104,461.658 207.002,461.658 
  "/>
<path clip-path="url(#clip560)" d="M51.9643 1196.78 L59.6032 1196.78 L59.6032 1170.41 L51.2931 1172.08 L51.2931 1167.82 L59.5569 1166.15 L64.2328 1166.15 L64.2328 1196.78 L71.8716 1196.78 L71.8716 1200.71 L51.9643 1200.71 L51.9643 1196.78 Z" fill="#000000" fill-rule="evenodd" fill-opacity="1" /><path clip-path="url(#clip560)" d="M91.316 1169.23 Q87.7049 1169.23 85.8762 1172.8 Q84.0707 1176.34 84.0707 1183.47 Q84.0707 1190.57 85.8762 1194.14 Q87.7049 1197.68 91.316 1197.68 Q94.9502 1197.68 96.7558 1194.14 Q98.5845 1190.57 98.5845 1183.47 Q98.5845 1176.34 96.7558 1172.8 Q94.9502 1169.23 91.316 1169.23 M91.316 1165.53 Q97.1261 1165.53 100.182 1170.13 Q103.26 1174.72 103.26 1183.47 Q103.26 1192.19 100.182 1196.8 Q97.1261 1201.38 91.316 1201.38 Q85.5058 1201.38 82.4271 1196.8 Q79.3716 1192.19 79.3716 1183.47 Q79.3716 1174.72 82.4271 1170.13 Q85.5058 1165.53 91.316 1165.53 Z" fill="#000000" fill-rule="evenodd" fill-opacity="1" /><path clip-path="url(#clip560)" d="M103.26 1159.63 L127.372 1159.63 L127.372 1162.83 L103.26 1162.83 L103.26 1159.63 Z" fill="#000000" fill-rule="evenodd" fill-opacity="1" /><path clip-path="url(#clip560)" d="M138.845 1170.11 L152.104 1170.11 L152.104 1173.3 L134.274 1173.3 L134.274 1170.11 Q136.437 1167.87 140.161 1164.11 Q143.904 1160.33 144.863 1159.23 Q146.688 1157.18 147.402 1155.77 Q148.136 1154.34 148.136 1152.97 Q148.136 1150.73 146.556 1149.32 Q144.995 1147.91 142.475 1147.91 Q140.688 1147.91 138.694 1148.53 Q136.719 1149.15 134.462 1150.41 L134.462 1146.58 Q136.757 1145.66 138.751 1145.19 Q140.744 1144.72 142.399 1144.72 Q146.763 1144.72 149.358 1146.9 Q151.954 1149.08 151.954 1152.73 Q151.954 1154.46 151.295 1156.02 Q150.656 1157.56 148.944 1159.67 Q148.474 1160.21 145.954 1162.83 Q143.434 1165.42 138.845 1170.11 Z" fill="#000000" fill-rule="evenodd" fill-opacity="1" /><path clip-path="url(#clip560)" d="M51.6634 481.451 L59.3023 481.451 L59.3023 455.085 L50.9921 456.752 L50.9921 452.492 L59.256 450.826 L63.9319 450.826 L63.9319 481.451 L71.5707 481.451 L71.5707 485.386 L51.6634 485.386 L51.6634 481.451 Z" fill="#000000" fill-rule="evenodd" fill-opacity="1" /><path clip-path="url(#clip560)" d="M91.0151 453.904 Q87.404 453.904 85.5753 457.469 Q83.7697 461.011 83.7697 468.14 Q83.7697 475.247 85.5753 478.812 Q87.404 482.353 91.0151 482.353 Q94.6493 482.353 96.4548 478.812 Q98.2835 475.247 98.2835 468.14 Q98.2835 461.011 96.4548 457.469 Q94.6493 453.904 91.0151 453.904 M91.0151 450.201 Q96.8252 450.201 99.8808 454.807 Q102.959 459.391 102.959 468.14 Q102.959 476.867 99.8808 481.474 Q96.8252 486.057 91.0151 486.057 Q85.2049 486.057 82.1262 481.474 Q79.0707 476.867 79.0707 468.14 Q79.0707 459.391 82.1262 454.807 Q85.2049 450.201 91.0151 450.201 Z" fill="#000000" fill-rule="evenodd" fill-opacity="1" /><path clip-path="url(#clip560)" d="M102.959 444.302 L127.071 444.302 L127.071 447.499 L102.959 447.499 L102.959 444.302 Z" fill="#000000" fill-rule="evenodd" fill-opacity="1" /><path clip-path="url(#clip560)" d="M135.929 454.778 L142.136 454.778 L142.136 433.356 L135.384 434.71 L135.384 431.25 L142.098 429.895 L145.898 429.895 L145.898 454.778 L152.104 454.778 L152.104 457.975 L135.929 457.975 L135.929 454.778 Z" fill="#000000" fill-rule="evenodd" fill-opacity="1" /><polyline clip-path="url(#clip562)" style="stroke:#009af9; stroke-linecap:round; stroke-linejoin:round; stroke-width:16; stroke-opacity:1; fill:none" points="
  249.368,393.41 744.23,630.541 1008.21,763.388 1189.36,856.137 1327.42,927.466 1439,985.436 1532.65,1034.27 1613.34,1076.46 1684.22,1113.6 1747.42,1146.77 
  1804.44,1176.74 1856.39,1204.07 1904.1,1229.18 1948.2,1252.42 1989.2,1274.04 2027.51,1294.26 2063.46,1313.23 2097.33,1331.12 2129.34,1348.03 2159.69,1364.07 
  2188.54,1379.32 2216.03,1393.85 2242.28,1407.74 2267.4,1421.03 2291.49,1433.78 
  "/>
<line clip-path="url(#clip562)" x1="249.368" y1="393.41" x2="249.368" y2="377.41" style="stroke:#009af9; stroke-width:3.2; stroke-opacity:1"/>
<line clip-path="url(#clip562)" x1="249.368" y1="393.41" x2="233.368" y2="393.41" style="stroke:#009af9; stroke-width:3.2; stroke-opacity:1"/>
<line clip-path="url(#clip562)" x1="249.368" y1="393.41" x2="249.368" y2="409.41" style="stroke:#009af9; stroke-width:3.2; stroke-opacity:1"/>
<line clip-path="url(#clip562)" x1="249.368" y1="393.41" x2="265.368" y2="393.41" style="stroke:#009af9; stroke-width:3.2; stroke-opacity:1"/>
<line clip-path="url(#clip562)" x1="744.23" y1="630.541" x2="744.23" y2="614.541" style="stroke:#009af9; stroke-width:3.2; stroke-opacity:1"/>
<line clip-path="url(#clip562)" x1="744.23" y1="630.541" x2="728.23" y2="630.541" style="stroke:#009af9; stroke-width:3.2; stroke-opacity:1"/>
<line clip-path="url(#clip562)" x1="744.23" y1="630.541" x2="744.23" y2="646.541" style="stroke:#009af9; stroke-width:3.2; stroke-opacity:1"/>
<line clip-path="url(#clip562)" x1="744.23" y1="630.541" x2="760.23" y2="630.541" style="stroke:#009af9; stroke-width:3.2; stroke-opacity:1"/>
<line clip-path="url(#clip562)" x1="1008.21" y1="763.388" x2="1008.21" y2="747.388" style="stroke:#009af9; stroke-width:3.2; stroke-opacity:1"/>
<line clip-path="url(#clip562)" x1="1008.21" y1="763.388" x2="992.21" y2="763.388" style="stroke:#009af9; stroke-width:3.2; stroke-opacity:1"/>
<line clip-path="url(#clip562)" x1="1008.21" y1="763.388" x2="1008.21" y2="779.388" style="stroke:#009af9; stroke-width:3.2; stroke-opacity:1"/>
<line clip-path="url(#clip562)" x1="1008.21" y1="763.388" x2="1024.21" y2="763.388" style="stroke:#009af9; stroke-width:3.2; stroke-opacity:1"/>
<line clip-path="url(#clip562)" x1="1189.36" y1="856.137" x2="1189.36" y2="840.137" style="stroke:#009af9; stroke-width:3.2; stroke-opacity:1"/>
<line clip-path="url(#clip562)" x1="1189.36" y1="856.137" x2="1173.36" y2="856.137" style="stroke:#009af9; stroke-width:3.2; stroke-opacity:1"/>
<line clip-path="url(#clip562)" x1="1189.36" y1="856.137" x2="1189.36" y2="872.137" style="stroke:#009af9; stroke-width:3.2; stroke-opacity:1"/>
<line clip-path="url(#clip562)" x1="1189.36" y1="856.137" x2="1205.36" y2="856.137" style="stroke:#009af9; stroke-width:3.2; stroke-opacity:1"/>
<line clip-path="url(#clip562)" x1="1327.42" y1="927.466" x2="1327.42" y2="911.466" style="stroke:#009af9; stroke-width:3.2; stroke-opacity:1"/>
<line clip-path="url(#clip562)" x1="1327.42" y1="927.466" x2="1311.42" y2="927.466" style="stroke:#009af9; stroke-width:3.2; stroke-opacity:1"/>
<line clip-path="url(#clip562)" x1="1327.42" y1="927.466" x2="1327.42" y2="943.466" style="stroke:#009af9; stroke-width:3.2; stroke-opacity:1"/>
<line clip-path="url(#clip562)" x1="1327.42" y1="927.466" x2="1343.42" y2="927.466" style="stroke:#009af9; stroke-width:3.2; stroke-opacity:1"/>
<line clip-path="url(#clip562)" x1="1439" y1="985.436" x2="1439" y2="969.436" style="stroke:#009af9; stroke-width:3.2; stroke-opacity:1"/>
<line clip-path="url(#clip562)" x1="1439" y1="985.436" x2="1423" y2="985.436" style="stroke:#009af9; stroke-width:3.2; stroke-opacity:1"/>
<line clip-path="url(#clip562)" x1="1439" y1="985.436" x2="1439" y2="1001.44" style="stroke:#009af9; stroke-width:3.2; stroke-opacity:1"/>
<line clip-path="url(#clip562)" x1="1439" y1="985.436" x2="1455" y2="985.436" style="stroke:#009af9; stroke-width:3.2; stroke-opacity:1"/>
<line clip-path="url(#clip562)" x1="1532.65" y1="1034.27" x2="1532.65" y2="1018.27" style="stroke:#009af9; stroke-width:3.2; stroke-opacity:1"/>
<line clip-path="url(#clip562)" x1="1532.65" y1="1034.27" x2="1516.65" y2="1034.27" style="stroke:#009af9; stroke-width:3.2; stroke-opacity:1"/>
<line clip-path="url(#clip562)" x1="1532.65" y1="1034.27" x2="1532.65" y2="1050.27" style="stroke:#009af9; stroke-width:3.2; stroke-opacity:1"/>
<line clip-path="url(#clip562)" x1="1532.65" y1="1034.27" x2="1548.65" y2="1034.27" style="stroke:#009af9; stroke-width:3.2; stroke-opacity:1"/>
<line clip-path="url(#clip562)" x1="1613.34" y1="1076.46" x2="1613.34" y2="1060.46" style="stroke:#009af9; stroke-width:3.2; stroke-opacity:1"/>
<line clip-path="url(#clip562)" x1="1613.34" y1="1076.46" x2="1597.34" y2="1076.46" style="stroke:#009af9; stroke-width:3.2; stroke-opacity:1"/>
<line clip-path="url(#clip562)" x1="1613.34" y1="1076.46" x2="1613.34" y2="1092.46" style="stroke:#009af9; stroke-width:3.2; stroke-opacity:1"/>
<line clip-path="url(#clip562)" x1="1613.34" y1="1076.46" x2="1629.34" y2="1076.46" style="stroke:#009af9; stroke-width:3.2; stroke-opacity:1"/>
<line clip-path="url(#clip562)" x1="1684.22" y1="1113.6" x2="1684.22" y2="1097.6" style="stroke:#009af9; stroke-width:3.2; stroke-opacity:1"/>
<line clip-path="url(#clip562)" x1="1684.22" y1="1113.6" x2="1668.22" y2="1113.6" style="stroke:#009af9; stroke-width:3.2; stroke-opacity:1"/>
<line clip-path="url(#clip562)" x1="1684.22" y1="1113.6" x2="1684.22" y2="1129.6" style="stroke:#009af9; stroke-width:3.2; stroke-opacity:1"/>
<line clip-path="url(#clip562)" x1="1684.22" y1="1113.6" x2="1700.22" y2="1113.6" style="stroke:#009af9; stroke-width:3.2; stroke-opacity:1"/>
<line clip-path="url(#clip562)" x1="1747.42" y1="1146.77" x2="1747.42" y2="1130.77" style="stroke:#009af9; stroke-width:3.2; stroke-opacity:1"/>
<line clip-path="url(#clip562)" x1="1747.42" y1="1146.77" x2="1731.42" y2="1146.77" style="stroke:#009af9; stroke-width:3.2; stroke-opacity:1"/>
<line clip-path="url(#clip562)" x1="1747.42" y1="1146.77" x2="1747.42" y2="1162.77" style="stroke:#009af9; stroke-width:3.2; stroke-opacity:1"/>
<line clip-path="url(#clip562)" x1="1747.42" y1="1146.77" x2="1763.42" y2="1146.77" style="stroke:#009af9; stroke-width:3.2; stroke-opacity:1"/>
<line clip-path="url(#clip562)" x1="1804.44" y1="1176.74" x2="1804.44" y2="1160.74" style="stroke:#009af9; stroke-width:3.2; stroke-opacity:1"/>
<line clip-path="url(#clip562)" x1="1804.44" y1="1176.74" x2="1788.44" y2="1176.74" style="stroke:#009af9; stroke-width:3.2; stroke-opacity:1"/>
<line clip-path="url(#clip562)" x1="1804.44" y1="1176.74" x2="1804.44" y2="1192.74" style="stroke:#009af9; stroke-width:3.2; stroke-opacity:1"/>
<line clip-path="url(#clip562)" x1="1804.44" y1="1176.74" x2="1820.44" y2="1176.74" style="stroke:#009af9; stroke-width:3.2; stroke-opacity:1"/>
<line clip-path="url(#clip562)" x1="1856.39" y1="1204.07" x2="1856.39" y2="1188.07" style="stroke:#009af9; stroke-width:3.2; stroke-opacity:1"/>
<line clip-path="url(#clip562)" x1="1856.39" y1="1204.07" x2="1840.39" y2="1204.07" style="stroke:#009af9; stroke-width:3.2; stroke-opacity:1"/>
<line clip-path="url(#clip562)" x1="1856.39" y1="1204.07" x2="1856.39" y2="1220.07" style="stroke:#009af9; stroke-width:3.2; stroke-opacity:1"/>
<line clip-path="url(#clip562)" x1="1856.39" y1="1204.07" x2="1872.39" y2="1204.07" style="stroke:#009af9; stroke-width:3.2; stroke-opacity:1"/>
<line clip-path="url(#clip562)" x1="1904.1" y1="1229.18" x2="1904.1" y2="1213.18" style="stroke:#009af9; stroke-width:3.2; stroke-opacity:1"/>
<line clip-path="url(#clip562)" x1="1904.1" y1="1229.18" x2="1888.1" y2="1229.18" style="stroke:#009af9; stroke-width:3.2; stroke-opacity:1"/>
<line clip-path="url(#clip562)" x1="1904.1" y1="1229.18" x2="1904.1" y2="1245.18" style="stroke:#009af9; stroke-width:3.2; stroke-opacity:1"/>
<line clip-path="url(#clip562)" x1="1904.1" y1="1229.18" x2="1920.1" y2="1229.18" style="stroke:#009af9; stroke-width:3.2; stroke-opacity:1"/>
<line clip-path="url(#clip562)" x1="1948.2" y1="1252.42" x2="1948.2" y2="1236.42" style="stroke:#009af9; stroke-width:3.2; stroke-opacity:1"/>
<line clip-path="url(#clip562)" x1="1948.2" y1="1252.42" x2="1932.2" y2="1252.42" style="stroke:#009af9; stroke-width:3.2; stroke-opacity:1"/>
<line clip-path="url(#clip562)" x1="1948.2" y1="1252.42" x2="1948.2" y2="1268.42" style="stroke:#009af9; stroke-width:3.2; stroke-opacity:1"/>
<line clip-path="url(#clip562)" x1="1948.2" y1="1252.42" x2="1964.2" y2="1252.42" style="stroke:#009af9; stroke-width:3.2; stroke-opacity:1"/>
<line clip-path="url(#clip562)" x1="1989.2" y1="1274.04" x2="1989.2" y2="1258.04" style="stroke:#009af9; stroke-width:3.2; stroke-opacity:1"/>
<line clip-path="url(#clip562)" x1="1989.2" y1="1274.04" x2="1973.2" y2="1274.04" style="stroke:#009af9; stroke-width:3.2; stroke-opacity:1"/>
<line clip-path="url(#clip562)" x1="1989.2" y1="1274.04" x2="1989.2" y2="1290.04" style="stroke:#009af9; stroke-width:3.2; stroke-opacity:1"/>
<line clip-path="url(#clip562)" x1="1989.2" y1="1274.04" x2="2005.2" y2="1274.04" style="stroke:#009af9; stroke-width:3.2; stroke-opacity:1"/>
<line clip-path="url(#clip562)" x1="2027.51" y1="1294.26" x2="2027.51" y2="1278.26" style="stroke:#009af9; stroke-width:3.2; stroke-opacity:1"/>
<line clip-path="url(#clip562)" x1="2027.51" y1="1294.26" x2="2011.51" y2="1294.26" style="stroke:#009af9; stroke-width:3.2; stroke-opacity:1"/>
<line clip-path="url(#clip562)" x1="2027.51" y1="1294.26" x2="2027.51" y2="1310.26" style="stroke:#009af9; stroke-width:3.2; stroke-opacity:1"/>
<line clip-path="url(#clip562)" x1="2027.51" y1="1294.26" x2="2043.51" y2="1294.26" style="stroke:#009af9; stroke-width:3.2; stroke-opacity:1"/>
<line clip-path="url(#clip562)" x1="2063.46" y1="1313.23" x2="2063.46" y2="1297.23" style="stroke:#009af9; stroke-width:3.2; stroke-opacity:1"/>
<line clip-path="url(#clip562)" x1="2063.46" y1="1313.23" x2="2047.46" y2="1313.23" style="stroke:#009af9; stroke-width:3.2; stroke-opacity:1"/>
<line clip-path="url(#clip562)" x1="2063.46" y1="1313.23" x2="2063.46" y2="1329.23" style="stroke:#009af9; stroke-width:3.2; stroke-opacity:1"/>
<line clip-path="url(#clip562)" x1="2063.46" y1="1313.23" x2="2079.46" y2="1313.23" style="stroke:#009af9; stroke-width:3.2; stroke-opacity:1"/>
<line clip-path="url(#clip562)" x1="2097.33" y1="1331.12" x2="2097.33" y2="1315.12" style="stroke:#009af9; stroke-width:3.2; stroke-opacity:1"/>
<line clip-path="url(#clip562)" x1="2097.33" y1="1331.12" x2="2081.33" y2="1331.12" style="stroke:#009af9; stroke-width:3.2; stroke-opacity:1"/>
<line clip-path="url(#clip562)" x1="2097.33" y1="1331.12" x2="2097.33" y2="1347.12" style="stroke:#009af9; stroke-width:3.2; stroke-opacity:1"/>
<line clip-path="url(#clip562)" x1="2097.33" y1="1331.12" x2="2113.33" y2="1331.12" style="stroke:#009af9; stroke-width:3.2; stroke-opacity:1"/>
<line clip-path="url(#clip562)" x1="2129.34" y1="1348.03" x2="2129.34" y2="1332.03" style="stroke:#009af9; stroke-width:3.2; stroke-opacity:1"/>
<line clip-path="url(#clip562)" x1="2129.34" y1="1348.03" x2="2113.34" y2="1348.03" style="stroke:#009af9; stroke-width:3.2; stroke-opacity:1"/>
<line clip-path="url(#clip562)" x1="2129.34" y1="1348.03" x2="2129.34" y2="1364.03" style="stroke:#009af9; stroke-width:3.2; stroke-opacity:1"/>
<line clip-path="url(#clip562)" x1="2129.34" y1="1348.03" x2="2145.34" y2="1348.03" style="stroke:#009af9; stroke-width:3.2; stroke-opacity:1"/>
<line clip-path="url(#clip562)" x1="2159.69" y1="1364.07" x2="2159.69" y2="1348.07" style="stroke:#009af9; stroke-width:3.2; stroke-opacity:1"/>
<line clip-path="url(#clip562)" x1="2159.69" y1="1364.07" x2="2143.69" y2="1364.07" style="stroke:#009af9; stroke-width:3.2; stroke-opacity:1"/>
<line clip-path="url(#clip562)" x1="2159.69" y1="1364.07" x2="2159.69" y2="1380.07" style="stroke:#009af9; stroke-width:3.2; stroke-opacity:1"/>
<line clip-path="url(#clip562)" x1="2159.69" y1="1364.07" x2="2175.69" y2="1364.07" style="stroke:#009af9; stroke-width:3.2; stroke-opacity:1"/>
<line clip-path="url(#clip562)" x1="2188.54" y1="1379.32" x2="2188.54" y2="1363.32" style="stroke:#009af9; stroke-width:3.2; stroke-opacity:1"/>
<line clip-path="url(#clip562)" x1="2188.54" y1="1379.32" x2="2172.54" y2="1379.32" style="stroke:#009af9; stroke-width:3.2; stroke-opacity:1"/>
<line clip-path="url(#clip562)" x1="2188.54" y1="1379.32" x2="2188.54" y2="1395.32" style="stroke:#009af9; stroke-width:3.2; stroke-opacity:1"/>
<line clip-path="url(#clip562)" x1="2188.54" y1="1379.32" x2="2204.54" y2="1379.32" style="stroke:#009af9; stroke-width:3.2; stroke-opacity:1"/>
<line clip-path="url(#clip562)" x1="2216.03" y1="1393.85" x2="2216.03" y2="1377.85" style="stroke:#009af9; stroke-width:3.2; stroke-opacity:1"/>
<line clip-path="url(#clip562)" x1="2216.03" y1="1393.85" x2="2200.03" y2="1393.85" style="stroke:#009af9; stroke-width:3.2; stroke-opacity:1"/>
<line clip-path="url(#clip562)" x1="2216.03" y1="1393.85" x2="2216.03" y2="1409.85" style="stroke:#009af9; stroke-width:3.2; stroke-opacity:1"/>
<line clip-path="url(#clip562)" x1="2216.03" y1="1393.85" x2="2232.03" y2="1393.85" style="stroke:#009af9; stroke-width:3.2; stroke-opacity:1"/>
<line clip-path="url(#clip562)" x1="2242.28" y1="1407.74" x2="2242.28" y2="1391.74" style="stroke:#009af9; stroke-width:3.2; stroke-opacity:1"/>
<line clip-path="url(#clip562)" x1="2242.28" y1="1407.74" x2="2226.28" y2="1407.74" style="stroke:#009af9; stroke-width:3.2; stroke-opacity:1"/>
<line clip-path="url(#clip562)" x1="2242.28" y1="1407.74" x2="2242.28" y2="1423.74" style="stroke:#009af9; stroke-width:3.2; stroke-opacity:1"/>
<line clip-path="url(#clip562)" x1="2242.28" y1="1407.74" x2="2258.28" y2="1407.74" style="stroke:#009af9; stroke-width:3.2; stroke-opacity:1"/>
<line clip-path="url(#clip562)" x1="2267.4" y1="1421.03" x2="2267.4" y2="1405.03" style="stroke:#009af9; stroke-width:3.2; stroke-opacity:1"/>
<line clip-path="url(#clip562)" x1="2267.4" y1="1421.03" x2="2251.4" y2="1421.03" style="stroke:#009af9; stroke-width:3.2; stroke-opacity:1"/>
<line clip-path="url(#clip562)" x1="2267.4" y1="1421.03" x2="2267.4" y2="1437.03" style="stroke:#009af9; stroke-width:3.2; stroke-opacity:1"/>
<line clip-path="url(#clip562)" x1="2267.4" y1="1421.03" x2="2283.4" y2="1421.03" style="stroke:#009af9; stroke-width:3.2; stroke-opacity:1"/>
<line clip-path="url(#clip562)" x1="2291.49" y1="1433.78" x2="2291.49" y2="1417.78" style="stroke:#009af9; stroke-width:3.2; stroke-opacity:1"/>
<line clip-path="url(#clip562)" x1="2291.49" y1="1433.78" x2="2275.49" y2="1433.78" style="stroke:#009af9; stroke-width:3.2; stroke-opacity:1"/>
<line clip-path="url(#clip562)" x1="2291.49" y1="1433.78" x2="2291.49" y2="1449.78" style="stroke:#009af9; stroke-width:3.2; stroke-opacity:1"/>
<line clip-path="url(#clip562)" x1="2291.49" y1="1433.78" x2="2307.49" y2="1433.78" style="stroke:#009af9; stroke-width:3.2; stroke-opacity:1"/>
<polyline clip-path="url(#clip562)" style="stroke:#e26f46; stroke-linecap:round; stroke-linejoin:round; stroke-width:16; stroke-opacity:1; fill:none" points="
  249.368,87.6286 264.383,95.6154 279.022,103.402 293.303,110.998 307.243,118.413 320.858,125.655 334.163,132.732 340.703,136.211 347.171,139.652 353.568,143.054 
  359.896,146.42 374.266,154.064 388.292,161.524 401.988,168.809 415.371,175.928 428.453,182.887 441.249,189.693 453.771,196.354 466.03,202.874 489.802,215.519 
  512.644,227.669 534.626,239.361 555.811,250.63 576.254,261.504 596.006,272.01 615.111,282.173 633.611,292.013 651.544,301.552 668.942,310.806 685.836,319.792 
  702.256,328.526 718.227,337.021 733.772,345.29 748.915,353.345 763.674,361.196 792.12,376.326 819.244,390.754 845.165,404.541 869.983,417.743 893.79,430.406 
  916.664,442.573 943.022,456.593 968.242,470.008 992.417,482.867 1015.63,495.215 1037.96,507.091 1059.46,518.53 1080.2,529.562 1100.23,540.216 1132.61,557.44 
  1163.29,573.759 1192.44,589.263 1220.2,604.03 1248.94,619.314 1276.32,633.881 1302.48,647.795 1327.52,661.113 1371.05,684.265 1411.55,705.811 1452.07,727.362 
  1489.96,747.515 1530.98,769.338 1569.32,789.728 1631.8,822.962 1681.58,849.44 1731.41,875.948 1777.59,900.51 1824.72,925.582 1866.29,947.694 1906.59,969.129 
  1938.48,986.093 1975.2,1005.62 2006.92,1022.49 2034.76,1037.3 2061.67,1051.62 2090.42,1066.91 2115.31,1080.15 2142.56,1094.64 2166.71,1107.49 2189.57,1119.65 
  2210.95,1131.02 2232.08,1142.26 2254.38,1154.12 2285.34,1170.59 2291.49,1173.86 
  "/>
<path clip-path="url(#clip560)" d="
M1961.44 328.088 L2280.6 328.088 L2280.6 94.8081 L1961.44 94.8081  Z
  " fill="#ffffff" fill-rule="evenodd" fill-opacity="1"/>
<polyline clip-path="url(#clip560)" style="stroke:#000000; stroke-linecap:round; stroke-linejoin:round; stroke-width:4; stroke-opacity:1; fill:none" points="
  1961.44,328.088 2280.6,328.088 2280.6,94.8081 1961.44,94.8081 1961.44,328.088 
  "/>
<polyline clip-path="url(#clip560)" style="stroke:#009af9; stroke-linecap:round; stroke-linejoin:round; stroke-width:6; stroke-opacity:1; fill:none" points="
  1985.49,172.568 2129.8,172.568 
  "/>
<line clip-path="url(#clip560)" x1="2057.65" y1="172.568" x2="2057.65" y2="157.721" style="stroke:#009af9; stroke-width:7.68; stroke-opacity:1"/>
<line clip-path="url(#clip560)" x1="2057.65" y1="172.568" x2="2042.8" y2="172.568" style="stroke:#009af9; stroke-width:7.68; stroke-opacity:1"/>
<line clip-path="url(#clip560)" x1="2057.65" y1="172.568" x2="2057.65" y2="187.415" style="stroke:#009af9; stroke-width:7.68; stroke-opacity:1"/>
<line clip-path="url(#clip560)" x1="2057.65" y1="172.568" x2="2072.49" y2="172.568" style="stroke:#009af9; stroke-width:7.68; stroke-opacity:1"/>
<path clip-path="url(#clip560)" d="M2174.62 202.099 Q2171.91 209.044 2169.34 211.162 Q2166.77 213.28 2162.46 213.28 L2157.36 213.28 L2157.36 207.933 L2161.11 207.933 Q2163.75 207.933 2165.21 206.683 Q2166.66 205.433 2168.44 200.78 L2169.58 197.863 L2153.85 159.599 L2160.62 159.599 L2172.78 190.016 L2184.93 159.599 L2191.7 159.599 L2174.62 202.099 Z" fill="#000000" fill-rule="evenodd" fill-opacity="1" /><path clip-path="url(#clip560)" d="M2202.64 192.585 L2214.09 192.585 L2214.09 153.037 L2201.63 155.537 L2201.63 149.148 L2214.03 146.648 L2221.04 146.648 L2221.04 192.585 L2232.5 192.585 L2232.5 198.488 L2202.64 198.488 L2202.64 192.585 Z" fill="#000000" fill-rule="evenodd" fill-opacity="1" /><polyline clip-path="url(#clip560)" style="stroke:#e26f46; stroke-linecap:round; stroke-linejoin:round; stroke-width:6; stroke-opacity:1; fill:none" points="
  1985.49,250.328 2129.8,250.328 
  "/>
<path clip-path="url(#clip560)" d="M2174.62 279.859 Q2171.91 286.804 2169.34 288.922 Q2166.77 291.04 2162.46 291.04 L2157.36 291.04 L2157.36 285.693 L2161.11 285.693 Q2163.75 285.693 2165.21 284.443 Q2166.66 283.193 2168.44 278.54 L2169.58 275.623 L2153.85 237.359 L2160.62 237.359 L2172.78 267.776 L2184.93 237.359 L2191.7 237.359 L2174.62 279.859 Z" fill="#000000" fill-rule="evenodd" fill-opacity="1" /><path clip-path="url(#clip560)" d="M2207.46 270.345 L2231.94 270.345 L2231.94 276.248 L2199.03 276.248 L2199.03 270.345 Q2203.02 266.213 2209.89 259.269 Q2216.8 252.29 2218.57 250.276 Q2221.94 246.491 2223.26 243.887 Q2224.62 241.248 2224.62 238.714 Q2224.62 234.582 2221.7 231.978 Q2218.82 229.373 2214.16 229.373 Q2210.87 229.373 2207.19 230.519 Q2203.54 231.665 2199.37 233.991 L2199.37 226.908 Q2203.61 225.207 2207.29 224.339 Q2210.97 223.471 2214.03 223.471 Q2222.08 223.471 2226.87 227.498 Q2231.66 231.526 2231.66 238.262 Q2231.66 241.457 2230.45 244.339 Q2229.27 247.186 2226.11 251.075 Q2225.24 252.082 2220.59 256.908 Q2215.94 261.7 2207.46 270.345 Z" fill="#000000" fill-rule="evenodd" fill-opacity="1" /></svg>
