<?xml version="1.0" encoding="utf-8"?>
<svg xmlns="http://www.w3.org/2000/svg" xmlns:xlink="http://www.w3.org/1999/xlink" width="600" height="400" viewBox="0 0 2400 1600">
<defs>
  <clipPath id="clip900">
    <rect x="0" y="0" width="2400" height="1600"/>
  </clipPath>
</defs>
<path clip-path="url(#clip900)" d="
M0 1600 L2400 1600 L2400 0 L0 0  Z
  " fill="#ffffff" fill-rule="evenodd" fill-opacity="1"/>
<defs>
  <clipPath id="clip901">
    <rect x="480" y="0" width="1681" height="1600"/>
  </clipPath>
</defs>
<path clip-path="url(#clip900)" d="
M509.646 1450.74 L2352.76 1450.74 L2352.76 47.2441 L509.646 47.2441  Z
  " fill="#ffffff" fill-rule="evenodd" fill-opacity="1"/>
<defs>
  <clipPath id="clip902">
    <rect x="509" y="47" width="1844" height="1404"/>
  </clipPath>
</defs>
<polyline clip-path="url(#clip902)" style="stroke:#000000; stroke-linecap:round; stroke-linejoin:round; stroke-width:2; stroke-opacity:0.1; fill:none" points="
  509.646,1450.74 509.646,47.2441 
  "/>
<polyline clip-path="url(#clip902)" style="stroke:#000000; stroke-linecap:round; stroke-linejoin:round; stroke-width:2; stroke-opacity:0.1; fill:none" points="
  970.424,1450.74 970.424,47.2441 
  "/>
<polyline clip-path="url(#clip902)" style="stroke:#000000; stroke-linecap:round; stroke-linejoin:round; stroke-width:2; stroke-opacity:0.1; fill:none" points="
  1431.2,1450.74 1431.2,47.2441 
  "/>
<polyline clip-path="url(#clip902)" style="stroke:#000000; stroke-linecap:round; stroke-linejoin:round; stroke-width:2; stroke-opacity:0.1; fill:none" points="
  1891.98,1450.74 1891.98,47.2441 
  "/>
<polyline clip-path="url(#clip902)" style="stroke:#000000; stroke-linecap:round; stroke-linejoin:round; stroke-width:2; stroke-opacity:0.1; fill:none" points="
  2352.76,1450.74 2352.76,47.2441 
  "/>
<polyline clip-path="url(#clip900)" style="stroke:#000000; stroke-linecap:round; stroke-linejoin:round; stroke-width:4; stroke-opacity:1; fill:none" points="
  509.646,1450.74 2352.76,1450.74 
  "/>
<polyline clip-path="url(#clip900)" style="stroke:#000000; stroke-linecap:round; stroke-linejoin:round; stroke-width:4; stroke-opacity:1; fill:none" points="
  509.646,1450.74 509.646,1431.85 
  "/>
<polyline clip-path="url(#clip900)" style="stroke:#000000; stroke-linecap:round; stroke-linejoin:round; stroke-width:4; stroke-opacity:1; fill:none" points="
  970.424,1450.74 970.424,1431.85 
  "/>
<polyline clip-path="url(#clip900)" style="stroke:#000000; stroke-linecap:round; stroke-linejoin:round; stroke-width:4; stroke-opacity:1; fill:none" points="
  1431.2,1450.74 1431.2,1431.85 
  "/>
<polyline clip-path="url(#clip900)" style="stroke:#000000; stroke-linecap:round; stroke-linejoin:round; stroke-width:4; stroke-opacity:1; fill:none" points="
  1891.98,1450.74 1891.98,1431.85 
  "/>
<polyline clip-path="url(#clip900)" style="stroke:#000000; stroke-linecap:round; stroke-linejoin:round; stroke-width:4; stroke-opacity:1; fill:none" points="
  2352.76,1450.74 2352.76,1431.85 
  "/>
<path clip-path="url(#clip900)" d="M299.024 1532.99 L343.538 1532.99 L343.538 1538.89 L299.024 1538.89 L299.024 1532.99 Z" fill="#000000" fill-rule="evenodd" fill-opacity="1" /><path clip-path="url(#clip900)" d="M359.892 1552.33 L371.35 1552.33 L371.35 1512.78 L358.885 1515.28 L358.885 1508.89 L371.281 1506.39 L378.295 1506.39 L378.295 1552.33 L389.753 1552.33 L389.753 1558.23 L359.892 1558.23 L359.892 1552.33 Z" fill="#000000" fill-rule="evenodd" fill-opacity="1" /><path clip-path="url(#clip900)" d="M403.92 1549.41 L411.246 1549.41 L411.246 1558.23 L403.92 1558.23 L403.92 1549.41 Z" fill="#000000" fill-rule="evenodd" fill-opacity="1" /><path clip-path="url(#clip900)" d="M441.524 1511.01 Q436.107 1511.01 433.364 1516.36 Q430.656 1521.67 430.656 1532.37 Q430.656 1543.02 433.364 1548.37 Q436.107 1553.68 441.524 1553.68 Q446.975 1553.68 449.683 1548.37 Q452.426 1543.02 452.426 1532.37 Q452.426 1521.67 449.683 1516.36 Q446.975 1511.01 441.524 1511.01 M441.524 1505.46 Q450.239 1505.46 454.822 1512.37 Q459.44 1519.24 459.44 1532.37 Q459.44 1545.46 454.822 1552.37 Q450.239 1559.24 441.524 1559.24 Q432.808 1559.24 428.19 1552.37 Q423.607 1545.46 423.607 1532.37 Q423.607 1519.24 428.19 1512.37 Q432.808 1505.46 441.524 1505.46 Z" fill="#000000" fill-rule="evenodd" fill-opacity="1" /><path clip-path="url(#clip900)" d="M514.023 1520.04 L498.155 1535.98 L514.023 1551.84 L509.891 1556.05 L493.954 1540.11 L478.017 1556.05 L473.919 1551.84 L489.753 1535.98 L473.919 1520.04 L478.017 1515.84 L493.954 1531.77 L509.891 1515.84 L514.023 1520.04 Z" fill="#000000" fill-rule="evenodd" fill-opacity="1" /><path clip-path="url(#clip900)" d="M532.565 1552.33 L544.023 1552.33 L544.023 1512.78 L531.558 1515.28 L531.558 1508.89 L543.954 1506.39 L550.968 1506.39 L550.968 1552.33 L562.426 1552.33 L562.426 1558.23 L532.565 1558.23 L532.565 1552.33 Z" fill="#000000" fill-rule="evenodd" fill-opacity="1" /><path clip-path="url(#clip900)" d="M591.592 1511.01 Q586.176 1511.01 583.433 1516.36 Q580.724 1521.67 580.724 1532.37 Q580.724 1543.02 583.433 1548.37 Q586.176 1553.68 591.592 1553.68 Q597.044 1553.68 599.752 1548.37 Q602.495 1543.02 602.495 1532.37 Q602.495 1521.67 599.752 1516.36 Q597.044 1511.01 591.592 1511.01 M591.592 1505.46 Q600.308 1505.46 604.891 1512.37 Q609.509 1519.24 609.509 1532.37 Q609.509 1545.46 604.891 1552.37 Q600.308 1559.24 591.592 1559.24 Q582.877 1559.24 578.259 1552.37 Q573.676 1545.46 573.676 1532.37 Q573.676 1519.24 578.259 1512.37 Q582.877 1505.46 591.592 1505.46 Z" fill="#000000" fill-rule="evenodd" fill-opacity="1" /><path clip-path="url(#clip900)" d="M609.509 1496.61 L645.676 1496.61 L645.676 1501.4 L609.509 1501.4 L609.509 1496.61 Z" fill="#000000" fill-rule="evenodd" fill-opacity="1" /><path clip-path="url(#clip900)" d="M658.964 1512.32 L668.274 1512.32 L668.274 1480.19 L658.146 1482.22 L658.146 1477.03 L668.217 1475 L673.916 1475 L673.916 1512.32 L683.226 1512.32 L683.226 1517.12 L658.964 1517.12 L658.964 1512.32 Z" fill="#000000" fill-rule="evenodd" fill-opacity="1" /><path clip-path="url(#clip900)" d="M694.793 1475 L717.165 1475 L717.165 1479.79 L700.012 1479.79 L700.012 1490.12 Q701.253 1489.7 702.494 1489.5 Q703.736 1489.27 704.977 1489.27 Q712.03 1489.27 716.149 1493.14 Q720.268 1497 720.268 1503.6 Q720.268 1510.4 716.036 1514.18 Q711.804 1517.94 704.103 1517.94 Q701.451 1517.94 698.686 1517.48 Q695.949 1517.03 693.015 1516.13 L693.015 1510.4 Q695.554 1511.79 698.263 1512.46 Q700.971 1513.14 703.99 1513.14 Q708.87 1513.14 711.72 1510.57 Q714.569 1508.01 714.569 1503.6 Q714.569 1499.2 711.72 1496.64 Q708.87 1494.07 703.99 1494.07 Q701.705 1494.07 699.419 1494.58 Q697.162 1495.08 694.793 1496.16 L694.793 1475 Z" fill="#000000" fill-rule="evenodd" fill-opacity="1" /><path clip-path="url(#clip900)" d="M759.097 1532.99 L803.61 1532.99 L803.61 1538.89 L759.097 1538.89 L759.097 1532.99 Z" fill="#000000" fill-rule="evenodd" fill-opacity="1" /><path clip-path="url(#clip900)" d="M818.818 1506.39 L846.353 1506.39 L846.353 1512.3 L825.242 1512.3 L825.242 1525 Q826.77 1524.48 828.298 1524.24 Q829.825 1523.96 831.353 1523.96 Q840.034 1523.96 845.103 1528.72 Q850.172 1533.48 850.172 1541.6 Q850.172 1549.97 844.964 1554.62 Q839.756 1559.24 830.277 1559.24 Q827.013 1559.24 823.61 1558.68 Q820.242 1558.13 816.631 1557.02 L816.631 1549.97 Q819.756 1551.67 823.089 1552.5 Q826.423 1553.34 830.138 1553.34 Q836.145 1553.34 839.652 1550.18 Q843.159 1547.02 843.159 1541.6 Q843.159 1536.18 839.652 1533.02 Q836.145 1529.87 830.138 1529.87 Q827.325 1529.87 824.513 1530.49 Q821.735 1531.12 818.818 1532.43 L818.818 1506.39 Z" fill="#000000" fill-rule="evenodd" fill-opacity="1" /><path clip-path="url(#clip900)" d="M863.992 1549.41 L871.318 1549.41 L871.318 1558.23 L863.992 1558.23 L863.992 1549.41 Z" fill="#000000" fill-rule="evenodd" fill-opacity="1" /><path clip-path="url(#clip900)" d="M901.596 1511.01 Q896.179 1511.01 893.436 1516.36 Q890.728 1521.67 890.728 1532.37 Q890.728 1543.02 893.436 1548.37 Q896.179 1553.68 901.596 1553.68 Q907.047 1553.68 909.755 1548.37 Q912.499 1543.02 912.499 1532.37 Q912.499 1521.67 909.755 1516.36 Q907.047 1511.01 901.596 1511.01 M901.596 1505.46 Q910.311 1505.46 914.894 1512.37 Q919.512 1519.24 919.512 1532.37 Q919.512 1545.46 914.894 1552.37 Q910.311 1559.24 901.596 1559.24 Q892.881 1559.24 888.263 1552.37 Q883.679 1545.46 883.679 1532.37 Q883.679 1519.24 888.263 1512.37 Q892.881 1505.46 901.596 1505.46 Z" fill="#000000" fill-rule="evenodd" fill-opacity="1" /><path clip-path="url(#clip900)" d="M974.095 1520.04 L958.227 1535.98 L974.095 1551.84 L969.963 1556.05 L954.026 1540.11 L938.089 1556.05 L933.991 1551.84 L949.825 1535.98 L933.991 1520.04 L938.089 1515.84 L954.026 1531.77 L969.963 1515.84 L974.095 1520.04 Z" fill="#000000" fill-rule="evenodd" fill-opacity="1" /><path clip-path="url(#clip900)" d="M992.637 1552.33 L1004.1 1552.33 L1004.1 1512.78 L991.63 1515.28 L991.63 1508.89 L1004.03 1506.39 L1011.04 1506.39 L1011.04 1552.33 L1022.5 1552.33 L1022.5 1558.23 L992.637 1558.23 L992.637 1552.33 Z" fill="#000000" fill-rule="evenodd" fill-opacity="1" /><path clip-path="url(#clip900)" d="M1051.66 1511.01 Q1046.25 1511.01 1043.5 1516.36 Q1040.8 1521.67 1040.8 1532.37 Q1040.8 1543.02 1043.5 1548.37 Q1046.25 1553.68 1051.66 1553.68 Q1057.12 1553.68 1059.82 1548.37 Q1062.57 1543.02 1062.57 1532.37 Q1062.57 1521.67 1059.82 1516.36 Q1057.12 1511.01 1051.66 1511.01 M1051.66 1505.46 Q1060.38 1505.46 1064.96 1512.37 Q1069.58 1519.24 1069.58 1532.37 Q1069.58 1545.46 1064.96 1552.37 Q1060.38 1559.24 1051.66 1559.24 Q1042.95 1559.24 1038.33 1552.37 Q1033.75 1545.46 1033.75 1532.37 Q1033.75 1519.24 1038.33 1512.37 Q1042.95 1505.46 1051.66 1505.46 Z" fill="#000000" fill-rule="evenodd" fill-opacity="1" /><path clip-path="url(#clip900)" d="M1069.58 1496.61 L1105.75 1496.61 L1105.75 1501.4 L1069.58 1501.4 L1069.58 1496.61 Z" fill="#000000" fill-rule="evenodd" fill-opacity="1" /><path clip-path="url(#clip900)" d="M1119.04 1512.32 L1128.35 1512.32 L1128.35 1480.19 L1118.22 1482.22 L1118.22 1477.03 L1128.29 1475 L1133.99 1475 L1133.99 1512.32 L1143.3 1512.32 L1143.3 1517.12 L1119.04 1517.12 L1119.04 1512.32 Z" fill="#000000" fill-rule="evenodd" fill-opacity="1" /><path clip-path="url(#clip900)" d="M1167.7 1493.79 Q1163.86 1493.79 1161.61 1496.41 Q1159.38 1499.03 1159.38 1503.6 Q1159.38 1508.15 1161.61 1510.8 Q1163.86 1513.42 1167.7 1513.42 Q1171.54 1513.42 1173.77 1510.8 Q1176.02 1508.15 1176.02 1503.6 Q1176.02 1499.03 1173.77 1496.41 Q1171.54 1493.79 1167.7 1493.79 M1179.01 1475.93 L1179.01 1481.12 Q1176.87 1480.1 1174.67 1479.57 Q1172.5 1479.03 1170.35 1479.03 Q1164.71 1479.03 1161.72 1482.84 Q1158.76 1486.65 1158.33 1494.35 Q1160 1491.9 1162.51 1490.6 Q1165.02 1489.27 1168.04 1489.27 Q1174.39 1489.27 1178.05 1493.14 Q1181.75 1496.97 1181.75 1503.6 Q1181.75 1510.09 1177.91 1514.01 Q1174.08 1517.94 1167.7 1517.94 Q1160.39 1517.94 1156.53 1512.35 Q1152.66 1506.74 1152.66 1496.1 Q1152.66 1486.11 1157.4 1480.19 Q1162.14 1474.24 1170.13 1474.24 Q1172.27 1474.24 1174.44 1474.66 Q1176.64 1475.08 1179.01 1475.93 Z" fill="#000000" fill-rule="evenodd" fill-opacity="1" /><path clip-path="url(#clip900)" d="M1431.2 1487.52 Q1425.78 1487.52 1423.04 1492.87 Q1420.33 1498.18 1420.33 1508.88 Q1420.33 1519.53 1423.04 1524.88 Q1425.78 1530.19 1431.2 1530.19 Q1436.65 1530.19 1439.36 1524.88 Q1442.1 1519.53 1442.1 1508.88 Q1442.1 1498.18 1439.36 1492.87 Q1436.65 1487.52 1431.2 1487.52 M1431.2 1481.97 Q1439.92 1481.97 1444.5 1488.88 Q1449.12 1495.75 1449.12 1508.88 Q1449.12 1521.97 1444.5 1528.88 Q1439.92 1535.75 1431.2 1535.75 Q1422.49 1535.75 1417.87 1528.88 Q1413.28 1521.97 1413.28 1508.88 Q1413.28 1495.75 1417.87 1488.88 Q1422.49 1481.97 1431.2 1481.97 Z" fill="#000000" fill-rule="evenodd" fill-opacity="1" /><path clip-path="url(#clip900)" d="M1711.61 1506.39 L1739.14 1506.39 L1739.14 1512.3 L1718.03 1512.3 L1718.03 1525 Q1719.56 1524.48 1721.09 1524.24 Q1722.61 1523.96 1724.14 1523.96 Q1732.82 1523.96 1737.89 1528.72 Q1742.96 1533.48 1742.96 1541.6 Q1742.96 1549.97 1737.75 1554.62 Q1732.54 1559.24 1723.06 1559.24 Q1719.8 1559.24 1716.4 1558.68 Q1713.03 1558.13 1709.42 1557.02 L1709.42 1549.97 Q1712.54 1551.67 1715.88 1552.5 Q1719.21 1553.34 1722.93 1553.34 Q1728.93 1553.34 1732.44 1550.18 Q1735.95 1547.02 1735.95 1541.6 Q1735.95 1536.18 1732.44 1533.02 Q1728.93 1529.87 1722.93 1529.87 Q1720.11 1529.87 1717.3 1530.49 Q1714.52 1531.12 1711.61 1532.43 L1711.61 1506.39 Z" fill="#000000" fill-rule="evenodd" fill-opacity="1" /><path clip-path="url(#clip900)" d="M1756.78 1549.41 L1764.11 1549.41 L1764.11 1558.23 L1756.78 1558.23 L1756.78 1549.41 Z" fill="#000000" fill-rule="evenodd" fill-opacity="1" /><path clip-path="url(#clip900)" d="M1794.38 1511.01 Q1788.97 1511.01 1786.22 1516.36 Q1783.52 1521.67 1783.52 1532.37 Q1783.52 1543.02 1786.22 1548.37 Q1788.97 1553.68 1794.38 1553.68 Q1799.83 1553.68 1802.54 1548.37 Q1805.29 1543.02 1805.29 1532.37 Q1805.29 1521.67 1802.54 1516.36 Q1799.83 1511.01 1794.38 1511.01 M1794.38 1505.46 Q1803.1 1505.46 1807.68 1512.37 Q1812.3 1519.24 1812.3 1532.37 Q1812.3 1545.46 1807.68 1552.37 Q1803.1 1559.24 1794.38 1559.24 Q1785.67 1559.24 1781.05 1552.37 Q1776.47 1545.46 1776.47 1532.37 Q1776.47 1519.24 1781.05 1512.37 Q1785.67 1505.46 1794.38 1505.46 Z" fill="#000000" fill-rule="evenodd" fill-opacity="1" /><path clip-path="url(#clip900)" d="M1866.88 1520.04 L1851.02 1535.98 L1866.88 1551.84 L1862.75 1556.05 L1846.81 1540.11 L1830.88 1556.05 L1826.78 1551.84 L1842.61 1535.98 L1826.78 1520.04 L1830.88 1515.84 L1846.81 1531.77 L1862.75 1515.84 L1866.88 1520.04 Z" fill="#000000" fill-rule="evenodd" fill-opacity="1" /><path clip-path="url(#clip900)" d="M1885.42 1552.33 L1896.88 1552.33 L1896.88 1512.78 L1884.42 1515.28 L1884.42 1508.89 L1896.81 1506.39 L1903.83 1506.39 L1903.83 1552.33 L1915.29 1552.33 L1915.29 1558.23 L1885.42 1558.23 L1885.42 1552.33 Z" fill="#000000" fill-rule="evenodd" fill-opacity="1" /><path clip-path="url(#clip900)" d="M1944.45 1511.01 Q1939.04 1511.01 1936.29 1516.36 Q1933.58 1521.67 1933.58 1532.37 Q1933.58 1543.02 1936.29 1548.37 Q1939.04 1553.68 1944.45 1553.68 Q1949.9 1553.68 1952.61 1548.37 Q1955.35 1543.02 1955.35 1532.37 Q1955.35 1521.67 1952.61 1516.36 Q1949.9 1511.01 1944.45 1511.01 M1944.45 1505.46 Q1953.17 1505.46 1957.75 1512.37 Q1962.37 1519.24 1962.37 1532.37 Q1962.37 1545.46 1957.75 1552.37 Q1953.17 1559.24 1944.45 1559.24 Q1935.74 1559.24 1931.12 1552.37 Q1926.54 1545.46 1926.54 1532.37 Q1926.54 1519.24 1931.12 1512.37 Q1935.74 1505.46 1944.45 1505.46 Z" fill="#000000" fill-rule="evenodd" fill-opacity="1" /><path clip-path="url(#clip900)" d="M1962.37 1496.61 L1998.54 1496.61 L1998.54 1501.4 L1962.37 1501.4 L1962.37 1496.61 Z" fill="#000000" fill-rule="evenodd" fill-opacity="1" /><path clip-path="url(#clip900)" d="M2011.82 1512.32 L2021.13 1512.32 L2021.13 1480.19 L2011.01 1482.22 L2011.01 1477.03 L2021.08 1475 L2026.78 1475 L2026.78 1512.32 L2036.09 1512.32 L2036.09 1517.12 L2011.82 1517.12 L2011.82 1512.32 Z" fill="#000000" fill-rule="evenodd" fill-opacity="1" /><path clip-path="url(#clip900)" d="M2060.49 1493.79 Q2056.65 1493.79 2054.4 1496.41 Q2052.17 1499.03 2052.17 1503.6 Q2052.17 1508.15 2054.4 1510.8 Q2056.65 1513.42 2060.49 1513.42 Q2064.33 1513.42 2066.55 1510.8 Q2068.81 1508.15 2068.81 1503.6 Q2068.81 1499.03 2066.55 1496.41 Q2064.33 1493.79 2060.49 1493.79 M2071.8 1475.93 L2071.8 1481.12 Q2069.66 1480.1 2067.46 1479.57 Q2065.28 1479.03 2063.14 1479.03 Q2057.5 1479.03 2054.51 1482.84 Q2051.55 1486.65 2051.12 1494.35 Q2052.79 1491.9 2055.3 1490.6 Q2057.81 1489.27 2060.83 1489.27 Q2067.18 1489.27 2070.84 1493.14 Q2074.54 1496.97 2074.54 1503.6 Q2074.54 1510.09 2070.7 1514.01 Q2066.86 1517.94 2060.49 1517.94 Q2053.18 1517.94 2049.32 1512.35 Q2045.45 1506.74 2045.45 1496.1 Q2045.45 1486.11 2050.19 1480.19 Q2054.93 1474.24 2062.92 1474.24 Q2065.06 1474.24 2067.23 1474.66 Q2069.43 1475.08 2071.8 1475.93 Z" fill="#000000" fill-rule="evenodd" fill-opacity="1" /><path clip-path="url(#clip900)" d="M2173.07 1552.33 L2184.53 1552.33 L2184.53 1512.78 L2172.06 1515.28 L2172.06 1508.89 L2184.46 1506.39 L2191.47 1506.39 L2191.47 1552.33 L2202.93 1552.33 L2202.93 1558.23 L2173.07 1558.23 L2173.07 1552.33 Z" fill="#000000" fill-rule="evenodd" fill-opacity="1" /><path clip-path="url(#clip900)" d="M2217.1 1549.41 L2224.43 1549.41 L2224.43 1558.23 L2217.1 1558.23 L2217.1 1549.41 Z" fill="#000000" fill-rule="evenodd" fill-opacity="1" /><path clip-path="url(#clip900)" d="M2254.7 1511.01 Q2249.29 1511.01 2246.54 1516.36 Q2243.84 1521.67 2243.84 1532.37 Q2243.84 1543.02 2246.54 1548.37 Q2249.29 1553.68 2254.7 1553.68 Q2260.15 1553.68 2262.86 1548.37 Q2265.61 1543.02 2265.61 1532.37 Q2265.61 1521.67 2262.86 1516.36 Q2260.15 1511.01 2254.7 1511.01 M2254.7 1505.46 Q2263.42 1505.46 2268 1512.37 Q2272.62 1519.24 2272.62 1532.37 Q2272.62 1545.46 2268 1552.37 Q2263.42 1559.24 2254.7 1559.24 Q2245.99 1559.24 2241.37 1552.37 Q2236.79 1545.46 2236.79 1532.37 Q2236.79 1519.24 2241.37 1512.37 Q2245.99 1505.46 2254.7 1505.46 Z" fill="#000000" fill-rule="evenodd" fill-opacity="1" /><path clip-path="url(#clip900)" d="M2327.2 1520.04 L2311.33 1535.98 L2327.2 1551.84 L2323.07 1556.05 L2307.13 1540.11 L2291.2 1556.05 L2287.1 1551.84 L2302.93 1535.98 L2287.1 1520.04 L2291.2 1515.84 L2307.13 1531.77 L2323.07 1515.84 L2327.2 1520.04 Z" fill="#000000" fill-rule="evenodd" fill-opacity="1" /><path clip-path="url(#clip900)" d="M2345.74 1552.33 L2357.2 1552.33 L2357.2 1512.78 L2344.74 1515.28 L2344.74 1508.89 L2357.13 1506.39 L2364.15 1506.39 L2364.15 1552.33 L2375.61 1552.33 L2375.61 1558.23 L2345.74 1558.23 L2345.74 1552.33 Z" fill="#000000" fill-rule="evenodd" fill-opacity="1" /><path clip-path="url(#clip900)" d="M2404.77 1511.01 Q2399.36 1511.01 2396.61 1516.36 Q2393.9 1521.67 2393.9 1532.37 Q2393.9 1543.02 2396.61 1548.37 Q2399.36 1553.68 2404.77 1553.68 Q2410.22 1553.68 2412.93 1548.37 Q2415.67 1543.02 2415.67 1532.37 Q2415.67 1521.67 2412.93 1516.36 Q2410.22 1511.01 2404.77 1511.01 M2404.77 1505.46 Q2413.49 1505.46 2418.07 1512.37 Q2422.69 1519.24 2422.69 1532.37 Q2422.69 1545.46 2418.07 1552.37 Q2413.49 1559.24 2404.77 1559.24 Q2396.06 1559.24 2391.44 1552.37 Q2386.86 1545.46 2386.86 1532.37 Q2386.86 1519.24 2391.44 1512.37 Q2396.06 1505.46 2404.77 1505.46 Z" fill="#000000" fill-rule="evenodd" fill-opacity="1" /><path clip-path="url(#clip900)" d="M2422.69 1496.61 L2458.86 1496.61 L2458.86 1501.4 L2422.69 1501.4 L2422.69 1496.61 Z" fill="#000000" fill-rule="evenodd" fill-opacity="1" /><path clip-path="url(#clip900)" d="M2472.14 1512.32 L2481.45 1512.32 L2481.45 1480.19 L2471.33 1482.22 L2471.33 1477.03 L2481.4 1475 L2487.1 1475 L2487.1 1512.32 L2496.41 1512.32 L2496.41 1517.12 L2472.14 1517.12 L2472.14 1512.32 Z" fill="#000000" fill-rule="evenodd" fill-opacity="1" /><path clip-path="url(#clip900)" d="M2507.97 1475 L2530.34 1475 L2530.34 1479.79 L2513.19 1479.79 L2513.19 1490.12 Q2514.43 1489.7 2515.67 1489.5 Q2516.92 1489.27 2518.16 1489.27 Q2525.21 1489.27 2529.33 1493.14 Q2533.45 1497 2533.45 1503.6 Q2533.45 1510.4 2529.22 1514.18 Q2524.98 1517.94 2517.28 1517.94 Q2514.63 1517.94 2511.87 1517.48 Q2509.13 1517.03 2506.19 1516.13 L2506.19 1510.4 Q2508.73 1511.79 2511.44 1512.46 Q2514.15 1513.14 2517.17 1513.14 Q2522.05 1513.14 2524.9 1510.57 Q2527.75 1508.01 2527.75 1503.6 Q2527.75 1499.2 2524.9 1496.64 Q2522.05 1494.07 2517.17 1494.07 Q2514.88 1494.07 2512.6 1494.58 Q2510.34 1495.08 2507.97 1496.16 L2507.97 1475 Z" fill="#000000" fill-rule="evenodd" fill-opacity="1" /><polyline clip-path="url(#clip902)" style="stroke:#000000; stroke-linecap:round; stroke-linejoin:round; stroke-width:2; stroke-opacity:0.1; fill:none" points="
  509.646,1411.02 2352.76,1411.02 
  "/>
<polyline clip-path="url(#clip902)" style="stroke:#000000; stroke-linecap:round; stroke-linejoin:round; stroke-width:2; stroke-opacity:0.1; fill:none" points="
  509.646,1080.01 2352.76,1080.01 
  "/>
<polyline clip-path="url(#clip902)" style="stroke:#000000; stroke-linecap:round; stroke-linejoin:round; stroke-width:2; stroke-opacity:0.1; fill:none" points="
  509.646,748.994 2352.76,748.994 
  "/>
<polyline clip-path="url(#clip902)" style="stroke:#000000; stroke-linecap:round; stroke-linejoin:round; stroke-width:2; stroke-opacity:0.1; fill:none" points="
  509.646,417.98 2352.76,417.98 
  "/>
<polyline clip-path="url(#clip902)" style="stroke:#000000; stroke-linecap:round; stroke-linejoin:round; stroke-width:2; stroke-opacity:0.1; fill:none" points="
  509.646,86.9658 2352.76,86.9658 
  "/>
<polyline clip-path="url(#clip900)" style="stroke:#000000; stroke-linecap:round; stroke-linejoin:round; stroke-width:4; stroke-opacity:1; fill:none" points="
  509.646,1450.74 509.646,47.2441 
  "/>
<polyline clip-path="url(#clip900)" style="stroke:#000000; stroke-linecap:round; stroke-linejoin:round; stroke-width:4; stroke-opacity:1; fill:none" points="
  509.646,1411.02 528.544,1411.02 
  "/>
<polyline clip-path="url(#clip900)" style="stroke:#000000; stroke-linecap:round; stroke-linejoin:round; stroke-width:4; stroke-opacity:1; fill:none" points="
  509.646,1080.01 528.544,1080.01 
  "/>
<polyline clip-path="url(#clip900)" style="stroke:#000000; stroke-linecap:round; stroke-linejoin:round; stroke-width:4; stroke-opacity:1; fill:none" points="
  509.646,748.994 528.544,748.994 
  "/>
<polyline clip-path="url(#clip900)" style="stroke:#000000; stroke-linecap:round; stroke-linejoin:round; stroke-width:4; stroke-opacity:1; fill:none" points="
  509.646,417.98 528.544,417.98 
  "/>
<polyline clip-path="url(#clip900)" style="stroke:#000000; stroke-linecap:round; stroke-linejoin:round; stroke-width:4; stroke-opacity:1; fill:none" points="
  509.646,86.9658 528.544,86.9658 
  "/>
<path clip-path="url(#clip900)" d="M52.4027 1421.37 L96.9164 1421.37 L96.9164 1427.27 L52.4027 1427.27 L52.4027 1421.37 Z" fill="#000000" fill-rule="evenodd" fill-opacity="1" /><path clip-path="url(#clip900)" d="M113.27 1440.71 L124.729 1440.71 L124.729 1401.16 L112.263 1403.66 L112.263 1397.27 L124.659 1394.77 L131.673 1394.77 L131.673 1440.71 L143.131 1440.71 L143.131 1446.61 L113.27 1446.61 L113.27 1440.71 Z" fill="#000000" fill-rule="evenodd" fill-opacity="1" /><path clip-path="url(#clip900)" d="M157.298 1437.79 L164.624 1437.79 L164.624 1446.61 L157.298 1446.61 L157.298 1437.79 Z" fill="#000000" fill-rule="evenodd" fill-opacity="1" /><path clip-path="url(#clip900)" d="M194.902 1399.39 Q189.485 1399.39 186.742 1404.74 Q184.034 1410.05 184.034 1420.74 Q184.034 1431.4 186.742 1436.75 Q189.485 1442.06 194.902 1442.06 Q200.353 1442.06 203.062 1436.75 Q205.805 1431.4 205.805 1420.74 Q205.805 1410.05 203.062 1404.74 Q200.353 1399.39 194.902 1399.39 M194.902 1393.84 Q203.617 1393.84 208.2 1400.74 Q212.819 1407.62 212.819 1420.74 Q212.819 1433.84 208.2 1440.74 Q203.617 1447.62 194.902 1447.62 Q186.187 1447.62 181.569 1440.74 Q176.985 1433.84 176.985 1420.74 Q176.985 1407.62 181.569 1400.74 Q186.187 1393.84 194.902 1393.84 Z" fill="#000000" fill-rule="evenodd" fill-opacity="1" /><path clip-path="url(#clip900)" d="M267.402 1408.42 L251.534 1424.36 L267.402 1440.22 L263.27 1444.43 L247.332 1428.49 L231.395 1444.43 L227.298 1440.22 L243.131 1424.36 L227.298 1408.42 L231.395 1404.22 L247.332 1420.15 L263.27 1404.22 L267.402 1408.42 Z" fill="#000000" fill-rule="evenodd" fill-opacity="1" /><path clip-path="url(#clip900)" d="M285.943 1440.71 L297.401 1440.71 L297.401 1401.16 L284.936 1403.66 L284.936 1397.27 L297.332 1394.77 L304.346 1394.77 L304.346 1440.71 L315.804 1440.71 L315.804 1446.61 L285.943 1446.61 L285.943 1440.71 Z" fill="#000000" fill-rule="evenodd" fill-opacity="1" /><path clip-path="url(#clip900)" d="M344.971 1399.39 Q339.554 1399.39 336.811 1404.74 Q334.103 1410.05 334.103 1420.74 Q334.103 1431.4 336.811 1436.75 Q339.554 1442.06 344.971 1442.06 Q350.422 1442.06 353.13 1436.75 Q355.873 1431.4 355.873 1420.74 Q355.873 1410.05 353.13 1404.74 Q350.422 1399.39 344.971 1399.39 M344.971 1393.84 Q353.686 1393.84 358.269 1400.74 Q362.887 1407.62 362.887 1420.74 Q362.887 1433.84 358.269 1440.74 Q353.686 1447.62 344.971 1447.62 Q336.255 1447.62 331.637 1440.74 Q327.054 1433.84 327.054 1420.74 Q327.054 1407.62 331.637 1400.74 Q336.255 1393.84 344.971 1393.84 Z" fill="#000000" fill-rule="evenodd" fill-opacity="1" /><path clip-path="url(#clip900)" d="M362.887 1384.99 L399.054 1384.99 L399.054 1389.78 L362.887 1389.78 L362.887 1384.99 Z" fill="#000000" fill-rule="evenodd" fill-opacity="1" /><path clip-path="url(#clip900)" d="M412.342 1400.7 L421.652 1400.7 L421.652 1368.57 L411.524 1370.6 L411.524 1365.41 L421.596 1363.38 L427.294 1363.38 L427.294 1400.7 L436.604 1400.7 L436.604 1405.5 L412.342 1405.5 L412.342 1400.7 Z" fill="#000000" fill-rule="evenodd" fill-opacity="1" /><path clip-path="url(#clip900)" d="M448.171 1363.38 L470.543 1363.38 L470.543 1368.17 L453.39 1368.17 L453.39 1378.5 Q454.631 1378.08 455.873 1377.88 Q457.114 1377.65 458.355 1377.65 Q465.408 1377.65 469.527 1381.52 Q473.646 1385.38 473.646 1391.98 Q473.646 1398.78 469.414 1402.56 Q465.183 1406.32 457.481 1406.32 Q454.829 1406.32 452.064 1405.86 Q449.328 1405.41 446.394 1404.51 L446.394 1398.78 Q448.933 1400.17 451.641 1400.84 Q454.349 1401.52 457.368 1401.52 Q462.249 1401.52 465.098 1398.95 Q467.947 1396.38 467.947 1391.98 Q467.947 1387.58 465.098 1385.02 Q462.249 1382.45 457.368 1382.45 Q455.083 1382.45 452.798 1382.96 Q450.541 1383.46 448.171 1384.54 L448.171 1363.38 Z" fill="#000000" fill-rule="evenodd" fill-opacity="1" /><path clip-path="url(#clip900)" d="M50.9921 1090.36 L95.5058 1090.36 L95.5058 1096.26 L50.9921 1096.26 L50.9921 1090.36 Z" fill="#000000" fill-rule="evenodd" fill-opacity="1" /><path clip-path="url(#clip900)" d="M110.714 1063.76 L138.249 1063.76 L138.249 1069.66 L117.138 1069.66 L117.138 1082.37 Q118.665 1081.85 120.193 1081.61 Q121.721 1081.33 123.249 1081.33 Q131.929 1081.33 136.999 1086.09 Q142.068 1090.84 142.068 1098.97 Q142.068 1107.34 136.86 1111.99 Q131.651 1116.61 122.172 1116.61 Q118.908 1116.61 115.506 1116.05 Q112.138 1115.49 108.527 1114.38 L108.527 1107.34 Q111.652 1109.04 114.985 1109.87 Q118.318 1110.7 122.033 1110.7 Q128.04 1110.7 131.547 1107.54 Q135.054 1104.38 135.054 1098.97 Q135.054 1093.55 131.547 1090.39 Q128.04 1087.23 122.033 1087.23 Q119.221 1087.23 116.408 1087.86 Q113.631 1088.48 110.714 1089.8 L110.714 1063.76 Z" fill="#000000" fill-rule="evenodd" fill-opacity="1" /><path clip-path="url(#clip900)" d="M155.887 1106.78 L163.214 1106.78 L163.214 1115.6 L155.887 1115.6 L155.887 1106.78 Z" fill="#000000" fill-rule="evenodd" fill-opacity="1" /><path clip-path="url(#clip900)" d="M193.491 1068.38 Q188.075 1068.38 185.332 1073.72 Q182.623 1079.04 182.623 1089.73 Q182.623 1100.39 185.332 1105.74 Q188.075 1111.05 193.491 1111.05 Q198.943 1111.05 201.651 1105.74 Q204.394 1100.39 204.394 1089.73 Q204.394 1079.04 201.651 1073.72 Q198.943 1068.38 193.491 1068.38 M193.491 1062.82 Q202.207 1062.82 206.79 1069.73 Q211.408 1076.61 211.408 1089.73 Q211.408 1102.82 206.79 1109.73 Q202.207 1116.61 193.491 1116.61 Q184.776 1116.61 180.158 1109.73 Q175.575 1102.82 175.575 1089.73 Q175.575 1076.61 180.158 1069.73 Q184.776 1062.82 193.491 1062.82 Z" fill="#000000" fill-rule="evenodd" fill-opacity="1" /><path clip-path="url(#clip900)" d="M265.991 1077.4 L250.123 1093.34 L265.991 1109.21 L261.859 1113.41 L245.922 1097.47 L229.984 1113.41 L225.887 1109.21 L241.72 1093.34 L225.887 1077.4 L229.984 1073.2 L245.922 1089.14 L261.859 1073.2 L265.991 1077.4 Z" fill="#000000" fill-rule="evenodd" fill-opacity="1" /><path clip-path="url(#clip900)" d="M284.533 1109.7 L295.991 1109.7 L295.991 1070.15 L283.526 1072.65 L283.526 1066.26 L295.921 1063.76 L302.935 1063.76 L302.935 1109.7 L314.393 1109.7 L314.393 1115.6 L284.533 1115.6 L284.533 1109.7 Z" fill="#000000" fill-rule="evenodd" fill-opacity="1" /><path clip-path="url(#clip900)" d="M343.56 1068.38 Q338.143 1068.38 335.4 1073.72 Q332.692 1079.04 332.692 1089.73 Q332.692 1100.39 335.4 1105.74 Q338.143 1111.05 343.56 1111.05 Q349.011 1111.05 351.72 1105.74 Q354.463 1100.39 354.463 1089.73 Q354.463 1079.04 351.72 1073.72 Q349.011 1068.38 343.56 1068.38 M343.56 1062.82 Q352.275 1062.82 356.859 1069.73 Q361.477 1076.61 361.477 1089.73 Q361.477 1102.82 356.859 1109.73 Q352.275 1116.61 343.56 1116.61 Q334.845 1116.61 330.227 1109.73 Q325.643 1102.82 325.643 1089.73 Q325.643 1076.61 330.227 1069.73 Q334.845 1062.82 343.56 1062.82 Z" fill="#000000" fill-rule="evenodd" fill-opacity="1" /><path clip-path="url(#clip900)" d="M361.477 1053.97 L397.644 1053.97 L397.644 1058.77 L361.477 1058.77 L361.477 1053.97 Z" fill="#000000" fill-rule="evenodd" fill-opacity="1" /><path clip-path="url(#clip900)" d="M410.932 1069.69 L420.241 1069.69 L420.241 1037.55 L410.113 1039.59 L410.113 1034.39 L420.185 1032.36 L425.884 1032.36 L425.884 1069.69 L435.194 1069.69 L435.194 1074.48 L410.932 1074.48 L410.932 1069.69 Z" fill="#000000" fill-rule="evenodd" fill-opacity="1" /><path clip-path="url(#clip900)" d="M459.597 1051.15 Q455.76 1051.15 453.503 1053.78 Q451.274 1056.4 451.274 1060.97 Q451.274 1065.51 453.503 1068.16 Q455.76 1070.79 459.597 1070.79 Q463.433 1070.79 465.662 1068.16 Q467.919 1065.51 467.919 1060.97 Q467.919 1056.4 465.662 1053.78 Q463.433 1051.15 459.597 1051.15 M470.91 1033.29 L470.91 1038.49 Q468.765 1037.47 466.565 1036.93 Q464.393 1036.4 462.249 1036.4 Q456.606 1036.4 453.616 1040.21 Q450.654 1044.01 450.23 1051.72 Q451.895 1049.26 454.406 1047.96 Q456.917 1046.64 459.935 1046.64 Q466.283 1046.64 469.95 1050.5 Q473.646 1054.34 473.646 1060.97 Q473.646 1067.46 469.809 1071.38 Q465.973 1075.3 459.597 1075.3 Q452.29 1075.3 448.425 1069.72 Q444.56 1064.1 444.56 1053.47 Q444.56 1043.48 449.299 1037.55 Q454.039 1031.6 462.023 1031.6 Q464.167 1031.6 466.339 1032.02 Q468.54 1032.45 470.91 1033.29 Z" fill="#000000" fill-rule="evenodd" fill-opacity="1" /><path clip-path="url(#clip900)" d="M455.73 727.692 Q450.313 727.692 447.57 733.039 Q444.862 738.351 444.862 749.046 Q444.862 759.705 447.57 765.053 Q450.313 770.365 455.73 770.365 Q461.181 770.365 463.889 765.053 Q466.632 759.705 466.632 749.046 Q466.632 738.351 463.889 733.039 Q461.181 727.692 455.73 727.692 M455.73 722.136 Q464.445 722.136 469.028 729.046 Q473.646 735.921 473.646 749.046 Q473.646 762.136 469.028 769.046 Q464.445 775.921 455.73 775.921 Q447.014 775.921 442.396 769.046 Q437.813 762.136 437.813 749.046 Q437.813 735.921 442.396 729.046 Q447.014 722.136 455.73 722.136 Z" fill="#000000" fill-rule="evenodd" fill-opacity="1" /><path clip-path="url(#clip900)" d="M110.714 401.731 L138.249 401.731 L138.249 407.634 L117.138 407.634 L117.138 420.342 Q118.665 419.821 120.193 419.578 Q121.721 419.3 123.249 419.3 Q131.929 419.3 136.999 424.057 Q142.068 428.814 142.068 436.939 Q142.068 445.307 136.86 449.96 Q131.651 454.578 122.172 454.578 Q118.908 454.578 115.506 454.022 Q112.138 453.467 108.527 452.356 L108.527 445.307 Q111.652 447.009 114.985 447.842 Q118.318 448.675 122.033 448.675 Q128.04 448.675 131.547 445.516 Q135.054 442.356 135.054 436.939 Q135.054 431.523 131.547 428.363 Q128.04 425.203 122.033 425.203 Q119.221 425.203 116.408 425.828 Q113.631 426.453 110.714 427.773 L110.714 401.731 Z" fill="#000000" fill-rule="evenodd" fill-opacity="1" /><path clip-path="url(#clip900)" d="M155.887 444.752 L163.214 444.752 L163.214 453.571 L155.887 453.571 L155.887 444.752 Z" fill="#000000" fill-rule="evenodd" fill-opacity="1" /><path clip-path="url(#clip900)" d="M193.491 406.349 Q188.075 406.349 185.332 411.696 Q182.623 417.009 182.623 427.703 Q182.623 438.363 185.332 443.71 Q188.075 449.022 193.491 449.022 Q198.943 449.022 201.651 443.71 Q204.394 438.363 204.394 427.703 Q204.394 417.009 201.651 411.696 Q198.943 406.349 193.491 406.349 M193.491 400.794 Q202.207 400.794 206.79 407.703 Q211.408 414.578 211.408 427.703 Q211.408 440.793 206.79 447.703 Q202.207 454.578 193.491 454.578 Q184.776 454.578 180.158 447.703 Q175.575 440.793 175.575 427.703 Q175.575 414.578 180.158 407.703 Q184.776 400.794 193.491 400.794 Z" fill="#000000" fill-rule="evenodd" fill-opacity="1" /><path clip-path="url(#clip900)" d="M265.991 415.377 L250.123 431.314 L265.991 447.182 L261.859 451.384 L245.922 435.446 L229.984 451.384 L225.887 447.182 L241.72 431.314 L225.887 415.377 L229.984 411.175 L245.922 427.113 L261.859 411.175 L265.991 415.377 Z" fill="#000000" fill-rule="evenodd" fill-opacity="1" /><path clip-path="url(#clip900)" d="M284.533 447.668 L295.991 447.668 L295.991 408.12 L283.526 410.62 L283.526 404.231 L295.921 401.731 L302.935 401.731 L302.935 447.668 L314.393 447.668 L314.393 453.571 L284.533 453.571 L284.533 447.668 Z" fill="#000000" fill-rule="evenodd" fill-opacity="1" /><path clip-path="url(#clip900)" d="M343.56 406.349 Q338.143 406.349 335.4 411.696 Q332.692 417.009 332.692 427.703 Q332.692 438.363 335.4 443.71 Q338.143 449.022 343.56 449.022 Q349.011 449.022 351.72 443.71 Q354.463 438.363 354.463 427.703 Q354.463 417.009 351.72 411.696 Q349.011 406.349 343.56 406.349 M343.56 400.794 Q352.275 400.794 356.859 407.703 Q361.477 414.578 361.477 427.703 Q361.477 440.793 356.859 447.703 Q352.275 454.578 343.56 454.578 Q334.845 454.578 330.227 447.703 Q325.643 440.793 325.643 427.703 Q325.643 414.578 330.227 407.703 Q334.845 400.794 343.56 400.794 Z" fill="#000000" fill-rule="evenodd" fill-opacity="1" /><path clip-path="url(#clip900)" d="M361.477 391.946 L397.644 391.946 L397.644 396.742 L361.477 396.742 L361.477 391.946 Z" fill="#000000" fill-rule="evenodd" fill-opacity="1" /><path clip-path="url(#clip900)" d="M410.932 407.659 L420.241 407.659 L420.241 375.526 L410.113 377.558 L410.113 372.367 L420.185 370.335 L425.884 370.335 L425.884 407.659 L435.194 407.659 L435.194 412.455 L410.932 412.455 L410.932 407.659 Z" fill="#000000" fill-rule="evenodd" fill-opacity="1" /><path clip-path="url(#clip900)" d="M459.597 389.124 Q455.76 389.124 453.503 391.748 Q451.274 394.372 451.274 398.942 Q451.274 403.484 453.503 406.136 Q455.76 408.76 459.597 408.76 Q463.433 408.76 465.662 406.136 Q467.919 403.484 467.919 398.942 Q467.919 394.372 465.662 391.748 Q463.433 389.124 459.597 389.124 M470.91 371.266 L470.91 376.457 Q468.765 375.442 466.565 374.906 Q464.393 374.37 462.249 374.37 Q456.606 374.37 453.616 378.178 Q450.654 381.987 450.23 389.689 Q451.895 387.234 454.406 385.937 Q456.917 384.611 459.935 384.611 Q466.283 384.611 469.95 388.476 Q473.646 392.312 473.646 398.942 Q473.646 405.431 469.809 409.352 Q465.973 413.274 459.597 413.274 Q452.29 413.274 448.425 407.688 Q444.56 402.074 444.56 391.438 Q444.56 381.451 449.299 375.526 Q454.039 369.574 462.023 369.574 Q464.167 369.574 466.339 369.997 Q468.54 370.42 470.91 371.266 Z" fill="#000000" fill-rule="evenodd" fill-opacity="1" /><path clip-path="url(#clip900)" d="M113.27 116.654 L124.729 116.654 L124.729 77.106 L112.263 79.606 L112.263 73.2172 L124.659 70.7172 L131.673 70.7172 L131.673 116.654 L143.131 116.654 L143.131 122.557 L113.27 122.557 L113.27 116.654 Z" fill="#000000" fill-rule="evenodd" fill-opacity="1" /><path clip-path="url(#clip900)" d="M157.298 113.738 L164.624 113.738 L164.624 122.557 L157.298 122.557 L157.298 113.738 Z" fill="#000000" fill-rule="evenodd" fill-opacity="1" /><path clip-path="url(#clip900)" d="M194.902 75.3352 Q189.485 75.3352 186.742 80.6824 Q184.034 85.9949 184.034 96.6892 Q184.034 107.349 186.742 112.696 Q189.485 118.009 194.902 118.009 Q200.353 118.009 203.062 112.696 Q205.805 107.349 205.805 96.6892 Q205.805 85.9949 203.062 80.6824 Q200.353 75.3352 194.902 75.3352 M194.902 69.7797 Q203.617 69.7797 208.2 76.6894 Q212.819 83.5643 212.819 96.6892 Q212.819 109.779 208.2 116.689 Q203.617 123.564 194.902 123.564 Q186.187 123.564 181.569 116.689 Q176.985 109.779 176.985 96.6892 Q176.985 83.5643 181.569 76.6894 Q186.187 69.7797 194.902 69.7797 Z" fill="#000000" fill-rule="evenodd" fill-opacity="1" /><path clip-path="url(#clip900)" d="M267.402 84.3629 L251.534 100.3 L267.402 116.168 L263.27 120.37 L247.332 104.432 L231.395 120.37 L227.298 116.168 L243.131 100.3 L227.298 84.3629 L231.395 80.1616 L247.332 96.099 L263.27 80.1616 L267.402 84.3629 Z" fill="#000000" fill-rule="evenodd" fill-opacity="1" /><path clip-path="url(#clip900)" d="M285.943 116.654 L297.401 116.654 L297.401 77.106 L284.936 79.606 L284.936 73.2172 L297.332 70.7172 L304.346 70.7172 L304.346 116.654 L315.804 116.654 L315.804 122.557 L285.943 122.557 L285.943 116.654 Z" fill="#000000" fill-rule="evenodd" fill-opacity="1" /><path clip-path="url(#clip900)" d="M344.971 75.3352 Q339.554 75.3352 336.811 80.6824 Q334.103 85.9949 334.103 96.6892 Q334.103 107.349 336.811 112.696 Q339.554 118.009 344.971 118.009 Q350.422 118.009 353.13 112.696 Q355.873 107.349 355.873 96.6892 Q355.873 85.9949 353.13 80.6824 Q350.422 75.3352 344.971 75.3352 M344.971 69.7797 Q353.686 69.7797 358.269 76.6894 Q362.887 83.5643 362.887 96.6892 Q362.887 109.779 358.269 116.689 Q353.686 123.564 344.971 123.564 Q336.255 123.564 331.637 116.689 Q327.054 109.779 327.054 96.6892 Q327.054 83.5643 331.637 76.6894 Q336.255 69.7797 344.971 69.7797 Z" fill="#000000" fill-rule="evenodd" fill-opacity="1" /><path clip-path="url(#clip900)" d="M362.887 60.9317 L399.054 60.9317 L399.054 65.7277 L362.887 65.7277 L362.887 60.9317 Z" fill="#000000" fill-rule="evenodd" fill-opacity="1" /><path clip-path="url(#clip900)" d="M412.342 76.6456 L421.652 76.6456 L421.652 44.5125 L411.524 46.5437 L411.524 41.3528 L421.596 39.3216 L427.294 39.3216 L427.294 76.6456 L436.604 76.6456 L436.604 81.4416 L412.342 81.4416 L412.342 76.6456 Z" fill="#000000" fill-rule="evenodd" fill-opacity="1" /><path clip-path="url(#clip900)" d="M448.171 39.3216 L470.543 39.3216 L470.543 44.1175 L453.39 44.1175 L453.39 54.443 Q454.631 54.0198 455.873 53.8224 Q457.114 53.5967 458.355 53.5967 Q465.408 53.5967 469.527 57.4617 Q473.646 61.3267 473.646 67.9282 Q473.646 74.7272 469.414 78.5076 Q465.183 82.2597 457.481 82.2597 Q454.829 82.2597 452.064 81.8083 Q449.328 81.3569 446.394 80.4542 L446.394 74.7272 Q448.933 76.1096 451.641 76.7866 Q454.349 77.4637 457.368 77.4637 Q462.249 77.4637 465.098 74.8965 Q467.947 72.3292 467.947 67.9282 Q467.947 63.5272 465.098 60.9599 Q462.249 58.3926 457.368 58.3926 Q455.083 58.3926 452.798 58.9005 Q450.541 59.4083 448.171 60.4803 L448.171 39.3216 Z" fill="#000000" fill-rule="evenodd" fill-opacity="1" /><polyline clip-path="url(#clip902)" style="stroke:#009af9; stroke-linecap:round; stroke-linejoin:round; stroke-width:16; stroke-opacity:1; fill:none" points="
  509.646,1411.02 521.646,1402.4 632.6,1322.69 699.279,1274.79 755.655,1234.29 816.895,1190.3 873.353,1149.74 933.882,1106.26 1004.01,1055.88 1066.33,1011.11 
  1120.98,971.848 1180.57,929.044 1240.51,885.985 1306.78,838.378 1369.83,793.082 1435.39,745.984 1490.58,706.337 1557.96,657.933 1619.68,613.592 1676.69,572.64 
  1734.43,531.157 1799.15,484.665 1857.79,442.537 1924.94,394.302 1987.11,349.642 2048.4,305.611 2107.91,262.862 2168.91,219.038 2235.75,171.023 2332.84,101.275 
  2352.76,86.9658 
  "/>
<path clip-path="url(#clip900)" d="
M2007.88 249.547 L2291.32 249.547 L2291.32 94.0274 L2007.88 94.0274  Z
  " fill="#ffffff" fill-rule="evenodd" fill-opacity="1"/>
<polyline clip-path="url(#clip900)" style="stroke:#000000; stroke-linecap:round; stroke-linejoin:round; stroke-width:4; stroke-opacity:1; fill:none" points="
  2007.88,249.547 2291.32,249.547 2291.32,94.0274 2007.88,94.0274 2007.88,249.547 
  "/>
<polyline clip-path="url(#clip900)" style="stroke:#009af9; stroke-linecap:round; stroke-linejoin:round; stroke-width:6; stroke-opacity:1; fill:none" points="
  2028.36,171.787 2151.24,171.787 
  "/>
<path clip-path="url(#clip900)" d="M2192.48 201.318 Q2189.77 208.263 2187.2 210.381 Q2184.63 212.499 2180.33 212.499 L2175.22 212.499 L2175.22 207.152 L2178.97 207.152 Q2181.61 207.152 2183.07 205.902 Q2184.53 204.652 2186.3 199.999 L2187.44 197.082 L2171.72 158.819 L2178.49 158.819 L2190.64 189.235 L2202.79 158.819 L2209.56 158.819 L2192.48 201.318 Z" fill="#000000" fill-rule="evenodd" fill-opacity="1" /><path clip-path="url(#clip900)" d="M2220.5 191.805 L2231.96 191.805 L2231.96 152.256 L2219.49 154.756 L2219.49 148.367 L2231.89 145.867 L2238.9 145.867 L2238.9 191.805 L2250.36 191.805 L2250.36 197.707 L2220.5 197.707 L2220.5 191.805 Z" fill="#000000" fill-rule="evenodd" fill-opacity="1" /></svg>
