<?xml version="1.0" encoding="utf-8"?>
<svg xmlns="http://www.w3.org/2000/svg" xmlns:xlink="http://www.w3.org/1999/xlink" width="600" height="400" viewBox="0 0 2400 1600">
<defs>
  <clipPath id="clip180">
    <rect x="0" y="0" width="2400" height="1600"/>
  </clipPath>
</defs>
<path clip-path="url(#clip180)" d="
M0 1600 L2400 1600 L2400 0 L0 0  Z
  " fill="#ffffff" fill-rule="evenodd" fill-opacity="1"/>
<defs>
  <clipPath id="clip181">
    <rect x="480" y="0" width="1681" height="1600"/>
  </clipPath>
</defs>
<defs>
  <clipPath id="clip182">
    <rect x="276" y="47" width="2077" height="1377"/>
  </clipPath>
</defs>
<path clip-path="url(#clip180)" d="
M276.876 1423.18 L2352.76 1423.18 L2352.76 47.2441 L276.876 47.2441  Z
  " fill="#ffffff" fill-rule="evenodd" fill-opacity="1"/>
<polyline clip-path="url(#clip182)" style="stroke:#000000; stroke-linecap:butt; stroke-linejoin:round; stroke-width:2; stroke-opacity:0.1; fill:none" points="
  553.224,1423.18 553.224,47.2441 
  "/>
<polyline clip-path="url(#clip182)" style="stroke:#000000; stroke-linecap:butt; stroke-linejoin:round; stroke-width:2; stroke-opacity:0.1; fill:none" points="
  988.419,1423.18 988.419,47.2441 
  "/>
<polyline clip-path="url(#clip182)" style="stroke:#000000; stroke-linecap:butt; stroke-linejoin:round; stroke-width:2; stroke-opacity:0.1; fill:none" points="
  1423.61,1423.18 1423.61,47.2441 
  "/>
<polyline clip-path="url(#clip182)" style="stroke:#000000; stroke-linecap:butt; stroke-linejoin:round; stroke-width:2; stroke-opacity:0.1; fill:none" points="
  1858.81,1423.18 1858.81,47.2441 
  "/>
<polyline clip-path="url(#clip182)" style="stroke:#000000; stroke-linecap:butt; stroke-linejoin:round; stroke-width:2; stroke-opacity:0.1; fill:none" points="
  2294,1423.18 2294,47.2441 
  "/>
<polyline clip-path="url(#clip180)" style="stroke:#000000; stroke-linecap:butt; stroke-linejoin:round; stroke-width:4; stroke-opacity:1; fill:none" points="
  276.876,1423.18 2352.76,1423.18 
  "/>
<polyline clip-path="url(#clip180)" style="stroke:#000000; stroke-linecap:butt; stroke-linejoin:round; stroke-width:4; stroke-opacity:1; fill:none" points="
  553.224,1423.18 553.224,1404.28 
  "/>
<polyline clip-path="url(#clip180)" style="stroke:#000000; stroke-linecap:butt; stroke-linejoin:round; stroke-width:4; stroke-opacity:1; fill:none" points="
  988.419,1423.18 988.419,1404.28 
  "/>
<polyline clip-path="url(#clip180)" style="stroke:#000000; stroke-linecap:butt; stroke-linejoin:round; stroke-width:4; stroke-opacity:1; fill:none" points="
  1423.61,1423.18 1423.61,1404.28 
  "/>
<polyline clip-path="url(#clip180)" style="stroke:#000000; stroke-linecap:butt; stroke-linejoin:round; stroke-width:4; stroke-opacity:1; fill:none" points="
  1858.81,1423.18 1858.81,1404.28 
  "/>
<polyline clip-path="url(#clip180)" style="stroke:#000000; stroke-linecap:butt; stroke-linejoin:round; stroke-width:4; stroke-opacity:1; fill:none" points="
  2294,1423.18 2294,1404.28 
  "/>
<path clip-path="url(#clip180)" d="M556.234 1455.09 L544.428 1473.54 L556.234 1473.54 L556.234 1455.09 M555.007 1451.02 L560.886 1451.02 L560.886 1473.54 L565.817 1473.54 L565.817 1477.43 L560.886 1477.43 L560.886 1485.58 L556.234 1485.58 L556.234 1477.43 L540.632 1477.43 L540.632 1472.92 L555.007 1451.02 Z" fill="#000000" fill-rule="evenodd" fill-opacity="1" /><path clip-path="url(#clip180)" d="M988.825 1466.44 Q985.676 1466.44 983.825 1468.59 Q981.996 1470.74 981.996 1474.49 Q981.996 1478.22 983.825 1480.39 Q985.676 1482.55 988.825 1482.55 Q991.973 1482.55 993.801 1480.39 Q995.653 1478.22 995.653 1474.49 Q995.653 1470.74 993.801 1468.59 Q991.973 1466.44 988.825 1466.44 M998.107 1451.78 L998.107 1456.04 Q996.348 1455.21 994.542 1454.77 Q992.76 1454.33 991 1454.33 Q986.371 1454.33 983.917 1457.45 Q981.487 1460.58 981.139 1466.9 Q982.505 1464.89 984.565 1463.82 Q986.625 1462.73 989.102 1462.73 Q994.311 1462.73 997.32 1465.9 Q1000.35 1469.05 1000.35 1474.49 Q1000.35 1479.82 997.204 1483.03 Q994.056 1486.25 988.825 1486.25 Q982.829 1486.25 979.658 1481.67 Q976.487 1477.06 976.487 1468.33 Q976.487 1460.14 980.375 1455.28 Q984.264 1450.39 990.815 1450.39 Q992.574 1450.39 994.357 1450.74 Q996.162 1451.09 998.107 1451.78 Z" fill="#000000" fill-rule="evenodd" fill-opacity="1" /><path clip-path="url(#clip180)" d="M1423.61 1469.17 Q1420.28 1469.17 1418.36 1470.95 Q1416.46 1472.73 1416.46 1475.86 Q1416.46 1478.98 1418.36 1480.77 Q1420.28 1482.55 1423.61 1482.55 Q1426.95 1482.55 1428.87 1480.77 Q1430.79 1478.96 1430.79 1475.86 Q1430.79 1472.73 1428.87 1470.95 Q1426.97 1469.17 1423.61 1469.17 M1418.94 1467.18 Q1415.93 1466.44 1414.24 1464.38 Q1412.57 1462.32 1412.57 1459.35 Q1412.57 1455.21 1415.51 1452.8 Q1418.48 1450.39 1423.61 1450.39 Q1428.78 1450.39 1431.72 1452.8 Q1434.66 1455.21 1434.66 1459.35 Q1434.66 1462.32 1432.97 1464.38 Q1431.3 1466.44 1428.31 1467.18 Q1431.69 1467.96 1433.57 1470.26 Q1435.47 1472.55 1435.47 1475.86 Q1435.47 1480.88 1432.39 1483.57 Q1429.33 1486.25 1423.61 1486.25 Q1417.9 1486.25 1414.82 1483.57 Q1411.76 1480.88 1411.76 1475.86 Q1411.76 1472.55 1413.66 1470.26 Q1415.56 1467.96 1418.94 1467.18 M1417.23 1459.79 Q1417.23 1462.48 1418.89 1463.98 Q1420.58 1465.49 1423.61 1465.49 Q1426.62 1465.49 1428.31 1463.98 Q1430.03 1462.48 1430.03 1459.79 Q1430.03 1457.11 1428.31 1455.6 Q1426.62 1454.1 1423.61 1454.1 Q1420.58 1454.1 1418.89 1455.6 Q1417.23 1457.11 1417.23 1459.79 Z" fill="#000000" fill-rule="evenodd" fill-opacity="1" /><path clip-path="url(#clip180)" d="M1833.5 1481.64 L1841.14 1481.64 L1841.14 1455.28 L1832.83 1456.95 L1832.83 1452.69 L1841.09 1451.02 L1845.77 1451.02 L1845.77 1481.64 L1853.4 1481.64 L1853.4 1485.58 L1833.5 1485.58 L1833.5 1481.64 Z" fill="#000000" fill-rule="evenodd" fill-opacity="1" /><path clip-path="url(#clip180)" d="M1872.85 1454.1 Q1869.24 1454.1 1867.41 1457.66 Q1865.6 1461.2 1865.6 1468.33 Q1865.6 1475.44 1867.41 1479.01 Q1869.24 1482.55 1872.85 1482.55 Q1876.48 1482.55 1878.29 1479.01 Q1880.12 1475.44 1880.12 1468.33 Q1880.12 1461.2 1878.29 1457.66 Q1876.48 1454.1 1872.85 1454.1 M1872.85 1450.39 Q1878.66 1450.39 1881.71 1455 Q1884.79 1459.58 1884.79 1468.33 Q1884.79 1477.06 1881.71 1481.67 Q1878.66 1486.25 1872.85 1486.25 Q1867.04 1486.25 1863.96 1481.67 Q1860.9 1477.06 1860.9 1468.33 Q1860.9 1459.58 1863.96 1455 Q1867.04 1450.39 1872.85 1450.39 Z" fill="#000000" fill-rule="evenodd" fill-opacity="1" /><path clip-path="url(#clip180)" d="M2269.49 1481.64 L2277.13 1481.64 L2277.13 1455.28 L2268.82 1456.95 L2268.82 1452.69 L2277.08 1451.02 L2281.76 1451.02 L2281.76 1481.64 L2289.4 1481.64 L2289.4 1485.58 L2269.49 1485.58 L2269.49 1481.64 Z" fill="#000000" fill-rule="evenodd" fill-opacity="1" /><path clip-path="url(#clip180)" d="M2302.87 1481.64 L2319.19 1481.64 L2319.19 1485.58 L2297.25 1485.58 L2297.25 1481.64 Q2299.91 1478.89 2304.49 1474.26 Q2309.1 1469.61 2310.28 1468.27 Q2312.52 1465.74 2313.4 1464.01 Q2314.31 1462.25 2314.31 1460.56 Q2314.31 1457.8 2312.36 1456.07 Q2310.44 1454.33 2307.34 1454.33 Q2305.14 1454.33 2302.69 1455.09 Q2300.25 1455.86 2297.48 1457.41 L2297.48 1452.69 Q2300.3 1451.55 2302.75 1450.97 Q2305.21 1450.39 2307.25 1450.39 Q2312.62 1450.39 2315.81 1453.08 Q2319 1455.77 2319 1460.26 Q2319 1462.39 2318.19 1464.31 Q2317.41 1466.2 2315.3 1468.8 Q2314.72 1469.47 2311.62 1472.69 Q2308.52 1475.88 2302.87 1481.64 Z" fill="#000000" fill-rule="evenodd" fill-opacity="1" /><path clip-path="url(#clip180)" d="M1329.74 1546.53 L1329.74 1568.04 L1323.89 1568.04 L1323.89 1546.72 Q1323.89 1541.66 1321.91 1539.14 Q1319.94 1536.63 1315.99 1536.63 Q1311.25 1536.63 1308.51 1539.65 Q1305.78 1542.68 1305.78 1547.9 L1305.78 1568.04 L1299.89 1568.04 L1299.89 1532.4 L1305.78 1532.4 L1305.78 1537.93 Q1307.88 1534.72 1310.71 1533.13 Q1313.57 1531.54 1317.3 1531.54 Q1323.44 1531.54 1326.59 1535.36 Q1329.74 1539.14 1329.74 1546.53 Z" fill="#000000" fill-rule="evenodd" fill-opacity="1" /><polyline clip-path="url(#clip182)" style="stroke:#000000; stroke-linecap:butt; stroke-linejoin:round; stroke-width:2; stroke-opacity:0.1; fill:none" points="
  276.876,1241.08 2352.76,1241.08 
  "/>
<polyline clip-path="url(#clip182)" style="stroke:#000000; stroke-linecap:butt; stroke-linejoin:round; stroke-width:2; stroke-opacity:0.1; fill:none" points="
  276.876,829.743 2352.76,829.743 
  "/>
<polyline clip-path="url(#clip182)" style="stroke:#000000; stroke-linecap:butt; stroke-linejoin:round; stroke-width:2; stroke-opacity:0.1; fill:none" points="
  276.876,418.408 2352.76,418.408 
  "/>
<polyline clip-path="url(#clip180)" style="stroke:#000000; stroke-linecap:butt; stroke-linejoin:round; stroke-width:4; stroke-opacity:1; fill:none" points="
  276.876,1423.18 276.876,47.2441 
  "/>
<polyline clip-path="url(#clip180)" style="stroke:#000000; stroke-linecap:butt; stroke-linejoin:round; stroke-width:4; stroke-opacity:1; fill:none" points="
  276.876,1241.08 295.773,1241.08 
  "/>
<polyline clip-path="url(#clip180)" style="stroke:#000000; stroke-linecap:butt; stroke-linejoin:round; stroke-width:4; stroke-opacity:1; fill:none" points="
  276.876,829.743 295.773,829.743 
  "/>
<polyline clip-path="url(#clip180)" style="stroke:#000000; stroke-linecap:butt; stroke-linejoin:round; stroke-width:4; stroke-opacity:1; fill:none" points="
  276.876,418.408 295.773,418.408 
  "/>
<path clip-path="url(#clip180)" d="M114.931 1260.87 L122.57 1260.87 L122.57 1234.51 L114.26 1236.17 L114.26 1231.91 L122.524 1230.25 L127.2 1230.25 L127.2 1260.87 L134.839 1260.87 L134.839 1264.81 L114.931 1264.81 L114.931 1260.87 Z" fill="#000000" fill-rule="evenodd" fill-opacity="1" /><path clip-path="url(#clip180)" d="M154.283 1233.33 Q150.672 1233.33 148.843 1236.89 Q147.038 1240.43 147.038 1247.56 Q147.038 1254.67 148.843 1258.23 Q150.672 1261.77 154.283 1261.77 Q157.917 1261.77 159.723 1258.23 Q161.552 1254.67 161.552 1247.56 Q161.552 1240.43 159.723 1236.89 Q157.917 1233.33 154.283 1233.33 M154.283 1229.62 Q160.093 1229.62 163.149 1234.23 Q166.227 1238.81 166.227 1247.56 Q166.227 1256.29 163.149 1260.89 Q160.093 1265.48 154.283 1265.48 Q148.473 1265.48 145.394 1260.89 Q142.339 1256.29 142.339 1247.56 Q142.339 1238.81 145.394 1234.23 Q148.473 1229.62 154.283 1229.62 Z" fill="#000000" fill-rule="evenodd" fill-opacity="1" /><path clip-path="url(#clip180)" d="M166.227 1223.72 L190.339 1223.72 L190.339 1226.92 L166.227 1226.92 L166.227 1223.72 Z" fill="#000000" fill-rule="evenodd" fill-opacity="1" /><path clip-path="url(#clip180)" d="M199.197 1234.2 L205.404 1234.2 L205.404 1212.78 L198.652 1214.13 L198.652 1210.67 L205.366 1209.32 L209.166 1209.32 L209.166 1234.2 L215.372 1234.2 L215.372 1237.4 L199.197 1237.4 L199.197 1234.2 Z" fill="#000000" fill-rule="evenodd" fill-opacity="1" /><path clip-path="url(#clip180)" d="M231.171 1211.82 Q228.237 1211.82 226.751 1214.71 Q225.284 1217.59 225.284 1223.38 Q225.284 1229.16 226.751 1232.06 Q228.237 1234.93 231.171 1234.93 Q234.124 1234.93 235.591 1232.06 Q237.076 1229.16 237.076 1223.38 Q237.076 1217.59 235.591 1214.71 Q234.124 1211.82 231.171 1211.82 M231.171 1208.81 Q235.891 1208.81 238.374 1212.55 Q240.876 1216.28 240.876 1223.38 Q240.876 1230.48 238.374 1234.22 Q235.891 1237.94 231.171 1237.94 Q226.45 1237.94 223.949 1234.22 Q221.466 1230.48 221.466 1223.38 Q221.466 1216.28 223.949 1212.55 Q226.45 1208.81 231.171 1208.81 Z" fill="#000000" fill-rule="evenodd" fill-opacity="1" /><path clip-path="url(#clip180)" d="M140.247 849.536 L147.886 849.536 L147.886 823.17 L139.575 824.837 L139.575 820.578 L147.839 818.911 L152.515 818.911 L152.515 849.536 L160.154 849.536 L160.154 853.471 L140.247 853.471 L140.247 849.536 Z" fill="#000000" fill-rule="evenodd" fill-opacity="1" /><path clip-path="url(#clip180)" d="M179.598 821.99 Q175.987 821.99 174.159 825.555 Q172.353 829.096 172.353 836.226 Q172.353 843.332 174.159 846.897 Q175.987 850.439 179.598 850.439 Q183.233 850.439 185.038 846.897 Q186.867 843.332 186.867 836.226 Q186.867 829.096 185.038 825.555 Q183.233 821.99 179.598 821.99 M179.598 818.286 Q185.409 818.286 188.464 822.893 Q191.543 827.476 191.543 836.226 Q191.543 844.953 188.464 849.559 Q185.409 854.142 179.598 854.142 Q173.788 854.142 170.71 849.559 Q167.654 844.953 167.654 836.226 Q167.654 827.476 170.71 822.893 Q173.788 818.286 179.598 818.286 Z" fill="#000000" fill-rule="evenodd" fill-opacity="1" /><path clip-path="url(#clip180)" d="M191.543 812.387 L215.654 812.387 L215.654 815.585 L191.543 815.585 L191.543 812.387 Z" fill="#000000" fill-rule="evenodd" fill-opacity="1" /><path clip-path="url(#clip180)" d="M223.892 797.981 L238.807 797.981 L238.807 801.178 L227.372 801.178 L227.372 808.062 Q228.199 807.78 229.027 807.648 Q229.854 807.497 230.682 807.497 Q235.384 807.497 238.13 810.074 Q240.876 812.651 240.876 817.052 Q240.876 821.584 238.054 824.105 Q235.233 826.606 230.099 826.606 Q228.331 826.606 226.488 826.305 Q224.663 826.004 222.707 825.402 L222.707 821.584 Q224.4 822.506 226.205 822.957 Q228.011 823.409 230.023 823.409 Q233.277 823.409 235.177 821.697 Q237.076 819.986 237.076 817.052 Q237.076 814.118 235.177 812.406 Q233.277 810.695 230.023 810.695 Q228.5 810.695 226.977 811.033 Q225.472 811.372 223.892 812.087 L223.892 797.981 Z" fill="#000000" fill-rule="evenodd" fill-opacity="1" /><path clip-path="url(#clip180)" d="M170.17 438.2 L177.809 438.2 L177.809 411.834 L169.499 413.501 L169.499 409.242 L177.762 407.575 L182.438 407.575 L182.438 438.2 L190.077 438.2 L190.077 442.135 L170.17 442.135 L170.17 438.2 Z" fill="#000000" fill-rule="evenodd" fill-opacity="1" /><path clip-path="url(#clip180)" d="M209.522 410.654 Q205.91 410.654 204.082 414.219 Q202.276 417.76 202.276 424.89 Q202.276 431.996 204.082 435.561 Q205.91 439.103 209.522 439.103 Q213.156 439.103 214.961 435.561 Q216.79 431.996 216.79 424.89 Q216.79 417.76 214.961 414.219 Q213.156 410.654 209.522 410.654 M209.522 406.95 Q215.332 406.95 218.387 411.557 Q221.466 416.14 221.466 424.89 Q221.466 433.617 218.387 438.223 Q215.332 442.806 209.522 442.806 Q203.711 442.806 200.633 438.223 Q197.577 433.617 197.577 424.89 Q197.577 416.14 200.633 411.557 Q203.711 406.95 209.522 406.95 Z" fill="#000000" fill-rule="evenodd" fill-opacity="1" /><path clip-path="url(#clip180)" d="M231.171 389.146 Q228.237 389.146 226.751 392.043 Q225.284 394.92 225.284 400.713 Q225.284 406.487 226.751 409.383 Q228.237 412.261 231.171 412.261 Q234.124 412.261 235.591 409.383 Q237.076 406.487 237.076 400.713 Q237.076 394.92 235.591 392.043 Q234.124 389.146 231.171 389.146 M231.171 386.137 Q235.891 386.137 238.374 389.88 Q240.876 393.604 240.876 400.713 Q240.876 407.804 238.374 411.546 Q235.891 415.27 231.171 415.27 Q226.45 415.27 223.949 411.546 Q221.466 407.804 221.466 400.713 Q221.466 393.604 223.949 389.88 Q226.45 386.137 231.171 386.137 Z" fill="#000000" fill-rule="evenodd" fill-opacity="1" /><path clip-path="url(#clip180)" d="M44.7161 779.279 L47.5806 779.279 L47.5806 806.206 Q53.6281 805.824 56.8109 802.577 Q59.9619 799.299 59.9619 793.474 Q59.9619 790.1 59.1344 786.949 Q58.3069 783.766 56.6518 780.647 L62.1899 780.647 Q63.5267 783.798 64.227 787.108 Q64.9272 790.419 64.9272 793.824 Q64.9272 802.354 59.9619 807.351 Q54.9967 812.317 46.5303 812.317 Q37.7774 812.317 32.6531 807.606 Q27.4968 802.864 27.4968 794.843 Q27.4968 787.649 32.1438 783.48 Q36.7589 779.279 44.7161 779.279 M42.9973 785.135 Q38.1912 785.199 35.3266 787.84 Q32.4621 790.45 32.4621 794.779 Q32.4621 799.681 35.2312 802.641 Q38.0002 805.569 43.0292 806.015 L42.9973 785.135 Z" fill="#000000" fill-rule="evenodd" fill-opacity="1" /><path clip-path="url(#clip180)" d="M33.8307 749.01 Q33.2578 749.996 33.0032 751.174 Q32.7167 752.32 32.7167 753.72 Q32.7167 758.686 35.9632 761.359 Q39.1779 764.001 45.2253 764.001 L64.0042 764.001 L64.0042 769.889 L28.3562 769.889 L28.3562 764.001 L33.8944 764.001 Q30.6479 762.155 29.0883 759.195 Q27.4968 756.235 27.4968 752.002 Q27.4968 751.397 27.5923 750.665 Q27.656 749.933 27.8151 749.041 L33.8307 749.01 Z" fill="#000000" fill-rule="evenodd" fill-opacity="1" /><path clip-path="url(#clip180)" d="M33.8307 723.356 Q33.2578 724.343 33.0032 725.52 Q32.7167 726.666 32.7167 728.066 Q32.7167 733.032 35.9632 735.705 Q39.1779 738.347 45.2253 738.347 L64.0042 738.347 L64.0042 744.235 L28.3562 744.235 L28.3562 738.347 L33.8944 738.347 Q30.6479 736.501 29.0883 733.541 Q27.4968 730.581 27.4968 726.348 Q27.4968 725.743 27.5923 725.011 Q27.656 724.279 27.8151 723.388 L33.8307 723.356 Z" fill="#000000" fill-rule="evenodd" fill-opacity="1" /><path clip-path="url(#clip180)" d="M32.4621 704.832 Q32.4621 709.542 36.1542 712.28 Q39.8145 715.017 46.212 715.017 Q52.6095 715.017 56.3017 712.311 Q59.9619 709.574 59.9619 704.832 Q59.9619 700.153 56.2698 697.416 Q52.5777 694.678 46.212 694.678 Q39.8781 694.678 36.186 697.416 Q32.4621 700.153 32.4621 704.832 M27.4968 704.832 Q27.4968 697.193 32.4621 692.832 Q37.4273 688.472 46.212 688.472 Q54.9649 688.472 59.9619 692.832 Q64.9272 697.193 64.9272 704.832 Q64.9272 712.502 59.9619 716.863 Q54.9649 721.191 46.212 721.191 Q37.4273 721.191 32.4621 716.863 Q27.4968 712.502 27.4968 704.832 Z" fill="#000000" fill-rule="evenodd" fill-opacity="1" /><path clip-path="url(#clip180)" d="M33.8307 658.107 Q33.2578 659.094 33.0032 660.272 Q32.7167 661.418 32.7167 662.818 Q32.7167 667.783 35.9632 670.457 Q39.1779 673.099 45.2253 673.099 L64.0042 673.099 L64.0042 678.987 L28.3562 678.987 L28.3562 673.099 L33.8944 673.099 Q30.6479 671.253 29.0883 668.292 Q27.4968 665.332 27.4968 661.099 Q27.4968 660.494 27.5923 659.762 Q27.656 659.03 27.8151 658.139 L33.8307 658.107 Z" fill="#000000" fill-rule="evenodd" fill-opacity="1" /><circle clip-path="url(#clip182)" cx="335.627" cy="86.1857" r="14" fill="#009af9" fill-rule="evenodd" fill-opacity="1" stroke="#000000" stroke-opacity="1" stroke-width="3.2"/>
<circle clip-path="url(#clip182)" cx="553.224" cy="173.464" r="14" fill="#009af9" fill-rule="evenodd" fill-opacity="1" stroke="#000000" stroke-opacity="1" stroke-width="3.2"/>
<circle clip-path="url(#clip182)" cx="770.822" cy="210.01" r="14" fill="#009af9" fill-rule="evenodd" fill-opacity="1" stroke="#000000" stroke-opacity="1" stroke-width="3.2"/>
<circle clip-path="url(#clip182)" cx="988.419" cy="210.01" r="14" fill="#009af9" fill-rule="evenodd" fill-opacity="1" stroke="#000000" stroke-opacity="1" stroke-width="3.2"/>
<circle clip-path="url(#clip182)" cx="1206.02" cy="265.047" r="14" fill="#009af9" fill-rule="evenodd" fill-opacity="1" stroke="#000000" stroke-opacity="1" stroke-width="3.2"/>
<circle clip-path="url(#clip182)" cx="1423.61" cy="319.009" r="14" fill="#009af9" fill-rule="evenodd" fill-opacity="1" stroke="#000000" stroke-opacity="1" stroke-width="3.2"/>
<circle clip-path="url(#clip182)" cx="1641.21" cy="401.053" r="14" fill="#009af9" fill-rule="evenodd" fill-opacity="1" stroke="#000000" stroke-opacity="1" stroke-width="3.2"/>
<circle clip-path="url(#clip182)" cx="1858.81" cy="442.61" r="14" fill="#009af9" fill-rule="evenodd" fill-opacity="1" stroke="#000000" stroke-opacity="1" stroke-width="3.2"/>
<circle clip-path="url(#clip182)" cx="2076.41" cy="1334.71" r="14" fill="#009af9" fill-rule="evenodd" fill-opacity="1" stroke="#000000" stroke-opacity="1" stroke-width="3.2"/>
<circle clip-path="url(#clip182)" cx="2294" cy="1384.24" r="14" fill="#009af9" fill-rule="evenodd" fill-opacity="1" stroke="#000000" stroke-opacity="1" stroke-width="3.2"/>
<polyline clip-path="url(#clip182)" style="stroke:#e26f46; stroke-linecap:butt; stroke-linejoin:round; stroke-width:16; stroke-opacity:1; fill:none" points="
  335.627,457.659 553.224,467.937 770.822,475.91 988.419,482.424 1206.02,487.931 1423.61,492.702 1641.21,496.91 1858.81,500.675 2076.41,504.08 2294,507.189 
  
  "/>
<polyline clip-path="url(#clip182)" style="stroke:#3da44d; stroke-linecap:butt; stroke-linejoin:round; stroke-width:16; stroke-opacity:1; fill:none" points="
  335.627,496.91 553.224,517.467 770.822,533.412 988.419,546.44 1206.02,557.455 1423.61,566.997 1641.21,575.413 1858.81,582.942 2076.41,589.752 2294,595.97 
  
  "/>
<path clip-path="url(#clip180)" d="
M1914.02 404.149 L2283.56 404.149 L2283.56 93.1086 L1914.02 93.1086  Z
  " fill="#ffffff" fill-rule="evenodd" fill-opacity="1"/>
<polyline clip-path="url(#clip180)" style="stroke:#000000; stroke-linecap:butt; stroke-linejoin:round; stroke-width:4; stroke-opacity:1; fill:none" points="
  1914.02,404.149 2283.56,404.149 2283.56,93.1086 1914.02,93.1086 1914.02,404.149 
  "/>
<circle clip-path="url(#clip180)" cx="2006.28" cy="170.869" r="34" fill="#009af9" fill-rule="evenodd" fill-opacity="1" stroke="#000000" stroke-opacity="1" stroke-width="7.68"/>
<path clip-path="url(#clip180)" d="M2129.41 165.504 L2119.3 165.504 L2116.39 177.101 L2126.56 177.101 L2129.41 165.504 M2124.2 145.747 L2120.59 160.157 L2130.73 160.157 L2134.37 145.747 L2139.93 145.747 L2136.35 160.157 L2147.19 160.157 L2147.19 165.504 L2135 165.504 L2132.15 177.101 L2143.19 177.101 L2143.19 182.414 L2130.8 182.414 L2127.19 196.789 L2121.63 196.789 L2125.21 182.414 L2115.03 182.414 L2111.46 196.789 L2105.87 196.789 L2109.48 182.414 L2098.54 182.414 L2098.54 177.101 L2110.76 177.101 L2113.68 165.504 L2102.5 165.504 L2102.5 160.157 L2115.03 160.157 L2118.58 145.747 L2124.2 145.747 Z" fill="#000000" fill-rule="evenodd" fill-opacity="1" /><path clip-path="url(#clip180)" d="M2179.51 151.06 L2161.8 178.733 L2179.51 178.733 L2179.51 151.06 M2177.67 144.949 L2186.49 144.949 L2186.49 178.733 L2193.89 178.733 L2193.89 184.566 L2186.49 184.566 L2186.49 196.789 L2179.51 196.789 L2179.51 184.566 L2156.11 184.566 L2156.11 177.796 L2177.67 144.949 Z" fill="#000000" fill-rule="evenodd" fill-opacity="1" /><path clip-path="url(#clip180)" d="M2226.73 168.837 Q2231.77 169.914 2234.58 173.317 Q2237.43 176.719 2237.43 181.719 Q2237.43 189.393 2232.15 193.594 Q2226.87 197.796 2217.15 197.796 Q2213.89 197.796 2210.42 197.136 Q2206.98 196.511 2203.3 195.226 L2203.3 188.455 Q2206.21 190.157 2209.69 191.025 Q2213.16 191.893 2216.94 191.893 Q2223.54 191.893 2226.98 189.289 Q2230.45 186.685 2230.45 181.719 Q2230.45 177.136 2227.22 174.567 Q2224.03 171.962 2218.3 171.962 L2212.26 171.962 L2212.26 166.199 L2218.58 166.199 Q2223.75 166.199 2226.49 164.15 Q2229.23 162.067 2229.23 158.178 Q2229.23 154.185 2226.39 152.067 Q2223.58 149.914 2218.3 149.914 Q2215.42 149.914 2212.12 150.539 Q2208.82 151.164 2204.86 152.483 L2204.86 146.233 Q2208.85 145.122 2212.33 144.567 Q2215.83 144.011 2218.92 144.011 Q2226.91 144.011 2231.56 147.657 Q2236.21 151.268 2236.21 157.449 Q2236.21 161.754 2233.75 164.74 Q2231.28 167.692 2226.73 168.837 Z" fill="#000000" fill-rule="evenodd" fill-opacity="1" /><polyline clip-path="url(#clip180)" style="stroke:#e26f46; stroke-linecap:butt; stroke-linejoin:round; stroke-width:6; stroke-opacity:1; fill:none" points="
  1937.08,248.629 2075.48,248.629 
  "/>
<path clip-path="url(#clip180)" d="M2137.54 275.676 Q2137.54 275.957 2137.22 277.046 Q2136.91 278.135 2136.13 279.822 Q2135.4 281.508 2134.38 283.054 Q2133.36 284.565 2131.67 285.689 Q2130.02 286.778 2128.12 286.778 Q2125.59 286.778 2123.91 285.092 Q2122.22 283.405 2122.22 280.876 Q2122.22 279.47 2122.96 277.538 Q2127.63 265.066 2127.63 260.779 Q2127.63 255.755 2123.73 255.755 Q2121.8 255.755 2119.97 256.493 Q2118.18 257.196 2116.95 258.179 Q2115.72 259.163 2114.6 260.533 Q2113.51 261.869 2112.95 262.782 Q2112.42 263.66 2112 264.539 L2111.08 268.122 Q2110.87 269.106 2109.85 272.936 L2108.27 279.435 Q2107.15 284.284 2106.9 284.741 Q2106.55 285.724 2105.78 286.251 Q2105.01 286.778 2104.23 286.778 Q2103.35 286.778 2102.76 286.251 Q2102.16 285.724 2102.16 284.811 Q2102.16 284.67 2102.27 284.143 Q2102.37 283.616 2102.55 282.878 Q2102.72 282.141 2102.79 281.719 L2106.97 265.101 Q2107.75 262.079 2107.92 261.131 Q2108.13 260.147 2108.13 259.058 Q2108.13 255.755 2105.88 255.755 Q2104.06 255.755 2102.86 257.934 Q2101.67 260.112 2100.65 264.328 Q2100.33 265.487 2100.12 265.733 Q2099.95 265.979 2099.42 265.979 Q2098.54 265.944 2098.54 265.241 Q2098.54 265.066 2098.82 263.906 Q2099.1 262.747 2099.63 261.096 Q2100.19 259.409 2100.72 258.285 Q2101.18 257.442 2101.42 257.055 Q2101.7 256.634 2102.37 255.826 Q2103.07 254.982 2103.99 254.596 Q2104.94 254.174 2106.09 254.174 Q2108.69 254.174 2110.59 255.861 Q2112.49 257.512 2112.74 260.428 Q2117.41 254.174 2123.94 254.174 Q2127.81 254.174 2130.02 256.212 Q2132.23 258.25 2132.23 261.869 Q2132.23 262.712 2132.06 263.801 Q2131.92 264.855 2131.57 266.19 Q2131.25 267.525 2130.97 268.544 Q2130.69 269.563 2130.13 271.214 Q2129.56 272.83 2129.32 273.533 Q2129.07 274.236 2128.47 275.887 Q2127.91 277.503 2127.84 277.679 Q2126.54 280.946 2126.54 282.808 Q2126.54 284.038 2126.93 284.6 Q2127.35 285.162 2128.26 285.162 Q2130.72 285.162 2132.55 282.738 Q2134.41 280.279 2135.61 276.273 Q2135.89 275.395 2136.03 275.184 Q2136.2 274.973 2136.7 274.973 Q2137.54 274.973 2137.54 275.676 Z" fill="#000000" fill-rule="evenodd" fill-opacity="1" /><path clip-path="url(#clip180)" d="M2178.1 251.149 Q2178.39 251.444 2178.39 251.862 Q2178.39 252.28 2178.1 252.576 Q2177.8 252.871 2177.38 252.871 L2145.85 252.871 Q2145.44 252.871 2145.14 252.576 Q2144.85 252.28 2144.85 251.862 Q2144.85 251.444 2145.14 251.149 Q2145.44 250.854 2145.85 250.854 L2177.38 250.854 Q2177.8 250.854 2178.1 251.149 Z" fill="#000000" fill-rule="evenodd" fill-opacity="1" /><path clip-path="url(#clip180)" d="M2183.65 235.704 L2183.65 234.13 Q2189.7 234.13 2192.82 230.909 Q2193.68 230.909 2193.83 231.105 Q2193.98 231.302 2193.98 232.212 L2193.98 260.47 Q2193.98 261.97 2194.72 262.438 Q2195.45 262.905 2198.68 262.905 L2200.27 262.905 L2200.27 264.454 Q2198.5 264.307 2192.11 264.307 Q2185.71 264.307 2183.97 264.454 L2183.97 262.905 L2185.57 262.905 Q2188.74 262.905 2189.5 262.462 Q2190.26 261.995 2190.26 260.47 L2190.26 234.376 Q2187.63 235.704 2183.65 235.704 Z" fill="#000000" fill-rule="evenodd" fill-opacity="1" /><polyline clip-path="url(#clip180)" style="stroke:#3da44d; stroke-linecap:butt; stroke-linejoin:round; stroke-width:6; stroke-opacity:1; fill:none" points="
  1937.08,326.389 2075.48,326.389 
  "/>
<path clip-path="url(#clip180)" d="M2137.54 353.436 Q2137.54 353.717 2137.22 354.806 Q2136.91 355.895 2136.13 357.582 Q2135.4 359.268 2134.38 360.814 Q2133.36 362.325 2131.67 363.449 Q2130.02 364.538 2128.12 364.538 Q2125.59 364.538 2123.91 362.852 Q2122.22 361.165 2122.22 358.636 Q2122.22 357.23 2122.96 355.298 Q2127.63 342.826 2127.63 338.539 Q2127.63 333.515 2123.73 333.515 Q2121.8 333.515 2119.97 334.253 Q2118.18 334.956 2116.95 335.939 Q2115.72 336.923 2114.6 338.293 Q2113.51 339.629 2112.95 340.542 Q2112.42 341.42 2112 342.299 L2111.08 345.882 Q2110.87 346.866 2109.85 350.696 L2108.27 357.195 Q2107.15 362.044 2106.9 362.501 Q2106.55 363.484 2105.78 364.011 Q2105.01 364.538 2104.23 364.538 Q2103.35 364.538 2102.76 364.011 Q2102.16 363.484 2102.16 362.571 Q2102.16 362.43 2102.27 361.903 Q2102.37 361.376 2102.55 360.638 Q2102.72 359.901 2102.79 359.479 L2106.97 342.861 Q2107.75 339.839 2107.92 338.891 Q2108.13 337.907 2108.13 336.818 Q2108.13 333.515 2105.88 333.515 Q2104.06 333.515 2102.86 335.694 Q2101.67 337.872 2100.65 342.088 Q2100.33 343.247 2100.12 343.493 Q2099.95 343.739 2099.42 343.739 Q2098.54 343.704 2098.54 343.001 Q2098.54 342.826 2098.82 341.666 Q2099.1 340.507 2099.63 338.856 Q2100.19 337.169 2100.72 336.045 Q2101.18 335.202 2101.42 334.815 Q2101.7 334.394 2102.37 333.586 Q2103.07 332.742 2103.99 332.356 Q2104.94 331.934 2106.09 331.934 Q2108.69 331.934 2110.59 333.621 Q2112.49 335.272 2112.74 338.188 Q2117.41 331.934 2123.94 331.934 Q2127.81 331.934 2130.02 333.972 Q2132.23 336.01 2132.23 339.629 Q2132.23 340.472 2132.06 341.561 Q2131.92 342.615 2131.57 343.95 Q2131.25 345.285 2130.97 346.304 Q2130.69 347.323 2130.13 348.974 Q2129.56 350.59 2129.32 351.293 Q2129.07 351.996 2128.47 353.647 Q2127.91 355.263 2127.84 355.439 Q2126.54 358.706 2126.54 360.568 Q2126.54 361.798 2126.93 362.36 Q2127.35 362.922 2128.26 362.922 Q2130.72 362.922 2132.55 360.498 Q2134.41 358.039 2135.61 354.033 Q2135.89 353.155 2136.03 352.944 Q2136.2 352.733 2136.7 352.733 Q2137.54 352.733 2137.54 353.436 Z" fill="#000000" fill-rule="evenodd" fill-opacity="1" /><path clip-path="url(#clip180)" d="M2178.1 328.909 Q2178.39 329.204 2178.39 329.622 Q2178.39 330.04 2178.1 330.336 Q2177.8 330.631 2177.38 330.631 L2145.85 330.631 Q2145.44 330.631 2145.14 330.336 Q2144.85 330.04 2144.85 329.622 Q2144.85 329.204 2145.14 328.909 Q2145.44 328.614 2145.85 328.614 L2177.38 328.614 Q2177.8 328.614 2178.1 328.909 Z" fill="#000000" fill-rule="evenodd" fill-opacity="1" /><path clip-path="url(#clip180)" d="M2183.65 342.214 Q2183.65 341.304 2183.72 341.034 Q2183.82 340.763 2184.21 340.345 L2193.88 329.573 Q2199.17 323.622 2199.17 318.432 Q2199.17 315.063 2197.4 312.653 Q2195.65 310.243 2192.43 310.243 Q2190.22 310.243 2188.35 311.595 Q2186.48 312.948 2185.62 315.358 Q2185.76 315.309 2186.28 315.309 Q2187.53 315.309 2188.22 316.096 Q2188.94 316.883 2188.94 317.94 Q2188.94 319.293 2188.05 319.957 Q2187.19 320.597 2186.33 320.597 Q2185.99 320.597 2185.52 320.523 Q2185.08 320.449 2184.36 319.76 Q2183.65 319.047 2183.65 317.793 Q2183.65 314.276 2186.31 311.472 Q2188.99 308.669 2193.07 308.669 Q2197.69 308.669 2200.72 311.423 Q2203.77 314.153 2203.77 318.432 Q2203.77 319.933 2203.3 321.31 Q2202.86 322.662 2202.24 323.72 Q2201.65 324.777 2200.03 326.474 Q2198.41 328.171 2197.1 329.376 Q2195.8 330.582 2192.87 333.139 L2187.53 338.328 L2196.61 338.328 Q2201.04 338.328 2201.38 337.935 Q2201.87 337.222 2202.49 333.459 L2203.77 333.459 L2202.34 342.214 L2183.65 342.214 Z" fill="#000000" fill-rule="evenodd" fill-opacity="1" /></svg>
