<?xml version="1.0" encoding="utf-8"?>
<svg xmlns="http://www.w3.org/2000/svg" xmlns:xlink="http://www.w3.org/1999/xlink" width="600" height="400" viewBox="0 0 2400 1600">
<defs>
  <clipPath id="clip300">
    <rect x="0" y="0" width="2400" height="1600"/>
  </clipPath>
</defs>
<path clip-path="url(#clip300)" d="
M0 1600 L2400 1600 L2400 0 L0 0  Z
  " fill="#ffffff" fill-rule="evenodd" fill-opacity="1"/>
<defs>
  <clipPath id="clip301">
    <rect x="480" y="0" width="1681" height="1600"/>
  </clipPath>
</defs>
<defs>
  <clipPath id="clip302">
    <rect x="147" y="47" width="2206" height="1440"/>
  </clipPath>
</defs>
<path clip-path="url(#clip300)" d="
M187.803 1486.45 L2352.76 1486.45 L2352.76 47.2441 L187.803 47.2441  Z
  " fill="#ffffff" fill-rule="evenodd" fill-opacity="1"/>
<defs>
  <clipPath id="clip303">
    <rect x="187" y="47" width="2166" height="1440"/>
  </clipPath>
</defs>
<polyline clip-path="url(#clip303)" style="stroke:#000000; stroke-linecap:round; stroke-linejoin:round; stroke-width:2; stroke-opacity:0.1; fill:none" points="
  521.397,1486.45 521.397,47.2441 
  "/>
<polyline clip-path="url(#clip303)" style="stroke:#000000; stroke-linecap:round; stroke-linejoin:round; stroke-width:2; stroke-opacity:0.1; fill:none" points="
  929.878,1486.45 929.878,47.2441 
  "/>
<polyline clip-path="url(#clip303)" style="stroke:#000000; stroke-linecap:round; stroke-linejoin:round; stroke-width:2; stroke-opacity:0.1; fill:none" points="
  1338.36,1486.45 1338.36,47.2441 
  "/>
<polyline clip-path="url(#clip303)" style="stroke:#000000; stroke-linecap:round; stroke-linejoin:round; stroke-width:2; stroke-opacity:0.1; fill:none" points="
  1746.84,1486.45 1746.84,47.2441 
  "/>
<polyline clip-path="url(#clip303)" style="stroke:#000000; stroke-linecap:round; stroke-linejoin:round; stroke-width:2; stroke-opacity:0.1; fill:none" points="
  2155.32,1486.45 2155.32,47.2441 
  "/>
<polyline clip-path="url(#clip300)" style="stroke:#000000; stroke-linecap:round; stroke-linejoin:round; stroke-width:4; stroke-opacity:1; fill:none" points="
  187.803,1486.45 2352.76,1486.45 
  "/>
<polyline clip-path="url(#clip300)" style="stroke:#000000; stroke-linecap:round; stroke-linejoin:round; stroke-width:4; stroke-opacity:1; fill:none" points="
  521.397,1486.45 521.397,1467.55 
  "/>
<polyline clip-path="url(#clip300)" style="stroke:#000000; stroke-linecap:round; stroke-linejoin:round; stroke-width:4; stroke-opacity:1; fill:none" points="
  929.878,1486.45 929.878,1467.55 
  "/>
<polyline clip-path="url(#clip300)" style="stroke:#000000; stroke-linecap:round; stroke-linejoin:round; stroke-width:4; stroke-opacity:1; fill:none" points="
  1338.36,1486.45 1338.36,1467.55 
  "/>
<polyline clip-path="url(#clip300)" style="stroke:#000000; stroke-linecap:round; stroke-linejoin:round; stroke-width:4; stroke-opacity:1; fill:none" points="
  1746.84,1486.45 1746.84,1467.55 
  "/>
<polyline clip-path="url(#clip300)" style="stroke:#000000; stroke-linecap:round; stroke-linejoin:round; stroke-width:4; stroke-opacity:1; fill:none" points="
  2155.32,1486.45 2155.32,1467.55 
  "/>
<path clip-path="url(#clip300)" d="M525.644 1530.21 Q529.001 1530.93 530.876 1533.2 Q532.774 1535.47 532.774 1538.8 Q532.774 1543.92 529.255 1546.72 Q525.737 1549.52 519.255 1549.52 Q517.079 1549.52 514.765 1549.08 Q512.473 1548.66 510.019 1547.81 L510.019 1543.29 Q511.964 1544.43 514.279 1545.01 Q516.593 1545.58 519.116 1545.58 Q523.515 1545.58 525.806 1543.85 Q528.121 1542.11 528.121 1538.8 Q528.121 1535.75 525.968 1534.03 Q523.839 1532.3 520.019 1532.3 L515.991 1532.3 L515.991 1528.45 L520.204 1528.45 Q523.653 1528.45 525.482 1527.09 Q527.311 1525.7 527.311 1523.11 Q527.311 1520.45 525.413 1519.03 Q523.538 1517.6 520.019 1517.6 Q518.098 1517.6 515.899 1518.01 Q513.7 1518.43 511.061 1519.31 L511.061 1515.14 Q513.723 1514.4 516.038 1514.03 Q518.376 1513.66 520.436 1513.66 Q525.76 1513.66 528.862 1516.09 Q531.964 1518.5 531.964 1522.62 Q531.964 1525.49 530.32 1527.48 Q528.677 1529.45 525.644 1530.21 Z" fill="#000000" fill-rule="evenodd" fill-opacity="1" /><path clip-path="url(#clip300)" d="M930.283 1529.7 Q927.135 1529.7 925.283 1531.86 Q923.455 1534.01 923.455 1537.76 Q923.455 1541.49 925.283 1543.66 Q927.135 1545.82 930.283 1545.82 Q933.431 1545.82 935.26 1543.66 Q937.112 1541.49 937.112 1537.76 Q937.112 1534.01 935.26 1531.86 Q933.431 1529.7 930.283 1529.7 M939.566 1515.05 L939.566 1519.31 Q937.806 1518.48 936.001 1518.04 Q934.218 1517.6 932.459 1517.6 Q927.83 1517.6 925.376 1520.72 Q922.945 1523.85 922.598 1530.17 Q923.964 1528.15 926.024 1527.09 Q928.084 1526 930.561 1526 Q935.769 1526 938.779 1529.17 Q941.811 1532.32 941.811 1537.76 Q941.811 1543.08 938.663 1546.3 Q935.515 1549.52 930.283 1549.52 Q924.288 1549.52 921.117 1544.94 Q917.945 1540.33 917.945 1531.6 Q917.945 1523.41 921.834 1518.55 Q925.723 1513.66 932.274 1513.66 Q934.033 1513.66 935.816 1514.01 Q937.621 1514.36 939.566 1515.05 Z" fill="#000000" fill-rule="evenodd" fill-opacity="1" /><path clip-path="url(#clip300)" d="M1328.66 1548.13 L1328.66 1543.87 Q1330.42 1544.7 1332.23 1545.14 Q1334.03 1545.58 1335.77 1545.58 Q1340.4 1545.58 1342.83 1542.48 Q1345.28 1539.36 1345.63 1533.01 Q1344.29 1535.01 1342.23 1536.07 Q1340.17 1537.13 1337.67 1537.13 Q1332.48 1537.13 1329.45 1534.01 Q1326.44 1530.86 1326.44 1525.42 Q1326.44 1520.1 1329.59 1516.88 Q1332.73 1513.66 1337.97 1513.66 Q1343.96 1513.66 1347.11 1518.27 Q1350.28 1522.85 1350.28 1531.6 Q1350.28 1539.77 1346.39 1544.66 Q1342.53 1549.52 1335.98 1549.52 Q1334.22 1549.52 1332.41 1549.17 Q1330.61 1548.82 1328.66 1548.13 M1337.97 1533.48 Q1341.11 1533.48 1342.94 1531.32 Q1344.79 1529.17 1344.79 1525.42 Q1344.79 1521.7 1342.94 1519.54 Q1341.11 1517.37 1337.97 1517.37 Q1334.82 1517.37 1332.97 1519.54 Q1331.14 1521.7 1331.14 1525.42 Q1331.14 1529.17 1332.97 1531.32 Q1334.82 1533.48 1337.97 1533.48 Z" fill="#000000" fill-rule="evenodd" fill-opacity="1" /><path clip-path="url(#clip300)" d="M1722.33 1544.91 L1729.97 1544.91 L1729.97 1518.55 L1721.66 1520.21 L1721.66 1515.95 L1729.92 1514.29 L1734.6 1514.29 L1734.6 1544.91 L1742.24 1544.91 L1742.24 1548.85 L1722.33 1548.85 L1722.33 1544.91 Z" fill="#000000" fill-rule="evenodd" fill-opacity="1" /><path clip-path="url(#clip300)" d="M1755.71 1544.91 L1772.03 1544.91 L1772.03 1548.85 L1750.08 1548.85 L1750.08 1544.91 Q1752.74 1542.16 1757.33 1537.53 Q1761.93 1532.88 1763.11 1531.53 Q1765.36 1529.01 1766.24 1527.27 Q1767.14 1525.51 1767.14 1523.82 Q1767.14 1521.07 1765.2 1519.33 Q1763.28 1517.6 1760.17 1517.6 Q1757.98 1517.6 1755.52 1518.36 Q1753.09 1519.13 1750.31 1520.68 L1750.31 1515.95 Q1753.14 1514.82 1755.59 1514.24 Q1758.05 1513.66 1760.08 1513.66 Q1765.45 1513.66 1768.65 1516.35 Q1771.84 1519.03 1771.84 1523.52 Q1771.84 1525.65 1771.03 1527.57 Q1770.24 1529.47 1768.14 1532.07 Q1767.56 1532.74 1764.46 1535.95 Q1761.36 1539.15 1755.71 1544.91 Z" fill="#000000" fill-rule="evenodd" fill-opacity="1" /><path clip-path="url(#clip300)" d="M2130.51 1544.91 L2138.15 1544.91 L2138.15 1518.55 L2129.84 1520.21 L2129.84 1515.95 L2138.1 1514.29 L2142.78 1514.29 L2142.78 1544.91 L2150.42 1544.91 L2150.42 1548.85 L2130.51 1548.85 L2130.51 1544.91 Z" fill="#000000" fill-rule="evenodd" fill-opacity="1" /><path clip-path="url(#clip300)" d="M2159.91 1514.29 L2178.26 1514.29 L2178.26 1518.22 L2164.19 1518.22 L2164.19 1526.7 Q2165.21 1526.35 2166.23 1526.19 Q2167.24 1526 2168.26 1526 Q2174.05 1526 2177.43 1529.17 Q2180.81 1532.34 2180.81 1537.76 Q2180.81 1543.34 2177.34 1546.44 Q2173.86 1549.52 2167.55 1549.52 Q2165.37 1549.52 2163.1 1549.15 Q2160.86 1548.78 2158.45 1548.04 L2158.45 1543.34 Q2160.53 1544.47 2162.75 1545.03 Q2164.98 1545.58 2167.45 1545.58 Q2171.46 1545.58 2173.8 1543.48 Q2176.13 1541.37 2176.13 1537.76 Q2176.13 1534.15 2173.8 1532.04 Q2171.46 1529.94 2167.45 1529.94 Q2165.58 1529.94 2163.7 1530.35 Q2161.85 1530.77 2159.91 1531.65 L2159.91 1514.29 Z" fill="#000000" fill-rule="evenodd" fill-opacity="1" /><polyline clip-path="url(#clip303)" style="stroke:#000000; stroke-linecap:round; stroke-linejoin:round; stroke-width:2; stroke-opacity:0.1; fill:none" points="
  187.803,1016.14 2352.76,1016.14 
  "/>
<polyline clip-path="url(#clip303)" style="stroke:#000000; stroke-linecap:round; stroke-linejoin:round; stroke-width:2; stroke-opacity:0.1; fill:none" points="
  187.803,132.463 2352.76,132.463 
  "/>
<polyline clip-path="url(#clip300)" style="stroke:#000000; stroke-linecap:round; stroke-linejoin:round; stroke-width:4; stroke-opacity:1; fill:none" points="
  187.803,1486.45 187.803,47.2441 
  "/>
<polyline clip-path="url(#clip300)" style="stroke:#000000; stroke-linecap:round; stroke-linejoin:round; stroke-width:4; stroke-opacity:1; fill:none" points="
  187.803,1016.14 206.701,1016.14 
  "/>
<polyline clip-path="url(#clip300)" style="stroke:#000000; stroke-linecap:round; stroke-linejoin:round; stroke-width:4; stroke-opacity:1; fill:none" points="
  187.803,132.463 206.701,132.463 
  "/>
<path clip-path="url(#clip300)" d="M51.6634 1035.93 L59.3023 1035.93 L59.3023 1009.57 L50.9921 1011.23 L50.9921 1006.97 L59.256 1005.31 L63.9319 1005.31 L63.9319 1035.93 L71.5707 1035.93 L71.5707 1039.87 L51.6634 1039.87 L51.6634 1035.93 Z" fill="#000000" fill-rule="evenodd" fill-opacity="1" /><path clip-path="url(#clip300)" d="M91.0151 1008.39 Q87.404 1008.39 85.5753 1011.95 Q83.7697 1015.49 83.7697 1022.62 Q83.7697 1029.73 85.5753 1033.29 Q87.404 1036.84 91.0151 1036.84 Q94.6493 1036.84 96.4548 1033.29 Q98.2835 1029.73 98.2835 1022.62 Q98.2835 1015.49 96.4548 1011.95 Q94.6493 1008.39 91.0151 1008.39 M91.0151 1004.68 Q96.8252 1004.68 99.8808 1009.29 Q102.959 1013.87 102.959 1022.62 Q102.959 1031.35 99.8808 1035.96 Q96.8252 1040.54 91.0151 1040.54 Q85.2049 1040.54 82.1262 1035.96 Q79.0707 1031.35 79.0707 1022.62 Q79.0707 1013.87 82.1262 1009.29 Q85.2049 1004.68 91.0151 1004.68 Z" fill="#000000" fill-rule="evenodd" fill-opacity="1" /><path clip-path="url(#clip300)" d="M102.959 998.784 L127.071 998.784 L127.071 1001.98 L102.959 1001.98 L102.959 998.784 Z" fill="#000000" fill-rule="evenodd" fill-opacity="1" /><path clip-path="url(#clip300)" d="M138.544 1009.26 L151.803 1009.26 L151.803 1012.46 L133.973 1012.46 L133.973 1009.26 Q136.136 1007.02 139.86 1003.26 Q143.603 999.48 144.562 998.389 Q146.387 996.339 147.101 994.928 Q147.835 993.499 147.835 992.126 Q147.835 989.888 146.255 988.477 Q144.694 987.067 142.174 987.067 Q140.387 987.067 138.393 987.687 Q136.418 988.308 134.162 989.568 L134.162 985.731 Q136.456 984.81 138.45 984.34 Q140.443 983.869 142.098 983.869 Q146.462 983.869 149.057 986.051 Q151.653 988.233 151.653 991.882 Q151.653 993.612 150.994 995.173 Q150.355 996.715 148.644 998.822 Q148.173 999.367 145.653 1001.98 Q143.133 1004.58 138.544 1009.26 Z" fill="#000000" fill-rule="evenodd" fill-opacity="1" /><path clip-path="url(#clip300)" d="M81.0976 152.256 L88.7364 152.256 L88.7364 125.89 L80.4263 127.557 L80.4263 123.297 L88.6901 121.631 L93.366 121.631 L93.366 152.256 L101.005 152.256 L101.005 156.191 L81.0976 156.191 L81.0976 152.256 Z" fill="#000000" fill-rule="evenodd" fill-opacity="1" /><path clip-path="url(#clip300)" d="M120.449 124.709 Q116.838 124.709 115.009 128.274 Q113.204 131.816 113.204 138.945 Q113.204 146.052 115.009 149.617 Q116.838 153.158 120.449 153.158 Q124.083 153.158 125.889 149.617 Q127.718 146.052 127.718 138.945 Q127.718 131.816 125.889 128.274 Q124.083 124.709 120.449 124.709 M120.449 121.006 Q126.259 121.006 129.315 125.612 Q132.394 130.195 132.394 138.945 Q132.394 147.672 129.315 152.279 Q126.259 156.862 120.449 156.862 Q114.639 156.862 111.56 152.279 Q108.505 147.672 108.505 138.945 Q108.505 130.195 111.56 125.612 Q114.639 121.006 120.449 121.006 Z" fill="#000000" fill-rule="evenodd" fill-opacity="1" /><path clip-path="url(#clip300)" d="M142.098 103.202 Q139.164 103.202 137.679 106.098 Q136.212 108.976 136.212 114.769 Q136.212 120.543 137.679 123.439 Q139.164 126.317 142.098 126.317 Q145.051 126.317 146.518 123.439 Q148.004 120.543 148.004 114.769 Q148.004 108.976 146.518 106.098 Q145.051 103.202 142.098 103.202 M142.098 100.193 Q146.819 100.193 149.302 103.935 Q151.803 107.659 151.803 114.769 Q151.803 121.859 149.302 125.602 Q146.819 129.326 142.098 129.326 Q137.378 129.326 134.876 125.602 Q132.394 121.859 132.394 114.769 Q132.394 107.659 134.876 103.935 Q137.378 100.193 142.098 100.193 Z" fill="#000000" fill-rule="evenodd" fill-opacity="1" /><circle clip-path="url(#clip303)" cx="249.075" cy="87.9763" r="14.4" fill="#009af9" fill-rule="evenodd" fill-opacity="1" stroke="#000000" stroke-opacity="1" stroke-width="3.2"/>
<circle clip-path="url(#clip303)" cx="385.236" cy="104.773" r="14.4" fill="#009af9" fill-rule="evenodd" fill-opacity="1" stroke="#000000" stroke-opacity="1" stroke-width="3.2"/>
<circle clip-path="url(#clip303)" cx="521.397" cy="466.296" r="14.4" fill="#009af9" fill-rule="evenodd" fill-opacity="1" stroke="#000000" stroke-opacity="1" stroke-width="3.2"/>
<circle clip-path="url(#clip303)" cx="657.557" cy="525.409" r="14.4" fill="#009af9" fill-rule="evenodd" fill-opacity="1" stroke="#000000" stroke-opacity="1" stroke-width="3.2"/>
<circle clip-path="url(#clip303)" cx="793.718" cy="615.864" r="14.4" fill="#009af9" fill-rule="evenodd" fill-opacity="1" stroke="#000000" stroke-opacity="1" stroke-width="3.2"/>
<circle clip-path="url(#clip303)" cx="929.878" cy="683.587" r="14.4" fill="#009af9" fill-rule="evenodd" fill-opacity="1" stroke="#000000" stroke-opacity="1" stroke-width="3.2"/>
<circle clip-path="url(#clip303)" cx="1066.04" cy="765.557" r="14.4" fill="#009af9" fill-rule="evenodd" fill-opacity="1" stroke="#000000" stroke-opacity="1" stroke-width="3.2"/>
<circle clip-path="url(#clip303)" cx="1202.2" cy="837.568" r="14.4" fill="#009af9" fill-rule="evenodd" fill-opacity="1" stroke="#000000" stroke-opacity="1" stroke-width="3.2"/>
<circle clip-path="url(#clip303)" cx="1338.36" cy="916.093" r="14.4" fill="#009af9" fill-rule="evenodd" fill-opacity="1" stroke="#000000" stroke-opacity="1" stroke-width="3.2"/>
<circle clip-path="url(#clip303)" cx="1474.52" cy="990.152" r="14.4" fill="#009af9" fill-rule="evenodd" fill-opacity="1" stroke="#000000" stroke-opacity="1" stroke-width="3.2"/>
<circle clip-path="url(#clip303)" cx="1610.68" cy="1067.18" r="14.4" fill="#009af9" fill-rule="evenodd" fill-opacity="1" stroke="#000000" stroke-opacity="1" stroke-width="3.2"/>
<circle clip-path="url(#clip303)" cx="1746.84" cy="1142.19" r="14.4" fill="#009af9" fill-rule="evenodd" fill-opacity="1" stroke="#000000" stroke-opacity="1" stroke-width="3.2"/>
<circle clip-path="url(#clip303)" cx="1883" cy="1218.55" r="14.4" fill="#009af9" fill-rule="evenodd" fill-opacity="1" stroke="#000000" stroke-opacity="1" stroke-width="3.2"/>
<circle clip-path="url(#clip303)" cx="2019.16" cy="1294" r="14.4" fill="#009af9" fill-rule="evenodd" fill-opacity="1" stroke="#000000" stroke-opacity="1" stroke-width="3.2"/>
<circle clip-path="url(#clip303)" cx="2155.32" cy="1370.07" r="14.4" fill="#009af9" fill-rule="evenodd" fill-opacity="1" stroke="#000000" stroke-opacity="1" stroke-width="3.2"/>
<circle clip-path="url(#clip303)" cx="2291.48" cy="1445.72" r="14.4" fill="#009af9" fill-rule="evenodd" fill-opacity="1" stroke="#000000" stroke-opacity="1" stroke-width="3.2"/>
<polyline clip-path="url(#clip303)" style="stroke:#e26f46; stroke-linecap:round; stroke-linejoin:round; stroke-width:16; stroke-opacity:1; fill:none" points="
  249.075,208.278 252.4,210.129 255.724,211.98 259.048,213.831 262.373,215.682 277.742,224.24 293.111,232.797 308.48,241.355 323.849,249.912 339.217,258.47 
  354.586,267.028 369.955,275.585 385.324,284.143 403.797,294.428 422.269,304.714 440.741,314.999 459.213,325.284 474.831,333.981 490.449,342.677 506.067,351.373 
  521.685,360.069 538.651,369.516 555.616,378.962 572.582,388.409 589.548,397.855 605.188,406.564 620.829,415.273 636.47,423.982 652.111,432.691 668.879,442.028 
  685.648,451.365 702.416,460.701 719.185,470.038 738.613,480.856 758.041,491.674 777.469,502.491 796.897,513.309 831.427,532.536 865.958,551.763 896.238,568.623 
  926.518,585.483 959.532,603.865 992.545,622.247 1025.76,640.739 1058.96,659.23 1095.68,679.675 1132.4,700.12 1167.34,719.572 1202.27,739.025 1274.92,779.477 
  1336.08,813.529 1410.74,855.103 1479.14,893.187 1542.31,928.361 1606.3,963.991 1678.02,1003.92 1743,1040.11 1817.4,1081.53 1886.3,1119.89 1954.21,1157.71 
  2020.16,1194.43 2087.76,1232.07 2161.82,1273.31 2269.41,1333.22 2291.48,1345.51 
  "/>
<path clip-path="url(#clip300)" d="
M1665.84 382.962 L2280.59 382.962 L2280.59 95.2176 L1665.84 95.2176  Z
  " fill="#ffffff" fill-rule="evenodd" fill-opacity="1"/>
<polyline clip-path="url(#clip300)" style="stroke:#000000; stroke-linecap:round; stroke-linejoin:round; stroke-width:4; stroke-opacity:1; fill:none" points="
  1665.84,382.962 2280.59,382.962 2280.59,95.2176 1665.84,95.2176 1665.84,382.962 
  "/>
<circle clip-path="url(#clip300)" cx="1762.06" cy="191.132" r="34.56" fill="#009af9" fill-rule="evenodd" fill-opacity="1" stroke="#000000" stroke-opacity="1" stroke-width="7.68"/>
<path clip-path="url(#clip300)" d="M1883.04 163.025 L1883.04 168.337 L1876.93 168.337 Q1873.49 168.337 1872.14 169.726 Q1870.82 171.115 1870.82 174.726 L1870.82 178.164 L1881.34 178.164 L1881.34 183.129 L1870.82 183.129 L1870.82 217.052 L1864.39 217.052 L1864.39 183.129 L1858.28 183.129 L1858.28 178.164 L1864.39 178.164 L1864.39 175.455 Q1864.39 168.962 1867.41 166.011 Q1870.43 163.025 1877 163.025 L1883.04 163.025 Z" fill="#000000" fill-rule="evenodd" fill-opacity="1" /><path clip-path="url(#clip300)" d="M1888.39 178.164 L1894.77 178.164 L1894.77 217.052 L1888.39 217.052 L1888.39 178.164 M1888.39 163.025 L1894.77 163.025 L1894.77 171.115 L1888.39 171.115 L1888.39 163.025 Z" fill="#000000" fill-rule="evenodd" fill-opacity="1" /><path clip-path="url(#clip300)" d="M1940.47 178.164 L1926.41 197.087 L1941.2 217.052 L1933.66 217.052 L1922.34 201.775 L1911.02 217.052 L1903.49 217.052 L1918.59 196.705 L1904.77 178.164 L1912.31 178.164 L1922.62 192.018 L1932.93 178.164 L1940.47 178.164 Z" fill="#000000" fill-rule="evenodd" fill-opacity="1" /><path clip-path="url(#clip300)" d="M1981.3 196.011 L1981.3 199.136 L1951.93 199.136 Q1952.34 205.733 1955.89 209.205 Q1959.46 212.643 1965.82 212.643 Q1969.5 212.643 1972.93 211.74 Q1976.41 210.837 1979.81 209.032 L1979.81 215.073 Q1976.37 216.532 1972.76 217.295 Q1969.15 218.059 1965.43 218.059 Q1956.13 218.059 1950.68 212.643 Q1945.26 207.226 1945.26 197.99 Q1945.26 188.441 1950.4 182.851 Q1955.57 177.226 1964.32 177.226 Q1972.17 177.226 1976.72 182.296 Q1981.3 187.33 1981.3 196.011 M1974.91 194.136 Q1974.84 188.893 1971.96 185.768 Q1969.11 182.643 1964.39 182.643 Q1959.04 182.643 1955.82 185.664 Q1952.62 188.684 1952.14 194.171 L1974.91 194.136 Z" fill="#000000" fill-rule="evenodd" fill-opacity="1" /><path clip-path="url(#clip300)" d="M2017.38 184.066 L2017.38 163.025 L2023.77 163.025 L2023.77 217.052 L2017.38 217.052 L2017.38 211.219 Q2015.36 214.691 2012.27 216.393 Q2009.22 218.059 2004.91 218.059 Q1997.86 218.059 1993.42 212.434 Q1989.01 206.809 1989.01 197.643 Q1989.01 188.476 1993.42 182.851 Q1997.86 177.226 2004.91 177.226 Q2009.22 177.226 2012.27 178.928 Q2015.36 180.594 2017.38 184.066 M1995.61 197.643 Q1995.61 204.691 1998.49 208.719 Q2001.41 212.712 2006.48 212.712 Q2011.54 212.712 2014.46 208.719 Q2017.38 204.691 2017.38 197.643 Q2017.38 190.594 2014.46 186.601 Q2011.54 182.573 2006.48 182.573 Q2001.41 182.573 1998.49 186.601 Q1995.61 190.594 1995.61 197.643 Z" fill="#000000" fill-rule="evenodd" fill-opacity="1" /><path clip-path="url(#clip300)" d="M2065.71 211.219 L2065.71 231.844 L2059.29 231.844 L2059.29 178.164 L2065.71 178.164 L2065.71 184.066 Q2067.72 180.594 2070.78 178.928 Q2073.87 177.226 2078.14 177.226 Q2085.22 177.226 2089.63 182.851 Q2094.08 188.476 2094.08 197.643 Q2094.08 206.809 2089.63 212.434 Q2085.22 218.059 2078.14 218.059 Q2073.87 218.059 2070.78 216.393 Q2067.72 214.691 2065.71 211.219 M2087.45 197.643 Q2087.45 190.594 2084.53 186.601 Q2081.65 182.573 2076.58 182.573 Q2071.51 182.573 2068.59 186.601 Q2065.71 190.594 2065.71 197.643 Q2065.71 204.691 2068.59 208.719 Q2071.51 212.712 2076.58 212.712 Q2081.65 212.712 2084.53 208.719 Q2087.45 204.691 2087.45 197.643 Z" fill="#000000" fill-rule="evenodd" fill-opacity="1" /><path clip-path="url(#clip300)" d="M2119.74 182.643 Q2114.6 182.643 2111.61 186.671 Q2108.63 190.664 2108.63 197.643 Q2108.63 204.622 2111.58 208.65 Q2114.56 212.643 2119.74 212.643 Q2124.84 212.643 2127.83 208.615 Q2130.81 204.587 2130.81 197.643 Q2130.81 190.733 2127.83 186.705 Q2124.84 182.643 2119.74 182.643 M2119.74 177.226 Q2128.07 177.226 2132.83 182.643 Q2137.59 188.059 2137.59 197.643 Q2137.59 207.191 2132.83 212.643 Q2128.07 218.059 2119.74 218.059 Q2111.37 218.059 2106.61 212.643 Q2101.89 207.191 2101.89 197.643 Q2101.89 188.059 2106.61 182.643 Q2111.37 177.226 2119.74 177.226 Z" fill="#000000" fill-rule="evenodd" fill-opacity="1" /><path clip-path="url(#clip300)" d="M2148.18 178.164 L2154.56 178.164 L2154.56 217.052 L2148.18 217.052 L2148.18 178.164 M2148.18 163.025 L2154.56 163.025 L2154.56 171.115 L2148.18 171.115 L2148.18 163.025 Z" fill="#000000" fill-rule="evenodd" fill-opacity="1" /><path clip-path="url(#clip300)" d="M2200.26 193.58 L2200.26 217.052 L2193.87 217.052 L2193.87 193.789 Q2193.87 188.268 2191.72 185.525 Q2189.56 182.782 2185.26 182.782 Q2180.09 182.782 2177.1 186.08 Q2174.11 189.379 2174.11 195.073 L2174.11 217.052 L2167.69 217.052 L2167.69 178.164 L2174.11 178.164 L2174.11 184.205 Q2176.4 180.698 2179.49 178.962 Q2182.62 177.226 2186.68 177.226 Q2193.38 177.226 2196.82 181.393 Q2200.26 185.525 2200.26 193.58 Z" fill="#000000" fill-rule="evenodd" fill-opacity="1" /><path clip-path="url(#clip300)" d="M2219.32 167.122 L2219.32 178.164 L2232.48 178.164 L2232.48 183.129 L2219.32 183.129 L2219.32 204.24 Q2219.32 208.997 2220.61 210.351 Q2221.93 211.705 2225.92 211.705 L2232.48 211.705 L2232.48 217.052 L2225.92 217.052 Q2218.52 217.052 2215.71 214.309 Q2212.9 211.532 2212.9 204.24 L2212.9 183.129 L2208.21 183.129 L2208.21 178.164 L2212.9 178.164 L2212.9 167.122 L2219.32 167.122 Z" fill="#000000" fill-rule="evenodd" fill-opacity="1" /><polyline clip-path="url(#clip300)" style="stroke:#e26f46; stroke-linecap:round; stroke-linejoin:round; stroke-width:6; stroke-opacity:1; fill:none" points="
  1689.9,287.047 1834.23,287.047 
  "/>
<path clip-path="url(#clip300)" d="M1858.28 333.03 L1858.28 266.03 Q1858.28 263.36 1859.72 263.36 Q1861.16 263.36 1861.16 265.503 L1861.16 332.503 Q1861.16 335.173 1859.72 335.173 Q1858.28 335.173 1858.28 333.03 Z" fill="#000000" fill-rule="evenodd" fill-opacity="1" /><path clip-path="url(#clip300)" d="M1902.57 288.832 Q1902.57 288.867 1902.36 290.131 L1894.35 322.068 Q1893.93 323.754 1892.74 325.441 Q1891.58 327.162 1889.72 328.638 Q1887.89 330.149 1885.08 331.062 Q1882.3 332.011 1879.11 332.011 Q1874.01 332.011 1871.76 330.922 Q1869.55 329.868 1869.55 327.619 Q1869.55 325.652 1870.78 324.527 Q1872.01 323.438 1873.41 323.438 Q1874.75 323.438 1875.45 324.211 Q1876.15 324.984 1876.15 325.968 Q1876.15 327.057 1875.42 328.146 Q1874.68 329.27 1873.2 329.692 Q1875.56 330.43 1878.96 330.43 Q1886.17 330.43 1889.26 322.806 Q1889.33 322.7 1889.33 322.665 L1891.72 313.144 L1891.61 313.074 Q1891.02 313.776 1890.07 314.585 Q1889.15 315.357 1887.19 316.306 Q1885.22 317.255 1883.29 317.255 Q1879.25 317.255 1876.47 314.163 Q1873.73 311.036 1873.73 305.871 Q1873.73 302.112 1875.24 298.353 Q1876.79 294.558 1879.18 291.783 Q1881.6 288.972 1884.69 287.215 Q1887.82 285.459 1890.84 285.459 Q1892.95 285.459 1894.74 286.724 Q1896.53 287.953 1897.52 289.991 Q1897.69 288.305 1898.64 287.602 Q1899.62 286.899 1900.47 286.899 Q1901.42 286.899 1901.98 287.426 Q1902.57 287.918 1902.57 288.832 M1896.67 293.223 Q1896.67 293.012 1896.53 292.45 Q1896.39 291.853 1895.97 290.904 Q1895.58 289.956 1894.99 289.113 Q1894.39 288.269 1893.3 287.672 Q1892.25 287.04 1890.91 287.04 Q1888.73 287.04 1886.55 288.867 Q1884.38 290.658 1882.86 293.434 Q1881.46 296.104 1880.12 301.269 Q1878.82 306.433 1878.82 309.069 Q1878.82 311.668 1879.95 313.671 Q1881.07 315.674 1883.5 315.674 Q1886.31 315.674 1889.33 313.074 Q1892.46 310.368 1892.98 308.05 L1896.46 294.312 Q1896.67 293.469 1896.67 293.223 Z" fill="#000000" fill-rule="evenodd" fill-opacity="1" /><path clip-path="url(#clip300)" d="M1909.22 269.473 Q1909.22 267.681 1910.3 266.943 Q1911.39 266.17 1912.55 266.17 Q1913.99 266.17 1914.91 267.049 Q1915.86 267.892 1915.86 269.473 Q1915.86 270.176 1915.79 270.562 L1913.4 292.275 L1911.74 292.275 L1909.29 270.562 Q1909.22 270.176 1909.22 269.473 Z" fill="#000000" fill-rule="evenodd" fill-opacity="1" /><path clip-path="url(#clip300)" d="M1929.01 333.03 L1929.01 266.03 Q1929.01 263.36 1930.46 263.36 Q1931.9 263.36 1931.9 265.503 L1931.9 332.503 Q1931.9 335.173 1930.46 335.173 Q1929.01 335.173 1929.01 333.03 Z" fill="#000000" fill-rule="evenodd" fill-opacity="1" /><path clip-path="url(#clip300)" d="M1962.34 254.622 Q1962.34 256.024 1961.48 256.86 Q1960.64 257.697 1959.58 257.697 Q1958.65 257.697 1958.16 257.156 Q1957.66 256.614 1957.66 255.926 Q1957.66 255.631 1957.79 255.262 Q1957.91 254.868 1958.18 254.401 Q1958.48 253.934 1959.09 253.589 Q1959.71 253.245 1960.54 253.196 Q1960.37 253.024 1960.32 252.999 Q1959.95 252.704 1959.26 252.606 Q1959.16 252.557 1958.82 252.557 Q1957.12 252.557 1955.4 253.811 Q1953.7 255.04 1951.61 257.377 Q1948.98 260.107 1947.29 261.115 Q1954.74 262.099 1954.74 266.403 Q1954.74 267.116 1954.54 267.977 Q1954.15 269.6 1954.15 270.78 Q1954.15 273.141 1955.75 273.141 Q1957.3 273.141 1958.28 271.567 Q1959.29 269.993 1960.12 266.919 Q1960.25 266.354 1960.37 266.181 Q1960.49 266.009 1960.84 266.009 Q1961.45 266.009 1961.45 266.501 Q1960.89 269.379 1959.63 271.592 Q1958.03 274.273 1955.65 274.273 Q1953.66 274.273 1952.33 272.895 Q1951.02 271.494 1951.02 269.28 Q1951.02 268.739 1951.22 267.509 Q1951.37 267.018 1951.37 266.452 Q1951.37 265.296 1950.73 264.435 Q1950.09 263.55 1949.06 263.107 Q1948.02 262.664 1947.16 262.468 Q1946.33 262.246 1945.51 262.173 Q1943.06 272.576 1942.71 273.215 Q1942.49 273.658 1942 273.953 Q1941.51 274.273 1940.99 274.273 Q1940.5 274.273 1940.01 273.928 Q1939.54 273.609 1939.54 272.846 Q1939.54 272.453 1939.74 271.74 L1947.04 242.719 L1947.19 241.735 Q1947.19 241.44 1947.06 241.293 Q1946.97 241.121 1946.38 240.998 Q1945.81 240.875 1944.68 240.875 Q1944.21 240.875 1943.99 240.85 Q1943.79 240.825 1943.62 240.702 Q1943.45 240.555 1943.45 240.26 Q1943.45 239.842 1943.62 239.62 Q1943.82 239.374 1943.97 239.325 Q1944.11 239.276 1944.41 239.251 Q1944.83 239.227 1946.23 239.104 Q1947.63 238.956 1948.83 238.858 Q1950.04 238.76 1950.56 238.76 Q1950.85 238.76 1951 238.907 Q1951.17 239.03 1951.2 239.178 L1951.22 239.301 L1945.98 260.549 Q1948.15 259.689 1951.56 255.877 Q1955.52 251.45 1958.92 251.45 Q1960.52 251.45 1961.43 252.434 Q1962.34 253.393 1962.34 254.622 Z" fill="#000000" fill-rule="evenodd" fill-opacity="1" /></svg>
