<?xml version="1.0" encoding="utf-8"?>
<svg xmlns="http://www.w3.org/2000/svg" xmlns:xlink="http://www.w3.org/1999/xlink" width="800" height="500" viewBox="0 0 3200 2000">
<defs>
  <clipPath id="clip700">
    <rect x="0" y="0" width="3200" height="2000"/>
  </clipPath>
</defs>
<path clip-path="url(#clip700)" d="
M0 2000 L3200 2000 L3200 0 L0 0  Z
  " fill="#ffffff" fill-rule="evenodd" fill-opacity="1"/>
<defs>
  <clipPath id="clip701">
    <rect x="640" y="0" width="2241" height="2000"/>
  </clipPath>
</defs>
<defs>
  <clipPath id="clip702">
    <rect x="201" y="119" width="2952" height="1766"/>
  </clipPath>
</defs>
<path clip-path="url(#clip700)" d="
M201.936 1884.61 L3152.76 1884.61 L3152.76 119.692 L201.936 119.692  Z
  " fill="#ffffff" fill-rule="evenodd" fill-opacity="1"/>
<polyline clip-path="url(#clip702)" style="stroke:#000000; stroke-linecap:round; stroke-linejoin:round; stroke-width:2; stroke-opacity:0.1; fill:none" points="
  285.45,1884.61 285.45,119.692 
  "/>
<polyline clip-path="url(#clip702)" style="stroke:#000000; stroke-linecap:round; stroke-linejoin:round; stroke-width:2; stroke-opacity:0.1; fill:none" points="
  842.208,1884.61 842.208,119.692 
  "/>
<polyline clip-path="url(#clip702)" style="stroke:#000000; stroke-linecap:round; stroke-linejoin:round; stroke-width:2; stroke-opacity:0.1; fill:none" points="
  1398.97,1884.61 1398.97,119.692 
  "/>
<polyline clip-path="url(#clip702)" style="stroke:#000000; stroke-linecap:round; stroke-linejoin:round; stroke-width:2; stroke-opacity:0.1; fill:none" points="
  1955.73,1884.61 1955.73,119.692 
  "/>
<polyline clip-path="url(#clip702)" style="stroke:#000000; stroke-linecap:round; stroke-linejoin:round; stroke-width:2; stroke-opacity:0.1; fill:none" points="
  2512.48,1884.61 2512.48,119.692 
  "/>
<polyline clip-path="url(#clip702)" style="stroke:#000000; stroke-linecap:round; stroke-linejoin:round; stroke-width:2; stroke-opacity:0.1; fill:none" points="
  3069.24,1884.61 3069.24,119.692 
  "/>
<polyline clip-path="url(#clip700)" style="stroke:#000000; stroke-linecap:round; stroke-linejoin:round; stroke-width:4; stroke-opacity:1; fill:none" points="
  201.936,1884.61 3152.76,1884.61 
  "/>
<polyline clip-path="url(#clip700)" style="stroke:#000000; stroke-linecap:round; stroke-linejoin:round; stroke-width:4; stroke-opacity:1; fill:none" points="
  285.45,1884.61 285.45,1865.71 
  "/>
<polyline clip-path="url(#clip700)" style="stroke:#000000; stroke-linecap:round; stroke-linejoin:round; stroke-width:4; stroke-opacity:1; fill:none" points="
  842.208,1884.61 842.208,1865.71 
  "/>
<polyline clip-path="url(#clip700)" style="stroke:#000000; stroke-linecap:round; stroke-linejoin:round; stroke-width:4; stroke-opacity:1; fill:none" points="
  1398.97,1884.61 1398.97,1865.71 
  "/>
<polyline clip-path="url(#clip700)" style="stroke:#000000; stroke-linecap:round; stroke-linejoin:round; stroke-width:4; stroke-opacity:1; fill:none" points="
  1955.73,1884.61 1955.73,1865.71 
  "/>
<polyline clip-path="url(#clip700)" style="stroke:#000000; stroke-linecap:round; stroke-linejoin:round; stroke-width:4; stroke-opacity:1; fill:none" points="
  2512.48,1884.61 2512.48,1865.71 
  "/>
<polyline clip-path="url(#clip700)" style="stroke:#000000; stroke-linecap:round; stroke-linejoin:round; stroke-width:4; stroke-opacity:1; fill:none" points="
  3069.24,1884.61 3069.24,1865.71 
  "/>
<path clip-path="url(#clip700)" d="M285.45 1921.93 Q281.839 1921.93 280.01 1925.49 Q278.204 1929.03 278.204 1936.16 Q278.204 1943.27 280.01 1946.83 Q281.839 1950.38 285.45 1950.38 Q289.084 1950.38 290.89 1946.83 Q292.718 1943.27 292.718 1936.16 Q292.718 1929.03 290.89 1925.49 Q289.084 1921.93 285.45 1921.93 M285.45 1918.22 Q291.26 1918.22 294.315 1922.83 Q297.394 1927.41 297.394 1936.16 Q297.394 1944.89 294.315 1949.5 Q291.26 1954.08 285.45 1954.08 Q279.64 1954.08 276.561 1949.5 Q273.505 1944.89 273.505 1936.16 Q273.505 1927.41 276.561 1922.83 Q279.64 1918.22 285.45 1918.22 Z" fill="#000000" fill-rule="evenodd" fill-opacity="1" /><path clip-path="url(#clip700)" d="M832.59 1949.47 L840.229 1949.47 L840.229 1923.11 L831.919 1924.77 L831.919 1920.51 L840.183 1918.85 L844.859 1918.85 L844.859 1949.47 L852.498 1949.47 L852.498 1953.41 L832.59 1953.41 L832.59 1949.47 Z" fill="#000000" fill-rule="evenodd" fill-opacity="1" /><path clip-path="url(#clip700)" d="M1393.62 1949.47 L1409.94 1949.47 L1409.94 1953.41 L1387.99 1953.41 L1387.99 1949.47 Q1390.66 1946.72 1395.24 1942.09 Q1399.85 1937.44 1401.03 1936.09 Q1403.27 1933.57 1404.15 1931.83 Q1405.05 1930.07 1405.05 1928.38 Q1405.05 1925.63 1403.11 1923.89 Q1401.19 1922.16 1398.09 1922.16 Q1395.89 1922.16 1393.43 1922.92 Q1391 1923.69 1388.23 1925.24 L1388.23 1920.51 Q1391.05 1919.38 1393.5 1918.8 Q1395.96 1918.22 1397.99 1918.22 Q1403.36 1918.22 1406.56 1920.91 Q1409.75 1923.59 1409.75 1928.08 Q1409.75 1930.21 1408.94 1932.13 Q1408.16 1934.03 1406.05 1936.63 Q1405.47 1937.3 1402.37 1940.51 Q1399.27 1943.71 1393.62 1949.47 Z" fill="#000000" fill-rule="evenodd" fill-opacity="1" /><path clip-path="url(#clip700)" d="M1959.97 1934.77 Q1963.33 1935.49 1965.2 1937.76 Q1967.1 1940.03 1967.1 1943.36 Q1967.1 1948.48 1963.58 1951.28 Q1960.07 1954.08 1953.58 1954.08 Q1951.41 1954.08 1949.09 1953.64 Q1946.8 1953.22 1944.35 1952.37 L1944.35 1947.85 Q1946.29 1948.99 1948.61 1949.57 Q1950.92 1950.14 1953.45 1950.14 Q1957.84 1950.14 1960.13 1948.41 Q1962.45 1946.67 1962.45 1943.36 Q1962.45 1940.31 1960.3 1938.59 Q1958.17 1936.86 1954.35 1936.86 L1950.32 1936.86 L1950.32 1933.01 L1954.53 1933.01 Q1957.98 1933.01 1959.81 1931.65 Q1961.64 1930.26 1961.64 1927.67 Q1961.64 1925.01 1959.74 1923.59 Q1957.87 1922.16 1954.35 1922.16 Q1952.43 1922.16 1950.23 1922.57 Q1948.03 1922.99 1945.39 1923.87 L1945.39 1919.7 Q1948.05 1918.96 1950.37 1918.59 Q1952.7 1918.22 1954.76 1918.22 Q1960.09 1918.22 1963.19 1920.65 Q1966.29 1923.06 1966.29 1927.18 Q1966.29 1930.05 1964.65 1932.04 Q1963.01 1934.01 1959.97 1934.77 Z" fill="#000000" fill-rule="evenodd" fill-opacity="1" /><path clip-path="url(#clip700)" d="M2515.49 1922.92 L2503.69 1941.37 L2515.49 1941.37 L2515.49 1922.92 M2514.27 1918.85 L2520.15 1918.85 L2520.15 1941.37 L2525.08 1941.37 L2525.08 1945.26 L2520.15 1945.26 L2520.15 1953.41 L2515.49 1953.41 L2515.49 1945.26 L2499.89 1945.26 L2499.89 1940.75 L2514.27 1918.85 Z" fill="#000000" fill-rule="evenodd" fill-opacity="1" /><path clip-path="url(#clip700)" d="M3059.52 1918.85 L3077.88 1918.85 L3077.88 1922.78 L3063.8 1922.78 L3063.8 1931.26 Q3064.82 1930.91 3065.84 1930.75 Q3066.86 1930.56 3067.88 1930.56 Q3073.66 1930.56 3077.04 1933.73 Q3080.42 1936.9 3080.42 1942.32 Q3080.42 1947.9 3076.95 1951 Q3073.48 1954.08 3067.16 1954.08 Q3064.98 1954.08 3062.71 1953.71 Q3060.47 1953.34 3058.06 1952.6 L3058.06 1947.9 Q3060.14 1949.03 3062.37 1949.59 Q3064.59 1950.14 3067.07 1950.14 Q3071.07 1950.14 3073.41 1948.04 Q3075.75 1945.93 3075.75 1942.32 Q3075.75 1938.71 3073.41 1936.6 Q3071.07 1934.5 3067.07 1934.5 Q3065.19 1934.5 3063.32 1934.91 Q3061.46 1935.33 3059.52 1936.21 L3059.52 1918.85 Z" fill="#000000" fill-rule="evenodd" fill-opacity="1" /><polyline clip-path="url(#clip702)" style="stroke:#000000; stroke-linecap:round; stroke-linejoin:round; stroke-width:2; stroke-opacity:0.1; fill:none" points="
  201.936,1834.53 3152.76,1834.53 
  "/>
<polyline clip-path="url(#clip702)" style="stroke:#000000; stroke-linecap:round; stroke-linejoin:round; stroke-width:2; stroke-opacity:0.1; fill:none" points="
  201.936,1478.68 3152.76,1478.68 
  "/>
<polyline clip-path="url(#clip702)" style="stroke:#000000; stroke-linecap:round; stroke-linejoin:round; stroke-width:2; stroke-opacity:0.1; fill:none" points="
  201.936,1122.83 3152.76,1122.83 
  "/>
<polyline clip-path="url(#clip702)" style="stroke:#000000; stroke-linecap:round; stroke-linejoin:round; stroke-width:2; stroke-opacity:0.1; fill:none" points="
  201.936,766.986 3152.76,766.986 
  "/>
<polyline clip-path="url(#clip702)" style="stroke:#000000; stroke-linecap:round; stroke-linejoin:round; stroke-width:2; stroke-opacity:0.1; fill:none" points="
  201.936,411.139 3152.76,411.139 
  "/>
<polyline clip-path="url(#clip700)" style="stroke:#000000; stroke-linecap:round; stroke-linejoin:round; stroke-width:4; stroke-opacity:1; fill:none" points="
  201.936,1884.61 201.936,119.692 
  "/>
<polyline clip-path="url(#clip700)" style="stroke:#000000; stroke-linecap:round; stroke-linejoin:round; stroke-width:4; stroke-opacity:1; fill:none" points="
  201.936,1834.53 220.834,1834.53 
  "/>
<polyline clip-path="url(#clip700)" style="stroke:#000000; stroke-linecap:round; stroke-linejoin:round; stroke-width:4; stroke-opacity:1; fill:none" points="
  201.936,1478.68 220.834,1478.68 
  "/>
<polyline clip-path="url(#clip700)" style="stroke:#000000; stroke-linecap:round; stroke-linejoin:round; stroke-width:4; stroke-opacity:1; fill:none" points="
  201.936,1122.83 220.834,1122.83 
  "/>
<polyline clip-path="url(#clip700)" style="stroke:#000000; stroke-linecap:round; stroke-linejoin:round; stroke-width:4; stroke-opacity:1; fill:none" points="
  201.936,766.986 220.834,766.986 
  "/>
<polyline clip-path="url(#clip700)" style="stroke:#000000; stroke-linecap:round; stroke-linejoin:round; stroke-width:4; stroke-opacity:1; fill:none" points="
  201.936,411.139 220.834,411.139 
  "/>
<path clip-path="url(#clip700)" d="M46.9921 1834.98 L76.6679 1834.98 L76.6679 1838.91 L46.9921 1838.91 L46.9921 1834.98 Z" fill="#000000" fill-rule="evenodd" fill-opacity="1" /><path clip-path="url(#clip700)" d="M87.5706 1847.87 L95.2095 1847.87 L95.2095 1821.51 L86.8993 1823.17 L86.8993 1818.91 L95.1632 1817.25 L99.8391 1817.25 L99.8391 1847.87 L107.478 1847.87 L107.478 1851.81 L87.5706 1851.81 L87.5706 1847.87 Z" fill="#000000" fill-rule="evenodd" fill-opacity="1" /><path clip-path="url(#clip700)" d="M116.922 1845.93 L121.807 1845.93 L121.807 1851.81 L116.922 1851.81 L116.922 1845.93 Z" fill="#000000" fill-rule="evenodd" fill-opacity="1" /><path clip-path="url(#clip700)" d="M141.992 1820.32 Q138.381 1820.32 136.552 1823.89 Q134.746 1827.43 134.746 1834.56 Q134.746 1841.67 136.552 1845.23 Q138.381 1848.77 141.992 1848.77 Q145.626 1848.77 147.431 1845.23 Q149.26 1841.67 149.26 1834.56 Q149.26 1827.43 147.431 1823.89 Q145.626 1820.32 141.992 1820.32 M141.992 1816.62 Q147.802 1816.62 150.857 1821.23 Q153.936 1825.81 153.936 1834.56 Q153.936 1843.29 150.857 1847.89 Q147.802 1852.48 141.992 1852.48 Q136.181 1852.48 133.103 1847.89 Q130.047 1843.29 130.047 1834.56 Q130.047 1825.81 133.103 1821.23 Q136.181 1816.62 141.992 1816.62 Z" fill="#000000" fill-rule="evenodd" fill-opacity="1" /><path clip-path="url(#clip700)" d="M47.9875 1479.13 L77.6633 1479.13 L77.6633 1483.07 L47.9875 1483.07 L47.9875 1479.13 Z" fill="#000000" fill-rule="evenodd" fill-opacity="1" /><path clip-path="url(#clip700)" d="M97.7557 1464.48 Q94.1447 1464.48 92.316 1468.04 Q90.5104 1471.58 90.5104 1478.71 Q90.5104 1485.82 92.316 1489.39 Q94.1447 1492.93 97.7557 1492.93 Q101.39 1492.93 103.196 1489.39 Q105.024 1485.82 105.024 1478.71 Q105.024 1471.58 103.196 1468.04 Q101.39 1464.48 97.7557 1464.48 M97.7557 1460.77 Q103.566 1460.77 106.621 1465.38 Q109.7 1469.96 109.7 1478.71 Q109.7 1487.44 106.621 1492.05 Q103.566 1496.63 97.7557 1496.63 Q91.9456 1496.63 88.8669 1492.05 Q85.8114 1487.44 85.8114 1478.71 Q85.8114 1469.96 88.8669 1465.38 Q91.9456 1460.77 97.7557 1460.77 Z" fill="#000000" fill-rule="evenodd" fill-opacity="1" /><path clip-path="url(#clip700)" d="M117.918 1490.08 L122.802 1490.08 L122.802 1495.96 L117.918 1495.96 L117.918 1490.08 Z" fill="#000000" fill-rule="evenodd" fill-opacity="1" /><path clip-path="url(#clip700)" d="M133.033 1461.4 L151.39 1461.4 L151.39 1465.33 L137.316 1465.33 L137.316 1473.81 Q138.334 1473.46 139.353 1473.3 Q140.371 1473.11 141.39 1473.11 Q147.177 1473.11 150.556 1476.28 Q153.936 1479.45 153.936 1484.87 Q153.936 1490.45 150.464 1493.55 Q146.992 1496.63 140.672 1496.63 Q138.496 1496.63 136.228 1496.26 Q133.982 1495.89 131.575 1495.15 L131.575 1490.45 Q133.658 1491.58 135.881 1492.14 Q138.103 1492.7 140.58 1492.7 Q144.584 1492.7 146.922 1490.59 Q149.26 1488.48 149.26 1484.87 Q149.26 1481.26 146.922 1479.15 Q144.584 1477.05 140.58 1477.05 Q138.705 1477.05 136.83 1477.46 Q134.978 1477.88 133.033 1478.76 L133.033 1461.4 Z" fill="#000000" fill-rule="evenodd" fill-opacity="1" /><path clip-path="url(#clip700)" d="M96.7604 1108.63 Q93.1493 1108.63 91.3206 1112.2 Q89.515 1115.74 89.515 1122.87 Q89.515 1129.97 91.3206 1133.54 Q93.1493 1137.08 96.7604 1137.08 Q100.395 1137.08 102.2 1133.54 Q104.029 1129.97 104.029 1122.87 Q104.029 1115.74 102.2 1112.2 Q100.395 1108.63 96.7604 1108.63 M96.7604 1104.93 Q102.571 1104.93 105.626 1109.53 Q108.705 1114.12 108.705 1122.87 Q108.705 1131.59 105.626 1136.2 Q102.571 1140.78 96.7604 1140.78 Q90.9502 1140.78 87.8715 1136.2 Q84.816 1131.59 84.816 1122.87 Q84.816 1114.12 87.8715 1109.53 Q90.9502 1104.93 96.7604 1104.93 Z" fill="#000000" fill-rule="evenodd" fill-opacity="1" /><path clip-path="url(#clip700)" d="M116.922 1134.23 L121.807 1134.23 L121.807 1140.11 L116.922 1140.11 L116.922 1134.23 Z" fill="#000000" fill-rule="evenodd" fill-opacity="1" /><path clip-path="url(#clip700)" d="M141.992 1108.63 Q138.381 1108.63 136.552 1112.2 Q134.746 1115.74 134.746 1122.87 Q134.746 1129.97 136.552 1133.54 Q138.381 1137.08 141.992 1137.08 Q145.626 1137.08 147.431 1133.54 Q149.26 1129.97 149.26 1122.87 Q149.26 1115.74 147.431 1112.2 Q145.626 1108.63 141.992 1108.63 M141.992 1104.93 Q147.802 1104.93 150.857 1109.53 Q153.936 1114.12 153.936 1122.87 Q153.936 1131.59 150.857 1136.2 Q147.802 1140.78 141.992 1140.78 Q136.181 1140.78 133.103 1136.2 Q130.047 1131.59 130.047 1122.87 Q130.047 1114.12 133.103 1109.53 Q136.181 1104.93 141.992 1104.93 Z" fill="#000000" fill-rule="evenodd" fill-opacity="1" /><path clip-path="url(#clip700)" d="M97.7557 752.784 Q94.1447 752.784 92.316 756.349 Q90.5104 759.891 90.5104 767.02 Q90.5104 774.127 92.316 777.692 Q94.1447 781.233 97.7557 781.233 Q101.39 781.233 103.196 777.692 Q105.024 774.127 105.024 767.02 Q105.024 759.891 103.196 756.349 Q101.39 752.784 97.7557 752.784 M97.7557 749.081 Q103.566 749.081 106.621 753.687 Q109.7 758.27 109.7 767.02 Q109.7 775.747 106.621 780.354 Q103.566 784.937 97.7557 784.937 Q91.9456 784.937 88.8669 780.354 Q85.8114 775.747 85.8114 767.02 Q85.8114 758.27 88.8669 753.687 Q91.9456 749.081 97.7557 749.081 Z" fill="#000000" fill-rule="evenodd" fill-opacity="1" /><path clip-path="url(#clip700)" d="M117.918 778.386 L122.802 778.386 L122.802 784.266 L117.918 784.266 L117.918 778.386 Z" fill="#000000" fill-rule="evenodd" fill-opacity="1" /><path clip-path="url(#clip700)" d="M133.033 749.706 L151.39 749.706 L151.39 753.641 L137.316 753.641 L137.316 762.113 Q138.334 761.766 139.353 761.604 Q140.371 761.419 141.39 761.419 Q147.177 761.419 150.556 764.59 Q153.936 767.761 153.936 773.178 Q153.936 778.756 150.464 781.858 Q146.992 784.937 140.672 784.937 Q138.496 784.937 136.228 784.567 Q133.982 784.196 131.575 783.455 L131.575 778.756 Q133.658 779.891 135.881 780.446 Q138.103 781.002 140.58 781.002 Q144.584 781.002 146.922 778.895 Q149.26 776.789 149.26 773.178 Q149.26 769.567 146.922 767.46 Q144.584 765.354 140.58 765.354 Q138.705 765.354 136.83 765.77 Q134.978 766.187 133.033 767.067 L133.033 749.706 Z" fill="#000000" fill-rule="evenodd" fill-opacity="1" /><path clip-path="url(#clip700)" d="M87.5706 424.484 L95.2095 424.484 L95.2095 398.118 L86.8993 399.785 L86.8993 395.525 L95.1632 393.859 L99.8391 393.859 L99.8391 424.484 L107.478 424.484 L107.478 428.419 L87.5706 428.419 L87.5706 424.484 Z" fill="#000000" fill-rule="evenodd" fill-opacity="1" /><path clip-path="url(#clip700)" d="M116.922 422.539 L121.807 422.539 L121.807 428.419 L116.922 428.419 L116.922 422.539 Z" fill="#000000" fill-rule="evenodd" fill-opacity="1" /><path clip-path="url(#clip700)" d="M141.992 396.937 Q138.381 396.937 136.552 400.502 Q134.746 404.044 134.746 411.173 Q134.746 418.28 136.552 421.845 Q138.381 425.386 141.992 425.386 Q145.626 425.386 147.431 421.845 Q149.26 418.28 149.26 411.173 Q149.26 404.044 147.431 400.502 Q145.626 396.937 141.992 396.937 M141.992 393.234 Q147.802 393.234 150.857 397.84 Q153.936 402.424 153.936 411.173 Q153.936 419.9 150.857 424.507 Q147.802 429.09 141.992 429.09 Q136.181 429.09 133.103 424.507 Q130.047 419.9 130.047 411.173 Q130.047 402.424 133.103 397.84 Q136.181 393.234 141.992 393.234 Z" fill="#000000" fill-rule="evenodd" fill-opacity="1" /><path clip-path="url(#clip700)" d="M1583.78 40.8548 Q1583.78 47.741 1581.57 55.488 Q1579.4 63.194 1575.95 69.4243 Q1572.51 75.6137 1568 79.7126 Q1563.49 83.7706 1559.19 83.7706 Q1556.44 83.7706 1554.39 82.254 Q1552.38 80.6964 1551.28 78.1141 Q1550.17 75.4908 1549.64 72.6215 Q1549.1 69.7113 1549.1 66.5551 Q1549.1 61.8413 1550.13 56.7177 Q1551.15 51.553 1552.88 46.8802 Q1554.6 42.1665 1557.02 37.9036 Q1559.43 33.5997 1562.1 30.4845 Q1564.8 27.3284 1567.84 25.4838 Q1570.87 23.6393 1573.7 23.6393 Q1575.75 23.6393 1577.39 24.5411 Q1579.07 25.4019 1580.13 26.9185 Q1581.2 28.3941 1581.94 30.1566 Q1582.72 31.9191 1583.08 33.9686 Q1583.45 35.9771 1583.62 37.6576 Q1583.78 39.2972 1583.78 40.8548 M1578.25 35.6492 Q1578.25 33.5587 1578.08 32.0011 Q1577.92 30.4025 1577.47 28.804 Q1577.02 27.2054 1576.03 26.3446 Q1575.09 25.4838 1573.62 25.4838 Q1569.31 25.4838 1564.48 34.2965 Q1562.92 37.0428 1561.52 40.7728 Q1560.13 44.5029 1559.64 46.2654 Q1559.15 48.0279 1558 52.3728 L1575.54 52.3728 Q1578.25 41.1827 1578.25 35.6492 M1574.81 55.0371 L1557.34 55.0371 Q1554.64 65.2844 1554.64 71.6787 Q1554.64 77.2533 1555.79 79.5897 Q1556.97 81.8851 1559.19 81.8851 Q1561.73 81.8851 1564.11 79.3437 Q1566.48 76.7614 1568.9 72.0886 Q1572.1 66.0222 1574.81 55.0371 Z" fill="#000000" fill-rule="evenodd" fill-opacity="1" /><path clip-path="url(#clip700)" d="M1611.37 70.0802 Q1611.46 69.0554 1613.05 69.0554 L1664.5 69.0554 Q1666.91 69.0554 1666.95 69.9982 Q1666.95 71.0229 1664.66 70.9819 L1613.63 70.9819 Q1611.37 71.0229 1611.37 70.0802 M1611.37 53.6845 Q1611.37 52.6597 1613.14 52.7007 L1664.41 52.7007 Q1666.91 52.7007 1666.95 53.6845 Q1666.95 54.6272 1664.82 54.6272 L1613.05 54.6272 Q1611.37 54.6272 1611.37 53.6845 Z" fill="#000000" fill-rule="evenodd" fill-opacity="1" /><path clip-path="url(#clip700)" d="M1699.34 55.9799 Q1699.34 43.6421 1702.46 36.9198 Q1706.8 26.9185 1717.05 26.9185 Q1719.22 26.9185 1721.47 27.5333 Q1723.77 28.1071 1726.64 30.3616 Q1729.55 32.616 1731.31 36.305 Q1734.67 43.4371 1734.67 55.9799 Q1734.67 68.2357 1731.56 74.9169 Q1727.01 84.6724 1716.97 84.6724 Q1713.2 84.6724 1709.34 82.7459 Q1705.53 80.8194 1703.11 76.1876 Q1699.34 69.2604 1699.34 55.9799 M1706.31 54.9551 Q1706.31 67.6208 1707.21 72.6625 Q1708.24 78.1141 1711.02 80.4914 Q1713.85 82.8278 1716.97 82.8278 Q1720.33 82.8278 1723.11 80.3275 Q1725.94 77.7862 1726.8 72.3346 Q1727.75 66.965 1727.71 54.9551 Q1727.71 43.2732 1726.89 38.6004 Q1725.78 33.1488 1722.83 30.9764 Q1719.92 28.763 1716.97 28.763 Q1715.86 28.763 1714.67 29.0909 Q1713.52 29.4188 1711.84 30.3616 Q1710.16 31.3043 1708.85 33.6407 Q1707.58 35.9771 1706.96 39.5022 Q1706.31 44.052 1706.31 54.9551 Z" fill="#000000" fill-rule="evenodd" fill-opacity="1" /><path clip-path="url(#clip700)" d="M1742.18 81.4752 Q1740.91 80.1225 1740.91 78.36 Q1740.91 76.5975 1742.18 75.3268 Q1743.45 74.0151 1745.38 74.0151 Q1747.23 74.0151 1748.46 75.2448 Q1749.73 76.4335 1749.73 78.401 Q1749.73 80.3275 1748.37 81.5982 Q1747.06 82.8278 1745.38 82.8278 Q1743.45 82.8278 1742.18 81.4752 Z" fill="#000000" fill-rule="evenodd" fill-opacity="1" /><path clip-path="url(#clip700)" d="M1764.01 43.3552 L1766.76 26.0987 L1768.85 26.0987 Q1769.1 27.1234 1769.51 27.5743 Q1769.96 28.0252 1772.33 28.3941 Q1774.75 28.763 1779.63 28.763 L1800 28.763 Q1800 30.6895 1799.26 31.7142 L1787.91 47.659 Q1784.3 52.7007 1782.71 62.0053 Q1781.76 68.2357 1781.8 75.7777 L1781.8 80.0406 Q1781.8 84.6724 1777.91 84.6724 Q1774.06 84.6724 1774.06 80.0406 Q1774.06 64.0138 1784.39 48.4788 Q1785.49 46.8802 1789.55 41.1827 Q1793.65 35.4852 1793.81 35.2393 L1776.43 35.2393 Q1768.81 35.2393 1768.2 35.7312 Q1767.38 36.469 1766.1 43.3552 L1764.01 43.3552 Z" fill="#000000" fill-rule="evenodd" fill-opacity="1" /><circle clip-path="url(#clip702)" cx="285.45" cy="980.494" r="14.4" fill="#009af9" fill-rule="evenodd" fill-opacity="1" stroke="#000000" stroke-opacity="1" stroke-width="4"/>
<circle clip-path="url(#clip702)" cx="341.126" cy="169.643" r="14.4" fill="#009af9" fill-rule="evenodd" fill-opacity="1" stroke="#000000" stroke-opacity="1" stroke-width="4"/>
<circle clip-path="url(#clip702)" cx="396.801" cy="529.283" r="14.4" fill="#009af9" fill-rule="evenodd" fill-opacity="1" stroke="#000000" stroke-opacity="1" stroke-width="4"/>
<circle clip-path="url(#clip702)" cx="452.477" cy="397.344" r="14.4" fill="#009af9" fill-rule="evenodd" fill-opacity="1" stroke="#000000" stroke-opacity="1" stroke-width="4"/>
<circle clip-path="url(#clip702)" cx="508.153" cy="485.852" r="14.4" fill="#009af9" fill-rule="evenodd" fill-opacity="1" stroke="#000000" stroke-opacity="1" stroke-width="4"/>
<circle clip-path="url(#clip702)" cx="563.829" cy="489.362" r="14.4" fill="#009af9" fill-rule="evenodd" fill-opacity="1" stroke="#000000" stroke-opacity="1" stroke-width="4"/>
<circle clip-path="url(#clip702)" cx="619.505" cy="538.353" r="14.4" fill="#009af9" fill-rule="evenodd" fill-opacity="1" stroke="#000000" stroke-opacity="1" stroke-width="4"/>
<circle clip-path="url(#clip702)" cx="675.181" cy="576.407" r="14.4" fill="#009af9" fill-rule="evenodd" fill-opacity="1" stroke="#000000" stroke-opacity="1" stroke-width="4"/>
<circle clip-path="url(#clip702)" cx="730.857" cy="627.11" r="14.4" fill="#009af9" fill-rule="evenodd" fill-opacity="1" stroke="#000000" stroke-opacity="1" stroke-width="4"/>
<circle clip-path="url(#clip702)" cx="786.532" cy="679.685" r="14.4" fill="#009af9" fill-rule="evenodd" fill-opacity="1" stroke="#000000" stroke-opacity="1" stroke-width="4"/>
<circle clip-path="url(#clip702)" cx="842.208" cy="738.008" r="14.4" fill="#009af9" fill-rule="evenodd" fill-opacity="1" stroke="#000000" stroke-opacity="1" stroke-width="4"/>
<circle clip-path="url(#clip702)" cx="897.884" cy="799.611" r="14.4" fill="#009af9" fill-rule="evenodd" fill-opacity="1" stroke="#000000" stroke-opacity="1" stroke-width="4"/>
<circle clip-path="url(#clip702)" cx="953.56" cy="864.685" r="14.4" fill="#009af9" fill-rule="evenodd" fill-opacity="1" stroke="#000000" stroke-opacity="1" stroke-width="4"/>
<circle clip-path="url(#clip702)" cx="1009.24" cy="932.235" r="14.4" fill="#009af9" fill-rule="evenodd" fill-opacity="1" stroke="#000000" stroke-opacity="1" stroke-width="4"/>
<circle clip-path="url(#clip702)" cx="1064.91" cy="1001.73" r="14.4" fill="#009af9" fill-rule="evenodd" fill-opacity="1" stroke="#000000" stroke-opacity="1" stroke-width="4"/>
<circle clip-path="url(#clip702)" cx="1120.59" cy="1072.42" r="14.4" fill="#009af9" fill-rule="evenodd" fill-opacity="1" stroke="#000000" stroke-opacity="1" stroke-width="4"/>
<circle clip-path="url(#clip702)" cx="1176.26" cy="1143.62" r="14.4" fill="#009af9" fill-rule="evenodd" fill-opacity="1" stroke="#000000" stroke-opacity="1" stroke-width="4"/>
<circle clip-path="url(#clip702)" cx="1231.94" cy="1214.62" r="14.4" fill="#009af9" fill-rule="evenodd" fill-opacity="1" stroke="#000000" stroke-opacity="1" stroke-width="4"/>
<circle clip-path="url(#clip702)" cx="1287.62" cy="1284.69" r="14.4" fill="#009af9" fill-rule="evenodd" fill-opacity="1" stroke="#000000" stroke-opacity="1" stroke-width="4"/>
<circle clip-path="url(#clip702)" cx="1343.29" cy="1353.15" r="14.4" fill="#009af9" fill-rule="evenodd" fill-opacity="1" stroke="#000000" stroke-opacity="1" stroke-width="4"/>
<circle clip-path="url(#clip702)" cx="1398.97" cy="1419.3" r="14.4" fill="#009af9" fill-rule="evenodd" fill-opacity="1" stroke="#000000" stroke-opacity="1" stroke-width="4"/>
<circle clip-path="url(#clip702)" cx="1454.64" cy="1482.5" r="14.4" fill="#009af9" fill-rule="evenodd" fill-opacity="1" stroke="#000000" stroke-opacity="1" stroke-width="4"/>
<circle clip-path="url(#clip702)" cx="1510.32" cy="1542.1" r="14.4" fill="#009af9" fill-rule="evenodd" fill-opacity="1" stroke="#000000" stroke-opacity="1" stroke-width="4"/>
<circle clip-path="url(#clip702)" cx="1565.99" cy="1597.51" r="14.4" fill="#009af9" fill-rule="evenodd" fill-opacity="1" stroke="#000000" stroke-opacity="1" stroke-width="4"/>
<circle clip-path="url(#clip702)" cx="1621.67" cy="1648.17" r="14.4" fill="#009af9" fill-rule="evenodd" fill-opacity="1" stroke="#000000" stroke-opacity="1" stroke-width="4"/>
<circle clip-path="url(#clip702)" cx="1677.35" cy="1693.59" r="14.4" fill="#009af9" fill-rule="evenodd" fill-opacity="1" stroke="#000000" stroke-opacity="1" stroke-width="4"/>
<circle clip-path="url(#clip702)" cx="1733.02" cy="1733.31" r="14.4" fill="#009af9" fill-rule="evenodd" fill-opacity="1" stroke="#000000" stroke-opacity="1" stroke-width="4"/>
<circle clip-path="url(#clip702)" cx="1788.7" cy="1766.93" r="14.4" fill="#009af9" fill-rule="evenodd" fill-opacity="1" stroke="#000000" stroke-opacity="1" stroke-width="4"/>
<circle clip-path="url(#clip702)" cx="1844.37" cy="1794.11" r="14.4" fill="#009af9" fill-rule="evenodd" fill-opacity="1" stroke="#000000" stroke-opacity="1" stroke-width="4"/>
<circle clip-path="url(#clip702)" cx="1900.05" cy="1814.58" r="14.4" fill="#009af9" fill-rule="evenodd" fill-opacity="1" stroke="#000000" stroke-opacity="1" stroke-width="4"/>
<circle clip-path="url(#clip702)" cx="1955.73" cy="1828.14" r="14.4" fill="#009af9" fill-rule="evenodd" fill-opacity="1" stroke="#000000" stroke-opacity="1" stroke-width="4"/>
<circle clip-path="url(#clip702)" cx="2011.4" cy="1834.66" r="14.4" fill="#009af9" fill-rule="evenodd" fill-opacity="1" stroke="#000000" stroke-opacity="1" stroke-width="4"/>
<circle clip-path="url(#clip702)" cx="2067.08" cy="1834.06" r="14.4" fill="#009af9" fill-rule="evenodd" fill-opacity="1" stroke="#000000" stroke-opacity="1" stroke-width="4"/>
<circle clip-path="url(#clip702)" cx="2122.75" cy="1826.36" r="14.4" fill="#009af9" fill-rule="evenodd" fill-opacity="1" stroke="#000000" stroke-opacity="1" stroke-width="4"/>
<circle clip-path="url(#clip702)" cx="2178.43" cy="1811.62" r="14.4" fill="#009af9" fill-rule="evenodd" fill-opacity="1" stroke="#000000" stroke-opacity="1" stroke-width="4"/>
<circle clip-path="url(#clip702)" cx="2234.1" cy="1790.01" r="14.4" fill="#009af9" fill-rule="evenodd" fill-opacity="1" stroke="#000000" stroke-opacity="1" stroke-width="4"/>
<circle clip-path="url(#clip702)" cx="2289.78" cy="1761.73" r="14.4" fill="#009af9" fill-rule="evenodd" fill-opacity="1" stroke="#000000" stroke-opacity="1" stroke-width="4"/>
<circle clip-path="url(#clip702)" cx="2345.46" cy="1727.06" r="14.4" fill="#009af9" fill-rule="evenodd" fill-opacity="1" stroke="#000000" stroke-opacity="1" stroke-width="4"/>
<circle clip-path="url(#clip702)" cx="2401.13" cy="1686.36" r="14.4" fill="#009af9" fill-rule="evenodd" fill-opacity="1" stroke="#000000" stroke-opacity="1" stroke-width="4"/>
<circle clip-path="url(#clip702)" cx="2456.81" cy="1640.02" r="14.4" fill="#009af9" fill-rule="evenodd" fill-opacity="1" stroke="#000000" stroke-opacity="1" stroke-width="4"/>
<circle clip-path="url(#clip702)" cx="2512.48" cy="1588.52" r="14.4" fill="#009af9" fill-rule="evenodd" fill-opacity="1" stroke="#000000" stroke-opacity="1" stroke-width="4"/>
<circle clip-path="url(#clip702)" cx="2568.16" cy="1532.37" r="14.4" fill="#009af9" fill-rule="evenodd" fill-opacity="1" stroke="#000000" stroke-opacity="1" stroke-width="4"/>
<circle clip-path="url(#clip702)" cx="2623.84" cy="1472.12" r="14.4" fill="#009af9" fill-rule="evenodd" fill-opacity="1" stroke="#000000" stroke-opacity="1" stroke-width="4"/>
<circle clip-path="url(#clip702)" cx="2679.51" cy="1408.39" r="14.4" fill="#009af9" fill-rule="evenodd" fill-opacity="1" stroke="#000000" stroke-opacity="1" stroke-width="4"/>
<circle clip-path="url(#clip702)" cx="2735.19" cy="1341.8" r="14.4" fill="#009af9" fill-rule="evenodd" fill-opacity="1" stroke="#000000" stroke-opacity="1" stroke-width="4"/>
<circle clip-path="url(#clip702)" cx="2790.86" cy="1273.02" r="14.4" fill="#009af9" fill-rule="evenodd" fill-opacity="1" stroke="#000000" stroke-opacity="1" stroke-width="4"/>
<circle clip-path="url(#clip702)" cx="2846.54" cy="1202.75" r="14.4" fill="#009af9" fill-rule="evenodd" fill-opacity="1" stroke="#000000" stroke-opacity="1" stroke-width="4"/>
<circle clip-path="url(#clip702)" cx="2902.21" cy="1131.67" r="14.4" fill="#009af9" fill-rule="evenodd" fill-opacity="1" stroke="#000000" stroke-opacity="1" stroke-width="4"/>
<circle clip-path="url(#clip702)" cx="2957.89" cy="1060.51" r="14.4" fill="#009af9" fill-rule="evenodd" fill-opacity="1" stroke="#000000" stroke-opacity="1" stroke-width="4"/>
<circle clip-path="url(#clip702)" cx="3013.57" cy="989.965" r="14.4" fill="#009af9" fill-rule="evenodd" fill-opacity="1" stroke="#000000" stroke-opacity="1" stroke-width="4"/>
<circle clip-path="url(#clip702)" cx="3069.24" cy="920.751" r="14.4" fill="#009af9" fill-rule="evenodd" fill-opacity="1" stroke="#000000" stroke-opacity="1" stroke-width="4"/>
<polyline clip-path="url(#clip702)" style="stroke:#e26f46; stroke-linecap:round; stroke-linejoin:round; stroke-width:16; stroke-opacity:1; fill:none" points="
  285.45,411.139 289.981,411.162 294.512,411.233 299.043,411.351 303.574,411.516 345.469,415.27 387.365,423.029 429.261,434.749 471.156,450.363 496.334,461.584 
  521.511,474.157 546.689,488.056 571.867,503.253 614.441,531.816 657.016,563.833 703.264,602.308 749.512,644.372 792.148,686.082 834.785,730.352 880.495,780.362 
  926.206,832.68 979.167,895.715 1032.13,960.804 1126.26,1079.72 1208.8,1185.13 1253.8,1242.16 1298.8,1298.42 1344.06,1353.85 1389.33,1407.75 1439.37,1465.14 
  1489.42,1519.77 1537.03,1568.78 1584.65,1614.53 1609.41,1636.92 1634.16,1658.28 1658.92,1678.59 1683.67,1697.81 1725.35,1727.56 1767.03,1753.93 1792.47,1768.3 
  1817.91,1781.32 1843.36,1792.97 1868.8,1803.22 1892.1,1811.36 1915.41,1818.29 1938.72,1824.01 1962.02,1828.5 1983.55,1831.54 2005.07,1833.53 2026.6,1834.45 
  2048.12,1834.31 2069.93,1833.09 2091.73,1830.78 2113.54,1827.38 2135.34,1822.9 2159.78,1816.6 2184.22,1808.97 2208.65,1800.02 2233.09,1789.76 2255.23,1779.35 
  2277.38,1767.91 2299.52,1755.44 2321.66,1741.98 2347.02,1725.36 2372.37,1707.49 2397.72,1688.42 2423.08,1668.16 2446.55,1648.4 2470.02,1627.71 2493.5,1606.12 
  2516.97,1583.67 2563.26,1537.04 2609.55,1487.55 2654.49,1437.09 2699.43,1384.58 2791.56,1271.98 2892.51,1144.05 3039.16,958.105 3069.24,920.952 
  "/>
<path clip-path="url(#clip700)" d="
M2647.88 411.803 L3054.4 411.803 L3054.4 178.523 L2647.88 178.523  Z
  " fill="#ffffff" fill-rule="evenodd" fill-opacity="1"/>
<polyline clip-path="url(#clip700)" style="stroke:#000000; stroke-linecap:round; stroke-linejoin:round; stroke-width:4; stroke-opacity:1; fill:none" points="
  2647.88,411.803 3054.4,411.803 3054.4,178.523 2647.88,178.523 2647.88,411.803 
  "/>
<circle clip-path="url(#clip700)" cx="2779.03" cy="256.283" r="34.56" fill="#009af9" fill-rule="evenodd" fill-opacity="1" stroke="#000000" stroke-opacity="1" stroke-width="9.6"/>
<path clip-path="url(#clip700)" d="M2930.94 285.814 Q2928.23 292.758 2925.66 294.876 Q2923.09 296.994 2918.79 296.994 L2913.68 296.994 L2913.68 291.647 L2917.43 291.647 Q2920.07 291.647 2921.53 290.397 Q2922.99 289.147 2924.76 284.494 L2925.91 281.578 L2910.18 243.314 L2916.95 243.314 L2929.1 273.73 L2941.25 243.314 L2948.02 243.314 L2930.94 285.814 Z" fill="#000000" fill-rule="evenodd" fill-opacity="1" /><path clip-path="url(#clip700)" d="M2958.96 276.3 L2970.42 276.3 L2970.42 236.752 L2957.95 239.251 L2957.95 232.863 L2970.35 230.363 L2977.36 230.363 L2977.36 276.3 L2988.82 276.3 L2988.82 282.203 L2958.96 282.203 L2958.96 276.3 Z" fill="#000000" fill-rule="evenodd" fill-opacity="1" /><polyline clip-path="url(#clip700)" style="stroke:#e26f46; stroke-linecap:round; stroke-linejoin:round; stroke-width:6; stroke-opacity:1; fill:none" points="
  2680.67,334.043 2877.39,334.043 
  "/>
<path clip-path="url(#clip700)" d="M2930.94 363.574 Q2928.23 370.518 2925.66 372.636 Q2923.09 374.754 2918.79 374.754 L2913.68 374.754 L2913.68 369.407 L2917.43 369.407 Q2920.07 369.407 2921.53 368.157 Q2922.99 366.907 2924.76 362.254 L2925.91 359.338 L2910.18 321.074 L2916.95 321.074 L2929.1 351.49 L2941.25 321.074 L2948.02 321.074 L2930.94 363.574 Z" fill="#000000" fill-rule="evenodd" fill-opacity="1" /><path clip-path="url(#clip700)" d="M2963.79 354.06 L2988.27 354.06 L2988.27 359.963 L2955.35 359.963 L2955.35 354.06 Q2959.34 349.928 2966.22 342.984 Q2973.13 336.004 2974.9 333.991 Q2978.27 330.206 2979.59 327.602 Q2980.94 324.963 2980.94 322.428 Q2980.94 318.296 2978.02 315.692 Q2975.14 313.088 2970.49 313.088 Q2967.19 313.088 2963.51 314.234 Q2959.86 315.38 2955.7 317.706 L2955.7 310.623 Q2959.93 308.921 2963.61 308.053 Q2967.29 307.185 2970.35 307.185 Q2978.4 307.185 2983.2 311.213 Q2987.99 315.241 2987.99 321.977 Q2987.99 325.171 2986.77 328.053 Q2985.59 330.9 2982.43 334.789 Q2981.56 335.796 2976.91 340.622 Q2972.26 345.414 2963.79 354.06 Z" fill="#000000" fill-rule="evenodd" fill-opacity="1" /></svg>
