<?xml version="1.0" encoding="utf-8"?>
<svg xmlns="http://www.w3.org/2000/svg" xmlns:xlink="http://www.w3.org/1999/xlink" width="600" height="400" viewBox="0 0 2400 1600">
<defs>
  <clipPath id="clip830">
    <rect x="0" y="0" width="2400" height="1600"/>
  </clipPath>
</defs>
<path clip-path="url(#clip830)" d="
M0 1600 L2400 1600 L2400 0 L0 0  Z
  " fill="#ffffff" fill-rule="evenodd" fill-opacity="1"/>
<defs>
  <clipPath id="clip831">
    <rect x="480" y="0" width="1681" height="1600"/>
  </clipPath>
</defs>
<path clip-path="url(#clip830)" d="
M156.112 1486.45 L2352.76 1486.45 L2352.76 47.2441 L156.112 47.2441  Z
  " fill="#ffffff" fill-rule="evenodd" fill-opacity="1"/>
<defs>
  <clipPath id="clip832">
    <rect x="156" y="47" width="2198" height="1440"/>
  </clipPath>
</defs>
<polyline clip-path="url(#clip832)" style="stroke:#000000; stroke-linecap:butt; stroke-linejoin:round; stroke-width:2; stroke-opacity:0.1; fill:none" points="
  156.112,1486.45 156.112,47.2441 
  "/>
<polyline clip-path="url(#clip832)" style="stroke:#000000; stroke-linecap:butt; stroke-linejoin:round; stroke-width:2; stroke-opacity:0.1; fill:none" points="
  595.441,1486.45 595.441,47.2441 
  "/>
<polyline clip-path="url(#clip832)" style="stroke:#000000; stroke-linecap:butt; stroke-linejoin:round; stroke-width:2; stroke-opacity:0.1; fill:none" points="
  1034.77,1486.45 1034.77,47.2441 
  "/>
<polyline clip-path="url(#clip832)" style="stroke:#000000; stroke-linecap:butt; stroke-linejoin:round; stroke-width:2; stroke-opacity:0.1; fill:none" points="
  1474.1,1486.45 1474.1,47.2441 
  "/>
<polyline clip-path="url(#clip832)" style="stroke:#000000; stroke-linecap:butt; stroke-linejoin:round; stroke-width:2; stroke-opacity:0.1; fill:none" points="
  1913.43,1486.45 1913.43,47.2441 
  "/>
<polyline clip-path="url(#clip832)" style="stroke:#000000; stroke-linecap:butt; stroke-linejoin:round; stroke-width:2; stroke-opacity:0.1; fill:none" points="
  2352.76,1486.45 2352.76,47.2441 
  "/>
<polyline clip-path="url(#clip830)" style="stroke:#000000; stroke-linecap:butt; stroke-linejoin:round; stroke-width:4; stroke-opacity:1; fill:none" points="
  156.112,1486.45 2352.76,1486.45 
  "/>
<polyline clip-path="url(#clip830)" style="stroke:#000000; stroke-linecap:butt; stroke-linejoin:round; stroke-width:4; stroke-opacity:1; fill:none" points="
  156.112,1486.45 156.112,1467.55 
  "/>
<polyline clip-path="url(#clip830)" style="stroke:#000000; stroke-linecap:butt; stroke-linejoin:round; stroke-width:4; stroke-opacity:1; fill:none" points="
  595.441,1486.45 595.441,1467.55 
  "/>
<polyline clip-path="url(#clip830)" style="stroke:#000000; stroke-linecap:butt; stroke-linejoin:round; stroke-width:4; stroke-opacity:1; fill:none" points="
  1034.77,1486.45 1034.77,1467.55 
  "/>
<polyline clip-path="url(#clip830)" style="stroke:#000000; stroke-linecap:butt; stroke-linejoin:round; stroke-width:4; stroke-opacity:1; fill:none" points="
  1474.1,1486.45 1474.1,1467.55 
  "/>
<polyline clip-path="url(#clip830)" style="stroke:#000000; stroke-linecap:butt; stroke-linejoin:round; stroke-width:4; stroke-opacity:1; fill:none" points="
  1913.43,1486.45 1913.43,1467.55 
  "/>
<polyline clip-path="url(#clip830)" style="stroke:#000000; stroke-linecap:butt; stroke-linejoin:round; stroke-width:4; stroke-opacity:1; fill:none" points="
  2352.76,1486.45 2352.76,1467.55 
  "/>
<path clip-path="url(#clip830)" d="M118.416 1517.37 Q114.804 1517.37 112.976 1520.93 Q111.17 1524.47 111.17 1531.6 Q111.17 1538.71 112.976 1542.27 Q114.804 1545.82 118.416 1545.82 Q122.05 1545.82 123.855 1542.27 Q125.684 1538.71 125.684 1531.6 Q125.684 1524.47 123.855 1520.93 Q122.05 1517.37 118.416 1517.37 M118.416 1513.66 Q124.226 1513.66 127.281 1518.27 Q130.36 1522.85 130.36 1531.6 Q130.36 1540.33 127.281 1544.94 Q124.226 1549.52 118.416 1549.52 Q112.605 1549.52 109.527 1544.94 Q106.471 1540.33 106.471 1531.6 Q106.471 1522.85 109.527 1518.27 Q112.605 1513.66 118.416 1513.66 Z" fill="#000000" fill-rule="evenodd" fill-opacity="1" /><path clip-path="url(#clip830)" d="M138.577 1542.97 L143.462 1542.97 L143.462 1548.85 L138.577 1548.85 L138.577 1542.97 Z" fill="#000000" fill-rule="evenodd" fill-opacity="1" /><path clip-path="url(#clip830)" d="M163.647 1517.37 Q160.036 1517.37 158.207 1520.93 Q156.401 1524.47 156.401 1531.6 Q156.401 1538.71 158.207 1542.27 Q160.036 1545.82 163.647 1545.82 Q167.281 1545.82 169.087 1542.27 Q170.915 1538.71 170.915 1531.6 Q170.915 1524.47 169.087 1520.93 Q167.281 1517.37 163.647 1517.37 M163.647 1513.66 Q169.457 1513.66 172.513 1518.27 Q175.591 1522.85 175.591 1531.6 Q175.591 1540.33 172.513 1544.94 Q169.457 1549.52 163.647 1549.52 Q157.837 1549.52 154.758 1544.94 Q151.702 1540.33 151.702 1531.6 Q151.702 1522.85 154.758 1518.27 Q157.837 1513.66 163.647 1513.66 Z" fill="#000000" fill-rule="evenodd" fill-opacity="1" /><path clip-path="url(#clip830)" d="M193.809 1517.37 Q190.198 1517.37 188.369 1520.93 Q186.563 1524.47 186.563 1531.6 Q186.563 1538.71 188.369 1542.27 Q190.198 1545.82 193.809 1545.82 Q197.443 1545.82 199.248 1542.27 Q201.077 1538.71 201.077 1531.6 Q201.077 1524.47 199.248 1520.93 Q197.443 1517.37 193.809 1517.37 M193.809 1513.66 Q199.619 1513.66 202.674 1518.27 Q205.753 1522.85 205.753 1531.6 Q205.753 1540.33 202.674 1544.94 Q199.619 1549.52 193.809 1549.52 Q187.999 1549.52 184.92 1544.94 Q181.864 1540.33 181.864 1531.6 Q181.864 1522.85 184.92 1518.27 Q187.999 1513.66 193.809 1513.66 Z" fill="#000000" fill-rule="evenodd" fill-opacity="1" /><path clip-path="url(#clip830)" d="M558.543 1517.37 Q554.932 1517.37 553.103 1520.93 Q551.298 1524.47 551.298 1531.6 Q551.298 1538.71 553.103 1542.27 Q554.932 1545.82 558.543 1545.82 Q562.177 1545.82 563.983 1542.27 Q565.811 1538.71 565.811 1531.6 Q565.811 1524.47 563.983 1520.93 Q562.177 1517.37 558.543 1517.37 M558.543 1513.66 Q564.353 1513.66 567.409 1518.27 Q570.487 1522.85 570.487 1531.6 Q570.487 1540.33 567.409 1544.94 Q564.353 1549.52 558.543 1549.52 Q552.733 1549.52 549.654 1544.94 Q546.599 1540.33 546.599 1531.6 Q546.599 1522.85 549.654 1518.27 Q552.733 1513.66 558.543 1513.66 Z" fill="#000000" fill-rule="evenodd" fill-opacity="1" /><path clip-path="url(#clip830)" d="M578.705 1542.97 L583.589 1542.97 L583.589 1548.85 L578.705 1548.85 L578.705 1542.97 Z" fill="#000000" fill-rule="evenodd" fill-opacity="1" /><path clip-path="url(#clip830)" d="M603.774 1517.37 Q600.163 1517.37 598.334 1520.93 Q596.529 1524.47 596.529 1531.6 Q596.529 1538.71 598.334 1542.27 Q600.163 1545.82 603.774 1545.82 Q607.408 1545.82 609.214 1542.27 Q611.043 1538.71 611.043 1531.6 Q611.043 1524.47 609.214 1520.93 Q607.408 1517.37 603.774 1517.37 M603.774 1513.66 Q609.584 1513.66 612.64 1518.27 Q615.719 1522.85 615.719 1531.6 Q615.719 1540.33 612.64 1544.94 Q609.584 1549.52 603.774 1549.52 Q597.964 1549.52 594.885 1544.94 Q591.83 1540.33 591.83 1531.6 Q591.83 1522.85 594.885 1518.27 Q597.964 1513.66 603.774 1513.66 Z" fill="#000000" fill-rule="evenodd" fill-opacity="1" /><path clip-path="url(#clip830)" d="M627.964 1544.91 L644.283 1544.91 L644.283 1548.85 L622.339 1548.85 L622.339 1544.91 Q625.001 1542.16 629.584 1537.53 Q634.191 1532.88 635.371 1531.53 Q637.617 1529.01 638.496 1527.27 Q639.399 1525.51 639.399 1523.82 Q639.399 1521.07 637.455 1519.33 Q635.533 1517.6 632.431 1517.6 Q630.232 1517.6 627.779 1518.36 Q625.348 1519.13 622.57 1520.68 L622.57 1515.95 Q625.394 1514.82 627.848 1514.24 Q630.302 1513.66 632.339 1513.66 Q637.709 1513.66 640.904 1516.35 Q644.098 1519.03 644.098 1523.52 Q644.098 1525.65 643.288 1527.57 Q642.501 1529.47 640.394 1532.07 Q639.816 1532.74 636.714 1535.95 Q633.612 1539.15 627.964 1544.91 Z" fill="#000000" fill-rule="evenodd" fill-opacity="1" /><path clip-path="url(#clip830)" d="M996.83 1517.37 Q993.219 1517.37 991.39 1520.93 Q989.585 1524.47 989.585 1531.6 Q989.585 1538.71 991.39 1542.27 Q993.219 1545.82 996.83 1545.82 Q1000.46 1545.82 1002.27 1542.27 Q1004.1 1538.71 1004.1 1531.6 Q1004.1 1524.47 1002.27 1520.93 Q1000.46 1517.37 996.83 1517.37 M996.83 1513.66 Q1002.64 1513.66 1005.7 1518.27 Q1008.77 1522.85 1008.77 1531.6 Q1008.77 1540.33 1005.7 1544.94 Q1002.64 1549.52 996.83 1549.52 Q991.02 1549.52 987.941 1544.94 Q984.886 1540.33 984.886 1531.6 Q984.886 1522.85 987.941 1518.27 Q991.02 1513.66 996.83 1513.66 Z" fill="#000000" fill-rule="evenodd" fill-opacity="1" /><path clip-path="url(#clip830)" d="M1016.99 1542.97 L1021.88 1542.97 L1021.88 1548.85 L1016.99 1548.85 L1016.99 1542.97 Z" fill="#000000" fill-rule="evenodd" fill-opacity="1" /><path clip-path="url(#clip830)" d="M1042.06 1517.37 Q1038.45 1517.37 1036.62 1520.93 Q1034.82 1524.47 1034.82 1531.6 Q1034.82 1538.71 1036.62 1542.27 Q1038.45 1545.82 1042.06 1545.82 Q1045.7 1545.82 1047.5 1542.27 Q1049.33 1538.71 1049.33 1531.6 Q1049.33 1524.47 1047.5 1520.93 Q1045.7 1517.37 1042.06 1517.37 M1042.06 1513.66 Q1047.87 1513.66 1050.93 1518.27 Q1054.01 1522.85 1054.01 1531.6 Q1054.01 1540.33 1050.93 1544.94 Q1047.87 1549.52 1042.06 1549.52 Q1036.25 1549.52 1033.17 1544.94 Q1030.12 1540.33 1030.12 1531.6 Q1030.12 1522.85 1033.17 1518.27 Q1036.25 1513.66 1042.06 1513.66 Z" fill="#000000" fill-rule="evenodd" fill-opacity="1" /><path clip-path="url(#clip830)" d="M1075.07 1518.36 L1063.26 1536.81 L1075.07 1536.81 L1075.07 1518.36 M1073.84 1514.29 L1079.72 1514.29 L1079.72 1536.81 L1084.65 1536.81 L1084.65 1540.7 L1079.72 1540.7 L1079.72 1548.85 L1075.07 1548.85 L1075.07 1540.7 L1059.47 1540.7 L1059.47 1536.19 L1073.84 1514.29 Z" fill="#000000" fill-rule="evenodd" fill-opacity="1" /><path clip-path="url(#clip830)" d="M1436.32 1517.37 Q1432.71 1517.37 1430.88 1520.93 Q1429.08 1524.47 1429.08 1531.6 Q1429.08 1538.71 1430.88 1542.27 Q1432.71 1545.82 1436.32 1545.82 Q1439.96 1545.82 1441.76 1542.27 Q1443.59 1538.71 1443.59 1531.6 Q1443.59 1524.47 1441.76 1520.93 Q1439.96 1517.37 1436.32 1517.37 M1436.32 1513.66 Q1442.13 1513.66 1445.19 1518.27 Q1448.27 1522.85 1448.27 1531.6 Q1448.27 1540.33 1445.19 1544.94 Q1442.13 1549.52 1436.32 1549.52 Q1430.51 1549.52 1427.43 1544.94 Q1424.38 1540.33 1424.38 1531.6 Q1424.38 1522.85 1427.43 1518.27 Q1430.51 1513.66 1436.32 1513.66 Z" fill="#000000" fill-rule="evenodd" fill-opacity="1" /><path clip-path="url(#clip830)" d="M1456.48 1542.97 L1461.37 1542.97 L1461.37 1548.85 L1456.48 1548.85 L1456.48 1542.97 Z" fill="#000000" fill-rule="evenodd" fill-opacity="1" /><path clip-path="url(#clip830)" d="M1481.55 1517.37 Q1477.94 1517.37 1476.11 1520.93 Q1474.31 1524.47 1474.31 1531.6 Q1474.31 1538.71 1476.11 1542.27 Q1477.94 1545.82 1481.55 1545.82 Q1485.19 1545.82 1486.99 1542.27 Q1488.82 1538.71 1488.82 1531.6 Q1488.82 1524.47 1486.99 1520.93 Q1485.19 1517.37 1481.55 1517.37 M1481.55 1513.66 Q1487.36 1513.66 1490.42 1518.27 Q1493.5 1522.85 1493.5 1531.6 Q1493.5 1540.33 1490.42 1544.94 Q1487.36 1549.52 1481.55 1549.52 Q1475.74 1549.52 1472.66 1544.94 Q1469.61 1540.33 1469.61 1531.6 Q1469.61 1522.85 1472.66 1518.27 Q1475.74 1513.66 1481.55 1513.66 Z" fill="#000000" fill-rule="evenodd" fill-opacity="1" /><path clip-path="url(#clip830)" d="M1512.29 1529.7 Q1509.14 1529.7 1507.29 1531.86 Q1505.46 1534.01 1505.46 1537.76 Q1505.46 1541.49 1507.29 1543.66 Q1509.14 1545.82 1512.29 1545.82 Q1515.44 1545.82 1517.27 1543.66 Q1519.12 1541.49 1519.12 1537.76 Q1519.12 1534.01 1517.27 1531.86 Q1515.44 1529.7 1512.29 1529.7 M1521.57 1515.05 L1521.57 1519.31 Q1519.82 1518.48 1518.01 1518.04 Q1516.23 1517.6 1514.47 1517.6 Q1509.84 1517.6 1507.39 1520.72 Q1504.95 1523.85 1504.61 1530.17 Q1505.97 1528.15 1508.03 1527.09 Q1510.09 1526 1512.57 1526 Q1517.78 1526 1520.79 1529.17 Q1523.82 1532.32 1523.82 1537.76 Q1523.82 1543.08 1520.67 1546.3 Q1517.52 1549.52 1512.29 1549.52 Q1506.3 1549.52 1503.13 1544.94 Q1499.95 1540.33 1499.95 1531.6 Q1499.95 1523.41 1503.84 1518.55 Q1507.73 1513.66 1514.28 1513.66 Q1516.04 1513.66 1517.83 1514.01 Q1519.63 1514.36 1521.57 1515.05 Z" fill="#000000" fill-rule="evenodd" fill-opacity="1" /><path clip-path="url(#clip830)" d="M1875.78 1517.37 Q1872.17 1517.37 1870.34 1520.93 Q1868.53 1524.47 1868.53 1531.6 Q1868.53 1538.71 1870.34 1542.27 Q1872.17 1545.82 1875.78 1545.82 Q1879.41 1545.82 1881.22 1542.27 Q1883.05 1538.71 1883.05 1531.6 Q1883.05 1524.47 1881.22 1520.93 Q1879.41 1517.37 1875.78 1517.37 M1875.78 1513.66 Q1881.59 1513.66 1884.64 1518.27 Q1887.72 1522.85 1887.72 1531.6 Q1887.72 1540.33 1884.64 1544.94 Q1881.59 1549.52 1875.78 1549.52 Q1869.97 1549.52 1866.89 1544.94 Q1863.83 1540.33 1863.83 1531.6 Q1863.83 1522.85 1866.89 1518.27 Q1869.97 1513.66 1875.78 1513.66 Z" fill="#000000" fill-rule="evenodd" fill-opacity="1" /><path clip-path="url(#clip830)" d="M1895.94 1542.97 L1900.82 1542.97 L1900.82 1548.85 L1895.94 1548.85 L1895.94 1542.97 Z" fill="#000000" fill-rule="evenodd" fill-opacity="1" /><path clip-path="url(#clip830)" d="M1921.01 1517.37 Q1917.4 1517.37 1915.57 1520.93 Q1913.76 1524.47 1913.76 1531.6 Q1913.76 1538.71 1915.57 1542.27 Q1917.4 1545.82 1921.01 1545.82 Q1924.64 1545.82 1926.45 1542.27 Q1928.28 1538.71 1928.28 1531.6 Q1928.28 1524.47 1926.45 1520.93 Q1924.64 1517.37 1921.01 1517.37 M1921.01 1513.66 Q1926.82 1513.66 1929.87 1518.27 Q1932.95 1522.85 1932.95 1531.6 Q1932.95 1540.33 1929.87 1544.94 Q1926.82 1549.52 1921.01 1549.52 Q1915.2 1549.52 1912.12 1544.94 Q1909.06 1540.33 1909.06 1531.6 Q1909.06 1522.85 1912.12 1518.27 Q1915.2 1513.66 1921.01 1513.66 Z" fill="#000000" fill-rule="evenodd" fill-opacity="1" /><path clip-path="url(#clip830)" d="M1951.17 1532.44 Q1947.84 1532.44 1945.92 1534.22 Q1944.02 1536 1944.02 1539.13 Q1944.02 1542.25 1945.92 1544.03 Q1947.84 1545.82 1951.17 1545.82 Q1954.5 1545.82 1956.42 1544.03 Q1958.35 1542.23 1958.35 1539.13 Q1958.35 1536 1956.42 1534.22 Q1954.53 1532.44 1951.17 1532.44 M1946.49 1530.45 Q1943.48 1529.7 1941.8 1527.64 Q1940.13 1525.58 1940.13 1522.62 Q1940.13 1518.48 1943.07 1516.07 Q1946.03 1513.66 1951.17 1513.66 Q1956.33 1513.66 1959.27 1516.07 Q1962.21 1518.48 1962.21 1522.62 Q1962.21 1525.58 1960.52 1527.64 Q1958.86 1529.7 1955.87 1530.45 Q1959.25 1531.23 1961.12 1533.52 Q1963.02 1535.82 1963.02 1539.13 Q1963.02 1544.15 1959.94 1546.83 Q1956.89 1549.52 1951.17 1549.52 Q1945.45 1549.52 1942.37 1546.83 Q1939.32 1544.15 1939.32 1539.13 Q1939.32 1535.82 1941.22 1533.52 Q1943.11 1531.23 1946.49 1530.45 M1944.78 1523.06 Q1944.78 1525.75 1946.45 1527.25 Q1948.14 1528.76 1951.17 1528.76 Q1954.18 1528.76 1955.87 1527.25 Q1957.58 1525.75 1957.58 1523.06 Q1957.58 1520.38 1955.87 1518.87 Q1954.18 1517.37 1951.17 1517.37 Q1948.14 1517.37 1946.45 1518.87 Q1944.78 1520.38 1944.78 1523.06 Z" fill="#000000" fill-rule="evenodd" fill-opacity="1" /><path clip-path="url(#clip830)" d="M2315.06 1517.37 Q2311.45 1517.37 2309.62 1520.93 Q2307.81 1524.47 2307.81 1531.6 Q2307.81 1538.71 2309.62 1542.27 Q2311.45 1545.82 2315.06 1545.82 Q2318.69 1545.82 2320.5 1542.27 Q2322.33 1538.71 2322.33 1531.6 Q2322.33 1524.47 2320.5 1520.93 Q2318.69 1517.37 2315.06 1517.37 M2315.06 1513.66 Q2320.87 1513.66 2323.93 1518.27 Q2327 1522.85 2327 1531.6 Q2327 1540.33 2323.93 1544.94 Q2320.87 1549.52 2315.06 1549.52 Q2309.25 1549.52 2306.17 1544.94 Q2303.11 1540.33 2303.11 1531.6 Q2303.11 1522.85 2306.17 1518.27 Q2309.25 1513.66 2315.06 1513.66 Z" fill="#000000" fill-rule="evenodd" fill-opacity="1" /><path clip-path="url(#clip830)" d="M2335.22 1542.97 L2340.11 1542.97 L2340.11 1548.85 L2335.22 1548.85 L2335.22 1542.97 Z" fill="#000000" fill-rule="evenodd" fill-opacity="1" /><path clip-path="url(#clip830)" d="M2351.1 1544.91 L2358.74 1544.91 L2358.74 1518.55 L2350.43 1520.21 L2350.43 1515.95 L2358.69 1514.29 L2363.37 1514.29 L2363.37 1544.91 L2371.01 1544.91 L2371.01 1548.85 L2351.1 1548.85 L2351.1 1544.91 Z" fill="#000000" fill-rule="evenodd" fill-opacity="1" /><path clip-path="url(#clip830)" d="M2390.45 1517.37 Q2386.84 1517.37 2385.01 1520.93 Q2383.21 1524.47 2383.21 1531.6 Q2383.21 1538.71 2385.01 1542.27 Q2386.84 1545.82 2390.45 1545.82 Q2394.09 1545.82 2395.89 1542.27 Q2397.72 1538.71 2397.72 1531.6 Q2397.72 1524.47 2395.89 1520.93 Q2394.09 1517.37 2390.45 1517.37 M2390.45 1513.66 Q2396.26 1513.66 2399.32 1518.27 Q2402.4 1522.85 2402.4 1531.6 Q2402.4 1540.33 2399.32 1544.94 Q2396.26 1549.52 2390.45 1549.52 Q2384.64 1549.52 2381.56 1544.94 Q2378.51 1540.33 2378.51 1531.6 Q2378.51 1522.85 2381.56 1518.27 Q2384.64 1513.66 2390.45 1513.66 Z" fill="#000000" fill-rule="evenodd" fill-opacity="1" /><polyline clip-path="url(#clip832)" style="stroke:#000000; stroke-linecap:butt; stroke-linejoin:round; stroke-width:2; stroke-opacity:0.1; fill:none" points="
  156.112,1445.72 2352.76,1445.72 
  "/>
<polyline clip-path="url(#clip832)" style="stroke:#000000; stroke-linecap:butt; stroke-linejoin:round; stroke-width:2; stroke-opacity:0.1; fill:none" points="
  156.112,1016.36 2352.76,1016.36 
  "/>
<polyline clip-path="url(#clip832)" style="stroke:#000000; stroke-linecap:butt; stroke-linejoin:round; stroke-width:2; stroke-opacity:0.1; fill:none" points="
  156.112,587.006 2352.76,587.006 
  "/>
<polyline clip-path="url(#clip832)" style="stroke:#000000; stroke-linecap:butt; stroke-linejoin:round; stroke-width:2; stroke-opacity:0.1; fill:none" points="
  156.112,157.651 2352.76,157.651 
  "/>
<polyline clip-path="url(#clip830)" style="stroke:#000000; stroke-linecap:butt; stroke-linejoin:round; stroke-width:4; stroke-opacity:1; fill:none" points="
  156.112,1486.45 156.112,47.2441 
  "/>
<polyline clip-path="url(#clip830)" style="stroke:#000000; stroke-linecap:butt; stroke-linejoin:round; stroke-width:4; stroke-opacity:1; fill:none" points="
  156.112,1445.72 175.01,1445.72 
  "/>
<polyline clip-path="url(#clip830)" style="stroke:#000000; stroke-linecap:butt; stroke-linejoin:round; stroke-width:4; stroke-opacity:1; fill:none" points="
  156.112,1016.36 175.01,1016.36 
  "/>
<polyline clip-path="url(#clip830)" style="stroke:#000000; stroke-linecap:butt; stroke-linejoin:round; stroke-width:4; stroke-opacity:1; fill:none" points="
  156.112,587.006 175.01,587.006 
  "/>
<polyline clip-path="url(#clip830)" style="stroke:#000000; stroke-linecap:butt; stroke-linejoin:round; stroke-width:4; stroke-opacity:1; fill:none" points="
  156.112,157.651 175.01,157.651 
  "/>
<path clip-path="url(#clip830)" d="M62.9365 1431.51 Q59.3254 1431.51 57.4967 1435.08 Q55.6912 1438.62 55.6912 1445.75 Q55.6912 1452.86 57.4967 1456.42 Q59.3254 1459.96 62.9365 1459.96 Q66.5707 1459.96 68.3763 1456.42 Q70.205 1452.86 70.205 1445.75 Q70.205 1438.62 68.3763 1435.08 Q66.5707 1431.51 62.9365 1431.51 M62.9365 1427.81 Q68.7467 1427.81 71.8022 1432.42 Q74.8809 1437 74.8809 1445.75 Q74.8809 1454.48 71.8022 1459.08 Q68.7467 1463.67 62.9365 1463.67 Q57.1264 1463.67 54.0477 1459.08 Q50.9921 1454.48 50.9921 1445.75 Q50.9921 1437 54.0477 1432.42 Q57.1264 1427.81 62.9365 1427.81 Z" fill="#000000" fill-rule="evenodd" fill-opacity="1" /><path clip-path="url(#clip830)" d="M83.0984 1457.12 L87.9827 1457.12 L87.9827 1463 L83.0984 1463 L83.0984 1457.12 Z" fill="#000000" fill-rule="evenodd" fill-opacity="1" /><path clip-path="url(#clip830)" d="M108.168 1431.51 Q104.557 1431.51 102.728 1435.08 Q100.922 1438.62 100.922 1445.75 Q100.922 1452.86 102.728 1456.42 Q104.557 1459.96 108.168 1459.96 Q111.802 1459.96 113.608 1456.42 Q115.436 1452.86 115.436 1445.75 Q115.436 1438.62 113.608 1435.08 Q111.802 1431.51 108.168 1431.51 M108.168 1427.81 Q113.978 1427.81 117.033 1432.42 Q120.112 1437 120.112 1445.75 Q120.112 1454.48 117.033 1459.08 Q113.978 1463.67 108.168 1463.67 Q102.358 1463.67 99.2789 1459.08 Q96.2234 1454.48 96.2234 1445.75 Q96.2234 1437 99.2789 1432.42 Q102.358 1427.81 108.168 1427.81 Z" fill="#000000" fill-rule="evenodd" fill-opacity="1" /><path clip-path="url(#clip830)" d="M64.1634 1002.16 Q60.5523 1002.16 58.7236 1005.72 Q56.918 1009.27 56.918 1016.4 Q56.918 1023.5 58.7236 1027.07 Q60.5523 1030.61 64.1634 1030.61 Q67.7976 1030.61 69.6031 1027.07 Q71.4318 1023.5 71.4318 1016.4 Q71.4318 1009.27 69.6031 1005.72 Q67.7976 1002.16 64.1634 1002.16 M64.1634 998.456 Q69.9735 998.456 73.029 1003.06 Q76.1077 1007.65 76.1077 1016.4 Q76.1077 1025.12 73.029 1029.73 Q69.9735 1034.31 64.1634 1034.31 Q58.3532 1034.31 55.2745 1029.73 Q52.219 1025.12 52.219 1016.4 Q52.219 1007.65 55.2745 1003.06 Q58.3532 998.456 64.1634 998.456 Z" fill="#000000" fill-rule="evenodd" fill-opacity="1" /><path clip-path="url(#clip830)" d="M84.3253 1027.76 L89.2095 1027.76 L89.2095 1033.64 L84.3253 1033.64 L84.3253 1027.76 Z" fill="#000000" fill-rule="evenodd" fill-opacity="1" /><path clip-path="url(#clip830)" d="M100.205 1029.71 L107.844 1029.71 L107.844 1003.34 L99.5335 1005.01 L99.5335 1000.75 L107.797 999.081 L112.473 999.081 L112.473 1029.71 L120.112 1029.71 L120.112 1033.64 L100.205 1033.64 L100.205 1029.71 Z" fill="#000000" fill-rule="evenodd" fill-opacity="1" /><path clip-path="url(#clip830)" d="M64.5337 572.805 Q60.9226 572.805 59.0939 576.369 Q57.2884 579.911 57.2884 587.041 Q57.2884 594.147 59.0939 597.712 Q60.9226 601.253 64.5337 601.253 Q68.168 601.253 69.9735 597.712 Q71.8022 594.147 71.8022 587.041 Q71.8022 579.911 69.9735 576.369 Q68.168 572.805 64.5337 572.805 M64.5337 569.101 Q70.3439 569.101 73.3994 573.707 Q76.4781 578.291 76.4781 587.041 Q76.4781 595.767 73.3994 600.374 Q70.3439 604.957 64.5337 604.957 Q58.7236 604.957 55.6449 600.374 Q52.5893 595.767 52.5893 587.041 Q52.5893 578.291 55.6449 573.707 Q58.7236 569.101 64.5337 569.101 Z" fill="#000000" fill-rule="evenodd" fill-opacity="1" /><path clip-path="url(#clip830)" d="M84.6956 598.406 L89.5799 598.406 L89.5799 604.286 L84.6956 604.286 L84.6956 598.406 Z" fill="#000000" fill-rule="evenodd" fill-opacity="1" /><path clip-path="url(#clip830)" d="M103.793 600.351 L120.112 600.351 L120.112 604.286 L98.1678 604.286 L98.1678 600.351 Q100.83 597.596 105.413 592.967 Q110.02 588.314 111.2 586.971 Q113.445 584.448 114.325 582.712 Q115.228 580.953 115.228 579.263 Q115.228 576.508 113.283 574.772 Q111.362 573.036 108.26 573.036 Q106.061 573.036 103.608 573.8 Q101.177 574.564 98.3993 576.115 L98.3993 571.393 Q101.223 570.258 103.677 569.68 Q106.131 569.101 108.168 569.101 Q113.538 569.101 116.733 571.786 Q119.927 574.471 119.927 578.962 Q119.927 581.092 119.117 583.013 Q118.33 584.911 116.223 587.504 Q115.645 588.175 112.543 591.392 Q109.441 594.587 103.793 600.351 Z" fill="#000000" fill-rule="evenodd" fill-opacity="1" /><path clip-path="url(#clip830)" d="M63.5847 143.45 Q59.9736 143.45 58.1449 147.014 Q56.3393 150.556 56.3393 157.686 Q56.3393 164.792 58.1449 168.357 Q59.9736 171.899 63.5847 171.899 Q67.2189 171.899 69.0244 168.357 Q70.8531 164.792 70.8531 157.686 Q70.8531 150.556 69.0244 147.014 Q67.2189 143.45 63.5847 143.45 M63.5847 139.746 Q69.3948 139.746 72.4503 144.352 Q75.529 148.936 75.529 157.686 Q75.529 166.413 72.4503 171.019 Q69.3948 175.602 63.5847 175.602 Q57.7745 175.602 54.6958 171.019 Q51.6403 166.413 51.6403 157.686 Q51.6403 148.936 54.6958 144.352 Q57.7745 139.746 63.5847 139.746 Z" fill="#000000" fill-rule="evenodd" fill-opacity="1" /><path clip-path="url(#clip830)" d="M83.7466 169.051 L88.6308 169.051 L88.6308 174.931 L83.7466 174.931 L83.7466 169.051 Z" fill="#000000" fill-rule="evenodd" fill-opacity="1" /><path clip-path="url(#clip830)" d="M112.983 156.297 Q116.339 157.014 118.214 159.283 Q120.112 161.551 120.112 164.885 Q120.112 170 116.594 172.801 Q113.075 175.602 106.594 175.602 Q104.418 175.602 102.103 175.162 Q99.8113 174.746 97.3576 173.889 L97.3576 169.375 Q99.3021 170.51 101.617 171.088 Q103.932 171.667 106.455 171.667 Q110.853 171.667 113.145 169.931 Q115.459 168.195 115.459 164.885 Q115.459 161.829 113.307 160.116 Q111.177 158.38 107.358 158.38 L103.33 158.38 L103.33 154.538 L107.543 154.538 Q110.992 154.538 112.82 153.172 Q114.649 151.783 114.649 149.19 Q114.649 146.528 112.751 145.116 Q110.876 143.681 107.358 143.681 Q105.436 143.681 103.237 144.098 Q101.038 144.514 98.3993 145.394 L98.3993 141.227 Q101.061 140.487 103.376 140.116 Q105.714 139.746 107.774 139.746 Q113.098 139.746 116.2 142.177 Q119.302 144.584 119.302 148.704 Q119.302 151.575 117.658 153.565 Q116.015 155.533 112.983 156.297 Z" fill="#000000" fill-rule="evenodd" fill-opacity="1" /><polyline clip-path="url(#clip832)" style="stroke:#009af9; stroke-linecap:butt; stroke-linejoin:round; stroke-width:16; stroke-opacity:1; fill:none" points="
  156.112,1445.72 177.564,1441.52 375.919,1402.75 495.122,1379.45 595.907,1359.75 705.387,1338.35 806.318,1318.63 914.527,1297.48 1039.9,1272.97 1151.31,1251.19 
  1249.01,1232.1 1355.53,1211.28 1462.69,1190.33 1581.16,1167.18 1693.88,1145.14 1811.09,1122.24 1909.75,1102.95 2030.2,1079.41 2143.43,1057.27 2324.84,1021.82 
  2352.76,1016.36 
  "/>
<polyline clip-path="url(#clip832)" style="stroke:#e26f46; stroke-linecap:butt; stroke-linejoin:round; stroke-width:16; stroke-opacity:1; fill:none" points="
  156.112,1445.72 161.475,1378.63 166.838,1350.84 172.201,1329.52 177.564,1311.54 202.359,1248.71 227.153,1201.55 251.947,1162.12 276.742,1127.54 326.33,1067.76 
  375.919,1016.22 435.521,961.48 495.122,912.328 545.514,874.058 595.907,838.194 705.387,766.775 806.318,707.026 914.527,647.923 1039.9,584.504 1151.31,531.83 
  1249.01,488.021 1355.53,442.435 1462.69,398.578 1581.16,352.135 1693.88,309.706 1811.09,267.209 1909.75,232.589 2030.2,191.617 2143.43,154.286 2324.84,96.6317 
  2352.76,87.9763 
  "/>
<path clip-path="url(#clip830)" d="
M1956.82 328.498 L2279.53 328.498 L2279.53 95.2176 L1956.82 95.2176  Z
  " fill="#ffffff" fill-rule="evenodd" fill-opacity="1"/>
<polyline clip-path="url(#clip830)" style="stroke:#000000; stroke-linecap:butt; stroke-linejoin:round; stroke-width:4; stroke-opacity:1; fill:none" points="
  1956.82,328.498 2279.53,328.498 2279.53,95.2176 1956.82,95.2176 1956.82,328.498 
  "/>
<polyline clip-path="url(#clip830)" style="stroke:#009af9; stroke-linecap:butt; stroke-linejoin:round; stroke-width:6; stroke-opacity:1; fill:none" points="
  1981.22,172.978 2127.67,172.978 
  "/>
<path clip-path="url(#clip830)" d="M2172.84 202.509 Q2170.13 209.453 2167.56 211.571 Q2164.99 213.689 2160.69 213.689 L2155.58 213.689 L2155.58 208.342 L2159.33 208.342 Q2161.97 208.342 2163.43 207.092 Q2164.89 205.842 2166.66 201.189 L2167.8 198.273 L2152.07 160.009 L2158.85 160.009 L2171 190.425 L2183.15 160.009 L2189.92 160.009 L2172.84 202.509 Z" fill="#000000" fill-rule="evenodd" fill-opacity="1" /><path clip-path="url(#clip830)" d="M2200.86 192.995 L2212.32 192.995 L2212.32 153.446 L2199.85 155.946 L2199.85 149.558 L2212.25 147.058 L2219.26 147.058 L2219.26 192.995 L2230.72 192.995 L2230.72 198.898 L2200.86 198.898 L2200.86 192.995 Z" fill="#000000" fill-rule="evenodd" fill-opacity="1" /><polyline clip-path="url(#clip830)" style="stroke:#e26f46; stroke-linecap:butt; stroke-linejoin:round; stroke-width:6; stroke-opacity:1; fill:none" points="
  1981.22,250.738 2127.67,250.738 
  "/>
<path clip-path="url(#clip830)" d="M2172.84 280.269 Q2170.13 287.213 2167.56 289.331 Q2164.99 291.449 2160.69 291.449 L2155.58 291.449 L2155.58 286.102 L2159.33 286.102 Q2161.97 286.102 2163.43 284.852 Q2164.89 283.602 2166.66 278.949 L2167.8 276.033 L2152.07 237.769 L2158.85 237.769 L2171 268.185 L2183.15 237.769 L2189.92 237.769 L2172.84 280.269 Z" fill="#000000" fill-rule="evenodd" fill-opacity="1" /><path clip-path="url(#clip830)" d="M2205.69 270.755 L2230.16 270.755 L2230.16 276.658 L2197.25 276.658 L2197.25 270.755 Q2201.24 266.623 2208.12 259.678 Q2215.03 252.699 2216.8 250.685 Q2220.16 246.901 2221.48 244.297 Q2222.84 241.658 2222.84 239.123 Q2222.84 234.991 2219.92 232.387 Q2217.04 229.783 2212.39 229.783 Q2209.09 229.783 2205.41 230.929 Q2201.76 232.074 2197.6 234.401 L2197.6 227.318 Q2201.83 225.616 2205.51 224.748 Q2209.19 223.88 2212.25 223.88 Q2220.3 223.88 2225.1 227.908 Q2229.89 231.936 2229.89 238.672 Q2229.89 241.866 2228.67 244.748 Q2227.49 247.595 2224.33 251.484 Q2223.46 252.491 2218.81 257.317 Q2214.16 262.109 2205.69 270.755 Z" fill="#000000" fill-rule="evenodd" fill-opacity="1" /></svg>
