<?xml version="1.0" encoding="utf-8"?>
<svg xmlns="http://www.w3.org/2000/svg" xmlns:xlink="http://www.w3.org/1999/xlink" width="600" height="400" viewBox="0 0 2400 1600">
<defs>
  <clipPath id="clip530">
    <rect x="0" y="0" width="2400" height="1600"/>
  </clipPath>
</defs>
<path clip-path="url(#clip530)" d="
M0 1600 L2400 1600 L2400 0 L0 0  Z
  " fill="#ffffff" fill-rule="evenodd" fill-opacity="1"/>
<defs>
  <clipPath id="clip531">
    <rect x="480" y="0" width="1681" height="1600"/>
  </clipPath>
</defs>
<path clip-path="url(#clip530)" d="
M276.915 1469.17 L2352.76 1469.17 L2352.76 47.2441 L276.915 47.2441  Z
  " fill="#ffffff" fill-rule="evenodd" fill-opacity="1"/>
<defs>
  <clipPath id="clip532">
    <rect x="276" y="47" width="2077" height="1423"/>
  </clipPath>
</defs>
<polyline clip-path="url(#clip532)" style="stroke:#000000; stroke-linecap:round; stroke-linejoin:round; stroke-width:2; stroke-opacity:0.1; fill:none" points="
  276.915,1469.17 276.915,47.2441 
  "/>
<polyline clip-path="url(#clip532)" style="stroke:#000000; stroke-linecap:round; stroke-linejoin:round; stroke-width:2; stroke-opacity:0.1; fill:none" points="
  795.875,1469.17 795.875,47.2441 
  "/>
<polyline clip-path="url(#clip532)" style="stroke:#000000; stroke-linecap:round; stroke-linejoin:round; stroke-width:2; stroke-opacity:0.1; fill:none" points="
  1314.84,1469.17 1314.84,47.2441 
  "/>
<polyline clip-path="url(#clip532)" style="stroke:#000000; stroke-linecap:round; stroke-linejoin:round; stroke-width:2; stroke-opacity:0.1; fill:none" points="
  1833.8,1469.17 1833.8,47.2441 
  "/>
<polyline clip-path="url(#clip532)" style="stroke:#000000; stroke-linecap:round; stroke-linejoin:round; stroke-width:2; stroke-opacity:0.1; fill:none" points="
  2352.76,1469.17 2352.76,47.2441 
  "/>
<polyline clip-path="url(#clip530)" style="stroke:#000000; stroke-linecap:round; stroke-linejoin:round; stroke-width:4; stroke-opacity:1; fill:none" points="
  276.915,1469.17 2352.76,1469.17 
  "/>
<polyline clip-path="url(#clip530)" style="stroke:#000000; stroke-linecap:round; stroke-linejoin:round; stroke-width:4; stroke-opacity:1; fill:none" points="
  276.915,1469.17 276.915,1450.27 
  "/>
<polyline clip-path="url(#clip530)" style="stroke:#000000; stroke-linecap:round; stroke-linejoin:round; stroke-width:4; stroke-opacity:1; fill:none" points="
  795.875,1469.17 795.875,1450.27 
  "/>
<polyline clip-path="url(#clip530)" style="stroke:#000000; stroke-linecap:round; stroke-linejoin:round; stroke-width:4; stroke-opacity:1; fill:none" points="
  1314.84,1469.17 1314.84,1450.27 
  "/>
<polyline clip-path="url(#clip530)" style="stroke:#000000; stroke-linecap:round; stroke-linejoin:round; stroke-width:4; stroke-opacity:1; fill:none" points="
  1833.8,1469.17 1833.8,1450.27 
  "/>
<polyline clip-path="url(#clip530)" style="stroke:#000000; stroke-linecap:round; stroke-linejoin:round; stroke-width:4; stroke-opacity:1; fill:none" points="
  2352.76,1469.17 2352.76,1450.27 
  "/>
<path clip-path="url(#clip530)" d="M208.009 1527.92 L252.523 1527.92 L252.523 1533.83 L208.009 1533.83 L208.009 1527.92 Z" fill="#000000" fill-rule="evenodd" fill-opacity="1" /><path clip-path="url(#clip530)" d="M273.703 1547.27 L298.182 1547.27 L298.182 1553.17 L265.266 1553.17 L265.266 1547.27 Q269.259 1543.13 276.134 1536.19 Q283.044 1529.21 284.814 1527.2 Q288.182 1523.41 289.502 1520.81 Q290.856 1518.17 290.856 1515.63 Q290.856 1511.5 287.939 1508.9 Q285.057 1506.29 280.405 1506.29 Q277.106 1506.29 273.426 1507.44 Q269.78 1508.58 265.613 1510.91 L265.613 1503.83 Q269.849 1502.13 273.53 1501.26 Q277.21 1500.39 280.266 1500.39 Q288.321 1500.39 293.113 1504.42 Q297.905 1508.45 297.905 1515.18 Q297.905 1518.38 296.689 1521.26 Q295.509 1524.11 292.349 1527.99 Q291.481 1529 286.828 1533.83 Q282.176 1538.62 273.703 1547.27 Z" fill="#000000" fill-rule="evenodd" fill-opacity="1" /><path clip-path="url(#clip530)" d="M327.904 1505.95 Q322.488 1505.95 319.745 1511.29 Q317.036 1516.61 317.036 1527.3 Q317.036 1537.96 319.745 1543.31 Q322.488 1548.62 327.904 1548.62 Q333.356 1548.62 336.064 1543.31 Q338.807 1537.96 338.807 1527.3 Q338.807 1516.61 336.064 1511.29 Q333.356 1505.95 327.904 1505.95 M327.904 1500.39 Q336.62 1500.39 341.203 1507.3 Q345.821 1514.18 345.821 1527.3 Q345.821 1540.39 341.203 1547.3 Q336.62 1554.17 327.904 1554.17 Q319.189 1554.17 314.571 1547.3 Q309.988 1540.39 309.988 1527.3 Q309.988 1514.18 314.571 1507.3 Q319.189 1500.39 327.904 1500.39 Z" fill="#000000" fill-rule="evenodd" fill-opacity="1" /><path clip-path="url(#clip530)" d="M726.969 1527.92 L771.483 1527.92 L771.483 1533.83 L726.969 1533.83 L726.969 1527.92 Z" fill="#000000" fill-rule="evenodd" fill-opacity="1" /><path clip-path="url(#clip530)" d="M787.837 1547.27 L799.295 1547.27 L799.295 1507.72 L786.83 1510.22 L786.83 1503.83 L799.226 1501.33 L806.24 1501.33 L806.24 1547.27 L817.698 1547.27 L817.698 1553.17 L787.837 1553.17 L787.837 1547.27 Z" fill="#000000" fill-rule="evenodd" fill-opacity="1" /><path clip-path="url(#clip530)" d="M846.865 1505.95 Q841.448 1505.95 838.705 1511.29 Q835.997 1516.61 835.997 1527.3 Q835.997 1537.96 838.705 1543.31 Q841.448 1548.62 846.865 1548.62 Q852.316 1548.62 855.024 1543.31 Q857.767 1537.96 857.767 1527.3 Q857.767 1516.61 855.024 1511.29 Q852.316 1505.95 846.865 1505.95 M846.865 1500.39 Q855.58 1500.39 860.163 1507.3 Q864.781 1514.18 864.781 1527.3 Q864.781 1540.39 860.163 1547.3 Q855.58 1554.17 846.865 1554.17 Q838.149 1554.17 833.531 1547.3 Q828.948 1540.39 828.948 1527.3 Q828.948 1514.18 833.531 1507.3 Q838.149 1500.39 846.865 1500.39 Z" fill="#000000" fill-rule="evenodd" fill-opacity="1" /><path clip-path="url(#clip530)" d="M1314.84 1505.95 Q1309.42 1505.95 1306.68 1511.29 Q1303.97 1516.61 1303.97 1527.3 Q1303.97 1537.96 1306.68 1543.31 Q1309.42 1548.62 1314.84 1548.62 Q1320.29 1548.62 1323 1543.31 Q1325.74 1537.96 1325.74 1527.3 Q1325.74 1516.61 1323 1511.29 Q1320.29 1505.95 1314.84 1505.95 M1314.84 1500.39 Q1323.55 1500.39 1328.13 1507.3 Q1332.75 1514.18 1332.75 1527.3 Q1332.75 1540.39 1328.13 1547.3 Q1323.55 1554.17 1314.84 1554.17 Q1306.12 1554.17 1301.5 1547.3 Q1296.92 1540.39 1296.92 1527.3 Q1296.92 1514.18 1301.5 1507.3 Q1306.12 1500.39 1314.84 1500.39 Z" fill="#000000" fill-rule="evenodd" fill-opacity="1" /><path clip-path="url(#clip530)" d="M1795.83 1547.27 L1807.29 1547.27 L1807.29 1507.72 L1794.82 1510.22 L1794.82 1503.83 L1807.22 1501.33 L1814.23 1501.33 L1814.23 1547.27 L1825.69 1547.27 L1825.69 1553.17 L1795.83 1553.17 L1795.83 1547.27 Z" fill="#000000" fill-rule="evenodd" fill-opacity="1" /><path clip-path="url(#clip530)" d="M1854.85 1505.95 Q1849.44 1505.95 1846.69 1511.29 Q1843.99 1516.61 1843.99 1527.3 Q1843.99 1537.96 1846.69 1543.31 Q1849.44 1548.62 1854.85 1548.62 Q1860.31 1548.62 1863.01 1543.31 Q1865.76 1537.96 1865.76 1527.3 Q1865.76 1516.61 1863.01 1511.29 Q1860.31 1505.95 1854.85 1505.95 M1854.85 1500.39 Q1863.57 1500.39 1868.15 1507.3 Q1872.77 1514.18 1872.77 1527.3 Q1872.77 1540.39 1868.15 1547.3 Q1863.57 1554.17 1854.85 1554.17 Q1846.14 1554.17 1841.52 1547.3 Q1836.94 1540.39 1836.94 1527.3 Q1836.94 1514.18 1841.52 1507.3 Q1846.14 1500.39 1854.85 1500.39 Z" fill="#000000" fill-rule="evenodd" fill-opacity="1" /><path clip-path="url(#clip530)" d="M2320.92 1547.27 L2345.39 1547.27 L2345.39 1553.17 L2312.48 1553.17 L2312.48 1547.27 Q2316.47 1543.13 2323.35 1536.19 Q2330.26 1529.21 2332.03 1527.2 Q2335.39 1523.41 2336.71 1520.81 Q2338.07 1518.17 2338.07 1515.63 Q2338.07 1511.5 2335.15 1508.9 Q2332.27 1506.29 2327.62 1506.29 Q2324.32 1506.29 2320.64 1507.44 Q2316.99 1508.58 2312.83 1510.91 L2312.83 1503.83 Q2317.06 1502.13 2320.74 1501.26 Q2324.42 1500.39 2327.48 1500.39 Q2335.53 1500.39 2340.33 1504.42 Q2345.12 1508.45 2345.12 1515.18 Q2345.12 1518.38 2343.9 1521.26 Q2342.72 1524.11 2339.56 1527.99 Q2338.69 1529 2334.04 1533.83 Q2329.39 1538.62 2320.92 1547.27 Z" fill="#000000" fill-rule="evenodd" fill-opacity="1" /><path clip-path="url(#clip530)" d="M2375.12 1505.95 Q2369.7 1505.95 2366.96 1511.29 Q2364.25 1516.61 2364.25 1527.3 Q2364.25 1537.96 2366.96 1543.31 Q2369.7 1548.62 2375.12 1548.62 Q2380.57 1548.62 2383.28 1543.31 Q2386.02 1537.96 2386.02 1527.3 Q2386.02 1516.61 2383.28 1511.29 Q2380.57 1505.95 2375.12 1505.95 M2375.12 1500.39 Q2383.83 1500.39 2388.42 1507.3 Q2393.03 1514.18 2393.03 1527.3 Q2393.03 1540.39 2388.42 1547.3 Q2383.83 1554.17 2375.12 1554.17 Q2366.4 1554.17 2361.78 1547.3 Q2357.2 1540.39 2357.2 1527.3 Q2357.2 1514.18 2361.78 1507.3 Q2366.4 1500.39 2375.12 1500.39 Z" fill="#000000" fill-rule="evenodd" fill-opacity="1" /><polyline clip-path="url(#clip532)" style="stroke:#000000; stroke-linecap:round; stroke-linejoin:round; stroke-width:2; stroke-opacity:0.1; fill:none" points="
  276.915,898.439 2352.76,898.439 
  "/>
<polyline clip-path="url(#clip532)" style="stroke:#000000; stroke-linecap:round; stroke-linejoin:round; stroke-width:2; stroke-opacity:0.1; fill:none" points="
  276.915,140.602 2352.76,140.602 
  "/>
<polyline clip-path="url(#clip530)" style="stroke:#000000; stroke-linecap:round; stroke-linejoin:round; stroke-width:4; stroke-opacity:1; fill:none" points="
  276.915,1469.17 276.915,47.2441 
  "/>
<polyline clip-path="url(#clip530)" style="stroke:#000000; stroke-linecap:round; stroke-linejoin:round; stroke-width:4; stroke-opacity:1; fill:none" points="
  276.915,898.439 295.813,898.439 
  "/>
<polyline clip-path="url(#clip530)" style="stroke:#000000; stroke-linecap:round; stroke-linejoin:round; stroke-width:4; stroke-opacity:1; fill:none" points="
  276.915,140.602 295.813,140.602 
  "/>
<path clip-path="url(#clip530)" d="M51.9991 928.128 L63.4573 928.128 L63.4573 888.579 L50.9921 891.079 L50.9921 884.69 L63.3879 882.19 L70.4017 882.19 L70.4017 928.128 L81.86 928.128 L81.86 934.03 L51.9991 934.03 L51.9991 928.128 Z" fill="#000000" fill-rule="evenodd" fill-opacity="1" /><path clip-path="url(#clip530)" d="M111.027 886.808 Q105.61 886.808 102.867 892.156 Q100.159 897.468 100.159 908.163 Q100.159 918.822 102.867 924.169 Q105.61 929.482 111.027 929.482 Q116.478 929.482 119.186 924.169 Q121.929 918.822 121.929 908.163 Q121.929 897.468 119.186 892.156 Q116.478 886.808 111.027 886.808 M111.027 881.253 Q119.742 881.253 124.325 888.163 Q128.943 895.038 128.943 908.163 Q128.943 921.253 124.325 928.162 Q119.742 935.037 111.027 935.037 Q102.311 935.037 97.6933 928.162 Q93.11 921.253 93.11 908.163 Q93.11 895.038 97.6933 888.163 Q102.311 881.253 111.027 881.253 Z" fill="#000000" fill-rule="evenodd" fill-opacity="1" /><path clip-path="url(#clip530)" d="M128.943 872.405 L165.11 872.405 L165.11 877.201 L128.943 877.201 L128.943 872.405 Z" fill="#000000" fill-rule="evenodd" fill-opacity="1" /><path clip-path="url(#clip530)" d="M178.398 888.119 L187.708 888.119 L187.708 855.986 L177.58 858.017 L177.58 852.826 L187.652 850.795 L193.35 850.795 L193.35 888.119 L202.66 888.119 L202.66 892.915 L178.398 892.915 L178.398 888.119 Z" fill="#000000" fill-rule="evenodd" fill-opacity="1" /><path clip-path="url(#clip530)" d="M226.358 854.547 Q221.957 854.547 219.728 858.892 Q217.528 863.208 217.528 871.897 Q217.528 880.558 219.728 884.903 Q221.957 889.219 226.358 889.219 Q230.787 889.219 232.988 884.903 Q235.216 880.558 235.216 871.897 Q235.216 863.208 232.988 858.892 Q230.787 854.547 226.358 854.547 M226.358 850.033 Q233.439 850.033 237.163 855.647 Q240.915 861.233 240.915 871.897 Q240.915 882.533 237.163 888.147 Q233.439 893.733 226.358 893.733 Q219.277 893.733 215.525 888.147 Q211.801 882.533 211.801 871.897 Q211.801 861.233 215.525 855.647 Q219.277 850.033 226.358 850.033 Z" fill="#000000" fill-rule="evenodd" fill-opacity="1" /><path clip-path="url(#clip530)" d="M134.857 170.291 L146.315 170.291 L146.315 130.743 L133.85 133.243 L133.85 126.854 L146.246 124.354 L153.259 124.354 L153.259 170.291 L164.718 170.291 L164.718 176.194 L134.857 176.194 L134.857 170.291 Z" fill="#000000" fill-rule="evenodd" fill-opacity="1" /><path clip-path="url(#clip530)" d="M193.884 128.972 Q188.468 128.972 185.724 134.319 Q183.016 139.631 183.016 150.326 Q183.016 160.985 185.724 166.333 Q188.468 171.645 193.884 171.645 Q199.336 171.645 202.044 166.333 Q204.787 160.985 204.787 150.326 Q204.787 139.631 202.044 134.319 Q199.336 128.972 193.884 128.972 M193.884 123.416 Q202.599 123.416 207.183 130.326 Q211.801 137.201 211.801 150.326 Q211.801 163.416 207.183 170.326 Q202.599 177.201 193.884 177.201 Q185.169 177.201 180.551 170.326 Q175.968 163.416 175.968 150.326 Q175.968 137.201 180.551 130.326 Q185.169 123.416 193.884 123.416 Z" fill="#000000" fill-rule="evenodd" fill-opacity="1" /><path clip-path="url(#clip530)" d="M226.358 96.7103 Q221.957 96.7103 219.728 101.055 Q217.528 105.371 217.528 114.06 Q217.528 122.721 219.728 127.066 Q221.957 131.382 226.358 131.382 Q230.787 131.382 232.988 127.066 Q235.216 122.721 235.216 114.06 Q235.216 105.371 232.988 101.055 Q230.787 96.7103 226.358 96.7103 M226.358 92.1964 Q233.439 92.1964 237.163 97.8106 Q240.915 103.396 240.915 114.06 Q240.915 124.696 237.163 130.31 Q233.439 135.896 226.358 135.896 Q219.277 135.896 215.525 130.31 Q211.801 124.696 211.801 114.06 Q211.801 103.396 215.525 97.8106 Q219.277 92.1964 226.358 92.1964 Z" fill="#000000" fill-rule="evenodd" fill-opacity="1" /><polyline clip-path="url(#clip532)" style="stroke:#009af9; stroke-linecap:round; stroke-linejoin:round; stroke-width:12; stroke-opacity:1; fill:none" points="
  276.915,118.077 277.021,132.019 277.126,147.82 277.232,101.652 277.337,136.034 277.443,141.244 277.549,154.377 277.654,116.881 277.76,97.7854 277.865,162.742 
  277.971,124.919 278.077,124.869 278.182,103.044 278.288,190.993 278.393,135.159 278.499,87.4872 278.605,144.435 278.71,135.056 278.816,226.836 278.921,161.666 
  279.027,113.83 279.132,99.2589 279.238,109.502 279.344,179.085 279.449,143.393 279.555,137.546 279.66,102.265 279.766,132.547 279.872,114.041 279.977,154.404 
  280.083,109.409 280.188,113.657 280.294,92.3531 280.399,132.749 280.505,119.668 280.611,112.07 280.716,146.212 280.822,138.442 280.927,156.594 281.033,132.86 
  281.139,144.351 281.244,125.451 281.35,108.918 281.455,162.647 281.561,108.481 281.666,168.98 281.772,143.03 281.878,168.075 281.983,130.632 282.089,164.581 
  282.194,121.016 282.3,135.392 282.406,144.81 282.511,205.609 282.617,146.958 282.722,178.106 282.828,120.874 282.933,152.279 283.039,129.526 283.145,161.414 
  283.25,131.069 283.356,105.364 283.461,143.659 283.567,226.929 283.673,137.536 283.778,109.883 283.884,161.526 283.989,218.349 284.095,133.436 284.201,119.32 
  284.306,177.537 284.412,161.149 284.517,115.504 284.623,145.547 284.728,137.564 284.834,206.24 284.94,150.807 285.045,146.355 285.151,126.995 285.256,126.795 
  285.362,129.804 285.468,218.502 285.573,111.256 285.679,135.241 285.784,144.565 285.89,161.526 285.995,149.134 286.101,170.312 286.207,168.015 286.312,119.251 
  286.418,156.93 286.523,132.62 286.629,278.674 286.735,118.878 286.84,182.322 286.946,124.607 287.051,120.52 287.157,133.798 287.262,103.992 287.368,107.687 
  287.474,152.63 287.579,145.873 287.685,213.791 287.79,152.915 287.896,123.584 288.002,127.009 288.107,173.869 288.213,194.234 288.318,157.473 288.424,135.915 
  288.529,110.58 288.635,108.532 288.741,154.2 288.846,104.014 288.952,122.173 289.057,120.508 289.163,174.446 289.269,228.986 289.374,155.188 289.48,121.849 
  289.585,181.704 289.691,151.597 289.797,172.068 289.902,169.303 290.008,206.261 290.113,172.188 290.219,130.412 290.324,293.816 290.43,214.528 291.406,183.227 
  292.383,147.918 293.359,162.365 294.335,136.586 295.311,151.541 296.288,158.045 297.264,183.751 298.24,158.577 299.217,204.184 300.193,263.782 301.169,209.011 
  302.145,200.702 303.122,153.364 304.098,155.976 305.074,151.64 306.051,200.18 307.027,210.427 308.003,174.53 308.979,135.257 309.956,175.624 310.932,177.54 
  311.908,166.72 312.885,217.153 313.861,154.204 314.837,160.948 315.813,249.063 316.79,182.744 317.766,231.321 318.742,251.493 319.719,191.328 320.695,149.053 
  321.671,155.908 322.647,228.07 323.624,183.26 324.6,176.015 325.576,283.841 326.553,205.67 327.529,221.854 328.505,167.986 329.481,165.176 330.458,261.349 
  331.434,220.356 332.41,185.088 333.387,179.991 334.363,250.023 335.339,208.34 336.315,197.897 337.292,197.73 338.268,186.064 339.244,229.965 340.22,166.594 
  341.197,213.229 342.173,224.813 343.149,203.01 344.126,204.129 345.102,308.847 346.078,215.323 347.054,264.108 348.031,222.434 349.007,249.844 349.983,177.564 
  350.96,258.74 351.936,233.39 352.912,248.967 353.888,193.857 354.865,210.008 355.841,292.094 356.817,227.265 357.794,218.905 358.77,355 359.746,231.204 
  360.722,230.876 361.699,275.603 362.675,241.73 363.651,219.036 364.628,250.852 365.604,251.956 366.58,235.39 367.556,267.99 368.533,269.308 369.509,230.408 
  370.485,259.088 371.462,228.425 372.438,236.882 373.414,256.356 374.39,229.301 375.367,243.239 376.343,306.74 377.319,246.33 378.296,326.936 379.272,305.165 
  380.248,250.919 381.224,277.027 382.201,264.718 383.177,240.3 384.153,277.967 385.13,248.516 386.106,341.837 387.082,259.256 388.058,250.06 389.035,336.26 
  390.011,266.889 390.987,255.784 391.964,274.127 392.94,265.565 393.916,346.932 394.892,258.616 395.869,379.262 396.845,253.882 397.821,272.535 398.798,272.673 
  399.774,329.951 400.75,426.459 401.726,259.158 402.703,253.017 403.679,287.454 404.655,355.363 405.632,358.799 406.608,293.104 407.584,402.945 408.56,449.815 
  409.537,274.166 410.513,305.063 411.489,272.262 412.466,314.995 413.442,368.377 414.418,270.309 415.394,333.697 415.981,376.308 416.568,302.82 417.154,338.47 
  417.741,328.393 418.328,324.62 418.915,299.74 419.501,303.275 420.088,318.323 420.675,292.026 421.261,269.697 421.848,282.272 422.435,318.672 423.022,380.418 
  423.608,289.183 424.195,302.584 424.782,297.64 425.368,387.725 425.955,358.646 426.542,296.218 427.128,295.186 427.715,349.597 428.302,308.258 428.889,418.446 
  429.475,311.846 430.062,470.859 430.649,308.929 431.235,407.742 431.822,317.307 432.409,302.973 432.996,301.688 433.582,315.781 434.169,317.404 434.756,358.365 
  435.342,308.401 435.929,323.057 436.516,318.878 437.102,371.293 437.689,325.454 438.276,320.85 438.863,323.875 439.449,325.545 440.036,317.444 440.623,340.314 
  441.209,349.94 441.796,322.559 442.383,362.791 442.97,377.956 443.556,354.72 444.143,366.975 444.73,319.054 445.316,349.174 445.903,342.098 446.49,341.808 
  447.077,324.502 447.663,382.193 448.25,344.921 448.837,318.316 449.423,359.751 450.01,391.203 450.597,370.661 451.183,365.193 451.77,346.697 452.357,374.283 
  452.944,396.355 453.53,322.46 454.117,332.785 454.704,369.974 455.29,376.225 455.877,421.364 456.464,327.447 457.051,323.341 457.637,363.522 458.224,353.052 
  458.811,466.542 459.397,397.721 459.984,416.457 460.571,376.167 461.157,355.248 461.744,403.693 462.331,421.456 462.918,338.551 463.504,343.446 464.091,389.592 
  464.678,353.075 465.264,370.195 465.851,467.005 466.438,381.267 467.025,357.029 467.611,350.331 468.198,359.602 468.785,351.801 469.371,418.461 469.958,381.427 
  470.545,357.343 471.131,357.64 471.718,336.228 472.305,355.48 472.892,364.886 473.478,414.6 474.065,377.393 474.652,412.677 475.238,355.901 475.825,399.519 
  476.412,375.148 476.999,405.071 477.585,414.75 478.172,382.368 478.759,431.136 479.345,364.262 479.932,351.485 480.519,378.157 481.105,379.997 481.692,370.823 
  482.279,364.544 482.866,377.919 483.452,393.456 484.039,371.522 484.626,402.365 485.212,409.933 485.799,411.984 486.386,388.447 486.973,362.944 487.559,404.513 
  488.146,425.957 488.733,386.085 489.319,464.489 489.906,381.761 490.493,393.155 490.989,416.867 491.485,436.089 491.981,356.114 492.477,365.762 492.973,398.659 
  493.469,416.02 493.965,446.698 494.461,395.098 494.957,413.12 495.453,362.951 495.949,393.189 496.445,523.094 496.941,498.769 497.437,442.049 497.934,412.234 
  498.43,442.599 498.926,505.754 499.422,379.737 499.918,439.765 500.414,387.755 500.91,430.204 501.406,369.223 501.902,480.599 502.398,568.523 502.894,390.842 
  503.39,383.587 503.886,370.137 504.382,426.869 504.878,394.932 505.374,489.941 505.87,385.642 506.366,415.511 506.862,395.12 507.359,410.795 507.855,411.861 
  508.351,395.676 508.847,397.458 509.343,462.382 509.839,406.43 510.335,423.269 510.831,413.033 511.327,381.106 511.823,421.78 512.319,405.825 512.815,456.502 
  513.311,394.424 513.807,577.097 514.303,460.649 514.799,426.302 515.295,432.164 515.791,397.899 516.287,417.001 516.784,522.305 517.28,451.451 517.776,438.972 
  518.272,441.089 518.768,542.22 519.264,430.152 519.76,440.755 520.256,462.287 520.752,479.472 521.248,439.41 521.744,399.132 522.24,463.578 522.736,401.016 
  523.232,546.788 523.728,455.459 524.224,432.507 524.72,416.703 525.216,442.717 525.712,474.742 526.209,449.748 526.705,467.303 527.201,417.38 527.697,440.39 
  528.193,437.037 528.689,406.211 529.185,441.155 529.681,412.454 530.177,470.63 530.673,419.374 531.169,526.084 531.665,459.098 532.161,593.049 532.657,477.445 
  533.153,543.47 533.649,414.493 534.145,498.099 534.641,446.517 535.137,473.562 535.634,530.34 536.13,501.675 536.626,495.938 537.122,484.187 537.618,434.132 
  538.114,425.181 538.61,462.943 539.106,463.048 539.602,594.691 540.098,443.53 540.594,420.978 541.09,455.809 541.586,526.259 542.082,458.581 542.578,424.155 
  543.074,462.601 543.57,488.14 544.066,464.444 544.562,451.758 545.059,462.974 545.555,450.981 546.051,466.52 546.547,497.044 547.043,484.569 547.539,454.301 
  548.035,433.488 548.531,464.654 549.027,462.555 549.523,469.393 550.019,474.164 550.515,500.809 551.011,521.799 551.507,544.055 552.003,489.87 552.499,465.996 
  552.995,448.137 553.491,461.848 553.987,485.013 554.526,520.851 555.065,462.056 555.604,546.138 556.143,518.064 556.682,561.621 557.221,507.819 557.759,614.575 
  558.298,533.368 558.837,449.727 559.376,507.172 559.915,520.735 560.454,596.444 560.993,454.92 561.531,504.471 562.07,503.97 562.609,473.227 563.148,479.141 
  563.687,503.199 564.226,472.638 564.765,520.725 565.303,504.554 565.842,466.682 566.381,479.602 566.92,467.104 567.459,583.164 567.998,464.477 568.536,668.18 
  569.075,496.609 569.614,659.708 570.153,484.291 570.692,489.165 571.231,473.258 571.77,518.784 572.308,464.42 572.847,467.322 573.386,521.54 573.925,463.056 
  574.464,487.122 575.003,465.667 575.542,474.578 576.08,588.022 576.619,523.486 577.158,533.591 577.697,569.963 578.236,494.971 578.775,516.223 579.314,493.279 
  579.852,588.153 580.391,490.835 580.93,475.665 581.469,511.643 582.008,572.234 582.547,504.233 583.085,510.378 583.624,621.843 584.163,513.316 584.702,538.749 
  585.241,522.113 585.78,527.775 586.319,498.311 586.857,520.66 587.396,567 587.935,517.446 588.474,691.181 589.013,506.854 589.552,510.133 590.091,523.623 
  590.629,527.639 591.168,536.475 591.707,524.301 592.246,557.572 592.785,542.648 593.324,503.762 593.863,515.551 594.401,514.475 594.94,524.739 595.479,485.896 
  596.018,571.025 596.557,514.345 597.096,527.674 597.634,519.891 598.173,549.011 598.712,576.237 599.251,559.438 599.79,545.683 600.329,539.931 600.868,530.821 
  601.406,565.601 601.945,585.987 602.484,555.741 603.023,534.702 603.562,517.663 604.101,516.264 604.64,612.476 605.178,559.632 605.717,575.031 606.256,546.852 
  606.795,596.074 607.334,521.732 607.873,572.758 608.412,529.671 608.95,521.66 609.489,699.58 610.028,526.796 610.567,563.087 611.106,580.029 611.645,508.167 
  612.183,510.852 612.722,548.539 613.261,517.336 613.8,525.793 614.339,523.618 614.878,586.128 615.417,541.37 615.955,508.934 616.494,630.084 617.033,545.156 
  617.572,580.934 618.111,541.591 618.65,559.663 619.189,529.09 619.727,614.014 620.266,603.64 620.805,552.026 621.344,610.409 621.883,675.097 622.422,594.32 
  622.961,581.047 623.457,566.288 623.954,561.579 624.451,521.449 624.948,529.827 625.444,560.677 625.941,592.552 626.438,566.857 626.935,599.937 627.431,569.303 
  627.928,620.405 628.425,620.557 628.922,563.356 629.419,559.31 629.915,553.972 630.412,556.86 630.909,546.291 631.406,598.623 631.902,562.818 632.399,586.534 
  632.896,667.77 633.393,567.883 633.89,611.727 634.386,601.627 634.883,552.488 635.38,653.288 635.877,617.881 636.373,671.364 636.87,579.12 637.367,569.132 
  637.864,550.518 638.361,620.757 638.857,591.933 639.354,600.916 639.851,596.978 640.348,565.079 640.844,589.805 641.341,574.187 641.838,634.838 642.335,586.756 
  642.831,645.226 643.328,594.469 643.825,645.143 644.322,589.577 644.819,603.248 645.315,700.133 645.812,554.177 646.309,683.693 646.806,632.992 647.302,591.098 
  647.799,589.463 648.296,568.812 648.793,583.87 649.29,574.068 649.786,570.856 650.283,623.951 650.78,617.613 651.277,595.279 651.773,594.667 652.27,558.722 
  652.767,607.313 653.264,585.391 653.761,589.389 654.257,613.861 654.754,620.89 655.251,565.792 655.748,608.726 656.244,604.345 656.741,585.898 657.238,629.179 
  657.735,626.765 658.231,573.909 658.728,689.184 659.225,590.665 659.722,592.148 660.219,583.243 660.715,644.623 661.212,634.456 661.709,654.881 662.206,621.453 
  662.702,589.513 663.199,598.338 663.696,598.34 664.193,628.754 664.69,598.7 665.186,647.501 665.683,640.945 666.18,700.027 666.677,612.736 667.173,636.367 
  667.67,625.542 668.167,599.13 668.664,609.063 669.161,654.636 669.657,614.856 670.154,659.034 670.651,601.146 671.148,629.568 671.644,623.213 672.141,612.785 
  672.638,624.855 673.135,635.444 673.631,617.744 674.128,624.37 674.625,621.381 675.122,619.413 675.619,660.278 676.115,608.45 676.612,627.546 677.109,620.229 
  677.606,627.701 678.102,619.65 678.599,662.225 679.096,615.127 679.593,606.527 680.09,645.07 680.586,647.798 681.083,642.076 681.58,619.095 682.077,732.744 
  682.573,627.504 683.07,634.586 683.567,691.053 684.064,592.529 684.561,661.777 685.057,613.476 685.554,640.658 686.051,625.605 686.548,631.158 687.08,683.494 
  687.613,669.481 688.145,615.034 688.678,667.419 689.211,610.957 689.743,651.14 690.276,653.185 690.808,658.111 691.341,651.755 691.874,712.436 692.406,615.899 
  692.939,626.709 693.471,649.115 694.004,636.899 694.537,605.73 695.069,694.022 695.602,666.255 696.134,623.105 696.667,633.845 697.199,691.584 697.732,647.846 
  698.265,682.226 698.797,634.438 699.33,669.578 699.862,656.668 700.395,662.366 700.928,679.166 701.46,660.868 701.993,631.88 702.525,710.937 703.058,736.11 
  703.591,687.711 704.123,683.544 704.656,760.254 705.188,730.521 705.721,660.543 706.254,665.914 706.786,677.696 707.319,693.178 707.851,663.133 708.384,663.734 
  708.917,638.597 709.449,631.964 709.982,641.826 710.514,651.189 711.047,708.687 711.58,666.102 712.112,684.476 712.645,754.523 713.177,674.906 713.71,672.964 
  714.242,698.389 714.775,670.044 715.308,683.49 715.84,753.127 716.373,684.513 716.905,668.69 717.438,649.635 717.971,682.99 718.503,779.443 719.036,681.334 
  719.568,701.779 720.101,687.403 720.634,668.734 721.166,732.86 721.699,641.662 722.231,710.934 722.764,653.382 723.297,690.149 723.829,654.977 724.362,663.498 
  724.894,663.795 725.427,736.58 725.96,782.055 726.492,704.719 727.025,689.459 727.557,674.932 728.09,671.011 728.623,797.739 729.155,720.704 729.688,702.018 
  730.22,658.756 730.753,665.575 731.286,666.17 731.818,697.219 732.351,745.027 732.883,692.513 733.416,681.282 733.948,691.06 734.481,684.748 735.014,722.435 
  735.546,697.423 736.079,715.167 736.611,694.765 737.144,688.526 737.677,727.979 738.209,799.379 738.742,696.44 739.274,710.168 739.807,697.036 740.34,680.4 
  740.872,798.116 741.405,699.231 741.937,774.394 742.47,692.354 743.003,779.109 743.535,728.39 744.068,745.796 744.6,696.355 745.133,747.346 745.666,713.363 
  746.198,710.062 746.731,711.01 747.263,758.083 747.796,704.633 748.329,706.472 748.861,707.842 749.394,704.111 749.926,691.088 750.459,735.08 750.991,756.703 
  751.524,772.114 752.057,725.34 752.589,723.752 753.122,735.011 753.654,775.298 754.187,753.792 754.72,707.18 755.337,711.303 755.954,744.546 756.571,726.545 
  757.188,744.429 757.805,701.725 758.422,746.094 759.039,707.01 759.656,787.232 760.273,749.718 760.89,722.032 761.507,740.64 762.124,707.803 762.741,733.254 
  763.359,708.764 763.976,738.32 764.593,715.631 765.21,740.118 765.827,782.341 766.444,763.837 767.061,736.483 767.678,909.903 768.295,737.956 768.912,718.485 
  769.529,729.425 770.146,782.303 770.763,736.006 771.38,816.257 771.997,735.675 772.614,751.856 773.232,819.794 773.849,800.864 774.466,744.1 775.083,719.192 
  775.7,750.873 776.317,741.227 776.934,794.491 777.551,796.741 778.168,744.884 778.785,850.005 779.402,764.821 780.019,784.234 780.636,759.126 781.253,766.987 
  781.87,734.822 782.487,787.532 783.105,767.298 783.722,761.965 784.339,749.125 784.956,756.604 785.573,966.033 786.19,834.03 786.807,765.137 787.424,775.15 
  788.041,777.328 788.658,784.293 789.275,775.297 789.892,785.43 790.509,774.606 791.126,755.397 791.743,783.723 792.36,776.656 792.978,804.125 793.595,806.8 
  794.212,745.248 794.829,778.927 795.446,763.342 796.063,818.113 796.68,778.352 797.297,816.434 797.914,854.62 798.531,862.243 799.148,818.868 799.765,741.633 
  800.382,818.726 800.999,788.846 801.616,781.488 802.233,797.782 802.851,814.021 803.468,834.522 804.085,779.425 804.702,806.935 805.319,856.023 805.936,756.858 
  806.553,754.93 807.17,750.605 807.787,887.86 808.404,793.027 809.021,843.4 809.638,763.254 810.255,828.659 810.872,792.172 811.489,824.165 812.106,800.408 
  812.724,774.857 813.341,813.935 813.958,790.083 814.575,825.423 815.192,808.372 815.809,794.877 816.426,853.9 817.043,809.457 817.66,804.787 818.277,805.532 
  818.894,809.703 819.511,777.455 820.128,808.14 820.745,786.753 821.362,809.218 821.979,843.568 822.597,864.436 823.214,814.045 823.831,973.719 824.448,789.661 
  825.065,864.35 825.682,801.927 826.299,815.259 826.916,800.823 827.533,839.846 828.15,845.109 828.767,847.284 829.384,800.038 830.001,821.453 830.618,811.863 
  831.235,880.884 831.852,905.725 832.47,791.104 833.087,797.071 833.704,808.95 834.252,826.544 834.8,804.708 835.349,824.336 835.897,814.672 836.446,833.354 
  836.994,836.206 837.542,850.75 838.091,824.583 838.639,863.709 839.187,798.39 839.736,828.227 840.284,805.399 840.832,840.59 841.381,813.843 841.929,898.245 
  842.478,858.779 843.026,838.165 843.574,927.394 844.123,825.703 844.671,829.676 845.219,829.164 845.768,812.508 846.316,866.396 846.865,865.893 847.413,888.253 
  847.961,843.534 848.51,871.851 849.058,826.088 849.606,841.481 850.155,870.498 850.703,966.413 851.252,873.782 851.8,848.808 852.348,845.289 852.897,872.695 
  853.445,869.827 853.993,850.522 854.542,1005.64 855.09,845.12 855.639,861.907 856.187,837.191 856.735,896.11 857.284,876.222 857.832,856.595 858.38,863.447 
  858.929,845.857 859.477,891.525 860.026,876.654 860.574,853.235 861.122,844.794 861.671,863.34 862.219,820.327 862.767,851.747 863.316,835.683 863.864,855.45 
  864.413,840.227 864.961,851.675 865.509,896.472 866.058,1018.73 866.606,871.177 867.154,844.211 867.703,855.596 868.251,997.506 868.799,851.202 869.348,874.304 
  869.896,942.82 870.445,877.677 870.993,899.294 871.541,845.721 872.09,885.605 872.638,921.214 873.186,847.442 873.735,882.683 874.283,844.138 874.832,883.84 
  875.38,868.164 875.928,877.142 876.477,904.377 877.025,879.705 877.573,861.595 878.122,928.408 878.67,886.301 879.219,878.822 879.767,912.171 880.315,895.198 
  880.864,845.983 881.412,875.185 881.96,877.394 882.509,860.738 883.057,855.612 883.606,931.97 884.154,851.983 884.702,886.668 885.251,889.365 885.799,983.215 
  886.347,873.207 886.896,849.579 887.444,872.281 887.993,882.114 888.541,905.54 889.089,926.038 889.638,943.417 890.186,901.608 890.734,919.165 891.283,890.634 
  891.831,939.795 892.38,935.312 892.928,910.048 893.476,917.676 894.025,982.514 894.573,961.376 895.121,900.62 895.67,913.379 896.218,878.867 896.766,967.233 
  897.315,966.453 897.863,947.287 898.412,878.773 898.96,874.146 899.508,892.639 900.057,888.243 900.605,975.641 901.153,963.888 901.702,948.96 902.25,906.438 
  902.799,892.618 903.347,929.879 903.895,900.122 904.376,891.375 904.857,972.428 905.338,1026.5 905.819,958.26 906.3,890.451 906.781,947.379 907.261,917.201 
  907.742,926.16 908.223,928.961 908.704,944.51 909.185,942.299 909.666,915.744 910.147,896.193 910.628,910.436 911.108,908.198 911.589,888.372 912.07,1019.69 
  912.551,942.157 913.032,938.22 913.513,959.519 913.994,923.873 914.475,1015.59 914.955,901.83 915.436,950.481 915.917,932.222 916.398,921.082 916.879,973.948 
  917.36,933.506 917.841,974.75 918.322,957.286 918.802,1053.9 919.283,1002.64 919.764,935.815 920.245,905.744 920.726,910.885 921.207,932.221 921.688,930.403 
  922.169,930.625 922.649,942.819 923.13,926.908 923.611,951.7 924.092,965.909 924.573,959.382 925.054,939.115 925.535,926.463 926.015,977.755 926.496,911.468 
  926.977,939.436 927.458,1019.25 927.939,927.82 928.42,930.407 928.901,962.223 929.382,1058.1 929.862,938.435 930.343,979.083 930.824,943.946 931.305,962.638 
  931.786,942.301 932.267,978.253 932.748,965.784 933.229,929.587 933.709,956.284 934.19,952.615 934.671,930.121 935.152,947.081 935.633,958.057 936.114,960.928 
  936.595,968.838 937.076,943.648 937.556,944.906 938.037,969.23 938.518,937.823 938.999,940.021 939.48,990.618 939.961,967.166 940.442,946.096 940.923,927.1 
  941.403,929.603 941.884,973.178 942.365,954.923 942.846,1113.69 943.327,946.514 943.808,980.609 944.289,971.411 944.77,993.804 945.25,980.827 945.731,939.931 
  946.212,966.748 946.693,1005.9 947.174,967.381 947.655,963.656 948.136,943.265 948.617,1149.29 949.097,952.837 949.578,944.514 950.059,1020.52 950.54,987.438 
  951.021,1062.2 951.502,947.496 951.983,975.661 952.464,965.476 952.944,949.018 953.425,1058.55 953.906,968.752 954.387,958.318 954.868,1109.87 955.349,947.856 
  955.83,989.065 956.31,967.782 956.791,1008.8 957.272,1007.27 957.753,1007.26 958.234,996.526 958.715,990.833 959.196,970.656 959.677,988.493 960.157,989.601 
  960.638,953.167 961.119,1065.19 961.6,987.606 962.081,965.159 962.562,1065.76 963.043,961.191 963.524,968.391 964.004,1022.7 964.485,956.463 964.966,978.318 
  965.447,999.813 965.971,1025.75 966.496,978.734 967.02,1008.51 967.544,991.903 968.068,983.339 968.593,1006.68 969.117,1036.49 969.641,986.633 970.166,1104.82 
  970.69,1028.74 971.214,1008.73 971.738,1037.84 972.263,993.237 972.787,992.225 973.311,1006.58 973.836,1031.28 974.36,1064.61 974.884,1005.07 975.408,1011.58 
  975.933,1049.75 976.457,1027.9 976.981,977.981 977.506,1044.99 978.03,1037.77 978.554,1017 979.078,983.776 979.603,1039.5 980.127,1012.44 980.651,996.975 
  981.176,996.397 981.7,1006.79 982.224,1001.39 982.748,1005.74 983.273,1009.35 983.797,1086.18 984.321,1078.43 984.845,1011.48 985.37,999.867 985.894,1026.74 
  986.418,1005.14 986.943,1095.95 987.467,991.452 987.991,1021.09 988.515,1042.73 989.04,1009.7 989.564,1047.66 990.088,1017.01 990.613,1094.52 991.137,999.626 
  991.661,1019.67 992.185,1000.37 992.71,1074.6 993.234,1015.9 993.758,1101.16 994.283,1020.96 994.807,1070.08 995.331,1068.66 995.855,1031.38 996.38,1008.44 
  996.904,1027.49 997.428,995.447 997.952,1041.76 998.477,1037.28 999.001,1018.64 999.525,1136.9 1000.05,1035.05 1000.57,1069.19 1001.1,1024.61 1001.62,1065.91 
  1002.15,1010.19 1002.67,1037.57 1003.2,1046.01 1003.72,1038.19 1004.24,1088.62 1004.77,1087.94 1005.29,1006.35 1005.82,1128.13 1006.34,1082.71 1006.87,1101.31 
  1007.39,1076.34 1007.91,1051.97 1008.44,1090.11 1008.96,1049.84 1009.49,1047.14 1010.01,1031.77 1010.54,1075.24 1011.06,1049.48 1011.58,1074.97 1012.11,1053.64 
  1012.63,1066.51 1013.16,1026.17 1013.68,1066.26 1014.21,1058.57 1014.73,1093.78 1015.25,1090.49 1015.78,1047.97 1016.3,1038.39 1016.83,1116.99 1017.35,1053.55 
  1017.88,1072.29 1018.4,1069.95 1018.92,1053.38 1019.45,1129.07 1019.97,1031.69 1020.5,1140.8 1021.02,1083.32 1021.55,1047.06 1022.07,1079.91 1022.59,1074.76 
  1023.12,1060.62 1023.64,1046.71 1024.17,1041.34 1024.69,1078.1 1025.22,1061.46 1025.74,1078.93 1026.26,1058.37 1026.79,1081.88 1027.31,1036.28 1027.84,1124.73 
  1028.36,1074.87 1028.89,1079 1029.41,1039.53 1029.93,1041.05 1030.46,1092.08 1030.98,1084.02 1031.51,1112.08 1032.03,1065.1 1032.56,1041.84 1033.08,1077.22 
  1033.61,1137.31 1034.14,1074.08 1034.66,1068.14 1035.19,1090.67 1035.72,1157.01 1036.25,1160.71 1036.77,1114.94 1037.3,1058.16 1037.83,1060.94 1038.36,1160.66 
  1038.88,1140.29 1039.41,1088.95 1039.94,1067.29 1040.47,1139.79 1040.99,1175.76 1041.52,1093.05 1042.05,1158.12 1042.58,1073.91 1043.1,1058.76 1043.63,1079.91 
  1044.16,1126.11 1044.69,1099.5 1045.21,1075.66 1045.74,1108.97 1046.27,1079.96 1046.79,1083.23 1047.32,1135.39 1047.85,1124.22 1048.38,1151.49 1048.9,1151.3 
  1049.43,1108.36 1049.96,1095.1 1050.49,1104.49 1051.01,1095.58 1051.54,1084.73 1052.07,1097.24 1052.6,1177.29 1053.12,1095.23 1053.65,1100.09 1054.18,1110.05 
  1054.71,1132.01 1055.23,1085.51 1055.76,1094.71 1056.29,1124.2 1056.82,1088.84 1057.34,1100.91 1057.87,1108.69 1058.4,1122.36 1058.92,1141.01 1059.45,1095.44 
  1059.98,1122.44 1060.51,1102.1 1061.03,1099.46 1061.56,1136.88 1062.09,1114.09 1062.62,1082.79 1063.14,1171.06 1063.67,1171.98 1064.2,1101.41 1064.73,1115.66 
  1065.25,1169.9 1065.78,1118.47 1066.31,1117.24 1066.84,1136.59 1067.36,1121.01 1067.89,1145.46 1068.42,1138.65 1068.95,1121.21 1069.47,1156.91 1070,1272.05 
  1070.53,1162.99 1071.05,1097.83 1071.58,1133.11 1072.11,1132.08 1072.64,1159.59 1073.16,1111.62 1073.69,1118.84 1074.22,1208.65 1074.75,1122.64 1075.27,1192.52 
  1075.8,1127.79 1076.33,1120.61 1076.86,1178.9 1077.38,1150.88 1077.91,1118.39 1078.44,1123.58 1078.97,1136.28 1079.49,1098.62 1080.02,1141.89 1080.55,1131.78 
  1081.08,1149.41 1081.6,1185.78 1082.13,1133.16 1082.66,1142.88 1083.19,1140.16 1083.71,1148.64 1084.24,1199.1 1084.77,1111.34 1085.29,1294.81 1085.82,1187.52 
  1086.35,1156.92 1086.88,1127.06 1087.4,1192.09 1087.93,1205.76 1088.46,1132.52 1088.99,1153.08 1089.51,1267.65 1090.04,1126.7 1090.57,1141.42 1091.1,1164.71 
  1091.62,1167.94 1092.15,1141.07 1092.68,1180.32 1093.21,1194.76 1093.73,1185.38 1094.26,1198.2 1094.79,1138.29 1095.32,1125.59 1095.84,1145.75 1096.37,1136.51 
  1096.9,1150.35 1097.42,1151.74 1097.95,1158.46 1098.48,1223.29 1099.01,1162.85 1099.53,1150.15 1100.06,1160.31 1100.64,1326.43 1101.23,1162.72 1101.81,1150.4 
  1102.39,1193.18 1102.98,1150.71 1103.56,1137.16 1104.14,1151.16 1104.73,1196.28 1105.31,1153.81 1105.89,1147.36 1106.48,1153.07 1107.06,1152.58 1107.64,1171.9 
  1108.23,1155.36 1108.81,1180.23 1109.39,1218.34 1109.97,1141.42 1110.56,1186.83 1111.14,1180.77 1111.72,1146.46 1112.31,1194.09 1112.89,1166.26 1113.47,1166.63 
  1114.06,1195.19 1114.64,1202.01 1115.22,1221.05 1115.81,1159.13 1116.39,1171.07 1116.97,1210.15 1117.55,1178.69 1118.14,1210.22 1118.72,1194.73 1119.3,1165.2 
  1119.89,1202.71 1120.47,1184.31 1121.05,1186.44 1121.64,1236.55 1122.22,1211.52 1122.8,1173.72 1123.39,1155.39 1123.97,1165.49 1124.55,1234.52 1125.14,1189.03 
  1125.72,1319.8 1126.3,1174.77 1126.88,1245.84 1127.47,1210.69 1128.05,1187.99 1128.63,1185.45 1129.22,1249 1129.8,1244.56 1130.38,1257.48 1130.97,1207.76 
  1131.55,1223.67 1132.13,1221.12 1132.72,1181.83 1133.3,1198.04 1133.88,1346.22 1134.46,1260.05 1135.05,1233.6 1135.63,1325.83 1136.21,1215.68 1136.8,1210.98 
  1137.38,1304.83 1137.96,1195.11 1138.55,1204.57 1139.13,1240.28 1139.71,1190.51 1140.3,1214.15 1140.88,1223.33 1141.46,1191.15 1142.05,1294.65 1142.63,1207.15 
  1143.21,1330.42 1143.79,1229.21 1144.38,1273.58 1144.96,1254.13 1145.54,1230.31 1146.13,1203.88 1146.71,1203.62 1147.29,1201.03 1147.88,1191.23 1148.46,1229.42 
  1149.04,1240.57 1149.63,1186.98 1150.21,1237.85 1150.79,1300.09 1151.38,1229.98 1151.96,1215.38 1152.54,1229.47 1153.12,1229.84 1153.71,1232.74 1154.29,1315.26 
  1154.87,1217.23 1155.46,1211.74 1156.04,1286.83 1156.62,1232.06 1157.21,1217.14 1157.79,1217.51 1158.37,1277.35 1158.96,1252.81 1159.54,1428.92 1160.12,1229.73 
  1160.7,1267.18 1161.29,1279.18 1161.87,1227.81 1162.45,1247.27 1163.04,1226.67 1163.62,1211.94 1164.2,1217.96 1164.79,1221.18 1165.37,1242.85 1165.95,1226.74 
  1166.54,1274.28 1167.12,1248.54 1167.7,1301.33 1168.29,1288.57 1168.87,1219.57 1169.45,1345.99 1170.03,1267.09 1170.62,1258.05 1171.2,1303.5 1171.78,1230.43 
  1172.37,1291.12 1172.95,1243.62 1173.53,1275.24 1174.12,1292.22 1174.7,1292.58 1175.25,1247.7 1175.81,1248.05 1176.36,1328.71 1176.92,1428.92 1177.47,1227.75 
  1178.03,1262.72 1178.58,1252.65 1179.14,1250.15 1179.69,1247.88 1180.25,1253.7 1180.8,1309.44 1181.36,1309.78 1181.91,1332.06 1182.47,1310.47 1183.02,1275.26 
  1183.58,1281.55 1184.13,1245.99 1184.69,1271.28 1185.24,1244.58 1185.8,1299.49 1186.35,1272.33 1186.91,1247.74 1187.46,1238.66 1188.01,1269.01 1188.57,1273.72 
  1189.12,1285.02 1189.68,1274.42 1190.23,1260 1190.79,1263.47 1191.34,1315.93 1191.9,1294 1192.45,1261.4 1193.01,1251.6 1193.56,1295.03 1194.12,1272.85 
  1194.67,1262.8 1195.23,1277.9 1195.78,1263.5 1196.34,1263.85 1196.89,1270.75 1197.45,1428.92 1198,1297.8 1198.56,1341.96 1199.11,1342.29 1199.67,1285.7 
  1200.22,1308.44 1200.78,1292.31 1201.33,1264.15 1201.88,1322.37 1202.44,1344.25 1202.99,1310.15 1203.55,1283.12 1204.1,1283.47 1204.66,1301.94 1205.21,1311.52 
  1205.77,1280.17 1206.32,1284.86 1206.88,1303.31 1207.43,1325.75 1207.99,1326.08 1208.54,1304.35 1209.1,1326.76 1209.65,1269.39 1210.21,1275.69 1210.76,1270.09 
  1211.32,1283.65 1211.87,1428.92 1212.43,1428.92 1212.98,1294.02 1213.54,1329.44 1214.09,1428.92 1214.65,1308.12 1215.2,1308.47 1215.76,1286.43 1216.31,1296.1 
  1216.86,1309.49 1217.42,1309.84 1217.97,1428.92 1218.53,1297.48 1219.08,1332.78 1219.64,1333.11 1220.19,1298.51 1220.75,1333.78 1221.3,1428.92 1221.86,1428.92 
  1222.41,1290.59 1222.97,1428.92 1223.52,1335.44 1224.08,1335.77 1224.63,1301.27 1225.19,1301.62 1225.74,1314.96 1226.3,1315.3 1226.85,1315.64 1227.41,1337.75 
  1227.96,1303.34 1228.52,1294.4 1229.07,1317 1229.63,1339.07 1230.18,1288.21 1230.73,1295.78 1231.29,1428.92 1231.84,1305.75 1232.4,1428.92 1232.95,1319.38 
  1233.51,1306.78 1234.06,1341.69 1234.62,1320.4 1235.17,1342.34 1235.73,1342.67 1236.28,1321.42 1236.84,1299.58 1237.39,1286.8 1237.95,1322.43 1238.5,1322.77 
  1239.06,1310.2 1239.61,1344.95 1240.17,1323.78 1240.72,1294.79 1241.28,1302.34 1241.83,1346.24 1242.39,1428.92 1242.94,1303.37 1243.5,1428.92 1244.05,1428.92 
  1244.61,1304.4 1245.16,1326.81 1245.71,1327.15 1246.29,1305.45 1246.87,1428.92 1247.45,1428.92 1248.02,1428.92 1248.6,1306.88 1249.18,1307.23 1249.75,1307.59 
  1250.33,1428.92 1250.91,1428.92 1251.48,1330.63 1252.06,1428.92 1252.64,1331.33 1253.21,1331.67 1253.79,1428.92 1254.37,1332.37 1254.94,1332.71 1255.52,1333.06 
  1256.1,1311.51 1256.68,1428.92 1257.25,1428.92 1257.83,1290.24 1258.41,1312.93 1258.98,1428.92 1259.56,1313.64 1260.14,1428.92 1260.71,1336.16 1261.29,1428.92 
  1261.87,1428.92 1262.44,1337.19 1263.02,1302.77 1263.6,1337.88 1264.17,1338.22 1264.75,1428.92 1265.33,1428.92 1265.91,1339.25 1266.48,1428.92 1267.06,1339.93 
  1267.64,1305.63 1268.21,1340.61 1268.79,1340.96 1269.37,1341.3 1269.94,1320 1270.52,1320.36 1271.1,1342.32 1271.67,1342.66 1272.25,1342.99 1272.83,1321.76 
  1273.4,1343.67 1273.98,1344.01 1274.56,1322.82 1275.14,1344.69 1275.71,1428.92 1276.29,1345.36 1276.87,1345.7 1277.44,1428.92 1278.02,1324.92 1278.6,1346.71 
  1279.17,1428.92 1279.75,1303.89 1280.33,1326.32 1280.9,1326.67 1281.48,1428.92 1282.06,1327.37 1282.63,1327.72 1283.21,1328.07 1283.79,1306.39 1284.37,1328.77 
  1284.94,1428.92 1285.52,1329.46 1286.1,1329.81 1286.67,1428.92 1287.25,1330.51 1287.83,1330.85 1288.4,1428.92 1288.98,1331.55 1289.56,1428.92 1290.13,1297.27 
  1290.71,1332.59 1291.29,1332.93 1291.86,1428.92 1292.44,1333.63 1293.02,1428.92 1293.6,1334.32 1294.17,1428.92 1294.75,1428.92 1295.33,1428.92 1295.9,1313.87 
  1296.48,1314.22 1297.06,1314.58 1297.63,1336.73 1298.21,1428.92 1298.79,1337.41 1299.36,1428.92 1299.94,1338.1 1300.52,1428.92 1301.09,1428.92 1301.67,1339.13 
  1302.25,1428.92 1302.83,1428.92 1303.4,1340.15 1303.98,1305.86 1304.56,1340.83 1305.13,1341.17 1305.71,1428.92 1306.29,1341.86 1306.86,1428.92 1307.44,1428.92 
  1308.02,1342.87 1308.59,1343.21 1309.17,1343.55 1309.75,1343.89 1310.32,1428.92 1310.9,1428.92 1311.48,1323.4 1312.06,1345.24 1312.63,1345.58 1313.21,1428.92 
  1313.79,1346.25 1314.36,1428.92 1314.94,1325.5 1315.52,1428.92 1316.09,1326.2 1316.67,1428.92 1317.25,1428.92 1317.82,1305.19 1318.4,1428.92 1318.98,1428.92 
  1319.55,1328.29 1320.04,1328.59 1320.53,1306.87 1321.01,1428.92 1321.5,1428.92 1321.98,1329.76 1322.47,1330.05 1322.95,1330.35 1323.44,1330.64 1323.92,1428.92 
  1324.41,1331.22 1324.9,1331.52 1325.38,1331.81 1325.87,1310.17 1326.35,1428.92 1326.84,1332.68 1327.32,1428.92 1327.81,1333.26 1328.3,1311.66 1328.78,1333.85 
  1329.27,1428.92 1329.75,1334.43 1330.24,1428.92 1330.72,1313.16 1331.21,1428.92 1331.69,1335.59 1332.18,1428.92 1332.67,1314.35 1333.15,1336.46 1333.64,1428.92 
  1334.12,1428.92 1334.61,1337.33 1335.09,1337.61 1335.58,1337.9 1336.07,1338.19 1336.55,1428.92 1337.04,1338.77 1337.52,1339.06 1338.01,1428.92 1338.49,1339.63 
  1338.98,1428.92 1339.46,1428.92 1339.95,1428.92 1340.44,1428.92 1340.92,1428.92 1341.41,1428.92 1341.89,1341.64 1342.38,1341.93 1342.86,1342.21 1343.35,1428.92 
  1343.83,1428.92 1344.32,1321.49 1344.81,1343.35 1345.29,1343.64 1345.78,1343.92 1346.26,1428.92 1346.75,1310.07 1347.23,1344.78 1347.72,1345.06 1348.21,1428.92 
  1348.69,1428.92 1349.18,1345.91 1349.66,1346.19 1350.15,1428.92 1350.63,1346.76 1351.12,1428.92 1351.6,1428.92 1352.09,1304.14 1352.58,1326.51 1353.06,1304.74 
  1353.55,1327.1 1354.03,1327.39 1354.52,1428.92 1355,1428.92 1355.49,1328.27 1355.97,1328.57 1356.46,1306.84 1356.95,1428.92 1357.43,1329.45 1357.92,1428.92 
  1358.4,1330.03 1358.89,1428.92 1359.37,1330.62 1359.86,1295.89 1360.35,1428.92 1360.83,1309.54 1361.32,1428.92 1361.8,1428.92 1362.29,1332.37 1362.77,1428.92 
  1363.26,1428.92 1363.74,1333.24 1364.23,1428.92 1364.72,1333.82 1365.2,1334.12 1365.69,1312.54 1366.17,1428.92 1366.66,1334.99 1367.14,1313.43 1367.63,1313.73 
  1368.11,1335.86 1368.6,1301.32 1369.09,1336.44 1369.57,1336.73 1370.06,1337.01 1370.54,1337.3 1371.03,1315.82 1371.51,1337.88 1372,1338.17 1372.49,1338.46 
  1372.97,1428.92 1373.46,1339.03 1373.94,1339.32 1374.43,1317.91 1374.91,1339.9 1375.4,1428.92 1375.88,1428.92 1376.37,1319.09 1376.86,1341.04 1377.34,1341.33 
  1377.83,1428.92 1378.31,1341.9 1378.8,1428.92 1379.28,1320.87 1379.77,1428.92 1380.26,1343.05 1380.74,1428.92 1381.23,1343.62 1381.71,1428.92 1382.3,1344.25 
  1382.9,1344.6 1383.49,1323.44 1384.08,1345.29 1384.68,1428.92 1385.27,1311.64 1385.86,1428.92 1386.45,1428.92 1387.64,1428.92 1388.83,1428.92 1389.42,1428.92 
  1390.01,1428.92 1390.6,1327.75 1391.2,1328.11 1391.79,1428.92 1392.38,1306.81 1392.98,1307.18 1393.57,1329.55 1394.16,1428.92 1394.75,1330.26 1395.35,1308.65 
  1395.94,1309.01 1396.53,1428.92 1397.13,1296.69 1397.72,1332.04 1398.31,1297.43 1398.91,1332.76 1399.5,1311.21 1400.09,1333.47 1400.68,1311.94 1401.28,1428.92 
  1401.87,1312.67 1402.46,1313.03 1403.06,1428.92 1403.65,1335.59 1404.24,1335.95 1404.83,1428.92 1405.43,1314.86 1406.02,1337.01 1406.61,1337.36 1407.21,1337.71 
  1407.8,1338.07 1408.39,1338.42 1408.98,1338.77 1409.58,1317.4 1410.17,1428.92 1410.76,1428.92 1411.36,1318.49 1411.95,1340.53 1412.54,1340.88 1413.13,1428.92 
  1413.73,1319.94 1414.32,1428.92 1414.91,1342.27 1415.51,1428.92 1416.1,1321.39 1416.69,1343.32 1417.28,1428.92 1417.88,1344.02 1418.47,1322.83 1419.06,1344.71 
  1419.66,1428.92 1420.25,1345.4 1420.84,1428.92 1421.43,1346.09 1422.03,1346.44 1422.62,1346.79 1423.21,1290.53 1423.81,1303.99 1424.4,1428.92 1424.99,1304.73 
  1425.58,1305.1 1426.18,1327.51 1426.77,1327.87 1427.96,1328.59 1429.14,1329.3 1429.73,1329.66 1430.33,1330.02 1430.92,1330.38 1431.51,1308.76 1432.11,1428.92 
  1432.7,1428.92 1433.29,1428.92 1433.88,1332.16 1434.48,1428.92 1435.07,1332.87 1435.66,1333.23 1436.26,1333.58 1436.85,1428.92 1437.44,1428.92 1438.03,1334.65 
  1438.63,1313.15 1439.22,1335.36 1439.81,1313.88 1440.41,1314.25 1441,1314.61 1441.59,1336.77 1442.18,1315.34 1442.78,1428.92 1443.37,1337.83 1443.96,1428.92 
  1444.56,1428.92 1445.15,1338.89 1445.74,1428.92 1446.33,1339.59 1446.93,1339.94 1447.52,1305.65 1448.11,1428.92 1448.71,1306.38 1449.3,1428.92 1449.89,1341.69 
  1450.48,1342.04 1451.08,1320.78 1451.67,1308.22 1452.26,1308.58 1452.86,1343.43 1453.45,1428.92 1454.04,1344.13 1454.63,1344.48 1455.23,1344.82 1455.82,1428.92 
  1456.41,1428.92 1457.01,1345.86 1457.6,1311.88 1458.14,1346.52 1458.69,1325.41 1459.23,1428.92 1459.77,1326.07 1460.31,1326.4 1460.86,1326.73 1461.4,1327.06 
  1461.94,1327.39 1462.49,1428.92 1463.03,1306.01 1463.57,1306.35 1464.12,1328.7 1464.66,1307.02 1465.2,1329.36 1465.75,1307.69 1466.29,1330.01 1466.83,1330.34 
  1467.37,1330.67 1467.92,1428.92 1468.46,1309.37 1469,1331.65 1469.55,1428.92 1470.09,1310.37 1470.63,1428.92 1471.18,1311.04 1471.72,1333.28 1472.26,1333.6 
  1472.81,1333.93 1473.35,1334.25 1473.89,1312.72 1474.44,1334.9 1474.98,1335.23 1475.52,1428.92 1476.06,1428.92 1476.61,1336.2 1477.15,1428.92 1477.69,1315.05 
  1478.24,1337.17 1478.78,1337.5 1479.32,1303.07 1479.87,1338.14 1480.41,1428.92 1480.95,1428.92 1481.5,1339.11 1482.04,1317.72 1482.58,1305.09 1483.12,1340.07 
  1483.67,1340.39 1484.21,1428.92 1484.75,1319.38 1485.3,1428.92 1485.84,1341.68 1486.38,1428.92 1486.93,1428.92 1487.47,1342.64 1488.01,1342.95 1488.56,1343.27 
  1489.1,1309.12 1489.64,1428.92 1490.19,1309.79 1490.73,1300.88 1491.27,1323.36 1491.81,1323.69 1492.36,1345.5 1492.9,1324.35 1493.44,1324.68 1493.99,1346.45 
  1494.53,1312.47 1495.07,1303.58 1495.62,1303.91 1496.16,1326.33 1496.7,1428.92 1497.25,1326.98 1497.79,1327.31 1498.33,1305.6 1498.87,1428.92 1499.42,1328.3 
  1499.96,1306.6 1500.5,1328.95 1501.05,1329.28 1501.59,1428.92 1502.13,1329.94 1502.68,1428.92 1503.22,1330.59 1503.76,1308.95 1504.31,1296.24 1504.85,1428.92 
  1505.39,1309.96 1505.94,1332.22 1506.48,1310.63 1507.02,1332.88 1507.56,1333.2 1508.11,1311.63 1508.65,1428.92 1509.19,1334.18 1509.74,1312.64 1510.28,1334.83 
  1510.82,1313.31 1511.37,1428.92 1511.91,1428.92 1512.45,1314.31 1513,1428.92 1513.54,1428.92 1514.08,1302.31 1514.62,1337.42 1515.17,1337.74 1515.71,1303.33 
  1516.25,1428.92 1516.8,1428.92 1517.34,1428.92 1517.88,1339.35 1518.43,1339.68 1518.97,1428.92 1519.51,1305.68 1520.06,1428.92 1520.6,1340.96 1521.14,1341.28 
  1521.69,1341.6 1522.23,1428.92 1522.77,1298.44 1523.31,1298.77 1523.86,1342.88 1524.4,1343.2 1524.94,1321.96 1525.49,1343.84 1526.03,1428.92 1526.57,1344.47 
  1527.12,1428.92 1527.62,1294.24 1528.12,1428.92 1528.62,1324.2 1529.12,1428.92 1529.62,1324.8 1530.13,1346.55 1530.63,1325.41 1531.13,1428.92 1531.63,1428.92 
  1532.13,1428.92 1532.63,1326.63 1533.14,1304.87 1533.64,1327.24 1534.14,1327.54 1534.64,1327.85 1535.14,1293.03 1535.64,1428.92 1536.15,1306.74 1536.65,1329.06 
  1537.15,1307.36 1537.65,1329.66 1538.15,1294.91 1538.65,1295.22 1539.15,1428.92 1539.66,1330.87 1540.16,1428.92 1540.66,1428.92 1541.16,1309.84 1541.66,1310.14 
  1542.16,1310.45 1542.67,1310.76 1543.17,1332.98 1543.67,1428.92 1544.17,1333.58 1544.67,1333.88 1545.17,1428.92 1545.68,1290.29 1546.18,1334.78 1546.68,1313.24 
  1547.18,1300.53 1547.68,1313.85 1548.18,1314.16 1548.68,1428.92 1549.19,1314.78 1549.69,1336.88 1550.19,1428.92 1550.69,1428.92 1551.19,1316.01 1551.69,1316.32 
  1552.2,1338.37 1552.7,1338.67 1553.2,1428.92 1553.7,1317.55 1554.2,1339.56 1554.7,1339.86 1555.21,1318.47 1555.71,1318.78 1556.21,1340.75 1556.71,1341.04 
  1557.21,1428.92 1557.71,1341.63 1558.22,1320.31 1558.72,1342.23 1559.22,1342.52 1559.72,1428.92 1560.22,1321.53 1560.72,1308.92 1561.22,1322.15 1561.73,1428.92 
  1562.23,1344.29 1562.73,1428.92 1563.23,1323.37 1563.73,1323.67 1564.23,1345.46 1564.74,1345.75 1565.24,1324.59 1565.74,1324.89 1566.24,1346.63 1566.74,1428.92 
  1567.24,1428.92 1567.75,1428.92 1568.25,1326.41 1568.75,1326.72 1569.25,1327.02 1569.75,1327.32 1570.25,1428.92 1570.76,1292.81 1571.26,1428.92 1571.76,1293.44 
  1572.26,1328.84 1572.76,1329.14 1573.26,1294.37 1573.76,1428.92 1574.27,1428.92 1574.77,1330.35 1575.27,1330.66 1575.77,1428.92 1576.27,1331.26 1576.77,1331.56 
  1577.28,1331.86 1577.78,1428.92 1578.28,1332.47 1578.78,1332.77 1579.28,1311.16 1579.78,1428.92 1580.29,1428.92 1580.79,1333.97 1581.29,1312.4 1581.79,1334.57 
  1582.29,1283.45 1582.79,1335.17 1583.3,1313.63 1583.8,1313.94 1584.3,1336.07 1584.8,1314.56 1585.3,1428.92 1585.8,1336.96 1586.3,1315.48 1586.81,1302.8 
  1587.31,1337.86 1587.81,1316.41 1588.31,1303.73 1588.81,1428.92 1589.31,1304.35 1589.82,1317.64 1590.32,1304.98 1590.82,1428.92 1591.32,1340.24 1591.83,1318.87 
  1592.34,1306.23 1592.85,1319.49 1593.35,1341.44 1593.86,1428.92 1594.37,1320.42 1594.88,1342.34 1595.39,1428.92 1595.89,1428.92 1596.4,1428.92 1596.91,1428.92 
  1597.42,1322.28 1597.93,1309.68 1598.43,1310 1598.94,1344.72 1599.45,1428.92 1599.96,1301.7 1600.47,1324.14 1600.97,1345.91 1601.48,1311.88 1601.99,1295.76 
  1602.5,1346.8 1603.01,1428.92 1603.52,1303.9 1604.02,1304.22 1604.53,1304.53 1605.04,1291.76 1605.55,1428.92 1606.06,1305.48 1606.56,1305.79 1607.07,1328.14 
  1607.58,1306.42 1608.09,1284.33 1608.6,1329.06 1609.1,1428.92 1609.61,1307.68 1610.12,1329.98 1610.63,1308.31 1611.14,1330.59 1611.65,1330.9 1612.15,1331.2 
  1612.66,1296.51 1613.17,1331.82 1613.68,1428.92 1614.19,1332.43 1614.69,1428.92 1615.2,1333.04 1615.71,1428.92 1616.22,1298.72 1616.73,1312.07 1617.23,1312.38 
  1617.74,1428.92 1618.25,1299.99 1618.76,1428.92 1619.27,1313.63 1619.77,1335.77 1620.28,1314.26 1620.79,1336.38 1621.3,1336.68 1621.81,1428.92 1622.32,1428.92 
  1622.82,1428.92 1623.33,1286.62 1623.84,1316.44 1624.35,1303.77 1624.86,1338.8 1625.36,1428.92 1625.87,1317.69 1626.38,1295.76 1626.89,1340 1627.4,1340.3 
  1627.9,1318.93 1628.41,1319.24 1628.92,1306.61 1629.43,1341.5 1629.94,1320.17 1630.44,1307.55 1630.95,1307.86 1631.46,1342.7 1631.97,1343 1632.48,1343.29 
  1632.99,1343.59 1633.49,1428.92 1634,1309.75 1634.51,1428.92 1635.02,1323.27 1635.53,1428.92 1636.03,1345.38 1636.54,1345.67 1637.05,1345.97 1637.56,1324.82 
  1638.07,1428.92 1638.57,1312.56 1639.08,1428.92 1639.59,1428.92 1640.1,1428.92 1640.61,1304.6 1641.12,1326.97 1641.62,1428.92 1642.13,1305.54 1642.64,1292.77 
  1643.15,1328.2 1643.66,1306.49 1644.16,1428.92 1644.67,1307.11 1645.18,1329.43 1645.69,1307.74 1646.2,1330.04 1646.7,1295.31 1647.21,1308.68 1647.72,1309 
  1648.23,1331.27 1648.74,1287.25 1649.24,1309.94 1649.75,1310.25 1650.26,1332.49 1650.77,1297.84 1651.28,1333.1 1651.79,1333.4 1652.29,1333.71 1652.8,1428.92 
  1653.31,1428.92 1653.82,1334.62 1654.33,1334.92 1654.83,1313.38 1655.34,1428.92 1655.85,1301 1656.36,1301.31 1656.93,1301.67 1657.5,1302.02 1658.07,1302.38 
  1658.64,1337.49 1659.21,1316.07 1659.77,1338.17 1660.34,1428.92 1660.91,1428.92 1661.48,1339.18 1662.05,1317.82 1662.62,1339.86 1663.19,1305.55 1663.76,1428.92 
  1664.33,1428.92 1664.9,1341.21 1665.47,1428.92 1666.04,1341.88 1666.61,1342.21 1667.18,1428.92 1667.75,1342.88 1668.32,1343.22 1668.89,1343.55 1669.46,1300.18 
  1670.02,1344.22 1670.59,1323.03 1671.16,1323.38 1671.73,1345.22 1672.3,1345.55 1672.87,1345.88 1673.44,1346.21 1674.01,1325.11 1674.58,1303.36 1675.15,1428.92 
  1675.72,1428.92 1676.29,1326.49 1676.86,1275.07 1677.43,1305.12 1678,1292.39 1678.57,1327.87 1679.14,1306.18 1679.71,1328.56 1680.27,1328.9 1680.84,1329.25 
  1681.41,1428.92 1681.98,1307.94 1682.55,1308.29 1683.12,1330.62 1683.69,1330.96 1684.26,1331.3 1684.83,1428.92 1685.4,1297.01 1685.97,1310.4 1686.54,1297.71 
  1687.11,1298.07 1687.68,1298.42 1688.25,1298.78 1688.82,1334.04 1689.39,1312.51 1689.96,1334.72 1690.52,1335.06 1691.09,1313.56 1691.66,1335.74 1692.23,1428.92 
  1692.8,1336.42 1693.37,1428.92 1693.94,1315.31 1694.51,1428.92 1695.08,1428.92 1695.65,1338.11 1696.22,1338.45 1696.79,1428.92 1697.36,1317.41 1697.93,1304.79 
  1698.5,1428.92 1699.07,1340.14 1699.64,1278.41 1700.21,1428.92 1700.77,1319.5 1701.34,1297.64 1701.91,1428.92 1702.48,1342.15 1703.05,1298.7 1703.62,1342.82 
  1704.19,1321.58 1704.76,1321.93 1705.33,1309.37 1705.9,1300.47 1706.47,1428.92 1707.04,1323.32 1707.61,1345.16 1708.18,1345.49 1708.75,1311.47 1709.32,1428.92 
  1709.89,1346.49 1710.46,1325.4 1711.02,1325.74 1711.59,1281.56 1712.16,1326.43 1712.73,1326.78 1713.3,1291.97 1713.87,1327.47 1714.44,1327.81 1715.01,1328.16 
  1715.58,1428.92 1716.15,1328.84 1716.72,1329.19 1717.29,1329.53 1717.86,1329.87 1718.43,1308.23 1719,1428.92 1719.57,1428.92 1720.14,1428.92 1720.71,1309.64 
  1721.27,1309.99 1721.84,1332.27 1722.41,1332.61 1722.98,1332.96 1723.55,1289.05 1724.12,1333.64 1724.69,1333.98 1725.26,1312.45 1725.83,1299.78 1726.4,1300.13 
  1726.97,1428.92 1727.54,1300.84 1728.11,1428.92 1728.68,1336.36 1729.25,1336.7 1729.76,1315.22 1730.28,1315.54 1730.79,1302.86 1731.31,1316.17 1731.83,1316.49 
  1732.34,1316.8 1732.86,1317.12 1733.37,1339.15 1733.89,1317.75 1734.41,1339.77 1734.92,1340.07 1735.44,1305.74 1735.95,1340.68 1736.47,1319.33 1736.99,1284.29 
  1737.5,1307.02 1738.02,1428.92 1738.53,1342.2 1739.05,1342.51 1739.57,1308.29 1740.08,1299.36 1740.6,1343.42 1741.11,1428.92 1741.63,1344.02 1742.15,1309.89 
  1742.66,1293.75 1743.18,1310.52 1743.69,1323.74 1744.21,1324.05 1744.73,1345.83 1745.24,1346.13 1745.76,1324.99 1746.27,1312.43 1746.79,1428.92 1747.31,1325.93 
  1747.82,1304.16 1748.34,1326.56 1748.86,1304.8 1749.37,1428.92 1749.89,1305.44 1750.4,1292.68 1750.92,1283.67 1751.44,1328.43 1751.95,1428.92 1752.47,1329.05 
  1752.98,1294.29 1753.5,1428.92 1754.02,1329.99 1754.53,1330.3 1755.05,1308.63 1755.56,1295.9 1756.08,1331.23 1756.6,1428.92 1757.11,1309.91 1757.63,1428.92 
  1758.14,1310.55 1758.66,1428.92 1759.18,1298.15 1759.69,1311.5 1760.21,1298.79 1760.72,1334.02 1761.24,1428.92 1761.76,1312.77 1762.27,1428.92 1762.79,1313.41 
  1763.3,1313.72 1763.82,1314.04 1764.34,1314.36 1764.85,1314.68 1765.37,1336.79 1765.88,1337.1 1766.4,1337.4 1766.92,1428.92 1767.43,1316.26 1767.95,1303.6 
  1768.46,1287.4 1768.98,1294.95 1769.5,1339.24 1770.01,1428.92 1770.53,1305.19 1771.04,1305.51 1771.56,1318.79 1772.08,1340.77 1772.59,1319.42 1773.11,1341.38 
  1773.62,1428.92 1774.14,1428.92 1774.66,1320.68 1775.17,1321 1775.69,1428.92 1776.2,1343.2 1776.72,1321.94 1777.24,1343.81 1777.75,1322.57 1778.27,1428.92 
  1778.78,1323.2 1779.3,1323.51 1779.82,1310.93 1780.33,1324.14 1780.85,1324.45 1781.88,1325.08 1782.91,1325.71 1783.43,1326.02 1783.94,1326.33 1784.46,1428.92 
  1784.98,1326.96 1785.49,1305.22 1786.01,1327.58 1786.52,1292.77 1787.04,1306.17 1787.56,1284.08 1788.07,1428.92 1788.59,1307.13 1789.1,1329.45 1789.62,1329.76 
  1790.14,1330.08 1790.65,1295.35 1791.17,1308.73 1791.68,1309.05 1792.2,1331.32 1792.72,1331.63 1793.23,1310 1793.75,1428.92 1794.26,1310.64 1794.78,1288.6 
  1795.3,1333.18 1795.89,1298.61 1796.48,1333.89 1797.07,1334.24 1797.66,1428.92 1798.25,1334.95 1798.84,1428.92 1799.43,1335.65 1800.02,1314.18 1800.61,1285.01 
  1801.2,1301.91 1801.79,1428.92 1802.39,1428.92 1802.98,1316 1803.57,1316.36 1804.16,1316.72 1804.75,1304.11 1805.34,1287.96 1805.93,1339.52 1806.52,1295.93 
  1807.11,1318.53 1807.7,1305.94 1808.29,1297.04 1808.88,1297.4 1809.47,1319.98 1810.07,1320.34 1810.66,1342.31 1811.25,1298.87 1811.84,1343 1812.43,1343.35 
  1813.02,1343.7 1813.61,1344.04 1814.2,1322.86 1814.79,1428.92 1815.38,1301.44 1815.97,1311.05 1816.56,1345.77 1817.15,1324.66 1817.75,1346.46 1818.34,1303.28 
  1818.93,1303.64 1819.52,1290.91 1820.11,1326.45 1820.7,1304.74 1821.29,1428.92 1821.88,1305.47 1822.47,1305.84 1823.06,1428.92 1823.65,1293.49 1824.24,1306.94 
  1824.84,1428.92 1825.43,1285.27 1826.02,1308.03 1826.61,1330.38 1827.2,1295.7 1827.79,1296.07 1828.38,1309.49 1828.97,1428.92 1829.56,1310.22 1830.15,1280.98 
  1830.74,1297.91 1831.33,1298.28 1831.92,1311.68 1832.52,1333.93 1833.11,1299.38 1833.7,1334.63 1834.29,1313.13 1834.88,1428.92 1835.47,1335.69 1836.06,1314.22 
  1836.65,1428.92 1837.24,1428.92 1837.83,1337.1 1838.42,1315.68 1839.01,1337.8 1839.6,1428.92 1840.2,1281.34 1840.79,1317.13 1841.38,1304.52 1841.97,1339.56 
  1842.56,1339.91 1843.15,1318.57 1843.74,1340.6 1844.33,1306.35 1844.92,1341.3 1845.51,1290.59 1846.1,1320.38 1846.69,1428.92 1847.29,1342.69 1847.88,1308.54 
  1848.47,1343.39 1849.06,1343.73 1849.65,1344.08 1850.24,1428.92 1850.83,1344.77 1851.42,1301.49 1852.01,1345.46 1852.6,1324.34 1853.19,1302.59 1853.78,1346.5 
  1854.37,1325.42 1854.97,1290.59 1855.56,1326.13 1856.15,1326.49 1856.74,1326.85 1857.33,1327.21 1857.92,1305.52 1858.51,1305.88 1859.1,1328.28 1859.69,1428.92 
  1860.28,1328.99 1860.87,1329.35 1861.46,1294.64 1862.06,1330.06 1862.65,1295.38 1863.24,1330.77 1863.83,1296.11 1864.42,1428.92 1865.01,1309.9 1865.6,1310.26 
  1866.19,1332.55 1866.78,1297.95 1867.37,1333.26 1867.96,1282.13 1868.55,1312.08 1869.14,1334.32 1869.74,1283.24 1870.33,1283.61 1870.92,1300.53 1871.46,1300.87 
  1872.01,1428.92 1872.56,1336.36 1873.11,1336.68 1873.65,1428.92 1874.2,1315.56 1874.75,1428.92 1875.29,1337.99 1875.84,1428.92 1876.39,1303.92 1876.93,1294.98 
  1877.48,1295.32 1878.03,1339.61 1878.58,1428.92 1879.12,1340.26 1879.67,1340.58 1880.22,1319.24 1880.76,1306.63 1881.31,1341.55 1881.86,1428.92 1882.4,1291.17 
  1882.95,1307.98 1883.5,1321.25 1884.05,1428.92 1884.59,1321.92 1885.14,1343.8 1885.69,1344.12 1886.23,1322.92 1886.78,1310.35 1887.33,1345.08 1887.87,1345.4 
  1888.42,1345.72 1888.97,1324.58 1889.52,1428.92 1890.06,1312.37 1890.61,1303.48 1891.16,1325.91 1891.7,1326.24 1892.25,1326.57 1892.8,1428.92 1893.34,1282.75 
  1893.89,1327.56 1894.44,1283.44 1894.99,1428.92 1895.53,1328.56 1896.08,1293.8 1896.63,1307.21 1897.17,1307.55 1897.72,1294.82 1898.27,1428.92 1898.81,1330.54 
  1899.36,1330.87 1899.91,1279.6 1900.46,1331.52 1901,1296.86 1901.55,1310.25 1902.1,1297.55 1902.64,1310.93 1903.19,1311.26 1903.74,1311.6 1904.29,1298.91 
  1904.83,1299.25 1905.38,1299.59 1905.93,1334.8 1906.47,1335.13 1907.02,1428.92 1907.57,1291.65 1908.11,1284.75 1908.66,1336.44 1909.21,1314.97 1909.76,1315.3 
  1910.3,1337.41 1910.85,1337.74 1911.4,1316.31 1911.94,1428.92 1912.49,1338.71 1913.04,1281.9 1913.58,1339.36 1914.13,1339.69 1914.68,1305.36 1915.23,1289.2 
  1915.77,1318.99 1916.32,1319.32 1916.87,1341.3 1917.41,1341.63 1917.96,1341.95 1918.51,1428.92 1919.05,1342.59 1919.6,1428.92 1920.15,1292.27 1920.7,1322 
  1921.24,1287.04 1921.79,1309.76 1922.34,1310.09 1922.88,1323.33 1923.43,1310.77 1923.98,1311.11 1924.52,1311.44 1925.07,1324.66 1925.62,1312.12 1926.17,1296.03 
  1926.71,1428.92 1927.26,1428.92 1927.81,1326.32 1928.35,1326.65 1928.9,1326.98 1929.45,1282.83 1930,1327.64 1930.54,1327.97 1931.09,1328.31 1931.64,1328.64 
  1932.18,1328.97 1932.73,1329.3 1933.28,1307.63 1933.82,1329.96 1934.37,1308.31 1934.92,1330.62 1935.47,1330.95 1936.01,1331.27 1936.56,1331.6 1937.11,1309.99 
  1937.65,1310.33 1938.2,1297.63 1938.75,1332.92 1939.29,1333.25 1939.84,1333.57 1940.39,1333.9 1940.94,1299.33 1941.47,1334.55 1942.01,1313.02 1942.55,1335.2 
  1943.09,1313.68 1943.63,1428.92 1944.17,1428.92 1944.71,1314.68 1945.25,1285.48 1945.79,1293.05 1946.33,1337.45 1946.87,1316 1947.41,1286.83 1947.95,1428.92 
  1948.49,1287.5 1949.03,1304.35 1949.56,1317.66 1950.1,1339.69 1950.64,1296.08 1951.18,1428.92 1951.72,1306.02 1952.26,1340.96 1952.8,1306.69 1953.34,1428.92 
  1953.88,1298.09 1954.42,1428.92 1954.96,1428.92 1955.5,1321.28 1956.04,1343.19 1956.58,1309.02 1957.11,1343.82 1957.65,1344.13 1958.19,1344.45 1958.73,1428.92 
  1959.27,1428.92 1959.81,1311.02 1960.35,1345.71 1960.89,1428.92 1961.43,1346.34 1961.97,1312.35 1962.51,1428.92 1963.05,1325.88 1963.59,1326.2 1964.13,1282.02 
  1964.66,1291.7 1965.2,1305.13 1965.74,1428.92 1966.28,1327.84 1966.82,1428.92 1967.36,1428.92 1967.9,1293.72 1968.44,1307.13 1968.98,1285.06 1969.52,1329.79 
  1970.06,1308.13 1970.6,1428.92 1971.14,1330.76 1971.68,1309.13 1972.21,1331.41 1972.75,1287.43 1973.29,1332.06 1973.83,1428.92 1974.37,1428.92 1974.91,1311.13 
  1975.45,1289.11 1975.99,1298.76 1976.53,1299.09 1977.07,1334.32 1977.61,1428.92 1978.15,1300.1 1978.69,1335.29 1979.23,1428.92 1979.77,1335.94 1980.3,1301.44 
  1980.84,1336.58 1981.38,1428.92 1981.92,1315.44 1982.46,1286.25 1983,1275.64 1983.54,1303.45 1984.08,1316.76 1984.62,1428.92 1985.16,1304.45 1985.7,1304.79 
  1986.24,1318.08 1986.78,1340.1 1987.32,1305.79 1987.85,1306.12 1988.39,1297.19 1988.93,1428.92 1989.47,1320.06 1990.01,1280.04 1990.55,1320.72 1991.09,1321.05 
  1991.63,1308.46 1992.17,1281.4 1992.71,1343.6 1993.25,1287.08 1993.79,1322.7 1994.33,1287.76 1994.87,1323.35 1995.4,1428.92 1995.94,1324.01 1996.48,1428.92 
  1997.02,1346.12 1997.56,1324.99 1998.1,1325.32 1998.64,1428.92 1999.18,1325.97 1999.72,1304.22 2000.26,1428.92 2000.8,1326.95 2001.34,1428.92 2001.88,1292.47 
  2002.42,1305.89 2002.95,1276.55 2003.49,1428.92 2004.03,1328.91 2004.57,1329.24 2005.11,1307.56 2005.65,1329.89 2006.19,1428.92 2006.73,1330.54 2007.27,1308.9 
  2007.81,1286.85 2008.35,1331.51 2008.89,1331.83 2009.43,1428.92 2009.97,1297.52 2010.49,1428.92 2011.01,1311.21 2011.54,1333.42 2012.06,1333.74 2012.58,1334.05 
  2013.11,1334.37 2013.63,1334.68 2014.15,1334.99 2014.68,1313.46 2015.2,1313.78 2015.73,1335.93 2016.25,1314.43 2016.77,1301.75 2017.3,1428.92 2017.82,1337.18 
  2018.34,1302.72 2018.87,1428.92 2019.39,1338.11 2019.91,1338.42 2020.44,1317 2020.96,1339.04 2021.49,1317.64 2022.01,1339.66 2022.53,1339.97 2023.06,1340.28 
  2023.58,1318.92 2024.1,1340.9 2024.63,1319.56 2025.15,1284.53 2025.67,1307.27 2026.2,1342.14 2026.72,1428.92 2027.25,1308.24 2027.77,1428.92 2028.29,1281.49 
  2028.82,1428.92 2029.34,1322.44 2029.86,1287.48 2030.39,1323.08 2030.91,1301.26 2031.43,1323.72 2031.96,1345.52 2032.48,1324.35 2033,1311.79 2033.53,1284.77 
  2034.05,1346.74 2034.58,1428.92 2035.1,1428.92 2035.62,1428.92 2036.15,1326.58 2036.67,1275.13 2037.19,1305.15 2037.72,1292.39 2038.24,1283.38 2038.76,1328.16 
  2039.29,1328.48 2039.81,1328.79 2040.34,1329.11 2040.86,1277.76 2041.38,1307.75 2041.91,1330.06 2042.43,1308.39 2042.95,1428.92 2043.48,1331 2044,1331.32 
  2044.52,1296.64 2045.05,1296.96 2045.57,1287.97 2046.1,1310.66 2046.62,1428.92 2047.14,1281.7 2047.67,1428.92 2048.19,1428.92 2048.71,1312.27 2049.24,1312.59 
  2049.76,1299.9 2050.28,1428.92 2050.81,1335.4 2051.33,1335.71 2051.85,1291.9 2052.38,1279.05 2052.9,1314.85 2053.43,1336.96 2053.95,1315.49 2054.47,1293.53 
  2055,1337.89 2055.52,1286.95 2056.04,1294.51 2056.57,1317.1 2057.09,1428.92 2057.61,1339.45 2058.14,1282.67 2058.66,1288.92 2059.19,1305.74 2059.71,1296.8 
  2060.23,1341 2060.76,1428.92 2061.28,1279.62 2061.8,1428.92 2062.33,1428.92 2062.85,1342.54 2063.37,1308.33 2063.9,1428.92 2064.42,1308.98 2064.95,1322.22 
  2065.47,1293.17 2065.99,1309.95 2066.52,1293.82 2067.04,1310.6 2067.56,1301.68 2068.09,1345.61 2068.61,1311.57 2069.13,1302.66 2069.66,1312.21 2070.18,1325.4 
  2070.7,1303.63 2071.23,1303.95 2071.75,1326.35 2072.28,1304.6 2072.8,1291.84 2073.32,1305.25 2073.85,1292.49 2074.37,1292.82 2074.89,1276.55 2075.42,1328.57 
  2075.94,1328.89 2076.46,1277.53 2076.99,1285.12 2077.53,1285.46 2078.06,1308.18 2078.6,1330.49 2079.14,1295.79 2079.67,1309.18 2080.21,1309.51 2080.75,1428.92 
  2081.28,1269.58 2081.82,1428.92 2082.36,1428.92 2082.89,1333.07 2083.43,1333.39 2083.97,1298.8 2084.5,1334.04 2085.04,1312.49 2085.58,1334.68 2086.11,1428.92 
  2086.65,1428.92 2087.19,1313.81 2087.72,1314.14 2088.26,1336.28 2088.8,1285.26 2089.33,1292.84 2089.87,1428.92 2090.41,1293.51 2090.94,1286.61 2091.48,1338.2 
  2092.02,1428.92 2092.55,1294.85 2093.09,1339.15 2093.63,1339.47 2094.17,1339.79 2094.7,1305.46 2095.24,1318.75 2095.78,1340.74 2096.31,1341.06 2096.85,1275.02 
  2097.39,1290.64 2097.92,1290.97 2098.46,1428.92 2099,1308.12 2099.53,1342.96 2100.07,1292.31 2100.61,1309.11 2101.14,1300.19 2101.68,1344.22 2102.22,1344.53 
  2102.75,1344.84 2103.29,1279.06 2103.83,1301.86 2104.36,1345.79 2104.9,1324.64 2105.44,1295.66 2105.97,1428.92 2106.51,1290.43 2107.05,1303.86 2107.58,1326.27 
  2108.12,1428.92 2108.66,1304.86 2109.19,1292.1 2109.73,1305.52 2110.27,1327.9 2110.8,1306.19 2111.34,1328.54 2111.88,1428.92 2112.42,1329.19 2112.95,1329.52 
  2113.49,1285.45 2114.03,1285.79 2114.56,1428.92 2115.1,1330.81 2115.64,1286.8 2116.17,1428.92 2116.71,1428.92 2117.25,1428.92 2117.78,1297.46 2118.32,1310.83 
  2118.86,1311.16 2119.39,1428.92 2119.93,1298.79 2120.47,1282.57 2121,1290.15 2121.54,1299.79 2122.08,1313.15 2122.61,1272.96 2123.15,1313.81 2123.69,1301.13 
  2124.22,1314.47 2124.76,1301.79 2125.3,1315.13 2125.83,1337.24 2126.37,1286.27 2126.91,1303.13 2127.44,1303.46 2127.98,1316.77 2128.52,1287.61 2129.06,1339.15 
  2129.59,1277.34 2130.13,1295.85 2130.67,1340.1 2131.2,1296.52 2131.74,1319.07 2132.28,1284.04 2132.81,1428.92 2133.35,1428.92 2133.89,1298.19 2134.42,1342.32 
  2134.96,1342.64 2135.5,1299.19 2136.03,1321.7 2136.57,1343.58 2137.11,1343.9 2137.64,1428.92 2138.18,1344.53 2138.72,1323.33 2139.25,1301.52 2139.79,1345.47 
  2140.33,1345.78 2140.86,1346.09 2141.4,1346.41 2141.94,1346.72 2142.47,1428.92 2143.01,1290.76 2143.55,1304.19 2144.08,1326.59 2144.62,1428.92 2145.16,1327.24 
  2145.7,1327.57 2146.28,1327.92 2146.87,1328.28 2147.46,1293.53 2148.05,1306.97 2148.64,1294.27 2149.22,1294.63 2149.81,1330.05 2150.4,1308.43 2150.99,1428.92 
  2151.58,1296.1 2152.16,1331.47 2152.75,1428.92 2153.34,1297.2 2153.93,1332.53 2154.52,1428.92 2155.1,1281.73 2155.69,1311.69 2156.28,1299.03 2156.87,1334.29 
  2157.46,1299.76 2158.05,1334.99 2158.63,1300.49 2159.22,1335.7 2159.81,1278.75 2160.4,1285.05 2160.99,1336.75 2161.57,1428.92 2162.16,1315.67 2162.75,1428.92 
  2163.34,1338.15 2163.93,1338.5 2164.51,1317.12 2165.1,1295.22 2165.69,1339.54 2166.28,1428.92 2166.87,1305.6 2167.45,1274.17 2168.04,1289.83 2168.63,1428.92 
  2169.22,1290.57 2169.81,1285.02 2170.4,1342.32 2170.98,1342.67 2171.57,1299.25 2172.16,1321.79 2172.75,1343.7 2173.34,1309.6 2173.92,1428.92 2174.51,1293.87 
  2175.1,1310.69 2175.69,1311.05 2176.28,1345.77 2176.86,1311.77 2177.45,1312.14 2178.04,1325.37 2178.63,1303.64 2179.22,1326.08 2179.8,1281.93 2180.39,1291.64 
  2180.98,1428.92 2181.57,1305.46 2182.16,1327.86 2182.75,1328.22 2183.33,1293.47 2183.92,1306.91 2184.51,1428.92 2185.1,1294.57 2185.69,1329.99 2186.27,1428.92 
  2186.86,1330.7 2187.45,1296.04 2188.04,1309.46 2188.63,1428.92 2189.21,1332.12 2189.8,1310.55 2190.39,1332.82 2190.98,1311.27 2191.57,1298.6 2192.15,1312 
  2192.74,1282.78 2193.33,1334.58 2193.92,1300.06 2194.51,1428.92 2195.1,1335.64 2195.68,1335.99 2196.27,1336.34 2196.86,1336.69 2197.45,1337.04 2198.04,1428.92 
  2198.62,1302.99 2199.21,1428.92 2199.8,1303.72 2200.39,1294.8 2200.98,1304.44 2201.56,1339.49 2202.15,1339.83 2202.74,1428.92 2203.33,1318.86 2203.92,1306.27 
  2204.5,1306.63 2205.09,1306.99 2205.68,1341.92 2206.27,1320.65 2206.86,1342.61 2207.45,1299.19 2208.03,1308.81 2208.62,1309.17 2209.21,1343.99 2209.8,1287.53 
  2210.39,1310.26 2210.97,1301.38 2211.56,1428.92 2212.15,1324.24 2212.74,1324.59 2213.33,1346.4 2213.91,1325.31 2214.5,1428.92 2215.09,1326.02 2215.68,1326.38 
  2216.27,1428.92 2216.85,1305.03 2217.44,1428.92 2218.03,1283.34 2218.62,1306.13 2219.21,1306.49 2219.8,1293.78 2220.38,1307.22 2220.97,1428.92 2221.83,1295.04 
  2222.68,1308.64 2223.53,1331.12 2224.39,1428.92 2225.24,1297.17 2226.1,1288.39 2226.95,1311.27 2227.81,1298.77 2228.66,1334.2 2229.51,1299.83 2230.37,1335.22 
  2231.22,1300.89 2232.08,1314.43 2232.93,1292.66 2233.79,1337.26 2234.64,1286.49 2235.49,1338.27 2236.35,1428.92 2237.2,1339.29 2238.06,1318.1 2238.91,1283.24 
  2239.77,1306.19 2240.62,1341.31 2241.47,1320.19 2242.33,1342.32 2243.18,1342.82 2244.04,1299.58 2244.89,1300.11 2245.75,1293.43 2246.6,1344.82 2247.45,1323.83 
  2248.31,1311.47 2249.16,1324.87 2250.02,1290.19 2250.87,1303.82 2251.73,1291.26 2252.58,1326.94 2253.43,1327.46 2254.29,1428.92 2255.14,1293.39 2256,1428.92 
  2256.85,1329.52 2257.71,1294.99 2258.56,1330.55 2259.41,1296.05 2260.27,1296.58 2261.12,1287.8 2261.98,1332.61 2262.83,1288.87 2263.69,1311.74 2264.54,1428.92 
  2265.4,1428.92 2266.25,1300.31 2267.1,1428.92 2267.96,1301.37 2268.81,1301.9 2269.67,1428.92 2270.52,1302.96 2271.38,1338.22 2272.23,1428.92 2273.08,1317.52 
  2273.94,1428.92 2274.79,1283.18 2275.65,1340.75 2276.5,1306.66 2277.36,1341.76 2278.21,1342.26 2279.06,1321.17 2279.92,1308.78 2280.77,1300.05 2281.63,1309.83 
  2282.48,1344.77 2283.34,1345.27 2284.19,1302.18 2285.04,1311.94 2285.9,1325.33 2286.75,1303.77 2287.61,1291.2 2288.46,1291.73 2289.32,1269.71 2290.17,1276.2 
  2291.02,1306.41 2291.88,1284.53 2292.73,1294.4 2293.59,1329.98 2294.44,1308.52 2295.3,1309.05 2296.15,1309.58 2297,1428.92 2297.86,1310.63 2298.71,1298.12 
  2299.57,1282.09 2300.42,1267.31 2301.28,1334.6 2302.13,1290.95 2302.98,1313.79 2303.84,1428.92 2304.69,1336.64 2305.55,1279.91 2306.4,1293.61 2307.26,1338.17 
  2308.11,1287.44 2308.96,1317.46 2309.82,1305.02 2310.67,1340.19 2311.53,1283.66 2312.38,1319.55 2313.24,1341.71 2314.09,1298.4 2314.94,1308.19 2315.8,1299.46 
  2316.65,1343.71 2317.51,1344.22 2318.36,1323.2 2319.22,1345.21 2320.07,1302.12 2320.92,1302.65 2321.78,1325.28 2322.63,1325.8 2323.49,1304.24 2324.34,1291.68 
  2325.2,1282.87 2326.05,1327.87 2326.91,1428.92 2327.76,1306.88 2328.61,1307.41 2329.47,1428.92 2330.32,1272.88 2330.5,1428.92 2330.67,1295.63 2330.85,1308.79 
  2331.02,1279.26 2331.2,1428.92 2331.37,1331.08 2331.55,1309.23 2331.72,1309.33 2331.9,1309.44 2332.07,1296.5 2332.25,1296.61 2332.43,1331.71 2332.6,1331.82 
  2332.78,1309.98 2332.95,1428.92 2333.13,1287.84 2333.3,1332.24 2333.48,1310.42 2333.65,1297.48 2333.83,1332.55 2334,1428.92 2334.18,1281.24 2334.35,1310.96 
  2334.53,1288.71 2334.7,1428.92 2334.88,1311.28 2335.05,1298.35 2335.23,1289.15 2335.4,1333.5 2335.58,1282.12 2335.76,1428.92 2335.93,1333.81 2336.11,1289.7 
  2336.28,1299.12 2336.46,1428.92 2336.63,1334.23 2336.81,1334.34 2336.98,1290.25 2337.16,1312.68 2337.33,1312.79 2337.51,1334.76 2337.68,1290.68 2337.86,1313.12 
  2338.03,1335.07 2338.21,1300.32 2338.38,1291.12 2338.56,1335.39 2338.73,1335.49 2338.91,1428.92 2339.09,1278.38 2339.26,1335.8 2339.44,1335.91 2339.61,1336.01 
  2339.79,1428.92 2339.96,1428.92 2340.14,1336.33 2340.31,1301.62 2340.49,1336.54 2340.66,1314.84 2340.84,1292.65 2341.01,1336.85 2341.19,1315.16 2341.36,1302.27 
  2341.54,1315.38 2341.71,1428.92 2341.89,1315.59 2342.06,1293.42 2342.24,1315.81 2342.42,1428.92 2342.59,1337.79 2342.77,1303.14 2342.94,1316.24 2343.12,1280.91 
  2343.29,1303.47 2343.47,1428.92 2343.64,1428.92 2343.82,1294.51 2343.99,1338.62 2344.17,1316.99 2344.34,1317.1 2344.52,1304.23 2344.69,1339.04 2344.87,1295.17 
  2345.04,1317.53 2345.22,1304.67 2345.39,1317.74 2345.57,1428.92 2345.75,1317.96 2345.92,1318.06 2346.1,1288.7 2346.27,1318.28 2346.45,1288.92 2346.62,1283.11 
  2346.8,1318.6 2346.97,1428.92 2347.15,1428.92 2347.32,1318.92 2347.5,1306.08 2347.67,1306.19 2347.85,1319.24 2348.02,1319.35 2348.2,1319.46 2348.37,1297.35 
  2348.55,1306.73 2348.72,1341.42 2348.9,1319.89 2349.08,1341.63 2349.25,1428.92 2349.43,1320.21 2349.6,1298.12 2349.78,1342.04 2349.95,1320.53 2350.13,1320.64 
  2350.3,1342.35 2350.48,1320.85 2350.65,1342.56 2350.83,1428.92 2351,1321.17 2351.18,1428.92 2351.35,1428.92 2351.53,1343.07 2351.7,1321.6 2351.88,1299.53 
  2352.05,1299.64 2352.23,1343.48 2352.41,1343.59 2352.58,1428.92 2352.76,1309.33 
  "/>
<path clip-path="url(#clip530)" d="
M1974.27 250.162 L2283.56 250.162 L2283.56 94.6416 L1974.27 94.6416  Z
  " fill="#ffffff" fill-rule="evenodd" fill-opacity="1"/>
<polyline clip-path="url(#clip530)" style="stroke:#000000; stroke-linecap:round; stroke-linejoin:round; stroke-width:4; stroke-opacity:1; fill:none" points="
  1974.27,250.162 2283.56,250.162 2283.56,94.6416 1974.27,94.6416 1974.27,250.162 
  "/>
<polyline clip-path="url(#clip530)" style="stroke:#009af9; stroke-linecap:round; stroke-linejoin:round; stroke-width:6; stroke-opacity:1; fill:none" points="
  1997.33,172.402 2135.72,172.402 
  "/>
<path clip-path="url(#clip530)" d="M2179.55 201.933 Q2176.84 208.877 2174.27 210.995 Q2171.7 213.113 2167.4 213.113 L2162.29 213.113 L2162.29 207.766 L2166.04 207.766 Q2168.68 207.766 2170.14 206.516 Q2171.6 205.266 2173.37 200.613 L2174.52 197.697 L2158.79 159.433 L2165.56 159.433 L2177.71 189.849 L2189.86 159.433 L2196.63 159.433 L2179.55 201.933 Z" fill="#000000" fill-rule="evenodd" fill-opacity="1" /><path clip-path="url(#clip530)" d="M2207.57 192.419 L2219.03 192.419 L2219.03 152.87 L2206.56 155.37 L2206.56 148.982 L2218.96 146.482 L2225.97 146.482 L2225.97 192.419 L2237.43 192.419 L2237.43 198.322 L2207.57 198.322 L2207.57 192.419 Z" fill="#000000" fill-rule="evenodd" fill-opacity="1" /></svg>
