<?xml version="1.0" encoding="utf-8"?>
<svg xmlns="http://www.w3.org/2000/svg" xmlns:xlink="http://www.w3.org/1999/xlink" width="600" height="400" viewBox="0 0 2400 1600">
<defs>
  <clipPath id="clip440">
    <rect x="0" y="0" width="2400" height="1600"/>
  </clipPath>
</defs>
<path clip-path="url(#clip440)" d="
M0 1600 L2400 1600 L2400 0 L0 0  Z
  " fill="#ffffff" fill-rule="evenodd" fill-opacity="1"/>
<defs>
  <clipPath id="clip441">
    <rect x="480" y="0" width="1681" height="1600"/>
  </clipPath>
</defs>
<path clip-path="url(#clip440)" d="
M186.274 1486.45 L2352.76 1486.45 L2352.76 47.2441 L186.274 47.2441  Z
  " fill="#ffffff" fill-rule="evenodd" fill-opacity="1"/>
<defs>
  <clipPath id="clip442">
    <rect x="186" y="47" width="2167" height="1440"/>
  </clipPath>
</defs>
<polyline clip-path="url(#clip442)" style="stroke:#000000; stroke-linecap:round; stroke-linejoin:round; stroke-width:2; stroke-opacity:0.1; fill:none" points="
  247.59,1486.45 247.59,47.2441 
  "/>
<polyline clip-path="url(#clip442)" style="stroke:#000000; stroke-linecap:round; stroke-linejoin:round; stroke-width:2; stroke-opacity:0.1; fill:none" points="
  758.552,1486.45 758.552,47.2441 
  "/>
<polyline clip-path="url(#clip442)" style="stroke:#000000; stroke-linecap:round; stroke-linejoin:round; stroke-width:2; stroke-opacity:0.1; fill:none" points="
  1269.51,1486.45 1269.51,47.2441 
  "/>
<polyline clip-path="url(#clip442)" style="stroke:#000000; stroke-linecap:round; stroke-linejoin:round; stroke-width:2; stroke-opacity:0.1; fill:none" points="
  1780.48,1486.45 1780.48,47.2441 
  "/>
<polyline clip-path="url(#clip442)" style="stroke:#000000; stroke-linecap:round; stroke-linejoin:round; stroke-width:2; stroke-opacity:0.1; fill:none" points="
  2291.44,1486.45 2291.44,47.2441 
  "/>
<polyline clip-path="url(#clip440)" style="stroke:#000000; stroke-linecap:round; stroke-linejoin:round; stroke-width:4; stroke-opacity:1; fill:none" points="
  186.274,1486.45 2352.76,1486.45 
  "/>
<polyline clip-path="url(#clip440)" style="stroke:#000000; stroke-linecap:round; stroke-linejoin:round; stroke-width:4; stroke-opacity:1; fill:none" points="
  247.59,1486.45 247.59,1467.55 
  "/>
<polyline clip-path="url(#clip440)" style="stroke:#000000; stroke-linecap:round; stroke-linejoin:round; stroke-width:4; stroke-opacity:1; fill:none" points="
  758.552,1486.45 758.552,1467.55 
  "/>
<polyline clip-path="url(#clip440)" style="stroke:#000000; stroke-linecap:round; stroke-linejoin:round; stroke-width:4; stroke-opacity:1; fill:none" points="
  1269.51,1486.45 1269.51,1467.55 
  "/>
<polyline clip-path="url(#clip440)" style="stroke:#000000; stroke-linecap:round; stroke-linejoin:round; stroke-width:4; stroke-opacity:1; fill:none" points="
  1780.48,1486.45 1780.48,1467.55 
  "/>
<polyline clip-path="url(#clip440)" style="stroke:#000000; stroke-linecap:round; stroke-linejoin:round; stroke-width:4; stroke-opacity:1; fill:none" points="
  2291.44,1486.45 2291.44,1467.55 
  "/>
<path clip-path="url(#clip440)" d="M194.118 1532.02 L223.793 1532.02 L223.793 1535.95 L194.118 1535.95 L194.118 1532.02 Z" fill="#000000" fill-rule="evenodd" fill-opacity="1" /><path clip-path="url(#clip440)" d="M234.696 1544.91 L242.335 1544.91 L242.335 1518.55 L234.025 1520.21 L234.025 1515.95 L242.289 1514.29 L246.965 1514.29 L246.965 1544.91 L254.603 1544.91 L254.603 1548.85 L234.696 1548.85 L234.696 1544.91 Z" fill="#000000" fill-rule="evenodd" fill-opacity="1" /><path clip-path="url(#clip440)" d="M264.048 1542.97 L268.932 1542.97 L268.932 1548.85 L264.048 1548.85 L264.048 1542.97 Z" fill="#000000" fill-rule="evenodd" fill-opacity="1" /><path clip-path="url(#clip440)" d="M289.117 1517.37 Q285.506 1517.37 283.677 1520.93 Q281.872 1524.47 281.872 1531.6 Q281.872 1538.71 283.677 1542.27 Q285.506 1545.82 289.117 1545.82 Q292.751 1545.82 294.557 1542.27 Q296.386 1538.71 296.386 1531.6 Q296.386 1524.47 294.557 1520.93 Q292.751 1517.37 289.117 1517.37 M289.117 1513.66 Q294.927 1513.66 297.983 1518.27 Q301.061 1522.85 301.061 1531.6 Q301.061 1540.33 297.983 1544.94 Q294.927 1549.52 289.117 1549.52 Q283.307 1549.52 280.228 1544.94 Q277.173 1540.33 277.173 1531.6 Q277.173 1522.85 280.228 1518.27 Q283.307 1513.66 289.117 1513.66 Z" fill="#000000" fill-rule="evenodd" fill-opacity="1" /><path clip-path="url(#clip440)" d="M705.578 1532.02 L735.254 1532.02 L735.254 1535.95 L705.578 1535.95 L705.578 1532.02 Z" fill="#000000" fill-rule="evenodd" fill-opacity="1" /><path clip-path="url(#clip440)" d="M755.346 1517.37 Q751.735 1517.37 749.906 1520.93 Q748.101 1524.47 748.101 1531.6 Q748.101 1538.71 749.906 1542.27 Q751.735 1545.82 755.346 1545.82 Q758.98 1545.82 760.786 1542.27 Q762.615 1538.71 762.615 1531.6 Q762.615 1524.47 760.786 1520.93 Q758.98 1517.37 755.346 1517.37 M755.346 1513.66 Q761.156 1513.66 764.212 1518.27 Q767.291 1522.85 767.291 1531.6 Q767.291 1540.33 764.212 1544.94 Q761.156 1549.52 755.346 1549.52 Q749.536 1549.52 746.457 1544.94 Q743.402 1540.33 743.402 1531.6 Q743.402 1522.85 746.457 1518.27 Q749.536 1513.66 755.346 1513.66 Z" fill="#000000" fill-rule="evenodd" fill-opacity="1" /><path clip-path="url(#clip440)" d="M775.508 1542.97 L780.392 1542.97 L780.392 1548.85 L775.508 1548.85 L775.508 1542.97 Z" fill="#000000" fill-rule="evenodd" fill-opacity="1" /><path clip-path="url(#clip440)" d="M790.624 1514.29 L808.98 1514.29 L808.98 1518.22 L794.906 1518.22 L794.906 1526.7 Q795.925 1526.35 796.943 1526.19 Q797.962 1526 798.98 1526 Q804.767 1526 808.147 1529.17 Q811.526 1532.34 811.526 1537.76 Q811.526 1543.34 808.054 1546.44 Q804.582 1549.52 798.263 1549.52 Q796.087 1549.52 793.818 1549.15 Q791.573 1548.78 789.166 1548.04 L789.166 1543.34 Q791.249 1544.47 793.471 1545.03 Q795.693 1545.58 798.17 1545.58 Q802.175 1545.58 804.513 1543.48 Q806.851 1541.37 806.851 1537.76 Q806.851 1534.15 804.513 1532.04 Q802.175 1529.94 798.17 1529.94 Q796.295 1529.94 794.42 1530.35 Q792.568 1530.77 790.624 1531.65 L790.624 1514.29 Z" fill="#000000" fill-rule="evenodd" fill-opacity="1" /><path clip-path="url(#clip440)" d="M1246.9 1517.37 Q1243.29 1517.37 1241.46 1520.93 Q1239.65 1524.47 1239.65 1531.6 Q1239.65 1538.71 1241.46 1542.27 Q1243.29 1545.82 1246.9 1545.82 Q1250.53 1545.82 1252.34 1542.27 Q1254.17 1538.71 1254.17 1531.6 Q1254.17 1524.47 1252.34 1520.93 Q1250.53 1517.37 1246.9 1517.37 M1246.9 1513.66 Q1252.71 1513.66 1255.77 1518.27 Q1258.84 1522.85 1258.84 1531.6 Q1258.84 1540.33 1255.77 1544.94 Q1252.71 1549.52 1246.9 1549.52 Q1241.09 1549.52 1238.01 1544.94 Q1234.95 1540.33 1234.95 1531.6 Q1234.95 1522.85 1238.01 1518.27 Q1241.09 1513.66 1246.9 1513.66 Z" fill="#000000" fill-rule="evenodd" fill-opacity="1" /><path clip-path="url(#clip440)" d="M1267.06 1542.97 L1271.95 1542.97 L1271.95 1548.85 L1267.06 1548.85 L1267.06 1542.97 Z" fill="#000000" fill-rule="evenodd" fill-opacity="1" /><path clip-path="url(#clip440)" d="M1292.13 1517.37 Q1288.52 1517.37 1286.69 1520.93 Q1284.89 1524.47 1284.89 1531.6 Q1284.89 1538.71 1286.69 1542.27 Q1288.52 1545.82 1292.13 1545.82 Q1295.76 1545.82 1297.57 1542.27 Q1299.4 1538.71 1299.4 1531.6 Q1299.4 1524.47 1297.57 1520.93 Q1295.76 1517.37 1292.13 1517.37 M1292.13 1513.66 Q1297.94 1513.66 1301 1518.27 Q1304.07 1522.85 1304.07 1531.6 Q1304.07 1540.33 1301 1544.94 Q1297.94 1549.52 1292.13 1549.52 Q1286.32 1549.52 1283.24 1544.94 Q1280.19 1540.33 1280.19 1531.6 Q1280.19 1522.85 1283.24 1518.27 Q1286.32 1513.66 1292.13 1513.66 Z" fill="#000000" fill-rule="evenodd" fill-opacity="1" /><path clip-path="url(#clip440)" d="M1758.36 1517.37 Q1754.75 1517.37 1752.92 1520.93 Q1751.11 1524.47 1751.11 1531.6 Q1751.11 1538.71 1752.92 1542.27 Q1754.75 1545.82 1758.36 1545.82 Q1761.99 1545.82 1763.8 1542.27 Q1765.63 1538.71 1765.63 1531.6 Q1765.63 1524.47 1763.8 1520.93 Q1761.99 1517.37 1758.36 1517.37 M1758.36 1513.66 Q1764.17 1513.66 1767.23 1518.27 Q1770.3 1522.85 1770.3 1531.6 Q1770.3 1540.33 1767.23 1544.94 Q1764.17 1549.52 1758.36 1549.52 Q1752.55 1549.52 1749.47 1544.94 Q1746.42 1540.33 1746.42 1531.6 Q1746.42 1522.85 1749.47 1518.27 Q1752.55 1513.66 1758.36 1513.66 Z" fill="#000000" fill-rule="evenodd" fill-opacity="1" /><path clip-path="url(#clip440)" d="M1778.52 1542.97 L1783.41 1542.97 L1783.41 1548.85 L1778.52 1548.85 L1778.52 1542.97 Z" fill="#000000" fill-rule="evenodd" fill-opacity="1" /><path clip-path="url(#clip440)" d="M1793.64 1514.29 L1811.99 1514.29 L1811.99 1518.22 L1797.92 1518.22 L1797.92 1526.7 Q1798.94 1526.35 1799.96 1526.19 Q1800.98 1526 1801.99 1526 Q1807.78 1526 1811.16 1529.17 Q1814.54 1532.34 1814.54 1537.76 Q1814.54 1543.34 1811.07 1546.44 Q1807.6 1549.52 1801.28 1549.52 Q1799.1 1549.52 1796.83 1549.15 Q1794.59 1548.78 1792.18 1548.04 L1792.18 1543.34 Q1794.26 1544.47 1796.48 1545.03 Q1798.71 1545.58 1801.18 1545.58 Q1805.19 1545.58 1807.53 1543.48 Q1809.86 1541.37 1809.86 1537.76 Q1809.86 1534.15 1807.53 1532.04 Q1805.19 1529.94 1801.18 1529.94 Q1799.31 1529.94 1797.43 1530.35 Q1795.58 1530.77 1793.64 1531.65 L1793.64 1514.29 Z" fill="#000000" fill-rule="evenodd" fill-opacity="1" /><path clip-path="url(#clip440)" d="M2258.59 1544.91 L2266.23 1544.91 L2266.23 1518.55 L2257.92 1520.21 L2257.92 1515.95 L2266.19 1514.29 L2270.86 1514.29 L2270.86 1544.91 L2278.5 1544.91 L2278.5 1548.85 L2258.59 1548.85 L2258.59 1544.91 Z" fill="#000000" fill-rule="evenodd" fill-opacity="1" /><path clip-path="url(#clip440)" d="M2287.95 1542.97 L2292.83 1542.97 L2292.83 1548.85 L2287.95 1548.85 L2287.95 1542.97 Z" fill="#000000" fill-rule="evenodd" fill-opacity="1" /><path clip-path="url(#clip440)" d="M2313.01 1517.37 Q2309.4 1517.37 2307.57 1520.93 Q2305.77 1524.47 2305.77 1531.6 Q2305.77 1538.71 2307.57 1542.27 Q2309.4 1545.82 2313.01 1545.82 Q2316.65 1545.82 2318.45 1542.27 Q2320.28 1538.71 2320.28 1531.6 Q2320.28 1524.47 2318.45 1520.93 Q2316.65 1517.37 2313.01 1517.37 M2313.01 1513.66 Q2318.82 1513.66 2321.88 1518.27 Q2324.96 1522.85 2324.96 1531.6 Q2324.96 1540.33 2321.88 1544.94 Q2318.82 1549.52 2313.01 1549.52 Q2307.2 1549.52 2304.13 1544.94 Q2301.07 1540.33 2301.07 1531.6 Q2301.07 1522.85 2304.13 1518.27 Q2307.2 1513.66 2313.01 1513.66 Z" fill="#000000" fill-rule="evenodd" fill-opacity="1" /><polyline clip-path="url(#clip442)" style="stroke:#000000; stroke-linecap:round; stroke-linejoin:round; stroke-width:2; stroke-opacity:0.1; fill:none" points="
  186.274,1281.19 2352.76,1281.19 
  "/>
<polyline clip-path="url(#clip442)" style="stroke:#000000; stroke-linecap:round; stroke-linejoin:round; stroke-width:2; stroke-opacity:0.1; fill:none" points="
  186.274,980.542 2352.76,980.542 
  "/>
<polyline clip-path="url(#clip442)" style="stroke:#000000; stroke-linecap:round; stroke-linejoin:round; stroke-width:2; stroke-opacity:0.1; fill:none" points="
  186.274,679.895 2352.76,679.895 
  "/>
<polyline clip-path="url(#clip442)" style="stroke:#000000; stroke-linecap:round; stroke-linejoin:round; stroke-width:2; stroke-opacity:0.1; fill:none" points="
  186.274,379.249 2352.76,379.249 
  "/>
<polyline clip-path="url(#clip442)" style="stroke:#000000; stroke-linecap:round; stroke-linejoin:round; stroke-width:2; stroke-opacity:0.1; fill:none" points="
  186.274,78.602 2352.76,78.602 
  "/>
<polyline clip-path="url(#clip440)" style="stroke:#000000; stroke-linecap:round; stroke-linejoin:round; stroke-width:4; stroke-opacity:1; fill:none" points="
  186.274,1486.45 186.274,47.2441 
  "/>
<polyline clip-path="url(#clip440)" style="stroke:#000000; stroke-linecap:round; stroke-linejoin:round; stroke-width:4; stroke-opacity:1; fill:none" points="
  186.274,1281.19 205.172,1281.19 
  "/>
<polyline clip-path="url(#clip440)" style="stroke:#000000; stroke-linecap:round; stroke-linejoin:round; stroke-width:4; stroke-opacity:1; fill:none" points="
  186.274,980.542 205.172,980.542 
  "/>
<polyline clip-path="url(#clip440)" style="stroke:#000000; stroke-linecap:round; stroke-linejoin:round; stroke-width:4; stroke-opacity:1; fill:none" points="
  186.274,679.895 205.172,679.895 
  "/>
<polyline clip-path="url(#clip440)" style="stroke:#000000; stroke-linecap:round; stroke-linejoin:round; stroke-width:4; stroke-opacity:1; fill:none" points="
  186.274,379.249 205.172,379.249 
  "/>
<polyline clip-path="url(#clip440)" style="stroke:#000000; stroke-linecap:round; stroke-linejoin:round; stroke-width:4; stroke-opacity:1; fill:none" points="
  186.274,78.602 205.172,78.602 
  "/>
<path clip-path="url(#clip440)" d="M62.9365 1266.99 Q59.3254 1266.99 57.4967 1270.55 Q55.6912 1274.09 55.6912 1281.22 Q55.6912 1288.33 57.4967 1291.89 Q59.3254 1295.44 62.9365 1295.44 Q66.5707 1295.44 68.3763 1291.89 Q70.205 1288.33 70.205 1281.22 Q70.205 1274.09 68.3763 1270.55 Q66.5707 1266.99 62.9365 1266.99 M62.9365 1263.28 Q68.7467 1263.28 71.8022 1267.89 Q74.8809 1272.47 74.8809 1281.22 Q74.8809 1289.95 71.8022 1294.56 Q68.7467 1299.14 62.9365 1299.14 Q57.1264 1299.14 54.0477 1294.56 Q50.9921 1289.95 50.9921 1281.22 Q50.9921 1272.47 54.0477 1267.89 Q57.1264 1263.28 62.9365 1263.28 Z" fill="#000000" fill-rule="evenodd" fill-opacity="1" /><path clip-path="url(#clip440)" d="M83.0984 1292.59 L87.9827 1292.59 L87.9827 1298.47 L83.0984 1298.47 L83.0984 1292.59 Z" fill="#000000" fill-rule="evenodd" fill-opacity="1" /><path clip-path="url(#clip440)" d="M108.168 1266.99 Q104.557 1266.99 102.728 1270.55 Q100.922 1274.09 100.922 1281.22 Q100.922 1288.33 102.728 1291.89 Q104.557 1295.44 108.168 1295.44 Q111.802 1295.44 113.608 1291.89 Q115.436 1288.33 115.436 1281.22 Q115.436 1274.09 113.608 1270.55 Q111.802 1266.99 108.168 1266.99 M108.168 1263.28 Q113.978 1263.28 117.033 1267.89 Q120.112 1272.47 120.112 1281.22 Q120.112 1289.95 117.033 1294.56 Q113.978 1299.14 108.168 1299.14 Q102.358 1299.14 99.2789 1294.56 Q96.2234 1289.95 96.2234 1281.22 Q96.2234 1272.47 99.2789 1267.89 Q102.358 1263.28 108.168 1263.28 Z" fill="#000000" fill-rule="evenodd" fill-opacity="1" /><path clip-path="url(#clip440)" d="M138.33 1266.99 Q134.719 1266.99 132.89 1270.55 Q131.084 1274.09 131.084 1281.22 Q131.084 1288.33 132.89 1291.89 Q134.719 1295.44 138.33 1295.44 Q141.964 1295.44 143.769 1291.89 Q145.598 1288.33 145.598 1281.22 Q145.598 1274.09 143.769 1270.55 Q141.964 1266.99 138.33 1266.99 M138.33 1263.28 Q144.14 1263.28 147.195 1267.89 Q150.274 1272.47 150.274 1281.22 Q150.274 1289.95 147.195 1294.56 Q144.14 1299.14 138.33 1299.14 Q132.519 1299.14 129.441 1294.56 Q126.385 1289.95 126.385 1281.22 Q126.385 1272.47 129.441 1267.89 Q132.519 1263.28 138.33 1263.28 Z" fill="#000000" fill-rule="evenodd" fill-opacity="1" /><path clip-path="url(#clip440)" d="M63.9319 966.34 Q60.3208 966.34 58.4921 969.905 Q56.6865 973.447 56.6865 980.576 Q56.6865 987.683 58.4921 991.248 Q60.3208 994.789 63.9319 994.789 Q67.5661 994.789 69.3717 991.248 Q71.2004 987.683 71.2004 980.576 Q71.2004 973.447 69.3717 969.905 Q67.5661 966.34 63.9319 966.34 M63.9319 962.637 Q69.742 962.637 72.7976 967.243 Q75.8763 971.826 75.8763 980.576 Q75.8763 989.303 72.7976 993.91 Q69.742 998.493 63.9319 998.493 Q58.1217 998.493 55.043 993.91 Q51.9875 989.303 51.9875 980.576 Q51.9875 971.826 55.043 967.243 Q58.1217 962.637 63.9319 962.637 Z" fill="#000000" fill-rule="evenodd" fill-opacity="1" /><path clip-path="url(#clip440)" d="M84.0938 991.942 L88.978 991.942 L88.978 997.822 L84.0938 997.822 L84.0938 991.942 Z" fill="#000000" fill-rule="evenodd" fill-opacity="1" /><path clip-path="url(#clip440)" d="M103.191 993.886 L119.51 993.886 L119.51 997.822 L97.566 997.822 L97.566 993.886 Q100.228 991.132 104.811 986.502 Q109.418 981.849 110.598 980.507 Q112.844 977.984 113.723 976.248 Q114.626 974.488 114.626 972.799 Q114.626 970.044 112.682 968.308 Q110.76 966.572 107.658 966.572 Q105.459 966.572 103.006 967.336 Q100.575 968.099 97.7974 969.65 L97.7974 964.928 Q100.621 963.794 103.075 963.215 Q105.529 962.637 107.566 962.637 Q112.936 962.637 116.131 965.322 Q119.325 968.007 119.325 972.498 Q119.325 974.627 118.515 976.549 Q117.728 978.447 115.621 981.039 Q115.043 981.711 111.941 984.928 Q108.839 988.123 103.191 993.886 Z" fill="#000000" fill-rule="evenodd" fill-opacity="1" /><path clip-path="url(#clip440)" d="M129.371 963.262 L147.728 963.262 L147.728 967.197 L133.654 967.197 L133.654 975.669 Q134.672 975.322 135.691 975.16 Q136.709 974.974 137.728 974.974 Q143.515 974.974 146.894 978.146 Q150.274 981.317 150.274 986.734 Q150.274 992.312 146.802 995.414 Q143.33 998.493 137.01 998.493 Q134.834 998.493 132.566 998.122 Q130.32 997.752 127.913 997.011 L127.913 992.312 Q129.996 993.447 132.219 994.002 Q134.441 994.558 136.918 994.558 Q140.922 994.558 143.26 992.451 Q145.598 990.345 145.598 986.734 Q145.598 983.123 143.26 981.016 Q140.922 978.91 136.918 978.91 Q135.043 978.91 133.168 979.326 Q131.316 979.743 129.371 980.623 L129.371 963.262 Z" fill="#000000" fill-rule="evenodd" fill-opacity="1" /><path clip-path="url(#clip440)" d="M62.9365 665.694 Q59.3254 665.694 57.4967 669.259 Q55.6912 672.8 55.6912 679.93 Q55.6912 687.036 57.4967 690.601 Q59.3254 694.143 62.9365 694.143 Q66.5707 694.143 68.3763 690.601 Q70.205 687.036 70.205 679.93 Q70.205 672.8 68.3763 669.259 Q66.5707 665.694 62.9365 665.694 M62.9365 661.99 Q68.7467 661.99 71.8022 666.596 Q74.8809 671.18 74.8809 679.93 Q74.8809 688.657 71.8022 693.263 Q68.7467 697.846 62.9365 697.846 Q57.1264 697.846 54.0477 693.263 Q50.9921 688.657 50.9921 679.93 Q50.9921 671.18 54.0477 666.596 Q57.1264 661.99 62.9365 661.99 Z" fill="#000000" fill-rule="evenodd" fill-opacity="1" /><path clip-path="url(#clip440)" d="M83.0984 691.295 L87.9827 691.295 L87.9827 697.175 L83.0984 697.175 L83.0984 691.295 Z" fill="#000000" fill-rule="evenodd" fill-opacity="1" /><path clip-path="url(#clip440)" d="M98.2141 662.615 L116.57 662.615 L116.57 666.55 L102.496 666.55 L102.496 675.022 Q103.515 674.675 104.534 674.513 Q105.552 674.328 106.571 674.328 Q112.358 674.328 115.737 677.499 Q119.117 680.67 119.117 686.087 Q119.117 691.666 115.645 694.768 Q112.172 697.846 105.853 697.846 Q103.677 697.846 101.409 697.476 Q99.1632 697.106 96.7558 696.365 L96.7558 691.666 Q98.8391 692.8 101.061 693.356 Q103.284 693.911 105.76 693.911 Q109.765 693.911 112.103 691.805 Q114.441 689.698 114.441 686.087 Q114.441 682.476 112.103 680.37 Q109.765 678.263 105.76 678.263 Q103.885 678.263 102.01 678.68 Q100.159 679.096 98.2141 679.976 L98.2141 662.615 Z" fill="#000000" fill-rule="evenodd" fill-opacity="1" /><path clip-path="url(#clip440)" d="M138.33 665.694 Q134.719 665.694 132.89 669.259 Q131.084 672.8 131.084 679.93 Q131.084 687.036 132.89 690.601 Q134.719 694.143 138.33 694.143 Q141.964 694.143 143.769 690.601 Q145.598 687.036 145.598 679.93 Q145.598 672.8 143.769 669.259 Q141.964 665.694 138.33 665.694 M138.33 661.99 Q144.14 661.99 147.195 666.596 Q150.274 671.18 150.274 679.93 Q150.274 688.657 147.195 693.263 Q144.14 697.846 138.33 697.846 Q132.519 697.846 129.441 693.263 Q126.385 688.657 126.385 679.93 Q126.385 671.18 129.441 666.596 Q132.519 661.99 138.33 661.99 Z" fill="#000000" fill-rule="evenodd" fill-opacity="1" /><path clip-path="url(#clip440)" d="M63.9319 365.047 Q60.3208 365.047 58.4921 368.612 Q56.6865 372.154 56.6865 379.283 Q56.6865 386.39 58.4921 389.954 Q60.3208 393.496 63.9319 393.496 Q67.5661 393.496 69.3717 389.954 Q71.2004 386.39 71.2004 379.283 Q71.2004 372.154 69.3717 368.612 Q67.5661 365.047 63.9319 365.047 M63.9319 361.344 Q69.742 361.344 72.7976 365.95 Q75.8763 370.533 75.8763 379.283 Q75.8763 388.01 72.7976 392.616 Q69.742 397.2 63.9319 397.2 Q58.1217 397.2 55.043 392.616 Q51.9875 388.01 51.9875 379.283 Q51.9875 370.533 55.043 365.95 Q58.1217 361.344 63.9319 361.344 Z" fill="#000000" fill-rule="evenodd" fill-opacity="1" /><path clip-path="url(#clip440)" d="M84.0938 390.649 L88.978 390.649 L88.978 396.529 L84.0938 396.529 L84.0938 390.649 Z" fill="#000000" fill-rule="evenodd" fill-opacity="1" /><path clip-path="url(#clip440)" d="M97.9826 361.969 L120.205 361.969 L120.205 363.959 L107.658 396.529 L102.774 396.529 L114.58 365.904 L97.9826 365.904 L97.9826 361.969 Z" fill="#000000" fill-rule="evenodd" fill-opacity="1" /><path clip-path="url(#clip440)" d="M129.371 361.969 L147.728 361.969 L147.728 365.904 L133.654 365.904 L133.654 374.376 Q134.672 374.029 135.691 373.867 Q136.709 373.681 137.728 373.681 Q143.515 373.681 146.894 376.853 Q150.274 380.024 150.274 385.441 Q150.274 391.019 146.802 394.121 Q143.33 397.2 137.01 397.2 Q134.834 397.2 132.566 396.829 Q130.32 396.459 127.913 395.718 L127.913 391.019 Q129.996 392.154 132.219 392.709 Q134.441 393.265 136.918 393.265 Q140.922 393.265 143.26 391.158 Q145.598 389.052 145.598 385.441 Q145.598 381.83 143.26 379.723 Q140.922 377.617 136.918 377.617 Q135.043 377.617 133.168 378.033 Q131.316 378.45 129.371 379.33 L129.371 361.969 Z" fill="#000000" fill-rule="evenodd" fill-opacity="1" /><path clip-path="url(#clip440)" d="M53.7467 91.9468 L61.3856 91.9468 L61.3856 65.5812 L53.0754 67.2479 L53.0754 62.9886 L61.3393 61.322 L66.0152 61.322 L66.0152 91.9468 L73.654 91.9468 L73.654 95.882 L53.7467 95.882 L53.7467 91.9468 Z" fill="#000000" fill-rule="evenodd" fill-opacity="1" /><path clip-path="url(#clip440)" d="M83.0984 90.0024 L87.9827 90.0024 L87.9827 95.882 L83.0984 95.882 L83.0984 90.0024 Z" fill="#000000" fill-rule="evenodd" fill-opacity="1" /><path clip-path="url(#clip440)" d="M108.168 64.4007 Q104.557 64.4007 102.728 67.9655 Q100.922 71.5071 100.922 78.6367 Q100.922 85.7432 102.728 89.3079 Q104.557 92.8496 108.168 92.8496 Q111.802 92.8496 113.608 89.3079 Q115.436 85.7432 115.436 78.6367 Q115.436 71.5071 113.608 67.9655 Q111.802 64.4007 108.168 64.4007 M108.168 60.697 Q113.978 60.697 117.033 65.3034 Q120.112 69.8868 120.112 78.6367 Q120.112 87.3635 117.033 91.97 Q113.978 96.5533 108.168 96.5533 Q102.358 96.5533 99.2789 91.97 Q96.2234 87.3635 96.2234 78.6367 Q96.2234 69.8868 99.2789 65.3034 Q102.358 60.697 108.168 60.697 Z" fill="#000000" fill-rule="evenodd" fill-opacity="1" /><path clip-path="url(#clip440)" d="M138.33 64.4007 Q134.719 64.4007 132.89 67.9655 Q131.084 71.5071 131.084 78.6367 Q131.084 85.7432 132.89 89.3079 Q134.719 92.8496 138.33 92.8496 Q141.964 92.8496 143.769 89.3079 Q145.598 85.7432 145.598 78.6367 Q145.598 71.5071 143.769 67.9655 Q141.964 64.4007 138.33 64.4007 M138.33 60.697 Q144.14 60.697 147.195 65.3034 Q150.274 69.8868 150.274 78.6367 Q150.274 87.3635 147.195 91.97 Q144.14 96.5533 138.33 96.5533 Q132.519 96.5533 129.441 91.97 Q126.385 87.3635 126.385 78.6367 Q126.385 69.8868 129.441 65.3034 Q132.519 60.697 138.33 60.697 Z" fill="#000000" fill-rule="evenodd" fill-opacity="1" /><polyline clip-path="url(#clip442)" style="stroke:#009af9; stroke-linecap:round; stroke-linejoin:round; stroke-width:16; stroke-opacity:1; fill:none" points="
  247.59,1281.19 268.234,1285.99 288.879,1290.28 309.524,1293.57 330.169,1295.33 350.814,1295.08 371.459,1292.3 392.104,1286.49 412.749,1277.17 433.394,1265.09 
  454.039,1252.66 474.684,1242.41 495.329,1236.86 515.974,1238.55 536.619,1249.98 557.264,1273.7 577.909,1311.31 598.554,1356.9 619.199,1400.9 639.844,1433.71 
  660.489,1445.72 681.134,1427.33 701.779,1368.94 722.424,1260.98 743.069,1101.24 763.713,906.33 784.358,695.779 805.003,489.129 825.648,305.92 846.293,165.689 
  866.938,87.9763 887.583,91.3034 908.228,174.543 928.873,318.793 949.518,504.512 970.163,712.159 990.808,922.193 1011.45,1115.07 1032.1,1271.25 1052.74,1375.02 
  1073.39,1429.92 1094.03,1445.57 1114.68,1431.58 1135.32,1397.56 1155.97,1353.14 1176.61,1307.91 1197.26,1271.44 1217.9,1248.98 1238.55,1238.62 1259.19,1237.78 
  1279.84,1243.9 1300.48,1254.39 1321.13,1266.69 1341.77,1278.2 1362.42,1286.54 1383.06,1291.23 1403.71,1292.94 1424.35,1292.37 1445,1290.2 1465.64,1287.12 
  1486.29,1283.82 1506.93,1281 1527.58,1279.16 1548.22,1278.24 1568.87,1278.03 1589.51,1278.38 1610.16,1279.07 1630.8,1279.94 1651.45,1280.8 1672.09,1281.46 
  1692.74,1281.85 1713.38,1282.02 1734.03,1282.01 1754.67,1281.88 1775.32,1281.67 1795.96,1281.43 1816.61,1281.22 1837.25,1281.07 1857.9,1280.99 1878.54,1280.96 
  1899.19,1280.98 1919.83,1281.02 1940.48,1281.08 1961.12,1281.15 1981.77,1281.2 2002.41,1281.23 2023.06,1281.25 2043.7,1281.25 2064.35,1281.24 2084.99,1281.23 
  2105.64,1281.21 2126.28,1281.19 2146.93,1281.18 2167.57,1281.17 2188.22,1281.17 2208.86,1281.17 2229.51,1281.17 2250.15,1281.18 2270.8,1281.18 2291.44,1281.19 
  
  "/>
<path clip-path="url(#clip440)" d="
M1961.17 250.738 L2280.54 250.738 L2280.54 95.2176 L1961.17 95.2176  Z
  " fill="#ffffff" fill-rule="evenodd" fill-opacity="1"/>
<polyline clip-path="url(#clip440)" style="stroke:#000000; stroke-linecap:round; stroke-linejoin:round; stroke-width:4; stroke-opacity:1; fill:none" points="
  1961.17,250.738 2280.54,250.738 2280.54,95.2176 1961.17,95.2176 1961.17,250.738 
  "/>
<polyline clip-path="url(#clip440)" style="stroke:#009af9; stroke-linecap:round; stroke-linejoin:round; stroke-width:6; stroke-opacity:1; fill:none" points="
  1985.25,172.978 2129.68,172.978 
  "/>
<path clip-path="url(#clip440)" d="M2174.51 202.509 Q2171.81 209.453 2169.24 211.571 Q2166.67 213.689 2162.36 213.689 L2157.26 213.689 L2157.26 208.342 L2161.01 208.342 Q2163.65 208.342 2165.1 207.092 Q2166.56 205.842 2168.33 201.189 L2169.48 198.273 L2153.75 160.009 L2160.52 160.009 L2172.67 190.425 L2184.83 160.009 L2191.6 160.009 L2174.51 202.509 Z" fill="#000000" fill-rule="evenodd" fill-opacity="1" /><path clip-path="url(#clip440)" d="M2202.53 192.995 L2213.99 192.995 L2213.99 153.446 L2201.53 155.946 L2201.53 149.558 L2213.92 147.058 L2220.94 147.058 L2220.94 192.995 L2232.4 192.995 L2232.4 198.898 L2202.53 198.898 L2202.53 192.995 Z" fill="#000000" fill-rule="evenodd" fill-opacity="1" /></svg>
