<?xml version="1.0" encoding="utf-8"?>
<svg xmlns="http://www.w3.org/2000/svg" xmlns:xlink="http://www.w3.org/1999/xlink" width="800" height="500" viewBox="0 0 3200 2000">
<defs>
  <clipPath id="clip440">
    <rect x="0" y="0" width="3200" height="2000"/>
  </clipPath>
</defs>
<path clip-path="url(#clip440)" d="
M0 2000 L3200 2000 L3200 0 L0 0  Z
  " fill="#ffffff" fill-rule="evenodd" fill-opacity="1"/>
<defs>
  <clipPath id="clip441">
    <rect x="640" y="0" width="2241" height="2000"/>
  </clipPath>
</defs>
<path clip-path="url(#clip440)" d="
M201.936 1884.61 L3152.76 1884.61 L3152.76 47.2441 L201.936 47.2441  Z
  " fill="#ffffff" fill-rule="evenodd" fill-opacity="1"/>
<defs>
  <clipPath id="clip442">
    <rect x="201" y="47" width="2952" height="1838"/>
  </clipPath>
</defs>
<polyline clip-path="url(#clip442)" style="stroke:#000000; stroke-linecap:butt; stroke-linejoin:round; stroke-width:2; stroke-opacity:0.1; fill:none" points="
  285.45,1884.61 285.45,47.2441 
  "/>
<polyline clip-path="url(#clip442)" style="stroke:#000000; stroke-linecap:butt; stroke-linejoin:round; stroke-width:2; stroke-opacity:0.1; fill:none" points="
  981.398,1884.61 981.398,47.2441 
  "/>
<polyline clip-path="url(#clip442)" style="stroke:#000000; stroke-linecap:butt; stroke-linejoin:round; stroke-width:2; stroke-opacity:0.1; fill:none" points="
  1677.35,1884.61 1677.35,47.2441 
  "/>
<polyline clip-path="url(#clip442)" style="stroke:#000000; stroke-linecap:butt; stroke-linejoin:round; stroke-width:2; stroke-opacity:0.1; fill:none" points="
  2373.29,1884.61 2373.29,47.2441 
  "/>
<polyline clip-path="url(#clip442)" style="stroke:#000000; stroke-linecap:butt; stroke-linejoin:round; stroke-width:2; stroke-opacity:0.1; fill:none" points="
  3069.24,1884.61 3069.24,47.2441 
  "/>
<polyline clip-path="url(#clip440)" style="stroke:#000000; stroke-linecap:butt; stroke-linejoin:round; stroke-width:4; stroke-opacity:1; fill:none" points="
  201.936,1884.61 3152.76,1884.61 
  "/>
<polyline clip-path="url(#clip440)" style="stroke:#000000; stroke-linecap:butt; stroke-linejoin:round; stroke-width:4; stroke-opacity:1; fill:none" points="
  285.45,1884.61 285.45,1865.71 
  "/>
<polyline clip-path="url(#clip440)" style="stroke:#000000; stroke-linecap:butt; stroke-linejoin:round; stroke-width:4; stroke-opacity:1; fill:none" points="
  981.398,1884.61 981.398,1865.71 
  "/>
<polyline clip-path="url(#clip440)" style="stroke:#000000; stroke-linecap:butt; stroke-linejoin:round; stroke-width:4; stroke-opacity:1; fill:none" points="
  1677.35,1884.61 1677.35,1865.71 
  "/>
<polyline clip-path="url(#clip440)" style="stroke:#000000; stroke-linecap:butt; stroke-linejoin:round; stroke-width:4; stroke-opacity:1; fill:none" points="
  2373.29,1884.61 2373.29,1865.71 
  "/>
<polyline clip-path="url(#clip440)" style="stroke:#000000; stroke-linecap:butt; stroke-linejoin:round; stroke-width:4; stroke-opacity:1; fill:none" points="
  3069.24,1884.61 3069.24,1865.71 
  "/>
<path clip-path="url(#clip440)" d="M262.834 1921.93 Q259.223 1921.93 257.394 1925.49 Q255.589 1929.03 255.589 1936.16 Q255.589 1943.27 257.394 1946.83 Q259.223 1950.38 262.834 1950.38 Q266.468 1950.38 268.274 1946.83 Q270.103 1943.27 270.103 1936.16 Q270.103 1929.03 268.274 1925.49 Q266.468 1921.93 262.834 1921.93 M262.834 1918.22 Q268.644 1918.22 271.7 1922.83 Q274.779 1927.41 274.779 1936.16 Q274.779 1944.89 271.7 1949.5 Q268.644 1954.08 262.834 1954.08 Q257.024 1954.08 253.945 1949.5 Q250.89 1944.89 250.89 1936.16 Q250.89 1927.41 253.945 1922.83 Q257.024 1918.22 262.834 1918.22 Z" fill="#000000" fill-rule="evenodd" fill-opacity="1" /><path clip-path="url(#clip440)" d="M282.996 1947.53 L287.88 1947.53 L287.88 1953.41 L282.996 1953.41 L282.996 1947.53 Z" fill="#000000" fill-rule="evenodd" fill-opacity="1" /><path clip-path="url(#clip440)" d="M308.065 1921.93 Q304.454 1921.93 302.626 1925.49 Q300.82 1929.03 300.82 1936.16 Q300.82 1943.27 302.626 1946.83 Q304.454 1950.38 308.065 1950.38 Q311.7 1950.38 313.505 1946.83 Q315.334 1943.27 315.334 1936.16 Q315.334 1929.03 313.505 1925.49 Q311.7 1921.93 308.065 1921.93 M308.065 1918.22 Q313.876 1918.22 316.931 1922.83 Q320.01 1927.41 320.01 1936.16 Q320.01 1944.89 316.931 1949.5 Q313.876 1954.08 308.065 1954.08 Q302.255 1954.08 299.177 1949.5 Q296.121 1944.89 296.121 1936.16 Q296.121 1927.41 299.177 1922.83 Q302.255 1918.22 308.065 1918.22 Z" fill="#000000" fill-rule="evenodd" fill-opacity="1" /><path clip-path="url(#clip440)" d="M953.134 1949.47 L969.453 1949.47 L969.453 1953.41 L947.509 1953.41 L947.509 1949.47 Q950.171 1946.72 954.754 1942.09 Q959.361 1937.44 960.541 1936.09 Q962.787 1933.57 963.666 1931.83 Q964.569 1930.07 964.569 1928.38 Q964.569 1925.63 962.625 1923.89 Q960.704 1922.16 957.602 1922.16 Q955.403 1922.16 952.949 1922.92 Q950.518 1923.69 947.741 1925.24 L947.741 1920.51 Q950.565 1919.38 953.018 1918.8 Q955.472 1918.22 957.509 1918.22 Q962.879 1918.22 966.074 1920.91 Q969.268 1923.59 969.268 1928.08 Q969.268 1930.21 968.458 1932.13 Q967.671 1934.03 965.565 1936.63 Q964.986 1937.3 961.884 1940.51 Q958.782 1943.71 953.134 1949.47 Z" fill="#000000" fill-rule="evenodd" fill-opacity="1" /><path clip-path="url(#clip440)" d="M979.268 1947.53 L984.152 1947.53 L984.152 1953.41 L979.268 1953.41 L979.268 1947.53 Z" fill="#000000" fill-rule="evenodd" fill-opacity="1" /><path clip-path="url(#clip440)" d="M994.384 1918.85 L1012.74 1918.85 L1012.74 1922.78 L998.666 1922.78 L998.666 1931.26 Q999.685 1930.91 1000.7 1930.75 Q1001.72 1930.56 1002.74 1930.56 Q1008.53 1930.56 1011.91 1933.73 Q1015.29 1936.9 1015.29 1942.32 Q1015.29 1947.9 1011.81 1951 Q1008.34 1954.08 1002.02 1954.08 Q999.847 1954.08 997.578 1953.71 Q995.333 1953.34 992.926 1952.6 L992.926 1947.9 Q995.009 1949.03 997.231 1949.59 Q999.453 1950.14 1001.93 1950.14 Q1005.93 1950.14 1008.27 1948.04 Q1010.61 1945.93 1010.61 1942.32 Q1010.61 1938.71 1008.27 1936.6 Q1005.93 1934.5 1001.93 1934.5 Q1000.06 1934.5 998.18 1934.91 Q996.328 1935.33 994.384 1936.21 L994.384 1918.85 Z" fill="#000000" fill-rule="evenodd" fill-opacity="1" /><path clip-path="url(#clip440)" d="M1644.51 1918.85 L1662.87 1918.85 L1662.87 1922.78 L1648.79 1922.78 L1648.79 1931.26 Q1649.81 1930.91 1650.83 1930.75 Q1651.85 1930.56 1652.87 1930.56 Q1658.65 1930.56 1662.03 1933.73 Q1665.41 1936.9 1665.41 1942.32 Q1665.41 1947.9 1661.94 1951 Q1658.47 1954.08 1652.15 1954.08 Q1649.97 1954.08 1647.7 1953.71 Q1645.46 1953.34 1643.05 1952.6 L1643.05 1947.9 Q1645.14 1949.03 1647.36 1949.59 Q1649.58 1950.14 1652.06 1950.14 Q1656.06 1950.14 1658.4 1948.04 Q1660.74 1945.93 1660.74 1942.32 Q1660.74 1938.71 1658.4 1936.6 Q1656.06 1934.5 1652.06 1934.5 Q1650.18 1934.5 1648.31 1934.91 Q1646.45 1935.33 1644.51 1936.21 L1644.51 1918.85 Z" fill="#000000" fill-rule="evenodd" fill-opacity="1" /><path clip-path="url(#clip440)" d="M1674.63 1947.53 L1679.51 1947.53 L1679.51 1953.41 L1674.63 1953.41 L1674.63 1947.53 Z" fill="#000000" fill-rule="evenodd" fill-opacity="1" /><path clip-path="url(#clip440)" d="M1699.7 1921.93 Q1696.08 1921.93 1694.26 1925.49 Q1692.45 1929.03 1692.45 1936.16 Q1692.45 1943.27 1694.26 1946.83 Q1696.08 1950.38 1699.7 1950.38 Q1703.33 1950.38 1705.14 1946.83 Q1706.96 1943.27 1706.96 1936.16 Q1706.96 1929.03 1705.14 1925.49 Q1703.33 1921.93 1699.7 1921.93 M1699.7 1918.22 Q1705.51 1918.22 1708.56 1922.83 Q1711.64 1927.41 1711.64 1936.16 Q1711.64 1944.89 1708.56 1949.5 Q1705.51 1954.08 1699.7 1954.08 Q1693.89 1954.08 1690.81 1949.5 Q1687.75 1944.89 1687.75 1936.16 Q1687.75 1927.41 1690.81 1922.83 Q1693.89 1918.22 1699.7 1918.22 Z" fill="#000000" fill-rule="evenodd" fill-opacity="1" /><path clip-path="url(#clip440)" d="M2339.61 1918.85 L2361.84 1918.85 L2361.84 1920.84 L2349.29 1953.41 L2344.41 1953.41 L2356.21 1922.78 L2339.61 1922.78 L2339.61 1918.85 Z" fill="#000000" fill-rule="evenodd" fill-opacity="1" /><path clip-path="url(#clip440)" d="M2370.96 1947.53 L2375.84 1947.53 L2375.84 1953.41 L2370.96 1953.41 L2370.96 1947.53 Z" fill="#000000" fill-rule="evenodd" fill-opacity="1" /><path clip-path="url(#clip440)" d="M2386.07 1918.85 L2404.43 1918.85 L2404.43 1922.78 L2390.35 1922.78 L2390.35 1931.26 Q2391.37 1930.91 2392.39 1930.75 Q2393.41 1930.56 2394.43 1930.56 Q2400.22 1930.56 2403.59 1933.73 Q2406.97 1936.9 2406.97 1942.32 Q2406.97 1947.9 2403.5 1951 Q2400.03 1954.08 2393.71 1954.08 Q2391.53 1954.08 2389.27 1953.71 Q2387.02 1953.34 2384.61 1952.6 L2384.61 1947.9 Q2386.7 1949.03 2388.92 1949.59 Q2391.14 1950.14 2393.62 1950.14 Q2397.62 1950.14 2399.96 1948.04 Q2402.3 1945.93 2402.3 1942.32 Q2402.3 1938.71 2399.96 1936.6 Q2397.62 1934.5 2393.62 1934.5 Q2391.74 1934.5 2389.87 1934.91 Q2388.02 1935.33 2386.07 1936.21 L2386.07 1918.85 Z" fill="#000000" fill-rule="evenodd" fill-opacity="1" /><path clip-path="url(#clip440)" d="M3021.31 1949.47 L3028.95 1949.47 L3028.95 1923.11 L3020.64 1924.77 L3020.64 1920.51 L3028.91 1918.85 L3033.58 1918.85 L3033.58 1949.47 L3041.22 1949.47 L3041.22 1953.41 L3021.31 1953.41 L3021.31 1949.47 Z" fill="#000000" fill-rule="evenodd" fill-opacity="1" /><path clip-path="url(#clip440)" d="M3060.67 1921.93 Q3057.05 1921.93 3055.23 1925.49 Q3053.42 1929.03 3053.42 1936.16 Q3053.42 1943.27 3055.23 1946.83 Q3057.05 1950.38 3060.67 1950.38 Q3064.3 1950.38 3066.11 1946.83 Q3067.93 1943.27 3067.93 1936.16 Q3067.93 1929.03 3066.11 1925.49 Q3064.3 1921.93 3060.67 1921.93 M3060.67 1918.22 Q3066.48 1918.22 3069.53 1922.83 Q3072.61 1927.41 3072.61 1936.16 Q3072.61 1944.89 3069.53 1949.5 Q3066.48 1954.08 3060.67 1954.08 Q3054.86 1954.08 3051.78 1949.5 Q3048.72 1944.89 3048.72 1936.16 Q3048.72 1927.41 3051.78 1922.83 Q3054.86 1918.22 3060.67 1918.22 Z" fill="#000000" fill-rule="evenodd" fill-opacity="1" /><path clip-path="url(#clip440)" d="M3080.83 1947.53 L3085.71 1947.53 L3085.71 1953.41 L3080.83 1953.41 L3080.83 1947.53 Z" fill="#000000" fill-rule="evenodd" fill-opacity="1" /><path clip-path="url(#clip440)" d="M3105.9 1921.93 Q3102.29 1921.93 3100.46 1925.49 Q3098.65 1929.03 3098.65 1936.16 Q3098.65 1943.27 3100.46 1946.83 Q3102.29 1950.38 3105.9 1950.38 Q3109.53 1950.38 3111.34 1946.83 Q3113.17 1943.27 3113.17 1936.16 Q3113.17 1929.03 3111.34 1925.49 Q3109.53 1921.93 3105.9 1921.93 M3105.9 1918.22 Q3111.71 1918.22 3114.76 1922.83 Q3117.84 1927.41 3117.84 1936.16 Q3117.84 1944.89 3114.76 1949.5 Q3111.71 1954.08 3105.9 1954.08 Q3100.09 1954.08 3097.01 1949.5 Q3093.95 1944.89 3093.95 1936.16 Q3093.95 1927.41 3097.01 1922.83 Q3100.09 1918.22 3105.9 1918.22 Z" fill="#000000" fill-rule="evenodd" fill-opacity="1" /><polyline clip-path="url(#clip442)" style="stroke:#000000; stroke-linecap:butt; stroke-linejoin:round; stroke-width:2; stroke-opacity:0.1; fill:none" points="
  201.936,1833.14 3152.76,1833.14 
  "/>
<polyline clip-path="url(#clip442)" style="stroke:#000000; stroke-linecap:butt; stroke-linejoin:round; stroke-width:2; stroke-opacity:0.1; fill:none" points="
  201.936,1399.67 3152.76,1399.67 
  "/>
<polyline clip-path="url(#clip442)" style="stroke:#000000; stroke-linecap:butt; stroke-linejoin:round; stroke-width:2; stroke-opacity:0.1; fill:none" points="
  201.936,966.195 3152.76,966.195 
  "/>
<polyline clip-path="url(#clip442)" style="stroke:#000000; stroke-linecap:butt; stroke-linejoin:round; stroke-width:2; stroke-opacity:0.1; fill:none" points="
  201.936,532.72 3152.76,532.72 
  "/>
<polyline clip-path="url(#clip442)" style="stroke:#000000; stroke-linecap:butt; stroke-linejoin:round; stroke-width:2; stroke-opacity:0.1; fill:none" points="
  201.936,99.245 3152.76,99.245 
  "/>
<polyline clip-path="url(#clip440)" style="stroke:#000000; stroke-linecap:butt; stroke-linejoin:round; stroke-width:4; stroke-opacity:1; fill:none" points="
  201.936,1884.61 201.936,47.2441 
  "/>
<polyline clip-path="url(#clip440)" style="stroke:#000000; stroke-linecap:butt; stroke-linejoin:round; stroke-width:4; stroke-opacity:1; fill:none" points="
  201.936,1833.14 220.834,1833.14 
  "/>
<polyline clip-path="url(#clip440)" style="stroke:#000000; stroke-linecap:butt; stroke-linejoin:round; stroke-width:4; stroke-opacity:1; fill:none" points="
  201.936,1399.67 220.834,1399.67 
  "/>
<polyline clip-path="url(#clip440)" style="stroke:#000000; stroke-linecap:butt; stroke-linejoin:round; stroke-width:4; stroke-opacity:1; fill:none" points="
  201.936,966.195 220.834,966.195 
  "/>
<polyline clip-path="url(#clip440)" style="stroke:#000000; stroke-linecap:butt; stroke-linejoin:round; stroke-width:4; stroke-opacity:1; fill:none" points="
  201.936,532.72 220.834,532.72 
  "/>
<polyline clip-path="url(#clip440)" style="stroke:#000000; stroke-linecap:butt; stroke-linejoin:round; stroke-width:4; stroke-opacity:1; fill:none" points="
  201.936,99.245 220.834,99.245 
  "/>
<path clip-path="url(#clip440)" d="M46.9921 1833.6 L76.6679 1833.6 L76.6679 1837.53 L46.9921 1837.53 L46.9921 1833.6 Z" fill="#000000" fill-rule="evenodd" fill-opacity="1" /><path clip-path="url(#clip440)" d="M87.5706 1846.49 L95.2095 1846.49 L95.2095 1820.12 L86.8993 1821.79 L86.8993 1817.53 L95.1632 1815.86 L99.8391 1815.86 L99.8391 1846.49 L107.478 1846.49 L107.478 1850.42 L87.5706 1850.42 L87.5706 1846.49 Z" fill="#000000" fill-rule="evenodd" fill-opacity="1" /><path clip-path="url(#clip440)" d="M116.922 1844.54 L121.807 1844.54 L121.807 1850.42 L116.922 1850.42 L116.922 1844.54 Z" fill="#000000" fill-rule="evenodd" fill-opacity="1" /><path clip-path="url(#clip440)" d="M141.992 1818.94 Q138.381 1818.94 136.552 1822.51 Q134.746 1826.05 134.746 1833.18 Q134.746 1840.29 136.552 1843.85 Q138.381 1847.39 141.992 1847.39 Q145.626 1847.39 147.431 1843.85 Q149.26 1840.29 149.26 1833.18 Q149.26 1826.05 147.431 1822.51 Q145.626 1818.94 141.992 1818.94 M141.992 1815.24 Q147.802 1815.24 150.857 1819.85 Q153.936 1824.43 153.936 1833.18 Q153.936 1841.91 150.857 1846.51 Q147.802 1851.1 141.992 1851.1 Q136.181 1851.1 133.103 1846.51 Q130.047 1841.91 130.047 1833.18 Q130.047 1824.43 133.103 1819.85 Q136.181 1815.24 141.992 1815.24 Z" fill="#000000" fill-rule="evenodd" fill-opacity="1" /><path clip-path="url(#clip440)" d="M47.9875 1400.12 L77.6633 1400.12 L77.6633 1404.06 L47.9875 1404.06 L47.9875 1400.12 Z" fill="#000000" fill-rule="evenodd" fill-opacity="1" /><path clip-path="url(#clip440)" d="M97.7557 1385.47 Q94.1447 1385.47 92.316 1389.03 Q90.5104 1392.57 90.5104 1399.7 Q90.5104 1406.81 92.316 1410.38 Q94.1447 1413.92 97.7557 1413.92 Q101.39 1413.92 103.196 1410.38 Q105.024 1406.81 105.024 1399.7 Q105.024 1392.57 103.196 1389.03 Q101.39 1385.47 97.7557 1385.47 M97.7557 1381.76 Q103.566 1381.76 106.621 1386.37 Q109.7 1390.95 109.7 1399.7 Q109.7 1408.43 106.621 1413.04 Q103.566 1417.62 97.7557 1417.62 Q91.9456 1417.62 88.8669 1413.04 Q85.8114 1408.43 85.8114 1399.7 Q85.8114 1390.95 88.8669 1386.37 Q91.9456 1381.76 97.7557 1381.76 Z" fill="#000000" fill-rule="evenodd" fill-opacity="1" /><path clip-path="url(#clip440)" d="M117.918 1411.07 L122.802 1411.07 L122.802 1416.95 L117.918 1416.95 L117.918 1411.07 Z" fill="#000000" fill-rule="evenodd" fill-opacity="1" /><path clip-path="url(#clip440)" d="M133.033 1382.39 L151.39 1382.39 L151.39 1386.32 L137.316 1386.32 L137.316 1394.8 Q138.334 1394.45 139.353 1394.29 Q140.371 1394.1 141.39 1394.1 Q147.177 1394.1 150.556 1397.27 Q153.936 1400.45 153.936 1405.86 Q153.936 1411.44 150.464 1414.54 Q146.992 1417.62 140.672 1417.62 Q138.496 1417.62 136.228 1417.25 Q133.982 1416.88 131.575 1416.14 L131.575 1411.44 Q133.658 1412.57 135.881 1413.13 Q138.103 1413.69 140.58 1413.69 Q144.584 1413.69 146.922 1411.58 Q149.26 1409.47 149.26 1405.86 Q149.26 1402.25 146.922 1400.14 Q144.584 1398.04 140.58 1398.04 Q138.705 1398.04 136.83 1398.45 Q134.978 1398.87 133.033 1399.75 L133.033 1382.39 Z" fill="#000000" fill-rule="evenodd" fill-opacity="1" /><path clip-path="url(#clip440)" d="M96.7604 951.993 Q93.1493 951.993 91.3206 955.558 Q89.515 959.1 89.515 966.229 Q89.515 973.336 91.3206 976.901 Q93.1493 980.442 96.7604 980.442 Q100.395 980.442 102.2 976.901 Q104.029 973.336 104.029 966.229 Q104.029 959.1 102.2 955.558 Q100.395 951.993 96.7604 951.993 M96.7604 948.29 Q102.571 948.29 105.626 952.896 Q108.705 957.48 108.705 966.229 Q108.705 974.956 105.626 979.563 Q102.571 984.146 96.7604 984.146 Q90.9502 984.146 87.8715 979.563 Q84.816 974.956 84.816 966.229 Q84.816 957.48 87.8715 952.896 Q90.9502 948.29 96.7604 948.29 Z" fill="#000000" fill-rule="evenodd" fill-opacity="1" /><path clip-path="url(#clip440)" d="M116.922 977.595 L121.807 977.595 L121.807 983.475 L116.922 983.475 L116.922 977.595 Z" fill="#000000" fill-rule="evenodd" fill-opacity="1" /><path clip-path="url(#clip440)" d="M141.992 951.993 Q138.381 951.993 136.552 955.558 Q134.746 959.1 134.746 966.229 Q134.746 973.336 136.552 976.901 Q138.381 980.442 141.992 980.442 Q145.626 980.442 147.431 976.901 Q149.26 973.336 149.26 966.229 Q149.26 959.1 147.431 955.558 Q145.626 951.993 141.992 951.993 M141.992 948.29 Q147.802 948.29 150.857 952.896 Q153.936 957.48 153.936 966.229 Q153.936 974.956 150.857 979.563 Q147.802 984.146 141.992 984.146 Q136.181 984.146 133.103 979.563 Q130.047 974.956 130.047 966.229 Q130.047 957.48 133.103 952.896 Q136.181 948.29 141.992 948.29 Z" fill="#000000" fill-rule="evenodd" fill-opacity="1" /><path clip-path="url(#clip440)" d="M97.7557 518.519 Q94.1447 518.519 92.316 522.083 Q90.5104 525.625 90.5104 532.755 Q90.5104 539.861 92.316 543.426 Q94.1447 546.967 97.7557 546.967 Q101.39 546.967 103.196 543.426 Q105.024 539.861 105.024 532.755 Q105.024 525.625 103.196 522.083 Q101.39 518.519 97.7557 518.519 M97.7557 514.815 Q103.566 514.815 106.621 519.421 Q109.7 524.005 109.7 532.755 Q109.7 541.481 106.621 546.088 Q103.566 550.671 97.7557 550.671 Q91.9456 550.671 88.8669 546.088 Q85.8114 541.481 85.8114 532.755 Q85.8114 524.005 88.8669 519.421 Q91.9456 514.815 97.7557 514.815 Z" fill="#000000" fill-rule="evenodd" fill-opacity="1" /><path clip-path="url(#clip440)" d="M117.918 544.12 L122.802 544.12 L122.802 550 L117.918 550 L117.918 544.12 Z" fill="#000000" fill-rule="evenodd" fill-opacity="1" /><path clip-path="url(#clip440)" d="M133.033 515.44 L151.39 515.44 L151.39 519.375 L137.316 519.375 L137.316 527.847 Q138.334 527.5 139.353 527.338 Q140.371 527.153 141.39 527.153 Q147.177 527.153 150.556 530.324 Q153.936 533.495 153.936 538.912 Q153.936 544.491 150.464 547.592 Q146.992 550.671 140.672 550.671 Q138.496 550.671 136.228 550.301 Q133.982 549.93 131.575 549.19 L131.575 544.491 Q133.658 545.625 135.881 546.18 Q138.103 546.736 140.58 546.736 Q144.584 546.736 146.922 544.63 Q149.26 542.523 149.26 538.912 Q149.26 535.301 146.922 533.194 Q144.584 531.088 140.58 531.088 Q138.705 531.088 136.83 531.505 Q134.978 531.921 133.033 532.801 L133.033 515.44 Z" fill="#000000" fill-rule="evenodd" fill-opacity="1" /><path clip-path="url(#clip440)" d="M87.5706 112.59 L95.2095 112.59 L95.2095 86.2242 L86.8993 87.8909 L86.8993 83.6316 L95.1632 81.965 L99.8391 81.965 L99.8391 112.59 L107.478 112.59 L107.478 116.525 L87.5706 116.525 L87.5706 112.59 Z" fill="#000000" fill-rule="evenodd" fill-opacity="1" /><path clip-path="url(#clip440)" d="M116.922 110.645 L121.807 110.645 L121.807 116.525 L116.922 116.525 L116.922 110.645 Z" fill="#000000" fill-rule="evenodd" fill-opacity="1" /><path clip-path="url(#clip440)" d="M141.992 85.0436 Q138.381 85.0436 136.552 88.6084 Q134.746 92.1501 134.746 99.2797 Q134.746 106.386 136.552 109.951 Q138.381 113.493 141.992 113.493 Q145.626 113.493 147.431 109.951 Q149.26 106.386 149.26 99.2797 Q149.26 92.1501 147.431 88.6084 Q145.626 85.0436 141.992 85.0436 M141.992 81.34 Q147.802 81.34 150.857 85.9464 Q153.936 90.5297 153.936 99.2797 Q153.936 108.006 150.857 112.613 Q147.802 117.196 141.992 117.196 Q136.181 117.196 133.103 112.613 Q130.047 108.006 130.047 99.2797 Q130.047 90.5297 133.103 85.9464 Q136.181 81.34 141.992 81.34 Z" fill="#000000" fill-rule="evenodd" fill-opacity="1" /><circle clip-path="url(#clip442)" cx="285.45" cy="966.195" r="14" fill="#009af9" fill-rule="evenodd" fill-opacity="1" stroke="#000000" stroke-opacity="1" stroke-width="4"/>
<circle clip-path="url(#clip442)" cx="424.639" cy="550.781" r="14" fill="#009af9" fill-rule="evenodd" fill-opacity="1" stroke="#000000" stroke-opacity="1" stroke-width="4"/>
<circle clip-path="url(#clip442)" cx="563.829" cy="237.058" r="14" fill="#009af9" fill-rule="evenodd" fill-opacity="1" stroke="#000000" stroke-opacity="1" stroke-width="4"/>
<circle clip-path="url(#clip442)" cx="703.019" cy="101.733" r="14" fill="#009af9" fill-rule="evenodd" fill-opacity="1" stroke="#000000" stroke-opacity="1" stroke-width="4"/>
<circle clip-path="url(#clip442)" cx="842.208" cy="177.869" r="14" fill="#009af9" fill-rule="evenodd" fill-opacity="1" stroke="#000000" stroke-opacity="1" stroke-width="4"/>
<circle clip-path="url(#clip442)" cx="981.398" cy="446.798" r="14" fill="#009af9" fill-rule="evenodd" fill-opacity="1" stroke="#000000" stroke-opacity="1" stroke-width="4"/>
<circle clip-path="url(#clip442)" cx="1120.59" cy="842.705" r="14" fill="#009af9" fill-rule="evenodd" fill-opacity="1" stroke="#000000" stroke-opacity="1" stroke-width="4"/>
<circle clip-path="url(#clip442)" cx="1259.78" cy="1268.73" r="14" fill="#009af9" fill-rule="evenodd" fill-opacity="1" stroke="#000000" stroke-opacity="1" stroke-width="4"/>
<circle clip-path="url(#clip442)" cx="1398.97" cy="1620.68" r="14" fill="#009af9" fill-rule="evenodd" fill-opacity="1" stroke="#000000" stroke-opacity="1" stroke-width="4"/>
<circle clip-path="url(#clip442)" cx="1538.16" cy="1812.47" r="14" fill="#009af9" fill-rule="evenodd" fill-opacity="1" stroke="#000000" stroke-opacity="1" stroke-width="4"/>
<circle clip-path="url(#clip442)" cx="1677.35" cy="1797.24" r="14" fill="#009af9" fill-rule="evenodd" fill-opacity="1" stroke="#000000" stroke-opacity="1" stroke-width="4"/>
<circle clip-path="url(#clip442)" cx="1816.54" cy="1578.76" r="14" fill="#009af9" fill-rule="evenodd" fill-opacity="1" stroke="#000000" stroke-opacity="1" stroke-width="4"/>
<circle clip-path="url(#clip442)" cx="1955.73" cy="1210.5" r="14" fill="#009af9" fill-rule="evenodd" fill-opacity="1" stroke="#000000" stroke-opacity="1" stroke-width="4"/>
<circle clip-path="url(#clip442)" cx="2094.91" cy="782.563" r="14" fill="#009af9" fill-rule="evenodd" fill-opacity="1" stroke="#000000" stroke-opacity="1" stroke-width="4"/>
<circle clip-path="url(#clip442)" cx="2234.1" cy="399.632" r="14" fill="#009af9" fill-rule="evenodd" fill-opacity="1" stroke="#000000" stroke-opacity="1" stroke-width="4"/>
<circle clip-path="url(#clip442)" cx="2373.29" cy="155.352" r="14" fill="#009af9" fill-rule="evenodd" fill-opacity="1" stroke="#000000" stroke-opacity="1" stroke-width="4"/>
<circle clip-path="url(#clip442)" cx="2512.48" cy="109.44" r="14" fill="#009af9" fill-rule="evenodd" fill-opacity="1" stroke="#000000" stroke-opacity="1" stroke-width="4"/>
<circle clip-path="url(#clip442)" cx="2651.67" cy="273.084" r="14" fill="#009af9" fill-rule="evenodd" fill-opacity="1" stroke="#000000" stroke-opacity="1" stroke-width="4"/>
<circle clip-path="url(#clip442)" cx="2790.86" cy="606.216" r="14" fill="#009af9" fill-rule="evenodd" fill-opacity="1" stroke="#000000" stroke-opacity="1" stroke-width="4"/>
<circle clip-path="url(#clip442)" cx="2930.05" cy="1027.32" r="14" fill="#009af9" fill-rule="evenodd" fill-opacity="1" stroke="#000000" stroke-opacity="1" stroke-width="4"/>
<circle clip-path="url(#clip442)" cx="3069.24" cy="1433.39" r="14" fill="#009af9" fill-rule="evenodd" fill-opacity="1" stroke="#000000" stroke-opacity="1" stroke-width="4"/>
<circle clip-path="url(#clip442)" cx="285.45" cy="99.245" r="14" fill="#e26f46" fill-rule="evenodd" fill-opacity="1" stroke="#000000" stroke-opacity="1" stroke-width="4"/>
<circle clip-path="url(#clip442)" cx="424.639" cy="205.356" r="14" fill="#e26f46" fill-rule="evenodd" fill-opacity="1" stroke="#000000" stroke-opacity="1" stroke-width="4"/>
<circle clip-path="url(#clip442)" cx="563.829" cy="497.532" r="14" fill="#e26f46" fill-rule="evenodd" fill-opacity="1" stroke="#000000" stroke-opacity="1" stroke-width="4"/>
<circle clip-path="url(#clip442)" cx="703.019" cy="904.272" r="14" fill="#e26f46" fill-rule="evenodd" fill-opacity="1" stroke="#000000" stroke-opacity="1" stroke-width="4"/>
<circle clip-path="url(#clip442)" cx="842.208" cy="1326.07" r="14" fill="#e26f46" fill-rule="evenodd" fill-opacity="1" stroke="#000000" stroke-opacity="1" stroke-width="4"/>
<circle clip-path="url(#clip442)" cx="981.398" cy="1659.76" r="14" fill="#e26f46" fill-rule="evenodd" fill-opacity="1" stroke="#000000" stroke-opacity="1" stroke-width="4"/>
<circle clip-path="url(#clip442)" cx="1120.59" cy="1823.75" r="14" fill="#e26f46" fill-rule="evenodd" fill-opacity="1" stroke="#000000" stroke-opacity="1" stroke-width="4"/>
<circle clip-path="url(#clip442)" cx="1259.78" cy="1777.96" r="14" fill="#e26f46" fill-rule="evenodd" fill-opacity="1" stroke="#000000" stroke-opacity="1" stroke-width="4"/>
<circle clip-path="url(#clip442)" cx="1398.97" cy="1533.64" r="14" fill="#e26f46" fill-rule="evenodd" fill-opacity="1" stroke="#000000" stroke-opacity="1" stroke-width="4"/>
<circle clip-path="url(#clip442)" cx="1538.16" cy="1150.58" r="14" fill="#e26f46" fill-rule="evenodd" fill-opacity="1" stroke="#000000" stroke-opacity="1" stroke-width="4"/>
<circle clip-path="url(#clip442)" cx="1677.35" cy="722.506" r="14" fill="#e26f46" fill-rule="evenodd" fill-opacity="1" stroke="#000000" stroke-opacity="1" stroke-width="4"/>
<circle clip-path="url(#clip442)" cx="1816.54" cy="354.122" r="14" fill="#e26f46" fill-rule="evenodd" fill-opacity="1" stroke="#000000" stroke-opacity="1" stroke-width="4"/>
<circle clip-path="url(#clip442)" cx="1955.73" cy="135.518" r="14" fill="#e26f46" fill-rule="evenodd" fill-opacity="1" stroke="#000000" stroke-opacity="1" stroke-width="4"/>
<circle clip-path="url(#clip442)" cx="2094.91" cy="120.127" r="14" fill="#e26f46" fill-rule="evenodd" fill-opacity="1" stroke="#000000" stroke-opacity="1" stroke-width="4"/>
<circle clip-path="url(#clip442)" cx="2234.1" cy="311.673" r="14" fill="#e26f46" fill-rule="evenodd" fill-opacity="1" stroke="#000000" stroke-opacity="1" stroke-width="4"/>
<circle clip-path="url(#clip442)" cx="2373.29" cy="663.262" r="14" fill="#e26f46" fill-rule="evenodd" fill-opacity="1" stroke="#000000" stroke-opacity="1" stroke-width="4"/>
<circle clip-path="url(#clip442)" cx="2512.48" cy="1088.87" r="14" fill="#e26f46" fill-rule="evenodd" fill-opacity="1" stroke="#000000" stroke-opacity="1" stroke-width="4"/>
<circle clip-path="url(#clip442)" cx="2651.67" cy="1484.38" r="14" fill="#e26f46" fill-rule="evenodd" fill-opacity="1" stroke="#000000" stroke-opacity="1" stroke-width="4"/>
<circle clip-path="url(#clip442)" cx="2790.86" cy="1753.07" r="14" fill="#e26f46" fill-rule="evenodd" fill-opacity="1" stroke="#000000" stroke-opacity="1" stroke-width="4"/>
<circle clip-path="url(#clip442)" cx="2930.05" cy="1829.25" r="14" fill="#e26f46" fill-rule="evenodd" fill-opacity="1" stroke="#000000" stroke-opacity="1" stroke-width="4"/>
<circle clip-path="url(#clip442)" cx="3069.24" cy="1694.33" r="14" fill="#e26f46" fill-rule="evenodd" fill-opacity="1" stroke="#000000" stroke-opacity="1" stroke-width="4"/>
<polyline clip-path="url(#clip442)" style="stroke:#3da44d; stroke-linecap:butt; stroke-linejoin:round; stroke-width:16; stroke-opacity:1; fill:none" points="
  285.45,99.245 292.246,99.5033 299.043,100.278 305.839,101.569 312.636,103.376 344.058,118.387 375.479,144.189 406.901,180.452 438.323,226.716 469.744,282.39 
  501.166,346.768 532.588,419.029 564.01,498.253 639.542,710.973 715.075,942.368 778.937,1140.06 842.799,1328.64 877.485,1423.71 912.171,1511.68 946.857,1591.19 
  981.543,1661.02 1013.52,1715.86 1045.5,1760.83 1077.47,1795.32 1109.45,1818.89 1143.74,1831.66 1178.02,1831.33 1212.3,1817.89 1246.58,1791.55 1286.3,1745.44 
  1326.03,1683.48 1365.75,1606.95 1405.47,1517.4 1476.06,1331.88 1546.66,1122.97 1608.57,931.051 1670.48,740.861 1737.97,546.458 1805.47,376.61 1839.42,303.668 
  1873.37,240.567 1907.31,188.245 1941.26,147.478 1978.8,116.579 2016.33,101.102 2053.87,101.329 2091.4,117.256 2127.11,146.723 2162.83,189.659 2198.54,245.358 
  2234.25,312.904 2271.39,394.505 2308.52,486.263 2345.65,586.548 2382.79,693.578 2445.3,883.692 2507.82,1077.95 2584.15,1306.55 2660.47,1509.72 2696.35,1592.02 
  2732.22,1663.93 2768.09,1724.27 2803.97,1772.04 2832.71,1800.69 2861.44,1820.46 2890.18,1831.14 2918.92,1832.61 2947.65,1824.85 2976.39,1807.95 3005.13,1782.09 
  3033.86,1747.54 3042.71,1735.21 3051.55,1722.11 3060.4,1708.24 3069.24,1693.63 
  "/>
<polyline clip-path="url(#clip442)" style="stroke:#c271d2; stroke-linecap:butt; stroke-linejoin:round; stroke-width:16; stroke-opacity:1; fill:none" points="
  285.45,966.195 292.246,945.031 299.043,923.879 305.839,902.753 312.636,881.665 375.479,690.68 438.323,513.677 469.744,433.266 501.166,359.637 532.588,293.728 
  564.01,236.378 601.776,179.795 639.542,137.664 677.309,110.758 715.075,99.5724 747.006,102.54 778.937,116.858 810.868,142.339 842.799,178.647 877.485,229.796 
  912.171,292.364 946.857,365.379 981.543,447.71 1045.5,619.561 1109.45,809.626 1178.02,1022.26 1246.58,1231.5 1286.3,1346.17 1326.03,1453.12 1365.75,1550.17 
  1405.47,1635.35 1440.76,1699.69 1476.06,1752.24 1511.36,1792.18 1546.66,1818.85 1577.61,1830.98 1608.57,1832.43 1639.52,1823.18 1670.48,1803.35 1704.22,1769.95 
  1737.97,1724.76 1771.72,1668.43 1805.47,1601.8 1839.42,1525.36 1873.37,1440.61 1907.31,1348.81 1941.26,1251.33 2016.33,1022.92 2091.4,790.399 2162.83,580.716 
  2234.25,396.271 2271.39,314.449 2308.52,244.206 2345.65,186.791 2382.79,143.223 2414.04,117.859 2445.3,103.18 2476.56,99.3699 2507.82,106.478 2545.98,129.817 
  2584.15,168.849 2622.31,222.843 2660.47,290.785 2696.35,366.236 2732.22,451.636 2768.09,545.57 2803.97,646.48 2918.92,996.719 3033.86,1341.83 3051.55,1390.69 
  3069.24,1437.83 
  "/>
<path clip-path="url(#clip440)" d="
M2645.31 497.29 L3054.4 497.29 L3054.4 108.49 L2645.31 108.49  Z
  " fill="#ffffff" fill-rule="evenodd" fill-opacity="1"/>
<polyline clip-path="url(#clip440)" style="stroke:#000000; stroke-linecap:butt; stroke-linejoin:round; stroke-width:4; stroke-opacity:1; fill:none" points="
  2645.31,497.29 3054.4,497.29 3054.4,108.49 2645.31,108.49 2645.31,497.29 
  "/>
<circle clip-path="url(#clip440)" cx="2776.46" cy="186.25" r="34" fill="#009af9" fill-rule="evenodd" fill-opacity="1" stroke="#000000" stroke-opacity="1" stroke-width="9.6"/>
<path clip-path="url(#clip440)" d="M2928.37 215.781 Q2925.66 222.725 2923.09 224.843 Q2920.52 226.961 2916.22 226.961 L2911.11 226.961 L2911.11 221.614 L2914.86 221.614 Q2917.5 221.614 2918.96 220.364 Q2920.42 219.114 2922.19 214.461 L2923.34 211.545 L2907.61 173.281 L2914.38 173.281 L2926.53 203.697 L2938.68 173.281 L2945.45 173.281 L2928.37 215.781 Z" fill="#000000" fill-rule="evenodd" fill-opacity="1" /><path clip-path="url(#clip440)" d="M2956.39 206.267 L2967.85 206.267 L2967.85 166.718 L2955.38 169.218 L2955.38 162.83 L2967.78 160.33 L2974.79 160.33 L2974.79 206.267 L2986.25 206.267 L2986.25 212.17 L2956.39 212.17 L2956.39 206.267 Z" fill="#000000" fill-rule="evenodd" fill-opacity="1" /><circle clip-path="url(#clip440)" cx="2776.46" cy="264.01" r="34" fill="#e26f46" fill-rule="evenodd" fill-opacity="1" stroke="#000000" stroke-opacity="1" stroke-width="9.6"/>
<path clip-path="url(#clip440)" d="M2928.37 293.541 Q2925.66 300.485 2923.09 302.603 Q2920.52 304.721 2916.22 304.721 L2911.11 304.721 L2911.11 299.374 L2914.86 299.374 Q2917.5 299.374 2918.96 298.124 Q2920.42 296.874 2922.19 292.221 L2923.34 289.305 L2907.61 251.041 L2914.38 251.041 L2926.53 281.457 L2938.68 251.041 L2945.45 251.041 L2928.37 293.541 Z" fill="#000000" fill-rule="evenodd" fill-opacity="1" /><path clip-path="url(#clip440)" d="M2961.22 284.027 L2985.7 284.027 L2985.7 289.93 L2952.78 289.93 L2952.78 284.027 Q2956.77 279.895 2963.65 272.95 Q2970.56 265.971 2972.33 263.957 Q2975.7 260.173 2977.02 257.569 Q2978.37 254.93 2978.37 252.395 Q2978.37 248.263 2975.45 245.659 Q2972.57 243.055 2967.92 243.055 Q2964.62 243.055 2960.94 244.201 Q2957.29 245.346 2953.13 247.673 L2953.13 240.59 Q2957.36 238.888 2961.04 238.02 Q2964.72 237.152 2967.78 237.152 Q2975.84 237.152 2980.63 241.18 Q2985.42 245.208 2985.42 251.944 Q2985.42 255.138 2984.2 258.02 Q2983.02 260.867 2979.86 264.756 Q2979 265.763 2974.34 270.589 Q2969.69 275.381 2961.22 284.027 Z" fill="#000000" fill-rule="evenodd" fill-opacity="1" /><polyline clip-path="url(#clip440)" style="stroke:#3da44d; stroke-linecap:butt; stroke-linejoin:round; stroke-width:6; stroke-opacity:1; fill:none" points="
  2678.1,341.77 2874.82,341.77 
  "/>
<path clip-path="url(#clip440)" d="M2928.37 371.301 Q2925.66 378.245 2923.09 380.363 Q2920.52 382.481 2916.22 382.481 L2911.11 382.481 L2911.11 377.134 L2914.86 377.134 Q2917.5 377.134 2918.96 375.884 Q2920.42 374.634 2922.19 369.981 L2923.34 367.065 L2907.61 328.801 L2914.38 328.801 L2926.53 359.217 L2938.68 328.801 L2945.45 328.801 L2928.37 371.301 Z" fill="#000000" fill-rule="evenodd" fill-opacity="1" /><path clip-path="url(#clip440)" d="M2976.43 339.738 Q2981.46 340.815 2984.27 344.217 Q2987.12 347.62 2987.12 352.62 Q2987.12 360.294 2981.84 364.495 Q2976.56 368.696 2966.84 368.696 Q2963.58 368.696 2960.11 368.037 Q2956.67 367.412 2952.99 366.127 L2952.99 359.356 Q2955.9 361.058 2959.38 361.926 Q2962.85 362.794 2966.63 362.794 Q2973.23 362.794 2976.67 360.19 Q2980.14 357.585 2980.14 352.62 Q2980.14 348.037 2976.91 345.467 Q2973.72 342.863 2967.99 342.863 L2961.95 342.863 L2961.95 337.099 L2968.27 337.099 Q2973.44 337.099 2976.18 335.051 Q2978.93 332.968 2978.93 329.079 Q2978.93 325.086 2976.08 322.968 Q2973.27 320.815 2967.99 320.815 Q2965.11 320.815 2961.81 321.44 Q2958.51 322.065 2954.55 323.384 L2954.55 317.134 Q2958.54 316.023 2962.02 315.468 Q2965.52 314.912 2968.61 314.912 Q2976.6 314.912 2981.25 318.558 Q2985.9 322.169 2985.9 328.349 Q2985.9 332.655 2983.44 335.641 Q2980.97 338.592 2976.43 339.738 Z" fill="#000000" fill-rule="evenodd" fill-opacity="1" /><polyline clip-path="url(#clip440)" style="stroke:#c271d2; stroke-linecap:butt; stroke-linejoin:round; stroke-width:6; stroke-opacity:1; fill:none" points="
  2678.1,419.53 2874.82,419.53 
  "/>
<path clip-path="url(#clip440)" d="M2928.37 449.061 Q2925.66 456.005 2923.09 458.123 Q2920.52 460.241 2916.22 460.241 L2911.11 460.241 L2911.11 454.894 L2914.86 454.894 Q2917.5 454.894 2918.96 453.644 Q2920.42 452.394 2922.19 447.741 L2923.34 444.825 L2907.61 406.561 L2914.38 406.561 L2926.53 436.977 L2938.68 406.561 L2945.45 406.561 L2928.37 449.061 Z" fill="#000000" fill-rule="evenodd" fill-opacity="1" /><path clip-path="url(#clip440)" d="M2974.45 399.721 L2956.74 427.394 L2974.45 427.394 L2974.45 399.721 M2972.61 393.61 L2981.43 393.61 L2981.43 427.394 L2988.82 427.394 L2988.82 433.227 L2981.43 433.227 L2981.43 445.45 L2974.45 445.45 L2974.45 433.227 L2951.04 433.227 L2951.04 426.457 L2972.61 393.61 Z" fill="#000000" fill-rule="evenodd" fill-opacity="1" /></svg>
