<?xml version="1.0" encoding="utf-8"?>
<svg xmlns="http://www.w3.org/2000/svg" xmlns:xlink="http://www.w3.org/1999/xlink" width="600" height="400" viewBox="0 0 2400 1600">
<defs>
  <clipPath id="clip620">
    <rect x="0" y="0" width="2400" height="1600"/>
  </clipPath>
</defs>
<path clip-path="url(#clip620)" d="
M0 1600 L2400 1600 L2400 0 L0 0  Z
  " fill="#ffffff" fill-rule="evenodd" fill-opacity="1"/>
<defs>
  <clipPath id="clip621">
    <rect x="480" y="0" width="1681" height="1600"/>
  </clipPath>
</defs>
<path clip-path="url(#clip620)" d="
M252.764 1410.9 L2352.76 1410.9 L2352.76 47.2441 L252.764 47.2441  Z
  " fill="#ffffff" fill-rule="evenodd" fill-opacity="1"/>
<defs>
  <clipPath id="clip622">
    <rect x="252" y="47" width="2101" height="1365"/>
  </clipPath>
</defs>
<polyline clip-path="url(#clip622)" style="stroke:#000000; stroke-linecap:butt; stroke-linejoin:round; stroke-width:2; stroke-opacity:0.1; fill:none" points="
  648.034,1410.9 648.034,47.2441 
  "/>
<polyline clip-path="url(#clip622)" style="stroke:#000000; stroke-linecap:butt; stroke-linejoin:round; stroke-width:2; stroke-opacity:0.1; fill:none" points="
  1470.68,1410.9 1470.68,47.2441 
  "/>
<polyline clip-path="url(#clip622)" style="stroke:#000000; stroke-linecap:butt; stroke-linejoin:round; stroke-width:2; stroke-opacity:0.1; fill:none" points="
  2293.32,1410.9 2293.32,47.2441 
  "/>
<polyline clip-path="url(#clip620)" style="stroke:#000000; stroke-linecap:butt; stroke-linejoin:round; stroke-width:4; stroke-opacity:1; fill:none" points="
  252.764,1410.9 2352.76,1410.9 
  "/>
<polyline clip-path="url(#clip620)" style="stroke:#000000; stroke-linecap:butt; stroke-linejoin:round; stroke-width:4; stroke-opacity:1; fill:none" points="
  648.034,1410.9 648.034,1392 
  "/>
<polyline clip-path="url(#clip620)" style="stroke:#000000; stroke-linecap:butt; stroke-linejoin:round; stroke-width:4; stroke-opacity:1; fill:none" points="
  1470.68,1410.9 1470.68,1392 
  "/>
<polyline clip-path="url(#clip620)" style="stroke:#000000; stroke-linecap:butt; stroke-linejoin:round; stroke-width:4; stroke-opacity:1; fill:none" points="
  2293.32,1410.9 2293.32,1392 
  "/>
<path clip-path="url(#clip620)" d="M598.3 1485.02 L605.938 1485.02 L605.938 1458.66 L597.628 1460.32 L597.628 1456.06 L605.892 1454.4 L610.568 1454.4 L610.568 1485.02 L618.207 1485.02 L618.207 1488.96 L598.3 1488.96 L598.3 1485.02 Z" fill="#000000" fill-rule="evenodd" fill-opacity="1" /><path clip-path="url(#clip620)" d="M637.651 1457.48 Q634.04 1457.48 632.211 1461.04 Q630.406 1464.58 630.406 1471.71 Q630.406 1478.82 632.211 1482.38 Q634.04 1485.92 637.651 1485.92 Q641.286 1485.92 643.091 1482.38 Q644.92 1478.82 644.92 1471.71 Q644.92 1464.58 643.091 1461.04 Q641.286 1457.48 637.651 1457.48 M637.651 1453.77 Q643.461 1453.77 646.517 1458.38 Q649.596 1462.96 649.596 1471.71 Q649.596 1480.44 646.517 1485.04 Q643.461 1489.63 637.651 1489.63 Q631.841 1489.63 628.762 1485.04 Q625.707 1480.44 625.707 1471.71 Q625.707 1462.96 628.762 1458.38 Q631.841 1453.77 637.651 1453.77 Z" fill="#000000" fill-rule="evenodd" fill-opacity="1" /><path clip-path="url(#clip620)" d="M649.596 1447.87 L673.707 1447.87 L673.707 1451.07 L649.596 1451.07 L649.596 1447.87 Z" fill="#000000" fill-rule="evenodd" fill-opacity="1" /><path clip-path="url(#clip620)" d="M685.18 1458.35 L698.439 1458.35 L698.439 1461.55 L680.61 1461.55 L680.61 1458.35 Q682.773 1456.11 686.497 1452.35 Q690.239 1448.57 691.198 1447.48 Q693.023 1445.43 693.738 1444.02 Q694.471 1442.59 694.471 1441.22 Q694.471 1438.98 692.891 1437.57 Q691.33 1436.16 688.81 1436.16 Q687.023 1436.16 685.03 1436.78 Q683.055 1437.4 680.798 1438.66 L680.798 1434.82 Q683.092 1433.9 685.086 1433.43 Q687.08 1432.96 688.735 1432.96 Q693.098 1432.96 695.694 1435.14 Q698.289 1437.32 698.289 1440.97 Q698.289 1442.7 697.631 1444.26 Q696.991 1445.8 695.28 1447.91 Q694.81 1448.46 692.289 1451.07 Q689.769 1453.67 685.18 1458.35 Z" fill="#000000" fill-rule="evenodd" fill-opacity="1" /><path clip-path="url(#clip620)" d="M1420.79 1485.02 L1428.43 1485.02 L1428.43 1458.66 L1420.12 1460.32 L1420.12 1456.06 L1428.39 1454.4 L1433.06 1454.4 L1433.06 1485.02 L1440.7 1485.02 L1440.7 1488.96 L1420.79 1488.96 L1420.79 1485.02 Z" fill="#000000" fill-rule="evenodd" fill-opacity="1" /><path clip-path="url(#clip620)" d="M1460.14 1457.48 Q1456.53 1457.48 1454.71 1461.04 Q1452.9 1464.58 1452.9 1471.71 Q1452.9 1478.82 1454.71 1482.38 Q1456.53 1485.92 1460.14 1485.92 Q1463.78 1485.92 1465.58 1482.38 Q1467.41 1478.82 1467.41 1471.71 Q1467.41 1464.58 1465.58 1461.04 Q1463.78 1457.48 1460.14 1457.48 M1460.14 1453.77 Q1465.96 1453.77 1469.01 1458.38 Q1472.09 1462.96 1472.09 1471.71 Q1472.09 1480.44 1469.01 1485.04 Q1465.96 1489.63 1460.14 1489.63 Q1454.33 1489.63 1451.26 1485.04 Q1448.2 1480.44 1448.2 1471.71 Q1448.2 1462.96 1451.26 1458.38 Q1454.33 1453.77 1460.14 1453.77 Z" fill="#000000" fill-rule="evenodd" fill-opacity="1" /><path clip-path="url(#clip620)" d="M1472.09 1447.87 L1496.2 1447.87 L1496.2 1451.07 L1472.09 1451.07 L1472.09 1447.87 Z" fill="#000000" fill-rule="evenodd" fill-opacity="1" /><path clip-path="url(#clip620)" d="M1505.06 1458.35 L1511.27 1458.35 L1511.27 1436.93 L1504.51 1438.28 L1504.51 1434.82 L1511.23 1433.47 L1515.03 1433.47 L1515.03 1458.35 L1521.23 1458.35 L1521.23 1461.55 L1505.06 1461.55 L1505.06 1458.35 Z" fill="#000000" fill-rule="evenodd" fill-opacity="1" /><path clip-path="url(#clip620)" d="M2258.3 1485.02 L2265.94 1485.02 L2265.94 1458.66 L2257.63 1460.32 L2257.63 1456.06 L2265.9 1454.4 L2270.57 1454.4 L2270.57 1485.02 L2278.21 1485.02 L2278.21 1488.96 L2258.3 1488.96 L2258.3 1485.02 Z" fill="#000000" fill-rule="evenodd" fill-opacity="1" /><path clip-path="url(#clip620)" d="M2297.66 1457.48 Q2294.05 1457.48 2292.22 1461.04 Q2290.41 1464.58 2290.41 1471.71 Q2290.41 1478.82 2292.22 1482.38 Q2294.05 1485.92 2297.66 1485.92 Q2301.29 1485.92 2303.1 1482.38 Q2304.93 1478.82 2304.93 1471.71 Q2304.93 1464.58 2303.1 1461.04 Q2301.29 1457.48 2297.66 1457.48 M2297.66 1453.77 Q2303.47 1453.77 2306.52 1458.38 Q2309.6 1462.96 2309.6 1471.71 Q2309.6 1480.44 2306.52 1485.04 Q2303.47 1489.63 2297.66 1489.63 Q2291.85 1489.63 2288.77 1485.04 Q2285.71 1480.44 2285.71 1471.71 Q2285.71 1462.96 2288.77 1458.38 Q2291.85 1453.77 2297.66 1453.77 Z" fill="#000000" fill-rule="evenodd" fill-opacity="1" /><path clip-path="url(#clip620)" d="M2319.31 1435.97 Q2316.37 1435.97 2314.89 1438.86 Q2313.42 1441.74 2313.42 1447.53 Q2313.42 1453.31 2314.89 1456.2 Q2316.37 1459.08 2319.31 1459.08 Q2322.26 1459.08 2323.73 1456.2 Q2325.21 1453.31 2325.21 1447.53 Q2325.21 1441.74 2323.73 1438.86 Q2322.26 1435.97 2319.31 1435.97 M2319.31 1432.96 Q2324.03 1432.96 2326.51 1436.7 Q2329.01 1440.43 2329.01 1447.53 Q2329.01 1454.62 2326.51 1458.37 Q2324.03 1462.09 2319.31 1462.09 Q2314.59 1462.09 2312.08 1458.37 Q2309.6 1454.62 2309.6 1447.53 Q2309.6 1440.43 2312.08 1436.7 Q2314.59 1432.96 2319.31 1432.96 Z" fill="#000000" fill-rule="evenodd" fill-opacity="1" /><path clip-path="url(#clip620)" d="M1317.69 1552.67 L1317.69 1574.19 L1311.83 1574.19 L1311.83 1552.86 Q1311.83 1547.8 1309.86 1545.29 Q1307.88 1542.77 1303.94 1542.77 Q1299.2 1542.77 1296.46 1545.79 Q1293.72 1548.82 1293.72 1554.04 L1293.72 1574.19 L1287.83 1574.19 L1287.83 1524.66 L1293.72 1524.66 L1293.72 1544.08 Q1295.82 1540.86 1298.65 1539.27 Q1301.52 1537.68 1305.24 1537.68 Q1311.39 1537.68 1314.54 1541.5 Q1317.69 1545.29 1317.69 1552.67 Z" fill="#000000" fill-rule="evenodd" fill-opacity="1" /><polyline clip-path="url(#clip622)" style="stroke:#000000; stroke-linecap:butt; stroke-linejoin:round; stroke-width:2; stroke-opacity:0.1; fill:none" points="
  252.764,1285.66 2352.76,1285.66 
  "/>
<polyline clip-path="url(#clip622)" style="stroke:#000000; stroke-linecap:butt; stroke-linejoin:round; stroke-width:2; stroke-opacity:0.1; fill:none" points="
  252.764,1097.11 2352.76,1097.11 
  "/>
<polyline clip-path="url(#clip622)" style="stroke:#000000; stroke-linecap:butt; stroke-linejoin:round; stroke-width:2; stroke-opacity:0.1; fill:none" points="
  252.764,908.558 2352.76,908.558 
  "/>
<polyline clip-path="url(#clip622)" style="stroke:#000000; stroke-linecap:butt; stroke-linejoin:round; stroke-width:2; stroke-opacity:0.1; fill:none" points="
  252.764,720.009 2352.76,720.009 
  "/>
<polyline clip-path="url(#clip622)" style="stroke:#000000; stroke-linecap:butt; stroke-linejoin:round; stroke-width:2; stroke-opacity:0.1; fill:none" points="
  252.764,531.46 2352.76,531.46 
  "/>
<polyline clip-path="url(#clip622)" style="stroke:#000000; stroke-linecap:butt; stroke-linejoin:round; stroke-width:2; stroke-opacity:0.1; fill:none" points="
  252.764,342.911 2352.76,342.911 
  "/>
<polyline clip-path="url(#clip622)" style="stroke:#000000; stroke-linecap:butt; stroke-linejoin:round; stroke-width:2; stroke-opacity:0.1; fill:none" points="
  252.764,154.363 2352.76,154.363 
  "/>
<polyline clip-path="url(#clip620)" style="stroke:#000000; stroke-linecap:butt; stroke-linejoin:round; stroke-width:4; stroke-opacity:1; fill:none" points="
  252.764,1410.9 252.764,47.2441 
  "/>
<polyline clip-path="url(#clip620)" style="stroke:#000000; stroke-linecap:butt; stroke-linejoin:round; stroke-width:4; stroke-opacity:1; fill:none" points="
  252.764,1285.66 271.662,1285.66 
  "/>
<polyline clip-path="url(#clip620)" style="stroke:#000000; stroke-linecap:butt; stroke-linejoin:round; stroke-width:4; stroke-opacity:1; fill:none" points="
  252.764,1097.11 271.662,1097.11 
  "/>
<polyline clip-path="url(#clip620)" style="stroke:#000000; stroke-linecap:butt; stroke-linejoin:round; stroke-width:4; stroke-opacity:1; fill:none" points="
  252.764,908.558 271.662,908.558 
  "/>
<polyline clip-path="url(#clip620)" style="stroke:#000000; stroke-linecap:butt; stroke-linejoin:round; stroke-width:4; stroke-opacity:1; fill:none" points="
  252.764,720.009 271.662,720.009 
  "/>
<polyline clip-path="url(#clip620)" style="stroke:#000000; stroke-linecap:butt; stroke-linejoin:round; stroke-width:4; stroke-opacity:1; fill:none" points="
  252.764,531.46 271.662,531.46 
  "/>
<polyline clip-path="url(#clip620)" style="stroke:#000000; stroke-linecap:butt; stroke-linejoin:round; stroke-width:4; stroke-opacity:1; fill:none" points="
  252.764,342.911 271.662,342.911 
  "/>
<polyline clip-path="url(#clip620)" style="stroke:#000000; stroke-linecap:butt; stroke-linejoin:round; stroke-width:4; stroke-opacity:1; fill:none" points="
  252.764,154.363 271.662,154.363 
  "/>
<path clip-path="url(#clip620)" d="M115.195 1305.45 L122.834 1305.45 L122.834 1279.08 L114.523 1280.75 L114.523 1276.49 L122.787 1274.82 L127.463 1274.82 L127.463 1305.45 L135.102 1305.45 L135.102 1309.38 L115.195 1309.38 L115.195 1305.45 Z" fill="#000000" fill-rule="evenodd" fill-opacity="1" /><path clip-path="url(#clip620)" d="M154.546 1277.9 Q150.935 1277.9 149.107 1281.47 Q147.301 1285.01 147.301 1292.14 Q147.301 1299.24 149.107 1302.81 Q150.935 1306.35 154.546 1306.35 Q158.181 1306.35 159.986 1302.81 Q161.815 1299.24 161.815 1292.14 Q161.815 1285.01 159.986 1281.47 Q158.181 1277.9 154.546 1277.9 M154.546 1274.2 Q160.357 1274.2 163.412 1278.8 Q166.491 1283.39 166.491 1292.14 Q166.491 1300.86 163.412 1305.47 Q160.357 1310.05 154.546 1310.05 Q148.736 1310.05 145.658 1305.47 Q142.602 1300.86 142.602 1292.14 Q142.602 1283.39 145.658 1278.8 Q148.736 1274.2 154.546 1274.2 Z" fill="#000000" fill-rule="evenodd" fill-opacity="1" /><path clip-path="url(#clip620)" d="M166.491 1268.3 L190.602 1268.3 L190.602 1271.5 L166.491 1271.5 L166.491 1268.3 Z" fill="#000000" fill-rule="evenodd" fill-opacity="1" /><path clip-path="url(#clip620)" d="M207.398 1266.42 Q204.84 1266.42 203.335 1268.17 Q201.849 1269.92 201.849 1272.96 Q201.849 1275.99 203.335 1277.76 Q204.84 1279.51 207.398 1279.51 Q209.956 1279.51 211.441 1277.76 Q212.946 1275.99 212.946 1272.96 Q212.946 1269.92 211.441 1268.17 Q209.956 1266.42 207.398 1266.42 M214.94 1254.51 L214.94 1257.97 Q213.51 1257.3 212.043 1256.94 Q210.595 1256.58 209.166 1256.58 Q205.404 1256.58 203.41 1259.12 Q201.436 1261.66 201.153 1266.8 Q202.263 1265.16 203.937 1264.29 Q205.611 1263.41 207.623 1263.41 Q211.855 1263.41 214.3 1265.99 Q216.764 1268.54 216.764 1272.96 Q216.764 1277.29 214.206 1279.9 Q211.648 1282.52 207.398 1282.52 Q202.526 1282.52 199.95 1278.79 Q197.373 1275.05 197.373 1267.96 Q197.373 1261.3 200.533 1257.35 Q203.693 1253.39 209.015 1253.39 Q210.445 1253.39 211.893 1253.67 Q213.36 1253.95 214.94 1254.51 Z" fill="#000000" fill-rule="evenodd" fill-opacity="1" /><path clip-path="url(#clip620)" d="M116.135 1116.9 L123.774 1116.9 L123.774 1090.53 L115.464 1092.2 L115.464 1087.94 L123.728 1086.27 L128.404 1086.27 L128.404 1116.9 L136.042 1116.9 L136.042 1120.83 L116.135 1120.83 L116.135 1116.9 Z" fill="#000000" fill-rule="evenodd" fill-opacity="1" /><path clip-path="url(#clip620)" d="M155.487 1089.35 Q151.876 1089.35 150.047 1092.92 Q148.241 1096.46 148.241 1103.59 Q148.241 1110.7 150.047 1114.26 Q151.876 1117.8 155.487 1117.8 Q159.121 1117.8 160.927 1114.26 Q162.755 1110.7 162.755 1103.59 Q162.755 1096.46 160.927 1092.92 Q159.121 1089.35 155.487 1089.35 M155.487 1085.65 Q161.297 1085.65 164.352 1090.26 Q167.431 1094.84 167.431 1103.59 Q167.431 1112.32 164.352 1116.92 Q161.297 1121.51 155.487 1121.51 Q149.677 1121.51 146.598 1116.92 Q143.542 1112.32 143.542 1103.59 Q143.542 1094.84 146.598 1090.26 Q149.677 1085.65 155.487 1085.65 Z" fill="#000000" fill-rule="evenodd" fill-opacity="1" /><path clip-path="url(#clip620)" d="M167.431 1079.75 L191.543 1079.75 L191.543 1082.95 L167.431 1082.95 L167.431 1079.75 Z" fill="#000000" fill-rule="evenodd" fill-opacity="1" /><path clip-path="url(#clip620)" d="M199.781 1065.34 L214.695 1065.34 L214.695 1068.54 L203.26 1068.54 L203.26 1075.43 Q204.088 1075.14 204.915 1075.01 Q205.743 1074.86 206.57 1074.86 Q211.272 1074.86 214.018 1077.44 Q216.764 1080.01 216.764 1084.42 Q216.764 1088.95 213.943 1091.47 Q211.122 1093.97 205.987 1093.97 Q204.219 1093.97 202.376 1093.67 Q200.552 1093.37 198.596 1092.77 L198.596 1088.95 Q200.288 1089.87 202.094 1090.32 Q203.899 1090.77 205.912 1090.77 Q209.166 1090.77 211.065 1089.06 Q212.965 1087.35 212.965 1084.42 Q212.965 1081.48 211.065 1079.77 Q209.166 1078.06 205.912 1078.06 Q204.388 1078.06 202.865 1078.4 Q201.36 1078.74 199.781 1079.45 L199.781 1065.34 Z" fill="#000000" fill-rule="evenodd" fill-opacity="1" /><path clip-path="url(#clip620)" d="M114.931 928.35 L122.57 928.35 L122.57 901.985 L114.26 903.652 L114.26 899.392 L122.524 897.726 L127.2 897.726 L127.2 928.35 L134.839 928.35 L134.839 932.286 L114.931 932.286 L114.931 928.35 Z" fill="#000000" fill-rule="evenodd" fill-opacity="1" /><path clip-path="url(#clip620)" d="M154.283 900.804 Q150.672 900.804 148.843 904.369 Q147.038 907.911 147.038 915.04 Q147.038 922.147 148.843 925.712 Q150.672 929.253 154.283 929.253 Q157.917 929.253 159.723 925.712 Q161.552 922.147 161.552 915.04 Q161.552 907.911 159.723 904.369 Q157.917 900.804 154.283 900.804 M154.283 897.101 Q160.093 897.101 163.149 901.707 Q166.227 906.29 166.227 915.04 Q166.227 923.767 163.149 928.374 Q160.093 932.957 154.283 932.957 Q148.473 932.957 145.394 928.374 Q142.339 923.767 142.339 915.04 Q142.339 906.29 145.394 901.707 Q148.473 897.101 154.283 897.101 Z" fill="#000000" fill-rule="evenodd" fill-opacity="1" /><path clip-path="url(#clip620)" d="M166.227 891.202 L190.339 891.202 L190.339 894.399 L166.227 894.399 L166.227 891.202 Z" fill="#000000" fill-rule="evenodd" fill-opacity="1" /><path clip-path="url(#clip620)" d="M208.978 880.105 L199.386 895.095 L208.978 895.095 L208.978 880.105 M207.981 876.795 L212.758 876.795 L212.758 895.095 L216.764 895.095 L216.764 898.255 L212.758 898.255 L212.758 904.875 L208.978 904.875 L208.978 898.255 L196.301 898.255 L196.301 894.587 L207.981 876.795 Z" fill="#000000" fill-rule="evenodd" fill-opacity="1" /><path clip-path="url(#clip620)" d="M115.853 739.802 L123.492 739.802 L123.492 713.436 L115.182 715.103 L115.182 710.843 L123.446 709.177 L128.121 709.177 L128.121 739.802 L135.76 739.802 L135.76 743.737 L115.853 743.737 L115.853 739.802 Z" fill="#000000" fill-rule="evenodd" fill-opacity="1" /><path clip-path="url(#clip620)" d="M155.205 712.255 Q151.594 712.255 149.765 715.82 Q147.959 719.362 147.959 726.492 Q147.959 733.598 149.765 737.163 Q151.594 740.704 155.205 740.704 Q158.839 740.704 160.644 737.163 Q162.473 733.598 162.473 726.492 Q162.473 719.362 160.644 715.82 Q158.839 712.255 155.205 712.255 M155.205 708.552 Q161.015 708.552 164.07 713.158 Q167.149 717.742 167.149 726.492 Q167.149 735.218 164.07 739.825 Q161.015 744.408 155.205 744.408 Q149.395 744.408 146.316 739.825 Q143.26 735.218 143.26 726.492 Q143.26 717.742 146.316 713.158 Q149.395 708.552 155.205 708.552 Z" fill="#000000" fill-rule="evenodd" fill-opacity="1" /><path clip-path="url(#clip620)" d="M167.149 702.653 L191.261 702.653 L191.261 705.85 L167.149 705.85 L167.149 702.653 Z" fill="#000000" fill-rule="evenodd" fill-opacity="1" /><path clip-path="url(#clip620)" d="M210.971 701.186 Q213.698 701.769 215.222 703.612 Q216.764 705.456 216.764 708.164 Q216.764 712.32 213.905 714.596 Q211.046 716.872 205.78 716.872 Q204.012 716.872 202.132 716.514 Q200.27 716.176 198.276 715.48 L198.276 711.813 Q199.856 712.734 201.737 713.204 Q203.617 713.675 205.667 713.675 Q209.241 713.675 211.103 712.264 Q212.984 710.853 212.984 708.164 Q212.984 705.681 211.234 704.289 Q209.504 702.879 206.401 702.879 L203.128 702.879 L203.128 699.757 L206.551 699.757 Q209.354 699.757 210.84 698.647 Q212.325 697.519 212.325 695.412 Q212.325 693.249 210.783 692.102 Q209.26 690.936 206.401 690.936 Q204.84 690.936 203.053 691.274 Q201.266 691.613 199.122 692.328 L199.122 688.942 Q201.285 688.34 203.166 688.04 Q205.066 687.739 206.739 687.739 Q211.065 687.739 213.585 689.713 Q216.106 691.669 216.106 695.017 Q216.106 697.349 214.77 698.967 Q213.435 700.565 210.971 701.186 Z" fill="#000000" fill-rule="evenodd" fill-opacity="1" /><path clip-path="url(#clip620)" d="M116.624 551.253 L124.263 551.253 L124.263 524.887 L115.953 526.554 L115.953 522.295 L124.217 520.628 L128.893 520.628 L128.893 551.253 L136.531 551.253 L136.531 555.188 L116.624 555.188 L116.624 551.253 Z" fill="#000000" fill-rule="evenodd" fill-opacity="1" /><path clip-path="url(#clip620)" d="M155.976 523.707 Q152.365 523.707 150.536 527.271 Q148.73 530.813 148.73 537.943 Q148.73 545.049 150.536 548.614 Q152.365 552.156 155.976 552.156 Q159.61 552.156 161.416 548.614 Q163.244 545.049 163.244 537.943 Q163.244 530.813 161.416 527.271 Q159.61 523.707 155.976 523.707 M155.976 520.003 Q161.786 520.003 164.841 524.609 Q167.92 529.193 167.92 537.943 Q167.92 546.669 164.841 551.276 Q161.786 555.859 155.976 555.859 Q150.166 555.859 147.087 551.276 Q144.031 546.669 144.031 537.943 Q144.031 529.193 147.087 524.609 Q150.166 520.003 155.976 520.003 Z" fill="#000000" fill-rule="evenodd" fill-opacity="1" /><path clip-path="url(#clip620)" d="M167.92 514.104 L192.032 514.104 L192.032 517.302 L167.92 517.302 L167.92 514.104 Z" fill="#000000" fill-rule="evenodd" fill-opacity="1" /><path clip-path="url(#clip620)" d="M203.504 524.58 L216.764 524.58 L216.764 527.778 L198.934 527.778 L198.934 524.58 Q201.097 522.342 204.821 518.581 Q208.564 514.8 209.523 513.709 Q211.347 511.659 212.062 510.249 Q212.796 508.819 212.796 507.446 Q212.796 505.208 211.216 503.798 Q209.655 502.387 207.134 502.387 Q205.348 502.387 203.354 503.008 Q201.379 503.628 199.122 504.888 L199.122 501.052 Q201.417 500.13 203.41 499.66 Q205.404 499.19 207.059 499.19 Q211.423 499.19 214.018 501.371 Q216.613 503.553 216.613 507.202 Q216.613 508.932 215.955 510.493 Q215.316 512.035 213.604 514.142 Q213.134 514.687 210.614 517.302 Q208.094 519.897 203.504 524.58 Z" fill="#000000" fill-rule="evenodd" fill-opacity="1" /><path clip-path="url(#clip620)" d="M116.323 362.704 L123.962 362.704 L123.962 336.338 L115.652 338.005 L115.652 333.746 L123.916 332.079 L128.592 332.079 L128.592 362.704 L136.231 362.704 L136.231 366.639 L116.323 366.639 L116.323 362.704 Z" fill="#000000" fill-rule="evenodd" fill-opacity="1" /><path clip-path="url(#clip620)" d="M155.675 335.158 Q152.064 335.158 150.235 338.723 Q148.43 342.264 148.43 349.394 Q148.43 356.5 150.235 360.065 Q152.064 363.607 155.675 363.607 Q159.309 363.607 161.115 360.065 Q162.943 356.5 162.943 349.394 Q162.943 342.264 161.115 338.723 Q159.309 335.158 155.675 335.158 M155.675 331.454 Q161.485 331.454 164.541 336.061 Q167.619 340.644 167.619 349.394 Q167.619 358.121 164.541 362.727 Q161.485 367.31 155.675 367.31 Q149.865 367.31 146.786 362.727 Q143.73 358.121 143.73 349.394 Q143.73 340.644 146.786 336.061 Q149.865 331.454 155.675 331.454 Z" fill="#000000" fill-rule="evenodd" fill-opacity="1" /><path clip-path="url(#clip620)" d="M167.619 325.555 L191.731 325.555 L191.731 328.753 L167.619 328.753 L167.619 325.555 Z" fill="#000000" fill-rule="evenodd" fill-opacity="1" /><path clip-path="url(#clip620)" d="M200.589 336.031 L206.796 336.031 L206.796 314.609 L200.044 315.963 L200.044 312.503 L206.758 311.149 L210.557 311.149 L210.557 336.031 L216.764 336.031 L216.764 339.229 L200.589 339.229 L200.589 336.031 Z" fill="#000000" fill-rule="evenodd" fill-opacity="1" /><path clip-path="url(#clip620)" d="M146.058 174.155 L153.697 174.155 L153.697 147.789 L145.387 149.456 L145.387 145.197 L153.651 143.53 L158.327 143.53 L158.327 174.155 L165.966 174.155 L165.966 178.09 L146.058 178.09 L146.058 174.155 Z" fill="#000000" fill-rule="evenodd" fill-opacity="1" /><path clip-path="url(#clip620)" d="M185.41 146.609 Q181.799 146.609 179.97 150.174 Q178.165 153.715 178.165 160.845 Q178.165 167.951 179.97 171.516 Q181.799 175.058 185.41 175.058 Q189.044 175.058 190.85 171.516 Q192.678 167.951 192.678 160.845 Q192.678 153.715 190.85 150.174 Q189.044 146.609 185.41 146.609 M185.41 142.905 Q191.22 142.905 194.276 147.512 Q197.354 152.095 197.354 160.845 Q197.354 169.572 194.276 174.178 Q191.22 178.761 185.41 178.761 Q179.6 178.761 176.521 174.178 Q173.466 169.572 173.466 160.845 Q173.466 152.095 176.521 147.512 Q179.6 142.905 185.41 142.905 Z" fill="#000000" fill-rule="evenodd" fill-opacity="1" /><path clip-path="url(#clip620)" d="M207.059 125.101 Q204.125 125.101 202.639 127.998 Q201.172 130.875 201.172 136.668 Q201.172 142.442 202.639 145.338 Q204.125 148.216 207.059 148.216 Q210.012 148.216 211.479 145.338 Q212.965 142.442 212.965 136.668 Q212.965 130.875 211.479 127.998 Q210.012 125.101 207.059 125.101 M207.059 122.092 Q211.78 122.092 214.263 125.835 Q216.764 129.559 216.764 136.668 Q216.764 143.759 214.263 147.501 Q211.78 151.225 207.059 151.225 Q202.338 151.225 199.837 147.501 Q197.354 143.759 197.354 136.668 Q197.354 129.559 199.837 125.835 Q202.338 122.092 207.059 122.092 Z" fill="#000000" fill-rule="evenodd" fill-opacity="1" /><path clip-path="url(#clip620)" d="M44.7161 773.137 L47.5806 773.137 L47.5806 800.064 Q53.6281 799.682 56.8109 796.435 Q59.9619 793.157 59.9619 787.332 Q59.9619 783.959 59.1344 780.808 Q58.3069 777.625 56.6518 774.506 L62.1899 774.506 Q63.5267 777.657 64.227 780.967 Q64.9272 784.277 64.9272 787.683 Q64.9272 796.213 59.9619 801.21 Q54.9967 806.175 46.5303 806.175 Q37.7774 806.175 32.6531 801.464 Q27.4968 796.722 27.4968 788.701 Q27.4968 781.508 32.1438 777.338 Q36.7589 773.137 44.7161 773.137 M42.9973 778.993 Q38.1912 779.057 35.3266 781.699 Q32.4621 784.309 32.4621 788.637 Q32.4621 793.539 35.2312 796.499 Q38.0002 799.427 43.0292 799.873 L42.9973 778.993 Z" fill="#000000" fill-rule="evenodd" fill-opacity="1" /><path clip-path="url(#clip620)" d="M33.8307 742.868 Q33.2578 743.855 33.0032 745.032 Q32.7167 746.178 32.7167 747.579 Q32.7167 752.544 35.9632 755.218 Q39.1779 757.859 45.2253 757.859 L64.0042 757.859 L64.0042 763.748 L28.3562 763.748 L28.3562 757.859 L33.8944 757.859 Q30.6479 756.013 29.0883 753.053 Q27.4968 750.093 27.4968 745.86 Q27.4968 745.255 27.5923 744.523 Q27.656 743.791 27.8151 742.9 L33.8307 742.868 Z" fill="#000000" fill-rule="evenodd" fill-opacity="1" /><path clip-path="url(#clip620)" d="M33.8307 717.214 Q33.2578 718.201 33.0032 719.379 Q32.7167 720.524 32.7167 721.925 Q32.7167 726.89 35.9632 729.564 Q39.1779 732.205 45.2253 732.205 L64.0042 732.205 L64.0042 738.094 L28.3562 738.094 L28.3562 732.205 L33.8944 732.205 Q30.6479 730.359 29.0883 727.399 Q27.4968 724.439 27.4968 720.206 Q27.4968 719.601 27.5923 718.869 Q27.656 718.137 27.8151 717.246 L33.8307 717.214 Z" fill="#000000" fill-rule="evenodd" fill-opacity="1" /><path clip-path="url(#clip620)" d="M32.4621 698.69 Q32.4621 703.401 36.1542 706.138 Q39.8145 708.875 46.212 708.875 Q52.6095 708.875 56.3017 706.17 Q59.9619 703.432 59.9619 698.69 Q59.9619 694.011 56.2698 691.274 Q52.5777 688.537 46.212 688.537 Q39.8781 688.537 36.186 691.274 Q32.4621 694.011 32.4621 698.69 M27.4968 698.69 Q27.4968 691.051 32.4621 686.691 Q37.4273 682.33 46.212 682.33 Q54.9649 682.33 59.9619 686.691 Q64.9272 691.051 64.9272 698.69 Q64.9272 706.361 59.9619 710.721 Q54.9649 715.05 46.212 715.05 Q37.4273 715.05 32.4621 710.721 Q27.4968 706.361 27.4968 698.69 Z" fill="#000000" fill-rule="evenodd" fill-opacity="1" /><path clip-path="url(#clip620)" d="M33.8307 651.966 Q33.2578 652.952 33.0032 654.13 Q32.7167 655.276 32.7167 656.676 Q32.7167 661.642 35.9632 664.315 Q39.1779 666.957 45.2253 666.957 L64.0042 666.957 L64.0042 672.845 L28.3562 672.845 L28.3562 666.957 L33.8944 666.957 Q30.6479 665.111 29.0883 662.151 Q27.4968 659.191 27.4968 654.958 Q27.4968 654.353 27.5923 653.621 Q27.656 652.889 27.8151 651.998 L33.8307 651.966 Z" fill="#000000" fill-rule="evenodd" fill-opacity="1" /><circle clip-path="url(#clip622)" cx="2293.32" cy="85.838" r="14" fill="#009af9" fill-rule="evenodd" fill-opacity="1" stroke="#000000" stroke-opacity="1" stroke-width="3.2"/>
<circle clip-path="url(#clip622)" cx="2045.68" cy="212.573" r="14" fill="#009af9" fill-rule="evenodd" fill-opacity="1" stroke="#000000" stroke-opacity="1" stroke-width="3.2"/>
<circle clip-path="url(#clip622)" cx="1798.04" cy="336.427" r="14" fill="#009af9" fill-rule="evenodd" fill-opacity="1" stroke="#000000" stroke-opacity="1" stroke-width="3.2"/>
<circle clip-path="url(#clip622)" cx="1550.4" cy="455.144" r="14" fill="#009af9" fill-rule="evenodd" fill-opacity="1" stroke="#000000" stroke-opacity="1" stroke-width="3.2"/>
<circle clip-path="url(#clip622)" cx="1302.76" cy="571.243" r="14" fill="#009af9" fill-rule="evenodd" fill-opacity="1" stroke="#000000" stroke-opacity="1" stroke-width="3.2"/>
<circle clip-path="url(#clip622)" cx="1055.12" cy="686.046" r="14" fill="#009af9" fill-rule="evenodd" fill-opacity="1" stroke="#000000" stroke-opacity="1" stroke-width="3.2"/>
<circle clip-path="url(#clip622)" cx="807.479" cy="800.205" r="14" fill="#009af9" fill-rule="evenodd" fill-opacity="1" stroke="#000000" stroke-opacity="1" stroke-width="3.2"/>
<circle clip-path="url(#clip622)" cx="559.838" cy="914.043" r="14" fill="#009af9" fill-rule="evenodd" fill-opacity="1" stroke="#000000" stroke-opacity="1" stroke-width="3.2"/>
<circle clip-path="url(#clip622)" cx="312.198" cy="1027.72" r="14" fill="#009af9" fill-rule="evenodd" fill-opacity="1" stroke="#000000" stroke-opacity="1" stroke-width="3.2"/>
<circle clip-path="url(#clip622)" cx="2293.32" cy="368.813" r="14" fill="#e26f46" fill-rule="evenodd" fill-opacity="1" stroke="#000000" stroke-opacity="1" stroke-width="3.2"/>
<circle clip-path="url(#clip622)" cx="2045.68" cy="557.332" r="14" fill="#e26f46" fill-rule="evenodd" fill-opacity="1" stroke="#000000" stroke-opacity="1" stroke-width="3.2"/>
<circle clip-path="url(#clip622)" cx="1798.04" cy="681.093" r="14" fill="#e26f46" fill-rule="evenodd" fill-opacity="1" stroke="#000000" stroke-opacity="1" stroke-width="3.2"/>
<circle clip-path="url(#clip622)" cx="1550.4" cy="799.746" r="14" fill="#e26f46" fill-rule="evenodd" fill-opacity="1" stroke="#000000" stroke-opacity="1" stroke-width="3.2"/>
<circle clip-path="url(#clip622)" cx="1302.76" cy="915.83" r="14" fill="#e26f46" fill-rule="evenodd" fill-opacity="1" stroke="#000000" stroke-opacity="1" stroke-width="3.2"/>
<circle clip-path="url(#clip622)" cx="1055.12" cy="1030.63" r="14" fill="#e26f46" fill-rule="evenodd" fill-opacity="1" stroke="#000000" stroke-opacity="1" stroke-width="3.2"/>
<circle clip-path="url(#clip622)" cx="807.479" cy="1144.79" r="14" fill="#e26f46" fill-rule="evenodd" fill-opacity="1" stroke="#000000" stroke-opacity="1" stroke-width="3.2"/>
<circle clip-path="url(#clip622)" cx="559.838" cy="1258.63" r="14" fill="#e26f46" fill-rule="evenodd" fill-opacity="1" stroke="#000000" stroke-opacity="1" stroke-width="3.2"/>
<circle clip-path="url(#clip622)" cx="312.198" cy="1372.3" r="14" fill="#e26f46" fill-rule="evenodd" fill-opacity="1" stroke="#000000" stroke-opacity="1" stroke-width="3.2"/>
<polyline clip-path="url(#clip622)" style="stroke:#3da44d; stroke-linecap:butt; stroke-linejoin:round; stroke-width:16; stroke-opacity:1; fill:none" points="
  2293.32,154.363 2045.68,211.121 1798.04,267.88 1550.4,324.639 1302.76,381.398 1055.12,438.157 807.479,494.916 559.838,551.675 312.198,608.434 
  "/>
<polyline clip-path="url(#clip622)" style="stroke:#c271d2; stroke-linecap:butt; stroke-linejoin:round; stroke-width:16; stroke-opacity:1; fill:none" points="
  2293.32,154.363 2045.68,267.88 1798.04,381.398 1550.4,494.916 1302.76,608.434 1055.12,721.951 807.479,835.469 559.838,948.987 312.198,1062.5 
  "/>
<path clip-path="url(#clip620)" d="
M1789.77 1365.44 L2282.76 1365.44 L2282.76 976.642 L1789.77 976.642  Z
  " fill="#ffffff" fill-rule="evenodd" fill-opacity="1"/>
<polyline clip-path="url(#clip620)" style="stroke:#000000; stroke-linecap:butt; stroke-linejoin:round; stroke-width:4; stroke-opacity:1; fill:none" points="
  1789.77,1365.44 2282.76,1365.44 2282.76,976.642 1789.77,976.642 1789.77,1365.44 
  "/>
<circle clip-path="url(#clip620)" cx="1883.11" cy="1054.4" r="34" fill="#009af9" fill-rule="evenodd" fill-opacity="1" stroke="#000000" stroke-opacity="1" stroke-width="7.68"/>
<path clip-path="url(#clip620)" d="M2001.2 1026.29 L2001.2 1031.61 L1995.08 1031.61 Q1991.65 1031.61 1990.29 1033 Q1988.97 1034.38 1988.97 1038 L1988.97 1041.43 L1999.49 1041.43 L1999.49 1046.4 L1988.97 1046.4 L1988.97 1080.32 L1982.55 1080.32 L1982.55 1046.4 L1976.44 1046.4 L1976.44 1041.43 L1982.55 1041.43 L1982.55 1038.72 Q1982.55 1032.23 1985.57 1029.28 Q1988.59 1026.29 1995.15 1026.29 L2001.2 1026.29 Z" fill="#000000" fill-rule="evenodd" fill-opacity="1" /><path clip-path="url(#clip620)" d="M2036.09 1092.13 L2036.09 1097.09 L1999.15 1097.09 L1999.15 1092.13 L2036.09 1092.13 Z" fill="#000000" fill-rule="evenodd" fill-opacity="1" /><path clip-path="url(#clip620)" d="M2075.36 1059.28 L2075.36 1062.4 L2045.99 1062.4 Q2046.4 1069 2049.94 1072.47 Q2053.52 1075.91 2059.88 1075.91 Q2063.56 1075.91 2066.99 1075.01 Q2070.47 1074.11 2073.87 1072.3 L2073.87 1078.34 Q2070.43 1079.8 2066.82 1080.56 Q2063.21 1081.33 2059.49 1081.33 Q2050.19 1081.33 2044.74 1075.91 Q2039.32 1070.5 2039.32 1061.26 Q2039.32 1051.71 2044.46 1046.12 Q2049.63 1040.5 2058.38 1040.5 Q2066.23 1040.5 2070.78 1045.56 Q2075.36 1050.6 2075.36 1059.28 M2068.97 1057.41 Q2068.9 1052.16 2066.02 1049.04 Q2063.17 1045.91 2058.45 1045.91 Q2053.1 1045.91 2049.88 1048.93 Q2046.68 1051.95 2046.19 1057.44 L2068.97 1057.41 Z" fill="#000000" fill-rule="evenodd" fill-opacity="1" /><path clip-path="url(#clip620)" d="M2116.92 1041.43 L2102.86 1060.36 L2117.65 1080.32 L2110.12 1080.32 L2098.8 1065.04 L2087.48 1080.32 L2079.94 1080.32 L2095.05 1059.97 L2081.23 1041.43 L2088.76 1041.43 L2099.08 1055.29 L2109.39 1041.43 L2116.92 1041.43 Z" fill="#000000" fill-rule="evenodd" fill-opacity="1" /><path clip-path="url(#clip620)" d="M2132.86 1074.49 L2132.86 1095.11 L2126.44 1095.11 L2126.44 1041.43 L2132.86 1041.43 L2132.86 1047.34 Q2134.87 1043.86 2137.93 1042.2 Q2141.02 1040.5 2145.29 1040.5 Q2152.37 1040.5 2156.78 1046.12 Q2161.23 1051.75 2161.23 1060.91 Q2161.23 1070.08 2156.78 1075.7 Q2152.37 1081.33 2145.29 1081.33 Q2141.02 1081.33 2137.93 1079.66 Q2134.87 1077.96 2132.86 1074.49 M2154.6 1060.91 Q2154.6 1053.86 2151.68 1049.87 Q2148.8 1045.84 2143.73 1045.84 Q2138.66 1045.84 2135.74 1049.87 Q2132.86 1053.86 2132.86 1060.91 Q2132.86 1067.96 2135.74 1071.99 Q2138.66 1075.98 2143.73 1075.98 Q2148.8 1075.98 2151.68 1071.99 Q2154.6 1067.96 2154.6 1060.91 Z" fill="#000000" fill-rule="evenodd" fill-opacity="1" /><path clip-path="url(#clip620)" d="M2204.15 1041.43 L2190.08 1060.36 L2204.87 1080.32 L2197.34 1080.32 L2186.02 1065.04 L2174.7 1080.32 L2167.17 1080.32 L2182.27 1059.97 L2168.45 1041.43 L2175.99 1041.43 L2186.3 1055.29 L2196.61 1041.43 L2204.15 1041.43 Z" fill="#000000" fill-rule="evenodd" fill-opacity="1" /><circle clip-path="url(#clip620)" cx="1883.11" cy="1132.16" r="34" fill="#e26f46" fill-rule="evenodd" fill-opacity="1" stroke="#000000" stroke-opacity="1" stroke-width="7.68"/>
<path clip-path="url(#clip620)" d="M2001.2 1104.05 L2001.2 1109.37 L1995.08 1109.37 Q1991.65 1109.37 1990.29 1110.76 Q1988.97 1112.14 1988.97 1115.76 L1988.97 1119.19 L1999.49 1119.19 L1999.49 1124.16 L1988.97 1124.16 L1988.97 1158.08 L1982.55 1158.08 L1982.55 1124.16 L1976.44 1124.16 L1976.44 1119.19 L1982.55 1119.19 L1982.55 1116.48 Q1982.55 1109.99 1985.57 1107.04 Q1988.59 1104.05 1995.15 1104.05 L2001.2 1104.05 Z" fill="#000000" fill-rule="evenodd" fill-opacity="1" /><path clip-path="url(#clip620)" d="M2036.09 1169.89 L2036.09 1174.85 L1999.15 1174.85 L1999.15 1169.89 L2036.09 1169.89 Z" fill="#000000" fill-rule="evenodd" fill-opacity="1" /><path clip-path="url(#clip620)" d="M2067.69 1125.1 L2067.69 1104.05 L2074.08 1104.05 L2074.08 1158.08 L2067.69 1158.08 L2067.69 1152.25 Q2065.67 1155.72 2062.58 1157.42 Q2059.53 1159.09 2055.22 1159.09 Q2048.17 1159.09 2043.73 1153.46 Q2039.32 1147.84 2039.32 1138.67 Q2039.32 1129.51 2043.73 1123.88 Q2048.17 1118.26 2055.22 1118.26 Q2059.53 1118.26 2062.58 1119.96 Q2065.67 1121.62 2067.69 1125.1 M2045.92 1138.67 Q2045.92 1145.72 2048.8 1149.75 Q2051.72 1153.74 2056.79 1153.74 Q2061.85 1153.74 2064.77 1149.75 Q2067.69 1145.72 2067.69 1138.67 Q2067.69 1131.62 2064.77 1127.63 Q2061.85 1123.6 2056.79 1123.6 Q2051.72 1123.6 2048.8 1127.63 Q2045.92 1131.62 2045.92 1138.67 Z" fill="#000000" fill-rule="evenodd" fill-opacity="1" /><path clip-path="url(#clip620)" d="M2093.56 1108.15 L2093.56 1119.19 L2106.72 1119.19 L2106.72 1124.16 L2093.56 1124.16 L2093.56 1145.27 Q2093.56 1150.03 2094.84 1151.38 Q2096.16 1152.73 2100.15 1152.73 L2106.72 1152.73 L2106.72 1158.08 L2100.15 1158.08 Q2092.76 1158.08 2089.94 1155.34 Q2087.13 1152.56 2087.13 1145.27 L2087.13 1124.16 L2082.44 1124.16 L2082.44 1119.19 L2087.13 1119.19 L2087.13 1108.15 L2093.56 1108.15 Z" fill="#000000" fill-rule="evenodd" fill-opacity="1" /><path clip-path="url(#clip620)" d="M2132.79 1138.53 Q2125.05 1138.53 2122.06 1140.3 Q2119.08 1142.07 2119.08 1146.35 Q2119.08 1149.75 2121.3 1151.76 Q2123.56 1153.74 2127.41 1153.74 Q2132.72 1153.74 2135.92 1149.99 Q2139.15 1146.21 2139.15 1139.96 L2139.15 1138.53 L2132.79 1138.53 M2145.53 1135.89 L2145.53 1158.08 L2139.15 1158.08 L2139.15 1152.18 Q2136.96 1155.72 2133.69 1157.42 Q2130.43 1159.09 2125.71 1159.09 Q2119.74 1159.09 2116.19 1155.76 Q2112.69 1152.39 2112.69 1146.76 Q2112.69 1140.2 2117.06 1136.87 Q2121.47 1133.53 2130.19 1133.53 L2139.15 1133.53 L2139.15 1132.91 Q2139.15 1128.5 2136.23 1126.1 Q2133.35 1123.67 2128.1 1123.67 Q2124.77 1123.67 2121.61 1124.47 Q2118.45 1125.27 2115.53 1126.87 L2115.53 1120.96 Q2119.04 1119.61 2122.34 1118.95 Q2125.64 1118.26 2128.76 1118.26 Q2137.2 1118.26 2141.37 1122.63 Q2145.53 1127.01 2145.53 1135.89 Z" fill="#000000" fill-rule="evenodd" fill-opacity="1" /><path clip-path="url(#clip620)" d="M2191.02 1134.61 L2191.02 1158.08 L2184.63 1158.08 L2184.63 1134.82 Q2184.63 1129.3 2182.48 1126.55 Q2180.33 1123.81 2176.02 1123.81 Q2170.85 1123.81 2167.86 1127.11 Q2164.87 1130.41 2164.87 1136.1 L2164.87 1158.08 L2158.45 1158.08 L2158.45 1119.19 L2164.87 1119.19 L2164.87 1125.23 Q2167.17 1121.73 2170.26 1119.99 Q2173.38 1118.26 2177.44 1118.26 Q2184.15 1118.26 2187.58 1122.42 Q2191.02 1126.55 2191.02 1134.61 Z" fill="#000000" fill-rule="evenodd" fill-opacity="1" /><path clip-path="url(#clip620)" d="M2236.09 1134.61 L2236.09 1158.08 L2229.7 1158.08 L2229.7 1134.82 Q2229.7 1129.3 2227.55 1126.55 Q2225.4 1123.81 2221.09 1123.81 Q2215.92 1123.81 2212.93 1127.11 Q2209.94 1130.41 2209.94 1136.1 L2209.94 1158.08 L2203.52 1158.08 L2203.52 1104.05 L2209.94 1104.05 L2209.94 1125.23 Q2212.24 1121.73 2215.33 1119.99 Q2218.45 1118.26 2222.51 1118.26 Q2229.21 1118.26 2232.65 1122.42 Q2236.09 1126.55 2236.09 1134.61 Z" fill="#000000" fill-rule="evenodd" fill-opacity="1" /><polyline clip-path="url(#clip620)" style="stroke:#3da44d; stroke-linecap:butt; stroke-linejoin:round; stroke-width:6; stroke-opacity:1; fill:none" points="
  1813.11,1209.92 1953.11,1209.92 
  "/>
<path clip-path="url(#clip620)" d="M2011.75 1245.95 Q2011.75 1246.23 2011.43 1247.32 Q2011.12 1248.41 2010.34 1250.1 Q2009.6 1251.79 2008.59 1253.33 Q2007.57 1254.84 2005.88 1255.97 Q2004.23 1257.06 2002.33 1257.06 Q1999.8 1257.06 1998.12 1255.37 Q1996.43 1253.68 1996.43 1251.15 Q1996.43 1250.8 1996.46 1250.45 Q1996.5 1250.1 1996.53 1249.89 Q1996.57 1249.64 1996.68 1249.26 Q1996.82 1248.83 1996.85 1248.66 Q1996.92 1248.48 1997.1 1247.96 Q1997.31 1247.39 1997.38 1247.18 Q2001.84 1235.8 2001.84 1231.06 Q2001.84 1226.03 1997.94 1226.03 Q1994.46 1226.03 1991.02 1228.56 Q1989.44 1229.83 1987.93 1232.08 Q1986.42 1234.32 1986.14 1235.17 Q1985.82 1236.99 1985.36 1238.4 Q1985.15 1239.38 1984.13 1243.21 L1982.55 1249.71 L1981.18 1255.16 Q1980.9 1255.93 1980.13 1256.49 Q1979.35 1257.06 1978.51 1257.06 Q1977.81 1257.06 1977.11 1256.56 Q1976.44 1256.11 1976.44 1255.02 Q1976.44 1254.46 1976.72 1253.44 L1987.15 1211.98 L1987.36 1210.57 Q1987.36 1210.15 1987.19 1209.94 Q1987.05 1209.7 1986.21 1209.52 Q1985.4 1209.34 1983.78 1209.34 Q1983.11 1209.34 1982.8 1209.31 Q1982.52 1209.27 1982.27 1209.1 Q1982.02 1208.89 1982.02 1208.47 Q1982.02 1207.87 1982.27 1207.55 Q1982.55 1207.2 1982.76 1207.13 Q1982.97 1207.06 1983.39 1207.03 Q1983.99 1206.99 1985.99 1206.81 Q1988 1206.6 1989.72 1206.46 Q1991.44 1206.32 1992.18 1206.32 Q1992.6 1206.32 1992.81 1206.53 Q1993.06 1206.71 1993.09 1206.92 L1993.13 1207.1 L1987.51 1229.97 Q1991.97 1224.45 1998.15 1224.45 Q2002.16 1224.45 2004.3 1226.52 Q2006.44 1228.56 2006.44 1232.15 Q2006.44 1236.26 2002.05 1247.96 Q2000.75 1251.22 2000.75 1253.09 Q2000.75 1254.32 2001.14 1254.88 Q2001.56 1255.44 2002.47 1255.44 Q2003.88 1255.44 2005.11 1254.63 Q2006.37 1253.79 2007.25 1252.42 Q2008.13 1251.01 2008.73 1249.61 Q2009.36 1248.17 2009.82 1246.55 Q2010.1 1245.67 2010.24 1245.46 Q2010.41 1245.25 2010.9 1245.25 Q2011.75 1245.25 2011.75 1245.95 Z" fill="#000000" fill-rule="evenodd" fill-opacity="1" /><path clip-path="url(#clip620)" d="M2019.09 1188.01 L2019.09 1186.44 Q2025.14 1186.44 2028.26 1183.22 Q2029.12 1183.22 2029.27 1183.41 Q2029.42 1183.61 2029.42 1184.52 L2029.42 1212.78 Q2029.42 1214.28 2030.15 1214.75 Q2030.89 1215.21 2034.11 1215.21 L2035.71 1215.21 L2035.71 1216.76 Q2033.94 1216.62 2027.55 1216.62 Q2021.15 1216.62 2019.41 1216.76 L2019.41 1215.21 L2021.01 1215.21 Q2024.18 1215.21 2024.94 1214.77 Q2025.7 1214.3 2025.7 1212.78 L2025.7 1186.68 Q2023.07 1188.01 2019.09 1188.01 Z" fill="#000000" fill-rule="evenodd" fill-opacity="1" /><polyline clip-path="url(#clip620)" style="stroke:#c271d2; stroke-linecap:butt; stroke-linejoin:round; stroke-width:6; stroke-opacity:1; fill:none" points="
  1813.11,1287.68 1953.11,1287.68 
  "/>
<path clip-path="url(#clip620)" d="M2011.75 1323.71 Q2011.75 1323.99 2011.43 1325.08 Q2011.12 1326.17 2010.34 1327.86 Q2009.6 1329.55 2008.59 1331.09 Q2007.57 1332.6 2005.88 1333.73 Q2004.23 1334.82 2002.33 1334.82 Q1999.8 1334.82 1998.12 1333.13 Q1996.43 1331.44 1996.43 1328.91 Q1996.43 1328.56 1996.46 1328.21 Q1996.5 1327.86 1996.53 1327.65 Q1996.57 1327.4 1996.68 1327.02 Q1996.82 1326.59 1996.85 1326.42 Q1996.92 1326.24 1997.1 1325.72 Q1997.31 1325.15 1997.38 1324.94 Q2001.84 1313.56 2001.84 1308.82 Q2001.84 1303.79 1997.94 1303.79 Q1994.46 1303.79 1991.02 1306.32 Q1989.44 1307.59 1987.93 1309.84 Q1986.42 1312.08 1986.14 1312.93 Q1985.82 1314.75 1985.36 1316.16 Q1985.15 1317.14 1984.13 1320.97 L1982.55 1327.47 L1981.18 1332.92 Q1980.9 1333.69 1980.13 1334.25 Q1979.35 1334.82 1978.51 1334.82 Q1977.81 1334.82 1977.11 1334.32 Q1976.44 1333.87 1976.44 1332.78 Q1976.44 1332.22 1976.72 1331.2 L1987.15 1289.74 L1987.36 1288.33 Q1987.36 1287.91 1987.19 1287.7 Q1987.05 1287.46 1986.21 1287.28 Q1985.4 1287.1 1983.78 1287.1 Q1983.11 1287.1 1982.8 1287.07 Q1982.52 1287.03 1982.27 1286.86 Q1982.02 1286.65 1982.02 1286.23 Q1982.02 1285.63 1982.27 1285.31 Q1982.55 1284.96 1982.76 1284.89 Q1982.97 1284.82 1983.39 1284.79 Q1983.99 1284.75 1985.99 1284.57 Q1988 1284.36 1989.72 1284.22 Q1991.44 1284.08 1992.18 1284.08 Q1992.6 1284.08 1992.81 1284.29 Q1993.06 1284.47 1993.09 1284.68 L1993.13 1284.86 L1987.51 1307.73 Q1991.97 1302.21 1998.15 1302.21 Q2002.16 1302.21 2004.3 1304.28 Q2006.44 1306.32 2006.44 1309.91 Q2006.44 1314.02 2002.05 1325.72 Q2000.75 1328.98 2000.75 1330.85 Q2000.75 1332.08 2001.14 1332.64 Q2001.56 1333.2 2002.47 1333.2 Q2003.88 1333.2 2005.11 1332.39 Q2006.37 1331.55 2007.25 1330.18 Q2008.13 1328.77 2008.73 1327.37 Q2009.36 1325.93 2009.82 1324.31 Q2010.1 1323.43 2010.24 1323.22 Q2010.41 1323.01 2010.9 1323.01 Q2011.75 1323.01 2011.75 1323.71 Z" fill="#000000" fill-rule="evenodd" fill-opacity="1" /><path clip-path="url(#clip620)" d="M2019.09 1294.52 Q2019.09 1293.61 2019.16 1293.34 Q2019.26 1293.07 2019.65 1292.65 L2029.32 1281.88 Q2034.61 1275.93 2034.61 1270.74 Q2034.61 1267.37 2032.83 1264.96 Q2031.09 1262.55 2027.87 1262.55 Q2025.65 1262.55 2023.78 1263.9 Q2021.92 1265.26 2021.05 1267.67 Q2021.2 1267.62 2021.72 1267.62 Q2022.97 1267.62 2023.66 1268.4 Q2024.37 1269.19 2024.37 1270.25 Q2024.37 1271.6 2023.49 1272.27 Q2022.63 1272.91 2021.77 1272.91 Q2021.42 1272.91 2020.96 1272.83 Q2020.51 1272.76 2019.8 1272.07 Q2019.09 1271.36 2019.09 1270.1 Q2019.09 1266.58 2021.74 1263.78 Q2024.42 1260.98 2028.51 1260.98 Q2033.13 1260.98 2036.15 1263.73 Q2039.2 1266.46 2039.2 1270.74 Q2039.2 1272.24 2038.74 1273.62 Q2038.29 1274.97 2037.68 1276.03 Q2037.09 1277.09 2035.47 1278.78 Q2033.84 1280.48 2032.54 1281.68 Q2031.24 1282.89 2028.31 1285.45 L2022.97 1290.64 L2032.05 1290.64 Q2036.47 1290.64 2036.82 1290.24 Q2037.31 1289.53 2037.93 1285.77 L2039.2 1285.77 L2037.78 1294.52 L2019.09 1294.52 Z" fill="#000000" fill-rule="evenodd" fill-opacity="1" /></svg>
