<?xml version="1.0" encoding="utf-8"?>
<svg xmlns="http://www.w3.org/2000/svg" xmlns:xlink="http://www.w3.org/1999/xlink" width="600" height="400" viewBox="0 0 2400 1600">
<defs>
  <clipPath id="clip030">
    <rect x="0" y="0" width="2400" height="1600"/>
  </clipPath>
</defs>
<path clip-path="url(#clip030)" d="
M0 1600 L2400 1600 L2400 0 L0 0  Z
  " fill="#ffffff" fill-rule="evenodd" fill-opacity="1"/>
<defs>
  <clipPath id="clip031">
    <rect x="480" y="0" width="1681" height="1600"/>
  </clipPath>
</defs>
<defs>
  <clipPath id="clip032">
    <rect x="156" y="47" width="2198" height="1440"/>
  </clipPath>
</defs>
<path clip-path="url(#clip030)" d="
M147.108 1486.45 L2352.76 1486.45 L2352.76 47.2441 L147.108 47.2441  Z
  " fill="#ffffff" fill-rule="evenodd" fill-opacity="1"/>
<defs>
  <clipPath id="clip033">
    <rect x="147" y="47" width="2207" height="1440"/>
  </clipPath>
</defs>
<polyline clip-path="url(#clip033)" style="stroke:#000000; stroke-linecap:butt; stroke-linejoin:round; stroke-width:2; stroke-opacity:0.1; fill:none" points="
  147.108,1486.45 147.108,47.2441 
  "/>
<polyline clip-path="url(#clip033)" style="stroke:#000000; stroke-linecap:butt; stroke-linejoin:round; stroke-width:2; stroke-opacity:0.1; fill:none" points="
  698.52,1486.45 698.52,47.2441 
  "/>
<polyline clip-path="url(#clip033)" style="stroke:#000000; stroke-linecap:butt; stroke-linejoin:round; stroke-width:2; stroke-opacity:0.1; fill:none" points="
  1249.93,1486.45 1249.93,47.2441 
  "/>
<polyline clip-path="url(#clip033)" style="stroke:#000000; stroke-linecap:butt; stroke-linejoin:round; stroke-width:2; stroke-opacity:0.1; fill:none" points="
  1801.34,1486.45 1801.34,47.2441 
  "/>
<polyline clip-path="url(#clip033)" style="stroke:#000000; stroke-linecap:butt; stroke-linejoin:round; stroke-width:2; stroke-opacity:0.1; fill:none" points="
  2352.76,1486.45 2352.76,47.2441 
  "/>
<polyline clip-path="url(#clip030)" style="stroke:#000000; stroke-linecap:butt; stroke-linejoin:round; stroke-width:4; stroke-opacity:1; fill:none" points="
  147.108,1486.45 2352.76,1486.45 
  "/>
<polyline clip-path="url(#clip030)" style="stroke:#000000; stroke-linecap:butt; stroke-linejoin:round; stroke-width:4; stroke-opacity:1; fill:none" points="
  147.108,1486.45 147.108,1467.55 
  "/>
<polyline clip-path="url(#clip030)" style="stroke:#000000; stroke-linecap:butt; stroke-linejoin:round; stroke-width:4; stroke-opacity:1; fill:none" points="
  698.52,1486.45 698.52,1467.55 
  "/>
<polyline clip-path="url(#clip030)" style="stroke:#000000; stroke-linecap:butt; stroke-linejoin:round; stroke-width:4; stroke-opacity:1; fill:none" points="
  1249.93,1486.45 1249.93,1467.55 
  "/>
<polyline clip-path="url(#clip030)" style="stroke:#000000; stroke-linecap:butt; stroke-linejoin:round; stroke-width:4; stroke-opacity:1; fill:none" points="
  1801.34,1486.45 1801.34,1467.55 
  "/>
<polyline clip-path="url(#clip030)" style="stroke:#000000; stroke-linecap:butt; stroke-linejoin:round; stroke-width:4; stroke-opacity:1; fill:none" points="
  2352.76,1486.45 2352.76,1467.55 
  "/>
<path clip-path="url(#clip030)" d="M93.6356 1532.02 L123.311 1532.02 L123.311 1535.95 L93.6356 1535.95 L93.6356 1532.02 Z" fill="#000000" fill-rule="evenodd" fill-opacity="1" /><path clip-path="url(#clip030)" d="M134.214 1544.91 L141.853 1544.91 L141.853 1518.55 L133.543 1520.21 L133.543 1515.95 L141.807 1514.29 L146.483 1514.29 L146.483 1544.91 L154.121 1544.91 L154.121 1548.85 L134.214 1548.85 L134.214 1544.91 Z" fill="#000000" fill-rule="evenodd" fill-opacity="1" /><path clip-path="url(#clip030)" d="M163.566 1542.97 L168.45 1542.97 L168.45 1548.85 L163.566 1548.85 L163.566 1542.97 Z" fill="#000000" fill-rule="evenodd" fill-opacity="1" /><path clip-path="url(#clip030)" d="M188.635 1517.37 Q185.024 1517.37 183.195 1520.93 Q181.39 1524.47 181.39 1531.6 Q181.39 1538.71 183.195 1542.27 Q185.024 1545.82 188.635 1545.82 Q192.269 1545.82 194.075 1542.27 Q195.904 1538.71 195.904 1531.6 Q195.904 1524.47 194.075 1520.93 Q192.269 1517.37 188.635 1517.37 M188.635 1513.66 Q194.445 1513.66 197.501 1518.27 Q200.579 1522.85 200.579 1531.6 Q200.579 1540.33 197.501 1544.94 Q194.445 1549.52 188.635 1549.52 Q182.825 1549.52 179.746 1544.94 Q176.691 1540.33 176.691 1531.6 Q176.691 1522.85 179.746 1518.27 Q182.825 1513.66 188.635 1513.66 Z" fill="#000000" fill-rule="evenodd" fill-opacity="1" /><path clip-path="url(#clip030)" d="M645.545 1532.02 L675.221 1532.02 L675.221 1535.95 L645.545 1535.95 L645.545 1532.02 Z" fill="#000000" fill-rule="evenodd" fill-opacity="1" /><path clip-path="url(#clip030)" d="M695.314 1517.37 Q691.703 1517.37 689.874 1520.93 Q688.068 1524.47 688.068 1531.6 Q688.068 1538.71 689.874 1542.27 Q691.703 1545.82 695.314 1545.82 Q698.948 1545.82 700.753 1542.27 Q702.582 1538.71 702.582 1531.6 Q702.582 1524.47 700.753 1520.93 Q698.948 1517.37 695.314 1517.37 M695.314 1513.66 Q701.124 1513.66 704.179 1518.27 Q707.258 1522.85 707.258 1531.6 Q707.258 1540.33 704.179 1544.94 Q701.124 1549.52 695.314 1549.52 Q689.503 1549.52 686.425 1544.94 Q683.369 1540.33 683.369 1531.6 Q683.369 1522.85 686.425 1518.27 Q689.503 1513.66 695.314 1513.66 Z" fill="#000000" fill-rule="evenodd" fill-opacity="1" /><path clip-path="url(#clip030)" d="M715.476 1542.97 L720.36 1542.97 L720.36 1548.85 L715.476 1548.85 L715.476 1542.97 Z" fill="#000000" fill-rule="evenodd" fill-opacity="1" /><path clip-path="url(#clip030)" d="M730.591 1514.29 L748.948 1514.29 L748.948 1518.22 L734.874 1518.22 L734.874 1526.7 Q735.892 1526.35 736.911 1526.19 Q737.929 1526 738.948 1526 Q744.735 1526 748.114 1529.17 Q751.494 1532.34 751.494 1537.76 Q751.494 1543.34 748.022 1546.44 Q744.549 1549.52 738.23 1549.52 Q736.054 1549.52 733.786 1549.15 Q731.54 1548.78 729.133 1548.04 L729.133 1543.34 Q731.216 1544.47 733.438 1545.03 Q735.661 1545.58 738.137 1545.58 Q742.142 1545.58 744.48 1543.48 Q746.818 1541.37 746.818 1537.76 Q746.818 1534.15 744.48 1532.04 Q742.142 1529.94 738.137 1529.94 Q736.262 1529.94 734.387 1530.35 Q732.536 1530.77 730.591 1531.65 L730.591 1514.29 Z" fill="#000000" fill-rule="evenodd" fill-opacity="1" /><path clip-path="url(#clip030)" d="M1227.32 1517.37 Q1223.71 1517.37 1221.88 1520.93 Q1220.07 1524.47 1220.07 1531.6 Q1220.07 1538.71 1221.88 1542.27 Q1223.71 1545.82 1227.32 1545.82 Q1230.95 1545.82 1232.76 1542.27 Q1234.58 1538.71 1234.58 1531.6 Q1234.58 1524.47 1232.76 1520.93 Q1230.95 1517.37 1227.32 1517.37 M1227.32 1513.66 Q1233.13 1513.66 1236.18 1518.27 Q1239.26 1522.85 1239.26 1531.6 Q1239.26 1540.33 1236.18 1544.94 Q1233.13 1549.52 1227.32 1549.52 Q1221.51 1549.52 1218.43 1544.94 Q1215.37 1540.33 1215.37 1531.6 Q1215.37 1522.85 1218.43 1518.27 Q1221.51 1513.66 1227.32 1513.66 Z" fill="#000000" fill-rule="evenodd" fill-opacity="1" /><path clip-path="url(#clip030)" d="M1247.48 1542.97 L1252.36 1542.97 L1252.36 1548.85 L1247.48 1548.85 L1247.48 1542.97 Z" fill="#000000" fill-rule="evenodd" fill-opacity="1" /><path clip-path="url(#clip030)" d="M1272.55 1517.37 Q1268.94 1517.37 1267.11 1520.93 Q1265.3 1524.47 1265.3 1531.6 Q1265.3 1538.71 1267.11 1542.27 Q1268.94 1545.82 1272.55 1545.82 Q1276.18 1545.82 1277.99 1542.27 Q1279.82 1538.71 1279.82 1531.6 Q1279.82 1524.47 1277.99 1520.93 Q1276.18 1517.37 1272.55 1517.37 M1272.55 1513.66 Q1278.36 1513.66 1281.41 1518.27 Q1284.49 1522.85 1284.49 1531.6 Q1284.49 1540.33 1281.41 1544.94 Q1278.36 1549.52 1272.55 1549.52 Q1266.74 1549.52 1263.66 1544.94 Q1260.6 1540.33 1260.6 1531.6 Q1260.6 1522.85 1263.66 1518.27 Q1266.74 1513.66 1272.55 1513.66 Z" fill="#000000" fill-rule="evenodd" fill-opacity="1" /><path clip-path="url(#clip030)" d="M1779.23 1517.37 Q1775.61 1517.37 1773.79 1520.93 Q1771.98 1524.47 1771.98 1531.6 Q1771.98 1538.71 1773.79 1542.27 Q1775.61 1545.82 1779.23 1545.82 Q1782.86 1545.82 1784.67 1542.27 Q1786.49 1538.71 1786.49 1531.6 Q1786.49 1524.47 1784.67 1520.93 Q1782.86 1517.37 1779.23 1517.37 M1779.23 1513.66 Q1785.04 1513.66 1788.09 1518.27 Q1791.17 1522.85 1791.17 1531.6 Q1791.17 1540.33 1788.09 1544.94 Q1785.04 1549.52 1779.23 1549.52 Q1773.42 1549.52 1770.34 1544.94 Q1767.28 1540.33 1767.28 1531.6 Q1767.28 1522.85 1770.34 1518.27 Q1773.42 1513.66 1779.23 1513.66 Z" fill="#000000" fill-rule="evenodd" fill-opacity="1" /><path clip-path="url(#clip030)" d="M1799.39 1542.97 L1804.27 1542.97 L1804.27 1548.85 L1799.39 1548.85 L1799.39 1542.97 Z" fill="#000000" fill-rule="evenodd" fill-opacity="1" /><path clip-path="url(#clip030)" d="M1814.5 1514.29 L1832.86 1514.29 L1832.86 1518.22 L1818.79 1518.22 L1818.79 1526.7 Q1819.8 1526.35 1820.82 1526.19 Q1821.84 1526 1822.86 1526 Q1828.65 1526 1832.03 1529.17 Q1835.41 1532.34 1835.41 1537.76 Q1835.41 1543.34 1831.93 1546.44 Q1828.46 1549.52 1822.14 1549.52 Q1819.97 1549.52 1817.7 1549.15 Q1815.45 1548.78 1813.05 1548.04 L1813.05 1543.34 Q1815.13 1544.47 1817.35 1545.03 Q1819.57 1545.58 1822.05 1545.58 Q1826.05 1545.58 1828.39 1543.48 Q1830.73 1541.37 1830.73 1537.76 Q1830.73 1534.15 1828.39 1532.04 Q1826.05 1529.94 1822.05 1529.94 Q1820.17 1529.94 1818.3 1530.35 Q1816.45 1530.77 1814.5 1531.65 L1814.5 1514.29 Z" fill="#000000" fill-rule="evenodd" fill-opacity="1" /><path clip-path="url(#clip030)" d="M2319.91 1544.91 L2327.55 1544.91 L2327.55 1518.55 L2319.24 1520.21 L2319.24 1515.95 L2327.5 1514.29 L2332.18 1514.29 L2332.18 1544.91 L2339.82 1544.91 L2339.82 1548.85 L2319.91 1548.85 L2319.91 1544.91 Z" fill="#000000" fill-rule="evenodd" fill-opacity="1" /><path clip-path="url(#clip030)" d="M2349.26 1542.97 L2354.14 1542.97 L2354.14 1548.85 L2349.26 1548.85 L2349.26 1542.97 Z" fill="#000000" fill-rule="evenodd" fill-opacity="1" /><path clip-path="url(#clip030)" d="M2374.33 1517.37 Q2370.72 1517.37 2368.89 1520.93 Q2367.08 1524.47 2367.08 1531.6 Q2367.08 1538.71 2368.89 1542.27 Q2370.72 1545.82 2374.33 1545.82 Q2377.96 1545.82 2379.77 1542.27 Q2381.6 1538.71 2381.6 1531.6 Q2381.6 1524.47 2379.77 1520.93 Q2377.96 1517.37 2374.33 1517.37 M2374.33 1513.66 Q2380.14 1513.66 2383.2 1518.27 Q2386.27 1522.85 2386.27 1531.6 Q2386.27 1540.33 2383.2 1544.94 Q2380.14 1549.52 2374.33 1549.52 Q2368.52 1549.52 2365.44 1544.94 Q2362.39 1540.33 2362.39 1531.6 Q2362.39 1522.85 2365.44 1518.27 Q2368.52 1513.66 2374.33 1513.66 Z" fill="#000000" fill-rule="evenodd" fill-opacity="1" /><polyline clip-path="url(#clip033)" style="stroke:#000000; stroke-linecap:butt; stroke-linejoin:round; stroke-width:2; stroke-opacity:0.1; fill:none" points="
  147.108,1462.24 2352.76,1462.24 
  "/>
<polyline clip-path="url(#clip033)" style="stroke:#000000; stroke-linecap:butt; stroke-linejoin:round; stroke-width:2; stroke-opacity:0.1; fill:none" points="
  147.108,1121.75 2352.76,1121.75 
  "/>
<polyline clip-path="url(#clip033)" style="stroke:#000000; stroke-linecap:butt; stroke-linejoin:round; stroke-width:2; stroke-opacity:0.1; fill:none" points="
  147.108,781.258 2352.76,781.258 
  "/>
<polyline clip-path="url(#clip033)" style="stroke:#000000; stroke-linecap:butt; stroke-linejoin:round; stroke-width:2; stroke-opacity:0.1; fill:none" points="
  147.108,440.767 2352.76,440.767 
  "/>
<polyline clip-path="url(#clip033)" style="stroke:#000000; stroke-linecap:butt; stroke-linejoin:round; stroke-width:2; stroke-opacity:0.1; fill:none" points="
  147.108,100.275 2352.76,100.275 
  "/>
<polyline clip-path="url(#clip030)" style="stroke:#000000; stroke-linecap:butt; stroke-linejoin:round; stroke-width:4; stroke-opacity:1; fill:none" points="
  147.108,1486.45 147.108,47.2441 
  "/>
<polyline clip-path="url(#clip030)" style="stroke:#000000; stroke-linecap:butt; stroke-linejoin:round; stroke-width:4; stroke-opacity:1; fill:none" points="
  147.108,1462.24 166.005,1462.24 
  "/>
<polyline clip-path="url(#clip030)" style="stroke:#000000; stroke-linecap:butt; stroke-linejoin:round; stroke-width:4; stroke-opacity:1; fill:none" points="
  147.108,1121.75 166.005,1121.75 
  "/>
<polyline clip-path="url(#clip030)" style="stroke:#000000; stroke-linecap:butt; stroke-linejoin:round; stroke-width:4; stroke-opacity:1; fill:none" points="
  147.108,781.258 166.005,781.258 
  "/>
<polyline clip-path="url(#clip030)" style="stroke:#000000; stroke-linecap:butt; stroke-linejoin:round; stroke-width:4; stroke-opacity:1; fill:none" points="
  147.108,440.767 166.005,440.767 
  "/>
<polyline clip-path="url(#clip030)" style="stroke:#000000; stroke-linecap:butt; stroke-linejoin:round; stroke-width:4; stroke-opacity:1; fill:none" points="
  147.108,100.275 166.005,100.275 
  "/>
<path clip-path="url(#clip030)" d="M50.9921 1462.69 L80.6679 1462.69 L80.6679 1466.63 L50.9921 1466.63 L50.9921 1462.69 Z" fill="#000000" fill-rule="evenodd" fill-opacity="1" /><path clip-path="url(#clip030)" d="M94.7882 1475.58 L111.108 1475.58 L111.108 1479.52 L89.1632 1479.52 L89.1632 1475.58 Q91.8252 1472.83 96.4085 1468.2 Q101.015 1463.55 102.196 1462.2 Q104.441 1459.68 105.321 1457.95 Q106.223 1456.19 106.223 1454.5 Q106.223 1451.74 104.279 1450.01 Q102.358 1448.27 99.2558 1448.27 Q97.0567 1448.27 94.603 1449.03 Q92.1725 1449.8 89.3947 1451.35 L89.3947 1446.63 Q92.2188 1445.49 94.6724 1444.91 Q97.1261 1444.33 99.1632 1444.33 Q104.534 1444.33 107.728 1447.02 Q110.922 1449.7 110.922 1454.2 Q110.922 1456.33 110.112 1458.25 Q109.325 1460.14 107.219 1462.74 Q106.64 1463.41 103.538 1466.63 Q100.436 1469.82 94.7882 1475.58 Z" fill="#000000" fill-rule="evenodd" fill-opacity="1" /><path clip-path="url(#clip030)" d="M99.1632 1107.55 Q95.5521 1107.55 93.7234 1111.11 Q91.9178 1114.65 91.9178 1121.78 Q91.9178 1128.89 93.7234 1132.45 Q95.5521 1136 99.1632 1136 Q102.797 1136 104.603 1132.45 Q106.432 1128.89 106.432 1121.78 Q106.432 1114.65 104.603 1111.11 Q102.797 1107.55 99.1632 1107.55 M99.1632 1103.84 Q104.973 1103.84 108.029 1108.45 Q111.108 1113.03 111.108 1121.78 Q111.108 1130.51 108.029 1135.12 Q104.973 1139.7 99.1632 1139.7 Q93.353 1139.7 90.2743 1135.12 Q87.2188 1130.51 87.2188 1121.78 Q87.2188 1113.03 90.2743 1108.45 Q93.353 1103.84 99.1632 1103.84 Z" fill="#000000" fill-rule="evenodd" fill-opacity="1" /><path clip-path="url(#clip030)" d="M94.7882 794.602 L111.108 794.602 L111.108 798.538 L89.1632 798.538 L89.1632 794.602 Q91.8252 791.848 96.4085 787.218 Q101.015 782.565 102.196 781.223 Q104.441 778.7 105.321 776.964 Q106.223 775.204 106.223 773.514 Q106.223 770.76 104.279 769.024 Q102.358 767.288 99.2558 767.288 Q97.0567 767.288 94.603 768.052 Q92.1725 768.815 89.3947 770.366 L89.3947 765.644 Q92.2188 764.51 94.6724 763.931 Q97.1261 763.353 99.1632 763.353 Q104.534 763.353 107.728 766.038 Q110.922 768.723 110.922 773.214 Q110.922 775.343 110.112 777.264 Q109.325 779.163 107.219 781.755 Q106.64 782.426 103.538 785.644 Q100.436 788.838 94.7882 794.602 Z" fill="#000000" fill-rule="evenodd" fill-opacity="1" /><path clip-path="url(#clip030)" d="M101.524 427.561 L89.7188 446.01 L101.524 446.01 L101.524 427.561 M100.297 423.487 L106.177 423.487 L106.177 446.01 L111.108 446.01 L111.108 449.898 L106.177 449.898 L106.177 458.047 L101.524 458.047 L101.524 449.898 L85.9225 449.898 L85.9225 445.385 L100.297 423.487 Z" fill="#000000" fill-rule="evenodd" fill-opacity="1" /><path clip-path="url(#clip030)" d="M99.5798 98.4121 Q96.4317 98.4121 94.5799 100.565 Q92.7512 102.718 92.7512 106.468 Q92.7512 110.194 94.5799 112.37 Q96.4317 114.523 99.5798 114.523 Q102.728 114.523 104.557 112.37 Q106.408 110.194 106.408 106.468 Q106.408 102.718 104.557 100.565 Q102.728 98.4121 99.5798 98.4121 M108.862 83.7594 L108.862 88.0186 Q107.103 87.1853 105.297 86.7455 Q103.515 86.3057 101.756 86.3057 Q97.1261 86.3057 94.6724 89.4306 Q92.2419 92.5556 91.8947 98.875 Q93.2604 96.8612 95.3206 95.7964 Q97.3808 94.7084 99.8576 94.7084 Q105.066 94.7084 108.075 97.8797 Q111.108 101.028 111.108 106.468 Q111.108 111.792 107.959 115.009 Q104.811 118.227 99.5798 118.227 Q93.5845 118.227 90.4132 113.643 Q87.2419 109.037 87.2419 100.31 Q87.2419 92.1158 91.1308 87.2547 Q95.0197 82.3705 101.571 82.3705 Q103.33 82.3705 105.112 82.7177 Q106.918 83.0649 108.862 83.7594 Z" fill="#000000" fill-rule="evenodd" fill-opacity="1" /><circle clip-path="url(#clip033)" cx="257.39" cy="951.503" r="28" fill="#009af9" fill-rule="evenodd" fill-opacity="1" stroke="#000000" stroke-opacity="1" stroke-width="3.2"/>
<circle clip-path="url(#clip033)" cx="1360.21" cy="713.159" r="28" fill="#009af9" fill-rule="evenodd" fill-opacity="1" stroke="#000000" stroke-opacity="1" stroke-width="3.2"/>
<circle clip-path="url(#clip033)" cx="1801.34" cy="1155.8" r="28" fill="#009af9" fill-rule="evenodd" fill-opacity="1" stroke="#000000" stroke-opacity="1" stroke-width="3.2"/>
<circle clip-path="url(#clip033)" cx="2132.19" cy="900.429" r="28" fill="#009af9" fill-rule="evenodd" fill-opacity="1" stroke="#000000" stroke-opacity="1" stroke-width="3.2"/>
<polyline clip-path="url(#clip033)" style="stroke:#e26f46; stroke-linecap:butt; stroke-linejoin:round; stroke-width:16; stroke-opacity:1; fill:none" stroke-dasharray="64, 40" points="
  147.108,1445.72 192.121,1228.01 237.134,1032.49 282.147,858.251 327.16,704.393 372.174,570.012 417.187,454.209 462.2,356.08 507.213,274.724 552.227,209.239 
  597.24,158.724 642.253,122.276 687.266,98.9942 732.28,87.9763 777.293,88.3205 822.306,99.1252 867.319,119.488 912.332,148.508 957.346,185.283 1002.36,228.912 
  1047.37,278.491 1092.39,333.12 1137.4,391.897 1182.41,453.92 1227.43,518.288 1272.44,584.097 1317.45,650.447 1362.46,716.436 1407.48,781.162 1452.49,843.723 
  1497.5,903.218 1542.52,958.744 1587.53,1009.4 1632.54,1054.28 1677.56,1092.49 1722.57,1123.13 1767.58,1145.29 1812.6,1158.06 1857.61,1160.56 1902.62,1151.87 
  1947.64,1131.1 1992.65,1097.35 2037.66,1049.7 2082.68,987.267 2127.69,909.14 2172.7,814.419 2217.72,702.203 2262.73,571.59 2307.74,421.678 2352.76,251.565 
  
  "/>
<path clip-path="url(#clip030)" d="
M1851.87 328.498 L2279.23 328.498 L2279.23 95.2176 L1851.87 95.2176  Z
  " fill="#ffffff" fill-rule="evenodd" fill-opacity="1"/>
<polyline clip-path="url(#clip030)" style="stroke:#000000; stroke-linecap:butt; stroke-linejoin:round; stroke-width:4; stroke-opacity:1; fill:none" points="
  1851.87,328.498 2279.23,328.498 2279.23,95.2176 1851.87,95.2176 1851.87,328.498 
  "/>
<circle clip-path="url(#clip030)" cx="1949.9" cy="172.978" r="34" fill="#009af9" fill-rule="evenodd" fill-opacity="1" stroke="#000000" stroke-opacity="1" stroke-width="3.84"/>
<path clip-path="url(#clip030)" d="M2068.69 202.509 Q2065.99 209.453 2063.42 211.571 Q2060.85 213.689 2056.54 213.689 L2051.44 213.689 L2051.44 208.342 L2055.19 208.342 Q2057.83 208.342 2059.28 207.092 Q2060.74 205.842 2062.51 201.189 L2063.66 198.273 L2047.93 160.009 L2054.7 160.009 L2066.85 190.425 L2079.01 160.009 L2085.78 160.009 L2068.69 202.509 Z" fill="#000000" fill-rule="evenodd" fill-opacity="1" /><path clip-path="url(#clip030)" d="M2096.71 192.995 L2108.17 192.995 L2108.17 153.446 L2095.71 155.946 L2095.71 149.558 L2108.1 147.058 L2115.12 147.058 L2115.12 192.995 L2126.58 192.995 L2126.58 198.898 L2096.71 198.898 L2096.71 192.995 Z" fill="#000000" fill-rule="evenodd" fill-opacity="1" /><polyline clip-path="url(#clip030)" style="stroke:#e26f46; stroke-linecap:butt; stroke-linejoin:round; stroke-width:6; stroke-opacity:1; fill:none" stroke-dasharray="24, 15" points="
  1876.38,250.738 2023.42,250.738 
  "/>
<path clip-path="url(#clip030)" d="M2099.23 230.652 Q2099.15 231.952 2098.28 232.022 Q2096.94 232.093 2096.13 232.268 Q2095.33 232.409 2094.06 232.936 Q2092.8 233.463 2091.57 234.728 Q2090.34 235.993 2089.07 237.995 L2063.18 279.207 Q2062.72 279.98 2062.33 280.226 Q2061.98 280.507 2061.18 280.507 Q2060.44 280.507 2060.16 280.191 Q2059.88 279.91 2059.73 278.856 L2054.04 234.447 Q2053.94 233.639 2053.83 233.287 Q2053.73 232.936 2053.31 232.585 Q2052.92 232.233 2052.08 232.128 Q2051.23 232.022 2049.72 232.022 Q2049.02 232.022 2048.7 231.987 Q2048.42 231.952 2048.18 231.776 Q2047.93 231.566 2047.93 231.144 Q2047.93 230.512 2048.18 230.195 Q2048.46 229.844 2048.67 229.809 Q2048.91 229.774 2049.3 229.774 Q2049.9 229.774 2051.2 229.844 Q2052.5 229.914 2053.16 229.914 Q2053.8 229.914 2055.13 229.95 Q2056.47 229.985 2057.13 229.985 Q2058.61 229.985 2061.6 229.879 Q2064.62 229.774 2066.06 229.774 Q2067.04 229.774 2067.04 230.582 Q2067.04 231.566 2066.62 231.812 Q2066.2 232.022 2065.25 232.022 Q2062.86 232.022 2061.56 232.62 Q2060.3 233.217 2060.3 234.166 L2065.18 272.25 L2087.28 237.117 Q2088.37 235.466 2088.37 234.376 Q2088.37 232.268 2085.03 232.022 Q2083.91 232.022 2083.91 231.144 Q2083.91 230.512 2084.19 230.195 Q2084.47 229.844 2084.68 229.809 Q2084.93 229.774 2085.28 229.774 Q2086.44 229.774 2088.79 229.879 Q2091.18 229.985 2092.37 229.985 Q2093.36 229.985 2095.36 229.879 Q2097.36 229.774 2098.28 229.774 Q2099.23 229.774 2099.23 230.652 Z" fill="#000000" fill-rule="evenodd" fill-opacity="1" /><path clip-path="url(#clip030)" d="M2108.74 260.937 Q2108.74 248.781 2113.27 238.979 Q2115.2 234.868 2117.91 231.425 Q2120.61 227.982 2122.41 226.471 Q2124.2 224.961 2124.69 224.961 Q2125.39 224.961 2125.43 225.663 Q2125.43 226.015 2124.48 226.893 Q2112.89 238.698 2112.92 260.937 Q2112.92 283.247 2124.2 294.595 Q2125.43 295.825 2125.43 296.212 Q2125.43 296.914 2124.69 296.914 Q2124.2 296.914 2122.48 295.474 Q2120.76 294.033 2118.09 290.731 Q2115.41 287.428 2113.48 283.388 Q2108.74 273.586 2108.74 260.937 Z" fill="#000000" fill-rule="evenodd" fill-opacity="1" /><path clip-path="url(#clip030)" d="M2166.73 251.873 Q2166.73 253.84 2165.5 254.965 Q2164.27 256.054 2162.87 256.054 Q2161.53 256.054 2160.83 255.281 Q2160.13 254.508 2160.13 253.524 Q2160.13 252.189 2161.11 251.03 Q2162.1 249.87 2163.57 249.624 Q2162.13 248.711 2159.99 248.711 Q2158.58 248.711 2157.35 249.449 Q2156.16 250.187 2155.42 251.135 Q2154.72 252.084 2154.09 253.454 Q2153.49 254.789 2153.24 255.597 Q2153.03 256.37 2152.86 257.213 L2150.4 267.051 Q2149.2 271.723 2149.2 273.375 Q2149.2 275.412 2150.19 276.783 Q2151.17 278.118 2153.14 278.118 Q2153.91 278.118 2154.79 277.907 Q2155.67 277.661 2156.79 277.029 Q2157.95 276.361 2158.97 275.377 Q2160.02 274.358 2161.04 272.637 Q2162.06 270.915 2162.73 268.702 Q2162.94 267.929 2163.64 267.929 Q2164.52 267.929 2164.52 268.632 Q2164.52 269.229 2164.03 270.494 Q2163.57 271.723 2162.55 273.34 Q2161.57 274.921 2160.27 276.361 Q2158.97 277.766 2157.04 278.75 Q2155.1 279.734 2153 279.734 Q2149.97 279.734 2147.97 278.118 Q2145.97 276.502 2145.23 274.253 Q2145.06 274.569 2144.81 274.991 Q2144.56 275.412 2143.83 276.361 Q2143.12 277.275 2142.32 277.977 Q2141.51 278.645 2140.24 279.172 Q2139.01 279.734 2137.68 279.734 Q2135.99 279.734 2134.48 279.242 Q2133 278.75 2131.95 277.626 Q2130.9 276.502 2130.9 274.956 Q2130.9 273.234 2132.06 272.04 Q2133.25 270.81 2134.87 270.81 Q2135.89 270.81 2136.69 271.407 Q2137.54 272.005 2137.54 273.304 Q2137.54 274.745 2136.55 275.834 Q2135.57 276.923 2134.16 277.204 Q2135.6 278.118 2137.75 278.118 Q2140.07 278.118 2141.89 276.08 Q2143.72 274.042 2144.6 270.634 Q2146.78 262.448 2147.62 258.794 Q2148.46 255.105 2148.46 253.524 Q2148.46 252.049 2148.08 251.03 Q2147.69 250.011 2147.02 249.554 Q2146.39 249.062 2145.79 248.887 Q2145.23 248.711 2144.6 248.711 Q2143.54 248.711 2142.35 249.133 Q2141.19 249.554 2139.79 250.538 Q2138.42 251.486 2137.12 253.454 Q2135.82 255.421 2134.94 258.127 Q2134.76 258.935 2133.99 258.935 Q2133.15 258.9 2133.15 258.197 Q2133.15 257.6 2133.6 256.37 Q2134.09 255.105 2135.08 253.524 Q2136.1 251.943 2137.4 250.538 Q2138.73 249.097 2140.66 248.114 Q2142.63 247.13 2144.74 247.13 Q2145.69 247.13 2146.6 247.341 Q2147.55 247.516 2148.67 248.043 Q2149.83 248.57 2150.85 249.73 Q2151.87 250.889 2152.5 252.576 Q2152.93 251.768 2153.49 250.995 Q2154.09 250.222 2155 249.273 Q2155.95 248.289 2157.25 247.727 Q2158.58 247.13 2160.06 247.13 Q2161.5 247.13 2162.9 247.516 Q2164.31 247.868 2165.5 249.027 Q2166.73 250.151 2166.73 251.873 Z" fill="#000000" fill-rule="evenodd" fill-opacity="1" /><path clip-path="url(#clip030)" d="M2173.66 296.212 Q2173.66 295.86 2174.57 294.982 Q2186.17 283.177 2186.17 260.937 Q2186.17 238.628 2175.03 227.35 Q2173.66 226.05 2173.66 225.663 Q2173.66 224.961 2174.36 224.961 Q2174.86 224.961 2176.58 226.401 Q2178.33 227.842 2180.97 231.144 Q2183.64 234.447 2185.61 238.487 Q2190.35 248.289 2190.35 260.937 Q2190.35 273.094 2185.82 282.896 Q2183.88 287.007 2181.18 290.45 Q2178.47 293.893 2176.68 295.404 Q2174.89 296.914 2174.36 296.914 Q2173.66 296.914 2173.66 296.212 Z" fill="#000000" fill-rule="evenodd" fill-opacity="1" /><path clip-path="url(#clip030)" d="M2231.97 258.619 Q2231.97 263.748 2229.37 268.702 Q2226.81 273.656 2222.77 276.712 Q2218.73 279.734 2214.62 279.734 Q2212.16 279.734 2210.5 278.399 Q2208.89 277.029 2208.01 275.096 Q2207.34 277.485 2205.9 283.212 Q2204.46 288.939 2204.46 289.501 Q2204.46 289.817 2204.53 289.958 Q2204.6 290.098 2204.92 290.274 Q2205.23 290.485 2206.01 290.555 Q2206.78 290.661 2208.08 290.661 Q2208.75 290.661 2208.99 290.661 Q2209.27 290.696 2209.52 290.871 Q2209.8 291.047 2209.8 291.433 Q2209.8 292.874 2208.5 292.874 Q2207.34 292.874 2204.95 292.769 Q2202.56 292.663 2201.37 292.663 Q2200.35 292.663 2198.31 292.769 Q2196.28 292.874 2195.33 292.874 Q2194.38 292.874 2194.38 292.031 Q2194.38 291.539 2194.52 291.223 Q2194.62 290.942 2194.91 290.801 Q2195.19 290.696 2195.43 290.661 Q2195.64 290.661 2196.06 290.661 Q2197.68 290.661 2198.38 290.379 Q2199.09 290.134 2199.33 289.607 Q2199.61 289.115 2199.93 287.709 L2208.01 255.667 Q2208.5 253.524 2208.5 252.013 Q2208.5 250.116 2207.9 249.414 Q2207.31 248.711 2206.25 248.711 Q2204.43 248.711 2203.23 250.889 Q2202.04 253.067 2201.02 257.284 Q2200.7 258.443 2200.49 258.689 Q2200.32 258.935 2199.79 258.935 Q2198.91 258.9 2198.91 258.197 Q2198.91 258.021 2199.19 256.897 Q2199.47 255.738 2200 254.051 Q2200.56 252.33 2201.16 251.241 Q2201.51 250.503 2201.83 250.011 Q2202.14 249.519 2202.78 248.746 Q2203.44 247.973 2204.39 247.552 Q2205.34 247.13 2206.5 247.13 Q2208.75 247.13 2210.61 248.465 Q2212.47 249.8 2212.96 252.505 Q2214.97 250.151 2217.43 248.641 Q2219.89 247.13 2222.38 247.13 Q2226.53 247.13 2229.23 250.362 Q2231.97 253.559 2231.97 258.619 M2226.77 255.457 Q2226.77 252.259 2225.54 250.503 Q2224.35 248.711 2222.17 248.711 Q2219.46 248.711 2216.34 251.451 Q2213.25 254.051 2212.61 256.475 L2209.06 270.564 L2208.85 271.723 Q2208.85 271.934 2208.96 272.567 Q2209.1 273.164 2209.49 274.148 Q2209.91 275.131 2210.47 276.01 Q2211.07 276.853 2212.12 277.485 Q2213.21 278.118 2214.55 278.118 Q2216.69 278.118 2219.01 276.221 Q2221.36 274.323 2223.12 270.74 Q2224.21 268.421 2225.47 263.432 Q2226.77 258.408 2226.77 255.457 Z" fill="#000000" fill-rule="evenodd" fill-opacity="1" /></svg>
