<?xml version="1.0" encoding="utf-8"?>
<svg xmlns="http://www.w3.org/2000/svg" xmlns:xlink="http://www.w3.org/1999/xlink" width="600" height="400" viewBox="0 0 2400 1600">
<defs>
  <clipPath id="clip300">
    <rect x="0" y="0" width="2400" height="1600"/>
  </clipPath>
</defs>
<path clip-path="url(#clip300)" d="
M0 1600 L2400 1600 L2400 0 L0 0  Z
  " fill="#ffffff" fill-rule="evenodd" fill-opacity="1"/>
<defs>
  <clipPath id="clip301">
    <rect x="480" y="0" width="1681" height="1600"/>
  </clipPath>
</defs>
<path clip-path="url(#clip300)" d="
M186.274 1486.45 L2352.76 1486.45 L2352.76 47.2441 L186.274 47.2441  Z
  " fill="#ffffff" fill-rule="evenodd" fill-opacity="1"/>
<defs>
  <clipPath id="clip302">
    <rect x="186" y="47" width="2167" height="1440"/>
  </clipPath>
</defs>
<polyline clip-path="url(#clip302)" style="stroke:#000000; stroke-linecap:round; stroke-linejoin:round; stroke-width:2; stroke-opacity:0.1; fill:none" points="
  247.59,1486.45 247.59,47.2441 
  "/>
<polyline clip-path="url(#clip302)" style="stroke:#000000; stroke-linecap:round; stroke-linejoin:round; stroke-width:2; stroke-opacity:0.1; fill:none" points="
  758.552,1486.45 758.552,47.2441 
  "/>
<polyline clip-path="url(#clip302)" style="stroke:#000000; stroke-linecap:round; stroke-linejoin:round; stroke-width:2; stroke-opacity:0.1; fill:none" points="
  1269.51,1486.45 1269.51,47.2441 
  "/>
<polyline clip-path="url(#clip302)" style="stroke:#000000; stroke-linecap:round; stroke-linejoin:round; stroke-width:2; stroke-opacity:0.1; fill:none" points="
  1780.48,1486.45 1780.48,47.2441 
  "/>
<polyline clip-path="url(#clip302)" style="stroke:#000000; stroke-linecap:round; stroke-linejoin:round; stroke-width:2; stroke-opacity:0.1; fill:none" points="
  2291.44,1486.45 2291.44,47.2441 
  "/>
<polyline clip-path="url(#clip300)" style="stroke:#000000; stroke-linecap:round; stroke-linejoin:round; stroke-width:4; stroke-opacity:1; fill:none" points="
  186.274,1486.45 2352.76,1486.45 
  "/>
<polyline clip-path="url(#clip300)" style="stroke:#000000; stroke-linecap:round; stroke-linejoin:round; stroke-width:4; stroke-opacity:1; fill:none" points="
  247.59,1486.45 247.59,1467.55 
  "/>
<polyline clip-path="url(#clip300)" style="stroke:#000000; stroke-linecap:round; stroke-linejoin:round; stroke-width:4; stroke-opacity:1; fill:none" points="
  758.552,1486.45 758.552,1467.55 
  "/>
<polyline clip-path="url(#clip300)" style="stroke:#000000; stroke-linecap:round; stroke-linejoin:round; stroke-width:4; stroke-opacity:1; fill:none" points="
  1269.51,1486.45 1269.51,1467.55 
  "/>
<polyline clip-path="url(#clip300)" style="stroke:#000000; stroke-linecap:round; stroke-linejoin:round; stroke-width:4; stroke-opacity:1; fill:none" points="
  1780.48,1486.45 1780.48,1467.55 
  "/>
<polyline clip-path="url(#clip300)" style="stroke:#000000; stroke-linecap:round; stroke-linejoin:round; stroke-width:4; stroke-opacity:1; fill:none" points="
  2291.44,1486.45 2291.44,1467.55 
  "/>
<path clip-path="url(#clip300)" d="M194.118 1532.02 L223.793 1532.02 L223.793 1535.95 L194.118 1535.95 L194.118 1532.02 Z" fill="#000000" fill-rule="evenodd" fill-opacity="1" /><path clip-path="url(#clip300)" d="M234.696 1544.91 L242.335 1544.91 L242.335 1518.55 L234.025 1520.21 L234.025 1515.95 L242.289 1514.29 L246.965 1514.29 L246.965 1544.91 L254.603 1544.91 L254.603 1548.85 L234.696 1548.85 L234.696 1544.91 Z" fill="#000000" fill-rule="evenodd" fill-opacity="1" /><path clip-path="url(#clip300)" d="M264.048 1542.97 L268.932 1542.97 L268.932 1548.85 L264.048 1548.85 L264.048 1542.97 Z" fill="#000000" fill-rule="evenodd" fill-opacity="1" /><path clip-path="url(#clip300)" d="M289.117 1517.37 Q285.506 1517.37 283.677 1520.93 Q281.872 1524.47 281.872 1531.6 Q281.872 1538.71 283.677 1542.27 Q285.506 1545.82 289.117 1545.82 Q292.751 1545.82 294.557 1542.27 Q296.386 1538.71 296.386 1531.6 Q296.386 1524.47 294.557 1520.93 Q292.751 1517.37 289.117 1517.37 M289.117 1513.66 Q294.927 1513.66 297.983 1518.27 Q301.061 1522.85 301.061 1531.6 Q301.061 1540.33 297.983 1544.94 Q294.927 1549.52 289.117 1549.52 Q283.307 1549.52 280.228 1544.94 Q277.173 1540.33 277.173 1531.6 Q277.173 1522.85 280.228 1518.27 Q283.307 1513.66 289.117 1513.66 Z" fill="#000000" fill-rule="evenodd" fill-opacity="1" /><path clip-path="url(#clip300)" d="M705.578 1532.02 L735.254 1532.02 L735.254 1535.95 L705.578 1535.95 L705.578 1532.02 Z" fill="#000000" fill-rule="evenodd" fill-opacity="1" /><path clip-path="url(#clip300)" d="M755.346 1517.37 Q751.735 1517.37 749.906 1520.93 Q748.101 1524.47 748.101 1531.6 Q748.101 1538.71 749.906 1542.27 Q751.735 1545.82 755.346 1545.82 Q758.98 1545.82 760.786 1542.27 Q762.615 1538.71 762.615 1531.6 Q762.615 1524.47 760.786 1520.93 Q758.98 1517.37 755.346 1517.37 M755.346 1513.66 Q761.156 1513.66 764.212 1518.27 Q767.291 1522.85 767.291 1531.6 Q767.291 1540.33 764.212 1544.94 Q761.156 1549.52 755.346 1549.52 Q749.536 1549.52 746.457 1544.94 Q743.402 1540.33 743.402 1531.6 Q743.402 1522.85 746.457 1518.27 Q749.536 1513.66 755.346 1513.66 Z" fill="#000000" fill-rule="evenodd" fill-opacity="1" /><path clip-path="url(#clip300)" d="M775.508 1542.97 L780.392 1542.97 L780.392 1548.85 L775.508 1548.85 L775.508 1542.97 Z" fill="#000000" fill-rule="evenodd" fill-opacity="1" /><path clip-path="url(#clip300)" d="M790.624 1514.29 L808.98 1514.29 L808.98 1518.22 L794.906 1518.22 L794.906 1526.7 Q795.925 1526.35 796.943 1526.19 Q797.962 1526 798.98 1526 Q804.767 1526 808.147 1529.17 Q811.526 1532.34 811.526 1537.76 Q811.526 1543.34 808.054 1546.44 Q804.582 1549.52 798.263 1549.52 Q796.087 1549.52 793.818 1549.15 Q791.573 1548.78 789.166 1548.04 L789.166 1543.34 Q791.249 1544.47 793.471 1545.03 Q795.693 1545.58 798.17 1545.58 Q802.175 1545.58 804.513 1543.48 Q806.851 1541.37 806.851 1537.76 Q806.851 1534.15 804.513 1532.04 Q802.175 1529.94 798.17 1529.94 Q796.295 1529.94 794.42 1530.35 Q792.568 1530.77 790.624 1531.65 L790.624 1514.29 Z" fill="#000000" fill-rule="evenodd" fill-opacity="1" /><path clip-path="url(#clip300)" d="M1246.9 1517.37 Q1243.29 1517.37 1241.46 1520.93 Q1239.65 1524.47 1239.65 1531.6 Q1239.65 1538.71 1241.46 1542.27 Q1243.29 1545.82 1246.9 1545.82 Q1250.53 1545.82 1252.34 1542.27 Q1254.17 1538.71 1254.17 1531.6 Q1254.17 1524.47 1252.34 1520.93 Q1250.53 1517.37 1246.9 1517.37 M1246.9 1513.66 Q1252.71 1513.66 1255.77 1518.27 Q1258.84 1522.85 1258.84 1531.6 Q1258.84 1540.33 1255.77 1544.94 Q1252.71 1549.52 1246.9 1549.52 Q1241.09 1549.52 1238.01 1544.94 Q1234.95 1540.33 1234.95 1531.6 Q1234.95 1522.85 1238.01 1518.27 Q1241.09 1513.66 1246.9 1513.66 Z" fill="#000000" fill-rule="evenodd" fill-opacity="1" /><path clip-path="url(#clip300)" d="M1267.06 1542.97 L1271.95 1542.97 L1271.95 1548.85 L1267.06 1548.85 L1267.06 1542.97 Z" fill="#000000" fill-rule="evenodd" fill-opacity="1" /><path clip-path="url(#clip300)" d="M1292.13 1517.37 Q1288.52 1517.37 1286.69 1520.93 Q1284.89 1524.47 1284.89 1531.6 Q1284.89 1538.71 1286.69 1542.27 Q1288.52 1545.82 1292.13 1545.82 Q1295.76 1545.82 1297.57 1542.27 Q1299.4 1538.71 1299.4 1531.6 Q1299.4 1524.47 1297.57 1520.93 Q1295.76 1517.37 1292.13 1517.37 M1292.13 1513.66 Q1297.94 1513.66 1301 1518.27 Q1304.07 1522.85 1304.07 1531.6 Q1304.07 1540.33 1301 1544.94 Q1297.94 1549.52 1292.13 1549.52 Q1286.32 1549.52 1283.24 1544.94 Q1280.19 1540.33 1280.19 1531.6 Q1280.19 1522.85 1283.24 1518.27 Q1286.32 1513.66 1292.13 1513.66 Z" fill="#000000" fill-rule="evenodd" fill-opacity="1" /><path clip-path="url(#clip300)" d="M1758.36 1517.37 Q1754.75 1517.37 1752.92 1520.93 Q1751.11 1524.47 1751.11 1531.6 Q1751.11 1538.71 1752.92 1542.27 Q1754.75 1545.82 1758.36 1545.82 Q1761.99 1545.82 1763.8 1542.27 Q1765.63 1538.71 1765.63 1531.6 Q1765.63 1524.47 1763.8 1520.93 Q1761.99 1517.37 1758.36 1517.37 M1758.36 1513.66 Q1764.17 1513.66 1767.23 1518.27 Q1770.3 1522.85 1770.3 1531.6 Q1770.3 1540.33 1767.23 1544.94 Q1764.17 1549.52 1758.36 1549.52 Q1752.55 1549.52 1749.47 1544.94 Q1746.42 1540.33 1746.42 1531.6 Q1746.42 1522.85 1749.47 1518.27 Q1752.55 1513.66 1758.36 1513.66 Z" fill="#000000" fill-rule="evenodd" fill-opacity="1" /><path clip-path="url(#clip300)" d="M1778.52 1542.97 L1783.41 1542.97 L1783.41 1548.85 L1778.52 1548.85 L1778.52 1542.97 Z" fill="#000000" fill-rule="evenodd" fill-opacity="1" /><path clip-path="url(#clip300)" d="M1793.64 1514.29 L1811.99 1514.29 L1811.99 1518.22 L1797.92 1518.22 L1797.92 1526.7 Q1798.94 1526.35 1799.96 1526.19 Q1800.98 1526 1801.99 1526 Q1807.78 1526 1811.16 1529.17 Q1814.54 1532.34 1814.54 1537.76 Q1814.54 1543.34 1811.07 1546.44 Q1807.6 1549.52 1801.28 1549.52 Q1799.1 1549.52 1796.83 1549.15 Q1794.59 1548.78 1792.18 1548.04 L1792.18 1543.34 Q1794.26 1544.47 1796.48 1545.03 Q1798.71 1545.58 1801.18 1545.58 Q1805.19 1545.58 1807.53 1543.48 Q1809.86 1541.37 1809.86 1537.76 Q1809.86 1534.15 1807.53 1532.04 Q1805.19 1529.94 1801.18 1529.94 Q1799.31 1529.94 1797.43 1530.35 Q1795.58 1530.77 1793.64 1531.65 L1793.64 1514.29 Z" fill="#000000" fill-rule="evenodd" fill-opacity="1" /><path clip-path="url(#clip300)" d="M2258.59 1544.91 L2266.23 1544.91 L2266.23 1518.55 L2257.92 1520.21 L2257.92 1515.95 L2266.19 1514.29 L2270.86 1514.29 L2270.86 1544.91 L2278.5 1544.91 L2278.5 1548.85 L2258.59 1548.85 L2258.59 1544.91 Z" fill="#000000" fill-rule="evenodd" fill-opacity="1" /><path clip-path="url(#clip300)" d="M2287.95 1542.97 L2292.83 1542.97 L2292.83 1548.85 L2287.95 1548.85 L2287.95 1542.97 Z" fill="#000000" fill-rule="evenodd" fill-opacity="1" /><path clip-path="url(#clip300)" d="M2313.01 1517.37 Q2309.4 1517.37 2307.57 1520.93 Q2305.77 1524.47 2305.77 1531.6 Q2305.77 1538.71 2307.57 1542.27 Q2309.4 1545.82 2313.01 1545.82 Q2316.65 1545.82 2318.45 1542.27 Q2320.28 1538.71 2320.28 1531.6 Q2320.28 1524.47 2318.45 1520.93 Q2316.65 1517.37 2313.01 1517.37 M2313.01 1513.66 Q2318.82 1513.66 2321.88 1518.27 Q2324.96 1522.85 2324.96 1531.6 Q2324.96 1540.33 2321.88 1544.94 Q2318.82 1549.52 2313.01 1549.52 Q2307.2 1549.52 2304.13 1544.94 Q2301.07 1540.33 2301.07 1531.6 Q2301.07 1522.85 2304.13 1518.27 Q2307.2 1513.66 2313.01 1513.66 Z" fill="#000000" fill-rule="evenodd" fill-opacity="1" /><polyline clip-path="url(#clip302)" style="stroke:#000000; stroke-linecap:round; stroke-linejoin:round; stroke-width:2; stroke-opacity:0.1; fill:none" points="
  186.274,1306.22 2352.76,1306.22 
  "/>
<polyline clip-path="url(#clip302)" style="stroke:#000000; stroke-linecap:round; stroke-linejoin:round; stroke-width:2; stroke-opacity:0.1; fill:none" points="
  186.274,1019.67 2352.76,1019.67 
  "/>
<polyline clip-path="url(#clip302)" style="stroke:#000000; stroke-linecap:round; stroke-linejoin:round; stroke-width:2; stroke-opacity:0.1; fill:none" points="
  186.274,733.134 2352.76,733.134 
  "/>
<polyline clip-path="url(#clip302)" style="stroke:#000000; stroke-linecap:round; stroke-linejoin:round; stroke-width:2; stroke-opacity:0.1; fill:none" points="
  186.274,446.594 2352.76,446.594 
  "/>
<polyline clip-path="url(#clip302)" style="stroke:#000000; stroke-linecap:round; stroke-linejoin:round; stroke-width:2; stroke-opacity:0.1; fill:none" points="
  186.274,160.053 2352.76,160.053 
  "/>
<polyline clip-path="url(#clip300)" style="stroke:#000000; stroke-linecap:round; stroke-linejoin:round; stroke-width:4; stroke-opacity:1; fill:none" points="
  186.274,1486.45 186.274,47.2441 
  "/>
<polyline clip-path="url(#clip300)" style="stroke:#000000; stroke-linecap:round; stroke-linejoin:round; stroke-width:4; stroke-opacity:1; fill:none" points="
  186.274,1306.22 205.172,1306.22 
  "/>
<polyline clip-path="url(#clip300)" style="stroke:#000000; stroke-linecap:round; stroke-linejoin:round; stroke-width:4; stroke-opacity:1; fill:none" points="
  186.274,1019.67 205.172,1019.67 
  "/>
<polyline clip-path="url(#clip300)" style="stroke:#000000; stroke-linecap:round; stroke-linejoin:round; stroke-width:4; stroke-opacity:1; fill:none" points="
  186.274,733.134 205.172,733.134 
  "/>
<polyline clip-path="url(#clip300)" style="stroke:#000000; stroke-linecap:round; stroke-linejoin:round; stroke-width:4; stroke-opacity:1; fill:none" points="
  186.274,446.594 205.172,446.594 
  "/>
<polyline clip-path="url(#clip300)" style="stroke:#000000; stroke-linecap:round; stroke-linejoin:round; stroke-width:4; stroke-opacity:1; fill:none" points="
  186.274,160.053 205.172,160.053 
  "/>
<path clip-path="url(#clip300)" d="M62.9365 1292.01 Q59.3254 1292.01 57.4967 1295.58 Q55.6912 1299.12 55.6912 1306.25 Q55.6912 1313.36 57.4967 1316.92 Q59.3254 1320.46 62.9365 1320.46 Q66.5707 1320.46 68.3763 1316.92 Q70.205 1313.36 70.205 1306.25 Q70.205 1299.12 68.3763 1295.58 Q66.5707 1292.01 62.9365 1292.01 M62.9365 1288.31 Q68.7467 1288.31 71.8022 1292.92 Q74.8809 1297.5 74.8809 1306.25 Q74.8809 1314.98 71.8022 1319.58 Q68.7467 1324.17 62.9365 1324.17 Q57.1264 1324.17 54.0477 1319.58 Q50.9921 1314.98 50.9921 1306.25 Q50.9921 1297.5 54.0477 1292.92 Q57.1264 1288.31 62.9365 1288.31 Z" fill="#000000" fill-rule="evenodd" fill-opacity="1" /><path clip-path="url(#clip300)" d="M83.0984 1317.62 L87.9827 1317.62 L87.9827 1323.5 L83.0984 1323.5 L83.0984 1317.62 Z" fill="#000000" fill-rule="evenodd" fill-opacity="1" /><path clip-path="url(#clip300)" d="M108.168 1292.01 Q104.557 1292.01 102.728 1295.58 Q100.922 1299.12 100.922 1306.25 Q100.922 1313.36 102.728 1316.92 Q104.557 1320.46 108.168 1320.46 Q111.802 1320.46 113.608 1316.92 Q115.436 1313.36 115.436 1306.25 Q115.436 1299.12 113.608 1295.58 Q111.802 1292.01 108.168 1292.01 M108.168 1288.31 Q113.978 1288.31 117.033 1292.92 Q120.112 1297.5 120.112 1306.25 Q120.112 1314.98 117.033 1319.58 Q113.978 1324.17 108.168 1324.17 Q102.358 1324.17 99.2789 1319.58 Q96.2234 1314.98 96.2234 1306.25 Q96.2234 1297.5 99.2789 1292.92 Q102.358 1288.31 108.168 1288.31 Z" fill="#000000" fill-rule="evenodd" fill-opacity="1" /><path clip-path="url(#clip300)" d="M138.33 1292.01 Q134.719 1292.01 132.89 1295.58 Q131.084 1299.12 131.084 1306.25 Q131.084 1313.36 132.89 1316.92 Q134.719 1320.46 138.33 1320.46 Q141.964 1320.46 143.769 1316.92 Q145.598 1313.36 145.598 1306.25 Q145.598 1299.12 143.769 1295.58 Q141.964 1292.01 138.33 1292.01 M138.33 1288.31 Q144.14 1288.31 147.195 1292.92 Q150.274 1297.5 150.274 1306.25 Q150.274 1314.98 147.195 1319.58 Q144.14 1324.17 138.33 1324.17 Q132.519 1324.17 129.441 1319.58 Q126.385 1314.98 126.385 1306.25 Q126.385 1297.5 129.441 1292.92 Q132.519 1288.31 138.33 1288.31 Z" fill="#000000" fill-rule="evenodd" fill-opacity="1" /><path clip-path="url(#clip300)" d="M63.9319 1005.47 Q60.3208 1005.47 58.4921 1009.04 Q56.6865 1012.58 56.6865 1019.71 Q56.6865 1026.82 58.4921 1030.38 Q60.3208 1033.92 63.9319 1033.92 Q67.5661 1033.92 69.3717 1030.38 Q71.2004 1026.82 71.2004 1019.71 Q71.2004 1012.58 69.3717 1009.04 Q67.5661 1005.47 63.9319 1005.47 M63.9319 1001.77 Q69.742 1001.77 72.7976 1006.38 Q75.8763 1010.96 75.8763 1019.71 Q75.8763 1028.44 72.7976 1033.04 Q69.742 1037.63 63.9319 1037.63 Q58.1217 1037.63 55.043 1033.04 Q51.9875 1028.44 51.9875 1019.71 Q51.9875 1010.96 55.043 1006.38 Q58.1217 1001.77 63.9319 1001.77 Z" fill="#000000" fill-rule="evenodd" fill-opacity="1" /><path clip-path="url(#clip300)" d="M84.0938 1031.08 L88.978 1031.08 L88.978 1036.95 L84.0938 1036.95 L84.0938 1031.08 Z" fill="#000000" fill-rule="evenodd" fill-opacity="1" /><path clip-path="url(#clip300)" d="M103.191 1033.02 L119.51 1033.02 L119.51 1036.95 L97.566 1036.95 L97.566 1033.02 Q100.228 1030.27 104.811 1025.64 Q109.418 1020.98 110.598 1019.64 Q112.844 1017.12 113.723 1015.38 Q114.626 1013.62 114.626 1011.93 Q114.626 1009.18 112.682 1007.44 Q110.76 1005.71 107.658 1005.71 Q105.459 1005.71 103.006 1006.47 Q100.575 1007.23 97.7974 1008.78 L97.7974 1004.06 Q100.621 1002.93 103.075 1002.35 Q105.529 1001.77 107.566 1001.77 Q112.936 1001.77 116.131 1004.46 Q119.325 1007.14 119.325 1011.63 Q119.325 1013.76 118.515 1015.68 Q117.728 1017.58 115.621 1020.17 Q115.043 1020.84 111.941 1024.06 Q108.839 1027.26 103.191 1033.02 Z" fill="#000000" fill-rule="evenodd" fill-opacity="1" /><path clip-path="url(#clip300)" d="M129.371 1002.39 L147.728 1002.39 L147.728 1006.33 L133.654 1006.33 L133.654 1014.8 Q134.672 1014.45 135.691 1014.29 Q136.709 1014.11 137.728 1014.11 Q143.515 1014.11 146.894 1017.28 Q150.274 1020.45 150.274 1025.87 Q150.274 1031.45 146.802 1034.55 Q143.33 1037.63 137.01 1037.63 Q134.834 1037.63 132.566 1037.26 Q130.32 1036.89 127.913 1036.14 L127.913 1031.45 Q129.996 1032.58 132.219 1033.14 Q134.441 1033.69 136.918 1033.69 Q140.922 1033.69 143.26 1031.58 Q145.598 1029.48 145.598 1025.87 Q145.598 1022.26 143.26 1020.15 Q140.922 1018.04 136.918 1018.04 Q135.043 1018.04 133.168 1018.46 Q131.316 1018.88 129.371 1019.76 L129.371 1002.39 Z" fill="#000000" fill-rule="evenodd" fill-opacity="1" /><path clip-path="url(#clip300)" d="M62.9365 718.933 Q59.3254 718.933 57.4967 722.498 Q55.6912 726.039 55.6912 733.169 Q55.6912 740.275 57.4967 743.84 Q59.3254 747.382 62.9365 747.382 Q66.5707 747.382 68.3763 743.84 Q70.205 740.275 70.205 733.169 Q70.205 726.039 68.3763 722.498 Q66.5707 718.933 62.9365 718.933 M62.9365 715.229 Q68.7467 715.229 71.8022 719.836 Q74.8809 724.419 74.8809 733.169 Q74.8809 741.896 71.8022 746.502 Q68.7467 751.086 62.9365 751.086 Q57.1264 751.086 54.0477 746.502 Q50.9921 741.896 50.9921 733.169 Q50.9921 724.419 54.0477 719.836 Q57.1264 715.229 62.9365 715.229 Z" fill="#000000" fill-rule="evenodd" fill-opacity="1" /><path clip-path="url(#clip300)" d="M83.0984 744.535 L87.9827 744.535 L87.9827 750.414 L83.0984 750.414 L83.0984 744.535 Z" fill="#000000" fill-rule="evenodd" fill-opacity="1" /><path clip-path="url(#clip300)" d="M98.2141 715.854 L116.57 715.854 L116.57 719.789 L102.496 719.789 L102.496 728.262 Q103.515 727.914 104.534 727.752 Q105.552 727.567 106.571 727.567 Q112.358 727.567 115.737 730.739 Q119.117 733.91 119.117 739.326 Q119.117 744.905 115.645 748.007 Q112.172 751.086 105.853 751.086 Q103.677 751.086 101.409 750.715 Q99.1632 750.345 96.7558 749.604 L96.7558 744.905 Q98.8391 746.039 101.061 746.595 Q103.284 747.15 105.76 747.15 Q109.765 747.15 112.103 745.044 Q114.441 742.938 114.441 739.326 Q114.441 735.715 112.103 733.609 Q109.765 731.502 105.76 731.502 Q103.885 731.502 102.01 731.919 Q100.159 732.336 98.2141 733.215 L98.2141 715.854 Z" fill="#000000" fill-rule="evenodd" fill-opacity="1" /><path clip-path="url(#clip300)" d="M138.33 718.933 Q134.719 718.933 132.89 722.498 Q131.084 726.039 131.084 733.169 Q131.084 740.275 132.89 743.84 Q134.719 747.382 138.33 747.382 Q141.964 747.382 143.769 743.84 Q145.598 740.275 145.598 733.169 Q145.598 726.039 143.769 722.498 Q141.964 718.933 138.33 718.933 M138.33 715.229 Q144.14 715.229 147.195 719.836 Q150.274 724.419 150.274 733.169 Q150.274 741.896 147.195 746.502 Q144.14 751.086 138.33 751.086 Q132.519 751.086 129.441 746.502 Q126.385 741.896 126.385 733.169 Q126.385 724.419 129.441 719.836 Q132.519 715.229 138.33 715.229 Z" fill="#000000" fill-rule="evenodd" fill-opacity="1" /><path clip-path="url(#clip300)" d="M63.9319 432.393 Q60.3208 432.393 58.4921 435.957 Q56.6865 439.499 56.6865 446.629 Q56.6865 453.735 58.4921 457.3 Q60.3208 460.841 63.9319 460.841 Q67.5661 460.841 69.3717 457.3 Q71.2004 453.735 71.2004 446.629 Q71.2004 439.499 69.3717 435.957 Q67.5661 432.393 63.9319 432.393 M63.9319 428.689 Q69.742 428.689 72.7976 433.295 Q75.8763 437.879 75.8763 446.629 Q75.8763 455.355 72.7976 459.962 Q69.742 464.545 63.9319 464.545 Q58.1217 464.545 55.043 459.962 Q51.9875 455.355 51.9875 446.629 Q51.9875 437.879 55.043 433.295 Q58.1217 428.689 63.9319 428.689 Z" fill="#000000" fill-rule="evenodd" fill-opacity="1" /><path clip-path="url(#clip300)" d="M84.0938 457.994 L88.978 457.994 L88.978 463.874 L84.0938 463.874 L84.0938 457.994 Z" fill="#000000" fill-rule="evenodd" fill-opacity="1" /><path clip-path="url(#clip300)" d="M97.9826 429.314 L120.205 429.314 L120.205 431.305 L107.658 463.874 L102.774 463.874 L114.58 433.249 L97.9826 433.249 L97.9826 429.314 Z" fill="#000000" fill-rule="evenodd" fill-opacity="1" /><path clip-path="url(#clip300)" d="M129.371 429.314 L147.728 429.314 L147.728 433.249 L133.654 433.249 L133.654 441.721 Q134.672 441.374 135.691 441.212 Q136.709 441.027 137.728 441.027 Q143.515 441.027 146.894 444.198 Q150.274 447.369 150.274 452.786 Q150.274 458.365 146.802 461.466 Q143.33 464.545 137.01 464.545 Q134.834 464.545 132.566 464.175 Q130.32 463.804 127.913 463.064 L127.913 458.365 Q129.996 459.499 132.219 460.054 Q134.441 460.61 136.918 460.61 Q140.922 460.61 143.26 458.503 Q145.598 456.397 145.598 452.786 Q145.598 449.175 143.26 447.068 Q140.922 444.962 136.918 444.962 Q135.043 444.962 133.168 445.379 Q131.316 445.795 129.371 446.675 L129.371 429.314 Z" fill="#000000" fill-rule="evenodd" fill-opacity="1" /><path clip-path="url(#clip300)" d="M53.7467 173.398 L61.3856 173.398 L61.3856 147.033 L53.0754 148.699 L53.0754 144.44 L61.3393 142.773 L66.0152 142.773 L66.0152 173.398 L73.654 173.398 L73.654 177.333 L53.7467 177.333 L53.7467 173.398 Z" fill="#000000" fill-rule="evenodd" fill-opacity="1" /><path clip-path="url(#clip300)" d="M83.0984 171.454 L87.9827 171.454 L87.9827 177.333 L83.0984 177.333 L83.0984 171.454 Z" fill="#000000" fill-rule="evenodd" fill-opacity="1" /><path clip-path="url(#clip300)" d="M108.168 145.852 Q104.557 145.852 102.728 149.417 Q100.922 152.958 100.922 160.088 Q100.922 167.194 102.728 170.759 Q104.557 174.301 108.168 174.301 Q111.802 174.301 113.608 170.759 Q115.436 167.194 115.436 160.088 Q115.436 152.958 113.608 149.417 Q111.802 145.852 108.168 145.852 M108.168 142.148 Q113.978 142.148 117.033 146.755 Q120.112 151.338 120.112 160.088 Q120.112 168.815 117.033 173.421 Q113.978 178.005 108.168 178.005 Q102.358 178.005 99.2789 173.421 Q96.2234 168.815 96.2234 160.088 Q96.2234 151.338 99.2789 146.755 Q102.358 142.148 108.168 142.148 Z" fill="#000000" fill-rule="evenodd" fill-opacity="1" /><path clip-path="url(#clip300)" d="M138.33 145.852 Q134.719 145.852 132.89 149.417 Q131.084 152.958 131.084 160.088 Q131.084 167.194 132.89 170.759 Q134.719 174.301 138.33 174.301 Q141.964 174.301 143.769 170.759 Q145.598 167.194 145.598 160.088 Q145.598 152.958 143.769 149.417 Q141.964 145.852 138.33 145.852 M138.33 142.148 Q144.14 142.148 147.195 146.755 Q150.274 151.338 150.274 160.088 Q150.274 168.815 147.195 173.421 Q144.14 178.005 138.33 178.005 Q132.519 178.005 129.441 173.421 Q126.385 168.815 126.385 160.088 Q126.385 151.338 129.441 146.755 Q132.519 142.148 138.33 142.148 Z" fill="#000000" fill-rule="evenodd" fill-opacity="1" /><polyline clip-path="url(#clip302)" style="stroke:#000000; stroke-linecap:round; stroke-linejoin:round; stroke-width:16; stroke-opacity:1; fill:none" points="
  247.59,1202.02 257.86,1200.09 268.131,1198.11 278.401,1196.07 288.672,1193.98 298.943,1191.83 309.213,1189.62 319.484,1187.35 329.754,1185.01 340.025,1182.61 
  350.296,1180.14 360.566,1177.59 370.837,1174.98 381.107,1172.28 391.378,1169.51 401.649,1166.65 411.919,1163.7 422.19,1160.67 432.46,1157.54 442.731,1154.32 
  453.002,1150.99 463.272,1147.56 473.543,1144.02 483.813,1140.37 494.084,1136.61 504.355,1132.72 514.625,1128.7 524.896,1124.55 535.167,1120.26 545.437,1115.83 
  555.708,1111.25 565.978,1106.52 576.249,1101.62 586.52,1096.56 596.79,1091.32 607.061,1085.89 617.331,1080.28 627.602,1074.46 637.873,1068.44 648.143,1062.2 
  658.414,1055.74 668.684,1049.04 678.955,1042.1 689.226,1034.9 699.496,1027.43 709.767,1019.69 720.037,1011.65 730.308,1003.32 740.579,994.671 750.849,985.695 
  761.12,976.379 771.39,966.707 781.661,956.667 791.932,946.244 802.202,935.422 812.473,924.187 822.744,912.523 833.014,900.415 843.285,887.847 853.555,874.805 
  863.826,861.272 874.097,847.234 884.367,832.677 894.638,817.587 904.908,801.953 915.179,785.763 925.45,769.008 935.72,751.681 945.991,733.778 956.261,715.295 
  966.532,696.236 976.803,676.606 987.073,656.416 997.344,635.681 1007.61,614.423 1017.89,592.673 1028.16,570.465 1038.43,547.846 1048.7,524.869 1058.97,501.6 
  1069.24,478.112 1079.51,454.492 1089.78,430.839 1100.05,407.26 1110.32,383.878 1120.59,360.824 1130.86,338.244 1141.13,316.288 1151.4,295.118 1161.67,274.901 
  1171.94,255.808 1182.21,238.009 1192.49,221.673 1202.76,206.965 1213.03,194.036 1223.3,183.027 1233.57,174.062 1243.84,167.244 1254.11,162.652 1264.38,160.343 
  1274.65,160.343 1284.92,162.652 1295.19,167.244 1305.46,174.062 1315.73,183.027 1326,194.036 1336.27,206.965 1346.54,221.673 1356.82,238.009 1367.09,255.808 
  1377.36,274.901 1387.63,295.118 1397.9,316.288 1408.17,338.244 1418.44,360.824 1428.71,383.878 1438.98,407.26 1449.25,430.839 1459.52,454.492 1469.79,478.112 
  1480.06,501.6 1490.33,524.869 1500.6,547.846 1510.87,570.465 1521.14,592.673 1531.42,614.423 1541.69,635.681 1551.96,656.416 1562.23,676.606 1572.5,696.236 
  1582.77,715.295 1593.04,733.778 1603.31,751.681 1613.58,769.008 1623.85,785.763 1634.12,801.953 1644.39,817.587 1654.66,832.677 1664.93,847.234 1675.2,861.272 
  1685.47,874.805 1695.75,887.847 1706.02,900.415 1716.29,912.523 1726.56,924.187 1736.83,935.422 1747.1,946.244 1757.37,956.667 1767.64,966.707 1777.91,976.379 
  1788.18,985.695 1798.45,994.671 1808.72,1003.32 1818.99,1011.65 1829.26,1019.69 1839.53,1027.43 1849.8,1034.9 1860.07,1042.1 1870.35,1049.04 1880.62,1055.74 
  1890.89,1062.2 1901.16,1068.44 1911.43,1074.46 1921.7,1080.28 1931.97,1085.89 1942.24,1091.32 1952.51,1096.56 1962.78,1101.62 1973.05,1106.52 1983.32,1111.25 
  1993.59,1115.83 2003.86,1120.26 2014.13,1124.55 2024.4,1128.7 2034.68,1132.72 2044.95,1136.61 2055.22,1140.37 2065.49,1144.02 2075.76,1147.56 2086.03,1150.99 
  2096.3,1154.32 2106.57,1157.54 2116.84,1160.67 2127.11,1163.7 2137.38,1166.65 2147.65,1169.51 2157.92,1172.28 2168.19,1174.98 2178.46,1177.59 2188.73,1180.14 
  2199,1182.61 2209.28,1185.01 2219.55,1187.35 2229.82,1189.62 2240.09,1191.83 2250.36,1193.98 2260.63,1196.07 2270.9,1198.11 2281.17,1200.09 2291.44,1202.02 
  
  "/>
<polyline clip-path="url(#clip302)" style="stroke:#e26f46; stroke-linecap:round; stroke-linejoin:round; stroke-width:16; stroke-opacity:1; fill:none" points="
  247.59,1146.43 257.86,1125.81 268.131,1154.36 278.401,1197.07 288.672,1235.43 298.943,1261.48 309.213,1273.58 319.484,1273.52 329.754,1264.59 340.025,1250.39 
  350.296,1234.13 360.566,1218.31 370.837,1204.61 381.107,1193.95 391.378,1186.59 401.649,1182.28 411.919,1180.47 422.19,1180.43 432.46,1181.35 442.731,1182.51 
  453.002,1183.28 463.272,1183.17 473.543,1181.88 483.813,1179.27 494.084,1175.36 504.355,1170.27 514.625,1164.22 524.896,1157.5 535.167,1150.42 545.437,1143.25 
  555.708,1136.28 565.978,1129.73 576.249,1123.73 586.52,1118.39 596.79,1113.71 607.061,1109.65 617.331,1106.08 627.602,1102.84 637.873,1099.72 648.143,1096.52 
  658.414,1092.97 668.684,1088.86 678.955,1083.97 689.226,1078.1 699.496,1071.1 709.767,1062.87 720.037,1053.32 730.308,1042.45 740.579,1030.27 750.849,1016.86 
  761.12,1002.32 771.39,986.809 781.661,970.481 791.932,953.525 802.202,936.139 812.473,918.52 822.744,900.857 833.014,883.329 843.285,866.091 853.555,849.274 
  863.826,832.978 874.097,817.27 884.367,802.182 894.638,787.712 904.908,773.823 915.179,760.447 925.45,747.488 935.72,734.825 945.991,722.319 956.261,709.817 
  966.532,697.159 976.803,684.184 987.073,670.733 997.344,656.661 1007.61,641.836 1017.89,626.147 1028.16,609.51 1038.43,591.864 1048.7,573.184 1058.97,553.473 
  1069.24,532.769 1079.51,511.141 1089.78,488.691 1100.05,465.55 1110.32,441.874 1120.59,417.846 1130.86,393.666 1141.13,369.551 1151.4,345.727 1161.67,322.428 
  1171.94,299.89 1182.21,278.344 1192.49,258.015 1202.76,239.115 1213.03,221.84 1223.3,206.37 1233.57,192.859 1243.84,181.44 1254.11,172.219 1264.38,165.276 
  1274.65,160.663 1284.92,158.404 1295.19,158.499 1305.46,160.92 1315.73,165.616 1326,172.514 1336.27,181.521 1346.54,192.529 1356.82,205.411 1367.09,220.031 
  1377.36,236.244 1387.63,253.896 1397.9,272.833 1408.17,292.895 1418.44,313.925 1428.71,335.77 1438.98,358.278 1449.25,381.306 1459.52,404.716 1469.79,428.382 
  1480.06,452.182 1490.33,476.008 1500.6,499.76 1510.87,523.347 1521.14,546.692 1531.42,569.725 1541.69,592.386 1551.96,614.627 1562.23,636.408 1572.5,657.698 
  1582.77,678.475 1593.04,698.726 1603.31,718.445 1613.58,737.633 1623.85,756.297 1634.12,774.452 1644.39,792.116 1654.66,809.311 1664.93,826.063 1675.2,842.397 
  1685.47,858.341 1695.75,873.92 1706.02,889.155 1716.29,904.064 1726.56,918.655 1736.83,932.931 1747.1,946.884 1757.37,960.494 1767.64,973.729 1777.91,986.544 
  1788.18,998.883 1798.45,1010.68 1808.72,1021.85 1818.99,1032.31 1829.26,1041.96 1839.53,1050.73 1849.8,1058.52 1860.07,1065.25 1870.35,1070.88 1880.62,1075.36 
  1890.89,1078.7 1901.16,1080.93 1911.43,1082.14 1921.7,1082.45 1931.97,1082.04 1942.24,1081.14 1952.51,1080.04 1962.78,1079.06 1973.05,1078.56 1983.32,1078.91 
  1993.59,1080.49 2003.86,1083.66 2014.13,1088.72 2024.4,1095.91 2034.68,1105.34 2044.95,1117 2055.22,1130.7 2065.49,1146.07 2075.76,1162.55 2086.03,1179.34 
  2096.3,1195.49 2106.57,1209.88 2116.84,1221.32 2127.11,1228.59 2137.38,1230.62 2147.65,1226.61 2157.92,1216.17 2168.19,1199.55 2178.46,1177.81 2188.73,1152.95 
  2199,1127.98 2209.28,1106.94 2219.55,1094.57 2229.82,1095.82 2240.09,1114.81 2250.36,1153.27 2260.63,1208.07 2270.9,1267.67 2281.17,1307.07 2291.44,1280.81 
  
  "/>
<polyline clip-path="url(#clip302)" style="stroke:#3da44d; stroke-linecap:round; stroke-linejoin:round; stroke-width:16; stroke-opacity:1; fill:none" points="
  247.59,1346.47 257.86,1229.99 268.131,1191.06 278.401,1191.8 288.672,1208.95 298.943,1229.21 309.213,1245.82 319.484,1256.13 329.754,1259.89 340.025,1258.1 
  350.296,1252.24 360.566,1243.8 370.837,1234.08 381.107,1224.03 391.378,1214.27 401.649,1205.08 411.919,1196.54 422.19,1188.52 432.46,1180.8 442.731,1173.12 
  453.002,1165.24 463.272,1156.97 473.543,1148.16 483.813,1138.78 494.084,1128.84 504.355,1118.45 514.625,1107.77 524.896,1096.98 535.167,1086.31 545.437,1075.98 
  555.708,1066.2 565.978,1057.17 576.249,1049.02 586.52,1041.88 596.79,1035.81 607.061,1030.8 617.331,1026.83 627.602,1023.82 637.873,1021.65 648.143,1020.16 
  658.414,1019.19 668.684,1018.53 678.955,1018.01 689.226,1017.41 699.496,1016.56 709.767,1015.26 720.037,1013.38 730.308,1010.76 740.579,1007.3 750.849,1002.92 
  761.12,997.537 771.39,991.124 781.661,983.661 791.932,975.147 802.202,965.6 812.473,955.047 822.744,943.524 833.014,931.073 843.285,917.737 853.555,903.556 
  863.826,888.569 874.097,872.806 884.367,856.293 894.638,839.046 904.908,821.076 915.179,802.384 925.45,782.967 935.72,762.819 945.991,741.932 956.261,720.297 
  966.532,697.909 976.803,674.772 987.073,650.894 997.344,626.298 1007.61,601.019 1017.89,575.107 1028.16,548.631 1038.43,521.674 1048.7,494.343 1058.97,466.758 
  1069.24,439.059 1079.51,411.403 1089.78,383.959 1100.05,356.91 1110.32,330.448 1120.59,304.77 1130.86,280.078 1141.13,256.57 1151.4,234.441 1161.67,213.879 
  1171.94,195.057 1182.21,178.135 1192.49,163.252 1202.76,150.527 1213.03,140.055 1223.3,131.906 1233.57,126.122 1243.84,122.72 1254.11,121.686 1264.38,122.981 
  1274.65,126.542 1284.92,132.28 1295.19,140.085 1305.46,149.829 1315.73,161.367 1326,174.543 1336.27,189.192 1346.54,205.146 1356.82,222.232 1367.09,240.284 
  1377.36,259.14 1387.63,278.649 1397.9,298.669 1408.17,319.077 1418.44,339.763 1428.71,360.637 1438.98,381.626 1449.25,402.676 1459.52,423.752 1469.79,444.834 
  1480.06,465.916 1490.33,487.009 1500.6,508.129 1510.87,529.3 1521.14,550.553 1531.42,571.913 1541.69,593.406 1551.96,615.048 1562.23,636.847 1572.5,658.796 
  1582.77,680.872 1593.04,703.036 1603.31,725.228 1613.58,747.371 1623.85,769.365 1634.12,791.097 1644.39,812.433 1654.66,833.23 1664.93,853.331 1675.2,872.577 
  1685.47,890.807 1695.75,907.864 1706.02,923.602 1716.29,937.893 1726.56,950.627 1736.83,961.726 1747.1,971.142 1757.37,978.866 1767.64,984.929 1777.91,989.406 
  1788.18,992.415 1798.45,994.121 1808.72,994.729 1818.99,994.487 1829.26,993.672 1839.53,992.593 1849.8,991.577 1860.07,990.96 1870.35,991.075 1880.62,992.245 
  1890.89,994.765 1901.16,998.89 1911.43,1004.83 1921.7,1012.71 1931.97,1022.62 1942.24,1034.53 1952.51,1048.34 1962.78,1063.85 1973.05,1080.78 1983.32,1098.75 
  1993.59,1117.29 2003.86,1135.9 2014.13,1153.99 2024.4,1170.97 2034.68,1186.24 2044.95,1199.23 2055.22,1209.45 2065.49,1216.5 2075.76,1220.1 2086.03,1220.18 
  2096.3,1216.85 2106.57,1210.45 2116.84,1201.56 2127.11,1191.04 2137.38,1179.96 2147.65,1169.61 2157.92,1161.42 2168.19,1156.9 2178.46,1157.5 2188.73,1164.46 
  2199,1178.61 2209.28,1200.08 2219.55,1228.07 2229.82,1260.4 2240.09,1293.12 2250.36,1319.99 2260.63,1331.91 2270.9,1316.23 2281.17,1256.07 2291.44,1129.4 
  
  "/>
<polyline clip-path="url(#clip302)" style="stroke:#c271d2; stroke-linecap:round; stroke-linejoin:round; stroke-width:16; stroke-opacity:1; fill:none" points="
  247.59,1123.44 257.86,1169.69 268.131,1169.73 278.401,1152.4 288.672,1133.55 298.943,1120.61 309.213,1115.81 319.484,1118.51 329.754,1126.66 340.025,1137.78 
  350.296,1149.57 360.566,1160.16 370.837,1168.26 381.107,1173.15 391.378,1174.59 401.649,1172.77 411.919,1168.11 422.19,1161.23 432.46,1152.83 442.731,1143.57 
  453.002,1134.09 463.272,1124.9 473.543,1116.4 483.813,1108.87 494.084,1102.46 504.355,1097.22 514.625,1093.1 524.896,1089.97 535.167,1087.68 545.437,1086.01 
  555.708,1084.77 565.978,1083.74 576.249,1082.73 586.52,1081.57 596.79,1080.13 607.061,1078.29 617.331,1075.99 627.602,1073.18 637.873,1069.84 648.143,1065.96 
  658.414,1061.56 668.684,1056.67 678.955,1051.31 689.226,1045.51 699.496,1039.28 709.767,1032.64 720.037,1025.6 730.308,1018.13 740.579,1010.22 750.849,1001.83 
  761.12,992.917 771.39,983.435 781.661,973.325 791.932,962.528 802.202,950.986 812.473,938.646 822.744,925.459 833.014,911.387 843.285,896.403 853.555,880.49 
  863.826,863.647 874.097,845.887 884.367,827.236 894.638,807.734 904.908,787.435 915.179,766.403 925.45,744.713 935.72,722.448 945.991,699.695 956.261,676.549 
  966.532,653.104 976.803,629.456 987.073,605.698 997.344,581.921 1007.61,558.213 1017.89,534.655 1028.16,511.323 1038.43,488.288 1048.7,465.616 1058.97,443.365 
  1069.24,421.591 1079.51,400.345 1089.78,379.675 1100.05,359.63 1110.32,340.254 1120.59,321.596 1130.86,303.703 1141.13,286.628 1151.4,270.425 1161.67,255.152 
  1171.94,240.872 1182.21,227.651 1192.49,215.56 1202.76,204.672 1213.03,195.062 1223.3,186.805 1233.57,179.977 1243.84,174.651 1254.11,170.897 1264.38,168.776 
  1274.65,168.344 1284.92,169.646 1295.19,172.717 1305.46,177.577 1315.73,184.234 1326,192.677 1336.27,202.882 1346.54,214.807 1356.82,228.392 1367.09,243.562 
  1377.36,260.225 1387.63,278.276 1397.9,297.596 1408.17,318.052 1418.44,339.506 1428.71,361.809 1438.98,384.81 1449.25,408.354 1459.52,432.288 1469.79,456.46 
  1480.06,480.725 1490.33,504.945 1500.6,528.992 1510.87,552.748 1521.14,576.11 1531.42,598.986 1541.69,621.3 1551.96,642.989 1562.23,664.004 1572.5,684.309 
  1582.77,703.883 1593.04,722.712 1603.31,740.795 1613.58,758.138 1623.85,774.752 1634.12,790.656 1644.39,805.868 1654.66,820.411 1664.93,834.308 1675.2,847.58 
  1685.47,860.251 1695.75,872.341 1706.02,883.871 1716.29,894.863 1726.56,905.338 1736.83,915.322 1747.1,924.844 1757.37,933.938 1767.64,942.644 1777.91,951.011 
  1788.18,959.097 1798.45,966.967 1808.72,974.694 1818.99,982.359 1829.26,990.048 1839.53,997.846 1849.8,1005.84 1860.07,1014.1 1870.35,1022.69 1880.62,1031.66 
  1890.89,1041.02 1901.16,1050.75 1911.43,1060.8 1921.7,1071.08 1931.97,1081.44 1942.24,1091.69 1952.51,1101.6 1962.78,1110.9 1973.05,1119.28 1983.32,1126.43 
  1993.59,1132.03 2003.86,1135.81 2014.13,1137.53 2024.4,1137.02 2034.68,1134.26 2044.95,1129.33 2055.22,1122.49 2065.49,1114.21 2075.76,1105.12 2086.03,1096.06 
  2096.3,1088.07 2106.57,1082.27 2116.84,1079.89 2127.11,1082.09 2137.38,1089.88 2147.65,1103.96 2157.92,1124.51 2168.19,1151.04 2178.46,1182.2 2188.73,1215.59 
  2199,1247.79 2209.28,1274.33 2219.55,1290.09 2229.82,1289.85 2240.09,1269.46 2250.36,1227.59 2260.63,1168.42 2270.9,1105.48 2281.17,1067.19 2291.44,1104.3 
  
  "/>
<polyline clip-path="url(#clip302)" style="stroke:#ac8d18; stroke-linecap:round; stroke-linejoin:round; stroke-width:16; stroke-opacity:1; fill:none" points="
  247.59,1234.01 257.86,1172.01 268.131,1166.08 278.401,1181.16 288.672,1198.2 298.943,1208.49 309.213,1209.55 319.484,1202.39 329.754,1189.61 340.025,1174.19 
  350.296,1158.82 360.566,1145.57 370.837,1135.72 381.107,1129.83 391.378,1127.84 401.649,1129.23 411.919,1133.17 422.19,1138.7 432.46,1144.81 442.731,1150.6 
  453.002,1155.29 463.272,1158.32 473.543,1159.32 483.813,1158.13 494.084,1154.8 504.355,1149.51 514.625,1142.57 524.896,1134.39 535.167,1125.41 545.437,1116.08 
  555.708,1106.82 565.978,1098.01 576.249,1089.94 586.52,1082.85 596.79,1076.85 607.061,1072 617.331,1068.24 627.602,1065.46 637.873,1063.46 648.143,1062.02 
  658.414,1060.86 668.684,1059.7 678.955,1058.25 689.226,1056.22 699.496,1053.38 709.767,1049.49 720.037,1044.4 730.308,1037.96 740.579,1030.11 750.849,1020.82 
  761.12,1010.12 771.39,998.081 781.661,984.815 791.932,970.465 802.202,955.197 812.473,939.193 822.744,922.643 833.014,905.732 843.285,888.635 853.555,871.51 
  863.826,854.489 874.097,837.676 884.367,821.142 894.638,804.924 904.908,789.022 915.179,773.403 925.45,758.001 935.72,742.722 945.991,727.45 956.261,712.049 
  966.532,696.371 976.803,680.264 987.073,663.579 997.344,646.175 1007.61,627.926 1017.89,608.729 1028.16,588.509 1038.43,567.223 1048.7,544.863 1058.97,521.461 
  1069.24,497.087 1079.51,471.854 1089.78,445.912 1100.05,419.45 1110.32,392.688 1120.59,365.879 1130.86,339.296 1141.13,313.234 1151.4,287.997 1161.67,263.895 
  1171.94,241.234 1182.21,220.31 1192.49,201.403 1202.76,184.768 1213.03,170.632 1223.3,159.183 1233.57,150.573 1243.84,144.907 1254.11,142.245 1264.38,142.599 
  1274.65,145.932 1284.92,152.162 1295.19,161.16 1305.46,172.754 1315.73,186.736 1326,202.865 1336.27,220.871 1346.54,240.467 1356.82,261.349 1367.09,283.209 
  1377.36,305.739 1387.63,328.64 1397.9,351.628 1408.17,374.442 1418.44,396.846 1428.71,418.64 1438.98,439.66 1449.25,459.781 1459.52,478.921 1469.79,497.042 
  1480.06,514.146 1490.33,530.278 1500.6,545.52 1510.87,559.988 1521.14,573.827 1531.42,587.207 1541.69,600.312 1551.96,613.339 1562.23,626.484 1572.5,639.941 
  1582.77,653.888 1593.04,668.485 1603.31,683.867 1613.58,700.134 1623.85,717.351 1634.12,735.541 1644.39,754.684 1654.66,774.716 1664.93,795.528 1675.2,816.971 
  1685.47,838.854 1695.75,860.955 1706.02,883.024 1716.29,904.79 1726.56,925.971 1736.83,946.284 1747.1,965.452 1757.37,983.217 1767.64,999.348 1777.91,1013.65 
  1788.18,1025.98 1798.45,1036.25 1808.72,1044.41 1818.99,1050.51 1829.26,1054.64 1839.53,1056.97 1849.8,1057.72 1860.07,1057.18 1870.35,1055.7 1880.62,1053.66 
  1890.89,1051.46 1901.16,1049.53 1911.43,1048.3 1921.7,1048.16 1931.97,1049.47 1942.24,1052.55 1952.51,1057.63 1962.78,1064.84 1973.05,1074.24 1983.32,1085.74 
  1993.59,1099.14 2003.86,1114.15 2014.13,1130.31 2024.4,1147.09 2034.68,1163.86 2044.95,1179.93 2055.22,1194.57 2065.49,1207.07 2075.76,1216.74 2086.03,1223 
  2096.3,1225.42 2106.57,1223.74 2116.84,1217.96 2127.11,1208.34 2137.38,1195.47 2147.65,1180.23 2157.92,1163.84 2168.19,1147.76 2178.46,1133.66 2188.73,1123.29 
  2199,1118.3 2209.28,1120 2219.55,1129.07 2229.82,1145.12 2240.09,1166.26 2250.36,1188.43 2260.63,1204.73 2270.9,1204.51 2281.17,1172.39 2291.44,1087.04 
  
  "/>
<polyline clip-path="url(#clip302)" style="stroke:#00a9ad; stroke-linecap:round; stroke-linejoin:round; stroke-width:16; stroke-opacity:1; fill:none" points="
  247.59,1188.54 257.86,1228.19 268.131,1245.27 278.401,1244.19 288.672,1230.22 298.943,1208.63 309.213,1184.06 319.484,1160.22 329.754,1139.84 340.025,1124.61 
  350.296,1115.36 360.566,1112.17 370.837,1114.54 381.107,1121.59 391.378,1132.18 401.649,1145.04 411.919,1158.94 422.19,1172.71 432.46,1185.33 442.731,1195.98 
  453.002,1204.04 463.272,1209.1 473.543,1210.98 483.813,1209.66 494.084,1205.28 504.355,1198.12 514.625,1188.55 524.896,1177.01 535.167,1163.97 545.437,1149.92 
  555.708,1135.31 565.978,1120.59 576.249,1106.13 586.52,1092.26 596.79,1079.23 607.061,1067.23 617.331,1056.37 627.602,1046.7 637.873,1038.21 648.143,1030.84 
  658.414,1024.49 668.684,1019 678.955,1014.21 689.226,1009.93 699.496,1005.97 709.767,1002.14 720.037,998.241 730.308,994.113 740.579,989.593 750.849,984.546 
  761.12,978.86 771.39,972.444 781.661,965.232 791.932,957.181 802.202,948.27 812.473,938.493 822.744,927.862 833.014,916.402 843.285,904.146 853.555,891.135 
  863.826,877.411 874.097,863.018 884.367,847.997 894.638,832.387 904.908,816.221 915.179,799.526 925.45,782.321 935.72,764.62 945.991,746.433 956.261,727.761 
  966.532,708.604 976.803,688.961 987.073,668.83 997.344,648.211 1007.61,627.109 1017.89,605.534 1028.16,583.506 1038.43,561.054 1048.7,538.218 1058.97,515.053 
  1069.24,491.624 1079.51,468.015 1089.78,444.319 1100.05,420.647 1110.32,397.121 1120.59,373.876 1130.86,351.056 1141.13,328.817 1151.4,307.316 1161.67,286.72 
  1171.94,267.193 1182.21,248.901 1192.49,232.002 1202.76,216.652 1213.03,202.994 1223.3,191.16 1233.57,181.269 1243.84,173.421 1254.11,167.7 1264.38,164.17 
  1274.65,162.871 1284.92,163.826 1295.19,167.033 1305.46,172.469 1315.73,180.09 1326,189.832 1336.27,201.61 1346.54,215.323 1356.82,230.852 1367.09,248.067 
  1377.36,266.824 1387.63,286.971 1397.9,308.348 1408.17,330.792 1418.44,354.136 1428.71,378.216 1438.98,402.869 1449.25,427.936 1459.52,453.265 1469.79,478.712 
  1480.06,504.143 1490.33,529.431 1500.6,554.464 1510.87,579.136 1521.14,603.358 1531.42,627.047 1541.69,650.133 1551.96,672.557 1562.23,694.266 1572.5,715.219 
  1582.77,735.381 1593.04,754.722 1603.31,773.221 1613.58,790.859 1623.85,807.623 1634.12,823.503 1644.39,838.49 1654.66,852.581 1664.93,865.776 1675.2,878.076 
  1685.47,889.488 1695.75,900.022 1706.02,909.694 1716.29,918.528 1726.56,926.552 1736.83,933.805 1747.1,940.334 1757.37,946.196 1767.64,951.46 1777.91,956.203 
  1788.18,960.515 1798.45,964.497 1808.72,968.256 1818.99,971.91 1829.26,975.579 1839.53,979.39 1849.8,983.467 1860.07,987.93 1870.35,992.893 1880.62,998.456 
  1890.89,1004.7 1901.16,1011.7 1911.43,1019.48 1921.7,1028.06 1931.97,1037.41 1942.24,1047.48 1952.51,1058.18 1962.78,1069.37 1973.05,1080.91 1983.32,1092.59 
  1993.59,1104.22 2003.86,1115.55 2014.13,1126.36 2024.4,1136.39 2034.68,1145.44 2044.95,1153.3 2055.22,1159.82 2065.49,1164.88 2075.76,1168.46 2086.03,1170.59 
  2096.3,1171.37 2106.57,1171 2116.84,1169.77 2127.11,1168 2137.38,1166.1 2147.65,1164.49 2157.92,1163.57 2168.19,1163.7 2178.46,1165.12 2188.73,1167.93 
  2199,1171.98 2209.28,1176.84 2219.55,1181.75 2229.82,1185.61 2240.09,1186.93 2250.36,1183.94 2260.63,1174.72 2270.9,1157.37 2281.17,1130.45 2291.44,1093.52 
  
  "/>
<polyline clip-path="url(#clip302)" style="stroke:#ed5d92; stroke-linecap:round; stroke-linejoin:round; stroke-width:16; stroke-opacity:1; fill:none" points="
  247.59,1049.3 257.86,1030.83 268.131,1033.42 278.401,1046.08 288.672,1062.8 298.943,1080.58 309.213,1098.16 319.484,1115.14 329.754,1131.46 340.025,1147.14 
  350.296,1162.09 360.566,1176.11 370.837,1188.89 381.107,1200.08 391.378,1209.28 401.649,1216.15 411.919,1220.45 422.19,1222.01 432.46,1220.82 442.731,1216.97 
  453.002,1210.67 463.272,1202.23 473.543,1192.04 483.813,1180.51 494.084,1168.12 504.355,1155.3 514.625,1142.48 524.896,1130.04 535.167,1118.31 545.437,1107.53 
  555.708,1097.89 565.978,1089.48 576.249,1082.34 586.52,1076.43 596.79,1071.65 607.061,1067.86 617.331,1064.86 627.602,1062.45 637.873,1060.39 648.143,1058.47 
  658.414,1056.44 668.684,1054.1 678.955,1051.26 689.226,1047.74 699.496,1043.43 709.767,1038.2 720.037,1032.01 730.308,1024.8 740.579,1016.57 750.849,1007.34 
  761.12,997.154 771.39,986.064 781.661,974.147 791.932,961.483 802.202,948.157 812.473,934.254 822.744,919.856 833.014,905.034 843.285,889.852 853.555,874.362 
  863.826,858.601 874.097,842.594 884.367,826.354 894.638,809.88 904.908,793.161 915.179,776.177 925.45,758.904 935.72,741.312 945.991,723.369 956.261,705.047 
  966.532,686.319 976.803,667.168 987.073,647.582 997.344,627.562 1007.61,607.119 1017.89,586.277 1028.16,565.074 1038.43,543.56 1048.7,521.8 1058.97,499.868 
  1069.24,477.852 1079.51,455.848 1089.78,433.961 1100.05,412.302 1110.32,390.987 1120.59,370.131 1130.86,349.853 1141.13,330.268 1151.4,311.488 1161.67,293.619 
  1171.94,276.761 1182.21,261.006 1192.49,246.437 1202.76,233.128 1213.03,221.142 1223.3,210.534 1233.57,201.348 1243.84,193.62 1254.11,187.376 1264.38,182.636 
  1274.65,179.412 1284.92,177.709 1295.19,177.53 1305.46,178.871 1315.73,181.725 1326,186.082 1336.27,191.932 1346.54,199.259 1356.82,208.048 1367.09,218.28 
  1377.36,229.934 1387.63,242.986 1397.9,257.407 1408.17,273.164 1418.44,290.219 1428.71,308.526 1438.98,328.03 1449.25,348.669 1459.52,370.371 1469.79,393.053 
  1480.06,416.622 1490.33,440.972 1500.6,465.989 1510.87,491.547 1521.14,517.511 1531.42,543.74 1541.69,570.084 1551.96,596.392 1562.23,622.507 1572.5,648.278 
  1582.77,673.556 1593.04,698.197 1603.31,722.071 1613.58,745.058 1623.85,767.055 1634.12,787.977 1644.39,807.761 1654.66,826.363 1664.93,843.766 1675.2,859.975 
  1685.47,875.016 1695.75,888.94 1706.02,901.816 1716.29,913.733 1726.56,924.791 1736.83,935.102 1747.1,944.784 1757.37,953.953 1767.64,962.724 1777.91,971.2 
  1788.18,979.472 1798.45,987.611 1808.72,995.667 1818.99,1003.66 1829.26,1011.6 1839.53,1019.45 1849.8,1027.16 1860.07,1034.65 1870.35,1041.83 1880.62,1048.59 
  1890.89,1054.83 1901.16,1060.43 1911.43,1065.3 1921.7,1069.36 1931.97,1072.57 1942.24,1074.92 1952.51,1076.46 1962.78,1077.28 1973.05,1077.52 1983.32,1077.38 
  1993.59,1077.11 2003.86,1076.99 2014.13,1077.33 2024.4,1078.44 2034.68,1080.61 2044.95,1084.11 2055.22,1089.13 2065.49,1095.75 2075.76,1103.97 2086.03,1113.62 
  2096.3,1124.41 2106.57,1135.88 2116.84,1147.45 2127.11,1158.46 2137.38,1168.2 2147.65,1176.01 2157.92,1181.35 2168.19,1183.95 2178.46,1183.91 2188.73,1181.8 
  2199,1178.74 2209.28,1176.4 2219.55,1176.88 2229.82,1182.37 2240.09,1194.57 2250.36,1213.63 2260.63,1236.55 2270.9,1254.81 2281.17,1250.89 2291.44,1193.51 
  
  "/>
<polyline clip-path="url(#clip302)" style="stroke:#c68125; stroke-linecap:round; stroke-linejoin:round; stroke-width:16; stroke-opacity:1; fill:none" points="
  247.59,1315.35 257.86,1169.58 268.131,1128.58 278.401,1135.42 288.672,1157.47 298.943,1177.92 309.213,1189.91 319.484,1192.29 329.754,1186.85 340.025,1176.54 
  350.296,1164.34 360.566,1152.73 370.837,1143.4 381.107,1137.24 391.378,1134.44 401.649,1134.66 411.919,1137.17 422.19,1141.07 432.46,1145.37 442.731,1149.2 
  453.002,1151.81 463.272,1152.64 473.543,1151.37 483.813,1147.87 494.084,1142.22 504.355,1134.64 514.625,1125.5 524.896,1115.21 535.167,1104.23 545.437,1093.03 
  555.708,1082.02 565.978,1071.58 576.249,1061.99 586.52,1053.45 596.79,1046.06 607.061,1039.86 617.331,1034.77 627.602,1030.68 637.873,1027.39 648.143,1024.68 
  658.414,1022.31 668.684,1020.01 678.955,1017.54 689.226,1014.67 699.496,1011.2 709.767,1006.95 720.037,1001.83 730.308,995.731 740.579,988.64 750.849,980.56 
  761.12,971.539 771.39,961.654 781.661,951.009 791.932,939.723 802.202,927.923 812.473,915.737 822.744,903.287 833.014,890.68 843.285,878.002 853.555,865.318 
  863.826,852.664 874.097,840.048 884.367,827.448 894.638,814.815 904.908,802.074 915.179,789.129 925.45,775.866 935.72,762.16 945.991,747.879 956.261,732.892 
  966.532,717.072 976.803,700.308 987.073,682.503 997.344,663.585 1007.61,643.509 1017.89,622.258 1028.16,599.851 1038.43,576.339 1048.7,551.808 1058.97,526.378 
  1069.24,500.2 1079.51,473.455 1089.78,446.347 1100.05,419.105 1110.32,391.971 1120.59,365.199 1130.86,339.049 1141.13,313.779 1151.4,289.643 1161.67,266.883 
  1171.94,245.724 1182.21,226.373 1192.49,209.01 1202.76,193.789 1213.03,180.834 1223.3,170.238 1233.57,162.062 1243.84,156.336 1254.11,153.057 1264.38,152.197 
  1274.65,153.698 1284.92,157.48 1295.19,163.439 1305.46,171.459 1315.73,181.408 1326,193.142 1336.27,206.517 1346.54,221.38 1356.82,237.585 1367.09,254.985 
  1377.36,273.442 1387.63,292.824 1397.9,313.008 1408.17,333.883 1418.44,355.345 1428.71,377.3 1438.98,399.665 1449.25,422.36 1459.52,445.313 1469.79,468.456 
  1480.06,491.72 1490.33,515.039 1500.6,538.343 1510.87,561.559 1521.14,584.609 1531.42,607.409 1541.69,629.872 1551.96,651.903 1562.23,673.404 1572.5,694.276 
  1582.77,714.417 1593.04,733.732 1603.31,752.127 1613.58,769.523 1623.85,785.85 1634.12,801.058 1644.39,815.118 1654.66,828.024 1664.93,839.799 1675.2,850.495 
  1685.47,860.193 1695.75,869.006 1706.02,877.076 1716.29,884.574 1726.56,891.69 1736.83,898.637 1747.1,905.638 1757.37,912.918 1767.64,920.702 1777.91,929.198 
  1788.18,938.591 1798.45,949.037 1808.72,960.644 1818.99,973.473 1829.26,987.526 1839.53,1002.74 1849.8,1018.99 1860.07,1036.08 1870.35,1053.76 1880.62,1071.69 
  1890.89,1089.52 1901.16,1106.83 1911.43,1123.21 1921.7,1138.22 1931.97,1151.46 1942.24,1162.55 1952.51,1171.19 1962.78,1177.16 1973.05,1180.37 1983.32,1180.82 
  1993.59,1178.68 2003.86,1174.25 2014.13,1167.99 2024.4,1160.5 2034.68,1152.47 2044.95,1144.7 2055.22,1138.04 2065.49,1133.3 2075.76,1131.27 2086.03,1132.58 
  2096.3,1137.67 2106.57,1146.72 2116.84,1159.59 2127.11,1175.79 2137.38,1194.45 2147.65,1214.33 2157.92,1233.92 2168.19,1251.49 2178.46,1265.27 2188.73,1273.7 
  2199,1275.63 2209.28,1270.71 2219.55,1259.69 2229.82,1244.71 2240.09,1229.62 2250.36,1220.01 2260.63,1223.08 2270.9,1247 2281.17,1299.65 2291.44,1386.51 
  
  "/>
<polyline clip-path="url(#clip302)" style="stroke:#00a98d; stroke-linecap:round; stroke-linejoin:round; stroke-width:16; stroke-opacity:1; fill:none" points="
  247.59,1124.81 257.86,1209.94 268.131,1221.4 278.401,1208.11 288.672,1194.48 298.943,1189.9 309.213,1195.31 319.484,1207.56 329.754,1222.13 340.025,1234.76 
  350.296,1242.25 360.566,1242.78 370.837,1235.82 381.107,1221.97 391.378,1202.61 401.649,1179.61 411.919,1155.01 422.19,1130.78 432.46,1108.65 442.731,1089.99 
  453.002,1075.71 463.272,1066.28 473.543,1061.76 483.813,1061.82 494.084,1065.85 504.355,1072.99 514.625,1082.3 524.896,1092.75 535.167,1103.35 545.437,1113.2 
  555.708,1121.53 565.978,1127.71 576.249,1131.33 586.52,1132.14 596.79,1130.08 607.061,1125.26 617.331,1117.92 627.602,1108.43 637.873,1097.23 648.143,1084.82 
  658.414,1071.69 668.684,1058.37 678.955,1045.31 689.226,1032.92 699.496,1021.51 709.767,1011.35 720.037,1002.56 730.308,995.204 740.579,989.234 750.849,984.521 
  761.12,980.86 771.39,977.981 781.661,975.569 791.932,973.274 802.202,970.732 812.473,967.578 822.744,963.46 833.014,958.056 843.285,951.084 853.555,942.307 
  863.826,931.547 874.097,918.683 884.367,903.658 894.638,886.474 904.908,867.191 915.179,845.924 925.45,822.835 935.72,798.123 945.991,772.022 956.261,744.786 
  966.532,716.681 976.803,687.979 987.073,658.945 997.344,629.835 1007.61,600.884 1017.89,572.302 1028.16,544.274 1038.43,516.95 1048.7,490.451 1058.97,464.867 
  1069.24,440.255 1079.51,416.647 1089.78,394.051 1100.05,372.456 1110.32,351.839 1120.59,332.166 1130.86,313.405 1141.13,295.523 1151.4,278.498 1161.67,262.322 
  1171.94,247 1182.21,232.561 1192.49,219.053 1202.76,206.547 1213.03,195.136 1223.3,184.934 1233.57,176.072 1243.84,168.694 1254.11,162.955 1264.38,159.012 
  1274.65,157.023 1284.92,157.134 1295.19,159.48 1305.46,164.174 1315.73,171.302 1326,180.92 1336.27,193.044 1346.54,207.655 1356.82,224.689 1367.09,244.037 
  1377.36,265.55 1387.63,289.036 1397.9,314.263 1408.17,340.965 1418.44,368.847 1428.71,397.591 1438.98,426.863 1449.25,456.323 1459.52,485.632 1469.79,514.46 
  1480.06,542.499 1490.33,569.466 1500.6,595.114 1510.87,619.238 1521.14,641.681 1531.42,662.338 1541.69,681.159 1551.96,698.149 1562.23,713.37 1572.5,726.936 
  1582.77,739.007 1593.04,749.789 1603.31,759.52 1613.58,768.463 1623.85,776.899 1634.12,785.113 1644.39,793.383 1654.66,801.971 1664.93,811.112 1675.2,821.001 
  1685.47,831.789 1695.75,843.574 1706.02,856.394 1716.29,870.23 1726.56,885 1736.83,900.564 1747.1,916.73 1757.37,933.259 1767.64,949.877 1777.91,966.287 
  1788.18,982.181 1798.45,997.255 1808.72,1011.23 1818.99,1023.86 1829.26,1034.94 1839.53,1044.34 1849.8,1052.01 1860.07,1057.95 1870.35,1062.28 1880.62,1065.19 
  1890.89,1066.94 1901.16,1067.86 1911.43,1068.34 1921.7,1068.81 1931.97,1069.71 1942.24,1071.44 1952.51,1074.4 1962.78,1078.88 1973.05,1085.1 1983.32,1093.14 
  1993.59,1102.96 2003.86,1114.35 2014.13,1126.96 2024.4,1140.29 2034.68,1153.72 2044.95,1166.52 2055.22,1177.95 2065.49,1187.23 2075.76,1193.68 2086.03,1196.77 
  2096.3,1196.16 2106.57,1191.78 2116.84,1183.9 2127.11,1173.11 2137.38,1160.37 2147.65,1146.92 2157.92,1134.18 2168.19,1123.65 2178.46,1116.69 2188.73,1114.25 
  2199,1116.67 2209.28,1123.4 2219.55,1132.87 2229.82,1142.47 2240.09,1148.84 2250.36,1148.7 2260.63,1140.27 2270.9,1125.85 2281.17,1115.74 2291.44,1134.24 
  
  "/>
<polyline clip-path="url(#clip302)" style="stroke:#8e971d; stroke-linecap:round; stroke-linejoin:round; stroke-width:16; stroke-opacity:1; fill:none" points="
  247.59,1138.85 257.86,1227.91 268.131,1241.57 278.401,1221.26 288.672,1190.85 298.943,1162.71 309.213,1142.08 319.484,1130.04 329.754,1125.51 340.025,1126.54 
  350.296,1131.03 360.566,1137.17 370.837,1143.58 381.107,1149.39 391.378,1154.12 401.649,1157.65 411.919,1160.06 422.19,1161.56 432.46,1162.4 442.731,1162.81 
  453.002,1162.97 463.272,1162.97 473.543,1162.83 483.813,1162.48 494.084,1161.79 504.355,1160.61 514.625,1158.75 524.896,1156.06 535.167,1152.38 545.437,1147.62 
  555.708,1141.71 565.978,1134.67 576.249,1126.53 586.52,1117.43 596.79,1107.49 607.061,1096.92 617.331,1085.92 627.602,1074.7 637.873,1063.48 648.143,1052.46 
  658.414,1041.82 668.684,1031.69 678.955,1022.19 689.226,1013.36 699.496,1005.22 709.767,997.742 720.037,990.848 730.308,984.429 740.579,978.341 750.849,972.419 
  761.12,966.478 771.39,960.328 781.661,953.777 791.932,946.644 802.202,938.759 812.473,929.977 822.744,920.178 833.014,909.269 843.285,897.194 853.555,883.928 
  863.826,869.477 874.097,853.881 884.367,837.206 894.638,819.544 904.908,801.008 915.179,781.723 925.45,761.828 935.72,741.463 945.991,720.769 956.261,699.881 
  966.532,678.926 976.803,658.014 987.073,637.242 997.344,616.687 1007.61,596.407 1017.89,576.442 1028.16,556.81 1038.43,537.516 1048.7,518.549 1058.97,499.885 
  1069.24,481.497 1079.51,463.349 1089.78,445.41 1100.05,427.652 1110.32,410.056 1120.59,392.617 1130.86,375.344 1141.13,358.267 1151.4,341.437 1161.67,324.925 
  1171.94,308.827 1182.21,293.259 1192.49,278.36 1202.76,264.284 1213.03,251.203 1223.3,239.299 1233.57,228.761 1243.84,219.779 1254.11,212.541 1264.38,207.224 
  1274.65,203.991 1284.92,202.987 1295.19,204.33 1305.46,208.108 1315.73,214.378 1326,223.158 1336.27,234.43 1346.54,248.135 1356.82,264.175 1367.09,282.413 
  1377.36,302.674 1387.63,324.753 1397.9,348.413 1408.17,373.394 1418.44,399.415 1428.71,426.187 1438.98,453.411 1449.25,480.793 1459.52,508.046 1469.79,534.897 
  1480.06,561.095 1490.33,586.418 1500.6,610.674 1510.87,633.708 1521.14,655.403 1531.42,675.684 1541.69,694.517 1551.96,711.907 1562.23,727.898 1572.5,742.568 
  1582.77,756.027 1593.04,768.408 1603.31,779.862 1613.58,790.553 1623.85,800.65 1634.12,810.316 1644.39,819.709 1654.66,828.966 1664.93,838.206 1675.2,847.518 
  1685.47,856.964 1695.75,866.571 1706.02,876.336 1716.29,886.223 1726.56,896.168 1736.83,906.084 1747.1,915.866 1757.37,925.399 1767.64,934.563 1777.91,943.25 
  1788.18,951.362 1798.45,958.83 1808.72,965.615 1818.99,971.719 1829.26,977.188 1839.53,982.116 1849.8,986.643 1860.07,990.955 1870.35,995.277 1880.62,999.861 
  1890.89,1004.98 1901.16,1010.9 1911.43,1017.89 1921.7,1026.17 1931.97,1035.91 1942.24,1047.2 1952.51,1060.05 1962.78,1074.36 1973.05,1089.92 1983.32,1106.39 
  1993.59,1123.31 2003.86,1140.14 2014.13,1156.24 2024.4,1170.91 2034.68,1183.46 2044.95,1193.2 2055.22,1199.57 2065.49,1202.11 2075.76,1200.61 2086.03,1195.08 
  2096.3,1185.84 2106.57,1173.52 2116.84,1159.06 2127.11,1143.68 2137.38,1128.8 2147.65,1115.91 2157.92,1106.44 2168.19,1101.55 2178.46,1101.89 2188.73,1107.41 
  2199,1117.18 2209.28,1129.32 2219.55,1141.13 2229.82,1149.54 2240.09,1152.06 2250.36,1148.43 2260.63,1143.31 2270.9,1150.33 2281.17,1198.07 2291.44,1338.5 
  
  "/>
<polyline clip-path="url(#clip302)" style="stroke:#00a8cb; stroke-linecap:round; stroke-linejoin:round; stroke-width:16; stroke-opacity:1; fill:none" points="
  247.59,1291.19 257.86,1277.96 268.131,1248.93 278.401,1212.22 288.672,1174.38 298.943,1140.15 309.213,1112.56 319.484,1093.14 329.754,1082.18 340.025,1079.07 
  350.296,1082.54 360.566,1090.99 370.837,1102.65 381.107,1115.8 391.378,1128.9 401.649,1140.64 411.919,1150.07 422.19,1156.54 432.46,1159.72 442.731,1159.6 
  453.002,1156.38 463.272,1150.5 473.543,1142.51 483.813,1133.05 494.084,1122.81 504.355,1112.46 514.625,1102.61 524.896,1093.79 535.167,1086.42 545.437,1080.8 
  555.708,1077.11 565.978,1075.39 576.249,1075.57 586.52,1077.47 596.79,1080.82 607.061,1085.26 617.331,1090.41 627.602,1095.83 637.873,1101.08 648.143,1105.74 
  658.414,1109.4 668.684,1111.71 678.955,1112.35 689.226,1111.08 699.496,1107.73 709.767,1102.19 720.037,1094.44 730.308,1084.5 740.579,1072.49 750.849,1058.55 
  761.12,1042.9 771.39,1025.78 781.661,1007.45 791.932,988.199 802.202,968.322 812.473,948.1 822.744,927.8 833.014,907.665 843.285,887.906 853.555,868.695 
  863.826,850.161 874.097,832.391 884.367,815.42 894.638,799.243 904.908,783.806 915.179,769.018 925.45,754.75 935.72,740.845 945.991,727.122 956.261,713.383 
  966.532,699.422 976.803,685.03 987.073,670.009 997.344,654.17 1007.61,637.347 1017.89,619.401 1028.16,600.224 1038.43,579.744 1048.7,557.93 1058.97,534.791 
  1069.24,510.38 1079.51,484.791 1089.78,458.161 1100.05,430.663 1110.32,402.508 1120.59,373.936 1130.86,345.217 1141.13,316.636 1151.4,288.497 1161.67,261.11 
  1171.94,234.788 1182.21,209.838 1192.49,186.557 1202.76,165.223 1213.03,146.092 1223.3,129.394 1233.57,115.325 1243.84,104.046 1254.11,95.6796 1264.38,90.309 
  1274.65,87.9763 1284.92,88.6826 1295.19,92.389 1305.46,99.0185 1315.73,108.458 1326,120.562 1336.27,135.157 1346.54,152.043 1356.82,171.001 1367.09,191.798 
  1377.36,214.189 1387.63,237.926 1397.9,262.759 1408.17,288.443 1418.44,314.744 1428.71,341.438 1438.98,368.317 1449.25,395.195 1459.52,421.904 1469.79,448.3 
  1480.06,474.261 1490.33,499.691 1500.6,524.514 1510.87,548.679 1521.14,572.154 1531.42,594.924 1541.69,616.993 1551.96,638.376 1562.23,659.099 1572.5,679.196 
  1582.77,698.704 1593.04,717.665 1603.31,736.116 1613.58,754.095 1623.85,771.632 1634.12,788.753 1644.39,805.476 1654.66,821.81 1664.93,837.758 1675.2,853.317 
  1685.47,868.474 1695.75,883.214 1706.02,897.519 1716.29,911.367 1726.56,924.74 1736.83,937.619 1747.1,949.99 1757.37,961.847 1767.64,973.187 1777.91,984.019 
  1788.18,994.358 1798.45,1004.23 1808.72,1013.65 1818.99,1022.68 1829.26,1031.34 1839.53,1039.68 1849.8,1047.74 1860.07,1055.55 1870.35,1063.16 1880.62,1070.57 
  1890.89,1077.81 1901.16,1084.86 1911.43,1091.72 1921.7,1098.36 1931.97,1104.74 1942.24,1110.81 1952.51,1116.53 1962.78,1121.84 1973.05,1126.71 1983.32,1131.12 
  1993.59,1135.08 2003.86,1138.63 2014.13,1141.85 2024.4,1144.87 2034.68,1147.88 2044.95,1151.1 2055.22,1154.82 2065.49,1159.34 2075.76,1164.97 2086.03,1172.03 
  2096.3,1180.77 2106.57,1191.33 2116.84,1203.74 2127.11,1217.8 2137.38,1233.06 2147.65,1248.77 2157.92,1263.84 2168.19,1276.84 2178.46,1286.06 2188.73,1289.56 
  2199,1285.44 2209.28,1272.14 2219.55,1248.99 2229.82,1216.88 2240.09,1179.39 2250.36,1144.15 2260.63,1124.78 2270.9,1143.39 2281.17,1233.81 2291.44,1445.72 
  
  "/>
<polyline clip-path="url(#clip302)" style="stroke:#9b7fe8; stroke-linecap:round; stroke-linejoin:round; stroke-width:16; stroke-opacity:1; fill:none" points="
  247.59,1278.38 257.86,1267.9 268.131,1253.55 278.401,1237.98 288.672,1222.66 298.943,1208.31 309.213,1195.24 319.484,1183.55 329.754,1173.22 340.025,1164.2 
  350.296,1156.43 360.566,1149.86 370.837,1144.42 381.107,1140.06 391.378,1136.7 401.649,1134.25 411.919,1132.6 422.19,1131.64 432.46,1131.22 442.731,1131.2 
  453.002,1131.43 463.272,1131.75 473.543,1132.05 483.813,1132.17 494.084,1132.04 504.355,1131.54 514.625,1130.64 524.896,1129.27 535.167,1127.44 545.437,1125.13 
  555.708,1122.38 565.978,1119.2 576.249,1115.65 586.52,1111.76 596.79,1107.59 607.061,1103.19 617.331,1098.58 627.602,1093.81 637.873,1088.9 648.143,1083.85 
  658.414,1078.65 668.684,1073.31 678.955,1067.79 689.226,1062.05 699.496,1056.04 709.767,1049.73 720.037,1043.04 730.308,1035.92 740.579,1028.31 750.849,1020.15 
  761.12,1011.38 771.39,1001.97 781.661,991.869 791.932,981.041 802.202,969.466 812.473,957.129 822.744,944.026 833.014,930.16 843.285,915.544 853.555,900.2 
  863.826,884.153 874.097,867.438 884.367,850.09 894.638,832.151 904.908,813.662 915.179,794.666 925.45,775.207 935.72,755.325 945.991,735.061 956.261,714.455 
  966.532,693.541 976.803,672.356 987.073,650.933 997.344,629.303 1007.61,607.5 1017.89,585.556 1028.16,563.508 1038.43,541.391 1048.7,519.249 1058.97,497.127 
  1069.24,475.079 1079.51,453.163 1089.78,431.446 1100.05,410.002 1110.32,388.914 1120.59,368.271 1130.86,348.17 1141.13,328.717 1151.4,310.021 1161.67,292.198 
  1171.94,275.366 1182.21,259.644 1192.49,245.152 1202.76,232.009 1213.03,220.327 1223.3,210.213 1233.57,201.765 1243.84,195.071 1254.11,190.207 1264.38,187.233 
  1274.65,186.195 1284.92,187.121 1295.19,190.022 1305.46,194.89 1315.73,201.698 1326,210.401 1336.27,220.936 1346.54,233.221 1356.82,247.162 1367.09,262.646 
  1377.36,279.552 1387.63,297.745 1397.9,317.082 1408.17,337.418 1418.44,358.601 1428.71,380.48 1438.98,402.904 1449.25,425.728 1459.52,448.813 1469.79,472.027 
  1480.06,495.248 1490.33,518.366 1500.6,541.283 1510.87,563.911 1521.14,586.179 1531.42,608.025 1541.69,629.402 1551.96,650.273 1562.23,670.61 1572.5,690.397 
  1582.77,709.623 1593.04,728.284 1603.31,746.379 1613.58,763.912 1623.85,780.885 1634.12,797.302 1644.39,813.167 1654.66,828.479 1664.93,843.237 1675.2,857.439 
  1685.47,871.079 1695.75,884.152 1706.02,896.652 1716.29,908.576 1726.56,919.925 1736.83,930.705 1747.1,940.929 1757.37,950.619 1767.64,959.808 1777.91,968.541 
  1788.18,976.876 1798.45,984.882 1808.72,992.641 1818.99,1000.24 1829.26,1007.79 1839.53,1015.39 1849.8,1023.13 1860.07,1031.13 1870.35,1039.46 1880.62,1048.2 
  1890.89,1057.4 1901.16,1067.06 1911.43,1077.18 1921.7,1087.69 1931.97,1098.48 1942.24,1109.42 1952.51,1120.3 1962.78,1130.9 1973.05,1140.94 1983.32,1150.13 
  1993.59,1158.18 2003.86,1164.78 2014.13,1169.67 2024.4,1172.63 2034.68,1173.52 2044.95,1172.27 2055.22,1168.94 2065.49,1163.73 2075.76,1156.98 2086.03,1149.14 
  2096.3,1140.83 2106.57,1132.73 2116.84,1125.63 2127.11,1120.26 2137.38,1117.3 2147.65,1117.25 2157.92,1120.29 2168.19,1126.23 2178.46,1134.39 2188.73,1143.54 
  2199,1151.89 2209.28,1157.29 2219.55,1157.43 2229.82,1150.5 2240.09,1136.02 2250.36,1116.31 2260.63,1098.49 2270.9,1097.48 2281.17,1140.01 2291.44,1270.2 
  
  "/>
<polyline clip-path="url(#clip302)" style="stroke:#608cf6; stroke-linecap:round; stroke-linejoin:round; stroke-width:16; stroke-opacity:1; fill:none" points="
  247.59,1037.25 257.86,1194.94 268.131,1254.74 278.401,1261.73 288.672,1243.86 298.943,1217.51 309.213,1191.49 319.484,1169.8 329.754,1153.66 340.025,1142.77 
  350.296,1136.13 360.566,1132.6 370.837,1131.11 381.107,1130.81 391.378,1131.1 401.649,1131.6 411.919,1132.1 422.19,1132.52 432.46,1132.81 442.731,1132.96 
  453.002,1132.95 463.272,1132.73 473.543,1132.22 483.813,1131.29 494.084,1129.83 504.355,1127.69 514.625,1124.74 524.896,1120.89 535.167,1116.05 545.437,1110.22 
  555.708,1103.41 565.978,1095.72 576.249,1087.27 586.52,1078.24 596.79,1068.84 607.061,1059.31 617.331,1049.9 627.602,1040.86 637.873,1032.44 648.143,1024.84 
  658.414,1018.25 668.684,1012.8 678.955,1008.56 689.226,1005.58 699.496,1003.81 709.767,1003.17 720.037,1003.52 730.308,1004.66 740.579,1006.37 750.849,1008.37 
  761.12,1010.36 771.39,1012.04 781.661,1013.09 791.932,1013.2 802.202,1012.06 812.473,1009.42 822.744,1005.02 833.014,998.659 843.285,990.178 853.555,979.462 
  863.826,966.445 874.097,951.114 884.367,933.501 894.638,913.687 904.908,891.795 915.179,867.988 925.45,842.46 935.72,815.433 945.991,787.148 956.261,757.859 
  966.532,727.828 976.803,697.316 987.073,666.575 997.344,635.849 1007.61,605.361 1017.89,575.317 1028.16,545.895 1038.43,517.248 1048.7,489.505 1058.97,462.762 
  1069.24,437.094 1079.51,412.546 1089.78,389.145 1100.05,366.895 1110.32,345.789 1120.59,325.802 1130.86,306.908 1141.13,289.072 1151.4,272.264 1161.67,256.456 
  1171.94,241.628 1182.21,227.773 1192.49,214.895 1202.76,203.014 1213.03,192.165 1223.3,182.401 1233.57,173.788 1243.84,166.406 1254.11,160.349 1264.38,155.717 
  1274.65,152.619 1284.92,151.163 1295.19,151.457 1305.46,153.603 1315.73,157.691 1326,163.797 1336.27,171.98 1346.54,182.274 1356.82,194.691 1367.09,209.213 
  1377.36,225.794 1387.63,244.358 1397.9,264.796 1408.17,286.974 1418.44,310.727 1428.71,335.865 1438.98,362.176 1449.25,389.43 1459.52,417.385 1469.79,445.788 
  1480.06,474.386 1490.33,502.926 1500.6,531.165 1510.87,558.875 1521.14,585.847 1531.42,611.895 1541.69,636.864 1551.96,660.628 1562.23,683.099 1572.5,704.223 
  1582.77,723.982 1593.04,742.397 1603.31,759.519 1613.58,775.434 1623.85,790.255 1634.12,804.116 1644.39,817.17 1654.66,829.58 1664.93,841.516 1675.2,853.142 
  1685.47,864.616 1695.75,876.078 1706.02,887.648 1716.29,899.419 1726.56,911.452 1736.83,923.773 1747.1,936.375 1757.37,949.212 1767.64,962.204 1777.91,975.239 
  1788.18,988.178 1798.45,1000.86 1808.72,1013.11 1818.99,1024.75 1829.26,1035.6 1839.53,1045.49 1849.8,1054.29 1860.07,1061.88 1870.35,1068.19 1880.62,1073.2 
  1890.89,1076.95 1901.16,1079.51 1911.43,1081.03 1921.7,1081.69 1931.97,1081.75 1942.24,1081.49 1952.51,1081.21 1962.78,1081.24 1973.05,1081.89 1983.32,1083.47 
  1993.59,1086.22 2003.86,1090.35 2014.13,1095.96 2024.4,1103.09 2034.68,1111.64 2044.95,1121.41 2055.22,1132.11 2065.49,1143.32 2075.76,1154.53 2086.03,1165.18 
  2096.3,1174.7 2106.57,1182.5 2116.84,1188.1 2127.11,1191.13 2137.38,1191.39 2147.65,1188.94 2157.92,1184.12 2168.19,1177.57 2178.46,1170.23 2188.73,1163.34 
  2199,1158.29 2209.28,1156.54 2219.55,1159.35 2229.82,1167.49 2240.09,1180.89 2250.36,1198.04 2260.63,1215.52 2270.9,1227.18 2281.17,1223.46 2291.44,1190.55 
  
  "/>
<polyline clip-path="url(#clip302)" style="stroke:#f05f73; stroke-linecap:round; stroke-linejoin:round; stroke-width:16; stroke-opacity:1; fill:none" points="
  247.59,1146.98 257.86,1242.79 268.131,1244.65 278.401,1206.9 288.672,1160.95 298.943,1122.83 309.213,1098.82 319.484,1089.33 329.754,1091.68 340.025,1101.94 
  350.296,1116.01 360.566,1130.36 370.837,1142.32 381.107,1150.16 391.378,1153.03 401.649,1150.87 411.919,1144.18 422.19,1133.86 432.46,1121.05 442.731,1106.93 
  453.002,1092.67 463.272,1079.28 473.543,1067.58 483.813,1058.17 494.084,1051.4 504.355,1047.39 514.625,1046.08 524.896,1047.21 535.167,1050.4 545.437,1055.17 
  555.708,1060.98 565.978,1067.3 576.249,1073.57 586.52,1079.32 596.79,1084.09 607.061,1087.53 617.331,1089.38 627.602,1089.44 637.873,1087.63 648.143,1083.92 
  658.414,1078.39 668.684,1071.14 678.955,1062.36 689.226,1052.26 699.496,1041.07 709.767,1029.04 720.037,1016.4 730.308,1003.4 740.579,990.239 750.849,977.106 
  761.12,964.149 771.39,951.482 781.661,939.179 791.932,927.278 802.202,915.778 812.473,904.645 822.744,893.817 833.014,883.205 843.285,872.698 853.555,862.174 
  863.826,851.501 874.097,840.541 884.367,829.16 894.638,817.231 904.908,804.635 915.179,791.269 925.45,777.046 935.72,761.897 945.991,745.775 956.261,728.652 
  966.532,710.524 976.803,691.405 987.073,671.329 997.344,650.349 1007.61,628.535 1017.89,605.97 1028.16,582.751 1038.43,558.986 1048.7,534.788 1058.97,510.282 
  1069.24,485.592 1079.51,460.849 1089.78,436.184 1100.05,411.727 1110.32,387.61 1120.59,363.96 1130.86,340.906 1141.13,318.572 1151.4,297.079 1161.67,276.545 
  1171.94,257.088 1182.21,238.818 1192.49,221.847 1202.76,206.279 1213.03,192.217 1223.3,179.76 1233.57,169.001 1243.84,160.028 1254.11,152.924 1264.38,147.764 
  1274.65,144.614 1284.92,143.532 1295.19,144.563 1305.46,147.741 1315.73,153.086 1326,160.6 1336.27,170.273 1346.54,182.074 1356.82,195.953 1367.09,211.843 
  1377.36,229.654 1387.63,249.28 1397.9,270.59 1408.17,293.44 1418.44,317.663 1428.71,343.079 1438.98,369.493 1449.25,396.697 1459.52,424.475 1469.79,452.602 
  1480.06,480.855 1490.33,509.007 1500.6,536.837 1510.87,564.133 1521.14,590.691 1531.42,616.327 1541.69,640.872 1551.96,664.181 1562.23,686.132 1572.5,706.63 
  1582.77,725.609 1593.04,743.034 1603.31,758.898 1613.58,773.227 1623.85,786.074 1634.12,797.524 1644.39,807.685 1654.66,816.692 1664.93,824.698 1675.2,831.873 
  1685.47,838.402 1695.75,844.475 1706.02,850.288 1716.29,856.033 1726.56,861.896 1736.83,868.052 1747.1,874.659 1757.37,881.854 1767.64,889.75 1777.91,898.431 
  1788.18,907.95 1798.45,918.328 1808.72,929.551 1818.99,941.572 1829.26,954.308 1839.53,967.645 1849.8,981.439 1860.07,995.52 1870.35,1009.7 1880.62,1023.76 
  1890.89,1037.48 1901.16,1050.65 1911.43,1063.04 1921.7,1074.44 1931.97,1084.66 1942.24,1093.54 1952.51,1100.95 1962.78,1106.81 1973.05,1111.07 1983.32,1113.78 
  1993.59,1115.01 2003.86,1114.93 2014.13,1113.75 2024.4,1111.78 2034.68,1109.37 2044.95,1106.93 2055.22,1104.93 2065.49,1103.87 2075.76,1104.23 2086.03,1106.51 
  2096.3,1111.11 2106.57,1118.37 2116.84,1128.47 2127.11,1141.39 2137.38,1156.88 2147.65,1174.38 2157.92,1193.01 2168.19,1211.54 2178.46,1228.37 2188.73,1241.64 
  2199,1249.34 2209.28,1249.54 2219.55,1240.78 2229.82,1222.67 2240.09,1196.74 2250.36,1167.6 2260.63,1144.68 2270.9,1144.46 2281.17,1193.48 2291.44,1332.41 
  
  "/>
<polyline clip-path="url(#clip302)" style="stroke:#dd64b5; stroke-linecap:round; stroke-linejoin:round; stroke-width:16; stroke-opacity:1; fill:none" points="
  247.59,1412.93 257.86,1268.42 268.131,1208.74 278.401,1197.73 288.672,1211.36 298.943,1234.35 309.213,1257.57 319.484,1276.15 329.754,1287.99 340.025,1292.78 
  350.296,1291.21 360.566,1284.47 370.837,1273.93 381.107,1260.94 391.378,1246.64 401.649,1231.99 411.919,1217.69 422.19,1204.22 432.46,1191.85 442.731,1180.71 
  453.002,1170.79 463.272,1161.98 473.543,1154.13 483.813,1147.04 494.084,1140.51 504.355,1134.34 514.625,1128.36 524.896,1122.42 535.167,1116.39 545.437,1110.18 
  555.708,1103.73 565.978,1097 576.249,1089.99 586.52,1082.71 596.79,1075.17 607.061,1067.43 617.331,1059.51 627.602,1051.49 637.873,1043.4 648.143,1035.29 
  658.414,1027.22 668.684,1019.22 678.955,1011.33 689.226,1003.57 699.496,995.961 709.767,988.508 720.037,981.212 730.308,974.059 740.579,967.032 750.849,960.099 
  761.12,953.224 771.39,946.359 781.661,939.451 791.932,932.439 802.202,925.257 812.473,917.832 822.744,910.09 833.014,901.952 843.285,893.337 853.555,884.166 
  863.826,874.359 874.097,863.839 884.367,852.535 894.638,840.381 904.908,827.316 915.179,813.29 925.45,798.262 935.72,782.203 945.991,765.095 956.261,746.935 
  966.532,727.734 976.803,707.517 987.073,686.323 997.344,664.209 1007.61,641.244 1017.89,617.515 1028.16,593.12 1038.43,568.171 1048.7,542.794 1058.97,517.122 
  1069.24,491.301 1079.51,465.483 1089.78,439.825 1100.05,414.489 1110.32,389.638 1120.59,365.438 1130.86,342.049 1141.13,319.63 1151.4,298.334 1161.67,278.306 
  1171.94,259.683 1182.21,242.591 1192.49,227.143 1202.76,213.443 1213.03,201.577 1223.3,191.621 1233.57,183.633 1243.84,177.659 1254.11,173.726 1264.38,171.85 
  1274.65,172.031 1284.92,174.255 1295.19,178.492 1305.46,184.704 1315.73,192.836 1326,202.825 1336.27,214.596 1346.54,228.066 1356.82,243.142 1367.09,259.723 
  1377.36,277.704 1387.63,296.972 1397.9,317.409 1408.17,338.896 1418.44,361.306 1428.71,384.514 1438.98,408.391 1449.25,432.807 1459.52,457.632 1469.79,482.737 
  1480.06,507.993 1490.33,533.275 1500.6,558.458 1510.87,583.423 1521.14,608.054 1531.42,632.242 1541.69,655.882 1551.96,678.88 1562.23,701.147 1572.5,722.606 
  1582.77,743.191 1593.04,762.845 1603.31,781.528 1613.58,799.21 1623.85,815.876 1634.12,831.529 1644.39,846.183 1654.66,859.87 1664.93,872.636 1675.2,884.541 
  1685.47,895.661 1695.75,906.079 1706.02,915.893 1716.29,925.207 1726.56,934.131 1736.83,942.776 1747.1,951.255 1757.37,959.675 1767.64,968.136 1777.91,976.726 
  1788.18,985.519 1798.45,994.571 1808.72,1003.91 1818.99,1013.56 1829.26,1023.49 1839.53,1033.66 1849.8,1044 1860.07,1054.42 1870.35,1064.78 1880.62,1074.94 
  1890.89,1084.75 1901.16,1094.02 1911.43,1102.57 1921.7,1110.22 1931.97,1116.81 1942.24,1122.2 1952.51,1126.26 1962.78,1128.93 1973.05,1130.18 1983.32,1130.04 
  1993.59,1128.62 2003.86,1126.08 2014.13,1122.67 2024.4,1118.7 2034.68,1114.54 2044.95,1110.63 2055.22,1107.44 2065.49,1105.45 2075.76,1105.16 2086.03,1106.99 
  2096.3,1111.33 2106.57,1118.45 2116.84,1128.46 2127.11,1141.29 2137.38,1156.68 2147.65,1174.09 2157.92,1192.75 2168.19,1211.62 2178.46,1229.46 2188.73,1244.87 
  2199,1256.36 2209.28,1262.57 2219.55,1262.41 2229.82,1255.36 2240.09,1241.82 2250.36,1223.53 2260.63,1204.11 2270.9,1189.69 2281.17,1189.6 2291.44,1217.21 
  
  "/>
<polyline clip-path="url(#clip302)" style="stroke:#6b9e32; stroke-linecap:round; stroke-linejoin:round; stroke-width:16; stroke-opacity:1; fill:none" points="
  247.59,1217.39 257.86,1143.18 268.131,1125.13 278.401,1132.42 288.672,1147.42 298.943,1161.08 309.213,1169.73 319.484,1172.75 329.754,1171.12 340.025,1166.42 
  350.296,1160.28 360.566,1154.03 370.837,1148.62 381.107,1144.57 391.378,1142.04 401.649,1140.92 411.919,1140.9 422.19,1141.58 432.46,1142.54 442.731,1143.38 
  453.002,1143.78 463.272,1143.48 473.543,1142.37 483.813,1140.4 494.084,1137.6 504.355,1134.08 514.625,1129.99 524.896,1125.48 535.167,1120.74 545.437,1115.91 
  555.708,1111.13 565.978,1106.5 576.249,1102.06 586.52,1097.82 596.79,1093.76 607.061,1089.81 617.331,1085.87 627.602,1081.82 637.873,1077.53 648.143,1072.87 
  658.414,1067.72 668.684,1061.96 678.955,1055.5 689.226,1048.27 699.496,1040.22 709.767,1031.36 720.037,1021.7 730.308,1011.28 740.579,1000.18 750.849,988.504 
  761.12,976.348 771.39,963.835 781.661,951.088 791.932,938.227 802.202,925.365 812.473,912.597 822.744,900.004 833.014,887.643 843.285,875.544 853.555,863.712 
  863.826,852.124 874.097,840.73 884.367,829.454 894.638,818.197 904.908,806.842 915.179,795.256 925.45,783.295 935.72,770.812 945.991,757.659 956.261,743.694 
  966.532,728.788 976.803,712.826 987.073,695.717 997.344,677.392 1007.61,657.814 1017.89,636.974 1028.16,614.897 1038.43,591.641 1048.7,567.299 1058.97,541.993 
  1069.24,515.878 1079.51,489.136 1089.78,461.972 1100.05,434.614 1110.32,407.303 1120.59,380.293 1130.86,353.844 1141.13,328.216 1151.4,303.667 1161.67,280.443 
  1171.94,258.78 1182.21,238.893 1192.49,220.977 1202.76,205.204 1213.03,191.717 1223.3,180.63 1233.57,172.027 1243.84,165.962 1254.11,162.457 1264.38,161.506 
  1274.65,163.073 1284.92,167.097 1295.19,173.492 1305.46,182.15 1315.73,192.945 1326,205.737 1336.27,220.371 1346.54,236.686 1356.82,254.514 1367.09,273.685 
  1377.36,294.027 1387.63,315.373 1397.9,337.559 1408.17,360.429 1418.44,383.833 1428.71,407.63 1438.98,431.688 1449.25,455.886 1459.52,480.111 1469.79,504.26 
  1480.06,528.236 1490.33,551.954 1500.6,575.332 1510.87,598.297 1521.14,620.782 1531.42,642.722 1541.69,664.059 1551.96,684.741 1562.23,704.717 1572.5,723.942 
  1582.77,742.379 1593.04,759.994 1603.31,776.763 1613.58,792.666 1623.85,807.699 1634.12,821.864 1644.39,835.177 1654.66,847.668 1664.93,859.38 1675.2,870.37 
  1685.47,880.712 1695.75,890.493 1706.02,899.81 1716.29,908.776 1726.56,917.509 1736.83,926.134 1747.1,934.779 1757.37,943.569 1767.64,952.622 1777.91,962.045 
  1788.18,971.926 1798.45,982.334 1808.72,993.311 1818.99,1004.87 1829.26,1016.98 1839.53,1029.59 1849.8,1042.6 1860.07,1055.88 1870.35,1069.26 1880.62,1082.55 
  1890.89,1095.51 1901.16,1107.93 1911.43,1119.54 1921.7,1130.1 1931.97,1139.4 1942.24,1147.23 1952.51,1153.43 1962.78,1157.9 1973.05,1160.61 1983.32,1161.57 
  1993.59,1160.91 2003.86,1158.82 2014.13,1155.56 2024.4,1151.48 2034.68,1146.98 2044.95,1142.5 2055.22,1138.48 2065.49,1135.35 2075.76,1133.52 2086.03,1133.26 
  2096.3,1134.76 2106.57,1138.05 2116.84,1142.97 2127.11,1149.17 2137.38,1156.11 2147.65,1163.09 2157.92,1169.26 2168.19,1173.74 2178.46,1175.7 2188.73,1174.51 
  2199,1169.88 2209.28,1162.07 2219.55,1152.04 2229.82,1141.64 2240.09,1133.66 2250.36,1131.79 2260.63,1140.41 2270.9,1164.02 2281.17,1206.2 2291.44,1268.02 
  
  "/>
<polyline clip-path="url(#clip302)" style="stroke:#009af9; stroke-linecap:round; stroke-linejoin:round; stroke-width:16; stroke-opacity:1; fill:none" points="
  247.59,1046.31 257.86,1151.11 268.131,1219.96 278.401,1253.97 288.672,1259.95 298.943,1246.76 309.213,1223.16 319.484,1196.53 329.754,1172.36 340.025,1154.14 
  350.296,1143.57 360.566,1140.83 370.837,1145.01 381.107,1154.5 391.378,1167.31 401.649,1181.39 411.919,1194.82 422.19,1206.01 432.46,1213.75 442.731,1217.28 
  453.002,1216.29 463.272,1210.84 473.543,1201.34 483.813,1188.46 494.084,1173.07 504.355,1156.09 514.625,1138.5 524.896,1121.23 535.167,1105.11 545.437,1090.83 
  555.708,1078.91 565.978,1069.7 576.249,1063.36 586.52,1059.87 596.79,1059.06 607.061,1060.63 617.331,1064.15 627.602,1069.14 637.873,1075.03 648.143,1081.28 
  658.414,1087.33 668.684,1092.64 678.955,1096.77 689.226,1099.31 699.496,1099.95 709.767,1098.46 720.037,1094.71 730.308,1088.65 740.579,1080.33 750.849,1069.86 
  761.12,1057.42 771.39,1043.24 781.661,1027.58 791.932,1010.74 802.202,993.018 812.473,974.706 822.744,956.082 833.014,937.395 843.285,918.858 853.555,900.642 
  863.826,882.868 874.097,865.611 884.367,848.894 894.638,832.693 904.908,816.943 915.179,801.537 925.45,786.34 935.72,771.194 945.991,755.925 956.261,740.353 
  966.532,724.3 976.803,707.601 987.073,690.106 997.344,671.694 1007.61,652.273 1017.89,631.787 1028.16,610.218 1038.43,587.59 1048.7,563.966 1058.97,539.451 
  1069.24,514.186 1079.51,488.346 1089.78,462.137 1100.05,435.788 1110.32,409.546 1120.59,383.671 1130.86,358.426 1141.13,334.076 1151.4,310.875 1161.67,289.063 
  1171.94,268.862 1182.21,250.468 1192.49,234.051 1202.76,219.746 1213.03,207.66 1223.3,197.86 1233.57,190.383 1243.84,185.232 1254.11,182.377 1264.38,181.762 
  1274.65,183.305 1284.92,186.902 1295.19,192.435 1305.46,199.772 1315.73,208.773 1326,219.297 1336.27,231.205 1346.54,244.36 1356.82,258.638 1367.09,273.922 
  1377.36,290.112 1387.63,307.121 1397.9,324.876 1408.17,343.318 1418.44,362.405 1428.71,382.1 1438.98,402.378 1449.25,423.221 1459.52,444.608 1469.79,466.521 
  1480.06,488.934 1490.33,511.814 1500.6,535.113 1510.87,558.772 1521.14,582.712 1531.42,606.838 1541.69,631.034 1551.96,655.167 1562.23,679.089 1572.5,702.634 
  1582.77,725.628 1593.04,747.889 1603.31,769.236 1613.58,789.488 1623.85,808.48 1634.12,826.06 1644.39,842.1 1654.66,856.504 1664.93,869.208 1675.2,880.189 
  1685.47,889.468 1695.75,897.112 1706.02,903.232 1716.29,907.989 1726.56,911.583 1736.83,914.256 1747.1,916.281 1757.37,917.955 1767.64,919.591 1777.91,921.506 
  1788.18,924.011 1798.45,927.396 1808.72,931.919 1818.99,937.795 1829.26,945.186 1839.53,954.189 1849.8,964.829 1860.07,977.057 1870.35,990.747 1880.62,1005.7 
  1890.89,1021.63 1901.16,1038.22 1911.43,1055.08 1921.7,1071.79 1931.97,1087.93 1942.24,1103.06 1952.51,1116.81 1962.78,1128.82 1973.05,1138.82 1983.32,1146.63 
  1993.59,1152.18 2003.86,1155.51 2014.13,1156.78 2024.4,1156.27 2034.68,1154.35 2044.95,1151.48 2055.22,1148.17 2065.49,1144.94 2075.76,1142.27 2086.03,1140.6 
  2096.3,1140.21 2106.57,1141.24 2116.84,1143.66 2127.11,1147.22 2137.38,1151.49 2147.65,1155.91 2157.92,1159.84 2168.19,1162.7 2178.46,1164.07 2188.73,1163.88 
  2199,1162.55 2209.28,1161.16 2219.55,1161.48 2229.82,1165.86 2240.09,1176.91 2250.36,1196.72 2260.63,1225.57 2270.9,1259.72 2281.17,1288.15 2291.44,1287.61 
  
  "/>
<polyline clip-path="url(#clip302)" style="stroke:#e26f46; stroke-linecap:round; stroke-linejoin:round; stroke-width:16; stroke-opacity:1; fill:none" points="
  247.59,1221.31 257.86,1242.17 268.131,1218.73 278.401,1184.18 288.672,1155.55 298.943,1139.57 309.213,1136.86 319.484,1144.83 329.754,1159.51 340.025,1176.85 
  350.296,1193.32 360.566,1206.28 370.837,1214.08 381.107,1215.97 391.378,1211.94 401.649,1202.62 411.919,1189 422.19,1172.3 432.46,1153.82 442.731,1134.8 
  453.002,1116.33 463.272,1099.32 473.543,1084.44 483.813,1072.12 494.084,1062.57 504.355,1055.79 514.625,1051.6 524.896,1049.69 535.167,1049.67 545.437,1051.06 
  555.708,1053.38 565.978,1056.14 576.249,1058.89 586.52,1061.23 596.79,1062.83 607.061,1063.42 617.331,1062.81 627.602,1060.89 637.873,1057.62 648.143,1053 
  658.414,1047.11 668.684,1040.05 678.955,1031.96 689.226,1023.01 699.496,1013.35 709.767,1003.15 720.037,992.556 730.308,981.709 740.579,970.72 750.849,959.678 
  761.12,948.641 771.39,937.642 781.661,926.686 791.932,915.751 802.202,904.794 812.473,893.752 822.744,882.55 833.014,871.1 843.285,859.307 853.555,847.078 
  863.826,834.319 874.097,820.942 884.367,806.87 894.638,792.035 904.908,776.386 915.179,759.884 925.45,742.507 935.72,724.251 945.991,705.126 956.261,685.16 
  966.532,664.394 976.803,642.884 987.073,620.699 997.344,597.917 1007.61,574.627 1017.89,550.926 1028.16,526.918 1038.43,502.71 1048.7,478.416 1058.97,454.151 
  1069.24,430.032 1079.51,406.178 1089.78,382.707 1100.05,359.739 1110.32,337.392 1120.59,315.785 1130.86,295.033 1141.13,275.251 1151.4,256.553 1161.67,239.048 
  1171.94,222.845 1182.21,208.046 1192.49,194.75 1202.76,183.051 1213.03,173.035 1223.3,164.782 1233.57,158.361 1243.84,153.831 1254.11,151.241 1264.38,150.626 
  1274.65,152.007 1284.92,155.388 1295.19,160.761 1305.46,168.098 1315.73,177.354 1326,188.468 1336.27,201.362 1346.54,215.94 1356.82,232.091 1367.09,249.692 
  1377.36,268.605 1387.63,288.681 1397.9,309.765 1408.17,331.696 1418.44,354.308 1428.71,377.439 1438.98,400.926 1449.25,424.615 1459.52,448.36 1469.79,472.026 
  1480.06,495.492 1490.33,518.655 1500.6,541.427 1510.87,563.74 1521.14,585.546 1531.42,606.816 1541.69,627.539 1551.96,647.722 1562.23,667.389 1572.5,686.577 
  1582.77,705.333 1593.04,723.713 1603.31,741.778 1613.58,759.588 1623.85,777.202 1634.12,794.671 1644.39,812.038 1654.66,829.331 1664.93,846.565 1675.2,863.735 
  1685.47,880.82 1695.75,897.779 1706.02,914.552 1716.29,931.063 1726.56,947.22 1736.83,962.92 1747.1,978.052 1757.37,992.502 1767.64,1006.16 1777.91,1018.91 
  1788.18,1030.67 1798.45,1041.37 1808.72,1050.94 1818.99,1059.37 1829.26,1066.67 1839.53,1072.86 1849.8,1078.03 1860.07,1082.27 1870.35,1085.72 1880.62,1088.54 
  1890.89,1090.9 1901.16,1092.99 1911.43,1095 1921.7,1097.09 1931.97,1099.44 1942.24,1102.17 1952.51,1105.35 1962.78,1109.03 1973.05,1113.17 1983.32,1117.69 
  1993.59,1122.44 2003.86,1127.21 2014.13,1131.75 2024.4,1135.76 2034.68,1138.94 2044.95,1140.98 2055.22,1141.61 2065.49,1140.65 2075.76,1137.97 2086.03,1133.61 
  2096.3,1127.72 2106.57,1120.63 2116.84,1112.84 2127.11,1104.99 2137.38,1097.85 2147.65,1092.23 2157.92,1088.96 2168.19,1088.73 2178.46,1092 2188.73,1098.87 
  2199,1108.99 2209.28,1121.48 2219.55,1134.93 2229.82,1147.6 2240.09,1157.78 2250.36,1164.54 2260.63,1168.9 2270.9,1175.73 2281.17,1196.49 2291.44,1253.27 
  
  "/>
<polyline clip-path="url(#clip302)" style="stroke:#3da44d; stroke-linecap:round; stroke-linejoin:round; stroke-width:16; stroke-opacity:1; fill:none" points="
  247.59,1344.8 257.86,1247.02 268.131,1216.62 278.401,1217.26 288.672,1227.83 298.943,1237.3 309.213,1240.96 319.484,1237.87 329.754,1229.05 340.025,1216.37 
  350.296,1201.81 360.566,1187.09 370.837,1173.49 381.107,1161.78 391.378,1152.32 401.649,1145.09 411.919,1139.81 422.19,1136.06 432.46,1133.34 442.731,1131.17 
  453.002,1129.11 463.272,1126.82 473.543,1124.07 483.813,1120.73 494.084,1116.79 504.355,1112.31 514.625,1107.41 524.896,1102.27 535.167,1097.08 545.437,1092.03 
  555.708,1087.3 565.978,1083.01 576.249,1079.28 586.52,1076.15 596.79,1073.63 607.061,1071.65 617.331,1070.14 627.602,1068.95 637.873,1067.94 648.143,1066.93 
  658.414,1065.72 668.684,1064.13 678.955,1061.99 689.226,1059.12 699.496,1055.39 709.767,1050.68 720.037,1044.91 730.308,1038.03 740.579,1030.01 750.849,1020.88 
  761.12,1010.65 771.39,999.41 781.661,987.225 791.932,974.197 802.202,960.431 812.473,946.039 822.744,931.129 833.014,915.807 843.285,900.166 853.555,884.289 
  863.826,868.241 874.097,852.071 884.367,835.809 894.638,819.468 904.908,803.04 915.179,786.504 925.45,769.825 935.72,752.954 945.991,735.838 956.261,718.414 
  966.532,700.623 976.803,682.405 987.073,663.707 997.344,644.486 1007.61,624.711 1017.89,604.365 1028.16,583.448 1038.43,561.978 1048.7,539.995 1058.97,517.554 
  1069.24,494.735 1079.51,471.631 1089.78,448.358 1100.05,425.043 1110.32,401.828 1120.59,378.868 1130.86,356.324 1141.13,334.361 1151.4,313.149 1161.67,292.856 
  1171.94,273.645 1182.21,255.674 1192.49,239.091 1202.76,224.032 1213.03,210.62 1223.3,198.962 1233.57,189.15 1243.84,181.257 1254.11,175.337 1264.38,171.429 
  1274.65,169.553 1284.92,169.709 1295.19,171.884 1305.46,176.048 1315.73,182.156 1326,190.153 1336.27,199.969 1346.54,211.526 1356.82,224.739 1367.09,239.512 
  1377.36,255.747 1387.63,273.341 1397.9,292.186 1408.17,312.173 1418.44,333.191 1428.71,355.129 1438.98,377.873 1449.25,401.312 1459.52,425.332 1469.79,449.822 
  1480.06,474.669 1490.33,499.763 1500.6,524.994 1510.87,550.251 1521.14,575.429 1531.42,600.42 1541.69,625.123 1551.96,649.437 1562.23,673.267 1572.5,696.525 
  1582.77,719.125 1593.04,740.994 1603.31,762.065 1613.58,782.281 1623.85,801.599 1634.12,819.986 1644.39,837.425 1654.66,853.911 1664.93,869.455 1675.2,884.08 
  1685.47,897.826 1695.75,910.743 1706.02,922.895 1716.29,934.353 1726.56,945.199 1736.83,955.518 1747.1,965.396 1757.37,974.919 1767.64,984.171 1777.91,993.224 
  1788.18,1002.14 1798.45,1010.98 1808.72,1019.77 1818.99,1028.53 1829.26,1037.26 1839.53,1045.95 1849.8,1054.56 1860.07,1063.04 1870.35,1071.34 1880.62,1079.39 
  1890.89,1087.11 1901.16,1094.44 1911.43,1101.33 1921.7,1107.71 1931.97,1113.58 1942.24,1118.93 1952.51,1123.79 1962.78,1128.2 1973.05,1132.27 1983.32,1136.09 
  1993.59,1139.8 2003.86,1143.54 2014.13,1147.46 2024.4,1151.69 2034.68,1156.31 2044.95,1161.39 2055.22,1166.89 2065.49,1172.74 2075.76,1178.74 2086.03,1184.6 
  2096.3,1189.95 2106.57,1194.34 2116.84,1197.29 2127.11,1198.31 2137.38,1196.98 2147.65,1193.05 2157.92,1186.51 2168.19,1177.7 2178.46,1167.43 2188.73,1157.01 
  2199,1148.27 2209.28,1143.52 2219.55,1145.27 2229.82,1155.8 2240.09,1176.33 2250.36,1205.8 2260.63,1238.97 2270.9,1263.68 2281.17,1257 2291.44,1179.95 
  
  "/>
<polyline clip-path="url(#clip302)" style="stroke:#c271d2; stroke-linecap:round; stroke-linejoin:round; stroke-width:16; stroke-opacity:1; fill:none" points="
  247.59,1066.82 257.86,1090.88 268.131,1114.65 278.401,1131.57 288.672,1139.97 298.943,1140.9 309.213,1136.74 319.484,1130.14 329.754,1123.56 340.025,1118.86 
  350.296,1117.27 360.566,1119.33 370.837,1125.03 381.107,1133.89 391.378,1145.11 401.649,1157.7 411.919,1170.61 422.19,1182.82 432.46,1193.44 442.731,1201.71 
  453.002,1207.09 463.272,1209.24 473.543,1208.04 483.813,1203.55 494.084,1195.98 504.355,1185.7 514.625,1173.17 524.896,1158.91 535.167,1143.47 545.437,1127.41 
  555.708,1111.25 565.978,1095.46 576.249,1080.45 586.52,1066.57 596.79,1054.04 607.061,1043.03 617.331,1033.61 627.602,1025.77 637.873,1019.43 648.143,1014.45 
  658.414,1010.64 668.684,1007.77 678.955,1005.59 689.226,1003.83 699.496,1002.23 709.767,1000.53 720.037,998.485 730.308,995.894 740.579,992.569 750.849,988.361 
  761.12,983.157 771.39,976.882 781.661,969.493 791.932,960.981 802.202,951.364 812.473,940.688 822.744,929.015 833.014,916.423 843.285,903 853.555,888.835 
  863.826,874.02 874.097,858.639 884.367,842.77 894.638,826.477 904.908,809.811 915.179,792.81 925.45,775.495 935.72,757.873 945.991,739.938 956.261,721.67 
  966.532,703.043 976.803,684.024 987.073,664.575 997.344,644.663 1007.61,624.254 1017.89,603.327 1028.16,581.868 1038.43,559.88 1048.7,537.381 1058.97,514.409 
  1069.24,491.022 1079.51,467.299 1089.78,443.341 1100.05,419.269 1110.32,395.226 1120.59,371.37 1130.86,347.876 1141.13,324.932 1151.4,302.734 1161.67,281.484 
  1171.94,261.386 1182.21,242.64 1192.49,225.437 1202.76,209.958 1213.03,196.37 1223.3,184.819 1233.57,175.426 1243.84,168.29 1254.11,163.481 1264.38,161.038 
  1274.65,160.97 1284.92,163.257 1295.19,167.846 1305.46,174.657 1315.73,183.579 1326,194.48 1336.27,207.205 1346.54,221.579 1356.82,237.414 1367.09,254.513 
  1377.36,272.673 1387.63,291.69 1397.9,311.363 1408.17,331.503 1418.44,351.929 1428.71,372.479 1438.98,393.012 1449.25,413.406 1459.52,433.566 1469.79,453.423 
  1480.06,472.933 1490.33,492.079 1500.6,510.87 1510.87,529.337 1521.14,547.533 1531.42,565.528 1541.69,583.406 1551.96,601.262 1562.23,619.193 1572.5,637.3 
  1582.77,655.675 1593.04,674.403 1603.31,693.553 1613.58,713.178 1623.85,733.306 1634.12,753.94 1644.39,775.056 1654.66,796.601 1664.93,818.492 1675.2,840.617 
  1685.47,862.839 1695.75,884.995 1706.02,906.903 1716.29,928.365 1726.56,949.176 1736.83,969.124 1747.1,988.003 1757.37,1005.62 1767.64,1021.8 1777.91,1036.39 
  1788.18,1049.27 1798.45,1060.36 1808.72,1069.63 1818.99,1077.08 1829.26,1082.78 1839.53,1086.84 1849.8,1089.4 1860.07,1090.67 1870.35,1090.9 1880.62,1090.35 
  1890.89,1089.31 1901.16,1088.11 1911.43,1087.02 1921.7,1086.36 1931.97,1086.38 1942.24,1087.29 1952.51,1089.28 1962.78,1092.43 1973.05,1096.77 1983.32,1102.25 
  1993.59,1108.71 2003.86,1115.94 2014.13,1123.64 2024.4,1131.44 2034.68,1138.93 2044.95,1145.69 2055.22,1151.28 2065.49,1155.32 2075.76,1157.5 2086.03,1157.64 
  2096.3,1155.69 2106.57,1151.8 2116.84,1146.34 2127.11,1139.92 2137.38,1133.36 2147.65,1127.71 2157.92,1124.18 2168.19,1124.07 2178.46,1128.64 2188.73,1138.95 
  2199,1155.62 2209.28,1178.59 2219.55,1206.74 2229.82,1237.52 2240.09,1266.48 2250.36,1286.74 2260.63,1288.46 2270.9,1258.24 2281.17,1178.54 2291.44,1027.18 
  
  "/>
<polyline clip-path="url(#clip302)" style="stroke:#ac8d18; stroke-linecap:round; stroke-linejoin:round; stroke-width:16; stroke-opacity:1; fill:none" points="
  247.59,1262.14 257.86,1252.06 268.131,1227.24 278.401,1202.23 288.672,1183.4 298.943,1172.29 309.213,1167.87 319.484,1168.03 329.754,1170.49 340.025,1173.26 
  350.296,1174.93 360.566,1174.65 370.837,1172.13 381.107,1167.51 391.378,1161.23 401.649,1153.88 411.919,1146.13 422.19,1138.61 432.46,1131.84 442.731,1126.23 
  453.002,1122.02 463.272,1119.29 473.543,1117.97 483.813,1117.91 494.084,1118.82 504.355,1120.39 514.625,1122.27 524.896,1124.1 535.167,1125.55 545.437,1126.35 
  555.708,1126.27 565.978,1125.15 576.249,1122.89 586.52,1119.46 596.79,1114.9 607.061,1109.3 617.331,1102.78 627.602,1095.49 637.873,1087.61 648.143,1079.31 
  658.414,1070.76 668.684,1062.12 678.955,1053.51 689.226,1045.03 699.496,1036.75 709.767,1028.7 720.037,1020.86 730.308,1013.19 740.579,1005.62 750.849,998.054 
  761.12,990.364 771.39,982.42 781.661,974.078 791.932,965.196 802.202,955.637 812.473,945.274 822.744,933.996 833.014,921.714 843.285,908.361 853.555,893.895 
  863.826,878.302 874.097,861.592 884.367,843.803 894.638,824.995 904.908,805.247 915.179,784.657 925.45,763.337 935.72,741.409 945.991,718.997 956.261,696.232 
  966.532,673.238 976.803,650.136 987.073,627.038 997.344,604.045 1007.61,581.247 1017.89,558.717 1028.16,536.518 1038.43,514.698 1048.7,493.291 1058.97,472.323 
  1069.24,451.81 1079.51,431.761 1089.78,412.183 1100.05,393.079 1110.32,374.458 1120.59,356.331 1130.86,338.72 1141.13,321.653 1151.4,305.172 1161.67,289.332 
  1171.94,274.2 1182.21,259.859 1192.49,246.404 1202.76,233.943 1213.03,222.595 1223.3,212.484 1233.57,203.743 1243.84,196.503 1254.11,190.895 1264.38,187.044 
  1274.65,185.066 1284.92,185.059 1295.19,187.108 1305.46,191.274 1315.73,197.592 1326,206.075 1336.27,216.701 1346.54,229.421 1356.82,244.155 1367.09,260.792 
  1377.36,279.191 1387.63,299.187 1397.9,320.587 1408.17,343.179 1418.44,366.737 1428.71,391.022 1438.98,415.788 1449.25,440.79 1459.52,465.791 1469.79,490.562 
  1480.06,514.893 1490.33,538.596 1500.6,561.509 1510.87,583.503 1521.14,604.482 1531.42,624.384 1541.69,643.187 1551.96,660.906 1562.23,677.591 1572.5,693.325 
  1582.77,708.221 1593.04,722.418 1603.31,736.075 1613.58,749.362 1623.85,762.458 1634.12,775.538 1644.39,788.772 1654.66,802.31 1664.93,816.281 1675.2,830.785 
  1685.47,845.885 1695.75,861.605 1706.02,877.926 1716.29,894.787 1726.56,912.079 1736.83,929.656 1747.1,947.331 1757.37,964.884 1767.64,982.073 1777.91,998.636 
  1788.18,1014.31 1798.45,1028.83 1808.72,1041.96 1818.99,1053.47 1829.26,1063.2 1839.53,1071.02 1849.8,1076.86 1860.07,1080.73 1870.35,1082.71 1880.62,1082.94 
  1890.89,1081.65 1901.16,1079.13 1911.43,1075.73 1921.7,1071.86 1931.97,1067.94 1942.24,1064.43 1952.51,1061.77 1962.78,1060.38 1973.05,1060.61 1983.32,1062.77 
  1993.59,1067.03 2003.86,1073.48 2014.13,1082.06 2024.4,1092.59 2034.68,1104.74 2044.95,1118.06 2055.22,1131.98 2065.49,1145.83 2075.76,1158.92 2086.03,1170.53 
  2096.3,1179.99 2106.57,1186.74 2116.84,1190.36 2127.11,1190.66 2137.38,1187.7 2147.65,1181.84 2157.92,1173.72 2168.19,1164.29 2178.46,1154.71 2188.73,1146.29 
  2199,1140.35 2209.28,1138.07 2219.55,1140.26 2229.82,1147.17 2240.09,1158.3 2250.36,1172.26 2260.63,1186.75 2270.9,1198.8 2281.17,1205.35 2291.44,1204.25 
  
  "/>
</svg>
