<?xml version="1.0" encoding="utf-8"?>
<svg xmlns="http://www.w3.org/2000/svg" xmlns:xlink="http://www.w3.org/1999/xlink" width="600" height="400" viewBox="0 0 2400 1600">
<defs>
  <clipPath id="clip570">
    <rect x="0" y="0" width="2400" height="1600"/>
  </clipPath>
</defs>
<path clip-path="url(#clip570)" d="
M0 1600 L2400 1600 L2400 0 L0 0  Z
  " fill="#ffffff" fill-rule="evenodd" fill-opacity="1"/>
<defs>
  <clipPath id="clip571">
    <rect x="480" y="0" width="1681" height="1600"/>
  </clipPath>
</defs>
<defs>
  <clipPath id="clip572">
    <rect x="175" y="123" width="2178" height="1300"/>
  </clipPath>
</defs>
<path clip-path="url(#clip570)" d="
M188.574 1486.45 L2352.76 1486.45 L2352.76 47.2441 L188.574 47.2441  Z
  " fill="#ffffff" fill-rule="evenodd" fill-opacity="1"/>
<defs>
  <clipPath id="clip573">
    <rect x="188" y="47" width="2165" height="1440"/>
  </clipPath>
</defs>
<polyline clip-path="url(#clip573)" style="stroke:#000000; stroke-linecap:round; stroke-linejoin:round; stroke-width:2; stroke-opacity:0.1; fill:none" points="
  522.049,1486.45 522.049,47.2441 
  "/>
<polyline clip-path="url(#clip573)" style="stroke:#000000; stroke-linecap:round; stroke-linejoin:round; stroke-width:2; stroke-opacity:0.1; fill:none" points="
  930.385,1486.45 930.385,47.2441 
  "/>
<polyline clip-path="url(#clip573)" style="stroke:#000000; stroke-linecap:round; stroke-linejoin:round; stroke-width:2; stroke-opacity:0.1; fill:none" points="
  1338.72,1486.45 1338.72,47.2441 
  "/>
<polyline clip-path="url(#clip573)" style="stroke:#000000; stroke-linecap:round; stroke-linejoin:round; stroke-width:2; stroke-opacity:0.1; fill:none" points="
  1747.06,1486.45 1747.06,47.2441 
  "/>
<polyline clip-path="url(#clip573)" style="stroke:#000000; stroke-linecap:round; stroke-linejoin:round; stroke-width:2; stroke-opacity:0.1; fill:none" points="
  2155.39,1486.45 2155.39,47.2441 
  "/>
<polyline clip-path="url(#clip570)" style="stroke:#000000; stroke-linecap:round; stroke-linejoin:round; stroke-width:4; stroke-opacity:1; fill:none" points="
  188.574,1486.45 2352.76,1486.45 
  "/>
<polyline clip-path="url(#clip570)" style="stroke:#000000; stroke-linecap:round; stroke-linejoin:round; stroke-width:4; stroke-opacity:1; fill:none" points="
  522.049,1486.45 522.049,1467.55 
  "/>
<polyline clip-path="url(#clip570)" style="stroke:#000000; stroke-linecap:round; stroke-linejoin:round; stroke-width:4; stroke-opacity:1; fill:none" points="
  930.385,1486.45 930.385,1467.55 
  "/>
<polyline clip-path="url(#clip570)" style="stroke:#000000; stroke-linecap:round; stroke-linejoin:round; stroke-width:4; stroke-opacity:1; fill:none" points="
  1338.72,1486.45 1338.72,1467.55 
  "/>
<polyline clip-path="url(#clip570)" style="stroke:#000000; stroke-linecap:round; stroke-linejoin:round; stroke-width:4; stroke-opacity:1; fill:none" points="
  1747.06,1486.45 1747.06,1467.55 
  "/>
<polyline clip-path="url(#clip570)" style="stroke:#000000; stroke-linecap:round; stroke-linejoin:round; stroke-width:4; stroke-opacity:1; fill:none" points="
  2155.39,1486.45 2155.39,1467.55 
  "/>
<path clip-path="url(#clip570)" d="M526.297 1530.21 Q529.653 1530.93 531.528 1533.2 Q533.426 1535.47 533.426 1538.8 Q533.426 1543.92 529.908 1546.72 Q526.389 1549.52 519.908 1549.52 Q517.732 1549.52 515.417 1549.08 Q513.125 1548.66 510.672 1547.81 L510.672 1543.29 Q512.616 1544.43 514.931 1545.01 Q517.246 1545.58 519.769 1545.58 Q524.167 1545.58 526.459 1543.85 Q528.773 1542.11 528.773 1538.8 Q528.773 1535.75 526.621 1534.03 Q524.491 1532.3 520.672 1532.3 L516.644 1532.3 L516.644 1528.45 L520.857 1528.45 Q524.306 1528.45 526.134 1527.09 Q527.963 1525.7 527.963 1523.11 Q527.963 1520.45 526.065 1519.03 Q524.19 1517.6 520.672 1517.6 Q518.75 1517.6 516.551 1518.01 Q514.352 1518.43 511.713 1519.31 L511.713 1515.14 Q514.375 1514.4 516.69 1514.03 Q519.028 1513.66 521.088 1513.66 Q526.412 1513.66 529.514 1516.09 Q532.616 1518.5 532.616 1522.62 Q532.616 1525.49 530.972 1527.48 Q529.329 1529.45 526.297 1530.21 Z" fill="#000000" fill-rule="evenodd" fill-opacity="1" /><path clip-path="url(#clip570)" d="M930.79 1529.7 Q927.642 1529.7 925.79 1531.86 Q923.961 1534.01 923.961 1537.76 Q923.961 1541.49 925.79 1543.66 Q927.642 1545.82 930.79 1545.82 Q933.938 1545.82 935.767 1543.66 Q937.619 1541.49 937.619 1537.76 Q937.619 1534.01 935.767 1531.86 Q933.938 1529.7 930.79 1529.7 M940.072 1515.05 L940.072 1519.31 Q938.313 1518.48 936.508 1518.04 Q934.725 1517.6 932.966 1517.6 Q928.336 1517.6 925.883 1520.72 Q923.452 1523.85 923.105 1530.17 Q924.471 1528.15 926.531 1527.09 Q928.591 1526 931.068 1526 Q936.276 1526 939.285 1529.17 Q942.318 1532.32 942.318 1537.76 Q942.318 1543.08 939.17 1546.3 Q936.022 1549.52 930.79 1549.52 Q924.795 1549.52 921.623 1544.94 Q918.452 1540.33 918.452 1531.6 Q918.452 1523.41 922.341 1518.55 Q926.23 1513.66 932.781 1513.66 Q934.54 1513.66 936.322 1514.01 Q938.128 1514.36 940.072 1515.05 Z" fill="#000000" fill-rule="evenodd" fill-opacity="1" /><path clip-path="url(#clip570)" d="M1329.02 1548.13 L1329.02 1543.87 Q1330.78 1544.7 1332.59 1545.14 Q1334.39 1545.58 1336.13 1545.58 Q1340.76 1545.58 1343.19 1542.48 Q1345.64 1539.36 1345.99 1533.01 Q1344.65 1535.01 1342.59 1536.07 Q1340.53 1537.13 1338.03 1537.13 Q1332.84 1537.13 1329.81 1534.01 Q1326.8 1530.86 1326.8 1525.42 Q1326.8 1520.1 1329.95 1516.88 Q1333.1 1513.66 1338.33 1513.66 Q1344.32 1513.66 1347.47 1518.27 Q1350.64 1522.85 1350.64 1531.6 Q1350.64 1539.77 1346.75 1544.66 Q1342.89 1549.52 1336.34 1549.52 Q1334.58 1549.52 1332.77 1549.17 Q1330.97 1548.82 1329.02 1548.13 M1338.33 1533.48 Q1341.48 1533.48 1343.3 1531.32 Q1345.16 1529.17 1345.16 1525.42 Q1345.16 1521.7 1343.3 1519.54 Q1341.48 1517.37 1338.33 1517.37 Q1335.18 1517.37 1333.33 1519.54 Q1331.5 1521.7 1331.5 1525.42 Q1331.5 1529.17 1333.33 1531.32 Q1335.18 1533.48 1338.33 1533.48 Z" fill="#000000" fill-rule="evenodd" fill-opacity="1" /><path clip-path="url(#clip570)" d="M1722.54 1544.91 L1730.18 1544.91 L1730.18 1518.55 L1721.87 1520.21 L1721.87 1515.95 L1730.14 1514.29 L1734.81 1514.29 L1734.81 1544.91 L1742.45 1544.91 L1742.45 1548.85 L1722.54 1548.85 L1722.54 1544.91 Z" fill="#000000" fill-rule="evenodd" fill-opacity="1" /><path clip-path="url(#clip570)" d="M1755.92 1544.91 L1772.24 1544.91 L1772.24 1548.85 L1750.3 1548.85 L1750.3 1544.91 Q1752.96 1542.16 1757.54 1537.53 Q1762.15 1532.88 1763.33 1531.53 Q1765.58 1529.01 1766.46 1527.27 Q1767.36 1525.51 1767.36 1523.82 Q1767.36 1521.07 1765.41 1519.33 Q1763.49 1517.6 1760.39 1517.6 Q1758.19 1517.6 1755.74 1518.36 Q1753.31 1519.13 1750.53 1520.68 L1750.53 1515.95 Q1753.35 1514.82 1755.81 1514.24 Q1758.26 1513.66 1760.3 1513.66 Q1765.67 1513.66 1768.86 1516.35 Q1772.06 1519.03 1772.06 1523.52 Q1772.06 1525.65 1771.25 1527.57 Q1770.46 1529.47 1768.35 1532.07 Q1767.77 1532.74 1764.67 1535.95 Q1761.57 1539.15 1755.92 1544.91 Z" fill="#000000" fill-rule="evenodd" fill-opacity="1" /><path clip-path="url(#clip570)" d="M2130.58 1544.91 L2138.22 1544.91 L2138.22 1518.55 L2129.91 1520.21 L2129.91 1515.95 L2138.17 1514.29 L2142.85 1514.29 L2142.85 1544.91 L2150.49 1544.91 L2150.49 1548.85 L2130.58 1548.85 L2130.58 1544.91 Z" fill="#000000" fill-rule="evenodd" fill-opacity="1" /><path clip-path="url(#clip570)" d="M2159.98 1514.29 L2178.33 1514.29 L2178.33 1518.22 L2164.26 1518.22 L2164.26 1526.7 Q2165.28 1526.35 2166.3 1526.19 Q2167.31 1526 2168.33 1526 Q2174.12 1526 2177.5 1529.17 Q2180.88 1532.34 2180.88 1537.76 Q2180.88 1543.34 2177.41 1546.44 Q2173.94 1549.52 2167.62 1549.52 Q2165.44 1549.52 2163.17 1549.15 Q2160.93 1548.78 2158.52 1548.04 L2158.52 1543.34 Q2160.6 1544.47 2162.82 1545.03 Q2165.05 1545.58 2167.52 1545.58 Q2171.53 1545.58 2173.87 1543.48 Q2176.2 1541.37 2176.2 1537.76 Q2176.2 1534.15 2173.87 1532.04 Q2171.53 1529.94 2167.52 1529.94 Q2165.65 1529.94 2163.77 1530.35 Q2161.92 1530.77 2159.98 1531.65 L2159.98 1514.29 Z" fill="#000000" fill-rule="evenodd" fill-opacity="1" /><polyline clip-path="url(#clip573)" style="stroke:#000000; stroke-linecap:round; stroke-linejoin:round; stroke-width:2; stroke-opacity:0.1; fill:none" points="
  188.574,1458.23 2352.76,1458.23 
  "/>
<polyline clip-path="url(#clip573)" style="stroke:#000000; stroke-linecap:round; stroke-linejoin:round; stroke-width:2; stroke-opacity:0.1; fill:none" points="
  188.574,980.575 2352.76,980.575 
  "/>
<polyline clip-path="url(#clip573)" style="stroke:#000000; stroke-linecap:round; stroke-linejoin:round; stroke-width:2; stroke-opacity:0.1; fill:none" points="
  188.574,502.916 2352.76,502.916 
  "/>
<polyline clip-path="url(#clip570)" style="stroke:#000000; stroke-linecap:round; stroke-linejoin:round; stroke-width:4; stroke-opacity:1; fill:none" points="
  188.574,1486.45 188.574,47.2441 
  "/>
<polyline clip-path="url(#clip570)" style="stroke:#000000; stroke-linecap:round; stroke-linejoin:round; stroke-width:4; stroke-opacity:1; fill:none" points="
  188.574,1458.23 207.472,1458.23 
  "/>
<polyline clip-path="url(#clip570)" style="stroke:#000000; stroke-linecap:round; stroke-linejoin:round; stroke-width:4; stroke-opacity:1; fill:none" points="
  188.574,980.575 207.472,980.575 
  "/>
<polyline clip-path="url(#clip570)" style="stroke:#000000; stroke-linecap:round; stroke-linejoin:round; stroke-width:4; stroke-opacity:1; fill:none" points="
  188.574,502.916 207.472,502.916 
  "/>
<path clip-path="url(#clip570)" d="M51.6634 1478.03 L59.3023 1478.03 L59.3023 1451.66 L50.9921 1453.33 L50.9921 1449.07 L59.256 1447.4 L63.9319 1447.4 L63.9319 1478.03 L71.5707 1478.03 L71.5707 1481.96 L51.6634 1481.96 L51.6634 1478.03 Z" fill="#000000" fill-rule="evenodd" fill-opacity="1" /><path clip-path="url(#clip570)" d="M91.0151 1450.48 Q87.404 1450.48 85.5753 1454.04 Q83.7697 1457.59 83.7697 1464.72 Q83.7697 1471.82 85.5753 1475.39 Q87.404 1478.93 91.0151 1478.93 Q94.6493 1478.93 96.4548 1475.39 Q98.2835 1471.82 98.2835 1464.72 Q98.2835 1457.59 96.4548 1454.04 Q94.6493 1450.48 91.0151 1450.48 M91.0151 1446.78 Q96.8252 1446.78 99.8808 1451.38 Q102.959 1455.97 102.959 1464.72 Q102.959 1473.44 99.8808 1478.05 Q96.8252 1482.63 91.0151 1482.63 Q85.2049 1482.63 82.1262 1478.05 Q79.0707 1473.44 79.0707 1464.72 Q79.0707 1455.97 82.1262 1451.38 Q85.2049 1446.78 91.0151 1446.78 Z" fill="#000000" fill-rule="evenodd" fill-opacity="1" /><path clip-path="url(#clip570)" d="M102.959 1440.88 L127.071 1440.88 L127.071 1444.08 L102.959 1444.08 L102.959 1440.88 Z" fill="#000000" fill-rule="evenodd" fill-opacity="1" /><path clip-path="url(#clip570)" d="M146.782 1439.41 Q149.509 1439.99 151.032 1441.84 Q152.574 1443.68 152.574 1446.39 Q152.574 1450.54 149.716 1452.82 Q146.857 1455.1 141.591 1455.1 Q139.823 1455.1 137.942 1454.74 Q136.08 1454.4 134.086 1453.7 L134.086 1450.04 Q135.666 1450.96 137.547 1451.43 Q139.428 1451.9 141.478 1451.9 Q145.051 1451.9 146.913 1450.49 Q148.794 1449.08 148.794 1446.39 Q148.794 1443.91 147.045 1442.51 Q145.315 1441.1 142.211 1441.1 L138.939 1441.1 L138.939 1437.98 L142.362 1437.98 Q145.164 1437.98 146.65 1436.87 Q148.136 1435.74 148.136 1433.64 Q148.136 1431.47 146.593 1430.33 Q145.07 1429.16 142.211 1429.16 Q140.65 1429.16 138.863 1429.5 Q137.077 1429.84 134.933 1430.55 L134.933 1427.17 Q137.096 1426.57 138.976 1426.26 Q140.876 1425.96 142.55 1425.96 Q146.876 1425.96 149.396 1427.94 Q151.916 1429.89 151.916 1433.24 Q151.916 1435.57 150.581 1437.19 Q149.245 1438.79 146.782 1439.41 Z" fill="#000000" fill-rule="evenodd" fill-opacity="1" /><path clip-path="url(#clip570)" d="M52.4345 1000.37 L60.0734 1000.37 L60.0734 974.002 L51.7632 975.668 L51.7632 971.409 L60.0271 969.742 L64.703 969.742 L64.703 1000.37 L72.3418 1000.37 L72.3418 1004.3 L52.4345 1004.3 L52.4345 1000.37 Z" fill="#000000" fill-rule="evenodd" fill-opacity="1" /><path clip-path="url(#clip570)" d="M91.7862 972.821 Q88.1751 972.821 86.3464 976.386 Q84.5408 979.928 84.5408 987.057 Q84.5408 994.164 86.3464 997.728 Q88.1751 1001.27 91.7862 1001.27 Q95.4204 1001.27 97.226 997.728 Q99.0547 994.164 99.0547 987.057 Q99.0547 979.928 97.226 976.386 Q95.4204 972.821 91.7862 972.821 M91.7862 969.117 Q97.5963 969.117 100.652 973.724 Q103.731 978.307 103.731 987.057 Q103.731 995.784 100.652 1000.39 Q97.5963 1004.97 91.7862 1004.97 Q85.976 1004.97 82.8973 1000.39 Q79.8418 995.784 79.8418 987.057 Q79.8418 978.307 82.8973 973.724 Q85.976 969.117 91.7862 969.117 Z" fill="#000000" fill-rule="evenodd" fill-opacity="1" /><path clip-path="url(#clip570)" d="M103.731 963.219 L127.842 963.219 L127.842 966.416 L103.731 966.416 L103.731 963.219 Z" fill="#000000" fill-rule="evenodd" fill-opacity="1" /><path clip-path="url(#clip570)" d="M139.315 973.695 L152.574 973.695 L152.574 976.892 L134.745 976.892 L134.745 973.695 Q136.907 971.457 140.631 967.695 Q144.374 963.915 145.333 962.824 Q147.158 960.774 147.872 959.363 Q148.606 957.934 148.606 956.561 Q148.606 954.323 147.026 952.912 Q145.465 951.502 142.945 951.502 Q141.158 951.502 139.164 952.122 Q137.19 952.743 134.933 954.003 L134.933 950.166 Q137.227 949.245 139.221 948.774 Q141.214 948.304 142.87 948.304 Q147.233 948.304 149.828 950.486 Q152.424 952.668 152.424 956.316 Q152.424 958.047 151.766 959.608 Q151.126 961.15 149.415 963.256 Q148.944 963.802 146.424 966.416 Q143.904 969.012 139.315 973.695 Z" fill="#000000" fill-rule="evenodd" fill-opacity="1" /><path clip-path="url(#clip570)" d="M52.1336 522.708 L59.7725 522.708 L59.7725 496.343 L51.4623 498.009 L51.4623 493.75 L59.7262 492.084 L64.4021 492.084 L64.4021 522.708 L72.0409 522.708 L72.0409 526.644 L52.1336 526.644 L52.1336 522.708 Z" fill="#000000" fill-rule="evenodd" fill-opacity="1" /><path clip-path="url(#clip570)" d="M91.4853 495.162 Q87.8742 495.162 86.0455 498.727 Q84.2399 502.269 84.2399 509.398 Q84.2399 516.505 86.0455 520.07 Q87.8742 523.611 91.4853 523.611 Q95.1195 523.611 96.925 520.07 Q98.7537 516.505 98.7537 509.398 Q98.7537 502.269 96.925 498.727 Q95.1195 495.162 91.4853 495.162 M91.4853 491.459 Q97.2954 491.459 100.351 496.065 Q103.43 500.648 103.43 509.398 Q103.43 518.125 100.351 522.732 Q97.2954 527.315 91.4853 527.315 Q85.6751 527.315 82.5964 522.732 Q79.5409 518.125 79.5409 509.398 Q79.5409 500.648 82.5964 496.065 Q85.6751 491.459 91.4853 491.459 Z" fill="#000000" fill-rule="evenodd" fill-opacity="1" /><path clip-path="url(#clip570)" d="M103.43 485.56 L127.541 485.56 L127.541 488.757 L103.43 488.757 L103.43 485.56 Z" fill="#000000" fill-rule="evenodd" fill-opacity="1" /><path clip-path="url(#clip570)" d="M136.4 496.036 L142.606 496.036 L142.606 474.614 L135.854 475.968 L135.854 472.507 L142.569 471.153 L146.368 471.153 L146.368 496.036 L152.574 496.036 L152.574 499.233 L136.4 499.233 L136.4 496.036 Z" fill="#000000" fill-rule="evenodd" fill-opacity="1" /><circle clip-path="url(#clip573)" cx="249.825" cy="87.9763" r="14.4" fill="#009af9" fill-rule="evenodd" fill-opacity="1" stroke="#000000" stroke-opacity="1" stroke-width="3.2"/>
<circle clip-path="url(#clip573)" cx="385.937" cy="303.972" r="14.4" fill="#009af9" fill-rule="evenodd" fill-opacity="1" stroke="#000000" stroke-opacity="1" stroke-width="3.2"/>
<circle clip-path="url(#clip573)" cx="522.049" cy="360.393" r="14.4" fill="#009af9" fill-rule="evenodd" fill-opacity="1" stroke="#000000" stroke-opacity="1" stroke-width="3.2"/>
<circle clip-path="url(#clip573)" cx="658.161" cy="467.76" r="14.4" fill="#009af9" fill-rule="evenodd" fill-opacity="1" stroke="#000000" stroke-opacity="1" stroke-width="3.2"/>
<circle clip-path="url(#clip573)" cx="794.273" cy="537.13" r="14.4" fill="#009af9" fill-rule="evenodd" fill-opacity="1" stroke="#000000" stroke-opacity="1" stroke-width="3.2"/>
<circle clip-path="url(#clip573)" cx="930.385" cy="629.228" r="14.4" fill="#009af9" fill-rule="evenodd" fill-opacity="1" stroke="#000000" stroke-opacity="1" stroke-width="3.2"/>
<circle clip-path="url(#clip573)" cx="1066.5" cy="705.19" r="14.4" fill="#009af9" fill-rule="evenodd" fill-opacity="1" stroke="#000000" stroke-opacity="1" stroke-width="3.2"/>
<circle clip-path="url(#clip573)" cx="1202.61" cy="791.539" r="14.4" fill="#009af9" fill-rule="evenodd" fill-opacity="1" stroke="#000000" stroke-opacity="1" stroke-width="3.2"/>
<circle clip-path="url(#clip573)" cx="1338.72" cy="870.71" r="14.4" fill="#009af9" fill-rule="evenodd" fill-opacity="1" stroke="#000000" stroke-opacity="1" stroke-width="3.2"/>
<circle clip-path="url(#clip573)" cx="1474.83" cy="954.623" r="14.4" fill="#009af9" fill-rule="evenodd" fill-opacity="1" stroke="#000000" stroke-opacity="1" stroke-width="3.2"/>
<circle clip-path="url(#clip573)" cx="1610.95" cy="1035.3" r="14.4" fill="#009af9" fill-rule="evenodd" fill-opacity="1" stroke="#000000" stroke-opacity="1" stroke-width="3.2"/>
<circle clip-path="url(#clip573)" cx="1747.06" cy="1118.14" r="14.4" fill="#009af9" fill-rule="evenodd" fill-opacity="1" stroke="#000000" stroke-opacity="1" stroke-width="3.2"/>
<circle clip-path="url(#clip573)" cx="1883.17" cy="1199.52" r="14.4" fill="#009af9" fill-rule="evenodd" fill-opacity="1" stroke="#000000" stroke-opacity="1" stroke-width="3.2"/>
<circle clip-path="url(#clip573)" cx="2019.28" cy="1281.88" r="14.4" fill="#009af9" fill-rule="evenodd" fill-opacity="1" stroke="#000000" stroke-opacity="1" stroke-width="3.2"/>
<circle clip-path="url(#clip573)" cx="2155.39" cy="1363.57" r="14.4" fill="#009af9" fill-rule="evenodd" fill-opacity="1" stroke="#000000" stroke-opacity="1" stroke-width="3.2"/>
<circle clip-path="url(#clip573)" cx="2291.51" cy="1445.72" r="14.4" fill="#009af9" fill-rule="evenodd" fill-opacity="1" stroke="#000000" stroke-opacity="1" stroke-width="3.2"/>
<polyline clip-path="url(#clip573)" style="stroke:#e26f46; stroke-linecap:round; stroke-linejoin:round; stroke-width:12; stroke-opacity:1; fill:none" points="
  249.825,107.219 253.148,109.22 256.471,111.221 259.794,113.222 263.117,115.223 278.481,124.474 293.844,133.725 309.208,142.977 324.571,152.228 339.935,161.479 
  355.298,170.731 370.662,179.982 386.025,189.233 404.491,200.353 422.956,211.472 441.422,222.591 459.888,233.711 475.5,243.112 491.113,252.513 506.725,261.914 
  522.338,271.316 539.297,281.528 556.257,291.74 573.216,301.953 590.176,312.165 605.811,321.58 621.446,330.995 637.081,340.41 652.716,349.825 669.479,359.919 
  686.241,370.012 703.004,380.106 719.767,390.2 739.188,401.895 758.609,413.589 778.03,425.284 797.451,436.978 831.969,457.764 866.487,478.55 896.757,496.777 
  927.026,515.004 960.028,534.876 993.03,554.749 1026.23,574.739 1059.43,594.73 1096.13,616.832 1132.83,638.934 1167.76,659.964 1202.68,680.993 1275.31,724.725 
  1336.44,761.538 1411.08,806.482 1479.45,847.654 1542.6,885.68 1606.57,924.198 1678.26,967.367 1743.22,1006.48 1817.6,1051.27 1886.46,1092.74 1954.36,1133.62 
  2020.28,1173.32 2087.85,1214.01 2161.89,1258.59 2269.44,1323.36 2291.51,1336.64 
  "/>
<path clip-path="url(#clip570)" d="
M1665.95 382.962 L2280.62 382.962 L2280.62 95.2176 L1665.95 95.2176  Z
  " fill="#ffffff" fill-rule="evenodd" fill-opacity="1"/>
<polyline clip-path="url(#clip570)" style="stroke:#000000; stroke-linecap:round; stroke-linejoin:round; stroke-width:4; stroke-opacity:1; fill:none" points="
  1665.95,382.962 2280.62,382.962 2280.62,95.2176 1665.95,95.2176 1665.95,382.962 
  "/>
<circle clip-path="url(#clip570)" cx="1762.14" cy="191.132" r="34.56" fill="#009af9" fill-rule="evenodd" fill-opacity="1" stroke="#000000" stroke-opacity="1" stroke-width="7.68"/>
<path clip-path="url(#clip570)" d="M1883.08 163.025 L1883.08 168.337 L1876.97 168.337 Q1873.53 168.337 1872.18 169.726 Q1870.86 171.115 1870.86 174.726 L1870.86 178.164 L1881.38 178.164 L1881.38 183.129 L1870.86 183.129 L1870.86 217.052 L1864.44 217.052 L1864.44 183.129 L1858.32 183.129 L1858.32 178.164 L1864.44 178.164 L1864.44 175.455 Q1864.44 168.962 1867.46 166.011 Q1870.48 163.025 1877.04 163.025 L1883.08 163.025 Z" fill="#000000" fill-rule="evenodd" fill-opacity="1" /><path clip-path="url(#clip570)" d="M1888.43 178.164 L1894.82 178.164 L1894.82 217.052 L1888.43 217.052 L1888.43 178.164 M1888.43 163.025 L1894.82 163.025 L1894.82 171.115 L1888.43 171.115 L1888.43 163.025 Z" fill="#000000" fill-rule="evenodd" fill-opacity="1" /><path clip-path="url(#clip570)" d="M1940.51 178.164 L1926.45 197.087 L1941.24 217.052 L1933.71 217.052 L1922.39 201.775 L1911.07 217.052 L1903.53 217.052 L1918.64 196.705 L1904.82 178.164 L1912.35 178.164 L1922.66 192.018 L1932.98 178.164 L1940.51 178.164 Z" fill="#000000" fill-rule="evenodd" fill-opacity="1" /><path clip-path="url(#clip570)" d="M1981.34 196.011 L1981.34 199.136 L1951.97 199.136 Q1952.39 205.733 1955.93 209.205 Q1959.5 212.643 1965.86 212.643 Q1969.54 212.643 1972.98 211.74 Q1976.45 210.837 1979.85 209.032 L1979.85 215.073 Q1976.41 216.532 1972.8 217.295 Q1969.19 218.059 1965.48 218.059 Q1956.17 218.059 1950.72 212.643 Q1945.3 207.226 1945.3 197.99 Q1945.3 188.441 1950.44 182.851 Q1955.62 177.226 1964.37 177.226 Q1972.21 177.226 1976.76 182.296 Q1981.34 187.33 1981.34 196.011 M1974.96 194.136 Q1974.89 188.893 1972 185.768 Q1969.16 182.643 1964.43 182.643 Q1959.09 182.643 1955.86 185.664 Q1952.66 188.684 1952.18 194.171 L1974.96 194.136 Z" fill="#000000" fill-rule="evenodd" fill-opacity="1" /><path clip-path="url(#clip570)" d="M2017.42 184.066 L2017.42 163.025 L2023.81 163.025 L2023.81 217.052 L2017.42 217.052 L2017.42 211.219 Q2015.41 214.691 2012.32 216.393 Q2009.26 218.059 2004.96 218.059 Q1997.91 218.059 1993.46 212.434 Q1989.05 206.809 1989.05 197.643 Q1989.05 188.476 1993.46 182.851 Q1997.91 177.226 2004.96 177.226 Q2009.26 177.226 2012.32 178.928 Q2015.41 180.594 2017.42 184.066 M1995.65 197.643 Q1995.65 204.691 1998.53 208.719 Q2001.45 212.712 2006.52 212.712 Q2011.59 212.712 2014.5 208.719 Q2017.42 204.691 2017.42 197.643 Q2017.42 190.594 2014.5 186.601 Q2011.59 182.573 2006.52 182.573 Q2001.45 182.573 1998.53 186.601 Q1995.65 190.594 1995.65 197.643 Z" fill="#000000" fill-rule="evenodd" fill-opacity="1" /><path clip-path="url(#clip570)" d="M2065.75 211.219 L2065.75 231.844 L2059.33 231.844 L2059.33 178.164 L2065.75 178.164 L2065.75 184.066 Q2067.77 180.594 2070.82 178.928 Q2073.91 177.226 2078.18 177.226 Q2085.27 177.226 2089.68 182.851 Q2094.12 188.476 2094.12 197.643 Q2094.12 206.809 2089.68 212.434 Q2085.27 218.059 2078.18 218.059 Q2073.91 218.059 2070.82 216.393 Q2067.77 214.691 2065.75 211.219 M2087.49 197.643 Q2087.49 190.594 2084.57 186.601 Q2081.69 182.573 2076.62 182.573 Q2071.55 182.573 2068.64 186.601 Q2065.75 190.594 2065.75 197.643 Q2065.75 204.691 2068.64 208.719 Q2071.55 212.712 2076.62 212.712 Q2081.69 212.712 2084.57 208.719 Q2087.49 204.691 2087.49 197.643 Z" fill="#000000" fill-rule="evenodd" fill-opacity="1" /><path clip-path="url(#clip570)" d="M2119.78 182.643 Q2114.64 182.643 2111.66 186.671 Q2108.67 190.664 2108.67 197.643 Q2108.67 204.622 2111.62 208.65 Q2114.61 212.643 2119.78 212.643 Q2124.89 212.643 2127.87 208.615 Q2130.86 204.587 2130.86 197.643 Q2130.86 190.733 2127.87 186.705 Q2124.89 182.643 2119.78 182.643 M2119.78 177.226 Q2128.11 177.226 2132.87 182.643 Q2137.63 188.059 2137.63 197.643 Q2137.63 207.191 2132.87 212.643 Q2128.11 218.059 2119.78 218.059 Q2111.41 218.059 2106.66 212.643 Q2101.93 207.191 2101.93 197.643 Q2101.93 188.059 2106.66 182.643 Q2111.41 177.226 2119.78 177.226 Z" fill="#000000" fill-rule="evenodd" fill-opacity="1" /><path clip-path="url(#clip570)" d="M2148.22 178.164 L2154.61 178.164 L2154.61 217.052 L2148.22 217.052 L2148.22 178.164 M2148.22 163.025 L2154.61 163.025 L2154.61 171.115 L2148.22 171.115 L2148.22 163.025 Z" fill="#000000" fill-rule="evenodd" fill-opacity="1" /><path clip-path="url(#clip570)" d="M2200.3 193.58 L2200.3 217.052 L2193.91 217.052 L2193.91 193.789 Q2193.91 188.268 2191.76 185.525 Q2189.61 182.782 2185.3 182.782 Q2180.13 182.782 2177.14 186.08 Q2174.16 189.379 2174.16 195.073 L2174.16 217.052 L2167.73 217.052 L2167.73 178.164 L2174.16 178.164 L2174.16 184.205 Q2176.45 180.698 2179.54 178.962 Q2182.66 177.226 2186.73 177.226 Q2193.43 177.226 2196.86 181.393 Q2200.3 185.525 2200.3 193.58 Z" fill="#000000" fill-rule="evenodd" fill-opacity="1" /><path clip-path="url(#clip570)" d="M2219.36 167.122 L2219.36 178.164 L2232.52 178.164 L2232.52 183.129 L2219.36 183.129 L2219.36 204.24 Q2219.36 208.997 2220.65 210.351 Q2221.97 211.705 2225.96 211.705 L2232.52 211.705 L2232.52 217.052 L2225.96 217.052 Q2218.57 217.052 2215.75 214.309 Q2212.94 211.532 2212.94 204.24 L2212.94 183.129 L2208.25 183.129 L2208.25 178.164 L2212.94 178.164 L2212.94 167.122 L2219.36 167.122 Z" fill="#000000" fill-rule="evenodd" fill-opacity="1" /><polyline clip-path="url(#clip570)" style="stroke:#e26f46; stroke-linecap:round; stroke-linejoin:round; stroke-width:6; stroke-opacity:1; fill:none" points="
  1690,287.047 1834.28,287.047 
  "/>
<path clip-path="url(#clip570)" d="M1858.32 333.03 L1858.32 266.03 Q1858.32 263.36 1859.76 263.36 Q1861.21 263.36 1861.21 265.503 L1861.21 332.503 Q1861.21 335.173 1859.76 335.173 Q1858.32 335.173 1858.32 333.03 Z" fill="#000000" fill-rule="evenodd" fill-opacity="1" /><path clip-path="url(#clip570)" d="M1902.62 288.832 Q1902.62 288.867 1902.41 290.131 L1894.4 322.068 Q1893.97 323.754 1892.78 325.441 Q1891.62 327.162 1889.76 328.638 Q1887.93 330.149 1885.12 331.062 Q1882.35 332.011 1879.15 332.011 Q1874.05 332.011 1871.81 330.922 Q1869.59 329.868 1869.59 327.619 Q1869.59 325.652 1870.82 324.527 Q1872.05 323.438 1873.46 323.438 Q1874.79 323.438 1875.49 324.211 Q1876.2 324.984 1876.2 325.968 Q1876.2 327.057 1875.46 328.146 Q1874.72 329.27 1873.25 329.692 Q1875.6 330.43 1879.01 330.43 Q1886.21 330.43 1889.3 322.806 Q1889.37 322.7 1889.37 322.665 L1891.76 313.144 L1891.66 313.074 Q1891.06 313.776 1890.11 314.585 Q1889.2 315.357 1887.23 316.306 Q1885.26 317.255 1883.33 317.255 Q1879.29 317.255 1876.51 314.163 Q1873.77 311.036 1873.77 305.871 Q1873.77 302.112 1875.28 298.353 Q1876.83 294.558 1879.22 291.783 Q1881.64 288.972 1884.73 287.215 Q1887.86 285.459 1890.88 285.459 Q1892.99 285.459 1894.78 286.724 Q1896.57 287.953 1897.56 289.991 Q1897.73 288.305 1898.68 287.602 Q1899.67 286.899 1900.51 286.899 Q1901.46 286.899 1902.02 287.426 Q1902.62 287.918 1902.62 288.832 M1896.72 293.223 Q1896.72 293.012 1896.57 292.45 Q1896.43 291.853 1896.01 290.904 Q1895.63 289.956 1895.03 289.113 Q1894.43 288.269 1893.34 287.672 Q1892.29 287.04 1890.95 287.04 Q1888.77 287.04 1886.6 288.867 Q1884.42 290.658 1882.91 293.434 Q1881.5 296.104 1880.17 301.269 Q1878.87 306.433 1878.87 309.069 Q1878.87 311.668 1879.99 313.671 Q1881.12 315.674 1883.54 315.674 Q1886.35 315.674 1889.37 313.074 Q1892.5 310.368 1893.03 308.05 L1896.5 294.312 Q1896.72 293.469 1896.72 293.223 Z" fill="#000000" fill-rule="evenodd" fill-opacity="1" /><path clip-path="url(#clip570)" d="M1909.26 269.473 Q1909.26 267.681 1910.35 266.943 Q1911.44 266.17 1912.6 266.17 Q1914.04 266.17 1914.95 267.049 Q1915.9 267.892 1915.9 269.473 Q1915.9 270.176 1915.83 270.562 L1913.44 292.275 L1911.79 292.275 L1909.33 270.562 Q1909.26 270.176 1909.26 269.473 Z" fill="#000000" fill-rule="evenodd" fill-opacity="1" /><path clip-path="url(#clip570)" d="M1929.06 333.03 L1929.06 266.03 Q1929.06 263.36 1930.5 263.36 Q1931.94 263.36 1931.94 265.503 L1931.94 332.503 Q1931.94 335.173 1930.5 335.173 Q1929.06 335.173 1929.06 333.03 Z" fill="#000000" fill-rule="evenodd" fill-opacity="1" /><path clip-path="url(#clip570)" d="M1962.38 254.622 Q1962.38 256.024 1961.52 256.86 Q1960.68 257.697 1959.63 257.697 Q1958.69 257.697 1958.2 257.156 Q1957.71 256.614 1957.71 255.926 Q1957.71 255.631 1957.83 255.262 Q1957.95 254.868 1958.22 254.401 Q1958.52 253.934 1959.13 253.589 Q1959.75 253.245 1960.58 253.196 Q1960.41 253.024 1960.36 252.999 Q1959.99 252.704 1959.31 252.606 Q1959.21 252.557 1958.86 252.557 Q1957.17 252.557 1955.44 253.811 Q1953.75 255.04 1951.66 257.377 Q1949.03 260.107 1947.33 261.115 Q1954.78 262.099 1954.78 266.403 Q1954.78 267.116 1954.58 267.977 Q1954.19 269.6 1954.19 270.78 Q1954.19 273.141 1955.79 273.141 Q1957.34 273.141 1958.32 271.567 Q1959.33 269.993 1960.17 266.919 Q1960.29 266.354 1960.41 266.181 Q1960.54 266.009 1960.88 266.009 Q1961.49 266.009 1961.49 266.501 Q1960.93 269.379 1959.67 271.592 Q1958.08 274.273 1955.69 274.273 Q1953.7 274.273 1952.37 272.895 Q1951.07 271.494 1951.07 269.28 Q1951.07 268.739 1951.26 267.509 Q1951.41 267.018 1951.41 266.452 Q1951.41 265.296 1950.77 264.435 Q1950.13 263.55 1949.1 263.107 Q1948.07 262.664 1947.21 262.468 Q1946.37 262.246 1945.56 262.173 Q1943.1 272.576 1942.75 273.215 Q1942.53 273.658 1942.04 273.953 Q1941.55 274.273 1941.03 274.273 Q1940.54 274.273 1940.05 273.928 Q1939.58 273.609 1939.58 272.846 Q1939.58 272.453 1939.78 271.74 L1947.08 242.719 L1947.23 241.735 Q1947.23 241.44 1947.11 241.293 Q1947.01 241.121 1946.42 240.998 Q1945.85 240.875 1944.72 240.875 Q1944.25 240.875 1944.03 240.85 Q1943.84 240.825 1943.66 240.702 Q1943.49 240.555 1943.49 240.26 Q1943.49 239.842 1943.66 239.62 Q1943.86 239.374 1944.01 239.325 Q1944.16 239.276 1944.45 239.251 Q1944.87 239.227 1946.27 239.104 Q1947.67 238.956 1948.88 238.858 Q1950.08 238.76 1950.6 238.76 Q1950.89 238.76 1951.04 238.907 Q1951.21 239.03 1951.24 239.178 L1951.26 239.301 L1946.02 260.549 Q1948.19 259.689 1951.61 255.877 Q1955.57 251.45 1958.96 251.45 Q1960.56 251.45 1961.47 252.434 Q1962.38 253.393 1962.38 254.622 Z" fill="#000000" fill-rule="evenodd" fill-opacity="1" /></svg>
