<?xml version="1.0" encoding="utf-8"?>
<svg xmlns="http://www.w3.org/2000/svg" xmlns:xlink="http://www.w3.org/1999/xlink" width="600" height="400" viewBox="0 0 2400 1600">
<defs>
  <clipPath id="clip690">
    <rect x="0" y="0" width="2400" height="1600"/>
  </clipPath>
</defs>
<path clip-path="url(#clip690)" d="
M0 1600 L2400 1600 L2400 0 L0 0  Z
  " fill="#ffffff" fill-rule="evenodd" fill-opacity="1"/>
<defs>
  <clipPath id="clip691">
    <rect x="480" y="0" width="1681" height="1600"/>
  </clipPath>
</defs>
<path clip-path="url(#clip690)" d="
M193.936 1486.45 L1152.76 1486.45 L1152.76 47.2441 L193.936 47.2441  Z
  " fill="#ffffff" fill-rule="evenodd" fill-opacity="1"/>
<defs>
  <clipPath id="clip692">
    <rect x="193" y="47" width="960" height="1440"/>
  </clipPath>
</defs>
<polyline clip-path="url(#clip692)" style="stroke:#000000; stroke-linecap:round; stroke-linejoin:round; stroke-width:2; stroke-opacity:0.1; fill:none" points="
  273.446,1486.45 273.446,47.2441 
  "/>
<polyline clip-path="url(#clip692)" style="stroke:#000000; stroke-linecap:round; stroke-linejoin:round; stroke-width:2; stroke-opacity:0.1; fill:none" points="
  433.225,1486.45 433.225,47.2441 
  "/>
<polyline clip-path="url(#clip692)" style="stroke:#000000; stroke-linecap:round; stroke-linejoin:round; stroke-width:2; stroke-opacity:0.1; fill:none" points="
  593.004,1486.45 593.004,47.2441 
  "/>
<polyline clip-path="url(#clip692)" style="stroke:#000000; stroke-linecap:round; stroke-linejoin:round; stroke-width:2; stroke-opacity:0.1; fill:none" points="
  752.783,1486.45 752.783,47.2441 
  "/>
<polyline clip-path="url(#clip692)" style="stroke:#000000; stroke-linecap:round; stroke-linejoin:round; stroke-width:2; stroke-opacity:0.1; fill:none" points="
  912.561,1486.45 912.561,47.2441 
  "/>
<polyline clip-path="url(#clip692)" style="stroke:#000000; stroke-linecap:round; stroke-linejoin:round; stroke-width:2; stroke-opacity:0.1; fill:none" points="
  1072.34,1486.45 1072.34,47.2441 
  "/>
<polyline clip-path="url(#clip690)" style="stroke:#000000; stroke-linecap:round; stroke-linejoin:round; stroke-width:4; stroke-opacity:1; fill:none" points="
  193.936,1486.45 1152.76,1486.45 
  "/>
<polyline clip-path="url(#clip690)" style="stroke:#000000; stroke-linecap:round; stroke-linejoin:round; stroke-width:4; stroke-opacity:1; fill:none" points="
  273.446,1486.45 273.446,1467.55 
  "/>
<polyline clip-path="url(#clip690)" style="stroke:#000000; stroke-linecap:round; stroke-linejoin:round; stroke-width:4; stroke-opacity:1; fill:none" points="
  433.225,1486.45 433.225,1467.55 
  "/>
<polyline clip-path="url(#clip690)" style="stroke:#000000; stroke-linecap:round; stroke-linejoin:round; stroke-width:4; stroke-opacity:1; fill:none" points="
  593.004,1486.45 593.004,1467.55 
  "/>
<polyline clip-path="url(#clip690)" style="stroke:#000000; stroke-linecap:round; stroke-linejoin:round; stroke-width:4; stroke-opacity:1; fill:none" points="
  752.783,1486.45 752.783,1467.55 
  "/>
<polyline clip-path="url(#clip690)" style="stroke:#000000; stroke-linecap:round; stroke-linejoin:round; stroke-width:4; stroke-opacity:1; fill:none" points="
  912.561,1486.45 912.561,1467.55 
  "/>
<polyline clip-path="url(#clip690)" style="stroke:#000000; stroke-linecap:round; stroke-linejoin:round; stroke-width:4; stroke-opacity:1; fill:none" points="
  1072.34,1486.45 1072.34,1467.55 
  "/>
<path clip-path="url(#clip690)" d="M219.974 1532.02 L249.65 1532.02 L249.65 1535.95 L219.974 1535.95 L219.974 1532.02 Z" fill="#000000" fill-rule="evenodd" fill-opacity="1" /><path clip-path="url(#clip690)" d="M260.553 1544.91 L268.192 1544.91 L268.192 1518.55 L259.882 1520.21 L259.882 1515.95 L268.146 1514.29 L272.821 1514.29 L272.821 1544.91 L280.46 1544.91 L280.46 1548.85 L260.553 1548.85 L260.553 1544.91 Z" fill="#000000" fill-rule="evenodd" fill-opacity="1" /><path clip-path="url(#clip690)" d="M289.905 1542.97 L294.789 1542.97 L294.789 1548.85 L289.905 1548.85 L289.905 1542.97 Z" fill="#000000" fill-rule="evenodd" fill-opacity="1" /><path clip-path="url(#clip690)" d="M314.974 1517.37 Q311.363 1517.37 309.534 1520.93 Q307.729 1524.47 307.729 1531.6 Q307.729 1538.71 309.534 1542.27 Q311.363 1545.82 314.974 1545.82 Q318.608 1545.82 320.414 1542.27 Q322.242 1538.71 322.242 1531.6 Q322.242 1524.47 320.414 1520.93 Q318.608 1517.37 314.974 1517.37 M314.974 1513.66 Q320.784 1513.66 323.84 1518.27 Q326.918 1522.85 326.918 1531.6 Q326.918 1540.33 323.84 1544.94 Q320.784 1549.52 314.974 1549.52 Q309.164 1549.52 306.085 1544.94 Q303.03 1540.33 303.03 1531.6 Q303.03 1522.85 306.085 1518.27 Q309.164 1513.66 314.974 1513.66 Z" fill="#000000" fill-rule="evenodd" fill-opacity="1" /><path clip-path="url(#clip690)" d="M380.251 1532.02 L409.927 1532.02 L409.927 1535.95 L380.251 1535.95 L380.251 1532.02 Z" fill="#000000" fill-rule="evenodd" fill-opacity="1" /><path clip-path="url(#clip690)" d="M430.019 1517.37 Q426.408 1517.37 424.579 1520.93 Q422.774 1524.47 422.774 1531.6 Q422.774 1538.71 424.579 1542.27 Q426.408 1545.82 430.019 1545.82 Q433.653 1545.82 435.459 1542.27 Q437.288 1538.71 437.288 1531.6 Q437.288 1524.47 435.459 1520.93 Q433.653 1517.37 430.019 1517.37 M430.019 1513.66 Q435.829 1513.66 438.885 1518.27 Q441.964 1522.85 441.964 1531.6 Q441.964 1540.33 438.885 1544.94 Q435.829 1549.52 430.019 1549.52 Q424.209 1549.52 421.13 1544.94 Q418.075 1540.33 418.075 1531.6 Q418.075 1522.85 421.13 1518.27 Q424.209 1513.66 430.019 1513.66 Z" fill="#000000" fill-rule="evenodd" fill-opacity="1" /><path clip-path="url(#clip690)" d="M450.181 1542.97 L455.065 1542.97 L455.065 1548.85 L450.181 1548.85 L450.181 1542.97 Z" fill="#000000" fill-rule="evenodd" fill-opacity="1" /><path clip-path="url(#clip690)" d="M465.297 1514.29 L483.653 1514.29 L483.653 1518.22 L469.579 1518.22 L469.579 1526.7 Q470.598 1526.35 471.616 1526.19 Q472.635 1526 473.653 1526 Q479.44 1526 482.82 1529.17 Q486.199 1532.34 486.199 1537.76 Q486.199 1543.34 482.727 1546.44 Q479.255 1549.52 472.936 1549.52 Q470.76 1549.52 468.491 1549.15 Q466.246 1548.78 463.838 1548.04 L463.838 1543.34 Q465.922 1544.47 468.144 1545.03 Q470.366 1545.58 472.843 1545.58 Q476.848 1545.58 479.186 1543.48 Q481.524 1541.37 481.524 1537.76 Q481.524 1534.15 479.186 1532.04 Q476.848 1529.94 472.843 1529.94 Q470.968 1529.94 469.093 1530.35 Q467.241 1530.77 465.297 1531.65 L465.297 1514.29 Z" fill="#000000" fill-rule="evenodd" fill-opacity="1" /><path clip-path="url(#clip690)" d="M570.388 1517.37 Q566.777 1517.37 564.949 1520.93 Q563.143 1524.47 563.143 1531.6 Q563.143 1538.71 564.949 1542.27 Q566.777 1545.82 570.388 1545.82 Q574.023 1545.82 575.828 1542.27 Q577.657 1538.71 577.657 1531.6 Q577.657 1524.47 575.828 1520.93 Q574.023 1517.37 570.388 1517.37 M570.388 1513.66 Q576.198 1513.66 579.254 1518.27 Q582.333 1522.85 582.333 1531.6 Q582.333 1540.33 579.254 1544.94 Q576.198 1549.52 570.388 1549.52 Q564.578 1549.52 561.499 1544.94 Q558.444 1540.33 558.444 1531.6 Q558.444 1522.85 561.499 1518.27 Q564.578 1513.66 570.388 1513.66 Z" fill="#000000" fill-rule="evenodd" fill-opacity="1" /><path clip-path="url(#clip690)" d="M590.55 1542.97 L595.434 1542.97 L595.434 1548.85 L590.55 1548.85 L590.55 1542.97 Z" fill="#000000" fill-rule="evenodd" fill-opacity="1" /><path clip-path="url(#clip690)" d="M615.62 1517.37 Q612.008 1517.37 610.18 1520.93 Q608.374 1524.47 608.374 1531.6 Q608.374 1538.71 610.18 1542.27 Q612.008 1545.82 615.62 1545.82 Q619.254 1545.82 621.059 1542.27 Q622.888 1538.71 622.888 1531.6 Q622.888 1524.47 621.059 1520.93 Q619.254 1517.37 615.62 1517.37 M615.62 1513.66 Q621.43 1513.66 624.485 1518.27 Q627.564 1522.85 627.564 1531.6 Q627.564 1540.33 624.485 1544.94 Q621.43 1549.52 615.62 1549.52 Q609.809 1549.52 606.731 1544.94 Q603.675 1540.33 603.675 1531.6 Q603.675 1522.85 606.731 1518.27 Q609.809 1513.66 615.62 1513.66 Z" fill="#000000" fill-rule="evenodd" fill-opacity="1" /><path clip-path="url(#clip690)" d="M730.665 1517.37 Q727.054 1517.37 725.225 1520.93 Q723.419 1524.47 723.419 1531.6 Q723.419 1538.71 725.225 1542.27 Q727.054 1545.82 730.665 1545.82 Q734.299 1545.82 736.105 1542.27 Q737.933 1538.71 737.933 1531.6 Q737.933 1524.47 736.105 1520.93 Q734.299 1517.37 730.665 1517.37 M730.665 1513.66 Q736.475 1513.66 739.53 1518.27 Q742.609 1522.85 742.609 1531.6 Q742.609 1540.33 739.53 1544.94 Q736.475 1549.52 730.665 1549.52 Q724.855 1549.52 721.776 1544.94 Q718.72 1540.33 718.72 1531.6 Q718.72 1522.85 721.776 1518.27 Q724.855 1513.66 730.665 1513.66 Z" fill="#000000" fill-rule="evenodd" fill-opacity="1" /><path clip-path="url(#clip690)" d="M750.827 1542.97 L755.711 1542.97 L755.711 1548.85 L750.827 1548.85 L750.827 1542.97 Z" fill="#000000" fill-rule="evenodd" fill-opacity="1" /><path clip-path="url(#clip690)" d="M765.942 1514.29 L784.299 1514.29 L784.299 1518.22 L770.225 1518.22 L770.225 1526.7 Q771.243 1526.35 772.262 1526.19 Q773.28 1526 774.299 1526 Q780.086 1526 783.465 1529.17 Q786.845 1532.34 786.845 1537.76 Q786.845 1543.34 783.373 1546.44 Q779.901 1549.52 773.581 1549.52 Q771.405 1549.52 769.137 1549.15 Q766.891 1548.78 764.484 1548.04 L764.484 1543.34 Q766.567 1544.47 768.79 1545.03 Q771.012 1545.58 773.489 1545.58 Q777.493 1545.58 779.831 1543.48 Q782.169 1541.37 782.169 1537.76 Q782.169 1534.15 779.831 1532.04 Q777.493 1529.94 773.489 1529.94 Q771.614 1529.94 769.739 1530.35 Q767.887 1530.77 765.942 1531.65 L765.942 1514.29 Z" fill="#000000" fill-rule="evenodd" fill-opacity="1" /><path clip-path="url(#clip690)" d="M879.714 1544.91 L887.353 1544.91 L887.353 1518.55 L879.043 1520.21 L879.043 1515.95 L887.307 1514.29 L891.983 1514.29 L891.983 1544.91 L899.622 1544.91 L899.622 1548.85 L879.714 1548.85 L879.714 1544.91 Z" fill="#000000" fill-rule="evenodd" fill-opacity="1" /><path clip-path="url(#clip690)" d="M909.066 1542.97 L913.95 1542.97 L913.95 1548.85 L909.066 1548.85 L909.066 1542.97 Z" fill="#000000" fill-rule="evenodd" fill-opacity="1" /><path clip-path="url(#clip690)" d="M934.135 1517.37 Q930.524 1517.37 928.696 1520.93 Q926.89 1524.47 926.89 1531.6 Q926.89 1538.71 928.696 1542.27 Q930.524 1545.82 934.135 1545.82 Q937.77 1545.82 939.575 1542.27 Q941.404 1538.71 941.404 1531.6 Q941.404 1524.47 939.575 1520.93 Q937.77 1517.37 934.135 1517.37 M934.135 1513.66 Q939.946 1513.66 943.001 1518.27 Q946.08 1522.85 946.08 1531.6 Q946.08 1540.33 943.001 1544.94 Q939.946 1549.52 934.135 1549.52 Q928.325 1549.52 925.247 1544.94 Q922.191 1540.33 922.191 1531.6 Q922.191 1522.85 925.247 1518.27 Q928.325 1513.66 934.135 1513.66 Z" fill="#000000" fill-rule="evenodd" fill-opacity="1" /><path clip-path="url(#clip690)" d="M1039.99 1544.91 L1047.63 1544.91 L1047.63 1518.55 L1039.32 1520.21 L1039.32 1515.95 L1047.58 1514.29 L1052.26 1514.29 L1052.26 1544.91 L1059.9 1544.91 L1059.9 1548.85 L1039.99 1548.85 L1039.99 1544.91 Z" fill="#000000" fill-rule="evenodd" fill-opacity="1" /><path clip-path="url(#clip690)" d="M1069.34 1542.97 L1074.23 1542.97 L1074.23 1548.85 L1069.34 1548.85 L1069.34 1542.97 Z" fill="#000000" fill-rule="evenodd" fill-opacity="1" /><path clip-path="url(#clip690)" d="M1084.46 1514.29 L1102.81 1514.29 L1102.81 1518.22 L1088.74 1518.22 L1088.74 1526.7 Q1089.76 1526.35 1090.78 1526.19 Q1091.8 1526 1092.81 1526 Q1098.6 1526 1101.98 1529.17 Q1105.36 1532.34 1105.36 1537.76 Q1105.36 1543.34 1101.89 1546.44 Q1098.42 1549.52 1092.1 1549.52 Q1089.92 1549.52 1087.65 1549.15 Q1085.41 1548.78 1083 1548.04 L1083 1543.34 Q1085.08 1544.47 1087.31 1545.03 Q1089.53 1545.58 1092 1545.58 Q1096.01 1545.58 1098.35 1543.48 Q1100.68 1541.37 1100.68 1537.76 Q1100.68 1534.15 1098.35 1532.04 Q1096.01 1529.94 1092 1529.94 Q1090.13 1529.94 1088.25 1530.35 Q1086.4 1530.77 1084.46 1531.65 L1084.46 1514.29 Z" fill="#000000" fill-rule="evenodd" fill-opacity="1" /><polyline clip-path="url(#clip692)" style="stroke:#000000; stroke-linecap:round; stroke-linejoin:round; stroke-width:2; stroke-opacity:0.1; fill:none" points="
  193.936,1369.65 1152.76,1369.65 
  "/>
<polyline clip-path="url(#clip692)" style="stroke:#000000; stroke-linecap:round; stroke-linejoin:round; stroke-width:2; stroke-opacity:0.1; fill:none" points="
  193.936,1050.09 1152.76,1050.09 
  "/>
<polyline clip-path="url(#clip692)" style="stroke:#000000; stroke-linecap:round; stroke-linejoin:round; stroke-width:2; stroke-opacity:0.1; fill:none" points="
  193.936,730.533 1152.76,730.533 
  "/>
<polyline clip-path="url(#clip692)" style="stroke:#000000; stroke-linecap:round; stroke-linejoin:round; stroke-width:2; stroke-opacity:0.1; fill:none" points="
  193.936,410.975 1152.76,410.975 
  "/>
<polyline clip-path="url(#clip692)" style="stroke:#000000; stroke-linecap:round; stroke-linejoin:round; stroke-width:2; stroke-opacity:0.1; fill:none" points="
  193.936,91.4177 1152.76,91.4177 
  "/>
<polyline clip-path="url(#clip690)" style="stroke:#000000; stroke-linecap:round; stroke-linejoin:round; stroke-width:4; stroke-opacity:1; fill:none" points="
  193.936,1486.45 193.936,47.2441 
  "/>
<polyline clip-path="url(#clip690)" style="stroke:#000000; stroke-linecap:round; stroke-linejoin:round; stroke-width:4; stroke-opacity:1; fill:none" points="
  193.936,1369.65 212.834,1369.65 
  "/>
<polyline clip-path="url(#clip690)" style="stroke:#000000; stroke-linecap:round; stroke-linejoin:round; stroke-width:4; stroke-opacity:1; fill:none" points="
  193.936,1050.09 212.834,1050.09 
  "/>
<polyline clip-path="url(#clip690)" style="stroke:#000000; stroke-linecap:round; stroke-linejoin:round; stroke-width:4; stroke-opacity:1; fill:none" points="
  193.936,730.533 212.834,730.533 
  "/>
<polyline clip-path="url(#clip690)" style="stroke:#000000; stroke-linecap:round; stroke-linejoin:round; stroke-width:4; stroke-opacity:1; fill:none" points="
  193.936,410.975 212.834,410.975 
  "/>
<polyline clip-path="url(#clip690)" style="stroke:#000000; stroke-linecap:round; stroke-linejoin:round; stroke-width:4; stroke-opacity:1; fill:none" points="
  193.936,91.4177 212.834,91.4177 
  "/>
<path clip-path="url(#clip690)" d="M97.8206 1370.1 L127.496 1370.1 L127.496 1374.03 L97.8206 1374.03 L97.8206 1370.1 Z" fill="#000000" fill-rule="evenodd" fill-opacity="1" /><path clip-path="url(#clip690)" d="M141.617 1382.99 L157.936 1382.99 L157.936 1386.93 L135.992 1386.93 L135.992 1382.99 Q138.654 1380.24 143.237 1375.61 Q147.843 1370.96 149.024 1369.61 Q151.269 1367.09 152.149 1365.35 Q153.052 1363.59 153.052 1361.9 Q153.052 1359.15 151.107 1357.41 Q149.186 1355.68 146.084 1355.68 Q143.885 1355.68 141.431 1356.44 Q139.001 1357.21 136.223 1358.76 L136.223 1354.03 Q139.047 1352.9 141.501 1352.32 Q143.955 1351.74 145.992 1351.74 Q151.362 1351.74 154.556 1354.43 Q157.751 1357.11 157.751 1361.6 Q157.751 1363.73 156.941 1365.65 Q156.154 1367.55 154.047 1370.15 Q153.468 1370.82 150.367 1374.03 Q147.265 1377.23 141.617 1382.99 Z" fill="#000000" fill-rule="evenodd" fill-opacity="1" /><path clip-path="url(#clip690)" d="M97.4502 1050.54 L127.126 1050.54 L127.126 1054.48 L97.4502 1054.48 L97.4502 1050.54 Z" fill="#000000" fill-rule="evenodd" fill-opacity="1" /><path clip-path="url(#clip690)" d="M138.029 1063.44 L145.668 1063.44 L145.668 1037.07 L137.357 1038.74 L137.357 1034.48 L145.621 1032.81 L150.297 1032.81 L150.297 1063.44 L157.936 1063.44 L157.936 1067.37 L138.029 1067.37 L138.029 1063.44 Z" fill="#000000" fill-rule="evenodd" fill-opacity="1" /><path clip-path="url(#clip690)" d="M145.992 716.331 Q142.381 716.331 140.552 719.896 Q138.746 723.438 138.746 730.567 Q138.746 737.674 140.552 741.239 Q142.381 744.78 145.992 744.78 Q149.626 744.78 151.431 741.239 Q153.26 737.674 153.26 730.567 Q153.26 723.438 151.431 719.896 Q149.626 716.331 145.992 716.331 M145.992 712.628 Q151.802 712.628 154.857 717.234 Q157.936 721.817 157.936 730.567 Q157.936 739.294 154.857 743.901 Q151.802 748.484 145.992 748.484 Q140.181 748.484 137.103 743.901 Q134.047 739.294 134.047 730.567 Q134.047 721.817 137.103 717.234 Q140.181 712.628 145.992 712.628 Z" fill="#000000" fill-rule="evenodd" fill-opacity="1" /><path clip-path="url(#clip690)" d="M138.029 424.32 L145.668 424.32 L145.668 397.954 L137.357 399.621 L137.357 395.362 L145.621 393.695 L150.297 393.695 L150.297 424.32 L157.936 424.32 L157.936 428.255 L138.029 428.255 L138.029 424.32 Z" fill="#000000" fill-rule="evenodd" fill-opacity="1" /><path clip-path="url(#clip690)" d="M141.617 104.762 L157.936 104.762 L157.936 108.698 L135.992 108.698 L135.992 104.762 Q138.654 102.008 143.237 97.3783 Q147.843 92.7255 149.024 91.3829 Q151.269 88.8598 152.149 87.1237 Q153.052 85.3645 153.052 83.6746 Q153.052 80.92 151.107 79.1839 Q149.186 77.4478 146.084 77.4478 Q143.885 77.4478 141.431 78.2117 Q139.001 78.9756 136.223 80.5265 L136.223 75.8043 Q139.047 74.6701 141.501 74.0914 Q143.955 73.5127 145.992 73.5127 Q151.362 73.5127 154.556 76.1978 Q157.751 78.883 157.751 83.3737 Q157.751 85.5033 156.941 87.4246 Q156.154 89.3228 154.047 91.9153 Q153.468 92.5866 150.367 95.8042 Q147.265 98.9986 141.617 104.762 Z" fill="#000000" fill-rule="evenodd" fill-opacity="1" /><circle clip-path="url(#clip692)" cx="912.561" cy="730.533" r="14.4" fill="#009af9" fill-rule="evenodd" fill-opacity="1" stroke="#000000" stroke-opacity="1" stroke-width="3.2"/>
<circle clip-path="url(#clip692)" cx="1005.75" cy="677.315" r="14.4" fill="#009af9" fill-rule="evenodd" fill-opacity="1" stroke="#000000" stroke-opacity="1" stroke-width="3.2"/>
<circle clip-path="url(#clip692)" cx="1079.14" cy="603.054" r="14.4" fill="#009af9" fill-rule="evenodd" fill-opacity="1" stroke="#000000" stroke-opacity="1" stroke-width="3.2"/>
<circle clip-path="url(#clip692)" cx="1121.19" cy="516.695" r="14.4" fill="#009af9" fill-rule="evenodd" fill-opacity="1" stroke="#000000" stroke-opacity="1" stroke-width="3.2"/>
<circle clip-path="url(#clip692)" cx="1125.62" cy="430.569" r="14.4" fill="#009af9" fill-rule="evenodd" fill-opacity="1" stroke="#000000" stroke-opacity="1" stroke-width="3.2"/>
<circle clip-path="url(#clip692)" cx="1092.55" cy="357.715" r="14.4" fill="#009af9" fill-rule="evenodd" fill-opacity="1" stroke="#000000" stroke-opacity="1" stroke-width="3.2"/>
<circle clip-path="url(#clip692)" cx="1028.19" cy="309.076" r="14.4" fill="#009af9" fill-rule="evenodd" fill-opacity="1" stroke="#000000" stroke-opacity="1" stroke-width="3.2"/>
<circle clip-path="url(#clip692)" cx="943.371" cy="291.186" r="14.4" fill="#009af9" fill-rule="evenodd" fill-opacity="1" stroke="#000000" stroke-opacity="1" stroke-width="3.2"/>
<circle clip-path="url(#clip692)" cx="851.028" cy="304.895" r="14.4" fill="#009af9" fill-rule="evenodd" fill-opacity="1" stroke="#000000" stroke-opacity="1" stroke-width="3.2"/>
<circle clip-path="url(#clip692)" cx="763.505" cy="345.367" r="14.4" fill="#009af9" fill-rule="evenodd" fill-opacity="1" stroke="#000000" stroke-opacity="1" stroke-width="3.2"/>
<circle clip-path="url(#clip692)" cx="690.112" cy="403.342" r="14.4" fill="#009af9" fill-rule="evenodd" fill-opacity="1" stroke="#000000" stroke-opacity="1" stroke-width="3.2"/>
<circle clip-path="url(#clip692)" cx="635.561" cy="467.304" r="14.4" fill="#009af9" fill-rule="evenodd" fill-opacity="1" stroke="#000000" stroke-opacity="1" stroke-width="3.2"/>
<circle clip-path="url(#clip692)" cx="599.562" cy="526.028" r="14.4" fill="#009af9" fill-rule="evenodd" fill-opacity="1" stroke="#000000" stroke-opacity="1" stroke-width="3.2"/>
<circle clip-path="url(#clip692)" cx="577.605" cy="570.908" r="14.4" fill="#009af9" fill-rule="evenodd" fill-opacity="1" stroke="#000000" stroke-opacity="1" stroke-width="3.2"/>
<circle clip-path="url(#clip692)" cx="562.645" cy="597.522" r="14.4" fill="#009af9" fill-rule="evenodd" fill-opacity="1" stroke="#000000" stroke-opacity="1" stroke-width="3.2"/>
<circle clip-path="url(#clip692)" cx="547.228" cy="606.144" r="14.4" fill="#009af9" fill-rule="evenodd" fill-opacity="1" stroke="#000000" stroke-opacity="1" stroke-width="3.2"/>
<circle clip-path="url(#clip692)" cx="525.493" cy="601.128" r="14.4" fill="#009af9" fill-rule="evenodd" fill-opacity="1" stroke="#000000" stroke-opacity="1" stroke-width="3.2"/>
<circle clip-path="url(#clip692)" cx="494.575" cy="589.427" r="14.4" fill="#009af9" fill-rule="evenodd" fill-opacity="1" stroke="#000000" stroke-opacity="1" stroke-width="3.2"/>
<circle clip-path="url(#clip692)" cx="455.074" cy="578.656" r="14.4" fill="#009af9" fill-rule="evenodd" fill-opacity="1" stroke="#000000" stroke-opacity="1" stroke-width="3.2"/>
<circle clip-path="url(#clip692)" cx="410.571" cy="575.225" r="14.4" fill="#009af9" fill-rule="evenodd" fill-opacity="1" stroke="#000000" stroke-opacity="1" stroke-width="3.2"/>
<circle clip-path="url(#clip692)" cx="366.37" cy="583.01" r="14.4" fill="#009af9" fill-rule="evenodd" fill-opacity="1" stroke="#000000" stroke-opacity="1" stroke-width="3.2"/>
<circle clip-path="url(#clip692)" cx="327.874" cy="602.853" r="14.4" fill="#009af9" fill-rule="evenodd" fill-opacity="1" stroke="#000000" stroke-opacity="1" stroke-width="3.2"/>
<circle clip-path="url(#clip692)" cx="299.066" cy="632.939" r="14.4" fill="#009af9" fill-rule="evenodd" fill-opacity="1" stroke="#000000" stroke-opacity="1" stroke-width="3.2"/>
<circle clip-path="url(#clip692)" cx="281.518" cy="669.871" r="14.4" fill="#009af9" fill-rule="evenodd" fill-opacity="1" stroke="#000000" stroke-opacity="1" stroke-width="3.2"/>
<circle clip-path="url(#clip692)" cx="274.187" cy="710.064" r="14.4" fill="#009af9" fill-rule="evenodd" fill-opacity="1" stroke="#000000" stroke-opacity="1" stroke-width="3.2"/>
<circle clip-path="url(#clip692)" cx="274.019" cy="751.012" r="14.4" fill="#009af9" fill-rule="evenodd" fill-opacity="1" stroke="#000000" stroke-opacity="1" stroke-width="3.2"/>
<circle clip-path="url(#clip692)" cx="277.161" cy="792.043" r="14.4" fill="#009af9" fill-rule="evenodd" fill-opacity="1" stroke="#000000" stroke-opacity="1" stroke-width="3.2"/>
<circle clip-path="url(#clip692)" cx="280.386" cy="834.329" r="14.4" fill="#009af9" fill-rule="evenodd" fill-opacity="1" stroke="#000000" stroke-opacity="1" stroke-width="3.2"/>
<circle clip-path="url(#clip692)" cx="282.311" cy="880.155" r="14.4" fill="#009af9" fill-rule="evenodd" fill-opacity="1" stroke="#000000" stroke-opacity="1" stroke-width="3.2"/>
<circle clip-path="url(#clip692)" cx="284.003" cy="931.67" r="14.4" fill="#009af9" fill-rule="evenodd" fill-opacity="1" stroke="#000000" stroke-opacity="1" stroke-width="3.2"/>
<circle clip-path="url(#clip692)" cx="288.785" cy="989.518" r="14.4" fill="#009af9" fill-rule="evenodd" fill-opacity="1" stroke="#000000" stroke-opacity="1" stroke-width="3.2"/>
<circle clip-path="url(#clip692)" cx="301.256" cy="1051.78" r="14.4" fill="#009af9" fill-rule="evenodd" fill-opacity="1" stroke="#000000" stroke-opacity="1" stroke-width="3.2"/>
<circle clip-path="url(#clip692)" cx="325.785" cy="1113.61" r="14.4" fill="#009af9" fill-rule="evenodd" fill-opacity="1" stroke="#000000" stroke-opacity="1" stroke-width="3.2"/>
<circle clip-path="url(#clip692)" cx="364.899" cy="1167.77" r="14.4" fill="#009af9" fill-rule="evenodd" fill-opacity="1" stroke="#000000" stroke-opacity="1" stroke-width="3.2"/>
<circle clip-path="url(#clip692)" cx="418.052" cy="1205.93" r="14.4" fill="#009af9" fill-rule="evenodd" fill-opacity="1" stroke="#000000" stroke-opacity="1" stroke-width="3.2"/>
<circle clip-path="url(#clip692)" cx="481.146" cy="1220.61" r="14.4" fill="#009af9" fill-rule="evenodd" fill-opacity="1" stroke="#000000" stroke-opacity="1" stroke-width="3.2"/>
<circle clip-path="url(#clip692)" cx="547.033" cy="1207.07" r="14.4" fill="#009af9" fill-rule="evenodd" fill-opacity="1" stroke="#000000" stroke-opacity="1" stroke-width="3.2"/>
<circle clip-path="url(#clip692)" cx="606.931" cy="1164.81" r="14.4" fill="#009af9" fill-rule="evenodd" fill-opacity="1" stroke="#000000" stroke-opacity="1" stroke-width="3.2"/>
<circle clip-path="url(#clip692)" cx="652.45" cy="1098.23" r="14.4" fill="#009af9" fill-rule="evenodd" fill-opacity="1" stroke="#000000" stroke-opacity="1" stroke-width="3.2"/>
<circle clip-path="url(#clip692)" cx="677.741" cy="1016.04" r="14.4" fill="#009af9" fill-rule="evenodd" fill-opacity="1" stroke="#000000" stroke-opacity="1" stroke-width="3.2"/>
<circle clip-path="url(#clip692)" cx="681.206" cy="929.782" r="14.4" fill="#009af9" fill-rule="evenodd" fill-opacity="1" stroke="#000000" stroke-opacity="1" stroke-width="3.2"/>
<circle clip-path="url(#clip692)" cx="666.292" cy="851.43" r="14.4" fill="#009af9" fill-rule="evenodd" fill-opacity="1" stroke="#000000" stroke-opacity="1" stroke-width="3.2"/>
<circle clip-path="url(#clip692)" cx="641.119" cy="790.867" r="14.4" fill="#009af9" fill-rule="evenodd" fill-opacity="1" stroke="#000000" stroke-opacity="1" stroke-width="3.2"/>
<circle clip-path="url(#clip692)" cx="616.923" cy="753.697" r="14.4" fill="#009af9" fill-rule="evenodd" fill-opacity="1" stroke="#000000" stroke-opacity="1" stroke-width="3.2"/>
<circle clip-path="url(#clip692)" cx="605.658" cy="739.977" r="14.4" fill="#009af9" fill-rule="evenodd" fill-opacity="1" stroke="#000000" stroke-opacity="1" stroke-width="3.2"/>
<circle clip-path="url(#clip692)" cx="617.261" cy="744.194" r="14.4" fill="#009af9" fill-rule="evenodd" fill-opacity="1" stroke="#000000" stroke-opacity="1" stroke-width="3.2"/>
<circle clip-path="url(#clip692)" cx="657.228" cy="756.534" r="14.4" fill="#009af9" fill-rule="evenodd" fill-opacity="1" stroke="#000000" stroke-opacity="1" stroke-width="3.2"/>
<circle clip-path="url(#clip692)" cx="725.084" cy="765.168" r="14.4" fill="#009af9" fill-rule="evenodd" fill-opacity="1" stroke="#000000" stroke-opacity="1" stroke-width="3.2"/>
<circle clip-path="url(#clip692)" cx="814.129" cy="759.044" r="14.4" fill="#009af9" fill-rule="evenodd" fill-opacity="1" stroke="#000000" stroke-opacity="1" stroke-width="3.2"/>
<circle clip-path="url(#clip692)" cx="912.561" cy="730.533" r="14.4" fill="#009af9" fill-rule="evenodd" fill-opacity="1" stroke="#000000" stroke-opacity="1" stroke-width="3.2"/>
<circle clip-path="url(#clip692)" cx="309.732" cy="878.432" r="14.4" fill="#e26f46" fill-rule="evenodd" fill-opacity="1" stroke="#000000" stroke-opacity="1" stroke-width="3.2"/>
<circle clip-path="url(#clip692)" cx="251.758" cy="968.735" r="14.4" fill="#e26f46" fill-rule="evenodd" fill-opacity="1" stroke="#000000" stroke-opacity="1" stroke-width="3.2"/>
<circle clip-path="url(#clip692)" cx="221.072" cy="1068.53" r="14.4" fill="#e26f46" fill-rule="evenodd" fill-opacity="1" stroke="#000000" stroke-opacity="1" stroke-width="3.2"/>
<circle clip-path="url(#clip692)" cx="223.767" cy="1164.54" r="14.4" fill="#e26f46" fill-rule="evenodd" fill-opacity="1" stroke="#000000" stroke-opacity="1" stroke-width="3.2"/>
<circle clip-path="url(#clip692)" cx="259.698" cy="1242.94" r="14.4" fill="#e26f46" fill-rule="evenodd" fill-opacity="1" stroke="#000000" stroke-opacity="1" stroke-width="3.2"/>
<circle clip-path="url(#clip692)" cx="322.735" cy="1292.22" r="14.4" fill="#e26f46" fill-rule="evenodd" fill-opacity="1" stroke="#000000" stroke-opacity="1" stroke-width="3.2"/>
<circle clip-path="url(#clip692)" cx="402.292" cy="1305.55" r="14.4" fill="#e26f46" fill-rule="evenodd" fill-opacity="1" stroke="#000000" stroke-opacity="1" stroke-width="3.2"/>
<circle clip-path="url(#clip692)" cx="485.762" cy="1282.15" r="14.4" fill="#e26f46" fill-rule="evenodd" fill-opacity="1" stroke="#000000" stroke-opacity="1" stroke-width="3.2"/>
<circle clip-path="url(#clip692)" cx="561.275" cy="1227.26" r="14.4" fill="#e26f46" fill-rule="evenodd" fill-opacity="1" stroke="#000000" stroke-opacity="1" stroke-width="3.2"/>
<circle clip-path="url(#clip692)" cx="620.127" cy="1150.87" r="14.4" fill="#e26f46" fill-rule="evenodd" fill-opacity="1" stroke="#000000" stroke-opacity="1" stroke-width="3.2"/>
<circle clip-path="url(#clip692)" cx="658.354" cy="1065.51" r="14.4" fill="#e26f46" fill-rule="evenodd" fill-opacity="1" stroke="#000000" stroke-opacity="1" stroke-width="3.2"/>
<circle clip-path="url(#clip692)" cx="677.108" cy="983.568" r="14.4" fill="#e26f46" fill-rule="evenodd" fill-opacity="1" stroke="#000000" stroke-opacity="1" stroke-width="3.2"/>
<circle clip-path="url(#clip692)" cx="681.84" cy="914.851" r="14.4" fill="#e26f46" fill-rule="evenodd" fill-opacity="1" stroke="#000000" stroke-opacity="1" stroke-width="3.2"/>
<circle clip-path="url(#clip692)" cx="680.533" cy="864.905" r="14.4" fill="#e26f46" fill-rule="evenodd" fill-opacity="1" stroke="#000000" stroke-opacity="1" stroke-width="3.2"/>
<circle clip-path="url(#clip692)" cx="681.476" cy="834.389" r="14.4" fill="#e26f46" fill-rule="evenodd" fill-opacity="1" stroke="#000000" stroke-opacity="1" stroke-width="3.2"/>
<circle clip-path="url(#clip692)" cx="691.153" cy="819.611" r="14.4" fill="#e26f46" fill-rule="evenodd" fill-opacity="1" stroke="#000000" stroke-opacity="1" stroke-width="3.2"/>
<circle clip-path="url(#clip692)" cx="712.74" cy="813.998" r="14.4" fill="#e26f46" fill-rule="evenodd" fill-opacity="1" stroke="#000000" stroke-opacity="1" stroke-width="3.2"/>
<circle clip-path="url(#clip692)" cx="745.563" cy="810.06" r="14.4" fill="#e26f46" fill-rule="evenodd" fill-opacity="1" stroke="#000000" stroke-opacity="1" stroke-width="3.2"/>
<circle clip-path="url(#clip692)" cx="785.564" cy="801.326" r="14.4" fill="#e26f46" fill-rule="evenodd" fill-opacity="1" stroke="#000000" stroke-opacity="1" stroke-width="3.2"/>
<circle clip-path="url(#clip692)" cx="826.602" cy="783.77" r="14.4" fill="#e26f46" fill-rule="evenodd" fill-opacity="1" stroke="#000000" stroke-opacity="1" stroke-width="3.2"/>
<circle clip-path="url(#clip692)" cx="862.18" cy="756.412" r="14.4" fill="#e26f46" fill-rule="evenodd" fill-opacity="1" stroke="#000000" stroke-opacity="1" stroke-width="3.2"/>
<circle clip-path="url(#clip692)" cx="887.121" cy="721.006" r="14.4" fill="#e26f46" fill-rule="evenodd" fill-opacity="1" stroke="#000000" stroke-opacity="1" stroke-width="3.2"/>
<circle clip-path="url(#clip692)" cx="898.734" cy="681.003" r="14.4" fill="#e26f46" fill-rule="evenodd" fill-opacity="1" stroke="#000000" stroke-opacity="1" stroke-width="3.2"/>
<circle clip-path="url(#clip692)" cx="897.196" cy="640.143" r="14.4" fill="#e26f46" fill-rule="evenodd" fill-opacity="1" stroke="#000000" stroke-opacity="1" stroke-width="3.2"/>
<circle clip-path="url(#clip692)" cx="885.093" cy="601.121" r="14.4" fill="#e26f46" fill-rule="evenodd" fill-opacity="1" stroke="#000000" stroke-opacity="1" stroke-width="3.2"/>
<circle clip-path="url(#clip692)" cx="866.289" cy="564.744" r="14.4" fill="#e26f46" fill-rule="evenodd" fill-opacity="1" stroke="#000000" stroke-opacity="1" stroke-width="3.2"/>
<circle clip-path="url(#clip692)" cx="844.515" cy="529.826" r="14.4" fill="#e26f46" fill-rule="evenodd" fill-opacity="1" stroke="#000000" stroke-opacity="1" stroke-width="3.2"/>
<circle clip-path="url(#clip692)" cx="822.085" cy="493.835" r="14.4" fill="#e26f46" fill-rule="evenodd" fill-opacity="1" stroke="#000000" stroke-opacity="1" stroke-width="3.2"/>
<circle clip-path="url(#clip692)" cx="799.169" cy="454.104" r="14.4" fill="#e26f46" fill-rule="evenodd" fill-opacity="1" stroke="#000000" stroke-opacity="1" stroke-width="3.2"/>
<circle clip-path="url(#clip692)" cx="773.826" cy="409.221" r="14.4" fill="#e26f46" fill-rule="evenodd" fill-opacity="1" stroke="#000000" stroke-opacity="1" stroke-width="3.2"/>
<circle clip-path="url(#clip692)" cx="742.813" cy="360.156" r="14.4" fill="#e26f46" fill-rule="evenodd" fill-opacity="1" stroke="#000000" stroke-opacity="1" stroke-width="3.2"/>
<circle clip-path="url(#clip692)" cx="702.942" cy="310.736" r="14.4" fill="#e26f46" fill-rule="evenodd" fill-opacity="1" stroke="#000000" stroke-opacity="1" stroke-width="3.2"/>
<circle clip-path="url(#clip692)" cx="652.582" cy="267.277" r="14.4" fill="#e26f46" fill-rule="evenodd" fill-opacity="1" stroke="#000000" stroke-opacity="1" stroke-width="3.2"/>
<circle clip-path="url(#clip692)" cx="592.844" cy="237.374" r="14.4" fill="#e26f46" fill-rule="evenodd" fill-opacity="1" stroke="#000000" stroke-opacity="1" stroke-width="3.2"/>
<circle clip-path="url(#clip692)" cx="528.063" cy="228.142" r="14.4" fill="#e26f46" fill-rule="evenodd" fill-opacity="1" stroke="#000000" stroke-opacity="1" stroke-width="3.2"/>
<circle clip-path="url(#clip692)" cx="465.338" cy="244.33" r="14.4" fill="#e26f46" fill-rule="evenodd" fill-opacity="1" stroke="#000000" stroke-opacity="1" stroke-width="3.2"/>
<circle clip-path="url(#clip692)" cx="413.202" cy="286.83" r="14.4" fill="#e26f46" fill-rule="evenodd" fill-opacity="1" stroke="#000000" stroke-opacity="1" stroke-width="3.2"/>
<circle clip-path="url(#clip692)" cx="379.662" cy="352.009" r="14.4" fill="#e26f46" fill-rule="evenodd" fill-opacity="1" stroke="#000000" stroke-opacity="1" stroke-width="3.2"/>
<circle clip-path="url(#clip692)" cx="370.13" cy="432.104" r="14.4" fill="#e26f46" fill-rule="evenodd" fill-opacity="1" stroke="#000000" stroke-opacity="1" stroke-width="3.2"/>
<circle clip-path="url(#clip692)" cx="385.748" cy="516.662" r="14.4" fill="#e26f46" fill-rule="evenodd" fill-opacity="1" stroke="#000000" stroke-opacity="1" stroke-width="3.2"/>
<circle clip-path="url(#clip692)" cx="422.6" cy="594.73" r="14.4" fill="#e26f46" fill-rule="evenodd" fill-opacity="1" stroke="#000000" stroke-opacity="1" stroke-width="3.2"/>
<circle clip-path="url(#clip692)" cx="472.083" cy="657.283" r="14.4" fill="#e26f46" fill-rule="evenodd" fill-opacity="1" stroke="#000000" stroke-opacity="1" stroke-width="3.2"/>
<circle clip-path="url(#clip692)" cx="522.429" cy="699.318" r="14.4" fill="#e26f46" fill-rule="evenodd" fill-opacity="1" stroke="#000000" stroke-opacity="1" stroke-width="3.2"/>
<circle clip-path="url(#clip692)" cx="561.08" cy="721.069" r="14.4" fill="#e26f46" fill-rule="evenodd" fill-opacity="1" stroke="#000000" stroke-opacity="1" stroke-width="3.2"/>
<circle clip-path="url(#clip692)" cx="577.416" cy="728.018" r="14.4" fill="#e26f46" fill-rule="evenodd" fill-opacity="1" stroke="#000000" stroke-opacity="1" stroke-width="3.2"/>
<circle clip-path="url(#clip692)" cx="565.178" cy="729.649" r="14.4" fill="#e26f46" fill-rule="evenodd" fill-opacity="1" stroke="#000000" stroke-opacity="1" stroke-width="3.2"/>
<circle clip-path="url(#clip692)" cx="524.038" cy="737.208" r="14.4" fill="#e26f46" fill-rule="evenodd" fill-opacity="1" stroke="#000000" stroke-opacity="1" stroke-width="3.2"/>
<circle clip-path="url(#clip692)" cx="459.891" cy="760.96" r="14.4" fill="#e26f46" fill-rule="evenodd" fill-opacity="1" stroke="#000000" stroke-opacity="1" stroke-width="3.2"/>
<circle clip-path="url(#clip692)" cx="383.792" cy="807.601" r="14.4" fill="#e26f46" fill-rule="evenodd" fill-opacity="1" stroke="#000000" stroke-opacity="1" stroke-width="3.2"/>
<circle clip-path="url(#clip692)" cx="309.732" cy="878.432" r="14.4" fill="#e26f46" fill-rule="evenodd" fill-opacity="1" stroke="#000000" stroke-opacity="1" stroke-width="3.2"/>
<path clip-path="url(#clip690)" d="
M903.427 328.498 L1120.8 328.498 L1120.8 95.2176 L903.427 95.2176  Z
  " fill="#ffffff" fill-rule="evenodd" fill-opacity="1"/>
<polyline clip-path="url(#clip690)" style="stroke:#000000; stroke-linecap:round; stroke-linejoin:round; stroke-width:4; stroke-opacity:1; fill:none" points="
  903.427,328.498 1120.8,328.498 1120.8,95.2176 903.427,95.2176 903.427,328.498 
  "/>
<circle clip-path="url(#clip690)" cx="946.041" cy="172.978" r="34.56" fill="#009af9" fill-rule="evenodd" fill-opacity="1" stroke="#000000" stroke-opacity="1" stroke-width="7.68"/>
<path clip-path="url(#clip690)" d="M988.655 160.009 L995.044 160.009 L995.044 198.898 L988.655 198.898 L988.655 160.009 M988.655 144.87 L995.044 144.87 L995.044 152.96 L988.655 152.96 L988.655 144.87 Z" fill="#000000" fill-rule="evenodd" fill-opacity="1" /><path clip-path="url(#clip690)" d="M1040.74 175.425 L1040.74 198.898 L1034.35 198.898 L1034.35 175.634 Q1034.35 170.113 1032.2 167.37 Q1030.04 164.627 1025.74 164.627 Q1020.56 164.627 1017.58 167.925 Q1014.59 171.224 1014.59 176.919 L1014.59 198.898 L1008.17 198.898 L1008.17 160.009 L1014.59 160.009 L1014.59 166.051 Q1016.88 162.544 1019.97 160.807 Q1023.1 159.071 1027.16 159.071 Q1033.86 159.071 1037.3 163.238 Q1040.74 167.37 1040.74 175.425 Z" fill="#000000" fill-rule="evenodd" fill-opacity="1" /><circle clip-path="url(#clip690)" cx="946.041" cy="250.738" r="34.56" fill="#e26f46" fill-rule="evenodd" fill-opacity="1" stroke="#000000" stroke-opacity="1" stroke-width="7.68"/>
<path clip-path="url(#clip690)" d="M1006.5 242.248 Q1001.36 242.248 998.378 246.276 Q995.391 250.269 995.391 257.248 Q995.391 264.227 998.343 268.255 Q1001.33 272.248 1006.5 272.248 Q1011.61 272.248 1014.59 268.22 Q1017.58 264.192 1017.58 257.248 Q1017.58 250.338 1014.59 246.31 Q1011.61 242.248 1006.5 242.248 M1006.5 236.831 Q1014.84 236.831 1019.59 242.248 Q1024.35 247.665 1024.35 257.248 Q1024.35 266.796 1019.59 272.248 Q1014.84 277.664 1006.5 277.664 Q998.135 277.664 993.378 272.248 Q988.655 266.796 988.655 257.248 Q988.655 247.665 993.378 242.248 Q998.135 236.831 1006.5 236.831 Z" fill="#000000" fill-rule="evenodd" fill-opacity="1" /><path clip-path="url(#clip690)" d="M1034.28 261.31 L1034.28 237.769 L1040.67 237.769 L1040.67 261.067 Q1040.67 266.588 1042.82 269.366 Q1044.97 272.109 1049.28 272.109 Q1054.45 272.109 1057.44 268.81 Q1060.46 265.512 1060.46 259.817 L1060.46 237.769 L1066.85 237.769 L1066.85 276.658 L1060.46 276.658 L1060.46 270.685 Q1058.13 274.227 1055.04 275.963 Q1051.99 277.664 1047.93 277.664 Q1041.22 277.664 1037.75 273.498 Q1034.28 269.331 1034.28 261.31 M1050.36 236.831 L1050.36 236.831 Z" fill="#000000" fill-rule="evenodd" fill-opacity="1" /><path clip-path="url(#clip690)" d="M1086.33 226.727 L1086.33 237.769 L1099.49 237.769 L1099.49 242.734 L1086.33 242.734 L1086.33 263.845 Q1086.33 268.602 1087.61 269.956 Q1088.93 271.31 1092.93 271.31 L1099.49 271.31 L1099.49 276.658 L1092.93 276.658 Q1085.53 276.658 1082.72 273.915 Q1079.9 271.137 1079.9 263.845 L1079.9 242.734 L1075.22 242.734 L1075.22 237.769 L1079.9 237.769 L1079.9 226.727 L1086.33 226.727 Z" fill="#000000" fill-rule="evenodd" fill-opacity="1" /><path clip-path="url(#clip690)" d="
M1393.94 1486.45 L2352.76 1486.45 L2352.76 47.2441 L1393.94 47.2441  Z
  " fill="#ffffff" fill-rule="evenodd" fill-opacity="1"/>
<defs>
  <clipPath id="clip693">
    <rect x="1393" y="47" width="960" height="1440"/>
  </clipPath>
</defs>
<polyline clip-path="url(#clip693)" style="stroke:#000000; stroke-linecap:round; stroke-linejoin:round; stroke-width:2; stroke-opacity:0.1; fill:none" points="
  1420.84,1486.45 1420.84,47.2441 
  "/>
<polyline clip-path="url(#clip693)" style="stroke:#000000; stroke-linecap:round; stroke-linejoin:round; stroke-width:2; stroke-opacity:0.1; fill:none" points="
  1647.04,1486.45 1647.04,47.2441 
  "/>
<polyline clip-path="url(#clip693)" style="stroke:#000000; stroke-linecap:round; stroke-linejoin:round; stroke-width:2; stroke-opacity:0.1; fill:none" points="
  1873.23,1486.45 1873.23,47.2441 
  "/>
<polyline clip-path="url(#clip693)" style="stroke:#000000; stroke-linecap:round; stroke-linejoin:round; stroke-width:2; stroke-opacity:0.1; fill:none" points="
  2099.43,1486.45 2099.43,47.2441 
  "/>
<polyline clip-path="url(#clip693)" style="stroke:#000000; stroke-linecap:round; stroke-linejoin:round; stroke-width:2; stroke-opacity:0.1; fill:none" points="
  2325.62,1486.45 2325.62,47.2441 
  "/>
<polyline clip-path="url(#clip690)" style="stroke:#000000; stroke-linecap:round; stroke-linejoin:round; stroke-width:4; stroke-opacity:1; fill:none" points="
  1393.94,1486.45 2352.76,1486.45 
  "/>
<polyline clip-path="url(#clip690)" style="stroke:#000000; stroke-linecap:round; stroke-linejoin:round; stroke-width:4; stroke-opacity:1; fill:none" points="
  1420.84,1486.45 1420.84,1467.55 
  "/>
<polyline clip-path="url(#clip690)" style="stroke:#000000; stroke-linecap:round; stroke-linejoin:round; stroke-width:4; stroke-opacity:1; fill:none" points="
  1647.04,1486.45 1647.04,1467.55 
  "/>
<polyline clip-path="url(#clip690)" style="stroke:#000000; stroke-linecap:round; stroke-linejoin:round; stroke-width:4; stroke-opacity:1; fill:none" points="
  1873.23,1486.45 1873.23,1467.55 
  "/>
<polyline clip-path="url(#clip690)" style="stroke:#000000; stroke-linecap:round; stroke-linejoin:round; stroke-width:4; stroke-opacity:1; fill:none" points="
  2099.43,1486.45 2099.43,1467.55 
  "/>
<polyline clip-path="url(#clip690)" style="stroke:#000000; stroke-linecap:round; stroke-linejoin:round; stroke-width:4; stroke-opacity:1; fill:none" points="
  2325.62,1486.45 2325.62,1467.55 
  "/>
<path clip-path="url(#clip690)" d="M1367.37 1532.02 L1397.05 1532.02 L1397.05 1535.95 L1367.37 1535.95 L1367.37 1532.02 Z" fill="#000000" fill-rule="evenodd" fill-opacity="1" /><path clip-path="url(#clip690)" d="M1407.95 1544.91 L1415.59 1544.91 L1415.59 1518.55 L1407.28 1520.21 L1407.28 1515.95 L1415.54 1514.29 L1420.22 1514.29 L1420.22 1544.91 L1427.86 1544.91 L1427.86 1548.85 L1407.95 1548.85 L1407.95 1544.91 Z" fill="#000000" fill-rule="evenodd" fill-opacity="1" /><path clip-path="url(#clip690)" d="M1437.3 1542.97 L1442.19 1542.97 L1442.19 1548.85 L1437.3 1548.85 L1437.3 1542.97 Z" fill="#000000" fill-rule="evenodd" fill-opacity="1" /><path clip-path="url(#clip690)" d="M1462.37 1517.37 Q1458.76 1517.37 1456.93 1520.93 Q1455.13 1524.47 1455.13 1531.6 Q1455.13 1538.71 1456.93 1542.27 Q1458.76 1545.82 1462.37 1545.82 Q1466.01 1545.82 1467.81 1542.27 Q1469.64 1538.71 1469.64 1531.6 Q1469.64 1524.47 1467.81 1520.93 Q1466.01 1517.37 1462.37 1517.37 M1462.37 1513.66 Q1468.18 1513.66 1471.24 1518.27 Q1474.32 1522.85 1474.32 1531.6 Q1474.32 1540.33 1471.24 1544.94 Q1468.18 1549.52 1462.37 1549.52 Q1456.56 1549.52 1453.48 1544.94 Q1450.43 1540.33 1450.43 1531.6 Q1450.43 1522.85 1453.48 1518.27 Q1456.56 1513.66 1462.37 1513.66 Z" fill="#000000" fill-rule="evenodd" fill-opacity="1" /><path clip-path="url(#clip690)" d="M1594.06 1532.02 L1623.74 1532.02 L1623.74 1535.95 L1594.06 1535.95 L1594.06 1532.02 Z" fill="#000000" fill-rule="evenodd" fill-opacity="1" /><path clip-path="url(#clip690)" d="M1643.83 1517.37 Q1640.22 1517.37 1638.39 1520.93 Q1636.59 1524.47 1636.59 1531.6 Q1636.59 1538.71 1638.39 1542.27 Q1640.22 1545.82 1643.83 1545.82 Q1647.47 1545.82 1649.27 1542.27 Q1651.1 1538.71 1651.1 1531.6 Q1651.1 1524.47 1649.27 1520.93 Q1647.47 1517.37 1643.83 1517.37 M1643.83 1513.66 Q1649.64 1513.66 1652.7 1518.27 Q1655.78 1522.85 1655.78 1531.6 Q1655.78 1540.33 1652.7 1544.94 Q1649.64 1549.52 1643.83 1549.52 Q1638.02 1549.52 1634.94 1544.94 Q1631.89 1540.33 1631.89 1531.6 Q1631.89 1522.85 1634.94 1518.27 Q1638.02 1513.66 1643.83 1513.66 Z" fill="#000000" fill-rule="evenodd" fill-opacity="1" /><path clip-path="url(#clip690)" d="M1663.99 1542.97 L1668.88 1542.97 L1668.88 1548.85 L1663.99 1548.85 L1663.99 1542.97 Z" fill="#000000" fill-rule="evenodd" fill-opacity="1" /><path clip-path="url(#clip690)" d="M1679.11 1514.29 L1697.47 1514.29 L1697.47 1518.22 L1683.39 1518.22 L1683.39 1526.7 Q1684.41 1526.35 1685.43 1526.19 Q1686.45 1526 1687.47 1526 Q1693.25 1526 1696.63 1529.17 Q1700.01 1532.34 1700.01 1537.76 Q1700.01 1543.34 1696.54 1546.44 Q1693.07 1549.52 1686.75 1549.52 Q1684.57 1549.52 1682.3 1549.15 Q1680.06 1548.78 1677.65 1548.04 L1677.65 1543.34 Q1679.73 1544.47 1681.96 1545.03 Q1684.18 1545.58 1686.66 1545.58 Q1690.66 1545.58 1693 1543.48 Q1695.34 1541.37 1695.34 1537.76 Q1695.34 1534.15 1693 1532.04 Q1690.66 1529.94 1686.66 1529.94 Q1684.78 1529.94 1682.91 1530.35 Q1681.05 1530.77 1679.11 1531.65 L1679.11 1514.29 Z" fill="#000000" fill-rule="evenodd" fill-opacity="1" /><path clip-path="url(#clip690)" d="M1850.62 1517.37 Q1847.01 1517.37 1845.18 1520.93 Q1843.37 1524.47 1843.37 1531.6 Q1843.37 1538.71 1845.18 1542.27 Q1847.01 1545.82 1850.62 1545.82 Q1854.25 1545.82 1856.06 1542.27 Q1857.88 1538.71 1857.88 1531.6 Q1857.88 1524.47 1856.06 1520.93 Q1854.25 1517.37 1850.62 1517.37 M1850.62 1513.66 Q1856.43 1513.66 1859.48 1518.27 Q1862.56 1522.85 1862.56 1531.6 Q1862.56 1540.33 1859.48 1544.94 Q1856.43 1549.52 1850.62 1549.52 Q1844.81 1549.52 1841.73 1544.94 Q1838.67 1540.33 1838.67 1531.6 Q1838.67 1522.85 1841.73 1518.27 Q1844.81 1513.66 1850.62 1513.66 Z" fill="#000000" fill-rule="evenodd" fill-opacity="1" /><path clip-path="url(#clip690)" d="M1870.78 1542.97 L1875.66 1542.97 L1875.66 1548.85 L1870.78 1548.85 L1870.78 1542.97 Z" fill="#000000" fill-rule="evenodd" fill-opacity="1" /><path clip-path="url(#clip690)" d="M1895.85 1517.37 Q1892.24 1517.37 1890.41 1520.93 Q1888.6 1524.47 1888.6 1531.6 Q1888.6 1538.71 1890.41 1542.27 Q1892.24 1545.82 1895.85 1545.82 Q1899.48 1545.82 1901.29 1542.27 Q1903.12 1538.71 1903.12 1531.6 Q1903.12 1524.47 1901.29 1520.93 Q1899.48 1517.37 1895.85 1517.37 M1895.85 1513.66 Q1901.66 1513.66 1904.71 1518.27 Q1907.79 1522.85 1907.79 1531.6 Q1907.79 1540.33 1904.71 1544.94 Q1901.66 1549.52 1895.85 1549.52 Q1890.04 1549.52 1886.96 1544.94 Q1883.9 1540.33 1883.9 1531.6 Q1883.9 1522.85 1886.96 1518.27 Q1890.04 1513.66 1895.85 1513.66 Z" fill="#000000" fill-rule="evenodd" fill-opacity="1" /><path clip-path="url(#clip690)" d="M2077.31 1517.37 Q2073.7 1517.37 2071.87 1520.93 Q2070.06 1524.47 2070.06 1531.6 Q2070.06 1538.71 2071.87 1542.27 Q2073.7 1545.82 2077.31 1545.82 Q2080.94 1545.82 2082.75 1542.27 Q2084.58 1538.71 2084.58 1531.6 Q2084.58 1524.47 2082.75 1520.93 Q2080.94 1517.37 2077.31 1517.37 M2077.31 1513.66 Q2083.12 1513.66 2086.17 1518.27 Q2089.25 1522.85 2089.25 1531.6 Q2089.25 1540.33 2086.17 1544.94 Q2083.12 1549.52 2077.31 1549.52 Q2071.5 1549.52 2068.42 1544.94 Q2065.36 1540.33 2065.36 1531.6 Q2065.36 1522.85 2068.42 1518.27 Q2071.5 1513.66 2077.31 1513.66 Z" fill="#000000" fill-rule="evenodd" fill-opacity="1" /><path clip-path="url(#clip690)" d="M2097.47 1542.97 L2102.35 1542.97 L2102.35 1548.85 L2097.47 1548.85 L2097.47 1542.97 Z" fill="#000000" fill-rule="evenodd" fill-opacity="1" /><path clip-path="url(#clip690)" d="M2112.59 1514.29 L2130.94 1514.29 L2130.94 1518.22 L2116.87 1518.22 L2116.87 1526.7 Q2117.89 1526.35 2118.9 1526.19 Q2119.92 1526 2120.94 1526 Q2126.73 1526 2130.11 1529.17 Q2133.49 1532.34 2133.49 1537.76 Q2133.49 1543.34 2130.02 1546.44 Q2126.54 1549.52 2120.22 1549.52 Q2118.05 1549.52 2115.78 1549.15 Q2113.53 1548.78 2111.13 1548.04 L2111.13 1543.34 Q2113.21 1544.47 2115.43 1545.03 Q2117.65 1545.58 2120.13 1545.58 Q2124.14 1545.58 2126.47 1543.48 Q2128.81 1541.37 2128.81 1537.76 Q2128.81 1534.15 2126.47 1532.04 Q2124.14 1529.94 2120.13 1529.94 Q2118.26 1529.94 2116.38 1530.35 Q2114.53 1530.77 2112.59 1531.65 L2112.59 1514.29 Z" fill="#000000" fill-rule="evenodd" fill-opacity="1" /><path clip-path="url(#clip690)" d="M2292.77 1544.91 L2300.41 1544.91 L2300.41 1518.55 L2292.1 1520.21 L2292.1 1515.95 L2300.36 1514.29 L2305.04 1514.29 L2305.04 1544.91 L2312.68 1544.91 L2312.68 1548.85 L2292.77 1548.85 L2292.77 1544.91 Z" fill="#000000" fill-rule="evenodd" fill-opacity="1" /><path clip-path="url(#clip690)" d="M2322.12 1542.97 L2327.01 1542.97 L2327.01 1548.85 L2322.12 1548.85 L2322.12 1542.97 Z" fill="#000000" fill-rule="evenodd" fill-opacity="1" /><path clip-path="url(#clip690)" d="M2347.19 1517.37 Q2343.58 1517.37 2341.75 1520.93 Q2339.95 1524.47 2339.95 1531.6 Q2339.95 1538.71 2341.75 1542.27 Q2343.58 1545.82 2347.19 1545.82 Q2350.83 1545.82 2352.63 1542.27 Q2354.46 1538.71 2354.46 1531.6 Q2354.46 1524.47 2352.63 1520.93 Q2350.83 1517.37 2347.19 1517.37 M2347.19 1513.66 Q2353 1513.66 2356.06 1518.27 Q2359.14 1522.85 2359.14 1531.6 Q2359.14 1540.33 2356.06 1544.94 Q2353 1549.52 2347.19 1549.52 Q2341.38 1549.52 2338.3 1544.94 Q2335.25 1540.33 2335.25 1531.6 Q2335.25 1522.85 2338.3 1518.27 Q2341.38 1513.66 2347.19 1513.66 Z" fill="#000000" fill-rule="evenodd" fill-opacity="1" /><polyline clip-path="url(#clip693)" style="stroke:#000000; stroke-linecap:round; stroke-linejoin:round; stroke-width:2; stroke-opacity:0.1; fill:none" points="
  1393.94,1445.54 2352.76,1445.54 
  "/>
<polyline clip-path="url(#clip693)" style="stroke:#000000; stroke-linecap:round; stroke-linejoin:round; stroke-width:2; stroke-opacity:0.1; fill:none" points="
  1393.94,1219.35 2352.76,1219.35 
  "/>
<polyline clip-path="url(#clip693)" style="stroke:#000000; stroke-linecap:round; stroke-linejoin:round; stroke-width:2; stroke-opacity:0.1; fill:none" points="
  1393.94,993.156 2352.76,993.156 
  "/>
<polyline clip-path="url(#clip693)" style="stroke:#000000; stroke-linecap:round; stroke-linejoin:round; stroke-width:2; stroke-opacity:0.1; fill:none" points="
  1393.94,766.962 2352.76,766.962 
  "/>
<polyline clip-path="url(#clip693)" style="stroke:#000000; stroke-linecap:round; stroke-linejoin:round; stroke-width:2; stroke-opacity:0.1; fill:none" points="
  1393.94,540.768 2352.76,540.768 
  "/>
<polyline clip-path="url(#clip693)" style="stroke:#000000; stroke-linecap:round; stroke-linejoin:round; stroke-width:2; stroke-opacity:0.1; fill:none" points="
  1393.94,314.575 2352.76,314.575 
  "/>
<polyline clip-path="url(#clip693)" style="stroke:#000000; stroke-linecap:round; stroke-linejoin:round; stroke-width:2; stroke-opacity:0.1; fill:none" points="
  1393.94,88.3811 2352.76,88.3811 
  "/>
<polyline clip-path="url(#clip690)" style="stroke:#000000; stroke-linecap:round; stroke-linejoin:round; stroke-width:4; stroke-opacity:1; fill:none" points="
  1393.94,1486.45 1393.94,47.2441 
  "/>
<polyline clip-path="url(#clip690)" style="stroke:#000000; stroke-linecap:round; stroke-linejoin:round; stroke-width:4; stroke-opacity:1; fill:none" points="
  1393.94,1445.54 1412.83,1445.54 
  "/>
<polyline clip-path="url(#clip690)" style="stroke:#000000; stroke-linecap:round; stroke-linejoin:round; stroke-width:4; stroke-opacity:1; fill:none" points="
  1393.94,1219.35 1412.83,1219.35 
  "/>
<polyline clip-path="url(#clip690)" style="stroke:#000000; stroke-linecap:round; stroke-linejoin:round; stroke-width:4; stroke-opacity:1; fill:none" points="
  1393.94,993.156 1412.83,993.156 
  "/>
<polyline clip-path="url(#clip690)" style="stroke:#000000; stroke-linecap:round; stroke-linejoin:round; stroke-width:4; stroke-opacity:1; fill:none" points="
  1393.94,766.962 1412.83,766.962 
  "/>
<polyline clip-path="url(#clip690)" style="stroke:#000000; stroke-linecap:round; stroke-linejoin:round; stroke-width:4; stroke-opacity:1; fill:none" points="
  1393.94,540.768 1412.83,540.768 
  "/>
<polyline clip-path="url(#clip690)" style="stroke:#000000; stroke-linecap:round; stroke-linejoin:round; stroke-width:4; stroke-opacity:1; fill:none" points="
  1393.94,314.575 1412.83,314.575 
  "/>
<polyline clip-path="url(#clip690)" style="stroke:#000000; stroke-linecap:round; stroke-linejoin:round; stroke-width:4; stroke-opacity:1; fill:none" points="
  1393.94,88.3811 1412.83,88.3811 
  "/>
<path clip-path="url(#clip690)" d="M1251.99 1445.99 L1281.66 1445.99 L1281.66 1449.93 L1251.99 1449.93 L1251.99 1445.99 Z" fill="#000000" fill-rule="evenodd" fill-opacity="1" /><path clip-path="url(#clip690)" d="M1292.57 1458.89 L1300.2 1458.89 L1300.2 1432.52 L1291.89 1434.19 L1291.89 1429.93 L1300.16 1428.26 L1304.83 1428.26 L1304.83 1458.89 L1312.47 1458.89 L1312.47 1462.82 L1292.57 1462.82 L1292.57 1458.89 Z" fill="#000000" fill-rule="evenodd" fill-opacity="1" /><path clip-path="url(#clip690)" d="M1321.92 1456.94 L1326.8 1456.94 L1326.8 1462.82 L1321.92 1462.82 L1321.92 1456.94 Z" fill="#000000" fill-rule="evenodd" fill-opacity="1" /><path clip-path="url(#clip690)" d="M1337.03 1428.26 L1355.39 1428.26 L1355.39 1432.2 L1341.32 1432.2 L1341.32 1440.67 Q1342.33 1440.32 1343.35 1440.16 Q1344.37 1439.98 1345.39 1439.98 Q1351.18 1439.98 1354.56 1443.15 Q1357.94 1446.32 1357.94 1451.74 Q1357.94 1457.31 1354.46 1460.42 Q1350.99 1463.49 1344.67 1463.49 Q1342.5 1463.49 1340.23 1463.12 Q1337.98 1462.75 1335.58 1462.01 L1335.58 1457.31 Q1337.66 1458.45 1339.88 1459 Q1342.1 1459.56 1344.58 1459.56 Q1348.58 1459.56 1350.92 1457.45 Q1353.26 1455.35 1353.26 1451.74 Q1353.26 1448.12 1350.92 1446.02 Q1348.58 1443.91 1344.58 1443.91 Q1342.7 1443.91 1340.83 1444.33 Q1338.98 1444.74 1337.03 1445.62 L1337.03 1428.26 Z" fill="#000000" fill-rule="evenodd" fill-opacity="1" /><path clip-path="url(#clip690)" d="M1250.99 1219.8 L1280.67 1219.8 L1280.67 1223.74 L1250.99 1223.74 L1250.99 1219.8 Z" fill="#000000" fill-rule="evenodd" fill-opacity="1" /><path clip-path="url(#clip690)" d="M1291.57 1232.69 L1299.21 1232.69 L1299.21 1206.33 L1290.9 1208 L1290.9 1203.74 L1299.16 1202.07 L1303.84 1202.07 L1303.84 1232.69 L1311.48 1232.69 L1311.48 1236.63 L1291.57 1236.63 L1291.57 1232.69 Z" fill="#000000" fill-rule="evenodd" fill-opacity="1" /><path clip-path="url(#clip690)" d="M1320.92 1230.75 L1325.81 1230.75 L1325.81 1236.63 L1320.92 1236.63 L1320.92 1230.75 Z" fill="#000000" fill-rule="evenodd" fill-opacity="1" /><path clip-path="url(#clip690)" d="M1345.99 1205.15 Q1342.38 1205.15 1340.55 1208.71 Q1338.75 1212.25 1338.75 1219.38 Q1338.75 1226.49 1340.55 1230.06 Q1342.38 1233.6 1345.99 1233.6 Q1349.63 1233.6 1351.43 1230.06 Q1353.26 1226.49 1353.26 1219.38 Q1353.26 1212.25 1351.43 1208.71 Q1349.63 1205.15 1345.99 1205.15 M1345.99 1201.44 Q1351.8 1201.44 1354.86 1206.05 Q1357.94 1210.63 1357.94 1219.38 Q1357.94 1228.11 1354.86 1232.72 Q1351.8 1237.3 1345.99 1237.3 Q1340.18 1237.3 1337.1 1232.72 Q1334.05 1228.11 1334.05 1219.38 Q1334.05 1210.63 1337.1 1206.05 Q1340.18 1201.44 1345.99 1201.44 Z" fill="#000000" fill-rule="evenodd" fill-opacity="1" /><path clip-path="url(#clip690)" d="M1251.99 993.607 L1281.66 993.607 L1281.66 997.542 L1251.99 997.542 L1251.99 993.607 Z" fill="#000000" fill-rule="evenodd" fill-opacity="1" /><path clip-path="url(#clip690)" d="M1301.76 978.955 Q1298.14 978.955 1296.32 982.519 Q1294.51 986.061 1294.51 993.191 Q1294.51 1000.3 1296.32 1003.86 Q1298.14 1007.4 1301.76 1007.4 Q1305.39 1007.4 1307.2 1003.86 Q1309.02 1000.3 1309.02 993.191 Q1309.02 986.061 1307.2 982.519 Q1305.39 978.955 1301.76 978.955 M1301.76 975.251 Q1307.57 975.251 1310.62 979.857 Q1313.7 984.441 1313.7 993.191 Q1313.7 1001.92 1310.62 1006.52 Q1307.57 1011.11 1301.76 1011.11 Q1295.95 1011.11 1292.87 1006.52 Q1289.81 1001.92 1289.81 993.191 Q1289.81 984.441 1292.87 979.857 Q1295.95 975.251 1301.76 975.251 Z" fill="#000000" fill-rule="evenodd" fill-opacity="1" /><path clip-path="url(#clip690)" d="M1321.92 1004.56 L1326.8 1004.56 L1326.8 1010.44 L1321.92 1010.44 L1321.92 1004.56 Z" fill="#000000" fill-rule="evenodd" fill-opacity="1" /><path clip-path="url(#clip690)" d="M1337.03 975.876 L1355.39 975.876 L1355.39 979.811 L1341.32 979.811 L1341.32 988.283 Q1342.33 987.936 1343.35 987.774 Q1344.37 987.589 1345.39 987.589 Q1351.18 987.589 1354.56 990.76 Q1357.94 993.931 1357.94 999.348 Q1357.94 1004.93 1354.46 1008.03 Q1350.99 1011.11 1344.67 1011.11 Q1342.5 1011.11 1340.23 1010.74 Q1337.98 1010.37 1335.58 1009.63 L1335.58 1004.93 Q1337.66 1006.06 1339.88 1006.62 Q1342.1 1007.17 1344.58 1007.17 Q1348.58 1007.17 1350.92 1005.07 Q1353.26 1002.96 1353.26 999.348 Q1353.26 995.737 1350.92 993.63 Q1348.58 991.524 1344.58 991.524 Q1342.7 991.524 1340.83 991.941 Q1338.98 992.357 1337.03 993.237 L1337.03 975.876 Z" fill="#000000" fill-rule="evenodd" fill-opacity="1" /><path clip-path="url(#clip690)" d="M1300.76 752.761 Q1297.15 752.761 1295.32 756.326 Q1293.52 759.867 1293.52 766.997 Q1293.52 774.103 1295.32 777.668 Q1297.15 781.21 1300.76 781.21 Q1304.39 781.21 1306.2 777.668 Q1308.03 774.103 1308.03 766.997 Q1308.03 759.867 1306.2 756.326 Q1304.39 752.761 1300.76 752.761 M1300.76 749.057 Q1306.57 749.057 1309.63 753.664 Q1312.7 758.247 1312.7 766.997 Q1312.7 775.724 1309.63 780.33 Q1306.57 784.913 1300.76 784.913 Q1294.95 784.913 1291.87 780.33 Q1288.82 775.724 1288.82 766.997 Q1288.82 758.247 1291.87 753.664 Q1294.95 749.057 1300.76 749.057 Z" fill="#000000" fill-rule="evenodd" fill-opacity="1" /><path clip-path="url(#clip690)" d="M1320.92 778.363 L1325.81 778.363 L1325.81 784.242 L1320.92 784.242 L1320.92 778.363 Z" fill="#000000" fill-rule="evenodd" fill-opacity="1" /><path clip-path="url(#clip690)" d="M1345.99 752.761 Q1342.38 752.761 1340.55 756.326 Q1338.75 759.867 1338.75 766.997 Q1338.75 774.103 1340.55 777.668 Q1342.38 781.21 1345.99 781.21 Q1349.63 781.21 1351.43 777.668 Q1353.26 774.103 1353.26 766.997 Q1353.26 759.867 1351.43 756.326 Q1349.63 752.761 1345.99 752.761 M1345.99 749.057 Q1351.8 749.057 1354.86 753.664 Q1357.94 758.247 1357.94 766.997 Q1357.94 775.724 1354.86 780.33 Q1351.8 784.913 1345.99 784.913 Q1340.18 784.913 1337.1 780.33 Q1334.05 775.724 1334.05 766.997 Q1334.05 758.247 1337.1 753.664 Q1340.18 749.057 1345.99 749.057 Z" fill="#000000" fill-rule="evenodd" fill-opacity="1" /><path clip-path="url(#clip690)" d="M1301.76 526.567 Q1298.14 526.567 1296.32 530.132 Q1294.51 533.674 1294.51 540.803 Q1294.51 547.91 1296.32 551.474 Q1298.14 555.016 1301.76 555.016 Q1305.39 555.016 1307.2 551.474 Q1309.02 547.91 1309.02 540.803 Q1309.02 533.674 1307.2 530.132 Q1305.39 526.567 1301.76 526.567 M1301.76 522.863 Q1307.57 522.863 1310.62 527.47 Q1313.7 532.053 1313.7 540.803 Q1313.7 549.53 1310.62 554.136 Q1307.57 558.72 1301.76 558.72 Q1295.95 558.72 1292.87 554.136 Q1289.81 549.53 1289.81 540.803 Q1289.81 532.053 1292.87 527.47 Q1295.95 522.863 1301.76 522.863 Z" fill="#000000" fill-rule="evenodd" fill-opacity="1" /><path clip-path="url(#clip690)" d="M1321.92 552.169 L1326.8 552.169 L1326.8 558.048 L1321.92 558.048 L1321.92 552.169 Z" fill="#000000" fill-rule="evenodd" fill-opacity="1" /><path clip-path="url(#clip690)" d="M1337.03 523.488 L1355.39 523.488 L1355.39 527.424 L1341.32 527.424 L1341.32 535.896 Q1342.33 535.549 1343.35 535.387 Q1344.37 535.201 1345.39 535.201 Q1351.18 535.201 1354.56 538.373 Q1357.94 541.544 1357.94 546.961 Q1357.94 552.539 1354.46 555.641 Q1350.99 558.72 1344.67 558.72 Q1342.5 558.72 1340.23 558.349 Q1337.98 557.979 1335.58 557.238 L1335.58 552.539 Q1337.66 553.674 1339.88 554.229 Q1342.1 554.785 1344.58 554.785 Q1348.58 554.785 1350.92 552.678 Q1353.26 550.572 1353.26 546.961 Q1353.26 543.349 1350.92 541.243 Q1348.58 539.137 1344.58 539.137 Q1342.7 539.137 1340.83 539.553 Q1338.98 539.97 1337.03 540.849 L1337.03 523.488 Z" fill="#000000" fill-rule="evenodd" fill-opacity="1" /><path clip-path="url(#clip690)" d="M1291.57 327.92 L1299.21 327.92 L1299.21 301.554 L1290.9 303.221 L1290.9 298.961 L1299.16 297.295 L1303.84 297.295 L1303.84 327.92 L1311.48 327.92 L1311.48 331.855 L1291.57 331.855 L1291.57 327.92 Z" fill="#000000" fill-rule="evenodd" fill-opacity="1" /><path clip-path="url(#clip690)" d="M1320.92 325.975 L1325.81 325.975 L1325.81 331.855 L1320.92 331.855 L1320.92 325.975 Z" fill="#000000" fill-rule="evenodd" fill-opacity="1" /><path clip-path="url(#clip690)" d="M1345.99 300.373 Q1342.38 300.373 1340.55 303.938 Q1338.75 307.48 1338.75 314.609 Q1338.75 321.716 1340.55 325.281 Q1342.38 328.822 1345.99 328.822 Q1349.63 328.822 1351.43 325.281 Q1353.26 321.716 1353.26 314.609 Q1353.26 307.48 1351.43 303.938 Q1349.63 300.373 1345.99 300.373 M1345.99 296.67 Q1351.8 296.67 1354.86 301.276 Q1357.94 305.86 1357.94 314.609 Q1357.94 323.336 1354.86 327.943 Q1351.8 332.526 1345.99 332.526 Q1340.18 332.526 1337.1 327.943 Q1334.05 323.336 1334.05 314.609 Q1334.05 305.86 1337.1 301.276 Q1340.18 296.67 1345.99 296.67 Z" fill="#000000" fill-rule="evenodd" fill-opacity="1" /><path clip-path="url(#clip690)" d="M1292.57 101.726 L1300.2 101.726 L1300.2 75.3603 L1291.89 77.027 L1291.89 72.7677 L1300.16 71.1011 L1304.83 71.1011 L1304.83 101.726 L1312.47 101.726 L1312.47 105.661 L1292.57 105.661 L1292.57 101.726 Z" fill="#000000" fill-rule="evenodd" fill-opacity="1" /><path clip-path="url(#clip690)" d="M1321.92 99.7815 L1326.8 99.7815 L1326.8 105.661 L1321.92 105.661 L1321.92 99.7815 Z" fill="#000000" fill-rule="evenodd" fill-opacity="1" /><path clip-path="url(#clip690)" d="M1337.03 71.1011 L1355.39 71.1011 L1355.39 75.0362 L1341.32 75.0362 L1341.32 83.5084 Q1342.33 83.1612 1343.35 82.9991 Q1344.37 82.814 1345.39 82.814 Q1351.18 82.814 1354.56 85.9852 Q1357.94 89.1565 1357.94 94.5732 Q1357.94 100.152 1354.46 103.254 Q1350.99 106.332 1344.67 106.332 Q1342.5 106.332 1340.23 105.962 Q1337.98 105.592 1335.58 104.851 L1335.58 100.152 Q1337.66 101.286 1339.88 101.842 Q1342.1 102.397 1344.58 102.397 Q1348.58 102.397 1350.92 100.291 Q1353.26 98.1842 1353.26 94.5732 Q1353.26 90.9621 1350.92 88.8556 Q1348.58 86.7491 1344.58 86.7491 Q1342.7 86.7491 1340.83 87.1658 Q1338.98 87.5824 1337.03 88.4621 L1337.03 71.1011 Z" fill="#000000" fill-rule="evenodd" fill-opacity="1" /><circle clip-path="url(#clip693)" cx="2325.62" cy="766.962" r="14.4" fill="#009af9" fill-rule="evenodd" fill-opacity="1" stroke="#000000" stroke-opacity="1" stroke-width="3.2"/>
<circle clip-path="url(#clip693)" cx="2321.91" cy="709.112" r="14.4" fill="#009af9" fill-rule="evenodd" fill-opacity="1" stroke="#000000" stroke-opacity="1" stroke-width="3.2"/>
<circle clip-path="url(#clip693)" cx="2310.82" cy="652.212" r="14.4" fill="#009af9" fill-rule="evenodd" fill-opacity="1" stroke="#000000" stroke-opacity="1" stroke-width="3.2"/>
<circle clip-path="url(#clip693)" cx="2292.56" cy="597.196" r="14.4" fill="#009af9" fill-rule="evenodd" fill-opacity="1" stroke="#000000" stroke-opacity="1" stroke-width="3.2"/>
<circle clip-path="url(#clip693)" cx="2267.41" cy="544.968" r="14.4" fill="#009af9" fill-rule="evenodd" fill-opacity="1" stroke="#000000" stroke-opacity="1" stroke-width="3.2"/>
<circle clip-path="url(#clip693)" cx="2235.78" cy="496.385" r="14.4" fill="#009af9" fill-rule="evenodd" fill-opacity="1" stroke="#000000" stroke-opacity="1" stroke-width="3.2"/>
<circle clip-path="url(#clip693)" cx="2198.2" cy="452.244" r="14.4" fill="#009af9" fill-rule="evenodd" fill-opacity="1" stroke="#000000" stroke-opacity="1" stroke-width="3.2"/>
<circle clip-path="url(#clip693)" cx="2155.29" cy="413.271" r="14.4" fill="#009af9" fill-rule="evenodd" fill-opacity="1" stroke="#000000" stroke-opacity="1" stroke-width="3.2"/>
<circle clip-path="url(#clip693)" cx="2107.75" cy="380.106" r="14.4" fill="#009af9" fill-rule="evenodd" fill-opacity="1" stroke="#000000" stroke-opacity="1" stroke-width="3.2"/>
<circle clip-path="url(#clip693)" cx="2056.35" cy="353.293" r="14.4" fill="#009af9" fill-rule="evenodd" fill-opacity="1" stroke="#000000" stroke-opacity="1" stroke-width="3.2"/>
<circle clip-path="url(#clip693)" cx="2001.95" cy="333.273" r="14.4" fill="#009af9" fill-rule="evenodd" fill-opacity="1" stroke="#000000" stroke-opacity="1" stroke-width="3.2"/>
<circle clip-path="url(#clip693)" cx="1945.43" cy="320.374" r="14.4" fill="#009af9" fill-rule="evenodd" fill-opacity="1" stroke="#000000" stroke-opacity="1" stroke-width="3.2"/>
<circle clip-path="url(#clip693)" cx="1887.73" cy="314.807" r="14.4" fill="#009af9" fill-rule="evenodd" fill-opacity="1" stroke="#000000" stroke-opacity="1" stroke-width="3.2"/>
<circle clip-path="url(#clip693)" cx="1829.79" cy="316.665" r="14.4" fill="#009af9" fill-rule="evenodd" fill-opacity="1" stroke="#000000" stroke-opacity="1" stroke-width="3.2"/>
<circle clip-path="url(#clip693)" cx="1772.57" cy="325.917" r="14.4" fill="#009af9" fill-rule="evenodd" fill-opacity="1" stroke="#000000" stroke-opacity="1" stroke-width="3.2"/>
<circle clip-path="url(#clip693)" cx="1716.99" cy="342.411" r="14.4" fill="#009af9" fill-rule="evenodd" fill-opacity="1" stroke="#000000" stroke-opacity="1" stroke-width="3.2"/>
<circle clip-path="url(#clip693)" cx="1663.99" cy="365.876" r="14.4" fill="#009af9" fill-rule="evenodd" fill-opacity="1" stroke="#000000" stroke-opacity="1" stroke-width="3.2"/>
<circle clip-path="url(#clip693)" cx="1614.41" cy="395.927" r="14.4" fill="#009af9" fill-rule="evenodd" fill-opacity="1" stroke="#000000" stroke-opacity="1" stroke-width="3.2"/>
<circle clip-path="url(#clip693)" cx="1569.09" cy="432.07" r="14.4" fill="#009af9" fill-rule="evenodd" fill-opacity="1" stroke="#000000" stroke-opacity="1" stroke-width="3.2"/>
<circle clip-path="url(#clip693)" cx="1528.76" cy="473.712" r="14.4" fill="#009af9" fill-rule="evenodd" fill-opacity="1" stroke="#000000" stroke-opacity="1" stroke-width="3.2"/>
<circle clip-path="url(#clip693)" cx="1494.09" cy="520.169" r="14.4" fill="#009af9" fill-rule="evenodd" fill-opacity="1" stroke="#000000" stroke-opacity="1" stroke-width="3.2"/>
<circle clip-path="url(#clip693)" cx="1465.65" cy="570.679" r="14.4" fill="#009af9" fill-rule="evenodd" fill-opacity="1" stroke="#000000" stroke-opacity="1" stroke-width="3.2"/>
<circle clip-path="url(#clip693)" cx="1443.89" cy="624.411" r="14.4" fill="#009af9" fill-rule="evenodd" fill-opacity="1" stroke="#000000" stroke-opacity="1" stroke-width="3.2"/>
<circle clip-path="url(#clip693)" cx="1429.19" cy="680.484" r="14.4" fill="#009af9" fill-rule="evenodd" fill-opacity="1" stroke="#000000" stroke-opacity="1" stroke-width="3.2"/>
<circle clip-path="url(#clip693)" cx="1421.77" cy="737.978" r="14.4" fill="#009af9" fill-rule="evenodd" fill-opacity="1" stroke="#000000" stroke-opacity="1" stroke-width="3.2"/>
<circle clip-path="url(#clip693)" cx="1421.77" cy="795.947" r="14.4" fill="#009af9" fill-rule="evenodd" fill-opacity="1" stroke="#000000" stroke-opacity="1" stroke-width="3.2"/>
<circle clip-path="url(#clip693)" cx="1429.19" cy="853.44" r="14.4" fill="#009af9" fill-rule="evenodd" fill-opacity="1" stroke="#000000" stroke-opacity="1" stroke-width="3.2"/>
<circle clip-path="url(#clip693)" cx="1443.89" cy="909.513" r="14.4" fill="#009af9" fill-rule="evenodd" fill-opacity="1" stroke="#000000" stroke-opacity="1" stroke-width="3.2"/>
<circle clip-path="url(#clip693)" cx="1465.65" cy="963.246" r="14.4" fill="#009af9" fill-rule="evenodd" fill-opacity="1" stroke="#000000" stroke-opacity="1" stroke-width="3.2"/>
<circle clip-path="url(#clip693)" cx="1494.09" cy="1013.76" r="14.4" fill="#009af9" fill-rule="evenodd" fill-opacity="1" stroke="#000000" stroke-opacity="1" stroke-width="3.2"/>
<circle clip-path="url(#clip693)" cx="1528.76" cy="1060.21" r="14.4" fill="#009af9" fill-rule="evenodd" fill-opacity="1" stroke="#000000" stroke-opacity="1" stroke-width="3.2"/>
<circle clip-path="url(#clip693)" cx="1569.09" cy="1101.85" r="14.4" fill="#009af9" fill-rule="evenodd" fill-opacity="1" stroke="#000000" stroke-opacity="1" stroke-width="3.2"/>
<circle clip-path="url(#clip693)" cx="1614.41" cy="1138" r="14.4" fill="#009af9" fill-rule="evenodd" fill-opacity="1" stroke="#000000" stroke-opacity="1" stroke-width="3.2"/>
<circle clip-path="url(#clip693)" cx="1663.99" cy="1168.05" r="14.4" fill="#009af9" fill-rule="evenodd" fill-opacity="1" stroke="#000000" stroke-opacity="1" stroke-width="3.2"/>
<circle clip-path="url(#clip693)" cx="1716.99" cy="1191.51" r="14.4" fill="#009af9" fill-rule="evenodd" fill-opacity="1" stroke="#000000" stroke-opacity="1" stroke-width="3.2"/>
<circle clip-path="url(#clip693)" cx="1772.57" cy="1208.01" r="14.4" fill="#009af9" fill-rule="evenodd" fill-opacity="1" stroke="#000000" stroke-opacity="1" stroke-width="3.2"/>
<circle clip-path="url(#clip693)" cx="1829.79" cy="1217.26" r="14.4" fill="#009af9" fill-rule="evenodd" fill-opacity="1" stroke="#000000" stroke-opacity="1" stroke-width="3.2"/>
<circle clip-path="url(#clip693)" cx="1887.73" cy="1219.12" r="14.4" fill="#009af9" fill-rule="evenodd" fill-opacity="1" stroke="#000000" stroke-opacity="1" stroke-width="3.2"/>
<circle clip-path="url(#clip693)" cx="1945.43" cy="1213.55" r="14.4" fill="#009af9" fill-rule="evenodd" fill-opacity="1" stroke="#000000" stroke-opacity="1" stroke-width="3.2"/>
<circle clip-path="url(#clip693)" cx="2001.95" cy="1200.65" r="14.4" fill="#009af9" fill-rule="evenodd" fill-opacity="1" stroke="#000000" stroke-opacity="1" stroke-width="3.2"/>
<circle clip-path="url(#clip693)" cx="2056.35" cy="1180.63" r="14.4" fill="#009af9" fill-rule="evenodd" fill-opacity="1" stroke="#000000" stroke-opacity="1" stroke-width="3.2"/>
<circle clip-path="url(#clip693)" cx="2107.75" cy="1153.82" r="14.4" fill="#009af9" fill-rule="evenodd" fill-opacity="1" stroke="#000000" stroke-opacity="1" stroke-width="3.2"/>
<circle clip-path="url(#clip693)" cx="2155.29" cy="1120.65" r="14.4" fill="#009af9" fill-rule="evenodd" fill-opacity="1" stroke="#000000" stroke-opacity="1" stroke-width="3.2"/>
<circle clip-path="url(#clip693)" cx="2198.2" cy="1081.68" r="14.4" fill="#009af9" fill-rule="evenodd" fill-opacity="1" stroke="#000000" stroke-opacity="1" stroke-width="3.2"/>
<circle clip-path="url(#clip693)" cx="2235.78" cy="1037.54" r="14.4" fill="#009af9" fill-rule="evenodd" fill-opacity="1" stroke="#000000" stroke-opacity="1" stroke-width="3.2"/>
<circle clip-path="url(#clip693)" cx="2267.41" cy="988.957" r="14.4" fill="#009af9" fill-rule="evenodd" fill-opacity="1" stroke="#000000" stroke-opacity="1" stroke-width="3.2"/>
<circle clip-path="url(#clip693)" cx="2292.56" cy="936.728" r="14.4" fill="#009af9" fill-rule="evenodd" fill-opacity="1" stroke="#000000" stroke-opacity="1" stroke-width="3.2"/>
<circle clip-path="url(#clip693)" cx="2310.82" cy="881.712" r="14.4" fill="#009af9" fill-rule="evenodd" fill-opacity="1" stroke="#000000" stroke-opacity="1" stroke-width="3.2"/>
<circle clip-path="url(#clip693)" cx="2321.91" cy="824.812" r="14.4" fill="#009af9" fill-rule="evenodd" fill-opacity="1" stroke="#000000" stroke-opacity="1" stroke-width="3.2"/>
<circle clip-path="url(#clip693)" cx="2325.62" cy="766.962" r="14.4" fill="#009af9" fill-rule="evenodd" fill-opacity="1" stroke="#000000" stroke-opacity="1" stroke-width="3.2"/>
<circle clip-path="url(#clip693)" cx="1472.21" cy="976.339" r="14.4" fill="#e26f46" fill-rule="evenodd" fill-opacity="1" stroke="#000000" stroke-opacity="1" stroke-width="3.2"/>
<circle clip-path="url(#clip693)" cx="1502.28" cy="1025.9" r="14.4" fill="#e26f46" fill-rule="evenodd" fill-opacity="1" stroke="#000000" stroke-opacity="1" stroke-width="3.2"/>
<circle clip-path="url(#clip693)" cx="1538.44" cy="1071.21" r="14.4" fill="#e26f46" fill-rule="evenodd" fill-opacity="1" stroke="#000000" stroke-opacity="1" stroke-width="3.2"/>
<circle clip-path="url(#clip693)" cx="1580.09" cy="1111.53" r="14.4" fill="#e26f46" fill-rule="evenodd" fill-opacity="1" stroke="#000000" stroke-opacity="1" stroke-width="3.2"/>
<circle clip-path="url(#clip693)" cx="1626.56" cy="1146.18" r="14.4" fill="#e26f46" fill-rule="evenodd" fill-opacity="1" stroke="#000000" stroke-opacity="1" stroke-width="3.2"/>
<circle clip-path="url(#clip693)" cx="1677.08" cy="1174.61" r="14.4" fill="#e26f46" fill-rule="evenodd" fill-opacity="1" stroke="#000000" stroke-opacity="1" stroke-width="3.2"/>
<circle clip-path="url(#clip693)" cx="1730.82" cy="1196.35" r="14.4" fill="#e26f46" fill-rule="evenodd" fill-opacity="1" stroke="#000000" stroke-opacity="1" stroke-width="3.2"/>
<circle clip-path="url(#clip693)" cx="1786.9" cy="1211.04" r="14.4" fill="#e26f46" fill-rule="evenodd" fill-opacity="1" stroke="#000000" stroke-opacity="1" stroke-width="3.2"/>
<circle clip-path="url(#clip693)" cx="1844.39" cy="1218.43" r="14.4" fill="#e26f46" fill-rule="evenodd" fill-opacity="1" stroke="#000000" stroke-opacity="1" stroke-width="3.2"/>
<circle clip-path="url(#clip693)" cx="1902.36" cy="1218.41" r="14.4" fill="#e26f46" fill-rule="evenodd" fill-opacity="1" stroke="#000000" stroke-opacity="1" stroke-width="3.2"/>
<circle clip-path="url(#clip693)" cx="1959.85" cy="1210.98" r="14.4" fill="#e26f46" fill-rule="evenodd" fill-opacity="1" stroke="#000000" stroke-opacity="1" stroke-width="3.2"/>
<circle clip-path="url(#clip693)" cx="2015.92" cy="1196.26" r="14.4" fill="#e26f46" fill-rule="evenodd" fill-opacity="1" stroke="#000000" stroke-opacity="1" stroke-width="3.2"/>
<circle clip-path="url(#clip693)" cx="2069.65" cy="1174.49" r="14.4" fill="#e26f46" fill-rule="evenodd" fill-opacity="1" stroke="#000000" stroke-opacity="1" stroke-width="3.2"/>
<circle clip-path="url(#clip693)" cx="2120.15" cy="1146.02" r="14.4" fill="#e26f46" fill-rule="evenodd" fill-opacity="1" stroke="#000000" stroke-opacity="1" stroke-width="3.2"/>
<circle clip-path="url(#clip693)" cx="2166.59" cy="1111.34" r="14.4" fill="#e26f46" fill-rule="evenodd" fill-opacity="1" stroke="#000000" stroke-opacity="1" stroke-width="3.2"/>
<circle clip-path="url(#clip693)" cx="2208.22" cy="1070.99" r="14.4" fill="#e26f46" fill-rule="evenodd" fill-opacity="1" stroke="#000000" stroke-opacity="1" stroke-width="3.2"/>
<circle clip-path="url(#clip693)" cx="2244.35" cy="1025.66" r="14.4" fill="#e26f46" fill-rule="evenodd" fill-opacity="1" stroke="#000000" stroke-opacity="1" stroke-width="3.2"/>
<circle clip-path="url(#clip693)" cx="2274.39" cy="976.079" r="14.4" fill="#e26f46" fill-rule="evenodd" fill-opacity="1" stroke="#000000" stroke-opacity="1" stroke-width="3.2"/>
<circle clip-path="url(#clip693)" cx="2297.83" cy="923.064" r="14.4" fill="#e26f46" fill-rule="evenodd" fill-opacity="1" stroke="#000000" stroke-opacity="1" stroke-width="3.2"/>
<circle clip-path="url(#clip693)" cx="2314.31" cy="867.485" r="14.4" fill="#e26f46" fill-rule="evenodd" fill-opacity="1" stroke="#000000" stroke-opacity="1" stroke-width="3.2"/>
<circle clip-path="url(#clip693)" cx="2323.54" cy="810.256" r="14.4" fill="#e26f46" fill-rule="evenodd" fill-opacity="1" stroke="#000000" stroke-opacity="1" stroke-width="3.2"/>
<circle clip-path="url(#clip693)" cx="2325.38" cy="752.316" r="14.4" fill="#e26f46" fill-rule="evenodd" fill-opacity="1" stroke="#000000" stroke-opacity="1" stroke-width="3.2"/>
<circle clip-path="url(#clip693)" cx="2319.8" cy="694.617" r="14.4" fill="#e26f46" fill-rule="evenodd" fill-opacity="1" stroke="#000000" stroke-opacity="1" stroke-width="3.2"/>
<circle clip-path="url(#clip693)" cx="2306.88" cy="638.105" r="14.4" fill="#e26f46" fill-rule="evenodd" fill-opacity="1" stroke="#000000" stroke-opacity="1" stroke-width="3.2"/>
<circle clip-path="url(#clip693)" cx="2286.84" cy="583.709" r="14.4" fill="#e26f46" fill-rule="evenodd" fill-opacity="1" stroke="#000000" stroke-opacity="1" stroke-width="3.2"/>
<circle clip-path="url(#clip693)" cx="2260.01" cy="532.323" r="14.4" fill="#e26f46" fill-rule="evenodd" fill-opacity="1" stroke="#000000" stroke-opacity="1" stroke-width="3.2"/>
<circle clip-path="url(#clip693)" cx="2226.83" cy="484.789" r="14.4" fill="#e26f46" fill-rule="evenodd" fill-opacity="1" stroke="#000000" stroke-opacity="1" stroke-width="3.2"/>
<circle clip-path="url(#clip693)" cx="2187.84" cy="441.888" r="14.4" fill="#e26f46" fill-rule="evenodd" fill-opacity="1" stroke="#000000" stroke-opacity="1" stroke-width="3.2"/>
<circle clip-path="url(#clip693)" cx="2143.69" cy="404.325" r="14.4" fill="#e26f46" fill-rule="evenodd" fill-opacity="1" stroke="#000000" stroke-opacity="1" stroke-width="3.2"/>
<circle clip-path="url(#clip693)" cx="2095.1" cy="372.717" r="14.4" fill="#e26f46" fill-rule="evenodd" fill-opacity="1" stroke="#000000" stroke-opacity="1" stroke-width="3.2"/>
<circle clip-path="url(#clip693)" cx="2042.86" cy="347.582" r="14.4" fill="#e26f46" fill-rule="evenodd" fill-opacity="1" stroke="#000000" stroke-opacity="1" stroke-width="3.2"/>
<circle clip-path="url(#clip693)" cx="1987.84" cy="329.333" r="14.4" fill="#e26f46" fill-rule="evenodd" fill-opacity="1" stroke="#000000" stroke-opacity="1" stroke-width="3.2"/>
<circle clip-path="url(#clip693)" cx="1930.94" cy="318.27" r="14.4" fill="#e26f46" fill-rule="evenodd" fill-opacity="1" stroke="#000000" stroke-opacity="1" stroke-width="3.2"/>
<circle clip-path="url(#clip693)" cx="1873.09" cy="314.575" r="14.4" fill="#e26f46" fill-rule="evenodd" fill-opacity="1" stroke="#000000" stroke-opacity="1" stroke-width="3.2"/>
<circle clip-path="url(#clip693)" cx="1815.24" cy="318.308" r="14.4" fill="#e26f46" fill-rule="evenodd" fill-opacity="1" stroke="#000000" stroke-opacity="1" stroke-width="3.2"/>
<circle clip-path="url(#clip693)" cx="1758.34" cy="329.407" r="14.4" fill="#e26f46" fill-rule="evenodd" fill-opacity="1" stroke="#000000" stroke-opacity="1" stroke-width="3.2"/>
<circle clip-path="url(#clip693)" cx="1703.33" cy="347.692" r="14.4" fill="#e26f46" fill-rule="evenodd" fill-opacity="1" stroke="#000000" stroke-opacity="1" stroke-width="3.2"/>
<circle clip-path="url(#clip693)" cx="1651.11" cy="372.86" r="14.4" fill="#e26f46" fill-rule="evenodd" fill-opacity="1" stroke="#000000" stroke-opacity="1" stroke-width="3.2"/>
<circle clip-path="url(#clip693)" cx="1602.54" cy="404.5" r="14.4" fill="#e26f46" fill-rule="evenodd" fill-opacity="1" stroke="#000000" stroke-opacity="1" stroke-width="3.2"/>
<circle clip-path="url(#clip693)" cx="1558.41" cy="442.092" r="14.4" fill="#e26f46" fill-rule="evenodd" fill-opacity="1" stroke="#000000" stroke-opacity="1" stroke-width="3.2"/>
<circle clip-path="url(#clip693)" cx="1519.45" cy="485.018" r="14.4" fill="#e26f46" fill-rule="evenodd" fill-opacity="1" stroke="#000000" stroke-opacity="1" stroke-width="3.2"/>
<circle clip-path="url(#clip693)" cx="1486.3" cy="532.573" r="14.4" fill="#e26f46" fill-rule="evenodd" fill-opacity="1" stroke="#000000" stroke-opacity="1" stroke-width="3.2"/>
<circle clip-path="url(#clip693)" cx="1459.5" cy="583.977" r="14.4" fill="#e26f46" fill-rule="evenodd" fill-opacity="1" stroke="#000000" stroke-opacity="1" stroke-width="3.2"/>
<circle clip-path="url(#clip693)" cx="1439.5" cy="638.386" r="14.4" fill="#e26f46" fill-rule="evenodd" fill-opacity="1" stroke="#000000" stroke-opacity="1" stroke-width="3.2"/>
<circle clip-path="url(#clip693)" cx="1426.62" cy="694.906" r="14.4" fill="#e26f46" fill-rule="evenodd" fill-opacity="1" stroke="#000000" stroke-opacity="1" stroke-width="3.2"/>
<circle clip-path="url(#clip693)" cx="1421.07" cy="752.609" r="14.4" fill="#e26f46" fill-rule="evenodd" fill-opacity="1" stroke="#000000" stroke-opacity="1" stroke-width="3.2"/>
<circle clip-path="url(#clip693)" cx="1422.95" cy="810.548" r="14.4" fill="#e26f46" fill-rule="evenodd" fill-opacity="1" stroke="#000000" stroke-opacity="1" stroke-width="3.2"/>
<circle clip-path="url(#clip693)" cx="1432.22" cy="867.771" r="14.4" fill="#e26f46" fill-rule="evenodd" fill-opacity="1" stroke="#000000" stroke-opacity="1" stroke-width="3.2"/>
<circle clip-path="url(#clip693)" cx="1448.73" cy="923.338" r="14.4" fill="#e26f46" fill-rule="evenodd" fill-opacity="1" stroke="#000000" stroke-opacity="1" stroke-width="3.2"/>
<circle clip-path="url(#clip693)" cx="1472.21" cy="976.339" r="14.4" fill="#e26f46" fill-rule="evenodd" fill-opacity="1" stroke="#000000" stroke-opacity="1" stroke-width="3.2"/>
<path clip-path="url(#clip690)" d="
M2103.43 328.498 L2320.8 328.498 L2320.8 95.2176 L2103.43 95.2176  Z
  " fill="#ffffff" fill-rule="evenodd" fill-opacity="1"/>
<polyline clip-path="url(#clip690)" style="stroke:#000000; stroke-linecap:round; stroke-linejoin:round; stroke-width:4; stroke-opacity:1; fill:none" points="
  2103.43,328.498 2320.8,328.498 2320.8,95.2176 2103.43,95.2176 2103.43,328.498 
  "/>
<circle clip-path="url(#clip690)" cx="2146.04" cy="172.978" r="34.56" fill="#009af9" fill-rule="evenodd" fill-opacity="1" stroke="#000000" stroke-opacity="1" stroke-width="7.68"/>
<path clip-path="url(#clip690)" d="M2188.66 160.009 L2195.04 160.009 L2195.04 198.898 L2188.66 198.898 L2188.66 160.009 M2188.66 144.87 L2195.04 144.87 L2195.04 152.96 L2188.66 152.96 L2188.66 144.87 Z" fill="#000000" fill-rule="evenodd" fill-opacity="1" /><path clip-path="url(#clip690)" d="M2240.74 175.425 L2240.74 198.898 L2234.35 198.898 L2234.35 175.634 Q2234.35 170.113 2232.2 167.37 Q2230.04 164.627 2225.74 164.627 Q2220.56 164.627 2217.58 167.925 Q2214.59 171.224 2214.59 176.919 L2214.59 198.898 L2208.17 198.898 L2208.17 160.009 L2214.59 160.009 L2214.59 166.051 Q2216.88 162.544 2219.97 160.807 Q2223.1 159.071 2227.16 159.071 Q2233.86 159.071 2237.3 163.238 Q2240.74 167.37 2240.74 175.425 Z" fill="#000000" fill-rule="evenodd" fill-opacity="1" /><circle clip-path="url(#clip690)" cx="2146.04" cy="250.738" r="34.56" fill="#e26f46" fill-rule="evenodd" fill-opacity="1" stroke="#000000" stroke-opacity="1" stroke-width="7.68"/>
<path clip-path="url(#clip690)" d="M2206.5 242.248 Q2201.36 242.248 2198.38 246.276 Q2195.39 250.269 2195.39 257.248 Q2195.39 264.227 2198.34 268.255 Q2201.33 272.248 2206.5 272.248 Q2211.61 272.248 2214.59 268.22 Q2217.58 264.192 2217.58 257.248 Q2217.58 250.338 2214.59 246.31 Q2211.61 242.248 2206.5 242.248 M2206.5 236.831 Q2214.84 236.831 2219.59 242.248 Q2224.35 247.665 2224.35 257.248 Q2224.35 266.796 2219.59 272.248 Q2214.84 277.664 2206.5 277.664 Q2198.13 277.664 2193.38 272.248 Q2188.66 266.796 2188.66 257.248 Q2188.66 247.665 2193.38 242.248 Q2198.13 236.831 2206.5 236.831 Z" fill="#000000" fill-rule="evenodd" fill-opacity="1" /><path clip-path="url(#clip690)" d="M2234.28 261.31 L2234.28 237.769 L2240.67 237.769 L2240.67 261.067 Q2240.67 266.588 2242.82 269.366 Q2244.97 272.109 2249.28 272.109 Q2254.45 272.109 2257.44 268.81 Q2260.46 265.512 2260.46 259.817 L2260.46 237.769 L2266.85 237.769 L2266.85 276.658 L2260.46 276.658 L2260.46 270.685 Q2258.13 274.227 2255.04 275.963 Q2251.99 277.664 2247.93 277.664 Q2241.22 277.664 2237.75 273.498 Q2234.28 269.331 2234.28 261.31 M2250.36 236.831 L2250.36 236.831 Z" fill="#000000" fill-rule="evenodd" fill-opacity="1" /><path clip-path="url(#clip690)" d="M2286.33 226.727 L2286.33 237.769 L2299.49 237.769 L2299.49 242.734 L2286.33 242.734 L2286.33 263.845 Q2286.33 268.602 2287.61 269.956 Q2288.93 271.31 2292.93 271.31 L2299.49 271.31 L2299.49 276.658 L2292.93 276.658 Q2285.53 276.658 2282.72 273.915 Q2279.9 271.137 2279.9 263.845 L2279.9 242.734 L2275.22 242.734 L2275.22 237.769 L2279.9 237.769 L2279.9 226.727 L2286.33 226.727 Z" fill="#000000" fill-rule="evenodd" fill-opacity="1" /></svg>
