<?xml version="1.0" encoding="utf-8"?>
<svg xmlns="http://www.w3.org/2000/svg" xmlns:xlink="http://www.w3.org/1999/xlink" width="600" height="400" viewBox="0 0 2400 1600">
<defs>
  <clipPath id="clip780">
    <rect x="0" y="0" width="2400" height="1600"/>
  </clipPath>
</defs>
<path clip-path="url(#clip780)" d="
M0 1600 L2400 1600 L2400 0 L0 0  Z
  " fill="#ffffff" fill-rule="evenodd" fill-opacity="1"/>
<defs>
  <clipPath id="clip781">
    <rect x="480" y="0" width="1681" height="1600"/>
  </clipPath>
</defs>
<path clip-path="url(#clip780)" d="
M186.274 1486.45 L2352.76 1486.45 L2352.76 47.2441 L186.274 47.2441  Z
  " fill="#ffffff" fill-rule="evenodd" fill-opacity="1"/>
<defs>
  <clipPath id="clip782">
    <rect x="186" y="47" width="2167" height="1440"/>
  </clipPath>
</defs>
<polyline clip-path="url(#clip782)" style="stroke:#000000; stroke-linecap:round; stroke-linejoin:round; stroke-width:2; stroke-opacity:0.1; fill:none" points="
  247.59,1486.45 247.59,47.2441 
  "/>
<polyline clip-path="url(#clip782)" style="stroke:#000000; stroke-linecap:round; stroke-linejoin:round; stroke-width:2; stroke-opacity:0.1; fill:none" points="
  758.552,1486.45 758.552,47.2441 
  "/>
<polyline clip-path="url(#clip782)" style="stroke:#000000; stroke-linecap:round; stroke-linejoin:round; stroke-width:2; stroke-opacity:0.1; fill:none" points="
  1269.51,1486.45 1269.51,47.2441 
  "/>
<polyline clip-path="url(#clip782)" style="stroke:#000000; stroke-linecap:round; stroke-linejoin:round; stroke-width:2; stroke-opacity:0.1; fill:none" points="
  1780.48,1486.45 1780.48,47.2441 
  "/>
<polyline clip-path="url(#clip782)" style="stroke:#000000; stroke-linecap:round; stroke-linejoin:round; stroke-width:2; stroke-opacity:0.1; fill:none" points="
  2291.44,1486.45 2291.44,47.2441 
  "/>
<polyline clip-path="url(#clip780)" style="stroke:#000000; stroke-linecap:round; stroke-linejoin:round; stroke-width:4; stroke-opacity:1; fill:none" points="
  186.274,1486.45 2352.76,1486.45 
  "/>
<polyline clip-path="url(#clip780)" style="stroke:#000000; stroke-linecap:round; stroke-linejoin:round; stroke-width:4; stroke-opacity:1; fill:none" points="
  247.59,1486.45 247.59,1467.55 
  "/>
<polyline clip-path="url(#clip780)" style="stroke:#000000; stroke-linecap:round; stroke-linejoin:round; stroke-width:4; stroke-opacity:1; fill:none" points="
  758.552,1486.45 758.552,1467.55 
  "/>
<polyline clip-path="url(#clip780)" style="stroke:#000000; stroke-linecap:round; stroke-linejoin:round; stroke-width:4; stroke-opacity:1; fill:none" points="
  1269.51,1486.45 1269.51,1467.55 
  "/>
<polyline clip-path="url(#clip780)" style="stroke:#000000; stroke-linecap:round; stroke-linejoin:round; stroke-width:4; stroke-opacity:1; fill:none" points="
  1780.48,1486.45 1780.48,1467.55 
  "/>
<polyline clip-path="url(#clip780)" style="stroke:#000000; stroke-linecap:round; stroke-linejoin:round; stroke-width:4; stroke-opacity:1; fill:none" points="
  2291.44,1486.45 2291.44,1467.55 
  "/>
<path clip-path="url(#clip780)" d="M194.118 1532.02 L223.793 1532.02 L223.793 1535.95 L194.118 1535.95 L194.118 1532.02 Z" fill="#000000" fill-rule="evenodd" fill-opacity="1" /><path clip-path="url(#clip780)" d="M234.696 1544.91 L242.335 1544.91 L242.335 1518.55 L234.025 1520.21 L234.025 1515.95 L242.289 1514.29 L246.965 1514.29 L246.965 1544.91 L254.603 1544.91 L254.603 1548.85 L234.696 1548.85 L234.696 1544.91 Z" fill="#000000" fill-rule="evenodd" fill-opacity="1" /><path clip-path="url(#clip780)" d="M264.048 1542.97 L268.932 1542.97 L268.932 1548.85 L264.048 1548.85 L264.048 1542.97 Z" fill="#000000" fill-rule="evenodd" fill-opacity="1" /><path clip-path="url(#clip780)" d="M289.117 1517.37 Q285.506 1517.37 283.677 1520.93 Q281.872 1524.47 281.872 1531.6 Q281.872 1538.71 283.677 1542.27 Q285.506 1545.82 289.117 1545.82 Q292.751 1545.82 294.557 1542.27 Q296.386 1538.71 296.386 1531.6 Q296.386 1524.47 294.557 1520.93 Q292.751 1517.37 289.117 1517.37 M289.117 1513.66 Q294.927 1513.66 297.983 1518.27 Q301.061 1522.85 301.061 1531.6 Q301.061 1540.33 297.983 1544.94 Q294.927 1549.52 289.117 1549.52 Q283.307 1549.52 280.228 1544.94 Q277.173 1540.33 277.173 1531.6 Q277.173 1522.85 280.228 1518.27 Q283.307 1513.66 289.117 1513.66 Z" fill="#000000" fill-rule="evenodd" fill-opacity="1" /><path clip-path="url(#clip780)" d="M705.578 1532.02 L735.254 1532.02 L735.254 1535.95 L705.578 1535.95 L705.578 1532.02 Z" fill="#000000" fill-rule="evenodd" fill-opacity="1" /><path clip-path="url(#clip780)" d="M755.346 1517.37 Q751.735 1517.37 749.906 1520.93 Q748.101 1524.47 748.101 1531.6 Q748.101 1538.71 749.906 1542.27 Q751.735 1545.82 755.346 1545.82 Q758.98 1545.82 760.786 1542.27 Q762.615 1538.71 762.615 1531.6 Q762.615 1524.47 760.786 1520.93 Q758.98 1517.37 755.346 1517.37 M755.346 1513.66 Q761.156 1513.66 764.212 1518.27 Q767.291 1522.85 767.291 1531.6 Q767.291 1540.33 764.212 1544.94 Q761.156 1549.52 755.346 1549.52 Q749.536 1549.52 746.457 1544.94 Q743.402 1540.33 743.402 1531.6 Q743.402 1522.85 746.457 1518.27 Q749.536 1513.66 755.346 1513.66 Z" fill="#000000" fill-rule="evenodd" fill-opacity="1" /><path clip-path="url(#clip780)" d="M775.508 1542.97 L780.392 1542.97 L780.392 1548.85 L775.508 1548.85 L775.508 1542.97 Z" fill="#000000" fill-rule="evenodd" fill-opacity="1" /><path clip-path="url(#clip780)" d="M790.624 1514.29 L808.98 1514.29 L808.98 1518.22 L794.906 1518.22 L794.906 1526.7 Q795.925 1526.35 796.943 1526.19 Q797.962 1526 798.98 1526 Q804.767 1526 808.147 1529.17 Q811.526 1532.34 811.526 1537.76 Q811.526 1543.34 808.054 1546.44 Q804.582 1549.52 798.263 1549.52 Q796.087 1549.52 793.818 1549.15 Q791.573 1548.78 789.166 1548.04 L789.166 1543.34 Q791.249 1544.47 793.471 1545.03 Q795.693 1545.58 798.17 1545.58 Q802.175 1545.58 804.513 1543.48 Q806.851 1541.37 806.851 1537.76 Q806.851 1534.15 804.513 1532.04 Q802.175 1529.94 798.17 1529.94 Q796.295 1529.94 794.42 1530.35 Q792.568 1530.77 790.624 1531.65 L790.624 1514.29 Z" fill="#000000" fill-rule="evenodd" fill-opacity="1" /><path clip-path="url(#clip780)" d="M1246.9 1517.37 Q1243.29 1517.37 1241.46 1520.93 Q1239.65 1524.47 1239.65 1531.6 Q1239.65 1538.71 1241.46 1542.27 Q1243.29 1545.82 1246.9 1545.82 Q1250.53 1545.82 1252.34 1542.27 Q1254.17 1538.71 1254.17 1531.6 Q1254.17 1524.47 1252.34 1520.93 Q1250.53 1517.37 1246.9 1517.37 M1246.9 1513.66 Q1252.71 1513.66 1255.77 1518.27 Q1258.84 1522.85 1258.84 1531.6 Q1258.84 1540.33 1255.77 1544.94 Q1252.71 1549.52 1246.9 1549.52 Q1241.09 1549.52 1238.01 1544.94 Q1234.95 1540.33 1234.95 1531.6 Q1234.95 1522.85 1238.01 1518.27 Q1241.09 1513.66 1246.9 1513.66 Z" fill="#000000" fill-rule="evenodd" fill-opacity="1" /><path clip-path="url(#clip780)" d="M1267.06 1542.97 L1271.95 1542.97 L1271.95 1548.85 L1267.06 1548.85 L1267.06 1542.97 Z" fill="#000000" fill-rule="evenodd" fill-opacity="1" /><path clip-path="url(#clip780)" d="M1292.13 1517.37 Q1288.52 1517.37 1286.69 1520.93 Q1284.89 1524.47 1284.89 1531.6 Q1284.89 1538.71 1286.69 1542.27 Q1288.52 1545.82 1292.13 1545.82 Q1295.76 1545.82 1297.57 1542.27 Q1299.4 1538.71 1299.4 1531.6 Q1299.4 1524.47 1297.57 1520.93 Q1295.76 1517.37 1292.13 1517.37 M1292.13 1513.66 Q1297.94 1513.66 1301 1518.27 Q1304.07 1522.85 1304.07 1531.6 Q1304.07 1540.33 1301 1544.94 Q1297.94 1549.52 1292.13 1549.52 Q1286.32 1549.52 1283.24 1544.94 Q1280.19 1540.33 1280.19 1531.6 Q1280.19 1522.85 1283.24 1518.27 Q1286.32 1513.66 1292.13 1513.66 Z" fill="#000000" fill-rule="evenodd" fill-opacity="1" /><path clip-path="url(#clip780)" d="M1758.36 1517.37 Q1754.75 1517.37 1752.92 1520.93 Q1751.11 1524.47 1751.11 1531.6 Q1751.11 1538.71 1752.92 1542.27 Q1754.75 1545.82 1758.36 1545.82 Q1761.99 1545.82 1763.8 1542.27 Q1765.63 1538.71 1765.63 1531.6 Q1765.63 1524.47 1763.8 1520.93 Q1761.99 1517.37 1758.36 1517.37 M1758.36 1513.66 Q1764.17 1513.66 1767.23 1518.27 Q1770.3 1522.85 1770.3 1531.6 Q1770.3 1540.33 1767.23 1544.94 Q1764.17 1549.52 1758.36 1549.52 Q1752.55 1549.52 1749.47 1544.94 Q1746.42 1540.33 1746.42 1531.6 Q1746.42 1522.85 1749.47 1518.27 Q1752.55 1513.66 1758.36 1513.66 Z" fill="#000000" fill-rule="evenodd" fill-opacity="1" /><path clip-path="url(#clip780)" d="M1778.52 1542.97 L1783.41 1542.97 L1783.41 1548.85 L1778.52 1548.85 L1778.52 1542.97 Z" fill="#000000" fill-rule="evenodd" fill-opacity="1" /><path clip-path="url(#clip780)" d="M1793.64 1514.29 L1811.99 1514.29 L1811.99 1518.22 L1797.92 1518.22 L1797.92 1526.7 Q1798.94 1526.35 1799.96 1526.19 Q1800.98 1526 1801.99 1526 Q1807.78 1526 1811.16 1529.17 Q1814.54 1532.34 1814.54 1537.76 Q1814.54 1543.34 1811.07 1546.44 Q1807.6 1549.52 1801.28 1549.52 Q1799.1 1549.52 1796.83 1549.15 Q1794.59 1548.78 1792.18 1548.04 L1792.18 1543.34 Q1794.26 1544.47 1796.48 1545.03 Q1798.71 1545.58 1801.18 1545.58 Q1805.19 1545.58 1807.53 1543.48 Q1809.86 1541.37 1809.86 1537.76 Q1809.86 1534.15 1807.53 1532.04 Q1805.19 1529.94 1801.18 1529.94 Q1799.31 1529.94 1797.43 1530.35 Q1795.58 1530.77 1793.64 1531.65 L1793.64 1514.29 Z" fill="#000000" fill-rule="evenodd" fill-opacity="1" /><path clip-path="url(#clip780)" d="M2258.59 1544.91 L2266.23 1544.91 L2266.23 1518.55 L2257.92 1520.21 L2257.92 1515.95 L2266.19 1514.29 L2270.86 1514.29 L2270.86 1544.91 L2278.5 1544.91 L2278.5 1548.85 L2258.59 1548.85 L2258.59 1544.91 Z" fill="#000000" fill-rule="evenodd" fill-opacity="1" /><path clip-path="url(#clip780)" d="M2287.95 1542.97 L2292.83 1542.97 L2292.83 1548.85 L2287.95 1548.85 L2287.95 1542.97 Z" fill="#000000" fill-rule="evenodd" fill-opacity="1" /><path clip-path="url(#clip780)" d="M2313.01 1517.37 Q2309.4 1517.37 2307.57 1520.93 Q2305.77 1524.47 2305.77 1531.6 Q2305.77 1538.71 2307.57 1542.27 Q2309.4 1545.82 2313.01 1545.82 Q2316.65 1545.82 2318.45 1542.27 Q2320.28 1538.71 2320.28 1531.6 Q2320.28 1524.47 2318.45 1520.93 Q2316.65 1517.37 2313.01 1517.37 M2313.01 1513.66 Q2318.82 1513.66 2321.88 1518.27 Q2324.96 1522.85 2324.96 1531.6 Q2324.96 1540.33 2321.88 1544.94 Q2318.82 1549.52 2313.01 1549.52 Q2307.2 1549.52 2304.13 1544.94 Q2301.07 1540.33 2301.07 1531.6 Q2301.07 1522.85 2304.13 1518.27 Q2307.2 1513.66 2313.01 1513.66 Z" fill="#000000" fill-rule="evenodd" fill-opacity="1" /><polyline clip-path="url(#clip782)" style="stroke:#000000; stroke-linecap:round; stroke-linejoin:round; stroke-width:2; stroke-opacity:0.1; fill:none" points="
  186.274,1482.84 2352.76,1482.84 
  "/>
<polyline clip-path="url(#clip782)" style="stroke:#000000; stroke-linecap:round; stroke-linejoin:round; stroke-width:2; stroke-opacity:0.1; fill:none" points="
  186.274,1170.62 2352.76,1170.62 
  "/>
<polyline clip-path="url(#clip782)" style="stroke:#000000; stroke-linecap:round; stroke-linejoin:round; stroke-width:2; stroke-opacity:0.1; fill:none" points="
  186.274,858.413 2352.76,858.413 
  "/>
<polyline clip-path="url(#clip782)" style="stroke:#000000; stroke-linecap:round; stroke-linejoin:round; stroke-width:2; stroke-opacity:0.1; fill:none" points="
  186.274,546.201 2352.76,546.201 
  "/>
<polyline clip-path="url(#clip782)" style="stroke:#000000; stroke-linecap:round; stroke-linejoin:round; stroke-width:2; stroke-opacity:0.1; fill:none" points="
  186.274,233.99 2352.76,233.99 
  "/>
<polyline clip-path="url(#clip780)" style="stroke:#000000; stroke-linecap:round; stroke-linejoin:round; stroke-width:4; stroke-opacity:1; fill:none" points="
  186.274,1486.45 186.274,47.2441 
  "/>
<polyline clip-path="url(#clip780)" style="stroke:#000000; stroke-linecap:round; stroke-linejoin:round; stroke-width:4; stroke-opacity:1; fill:none" points="
  186.274,1482.84 205.172,1482.84 
  "/>
<polyline clip-path="url(#clip780)" style="stroke:#000000; stroke-linecap:round; stroke-linejoin:round; stroke-width:4; stroke-opacity:1; fill:none" points="
  186.274,1170.62 205.172,1170.62 
  "/>
<polyline clip-path="url(#clip780)" style="stroke:#000000; stroke-linecap:round; stroke-linejoin:round; stroke-width:4; stroke-opacity:1; fill:none" points="
  186.274,858.413 205.172,858.413 
  "/>
<polyline clip-path="url(#clip780)" style="stroke:#000000; stroke-linecap:round; stroke-linejoin:round; stroke-width:4; stroke-opacity:1; fill:none" points="
  186.274,546.201 205.172,546.201 
  "/>
<polyline clip-path="url(#clip780)" style="stroke:#000000; stroke-linecap:round; stroke-linejoin:round; stroke-width:4; stroke-opacity:1; fill:none" points="
  186.274,233.99 205.172,233.99 
  "/>
<path clip-path="url(#clip780)" d="M62.9365 1468.63 Q59.3254 1468.63 57.4967 1472.2 Q55.6912 1475.74 55.6912 1482.87 Q55.6912 1489.98 57.4967 1493.54 Q59.3254 1497.08 62.9365 1497.08 Q66.5707 1497.08 68.3763 1493.54 Q70.205 1489.98 70.205 1482.87 Q70.205 1475.74 68.3763 1472.2 Q66.5707 1468.63 62.9365 1468.63 M62.9365 1464.93 Q68.7467 1464.93 71.8022 1469.54 Q74.8809 1474.12 74.8809 1482.87 Q74.8809 1491.6 71.8022 1496.2 Q68.7467 1500.79 62.9365 1500.79 Q57.1264 1500.79 54.0477 1496.2 Q50.9921 1491.6 50.9921 1482.87 Q50.9921 1474.12 54.0477 1469.54 Q57.1264 1464.93 62.9365 1464.93 Z" fill="#000000" fill-rule="evenodd" fill-opacity="1" /><path clip-path="url(#clip780)" d="M83.0984 1494.24 L87.9827 1494.24 L87.9827 1500.12 L83.0984 1500.12 L83.0984 1494.24 Z" fill="#000000" fill-rule="evenodd" fill-opacity="1" /><path clip-path="url(#clip780)" d="M108.168 1468.63 Q104.557 1468.63 102.728 1472.2 Q100.922 1475.74 100.922 1482.87 Q100.922 1489.98 102.728 1493.54 Q104.557 1497.08 108.168 1497.08 Q111.802 1497.08 113.608 1493.54 Q115.436 1489.98 115.436 1482.87 Q115.436 1475.74 113.608 1472.2 Q111.802 1468.63 108.168 1468.63 M108.168 1464.93 Q113.978 1464.93 117.033 1469.54 Q120.112 1474.12 120.112 1482.87 Q120.112 1491.6 117.033 1496.2 Q113.978 1500.79 108.168 1500.79 Q102.358 1500.79 99.2789 1496.2 Q96.2234 1491.6 96.2234 1482.87 Q96.2234 1474.12 99.2789 1469.54 Q102.358 1464.93 108.168 1464.93 Z" fill="#000000" fill-rule="evenodd" fill-opacity="1" /><path clip-path="url(#clip780)" d="M138.33 1468.63 Q134.719 1468.63 132.89 1472.2 Q131.084 1475.74 131.084 1482.87 Q131.084 1489.98 132.89 1493.54 Q134.719 1497.08 138.33 1497.08 Q141.964 1497.08 143.769 1493.54 Q145.598 1489.98 145.598 1482.87 Q145.598 1475.74 143.769 1472.2 Q141.964 1468.63 138.33 1468.63 M138.33 1464.93 Q144.14 1464.93 147.195 1469.54 Q150.274 1474.12 150.274 1482.87 Q150.274 1491.6 147.195 1496.2 Q144.14 1500.79 138.33 1500.79 Q132.519 1500.79 129.441 1496.2 Q126.385 1491.6 126.385 1482.87 Q126.385 1474.12 129.441 1469.54 Q132.519 1464.93 138.33 1464.93 Z" fill="#000000" fill-rule="evenodd" fill-opacity="1" /><path clip-path="url(#clip780)" d="M63.9319 1156.42 Q60.3208 1156.42 58.4921 1159.99 Q56.6865 1163.53 56.6865 1170.66 Q56.6865 1177.77 58.4921 1181.33 Q60.3208 1184.87 63.9319 1184.87 Q67.5661 1184.87 69.3717 1181.33 Q71.2004 1177.77 71.2004 1170.66 Q71.2004 1163.53 69.3717 1159.99 Q67.5661 1156.42 63.9319 1156.42 M63.9319 1152.72 Q69.742 1152.72 72.7976 1157.33 Q75.8763 1161.91 75.8763 1170.66 Q75.8763 1179.39 72.7976 1183.99 Q69.742 1188.58 63.9319 1188.58 Q58.1217 1188.58 55.043 1183.99 Q51.9875 1179.39 51.9875 1170.66 Q51.9875 1161.91 55.043 1157.33 Q58.1217 1152.72 63.9319 1152.72 Z" fill="#000000" fill-rule="evenodd" fill-opacity="1" /><path clip-path="url(#clip780)" d="M84.0938 1182.02 L88.978 1182.02 L88.978 1187.9 L84.0938 1187.9 L84.0938 1182.02 Z" fill="#000000" fill-rule="evenodd" fill-opacity="1" /><path clip-path="url(#clip780)" d="M103.191 1183.97 L119.51 1183.97 L119.51 1187.9 L97.566 1187.9 L97.566 1183.97 Q100.228 1181.21 104.811 1176.59 Q109.418 1171.93 110.598 1170.59 Q112.844 1168.07 113.723 1166.33 Q114.626 1164.57 114.626 1162.88 Q114.626 1160.13 112.682 1158.39 Q110.76 1156.65 107.658 1156.65 Q105.459 1156.65 103.006 1157.42 Q100.575 1158.18 97.7974 1159.73 L97.7974 1155.01 Q100.621 1153.88 103.075 1153.3 Q105.529 1152.72 107.566 1152.72 Q112.936 1152.72 116.131 1155.4 Q119.325 1158.09 119.325 1162.58 Q119.325 1164.71 118.515 1166.63 Q117.728 1168.53 115.621 1171.12 Q115.043 1171.79 111.941 1175.01 Q108.839 1178.21 103.191 1183.97 Z" fill="#000000" fill-rule="evenodd" fill-opacity="1" /><path clip-path="url(#clip780)" d="M129.371 1153.34 L147.728 1153.34 L147.728 1157.28 L133.654 1157.28 L133.654 1165.75 Q134.672 1165.4 135.691 1165.24 Q136.709 1165.06 137.728 1165.06 Q143.515 1165.06 146.894 1168.23 Q150.274 1171.4 150.274 1176.82 Q150.274 1182.4 146.802 1185.5 Q143.33 1188.58 137.01 1188.58 Q134.834 1188.58 132.566 1188.21 Q130.32 1187.84 127.913 1187.09 L127.913 1182.4 Q129.996 1183.53 132.219 1184.09 Q134.441 1184.64 136.918 1184.64 Q140.922 1184.64 143.26 1182.53 Q145.598 1180.43 145.598 1176.82 Q145.598 1173.21 143.26 1171.1 Q140.922 1168.99 136.918 1168.99 Q135.043 1168.99 133.168 1169.41 Q131.316 1169.83 129.371 1170.71 L129.371 1153.34 Z" fill="#000000" fill-rule="evenodd" fill-opacity="1" /><path clip-path="url(#clip780)" d="M62.9365 844.212 Q59.3254 844.212 57.4967 847.776 Q55.6912 851.318 55.6912 858.448 Q55.6912 865.554 57.4967 869.119 Q59.3254 872.661 62.9365 872.661 Q66.5707 872.661 68.3763 869.119 Q70.205 865.554 70.205 858.448 Q70.205 851.318 68.3763 847.776 Q66.5707 844.212 62.9365 844.212 M62.9365 840.508 Q68.7467 840.508 71.8022 845.114 Q74.8809 849.698 74.8809 858.448 Q74.8809 867.174 71.8022 871.781 Q68.7467 876.364 62.9365 876.364 Q57.1264 876.364 54.0477 871.781 Q50.9921 867.174 50.9921 858.448 Q50.9921 849.698 54.0477 845.114 Q57.1264 840.508 62.9365 840.508 Z" fill="#000000" fill-rule="evenodd" fill-opacity="1" /><path clip-path="url(#clip780)" d="M83.0984 869.813 L87.9827 869.813 L87.9827 875.693 L83.0984 875.693 L83.0984 869.813 Z" fill="#000000" fill-rule="evenodd" fill-opacity="1" /><path clip-path="url(#clip780)" d="M98.2141 841.133 L116.57 841.133 L116.57 845.068 L102.496 845.068 L102.496 853.54 Q103.515 853.193 104.534 853.031 Q105.552 852.846 106.571 852.846 Q112.358 852.846 115.737 856.017 Q119.117 859.188 119.117 864.605 Q119.117 870.184 115.645 873.286 Q112.172 876.364 105.853 876.364 Q103.677 876.364 101.409 875.994 Q99.1632 875.624 96.7558 874.883 L96.7558 870.184 Q98.8391 871.318 101.061 871.874 Q103.284 872.429 105.76 872.429 Q109.765 872.429 112.103 870.323 Q114.441 868.216 114.441 864.605 Q114.441 860.994 112.103 858.888 Q109.765 856.781 105.76 856.781 Q103.885 856.781 102.01 857.198 Q100.159 857.614 98.2141 858.494 L98.2141 841.133 Z" fill="#000000" fill-rule="evenodd" fill-opacity="1" /><path clip-path="url(#clip780)" d="M138.33 844.212 Q134.719 844.212 132.89 847.776 Q131.084 851.318 131.084 858.448 Q131.084 865.554 132.89 869.119 Q134.719 872.661 138.33 872.661 Q141.964 872.661 143.769 869.119 Q145.598 865.554 145.598 858.448 Q145.598 851.318 143.769 847.776 Q141.964 844.212 138.33 844.212 M138.33 840.508 Q144.14 840.508 147.195 845.114 Q150.274 849.698 150.274 858.448 Q150.274 867.174 147.195 871.781 Q144.14 876.364 138.33 876.364 Q132.519 876.364 129.441 871.781 Q126.385 867.174 126.385 858.448 Q126.385 849.698 129.441 845.114 Q132.519 840.508 138.33 840.508 Z" fill="#000000" fill-rule="evenodd" fill-opacity="1" /><path clip-path="url(#clip780)" d="M63.9319 532 Q60.3208 532 58.4921 535.565 Q56.6865 539.107 56.6865 546.236 Q56.6865 553.343 58.4921 556.907 Q60.3208 560.449 63.9319 560.449 Q67.5661 560.449 69.3717 556.907 Q71.2004 553.343 71.2004 546.236 Q71.2004 539.107 69.3717 535.565 Q67.5661 532 63.9319 532 M63.9319 528.296 Q69.742 528.296 72.7976 532.903 Q75.8763 537.486 75.8763 546.236 Q75.8763 554.963 72.7976 559.569 Q69.742 564.153 63.9319 564.153 Q58.1217 564.153 55.043 559.569 Q51.9875 554.963 51.9875 546.236 Q51.9875 537.486 55.043 532.903 Q58.1217 528.296 63.9319 528.296 Z" fill="#000000" fill-rule="evenodd" fill-opacity="1" /><path clip-path="url(#clip780)" d="M84.0938 557.602 L88.978 557.602 L88.978 563.481 L84.0938 563.481 L84.0938 557.602 Z" fill="#000000" fill-rule="evenodd" fill-opacity="1" /><path clip-path="url(#clip780)" d="M97.9826 528.921 L120.205 528.921 L120.205 530.912 L107.658 563.481 L102.774 563.481 L114.58 532.857 L97.9826 532.857 L97.9826 528.921 Z" fill="#000000" fill-rule="evenodd" fill-opacity="1" /><path clip-path="url(#clip780)" d="M129.371 528.921 L147.728 528.921 L147.728 532.857 L133.654 532.857 L133.654 541.329 Q134.672 540.982 135.691 540.82 Q136.709 540.634 137.728 540.634 Q143.515 540.634 146.894 543.806 Q150.274 546.977 150.274 552.394 Q150.274 557.972 146.802 561.074 Q143.33 564.153 137.01 564.153 Q134.834 564.153 132.566 563.782 Q130.32 563.412 127.913 562.671 L127.913 557.972 Q129.996 559.106 132.219 559.662 Q134.441 560.218 136.918 560.218 Q140.922 560.218 143.26 558.111 Q145.598 556.005 145.598 552.394 Q145.598 548.782 143.26 546.676 Q140.922 544.57 136.918 544.57 Q135.043 544.57 133.168 544.986 Q131.316 545.403 129.371 546.282 L129.371 528.921 Z" fill="#000000" fill-rule="evenodd" fill-opacity="1" /><path clip-path="url(#clip780)" d="M53.7467 247.335 L61.3856 247.335 L61.3856 220.969 L53.0754 222.636 L53.0754 218.377 L61.3393 216.71 L66.0152 216.71 L66.0152 247.335 L73.654 247.335 L73.654 251.27 L53.7467 251.27 L53.7467 247.335 Z" fill="#000000" fill-rule="evenodd" fill-opacity="1" /><path clip-path="url(#clip780)" d="M83.0984 245.39 L87.9827 245.39 L87.9827 251.27 L83.0984 251.27 L83.0984 245.39 Z" fill="#000000" fill-rule="evenodd" fill-opacity="1" /><path clip-path="url(#clip780)" d="M108.168 219.789 Q104.557 219.789 102.728 223.353 Q100.922 226.895 100.922 234.025 Q100.922 241.131 102.728 244.696 Q104.557 248.238 108.168 248.238 Q111.802 248.238 113.608 244.696 Q115.436 241.131 115.436 234.025 Q115.436 226.895 113.608 223.353 Q111.802 219.789 108.168 219.789 M108.168 216.085 Q113.978 216.085 117.033 220.691 Q120.112 225.275 120.112 234.025 Q120.112 242.752 117.033 247.358 Q113.978 251.941 108.168 251.941 Q102.358 251.941 99.2789 247.358 Q96.2234 242.752 96.2234 234.025 Q96.2234 225.275 99.2789 220.691 Q102.358 216.085 108.168 216.085 Z" fill="#000000" fill-rule="evenodd" fill-opacity="1" /><path clip-path="url(#clip780)" d="M138.33 219.789 Q134.719 219.789 132.89 223.353 Q131.084 226.895 131.084 234.025 Q131.084 241.131 132.89 244.696 Q134.719 248.238 138.33 248.238 Q141.964 248.238 143.769 244.696 Q145.598 241.131 145.598 234.025 Q145.598 226.895 143.769 223.353 Q141.964 219.789 138.33 219.789 M138.33 216.085 Q144.14 216.085 147.195 220.691 Q150.274 225.275 150.274 234.025 Q150.274 242.752 147.195 247.358 Q144.14 251.941 138.33 251.941 Q132.519 251.941 129.441 247.358 Q126.385 242.752 126.385 234.025 Q126.385 225.275 129.441 220.691 Q132.519 216.085 138.33 216.085 Z" fill="#000000" fill-rule="evenodd" fill-opacity="1" /><circle clip-path="url(#clip782)" cx="247.59" cy="1369.3" r="14.4" fill="#009af9" fill-rule="evenodd" fill-opacity="1" stroke="#000000" stroke-opacity="1" stroke-width="3.2"/>
<circle clip-path="url(#clip782)" cx="355.161" cy="1344.16" r="14.4" fill="#009af9" fill-rule="evenodd" fill-opacity="1" stroke="#000000" stroke-opacity="1" stroke-width="3.2"/>
<circle clip-path="url(#clip782)" cx="462.732" cy="1310.17" r="14.4" fill="#009af9" fill-rule="evenodd" fill-opacity="1" stroke="#000000" stroke-opacity="1" stroke-width="3.2"/>
<circle clip-path="url(#clip782)" cx="570.303" cy="1263.02" r="14.4" fill="#009af9" fill-rule="evenodd" fill-opacity="1" stroke="#000000" stroke-opacity="1" stroke-width="3.2"/>
<circle clip-path="url(#clip782)" cx="677.874" cy="1195.86" r="14.4" fill="#009af9" fill-rule="evenodd" fill-opacity="1" stroke="#000000" stroke-opacity="1" stroke-width="3.2"/>
<circle clip-path="url(#clip782)" cx="785.445" cy="1097.84" r="14.4" fill="#009af9" fill-rule="evenodd" fill-opacity="1" stroke="#000000" stroke-opacity="1" stroke-width="3.2"/>
<circle clip-path="url(#clip782)" cx="893.016" cy="953.067" r="14.4" fill="#009af9" fill-rule="evenodd" fill-opacity="1" stroke="#000000" stroke-opacity="1" stroke-width="3.2"/>
<circle clip-path="url(#clip782)" cx="1000.59" cy="744.974" r="14.4" fill="#009af9" fill-rule="evenodd" fill-opacity="1" stroke="#000000" stroke-opacity="1" stroke-width="3.2"/>
<circle clip-path="url(#clip782)" cx="1108.16" cy="483.205" r="14.4" fill="#009af9" fill-rule="evenodd" fill-opacity="1" stroke="#000000" stroke-opacity="1" stroke-width="3.2"/>
<circle clip-path="url(#clip782)" cx="1215.73" cy="267.652" r="14.4" fill="#009af9" fill-rule="evenodd" fill-opacity="1" stroke="#000000" stroke-opacity="1" stroke-width="3.2"/>
<circle clip-path="url(#clip782)" cx="1323.3" cy="267.652" r="14.4" fill="#009af9" fill-rule="evenodd" fill-opacity="1" stroke="#000000" stroke-opacity="1" stroke-width="3.2"/>
<circle clip-path="url(#clip782)" cx="1430.87" cy="483.205" r="14.4" fill="#009af9" fill-rule="evenodd" fill-opacity="1" stroke="#000000" stroke-opacity="1" stroke-width="3.2"/>
<circle clip-path="url(#clip782)" cx="1538.44" cy="744.974" r="14.4" fill="#009af9" fill-rule="evenodd" fill-opacity="1" stroke="#000000" stroke-opacity="1" stroke-width="3.2"/>
<circle clip-path="url(#clip782)" cx="1646.01" cy="953.067" r="14.4" fill="#009af9" fill-rule="evenodd" fill-opacity="1" stroke="#000000" stroke-opacity="1" stroke-width="3.2"/>
<circle clip-path="url(#clip782)" cx="1753.58" cy="1097.84" r="14.4" fill="#009af9" fill-rule="evenodd" fill-opacity="1" stroke="#000000" stroke-opacity="1" stroke-width="3.2"/>
<circle clip-path="url(#clip782)" cx="1861.16" cy="1195.86" r="14.4" fill="#009af9" fill-rule="evenodd" fill-opacity="1" stroke="#000000" stroke-opacity="1" stroke-width="3.2"/>
<circle clip-path="url(#clip782)" cx="1968.73" cy="1263.02" r="14.4" fill="#009af9" fill-rule="evenodd" fill-opacity="1" stroke="#000000" stroke-opacity="1" stroke-width="3.2"/>
<circle clip-path="url(#clip782)" cx="2076.3" cy="1310.17" r="14.4" fill="#009af9" fill-rule="evenodd" fill-opacity="1" stroke="#000000" stroke-opacity="1" stroke-width="3.2"/>
<circle clip-path="url(#clip782)" cx="2183.87" cy="1344.16" r="14.4" fill="#009af9" fill-rule="evenodd" fill-opacity="1" stroke="#000000" stroke-opacity="1" stroke-width="3.2"/>
<circle clip-path="url(#clip782)" cx="2291.44" cy="1369.3" r="14.4" fill="#009af9" fill-rule="evenodd" fill-opacity="1" stroke="#000000" stroke-opacity="1" stroke-width="3.2"/>
<polyline clip-path="url(#clip782)" style="stroke:#e26f46; stroke-linecap:round; stroke-linejoin:round; stroke-width:16; stroke-opacity:1; fill:none" points="
  247.59,1369.3 268.234,1365.02 288.879,1360.5 309.524,1355.72 330.169,1350.67 350.814,1345.33 371.459,1339.66 392.104,1333.66 412.749,1327.29 433.394,1320.53 
  454.039,1313.33 474.684,1305.68 495.329,1297.53 515.974,1288.83 536.619,1279.55 557.264,1269.64 577.909,1259.03 598.554,1247.68 619.199,1235.52 639.844,1222.47 
  660.489,1208.47 681.134,1193.41 701.779,1177.23 722.424,1159.81 743.069,1141.04 763.713,1120.83 784.358,1099.03 805.003,1075.53 825.648,1050.19 846.293,1022.88 
  866.938,993.454 887.583,961.788 908.228,927.762 928.873,891.277 949.518,852.269 970.163,810.718 990.808,766.673 1011.45,720.27 1032.1,671.761 1052.74,621.536 
  1073.39,570.157 1094.03,518.378 1114.68,467.158 1135.32,417.66 1155.97,371.226 1176.61,329.322 1197.26,293.453 1217.9,265.053 1238.55,245.353 1259.19,235.263 
  1279.84,235.263 1300.48,245.353 1321.13,265.053 1341.77,293.453 1362.42,329.322 1383.06,371.226 1403.71,417.66 1424.35,467.158 1445,518.378 1465.64,570.157 
  1486.29,621.536 1506.93,671.761 1527.58,720.27 1548.22,766.673 1568.87,810.718 1589.51,852.269 1610.16,891.277 1630.8,927.762 1651.45,961.788 1672.09,993.454 
  1692.74,1022.88 1713.38,1050.19 1734.03,1075.53 1754.67,1099.03 1775.32,1120.83 1795.96,1141.04 1816.61,1159.81 1837.25,1177.23 1857.9,1193.41 1878.54,1208.47 
  1899.19,1222.47 1919.83,1235.52 1940.48,1247.68 1961.12,1259.03 1981.77,1269.64 2002.41,1279.55 2023.06,1288.83 2043.7,1297.53 2064.35,1305.68 2084.99,1313.33 
  2105.64,1320.53 2126.28,1327.29 2146.93,1333.66 2167.57,1339.66 2188.22,1345.33 2208.86,1350.67 2229.51,1355.72 2250.15,1360.5 2270.8,1365.02 2291.44,1369.3 
  
  "/>
<polyline clip-path="url(#clip782)" style="stroke:#3da44d; stroke-linecap:round; stroke-linejoin:round; stroke-width:16; stroke-opacity:1; fill:none" points="
  247.59,1369.3 268.234,87.9763 288.879,164.903 309.524,619.151 330.169,1040.73 350.814,1308.12 371.459,1427.16 392.104,1445.72 412.749,1413.3 433.394,1365.98 
  454.039,1324.03 474.684,1295.17 495.329,1279.16 515.974,1272.03 536.619,1268.97 557.264,1266.01 577.909,1260.71 598.554,1252.09 619.199,1240.27 639.844,1225.95 
  660.489,1210.01 681.134,1193.16 701.779,1175.8 722.424,1158 743.069,1139.52 763.713,1120 784.358,1098.99 805.003,1076.12 825.648,1051.08 846.293,1023.73 
  866.938,994.003 887.583,961.903 908.228,927.47 928.873,890.727 949.518,851.671 970.163,810.275 990.808,766.519 1011.45,720.435 1032.1,672.169 1052.74,622.037 
  1073.39,570.576 1094.03,518.573 1114.68,467.066 1135.32,417.316 1155.97,370.752 1176.61,328.884 1197.26,293.205 1217.9,265.083 1238.55,245.652 1259.19,235.725 
  1279.84,235.725 1300.48,245.652 1321.13,265.083 1341.77,293.205 1362.42,328.884 1383.06,370.752 1403.71,417.316 1424.35,467.066 1445,518.573 1465.64,570.576 
  1486.29,622.037 1506.93,672.169 1527.58,720.435 1548.22,766.519 1568.87,810.275 1589.51,851.671 1610.16,890.727 1630.8,927.47 1651.45,961.903 1672.09,994.003 
  1692.74,1023.73 1713.38,1051.08 1734.03,1076.12 1754.67,1098.99 1775.32,1120 1795.96,1139.52 1816.61,1158 1837.25,1175.8 1857.9,1193.16 1878.54,1210.01 
  1899.19,1225.95 1919.83,1240.27 1940.48,1252.09 1961.12,1260.71 1981.77,1266.01 2002.41,1268.97 2023.06,1272.03 2043.7,1279.16 2064.35,1295.17 2084.99,1324.03 
  2105.64,1365.98 2126.28,1413.3 2146.93,1445.72 2167.57,1427.16 2188.22,1308.12 2208.86,1040.73 2229.51,619.151 2250.15,164.903 2270.8,87.9763 2291.44,1369.3 
  
  "/>
<path clip-path="url(#clip780)" d="
M1960.31 406.258 L2280.54 406.258 L2280.54 95.2176 L1960.31 95.2176  Z
  " fill="#ffffff" fill-rule="evenodd" fill-opacity="1"/>
<polyline clip-path="url(#clip780)" style="stroke:#000000; stroke-linecap:round; stroke-linejoin:round; stroke-width:4; stroke-opacity:1; fill:none" points="
  1960.31,406.258 2280.54,406.258 2280.54,95.2176 1960.31,95.2176 1960.31,406.258 
  "/>
<circle clip-path="url(#clip780)" cx="2056.59" cy="172.978" r="34.56" fill="#009af9" fill-rule="evenodd" fill-opacity="1" stroke="#000000" stroke-opacity="1" stroke-width="7.68"/>
<path clip-path="url(#clip780)" d="M2173.65 202.509 Q2170.94 209.453 2168.37 211.571 Q2165.8 213.689 2161.49 213.689 L2156.39 213.689 L2156.39 208.342 L2160.14 208.342 Q2162.78 208.342 2164.24 207.092 Q2165.69 205.842 2167.47 201.189 L2168.61 198.273 L2152.88 160.009 L2159.65 160.009 L2171.81 190.425 L2183.96 160.009 L2190.73 160.009 L2173.65 202.509 Z" fill="#000000" fill-rule="evenodd" fill-opacity="1" /><path clip-path="url(#clip780)" d="M2201.67 192.995 L2213.13 192.995 L2213.13 153.446 L2200.66 155.946 L2200.66 149.558 L2213.06 147.058 L2220.07 147.058 L2220.07 192.995 L2231.53 192.995 L2231.53 198.898 L2201.67 198.898 L2201.67 192.995 Z" fill="#000000" fill-rule="evenodd" fill-opacity="1" /><polyline clip-path="url(#clip780)" style="stroke:#e26f46; stroke-linecap:round; stroke-linejoin:round; stroke-width:6; stroke-opacity:1; fill:none" points="
  1984.38,250.738 2128.81,250.738 
  "/>
<path clip-path="url(#clip780)" d="M2173.65 280.269 Q2170.94 287.213 2168.37 289.331 Q2165.8 291.449 2161.49 291.449 L2156.39 291.449 L2156.39 286.102 L2160.14 286.102 Q2162.78 286.102 2164.24 284.852 Q2165.69 283.602 2167.47 278.949 L2168.61 276.033 L2152.88 237.769 L2159.65 237.769 L2171.81 268.185 L2183.96 237.769 L2190.73 237.769 L2173.65 280.269 Z" fill="#000000" fill-rule="evenodd" fill-opacity="1" /><path clip-path="url(#clip780)" d="M2206.49 270.755 L2230.97 270.755 L2230.97 276.658 L2198.06 276.658 L2198.06 270.755 Q2202.05 266.623 2208.92 259.678 Q2215.83 252.699 2217.6 250.685 Q2220.97 246.901 2222.29 244.297 Q2223.65 241.658 2223.65 239.123 Q2223.65 234.991 2220.73 232.387 Q2217.85 229.783 2213.19 229.783 Q2209.9 229.783 2206.22 230.929 Q2202.57 232.074 2198.4 234.401 L2198.4 227.318 Q2202.64 225.616 2206.32 224.748 Q2210 223.88 2213.06 223.88 Q2221.11 223.88 2225.9 227.908 Q2230.69 231.936 2230.69 238.672 Q2230.69 241.866 2229.48 244.748 Q2228.3 247.595 2225.14 251.484 Q2224.27 252.491 2219.62 257.317 Q2214.97 262.109 2206.49 270.755 Z" fill="#000000" fill-rule="evenodd" fill-opacity="1" /><polyline clip-path="url(#clip780)" style="stroke:#3da44d; stroke-linecap:round; stroke-linejoin:round; stroke-width:6; stroke-opacity:1; fill:none" points="
  1984.38,328.498 2128.81,328.498 
  "/>
<path clip-path="url(#clip780)" d="M2173.65 358.029 Q2170.94 364.973 2168.37 367.091 Q2165.8 369.209 2161.49 369.209 L2156.39 369.209 L2156.39 363.862 L2160.14 363.862 Q2162.78 363.862 2164.24 362.612 Q2165.69 361.362 2167.47 356.709 L2168.61 353.793 L2152.88 315.529 L2159.65 315.529 L2171.81 345.945 L2183.96 315.529 L2190.73 315.529 L2173.65 358.029 Z" fill="#000000" fill-rule="evenodd" fill-opacity="1" /><path clip-path="url(#clip780)" d="M2221.7 326.466 Q2226.74 327.543 2229.55 330.945 Q2232.4 334.348 2232.4 339.348 Q2232.4 347.022 2227.12 351.223 Q2221.84 355.424 2212.12 355.424 Q2208.85 355.424 2205.38 354.765 Q2201.94 354.14 2198.26 352.855 L2198.26 346.084 Q2201.18 347.786 2204.65 348.654 Q2208.13 349.522 2211.91 349.522 Q2218.51 349.522 2221.94 346.918 Q2225.42 344.313 2225.42 339.348 Q2225.42 334.765 2222.19 332.195 Q2218.99 329.591 2213.26 329.591 L2207.22 329.591 L2207.22 323.827 L2213.54 323.827 Q2218.72 323.827 2221.46 321.779 Q2224.2 319.696 2224.2 315.807 Q2224.2 311.814 2221.35 309.696 Q2218.54 307.543 2213.26 307.543 Q2210.38 307.543 2207.08 308.168 Q2203.78 308.793 2199.83 310.112 L2199.83 303.862 Q2203.82 302.751 2207.29 302.196 Q2210.8 301.64 2213.89 301.64 Q2221.88 301.64 2226.53 305.286 Q2231.18 308.897 2231.18 315.077 Q2231.18 319.383 2228.72 322.369 Q2226.25 325.32 2221.7 326.466 Z" fill="#000000" fill-rule="evenodd" fill-opacity="1" /></svg>
