<?xml version="1.0" encoding="utf-8"?>
<svg xmlns="http://www.w3.org/2000/svg" xmlns:xlink="http://www.w3.org/1999/xlink" width="600" height="400" viewBox="0 0 2400 1600">
<defs>
  <clipPath id="clip780">
    <rect x="0" y="0" width="2400" height="1600"/>
  </clipPath>
</defs>
<path clip-path="url(#clip780)" d="
M0 1600 L2400 1600 L2400 0 L0 0  Z
  " fill="#ffffff" fill-rule="evenodd" fill-opacity="1"/>
<defs>
  <clipPath id="clip781">
    <rect x="480" y="0" width="1681" height="1600"/>
  </clipPath>
</defs>
<path clip-path="url(#clip780)" d="
M169.121 1486.45 L2352.76 1486.45 L2352.76 47.2441 L169.121 47.2441  Z
  " fill="#ffffff" fill-rule="evenodd" fill-opacity="1"/>
<defs>
  <clipPath id="clip782">
    <rect x="169" y="47" width="2185" height="1440"/>
  </clipPath>
</defs>
<polyline clip-path="url(#clip782)" style="stroke:#000000; stroke-linecap:round; stroke-linejoin:round; stroke-width:2; stroke-opacity:0.1; fill:none" points="
  169.121,1486.45 169.121,47.2441 
  "/>
<polyline clip-path="url(#clip782)" style="stroke:#000000; stroke-linecap:round; stroke-linejoin:round; stroke-width:2; stroke-opacity:0.1; fill:none" points="
  897,1486.45 897,47.2441 
  "/>
<polyline clip-path="url(#clip782)" style="stroke:#000000; stroke-linecap:round; stroke-linejoin:round; stroke-width:2; stroke-opacity:0.1; fill:none" points="
  1624.88,1486.45 1624.88,47.2441 
  "/>
<polyline clip-path="url(#clip782)" style="stroke:#000000; stroke-linecap:round; stroke-linejoin:round; stroke-width:2; stroke-opacity:0.1; fill:none" points="
  2352.76,1486.45 2352.76,47.2441 
  "/>
<polyline clip-path="url(#clip780)" style="stroke:#000000; stroke-linecap:round; stroke-linejoin:round; stroke-width:4; stroke-opacity:1; fill:none" points="
  169.121,1486.45 2352.76,1486.45 
  "/>
<polyline clip-path="url(#clip780)" style="stroke:#000000; stroke-linecap:round; stroke-linejoin:round; stroke-width:4; stroke-opacity:1; fill:none" points="
  169.121,1486.45 169.121,1467.55 
  "/>
<polyline clip-path="url(#clip780)" style="stroke:#000000; stroke-linecap:round; stroke-linejoin:round; stroke-width:4; stroke-opacity:1; fill:none" points="
  897,1486.45 897,1467.55 
  "/>
<polyline clip-path="url(#clip780)" style="stroke:#000000; stroke-linecap:round; stroke-linejoin:round; stroke-width:4; stroke-opacity:1; fill:none" points="
  1624.88,1486.45 1624.88,1467.55 
  "/>
<polyline clip-path="url(#clip780)" style="stroke:#000000; stroke-linecap:round; stroke-linejoin:round; stroke-width:4; stroke-opacity:1; fill:none" points="
  2352.76,1486.45 2352.76,1467.55 
  "/>
<path clip-path="url(#clip780)" d="M138.878 1532.02 L168.554 1532.02 L168.554 1535.95 L138.878 1535.95 L138.878 1532.02 Z" fill="#000000" fill-rule="evenodd" fill-opacity="1" /><path clip-path="url(#clip780)" d="M179.457 1544.91 L187.096 1544.91 L187.096 1518.55 L178.786 1520.21 L178.786 1515.95 L187.049 1514.29 L191.725 1514.29 L191.725 1544.91 L199.364 1544.91 L199.364 1548.85 L179.457 1548.85 L179.457 1544.91 Z" fill="#000000" fill-rule="evenodd" fill-opacity="1" /><path clip-path="url(#clip780)" d="M897 1517.37 Q893.388 1517.37 891.56 1520.93 Q889.754 1524.47 889.754 1531.6 Q889.754 1538.71 891.56 1542.27 Q893.388 1545.82 897 1545.82 Q900.634 1545.82 902.439 1542.27 Q904.268 1538.71 904.268 1531.6 Q904.268 1524.47 902.439 1520.93 Q900.634 1517.37 897 1517.37 M897 1513.66 Q902.81 1513.66 905.865 1518.27 Q908.944 1522.85 908.944 1531.6 Q908.944 1540.33 905.865 1544.94 Q902.81 1549.52 897 1549.52 Q891.189 1549.52 888.111 1544.94 Q885.055 1540.33 885.055 1531.6 Q885.055 1522.85 888.111 1518.27 Q891.189 1513.66 897 1513.66 Z" fill="#000000" fill-rule="evenodd" fill-opacity="1" /><path clip-path="url(#clip780)" d="M1615.26 1544.91 L1622.9 1544.91 L1622.9 1518.55 L1614.59 1520.21 L1614.59 1515.95 L1622.85 1514.29 L1627.53 1514.29 L1627.53 1544.91 L1635.17 1544.91 L1635.17 1548.85 L1615.26 1548.85 L1615.26 1544.91 Z" fill="#000000" fill-rule="evenodd" fill-opacity="1" /><path clip-path="url(#clip780)" d="M2347.41 1544.91 L2363.73 1544.91 L2363.73 1548.85 L2341.78 1548.85 L2341.78 1544.91 Q2344.45 1542.16 2349.03 1537.53 Q2353.64 1532.88 2354.82 1531.53 Q2357.06 1529.01 2357.94 1527.27 Q2358.84 1525.51 2358.84 1523.82 Q2358.84 1521.07 2356.9 1519.33 Q2354.98 1517.6 2351.88 1517.6 Q2349.68 1517.6 2347.22 1518.36 Q2344.79 1519.13 2342.02 1520.68 L2342.02 1515.95 Q2344.84 1514.82 2347.29 1514.24 Q2349.75 1513.66 2351.78 1513.66 Q2357.15 1513.66 2360.35 1516.35 Q2363.54 1519.03 2363.54 1523.52 Q2363.54 1525.65 2362.73 1527.57 Q2361.95 1529.47 2359.84 1532.07 Q2359.26 1532.74 2356.16 1535.95 Q2353.06 1539.15 2347.41 1544.91 Z" fill="#000000" fill-rule="evenodd" fill-opacity="1" /><polyline clip-path="url(#clip782)" style="stroke:#000000; stroke-linecap:round; stroke-linejoin:round; stroke-width:2; stroke-opacity:0.1; fill:none" points="
  169.121,1486.45 2352.76,1486.45 
  "/>
<polyline clip-path="url(#clip782)" style="stroke:#000000; stroke-linecap:round; stroke-linejoin:round; stroke-width:2; stroke-opacity:0.1; fill:none" points="
  169.121,1198.61 2352.76,1198.61 
  "/>
<polyline clip-path="url(#clip782)" style="stroke:#000000; stroke-linecap:round; stroke-linejoin:round; stroke-width:2; stroke-opacity:0.1; fill:none" points="
  169.121,910.766 2352.76,910.766 
  "/>
<polyline clip-path="url(#clip782)" style="stroke:#000000; stroke-linecap:round; stroke-linejoin:round; stroke-width:2; stroke-opacity:0.1; fill:none" points="
  169.121,622.926 2352.76,622.926 
  "/>
<polyline clip-path="url(#clip782)" style="stroke:#000000; stroke-linecap:round; stroke-linejoin:round; stroke-width:2; stroke-opacity:0.1; fill:none" points="
  169.121,335.085 2352.76,335.085 
  "/>
<polyline clip-path="url(#clip782)" style="stroke:#000000; stroke-linecap:round; stroke-linejoin:round; stroke-width:2; stroke-opacity:0.1; fill:none" points="
  169.121,47.2441 2352.76,47.2441 
  "/>
<polyline clip-path="url(#clip780)" style="stroke:#000000; stroke-linecap:round; stroke-linejoin:round; stroke-width:4; stroke-opacity:1; fill:none" points="
  169.121,1486.45 169.121,47.2441 
  "/>
<polyline clip-path="url(#clip780)" style="stroke:#000000; stroke-linecap:round; stroke-linejoin:round; stroke-width:4; stroke-opacity:1; fill:none" points="
  169.121,1486.45 188.019,1486.45 
  "/>
<polyline clip-path="url(#clip780)" style="stroke:#000000; stroke-linecap:round; stroke-linejoin:round; stroke-width:4; stroke-opacity:1; fill:none" points="
  169.121,1198.61 188.019,1198.61 
  "/>
<polyline clip-path="url(#clip780)" style="stroke:#000000; stroke-linecap:round; stroke-linejoin:round; stroke-width:4; stroke-opacity:1; fill:none" points="
  169.121,910.766 188.019,910.766 
  "/>
<polyline clip-path="url(#clip780)" style="stroke:#000000; stroke-linecap:round; stroke-linejoin:round; stroke-width:4; stroke-opacity:1; fill:none" points="
  169.121,622.926 188.019,622.926 
  "/>
<polyline clip-path="url(#clip780)" style="stroke:#000000; stroke-linecap:round; stroke-linejoin:round; stroke-width:4; stroke-opacity:1; fill:none" points="
  169.121,335.085 188.019,335.085 
  "/>
<polyline clip-path="url(#clip780)" style="stroke:#000000; stroke-linecap:round; stroke-linejoin:round; stroke-width:4; stroke-opacity:1; fill:none" points="
  169.121,47.2441 188.019,47.2441 
  "/>
<path clip-path="url(#clip780)" d="M121.177 1472.25 Q117.566 1472.25 115.737 1475.81 Q113.932 1479.35 113.932 1486.48 Q113.932 1493.59 115.737 1497.15 Q117.566 1500.7 121.177 1500.7 Q124.811 1500.7 126.617 1497.15 Q128.445 1493.59 128.445 1486.48 Q128.445 1479.35 126.617 1475.81 Q124.811 1472.25 121.177 1472.25 M121.177 1468.54 Q126.987 1468.54 130.043 1473.15 Q133.121 1477.73 133.121 1486.48 Q133.121 1495.21 130.043 1499.82 Q126.987 1504.4 121.177 1504.4 Q115.367 1504.4 112.288 1499.82 Q109.233 1495.21 109.233 1486.48 Q109.233 1477.73 112.288 1473.15 Q115.367 1468.54 121.177 1468.54 Z" fill="#000000" fill-rule="evenodd" fill-opacity="1" /><path clip-path="url(#clip780)" d="M85.0429 1211.95 L101.362 1211.95 L101.362 1215.89 L79.4179 1215.89 L79.4179 1211.95 Q82.0799 1209.2 86.6632 1204.57 Q91.2697 1199.91 92.4502 1198.57 Q94.6956 1196.05 95.5752 1194.31 Q96.478 1192.55 96.478 1190.86 Q96.478 1188.11 94.5336 1186.37 Q92.6123 1184.64 89.5104 1184.64 Q87.3114 1184.64 84.8577 1185.4 Q82.4271 1186.17 79.6494 1187.72 L79.6494 1182.99 Q82.4734 1181.86 84.9271 1181.28 Q87.3808 1180.7 89.4178 1180.7 Q94.7882 1180.7 97.9826 1183.39 Q101.177 1186.07 101.177 1190.56 Q101.177 1192.69 100.367 1194.61 Q99.5798 1196.51 97.4734 1199.1 Q96.8947 1199.78 93.7928 1202.99 Q90.691 1206.19 85.0429 1211.95 Z" fill="#000000" fill-rule="evenodd" fill-opacity="1" /><path clip-path="url(#clip780)" d="M121.177 1184.41 Q117.566 1184.41 115.737 1187.97 Q113.932 1191.51 113.932 1198.64 Q113.932 1205.75 115.737 1209.31 Q117.566 1212.85 121.177 1212.85 Q124.811 1212.85 126.617 1209.31 Q128.445 1205.75 128.445 1198.64 Q128.445 1191.51 126.617 1187.97 Q124.811 1184.41 121.177 1184.41 M121.177 1180.7 Q126.987 1180.7 130.043 1185.31 Q133.121 1189.89 133.121 1198.64 Q133.121 1207.37 130.043 1211.98 Q126.987 1216.56 121.177 1216.56 Q115.367 1216.56 112.288 1211.98 Q109.233 1207.37 109.233 1198.64 Q109.233 1189.89 112.288 1185.31 Q115.367 1180.7 121.177 1180.7 Z" fill="#000000" fill-rule="evenodd" fill-opacity="1" /><path clip-path="url(#clip780)" d="M93.8623 897.56 L82.0568 916.009 L93.8623 916.009 L93.8623 897.56 M92.6354 893.486 L98.515 893.486 L98.515 916.009 L103.446 916.009 L103.446 919.898 L98.515 919.898 L98.515 928.046 L93.8623 928.046 L93.8623 919.898 L78.2605 919.898 L78.2605 915.384 L92.6354 893.486 Z" fill="#000000" fill-rule="evenodd" fill-opacity="1" /><path clip-path="url(#clip780)" d="M121.177 896.565 Q117.566 896.565 115.737 900.13 Q113.932 903.671 113.932 910.801 Q113.932 917.908 115.737 921.472 Q117.566 925.014 121.177 925.014 Q124.811 925.014 126.617 921.472 Q128.445 917.908 128.445 910.801 Q128.445 903.671 126.617 900.13 Q124.811 896.565 121.177 896.565 M121.177 892.861 Q126.987 892.861 130.043 897.468 Q133.121 902.051 133.121 910.801 Q133.121 919.528 130.043 924.134 Q126.987 928.718 121.177 928.718 Q115.367 928.718 112.288 924.134 Q109.233 919.528 109.233 910.801 Q109.233 902.051 112.288 897.468 Q115.367 892.861 121.177 892.861 Z" fill="#000000" fill-rule="evenodd" fill-opacity="1" /><path clip-path="url(#clip780)" d="M91.5938 621.062 Q88.4456 621.062 86.5938 623.215 Q84.7651 625.368 84.7651 629.118 Q84.7651 632.845 86.5938 635.02 Q88.4456 637.173 91.5938 637.173 Q94.7419 637.173 96.5706 635.02 Q98.4224 632.845 98.4224 629.118 Q98.4224 625.368 96.5706 623.215 Q94.7419 621.062 91.5938 621.062 M100.876 606.409 L100.876 610.669 Q99.1169 609.835 97.3113 609.396 Q95.5289 608.956 93.7697 608.956 Q89.1401 608.956 86.6864 612.081 Q84.2558 615.206 83.9086 621.525 Q85.2743 619.511 87.3345 618.446 Q89.3947 617.359 91.8715 617.359 Q97.0798 617.359 100.089 620.53 Q103.121 623.678 103.121 629.118 Q103.121 634.442 99.9733 637.659 Q96.8252 640.877 91.5938 640.877 Q85.5984 640.877 82.4271 636.294 Q79.2559 631.687 79.2559 622.96 Q79.2559 614.766 83.1447 609.905 Q87.0336 605.021 93.5845 605.021 Q95.3437 605.021 97.1261 605.368 Q98.9317 605.715 100.876 606.409 Z" fill="#000000" fill-rule="evenodd" fill-opacity="1" /><path clip-path="url(#clip780)" d="M121.177 608.724 Q117.566 608.724 115.737 612.289 Q113.932 615.831 113.932 622.96 Q113.932 630.067 115.737 633.632 Q117.566 637.173 121.177 637.173 Q124.811 637.173 126.617 633.632 Q128.445 630.067 128.445 622.96 Q128.445 615.831 126.617 612.289 Q124.811 608.724 121.177 608.724 M121.177 605.021 Q126.987 605.021 130.043 609.627 Q133.121 614.21 133.121 622.96 Q133.121 631.687 130.043 636.294 Q126.987 640.877 121.177 640.877 Q115.367 640.877 112.288 636.294 Q109.233 631.687 109.233 622.96 Q109.233 614.21 112.288 609.627 Q115.367 605.021 121.177 605.021 Z" fill="#000000" fill-rule="evenodd" fill-opacity="1" /><path clip-path="url(#clip780)" d="M91.0151 335.953 Q87.6817 335.953 85.7605 337.735 Q83.8623 339.518 83.8623 342.643 Q83.8623 345.768 85.7605 347.55 Q87.6817 349.332 91.0151 349.332 Q94.3484 349.332 96.2697 347.55 Q98.1909 345.745 98.1909 342.643 Q98.1909 339.518 96.2697 337.735 Q94.3715 335.953 91.0151 335.953 M86.3392 333.962 Q83.3299 333.221 81.6401 331.161 Q79.9735 329.101 79.9735 326.138 Q79.9735 321.995 82.9133 319.587 Q85.8762 317.18 91.0151 317.18 Q96.1771 317.18 99.1169 319.587 Q102.057 321.995 102.057 326.138 Q102.057 329.101 100.367 331.161 Q98.7002 333.221 95.7141 333.962 Q99.0937 334.749 100.969 337.041 Q102.867 339.333 102.867 342.643 Q102.867 347.666 99.7882 350.351 Q96.7326 353.036 91.0151 353.036 Q85.2975 353.036 82.2188 350.351 Q79.1633 347.666 79.1633 342.643 Q79.1633 339.333 81.0614 337.041 Q82.9595 334.749 86.3392 333.962 M84.6262 326.578 Q84.6262 329.263 86.2929 330.768 Q87.9827 332.272 91.0151 332.272 Q94.0243 332.272 95.7141 330.768 Q97.4271 329.263 97.4271 326.578 Q97.4271 323.893 95.7141 322.388 Q94.0243 320.884 91.0151 320.884 Q87.9827 320.884 86.2929 322.388 Q84.6262 323.893 84.6262 326.578 Z" fill="#000000" fill-rule="evenodd" fill-opacity="1" /><path clip-path="url(#clip780)" d="M121.177 320.884 Q117.566 320.884 115.737 324.448 Q113.932 327.99 113.932 335.12 Q113.932 342.226 115.737 345.791 Q117.566 349.332 121.177 349.332 Q124.811 349.332 126.617 345.791 Q128.445 342.226 128.445 335.12 Q128.445 327.99 126.617 324.448 Q124.811 320.884 121.177 320.884 M121.177 317.18 Q126.987 317.18 130.043 321.786 Q133.121 326.37 133.121 335.12 Q133.121 343.846 130.043 348.453 Q126.987 353.036 121.177 353.036 Q115.367 353.036 112.288 348.453 Q109.233 343.846 109.233 335.12 Q109.233 326.37 112.288 321.786 Q115.367 317.18 121.177 317.18 Z" fill="#000000" fill-rule="evenodd" fill-opacity="1" /><path clip-path="url(#clip780)" d="M51.6634 60.5889 L59.3023 60.5889 L59.3023 34.2233 L50.9921 35.89 L50.9921 31.6308 L59.256 29.9641 L63.9319 29.9641 L63.9319 60.5889 L71.5707 60.5889 L71.5707 64.5241 L51.6634 64.5241 L51.6634 60.5889 Z" fill="#000000" fill-rule="evenodd" fill-opacity="1" /><path clip-path="url(#clip780)" d="M91.0151 33.0428 Q87.404 33.0428 85.5753 36.6076 Q83.7697 40.1492 83.7697 47.2788 Q83.7697 54.3853 85.5753 57.9501 Q87.404 61.4917 91.0151 61.4917 Q94.6493 61.4917 96.4548 57.9501 Q98.2835 54.3853 98.2835 47.2788 Q98.2835 40.1492 96.4548 36.6076 Q94.6493 33.0428 91.0151 33.0428 M91.0151 29.3391 Q96.8252 29.3391 99.8808 33.9456 Q102.959 38.5289 102.959 47.2788 Q102.959 56.0056 99.8808 60.6121 Q96.8252 65.1954 91.0151 65.1954 Q85.2049 65.1954 82.1262 60.6121 Q79.0707 56.0056 79.0707 47.2788 Q79.0707 38.5289 82.1262 33.9456 Q85.2049 29.3391 91.0151 29.3391 Z" fill="#000000" fill-rule="evenodd" fill-opacity="1" /><path clip-path="url(#clip780)" d="M121.177 33.0428 Q117.566 33.0428 115.737 36.6076 Q113.932 40.1492 113.932 47.2788 Q113.932 54.3853 115.737 57.9501 Q117.566 61.4917 121.177 61.4917 Q124.811 61.4917 126.617 57.9501 Q128.445 54.3853 128.445 47.2788 Q128.445 40.1492 126.617 36.6076 Q124.811 33.0428 121.177 33.0428 M121.177 29.3391 Q126.987 29.3391 130.043 33.9456 Q133.121 38.5289 133.121 47.2788 Q133.121 56.0056 130.043 60.6121 Q126.987 65.1954 121.177 65.1954 Q115.367 65.1954 112.288 60.6121 Q109.233 56.0056 109.233 47.2788 Q109.233 38.5289 112.288 33.9456 Q115.367 29.3391 121.177 29.3391 Z" fill="#000000" fill-rule="evenodd" fill-opacity="1" /><polyline clip-path="url(#clip782)" style="stroke:#009af9; stroke-linecap:round; stroke-linejoin:round; stroke-width:16; stroke-opacity:1; fill:none" points="
  169.232,-9244.79 169.343,-4337.74 169.455,-2600.47 169.566,-1697.39 169.677,-1139.4 169.788,-758.444 169.899,-480.797 170.01,-268.888 170.121,-101.493 170.232,34.3049 
  170.343,146.832 170.454,241.704 170.565,322.852 170.676,393.111 170.787,454.578 170.898,508.84 171.009,557.121 171.121,600.379 171.232,639.376 171.343,674.728 
  171.565,736.404 171.787,788.457 172.009,833.023 172.231,871.642 172.453,905.458 172.675,935.333 172.898,961.936 173.12,985.789 173.342,1007.31 173.564,1026.83 
  174.008,1060.91 174.453,1089.71 174.897,1114.4 175.341,1135.81 175.785,1154.58 176.23,1171.18 176.674,1185.97 177.118,1199.25 177.562,1211.23 178.007,1222.11 
  178.895,1241.13 179.784,1257.23 180.672,1271.04 181.561,1283.04 182.005,1288.47 182.449,1293.56 182.894,1298.36 183.338,1302.88 185.392,1320.84 187.446,1335.09 
  189.5,1346.71 191.554,1356.38 195.662,1371.6 199.77,1383.08 203.878,1392.09 207.985,1399.37 212.093,1405.38 216.201,1410.45 224.417,1418.53 232.633,1424.72 
  240.849,1429.63 249.065,1433.64 265.496,1439.81 281.928,1444.36 298.36,1447.88 314.791,1450.69 334.541,1453.42 354.29,1455.63 374.04,1457.47 393.79,1459.03 
  427.185,1461.18 460.581,1462.9 496.859,1464.43 533.136,1465.69 566.581,1466.67 600.025,1467.53 671.737,1469.03 754.823,1470.37 828.659,1471.32 893.407,1472.02 
  964,1472.67 1035.01,1473.24 1113.53,1473.78 1188.23,1474.23 1265.9,1474.64 1331.29,1474.95 1411.12,1475.3 1484.24,1475.58 1551.78,1475.83 1620.2,1476.05 
  1696.87,1476.28 1766.35,1476.48 1845.9,1476.69 1919.55,1476.87 1992.17,1477.03 2062.67,1477.18 2134.94,1477.33 2214.13,1477.47 2329.16,1477.68 2352.76,1477.71 
  
  "/>
<polyline clip-path="url(#clip782)" style="stroke:#e26f46; stroke-linecap:round; stroke-linejoin:round; stroke-width:16; stroke-opacity:1; fill:none" points="
  897.268,1484.63 897.819,1484.33 900.025,1483.82 902.231,1483.53 906.643,1483.12 911.055,1482.8 919.879,1482.29 928.704,1481.86 946.352,1481.1 964,1480.41 
  999.506,1479.11 1035.01,1477.79 1113.53,1474.58 1188.23,1470.74 1265.9,1465.27 1331.29,1458.58 1371.2,1452.86 1411.12,1445.05 1429.4,1440.43 1447.68,1434.86 
  1465.96,1428.02 1484.24,1419.41 1501.13,1409.22 1518.01,1395.81 1526.45,1387.38 1534.9,1377.38 1543.34,1365.31 1551.78,1350.46 1556.06,1341.55 1560.33,1331.45 
  1564.61,1319.93 1568.88,1306.65 1573.16,1291.17 1577.44,1272.91 1581.71,1251.03 1585.99,1224.34 1590.26,1191.05 1594.54,1148.39 1598.82,1091.73 1603.09,1012.83 
  1607.37,895.394 1611.64,702.08 1613.78,549.552 1615.92,324.219 1616.99,165.752 1618.06,-42.391 1619.13,-327.913 1620.2,-743.815 1620.79,-1072.08 1621.39,-1513.22 
  1621.99,-2137.56 1622.59,-3089.12 1623.19,-4716.48 1623.79,-8136 1624.39,-19935.9 1624.99,-93607.1 1625.59,-13292.2 1626.19,-6528.47 1626.78,-4013.41 1627.38,-2700.61 
  1627.98,-1894.29 1628.58,-1348.76 1629.18,-955.097 1629.78,-657.64 1630.98,-237.977 1632.18,43.9114 1633.37,246.305 1634.57,398.675 1636.97,612.829 1639.36,756.141 
  1644.16,935.899 1648.95,1044.09 1653.74,1116.35 1658.53,1168.04 1663.32,1206.84 1668.12,1237.05 1672.91,1261.23 1677.7,1281.02 1682.49,1297.52 1687.29,1311.49 
  1692.08,1323.47 1696.87,1333.85 1705.55,1349.53 1714.24,1362.16 1722.92,1372.56 1731.61,1381.27 1748.98,1395.03 1766.35,1405.42 1786.23,1414.57 1806.12,1421.72 
  1826.01,1427.46 1845.9,1432.17 1882.72,1438.99 1919.55,1444.11 1992.17,1451.22 2062.67,1455.89 2134.94,1459.35 2214.13,1462.18 2329.16,1465.18 2352.76,1465.68 
  
  "/>
<path clip-path="url(#clip780)" d="
M1984.91 250.738 L2279.97 250.738 L2279.97 95.2176 L1984.91 95.2176  Z
  " fill="#ffffff" fill-rule="evenodd" fill-opacity="1"/>
<polyline clip-path="url(#clip780)" style="stroke:#000000; stroke-linecap:round; stroke-linejoin:round; stroke-width:4; stroke-opacity:1; fill:none" points="
  1984.91,250.738 2279.97,250.738 2279.97,95.2176 1984.91,95.2176 1984.91,250.738 
  "/>
<polyline clip-path="url(#clip780)" style="stroke:#009af9; stroke-linecap:round; stroke-linejoin:round; stroke-width:4; stroke-opacity:1; fill:none" points="
  2009.17,147.058 2154.75,147.058 
  "/>
<path clip-path="url(#clip780)" d="M2192.86 166.745 Q2191.05 171.375 2189.34 172.787 Q2187.62 174.199 2184.75 174.199 L2181.35 174.199 L2181.35 170.634 L2183.85 170.634 Q2185.61 170.634 2186.58 169.8 Q2187.55 168.967 2188.73 165.865 L2189.5 163.921 L2179.01 138.412 L2183.53 138.412 L2191.63 158.689 L2199.73 138.412 L2204.24 138.412 L2192.86 166.745 Z" fill="#000000" fill-rule="evenodd" fill-opacity="1" /><path clip-path="url(#clip780)" d="M2211.54 160.402 L2219.17 160.402 L2219.17 134.037 L2210.86 135.703 L2210.86 131.444 L2219.13 129.778 L2223.8 129.778 L2223.8 160.402 L2231.44 160.402 L2231.44 164.338 L2211.54 164.338 L2211.54 160.402 Z" fill="#000000" fill-rule="evenodd" fill-opacity="1" /><polyline clip-path="url(#clip780)" style="stroke:#e26f46; stroke-linecap:round; stroke-linejoin:round; stroke-width:4; stroke-opacity:1; fill:none" points="
  2009.17,198.898 2154.75,198.898 
  "/>
<path clip-path="url(#clip780)" d="M2192.86 218.585 Q2191.05 223.215 2189.34 224.627 Q2187.62 226.039 2184.75 226.039 L2181.35 226.039 L2181.35 222.474 L2183.85 222.474 Q2185.61 222.474 2186.58 221.64 Q2187.55 220.807 2188.73 217.705 L2189.5 215.761 L2179.01 190.252 L2183.53 190.252 L2191.63 210.529 L2199.73 190.252 L2204.24 190.252 L2192.86 218.585 Z" fill="#000000" fill-rule="evenodd" fill-opacity="1" /><path clip-path="url(#clip780)" d="M2214.75 212.242 L2231.07 212.242 L2231.07 216.178 L2209.13 216.178 L2209.13 212.242 Q2211.79 209.488 2216.37 204.858 Q2220.98 200.205 2222.16 198.863 Q2224.41 196.34 2225.29 194.604 Q2226.19 192.844 2226.19 191.155 Q2226.19 188.4 2224.24 186.664 Q2222.32 184.928 2219.22 184.928 Q2217.02 184.928 2214.57 185.692 Q2212.14 186.455 2209.36 188.006 L2209.36 183.284 Q2212.18 182.15 2214.64 181.571 Q2217.09 180.993 2219.13 180.993 Q2224.5 180.993 2227.69 183.678 Q2230.89 186.363 2230.89 190.854 Q2230.89 192.983 2230.08 194.905 Q2229.29 196.803 2227.18 199.395 Q2226.6 200.067 2223.5 203.284 Q2220.4 206.479 2214.75 212.242 Z" fill="#000000" fill-rule="evenodd" fill-opacity="1" /></svg>
