<?xml version="1.0" encoding="utf-8"?>
<svg xmlns="http://www.w3.org/2000/svg" xmlns:xlink="http://www.w3.org/1999/xlink" width="600" height="400" viewBox="0 0 2400 1600">
<defs>
  <clipPath id="clip290">
    <rect x="0" y="0" width="2400" height="1600"/>
  </clipPath>
</defs>
<path clip-path="url(#clip290)" d="
M0 1600 L2400 1600 L2400 0 L0 0  Z
  " fill="#ffffff" fill-rule="evenodd" fill-opacity="1"/>
<defs>
  <clipPath id="clip291">
    <rect x="480" y="0" width="1681" height="1600"/>
  </clipPath>
</defs>
<path clip-path="url(#clip290)" d="
M213.607 1486.45 L2352.76 1486.45 L2352.76 47.2441 L213.607 47.2441  Z
  " fill="#ffffff" fill-rule="evenodd" fill-opacity="1"/>
<defs>
  <clipPath id="clip292">
    <rect x="213" y="47" width="2140" height="1440"/>
  </clipPath>
</defs>
<polyline clip-path="url(#clip292)" style="stroke:#000000; stroke-linecap:round; stroke-linejoin:round; stroke-width:2; stroke-opacity:0.1; fill:none" points="
  552.503,1486.45 552.503,47.2441 
  "/>
<polyline clip-path="url(#clip292)" style="stroke:#000000; stroke-linecap:round; stroke-linejoin:round; stroke-width:2; stroke-opacity:0.1; fill:none" points="
  900.445,1486.45 900.445,47.2441 
  "/>
<polyline clip-path="url(#clip292)" style="stroke:#000000; stroke-linecap:round; stroke-linejoin:round; stroke-width:2; stroke-opacity:0.1; fill:none" points="
  1248.39,1486.45 1248.39,47.2441 
  "/>
<polyline clip-path="url(#clip292)" style="stroke:#000000; stroke-linecap:round; stroke-linejoin:round; stroke-width:2; stroke-opacity:0.1; fill:none" points="
  1596.33,1486.45 1596.33,47.2441 
  "/>
<polyline clip-path="url(#clip292)" style="stroke:#000000; stroke-linecap:round; stroke-linejoin:round; stroke-width:2; stroke-opacity:0.1; fill:none" points="
  1944.27,1486.45 1944.27,47.2441 
  "/>
<polyline clip-path="url(#clip292)" style="stroke:#000000; stroke-linecap:round; stroke-linejoin:round; stroke-width:2; stroke-opacity:0.1; fill:none" points="
  2292.21,1486.45 2292.21,47.2441 
  "/>
<polyline clip-path="url(#clip290)" style="stroke:#000000; stroke-linecap:round; stroke-linejoin:round; stroke-width:4; stroke-opacity:1; fill:none" points="
  213.607,1486.45 2352.76,1486.45 
  "/>
<polyline clip-path="url(#clip290)" style="stroke:#000000; stroke-linecap:round; stroke-linejoin:round; stroke-width:4; stroke-opacity:1; fill:none" points="
  552.503,1486.45 552.503,1467.55 
  "/>
<polyline clip-path="url(#clip290)" style="stroke:#000000; stroke-linecap:round; stroke-linejoin:round; stroke-width:4; stroke-opacity:1; fill:none" points="
  900.445,1486.45 900.445,1467.55 
  "/>
<polyline clip-path="url(#clip290)" style="stroke:#000000; stroke-linecap:round; stroke-linejoin:round; stroke-width:4; stroke-opacity:1; fill:none" points="
  1248.39,1486.45 1248.39,1467.55 
  "/>
<polyline clip-path="url(#clip290)" style="stroke:#000000; stroke-linecap:round; stroke-linejoin:round; stroke-width:4; stroke-opacity:1; fill:none" points="
  1596.33,1486.45 1596.33,1467.55 
  "/>
<polyline clip-path="url(#clip290)" style="stroke:#000000; stroke-linecap:round; stroke-linejoin:round; stroke-width:4; stroke-opacity:1; fill:none" points="
  1944.27,1486.45 1944.27,1467.55 
  "/>
<polyline clip-path="url(#clip290)" style="stroke:#000000; stroke-linecap:round; stroke-linejoin:round; stroke-width:4; stroke-opacity:1; fill:none" points="
  2292.21,1486.45 2292.21,1467.55 
  "/>
<path clip-path="url(#clip290)" d="M542.781 1514.29 L561.137 1514.29 L561.137 1518.22 L547.063 1518.22 L547.063 1526.7 Q548.082 1526.35 549.1 1526.19 Q550.119 1526 551.137 1526 Q556.924 1526 560.304 1529.17 Q563.684 1532.34 563.684 1537.76 Q563.684 1543.34 560.211 1546.44 Q556.739 1549.52 550.42 1549.52 Q548.244 1549.52 545.975 1549.15 Q543.73 1548.78 541.323 1548.04 L541.323 1543.34 Q543.406 1544.47 545.628 1545.03 Q547.85 1545.58 550.327 1545.58 Q554.332 1545.58 556.67 1543.48 Q559.008 1541.37 559.008 1537.76 Q559.008 1534.15 556.67 1532.04 Q554.332 1529.94 550.327 1529.94 Q548.452 1529.94 546.577 1530.35 Q544.725 1530.77 542.781 1531.65 L542.781 1514.29 Z" fill="#000000" fill-rule="evenodd" fill-opacity="1" /><path clip-path="url(#clip290)" d="M875.133 1544.91 L882.772 1544.91 L882.772 1518.55 L874.462 1520.21 L874.462 1515.95 L882.725 1514.29 L887.401 1514.29 L887.401 1544.91 L895.04 1544.91 L895.04 1548.85 L875.133 1548.85 L875.133 1544.91 Z" fill="#000000" fill-rule="evenodd" fill-opacity="1" /><path clip-path="url(#clip290)" d="M914.485 1517.37 Q910.873 1517.37 909.045 1520.93 Q907.239 1524.47 907.239 1531.6 Q907.239 1538.71 909.045 1542.27 Q910.873 1545.82 914.485 1545.82 Q918.119 1545.82 919.924 1542.27 Q921.753 1538.71 921.753 1531.6 Q921.753 1524.47 919.924 1520.93 Q918.119 1517.37 914.485 1517.37 M914.485 1513.66 Q920.295 1513.66 923.35 1518.27 Q926.429 1522.85 926.429 1531.6 Q926.429 1540.33 923.35 1544.94 Q920.295 1549.52 914.485 1549.52 Q908.674 1549.52 905.596 1544.94 Q902.54 1540.33 902.54 1531.6 Q902.54 1522.85 905.596 1518.27 Q908.674 1513.66 914.485 1513.66 Z" fill="#000000" fill-rule="evenodd" fill-opacity="1" /><path clip-path="url(#clip290)" d="M1223.57 1544.91 L1231.21 1544.91 L1231.21 1518.55 L1222.9 1520.21 L1222.9 1515.95 L1231.17 1514.29 L1235.84 1514.29 L1235.84 1544.91 L1243.48 1544.91 L1243.48 1548.85 L1223.57 1548.85 L1223.57 1544.91 Z" fill="#000000" fill-rule="evenodd" fill-opacity="1" /><path clip-path="url(#clip290)" d="M1252.97 1514.29 L1271.33 1514.29 L1271.33 1518.22 L1257.25 1518.22 L1257.25 1526.7 Q1258.27 1526.35 1259.29 1526.19 Q1260.31 1526 1261.33 1526 Q1267.11 1526 1270.49 1529.17 Q1273.87 1532.34 1273.87 1537.76 Q1273.87 1543.34 1270.4 1546.44 Q1266.93 1549.52 1260.61 1549.52 Q1258.43 1549.52 1256.17 1549.15 Q1253.92 1548.78 1251.51 1548.04 L1251.51 1543.34 Q1253.6 1544.47 1255.82 1545.03 Q1258.04 1545.58 1260.52 1545.58 Q1264.52 1545.58 1266.86 1543.48 Q1269.2 1541.37 1269.2 1537.76 Q1269.2 1534.15 1266.86 1532.04 Q1264.52 1529.94 1260.52 1529.94 Q1258.64 1529.94 1256.77 1530.35 Q1254.92 1530.77 1252.97 1531.65 L1252.97 1514.29 Z" fill="#000000" fill-rule="evenodd" fill-opacity="1" /><path clip-path="url(#clip290)" d="M1575.1 1544.91 L1591.42 1544.91 L1591.42 1548.85 L1569.48 1548.85 L1569.48 1544.91 Q1572.14 1542.16 1576.72 1537.53 Q1581.33 1532.88 1582.51 1531.53 Q1584.76 1529.01 1585.64 1527.27 Q1586.54 1525.51 1586.54 1523.82 Q1586.54 1521.07 1584.59 1519.33 Q1582.67 1517.6 1579.57 1517.6 Q1577.37 1517.6 1574.92 1518.36 Q1572.49 1519.13 1569.71 1520.68 L1569.71 1515.95 Q1572.53 1514.82 1574.99 1514.24 Q1577.44 1513.66 1579.48 1513.66 Q1584.85 1513.66 1588.04 1516.35 Q1591.24 1519.03 1591.24 1523.52 Q1591.24 1525.65 1590.43 1527.57 Q1589.64 1529.47 1587.53 1532.07 Q1586.95 1532.74 1583.85 1535.95 Q1580.75 1539.15 1575.1 1544.91 Z" fill="#000000" fill-rule="evenodd" fill-opacity="1" /><path clip-path="url(#clip290)" d="M1611.24 1517.37 Q1607.63 1517.37 1605.8 1520.93 Q1603.99 1524.47 1603.99 1531.6 Q1603.99 1538.71 1605.8 1542.27 Q1607.63 1545.82 1611.24 1545.82 Q1614.87 1545.82 1616.68 1542.27 Q1618.51 1538.71 1618.51 1531.6 Q1618.51 1524.47 1616.68 1520.93 Q1614.87 1517.37 1611.24 1517.37 M1611.24 1513.66 Q1617.05 1513.66 1620.1 1518.27 Q1623.18 1522.85 1623.18 1531.6 Q1623.18 1540.33 1620.1 1544.94 Q1617.05 1549.52 1611.24 1549.52 Q1605.43 1549.52 1602.35 1544.94 Q1599.29 1540.33 1599.29 1531.6 Q1599.29 1522.85 1602.35 1518.27 Q1605.43 1513.66 1611.24 1513.66 Z" fill="#000000" fill-rule="evenodd" fill-opacity="1" /><path clip-path="url(#clip290)" d="M1923.54 1544.91 L1939.86 1544.91 L1939.86 1548.85 L1917.92 1548.85 L1917.92 1544.91 Q1920.58 1542.16 1925.16 1537.53 Q1929.77 1532.88 1930.95 1531.53 Q1933.2 1529.01 1934.08 1527.27 Q1934.98 1525.51 1934.98 1523.82 Q1934.98 1521.07 1933.03 1519.33 Q1931.11 1517.6 1928.01 1517.6 Q1925.81 1517.6 1923.36 1518.36 Q1920.93 1519.13 1918.15 1520.68 L1918.15 1515.95 Q1920.97 1514.82 1923.43 1514.24 Q1925.88 1513.66 1927.92 1513.66 Q1933.29 1513.66 1936.48 1516.35 Q1939.68 1519.03 1939.68 1523.52 Q1939.68 1525.65 1938.87 1527.57 Q1938.08 1529.47 1935.97 1532.07 Q1935.39 1532.74 1932.29 1535.95 Q1929.19 1539.15 1923.54 1544.91 Z" fill="#000000" fill-rule="evenodd" fill-opacity="1" /><path clip-path="url(#clip290)" d="M1949.72 1514.29 L1968.08 1514.29 L1968.08 1518.22 L1954.01 1518.22 L1954.01 1526.7 Q1955.02 1526.35 1956.04 1526.19 Q1957.06 1526 1958.08 1526 Q1963.87 1526 1967.25 1529.17 Q1970.63 1532.34 1970.63 1537.76 Q1970.63 1543.34 1967.15 1546.44 Q1963.68 1549.52 1957.36 1549.52 Q1955.19 1549.52 1952.92 1549.15 Q1950.67 1548.78 1948.26 1548.04 L1948.26 1543.34 Q1950.35 1544.47 1952.57 1545.03 Q1954.79 1545.58 1957.27 1545.58 Q1961.27 1545.58 1963.61 1543.48 Q1965.95 1541.37 1965.95 1537.76 Q1965.95 1534.15 1963.61 1532.04 Q1961.27 1529.94 1957.27 1529.94 Q1955.39 1529.94 1953.52 1530.35 Q1951.67 1530.77 1949.72 1531.65 L1949.72 1514.29 Z" fill="#000000" fill-rule="evenodd" fill-opacity="1" /><path clip-path="url(#clip290)" d="M2281.06 1530.21 Q2284.41 1530.93 2286.29 1533.2 Q2288.19 1535.47 2288.19 1538.8 Q2288.19 1543.92 2284.67 1546.72 Q2281.15 1549.52 2274.67 1549.52 Q2272.49 1549.52 2270.18 1549.08 Q2267.89 1548.66 2265.43 1547.81 L2265.43 1543.29 Q2267.38 1544.43 2269.69 1545.01 Q2272.01 1545.58 2274.53 1545.58 Q2278.93 1545.58 2281.22 1543.85 Q2283.53 1542.11 2283.53 1538.8 Q2283.53 1535.75 2281.38 1534.03 Q2279.25 1532.3 2275.43 1532.3 L2271.4 1532.3 L2271.4 1528.45 L2275.62 1528.45 Q2279.07 1528.45 2280.89 1527.09 Q2282.72 1525.7 2282.72 1523.11 Q2282.72 1520.45 2280.83 1519.03 Q2278.95 1517.6 2275.43 1517.6 Q2273.51 1517.6 2271.31 1518.01 Q2269.11 1518.43 2266.47 1519.31 L2266.47 1515.14 Q2269.14 1514.4 2271.45 1514.03 Q2273.79 1513.66 2275.85 1513.66 Q2281.17 1513.66 2284.27 1516.09 Q2287.38 1518.5 2287.38 1522.62 Q2287.38 1525.49 2285.73 1527.48 Q2284.09 1529.45 2281.06 1530.21 Z" fill="#000000" fill-rule="evenodd" fill-opacity="1" /><path clip-path="url(#clip290)" d="M2307.05 1517.37 Q2303.44 1517.37 2301.61 1520.93 Q2299.81 1524.47 2299.81 1531.6 Q2299.81 1538.71 2301.61 1542.27 Q2303.44 1545.82 2307.05 1545.82 Q2310.69 1545.82 2312.49 1542.27 Q2314.32 1538.71 2314.32 1531.6 Q2314.32 1524.47 2312.49 1520.93 Q2310.69 1517.37 2307.05 1517.37 M2307.05 1513.66 Q2312.86 1513.66 2315.92 1518.27 Q2319 1522.85 2319 1531.6 Q2319 1540.33 2315.92 1544.94 Q2312.86 1549.52 2307.05 1549.52 Q2301.24 1549.52 2298.16 1544.94 Q2295.11 1540.33 2295.11 1531.6 Q2295.11 1522.85 2298.16 1518.27 Q2301.24 1513.66 2307.05 1513.66 Z" fill="#000000" fill-rule="evenodd" fill-opacity="1" /><polyline clip-path="url(#clip292)" style="stroke:#000000; stroke-linecap:round; stroke-linejoin:round; stroke-width:2; stroke-opacity:0.1; fill:none" points="
  213.607,1029.88 2352.76,1029.88 
  "/>
<polyline clip-path="url(#clip292)" style="stroke:#000000; stroke-linecap:round; stroke-linejoin:round; stroke-width:2; stroke-opacity:0.1; fill:none" points="
  213.607,222.033 2352.76,222.033 
  "/>
<polyline clip-path="url(#clip290)" style="stroke:#000000; stroke-linecap:round; stroke-linejoin:round; stroke-width:4; stroke-opacity:1; fill:none" points="
  213.607,1486.45 213.607,47.2441 
  "/>
<polyline clip-path="url(#clip290)" style="stroke:#000000; stroke-linecap:round; stroke-linejoin:round; stroke-width:4; stroke-opacity:1; fill:none" points="
  213.607,1029.88 232.505,1029.88 
  "/>
<polyline clip-path="url(#clip290)" style="stroke:#000000; stroke-linecap:round; stroke-linejoin:round; stroke-width:4; stroke-opacity:1; fill:none" points="
  213.607,222.033 232.505,222.033 
  "/>
<path clip-path="url(#clip290)" d="M51.6634 1049.67 L59.3023 1049.67 L59.3023 1023.31 L50.9921 1024.98 L50.9921 1020.72 L59.256 1019.05 L63.9319 1019.05 L63.9319 1049.67 L71.5707 1049.67 L71.5707 1053.61 L51.6634 1053.61 L51.6634 1049.67 Z" fill="#000000" fill-rule="evenodd" fill-opacity="1" /><path clip-path="url(#clip290)" d="M91.0151 1022.13 Q87.404 1022.13 85.5753 1025.69 Q83.7697 1029.23 83.7697 1036.36 Q83.7697 1043.47 85.5753 1047.04 Q87.404 1050.58 91.0151 1050.58 Q94.6493 1050.58 96.4548 1047.04 Q98.2835 1043.47 98.2835 1036.36 Q98.2835 1029.23 96.4548 1025.69 Q94.6493 1022.13 91.0151 1022.13 M91.0151 1018.42 Q96.8252 1018.42 99.8808 1023.03 Q102.959 1027.61 102.959 1036.36 Q102.959 1045.09 99.8808 1049.7 Q96.8252 1054.28 91.0151 1054.28 Q85.2049 1054.28 82.1262 1049.7 Q79.0707 1045.09 79.0707 1036.36 Q79.0707 1027.61 82.1262 1023.03 Q85.2049 1018.42 91.0151 1018.42 Z" fill="#000000" fill-rule="evenodd" fill-opacity="1" /><path clip-path="url(#clip290)" d="M102.959 1012.53 L127.071 1012.53 L127.071 1015.72 L102.959 1015.72 L102.959 1012.53 Z" fill="#000000" fill-rule="evenodd" fill-opacity="1" /><path clip-path="url(#clip290)" d="M135.929 1023 L142.136 1023 L142.136 1001.58 L135.384 1002.93 L135.384 999.473 L142.098 998.119 L145.898 998.119 L145.898 1023 L152.104 1023 L152.104 1026.2 L135.929 1026.2 L135.929 1023 Z" fill="#000000" fill-rule="evenodd" fill-opacity="1" /><path clip-path="url(#clip290)" d="M167.903 1000.62 Q164.969 1000.62 163.483 1003.52 Q162.016 1006.39 162.016 1012.19 Q162.016 1017.96 163.483 1020.86 Q164.969 1023.74 167.903 1023.74 Q170.855 1023.74 172.322 1020.86 Q173.808 1017.96 173.808 1012.19 Q173.808 1006.39 172.322 1003.52 Q170.855 1000.62 167.903 1000.62 M167.903 997.611 Q172.623 997.611 175.106 1001.35 Q177.607 1005.08 177.607 1012.19 Q177.607 1019.28 175.106 1023.02 Q172.623 1026.74 167.903 1026.74 Q163.182 1026.74 160.68 1023.02 Q158.198 1019.28 158.198 1012.19 Q158.198 1005.08 160.68 1001.35 Q163.182 997.611 167.903 997.611 Z" fill="#000000" fill-rule="evenodd" fill-opacity="1" /><path clip-path="url(#clip290)" d="M106.902 241.826 L114.541 241.826 L114.541 215.46 L106.231 217.127 L106.231 212.868 L114.494 211.201 L119.17 211.201 L119.17 241.826 L126.809 241.826 L126.809 245.761 L106.902 245.761 L106.902 241.826 Z" fill="#000000" fill-rule="evenodd" fill-opacity="1" /><path clip-path="url(#clip290)" d="M146.253 214.28 Q142.642 214.28 140.814 217.845 Q139.008 221.386 139.008 228.516 Q139.008 235.622 140.814 239.187 Q142.642 242.729 146.253 242.729 Q149.888 242.729 151.693 239.187 Q153.522 235.622 153.522 228.516 Q153.522 221.386 151.693 217.845 Q149.888 214.28 146.253 214.28 M146.253 210.576 Q152.064 210.576 155.119 215.182 Q158.198 219.766 158.198 228.516 Q158.198 237.243 155.119 241.849 Q152.064 246.432 146.253 246.432 Q140.443 246.432 137.365 241.849 Q134.309 237.243 134.309 228.516 Q134.309 219.766 137.365 215.182 Q140.443 210.576 146.253 210.576 Z" fill="#000000" fill-rule="evenodd" fill-opacity="1" /><path clip-path="url(#clip290)" d="M167.903 192.772 Q164.969 192.772 163.483 195.668 Q162.016 198.546 162.016 204.339 Q162.016 210.113 163.483 213.009 Q164.969 215.887 167.903 215.887 Q170.855 215.887 172.322 213.009 Q173.808 210.113 173.808 204.339 Q173.808 198.546 172.322 195.668 Q170.855 192.772 167.903 192.772 M167.903 189.763 Q172.623 189.763 175.106 193.506 Q177.607 197.23 177.607 204.339 Q177.607 211.429 175.106 215.172 Q172.623 218.896 167.903 218.896 Q163.182 218.896 160.68 215.172 Q158.198 211.429 158.198 204.339 Q158.198 197.23 160.68 193.506 Q163.182 189.763 167.903 189.763 Z" fill="#000000" fill-rule="evenodd" fill-opacity="1" /><circle clip-path="url(#clip292)" cx="274.149" cy="87.9763" r="14.4" fill="#009af9" fill-rule="evenodd" fill-opacity="1" stroke="#000000" stroke-opacity="1" stroke-width="3.2"/>
<circle clip-path="url(#clip292)" cx="343.738" cy="107.817" r="14.4" fill="#009af9" fill-rule="evenodd" fill-opacity="1" stroke="#000000" stroke-opacity="1" stroke-width="3.2"/>
<circle clip-path="url(#clip292)" cx="413.326" cy="170.308" r="14.4" fill="#009af9" fill-rule="evenodd" fill-opacity="1" stroke="#000000" stroke-opacity="1" stroke-width="3.2"/>
<circle clip-path="url(#clip292)" cx="482.915" cy="171.351" r="14.4" fill="#009af9" fill-rule="evenodd" fill-opacity="1" stroke="#000000" stroke-opacity="1" stroke-width="3.2"/>
<circle clip-path="url(#clip292)" cx="552.503" cy="172.119" r="14.4" fill="#009af9" fill-rule="evenodd" fill-opacity="1" stroke="#000000" stroke-opacity="1" stroke-width="3.2"/>
<circle clip-path="url(#clip292)" cx="622.092" cy="172.12" r="14.4" fill="#009af9" fill-rule="evenodd" fill-opacity="1" stroke="#000000" stroke-opacity="1" stroke-width="3.2"/>
<circle clip-path="url(#clip292)" cx="691.68" cy="172.12" r="14.4" fill="#009af9" fill-rule="evenodd" fill-opacity="1" stroke="#000000" stroke-opacity="1" stroke-width="3.2"/>
<circle clip-path="url(#clip292)" cx="761.268" cy="172.12" r="14.4" fill="#009af9" fill-rule="evenodd" fill-opacity="1" stroke="#000000" stroke-opacity="1" stroke-width="3.2"/>
<circle clip-path="url(#clip292)" cx="830.857" cy="172.12" r="14.4" fill="#009af9" fill-rule="evenodd" fill-opacity="1" stroke="#000000" stroke-opacity="1" stroke-width="3.2"/>
<circle clip-path="url(#clip292)" cx="900.445" cy="172.12" r="14.4" fill="#009af9" fill-rule="evenodd" fill-opacity="1" stroke="#000000" stroke-opacity="1" stroke-width="3.2"/>
<circle clip-path="url(#clip292)" cx="970.034" cy="172.12" r="14.4" fill="#009af9" fill-rule="evenodd" fill-opacity="1" stroke="#000000" stroke-opacity="1" stroke-width="3.2"/>
<circle clip-path="url(#clip292)" cx="1039.62" cy="172.12" r="14.4" fill="#009af9" fill-rule="evenodd" fill-opacity="1" stroke="#000000" stroke-opacity="1" stroke-width="3.2"/>
<circle clip-path="url(#clip292)" cx="1109.21" cy="172.12" r="14.4" fill="#009af9" fill-rule="evenodd" fill-opacity="1" stroke="#000000" stroke-opacity="1" stroke-width="3.2"/>
<circle clip-path="url(#clip292)" cx="1178.8" cy="172.12" r="14.4" fill="#009af9" fill-rule="evenodd" fill-opacity="1" stroke="#000000" stroke-opacity="1" stroke-width="3.2"/>
<circle clip-path="url(#clip292)" cx="1248.39" cy="172.14" r="14.4" fill="#009af9" fill-rule="evenodd" fill-opacity="1" stroke="#000000" stroke-opacity="1" stroke-width="3.2"/>
<circle clip-path="url(#clip292)" cx="1317.98" cy="172.173" r="14.4" fill="#009af9" fill-rule="evenodd" fill-opacity="1" stroke="#000000" stroke-opacity="1" stroke-width="3.2"/>
<circle clip-path="url(#clip292)" cx="1387.56" cy="176.728" r="14.4" fill="#009af9" fill-rule="evenodd" fill-opacity="1" stroke="#000000" stroke-opacity="1" stroke-width="3.2"/>
<circle clip-path="url(#clip292)" cx="1457.15" cy="177.346" r="14.4" fill="#009af9" fill-rule="evenodd" fill-opacity="1" stroke="#000000" stroke-opacity="1" stroke-width="3.2"/>
<circle clip-path="url(#clip292)" cx="1526.74" cy="211.075" r="14.4" fill="#009af9" fill-rule="evenodd" fill-opacity="1" stroke="#000000" stroke-opacity="1" stroke-width="3.2"/>
<circle clip-path="url(#clip292)" cx="1596.33" cy="212.252" r="14.4" fill="#009af9" fill-rule="evenodd" fill-opacity="1" stroke="#000000" stroke-opacity="1" stroke-width="3.2"/>
<circle clip-path="url(#clip292)" cx="1665.92" cy="1394.59" r="14.4" fill="#009af9" fill-rule="evenodd" fill-opacity="1" stroke="#000000" stroke-opacity="1" stroke-width="3.2"/>
<circle clip-path="url(#clip292)" cx="1735.51" cy="1396.65" r="14.4" fill="#009af9" fill-rule="evenodd" fill-opacity="1" stroke="#000000" stroke-opacity="1" stroke-width="3.2"/>
<circle clip-path="url(#clip292)" cx="1805.09" cy="1402.27" r="14.4" fill="#009af9" fill-rule="evenodd" fill-opacity="1" stroke="#000000" stroke-opacity="1" stroke-width="3.2"/>
<circle clip-path="url(#clip292)" cx="1874.68" cy="1406.36" r="14.4" fill="#009af9" fill-rule="evenodd" fill-opacity="1" stroke="#000000" stroke-opacity="1" stroke-width="3.2"/>
<circle clip-path="url(#clip292)" cx="1944.27" cy="1407.62" r="14.4" fill="#009af9" fill-rule="evenodd" fill-opacity="1" stroke="#000000" stroke-opacity="1" stroke-width="3.2"/>
<circle clip-path="url(#clip292)" cx="2013.86" cy="1412.93" r="14.4" fill="#009af9" fill-rule="evenodd" fill-opacity="1" stroke="#000000" stroke-opacity="1" stroke-width="3.2"/>
<circle clip-path="url(#clip292)" cx="2083.45" cy="1424.22" r="14.4" fill="#009af9" fill-rule="evenodd" fill-opacity="1" stroke="#000000" stroke-opacity="1" stroke-width="3.2"/>
<circle clip-path="url(#clip292)" cx="2153.04" cy="1427.27" r="14.4" fill="#009af9" fill-rule="evenodd" fill-opacity="1" stroke="#000000" stroke-opacity="1" stroke-width="3.2"/>
<circle clip-path="url(#clip292)" cx="2222.63" cy="1435.46" r="14.4" fill="#009af9" fill-rule="evenodd" fill-opacity="1" stroke="#000000" stroke-opacity="1" stroke-width="3.2"/>
<circle clip-path="url(#clip292)" cx="2292.21" cy="1445.72" r="14.4" fill="#009af9" fill-rule="evenodd" fill-opacity="1" stroke="#000000" stroke-opacity="1" stroke-width="3.2"/>
<path clip-path="url(#clip290)" d="
M1965.12 250.738 L2281.45 250.738 L2281.45 95.2176 L1965.12 95.2176  Z
  " fill="#ffffff" fill-rule="evenodd" fill-opacity="1"/>
<polyline clip-path="url(#clip290)" style="stroke:#000000; stroke-linecap:round; stroke-linejoin:round; stroke-width:4; stroke-opacity:1; fill:none" points="
  1965.12,250.738 2281.45,250.738 2281.45,95.2176 1965.12,95.2176 1965.12,250.738 
  "/>
<circle clip-path="url(#clip290)" cx="2060.2" cy="172.978" r="34.56" fill="#009af9" fill-rule="evenodd" fill-opacity="1" stroke="#000000" stroke-opacity="1" stroke-width="7.68"/>
<path clip-path="url(#clip290)" d="M2176.03 202.509 Q2173.32 209.453 2170.75 211.571 Q2168.19 213.689 2163.88 213.689 L2158.78 213.689 L2158.78 208.342 L2162.53 208.342 Q2165.16 208.342 2166.62 207.092 Q2168.08 205.842 2169.85 201.189 L2171 198.273 L2155.27 160.009 L2162.04 160.009 L2174.19 190.425 L2186.35 160.009 L2193.12 160.009 L2176.03 202.509 Z" fill="#000000" fill-rule="evenodd" fill-opacity="1" /><path clip-path="url(#clip290)" d="M2204.05 192.995 L2215.51 192.995 L2215.51 153.446 L2203.05 155.946 L2203.05 149.558 L2215.44 147.058 L2222.46 147.058 L2222.46 192.995 L2233.91 192.995 L2233.91 198.898 L2204.05 198.898 L2204.05 192.995 Z" fill="#000000" fill-rule="evenodd" fill-opacity="1" /></svg>
