<?xml version="1.0" encoding="utf-8"?>
<svg xmlns="http://www.w3.org/2000/svg" xmlns:xlink="http://www.w3.org/1999/xlink" width="600" height="400" viewBox="0 0 2400 1600">
<defs>
  <clipPath id="clip970">
    <rect x="0" y="0" width="2400" height="1600"/>
  </clipPath>
</defs>
<path clip-path="url(#clip970)" d="
M0 1600 L2400 1600 L2400 0 L0 0  Z
  " fill="#ffffff" fill-rule="evenodd" fill-opacity="1"/>
<defs>
  <clipPath id="clip971">
    <rect x="480" y="0" width="1681" height="1600"/>
  </clipPath>
</defs>
<defs>
  <clipPath id="clip972">
    <rect x="193" y="47" width="2160" height="1440"/>
  </clipPath>
</defs>
<path clip-path="url(#clip970)" d="
M276.876 1423.18 L2352.76 1423.18 L2352.76 47.2441 L276.876 47.2441  Z
  " fill="#ffffff" fill-rule="evenodd" fill-opacity="1"/>
<defs>
  <clipPath id="clip973">
    <rect x="276" y="47" width="2077" height="1377"/>
  </clipPath>
</defs>
<polyline clip-path="url(#clip973)" style="stroke:#000000; stroke-linecap:round; stroke-linejoin:round; stroke-width:2; stroke-opacity:0.1; fill:none" points="
  480.692,1423.18 480.692,47.2441 
  "/>
<polyline clip-path="url(#clip973)" style="stroke:#000000; stroke-linecap:round; stroke-linejoin:round; stroke-width:2; stroke-opacity:0.1; fill:none" points="
  843.354,1423.18 843.354,47.2441 
  "/>
<polyline clip-path="url(#clip973)" style="stroke:#000000; stroke-linecap:round; stroke-linejoin:round; stroke-width:2; stroke-opacity:0.1; fill:none" points="
  1206.02,1423.18 1206.02,47.2441 
  "/>
<polyline clip-path="url(#clip973)" style="stroke:#000000; stroke-linecap:round; stroke-linejoin:round; stroke-width:2; stroke-opacity:0.1; fill:none" points="
  1568.68,1423.18 1568.68,47.2441 
  "/>
<polyline clip-path="url(#clip973)" style="stroke:#000000; stroke-linecap:round; stroke-linejoin:round; stroke-width:2; stroke-opacity:0.1; fill:none" points="
  1931.34,1423.18 1931.34,47.2441 
  "/>
<polyline clip-path="url(#clip973)" style="stroke:#000000; stroke-linecap:round; stroke-linejoin:round; stroke-width:2; stroke-opacity:0.1; fill:none" points="
  2294,1423.18 2294,47.2441 
  "/>
<polyline clip-path="url(#clip970)" style="stroke:#000000; stroke-linecap:round; stroke-linejoin:round; stroke-width:4; stroke-opacity:1; fill:none" points="
  276.876,1423.18 2352.76,1423.18 
  "/>
<polyline clip-path="url(#clip970)" style="stroke:#000000; stroke-linecap:round; stroke-linejoin:round; stroke-width:4; stroke-opacity:1; fill:none" points="
  480.692,1423.18 480.692,1404.28 
  "/>
<polyline clip-path="url(#clip970)" style="stroke:#000000; stroke-linecap:round; stroke-linejoin:round; stroke-width:4; stroke-opacity:1; fill:none" points="
  843.354,1423.18 843.354,1404.28 
  "/>
<polyline clip-path="url(#clip970)" style="stroke:#000000; stroke-linecap:round; stroke-linejoin:round; stroke-width:4; stroke-opacity:1; fill:none" points="
  1206.02,1423.18 1206.02,1404.28 
  "/>
<polyline clip-path="url(#clip970)" style="stroke:#000000; stroke-linecap:round; stroke-linejoin:round; stroke-width:4; stroke-opacity:1; fill:none" points="
  1568.68,1423.18 1568.68,1404.28 
  "/>
<polyline clip-path="url(#clip970)" style="stroke:#000000; stroke-linecap:round; stroke-linejoin:round; stroke-width:4; stroke-opacity:1; fill:none" points="
  1931.34,1423.18 1931.34,1404.28 
  "/>
<polyline clip-path="url(#clip970)" style="stroke:#000000; stroke-linecap:round; stroke-linejoin:round; stroke-width:4; stroke-opacity:1; fill:none" points="
  2294,1423.18 2294,1404.28 
  "/>
<path clip-path="url(#clip970)" d="M470.97 1451.02 L489.326 1451.02 L489.326 1454.96 L475.252 1454.96 L475.252 1463.43 Q476.271 1463.08 477.289 1462.92 Q478.308 1462.73 479.326 1462.73 Q485.113 1462.73 488.493 1465.9 Q491.872 1469.08 491.872 1474.49 Q491.872 1480.07 488.4 1483.17 Q484.928 1486.25 478.609 1486.25 Q476.433 1486.25 474.164 1485.88 Q471.919 1485.51 469.511 1484.77 L469.511 1480.07 Q471.595 1481.2 473.817 1481.76 Q476.039 1482.32 478.516 1482.32 Q482.521 1482.32 484.859 1480.21 Q487.196 1478.1 487.196 1474.49 Q487.196 1470.88 484.859 1468.77 Q482.521 1466.67 478.516 1466.67 Q476.641 1466.67 474.766 1467.08 Q472.914 1467.5 470.97 1468.38 L470.97 1451.02 Z" fill="#000000" fill-rule="evenodd" fill-opacity="1" /><path clip-path="url(#clip970)" d="M818.042 1481.64 L825.681 1481.64 L825.681 1455.28 L817.371 1456.95 L817.371 1452.69 L825.635 1451.02 L830.31 1451.02 L830.31 1481.64 L837.949 1481.64 L837.949 1485.58 L818.042 1485.58 L818.042 1481.64 Z" fill="#000000" fill-rule="evenodd" fill-opacity="1" /><path clip-path="url(#clip970)" d="M857.394 1454.1 Q853.783 1454.1 851.954 1457.66 Q850.148 1461.2 850.148 1468.33 Q850.148 1475.44 851.954 1479.01 Q853.783 1482.55 857.394 1482.55 Q861.028 1482.55 862.833 1479.01 Q864.662 1475.44 864.662 1468.33 Q864.662 1461.2 862.833 1457.66 Q861.028 1454.1 857.394 1454.1 M857.394 1450.39 Q863.204 1450.39 866.259 1455 Q869.338 1459.58 869.338 1468.33 Q869.338 1477.06 866.259 1481.67 Q863.204 1486.25 857.394 1486.25 Q851.584 1486.25 848.505 1481.67 Q845.449 1477.06 845.449 1468.33 Q845.449 1459.58 848.505 1455 Q851.584 1450.39 857.394 1450.39 Z" fill="#000000" fill-rule="evenodd" fill-opacity="1" /><path clip-path="url(#clip970)" d="M1181.2 1481.64 L1188.84 1481.64 L1188.84 1455.28 L1180.53 1456.95 L1180.53 1452.69 L1188.79 1451.02 L1193.47 1451.02 L1193.47 1481.64 L1201.11 1481.64 L1201.11 1485.58 L1181.2 1485.58 L1181.2 1481.64 Z" fill="#000000" fill-rule="evenodd" fill-opacity="1" /><path clip-path="url(#clip970)" d="M1210.6 1451.02 L1228.96 1451.02 L1228.96 1454.96 L1214.88 1454.96 L1214.88 1463.43 Q1215.9 1463.08 1216.92 1462.92 Q1217.94 1462.73 1218.96 1462.73 Q1224.74 1462.73 1228.12 1465.9 Q1231.5 1469.08 1231.5 1474.49 Q1231.5 1480.07 1228.03 1483.17 Q1224.56 1486.25 1218.24 1486.25 Q1216.06 1486.25 1213.79 1485.88 Q1211.55 1485.51 1209.14 1484.77 L1209.14 1480.07 Q1211.23 1481.2 1213.45 1481.76 Q1215.67 1482.32 1218.15 1482.32 Q1222.15 1482.32 1224.49 1480.21 Q1226.83 1478.1 1226.83 1474.49 Q1226.83 1470.88 1224.49 1468.77 Q1222.15 1466.67 1218.15 1466.67 Q1216.27 1466.67 1214.4 1467.08 Q1212.54 1467.5 1210.6 1468.38 L1210.6 1451.02 Z" fill="#000000" fill-rule="evenodd" fill-opacity="1" /><path clip-path="url(#clip970)" d="M1547.45 1481.64 L1563.77 1481.64 L1563.77 1485.58 L1541.83 1485.58 L1541.83 1481.64 Q1544.49 1478.89 1549.07 1474.26 Q1553.68 1469.61 1554.86 1468.27 Q1557.11 1465.74 1557.99 1464.01 Q1558.89 1462.25 1558.89 1460.56 Q1558.89 1457.8 1556.94 1456.07 Q1555.02 1454.33 1551.92 1454.33 Q1549.72 1454.33 1547.27 1455.09 Q1544.84 1455.86 1542.06 1457.41 L1542.06 1452.69 Q1544.88 1451.55 1547.34 1450.97 Q1549.79 1450.39 1551.83 1450.39 Q1557.2 1450.39 1560.39 1453.08 Q1563.59 1455.77 1563.59 1460.26 Q1563.59 1462.39 1562.78 1464.31 Q1561.99 1466.2 1559.88 1468.8 Q1559.3 1469.47 1556.2 1472.69 Q1553.1 1475.88 1547.45 1481.64 Z" fill="#000000" fill-rule="evenodd" fill-opacity="1" /><path clip-path="url(#clip970)" d="M1583.59 1454.1 Q1579.98 1454.1 1578.15 1457.66 Q1576.34 1461.2 1576.34 1468.33 Q1576.34 1475.44 1578.15 1479.01 Q1579.98 1482.55 1583.59 1482.55 Q1587.22 1482.55 1589.03 1479.01 Q1590.86 1475.44 1590.86 1468.33 Q1590.86 1461.2 1589.03 1457.66 Q1587.22 1454.1 1583.59 1454.1 M1583.59 1450.39 Q1589.4 1450.39 1592.45 1455 Q1595.53 1459.58 1595.53 1468.33 Q1595.53 1477.06 1592.45 1481.67 Q1589.4 1486.25 1583.59 1486.25 Q1577.78 1486.25 1574.7 1481.67 Q1571.64 1477.06 1571.64 1468.33 Q1571.64 1459.58 1574.7 1455 Q1577.78 1450.39 1583.59 1450.39 Z" fill="#000000" fill-rule="evenodd" fill-opacity="1" /><path clip-path="url(#clip970)" d="M1910.61 1481.64 L1926.93 1481.64 L1926.93 1485.58 L1904.99 1485.58 L1904.99 1481.64 Q1907.65 1478.89 1912.23 1474.26 Q1916.84 1469.61 1918.02 1468.27 Q1920.27 1465.74 1921.15 1464.01 Q1922.05 1462.25 1922.05 1460.56 Q1922.05 1457.8 1920.1 1456.07 Q1918.18 1454.33 1915.08 1454.33 Q1912.88 1454.33 1910.43 1455.09 Q1908 1455.86 1905.22 1457.41 L1905.22 1452.69 Q1908.04 1451.55 1910.5 1450.97 Q1912.95 1450.39 1914.99 1450.39 Q1920.36 1450.39 1923.55 1453.08 Q1926.75 1455.77 1926.75 1460.26 Q1926.75 1462.39 1925.94 1464.31 Q1925.15 1466.2 1923.04 1468.8 Q1922.46 1469.47 1919.36 1472.69 Q1916.26 1475.88 1910.61 1481.64 Z" fill="#000000" fill-rule="evenodd" fill-opacity="1" /><path clip-path="url(#clip970)" d="M1936.79 1451.02 L1955.15 1451.02 L1955.15 1454.96 L1941.08 1454.96 L1941.08 1463.43 Q1942.09 1463.08 1943.11 1462.92 Q1944.13 1462.73 1945.15 1462.73 Q1950.94 1462.73 1954.32 1465.9 Q1957.7 1469.08 1957.7 1474.49 Q1957.7 1480.07 1954.22 1483.17 Q1950.75 1486.25 1944.43 1486.25 Q1942.26 1486.25 1939.99 1485.88 Q1937.74 1485.51 1935.34 1484.77 L1935.34 1480.07 Q1937.42 1481.2 1939.64 1481.76 Q1941.86 1482.32 1944.34 1482.32 Q1948.34 1482.32 1950.68 1480.21 Q1953.02 1478.1 1953.02 1474.49 Q1953.02 1470.88 1950.68 1468.77 Q1948.34 1466.67 1944.34 1466.67 Q1942.46 1466.67 1940.59 1467.08 Q1938.74 1467.5 1936.79 1468.38 L1936.79 1451.02 Z" fill="#000000" fill-rule="evenodd" fill-opacity="1" /><path clip-path="url(#clip970)" d="M2282.85 1466.95 Q2286.2 1467.66 2288.08 1469.93 Q2289.98 1472.2 2289.98 1475.53 Q2289.98 1480.65 2286.46 1483.45 Q2282.94 1486.25 2276.46 1486.25 Q2274.28 1486.25 2271.97 1485.81 Q2269.68 1485.39 2267.22 1484.54 L2267.22 1480.02 Q2269.17 1481.16 2271.48 1481.74 Q2273.8 1482.32 2276.32 1482.32 Q2280.72 1482.32 2283.01 1480.58 Q2285.32 1478.84 2285.32 1475.53 Q2285.32 1472.48 2283.17 1470.77 Q2281.04 1469.03 2277.22 1469.03 L2273.19 1469.03 L2273.19 1465.19 L2277.41 1465.19 Q2280.86 1465.19 2282.69 1463.82 Q2284.51 1462.43 2284.51 1459.84 Q2284.51 1457.18 2282.62 1455.77 Q2280.74 1454.33 2277.22 1454.33 Q2275.3 1454.33 2273.1 1454.75 Q2270.9 1455.16 2268.26 1456.04 L2268.26 1451.88 Q2270.93 1451.14 2273.24 1450.77 Q2275.58 1450.39 2277.64 1450.39 Q2282.96 1450.39 2286.06 1452.83 Q2289.17 1455.23 2289.17 1459.35 Q2289.17 1462.22 2287.52 1464.21 Q2285.88 1466.18 2282.85 1466.95 Z" fill="#000000" fill-rule="evenodd" fill-opacity="1" /><path clip-path="url(#clip970)" d="M2308.84 1454.1 Q2305.23 1454.1 2303.4 1457.66 Q2301.6 1461.2 2301.6 1468.33 Q2301.6 1475.44 2303.4 1479.01 Q2305.23 1482.55 2308.84 1482.55 Q2312.48 1482.55 2314.28 1479.01 Q2316.11 1475.44 2316.11 1468.33 Q2316.11 1461.2 2314.28 1457.66 Q2312.48 1454.1 2308.84 1454.1 M2308.84 1450.39 Q2314.65 1450.39 2317.71 1455 Q2320.79 1459.58 2320.79 1468.33 Q2320.79 1477.06 2317.71 1481.67 Q2314.65 1486.25 2308.84 1486.25 Q2303.03 1486.25 2299.95 1481.67 Q2296.9 1477.06 2296.9 1468.33 Q2296.9 1459.58 2299.95 1455 Q2303.03 1450.39 2308.84 1450.39 Z" fill="#000000" fill-rule="evenodd" fill-opacity="1" /><path clip-path="url(#clip970)" d="M1329.74 1546.53 L1329.74 1568.04 L1323.89 1568.04 L1323.89 1546.72 Q1323.89 1541.66 1321.91 1539.14 Q1319.94 1536.63 1315.99 1536.63 Q1311.25 1536.63 1308.51 1539.65 Q1305.78 1542.68 1305.78 1547.9 L1305.78 1568.04 L1299.89 1568.04 L1299.89 1532.4 L1305.78 1532.4 L1305.78 1537.93 Q1307.88 1534.72 1310.71 1533.13 Q1313.57 1531.54 1317.3 1531.54 Q1323.44 1531.54 1326.59 1535.36 Q1329.74 1539.14 1329.74 1546.53 Z" fill="#000000" fill-rule="evenodd" fill-opacity="1" /><polyline clip-path="url(#clip973)" style="stroke:#000000; stroke-linecap:round; stroke-linejoin:round; stroke-width:2; stroke-opacity:0.1; fill:none" points="
  276.876,907.938 2352.76,907.938 
  "/>
<polyline clip-path="url(#clip973)" style="stroke:#000000; stroke-linecap:round; stroke-linejoin:round; stroke-width:2; stroke-opacity:0.1; fill:none" points="
  276.876,65.4604 2352.76,65.4604 
  "/>
<polyline clip-path="url(#clip970)" style="stroke:#000000; stroke-linecap:round; stroke-linejoin:round; stroke-width:4; stroke-opacity:1; fill:none" points="
  276.876,1423.18 276.876,47.2441 
  "/>
<polyline clip-path="url(#clip970)" style="stroke:#000000; stroke-linecap:round; stroke-linejoin:round; stroke-width:4; stroke-opacity:1; fill:none" points="
  276.876,907.938 295.773,907.938 
  "/>
<polyline clip-path="url(#clip970)" style="stroke:#000000; stroke-linecap:round; stroke-linejoin:round; stroke-width:4; stroke-opacity:1; fill:none" points="
  276.876,65.4604 295.773,65.4604 
  "/>
<path clip-path="url(#clip970)" d="M114.931 927.731 L122.57 927.731 L122.57 901.365 L114.26 903.032 L114.26 898.773 L122.524 897.106 L127.2 897.106 L127.2 927.731 L134.839 927.731 L134.839 931.666 L114.931 931.666 L114.931 927.731 Z" fill="#000000" fill-rule="evenodd" fill-opacity="1" /><path clip-path="url(#clip970)" d="M154.283 900.185 Q150.672 900.185 148.843 903.749 Q147.038 907.291 147.038 914.421 Q147.038 921.527 148.843 925.092 Q150.672 928.634 154.283 928.634 Q157.917 928.634 159.723 925.092 Q161.552 921.527 161.552 914.421 Q161.552 907.291 159.723 903.749 Q157.917 900.185 154.283 900.185 M154.283 896.481 Q160.093 896.481 163.149 901.087 Q166.227 905.671 166.227 914.421 Q166.227 923.147 163.149 927.754 Q160.093 932.337 154.283 932.337 Q148.473 932.337 145.394 927.754 Q142.339 923.147 142.339 914.421 Q142.339 905.671 145.394 901.087 Q148.473 896.481 154.283 896.481 Z" fill="#000000" fill-rule="evenodd" fill-opacity="1" /><path clip-path="url(#clip970)" d="M166.227 890.582 L190.339 890.582 L190.339 893.78 L166.227 893.78 L166.227 890.582 Z" fill="#000000" fill-rule="evenodd" fill-opacity="1" /><path clip-path="url(#clip970)" d="M199.197 901.058 L205.404 901.058 L205.404 879.636 L198.652 880.99 L198.652 877.53 L205.366 876.176 L209.166 876.176 L209.166 901.058 L215.372 901.058 L215.372 904.256 L199.197 904.256 L199.197 901.058 Z" fill="#000000" fill-rule="evenodd" fill-opacity="1" /><path clip-path="url(#clip970)" d="M231.171 878.677 Q228.237 878.677 226.751 881.573 Q225.284 884.451 225.284 890.244 Q225.284 896.018 226.751 898.914 Q228.237 901.792 231.171 901.792 Q234.124 901.792 235.591 898.914 Q237.076 896.018 237.076 890.244 Q237.076 884.451 235.591 881.573 Q234.124 878.677 231.171 878.677 M231.171 875.668 Q235.891 875.668 238.374 879.41 Q240.876 883.134 240.876 890.244 Q240.876 897.334 238.374 901.077 Q235.891 904.801 231.171 904.801 Q226.45 904.801 223.949 901.077 Q221.466 897.334 221.466 890.244 Q221.466 883.134 223.949 879.41 Q226.45 875.668 231.171 875.668 Z" fill="#000000" fill-rule="evenodd" fill-opacity="1" /><path clip-path="url(#clip970)" d="M170.17 85.2529 L177.809 85.2529 L177.809 58.8873 L169.499 60.5539 L169.499 56.2947 L177.762 54.628 L182.438 54.628 L182.438 85.2529 L190.077 85.2529 L190.077 89.188 L170.17 89.188 L170.17 85.2529 Z" fill="#000000" fill-rule="evenodd" fill-opacity="1" /><path clip-path="url(#clip970)" d="M209.522 57.7067 Q205.91 57.7067 204.082 61.2715 Q202.276 64.8132 202.276 71.9428 Q202.276 79.0492 204.082 82.614 Q205.91 86.1557 209.522 86.1557 Q213.156 86.1557 214.961 82.614 Q216.79 79.0492 216.79 71.9428 Q216.79 64.8132 214.961 61.2715 Q213.156 57.7067 209.522 57.7067 M209.522 54.003 Q215.332 54.003 218.387 58.6095 Q221.466 63.1928 221.466 71.9428 Q221.466 80.6696 218.387 85.276 Q215.332 89.8593 209.522 89.8593 Q203.711 89.8593 200.633 85.276 Q197.577 80.6696 197.577 71.9428 Q197.577 63.1928 200.633 58.6095 Q203.711 54.003 209.522 54.003 Z" fill="#000000" fill-rule="evenodd" fill-opacity="1" /><path clip-path="url(#clip970)" d="M231.171 36.1991 Q228.237 36.1991 226.751 39.0955 Q225.284 41.9731 225.284 47.7659 Q225.284 53.5398 226.751 56.4362 Q228.237 59.3138 231.171 59.3138 Q234.124 59.3138 235.591 56.4362 Q237.076 53.5398 237.076 47.7659 Q237.076 41.9731 235.591 39.0955 Q234.124 36.1991 231.171 36.1991 M231.171 33.1898 Q235.891 33.1898 238.374 36.9326 Q240.876 40.6565 240.876 47.7659 Q240.876 54.8564 238.374 58.5991 Q235.891 62.3231 231.171 62.3231 Q226.45 62.3231 223.949 58.5991 Q221.466 54.8564 221.466 47.7659 Q221.466 40.6565 223.949 36.9326 Q226.45 33.1898 231.171 33.1898 Z" fill="#000000" fill-rule="evenodd" fill-opacity="1" /><path clip-path="url(#clip970)" d="M44.7161 779.279 L47.5806 779.279 L47.5806 806.206 Q53.6281 805.824 56.8109 802.577 Q59.9619 799.299 59.9619 793.474 Q59.9619 790.1 59.1344 786.949 Q58.3069 783.766 56.6518 780.647 L62.1899 780.647 Q63.5267 783.798 64.227 787.108 Q64.9272 790.419 64.9272 793.824 Q64.9272 802.354 59.9619 807.351 Q54.9967 812.317 46.5303 812.317 Q37.7774 812.317 32.6531 807.606 Q27.4968 802.864 27.4968 794.843 Q27.4968 787.649 32.1438 783.48 Q36.7589 779.279 44.7161 779.279 M42.9973 785.135 Q38.1912 785.199 35.3266 787.84 Q32.4621 790.45 32.4621 794.779 Q32.4621 799.681 35.2312 802.641 Q38.0002 805.569 43.0292 806.015 L42.9973 785.135 Z" fill="#000000" fill-rule="evenodd" fill-opacity="1" /><path clip-path="url(#clip970)" d="M33.8307 749.01 Q33.2578 749.996 33.0032 751.174 Q32.7167 752.32 32.7167 753.72 Q32.7167 758.686 35.9632 761.359 Q39.1779 764.001 45.2253 764.001 L64.0042 764.001 L64.0042 769.889 L28.3562 769.889 L28.3562 764.001 L33.8944 764.001 Q30.6479 762.155 29.0883 759.195 Q27.4968 756.235 27.4968 752.002 Q27.4968 751.397 27.5923 750.665 Q27.656 749.933 27.8151 749.041 L33.8307 749.01 Z" fill="#000000" fill-rule="evenodd" fill-opacity="1" /><path clip-path="url(#clip970)" d="M33.8307 723.356 Q33.2578 724.343 33.0032 725.52 Q32.7167 726.666 32.7167 728.066 Q32.7167 733.032 35.9632 735.705 Q39.1779 738.347 45.2253 738.347 L64.0042 738.347 L64.0042 744.235 L28.3562 744.235 L28.3562 738.347 L33.8944 738.347 Q30.6479 736.501 29.0883 733.541 Q27.4968 730.581 27.4968 726.348 Q27.4968 725.743 27.5923 725.011 Q27.656 724.279 27.8151 723.388 L33.8307 723.356 Z" fill="#000000" fill-rule="evenodd" fill-opacity="1" /><path clip-path="url(#clip970)" d="M32.4621 704.832 Q32.4621 709.542 36.1542 712.28 Q39.8145 715.017 46.212 715.017 Q52.6095 715.017 56.3017 712.311 Q59.9619 709.574 59.9619 704.832 Q59.9619 700.153 56.2698 697.416 Q52.5777 694.678 46.212 694.678 Q39.8781 694.678 36.186 697.416 Q32.4621 700.153 32.4621 704.832 M27.4968 704.832 Q27.4968 697.193 32.4621 692.832 Q37.4273 688.472 46.212 688.472 Q54.9649 688.472 59.9619 692.832 Q64.9272 697.193 64.9272 704.832 Q64.9272 712.502 59.9619 716.863 Q54.9649 721.191 46.212 721.191 Q37.4273 721.191 32.4621 716.863 Q27.4968 712.502 27.4968 704.832 Z" fill="#000000" fill-rule="evenodd" fill-opacity="1" /><path clip-path="url(#clip970)" d="M33.8307 658.107 Q33.2578 659.094 33.0032 660.272 Q32.7167 661.418 32.7167 662.818 Q32.7167 667.783 35.9632 670.457 Q39.1779 673.099 45.2253 673.099 L64.0042 673.099 L64.0042 678.987 L28.3562 678.987 L28.3562 673.099 L33.8944 673.099 Q30.6479 671.253 29.0883 668.292 Q27.4968 665.332 27.4968 661.099 Q27.4968 660.494 27.5923 659.762 Q27.656 659.03 27.8151 658.139 L33.8307 658.107 Z" fill="#000000" fill-rule="evenodd" fill-opacity="1" /><circle clip-path="url(#clip973)" cx="335.627" cy="86.1857" r="14.4" fill="#009af9" fill-rule="evenodd" fill-opacity="1" stroke="#000000" stroke-opacity="1" stroke-width="3.2"/>
<circle clip-path="url(#clip973)" cx="408.159" cy="110.407" r="14.4" fill="#009af9" fill-rule="evenodd" fill-opacity="1" stroke="#000000" stroke-opacity="1" stroke-width="3.2"/>
<circle clip-path="url(#clip973)" cx="480.692" cy="137.357" r="14.4" fill="#009af9" fill-rule="evenodd" fill-opacity="1" stroke="#000000" stroke-opacity="1" stroke-width="3.2"/>
<circle clip-path="url(#clip973)" cx="553.224" cy="166.852" r="14.4" fill="#009af9" fill-rule="evenodd" fill-opacity="1" stroke="#000000" stroke-opacity="1" stroke-width="3.2"/>
<circle clip-path="url(#clip973)" cx="625.757" cy="196.58" r="14.4" fill="#009af9" fill-rule="evenodd" fill-opacity="1" stroke="#000000" stroke-opacity="1" stroke-width="3.2"/>
<circle clip-path="url(#clip973)" cx="698.289" cy="227.238" r="14.4" fill="#009af9" fill-rule="evenodd" fill-opacity="1" stroke="#000000" stroke-opacity="1" stroke-width="3.2"/>
<circle clip-path="url(#clip973)" cx="770.822" cy="258.314" r="14.4" fill="#009af9" fill-rule="evenodd" fill-opacity="1" stroke="#000000" stroke-opacity="1" stroke-width="3.2"/>
<circle clip-path="url(#clip973)" cx="843.354" cy="289.843" r="14.4" fill="#009af9" fill-rule="evenodd" fill-opacity="1" stroke="#000000" stroke-opacity="1" stroke-width="3.2"/>
<circle clip-path="url(#clip973)" cx="915.887" cy="321.696" r="14.4" fill="#009af9" fill-rule="evenodd" fill-opacity="1" stroke="#000000" stroke-opacity="1" stroke-width="3.2"/>
<circle clip-path="url(#clip973)" cx="988.419" cy="353.837" r="14.4" fill="#009af9" fill-rule="evenodd" fill-opacity="1" stroke="#000000" stroke-opacity="1" stroke-width="3.2"/>
<circle clip-path="url(#clip973)" cx="1060.95" cy="386.213" r="14.4" fill="#009af9" fill-rule="evenodd" fill-opacity="1" stroke="#000000" stroke-opacity="1" stroke-width="3.2"/>
<circle clip-path="url(#clip973)" cx="1133.48" cy="418.794" r="14.4" fill="#009af9" fill-rule="evenodd" fill-opacity="1" stroke="#000000" stroke-opacity="1" stroke-width="3.2"/>
<circle clip-path="url(#clip973)" cx="1206.02" cy="451.551" r="14.4" fill="#009af9" fill-rule="evenodd" fill-opacity="1" stroke="#000000" stroke-opacity="1" stroke-width="3.2"/>
<circle clip-path="url(#clip973)" cx="1278.55" cy="484.463" r="14.4" fill="#009af9" fill-rule="evenodd" fill-opacity="1" stroke="#000000" stroke-opacity="1" stroke-width="3.2"/>
<circle clip-path="url(#clip973)" cx="1351.08" cy="517.511" r="14.4" fill="#009af9" fill-rule="evenodd" fill-opacity="1" stroke="#000000" stroke-opacity="1" stroke-width="3.2"/>
<circle clip-path="url(#clip973)" cx="1423.61" cy="550.68" r="14.4" fill="#009af9" fill-rule="evenodd" fill-opacity="1" stroke="#000000" stroke-opacity="1" stroke-width="3.2"/>
<circle clip-path="url(#clip973)" cx="1496.15" cy="583.957" r="14.4" fill="#009af9" fill-rule="evenodd" fill-opacity="1" stroke="#000000" stroke-opacity="1" stroke-width="3.2"/>
<circle clip-path="url(#clip973)" cx="1568.68" cy="617.332" r="14.4" fill="#009af9" fill-rule="evenodd" fill-opacity="1" stroke="#000000" stroke-opacity="1" stroke-width="3.2"/>
<circle clip-path="url(#clip973)" cx="1641.21" cy="650.794" r="14.4" fill="#009af9" fill-rule="evenodd" fill-opacity="1" stroke="#000000" stroke-opacity="1" stroke-width="3.2"/>
<circle clip-path="url(#clip973)" cx="1713.74" cy="684.336" r="14.4" fill="#009af9" fill-rule="evenodd" fill-opacity="1" stroke="#000000" stroke-opacity="1" stroke-width="3.2"/>
<circle clip-path="url(#clip973)" cx="1786.28" cy="717.952" r="14.4" fill="#009af9" fill-rule="evenodd" fill-opacity="1" stroke="#000000" stroke-opacity="1" stroke-width="3.2"/>
<circle clip-path="url(#clip973)" cx="1858.81" cy="751.634" r="14.4" fill="#009af9" fill-rule="evenodd" fill-opacity="1" stroke="#000000" stroke-opacity="1" stroke-width="3.2"/>
<circle clip-path="url(#clip973)" cx="1931.34" cy="785.378" r="14.4" fill="#009af9" fill-rule="evenodd" fill-opacity="1" stroke="#000000" stroke-opacity="1" stroke-width="3.2"/>
<circle clip-path="url(#clip973)" cx="2003.87" cy="819.178" r="14.4" fill="#009af9" fill-rule="evenodd" fill-opacity="1" stroke="#000000" stroke-opacity="1" stroke-width="3.2"/>
<circle clip-path="url(#clip973)" cx="2076.41" cy="853.031" r="14.4" fill="#009af9" fill-rule="evenodd" fill-opacity="1" stroke="#000000" stroke-opacity="1" stroke-width="3.2"/>
<circle clip-path="url(#clip973)" cx="2148.94" cy="886.933" r="14.4" fill="#009af9" fill-rule="evenodd" fill-opacity="1" stroke="#000000" stroke-opacity="1" stroke-width="3.2"/>
<circle clip-path="url(#clip973)" cx="2221.47" cy="920.87" r="14.4" fill="#009af9" fill-rule="evenodd" fill-opacity="1" stroke="#000000" stroke-opacity="1" stroke-width="3.2"/>
<circle clip-path="url(#clip973)" cx="2294" cy="954.893" r="14.4" fill="#009af9" fill-rule="evenodd" fill-opacity="1" stroke="#000000" stroke-opacity="1" stroke-width="3.2"/>
<circle clip-path="url(#clip973)" cx="335.627" cy="121.375" r="14.4" fill="#e26f46" fill-rule="evenodd" fill-opacity="1" stroke="#000000" stroke-opacity="1" stroke-width="3.2"/>
<circle clip-path="url(#clip973)" cx="408.159" cy="165.304" r="14.4" fill="#e26f46" fill-rule="evenodd" fill-opacity="1" stroke="#000000" stroke-opacity="1" stroke-width="3.2"/>
<circle clip-path="url(#clip973)" cx="480.692" cy="210.439" r="14.4" fill="#e26f46" fill-rule="evenodd" fill-opacity="1" stroke="#000000" stroke-opacity="1" stroke-width="3.2"/>
<circle clip-path="url(#clip973)" cx="553.224" cy="257.009" r="14.4" fill="#e26f46" fill-rule="evenodd" fill-opacity="1" stroke="#000000" stroke-opacity="1" stroke-width="3.2"/>
<circle clip-path="url(#clip973)" cx="625.757" cy="304.446" r="14.4" fill="#e26f46" fill-rule="evenodd" fill-opacity="1" stroke="#000000" stroke-opacity="1" stroke-width="3.2"/>
<circle clip-path="url(#clip973)" cx="698.289" cy="352.569" r="14.4" fill="#e26f46" fill-rule="evenodd" fill-opacity="1" stroke="#000000" stroke-opacity="1" stroke-width="3.2"/>
<circle clip-path="url(#clip973)" cx="770.822" cy="401.215" r="14.4" fill="#e26f46" fill-rule="evenodd" fill-opacity="1" stroke="#000000" stroke-opacity="1" stroke-width="3.2"/>
<circle clip-path="url(#clip973)" cx="843.354" cy="450.28" r="14.4" fill="#e26f46" fill-rule="evenodd" fill-opacity="1" stroke="#000000" stroke-opacity="1" stroke-width="3.2"/>
<circle clip-path="url(#clip973)" cx="915.887" cy="499.686" r="14.4" fill="#e26f46" fill-rule="evenodd" fill-opacity="1" stroke="#000000" stroke-opacity="1" stroke-width="3.2"/>
<circle clip-path="url(#clip973)" cx="988.419" cy="549.376" r="14.4" fill="#e26f46" fill-rule="evenodd" fill-opacity="1" stroke="#000000" stroke-opacity="1" stroke-width="3.2"/>
<circle clip-path="url(#clip973)" cx="1060.95" cy="599.307" r="14.4" fill="#e26f46" fill-rule="evenodd" fill-opacity="1" stroke="#000000" stroke-opacity="1" stroke-width="3.2"/>
<circle clip-path="url(#clip973)" cx="1133.48" cy="649.442" r="14.4" fill="#e26f46" fill-rule="evenodd" fill-opacity="1" stroke="#000000" stroke-opacity="1" stroke-width="3.2"/>
<circle clip-path="url(#clip973)" cx="1206.02" cy="699.756" r="14.4" fill="#e26f46" fill-rule="evenodd" fill-opacity="1" stroke="#000000" stroke-opacity="1" stroke-width="3.2"/>
<circle clip-path="url(#clip973)" cx="1278.55" cy="750.225" r="14.4" fill="#e26f46" fill-rule="evenodd" fill-opacity="1" stroke="#000000" stroke-opacity="1" stroke-width="3.2"/>
<circle clip-path="url(#clip973)" cx="1351.08" cy="800.83" r="14.4" fill="#e26f46" fill-rule="evenodd" fill-opacity="1" stroke="#000000" stroke-opacity="1" stroke-width="3.2"/>
<circle clip-path="url(#clip973)" cx="1423.61" cy="851.558" r="14.4" fill="#e26f46" fill-rule="evenodd" fill-opacity="1" stroke="#000000" stroke-opacity="1" stroke-width="3.2"/>
<circle clip-path="url(#clip973)" cx="1496.15" cy="902.395" r="14.4" fill="#e26f46" fill-rule="evenodd" fill-opacity="1" stroke="#000000" stroke-opacity="1" stroke-width="3.2"/>
<circle clip-path="url(#clip973)" cx="1568.68" cy="953.321" r="14.4" fill="#e26f46" fill-rule="evenodd" fill-opacity="1" stroke="#000000" stroke-opacity="1" stroke-width="3.2"/>
<circle clip-path="url(#clip973)" cx="1641.21" cy="1004.38" r="14.4" fill="#e26f46" fill-rule="evenodd" fill-opacity="1" stroke="#000000" stroke-opacity="1" stroke-width="3.2"/>
<circle clip-path="url(#clip973)" cx="1713.74" cy="1055.53" r="14.4" fill="#e26f46" fill-rule="evenodd" fill-opacity="1" stroke="#000000" stroke-opacity="1" stroke-width="3.2"/>
<circle clip-path="url(#clip973)" cx="1786.28" cy="1107" r="14.4" fill="#e26f46" fill-rule="evenodd" fill-opacity="1" stroke="#000000" stroke-opacity="1" stroke-width="3.2"/>
<circle clip-path="url(#clip973)" cx="1858.81" cy="1156.78" r="14.4" fill="#e26f46" fill-rule="evenodd" fill-opacity="1" stroke="#000000" stroke-opacity="1" stroke-width="3.2"/>
<circle clip-path="url(#clip973)" cx="1931.34" cy="1208.17" r="14.4" fill="#e26f46" fill-rule="evenodd" fill-opacity="1" stroke="#000000" stroke-opacity="1" stroke-width="3.2"/>
<circle clip-path="url(#clip973)" cx="2003.87" cy="1254.15" r="14.4" fill="#e26f46" fill-rule="evenodd" fill-opacity="1" stroke="#000000" stroke-opacity="1" stroke-width="3.2"/>
<circle clip-path="url(#clip973)" cx="2076.41" cy="1325.35" r="14.4" fill="#e26f46" fill-rule="evenodd" fill-opacity="1" stroke="#000000" stroke-opacity="1" stroke-width="3.2"/>
<circle clip-path="url(#clip973)" cx="2148.94" cy="1384.24" r="14.4" fill="#e26f46" fill-rule="evenodd" fill-opacity="1" stroke="#000000" stroke-opacity="1" stroke-width="3.2"/>
<circle clip-path="url(#clip973)" cx="2221.47" cy="1296.5" r="14.4" fill="#e26f46" fill-rule="evenodd" fill-opacity="1" stroke="#000000" stroke-opacity="1" stroke-width="3.2"/>
<circle clip-path="url(#clip973)" cx="2294" cy="1299.99" r="14.4" fill="#e26f46" fill-rule="evenodd" fill-opacity="1" stroke="#000000" stroke-opacity="1" stroke-width="3.2"/>
<polyline clip-path="url(#clip973)" style="stroke:#3da44d; stroke-linecap:round; stroke-linejoin:round; stroke-width:16; stroke-opacity:1; fill:none" points="
  335.627,105.657 408.159,116.183 480.692,124.347 553.224,131.018 625.757,136.658 698.289,141.544 770.822,145.853 843.354,149.708 915.887,153.195 988.419,156.379 
  1060.95,159.308 1133.48,162.019 1206.02,164.544 1278.55,166.905 1351.08,169.123 1423.61,171.214 1496.15,173.193 1568.68,175.069 1641.21,176.854 1713.74,178.557 
  1786.28,180.183 1858.81,181.74 1931.34,183.234 2003.87,184.669 2076.41,186.05 2148.94,187.38 2221.47,188.664 2294,189.905 
  "/>
<polyline clip-path="url(#clip973)" style="stroke:#c271d2; stroke-linecap:round; stroke-linejoin:round; stroke-width:16; stroke-opacity:1; fill:none" points="
  335.627,145.853 408.159,166.905 480.692,183.234 553.224,196.575 625.757,207.856 698.289,217.627 770.822,226.246 843.354,233.956 915.887,240.931 988.419,247.298 
  1060.95,253.155 1133.48,258.578 1206.02,263.627 1278.55,268.349 1351.08,272.786 1423.61,276.968 1496.15,280.925 1568.68,284.678 1641.21,288.249 1713.74,291.653 
  1786.28,294.906 1858.81,298.02 1931.34,301.007 2003.87,303.877 2076.41,306.639 2148.94,309.3 2221.47,311.868 2294,314.349 
  "/>
<polyline clip-path="url(#clip973)" style="stroke:#ac8d18; stroke-linecap:round; stroke-linejoin:round; stroke-width:16; stroke-opacity:1; fill:none" points="
  335.627,186.05 408.159,217.627 480.692,242.12 553.224,262.133 625.757,279.053 698.289,293.71 770.822,306.639 843.354,318.204 915.887,328.666 988.419,338.216 
  1060.95,347.002 1133.48,355.137 1206.02,362.71 1278.55,369.794 1351.08,376.448 1423.61,382.722 1496.15,388.657 1568.68,394.287 1641.21,399.643 1713.74,404.749 
  1786.28,409.628 1858.81,414.3 1931.34,418.781 2003.87,423.086 2076.41,427.228 2148.94,431.22 2221.47,435.072 2294,438.793 
  "/>
<polyline clip-path="url(#clip973)" style="stroke:#00a9ad; stroke-linecap:round; stroke-linejoin:round; stroke-width:16; stroke-opacity:1; fill:none" points="
  335.627,226.246 408.159,268.349 480.692,301.007 553.224,327.691 625.757,350.251 698.289,369.794 770.822,387.032 843.354,402.452 915.887,416.401 988.419,429.135 
  1060.95,440.85 1133.48,451.695 1206.02,461.793 1278.55,471.238 1351.08,480.111 1423.61,488.476 1496.15,496.389 1568.68,503.896 1641.21,511.037 1713.74,517.845 
  1786.28,524.351 1858.81,530.579 1931.34,536.554 2003.87,542.294 2076.41,547.817 2148.94,553.14 2221.47,558.276 2294,563.237 
  "/>
<path clip-path="url(#clip970)" d="
M1793.26 637.429 L2283.56 637.429 L2283.56 93.1086 L1793.26 93.1086  Z
  " fill="#ffffff" fill-rule="evenodd" fill-opacity="1"/>
<polyline clip-path="url(#clip970)" style="stroke:#000000; stroke-linecap:round; stroke-linejoin:round; stroke-width:4; stroke-opacity:1; fill:none" points="
  1793.26,637.429 2283.56,637.429 2283.56,93.1086 1793.26,93.1086 1793.26,637.429 
  "/>
<circle clip-path="url(#clip970)" cx="1885.52" cy="170.869" r="34.56" fill="#009af9" fill-rule="evenodd" fill-opacity="1" stroke="#000000" stroke-opacity="1" stroke-width="7.68"/>
<path clip-path="url(#clip970)" d="M2002.53 142.761 L2002.53 148.074 L1996.42 148.074 Q1992.99 148.074 1991.63 149.462 Q1990.31 150.851 1990.31 154.462 L1990.31 157.9 L2000.83 157.9 L2000.83 162.865 L1990.31 162.865 L1990.31 196.789 L1983.89 196.789 L1983.89 162.865 L1977.78 162.865 L1977.78 157.9 L1983.89 157.9 L1983.89 155.192 Q1983.89 148.699 1986.91 145.747 Q1989.93 142.761 1996.49 142.761 L2002.53 142.761 Z" fill="#000000" fill-rule="evenodd" fill-opacity="1" /><path clip-path="url(#clip970)" d="M2037.43 208.594 L2037.43 213.559 L2000.49 213.559 L2000.49 208.594 L2037.43 208.594 Z" fill="#000000" fill-rule="evenodd" fill-opacity="1" /><path clip-path="url(#clip970)" d="M2076.7 175.747 L2076.7 178.872 L2047.33 178.872 Q2047.74 185.469 2051.28 188.941 Q2054.86 192.379 2061.21 192.379 Q2064.9 192.379 2068.33 191.476 Q2071.81 190.573 2075.21 188.768 L2075.21 194.809 Q2071.77 196.268 2068.16 197.032 Q2064.55 197.796 2060.83 197.796 Q2051.53 197.796 2046.08 192.379 Q2040.66 186.962 2040.66 177.726 Q2040.66 168.178 2045.8 162.587 Q2050.97 156.962 2059.72 156.962 Q2067.57 156.962 2072.12 162.032 Q2076.7 167.067 2076.7 175.747 M2070.31 173.872 Q2070.24 168.629 2067.36 165.504 Q2064.51 162.379 2059.79 162.379 Q2054.44 162.379 2051.21 165.4 Q2048.02 168.421 2047.53 173.907 L2070.31 173.872 Z" fill="#000000" fill-rule="evenodd" fill-opacity="1" /><path clip-path="url(#clip970)" d="M2118.26 157.9 L2104.2 176.823 L2118.99 196.789 L2111.46 196.789 L2100.14 181.511 L2088.82 196.789 L2081.28 196.789 L2096.39 176.442 L2082.57 157.9 L2090.1 157.9 L2100.42 171.754 L2110.73 157.9 L2118.26 157.9 Z" fill="#000000" fill-rule="evenodd" fill-opacity="1" /><path clip-path="url(#clip970)" d="M2134.2 190.955 L2134.2 211.58 L2127.78 211.58 L2127.78 157.9 L2134.2 157.9 L2134.2 163.803 Q2136.21 160.33 2139.27 158.664 Q2142.36 156.962 2146.63 156.962 Q2153.71 156.962 2158.12 162.587 Q2162.57 168.212 2162.57 177.379 Q2162.57 186.546 2158.12 192.171 Q2153.71 197.796 2146.63 197.796 Q2142.36 197.796 2139.27 196.129 Q2136.21 194.428 2134.2 190.955 M2155.94 177.379 Q2155.94 170.33 2153.02 166.337 Q2150.14 162.31 2145.07 162.31 Q2140 162.31 2137.08 166.337 Q2134.2 170.33 2134.2 177.379 Q2134.2 184.428 2137.08 188.455 Q2140 192.448 2145.07 192.448 Q2150.14 192.448 2153.02 188.455 Q2155.94 184.428 2155.94 177.379 Z" fill="#000000" fill-rule="evenodd" fill-opacity="1" /><path clip-path="url(#clip970)" d="M2205.48 157.9 L2191.42 176.823 L2206.21 196.789 L2198.68 196.789 L2187.36 181.511 L2176.04 196.789 L2168.51 196.789 L2183.61 176.442 L2169.79 157.9 L2177.33 157.9 L2187.64 171.754 L2197.95 157.9 L2205.48 157.9 Z" fill="#000000" fill-rule="evenodd" fill-opacity="1" /><circle clip-path="url(#clip970)" cx="1885.52" cy="248.629" r="34.56" fill="#e26f46" fill-rule="evenodd" fill-opacity="1" stroke="#000000" stroke-opacity="1" stroke-width="7.68"/>
<path clip-path="url(#clip970)" d="M2002.53 220.521 L2002.53 225.834 L1996.42 225.834 Q1992.99 225.834 1991.63 227.222 Q1990.31 228.611 1990.31 232.222 L1990.31 235.66 L2000.83 235.66 L2000.83 240.625 L1990.31 240.625 L1990.31 274.549 L1983.89 274.549 L1983.89 240.625 L1977.78 240.625 L1977.78 235.66 L1983.89 235.66 L1983.89 232.952 Q1983.89 226.459 1986.91 223.507 Q1989.93 220.521 1996.49 220.521 L2002.53 220.521 Z" fill="#000000" fill-rule="evenodd" fill-opacity="1" /><path clip-path="url(#clip970)" d="M2037.43 286.354 L2037.43 291.319 L2000.49 291.319 L2000.49 286.354 L2037.43 286.354 Z" fill="#000000" fill-rule="evenodd" fill-opacity="1" /><path clip-path="url(#clip970)" d="M2069.03 241.563 L2069.03 220.521 L2075.42 220.521 L2075.42 274.549 L2069.03 274.549 L2069.03 268.715 Q2067.01 272.188 2063.92 273.889 Q2060.87 275.556 2056.56 275.556 Q2049.51 275.556 2045.07 269.931 Q2040.66 264.306 2040.66 255.139 Q2040.66 245.972 2045.07 240.347 Q2049.51 234.722 2056.56 234.722 Q2060.87 234.722 2063.92 236.424 Q2067.01 238.09 2069.03 241.563 M2047.26 255.139 Q2047.26 262.188 2050.14 266.215 Q2053.06 270.208 2058.12 270.208 Q2063.19 270.208 2066.11 266.215 Q2069.03 262.188 2069.03 255.139 Q2069.03 248.09 2066.11 244.097 Q2063.19 240.07 2058.12 240.07 Q2053.06 240.07 2050.14 244.097 Q2047.26 248.09 2047.26 255.139 Z" fill="#000000" fill-rule="evenodd" fill-opacity="1" /><path clip-path="url(#clip970)" d="M2094.9 224.618 L2094.9 235.66 L2108.05 235.66 L2108.05 240.625 L2094.9 240.625 L2094.9 261.736 Q2094.9 266.493 2096.18 267.847 Q2097.5 269.201 2101.49 269.201 L2108.05 269.201 L2108.05 274.549 L2101.49 274.549 Q2094.1 274.549 2091.28 271.806 Q2088.47 269.028 2088.47 261.736 L2088.47 240.625 L2083.78 240.625 L2083.78 235.66 L2088.47 235.66 L2088.47 224.618 L2094.9 224.618 Z" fill="#000000" fill-rule="evenodd" fill-opacity="1" /><path clip-path="url(#clip970)" d="M2134.13 255 Q2126.39 255 2123.4 256.771 Q2120.42 258.542 2120.42 262.813 Q2120.42 266.215 2122.64 268.229 Q2124.9 270.208 2128.75 270.208 Q2134.06 270.208 2137.26 266.458 Q2140.49 262.674 2140.49 256.424 L2140.49 255 L2134.13 255 M2146.87 252.361 L2146.87 274.549 L2140.49 274.549 L2140.49 268.646 Q2138.3 272.188 2135.03 273.889 Q2131.77 275.556 2127.05 275.556 Q2121.08 275.556 2117.53 272.222 Q2114.03 268.854 2114.03 263.229 Q2114.03 256.667 2118.4 253.333 Q2122.81 250 2131.53 250 L2140.49 250 L2140.49 249.375 Q2140.49 244.965 2137.57 242.57 Q2134.69 240.139 2129.44 240.139 Q2126.11 240.139 2122.95 240.938 Q2119.79 241.736 2116.87 243.334 L2116.87 237.431 Q2120.38 236.077 2123.68 235.417 Q2126.98 234.722 2130.1 234.722 Q2138.54 234.722 2142.71 239.097 Q2146.87 243.472 2146.87 252.361 Z" fill="#000000" fill-rule="evenodd" fill-opacity="1" /><path clip-path="url(#clip970)" d="M2192.36 251.077 L2192.36 274.549 L2185.97 274.549 L2185.97 251.285 Q2185.97 245.764 2183.82 243.021 Q2181.67 240.278 2177.36 240.278 Q2172.19 240.278 2169.2 243.577 Q2166.21 246.875 2166.21 252.57 L2166.21 274.549 L2159.79 274.549 L2159.79 235.66 L2166.21 235.66 L2166.21 241.702 Q2168.51 238.195 2171.6 236.459 Q2174.72 234.722 2178.78 234.722 Q2185.49 234.722 2188.92 238.889 Q2192.36 243.021 2192.36 251.077 Z" fill="#000000" fill-rule="evenodd" fill-opacity="1" /><path clip-path="url(#clip970)" d="M2237.43 251.077 L2237.43 274.549 L2231.04 274.549 L2231.04 251.285 Q2231.04 245.764 2228.89 243.021 Q2226.73 240.278 2222.43 240.278 Q2217.26 240.278 2214.27 243.577 Q2211.28 246.875 2211.28 252.57 L2211.28 274.549 L2204.86 274.549 L2204.86 220.521 L2211.28 220.521 L2211.28 241.702 Q2213.58 238.195 2216.67 236.459 Q2219.79 234.722 2223.85 234.722 Q2230.55 234.722 2233.99 238.889 Q2237.43 243.021 2237.43 251.077 Z" fill="#000000" fill-rule="evenodd" fill-opacity="1" /><polyline clip-path="url(#clip970)" style="stroke:#3da44d; stroke-linecap:round; stroke-linejoin:round; stroke-width:6; stroke-opacity:1; fill:none" points="
  1816.32,326.389 1954.71,326.389 
  "/>
<path clip-path="url(#clip970)" d="M2016.78 343.068 Q2016.78 343.349 2016.46 344.438 Q2016.14 345.527 2015.37 347.214 Q2014.63 348.9 2013.61 350.446 Q2012.6 351.957 2010.91 353.081 Q2009.26 354.17 2007.36 354.17 Q2004.83 354.17 2003.14 352.484 Q2001.46 350.797 2001.46 348.268 Q2001.46 346.862 2002.2 344.93 Q2006.87 332.458 2006.87 328.171 Q2006.87 323.147 2002.97 323.147 Q2001.04 323.147 1999.21 323.885 Q1997.42 324.588 1996.19 325.571 Q1994.96 326.555 1993.83 327.925 Q1992.74 329.261 1992.18 330.174 Q1991.66 331.052 1991.23 331.931 L1990.32 335.514 Q1990.11 336.498 1989.09 340.328 L1987.51 346.827 Q1986.39 351.676 1986.14 352.133 Q1985.79 353.116 1985.02 353.643 Q1984.24 354.17 1983.47 354.17 Q1982.59 354.17 1981.99 353.643 Q1981.4 353.116 1981.4 352.203 Q1981.4 352.062 1981.5 351.535 Q1981.61 351.008 1981.78 350.27 Q1981.96 349.533 1982.03 349.111 L1986.21 332.493 Q1986.98 329.471 1987.16 328.523 Q1987.37 327.539 1987.37 326.45 Q1987.37 323.147 1985.12 323.147 Q1983.29 323.147 1982.1 325.326 Q1980.9 327.504 1979.89 331.72 Q1979.57 332.879 1979.36 333.125 Q1979.18 333.371 1978.66 333.371 Q1977.78 333.336 1977.78 332.633 Q1977.78 332.458 1978.06 331.298 Q1978.34 330.139 1978.87 328.488 Q1979.43 326.801 1979.96 325.677 Q1980.41 324.834 1980.66 324.447 Q1980.94 324.026 1981.61 323.218 Q1982.31 322.374 1983.22 321.988 Q1984.17 321.566 1985.33 321.566 Q1987.93 321.566 1989.83 323.253 Q1991.73 324.904 1991.97 327.82 Q1996.64 321.566 2003.18 321.566 Q2007.04 321.566 2009.26 323.604 Q2011.47 325.642 2011.47 329.261 Q2011.47 330.104 2011.3 331.193 Q2011.15 332.247 2010.8 333.582 Q2010.49 334.917 2010.21 335.936 Q2009.93 336.955 2009.36 338.606 Q2008.8 340.222 2008.55 340.925 Q2008.31 341.628 2007.71 343.279 Q2007.15 344.895 2007.08 345.071 Q2005.78 348.338 2005.78 350.2 Q2005.78 351.43 2006.17 351.992 Q2006.59 352.554 2007.5 352.554 Q2009.96 352.554 2011.79 350.13 Q2013.65 347.671 2014.84 343.665 Q2015.12 342.787 2015.27 342.576 Q2015.44 342.365 2015.93 342.365 Q2016.78 342.365 2016.78 343.068 Z" fill="#000000" fill-rule="evenodd" fill-opacity="1" /><path clip-path="url(#clip970)" d="M2057.33 318.541 Q2057.63 318.836 2057.63 319.254 Q2057.63 319.672 2057.33 319.968 Q2057.04 320.263 2056.62 320.263 L2025.09 320.263 Q2024.67 320.263 2024.38 319.968 Q2024.08 319.672 2024.08 319.254 Q2024.08 318.836 2024.38 318.541 Q2024.67 318.246 2025.09 318.246 L2056.62 318.246 Q2057.04 318.246 2057.33 318.541 Z" fill="#000000" fill-rule="evenodd" fill-opacity="1" /><path clip-path="url(#clip970)" d="M2062.89 303.096 L2062.89 301.522 Q2068.94 301.522 2072.06 298.301 Q2072.92 298.301 2073.07 298.497 Q2073.22 298.694 2073.22 299.604 L2073.22 327.862 Q2073.22 329.362 2073.95 329.83 Q2074.69 330.297 2077.91 330.297 L2079.51 330.297 L2079.51 331.846 Q2077.74 331.699 2071.35 331.699 Q2064.95 331.699 2063.21 331.846 L2063.21 330.297 L2064.8 330.297 Q2067.98 330.297 2068.74 329.854 Q2069.5 329.387 2069.5 327.862 L2069.5 301.768 Q2066.87 303.096 2062.89 303.096 Z" fill="#000000" fill-rule="evenodd" fill-opacity="1" /><polyline clip-path="url(#clip970)" style="stroke:#c271d2; stroke-linecap:round; stroke-linejoin:round; stroke-width:6; stroke-opacity:1; fill:none" points="
  1816.32,404.149 1954.71,404.149 
  "/>
<path clip-path="url(#clip970)" d="M2016.78 420.828 Q2016.78 421.109 2016.46 422.198 Q2016.14 423.287 2015.37 424.974 Q2014.63 426.66 2013.61 428.206 Q2012.6 429.717 2010.91 430.841 Q2009.26 431.93 2007.36 431.93 Q2004.83 431.93 2003.14 430.244 Q2001.46 428.557 2001.46 426.028 Q2001.46 424.622 2002.2 422.69 Q2006.87 410.218 2006.87 405.931 Q2006.87 400.907 2002.97 400.907 Q2001.04 400.907 1999.21 401.645 Q1997.42 402.348 1996.19 403.331 Q1994.96 404.315 1993.83 405.685 Q1992.74 407.021 1992.18 407.934 Q1991.66 408.812 1991.23 409.691 L1990.32 413.274 Q1990.11 414.258 1989.09 418.088 L1987.51 424.587 Q1986.39 429.436 1986.14 429.893 Q1985.79 430.876 1985.02 431.403 Q1984.24 431.93 1983.47 431.93 Q1982.59 431.93 1981.99 431.403 Q1981.4 430.876 1981.4 429.963 Q1981.4 429.822 1981.5 429.295 Q1981.61 428.768 1981.78 428.03 Q1981.96 427.293 1982.03 426.871 L1986.21 410.253 Q1986.98 407.231 1987.16 406.283 Q1987.37 405.299 1987.37 404.21 Q1987.37 400.907 1985.12 400.907 Q1983.29 400.907 1982.1 403.086 Q1980.9 405.264 1979.89 409.48 Q1979.57 410.639 1979.36 410.885 Q1979.18 411.131 1978.66 411.131 Q1977.78 411.096 1977.78 410.393 Q1977.78 410.218 1978.06 409.058 Q1978.34 407.899 1978.87 406.248 Q1979.43 404.561 1979.96 403.437 Q1980.41 402.594 1980.66 402.207 Q1980.94 401.786 1981.61 400.978 Q1982.31 400.134 1983.22 399.748 Q1984.17 399.326 1985.33 399.326 Q1987.93 399.326 1989.83 401.013 Q1991.73 402.664 1991.97 405.58 Q1996.64 399.326 2003.18 399.326 Q2007.04 399.326 2009.26 401.364 Q2011.47 403.402 2011.47 407.021 Q2011.47 407.864 2011.3 408.953 Q2011.15 410.007 2010.8 411.342 Q2010.49 412.677 2010.21 413.696 Q2009.93 414.715 2009.36 416.366 Q2008.8 417.982 2008.55 418.685 Q2008.31 419.388 2007.71 421.039 Q2007.15 422.655 2007.08 422.831 Q2005.78 426.098 2005.78 427.96 Q2005.78 429.19 2006.17 429.752 Q2006.59 430.314 2007.5 430.314 Q2009.96 430.314 2011.79 427.89 Q2013.65 425.431 2014.84 421.425 Q2015.12 420.547 2015.27 420.336 Q2015.44 420.125 2015.93 420.125 Q2016.78 420.125 2016.78 420.828 Z" fill="#000000" fill-rule="evenodd" fill-opacity="1" /><path clip-path="url(#clip970)" d="M2057.33 396.301 Q2057.63 396.596 2057.63 397.014 Q2057.63 397.432 2057.33 397.728 Q2057.04 398.023 2056.62 398.023 L2025.09 398.023 Q2024.67 398.023 2024.38 397.728 Q2024.08 397.432 2024.08 397.014 Q2024.08 396.596 2024.38 396.301 Q2024.67 396.006 2025.09 396.006 L2056.62 396.006 Q2057.04 396.006 2057.33 396.301 Z" fill="#000000" fill-rule="evenodd" fill-opacity="1" /><path clip-path="url(#clip970)" d="M2062.89 409.606 Q2062.89 408.696 2062.96 408.426 Q2063.06 408.155 2063.45 407.737 L2073.12 396.965 Q2078.4 391.014 2078.4 385.824 Q2078.4 382.455 2076.63 380.045 Q2074.89 377.635 2071.67 377.635 Q2069.45 377.635 2067.58 378.987 Q2065.71 380.34 2064.85 382.75 Q2065 382.701 2065.52 382.701 Q2066.77 382.701 2067.46 383.488 Q2068.17 384.275 2068.17 385.332 Q2068.17 386.685 2067.29 387.349 Q2066.43 387.989 2065.57 387.989 Q2065.22 387.989 2064.75 387.915 Q2064.31 387.841 2063.6 387.152 Q2062.89 386.439 2062.89 385.185 Q2062.89 381.668 2065.54 378.864 Q2068.22 376.061 2072.31 376.061 Q2076.93 376.061 2079.95 378.815 Q2083 381.545 2083 385.824 Q2083 387.325 2082.54 388.702 Q2082.09 390.054 2081.48 391.112 Q2080.89 392.169 2079.27 393.866 Q2077.64 395.563 2076.34 396.768 Q2075.03 397.974 2072.11 400.531 L2066.77 405.72 L2075.85 405.72 Q2080.27 405.72 2080.62 405.327 Q2081.11 404.614 2081.72 400.851 L2083 400.851 L2081.58 409.606 L2062.89 409.606 Z" fill="#000000" fill-rule="evenodd" fill-opacity="1" /><polyline clip-path="url(#clip970)" style="stroke:#ac8d18; stroke-linecap:round; stroke-linejoin:round; stroke-width:6; stroke-opacity:1; fill:none" points="
  1816.32,481.909 1954.71,481.909 
  "/>
<path clip-path="url(#clip970)" d="M2016.78 499.135 Q2016.78 499.416 2016.46 500.505 Q2016.14 501.594 2015.37 503.281 Q2014.63 504.967 2013.61 506.513 Q2012.6 508.024 2010.91 509.148 Q2009.26 510.237 2007.36 510.237 Q2004.83 510.237 2003.14 508.551 Q2001.46 506.864 2001.46 504.335 Q2001.46 502.929 2002.2 500.997 Q2006.87 488.525 2006.87 484.238 Q2006.87 479.214 2002.97 479.214 Q2001.04 479.214 1999.21 479.952 Q1997.42 480.655 1996.19 481.638 Q1994.96 482.622 1993.83 483.992 Q1992.74 485.327 1992.18 486.241 Q1991.66 487.119 1991.23 487.998 L1990.32 491.581 Q1990.11 492.565 1989.09 496.394 L1987.51 502.894 Q1986.39 507.743 1986.14 508.199 Q1985.79 509.183 1985.02 509.71 Q1984.24 510.237 1983.47 510.237 Q1982.59 510.237 1981.99 509.71 Q1981.4 509.183 1981.4 508.27 Q1981.4 508.129 1981.5 507.602 Q1981.61 507.075 1981.78 506.337 Q1981.96 505.6 1982.03 505.178 L1986.21 488.56 Q1986.98 485.538 1987.16 484.59 Q1987.37 483.606 1987.37 482.517 Q1987.37 479.214 1985.12 479.214 Q1983.29 479.214 1982.1 481.392 Q1980.9 483.571 1979.89 487.787 Q1979.57 488.946 1979.36 489.192 Q1979.18 489.438 1978.66 489.438 Q1977.78 489.403 1977.78 488.7 Q1977.78 488.525 1978.06 487.365 Q1978.34 486.206 1978.87 484.554 Q1979.43 482.868 1979.96 481.744 Q1980.41 480.901 1980.66 480.514 Q1980.94 480.092 1981.61 479.284 Q1982.31 478.441 1983.22 478.055 Q1984.17 477.633 1985.33 477.633 Q1987.93 477.633 1989.83 479.32 Q1991.73 480.971 1991.97 483.887 Q1996.64 477.633 2003.18 477.633 Q2007.04 477.633 2009.26 479.671 Q2011.47 481.709 2011.47 485.327 Q2011.47 486.171 2011.3 487.26 Q2011.15 488.314 2010.8 489.649 Q2010.49 490.984 2010.21 492.003 Q2009.93 493.022 2009.36 494.673 Q2008.8 496.289 2008.55 496.992 Q2008.31 497.694 2007.71 499.346 Q2007.15 500.962 2007.08 501.138 Q2005.78 504.405 2005.78 506.267 Q2005.78 507.497 2006.17 508.059 Q2006.59 508.621 2007.5 508.621 Q2009.96 508.621 2011.79 506.197 Q2013.65 503.737 2014.84 499.732 Q2015.12 498.854 2015.27 498.643 Q2015.44 498.432 2015.93 498.432 Q2016.78 498.432 2016.78 499.135 Z" fill="#000000" fill-rule="evenodd" fill-opacity="1" /><path clip-path="url(#clip970)" d="M2057.33 473.514 Q2057.63 473.809 2057.63 474.227 Q2057.63 474.646 2057.33 474.941 Q2057.04 475.236 2056.62 475.236 L2025.09 475.236 Q2024.67 475.236 2024.38 474.941 Q2024.08 474.646 2024.08 474.227 Q2024.08 473.809 2024.38 473.514 Q2024.67 473.219 2025.09 473.219 L2056.62 473.219 Q2057.04 473.219 2057.33 473.514 Z" fill="#000000" fill-rule="evenodd" fill-opacity="1" /><path clip-path="url(#clip970)" d="M2062.89 480.032 Q2062.89 478.531 2063.75 477.818 Q2064.61 477.105 2065.71 477.105 Q2066.87 477.105 2067.68 477.867 Q2068.52 478.605 2068.52 479.909 Q2068.52 481.31 2067.53 482.097 Q2066.57 482.884 2065.2 482.688 Q2066.4 484.704 2068.62 485.614 Q2070.85 486.524 2072.92 486.524 Q2075.08 486.524 2076.83 484.655 Q2078.6 482.786 2078.6 478.212 Q2078.6 474.326 2077.08 472.088 Q2075.58 469.85 2072.6 469.85 L2070.39 469.85 Q2069.62 469.85 2069.4 469.776 Q2069.18 469.702 2069.18 469.284 Q2069.18 468.792 2069.94 468.694 Q2070.71 468.694 2071.91 468.546 Q2074.84 468.448 2076.39 465.915 Q2077.79 463.554 2077.79 460.185 Q2077.79 457.11 2076.31 455.832 Q2074.86 454.528 2072.97 454.528 Q2071.2 454.528 2069.26 455.266 Q2067.31 456.004 2066.26 457.651 Q2069.38 457.651 2069.38 460.185 Q2069.38 461.291 2068.67 462.029 Q2067.98 462.742 2066.82 462.742 Q2065.71 462.742 2064.98 462.054 Q2064.24 461.34 2064.24 460.135 Q2064.24 457.258 2066.8 455.266 Q2069.38 453.274 2073.17 453.274 Q2076.9 453.274 2079.66 455.241 Q2082.44 457.209 2082.44 460.234 Q2082.44 463.21 2080.47 465.644 Q2078.5 468.079 2075.38 469.087 Q2079.22 469.85 2081.5 472.457 Q2083.79 475.039 2083.79 478.212 Q2083.79 482.147 2080.69 485.049 Q2077.59 487.926 2073.07 487.926 Q2068.89 487.926 2065.89 485.664 Q2062.89 483.401 2062.89 480.032 Z" fill="#000000" fill-rule="evenodd" fill-opacity="1" /><polyline clip-path="url(#clip970)" style="stroke:#00a9ad; stroke-linecap:round; stroke-linejoin:round; stroke-width:6; stroke-opacity:1; fill:none" points="
  1816.32,559.669 1954.71,559.669 
  "/>
<path clip-path="url(#clip970)" d="M2016.78 576.543 Q2016.78 576.824 2016.46 577.913 Q2016.14 579.003 2015.37 580.689 Q2014.63 582.375 2013.61 583.921 Q2012.6 585.432 2010.91 586.556 Q2009.26 587.646 2007.36 587.646 Q2004.83 587.646 2003.14 585.959 Q2001.46 584.273 2001.46 581.743 Q2001.46 580.338 2002.2 578.405 Q2006.87 565.933 2006.87 561.647 Q2006.87 556.622 2002.97 556.622 Q2001.04 556.622 1999.21 557.36 Q1997.42 558.063 1996.19 559.047 Q1994.96 560.03 1993.83 561.401 Q1992.74 562.736 1992.18 563.649 Q1991.66 564.528 1991.23 565.406 L1990.32 568.99 Q1990.11 569.973 1989.09 573.803 L1987.51 580.303 Q1986.39 585.151 1986.14 585.608 Q1985.79 586.592 1985.02 587.119 Q1984.24 587.646 1983.47 587.646 Q1982.59 587.646 1981.99 587.119 Q1981.4 586.592 1981.4 585.678 Q1981.4 585.538 1981.5 585.01 Q1981.61 584.483 1981.78 583.746 Q1981.96 583.008 1982.03 582.586 L1986.21 565.968 Q1986.98 562.947 1987.16 561.998 Q1987.37 561.014 1987.37 559.925 Q1987.37 556.622 1985.12 556.622 Q1983.29 556.622 1982.1 558.801 Q1980.9 560.979 1979.89 565.195 Q1979.57 566.355 1979.36 566.6 Q1979.18 566.846 1978.66 566.846 Q1977.78 566.811 1977.78 566.109 Q1977.78 565.933 1978.06 564.774 Q1978.34 563.614 1978.87 561.963 Q1979.43 560.276 1979.96 559.152 Q1980.41 558.309 1980.66 557.922 Q1980.94 557.501 1981.61 556.693 Q1982.31 555.85 1983.22 555.463 Q1984.17 555.041 1985.33 555.041 Q1987.93 555.041 1989.83 556.728 Q1991.73 558.379 1991.97 561.295 Q1996.64 555.041 2003.18 555.041 Q2007.04 555.041 2009.26 557.079 Q2011.47 559.117 2011.47 562.736 Q2011.47 563.579 2011.3 564.668 Q2011.15 565.722 2010.8 567.057 Q2010.49 568.392 2010.21 569.411 Q2009.93 570.43 2009.36 572.081 Q2008.8 573.697 2008.55 574.4 Q2008.31 575.103 2007.71 576.754 Q2007.15 578.37 2007.08 578.546 Q2005.78 581.813 2005.78 583.675 Q2005.78 584.905 2006.17 585.467 Q2006.59 586.029 2007.5 586.029 Q2009.96 586.029 2011.79 583.605 Q2013.65 581.146 2014.84 577.141 Q2015.12 576.262 2015.27 576.051 Q2015.44 575.841 2015.93 575.841 Q2016.78 575.841 2016.78 576.543 Z" fill="#000000" fill-rule="evenodd" fill-opacity="1" /><path clip-path="url(#clip970)" d="M2057.33 552.184 Q2057.63 552.479 2057.63 552.897 Q2057.63 553.315 2057.33 553.61 Q2057.04 553.905 2056.62 553.905 L2025.09 553.905 Q2024.67 553.905 2024.38 553.61 Q2024.08 553.315 2024.08 552.897 Q2024.08 552.479 2024.38 552.184 Q2024.67 551.889 2025.09 551.889 L2056.62 551.889 Q2057.04 551.889 2057.33 552.184 Z" fill="#000000" fill-rule="evenodd" fill-opacity="1" /><path clip-path="url(#clip970)" d="M2062.89 557.176 L2062.89 555.627 L2078.36 531.992 Q2078.75 531.378 2079.36 531.402 Q2079.93 531.402 2080.05 531.624 Q2080.17 531.845 2080.17 532.706 L2080.17 555.627 L2085.22 555.627 L2085.22 557.176 L2080.17 557.176 L2080.17 561.554 Q2080.17 563.005 2080.77 563.472 Q2081.38 563.939 2083.99 563.939 L2085.04 563.939 L2085.04 565.489 Q2082.98 565.341 2078.21 565.341 Q2073.46 565.341 2071.4 565.489 L2071.4 563.939 L2072.45 563.939 Q2075.06 563.939 2075.67 563.497 Q2076.29 563.029 2076.29 561.554 L2076.29 557.176 L2062.89 557.176 M2064.31 555.627 L2076.58 555.627 L2076.58 536.837 L2064.31 555.627 Z" fill="#000000" fill-rule="evenodd" fill-opacity="1" /></svg>
