<?xml version="1.0" encoding="utf-8"?>
<svg xmlns="http://www.w3.org/2000/svg" xmlns:xlink="http://www.w3.org/1999/xlink" width="600" height="400" viewBox="0 0 2400 1600">
<defs>
  <clipPath id="clip290">
    <rect x="0" y="0" width="2400" height="1600"/>
  </clipPath>
</defs>
<path clip-path="url(#clip290)" d="
M0 1600 L2400 1600 L2400 0 L0 0  Z
  " fill="#ffffff" fill-rule="evenodd" fill-opacity="1"/>
<defs>
  <clipPath id="clip291">
    <rect x="480" y="0" width="1681" height="1600"/>
  </clipPath>
</defs>
<path clip-path="url(#clip290)" d="
M181.183 1486.45 L2352.76 1486.45 L2352.76 47.2441 L181.183 47.2441  Z
  " fill="#ffffff" fill-rule="evenodd" fill-opacity="1"/>
<defs>
  <clipPath id="clip292">
    <rect x="181" y="47" width="2173" height="1440"/>
  </clipPath>
</defs>
<polyline clip-path="url(#clip292)" style="stroke:#000000; stroke-linecap:round; stroke-linejoin:round; stroke-width:2; stroke-opacity:0.1; fill:none" points="
  181.183,1486.45 181.183,47.2441 
  "/>
<polyline clip-path="url(#clip292)" style="stroke:#000000; stroke-linecap:round; stroke-linejoin:round; stroke-width:2; stroke-opacity:0.1; fill:none" points="
  491.408,1486.45 491.408,47.2441 
  "/>
<polyline clip-path="url(#clip292)" style="stroke:#000000; stroke-linecap:round; stroke-linejoin:round; stroke-width:2; stroke-opacity:0.1; fill:none" points="
  801.632,1486.45 801.632,47.2441 
  "/>
<polyline clip-path="url(#clip292)" style="stroke:#000000; stroke-linecap:round; stroke-linejoin:round; stroke-width:2; stroke-opacity:0.1; fill:none" points="
  1111.86,1486.45 1111.86,47.2441 
  "/>
<polyline clip-path="url(#clip292)" style="stroke:#000000; stroke-linecap:round; stroke-linejoin:round; stroke-width:2; stroke-opacity:0.1; fill:none" points="
  1422.08,1486.45 1422.08,47.2441 
  "/>
<polyline clip-path="url(#clip292)" style="stroke:#000000; stroke-linecap:round; stroke-linejoin:round; stroke-width:2; stroke-opacity:0.1; fill:none" points="
  1732.31,1486.45 1732.31,47.2441 
  "/>
<polyline clip-path="url(#clip292)" style="stroke:#000000; stroke-linecap:round; stroke-linejoin:round; stroke-width:2; stroke-opacity:0.1; fill:none" points="
  2042.53,1486.45 2042.53,47.2441 
  "/>
<polyline clip-path="url(#clip292)" style="stroke:#000000; stroke-linecap:round; stroke-linejoin:round; stroke-width:2; stroke-opacity:0.1; fill:none" points="
  2352.76,1486.45 2352.76,47.2441 
  "/>
<polyline clip-path="url(#clip290)" style="stroke:#000000; stroke-linecap:round; stroke-linejoin:round; stroke-width:4; stroke-opacity:1; fill:none" points="
  181.183,1486.45 2352.76,1486.45 
  "/>
<polyline clip-path="url(#clip290)" style="stroke:#000000; stroke-linecap:round; stroke-linejoin:round; stroke-width:4; stroke-opacity:1; fill:none" points="
  181.183,1486.45 181.183,1467.55 
  "/>
<polyline clip-path="url(#clip290)" style="stroke:#000000; stroke-linecap:round; stroke-linejoin:round; stroke-width:4; stroke-opacity:1; fill:none" points="
  491.408,1486.45 491.408,1467.55 
  "/>
<polyline clip-path="url(#clip290)" style="stroke:#000000; stroke-linecap:round; stroke-linejoin:round; stroke-width:4; stroke-opacity:1; fill:none" points="
  801.632,1486.45 801.632,1467.55 
  "/>
<polyline clip-path="url(#clip290)" style="stroke:#000000; stroke-linecap:round; stroke-linejoin:round; stroke-width:4; stroke-opacity:1; fill:none" points="
  1111.86,1486.45 1111.86,1467.55 
  "/>
<polyline clip-path="url(#clip290)" style="stroke:#000000; stroke-linecap:round; stroke-linejoin:round; stroke-width:4; stroke-opacity:1; fill:none" points="
  1422.08,1486.45 1422.08,1467.55 
  "/>
<polyline clip-path="url(#clip290)" style="stroke:#000000; stroke-linecap:round; stroke-linejoin:round; stroke-width:4; stroke-opacity:1; fill:none" points="
  1732.31,1486.45 1732.31,1467.55 
  "/>
<polyline clip-path="url(#clip290)" style="stroke:#000000; stroke-linecap:round; stroke-linejoin:round; stroke-width:4; stroke-opacity:1; fill:none" points="
  2042.53,1486.45 2042.53,1467.55 
  "/>
<polyline clip-path="url(#clip290)" style="stroke:#000000; stroke-linecap:round; stroke-linejoin:round; stroke-width:4; stroke-opacity:1; fill:none" points="
  2352.76,1486.45 2352.76,1467.55 
  "/>
<path clip-path="url(#clip290)" d="M181.183 1517.37 Q177.572 1517.37 175.743 1520.93 Q173.938 1524.47 173.938 1531.6 Q173.938 1538.71 175.743 1542.27 Q177.572 1545.82 181.183 1545.82 Q184.817 1545.82 186.623 1542.27 Q188.451 1538.71 188.451 1531.6 Q188.451 1524.47 186.623 1520.93 Q184.817 1517.37 181.183 1517.37 M181.183 1513.66 Q186.993 1513.66 190.049 1518.27 Q193.127 1522.85 193.127 1531.6 Q193.127 1540.33 190.049 1544.94 Q186.993 1549.52 181.183 1549.52 Q175.373 1549.52 172.294 1544.94 Q169.239 1540.33 169.239 1531.6 Q169.239 1522.85 172.294 1518.27 Q175.373 1513.66 181.183 1513.66 Z" fill="#000000" fill-rule="evenodd" fill-opacity="1" /><path clip-path="url(#clip290)" d="M495.655 1530.21 Q499.012 1530.93 500.887 1533.2 Q502.785 1535.47 502.785 1538.8 Q502.785 1543.92 499.266 1546.72 Q495.748 1549.52 489.266 1549.52 Q487.09 1549.52 484.776 1549.08 Q482.484 1548.66 480.03 1547.81 L480.03 1543.29 Q481.975 1544.43 484.29 1545.01 Q486.604 1545.58 489.128 1545.58 Q493.526 1545.58 495.817 1543.85 Q498.132 1542.11 498.132 1538.8 Q498.132 1535.75 495.979 1534.03 Q493.85 1532.3 490.03 1532.3 L486.003 1532.3 L486.003 1528.45 L490.215 1528.45 Q493.665 1528.45 495.493 1527.09 Q497.322 1525.7 497.322 1523.11 Q497.322 1520.45 495.424 1519.03 Q493.549 1517.6 490.03 1517.6 Q488.109 1517.6 485.91 1518.01 Q483.711 1518.43 481.072 1519.31 L481.072 1515.14 Q483.734 1514.4 486.049 1514.03 Q488.387 1513.66 490.447 1513.66 Q495.771 1513.66 498.873 1516.09 Q501.975 1518.5 501.975 1522.62 Q501.975 1525.49 500.331 1527.48 Q498.688 1529.45 495.655 1530.21 Z" fill="#000000" fill-rule="evenodd" fill-opacity="1" /><path clip-path="url(#clip290)" d="M802.037 1529.7 Q798.889 1529.7 797.037 1531.86 Q795.209 1534.01 795.209 1537.76 Q795.209 1541.49 797.037 1543.66 Q798.889 1545.82 802.037 1545.82 Q805.186 1545.82 807.014 1543.66 Q808.866 1541.49 808.866 1537.76 Q808.866 1534.01 807.014 1531.86 Q805.186 1529.7 802.037 1529.7 M811.32 1515.05 L811.32 1519.31 Q809.561 1518.48 807.755 1518.04 Q805.973 1517.6 804.213 1517.6 Q799.584 1517.6 797.13 1520.72 Q794.699 1523.85 794.352 1530.17 Q795.718 1528.15 797.778 1527.09 Q799.838 1526 802.315 1526 Q807.523 1526 810.533 1529.17 Q813.565 1532.32 813.565 1537.76 Q813.565 1543.08 810.417 1546.3 Q807.269 1549.52 802.037 1549.52 Q796.042 1549.52 792.871 1544.94 Q789.7 1540.33 789.7 1531.6 Q789.7 1523.41 793.588 1518.55 Q797.477 1513.66 804.028 1513.66 Q805.787 1513.66 807.57 1514.01 Q809.375 1514.36 811.32 1515.05 Z" fill="#000000" fill-rule="evenodd" fill-opacity="1" /><path clip-path="url(#clip290)" d="M1102.16 1548.13 L1102.16 1543.87 Q1103.92 1544.7 1105.72 1545.14 Q1107.53 1545.58 1109.26 1545.58 Q1113.89 1545.58 1116.32 1542.48 Q1118.78 1539.36 1119.13 1533.01 Q1117.78 1535.01 1115.72 1536.07 Q1113.66 1537.13 1111.16 1537.13 Q1105.98 1537.13 1102.95 1534.01 Q1099.94 1530.86 1099.94 1525.42 Q1099.94 1520.1 1103.08 1516.88 Q1106.23 1513.66 1111.46 1513.66 Q1117.46 1513.66 1120.61 1518.27 Q1123.78 1522.85 1123.78 1531.6 Q1123.78 1539.77 1119.89 1544.66 Q1116.02 1549.52 1109.47 1549.52 Q1107.71 1549.52 1105.91 1549.17 Q1104.1 1548.82 1102.16 1548.13 M1111.46 1533.48 Q1114.61 1533.48 1116.44 1531.32 Q1118.29 1529.17 1118.29 1525.42 Q1118.29 1521.7 1116.44 1519.54 Q1114.61 1517.37 1111.46 1517.37 Q1108.32 1517.37 1106.46 1519.54 Q1104.63 1521.7 1104.63 1525.42 Q1104.63 1529.17 1106.46 1531.32 Q1108.32 1533.48 1111.46 1533.48 Z" fill="#000000" fill-rule="evenodd" fill-opacity="1" /><path clip-path="url(#clip290)" d="M1397.57 1544.91 L1405.21 1544.91 L1405.21 1518.55 L1396.9 1520.21 L1396.9 1515.95 L1405.16 1514.29 L1409.84 1514.29 L1409.84 1544.91 L1417.48 1544.91 L1417.48 1548.85 L1397.57 1548.85 L1397.57 1544.91 Z" fill="#000000" fill-rule="evenodd" fill-opacity="1" /><path clip-path="url(#clip290)" d="M1430.95 1544.91 L1447.27 1544.91 L1447.27 1548.85 L1425.32 1548.85 L1425.32 1544.91 Q1427.98 1542.16 1432.57 1537.53 Q1437.17 1532.88 1438.35 1531.53 Q1440.6 1529.01 1441.48 1527.27 Q1442.38 1525.51 1442.38 1523.82 Q1442.38 1521.07 1440.44 1519.33 Q1438.52 1517.6 1435.42 1517.6 Q1433.22 1517.6 1430.76 1518.36 Q1428.33 1519.13 1425.55 1520.68 L1425.55 1515.95 Q1428.38 1514.82 1430.83 1514.24 Q1433.29 1513.66 1435.32 1513.66 Q1440.69 1513.66 1443.89 1516.35 Q1447.08 1519.03 1447.08 1523.52 Q1447.08 1525.65 1446.27 1527.57 Q1445.48 1529.47 1443.38 1532.07 Q1442.8 1532.74 1439.7 1535.95 Q1436.6 1539.15 1430.95 1544.91 Z" fill="#000000" fill-rule="evenodd" fill-opacity="1" /><path clip-path="url(#clip290)" d="M1707.49 1544.91 L1715.13 1544.91 L1715.13 1518.55 L1706.82 1520.21 L1706.82 1515.95 L1715.08 1514.29 L1719.76 1514.29 L1719.76 1544.91 L1727.4 1544.91 L1727.4 1548.85 L1707.49 1548.85 L1707.49 1544.91 Z" fill="#000000" fill-rule="evenodd" fill-opacity="1" /><path clip-path="url(#clip290)" d="M1736.89 1514.29 L1755.25 1514.29 L1755.25 1518.22 L1741.17 1518.22 L1741.17 1526.7 Q1742.19 1526.35 1743.21 1526.19 Q1744.23 1526 1745.25 1526 Q1751.03 1526 1754.41 1529.17 Q1757.79 1532.34 1757.79 1537.76 Q1757.79 1543.34 1754.32 1546.44 Q1750.85 1549.52 1744.53 1549.52 Q1742.35 1549.52 1740.08 1549.15 Q1737.84 1548.78 1735.43 1548.04 L1735.43 1543.34 Q1737.51 1544.47 1739.74 1545.03 Q1741.96 1545.58 1744.44 1545.58 Q1748.44 1545.58 1750.78 1543.48 Q1753.12 1541.37 1753.12 1537.76 Q1753.12 1534.15 1750.78 1532.04 Q1748.44 1529.94 1744.44 1529.94 Q1742.56 1529.94 1740.69 1530.35 Q1738.83 1530.77 1736.89 1531.65 L1736.89 1514.29 Z" fill="#000000" fill-rule="evenodd" fill-opacity="1" /><path clip-path="url(#clip290)" d="M2017.27 1544.91 L2024.9 1544.91 L2024.9 1518.55 L2016.59 1520.21 L2016.59 1515.95 L2024.86 1514.29 L2029.53 1514.29 L2029.53 1544.91 L2037.17 1544.91 L2037.17 1548.85 L2017.27 1548.85 L2017.27 1544.91 Z" fill="#000000" fill-rule="evenodd" fill-opacity="1" /><path clip-path="url(#clip290)" d="M2056.62 1532.44 Q2053.28 1532.44 2051.36 1534.22 Q2049.46 1536 2049.46 1539.13 Q2049.46 1542.25 2051.36 1544.03 Q2053.28 1545.82 2056.62 1545.82 Q2059.95 1545.82 2061.87 1544.03 Q2063.79 1542.23 2063.79 1539.13 Q2063.79 1536 2061.87 1534.22 Q2059.97 1532.44 2056.62 1532.44 M2051.94 1530.45 Q2048.93 1529.7 2047.24 1527.64 Q2045.58 1525.58 2045.58 1522.62 Q2045.58 1518.48 2048.51 1516.07 Q2051.48 1513.66 2056.62 1513.66 Q2061.78 1513.66 2064.72 1516.07 Q2067.66 1518.48 2067.66 1522.62 Q2067.66 1525.58 2065.97 1527.64 Q2064.3 1529.7 2061.32 1530.45 Q2064.7 1531.23 2066.57 1533.52 Q2068.47 1535.82 2068.47 1539.13 Q2068.47 1544.15 2065.39 1546.83 Q2062.33 1549.52 2056.62 1549.52 Q2050.9 1549.52 2047.82 1546.83 Q2044.76 1544.15 2044.76 1539.13 Q2044.76 1535.82 2046.66 1533.52 Q2048.56 1531.23 2051.94 1530.45 M2050.23 1523.06 Q2050.23 1525.75 2051.89 1527.25 Q2053.58 1528.76 2056.62 1528.76 Q2059.63 1528.76 2061.32 1527.25 Q2063.03 1525.75 2063.03 1523.06 Q2063.03 1520.38 2061.32 1518.87 Q2059.63 1517.37 2056.62 1517.37 Q2053.58 1517.37 2051.89 1518.87 Q2050.23 1520.38 2050.23 1523.06 Z" fill="#000000" fill-rule="evenodd" fill-opacity="1" /><path clip-path="url(#clip290)" d="M2332.14 1544.91 L2348.46 1544.91 L2348.46 1548.85 L2326.52 1548.85 L2326.52 1544.91 Q2329.18 1542.16 2333.76 1537.53 Q2338.37 1532.88 2339.55 1531.53 Q2341.8 1529.01 2342.67 1527.27 Q2343.58 1525.51 2343.58 1523.82 Q2343.58 1521.07 2341.63 1519.33 Q2339.71 1517.6 2336.61 1517.6 Q2334.41 1517.6 2331.96 1518.36 Q2329.53 1519.13 2326.75 1520.68 L2326.75 1515.95 Q2329.57 1514.82 2332.03 1514.24 Q2334.48 1513.66 2336.52 1513.66 Q2341.89 1513.66 2345.08 1516.35 Q2348.28 1519.03 2348.28 1523.52 Q2348.28 1525.65 2347.47 1527.57 Q2346.68 1529.47 2344.57 1532.07 Q2343.99 1532.74 2340.89 1535.95 Q2337.79 1539.15 2332.14 1544.91 Z" fill="#000000" fill-rule="evenodd" fill-opacity="1" /><path clip-path="url(#clip290)" d="M2359.09 1544.91 L2366.73 1544.91 L2366.73 1518.55 L2358.42 1520.21 L2358.42 1515.95 L2366.68 1514.29 L2371.36 1514.29 L2371.36 1544.91 L2378.99 1544.91 L2378.99 1548.85 L2359.09 1548.85 L2359.09 1544.91 Z" fill="#000000" fill-rule="evenodd" fill-opacity="1" /><polyline clip-path="url(#clip292)" style="stroke:#000000; stroke-linecap:round; stroke-linejoin:round; stroke-width:2; stroke-opacity:0.1; fill:none" points="
  181.183,1346.96 2352.76,1346.96 
  "/>
<polyline clip-path="url(#clip292)" style="stroke:#000000; stroke-linecap:round; stroke-linejoin:round; stroke-width:2; stroke-opacity:0.1; fill:none" points="
  181.183,596.359 2352.76,596.359 
  "/>
<polyline clip-path="url(#clip290)" style="stroke:#000000; stroke-linecap:round; stroke-linejoin:round; stroke-width:4; stroke-opacity:1; fill:none" points="
  181.183,1486.45 181.183,47.2441 
  "/>
<polyline clip-path="url(#clip290)" style="stroke:#000000; stroke-linecap:round; stroke-linejoin:round; stroke-width:4; stroke-opacity:1; fill:none" points="
  181.183,1346.96 200.081,1346.96 
  "/>
<polyline clip-path="url(#clip290)" style="stroke:#000000; stroke-linecap:round; stroke-linejoin:round; stroke-width:4; stroke-opacity:1; fill:none" points="
  181.183,596.359 200.081,596.359 
  "/>
<path clip-path="url(#clip290)" d="M51.6634 1366.75 L59.3023 1366.75 L59.3023 1340.39 L50.9921 1342.05 L50.9921 1337.79 L59.256 1336.13 L63.9319 1336.13 L63.9319 1366.75 L71.5707 1366.75 L71.5707 1370.69 L51.6634 1370.69 L51.6634 1366.75 Z" fill="#000000" fill-rule="evenodd" fill-opacity="1" /><path clip-path="url(#clip290)" d="M91.0151 1339.2 Q87.404 1339.2 85.5753 1342.77 Q83.7697 1346.31 83.7697 1353.44 Q83.7697 1360.55 85.5753 1364.11 Q87.404 1367.65 91.0151 1367.65 Q94.6493 1367.65 96.4548 1364.11 Q98.2835 1360.55 98.2835 1353.44 Q98.2835 1346.31 96.4548 1342.77 Q94.6493 1339.2 91.0151 1339.2 M91.0151 1335.5 Q96.8252 1335.5 99.8808 1340.11 Q102.959 1344.69 102.959 1353.44 Q102.959 1362.17 99.8808 1366.77 Q96.8252 1371.36 91.0151 1371.36 Q85.2049 1371.36 82.1262 1366.77 Q79.0707 1362.17 79.0707 1353.44 Q79.0707 1344.69 82.1262 1340.11 Q85.2049 1335.5 91.0151 1335.5 Z" fill="#000000" fill-rule="evenodd" fill-opacity="1" /><path clip-path="url(#clip290)" d="M103.505 1340.08 L109.711 1340.08 L109.711 1318.66 L102.959 1320.01 L102.959 1316.55 L109.674 1315.2 L113.473 1315.2 L113.473 1340.08 L119.68 1340.08 L119.68 1343.28 L103.505 1343.28 L103.505 1340.08 Z" fill="#000000" fill-rule="evenodd" fill-opacity="1" /><path clip-path="url(#clip290)" d="M135.478 1317.7 Q132.544 1317.7 131.058 1320.59 Q129.591 1323.47 129.591 1329.26 Q129.591 1335.04 131.058 1337.93 Q132.544 1340.81 135.478 1340.81 Q138.431 1340.81 139.898 1337.93 Q141.384 1335.04 141.384 1329.26 Q141.384 1323.47 139.898 1320.59 Q138.431 1317.7 135.478 1317.7 M135.478 1314.69 Q140.199 1314.69 142.681 1318.43 Q145.183 1322.15 145.183 1329.26 Q145.183 1336.35 142.681 1340.1 Q140.199 1343.82 135.478 1343.82 Q130.757 1343.82 128.256 1340.1 Q125.773 1336.35 125.773 1329.26 Q125.773 1322.15 128.256 1318.43 Q130.757 1314.69 135.478 1314.69 Z" fill="#000000" fill-rule="evenodd" fill-opacity="1" /><path clip-path="url(#clip290)" d="M52.4722 616.152 L60.111 616.152 L60.111 589.786 L51.8009 591.453 L51.8009 587.193 L60.0647 585.527 L64.7406 585.527 L64.7406 616.152 L72.3795 616.152 L72.3795 620.087 L52.4722 620.087 L52.4722 616.152 Z" fill="#000000" fill-rule="evenodd" fill-opacity="1" /><path clip-path="url(#clip290)" d="M91.8238 588.605 Q88.2127 588.605 86.384 592.17 Q84.5785 595.712 84.5785 602.842 Q84.5785 609.948 86.384 613.513 Q88.2127 617.054 91.8238 617.054 Q95.458 617.054 97.2636 613.513 Q99.0923 609.948 99.0923 602.842 Q99.0923 595.712 97.2636 592.17 Q95.458 588.605 91.8238 588.605 M91.8238 584.902 Q97.6339 584.902 100.689 589.508 Q103.768 594.092 103.768 602.842 Q103.768 611.568 100.689 616.175 Q97.6339 620.758 91.8238 620.758 Q86.0136 620.758 82.935 616.175 Q79.8794 611.568 79.8794 602.842 Q79.8794 594.092 82.935 589.508 Q86.0136 584.902 91.8238 584.902 Z" fill="#000000" fill-rule="evenodd" fill-opacity="1" /><path clip-path="url(#clip290)" d="M104.314 589.479 L110.52 589.479 L110.52 568.057 L103.768 569.411 L103.768 565.951 L110.483 564.596 L114.282 564.596 L114.282 589.479 L120.488 589.479 L120.488 592.676 L104.314 592.676 L104.314 589.479 Z" fill="#000000" fill-rule="evenodd" fill-opacity="1" /><path clip-path="url(#clip290)" d="M128.199 564.596 L143.114 564.596 L143.114 567.794 L131.679 567.794 L131.679 574.677 Q132.506 574.395 133.334 574.264 Q134.162 574.113 134.989 574.113 Q139.691 574.113 142.437 576.69 Q145.183 579.266 145.183 583.667 Q145.183 588.2 142.362 590.72 Q139.541 593.222 134.406 593.222 Q132.638 593.222 130.795 592.921 Q128.971 592.62 127.015 592.018 L127.015 588.2 Q128.707 589.122 130.513 589.573 Q132.318 590.024 134.331 590.024 Q137.585 590.024 139.484 588.313 Q141.384 586.601 141.384 583.667 Q141.384 580.733 139.484 579.022 Q137.585 577.31 134.331 577.31 Q132.807 577.31 131.284 577.649 Q129.779 577.988 128.199 578.702 L128.199 564.596 Z" fill="#000000" fill-rule="evenodd" fill-opacity="1" /><polyline clip-path="url(#clip292)" style="stroke:#009af9; stroke-linecap:round; stroke-linejoin:round; stroke-width:16; stroke-opacity:1; fill:none" points="
  181.183,88.0347 184.717,96.1139 188.252,104.321 191.786,112.664 195.321,121.15 203.491,141.366 211.662,162.531 219.832,184.821 228.003,208.479 236.173,233.856 
  244.344,261.487 248.429,276.405 252.514,292.264 256.599,309.299 260.685,327.852 264.77,348.455 268.855,372.014 270.898,385.384 272.94,400.254 274.983,417.194 
  277.026,437.185 278.047,448.858 279.068,462.147 280.09,477.714 281.111,496.736 282.132,521.639 283.153,558.897 284.175,641.968 285.196,619.891 286.217,557.716 
  287.239,528.248 288.26,509.295 289.281,495.611 290.303,485.105 291.324,476.729 292.345,469.881 293.367,464.186 295.409,455.322 297.452,448.872 299.494,444.138 
  301.537,440.691 305.622,436.628 309.707,435.302 313.793,435.974 317.878,438.208 321.963,441.729 326.048,446.363 330.959,453.253 335.869,461.486 340.779,471.031 
  345.689,481.919 350.599,494.255 355.509,508.236 360.419,524.192 365.329,542.687 367.784,553.174 370.239,564.731 372.694,577.646 375.149,592.358 376.377,600.597 
  377.605,609.592 378.832,619.526 380.06,630.664 381.287,643.403 382.515,658.383 383.128,667.036 383.742,676.738 384.356,687.815 384.97,700.775 385.583,716.474 
  386.197,736.527 386.811,764.625 387.425,812.956 388.039,989.074 388.652,806.561 389.266,764.33 389.88,739.551 390.494,722.122 391.107,708.771 391.721,698.02 
  392.335,689.073 392.949,681.452 393.562,674.847 394.176,669.046 394.79,663.899 396.017,655.142 397.245,647.955 398.472,641.952 399.7,636.876 402.155,628.833 
  404.61,622.882 406.686,619.071 408.762,616.145 410.837,613.951 412.913,612.377 417.064,610.771 421.216,610.852 425.367,612.327 429.519,615.008 433.67,618.777 
  437.822,623.562 441.973,629.333 446.124,636.092 450.276,643.876 454.427,652.76 458.579,662.873 462.73,674.41 466.882,687.682 471.033,703.185 473.288,712.821 
  475.543,723.568 477.797,735.738 480.052,749.813 481.18,757.797 482.307,766.601 483.434,776.435 484.562,787.608 485.689,800.596 486.817,816.191 487.38,825.38 
  487.944,835.864 488.508,848.103 489.072,862.86 489.635,881.533 490.199,907.165 490.763,948.793 491.326,1084.53 491.89,969.102 492.454,919.335 493.017,891.936 
  493.581,873.07 494.145,858.75 494.709,847.26 495.272,837.705 495.836,829.558 496.4,822.482 496.963,816.248 497.527,810.693 498.091,805.701 499.218,797.058 
  500.346,789.811 501.473,783.632 502.6,778.298 504.855,769.577 507.11,762.808 511.62,753.304 516.129,747.517 520.639,744.343 525.148,743.171 529.658,743.634 
  534.168,745.507 538.677,748.655 543.187,753.005 547.344,758.059 551.502,764.133 555.659,771.282 559.817,779.602 563.974,789.252 568.132,800.477 572.289,813.663 
  576.447,829.452 578.525,838.65 580.604,849.001 582.683,860.842 584.762,874.706 585.801,882.655 586.84,891.497 587.88,901.475 588.919,912.953 589.959,926.509 
  590.998,943.139 591.518,953.153 592.037,964.81 592.557,978.794 593.077,996.328 593.596,1019.97 594.116,1056.67 594.636,1145.67 595.155,1104.82 595.675,1044.81 
  596.195,1014.49 596.714,994.16 597.234,978.914 597.754,966.755 598.273,956.674 598.793,948.087 599.313,940.627 600.352,928.179 601.392,918.09 602.431,909.669 
  603.47,902.495 604.51,896.287 605.549,890.853 607.628,881.783 609.706,874.534 611.935,868.268 614.164,863.213 616.392,859.125 618.621,855.835 623.078,851.188 
  627.535,848.609 631.993,847.705 636.45,848.231 640.907,850.04 645.364,853.045 649.822,857.213 654.279,862.555 658.736,869.128 663.193,877.048 667.651,886.503 
  672.108,897.801 674.337,904.286 676.565,911.443 678.794,919.394 681.022,928.307 683.605,940.153 686.187,954.193 687.478,962.32 688.769,971.426 690.06,981.789 
  691.351,993.832 691.996,1000.68 692.642,1008.24 693.287,1016.69 693.933,1026.27 694.578,1037.34 695.224,1050.49 695.869,1066.73 696.515,1088.06 697.16,1119.37 
  697.806,1180.34 698.451,1222.41 699.097,1134.33 699.743,1098.62 700.388,1075.99 701.034,1059.48 701.679,1046.51 702.325,1035.88 702.97,1026.9 703.616,1019.14 
  704.261,1012.33 705.552,1000.85 706.843,991.46 708.134,983.582 709.425,976.852 710.716,971.026 712.007,965.932 714.589,957.47 717.172,950.782 719.754,945.448 
  722.336,941.194 727.5,935.223 732.664,931.901 737.828,930.696 742.992,931.302 748.157,933.551 753.321,937.375 758.485,942.786 763.649,949.885 768.238,957.774 
  772.828,967.404 777.417,979.183 782.006,993.802 784.301,1002.54 786.595,1012.54 788.89,1024.19 791.185,1038.13 792.332,1046.26 793.479,1055.43 794.627,1065.96 
  795.774,1078.32 796.348,1085.43 796.921,1093.34 797.495,1102.25 798.069,1112.49 798.642,1124.53 799.216,1139.15 799.79,1157.84 800.363,1183.8 800.937,1226.98 
  801.511,1399.92 802.084,1237.62 802.658,1190.16 803.232,1163.23 803.805,1144.42 804.379,1130 804.953,1118.32 805.526,1108.54 806.1,1100.14 806.674,1092.79 
  807.247,1086.27 808.395,1075.13 809.542,1065.87 811.837,1051.19 814.131,1039.94 816.426,1030.99 818.721,1023.72 823.31,1012.75 827.899,1005.17 832.488,1000.06 
  837.078,996.861 841.102,995.387 845.127,995.008 849.151,995.637 853.175,997.227 857.2,999.756 861.224,1003.24 865.249,1007.71 869.273,1013.26 873.297,1019.99 
  877.322,1028.1 881.346,1037.87 885.37,1049.76 887.383,1056.72 889.395,1064.53 891.407,1073.4 893.419,1083.62 895.431,1095.63 897.444,1110.17 898.45,1118.76 
  899.456,1128.58 900.462,1140.01 901.468,1153.75 902.017,1162.58 902.565,1172.71 903.113,1184.62 903.662,1199.12 904.21,1217.65 904.759,1243.28 905.307,1285.97 
  905.856,1445.72 906.404,1298.74 906.953,1250.63 907.501,1223.38 908.05,1204.38 908.598,1189.84 909.147,1178.04 909.695,1168.15 910.243,1159.63 911.34,1145.58 
  912.437,1134.25 913.534,1124.83 914.631,1116.78 916.825,1103.67 919.019,1093.35 921.213,1084.96 923.406,1078.03 925.6,1072.23 927.794,1067.35 932.182,1059.77 
  936.569,1054.49 940.957,1051.03 945.345,1049.12 949.732,1048.58 954.12,1049.34 958.508,1051.34 962.896,1054.63 967.283,1059.28 971.671,1065.43 976.085,1073.4 
  980.498,1083.6 982.705,1089.77 984.912,1096.79 987.119,1104.9 989.326,1114.39 991.533,1125.73 993.74,1139.6 994.843,1147.89 995.947,1157.43 997.05,1168.65 
  998.153,1182.23 998.705,1190.24 999.257,1199.22 999.809,1209.82 1000.36,1222.41 1000.91,1238.19 1001.46,1258.95 1002.02,1288.87 1002.57,1347.14 1003.12,1401.03 
  1003.67,1306.58 1004.22,1269.24 1004.77,1246.17 1005.33,1228.81 1005.88,1215.39 1006.43,1204.26 1006.98,1194.67 1008.08,1179.21 1009.19,1166.73 1010.29,1156.34 
  1011.39,1147.55 1013.6,1133.01 1015.81,1121.48 1018.02,1111.93 1020.22,1103.93 1022.43,1097.04 1024.64,1091.11 1029.05,1081.34 1033.46,1073.82 1037.88,1067.99 
  1042.29,1063.53 1047.17,1059.92 1052.05,1057.53 1056.93,1056.24 1061.81,1055.89 1071.57,1057.82 1081.33,1063.03 1091.09,1071.32 1100.85,1082.4 1110.61,1096.05 
  1120.37,1111.22 1129.66,1125.29 1138.94,1135.05 1143.59,1137.08 1148.23,1136.72 1150.55,1135.36 1152.87,1133.54 1155.19,1131.18 1157.52,1128.3 1166.8,1112.89 
  1176.09,1094.75 1185.37,1076.6 1194.66,1059.88 1204.32,1044.39 1213.97,1030.88 1223.63,1019.34 1233.28,1009.52 1242.94,1001.21 1252.59,994.338 1262.25,988.466 
  1271.91,983.576 1304.42,971.652 1336.93,960.531 1356.78,951.485 1376.62,940.18 1396.47,927.421 1416.32,914.16 1434.5,902.435 1452.68,891.657 1470.86,882.04 
  1489.04,873.398 1522.62,859.379 1556.21,845.568 1590.22,829.873 1624.24,812.362 1662.37,792.935 1700.49,776.261 1735.04,763.935 1769.59,752.436 1809.14,736.292 
  1848.7,715.832 1867.01,706.358 1885.32,697.58 1903.63,690.485 1921.94,685.606 1940,683.167 1958.05,683.154 1976.1,684.191 1994.16,683.219 2002.92,681.049 
  2011.69,676.882 2020.45,670.551 2029.21,662.11 2046.74,640.379 2064.27,616.381 2073.26,604.622 2082.24,593.896 2091.22,584.718 2100.21,577.175 2104.7,574.37 
  2109.19,572.025 2113.68,570.649 2118.18,570.305 2122.67,570.785 2127.16,572.806 2131.65,576.442 2136.15,582.607 2138.61,587.335 2141.07,593.19 2143.53,600.919 
  2145.99,611.098 2147.22,617.402 2148.45,624.514 2149.68,633.639 2150.91,644.982 2151.53,651.614 2152.14,658.345 2152.76,667.439 2153.37,678.242 2153.99,691.295 
  2154.6,706.99 2155.22,728.79 2155.83,764.288 2156.45,856.75 2157.06,807.119 2157.68,747.561 2158.29,717.03 2158.91,694.677 2159.52,678.139 2160.14,665.645 
  2160.75,653.732 2161.37,644.192 2161.99,635.771 2162.6,627.781 2163.22,620.566 2164.45,607.776 2165.68,597.226 2166.91,587.192 2168.14,578.54 2169.37,570.614 
  2170.6,563.241 2173.06,550.137 2175.52,538.548 2180.44,518.944 2185.36,502.556 2190.29,488.68 2195.21,476.794 2200.13,466.632 2205.05,458.078 2209.97,451.227 
  2214.89,446.055 2218.47,443.54 2222.04,442.254 2225.62,442.452 2229.19,444.475 2230.98,446.448 2232.77,449.167 2234.56,452.759 2236.34,457.551 2238.13,463.875 
  2239.92,472.396 2240.81,477.744 2241.7,484.045 2242.6,491.747 2243.49,501.05 2244.39,512.778 2245.28,528.223 2246.17,550.388 2247.07,586.911 2247.96,692.823 
  2248.85,613.861 2249.75,557.407 2250.64,526.031 2251.54,503.898 2252.43,486.606 2253.32,472.22 2254.22,459.777 2255.11,448.785 2256,438.918 2256.9,429.897 
  2257.79,421.573 2259.58,406.56 2261.37,393.202 2263.15,381.096 2264.94,369.916 2268.52,349.772 2272.09,331.78 2275.67,315.358 2279.24,300.127 2282.82,285.863 
  2286.39,272.389 2293.54,247.309 2300.69,224.178 2314.99,182.146 2329.29,144.185 2335.15,129.51 2341.02,115.279 2346.89,101.445 2352.76,87.9763 
  "/>
<path clip-path="url(#clip290)" d="
M1960.44 250.738 L2280.37 250.738 L2280.37 95.2176 L1960.44 95.2176  Z
  " fill="#ffffff" fill-rule="evenodd" fill-opacity="1"/>
<polyline clip-path="url(#clip290)" style="stroke:#000000; stroke-linecap:round; stroke-linejoin:round; stroke-width:4; stroke-opacity:1; fill:none" points="
  1960.44,250.738 2280.37,250.738 2280.37,95.2176 1960.44,95.2176 1960.44,250.738 
  "/>
<polyline clip-path="url(#clip290)" style="stroke:#009af9; stroke-linecap:round; stroke-linejoin:round; stroke-width:6; stroke-opacity:1; fill:none" points="
  1984.57,172.978 2129.34,172.978 
  "/>
<path clip-path="url(#clip290)" d="M2174.23 202.509 Q2171.52 209.453 2168.95 211.571 Q2166.38 213.689 2162.08 213.689 L2156.97 213.689 L2156.97 208.342 L2160.72 208.342 Q2163.36 208.342 2164.82 207.092 Q2166.28 205.842 2168.05 201.189 L2169.2 198.273 L2153.47 160.009 L2160.24 160.009 L2172.39 190.425 L2184.54 160.009 L2191.31 160.009 L2174.23 202.509 Z" fill="#000000" fill-rule="evenodd" fill-opacity="1" /><path clip-path="url(#clip290)" d="M2202.25 192.995 L2213.71 192.995 L2213.71 153.446 L2201.25 155.946 L2201.25 149.558 L2213.64 147.058 L2220.65 147.058 L2220.65 192.995 L2232.11 192.995 L2232.11 198.898 L2202.25 198.898 L2202.25 192.995 Z" fill="#000000" fill-rule="evenodd" fill-opacity="1" /></svg>
