<?xml version="1.0" encoding="utf-8"?>
<svg xmlns="http://www.w3.org/2000/svg" xmlns:xlink="http://www.w3.org/1999/xlink" width="600" height="400" viewBox="0 0 2400 1600">
<defs>
  <clipPath id="clip050">
    <rect x="0" y="0" width="2400" height="1600"/>
  </clipPath>
</defs>
<path clip-path="url(#clip050)" d="
M0 1600 L2400 1600 L2400 0 L0 0  Z
  " fill="#ffffff" fill-rule="evenodd" fill-opacity="1"/>
<defs>
  <clipPath id="clip051">
    <rect x="480" y="0" width="1681" height="1600"/>
  </clipPath>
</defs>
<path clip-path="url(#clip050)" d="
M203.964 1423.18 L2352.76 1423.18 L2352.76 47.2441 L203.964 47.2441  Z
  " fill="#ffffff" fill-rule="evenodd" fill-opacity="1"/>
<defs>
  <clipPath id="clip052">
    <rect x="203" y="47" width="2150" height="1377"/>
  </clipPath>
</defs>
<polyline clip-path="url(#clip052)" style="stroke:#000000; stroke-linecap:round; stroke-linejoin:round; stroke-width:2; stroke-opacity:0.1; fill:none" points="
  442.718,1423.18 442.718,47.2441 
  "/>
<polyline clip-path="url(#clip052)" style="stroke:#000000; stroke-linecap:round; stroke-linejoin:round; stroke-width:2; stroke-opacity:0.1; fill:none" points="
  920.228,1423.18 920.228,47.2441 
  "/>
<polyline clip-path="url(#clip052)" style="stroke:#000000; stroke-linecap:round; stroke-linejoin:round; stroke-width:2; stroke-opacity:0.1; fill:none" points="
  1397.74,1423.18 1397.74,47.2441 
  "/>
<polyline clip-path="url(#clip052)" style="stroke:#000000; stroke-linecap:round; stroke-linejoin:round; stroke-width:2; stroke-opacity:0.1; fill:none" points="
  1875.25,1423.18 1875.25,47.2441 
  "/>
<polyline clip-path="url(#clip052)" style="stroke:#000000; stroke-linecap:round; stroke-linejoin:round; stroke-width:2; stroke-opacity:0.1; fill:none" points="
  2352.76,1423.18 2352.76,47.2441 
  "/>
<polyline clip-path="url(#clip050)" style="stroke:#000000; stroke-linecap:round; stroke-linejoin:round; stroke-width:4; stroke-opacity:1; fill:none" points="
  203.964,1423.18 2352.76,1423.18 
  "/>
<polyline clip-path="url(#clip050)" style="stroke:#000000; stroke-linecap:round; stroke-linejoin:round; stroke-width:4; stroke-opacity:1; fill:none" points="
  442.718,1423.18 442.718,1404.28 
  "/>
<polyline clip-path="url(#clip050)" style="stroke:#000000; stroke-linecap:round; stroke-linejoin:round; stroke-width:4; stroke-opacity:1; fill:none" points="
  920.228,1423.18 920.228,1404.28 
  "/>
<polyline clip-path="url(#clip050)" style="stroke:#000000; stroke-linecap:round; stroke-linejoin:round; stroke-width:4; stroke-opacity:1; fill:none" points="
  1397.74,1423.18 1397.74,1404.28 
  "/>
<polyline clip-path="url(#clip050)" style="stroke:#000000; stroke-linecap:round; stroke-linejoin:round; stroke-width:4; stroke-opacity:1; fill:none" points="
  1875.25,1423.18 1875.25,1404.28 
  "/>
<polyline clip-path="url(#clip050)" style="stroke:#000000; stroke-linecap:round; stroke-linejoin:round; stroke-width:4; stroke-opacity:1; fill:none" points="
  2352.76,1423.18 2352.76,1404.28 
  "/>
<path clip-path="url(#clip050)" d="M420.901 1454.1 Q417.29 1454.1 415.461 1457.66 Q413.656 1461.2 413.656 1468.33 Q413.656 1475.44 415.461 1479.01 Q417.29 1482.55 420.901 1482.55 Q424.536 1482.55 426.341 1479.01 Q428.17 1475.44 428.17 1468.33 Q428.17 1461.2 426.341 1457.66 Q424.536 1454.1 420.901 1454.1 M420.901 1450.39 Q426.711 1450.39 429.767 1455 Q432.846 1459.58 432.846 1468.33 Q432.846 1477.06 429.767 1481.67 Q426.711 1486.25 420.901 1486.25 Q415.091 1486.25 412.012 1481.67 Q408.957 1477.06 408.957 1468.33 Q408.957 1459.58 412.012 1455 Q415.091 1450.39 420.901 1450.39 Z" fill="#000000" fill-rule="evenodd" fill-opacity="1" /><path clip-path="url(#clip050)" d="M441.063 1479.7 L445.947 1479.7 L445.947 1485.58 L441.063 1485.58 L441.063 1479.7 Z" fill="#000000" fill-rule="evenodd" fill-opacity="1" /><path clip-path="url(#clip050)" d="M460.16 1481.64 L476.48 1481.64 L476.48 1485.58 L454.535 1485.58 L454.535 1481.64 Q457.197 1478.89 461.781 1474.26 Q466.387 1469.61 467.568 1468.27 Q469.813 1465.74 470.693 1464.01 Q471.595 1462.25 471.595 1460.56 Q471.595 1457.8 469.651 1456.07 Q467.73 1454.33 464.628 1454.33 Q462.429 1454.33 459.975 1455.09 Q457.545 1455.86 454.767 1457.41 L454.767 1452.69 Q457.591 1451.55 460.045 1450.97 Q462.498 1450.39 464.535 1450.39 Q469.906 1450.39 473.1 1453.08 Q476.294 1455.77 476.294 1460.26 Q476.294 1462.39 475.484 1464.31 Q474.697 1466.2 472.591 1468.8 Q472.012 1469.47 468.91 1472.69 Q465.808 1475.88 460.16 1481.64 Z" fill="#000000" fill-rule="evenodd" fill-opacity="1" /><path clip-path="url(#clip050)" d="M897.369 1454.1 Q893.758 1454.1 891.929 1457.66 Q890.124 1461.2 890.124 1468.33 Q890.124 1475.44 891.929 1479.01 Q893.758 1482.55 897.369 1482.55 Q901.003 1482.55 902.809 1479.01 Q904.637 1475.44 904.637 1468.33 Q904.637 1461.2 902.809 1457.66 Q901.003 1454.1 897.369 1454.1 M897.369 1450.39 Q903.179 1450.39 906.235 1455 Q909.313 1459.58 909.313 1468.33 Q909.313 1477.06 906.235 1481.67 Q903.179 1486.25 897.369 1486.25 Q891.559 1486.25 888.48 1481.67 Q885.425 1477.06 885.425 1468.33 Q885.425 1459.58 888.48 1455 Q891.559 1450.39 897.369 1450.39 Z" fill="#000000" fill-rule="evenodd" fill-opacity="1" /><path clip-path="url(#clip050)" d="M917.531 1479.7 L922.415 1479.7 L922.415 1485.58 L917.531 1485.58 L917.531 1479.7 Z" fill="#000000" fill-rule="evenodd" fill-opacity="1" /><path clip-path="url(#clip050)" d="M945.447 1455.09 L933.642 1473.54 L945.447 1473.54 L945.447 1455.09 M944.221 1451.02 L950.1 1451.02 L950.1 1473.54 L955.031 1473.54 L955.031 1477.43 L950.1 1477.43 L950.1 1485.58 L945.447 1485.58 L945.447 1477.43 L929.846 1477.43 L929.846 1472.92 L944.221 1451.02 Z" fill="#000000" fill-rule="evenodd" fill-opacity="1" /><path clip-path="url(#clip050)" d="M1375.04 1454.1 Q1371.43 1454.1 1369.6 1457.66 Q1367.8 1461.2 1367.8 1468.33 Q1367.8 1475.44 1369.6 1479.01 Q1371.43 1482.55 1375.04 1482.55 Q1378.67 1482.55 1380.48 1479.01 Q1382.31 1475.44 1382.31 1468.33 Q1382.31 1461.2 1380.48 1457.66 Q1378.67 1454.1 1375.04 1454.1 M1375.04 1450.39 Q1380.85 1450.39 1383.91 1455 Q1386.98 1459.58 1386.98 1468.33 Q1386.98 1477.06 1383.91 1481.67 Q1380.85 1486.25 1375.04 1486.25 Q1369.23 1486.25 1366.15 1481.67 Q1363.1 1477.06 1363.1 1468.33 Q1363.1 1459.58 1366.15 1455 Q1369.23 1450.39 1375.04 1450.39 Z" fill="#000000" fill-rule="evenodd" fill-opacity="1" /><path clip-path="url(#clip050)" d="M1395.2 1479.7 L1400.09 1479.7 L1400.09 1485.58 L1395.2 1485.58 L1395.2 1479.7 Z" fill="#000000" fill-rule="evenodd" fill-opacity="1" /><path clip-path="url(#clip050)" d="M1420.85 1466.44 Q1417.7 1466.44 1415.85 1468.59 Q1414.02 1470.74 1414.02 1474.49 Q1414.02 1478.22 1415.85 1480.39 Q1417.7 1482.55 1420.85 1482.55 Q1424 1482.55 1425.83 1480.39 Q1427.68 1478.22 1427.68 1474.49 Q1427.68 1470.74 1425.83 1468.59 Q1424 1466.44 1420.85 1466.44 M1430.13 1451.78 L1430.13 1456.04 Q1428.37 1455.21 1426.57 1454.77 Q1424.79 1454.33 1423.03 1454.33 Q1418.4 1454.33 1415.94 1457.45 Q1413.51 1460.58 1413.17 1466.9 Q1414.53 1464.89 1416.59 1463.82 Q1418.65 1462.73 1421.13 1462.73 Q1426.34 1462.73 1429.35 1465.9 Q1432.38 1469.05 1432.38 1474.49 Q1432.38 1479.82 1429.23 1483.03 Q1426.08 1486.25 1420.85 1486.25 Q1414.86 1486.25 1411.68 1481.67 Q1408.51 1477.06 1408.51 1468.33 Q1408.51 1460.14 1412.4 1455.28 Q1416.29 1450.39 1422.84 1450.39 Q1424.6 1450.39 1426.38 1450.74 Q1428.19 1451.09 1430.13 1451.78 Z" fill="#000000" fill-rule="evenodd" fill-opacity="1" /><path clip-path="url(#clip050)" d="M1852.68 1454.1 Q1849.07 1454.1 1847.24 1457.66 Q1845.43 1461.2 1845.43 1468.33 Q1845.43 1475.44 1847.24 1479.01 Q1849.07 1482.55 1852.68 1482.55 Q1856.31 1482.55 1858.12 1479.01 Q1859.95 1475.44 1859.95 1468.33 Q1859.95 1461.2 1858.12 1457.66 Q1856.31 1454.1 1852.68 1454.1 M1852.68 1450.39 Q1858.49 1450.39 1861.54 1455 Q1864.62 1459.58 1864.62 1468.33 Q1864.62 1477.06 1861.54 1481.67 Q1858.49 1486.25 1852.68 1486.25 Q1846.87 1486.25 1843.79 1481.67 Q1840.73 1477.06 1840.73 1468.33 Q1840.73 1459.58 1843.79 1455 Q1846.87 1450.39 1852.68 1450.39 Z" fill="#000000" fill-rule="evenodd" fill-opacity="1" /><path clip-path="url(#clip050)" d="M1872.84 1479.7 L1877.72 1479.7 L1877.72 1485.58 L1872.84 1485.58 L1872.84 1479.7 Z" fill="#000000" fill-rule="evenodd" fill-opacity="1" /><path clip-path="url(#clip050)" d="M1897.91 1469.17 Q1894.58 1469.17 1892.65 1470.95 Q1890.76 1472.73 1890.76 1475.86 Q1890.76 1478.98 1892.65 1480.77 Q1894.58 1482.55 1897.91 1482.55 Q1901.24 1482.55 1903.16 1480.77 Q1905.08 1478.96 1905.08 1475.86 Q1905.08 1472.73 1903.16 1470.95 Q1901.26 1469.17 1897.91 1469.17 M1893.23 1467.18 Q1890.22 1466.44 1888.53 1464.38 Q1886.87 1462.32 1886.87 1459.35 Q1886.87 1455.21 1889.81 1452.8 Q1892.77 1450.39 1897.91 1450.39 Q1903.07 1450.39 1906.01 1452.8 Q1908.95 1455.21 1908.95 1459.35 Q1908.95 1462.32 1907.26 1464.38 Q1905.59 1466.44 1902.61 1467.18 Q1905.99 1467.96 1907.86 1470.26 Q1909.76 1472.55 1909.76 1475.86 Q1909.76 1480.88 1906.68 1483.57 Q1903.63 1486.25 1897.91 1486.25 Q1892.19 1486.25 1889.11 1483.57 Q1886.06 1480.88 1886.06 1475.86 Q1886.06 1472.55 1887.95 1470.26 Q1889.85 1467.96 1893.23 1467.18 M1891.52 1459.79 Q1891.52 1462.48 1893.19 1463.98 Q1894.88 1465.49 1897.91 1465.49 Q1900.92 1465.49 1902.61 1463.98 Q1904.32 1462.48 1904.32 1459.79 Q1904.32 1457.11 1902.61 1455.6 Q1900.92 1454.1 1897.91 1454.1 Q1894.88 1454.1 1893.19 1455.6 Q1891.52 1457.11 1891.52 1459.79 Z" fill="#000000" fill-rule="evenodd" fill-opacity="1" /><path clip-path="url(#clip050)" d="M2319.91 1481.64 L2327.55 1481.64 L2327.55 1455.28 L2319.24 1456.95 L2319.24 1452.69 L2327.5 1451.02 L2332.18 1451.02 L2332.18 1481.64 L2339.82 1481.64 L2339.82 1485.58 L2319.91 1485.58 L2319.91 1481.64 Z" fill="#000000" fill-rule="evenodd" fill-opacity="1" /><path clip-path="url(#clip050)" d="M2349.26 1479.7 L2354.14 1479.7 L2354.14 1485.58 L2349.26 1485.58 L2349.26 1479.7 Z" fill="#000000" fill-rule="evenodd" fill-opacity="1" /><path clip-path="url(#clip050)" d="M2374.33 1454.1 Q2370.72 1454.1 2368.89 1457.66 Q2367.08 1461.2 2367.08 1468.33 Q2367.08 1475.44 2368.89 1479.01 Q2370.72 1482.55 2374.33 1482.55 Q2377.96 1482.55 2379.77 1479.01 Q2381.6 1475.44 2381.6 1468.33 Q2381.6 1461.2 2379.77 1457.66 Q2377.96 1454.1 2374.33 1454.1 M2374.33 1450.39 Q2380.14 1450.39 2383.2 1455 Q2386.27 1459.58 2386.27 1468.33 Q2386.27 1477.06 2383.2 1481.67 Q2380.14 1486.25 2374.33 1486.25 Q2368.52 1486.25 2365.44 1481.67 Q2362.39 1477.06 2362.39 1468.33 Q2362.39 1459.58 2365.44 1455 Q2368.52 1450.39 2374.33 1450.39 Z" fill="#000000" fill-rule="evenodd" fill-opacity="1" /><path clip-path="url(#clip050)" d="M1146.92 1537.81 L1146.92 1518.52 L1152.78 1518.52 L1152.78 1568.04 L1146.92 1568.04 L1146.92 1562.7 Q1145.08 1565.88 1142.25 1567.44 Q1139.44 1568.97 1135.5 1568.97 Q1129.04 1568.97 1124.96 1563.81 Q1120.92 1558.65 1120.92 1550.25 Q1120.92 1541.85 1124.96 1536.69 Q1129.04 1531.54 1135.5 1531.54 Q1139.44 1531.54 1142.25 1533.1 Q1145.08 1534.62 1146.92 1537.81 M1126.97 1550.25 Q1126.97 1556.71 1129.61 1560.4 Q1132.28 1564.07 1136.93 1564.07 Q1141.58 1564.07 1144.25 1560.4 Q1146.92 1556.71 1146.92 1550.25 Q1146.92 1543.79 1144.25 1540.13 Q1141.58 1536.44 1136.93 1536.44 Q1132.28 1536.44 1129.61 1540.13 Q1126.97 1543.79 1126.97 1550.25 Z" fill="#000000" fill-rule="evenodd" fill-opacity="1" /><path clip-path="url(#clip050)" d="M1195.34 1548.76 L1195.34 1551.62 L1168.41 1551.62 Q1168.79 1557.67 1172.04 1560.85 Q1175.31 1564 1181.14 1564 Q1184.51 1564 1187.66 1563.17 Q1190.85 1562.35 1193.97 1560.69 L1193.97 1566.23 Q1190.82 1567.57 1187.51 1568.27 Q1184.2 1568.97 1180.79 1568.97 Q1172.26 1568.97 1167.26 1564 Q1162.3 1559.04 1162.3 1550.57 Q1162.3 1541.82 1167.01 1536.69 Q1171.75 1531.54 1179.77 1531.54 Q1186.96 1531.54 1191.13 1536.18 Q1195.34 1540.8 1195.34 1548.76 M1189.48 1547.04 Q1189.41 1542.23 1186.77 1539.37 Q1184.16 1536.5 1179.83 1536.5 Q1174.93 1536.5 1171.97 1539.27 Q1169.04 1542.04 1168.6 1547.07 L1189.48 1547.04 Z" fill="#000000" fill-rule="evenodd" fill-opacity="1" /><path clip-path="url(#clip050)" d="M1210.61 1562.7 L1210.61 1581.6 L1204.72 1581.6 L1204.72 1532.4 L1210.61 1532.4 L1210.61 1537.81 Q1212.46 1534.62 1215.26 1533.1 Q1218.09 1531.54 1222.01 1531.54 Q1228.5 1531.54 1232.54 1536.69 Q1236.62 1541.85 1236.62 1550.25 Q1236.62 1558.65 1232.54 1563.81 Q1228.5 1568.97 1222.01 1568.97 Q1218.09 1568.97 1215.26 1567.44 Q1212.46 1565.88 1210.61 1562.7 M1230.54 1550.25 Q1230.54 1543.79 1227.86 1540.13 Q1225.22 1536.44 1220.58 1536.44 Q1215.93 1536.44 1213.25 1540.13 Q1210.61 1543.79 1210.61 1550.25 Q1210.61 1556.71 1213.25 1560.4 Q1215.93 1564.07 1220.58 1564.07 Q1225.22 1564.07 1227.86 1560.4 Q1230.54 1556.71 1230.54 1550.25 Z" fill="#000000" fill-rule="evenodd" fill-opacity="1" /><path clip-path="url(#clip050)" d="M1262.53 1550.12 Q1255.43 1550.12 1252.69 1551.75 Q1249.95 1553.37 1249.95 1557.29 Q1249.95 1560.4 1251.99 1562.25 Q1254.06 1564.07 1257.59 1564.07 Q1262.46 1564.07 1265.39 1560.63 Q1268.35 1557.16 1268.35 1551.43 L1268.35 1550.12 L1262.53 1550.12 M1274.21 1547.71 L1274.21 1568.04 L1268.35 1568.04 L1268.35 1562.63 Q1266.34 1565.88 1263.35 1567.44 Q1260.36 1568.97 1256.03 1568.97 Q1250.56 1568.97 1247.31 1565.91 Q1244.1 1562.82 1244.1 1557.67 Q1244.1 1551.65 1248.11 1548.6 Q1252.15 1545.54 1260.14 1545.54 L1268.35 1545.54 L1268.35 1544.97 Q1268.35 1540.93 1265.68 1538.73 Q1263.03 1536.5 1258.23 1536.5 Q1255.17 1536.5 1252.28 1537.23 Q1249.38 1537.97 1246.71 1539.43 L1246.71 1534.02 Q1249.92 1532.78 1252.94 1532.17 Q1255.97 1531.54 1258.83 1531.54 Q1266.57 1531.54 1270.39 1535.55 Q1274.21 1539.56 1274.21 1547.71 Z" fill="#000000" fill-rule="evenodd" fill-opacity="1" /><path clip-path="url(#clip050)" d="M1306.93 1537.87 Q1305.94 1537.3 1304.76 1537.04 Q1303.62 1536.76 1302.22 1536.76 Q1297.25 1536.76 1294.58 1540 Q1291.93 1543.22 1291.93 1549.27 L1291.93 1568.04 L1286.05 1568.04 L1286.05 1532.4 L1291.93 1532.4 L1291.93 1537.93 Q1293.78 1534.69 1296.74 1533.13 Q1299.7 1531.54 1303.93 1531.54 Q1304.54 1531.54 1305.27 1531.63 Q1306 1531.7 1306.89 1531.85 L1306.93 1537.87 Z" fill="#000000" fill-rule="evenodd" fill-opacity="1" /><path clip-path="url(#clip050)" d="M1318.86 1522.27 L1318.86 1532.4 L1330.92 1532.4 L1330.92 1536.95 L1318.86 1536.95 L1318.86 1556.3 Q1318.86 1560.66 1320.04 1561.9 Q1321.25 1563.14 1324.91 1563.14 L1330.92 1563.14 L1330.92 1568.04 L1324.91 1568.04 Q1318.13 1568.04 1315.55 1565.53 Q1312.97 1562.98 1312.97 1556.3 L1312.97 1536.95 L1308.68 1536.95 L1308.68 1532.4 L1312.97 1532.4 L1312.97 1522.27 L1318.86 1522.27 Z" fill="#000000" fill-rule="evenodd" fill-opacity="1" /><path clip-path="url(#clip050)" d="M1338.02 1553.98 L1338.02 1532.4 L1343.88 1532.4 L1343.88 1553.75 Q1343.88 1558.81 1345.85 1561.36 Q1347.83 1563.87 1351.77 1563.87 Q1356.51 1563.87 1359.25 1560.85 Q1362.02 1557.83 1362.02 1552.61 L1362.02 1532.4 L1367.88 1532.4 L1367.88 1568.04 L1362.02 1568.04 L1362.02 1562.57 Q1359.89 1565.82 1357.06 1567.41 Q1354.25 1568.97 1350.53 1568.97 Q1344.39 1568.97 1341.21 1565.15 Q1338.02 1561.33 1338.02 1553.98 M1352.76 1531.54 L1352.76 1531.54 Z" fill="#000000" fill-rule="evenodd" fill-opacity="1" /><path clip-path="url(#clip050)" d="M1400.6 1537.87 Q1399.61 1537.3 1398.43 1537.04 Q1397.29 1536.76 1395.89 1536.76 Q1390.92 1536.76 1388.25 1540 Q1385.61 1543.22 1385.61 1549.27 L1385.61 1568.04 L1379.72 1568.04 L1379.72 1532.4 L1385.61 1532.4 L1385.61 1537.93 Q1387.45 1534.69 1390.41 1533.13 Q1393.37 1531.54 1397.61 1531.54 Q1398.21 1531.54 1398.94 1531.63 Q1399.67 1531.7 1400.57 1531.85 L1400.6 1537.87 Z" fill="#000000" fill-rule="evenodd" fill-opacity="1" /><path clip-path="url(#clip050)" d="M1435.8 1548.76 L1435.8 1551.62 L1408.87 1551.62 Q1409.25 1557.67 1412.5 1560.85 Q1415.78 1564 1421.6 1564 Q1424.98 1564 1428.13 1563.17 Q1431.31 1562.35 1434.43 1560.69 L1434.43 1566.23 Q1431.28 1567.57 1427.97 1568.27 Q1424.66 1568.97 1421.25 1568.97 Q1412.72 1568.97 1407.73 1564 Q1402.76 1559.04 1402.76 1550.57 Q1402.76 1541.82 1407.47 1536.69 Q1412.21 1531.54 1420.24 1531.54 Q1427.43 1531.54 1431.6 1536.18 Q1435.8 1540.8 1435.8 1548.76 M1429.94 1547.04 Q1429.88 1542.23 1427.24 1539.37 Q1424.63 1536.5 1420.3 1536.5 Q1415.4 1536.5 1412.44 1539.27 Q1409.51 1542.04 1409.06 1547.07 L1429.94 1547.04 Z" fill="#000000" fill-rule="evenodd" fill-opacity="1" /><polyline clip-path="url(#clip052)" style="stroke:#000000; stroke-linecap:round; stroke-linejoin:round; stroke-width:2; stroke-opacity:0.1; fill:none" points="
  203.964,1339.14 2352.76,1339.14 
  "/>
<polyline clip-path="url(#clip052)" style="stroke:#000000; stroke-linecap:round; stroke-linejoin:round; stroke-width:2; stroke-opacity:0.1; fill:none" points="
  203.964,1057.27 2352.76,1057.27 
  "/>
<polyline clip-path="url(#clip052)" style="stroke:#000000; stroke-linecap:round; stroke-linejoin:round; stroke-width:2; stroke-opacity:0.1; fill:none" points="
  203.964,775.402 2352.76,775.402 
  "/>
<polyline clip-path="url(#clip052)" style="stroke:#000000; stroke-linecap:round; stroke-linejoin:round; stroke-width:2; stroke-opacity:0.1; fill:none" points="
  203.964,493.534 2352.76,493.534 
  "/>
<polyline clip-path="url(#clip052)" style="stroke:#000000; stroke-linecap:round; stroke-linejoin:round; stroke-width:2; stroke-opacity:0.1; fill:none" points="
  203.964,211.665 2352.76,211.665 
  "/>
<polyline clip-path="url(#clip050)" style="stroke:#000000; stroke-linecap:round; stroke-linejoin:round; stroke-width:4; stroke-opacity:1; fill:none" points="
  203.964,1423.18 203.964,47.2441 
  "/>
<polyline clip-path="url(#clip050)" style="stroke:#000000; stroke-linecap:round; stroke-linejoin:round; stroke-width:4; stroke-opacity:1; fill:none" points="
  203.964,1339.14 222.861,1339.14 
  "/>
<polyline clip-path="url(#clip050)" style="stroke:#000000; stroke-linecap:round; stroke-linejoin:round; stroke-width:4; stroke-opacity:1; fill:none" points="
  203.964,1057.27 222.861,1057.27 
  "/>
<polyline clip-path="url(#clip050)" style="stroke:#000000; stroke-linecap:round; stroke-linejoin:round; stroke-width:4; stroke-opacity:1; fill:none" points="
  203.964,775.402 222.861,775.402 
  "/>
<polyline clip-path="url(#clip050)" style="stroke:#000000; stroke-linecap:round; stroke-linejoin:round; stroke-width:4; stroke-opacity:1; fill:none" points="
  203.964,493.534 222.861,493.534 
  "/>
<polyline clip-path="url(#clip050)" style="stroke:#000000; stroke-linecap:round; stroke-linejoin:round; stroke-width:4; stroke-opacity:1; fill:none" points="
  203.964,211.665 222.861,211.665 
  "/>
<path clip-path="url(#clip050)" d="M156.019 1324.94 Q152.408 1324.94 150.579 1328.5 Q148.774 1332.04 148.774 1339.17 Q148.774 1346.28 150.579 1349.85 Q152.408 1353.39 156.019 1353.39 Q159.653 1353.39 161.459 1349.85 Q163.288 1346.28 163.288 1339.17 Q163.288 1332.04 161.459 1328.5 Q159.653 1324.94 156.019 1324.94 M156.019 1321.23 Q161.829 1321.23 164.885 1325.84 Q167.964 1330.42 167.964 1339.17 Q167.964 1347.9 164.885 1352.51 Q161.829 1357.09 156.019 1357.09 Q150.209 1357.09 147.13 1352.51 Q144.075 1347.9 144.075 1339.17 Q144.075 1330.42 147.13 1325.84 Q150.209 1321.23 156.019 1321.23 Z" fill="#000000" fill-rule="evenodd" fill-opacity="1" /><path clip-path="url(#clip050)" d="M147.061 1039.99 L165.417 1039.99 L165.417 1043.93 L151.343 1043.93 L151.343 1052.4 Q152.362 1052.05 153.38 1051.89 Q154.399 1051.7 155.417 1051.7 Q161.204 1051.7 164.584 1054.87 Q167.964 1058.05 167.964 1063.46 Q167.964 1069.04 164.491 1072.14 Q161.019 1075.22 154.7 1075.22 Q152.524 1075.22 150.255 1074.85 Q148.01 1074.48 145.603 1073.74 L145.603 1069.04 Q147.686 1070.18 149.908 1070.73 Q152.13 1071.29 154.607 1071.29 Q158.612 1071.29 160.95 1069.18 Q163.288 1067.07 163.288 1063.46 Q163.288 1059.85 160.95 1057.75 Q158.612 1055.64 154.607 1055.64 Q152.732 1055.64 150.857 1056.06 Q149.005 1056.47 147.061 1057.35 L147.061 1039.99 Z" fill="#000000" fill-rule="evenodd" fill-opacity="1" /><path clip-path="url(#clip050)" d="M116.668 788.747 L124.306 788.747 L124.306 762.381 L115.996 764.048 L115.996 759.789 L124.26 758.122 L128.936 758.122 L128.936 788.747 L136.575 788.747 L136.575 792.682 L116.668 792.682 L116.668 788.747 Z" fill="#000000" fill-rule="evenodd" fill-opacity="1" /><path clip-path="url(#clip050)" d="M156.019 761.201 Q152.408 761.201 150.579 764.766 Q148.774 768.307 148.774 775.437 Q148.774 782.543 150.579 786.108 Q152.408 789.65 156.019 789.65 Q159.653 789.65 161.459 786.108 Q163.288 782.543 163.288 775.437 Q163.288 768.307 161.459 764.766 Q159.653 761.201 156.019 761.201 M156.019 757.497 Q161.829 757.497 164.885 762.104 Q167.964 766.687 167.964 775.437 Q167.964 784.164 164.885 788.77 Q161.829 793.354 156.019 793.354 Q150.209 793.354 147.13 788.77 Q144.075 784.164 144.075 775.437 Q144.075 766.687 147.13 762.104 Q150.209 757.497 156.019 757.497 Z" fill="#000000" fill-rule="evenodd" fill-opacity="1" /><path clip-path="url(#clip050)" d="M117.663 506.879 L125.302 506.879 L125.302 480.513 L116.992 482.18 L116.992 477.92 L125.255 476.254 L129.931 476.254 L129.931 506.879 L137.57 506.879 L137.57 510.814 L117.663 510.814 L117.663 506.879 Z" fill="#000000" fill-rule="evenodd" fill-opacity="1" /><path clip-path="url(#clip050)" d="M147.061 476.254 L165.417 476.254 L165.417 480.189 L151.343 480.189 L151.343 488.661 Q152.362 488.314 153.38 488.152 Q154.399 487.967 155.417 487.967 Q161.204 487.967 164.584 491.138 Q167.964 494.309 167.964 499.726 Q167.964 505.304 164.491 508.406 Q161.019 511.485 154.7 511.485 Q152.524 511.485 150.255 511.115 Q148.01 510.744 145.603 510.004 L145.603 505.304 Q147.686 506.439 149.908 506.994 Q152.13 507.55 154.607 507.55 Q158.612 507.55 160.95 505.443 Q163.288 503.337 163.288 499.726 Q163.288 496.115 160.95 494.008 Q158.612 491.902 154.607 491.902 Q152.732 491.902 150.857 492.318 Q149.005 492.735 147.061 493.615 L147.061 476.254 Z" fill="#000000" fill-rule="evenodd" fill-opacity="1" /><path clip-path="url(#clip050)" d="M119.885 225.01 L136.204 225.01 L136.204 228.945 L114.26 228.945 L114.26 225.01 Q116.922 222.255 121.505 217.626 Q126.112 212.973 127.292 211.63 Q129.538 209.107 130.417 207.371 Q131.32 205.612 131.32 203.922 Q131.32 201.168 129.376 199.431 Q127.455 197.695 124.353 197.695 Q122.154 197.695 119.7 198.459 Q117.269 199.223 114.492 200.774 L114.492 196.052 Q117.316 194.918 119.769 194.339 Q122.223 193.76 124.26 193.76 Q129.63 193.76 132.825 196.445 Q136.019 199.13 136.019 203.621 Q136.019 205.751 135.209 207.672 Q134.422 209.57 132.316 212.163 Q131.737 212.834 128.635 216.052 Q125.533 219.246 119.885 225.01 Z" fill="#000000" fill-rule="evenodd" fill-opacity="1" /><path clip-path="url(#clip050)" d="M156.019 197.464 Q152.408 197.464 150.579 201.029 Q148.774 204.57 148.774 211.7 Q148.774 218.806 150.579 222.371 Q152.408 225.913 156.019 225.913 Q159.653 225.913 161.459 222.371 Q163.288 218.806 163.288 211.7 Q163.288 204.57 161.459 201.029 Q159.653 197.464 156.019 197.464 M156.019 193.76 Q161.829 193.76 164.885 198.367 Q167.964 202.95 167.964 211.7 Q167.964 220.427 164.885 225.033 Q161.829 229.616 156.019 229.616 Q150.209 229.616 147.13 225.033 Q144.075 220.427 144.075 211.7 Q144.075 202.95 147.13 198.367 Q150.209 193.76 156.019 193.76 Z" fill="#000000" fill-rule="evenodd" fill-opacity="1" /><path clip-path="url(#clip050)" d="M28.3562 801.527 L28.3562 795.67 L56.1743 788.35 L28.3562 781.061 L28.3562 774.154 L56.1743 766.834 L28.3562 759.545 L28.3562 753.688 L64.0042 763.014 L64.0042 769.921 L34.7856 777.592 L64.0042 785.294 L64.0042 792.201 L28.3562 801.527 Z" fill="#000000" fill-rule="evenodd" fill-opacity="1" /><path clip-path="url(#clip050)" d="M46.0847 728.608 Q46.0847 735.705 47.7079 738.443 Q49.3312 741.18 53.2461 741.18 Q56.3653 741.18 58.2114 739.143 Q60.0256 737.074 60.0256 733.541 Q60.0256 728.671 56.5881 725.743 Q53.1188 722.783 47.3897 722.783 L46.0847 722.783 L46.0847 728.608 M43.6657 716.926 L64.0042 716.926 L64.0042 722.783 L58.5933 722.783 Q61.8398 724.788 63.3994 727.78 Q64.9272 730.772 64.9272 735.101 Q64.9272 740.575 61.8716 743.822 Q58.7843 747.036 53.6281 747.036 Q47.6125 747.036 44.5569 743.026 Q41.5014 738.984 41.5014 730.995 L41.5014 722.783 L40.9285 722.783 Q36.8862 722.783 34.6901 725.457 Q32.4621 728.098 32.4621 732.904 Q32.4621 735.96 33.1941 738.856 Q33.9262 741.753 35.3903 744.426 L29.9795 744.426 Q28.7381 741.212 28.1334 738.188 Q27.4968 735.164 27.4968 732.3 Q27.4968 724.565 31.5072 720.746 Q35.5176 716.926 43.6657 716.926 Z" fill="#000000" fill-rule="evenodd" fill-opacity="1" /><path clip-path="url(#clip050)" d="M28.3562 704.863 L28.3562 699.007 L64.0042 699.007 L64.0042 704.863 L28.3562 704.863 M14.479 704.863 L14.479 699.007 L21.895 699.007 L21.895 704.863 L14.479 704.863 Z" fill="#000000" fill-rule="evenodd" fill-opacity="1" /><path clip-path="url(#clip050)" d="M18.2347 680.96 L28.3562 680.96 L28.3562 668.897 L32.9077 668.897 L32.9077 680.96 L52.2594 680.96 Q56.6199 680.96 57.8613 679.783 Q59.1026 678.573 59.1026 674.913 L59.1026 668.897 L64.0042 668.897 L64.0042 674.913 Q64.0042 681.692 61.4897 684.27 Q58.9434 686.849 52.2594 686.849 L32.9077 686.849 L32.9077 691.145 L28.3562 691.145 L28.3562 686.849 L18.2347 686.849 L18.2347 680.96 Z" fill="#000000" fill-rule="evenodd" fill-opacity="1" /><polyline clip-path="url(#clip052)" style="stroke:#009af9; stroke-linecap:round; stroke-linejoin:round; stroke-width:16; stroke-opacity:1; fill:none" points="
  203.964,86.1857 205.712,99.708 207.461,113.006 209.21,126.084 210.958,138.948 212.707,151.603 214.456,164.053 216.205,176.304 217.953,188.359 226.038,241.675 
  234.123,291.304 242.208,337.596 250.292,380.861 258.377,421.37 266.462,459.365 274.547,495.06 282.631,528.647 290.716,560.297 298.801,590.165 306.886,618.387 
  314.97,645.089 323.055,670.384 331.14,694.373 339.225,717.149 347.309,738.797 357.027,763.431 366.744,786.666 376.461,808.612 386.178,829.366 395.895,849.017 
  405.613,867.645 415.33,885.323 425.047,902.117 441.478,928.673 457.91,953.132 474.342,975.718 490.773,996.624 508.622,1017.63 526.472,1037.04 544.321,1055.01 
  562.17,1071.7 578.626,1086.05 595.081,1099.5 611.536,1112.12 627.992,1123.98 663.276,1147.14 698.56,1167.6 739.44,1188.46 780.319,1206.78 816.649,1221.24 
  852.978,1234.25 884.835,1244.6 916.693,1254.1 986.159,1272.24 1056.04,1287.59 1133.3,1301.86 1206.81,1313.36 1283.24,1323.57 1347.59,1331.03 1426.14,1338.98 
  1498.1,1345.33 1564.56,1350.52 1631.88,1355.21 1707.33,1359.89 1775.7,1363.67 1853.98,1367.54 1926.46,1370.74 1997.92,1373.58 2067.3,1376.09 2138.42,1378.41 
  2216.34,1380.72 2329.53,1383.68 2352.76,1384.24 
  "/>
<polyline clip-path="url(#clip052)" style="stroke:#e26f46; stroke-linecap:round; stroke-linejoin:round; stroke-width:16; stroke-opacity:1; fill:none" points="
  203.964,1339.14 217.953,1339.14 347.309,1339.14 425.047,1339.14 490.773,1339.14 562.17,1339.14 627.992,1339.14 698.56,1339.14 780.319,1339.14 852.978,1339.14 
  916.693,1339.14 986.159,1339.14 1056.04,1339.14 1133.3,1339.14 1206.81,1339.14 1283.24,1339.14 1347.59,1339.14 1426.14,1339.14 1498.1,1339.14 1564.56,1339.14 
  1631.88,1339.14 1707.33,1339.14 1775.7,1339.14 1853.98,1339.14 1926.46,1339.14 1997.92,1339.14 2067.3,1339.14 2138.42,1339.14 2216.34,1339.14 2329.53,1339.14 
  2352.76,1339.14 
  "/>
<path clip-path="url(#clip050)" d="
M1989.94 248.629 L2281.13 248.629 L2281.13 93.1086 L1989.94 93.1086  Z
  " fill="#ffffff" fill-rule="evenodd" fill-opacity="1"/>
<polyline clip-path="url(#clip050)" style="stroke:#000000; stroke-linecap:round; stroke-linejoin:round; stroke-width:4; stroke-opacity:1; fill:none" points="
  1989.94,248.629 2281.13,248.629 2281.13,93.1086 1989.94,93.1086 1989.94,248.629 
  "/>
<polyline clip-path="url(#clip050)" style="stroke:#009af9; stroke-linecap:round; stroke-linejoin:round; stroke-width:4; stroke-opacity:1; fill:none" points="
  2013.82,144.949 2157.07,144.949 
  "/>
<path clip-path="url(#clip050)" d="M2194.79 164.636 Q2192.99 169.266 2191.27 170.678 Q2189.56 172.09 2186.69 172.09 L2183.29 172.09 L2183.29 168.525 L2185.79 168.525 Q2187.55 168.525 2188.52 167.692 Q2189.49 166.858 2190.67 163.756 L2191.43 161.812 L2180.95 136.303 L2185.46 136.303 L2193.56 156.581 L2201.67 136.303 L2206.18 136.303 L2194.79 164.636 Z" fill="#000000" fill-rule="evenodd" fill-opacity="1" /><path clip-path="url(#clip050)" d="M2213.47 158.293 L2221.11 158.293 L2221.11 131.928 L2212.8 133.595 L2212.8 129.335 L2221.06 127.669 L2225.74 127.669 L2225.74 158.293 L2233.38 158.293 L2233.38 162.229 L2213.47 162.229 L2213.47 158.293 Z" fill="#000000" fill-rule="evenodd" fill-opacity="1" /><polyline clip-path="url(#clip050)" style="stroke:#e26f46; stroke-linecap:round; stroke-linejoin:round; stroke-width:4; stroke-opacity:1; fill:none" points="
  2013.82,196.789 2157.07,196.789 
  "/>
<path clip-path="url(#clip050)" d="M2194.79 216.476 Q2192.99 221.106 2191.27 222.518 Q2189.56 223.93 2186.69 223.93 L2183.29 223.93 L2183.29 220.365 L2185.79 220.365 Q2187.55 220.365 2188.52 219.532 Q2189.49 218.698 2190.67 215.596 L2191.43 213.652 L2180.95 188.143 L2185.46 188.143 L2193.56 208.421 L2201.67 188.143 L2206.18 188.143 L2194.79 216.476 Z" fill="#000000" fill-rule="evenodd" fill-opacity="1" /><path clip-path="url(#clip050)" d="M2216.69 210.133 L2233.01 210.133 L2233.01 214.069 L2211.06 214.069 L2211.06 210.133 Q2213.73 207.379 2218.31 202.749 Q2222.92 198.096 2224.1 196.754 Q2226.34 194.231 2227.22 192.495 Q2228.12 190.735 2228.12 189.046 Q2228.12 186.291 2226.18 184.555 Q2224.26 182.819 2221.16 182.819 Q2218.96 182.819 2216.5 183.583 Q2214.07 184.347 2211.3 185.897 L2211.3 181.175 Q2214.12 180.041 2216.57 179.462 Q2219.03 178.884 2221.06 178.884 Q2226.43 178.884 2229.63 181.569 Q2232.82 184.254 2232.82 188.745 Q2232.82 190.874 2232.01 192.796 Q2231.23 194.694 2229.12 197.286 Q2228.54 197.958 2225.44 201.175 Q2222.34 204.37 2216.69 210.133 Z" fill="#000000" fill-rule="evenodd" fill-opacity="1" /></svg>
