<?xml version="1.0" encoding="utf-8"?>
<svg xmlns="http://www.w3.org/2000/svg" xmlns:xlink="http://www.w3.org/1999/xlink" width="600" height="400" viewBox="0 0 2400 1600">
<defs>
  <clipPath id="clip460">
    <rect x="0" y="0" width="2400" height="1600"/>
  </clipPath>
</defs>
<path clip-path="url(#clip460)" d="
M0 1600 L2400 1600 L2400 0 L0 0  Z
  " fill="#ffffff" fill-rule="evenodd" fill-opacity="1"/>
<defs>
  <clipPath id="clip461">
    <rect x="480" y="0" width="1681" height="1600"/>
  </clipPath>
</defs>
<path clip-path="url(#clip460)" d="
M240.748 1450.74 L2352.76 1450.74 L2352.76 47.2441 L240.748 47.2441  Z
  " fill="#ffffff" fill-rule="evenodd" fill-opacity="1"/>
<defs>
  <clipPath id="clip462">
    <rect x="240" y="47" width="2113" height="1404"/>
  </clipPath>
</defs>
<polyline clip-path="url(#clip462)" style="stroke:#000000; stroke-linecap:round; stroke-linejoin:round; stroke-width:2; stroke-opacity:0.1; fill:none" points="
  240.748,1450.74 240.748,47.2441 
  "/>
<polyline clip-path="url(#clip462)" style="stroke:#000000; stroke-linecap:round; stroke-linejoin:round; stroke-width:2; stroke-opacity:0.1; fill:none" points="
  768.75,1450.74 768.75,47.2441 
  "/>
<polyline clip-path="url(#clip462)" style="stroke:#000000; stroke-linecap:round; stroke-linejoin:round; stroke-width:2; stroke-opacity:0.1; fill:none" points="
  1296.75,1450.74 1296.75,47.2441 
  "/>
<polyline clip-path="url(#clip462)" style="stroke:#000000; stroke-linecap:round; stroke-linejoin:round; stroke-width:2; stroke-opacity:0.1; fill:none" points="
  1824.75,1450.74 1824.75,47.2441 
  "/>
<polyline clip-path="url(#clip462)" style="stroke:#000000; stroke-linecap:round; stroke-linejoin:round; stroke-width:2; stroke-opacity:0.1; fill:none" points="
  2352.76,1450.74 2352.76,47.2441 
  "/>
<polyline clip-path="url(#clip460)" style="stroke:#000000; stroke-linecap:round; stroke-linejoin:round; stroke-width:4; stroke-opacity:1; fill:none" points="
  240.748,1450.74 2352.76,1450.74 
  "/>
<polyline clip-path="url(#clip460)" style="stroke:#000000; stroke-linecap:round; stroke-linejoin:round; stroke-width:4; stroke-opacity:1; fill:none" points="
  240.748,1450.74 240.748,1431.85 
  "/>
<polyline clip-path="url(#clip460)" style="stroke:#000000; stroke-linecap:round; stroke-linejoin:round; stroke-width:4; stroke-opacity:1; fill:none" points="
  768.75,1450.74 768.75,1431.85 
  "/>
<polyline clip-path="url(#clip460)" style="stroke:#000000; stroke-linecap:round; stroke-linejoin:round; stroke-width:4; stroke-opacity:1; fill:none" points="
  1296.75,1450.74 1296.75,1431.85 
  "/>
<polyline clip-path="url(#clip460)" style="stroke:#000000; stroke-linecap:round; stroke-linejoin:round; stroke-width:4; stroke-opacity:1; fill:none" points="
  1824.75,1450.74 1824.75,1431.85 
  "/>
<polyline clip-path="url(#clip460)" style="stroke:#000000; stroke-linecap:round; stroke-linejoin:round; stroke-width:4; stroke-opacity:1; fill:none" points="
  2352.76,1450.74 2352.76,1431.85 
  "/>
<path clip-path="url(#clip460)" d="M30.1261 1532.99 L74.6398 1532.99 L74.6398 1538.89 L30.1261 1538.89 L30.1261 1532.99 Z" fill="#000000" fill-rule="evenodd" fill-opacity="1" /><path clip-path="url(#clip460)" d="M90.9938 1552.33 L102.452 1552.33 L102.452 1512.78 L89.9869 1515.28 L89.9869 1508.89 L102.383 1506.39 L109.397 1506.39 L109.397 1552.33 L120.855 1552.33 L120.855 1558.23 L90.9938 1558.23 L90.9938 1552.33 Z" fill="#000000" fill-rule="evenodd" fill-opacity="1" /><path clip-path="url(#clip460)" d="M135.021 1549.41 L142.348 1549.41 L142.348 1558.23 L135.021 1558.23 L135.021 1549.41 Z" fill="#000000" fill-rule="evenodd" fill-opacity="1" /><path clip-path="url(#clip460)" d="M172.625 1511.01 Q167.209 1511.01 164.466 1516.36 Q161.757 1521.67 161.757 1532.37 Q161.757 1543.02 164.466 1548.37 Q167.209 1553.68 172.625 1553.68 Q178.077 1553.68 180.785 1548.37 Q183.528 1543.02 183.528 1532.37 Q183.528 1521.67 180.785 1516.36 Q178.077 1511.01 172.625 1511.01 M172.625 1505.46 Q181.341 1505.46 185.924 1512.37 Q190.542 1519.24 190.542 1532.37 Q190.542 1545.46 185.924 1552.37 Q181.341 1559.24 172.625 1559.24 Q163.91 1559.24 159.292 1552.37 Q154.709 1545.46 154.709 1532.37 Q154.709 1519.24 159.292 1512.37 Q163.91 1505.46 172.625 1505.46 Z" fill="#000000" fill-rule="evenodd" fill-opacity="1" /><path clip-path="url(#clip460)" d="M245.125 1520.04 L229.257 1535.98 L245.125 1551.84 L240.993 1556.05 L225.056 1540.11 L209.118 1556.05 L205.021 1551.84 L220.854 1535.98 L205.021 1520.04 L209.118 1515.84 L225.056 1531.77 L240.993 1515.84 L245.125 1520.04 Z" fill="#000000" fill-rule="evenodd" fill-opacity="1" /><path clip-path="url(#clip460)" d="M263.667 1552.33 L275.125 1552.33 L275.125 1512.78 L262.66 1515.28 L262.66 1508.89 L275.055 1506.39 L282.069 1506.39 L282.069 1552.33 L293.527 1552.33 L293.527 1558.23 L263.667 1558.23 L263.667 1552.33 Z" fill="#000000" fill-rule="evenodd" fill-opacity="1" /><path clip-path="url(#clip460)" d="M322.694 1511.01 Q317.277 1511.01 314.534 1516.36 Q311.826 1521.67 311.826 1532.37 Q311.826 1543.02 314.534 1548.37 Q317.277 1553.68 322.694 1553.68 Q328.145 1553.68 330.854 1548.37 Q333.597 1543.02 333.597 1532.37 Q333.597 1521.67 330.854 1516.36 Q328.145 1511.01 322.694 1511.01 M322.694 1505.46 Q331.409 1505.46 335.993 1512.37 Q340.611 1519.24 340.611 1532.37 Q340.611 1545.46 335.993 1552.37 Q331.409 1559.24 322.694 1559.24 Q313.979 1559.24 309.361 1552.37 Q304.777 1545.46 304.777 1532.37 Q304.777 1519.24 309.361 1512.37 Q313.979 1505.46 322.694 1505.46 Z" fill="#000000" fill-rule="evenodd" fill-opacity="1" /><path clip-path="url(#clip460)" d="M340.611 1496.61 L376.778 1496.61 L376.778 1501.4 L340.611 1501.4 L340.611 1496.61 Z" fill="#000000" fill-rule="evenodd" fill-opacity="1" /><path clip-path="url(#clip460)" d="M390.066 1512.32 L399.375 1512.32 L399.375 1480.19 L389.247 1482.22 L389.247 1477.03 L399.319 1475 L405.018 1475 L405.018 1512.32 L414.328 1512.32 L414.328 1517.12 L390.066 1517.12 L390.066 1512.32 Z" fill="#000000" fill-rule="evenodd" fill-opacity="1" /><path clip-path="url(#clip460)" d="M425.894 1475 L448.266 1475 L448.266 1479.79 L431.114 1479.79 L431.114 1490.12 Q432.355 1489.7 433.596 1489.5 Q434.837 1489.27 436.079 1489.27 Q443.132 1489.27 447.251 1493.14 Q451.37 1497 451.37 1503.6 Q451.37 1510.4 447.138 1514.18 Q442.906 1517.94 435.204 1517.94 Q432.552 1517.94 429.788 1517.48 Q427.051 1517.03 424.117 1516.13 L424.117 1510.4 Q426.656 1511.79 429.364 1512.46 Q432.073 1513.14 435.091 1513.14 Q439.972 1513.14 442.821 1510.57 Q445.671 1508.01 445.671 1503.6 Q445.671 1499.2 442.821 1496.64 Q439.972 1494.07 435.091 1494.07 Q432.806 1494.07 430.521 1494.58 Q428.264 1495.08 425.894 1496.16 L425.894 1475 Z" fill="#000000" fill-rule="evenodd" fill-opacity="1" /><path clip-path="url(#clip460)" d="M557.423 1532.99 L601.936 1532.99 L601.936 1538.89 L557.423 1538.89 L557.423 1532.99 Z" fill="#000000" fill-rule="evenodd" fill-opacity="1" /><path clip-path="url(#clip460)" d="M617.145 1506.39 L644.679 1506.39 L644.679 1512.3 L623.568 1512.3 L623.568 1525 Q625.096 1524.48 626.624 1524.24 Q628.152 1523.96 629.679 1523.96 Q638.36 1523.96 643.429 1528.72 Q648.499 1533.48 648.499 1541.6 Q648.499 1549.97 643.29 1554.62 Q638.082 1559.24 628.603 1559.24 Q625.339 1559.24 621.936 1558.68 Q618.568 1558.13 614.957 1557.02 L614.957 1549.97 Q618.082 1551.67 621.416 1552.5 Q624.749 1553.34 628.464 1553.34 Q634.471 1553.34 637.978 1550.18 Q641.485 1547.02 641.485 1541.6 Q641.485 1536.18 637.978 1533.02 Q634.471 1529.87 628.464 1529.87 Q625.652 1529.87 622.839 1530.49 Q620.061 1531.12 617.145 1532.43 L617.145 1506.39 Z" fill="#000000" fill-rule="evenodd" fill-opacity="1" /><path clip-path="url(#clip460)" d="M662.318 1549.41 L669.644 1549.41 L669.644 1558.23 L662.318 1558.23 L662.318 1549.41 Z" fill="#000000" fill-rule="evenodd" fill-opacity="1" /><path clip-path="url(#clip460)" d="M699.922 1511.01 Q694.505 1511.01 691.762 1516.36 Q689.054 1521.67 689.054 1532.37 Q689.054 1543.02 691.762 1548.37 Q694.505 1553.68 699.922 1553.68 Q705.373 1553.68 708.082 1548.37 Q710.825 1543.02 710.825 1532.37 Q710.825 1521.67 708.082 1516.36 Q705.373 1511.01 699.922 1511.01 M699.922 1505.46 Q708.637 1505.46 713.221 1512.37 Q717.839 1519.24 717.839 1532.37 Q717.839 1545.46 713.221 1552.37 Q708.637 1559.24 699.922 1559.24 Q691.207 1559.24 686.589 1552.37 Q682.006 1545.46 682.006 1532.37 Q682.006 1519.24 686.589 1512.37 Q691.207 1505.46 699.922 1505.46 Z" fill="#000000" fill-rule="evenodd" fill-opacity="1" /><path clip-path="url(#clip460)" d="M772.422 1520.04 L756.554 1535.98 L772.422 1551.84 L768.29 1556.05 L752.352 1540.11 L736.415 1556.05 L732.318 1551.84 L748.151 1535.98 L732.318 1520.04 L736.415 1515.84 L752.352 1531.77 L768.29 1515.84 L772.422 1520.04 Z" fill="#000000" fill-rule="evenodd" fill-opacity="1" /><path clip-path="url(#clip460)" d="M790.963 1552.33 L802.422 1552.33 L802.422 1512.78 L789.956 1515.28 L789.956 1508.89 L802.352 1506.39 L809.366 1506.39 L809.366 1552.33 L820.824 1552.33 L820.824 1558.23 L790.963 1558.23 L790.963 1552.33 Z" fill="#000000" fill-rule="evenodd" fill-opacity="1" /><path clip-path="url(#clip460)" d="M849.991 1511.01 Q844.574 1511.01 841.831 1516.36 Q839.123 1521.67 839.123 1532.37 Q839.123 1543.02 841.831 1548.37 Q844.574 1553.68 849.991 1553.68 Q855.442 1553.68 858.15 1548.37 Q860.893 1543.02 860.893 1532.37 Q860.893 1521.67 858.15 1516.36 Q855.442 1511.01 849.991 1511.01 M849.991 1505.46 Q858.706 1505.46 863.289 1512.37 Q867.907 1519.24 867.907 1532.37 Q867.907 1545.46 863.289 1552.37 Q858.706 1559.24 849.991 1559.24 Q841.275 1559.24 836.657 1552.37 Q832.074 1545.46 832.074 1532.37 Q832.074 1519.24 836.657 1512.37 Q841.275 1505.46 849.991 1505.46 Z" fill="#000000" fill-rule="evenodd" fill-opacity="1" /><path clip-path="url(#clip460)" d="M867.907 1496.61 L904.075 1496.61 L904.075 1501.4 L867.907 1501.4 L867.907 1496.61 Z" fill="#000000" fill-rule="evenodd" fill-opacity="1" /><path clip-path="url(#clip460)" d="M917.362 1512.32 L926.672 1512.32 L926.672 1480.19 L916.544 1482.22 L916.544 1477.03 L926.616 1475 L932.314 1475 L932.314 1512.32 L941.624 1512.32 L941.624 1517.12 L917.362 1517.12 L917.362 1512.32 Z" fill="#000000" fill-rule="evenodd" fill-opacity="1" /><path clip-path="url(#clip460)" d="M966.027 1493.79 Q962.191 1493.79 959.934 1496.41 Q957.705 1499.03 957.705 1503.6 Q957.705 1508.15 959.934 1510.8 Q962.191 1513.42 966.027 1513.42 Q969.864 1513.42 972.093 1510.8 Q974.35 1508.15 974.35 1503.6 Q974.35 1499.03 972.093 1496.41 Q969.864 1493.79 966.027 1493.79 M977.34 1475.93 L977.34 1481.12 Q975.196 1480.1 972.996 1479.57 Q970.823 1479.03 968.679 1479.03 Q963.037 1479.03 960.047 1482.84 Q957.084 1486.65 956.661 1494.35 Q958.326 1491.9 960.836 1490.6 Q963.347 1489.27 966.366 1489.27 Q972.714 1489.27 976.381 1493.14 Q980.077 1496.97 980.077 1503.6 Q980.077 1510.09 976.24 1514.01 Q972.403 1517.94 966.027 1517.94 Q958.721 1517.94 954.856 1512.35 Q950.991 1506.74 950.991 1496.1 Q950.991 1486.11 955.73 1480.19 Q960.47 1474.24 968.454 1474.24 Q970.598 1474.24 972.77 1474.66 Q974.971 1475.08 977.34 1475.93 Z" fill="#000000" fill-rule="evenodd" fill-opacity="1" /><path clip-path="url(#clip460)" d="M1296.75 1487.52 Q1291.34 1487.52 1288.59 1492.87 Q1285.88 1498.18 1285.88 1508.88 Q1285.88 1519.53 1288.59 1524.88 Q1291.34 1530.19 1296.75 1530.19 Q1302.2 1530.19 1304.91 1524.88 Q1307.65 1519.53 1307.65 1508.88 Q1307.65 1498.18 1304.91 1492.87 Q1302.2 1487.52 1296.75 1487.52 M1296.75 1481.97 Q1305.47 1481.97 1310.05 1488.88 Q1314.67 1495.75 1314.67 1508.88 Q1314.67 1521.97 1310.05 1528.88 Q1305.47 1535.75 1296.75 1535.75 Q1288.04 1535.75 1283.42 1528.88 Q1278.84 1521.97 1278.84 1508.88 Q1278.84 1495.75 1283.42 1488.88 Q1288.04 1481.97 1296.75 1481.97 Z" fill="#000000" fill-rule="evenodd" fill-opacity="1" /><path clip-path="url(#clip460)" d="M1644.38 1506.39 L1671.92 1506.39 L1671.92 1512.3 L1650.81 1512.3 L1650.81 1525 Q1652.33 1524.48 1653.86 1524.24 Q1655.39 1523.96 1656.92 1523.96 Q1665.6 1523.96 1670.67 1528.72 Q1675.74 1533.48 1675.74 1541.6 Q1675.74 1549.97 1670.53 1554.62 Q1665.32 1559.24 1655.84 1559.24 Q1652.58 1559.24 1649.17 1558.68 Q1645.81 1558.13 1642.19 1557.02 L1642.19 1549.97 Q1645.32 1551.67 1648.65 1552.5 Q1651.99 1553.34 1655.7 1553.34 Q1661.71 1553.34 1665.21 1550.18 Q1668.72 1547.02 1668.72 1541.6 Q1668.72 1536.18 1665.21 1533.02 Q1661.71 1529.87 1655.7 1529.87 Q1652.89 1529.87 1650.08 1530.49 Q1647.3 1531.12 1644.38 1532.43 L1644.38 1506.39 Z" fill="#000000" fill-rule="evenodd" fill-opacity="1" /><path clip-path="url(#clip460)" d="M1689.55 1549.41 L1696.88 1549.41 L1696.88 1558.23 L1689.55 1558.23 L1689.55 1549.41 Z" fill="#000000" fill-rule="evenodd" fill-opacity="1" /><path clip-path="url(#clip460)" d="M1727.16 1511.01 Q1721.74 1511.01 1719 1516.36 Q1716.29 1521.67 1716.29 1532.37 Q1716.29 1543.02 1719 1548.37 Q1721.74 1553.68 1727.16 1553.68 Q1732.61 1553.68 1735.32 1548.37 Q1738.06 1543.02 1738.06 1532.37 Q1738.06 1521.67 1735.32 1516.36 Q1732.61 1511.01 1727.16 1511.01 M1727.16 1505.46 Q1735.87 1505.46 1740.46 1512.37 Q1745.08 1519.24 1745.08 1532.37 Q1745.08 1545.46 1740.46 1552.37 Q1735.87 1559.24 1727.16 1559.24 Q1718.44 1559.24 1713.83 1552.37 Q1709.24 1545.46 1709.24 1532.37 Q1709.24 1519.24 1713.83 1512.37 Q1718.44 1505.46 1727.16 1505.46 Z" fill="#000000" fill-rule="evenodd" fill-opacity="1" /><path clip-path="url(#clip460)" d="M1799.66 1520.04 L1783.79 1535.98 L1799.66 1551.84 L1795.53 1556.05 L1779.59 1540.11 L1763.65 1556.05 L1759.55 1551.84 L1775.39 1535.98 L1759.55 1520.04 L1763.65 1515.84 L1779.59 1531.77 L1795.53 1515.84 L1799.66 1520.04 Z" fill="#000000" fill-rule="evenodd" fill-opacity="1" /><path clip-path="url(#clip460)" d="M1818.2 1552.33 L1829.66 1552.33 L1829.66 1512.78 L1817.19 1515.28 L1817.19 1508.89 L1829.59 1506.39 L1836.6 1506.39 L1836.6 1552.33 L1848.06 1552.33 L1848.06 1558.23 L1818.2 1558.23 L1818.2 1552.33 Z" fill="#000000" fill-rule="evenodd" fill-opacity="1" /><path clip-path="url(#clip460)" d="M1877.23 1511.01 Q1871.81 1511.01 1869.07 1516.36 Q1866.36 1521.67 1866.36 1532.37 Q1866.36 1543.02 1869.07 1548.37 Q1871.81 1553.68 1877.23 1553.68 Q1882.68 1553.68 1885.39 1548.37 Q1888.13 1543.02 1888.13 1532.37 Q1888.13 1521.67 1885.39 1516.36 Q1882.68 1511.01 1877.23 1511.01 M1877.23 1505.46 Q1885.94 1505.46 1890.53 1512.37 Q1895.14 1519.24 1895.14 1532.37 Q1895.14 1545.46 1890.53 1552.37 Q1885.94 1559.24 1877.23 1559.24 Q1868.51 1559.24 1863.89 1552.37 Q1859.31 1545.46 1859.31 1532.37 Q1859.31 1519.24 1863.89 1512.37 Q1868.51 1505.46 1877.23 1505.46 Z" fill="#000000" fill-rule="evenodd" fill-opacity="1" /><path clip-path="url(#clip460)" d="M1895.14 1496.61 L1931.31 1496.61 L1931.31 1501.4 L1895.14 1501.4 L1895.14 1496.61 Z" fill="#000000" fill-rule="evenodd" fill-opacity="1" /><path clip-path="url(#clip460)" d="M1944.6 1512.32 L1953.91 1512.32 L1953.91 1480.19 L1943.78 1482.22 L1943.78 1477.03 L1953.85 1475 L1959.55 1475 L1959.55 1512.32 L1968.86 1512.32 L1968.86 1517.12 L1944.6 1517.12 L1944.6 1512.32 Z" fill="#000000" fill-rule="evenodd" fill-opacity="1" /><path clip-path="url(#clip460)" d="M1993.26 1493.79 Q1989.43 1493.79 1987.17 1496.41 Q1984.94 1499.03 1984.94 1503.6 Q1984.94 1508.15 1987.17 1510.8 Q1989.43 1513.42 1993.26 1513.42 Q1997.1 1513.42 1999.33 1510.8 Q2001.59 1508.15 2001.59 1503.6 Q2001.59 1499.03 1999.33 1496.41 Q1997.1 1493.79 1993.26 1493.79 M2004.58 1475.93 L2004.58 1481.12 Q2002.43 1480.1 2000.23 1479.57 Q1998.06 1479.03 1995.92 1479.03 Q1990.27 1479.03 1987.28 1482.84 Q1984.32 1486.65 1983.9 1494.35 Q1985.56 1491.9 1988.07 1490.6 Q1990.58 1489.27 1993.6 1489.27 Q1999.95 1489.27 2003.62 1493.14 Q2007.31 1496.97 2007.31 1503.6 Q2007.31 1510.09 2003.48 1514.01 Q1999.64 1517.94 1993.26 1517.94 Q1985.96 1517.94 1982.09 1512.35 Q1978.23 1506.74 1978.23 1496.1 Q1978.23 1486.11 1982.97 1480.19 Q1987.71 1474.24 1995.69 1474.24 Q1997.83 1474.24 2000.01 1474.66 Q2002.21 1475.08 2004.58 1475.93 Z" fill="#000000" fill-rule="evenodd" fill-opacity="1" /><path clip-path="url(#clip460)" d="M2173.07 1552.33 L2184.53 1552.33 L2184.53 1512.78 L2172.06 1515.28 L2172.06 1508.89 L2184.46 1506.39 L2191.47 1506.39 L2191.47 1552.33 L2202.93 1552.33 L2202.93 1558.23 L2173.07 1558.23 L2173.07 1552.33 Z" fill="#000000" fill-rule="evenodd" fill-opacity="1" /><path clip-path="url(#clip460)" d="M2217.1 1549.41 L2224.43 1549.41 L2224.43 1558.23 L2217.1 1558.23 L2217.1 1549.41 Z" fill="#000000" fill-rule="evenodd" fill-opacity="1" /><path clip-path="url(#clip460)" d="M2254.7 1511.01 Q2249.29 1511.01 2246.54 1516.36 Q2243.84 1521.67 2243.84 1532.37 Q2243.84 1543.02 2246.54 1548.37 Q2249.29 1553.68 2254.7 1553.68 Q2260.15 1553.68 2262.86 1548.37 Q2265.61 1543.02 2265.61 1532.37 Q2265.61 1521.67 2262.86 1516.36 Q2260.15 1511.01 2254.7 1511.01 M2254.7 1505.46 Q2263.42 1505.46 2268 1512.37 Q2272.62 1519.24 2272.62 1532.37 Q2272.62 1545.46 2268 1552.37 Q2263.42 1559.24 2254.7 1559.24 Q2245.99 1559.24 2241.37 1552.37 Q2236.79 1545.46 2236.79 1532.37 Q2236.79 1519.24 2241.37 1512.37 Q2245.99 1505.46 2254.7 1505.46 Z" fill="#000000" fill-rule="evenodd" fill-opacity="1" /><path clip-path="url(#clip460)" d="M2327.2 1520.04 L2311.33 1535.98 L2327.2 1551.84 L2323.07 1556.05 L2307.13 1540.11 L2291.2 1556.05 L2287.1 1551.84 L2302.93 1535.98 L2287.1 1520.04 L2291.2 1515.84 L2307.13 1531.77 L2323.07 1515.84 L2327.2 1520.04 Z" fill="#000000" fill-rule="evenodd" fill-opacity="1" /><path clip-path="url(#clip460)" d="M2345.74 1552.33 L2357.2 1552.33 L2357.2 1512.78 L2344.74 1515.28 L2344.74 1508.89 L2357.13 1506.39 L2364.15 1506.39 L2364.15 1552.33 L2375.61 1552.33 L2375.61 1558.23 L2345.74 1558.23 L2345.74 1552.33 Z" fill="#000000" fill-rule="evenodd" fill-opacity="1" /><path clip-path="url(#clip460)" d="M2404.77 1511.01 Q2399.36 1511.01 2396.61 1516.36 Q2393.9 1521.67 2393.9 1532.37 Q2393.9 1543.02 2396.61 1548.37 Q2399.36 1553.68 2404.77 1553.68 Q2410.22 1553.68 2412.93 1548.37 Q2415.67 1543.02 2415.67 1532.37 Q2415.67 1521.67 2412.93 1516.36 Q2410.22 1511.01 2404.77 1511.01 M2404.77 1505.46 Q2413.49 1505.46 2418.07 1512.37 Q2422.69 1519.24 2422.69 1532.37 Q2422.69 1545.46 2418.07 1552.37 Q2413.49 1559.24 2404.77 1559.24 Q2396.06 1559.24 2391.44 1552.37 Q2386.86 1545.46 2386.86 1532.37 Q2386.86 1519.24 2391.44 1512.37 Q2396.06 1505.46 2404.77 1505.46 Z" fill="#000000" fill-rule="evenodd" fill-opacity="1" /><path clip-path="url(#clip460)" d="M2422.69 1496.61 L2458.86 1496.61 L2458.86 1501.4 L2422.69 1501.4 L2422.69 1496.61 Z" fill="#000000" fill-rule="evenodd" fill-opacity="1" /><path clip-path="url(#clip460)" d="M2472.14 1512.32 L2481.45 1512.32 L2481.45 1480.19 L2471.33 1482.22 L2471.33 1477.03 L2481.4 1475 L2487.1 1475 L2487.1 1512.32 L2496.41 1512.32 L2496.41 1517.12 L2472.14 1517.12 L2472.14 1512.32 Z" fill="#000000" fill-rule="evenodd" fill-opacity="1" /><path clip-path="url(#clip460)" d="M2507.97 1475 L2530.34 1475 L2530.34 1479.79 L2513.19 1479.79 L2513.19 1490.12 Q2514.43 1489.7 2515.67 1489.5 Q2516.92 1489.27 2518.16 1489.27 Q2525.21 1489.27 2529.33 1493.14 Q2533.45 1497 2533.45 1503.6 Q2533.45 1510.4 2529.22 1514.18 Q2524.98 1517.94 2517.28 1517.94 Q2514.63 1517.94 2511.87 1517.48 Q2509.13 1517.03 2506.19 1516.13 L2506.19 1510.4 Q2508.73 1511.79 2511.44 1512.46 Q2514.15 1513.14 2517.17 1513.14 Q2522.05 1513.14 2524.9 1510.57 Q2527.75 1508.01 2527.75 1503.6 Q2527.75 1499.2 2524.9 1496.64 Q2522.05 1494.07 2517.17 1494.07 Q2514.88 1494.07 2512.6 1494.58 Q2510.34 1495.08 2507.97 1496.16 L2507.97 1475 Z" fill="#000000" fill-rule="evenodd" fill-opacity="1" /><polyline clip-path="url(#clip462)" style="stroke:#000000; stroke-linecap:round; stroke-linejoin:round; stroke-width:2; stroke-opacity:0.1; fill:none" points="
  240.748,1181.89 2352.76,1181.89 
  "/>
<polyline clip-path="url(#clip462)" style="stroke:#000000; stroke-linecap:round; stroke-linejoin:round; stroke-width:2; stroke-opacity:0.1; fill:none" points="
  240.748,908.159 2352.76,908.159 
  "/>
<polyline clip-path="url(#clip462)" style="stroke:#000000; stroke-linecap:round; stroke-linejoin:round; stroke-width:2; stroke-opacity:0.1; fill:none" points="
  240.748,634.428 2352.76,634.428 
  "/>
<polyline clip-path="url(#clip462)" style="stroke:#000000; stroke-linecap:round; stroke-linejoin:round; stroke-width:2; stroke-opacity:0.1; fill:none" points="
  240.748,360.697 2352.76,360.697 
  "/>
<polyline clip-path="url(#clip462)" style="stroke:#000000; stroke-linecap:round; stroke-linejoin:round; stroke-width:2; stroke-opacity:0.1; fill:none" points="
  240.748,86.9658 2352.76,86.9658 
  "/>
<polyline clip-path="url(#clip460)" style="stroke:#000000; stroke-linecap:round; stroke-linejoin:round; stroke-width:4; stroke-opacity:1; fill:none" points="
  240.748,1450.74 240.748,47.2441 
  "/>
<polyline clip-path="url(#clip460)" style="stroke:#000000; stroke-linecap:round; stroke-linejoin:round; stroke-width:4; stroke-opacity:1; fill:none" points="
  240.748,1181.89 259.645,1181.89 
  "/>
<polyline clip-path="url(#clip460)" style="stroke:#000000; stroke-linecap:round; stroke-linejoin:round; stroke-width:4; stroke-opacity:1; fill:none" points="
  240.748,908.159 259.645,908.159 
  "/>
<polyline clip-path="url(#clip460)" style="stroke:#000000; stroke-linecap:round; stroke-linejoin:round; stroke-width:4; stroke-opacity:1; fill:none" points="
  240.748,634.428 259.645,634.428 
  "/>
<polyline clip-path="url(#clip460)" style="stroke:#000000; stroke-linecap:round; stroke-linejoin:round; stroke-width:4; stroke-opacity:1; fill:none" points="
  240.748,360.697 259.645,360.697 
  "/>
<polyline clip-path="url(#clip460)" style="stroke:#000000; stroke-linecap:round; stroke-linejoin:round; stroke-width:4; stroke-opacity:1; fill:none" points="
  240.748,86.9658 259.645,86.9658 
  "/>
<path clip-path="url(#clip460)" d="M51.9991 1211.58 L63.4573 1211.58 L63.4573 1172.03 L50.9921 1174.53 L50.9921 1168.14 L63.3879 1165.64 L70.4017 1165.64 L70.4017 1211.58 L81.86 1211.58 L81.86 1217.48 L51.9991 1217.48 L51.9991 1211.58 Z" fill="#000000" fill-rule="evenodd" fill-opacity="1" /><path clip-path="url(#clip460)" d="M111.027 1170.26 Q105.61 1170.26 102.867 1175.61 Q100.159 1180.92 100.159 1191.61 Q100.159 1202.27 102.867 1207.62 Q105.61 1212.93 111.027 1212.93 Q116.478 1212.93 119.186 1207.62 Q121.929 1202.27 121.929 1191.61 Q121.929 1180.92 119.186 1175.61 Q116.478 1170.26 111.027 1170.26 M111.027 1164.7 Q119.742 1164.7 124.325 1171.61 Q128.943 1178.49 128.943 1191.61 Q128.943 1204.7 124.325 1211.61 Q119.742 1218.49 111.027 1218.49 Q102.311 1218.49 97.6933 1211.61 Q93.11 1204.7 93.11 1191.61 Q93.11 1178.49 97.6933 1171.61 Q102.311 1164.7 111.027 1164.7 Z" fill="#000000" fill-rule="evenodd" fill-opacity="1" /><path clip-path="url(#clip460)" d="M128.943 1155.86 L165.11 1155.86 L165.11 1160.65 L128.943 1160.65 L128.943 1155.86 Z" fill="#000000" fill-rule="evenodd" fill-opacity="1" /><path clip-path="url(#clip460)" d="M193.068 1139.21 L178.68 1161.7 L193.068 1161.7 L193.068 1139.21 M191.573 1134.25 L198.739 1134.25 L198.739 1161.7 L204.748 1161.7 L204.748 1166.43 L198.739 1166.43 L198.739 1176.37 L193.068 1176.37 L193.068 1166.43 L174.054 1166.43 L174.054 1160.93 L191.573 1134.25 Z" fill="#000000" fill-rule="evenodd" fill-opacity="1" /><path clip-path="url(#clip460)" d="M53.3814 937.847 L64.8397 937.847 L64.8397 898.299 L52.3745 900.799 L52.3745 894.41 L64.7703 891.91 L71.7841 891.91 L71.7841 937.847 L83.2424 937.847 L83.2424 943.75 L53.3814 943.75 L53.3814 937.847 Z" fill="#000000" fill-rule="evenodd" fill-opacity="1" /><path clip-path="url(#clip460)" d="M112.409 896.528 Q106.992 896.528 104.249 901.875 Q101.541 907.188 101.541 917.882 Q101.541 928.542 104.249 933.889 Q106.992 939.201 112.409 939.201 Q117.86 939.201 120.569 933.889 Q123.312 928.542 123.312 917.882 Q123.312 907.188 120.569 901.875 Q117.86 896.528 112.409 896.528 M112.409 890.973 Q121.124 890.973 125.707 897.882 Q130.325 904.757 130.325 917.882 Q130.325 930.972 125.707 937.882 Q121.124 944.757 112.409 944.757 Q103.694 944.757 99.0756 937.882 Q94.4923 930.972 94.4923 917.882 Q94.4923 904.757 99.0756 897.882 Q103.694 890.973 112.409 890.973 Z" fill="#000000" fill-rule="evenodd" fill-opacity="1" /><path clip-path="url(#clip460)" d="M130.325 882.125 L166.493 882.125 L166.493 886.921 L130.325 886.921 L130.325 882.125 Z" fill="#000000" fill-rule="evenodd" fill-opacity="1" /><path clip-path="url(#clip460)" d="M196.059 879.924 Q200.149 880.799 202.434 883.563 Q204.748 886.328 204.748 890.391 Q204.748 896.625 200.46 900.039 Q196.171 903.453 188.272 903.453 Q185.62 903.453 182.799 902.917 Q180.006 902.409 177.016 901.365 L177.016 895.864 Q179.386 897.246 182.207 897.951 Q185.028 898.657 188.103 898.657 Q193.463 898.657 196.256 896.541 Q199.077 894.425 199.077 890.391 Q199.077 886.667 196.454 884.579 Q193.858 882.463 189.203 882.463 L184.294 882.463 L184.294 877.78 L189.429 877.78 Q193.632 877.78 195.861 876.115 Q198.09 874.423 198.09 871.263 Q198.09 868.019 195.777 866.298 Q193.491 864.549 189.203 864.549 Q186.862 864.549 184.182 865.056 Q181.501 865.564 178.285 866.636 L178.285 861.558 Q181.53 860.655 184.351 860.204 Q187.2 859.753 189.711 859.753 Q196.2 859.753 199.98 862.715 Q203.76 865.649 203.76 870.671 Q203.76 874.169 201.757 876.595 Q199.754 878.993 196.059 879.924 Z" fill="#000000" fill-rule="evenodd" fill-opacity="1" /><path clip-path="url(#clip460)" d="M54.5381 664.116 L65.9964 664.116 L65.9964 624.568 L53.5312 627.068 L53.5312 620.679 L65.9269 618.179 L72.9408 618.179 L72.9408 664.116 L84.3991 664.116 L84.3991 670.019 L54.5381 670.019 L54.5381 664.116 Z" fill="#000000" fill-rule="evenodd" fill-opacity="1" /><path clip-path="url(#clip460)" d="M113.566 622.797 Q108.149 622.797 105.406 628.144 Q102.698 633.457 102.698 644.151 Q102.698 654.811 105.406 660.158 Q108.149 665.47 113.566 665.47 Q119.017 665.47 121.725 660.158 Q124.468 654.811 124.468 644.151 Q124.468 633.457 121.725 628.144 Q119.017 622.797 113.566 622.797 M113.566 617.242 Q122.281 617.242 126.864 624.151 Q131.482 631.026 131.482 644.151 Q131.482 657.241 126.864 664.151 Q122.281 671.026 113.566 671.026 Q104.85 671.026 100.232 664.151 Q95.649 657.241 95.649 644.151 Q95.649 631.026 100.232 624.151 Q104.85 617.242 113.566 617.242 Z" fill="#000000" fill-rule="evenodd" fill-opacity="1" /><path clip-path="url(#clip460)" d="M131.482 608.394 L167.649 608.394 L167.649 613.19 L131.482 613.19 L131.482 608.394 Z" fill="#000000" fill-rule="evenodd" fill-opacity="1" /><path clip-path="url(#clip460)" d="M184.859 624.107 L204.748 624.107 L204.748 628.903 L178.003 628.903 L178.003 624.107 Q181.248 620.75 186.833 615.108 Q192.448 609.437 193.886 607.801 Q196.623 604.726 197.695 602.61 Q198.795 600.466 198.795 598.407 Q198.795 595.049 196.425 592.934 Q194.084 590.818 190.303 590.818 Q187.623 590.818 184.633 591.749 Q181.671 592.68 178.285 594.57 L178.285 588.815 Q181.727 587.432 184.718 586.727 Q187.708 586.022 190.191 586.022 Q196.736 586.022 200.629 589.294 Q204.522 592.567 204.522 598.04 Q204.522 600.635 203.535 602.977 Q202.576 605.29 200.008 608.45 Q199.303 609.268 195.523 613.19 Q191.742 617.083 184.859 624.107 Z" fill="#000000" fill-rule="evenodd" fill-opacity="1" /><path clip-path="url(#clip460)" d="M54.0867 390.385 L65.545 390.385 L65.545 350.837 L53.0798 353.337 L53.0798 346.948 L65.4756 344.448 L72.4894 344.448 L72.4894 390.385 L83.9477 390.385 L83.9477 396.288 L54.0867 396.288 L54.0867 390.385 Z" fill="#000000" fill-rule="evenodd" fill-opacity="1" /><path clip-path="url(#clip460)" d="M113.114 349.066 Q107.698 349.066 104.955 354.413 Q102.246 359.726 102.246 370.42 Q102.246 381.08 104.955 386.427 Q107.698 391.74 113.114 391.74 Q118.566 391.74 121.274 386.427 Q124.017 381.08 124.017 370.42 Q124.017 359.726 121.274 354.413 Q118.566 349.066 113.114 349.066 M113.114 343.511 Q121.829 343.511 126.413 350.42 Q131.031 357.295 131.031 370.42 Q131.031 383.51 126.413 390.42 Q121.829 397.295 113.114 397.295 Q104.399 397.295 99.7809 390.42 Q95.1976 383.51 95.1976 370.42 Q95.1976 357.295 99.7809 350.42 Q104.399 343.511 113.114 343.511 Z" fill="#000000" fill-rule="evenodd" fill-opacity="1" /><path clip-path="url(#clip460)" d="M131.031 334.663 L167.198 334.663 L167.198 339.459 L131.031 339.459 L131.031 334.663 Z" fill="#000000" fill-rule="evenodd" fill-opacity="1" /><path clip-path="url(#clip460)" d="M180.486 350.377 L189.796 350.377 L189.796 318.243 L179.668 320.275 L179.668 315.084 L189.739 313.053 L195.438 313.053 L195.438 350.377 L204.748 350.377 L204.748 355.173 L180.486 355.173 L180.486 350.377 Z" fill="#000000" fill-rule="evenodd" fill-opacity="1" /><path clip-path="url(#clip460)" d="M98.6894 116.654 L110.148 116.654 L110.148 77.106 L97.6824 79.606 L97.6824 73.2172 L110.078 70.7172 L117.092 70.7172 L117.092 116.654 L128.55 116.654 L128.55 122.557 L98.6894 122.557 L98.6894 116.654 Z" fill="#000000" fill-rule="evenodd" fill-opacity="1" /><path clip-path="url(#clip460)" d="M157.717 75.3352 Q152.3 75.3352 149.557 80.6824 Q146.849 85.9949 146.849 96.6892 Q146.849 107.349 149.557 112.696 Q152.3 118.009 157.717 118.009 Q163.168 118.009 165.876 112.696 Q168.62 107.349 168.62 96.6892 Q168.62 85.9949 165.876 80.6824 Q163.168 75.3352 157.717 75.3352 M157.717 69.7797 Q166.432 69.7797 171.015 76.6894 Q175.633 83.5643 175.633 96.6892 Q175.633 109.779 171.015 116.689 Q166.432 123.564 157.717 123.564 Q149.002 123.564 144.384 116.689 Q139.8 109.779 139.8 96.6892 Q139.8 83.5643 144.384 76.6894 Q149.002 69.7797 157.717 69.7797 Z" fill="#000000" fill-rule="evenodd" fill-opacity="1" /><path clip-path="url(#clip460)" d="M190.191 43.0737 Q185.79 43.0737 183.561 47.4183 Q181.36 51.7347 181.36 60.4239 Q181.36 69.0849 183.561 73.4295 Q185.79 77.7458 190.191 77.7458 Q194.62 77.7458 196.82 73.4295 Q199.049 69.0849 199.049 60.4239 Q199.049 51.7347 196.82 47.4183 Q194.62 43.0737 190.191 43.0737 M190.191 38.5598 Q197.272 38.5598 200.996 44.174 Q204.748 49.7599 204.748 60.4239 Q204.748 71.0597 200.996 76.6738 Q197.272 82.2597 190.191 82.2597 Q183.109 82.2597 179.357 76.6738 Q175.633 71.0597 175.633 60.4239 Q175.633 49.7599 179.357 44.174 Q183.109 38.5598 190.191 38.5598 Z" fill="#000000" fill-rule="evenodd" fill-opacity="1" /><polyline clip-path="url(#clip462)" style="stroke:#009af9; stroke-linecap:round; stroke-linejoin:round; stroke-width:16; stroke-opacity:1; fill:none" points="
  240.748,934.793 240.855,950.965 240.963,969.692 241.07,991.936 241.178,1019.33 241.285,1054.99 241.392,1106.19 241.5,1198.11 241.607,1411.02 241.715,1163.86 
  241.822,1089.13 241.929,1043.58 242.037,1010.73 242.144,985.016 242.252,963.881 242.359,945.94 242.467,930.351 242.574,916.569 242.681,904.218 242.789,893.027 
  242.896,882.799 243.111,864.649 243.326,848.901 243.541,834.992 243.756,822.536 243.971,811.258 244.185,800.954 244.615,782.68 245.045,766.833 245.474,752.841 
  245.904,740.314 246.334,728.974 246.764,718.613 247.193,709.076 247.623,700.241 248.482,684.307 249.342,670.237 250.201,657.638 251.061,646.229 252.779,626.204 
  254.498,609.018 256.485,591.771 258.471,576.658 260.458,563.203 262.444,551.073 266.418,529.883 270.391,511.775 274.364,495.95 278.337,481.884 282.31,469.213 
  286.284,457.678 290.257,447.085 294.23,437.285 296.216,432.645 298.203,428.162 299.196,425.976 300.19,423.735 301.183,425.648 302.176,427.595 306.149,435.763 
  310.123,444.607 314.096,454.243 318.069,464.818 322.042,476.526 326.015,489.626 329.988,504.48 333.962,521.61 335.948,531.261 337.935,541.811 339.921,553.44 
  341.908,566.387 343.895,580.984 345.881,597.701 346.874,607.063 347.868,617.248 348.861,628.413 349.854,640.764 350.848,654.578 351.841,670.247 352.834,688.34 
  353.828,709.74 354.821,735.917 355.814,769.618 356.807,816.95 357.801,897.023 358.794,1289.75 359.787,905.838 360.781,820.978 361.774,771.883 362.767,737.175 
  363.76,710.293 364.754,688.34 365.747,669.779 366.74,653.697 367.734,639.505 368.727,626.802 369.72,615.302 371.707,595.125 373.693,577.811 375.68,562.639 
  377.667,549.132 379.653,536.954 381.64,525.863 386.415,502.641 391.191,483.034 395.966,466.041 400.741,451.028 405.517,437.564 410.292,425.348 412.68,419.636 
  415.068,414.156 416.262,411.498 417.455,408.905 418.649,411.19 419.843,413.526 424.619,423.428 429.394,434.354 434.169,446.528 438.945,460.253 443.72,475.957 
  448.496,494.276 450.883,504.707 453.271,516.211 455.659,529.024 458.047,543.474 460.065,557.308 462.084,573.048 464.103,591.289 466.122,612.961 467.131,625.533 
  468.14,639.629 469.15,655.667 470.159,674.259 470.664,684.793 471.169,696.368 471.673,709.208 472.178,723.624 472.683,740.054 473.187,759.15 473.692,781.942 
  474.197,810.205 474.702,847.409 475.206,901.942 475.711,1005.86 476.216,1115.24 476.72,936.069 477.225,867.56 477.73,824.33 478.234,792.663 478.739,767.653 
  479.244,746.978 479.748,729.351 480.253,713.986 480.758,700.365 481.263,688.132 481.767,677.027 482.272,666.86 483.281,648.782 484.291,633.056 485.3,619.138 
  486.31,606.65 487.319,595.323 488.328,584.958 489.338,575.401 490.347,566.534 492.366,550.512 494.385,536.328 496.403,523.596 498.422,512.042 502.46,491.698 
  506.497,474.166 510.535,458.744 514.572,444.962 518.61,432.491 522.648,421.093 527.033,409.719 531.419,399.225 532.516,396.722 533.612,394.264 534.709,391.918 
  535.805,393.993 537.998,398.272 540.191,402.737 544.577,412.29 548.963,422.806 553.349,434.486 557.735,447.602 562.121,462.536 566.507,479.839 568.7,489.628 
  570.893,500.363 573.086,512.241 575.279,525.523 577.472,540.575 579.665,557.927 580.761,567.702 581.858,578.387 582.954,590.167 584.05,603.286 585.147,618.083 
  586.243,635.043 586.792,644.549 587.34,654.898 587.888,666.254 588.436,678.83 588.985,692.919 589.533,708.932 590.081,727.474 590.629,749.489 591.178,776.576 
  591.726,811.778 592.274,862.109 592.822,951.342 593.328,1358.6 593.833,943.685 594.339,863.026 594.844,815.354 595.349,781.378 595.855,754.951 596.36,733.315 
  596.866,714.992 597.371,699.099 597.877,685.063 598.382,672.493 598.887,661.11 599.898,641.131 600.909,623.985 601.92,608.962 602.931,595.589 603.942,583.537 
  604.953,572.564 606.974,553.179 608.996,536.424 611.018,521.661 613.04,508.456 615.061,496.506 617.083,485.586 621.126,466.202 625.17,449.353 629.213,434.43 
  633.257,421.021 637.3,408.831 641.344,397.646 645.387,387.302 649.43,377.672 650.441,375.364 651.452,373.092 652.463,373.011 653.474,374.912 655.496,378.824 
  657.517,382.897 661.852,392.225 666.187,402.494 670.522,413.897 674.857,426.697 679.192,441.258 683.527,458.106 685.695,467.624 687.862,478.048 690.03,489.56 
  692.197,502.404 694.365,516.916 696.532,533.577 697.616,542.927 698.7,553.113 699.783,564.297 700.867,576.691 701.951,590.583 703.035,606.377 704.118,624.667 
  705.202,646.379 705.744,658.966 706.286,673.072 706.828,689.113 707.37,707.697 707.912,729.778 708.453,756.976 708.995,792.376 709.537,843.134 710.079,933.8 
  710.621,1162.45 711.163,903.128 711.705,827.53 712.247,781.615 712.788,748.522 713.33,722.621 713.872,701.329 714.414,683.247 714.956,667.528 715.498,653.622 
  716.04,641.152 716.581,629.847 717.123,619.505 717.665,609.975 718.207,601.136 719.291,585.173 720.375,571.052 721.458,558.386 722.542,546.9 724.71,526.697 
  726.877,509.311 729.388,491.776 731.9,476.371 734.411,462.62 736.922,450.191 741.945,428.394 746.967,409.67 751.99,393.219 757.012,378.517 759.523,371.705 
  762.035,365.203 764.546,358.981 767.057,353.015 768.313,350.12 769.568,348.889 770.824,351.197 772.08,353.563 774.591,358.475 777.102,363.651 782.125,374.9 
  787.147,387.585 792.17,402.088 797.192,418.966 799.703,428.547 802.215,439.079 804.726,450.759 807.237,463.854 809.469,476.974 811.701,491.868 813.932,509.069 
  816.164,529.39 817.28,541.107 818.396,554.171 819.512,568.922 820.627,585.852 821.185,595.351 821.743,605.7 822.301,617.065 822.859,629.664 823.417,643.793 
  823.975,659.872 824.533,678.518 825.091,700.701 825.649,728.067 826.207,763.776 826.765,815.209 827.323,908.201 827.881,1106.15 828.438,869.811 828.996,795.712 
  829.554,750.321 830.112,717.484 830.67,691.727 831.228,670.522 831.786,652.493 832.344,636.806 832.902,622.919 833.46,610.457 834.018,599.153 835.134,579.267 
  836.249,562.159 837.365,547.138 838.481,533.742 839.597,521.649 840.713,510.621 841.829,500.483 842.945,491.097 845.176,474.178 847.408,459.231 849.64,445.829 
  851.871,433.672 856.335,412.258 860.798,393.775 865.262,377.474 869.725,362.859 874.188,349.585 878.652,337.403 880.609,332.357 882.566,327.472 884.523,322.735 
  886.48,318.414 888.437,321.886 890.394,325.499 892.351,329.261 894.308,333.185 902.136,350.776 909.964,372.347 913.878,385.207 917.792,399.946 921.706,417.153 
  925.62,437.741 927.577,449.746 929.534,463.251 931.491,478.663 933.448,496.581 934.427,506.752 935.405,517.939 936.384,530.359 937.362,544.31 938.341,560.211 
  939.319,578.68 939.808,589.161 940.298,600.689 940.787,613.493 941.276,627.887 941.809,645.918 942.343,667.252 942.876,693.358 943.41,726.976 943.943,774.197 
  944.477,854.049 945.01,1238.09 945.543,863.465 946.077,778.363 946.61,729.152 947.144,694.359 947.677,667.403 948.21,645.383 948.744,626.759 949.277,610.614 
  949.811,596.361 950.344,583.599 950.878,572.04 951.411,561.476 951.944,551.745 953.011,534.315 954.078,519.028 955.145,505.404 956.212,493.11 957.278,481.902 
  958.345,471.598 960.479,453.175 962.613,437.037 964.746,422.659 966.88,409.676 971.147,386.918 975.415,367.358 979.682,350.145 983.949,334.727 988.217,320.725 
  992.484,307.867 996.751,295.951 1001.02,284.823 1002.09,282.149 1003.15,279.516 1004.22,279.221 1005.29,280.992 1007.42,284.655 1009.55,288.491 1013.85,296.798 
  1018.14,306.015 1022.43,316.334 1026.72,328.012 1031.02,341.406 1035.31,357.033 1037.46,365.914 1039.6,375.68 1041.75,386.508 1043.89,398.635 1046.04,412.386 
  1048.19,428.225 1049.26,437.133 1050.33,446.85 1051.41,457.528 1052.48,469.371 1053.55,482.647 1054.63,497.736 1055.16,506.123 1055.7,515.189 1056.24,525.049 
  1056.77,535.851 1057.31,547.791 1057.85,561.128 1058.38,576.224 1058.92,593.605 1059.46,614.069 1059.99,638.929 1060.53,670.565 1061.07,714.036 1061.6,783.71 
  1062.14,975.388 1062.68,843.481 1063.21,742.629 1063.75,688.663 1064.28,651.537 1064.82,623.171 1065.36,600.19 1065.89,580.857 1066.43,564.161 1066.97,549.459 
  1067.5,536.319 1068.04,524.435 1068.58,513.584 1069.11,503.595 1069.65,494.339 1070.72,477.634 1071.8,462.858 1072.87,449.598 1073.94,437.561 1076.09,416.342 
  1078.24,398.015 1080.61,380.242 1082.98,364.463 1085.36,350.239 1087.73,337.264 1092.47,314.21 1097.22,294.065 1101.97,276.065 1106.71,259.706 1111.46,244.637 
  1116.21,230.602 1118.58,223.91 1120.95,217.649 1123.32,220.951 1125.7,224.443 1130.44,232.074 1135.19,240.725 1139.94,250.645 1144.68,262.178 1149.43,275.823 
  1154.17,292.341 1156.43,301.539 1158.69,311.849 1160.95,323.534 1163.21,336.958 1165.46,352.649 1167.72,371.416 1168.85,382.337 1169.98,394.588 1171.11,408.51 
  1172.24,424.587 1172.8,433.649 1173.37,443.553 1173.93,454.461 1174.5,466.589 1175.06,480.229 1175.62,495.793 1176.19,513.887 1176.75,535.458 1177.32,562.111 
  1177.88,596.9 1178.45,646.873 1179.01,736.01 1179.58,981.007 1180.14,708.008 1180.7,631.197 1181.27,584.545 1181.83,550.842 1182.4,524.381 1182.96,502.555 
  1183.53,483.951 1184.09,467.718 1184.66,453.302 1185.22,440.324 1185.78,428.51 1186.91,407.621 1188.04,389.517 1189.17,373.5 1190.3,359.106 1191.43,346.007 
  1192.56,333.967 1193.69,322.805 1194.82,312.386 1197.07,293.364 1199.33,276.262 1201.59,260.649 1203.85,246.219 1206.11,232.746 1208.36,220.06 1212.88,196.539 
  1217.4,174.87 1221.91,154.517 1226.43,135.087 1231.12,115.533 1235.82,96.3571 1236.99,91.5917 1238.17,86.9658 1239.34,86.9658 1240.51,86.9658 1242.86,86.9658 
  1245.21,86.9658 1254.6,86.9658 1263.99,86.9658 1282.77,86.9658 1301.55,86.9658 1333.17,86.9658 1364.79,86.9658 1384.1,86.9658 1403.4,86.9658 1408.22,86.9658 
  1413.05,86.9658 1417.87,94.843 1422.7,104.659 1432.35,124.507 1442,144.89 1450.84,164.319 1459.68,184.802 1468.53,206.764 1477.37,230.797 1481.79,243.851 
  1486.21,257.792 1490.63,272.819 1495.05,289.202 1499.47,307.314 1503.89,327.694 1506.1,338.976 1508.31,351.169 1510.52,364.459 1512.73,379.098 1514.77,394.115 
  1516.81,410.965 1518.86,430.211 1520.9,452.726 1521.92,465.628 1522.94,479.962 1523.96,496.109 1524.98,514.618 1525.49,525.005 1526,536.335 1526.51,548.8 
  1527.02,562.662 1527.53,578.282 1528.04,596.184 1528.55,617.166 1529.06,642.538 1529.57,674.674 1530.08,718.619 1530.59,788.675 1531.1,979.551 1531.61,850.397 
  1532.12,749.758 1532.63,696.237 1533.14,659.601 1533.66,631.743 1534.17,609.278 1534.68,590.466 1535.19,574.293 1535.7,560.116 1536.21,547.503 1536.72,536.147 
  1537.23,525.823 1538.25,507.638 1539.27,491.993 1540.29,478.279 1541.31,466.083 1542.33,455.11 1543.35,445.144 1544.37,436.023 1545.39,427.619 1547.43,412.582 
  1549.48,399.439 1551.52,387.787 1553.56,377.336 1557.64,359.247 1561.72,344.004 1565.81,330.883 1569.89,319.405 1573.97,309.233 1578.05,300.125 1586.33,284.232 
  1594.6,270.951 1602.87,259.622 1611.14,249.802 1619.41,241.18 1627.68,233.53 1635.95,226.684 1644.22,220.511 1646.54,218.887 1648.86,218.094 1651.18,221.255 
  1653.49,224.46 1658.13,231.009 1662.76,237.759 1672.03,251.95 1681.3,267.238 1690.57,283.899 1699.84,302.318 1709.11,323.052 1718.38,346.958 1722.58,359.184 
  1726.78,372.531 1730.98,387.258 1735.18,403.726 1739.38,422.454 1743.58,444.236 1745.68,456.647 1747.78,470.369 1749.88,485.731 1751.98,503.202 1753.03,512.934 
  1754.08,523.484 1755.13,535.007 1756.18,547.706 1757.23,561.856 1758.28,577.844 1758.81,586.692 1759.33,596.229 1759.86,606.575 1760.38,617.88 1760.91,630.345 
  1761.43,644.238 1761.96,659.934 1762.48,677.978 1763.01,699.208 1763.53,725.006 1764.06,757.915 1764.58,803.452 1765.11,877.967 1765.63,1120.21 1766.16,914.181 
  1766.68,821.856 1767.21,770.616 1767.73,734.994 1768.26,707.676 1768.78,685.523 1769.31,666.895 1769.83,650.827 1770.36,636.705 1770.88,624.11 1771.41,612.747 
  1771.93,602.397 1772.46,592.897 1772.98,584.119 1774.03,568.346 1775.08,554.48 1776.13,542.116 1777.18,530.964 1779.28,511.498 1781.38,494.91 1783.48,480.474 
  1785.58,467.708 1787.99,454.713 1790.39,443.109 1792.8,432.635 1795.2,423.099 1800.01,406.282 1804.82,391.814 1809.63,379.147 1814.44,367.904 1819.24,357.814 
  1824.05,348.677 1833.67,332.685 1843.29,319.061 1852.9,307.241 1862.52,296.841 1866.97,292.427 1871.43,288.236 1875.88,284.25 1880.33,280.45 1882.56,278.616 
  1884.78,280.539 1887.01,283.304 1889.24,286.113 1893.69,291.871 1898.14,297.832 1907.05,310.433 1915.95,324.101 1924.86,339.079 1933.76,355.707 1942.54,374.184 
  1951.32,395.429 1955.71,407.411 1960.1,420.551 1964.49,435.119 1968.88,451.493 1973.27,470.22 1977.66,492.145 1979.85,504.709 1982.05,518.664 1984.24,534.369 
  1986.44,552.345 1987.53,562.417 1988.63,573.385 1989.73,585.429 1990.82,598.786 1991.92,613.787 1993.02,630.899 1993.57,640.454 1994.12,650.827 1994.67,662.174 
  1995.21,674.698 1995.76,688.676 1996.31,704.493 1996.86,722.71 1997.41,744.197 1997.96,770.397 1998.51,803.993 1999.06,850.906 1999.6,929.349 2000.15,1250.78 
  2000.7,946.639 2001.25,859.818 2001.8,810.242 2002.35,775.408 2002.9,748.539 2003.44,726.669 2003.99,708.23 2004.53,692.729 2005.06,679.037 2005.59,666.777 
  2006.12,655.681 2007.19,636.223 2008.26,619.553 2009.32,604.977 2010.39,592.032 2011.45,580.392 2012.52,569.82 2014.65,551.216 2016.78,535.221 2018.91,521.205 
  2021.04,508.737 2025.3,487.324 2029.56,469.381 2033.83,453.963 2038.09,440.466 2042.35,428.478 2046.61,417.707 2050.87,407.939 2055.14,399.01 2063.66,383.194 
  2072.18,369.527 2080.92,357.241 2089.66,346.341 2098.4,336.566 2107.14,327.722 2111.5,323.601 2115.87,319.66 2120.24,321.586 2124.61,326.843 2133.35,337.925 
  2142.09,349.882 2151.66,364.196 2161.23,380.087 2170.81,398.002 2180.38,418.603 2185.17,430.218 2189.95,442.946 2194.74,457.041 2199.53,472.853 2204.31,490.888 
  2209.1,511.913 2211.5,523.908 2213.89,537.176 2216.28,552.03 2218.68,568.914 2220.41,582.814 2222.15,598.494 2223.89,616.488 2225.63,637.613 2226.5,649.737 
  2227.37,663.214 2228.24,678.385 2229.11,695.744 2229.97,716.039 2230.84,740.474 2231.71,771.203 2232.58,812.659 2233.45,876.698 2234.32,1024.86 2235.19,978.826 
  2236.06,861.817 2236.93,804.091 2237.8,765.462 2238.67,736.401 2239.54,713.107 2240.4,693.671 2241.27,676.999 2242.14,662.405 2243.01,649.432 2243.88,637.756 
  2244.75,627.144 2245.62,617.419 2246.49,608.446 2248.23,592.348 2249.97,578.221 2251.7,565.64 2253.44,554.303 2256.92,534.533 2260.4,517.701 2263.87,503.059 
  2267.35,490.113 2270.83,478.518 2274.3,468.027 2281.26,449.652 2288.21,433.95 2295.16,420.264 2302.12,408.154 2316.02,387.5 2329.93,370.35 2335.64,364.089 
  2341.34,358.205 2347.05,352.658 2352.76,349.125 
  "/>
<path clip-path="url(#clip460)" d="
M1969.04 249.547 L2282.36 249.547 L2282.36 94.0274 L1969.04 94.0274  Z
  " fill="#ffffff" fill-rule="evenodd" fill-opacity="1"/>
<polyline clip-path="url(#clip460)" style="stroke:#000000; stroke-linecap:round; stroke-linejoin:round; stroke-width:4; stroke-opacity:1; fill:none" points="
  1969.04,249.547 2282.36,249.547 2282.36,94.0274 1969.04,94.0274 1969.04,249.547 
  "/>
<polyline clip-path="url(#clip460)" style="stroke:#009af9; stroke-linecap:round; stroke-linejoin:round; stroke-width:6; stroke-opacity:1; fill:none" points="
  1992.51,171.787 2133.31,171.787 
  "/>
<path clip-path="url(#clip460)" d="M2177.54 201.318 Q2174.83 208.263 2172.26 210.381 Q2169.69 212.499 2165.39 212.499 L2160.28 212.499 L2160.28 207.152 L2164.03 207.152 Q2166.67 207.152 2168.13 205.902 Q2169.59 204.652 2171.36 199.999 L2172.51 197.082 L2156.78 158.819 L2163.55 158.819 L2175.7 189.235 L2187.85 158.819 L2194.62 158.819 L2177.54 201.318 Z" fill="#000000" fill-rule="evenodd" fill-opacity="1" /><path clip-path="url(#clip460)" d="M2205.56 191.805 L2217.02 191.805 L2217.02 152.256 L2204.55 154.756 L2204.55 148.367 L2216.95 145.867 L2223.96 145.867 L2223.96 191.805 L2235.42 191.805 L2235.42 197.707 L2205.56 197.707 L2205.56 191.805 Z" fill="#000000" fill-rule="evenodd" fill-opacity="1" /></svg>
