<?xml version="1.0" encoding="utf-8"?>
<svg xmlns="http://www.w3.org/2000/svg" xmlns:xlink="http://www.w3.org/1999/xlink" width="600" height="400" viewBox="0 0 2400 1600">
<defs>
  <clipPath id="clip060">
    <rect x="0" y="0" width="2400" height="1600"/>
  </clipPath>
</defs>
<path clip-path="url(#clip060)" d="
M0 1600 L2400 1600 L2400 0 L0 0  Z
  " fill="#ffffff" fill-rule="evenodd" fill-opacity="1"/>
<defs>
  <clipPath id="clip061">
    <rect x="480" y="0" width="1681" height="1600"/>
  </clipPath>
</defs>
<defs>
  <clipPath id="clip062">
    <rect x="251" y="47" width="2102" height="1365"/>
  </clipPath>
</defs>
<path clip-path="url(#clip060)" d="
M276.876 1410.9 L2352.76 1410.9 L2352.76 47.2441 L276.876 47.2441  Z
  " fill="#ffffff" fill-rule="evenodd" fill-opacity="1"/>
<defs>
  <clipPath id="clip063">
    <rect x="276" y="47" width="2077" height="1365"/>
  </clipPath>
</defs>
<polyline clip-path="url(#clip063)" style="stroke:#000000; stroke-linecap:butt; stroke-linejoin:round; stroke-width:2; stroke-opacity:0.1; fill:none" points="
  390.008,1410.9 390.008,47.2441 
  "/>
<polyline clip-path="url(#clip063)" style="stroke:#000000; stroke-linecap:butt; stroke-linejoin:round; stroke-width:2; stroke-opacity:0.1; fill:none" points="
  1578.48,1410.9 1578.48,47.2441 
  "/>
<polyline clip-path="url(#clip060)" style="stroke:#000000; stroke-linecap:butt; stroke-linejoin:round; stroke-width:4; stroke-opacity:1; fill:none" points="
  276.876,1410.9 2352.76,1410.9 
  "/>
<polyline clip-path="url(#clip060)" style="stroke:#000000; stroke-linecap:butt; stroke-linejoin:round; stroke-width:4; stroke-opacity:1; fill:none" points="
  390.008,1410.9 390.008,1392 
  "/>
<polyline clip-path="url(#clip060)" style="stroke:#000000; stroke-linecap:butt; stroke-linejoin:round; stroke-width:4; stroke-opacity:1; fill:none" points="
  1578.48,1410.9 1578.48,1392 
  "/>
<path clip-path="url(#clip060)" d="M337.02 1485.02 L344.659 1485.02 L344.659 1458.66 L336.349 1460.32 L336.349 1456.06 L344.613 1454.4 L349.289 1454.4 L349.289 1485.02 L356.927 1485.02 L356.927 1488.96 L337.02 1488.96 L337.02 1485.02 Z" fill="#000000" fill-rule="evenodd" fill-opacity="1" /><path clip-path="url(#clip060)" d="M376.372 1457.48 Q372.761 1457.48 370.932 1461.04 Q369.126 1464.58 369.126 1471.71 Q369.126 1478.82 370.932 1482.38 Q372.761 1485.92 376.372 1485.92 Q380.006 1485.92 381.812 1482.38 Q383.64 1478.82 383.64 1471.71 Q383.64 1464.58 381.812 1461.04 Q380.006 1457.48 376.372 1457.48 M376.372 1453.77 Q382.182 1453.77 385.237 1458.38 Q388.316 1462.96 388.316 1471.71 Q388.316 1480.44 385.237 1485.04 Q382.182 1489.63 376.372 1489.63 Q370.562 1489.63 367.483 1485.04 Q364.427 1480.44 364.427 1471.71 Q364.427 1462.96 367.483 1458.38 Q370.562 1453.77 376.372 1453.77 Z" fill="#000000" fill-rule="evenodd" fill-opacity="1" /><path clip-path="url(#clip060)" d="M398.021 1435.97 Q395.087 1435.97 393.601 1438.86 Q392.134 1441.74 392.134 1447.53 Q392.134 1453.31 393.601 1456.2 Q395.087 1459.08 398.021 1459.08 Q400.974 1459.08 402.441 1456.2 Q403.927 1453.31 403.927 1447.53 Q403.927 1441.74 402.441 1438.86 Q400.974 1435.97 398.021 1435.97 M398.021 1432.96 Q402.742 1432.96 405.224 1436.7 Q407.726 1440.43 407.726 1447.53 Q407.726 1454.62 405.224 1458.37 Q402.742 1462.09 398.021 1462.09 Q393.3 1462.09 390.799 1458.37 Q388.316 1454.62 388.316 1447.53 Q388.316 1440.43 390.799 1436.7 Q393.3 1432.96 398.021 1432.96 Z" fill="#000000" fill-rule="evenodd" fill-opacity="1" /><path clip-path="url(#clip060)" d="M414.403 1456.77 L418.371 1456.77 L418.371 1461.55 L414.403 1461.55 L414.403 1456.77 Z" fill="#000000" fill-rule="evenodd" fill-opacity="1" /><path clip-path="url(#clip060)" d="M426.684 1433.47 L441.599 1433.47 L441.599 1436.66 L430.163 1436.66 L430.163 1443.55 Q430.991 1443.27 431.819 1443.13 Q432.646 1442.98 433.474 1442.98 Q438.176 1442.98 440.921 1445.56 Q443.667 1448.14 443.667 1452.54 Q443.667 1457.07 440.846 1459.59 Q438.025 1462.09 432.891 1462.09 Q431.123 1462.09 429.279 1461.79 Q427.455 1461.49 425.499 1460.89 L425.499 1457.07 Q427.192 1457.99 428.997 1458.44 Q430.803 1458.89 432.815 1458.89 Q436.069 1458.89 437.969 1457.18 Q439.868 1455.47 439.868 1452.54 Q439.868 1449.6 437.969 1447.89 Q436.069 1446.18 432.815 1446.18 Q431.292 1446.18 429.768 1446.52 Q428.264 1446.86 426.684 1447.57 L426.684 1433.47 Z" fill="#000000" fill-rule="evenodd" fill-opacity="1" /><path clip-path="url(#clip060)" d="M1525.93 1485.02 L1533.57 1485.02 L1533.57 1458.66 L1525.26 1460.32 L1525.26 1456.06 L1533.52 1454.4 L1538.2 1454.4 L1538.2 1485.02 L1545.84 1485.02 L1545.84 1488.96 L1525.93 1488.96 L1525.93 1485.02 Z" fill="#000000" fill-rule="evenodd" fill-opacity="1" /><path clip-path="url(#clip060)" d="M1565.28 1457.48 Q1561.67 1457.48 1559.84 1461.04 Q1558.04 1464.58 1558.04 1471.71 Q1558.04 1478.82 1559.84 1482.38 Q1561.67 1485.92 1565.28 1485.92 Q1568.92 1485.92 1570.72 1482.38 Q1572.55 1478.82 1572.55 1471.71 Q1572.55 1464.58 1570.72 1461.04 Q1568.92 1457.48 1565.28 1457.48 M1565.28 1453.77 Q1571.09 1453.77 1574.15 1458.38 Q1577.23 1462.96 1577.23 1471.71 Q1577.23 1480.44 1574.15 1485.04 Q1571.09 1489.63 1565.28 1489.63 Q1559.47 1489.63 1556.39 1485.04 Q1553.34 1480.44 1553.34 1471.71 Q1553.34 1462.96 1556.39 1458.38 Q1559.47 1453.77 1565.28 1453.77 Z" fill="#000000" fill-rule="evenodd" fill-opacity="1" /><path clip-path="url(#clip060)" d="M1577.77 1458.35 L1583.98 1458.35 L1583.98 1436.93 L1577.23 1438.28 L1577.23 1434.82 L1583.94 1433.47 L1587.74 1433.47 L1587.74 1458.35 L1593.95 1458.35 L1593.95 1461.55 L1577.77 1461.55 L1577.77 1458.35 Z" fill="#000000" fill-rule="evenodd" fill-opacity="1" /><path clip-path="url(#clip060)" d="M1601.62 1456.77 L1605.59 1456.77 L1605.59 1461.55 L1601.62 1461.55 L1601.62 1456.77 Z" fill="#000000" fill-rule="evenodd" fill-opacity="1" /><path clip-path="url(#clip060)" d="M1621.99 1435.97 Q1619.05 1435.97 1617.57 1438.86 Q1616.1 1441.74 1616.1 1447.53 Q1616.1 1453.31 1617.57 1456.2 Q1619.05 1459.08 1621.99 1459.08 Q1624.94 1459.08 1626.41 1456.2 Q1627.89 1453.31 1627.89 1447.53 Q1627.89 1441.74 1626.41 1438.86 Q1624.94 1435.97 1621.99 1435.97 M1621.99 1432.96 Q1626.71 1432.96 1629.19 1436.7 Q1631.69 1440.43 1631.69 1447.53 Q1631.69 1454.62 1629.19 1458.37 Q1626.71 1462.09 1621.99 1462.09 Q1617.27 1462.09 1614.77 1458.37 Q1612.28 1454.62 1612.28 1447.53 Q1612.28 1440.43 1614.77 1436.7 Q1617.27 1432.96 1621.99 1432.96 Z" fill="#000000" fill-rule="evenodd" fill-opacity="1" /><path clip-path="url(#clip060)" d="M1329.74 1552.67 L1329.74 1574.19 L1323.89 1574.19 L1323.89 1552.86 Q1323.89 1547.8 1321.91 1545.29 Q1319.94 1542.77 1315.99 1542.77 Q1311.25 1542.77 1308.51 1545.79 Q1305.78 1548.82 1305.78 1554.04 L1305.78 1574.19 L1299.89 1574.19 L1299.89 1538.54 L1305.78 1538.54 L1305.78 1544.08 Q1307.88 1540.86 1310.71 1539.27 Q1313.57 1537.68 1317.3 1537.68 Q1323.44 1537.68 1326.59 1541.5 Q1329.74 1545.29 1329.74 1552.67 Z" fill="#000000" fill-rule="evenodd" fill-opacity="1" /><polyline clip-path="url(#clip063)" style="stroke:#000000; stroke-linecap:butt; stroke-linejoin:round; stroke-width:2; stroke-opacity:0.1; fill:none" points="
  276.876,1304.97 2352.76,1304.97 
  "/>
<polyline clip-path="url(#clip063)" style="stroke:#000000; stroke-linecap:butt; stroke-linejoin:round; stroke-width:2; stroke-opacity:0.1; fill:none" points="
  276.876,680.032 2352.76,680.032 
  "/>
<polyline clip-path="url(#clip063)" style="stroke:#000000; stroke-linecap:butt; stroke-linejoin:round; stroke-width:2; stroke-opacity:0.1; fill:none" points="
  276.876,55.0905 2352.76,55.0905 
  "/>
<polyline clip-path="url(#clip060)" style="stroke:#000000; stroke-linecap:butt; stroke-linejoin:round; stroke-width:4; stroke-opacity:1; fill:none" points="
  276.876,1410.9 276.876,47.2441 
  "/>
<polyline clip-path="url(#clip060)" style="stroke:#000000; stroke-linecap:butt; stroke-linejoin:round; stroke-width:4; stroke-opacity:1; fill:none" points="
  276.876,1304.97 295.773,1304.97 
  "/>
<polyline clip-path="url(#clip060)" style="stroke:#000000; stroke-linecap:butt; stroke-linejoin:round; stroke-width:4; stroke-opacity:1; fill:none" points="
  276.876,680.032 295.773,680.032 
  "/>
<polyline clip-path="url(#clip060)" style="stroke:#000000; stroke-linecap:butt; stroke-linejoin:round; stroke-width:4; stroke-opacity:1; fill:none" points="
  276.876,55.0905 295.773,55.0905 
  "/>
<path clip-path="url(#clip060)" d="M114.931 1324.77 L122.57 1324.77 L122.57 1298.4 L114.26 1300.07 L114.26 1295.81 L122.524 1294.14 L127.2 1294.14 L127.2 1324.77 L134.839 1324.77 L134.839 1328.7 L114.931 1328.7 L114.931 1324.77 Z" fill="#000000" fill-rule="evenodd" fill-opacity="1" /><path clip-path="url(#clip060)" d="M154.283 1297.22 Q150.672 1297.22 148.843 1300.78 Q147.038 1304.33 147.038 1311.46 Q147.038 1318.56 148.843 1322.13 Q150.672 1325.67 154.283 1325.67 Q157.917 1325.67 159.723 1322.13 Q161.552 1318.56 161.552 1311.46 Q161.552 1304.33 159.723 1300.78 Q157.917 1297.22 154.283 1297.22 M154.283 1293.52 Q160.093 1293.52 163.149 1298.12 Q166.227 1302.71 166.227 1311.46 Q166.227 1320.18 163.149 1324.79 Q160.093 1329.37 154.283 1329.37 Q148.473 1329.37 145.394 1324.79 Q142.339 1320.18 142.339 1311.46 Q142.339 1302.71 145.394 1298.12 Q148.473 1293.52 154.283 1293.52 Z" fill="#000000" fill-rule="evenodd" fill-opacity="1" /><path clip-path="url(#clip060)" d="M166.227 1287.62 L190.339 1287.62 L190.339 1290.81 L166.227 1290.81 L166.227 1287.62 Z" fill="#000000" fill-rule="evenodd" fill-opacity="1" /><path clip-path="url(#clip060)" d="M199.197 1298.09 L205.404 1298.09 L205.404 1276.67 L198.652 1278.03 L198.652 1274.56 L205.366 1273.21 L209.166 1273.21 L209.166 1298.09 L215.372 1298.09 L215.372 1301.29 L199.197 1301.29 L199.197 1298.09 Z" fill="#000000" fill-rule="evenodd" fill-opacity="1" /><path clip-path="url(#clip060)" d="M231.171 1275.71 Q228.237 1275.71 226.751 1278.61 Q225.284 1281.49 225.284 1287.28 Q225.284 1293.05 226.751 1295.95 Q228.237 1298.83 231.171 1298.83 Q234.124 1298.83 235.591 1295.95 Q237.076 1293.05 237.076 1287.28 Q237.076 1281.49 235.591 1278.61 Q234.124 1275.71 231.171 1275.71 M231.171 1272.7 Q235.891 1272.7 238.374 1276.45 Q240.876 1280.17 240.876 1287.28 Q240.876 1294.37 238.374 1298.11 Q235.891 1301.84 231.171 1301.84 Q226.45 1301.84 223.949 1298.11 Q221.466 1294.37 221.466 1287.28 Q221.466 1280.17 223.949 1276.45 Q226.45 1272.7 231.171 1272.7 Z" fill="#000000" fill-rule="evenodd" fill-opacity="1" /><path clip-path="url(#clip060)" d="M140.247 699.824 L147.886 699.824 L147.886 673.459 L139.575 675.125 L139.575 670.866 L147.839 669.2 L152.515 669.2 L152.515 699.824 L160.154 699.824 L160.154 703.76 L140.247 703.76 L140.247 699.824 Z" fill="#000000" fill-rule="evenodd" fill-opacity="1" /><path clip-path="url(#clip060)" d="M179.598 672.278 Q175.987 672.278 174.159 675.843 Q172.353 679.385 172.353 686.514 Q172.353 693.621 174.159 697.185 Q175.987 700.727 179.598 700.727 Q183.233 700.727 185.038 697.185 Q186.867 693.621 186.867 686.514 Q186.867 679.385 185.038 675.843 Q183.233 672.278 179.598 672.278 M179.598 668.575 Q185.409 668.575 188.464 673.181 Q191.543 677.764 191.543 686.514 Q191.543 695.241 188.464 699.848 Q185.409 704.431 179.598 704.431 Q173.788 704.431 170.71 699.848 Q167.654 695.241 167.654 686.514 Q167.654 677.764 170.71 673.181 Q173.788 668.575 179.598 668.575 Z" fill="#000000" fill-rule="evenodd" fill-opacity="1" /><path clip-path="url(#clip060)" d="M191.543 662.676 L215.654 662.676 L215.654 665.873 L191.543 665.873 L191.543 662.676 Z" fill="#000000" fill-rule="evenodd" fill-opacity="1" /><path clip-path="url(#clip060)" d="M223.892 648.269 L238.807 648.269 L238.807 651.466 L227.372 651.466 L227.372 658.35 Q228.199 658.068 229.027 657.936 Q229.854 657.786 230.682 657.786 Q235.384 657.786 238.13 660.363 Q240.876 662.939 240.876 667.34 Q240.876 671.873 238.054 674.393 Q235.233 676.895 230.099 676.895 Q228.331 676.895 226.488 676.594 Q224.663 676.293 222.707 675.691 L222.707 671.873 Q224.4 672.794 226.205 673.246 Q228.011 673.697 230.023 673.697 Q233.277 673.697 235.177 671.986 Q237.076 670.274 237.076 667.34 Q237.076 664.406 235.177 662.695 Q233.277 660.983 230.023 660.983 Q228.5 660.983 226.977 661.322 Q225.472 661.66 223.892 662.375 L223.892 648.269 Z" fill="#000000" fill-rule="evenodd" fill-opacity="1" /><path clip-path="url(#clip060)" d="M170.17 74.8829 L177.809 74.8829 L177.809 48.5173 L169.499 50.184 L169.499 45.9248 L177.762 44.2581 L182.438 44.2581 L182.438 74.8829 L190.077 74.8829 L190.077 78.8181 L170.17 78.8181 L170.17 74.8829 Z" fill="#000000" fill-rule="evenodd" fill-opacity="1" /><path clip-path="url(#clip060)" d="M209.522 47.3368 Q205.91 47.3368 204.082 50.9016 Q202.276 54.4432 202.276 61.5728 Q202.276 68.6793 204.082 72.2441 Q205.91 75.7857 209.522 75.7857 Q213.156 75.7857 214.961 72.2441 Q216.79 68.6793 216.79 61.5728 Q216.79 54.4432 214.961 50.9016 Q213.156 47.3368 209.522 47.3368 M209.522 43.6331 Q215.332 43.6331 218.387 48.2396 Q221.466 52.8229 221.466 61.5728 Q221.466 70.2996 218.387 74.9061 Q215.332 79.4894 209.522 79.4894 Q203.711 79.4894 200.633 74.9061 Q197.577 70.2996 197.577 61.5728 Q197.577 52.8229 200.633 48.2396 Q203.711 43.6331 209.522 43.6331 Z" fill="#000000" fill-rule="evenodd" fill-opacity="1" /><path clip-path="url(#clip060)" d="M231.171 25.8291 Q228.237 25.8291 226.751 28.7255 Q225.284 31.6031 225.284 37.3959 Q225.284 43.1699 226.751 46.0663 Q228.237 48.9439 231.171 48.9439 Q234.124 48.9439 235.591 46.0663 Q237.076 43.1699 237.076 37.3959 Q237.076 31.6031 235.591 28.7255 Q234.124 25.8291 231.171 25.8291 M231.171 22.8199 Q235.891 22.8199 238.374 26.5626 Q240.876 30.2866 240.876 37.3959 Q240.876 44.4865 238.374 48.2292 Q235.891 51.9531 231.171 51.9531 Q226.45 51.9531 223.949 48.2292 Q221.466 44.4865 221.466 37.3959 Q221.466 30.2866 223.949 26.5626 Q226.45 22.8199 231.171 22.8199 Z" fill="#000000" fill-rule="evenodd" fill-opacity="1" /><path clip-path="url(#clip060)" d="M44.7161 773.137 L47.5806 773.137 L47.5806 800.064 Q53.6281 799.682 56.8109 796.435 Q59.9619 793.157 59.9619 787.332 Q59.9619 783.959 59.1344 780.808 Q58.3069 777.625 56.6518 774.506 L62.1899 774.506 Q63.5267 777.657 64.227 780.967 Q64.9272 784.277 64.9272 787.683 Q64.9272 796.213 59.9619 801.21 Q54.9967 806.175 46.5303 806.175 Q37.7774 806.175 32.6531 801.464 Q27.4968 796.722 27.4968 788.701 Q27.4968 781.508 32.1438 777.338 Q36.7589 773.137 44.7161 773.137 M42.9973 778.993 Q38.1912 779.057 35.3266 781.699 Q32.4621 784.309 32.4621 788.637 Q32.4621 793.539 35.2312 796.499 Q38.0002 799.427 43.0292 799.873 L42.9973 778.993 Z" fill="#000000" fill-rule="evenodd" fill-opacity="1" /><path clip-path="url(#clip060)" d="M33.8307 742.868 Q33.2578 743.855 33.0032 745.032 Q32.7167 746.178 32.7167 747.579 Q32.7167 752.544 35.9632 755.218 Q39.1779 757.859 45.2253 757.859 L64.0042 757.859 L64.0042 763.748 L28.3562 763.748 L28.3562 757.859 L33.8944 757.859 Q30.6479 756.013 29.0883 753.053 Q27.4968 750.093 27.4968 745.86 Q27.4968 745.255 27.5923 744.523 Q27.656 743.791 27.8151 742.9 L33.8307 742.868 Z" fill="#000000" fill-rule="evenodd" fill-opacity="1" /><path clip-path="url(#clip060)" d="M33.8307 717.214 Q33.2578 718.201 33.0032 719.379 Q32.7167 720.524 32.7167 721.925 Q32.7167 726.89 35.9632 729.564 Q39.1779 732.205 45.2253 732.205 L64.0042 732.205 L64.0042 738.094 L28.3562 738.094 L28.3562 732.205 L33.8944 732.205 Q30.6479 730.359 29.0883 727.399 Q27.4968 724.439 27.4968 720.206 Q27.4968 719.601 27.5923 718.869 Q27.656 718.137 27.8151 717.246 L33.8307 717.214 Z" fill="#000000" fill-rule="evenodd" fill-opacity="1" /><path clip-path="url(#clip060)" d="M32.4621 698.69 Q32.4621 703.401 36.1542 706.138 Q39.8145 708.875 46.212 708.875 Q52.6095 708.875 56.3017 706.17 Q59.9619 703.432 59.9619 698.69 Q59.9619 694.011 56.2698 691.274 Q52.5777 688.537 46.212 688.537 Q39.8781 688.537 36.186 691.274 Q32.4621 694.011 32.4621 698.69 M27.4968 698.69 Q27.4968 691.051 32.4621 686.691 Q37.4273 682.33 46.212 682.33 Q54.9649 682.33 59.9619 686.691 Q64.9272 691.051 64.9272 698.69 Q64.9272 706.361 59.9619 710.721 Q54.9649 715.05 46.212 715.05 Q37.4273 715.05 32.4621 710.721 Q27.4968 706.361 27.4968 698.69 Z" fill="#000000" fill-rule="evenodd" fill-opacity="1" /><path clip-path="url(#clip060)" d="M33.8307 651.966 Q33.2578 652.952 33.0032 654.13 Q32.7167 655.276 32.7167 656.676 Q32.7167 661.642 35.9632 664.315 Q39.1779 666.957 45.2253 666.957 L64.0042 666.957 L64.0042 672.845 L28.3562 672.845 L28.3562 666.957 L33.8944 666.957 Q30.6479 665.111 29.0883 662.151 Q27.4968 659.191 27.4968 654.958 Q27.4968 654.353 27.5923 653.621 Q27.656 652.889 27.8151 651.998 L33.8307 651.966 Z" fill="#000000" fill-rule="evenodd" fill-opacity="1" /><circle clip-path="url(#clip063)" cx="335.627" cy="85.838" r="14" fill="#009af9" fill-rule="evenodd" fill-opacity="1" stroke="#000000" stroke-opacity="1" stroke-width="3.2"/>
<circle clip-path="url(#clip063)" cx="632.598" cy="121.772" r="14" fill="#009af9" fill-rule="evenodd" fill-opacity="1" stroke="#000000" stroke-opacity="1" stroke-width="3.2"/>
<circle clip-path="url(#clip063)" cx="862.947" cy="161.755" r="14" fill="#009af9" fill-rule="evenodd" fill-opacity="1" stroke="#000000" stroke-opacity="1" stroke-width="3.2"/>
<circle clip-path="url(#clip063)" cx="1051.16" cy="205.512" r="14" fill="#009af9" fill-rule="evenodd" fill-opacity="1" stroke="#000000" stroke-opacity="1" stroke-width="3.2"/>
<circle clip-path="url(#clip063)" cx="1210.28" cy="249.616" r="14" fill="#009af9" fill-rule="evenodd" fill-opacity="1" stroke="#000000" stroke-opacity="1" stroke-width="3.2"/>
<circle clip-path="url(#clip063)" cx="1348.13" cy="295.1" r="14" fill="#009af9" fill-rule="evenodd" fill-opacity="1" stroke="#000000" stroke-opacity="1" stroke-width="3.2"/>
<circle clip-path="url(#clip063)" cx="1469.71" cy="341.204" r="14" fill="#009af9" fill-rule="evenodd" fill-opacity="1" stroke="#000000" stroke-opacity="1" stroke-width="3.2"/>
<circle clip-path="url(#clip063)" cx="1578.48" cy="387.98" r="14" fill="#009af9" fill-rule="evenodd" fill-opacity="1" stroke="#000000" stroke-opacity="1" stroke-width="3.2"/>
<circle clip-path="url(#clip063)" cx="1676.86" cy="435.237" r="14" fill="#009af9" fill-rule="evenodd" fill-opacity="1" stroke="#000000" stroke-opacity="1" stroke-width="3.2"/>
<circle clip-path="url(#clip063)" cx="1766.68" cy="482.919" r="14" fill="#009af9" fill-rule="evenodd" fill-opacity="1" stroke="#000000" stroke-opacity="1" stroke-width="3.2"/>
<circle clip-path="url(#clip063)" cx="1849.31" cy="530.952" r="14" fill="#009af9" fill-rule="evenodd" fill-opacity="1" stroke="#000000" stroke-opacity="1" stroke-width="3.2"/>
<circle clip-path="url(#clip063)" cx="1925.81" cy="579.289" r="14" fill="#009af9" fill-rule="evenodd" fill-opacity="1" stroke="#000000" stroke-opacity="1" stroke-width="3.2"/>
<circle clip-path="url(#clip063)" cx="1997.03" cy="627.887" r="14" fill="#009af9" fill-rule="evenodd" fill-opacity="1" stroke="#000000" stroke-opacity="1" stroke-width="3.2"/>
<circle clip-path="url(#clip063)" cx="2063.66" cy="676.714" r="14" fill="#009af9" fill-rule="evenodd" fill-opacity="1" stroke="#000000" stroke-opacity="1" stroke-width="3.2"/>
<circle clip-path="url(#clip063)" cx="2126.24" cy="725.744" r="14" fill="#009af9" fill-rule="evenodd" fill-opacity="1" stroke="#000000" stroke-opacity="1" stroke-width="3.2"/>
<circle clip-path="url(#clip063)" cx="2185.24" cy="774.952" r="14" fill="#009af9" fill-rule="evenodd" fill-opacity="1" stroke="#000000" stroke-opacity="1" stroke-width="3.2"/>
<circle clip-path="url(#clip063)" cx="2241.06" cy="824.322" r="14" fill="#009af9" fill-rule="evenodd" fill-opacity="1" stroke="#000000" stroke-opacity="1" stroke-width="3.2"/>
<circle clip-path="url(#clip063)" cx="2294" cy="873.835" r="14" fill="#009af9" fill-rule="evenodd" fill-opacity="1" stroke="#000000" stroke-opacity="1" stroke-width="3.2"/>
<circle clip-path="url(#clip063)" cx="335.627" cy="138.045" r="14" fill="#e26f46" fill-rule="evenodd" fill-opacity="1" stroke="#000000" stroke-opacity="1" stroke-width="3.2"/>
<circle clip-path="url(#clip063)" cx="632.598" cy="203.216" r="14" fill="#e26f46" fill-rule="evenodd" fill-opacity="1" stroke="#000000" stroke-opacity="1" stroke-width="3.2"/>
<circle clip-path="url(#clip063)" cx="862.947" cy="270.177" r="14" fill="#e26f46" fill-rule="evenodd" fill-opacity="1" stroke="#000000" stroke-opacity="1" stroke-width="3.2"/>
<circle clip-path="url(#clip063)" cx="1051.16" cy="339.268" r="14" fill="#e26f46" fill-rule="evenodd" fill-opacity="1" stroke="#000000" stroke-opacity="1" stroke-width="3.2"/>
<circle clip-path="url(#clip063)" cx="1210.28" cy="409.645" r="14" fill="#e26f46" fill-rule="evenodd" fill-opacity="1" stroke="#000000" stroke-opacity="1" stroke-width="3.2"/>
<circle clip-path="url(#clip063)" cx="1348.13" cy="481.039" r="14" fill="#e26f46" fill-rule="evenodd" fill-opacity="1" stroke="#000000" stroke-opacity="1" stroke-width="3.2"/>
<circle clip-path="url(#clip063)" cx="1469.71" cy="553.209" r="14" fill="#e26f46" fill-rule="evenodd" fill-opacity="1" stroke="#000000" stroke-opacity="1" stroke-width="3.2"/>
<circle clip-path="url(#clip063)" cx="1578.48" cy="626" r="14" fill="#e26f46" fill-rule="evenodd" fill-opacity="1" stroke="#000000" stroke-opacity="1" stroke-width="3.2"/>
<circle clip-path="url(#clip063)" cx="1676.86" cy="699.298" r="14" fill="#e26f46" fill-rule="evenodd" fill-opacity="1" stroke="#000000" stroke-opacity="1" stroke-width="3.2"/>
<circle clip-path="url(#clip063)" cx="1766.68" cy="773.018" r="14" fill="#e26f46" fill-rule="evenodd" fill-opacity="1" stroke="#000000" stroke-opacity="1" stroke-width="3.2"/>
<circle clip-path="url(#clip063)" cx="1849.31" cy="847.094" r="14" fill="#e26f46" fill-rule="evenodd" fill-opacity="1" stroke="#000000" stroke-opacity="1" stroke-width="3.2"/>
<circle clip-path="url(#clip063)" cx="1925.81" cy="921.474" r="14" fill="#e26f46" fill-rule="evenodd" fill-opacity="1" stroke="#000000" stroke-opacity="1" stroke-width="3.2"/>
<circle clip-path="url(#clip063)" cx="1997.03" cy="996.118" r="14" fill="#e26f46" fill-rule="evenodd" fill-opacity="1" stroke="#000000" stroke-opacity="1" stroke-width="3.2"/>
<circle clip-path="url(#clip063)" cx="2063.66" cy="1070.99" r="14" fill="#e26f46" fill-rule="evenodd" fill-opacity="1" stroke="#000000" stroke-opacity="1" stroke-width="3.2"/>
<circle clip-path="url(#clip063)" cx="2126.24" cy="1146.07" r="14" fill="#e26f46" fill-rule="evenodd" fill-opacity="1" stroke="#000000" stroke-opacity="1" stroke-width="3.2"/>
<circle clip-path="url(#clip063)" cx="2185.24" cy="1221.33" r="14" fill="#e26f46" fill-rule="evenodd" fill-opacity="1" stroke="#000000" stroke-opacity="1" stroke-width="3.2"/>
<circle clip-path="url(#clip063)" cx="2241.06" cy="1296.75" r="14" fill="#e26f46" fill-rule="evenodd" fill-opacity="1" stroke="#000000" stroke-opacity="1" stroke-width="3.2"/>
<circle clip-path="url(#clip063)" cx="2294" cy="1372.3" r="14" fill="#e26f46" fill-rule="evenodd" fill-opacity="1" stroke="#000000" stroke-opacity="1" stroke-width="3.2"/>
<polyline clip-path="url(#clip063)" style="stroke:#3da44d; stroke-linecap:butt; stroke-linejoin:round; stroke-width:16; stroke-opacity:1; fill:none" points="
  335.627,114.725 632.598,130.341 862.947,142.454 1051.16,152.35 1210.28,160.718 1348.13,167.966 1469.71,174.36 1578.48,180.079 1676.86,185.252 1766.68,189.976 
  1849.31,194.32 1925.81,198.343 1997.03,202.088 2063.66,205.591 2126.24,208.882 2185.24,211.985 2241.06,214.92 2294,217.704 
  "/>
<polyline clip-path="url(#clip063)" style="stroke:#c271d2; stroke-linecap:butt; stroke-linejoin:round; stroke-width:16; stroke-opacity:1; fill:none" points="
  335.627,174.36 632.598,205.591 862.947,229.817 1051.16,249.61 1210.28,266.345 1348.13,280.842 1469.71,293.629 1578.48,305.067 1676.86,315.414 1766.68,324.861 
  1849.31,333.55 1925.81,341.596 1997.03,349.086 2063.66,356.092 2126.24,362.674 2185.24,368.879 2241.06,374.749 2294,380.318 
  "/>
<polyline clip-path="url(#clip063)" style="stroke:#ac8d18; stroke-linecap:butt; stroke-linejoin:round; stroke-width:16; stroke-opacity:1; fill:none" points="
  335.627,233.994 632.598,280.842 862.947,317.18 1051.16,346.87 1210.28,371.973 1348.13,393.718 1469.71,412.898 1578.48,430.055 1676.86,445.576 1766.68,459.746 
  1849.31,472.78 1925.81,484.848 1997.03,496.083 2063.66,506.593 2126.24,516.466 2185.24,525.774 2241.06,534.578 2294,542.931 
  "/>
<polyline clip-path="url(#clip063)" style="stroke:#00a9ad; stroke-linecap:butt; stroke-linejoin:round; stroke-width:16; stroke-opacity:1; fill:none" points="
  335.627,293.629 632.598,356.092 862.947,404.543 1051.16,444.13 1210.28,477.6 1348.13,506.593 1469.71,532.167 1578.48,555.044 1676.86,575.738 1766.68,594.631 
  1849.31,612.01 1925.81,628.101 1997.03,643.081 2063.66,657.094 2126.24,670.257 2185.24,682.668 2241.06,694.407 2294,705.545 
  "/>
<path clip-path="url(#clip060)" d="
M1793.26 637.019 L2283.56 637.019 L2283.56 92.6992 L1793.26 92.6992  Z
  " fill="#ffffff" fill-rule="evenodd" fill-opacity="1"/>
<polyline clip-path="url(#clip060)" style="stroke:#000000; stroke-linecap:butt; stroke-linejoin:round; stroke-width:4; stroke-opacity:1; fill:none" points="
  1793.26,637.019 2283.56,637.019 2283.56,92.6992 1793.26,92.6992 1793.26,637.019 
  "/>
<circle clip-path="url(#clip060)" cx="1885.52" cy="170.459" r="34" fill="#009af9" fill-rule="evenodd" fill-opacity="1" stroke="#000000" stroke-opacity="1" stroke-width="7.68"/>
<path clip-path="url(#clip060)" d="M2002.53 142.352 L2002.53 147.664 L1996.42 147.664 Q1992.99 147.664 1991.63 149.053 Q1990.31 150.442 1990.31 154.053 L1990.31 157.49 L2000.83 157.49 L2000.83 162.456 L1990.31 162.456 L1990.31 196.379 L1983.89 196.379 L1983.89 162.456 L1977.78 162.456 L1977.78 157.49 L1983.89 157.49 L1983.89 154.782 Q1983.89 148.289 1986.91 145.338 Q1989.93 142.352 1996.49 142.352 L2002.53 142.352 Z" fill="#000000" fill-rule="evenodd" fill-opacity="1" /><path clip-path="url(#clip060)" d="M2037.43 208.185 L2037.43 213.15 L2000.49 213.15 L2000.49 208.185 L2037.43 208.185 Z" fill="#000000" fill-rule="evenodd" fill-opacity="1" /><path clip-path="url(#clip060)" d="M2076.7 175.338 L2076.7 178.463 L2047.33 178.463 Q2047.74 185.06 2051.28 188.532 Q2054.86 191.969 2061.21 191.969 Q2064.9 191.969 2068.33 191.067 Q2071.81 190.164 2075.21 188.358 L2075.21 194.4 Q2071.77 195.858 2068.16 196.622 Q2064.55 197.386 2060.83 197.386 Q2051.53 197.386 2046.08 191.969 Q2040.66 186.553 2040.66 177.317 Q2040.66 167.768 2045.8 162.178 Q2050.97 156.553 2059.72 156.553 Q2067.57 156.553 2072.12 161.622 Q2076.7 166.657 2076.7 175.338 M2070.31 173.463 Q2070.24 168.22 2067.36 165.095 Q2064.51 161.97 2059.79 161.97 Q2054.44 161.97 2051.21 164.99 Q2048.02 168.011 2047.53 173.497 L2070.31 173.463 Z" fill="#000000" fill-rule="evenodd" fill-opacity="1" /><path clip-path="url(#clip060)" d="M2118.26 157.49 L2104.2 176.414 L2118.99 196.379 L2111.46 196.379 L2100.14 181.101 L2088.82 196.379 L2081.28 196.379 L2096.39 176.032 L2082.57 157.49 L2090.1 157.49 L2100.42 171.345 L2110.73 157.49 L2118.26 157.49 Z" fill="#000000" fill-rule="evenodd" fill-opacity="1" /><path clip-path="url(#clip060)" d="M2134.2 190.546 L2134.2 211.171 L2127.78 211.171 L2127.78 157.49 L2134.2 157.49 L2134.2 163.393 Q2136.21 159.921 2139.27 158.254 Q2142.36 156.553 2146.63 156.553 Q2153.71 156.553 2158.12 162.178 Q2162.57 167.803 2162.57 176.97 Q2162.57 186.136 2158.12 191.761 Q2153.71 197.386 2146.63 197.386 Q2142.36 197.386 2139.27 195.719 Q2136.21 194.018 2134.2 190.546 M2155.94 176.97 Q2155.94 169.921 2153.02 165.928 Q2150.14 161.9 2145.07 161.9 Q2140 161.9 2137.08 165.928 Q2134.2 169.921 2134.2 176.97 Q2134.2 184.018 2137.08 188.046 Q2140 192.039 2145.07 192.039 Q2150.14 192.039 2153.02 188.046 Q2155.94 184.018 2155.94 176.97 Z" fill="#000000" fill-rule="evenodd" fill-opacity="1" /><path clip-path="url(#clip060)" d="M2205.48 157.49 L2191.42 176.414 L2206.21 196.379 L2198.68 196.379 L2187.36 181.101 L2176.04 196.379 L2168.51 196.379 L2183.61 176.032 L2169.79 157.49 L2177.33 157.49 L2187.64 171.345 L2197.95 157.49 L2205.48 157.49 Z" fill="#000000" fill-rule="evenodd" fill-opacity="1" /><circle clip-path="url(#clip060)" cx="1885.52" cy="248.219" r="34" fill="#e26f46" fill-rule="evenodd" fill-opacity="1" stroke="#000000" stroke-opacity="1" stroke-width="7.68"/>
<path clip-path="url(#clip060)" d="M2002.53 220.112 L2002.53 225.424 L1996.42 225.424 Q1992.99 225.424 1991.63 226.813 Q1990.31 228.202 1990.31 231.813 L1990.31 235.25 L2000.83 235.25 L2000.83 240.216 L1990.31 240.216 L1990.31 274.139 L1983.89 274.139 L1983.89 240.216 L1977.78 240.216 L1977.78 235.25 L1983.89 235.25 L1983.89 232.542 Q1983.89 226.049 1986.91 223.098 Q1989.93 220.112 1996.49 220.112 L2002.53 220.112 Z" fill="#000000" fill-rule="evenodd" fill-opacity="1" /><path clip-path="url(#clip060)" d="M2037.43 285.945 L2037.43 290.91 L2000.49 290.91 L2000.49 285.945 L2037.43 285.945 Z" fill="#000000" fill-rule="evenodd" fill-opacity="1" /><path clip-path="url(#clip060)" d="M2069.03 241.153 L2069.03 220.112 L2075.42 220.112 L2075.42 274.139 L2069.03 274.139 L2069.03 268.306 Q2067.01 271.778 2063.92 273.479 Q2060.87 275.146 2056.56 275.146 Q2049.51 275.146 2045.07 269.521 Q2040.66 263.896 2040.66 254.73 Q2040.66 245.563 2045.07 239.938 Q2049.51 234.313 2056.56 234.313 Q2060.87 234.313 2063.92 236.014 Q2067.01 237.681 2069.03 241.153 M2047.26 254.73 Q2047.26 261.778 2050.14 265.806 Q2053.06 269.799 2058.12 269.799 Q2063.19 269.799 2066.11 265.806 Q2069.03 261.778 2069.03 254.73 Q2069.03 247.681 2066.11 243.688 Q2063.19 239.66 2058.12 239.66 Q2053.06 239.66 2050.14 243.688 Q2047.26 247.681 2047.26 254.73 Z" fill="#000000" fill-rule="evenodd" fill-opacity="1" /><path clip-path="url(#clip060)" d="M2094.9 224.209 L2094.9 235.25 L2108.05 235.25 L2108.05 240.216 L2094.9 240.216 L2094.9 261.327 Q2094.9 266.084 2096.18 267.438 Q2097.5 268.792 2101.49 268.792 L2108.05 268.792 L2108.05 274.139 L2101.49 274.139 Q2094.1 274.139 2091.28 271.396 Q2088.47 268.618 2088.47 261.327 L2088.47 240.216 L2083.78 240.216 L2083.78 235.25 L2088.47 235.25 L2088.47 224.209 L2094.9 224.209 Z" fill="#000000" fill-rule="evenodd" fill-opacity="1" /><path clip-path="url(#clip060)" d="M2134.13 254.591 Q2126.39 254.591 2123.4 256.361 Q2120.42 258.132 2120.42 262.403 Q2120.42 265.806 2122.64 267.82 Q2124.9 269.799 2128.75 269.799 Q2134.06 269.799 2137.26 266.049 Q2140.49 262.264 2140.49 256.014 L2140.49 254.591 L2134.13 254.591 M2146.87 251.952 L2146.87 274.139 L2140.49 274.139 L2140.49 268.236 Q2138.3 271.778 2135.03 273.479 Q2131.77 275.146 2127.05 275.146 Q2121.08 275.146 2117.53 271.813 Q2114.03 268.445 2114.03 262.82 Q2114.03 256.257 2118.4 252.924 Q2122.81 249.591 2131.53 249.591 L2140.49 249.591 L2140.49 248.966 Q2140.49 244.556 2137.57 242.16 Q2134.69 239.73 2129.44 239.73 Q2126.11 239.73 2122.95 240.528 Q2119.79 241.327 2116.87 242.924 L2116.87 237.021 Q2120.38 235.667 2123.68 235.007 Q2126.98 234.313 2130.1 234.313 Q2138.54 234.313 2142.71 238.688 Q2146.87 243.063 2146.87 251.952 Z" fill="#000000" fill-rule="evenodd" fill-opacity="1" /><path clip-path="url(#clip060)" d="M2192.36 250.667 L2192.36 274.139 L2185.97 274.139 L2185.97 250.875 Q2185.97 245.355 2183.82 242.612 Q2181.67 239.869 2177.36 239.869 Q2172.19 239.869 2169.2 243.167 Q2166.21 246.466 2166.21 252.16 L2166.21 274.139 L2159.79 274.139 L2159.79 235.25 L2166.21 235.25 L2166.21 241.292 Q2168.51 237.785 2171.6 236.049 Q2174.72 234.313 2178.78 234.313 Q2185.49 234.313 2188.92 238.48 Q2192.36 242.612 2192.36 250.667 Z" fill="#000000" fill-rule="evenodd" fill-opacity="1" /><path clip-path="url(#clip060)" d="M2237.43 250.667 L2237.43 274.139 L2231.04 274.139 L2231.04 250.875 Q2231.04 245.355 2228.89 242.612 Q2226.73 239.869 2222.43 239.869 Q2217.26 239.869 2214.27 243.167 Q2211.28 246.466 2211.28 252.16 L2211.28 274.139 L2204.86 274.139 L2204.86 220.112 L2211.28 220.112 L2211.28 241.292 Q2213.58 237.785 2216.67 236.049 Q2219.79 234.313 2223.85 234.313 Q2230.55 234.313 2233.99 238.48 Q2237.43 242.612 2237.43 250.667 Z" fill="#000000" fill-rule="evenodd" fill-opacity="1" /><polyline clip-path="url(#clip060)" style="stroke:#3da44d; stroke-linecap:butt; stroke-linejoin:round; stroke-width:6; stroke-opacity:1; fill:none" points="
  1816.32,325.979 1954.71,325.979 
  "/>
<path clip-path="url(#clip060)" d="M2016.78 353.027 Q2016.78 353.308 2016.46 354.397 Q2016.14 355.486 2015.37 357.172 Q2014.63 358.859 2013.61 360.405 Q2012.6 361.915 2010.91 363.04 Q2009.26 364.129 2007.36 364.129 Q2004.83 364.129 2003.14 362.442 Q2001.46 360.756 2001.46 358.226 Q2001.46 356.821 2002.2 354.889 Q2006.87 342.416 2006.87 338.13 Q2006.87 333.106 2002.97 333.106 Q2001.04 333.106 1999.21 333.844 Q1997.42 334.546 1996.19 335.53 Q1994.96 336.514 1993.83 337.884 Q1992.74 339.219 1992.18 340.133 Q1991.66 341.011 1991.23 341.889 L1990.32 345.473 Q1990.11 346.457 1989.09 350.286 L1987.51 356.786 Q1986.39 361.634 1986.14 362.091 Q1985.79 363.075 1985.02 363.602 Q1984.24 364.129 1983.47 364.129 Q1982.59 364.129 1981.99 363.602 Q1981.4 363.075 1981.4 362.161 Q1981.4 362.021 1981.5 361.494 Q1981.61 360.967 1981.78 360.229 Q1981.96 359.491 1982.03 359.07 L1986.21 342.451 Q1986.98 339.43 1987.16 338.481 Q1987.37 337.498 1987.37 336.408 Q1987.37 333.106 1985.12 333.106 Q1983.29 333.106 1982.1 335.284 Q1980.9 337.462 1979.89 341.678 Q1979.57 342.838 1979.36 343.084 Q1979.18 343.33 1978.66 343.33 Q1977.78 343.295 1977.78 342.592 Q1977.78 342.416 1978.06 341.257 Q1978.34 340.097 1978.87 338.446 Q1979.43 336.76 1979.96 335.635 Q1980.41 334.792 1980.66 334.406 Q1980.94 333.984 1981.61 333.176 Q1982.31 332.333 1983.22 331.946 Q1984.17 331.525 1985.33 331.525 Q1987.93 331.525 1989.83 333.211 Q1991.73 334.863 1991.97 337.779 Q1996.64 331.525 2003.18 331.525 Q2007.04 331.525 2009.26 333.563 Q2011.47 335.6 2011.47 339.219 Q2011.47 340.062 2011.3 341.151 Q2011.15 342.205 2010.8 343.541 Q2010.49 344.876 2010.21 345.894 Q2009.93 346.913 2009.36 348.565 Q2008.8 350.181 2008.55 350.883 Q2008.31 351.586 2007.71 353.237 Q2007.15 354.854 2007.08 355.029 Q2005.78 358.297 2005.78 360.159 Q2005.78 361.388 2006.17 361.951 Q2006.59 362.513 2007.5 362.513 Q2009.96 362.513 2011.79 360.088 Q2013.65 357.629 2014.84 353.624 Q2015.12 352.746 2015.27 352.535 Q2015.44 352.324 2015.93 352.324 Q2016.78 352.324 2016.78 353.027 Z" fill="#000000" fill-rule="evenodd" fill-opacity="1" /><path clip-path="url(#clip060)" d="M2057.33 328.5 Q2057.63 328.795 2057.63 329.213 Q2057.63 329.631 2057.33 329.926 Q2057.04 330.221 2056.62 330.221 L2025.09 330.221 Q2024.67 330.221 2024.38 329.926 Q2024.08 329.631 2024.08 329.213 Q2024.08 328.795 2024.38 328.5 Q2024.67 328.205 2025.09 328.205 L2056.62 328.205 Q2057.04 328.205 2057.33 328.5 Z" fill="#000000" fill-rule="evenodd" fill-opacity="1" /><path clip-path="url(#clip060)" d="M2062.89 313.055 L2062.89 311.481 Q2068.94 311.481 2072.06 308.259 Q2072.92 308.259 2073.07 308.456 Q2073.22 308.653 2073.22 309.563 L2073.22 337.821 Q2073.22 339.321 2073.95 339.788 Q2074.69 340.255 2077.91 340.255 L2079.51 340.255 L2079.51 341.805 Q2077.74 341.657 2071.35 341.657 Q2064.95 341.657 2063.21 341.805 L2063.21 340.255 L2064.8 340.255 Q2067.98 340.255 2068.74 339.813 Q2069.5 339.345 2069.5 337.821 L2069.5 311.727 Q2066.87 313.055 2062.89 313.055 Z" fill="#000000" fill-rule="evenodd" fill-opacity="1" /><polyline clip-path="url(#clip060)" style="stroke:#c271d2; stroke-linecap:butt; stroke-linejoin:round; stroke-width:6; stroke-opacity:1; fill:none" points="
  1816.32,403.739 1954.71,403.739 
  "/>
<path clip-path="url(#clip060)" d="M2016.78 430.787 Q2016.78 431.068 2016.46 432.157 Q2016.14 433.246 2015.37 434.932 Q2014.63 436.619 2013.61 438.165 Q2012.6 439.675 2010.91 440.8 Q2009.26 441.889 2007.36 441.889 Q2004.83 441.889 2003.14 440.202 Q2001.46 438.516 2001.46 435.986 Q2001.46 434.581 2002.2 432.649 Q2006.87 420.176 2006.87 415.89 Q2006.87 410.866 2002.97 410.866 Q2001.04 410.866 1999.21 411.604 Q1997.42 412.306 1996.19 413.29 Q1994.96 414.274 1993.83 415.644 Q1992.74 416.979 1992.18 417.893 Q1991.66 418.771 1991.23 419.649 L1990.32 423.233 Q1990.11 424.217 1989.09 428.046 L1987.51 434.546 Q1986.39 439.394 1986.14 439.851 Q1985.79 440.835 1985.02 441.362 Q1984.24 441.889 1983.47 441.889 Q1982.59 441.889 1981.99 441.362 Q1981.4 440.835 1981.4 439.921 Q1981.4 439.781 1981.5 439.254 Q1981.61 438.727 1981.78 437.989 Q1981.96 437.251 1982.03 436.83 L1986.21 420.211 Q1986.98 417.19 1987.16 416.241 Q1987.37 415.258 1987.37 414.168 Q1987.37 410.866 1985.12 410.866 Q1983.29 410.866 1982.1 413.044 Q1980.9 415.222 1979.89 419.438 Q1979.57 420.598 1979.36 420.844 Q1979.18 421.09 1978.66 421.09 Q1977.78 421.055 1977.78 420.352 Q1977.78 420.176 1978.06 419.017 Q1978.34 417.857 1978.87 416.206 Q1979.43 414.52 1979.96 413.395 Q1980.41 412.552 1980.66 412.166 Q1980.94 411.744 1981.61 410.936 Q1982.31 410.093 1983.22 409.706 Q1984.17 409.285 1985.33 409.285 Q1987.93 409.285 1989.83 410.971 Q1991.73 412.623 1991.97 415.539 Q1996.64 409.285 2003.18 409.285 Q2007.04 409.285 2009.26 411.323 Q2011.47 413.36 2011.47 416.979 Q2011.47 417.822 2011.3 418.911 Q2011.15 419.965 2010.8 421.301 Q2010.49 422.636 2010.21 423.654 Q2009.93 424.673 2009.36 426.325 Q2008.8 427.941 2008.55 428.643 Q2008.31 429.346 2007.71 430.997 Q2007.15 432.614 2007.08 432.789 Q2005.78 436.057 2005.78 437.919 Q2005.78 439.148 2006.17 439.711 Q2006.59 440.273 2007.5 440.273 Q2009.96 440.273 2011.79 437.848 Q2013.65 435.389 2014.84 431.384 Q2015.12 430.506 2015.27 430.295 Q2015.44 430.084 2015.93 430.084 Q2016.78 430.084 2016.78 430.787 Z" fill="#000000" fill-rule="evenodd" fill-opacity="1" /><path clip-path="url(#clip060)" d="M2057.33 406.26 Q2057.63 406.555 2057.63 406.973 Q2057.63 407.391 2057.33 407.686 Q2057.04 407.981 2056.62 407.981 L2025.09 407.981 Q2024.67 407.981 2024.38 407.686 Q2024.08 407.391 2024.08 406.973 Q2024.08 406.555 2024.38 406.26 Q2024.67 405.965 2025.09 405.965 L2056.62 405.965 Q2057.04 405.965 2057.33 406.26 Z" fill="#000000" fill-rule="evenodd" fill-opacity="1" /><path clip-path="url(#clip060)" d="M2062.89 419.565 Q2062.89 418.655 2062.96 418.384 Q2063.06 418.114 2063.45 417.696 L2073.12 406.924 Q2078.4 400.972 2078.4 395.783 Q2078.4 392.414 2076.63 390.003 Q2074.89 387.593 2071.67 387.593 Q2069.45 387.593 2067.58 388.946 Q2065.71 390.298 2064.85 392.709 Q2065 392.659 2065.52 392.659 Q2066.77 392.659 2067.46 393.446 Q2068.17 394.233 2068.17 395.291 Q2068.17 396.644 2067.29 397.308 Q2066.43 397.947 2065.57 397.947 Q2065.22 397.947 2064.75 397.873 Q2064.31 397.8 2063.6 397.111 Q2062.89 396.398 2062.89 395.143 Q2062.89 391.627 2065.54 388.823 Q2068.22 386.019 2072.31 386.019 Q2076.93 386.019 2079.95 388.774 Q2083 391.504 2083 395.783 Q2083 397.283 2082.54 398.66 Q2082.09 400.013 2081.48 401.07 Q2080.89 402.128 2079.27 403.825 Q2077.64 405.522 2076.34 406.727 Q2075.03 407.932 2072.11 410.49 L2066.77 415.679 L2075.85 415.679 Q2080.27 415.679 2080.62 415.286 Q2081.11 414.572 2081.72 410.81 L2083 410.81 L2081.58 419.565 L2062.89 419.565 Z" fill="#000000" fill-rule="evenodd" fill-opacity="1" /><polyline clip-path="url(#clip060)" style="stroke:#ac8d18; stroke-linecap:butt; stroke-linejoin:round; stroke-width:6; stroke-opacity:1; fill:none" points="
  1816.32,481.499 1954.71,481.499 
  "/>
<path clip-path="url(#clip060)" d="M2016.78 509.093 Q2016.78 509.375 2016.46 510.464 Q2016.14 511.553 2015.37 513.239 Q2014.63 514.926 2013.61 516.472 Q2012.6 517.982 2010.91 519.107 Q2009.26 520.196 2007.36 520.196 Q2004.83 520.196 2003.14 518.509 Q2001.46 516.823 2001.46 514.293 Q2001.46 512.888 2002.2 510.956 Q2006.87 498.483 2006.87 494.197 Q2006.87 489.173 2002.97 489.173 Q2001.04 489.173 1999.21 489.911 Q1997.42 490.613 1996.19 491.597 Q1994.96 492.581 1993.83 493.951 Q1992.74 495.286 1992.18 496.199 Q1991.66 497.078 1991.23 497.956 L1990.32 501.54 Q1990.11 502.523 1989.09 506.353 L1987.51 512.853 Q1986.39 517.701 1986.14 518.158 Q1985.79 519.142 1985.02 519.669 Q1984.24 520.196 1983.47 520.196 Q1982.59 520.196 1981.99 519.669 Q1981.4 519.142 1981.4 518.228 Q1981.4 518.088 1981.5 517.561 Q1981.61 517.034 1981.78 516.296 Q1981.96 515.558 1982.03 515.136 L1986.21 498.518 Q1986.98 495.497 1987.16 494.548 Q1987.37 493.564 1987.37 492.475 Q1987.37 489.173 1985.12 489.173 Q1983.29 489.173 1982.1 491.351 Q1980.9 493.529 1979.89 497.745 Q1979.57 498.905 1979.36 499.151 Q1979.18 499.397 1978.66 499.397 Q1977.78 499.361 1977.78 498.659 Q1977.78 498.483 1978.06 497.324 Q1978.34 496.164 1978.87 494.513 Q1979.43 492.827 1979.96 491.702 Q1980.41 490.859 1980.66 490.473 Q1980.94 490.051 1981.61 489.243 Q1982.31 488.4 1983.22 488.013 Q1984.17 487.592 1985.33 487.592 Q1987.93 487.592 1989.83 489.278 Q1991.73 490.929 1991.97 493.845 Q1996.64 487.592 2003.18 487.592 Q2007.04 487.592 2009.26 489.629 Q2011.47 491.667 2011.47 495.286 Q2011.47 496.129 2011.3 497.218 Q2011.15 498.272 2010.8 499.607 Q2010.49 500.942 2010.21 501.961 Q2009.93 502.98 2009.36 504.632 Q2008.8 506.248 2008.55 506.95 Q2008.31 507.653 2007.71 509.304 Q2007.15 510.92 2007.08 511.096 Q2005.78 514.364 2005.78 516.226 Q2005.78 517.455 2006.17 518.017 Q2006.59 518.58 2007.5 518.58 Q2009.96 518.58 2011.79 516.155 Q2013.65 513.696 2014.84 509.691 Q2015.12 508.812 2015.27 508.602 Q2015.44 508.391 2015.93 508.391 Q2016.78 508.391 2016.78 509.093 Z" fill="#000000" fill-rule="evenodd" fill-opacity="1" /><path clip-path="url(#clip060)" d="M2057.33 483.473 Q2057.63 483.768 2057.63 484.186 Q2057.63 484.604 2057.33 484.899 Q2057.04 485.194 2056.62 485.194 L2025.09 485.194 Q2024.67 485.194 2024.38 484.899 Q2024.08 484.604 2024.08 484.186 Q2024.08 483.768 2024.38 483.473 Q2024.67 483.178 2025.09 483.178 L2056.62 483.178 Q2057.04 483.178 2057.33 483.473 Z" fill="#000000" fill-rule="evenodd" fill-opacity="1" /><path clip-path="url(#clip060)" d="M2062.89 489.99 Q2062.89 488.49 2063.75 487.777 Q2064.61 487.064 2065.71 487.064 Q2066.87 487.064 2067.68 487.826 Q2068.52 488.564 2068.52 489.867 Q2068.52 491.269 2067.53 492.056 Q2066.57 492.843 2065.2 492.646 Q2066.4 494.663 2068.62 495.573 Q2070.85 496.483 2072.92 496.483 Q2075.08 496.483 2076.83 494.614 Q2078.6 492.745 2078.6 488.17 Q2078.6 484.284 2077.08 482.046 Q2075.58 479.808 2072.6 479.808 L2070.39 479.808 Q2069.62 479.808 2069.4 479.735 Q2069.18 479.661 2069.18 479.243 Q2069.18 478.751 2069.94 478.653 Q2070.71 478.653 2071.91 478.505 Q2074.84 478.407 2076.39 475.873 Q2077.79 473.512 2077.79 470.143 Q2077.79 467.069 2076.31 465.79 Q2074.86 464.487 2072.97 464.487 Q2071.2 464.487 2069.26 465.224 Q2067.31 465.962 2066.26 467.61 Q2069.38 467.61 2069.38 470.143 Q2069.38 471.25 2068.67 471.988 Q2067.98 472.701 2066.82 472.701 Q2065.71 472.701 2064.98 472.012 Q2064.24 471.299 2064.24 470.094 Q2064.24 467.216 2066.8 465.224 Q2069.38 463.232 2073.17 463.232 Q2076.9 463.232 2079.66 465.2 Q2082.44 467.167 2082.44 470.192 Q2082.44 473.168 2080.47 475.603 Q2078.5 478.038 2075.38 479.046 Q2079.22 479.808 2081.5 482.415 Q2083.79 484.998 2083.79 488.17 Q2083.79 492.105 2080.69 495.007 Q2077.59 497.885 2073.07 497.885 Q2068.89 497.885 2065.89 495.622 Q2062.89 493.359 2062.89 489.99 Z" fill="#000000" fill-rule="evenodd" fill-opacity="1" /><polyline clip-path="url(#clip060)" style="stroke:#00a9ad; stroke-linecap:butt; stroke-linejoin:round; stroke-width:6; stroke-opacity:1; fill:none" points="
  1816.32,559.259 1954.71,559.259 
  "/>
<path clip-path="url(#clip060)" d="M2016.78 586.502 Q2016.78 586.783 2016.46 587.872 Q2016.14 588.961 2015.37 590.648 Q2014.63 592.334 2013.61 593.88 Q2012.6 595.391 2010.91 596.515 Q2009.26 597.604 2007.36 597.604 Q2004.83 597.604 2003.14 595.918 Q2001.46 594.231 2001.46 591.702 Q2001.46 590.296 2002.2 588.364 Q2006.87 575.891 2006.87 571.605 Q2006.87 566.581 2002.97 566.581 Q2001.04 566.581 1999.21 567.319 Q1997.42 568.022 1996.19 569.005 Q1994.96 569.989 1993.83 571.359 Q1992.74 572.694 1992.18 573.608 Q1991.66 574.486 1991.23 575.364 L1990.32 578.948 Q1990.11 579.932 1989.09 583.761 L1987.51 590.261 Q1986.39 595.11 1986.14 595.566 Q1985.79 596.55 1985.02 597.077 Q1984.24 597.604 1983.47 597.604 Q1982.59 597.604 1981.99 597.077 Q1981.4 596.55 1981.4 595.637 Q1981.4 595.496 1981.5 594.969 Q1981.61 594.442 1981.78 593.704 Q1981.96 592.966 1982.03 592.545 L1986.21 575.927 Q1986.98 572.905 1987.16 571.957 Q1987.37 570.973 1987.37 569.884 Q1987.37 566.581 1985.12 566.581 Q1983.29 566.581 1982.1 568.759 Q1980.9 570.938 1979.89 575.154 Q1979.57 576.313 1979.36 576.559 Q1979.18 576.805 1978.66 576.805 Q1977.78 576.77 1977.78 576.067 Q1977.78 575.891 1978.06 574.732 Q1978.34 573.573 1978.87 571.921 Q1979.43 570.235 1979.96 569.111 Q1980.41 568.267 1980.66 567.881 Q1980.94 567.459 1981.61 566.651 Q1982.31 565.808 1983.22 565.422 Q1984.17 565 1985.33 565 Q1987.93 565 1989.83 566.686 Q1991.73 568.338 1991.97 571.254 Q1996.64 565 2003.18 565 Q2007.04 565 2009.26 567.038 Q2011.47 569.076 2011.47 572.694 Q2011.47 573.538 2011.3 574.627 Q2011.15 575.681 2010.8 577.016 Q2010.49 578.351 2010.21 579.37 Q2009.93 580.389 2009.36 582.04 Q2008.8 583.656 2008.55 584.359 Q2008.31 585.061 2007.71 586.713 Q2007.15 588.329 2007.08 588.504 Q2005.78 591.772 2005.78 593.634 Q2005.78 594.864 2006.17 595.426 Q2006.59 595.988 2007.5 595.988 Q2009.96 595.988 2011.79 593.564 Q2013.65 591.104 2014.84 587.099 Q2015.12 586.221 2015.27 586.01 Q2015.44 585.799 2015.93 585.799 Q2016.78 585.799 2016.78 586.502 Z" fill="#000000" fill-rule="evenodd" fill-opacity="1" /><path clip-path="url(#clip060)" d="M2057.33 562.142 Q2057.63 562.437 2057.63 562.856 Q2057.63 563.274 2057.33 563.569 Q2057.04 563.864 2056.62 563.864 L2025.09 563.864 Q2024.67 563.864 2024.38 563.569 Q2024.08 563.274 2024.08 562.856 Q2024.08 562.437 2024.38 562.142 Q2024.67 561.847 2025.09 561.847 L2056.62 561.847 Q2057.04 561.847 2057.33 562.142 Z" fill="#000000" fill-rule="evenodd" fill-opacity="1" /><path clip-path="url(#clip060)" d="M2062.89 567.135 L2062.89 565.585 L2078.36 541.951 Q2078.75 541.336 2079.36 541.361 Q2079.93 541.361 2080.05 541.582 Q2080.17 541.803 2080.17 542.664 L2080.17 565.585 L2085.22 565.585 L2085.22 567.135 L2080.17 567.135 L2080.17 571.512 Q2080.17 572.963 2080.77 573.431 Q2081.38 573.898 2083.99 573.898 L2085.04 573.898 L2085.04 575.447 Q2082.98 575.3 2078.21 575.3 Q2073.46 575.3 2071.4 575.447 L2071.4 573.898 L2072.45 573.898 Q2075.06 573.898 2075.67 573.455 Q2076.29 572.988 2076.29 571.512 L2076.29 567.135 L2062.89 567.135 M2064.31 565.585 L2076.58 565.585 L2076.58 546.796 L2064.31 565.585 Z" fill="#000000" fill-rule="evenodd" fill-opacity="1" /></svg>
