<?xml version="1.0" encoding="utf-8"?>
<svg xmlns="http://www.w3.org/2000/svg" xmlns:xlink="http://www.w3.org/1999/xlink" width="600" height="400" viewBox="0 0 2400 1600">
<defs>
  <clipPath id="clip220">
    <rect x="0" y="0" width="2400" height="1600"/>
  </clipPath>
</defs>
<path clip-path="url(#clip220)" d="
M0 1600 L2400 1600 L2400 0 L0 0  Z
  " fill="#ffffff" fill-rule="evenodd" fill-opacity="1"/>
<defs>
  <clipPath id="clip221">
    <rect x="480" y="0" width="1681" height="1600"/>
  </clipPath>
</defs>
<path clip-path="url(#clip220)" d="
M246.598 1486.45 L2352.76 1486.45 L2352.76 47.2441 L246.598 47.2441  Z
  " fill="#ffffff" fill-rule="evenodd" fill-opacity="1"/>
<defs>
  <clipPath id="clip222">
    <rect x="246" y="47" width="2107" height="1440"/>
  </clipPath>
</defs>
<polyline clip-path="url(#clip222)" style="stroke:#000000; stroke-linecap:round; stroke-linejoin:round; stroke-width:2; stroke-opacity:0.1; fill:none" points="
  306.206,1486.45 306.206,47.2441 
  "/>
<polyline clip-path="url(#clip222)" style="stroke:#000000; stroke-linecap:round; stroke-linejoin:round; stroke-width:2; stroke-opacity:0.1; fill:none" points="
  802.941,1486.45 802.941,47.2441 
  "/>
<polyline clip-path="url(#clip222)" style="stroke:#000000; stroke-linecap:round; stroke-linejoin:round; stroke-width:2; stroke-opacity:0.1; fill:none" points="
  1299.68,1486.45 1299.68,47.2441 
  "/>
<polyline clip-path="url(#clip222)" style="stroke:#000000; stroke-linecap:round; stroke-linejoin:round; stroke-width:2; stroke-opacity:0.1; fill:none" points="
  1796.41,1486.45 1796.41,47.2441 
  "/>
<polyline clip-path="url(#clip222)" style="stroke:#000000; stroke-linecap:round; stroke-linejoin:round; stroke-width:2; stroke-opacity:0.1; fill:none" points="
  2293.15,1486.45 2293.15,47.2441 
  "/>
<polyline clip-path="url(#clip220)" style="stroke:#000000; stroke-linecap:round; stroke-linejoin:round; stroke-width:4; stroke-opacity:1; fill:none" points="
  246.598,1486.45 2352.76,1486.45 
  "/>
<polyline clip-path="url(#clip220)" style="stroke:#000000; stroke-linecap:round; stroke-linejoin:round; stroke-width:4; stroke-opacity:1; fill:none" points="
  306.206,1486.45 306.206,1467.55 
  "/>
<polyline clip-path="url(#clip220)" style="stroke:#000000; stroke-linecap:round; stroke-linejoin:round; stroke-width:4; stroke-opacity:1; fill:none" points="
  802.941,1486.45 802.941,1467.55 
  "/>
<polyline clip-path="url(#clip220)" style="stroke:#000000; stroke-linecap:round; stroke-linejoin:round; stroke-width:4; stroke-opacity:1; fill:none" points="
  1299.68,1486.45 1299.68,1467.55 
  "/>
<polyline clip-path="url(#clip220)" style="stroke:#000000; stroke-linecap:round; stroke-linejoin:round; stroke-width:4; stroke-opacity:1; fill:none" points="
  1796.41,1486.45 1796.41,1467.55 
  "/>
<polyline clip-path="url(#clip220)" style="stroke:#000000; stroke-linecap:round; stroke-linejoin:round; stroke-width:4; stroke-opacity:1; fill:none" points="
  2293.15,1486.45 2293.15,1467.55 
  "/>
<path clip-path="url(#clip220)" d="M252.734 1532.02 L282.41 1532.02 L282.41 1535.95 L252.734 1535.95 L252.734 1532.02 Z" fill="#000000" fill-rule="evenodd" fill-opacity="1" /><path clip-path="url(#clip220)" d="M293.313 1544.91 L300.951 1544.91 L300.951 1518.55 L292.641 1520.21 L292.641 1515.95 L300.905 1514.29 L305.581 1514.29 L305.581 1544.91 L313.22 1544.91 L313.22 1548.85 L293.313 1548.85 L293.313 1544.91 Z" fill="#000000" fill-rule="evenodd" fill-opacity="1" /><path clip-path="url(#clip220)" d="M322.664 1542.97 L327.548 1542.97 L327.548 1548.85 L322.664 1548.85 L322.664 1542.97 Z" fill="#000000" fill-rule="evenodd" fill-opacity="1" /><path clip-path="url(#clip220)" d="M347.734 1517.37 Q344.122 1517.37 342.294 1520.93 Q340.488 1524.47 340.488 1531.6 Q340.488 1538.71 342.294 1542.27 Q344.122 1545.82 347.734 1545.82 Q351.368 1545.82 353.173 1542.27 Q355.002 1538.71 355.002 1531.6 Q355.002 1524.47 353.173 1520.93 Q351.368 1517.37 347.734 1517.37 M347.734 1513.66 Q353.544 1513.66 356.599 1518.27 Q359.678 1522.85 359.678 1531.6 Q359.678 1540.33 356.599 1544.94 Q353.544 1549.52 347.734 1549.52 Q341.923 1549.52 338.845 1544.94 Q335.789 1540.33 335.789 1531.6 Q335.789 1522.85 338.845 1518.27 Q341.923 1513.66 347.734 1513.66 Z" fill="#000000" fill-rule="evenodd" fill-opacity="1" /><path clip-path="url(#clip220)" d="M749.967 1532.02 L779.643 1532.02 L779.643 1535.95 L749.967 1535.95 L749.967 1532.02 Z" fill="#000000" fill-rule="evenodd" fill-opacity="1" /><path clip-path="url(#clip220)" d="M799.735 1517.37 Q796.124 1517.37 794.296 1520.93 Q792.49 1524.47 792.49 1531.6 Q792.49 1538.71 794.296 1542.27 Q796.124 1545.82 799.735 1545.82 Q803.37 1545.82 805.175 1542.27 Q807.004 1538.71 807.004 1531.6 Q807.004 1524.47 805.175 1520.93 Q803.37 1517.37 799.735 1517.37 M799.735 1513.66 Q805.546 1513.66 808.601 1518.27 Q811.68 1522.85 811.68 1531.6 Q811.68 1540.33 808.601 1544.94 Q805.546 1549.52 799.735 1549.52 Q793.925 1549.52 790.847 1544.94 Q787.791 1540.33 787.791 1531.6 Q787.791 1522.85 790.847 1518.27 Q793.925 1513.66 799.735 1513.66 Z" fill="#000000" fill-rule="evenodd" fill-opacity="1" /><path clip-path="url(#clip220)" d="M819.897 1542.97 L824.782 1542.97 L824.782 1548.85 L819.897 1548.85 L819.897 1542.97 Z" fill="#000000" fill-rule="evenodd" fill-opacity="1" /><path clip-path="url(#clip220)" d="M835.013 1514.29 L853.369 1514.29 L853.369 1518.22 L839.295 1518.22 L839.295 1526.7 Q840.314 1526.35 841.332 1526.19 Q842.351 1526 843.369 1526 Q849.156 1526 852.536 1529.17 Q855.916 1532.34 855.916 1537.76 Q855.916 1543.34 852.443 1546.44 Q848.971 1549.52 842.652 1549.52 Q840.476 1549.52 838.207 1549.15 Q835.962 1548.78 833.555 1548.04 L833.555 1543.34 Q835.638 1544.47 837.86 1545.03 Q840.082 1545.58 842.559 1545.58 Q846.564 1545.58 848.902 1543.48 Q851.24 1541.37 851.24 1537.76 Q851.24 1534.15 848.902 1532.04 Q846.564 1529.94 842.559 1529.94 Q840.684 1529.94 838.809 1530.35 Q836.957 1530.77 835.013 1531.65 L835.013 1514.29 Z" fill="#000000" fill-rule="evenodd" fill-opacity="1" /><path clip-path="url(#clip220)" d="M1277.06 1517.37 Q1273.45 1517.37 1271.62 1520.93 Q1269.82 1524.47 1269.82 1531.6 Q1269.82 1538.71 1271.62 1542.27 Q1273.45 1545.82 1277.06 1545.82 Q1280.7 1545.82 1282.5 1542.27 Q1284.33 1538.71 1284.33 1531.6 Q1284.33 1524.47 1282.5 1520.93 Q1280.7 1517.37 1277.06 1517.37 M1277.06 1513.66 Q1282.87 1513.66 1285.93 1518.27 Q1289.01 1522.85 1289.01 1531.6 Q1289.01 1540.33 1285.93 1544.94 Q1282.87 1549.52 1277.06 1549.52 Q1271.25 1549.52 1268.17 1544.94 Q1265.12 1540.33 1265.12 1531.6 Q1265.12 1522.85 1268.17 1518.27 Q1271.25 1513.66 1277.06 1513.66 Z" fill="#000000" fill-rule="evenodd" fill-opacity="1" /><path clip-path="url(#clip220)" d="M1297.22 1542.97 L1302.11 1542.97 L1302.11 1548.85 L1297.22 1548.85 L1297.22 1542.97 Z" fill="#000000" fill-rule="evenodd" fill-opacity="1" /><path clip-path="url(#clip220)" d="M1322.29 1517.37 Q1318.68 1517.37 1316.85 1520.93 Q1315.05 1524.47 1315.05 1531.6 Q1315.05 1538.71 1316.85 1542.27 Q1318.68 1545.82 1322.29 1545.82 Q1325.93 1545.82 1327.73 1542.27 Q1329.56 1538.71 1329.56 1531.6 Q1329.56 1524.47 1327.73 1520.93 Q1325.93 1517.37 1322.29 1517.37 M1322.29 1513.66 Q1328.1 1513.66 1331.16 1518.27 Q1334.24 1522.85 1334.24 1531.6 Q1334.24 1540.33 1331.16 1544.94 Q1328.1 1549.52 1322.29 1549.52 Q1316.48 1549.52 1313.4 1544.94 Q1310.35 1540.33 1310.35 1531.6 Q1310.35 1522.85 1313.4 1518.27 Q1316.48 1513.66 1322.29 1513.66 Z" fill="#000000" fill-rule="evenodd" fill-opacity="1" /><path clip-path="url(#clip220)" d="M1774.29 1517.37 Q1770.68 1517.37 1768.85 1520.93 Q1767.05 1524.47 1767.05 1531.6 Q1767.05 1538.71 1768.85 1542.27 Q1770.68 1545.82 1774.29 1545.82 Q1777.93 1545.82 1779.73 1542.27 Q1781.56 1538.71 1781.56 1531.6 Q1781.56 1524.47 1779.73 1520.93 Q1777.93 1517.37 1774.29 1517.37 M1774.29 1513.66 Q1780.1 1513.66 1783.16 1518.27 Q1786.24 1522.85 1786.24 1531.6 Q1786.24 1540.33 1783.16 1544.94 Q1780.1 1549.52 1774.29 1549.52 Q1768.48 1549.52 1765.41 1544.94 Q1762.35 1540.33 1762.35 1531.6 Q1762.35 1522.85 1765.41 1518.27 Q1768.48 1513.66 1774.29 1513.66 Z" fill="#000000" fill-rule="evenodd" fill-opacity="1" /><path clip-path="url(#clip220)" d="M1794.46 1542.97 L1799.34 1542.97 L1799.34 1548.85 L1794.46 1548.85 L1794.46 1542.97 Z" fill="#000000" fill-rule="evenodd" fill-opacity="1" /><path clip-path="url(#clip220)" d="M1809.57 1514.29 L1827.93 1514.29 L1827.93 1518.22 L1813.85 1518.22 L1813.85 1526.7 Q1814.87 1526.35 1815.89 1526.19 Q1816.91 1526 1817.93 1526 Q1823.72 1526 1827.09 1529.17 Q1830.47 1532.34 1830.47 1537.76 Q1830.47 1543.34 1827 1546.44 Q1823.53 1549.52 1817.21 1549.52 Q1815.03 1549.52 1812.77 1549.15 Q1810.52 1548.78 1808.11 1548.04 L1808.11 1543.34 Q1810.2 1544.47 1812.42 1545.03 Q1814.64 1545.58 1817.12 1545.58 Q1821.12 1545.58 1823.46 1543.48 Q1825.8 1541.37 1825.8 1537.76 Q1825.8 1534.15 1823.46 1532.04 Q1821.12 1529.94 1817.12 1529.94 Q1815.24 1529.94 1813.37 1530.35 Q1811.52 1530.77 1809.57 1531.65 L1809.57 1514.29 Z" fill="#000000" fill-rule="evenodd" fill-opacity="1" /><path clip-path="url(#clip220)" d="M2260.3 1544.91 L2267.94 1544.91 L2267.94 1518.55 L2259.63 1520.21 L2259.63 1515.95 L2267.89 1514.29 L2272.57 1514.29 L2272.57 1544.91 L2280.21 1544.91 L2280.21 1548.85 L2260.3 1548.85 L2260.3 1544.91 Z" fill="#000000" fill-rule="evenodd" fill-opacity="1" /><path clip-path="url(#clip220)" d="M2289.65 1542.97 L2294.54 1542.97 L2294.54 1548.85 L2289.65 1548.85 L2289.65 1542.97 Z" fill="#000000" fill-rule="evenodd" fill-opacity="1" /><path clip-path="url(#clip220)" d="M2314.72 1517.37 Q2311.11 1517.37 2309.28 1520.93 Q2307.48 1524.47 2307.48 1531.6 Q2307.48 1538.71 2309.28 1542.27 Q2311.11 1545.82 2314.72 1545.82 Q2318.36 1545.82 2320.16 1542.27 Q2321.99 1538.71 2321.99 1531.6 Q2321.99 1524.47 2320.16 1520.93 Q2318.36 1517.37 2314.72 1517.37 M2314.72 1513.66 Q2320.53 1513.66 2323.59 1518.27 Q2326.67 1522.85 2326.67 1531.6 Q2326.67 1540.33 2323.59 1544.94 Q2320.53 1549.52 2314.72 1549.52 Q2308.91 1549.52 2305.83 1544.94 Q2302.78 1540.33 2302.78 1531.6 Q2302.78 1522.85 2305.83 1518.27 Q2308.91 1513.66 2314.72 1513.66 Z" fill="#000000" fill-rule="evenodd" fill-opacity="1" /><polyline clip-path="url(#clip222)" style="stroke:#000000; stroke-linecap:round; stroke-linejoin:round; stroke-width:2; stroke-opacity:0.1; fill:none" points="
  246.598,1445.74 2352.76,1445.74 
  "/>
<polyline clip-path="url(#clip222)" style="stroke:#000000; stroke-linecap:round; stroke-linejoin:round; stroke-width:2; stroke-opacity:0.1; fill:none" points="
  246.598,1191.25 2352.76,1191.25 
  "/>
<polyline clip-path="url(#clip222)" style="stroke:#000000; stroke-linecap:round; stroke-linejoin:round; stroke-width:2; stroke-opacity:0.1; fill:none" points="
  246.598,936.766 2352.76,936.766 
  "/>
<polyline clip-path="url(#clip222)" style="stroke:#000000; stroke-linecap:round; stroke-linejoin:round; stroke-width:2; stroke-opacity:0.1; fill:none" points="
  246.598,682.279 2352.76,682.279 
  "/>
<polyline clip-path="url(#clip222)" style="stroke:#000000; stroke-linecap:round; stroke-linejoin:round; stroke-width:2; stroke-opacity:0.1; fill:none" points="
  246.598,427.792 2352.76,427.792 
  "/>
<polyline clip-path="url(#clip222)" style="stroke:#000000; stroke-linecap:round; stroke-linejoin:round; stroke-width:2; stroke-opacity:0.1; fill:none" points="
  246.598,173.305 2352.76,173.305 
  "/>
<polyline clip-path="url(#clip220)" style="stroke:#000000; stroke-linecap:round; stroke-linejoin:round; stroke-width:4; stroke-opacity:1; fill:none" points="
  246.598,1486.45 246.598,47.2441 
  "/>
<polyline clip-path="url(#clip220)" style="stroke:#000000; stroke-linecap:round; stroke-linejoin:round; stroke-width:4; stroke-opacity:1; fill:none" points="
  246.598,1445.74 265.495,1445.74 
  "/>
<polyline clip-path="url(#clip220)" style="stroke:#000000; stroke-linecap:round; stroke-linejoin:round; stroke-width:4; stroke-opacity:1; fill:none" points="
  246.598,1191.25 265.495,1191.25 
  "/>
<polyline clip-path="url(#clip220)" style="stroke:#000000; stroke-linecap:round; stroke-linejoin:round; stroke-width:4; stroke-opacity:1; fill:none" points="
  246.598,936.766 265.495,936.766 
  "/>
<polyline clip-path="url(#clip220)" style="stroke:#000000; stroke-linecap:round; stroke-linejoin:round; stroke-width:4; stroke-opacity:1; fill:none" points="
  246.598,682.279 265.495,682.279 
  "/>
<polyline clip-path="url(#clip220)" style="stroke:#000000; stroke-linecap:round; stroke-linejoin:round; stroke-width:4; stroke-opacity:1; fill:none" points="
  246.598,427.792 265.495,427.792 
  "/>
<polyline clip-path="url(#clip220)" style="stroke:#000000; stroke-linecap:round; stroke-linejoin:round; stroke-width:4; stroke-opacity:1; fill:none" points="
  246.598,173.305 265.495,173.305 
  "/>
<path clip-path="url(#clip220)" d="M62.9365 1431.54 Q59.3254 1431.54 57.4967 1435.1 Q55.6912 1438.65 55.6912 1445.78 Q55.6912 1452.88 57.4967 1456.45 Q59.3254 1459.99 62.9365 1459.99 Q66.5707 1459.99 68.3763 1456.45 Q70.205 1452.88 70.205 1445.78 Q70.205 1438.65 68.3763 1435.1 Q66.5707 1431.54 62.9365 1431.54 M62.9365 1427.84 Q68.7467 1427.84 71.8022 1432.44 Q74.8809 1437.03 74.8809 1445.78 Q74.8809 1454.5 71.8022 1459.11 Q68.7467 1463.69 62.9365 1463.69 Q57.1264 1463.69 54.0477 1459.11 Q50.9921 1454.5 50.9921 1445.78 Q50.9921 1437.03 54.0477 1432.44 Q57.1264 1427.84 62.9365 1427.84 Z" fill="#000000" fill-rule="evenodd" fill-opacity="1" /><path clip-path="url(#clip220)" d="M83.0984 1457.14 L87.9827 1457.14 L87.9827 1463.02 L83.0984 1463.02 L83.0984 1457.14 Z" fill="#000000" fill-rule="evenodd" fill-opacity="1" /><path clip-path="url(#clip220)" d="M108.168 1431.54 Q104.557 1431.54 102.728 1435.1 Q100.922 1438.65 100.922 1445.78 Q100.922 1452.88 102.728 1456.45 Q104.557 1459.99 108.168 1459.99 Q111.802 1459.99 113.608 1456.45 Q115.436 1452.88 115.436 1445.78 Q115.436 1438.65 113.608 1435.1 Q111.802 1431.54 108.168 1431.54 M108.168 1427.84 Q113.978 1427.84 117.033 1432.44 Q120.112 1437.03 120.112 1445.78 Q120.112 1454.5 117.033 1459.11 Q113.978 1463.69 108.168 1463.69 Q102.358 1463.69 99.2789 1459.11 Q96.2234 1454.5 96.2234 1445.78 Q96.2234 1437.03 99.2789 1432.44 Q102.358 1427.84 108.168 1427.84 Z" fill="#000000" fill-rule="evenodd" fill-opacity="1" /><path clip-path="url(#clip220)" d="M138.33 1431.54 Q134.719 1431.54 132.89 1435.1 Q131.084 1438.65 131.084 1445.78 Q131.084 1452.88 132.89 1456.45 Q134.719 1459.99 138.33 1459.99 Q141.964 1459.99 143.769 1456.45 Q145.598 1452.88 145.598 1445.78 Q145.598 1438.65 143.769 1435.1 Q141.964 1431.54 138.33 1431.54 M138.33 1427.84 Q144.14 1427.84 147.195 1432.44 Q150.274 1437.03 150.274 1445.78 Q150.274 1454.5 147.195 1459.11 Q144.14 1463.69 138.33 1463.69 Q132.519 1463.69 129.441 1459.11 Q126.385 1454.5 126.385 1445.78 Q126.385 1437.03 129.441 1432.44 Q132.519 1427.84 138.33 1427.84 Z" fill="#000000" fill-rule="evenodd" fill-opacity="1" /><path clip-path="url(#clip220)" d="M168.491 1431.54 Q164.88 1431.54 163.052 1435.1 Q161.246 1438.65 161.246 1445.78 Q161.246 1452.88 163.052 1456.45 Q164.88 1459.99 168.491 1459.99 Q172.126 1459.99 173.931 1456.45 Q175.76 1452.88 175.76 1445.78 Q175.76 1438.65 173.931 1435.1 Q172.126 1431.54 168.491 1431.54 M168.491 1427.84 Q174.302 1427.84 177.357 1432.44 Q180.436 1437.03 180.436 1445.78 Q180.436 1454.5 177.357 1459.11 Q174.302 1463.69 168.491 1463.69 Q162.681 1463.69 159.603 1459.11 Q156.547 1454.5 156.547 1445.78 Q156.547 1437.03 159.603 1432.44 Q162.681 1427.84 168.491 1427.84 Z" fill="#000000" fill-rule="evenodd" fill-opacity="1" /><path clip-path="url(#clip220)" d="M198.653 1431.54 Q195.042 1431.54 193.214 1435.1 Q191.408 1438.65 191.408 1445.78 Q191.408 1452.88 193.214 1456.45 Q195.042 1459.99 198.653 1459.99 Q202.288 1459.99 204.093 1456.45 Q205.922 1452.88 205.922 1445.78 Q205.922 1438.65 204.093 1435.1 Q202.288 1431.54 198.653 1431.54 M198.653 1427.84 Q204.464 1427.84 207.519 1432.44 Q210.598 1437.03 210.598 1445.78 Q210.598 1454.5 207.519 1459.11 Q204.464 1463.69 198.653 1463.69 Q192.843 1463.69 189.765 1459.11 Q186.709 1454.5 186.709 1445.78 Q186.709 1437.03 189.765 1432.44 Q192.843 1427.84 198.653 1427.84 Z" fill="#000000" fill-rule="evenodd" fill-opacity="1" /><path clip-path="url(#clip220)" d="M63.9319 1177.05 Q60.3208 1177.05 58.4921 1180.62 Q56.6865 1184.16 56.6865 1191.29 Q56.6865 1198.39 58.4921 1201.96 Q60.3208 1205.5 63.9319 1205.5 Q67.5661 1205.5 69.3717 1201.96 Q71.2004 1198.39 71.2004 1191.29 Q71.2004 1184.16 69.3717 1180.62 Q67.5661 1177.05 63.9319 1177.05 M63.9319 1173.35 Q69.742 1173.35 72.7976 1177.95 Q75.8763 1182.54 75.8763 1191.29 Q75.8763 1200.01 72.7976 1204.62 Q69.742 1209.2 63.9319 1209.2 Q58.1217 1209.2 55.043 1204.62 Q51.9875 1200.01 51.9875 1191.29 Q51.9875 1182.54 55.043 1177.95 Q58.1217 1173.35 63.9319 1173.35 Z" fill="#000000" fill-rule="evenodd" fill-opacity="1" /><path clip-path="url(#clip220)" d="M84.0938 1202.65 L88.978 1202.65 L88.978 1208.53 L84.0938 1208.53 L84.0938 1202.65 Z" fill="#000000" fill-rule="evenodd" fill-opacity="1" /><path clip-path="url(#clip220)" d="M109.163 1177.05 Q105.552 1177.05 103.723 1180.62 Q101.918 1184.16 101.918 1191.29 Q101.918 1198.39 103.723 1201.96 Q105.552 1205.5 109.163 1205.5 Q112.797 1205.5 114.603 1201.96 Q116.432 1198.39 116.432 1191.29 Q116.432 1184.16 114.603 1180.62 Q112.797 1177.05 109.163 1177.05 M109.163 1173.35 Q114.973 1173.35 118.029 1177.95 Q121.107 1182.54 121.107 1191.29 Q121.107 1200.01 118.029 1204.62 Q114.973 1209.2 109.163 1209.2 Q103.353 1209.2 100.274 1204.62 Q97.2187 1200.01 97.2187 1191.29 Q97.2187 1182.54 100.274 1177.95 Q103.353 1173.35 109.163 1173.35 Z" fill="#000000" fill-rule="evenodd" fill-opacity="1" /><path clip-path="url(#clip220)" d="M139.325 1177.05 Q135.714 1177.05 133.885 1180.62 Q132.08 1184.16 132.08 1191.29 Q132.08 1198.39 133.885 1201.96 Q135.714 1205.5 139.325 1205.5 Q142.959 1205.5 144.765 1201.96 Q146.593 1198.39 146.593 1191.29 Q146.593 1184.16 144.765 1180.62 Q142.959 1177.05 139.325 1177.05 M139.325 1173.35 Q145.135 1173.35 148.191 1177.95 Q151.269 1182.54 151.269 1191.29 Q151.269 1200.01 148.191 1204.62 Q145.135 1209.2 139.325 1209.2 Q133.515 1209.2 130.436 1204.62 Q127.381 1200.01 127.381 1191.29 Q127.381 1182.54 130.436 1177.95 Q133.515 1173.35 139.325 1173.35 Z" fill="#000000" fill-rule="evenodd" fill-opacity="1" /><path clip-path="url(#clip220)" d="M169.487 1177.05 Q165.876 1177.05 164.047 1180.62 Q162.242 1184.16 162.242 1191.29 Q162.242 1198.39 164.047 1201.96 Q165.876 1205.5 169.487 1205.5 Q173.121 1205.5 174.927 1201.96 Q176.755 1198.39 176.755 1191.29 Q176.755 1184.16 174.927 1180.62 Q173.121 1177.05 169.487 1177.05 M169.487 1173.35 Q175.297 1173.35 178.353 1177.95 Q181.431 1182.54 181.431 1191.29 Q181.431 1200.01 178.353 1204.62 Q175.297 1209.2 169.487 1209.2 Q163.677 1209.2 160.598 1204.62 Q157.542 1200.01 157.542 1191.29 Q157.542 1182.54 160.598 1177.95 Q163.677 1173.35 169.487 1173.35 Z" fill="#000000" fill-rule="evenodd" fill-opacity="1" /><path clip-path="url(#clip220)" d="M189.695 1173.97 L208.051 1173.97 L208.051 1177.91 L193.977 1177.91 L193.977 1186.38 Q194.996 1186.03 196.014 1185.87 Q197.033 1185.69 198.052 1185.69 Q203.839 1185.69 207.218 1188.86 Q210.598 1192.03 210.598 1197.45 Q210.598 1203.02 207.126 1206.13 Q203.653 1209.2 197.334 1209.2 Q195.158 1209.2 192.89 1208.83 Q190.644 1208.46 188.237 1207.72 L188.237 1203.02 Q190.32 1204.16 192.542 1204.71 Q194.765 1205.27 197.241 1205.27 Q201.246 1205.27 203.584 1203.16 Q205.922 1201.06 205.922 1197.45 Q205.922 1193.83 203.584 1191.73 Q201.246 1189.62 197.241 1189.62 Q195.366 1189.62 193.491 1190.04 Q191.64 1190.45 189.695 1191.33 L189.695 1173.97 Z" fill="#000000" fill-rule="evenodd" fill-opacity="1" /><path clip-path="url(#clip220)" d="M62.9365 922.565 Q59.3254 922.565 57.4967 926.13 Q55.6912 929.671 55.6912 936.801 Q55.6912 943.907 57.4967 947.472 Q59.3254 951.014 62.9365 951.014 Q66.5707 951.014 68.3763 947.472 Q70.205 943.907 70.205 936.801 Q70.205 929.671 68.3763 926.13 Q66.5707 922.565 62.9365 922.565 M62.9365 918.861 Q68.7467 918.861 71.8022 923.468 Q74.8809 928.051 74.8809 936.801 Q74.8809 945.528 71.8022 950.134 Q68.7467 954.717 62.9365 954.717 Q57.1264 954.717 54.0477 950.134 Q50.9921 945.528 50.9921 936.801 Q50.9921 928.051 54.0477 923.468 Q57.1264 918.861 62.9365 918.861 Z" fill="#000000" fill-rule="evenodd" fill-opacity="1" /><path clip-path="url(#clip220)" d="M83.0984 948.167 L87.9827 948.167 L87.9827 954.046 L83.0984 954.046 L83.0984 948.167 Z" fill="#000000" fill-rule="evenodd" fill-opacity="1" /><path clip-path="url(#clip220)" d="M108.168 922.565 Q104.557 922.565 102.728 926.13 Q100.922 929.671 100.922 936.801 Q100.922 943.907 102.728 947.472 Q104.557 951.014 108.168 951.014 Q111.802 951.014 113.608 947.472 Q115.436 943.907 115.436 936.801 Q115.436 929.671 113.608 926.13 Q111.802 922.565 108.168 922.565 M108.168 918.861 Q113.978 918.861 117.033 923.468 Q120.112 928.051 120.112 936.801 Q120.112 945.528 117.033 950.134 Q113.978 954.717 108.168 954.717 Q102.358 954.717 99.2789 950.134 Q96.2234 945.528 96.2234 936.801 Q96.2234 928.051 99.2789 923.468 Q102.358 918.861 108.168 918.861 Z" fill="#000000" fill-rule="evenodd" fill-opacity="1" /><path clip-path="url(#clip220)" d="M138.33 922.565 Q134.719 922.565 132.89 926.13 Q131.084 929.671 131.084 936.801 Q131.084 943.907 132.89 947.472 Q134.719 951.014 138.33 951.014 Q141.964 951.014 143.769 947.472 Q145.598 943.907 145.598 936.801 Q145.598 929.671 143.769 926.13 Q141.964 922.565 138.33 922.565 M138.33 918.861 Q144.14 918.861 147.195 923.468 Q150.274 928.051 150.274 936.801 Q150.274 945.528 147.195 950.134 Q144.14 954.717 138.33 954.717 Q132.519 954.717 129.441 950.134 Q126.385 945.528 126.385 936.801 Q126.385 928.051 129.441 923.468 Q132.519 918.861 138.33 918.861 Z" fill="#000000" fill-rule="evenodd" fill-opacity="1" /><path clip-path="url(#clip220)" d="M159.302 950.111 L166.941 950.111 L166.941 923.745 L158.63 925.412 L158.63 921.153 L166.894 919.486 L171.57 919.486 L171.57 950.111 L179.209 950.111 L179.209 954.046 L159.302 954.046 L159.302 950.111 Z" fill="#000000" fill-rule="evenodd" fill-opacity="1" /><path clip-path="url(#clip220)" d="M198.653 922.565 Q195.042 922.565 193.214 926.13 Q191.408 929.671 191.408 936.801 Q191.408 943.907 193.214 947.472 Q195.042 951.014 198.653 951.014 Q202.288 951.014 204.093 947.472 Q205.922 943.907 205.922 936.801 Q205.922 929.671 204.093 926.13 Q202.288 922.565 198.653 922.565 M198.653 918.861 Q204.464 918.861 207.519 923.468 Q210.598 928.051 210.598 936.801 Q210.598 945.528 207.519 950.134 Q204.464 954.717 198.653 954.717 Q192.843 954.717 189.765 950.134 Q186.709 945.528 186.709 936.801 Q186.709 928.051 189.765 923.468 Q192.843 918.861 198.653 918.861 Z" fill="#000000" fill-rule="evenodd" fill-opacity="1" /><path clip-path="url(#clip220)" d="M63.9319 668.078 Q60.3208 668.078 58.4921 671.643 Q56.6865 675.184 56.6865 682.314 Q56.6865 689.42 58.4921 692.985 Q60.3208 696.527 63.9319 696.527 Q67.5661 696.527 69.3717 692.985 Q71.2004 689.42 71.2004 682.314 Q71.2004 675.184 69.3717 671.643 Q67.5661 668.078 63.9319 668.078 M63.9319 664.374 Q69.742 664.374 72.7976 668.981 Q75.8763 673.564 75.8763 682.314 Q75.8763 691.041 72.7976 695.647 Q69.742 700.23 63.9319 700.23 Q58.1217 700.23 55.043 695.647 Q51.9875 691.041 51.9875 682.314 Q51.9875 673.564 55.043 668.981 Q58.1217 664.374 63.9319 664.374 Z" fill="#000000" fill-rule="evenodd" fill-opacity="1" /><path clip-path="url(#clip220)" d="M84.0938 693.68 L88.978 693.68 L88.978 699.559 L84.0938 699.559 L84.0938 693.68 Z" fill="#000000" fill-rule="evenodd" fill-opacity="1" /><path clip-path="url(#clip220)" d="M109.163 668.078 Q105.552 668.078 103.723 671.643 Q101.918 675.184 101.918 682.314 Q101.918 689.42 103.723 692.985 Q105.552 696.527 109.163 696.527 Q112.797 696.527 114.603 692.985 Q116.432 689.42 116.432 682.314 Q116.432 675.184 114.603 671.643 Q112.797 668.078 109.163 668.078 M109.163 664.374 Q114.973 664.374 118.029 668.981 Q121.107 673.564 121.107 682.314 Q121.107 691.041 118.029 695.647 Q114.973 700.23 109.163 700.23 Q103.353 700.23 100.274 695.647 Q97.2187 691.041 97.2187 682.314 Q97.2187 673.564 100.274 668.981 Q103.353 664.374 109.163 664.374 Z" fill="#000000" fill-rule="evenodd" fill-opacity="1" /><path clip-path="url(#clip220)" d="M139.325 668.078 Q135.714 668.078 133.885 671.643 Q132.08 675.184 132.08 682.314 Q132.08 689.42 133.885 692.985 Q135.714 696.527 139.325 696.527 Q142.959 696.527 144.765 692.985 Q146.593 689.42 146.593 682.314 Q146.593 675.184 144.765 671.643 Q142.959 668.078 139.325 668.078 M139.325 664.374 Q145.135 664.374 148.191 668.981 Q151.269 673.564 151.269 682.314 Q151.269 691.041 148.191 695.647 Q145.135 700.23 139.325 700.23 Q133.515 700.23 130.436 695.647 Q127.381 691.041 127.381 682.314 Q127.381 673.564 130.436 668.981 Q133.515 664.374 139.325 664.374 Z" fill="#000000" fill-rule="evenodd" fill-opacity="1" /><path clip-path="url(#clip220)" d="M160.297 695.624 L167.936 695.624 L167.936 669.258 L159.626 670.925 L159.626 666.666 L167.89 664.999 L172.566 664.999 L172.566 695.624 L180.204 695.624 L180.204 699.559 L160.297 699.559 L160.297 695.624 Z" fill="#000000" fill-rule="evenodd" fill-opacity="1" /><path clip-path="url(#clip220)" d="M189.695 664.999 L208.051 664.999 L208.051 668.934 L193.977 668.934 L193.977 677.406 Q194.996 677.059 196.014 676.897 Q197.033 676.712 198.052 676.712 Q203.839 676.712 207.218 679.883 Q210.598 683.055 210.598 688.471 Q210.598 694.05 207.126 697.152 Q203.653 700.23 197.334 700.23 Q195.158 700.23 192.89 699.86 Q190.644 699.49 188.237 698.749 L188.237 694.05 Q190.32 695.184 192.542 695.74 Q194.765 696.295 197.241 696.295 Q201.246 696.295 203.584 694.189 Q205.922 692.082 205.922 688.471 Q205.922 684.86 203.584 682.754 Q201.246 680.647 197.241 680.647 Q195.366 680.647 193.491 681.064 Q191.64 681.48 189.695 682.36 L189.695 664.999 Z" fill="#000000" fill-rule="evenodd" fill-opacity="1" /><path clip-path="url(#clip220)" d="M62.9365 413.591 Q59.3254 413.591 57.4967 417.156 Q55.6912 420.697 55.6912 427.827 Q55.6912 434.933 57.4967 438.498 Q59.3254 442.04 62.9365 442.04 Q66.5707 442.04 68.3763 438.498 Q70.205 434.933 70.205 427.827 Q70.205 420.697 68.3763 417.156 Q66.5707 413.591 62.9365 413.591 M62.9365 409.887 Q68.7467 409.887 71.8022 414.493 Q74.8809 419.077 74.8809 427.827 Q74.8809 436.554 71.8022 441.16 Q68.7467 445.743 62.9365 445.743 Q57.1264 445.743 54.0477 441.16 Q50.9921 436.554 50.9921 427.827 Q50.9921 419.077 54.0477 414.493 Q57.1264 409.887 62.9365 409.887 Z" fill="#000000" fill-rule="evenodd" fill-opacity="1" /><path clip-path="url(#clip220)" d="M83.0984 439.192 L87.9827 439.192 L87.9827 445.072 L83.0984 445.072 L83.0984 439.192 Z" fill="#000000" fill-rule="evenodd" fill-opacity="1" /><path clip-path="url(#clip220)" d="M108.168 413.591 Q104.557 413.591 102.728 417.156 Q100.922 420.697 100.922 427.827 Q100.922 434.933 102.728 438.498 Q104.557 442.04 108.168 442.04 Q111.802 442.04 113.608 438.498 Q115.436 434.933 115.436 427.827 Q115.436 420.697 113.608 417.156 Q111.802 413.591 108.168 413.591 M108.168 409.887 Q113.978 409.887 117.033 414.493 Q120.112 419.077 120.112 427.827 Q120.112 436.554 117.033 441.16 Q113.978 445.743 108.168 445.743 Q102.358 445.743 99.2789 441.16 Q96.2234 436.554 96.2234 427.827 Q96.2234 419.077 99.2789 414.493 Q102.358 409.887 108.168 409.887 Z" fill="#000000" fill-rule="evenodd" fill-opacity="1" /><path clip-path="url(#clip220)" d="M138.33 413.591 Q134.719 413.591 132.89 417.156 Q131.084 420.697 131.084 427.827 Q131.084 434.933 132.89 438.498 Q134.719 442.04 138.33 442.04 Q141.964 442.04 143.769 438.498 Q145.598 434.933 145.598 427.827 Q145.598 420.697 143.769 417.156 Q141.964 413.591 138.33 413.591 M138.33 409.887 Q144.14 409.887 147.195 414.493 Q150.274 419.077 150.274 427.827 Q150.274 436.554 147.195 441.16 Q144.14 445.743 138.33 445.743 Q132.519 445.743 129.441 441.16 Q126.385 436.554 126.385 427.827 Q126.385 419.077 129.441 414.493 Q132.519 409.887 138.33 409.887 Z" fill="#000000" fill-rule="evenodd" fill-opacity="1" /><path clip-path="url(#clip220)" d="M162.519 441.137 L178.839 441.137 L178.839 445.072 L156.894 445.072 L156.894 441.137 Q159.556 438.382 164.14 433.753 Q168.746 429.1 169.927 427.757 Q172.172 425.234 173.052 423.498 Q173.954 421.739 173.954 420.049 Q173.954 417.294 172.01 415.558 Q170.089 413.822 166.987 413.822 Q164.788 413.822 162.334 414.586 Q159.904 415.35 157.126 416.901 L157.126 412.179 Q159.95 411.044 162.404 410.466 Q164.857 409.887 166.894 409.887 Q172.265 409.887 175.459 412.572 Q178.653 415.257 178.653 419.748 Q178.653 421.878 177.843 423.799 Q177.056 425.697 174.95 428.29 Q174.371 428.961 171.269 432.179 Q168.167 435.373 162.519 441.137 Z" fill="#000000" fill-rule="evenodd" fill-opacity="1" /><path clip-path="url(#clip220)" d="M198.653 413.591 Q195.042 413.591 193.214 417.156 Q191.408 420.697 191.408 427.827 Q191.408 434.933 193.214 438.498 Q195.042 442.04 198.653 442.04 Q202.288 442.04 204.093 438.498 Q205.922 434.933 205.922 427.827 Q205.922 420.697 204.093 417.156 Q202.288 413.591 198.653 413.591 M198.653 409.887 Q204.464 409.887 207.519 414.493 Q210.598 419.077 210.598 427.827 Q210.598 436.554 207.519 441.16 Q204.464 445.743 198.653 445.743 Q192.843 445.743 189.765 441.16 Q186.709 436.554 186.709 427.827 Q186.709 419.077 189.765 414.493 Q192.843 409.887 198.653 409.887 Z" fill="#000000" fill-rule="evenodd" fill-opacity="1" /><path clip-path="url(#clip220)" d="M63.9319 159.104 Q60.3208 159.104 58.4921 162.668 Q56.6865 166.21 56.6865 173.34 Q56.6865 180.446 58.4921 184.011 Q60.3208 187.553 63.9319 187.553 Q67.5661 187.553 69.3717 184.011 Q71.2004 180.446 71.2004 173.34 Q71.2004 166.21 69.3717 162.668 Q67.5661 159.104 63.9319 159.104 M63.9319 155.4 Q69.742 155.4 72.7976 160.006 Q75.8763 164.59 75.8763 173.34 Q75.8763 182.066 72.7976 186.673 Q69.742 191.256 63.9319 191.256 Q58.1217 191.256 55.043 186.673 Q51.9875 182.066 51.9875 173.34 Q51.9875 164.59 55.043 160.006 Q58.1217 155.4 63.9319 155.4 Z" fill="#000000" fill-rule="evenodd" fill-opacity="1" /><path clip-path="url(#clip220)" d="M84.0938 184.705 L88.978 184.705 L88.978 190.585 L84.0938 190.585 L84.0938 184.705 Z" fill="#000000" fill-rule="evenodd" fill-opacity="1" /><path clip-path="url(#clip220)" d="M109.163 159.104 Q105.552 159.104 103.723 162.668 Q101.918 166.21 101.918 173.34 Q101.918 180.446 103.723 184.011 Q105.552 187.553 109.163 187.553 Q112.797 187.553 114.603 184.011 Q116.432 180.446 116.432 173.34 Q116.432 166.21 114.603 162.668 Q112.797 159.104 109.163 159.104 M109.163 155.4 Q114.973 155.4 118.029 160.006 Q121.107 164.59 121.107 173.34 Q121.107 182.066 118.029 186.673 Q114.973 191.256 109.163 191.256 Q103.353 191.256 100.274 186.673 Q97.2187 182.066 97.2187 173.34 Q97.2187 164.59 100.274 160.006 Q103.353 155.4 109.163 155.4 Z" fill="#000000" fill-rule="evenodd" fill-opacity="1" /><path clip-path="url(#clip220)" d="M139.325 159.104 Q135.714 159.104 133.885 162.668 Q132.08 166.21 132.08 173.34 Q132.08 180.446 133.885 184.011 Q135.714 187.553 139.325 187.553 Q142.959 187.553 144.765 184.011 Q146.593 180.446 146.593 173.34 Q146.593 166.21 144.765 162.668 Q142.959 159.104 139.325 159.104 M139.325 155.4 Q145.135 155.4 148.191 160.006 Q151.269 164.59 151.269 173.34 Q151.269 182.066 148.191 186.673 Q145.135 191.256 139.325 191.256 Q133.515 191.256 130.436 186.673 Q127.381 182.066 127.381 173.34 Q127.381 164.59 130.436 160.006 Q133.515 155.4 139.325 155.4 Z" fill="#000000" fill-rule="evenodd" fill-opacity="1" /><path clip-path="url(#clip220)" d="M163.515 186.65 L179.834 186.65 L179.834 190.585 L157.89 190.585 L157.89 186.65 Q160.552 183.895 165.135 179.266 Q169.741 174.613 170.922 173.27 Q173.167 170.747 174.047 169.011 Q174.95 167.252 174.95 165.562 Q174.95 162.807 173.005 161.071 Q171.084 159.335 167.982 159.335 Q165.783 159.335 163.329 160.099 Q160.899 160.863 158.121 162.414 L158.121 157.692 Q160.945 156.557 163.399 155.979 Q165.853 155.4 167.89 155.4 Q173.26 155.4 176.454 158.085 Q179.649 160.77 179.649 165.261 Q179.649 167.391 178.839 169.312 Q178.052 171.21 175.945 173.803 Q175.366 174.474 172.265 177.691 Q169.163 180.886 163.515 186.65 Z" fill="#000000" fill-rule="evenodd" fill-opacity="1" /><path clip-path="url(#clip220)" d="M189.695 156.025 L208.051 156.025 L208.051 159.96 L193.977 159.96 L193.977 168.432 Q194.996 168.085 196.014 167.923 Q197.033 167.738 198.052 167.738 Q203.839 167.738 207.218 170.909 Q210.598 174.08 210.598 179.497 Q210.598 185.076 207.126 188.178 Q203.653 191.256 197.334 191.256 Q195.158 191.256 192.89 190.886 Q190.644 190.515 188.237 189.775 L188.237 185.076 Q190.32 186.21 192.542 186.766 Q194.765 187.321 197.241 187.321 Q201.246 187.321 203.584 185.215 Q205.922 183.108 205.922 179.497 Q205.922 175.886 203.584 173.779 Q201.246 171.673 197.241 171.673 Q195.366 171.673 193.491 172.09 Q191.64 172.506 189.695 173.386 L189.695 156.025 Z" fill="#000000" fill-rule="evenodd" fill-opacity="1" /><polyline clip-path="url(#clip222)" style="stroke:#009af9; stroke-linecap:round; stroke-linejoin:round; stroke-width:16; stroke-opacity:1; fill:none" points="
  306.206,517.002 310.188,890.354 314.17,1146.03 318.152,1309.42 322.133,1401.89 326.115,1441.26 330.097,1442.24 334.079,1416.87 338.061,1374.84 342.043,1323.84 
  346.024,1269.84 350.006,1217.34 353.988,1169.62 357.97,1128.92 361.952,1096.66 365.934,1073.53 369.916,1059.69 373.897,1054.86 377.879,1058.44 381.861,1069.57 
  385.843,1087.24 389.825,1110.33 393.807,1137.68 397.788,1168.1 401.77,1200.47 405.752,1233.68 409.734,1266.75 413.716,1298.77 417.698,1328.93 421.68,1356.54 
  425.661,1381.05 429.643,1402 433.625,1419.05 437.607,1431.98 441.589,1440.67 445.571,1445.1 449.552,1445.34 453.534,1441.53 457.516,1433.9 461.498,1422.73 
  465.48,1408.34 469.462,1391.11 473.444,1371.45 477.425,1349.77 481.407,1326.53 485.389,1302.17 489.371,1277.14 493.353,1251.87 497.335,1226.79 501.317,1202.29 
  505.298,1178.77 509.28,1156.55 513.262,1135.97 517.244,1117.3 521.226,1100.78 525.208,1086.61 529.189,1074.97 533.171,1065.96 537.153,1059.67 541.135,1056.15 
  545.117,1055.39 549.099,1057.37 553.081,1062.02 557.062,1069.22 561.044,1078.86 565.026,1090.77 569.008,1104.76 572.99,1120.63 576.972,1138.14 580.953,1157.06 
  584.935,1177.13 588.917,1198.08 592.899,1219.65 596.881,1241.55 600.863,1263.51 604.845,1285.27 608.826,1306.54 612.808,1327.09 616.79,1346.64 620.772,1364.98 
  624.754,1381.89 628.736,1397.15 632.717,1410.59 636.699,1422.05 640.681,1431.37 644.663,1438.45 648.645,1443.18 652.627,1445.5 656.609,1445.35 660.59,1442.72 
  664.572,1437.59 668.554,1430 672.536,1419.99 676.518,1407.64 680.5,1393.03 684.481,1376.28 688.463,1357.52 692.445,1336.89 696.427,1314.58 700.409,1290.75 
  704.391,1265.6 708.373,1239.34 712.354,1212.19 716.336,1184.37 720.318,1156.1 724.3,1127.64 728.282,1099.2 732.264,1071.02 736.245,1043.35 740.227,1016.41 
  744.209,990.415 748.191,965.594 752.173,942.149 756.155,920.276 760.137,900.159 764.118,881.966 768.1,865.852 772.082,851.952 776.064,840.387 780.046,831.255 
  784.028,824.638 788.009,820.595 791.991,819.166 795.973,820.37 799.955,824.201 803.937,830.637 807.919,839.63 811.901,851.113 815.882,864.997 819.864,881.175 
  823.846,899.518 827.828,919.879 831.81,942.096 835.792,965.986 839.774,991.355 843.755,1017.99 847.737,1045.68 851.719,1074.17 855.701,1103.24 859.683,1132.64 
  863.665,1162.1 867.646,1191.38 871.628,1220.2 875.61,1248.32 879.592,1275.48 883.574,1301.42 887.556,1325.9 891.538,1348.68 895.519,1369.54 899.501,1388.26 
  903.483,1404.64 907.465,1418.5 911.447,1429.66 915.429,1437.99 919.41,1443.36 923.392,1445.65 927.374,1444.8 931.356,1440.75 935.338,1433.45 939.32,1422.92 
  943.302,1409.16 947.283,1392.23 951.265,1372.19 955.247,1349.17 959.229,1323.27 963.211,1294.66 967.193,1263.52 971.174,1230.04 975.156,1194.47 979.138,1157.05 
  983.12,1118.05 987.102,1077.76 991.084,1036.49 995.066,994.563 999.047,952.307 1003.03,910.067 1007.01,868.195 1010.99,827.044 1014.97,786.971 1018.96,748.329 
  1022.94,711.467 1026.92,676.725 1030.9,644.434 1034.88,614.905 1038.87,588.437 1042.85,565.303 1046.83,545.755 1050.81,530.015 1054.79,518.276 1058.78,510.698 
  1062.76,507.405 1066.74,508.483 1070.72,513.98 1074.7,523.901 1078.68,538.209 1082.67,556.822 1086.65,579.617 1090.63,606.424 1094.61,637.029 1098.59,671.176 
  1102.58,708.568 1106.56,748.865 1110.54,791.692 1114.52,836.637 1118.5,883.258 1122.48,931.082 1126.47,979.616 1130.45,1028.34 1134.43,1076.74 1138.41,1124.26 
  1142.39,1170.37 1146.38,1214.53 1150.36,1256.21 1154.34,1294.91 1158.32,1330.11 1162.3,1361.37 1166.28,1388.25 1170.27,1410.36 1174.25,1427.37 1178.23,1438.97 
  1182.21,1444.93 1186.19,1445.08 1190.18,1439.3 1194.16,1427.55 1198.14,1409.86 1202.12,1386.33 1206.1,1357.12 1210.09,1322.47 1214.07,1282.69 1218.05,1238.16 
  1222.03,1189.32 1226.01,1136.67 1229.99,1080.76 1233.98,1022.19 1237.96,961.602 1241.94,899.679 1245.92,837.116 1249.9,774.63 1253.89,712.944 1257.87,652.779 
  1261.85,594.842 1265.83,539.818 1269.81,488.363 1273.79,441.091 1277.78,398.567 1281.76,361.3 1285.74,329.735 1289.72,304.247 1293.7,285.136 1297.69,272.623 
  1301.67,266.846 1305.65,267.861 1309.63,275.639 1313.61,290.067 1317.6,310.95 1321.58,338.017 1325.56,370.921 1329.54,409.247 1333.52,452.518 1337.5,500.202 
  1341.49,551.719 1345.47,606.451 1349.45,663.75 1353.43,722.946 1357.41,783.358 1361.4,844.303 1365.38,905.105 1369.36,965.103 1373.34,1023.66 1377.32,1080.16 
  1381.3,1134.06 1385.29,1184.81 1389.27,1231.96 1393.25,1275.08 1397.23,1313.81 1401.21,1347.88 1405.2,1377.03 1409.18,1401.11 1413.16,1420.02 1417.14,1433.72 
  1421.12,1442.23 1425.11,1445.66 1429.09,1444.13 1433.07,1437.85 1437.05,1427.07 1441.03,1412.08 1445.01,1393.22 1449,1370.85 1452.98,1345.38 1456.96,1317.22 
  1460.94,1286.81 1464.92,1254.6 1468.91,1221.05 1472.89,1186.62 1476.87,1151.75 1480.85,1116.9 1484.83,1082.49 1488.81,1048.94 1492.8,1016.62 1496.78,985.917 
  1500.76,957.15 1504.74,930.626 1508.72,906.615 1512.71,885.349 1516.69,867.026 1520.67,851.805 1524.65,839.809 1528.63,831.121 1532.61,825.788 1536.6,823.82 
  1540.58,825.189 1544.56,829.837 1548.54,837.671 1552.52,848.566 1556.51,862.372 1560.49,878.91 1564.47,897.979 1568.45,919.356 1572.43,942.802 1576.42,968.059 
  1580.4,994.86 1584.38,1022.93 1588.36,1051.97 1592.34,1081.71 1596.32,1111.85 1600.31,1142.1 1604.29,1172.17 1608.27,1201.8 1612.25,1230.71 1616.23,1258.63 
  1620.22,1285.33 1624.2,1310.58 1628.18,1334.16 1632.16,1355.87 1636.14,1375.53 1640.12,1393 1644.11,1408.13 1648.09,1420.81 1652.07,1430.96 1656.05,1438.5 
  1660.03,1443.38 1664.02,1445.6 1668,1445.14 1671.98,1442.03 1675.96,1436.32 1679.94,1428.07 1683.93,1417.37 1687.91,1404.33 1691.89,1389.06 1695.87,1371.71 
  1699.85,1352.43 1703.83,1331.4 1707.82,1308.79 1711.8,1284.81 1715.78,1259.64 1719.76,1233.51 1723.74,1206.62 1727.73,1179.21 1731.71,1151.48 1735.69,1123.67 
  1739.67,1095.99 1743.65,1068.66 1747.63,1041.91 1751.62,1015.94 1755.6,990.94 1759.58,967.117 1763.56,944.646 1767.54,923.7 1771.53,904.434 1775.51,886.993 
  1779.49,871.505 1783.47,858.082 1787.45,846.821 1791.43,837.799 1795.42,831.08 1799.4,826.705 1803.38,824.7 1807.36,825.071 1811.34,827.808 1815.33,832.88 
  1819.31,840.241 1823.29,849.826 1827.27,861.553 1831.25,875.326 1835.24,891.033 1839.22,908.547 1843.2,927.728 1847.18,948.426 1851.16,970.478 1855.14,993.712 
  1859.13,1017.95 1863.11,1043 1867.09,1068.68 1871.07,1094.8 1875.05,1121.14 1879.04,1147.53 1883.02,1173.76 1887,1199.64 1890.98,1224.99 1894.96,1249.62 
  1898.94,1273.36 1902.93,1296.06 1906.91,1317.54 1910.89,1337.69 1914.87,1356.36 1918.85,1373.44 1922.84,1388.84 1926.82,1402.49 1930.8,1414.31 1934.78,1424.26 
  1938.76,1432.31 1942.75,1438.46 1946.73,1442.72 1950.71,1445.13 1954.69,1445.72 1958.67,1444.56 1962.65,1441.76 1966.64,1437.39 1970.62,1431.6 1974.6,1424.5 
  1978.58,1416.25 1982.56,1407.02 1986.55,1396.96 1990.53,1386.27 1994.51,1375.12 1998.49,1363.72 2002.47,1352.25 2006.45,1340.91 2010.44,1329.9 2014.42,1319.41 
  2018.4,1309.62 2022.38,1300.69 2026.36,1292.8 2030.35,1286.09 2034.33,1280.69 2038.31,1276.72 2042.29,1274.25 2046.27,1273.36 2050.25,1274.09 2054.24,1276.45 
  2058.22,1280.44 2062.2,1286 2066.18,1293.06 2070.16,1301.52 2074.15,1311.25 2078.13,1322.08 2082.11,1333.82 2086.09,1346.25 2090.07,1359.12 2094.06,1372.16 
  2098.04,1385.08 2102.02,1397.57 2106,1409.3 2109.98,1419.96 2113.96,1429.2 2117.95,1436.69 2121.93,1442.12 2125.91,1445.17 2129.89,1445.56 2133.87,1443.03 
  2137.86,1437.37 2141.84,1428.4 2145.82,1416.01 2149.8,1400.14 2153.78,1380.79 2157.76,1358.06 2161.75,1332.11 2165.73,1303.21 2169.71,1271.71 2173.69,1238.07 
  2177.67,1202.82 2181.66,1166.62 2185.64,1130.21 2189.62,1094.44 2193.6,1060.22 2197.58,1028.53 2201.57,1000.42 2205.55,976.949 2209.53,959.188 2213.51,948.17 
  2217.49,944.852 2221.47,950.062 2225.46,964.443 2229.44,988.376 2233.42,1021.9 2237.4,1064.63 2241.38,1115.61 2245.37,1173.25 2249.35,1235.11 2253.33,1297.8 
  2257.31,1356.77 2261.29,1406.11 2265.27,1438.31 2269.26,1444.04 2273.24,1411.82 2277.22,1327.73 2281.2,1175.06 2285.18,933.902 2289.17,580.742 2293.15,87.9763 
  
  "/>
<path clip-path="url(#clip220)" d="
M1969.89 250.738 L2282.55 250.738 L2282.55 95.2176 L1969.89 95.2176  Z
  " fill="#ffffff" fill-rule="evenodd" fill-opacity="1"/>
<polyline clip-path="url(#clip220)" style="stroke:#000000; stroke-linecap:round; stroke-linejoin:round; stroke-width:4; stroke-opacity:1; fill:none" points="
  1969.89,250.738 2282.55,250.738 2282.55,95.2176 1969.89,95.2176 1969.89,250.738 
  "/>
<polyline clip-path="url(#clip220)" style="stroke:#009af9; stroke-linecap:round; stroke-linejoin:round; stroke-width:6; stroke-opacity:1; fill:none" points="
  1993.29,172.978 2133.7,172.978 
  "/>
<path clip-path="url(#clip220)" d="M2177.87 202.509 Q2175.16 209.453 2172.59 211.571 Q2170.02 213.689 2165.71 213.689 L2160.61 213.689 L2160.61 208.342 L2164.36 208.342 Q2167 208.342 2168.46 207.092 Q2169.91 205.842 2171.68 201.189 L2172.83 198.273 L2157.1 160.009 L2163.87 160.009 L2176.03 190.425 L2188.18 160.009 L2194.95 160.009 L2177.87 202.509 Z" fill="#000000" fill-rule="evenodd" fill-opacity="1" /><path clip-path="url(#clip220)" d="M2205.89 192.995 L2217.34 192.995 L2217.34 153.446 L2204.88 155.946 L2204.88 149.558 L2217.27 147.058 L2224.29 147.058 L2224.29 192.995 L2235.75 192.995 L2235.75 198.898 L2205.89 198.898 L2205.89 192.995 Z" fill="#000000" fill-rule="evenodd" fill-opacity="1" /></svg>
