<?xml version="1.0" encoding="utf-8"?>
<svg xmlns="http://www.w3.org/2000/svg" xmlns:xlink="http://www.w3.org/1999/xlink" width="600" height="400" viewBox="0 0 2400 1600">
<defs>
  <clipPath id="clip450">
    <rect x="0" y="0" width="2400" height="1600"/>
  </clipPath>
</defs>
<path clip-path="url(#clip450)" d="
M0 1600 L2400 1600 L2400 0 L0 0  Z
  " fill="#ffffff" fill-rule="evenodd" fill-opacity="1"/>
<defs>
  <clipPath id="clip451">
    <rect x="480" y="0" width="1681" height="1600"/>
  </clipPath>
</defs>
<path clip-path="url(#clip450)" d="
M193.288 1486.45 L2352.76 1486.45 L2352.76 47.2441 L193.288 47.2441  Z
  " fill="#ffffff" fill-rule="evenodd" fill-opacity="1"/>
<defs>
  <clipPath id="clip452">
    <rect x="193" y="47" width="2160" height="1440"/>
  </clipPath>
</defs>
<polyline clip-path="url(#clip452)" style="stroke:#000000; stroke-linecap:round; stroke-linejoin:round; stroke-width:2; stroke-opacity:0.1; fill:none" points="
  254.405,1486.45 254.405,47.2441 
  "/>
<polyline clip-path="url(#clip452)" style="stroke:#000000; stroke-linecap:round; stroke-linejoin:round; stroke-width:2; stroke-opacity:0.1; fill:none" points="
  763.713,1486.45 763.713,47.2441 
  "/>
<polyline clip-path="url(#clip452)" style="stroke:#000000; stroke-linecap:round; stroke-linejoin:round; stroke-width:2; stroke-opacity:0.1; fill:none" points="
  1273.02,1486.45 1273.02,47.2441 
  "/>
<polyline clip-path="url(#clip452)" style="stroke:#000000; stroke-linecap:round; stroke-linejoin:round; stroke-width:2; stroke-opacity:0.1; fill:none" points="
  1782.33,1486.45 1782.33,47.2441 
  "/>
<polyline clip-path="url(#clip452)" style="stroke:#000000; stroke-linecap:round; stroke-linejoin:round; stroke-width:2; stroke-opacity:0.1; fill:none" points="
  2291.64,1486.45 2291.64,47.2441 
  "/>
<polyline clip-path="url(#clip450)" style="stroke:#000000; stroke-linecap:round; stroke-linejoin:round; stroke-width:4; stroke-opacity:1; fill:none" points="
  193.288,1486.45 2352.76,1486.45 
  "/>
<polyline clip-path="url(#clip450)" style="stroke:#000000; stroke-linecap:round; stroke-linejoin:round; stroke-width:4; stroke-opacity:1; fill:none" points="
  254.405,1486.45 254.405,1467.55 
  "/>
<polyline clip-path="url(#clip450)" style="stroke:#000000; stroke-linecap:round; stroke-linejoin:round; stroke-width:4; stroke-opacity:1; fill:none" points="
  763.713,1486.45 763.713,1467.55 
  "/>
<polyline clip-path="url(#clip450)" style="stroke:#000000; stroke-linecap:round; stroke-linejoin:round; stroke-width:4; stroke-opacity:1; fill:none" points="
  1273.02,1486.45 1273.02,1467.55 
  "/>
<polyline clip-path="url(#clip450)" style="stroke:#000000; stroke-linecap:round; stroke-linejoin:round; stroke-width:4; stroke-opacity:1; fill:none" points="
  1782.33,1486.45 1782.33,1467.55 
  "/>
<polyline clip-path="url(#clip450)" style="stroke:#000000; stroke-linecap:round; stroke-linejoin:round; stroke-width:4; stroke-opacity:1; fill:none" points="
  2291.64,1486.45 2291.64,1467.55 
  "/>
<path clip-path="url(#clip450)" d="M200.933 1532.02 L230.609 1532.02 L230.609 1535.95 L200.933 1535.95 L200.933 1532.02 Z" fill="#000000" fill-rule="evenodd" fill-opacity="1" /><path clip-path="url(#clip450)" d="M241.511 1544.91 L249.15 1544.91 L249.15 1518.55 L240.84 1520.21 L240.84 1515.95 L249.104 1514.29 L253.78 1514.29 L253.78 1544.91 L261.419 1544.91 L261.419 1548.85 L241.511 1548.85 L241.511 1544.91 Z" fill="#000000" fill-rule="evenodd" fill-opacity="1" /><path clip-path="url(#clip450)" d="M270.863 1542.97 L275.747 1542.97 L275.747 1548.85 L270.863 1548.85 L270.863 1542.97 Z" fill="#000000" fill-rule="evenodd" fill-opacity="1" /><path clip-path="url(#clip450)" d="M295.932 1517.37 Q292.321 1517.37 290.493 1520.93 Q288.687 1524.47 288.687 1531.6 Q288.687 1538.71 290.493 1542.27 Q292.321 1545.82 295.932 1545.82 Q299.567 1545.82 301.372 1542.27 Q303.201 1538.71 303.201 1531.6 Q303.201 1524.47 301.372 1520.93 Q299.567 1517.37 295.932 1517.37 M295.932 1513.66 Q301.743 1513.66 304.798 1518.27 Q307.877 1522.85 307.877 1531.6 Q307.877 1540.33 304.798 1544.94 Q301.743 1549.52 295.932 1549.52 Q290.122 1549.52 287.044 1544.94 Q283.988 1540.33 283.988 1531.6 Q283.988 1522.85 287.044 1518.27 Q290.122 1513.66 295.932 1513.66 Z" fill="#000000" fill-rule="evenodd" fill-opacity="1" /><path clip-path="url(#clip450)" d="M710.739 1532.02 L740.415 1532.02 L740.415 1535.95 L710.739 1535.95 L710.739 1532.02 Z" fill="#000000" fill-rule="evenodd" fill-opacity="1" /><path clip-path="url(#clip450)" d="M760.507 1517.37 Q756.896 1517.37 755.068 1520.93 Q753.262 1524.47 753.262 1531.6 Q753.262 1538.71 755.068 1542.27 Q756.896 1545.82 760.507 1545.82 Q764.142 1545.82 765.947 1542.27 Q767.776 1538.71 767.776 1531.6 Q767.776 1524.47 765.947 1520.93 Q764.142 1517.37 760.507 1517.37 M760.507 1513.66 Q766.318 1513.66 769.373 1518.27 Q772.452 1522.85 772.452 1531.6 Q772.452 1540.33 769.373 1544.94 Q766.318 1549.52 760.507 1549.52 Q754.697 1549.52 751.619 1544.94 Q748.563 1540.33 748.563 1531.6 Q748.563 1522.85 751.619 1518.27 Q754.697 1513.66 760.507 1513.66 Z" fill="#000000" fill-rule="evenodd" fill-opacity="1" /><path clip-path="url(#clip450)" d="M780.669 1542.97 L785.554 1542.97 L785.554 1548.85 L780.669 1548.85 L780.669 1542.97 Z" fill="#000000" fill-rule="evenodd" fill-opacity="1" /><path clip-path="url(#clip450)" d="M795.785 1514.29 L814.141 1514.29 L814.141 1518.22 L800.067 1518.22 L800.067 1526.7 Q801.086 1526.35 802.104 1526.19 Q803.123 1526 804.141 1526 Q809.928 1526 813.308 1529.17 Q816.688 1532.34 816.688 1537.76 Q816.688 1543.34 813.215 1546.44 Q809.743 1549.52 803.424 1549.52 Q801.248 1549.52 798.979 1549.15 Q796.734 1548.78 794.327 1548.04 L794.327 1543.34 Q796.41 1544.47 798.632 1545.03 Q800.854 1545.58 803.331 1545.58 Q807.336 1545.58 809.674 1543.48 Q812.012 1541.37 812.012 1537.76 Q812.012 1534.15 809.674 1532.04 Q807.336 1529.94 803.331 1529.94 Q801.456 1529.94 799.581 1530.35 Q797.729 1530.77 795.785 1531.65 L795.785 1514.29 Z" fill="#000000" fill-rule="evenodd" fill-opacity="1" /><path clip-path="url(#clip450)" d="M1250.41 1517.37 Q1246.8 1517.37 1244.97 1520.93 Q1243.16 1524.47 1243.16 1531.6 Q1243.16 1538.71 1244.97 1542.27 Q1246.8 1545.82 1250.41 1545.82 Q1254.04 1545.82 1255.85 1542.27 Q1257.67 1538.71 1257.67 1531.6 Q1257.67 1524.47 1255.85 1520.93 Q1254.04 1517.37 1250.41 1517.37 M1250.41 1513.66 Q1256.22 1513.66 1259.27 1518.27 Q1262.35 1522.85 1262.35 1531.6 Q1262.35 1540.33 1259.27 1544.94 Q1256.22 1549.52 1250.41 1549.52 Q1244.6 1549.52 1241.52 1544.94 Q1238.46 1540.33 1238.46 1531.6 Q1238.46 1522.85 1241.52 1518.27 Q1244.6 1513.66 1250.41 1513.66 Z" fill="#000000" fill-rule="evenodd" fill-opacity="1" /><path clip-path="url(#clip450)" d="M1270.57 1542.97 L1275.45 1542.97 L1275.45 1548.85 L1270.57 1548.85 L1270.57 1542.97 Z" fill="#000000" fill-rule="evenodd" fill-opacity="1" /><path clip-path="url(#clip450)" d="M1295.64 1517.37 Q1292.03 1517.37 1290.2 1520.93 Q1288.39 1524.47 1288.39 1531.6 Q1288.39 1538.71 1290.2 1542.27 Q1292.03 1545.82 1295.64 1545.82 Q1299.27 1545.82 1301.08 1542.27 Q1302.91 1538.71 1302.91 1531.6 Q1302.91 1524.47 1301.08 1520.93 Q1299.27 1517.37 1295.64 1517.37 M1295.64 1513.66 Q1301.45 1513.66 1304.5 1518.27 Q1307.58 1522.85 1307.58 1531.6 Q1307.58 1540.33 1304.5 1544.94 Q1301.45 1549.52 1295.64 1549.52 Q1289.83 1549.52 1286.75 1544.94 Q1283.69 1540.33 1283.69 1531.6 Q1283.69 1522.85 1286.75 1518.27 Q1289.83 1513.66 1295.64 1513.66 Z" fill="#000000" fill-rule="evenodd" fill-opacity="1" /><path clip-path="url(#clip450)" d="M1760.21 1517.37 Q1756.6 1517.37 1754.77 1520.93 Q1752.97 1524.47 1752.97 1531.6 Q1752.97 1538.71 1754.77 1542.27 Q1756.6 1545.82 1760.21 1545.82 Q1763.85 1545.82 1765.65 1542.27 Q1767.48 1538.71 1767.48 1531.6 Q1767.48 1524.47 1765.65 1520.93 Q1763.85 1517.37 1760.21 1517.37 M1760.21 1513.66 Q1766.02 1513.66 1769.08 1518.27 Q1772.16 1522.85 1772.16 1531.6 Q1772.16 1540.33 1769.08 1544.94 Q1766.02 1549.52 1760.21 1549.52 Q1754.4 1549.52 1751.32 1544.94 Q1748.27 1540.33 1748.27 1531.6 Q1748.27 1522.85 1751.32 1518.27 Q1754.4 1513.66 1760.21 1513.66 Z" fill="#000000" fill-rule="evenodd" fill-opacity="1" /><path clip-path="url(#clip450)" d="M1780.37 1542.97 L1785.26 1542.97 L1785.26 1548.85 L1780.37 1548.85 L1780.37 1542.97 Z" fill="#000000" fill-rule="evenodd" fill-opacity="1" /><path clip-path="url(#clip450)" d="M1795.49 1514.29 L1813.85 1514.29 L1813.85 1518.22 L1799.77 1518.22 L1799.77 1526.7 Q1800.79 1526.35 1801.81 1526.19 Q1802.83 1526 1803.85 1526 Q1809.63 1526 1813.01 1529.17 Q1816.39 1532.34 1816.39 1537.76 Q1816.39 1543.34 1812.92 1546.44 Q1809.45 1549.52 1803.13 1549.52 Q1800.95 1549.52 1798.68 1549.15 Q1796.44 1548.78 1794.03 1548.04 L1794.03 1543.34 Q1796.12 1544.47 1798.34 1545.03 Q1800.56 1545.58 1803.04 1545.58 Q1807.04 1545.58 1809.38 1543.48 Q1811.72 1541.37 1811.72 1537.76 Q1811.72 1534.15 1809.38 1532.04 Q1807.04 1529.94 1803.04 1529.94 Q1801.16 1529.94 1799.29 1530.35 Q1797.43 1530.77 1795.49 1531.65 L1795.49 1514.29 Z" fill="#000000" fill-rule="evenodd" fill-opacity="1" /><path clip-path="url(#clip450)" d="M2258.79 1544.91 L2266.43 1544.91 L2266.43 1518.55 L2258.12 1520.21 L2258.12 1515.95 L2266.38 1514.29 L2271.06 1514.29 L2271.06 1544.91 L2278.7 1544.91 L2278.7 1548.85 L2258.79 1548.85 L2258.79 1544.91 Z" fill="#000000" fill-rule="evenodd" fill-opacity="1" /><path clip-path="url(#clip450)" d="M2288.14 1542.97 L2293.03 1542.97 L2293.03 1548.85 L2288.14 1548.85 L2288.14 1542.97 Z" fill="#000000" fill-rule="evenodd" fill-opacity="1" /><path clip-path="url(#clip450)" d="M2313.21 1517.37 Q2309.6 1517.37 2307.77 1520.93 Q2305.97 1524.47 2305.97 1531.6 Q2305.97 1538.71 2307.77 1542.27 Q2309.6 1545.82 2313.21 1545.82 Q2316.85 1545.82 2318.65 1542.27 Q2320.48 1538.71 2320.48 1531.6 Q2320.48 1524.47 2318.65 1520.93 Q2316.85 1517.37 2313.21 1517.37 M2313.21 1513.66 Q2319.02 1513.66 2322.08 1518.27 Q2325.16 1522.85 2325.16 1531.6 Q2325.16 1540.33 2322.08 1544.94 Q2319.02 1549.52 2313.21 1549.52 Q2307.4 1549.52 2304.32 1544.94 Q2301.27 1540.33 2301.27 1531.6 Q2301.27 1522.85 2304.32 1518.27 Q2307.4 1513.66 2313.21 1513.66 Z" fill="#000000" fill-rule="evenodd" fill-opacity="1" /><polyline clip-path="url(#clip452)" style="stroke:#000000; stroke-linecap:round; stroke-linejoin:round; stroke-width:2; stroke-opacity:0.1; fill:none" points="
  193.288,1353.32 2352.76,1353.32 
  "/>
<polyline clip-path="url(#clip452)" style="stroke:#000000; stroke-linecap:round; stroke-linejoin:round; stroke-width:2; stroke-opacity:0.1; fill:none" points="
  193.288,1157.83 2352.76,1157.83 
  "/>
<polyline clip-path="url(#clip452)" style="stroke:#000000; stroke-linecap:round; stroke-linejoin:round; stroke-width:2; stroke-opacity:0.1; fill:none" points="
  193.288,962.336 2352.76,962.336 
  "/>
<polyline clip-path="url(#clip452)" style="stroke:#000000; stroke-linecap:round; stroke-linejoin:round; stroke-width:2; stroke-opacity:0.1; fill:none" points="
  193.288,766.846 2352.76,766.846 
  "/>
<polyline clip-path="url(#clip452)" style="stroke:#000000; stroke-linecap:round; stroke-linejoin:round; stroke-width:2; stroke-opacity:0.1; fill:none" points="
  193.288,571.356 2352.76,571.356 
  "/>
<polyline clip-path="url(#clip452)" style="stroke:#000000; stroke-linecap:round; stroke-linejoin:round; stroke-width:2; stroke-opacity:0.1; fill:none" points="
  193.288,375.865 2352.76,375.865 
  "/>
<polyline clip-path="url(#clip452)" style="stroke:#000000; stroke-linecap:round; stroke-linejoin:round; stroke-width:2; stroke-opacity:0.1; fill:none" points="
  193.288,180.375 2352.76,180.375 
  "/>
<polyline clip-path="url(#clip450)" style="stroke:#000000; stroke-linecap:round; stroke-linejoin:round; stroke-width:4; stroke-opacity:1; fill:none" points="
  193.288,1486.45 193.288,47.2441 
  "/>
<polyline clip-path="url(#clip450)" style="stroke:#000000; stroke-linecap:round; stroke-linejoin:round; stroke-width:4; stroke-opacity:1; fill:none" points="
  193.288,1353.32 212.185,1353.32 
  "/>
<polyline clip-path="url(#clip450)" style="stroke:#000000; stroke-linecap:round; stroke-linejoin:round; stroke-width:4; stroke-opacity:1; fill:none" points="
  193.288,1157.83 212.185,1157.83 
  "/>
<polyline clip-path="url(#clip450)" style="stroke:#000000; stroke-linecap:round; stroke-linejoin:round; stroke-width:4; stroke-opacity:1; fill:none" points="
  193.288,962.336 212.185,962.336 
  "/>
<polyline clip-path="url(#clip450)" style="stroke:#000000; stroke-linecap:round; stroke-linejoin:round; stroke-width:4; stroke-opacity:1; fill:none" points="
  193.288,766.846 212.185,766.846 
  "/>
<polyline clip-path="url(#clip450)" style="stroke:#000000; stroke-linecap:round; stroke-linejoin:round; stroke-width:4; stroke-opacity:1; fill:none" points="
  193.288,571.356 212.185,571.356 
  "/>
<polyline clip-path="url(#clip450)" style="stroke:#000000; stroke-linecap:round; stroke-linejoin:round; stroke-width:4; stroke-opacity:1; fill:none" points="
  193.288,375.865 212.185,375.865 
  "/>
<polyline clip-path="url(#clip450)" style="stroke:#000000; stroke-linecap:round; stroke-linejoin:round; stroke-width:4; stroke-opacity:1; fill:none" points="
  193.288,180.375 212.185,180.375 
  "/>
<path clip-path="url(#clip450)" d="M50.9921 1353.77 L80.6679 1353.77 L80.6679 1357.7 L50.9921 1357.7 L50.9921 1353.77 Z" fill="#000000" fill-rule="evenodd" fill-opacity="1" /><path clip-path="url(#clip450)" d="M100.76 1339.12 Q97.1493 1339.12 95.3206 1342.68 Q93.515 1346.22 93.515 1353.35 Q93.515 1360.46 95.3206 1364.02 Q97.1493 1367.56 100.76 1367.56 Q104.395 1367.56 106.2 1364.02 Q108.029 1360.46 108.029 1353.35 Q108.029 1346.22 106.2 1342.68 Q104.395 1339.12 100.76 1339.12 M100.76 1335.41 Q106.571 1335.41 109.626 1340.02 Q112.705 1344.6 112.705 1353.35 Q112.705 1362.08 109.626 1366.68 Q106.571 1371.27 100.76 1371.27 Q94.9502 1371.27 91.8715 1366.68 Q88.816 1362.08 88.816 1353.35 Q88.816 1344.6 91.8715 1340.02 Q94.9502 1335.41 100.76 1335.41 Z" fill="#000000" fill-rule="evenodd" fill-opacity="1" /><path clip-path="url(#clip450)" d="M120.922 1364.72 L125.807 1364.72 L125.807 1370.6 L120.922 1370.6 L120.922 1364.72 Z" fill="#000000" fill-rule="evenodd" fill-opacity="1" /><path clip-path="url(#clip450)" d="M150.158 1351.96 Q153.515 1352.68 155.39 1354.95 Q157.288 1357.22 157.288 1360.55 Q157.288 1365.67 153.769 1368.47 Q150.251 1371.27 143.769 1371.27 Q141.593 1371.27 139.279 1370.83 Q136.987 1370.41 134.533 1369.56 L134.533 1365.04 Q136.478 1366.18 138.793 1366.75 Q141.107 1367.33 143.631 1367.33 Q148.029 1367.33 150.32 1365.6 Q152.635 1363.86 152.635 1360.55 Q152.635 1357.5 150.482 1355.78 Q148.353 1354.05 144.533 1354.05 L140.506 1354.05 L140.506 1350.2 L144.718 1350.2 Q148.168 1350.2 149.996 1348.84 Q151.825 1347.45 151.825 1344.86 Q151.825 1342.19 149.927 1340.78 Q148.052 1339.35 144.533 1339.35 Q142.612 1339.35 140.413 1339.76 Q138.214 1340.18 135.575 1341.06 L135.575 1336.89 Q138.237 1336.15 140.552 1335.78 Q142.89 1335.41 144.95 1335.41 Q150.274 1335.41 153.376 1337.84 Q156.478 1340.25 156.478 1344.37 Q156.478 1347.24 154.834 1349.23 Q153.191 1351.2 150.158 1351.96 Z" fill="#000000" fill-rule="evenodd" fill-opacity="1" /><path clip-path="url(#clip450)" d="M51.9412 1158.28 L81.617 1158.28 L81.617 1162.21 L51.9412 1162.21 L51.9412 1158.28 Z" fill="#000000" fill-rule="evenodd" fill-opacity="1" /><path clip-path="url(#clip450)" d="M101.709 1143.63 Q98.0984 1143.63 96.2697 1147.19 Q94.4641 1150.73 94.4641 1157.86 Q94.4641 1164.97 96.2697 1168.53 Q98.0984 1172.07 101.709 1172.07 Q105.344 1172.07 107.149 1168.53 Q108.978 1164.97 108.978 1157.86 Q108.978 1150.73 107.149 1147.19 Q105.344 1143.63 101.709 1143.63 M101.709 1139.92 Q107.52 1139.92 110.575 1144.53 Q113.654 1149.11 113.654 1157.86 Q113.654 1166.59 110.575 1171.19 Q107.52 1175.78 101.709 1175.78 Q95.8993 1175.78 92.8206 1171.19 Q89.7651 1166.59 89.7651 1157.86 Q89.7651 1149.11 92.8206 1144.53 Q95.8993 1139.92 101.709 1139.92 Z" fill="#000000" fill-rule="evenodd" fill-opacity="1" /><path clip-path="url(#clip450)" d="M121.871 1169.23 L126.756 1169.23 L126.756 1175.11 L121.871 1175.11 L121.871 1169.23 Z" fill="#000000" fill-rule="evenodd" fill-opacity="1" /><path clip-path="url(#clip450)" d="M140.968 1171.17 L157.288 1171.17 L157.288 1175.11 L135.344 1175.11 L135.344 1171.17 Q138.006 1168.42 142.589 1163.79 Q147.195 1159.13 148.376 1157.79 Q150.621 1155.27 151.501 1153.53 Q152.404 1151.77 152.404 1150.08 Q152.404 1147.33 150.459 1145.59 Q148.538 1143.86 145.436 1143.86 Q143.237 1143.86 140.783 1144.62 Q138.353 1145.38 135.575 1146.94 L135.575 1142.21 Q138.399 1141.08 140.853 1140.5 Q143.306 1139.92 145.343 1139.92 Q150.714 1139.92 153.908 1142.61 Q157.103 1145.29 157.103 1149.78 Q157.103 1151.91 156.292 1153.83 Q155.505 1155.73 153.399 1158.32 Q152.82 1159 149.718 1162.21 Q146.617 1165.41 140.968 1171.17 Z" fill="#000000" fill-rule="evenodd" fill-opacity="1" /><path clip-path="url(#clip450)" d="M51.5708 962.788 L81.2466 962.788 L81.2466 966.723 L51.5708 966.723 L51.5708 962.788 Z" fill="#000000" fill-rule="evenodd" fill-opacity="1" /><path clip-path="url(#clip450)" d="M101.339 948.135 Q97.728 948.135 95.8993 951.7 Q94.0937 955.241 94.0937 962.371 Q94.0937 969.477 95.8993 973.042 Q97.728 976.584 101.339 976.584 Q104.973 976.584 106.779 973.042 Q108.608 969.477 108.608 962.371 Q108.608 955.241 106.779 951.7 Q104.973 948.135 101.339 948.135 M101.339 944.431 Q107.149 944.431 110.205 949.038 Q113.283 953.621 113.283 962.371 Q113.283 971.098 110.205 975.704 Q107.149 980.288 101.339 980.288 Q95.5289 980.288 92.4502 975.704 Q89.3947 971.098 89.3947 962.371 Q89.3947 953.621 92.4502 949.038 Q95.5289 944.431 101.339 944.431 Z" fill="#000000" fill-rule="evenodd" fill-opacity="1" /><path clip-path="url(#clip450)" d="M121.501 973.737 L126.385 973.737 L126.385 979.616 L121.501 979.616 L121.501 973.737 Z" fill="#000000" fill-rule="evenodd" fill-opacity="1" /><path clip-path="url(#clip450)" d="M137.381 975.681 L145.019 975.681 L145.019 949.316 L136.709 950.982 L136.709 946.723 L144.973 945.056 L149.649 945.056 L149.649 975.681 L157.288 975.681 L157.288 979.616 L137.381 979.616 L137.381 975.681 Z" fill="#000000" fill-rule="evenodd" fill-opacity="1" /><path clip-path="url(#clip450)" d="M100.112 752.645 Q96.5011 752.645 94.6724 756.209 Q92.8669 759.751 92.8669 766.881 Q92.8669 773.987 94.6724 777.552 Q96.5011 781.094 100.112 781.094 Q103.746 781.094 105.552 777.552 Q107.381 773.987 107.381 766.881 Q107.381 759.751 105.552 756.209 Q103.746 752.645 100.112 752.645 M100.112 748.941 Q105.922 748.941 108.978 753.547 Q112.057 758.131 112.057 766.881 Q112.057 775.608 108.978 780.214 Q105.922 784.797 100.112 784.797 Q94.3021 784.797 91.2234 780.214 Q88.1679 775.608 88.1679 766.881 Q88.1679 758.131 91.2234 753.547 Q94.3021 748.941 100.112 748.941 Z" fill="#000000" fill-rule="evenodd" fill-opacity="1" /><path clip-path="url(#clip450)" d="M120.274 778.246 L125.158 778.246 L125.158 784.126 L120.274 784.126 L120.274 778.246 Z" fill="#000000" fill-rule="evenodd" fill-opacity="1" /><path clip-path="url(#clip450)" d="M145.343 752.645 Q141.732 752.645 139.904 756.209 Q138.098 759.751 138.098 766.881 Q138.098 773.987 139.904 777.552 Q141.732 781.094 145.343 781.094 Q148.978 781.094 150.783 777.552 Q152.612 773.987 152.612 766.881 Q152.612 759.751 150.783 756.209 Q148.978 752.645 145.343 752.645 M145.343 748.941 Q151.154 748.941 154.209 753.547 Q157.288 758.131 157.288 766.881 Q157.288 775.608 154.209 780.214 Q151.154 784.797 145.343 784.797 Q139.533 784.797 136.455 780.214 Q133.399 775.608 133.399 766.881 Q133.399 758.131 136.455 753.547 Q139.533 748.941 145.343 748.941 Z" fill="#000000" fill-rule="evenodd" fill-opacity="1" /><path clip-path="url(#clip450)" d="M101.339 557.154 Q97.728 557.154 95.8993 560.719 Q94.0937 564.261 94.0937 571.39 Q94.0937 578.497 95.8993 582.062 Q97.728 585.603 101.339 585.603 Q104.973 585.603 106.779 582.062 Q108.608 578.497 108.608 571.39 Q108.608 564.261 106.779 560.719 Q104.973 557.154 101.339 557.154 M101.339 553.451 Q107.149 553.451 110.205 558.057 Q113.283 562.64 113.283 571.39 Q113.283 580.117 110.205 584.724 Q107.149 589.307 101.339 589.307 Q95.5289 589.307 92.4502 584.724 Q89.3947 580.117 89.3947 571.39 Q89.3947 562.64 92.4502 558.057 Q95.5289 553.451 101.339 553.451 Z" fill="#000000" fill-rule="evenodd" fill-opacity="1" /><path clip-path="url(#clip450)" d="M121.501 582.756 L126.385 582.756 L126.385 588.636 L121.501 588.636 L121.501 582.756 Z" fill="#000000" fill-rule="evenodd" fill-opacity="1" /><path clip-path="url(#clip450)" d="M137.381 584.701 L145.019 584.701 L145.019 558.335 L136.709 560.002 L136.709 555.742 L144.973 554.076 L149.649 554.076 L149.649 584.701 L157.288 584.701 L157.288 588.636 L137.381 588.636 L137.381 584.701 Z" fill="#000000" fill-rule="evenodd" fill-opacity="1" /><path clip-path="url(#clip450)" d="M101.709 361.664 Q98.0984 361.664 96.2697 365.229 Q94.4641 368.77 94.4641 375.9 Q94.4641 383.007 96.2697 386.571 Q98.0984 390.113 101.709 390.113 Q105.344 390.113 107.149 386.571 Q108.978 383.007 108.978 375.9 Q108.978 368.77 107.149 365.229 Q105.344 361.664 101.709 361.664 M101.709 357.96 Q107.52 357.96 110.575 362.567 Q113.654 367.15 113.654 375.9 Q113.654 384.627 110.575 389.233 Q107.52 393.817 101.709 393.817 Q95.8993 393.817 92.8206 389.233 Q89.7651 384.627 89.7651 375.9 Q89.7651 367.15 92.8206 362.567 Q95.8993 357.96 101.709 357.96 Z" fill="#000000" fill-rule="evenodd" fill-opacity="1" /><path clip-path="url(#clip450)" d="M121.871 387.266 L126.756 387.266 L126.756 393.145 L121.871 393.145 L121.871 387.266 Z" fill="#000000" fill-rule="evenodd" fill-opacity="1" /><path clip-path="url(#clip450)" d="M140.968 389.21 L157.288 389.21 L157.288 393.145 L135.344 393.145 L135.344 389.21 Q138.006 386.456 142.589 381.826 Q147.195 377.173 148.376 375.831 Q150.621 373.307 151.501 371.571 Q152.404 369.812 152.404 368.122 Q152.404 365.368 150.459 363.632 Q148.538 361.896 145.436 361.896 Q143.237 361.896 140.783 362.659 Q138.353 363.423 135.575 364.974 L135.575 360.252 Q138.399 359.118 140.853 358.539 Q143.306 357.96 145.343 357.96 Q150.714 357.96 153.908 360.646 Q157.103 363.331 157.103 367.821 Q157.103 369.951 156.292 371.872 Q155.505 373.77 153.399 376.363 Q152.82 377.034 149.718 380.252 Q146.617 383.446 140.968 389.21 Z" fill="#000000" fill-rule="evenodd" fill-opacity="1" /><path clip-path="url(#clip450)" d="M100.76 166.174 Q97.1493 166.174 95.3206 169.739 Q93.515 173.28 93.515 180.41 Q93.515 187.516 95.3206 191.081 Q97.1493 194.623 100.76 194.623 Q104.395 194.623 106.2 191.081 Q108.029 187.516 108.029 180.41 Q108.029 173.28 106.2 169.739 Q104.395 166.174 100.76 166.174 M100.76 162.47 Q106.571 162.47 109.626 167.076 Q112.705 171.66 112.705 180.41 Q112.705 189.137 109.626 193.743 Q106.571 198.326 100.76 198.326 Q94.9502 198.326 91.8715 193.743 Q88.816 189.137 88.816 180.41 Q88.816 171.66 91.8715 167.076 Q94.9502 162.47 100.76 162.47 Z" fill="#000000" fill-rule="evenodd" fill-opacity="1" /><path clip-path="url(#clip450)" d="M120.922 191.775 L125.807 191.775 L125.807 197.655 L120.922 197.655 L120.922 191.775 Z" fill="#000000" fill-rule="evenodd" fill-opacity="1" /><path clip-path="url(#clip450)" d="M150.158 179.021 Q153.515 179.738 155.39 182.007 Q157.288 184.275 157.288 187.609 Q157.288 192.725 153.769 195.525 Q150.251 198.326 143.769 198.326 Q141.593 198.326 139.279 197.887 Q136.987 197.47 134.533 196.613 L134.533 192.1 Q136.478 193.234 138.793 193.812 Q141.107 194.391 143.631 194.391 Q148.029 194.391 150.32 192.655 Q152.635 190.919 152.635 187.609 Q152.635 184.553 150.482 182.84 Q148.353 181.104 144.533 181.104 L140.506 181.104 L140.506 177.262 L144.718 177.262 Q148.168 177.262 149.996 175.896 Q151.825 174.507 151.825 171.914 Q151.825 169.252 149.927 167.84 Q148.052 166.405 144.533 166.405 Q142.612 166.405 140.413 166.822 Q138.214 167.239 135.575 168.118 L135.575 163.952 Q138.237 163.211 140.552 162.84 Q142.89 162.47 144.95 162.47 Q150.274 162.47 153.376 164.901 Q156.478 167.308 156.478 171.428 Q156.478 174.299 154.834 176.289 Q153.191 178.257 150.158 179.021 Z" fill="#000000" fill-rule="evenodd" fill-opacity="1" /><polyline clip-path="url(#clip452)" style="stroke:#009af9; stroke-linecap:round; stroke-linejoin:round; stroke-width:16; stroke-opacity:1; fill:none" points="
  254.405,490.381 295.981,490.381 337.557,490.381 379.133,490.381 420.71,490.381 462.286,490.381 503.862,490.381 545.438,490.381 587.015,490.381 628.591,490.381 
  670.167,490.381 711.743,490.381 753.319,490.381 794.896,490.381 836.472,490.381 878.048,490.381 919.624,490.381 961.2,490.381 1002.78,490.381 1044.35,490.381 
  1085.93,490.381 1127.51,490.381 1169.08,490.381 1210.66,490.381 1252.23,490.381 1293.81,490.381 1335.39,490.381 1376.96,490.381 1418.54,490.381 1460.11,490.381 
  1501.69,490.381 1543.27,490.381 1584.84,490.381 1626.42,490.381 1668,490.381 1709.57,490.381 1751.15,490.381 1792.72,490.381 1834.3,490.381 1875.88,490.381 
  1917.45,490.381 1959.03,490.381 2000.61,490.381 2042.18,490.381 2083.76,490.381 2125.33,490.381 2166.91,490.381 2208.49,490.381 2250.06,490.381 2291.64,490.381 
  
  "/>
<polyline clip-path="url(#clip452)" style="stroke:#e26f46; stroke-linecap:round; stroke-linejoin:round; stroke-width:16; stroke-opacity:1; fill:none" points="
  254.405,1236.21 295.981,1217.06 337.557,1197.9 379.133,1178.74 420.71,1159.58 462.286,1140.42 503.862,1121.27 545.438,1102.11 587.015,1082.95 628.591,1063.79 
  670.167,1044.64 711.743,1025.48 753.319,1006.32 794.896,987.162 836.472,968.004 878.048,948.846 919.624,929.688 961.2,910.53 1002.78,891.372 1044.35,872.214 
  1085.93,853.057 1127.51,833.899 1169.08,814.741 1210.66,795.583 1252.23,776.425 1293.81,757.267 1335.39,738.109 1376.96,718.951 1418.54,699.793 1460.11,680.635 
  1501.69,661.478 1543.27,642.32 1584.84,623.162 1626.42,604.004 1668,584.846 1709.57,565.688 1751.15,546.53 1792.72,527.372 1834.3,508.214 1875.88,489.057 
  1917.45,469.899 1959.03,450.741 2000.61,431.583 2042.18,412.425 2083.76,393.267 2125.33,374.109 2166.91,354.951 2208.49,335.793 2250.06,316.636 2291.64,297.478 
  
  "/>
<polyline clip-path="url(#clip452)" style="stroke:#3da44d; stroke-linecap:round; stroke-linejoin:round; stroke-width:16; stroke-opacity:1; fill:none" points="
  254.405,184.666 295.981,255.953 337.557,324.271 379.133,389.617 420.71,451.994 462.286,511.4 503.862,567.836 545.438,621.301 587.015,671.796 628.591,719.321 
  670.167,763.876 711.743,805.46 753.319,844.074 794.896,879.718 836.472,912.391 878.048,942.094 919.624,968.827 961.2,992.589 1002.78,1013.38 1044.35,1031.2 
  1085.93,1046.05 1127.51,1057.94 1169.08,1066.85 1210.66,1072.79 1252.23,1075.76 1293.81,1075.76 1335.39,1072.79 1376.96,1066.85 1418.54,1057.94 1460.11,1046.05 
  1501.69,1031.2 1543.27,1013.38 1584.84,992.589 1626.42,968.827 1668,942.094 1709.57,912.391 1751.15,879.718 1792.72,844.074 1834.3,805.46 1875.88,763.876 
  1917.45,719.321 1959.03,671.796 2000.61,621.301 2042.18,567.836 2083.76,511.4 2125.33,451.994 2166.91,389.617 2208.49,324.271 2250.06,255.953 2291.64,184.666 
  
  "/>
<polyline clip-path="url(#clip452)" style="stroke:#c271d2; stroke-linecap:round; stroke-linejoin:round; stroke-width:16; stroke-opacity:1; fill:none" points="
  254.405,1415.53 295.981,1256.67 337.557,1114.35 379.133,987.885 420.71,876.556 462.286,779.662 503.862,696.499 545.438,626.364 587.015,568.551 628.591,522.358 
  670.167,487.079 711.743,462.01 753.319,446.448 794.896,439.688 836.472,441.026 878.048,449.758 919.624,465.179 961.2,486.586 1002.78,513.274 1044.35,544.539 
  1085.93,579.677 1127.51,617.984 1169.08,658.756 1210.66,701.288 1252.23,744.876 1293.81,788.816 1335.39,832.404 1376.96,874.936 1418.54,915.708 1460.11,954.015 
  1501.69,989.153 1543.27,1020.42 1584.84,1047.11 1626.42,1068.51 1668,1083.93 1709.57,1092.67 1751.15,1094 1792.72,1087.24 1834.3,1071.68 1875.88,1046.61 
  1917.45,1011.33 1959.03,965.141 2000.61,907.328 2042.18,837.193 2083.76,754.03 2125.33,657.136 2166.91,545.807 2208.49,419.338 2250.06,277.025 2291.64,118.164 
  
  "/>
<polyline clip-path="url(#clip452)" style="stroke:#ac8d18; stroke-linecap:round; stroke-linejoin:round; stroke-width:16; stroke-opacity:1; fill:none" points="
  254.405,87.9763 295.981,365.066 337.557,590.201 379.133,768.541 420.71,905.019 462.286,1004.35 503.862,1071.01 545.438,1109.26 587.015,1123.15 628.591,1116.49 
  670.167,1092.86 711.743,1055.63 753.319,1007.93 794.896,952.696 836.472,892.603 878.048,830.124 919.624,767.5 961.2,706.75 1002.78,649.669 1044.35,597.827 
  1085.93,552.569 1127.51,515.017 1169.08,486.068 1210.66,466.395 1252.23,456.447 1293.81,456.447 1335.39,466.395 1376.96,486.068 1418.54,515.017 1460.11,552.569 
  1501.69,597.827 1543.27,649.669 1584.84,706.75 1626.42,767.5 1668,830.124 1709.57,892.603 1751.15,952.696 1792.72,1007.93 1834.3,1055.63 1875.88,1092.86 
  1917.45,1116.49 1959.03,1123.15 2000.61,1109.26 2042.18,1071.01 2083.76,1004.35 2125.33,905.019 2166.91,768.541 2208.49,590.201 2250.06,365.066 2291.64,87.9763 
  
  "/>
<polyline clip-path="url(#clip452)" style="stroke:#00a9ad; stroke-linecap:round; stroke-linejoin:round; stroke-width:16; stroke-opacity:1; fill:none" points="
  254.405,1445.72 295.981,1030.08 337.557,735.673 379.133,541.858 420.71,430.019 462.286,383.47 503.862,387.363 545.438,428.6 587.015,495.742 628.591,578.92 
  670.167,669.746 711.743,761.223 753.319,847.653 794.896,924.551 836.472,988.553 878.048,1037.33 919.624,1069.48 961.2,1084.47 1002.78,1082.54 1044.35,1064.56 
  1085.93,1032.03 1127.51,986.916 1169.08,931.597 1210.66,868.765 1252.23,801.335 1293.81,732.357 1335.39,664.927 1376.96,602.095 1418.54,546.776 1460.11,501.663 
  1501.69,469.132 1543.27,451.157 1584.84,449.218 1626.42,464.213 1668,496.366 1709.57,545.139 1751.15,609.141 1792.72,686.039 1834.3,772.469 1875.88,863.946 
  1917.45,954.772 1959.03,1037.95 2000.61,1105.09 2042.18,1146.33 2083.76,1150.22 2125.33,1103.67 2166.91,991.834 2208.49,798.019 2250.06,503.611 2291.64,87.9763 
  
  "/>
<path clip-path="url(#clip450)" d="
M1959.62 639.538 L2280.77 639.538 L2280.77 95.2176 L1959.62 95.2176  Z
  " fill="#ffffff" fill-rule="evenodd" fill-opacity="1"/>
<polyline clip-path="url(#clip450)" style="stroke:#000000; stroke-linecap:round; stroke-linejoin:round; stroke-width:4; stroke-opacity:1; fill:none" points="
  1959.62,639.538 2280.77,639.538 2280.77,95.2176 1959.62,95.2176 1959.62,639.538 
  "/>
<polyline clip-path="url(#clip450)" style="stroke:#009af9; stroke-linecap:round; stroke-linejoin:round; stroke-width:6; stroke-opacity:1; fill:none" points="
  1983.61,172.978 2127.58,172.978 
  "/>
<path clip-path="url(#clip450)" d="M2172.33 202.509 Q2169.63 209.453 2167.06 211.571 Q2164.49 213.689 2160.18 213.689 L2155.08 213.689 L2155.08 208.342 L2158.83 208.342 Q2161.47 208.342 2162.92 207.092 Q2164.38 205.842 2166.15 201.189 L2167.3 198.273 L2151.57 160.009 L2158.34 160.009 L2170.49 190.425 L2182.65 160.009 L2189.42 160.009 L2172.33 202.509 Z" fill="#000000" fill-rule="evenodd" fill-opacity="1" /><path clip-path="url(#clip450)" d="M2200.36 192.995 L2211.81 192.995 L2211.81 153.446 L2199.35 155.946 L2199.35 149.558 L2211.74 147.058 L2218.76 147.058 L2218.76 192.995 L2230.22 192.995 L2230.22 198.898 L2200.36 198.898 L2200.36 192.995 Z" fill="#000000" fill-rule="evenodd" fill-opacity="1" /><polyline clip-path="url(#clip450)" style="stroke:#e26f46; stroke-linecap:round; stroke-linejoin:round; stroke-width:6; stroke-opacity:1; fill:none" points="
  1983.61,250.738 2127.58,250.738 
  "/>
<path clip-path="url(#clip450)" d="M2172.33 280.269 Q2169.63 287.213 2167.06 289.331 Q2164.49 291.449 2160.18 291.449 L2155.08 291.449 L2155.08 286.102 L2158.83 286.102 Q2161.47 286.102 2162.92 284.852 Q2164.38 283.602 2166.15 278.949 L2167.3 276.033 L2151.57 237.769 L2158.34 237.769 L2170.49 268.185 L2182.65 237.769 L2189.42 237.769 L2172.33 280.269 Z" fill="#000000" fill-rule="evenodd" fill-opacity="1" /><path clip-path="url(#clip450)" d="M2205.18 270.755 L2229.66 270.755 L2229.66 276.658 L2196.74 276.658 L2196.74 270.755 Q2200.74 266.623 2207.61 259.678 Q2214.52 252.699 2216.29 250.685 Q2219.66 246.901 2220.98 244.297 Q2222.33 241.658 2222.33 239.123 Q2222.33 234.991 2219.42 232.387 Q2216.54 229.783 2211.88 229.783 Q2208.58 229.783 2204.9 230.929 Q2201.26 232.074 2197.09 234.401 L2197.09 227.318 Q2201.33 225.616 2205.01 224.748 Q2208.69 223.88 2211.74 223.88 Q2219.8 223.88 2224.59 227.908 Q2229.38 231.936 2229.38 238.672 Q2229.38 241.866 2228.17 244.748 Q2226.99 247.595 2223.83 251.484 Q2222.96 252.491 2218.31 257.317 Q2213.65 262.109 2205.18 270.755 Z" fill="#000000" fill-rule="evenodd" fill-opacity="1" /><polyline clip-path="url(#clip450)" style="stroke:#3da44d; stroke-linecap:round; stroke-linejoin:round; stroke-width:6; stroke-opacity:1; fill:none" points="
  1983.61,328.498 2127.58,328.498 
  "/>
<path clip-path="url(#clip450)" d="M2172.33 358.029 Q2169.63 364.973 2167.06 367.091 Q2164.49 369.209 2160.18 369.209 L2155.08 369.209 L2155.08 363.862 L2158.83 363.862 Q2161.47 363.862 2162.92 362.612 Q2164.38 361.362 2166.15 356.709 L2167.3 353.793 L2151.57 315.529 L2158.34 315.529 L2170.49 345.945 L2182.65 315.529 L2189.42 315.529 L2172.33 358.029 Z" fill="#000000" fill-rule="evenodd" fill-opacity="1" /><path clip-path="url(#clip450)" d="M2220.39 326.466 Q2225.42 327.543 2228.24 330.945 Q2231.08 334.348 2231.08 339.348 Q2231.08 347.022 2225.81 351.223 Q2220.53 355.424 2210.81 355.424 Q2207.54 355.424 2204.07 354.765 Q2200.63 354.14 2196.95 352.855 L2196.95 346.084 Q2199.87 347.786 2203.34 348.654 Q2206.81 349.522 2210.6 349.522 Q2217.2 349.522 2220.63 346.918 Q2224.1 344.313 2224.1 339.348 Q2224.1 334.765 2220.88 332.195 Q2217.68 329.591 2211.95 329.591 L2205.91 329.591 L2205.91 323.827 L2212.23 323.827 Q2217.4 323.827 2220.15 321.779 Q2222.89 319.696 2222.89 315.807 Q2222.89 311.814 2220.04 309.696 Q2217.23 307.543 2211.95 307.543 Q2209.07 307.543 2205.77 308.168 Q2202.47 308.793 2198.51 310.112 L2198.51 303.862 Q2202.51 302.751 2205.98 302.196 Q2209.49 301.64 2212.58 301.64 Q2220.56 301.64 2225.22 305.286 Q2229.87 308.897 2229.87 315.077 Q2229.87 319.383 2227.4 322.369 Q2224.94 325.32 2220.39 326.466 Z" fill="#000000" fill-rule="evenodd" fill-opacity="1" /><polyline clip-path="url(#clip450)" style="stroke:#c271d2; stroke-linecap:round; stroke-linejoin:round; stroke-width:6; stroke-opacity:1; fill:none" points="
  1983.61,406.258 2127.58,406.258 
  "/>
<path clip-path="url(#clip450)" d="M2172.33 435.789 Q2169.63 442.733 2167.06 444.851 Q2164.49 446.969 2160.18 446.969 L2155.08 446.969 L2155.08 441.622 L2158.83 441.622 Q2161.47 441.622 2162.92 440.372 Q2164.38 439.122 2166.15 434.469 L2167.3 431.553 L2151.57 393.289 L2158.34 393.289 L2170.49 423.705 L2182.65 393.289 L2189.42 393.289 L2172.33 435.789 Z" fill="#000000" fill-rule="evenodd" fill-opacity="1" /><path clip-path="url(#clip450)" d="M2218.41 386.449 L2200.7 414.122 L2218.41 414.122 L2218.41 386.449 M2216.57 380.338 L2225.39 380.338 L2225.39 414.122 L2232.79 414.122 L2232.79 419.955 L2225.39 419.955 L2225.39 432.178 L2218.41 432.178 L2218.41 419.955 L2195.01 419.955 L2195.01 413.185 L2216.57 380.338 Z" fill="#000000" fill-rule="evenodd" fill-opacity="1" /><polyline clip-path="url(#clip450)" style="stroke:#ac8d18; stroke-linecap:round; stroke-linejoin:round; stroke-width:6; stroke-opacity:1; fill:none" points="
  1983.61,484.018 2127.58,484.018 
  "/>
<path clip-path="url(#clip450)" d="M2172.33 513.549 Q2169.63 520.493 2167.06 522.611 Q2164.49 524.729 2160.18 524.729 L2155.08 524.729 L2155.08 519.382 L2158.83 519.382 Q2161.47 519.382 2162.92 518.132 Q2164.38 516.882 2166.15 512.229 L2167.3 509.313 L2151.57 471.049 L2158.34 471.049 L2170.49 501.465 L2182.65 471.049 L2189.42 471.049 L2172.33 513.549 Z" fill="#000000" fill-rule="evenodd" fill-opacity="1" /><path clip-path="url(#clip450)" d="M2199.21 458.098 L2226.74 458.098 L2226.74 464 L2205.63 464 L2205.63 476.709 Q2207.16 476.188 2208.69 475.945 Q2210.22 475.667 2211.74 475.667 Q2220.42 475.667 2225.49 480.424 Q2230.56 485.181 2230.56 493.306 Q2230.56 501.674 2225.35 506.326 Q2220.15 510.944 2210.67 510.944 Q2207.4 510.944 2204 510.389 Q2200.63 509.833 2197.02 508.722 L2197.02 501.674 Q2200.15 503.375 2203.48 504.208 Q2206.81 505.042 2210.53 505.042 Q2216.54 505.042 2220.04 501.882 Q2223.55 498.722 2223.55 493.306 Q2223.55 487.889 2220.04 484.729 Q2216.54 481.57 2210.53 481.57 Q2207.72 481.57 2204.9 482.195 Q2202.13 482.82 2199.21 484.139 L2199.21 458.098 Z" fill="#000000" fill-rule="evenodd" fill-opacity="1" /><polyline clip-path="url(#clip450)" style="stroke:#00a9ad; stroke-linecap:round; stroke-linejoin:round; stroke-width:6; stroke-opacity:1; fill:none" points="
  1983.61,561.778 2127.58,561.778 
  "/>
<path clip-path="url(#clip450)" d="M2172.33 591.309 Q2169.63 598.253 2167.06 600.371 Q2164.49 602.489 2160.18 602.489 L2155.08 602.489 L2155.08 597.142 L2158.83 597.142 Q2161.47 597.142 2162.92 595.892 Q2164.38 594.642 2166.15 589.989 L2167.3 587.073 L2151.57 548.809 L2158.34 548.809 L2170.49 579.225 L2182.65 548.809 L2189.42 548.809 L2172.33 591.309 Z" fill="#000000" fill-rule="evenodd" fill-opacity="1" /><path clip-path="url(#clip450)" d="M2215.01 558.982 Q2210.29 558.982 2207.51 562.212 Q2204.76 565.441 2204.76 571.066 Q2204.76 576.656 2207.51 579.92 Q2210.29 583.149 2215.01 583.149 Q2219.73 583.149 2222.47 579.92 Q2225.25 576.656 2225.25 571.066 Q2225.25 565.441 2222.47 562.212 Q2219.73 558.982 2215.01 558.982 M2228.93 537.003 L2228.93 543.392 Q2226.29 542.142 2223.58 541.483 Q2220.91 540.823 2218.27 540.823 Q2211.33 540.823 2207.65 545.51 Q2204 550.198 2203.48 559.677 Q2205.53 556.656 2208.62 555.059 Q2211.71 553.427 2215.42 553.427 Q2223.24 553.427 2227.75 558.184 Q2232.3 562.906 2232.3 571.066 Q2232.3 579.052 2227.58 583.878 Q2222.85 588.704 2215.01 588.704 Q2206.01 588.704 2201.26 581.83 Q2196.5 574.92 2196.5 561.83 Q2196.5 549.538 2202.33 542.246 Q2208.17 534.92 2217.99 534.92 Q2220.63 534.92 2223.31 535.441 Q2226.01 535.962 2228.93 537.003 Z" fill="#000000" fill-rule="evenodd" fill-opacity="1" /></svg>
