<?xml version="1.0" encoding="utf-8"?>
<svg xmlns="http://www.w3.org/2000/svg" xmlns:xlink="http://www.w3.org/1999/xlink" width="600" height="400" viewBox="0 0 2400 1600">
<defs>
  <clipPath id="clip090">
    <rect x="0" y="0" width="2400" height="1600"/>
  </clipPath>
</defs>
<path clip-path="url(#clip090)" d="
M0 1600 L2400 1600 L2400 0 L0 0  Z
  " fill="#ffffff" fill-rule="evenodd" fill-opacity="1"/>
<defs>
  <clipPath id="clip091">
    <rect x="480" y="0" width="1681" height="1600"/>
  </clipPath>
</defs>
<path clip-path="url(#clip090)" d="
M229.445 1486.45 L2352.76 1486.45 L2352.76 47.2441 L229.445 47.2441  Z
  " fill="#ffffff" fill-rule="evenodd" fill-opacity="1"/>
<defs>
  <clipPath id="clip092">
    <rect x="229" y="47" width="2124" height="1440"/>
  </clipPath>
</defs>
<polyline clip-path="url(#clip092)" style="stroke:#000000; stroke-linecap:round; stroke-linejoin:round; stroke-width:2; stroke-opacity:0.1; fill:none" points="
  229.445,1486.45 229.445,47.2441 
  "/>
<polyline clip-path="url(#clip092)" style="stroke:#000000; stroke-linecap:round; stroke-linejoin:round; stroke-width:2; stroke-opacity:0.1; fill:none" points="
  760.273,1486.45 760.273,47.2441 
  "/>
<polyline clip-path="url(#clip092)" style="stroke:#000000; stroke-linecap:round; stroke-linejoin:round; stroke-width:2; stroke-opacity:0.1; fill:none" points="
  1291.1,1486.45 1291.1,47.2441 
  "/>
<polyline clip-path="url(#clip092)" style="stroke:#000000; stroke-linecap:round; stroke-linejoin:round; stroke-width:2; stroke-opacity:0.1; fill:none" points="
  1821.93,1486.45 1821.93,47.2441 
  "/>
<polyline clip-path="url(#clip092)" style="stroke:#000000; stroke-linecap:round; stroke-linejoin:round; stroke-width:2; stroke-opacity:0.1; fill:none" points="
  2352.76,1486.45 2352.76,47.2441 
  "/>
<polyline clip-path="url(#clip090)" style="stroke:#000000; stroke-linecap:round; stroke-linejoin:round; stroke-width:4; stroke-opacity:1; fill:none" points="
  229.445,1486.45 2352.76,1486.45 
  "/>
<polyline clip-path="url(#clip090)" style="stroke:#000000; stroke-linecap:round; stroke-linejoin:round; stroke-width:4; stroke-opacity:1; fill:none" points="
  229.445,1486.45 229.445,1467.55 
  "/>
<polyline clip-path="url(#clip090)" style="stroke:#000000; stroke-linecap:round; stroke-linejoin:round; stroke-width:4; stroke-opacity:1; fill:none" points="
  760.273,1486.45 760.273,1467.55 
  "/>
<polyline clip-path="url(#clip090)" style="stroke:#000000; stroke-linecap:round; stroke-linejoin:round; stroke-width:4; stroke-opacity:1; fill:none" points="
  1291.1,1486.45 1291.1,1467.55 
  "/>
<polyline clip-path="url(#clip090)" style="stroke:#000000; stroke-linecap:round; stroke-linejoin:round; stroke-width:4; stroke-opacity:1; fill:none" points="
  1821.93,1486.45 1821.93,1467.55 
  "/>
<polyline clip-path="url(#clip090)" style="stroke:#000000; stroke-linecap:round; stroke-linejoin:round; stroke-width:4; stroke-opacity:1; fill:none" points="
  2352.76,1486.45 2352.76,1467.55 
  "/>
<path clip-path="url(#clip090)" d="M206.829 1517.37 Q203.218 1517.37 201.39 1520.93 Q199.584 1524.47 199.584 1531.6 Q199.584 1538.71 201.39 1542.27 Q203.218 1545.82 206.829 1545.82 Q210.464 1545.82 212.269 1542.27 Q214.098 1538.71 214.098 1531.6 Q214.098 1524.47 212.269 1520.93 Q210.464 1517.37 206.829 1517.37 M206.829 1513.66 Q212.64 1513.66 215.695 1518.27 Q218.774 1522.85 218.774 1531.6 Q218.774 1540.33 215.695 1544.94 Q212.64 1549.52 206.829 1549.52 Q201.019 1549.52 197.941 1544.94 Q194.885 1540.33 194.885 1531.6 Q194.885 1522.85 197.941 1518.27 Q201.019 1513.66 206.829 1513.66 Z" fill="#000000" fill-rule="evenodd" fill-opacity="1" /><path clip-path="url(#clip090)" d="M226.991 1542.97 L231.876 1542.97 L231.876 1548.85 L226.991 1548.85 L226.991 1542.97 Z" fill="#000000" fill-rule="evenodd" fill-opacity="1" /><path clip-path="url(#clip090)" d="M252.061 1517.37 Q248.45 1517.37 246.621 1520.93 Q244.815 1524.47 244.815 1531.6 Q244.815 1538.71 246.621 1542.27 Q248.45 1545.82 252.061 1545.82 Q255.695 1545.82 257.5 1542.27 Q259.329 1538.71 259.329 1531.6 Q259.329 1524.47 257.5 1520.93 Q255.695 1517.37 252.061 1517.37 M252.061 1513.66 Q257.871 1513.66 260.926 1518.27 Q264.005 1522.85 264.005 1531.6 Q264.005 1540.33 260.926 1544.94 Q257.871 1549.52 252.061 1549.52 Q246.251 1549.52 243.172 1544.94 Q240.116 1540.33 240.116 1531.6 Q240.116 1522.85 243.172 1518.27 Q246.251 1513.66 252.061 1513.66 Z" fill="#000000" fill-rule="evenodd" fill-opacity="1" /><path clip-path="url(#clip090)" d="M738.155 1517.37 Q734.544 1517.37 732.715 1520.93 Q730.91 1524.47 730.91 1531.6 Q730.91 1538.71 732.715 1542.27 Q734.544 1545.82 738.155 1545.82 Q741.789 1545.82 743.595 1542.27 Q745.423 1538.71 745.423 1531.6 Q745.423 1524.47 743.595 1520.93 Q741.789 1517.37 738.155 1517.37 M738.155 1513.66 Q743.965 1513.66 747.021 1518.27 Q750.099 1522.85 750.099 1531.6 Q750.099 1540.33 747.021 1544.94 Q743.965 1549.52 738.155 1549.52 Q732.345 1549.52 729.266 1544.94 Q726.21 1540.33 726.21 1531.6 Q726.21 1522.85 729.266 1518.27 Q732.345 1513.66 738.155 1513.66 Z" fill="#000000" fill-rule="evenodd" fill-opacity="1" /><path clip-path="url(#clip090)" d="M758.317 1542.97 L763.201 1542.97 L763.201 1548.85 L758.317 1548.85 L758.317 1542.97 Z" fill="#000000" fill-rule="evenodd" fill-opacity="1" /><path clip-path="url(#clip090)" d="M773.432 1514.29 L791.789 1514.29 L791.789 1518.22 L777.715 1518.22 L777.715 1526.7 Q778.733 1526.35 779.752 1526.19 Q780.77 1526 781.789 1526 Q787.576 1526 790.955 1529.17 Q794.335 1532.34 794.335 1537.76 Q794.335 1543.34 790.863 1546.44 Q787.391 1549.52 781.071 1549.52 Q778.895 1549.52 776.627 1549.15 Q774.381 1548.78 771.974 1548.04 L771.974 1543.34 Q774.057 1544.47 776.28 1545.03 Q778.502 1545.58 780.979 1545.58 Q784.983 1545.58 787.321 1543.48 Q789.659 1541.37 789.659 1537.76 Q789.659 1534.15 787.321 1532.04 Q784.983 1529.94 780.979 1529.94 Q779.104 1529.94 777.229 1530.35 Q775.377 1530.77 773.432 1531.65 L773.432 1514.29 Z" fill="#000000" fill-rule="evenodd" fill-opacity="1" /><path clip-path="url(#clip090)" d="M1258.25 1544.91 L1265.89 1544.91 L1265.89 1518.55 L1257.58 1520.21 L1257.58 1515.95 L1265.85 1514.29 L1270.52 1514.29 L1270.52 1544.91 L1278.16 1544.91 L1278.16 1548.85 L1258.25 1548.85 L1258.25 1544.91 Z" fill="#000000" fill-rule="evenodd" fill-opacity="1" /><path clip-path="url(#clip090)" d="M1287.61 1542.97 L1292.49 1542.97 L1292.49 1548.85 L1287.61 1548.85 L1287.61 1542.97 Z" fill="#000000" fill-rule="evenodd" fill-opacity="1" /><path clip-path="url(#clip090)" d="M1312.67 1517.37 Q1309.06 1517.37 1307.23 1520.93 Q1305.43 1524.47 1305.43 1531.6 Q1305.43 1538.71 1307.23 1542.27 Q1309.06 1545.82 1312.67 1545.82 Q1316.31 1545.82 1318.11 1542.27 Q1319.94 1538.71 1319.94 1531.6 Q1319.94 1524.47 1318.11 1520.93 Q1316.31 1517.37 1312.67 1517.37 M1312.67 1513.66 Q1318.48 1513.66 1321.54 1518.27 Q1324.62 1522.85 1324.62 1531.6 Q1324.62 1540.33 1321.54 1544.94 Q1318.48 1549.52 1312.67 1549.52 Q1306.86 1549.52 1303.79 1544.94 Q1300.73 1540.33 1300.73 1531.6 Q1300.73 1522.85 1303.79 1518.27 Q1306.86 1513.66 1312.67 1513.66 Z" fill="#000000" fill-rule="evenodd" fill-opacity="1" /><path clip-path="url(#clip090)" d="M1789.58 1544.91 L1797.22 1544.91 L1797.22 1518.55 L1788.91 1520.21 L1788.91 1515.95 L1797.17 1514.29 L1801.85 1514.29 L1801.85 1544.91 L1809.49 1544.91 L1809.49 1548.85 L1789.58 1548.85 L1789.58 1544.91 Z" fill="#000000" fill-rule="evenodd" fill-opacity="1" /><path clip-path="url(#clip090)" d="M1818.93 1542.97 L1823.81 1542.97 L1823.81 1548.85 L1818.93 1548.85 L1818.93 1542.97 Z" fill="#000000" fill-rule="evenodd" fill-opacity="1" /><path clip-path="url(#clip090)" d="M1834.05 1514.29 L1852.4 1514.29 L1852.4 1518.22 L1838.33 1518.22 L1838.33 1526.7 Q1839.35 1526.35 1840.37 1526.19 Q1841.38 1526 1842.4 1526 Q1848.19 1526 1851.57 1529.17 Q1854.95 1532.34 1854.95 1537.76 Q1854.95 1543.34 1851.48 1546.44 Q1848 1549.52 1841.69 1549.52 Q1839.51 1549.52 1837.24 1549.15 Q1835 1548.78 1832.59 1548.04 L1832.59 1543.34 Q1834.67 1544.47 1836.89 1545.03 Q1839.12 1545.58 1841.59 1545.58 Q1845.6 1545.58 1847.94 1543.48 Q1850.27 1541.37 1850.27 1537.76 Q1850.27 1534.15 1847.94 1532.04 Q1845.6 1529.94 1841.59 1529.94 Q1839.72 1529.94 1837.84 1530.35 Q1835.99 1530.77 1834.05 1531.65 L1834.05 1514.29 Z" fill="#000000" fill-rule="evenodd" fill-opacity="1" /><path clip-path="url(#clip090)" d="M2323.99 1544.91 L2340.31 1544.91 L2340.31 1548.85 L2318.37 1548.85 L2318.37 1544.91 Q2321.03 1542.16 2325.61 1537.53 Q2330.22 1532.88 2331.4 1531.53 Q2333.65 1529.01 2334.53 1527.27 Q2335.43 1525.51 2335.43 1523.82 Q2335.43 1521.07 2333.49 1519.33 Q2331.56 1517.6 2328.46 1517.6 Q2326.26 1517.6 2323.81 1518.36 Q2321.38 1519.13 2318.6 1520.68 L2318.6 1515.95 Q2321.43 1514.82 2323.88 1514.24 Q2326.33 1513.66 2328.37 1513.66 Q2333.74 1513.66 2336.93 1516.35 Q2340.13 1519.03 2340.13 1523.52 Q2340.13 1525.65 2339.32 1527.57 Q2338.53 1529.47 2336.42 1532.07 Q2335.85 1532.74 2332.74 1535.95 Q2329.64 1539.15 2323.99 1544.91 Z" fill="#000000" fill-rule="evenodd" fill-opacity="1" /><path clip-path="url(#clip090)" d="M2350.13 1542.97 L2355.01 1542.97 L2355.01 1548.85 L2350.13 1548.85 L2350.13 1542.97 Z" fill="#000000" fill-rule="evenodd" fill-opacity="1" /><path clip-path="url(#clip090)" d="M2375.2 1517.37 Q2371.59 1517.37 2369.76 1520.93 Q2367.95 1524.47 2367.95 1531.6 Q2367.95 1538.71 2369.76 1542.27 Q2371.59 1545.82 2375.2 1545.82 Q2378.83 1545.82 2380.64 1542.27 Q2382.47 1538.71 2382.47 1531.6 Q2382.47 1524.47 2380.64 1520.93 Q2378.83 1517.37 2375.2 1517.37 M2375.2 1513.66 Q2381.01 1513.66 2384.06 1518.27 Q2387.14 1522.85 2387.14 1531.6 Q2387.14 1540.33 2384.06 1544.94 Q2381.01 1549.52 2375.2 1549.52 Q2369.39 1549.52 2366.31 1544.94 Q2363.25 1540.33 2363.25 1531.6 Q2363.25 1522.85 2366.31 1518.27 Q2369.39 1513.66 2375.2 1513.66 Z" fill="#000000" fill-rule="evenodd" fill-opacity="1" /><polyline clip-path="url(#clip092)" style="stroke:#000000; stroke-linecap:round; stroke-linejoin:round; stroke-width:2; stroke-opacity:0.1; fill:none" points="
  229.445,1445.72 2352.76,1445.72 
  "/>
<polyline clip-path="url(#clip092)" style="stroke:#000000; stroke-linecap:round; stroke-linejoin:round; stroke-width:2; stroke-opacity:0.1; fill:none" points="
  229.445,1105.58 2352.76,1105.58 
  "/>
<polyline clip-path="url(#clip092)" style="stroke:#000000; stroke-linecap:round; stroke-linejoin:round; stroke-width:2; stroke-opacity:0.1; fill:none" points="
  229.445,765.447 2352.76,765.447 
  "/>
<polyline clip-path="url(#clip092)" style="stroke:#000000; stroke-linecap:round; stroke-linejoin:round; stroke-width:2; stroke-opacity:0.1; fill:none" points="
  229.445,425.313 2352.76,425.313 
  "/>
<polyline clip-path="url(#clip092)" style="stroke:#000000; stroke-linecap:round; stroke-linejoin:round; stroke-width:2; stroke-opacity:0.1; fill:none" points="
  229.445,85.1783 2352.76,85.1783 
  "/>
<polyline clip-path="url(#clip090)" style="stroke:#000000; stroke-linecap:round; stroke-linejoin:round; stroke-width:4; stroke-opacity:1; fill:none" points="
  229.445,1486.45 229.445,47.2441 
  "/>
<polyline clip-path="url(#clip090)" style="stroke:#000000; stroke-linecap:round; stroke-linejoin:round; stroke-width:4; stroke-opacity:1; fill:none" points="
  229.445,1445.72 248.343,1445.72 
  "/>
<polyline clip-path="url(#clip090)" style="stroke:#000000; stroke-linecap:round; stroke-linejoin:round; stroke-width:4; stroke-opacity:1; fill:none" points="
  229.445,1105.58 248.343,1105.58 
  "/>
<polyline clip-path="url(#clip090)" style="stroke:#000000; stroke-linecap:round; stroke-linejoin:round; stroke-width:4; stroke-opacity:1; fill:none" points="
  229.445,765.447 248.343,765.447 
  "/>
<polyline clip-path="url(#clip090)" style="stroke:#000000; stroke-linecap:round; stroke-linejoin:round; stroke-width:4; stroke-opacity:1; fill:none" points="
  229.445,425.313 248.343,425.313 
  "/>
<polyline clip-path="url(#clip090)" style="stroke:#000000; stroke-linecap:round; stroke-linejoin:round; stroke-width:4; stroke-opacity:1; fill:none" points="
  229.445,85.1783 248.343,85.1783 
  "/>
<path clip-path="url(#clip090)" d="M181.501 1431.51 Q177.89 1431.51 176.061 1435.08 Q174.255 1438.62 174.255 1445.75 Q174.255 1452.86 176.061 1456.42 Q177.89 1459.96 181.501 1459.96 Q185.135 1459.96 186.94 1456.42 Q188.769 1452.86 188.769 1445.75 Q188.769 1438.62 186.94 1435.08 Q185.135 1431.51 181.501 1431.51 M181.501 1427.81 Q187.311 1427.81 190.366 1432.42 Q193.445 1437 193.445 1445.75 Q193.445 1454.48 190.366 1459.08 Q187.311 1463.67 181.501 1463.67 Q175.691 1463.67 172.612 1459.08 Q169.556 1454.48 169.556 1445.75 Q169.556 1437 172.612 1432.42 Q175.691 1427.81 181.501 1427.81 Z" fill="#000000" fill-rule="evenodd" fill-opacity="1" /><path clip-path="url(#clip090)" d="M85.0429 1118.93 L101.362 1118.93 L101.362 1122.86 L79.4179 1122.86 L79.4179 1118.93 Q82.0799 1116.17 86.6632 1111.54 Q91.2697 1106.89 92.4502 1105.55 Q94.6956 1103.02 95.5752 1101.29 Q96.478 1099.53 96.478 1097.84 Q96.478 1095.08 94.5336 1093.35 Q92.6123 1091.61 89.5104 1091.61 Q87.3114 1091.61 84.8577 1092.38 Q82.4271 1093.14 79.6494 1094.69 L79.6494 1089.97 Q82.4734 1088.83 84.9271 1088.26 Q87.3808 1087.68 89.4178 1087.68 Q94.7882 1087.68 97.9826 1090.36 Q101.177 1093.05 101.177 1097.54 Q101.177 1099.67 100.367 1101.59 Q99.5798 1103.49 97.4734 1106.08 Q96.8947 1106.75 93.7928 1109.97 Q90.691 1113.16 85.0429 1118.93 Z" fill="#000000" fill-rule="evenodd" fill-opacity="1" /><path clip-path="url(#clip090)" d="M111.223 1088.3 L129.58 1088.3 L129.58 1092.24 L115.506 1092.24 L115.506 1100.71 Q116.524 1100.36 117.543 1100.2 Q118.561 1100.01 119.58 1100.01 Q125.367 1100.01 128.746 1103.19 Q132.126 1106.36 132.126 1111.77 Q132.126 1117.35 128.654 1120.45 Q125.182 1123.53 118.862 1123.53 Q116.686 1123.53 114.418 1123.16 Q112.172 1122.79 109.765 1122.05 L109.765 1117.35 Q111.848 1118.49 114.07 1119.04 Q116.293 1119.6 118.77 1119.6 Q122.774 1119.6 125.112 1117.49 Q127.45 1115.38 127.45 1111.77 Q127.45 1108.16 125.112 1106.06 Q122.774 1103.95 118.77 1103.95 Q116.895 1103.95 115.02 1104.37 Q113.168 1104.78 111.223 1105.66 L111.223 1088.3 Z" fill="#000000" fill-rule="evenodd" fill-opacity="1" /><path clip-path="url(#clip090)" d="M151.339 1091.38 Q147.728 1091.38 145.899 1094.94 Q144.093 1098.49 144.093 1105.62 Q144.093 1112.72 145.899 1116.29 Q147.728 1119.83 151.339 1119.83 Q154.973 1119.83 156.779 1116.29 Q158.607 1112.72 158.607 1105.62 Q158.607 1098.49 156.779 1094.94 Q154.973 1091.38 151.339 1091.38 M151.339 1087.68 Q157.149 1087.68 160.205 1092.28 Q163.283 1096.87 163.283 1105.62 Q163.283 1114.34 160.205 1118.95 Q157.149 1123.53 151.339 1123.53 Q145.529 1123.53 142.45 1118.95 Q139.394 1114.34 139.394 1105.62 Q139.394 1096.87 142.45 1092.28 Q145.529 1087.68 151.339 1087.68 Z" fill="#000000" fill-rule="evenodd" fill-opacity="1" /><path clip-path="url(#clip090)" d="M181.501 1091.38 Q177.89 1091.38 176.061 1094.94 Q174.255 1098.49 174.255 1105.62 Q174.255 1112.72 176.061 1116.29 Q177.89 1119.83 181.501 1119.83 Q185.135 1119.83 186.94 1116.29 Q188.769 1112.72 188.769 1105.62 Q188.769 1098.49 186.94 1094.94 Q185.135 1091.38 181.501 1091.38 M181.501 1087.68 Q187.311 1087.68 190.366 1092.28 Q193.445 1096.87 193.445 1105.62 Q193.445 1114.34 190.366 1118.95 Q187.311 1123.53 181.501 1123.53 Q175.691 1123.53 172.612 1118.95 Q169.556 1114.34 169.556 1105.62 Q169.556 1096.87 172.612 1092.28 Q175.691 1087.68 181.501 1087.68 Z" fill="#000000" fill-rule="evenodd" fill-opacity="1" /><path clip-path="url(#clip090)" d="M81.0614 748.167 L99.4178 748.167 L99.4178 752.102 L85.3438 752.102 L85.3438 760.574 Q86.3623 760.227 87.3808 760.065 Q88.3993 759.88 89.4178 759.88 Q95.2049 759.88 98.5845 763.051 Q101.964 766.222 101.964 771.639 Q101.964 777.218 98.4919 780.32 Q95.0197 783.398 88.7003 783.398 Q86.5243 783.398 84.2558 783.028 Q82.0105 782.658 79.6031 781.917 L79.6031 777.218 Q81.6864 778.352 83.9086 778.908 Q86.1308 779.463 88.6077 779.463 Q92.6123 779.463 94.9502 777.357 Q97.2882 775.25 97.2882 771.639 Q97.2882 768.028 94.9502 765.922 Q92.6123 763.815 88.6077 763.815 Q86.7327 763.815 84.8577 764.232 Q83.0058 764.648 81.0614 765.528 L81.0614 748.167 Z" fill="#000000" fill-rule="evenodd" fill-opacity="1" /><path clip-path="url(#clip090)" d="M121.177 751.246 Q117.566 751.246 115.737 754.81 Q113.932 758.352 113.932 765.482 Q113.932 772.588 115.737 776.153 Q117.566 779.695 121.177 779.695 Q124.811 779.695 126.617 776.153 Q128.445 772.588 128.445 765.482 Q128.445 758.352 126.617 754.81 Q124.811 751.246 121.177 751.246 M121.177 747.542 Q126.987 747.542 130.043 752.148 Q133.121 756.732 133.121 765.482 Q133.121 774.209 130.043 778.815 Q126.987 783.398 121.177 783.398 Q115.367 783.398 112.288 778.815 Q109.233 774.209 109.233 765.482 Q109.233 756.732 112.288 752.148 Q115.367 747.542 121.177 747.542 Z" fill="#000000" fill-rule="evenodd" fill-opacity="1" /><path clip-path="url(#clip090)" d="M151.339 751.246 Q147.728 751.246 145.899 754.81 Q144.093 758.352 144.093 765.482 Q144.093 772.588 145.899 776.153 Q147.728 779.695 151.339 779.695 Q154.973 779.695 156.779 776.153 Q158.607 772.588 158.607 765.482 Q158.607 758.352 156.779 754.81 Q154.973 751.246 151.339 751.246 M151.339 747.542 Q157.149 747.542 160.205 752.148 Q163.283 756.732 163.283 765.482 Q163.283 774.209 160.205 778.815 Q157.149 783.398 151.339 783.398 Q145.529 783.398 142.45 778.815 Q139.394 774.209 139.394 765.482 Q139.394 756.732 142.45 752.148 Q145.529 747.542 151.339 747.542 Z" fill="#000000" fill-rule="evenodd" fill-opacity="1" /><path clip-path="url(#clip090)" d="M181.501 751.246 Q177.89 751.246 176.061 754.81 Q174.255 758.352 174.255 765.482 Q174.255 772.588 176.061 776.153 Q177.89 779.695 181.501 779.695 Q185.135 779.695 186.94 776.153 Q188.769 772.588 188.769 765.482 Q188.769 758.352 186.94 754.81 Q185.135 751.246 181.501 751.246 M181.501 747.542 Q187.311 747.542 190.366 752.148 Q193.445 756.732 193.445 765.482 Q193.445 774.209 190.366 778.815 Q187.311 783.398 181.501 783.398 Q175.691 783.398 172.612 778.815 Q169.556 774.209 169.556 765.482 Q169.556 756.732 172.612 752.148 Q175.691 747.542 181.501 747.542 Z" fill="#000000" fill-rule="evenodd" fill-opacity="1" /><path clip-path="url(#clip090)" d="M79.8346 408.033 L102.057 408.033 L102.057 410.023 L89.5104 442.593 L84.6262 442.593 L96.4317 411.968 L79.8346 411.968 L79.8346 408.033 Z" fill="#000000" fill-rule="evenodd" fill-opacity="1" /><path clip-path="url(#clip090)" d="M111.223 408.033 L129.58 408.033 L129.58 411.968 L115.506 411.968 L115.506 420.44 Q116.524 420.093 117.543 419.931 Q118.561 419.746 119.58 419.746 Q125.367 419.746 128.746 422.917 Q132.126 426.088 132.126 431.505 Q132.126 437.083 128.654 440.185 Q125.182 443.264 118.862 443.264 Q116.686 443.264 114.418 442.894 Q112.172 442.523 109.765 441.782 L109.765 437.083 Q111.848 438.218 114.07 438.773 Q116.293 439.329 118.77 439.329 Q122.774 439.329 125.112 437.222 Q127.45 435.116 127.45 431.505 Q127.45 427.894 125.112 425.787 Q122.774 423.681 118.77 423.681 Q116.895 423.681 115.02 424.097 Q113.168 424.514 111.223 425.394 L111.223 408.033 Z" fill="#000000" fill-rule="evenodd" fill-opacity="1" /><path clip-path="url(#clip090)" d="M151.339 411.111 Q147.728 411.111 145.899 414.676 Q144.093 418.218 144.093 425.347 Q144.093 432.454 145.899 436.019 Q147.728 439.56 151.339 439.56 Q154.973 439.56 156.779 436.019 Q158.607 432.454 158.607 425.347 Q158.607 418.218 156.779 414.676 Q154.973 411.111 151.339 411.111 M151.339 407.408 Q157.149 407.408 160.205 412.014 Q163.283 416.597 163.283 425.347 Q163.283 434.074 160.205 438.681 Q157.149 443.264 151.339 443.264 Q145.529 443.264 142.45 438.681 Q139.394 434.074 139.394 425.347 Q139.394 416.597 142.45 412.014 Q145.529 407.408 151.339 407.408 Z" fill="#000000" fill-rule="evenodd" fill-opacity="1" /><path clip-path="url(#clip090)" d="M181.501 411.111 Q177.89 411.111 176.061 414.676 Q174.255 418.218 174.255 425.347 Q174.255 432.454 176.061 436.019 Q177.89 439.56 181.501 439.56 Q185.135 439.56 186.94 436.019 Q188.769 432.454 188.769 425.347 Q188.769 418.218 186.94 414.676 Q185.135 411.111 181.501 411.111 M181.501 407.408 Q187.311 407.408 190.366 412.014 Q193.445 416.597 193.445 425.347 Q193.445 434.074 190.366 438.681 Q187.311 443.264 181.501 443.264 Q175.691 443.264 172.612 438.681 Q169.556 434.074 169.556 425.347 Q169.556 416.597 172.612 412.014 Q175.691 407.408 181.501 407.408 Z" fill="#000000" fill-rule="evenodd" fill-opacity="1" /><path clip-path="url(#clip090)" d="M51.6634 98.5231 L59.3023 98.5231 L59.3023 72.1575 L50.9921 73.8242 L50.9921 69.565 L59.256 67.8983 L63.9319 67.8983 L63.9319 98.5231 L71.5707 98.5231 L71.5707 102.458 L51.6634 102.458 L51.6634 98.5231 Z" fill="#000000" fill-rule="evenodd" fill-opacity="1" /><path clip-path="url(#clip090)" d="M91.0151 70.977 Q87.404 70.977 85.5753 74.5418 Q83.7697 78.0834 83.7697 85.213 Q83.7697 92.3195 85.5753 95.8843 Q87.404 99.4259 91.0151 99.4259 Q94.6493 99.4259 96.4548 95.8843 Q98.2835 92.3195 98.2835 85.213 Q98.2835 78.0834 96.4548 74.5418 Q94.6493 70.977 91.0151 70.977 M91.0151 67.2733 Q96.8252 67.2733 99.8808 71.8798 Q102.959 76.4631 102.959 85.213 Q102.959 93.9398 99.8808 98.5463 Q96.8252 103.13 91.0151 103.13 Q85.2049 103.13 82.1262 98.5463 Q79.0707 93.9398 79.0707 85.213 Q79.0707 76.4631 82.1262 71.8798 Q85.2049 67.2733 91.0151 67.2733 Z" fill="#000000" fill-rule="evenodd" fill-opacity="1" /><path clip-path="url(#clip090)" d="M121.177 70.977 Q117.566 70.977 115.737 74.5418 Q113.932 78.0834 113.932 85.213 Q113.932 92.3195 115.737 95.8843 Q117.566 99.4259 121.177 99.4259 Q124.811 99.4259 126.617 95.8843 Q128.445 92.3195 128.445 85.213 Q128.445 78.0834 126.617 74.5418 Q124.811 70.977 121.177 70.977 M121.177 67.2733 Q126.987 67.2733 130.043 71.8798 Q133.121 76.4631 133.121 85.213 Q133.121 93.9398 130.043 98.5463 Q126.987 103.13 121.177 103.13 Q115.367 103.13 112.288 98.5463 Q109.233 93.9398 109.233 85.213 Q109.233 76.4631 112.288 71.8798 Q115.367 67.2733 121.177 67.2733 Z" fill="#000000" fill-rule="evenodd" fill-opacity="1" /><path clip-path="url(#clip090)" d="M151.339 70.977 Q147.728 70.977 145.899 74.5418 Q144.093 78.0834 144.093 85.213 Q144.093 92.3195 145.899 95.8843 Q147.728 99.4259 151.339 99.4259 Q154.973 99.4259 156.779 95.8843 Q158.607 92.3195 158.607 85.213 Q158.607 78.0834 156.779 74.5418 Q154.973 70.977 151.339 70.977 M151.339 67.2733 Q157.149 67.2733 160.205 71.8798 Q163.283 76.4631 163.283 85.213 Q163.283 93.9398 160.205 98.5463 Q157.149 103.13 151.339 103.13 Q145.529 103.13 142.45 98.5463 Q139.394 93.9398 139.394 85.213 Q139.394 76.4631 142.45 71.8798 Q145.529 67.2733 151.339 67.2733 Z" fill="#000000" fill-rule="evenodd" fill-opacity="1" /><path clip-path="url(#clip090)" d="M181.501 70.977 Q177.89 70.977 176.061 74.5418 Q174.255 78.0834 174.255 85.213 Q174.255 92.3195 176.061 95.8843 Q177.89 99.4259 181.501 99.4259 Q185.135 99.4259 186.94 95.8843 Q188.769 92.3195 188.769 85.213 Q188.769 78.0834 186.94 74.5418 Q185.135 70.977 181.501 70.977 M181.501 67.2733 Q187.311 67.2733 190.366 71.8798 Q193.445 76.4631 193.445 85.213 Q193.445 93.9398 190.366 98.5463 Q187.311 103.13 181.501 103.13 Q175.691 103.13 172.612 98.5463 Q169.556 93.9398 169.556 85.213 Q169.556 76.4631 172.612 71.8798 Q175.691 67.2733 181.501 67.2733 Z" fill="#000000" fill-rule="evenodd" fill-opacity="1" /><polyline clip-path="url(#clip092)" style="stroke:#009af9; stroke-linecap:round; stroke-linejoin:round; stroke-width:16; stroke-opacity:1; fill:none" points="
  229.445,1445.72 243.269,1445.71 371.091,1445.69 447.907,1445.68 512.853,1445.67 583.404,1445.65 648.445,1445.63 718.176,1445.6 798.966,1445.56 870.763,1445.51 
  933.722,1445.45 968.044,1445.4 1002.36,1445.35 1036.89,1445.28 1071.42,1445.19 1090.5,1445.13 1109.59,1445.06 1128.67,1444.96 1147.76,1444.84 1165.92,1444.7 
  1184.08,1444.5 1193.16,1444.38 1202.24,1444.23 1211.32,1444.04 1220.4,1443.81 1225.12,1443.66 1229.84,1443.49 1234.56,1443.3 1239.28,1443.06 1244,1442.78 
  1248.72,1442.44 1253.44,1442.02 1258.16,1441.47 1262.88,1440.73 1267.6,1439.7 1272.32,1438.16 1277.05,1435.57 1279.41,1433.5 1281.77,1430.38 1282.95,1428.14 
  1284.13,1425.14 1285.31,1420.92 1286.49,1414.55 1287.08,1409.96 1287.67,1403.79 1288.26,1395.06 1288.85,1381.77 1289.44,1359.04 1290.03,1311.33 1290.62,1147.21 
  1291.21,87.9763 1291.8,1238.18 1292.39,1333.31 1292.98,1368.61 1293.57,1387.02 1294.16,1398.33 1294.75,1405.97 1295.34,1411.49 1295.93,1415.66 1296.92,1420.76 
  1297.91,1424.38 1298.91,1427.08 1299.9,1429.17 1301.89,1432.19 1303.87,1434.27 1307.85,1436.96 1311.82,1438.61 1315.8,1439.73 1319.77,1440.54 1323.74,1441.15 
  1327.72,1441.63 1331.69,1442.02 1335.66,1442.34 1339.64,1442.6 1343.61,1442.83 1347.59,1443.02 1351.56,1443.19 1355.53,1443.34 1359.51,1443.47 1369.21,1443.73 
  1378.91,1443.93 1388.61,1444.1 1398.32,1444.23 1417.72,1444.44 1437.13,1444.59 1454.91,1444.7 1472.68,1444.78 1490.46,1444.86 1508.24,1444.91 1541.07,1445 
  1573.91,1445.07 1607.17,1445.12 1640.43,1445.17 1714.99,1445.24 1782.55,1445.29 1859.9,1445.33 1931.52,1445.35 2002.13,1445.38 2070.68,1445.39 2140.96,1445.41 
  2217.96,1445.42 2329.81,1445.44 2352.76,1445.44 
  "/>
<path clip-path="url(#clip090)" d="
M1993.63 198.898 L2281.98 198.898 L2281.98 95.2176 L1993.63 95.2176  Z
  " fill="#ffffff" fill-rule="evenodd" fill-opacity="1"/>
<polyline clip-path="url(#clip090)" style="stroke:#000000; stroke-linecap:round; stroke-linejoin:round; stroke-width:4; stroke-opacity:1; fill:none" points="
  1993.63,198.898 2281.98,198.898 2281.98,95.2176 1993.63,95.2176 1993.63,198.898 
  "/>
<polyline clip-path="url(#clip090)" style="stroke:#009af9; stroke-linecap:round; stroke-linejoin:round; stroke-width:4; stroke-opacity:1; fill:none" points="
  2017.22,147.058 2158.77,147.058 
  "/>
<path clip-path="url(#clip090)" d="M2196.21 166.745 Q2194.4 171.375 2192.69 172.787 Q2190.97 174.199 2188.1 174.199 L2184.7 174.199 L2184.7 170.634 L2187.2 170.634 Q2188.96 170.634 2189.93 169.8 Q2190.91 168.967 2192.09 165.865 L2192.85 163.921 L2182.36 138.412 L2186.88 138.412 L2194.98 158.689 L2203.08 138.412 L2207.6 138.412 L2196.21 166.745 Z" fill="#000000" fill-rule="evenodd" fill-opacity="1" /><path clip-path="url(#clip090)" d="M2214.89 160.402 L2222.53 160.402 L2222.53 134.037 L2214.22 135.703 L2214.22 131.444 L2222.48 129.778 L2227.16 129.778 L2227.16 160.402 L2234.79 160.402 L2234.79 164.338 L2214.89 164.338 L2214.89 160.402 Z" fill="#000000" fill-rule="evenodd" fill-opacity="1" /></svg>
