<?xml version="1.0" encoding="utf-8"?>
<svg xmlns="http://www.w3.org/2000/svg" xmlns:xlink="http://www.w3.org/1999/xlink" width="600" height="400" viewBox="0 0 2400 1600">
<defs>
  <clipPath id="clip690">
    <rect x="0" y="0" width="2400" height="1600"/>
  </clipPath>
</defs>
<path clip-path="url(#clip690)" d="
M0 1600 L2400 1600 L2400 0 L0 0  Z
  " fill="#ffffff" fill-rule="evenodd" fill-opacity="1"/>
<defs>
  <clipPath id="clip691">
    <rect x="480" y="0" width="1681" height="1600"/>
  </clipPath>
</defs>
<path clip-path="url(#clip690)" d="
M368.761 1474.16 L2352.76 1474.16 L2352.76 47.2441 L368.761 47.2441  Z
  " fill="#ffffff" fill-rule="evenodd" fill-opacity="1"/>
<defs>
  <clipPath id="clip692">
    <rect x="368" y="47" width="1985" height="1428"/>
  </clipPath>
</defs>
<polyline clip-path="url(#clip692)" style="stroke:#000000; stroke-linecap:round; stroke-linejoin:round; stroke-width:2; stroke-opacity:0.1; fill:none" points="
  368.761,1474.16 368.761,47.2441 
  "/>
<polyline clip-path="url(#clip692)" style="stroke:#000000; stroke-linecap:round; stroke-linejoin:round; stroke-width:2; stroke-opacity:0.1; fill:none" points="
  864.76,1474.16 864.76,47.2441 
  "/>
<polyline clip-path="url(#clip692)" style="stroke:#000000; stroke-linecap:round; stroke-linejoin:round; stroke-width:2; stroke-opacity:0.1; fill:none" points="
  1360.76,1474.16 1360.76,47.2441 
  "/>
<polyline clip-path="url(#clip692)" style="stroke:#000000; stroke-linecap:round; stroke-linejoin:round; stroke-width:2; stroke-opacity:0.1; fill:none" points="
  1856.76,1474.16 1856.76,47.2441 
  "/>
<polyline clip-path="url(#clip692)" style="stroke:#000000; stroke-linecap:round; stroke-linejoin:round; stroke-width:2; stroke-opacity:0.1; fill:none" points="
  2352.76,1474.16 2352.76,47.2441 
  "/>
<polyline clip-path="url(#clip690)" style="stroke:#000000; stroke-linecap:round; stroke-linejoin:round; stroke-width:4; stroke-opacity:1; fill:none" points="
  368.761,1474.16 2352.76,1474.16 
  "/>
<polyline clip-path="url(#clip690)" style="stroke:#000000; stroke-linecap:round; stroke-linejoin:round; stroke-width:4; stroke-opacity:1; fill:none" points="
  368.761,1474.16 368.761,1455.27 
  "/>
<polyline clip-path="url(#clip690)" style="stroke:#000000; stroke-linecap:round; stroke-linejoin:round; stroke-width:4; stroke-opacity:1; fill:none" points="
  864.76,1474.16 864.76,1455.27 
  "/>
<polyline clip-path="url(#clip690)" style="stroke:#000000; stroke-linecap:round; stroke-linejoin:round; stroke-width:4; stroke-opacity:1; fill:none" points="
  1360.76,1474.16 1360.76,1455.27 
  "/>
<polyline clip-path="url(#clip690)" style="stroke:#000000; stroke-linecap:round; stroke-linejoin:round; stroke-width:4; stroke-opacity:1; fill:none" points="
  1856.76,1474.16 1856.76,1455.27 
  "/>
<polyline clip-path="url(#clip690)" style="stroke:#000000; stroke-linecap:round; stroke-linejoin:round; stroke-width:4; stroke-opacity:1; fill:none" points="
  2352.76,1474.16 2352.76,1455.27 
  "/>
<path clip-path="url(#clip690)" d="M228.347 1535.4 L258.023 1535.4 L258.023 1539.33 L228.347 1539.33 L228.347 1535.4 Z" fill="#000000" fill-rule="evenodd" fill-opacity="1" /><path clip-path="url(#clip690)" d="M268.925 1548.29 L276.564 1548.29 L276.564 1521.92 L268.254 1523.59 L268.254 1519.33 L276.518 1517.66 L281.194 1517.66 L281.194 1548.29 L288.833 1548.29 L288.833 1552.22 L268.925 1552.22 L268.925 1548.29 Z" fill="#000000" fill-rule="evenodd" fill-opacity="1" /><path clip-path="url(#clip690)" d="M298.277 1546.35 L303.161 1546.35 L303.161 1552.22 L298.277 1552.22 L298.277 1546.35 Z" fill="#000000" fill-rule="evenodd" fill-opacity="1" /><path clip-path="url(#clip690)" d="M323.346 1520.74 Q319.735 1520.74 317.907 1524.31 Q316.101 1527.85 316.101 1534.98 Q316.101 1542.09 317.907 1545.65 Q319.735 1549.19 323.346 1549.19 Q326.981 1549.19 328.786 1545.65 Q330.615 1542.09 330.615 1534.98 Q330.615 1527.85 328.786 1524.31 Q326.981 1520.74 323.346 1520.74 M323.346 1517.04 Q329.157 1517.04 332.212 1521.65 Q335.291 1526.23 335.291 1534.98 Q335.291 1543.71 332.212 1548.31 Q329.157 1552.9 323.346 1552.9 Q317.536 1552.9 314.458 1548.31 Q311.402 1543.71 311.402 1534.98 Q311.402 1526.23 314.458 1521.65 Q317.536 1517.04 323.346 1517.04 Z" fill="#000000" fill-rule="evenodd" fill-opacity="1" /><path clip-path="url(#clip690)" d="M371.68 1526.76 L361.101 1537.39 L371.68 1547.97 L368.925 1550.77 L358.3 1540.14 L347.675 1550.77 L344.944 1547.97 L355.499 1537.39 L344.944 1526.76 L347.675 1523.96 L358.3 1534.59 L368.925 1523.96 L371.68 1526.76 Z" fill="#000000" fill-rule="evenodd" fill-opacity="1" /><path clip-path="url(#clip690)" d="M384.041 1548.29 L391.679 1548.29 L391.679 1521.92 L383.369 1523.59 L383.369 1519.33 L391.633 1517.66 L396.309 1517.66 L396.309 1548.29 L403.948 1548.29 L403.948 1552.22 L384.041 1552.22 L384.041 1548.29 Z" fill="#000000" fill-rule="evenodd" fill-opacity="1" /><path clip-path="url(#clip690)" d="M423.392 1520.74 Q419.781 1520.74 417.952 1524.31 Q416.147 1527.85 416.147 1534.98 Q416.147 1542.09 417.952 1545.65 Q419.781 1549.19 423.392 1549.19 Q427.026 1549.19 428.832 1545.65 Q430.661 1542.09 430.661 1534.98 Q430.661 1527.85 428.832 1524.31 Q427.026 1520.74 423.392 1520.74 M423.392 1517.04 Q429.202 1517.04 432.258 1521.65 Q435.337 1526.23 435.337 1534.98 Q435.337 1543.71 432.258 1548.31 Q429.202 1552.9 423.392 1552.9 Q417.582 1552.9 414.503 1548.31 Q411.448 1543.71 411.448 1534.98 Q411.448 1526.23 414.503 1521.65 Q417.582 1517.04 423.392 1517.04 Z" fill="#000000" fill-rule="evenodd" fill-opacity="1" /><path clip-path="url(#clip690)" d="M435.337 1511.14 L459.448 1511.14 L459.448 1514.34 L435.337 1514.34 L435.337 1511.14 Z" fill="#000000" fill-rule="evenodd" fill-opacity="1" /><path clip-path="url(#clip690)" d="M468.307 1521.62 L474.513 1521.62 L474.513 1500.19 L467.761 1501.55 L467.761 1498.09 L474.476 1496.73 L478.275 1496.73 L478.275 1521.62 L484.481 1521.62 L484.481 1524.81 L468.307 1524.81 L468.307 1521.62 Z" fill="#000000" fill-rule="evenodd" fill-opacity="1" /><path clip-path="url(#clip690)" d="M492.193 1496.73 L507.107 1496.73 L507.107 1499.93 L495.672 1499.93 L495.672 1506.82 Q496.499 1506.53 497.327 1506.4 Q498.155 1506.25 498.982 1506.25 Q503.684 1506.25 506.43 1508.83 Q509.176 1511.4 509.176 1515.81 Q509.176 1520.34 506.355 1522.86 Q503.534 1525.36 498.399 1525.36 Q496.631 1525.36 494.788 1525.06 Q492.964 1524.76 491.008 1524.16 L491.008 1520.34 Q492.7 1521.26 494.506 1521.71 Q496.311 1522.16 498.324 1522.16 Q501.578 1522.16 503.477 1520.45 Q505.377 1518.74 505.377 1515.81 Q505.377 1512.87 503.477 1511.16 Q501.578 1509.45 498.324 1509.45 Q496.8 1509.45 495.277 1509.79 Q493.772 1510.13 492.193 1510.84 L492.193 1496.73 Z" fill="#000000" fill-rule="evenodd" fill-opacity="1" /><path clip-path="url(#clip690)" d="M723.875 1535.4 L753.551 1535.4 L753.551 1539.33 L723.875 1539.33 L723.875 1535.4 Z" fill="#000000" fill-rule="evenodd" fill-opacity="1" /><path clip-path="url(#clip690)" d="M763.69 1517.66 L782.046 1517.66 L782.046 1521.6 L767.972 1521.6 L767.972 1530.07 Q768.991 1529.72 770.009 1529.56 Q771.028 1529.38 772.046 1529.38 Q777.833 1529.38 781.213 1532.55 Q784.593 1535.72 784.593 1541.14 Q784.593 1546.72 781.12 1549.82 Q777.648 1552.9 771.329 1552.9 Q769.153 1552.9 766.884 1552.53 Q764.639 1552.16 762.232 1551.41 L762.232 1546.72 Q764.315 1547.85 766.537 1548.41 Q768.759 1548.96 771.236 1548.96 Q775.241 1548.96 777.579 1546.85 Q779.917 1544.75 779.917 1541.14 Q779.917 1537.53 777.579 1535.42 Q775.241 1533.31 771.236 1533.31 Q769.361 1533.31 767.486 1533.73 Q765.634 1534.15 763.69 1535.03 L763.69 1517.66 Z" fill="#000000" fill-rule="evenodd" fill-opacity="1" /><path clip-path="url(#clip690)" d="M793.806 1546.35 L798.69 1546.35 L798.69 1552.22 L793.806 1552.22 L793.806 1546.35 Z" fill="#000000" fill-rule="evenodd" fill-opacity="1" /><path clip-path="url(#clip690)" d="M818.875 1520.74 Q815.264 1520.74 813.435 1524.31 Q811.63 1527.85 811.63 1534.98 Q811.63 1542.09 813.435 1545.65 Q815.264 1549.19 818.875 1549.19 Q822.509 1549.19 824.315 1545.65 Q826.143 1542.09 826.143 1534.98 Q826.143 1527.85 824.315 1524.31 Q822.509 1520.74 818.875 1520.74 M818.875 1517.04 Q824.685 1517.04 827.741 1521.65 Q830.819 1526.23 830.819 1534.98 Q830.819 1543.71 827.741 1548.31 Q824.685 1552.9 818.875 1552.9 Q813.065 1552.9 809.986 1548.31 Q806.931 1543.71 806.931 1534.98 Q806.931 1526.23 809.986 1521.65 Q813.065 1517.04 818.875 1517.04 Z" fill="#000000" fill-rule="evenodd" fill-opacity="1" /><path clip-path="url(#clip690)" d="M867.208 1526.76 L856.629 1537.39 L867.208 1547.97 L864.453 1550.77 L853.828 1540.14 L843.203 1550.77 L840.472 1547.97 L851.027 1537.39 L840.472 1526.76 L843.203 1523.96 L853.828 1534.59 L864.453 1523.96 L867.208 1526.76 Z" fill="#000000" fill-rule="evenodd" fill-opacity="1" /><path clip-path="url(#clip690)" d="M879.569 1548.29 L887.208 1548.29 L887.208 1521.92 L878.898 1523.59 L878.898 1519.33 L887.162 1517.66 L891.837 1517.66 L891.837 1548.29 L899.476 1548.29 L899.476 1552.22 L879.569 1552.22 L879.569 1548.29 Z" fill="#000000" fill-rule="evenodd" fill-opacity="1" /><path clip-path="url(#clip690)" d="M918.921 1520.74 Q915.31 1520.74 913.481 1524.31 Q911.675 1527.85 911.675 1534.98 Q911.675 1542.09 913.481 1545.65 Q915.31 1549.19 918.921 1549.19 Q922.555 1549.19 924.36 1545.65 Q926.189 1542.09 926.189 1534.98 Q926.189 1527.85 924.36 1524.31 Q922.555 1520.74 918.921 1520.74 M918.921 1517.04 Q924.731 1517.04 927.786 1521.65 Q930.865 1526.23 930.865 1534.98 Q930.865 1543.71 927.786 1548.31 Q924.731 1552.9 918.921 1552.9 Q913.11 1552.9 910.032 1548.31 Q906.976 1543.71 906.976 1534.98 Q906.976 1526.23 910.032 1521.65 Q913.11 1517.04 918.921 1517.04 Z" fill="#000000" fill-rule="evenodd" fill-opacity="1" /><path clip-path="url(#clip690)" d="M930.865 1511.14 L954.977 1511.14 L954.977 1514.34 L930.865 1514.34 L930.865 1511.14 Z" fill="#000000" fill-rule="evenodd" fill-opacity="1" /><path clip-path="url(#clip690)" d="M963.835 1521.62 L970.042 1521.62 L970.042 1500.19 L963.29 1501.55 L963.29 1498.09 L970.004 1496.73 L973.803 1496.73 L973.803 1521.62 L980.01 1521.62 L980.01 1524.81 L963.835 1524.81 L963.835 1521.62 Z" fill="#000000" fill-rule="evenodd" fill-opacity="1" /><path clip-path="url(#clip690)" d="M996.278 1509.26 Q993.721 1509.26 992.216 1511.01 Q990.73 1512.76 990.73 1515.81 Q990.73 1518.83 992.216 1520.6 Q993.721 1522.35 996.278 1522.35 Q998.836 1522.35 1000.32 1520.6 Q1001.83 1518.83 1001.83 1515.81 Q1001.83 1512.76 1000.32 1511.01 Q998.836 1509.26 996.278 1509.26 M1003.82 1497.35 L1003.82 1500.82 Q1002.39 1500.14 1000.92 1499.78 Q999.476 1499.42 998.046 1499.42 Q994.285 1499.42 992.291 1501.96 Q990.316 1504.5 990.034 1509.64 Q991.144 1508 992.818 1507.13 Q994.492 1506.25 996.504 1506.25 Q1000.74 1506.25 1003.18 1508.83 Q1005.64 1511.39 1005.64 1515.81 Q1005.64 1520.13 1003.09 1522.75 Q1000.53 1525.36 996.278 1525.36 Q991.407 1525.36 988.831 1521.64 Q986.254 1517.89 986.254 1510.8 Q986.254 1504.14 989.414 1500.19 Q992.573 1496.23 997.896 1496.23 Q999.325 1496.23 1000.77 1496.51 Q1002.24 1496.79 1003.82 1497.35 Z" fill="#000000" fill-rule="evenodd" fill-opacity="1" /><path clip-path="url(#clip690)" d="M1360.76 1505.08 Q1357.15 1505.08 1355.32 1508.65 Q1353.51 1512.19 1353.51 1519.32 Q1353.51 1526.43 1355.32 1529.99 Q1357.15 1533.53 1360.76 1533.53 Q1364.39 1533.53 1366.2 1529.99 Q1368.03 1526.43 1368.03 1519.32 Q1368.03 1512.19 1366.2 1508.65 Q1364.39 1505.08 1360.76 1505.08 M1360.76 1501.38 Q1366.57 1501.38 1369.62 1505.99 Q1372.7 1510.57 1372.7 1519.32 Q1372.7 1528.05 1369.62 1532.65 Q1366.57 1537.24 1360.76 1537.24 Q1354.95 1537.24 1351.87 1532.65 Q1348.81 1528.05 1348.81 1519.32 Q1348.81 1510.57 1351.87 1505.99 Q1354.95 1501.38 1360.76 1501.38 Z" fill="#000000" fill-rule="evenodd" fill-opacity="1" /><path clip-path="url(#clip690)" d="M1736.51 1517.66 L1754.87 1517.66 L1754.87 1521.6 L1740.79 1521.6 L1740.79 1530.07 Q1741.81 1529.72 1742.83 1529.56 Q1743.85 1529.38 1744.87 1529.38 Q1750.65 1529.38 1754.03 1532.55 Q1757.41 1535.72 1757.41 1541.14 Q1757.41 1546.72 1753.94 1549.82 Q1750.47 1552.9 1744.15 1552.9 Q1741.97 1552.9 1739.7 1552.53 Q1737.46 1552.16 1735.05 1551.41 L1735.05 1546.72 Q1737.13 1547.85 1739.36 1548.41 Q1741.58 1548.96 1744.06 1548.96 Q1748.06 1548.96 1750.4 1546.85 Q1752.74 1544.75 1752.74 1541.14 Q1752.74 1537.53 1750.4 1535.42 Q1748.06 1533.31 1744.06 1533.31 Q1742.18 1533.31 1740.31 1533.73 Q1738.45 1534.15 1736.51 1535.03 L1736.51 1517.66 Z" fill="#000000" fill-rule="evenodd" fill-opacity="1" /><path clip-path="url(#clip690)" d="M1766.62 1546.35 L1771.51 1546.35 L1771.51 1552.22 L1766.62 1552.22 L1766.62 1546.35 Z" fill="#000000" fill-rule="evenodd" fill-opacity="1" /><path clip-path="url(#clip690)" d="M1791.69 1520.74 Q1788.08 1520.74 1786.25 1524.31 Q1784.45 1527.85 1784.45 1534.98 Q1784.45 1542.09 1786.25 1545.65 Q1788.08 1549.19 1791.69 1549.19 Q1795.33 1549.19 1797.13 1545.65 Q1798.96 1542.09 1798.96 1534.98 Q1798.96 1527.85 1797.13 1524.31 Q1795.33 1520.74 1791.69 1520.74 M1791.69 1517.04 Q1797.5 1517.04 1800.56 1521.65 Q1803.64 1526.23 1803.64 1534.98 Q1803.64 1543.71 1800.56 1548.31 Q1797.5 1552.9 1791.69 1552.9 Q1785.88 1552.9 1782.81 1548.31 Q1779.75 1543.71 1779.75 1534.98 Q1779.75 1526.23 1782.81 1521.65 Q1785.88 1517.04 1791.69 1517.04 Z" fill="#000000" fill-rule="evenodd" fill-opacity="1" /><path clip-path="url(#clip690)" d="M1840.03 1526.76 L1829.45 1537.39 L1840.03 1547.97 L1837.27 1550.77 L1826.65 1540.14 L1816.02 1550.77 L1813.29 1547.97 L1823.85 1537.39 L1813.29 1526.76 L1816.02 1523.96 L1826.65 1534.59 L1837.27 1523.96 L1840.03 1526.76 Z" fill="#000000" fill-rule="evenodd" fill-opacity="1" /><path clip-path="url(#clip690)" d="M1852.39 1548.29 L1860.03 1548.29 L1860.03 1521.92 L1851.72 1523.59 L1851.72 1519.33 L1859.98 1517.66 L1864.66 1517.66 L1864.66 1548.29 L1872.3 1548.29 L1872.3 1552.22 L1852.39 1552.22 L1852.39 1548.29 Z" fill="#000000" fill-rule="evenodd" fill-opacity="1" /><path clip-path="url(#clip690)" d="M1891.74 1520.74 Q1888.13 1520.74 1886.3 1524.31 Q1884.49 1527.85 1884.49 1534.98 Q1884.49 1542.09 1886.3 1545.65 Q1888.13 1549.19 1891.74 1549.19 Q1895.37 1549.19 1897.18 1545.65 Q1899.01 1542.09 1899.01 1534.98 Q1899.01 1527.85 1897.18 1524.31 Q1895.37 1520.74 1891.74 1520.74 M1891.74 1517.04 Q1897.55 1517.04 1900.61 1521.65 Q1903.68 1526.23 1903.68 1534.98 Q1903.68 1543.71 1900.61 1548.31 Q1897.55 1552.9 1891.74 1552.9 Q1885.93 1552.9 1882.85 1548.31 Q1879.8 1543.71 1879.8 1534.98 Q1879.8 1526.23 1882.85 1521.65 Q1885.93 1517.04 1891.74 1517.04 Z" fill="#000000" fill-rule="evenodd" fill-opacity="1" /><path clip-path="url(#clip690)" d="M1903.68 1511.14 L1927.8 1511.14 L1927.8 1514.34 L1903.68 1514.34 L1903.68 1511.14 Z" fill="#000000" fill-rule="evenodd" fill-opacity="1" /><path clip-path="url(#clip690)" d="M1936.65 1521.62 L1942.86 1521.62 L1942.86 1500.19 L1936.11 1501.55 L1936.11 1498.09 L1942.82 1496.73 L1946.62 1496.73 L1946.62 1521.62 L1952.83 1521.62 L1952.83 1524.81 L1936.65 1524.81 L1936.65 1521.62 Z" fill="#000000" fill-rule="evenodd" fill-opacity="1" /><path clip-path="url(#clip690)" d="M1969.1 1509.26 Q1966.54 1509.26 1965.04 1511.01 Q1963.55 1512.76 1963.55 1515.81 Q1963.55 1518.83 1965.04 1520.6 Q1966.54 1522.35 1969.1 1522.35 Q1971.66 1522.35 1973.14 1520.6 Q1974.65 1518.83 1974.65 1515.81 Q1974.65 1512.76 1973.14 1511.01 Q1971.66 1509.26 1969.1 1509.26 M1976.64 1497.35 L1976.64 1500.82 Q1975.21 1500.14 1973.74 1499.78 Q1972.29 1499.42 1970.87 1499.42 Q1967.1 1499.42 1965.11 1501.96 Q1963.14 1504.5 1962.85 1509.64 Q1963.96 1508 1965.64 1507.13 Q1967.31 1506.25 1969.32 1506.25 Q1973.55 1506.25 1976 1508.83 Q1978.46 1511.39 1978.46 1515.81 Q1978.46 1520.13 1975.91 1522.75 Q1973.35 1525.36 1969.1 1525.36 Q1964.23 1525.36 1961.65 1521.64 Q1959.07 1517.89 1959.07 1510.8 Q1959.07 1504.14 1962.23 1500.19 Q1965.39 1496.23 1970.72 1496.23 Q1972.14 1496.23 1973.59 1496.51 Q1975.06 1496.79 1976.64 1497.35 Z" fill="#000000" fill-rule="evenodd" fill-opacity="1" /><path clip-path="url(#clip690)" d="M2232.97 1548.29 L2240.61 1548.29 L2240.61 1521.92 L2232.3 1523.59 L2232.3 1519.33 L2240.56 1517.66 L2245.23 1517.66 L2245.23 1548.29 L2252.87 1548.29 L2252.87 1552.22 L2232.97 1552.22 L2232.97 1548.29 Z" fill="#000000" fill-rule="evenodd" fill-opacity="1" /><path clip-path="url(#clip690)" d="M2262.32 1546.35 L2267.2 1546.35 L2267.2 1552.22 L2262.32 1552.22 L2262.32 1546.35 Z" fill="#000000" fill-rule="evenodd" fill-opacity="1" /><path clip-path="url(#clip690)" d="M2287.39 1520.74 Q2283.78 1520.74 2281.95 1524.31 Q2280.14 1527.85 2280.14 1534.98 Q2280.14 1542.09 2281.95 1545.65 Q2283.78 1549.19 2287.39 1549.19 Q2291.02 1549.19 2292.83 1545.65 Q2294.66 1542.09 2294.66 1534.98 Q2294.66 1527.85 2292.83 1524.31 Q2291.02 1520.74 2287.39 1520.74 M2287.39 1517.04 Q2293.2 1517.04 2296.25 1521.65 Q2299.33 1526.23 2299.33 1534.98 Q2299.33 1543.71 2296.25 1548.31 Q2293.2 1552.9 2287.39 1552.9 Q2281.58 1552.9 2278.5 1548.31 Q2275.44 1543.71 2275.44 1534.98 Q2275.44 1526.23 2278.5 1521.65 Q2281.58 1517.04 2287.39 1517.04 Z" fill="#000000" fill-rule="evenodd" fill-opacity="1" /><path clip-path="url(#clip690)" d="M2335.72 1526.76 L2325.14 1537.39 L2335.72 1547.97 L2332.97 1550.77 L2322.34 1540.14 L2311.72 1550.77 L2308.98 1547.97 L2319.54 1537.39 L2308.98 1526.76 L2311.72 1523.96 L2322.34 1534.59 L2332.97 1523.96 L2335.72 1526.76 Z" fill="#000000" fill-rule="evenodd" fill-opacity="1" /><path clip-path="url(#clip690)" d="M2348.08 1548.29 L2355.72 1548.29 L2355.72 1521.92 L2347.41 1523.59 L2347.41 1519.33 L2355.67 1517.66 L2360.35 1517.66 L2360.35 1548.29 L2367.99 1548.29 L2367.99 1552.22 L2348.08 1552.22 L2348.08 1548.29 Z" fill="#000000" fill-rule="evenodd" fill-opacity="1" /><path clip-path="url(#clip690)" d="M2387.43 1520.74 Q2383.82 1520.74 2381.99 1524.31 Q2380.19 1527.85 2380.19 1534.98 Q2380.19 1542.09 2381.99 1545.65 Q2383.82 1549.19 2387.43 1549.19 Q2391.07 1549.19 2392.87 1545.65 Q2394.7 1542.09 2394.7 1534.98 Q2394.7 1527.85 2392.87 1524.31 Q2391.07 1520.74 2387.43 1520.74 M2387.43 1517.04 Q2393.24 1517.04 2396.3 1521.65 Q2399.38 1526.23 2399.38 1534.98 Q2399.38 1543.71 2396.3 1548.31 Q2393.24 1552.9 2387.43 1552.9 Q2381.62 1552.9 2378.54 1548.31 Q2375.49 1543.71 2375.49 1534.98 Q2375.49 1526.23 2378.54 1521.65 Q2381.62 1517.04 2387.43 1517.04 Z" fill="#000000" fill-rule="evenodd" fill-opacity="1" /><path clip-path="url(#clip690)" d="M2399.38 1511.14 L2423.49 1511.14 L2423.49 1514.34 L2399.38 1514.34 L2399.38 1511.14 Z" fill="#000000" fill-rule="evenodd" fill-opacity="1" /><path clip-path="url(#clip690)" d="M2432.35 1521.62 L2438.55 1521.62 L2438.55 1500.19 L2431.8 1501.55 L2431.8 1498.09 L2438.52 1496.73 L2442.32 1496.73 L2442.32 1521.62 L2448.52 1521.62 L2448.52 1524.81 L2432.35 1524.81 L2432.35 1521.62 Z" fill="#000000" fill-rule="evenodd" fill-opacity="1" /><path clip-path="url(#clip690)" d="M2456.23 1496.73 L2471.15 1496.73 L2471.15 1499.93 L2459.71 1499.93 L2459.71 1506.82 Q2460.54 1506.53 2461.37 1506.4 Q2462.2 1506.25 2463.02 1506.25 Q2467.72 1506.25 2470.47 1508.83 Q2473.22 1511.4 2473.22 1515.81 Q2473.22 1520.34 2470.4 1522.86 Q2467.57 1525.36 2462.44 1525.36 Q2460.67 1525.36 2458.83 1525.06 Q2457 1524.76 2455.05 1524.16 L2455.05 1520.34 Q2456.74 1521.26 2458.55 1521.71 Q2460.35 1522.16 2462.36 1522.16 Q2465.62 1522.16 2467.52 1520.45 Q2469.42 1518.74 2469.42 1515.81 Q2469.42 1512.87 2467.52 1511.16 Q2465.62 1509.45 2462.36 1509.45 Q2460.84 1509.45 2459.32 1509.79 Q2457.81 1510.13 2456.23 1510.84 L2456.23 1496.73 Z" fill="#000000" fill-rule="evenodd" fill-opacity="1" /><polyline clip-path="url(#clip692)" style="stroke:#000000; stroke-linecap:round; stroke-linejoin:round; stroke-width:2; stroke-opacity:0.1; fill:none" points="
  368.761,1433.78 2352.76,1433.78 
  "/>
<polyline clip-path="url(#clip692)" style="stroke:#000000; stroke-linecap:round; stroke-linejoin:round; stroke-width:2; stroke-opacity:0.1; fill:none" points="
  368.761,1114.82 2352.76,1114.82 
  "/>
<polyline clip-path="url(#clip692)" style="stroke:#000000; stroke-linecap:round; stroke-linejoin:round; stroke-width:2; stroke-opacity:0.1; fill:none" points="
  368.761,795.861 2352.76,795.861 
  "/>
<polyline clip-path="url(#clip692)" style="stroke:#000000; stroke-linecap:round; stroke-linejoin:round; stroke-width:2; stroke-opacity:0.1; fill:none" points="
  368.761,476.902 2352.76,476.902 
  "/>
<polyline clip-path="url(#clip692)" style="stroke:#000000; stroke-linecap:round; stroke-linejoin:round; stroke-width:2; stroke-opacity:0.1; fill:none" points="
  368.761,157.942 2352.76,157.942 
  "/>
<polyline clip-path="url(#clip690)" style="stroke:#000000; stroke-linecap:round; stroke-linejoin:round; stroke-width:4; stroke-opacity:1; fill:none" points="
  368.761,1474.16 368.761,47.2441 
  "/>
<polyline clip-path="url(#clip690)" style="stroke:#000000; stroke-linecap:round; stroke-linejoin:round; stroke-width:4; stroke-opacity:1; fill:none" points="
  368.761,1433.78 387.659,1433.78 
  "/>
<polyline clip-path="url(#clip690)" style="stroke:#000000; stroke-linecap:round; stroke-linejoin:round; stroke-width:4; stroke-opacity:1; fill:none" points="
  368.761,1114.82 387.659,1114.82 
  "/>
<polyline clip-path="url(#clip690)" style="stroke:#000000; stroke-linecap:round; stroke-linejoin:round; stroke-width:4; stroke-opacity:1; fill:none" points="
  368.761,795.861 387.659,795.861 
  "/>
<polyline clip-path="url(#clip690)" style="stroke:#000000; stroke-linecap:round; stroke-linejoin:round; stroke-width:4; stroke-opacity:1; fill:none" points="
  368.761,476.902 387.659,476.902 
  "/>
<polyline clip-path="url(#clip690)" style="stroke:#000000; stroke-linecap:round; stroke-linejoin:round; stroke-width:4; stroke-opacity:1; fill:none" points="
  368.761,157.942 387.659,157.942 
  "/>
<path clip-path="url(#clip690)" d="M51.9325 1440.68 L81.6083 1440.68 L81.6083 1444.61 L51.9325 1444.61 L51.9325 1440.68 Z" fill="#000000" fill-rule="evenodd" fill-opacity="1" /><path clip-path="url(#clip690)" d="M92.511 1453.57 L100.15 1453.57 L100.15 1427.21 L91.8397 1428.87 L91.8397 1424.61 L100.104 1422.95 L104.779 1422.95 L104.779 1453.57 L112.418 1453.57 L112.418 1457.51 L92.511 1457.51 L92.511 1453.57 Z" fill="#000000" fill-rule="evenodd" fill-opacity="1" /><path clip-path="url(#clip690)" d="M121.863 1451.63 L126.747 1451.63 L126.747 1457.51 L121.863 1457.51 L121.863 1451.63 Z" fill="#000000" fill-rule="evenodd" fill-opacity="1" /><path clip-path="url(#clip690)" d="M146.932 1426.03 Q143.321 1426.03 141.492 1429.59 Q139.687 1433.13 139.687 1440.26 Q139.687 1447.37 141.492 1450.93 Q143.321 1454.48 146.932 1454.48 Q150.566 1454.48 152.372 1450.93 Q154.2 1447.37 154.2 1440.26 Q154.2 1433.13 152.372 1429.59 Q150.566 1426.03 146.932 1426.03 M146.932 1422.32 Q152.742 1422.32 155.798 1426.93 Q158.876 1431.51 158.876 1440.26 Q158.876 1448.99 155.798 1453.6 Q152.742 1458.18 146.932 1458.18 Q141.122 1458.18 138.043 1453.6 Q134.988 1448.99 134.988 1440.26 Q134.988 1431.51 138.043 1426.93 Q141.122 1422.32 146.932 1422.32 Z" fill="#000000" fill-rule="evenodd" fill-opacity="1" /><path clip-path="url(#clip690)" d="M195.265 1432.04 L184.686 1442.67 L195.265 1453.25 L192.51 1456.05 L181.886 1445.42 L171.261 1456.05 L168.529 1453.25 L179.085 1442.67 L168.529 1432.04 L171.261 1429.24 L181.886 1439.87 L192.51 1429.24 L195.265 1432.04 Z" fill="#000000" fill-rule="evenodd" fill-opacity="1" /><path clip-path="url(#clip690)" d="M207.626 1453.57 L215.265 1453.57 L215.265 1427.21 L206.955 1428.87 L206.955 1424.61 L215.219 1422.95 L219.895 1422.95 L219.895 1453.57 L227.533 1453.57 L227.533 1457.51 L207.626 1457.51 L207.626 1453.57 Z" fill="#000000" fill-rule="evenodd" fill-opacity="1" /><path clip-path="url(#clip690)" d="M246.978 1426.03 Q243.367 1426.03 241.538 1429.59 Q239.732 1433.13 239.732 1440.26 Q239.732 1447.37 241.538 1450.93 Q243.367 1454.48 246.978 1454.48 Q250.612 1454.48 252.418 1450.93 Q254.246 1447.37 254.246 1440.26 Q254.246 1433.13 252.418 1429.59 Q250.612 1426.03 246.978 1426.03 M246.978 1422.32 Q252.788 1422.32 255.843 1426.93 Q258.922 1431.51 258.922 1440.26 Q258.922 1448.99 255.843 1453.6 Q252.788 1458.18 246.978 1458.18 Q241.168 1458.18 238.089 1453.6 Q235.033 1448.99 235.033 1440.26 Q235.033 1431.51 238.089 1426.93 Q241.168 1422.32 246.978 1422.32 Z" fill="#000000" fill-rule="evenodd" fill-opacity="1" /><path clip-path="url(#clip690)" d="M258.922 1416.42 L283.034 1416.42 L283.034 1419.62 L258.922 1419.62 L258.922 1416.42 Z" fill="#000000" fill-rule="evenodd" fill-opacity="1" /><path clip-path="url(#clip690)" d="M291.892 1426.9 L298.099 1426.9 L298.099 1405.48 L291.347 1406.83 L291.347 1403.37 L298.061 1402.02 L301.86 1402.02 L301.86 1426.9 L308.067 1426.9 L308.067 1430.1 L291.892 1430.1 L291.892 1426.9 Z" fill="#000000" fill-rule="evenodd" fill-opacity="1" /><path clip-path="url(#clip690)" d="M315.778 1402.02 L330.693 1402.02 L330.693 1405.21 L319.257 1405.21 L319.257 1412.1 Q320.085 1411.82 320.913 1411.68 Q321.74 1411.53 322.568 1411.53 Q327.27 1411.53 330.016 1414.11 Q332.761 1416.69 332.761 1421.09 Q332.761 1425.62 329.94 1428.14 Q327.119 1430.64 321.985 1430.64 Q320.217 1430.64 318.374 1430.34 Q316.549 1430.04 314.593 1429.44 L314.593 1425.62 Q316.286 1426.54 318.091 1426.99 Q319.897 1427.45 321.909 1427.45 Q325.163 1427.45 327.063 1425.73 Q328.962 1424.02 328.962 1421.09 Q328.962 1418.15 327.063 1416.44 Q325.163 1414.73 321.909 1414.73 Q320.386 1414.73 318.863 1415.07 Q317.358 1415.41 315.778 1416.12 L315.778 1402.02 Z" fill="#000000" fill-rule="evenodd" fill-opacity="1" /><path clip-path="url(#clip690)" d="M50.9921 1121.72 L80.6679 1121.72 L80.6679 1125.65 L50.9921 1125.65 L50.9921 1121.72 Z" fill="#000000" fill-rule="evenodd" fill-opacity="1" /><path clip-path="url(#clip690)" d="M90.8067 1103.99 L109.163 1103.99 L109.163 1107.92 L95.0891 1107.92 L95.0891 1116.4 Q96.1076 1116.05 97.1261 1115.89 Q98.1447 1115.7 99.1632 1115.7 Q104.95 1115.7 108.33 1118.87 Q111.709 1122.04 111.709 1127.46 Q111.709 1133.04 108.237 1136.14 Q104.765 1139.22 98.4456 1139.22 Q96.2697 1139.22 94.0012 1138.85 Q91.7558 1138.48 89.3484 1137.74 L89.3484 1133.04 Q91.4317 1134.17 93.6539 1134.73 Q95.8761 1135.28 98.353 1135.28 Q102.358 1135.28 104.696 1133.18 Q107.033 1131.07 107.033 1127.46 Q107.033 1123.85 104.696 1121.74 Q102.358 1119.64 98.353 1119.64 Q96.478 1119.64 94.603 1120.05 Q92.7512 1120.47 90.8067 1121.35 L90.8067 1103.99 Z" fill="#000000" fill-rule="evenodd" fill-opacity="1" /><path clip-path="url(#clip690)" d="M120.922 1132.67 L125.807 1132.67 L125.807 1138.55 L120.922 1138.55 L120.922 1132.67 Z" fill="#000000" fill-rule="evenodd" fill-opacity="1" /><path clip-path="url(#clip690)" d="M145.992 1107.07 Q142.381 1107.07 140.552 1110.63 Q138.746 1114.17 138.746 1121.3 Q138.746 1128.41 140.552 1131.97 Q142.381 1135.52 145.992 1135.52 Q149.626 1135.52 151.431 1131.97 Q153.26 1128.41 153.26 1121.3 Q153.26 1114.17 151.431 1110.63 Q149.626 1107.07 145.992 1107.07 M145.992 1103.36 Q151.802 1103.36 154.857 1107.97 Q157.936 1112.55 157.936 1121.3 Q157.936 1130.03 154.857 1134.64 Q151.802 1139.22 145.992 1139.22 Q140.181 1139.22 137.103 1134.64 Q134.047 1130.03 134.047 1121.3 Q134.047 1112.55 137.103 1107.97 Q140.181 1103.36 145.992 1103.36 Z" fill="#000000" fill-rule="evenodd" fill-opacity="1" /><path clip-path="url(#clip690)" d="M194.325 1113.09 L183.746 1123.71 L194.325 1134.29 L191.57 1137.09 L180.945 1126.46 L170.32 1137.09 L167.589 1134.29 L178.144 1123.71 L167.589 1113.09 L170.32 1110.28 L180.945 1120.91 L191.57 1110.28 L194.325 1113.09 Z" fill="#000000" fill-rule="evenodd" fill-opacity="1" /><path clip-path="url(#clip690)" d="M206.686 1134.61 L214.325 1134.61 L214.325 1108.25 L206.014 1109.91 L206.014 1105.65 L214.278 1103.99 L218.954 1103.99 L218.954 1134.61 L226.593 1134.61 L226.593 1138.55 L206.686 1138.55 L206.686 1134.61 Z" fill="#000000" fill-rule="evenodd" fill-opacity="1" /><path clip-path="url(#clip690)" d="M246.037 1107.07 Q242.426 1107.07 240.598 1110.63 Q238.792 1114.17 238.792 1121.3 Q238.792 1128.41 240.598 1131.97 Q242.426 1135.52 246.037 1135.52 Q249.672 1135.52 251.477 1131.97 Q253.306 1128.41 253.306 1121.3 Q253.306 1114.17 251.477 1110.63 Q249.672 1107.07 246.037 1107.07 M246.037 1103.36 Q251.848 1103.36 254.903 1107.97 Q257.982 1112.55 257.982 1121.3 Q257.982 1130.03 254.903 1134.64 Q251.848 1139.22 246.037 1139.22 Q240.227 1139.22 237.149 1134.64 Q234.093 1130.03 234.093 1121.3 Q234.093 1112.55 237.149 1107.97 Q240.227 1103.36 246.037 1103.36 Z" fill="#000000" fill-rule="evenodd" fill-opacity="1" /><path clip-path="url(#clip690)" d="M257.982 1097.46 L282.093 1097.46 L282.093 1100.66 L257.982 1100.66 L257.982 1097.46 Z" fill="#000000" fill-rule="evenodd" fill-opacity="1" /><path clip-path="url(#clip690)" d="M290.952 1107.94 L297.158 1107.94 L297.158 1086.52 L290.406 1087.87 L290.406 1084.41 L297.121 1083.06 L300.92 1083.06 L300.92 1107.94 L307.126 1107.94 L307.126 1111.14 L290.952 1111.14 L290.952 1107.94 Z" fill="#000000" fill-rule="evenodd" fill-opacity="1" /><path clip-path="url(#clip690)" d="M323.395 1095.58 Q320.837 1095.58 319.333 1097.33 Q317.847 1099.08 317.847 1102.13 Q317.847 1105.16 319.333 1106.92 Q320.837 1108.67 323.395 1108.67 Q325.953 1108.67 327.439 1106.92 Q328.943 1105.16 328.943 1102.13 Q328.943 1099.08 327.439 1097.33 Q325.953 1095.58 323.395 1095.58 M330.937 1083.68 L330.937 1087.14 Q329.508 1086.46 328.041 1086.1 Q326.593 1085.75 325.163 1085.75 Q321.402 1085.75 319.408 1088.29 Q317.433 1090.83 317.151 1095.96 Q318.261 1094.32 319.935 1093.46 Q321.608 1092.57 323.621 1092.57 Q327.853 1092.57 330.298 1095.15 Q332.761 1097.71 332.761 1102.13 Q332.761 1106.45 330.204 1109.07 Q327.646 1111.68 323.395 1111.68 Q318.524 1111.68 315.947 1107.96 Q313.371 1104.22 313.371 1097.13 Q313.371 1090.47 316.53 1086.52 Q319.69 1082.55 325.013 1082.55 Q326.442 1082.55 327.89 1082.83 Q329.357 1083.11 330.937 1083.68 Z" fill="#000000" fill-rule="evenodd" fill-opacity="1" /><path clip-path="url(#clip690)" d="M320.817 781.66 Q317.206 781.66 315.377 785.225 Q313.572 788.766 313.572 795.896 Q313.572 803.002 315.377 806.567 Q317.206 810.109 320.817 810.109 Q324.451 810.109 326.257 806.567 Q328.086 803.002 328.086 795.896 Q328.086 788.766 326.257 785.225 Q324.451 781.66 320.817 781.66 M320.817 777.956 Q326.627 777.956 329.683 782.563 Q332.761 787.146 332.761 795.896 Q332.761 804.623 329.683 809.229 Q326.627 813.812 320.817 813.812 Q315.007 813.812 311.928 809.229 Q308.873 804.623 308.873 795.896 Q308.873 787.146 311.928 782.563 Q315.007 777.956 320.817 777.956 Z" fill="#000000" fill-rule="evenodd" fill-opacity="1" /><path clip-path="url(#clip690)" d="M90.8067 466.069 L109.163 466.069 L109.163 470.004 L95.0891 470.004 L95.0891 478.476 Q96.1076 478.129 97.1261 477.967 Q98.1447 477.782 99.1632 477.782 Q104.95 477.782 108.33 480.953 Q111.709 484.125 111.709 489.541 Q111.709 495.12 108.237 498.222 Q104.765 501.3 98.4456 501.3 Q96.2697 501.3 94.0012 500.93 Q91.7558 500.56 89.3484 499.819 L89.3484 495.12 Q91.4317 496.254 93.6539 496.81 Q95.8761 497.365 98.353 497.365 Q102.358 497.365 104.696 495.259 Q107.033 493.152 107.033 489.541 Q107.033 485.93 104.696 483.824 Q102.358 481.717 98.353 481.717 Q96.478 481.717 94.603 482.134 Q92.7512 482.551 90.8067 483.43 L90.8067 466.069 Z" fill="#000000" fill-rule="evenodd" fill-opacity="1" /><path clip-path="url(#clip690)" d="M120.922 494.75 L125.807 494.75 L125.807 500.629 L120.922 500.629 L120.922 494.75 Z" fill="#000000" fill-rule="evenodd" fill-opacity="1" /><path clip-path="url(#clip690)" d="M145.992 469.148 Q142.381 469.148 140.552 472.713 Q138.746 476.254 138.746 483.384 Q138.746 490.49 140.552 494.055 Q142.381 497.597 145.992 497.597 Q149.626 497.597 151.431 494.055 Q153.26 490.49 153.26 483.384 Q153.26 476.254 151.431 472.713 Q149.626 469.148 145.992 469.148 M145.992 465.444 Q151.802 465.444 154.857 470.051 Q157.936 474.634 157.936 483.384 Q157.936 492.111 154.857 496.717 Q151.802 501.3 145.992 501.3 Q140.181 501.3 137.103 496.717 Q134.047 492.111 134.047 483.384 Q134.047 474.634 137.103 470.051 Q140.181 465.444 145.992 465.444 Z" fill="#000000" fill-rule="evenodd" fill-opacity="1" /><path clip-path="url(#clip690)" d="M194.325 475.166 L183.746 485.791 L194.325 496.37 L191.57 499.171 L180.945 488.546 L170.32 499.171 L167.589 496.37 L178.144 485.791 L167.589 475.166 L170.32 472.365 L180.945 482.99 L191.57 472.365 L194.325 475.166 Z" fill="#000000" fill-rule="evenodd" fill-opacity="1" /><path clip-path="url(#clip690)" d="M206.686 496.694 L214.325 496.694 L214.325 470.328 L206.014 471.995 L206.014 467.736 L214.278 466.069 L218.954 466.069 L218.954 496.694 L226.593 496.694 L226.593 500.629 L206.686 500.629 L206.686 496.694 Z" fill="#000000" fill-rule="evenodd" fill-opacity="1" /><path clip-path="url(#clip690)" d="M246.037 469.148 Q242.426 469.148 240.598 472.713 Q238.792 476.254 238.792 483.384 Q238.792 490.49 240.598 494.055 Q242.426 497.597 246.037 497.597 Q249.672 497.597 251.477 494.055 Q253.306 490.49 253.306 483.384 Q253.306 476.254 251.477 472.713 Q249.672 469.148 246.037 469.148 M246.037 465.444 Q251.848 465.444 254.903 470.051 Q257.982 474.634 257.982 483.384 Q257.982 492.111 254.903 496.717 Q251.848 501.3 246.037 501.3 Q240.227 501.3 237.149 496.717 Q234.093 492.111 234.093 483.384 Q234.093 474.634 237.149 470.051 Q240.227 465.444 246.037 465.444 Z" fill="#000000" fill-rule="evenodd" fill-opacity="1" /><path clip-path="url(#clip690)" d="M257.982 459.545 L282.093 459.545 L282.093 462.743 L257.982 462.743 L257.982 459.545 Z" fill="#000000" fill-rule="evenodd" fill-opacity="1" /><path clip-path="url(#clip690)" d="M290.952 470.021 L297.158 470.021 L297.158 448.599 L290.406 449.954 L290.406 446.493 L297.121 445.139 L300.92 445.139 L300.92 470.021 L307.126 470.021 L307.126 473.219 L290.952 473.219 L290.952 470.021 Z" fill="#000000" fill-rule="evenodd" fill-opacity="1" /><path clip-path="url(#clip690)" d="M323.395 457.665 Q320.837 457.665 319.333 459.414 Q317.847 461.163 317.847 464.21 Q317.847 467.238 319.333 469.006 Q320.837 470.755 323.395 470.755 Q325.953 470.755 327.439 469.006 Q328.943 467.238 328.943 464.21 Q328.943 461.163 327.439 459.414 Q325.953 457.665 323.395 457.665 M330.937 445.759 L330.937 449.22 Q329.508 448.543 328.041 448.186 Q326.593 447.828 325.163 447.828 Q321.402 447.828 319.408 450.367 Q317.433 452.906 317.151 458.041 Q318.261 456.405 319.935 455.539 Q321.608 454.655 323.621 454.655 Q327.853 454.655 330.298 457.232 Q332.761 459.79 332.761 464.21 Q332.761 468.536 330.204 471.15 Q327.646 473.764 323.395 473.764 Q318.524 473.764 315.947 470.04 Q313.371 466.297 313.371 459.207 Q313.371 452.549 316.53 448.599 Q319.69 444.631 325.013 444.631 Q326.442 444.631 327.89 444.913 Q329.357 445.195 330.937 445.759 Z" fill="#000000" fill-rule="evenodd" fill-opacity="1" /><path clip-path="url(#clip690)" d="M92.511 177.734 L100.15 177.734 L100.15 151.369 L91.8397 153.036 L91.8397 148.776 L100.104 147.11 L104.779 147.11 L104.779 177.734 L112.418 177.734 L112.418 181.67 L92.511 181.67 L92.511 177.734 Z" fill="#000000" fill-rule="evenodd" fill-opacity="1" /><path clip-path="url(#clip690)" d="M121.863 175.79 L126.747 175.79 L126.747 181.67 L121.863 181.67 L121.863 175.79 Z" fill="#000000" fill-rule="evenodd" fill-opacity="1" /><path clip-path="url(#clip690)" d="M146.932 150.188 Q143.321 150.188 141.492 153.753 Q139.687 157.295 139.687 164.424 Q139.687 171.531 141.492 175.096 Q143.321 178.637 146.932 178.637 Q150.566 178.637 152.372 175.096 Q154.2 171.531 154.2 164.424 Q154.2 157.295 152.372 153.753 Q150.566 150.188 146.932 150.188 M146.932 146.485 Q152.742 146.485 155.798 151.091 Q158.876 155.674 158.876 164.424 Q158.876 173.151 155.798 177.758 Q152.742 182.341 146.932 182.341 Q141.122 182.341 138.043 177.758 Q134.988 173.151 134.988 164.424 Q134.988 155.674 138.043 151.091 Q141.122 146.485 146.932 146.485 Z" fill="#000000" fill-rule="evenodd" fill-opacity="1" /><path clip-path="url(#clip690)" d="M195.265 156.207 L184.686 166.832 L195.265 177.41 L192.51 180.211 L181.886 169.586 L171.261 180.211 L168.529 177.41 L179.085 166.832 L168.529 156.207 L171.261 153.406 L181.886 164.031 L192.51 153.406 L195.265 156.207 Z" fill="#000000" fill-rule="evenodd" fill-opacity="1" /><path clip-path="url(#clip690)" d="M207.626 177.734 L215.265 177.734 L215.265 151.369 L206.955 153.036 L206.955 148.776 L215.219 147.11 L219.895 147.11 L219.895 177.734 L227.533 177.734 L227.533 181.67 L207.626 181.67 L207.626 177.734 Z" fill="#000000" fill-rule="evenodd" fill-opacity="1" /><path clip-path="url(#clip690)" d="M246.978 150.188 Q243.367 150.188 241.538 153.753 Q239.732 157.295 239.732 164.424 Q239.732 171.531 241.538 175.096 Q243.367 178.637 246.978 178.637 Q250.612 178.637 252.418 175.096 Q254.246 171.531 254.246 164.424 Q254.246 157.295 252.418 153.753 Q250.612 150.188 246.978 150.188 M246.978 146.485 Q252.788 146.485 255.843 151.091 Q258.922 155.674 258.922 164.424 Q258.922 173.151 255.843 177.758 Q252.788 182.341 246.978 182.341 Q241.168 182.341 238.089 177.758 Q235.033 173.151 235.033 164.424 Q235.033 155.674 238.089 151.091 Q241.168 146.485 246.978 146.485 Z" fill="#000000" fill-rule="evenodd" fill-opacity="1" /><path clip-path="url(#clip690)" d="M258.922 140.586 L283.034 140.586 L283.034 143.783 L258.922 143.783 L258.922 140.586 Z" fill="#000000" fill-rule="evenodd" fill-opacity="1" /><path clip-path="url(#clip690)" d="M291.892 151.062 L298.099 151.062 L298.099 129.64 L291.347 130.994 L291.347 127.533 L298.061 126.179 L301.86 126.179 L301.86 151.062 L308.067 151.062 L308.067 154.259 L291.892 154.259 L291.892 151.062 Z" fill="#000000" fill-rule="evenodd" fill-opacity="1" /><path clip-path="url(#clip690)" d="M315.778 126.179 L330.693 126.179 L330.693 129.377 L319.257 129.377 L319.257 136.26 Q320.085 135.978 320.913 135.846 Q321.74 135.696 322.568 135.696 Q327.27 135.696 330.016 138.273 Q332.761 140.849 332.761 145.25 Q332.761 149.783 329.94 152.303 Q327.119 154.805 321.985 154.805 Q320.217 154.805 318.374 154.504 Q316.549 154.203 314.593 153.601 L314.593 149.783 Q316.286 150.705 318.091 151.156 Q319.897 151.607 321.909 151.607 Q325.163 151.607 327.063 149.896 Q328.962 148.184 328.962 145.25 Q328.962 142.316 327.063 140.605 Q325.163 138.893 321.909 138.893 Q320.386 138.893 318.863 139.232 Q317.358 139.57 315.778 140.285 L315.778 126.179 Z" fill="#000000" fill-rule="evenodd" fill-opacity="1" /><polyline clip-path="url(#clip692)" style="stroke:#009af9; stroke-linecap:round; stroke-linejoin:round; stroke-width:16; stroke-opacity:1; fill:none" points="
  368.761,1433.27 371.991,1433.27 375.22,1433.27 378.449,1433.27 381.678,1433.27 389.143,1433.27 396.608,1433.27 404.072,1433.27 411.537,1433.27 415.27,1433.27 
  419.002,1433.27 420.868,1433.27 422.734,1433.27 423.667,1433.27 424.6,1433.27 425.533,1362.45 426.467,1362.45 427.4,1362.45 428.333,1362.45 429.266,1362.45 
  430.199,1362.45 432.065,1362.45 433.931,1362.45 437.664,1362.45 441.396,1362.45 456.325,1362.45 471.255,1362.45 486.184,1362.45 501.114,1362.45 510.086,1362.45 
  519.058,1362.45 523.543,1362.45 528.029,1362.45 529.151,1362.45 530.272,1362.45 531.394,1362.45 532.515,1362.45 533.076,1362.45 533.637,1362.45 534.198,1362.45 
  534.758,1291.62 535.319,1291.62 535.88,1291.62 536.441,1291.62 537.001,1291.62 539.244,1291.62 541.487,1291.62 543.73,1291.62 545.973,1291.62 550.459,1291.62 
  554.945,1291.62 563.917,1291.62 572.889,1291.62 588.061,1291.62 603.232,1291.62 610.818,1291.62 618.403,1291.62 625.989,1291.62 633.575,1291.62 635.635,1291.62 
  637.695,1291.62 639.755,1291.62 641.815,1291.62 642.33,1291.62 642.845,1291.62 643.36,1291.62 643.875,1291.62 644.39,1291.62 644.905,1220.8 645.42,1220.8 
  645.935,1220.8 646.965,1220.8 647.995,1220.8 649.025,1220.8 650.055,1220.8 654.175,1220.8 658.295,1220.8 662.415,1220.8 666.535,1220.8 683.016,1220.8 
  699.496,1220.8 714.689,1220.8 729.883,1220.8 737.479,1220.8 745.076,1220.8 746.975,1220.8 748.875,1220.8 750.774,1220.8 752.673,1220.8 753.148,1220.8 
  753.622,1220.8 754.097,1220.8 754.572,1220.8 755.047,1149.98 755.522,1149.98 755.996,1149.98 756.471,1149.98 757.421,1149.98 758.37,1149.98 759.32,1149.98 
  760.27,1149.98 762.306,1149.98 764.342,1149.98 766.378,1149.98 768.414,1149.98 772.486,1149.98 776.559,1149.98 784.703,1149.98 792.847,1149.98 809.136,1149.98 
  825.425,1149.98 834.861,1149.98 844.298,1149.98 849.016,1149.98 853.734,1149.98 856.093,1149.98 858.452,1149.98 859.631,1149.98 860.811,1149.98 861.99,1149.98 
  863.17,1149.98 863.76,1149.98 864.35,1149.98 864.939,1149.98 865.529,1079.15 866.119,1079.15 866.709,1079.15 867.298,1079.15 867.888,1079.15 870.247,1079.15 
  872.606,1079.15 877.324,1079.15 882.042,1079.15 891.478,1079.15 900.915,1079.15 917.686,1079.15 934.458,1079.15 942.843,1079.15 951.229,1079.15 955.422,1079.15 
  959.615,1079.15 963.808,1079.15 968.001,1079.15 969.839,1079.15 971.677,1079.15 972.597,1079.15 973.516,1079.15 973.975,1079.15 974.435,1079.15 974.895,1079.15 
  975.354,1008.33 975.814,1008.33 976.273,1008.33 976.733,1008.33 977.193,1008.33 978.112,1008.33 979.031,1008.33 980.869,1008.33 982.708,1008.33 990.061,1008.33 
  997.415,1008.33 1012.12,1008.33 1026.83,1008.33 1042.86,1008.33 1058.9,1008.33 1066.92,1008.33 1074.93,1008.33 1076.94,1008.33 1078.94,1008.33 1080.95,1008.33 
  1082.95,1008.33 1083.45,1008.33 1083.95,1008.33 1084.45,1008.33 1084.95,1008.33 1085.46,937.508 1085.96,937.508 1086.46,937.508 1086.96,937.508 1087.96,937.508 
  1088.96,937.508 1089.97,937.508 1090.97,937.508 1099.03,937.508 1107.1,937.508 1115.16,937.508 1123.23,937.508 1139.36,937.508 1155.49,937.508 1164.4,937.508 
  1173.32,937.508 1177.78,937.508 1182.24,937.508 1184.47,937.508 1186.7,937.508 1188.93,937.508 1191.16,937.508 1192.27,937.508 1193.38,937.508 1193.94,937.508 
  1194.5,937.508 1195.06,937.508 1195.61,866.684 1196.17,866.684 1196.73,866.684 1197.29,866.684 1197.84,866.684 1198.96,866.684 1200.07,866.684 1204.53,866.684 
  1208.99,866.684 1217.91,866.684 1226.82,866.684 1243.79,866.684 1260.76,866.684 1277.73,866.684 1294.7,866.684 1296.9,866.684 1299.11,866.684 1300.21,866.684 
  1301.31,866.684 1302.42,866.684 1303.52,866.684 1304.07,866.684 1304.62,866.684 1305.17,866.684 1305.72,795.861 1306.27,795.861 1306.83,795.861 1307.38,795.861 
  1307.93,795.861 1310.13,795.861 1312.34,795.861 1316.75,795.861 1321.16,795.861 1325.57,795.861 1329.98,795.861 1347.63,795.861 1365.27,795.861 1394.97,795.861 
  1424.68,795.861 1442.81,795.861 1460.94,795.861 1463.21,795.861 1465.47,795.861 1466.61,795.861 1467.74,795.861 1468.31,795.861 1468.87,795.861 1469.44,795.861 
  1470.01,795.861 1470.57,795.861 1471.14,654.215 1471.71,654.215 1472.27,654.215 1473.41,654.215 1474.54,654.215 1476.81,654.215 1479.07,654.215 1483.61,654.215 
  1488.14,654.215 1492.67,654.215 1497.21,654.215 1530.43,654.215 1563.65,654.215 1594.33,654.215 1625.01,654.215 1640.55,654.215 1656.09,654.215 1663.86,654.215 
  1671.63,654.215 1679.4,654.215 1687.17,654.215 1688.26,654.215 1689.35,654.215 1689.89,654.215 1690.44,654.215 1690.98,654.215 1691.52,512.568 1692.07,512.568 
  1692.61,512.568 1693.16,512.568 1693.7,512.568 1694.79,512.568 1695.88,512.568 1700.23,512.568 1704.59,512.568 1713.29,512.568 1722,512.568 1739.42,512.568 
  1756.83,512.568 1788.4,512.568 1819.96,512.568 1856.1,512.568 1892.24,512.568 1896.42,512.568 1900.6,512.568 1902.69,512.568 1904.78,512.568 1906.87,512.568 
  1908.97,512.568 1909.49,512.568 1910.01,512.568 1910.53,512.568 1911.06,512.568 1911.58,370.922 1912.1,370.922 1912.63,370.922 1913.15,370.922 1914.19,370.922 
  1915.24,370.922 1916.29,370.922 1917.33,370.922 1921.51,370.922 1925.7,370.922 1934.06,370.922 1942.43,370.922 1950.79,370.922 1959.16,370.922 1992.14,370.922 
  2025.13,370.922 2057.16,370.922 2089.19,370.922 2105.61,370.922 2122.02,370.922 2124.08,370.922 2126.13,370.922 2127.15,370.922 2128.18,370.922 2129.21,370.922 
  2130.23,370.922 2130.74,370.922 2131.26,370.922 2131.77,229.275 2132.28,229.275 2132.8,229.275 2133.31,229.275 2133.82,229.275 2134.34,229.275 2136.39,229.275 
  2138.44,229.275 2142.54,229.275 2146.65,229.275 2150.75,229.275 2154.86,229.275 2190.83,229.275 2226.8,229.275 2279.06,229.275 2331.31,229.275 2342.04,229.275 
  2352.76,87.6286 
  "/>
<polyline clip-path="url(#clip692)" style="stroke:#e26f46; stroke-linecap:round; stroke-linejoin:round; stroke-width:16; stroke-opacity:1; fill:none" points="
  368.761,1433.78 381.678,1425.47 501.114,1348.67 572.889,1302.51 633.575,1263.49 699.496,1221.1 760.27,1182.01 825.425,1140.12 900.915,1091.57 968.001,1048.43 
  1026.83,1010.6 1090.97,969.354 1155.49,927.864 1226.82,881.991 1294.7,838.344 1365.27,792.961 1424.68,754.758 1497.21,708.117 1563.65,665.391 1625.01,625.93 
  1687.17,585.957 1756.83,541.159 1819.96,500.564 1892.24,454.086 1959.16,411.052 2025.13,368.625 2089.19,327.432 2154.86,285.204 2226.8,238.939 2331.31,171.73 
  2352.76,157.942 
  "/>
<path clip-path="url(#clip690)" d="
M2013.75 250.328 L2286.62 250.328 L2286.62 94.8081 L2013.75 94.8081  Z
  " fill="#ffffff" fill-rule="evenodd" fill-opacity="1"/>
<polyline clip-path="url(#clip690)" style="stroke:#000000; stroke-linecap:round; stroke-linejoin:round; stroke-width:4; stroke-opacity:1; fill:none" points="
  2013.75,250.328 2286.62,250.328 2286.62,94.8081 2013.75,94.8081 2013.75,250.328 
  "/>
<polyline clip-path="url(#clip690)" style="stroke:#009af9; stroke-linecap:round; stroke-linejoin:round; stroke-width:4; stroke-opacity:1; fill:none" points="
  2035.79,146.648 2168.06,146.648 
  "/>
<path clip-path="url(#clip690)" d="M2203.95 166.336 Q2202.14 170.965 2200.43 172.377 Q2198.71 173.789 2195.84 173.789 L2192.44 173.789 L2192.44 170.224 L2194.94 170.224 Q2196.7 170.224 2197.67 169.391 Q2198.65 168.558 2199.83 165.456 L2200.59 163.511 L2190.1 138.002 L2194.62 138.002 L2202.72 158.28 L2210.82 138.002 L2215.34 138.002 L2203.95 166.336 Z" fill="#000000" fill-rule="evenodd" fill-opacity="1" /><path clip-path="url(#clip690)" d="M2222.63 159.993 L2230.27 159.993 L2230.27 133.627 L2221.96 135.294 L2221.96 131.035 L2230.22 129.368 L2234.9 129.368 L2234.9 159.993 L2242.53 159.993 L2242.53 163.928 L2222.63 163.928 L2222.63 159.993 Z" fill="#000000" fill-rule="evenodd" fill-opacity="1" /><polyline clip-path="url(#clip690)" style="stroke:#e26f46; stroke-linecap:round; stroke-linejoin:round; stroke-width:4; stroke-opacity:1; fill:none" points="
  2035.79,198.488 2168.06,198.488 
  "/>
<path clip-path="url(#clip690)" d="M2203.95 218.176 Q2202.14 222.805 2200.43 224.217 Q2198.71 225.629 2195.84 225.629 L2192.44 225.629 L2192.44 222.064 L2194.94 222.064 Q2196.7 222.064 2197.67 221.231 Q2198.65 220.398 2199.83 217.296 L2200.59 215.351 L2190.1 189.842 L2194.62 189.842 L2202.72 210.12 L2210.82 189.842 L2215.34 189.842 L2203.95 218.176 Z" fill="#000000" fill-rule="evenodd" fill-opacity="1" /><path clip-path="url(#clip690)" d="M2225.84 211.833 L2242.16 211.833 L2242.16 215.768 L2220.22 215.768 L2220.22 211.833 Q2222.88 209.078 2227.46 204.449 Q2232.07 199.796 2233.25 198.453 Q2235.5 195.93 2236.38 194.194 Q2237.28 192.435 2237.28 190.745 Q2237.28 187.99 2235.33 186.254 Q2233.41 184.518 2230.31 184.518 Q2228.11 184.518 2225.66 185.282 Q2223.23 186.046 2220.45 187.597 L2220.45 182.875 Q2223.27 181.741 2225.73 181.162 Q2228.18 180.583 2230.22 180.583 Q2235.59 180.583 2238.78 183.268 Q2241.98 185.953 2241.98 190.444 Q2241.98 192.574 2241.17 194.495 Q2240.38 196.393 2238.27 198.986 Q2237.7 199.657 2234.59 202.875 Q2231.49 206.069 2225.84 211.833 Z" fill="#000000" fill-rule="evenodd" fill-opacity="1" /></svg>
