<?xml version="1.0" encoding="utf-8"?>
<svg xmlns="http://www.w3.org/2000/svg" xmlns:xlink="http://www.w3.org/1999/xlink" width="600" height="400" viewBox="0 0 2400 1600">
<defs>
  <clipPath id="clip380">
    <rect x="0" y="0" width="2400" height="1600"/>
  </clipPath>
</defs>
<path clip-path="url(#clip380)" d="
M0 1600 L2400 1600 L2400 0 L0 0  Z
  " fill="#ffffff" fill-rule="evenodd" fill-opacity="1"/>
<defs>
  <clipPath id="clip381">
    <rect x="480" y="0" width="1681" height="1600"/>
  </clipPath>
</defs>
<path clip-path="url(#clip380)" d="
M193.936 1486.45 L2352.76 1486.45 L2352.76 47.2441 L193.936 47.2441  Z
  " fill="#ffffff" fill-rule="evenodd" fill-opacity="1"/>
<defs>
  <clipPath id="clip382">
    <rect x="193" y="47" width="2160" height="1440"/>
  </clipPath>
</defs>
<polyline clip-path="url(#clip382)" style="stroke:#000000; stroke-linecap:round; stroke-linejoin:round; stroke-width:2; stroke-opacity:0.1; fill:none" points="
  458.697,1486.45 458.697,47.2441 
  "/>
<polyline clip-path="url(#clip382)" style="stroke:#000000; stroke-linecap:round; stroke-linejoin:round; stroke-width:2; stroke-opacity:0.1; fill:none" points="
  866.021,1486.45 866.021,47.2441 
  "/>
<polyline clip-path="url(#clip382)" style="stroke:#000000; stroke-linecap:round; stroke-linejoin:round; stroke-width:2; stroke-opacity:0.1; fill:none" points="
  1273.35,1486.45 1273.35,47.2441 
  "/>
<polyline clip-path="url(#clip382)" style="stroke:#000000; stroke-linecap:round; stroke-linejoin:round; stroke-width:2; stroke-opacity:0.1; fill:none" points="
  1680.67,1486.45 1680.67,47.2441 
  "/>
<polyline clip-path="url(#clip382)" style="stroke:#000000; stroke-linecap:round; stroke-linejoin:round; stroke-width:2; stroke-opacity:0.1; fill:none" points="
  2087.99,1486.45 2087.99,47.2441 
  "/>
<polyline clip-path="url(#clip380)" style="stroke:#000000; stroke-linecap:round; stroke-linejoin:round; stroke-width:4; stroke-opacity:1; fill:none" points="
  193.936,1486.45 2352.76,1486.45 
  "/>
<polyline clip-path="url(#clip380)" style="stroke:#000000; stroke-linecap:round; stroke-linejoin:round; stroke-width:4; stroke-opacity:1; fill:none" points="
  458.697,1486.45 458.697,1467.55 
  "/>
<polyline clip-path="url(#clip380)" style="stroke:#000000; stroke-linecap:round; stroke-linejoin:round; stroke-width:4; stroke-opacity:1; fill:none" points="
  866.021,1486.45 866.021,1467.55 
  "/>
<polyline clip-path="url(#clip380)" style="stroke:#000000; stroke-linecap:round; stroke-linejoin:round; stroke-width:4; stroke-opacity:1; fill:none" points="
  1273.35,1486.45 1273.35,1467.55 
  "/>
<polyline clip-path="url(#clip380)" style="stroke:#000000; stroke-linecap:round; stroke-linejoin:round; stroke-width:4; stroke-opacity:1; fill:none" points="
  1680.67,1486.45 1680.67,1467.55 
  "/>
<polyline clip-path="url(#clip380)" style="stroke:#000000; stroke-linecap:round; stroke-linejoin:round; stroke-width:4; stroke-opacity:1; fill:none" points="
  2087.99,1486.45 2087.99,1467.55 
  "/>
<path clip-path="url(#clip380)" d="M427.598 1532.02 L457.273 1532.02 L457.273 1535.95 L427.598 1535.95 L427.598 1532.02 Z" fill="#000000" fill-rule="evenodd" fill-opacity="1" /><path clip-path="url(#clip380)" d="M480.213 1518.36 L468.408 1536.81 L480.213 1536.81 L480.213 1518.36 M478.986 1514.29 L484.866 1514.29 L484.866 1536.81 L489.796 1536.81 L489.796 1540.7 L484.866 1540.7 L484.866 1548.85 L480.213 1548.85 L480.213 1540.7 L464.611 1540.7 L464.611 1536.19 L478.986 1514.29 Z" fill="#000000" fill-rule="evenodd" fill-opacity="1" /><path clip-path="url(#clip380)" d="M835.964 1532.02 L865.639 1532.02 L865.639 1535.95 L835.964 1535.95 L835.964 1532.02 Z" fill="#000000" fill-rule="evenodd" fill-opacity="1" /><path clip-path="url(#clip380)" d="M879.76 1544.91 L896.079 1544.91 L896.079 1548.85 L874.135 1548.85 L874.135 1544.91 Q876.797 1542.16 881.38 1537.53 Q885.987 1532.88 887.167 1531.53 Q889.413 1529.01 890.292 1527.27 Q891.195 1525.51 891.195 1523.82 Q891.195 1521.07 889.25 1519.33 Q887.329 1517.6 884.227 1517.6 Q882.028 1517.6 879.575 1518.36 Q877.144 1519.13 874.366 1520.68 L874.366 1515.95 Q877.19 1514.82 879.644 1514.24 Q882.098 1513.66 884.135 1513.66 Q889.505 1513.66 892.7 1516.35 Q895.894 1519.03 895.894 1523.52 Q895.894 1525.65 895.084 1527.57 Q894.297 1529.47 892.19 1532.07 Q891.612 1532.74 888.51 1535.95 Q885.408 1539.15 879.76 1544.91 Z" fill="#000000" fill-rule="evenodd" fill-opacity="1" /><path clip-path="url(#clip380)" d="M1273.35 1517.37 Q1269.73 1517.37 1267.91 1520.93 Q1266.1 1524.47 1266.1 1531.6 Q1266.1 1538.71 1267.91 1542.27 Q1269.73 1545.82 1273.35 1545.82 Q1276.98 1545.82 1278.79 1542.27 Q1280.61 1538.71 1280.61 1531.6 Q1280.61 1524.47 1278.79 1520.93 Q1276.98 1517.37 1273.35 1517.37 M1273.35 1513.66 Q1279.16 1513.66 1282.21 1518.27 Q1285.29 1522.85 1285.29 1531.6 Q1285.29 1540.33 1282.21 1544.94 Q1279.16 1549.52 1273.35 1549.52 Q1267.54 1549.52 1264.46 1544.94 Q1261.4 1540.33 1261.4 1531.6 Q1261.4 1522.85 1264.46 1518.27 Q1267.54 1513.66 1273.35 1513.66 Z" fill="#000000" fill-rule="evenodd" fill-opacity="1" /><path clip-path="url(#clip380)" d="M1675.32 1544.91 L1691.64 1544.91 L1691.64 1548.85 L1669.7 1548.85 L1669.7 1544.91 Q1672.36 1542.16 1676.94 1537.53 Q1681.55 1532.88 1682.73 1531.53 Q1684.98 1529.01 1685.86 1527.27 Q1686.76 1525.51 1686.76 1523.82 Q1686.76 1521.07 1684.81 1519.33 Q1682.89 1517.6 1679.79 1517.6 Q1677.59 1517.6 1675.14 1518.36 Q1672.71 1519.13 1669.93 1520.68 L1669.93 1515.95 Q1672.75 1514.82 1675.21 1514.24 Q1677.66 1513.66 1679.7 1513.66 Q1685.07 1513.66 1688.26 1516.35 Q1691.46 1519.03 1691.46 1523.52 Q1691.46 1525.65 1690.65 1527.57 Q1689.86 1529.47 1687.75 1532.07 Q1687.18 1532.74 1684.07 1535.95 Q1680.97 1539.15 1675.32 1544.91 Z" fill="#000000" fill-rule="evenodd" fill-opacity="1" /><path clip-path="url(#clip380)" d="M2091 1518.36 L2079.2 1536.81 L2091 1536.81 L2091 1518.36 M2089.78 1514.29 L2095.66 1514.29 L2095.66 1536.81 L2100.59 1536.81 L2100.59 1540.7 L2095.66 1540.7 L2095.66 1548.85 L2091 1548.85 L2091 1540.7 L2075.4 1540.7 L2075.4 1536.19 L2089.78 1514.29 Z" fill="#000000" fill-rule="evenodd" fill-opacity="1" /><polyline clip-path="url(#clip382)" style="stroke:#000000; stroke-linecap:round; stroke-linejoin:round; stroke-width:2; stroke-opacity:0.1; fill:none" points="
  193.936,1486.45 2352.76,1486.45 
  "/>
<polyline clip-path="url(#clip382)" style="stroke:#000000; stroke-linecap:round; stroke-linejoin:round; stroke-width:2; stroke-opacity:0.1; fill:none" points="
  193.936,1126.65 2352.76,1126.65 
  "/>
<polyline clip-path="url(#clip382)" style="stroke:#000000; stroke-linecap:round; stroke-linejoin:round; stroke-width:2; stroke-opacity:0.1; fill:none" points="
  193.936,766.846 2352.76,766.846 
  "/>
<polyline clip-path="url(#clip382)" style="stroke:#000000; stroke-linecap:round; stroke-linejoin:round; stroke-width:2; stroke-opacity:0.1; fill:none" points="
  193.936,407.045 2352.76,407.045 
  "/>
<polyline clip-path="url(#clip382)" style="stroke:#000000; stroke-linecap:round; stroke-linejoin:round; stroke-width:2; stroke-opacity:0.1; fill:none" points="
  193.936,47.2441 2352.76,47.2441 
  "/>
<polyline clip-path="url(#clip380)" style="stroke:#000000; stroke-linecap:round; stroke-linejoin:round; stroke-width:4; stroke-opacity:1; fill:none" points="
  193.936,1486.45 193.936,47.2441 
  "/>
<polyline clip-path="url(#clip380)" style="stroke:#000000; stroke-linecap:round; stroke-linejoin:round; stroke-width:4; stroke-opacity:1; fill:none" points="
  193.936,1486.45 212.834,1486.45 
  "/>
<polyline clip-path="url(#clip380)" style="stroke:#000000; stroke-linecap:round; stroke-linejoin:round; stroke-width:4; stroke-opacity:1; fill:none" points="
  193.936,1126.65 212.834,1126.65 
  "/>
<polyline clip-path="url(#clip380)" style="stroke:#000000; stroke-linecap:round; stroke-linejoin:round; stroke-width:4; stroke-opacity:1; fill:none" points="
  193.936,766.846 212.834,766.846 
  "/>
<polyline clip-path="url(#clip380)" style="stroke:#000000; stroke-linecap:round; stroke-linejoin:round; stroke-width:4; stroke-opacity:1; fill:none" points="
  193.936,407.045 212.834,407.045 
  "/>
<polyline clip-path="url(#clip380)" style="stroke:#000000; stroke-linecap:round; stroke-linejoin:round; stroke-width:4; stroke-opacity:1; fill:none" points="
  193.936,47.2441 212.834,47.2441 
  "/>
<path clip-path="url(#clip380)" d="M50.9921 1486.9 L80.6679 1486.9 L80.6679 1490.83 L50.9921 1490.83 L50.9921 1486.9 Z" fill="#000000" fill-rule="evenodd" fill-opacity="1" /><path clip-path="url(#clip380)" d="M90.8067 1469.17 L109.163 1469.17 L109.163 1473.1 L95.0891 1473.1 L95.0891 1481.58 Q96.1076 1481.23 97.1261 1481.07 Q98.1447 1480.88 99.1632 1480.88 Q104.95 1480.88 108.33 1484.05 Q111.709 1487.22 111.709 1492.64 Q111.709 1498.22 108.237 1501.32 Q104.765 1504.4 98.4456 1504.4 Q96.2697 1504.4 94.0012 1504.03 Q91.7558 1503.66 89.3484 1502.92 L89.3484 1498.22 Q91.4317 1499.35 93.6539 1499.91 Q95.8761 1500.46 98.353 1500.46 Q102.358 1500.46 104.696 1498.36 Q107.033 1496.25 107.033 1492.64 Q107.033 1489.03 104.696 1486.92 Q102.358 1484.82 98.353 1484.82 Q96.478 1484.82 94.603 1485.23 Q92.7512 1485.65 90.8067 1486.53 L90.8067 1469.17 Z" fill="#000000" fill-rule="evenodd" fill-opacity="1" /><path clip-path="url(#clip380)" d="M120.922 1497.85 L125.807 1497.85 L125.807 1503.73 L120.922 1503.73 L120.922 1497.85 Z" fill="#000000" fill-rule="evenodd" fill-opacity="1" /><path clip-path="url(#clip380)" d="M145.992 1472.25 Q142.381 1472.25 140.552 1475.81 Q138.746 1479.35 138.746 1486.48 Q138.746 1493.59 140.552 1497.15 Q142.381 1500.7 145.992 1500.7 Q149.626 1500.7 151.431 1497.15 Q153.26 1493.59 153.26 1486.48 Q153.26 1479.35 151.431 1475.81 Q149.626 1472.25 145.992 1472.25 M145.992 1468.54 Q151.802 1468.54 154.857 1473.15 Q157.936 1477.73 157.936 1486.48 Q157.936 1495.21 154.857 1499.82 Q151.802 1504.4 145.992 1504.4 Q140.181 1504.4 137.103 1499.82 Q134.047 1495.21 134.047 1486.48 Q134.047 1477.73 137.103 1473.15 Q140.181 1468.54 145.992 1468.54 Z" fill="#000000" fill-rule="evenodd" fill-opacity="1" /><path clip-path="url(#clip380)" d="M51.9875 1127.1 L81.6633 1127.1 L81.6633 1131.03 L51.9875 1131.03 L51.9875 1127.1 Z" fill="#000000" fill-rule="evenodd" fill-opacity="1" /><path clip-path="url(#clip380)" d="M95.7836 1139.99 L112.103 1139.99 L112.103 1143.93 L90.1586 1143.93 L90.1586 1139.99 Q92.8206 1137.24 97.4039 1132.61 Q102.01 1127.95 103.191 1126.61 Q105.436 1124.09 106.316 1122.35 Q107.219 1120.59 107.219 1118.9 Q107.219 1116.15 105.274 1114.41 Q103.353 1112.68 100.251 1112.68 Q98.0521 1112.68 95.5984 1113.44 Q93.1678 1114.2 90.3901 1115.76 L90.3901 1111.03 Q93.2141 1109.9 95.6678 1109.32 Q98.1215 1108.74 100.159 1108.74 Q105.529 1108.74 108.723 1111.43 Q111.918 1114.11 111.918 1118.6 Q111.918 1120.73 111.108 1122.65 Q110.321 1124.55 108.214 1127.14 Q107.635 1127.82 104.534 1131.03 Q101.432 1134.23 95.7836 1139.99 Z" fill="#000000" fill-rule="evenodd" fill-opacity="1" /><path clip-path="url(#clip380)" d="M121.918 1138.05 L126.802 1138.05 L126.802 1143.93 L121.918 1143.93 L121.918 1138.05 Z" fill="#000000" fill-rule="evenodd" fill-opacity="1" /><path clip-path="url(#clip380)" d="M137.033 1109.37 L155.39 1109.37 L155.39 1113.3 L141.316 1113.3 L141.316 1121.77 Q142.334 1121.43 143.353 1121.27 Q144.371 1121.08 145.39 1121.08 Q151.177 1121.08 154.556 1124.25 Q157.936 1127.42 157.936 1132.84 Q157.936 1138.42 154.464 1141.52 Q150.992 1144.6 144.672 1144.6 Q142.496 1144.6 140.228 1144.23 Q137.982 1143.86 135.575 1143.12 L135.575 1138.42 Q137.658 1139.55 139.881 1140.11 Q142.103 1140.66 144.58 1140.66 Q148.584 1140.66 150.922 1138.56 Q153.26 1136.45 153.26 1132.84 Q153.26 1129.23 150.922 1127.12 Q148.584 1125.01 144.58 1125.01 Q142.705 1125.01 140.83 1125.43 Q138.978 1125.85 137.033 1126.73 L137.033 1109.37 Z" fill="#000000" fill-rule="evenodd" fill-opacity="1" /><path clip-path="url(#clip380)" d="M100.76 752.645 Q97.1493 752.645 95.3206 756.209 Q93.515 759.751 93.515 766.881 Q93.515 773.987 95.3206 777.552 Q97.1493 781.094 100.76 781.094 Q104.395 781.094 106.2 777.552 Q108.029 773.987 108.029 766.881 Q108.029 759.751 106.2 756.209 Q104.395 752.645 100.76 752.645 M100.76 748.941 Q106.571 748.941 109.626 753.547 Q112.705 758.131 112.705 766.881 Q112.705 775.608 109.626 780.214 Q106.571 784.797 100.76 784.797 Q94.9502 784.797 91.8715 780.214 Q88.816 775.608 88.816 766.881 Q88.816 758.131 91.8715 753.547 Q94.9502 748.941 100.76 748.941 Z" fill="#000000" fill-rule="evenodd" fill-opacity="1" /><path clip-path="url(#clip380)" d="M120.922 778.246 L125.807 778.246 L125.807 784.126 L120.922 784.126 L120.922 778.246 Z" fill="#000000" fill-rule="evenodd" fill-opacity="1" /><path clip-path="url(#clip380)" d="M145.992 752.645 Q142.381 752.645 140.552 756.209 Q138.746 759.751 138.746 766.881 Q138.746 773.987 140.552 777.552 Q142.381 781.094 145.992 781.094 Q149.626 781.094 151.431 777.552 Q153.26 773.987 153.26 766.881 Q153.26 759.751 151.431 756.209 Q149.626 752.645 145.992 752.645 M145.992 748.941 Q151.802 748.941 154.857 753.547 Q157.936 758.131 157.936 766.881 Q157.936 775.608 154.857 780.214 Q151.802 784.797 145.992 784.797 Q140.181 784.797 137.103 780.214 Q134.047 775.608 134.047 766.881 Q134.047 758.131 137.103 753.547 Q140.181 748.941 145.992 748.941 Z" fill="#000000" fill-rule="evenodd" fill-opacity="1" /><path clip-path="url(#clip380)" d="M95.7836 420.39 L112.103 420.39 L112.103 424.325 L90.1586 424.325 L90.1586 420.39 Q92.8206 417.635 97.4039 413.006 Q102.01 408.353 103.191 407.01 Q105.436 404.487 106.316 402.751 Q107.219 400.992 107.219 399.302 Q107.219 396.547 105.274 394.811 Q103.353 393.075 100.251 393.075 Q98.0521 393.075 95.5984 393.839 Q93.1678 394.603 90.3901 396.154 L90.3901 391.432 Q93.2141 390.297 95.6678 389.719 Q98.1215 389.14 100.159 389.14 Q105.529 389.14 108.723 391.825 Q111.918 394.51 111.918 399.001 Q111.918 401.131 111.108 403.052 Q110.321 404.95 108.214 407.543 Q107.635 408.214 104.534 411.432 Q101.432 414.626 95.7836 420.39 Z" fill="#000000" fill-rule="evenodd" fill-opacity="1" /><path clip-path="url(#clip380)" d="M121.918 418.445 L126.802 418.445 L126.802 424.325 L121.918 424.325 L121.918 418.445 Z" fill="#000000" fill-rule="evenodd" fill-opacity="1" /><path clip-path="url(#clip380)" d="M137.033 389.765 L155.39 389.765 L155.39 393.7 L141.316 393.7 L141.316 402.172 Q142.334 401.825 143.353 401.663 Q144.371 401.478 145.39 401.478 Q151.177 401.478 154.556 404.649 Q157.936 407.82 157.936 413.237 Q157.936 418.816 154.464 421.918 Q150.992 424.996 144.672 424.996 Q142.496 424.996 140.228 424.626 Q137.982 424.256 135.575 423.515 L135.575 418.816 Q137.658 419.95 139.881 420.506 Q142.103 421.061 144.58 421.061 Q148.584 421.061 150.922 418.955 Q153.26 416.848 153.26 413.237 Q153.26 409.626 150.922 407.52 Q148.584 405.413 144.58 405.413 Q142.705 405.413 140.83 405.83 Q138.978 406.246 137.033 407.126 L137.033 389.765 Z" fill="#000000" fill-rule="evenodd" fill-opacity="1" /><path clip-path="url(#clip380)" d="M90.8067 29.9641 L109.163 29.9641 L109.163 33.8993 L95.0891 33.8993 L95.0891 42.3714 Q96.1076 42.0242 97.1261 41.8622 Q98.1447 41.677 99.1632 41.677 Q104.95 41.677 108.33 44.8483 Q111.709 48.0196 111.709 53.4362 Q111.709 59.0149 108.237 62.1167 Q104.765 65.1954 98.4456 65.1954 Q96.2697 65.1954 94.0012 64.825 Q91.7558 64.4547 89.3484 63.7139 L89.3484 59.0149 Q91.4317 60.1491 93.6539 60.7047 Q95.8761 61.2602 98.353 61.2602 Q102.358 61.2602 104.696 59.1538 Q107.033 57.0473 107.033 53.4362 Q107.033 49.8251 104.696 47.7186 Q102.358 45.6122 98.353 45.6122 Q96.478 45.6122 94.603 46.0288 Q92.7512 46.4455 90.8067 47.3251 L90.8067 29.9641 Z" fill="#000000" fill-rule="evenodd" fill-opacity="1" /><path clip-path="url(#clip380)" d="M120.922 58.6445 L125.807 58.6445 L125.807 64.5241 L120.922 64.5241 L120.922 58.6445 Z" fill="#000000" fill-rule="evenodd" fill-opacity="1" /><path clip-path="url(#clip380)" d="M145.992 33.0428 Q142.381 33.0428 140.552 36.6076 Q138.746 40.1492 138.746 47.2788 Q138.746 54.3853 140.552 57.9501 Q142.381 61.4917 145.992 61.4917 Q149.626 61.4917 151.431 57.9501 Q153.26 54.3853 153.26 47.2788 Q153.26 40.1492 151.431 36.6076 Q149.626 33.0428 145.992 33.0428 M145.992 29.3391 Q151.802 29.3391 154.857 33.9456 Q157.936 38.5289 157.936 47.2788 Q157.936 56.0056 154.857 60.6121 Q151.802 65.1954 145.992 65.1954 Q140.181 65.1954 137.103 60.6121 Q134.047 56.0056 134.047 47.2788 Q134.047 38.5289 137.103 33.9456 Q140.181 29.3391 145.992 29.3391 Z" fill="#000000" fill-rule="evenodd" fill-opacity="1" /><polyline clip-path="url(#clip382)" style="stroke:#009af9; stroke-linecap:round; stroke-linejoin:round; stroke-width:16; stroke-opacity:1; fill:none" points="
  255.035,1486.45 268.294,1477.08 390.898,1390.44 464.577,1338.37 526.872,1294.35 594.542,1246.53 656.928,1202.45 723.812,1155.18 801.304,1100.42 870.17,1051.76 
  930.558,1009.08 996.398,962.554 1062.63,915.751 1135.86,864.004 1205.53,814.768 1277.98,763.574 1338.96,720.48 1413.41,667.867 1481.62,619.669 1544.61,575.156 
  1608.42,530.064 1679.93,479.53 1744.73,433.738 1818.92,381.308 1887.62,332.764 1955.34,284.904 2021.1,238.437 2088.51,190.802 2162.36,138.612 2269.65,62.7976 
  2291.66,47.2441 
  "/>
<polyline clip-path="url(#clip382)" style="stroke:#e26f46; stroke-linecap:round; stroke-linejoin:round; stroke-width:16; stroke-opacity:1; fill:none" points="
  255.035,726.021 258.35,728.273 261.664,730.535 264.979,732.806 268.294,735.086 298.945,756.492 329.596,778.131 360.247,799.515 390.898,820.161 409.318,832.017 
  427.737,843.34 446.157,854.038 464.577,864.024 480.151,871.85 495.725,879.062 511.299,885.618 526.872,891.48 535.331,894.361 543.79,897.022 552.249,899.458 
  560.707,901.666 569.166,903.641 577.625,905.38 586.084,906.88 594.542,908.138 602.341,909.083 610.139,909.819 617.937,910.345 625.735,910.661 633.533,910.766 
  641.332,910.661 649.13,910.344 656.928,909.817 665.289,909.019 673.649,907.982 682.01,906.707 690.37,905.196 698.731,903.452 707.091,901.478 715.452,899.277 
  723.812,896.853 733.499,893.771 743.185,890.402 752.872,886.753 762.558,882.833 772.245,878.651 781.931,874.216 791.617,869.539 801.304,864.628 818.52,855.363 
  835.737,845.465 852.953,835.006 870.17,824.06 900.364,803.926 930.558,782.977 963.478,759.751 996.398,736.709 1012.96,725.38 1029.51,714.325 1046.07,703.616 
  1062.63,693.326 1080.94,682.516 1099.24,672.387 1108.4,667.604 1117.55,663.021 1126.7,658.648 1135.86,654.494 1144.57,650.751 1153.28,647.221 1161.98,643.91 
  1170.69,640.823 1179.4,637.967 1188.11,635.346 1196.82,632.966 1205.53,630.831 1214.59,628.874 1223.64,627.19 1232.7,625.783 1241.75,624.654 1250.81,623.806 
  1259.86,623.241 1268.92,622.96 1277.98,622.963 1285.6,623.186 1293.22,623.61 1300.84,624.235 1308.47,625.06 1323.71,627.304 1338.96,630.33 1348.27,632.554 
  1357.57,635.059 1366.88,637.838 1376.19,640.887 1385.49,644.199 1394.8,647.767 1404.11,651.584 1413.41,655.641 1430.46,663.67 1447.51,672.422 1464.57,681.836 
  1481.62,691.845 1497.36,701.558 1513.11,711.66 1528.86,722.093 1544.61,732.793 1576.51,755.026 1608.42,777.548 1626.29,790.089 1644.17,802.452 1662.05,814.54 
  1679.93,826.26 1696.13,836.489 1712.33,846.276 1728.53,855.562 1744.73,864.286 1754,869.007 1763.28,873.515 1772.55,877.803 1781.83,881.86 1791.1,885.679 
  1800.37,889.252 1809.65,892.571 1818.92,895.629 1827.51,898.223 1836.1,900.583 1844.68,902.705 1853.27,904.586 1861.86,906.222 1870.44,907.611 1879.03,908.749 
  1887.62,909.635 1896.08,910.26 1904.55,910.637 1913.01,910.766 1921.48,910.647 1929.95,910.278 1938.41,909.662 1946.88,908.8 1955.34,907.692 1963.56,906.383 
  1971.78,904.847 1980,903.087 1988.22,901.104 1996.44,898.903 2004.66,896.487 2012.88,893.86 2021.1,891.025 2029.53,887.91 2037.95,884.588 2046.38,881.064 
  2054.8,877.344 2071.66,869.345 2088.51,860.644 2106.97,850.376 2125.44,839.423 2134.67,833.717 2143.9,827.873 2153.13,821.904 2162.36,815.822 2189.18,797.627 
  2216,778.899 2242.83,759.963 2269.65,741.145 2275.15,737.329 2280.65,733.534 2286.15,729.764 2291.66,726.021 
  "/>
<polyline clip-path="url(#clip382)" style="stroke:#3da44d; stroke-linecap:round; stroke-linejoin:round; stroke-width:16; stroke-opacity:1; fill:none" points="
  255.035,1106.23 261.664,1106.15 268.294,1106.08 329.596,1105.94 390.898,1105.3 427.737,1103.87 464.577,1101.2 495.725,1097.71 526.872,1092.92 543.79,1089.71 
  560.707,1086.05 577.625,1081.93 594.542,1077.33 625.735,1067.57 656.928,1056.13 690.37,1042 723.812,1026.02 743.185,1015.95 762.558,1005.32 781.931,994.163 
  801.304,982.524 835.737,960.777 870.17,937.908 900.364,917.172 930.558,896.029 996.398,849.632 1062.63,804.538 1099.24,781.132 1135.86,759.249 1170.69,740.105 
  1205.53,722.799 1223.64,714.58 1241.75,706.912 1259.86,699.807 1277.98,693.269 1308.47,683.544 1338.96,675.405 1357.57,671.193 1376.19,667.53 1394.8,664.393 
  1413.41,661.754 1447.51,658.095 1481.62,655.757 1544.61,653.974 1608.42,653.806 1644.17,653.624 1679.93,652.895 1712.33,651.455 1744.73,649.012 1763.28,647.073 
  1781.83,644.692 1800.37,641.834 1818.92,638.469 1853.27,630.811 1887.62,621.199 1921.48,609.74 1955.34,596.298 1971.78,589.067 1988.22,581.387 2004.66,573.27 
  2021.1,564.731 2054.8,545.982 2088.51,525.723 2125.44,502.065 2162.36,477.217 2216,439.802 2269.65,401.971 2280.65,394.278 2291.66,386.633 
  "/>
<path clip-path="url(#clip380)" d="
M1961.59 406.258 L2280.8 406.258 L2280.8 95.2176 L1961.59 95.2176  Z
  " fill="#ffffff" fill-rule="evenodd" fill-opacity="1"/>
<polyline clip-path="url(#clip380)" style="stroke:#000000; stroke-linecap:round; stroke-linejoin:round; stroke-width:4; stroke-opacity:1; fill:none" points="
  1961.59,406.258 2280.8,406.258 2280.8,95.2176 1961.59,95.2176 1961.59,406.258 
  "/>
<polyline clip-path="url(#clip380)" style="stroke:#009af9; stroke-linecap:round; stroke-linejoin:round; stroke-width:6; stroke-opacity:1; fill:none" points="
  1985.57,172.978 2129.49,172.978 
  "/>
<path clip-path="url(#clip380)" d="M2190.46 160.009 L2176.4 178.932 L2191.19 198.898 L2183.66 198.898 L2172.34 183.62 L2161.02 198.898 L2153.48 198.898 L2168.59 178.55 L2154.77 160.009 L2162.3 160.009 L2172.61 173.863 L2182.93 160.009 L2190.46 160.009 Z" fill="#000000" fill-rule="evenodd" fill-opacity="1" /><polyline clip-path="url(#clip380)" style="stroke:#e26f46; stroke-linecap:round; stroke-linejoin:round; stroke-width:6; stroke-opacity:1; fill:none" points="
  1985.57,250.738 2129.49,250.738 
  "/>
<path clip-path="url(#clip380)" d="M2181.85 256.762 Q2181.85 249.817 2178.97 245.998 Q2176.12 242.179 2170.95 242.179 Q2165.81 242.179 2162.93 245.998 Q2160.08 249.817 2160.08 256.762 Q2160.08 263.672 2162.93 267.491 Q2165.81 271.31 2170.95 271.31 Q2176.12 271.31 2178.97 267.491 Q2181.85 263.672 2181.85 256.762 M2188.24 271.831 Q2188.24 281.762 2183.83 286.588 Q2179.42 291.449 2170.32 291.449 Q2166.95 291.449 2163.97 290.928 Q2160.98 290.442 2158.17 289.401 L2158.17 283.185 Q2160.98 284.713 2163.72 285.442 Q2166.47 286.171 2169.31 286.171 Q2175.6 286.171 2178.72 282.873 Q2181.85 279.609 2181.85 272.977 L2181.85 269.817 Q2179.87 273.255 2176.78 274.956 Q2173.69 276.658 2169.38 276.658 Q2162.23 276.658 2157.86 271.206 Q2153.48 265.755 2153.48 256.762 Q2153.48 247.734 2157.86 242.283 Q2162.23 236.831 2169.38 236.831 Q2173.69 236.831 2176.78 238.533 Q2179.87 240.234 2181.85 243.672 L2181.85 237.769 L2188.24 237.769 L2188.24 271.831 Z" fill="#000000" fill-rule="evenodd" fill-opacity="1" /><polyline clip-path="url(#clip380)" style="stroke:#3da44d; stroke-linecap:round; stroke-linejoin:round; stroke-width:6; stroke-opacity:1; fill:none" points="
  1985.57,328.498 2129.49,328.498 
  "/>
<path clip-path="url(#clip380)" d="M2181.85 334.522 Q2181.85 327.577 2178.97 323.758 Q2176.12 319.939 2170.95 319.939 Q2165.81 319.939 2162.93 323.758 Q2160.08 327.577 2160.08 334.522 Q2160.08 341.432 2162.93 345.251 Q2165.81 349.07 2170.95 349.07 Q2176.12 349.07 2178.97 345.251 Q2181.85 341.432 2181.85 334.522 M2188.24 349.591 Q2188.24 359.522 2183.83 364.348 Q2179.42 369.209 2170.32 369.209 Q2166.95 369.209 2163.97 368.688 Q2160.98 368.202 2158.17 367.161 L2158.17 360.945 Q2160.98 362.473 2163.72 363.202 Q2166.47 363.931 2169.31 363.931 Q2175.6 363.931 2178.72 360.633 Q2181.85 357.369 2181.85 350.737 L2181.85 347.577 Q2179.87 351.015 2176.78 352.716 Q2173.69 354.418 2169.38 354.418 Q2162.23 354.418 2157.86 348.966 Q2153.48 343.515 2153.48 334.522 Q2153.48 325.494 2157.86 320.043 Q2162.23 314.591 2169.38 314.591 Q2173.69 314.591 2176.78 316.293 Q2179.87 317.994 2181.85 321.432 L2181.85 315.529 L2188.24 315.529 L2188.24 349.591 Z" fill="#000000" fill-rule="evenodd" fill-opacity="1" /><path clip-path="url(#clip380)" d="M2208.34 348.515 L2232.82 348.515 L2232.82 354.418 L2199.9 354.418 L2199.9 348.515 Q2203.9 344.383 2210.77 337.438 Q2217.68 330.459 2219.45 328.445 Q2222.82 324.661 2224.14 322.057 Q2225.5 319.418 2225.5 316.883 Q2225.5 312.751 2222.58 310.147 Q2219.7 307.543 2215.04 307.543 Q2211.75 307.543 2208.06 308.689 Q2204.42 309.834 2200.25 312.161 L2200.25 305.078 Q2204.49 303.376 2208.17 302.508 Q2211.85 301.64 2214.9 301.64 Q2222.96 301.64 2227.75 305.668 Q2232.54 309.696 2232.54 316.432 Q2232.54 319.626 2231.33 322.508 Q2230.15 325.355 2226.99 329.244 Q2226.12 330.251 2221.47 335.077 Q2216.81 339.869 2208.34 348.515 Z" fill="#000000" fill-rule="evenodd" fill-opacity="1" /></svg>
