<?xml version="1.0" encoding="utf-8"?>
<svg xmlns="http://www.w3.org/2000/svg" xmlns:xlink="http://www.w3.org/1999/xlink" width="600" height="400" viewBox="0 0 2400 1600">
<defs>
  <clipPath id="clip450">
    <rect x="0" y="0" width="2400" height="1600"/>
  </clipPath>
</defs>
<path clip-path="url(#clip450)" d="
M0 1600 L2400 1600 L2400 0 L0 0  Z
  " fill="#ffffff" fill-rule="evenodd" fill-opacity="1"/>
<defs>
  <clipPath id="clip451">
    <rect x="480" y="0" width="1681" height="1600"/>
  </clipPath>
</defs>
<path clip-path="url(#clip450)" d="
M368.761 1474.16 L2352.76 1474.16 L2352.76 47.2441 L368.761 47.2441  Z
  " fill="#ffffff" fill-rule="evenodd" fill-opacity="1"/>
<defs>
  <clipPath id="clip452">
    <rect x="368" y="47" width="1985" height="1428"/>
  </clipPath>
</defs>
<polyline clip-path="url(#clip452)" style="stroke:#000000; stroke-linecap:butt; stroke-linejoin:round; stroke-width:2; stroke-opacity:0.1; fill:none" points="
  368.761,1474.16 368.761,47.2441 
  "/>
<polyline clip-path="url(#clip452)" style="stroke:#000000; stroke-linecap:butt; stroke-linejoin:round; stroke-width:2; stroke-opacity:0.1; fill:none" points="
  864.76,1474.16 864.76,47.2441 
  "/>
<polyline clip-path="url(#clip452)" style="stroke:#000000; stroke-linecap:butt; stroke-linejoin:round; stroke-width:2; stroke-opacity:0.1; fill:none" points="
  1360.76,1474.16 1360.76,47.2441 
  "/>
<polyline clip-path="url(#clip452)" style="stroke:#000000; stroke-linecap:butt; stroke-linejoin:round; stroke-width:2; stroke-opacity:0.1; fill:none" points="
  1856.76,1474.16 1856.76,47.2441 
  "/>
<polyline clip-path="url(#clip452)" style="stroke:#000000; stroke-linecap:butt; stroke-linejoin:round; stroke-width:2; stroke-opacity:0.1; fill:none" points="
  2352.76,1474.16 2352.76,47.2441 
  "/>
<polyline clip-path="url(#clip450)" style="stroke:#000000; stroke-linecap:butt; stroke-linejoin:round; stroke-width:4; stroke-opacity:1; fill:none" points="
  368.761,1474.16 2352.76,1474.16 
  "/>
<polyline clip-path="url(#clip450)" style="stroke:#000000; stroke-linecap:butt; stroke-linejoin:round; stroke-width:4; stroke-opacity:1; fill:none" points="
  368.761,1474.16 368.761,1455.27 
  "/>
<polyline clip-path="url(#clip450)" style="stroke:#000000; stroke-linecap:butt; stroke-linejoin:round; stroke-width:4; stroke-opacity:1; fill:none" points="
  864.76,1474.16 864.76,1455.27 
  "/>
<polyline clip-path="url(#clip450)" style="stroke:#000000; stroke-linecap:butt; stroke-linejoin:round; stroke-width:4; stroke-opacity:1; fill:none" points="
  1360.76,1474.16 1360.76,1455.27 
  "/>
<polyline clip-path="url(#clip450)" style="stroke:#000000; stroke-linecap:butt; stroke-linejoin:round; stroke-width:4; stroke-opacity:1; fill:none" points="
  1856.76,1474.16 1856.76,1455.27 
  "/>
<polyline clip-path="url(#clip450)" style="stroke:#000000; stroke-linecap:butt; stroke-linejoin:round; stroke-width:4; stroke-opacity:1; fill:none" points="
  2352.76,1474.16 2352.76,1455.27 
  "/>
<path clip-path="url(#clip450)" d="M228.347 1535.4 L258.023 1535.4 L258.023 1539.33 L228.347 1539.33 L228.347 1535.4 Z" fill="#000000" fill-rule="evenodd" fill-opacity="1" /><path clip-path="url(#clip450)" d="M268.925 1548.29 L276.564 1548.29 L276.564 1521.92 L268.254 1523.59 L268.254 1519.33 L276.518 1517.66 L281.194 1517.66 L281.194 1548.29 L288.833 1548.29 L288.833 1552.22 L268.925 1552.22 L268.925 1548.29 Z" fill="#000000" fill-rule="evenodd" fill-opacity="1" /><path clip-path="url(#clip450)" d="M298.277 1546.35 L303.161 1546.35 L303.161 1552.22 L298.277 1552.22 L298.277 1546.35 Z" fill="#000000" fill-rule="evenodd" fill-opacity="1" /><path clip-path="url(#clip450)" d="M323.346 1520.74 Q319.735 1520.74 317.907 1524.31 Q316.101 1527.85 316.101 1534.98 Q316.101 1542.09 317.907 1545.65 Q319.735 1549.19 323.346 1549.19 Q326.981 1549.19 328.786 1545.65 Q330.615 1542.09 330.615 1534.98 Q330.615 1527.85 328.786 1524.31 Q326.981 1520.74 323.346 1520.74 M323.346 1517.04 Q329.157 1517.04 332.212 1521.65 Q335.291 1526.23 335.291 1534.98 Q335.291 1543.71 332.212 1548.31 Q329.157 1552.9 323.346 1552.9 Q317.536 1552.9 314.458 1548.31 Q311.402 1543.71 311.402 1534.98 Q311.402 1526.23 314.458 1521.65 Q317.536 1517.04 323.346 1517.04 Z" fill="#000000" fill-rule="evenodd" fill-opacity="1" /><path clip-path="url(#clip450)" d="M371.68 1526.76 L361.101 1537.39 L371.68 1547.97 L368.925 1550.77 L358.3 1540.14 L347.675 1550.77 L344.944 1547.97 L355.499 1537.39 L344.944 1526.76 L347.675 1523.96 L358.3 1534.59 L368.925 1523.96 L371.68 1526.76 Z" fill="#000000" fill-rule="evenodd" fill-opacity="1" /><path clip-path="url(#clip450)" d="M384.041 1548.29 L391.679 1548.29 L391.679 1521.92 L383.369 1523.59 L383.369 1519.33 L391.633 1517.66 L396.309 1517.66 L396.309 1548.29 L403.948 1548.29 L403.948 1552.22 L384.041 1552.22 L384.041 1548.29 Z" fill="#000000" fill-rule="evenodd" fill-opacity="1" /><path clip-path="url(#clip450)" d="M423.392 1520.74 Q419.781 1520.74 417.952 1524.31 Q416.147 1527.85 416.147 1534.98 Q416.147 1542.09 417.952 1545.65 Q419.781 1549.19 423.392 1549.19 Q427.026 1549.19 428.832 1545.65 Q430.661 1542.09 430.661 1534.98 Q430.661 1527.85 428.832 1524.31 Q427.026 1520.74 423.392 1520.74 M423.392 1517.04 Q429.202 1517.04 432.258 1521.65 Q435.337 1526.23 435.337 1534.98 Q435.337 1543.71 432.258 1548.31 Q429.202 1552.9 423.392 1552.9 Q417.582 1552.9 414.503 1548.31 Q411.448 1543.71 411.448 1534.98 Q411.448 1526.23 414.503 1521.65 Q417.582 1517.04 423.392 1517.04 Z" fill="#000000" fill-rule="evenodd" fill-opacity="1" /><path clip-path="url(#clip450)" d="M435.337 1511.14 L459.448 1511.14 L459.448 1514.34 L435.337 1514.34 L435.337 1511.14 Z" fill="#000000" fill-rule="evenodd" fill-opacity="1" /><path clip-path="url(#clip450)" d="M468.307 1521.62 L474.513 1521.62 L474.513 1500.19 L467.761 1501.55 L467.761 1498.09 L474.476 1496.73 L478.275 1496.73 L478.275 1521.62 L484.481 1521.62 L484.481 1524.81 L468.307 1524.81 L468.307 1521.62 Z" fill="#000000" fill-rule="evenodd" fill-opacity="1" /><path clip-path="url(#clip450)" d="M492.193 1496.73 L507.107 1496.73 L507.107 1499.93 L495.672 1499.93 L495.672 1506.82 Q496.499 1506.53 497.327 1506.4 Q498.155 1506.25 498.982 1506.25 Q503.684 1506.25 506.43 1508.83 Q509.176 1511.4 509.176 1515.81 Q509.176 1520.34 506.355 1522.86 Q503.534 1525.36 498.399 1525.36 Q496.631 1525.36 494.788 1525.06 Q492.964 1524.76 491.008 1524.16 L491.008 1520.34 Q492.7 1521.26 494.506 1521.71 Q496.311 1522.16 498.324 1522.16 Q501.578 1522.16 503.477 1520.45 Q505.377 1518.74 505.377 1515.81 Q505.377 1512.87 503.477 1511.16 Q501.578 1509.45 498.324 1509.45 Q496.8 1509.45 495.277 1509.79 Q493.772 1510.13 492.193 1510.84 L492.193 1496.73 Z" fill="#000000" fill-rule="evenodd" fill-opacity="1" /><path clip-path="url(#clip450)" d="M723.875 1535.4 L753.551 1535.4 L753.551 1539.33 L723.875 1539.33 L723.875 1535.4 Z" fill="#000000" fill-rule="evenodd" fill-opacity="1" /><path clip-path="url(#clip450)" d="M763.69 1517.66 L782.046 1517.66 L782.046 1521.6 L767.972 1521.6 L767.972 1530.07 Q768.991 1529.72 770.009 1529.56 Q771.028 1529.38 772.046 1529.38 Q777.833 1529.38 781.213 1532.55 Q784.593 1535.72 784.593 1541.14 Q784.593 1546.72 781.12 1549.82 Q777.648 1552.9 771.329 1552.9 Q769.153 1552.9 766.884 1552.53 Q764.639 1552.16 762.232 1551.41 L762.232 1546.72 Q764.315 1547.85 766.537 1548.41 Q768.759 1548.96 771.236 1548.96 Q775.241 1548.96 777.579 1546.85 Q779.917 1544.75 779.917 1541.14 Q779.917 1537.53 777.579 1535.42 Q775.241 1533.31 771.236 1533.31 Q769.361 1533.31 767.486 1533.73 Q765.634 1534.15 763.69 1535.03 L763.69 1517.66 Z" fill="#000000" fill-rule="evenodd" fill-opacity="1" /><path clip-path="url(#clip450)" d="M793.806 1546.35 L798.69 1546.35 L798.69 1552.22 L793.806 1552.22 L793.806 1546.35 Z" fill="#000000" fill-rule="evenodd" fill-opacity="1" /><path clip-path="url(#clip450)" d="M818.875 1520.74 Q815.264 1520.74 813.435 1524.31 Q811.63 1527.85 811.63 1534.98 Q811.63 1542.09 813.435 1545.65 Q815.264 1549.19 818.875 1549.19 Q822.509 1549.19 824.315 1545.65 Q826.143 1542.09 826.143 1534.98 Q826.143 1527.85 824.315 1524.31 Q822.509 1520.74 818.875 1520.74 M818.875 1517.04 Q824.685 1517.04 827.741 1521.65 Q830.819 1526.23 830.819 1534.98 Q830.819 1543.71 827.741 1548.31 Q824.685 1552.9 818.875 1552.9 Q813.065 1552.9 809.986 1548.31 Q806.931 1543.71 806.931 1534.98 Q806.931 1526.23 809.986 1521.65 Q813.065 1517.04 818.875 1517.04 Z" fill="#000000" fill-rule="evenodd" fill-opacity="1" /><path clip-path="url(#clip450)" d="M867.208 1526.76 L856.629 1537.39 L867.208 1547.97 L864.453 1550.77 L853.828 1540.14 L843.203 1550.77 L840.472 1547.97 L851.027 1537.39 L840.472 1526.76 L843.203 1523.96 L853.828 1534.59 L864.453 1523.96 L867.208 1526.76 Z" fill="#000000" fill-rule="evenodd" fill-opacity="1" /><path clip-path="url(#clip450)" d="M879.569 1548.29 L887.208 1548.29 L887.208 1521.92 L878.898 1523.59 L878.898 1519.33 L887.162 1517.66 L891.837 1517.66 L891.837 1548.29 L899.476 1548.29 L899.476 1552.22 L879.569 1552.22 L879.569 1548.29 Z" fill="#000000" fill-rule="evenodd" fill-opacity="1" /><path clip-path="url(#clip450)" d="M918.921 1520.74 Q915.31 1520.74 913.481 1524.31 Q911.675 1527.85 911.675 1534.98 Q911.675 1542.09 913.481 1545.65 Q915.31 1549.19 918.921 1549.19 Q922.555 1549.19 924.36 1545.65 Q926.189 1542.09 926.189 1534.98 Q926.189 1527.85 924.36 1524.31 Q922.555 1520.74 918.921 1520.74 M918.921 1517.04 Q924.731 1517.04 927.786 1521.65 Q930.865 1526.23 930.865 1534.98 Q930.865 1543.71 927.786 1548.31 Q924.731 1552.9 918.921 1552.9 Q913.11 1552.9 910.032 1548.31 Q906.976 1543.71 906.976 1534.98 Q906.976 1526.23 910.032 1521.65 Q913.11 1517.04 918.921 1517.04 Z" fill="#000000" fill-rule="evenodd" fill-opacity="1" /><path clip-path="url(#clip450)" d="M930.865 1511.14 L954.977 1511.14 L954.977 1514.34 L930.865 1514.34 L930.865 1511.14 Z" fill="#000000" fill-rule="evenodd" fill-opacity="1" /><path clip-path="url(#clip450)" d="M963.835 1521.62 L970.042 1521.62 L970.042 1500.19 L963.29 1501.55 L963.29 1498.09 L970.004 1496.73 L973.803 1496.73 L973.803 1521.62 L980.01 1521.62 L980.01 1524.81 L963.835 1524.81 L963.835 1521.62 Z" fill="#000000" fill-rule="evenodd" fill-opacity="1" /><path clip-path="url(#clip450)" d="M996.278 1509.26 Q993.721 1509.26 992.216 1511.01 Q990.73 1512.76 990.73 1515.81 Q990.73 1518.83 992.216 1520.6 Q993.721 1522.35 996.278 1522.35 Q998.836 1522.35 1000.32 1520.6 Q1001.83 1518.83 1001.83 1515.81 Q1001.83 1512.76 1000.32 1511.01 Q998.836 1509.26 996.278 1509.26 M1003.82 1497.35 L1003.82 1500.82 Q1002.39 1500.14 1000.92 1499.78 Q999.476 1499.42 998.046 1499.42 Q994.285 1499.42 992.291 1501.96 Q990.316 1504.5 990.034 1509.64 Q991.144 1508 992.818 1507.13 Q994.492 1506.25 996.504 1506.25 Q1000.74 1506.25 1003.18 1508.83 Q1005.64 1511.39 1005.64 1515.81 Q1005.64 1520.13 1003.09 1522.75 Q1000.53 1525.36 996.278 1525.36 Q991.407 1525.36 988.831 1521.64 Q986.254 1517.89 986.254 1510.8 Q986.254 1504.14 989.414 1500.19 Q992.573 1496.23 997.896 1496.23 Q999.325 1496.23 1000.77 1496.51 Q1002.24 1496.79 1003.82 1497.35 Z" fill="#000000" fill-rule="evenodd" fill-opacity="1" /><path clip-path="url(#clip450)" d="M1360.76 1505.08 Q1357.15 1505.08 1355.32 1508.65 Q1353.51 1512.19 1353.51 1519.32 Q1353.51 1526.43 1355.32 1529.99 Q1357.15 1533.53 1360.76 1533.53 Q1364.39 1533.53 1366.2 1529.99 Q1368.03 1526.43 1368.03 1519.32 Q1368.03 1512.19 1366.2 1508.65 Q1364.39 1505.08 1360.76 1505.08 M1360.76 1501.38 Q1366.57 1501.38 1369.62 1505.99 Q1372.7 1510.57 1372.7 1519.32 Q1372.7 1528.05 1369.62 1532.65 Q1366.57 1537.24 1360.76 1537.24 Q1354.95 1537.24 1351.87 1532.65 Q1348.81 1528.05 1348.81 1519.32 Q1348.81 1510.57 1351.87 1505.99 Q1354.95 1501.38 1360.76 1501.38 Z" fill="#000000" fill-rule="evenodd" fill-opacity="1" /><path clip-path="url(#clip450)" d="M1736.51 1517.66 L1754.87 1517.66 L1754.87 1521.6 L1740.79 1521.6 L1740.79 1530.07 Q1741.81 1529.72 1742.83 1529.56 Q1743.85 1529.38 1744.87 1529.38 Q1750.65 1529.38 1754.03 1532.55 Q1757.41 1535.72 1757.41 1541.14 Q1757.41 1546.72 1753.94 1549.82 Q1750.47 1552.9 1744.15 1552.9 Q1741.97 1552.9 1739.7 1552.53 Q1737.46 1552.16 1735.05 1551.41 L1735.05 1546.72 Q1737.13 1547.85 1739.36 1548.41 Q1741.58 1548.96 1744.06 1548.96 Q1748.06 1548.96 1750.4 1546.85 Q1752.74 1544.75 1752.74 1541.14 Q1752.74 1537.53 1750.4 1535.42 Q1748.06 1533.31 1744.06 1533.31 Q1742.18 1533.31 1740.31 1533.73 Q1738.45 1534.15 1736.51 1535.03 L1736.51 1517.66 Z" fill="#000000" fill-rule="evenodd" fill-opacity="1" /><path clip-path="url(#clip450)" d="M1766.62 1546.35 L1771.51 1546.35 L1771.51 1552.22 L1766.62 1552.22 L1766.62 1546.35 Z" fill="#000000" fill-rule="evenodd" fill-opacity="1" /><path clip-path="url(#clip450)" d="M1791.69 1520.74 Q1788.08 1520.74 1786.25 1524.31 Q1784.45 1527.85 1784.45 1534.98 Q1784.45 1542.09 1786.25 1545.65 Q1788.08 1549.19 1791.69 1549.19 Q1795.33 1549.19 1797.13 1545.65 Q1798.96 1542.09 1798.96 1534.98 Q1798.96 1527.85 1797.13 1524.31 Q1795.33 1520.74 1791.69 1520.74 M1791.69 1517.04 Q1797.5 1517.04 1800.56 1521.65 Q1803.64 1526.23 1803.64 1534.98 Q1803.64 1543.71 1800.56 1548.31 Q1797.5 1552.9 1791.69 1552.9 Q1785.88 1552.9 1782.81 1548.31 Q1779.75 1543.71 1779.75 1534.98 Q1779.75 1526.23 1782.81 1521.65 Q1785.88 1517.04 1791.69 1517.04 Z" fill="#000000" fill-rule="evenodd" fill-opacity="1" /><path clip-path="url(#clip450)" d="M1840.03 1526.76 L1829.45 1537.39 L1840.03 1547.97 L1837.27 1550.77 L1826.65 1540.14 L1816.02 1550.77 L1813.29 1547.97 L1823.85 1537.39 L1813.29 1526.76 L1816.02 1523.96 L1826.65 1534.59 L1837.27 1523.96 L1840.03 1526.76 Z" fill="#000000" fill-rule="evenodd" fill-opacity="1" /><path clip-path="url(#clip450)" d="M1852.39 1548.29 L1860.03 1548.29 L1860.03 1521.92 L1851.72 1523.59 L1851.72 1519.33 L1859.98 1517.66 L1864.66 1517.66 L1864.66 1548.29 L1872.3 1548.29 L1872.3 1552.22 L1852.39 1552.22 L1852.39 1548.29 Z" fill="#000000" fill-rule="evenodd" fill-opacity="1" /><path clip-path="url(#clip450)" d="M1891.74 1520.74 Q1888.13 1520.74 1886.3 1524.31 Q1884.49 1527.85 1884.49 1534.98 Q1884.49 1542.09 1886.3 1545.65 Q1888.13 1549.19 1891.74 1549.19 Q1895.37 1549.19 1897.18 1545.65 Q1899.01 1542.09 1899.01 1534.98 Q1899.01 1527.85 1897.18 1524.31 Q1895.37 1520.74 1891.74 1520.74 M1891.74 1517.04 Q1897.55 1517.04 1900.61 1521.65 Q1903.68 1526.23 1903.68 1534.98 Q1903.68 1543.71 1900.61 1548.31 Q1897.55 1552.9 1891.74 1552.9 Q1885.93 1552.9 1882.85 1548.31 Q1879.8 1543.71 1879.8 1534.98 Q1879.8 1526.23 1882.85 1521.65 Q1885.93 1517.04 1891.74 1517.04 Z" fill="#000000" fill-rule="evenodd" fill-opacity="1" /><path clip-path="url(#clip450)" d="M1903.68 1511.14 L1927.8 1511.14 L1927.8 1514.34 L1903.68 1514.34 L1903.68 1511.14 Z" fill="#000000" fill-rule="evenodd" fill-opacity="1" /><path clip-path="url(#clip450)" d="M1936.65 1521.62 L1942.86 1521.62 L1942.86 1500.19 L1936.11 1501.55 L1936.11 1498.09 L1942.82 1496.73 L1946.62 1496.73 L1946.62 1521.62 L1952.83 1521.62 L1952.83 1524.81 L1936.65 1524.81 L1936.65 1521.62 Z" fill="#000000" fill-rule="evenodd" fill-opacity="1" /><path clip-path="url(#clip450)" d="M1969.1 1509.26 Q1966.54 1509.26 1965.04 1511.01 Q1963.55 1512.76 1963.55 1515.81 Q1963.55 1518.83 1965.04 1520.6 Q1966.54 1522.35 1969.1 1522.35 Q1971.66 1522.35 1973.14 1520.6 Q1974.65 1518.83 1974.65 1515.81 Q1974.65 1512.76 1973.14 1511.01 Q1971.66 1509.26 1969.1 1509.26 M1976.64 1497.35 L1976.64 1500.82 Q1975.21 1500.14 1973.74 1499.78 Q1972.29 1499.42 1970.87 1499.42 Q1967.1 1499.42 1965.11 1501.96 Q1963.14 1504.5 1962.85 1509.64 Q1963.96 1508 1965.64 1507.13 Q1967.31 1506.25 1969.32 1506.25 Q1973.55 1506.25 1976 1508.83 Q1978.46 1511.39 1978.46 1515.81 Q1978.46 1520.13 1975.91 1522.75 Q1973.35 1525.36 1969.1 1525.36 Q1964.23 1525.36 1961.65 1521.64 Q1959.07 1517.89 1959.07 1510.8 Q1959.07 1504.14 1962.23 1500.19 Q1965.39 1496.23 1970.72 1496.23 Q1972.14 1496.23 1973.59 1496.51 Q1975.06 1496.79 1976.64 1497.35 Z" fill="#000000" fill-rule="evenodd" fill-opacity="1" /><path clip-path="url(#clip450)" d="M2232.97 1548.29 L2240.61 1548.29 L2240.61 1521.92 L2232.3 1523.59 L2232.3 1519.33 L2240.56 1517.66 L2245.23 1517.66 L2245.23 1548.29 L2252.87 1548.29 L2252.87 1552.22 L2232.97 1552.22 L2232.97 1548.29 Z" fill="#000000" fill-rule="evenodd" fill-opacity="1" /><path clip-path="url(#clip450)" d="M2262.32 1546.35 L2267.2 1546.35 L2267.2 1552.22 L2262.32 1552.22 L2262.32 1546.35 Z" fill="#000000" fill-rule="evenodd" fill-opacity="1" /><path clip-path="url(#clip450)" d="M2287.39 1520.74 Q2283.78 1520.74 2281.95 1524.31 Q2280.14 1527.85 2280.14 1534.98 Q2280.14 1542.09 2281.95 1545.65 Q2283.78 1549.19 2287.39 1549.19 Q2291.02 1549.19 2292.83 1545.65 Q2294.66 1542.09 2294.66 1534.98 Q2294.66 1527.85 2292.83 1524.31 Q2291.02 1520.74 2287.39 1520.74 M2287.39 1517.04 Q2293.2 1517.04 2296.25 1521.65 Q2299.33 1526.23 2299.33 1534.98 Q2299.33 1543.71 2296.25 1548.31 Q2293.2 1552.9 2287.39 1552.9 Q2281.58 1552.9 2278.5 1548.31 Q2275.44 1543.71 2275.44 1534.98 Q2275.44 1526.23 2278.5 1521.65 Q2281.58 1517.04 2287.39 1517.04 Z" fill="#000000" fill-rule="evenodd" fill-opacity="1" /><path clip-path="url(#clip450)" d="M2335.72 1526.76 L2325.14 1537.39 L2335.72 1547.97 L2332.97 1550.77 L2322.34 1540.14 L2311.72 1550.77 L2308.98 1547.97 L2319.54 1537.39 L2308.98 1526.76 L2311.72 1523.96 L2322.34 1534.59 L2332.97 1523.96 L2335.72 1526.76 Z" fill="#000000" fill-rule="evenodd" fill-opacity="1" /><path clip-path="url(#clip450)" d="M2348.08 1548.29 L2355.72 1548.29 L2355.72 1521.92 L2347.41 1523.59 L2347.41 1519.33 L2355.67 1517.66 L2360.35 1517.66 L2360.35 1548.29 L2367.99 1548.29 L2367.99 1552.22 L2348.08 1552.22 L2348.08 1548.29 Z" fill="#000000" fill-rule="evenodd" fill-opacity="1" /><path clip-path="url(#clip450)" d="M2387.43 1520.74 Q2383.82 1520.74 2381.99 1524.31 Q2380.19 1527.85 2380.19 1534.98 Q2380.19 1542.09 2381.99 1545.65 Q2383.82 1549.19 2387.43 1549.19 Q2391.07 1549.19 2392.87 1545.65 Q2394.7 1542.09 2394.7 1534.98 Q2394.7 1527.85 2392.87 1524.31 Q2391.07 1520.74 2387.43 1520.74 M2387.43 1517.04 Q2393.24 1517.04 2396.3 1521.65 Q2399.38 1526.23 2399.38 1534.98 Q2399.38 1543.71 2396.3 1548.31 Q2393.24 1552.9 2387.43 1552.9 Q2381.62 1552.9 2378.54 1548.31 Q2375.49 1543.71 2375.49 1534.98 Q2375.49 1526.23 2378.54 1521.65 Q2381.62 1517.04 2387.43 1517.04 Z" fill="#000000" fill-rule="evenodd" fill-opacity="1" /><path clip-path="url(#clip450)" d="M2399.38 1511.14 L2423.49 1511.14 L2423.49 1514.34 L2399.38 1514.34 L2399.38 1511.14 Z" fill="#000000" fill-rule="evenodd" fill-opacity="1" /><path clip-path="url(#clip450)" d="M2432.35 1521.62 L2438.55 1521.62 L2438.55 1500.19 L2431.8 1501.55 L2431.8 1498.09 L2438.52 1496.73 L2442.32 1496.73 L2442.32 1521.62 L2448.52 1521.62 L2448.52 1524.81 L2432.35 1524.81 L2432.35 1521.62 Z" fill="#000000" fill-rule="evenodd" fill-opacity="1" /><path clip-path="url(#clip450)" d="M2456.23 1496.73 L2471.15 1496.73 L2471.15 1499.93 L2459.71 1499.93 L2459.71 1506.82 Q2460.54 1506.53 2461.37 1506.4 Q2462.2 1506.25 2463.02 1506.25 Q2467.72 1506.25 2470.47 1508.83 Q2473.22 1511.4 2473.22 1515.81 Q2473.22 1520.34 2470.4 1522.86 Q2467.57 1525.36 2462.44 1525.36 Q2460.67 1525.36 2458.83 1525.06 Q2457 1524.76 2455.05 1524.16 L2455.05 1520.34 Q2456.74 1521.26 2458.55 1521.71 Q2460.35 1522.16 2462.36 1522.16 Q2465.62 1522.16 2467.52 1520.45 Q2469.42 1518.74 2469.42 1515.81 Q2469.42 1512.87 2467.52 1511.16 Q2465.62 1509.45 2462.36 1509.45 Q2460.84 1509.45 2459.32 1509.79 Q2457.81 1510.13 2456.23 1510.84 L2456.23 1496.73 Z" fill="#000000" fill-rule="evenodd" fill-opacity="1" /><polyline clip-path="url(#clip452)" style="stroke:#000000; stroke-linecap:butt; stroke-linejoin:round; stroke-width:2; stroke-opacity:0.1; fill:none" points="
  368.761,1409.3 2352.76,1409.3 
  "/>
<polyline clip-path="url(#clip452)" style="stroke:#000000; stroke-linecap:butt; stroke-linejoin:round; stroke-width:2; stroke-opacity:0.1; fill:none" points="
  368.761,1085 2352.76,1085 
  "/>
<polyline clip-path="url(#clip452)" style="stroke:#000000; stroke-linecap:butt; stroke-linejoin:round; stroke-width:2; stroke-opacity:0.1; fill:none" points="
  368.761,760.704 2352.76,760.704 
  "/>
<polyline clip-path="url(#clip452)" style="stroke:#000000; stroke-linecap:butt; stroke-linejoin:round; stroke-width:2; stroke-opacity:0.1; fill:none" points="
  368.761,436.404 2352.76,436.404 
  "/>
<polyline clip-path="url(#clip452)" style="stroke:#000000; stroke-linecap:butt; stroke-linejoin:round; stroke-width:2; stroke-opacity:0.1; fill:none" points="
  368.761,112.104 2352.76,112.104 
  "/>
<polyline clip-path="url(#clip450)" style="stroke:#000000; stroke-linecap:butt; stroke-linejoin:round; stroke-width:4; stroke-opacity:1; fill:none" points="
  368.761,1474.16 368.761,47.2441 
  "/>
<polyline clip-path="url(#clip450)" style="stroke:#000000; stroke-linecap:butt; stroke-linejoin:round; stroke-width:4; stroke-opacity:1; fill:none" points="
  368.761,1409.3 387.659,1409.3 
  "/>
<polyline clip-path="url(#clip450)" style="stroke:#000000; stroke-linecap:butt; stroke-linejoin:round; stroke-width:4; stroke-opacity:1; fill:none" points="
  368.761,1085 387.659,1085 
  "/>
<polyline clip-path="url(#clip450)" style="stroke:#000000; stroke-linecap:butt; stroke-linejoin:round; stroke-width:4; stroke-opacity:1; fill:none" points="
  368.761,760.704 387.659,760.704 
  "/>
<polyline clip-path="url(#clip450)" style="stroke:#000000; stroke-linecap:butt; stroke-linejoin:round; stroke-width:4; stroke-opacity:1; fill:none" points="
  368.761,436.404 387.659,436.404 
  "/>
<polyline clip-path="url(#clip450)" style="stroke:#000000; stroke-linecap:butt; stroke-linejoin:round; stroke-width:4; stroke-opacity:1; fill:none" points="
  368.761,112.104 387.659,112.104 
  "/>
<path clip-path="url(#clip450)" d="M51.9325 1416.2 L81.6083 1416.2 L81.6083 1420.14 L51.9325 1420.14 L51.9325 1416.2 Z" fill="#000000" fill-rule="evenodd" fill-opacity="1" /><path clip-path="url(#clip450)" d="M92.511 1429.1 L100.15 1429.1 L100.15 1402.73 L91.8397 1404.4 L91.8397 1400.14 L100.104 1398.47 L104.779 1398.47 L104.779 1429.1 L112.418 1429.1 L112.418 1433.03 L92.511 1433.03 L92.511 1429.1 Z" fill="#000000" fill-rule="evenodd" fill-opacity="1" /><path clip-path="url(#clip450)" d="M121.863 1427.15 L126.747 1427.15 L126.747 1433.03 L121.863 1433.03 L121.863 1427.15 Z" fill="#000000" fill-rule="evenodd" fill-opacity="1" /><path clip-path="url(#clip450)" d="M146.932 1401.55 Q143.321 1401.55 141.492 1405.12 Q139.687 1408.66 139.687 1415.79 Q139.687 1422.89 141.492 1426.46 Q143.321 1430 146.932 1430 Q150.566 1430 152.372 1426.46 Q154.2 1422.89 154.2 1415.79 Q154.2 1408.66 152.372 1405.12 Q150.566 1401.55 146.932 1401.55 M146.932 1397.85 Q152.742 1397.85 155.798 1402.45 Q158.876 1407.04 158.876 1415.79 Q158.876 1424.51 155.798 1429.12 Q152.742 1433.7 146.932 1433.7 Q141.122 1433.7 138.043 1429.12 Q134.988 1424.51 134.988 1415.79 Q134.988 1407.04 138.043 1402.45 Q141.122 1397.85 146.932 1397.85 Z" fill="#000000" fill-rule="evenodd" fill-opacity="1" /><path clip-path="url(#clip450)" d="M195.265 1407.57 L184.686 1418.19 L195.265 1428.77 L192.51 1431.57 L181.886 1420.95 L171.261 1431.57 L168.529 1428.77 L179.085 1418.19 L168.529 1407.57 L171.261 1404.77 L181.886 1415.39 L192.51 1404.77 L195.265 1407.57 Z" fill="#000000" fill-rule="evenodd" fill-opacity="1" /><path clip-path="url(#clip450)" d="M207.626 1429.1 L215.265 1429.1 L215.265 1402.73 L206.955 1404.4 L206.955 1400.14 L215.219 1398.47 L219.895 1398.47 L219.895 1429.1 L227.533 1429.1 L227.533 1433.03 L207.626 1433.03 L207.626 1429.1 Z" fill="#000000" fill-rule="evenodd" fill-opacity="1" /><path clip-path="url(#clip450)" d="M246.978 1401.55 Q243.367 1401.55 241.538 1405.12 Q239.732 1408.66 239.732 1415.79 Q239.732 1422.89 241.538 1426.46 Q243.367 1430 246.978 1430 Q250.612 1430 252.418 1426.46 Q254.246 1422.89 254.246 1415.79 Q254.246 1408.66 252.418 1405.12 Q250.612 1401.55 246.978 1401.55 M246.978 1397.85 Q252.788 1397.85 255.843 1402.45 Q258.922 1407.04 258.922 1415.79 Q258.922 1424.51 255.843 1429.12 Q252.788 1433.7 246.978 1433.7 Q241.168 1433.7 238.089 1429.12 Q235.033 1424.51 235.033 1415.79 Q235.033 1407.04 238.089 1402.45 Q241.168 1397.85 246.978 1397.85 Z" fill="#000000" fill-rule="evenodd" fill-opacity="1" /><path clip-path="url(#clip450)" d="M258.922 1391.95 L283.034 1391.95 L283.034 1395.15 L258.922 1395.15 L258.922 1391.95 Z" fill="#000000" fill-rule="evenodd" fill-opacity="1" /><path clip-path="url(#clip450)" d="M291.892 1402.42 L298.099 1402.42 L298.099 1381 L291.347 1382.36 L291.347 1378.9 L298.061 1377.54 L301.86 1377.54 L301.86 1402.42 L308.067 1402.42 L308.067 1405.62 L291.892 1405.62 L291.892 1402.42 Z" fill="#000000" fill-rule="evenodd" fill-opacity="1" /><path clip-path="url(#clip450)" d="M315.778 1377.54 L330.693 1377.54 L330.693 1380.74 L319.257 1380.74 L319.257 1387.62 Q320.085 1387.34 320.913 1387.21 Q321.74 1387.06 322.568 1387.06 Q327.27 1387.06 330.016 1389.64 Q332.761 1392.21 332.761 1396.61 Q332.761 1401.15 329.94 1403.67 Q327.119 1406.17 321.985 1406.17 Q320.217 1406.17 318.374 1405.87 Q316.549 1405.57 314.593 1404.96 L314.593 1401.15 Q316.286 1402.07 318.091 1402.52 Q319.897 1402.97 321.909 1402.97 Q325.163 1402.97 327.063 1401.26 Q328.962 1399.55 328.962 1396.61 Q328.962 1393.68 327.063 1391.97 Q325.163 1390.26 321.909 1390.26 Q320.386 1390.26 318.863 1390.59 Q317.358 1390.93 315.778 1391.65 L315.778 1377.54 Z" fill="#000000" fill-rule="evenodd" fill-opacity="1" /><path clip-path="url(#clip450)" d="M50.9921 1091.9 L80.6679 1091.9 L80.6679 1095.84 L50.9921 1095.84 L50.9921 1091.9 Z" fill="#000000" fill-rule="evenodd" fill-opacity="1" /><path clip-path="url(#clip450)" d="M90.8067 1074.17 L109.163 1074.17 L109.163 1078.11 L95.0891 1078.11 L95.0891 1086.58 Q96.1076 1086.23 97.1261 1086.07 Q98.1447 1085.89 99.1632 1085.89 Q104.95 1085.89 108.33 1089.06 Q111.709 1092.23 111.709 1097.64 Q111.709 1103.22 108.237 1106.32 Q104.765 1109.4 98.4456 1109.4 Q96.2697 1109.4 94.0012 1109.03 Q91.7558 1108.66 89.3484 1107.92 L89.3484 1103.22 Q91.4317 1104.36 93.6539 1104.91 Q95.8761 1105.47 98.353 1105.47 Q102.358 1105.47 104.696 1103.36 Q107.033 1101.26 107.033 1097.64 Q107.033 1094.03 104.696 1091.93 Q102.358 1089.82 98.353 1089.82 Q96.478 1089.82 94.603 1090.24 Q92.7512 1090.65 90.8067 1091.53 L90.8067 1074.17 Z" fill="#000000" fill-rule="evenodd" fill-opacity="1" /><path clip-path="url(#clip450)" d="M120.922 1102.85 L125.807 1102.85 L125.807 1108.73 L120.922 1108.73 L120.922 1102.85 Z" fill="#000000" fill-rule="evenodd" fill-opacity="1" /><path clip-path="url(#clip450)" d="M145.992 1077.25 Q142.381 1077.25 140.552 1080.82 Q138.746 1084.36 138.746 1091.49 Q138.746 1098.59 140.552 1102.16 Q142.381 1105.7 145.992 1105.7 Q149.626 1105.7 151.431 1102.16 Q153.26 1098.59 153.26 1091.49 Q153.26 1084.36 151.431 1080.82 Q149.626 1077.25 145.992 1077.25 M145.992 1073.55 Q151.802 1073.55 154.857 1078.15 Q157.936 1082.74 157.936 1091.49 Q157.936 1100.21 154.857 1104.82 Q151.802 1109.4 145.992 1109.4 Q140.181 1109.4 137.103 1104.82 Q134.047 1100.21 134.047 1091.49 Q134.047 1082.74 137.103 1078.15 Q140.181 1073.55 145.992 1073.55 Z" fill="#000000" fill-rule="evenodd" fill-opacity="1" /><path clip-path="url(#clip450)" d="M194.325 1083.27 L183.746 1093.89 L194.325 1104.47 L191.57 1107.27 L180.945 1096.65 L170.32 1107.27 L167.589 1104.47 L178.144 1093.89 L167.589 1083.27 L170.32 1080.47 L180.945 1091.09 L191.57 1080.47 L194.325 1083.27 Z" fill="#000000" fill-rule="evenodd" fill-opacity="1" /><path clip-path="url(#clip450)" d="M206.686 1104.8 L214.325 1104.8 L214.325 1078.43 L206.014 1080.1 L206.014 1075.84 L214.278 1074.17 L218.954 1074.17 L218.954 1104.8 L226.593 1104.8 L226.593 1108.73 L206.686 1108.73 L206.686 1104.8 Z" fill="#000000" fill-rule="evenodd" fill-opacity="1" /><path clip-path="url(#clip450)" d="M246.037 1077.25 Q242.426 1077.25 240.598 1080.82 Q238.792 1084.36 238.792 1091.49 Q238.792 1098.59 240.598 1102.16 Q242.426 1105.7 246.037 1105.7 Q249.672 1105.7 251.477 1102.16 Q253.306 1098.59 253.306 1091.49 Q253.306 1084.36 251.477 1080.82 Q249.672 1077.25 246.037 1077.25 M246.037 1073.55 Q251.848 1073.55 254.903 1078.15 Q257.982 1082.74 257.982 1091.49 Q257.982 1100.21 254.903 1104.82 Q251.848 1109.4 246.037 1109.4 Q240.227 1109.4 237.149 1104.82 Q234.093 1100.21 234.093 1091.49 Q234.093 1082.74 237.149 1078.15 Q240.227 1073.55 246.037 1073.55 Z" fill="#000000" fill-rule="evenodd" fill-opacity="1" /><path clip-path="url(#clip450)" d="M257.982 1067.65 L282.093 1067.65 L282.093 1070.85 L257.982 1070.85 L257.982 1067.65 Z" fill="#000000" fill-rule="evenodd" fill-opacity="1" /><path clip-path="url(#clip450)" d="M290.952 1078.12 L297.158 1078.12 L297.158 1056.7 L290.406 1058.06 L290.406 1054.6 L297.121 1053.24 L300.92 1053.24 L300.92 1078.12 L307.126 1078.12 L307.126 1081.32 L290.952 1081.32 L290.952 1078.12 Z" fill="#000000" fill-rule="evenodd" fill-opacity="1" /><path clip-path="url(#clip450)" d="M323.395 1065.77 Q320.837 1065.77 319.333 1067.52 Q317.847 1069.27 317.847 1072.31 Q317.847 1075.34 319.333 1077.11 Q320.837 1078.86 323.395 1078.86 Q325.953 1078.86 327.439 1077.11 Q328.943 1075.34 328.943 1072.31 Q328.943 1069.27 327.439 1067.52 Q325.953 1065.77 323.395 1065.77 M330.937 1053.86 L330.937 1057.32 Q329.508 1056.65 328.041 1056.29 Q326.593 1055.93 325.163 1055.93 Q321.402 1055.93 319.408 1058.47 Q317.433 1061.01 317.151 1066.14 Q318.261 1064.51 319.935 1063.64 Q321.608 1062.76 323.621 1062.76 Q327.853 1062.76 330.298 1065.34 Q332.761 1067.89 332.761 1072.31 Q332.761 1076.64 330.204 1079.25 Q327.646 1081.87 323.395 1081.87 Q318.524 1081.87 315.947 1078.14 Q313.371 1074.4 313.371 1067.31 Q313.371 1060.65 316.53 1056.7 Q319.69 1052.73 325.013 1052.73 Q326.442 1052.73 327.89 1053.02 Q329.357 1053.3 330.937 1053.86 Z" fill="#000000" fill-rule="evenodd" fill-opacity="1" /><path clip-path="url(#clip450)" d="M320.817 746.503 Q317.206 746.503 315.377 750.068 Q313.572 753.61 313.572 760.739 Q313.572 767.846 315.377 771.41 Q317.206 774.952 320.817 774.952 Q324.451 774.952 326.257 771.41 Q328.086 767.846 328.086 760.739 Q328.086 753.61 326.257 750.068 Q324.451 746.503 320.817 746.503 M320.817 742.799 Q326.627 742.799 329.683 747.406 Q332.761 751.989 332.761 760.739 Q332.761 769.466 329.683 774.072 Q326.627 778.656 320.817 778.656 Q315.007 778.656 311.928 774.072 Q308.873 769.466 308.873 760.739 Q308.873 751.989 311.928 747.406 Q315.007 742.799 320.817 742.799 Z" fill="#000000" fill-rule="evenodd" fill-opacity="1" /><path clip-path="url(#clip450)" d="M90.8067 425.572 L109.163 425.572 L109.163 429.507 L95.0891 429.507 L95.0891 437.979 Q96.1076 437.632 97.1261 437.47 Q98.1447 437.285 99.1632 437.285 Q104.95 437.285 108.33 440.456 Q111.709 443.627 111.709 449.044 Q111.709 454.623 108.237 457.724 Q104.765 460.803 98.4456 460.803 Q96.2697 460.803 94.0012 460.433 Q91.7558 460.062 89.3484 459.322 L89.3484 454.623 Q91.4317 455.757 93.6539 456.312 Q95.8761 456.868 98.353 456.868 Q102.358 456.868 104.696 454.762 Q107.033 452.655 107.033 449.044 Q107.033 445.433 104.696 443.326 Q102.358 441.22 98.353 441.22 Q96.478 441.22 94.603 441.637 Q92.7512 442.053 90.8067 442.933 L90.8067 425.572 Z" fill="#000000" fill-rule="evenodd" fill-opacity="1" /><path clip-path="url(#clip450)" d="M120.922 454.252 L125.807 454.252 L125.807 460.132 L120.922 460.132 L120.922 454.252 Z" fill="#000000" fill-rule="evenodd" fill-opacity="1" /><path clip-path="url(#clip450)" d="M145.992 428.651 Q142.381 428.651 140.552 432.215 Q138.746 435.757 138.746 442.887 Q138.746 449.993 140.552 453.558 Q142.381 457.099 145.992 457.099 Q149.626 457.099 151.431 453.558 Q153.26 449.993 153.26 442.887 Q153.26 435.757 151.431 432.215 Q149.626 428.651 145.992 428.651 M145.992 424.947 Q151.802 424.947 154.857 429.553 Q157.936 434.137 157.936 442.887 Q157.936 451.613 154.857 456.22 Q151.802 460.803 145.992 460.803 Q140.181 460.803 137.103 456.22 Q134.047 451.613 134.047 442.887 Q134.047 434.137 137.103 429.553 Q140.181 424.947 145.992 424.947 Z" fill="#000000" fill-rule="evenodd" fill-opacity="1" /><path clip-path="url(#clip450)" d="M194.325 434.669 L183.746 445.294 L194.325 455.873 L191.57 458.674 L180.945 448.049 L170.32 458.674 L167.589 455.873 L178.144 445.294 L167.589 434.669 L170.32 431.868 L180.945 442.493 L191.57 431.868 L194.325 434.669 Z" fill="#000000" fill-rule="evenodd" fill-opacity="1" /><path clip-path="url(#clip450)" d="M206.686 456.197 L214.325 456.197 L214.325 429.831 L206.014 431.498 L206.014 427.239 L214.278 425.572 L218.954 425.572 L218.954 456.197 L226.593 456.197 L226.593 460.132 L206.686 460.132 L206.686 456.197 Z" fill="#000000" fill-rule="evenodd" fill-opacity="1" /><path clip-path="url(#clip450)" d="M246.037 428.651 Q242.426 428.651 240.598 432.215 Q238.792 435.757 238.792 442.887 Q238.792 449.993 240.598 453.558 Q242.426 457.099 246.037 457.099 Q249.672 457.099 251.477 453.558 Q253.306 449.993 253.306 442.887 Q253.306 435.757 251.477 432.215 Q249.672 428.651 246.037 428.651 M246.037 424.947 Q251.848 424.947 254.903 429.553 Q257.982 434.137 257.982 442.887 Q257.982 451.613 254.903 456.22 Q251.848 460.803 246.037 460.803 Q240.227 460.803 237.149 456.22 Q234.093 451.613 234.093 442.887 Q234.093 434.137 237.149 429.553 Q240.227 424.947 246.037 424.947 Z" fill="#000000" fill-rule="evenodd" fill-opacity="1" /><path clip-path="url(#clip450)" d="M257.982 419.048 L282.093 419.048 L282.093 422.246 L257.982 422.246 L257.982 419.048 Z" fill="#000000" fill-rule="evenodd" fill-opacity="1" /><path clip-path="url(#clip450)" d="M290.952 429.524 L297.158 429.524 L297.158 408.102 L290.406 409.456 L290.406 405.996 L297.121 404.641 L300.92 404.641 L300.92 429.524 L307.126 429.524 L307.126 432.721 L290.952 432.721 L290.952 429.524 Z" fill="#000000" fill-rule="evenodd" fill-opacity="1" /><path clip-path="url(#clip450)" d="M323.395 417.167 Q320.837 417.167 319.333 418.917 Q317.847 420.666 317.847 423.713 Q317.847 426.741 319.333 428.509 Q320.837 430.258 323.395 430.258 Q325.953 430.258 327.439 428.509 Q328.943 426.741 328.943 423.713 Q328.943 420.666 327.439 418.917 Q325.953 417.167 323.395 417.167 M330.937 405.262 L330.937 408.723 Q329.508 408.046 328.041 407.688 Q326.593 407.331 325.163 407.331 Q321.402 407.331 319.408 409.87 Q317.433 412.409 317.151 417.544 Q318.261 415.907 319.935 415.042 Q321.608 414.158 323.621 414.158 Q327.853 414.158 330.298 416.735 Q332.761 419.293 332.761 423.713 Q332.761 428.038 330.204 430.653 Q327.646 433.267 323.395 433.267 Q318.524 433.267 315.947 429.543 Q313.371 425.8 313.371 418.71 Q313.371 412.052 316.53 408.102 Q319.69 404.134 325.013 404.134 Q326.442 404.134 327.89 404.416 Q329.357 404.698 330.937 405.262 Z" fill="#000000" fill-rule="evenodd" fill-opacity="1" /><path clip-path="url(#clip450)" d="M92.511 131.897 L100.15 131.897 L100.15 105.531 L91.8397 107.198 L91.8397 102.938 L100.104 101.272 L104.779 101.272 L104.779 131.897 L112.418 131.897 L112.418 135.832 L92.511 135.832 L92.511 131.897 Z" fill="#000000" fill-rule="evenodd" fill-opacity="1" /><path clip-path="url(#clip450)" d="M121.863 129.952 L126.747 129.952 L126.747 135.832 L121.863 135.832 L121.863 129.952 Z" fill="#000000" fill-rule="evenodd" fill-opacity="1" /><path clip-path="url(#clip450)" d="M146.932 104.35 Q143.321 104.35 141.492 107.915 Q139.687 111.457 139.687 118.586 Q139.687 125.693 141.492 129.258 Q143.321 132.799 146.932 132.799 Q150.566 132.799 152.372 129.258 Q154.2 125.693 154.2 118.586 Q154.2 111.457 152.372 107.915 Q150.566 104.35 146.932 104.35 M146.932 100.647 Q152.742 100.647 155.798 105.253 Q158.876 109.836 158.876 118.586 Q158.876 127.313 155.798 131.92 Q152.742 136.503 146.932 136.503 Q141.122 136.503 138.043 131.92 Q134.988 127.313 134.988 118.586 Q134.988 109.836 138.043 105.253 Q141.122 100.647 146.932 100.647 Z" fill="#000000" fill-rule="evenodd" fill-opacity="1" /><path clip-path="url(#clip450)" d="M195.265 110.369 L184.686 120.994 L195.265 131.572 L192.51 134.373 L181.886 123.748 L171.261 134.373 L168.529 131.572 L179.085 120.994 L168.529 110.369 L171.261 107.568 L181.886 118.193 L192.51 107.568 L195.265 110.369 Z" fill="#000000" fill-rule="evenodd" fill-opacity="1" /><path clip-path="url(#clip450)" d="M207.626 131.897 L215.265 131.897 L215.265 105.531 L206.955 107.198 L206.955 102.938 L215.219 101.272 L219.895 101.272 L219.895 131.897 L227.533 131.897 L227.533 135.832 L207.626 135.832 L207.626 131.897 Z" fill="#000000" fill-rule="evenodd" fill-opacity="1" /><path clip-path="url(#clip450)" d="M246.978 104.35 Q243.367 104.35 241.538 107.915 Q239.732 111.457 239.732 118.586 Q239.732 125.693 241.538 129.258 Q243.367 132.799 246.978 132.799 Q250.612 132.799 252.418 129.258 Q254.246 125.693 254.246 118.586 Q254.246 111.457 252.418 107.915 Q250.612 104.35 246.978 104.35 M246.978 100.647 Q252.788 100.647 255.843 105.253 Q258.922 109.836 258.922 118.586 Q258.922 127.313 255.843 131.92 Q252.788 136.503 246.978 136.503 Q241.168 136.503 238.089 131.92 Q235.033 127.313 235.033 118.586 Q235.033 109.836 238.089 105.253 Q241.168 100.647 246.978 100.647 Z" fill="#000000" fill-rule="evenodd" fill-opacity="1" /><path clip-path="url(#clip450)" d="M258.922 94.7481 L283.034 94.7481 L283.034 97.9454 L258.922 97.9454 L258.922 94.7481 Z" fill="#000000" fill-rule="evenodd" fill-opacity="1" /><path clip-path="url(#clip450)" d="M291.892 105.224 L298.099 105.224 L298.099 83.802 L291.347 85.1561 L291.347 81.6955 L298.061 80.3413 L301.86 80.3413 L301.86 105.224 L308.067 105.224 L308.067 108.421 L291.892 108.421 L291.892 105.224 Z" fill="#000000" fill-rule="evenodd" fill-opacity="1" /><path clip-path="url(#clip450)" d="M315.778 80.3413 L330.693 80.3413 L330.693 83.5386 L319.257 83.5386 L319.257 90.4223 Q320.085 90.1402 320.913 90.0085 Q321.74 89.8581 322.568 89.8581 Q327.27 89.8581 330.016 92.4347 Q332.761 95.0114 332.761 99.4124 Q332.761 103.945 329.94 106.465 Q327.119 108.967 321.985 108.967 Q320.217 108.967 318.374 108.666 Q316.549 108.365 314.593 107.763 L314.593 103.945 Q316.286 104.867 318.091 105.318 Q319.897 105.769 321.909 105.769 Q325.163 105.769 327.063 104.058 Q328.962 102.346 328.962 99.4124 Q328.962 96.4784 327.063 94.7669 Q325.163 93.0554 321.909 93.0554 Q320.386 93.0554 318.863 93.3939 Q317.358 93.7325 315.778 94.4471 L315.778 80.3413 Z" fill="#000000" fill-rule="evenodd" fill-opacity="1" /><polyline clip-path="url(#clip452)" style="stroke:#009af9; stroke-linecap:butt; stroke-linejoin:round; stroke-width:16; stroke-opacity:1; fill:none" points="
  368.761,1409.3 388.137,1396.64 567.29,1279.5 674.953,1209.11 765.981,1149.59 864.863,1084.94 956.024,1025.33 1053.76,961.432 1166.99,887.396 1267.62,821.601 
  1355.86,763.905 1452.07,701.001 1548.85,637.724 1655.85,567.762 1757.66,501.195 1863.52,431.981 1952.63,373.717 2061.43,302.584 2163.7,235.717 2327.54,128.59 
  2352.76,112.104 
  "/>
<path clip-path="url(#clip450)" d="
M2013.75 198.488 L2286.62 198.488 L2286.62 94.8081 L2013.75 94.8081  Z
  " fill="#ffffff" fill-rule="evenodd" fill-opacity="1"/>
<polyline clip-path="url(#clip450)" style="stroke:#000000; stroke-linecap:butt; stroke-linejoin:round; stroke-width:4; stroke-opacity:1; fill:none" points="
  2013.75,198.488 2286.62,198.488 2286.62,94.8081 2013.75,94.8081 2013.75,198.488 
  "/>
<polyline clip-path="url(#clip450)" style="stroke:#009af9; stroke-linecap:butt; stroke-linejoin:round; stroke-width:4; stroke-opacity:1; fill:none" points="
  2035.79,146.648 2168.06,146.648 
  "/>
<path clip-path="url(#clip450)" d="M2203.95 166.336 Q2202.14 170.965 2200.43 172.377 Q2198.71 173.789 2195.84 173.789 L2192.44 173.789 L2192.44 170.224 L2194.94 170.224 Q2196.7 170.224 2197.67 169.391 Q2198.65 168.558 2199.83 165.456 L2200.59 163.511 L2190.1 138.002 L2194.62 138.002 L2202.72 158.28 L2210.82 138.002 L2215.34 138.002 L2203.95 166.336 Z" fill="#000000" fill-rule="evenodd" fill-opacity="1" /><path clip-path="url(#clip450)" d="M2222.63 159.993 L2230.27 159.993 L2230.27 133.627 L2221.96 135.294 L2221.96 131.035 L2230.22 129.368 L2234.9 129.368 L2234.9 159.993 L2242.53 159.993 L2242.53 163.928 L2222.63 163.928 L2222.63 159.993 Z" fill="#000000" fill-rule="evenodd" fill-opacity="1" /></svg>
