<?xml version="1.0" encoding="utf-8"?>
<svg xmlns="http://www.w3.org/2000/svg" xmlns:xlink="http://www.w3.org/1999/xlink" width="600" height="400" viewBox="0 0 2400 1600">
<defs>
  <clipPath id="clip440">
    <rect x="0" y="0" width="2400" height="1600"/>
  </clipPath>
</defs>
<path clip-path="url(#clip440)" d="
M0 1600 L2400 1600 L2400 0 L0 0  Z
  " fill="#ffffff" fill-rule="evenodd" fill-opacity="1"/>
<defs>
  <clipPath id="clip441">
    <rect x="480" y="0" width="1681" height="1600"/>
  </clipPath>
</defs>
<defs>
  <clipPath id="clip442">
    <rect x="251" y="47" width="2102" height="1365"/>
  </clipPath>
</defs>
<path clip-path="url(#clip440)" d="
M251.56 1410.9 L2352.76 1410.9 L2352.76 47.2441 L251.56 47.2441  Z
  " fill="#ffffff" fill-rule="evenodd" fill-opacity="1"/>
<polyline clip-path="url(#clip442)" style="stroke:#000000; stroke-linecap:butt; stroke-linejoin:round; stroke-width:2; stroke-opacity:0.1; fill:none" points="
  875.302,1410.9 875.302,47.2441 
  "/>
<polyline clip-path="url(#clip442)" style="stroke:#000000; stroke-linecap:butt; stroke-linejoin:round; stroke-width:2; stroke-opacity:0.1; fill:none" points="
  1584.29,1410.9 1584.29,47.2441 
  "/>
<polyline clip-path="url(#clip442)" style="stroke:#000000; stroke-linecap:butt; stroke-linejoin:round; stroke-width:2; stroke-opacity:0.1; fill:none" points="
  2293.29,1410.9 2293.29,47.2441 
  "/>
<polyline clip-path="url(#clip440)" style="stroke:#000000; stroke-linecap:butt; stroke-linejoin:round; stroke-width:4; stroke-opacity:1; fill:none" points="
  251.56,1410.9 2352.76,1410.9 
  "/>
<polyline clip-path="url(#clip440)" style="stroke:#000000; stroke-linecap:butt; stroke-linejoin:round; stroke-width:4; stroke-opacity:1; fill:none" points="
  875.302,1410.9 875.302,1392 
  "/>
<polyline clip-path="url(#clip440)" style="stroke:#000000; stroke-linecap:butt; stroke-linejoin:round; stroke-width:4; stroke-opacity:1; fill:none" points="
  1584.29,1410.9 1584.29,1392 
  "/>
<polyline clip-path="url(#clip440)" style="stroke:#000000; stroke-linecap:butt; stroke-linejoin:round; stroke-width:4; stroke-opacity:1; fill:none" points="
  2293.29,1410.9 2293.29,1392 
  "/>
<path clip-path="url(#clip440)" d="M794.29 1485.02 L801.929 1485.02 L801.929 1458.66 L793.619 1460.32 L793.619 1456.06 L801.883 1454.4 L806.558 1454.4 L806.558 1485.02 L814.197 1485.02 L814.197 1488.96 L794.29 1488.96 L794.29 1485.02 Z" fill="#000000" fill-rule="evenodd" fill-opacity="1" /><path clip-path="url(#clip440)" d="M833.642 1457.48 Q830.031 1457.48 828.202 1461.04 Q826.396 1464.58 826.396 1471.71 Q826.396 1478.82 828.202 1482.38 Q830.031 1485.92 833.642 1485.92 Q837.276 1485.92 839.081 1482.38 Q840.91 1478.82 840.91 1471.71 Q840.91 1464.58 839.081 1461.04 Q837.276 1457.48 833.642 1457.48 M833.642 1453.77 Q839.452 1453.77 842.507 1458.38 Q845.586 1462.96 845.586 1471.71 Q845.586 1480.44 842.507 1485.04 Q839.452 1489.63 833.642 1489.63 Q827.832 1489.63 824.753 1485.04 Q821.697 1480.44 821.697 1471.71 Q821.697 1462.96 824.753 1458.38 Q827.832 1453.77 833.642 1453.77 Z" fill="#000000" fill-rule="evenodd" fill-opacity="1" /><path clip-path="url(#clip440)" d="M845.586 1447.87 L869.698 1447.87 L869.698 1451.07 L845.586 1451.07 L845.586 1447.87 Z" fill="#000000" fill-rule="evenodd" fill-opacity="1" /><path clip-path="url(#clip440)" d="M886.023 1435.97 Q883.089 1435.97 881.603 1438.86 Q880.136 1441.74 880.136 1447.53 Q880.136 1453.31 881.603 1456.2 Q883.089 1459.08 886.023 1459.08 Q888.976 1459.08 890.443 1456.2 Q891.928 1453.31 891.928 1447.53 Q891.928 1441.74 890.443 1438.86 Q888.976 1435.97 886.023 1435.97 M886.023 1432.96 Q890.744 1432.96 893.226 1436.7 Q895.728 1440.43 895.728 1447.53 Q895.728 1454.62 893.226 1458.37 Q890.744 1462.09 886.023 1462.09 Q881.302 1462.09 878.801 1458.37 Q876.318 1454.62 876.318 1447.53 Q876.318 1440.43 878.801 1436.7 Q881.302 1432.96 886.023 1432.96 Z" fill="#000000" fill-rule="evenodd" fill-opacity="1" /><path clip-path="url(#clip440)" d="M902.404 1456.77 L906.373 1456.77 L906.373 1461.55 L902.404 1461.55 L902.404 1456.77 Z" fill="#000000" fill-rule="evenodd" fill-opacity="1" /><path clip-path="url(#clip440)" d="M914.686 1433.47 L929.6 1433.47 L929.6 1436.66 L918.165 1436.66 L918.165 1443.55 Q918.993 1443.27 919.82 1443.13 Q920.648 1442.98 921.475 1442.98 Q926.177 1442.98 928.923 1445.56 Q931.669 1448.14 931.669 1452.54 Q931.669 1457.07 928.848 1459.59 Q926.027 1462.09 920.892 1462.09 Q919.124 1462.09 917.281 1461.79 Q915.457 1461.49 913.501 1460.89 L913.501 1457.07 Q915.194 1457.99 916.999 1458.44 Q918.805 1458.89 920.817 1458.89 Q924.071 1458.89 925.97 1457.18 Q927.87 1455.47 927.87 1452.54 Q927.87 1449.6 925.97 1447.89 Q924.071 1446.18 920.817 1446.18 Q919.294 1446.18 917.77 1446.52 Q916.266 1446.86 914.686 1447.57 L914.686 1433.47 Z" fill="#000000" fill-rule="evenodd" fill-opacity="1" /><path clip-path="url(#clip440)" d="M947.28 1435.97 Q944.346 1435.97 942.86 1438.86 Q941.393 1441.74 941.393 1447.53 Q941.393 1453.31 942.86 1456.2 Q944.346 1459.08 947.28 1459.08 Q950.232 1459.08 951.699 1456.2 Q953.185 1453.31 953.185 1447.53 Q953.185 1441.74 951.699 1438.86 Q950.232 1435.97 947.28 1435.97 M947.28 1432.96 Q952 1432.96 954.483 1436.7 Q956.984 1440.43 956.984 1447.53 Q956.984 1454.62 954.483 1458.37 Q952 1462.09 947.28 1462.09 Q942.559 1462.09 940.057 1458.37 Q937.575 1454.62 937.575 1447.53 Q937.575 1440.43 940.057 1436.7 Q942.559 1432.96 947.28 1432.96 Z" fill="#000000" fill-rule="evenodd" fill-opacity="1" /><path clip-path="url(#clip440)" d="M1503.69 1485.02 L1511.33 1485.02 L1511.33 1458.66 L1503.02 1460.32 L1503.02 1456.06 L1511.28 1454.4 L1515.96 1454.4 L1515.96 1485.02 L1523.59 1485.02 L1523.59 1488.96 L1503.69 1488.96 L1503.69 1485.02 Z" fill="#000000" fill-rule="evenodd" fill-opacity="1" /><path clip-path="url(#clip440)" d="M1543.04 1457.48 Q1539.43 1457.48 1537.6 1461.04 Q1535.79 1464.58 1535.79 1471.71 Q1535.79 1478.82 1537.6 1482.38 Q1539.43 1485.92 1543.04 1485.92 Q1546.67 1485.92 1548.48 1482.38 Q1550.31 1478.82 1550.31 1471.71 Q1550.31 1464.58 1548.48 1461.04 Q1546.67 1457.48 1543.04 1457.48 M1543.04 1453.77 Q1548.85 1453.77 1551.9 1458.38 Q1554.98 1462.96 1554.98 1471.71 Q1554.98 1480.44 1551.9 1485.04 Q1548.85 1489.63 1543.04 1489.63 Q1537.23 1489.63 1534.15 1485.04 Q1531.09 1480.44 1531.09 1471.71 Q1531.09 1462.96 1534.15 1458.38 Q1537.23 1453.77 1543.04 1453.77 Z" fill="#000000" fill-rule="evenodd" fill-opacity="1" /><path clip-path="url(#clip440)" d="M1554.98 1447.87 L1579.1 1447.87 L1579.1 1451.07 L1554.98 1451.07 L1554.98 1447.87 Z" fill="#000000" fill-rule="evenodd" fill-opacity="1" /><path clip-path="url(#clip440)" d="M1595.42 1435.97 Q1592.49 1435.97 1591 1438.86 Q1589.53 1441.74 1589.53 1447.53 Q1589.53 1453.31 1591 1456.2 Q1592.49 1459.08 1595.42 1459.08 Q1598.37 1459.08 1599.84 1456.2 Q1601.33 1453.31 1601.33 1447.53 Q1601.33 1441.74 1599.84 1438.86 Q1598.37 1435.97 1595.42 1435.97 M1595.42 1432.96 Q1600.14 1432.96 1602.62 1436.7 Q1605.13 1440.43 1605.13 1447.53 Q1605.13 1454.62 1602.62 1458.37 Q1600.14 1462.09 1595.42 1462.09 Q1590.7 1462.09 1588.2 1458.37 Q1585.72 1454.62 1585.72 1447.53 Q1585.72 1440.43 1588.2 1436.7 Q1590.7 1432.96 1595.42 1432.96 Z" fill="#000000" fill-rule="evenodd" fill-opacity="1" /><path clip-path="url(#clip440)" d="M1611.8 1456.77 L1615.77 1456.77 L1615.77 1461.55 L1611.8 1461.55 L1611.8 1456.77 Z" fill="#000000" fill-rule="evenodd" fill-opacity="1" /><path clip-path="url(#clip440)" d="M1627.32 1458.35 L1640.58 1458.35 L1640.58 1461.55 L1622.75 1461.55 L1622.75 1458.35 Q1624.91 1456.11 1628.63 1452.35 Q1632.38 1448.57 1633.34 1447.48 Q1635.16 1445.43 1635.88 1444.02 Q1636.61 1442.59 1636.61 1441.22 Q1636.61 1438.98 1635.03 1437.57 Q1633.47 1436.16 1630.95 1436.16 Q1629.16 1436.16 1627.17 1436.78 Q1625.19 1437.4 1622.94 1438.66 L1622.94 1434.82 Q1625.23 1433.9 1627.22 1433.43 Q1629.22 1432.96 1630.87 1432.96 Q1635.24 1432.96 1637.83 1435.14 Q1640.43 1437.32 1640.43 1440.97 Q1640.43 1442.7 1639.77 1444.26 Q1639.13 1445.8 1637.42 1447.91 Q1636.95 1448.46 1634.43 1451.07 Q1631.91 1453.67 1627.32 1458.35 Z" fill="#000000" fill-rule="evenodd" fill-opacity="1" /><path clip-path="url(#clip440)" d="M1648.59 1433.47 L1663.5 1433.47 L1663.5 1436.66 L1652.07 1436.66 L1652.07 1443.55 Q1652.9 1443.27 1653.72 1443.13 Q1654.55 1442.98 1655.38 1442.98 Q1660.08 1442.98 1662.83 1445.56 Q1665.57 1448.14 1665.57 1452.54 Q1665.57 1457.07 1662.75 1459.59 Q1659.93 1462.09 1654.8 1462.09 Q1653.03 1462.09 1651.19 1461.79 Q1649.36 1461.49 1647.41 1460.89 L1647.41 1457.07 Q1649.1 1457.99 1650.9 1458.44 Q1652.71 1458.89 1654.72 1458.89 Q1657.98 1458.89 1659.87 1457.18 Q1661.77 1455.47 1661.77 1452.54 Q1661.77 1449.6 1659.87 1447.89 Q1657.98 1446.18 1654.72 1446.18 Q1653.2 1446.18 1651.67 1446.52 Q1650.17 1446.86 1648.59 1447.57 L1648.59 1433.47 Z" fill="#000000" fill-rule="evenodd" fill-opacity="1" /><path clip-path="url(#clip440)" d="M2227.64 1485.02 L2235.28 1485.02 L2235.28 1458.66 L2226.97 1460.32 L2226.97 1456.06 L2235.24 1454.4 L2239.91 1454.4 L2239.91 1485.02 L2247.55 1485.02 L2247.55 1488.96 L2227.64 1488.96 L2227.64 1485.02 Z" fill="#000000" fill-rule="evenodd" fill-opacity="1" /><path clip-path="url(#clip440)" d="M2266.99 1457.48 Q2263.38 1457.48 2261.55 1461.04 Q2259.75 1464.58 2259.75 1471.71 Q2259.75 1478.82 2261.55 1482.38 Q2263.38 1485.92 2266.99 1485.92 Q2270.63 1485.92 2272.43 1482.38 Q2274.26 1478.82 2274.26 1471.71 Q2274.26 1464.58 2272.43 1461.04 Q2270.63 1457.48 2266.99 1457.48 M2266.99 1453.77 Q2272.8 1453.77 2275.86 1458.38 Q2278.94 1462.96 2278.94 1471.71 Q2278.94 1480.44 2275.86 1485.04 Q2272.8 1489.63 2266.99 1489.63 Q2261.18 1489.63 2258.11 1485.04 Q2255.05 1480.44 2255.05 1471.71 Q2255.05 1462.96 2258.11 1458.38 Q2261.18 1453.77 2266.99 1453.77 Z" fill="#000000" fill-rule="evenodd" fill-opacity="1" /><path clip-path="url(#clip440)" d="M2288.64 1435.97 Q2285.71 1435.97 2284.22 1438.86 Q2282.76 1441.74 2282.76 1447.53 Q2282.76 1453.31 2284.22 1456.2 Q2285.71 1459.08 2288.64 1459.08 Q2291.6 1459.08 2293.06 1456.2 Q2294.55 1453.31 2294.55 1447.53 Q2294.55 1441.74 2293.06 1438.86 Q2291.6 1435.97 2288.64 1435.97 M2288.64 1432.96 Q2293.36 1432.96 2295.85 1436.7 Q2298.35 1440.43 2298.35 1447.53 Q2298.35 1454.62 2295.85 1458.37 Q2293.36 1462.09 2288.64 1462.09 Q2283.92 1462.09 2281.42 1458.37 Q2278.94 1454.62 2278.94 1447.53 Q2278.94 1440.43 2281.42 1436.7 Q2283.92 1432.96 2288.64 1432.96 Z" fill="#000000" fill-rule="evenodd" fill-opacity="1" /><path clip-path="url(#clip440)" d="M2305.02 1456.77 L2308.99 1456.77 L2308.99 1461.55 L2305.02 1461.55 L2305.02 1456.77 Z" fill="#000000" fill-rule="evenodd" fill-opacity="1" /><path clip-path="url(#clip440)" d="M2325.39 1435.97 Q2322.46 1435.97 2320.97 1438.86 Q2319.51 1441.74 2319.51 1447.53 Q2319.51 1453.31 2320.97 1456.2 Q2322.46 1459.08 2325.39 1459.08 Q2328.35 1459.08 2329.81 1456.2 Q2331.3 1453.31 2331.3 1447.53 Q2331.3 1441.74 2329.81 1438.86 Q2328.35 1435.97 2325.39 1435.97 M2325.39 1432.96 Q2330.11 1432.96 2332.6 1436.7 Q2335.1 1440.43 2335.1 1447.53 Q2335.1 1454.62 2332.6 1458.37 Q2330.11 1462.09 2325.39 1462.09 Q2320.67 1462.09 2318.17 1458.37 Q2315.69 1454.62 2315.69 1447.53 Q2315.69 1440.43 2318.17 1436.7 Q2320.67 1432.96 2325.39 1432.96 Z" fill="#000000" fill-rule="evenodd" fill-opacity="1" /><path clip-path="url(#clip440)" d="M2349.9 1435.97 Q2346.97 1435.97 2345.48 1438.86 Q2344.01 1441.74 2344.01 1447.53 Q2344.01 1453.31 2345.48 1456.2 Q2346.97 1459.08 2349.9 1459.08 Q2352.85 1459.08 2354.32 1456.2 Q2355.81 1453.31 2355.81 1447.53 Q2355.81 1441.74 2354.32 1438.86 Q2352.85 1435.97 2349.9 1435.97 M2349.9 1432.96 Q2354.62 1432.96 2357.1 1436.7 Q2359.61 1440.43 2359.61 1447.53 Q2359.61 1454.62 2357.1 1458.37 Q2354.62 1462.09 2349.9 1462.09 Q2345.18 1462.09 2342.68 1458.37 Q2340.2 1454.62 2340.2 1447.53 Q2340.2 1440.43 2342.68 1436.7 Q2345.18 1432.96 2349.9 1432.96 Z" fill="#000000" fill-rule="evenodd" fill-opacity="1" /><path clip-path="url(#clip440)" d="M1317.09 1552.67 L1317.09 1574.19 L1311.23 1574.19 L1311.23 1552.86 Q1311.23 1547.8 1309.26 1545.29 Q1307.28 1542.77 1303.34 1542.77 Q1298.59 1542.77 1295.86 1545.79 Q1293.12 1548.82 1293.12 1554.04 L1293.12 1574.19 L1287.23 1574.19 L1287.23 1524.66 L1293.12 1524.66 L1293.12 1544.08 Q1295.22 1540.86 1298.05 1539.27 Q1300.92 1537.68 1304.64 1537.68 Q1310.78 1537.68 1313.93 1541.5 Q1317.09 1545.29 1317.09 1552.67 Z" fill="#000000" fill-rule="evenodd" fill-opacity="1" /><polyline clip-path="url(#clip442)" style="stroke:#000000; stroke-linecap:butt; stroke-linejoin:round; stroke-width:2; stroke-opacity:0.1; fill:none" points="
  251.56,880.452 2352.76,880.452 
  "/>
<polyline clip-path="url(#clip442)" style="stroke:#000000; stroke-linecap:butt; stroke-linejoin:round; stroke-width:2; stroke-opacity:0.1; fill:none" points="
  251.56,90.6614 2352.76,90.6614 
  "/>
<polyline clip-path="url(#clip440)" style="stroke:#000000; stroke-linecap:butt; stroke-linejoin:round; stroke-width:4; stroke-opacity:1; fill:none" points="
  251.56,1410.9 251.56,47.2441 
  "/>
<polyline clip-path="url(#clip440)" style="stroke:#000000; stroke-linecap:butt; stroke-linejoin:round; stroke-width:4; stroke-opacity:1; fill:none" points="
  251.56,880.452 270.458,880.452 
  "/>
<polyline clip-path="url(#clip440)" style="stroke:#000000; stroke-linecap:butt; stroke-linejoin:round; stroke-width:4; stroke-opacity:1; fill:none" points="
  251.56,90.6614 270.458,90.6614 
  "/>
<path clip-path="url(#clip440)" d="M114.931 900.244 L122.57 900.244 L122.57 873.879 L114.26 875.545 L114.26 871.286 L122.524 869.619 L127.2 869.619 L127.2 900.244 L134.839 900.244 L134.839 904.179 L114.931 904.179 L114.931 900.244 Z" fill="#000000" fill-rule="evenodd" fill-opacity="1" /><path clip-path="url(#clip440)" d="M154.283 872.698 Q150.672 872.698 148.843 876.263 Q147.038 879.805 147.038 886.934 Q147.038 894.041 148.843 897.605 Q150.672 901.147 154.283 901.147 Q157.917 901.147 159.723 897.605 Q161.552 894.041 161.552 886.934 Q161.552 879.805 159.723 876.263 Q157.917 872.698 154.283 872.698 M154.283 868.994 Q160.093 868.994 163.149 873.601 Q166.227 878.184 166.227 886.934 Q166.227 895.661 163.149 900.267 Q160.093 904.851 154.283 904.851 Q148.473 904.851 145.394 900.267 Q142.339 895.661 142.339 886.934 Q142.339 878.184 145.394 873.601 Q148.473 868.994 154.283 868.994 Z" fill="#000000" fill-rule="evenodd" fill-opacity="1" /><path clip-path="url(#clip440)" d="M166.227 863.096 L190.339 863.096 L190.339 866.293 L166.227 866.293 L166.227 863.096 Z" fill="#000000" fill-rule="evenodd" fill-opacity="1" /><path clip-path="url(#clip440)" d="M198.577 848.689 L213.491 848.689 L213.491 851.886 L202.056 851.886 L202.056 858.77 Q202.884 858.488 203.711 858.356 Q204.539 858.206 205.366 858.206 Q210.068 858.206 212.814 860.782 Q215.56 863.359 215.56 867.76 Q215.56 872.293 212.739 874.813 Q209.918 877.314 204.783 877.314 Q203.015 877.314 201.172 877.013 Q199.348 876.713 197.392 876.111 L197.392 872.293 Q199.085 873.214 200.89 873.666 Q202.696 874.117 204.708 874.117 Q207.962 874.117 209.861 872.406 Q211.761 870.694 211.761 867.76 Q211.761 864.826 209.861 863.115 Q207.962 861.403 204.708 861.403 Q203.185 861.403 201.661 861.742 Q200.157 862.08 198.577 862.795 L198.577 848.689 Z" fill="#000000" fill-rule="evenodd" fill-opacity="1" /><path clip-path="url(#clip440)" d="M144.855 110.454 L152.493 110.454 L152.493 84.0883 L144.183 85.7549 L144.183 81.4957 L152.447 79.829 L157.123 79.829 L157.123 110.454 L164.762 110.454 L164.762 114.389 L144.855 114.389 L144.855 110.454 Z" fill="#000000" fill-rule="evenodd" fill-opacity="1" /><path clip-path="url(#clip440)" d="M184.206 82.9077 Q180.595 82.9077 178.766 86.4725 Q176.961 90.0142 176.961 97.1437 Q176.961 104.25 178.766 107.815 Q180.595 111.357 184.206 111.357 Q187.84 111.357 189.646 107.815 Q191.475 104.25 191.475 97.1437 Q191.475 90.0142 189.646 86.4725 Q187.84 82.9077 184.206 82.9077 M184.206 79.204 Q190.016 79.204 193.072 83.8105 Q196.151 88.3938 196.151 97.1437 Q196.151 105.871 193.072 110.477 Q190.016 115.06 184.206 115.06 Q178.396 115.06 175.317 110.477 Q172.262 105.871 172.262 97.1437 Q172.262 88.3938 175.317 83.8105 Q178.396 79.204 184.206 79.204 Z" fill="#000000" fill-rule="evenodd" fill-opacity="1" /><path clip-path="url(#clip440)" d="M205.855 61.4001 Q202.921 61.4001 201.436 64.2965 Q199.969 67.174 199.969 72.9668 Q199.969 78.7408 201.436 81.6372 Q202.921 84.5148 205.855 84.5148 Q208.808 84.5148 210.275 81.6372 Q211.761 78.7408 211.761 72.9668 Q211.761 67.174 210.275 64.2965 Q208.808 61.4001 205.855 61.4001 M205.855 58.3908 Q210.576 58.3908 213.059 62.1336 Q215.56 65.8575 215.56 72.9668 Q215.56 80.0574 213.059 83.8001 Q210.576 87.5241 205.855 87.5241 Q201.135 87.5241 198.633 83.8001 Q196.151 80.0574 196.151 72.9668 Q196.151 65.8575 198.633 62.1336 Q201.135 58.3908 205.855 58.3908 Z" fill="#000000" fill-rule="evenodd" fill-opacity="1" /><path clip-path="url(#clip440)" d="M44.7161 773.137 L47.5806 773.137 L47.5806 800.064 Q53.6281 799.682 56.8109 796.435 Q59.9619 793.157 59.9619 787.332 Q59.9619 783.959 59.1344 780.808 Q58.3069 777.625 56.6518 774.506 L62.1899 774.506 Q63.5267 777.657 64.227 780.967 Q64.9272 784.277 64.9272 787.683 Q64.9272 796.213 59.9619 801.21 Q54.9967 806.175 46.5303 806.175 Q37.7774 806.175 32.6531 801.464 Q27.4968 796.722 27.4968 788.701 Q27.4968 781.508 32.1438 777.338 Q36.7589 773.137 44.7161 773.137 M42.9973 778.993 Q38.1912 779.057 35.3266 781.699 Q32.4621 784.309 32.4621 788.637 Q32.4621 793.539 35.2312 796.499 Q38.0002 799.427 43.0292 799.873 L42.9973 778.993 Z" fill="#000000" fill-rule="evenodd" fill-opacity="1" /><path clip-path="url(#clip440)" d="M33.8307 742.868 Q33.2578 743.855 33.0032 745.032 Q32.7167 746.178 32.7167 747.579 Q32.7167 752.544 35.9632 755.218 Q39.1779 757.859 45.2253 757.859 L64.0042 757.859 L64.0042 763.748 L28.3562 763.748 L28.3562 757.859 L33.8944 757.859 Q30.6479 756.013 29.0883 753.053 Q27.4968 750.093 27.4968 745.86 Q27.4968 745.255 27.5923 744.523 Q27.656 743.791 27.8151 742.9 L33.8307 742.868 Z" fill="#000000" fill-rule="evenodd" fill-opacity="1" /><path clip-path="url(#clip440)" d="M33.8307 717.214 Q33.2578 718.201 33.0032 719.379 Q32.7167 720.524 32.7167 721.925 Q32.7167 726.89 35.9632 729.564 Q39.1779 732.205 45.2253 732.205 L64.0042 732.205 L64.0042 738.094 L28.3562 738.094 L28.3562 732.205 L33.8944 732.205 Q30.6479 730.359 29.0883 727.399 Q27.4968 724.439 27.4968 720.206 Q27.4968 719.601 27.5923 718.869 Q27.656 718.137 27.8151 717.246 L33.8307 717.214 Z" fill="#000000" fill-rule="evenodd" fill-opacity="1" /><path clip-path="url(#clip440)" d="M32.4621 698.69 Q32.4621 703.401 36.1542 706.138 Q39.8145 708.875 46.212 708.875 Q52.6095 708.875 56.3017 706.17 Q59.9619 703.432 59.9619 698.69 Q59.9619 694.011 56.2698 691.274 Q52.5777 688.537 46.212 688.537 Q39.8781 688.537 36.186 691.274 Q32.4621 694.011 32.4621 698.69 M27.4968 698.69 Q27.4968 691.051 32.4621 686.691 Q37.4273 682.33 46.212 682.33 Q54.9649 682.33 59.9619 686.691 Q64.9272 691.051 64.9272 698.69 Q64.9272 706.361 59.9619 710.721 Q54.9649 715.05 46.212 715.05 Q37.4273 715.05 32.4621 710.721 Q27.4968 706.361 27.4968 698.69 Z" fill="#000000" fill-rule="evenodd" fill-opacity="1" /><path clip-path="url(#clip440)" d="M33.8307 651.966 Q33.2578 652.952 33.0032 654.13 Q32.7167 655.276 32.7167 656.676 Q32.7167 661.642 35.9632 664.315 Q39.1779 666.957 45.2253 666.957 L64.0042 666.957 L64.0042 672.845 L28.3562 672.845 L28.3562 666.957 L33.8944 666.957 Q30.6479 665.111 29.0883 662.151 Q27.4968 659.191 27.4968 654.958 Q27.4968 654.353 27.5923 653.621 Q27.656 652.889 27.8151 651.998 L33.8307 651.966 Z" fill="#000000" fill-rule="evenodd" fill-opacity="1" /><circle clip-path="url(#clip442)" cx="2293.29" cy="85.838" r="14" fill="#009af9" fill-rule="evenodd" fill-opacity="1" stroke="#000000" stroke-opacity="1" stroke-width="3.2"/>
<circle clip-path="url(#clip442)" cx="2018.45" cy="144.831" r="14" fill="#009af9" fill-rule="evenodd" fill-opacity="1" stroke="#000000" stroke-opacity="1" stroke-width="3.2"/>
<circle clip-path="url(#clip442)" cx="1793.9" cy="198.585" r="14" fill="#009af9" fill-rule="evenodd" fill-opacity="1" stroke="#000000" stroke-opacity="1" stroke-width="3.2"/>
<circle clip-path="url(#clip442)" cx="1604.04" cy="254.973" r="14" fill="#009af9" fill-rule="evenodd" fill-opacity="1" stroke="#000000" stroke-opacity="1" stroke-width="3.2"/>
<circle clip-path="url(#clip442)" cx="1439.58" cy="306.462" r="14" fill="#009af9" fill-rule="evenodd" fill-opacity="1" stroke="#000000" stroke-opacity="1" stroke-width="3.2"/>
<circle clip-path="url(#clip442)" cx="1294.51" cy="360.993" r="14" fill="#009af9" fill-rule="evenodd" fill-opacity="1" stroke="#000000" stroke-opacity="1" stroke-width="3.2"/>
<circle clip-path="url(#clip442)" cx="1164.74" cy="423.623" r="14" fill="#009af9" fill-rule="evenodd" fill-opacity="1" stroke="#000000" stroke-opacity="1" stroke-width="3.2"/>
<circle clip-path="url(#clip442)" cx="1047.35" cy="485.505" r="14" fill="#009af9" fill-rule="evenodd" fill-opacity="1" stroke="#000000" stroke-opacity="1" stroke-width="3.2"/>
<circle clip-path="url(#clip442)" cx="940.185" cy="538.502" r="14" fill="#009af9" fill-rule="evenodd" fill-opacity="1" stroke="#000000" stroke-opacity="1" stroke-width="3.2"/>
<circle clip-path="url(#clip442)" cx="841.601" cy="594.388" r="14" fill="#009af9" fill-rule="evenodd" fill-opacity="1" stroke="#000000" stroke-opacity="1" stroke-width="3.2"/>
<circle clip-path="url(#clip442)" cx="750.326" cy="664.51" r="14" fill="#009af9" fill-rule="evenodd" fill-opacity="1" stroke="#000000" stroke-opacity="1" stroke-width="3.2"/>
<circle clip-path="url(#clip442)" cx="665.351" cy="733.443" r="14" fill="#009af9" fill-rule="evenodd" fill-opacity="1" stroke="#000000" stroke-opacity="1" stroke-width="3.2"/>
<circle clip-path="url(#clip442)" cx="585.862" cy="777.773" r="14" fill="#009af9" fill-rule="evenodd" fill-opacity="1" stroke="#000000" stroke-opacity="1" stroke-width="3.2"/>
<circle clip-path="url(#clip442)" cx="511.194" cy="828.745" r="14" fill="#009af9" fill-rule="evenodd" fill-opacity="1" stroke="#000000" stroke-opacity="1" stroke-width="3.2"/>
<circle clip-path="url(#clip442)" cx="440.795" cy="918.226" r="14" fill="#009af9" fill-rule="evenodd" fill-opacity="1" stroke="#000000" stroke-opacity="1" stroke-width="3.2"/>
<circle clip-path="url(#clip442)" cx="374.203" cy="1014.39" r="14" fill="#009af9" fill-rule="evenodd" fill-opacity="1" stroke="#000000" stroke-opacity="1" stroke-width="3.2"/>
<circle clip-path="url(#clip442)" cx="311.028" cy="1013.68" r="14" fill="#009af9" fill-rule="evenodd" fill-opacity="1" stroke="#000000" stroke-opacity="1" stroke-width="3.2"/>
<circle clip-path="url(#clip442)" cx="2293.29" cy="152.936" r="14" fill="#e26f46" fill-rule="evenodd" fill-opacity="1" stroke="#000000" stroke-opacity="1" stroke-width="3.2"/>
<circle clip-path="url(#clip442)" cx="2018.45" cy="225.327" r="14" fill="#e26f46" fill-rule="evenodd" fill-opacity="1" stroke="#000000" stroke-opacity="1" stroke-width="3.2"/>
<circle clip-path="url(#clip442)" cx="1793.9" cy="322.443" r="14" fill="#e26f46" fill-rule="evenodd" fill-opacity="1" stroke="#000000" stroke-opacity="1" stroke-width="3.2"/>
<circle clip-path="url(#clip442)" cx="1604.04" cy="415.111" r="14" fill="#e26f46" fill-rule="evenodd" fill-opacity="1" stroke="#000000" stroke-opacity="1" stroke-width="3.2"/>
<circle clip-path="url(#clip442)" cx="1439.58" cy="485.874" r="14" fill="#e26f46" fill-rule="evenodd" fill-opacity="1" stroke="#000000" stroke-opacity="1" stroke-width="3.2"/>
<circle clip-path="url(#clip442)" cx="1294.51" cy="567.524" r="14" fill="#e26f46" fill-rule="evenodd" fill-opacity="1" stroke="#000000" stroke-opacity="1" stroke-width="3.2"/>
<circle clip-path="url(#clip442)" cx="1164.74" cy="689.89" r="14" fill="#e26f46" fill-rule="evenodd" fill-opacity="1" stroke="#000000" stroke-opacity="1" stroke-width="3.2"/>
<circle clip-path="url(#clip442)" cx="1047.35" cy="813.384" r="14" fill="#e26f46" fill-rule="evenodd" fill-opacity="1" stroke="#000000" stroke-opacity="1" stroke-width="3.2"/>
<circle clip-path="url(#clip442)" cx="940.185" cy="829.543" r="14" fill="#e26f46" fill-rule="evenodd" fill-opacity="1" stroke="#000000" stroke-opacity="1" stroke-width="3.2"/>
<circle clip-path="url(#clip442)" cx="841.601" cy="896.355" r="14" fill="#e26f46" fill-rule="evenodd" fill-opacity="1" stroke="#000000" stroke-opacity="1" stroke-width="3.2"/>
<circle clip-path="url(#clip442)" cx="750.326" cy="1126.92" r="14" fill="#e26f46" fill-rule="evenodd" fill-opacity="1" stroke="#000000" stroke-opacity="1" stroke-width="3.2"/>
<circle clip-path="url(#clip442)" cx="665.351" cy="1085.9" r="14" fill="#e26f46" fill-rule="evenodd" fill-opacity="1" stroke="#000000" stroke-opacity="1" stroke-width="3.2"/>
<circle clip-path="url(#clip442)" cx="585.862" cy="1127.49" r="14" fill="#e26f46" fill-rule="evenodd" fill-opacity="1" stroke="#000000" stroke-opacity="1" stroke-width="3.2"/>
<circle clip-path="url(#clip442)" cx="511.194" cy="1170.48" r="14" fill="#e26f46" fill-rule="evenodd" fill-opacity="1" stroke="#000000" stroke-opacity="1" stroke-width="3.2"/>
<circle clip-path="url(#clip442)" cx="440.795" cy="1267.21" r="14" fill="#e26f46" fill-rule="evenodd" fill-opacity="1" stroke="#000000" stroke-opacity="1" stroke-width="3.2"/>
<circle clip-path="url(#clip442)" cx="374.203" cy="1296.65" r="14" fill="#e26f46" fill-rule="evenodd" fill-opacity="1" stroke="#000000" stroke-opacity="1" stroke-width="3.2"/>
<circle clip-path="url(#clip442)" cx="311.028" cy="1372.3" r="14" fill="#e26f46" fill-rule="evenodd" fill-opacity="1" stroke="#000000" stroke-opacity="1" stroke-width="3.2"/>
<polyline clip-path="url(#clip442)" style="stroke:#3da44d; stroke-linecap:butt; stroke-linejoin:round; stroke-width:16; stroke-opacity:1; fill:none" points="
  2293.29,90.6614 2018.45,105.969 1793.9,118.476 1604.04,129.051 1439.58,138.212 1294.51,146.291 1164.74,153.519 1047.35,160.058 940.185,166.027 841.601,171.518 
  750.326,176.601 665.351,181.334 585.862,185.762 511.194,189.921 440.795,193.842 374.203,197.551 311.028,201.069 
  "/>
<polyline clip-path="url(#clip442)" style="stroke:#c271d2; stroke-linecap:butt; stroke-linejoin:round; stroke-width:16; stroke-opacity:1; fill:none" points="
  2293.29,90.6614 2018.45,121.277 1793.9,146.291 1604.04,167.441 1439.58,185.762 1294.51,201.922 1164.74,216.377 1047.35,229.454 940.185,241.392 841.601,252.374 
  750.326,262.541 665.351,272.007 585.862,280.862 511.194,289.18 440.795,297.022 374.203,304.44 311.028,311.477 
  "/>
<polyline clip-path="url(#clip442)" style="stroke:#ac8d18; stroke-linecap:butt; stroke-linejoin:round; stroke-width:16; stroke-opacity:1; fill:none" points="
  2293.29,90.6614 2018.45,136.585 1793.9,174.107 1604.04,205.831 1439.58,233.312 1294.51,257.552 1164.74,279.235 1047.35,298.85 940.185,316.757 841.601,333.23 
  750.326,348.481 665.351,362.68 585.862,375.962 511.194,388.439 440.795,400.202 374.203,411.329 311.028,421.885 
  "/>
<polyline clip-path="url(#clip442)" style="stroke:#00a9ad; stroke-linecap:butt; stroke-linejoin:round; stroke-width:16; stroke-opacity:1; fill:none" points="
  2293.29,90.6614 2018.45,151.892 1793.9,201.922 1604.04,244.221 1439.58,280.862 1294.51,313.182 1164.74,342.093 1047.35,368.246 940.185,392.122 841.601,414.086 
  750.326,434.421 665.351,453.353 585.862,471.062 511.194,487.698 440.795,503.382 374.203,518.218 311.028,532.293 
  "/>
<polyline clip-path="url(#clip442)" style="stroke:#ed5d92; stroke-linecap:butt; stroke-linejoin:round; stroke-width:16; stroke-opacity:1; fill:none" points="
  2293.29,90.6614 2018.45,167.2 1793.9,229.737 1604.04,282.611 1439.58,328.412 1294.51,368.812 1164.74,404.951 1047.35,437.642 940.185,467.487 841.601,494.942 
  750.326,520.361 665.351,544.026 585.862,566.163 511.194,586.957 440.795,606.562 374.203,625.108 311.028,642.701 
  "/>
<path clip-path="url(#clip440)" d="
M1789.6 1365.44 L2282.72 1365.44 L2282.72 743.362 L1789.6 743.362  Z
  " fill="#ffffff" fill-rule="evenodd" fill-opacity="1"/>
<polyline clip-path="url(#clip440)" style="stroke:#000000; stroke-linecap:butt; stroke-linejoin:round; stroke-width:4; stroke-opacity:1; fill:none" points="
  1789.6,1365.44 2282.72,1365.44 2282.72,743.362 1789.6,743.362 1789.6,1365.44 
  "/>
<circle clip-path="url(#clip440)" cx="1882.98" cy="821.122" r="34" fill="#009af9" fill-rule="evenodd" fill-opacity="1" stroke="#000000" stroke-opacity="1" stroke-width="7.68"/>
<path clip-path="url(#clip440)" d="M2001.13 793.014 L2001.13 798.327 L1995.02 798.327 Q1991.58 798.327 1990.23 799.715 Q1988.91 801.104 1988.91 804.715 L1988.91 808.153 L1999.43 808.153 L1999.43 813.118 L1988.91 813.118 L1988.91 847.042 L1982.48 847.042 L1982.48 813.118 L1976.37 813.118 L1976.37 808.153 L1982.48 808.153 L1982.48 805.445 Q1982.48 798.952 1985.5 796 Q1988.52 793.014 1995.09 793.014 L2001.13 793.014 Z" fill="#000000" fill-rule="evenodd" fill-opacity="1" /><path clip-path="url(#clip440)" d="M2036.02 858.847 L2036.02 863.812 L1999.08 863.812 L1999.08 858.847 L2036.02 858.847 Z" fill="#000000" fill-rule="evenodd" fill-opacity="1" /><path clip-path="url(#clip440)" d="M2075.29 826 L2075.29 829.125 L2045.92 829.125 Q2046.34 835.722 2049.88 839.194 Q2053.45 842.632 2059.81 842.632 Q2063.49 842.632 2066.93 841.729 Q2070.4 840.826 2073.8 839.021 L2073.8 845.062 Q2070.36 846.521 2066.75 847.285 Q2063.14 848.048 2059.43 848.048 Q2050.12 848.048 2044.67 842.632 Q2039.25 837.215 2039.25 827.979 Q2039.25 818.431 2044.39 812.84 Q2049.57 807.215 2058.32 807.215 Q2066.16 807.215 2070.71 812.285 Q2075.29 817.319 2075.29 826 M2068.91 824.125 Q2068.84 818.882 2065.95 815.757 Q2063.11 812.632 2058.38 812.632 Q2053.04 812.632 2049.81 815.653 Q2046.61 818.674 2046.13 824.16 L2068.91 824.125 Z" fill="#000000" fill-rule="evenodd" fill-opacity="1" /><path clip-path="url(#clip440)" d="M2116.86 808.153 L2102.79 827.076 L2117.59 847.042 L2110.05 847.042 L2098.73 831.764 L2087.41 847.042 L2079.88 847.042 L2094.98 826.694 L2081.16 808.153 L2088.7 808.153 L2099.01 822.007 L2109.32 808.153 L2116.86 808.153 Z" fill="#000000" fill-rule="evenodd" fill-opacity="1" /><path clip-path="url(#clip440)" d="M2132.79 841.208 L2132.79 861.833 L2126.37 861.833 L2126.37 808.153 L2132.79 808.153 L2132.79 814.056 Q2134.81 810.583 2137.86 808.917 Q2140.95 807.215 2145.22 807.215 Q2152.31 807.215 2156.72 812.84 Q2161.16 818.465 2161.16 827.632 Q2161.16 836.799 2156.72 842.424 Q2152.31 848.048 2145.22 848.048 Q2140.95 848.048 2137.86 846.382 Q2134.81 844.68 2132.79 841.208 M2154.53 827.632 Q2154.53 820.583 2151.61 816.59 Q2148.73 812.563 2143.66 812.563 Q2138.59 812.563 2135.68 816.59 Q2132.79 820.583 2132.79 827.632 Q2132.79 834.681 2135.68 838.708 Q2138.59 842.701 2143.66 842.701 Q2148.73 842.701 2151.61 838.708 Q2154.53 834.681 2154.53 827.632 Z" fill="#000000" fill-rule="evenodd" fill-opacity="1" /><path clip-path="url(#clip440)" d="M2204.08 808.153 L2190.02 827.076 L2204.81 847.042 L2197.27 847.042 L2185.95 831.764 L2174.63 847.042 L2167.1 847.042 L2182.2 826.694 L2168.38 808.153 L2175.92 808.153 L2186.23 822.007 L2196.54 808.153 L2204.08 808.153 Z" fill="#000000" fill-rule="evenodd" fill-opacity="1" /><circle clip-path="url(#clip440)" cx="1882.98" cy="898.882" r="34" fill="#e26f46" fill-rule="evenodd" fill-opacity="1" stroke="#000000" stroke-opacity="1" stroke-width="7.68"/>
<path clip-path="url(#clip440)" d="M2001.13 870.774 L2001.13 876.087 L1995.02 876.087 Q1991.58 876.087 1990.23 877.475 Q1988.91 878.864 1988.91 882.475 L1988.91 885.913 L1999.43 885.913 L1999.43 890.878 L1988.91 890.878 L1988.91 924.802 L1982.48 924.802 L1982.48 890.878 L1976.37 890.878 L1976.37 885.913 L1982.48 885.913 L1982.48 883.205 Q1982.48 876.712 1985.5 873.76 Q1988.52 870.774 1995.09 870.774 L2001.13 870.774 Z" fill="#000000" fill-rule="evenodd" fill-opacity="1" /><path clip-path="url(#clip440)" d="M2036.02 936.607 L2036.02 941.572 L1999.08 941.572 L1999.08 936.607 L2036.02 936.607 Z" fill="#000000" fill-rule="evenodd" fill-opacity="1" /><path clip-path="url(#clip440)" d="M2067.62 891.816 L2067.62 870.774 L2074.01 870.774 L2074.01 924.802 L2067.62 924.802 L2067.62 918.968 Q2065.61 922.44 2062.52 924.142 Q2059.46 925.808 2055.16 925.808 Q2048.11 925.808 2043.66 920.184 Q2039.25 914.559 2039.25 905.392 Q2039.25 896.225 2043.66 890.6 Q2048.11 884.975 2055.16 884.975 Q2059.46 884.975 2062.52 886.677 Q2065.61 888.343 2067.62 891.816 M2045.85 905.392 Q2045.85 912.441 2048.73 916.468 Q2051.65 920.461 2056.72 920.461 Q2061.79 920.461 2064.7 916.468 Q2067.62 912.441 2067.62 905.392 Q2067.62 898.343 2064.7 894.35 Q2061.79 890.323 2056.72 890.323 Q2051.65 890.323 2048.73 894.35 Q2045.85 898.343 2045.85 905.392 Z" fill="#000000" fill-rule="evenodd" fill-opacity="1" /><path clip-path="url(#clip440)" d="M2093.49 874.871 L2093.49 885.913 L2106.65 885.913 L2106.65 890.878 L2093.49 890.878 L2093.49 911.989 Q2093.49 916.746 2094.77 918.1 Q2096.09 919.454 2100.09 919.454 L2106.65 919.454 L2106.65 924.802 L2100.09 924.802 Q2092.69 924.802 2089.88 922.059 Q2087.07 919.281 2087.07 911.989 L2087.07 890.878 L2082.38 890.878 L2082.38 885.913 L2087.07 885.913 L2087.07 874.871 L2093.49 874.871 Z" fill="#000000" fill-rule="evenodd" fill-opacity="1" /><path clip-path="url(#clip440)" d="M2132.72 905.253 Q2124.98 905.253 2122 907.024 Q2119.01 908.795 2119.01 913.066 Q2119.01 916.468 2121.23 918.482 Q2123.49 920.461 2127.34 920.461 Q2132.66 920.461 2135.85 916.711 Q2139.08 912.927 2139.08 906.677 L2139.08 905.253 L2132.72 905.253 M2145.47 902.614 L2145.47 924.802 L2139.08 924.802 L2139.08 918.899 Q2136.89 922.44 2133.63 924.142 Q2130.36 925.808 2125.64 925.808 Q2119.67 925.808 2116.13 922.475 Q2112.62 919.107 2112.62 913.482 Q2112.62 906.92 2117 903.586 Q2121.41 900.253 2130.12 900.253 L2139.08 900.253 L2139.08 899.628 Q2139.08 895.218 2136.16 892.823 Q2133.28 890.392 2128.04 890.392 Q2124.7 890.392 2121.54 891.191 Q2118.38 891.989 2115.47 893.586 L2115.47 887.684 Q2118.97 886.33 2122.27 885.67 Q2125.57 884.975 2128.7 884.975 Q2137.13 884.975 2141.3 889.35 Q2145.47 893.725 2145.47 902.614 Z" fill="#000000" fill-rule="evenodd" fill-opacity="1" /><path clip-path="url(#clip440)" d="M2190.95 901.329 L2190.95 924.802 L2184.56 924.802 L2184.56 901.538 Q2184.56 896.017 2182.41 893.274 Q2180.26 890.531 2175.95 890.531 Q2170.78 890.531 2167.79 893.83 Q2164.81 897.128 2164.81 902.823 L2164.81 924.802 L2158.38 924.802 L2158.38 885.913 L2164.81 885.913 L2164.81 891.955 Q2167.1 888.448 2170.19 886.711 Q2173.31 884.975 2177.38 884.975 Q2184.08 884.975 2187.52 889.142 Q2190.95 893.274 2190.95 901.329 Z" fill="#000000" fill-rule="evenodd" fill-opacity="1" /><path clip-path="url(#clip440)" d="M2236.02 901.329 L2236.02 924.802 L2229.63 924.802 L2229.63 901.538 Q2229.63 896.017 2227.48 893.274 Q2225.33 890.531 2221.02 890.531 Q2215.85 890.531 2212.86 893.83 Q2209.88 897.128 2209.88 902.823 L2209.88 924.802 L2203.45 924.802 L2203.45 870.774 L2209.88 870.774 L2209.88 891.955 Q2212.17 888.448 2215.26 886.711 Q2218.38 884.975 2222.45 884.975 Q2229.15 884.975 2232.59 889.142 Q2236.02 893.274 2236.02 901.329 Z" fill="#000000" fill-rule="evenodd" fill-opacity="1" /><polyline clip-path="url(#clip440)" style="stroke:#3da44d; stroke-linecap:butt; stroke-linejoin:round; stroke-width:6; stroke-opacity:1; fill:none" points="
  1812.95,976.642 1953.02,976.642 
  "/>
<path clip-path="url(#clip440)" d="M2011.68 1012.67 Q2011.68 1012.95 2011.36 1014.04 Q2011.05 1015.13 2010.28 1016.82 Q2009.54 1018.51 2008.52 1020.05 Q2007.5 1021.56 2005.81 1022.69 Q2004.16 1023.78 2002.26 1023.78 Q1999.74 1023.78 1998.05 1022.09 Q1996.36 1020.4 1996.36 1017.87 Q1996.36 1017.52 1996.4 1017.17 Q1996.43 1016.82 1996.47 1016.61 Q1996.5 1016.36 1996.61 1015.98 Q1996.75 1015.55 1996.78 1015.38 Q1996.85 1015.2 1997.03 1014.68 Q1997.24 1014.11 1997.31 1013.9 Q2001.77 1002.52 2001.77 997.777 Q2001.77 992.753 1997.87 992.753 Q1994.39 992.753 1990.95 995.282 Q1989.37 996.547 1987.86 998.796 Q1986.35 1001.04 1986.07 1001.89 Q1985.75 1003.71 1985.3 1005.12 Q1985.08 1006.1 1984.07 1009.93 L1982.48 1016.43 L1981.11 1021.88 Q1980.83 1022.65 1980.06 1023.21 Q1979.29 1023.78 1978.44 1023.78 Q1977.74 1023.78 1977.04 1023.28 Q1976.37 1022.83 1976.37 1021.74 Q1976.37 1021.18 1976.65 1020.16 L1987.09 978.699 L1987.3 977.294 Q1987.3 976.872 1987.12 976.661 Q1986.98 976.415 1986.14 976.24 Q1985.33 976.064 1983.71 976.064 Q1983.05 976.064 1982.73 976.029 Q1982.45 975.994 1982.2 975.818 Q1981.96 975.607 1981.96 975.186 Q1981.96 974.588 1982.2 974.272 Q1982.48 973.921 1982.7 973.851 Q1982.91 973.78 1983.33 973.745 Q1983.93 973.71 1985.93 973.534 Q1987.93 973.324 1989.65 973.183 Q1991.37 973.043 1992.11 973.043 Q1992.53 973.043 1992.74 973.253 Q1992.99 973.429 1993.02 973.64 L1993.06 973.816 L1987.44 996.688 Q1991.9 991.172 1998.08 991.172 Q2002.09 991.172 2004.23 993.244 Q2006.38 995.282 2006.38 998.866 Q2006.38 1002.98 2001.98 1014.68 Q2000.68 1017.94 2000.68 1019.81 Q2000.68 1021.04 2001.07 1021.6 Q2001.49 1022.16 2002.41 1022.16 Q2003.81 1022.16 2005.04 1021.35 Q2006.31 1020.51 2007.18 1019.14 Q2008.06 1017.73 2008.66 1016.33 Q2009.29 1014.89 2009.75 1013.27 Q2010.03 1012.39 2010.17 1012.18 Q2010.35 1011.97 2010.84 1011.97 Q2011.68 1011.97 2011.68 1012.67 Z" fill="#000000" fill-rule="evenodd" fill-opacity="1" /><path clip-path="url(#clip440)" d="M2019.02 954.733 L2019.02 953.159 Q2025.07 953.159 2028.19 949.937 Q2029.05 949.937 2029.2 950.134 Q2029.35 950.331 2029.35 951.241 L2029.35 979.499 Q2029.35 980.999 2030.09 981.466 Q2030.83 981.933 2034.05 981.933 L2035.65 981.933 L2035.65 983.483 Q2033.87 983.335 2027.48 983.335 Q2021.09 983.335 2019.34 983.483 L2019.34 981.933 L2020.94 981.933 Q2024.11 981.933 2024.87 981.491 Q2025.64 981.023 2025.64 979.499 L2025.64 953.405 Q2023 954.733 2019.02 954.733 Z" fill="#000000" fill-rule="evenodd" fill-opacity="1" /><polyline clip-path="url(#clip440)" style="stroke:#c271d2; stroke-linecap:butt; stroke-linejoin:round; stroke-width:6; stroke-opacity:1; fill:none" points="
  1812.95,1054.4 1953.02,1054.4 
  "/>
<path clip-path="url(#clip440)" d="M2011.68 1090.43 Q2011.68 1090.71 2011.36 1091.8 Q2011.05 1092.89 2010.28 1094.58 Q2009.54 1096.27 2008.52 1097.81 Q2007.5 1099.32 2005.81 1100.45 Q2004.16 1101.54 2002.26 1101.54 Q1999.74 1101.54 1998.05 1099.85 Q1996.36 1098.16 1996.36 1095.63 Q1996.36 1095.28 1996.4 1094.93 Q1996.43 1094.58 1996.47 1094.37 Q1996.5 1094.12 1996.61 1093.74 Q1996.75 1093.31 1996.78 1093.14 Q1996.85 1092.96 1997.03 1092.44 Q1997.24 1091.87 1997.31 1091.66 Q2001.77 1080.28 2001.77 1075.54 Q2001.77 1070.51 1997.87 1070.51 Q1994.39 1070.51 1990.95 1073.04 Q1989.37 1074.31 1987.86 1076.56 Q1986.35 1078.8 1986.07 1079.65 Q1985.75 1081.47 1985.3 1082.88 Q1985.08 1083.86 1984.07 1087.69 L1982.48 1094.19 L1981.11 1099.64 Q1980.83 1100.41 1980.06 1100.97 Q1979.29 1101.54 1978.44 1101.54 Q1977.74 1101.54 1977.04 1101.04 Q1976.37 1100.59 1976.37 1099.5 Q1976.37 1098.94 1976.65 1097.92 L1987.09 1056.46 L1987.3 1055.05 Q1987.3 1054.63 1987.12 1054.42 Q1986.98 1054.18 1986.14 1054 Q1985.33 1053.82 1983.71 1053.82 Q1983.05 1053.82 1982.73 1053.79 Q1982.45 1053.75 1982.2 1053.58 Q1981.96 1053.37 1981.96 1052.95 Q1981.96 1052.35 1982.2 1052.03 Q1982.48 1051.68 1982.7 1051.61 Q1982.91 1051.54 1983.33 1051.51 Q1983.93 1051.47 1985.93 1051.29 Q1987.93 1051.08 1989.65 1050.94 Q1991.37 1050.8 1992.11 1050.8 Q1992.53 1050.8 1992.74 1051.01 Q1992.99 1051.19 1993.02 1051.4 L1993.06 1051.58 L1987.44 1074.45 Q1991.9 1068.93 1998.08 1068.93 Q2002.09 1068.93 2004.23 1071 Q2006.38 1073.04 2006.38 1076.63 Q2006.38 1080.74 2001.98 1092.44 Q2000.68 1095.7 2000.68 1097.57 Q2000.68 1098.8 2001.07 1099.36 Q2001.49 1099.92 2002.41 1099.92 Q2003.81 1099.92 2005.04 1099.11 Q2006.31 1098.27 2007.18 1096.9 Q2008.06 1095.49 2008.66 1094.09 Q2009.29 1092.65 2009.75 1091.03 Q2010.03 1090.15 2010.17 1089.94 Q2010.35 1089.73 2010.84 1089.73 Q2011.68 1089.73 2011.68 1090.43 Z" fill="#000000" fill-rule="evenodd" fill-opacity="1" /><path clip-path="url(#clip440)" d="M2019.02 1061.24 Q2019.02 1060.33 2019.09 1060.06 Q2019.19 1059.79 2019.59 1059.37 L2029.25 1048.6 Q2034.54 1042.65 2034.54 1037.46 Q2034.54 1034.09 2032.77 1031.68 Q2031.02 1029.27 2027.8 1029.27 Q2025.59 1029.27 2023.72 1030.62 Q2021.85 1031.98 2020.99 1034.39 Q2021.14 1034.34 2021.65 1034.34 Q2022.91 1034.34 2023.59 1035.12 Q2024.31 1035.91 2024.31 1036.97 Q2024.31 1038.32 2023.42 1038.99 Q2022.56 1039.63 2021.7 1039.63 Q2021.36 1039.63 2020.89 1039.55 Q2020.45 1039.48 2019.73 1038.79 Q2019.02 1038.08 2019.02 1036.82 Q2019.02 1033.3 2021.68 1030.5 Q2024.36 1027.7 2028.44 1027.7 Q2033.06 1027.7 2036.09 1030.45 Q2039.14 1033.18 2039.14 1037.46 Q2039.14 1038.96 2038.67 1040.34 Q2038.23 1041.69 2037.61 1042.75 Q2037.02 1043.81 2035.4 1045.5 Q2033.78 1047.2 2032.47 1048.4 Q2031.17 1049.61 2028.24 1052.17 L2022.91 1057.36 L2031.98 1057.36 Q2036.41 1057.36 2036.75 1056.96 Q2037.24 1056.25 2037.86 1052.49 L2039.14 1052.49 L2037.71 1061.24 L2019.02 1061.24 Z" fill="#000000" fill-rule="evenodd" fill-opacity="1" /><polyline clip-path="url(#clip440)" style="stroke:#ac8d18; stroke-linecap:butt; stroke-linejoin:round; stroke-width:6; stroke-opacity:1; fill:none" points="
  1812.95,1132.16 1953.02,1132.16 
  "/>
<path clip-path="url(#clip440)" d="M2011.68 1168.74 Q2011.68 1169.02 2011.36 1170.11 Q2011.05 1171.2 2010.28 1172.89 Q2009.54 1174.57 2008.52 1176.12 Q2007.5 1177.63 2005.81 1178.75 Q2004.16 1179.84 2002.26 1179.84 Q1999.74 1179.84 1998.05 1178.16 Q1996.36 1176.47 1996.36 1173.94 Q1996.36 1173.59 1996.4 1173.24 Q1996.43 1172.89 1996.47 1172.68 Q1996.5 1172.43 1996.61 1172.04 Q1996.75 1171.62 1996.78 1171.45 Q1996.85 1171.27 1997.03 1170.74 Q1997.24 1170.18 1997.31 1169.97 Q2001.77 1158.59 2001.77 1153.84 Q2001.77 1148.82 1997.87 1148.82 Q1994.39 1148.82 1990.95 1151.35 Q1989.37 1152.61 1987.86 1154.86 Q1986.35 1157.11 1986.07 1157.95 Q1985.75 1159.78 1985.3 1161.19 Q1985.08 1162.17 1984.07 1166 L1982.48 1172.5 L1981.11 1177.95 Q1980.83 1178.72 1980.06 1179.28 Q1979.29 1179.84 1978.44 1179.84 Q1977.74 1179.84 1977.04 1179.35 Q1976.37 1178.89 1976.37 1177.8 Q1976.37 1177.24 1976.65 1176.22 L1987.09 1134.77 L1987.3 1133.36 Q1987.3 1132.94 1987.12 1132.73 Q1986.98 1132.48 1986.14 1132.31 Q1985.33 1132.13 1983.71 1132.13 Q1983.05 1132.13 1982.73 1132.1 Q1982.45 1132.06 1982.2 1131.89 Q1981.96 1131.67 1981.96 1131.25 Q1981.96 1130.66 1982.2 1130.34 Q1982.48 1129.99 1982.7 1129.92 Q1982.91 1129.85 1983.33 1129.81 Q1983.93 1129.78 1985.93 1129.6 Q1987.93 1129.39 1989.65 1129.25 Q1991.37 1129.11 1992.11 1129.11 Q1992.53 1129.11 1992.74 1129.32 Q1992.99 1129.5 1993.02 1129.71 L1993.06 1129.88 L1987.44 1152.75 Q1991.9 1147.24 1998.08 1147.24 Q2002.09 1147.24 2004.23 1149.31 Q2006.38 1151.35 2006.38 1154.93 Q2006.38 1159.04 2001.98 1170.74 Q2000.68 1174.01 2000.68 1175.87 Q2000.68 1177.1 2001.07 1177.66 Q2001.49 1178.23 2002.41 1178.23 Q2003.81 1178.23 2005.04 1177.42 Q2006.31 1176.58 2007.18 1175.2 Q2008.06 1173.8 2008.66 1172.39 Q2009.29 1170.95 2009.75 1169.34 Q2010.03 1168.46 2010.17 1168.25 Q2010.35 1168.04 2010.84 1168.04 Q2011.68 1168.04 2011.68 1168.74 Z" fill="#000000" fill-rule="evenodd" fill-opacity="1" /><path clip-path="url(#clip440)" d="M2019.02 1131.67 Q2019.02 1130.17 2019.88 1129.45 Q2020.74 1128.74 2021.85 1128.74 Q2023 1128.74 2023.82 1129.5 Q2024.65 1130.24 2024.65 1131.55 Q2024.65 1132.95 2023.67 1133.73 Q2022.71 1134.52 2021.33 1134.32 Q2022.54 1136.34 2024.75 1137.25 Q2026.99 1138.16 2029.05 1138.16 Q2031.22 1138.16 2032.96 1136.29 Q2034.74 1134.42 2034.74 1129.85 Q2034.74 1125.96 2033.21 1123.72 Q2031.71 1121.49 2028.73 1121.49 L2026.52 1121.49 Q2025.76 1121.49 2025.54 1121.41 Q2025.32 1121.34 2025.32 1120.92 Q2025.32 1120.43 2026.08 1120.33 Q2026.84 1120.33 2028.05 1120.18 Q2030.97 1120.08 2032.52 1117.55 Q2033.92 1115.19 2033.92 1111.82 Q2033.92 1108.75 2032.45 1107.47 Q2031 1106.16 2029.1 1106.16 Q2027.33 1106.16 2025.39 1106.9 Q2023.45 1107.64 2022.39 1109.29 Q2025.51 1109.29 2025.51 1111.82 Q2025.51 1112.93 2024.8 1113.67 Q2024.11 1114.38 2022.96 1114.38 Q2021.85 1114.38 2021.11 1113.69 Q2020.37 1112.98 2020.37 1111.77 Q2020.37 1108.89 2022.93 1106.9 Q2025.51 1104.91 2029.3 1104.91 Q2033.04 1104.91 2035.79 1106.88 Q2038.57 1108.85 2038.57 1111.87 Q2038.57 1114.85 2036.6 1117.28 Q2034.64 1119.72 2031.51 1120.72 Q2035.35 1121.49 2037.64 1124.09 Q2039.92 1126.68 2039.92 1129.85 Q2039.92 1133.78 2036.83 1136.69 Q2033.73 1139.56 2029.2 1139.56 Q2025.02 1139.56 2022.02 1137.3 Q2019.02 1135.04 2019.02 1131.67 Z" fill="#000000" fill-rule="evenodd" fill-opacity="1" /><polyline clip-path="url(#clip440)" style="stroke:#00a9ad; stroke-linecap:butt; stroke-linejoin:round; stroke-width:6; stroke-opacity:1; fill:none" points="
  1812.95,1209.92 1953.02,1209.92 
  "/>
<path clip-path="url(#clip440)" d="M2011.68 1246.15 Q2011.68 1246.43 2011.36 1247.52 Q2011.05 1248.61 2010.28 1250.29 Q2009.54 1251.98 2008.52 1253.53 Q2007.5 1255.04 2005.81 1256.16 Q2004.16 1257.25 2002.26 1257.25 Q1999.74 1257.25 1998.05 1255.56 Q1996.36 1253.88 1996.36 1251.35 Q1996.36 1251 1996.4 1250.65 Q1996.43 1250.29 1996.47 1250.08 Q1996.5 1249.84 1996.61 1249.45 Q1996.75 1249.03 1996.78 1248.85 Q1996.85 1248.68 1997.03 1248.15 Q1997.24 1247.59 1997.31 1247.38 Q2001.77 1235.99 2001.77 1231.25 Q2001.77 1226.23 1997.87 1226.23 Q1994.39 1226.23 1990.95 1228.76 Q1989.37 1230.02 1987.86 1232.27 Q1986.35 1234.52 1986.07 1235.36 Q1985.75 1237.19 1985.3 1238.59 Q1985.08 1239.58 1984.07 1243.41 L1982.48 1249.91 L1981.11 1255.35 Q1980.83 1256.13 1980.06 1256.69 Q1979.29 1257.25 1978.44 1257.25 Q1977.74 1257.25 1977.04 1256.76 Q1976.37 1256.3 1976.37 1255.21 Q1976.37 1254.65 1976.65 1253.63 L1987.09 1212.17 L1987.3 1210.77 Q1987.3 1210.35 1987.12 1210.14 Q1986.98 1209.89 1986.14 1209.71 Q1985.33 1209.54 1983.71 1209.54 Q1983.05 1209.54 1982.73 1209.5 Q1982.45 1209.47 1982.2 1209.29 Q1981.96 1209.08 1981.96 1208.66 Q1981.96 1208.06 1982.2 1207.75 Q1982.48 1207.4 1982.7 1207.33 Q1982.91 1207.26 1983.33 1207.22 Q1983.93 1207.19 1985.93 1207.01 Q1987.93 1206.8 1989.65 1206.66 Q1991.37 1206.52 1992.11 1206.52 Q1992.53 1206.52 1992.74 1206.73 Q1992.99 1206.9 1993.02 1207.12 L1993.06 1207.29 L1987.44 1230.16 Q1991.9 1224.65 1998.08 1224.65 Q2002.09 1224.65 2004.23 1226.72 Q2006.38 1228.76 2006.38 1232.34 Q2006.38 1236.45 2001.98 1248.15 Q2000.68 1251.42 2000.68 1253.28 Q2000.68 1254.51 2001.07 1255.07 Q2001.49 1255.63 2002.41 1255.63 Q2003.81 1255.63 2005.04 1254.83 Q2006.31 1253.98 2007.18 1252.61 Q2008.06 1251.21 2008.66 1249.8 Q2009.29 1248.36 2009.75 1246.75 Q2010.03 1245.87 2010.17 1245.66 Q2010.35 1245.45 2010.84 1245.45 Q2011.68 1245.45 2011.68 1246.15 Z" fill="#000000" fill-rule="evenodd" fill-opacity="1" /><path clip-path="url(#clip440)" d="M2019.02 1208.81 L2019.02 1207.26 L2034.49 1183.63 Q2034.88 1183.01 2035.5 1183.04 Q2036.06 1183.04 2036.19 1183.26 Q2036.31 1183.48 2036.31 1184.34 L2036.31 1207.26 L2041.35 1207.26 L2041.35 1208.81 L2036.31 1208.81 L2036.31 1213.19 Q2036.31 1214.64 2036.9 1215.11 Q2037.51 1215.58 2040.12 1215.58 L2041.18 1215.58 L2041.18 1217.13 Q2039.11 1216.98 2034.34 1216.98 Q2029.6 1216.98 2027.53 1217.13 L2027.53 1215.58 L2028.59 1215.58 Q2031.19 1215.58 2031.81 1215.13 Q2032.42 1214.67 2032.42 1213.19 L2032.42 1208.81 L2019.02 1208.81 M2020.45 1207.26 L2032.72 1207.26 L2032.72 1188.47 L2020.45 1207.26 Z" fill="#000000" fill-rule="evenodd" fill-opacity="1" /><polyline clip-path="url(#clip440)" style="stroke:#ed5d92; stroke-linecap:butt; stroke-linejoin:round; stroke-width:6; stroke-opacity:1; fill:none" points="
  1812.95,1287.68 1953.02,1287.68 
  "/>
<path clip-path="url(#clip440)" d="M2011.68 1324.26 Q2011.68 1324.54 2011.36 1325.63 Q2011.05 1326.72 2010.28 1328.41 Q2009.54 1330.09 2008.52 1331.64 Q2007.5 1333.15 2005.81 1334.27 Q2004.16 1335.36 2002.26 1335.36 Q1999.74 1335.36 1998.05 1333.68 Q1996.36 1331.99 1996.36 1329.46 Q1996.36 1329.11 1996.4 1328.76 Q1996.43 1328.41 1996.47 1328.2 Q1996.5 1327.95 1996.61 1327.56 Q1996.75 1327.14 1996.78 1326.97 Q1996.85 1326.79 1997.03 1326.26 Q1997.24 1325.7 1997.31 1325.49 Q2001.77 1314.11 2001.77 1309.36 Q2001.77 1304.34 1997.87 1304.34 Q1994.39 1304.34 1990.95 1306.87 Q1989.37 1308.13 1987.86 1310.38 Q1986.35 1312.63 1986.07 1313.47 Q1985.75 1315.3 1985.3 1316.71 Q1985.08 1317.69 1984.07 1321.52 L1982.48 1328.02 L1981.11 1333.47 Q1980.83 1334.24 1980.06 1334.8 Q1979.29 1335.36 1978.44 1335.36 Q1977.74 1335.36 1977.04 1334.87 Q1976.37 1334.41 1976.37 1333.32 Q1976.37 1332.76 1976.65 1331.74 L1987.09 1290.29 L1987.3 1288.88 Q1987.3 1288.46 1987.12 1288.25 Q1986.98 1288 1986.14 1287.83 Q1985.33 1287.65 1983.71 1287.65 Q1983.05 1287.65 1982.73 1287.62 Q1982.45 1287.58 1982.2 1287.41 Q1981.96 1287.19 1981.96 1286.77 Q1981.96 1286.18 1982.2 1285.86 Q1982.48 1285.51 1982.7 1285.44 Q1982.91 1285.37 1983.33 1285.33 Q1983.93 1285.3 1985.93 1285.12 Q1987.93 1284.91 1989.65 1284.77 Q1991.37 1284.63 1992.11 1284.63 Q1992.53 1284.63 1992.74 1284.84 Q1992.99 1285.02 1993.02 1285.23 L1993.06 1285.4 L1987.44 1308.27 Q1991.9 1302.76 1998.08 1302.76 Q2002.09 1302.76 2004.23 1304.83 Q2006.38 1306.87 2006.38 1310.45 Q2006.38 1314.56 2001.98 1326.26 Q2000.68 1329.53 2000.68 1331.39 Q2000.68 1332.62 2001.07 1333.18 Q2001.49 1333.75 2002.41 1333.75 Q2003.81 1333.75 2005.04 1332.94 Q2006.31 1332.1 2007.18 1330.72 Q2008.06 1329.32 2008.66 1327.91 Q2009.29 1326.47 2009.75 1324.86 Q2010.03 1323.98 2010.17 1323.77 Q2010.35 1323.56 2010.84 1323.56 Q2011.68 1323.56 2011.68 1324.26 Z" fill="#000000" fill-rule="evenodd" fill-opacity="1" /><path clip-path="url(#clip440)" d="M2019.02 1285.86 Q2019.02 1284.36 2019.83 1283.79 Q2020.64 1283.2 2021.5 1283.2 Q2022.66 1283.2 2023.32 1283.94 Q2024.01 1284.66 2024.01 1285.66 Q2024.01 1286.67 2023.32 1287.41 Q2022.66 1288.12 2021.5 1288.12 Q2020.94 1288.12 2020.64 1288.02 Q2021.31 1290.34 2023.32 1292.01 Q2025.37 1293.68 2028.05 1293.68 Q2031.42 1293.68 2033.43 1290.41 Q2034.64 1288.29 2034.64 1283.5 Q2034.64 1279.27 2033.73 1277.15 Q2032.33 1273.93 2029.45 1273.93 Q2025.37 1273.93 2022.96 1277.45 Q2022.66 1277.89 2022.32 1277.92 Q2021.82 1277.92 2021.7 1277.65 Q2021.6 1277.35 2021.6 1276.59 L2021.6 1261.68 Q2021.6 1260.48 2022.09 1260.48 Q2022.29 1260.48 2022.71 1260.63 Q2025.88 1262.03 2029.4 1262.05 Q2033.01 1262.05 2036.26 1260.58 Q2036.51 1260.43 2036.65 1260.43 Q2037.15 1260.43 2037.17 1261 Q2037.17 1261.19 2036.75 1261.78 Q2036.36 1262.35 2035.5 1263.11 Q2034.64 1263.85 2033.53 1264.56 Q2032.42 1265.28 2030.8 1265.77 Q2029.2 1266.23 2027.43 1266.23 Q2025.32 1266.23 2023.15 1265.57 L2023.15 1275.38 Q2025.76 1272.83 2029.55 1272.83 Q2033.58 1272.83 2036.36 1276.07 Q2039.14 1279.32 2039.14 1283.84 Q2039.14 1288.59 2035.84 1291.84 Q2032.57 1295.08 2028.14 1295.08 Q2024.11 1295.08 2021.55 1292.21 Q2019.02 1289.33 2019.02 1285.86 Z" fill="#000000" fill-rule="evenodd" fill-opacity="1" /></svg>
