<?xml version="1.0" encoding="utf-8"?>
<svg xmlns="http://www.w3.org/2000/svg" xmlns:xlink="http://www.w3.org/1999/xlink" width="600" height="400" viewBox="0 0 2400 1600">
<defs>
  <clipPath id="clip660">
    <rect x="0" y="0" width="2400" height="1600"/>
  </clipPath>
</defs>
<path clip-path="url(#clip660)" d="
M0 1600 L2400 1600 L2400 0 L0 0  Z
  " fill="#ffffff" fill-rule="evenodd" fill-opacity="1"/>
<defs>
  <clipPath id="clip661">
    <rect x="480" y="0" width="1681" height="1600"/>
  </clipPath>
</defs>
<path clip-path="url(#clip660)" d="
M112.177 1486.45 L2352.76 1486.45 L2352.76 47.2441 L112.177 47.2441  Z
  " fill="#ffffff" fill-rule="evenodd" fill-opacity="1"/>
<defs>
  <clipPath id="clip662">
    <rect x="112" y="47" width="2242" height="1440"/>
  </clipPath>
</defs>
<polyline clip-path="url(#clip662)" style="stroke:#000000; stroke-linecap:round; stroke-linejoin:round; stroke-width:2; stroke-opacity:0.1; fill:none" points="
  386.965,1486.45 386.965,47.2441 
  "/>
<polyline clip-path="url(#clip662)" style="stroke:#000000; stroke-linecap:round; stroke-linejoin:round; stroke-width:2; stroke-opacity:0.1; fill:none" points="
  809.716,1486.45 809.716,47.2441 
  "/>
<polyline clip-path="url(#clip662)" style="stroke:#000000; stroke-linecap:round; stroke-linejoin:round; stroke-width:2; stroke-opacity:0.1; fill:none" points="
  1232.47,1486.45 1232.47,47.2441 
  "/>
<polyline clip-path="url(#clip662)" style="stroke:#000000; stroke-linecap:round; stroke-linejoin:round; stroke-width:2; stroke-opacity:0.1; fill:none" points="
  1655.22,1486.45 1655.22,47.2441 
  "/>
<polyline clip-path="url(#clip662)" style="stroke:#000000; stroke-linecap:round; stroke-linejoin:round; stroke-width:2; stroke-opacity:0.1; fill:none" points="
  2077.97,1486.45 2077.97,47.2441 
  "/>
<polyline clip-path="url(#clip660)" style="stroke:#000000; stroke-linecap:round; stroke-linejoin:round; stroke-width:4; stroke-opacity:1; fill:none" points="
  112.177,1486.45 2352.76,1486.45 
  "/>
<polyline clip-path="url(#clip660)" style="stroke:#000000; stroke-linecap:round; stroke-linejoin:round; stroke-width:4; stroke-opacity:1; fill:none" points="
  386.965,1486.45 386.965,1467.55 
  "/>
<polyline clip-path="url(#clip660)" style="stroke:#000000; stroke-linecap:round; stroke-linejoin:round; stroke-width:4; stroke-opacity:1; fill:none" points="
  809.716,1486.45 809.716,1467.55 
  "/>
<polyline clip-path="url(#clip660)" style="stroke:#000000; stroke-linecap:round; stroke-linejoin:round; stroke-width:4; stroke-opacity:1; fill:none" points="
  1232.47,1486.45 1232.47,1467.55 
  "/>
<polyline clip-path="url(#clip660)" style="stroke:#000000; stroke-linecap:round; stroke-linejoin:round; stroke-width:4; stroke-opacity:1; fill:none" points="
  1655.22,1486.45 1655.22,1467.55 
  "/>
<polyline clip-path="url(#clip660)" style="stroke:#000000; stroke-linecap:round; stroke-linejoin:round; stroke-width:4; stroke-opacity:1; fill:none" points="
  2077.97,1486.45 2077.97,1467.55 
  "/>
<path clip-path="url(#clip660)" d="M355.866 1532.02 L385.542 1532.02 L385.542 1535.95 L355.866 1535.95 L355.866 1532.02 Z" fill="#000000" fill-rule="evenodd" fill-opacity="1" /><path clip-path="url(#clip660)" d="M408.481 1518.36 L396.676 1536.81 L408.481 1536.81 L408.481 1518.36 M407.254 1514.29 L413.134 1514.29 L413.134 1536.81 L418.065 1536.81 L418.065 1540.7 L413.134 1540.7 L413.134 1548.85 L408.481 1548.85 L408.481 1540.7 L392.879 1540.7 L392.879 1536.19 L407.254 1514.29 Z" fill="#000000" fill-rule="evenodd" fill-opacity="1" /><path clip-path="url(#clip660)" d="M779.658 1532.02 L809.334 1532.02 L809.334 1535.95 L779.658 1535.95 L779.658 1532.02 Z" fill="#000000" fill-rule="evenodd" fill-opacity="1" /><path clip-path="url(#clip660)" d="M823.454 1544.91 L839.774 1544.91 L839.774 1548.85 L817.829 1548.85 L817.829 1544.91 Q820.491 1542.16 825.075 1537.53 Q829.681 1532.88 830.862 1531.53 Q833.107 1529.01 833.987 1527.27 Q834.889 1525.51 834.889 1523.82 Q834.889 1521.07 832.945 1519.33 Q831.024 1517.6 827.922 1517.6 Q825.723 1517.6 823.269 1518.36 Q820.838 1519.13 818.061 1520.68 L818.061 1515.95 Q820.885 1514.82 823.338 1514.24 Q825.792 1513.66 827.829 1513.66 Q833.2 1513.66 836.394 1516.35 Q839.588 1519.03 839.588 1523.52 Q839.588 1525.65 838.778 1527.57 Q837.991 1529.47 835.885 1532.07 Q835.306 1532.74 832.204 1535.95 Q829.102 1539.15 823.454 1544.91 Z" fill="#000000" fill-rule="evenodd" fill-opacity="1" /><path clip-path="url(#clip660)" d="M1232.47 1517.37 Q1228.86 1517.37 1227.03 1520.93 Q1225.22 1524.47 1225.22 1531.6 Q1225.22 1538.71 1227.03 1542.27 Q1228.86 1545.82 1232.47 1545.82 Q1236.1 1545.82 1237.91 1542.27 Q1239.74 1538.71 1239.74 1531.6 Q1239.74 1524.47 1237.91 1520.93 Q1236.1 1517.37 1232.47 1517.37 M1232.47 1513.66 Q1238.28 1513.66 1241.33 1518.27 Q1244.41 1522.85 1244.41 1531.6 Q1244.41 1540.33 1241.33 1544.94 Q1238.28 1549.52 1232.47 1549.52 Q1226.66 1549.52 1223.58 1544.94 Q1220.52 1540.33 1220.52 1531.6 Q1220.52 1522.85 1223.58 1518.27 Q1226.66 1513.66 1232.47 1513.66 Z" fill="#000000" fill-rule="evenodd" fill-opacity="1" /><path clip-path="url(#clip660)" d="M1649.87 1544.91 L1666.19 1544.91 L1666.19 1548.85 L1644.25 1548.85 L1644.25 1544.91 Q1646.91 1542.16 1651.49 1537.53 Q1656.1 1532.88 1657.28 1531.53 Q1659.52 1529.01 1660.4 1527.27 Q1661.31 1525.51 1661.31 1523.82 Q1661.31 1521.07 1659.36 1519.33 Q1657.44 1517.6 1654.34 1517.6 Q1652.14 1517.6 1649.68 1518.36 Q1647.25 1519.13 1644.48 1520.68 L1644.48 1515.95 Q1647.3 1514.82 1649.75 1514.24 Q1652.21 1513.66 1654.25 1513.66 Q1659.62 1513.66 1662.81 1516.35 Q1666 1519.03 1666 1523.52 Q1666 1525.65 1665.19 1527.57 Q1664.41 1529.47 1662.3 1532.07 Q1661.72 1532.74 1658.62 1535.95 Q1655.52 1539.15 1649.87 1544.91 Z" fill="#000000" fill-rule="evenodd" fill-opacity="1" /><path clip-path="url(#clip660)" d="M2080.98 1518.36 L2069.17 1536.81 L2080.98 1536.81 L2080.98 1518.36 M2079.75 1514.29 L2085.63 1514.29 L2085.63 1536.81 L2090.56 1536.81 L2090.56 1540.7 L2085.63 1540.7 L2085.63 1548.85 L2080.98 1548.85 L2080.98 1540.7 L2065.38 1540.7 L2065.38 1536.19 L2079.75 1514.29 Z" fill="#000000" fill-rule="evenodd" fill-opacity="1" /><polyline clip-path="url(#clip662)" style="stroke:#000000; stroke-linecap:round; stroke-linejoin:round; stroke-width:2; stroke-opacity:0.1; fill:none" points="
  112.177,1454.93 2352.76,1454.93 
  "/>
<polyline clip-path="url(#clip662)" style="stroke:#000000; stroke-linecap:round; stroke-linejoin:round; stroke-width:2; stroke-opacity:0.1; fill:none" points="
  112.177,1183.38 2352.76,1183.38 
  "/>
<polyline clip-path="url(#clip662)" style="stroke:#000000; stroke-linecap:round; stroke-linejoin:round; stroke-width:2; stroke-opacity:0.1; fill:none" points="
  112.177,911.83 2352.76,911.83 
  "/>
<polyline clip-path="url(#clip662)" style="stroke:#000000; stroke-linecap:round; stroke-linejoin:round; stroke-width:2; stroke-opacity:0.1; fill:none" points="
  112.177,640.282 2352.76,640.282 
  "/>
<polyline clip-path="url(#clip662)" style="stroke:#000000; stroke-linecap:round; stroke-linejoin:round; stroke-width:2; stroke-opacity:0.1; fill:none" points="
  112.177,368.735 2352.76,368.735 
  "/>
<polyline clip-path="url(#clip662)" style="stroke:#000000; stroke-linecap:round; stroke-linejoin:round; stroke-width:2; stroke-opacity:0.1; fill:none" points="
  112.177,97.1867 2352.76,97.1867 
  "/>
<polyline clip-path="url(#clip660)" style="stroke:#000000; stroke-linecap:round; stroke-linejoin:round; stroke-width:4; stroke-opacity:1; fill:none" points="
  112.177,1486.45 112.177,47.2441 
  "/>
<polyline clip-path="url(#clip660)" style="stroke:#000000; stroke-linecap:round; stroke-linejoin:round; stroke-width:4; stroke-opacity:1; fill:none" points="
  112.177,1454.93 131.075,1454.93 
  "/>
<polyline clip-path="url(#clip660)" style="stroke:#000000; stroke-linecap:round; stroke-linejoin:round; stroke-width:4; stroke-opacity:1; fill:none" points="
  112.177,1183.38 131.075,1183.38 
  "/>
<polyline clip-path="url(#clip660)" style="stroke:#000000; stroke-linecap:round; stroke-linejoin:round; stroke-width:4; stroke-opacity:1; fill:none" points="
  112.177,911.83 131.075,911.83 
  "/>
<polyline clip-path="url(#clip660)" style="stroke:#000000; stroke-linecap:round; stroke-linejoin:round; stroke-width:4; stroke-opacity:1; fill:none" points="
  112.177,640.282 131.075,640.282 
  "/>
<polyline clip-path="url(#clip660)" style="stroke:#000000; stroke-linecap:round; stroke-linejoin:round; stroke-width:4; stroke-opacity:1; fill:none" points="
  112.177,368.735 131.075,368.735 
  "/>
<polyline clip-path="url(#clip660)" style="stroke:#000000; stroke-linecap:round; stroke-linejoin:round; stroke-width:4; stroke-opacity:1; fill:none" points="
  112.177,97.1867 131.075,97.1867 
  "/>
<path clip-path="url(#clip660)" d="M64.2328 1440.72 Q60.6217 1440.72 58.793 1444.29 Q56.9875 1447.83 56.9875 1454.96 Q56.9875 1462.07 58.793 1465.63 Q60.6217 1469.17 64.2328 1469.17 Q67.867 1469.17 69.6726 1465.63 Q71.5013 1462.07 71.5013 1454.96 Q71.5013 1447.83 69.6726 1444.29 Q67.867 1440.72 64.2328 1440.72 M64.2328 1437.02 Q70.0429 1437.02 73.0985 1441.63 Q76.1772 1446.21 76.1772 1454.96 Q76.1772 1463.69 73.0985 1468.29 Q70.0429 1472.88 64.2328 1472.88 Q58.4226 1472.88 55.344 1468.29 Q52.2884 1463.69 52.2884 1454.96 Q52.2884 1446.21 55.344 1441.63 Q58.4226 1437.02 64.2328 1437.02 Z" fill="#000000" fill-rule="evenodd" fill-opacity="1" /><path clip-path="url(#clip660)" d="M56.2699 1196.72 L63.9087 1196.72 L63.9087 1170.36 L55.5986 1172.02 L55.5986 1167.76 L63.8624 1166.1 L68.5383 1166.1 L68.5383 1196.72 L76.1772 1196.72 L76.1772 1200.66 L56.2699 1200.66 L56.2699 1196.72 Z" fill="#000000" fill-rule="evenodd" fill-opacity="1" /><path clip-path="url(#clip660)" d="M59.8578 925.175 L76.1772 925.175 L76.1772 929.11 L54.2328 929.11 L54.2328 925.175 Q56.8949 922.421 61.4782 917.791 Q66.0846 913.138 67.2652 911.796 Q69.5105 909.273 70.3902 907.536 Q71.2929 905.777 71.2929 904.087 Q71.2929 901.333 69.3485 899.597 Q67.4272 897.861 64.3254 897.861 Q62.1263 897.861 59.6726 898.624 Q57.2421 899.388 54.4643 900.939 L54.4643 896.217 Q57.2884 895.083 59.7421 894.504 Q62.1958 893.925 64.2328 893.925 Q69.6031 893.925 72.7976 896.611 Q75.992 899.296 75.992 903.786 Q75.992 905.916 75.1818 907.837 Q74.3948 909.735 72.2883 912.328 Q71.7096 912.999 68.6078 916.217 Q65.5059 919.411 59.8578 925.175 Z" fill="#000000" fill-rule="evenodd" fill-opacity="1" /><path clip-path="url(#clip660)" d="M69.0476 638.928 Q72.404 639.646 74.279 641.914 Q76.1772 644.183 76.1772 647.516 Q76.1772 652.632 72.6587 655.433 Q69.1402 658.234 62.6587 658.234 Q60.4828 658.234 58.168 657.794 Q55.8764 657.377 53.4227 656.521 L53.4227 652.007 Q55.3671 653.141 57.6819 653.72 Q59.9967 654.299 62.5198 654.299 Q66.918 654.299 69.2096 652.563 Q71.5244 650.826 71.5244 647.516 Q71.5244 644.461 69.3717 642.748 Q67.242 641.012 63.4226 641.012 L59.3949 641.012 L59.3949 637.169 L63.6078 637.169 Q67.0569 637.169 68.8855 635.803 Q70.7142 634.414 70.7142 631.822 Q70.7142 629.16 68.8161 627.748 Q66.9411 626.313 63.4226 626.313 Q61.5013 626.313 59.3023 626.729 Q57.1032 627.146 54.4643 628.026 L54.4643 623.859 Q57.1264 623.118 59.4412 622.748 Q61.7791 622.377 63.8393 622.377 Q69.1633 622.377 72.2652 624.808 Q75.367 627.215 75.367 631.336 Q75.367 634.206 73.7235 636.197 Q72.08 638.164 69.0476 638.928 Z" fill="#000000" fill-rule="evenodd" fill-opacity="1" /><path clip-path="url(#clip660)" d="M66.5939 355.529 L54.7884 373.978 L66.5939 373.978 L66.5939 355.529 M65.367 351.455 L71.2466 351.455 L71.2466 373.978 L76.1772 373.978 L76.1772 377.866 L71.2466 377.866 L71.2466 386.015 L66.5939 386.015 L66.5939 377.866 L50.9921 377.866 L50.9921 373.353 L65.367 351.455 Z" fill="#000000" fill-rule="evenodd" fill-opacity="1" /><path clip-path="url(#clip660)" d="M55.2745 79.9067 L73.6309 79.9067 L73.6309 83.8419 L59.5569 83.8419 L59.5569 92.3141 Q60.5754 91.9668 61.5939 91.8048 Q62.6124 91.6196 63.6309 91.6196 Q69.418 91.6196 72.7976 94.7909 Q76.1772 97.9622 76.1772 103.379 Q76.1772 108.957 72.705 112.059 Q69.2328 115.138 62.9134 115.138 Q60.7374 115.138 58.4689 114.768 Q56.2236 114.397 53.8162 113.657 L53.8162 108.957 Q55.8995 110.092 58.1217 110.647 Q60.3439 111.203 62.8208 111.203 Q66.8254 111.203 69.1633 109.096 Q71.5013 106.99 71.5013 103.379 Q71.5013 99.7677 69.1633 97.6612 Q66.8254 95.5548 62.8208 95.5548 Q60.9458 95.5548 59.0708 95.9714 Q57.2189 96.3881 55.2745 97.2677 L55.2745 79.9067 Z" fill="#000000" fill-rule="evenodd" fill-opacity="1" /><polyline clip-path="url(#clip662)" style="stroke:#009af9; stroke-linecap:round; stroke-linejoin:round; stroke-width:16; stroke-opacity:1; fill:none" points="
  175.59,1445.72 189.351,1445.22 316.598,1439.27 393.068,1434.21 457.722,1428.78 527.955,1421.43 592.704,1413.05 662.121,1402.04 742.547,1386.16 814.021,1368.78 
  876.697,1350.63 910.864,1339.49 945.031,1327.4 979.4,1314.25 1013.77,1300.05 1051.77,1283.11 1089.77,1264.8 1125.93,1246.09 1162.08,1226.08 1199.68,1203.9 
  1237.27,1180.28 1268.92,1159.29 1300.56,1137.29 1339.2,1109.07 1377.84,1079.38 1413.23,1050.92 1448.62,1021.27 1481.31,992.874 1514,963.533 1547.11,932.886 
  1580.23,901.344 1617.34,864.984 1654.45,827.613 1688.07,792.926 1721.7,757.506 1798.7,673.883 1870,593.712 1940.29,512.494 2008.54,431.905 2078.5,347.824 
  2155.15,254.316 2266.5,116.485 2289.34,87.9763 
  "/>
<path clip-path="url(#clip660)" d="
M1976.69 198.898 L2278.07 198.898 L2278.07 95.2176 L1976.69 95.2176  Z
  " fill="#ffffff" fill-rule="evenodd" fill-opacity="1"/>
<polyline clip-path="url(#clip660)" style="stroke:#000000; stroke-linecap:round; stroke-linejoin:round; stroke-width:4; stroke-opacity:1; fill:none" points="
  1976.69,198.898 2278.07,198.898 2278.07,95.2176 1976.69,95.2176 1976.69,198.898 
  "/>
<polyline clip-path="url(#clip660)" style="stroke:#009af9; stroke-linecap:round; stroke-linejoin:round; stroke-width:4; stroke-opacity:1; fill:none" points="
  2001.58,147.058 2150.95,147.058 
  "/>
<path clip-path="url(#clip660)" d="M2189.69 166.745 Q2187.89 171.375 2186.17 172.787 Q2184.46 174.199 2181.59 174.199 L2178.19 174.199 L2178.19 170.634 L2180.69 170.634 Q2182.45 170.634 2183.42 169.8 Q2184.39 168.967 2185.57 165.865 L2186.34 163.921 L2175.85 138.412 L2180.36 138.412 L2188.46 158.689 L2196.57 138.412 L2201.08 138.412 L2189.69 166.745 Z" fill="#000000" fill-rule="evenodd" fill-opacity="1" /><path clip-path="url(#clip660)" d="M2208.37 160.402 L2216.01 160.402 L2216.01 134.037 L2207.7 135.703 L2207.7 131.444 L2215.96 129.778 L2220.64 129.778 L2220.64 160.402 L2228.28 160.402 L2228.28 164.338 L2208.37 164.338 L2208.37 160.402 Z" fill="#000000" fill-rule="evenodd" fill-opacity="1" /></svg>
