<?xml version="1.0" encoding="utf-8"?>
<svg xmlns="http://www.w3.org/2000/svg" xmlns:xlink="http://www.w3.org/1999/xlink" width="600" height="400" viewBox="0 0 2400 1600">
<defs>
  <clipPath id="clip160">
    <rect x="0" y="0" width="2400" height="1600"/>
  </clipPath>
</defs>
<path clip-path="url(#clip160)" d="
M0 1600 L2400 1600 L2400 0 L0 0  Z
  " fill="#ffffff" fill-rule="evenodd" fill-opacity="1"/>
<defs>
  <clipPath id="clip161">
    <rect x="480" y="0" width="1681" height="1600"/>
  </clipPath>
</defs>
<path clip-path="url(#clip160)" d="
M193.558 1486.45 L2352.76 1486.45 L2352.76 47.2441 L193.558 47.2441  Z
  " fill="#ffffff" fill-rule="evenodd" fill-opacity="1"/>
<defs>
  <clipPath id="clip162">
    <rect x="193" y="47" width="2160" height="1440"/>
  </clipPath>
</defs>
<polyline clip-path="url(#clip162)" style="stroke:#000000; stroke-linecap:butt; stroke-linejoin:round; stroke-width:2; stroke-opacity:0.1; fill:none" points="
  250.594,1486.45 250.594,47.2441 
  "/>
<polyline clip-path="url(#clip162)" style="stroke:#000000; stroke-linecap:butt; stroke-linejoin:round; stroke-width:2; stroke-opacity:0.1; fill:none" points="
  657.99,1486.45 657.99,47.2441 
  "/>
<polyline clip-path="url(#clip162)" style="stroke:#000000; stroke-linecap:butt; stroke-linejoin:round; stroke-width:2; stroke-opacity:0.1; fill:none" points="
  1065.39,1486.45 1065.39,47.2441 
  "/>
<polyline clip-path="url(#clip162)" style="stroke:#000000; stroke-linecap:butt; stroke-linejoin:round; stroke-width:2; stroke-opacity:0.1; fill:none" points="
  1472.78,1486.45 1472.78,47.2441 
  "/>
<polyline clip-path="url(#clip162)" style="stroke:#000000; stroke-linecap:butt; stroke-linejoin:round; stroke-width:2; stroke-opacity:0.1; fill:none" points="
  1880.18,1486.45 1880.18,47.2441 
  "/>
<polyline clip-path="url(#clip162)" style="stroke:#000000; stroke-linecap:butt; stroke-linejoin:round; stroke-width:2; stroke-opacity:0.1; fill:none" points="
  2287.57,1486.45 2287.57,47.2441 
  "/>
<polyline clip-path="url(#clip160)" style="stroke:#000000; stroke-linecap:butt; stroke-linejoin:round; stroke-width:4; stroke-opacity:1; fill:none" points="
  193.558,1486.45 2352.76,1486.45 
  "/>
<polyline clip-path="url(#clip160)" style="stroke:#000000; stroke-linecap:butt; stroke-linejoin:round; stroke-width:4; stroke-opacity:1; fill:none" points="
  250.594,1486.45 250.594,1467.55 
  "/>
<polyline clip-path="url(#clip160)" style="stroke:#000000; stroke-linecap:butt; stroke-linejoin:round; stroke-width:4; stroke-opacity:1; fill:none" points="
  657.99,1486.45 657.99,1467.55 
  "/>
<polyline clip-path="url(#clip160)" style="stroke:#000000; stroke-linecap:butt; stroke-linejoin:round; stroke-width:4; stroke-opacity:1; fill:none" points="
  1065.39,1486.45 1065.39,1467.55 
  "/>
<polyline clip-path="url(#clip160)" style="stroke:#000000; stroke-linecap:butt; stroke-linejoin:round; stroke-width:4; stroke-opacity:1; fill:none" points="
  1472.78,1486.45 1472.78,1467.55 
  "/>
<polyline clip-path="url(#clip160)" style="stroke:#000000; stroke-linecap:butt; stroke-linejoin:round; stroke-width:4; stroke-opacity:1; fill:none" points="
  1880.18,1486.45 1880.18,1467.55 
  "/>
<polyline clip-path="url(#clip160)" style="stroke:#000000; stroke-linecap:butt; stroke-linejoin:round; stroke-width:4; stroke-opacity:1; fill:none" points="
  2287.57,1486.45 2287.57,1467.55 
  "/>
<path clip-path="url(#clip160)" d="M250.594 1517.37 Q246.983 1517.37 245.154 1520.93 Q243.348 1524.47 243.348 1531.6 Q243.348 1538.71 245.154 1542.27 Q246.983 1545.82 250.594 1545.82 Q254.228 1545.82 256.034 1542.27 Q257.862 1538.71 257.862 1531.6 Q257.862 1524.47 256.034 1520.93 Q254.228 1517.37 250.594 1517.37 M250.594 1513.66 Q256.404 1513.66 259.459 1518.27 Q262.538 1522.85 262.538 1531.6 Q262.538 1540.33 259.459 1544.94 Q256.404 1549.52 250.594 1549.52 Q244.784 1549.52 241.705 1544.94 Q238.649 1540.33 238.649 1531.6 Q238.649 1522.85 241.705 1518.27 Q244.784 1513.66 250.594 1513.66 Z" fill="#000000" fill-rule="evenodd" fill-opacity="1" /><path clip-path="url(#clip160)" d="M617.596 1544.91 L625.235 1544.91 L625.235 1518.55 L616.925 1520.21 L616.925 1515.95 L625.189 1514.29 L629.865 1514.29 L629.865 1544.91 L637.504 1544.91 L637.504 1548.85 L617.596 1548.85 L617.596 1544.91 Z" fill="#000000" fill-rule="evenodd" fill-opacity="1" /><path clip-path="url(#clip160)" d="M656.948 1517.37 Q653.337 1517.37 651.508 1520.93 Q649.703 1524.47 649.703 1531.6 Q649.703 1538.71 651.508 1542.27 Q653.337 1545.82 656.948 1545.82 Q660.582 1545.82 662.388 1542.27 Q664.216 1538.71 664.216 1531.6 Q664.216 1524.47 662.388 1520.93 Q660.582 1517.37 656.948 1517.37 M656.948 1513.66 Q662.758 1513.66 665.814 1518.27 Q668.892 1522.85 668.892 1531.6 Q668.892 1540.33 665.814 1544.94 Q662.758 1549.52 656.948 1549.52 Q651.138 1549.52 648.059 1544.94 Q645.004 1540.33 645.004 1531.6 Q645.004 1522.85 648.059 1518.27 Q651.138 1513.66 656.948 1513.66 Z" fill="#000000" fill-rule="evenodd" fill-opacity="1" /><path clip-path="url(#clip160)" d="M687.11 1517.37 Q683.499 1517.37 681.67 1520.93 Q679.864 1524.47 679.864 1531.6 Q679.864 1538.71 681.67 1542.27 Q683.499 1545.82 687.11 1545.82 Q690.744 1545.82 692.55 1542.27 Q694.378 1538.71 694.378 1531.6 Q694.378 1524.47 692.55 1520.93 Q690.744 1517.37 687.11 1517.37 M687.11 1513.66 Q692.92 1513.66 695.975 1518.27 Q699.054 1522.85 699.054 1531.6 Q699.054 1540.33 695.975 1544.94 Q692.92 1549.52 687.11 1549.52 Q681.3 1549.52 678.221 1544.94 Q675.165 1540.33 675.165 1531.6 Q675.165 1522.85 678.221 1518.27 Q681.3 1513.66 687.11 1513.66 Z" fill="#000000" fill-rule="evenodd" fill-opacity="1" /><path clip-path="url(#clip160)" d="M1029.08 1544.91 L1045.4 1544.91 L1045.4 1548.85 L1023.45 1548.85 L1023.45 1544.91 Q1026.11 1542.16 1030.7 1537.53 Q1035.3 1532.88 1036.49 1531.53 Q1038.73 1529.01 1039.61 1527.27 Q1040.51 1525.51 1040.51 1523.82 Q1040.51 1521.07 1038.57 1519.33 Q1036.65 1517.6 1033.55 1517.6 Q1031.35 1517.6 1028.89 1518.36 Q1026.46 1519.13 1023.68 1520.68 L1023.68 1515.95 Q1026.51 1514.82 1028.96 1514.24 Q1031.42 1513.66 1033.45 1513.66 Q1038.82 1513.66 1042.02 1516.35 Q1045.21 1519.03 1045.21 1523.52 Q1045.21 1525.65 1044.4 1527.57 Q1043.61 1529.47 1041.51 1532.07 Q1040.93 1532.74 1037.83 1535.95 Q1034.73 1539.15 1029.08 1544.91 Z" fill="#000000" fill-rule="evenodd" fill-opacity="1" /><path clip-path="url(#clip160)" d="M1065.21 1517.37 Q1061.6 1517.37 1059.77 1520.93 Q1057.97 1524.47 1057.97 1531.6 Q1057.97 1538.71 1059.77 1542.27 Q1061.6 1545.82 1065.21 1545.82 Q1068.85 1545.82 1070.65 1542.27 Q1072.48 1538.71 1072.48 1531.6 Q1072.48 1524.47 1070.65 1520.93 Q1068.85 1517.37 1065.21 1517.37 M1065.21 1513.66 Q1071.02 1513.66 1074.08 1518.27 Q1077.16 1522.85 1077.16 1531.6 Q1077.16 1540.33 1074.08 1544.94 Q1071.02 1549.52 1065.21 1549.52 Q1059.4 1549.52 1056.32 1544.94 Q1053.27 1540.33 1053.27 1531.6 Q1053.27 1522.85 1056.32 1518.27 Q1059.4 1513.66 1065.21 1513.66 Z" fill="#000000" fill-rule="evenodd" fill-opacity="1" /><path clip-path="url(#clip160)" d="M1095.37 1517.37 Q1091.76 1517.37 1089.93 1520.93 Q1088.13 1524.47 1088.13 1531.6 Q1088.13 1538.71 1089.93 1542.27 Q1091.76 1545.82 1095.37 1545.82 Q1099.01 1545.82 1100.81 1542.27 Q1102.64 1538.71 1102.64 1531.6 Q1102.64 1524.47 1100.81 1520.93 Q1099.01 1517.37 1095.37 1517.37 M1095.37 1513.66 Q1101.18 1513.66 1104.24 1518.27 Q1107.32 1522.85 1107.32 1531.6 Q1107.32 1540.33 1104.24 1544.94 Q1101.18 1549.52 1095.37 1549.52 Q1089.56 1549.52 1086.48 1544.94 Q1083.43 1540.33 1083.43 1531.6 Q1083.43 1522.85 1086.48 1518.27 Q1089.56 1513.66 1095.37 1513.66 Z" fill="#000000" fill-rule="evenodd" fill-opacity="1" /><path clip-path="url(#clip160)" d="M1446.54 1530.21 Q1449.9 1530.93 1451.77 1533.2 Q1453.67 1535.47 1453.67 1538.8 Q1453.67 1543.92 1450.15 1546.72 Q1446.64 1549.52 1440.15 1549.52 Q1437.98 1549.52 1435.66 1549.08 Q1433.37 1548.66 1430.92 1547.81 L1430.92 1543.29 Q1432.86 1544.43 1435.18 1545.01 Q1437.49 1545.58 1440.02 1545.58 Q1444.41 1545.58 1446.7 1543.85 Q1449.02 1542.11 1449.02 1538.8 Q1449.02 1535.75 1446.87 1534.03 Q1444.74 1532.3 1440.92 1532.3 L1436.89 1532.3 L1436.89 1528.45 L1441.1 1528.45 Q1444.55 1528.45 1446.38 1527.09 Q1448.21 1525.7 1448.21 1523.11 Q1448.21 1520.45 1446.31 1519.03 Q1444.44 1517.6 1440.92 1517.6 Q1439 1517.6 1436.8 1518.01 Q1434.6 1518.43 1431.96 1519.31 L1431.96 1515.14 Q1434.62 1514.4 1436.94 1514.03 Q1439.27 1513.66 1441.33 1513.66 Q1446.66 1513.66 1449.76 1516.09 Q1452.86 1518.5 1452.86 1522.62 Q1452.86 1525.49 1451.22 1527.48 Q1449.58 1529.45 1446.54 1530.21 Z" fill="#000000" fill-rule="evenodd" fill-opacity="1" /><path clip-path="url(#clip160)" d="M1472.54 1517.37 Q1468.93 1517.37 1467.1 1520.93 Q1465.29 1524.47 1465.29 1531.6 Q1465.29 1538.71 1467.1 1542.27 Q1468.93 1545.82 1472.54 1545.82 Q1476.17 1545.82 1477.98 1542.27 Q1479.81 1538.71 1479.81 1531.6 Q1479.81 1524.47 1477.98 1520.93 Q1476.17 1517.37 1472.54 1517.37 M1472.54 1513.66 Q1478.35 1513.66 1481.4 1518.27 Q1484.48 1522.85 1484.48 1531.6 Q1484.48 1540.33 1481.4 1544.94 Q1478.35 1549.52 1472.54 1549.52 Q1466.73 1549.52 1463.65 1544.94 Q1460.59 1540.33 1460.59 1531.6 Q1460.59 1522.85 1463.65 1518.27 Q1466.73 1513.66 1472.54 1513.66 Z" fill="#000000" fill-rule="evenodd" fill-opacity="1" /><path clip-path="url(#clip160)" d="M1502.7 1517.37 Q1499.09 1517.37 1497.26 1520.93 Q1495.45 1524.47 1495.45 1531.6 Q1495.45 1538.71 1497.26 1542.27 Q1499.09 1545.82 1502.7 1545.82 Q1506.33 1545.82 1508.14 1542.27 Q1509.97 1538.71 1509.97 1531.6 Q1509.97 1524.47 1508.14 1520.93 Q1506.33 1517.37 1502.7 1517.37 M1502.7 1513.66 Q1508.51 1513.66 1511.57 1518.27 Q1514.64 1522.85 1514.64 1531.6 Q1514.64 1540.33 1511.57 1544.94 Q1508.51 1549.52 1502.7 1549.52 Q1496.89 1549.52 1493.81 1544.94 Q1490.76 1540.33 1490.76 1531.6 Q1490.76 1522.85 1493.81 1518.27 Q1496.89 1513.66 1502.7 1513.66 Z" fill="#000000" fill-rule="evenodd" fill-opacity="1" /><path clip-path="url(#clip160)" d="M1853.27 1518.36 L1841.46 1536.81 L1853.27 1536.81 L1853.27 1518.36 M1852.04 1514.29 L1857.92 1514.29 L1857.92 1536.81 L1862.85 1536.81 L1862.85 1540.7 L1857.92 1540.7 L1857.92 1548.85 L1853.27 1548.85 L1853.27 1540.7 L1837.67 1540.7 L1837.67 1536.19 L1852.04 1514.29 Z" fill="#000000" fill-rule="evenodd" fill-opacity="1" /><path clip-path="url(#clip160)" d="M1880.58 1517.37 Q1876.97 1517.37 1875.14 1520.93 Q1873.34 1524.47 1873.34 1531.6 Q1873.34 1538.71 1875.14 1542.27 Q1876.97 1545.82 1880.58 1545.82 Q1884.22 1545.82 1886.02 1542.27 Q1887.85 1538.71 1887.85 1531.6 Q1887.85 1524.47 1886.02 1520.93 Q1884.22 1517.37 1880.58 1517.37 M1880.58 1513.66 Q1886.39 1513.66 1889.45 1518.27 Q1892.53 1522.85 1892.53 1531.6 Q1892.53 1540.33 1889.45 1544.94 Q1886.39 1549.52 1880.58 1549.52 Q1874.77 1549.52 1871.69 1544.94 Q1868.64 1540.33 1868.64 1531.6 Q1868.64 1522.85 1871.69 1518.27 Q1874.77 1513.66 1880.58 1513.66 Z" fill="#000000" fill-rule="evenodd" fill-opacity="1" /><path clip-path="url(#clip160)" d="M1910.74 1517.37 Q1907.13 1517.37 1905.3 1520.93 Q1903.5 1524.47 1903.5 1531.6 Q1903.5 1538.71 1905.3 1542.27 Q1907.13 1545.82 1910.74 1545.82 Q1914.38 1545.82 1916.18 1542.27 Q1918.01 1538.71 1918.01 1531.6 Q1918.01 1524.47 1916.18 1520.93 Q1914.38 1517.37 1910.74 1517.37 M1910.74 1513.66 Q1916.55 1513.66 1919.61 1518.27 Q1922.69 1522.85 1922.69 1531.6 Q1922.69 1540.33 1919.61 1544.94 Q1916.55 1549.52 1910.74 1549.52 Q1904.93 1549.52 1901.85 1544.94 Q1898.8 1540.33 1898.8 1531.6 Q1898.8 1522.85 1901.85 1518.27 Q1904.93 1513.66 1910.74 1513.66 Z" fill="#000000" fill-rule="evenodd" fill-opacity="1" /><path clip-path="url(#clip160)" d="M2247.19 1514.29 L2265.55 1514.29 L2265.55 1518.22 L2251.47 1518.22 L2251.47 1526.7 Q2252.49 1526.35 2253.51 1526.19 Q2254.53 1526 2255.55 1526 Q2261.33 1526 2264.71 1529.17 Q2268.09 1532.34 2268.09 1537.76 Q2268.09 1543.34 2264.62 1546.44 Q2261.15 1549.52 2254.83 1549.52 Q2252.65 1549.52 2250.39 1549.15 Q2248.14 1548.78 2245.73 1548.04 L2245.73 1543.34 Q2247.82 1544.47 2250.04 1545.03 Q2252.26 1545.58 2254.74 1545.58 Q2258.74 1545.58 2261.08 1543.48 Q2263.42 1541.37 2263.42 1537.76 Q2263.42 1534.15 2261.08 1532.04 Q2258.74 1529.94 2254.74 1529.94 Q2252.86 1529.94 2250.99 1530.35 Q2249.14 1530.77 2247.19 1531.65 L2247.19 1514.29 Z" fill="#000000" fill-rule="evenodd" fill-opacity="1" /><path clip-path="url(#clip160)" d="M2287.31 1517.37 Q2283.7 1517.37 2281.87 1520.93 Q2280.06 1524.47 2280.06 1531.6 Q2280.06 1538.71 2281.87 1542.27 Q2283.7 1545.82 2287.31 1545.82 Q2290.94 1545.82 2292.75 1542.27 Q2294.57 1538.71 2294.57 1531.6 Q2294.57 1524.47 2292.75 1520.93 Q2290.94 1517.37 2287.31 1517.37 M2287.31 1513.66 Q2293.12 1513.66 2296.17 1518.27 Q2299.25 1522.85 2299.25 1531.6 Q2299.25 1540.33 2296.17 1544.94 Q2293.12 1549.52 2287.31 1549.52 Q2281.5 1549.52 2278.42 1544.94 Q2275.36 1540.33 2275.36 1531.6 Q2275.36 1522.85 2278.42 1518.27 Q2281.5 1513.66 2287.31 1513.66 Z" fill="#000000" fill-rule="evenodd" fill-opacity="1" /><path clip-path="url(#clip160)" d="M2317.47 1517.37 Q2313.86 1517.37 2312.03 1520.93 Q2310.22 1524.47 2310.22 1531.6 Q2310.22 1538.71 2312.03 1542.27 Q2313.86 1545.82 2317.47 1545.82 Q2321.1 1545.82 2322.91 1542.27 Q2324.74 1538.71 2324.74 1531.6 Q2324.74 1524.47 2322.91 1520.93 Q2321.1 1517.37 2317.47 1517.37 M2317.47 1513.66 Q2323.28 1513.66 2326.33 1518.27 Q2329.41 1522.85 2329.41 1531.6 Q2329.41 1540.33 2326.33 1544.94 Q2323.28 1549.52 2317.47 1549.52 Q2311.66 1549.52 2308.58 1544.94 Q2305.52 1540.33 2305.52 1531.6 Q2305.52 1522.85 2308.58 1518.27 Q2311.66 1513.66 2317.47 1513.66 Z" fill="#000000" fill-rule="evenodd" fill-opacity="1" /><polyline clip-path="url(#clip162)" style="stroke:#000000; stroke-linecap:butt; stroke-linejoin:round; stroke-width:2; stroke-opacity:0.1; fill:none" points="
  193.558,1016.74 2352.76,1016.74 
  "/>
<polyline clip-path="url(#clip162)" style="stroke:#000000; stroke-linecap:butt; stroke-linejoin:round; stroke-width:2; stroke-opacity:0.1; fill:none" points="
  193.558,358.394 2352.76,358.394 
  "/>
<polyline clip-path="url(#clip160)" style="stroke:#000000; stroke-linecap:butt; stroke-linejoin:round; stroke-width:4; stroke-opacity:1; fill:none" points="
  193.558,1486.45 193.558,47.2441 
  "/>
<polyline clip-path="url(#clip160)" style="stroke:#000000; stroke-linecap:butt; stroke-linejoin:round; stroke-width:4; stroke-opacity:1; fill:none" points="
  193.558,1016.74 212.456,1016.74 
  "/>
<polyline clip-path="url(#clip160)" style="stroke:#000000; stroke-linecap:butt; stroke-linejoin:round; stroke-width:4; stroke-opacity:1; fill:none" points="
  193.558,358.394 212.456,358.394 
  "/>
<path clip-path="url(#clip160)" d="M51.6634 1036.53 L59.3023 1036.53 L59.3023 1010.16 L50.9921 1011.83 L50.9921 1007.57 L59.256 1005.9 L63.9319 1005.9 L63.9319 1036.53 L71.5707 1036.53 L71.5707 1040.46 L51.6634 1040.46 L51.6634 1036.53 Z" fill="#000000" fill-rule="evenodd" fill-opacity="1" /><path clip-path="url(#clip160)" d="M91.0151 1008.98 Q87.404 1008.98 85.5753 1012.55 Q83.7697 1016.09 83.7697 1023.22 Q83.7697 1030.32 85.5753 1033.89 Q87.404 1037.43 91.0151 1037.43 Q94.6493 1037.43 96.4548 1033.89 Q98.2835 1030.32 98.2835 1023.22 Q98.2835 1016.09 96.4548 1012.55 Q94.6493 1008.98 91.0151 1008.98 M91.0151 1005.28 Q96.8252 1005.28 99.8808 1009.88 Q102.959 1014.47 102.959 1023.22 Q102.959 1031.94 99.8808 1036.55 Q96.8252 1041.13 91.0151 1041.13 Q85.2049 1041.13 82.1262 1036.55 Q79.0707 1031.94 79.0707 1023.22 Q79.0707 1014.47 82.1262 1009.88 Q85.2049 1005.28 91.0151 1005.28 Z" fill="#000000" fill-rule="evenodd" fill-opacity="1" /><path clip-path="url(#clip160)" d="M103.505 1009.85 L109.711 1009.85 L109.711 988.433 L102.959 989.787 L102.959 986.326 L109.674 984.972 L113.473 984.972 L113.473 1009.85 L119.68 1009.85 L119.68 1013.05 L103.505 1013.05 L103.505 1009.85 Z" fill="#000000" fill-rule="evenodd" fill-opacity="1" /><path clip-path="url(#clip160)" d="M127.353 1008.28 L131.322 1008.28 L131.322 1013.05 L127.353 1013.05 L127.353 1008.28 Z" fill="#000000" fill-rule="evenodd" fill-opacity="1" /><path clip-path="url(#clip160)" d="M148.192 997.498 Q145.634 997.498 144.13 999.247 Q142.644 1001 142.644 1004.04 Q142.644 1007.07 144.13 1008.84 Q145.634 1010.59 148.192 1010.59 Q150.75 1010.59 152.236 1008.84 Q153.74 1007.07 153.74 1004.04 Q153.74 1001 152.236 999.247 Q150.75 997.498 148.192 997.498 M155.734 985.593 L155.734 989.054 Q154.305 988.377 152.838 988.019 Q151.389 987.662 149.96 987.662 Q146.199 987.662 144.205 990.201 Q142.23 992.74 141.948 997.874 Q143.058 996.238 144.731 995.373 Q146.405 994.489 148.418 994.489 Q152.65 994.489 155.095 997.066 Q157.558 999.624 157.558 1004.04 Q157.558 1008.37 155.001 1010.98 Q152.443 1013.6 148.192 1013.6 Q143.321 1013.6 140.744 1009.87 Q138.168 1006.13 138.168 999.041 Q138.168 992.383 141.327 988.433 Q144.487 984.465 149.81 984.465 Q151.239 984.465 152.687 984.747 Q154.154 985.029 155.734 985.593 Z" fill="#000000" fill-rule="evenodd" fill-opacity="1" /><path clip-path="url(#clip160)" d="M51.8703 378.187 L59.5092 378.187 L59.5092 351.821 L51.199 353.488 L51.199 349.228 L59.4629 347.562 L64.1388 347.562 L64.1388 378.187 L71.7776 378.187 L71.7776 382.122 L51.8703 382.122 L51.8703 378.187 Z" fill="#000000" fill-rule="evenodd" fill-opacity="1" /><path clip-path="url(#clip160)" d="M91.2219 350.64 Q87.6109 350.64 85.7822 354.205 Q83.9766 357.747 83.9766 364.876 Q83.9766 371.983 85.7822 375.548 Q87.6109 379.089 91.2219 379.089 Q94.8562 379.089 96.6617 375.548 Q98.4904 371.983 98.4904 364.876 Q98.4904 357.747 96.6617 354.205 Q94.8562 350.64 91.2219 350.64 M91.2219 346.937 Q97.0321 346.937 100.088 351.543 Q103.166 356.126 103.166 364.876 Q103.166 373.603 100.088 378.21 Q97.0321 382.793 91.2219 382.793 Q85.4118 382.793 82.3331 378.21 Q79.2776 373.603 79.2776 364.876 Q79.2776 356.126 82.3331 351.543 Q85.4118 346.937 91.2219 346.937 Z" fill="#000000" fill-rule="evenodd" fill-opacity="1" /><path clip-path="url(#clip160)" d="M103.712 351.514 L109.918 351.514 L109.918 330.092 L103.166 331.446 L103.166 327.985 L109.881 326.631 L113.68 326.631 L113.68 351.514 L119.886 351.514 L119.886 354.711 L103.712 354.711 L103.712 351.514 Z" fill="#000000" fill-rule="evenodd" fill-opacity="1" /><path clip-path="url(#clip160)" d="M127.56 349.934 L131.528 349.934 L131.528 354.711 L127.56 354.711 L127.56 349.934 Z" fill="#000000" fill-rule="evenodd" fill-opacity="1" /><path clip-path="url(#clip160)" d="M147.929 341.377 Q145.22 341.377 143.659 342.825 Q142.117 344.273 142.117 346.812 Q142.117 349.351 143.659 350.799 Q145.22 352.247 147.929 352.247 Q150.637 352.247 152.198 350.799 Q153.759 349.332 153.759 346.812 Q153.759 344.273 152.198 342.825 Q150.656 341.377 147.929 341.377 M144.13 339.759 Q141.685 339.157 140.312 337.483 Q138.958 335.809 138.958 333.402 Q138.958 330.036 141.346 328.079 Q143.753 326.123 147.929 326.123 Q152.123 326.123 154.512 328.079 Q156.9 330.036 156.9 333.402 Q156.9 335.809 155.527 337.483 Q154.173 339.157 151.747 339.759 Q154.493 340.399 156.016 342.261 Q157.558 344.123 157.558 346.812 Q157.558 350.893 155.057 353.075 Q152.574 355.257 147.929 355.257 Q143.283 355.257 140.782 353.075 Q138.299 350.893 138.299 346.812 Q138.299 344.123 139.841 342.261 Q141.384 340.399 144.13 339.759 M142.738 333.759 Q142.738 335.941 144.092 337.164 Q145.465 338.386 147.929 338.386 Q150.374 338.386 151.747 337.164 Q153.139 335.941 153.139 333.759 Q153.139 331.578 151.747 330.355 Q150.374 329.133 147.929 329.133 Q145.465 329.133 144.092 330.355 Q142.738 331.578 142.738 333.759 Z" fill="#000000" fill-rule="evenodd" fill-opacity="1" /><polyline clip-path="url(#clip162)" style="stroke:#009af9; stroke-linecap:butt; stroke-linejoin:round; stroke-width:16; stroke-opacity:1; fill:none" points="
  254.668,87.9763 258.742,661.88 262.816,662.416 266.89,662.959 270.964,663.509 275.038,664.066 279.112,664.631 283.185,665.203 287.259,665.782 291.333,666.369 
  295.407,666.965 299.481,667.568 303.555,668.18 307.629,668.8 311.703,669.429 315.777,670.067 319.851,670.714 323.925,671.37 327.999,672.036 332.073,672.712 
  336.147,673.399 340.221,674.095 344.295,674.802 348.369,675.521 352.443,676.25 356.517,676.991 360.591,677.744 364.665,678.509 368.739,679.287 372.813,680.078 
  376.886,680.881 380.96,681.699 385.034,682.531 389.108,683.377 393.182,684.238 397.256,685.114 401.33,686.007 405.404,686.915 409.478,687.841 413.552,688.784 
  417.626,689.745 421.7,690.724 425.774,691.723 429.848,692.741 433.922,693.78 437.996,694.84 442.07,695.923 446.144,697.028 450.218,698.156 454.292,699.309 
  458.366,700.488 462.44,701.692 466.514,702.924 470.588,704.185 474.661,705.474 478.735,706.795 482.809,708.147 486.883,709.533 490.957,710.953 495.031,712.41 
  499.105,713.904 503.179,715.438 507.253,717.012 511.327,718.63 515.401,720.293 519.475,722.003 523.549,723.762 527.623,725.573 531.697,727.438 535.771,729.36 
  539.845,731.342 543.919,733.388 547.993,735.5 552.067,737.682 556.141,739.938 560.215,742.272 564.289,744.689 568.362,747.193 572.436,749.79 576.51,752.485 
  580.584,755.284 584.658,758.193 588.732,761.22 592.806,764.372 596.88,767.658 600.954,771.085 605.028,774.663 609.102,778.403 613.176,782.315 617.25,786.41 
  621.324,790.701 625.398,795.201 629.472,799.922 633.546,804.879 637.62,810.086 641.694,815.556 645.768,821.302 649.842,827.335 653.916,833.663 657.99,840.293 
  662.064,847.223 666.137,854.447 670.211,861.949 674.285,869.705 678.359,877.681 682.433,885.842 686.507,894.149 690.581,902.579 694.655,911.128 698.729,919.825 
  702.803,928.73 706.877,937.93 710.951,947.522 715.025,957.599 719.099,968.244 723.173,979.527 727.247,991.506 731.321,1004.23 735.395,1017.74 739.469,1032.07 
  743.543,1047.25 747.617,1063.29 751.691,1080.17 755.765,1097.88 759.838,1116.36 763.912,1135.51 767.986,1155.22 772.06,1175.33 776.134,1195.63 780.208,1215.91 
  784.282,1235.92 788.356,1255.42 792.43,1274.18 796.504,1291.99 800.578,1308.68 804.652,1324.15 808.726,1338.31 812.8,1351.15 816.874,1362.68 820.948,1372.93 
  825.022,1381.99 829.096,1389.94 833.17,1396.87 837.244,1402.89 841.318,1408.09 845.392,1412.56 849.466,1416.41 853.54,1419.7 857.613,1422.51 861.687,1424.91 
  865.761,1426.97 869.835,1428.72 873.909,1430.22 877.983,1431.5 882.057,1432.59 886.131,1433.54 890.205,1434.35 894.279,1435.05 898.353,1435.66 902.427,1436.19 
  906.501,1436.65 910.575,1437.06 914.649,1437.42 918.723,1437.74 922.797,1438.03 926.871,1438.29 930.945,1438.52 935.019,1438.74 939.093,1438.94 943.167,1439.12 
  947.241,1439.28 951.315,1439.4 955.388,1439.38 959.462,1438.73 963.536,1435.74 967.61,1419.63 971.684,1399.05 975.758,1258.87 979.832,1400.56 983.906,1400.18 
  987.98,1262.13 992.054,1404.09 996.128,1398.5 1000.2,1255.17 1004.28,1396.93 1008.35,1402.35 1012.42,1268.6 1016.5,1410.75 1020.57,1396.63 1024.65,1246.93 
  1028.72,1387.95 1032.79,1408.97 1036.87,1292.74 1040.94,1430.13 1045.02,1409.74 1049.09,1295.01 1053.16,1431.68 1057.24,1412.36 1061.31,1304.86 1065.39,1436.79 
  1069.46,1424.62 1073.53,1357.79 1077.61,1432.14 1081.68,1393.46 1085.76,1404.92 1089.83,1273.41 1093.9,1416.17 1097.98,1396.26 1102.05,1241.03 1106.12,1381.81 
  1110.2,1414.39 1114.27,1310.28 1118.35,1439.45 1122.42,1431.57 1126.49,1388.17 1130.57,1409.18 1134.64,1287.75 1138.72,1428.09 1142.79,1404.55 1146.86,1269.16 
  1150.94,1412.85 1155.01,1395.61 1159.09,1236.11 1163.16,1376.25 1167.23,1419.31 1171.31,1328.68 1175.38,1442.66 1179.46,1442.56 1183.53,1441.89 1187.6,1438.22 
  1191.68,1425.49 1195.75,1355.28 1199.83,1434.67 1203.9,1399.89 1207.97,1400.4 1212.05,1250.64 1216.12,1394.1 1220.2,1404.53 1224.27,1265.65 1228.34,1410.17 
  1232.42,1395.55 1236.49,1232.7 1240.57,1372.54 1244.64,1422.71 1248.71,1340.51 1252.79,1441.38 1256.86,1433.05 1260.94,1411.1 1265.01,1289.93 1269.08,1430.78 
  1273.16,1406.71 1277.23,1272.15 1281.31,1416.74 1285.38,1394.9 1289.45,1228.69 1293.53,1367.7 1297.6,1426.74 1301.67,1357.45 1305.75,1433.94 1309.82,1392.55 
  1313.9,1405.73 1317.97,1267.15 1322.04,1412.29 1326.12,1394.67 1330.19,1226.79 1334.27,1365.43 1338.34,1428.59 1342.41,1365.11 1346.49,1428.86 1350.56,1366.13 
  1354.64,1428.12 1358.71,1362.28 1362.78,1430.96 1366.86,1375.87 1370.93,1420.22 1375.01,1325.2 1379.08,1444.19 1383.15,1444.18 1387.23,1443.98 1391.3,1442.92 
  1395.38,1437.09 1399.45,1418.52 1403.52,1316.62 1407.6,1443.48 1411.67,1440.19 1415.75,1421.84 1419.82,1395.57 1423.89,1226.94 1427.97,1366.2 1432.04,1428.28 
  1436.12,1360.57 1440.19,1432.41 1444.26,1380.66 1448.34,1416.06 1452.41,1304.77 1456.49,1440.11 1460.56,1426.7 1464.63,1352.25 1468.71,1437.59 1472.78,1406.69 
  1476.86,1395.68 1480.93,1226.03 1485,1365.25 1489.08,1429.12 1493.15,1363.29 1497.22,1430.6 1501.3,1370.34 1505.37,1425.08 1509.45,1343.65 1513.52,1441.64 
  1517.59,1427.46 1521.67,1399.46 1525.74,1238.45 1529.82,1381.37 1533.89,1415.41 1537.96,1300.24 1542.04,1438.43 1546.11,1420.54 1550.19,1322.19 1554.26,1444.9 
  1558.33,1444.37 1562.41,1441.39 1566.48,1429.76 1570.56,1364.7 1574.63,1429.66 1578.7,1364.02 1582.78,1430.18 1586.85,1366.43 1590.93,1428.33 1595,1357.22 
  1599.07,1434.95 1603.15,1390.21 1607.22,1407.28 1611.3,1265.85 1615.37,1412.61 1619.44,1393.05 1623.52,1214.4 1627.59,1350.05 1631.67,1439.12 1635.74,1411.82 
  1639.81,1393.16 1643.89,1214.55 1647.96,1350.29 1652.04,1439.02 1656.11,1411.08 1660.18,1393.29 1664.26,1214.78 1668.33,1350.66 1672.4,1438.85 1676.48,1409.99 
  1680.55,1393.58 1684.63,1215.54 1688.7,1351.75 1692.77,1438.3 1696.85,1406.8 1700.92,1394.87 1705,1219.71 1709.07,1357.5 1713.14,1434.88 1717.22,1388.61 
  1721.29,1408.61 1725.37,1269.78 1729.44,1416.7 1733.51,1392.42 1737.59,1211.15 1741.66,1345.76 1745.74,1441.26 1749.81,1422.29 1753.88,1393.99 1757.96,1216.23 
  1762.03,1352.85 1766.11,1437.76 1770.18,1403.22 1774.25,1396.74 1778.33,1225.47 1782.4,1365.37 1786.48,1429.24 1790.55,1359.55 1794.62,1433.56 1798.7,1380.97 
  1802.77,1415.61 1806.85,1297.4 1810.92,1437.76 1814.99,1416.82 1819.07,1302.38 1823.14,1440.28 1827.22,1424.21 1831.29,1335.04 1835.36,1444.77 1839.44,1440.6 
  1843.51,1425.08 1847.59,1338.81 1851.66,1443.89 1855.73,1435.56 1859.81,1410.98 1863.88,1277.52 1867.95,1424.03 1872.03,1394.51 1876.1,1216.6 1880.18,1353.65 
  1884.25,1437.4 1888.32,1399.99 1892.4,1398.65 1896.47,1230.81 1900.55,1372.69 1904.62,1423.1 1908.69,1329.16 1912.77,1445.72 1916.84,1445.1 1920.92,1442.16 
  1924.99,1425.45 1929.06,1395.38 1933.14,1219.01 1937.21,1357.06 1941.29,1435.3 1945.36,1388.39 1949.43,1408.46 1953.51,1266.79 1957.58,1414.4 1961.66,1391.66 
  1965.73,1206.32 1969.8,1339.45 1973.88,1443.83 1977.95,1434.4 1982.03,1407.97 1986.1,1264.67 1990.17,1412.33 1994.25,1391.96 1998.32,1207.1 2002.4,1340.59 
  2006.47,1443.5 2010.54,1432.39 2014.62,1404.03 2018.69,1249.47 2022.77,1395.89 2026.84,1401.68 2030.91,1240.77 2034.99,1385.5 2039.06,1411.11 2043.14,1276.83 
  2047.21,1423.74 2051.28,1393.82 2055.36,1213.08 2059.43,1349.03 2063.5,1440.01 2067.58,1412.95 2071.65,1391.69 2075.73,1205.85 2079.8,1338.89 2083.87,1444.06 
  2087.95,1435.22 2092.02,1409.45 2096.1,1269.9 2100.17,1417.57 2104.24,1391.38 2108.32,1204.65 2112.39,1337.23 2116.47,1444.54 2120.54,1437.72 2124.61,1415.45 
  2128.69,1294.16 2132.76,1436.5 2136.84,1412.29 2140.91,1281.01 2144.98,1427.34 2149.06,1396.65 2153.13,1222.2 2157.21,1361.66 2161.28,1432.11 2165.35,1370.83 
  2169.43,1424.64 2173.5,1334.55 2177.58,1445.21 2181.65,1441.07 2185.72,1425.29 2189.8,1337.42 2193.87,1444.57 2197.95,1437.36 2202.02,1414.16 2206.09,1288.13 
  2210.17,1432.77 2214.24,1404.1 2218.32,1248.49 2222.39,1395.05 2226.46,1402.09 2230.54,1241.05 2234.61,1386.14 2238.69,1410.3 2242.76,1272.36 2246.83,1420.08 
  2250.91,1391.54 2254.98,1204.32 2259.05,1336.93 2263.13,1444.72 2267.2,1438.02 2271.28,1415.81 2275.35,1294.84 2279.42,1437.1 2283.5,1413.34 2287.57,1284.47 
  2291.65,1430.21 
  "/>
<path clip-path="url(#clip160)" d="
M1962.23 250.738 L2280.78 250.738 L2280.78 95.2176 L1962.23 95.2176  Z
  " fill="#ffffff" fill-rule="evenodd" fill-opacity="1"/>
<polyline clip-path="url(#clip160)" style="stroke:#000000; stroke-linecap:butt; stroke-linejoin:round; stroke-width:4; stroke-opacity:1; fill:none" points="
  1962.23,250.738 2280.78,250.738 2280.78,95.2176 1962.23,95.2176 1962.23,250.738 
  "/>
<polyline clip-path="url(#clip160)" style="stroke:#009af9; stroke-linecap:butt; stroke-linejoin:round; stroke-width:6; stroke-opacity:1; fill:none" points="
  1986.22,172.978 2130.16,172.978 
  "/>
<path clip-path="url(#clip160)" d="M2174.92 202.509 Q2172.21 209.453 2169.64 211.571 Q2167.07 213.689 2162.77 213.689 L2157.66 213.689 L2157.66 208.342 L2161.41 208.342 Q2164.05 208.342 2165.51 207.092 Q2166.97 205.842 2168.74 201.189 L2169.88 198.273 L2154.16 160.009 L2160.93 160.009 L2173.08 190.425 L2185.23 160.009 L2192 160.009 L2174.92 202.509 Z" fill="#000000" fill-rule="evenodd" fill-opacity="1" /><path clip-path="url(#clip160)" d="M2202.94 192.995 L2214.4 192.995 L2214.4 153.446 L2201.93 155.946 L2201.93 149.558 L2214.33 147.058 L2221.34 147.058 L2221.34 192.995 L2232.8 192.995 L2232.8 198.898 L2202.94 198.898 L2202.94 192.995 Z" fill="#000000" fill-rule="evenodd" fill-opacity="1" /></svg>
