<?xml version="1.0" encoding="utf-8"?>
<svg xmlns="http://www.w3.org/2000/svg" xmlns:xlink="http://www.w3.org/1999/xlink" width="600" height="400" viewBox="0 0 2400 1600">
<defs>
  <clipPath id="clip650">
    <rect x="0" y="0" width="2400" height="1600"/>
  </clipPath>
</defs>
<path clip-path="url(#clip650)" d="
M0 1600 L2400 1600 L2400 0 L0 0  Z
  " fill="#ffffff" fill-rule="evenodd" fill-opacity="1"/>
<defs>
  <clipPath id="clip651">
    <rect x="480" y="0" width="1681" height="1600"/>
  </clipPath>
</defs>
<defs>
  <clipPath id="clip652">
    <rect x="276" y="47" width="2077" height="1377"/>
  </clipPath>
</defs>
<path clip-path="url(#clip650)" d="
M276.876 1423.18 L2352.76 1423.18 L2352.76 47.2441 L276.876 47.2441  Z
  " fill="#ffffff" fill-rule="evenodd" fill-opacity="1"/>
<polyline clip-path="url(#clip652)" style="stroke:#000000; stroke-linecap:round; stroke-linejoin:round; stroke-width:2; stroke-opacity:0.1; fill:none" points="
  553.224,1423.18 553.224,47.2441 
  "/>
<polyline clip-path="url(#clip652)" style="stroke:#000000; stroke-linecap:round; stroke-linejoin:round; stroke-width:2; stroke-opacity:0.1; fill:none" points="
  988.419,1423.18 988.419,47.2441 
  "/>
<polyline clip-path="url(#clip652)" style="stroke:#000000; stroke-linecap:round; stroke-linejoin:round; stroke-width:2; stroke-opacity:0.1; fill:none" points="
  1423.61,1423.18 1423.61,47.2441 
  "/>
<polyline clip-path="url(#clip652)" style="stroke:#000000; stroke-linecap:round; stroke-linejoin:round; stroke-width:2; stroke-opacity:0.1; fill:none" points="
  1858.81,1423.18 1858.81,47.2441 
  "/>
<polyline clip-path="url(#clip652)" style="stroke:#000000; stroke-linecap:round; stroke-linejoin:round; stroke-width:2; stroke-opacity:0.1; fill:none" points="
  2294,1423.18 2294,47.2441 
  "/>
<polyline clip-path="url(#clip650)" style="stroke:#000000; stroke-linecap:round; stroke-linejoin:round; stroke-width:4; stroke-opacity:1; fill:none" points="
  276.876,1423.18 2352.76,1423.18 
  "/>
<polyline clip-path="url(#clip650)" style="stroke:#000000; stroke-linecap:round; stroke-linejoin:round; stroke-width:4; stroke-opacity:1; fill:none" points="
  553.224,1423.18 553.224,1404.28 
  "/>
<polyline clip-path="url(#clip650)" style="stroke:#000000; stroke-linecap:round; stroke-linejoin:round; stroke-width:4; stroke-opacity:1; fill:none" points="
  988.419,1423.18 988.419,1404.28 
  "/>
<polyline clip-path="url(#clip650)" style="stroke:#000000; stroke-linecap:round; stroke-linejoin:round; stroke-width:4; stroke-opacity:1; fill:none" points="
  1423.61,1423.18 1423.61,1404.28 
  "/>
<polyline clip-path="url(#clip650)" style="stroke:#000000; stroke-linecap:round; stroke-linejoin:round; stroke-width:4; stroke-opacity:1; fill:none" points="
  1858.81,1423.18 1858.81,1404.28 
  "/>
<polyline clip-path="url(#clip650)" style="stroke:#000000; stroke-linecap:round; stroke-linejoin:round; stroke-width:4; stroke-opacity:1; fill:none" points="
  2294,1423.18 2294,1404.28 
  "/>
<path clip-path="url(#clip650)" d="M556.234 1455.09 L544.428 1473.54 L556.234 1473.54 L556.234 1455.09 M555.007 1451.02 L560.886 1451.02 L560.886 1473.54 L565.817 1473.54 L565.817 1477.43 L560.886 1477.43 L560.886 1485.58 L556.234 1485.58 L556.234 1477.43 L540.632 1477.43 L540.632 1472.92 L555.007 1451.02 Z" fill="#000000" fill-rule="evenodd" fill-opacity="1" /><path clip-path="url(#clip650)" d="M988.825 1466.44 Q985.676 1466.44 983.825 1468.59 Q981.996 1470.74 981.996 1474.49 Q981.996 1478.22 983.825 1480.39 Q985.676 1482.55 988.825 1482.55 Q991.973 1482.55 993.801 1480.39 Q995.653 1478.22 995.653 1474.49 Q995.653 1470.74 993.801 1468.59 Q991.973 1466.44 988.825 1466.44 M998.107 1451.78 L998.107 1456.04 Q996.348 1455.21 994.542 1454.77 Q992.76 1454.33 991 1454.33 Q986.371 1454.33 983.917 1457.45 Q981.487 1460.58 981.139 1466.9 Q982.505 1464.89 984.565 1463.82 Q986.625 1462.73 989.102 1462.73 Q994.311 1462.73 997.32 1465.9 Q1000.35 1469.05 1000.35 1474.49 Q1000.35 1479.82 997.204 1483.03 Q994.056 1486.25 988.825 1486.25 Q982.829 1486.25 979.658 1481.67 Q976.487 1477.06 976.487 1468.33 Q976.487 1460.14 980.375 1455.28 Q984.264 1450.39 990.815 1450.39 Q992.574 1450.39 994.357 1450.74 Q996.162 1451.09 998.107 1451.78 Z" fill="#000000" fill-rule="evenodd" fill-opacity="1" /><path clip-path="url(#clip650)" d="M1423.61 1469.17 Q1420.28 1469.17 1418.36 1470.95 Q1416.46 1472.73 1416.46 1475.86 Q1416.46 1478.98 1418.36 1480.77 Q1420.28 1482.55 1423.61 1482.55 Q1426.95 1482.55 1428.87 1480.77 Q1430.79 1478.96 1430.79 1475.86 Q1430.79 1472.73 1428.87 1470.95 Q1426.97 1469.17 1423.61 1469.17 M1418.94 1467.18 Q1415.93 1466.44 1414.24 1464.38 Q1412.57 1462.32 1412.57 1459.35 Q1412.57 1455.21 1415.51 1452.8 Q1418.48 1450.39 1423.61 1450.39 Q1428.78 1450.39 1431.72 1452.8 Q1434.66 1455.21 1434.66 1459.35 Q1434.66 1462.32 1432.97 1464.38 Q1431.3 1466.44 1428.31 1467.18 Q1431.69 1467.96 1433.57 1470.26 Q1435.47 1472.55 1435.47 1475.86 Q1435.47 1480.88 1432.39 1483.57 Q1429.33 1486.25 1423.61 1486.25 Q1417.9 1486.25 1414.82 1483.57 Q1411.76 1480.88 1411.76 1475.86 Q1411.76 1472.55 1413.66 1470.26 Q1415.56 1467.96 1418.94 1467.18 M1417.23 1459.79 Q1417.23 1462.48 1418.89 1463.98 Q1420.58 1465.49 1423.61 1465.49 Q1426.62 1465.49 1428.31 1463.98 Q1430.03 1462.48 1430.03 1459.79 Q1430.03 1457.11 1428.31 1455.6 Q1426.62 1454.1 1423.61 1454.1 Q1420.58 1454.1 1418.89 1455.6 Q1417.23 1457.11 1417.23 1459.79 Z" fill="#000000" fill-rule="evenodd" fill-opacity="1" /><path clip-path="url(#clip650)" d="M1833.5 1481.64 L1841.14 1481.64 L1841.14 1455.28 L1832.83 1456.95 L1832.83 1452.69 L1841.09 1451.02 L1845.77 1451.02 L1845.77 1481.64 L1853.4 1481.64 L1853.4 1485.58 L1833.5 1485.58 L1833.5 1481.64 Z" fill="#000000" fill-rule="evenodd" fill-opacity="1" /><path clip-path="url(#clip650)" d="M1872.85 1454.1 Q1869.24 1454.1 1867.41 1457.66 Q1865.6 1461.2 1865.6 1468.33 Q1865.6 1475.44 1867.41 1479.01 Q1869.24 1482.55 1872.85 1482.55 Q1876.48 1482.55 1878.29 1479.01 Q1880.12 1475.44 1880.12 1468.33 Q1880.12 1461.2 1878.29 1457.66 Q1876.48 1454.1 1872.85 1454.1 M1872.85 1450.39 Q1878.66 1450.39 1881.71 1455 Q1884.79 1459.58 1884.79 1468.33 Q1884.79 1477.06 1881.71 1481.67 Q1878.66 1486.25 1872.85 1486.25 Q1867.04 1486.25 1863.96 1481.67 Q1860.9 1477.06 1860.9 1468.33 Q1860.9 1459.58 1863.96 1455 Q1867.04 1450.39 1872.85 1450.39 Z" fill="#000000" fill-rule="evenodd" fill-opacity="1" /><path clip-path="url(#clip650)" d="M2269.49 1481.64 L2277.13 1481.64 L2277.13 1455.28 L2268.82 1456.95 L2268.82 1452.69 L2277.08 1451.02 L2281.76 1451.02 L2281.76 1481.64 L2289.4 1481.64 L2289.4 1485.58 L2269.49 1485.58 L2269.49 1481.64 Z" fill="#000000" fill-rule="evenodd" fill-opacity="1" /><path clip-path="url(#clip650)" d="M2302.87 1481.64 L2319.19 1481.64 L2319.19 1485.58 L2297.25 1485.58 L2297.25 1481.64 Q2299.91 1478.89 2304.49 1474.26 Q2309.1 1469.61 2310.28 1468.27 Q2312.52 1465.74 2313.4 1464.01 Q2314.31 1462.25 2314.31 1460.56 Q2314.31 1457.8 2312.36 1456.07 Q2310.44 1454.33 2307.34 1454.33 Q2305.14 1454.33 2302.69 1455.09 Q2300.25 1455.86 2297.48 1457.41 L2297.48 1452.69 Q2300.3 1451.55 2302.75 1450.97 Q2305.21 1450.39 2307.25 1450.39 Q2312.62 1450.39 2315.81 1453.08 Q2319 1455.77 2319 1460.26 Q2319 1462.39 2318.19 1464.31 Q2317.41 1466.2 2315.3 1468.8 Q2314.72 1469.47 2311.62 1472.69 Q2308.52 1475.88 2302.87 1481.64 Z" fill="#000000" fill-rule="evenodd" fill-opacity="1" /><path clip-path="url(#clip650)" d="M1329.74 1546.53 L1329.74 1568.04 L1323.89 1568.04 L1323.89 1546.72 Q1323.89 1541.66 1321.91 1539.14 Q1319.94 1536.63 1315.99 1536.63 Q1311.25 1536.63 1308.51 1539.65 Q1305.78 1542.68 1305.78 1547.9 L1305.78 1568.04 L1299.89 1568.04 L1299.89 1532.4 L1305.78 1532.4 L1305.78 1537.93 Q1307.88 1534.72 1310.71 1533.13 Q1313.57 1531.54 1317.3 1531.54 Q1323.44 1531.54 1326.59 1535.36 Q1329.74 1539.14 1329.74 1546.53 Z" fill="#000000" fill-rule="evenodd" fill-opacity="1" /><polyline clip-path="url(#clip652)" style="stroke:#000000; stroke-linecap:round; stroke-linejoin:round; stroke-width:2; stroke-opacity:0.1; fill:none" points="
  276.876,1198.63 2352.76,1198.63 
  "/>
<polyline clip-path="url(#clip652)" style="stroke:#000000; stroke-linecap:round; stroke-linejoin:round; stroke-width:2; stroke-opacity:0.1; fill:none" points="
  276.876,802.414 2352.76,802.414 
  "/>
<polyline clip-path="url(#clip652)" style="stroke:#000000; stroke-linecap:round; stroke-linejoin:round; stroke-width:2; stroke-opacity:0.1; fill:none" points="
  276.876,406.197 2352.76,406.197 
  "/>
<polyline clip-path="url(#clip650)" style="stroke:#000000; stroke-linecap:round; stroke-linejoin:round; stroke-width:4; stroke-opacity:1; fill:none" points="
  276.876,1423.18 276.876,47.2441 
  "/>
<polyline clip-path="url(#clip650)" style="stroke:#000000; stroke-linecap:round; stroke-linejoin:round; stroke-width:4; stroke-opacity:1; fill:none" points="
  276.876,1198.63 295.773,1198.63 
  "/>
<polyline clip-path="url(#clip650)" style="stroke:#000000; stroke-linecap:round; stroke-linejoin:round; stroke-width:4; stroke-opacity:1; fill:none" points="
  276.876,802.414 295.773,802.414 
  "/>
<polyline clip-path="url(#clip650)" style="stroke:#000000; stroke-linecap:round; stroke-linejoin:round; stroke-width:4; stroke-opacity:1; fill:none" points="
  276.876,406.197 295.773,406.197 
  "/>
<path clip-path="url(#clip650)" d="M114.931 1218.42 L122.57 1218.42 L122.57 1192.06 L114.26 1193.73 L114.26 1189.47 L122.524 1187.8 L127.2 1187.8 L127.2 1218.42 L134.839 1218.42 L134.839 1222.36 L114.931 1222.36 L114.931 1218.42 Z" fill="#000000" fill-rule="evenodd" fill-opacity="1" /><path clip-path="url(#clip650)" d="M154.283 1190.88 Q150.672 1190.88 148.843 1194.44 Q147.038 1197.98 147.038 1205.11 Q147.038 1212.22 148.843 1215.79 Q150.672 1219.33 154.283 1219.33 Q157.917 1219.33 159.723 1215.79 Q161.552 1212.22 161.552 1205.11 Q161.552 1197.98 159.723 1194.44 Q157.917 1190.88 154.283 1190.88 M154.283 1187.17 Q160.093 1187.17 163.149 1191.78 Q166.227 1196.36 166.227 1205.11 Q166.227 1213.84 163.149 1218.45 Q160.093 1223.03 154.283 1223.03 Q148.473 1223.03 145.394 1218.45 Q142.339 1213.84 142.339 1205.11 Q142.339 1196.36 145.394 1191.78 Q148.473 1187.17 154.283 1187.17 Z" fill="#000000" fill-rule="evenodd" fill-opacity="1" /><path clip-path="url(#clip650)" d="M166.227 1181.28 L190.339 1181.28 L190.339 1184.47 L166.227 1184.47 L166.227 1181.28 Z" fill="#000000" fill-rule="evenodd" fill-opacity="1" /><path clip-path="url(#clip650)" d="M199.197 1191.75 L205.404 1191.75 L205.404 1170.33 L198.652 1171.68 L198.652 1168.22 L205.366 1166.87 L209.166 1166.87 L209.166 1191.75 L215.372 1191.75 L215.372 1194.95 L199.197 1194.95 L199.197 1191.75 Z" fill="#000000" fill-rule="evenodd" fill-opacity="1" /><path clip-path="url(#clip650)" d="M231.171 1169.37 Q228.237 1169.37 226.751 1172.27 Q225.284 1175.14 225.284 1180.94 Q225.284 1186.71 226.751 1189.61 Q228.237 1192.49 231.171 1192.49 Q234.124 1192.49 235.591 1189.61 Q237.076 1186.71 237.076 1180.94 Q237.076 1175.14 235.591 1172.27 Q234.124 1169.37 231.171 1169.37 M231.171 1166.36 Q235.891 1166.36 238.374 1170.1 Q240.876 1173.83 240.876 1180.94 Q240.876 1188.03 238.374 1191.77 Q235.891 1195.49 231.171 1195.49 Q226.45 1195.49 223.949 1191.77 Q221.466 1188.03 221.466 1180.94 Q221.466 1173.83 223.949 1170.1 Q226.45 1166.36 231.171 1166.36 Z" fill="#000000" fill-rule="evenodd" fill-opacity="1" /><path clip-path="url(#clip650)" d="M140.247 822.207 L147.886 822.207 L147.886 795.841 L139.575 797.508 L139.575 793.249 L147.839 791.582 L152.515 791.582 L152.515 822.207 L160.154 822.207 L160.154 826.142 L140.247 826.142 L140.247 822.207 Z" fill="#000000" fill-rule="evenodd" fill-opacity="1" /><path clip-path="url(#clip650)" d="M179.598 794.661 Q175.987 794.661 174.159 798.225 Q172.353 801.767 172.353 808.897 Q172.353 816.003 174.159 819.568 Q175.987 823.11 179.598 823.11 Q183.233 823.11 185.038 819.568 Q186.867 816.003 186.867 808.897 Q186.867 801.767 185.038 798.225 Q183.233 794.661 179.598 794.661 M179.598 790.957 Q185.409 790.957 188.464 795.563 Q191.543 800.147 191.543 808.897 Q191.543 817.623 188.464 822.23 Q185.409 826.813 179.598 826.813 Q173.788 826.813 170.71 822.23 Q167.654 817.623 167.654 808.897 Q167.654 800.147 170.71 795.563 Q173.788 790.957 179.598 790.957 Z" fill="#000000" fill-rule="evenodd" fill-opacity="1" /><path clip-path="url(#clip650)" d="M191.543 785.058 L215.654 785.058 L215.654 788.256 L191.543 788.256 L191.543 785.058 Z" fill="#000000" fill-rule="evenodd" fill-opacity="1" /><path clip-path="url(#clip650)" d="M223.892 770.652 L238.807 770.652 L238.807 773.849 L227.372 773.849 L227.372 780.733 Q228.199 780.45 229.027 780.319 Q229.854 780.168 230.682 780.168 Q235.384 780.168 238.13 782.745 Q240.876 785.322 240.876 789.723 Q240.876 794.255 238.054 796.776 Q235.233 799.277 230.099 799.277 Q228.331 799.277 226.488 798.976 Q224.663 798.675 222.707 798.073 L222.707 794.255 Q224.4 795.177 226.205 795.628 Q228.011 796.08 230.023 796.08 Q233.277 796.08 235.177 794.368 Q237.076 792.657 237.076 789.723 Q237.076 786.789 235.177 785.077 Q233.277 783.366 230.023 783.366 Q228.5 783.366 226.977 783.704 Q225.472 784.043 223.892 784.757 L223.892 770.652 Z" fill="#000000" fill-rule="evenodd" fill-opacity="1" /><path clip-path="url(#clip650)" d="M170.17 425.989 L177.809 425.989 L177.809 399.624 L169.499 401.29 L169.499 397.031 L177.762 395.365 L182.438 395.365 L182.438 425.989 L190.077 425.989 L190.077 429.925 L170.17 429.925 L170.17 425.989 Z" fill="#000000" fill-rule="evenodd" fill-opacity="1" /><path clip-path="url(#clip650)" d="M209.522 398.443 Q205.91 398.443 204.082 402.008 Q202.276 405.55 202.276 412.679 Q202.276 419.786 204.082 423.35 Q205.91 426.892 209.522 426.892 Q213.156 426.892 214.961 423.35 Q216.79 419.786 216.79 412.679 Q216.79 405.55 214.961 402.008 Q213.156 398.443 209.522 398.443 M209.522 394.74 Q215.332 394.74 218.387 399.346 Q221.466 403.929 221.466 412.679 Q221.466 421.406 218.387 426.013 Q215.332 430.596 209.522 430.596 Q203.711 430.596 200.633 426.013 Q197.577 421.406 197.577 412.679 Q197.577 403.929 200.633 399.346 Q203.711 394.74 209.522 394.74 Z" fill="#000000" fill-rule="evenodd" fill-opacity="1" /><path clip-path="url(#clip650)" d="M231.171 376.936 Q228.237 376.936 226.751 379.832 Q225.284 382.71 225.284 388.502 Q225.284 394.276 226.751 397.173 Q228.237 400.05 231.171 400.05 Q234.124 400.05 235.591 397.173 Q237.076 394.276 237.076 388.502 Q237.076 382.71 235.591 379.832 Q234.124 376.936 231.171 376.936 M231.171 373.926 Q235.891 373.926 238.374 377.669 Q240.876 381.393 240.876 388.502 Q240.876 395.593 238.374 399.336 Q235.891 403.06 231.171 403.06 Q226.45 403.06 223.949 399.336 Q221.466 395.593 221.466 388.502 Q221.466 381.393 223.949 377.669 Q226.45 373.926 231.171 373.926 Z" fill="#000000" fill-rule="evenodd" fill-opacity="1" /><path clip-path="url(#clip650)" d="M44.7161 779.279 L47.5806 779.279 L47.5806 806.206 Q53.6281 805.824 56.8109 802.577 Q59.9619 799.299 59.9619 793.474 Q59.9619 790.1 59.1344 786.949 Q58.3069 783.766 56.6518 780.647 L62.1899 780.647 Q63.5267 783.798 64.227 787.108 Q64.9272 790.419 64.9272 793.824 Q64.9272 802.354 59.9619 807.351 Q54.9967 812.317 46.5303 812.317 Q37.7774 812.317 32.6531 807.606 Q27.4968 802.864 27.4968 794.843 Q27.4968 787.649 32.1438 783.48 Q36.7589 779.279 44.7161 779.279 M42.9973 785.135 Q38.1912 785.199 35.3266 787.84 Q32.4621 790.45 32.4621 794.779 Q32.4621 799.681 35.2312 802.641 Q38.0002 805.569 43.0292 806.015 L42.9973 785.135 Z" fill="#000000" fill-rule="evenodd" fill-opacity="1" /><path clip-path="url(#clip650)" d="M33.8307 749.01 Q33.2578 749.996 33.0032 751.174 Q32.7167 752.32 32.7167 753.72 Q32.7167 758.686 35.9632 761.359 Q39.1779 764.001 45.2253 764.001 L64.0042 764.001 L64.0042 769.889 L28.3562 769.889 L28.3562 764.001 L33.8944 764.001 Q30.6479 762.155 29.0883 759.195 Q27.4968 756.235 27.4968 752.002 Q27.4968 751.397 27.5923 750.665 Q27.656 749.933 27.8151 749.041 L33.8307 749.01 Z" fill="#000000" fill-rule="evenodd" fill-opacity="1" /><path clip-path="url(#clip650)" d="M33.8307 723.356 Q33.2578 724.343 33.0032 725.52 Q32.7167 726.666 32.7167 728.066 Q32.7167 733.032 35.9632 735.705 Q39.1779 738.347 45.2253 738.347 L64.0042 738.347 L64.0042 744.235 L28.3562 744.235 L28.3562 738.347 L33.8944 738.347 Q30.6479 736.501 29.0883 733.541 Q27.4968 730.581 27.4968 726.348 Q27.4968 725.743 27.5923 725.011 Q27.656 724.279 27.8151 723.388 L33.8307 723.356 Z" fill="#000000" fill-rule="evenodd" fill-opacity="1" /><path clip-path="url(#clip650)" d="M32.4621 704.832 Q32.4621 709.542 36.1542 712.28 Q39.8145 715.017 46.212 715.017 Q52.6095 715.017 56.3017 712.311 Q59.9619 709.574 59.9619 704.832 Q59.9619 700.153 56.2698 697.416 Q52.5777 694.678 46.212 694.678 Q39.8781 694.678 36.186 697.416 Q32.4621 700.153 32.4621 704.832 M27.4968 704.832 Q27.4968 697.193 32.4621 692.832 Q37.4273 688.472 46.212 688.472 Q54.9649 688.472 59.9619 692.832 Q64.9272 697.193 64.9272 704.832 Q64.9272 712.502 59.9619 716.863 Q54.9649 721.191 46.212 721.191 Q37.4273 721.191 32.4621 716.863 Q27.4968 712.502 27.4968 704.832 Z" fill="#000000" fill-rule="evenodd" fill-opacity="1" /><path clip-path="url(#clip650)" d="M33.8307 658.107 Q33.2578 659.094 33.0032 660.272 Q32.7167 661.418 32.7167 662.818 Q32.7167 667.783 35.9632 670.457 Q39.1779 673.099 45.2253 673.099 L64.0042 673.099 L64.0042 678.987 L28.3562 678.987 L28.3562 673.099 L33.8944 673.099 Q30.6479 671.253 29.0883 668.292 Q27.4968 665.332 27.4968 661.099 Q27.4968 660.494 27.5923 659.762 Q27.656 659.03 27.8151 658.139 L33.8307 658.107 Z" fill="#000000" fill-rule="evenodd" fill-opacity="1" /><circle clip-path="url(#clip652)" cx="335.627" cy="86.1857" r="14.4" fill="#009af9" fill-rule="evenodd" fill-opacity="1" stroke="#000000" stroke-opacity="1" stroke-width="3.2"/>
<circle clip-path="url(#clip652)" cx="553.224" cy="170.256" r="14.4" fill="#009af9" fill-rule="evenodd" fill-opacity="1" stroke="#000000" stroke-opacity="1" stroke-width="3.2"/>
<circle clip-path="url(#clip652)" cx="770.822" cy="205.459" r="14.4" fill="#009af9" fill-rule="evenodd" fill-opacity="1" stroke="#000000" stroke-opacity="1" stroke-width="3.2"/>
<circle clip-path="url(#clip652)" cx="988.419" cy="205.459" r="14.4" fill="#009af9" fill-rule="evenodd" fill-opacity="1" stroke="#000000" stroke-opacity="1" stroke-width="3.2"/>
<circle clip-path="url(#clip652)" cx="1206.02" cy="258.473" r="14.4" fill="#009af9" fill-rule="evenodd" fill-opacity="1" stroke="#000000" stroke-opacity="1" stroke-width="3.2"/>
<circle clip-path="url(#clip652)" cx="1423.61" cy="310.452" r="14.4" fill="#009af9" fill-rule="evenodd" fill-opacity="1" stroke="#000000" stroke-opacity="1" stroke-width="3.2"/>
<circle clip-path="url(#clip652)" cx="1641.21" cy="389.48" r="14.4" fill="#009af9" fill-rule="evenodd" fill-opacity="1" stroke="#000000" stroke-opacity="1" stroke-width="3.2"/>
<circle clip-path="url(#clip652)" cx="1858.81" cy="429.51" r="14.4" fill="#009af9" fill-rule="evenodd" fill-opacity="1" stroke="#000000" stroke-opacity="1" stroke-width="3.2"/>
<circle clip-path="url(#clip652)" cx="2076.41" cy="1293.42" r="14.4" fill="#009af9" fill-rule="evenodd" fill-opacity="1" stroke="#000000" stroke-opacity="1" stroke-width="3.2"/>
<circle clip-path="url(#clip652)" cx="2294" cy="1384.24" r="14.4" fill="#009af9" fill-rule="evenodd" fill-opacity="1" stroke="#000000" stroke-opacity="1" stroke-width="3.2"/>
<polyline clip-path="url(#clip652)" style="stroke:#e26f46; stroke-linecap:round; stroke-linejoin:round; stroke-width:16; stroke-opacity:1; fill:none" points="
  335.627,444.006 553.224,453.906 770.822,461.586 988.419,467.86 1206.02,473.165 1423.61,477.761 1641.21,481.814 1858.81,485.44 2076.41,488.721 2294,491.715 
  
  "/>
<polyline clip-path="url(#clip652)" style="stroke:#3da44d; stroke-linecap:round; stroke-linejoin:round; stroke-width:16; stroke-opacity:1; fill:none" points="
  335.627,481.814 553.224,501.616 770.822,516.975 988.419,529.524 1206.02,540.134 1423.61,549.325 1641.21,557.432 1858.81,564.684 2076.41,571.244 2294,577.233 
  
  "/>
<path clip-path="url(#clip650)" d="
M1913.32 404.149 L2283.56 404.149 L2283.56 93.1086 L1913.32 93.1086  Z
  " fill="#ffffff" fill-rule="evenodd" fill-opacity="1"/>
<polyline clip-path="url(#clip650)" style="stroke:#000000; stroke-linecap:round; stroke-linejoin:round; stroke-width:4; stroke-opacity:1; fill:none" points="
  1913.32,404.149 2283.56,404.149 2283.56,93.1086 1913.32,93.1086 1913.32,404.149 
  "/>
<circle clip-path="url(#clip650)" cx="2005.59" cy="170.869" r="34.56" fill="#009af9" fill-rule="evenodd" fill-opacity="1" stroke="#000000" stroke-opacity="1" stroke-width="7.68"/>
<path clip-path="url(#clip650)" d="M2128.71 165.504 L2118.61 165.504 L2115.69 177.101 L2125.87 177.101 L2128.71 165.504 M2123.51 145.747 L2119.9 160.157 L2130.03 160.157 L2133.68 145.747 L2139.24 145.747 L2135.66 160.157 L2146.49 160.157 L2146.49 165.504 L2134.3 165.504 L2131.46 177.101 L2142.5 177.101 L2142.5 182.414 L2130.1 182.414 L2126.49 196.789 L2120.94 196.789 L2124.51 182.414 L2114.34 182.414 L2110.76 196.789 L2105.17 196.789 L2108.78 182.414 L2097.85 182.414 L2097.85 177.101 L2110.07 177.101 L2112.99 165.504 L2101.8 165.504 L2101.8 160.157 L2114.34 160.157 L2117.88 145.747 L2123.51 145.747 Z" fill="#000000" fill-rule="evenodd" fill-opacity="1" /><path clip-path="url(#clip650)" d="M2160.76 190.886 L2172.22 190.886 L2172.22 151.337 L2159.76 153.837 L2159.76 147.449 L2172.15 144.949 L2179.17 144.949 L2179.17 190.886 L2190.62 190.886 L2190.62 196.789 L2160.76 196.789 L2160.76 190.886 Z" fill="#000000" fill-rule="evenodd" fill-opacity="1" /><path clip-path="url(#clip650)" d="M2205 195.712 L2205 189.323 Q2207.64 190.573 2210.35 191.233 Q2213.05 191.893 2215.66 191.893 Q2222.6 191.893 2226.25 187.24 Q2229.93 182.553 2230.45 173.039 Q2228.44 176.025 2225.35 177.622 Q2222.26 179.219 2218.51 179.219 Q2210.73 179.219 2206.18 174.532 Q2201.67 169.81 2201.67 161.65 Q2201.67 153.664 2206.39 148.837 Q2211.11 144.011 2218.96 144.011 Q2227.95 144.011 2232.67 150.921 Q2237.43 157.796 2237.43 170.921 Q2237.43 183.178 2231.6 190.504 Q2225.8 197.796 2215.97 197.796 Q2213.33 197.796 2210.62 197.275 Q2207.92 196.754 2205 195.712 M2218.96 173.733 Q2223.68 173.733 2226.42 170.504 Q2229.2 167.275 2229.2 161.65 Q2229.2 156.06 2226.42 152.831 Q2223.68 149.567 2218.96 149.567 Q2214.23 149.567 2211.46 152.831 Q2208.71 156.06 2208.71 161.65 Q2208.71 167.275 2211.46 170.504 Q2214.23 173.733 2218.96 173.733 Z" fill="#000000" fill-rule="evenodd" fill-opacity="1" /><polyline clip-path="url(#clip650)" style="stroke:#e26f46; stroke-linecap:round; stroke-linejoin:round; stroke-width:6; stroke-opacity:1; fill:none" points="
  1936.39,248.629 2074.78,248.629 
  "/>
<path clip-path="url(#clip650)" d="M2136.85 265.308 Q2136.85 265.589 2136.53 266.678 Q2136.21 267.767 2135.44 269.454 Q2134.7 271.14 2133.68 272.686 Q2132.66 274.197 2130.98 275.321 Q2129.33 276.41 2127.43 276.41 Q2124.9 276.41 2123.21 274.724 Q2121.53 273.037 2121.53 270.508 Q2121.53 269.102 2122.26 267.17 Q2126.94 254.698 2126.94 250.411 Q2126.94 245.387 2123.04 245.387 Q2121.11 245.387 2119.28 246.125 Q2117.49 246.828 2116.26 247.811 Q2115.03 248.795 2113.9 250.165 Q2112.81 251.501 2112.25 252.414 Q2111.72 253.292 2111.3 254.171 L2110.39 257.754 Q2110.18 258.738 2109.16 262.568 L2107.58 269.067 Q2106.45 273.916 2106.21 274.373 Q2105.86 275.356 2105.08 275.883 Q2104.31 276.41 2103.54 276.41 Q2102.66 276.41 2102.06 275.883 Q2101.47 275.356 2101.47 274.443 Q2101.47 274.302 2101.57 273.775 Q2101.68 273.248 2101.85 272.51 Q2102.03 271.773 2102.1 271.351 L2106.28 254.733 Q2107.05 251.711 2107.23 250.763 Q2107.44 249.779 2107.44 248.69 Q2107.44 245.387 2105.19 245.387 Q2103.36 245.387 2102.17 247.566 Q2100.97 249.744 2099.95 253.96 Q2099.64 255.119 2099.43 255.365 Q2099.25 255.611 2098.72 255.611 Q2097.85 255.576 2097.85 254.873 Q2097.85 254.698 2098.13 253.538 Q2098.41 252.379 2098.94 250.728 Q2099.5 249.041 2100.02 247.917 Q2100.48 247.074 2100.73 246.687 Q2101.01 246.266 2101.68 245.458 Q2102.38 244.614 2103.29 244.228 Q2104.24 243.806 2105.4 243.806 Q2108 243.806 2109.9 245.493 Q2111.79 247.144 2112.04 250.06 Q2116.71 243.806 2123.25 243.806 Q2127.11 243.806 2129.33 245.844 Q2131.54 247.882 2131.54 251.501 Q2131.54 252.344 2131.36 253.433 Q2131.22 254.487 2130.87 255.822 Q2130.56 257.157 2130.28 258.176 Q2129.99 259.195 2129.43 260.846 Q2128.87 262.462 2128.62 263.165 Q2128.38 263.868 2127.78 265.519 Q2127.22 267.135 2127.15 267.311 Q2125.85 270.578 2125.85 272.44 Q2125.85 273.67 2126.23 274.232 Q2126.66 274.794 2127.57 274.794 Q2130.03 274.794 2131.86 272.37 Q2133.72 269.911 2134.91 265.905 Q2135.19 265.027 2135.33 264.816 Q2135.51 264.605 2136 264.605 Q2136.85 264.605 2136.85 265.308 Z" fill="#000000" fill-rule="evenodd" fill-opacity="1" /><path clip-path="url(#clip650)" d="M2177.4 240.781 Q2177.7 241.076 2177.7 241.494 Q2177.7 241.912 2177.4 242.208 Q2177.11 242.503 2176.69 242.503 L2145.16 242.503 Q2144.74 242.503 2144.45 242.208 Q2144.15 241.912 2144.15 241.494 Q2144.15 241.076 2144.45 240.781 Q2144.74 240.486 2145.16 240.486 L2176.69 240.486 Q2177.11 240.486 2177.4 240.781 Z" fill="#000000" fill-rule="evenodd" fill-opacity="1" /><path clip-path="url(#clip650)" d="M2182.95 225.336 L2182.95 223.762 Q2189 223.762 2192.13 220.541 Q2192.99 220.541 2193.14 220.737 Q2193.28 220.934 2193.28 221.844 L2193.28 250.102 Q2193.28 251.602 2194.02 252.07 Q2194.76 252.537 2197.98 252.537 L2199.58 252.537 L2199.58 254.086 Q2197.81 253.939 2191.41 253.939 Q2185.02 253.939 2183.27 254.086 L2183.27 252.537 L2184.87 252.537 Q2188.05 252.537 2188.81 252.094 Q2189.57 251.627 2189.57 250.102 L2189.57 224.008 Q2186.94 225.336 2182.95 225.336 Z" fill="#000000" fill-rule="evenodd" fill-opacity="1" /><polyline clip-path="url(#clip650)" style="stroke:#3da44d; stroke-linecap:round; stroke-linejoin:round; stroke-width:6; stroke-opacity:1; fill:none" points="
  1936.39,326.389 2074.78,326.389 
  "/>
<path clip-path="url(#clip650)" d="M2136.85 343.068 Q2136.85 343.349 2136.53 344.438 Q2136.21 345.527 2135.44 347.214 Q2134.7 348.9 2133.68 350.446 Q2132.66 351.957 2130.98 353.081 Q2129.33 354.17 2127.43 354.17 Q2124.9 354.17 2123.21 352.484 Q2121.53 350.797 2121.53 348.268 Q2121.53 346.862 2122.26 344.93 Q2126.94 332.458 2126.94 328.171 Q2126.94 323.147 2123.04 323.147 Q2121.11 323.147 2119.28 323.885 Q2117.49 324.588 2116.26 325.571 Q2115.03 326.555 2113.9 327.925 Q2112.81 329.261 2112.25 330.174 Q2111.72 331.052 2111.3 331.931 L2110.39 335.514 Q2110.18 336.498 2109.16 340.328 L2107.58 346.827 Q2106.45 351.676 2106.21 352.133 Q2105.86 353.116 2105.08 353.643 Q2104.31 354.17 2103.54 354.17 Q2102.66 354.17 2102.06 353.643 Q2101.47 353.116 2101.47 352.203 Q2101.47 352.062 2101.57 351.535 Q2101.68 351.008 2101.85 350.27 Q2102.03 349.533 2102.1 349.111 L2106.28 332.493 Q2107.05 329.471 2107.23 328.523 Q2107.44 327.539 2107.44 326.45 Q2107.44 323.147 2105.19 323.147 Q2103.36 323.147 2102.17 325.326 Q2100.97 327.504 2099.95 331.72 Q2099.64 332.879 2099.43 333.125 Q2099.25 333.371 2098.72 333.371 Q2097.85 333.336 2097.85 332.633 Q2097.85 332.458 2098.13 331.298 Q2098.41 330.139 2098.94 328.488 Q2099.5 326.801 2100.02 325.677 Q2100.48 324.834 2100.73 324.447 Q2101.01 324.026 2101.68 323.218 Q2102.38 322.374 2103.29 321.988 Q2104.24 321.566 2105.4 321.566 Q2108 321.566 2109.9 323.253 Q2111.79 324.904 2112.04 327.82 Q2116.71 321.566 2123.25 321.566 Q2127.11 321.566 2129.33 323.604 Q2131.54 325.642 2131.54 329.261 Q2131.54 330.104 2131.36 331.193 Q2131.22 332.247 2130.87 333.582 Q2130.56 334.917 2130.28 335.936 Q2129.99 336.955 2129.43 338.606 Q2128.87 340.222 2128.62 340.925 Q2128.38 341.628 2127.78 343.279 Q2127.22 344.895 2127.15 345.071 Q2125.85 348.338 2125.85 350.2 Q2125.85 351.43 2126.23 351.992 Q2126.66 352.554 2127.57 352.554 Q2130.03 352.554 2131.86 350.13 Q2133.72 347.671 2134.91 343.665 Q2135.19 342.787 2135.33 342.576 Q2135.51 342.365 2136 342.365 Q2136.85 342.365 2136.85 343.068 Z" fill="#000000" fill-rule="evenodd" fill-opacity="1" /><path clip-path="url(#clip650)" d="M2177.4 318.541 Q2177.7 318.836 2177.7 319.254 Q2177.7 319.672 2177.4 319.968 Q2177.11 320.263 2176.69 320.263 L2145.16 320.263 Q2144.74 320.263 2144.45 319.968 Q2144.15 319.672 2144.15 319.254 Q2144.15 318.836 2144.45 318.541 Q2144.74 318.246 2145.16 318.246 L2176.69 318.246 Q2177.11 318.246 2177.4 318.541 Z" fill="#000000" fill-rule="evenodd" fill-opacity="1" /><path clip-path="url(#clip650)" d="M2182.95 331.846 Q2182.95 330.936 2183.03 330.666 Q2183.13 330.395 2183.52 329.977 L2193.19 319.205 Q2198.47 313.254 2198.47 308.064 Q2198.47 304.695 2196.7 302.285 Q2194.96 299.875 2191.73 299.875 Q2189.52 299.875 2187.65 301.227 Q2185.78 302.58 2184.92 304.99 Q2185.07 304.941 2185.59 304.941 Q2186.84 304.941 2187.53 305.728 Q2188.24 306.515 2188.24 307.572 Q2188.24 308.925 2187.36 309.589 Q2186.5 310.229 2185.64 310.229 Q2185.29 310.229 2184.82 310.155 Q2184.38 310.081 2183.67 309.392 Q2182.95 308.679 2182.95 307.425 Q2182.95 303.908 2185.61 301.104 Q2188.29 298.301 2192.37 298.301 Q2197 298.301 2200.02 301.055 Q2203.07 303.785 2203.07 308.064 Q2203.07 309.565 2202.6 310.942 Q2202.16 312.294 2201.55 313.352 Q2200.96 314.409 2199.33 316.106 Q2197.71 317.803 2196.41 319.008 Q2195.1 320.214 2192.18 322.771 L2186.84 327.96 L2195.92 327.96 Q2200.34 327.96 2200.69 327.567 Q2201.18 326.854 2201.79 323.091 L2203.07 323.091 L2201.65 331.846 L2182.95 331.846 Z" fill="#000000" fill-rule="evenodd" fill-opacity="1" /></svg>
