<?xml version="1.0" encoding="utf-8"?>
<svg xmlns="http://www.w3.org/2000/svg" xmlns:xlink="http://www.w3.org/1999/xlink" width="600" height="400" viewBox="0 0 2400 1600">
<defs>
  <clipPath id="clip170">
    <rect x="0" y="0" width="2400" height="1600"/>
  </clipPath>
</defs>
<path clip-path="url(#clip170)" d="
M0 1600 L2400 1600 L2400 0 L0 0  Z
  " fill="#ffffff" fill-rule="evenodd" fill-opacity="1"/>
<defs>
  <clipPath id="clip171">
    <rect x="480" y="0" width="1681" height="1600"/>
  </clipPath>
</defs>
<path clip-path="url(#clip170)" d="
M178.867 1486.45 L2352.76 1486.45 L2352.76 47.2441 L178.867 47.2441  Z
  " fill="#ffffff" fill-rule="evenodd" fill-opacity="1"/>
<defs>
  <clipPath id="clip172">
    <rect x="178" y="47" width="2175" height="1440"/>
  </clipPath>
</defs>
<polyline clip-path="url(#clip172)" style="stroke:#000000; stroke-linecap:round; stroke-linejoin:round; stroke-width:2; stroke-opacity:0.1; fill:none" points="
  178.867,1486.45 178.867,47.2441 
  "/>
<polyline clip-path="url(#clip172)" style="stroke:#000000; stroke-linecap:round; stroke-linejoin:round; stroke-width:2; stroke-opacity:0.1; fill:none" points="
  722.339,1486.45 722.339,47.2441 
  "/>
<polyline clip-path="url(#clip172)" style="stroke:#000000; stroke-linecap:round; stroke-linejoin:round; stroke-width:2; stroke-opacity:0.1; fill:none" points="
  1265.81,1486.45 1265.81,47.2441 
  "/>
<polyline clip-path="url(#clip172)" style="stroke:#000000; stroke-linecap:round; stroke-linejoin:round; stroke-width:2; stroke-opacity:0.1; fill:none" points="
  1809.28,1486.45 1809.28,47.2441 
  "/>
<polyline clip-path="url(#clip172)" style="stroke:#000000; stroke-linecap:round; stroke-linejoin:round; stroke-width:2; stroke-opacity:0.1; fill:none" points="
  2352.76,1486.45 2352.76,47.2441 
  "/>
<polyline clip-path="url(#clip170)" style="stroke:#000000; stroke-linecap:round; stroke-linejoin:round; stroke-width:4; stroke-opacity:1; fill:none" points="
  178.867,1486.45 2352.76,1486.45 
  "/>
<polyline clip-path="url(#clip170)" style="stroke:#000000; stroke-linecap:round; stroke-linejoin:round; stroke-width:4; stroke-opacity:1; fill:none" points="
  178.867,1486.45 178.867,1467.55 
  "/>
<polyline clip-path="url(#clip170)" style="stroke:#000000; stroke-linecap:round; stroke-linejoin:round; stroke-width:4; stroke-opacity:1; fill:none" points="
  722.339,1486.45 722.339,1467.55 
  "/>
<polyline clip-path="url(#clip170)" style="stroke:#000000; stroke-linecap:round; stroke-linejoin:round; stroke-width:4; stroke-opacity:1; fill:none" points="
  1265.81,1486.45 1265.81,1467.55 
  "/>
<polyline clip-path="url(#clip170)" style="stroke:#000000; stroke-linecap:round; stroke-linejoin:round; stroke-width:4; stroke-opacity:1; fill:none" points="
  1809.28,1486.45 1809.28,1467.55 
  "/>
<polyline clip-path="url(#clip170)" style="stroke:#000000; stroke-linecap:round; stroke-linejoin:round; stroke-width:4; stroke-opacity:1; fill:none" points="
  2352.76,1486.45 2352.76,1467.55 
  "/>
<path clip-path="url(#clip170)" d="M148.809 1532.02 L178.485 1532.02 L178.485 1535.95 L148.809 1535.95 L148.809 1532.02 Z" fill="#000000" fill-rule="evenodd" fill-opacity="1" /><path clip-path="url(#clip170)" d="M192.605 1544.91 L208.924 1544.91 L208.924 1548.85 L186.98 1548.85 L186.98 1544.91 Q189.642 1542.16 194.225 1537.53 Q198.832 1532.88 200.012 1531.53 Q202.258 1529.01 203.137 1527.27 Q204.04 1525.51 204.04 1523.82 Q204.04 1521.07 202.096 1519.33 Q200.174 1517.6 197.073 1517.6 Q194.873 1517.6 192.42 1518.36 Q189.989 1519.13 187.211 1520.68 L187.211 1515.95 Q190.036 1514.82 192.489 1514.24 Q194.943 1513.66 196.98 1513.66 Q202.35 1513.66 205.545 1516.35 Q208.739 1519.03 208.739 1523.52 Q208.739 1525.65 207.929 1527.57 Q207.142 1529.47 205.035 1532.07 Q204.457 1532.74 201.355 1535.95 Q198.253 1539.15 192.605 1544.91 Z" fill="#000000" fill-rule="evenodd" fill-opacity="1" /><path clip-path="url(#clip170)" d="M692.096 1532.02 L721.772 1532.02 L721.772 1535.95 L692.096 1535.95 L692.096 1532.02 Z" fill="#000000" fill-rule="evenodd" fill-opacity="1" /><path clip-path="url(#clip170)" d="M732.675 1544.91 L740.313 1544.91 L740.313 1518.55 L732.003 1520.21 L732.003 1515.95 L740.267 1514.29 L744.943 1514.29 L744.943 1544.91 L752.582 1544.91 L752.582 1548.85 L732.675 1548.85 L732.675 1544.91 Z" fill="#000000" fill-rule="evenodd" fill-opacity="1" /><path clip-path="url(#clip170)" d="M1265.81 1517.37 Q1262.2 1517.37 1260.37 1520.93 Q1258.57 1524.47 1258.57 1531.6 Q1258.57 1538.71 1260.37 1542.27 Q1262.2 1545.82 1265.81 1545.82 Q1269.45 1545.82 1271.25 1542.27 Q1273.08 1538.71 1273.08 1531.6 Q1273.08 1524.47 1271.25 1520.93 Q1269.45 1517.37 1265.81 1517.37 M1265.81 1513.66 Q1271.62 1513.66 1274.68 1518.27 Q1277.76 1522.85 1277.76 1531.6 Q1277.76 1540.33 1274.68 1544.94 Q1271.62 1549.52 1265.81 1549.52 Q1260 1549.52 1256.92 1544.94 Q1253.87 1540.33 1253.87 1531.6 Q1253.87 1522.85 1256.92 1518.27 Q1260 1513.66 1265.81 1513.66 Z" fill="#000000" fill-rule="evenodd" fill-opacity="1" /><path clip-path="url(#clip170)" d="M1799.67 1544.91 L1807.3 1544.91 L1807.3 1518.55 L1798.99 1520.21 L1798.99 1515.95 L1807.26 1514.29 L1811.93 1514.29 L1811.93 1544.91 L1819.57 1544.91 L1819.57 1548.85 L1799.67 1548.85 L1799.67 1544.91 Z" fill="#000000" fill-rule="evenodd" fill-opacity="1" /><path clip-path="url(#clip170)" d="M2347.41 1544.91 L2363.73 1544.91 L2363.73 1548.85 L2341.78 1548.85 L2341.78 1544.91 Q2344.45 1542.16 2349.03 1537.53 Q2353.64 1532.88 2354.82 1531.53 Q2357.06 1529.01 2357.94 1527.27 Q2358.84 1525.51 2358.84 1523.82 Q2358.84 1521.07 2356.9 1519.33 Q2354.98 1517.6 2351.88 1517.6 Q2349.68 1517.6 2347.22 1518.36 Q2344.79 1519.13 2342.02 1520.68 L2342.02 1515.95 Q2344.84 1514.82 2347.29 1514.24 Q2349.75 1513.66 2351.78 1513.66 Q2357.15 1513.66 2360.35 1516.35 Q2363.54 1519.03 2363.54 1523.52 Q2363.54 1525.65 2362.73 1527.57 Q2361.95 1529.47 2359.84 1532.07 Q2359.26 1532.74 2356.16 1535.95 Q2353.06 1539.15 2347.41 1544.91 Z" fill="#000000" fill-rule="evenodd" fill-opacity="1" /><polyline clip-path="url(#clip172)" style="stroke:#000000; stroke-linecap:round; stroke-linejoin:round; stroke-width:2; stroke-opacity:0.1; fill:none" points="
  178.867,1377.83 2352.76,1377.83 
  "/>
<polyline clip-path="url(#clip172)" style="stroke:#000000; stroke-linecap:round; stroke-linejoin:round; stroke-width:2; stroke-opacity:0.1; fill:none" points="
  178.867,1135.38 2352.76,1135.38 
  "/>
<polyline clip-path="url(#clip172)" style="stroke:#000000; stroke-linecap:round; stroke-linejoin:round; stroke-width:2; stroke-opacity:0.1; fill:none" points="
  178.867,892.922 2352.76,892.922 
  "/>
<polyline clip-path="url(#clip172)" style="stroke:#000000; stroke-linecap:round; stroke-linejoin:round; stroke-width:2; stroke-opacity:0.1; fill:none" points="
  178.867,650.468 2352.76,650.468 
  "/>
<polyline clip-path="url(#clip172)" style="stroke:#000000; stroke-linecap:round; stroke-linejoin:round; stroke-width:2; stroke-opacity:0.1; fill:none" points="
  178.867,408.015 2352.76,408.015 
  "/>
<polyline clip-path="url(#clip172)" style="stroke:#000000; stroke-linecap:round; stroke-linejoin:round; stroke-width:2; stroke-opacity:0.1; fill:none" points="
  178.867,165.561 2352.76,165.561 
  "/>
<polyline clip-path="url(#clip170)" style="stroke:#000000; stroke-linecap:round; stroke-linejoin:round; stroke-width:4; stroke-opacity:1; fill:none" points="
  178.867,1486.45 178.867,47.2441 
  "/>
<polyline clip-path="url(#clip170)" style="stroke:#000000; stroke-linecap:round; stroke-linejoin:round; stroke-width:4; stroke-opacity:1; fill:none" points="
  178.867,1377.83 197.764,1377.83 
  "/>
<polyline clip-path="url(#clip170)" style="stroke:#000000; stroke-linecap:round; stroke-linejoin:round; stroke-width:4; stroke-opacity:1; fill:none" points="
  178.867,1135.38 197.764,1135.38 
  "/>
<polyline clip-path="url(#clip170)" style="stroke:#000000; stroke-linecap:round; stroke-linejoin:round; stroke-width:4; stroke-opacity:1; fill:none" points="
  178.867,892.922 197.764,892.922 
  "/>
<polyline clip-path="url(#clip170)" style="stroke:#000000; stroke-linecap:round; stroke-linejoin:round; stroke-width:4; stroke-opacity:1; fill:none" points="
  178.867,650.468 197.764,650.468 
  "/>
<polyline clip-path="url(#clip170)" style="stroke:#000000; stroke-linecap:round; stroke-linejoin:round; stroke-width:4; stroke-opacity:1; fill:none" points="
  178.867,408.015 197.764,408.015 
  "/>
<polyline clip-path="url(#clip170)" style="stroke:#000000; stroke-linecap:round; stroke-linejoin:round; stroke-width:4; stroke-opacity:1; fill:none" points="
  178.867,165.561 197.764,165.561 
  "/>
<path clip-path="url(#clip170)" d="M50.9921 1378.28 L80.6679 1378.28 L80.6679 1382.22 L50.9921 1382.22 L50.9921 1378.28 Z" fill="#000000" fill-rule="evenodd" fill-opacity="1" /><path clip-path="url(#clip170)" d="M90.8067 1360.55 L109.163 1360.55 L109.163 1364.48 L95.0891 1364.48 L95.0891 1372.96 Q96.1076 1372.61 97.1261 1372.45 Q98.1447 1372.26 99.1632 1372.26 Q104.95 1372.26 108.33 1375.43 Q111.709 1378.6 111.709 1384.02 Q111.709 1389.6 108.237 1392.7 Q104.765 1395.78 98.4456 1395.78 Q96.2697 1395.78 94.0012 1395.41 Q91.7558 1395.04 89.3484 1394.3 L89.3484 1389.6 Q91.4317 1390.73 93.6539 1391.29 Q95.8761 1391.84 98.353 1391.84 Q102.358 1391.84 104.696 1389.74 Q107.033 1387.63 107.033 1384.02 Q107.033 1380.41 104.696 1378.3 Q102.358 1376.2 98.353 1376.2 Q96.478 1376.2 94.603 1376.61 Q92.7512 1377.03 90.8067 1377.91 L90.8067 1360.55 Z" fill="#000000" fill-rule="evenodd" fill-opacity="1" /><path clip-path="url(#clip170)" d="M130.922 1363.63 Q127.311 1363.63 125.482 1367.19 Q123.677 1370.73 123.677 1377.86 Q123.677 1384.97 125.482 1388.53 Q127.311 1392.08 130.922 1392.08 Q134.556 1392.08 136.362 1388.53 Q138.191 1384.97 138.191 1377.86 Q138.191 1370.73 136.362 1367.19 Q134.556 1363.63 130.922 1363.63 M130.922 1359.92 Q136.732 1359.92 139.788 1364.53 Q142.867 1369.11 142.867 1377.86 Q142.867 1386.59 139.788 1391.2 Q136.732 1395.78 130.922 1395.78 Q125.112 1395.78 122.033 1391.2 Q118.978 1386.59 118.978 1377.86 Q118.978 1369.11 122.033 1364.53 Q125.112 1359.92 130.922 1359.92 Z" fill="#000000" fill-rule="evenodd" fill-opacity="1" /><path clip-path="url(#clip170)" d="M51.9875 1135.83 L81.6633 1135.83 L81.6633 1139.76 L51.9875 1139.76 L51.9875 1135.83 Z" fill="#000000" fill-rule="evenodd" fill-opacity="1" /><path clip-path="url(#clip170)" d="M95.7836 1148.72 L112.103 1148.72 L112.103 1152.66 L90.1586 1152.66 L90.1586 1148.72 Q92.8206 1145.97 97.4039 1141.34 Q102.01 1136.68 103.191 1135.34 Q105.436 1132.82 106.316 1131.08 Q107.219 1129.32 107.219 1127.63 Q107.219 1124.88 105.274 1123.14 Q103.353 1121.41 100.251 1121.41 Q98.0521 1121.41 95.5984 1122.17 Q93.1678 1122.93 90.3901 1124.48 L90.3901 1119.76 Q93.2141 1118.63 95.6678 1118.05 Q98.1215 1117.47 100.159 1117.47 Q105.529 1117.47 108.723 1120.16 Q111.918 1122.84 111.918 1127.33 Q111.918 1129.46 111.108 1131.38 Q110.321 1133.28 108.214 1135.87 Q107.635 1136.54 104.534 1139.76 Q101.432 1142.96 95.7836 1148.72 Z" fill="#000000" fill-rule="evenodd" fill-opacity="1" /><path clip-path="url(#clip170)" d="M121.964 1118.1 L140.32 1118.1 L140.32 1122.03 L126.246 1122.03 L126.246 1130.5 Q127.265 1130.16 128.283 1129.99 Q129.302 1129.81 130.32 1129.81 Q136.107 1129.81 139.487 1132.98 Q142.867 1136.15 142.867 1141.57 Q142.867 1147.15 139.394 1150.25 Q135.922 1153.33 129.603 1153.33 Q127.427 1153.33 125.158 1152.96 Q122.913 1152.59 120.506 1151.85 L120.506 1147.15 Q122.589 1148.28 124.811 1148.84 Q127.033 1149.39 129.51 1149.39 Q133.515 1149.39 135.853 1147.28 Q138.191 1145.18 138.191 1141.57 Q138.191 1137.96 135.853 1135.85 Q133.515 1133.74 129.51 1133.74 Q127.635 1133.74 125.76 1134.16 Q123.908 1134.58 121.964 1135.46 L121.964 1118.1 Z" fill="#000000" fill-rule="evenodd" fill-opacity="1" /><path clip-path="url(#clip170)" d="M130.922 878.72 Q127.311 878.72 125.482 882.285 Q123.677 885.827 123.677 892.957 Q123.677 900.063 125.482 903.628 Q127.311 907.169 130.922 907.169 Q134.556 907.169 136.362 903.628 Q138.191 900.063 138.191 892.957 Q138.191 885.827 136.362 882.285 Q134.556 878.72 130.922 878.72 M130.922 875.017 Q136.732 875.017 139.788 879.623 Q142.867 884.207 142.867 892.957 Q142.867 901.683 139.788 906.29 Q136.732 910.873 130.922 910.873 Q125.112 910.873 122.033 906.29 Q118.978 901.683 118.978 892.957 Q118.978 884.207 122.033 879.623 Q125.112 875.017 130.922 875.017 Z" fill="#000000" fill-rule="evenodd" fill-opacity="1" /><path clip-path="url(#clip170)" d="M95.7836 663.813 L112.103 663.813 L112.103 667.748 L90.1586 667.748 L90.1586 663.813 Q92.8206 661.059 97.4039 656.429 Q102.01 651.776 103.191 650.434 Q105.436 647.91 106.316 646.174 Q107.219 644.415 107.219 642.725 Q107.219 639.971 105.274 638.235 Q103.353 636.498 100.251 636.498 Q98.0521 636.498 95.5984 637.262 Q93.1678 638.026 90.3901 639.577 L90.3901 634.855 Q93.2141 633.721 95.6678 633.142 Q98.1215 632.563 100.159 632.563 Q105.529 632.563 108.723 635.248 Q111.918 637.934 111.918 642.424 Q111.918 644.554 111.108 646.475 Q110.321 648.373 108.214 650.966 Q107.635 651.637 104.534 654.855 Q101.432 658.049 95.7836 663.813 Z" fill="#000000" fill-rule="evenodd" fill-opacity="1" /><path clip-path="url(#clip170)" d="M121.964 633.188 L140.32 633.188 L140.32 637.123 L126.246 637.123 L126.246 645.596 Q127.265 645.248 128.283 645.086 Q129.302 644.901 130.32 644.901 Q136.107 644.901 139.487 648.072 Q142.867 651.244 142.867 656.66 Q142.867 662.239 139.394 665.341 Q135.922 668.42 129.603 668.42 Q127.427 668.42 125.158 668.049 Q122.913 667.679 120.506 666.938 L120.506 662.239 Q122.589 663.373 124.811 663.929 Q127.033 664.484 129.51 664.484 Q133.515 664.484 135.853 662.378 Q138.191 660.272 138.191 656.66 Q138.191 653.049 135.853 650.943 Q133.515 648.836 129.51 648.836 Q127.635 648.836 125.76 649.253 Q123.908 649.67 121.964 650.549 L121.964 633.188 Z" fill="#000000" fill-rule="evenodd" fill-opacity="1" /><path clip-path="url(#clip170)" d="M90.8067 390.735 L109.163 390.735 L109.163 394.67 L95.0891 394.67 L95.0891 403.142 Q96.1076 402.795 97.1261 402.633 Q98.1447 402.448 99.1632 402.448 Q104.95 402.448 108.33 405.619 Q111.709 408.79 111.709 414.207 Q111.709 419.786 108.237 422.887 Q104.765 425.966 98.4456 425.966 Q96.2697 425.966 94.0012 425.596 Q91.7558 425.225 89.3484 424.485 L89.3484 419.786 Q91.4317 420.92 93.6539 421.475 Q95.8761 422.031 98.353 422.031 Q102.358 422.031 104.696 419.925 Q107.033 417.818 107.033 414.207 Q107.033 410.596 104.696 408.489 Q102.358 406.383 98.353 406.383 Q96.478 406.383 94.603 406.8 Q92.7512 407.216 90.8067 408.096 L90.8067 390.735 Z" fill="#000000" fill-rule="evenodd" fill-opacity="1" /><path clip-path="url(#clip170)" d="M130.922 393.814 Q127.311 393.814 125.482 397.378 Q123.677 400.92 123.677 408.05 Q123.677 415.156 125.482 418.721 Q127.311 422.262 130.922 422.262 Q134.556 422.262 136.362 418.721 Q138.191 415.156 138.191 408.05 Q138.191 400.92 136.362 397.378 Q134.556 393.814 130.922 393.814 M130.922 390.11 Q136.732 390.11 139.788 394.716 Q142.867 399.3 142.867 408.05 Q142.867 416.776 139.788 421.383 Q136.732 425.966 130.922 425.966 Q125.112 425.966 122.033 421.383 Q118.978 416.776 118.978 408.05 Q118.978 399.3 122.033 394.716 Q125.112 390.11 130.922 390.11 Z" fill="#000000" fill-rule="evenodd" fill-opacity="1" /><path clip-path="url(#clip170)" d="M90.5752 148.281 L112.797 148.281 L112.797 150.272 L100.251 182.841 L95.3669 182.841 L107.172 152.217 L90.5752 152.217 L90.5752 148.281 Z" fill="#000000" fill-rule="evenodd" fill-opacity="1" /><path clip-path="url(#clip170)" d="M121.964 148.281 L140.32 148.281 L140.32 152.217 L126.246 152.217 L126.246 160.689 Q127.265 160.342 128.283 160.179 Q129.302 159.994 130.32 159.994 Q136.107 159.994 139.487 163.166 Q142.867 166.337 142.867 171.753 Q142.867 177.332 139.394 180.434 Q135.922 183.513 129.603 183.513 Q127.427 183.513 125.158 183.142 Q122.913 182.772 120.506 182.031 L120.506 177.332 Q122.589 178.466 124.811 179.022 Q127.033 179.578 129.51 179.578 Q133.515 179.578 135.853 177.471 Q138.191 175.365 138.191 171.753 Q138.191 168.142 135.853 166.036 Q133.515 163.929 129.51 163.929 Q127.635 163.929 125.76 164.346 Q123.908 164.763 121.964 165.642 L121.964 148.281 Z" fill="#000000" fill-rule="evenodd" fill-opacity="1" /><polyline clip-path="url(#clip172)" style="stroke:#009af9; stroke-linecap:round; stroke-linejoin:round; stroke-width:16; stroke-opacity:1; fill:none" points="
  178.867,1445.72 182.405,1439.74 185.943,1433.8 189.482,1427.91 193.02,1422.06 225.737,1369.88 258.453,1321.13 291.17,1275.68 323.887,1233.43 343.548,1209.52 
  363.209,1186.71 382.871,1164.95 402.532,1144.23 435.779,1111.49 469.026,1081.53 505.141,1051.98 541.257,1025.41 574.552,1003.43 607.847,983.722 643.543,964.995 
  679.239,948.604 720.597,932.339 761.954,918.779 798.708,908.813 835.461,900.639 867.691,894.818 899.92,890.142 970.198,883.387 1040.89,880.414 1119.06,880.202 
  1193.43,881.622 1270.75,883.309 1335.85,883.803 1415.32,881.873 1488.12,876.349 1521.74,872.224 1555.36,866.933 1589.41,860.258 1623.47,852.129 1661.63,841.134 
  1699.8,827.97 1734.38,814.018 1768.96,798.002 1808.56,776.956 1848.16,752.825 1884.82,727.555 1921.48,699.305 1957.63,668.381 1993.77,634.251 2028.87,597.9 
  2063.96,558.24 2081.95,536.584 2099.94,514.002 2117.93,490.476 2135.91,465.986 2155.62,438.027 2175.33,408.864 2195.04,378.471 2214.75,346.825 2243.38,298.568 
  2272,247.536 2300.63,193.652 2329.26,136.839 2335.14,124.815 2341.01,112.663 2346.88,100.384 2352.76,87.9763 
  "/>
<path clip-path="url(#clip170)" d="
M1229.07 1438.47 L2280.29 1438.47 L2280.29 1282.95 L1229.07 1282.95  Z
  " fill="#ffffff" fill-rule="evenodd" fill-opacity="1"/>
<polyline clip-path="url(#clip170)" style="stroke:#000000; stroke-linecap:round; stroke-linejoin:round; stroke-width:4; stroke-opacity:1; fill:none" points="
  1229.07,1438.47 2280.29,1438.47 2280.29,1282.95 1229.07,1282.95 1229.07,1438.47 
  "/>
<polyline clip-path="url(#clip170)" style="stroke:#009af9; stroke-linecap:round; stroke-linejoin:round; stroke-width:6; stroke-opacity:1; fill:none" points="
  1253.22,1360.71 1398.15,1360.71 
  "/>
<path clip-path="url(#clip170)" d="M1423.31 1380.73 L1434.77 1380.73 L1434.77 1341.18 L1422.3 1343.68 L1422.3 1337.29 L1434.7 1334.79 L1441.71 1334.79 L1441.71 1380.73 L1453.17 1380.73 L1453.17 1386.63 L1423.31 1386.63 L1423.31 1380.73 Z" fill="#000000" fill-rule="evenodd" fill-opacity="1" /><path clip-path="url(#clip170)" d="M1485.81 1364.31 L1504.52 1364.31 L1504.52 1370 L1485.81 1370 L1485.81 1364.31 Z" fill="#000000" fill-rule="evenodd" fill-opacity="1" /><path clip-path="url(#clip170)" d="M1569.63 1347.75 L1555.56 1366.67 L1570.36 1386.63 L1562.82 1386.63 L1551.5 1371.36 L1540.18 1386.63 L1532.65 1386.63 L1547.75 1366.29 L1533.93 1347.75 L1541.47 1347.75 L1551.78 1361.6 L1562.09 1347.75 L1569.63 1347.75 Z" fill="#000000" fill-rule="evenodd" fill-opacity="1" /><path clip-path="url(#clip170)" d="M1627.99 1342.05 L1627.99 1361.39 L1647.33 1361.39 L1647.33 1367.29 L1627.99 1367.29 L1627.99 1386.63 L1622.16 1386.63 L1622.16 1367.29 L1602.82 1367.29 L1602.82 1361.39 L1622.16 1361.39 L1622.16 1342.05 L1627.99 1342.05 Z" fill="#000000" fill-rule="evenodd" fill-opacity="1" /><path clip-path="url(#clip170)" d="M1706.33 1358.68 Q1711.36 1359.76 1714.17 1363.16 Q1717.02 1366.57 1717.02 1371.57 Q1717.02 1379.24 1711.74 1383.44 Q1706.47 1387.64 1696.74 1387.64 Q1693.48 1387.64 1690.01 1386.98 Q1686.57 1386.36 1682.89 1385.07 L1682.89 1378.3 Q1685.81 1380 1689.28 1380.87 Q1692.75 1381.74 1696.54 1381.74 Q1703.13 1381.74 1706.57 1379.13 Q1710.04 1376.53 1710.04 1371.57 Q1710.04 1366.98 1706.81 1364.41 Q1703.62 1361.81 1697.89 1361.81 L1691.85 1361.81 L1691.85 1356.04 L1698.17 1356.04 Q1703.34 1356.04 1706.08 1354 Q1708.83 1351.91 1708.83 1348.02 Q1708.83 1344.03 1705.98 1341.91 Q1703.17 1339.76 1697.89 1339.76 Q1695.01 1339.76 1691.71 1340.38 Q1688.41 1341.01 1684.45 1342.33 L1684.45 1336.08 Q1688.45 1334.97 1691.92 1334.41 Q1695.42 1333.86 1698.51 1333.86 Q1706.5 1333.86 1711.15 1337.5 Q1715.81 1341.11 1715.81 1347.29 Q1715.81 1351.6 1713.34 1354.59 Q1710.88 1357.54 1706.33 1358.68 Z" fill="#000000" fill-rule="evenodd" fill-opacity="1" /><path clip-path="url(#clip170)" d="M1756.15 1343.34 L1743.69 1350.07 L1756.15 1356.84 L1754.14 1360.25 L1742.47 1353.2 L1742.47 1366.29 L1738.51 1366.29 L1738.51 1353.2 L1726.85 1360.25 L1724.83 1356.84 L1737.3 1350.07 L1724.83 1343.34 L1726.85 1339.9 L1738.51 1346.95 L1738.51 1333.86 L1742.47 1333.86 L1742.47 1346.95 L1754.14 1339.9 L1756.15 1343.34 Z" fill="#000000" fill-rule="evenodd" fill-opacity="1" /><path clip-path="url(#clip170)" d="M1797.3 1347.75 L1783.24 1366.67 L1798.03 1386.63 L1790.49 1386.63 L1779.17 1371.36 L1767.85 1386.63 L1760.32 1386.63 L1775.42 1366.29 L1761.6 1347.75 L1769.14 1347.75 L1779.45 1361.6 L1789.76 1347.75 L1797.3 1347.75 Z" fill="#000000" fill-rule="evenodd" fill-opacity="1" /><path clip-path="url(#clip170)" d="M1833.55 1334.79 L1852.4 1354.13 L1845.42 1354.13 L1830.15 1340.42 L1814.87 1354.13 L1807.89 1354.13 L1826.74 1334.79 L1833.55 1334.79 Z" fill="#000000" fill-rule="evenodd" fill-opacity="1" /><path clip-path="url(#clip170)" d="M1873.58 1380.73 L1898.06 1380.73 L1898.06 1386.63 L1865.15 1386.63 L1865.15 1380.73 Q1869.14 1376.6 1876.01 1369.66 Q1882.92 1362.68 1884.69 1360.66 Q1888.06 1356.88 1889.38 1354.27 Q1890.74 1351.63 1890.74 1349.1 Q1890.74 1344.97 1887.82 1342.36 Q1884.94 1339.76 1880.28 1339.76 Q1876.99 1339.76 1873.31 1340.91 Q1869.66 1342.05 1865.49 1344.38 L1865.49 1337.29 Q1869.73 1335.59 1873.41 1334.72 Q1877.09 1333.86 1880.15 1333.86 Q1888.2 1333.86 1892.99 1337.88 Q1897.78 1341.91 1897.78 1348.65 Q1897.78 1351.84 1896.57 1354.72 Q1895.39 1357.57 1892.23 1361.46 Q1891.36 1362.47 1886.71 1367.29 Q1882.06 1372.09 1873.58 1380.73 Z" fill="#000000" fill-rule="evenodd" fill-opacity="1" /><path clip-path="url(#clip170)" d="M1960.49 1342.05 L1960.49 1361.39 L1979.83 1361.39 L1979.83 1367.29 L1960.49 1367.29 L1960.49 1386.63 L1954.66 1386.63 L1954.66 1367.29 L1935.32 1367.29 L1935.32 1361.39 L1954.66 1361.39 L1954.66 1342.05 L1960.49 1342.05 Z" fill="#000000" fill-rule="evenodd" fill-opacity="1" /><path clip-path="url(#clip170)" d="M2017.78 1385.56 L2017.78 1379.17 Q2020.42 1380.42 2023.13 1381.08 Q2025.84 1381.74 2028.44 1381.74 Q2035.39 1381.74 2039.03 1377.09 Q2042.71 1372.4 2043.24 1362.88 Q2041.22 1365.87 2038.13 1367.47 Q2035.04 1369.07 2031.29 1369.07 Q2023.51 1369.07 2018.96 1364.38 Q2014.45 1359.66 2014.45 1351.5 Q2014.45 1343.51 2019.17 1338.68 Q2023.9 1333.86 2031.74 1333.86 Q2040.74 1333.86 2045.46 1340.77 Q2050.21 1347.64 2050.21 1360.77 Q2050.21 1373.02 2044.38 1380.35 Q2038.58 1387.64 2028.76 1387.64 Q2026.12 1387.64 2023.41 1387.12 Q2020.7 1386.6 2017.78 1385.56 M2031.74 1363.58 Q2036.46 1363.58 2039.21 1360.35 Q2041.99 1357.12 2041.99 1351.5 Q2041.99 1345.91 2039.21 1342.68 Q2036.46 1339.41 2031.74 1339.41 Q2027.02 1339.41 2024.24 1342.68 Q2021.5 1345.91 2021.5 1351.5 Q2021.5 1357.12 2024.24 1360.35 Q2027.02 1363.58 2031.74 1363.58 Z" fill="#000000" fill-rule="evenodd" fill-opacity="1" /><path clip-path="url(#clip170)" d="M2088.65 1343.34 L2076.19 1350.07 L2088.65 1356.84 L2086.64 1360.25 L2074.97 1353.2 L2074.97 1366.29 L2071.01 1366.29 L2071.01 1353.2 L2059.35 1360.25 L2057.33 1356.84 L2069.8 1350.07 L2057.33 1343.34 L2059.35 1339.9 L2071.01 1346.95 L2071.01 1333.86 L2074.97 1333.86 L2074.97 1346.95 L2086.64 1339.9 L2088.65 1343.34 Z" fill="#000000" fill-rule="evenodd" fill-opacity="1" /><path clip-path="url(#clip170)" d="M2129.8 1347.75 L2115.73 1366.67 L2130.53 1386.63 L2122.99 1386.63 L2111.67 1371.36 L2100.35 1386.63 L2092.82 1386.63 L2107.92 1366.29 L2094.1 1347.75 L2101.64 1347.75 L2111.95 1361.6 L2122.26 1347.75 L2129.8 1347.75 Z" fill="#000000" fill-rule="evenodd" fill-opacity="1" /><path clip-path="url(#clip170)" d="M2166.05 1334.79 L2184.9 1354.13 L2177.92 1354.13 L2162.64 1340.42 L2147.37 1354.13 L2140.39 1354.13 L2159.24 1334.79 L2166.05 1334.79 Z" fill="#000000" fill-rule="evenodd" fill-opacity="1" /><path clip-path="url(#clip170)" d="M2221.29 1358.68 Q2226.32 1359.76 2229.14 1363.16 Q2231.98 1366.57 2231.98 1371.57 Q2231.98 1379.24 2226.71 1383.44 Q2221.43 1387.64 2211.71 1387.64 Q2208.44 1387.64 2204.97 1386.98 Q2201.53 1386.36 2197.85 1385.07 L2197.85 1378.3 Q2200.77 1380 2204.24 1380.87 Q2207.71 1381.74 2211.5 1381.74 Q2218.1 1381.74 2221.53 1379.13 Q2225.01 1376.53 2225.01 1371.57 Q2225.01 1366.98 2221.78 1364.41 Q2218.58 1361.81 2212.85 1361.81 L2206.81 1361.81 L2206.81 1356.04 L2213.13 1356.04 Q2218.3 1356.04 2221.05 1354 Q2223.79 1351.91 2223.79 1348.02 Q2223.79 1344.03 2220.94 1341.91 Q2218.13 1339.76 2212.85 1339.76 Q2209.97 1339.76 2206.67 1340.38 Q2203.37 1341.01 2199.42 1342.33 L2199.42 1336.08 Q2203.41 1334.97 2206.88 1334.41 Q2210.39 1333.86 2213.48 1333.86 Q2221.46 1333.86 2226.12 1337.5 Q2230.77 1341.11 2230.77 1347.29 Q2230.77 1351.6 2228.3 1354.59 Q2225.84 1357.54 2221.29 1358.68 Z" fill="#000000" fill-rule="evenodd" fill-opacity="1" /></svg>
