<?xml version="1.0" encoding="utf-8"?>
<svg xmlns="http://www.w3.org/2000/svg" xmlns:xlink="http://www.w3.org/1999/xlink" width="600" height="400" viewBox="0 0 2400 1600">
<defs>
  <clipPath id="clip120">
    <rect x="0" y="0" width="2400" height="1600"/>
  </clipPath>
</defs>
<path clip-path="url(#clip120)" d="
M0 1600 L2400 1600 L2400 0 L0 0  Z
  " fill="#ffffff" fill-rule="evenodd" fill-opacity="1"/>
<defs>
  <clipPath id="clip121">
    <rect x="480" y="0" width="1681" height="1600"/>
  </clipPath>
</defs>
<path clip-path="url(#clip120)" d="
M219.344 1486.45 L2352.76 1486.45 L2352.76 47.2441 L219.344 47.2441  Z
  " fill="#ffffff" fill-rule="evenodd" fill-opacity="1"/>
<defs>
  <clipPath id="clip122">
    <rect x="219" y="47" width="2134" height="1440"/>
  </clipPath>
</defs>
<polyline clip-path="url(#clip122)" style="stroke:#000000; stroke-linecap:butt; stroke-linejoin:round; stroke-width:2; stroke-opacity:0.1; fill:none" points="
  275.698,1486.45 275.698,47.2441 
  "/>
<polyline clip-path="url(#clip122)" style="stroke:#000000; stroke-linecap:butt; stroke-linejoin:round; stroke-width:2; stroke-opacity:0.1; fill:none" points="
  678.229,1486.45 678.229,47.2441 
  "/>
<polyline clip-path="url(#clip122)" style="stroke:#000000; stroke-linecap:butt; stroke-linejoin:round; stroke-width:2; stroke-opacity:0.1; fill:none" points="
  1080.76,1486.45 1080.76,47.2441 
  "/>
<polyline clip-path="url(#clip122)" style="stroke:#000000; stroke-linecap:butt; stroke-linejoin:round; stroke-width:2; stroke-opacity:0.1; fill:none" points="
  1483.29,1486.45 1483.29,47.2441 
  "/>
<polyline clip-path="url(#clip122)" style="stroke:#000000; stroke-linecap:butt; stroke-linejoin:round; stroke-width:2; stroke-opacity:0.1; fill:none" points="
  1885.82,1486.45 1885.82,47.2441 
  "/>
<polyline clip-path="url(#clip122)" style="stroke:#000000; stroke-linecap:butt; stroke-linejoin:round; stroke-width:2; stroke-opacity:0.1; fill:none" points="
  2288.35,1486.45 2288.35,47.2441 
  "/>
<polyline clip-path="url(#clip120)" style="stroke:#000000; stroke-linecap:butt; stroke-linejoin:round; stroke-width:4; stroke-opacity:1; fill:none" points="
  219.344,1486.45 2352.76,1486.45 
  "/>
<polyline clip-path="url(#clip120)" style="stroke:#000000; stroke-linecap:butt; stroke-linejoin:round; stroke-width:4; stroke-opacity:1; fill:none" points="
  275.698,1486.45 275.698,1467.55 
  "/>
<polyline clip-path="url(#clip120)" style="stroke:#000000; stroke-linecap:butt; stroke-linejoin:round; stroke-width:4; stroke-opacity:1; fill:none" points="
  678.229,1486.45 678.229,1467.55 
  "/>
<polyline clip-path="url(#clip120)" style="stroke:#000000; stroke-linecap:butt; stroke-linejoin:round; stroke-width:4; stroke-opacity:1; fill:none" points="
  1080.76,1486.45 1080.76,1467.55 
  "/>
<polyline clip-path="url(#clip120)" style="stroke:#000000; stroke-linecap:butt; stroke-linejoin:round; stroke-width:4; stroke-opacity:1; fill:none" points="
  1483.29,1486.45 1483.29,1467.55 
  "/>
<polyline clip-path="url(#clip120)" style="stroke:#000000; stroke-linecap:butt; stroke-linejoin:round; stroke-width:4; stroke-opacity:1; fill:none" points="
  1885.82,1486.45 1885.82,1467.55 
  "/>
<polyline clip-path="url(#clip120)" style="stroke:#000000; stroke-linecap:butt; stroke-linejoin:round; stroke-width:4; stroke-opacity:1; fill:none" points="
  2288.35,1486.45 2288.35,1467.55 
  "/>
<path clip-path="url(#clip120)" d="M275.698 1517.37 Q272.087 1517.37 270.258 1520.93 Q268.453 1524.47 268.453 1531.6 Q268.453 1538.71 270.258 1542.27 Q272.087 1545.82 275.698 1545.82 Q279.332 1545.82 281.138 1542.27 Q282.967 1538.71 282.967 1531.6 Q282.967 1524.47 281.138 1520.93 Q279.332 1517.37 275.698 1517.37 M275.698 1513.66 Q281.508 1513.66 284.564 1518.27 Q287.643 1522.85 287.643 1531.6 Q287.643 1540.33 284.564 1544.94 Q281.508 1549.52 275.698 1549.52 Q269.888 1549.52 266.809 1544.94 Q263.754 1540.33 263.754 1531.6 Q263.754 1522.85 266.809 1518.27 Q269.888 1513.66 275.698 1513.66 Z" fill="#000000" fill-rule="evenodd" fill-opacity="1" /><path clip-path="url(#clip120)" d="M637.835 1544.91 L645.474 1544.91 L645.474 1518.55 L637.164 1520.21 L637.164 1515.95 L645.428 1514.29 L650.104 1514.29 L650.104 1544.91 L657.743 1544.91 L657.743 1548.85 L637.835 1548.85 L637.835 1544.91 Z" fill="#000000" fill-rule="evenodd" fill-opacity="1" /><path clip-path="url(#clip120)" d="M677.187 1517.37 Q673.576 1517.37 671.747 1520.93 Q669.942 1524.47 669.942 1531.6 Q669.942 1538.71 671.747 1542.27 Q673.576 1545.82 677.187 1545.82 Q680.821 1545.82 682.627 1542.27 Q684.456 1538.71 684.456 1531.6 Q684.456 1524.47 682.627 1520.93 Q680.821 1517.37 677.187 1517.37 M677.187 1513.66 Q682.997 1513.66 686.053 1518.27 Q689.131 1522.85 689.131 1531.6 Q689.131 1540.33 686.053 1544.94 Q682.997 1549.52 677.187 1549.52 Q671.377 1549.52 668.298 1544.94 Q665.243 1540.33 665.243 1531.6 Q665.243 1522.85 668.298 1518.27 Q671.377 1513.66 677.187 1513.66 Z" fill="#000000" fill-rule="evenodd" fill-opacity="1" /><path clip-path="url(#clip120)" d="M707.349 1517.37 Q703.738 1517.37 701.909 1520.93 Q700.104 1524.47 700.104 1531.6 Q700.104 1538.71 701.909 1542.27 Q703.738 1545.82 707.349 1545.82 Q710.983 1545.82 712.789 1542.27 Q714.617 1538.71 714.617 1531.6 Q714.617 1524.47 712.789 1520.93 Q710.983 1517.37 707.349 1517.37 M707.349 1513.66 Q713.159 1513.66 716.215 1518.27 Q719.293 1522.85 719.293 1531.6 Q719.293 1540.33 716.215 1544.94 Q713.159 1549.52 707.349 1549.52 Q701.539 1549.52 698.46 1544.94 Q695.405 1540.33 695.405 1531.6 Q695.405 1522.85 698.46 1518.27 Q701.539 1513.66 707.349 1513.66 Z" fill="#000000" fill-rule="evenodd" fill-opacity="1" /><path clip-path="url(#clip120)" d="M1044.45 1544.91 L1060.77 1544.91 L1060.77 1548.85 L1038.83 1548.85 L1038.83 1544.91 Q1041.49 1542.16 1046.07 1537.53 Q1050.68 1532.88 1051.86 1531.53 Q1054.1 1529.01 1054.98 1527.27 Q1055.89 1525.51 1055.89 1523.82 Q1055.89 1521.07 1053.94 1519.33 Q1052.02 1517.6 1048.92 1517.6 Q1046.72 1517.6 1044.27 1518.36 Q1041.84 1519.13 1039.06 1520.68 L1039.06 1515.95 Q1041.88 1514.82 1044.34 1514.24 Q1046.79 1513.66 1048.83 1513.66 Q1054.2 1513.66 1057.39 1516.35 Q1060.59 1519.03 1060.59 1523.52 Q1060.59 1525.65 1059.78 1527.57 Q1058.99 1529.47 1056.88 1532.07 Q1056.3 1532.74 1053.2 1535.95 Q1050.1 1539.15 1044.45 1544.91 Z" fill="#000000" fill-rule="evenodd" fill-opacity="1" /><path clip-path="url(#clip120)" d="M1080.59 1517.37 Q1076.97 1517.37 1075.15 1520.93 Q1073.34 1524.47 1073.34 1531.6 Q1073.34 1538.71 1075.15 1542.27 Q1076.97 1545.82 1080.59 1545.82 Q1084.22 1545.82 1086.03 1542.27 Q1087.85 1538.71 1087.85 1531.6 Q1087.85 1524.47 1086.03 1520.93 Q1084.22 1517.37 1080.59 1517.37 M1080.59 1513.66 Q1086.4 1513.66 1089.45 1518.27 Q1092.53 1522.85 1092.53 1531.6 Q1092.53 1540.33 1089.45 1544.94 Q1086.4 1549.52 1080.59 1549.52 Q1074.78 1549.52 1071.7 1544.94 Q1068.64 1540.33 1068.64 1531.6 Q1068.64 1522.85 1071.7 1518.27 Q1074.78 1513.66 1080.59 1513.66 Z" fill="#000000" fill-rule="evenodd" fill-opacity="1" /><path clip-path="url(#clip120)" d="M1110.75 1517.37 Q1107.14 1517.37 1105.31 1520.93 Q1103.5 1524.47 1103.5 1531.6 Q1103.5 1538.71 1105.31 1542.27 Q1107.14 1545.82 1110.75 1545.82 Q1114.38 1545.82 1116.19 1542.27 Q1118.02 1538.71 1118.02 1531.6 Q1118.02 1524.47 1116.19 1520.93 Q1114.38 1517.37 1110.75 1517.37 M1110.75 1513.66 Q1116.56 1513.66 1119.61 1518.27 Q1122.69 1522.85 1122.69 1531.6 Q1122.69 1540.33 1119.61 1544.94 Q1116.56 1549.52 1110.75 1549.52 Q1104.94 1549.52 1101.86 1544.94 Q1098.8 1540.33 1098.8 1531.6 Q1098.8 1522.85 1101.86 1518.27 Q1104.94 1513.66 1110.75 1513.66 Z" fill="#000000" fill-rule="evenodd" fill-opacity="1" /><path clip-path="url(#clip120)" d="M1457.05 1530.21 Q1460.41 1530.93 1462.28 1533.2 Q1464.18 1535.47 1464.18 1538.8 Q1464.18 1543.92 1460.66 1546.72 Q1457.14 1549.52 1450.66 1549.52 Q1448.49 1549.52 1446.17 1549.08 Q1443.88 1548.66 1441.43 1547.81 L1441.43 1543.29 Q1443.37 1544.43 1445.69 1545.01 Q1448 1545.58 1450.52 1545.58 Q1454.92 1545.58 1457.21 1543.85 Q1459.53 1542.11 1459.53 1538.8 Q1459.53 1535.75 1457.38 1534.03 Q1455.25 1532.3 1451.43 1532.3 L1447.4 1532.3 L1447.4 1528.45 L1451.61 1528.45 Q1455.06 1528.45 1456.89 1527.09 Q1458.72 1525.7 1458.72 1523.11 Q1458.72 1520.45 1456.82 1519.03 Q1454.95 1517.6 1451.43 1517.6 Q1449.51 1517.6 1447.31 1518.01 Q1445.11 1518.43 1442.47 1519.31 L1442.47 1515.14 Q1445.13 1514.4 1447.45 1514.03 Q1449.78 1513.66 1451.84 1513.66 Q1457.17 1513.66 1460.27 1516.09 Q1463.37 1518.5 1463.37 1522.62 Q1463.37 1525.49 1461.73 1527.48 Q1460.08 1529.45 1457.05 1530.21 Z" fill="#000000" fill-rule="evenodd" fill-opacity="1" /><path clip-path="url(#clip120)" d="M1483.05 1517.37 Q1479.44 1517.37 1477.61 1520.93 Q1475.8 1524.47 1475.8 1531.6 Q1475.8 1538.71 1477.61 1542.27 Q1479.44 1545.82 1483.05 1545.82 Q1486.68 1545.82 1488.49 1542.27 Q1490.32 1538.71 1490.32 1531.6 Q1490.32 1524.47 1488.49 1520.93 Q1486.68 1517.37 1483.05 1517.37 M1483.05 1513.66 Q1488.86 1513.66 1491.91 1518.27 Q1494.99 1522.85 1494.99 1531.6 Q1494.99 1540.33 1491.91 1544.94 Q1488.86 1549.52 1483.05 1549.52 Q1477.24 1549.52 1474.16 1544.94 Q1471.1 1540.33 1471.1 1531.6 Q1471.1 1522.85 1474.16 1518.27 Q1477.24 1513.66 1483.05 1513.66 Z" fill="#000000" fill-rule="evenodd" fill-opacity="1" /><path clip-path="url(#clip120)" d="M1513.21 1517.37 Q1509.6 1517.37 1507.77 1520.93 Q1505.96 1524.47 1505.96 1531.6 Q1505.96 1538.71 1507.77 1542.27 Q1509.6 1545.82 1513.21 1545.82 Q1516.84 1545.82 1518.65 1542.27 Q1520.48 1538.71 1520.48 1531.6 Q1520.48 1524.47 1518.65 1520.93 Q1516.84 1517.37 1513.21 1517.37 M1513.21 1513.66 Q1519.02 1513.66 1522.07 1518.27 Q1525.15 1522.85 1525.15 1531.6 Q1525.15 1540.33 1522.07 1544.94 Q1519.02 1549.52 1513.21 1549.52 Q1507.4 1549.52 1504.32 1544.94 Q1501.26 1540.33 1501.26 1531.6 Q1501.26 1522.85 1504.32 1518.27 Q1507.4 1513.66 1513.21 1513.66 Z" fill="#000000" fill-rule="evenodd" fill-opacity="1" /><path clip-path="url(#clip120)" d="M1858.91 1518.36 L1847.11 1536.81 L1858.91 1536.81 L1858.91 1518.36 M1857.68 1514.29 L1863.56 1514.29 L1863.56 1536.81 L1868.49 1536.81 L1868.49 1540.7 L1863.56 1540.7 L1863.56 1548.85 L1858.91 1548.85 L1858.91 1540.7 L1843.31 1540.7 L1843.31 1536.19 L1857.68 1514.29 Z" fill="#000000" fill-rule="evenodd" fill-opacity="1" /><path clip-path="url(#clip120)" d="M1886.23 1517.37 Q1882.61 1517.37 1880.79 1520.93 Q1878.98 1524.47 1878.98 1531.6 Q1878.98 1538.71 1880.79 1542.27 Q1882.61 1545.82 1886.23 1545.82 Q1889.86 1545.82 1891.67 1542.27 Q1893.49 1538.71 1893.49 1531.6 Q1893.49 1524.47 1891.67 1520.93 Q1889.86 1517.37 1886.23 1517.37 M1886.23 1513.66 Q1892.04 1513.66 1895.09 1518.27 Q1898.17 1522.85 1898.17 1531.6 Q1898.17 1540.33 1895.09 1544.94 Q1892.04 1549.52 1886.23 1549.52 Q1880.42 1549.52 1877.34 1544.94 Q1874.28 1540.33 1874.28 1531.6 Q1874.28 1522.85 1877.34 1518.27 Q1880.42 1513.66 1886.23 1513.66 Z" fill="#000000" fill-rule="evenodd" fill-opacity="1" /><path clip-path="url(#clip120)" d="M1916.39 1517.37 Q1912.78 1517.37 1910.95 1520.93 Q1909.14 1524.47 1909.14 1531.6 Q1909.14 1538.71 1910.95 1542.27 Q1912.78 1545.82 1916.39 1545.82 Q1920.02 1545.82 1921.83 1542.27 Q1923.66 1538.71 1923.66 1531.6 Q1923.66 1524.47 1921.83 1520.93 Q1920.02 1517.37 1916.39 1517.37 M1916.39 1513.66 Q1922.2 1513.66 1925.25 1518.27 Q1928.33 1522.85 1928.33 1531.6 Q1928.33 1540.33 1925.25 1544.94 Q1922.2 1549.52 1916.39 1549.52 Q1910.58 1549.52 1907.5 1544.94 Q1904.44 1540.33 1904.44 1531.6 Q1904.44 1522.85 1907.5 1518.27 Q1910.58 1513.66 1916.39 1513.66 Z" fill="#000000" fill-rule="evenodd" fill-opacity="1" /><path clip-path="url(#clip120)" d="M2247.97 1514.29 L2266.33 1514.29 L2266.33 1518.22 L2252.25 1518.22 L2252.25 1526.7 Q2253.27 1526.35 2254.29 1526.19 Q2255.31 1526 2256.33 1526 Q2262.11 1526 2265.49 1529.17 Q2268.87 1532.34 2268.87 1537.76 Q2268.87 1543.34 2265.4 1546.44 Q2261.93 1549.52 2255.61 1549.52 Q2253.43 1549.52 2251.16 1549.15 Q2248.92 1548.78 2246.51 1548.04 L2246.51 1543.34 Q2248.59 1544.47 2250.82 1545.03 Q2253.04 1545.58 2255.52 1545.58 Q2259.52 1545.58 2261.86 1543.48 Q2264.2 1541.37 2264.2 1537.76 Q2264.2 1534.15 2261.86 1532.04 Q2259.52 1529.94 2255.52 1529.94 Q2253.64 1529.94 2251.77 1530.35 Q2249.91 1530.77 2247.97 1531.65 L2247.97 1514.29 Z" fill="#000000" fill-rule="evenodd" fill-opacity="1" /><path clip-path="url(#clip120)" d="M2288.08 1517.37 Q2284.47 1517.37 2282.65 1520.93 Q2280.84 1524.47 2280.84 1531.6 Q2280.84 1538.71 2282.65 1542.27 Q2284.47 1545.82 2288.08 1545.82 Q2291.72 1545.82 2293.52 1542.27 Q2295.35 1538.71 2295.35 1531.6 Q2295.35 1524.47 2293.52 1520.93 Q2291.72 1517.37 2288.08 1517.37 M2288.08 1513.66 Q2293.89 1513.66 2296.95 1518.27 Q2300.03 1522.85 2300.03 1531.6 Q2300.03 1540.33 2296.95 1544.94 Q2293.89 1549.52 2288.08 1549.52 Q2282.27 1549.52 2279.2 1544.94 Q2276.14 1540.33 2276.14 1531.6 Q2276.14 1522.85 2279.2 1518.27 Q2282.27 1513.66 2288.08 1513.66 Z" fill="#000000" fill-rule="evenodd" fill-opacity="1" /><path clip-path="url(#clip120)" d="M2318.25 1517.37 Q2314.64 1517.37 2312.81 1520.93 Q2311 1524.47 2311 1531.6 Q2311 1538.71 2312.81 1542.27 Q2314.64 1545.82 2318.25 1545.82 Q2321.88 1545.82 2323.69 1542.27 Q2325.52 1538.71 2325.52 1531.6 Q2325.52 1524.47 2323.69 1520.93 Q2321.88 1517.37 2318.25 1517.37 M2318.25 1513.66 Q2324.06 1513.66 2327.11 1518.27 Q2330.19 1522.85 2330.19 1531.6 Q2330.19 1540.33 2327.11 1544.94 Q2324.06 1549.52 2318.25 1549.52 Q2312.44 1549.52 2309.36 1544.94 Q2306.3 1540.33 2306.3 1531.6 Q2306.3 1522.85 2309.36 1518.27 Q2312.44 1513.66 2318.25 1513.66 Z" fill="#000000" fill-rule="evenodd" fill-opacity="1" /><polyline clip-path="url(#clip122)" style="stroke:#000000; stroke-linecap:butt; stroke-linejoin:round; stroke-width:2; stroke-opacity:0.1; fill:none" points="
  219.344,1388.19 2352.76,1388.19 
  "/>
<polyline clip-path="url(#clip122)" style="stroke:#000000; stroke-linecap:butt; stroke-linejoin:round; stroke-width:2; stroke-opacity:0.1; fill:none" points="
  219.344,1118.47 2352.76,1118.47 
  "/>
<polyline clip-path="url(#clip122)" style="stroke:#000000; stroke-linecap:butt; stroke-linejoin:round; stroke-width:2; stroke-opacity:0.1; fill:none" points="
  219.344,848.754 2352.76,848.754 
  "/>
<polyline clip-path="url(#clip122)" style="stroke:#000000; stroke-linecap:butt; stroke-linejoin:round; stroke-width:2; stroke-opacity:0.1; fill:none" points="
  219.344,579.038 2352.76,579.038 
  "/>
<polyline clip-path="url(#clip122)" style="stroke:#000000; stroke-linecap:butt; stroke-linejoin:round; stroke-width:2; stroke-opacity:0.1; fill:none" points="
  219.344,309.321 2352.76,309.321 
  "/>
<polyline clip-path="url(#clip120)" style="stroke:#000000; stroke-linecap:butt; stroke-linejoin:round; stroke-width:4; stroke-opacity:1; fill:none" points="
  219.344,1486.45 219.344,47.2441 
  "/>
<polyline clip-path="url(#clip120)" style="stroke:#000000; stroke-linecap:butt; stroke-linejoin:round; stroke-width:4; stroke-opacity:1; fill:none" points="
  219.344,1388.19 238.241,1388.19 
  "/>
<polyline clip-path="url(#clip120)" style="stroke:#000000; stroke-linecap:butt; stroke-linejoin:round; stroke-width:4; stroke-opacity:1; fill:none" points="
  219.344,1118.47 238.241,1118.47 
  "/>
<polyline clip-path="url(#clip120)" style="stroke:#000000; stroke-linecap:butt; stroke-linejoin:round; stroke-width:4; stroke-opacity:1; fill:none" points="
  219.344,848.754 238.241,848.754 
  "/>
<polyline clip-path="url(#clip120)" style="stroke:#000000; stroke-linecap:butt; stroke-linejoin:round; stroke-width:4; stroke-opacity:1; fill:none" points="
  219.344,579.038 238.241,579.038 
  "/>
<polyline clip-path="url(#clip120)" style="stroke:#000000; stroke-linecap:butt; stroke-linejoin:round; stroke-width:4; stroke-opacity:1; fill:none" points="
  219.344,309.321 238.241,309.321 
  "/>
<path clip-path="url(#clip120)" d="M53.074 1407.98 L60.7128 1407.98 L60.7128 1381.61 L52.4027 1383.28 L52.4027 1379.02 L60.6666 1377.36 L65.3425 1377.36 L65.3425 1407.98 L72.9813 1407.98 L72.9813 1411.92 L53.074 1411.92 L53.074 1407.98 Z" fill="#000000" fill-rule="evenodd" fill-opacity="1" /><path clip-path="url(#clip120)" d="M92.4256 1380.43 Q88.8146 1380.43 86.9859 1384 Q85.1803 1387.54 85.1803 1394.67 Q85.1803 1401.78 86.9859 1405.34 Q88.8146 1408.88 92.4256 1408.88 Q96.0599 1408.88 97.8654 1405.34 Q99.6941 1401.78 99.6941 1394.67 Q99.6941 1387.54 97.8654 1384 Q96.0599 1380.43 92.4256 1380.43 M92.4256 1376.73 Q98.2358 1376.73 101.291 1381.34 Q104.37 1385.92 104.37 1394.67 Q104.37 1403.4 101.291 1408 Q98.2358 1412.59 92.4256 1412.59 Q86.6155 1412.59 83.5368 1408 Q80.4813 1403.4 80.4813 1394.67 Q80.4813 1385.92 83.5368 1381.34 Q86.6155 1376.73 92.4256 1376.73 Z" fill="#000000" fill-rule="evenodd" fill-opacity="1" /><path clip-path="url(#clip120)" d="M104.915 1381.31 L111.122 1381.31 L111.122 1359.89 L104.37 1361.24 L104.37 1357.78 L111.084 1356.42 L114.884 1356.42 L114.884 1381.31 L121.09 1381.31 L121.09 1384.5 L104.915 1384.5 L104.915 1381.31 Z" fill="#000000" fill-rule="evenodd" fill-opacity="1" /><path clip-path="url(#clip120)" d="M128.764 1379.73 L132.732 1379.73 L132.732 1384.5 L128.764 1384.5 L128.764 1379.73 Z" fill="#000000" fill-rule="evenodd" fill-opacity="1" /><path clip-path="url(#clip120)" d="M141.045 1356.42 L155.96 1356.42 L155.96 1359.62 L144.525 1359.62 L144.525 1366.51 Q145.352 1366.22 146.18 1366.09 Q147.007 1365.94 147.835 1365.94 Q152.537 1365.94 155.283 1368.52 Q158.029 1371.09 158.029 1375.5 Q158.029 1380.03 155.207 1382.55 Q152.386 1385.05 147.252 1385.05 Q145.484 1385.05 143.641 1384.75 Q141.816 1384.45 139.86 1383.85 L139.86 1380.03 Q141.553 1380.95 143.359 1381.4 Q145.164 1381.85 147.177 1381.85 Q150.43 1381.85 152.33 1380.14 Q154.229 1378.43 154.229 1375.5 Q154.229 1372.56 152.33 1370.85 Q150.43 1369.14 147.177 1369.14 Q145.653 1369.14 144.13 1369.48 Q142.625 1369.82 141.045 1370.53 L141.045 1356.42 Z" fill="#000000" fill-rule="evenodd" fill-opacity="1" /><path clip-path="url(#clip120)" d="M173.639 1358.93 Q170.705 1358.93 169.219 1361.82 Q167.752 1364.7 167.752 1370.49 Q167.752 1376.27 169.219 1379.16 Q170.705 1382.04 173.639 1382.04 Q176.592 1382.04 178.059 1379.16 Q179.545 1376.27 179.545 1370.49 Q179.545 1364.7 178.059 1361.82 Q176.592 1358.93 173.639 1358.93 M173.639 1355.92 Q178.36 1355.92 180.842 1359.66 Q183.344 1363.38 183.344 1370.49 Q183.344 1377.58 180.842 1381.33 Q178.36 1385.05 173.639 1385.05 Q168.918 1385.05 166.417 1381.33 Q163.934 1377.58 163.934 1370.49 Q163.934 1363.38 166.417 1359.66 Q168.918 1355.92 173.639 1355.92 Z" fill="#000000" fill-rule="evenodd" fill-opacity="1" /><path clip-path="url(#clip120)" d="M53.8827 1138.26 L61.5216 1138.26 L61.5216 1111.9 L53.2114 1113.56 L53.2114 1109.31 L61.4753 1107.64 L66.1512 1107.64 L66.1512 1138.26 L73.79 1138.26 L73.79 1142.2 L53.8827 1142.2 L53.8827 1138.26 Z" fill="#000000" fill-rule="evenodd" fill-opacity="1" /><path clip-path="url(#clip120)" d="M93.2344 1110.72 Q89.6233 1110.72 87.7946 1114.28 Q85.989 1117.82 85.989 1124.95 Q85.989 1132.06 87.7946 1135.62 Q89.6233 1139.17 93.2344 1139.17 Q96.8686 1139.17 98.6742 1135.62 Q100.503 1132.06 100.503 1124.95 Q100.503 1117.82 98.6742 1114.28 Q96.8686 1110.72 93.2344 1110.72 M93.2344 1107.01 Q99.0445 1107.01 102.1 1111.62 Q105.179 1116.2 105.179 1124.95 Q105.179 1133.68 102.1 1138.29 Q99.0445 1142.87 93.2344 1142.87 Q87.4242 1142.87 84.3455 1138.29 Q81.29 1133.68 81.29 1124.95 Q81.29 1116.2 84.3455 1111.62 Q87.4242 1107.01 93.2344 1107.01 Z" fill="#000000" fill-rule="evenodd" fill-opacity="1" /><path clip-path="url(#clip120)" d="M105.724 1111.59 L111.931 1111.59 L111.931 1090.17 L105.179 1091.52 L105.179 1088.06 L111.893 1086.71 L115.692 1086.71 L115.692 1111.59 L121.899 1111.59 L121.899 1114.79 L105.724 1114.79 L105.724 1111.59 Z" fill="#000000" fill-rule="evenodd" fill-opacity="1" /><path clip-path="url(#clip120)" d="M129.572 1110.01 L133.541 1110.01 L133.541 1114.79 L129.572 1114.79 L129.572 1110.01 Z" fill="#000000" fill-rule="evenodd" fill-opacity="1" /><path clip-path="url(#clip120)" d="M140.857 1086.71 L158.913 1086.71 L158.913 1088.33 L148.719 1114.79 L144.75 1114.79 L154.342 1089.91 L140.857 1089.91 L140.857 1086.71 Z" fill="#000000" fill-rule="evenodd" fill-opacity="1" /><path clip-path="url(#clip120)" d="M166.36 1086.71 L181.275 1086.71 L181.275 1089.91 L169.84 1089.91 L169.84 1096.79 Q170.667 1096.51 171.495 1096.38 Q172.322 1096.22 173.15 1096.22 Q177.852 1096.22 180.598 1098.8 Q183.344 1101.38 183.344 1105.78 Q183.344 1110.31 180.523 1112.83 Q177.702 1115.33 172.567 1115.33 Q170.799 1115.33 168.956 1115.03 Q167.132 1114.73 165.176 1114.13 L165.176 1110.31 Q166.868 1111.23 168.674 1111.68 Q170.479 1112.14 172.492 1112.14 Q175.746 1112.14 177.645 1110.42 Q179.545 1108.71 179.545 1105.78 Q179.545 1102.85 177.645 1101.13 Q175.746 1099.42 172.492 1099.42 Q170.968 1099.42 169.445 1099.76 Q167.94 1100.1 166.36 1100.81 L166.36 1086.71 Z" fill="#000000" fill-rule="evenodd" fill-opacity="1" /><path clip-path="url(#clip120)" d="M51.6634 868.547 L59.3023 868.547 L59.3023 842.181 L50.9921 843.848 L50.9921 839.589 L59.256 837.922 L63.9319 837.922 L63.9319 868.547 L71.5707 868.547 L71.5707 872.482 L51.6634 872.482 L51.6634 868.547 Z" fill="#000000" fill-rule="evenodd" fill-opacity="1" /><path clip-path="url(#clip120)" d="M91.0151 841.001 Q87.404 841.001 85.5753 844.565 Q83.7697 848.107 83.7697 855.237 Q83.7697 862.343 85.5753 865.908 Q87.404 869.45 91.0151 869.45 Q94.6493 869.45 96.4548 865.908 Q98.2835 862.343 98.2835 855.237 Q98.2835 848.107 96.4548 844.565 Q94.6493 841.001 91.0151 841.001 M91.0151 837.297 Q96.8252 837.297 99.8808 841.903 Q102.959 846.487 102.959 855.237 Q102.959 863.964 99.8808 868.57 Q96.8252 873.153 91.0151 873.153 Q85.2049 873.153 82.1262 868.57 Q79.0707 863.964 79.0707 855.237 Q79.0707 846.487 82.1262 841.903 Q85.2049 837.297 91.0151 837.297 Z" fill="#000000" fill-rule="evenodd" fill-opacity="1" /><path clip-path="url(#clip120)" d="M107.53 841.874 L120.789 841.874 L120.789 845.072 L102.959 845.072 L102.959 841.874 Q105.122 839.636 108.846 835.875 Q112.589 832.094 113.548 831.003 Q115.373 828.953 116.087 827.543 Q116.821 826.113 116.821 824.74 Q116.821 822.502 115.241 821.092 Q113.68 819.681 111.16 819.681 Q109.373 819.681 107.379 820.302 Q105.404 820.922 103.148 822.183 L103.148 818.346 Q105.442 817.424 107.436 816.954 Q109.429 816.484 111.084 816.484 Q115.448 816.484 118.043 818.665 Q120.639 820.847 120.639 824.496 Q120.639 826.226 119.98 827.787 Q119.341 829.329 117.63 831.436 Q117.159 831.981 114.639 834.596 Q112.119 837.191 107.53 841.874 Z" fill="#000000" fill-rule="evenodd" fill-opacity="1" /><path clip-path="url(#clip120)" d="M128.764 840.294 L132.732 840.294 L132.732 845.072 L128.764 845.072 L128.764 840.294 Z" fill="#000000" fill-rule="evenodd" fill-opacity="1" /><path clip-path="url(#clip120)" d="M149.133 819.493 Q146.199 819.493 144.713 822.389 Q143.246 825.267 143.246 831.06 Q143.246 836.834 144.713 839.73 Q146.199 842.608 149.133 842.608 Q152.085 842.608 153.552 839.73 Q155.038 836.834 155.038 831.06 Q155.038 825.267 153.552 822.389 Q152.085 819.493 149.133 819.493 M149.133 816.484 Q153.853 816.484 156.336 820.227 Q158.837 823.95 158.837 831.06 Q158.837 838.15 156.336 841.893 Q153.853 845.617 149.133 845.617 Q144.412 845.617 141.91 841.893 Q139.428 838.15 139.428 831.06 Q139.428 823.95 141.91 820.227 Q144.412 816.484 149.133 816.484 Z" fill="#000000" fill-rule="evenodd" fill-opacity="1" /><path clip-path="url(#clip120)" d="M173.639 819.493 Q170.705 819.493 169.219 822.389 Q167.752 825.267 167.752 831.06 Q167.752 836.834 169.219 839.73 Q170.705 842.608 173.639 842.608 Q176.592 842.608 178.059 839.73 Q179.545 836.834 179.545 831.06 Q179.545 825.267 178.059 822.389 Q176.592 819.493 173.639 819.493 M173.639 816.484 Q178.36 816.484 180.842 820.227 Q183.344 823.95 183.344 831.06 Q183.344 838.15 180.842 841.893 Q178.36 845.617 173.639 845.617 Q168.918 845.617 166.417 841.893 Q163.934 838.15 163.934 831.06 Q163.934 823.95 166.417 820.227 Q168.918 816.484 173.639 816.484 Z" fill="#000000" fill-rule="evenodd" fill-opacity="1" /><path clip-path="url(#clip120)" d="M52.4722 598.83 L60.111 598.83 L60.111 572.465 L51.8009 574.131 L51.8009 569.872 L60.0647 568.205 L64.7406 568.205 L64.7406 598.83 L72.3795 598.83 L72.3795 602.765 L52.4722 602.765 L52.4722 598.83 Z" fill="#000000" fill-rule="evenodd" fill-opacity="1" /><path clip-path="url(#clip120)" d="M91.8238 571.284 Q88.2127 571.284 86.384 574.849 Q84.5785 578.391 84.5785 585.52 Q84.5785 592.627 86.384 596.191 Q88.2127 599.733 91.8238 599.733 Q95.458 599.733 97.2636 596.191 Q99.0923 592.627 99.0923 585.52 Q99.0923 578.391 97.2636 574.849 Q95.458 571.284 91.8238 571.284 M91.8238 567.58 Q97.6339 567.58 100.689 572.187 Q103.768 576.77 103.768 585.52 Q103.768 594.247 100.689 598.853 Q97.6339 603.437 91.8238 603.437 Q86.0136 603.437 82.935 598.853 Q79.8794 594.247 79.8794 585.52 Q79.8794 576.77 82.935 572.187 Q86.0136 567.58 91.8238 567.58 Z" fill="#000000" fill-rule="evenodd" fill-opacity="1" /><path clip-path="url(#clip120)" d="M108.338 572.158 L121.598 572.158 L121.598 575.355 L103.768 575.355 L103.768 572.158 Q105.931 569.92 109.655 566.158 Q113.398 562.378 114.357 561.287 Q116.181 559.237 116.896 557.826 Q117.63 556.397 117.63 555.024 Q117.63 552.786 116.05 551.375 Q114.489 549.965 111.968 549.965 Q110.182 549.965 108.188 550.585 Q106.213 551.206 103.956 552.466 L103.956 548.629 Q106.251 547.708 108.244 547.237 Q110.238 546.767 111.893 546.767 Q116.257 546.767 118.852 548.949 Q121.447 551.131 121.447 554.779 Q121.447 556.51 120.789 558.071 Q120.15 559.613 118.438 561.719 Q117.968 562.265 115.448 564.879 Q112.928 567.475 108.338 572.158 Z" fill="#000000" fill-rule="evenodd" fill-opacity="1" /><path clip-path="url(#clip120)" d="M129.572 570.578 L133.541 570.578 L133.541 575.355 L129.572 575.355 L129.572 570.578 Z" fill="#000000" fill-rule="evenodd" fill-opacity="1" /><path clip-path="url(#clip120)" d="M145.089 572.158 L158.348 572.158 L158.348 575.355 L140.519 575.355 L140.519 572.158 Q142.681 569.92 146.405 566.158 Q150.148 562.378 151.107 561.287 Q152.932 559.237 153.646 557.826 Q154.38 556.397 154.38 555.024 Q154.38 552.786 152.8 551.375 Q151.239 549.965 148.719 549.965 Q146.932 549.965 144.938 550.585 Q142.964 551.206 140.707 552.466 L140.707 548.629 Q143.001 547.708 144.995 547.237 Q146.988 546.767 148.644 546.767 Q153.007 546.767 155.602 548.949 Q158.198 551.131 158.198 554.779 Q158.198 556.51 157.54 558.071 Q156.9 559.613 155.189 561.719 Q154.718 562.265 152.198 564.879 Q149.678 567.475 145.089 572.158 Z" fill="#000000" fill-rule="evenodd" fill-opacity="1" /><path clip-path="url(#clip120)" d="M166.36 547.275 L181.275 547.275 L181.275 550.472 L169.84 550.472 L169.84 557.356 Q170.667 557.074 171.495 556.942 Q172.322 556.792 173.15 556.792 Q177.852 556.792 180.598 559.368 Q183.344 561.945 183.344 566.346 Q183.344 570.879 180.523 573.399 Q177.702 575.901 172.567 575.901 Q170.799 575.901 168.956 575.6 Q167.132 575.299 165.176 574.697 L165.176 570.879 Q166.868 571.8 168.674 572.252 Q170.479 572.703 172.492 572.703 Q175.746 572.703 177.645 570.992 Q179.545 569.28 179.545 566.346 Q179.545 563.412 177.645 561.701 Q175.746 559.989 172.492 559.989 Q170.968 559.989 169.445 560.328 Q167.94 560.666 166.36 561.381 L166.36 547.275 Z" fill="#000000" fill-rule="evenodd" fill-opacity="1" /><path clip-path="url(#clip120)" d="M51.6634 329.114 L59.3023 329.114 L59.3023 302.748 L50.9921 304.415 L50.9921 300.156 L59.256 298.489 L63.9319 298.489 L63.9319 329.114 L71.5707 329.114 L71.5707 333.049 L51.6634 333.049 L51.6634 329.114 Z" fill="#000000" fill-rule="evenodd" fill-opacity="1" /><path clip-path="url(#clip120)" d="M91.0151 301.568 Q87.404 301.568 85.5753 305.132 Q83.7697 308.674 83.7697 315.804 Q83.7697 322.91 85.5753 326.475 Q87.404 330.017 91.0151 330.017 Q94.6493 330.017 96.4548 326.475 Q98.2835 322.91 98.2835 315.804 Q98.2835 308.674 96.4548 305.132 Q94.6493 301.568 91.0151 301.568 M91.0151 297.864 Q96.8252 297.864 99.8808 302.47 Q102.959 307.054 102.959 315.804 Q102.959 324.53 99.8808 329.137 Q96.8252 333.72 91.0151 333.72 Q85.2049 333.72 82.1262 329.137 Q79.0707 324.53 79.0707 315.804 Q79.0707 307.054 82.1262 302.47 Q85.2049 297.864 91.0151 297.864 Z" fill="#000000" fill-rule="evenodd" fill-opacity="1" /><path clip-path="url(#clip120)" d="M107.53 302.441 L120.789 302.441 L120.789 305.639 L102.959 305.639 L102.959 302.441 Q105.122 300.203 108.846 296.442 Q112.589 292.661 113.548 291.57 Q115.373 289.52 116.087 288.11 Q116.821 286.68 116.821 285.307 Q116.821 283.069 115.241 281.659 Q113.68 280.248 111.16 280.248 Q109.373 280.248 107.379 280.869 Q105.404 281.489 103.148 282.75 L103.148 278.913 Q105.442 277.991 107.436 277.521 Q109.429 277.051 111.084 277.051 Q115.448 277.051 118.043 279.232 Q120.639 281.414 120.639 285.063 Q120.639 286.793 119.98 288.354 Q119.341 289.896 117.63 292.003 Q117.159 292.548 114.639 295.163 Q112.119 297.758 107.53 302.441 Z" fill="#000000" fill-rule="evenodd" fill-opacity="1" /><path clip-path="url(#clip120)" d="M128.764 300.861 L132.732 300.861 L132.732 305.639 L128.764 305.639 L128.764 300.861 Z" fill="#000000" fill-rule="evenodd" fill-opacity="1" /><path clip-path="url(#clip120)" d="M141.045 277.559 L155.96 277.559 L155.96 280.756 L144.525 280.756 L144.525 287.64 Q145.352 287.357 146.18 287.226 Q147.007 287.075 147.835 287.075 Q152.537 287.075 155.283 289.652 Q158.029 292.229 158.029 296.63 Q158.029 301.162 155.207 303.683 Q152.386 306.184 147.252 306.184 Q145.484 306.184 143.641 305.883 Q141.816 305.582 139.86 304.98 L139.86 301.162 Q141.553 302.084 143.359 302.535 Q145.164 302.987 147.177 302.987 Q150.43 302.987 152.33 301.275 Q154.229 299.564 154.229 296.63 Q154.229 293.696 152.33 291.984 Q150.43 290.273 147.177 290.273 Q145.653 290.273 144.13 290.611 Q142.625 290.95 141.045 291.664 L141.045 277.559 Z" fill="#000000" fill-rule="evenodd" fill-opacity="1" /><path clip-path="url(#clip120)" d="M173.639 280.06 Q170.705 280.06 169.219 282.956 Q167.752 285.834 167.752 291.627 Q167.752 297.401 169.219 300.297 Q170.705 303.175 173.639 303.175 Q176.592 303.175 178.059 300.297 Q179.545 297.401 179.545 291.627 Q179.545 285.834 178.059 282.956 Q176.592 280.06 173.639 280.06 M173.639 277.051 Q178.36 277.051 180.842 280.793 Q183.344 284.517 183.344 291.627 Q183.344 298.717 180.842 302.46 Q178.36 306.184 173.639 306.184 Q168.918 306.184 166.417 302.46 Q163.934 298.717 163.934 291.627 Q163.934 284.517 166.417 280.793 Q168.918 277.051 173.639 277.051 Z" fill="#000000" fill-rule="evenodd" fill-opacity="1" /><polyline clip-path="url(#clip122)" style="stroke:#009af9; stroke-linecap:butt; stroke-linejoin:round; stroke-width:16; stroke-opacity:1; fill:none" points="
  279.723,87.9763 283.749,412.734 287.774,487.742 291.799,550.623 295.825,606.106 299.85,656.736 303.875,704.013 307.901,748.78 311.926,791.491 315.951,832.371 
  319.976,871.522 324.002,908.976 328.027,944.734 332.052,978.78 336.078,1011.1 340.103,1041.67 344.128,1070.5 348.154,1097.59 352.179,1122.96 356.204,1146.63 
  360.23,1168.65 364.255,1189.06 368.28,1207.92 372.305,1225.31 376.331,1241.29 380.356,1255.93 384.381,1269.32 388.407,1281.54 392.432,1292.67 396.457,1302.79 
  400.483,1311.97 404.508,1320.29 408.533,1327.83 412.559,1334.65 416.584,1340.81 420.609,1346.37 424.634,1351.4 428.66,1355.94 432.685,1360.04 436.71,1363.74 
  440.736,1367.09 444.761,1370.11 448.786,1372.85 452.812,1375.33 456.837,1377.57 460.862,1379.61 464.887,1381.46 468.913,1383.14 472.938,1384.67 476.963,1386.07 
  480.989,1387.35 485.014,1388.53 489.039,1389.6 493.065,1390.59 497.09,1391.51 501.115,1392.35 505.141,1393.13 509.166,1393.86 513.191,1394.53 517.216,1395.16 
  521.242,1395.75 525.267,1396.3 529.292,1396.81 533.318,1397.3 537.343,1397.76 541.368,1398.2 545.394,1398.61 549.419,1399 553.444,1399.37 557.47,1399.72 
  561.495,1400.06 565.52,1400.38 569.545,1400.69 573.571,1400.99 577.596,1401.28 581.621,1401.55 585.647,1401.82 589.672,1402.07 593.697,1402.32 597.723,1402.56 
  601.748,1402.79 605.773,1403.01 609.799,1403.23 613.824,1403.44 617.849,1403.64 621.874,1403.84 625.9,1404.03 629.925,1404.22 633.95,1404.4 637.976,1404.58 
  642.001,1404.75 646.026,1404.92 650.052,1405.08 654.077,1405.24 658.102,1405.4 662.127,1405.55 666.153,1405.7 670.178,1405.85 674.203,1405.99 678.229,1406.13 
  682.254,1406.26 686.279,1406.39 690.305,1406.52 694.33,1406.65 698.355,1406.77 702.381,1406.89 706.406,1407.01 710.431,1407.12 714.456,1407.24 718.482,1407.35 
  722.507,1407.45 726.532,1407.56 730.558,1407.66 734.583,1407.76 738.608,1407.86 742.634,1407.96 746.659,1408.05 750.684,1408.15 754.71,1408.24 758.735,1408.33 
  762.76,1408.41 766.785,1408.5 770.811,1408.58 774.836,1408.66 778.861,1408.74 782.887,1408.82 786.912,1408.9 790.937,1408.97 794.963,1409.05 798.988,1409.12 
  803.013,1409.19 807.038,1409.26 811.064,1409.33 815.089,1409.4 819.114,1409.46 823.14,1409.53 827.165,1409.59 831.19,1409.65 835.216,1409.71 839.241,1409.77 
  843.266,1409.83 847.292,1409.89 851.317,1409.95 855.342,1410 859.367,1410.06 863.393,1410.11 867.418,1410.16 871.443,1410.21 875.469,1410.26 879.494,1410.31 
  883.519,1410.36 887.545,1410.41 891.57,1410.46 895.595,1410.51 899.621,1410.55 903.646,1410.6 907.671,1410.64 911.696,1410.68 915.722,1410.73 919.747,1410.77 
  923.772,1410.81 927.798,1410.85 931.823,1410.89 935.848,1410.93 939.874,1410.97 943.899,1411.01 947.924,1411.04 951.949,1411.08 955.975,1411.12 960,1411.15 
  964.025,1411.19 968.051,1411.22 972.076,1411.26 976.101,1411.29 980.127,1411.33 984.152,1411.36 988.177,1411.39 992.203,1411.42 996.228,1411.45 1000.25,1411.49 
  1004.28,1411.52 1008.3,1411.55 1012.33,1411.58 1016.35,1411.61 1020.38,1411.63 1024.41,1411.66 1028.43,1411.69 1032.46,1411.72 1036.48,1411.75 1040.51,1411.77 
  1044.53,1411.8 1048.56,1411.83 1052.58,1411.85 1056.61,1411.88 1060.63,1411.91 1064.66,1411.93 1068.68,1411.96 1072.71,1411.98 1076.73,1412.01 1080.76,1412.03 
  1084.78,1412.05 1088.81,1412.08 1092.84,1412.1 1096.86,1412.12 1100.89,1412.15 1104.91,1412.17 1108.94,1412.19 1112.96,1412.21 1116.99,1412.24 1121.01,1412.26 
  1125.04,1412.28 1129.06,1412.3 1133.09,1412.32 1137.11,1412.34 1141.14,1412.36 1145.16,1412.38 1149.19,1412.4 1153.21,1412.42 1157.24,1412.44 1161.27,1412.46 
  1165.29,1412.48 1169.32,1412.5 1173.34,1412.52 1177.37,1412.54 1181.39,1412.56 1185.42,1412.58 1189.44,1412.6 1193.47,1412.62 1197.49,1412.64 1201.52,1412.65 
  1205.54,1412.67 1209.57,1412.69 1213.59,1412.71 1217.62,1412.73 1221.64,1412.74 1225.67,1412.76 1229.7,1412.78 1233.72,1412.8 1237.75,1412.81 1241.77,1412.83 
  1245.8,1412.85 1249.82,1412.86 1253.85,1412.88 1257.87,1412.9 1261.9,1412.91 1265.92,1412.93 1269.95,1412.95 1273.97,1412.96 1278,1412.98 1282.02,1412.99 
  1286.05,1413.01 1290.08,1413.03 1294.1,1413.04 1298.13,1413.06 1302.15,1413.07 1306.18,1413.09 1310.2,1413.1 1314.23,1413.12 1318.25,1413.13 1322.28,1413.15 
  1326.3,1413.16 1330.33,1413.18 1334.35,1413.19 1338.38,1413.21 1342.4,1413.22 1346.43,1413.24 1350.45,1413.25 1354.48,1413.27 1358.51,1413.28 1362.53,1413.29 
  1366.56,1413.31 1370.58,1413.32 1374.61,1413.34 1378.63,1413.35 1382.66,1413.37 1386.68,1413.38 1390.71,1413.39 1394.73,1413.41 1398.76,1413.42 1402.78,1413.44 
  1406.81,1413.45 1410.83,1413.46 1414.86,1413.48 1418.88,1413.49 1422.91,1413.5 1426.94,1413.52 1430.96,1413.53 1434.99,1413.54 1439.01,1413.56 1443.04,1413.57 
  1447.06,1413.58 1451.09,1413.6 1455.11,1413.61 1459.14,1413.62 1463.16,1413.64 1467.19,1413.65 1471.21,1413.66 1475.24,1413.67 1479.26,1413.69 1483.29,1413.7 
  1487.32,1413.71 1491.34,1413.72 1495.37,1413.74 1499.39,1413.75 1503.42,1413.76 1507.44,1413.78 1511.47,1413.79 1515.49,1413.8 1519.52,1413.81 1523.54,1413.83 
  1527.57,1413.84 1531.59,1413.85 1535.62,1413.86 1539.64,1413.87 1543.67,1413.89 1547.69,1413.9 1551.72,1413.91 1555.75,1413.92 1559.77,1413.94 1563.8,1413.95 
  1567.82,1413.96 1571.85,1413.97 1575.87,1413.98 1579.9,1414 1583.92,1414.01 1587.95,1414.02 1591.97,1414.03 1596,1414.04 1600.02,1414.05 1604.05,1414.07 
  1608.07,1414.08 1612.1,1414.09 1616.12,1414.1 1620.15,1414.11 1624.18,1414.12 1628.2,1414.14 1632.23,1414.15 1636.25,1414.16 1640.28,1414.17 1644.3,1414.18 
  1648.33,1414.19 1652.35,1414.21 1656.38,1414.22 1660.4,1414.23 1664.43,1414.24 1668.45,1414.25 1672.48,1414.26 1676.5,1414.27 1680.53,1414.28 1684.56,1414.3 
  1688.58,1414.31 1692.61,1414.32 1696.63,1414.33 1700.66,1414.34 1704.68,1414.35 1708.71,1414.36 1712.73,1414.37 1716.76,1414.38 1720.78,1414.4 1724.81,1414.41 
  1728.83,1414.42 1732.86,1414.43 1736.88,1414.44 1740.91,1414.45 1744.93,1414.46 1748.96,1414.47 1752.99,1414.48 1757.01,1414.49 1761.04,1414.5 1765.06,1414.52 
  1769.09,1414.53 1773.11,1414.54 1777.14,1414.55 1781.16,1414.56 1785.19,1414.57 1789.21,1414.58 1793.24,1414.59 1797.26,1414.6 1801.29,1414.61 1805.31,1414.62 
  1809.34,1414.63 1813.36,1414.64 1817.39,1414.65 1821.42,1414.66 1825.44,1414.68 1829.47,1414.69 1833.49,1414.7 1837.52,1414.71 1841.54,1414.72 1845.57,1414.73 
  1849.59,1414.74 1853.62,1414.75 1857.64,1414.76 1861.67,1414.77 1865.69,1414.78 1869.72,1414.79 1873.74,1414.8 1877.77,1414.81 1881.8,1414.82 1885.82,1414.83 
  1889.85,1414.84 1893.87,1414.85 1897.9,1414.86 1901.92,1414.87 1905.95,1414.88 1909.97,1414.89 1914,1414.9 1918.02,1414.91 1922.05,1414.92 1926.07,1414.93 
  1930.1,1414.94 1934.12,1414.95 1938.15,1414.96 1942.17,1414.97 1946.2,1414.98 1950.23,1414.99 1954.25,1415 1958.28,1415.01 1962.3,1415.02 1966.33,1415.03 
  1970.35,1415.04 1974.38,1415.05 1978.4,1415.06 1982.43,1415.07 1986.45,1415.08 1990.48,1415.09 1994.5,1415.1 1998.53,1415.11 2002.55,1415.12 2006.58,1415.13 
  2010.6,1415.14 2014.63,1415.15 2018.66,1415.16 2022.68,1415.17 2026.71,1415.18 2030.73,1415.19 2034.76,1415.2 2038.78,1415.21 2042.81,1415.22 2046.83,1415.23 
  2050.86,1415.24 2054.88,1415.25 2058.91,1415.26 2062.93,1415.27 2066.96,1415.28 2070.98,1415.29 2075.01,1415.3 2079.04,1415.31 2083.06,1415.32 2087.09,1415.33 
  2091.11,1415.34 2095.14,1415.35 2099.16,1415.35 2103.19,1415.36 2107.21,1415.37 2111.24,1415.38 2115.26,1415.39 2119.29,1415.4 2123.31,1415.41 2127.34,1415.42 
  2131.36,1415.43 2135.39,1415.44 2139.41,1415.45 2143.44,1415.46 2147.47,1415.47 2151.49,1415.48 2155.52,1415.49 2159.54,1415.5 2163.57,1415.51 2167.59,1415.52 
  2171.62,1415.52 2175.64,1415.53 2179.67,1415.54 2183.69,1415.55 2187.72,1415.56 2191.74,1415.57 2195.77,1415.58 2199.79,1415.59 2203.82,1415.6 2207.84,1415.61 
  2211.87,1415.62 2215.9,1415.63 2219.92,1415.64 2223.95,1415.64 2227.97,1415.65 2232,1415.66 2236.02,1415.67 2240.05,1415.68 2244.07,1415.69 2248.1,1415.7 
  2252.12,1415.71 2256.15,1415.72 2260.17,1415.73 2264.2,1415.74 2268.22,1415.75 2272.25,1415.75 2276.28,1415.76 2280.3,1415.77 2284.33,1415.78 2288.35,1415.79 
  2292.38,1415.8 
  "/>
<polyline clip-path="url(#clip122)" style="stroke:#000000; stroke-linecap:butt; stroke-linejoin:round; stroke-width:16; stroke-opacity:1; fill:none" points="
  279.723,1445.72 299.379,1445.72 481.119,1445.72 590.338,1445.72 682.681,1445.72 782.991,1445.72 875.468,1445.72 974.614,1445.72 1089.48,1445.72 1191.57,1445.72 
  1281.08,1445.72 1378.68,1445.72 1476.86,1445.72 1585.41,1445.72 1688.69,1445.72 1796.08,1445.72 1886.47,1445.72 1996.84,1445.72 2100.59,1445.72 2266.8,1445.72 
  2292.38,1445.72 
  "/>
<path clip-path="url(#clip120)" d="
M1965.95 328.498 L2281.64 328.498 L2281.64 95.2176 L1965.95 95.2176  Z
  " fill="#ffffff" fill-rule="evenodd" fill-opacity="1"/>
<polyline clip-path="url(#clip120)" style="stroke:#000000; stroke-linecap:butt; stroke-linejoin:round; stroke-width:4; stroke-opacity:1; fill:none" points="
  1965.95,328.498 2281.64,328.498 2281.64,95.2176 1965.95,95.2176 1965.95,328.498 
  "/>
<polyline clip-path="url(#clip120)" style="stroke:#009af9; stroke-linecap:butt; stroke-linejoin:round; stroke-width:6; stroke-opacity:1; fill:none" points="
  1989.66,172.978 2131.88,172.978 
  "/>
<path clip-path="url(#clip120)" d="M2176.35 202.509 Q2173.64 209.453 2171.07 211.571 Q2168.5 213.689 2164.2 213.689 L2159.09 213.689 L2159.09 208.342 L2162.84 208.342 Q2165.48 208.342 2166.94 207.092 Q2168.4 205.842 2170.17 201.189 L2171.32 198.273 L2155.59 160.009 L2162.36 160.009 L2174.51 190.425 L2186.66 160.009 L2193.43 160.009 L2176.35 202.509 Z" fill="#000000" fill-rule="evenodd" fill-opacity="1" /><path clip-path="url(#clip120)" d="M2204.37 192.995 L2215.83 192.995 L2215.83 153.446 L2203.37 155.946 L2203.37 149.558 L2215.76 147.058 L2222.77 147.058 L2222.77 192.995 L2234.23 192.995 L2234.23 198.898 L2204.37 198.898 L2204.37 192.995 Z" fill="#000000" fill-rule="evenodd" fill-opacity="1" /><polyline clip-path="url(#clip120)" style="stroke:#000000; stroke-linecap:butt; stroke-linejoin:round; stroke-width:6; stroke-opacity:1; fill:none" points="
  1989.66,250.738 2131.88,250.738 
  "/>
<path clip-path="url(#clip120)" d="M2176.35 280.269 Q2173.64 287.213 2171.07 289.331 Q2168.5 291.449 2164.2 291.449 L2159.09 291.449 L2159.09 286.102 L2162.84 286.102 Q2165.48 286.102 2166.94 284.852 Q2168.4 283.602 2170.17 278.949 L2171.32 276.033 L2155.59 237.769 L2162.36 237.769 L2174.51 268.185 L2186.66 237.769 L2193.43 237.769 L2176.35 280.269 Z" fill="#000000" fill-rule="evenodd" fill-opacity="1" /><path clip-path="url(#clip120)" d="M2209.2 270.755 L2233.68 270.755 L2233.68 276.658 L2200.76 276.658 L2200.76 270.755 Q2204.75 266.623 2211.63 259.678 Q2218.54 252.699 2220.31 250.685 Q2223.68 246.901 2225 244.297 Q2226.35 241.658 2226.35 239.123 Q2226.35 234.991 2223.43 232.387 Q2220.55 229.783 2215.9 229.783 Q2212.6 229.783 2208.92 230.929 Q2205.27 232.074 2201.11 234.401 L2201.11 227.318 Q2205.34 225.616 2209.02 224.748 Q2212.71 223.88 2215.76 223.88 Q2223.82 223.88 2228.61 227.908 Q2233.4 231.936 2233.4 238.672 Q2233.4 241.866 2232.18 244.748 Q2231 247.595 2227.84 251.484 Q2226.98 252.491 2222.32 257.317 Q2217.67 262.109 2209.2 270.755 Z" fill="#000000" fill-rule="evenodd" fill-opacity="1" /></svg>
