<?xml version="1.0" encoding="utf-8"?>
<svg xmlns="http://www.w3.org/2000/svg" xmlns:xlink="http://www.w3.org/1999/xlink" width="600" height="400" viewBox="0 0 2400 1600">
<defs>
  <clipPath id="clip020">
    <rect x="0" y="0" width="2400" height="1600"/>
  </clipPath>
</defs>
<path clip-path="url(#clip020)" d="
M0 1600 L2400 1600 L2400 0 L0 0  Z
  " fill="#ffffff" fill-rule="evenodd" fill-opacity="1"/>
<defs>
  <clipPath id="clip021">
    <rect x="480" y="0" width="1681" height="1600"/>
  </clipPath>
</defs>
<path clip-path="url(#clip020)" d="
M194.837 1486.45 L2352.76 1486.45 L2352.76 47.2441 L194.837 47.2441  Z
  " fill="#ffffff" fill-rule="evenodd" fill-opacity="1"/>
<defs>
  <clipPath id="clip022">
    <rect x="194" y="47" width="2159" height="1440"/>
  </clipPath>
</defs>
<polyline clip-path="url(#clip022)" style="stroke:#000000; stroke-linecap:round; stroke-linejoin:round; stroke-width:2; stroke-opacity:0.1; fill:none" points="
  251.839,1486.45 251.839,47.2441 
  "/>
<polyline clip-path="url(#clip022)" style="stroke:#000000; stroke-linecap:round; stroke-linejoin:round; stroke-width:2; stroke-opacity:0.1; fill:none" points="
  658.993,1486.45 658.993,47.2441 
  "/>
<polyline clip-path="url(#clip022)" style="stroke:#000000; stroke-linecap:round; stroke-linejoin:round; stroke-width:2; stroke-opacity:0.1; fill:none" points="
  1066.15,1486.45 1066.15,47.2441 
  "/>
<polyline clip-path="url(#clip022)" style="stroke:#000000; stroke-linecap:round; stroke-linejoin:round; stroke-width:2; stroke-opacity:0.1; fill:none" points="
  1473.3,1486.45 1473.3,47.2441 
  "/>
<polyline clip-path="url(#clip022)" style="stroke:#000000; stroke-linecap:round; stroke-linejoin:round; stroke-width:2; stroke-opacity:0.1; fill:none" points="
  1880.46,1486.45 1880.46,47.2441 
  "/>
<polyline clip-path="url(#clip022)" style="stroke:#000000; stroke-linecap:round; stroke-linejoin:round; stroke-width:2; stroke-opacity:0.1; fill:none" points="
  2287.61,1486.45 2287.61,47.2441 
  "/>
<polyline clip-path="url(#clip020)" style="stroke:#000000; stroke-linecap:round; stroke-linejoin:round; stroke-width:4; stroke-opacity:1; fill:none" points="
  194.837,1486.45 2352.76,1486.45 
  "/>
<polyline clip-path="url(#clip020)" style="stroke:#000000; stroke-linecap:round; stroke-linejoin:round; stroke-width:4; stroke-opacity:1; fill:none" points="
  251.839,1486.45 251.839,1467.55 
  "/>
<polyline clip-path="url(#clip020)" style="stroke:#000000; stroke-linecap:round; stroke-linejoin:round; stroke-width:4; stroke-opacity:1; fill:none" points="
  658.993,1486.45 658.993,1467.55 
  "/>
<polyline clip-path="url(#clip020)" style="stroke:#000000; stroke-linecap:round; stroke-linejoin:round; stroke-width:4; stroke-opacity:1; fill:none" points="
  1066.15,1486.45 1066.15,1467.55 
  "/>
<polyline clip-path="url(#clip020)" style="stroke:#000000; stroke-linecap:round; stroke-linejoin:round; stroke-width:4; stroke-opacity:1; fill:none" points="
  1473.3,1486.45 1473.3,1467.55 
  "/>
<polyline clip-path="url(#clip020)" style="stroke:#000000; stroke-linecap:round; stroke-linejoin:round; stroke-width:4; stroke-opacity:1; fill:none" points="
  1880.46,1486.45 1880.46,1467.55 
  "/>
<polyline clip-path="url(#clip020)" style="stroke:#000000; stroke-linecap:round; stroke-linejoin:round; stroke-width:4; stroke-opacity:1; fill:none" points="
  2287.61,1486.45 2287.61,1467.55 
  "/>
<path clip-path="url(#clip020)" d="M251.839 1517.37 Q248.228 1517.37 246.399 1520.93 Q244.594 1524.47 244.594 1531.6 Q244.594 1538.71 246.399 1542.27 Q248.228 1545.82 251.839 1545.82 Q255.473 1545.82 257.279 1542.27 Q259.107 1538.71 259.107 1531.6 Q259.107 1524.47 257.279 1520.93 Q255.473 1517.37 251.839 1517.37 M251.839 1513.66 Q257.649 1513.66 260.705 1518.27 Q263.783 1522.85 263.783 1531.6 Q263.783 1540.33 260.705 1544.94 Q257.649 1549.52 251.839 1549.52 Q246.029 1549.52 242.95 1544.94 Q239.895 1540.33 239.895 1531.6 Q239.895 1522.85 242.95 1518.27 Q246.029 1513.66 251.839 1513.66 Z" fill="#000000" fill-rule="evenodd" fill-opacity="1" /><path clip-path="url(#clip020)" d="M618.6 1544.91 L626.239 1544.91 L626.239 1518.55 L617.929 1520.21 L617.929 1515.95 L626.193 1514.29 L630.869 1514.29 L630.869 1544.91 L638.507 1544.91 L638.507 1548.85 L618.6 1548.85 L618.6 1544.91 Z" fill="#000000" fill-rule="evenodd" fill-opacity="1" /><path clip-path="url(#clip020)" d="M657.952 1517.37 Q654.341 1517.37 652.512 1520.93 Q650.706 1524.47 650.706 1531.6 Q650.706 1538.71 652.512 1542.27 Q654.341 1545.82 657.952 1545.82 Q661.586 1545.82 663.392 1542.27 Q665.22 1538.71 665.22 1531.6 Q665.22 1524.47 663.392 1520.93 Q661.586 1517.37 657.952 1517.37 M657.952 1513.66 Q663.762 1513.66 666.817 1518.27 Q669.896 1522.85 669.896 1531.6 Q669.896 1540.33 666.817 1544.94 Q663.762 1549.52 657.952 1549.52 Q652.142 1549.52 649.063 1544.94 Q646.007 1540.33 646.007 1531.6 Q646.007 1522.85 649.063 1518.27 Q652.142 1513.66 657.952 1513.66 Z" fill="#000000" fill-rule="evenodd" fill-opacity="1" /><path clip-path="url(#clip020)" d="M688.114 1517.37 Q684.503 1517.37 682.674 1520.93 Q680.868 1524.47 680.868 1531.6 Q680.868 1538.71 682.674 1542.27 Q684.503 1545.82 688.114 1545.82 Q691.748 1545.82 693.553 1542.27 Q695.382 1538.71 695.382 1531.6 Q695.382 1524.47 693.553 1520.93 Q691.748 1517.37 688.114 1517.37 M688.114 1513.66 Q693.924 1513.66 696.979 1518.27 Q700.058 1522.85 700.058 1531.6 Q700.058 1540.33 696.979 1544.94 Q693.924 1549.52 688.114 1549.52 Q682.303 1549.52 679.225 1544.94 Q676.169 1540.33 676.169 1531.6 Q676.169 1522.85 679.225 1518.27 Q682.303 1513.66 688.114 1513.66 Z" fill="#000000" fill-rule="evenodd" fill-opacity="1" /><path clip-path="url(#clip020)" d="M1029.84 1544.91 L1046.16 1544.91 L1046.16 1548.85 L1024.22 1548.85 L1024.22 1544.91 Q1026.88 1542.16 1031.46 1537.53 Q1036.07 1532.88 1037.25 1531.53 Q1039.49 1529.01 1040.37 1527.27 Q1041.28 1525.51 1041.28 1523.82 Q1041.28 1521.07 1039.33 1519.33 Q1037.41 1517.6 1034.31 1517.6 Q1032.11 1517.6 1029.65 1518.36 Q1027.22 1519.13 1024.45 1520.68 L1024.45 1515.95 Q1027.27 1514.82 1029.72 1514.24 Q1032.18 1513.66 1034.22 1513.66 Q1039.59 1513.66 1042.78 1516.35 Q1045.97 1519.03 1045.97 1523.52 Q1045.97 1525.65 1045.16 1527.57 Q1044.38 1529.47 1042.27 1532.07 Q1041.69 1532.74 1038.59 1535.95 Q1035.49 1539.15 1029.84 1544.91 Z" fill="#000000" fill-rule="evenodd" fill-opacity="1" /><path clip-path="url(#clip020)" d="M1065.97 1517.37 Q1062.36 1517.37 1060.53 1520.93 Q1058.73 1524.47 1058.73 1531.6 Q1058.73 1538.71 1060.53 1542.27 Q1062.36 1545.82 1065.97 1545.82 Q1069.61 1545.82 1071.41 1542.27 Q1073.24 1538.71 1073.24 1531.6 Q1073.24 1524.47 1071.41 1520.93 Q1069.61 1517.37 1065.97 1517.37 M1065.97 1513.66 Q1071.78 1513.66 1074.84 1518.27 Q1077.92 1522.85 1077.92 1531.6 Q1077.92 1540.33 1074.84 1544.94 Q1071.78 1549.52 1065.97 1549.52 Q1060.16 1549.52 1057.09 1544.94 Q1054.03 1540.33 1054.03 1531.6 Q1054.03 1522.85 1057.09 1518.27 Q1060.16 1513.66 1065.97 1513.66 Z" fill="#000000" fill-rule="evenodd" fill-opacity="1" /><path clip-path="url(#clip020)" d="M1096.14 1517.37 Q1092.53 1517.37 1090.7 1520.93 Q1088.89 1524.47 1088.89 1531.6 Q1088.89 1538.71 1090.7 1542.27 Q1092.53 1545.82 1096.14 1545.82 Q1099.77 1545.82 1101.58 1542.27 Q1103.4 1538.71 1103.4 1531.6 Q1103.4 1524.47 1101.58 1520.93 Q1099.77 1517.37 1096.14 1517.37 M1096.14 1513.66 Q1101.95 1513.66 1105 1518.27 Q1108.08 1522.85 1108.08 1531.6 Q1108.08 1540.33 1105 1544.94 Q1101.95 1549.52 1096.14 1549.52 Q1090.33 1549.52 1087.25 1544.94 Q1084.19 1540.33 1084.19 1531.6 Q1084.19 1522.85 1087.25 1518.27 Q1090.33 1513.66 1096.14 1513.66 Z" fill="#000000" fill-rule="evenodd" fill-opacity="1" /><path clip-path="url(#clip020)" d="M1447.06 1530.21 Q1450.42 1530.93 1452.3 1533.2 Q1454.19 1535.47 1454.19 1538.8 Q1454.19 1543.92 1450.68 1546.72 Q1447.16 1549.52 1440.68 1549.52 Q1438.5 1549.52 1436.18 1549.08 Q1433.89 1548.66 1431.44 1547.81 L1431.44 1543.29 Q1433.38 1544.43 1435.7 1545.01 Q1438.01 1545.58 1440.54 1545.58 Q1444.93 1545.58 1447.23 1543.85 Q1449.54 1542.11 1449.54 1538.8 Q1449.54 1535.75 1447.39 1534.03 Q1445.26 1532.3 1441.44 1532.3 L1437.41 1532.3 L1437.41 1528.45 L1441.62 1528.45 Q1445.07 1528.45 1446.9 1527.09 Q1448.73 1525.7 1448.73 1523.11 Q1448.73 1520.45 1446.83 1519.03 Q1444.96 1517.6 1441.44 1517.6 Q1439.52 1517.6 1437.32 1518.01 Q1435.12 1518.43 1432.48 1519.31 L1432.48 1515.14 Q1435.14 1514.4 1437.46 1514.03 Q1439.8 1513.66 1441.86 1513.66 Q1447.18 1513.66 1450.28 1516.09 Q1453.38 1518.5 1453.38 1522.62 Q1453.38 1525.49 1451.74 1527.48 Q1450.1 1529.45 1447.06 1530.21 Z" fill="#000000" fill-rule="evenodd" fill-opacity="1" /><path clip-path="url(#clip020)" d="M1473.06 1517.37 Q1469.45 1517.37 1467.62 1520.93 Q1465.81 1524.47 1465.81 1531.6 Q1465.81 1538.71 1467.62 1542.27 Q1469.45 1545.82 1473.06 1545.82 Q1476.69 1545.82 1478.5 1542.27 Q1480.33 1538.71 1480.33 1531.6 Q1480.33 1524.47 1478.5 1520.93 Q1476.69 1517.37 1473.06 1517.37 M1473.06 1513.66 Q1478.87 1513.66 1481.92 1518.27 Q1485 1522.85 1485 1531.6 Q1485 1540.33 1481.92 1544.94 Q1478.87 1549.52 1473.06 1549.52 Q1467.25 1549.52 1464.17 1544.94 Q1461.11 1540.33 1461.11 1531.6 Q1461.11 1522.85 1464.17 1518.27 Q1467.25 1513.66 1473.06 1513.66 Z" fill="#000000" fill-rule="evenodd" fill-opacity="1" /><path clip-path="url(#clip020)" d="M1503.22 1517.37 Q1499.61 1517.37 1497.78 1520.93 Q1495.98 1524.47 1495.98 1531.6 Q1495.98 1538.71 1497.78 1542.27 Q1499.61 1545.82 1503.22 1545.82 Q1506.86 1545.82 1508.66 1542.27 Q1510.49 1538.71 1510.49 1531.6 Q1510.49 1524.47 1508.66 1520.93 Q1506.86 1517.37 1503.22 1517.37 M1503.22 1513.66 Q1509.03 1513.66 1512.09 1518.27 Q1515.17 1522.85 1515.17 1531.6 Q1515.17 1540.33 1512.09 1544.94 Q1509.03 1549.52 1503.22 1549.52 Q1497.41 1549.52 1494.33 1544.94 Q1491.28 1540.33 1491.28 1531.6 Q1491.28 1522.85 1494.33 1518.27 Q1497.41 1513.66 1503.22 1513.66 Z" fill="#000000" fill-rule="evenodd" fill-opacity="1" /><path clip-path="url(#clip020)" d="M1853.55 1518.36 L1841.74 1536.81 L1853.55 1536.81 L1853.55 1518.36 M1852.32 1514.29 L1858.2 1514.29 L1858.2 1536.81 L1863.13 1536.81 L1863.13 1540.7 L1858.2 1540.7 L1858.2 1548.85 L1853.55 1548.85 L1853.55 1540.7 L1837.95 1540.7 L1837.95 1536.19 L1852.32 1514.29 Z" fill="#000000" fill-rule="evenodd" fill-opacity="1" /><path clip-path="url(#clip020)" d="M1880.86 1517.37 Q1877.25 1517.37 1875.42 1520.93 Q1873.62 1524.47 1873.62 1531.6 Q1873.62 1538.71 1875.42 1542.27 Q1877.25 1545.82 1880.86 1545.82 Q1884.5 1545.82 1886.3 1542.27 Q1888.13 1538.71 1888.13 1531.6 Q1888.13 1524.47 1886.3 1520.93 Q1884.5 1517.37 1880.86 1517.37 M1880.86 1513.66 Q1886.67 1513.66 1889.73 1518.27 Q1892.81 1522.85 1892.81 1531.6 Q1892.81 1540.33 1889.73 1544.94 Q1886.67 1549.52 1880.86 1549.52 Q1875.05 1549.52 1871.97 1544.94 Q1868.92 1540.33 1868.92 1531.6 Q1868.92 1522.85 1871.97 1518.27 Q1875.05 1513.66 1880.86 1513.66 Z" fill="#000000" fill-rule="evenodd" fill-opacity="1" /><path clip-path="url(#clip020)" d="M1911.02 1517.37 Q1907.41 1517.37 1905.58 1520.93 Q1903.78 1524.47 1903.78 1531.6 Q1903.78 1538.71 1905.58 1542.27 Q1907.41 1545.82 1911.02 1545.82 Q1914.66 1545.82 1916.46 1542.27 Q1918.29 1538.71 1918.29 1531.6 Q1918.29 1524.47 1916.46 1520.93 Q1914.66 1517.37 1911.02 1517.37 M1911.02 1513.66 Q1916.83 1513.66 1919.89 1518.27 Q1922.97 1522.85 1922.97 1531.6 Q1922.97 1540.33 1919.89 1544.94 Q1916.83 1549.52 1911.02 1549.52 Q1905.21 1549.52 1902.13 1544.94 Q1899.08 1540.33 1899.08 1531.6 Q1899.08 1522.85 1902.13 1518.27 Q1905.21 1513.66 1911.02 1513.66 Z" fill="#000000" fill-rule="evenodd" fill-opacity="1" /><path clip-path="url(#clip020)" d="M2247.23 1514.29 L2265.59 1514.29 L2265.59 1518.22 L2251.51 1518.22 L2251.51 1526.7 Q2252.53 1526.35 2253.55 1526.19 Q2254.57 1526 2255.59 1526 Q2261.37 1526 2264.75 1529.17 Q2268.13 1532.34 2268.13 1537.76 Q2268.13 1543.34 2264.66 1546.44 Q2261.19 1549.52 2254.87 1549.52 Q2252.69 1549.52 2250.42 1549.15 Q2248.18 1548.78 2245.77 1548.04 L2245.77 1543.34 Q2247.85 1544.47 2250.08 1545.03 Q2252.3 1545.58 2254.78 1545.58 Q2258.78 1545.58 2261.12 1543.48 Q2263.46 1541.37 2263.46 1537.76 Q2263.46 1534.15 2261.12 1532.04 Q2258.78 1529.94 2254.78 1529.94 Q2252.9 1529.94 2251.03 1530.35 Q2249.17 1530.77 2247.23 1531.65 L2247.23 1514.29 Z" fill="#000000" fill-rule="evenodd" fill-opacity="1" /><path clip-path="url(#clip020)" d="M2287.34 1517.37 Q2283.73 1517.37 2281.91 1520.93 Q2280.1 1524.47 2280.1 1531.6 Q2280.1 1538.71 2281.91 1542.27 Q2283.73 1545.82 2287.34 1545.82 Q2290.98 1545.82 2292.78 1542.27 Q2294.61 1538.71 2294.61 1531.6 Q2294.61 1524.47 2292.78 1520.93 Q2290.98 1517.37 2287.34 1517.37 M2287.34 1513.66 Q2293.16 1513.66 2296.21 1518.27 Q2299.29 1522.85 2299.29 1531.6 Q2299.29 1540.33 2296.21 1544.94 Q2293.16 1549.52 2287.34 1549.52 Q2281.53 1549.52 2278.46 1544.94 Q2275.4 1540.33 2275.4 1531.6 Q2275.4 1522.85 2278.46 1518.27 Q2281.53 1513.66 2287.34 1513.66 Z" fill="#000000" fill-rule="evenodd" fill-opacity="1" /><path clip-path="url(#clip020)" d="M2317.51 1517.37 Q2313.9 1517.37 2312.07 1520.93 Q2310.26 1524.47 2310.26 1531.6 Q2310.26 1538.71 2312.07 1542.27 Q2313.9 1545.82 2317.51 1545.82 Q2321.14 1545.82 2322.95 1542.27 Q2324.78 1538.71 2324.78 1531.6 Q2324.78 1524.47 2322.95 1520.93 Q2321.14 1517.37 2317.51 1517.37 M2317.51 1513.66 Q2323.32 1513.66 2326.37 1518.27 Q2329.45 1522.85 2329.45 1531.6 Q2329.45 1540.33 2326.37 1544.94 Q2323.32 1549.52 2317.51 1549.52 Q2311.7 1549.52 2308.62 1544.94 Q2305.56 1540.33 2305.56 1531.6 Q2305.56 1522.85 2308.62 1518.27 Q2311.7 1513.66 2317.51 1513.66 Z" fill="#000000" fill-rule="evenodd" fill-opacity="1" /><polyline clip-path="url(#clip022)" style="stroke:#000000; stroke-linecap:round; stroke-linejoin:round; stroke-width:2; stroke-opacity:0.1; fill:none" points="
  194.837,1308.33 2352.76,1308.33 
  "/>
<polyline clip-path="url(#clip022)" style="stroke:#000000; stroke-linecap:round; stroke-linejoin:round; stroke-width:2; stroke-opacity:0.1; fill:none" points="
  194.837,810.748 2352.76,810.748 
  "/>
<polyline clip-path="url(#clip022)" style="stroke:#000000; stroke-linecap:round; stroke-linejoin:round; stroke-width:2; stroke-opacity:0.1; fill:none" points="
  194.837,313.167 2352.76,313.167 
  "/>
<polyline clip-path="url(#clip020)" style="stroke:#000000; stroke-linecap:round; stroke-linejoin:round; stroke-width:4; stroke-opacity:1; fill:none" points="
  194.837,1486.45 194.837,47.2441 
  "/>
<polyline clip-path="url(#clip020)" style="stroke:#000000; stroke-linecap:round; stroke-linejoin:round; stroke-width:4; stroke-opacity:1; fill:none" points="
  194.837,1308.33 213.735,1308.33 
  "/>
<polyline clip-path="url(#clip020)" style="stroke:#000000; stroke-linecap:round; stroke-linejoin:round; stroke-width:4; stroke-opacity:1; fill:none" points="
  194.837,810.748 213.735,810.748 
  "/>
<polyline clip-path="url(#clip020)" style="stroke:#000000; stroke-linecap:round; stroke-linejoin:round; stroke-width:4; stroke-opacity:1; fill:none" points="
  194.837,313.167 213.735,313.167 
  "/>
<path clip-path="url(#clip020)" d="M53.8827 1328.12 L61.5216 1328.12 L61.5216 1301.76 L53.2114 1303.42 L53.2114 1299.16 L61.4753 1297.5 L66.1512 1297.5 L66.1512 1328.12 L73.79 1328.12 L73.79 1332.06 L53.8827 1332.06 L53.8827 1328.12 Z" fill="#000000" fill-rule="evenodd" fill-opacity="1" /><path clip-path="url(#clip020)" d="M93.2344 1300.58 Q89.6233 1300.58 87.7946 1304.14 Q85.989 1307.68 85.989 1314.81 Q85.989 1321.92 87.7946 1325.48 Q89.6233 1329.02 93.2344 1329.02 Q96.8686 1329.02 98.6742 1325.48 Q100.503 1321.92 100.503 1314.81 Q100.503 1307.68 98.6742 1304.14 Q96.8686 1300.58 93.2344 1300.58 M93.2344 1296.87 Q99.0445 1296.87 102.1 1301.48 Q105.179 1306.06 105.179 1314.81 Q105.179 1323.54 102.1 1328.14 Q99.0445 1332.73 93.2344 1332.73 Q87.4242 1332.73 84.3455 1328.14 Q81.29 1323.54 81.29 1314.81 Q81.29 1306.06 84.3455 1301.48 Q87.4242 1296.87 93.2344 1296.87 Z" fill="#000000" fill-rule="evenodd" fill-opacity="1" /><path clip-path="url(#clip020)" d="M105.724 1301.45 L111.931 1301.45 L111.931 1280.03 L105.179 1281.38 L105.179 1277.92 L111.893 1276.57 L115.692 1276.57 L115.692 1301.45 L121.899 1301.45 L121.899 1304.65 L105.724 1304.65 L105.724 1301.45 Z" fill="#000000" fill-rule="evenodd" fill-opacity="1" /><path clip-path="url(#clip020)" d="M129.572 1299.87 L133.541 1299.87 L133.541 1304.65 L129.572 1304.65 L129.572 1299.87 Z" fill="#000000" fill-rule="evenodd" fill-opacity="1" /><path clip-path="url(#clip020)" d="M141.854 1276.57 L156.768 1276.57 L156.768 1279.76 L145.333 1279.76 L145.333 1286.65 Q146.161 1286.36 146.988 1286.23 Q147.816 1286.08 148.644 1286.08 Q153.345 1286.08 156.091 1288.66 Q158.837 1291.24 158.837 1295.64 Q158.837 1300.17 156.016 1302.69 Q153.195 1305.19 148.06 1305.19 Q146.293 1305.19 144.449 1304.89 Q142.625 1304.59 140.669 1303.99 L140.669 1300.17 Q142.362 1301.09 144.167 1301.54 Q145.973 1301.99 147.985 1301.99 Q151.239 1301.99 153.139 1300.28 Q155.038 1298.57 155.038 1295.64 Q155.038 1292.7 153.139 1290.99 Q151.239 1289.28 147.985 1289.28 Q146.462 1289.28 144.938 1289.62 Q143.434 1289.96 141.854 1290.67 L141.854 1276.57 Z" fill="#000000" fill-rule="evenodd" fill-opacity="1" /><path clip-path="url(#clip020)" d="M51.6634 830.54 L59.3023 830.54 L59.3023 804.175 L50.9921 805.841 L50.9921 801.582 L59.256 799.916 L63.9319 799.916 L63.9319 830.54 L71.5707 830.54 L71.5707 834.476 L51.6634 834.476 L51.6634 830.54 Z" fill="#000000" fill-rule="evenodd" fill-opacity="1" /><path clip-path="url(#clip020)" d="M91.0151 802.994 Q87.404 802.994 85.5753 806.559 Q83.7697 810.101 83.7697 817.23 Q83.7697 824.337 85.5753 827.902 Q87.404 831.443 91.0151 831.443 Q94.6493 831.443 96.4548 827.902 Q98.2835 824.337 98.2835 817.23 Q98.2835 810.101 96.4548 806.559 Q94.6493 802.994 91.0151 802.994 M91.0151 799.291 Q96.8252 799.291 99.8808 803.897 Q102.959 808.48 102.959 817.23 Q102.959 825.957 99.8808 830.564 Q96.8252 835.147 91.0151 835.147 Q85.2049 835.147 82.1262 830.564 Q79.0707 825.957 79.0707 817.23 Q79.0707 808.48 82.1262 803.897 Q85.2049 799.291 91.0151 799.291 Z" fill="#000000" fill-rule="evenodd" fill-opacity="1" /><path clip-path="url(#clip020)" d="M107.53 803.868 L120.789 803.868 L120.789 807.065 L102.959 807.065 L102.959 803.868 Q105.122 801.63 108.846 797.868 Q112.589 794.088 113.548 792.997 Q115.373 790.947 116.087 789.536 Q116.821 788.107 116.821 786.734 Q116.821 784.496 115.241 783.085 Q113.68 781.675 111.16 781.675 Q109.373 781.675 107.379 782.295 Q105.404 782.916 103.148 784.176 L103.148 780.339 Q105.442 779.418 107.436 778.948 Q109.429 778.477 111.084 778.477 Q115.448 778.477 118.043 780.659 Q120.639 782.841 120.639 786.489 Q120.639 788.22 119.98 789.781 Q119.341 791.323 117.63 793.43 Q117.159 793.975 114.639 796.589 Q112.119 799.185 107.53 803.868 Z" fill="#000000" fill-rule="evenodd" fill-opacity="1" /><path clip-path="url(#clip020)" d="M128.764 802.288 L132.732 802.288 L132.732 807.065 L128.764 807.065 L128.764 802.288 Z" fill="#000000" fill-rule="evenodd" fill-opacity="1" /><path clip-path="url(#clip020)" d="M149.133 781.487 Q146.199 781.487 144.713 784.383 Q143.246 787.261 143.246 793.053 Q143.246 798.827 144.713 801.724 Q146.199 804.601 149.133 804.601 Q152.085 804.601 153.552 801.724 Q155.038 798.827 155.038 793.053 Q155.038 787.261 153.552 784.383 Q152.085 781.487 149.133 781.487 M149.133 778.477 Q153.853 778.477 156.336 782.22 Q158.837 785.944 158.837 793.053 Q158.837 800.144 156.336 803.887 Q153.853 807.611 149.133 807.611 Q144.412 807.611 141.91 803.887 Q139.428 800.144 139.428 793.053 Q139.428 785.944 141.91 782.22 Q144.412 778.477 149.133 778.477 Z" fill="#000000" fill-rule="evenodd" fill-opacity="1" /><path clip-path="url(#clip020)" d="M52.4722 332.96 L60.111 332.96 L60.111 306.594 L51.8009 308.261 L51.8009 304.001 L60.0647 302.335 L64.7406 302.335 L64.7406 332.96 L72.3795 332.96 L72.3795 336.895 L52.4722 336.895 L52.4722 332.96 Z" fill="#000000" fill-rule="evenodd" fill-opacity="1" /><path clip-path="url(#clip020)" d="M91.8238 305.413 Q88.2127 305.413 86.384 308.978 Q84.5785 312.52 84.5785 319.649 Q84.5785 326.756 86.384 330.321 Q88.2127 333.862 91.8238 333.862 Q95.458 333.862 97.2636 330.321 Q99.0923 326.756 99.0923 319.649 Q99.0923 312.52 97.2636 308.978 Q95.458 305.413 91.8238 305.413 M91.8238 301.71 Q97.6339 301.71 100.689 306.316 Q103.768 310.899 103.768 319.649 Q103.768 328.376 100.689 332.983 Q97.6339 337.566 91.8238 337.566 Q86.0136 337.566 82.935 332.983 Q79.8794 328.376 79.8794 319.649 Q79.8794 310.899 82.935 306.316 Q86.0136 301.71 91.8238 301.71 Z" fill="#000000" fill-rule="evenodd" fill-opacity="1" /><path clip-path="url(#clip020)" d="M108.338 306.287 L121.598 306.287 L121.598 309.484 L103.768 309.484 L103.768 306.287 Q105.931 304.049 109.655 300.287 Q113.398 296.507 114.357 295.416 Q116.181 293.366 116.896 291.955 Q117.63 290.526 117.63 289.153 Q117.63 286.915 116.05 285.504 Q114.489 284.094 111.968 284.094 Q110.182 284.094 108.188 284.714 Q106.213 285.335 103.956 286.595 L103.956 282.758 Q106.251 281.837 108.244 281.367 Q110.238 280.896 111.893 280.896 Q116.257 280.896 118.852 283.078 Q121.447 285.26 121.447 288.909 Q121.447 290.639 120.789 292.2 Q120.15 293.742 118.438 295.849 Q117.968 296.394 115.448 299.008 Q112.928 301.604 108.338 306.287 Z" fill="#000000" fill-rule="evenodd" fill-opacity="1" /><path clip-path="url(#clip020)" d="M129.572 304.707 L133.541 304.707 L133.541 309.484 L129.572 309.484 L129.572 304.707 Z" fill="#000000" fill-rule="evenodd" fill-opacity="1" /><path clip-path="url(#clip020)" d="M141.854 281.404 L156.768 281.404 L156.768 284.602 L145.333 284.602 L145.333 291.485 Q146.161 291.203 146.988 291.071 Q147.816 290.921 148.644 290.921 Q153.345 290.921 156.091 293.498 Q158.837 296.074 158.837 300.475 Q158.837 305.008 156.016 307.528 Q153.195 310.03 148.06 310.03 Q146.293 310.03 144.449 309.729 Q142.625 309.428 140.669 308.826 L140.669 305.008 Q142.362 305.93 144.167 306.381 Q145.973 306.832 147.985 306.832 Q151.239 306.832 153.139 305.121 Q155.038 303.409 155.038 300.475 Q155.038 297.541 153.139 295.83 Q151.239 294.118 147.985 294.118 Q146.462 294.118 144.938 294.457 Q143.434 294.795 141.854 295.51 L141.854 281.404 Z" fill="#000000" fill-rule="evenodd" fill-opacity="1" /><polyline clip-path="url(#clip022)" style="stroke:#009af9; stroke-linecap:round; stroke-linejoin:round; stroke-width:16; stroke-opacity:1; fill:none" points="
  255.91,87.9763 259.982,400.67 264.054,471.548 268.125,531.519 272.197,584.915 276.268,634.043 280.34,680.265 284.411,724.347 288.483,766.7 292.554,807.525 
  296.626,846.905 300.697,884.858 304.769,921.368 308.841,956.4 312.912,989.917 316.984,1021.88 321.055,1052.26 325.127,1081.04 329.198,1108.19 333.27,1133.73 
  337.341,1157.66 341.413,1180 345.484,1200.79 349.556,1220.07 353.628,1237.88 357.699,1254.3 361.771,1269.38 365.842,1283.2 369.914,1295.83 373.985,1307.34 
  378.057,1317.81 382.128,1327.32 386.2,1335.93 390.271,1343.72 394.343,1350.76 398.415,1357.12 402.486,1362.85 406.558,1368 410.629,1372.65 414.701,1376.83 
  418.772,1380.58 422.844,1383.96 426.915,1387 430.987,1389.74 435.058,1392.2 439.13,1394.41 443.202,1396.4 447.273,1398.2 451.345,1399.82 455.416,1401.29 
  459.488,1402.61 463.559,1403.81 467.631,1404.89 471.702,1405.88 475.774,1406.77 479.845,1407.59 483.917,1408.34 487.989,1409.02 492.06,1409.64 496.132,1410.22 
  500.203,1410.74 504.275,1411.23 508.346,1411.68 512.418,1412.1 516.489,1412.48 520.561,1412.84 524.632,1413.18 528.704,1413.5 532.776,1413.79 536.847,1414.07 
  540.919,1414.33 544.99,1414.58 549.062,1414.81 553.133,1415.04 557.205,1415.25 561.276,1415.45 565.348,1415.64 569.419,1415.82 573.491,1416 577.563,1416.17 
  581.634,1416.33 585.706,1416.48 589.777,1416.63 593.849,1416.78 597.92,1416.92 601.992,1417.05 606.063,1417.18 610.135,1417.31 614.206,1417.43 618.278,1417.55 
  622.349,1417.67 626.421,1417.78 630.493,1417.89 634.564,1417.99 638.636,1418.1 642.707,1418.2 646.779,1418.29 650.85,1418.39 654.922,1418.48 658.993,1418.57 
  663.065,1418.66 667.136,1418.75 671.208,1418.83 675.28,1418.91 679.351,1419 683.423,1419.07 687.494,1419.15 691.566,1419.23 695.637,1419.3 699.709,1419.37 
  703.78,1419.44 707.852,1419.51 711.923,1419.58 715.995,1419.64 720.067,1419.71 724.138,1419.77 728.21,1419.83 732.281,1419.89 736.353,1419.95 740.424,1420.01 
  744.496,1420.07 748.567,1420.12 752.639,1420.18 756.71,1420.23 760.782,1420.28 764.854,1420.34 768.925,1420.39 772.997,1420.44 777.068,1420.48 781.14,1420.53 
  785.211,1420.58 789.283,1420.62 793.354,1420.67 797.426,1420.71 801.497,1420.76 805.569,1420.8 809.641,1420.84 813.712,1420.88 817.784,1420.92 821.855,1420.96 
  825.927,1421 829.998,1421.04 834.07,1421.08 838.141,1421.11 842.213,1421.15 846.284,1421.18 850.356,1421.22 854.428,1421.25 858.499,1421.29 862.571,1421.32 
  866.642,1421.35 870.714,1421.39 874.785,1421.42 878.857,1421.45 882.928,1421.48 887,1421.51 891.071,1421.54 895.143,1421.57 899.215,1421.6 903.286,1421.63 
  907.358,1421.65 911.429,1421.68 915.501,1421.71 919.572,1421.73 923.644,1421.76 927.715,1421.79 931.787,1421.81 935.858,1421.84 939.93,1421.86 944.002,1421.89 
  948.073,1421.91 952.145,1421.93 956.216,1421.96 960.288,1421.98 964.359,1422 968.431,1422.03 972.502,1422.05 976.574,1422.07 980.645,1422.09 984.717,1422.11 
  988.788,1422.13 992.86,1422.16 996.932,1422.18 1001,1422.2 1005.07,1422.22 1009.15,1422.24 1013.22,1422.26 1017.29,1422.28 1021.36,1422.29 1025.43,1422.31 
  1029.5,1422.33 1033.58,1422.35 1037.65,1422.37 1041.72,1422.39 1045.79,1422.41 1049.86,1422.42 1053.93,1422.44 1058,1422.46 1062.08,1422.48 1066.15,1422.49 
  1070.22,1422.51 1074.29,1422.53 1078.36,1422.54 1082.43,1422.56 1086.51,1422.58 1090.58,1422.59 1094.65,1422.61 1098.72,1422.63 1102.79,1422.64 1106.86,1422.66 
  1110.93,1422.67 1115.01,1422.69 1119.08,1422.7 1123.15,1422.72 1127.22,1422.73 1131.29,1422.75 1135.36,1422.76 1139.44,1422.78 1143.51,1422.79 1147.58,1422.81 
  1151.65,1422.82 1155.72,1422.83 1159.79,1422.85 1163.86,1422.86 1167.94,1422.88 1172.01,1422.89 1176.08,1422.9 1180.15,1422.92 1184.22,1422.93 1188.29,1422.95 
  1192.37,1422.96 1196.44,1422.97 1200.51,1422.99 1204.58,1423 1208.65,1423.01 1212.72,1423.02 1216.79,1423.04 1220.87,1423.05 1224.94,1423.06 1229.01,1423.08 
  1233.08,1423.09 1237.15,1423.1 1241.22,1423.11 1245.3,1423.13 1249.37,1423.14 1253.44,1423.15 1257.51,1423.16 1261.58,1423.18 1265.65,1423.19 1269.73,1423.2 
  1273.8,1423.21 1277.87,1423.22 1281.94,1423.24 1286.01,1423.25 1290.08,1423.26 1294.15,1423.27 1298.23,1423.28 1302.3,1423.29 1306.37,1423.31 1310.44,1423.32 
  1314.51,1423.33 1318.58,1423.34 1322.66,1423.35 1326.73,1423.36 1330.8,1423.38 1334.87,1423.39 1338.94,1423.4 1343.01,1423.41 1347.08,1423.42 1351.16,1423.43 
  1355.23,1423.44 1359.3,1423.45 1363.37,1423.46 1367.44,1423.48 1371.51,1423.49 1375.59,1423.5 1379.66,1423.51 1383.73,1423.52 1387.8,1423.53 1391.87,1423.54 
  1395.94,1423.55 1400.01,1423.56 1404.09,1423.57 1408.16,1423.58 1412.23,1423.59 1416.3,1423.61 1420.37,1423.62 1424.44,1423.63 1428.52,1423.64 1432.59,1423.65 
  1436.66,1423.66 1440.73,1423.67 1444.8,1423.68 1448.87,1423.69 1452.94,1423.7 1457.02,1423.71 1461.09,1423.72 1465.16,1423.73 1469.23,1423.74 1473.3,1423.75 
  1477.37,1423.76 1481.45,1423.77 1485.52,1423.78 1489.59,1423.79 1493.66,1423.8 1497.73,1423.81 1501.8,1423.82 1505.87,1423.83 1509.95,1423.84 1514.02,1423.85 
  1518.09,1423.86 1522.16,1423.87 1526.23,1423.88 1530.3,1423.89 1534.38,1423.9 1538.45,1423.91 1542.52,1423.92 1546.59,1423.93 1550.66,1423.94 1554.73,1423.95 
  1558.8,1423.96 1562.88,1423.97 1566.95,1423.98 1571.02,1423.99 1575.09,1424 1579.16,1424.01 1583.23,1424.02 1587.31,1424.03 1591.38,1424.04 1595.45,1424.05 
  1599.52,1424.06 1603.59,1424.07 1607.66,1424.08 1611.73,1424.09 1615.81,1424.1 1619.88,1424.11 1623.95,1424.12 1628.02,1424.13 1632.09,1424.13 1636.16,1424.14 
  1640.24,1424.15 1644.31,1424.16 1648.38,1424.17 1652.45,1424.18 1656.52,1424.19 1660.59,1424.2 1664.66,1424.21 1668.74,1424.22 1672.81,1424.23 1676.88,1424.24 
  1680.95,1424.25 1685.02,1424.26 1689.09,1424.27 1693.17,1424.28 1697.24,1424.29 1701.31,1424.29 1705.38,1424.3 1709.45,1424.31 1713.52,1424.32 1717.59,1424.33 
  1721.67,1424.34 1725.74,1424.35 1729.81,1424.36 1733.88,1424.37 1737.95,1424.38 1742.02,1424.39 1746.1,1424.4 1750.17,1424.4 1754.24,1424.41 1758.31,1424.42 
  1762.38,1424.43 1766.45,1424.44 1770.53,1424.45 1774.6,1424.46 1778.67,1424.47 1782.74,1424.48 1786.81,1424.49 1790.88,1424.5 1794.95,1424.5 1799.03,1424.51 
  1803.1,1424.52 1807.17,1424.53 1811.24,1424.54 1815.31,1424.55 1819.38,1424.56 1823.46,1424.57 1827.53,1424.58 1831.6,1424.59 1835.67,1424.59 1839.74,1424.6 
  1843.81,1424.61 1847.88,1424.62 1851.96,1424.63 1856.03,1424.64 1860.1,1424.65 1864.17,1424.66 1868.24,1424.67 1872.31,1424.67 1876.39,1424.68 1880.46,1424.69 
  1884.53,1424.7 1888.6,1424.71 1892.67,1424.72 1896.74,1424.73 1900.81,1424.74 1904.89,1424.74 1908.96,1424.75 1913.03,1424.76 1917.1,1424.77 1921.17,1424.78 
  1925.24,1424.79 1929.32,1424.8 1933.39,1424.81 1937.46,1424.81 1941.53,1424.82 1945.6,1424.83 1949.67,1424.84 1953.74,1424.85 1957.82,1424.86 1961.89,1424.87 
  1965.96,1424.88 1970.03,1424.88 1974.1,1424.89 1978.17,1424.9 1982.25,1424.91 1986.32,1424.92 1990.39,1424.93 1994.46,1424.94 1998.53,1424.94 2002.6,1424.95 
  2006.67,1424.96 2010.75,1424.97 2014.82,1424.98 2018.89,1424.99 2022.96,1425 2027.03,1425 2031.1,1425.01 2035.18,1425.02 2039.25,1425.03 2043.32,1425.04 
  2047.39,1425.05 2051.46,1425.05 2055.53,1425.06 2059.6,1425.07 2063.68,1425.08 2067.75,1425.09 2071.82,1425.1 2075.89,1425.11 2079.96,1425.11 2084.03,1425.12 
  2088.11,1425.13 2092.18,1425.14 2096.25,1425.15 2100.32,1425.16 2104.39,1425.16 2108.46,1425.17 2112.53,1425.18 2116.61,1425.19 2120.68,1425.2 2124.75,1425.21 
  2128.82,1425.21 2132.89,1425.22 2136.96,1425.23 2141.04,1425.24 2145.11,1425.25 2149.18,1425.26 2153.25,1425.26 2157.32,1425.27 2161.39,1425.28 2165.46,1425.29 
  2169.54,1425.3 2173.61,1425.31 2177.68,1425.31 2181.75,1425.32 2185.82,1425.33 2189.89,1425.34 2193.97,1425.35 2198.04,1425.35 2202.11,1425.36 2206.18,1425.37 
  2210.25,1425.38 2214.32,1425.39 2218.39,1425.4 2222.47,1425.4 2226.54,1425.41 2230.61,1425.42 2234.68,1425.43 2238.75,1425.44 2242.82,1425.44 2246.9,1425.45 
  2250.97,1425.46 2255.04,1425.47 2259.11,1425.48 2263.18,1425.49 2267.25,1425.49 2271.33,1425.5 2275.4,1425.51 2279.47,1425.52 2283.54,1425.53 2287.61,1425.53 
  2291.68,1425.54 
  "/>
<polyline clip-path="url(#clip022)" style="stroke:#000000; stroke-linecap:round; stroke-linejoin:round; stroke-width:16; stroke-opacity:1; fill:none" points="
  255.91,1445.72 269.164,1445.72 391.717,1445.72 465.366,1445.72 527.635,1445.72 595.276,1445.72 657.636,1445.72 724.492,1445.72 801.952,1445.72 870.788,1445.72 
  931.152,1445.72 996.965,1445.72 1063.17,1445.72 1136.37,1445.72 1206.01,1445.72 1278.42,1445.72 1339.38,1445.72 1413.8,1445.72 1481.98,1445.72 1544.95,1445.72 
  1608.73,1445.72 1680.21,1445.72 1744.98,1445.72 1819.14,1445.72 1887.81,1445.72 1955.51,1445.72 2021.24,1445.72 2088.62,1445.72 2162.44,1445.72 2269.68,1445.72 
  2291.68,1445.72 
  "/>
<path clip-path="url(#clip020)" d="
M1962.41 328.498 L2280.83 328.498 L2280.83 95.2176 L1962.41 95.2176  Z
  " fill="#ffffff" fill-rule="evenodd" fill-opacity="1"/>
<polyline clip-path="url(#clip020)" style="stroke:#000000; stroke-linecap:round; stroke-linejoin:round; stroke-width:4; stroke-opacity:1; fill:none" points="
  1962.41,328.498 2280.83,328.498 2280.83,95.2176 1962.41,95.2176 1962.41,328.498 
  "/>
<polyline clip-path="url(#clip020)" style="stroke:#009af9; stroke-linecap:round; stroke-linejoin:round; stroke-width:6; stroke-opacity:1; fill:none" points="
  1986.39,172.978 2130.25,172.978 
  "/>
<path clip-path="url(#clip020)" d="M2174.99 202.509 Q2172.28 209.453 2169.71 211.571 Q2167.14 213.689 2162.84 213.689 L2157.73 213.689 L2157.73 208.342 L2161.48 208.342 Q2164.12 208.342 2165.58 207.092 Q2167.04 205.842 2168.81 201.189 L2169.96 198.273 L2154.23 160.009 L2161 160.009 L2173.15 190.425 L2185.3 160.009 L2192.07 160.009 L2174.99 202.509 Z" fill="#000000" fill-rule="evenodd" fill-opacity="1" /><path clip-path="url(#clip020)" d="M2203.01 192.995 L2214.47 192.995 L2214.47 153.446 L2202 155.946 L2202 149.558 L2214.4 147.058 L2221.41 147.058 L2221.41 192.995 L2232.87 192.995 L2232.87 198.898 L2203.01 198.898 L2203.01 192.995 Z" fill="#000000" fill-rule="evenodd" fill-opacity="1" /><polyline clip-path="url(#clip020)" style="stroke:#000000; stroke-linecap:round; stroke-linejoin:round; stroke-width:6; stroke-opacity:1; fill:none" points="
  1986.39,250.738 2130.25,250.738 
  "/>
<path clip-path="url(#clip020)" d="M2174.99 280.269 Q2172.28 287.213 2169.71 289.331 Q2167.14 291.449 2162.84 291.449 L2157.73 291.449 L2157.73 286.102 L2161.48 286.102 Q2164.12 286.102 2165.58 284.852 Q2167.04 283.602 2168.81 278.949 L2169.96 276.033 L2154.23 237.769 L2161 237.769 L2173.15 268.185 L2185.3 237.769 L2192.07 237.769 L2174.99 280.269 Z" fill="#000000" fill-rule="evenodd" fill-opacity="1" /><path clip-path="url(#clip020)" d="M2207.84 270.755 L2232.32 270.755 L2232.32 276.658 L2199.4 276.658 L2199.4 270.755 Q2203.39 266.623 2210.27 259.678 Q2217.18 252.699 2218.95 250.685 Q2222.32 246.901 2223.64 244.297 Q2224.99 241.658 2224.99 239.123 Q2224.99 234.991 2222.07 232.387 Q2219.19 229.783 2214.54 229.783 Q2211.24 229.783 2207.56 230.929 Q2203.91 232.074 2199.75 234.401 L2199.75 227.318 Q2203.98 225.616 2207.66 224.748 Q2211.34 223.88 2214.4 223.88 Q2222.45 223.88 2227.25 227.908 Q2232.04 231.936 2232.04 238.672 Q2232.04 241.866 2230.82 244.748 Q2229.64 247.595 2226.48 251.484 Q2225.61 252.491 2220.96 257.317 Q2216.31 262.109 2207.84 270.755 Z" fill="#000000" fill-rule="evenodd" fill-opacity="1" /></svg>
