<?xml version="1.0" encoding="utf-8"?>
<svg xmlns="http://www.w3.org/2000/svg" xmlns:xlink="http://www.w3.org/1999/xlink" width="600" height="400" viewBox="0 0 2400 1600">
<defs>
  <clipPath id="clip590">
    <rect x="0" y="0" width="2400" height="1600"/>
  </clipPath>
</defs>
<path clip-path="url(#clip590)" d="
M0 1600 L2400 1600 L2400 0 L0 0  Z
  " fill="#ffffff" fill-rule="evenodd" fill-opacity="1"/>
<defs>
  <clipPath id="clip591">
    <rect x="480" y="0" width="1681" height="1600"/>
  </clipPath>
</defs>
<path clip-path="url(#clip590)" d="
M147.478 1486.45 L2352.76 1486.45 L2352.76 47.2441 L147.478 47.2441  Z
  " fill="#ffffff" fill-rule="evenodd" fill-opacity="1"/>
<defs>
  <clipPath id="clip592">
    <rect x="147" y="47" width="2206" height="1440"/>
  </clipPath>
</defs>
<polyline clip-path="url(#clip592)" style="stroke:#000000; stroke-linecap:round; stroke-linejoin:round; stroke-width:2; stroke-opacity:0.1; fill:none" points="
  209.891,1486.45 209.891,47.2441 
  "/>
<polyline clip-path="url(#clip592)" style="stroke:#000000; stroke-linecap:round; stroke-linejoin:round; stroke-width:2; stroke-opacity:0.1; fill:none" points="
  730.004,1486.45 730.004,47.2441 
  "/>
<polyline clip-path="url(#clip592)" style="stroke:#000000; stroke-linecap:round; stroke-linejoin:round; stroke-width:2; stroke-opacity:0.1; fill:none" points="
  1250.12,1486.45 1250.12,47.2441 
  "/>
<polyline clip-path="url(#clip592)" style="stroke:#000000; stroke-linecap:round; stroke-linejoin:round; stroke-width:2; stroke-opacity:0.1; fill:none" points="
  1770.23,1486.45 1770.23,47.2441 
  "/>
<polyline clip-path="url(#clip592)" style="stroke:#000000; stroke-linecap:round; stroke-linejoin:round; stroke-width:2; stroke-opacity:0.1; fill:none" points="
  2290.34,1486.45 2290.34,47.2441 
  "/>
<polyline clip-path="url(#clip590)" style="stroke:#000000; stroke-linecap:round; stroke-linejoin:round; stroke-width:4; stroke-opacity:1; fill:none" points="
  147.478,1486.45 2352.76,1486.45 
  "/>
<polyline clip-path="url(#clip590)" style="stroke:#000000; stroke-linecap:round; stroke-linejoin:round; stroke-width:4; stroke-opacity:1; fill:none" points="
  209.891,1486.45 209.891,1467.55 
  "/>
<polyline clip-path="url(#clip590)" style="stroke:#000000; stroke-linecap:round; stroke-linejoin:round; stroke-width:4; stroke-opacity:1; fill:none" points="
  730.004,1486.45 730.004,1467.55 
  "/>
<polyline clip-path="url(#clip590)" style="stroke:#000000; stroke-linecap:round; stroke-linejoin:round; stroke-width:4; stroke-opacity:1; fill:none" points="
  1250.12,1486.45 1250.12,1467.55 
  "/>
<polyline clip-path="url(#clip590)" style="stroke:#000000; stroke-linecap:round; stroke-linejoin:round; stroke-width:4; stroke-opacity:1; fill:none" points="
  1770.23,1486.45 1770.23,1467.55 
  "/>
<polyline clip-path="url(#clip590)" style="stroke:#000000; stroke-linecap:round; stroke-linejoin:round; stroke-width:4; stroke-opacity:1; fill:none" points="
  2290.34,1486.45 2290.34,1467.55 
  "/>
<path clip-path="url(#clip590)" d="M156.42 1532.02 L186.095 1532.02 L186.095 1535.95 L156.42 1535.95 L156.42 1532.02 Z" fill="#000000" fill-rule="evenodd" fill-opacity="1" /><path clip-path="url(#clip590)" d="M196.998 1544.91 L204.637 1544.91 L204.637 1518.55 L196.327 1520.21 L196.327 1515.95 L204.591 1514.29 L209.266 1514.29 L209.266 1544.91 L216.905 1544.91 L216.905 1548.85 L196.998 1548.85 L196.998 1544.91 Z" fill="#000000" fill-rule="evenodd" fill-opacity="1" /><path clip-path="url(#clip590)" d="M226.35 1542.97 L231.234 1542.97 L231.234 1548.85 L226.35 1548.85 L226.35 1542.97 Z" fill="#000000" fill-rule="evenodd" fill-opacity="1" /><path clip-path="url(#clip590)" d="M251.419 1517.37 Q247.808 1517.37 245.979 1520.93 Q244.174 1524.47 244.174 1531.6 Q244.174 1538.71 245.979 1542.27 Q247.808 1545.82 251.419 1545.82 Q255.053 1545.82 256.859 1542.27 Q258.687 1538.71 258.687 1531.6 Q258.687 1524.47 256.859 1520.93 Q255.053 1517.37 251.419 1517.37 M251.419 1513.66 Q257.229 1513.66 260.285 1518.27 Q263.363 1522.85 263.363 1531.6 Q263.363 1540.33 260.285 1544.94 Q257.229 1549.52 251.419 1549.52 Q245.609 1549.52 242.53 1544.94 Q239.475 1540.33 239.475 1531.6 Q239.475 1522.85 242.53 1518.27 Q245.609 1513.66 251.419 1513.66 Z" fill="#000000" fill-rule="evenodd" fill-opacity="1" /><path clip-path="url(#clip590)" d="M677.03 1532.02 L706.706 1532.02 L706.706 1535.95 L677.03 1535.95 L677.03 1532.02 Z" fill="#000000" fill-rule="evenodd" fill-opacity="1" /><path clip-path="url(#clip590)" d="M726.798 1517.37 Q723.187 1517.37 721.358 1520.93 Q719.553 1524.47 719.553 1531.6 Q719.553 1538.71 721.358 1542.27 Q723.187 1545.82 726.798 1545.82 Q730.432 1545.82 732.238 1542.27 Q734.067 1538.71 734.067 1531.6 Q734.067 1524.47 732.238 1520.93 Q730.432 1517.37 726.798 1517.37 M726.798 1513.66 Q732.608 1513.66 735.664 1518.27 Q738.743 1522.85 738.743 1531.6 Q738.743 1540.33 735.664 1544.94 Q732.608 1549.52 726.798 1549.52 Q720.988 1549.52 717.909 1544.94 Q714.854 1540.33 714.854 1531.6 Q714.854 1522.85 717.909 1518.27 Q720.988 1513.66 726.798 1513.66 Z" fill="#000000" fill-rule="evenodd" fill-opacity="1" /><path clip-path="url(#clip590)" d="M746.96 1542.97 L751.844 1542.97 L751.844 1548.85 L746.96 1548.85 L746.96 1542.97 Z" fill="#000000" fill-rule="evenodd" fill-opacity="1" /><path clip-path="url(#clip590)" d="M762.076 1514.29 L780.432 1514.29 L780.432 1518.22 L766.358 1518.22 L766.358 1526.7 Q767.377 1526.35 768.395 1526.19 Q769.414 1526 770.432 1526 Q776.219 1526 779.599 1529.17 Q782.978 1532.34 782.978 1537.76 Q782.978 1543.34 779.506 1546.44 Q776.034 1549.52 769.715 1549.52 Q767.539 1549.52 765.27 1549.15 Q763.025 1548.78 760.617 1548.04 L760.617 1543.34 Q762.701 1544.47 764.923 1545.03 Q767.145 1545.58 769.622 1545.58 Q773.627 1545.58 775.965 1543.48 Q778.303 1541.37 778.303 1537.76 Q778.303 1534.15 775.965 1532.04 Q773.627 1529.94 769.622 1529.94 Q767.747 1529.94 765.872 1530.35 Q764.02 1530.77 762.076 1531.65 L762.076 1514.29 Z" fill="#000000" fill-rule="evenodd" fill-opacity="1" /><path clip-path="url(#clip590)" d="M1227.5 1517.37 Q1223.89 1517.37 1222.06 1520.93 Q1220.26 1524.47 1220.26 1531.6 Q1220.26 1538.71 1222.06 1542.27 Q1223.89 1545.82 1227.5 1545.82 Q1231.14 1545.82 1232.94 1542.27 Q1234.77 1538.71 1234.77 1531.6 Q1234.77 1524.47 1232.94 1520.93 Q1231.14 1517.37 1227.5 1517.37 M1227.5 1513.66 Q1233.31 1513.66 1236.37 1518.27 Q1239.45 1522.85 1239.45 1531.6 Q1239.45 1540.33 1236.37 1544.94 Q1233.31 1549.52 1227.5 1549.52 Q1221.69 1549.52 1218.61 1544.94 Q1215.56 1540.33 1215.56 1531.6 Q1215.56 1522.85 1218.61 1518.27 Q1221.69 1513.66 1227.5 1513.66 Z" fill="#000000" fill-rule="evenodd" fill-opacity="1" /><path clip-path="url(#clip590)" d="M1247.66 1542.97 L1252.55 1542.97 L1252.55 1548.85 L1247.66 1548.85 L1247.66 1542.97 Z" fill="#000000" fill-rule="evenodd" fill-opacity="1" /><path clip-path="url(#clip590)" d="M1272.73 1517.37 Q1269.12 1517.37 1267.29 1520.93 Q1265.49 1524.47 1265.49 1531.6 Q1265.49 1538.71 1267.29 1542.27 Q1269.12 1545.82 1272.73 1545.82 Q1276.37 1545.82 1278.17 1542.27 Q1280 1538.71 1280 1531.6 Q1280 1524.47 1278.17 1520.93 Q1276.37 1517.37 1272.73 1517.37 M1272.73 1513.66 Q1278.54 1513.66 1281.6 1518.27 Q1284.68 1522.85 1284.68 1531.6 Q1284.68 1540.33 1281.6 1544.94 Q1278.54 1549.52 1272.73 1549.52 Q1266.92 1549.52 1263.84 1544.94 Q1260.79 1540.33 1260.79 1531.6 Q1260.79 1522.85 1263.84 1518.27 Q1266.92 1513.66 1272.73 1513.66 Z" fill="#000000" fill-rule="evenodd" fill-opacity="1" /><path clip-path="url(#clip590)" d="M1748.11 1517.37 Q1744.5 1517.37 1742.67 1520.93 Q1740.87 1524.47 1740.87 1531.6 Q1740.87 1538.71 1742.67 1542.27 Q1744.5 1545.82 1748.11 1545.82 Q1751.75 1545.82 1753.55 1542.27 Q1755.38 1538.71 1755.38 1531.6 Q1755.38 1524.47 1753.55 1520.93 Q1751.75 1517.37 1748.11 1517.37 M1748.11 1513.66 Q1753.92 1513.66 1756.98 1518.27 Q1760.06 1522.85 1760.06 1531.6 Q1760.06 1540.33 1756.98 1544.94 Q1753.92 1549.52 1748.11 1549.52 Q1742.3 1549.52 1739.22 1544.94 Q1736.17 1540.33 1736.17 1531.6 Q1736.17 1522.85 1739.22 1518.27 Q1742.3 1513.66 1748.11 1513.66 Z" fill="#000000" fill-rule="evenodd" fill-opacity="1" /><path clip-path="url(#clip590)" d="M1768.27 1542.97 L1773.16 1542.97 L1773.16 1548.85 L1768.27 1548.85 L1768.27 1542.97 Z" fill="#000000" fill-rule="evenodd" fill-opacity="1" /><path clip-path="url(#clip590)" d="M1783.39 1514.29 L1801.75 1514.29 L1801.75 1518.22 L1787.67 1518.22 L1787.67 1526.7 Q1788.69 1526.35 1789.71 1526.19 Q1790.73 1526 1791.75 1526 Q1797.53 1526 1800.91 1529.17 Q1804.29 1532.34 1804.29 1537.76 Q1804.29 1543.34 1800.82 1546.44 Q1797.35 1549.52 1791.03 1549.52 Q1788.85 1549.52 1786.58 1549.15 Q1784.34 1548.78 1781.93 1548.04 L1781.93 1543.34 Q1784.01 1544.47 1786.24 1545.03 Q1788.46 1545.58 1790.94 1545.58 Q1794.94 1545.58 1797.28 1543.48 Q1799.62 1541.37 1799.62 1537.76 Q1799.62 1534.15 1797.28 1532.04 Q1794.94 1529.94 1790.94 1529.94 Q1789.06 1529.94 1787.19 1530.35 Q1785.33 1530.77 1783.39 1531.65 L1783.39 1514.29 Z" fill="#000000" fill-rule="evenodd" fill-opacity="1" /><path clip-path="url(#clip590)" d="M2257.5 1544.91 L2265.13 1544.91 L2265.13 1518.55 L2256.82 1520.21 L2256.82 1515.95 L2265.09 1514.29 L2269.76 1514.29 L2269.76 1544.91 L2277.4 1544.91 L2277.4 1548.85 L2257.5 1548.85 L2257.5 1544.91 Z" fill="#000000" fill-rule="evenodd" fill-opacity="1" /><path clip-path="url(#clip590)" d="M2286.85 1542.97 L2291.73 1542.97 L2291.73 1548.85 L2286.85 1548.85 L2286.85 1542.97 Z" fill="#000000" fill-rule="evenodd" fill-opacity="1" /><path clip-path="url(#clip590)" d="M2311.92 1517.37 Q2308.31 1517.37 2306.48 1520.93 Q2304.67 1524.47 2304.67 1531.6 Q2304.67 1538.71 2306.48 1542.27 Q2308.31 1545.82 2311.92 1545.82 Q2315.55 1545.82 2317.36 1542.27 Q2319.18 1538.71 2319.18 1531.6 Q2319.18 1524.47 2317.36 1520.93 Q2315.55 1517.37 2311.92 1517.37 M2311.92 1513.66 Q2317.73 1513.66 2320.78 1518.27 Q2323.86 1522.85 2323.86 1531.6 Q2323.86 1540.33 2320.78 1544.94 Q2317.73 1549.52 2311.92 1549.52 Q2306.11 1549.52 2303.03 1544.94 Q2299.97 1540.33 2299.97 1531.6 Q2299.97 1522.85 2303.03 1518.27 Q2306.11 1513.66 2311.92 1513.66 Z" fill="#000000" fill-rule="evenodd" fill-opacity="1" /><polyline clip-path="url(#clip592)" style="stroke:#000000; stroke-linecap:round; stroke-linejoin:round; stroke-width:2; stroke-opacity:0.1; fill:none" points="
  147.478,1393.44 2352.76,1393.44 
  "/>
<polyline clip-path="url(#clip592)" style="stroke:#000000; stroke-linecap:round; stroke-linejoin:round; stroke-width:2; stroke-opacity:0.1; fill:none" points="
  147.478,954.683 2352.76,954.683 
  "/>
<polyline clip-path="url(#clip592)" style="stroke:#000000; stroke-linecap:round; stroke-linejoin:round; stroke-width:2; stroke-opacity:0.1; fill:none" points="
  147.478,515.929 2352.76,515.929 
  "/>
<polyline clip-path="url(#clip592)" style="stroke:#000000; stroke-linecap:round; stroke-linejoin:round; stroke-width:2; stroke-opacity:0.1; fill:none" points="
  147.478,77.1757 2352.76,77.1757 
  "/>
<polyline clip-path="url(#clip590)" style="stroke:#000000; stroke-linecap:round; stroke-linejoin:round; stroke-width:4; stroke-opacity:1; fill:none" points="
  147.478,1486.45 147.478,47.2441 
  "/>
<polyline clip-path="url(#clip590)" style="stroke:#000000; stroke-linecap:round; stroke-linejoin:round; stroke-width:4; stroke-opacity:1; fill:none" points="
  147.478,1393.44 166.376,1393.44 
  "/>
<polyline clip-path="url(#clip590)" style="stroke:#000000; stroke-linecap:round; stroke-linejoin:round; stroke-width:4; stroke-opacity:1; fill:none" points="
  147.478,954.683 166.376,954.683 
  "/>
<polyline clip-path="url(#clip590)" style="stroke:#000000; stroke-linecap:round; stroke-linejoin:round; stroke-width:4; stroke-opacity:1; fill:none" points="
  147.478,515.929 166.376,515.929 
  "/>
<polyline clip-path="url(#clip590)" style="stroke:#000000; stroke-linecap:round; stroke-linejoin:round; stroke-width:4; stroke-opacity:1; fill:none" points="
  147.478,77.1757 166.376,77.1757 
  "/>
<path clip-path="url(#clip590)" d="M50.9921 1393.89 L80.6679 1393.89 L80.6679 1397.82 L50.9921 1397.82 L50.9921 1393.89 Z" fill="#000000" fill-rule="evenodd" fill-opacity="1" /><path clip-path="url(#clip590)" d="M91.5706 1406.78 L99.2095 1406.78 L99.2095 1380.42 L90.8993 1382.08 L90.8993 1377.82 L99.1632 1376.16 L103.839 1376.16 L103.839 1406.78 L111.478 1406.78 L111.478 1410.72 L91.5706 1410.72 L91.5706 1406.78 Z" fill="#000000" fill-rule="evenodd" fill-opacity="1" /><path clip-path="url(#clip590)" d="M99.5335 940.482 Q95.9224 940.482 94.0937 944.047 Q92.2882 947.588 92.2882 954.718 Q92.2882 961.824 94.0937 965.389 Q95.9224 968.931 99.5335 968.931 Q103.168 968.931 104.973 965.389 Q106.802 961.824 106.802 954.718 Q106.802 947.588 104.973 944.047 Q103.168 940.482 99.5335 940.482 M99.5335 936.778 Q105.344 936.778 108.399 941.385 Q111.478 945.968 111.478 954.718 Q111.478 963.445 108.399 968.051 Q105.344 972.634 99.5335 972.634 Q93.7234 972.634 90.6447 968.051 Q87.5892 963.445 87.5892 954.718 Q87.5892 945.968 90.6447 941.385 Q93.7234 936.778 99.5335 936.778 Z" fill="#000000" fill-rule="evenodd" fill-opacity="1" /><path clip-path="url(#clip590)" d="M91.5706 529.274 L99.2095 529.274 L99.2095 502.909 L90.8993 504.575 L90.8993 500.316 L99.1632 498.649 L103.839 498.649 L103.839 529.274 L111.478 529.274 L111.478 533.209 L91.5706 533.209 L91.5706 529.274 Z" fill="#000000" fill-rule="evenodd" fill-opacity="1" /><path clip-path="url(#clip590)" d="M95.1586 90.5206 L111.478 90.5206 L111.478 94.4557 L89.5336 94.4557 L89.5336 90.5206 Q92.1956 87.7659 96.7789 83.1363 Q101.385 78.4836 102.566 77.141 Q104.811 74.6179 105.691 72.8818 Q106.594 71.1225 106.594 69.4327 Q106.594 66.6781 104.649 64.942 Q102.728 63.2059 99.6261 63.2059 Q97.4271 63.2059 94.9734 63.9698 Q92.5428 64.7337 89.7651 66.2846 L89.7651 61.5624 Q92.5891 60.4281 95.0428 59.8494 Q97.4965 59.2707 99.5335 59.2707 Q104.904 59.2707 108.098 61.9559 Q111.293 64.6411 111.293 69.1318 Q111.293 71.2614 110.483 73.1827 Q109.696 75.0808 107.589 77.6734 Q107.01 78.3447 103.909 81.5623 Q100.807 84.7567 95.1586 90.5206 Z" fill="#000000" fill-rule="evenodd" fill-opacity="1" /><circle clip-path="url(#clip592)" cx="209.891" cy="714.196" r="14.4" fill="#009af9" fill-rule="evenodd" fill-opacity="1" stroke="#000000" stroke-opacity="1" stroke-width="3.2"/>
<circle clip-path="url(#clip592)" cx="220.346" cy="742.144" r="14.4" fill="#009af9" fill-rule="evenodd" fill-opacity="1" stroke="#000000" stroke-opacity="1" stroke-width="3.2"/>
<circle clip-path="url(#clip592)" cx="230.8" cy="921.298" r="14.4" fill="#009af9" fill-rule="evenodd" fill-opacity="1" stroke="#000000" stroke-opacity="1" stroke-width="3.2"/>
<circle clip-path="url(#clip592)" cx="241.255" cy="924.728" r="14.4" fill="#009af9" fill-rule="evenodd" fill-opacity="1" stroke="#000000" stroke-opacity="1" stroke-width="3.2"/>
<circle clip-path="url(#clip592)" cx="251.71" cy="699.604" r="14.4" fill="#009af9" fill-rule="evenodd" fill-opacity="1" stroke="#000000" stroke-opacity="1" stroke-width="3.2"/>
<circle clip-path="url(#clip592)" cx="262.164" cy="759.868" r="14.4" fill="#009af9" fill-rule="evenodd" fill-opacity="1" stroke="#000000" stroke-opacity="1" stroke-width="3.2"/>
<circle clip-path="url(#clip592)" cx="272.619" cy="854.207" r="14.4" fill="#009af9" fill-rule="evenodd" fill-opacity="1" stroke="#000000" stroke-opacity="1" stroke-width="3.2"/>
<circle clip-path="url(#clip592)" cx="283.073" cy="825.494" r="14.4" fill="#009af9" fill-rule="evenodd" fill-opacity="1" stroke="#000000" stroke-opacity="1" stroke-width="3.2"/>
<circle clip-path="url(#clip592)" cx="293.528" cy="939.827" r="14.4" fill="#009af9" fill-rule="evenodd" fill-opacity="1" stroke="#000000" stroke-opacity="1" stroke-width="3.2"/>
<circle clip-path="url(#clip592)" cx="303.982" cy="1445.72" r="14.4" fill="#009af9" fill-rule="evenodd" fill-opacity="1" stroke="#000000" stroke-opacity="1" stroke-width="3.2"/>
<circle clip-path="url(#clip592)" cx="314.437" cy="1295.69" r="14.4" fill="#009af9" fill-rule="evenodd" fill-opacity="1" stroke="#000000" stroke-opacity="1" stroke-width="3.2"/>
<circle clip-path="url(#clip592)" cx="324.891" cy="507.353" r="14.4" fill="#009af9" fill-rule="evenodd" fill-opacity="1" stroke="#000000" stroke-opacity="1" stroke-width="3.2"/>
<circle clip-path="url(#clip592)" cx="335.346" cy="1173.76" r="14.4" fill="#009af9" fill-rule="evenodd" fill-opacity="1" stroke="#000000" stroke-opacity="1" stroke-width="3.2"/>
<circle clip-path="url(#clip592)" cx="345.8" cy="1052.26" r="14.4" fill="#009af9" fill-rule="evenodd" fill-opacity="1" stroke="#000000" stroke-opacity="1" stroke-width="3.2"/>
<circle clip-path="url(#clip592)" cx="356.255" cy="493.951" r="14.4" fill="#009af9" fill-rule="evenodd" fill-opacity="1" stroke="#000000" stroke-opacity="1" stroke-width="3.2"/>
<circle clip-path="url(#clip592)" cx="366.709" cy="708.6" r="14.4" fill="#009af9" fill-rule="evenodd" fill-opacity="1" stroke="#000000" stroke-opacity="1" stroke-width="3.2"/>
<circle clip-path="url(#clip592)" cx="377.164" cy="1032.75" r="14.4" fill="#009af9" fill-rule="evenodd" fill-opacity="1" stroke="#000000" stroke-opacity="1" stroke-width="3.2"/>
<circle clip-path="url(#clip592)" cx="387.618" cy="735.152" r="14.4" fill="#009af9" fill-rule="evenodd" fill-opacity="1" stroke="#000000" stroke-opacity="1" stroke-width="3.2"/>
<circle clip-path="url(#clip592)" cx="398.073" cy="207.039" r="14.4" fill="#009af9" fill-rule="evenodd" fill-opacity="1" stroke="#000000" stroke-opacity="1" stroke-width="3.2"/>
<circle clip-path="url(#clip592)" cx="408.527" cy="839.291" r="14.4" fill="#009af9" fill-rule="evenodd" fill-opacity="1" stroke="#000000" stroke-opacity="1" stroke-width="3.2"/>
<circle clip-path="url(#clip592)" cx="418.982" cy="691.715" r="14.4" fill="#009af9" fill-rule="evenodd" fill-opacity="1" stroke="#000000" stroke-opacity="1" stroke-width="3.2"/>
<circle clip-path="url(#clip592)" cx="429.437" cy="978.793" r="14.4" fill="#009af9" fill-rule="evenodd" fill-opacity="1" stroke="#000000" stroke-opacity="1" stroke-width="3.2"/>
<circle clip-path="url(#clip592)" cx="439.891" cy="1111.37" r="14.4" fill="#009af9" fill-rule="evenodd" fill-opacity="1" stroke="#000000" stroke-opacity="1" stroke-width="3.2"/>
<circle clip-path="url(#clip592)" cx="450.346" cy="1021.92" r="14.4" fill="#009af9" fill-rule="evenodd" fill-opacity="1" stroke="#000000" stroke-opacity="1" stroke-width="3.2"/>
<circle clip-path="url(#clip592)" cx="460.8" cy="802.01" r="14.4" fill="#009af9" fill-rule="evenodd" fill-opacity="1" stroke="#000000" stroke-opacity="1" stroke-width="3.2"/>
<circle clip-path="url(#clip592)" cx="471.255" cy="1060.45" r="14.4" fill="#009af9" fill-rule="evenodd" fill-opacity="1" stroke="#000000" stroke-opacity="1" stroke-width="3.2"/>
<circle clip-path="url(#clip592)" cx="481.709" cy="1064.09" r="14.4" fill="#009af9" fill-rule="evenodd" fill-opacity="1" stroke="#000000" stroke-opacity="1" stroke-width="3.2"/>
<circle clip-path="url(#clip592)" cx="492.164" cy="934.932" r="14.4" fill="#009af9" fill-rule="evenodd" fill-opacity="1" stroke="#000000" stroke-opacity="1" stroke-width="3.2"/>
<circle clip-path="url(#clip592)" cx="502.618" cy="777.452" r="14.4" fill="#009af9" fill-rule="evenodd" fill-opacity="1" stroke="#000000" stroke-opacity="1" stroke-width="3.2"/>
<circle clip-path="url(#clip592)" cx="513.073" cy="916.494" r="14.4" fill="#009af9" fill-rule="evenodd" fill-opacity="1" stroke="#000000" stroke-opacity="1" stroke-width="3.2"/>
<circle clip-path="url(#clip592)" cx="523.527" cy="825.911" r="14.4" fill="#009af9" fill-rule="evenodd" fill-opacity="1" stroke="#000000" stroke-opacity="1" stroke-width="3.2"/>
<circle clip-path="url(#clip592)" cx="533.982" cy="1267.52" r="14.4" fill="#009af9" fill-rule="evenodd" fill-opacity="1" stroke="#000000" stroke-opacity="1" stroke-width="3.2"/>
<circle clip-path="url(#clip592)" cx="544.436" cy="692.724" r="14.4" fill="#009af9" fill-rule="evenodd" fill-opacity="1" stroke="#000000" stroke-opacity="1" stroke-width="3.2"/>
<circle clip-path="url(#clip592)" cx="554.891" cy="1030.25" r="14.4" fill="#009af9" fill-rule="evenodd" fill-opacity="1" stroke="#000000" stroke-opacity="1" stroke-width="3.2"/>
<circle clip-path="url(#clip592)" cx="565.345" cy="391.559" r="14.4" fill="#009af9" fill-rule="evenodd" fill-opacity="1" stroke="#000000" stroke-opacity="1" stroke-width="3.2"/>
<circle clip-path="url(#clip592)" cx="575.8" cy="647.699" r="14.4" fill="#009af9" fill-rule="evenodd" fill-opacity="1" stroke="#000000" stroke-opacity="1" stroke-width="3.2"/>
<circle clip-path="url(#clip592)" cx="586.254" cy="795.596" r="14.4" fill="#009af9" fill-rule="evenodd" fill-opacity="1" stroke="#000000" stroke-opacity="1" stroke-width="3.2"/>
<circle clip-path="url(#clip592)" cx="596.709" cy="1041.88" r="14.4" fill="#009af9" fill-rule="evenodd" fill-opacity="1" stroke="#000000" stroke-opacity="1" stroke-width="3.2"/>
<circle clip-path="url(#clip592)" cx="607.163" cy="594.737" r="14.4" fill="#009af9" fill-rule="evenodd" fill-opacity="1" stroke="#000000" stroke-opacity="1" stroke-width="3.2"/>
<circle clip-path="url(#clip592)" cx="617.618" cy="1079.15" r="14.4" fill="#009af9" fill-rule="evenodd" fill-opacity="1" stroke="#000000" stroke-opacity="1" stroke-width="3.2"/>
<circle clip-path="url(#clip592)" cx="628.073" cy="774.713" r="14.4" fill="#009af9" fill-rule="evenodd" fill-opacity="1" stroke="#000000" stroke-opacity="1" stroke-width="3.2"/>
<circle clip-path="url(#clip592)" cx="638.527" cy="926.478" r="14.4" fill="#009af9" fill-rule="evenodd" fill-opacity="1" stroke="#000000" stroke-opacity="1" stroke-width="3.2"/>
<circle clip-path="url(#clip592)" cx="648.982" cy="698.739" r="14.4" fill="#009af9" fill-rule="evenodd" fill-opacity="1" stroke="#000000" stroke-opacity="1" stroke-width="3.2"/>
<circle clip-path="url(#clip592)" cx="659.436" cy="959.645" r="14.4" fill="#009af9" fill-rule="evenodd" fill-opacity="1" stroke="#000000" stroke-opacity="1" stroke-width="3.2"/>
<circle clip-path="url(#clip592)" cx="669.891" cy="676.39" r="14.4" fill="#009af9" fill-rule="evenodd" fill-opacity="1" stroke="#000000" stroke-opacity="1" stroke-width="3.2"/>
<circle clip-path="url(#clip592)" cx="680.345" cy="650.475" r="14.4" fill="#009af9" fill-rule="evenodd" fill-opacity="1" stroke="#000000" stroke-opacity="1" stroke-width="3.2"/>
<circle clip-path="url(#clip592)" cx="690.8" cy="588.33" r="14.4" fill="#009af9" fill-rule="evenodd" fill-opacity="1" stroke="#000000" stroke-opacity="1" stroke-width="3.2"/>
<circle clip-path="url(#clip592)" cx="701.254" cy="1371.16" r="14.4" fill="#009af9" fill-rule="evenodd" fill-opacity="1" stroke="#000000" stroke-opacity="1" stroke-width="3.2"/>
<circle clip-path="url(#clip592)" cx="711.709" cy="704.936" r="14.4" fill="#009af9" fill-rule="evenodd" fill-opacity="1" stroke="#000000" stroke-opacity="1" stroke-width="3.2"/>
<circle clip-path="url(#clip592)" cx="722.163" cy="585.242" r="14.4" fill="#009af9" fill-rule="evenodd" fill-opacity="1" stroke="#000000" stroke-opacity="1" stroke-width="3.2"/>
<circle clip-path="url(#clip592)" cx="732.618" cy="812.535" r="14.4" fill="#009af9" fill-rule="evenodd" fill-opacity="1" stroke="#000000" stroke-opacity="1" stroke-width="3.2"/>
<circle clip-path="url(#clip592)" cx="743.072" cy="852.576" r="14.4" fill="#009af9" fill-rule="evenodd" fill-opacity="1" stroke="#000000" stroke-opacity="1" stroke-width="3.2"/>
<circle clip-path="url(#clip592)" cx="753.527" cy="885.204" r="14.4" fill="#009af9" fill-rule="evenodd" fill-opacity="1" stroke="#000000" stroke-opacity="1" stroke-width="3.2"/>
<circle clip-path="url(#clip592)" cx="763.981" cy="1396.46" r="14.4" fill="#009af9" fill-rule="evenodd" fill-opacity="1" stroke="#000000" stroke-opacity="1" stroke-width="3.2"/>
<circle clip-path="url(#clip592)" cx="774.436" cy="619.431" r="14.4" fill="#009af9" fill-rule="evenodd" fill-opacity="1" stroke="#000000" stroke-opacity="1" stroke-width="3.2"/>
<circle clip-path="url(#clip592)" cx="784.89" cy="742.911" r="14.4" fill="#009af9" fill-rule="evenodd" fill-opacity="1" stroke="#000000" stroke-opacity="1" stroke-width="3.2"/>
<circle clip-path="url(#clip592)" cx="795.345" cy="302.486" r="14.4" fill="#009af9" fill-rule="evenodd" fill-opacity="1" stroke="#000000" stroke-opacity="1" stroke-width="3.2"/>
<circle clip-path="url(#clip592)" cx="805.799" cy="953.718" r="14.4" fill="#009af9" fill-rule="evenodd" fill-opacity="1" stroke="#000000" stroke-opacity="1" stroke-width="3.2"/>
<circle clip-path="url(#clip592)" cx="816.254" cy="734.224" r="14.4" fill="#009af9" fill-rule="evenodd" fill-opacity="1" stroke="#000000" stroke-opacity="1" stroke-width="3.2"/>
<circle clip-path="url(#clip592)" cx="826.709" cy="715.605" r="14.4" fill="#009af9" fill-rule="evenodd" fill-opacity="1" stroke="#000000" stroke-opacity="1" stroke-width="3.2"/>
<circle clip-path="url(#clip592)" cx="837.163" cy="1136.4" r="14.4" fill="#009af9" fill-rule="evenodd" fill-opacity="1" stroke="#000000" stroke-opacity="1" stroke-width="3.2"/>
<circle clip-path="url(#clip592)" cx="847.618" cy="776.202" r="14.4" fill="#009af9" fill-rule="evenodd" fill-opacity="1" stroke="#000000" stroke-opacity="1" stroke-width="3.2"/>
<circle clip-path="url(#clip592)" cx="858.072" cy="839.167" r="14.4" fill="#009af9" fill-rule="evenodd" fill-opacity="1" stroke="#000000" stroke-opacity="1" stroke-width="3.2"/>
<circle clip-path="url(#clip592)" cx="868.527" cy="1008.29" r="14.4" fill="#009af9" fill-rule="evenodd" fill-opacity="1" stroke="#000000" stroke-opacity="1" stroke-width="3.2"/>
<circle clip-path="url(#clip592)" cx="878.981" cy="388.777" r="14.4" fill="#009af9" fill-rule="evenodd" fill-opacity="1" stroke="#000000" stroke-opacity="1" stroke-width="3.2"/>
<circle clip-path="url(#clip592)" cx="889.436" cy="552.489" r="14.4" fill="#009af9" fill-rule="evenodd" fill-opacity="1" stroke="#000000" stroke-opacity="1" stroke-width="3.2"/>
<circle clip-path="url(#clip592)" cx="899.89" cy="978.743" r="14.4" fill="#009af9" fill-rule="evenodd" fill-opacity="1" stroke="#000000" stroke-opacity="1" stroke-width="3.2"/>
<circle clip-path="url(#clip592)" cx="910.345" cy="829.021" r="14.4" fill="#009af9" fill-rule="evenodd" fill-opacity="1" stroke="#000000" stroke-opacity="1" stroke-width="3.2"/>
<circle clip-path="url(#clip592)" cx="920.799" cy="632.017" r="14.4" fill="#009af9" fill-rule="evenodd" fill-opacity="1" stroke="#000000" stroke-opacity="1" stroke-width="3.2"/>
<circle clip-path="url(#clip592)" cx="931.254" cy="745.158" r="14.4" fill="#009af9" fill-rule="evenodd" fill-opacity="1" stroke="#000000" stroke-opacity="1" stroke-width="3.2"/>
<circle clip-path="url(#clip592)" cx="941.708" cy="737.11" r="14.4" fill="#009af9" fill-rule="evenodd" fill-opacity="1" stroke="#000000" stroke-opacity="1" stroke-width="3.2"/>
<circle clip-path="url(#clip592)" cx="952.163" cy="481.867" r="14.4" fill="#009af9" fill-rule="evenodd" fill-opacity="1" stroke="#000000" stroke-opacity="1" stroke-width="3.2"/>
<circle clip-path="url(#clip592)" cx="962.617" cy="645.807" r="14.4" fill="#009af9" fill-rule="evenodd" fill-opacity="1" stroke="#000000" stroke-opacity="1" stroke-width="3.2"/>
<circle clip-path="url(#clip592)" cx="973.072" cy="991.511" r="14.4" fill="#009af9" fill-rule="evenodd" fill-opacity="1" stroke="#000000" stroke-opacity="1" stroke-width="3.2"/>
<circle clip-path="url(#clip592)" cx="983.526" cy="406.501" r="14.4" fill="#009af9" fill-rule="evenodd" fill-opacity="1" stroke="#000000" stroke-opacity="1" stroke-width="3.2"/>
<circle clip-path="url(#clip592)" cx="993.981" cy="961.082" r="14.4" fill="#009af9" fill-rule="evenodd" fill-opacity="1" stroke="#000000" stroke-opacity="1" stroke-width="3.2"/>
<circle clip-path="url(#clip592)" cx="1004.44" cy="724.757" r="14.4" fill="#009af9" fill-rule="evenodd" fill-opacity="1" stroke="#000000" stroke-opacity="1" stroke-width="3.2"/>
<circle clip-path="url(#clip592)" cx="1014.89" cy="635.929" r="14.4" fill="#009af9" fill-rule="evenodd" fill-opacity="1" stroke="#000000" stroke-opacity="1" stroke-width="3.2"/>
<circle clip-path="url(#clip592)" cx="1025.34" cy="545.965" r="14.4" fill="#009af9" fill-rule="evenodd" fill-opacity="1" stroke="#000000" stroke-opacity="1" stroke-width="3.2"/>
<circle clip-path="url(#clip592)" cx="1035.8" cy="336.093" r="14.4" fill="#009af9" fill-rule="evenodd" fill-opacity="1" stroke="#000000" stroke-opacity="1" stroke-width="3.2"/>
<circle clip-path="url(#clip592)" cx="1046.25" cy="577.258" r="14.4" fill="#009af9" fill-rule="evenodd" fill-opacity="1" stroke="#000000" stroke-opacity="1" stroke-width="3.2"/>
<circle clip-path="url(#clip592)" cx="1056.71" cy="744.168" r="14.4" fill="#009af9" fill-rule="evenodd" fill-opacity="1" stroke="#000000" stroke-opacity="1" stroke-width="3.2"/>
<circle clip-path="url(#clip592)" cx="1067.16" cy="247.925" r="14.4" fill="#009af9" fill-rule="evenodd" fill-opacity="1" stroke="#000000" stroke-opacity="1" stroke-width="3.2"/>
<circle clip-path="url(#clip592)" cx="1077.62" cy="739.63" r="14.4" fill="#009af9" fill-rule="evenodd" fill-opacity="1" stroke="#000000" stroke-opacity="1" stroke-width="3.2"/>
<circle clip-path="url(#clip592)" cx="1088.07" cy="415.331" r="14.4" fill="#009af9" fill-rule="evenodd" fill-opacity="1" stroke="#000000" stroke-opacity="1" stroke-width="3.2"/>
<circle clip-path="url(#clip592)" cx="1098.53" cy="630.939" r="14.4" fill="#009af9" fill-rule="evenodd" fill-opacity="1" stroke="#000000" stroke-opacity="1" stroke-width="3.2"/>
<circle clip-path="url(#clip592)" cx="1108.98" cy="559.323" r="14.4" fill="#009af9" fill-rule="evenodd" fill-opacity="1" stroke="#000000" stroke-opacity="1" stroke-width="3.2"/>
<circle clip-path="url(#clip592)" cx="1119.44" cy="618.664" r="14.4" fill="#009af9" fill-rule="evenodd" fill-opacity="1" stroke="#000000" stroke-opacity="1" stroke-width="3.2"/>
<circle clip-path="url(#clip592)" cx="1129.89" cy="653.995" r="14.4" fill="#009af9" fill-rule="evenodd" fill-opacity="1" stroke="#000000" stroke-opacity="1" stroke-width="3.2"/>
<circle clip-path="url(#clip592)" cx="1140.34" cy="434.27" r="14.4" fill="#009af9" fill-rule="evenodd" fill-opacity="1" stroke="#000000" stroke-opacity="1" stroke-width="3.2"/>
<circle clip-path="url(#clip592)" cx="1150.8" cy="369.164" r="14.4" fill="#009af9" fill-rule="evenodd" fill-opacity="1" stroke="#000000" stroke-opacity="1" stroke-width="3.2"/>
<circle clip-path="url(#clip592)" cx="1161.25" cy="730.365" r="14.4" fill="#009af9" fill-rule="evenodd" fill-opacity="1" stroke="#000000" stroke-opacity="1" stroke-width="3.2"/>
<circle clip-path="url(#clip592)" cx="1171.71" cy="512.212" r="14.4" fill="#009af9" fill-rule="evenodd" fill-opacity="1" stroke="#000000" stroke-opacity="1" stroke-width="3.2"/>
<circle clip-path="url(#clip592)" cx="1182.16" cy="102.184" r="14.4" fill="#009af9" fill-rule="evenodd" fill-opacity="1" stroke="#000000" stroke-opacity="1" stroke-width="3.2"/>
<circle clip-path="url(#clip592)" cx="1192.62" cy="589.864" r="14.4" fill="#009af9" fill-rule="evenodd" fill-opacity="1" stroke="#000000" stroke-opacity="1" stroke-width="3.2"/>
<circle clip-path="url(#clip592)" cx="1203.07" cy="608.95" r="14.4" fill="#009af9" fill-rule="evenodd" fill-opacity="1" stroke="#000000" stroke-opacity="1" stroke-width="3.2"/>
<circle clip-path="url(#clip592)" cx="1213.53" cy="615.319" r="14.4" fill="#009af9" fill-rule="evenodd" fill-opacity="1" stroke="#000000" stroke-opacity="1" stroke-width="3.2"/>
<circle clip-path="url(#clip592)" cx="1223.98" cy="282.887" r="14.4" fill="#009af9" fill-rule="evenodd" fill-opacity="1" stroke="#000000" stroke-opacity="1" stroke-width="3.2"/>
<circle clip-path="url(#clip592)" cx="1234.44" cy="586.091" r="14.4" fill="#009af9" fill-rule="evenodd" fill-opacity="1" stroke="#000000" stroke-opacity="1" stroke-width="3.2"/>
<circle clip-path="url(#clip592)" cx="1244.89" cy="627.39" r="14.4" fill="#009af9" fill-rule="evenodd" fill-opacity="1" stroke="#000000" stroke-opacity="1" stroke-width="3.2"/>
<circle clip-path="url(#clip592)" cx="1255.34" cy="157.556" r="14.4" fill="#009af9" fill-rule="evenodd" fill-opacity="1" stroke="#000000" stroke-opacity="1" stroke-width="3.2"/>
<circle clip-path="url(#clip592)" cx="1265.8" cy="620.982" r="14.4" fill="#009af9" fill-rule="evenodd" fill-opacity="1" stroke="#000000" stroke-opacity="1" stroke-width="3.2"/>
<circle clip-path="url(#clip592)" cx="1276.25" cy="487.267" r="14.4" fill="#009af9" fill-rule="evenodd" fill-opacity="1" stroke="#000000" stroke-opacity="1" stroke-width="3.2"/>
<circle clip-path="url(#clip592)" cx="1286.71" cy="584.637" r="14.4" fill="#009af9" fill-rule="evenodd" fill-opacity="1" stroke="#000000" stroke-opacity="1" stroke-width="3.2"/>
<circle clip-path="url(#clip592)" cx="1297.16" cy="924.69" r="14.4" fill="#009af9" fill-rule="evenodd" fill-opacity="1" stroke="#000000" stroke-opacity="1" stroke-width="3.2"/>
<circle clip-path="url(#clip592)" cx="1307.62" cy="613.609" r="14.4" fill="#009af9" fill-rule="evenodd" fill-opacity="1" stroke="#000000" stroke-opacity="1" stroke-width="3.2"/>
<circle clip-path="url(#clip592)" cx="1318.07" cy="400.133" r="14.4" fill="#009af9" fill-rule="evenodd" fill-opacity="1" stroke="#000000" stroke-opacity="1" stroke-width="3.2"/>
<circle clip-path="url(#clip592)" cx="1328.53" cy="208.987" r="14.4" fill="#009af9" fill-rule="evenodd" fill-opacity="1" stroke="#000000" stroke-opacity="1" stroke-width="3.2"/>
<circle clip-path="url(#clip592)" cx="1338.98" cy="845.139" r="14.4" fill="#009af9" fill-rule="evenodd" fill-opacity="1" stroke="#000000" stroke-opacity="1" stroke-width="3.2"/>
<circle clip-path="url(#clip592)" cx="1349.43" cy="621.21" r="14.4" fill="#009af9" fill-rule="evenodd" fill-opacity="1" stroke="#000000" stroke-opacity="1" stroke-width="3.2"/>
<circle clip-path="url(#clip592)" cx="1359.89" cy="87.9763" r="14.4" fill="#009af9" fill-rule="evenodd" fill-opacity="1" stroke="#000000" stroke-opacity="1" stroke-width="3.2"/>
<circle clip-path="url(#clip592)" cx="1370.34" cy="334.722" r="14.4" fill="#009af9" fill-rule="evenodd" fill-opacity="1" stroke="#000000" stroke-opacity="1" stroke-width="3.2"/>
<circle clip-path="url(#clip592)" cx="1380.8" cy="474.428" r="14.4" fill="#009af9" fill-rule="evenodd" fill-opacity="1" stroke="#000000" stroke-opacity="1" stroke-width="3.2"/>
<circle clip-path="url(#clip592)" cx="1391.25" cy="515.719" r="14.4" fill="#009af9" fill-rule="evenodd" fill-opacity="1" stroke="#000000" stroke-opacity="1" stroke-width="3.2"/>
<circle clip-path="url(#clip592)" cx="1401.71" cy="431.166" r="14.4" fill="#009af9" fill-rule="evenodd" fill-opacity="1" stroke="#000000" stroke-opacity="1" stroke-width="3.2"/>
<circle clip-path="url(#clip592)" cx="1412.16" cy="486.536" r="14.4" fill="#009af9" fill-rule="evenodd" fill-opacity="1" stroke="#000000" stroke-opacity="1" stroke-width="3.2"/>
<circle clip-path="url(#clip592)" cx="1422.62" cy="886.094" r="14.4" fill="#009af9" fill-rule="evenodd" fill-opacity="1" stroke="#000000" stroke-opacity="1" stroke-width="3.2"/>
<circle clip-path="url(#clip592)" cx="1433.07" cy="536.29" r="14.4" fill="#009af9" fill-rule="evenodd" fill-opacity="1" stroke="#000000" stroke-opacity="1" stroke-width="3.2"/>
<circle clip-path="url(#clip592)" cx="1443.53" cy="804.581" r="14.4" fill="#009af9" fill-rule="evenodd" fill-opacity="1" stroke="#000000" stroke-opacity="1" stroke-width="3.2"/>
<circle clip-path="url(#clip592)" cx="1453.98" cy="495.348" r="14.4" fill="#009af9" fill-rule="evenodd" fill-opacity="1" stroke="#000000" stroke-opacity="1" stroke-width="3.2"/>
<circle clip-path="url(#clip592)" cx="1464.43" cy="592.912" r="14.4" fill="#009af9" fill-rule="evenodd" fill-opacity="1" stroke="#000000" stroke-opacity="1" stroke-width="3.2"/>
<circle clip-path="url(#clip592)" cx="1474.89" cy="747.315" r="14.4" fill="#009af9" fill-rule="evenodd" fill-opacity="1" stroke="#000000" stroke-opacity="1" stroke-width="3.2"/>
<circle clip-path="url(#clip592)" cx="1485.34" cy="794.389" r="14.4" fill="#009af9" fill-rule="evenodd" fill-opacity="1" stroke="#000000" stroke-opacity="1" stroke-width="3.2"/>
<circle clip-path="url(#clip592)" cx="1495.8" cy="956.231" r="14.4" fill="#009af9" fill-rule="evenodd" fill-opacity="1" stroke="#000000" stroke-opacity="1" stroke-width="3.2"/>
<circle clip-path="url(#clip592)" cx="1506.25" cy="468.466" r="14.4" fill="#009af9" fill-rule="evenodd" fill-opacity="1" stroke="#000000" stroke-opacity="1" stroke-width="3.2"/>
<circle clip-path="url(#clip592)" cx="1516.71" cy="422.671" r="14.4" fill="#009af9" fill-rule="evenodd" fill-opacity="1" stroke="#000000" stroke-opacity="1" stroke-width="3.2"/>
<circle clip-path="url(#clip592)" cx="1527.16" cy="761.197" r="14.4" fill="#009af9" fill-rule="evenodd" fill-opacity="1" stroke="#000000" stroke-opacity="1" stroke-width="3.2"/>
<circle clip-path="url(#clip592)" cx="1537.62" cy="735.689" r="14.4" fill="#009af9" fill-rule="evenodd" fill-opacity="1" stroke="#000000" stroke-opacity="1" stroke-width="3.2"/>
<circle clip-path="url(#clip592)" cx="1548.07" cy="996.413" r="14.4" fill="#009af9" fill-rule="evenodd" fill-opacity="1" stroke="#000000" stroke-opacity="1" stroke-width="3.2"/>
<circle clip-path="url(#clip592)" cx="1558.53" cy="974.932" r="14.4" fill="#009af9" fill-rule="evenodd" fill-opacity="1" stroke="#000000" stroke-opacity="1" stroke-width="3.2"/>
<circle clip-path="url(#clip592)" cx="1568.98" cy="521.54" r="14.4" fill="#009af9" fill-rule="evenodd" fill-opacity="1" stroke="#000000" stroke-opacity="1" stroke-width="3.2"/>
<circle clip-path="url(#clip592)" cx="1579.43" cy="684.488" r="14.4" fill="#009af9" fill-rule="evenodd" fill-opacity="1" stroke="#000000" stroke-opacity="1" stroke-width="3.2"/>
<circle clip-path="url(#clip592)" cx="1589.89" cy="345.738" r="14.4" fill="#009af9" fill-rule="evenodd" fill-opacity="1" stroke="#000000" stroke-opacity="1" stroke-width="3.2"/>
<circle clip-path="url(#clip592)" cx="1600.34" cy="503.922" r="14.4" fill="#009af9" fill-rule="evenodd" fill-opacity="1" stroke="#000000" stroke-opacity="1" stroke-width="3.2"/>
<circle clip-path="url(#clip592)" cx="1610.8" cy="585.926" r="14.4" fill="#009af9" fill-rule="evenodd" fill-opacity="1" stroke="#000000" stroke-opacity="1" stroke-width="3.2"/>
<circle clip-path="url(#clip592)" cx="1621.25" cy="793.521" r="14.4" fill="#009af9" fill-rule="evenodd" fill-opacity="1" stroke="#000000" stroke-opacity="1" stroke-width="3.2"/>
<circle clip-path="url(#clip592)" cx="1631.71" cy="335.032" r="14.4" fill="#009af9" fill-rule="evenodd" fill-opacity="1" stroke="#000000" stroke-opacity="1" stroke-width="3.2"/>
<circle clip-path="url(#clip592)" cx="1642.16" cy="901.583" r="14.4" fill="#009af9" fill-rule="evenodd" fill-opacity="1" stroke="#000000" stroke-opacity="1" stroke-width="3.2"/>
<circle clip-path="url(#clip592)" cx="1652.62" cy="792.53" r="14.4" fill="#009af9" fill-rule="evenodd" fill-opacity="1" stroke="#000000" stroke-opacity="1" stroke-width="3.2"/>
<circle clip-path="url(#clip592)" cx="1663.07" cy="683.121" r="14.4" fill="#009af9" fill-rule="evenodd" fill-opacity="1" stroke="#000000" stroke-opacity="1" stroke-width="3.2"/>
<circle clip-path="url(#clip592)" cx="1673.53" cy="643.341" r="14.4" fill="#009af9" fill-rule="evenodd" fill-opacity="1" stroke="#000000" stroke-opacity="1" stroke-width="3.2"/>
<circle clip-path="url(#clip592)" cx="1683.98" cy="600.262" r="14.4" fill="#009af9" fill-rule="evenodd" fill-opacity="1" stroke="#000000" stroke-opacity="1" stroke-width="3.2"/>
<circle clip-path="url(#clip592)" cx="1694.43" cy="675.324" r="14.4" fill="#009af9" fill-rule="evenodd" fill-opacity="1" stroke="#000000" stroke-opacity="1" stroke-width="3.2"/>
<circle clip-path="url(#clip592)" cx="1704.89" cy="1004.19" r="14.4" fill="#009af9" fill-rule="evenodd" fill-opacity="1" stroke="#000000" stroke-opacity="1" stroke-width="3.2"/>
<circle clip-path="url(#clip592)" cx="1715.34" cy="748.269" r="14.4" fill="#009af9" fill-rule="evenodd" fill-opacity="1" stroke="#000000" stroke-opacity="1" stroke-width="3.2"/>
<circle clip-path="url(#clip592)" cx="1725.8" cy="660.375" r="14.4" fill="#009af9" fill-rule="evenodd" fill-opacity="1" stroke="#000000" stroke-opacity="1" stroke-width="3.2"/>
<circle clip-path="url(#clip592)" cx="1736.25" cy="871.423" r="14.4" fill="#009af9" fill-rule="evenodd" fill-opacity="1" stroke="#000000" stroke-opacity="1" stroke-width="3.2"/>
<circle clip-path="url(#clip592)" cx="1746.71" cy="684.196" r="14.4" fill="#009af9" fill-rule="evenodd" fill-opacity="1" stroke="#000000" stroke-opacity="1" stroke-width="3.2"/>
<circle clip-path="url(#clip592)" cx="1757.16" cy="491.475" r="14.4" fill="#009af9" fill-rule="evenodd" fill-opacity="1" stroke="#000000" stroke-opacity="1" stroke-width="3.2"/>
<circle clip-path="url(#clip592)" cx="1767.62" cy="875.806" r="14.4" fill="#009af9" fill-rule="evenodd" fill-opacity="1" stroke="#000000" stroke-opacity="1" stroke-width="3.2"/>
<circle clip-path="url(#clip592)" cx="1778.07" cy="964.63" r="14.4" fill="#009af9" fill-rule="evenodd" fill-opacity="1" stroke="#000000" stroke-opacity="1" stroke-width="3.2"/>
<circle clip-path="url(#clip592)" cx="1788.53" cy="1037.22" r="14.4" fill="#009af9" fill-rule="evenodd" fill-opacity="1" stroke="#000000" stroke-opacity="1" stroke-width="3.2"/>
<circle clip-path="url(#clip592)" cx="1798.98" cy="698.242" r="14.4" fill="#009af9" fill-rule="evenodd" fill-opacity="1" stroke="#000000" stroke-opacity="1" stroke-width="3.2"/>
<circle clip-path="url(#clip592)" cx="1809.43" cy="787.838" r="14.4" fill="#009af9" fill-rule="evenodd" fill-opacity="1" stroke="#000000" stroke-opacity="1" stroke-width="3.2"/>
<circle clip-path="url(#clip592)" cx="1819.89" cy="689.955" r="14.4" fill="#009af9" fill-rule="evenodd" fill-opacity="1" stroke="#000000" stroke-opacity="1" stroke-width="3.2"/>
<circle clip-path="url(#clip592)" cx="1830.34" cy="751.817" r="14.4" fill="#009af9" fill-rule="evenodd" fill-opacity="1" stroke="#000000" stroke-opacity="1" stroke-width="3.2"/>
<circle clip-path="url(#clip592)" cx="1840.8" cy="527.958" r="14.4" fill="#009af9" fill-rule="evenodd" fill-opacity="1" stroke="#000000" stroke-opacity="1" stroke-width="3.2"/>
<circle clip-path="url(#clip592)" cx="1851.25" cy="1055.06" r="14.4" fill="#009af9" fill-rule="evenodd" fill-opacity="1" stroke="#000000" stroke-opacity="1" stroke-width="3.2"/>
<circle clip-path="url(#clip592)" cx="1861.71" cy="1221.77" r="14.4" fill="#009af9" fill-rule="evenodd" fill-opacity="1" stroke="#000000" stroke-opacity="1" stroke-width="3.2"/>
<circle clip-path="url(#clip592)" cx="1872.16" cy="1150.36" r="14.4" fill="#009af9" fill-rule="evenodd" fill-opacity="1" stroke="#000000" stroke-opacity="1" stroke-width="3.2"/>
<circle clip-path="url(#clip592)" cx="1882.62" cy="892.382" r="14.4" fill="#009af9" fill-rule="evenodd" fill-opacity="1" stroke="#000000" stroke-opacity="1" stroke-width="3.2"/>
<circle clip-path="url(#clip592)" cx="1893.07" cy="570.061" r="14.4" fill="#009af9" fill-rule="evenodd" fill-opacity="1" stroke="#000000" stroke-opacity="1" stroke-width="3.2"/>
<circle clip-path="url(#clip592)" cx="1903.52" cy="538.433" r="14.4" fill="#009af9" fill-rule="evenodd" fill-opacity="1" stroke="#000000" stroke-opacity="1" stroke-width="3.2"/>
<circle clip-path="url(#clip592)" cx="1913.98" cy="1227.74" r="14.4" fill="#009af9" fill-rule="evenodd" fill-opacity="1" stroke="#000000" stroke-opacity="1" stroke-width="3.2"/>
<circle clip-path="url(#clip592)" cx="1924.43" cy="980.488" r="14.4" fill="#009af9" fill-rule="evenodd" fill-opacity="1" stroke="#000000" stroke-opacity="1" stroke-width="3.2"/>
<circle clip-path="url(#clip592)" cx="1934.89" cy="1277.38" r="14.4" fill="#009af9" fill-rule="evenodd" fill-opacity="1" stroke="#000000" stroke-opacity="1" stroke-width="3.2"/>
<circle clip-path="url(#clip592)" cx="1945.34" cy="893.888" r="14.4" fill="#009af9" fill-rule="evenodd" fill-opacity="1" stroke="#000000" stroke-opacity="1" stroke-width="3.2"/>
<circle clip-path="url(#clip592)" cx="1955.8" cy="445.508" r="14.4" fill="#009af9" fill-rule="evenodd" fill-opacity="1" stroke="#000000" stroke-opacity="1" stroke-width="3.2"/>
<circle clip-path="url(#clip592)" cx="1966.25" cy="854.387" r="14.4" fill="#009af9" fill-rule="evenodd" fill-opacity="1" stroke="#000000" stroke-opacity="1" stroke-width="3.2"/>
<circle clip-path="url(#clip592)" cx="1976.71" cy="1049.63" r="14.4" fill="#009af9" fill-rule="evenodd" fill-opacity="1" stroke="#000000" stroke-opacity="1" stroke-width="3.2"/>
<circle clip-path="url(#clip592)" cx="1987.16" cy="1075.46" r="14.4" fill="#009af9" fill-rule="evenodd" fill-opacity="1" stroke="#000000" stroke-opacity="1" stroke-width="3.2"/>
<circle clip-path="url(#clip592)" cx="1997.62" cy="1211.37" r="14.4" fill="#009af9" fill-rule="evenodd" fill-opacity="1" stroke="#000000" stroke-opacity="1" stroke-width="3.2"/>
<circle clip-path="url(#clip592)" cx="2008.07" cy="819.406" r="14.4" fill="#009af9" fill-rule="evenodd" fill-opacity="1" stroke="#000000" stroke-opacity="1" stroke-width="3.2"/>
<circle clip-path="url(#clip592)" cx="2018.52" cy="1233.33" r="14.4" fill="#009af9" fill-rule="evenodd" fill-opacity="1" stroke="#000000" stroke-opacity="1" stroke-width="3.2"/>
<circle clip-path="url(#clip592)" cx="2028.98" cy="1077.64" r="14.4" fill="#009af9" fill-rule="evenodd" fill-opacity="1" stroke="#000000" stroke-opacity="1" stroke-width="3.2"/>
<circle clip-path="url(#clip592)" cx="2039.43" cy="855.697" r="14.4" fill="#009af9" fill-rule="evenodd" fill-opacity="1" stroke="#000000" stroke-opacity="1" stroke-width="3.2"/>
<circle clip-path="url(#clip592)" cx="2049.89" cy="1180.94" r="14.4" fill="#009af9" fill-rule="evenodd" fill-opacity="1" stroke="#000000" stroke-opacity="1" stroke-width="3.2"/>
<circle clip-path="url(#clip592)" cx="2060.34" cy="763.473" r="14.4" fill="#009af9" fill-rule="evenodd" fill-opacity="1" stroke="#000000" stroke-opacity="1" stroke-width="3.2"/>
<circle clip-path="url(#clip592)" cx="2070.8" cy="697.583" r="14.4" fill="#009af9" fill-rule="evenodd" fill-opacity="1" stroke="#000000" stroke-opacity="1" stroke-width="3.2"/>
<circle clip-path="url(#clip592)" cx="2081.25" cy="1111.28" r="14.4" fill="#009af9" fill-rule="evenodd" fill-opacity="1" stroke="#000000" stroke-opacity="1" stroke-width="3.2"/>
<circle clip-path="url(#clip592)" cx="2091.71" cy="704.092" r="14.4" fill="#009af9" fill-rule="evenodd" fill-opacity="1" stroke="#000000" stroke-opacity="1" stroke-width="3.2"/>
<circle clip-path="url(#clip592)" cx="2102.16" cy="1004.8" r="14.4" fill="#009af9" fill-rule="evenodd" fill-opacity="1" stroke="#000000" stroke-opacity="1" stroke-width="3.2"/>
<circle clip-path="url(#clip592)" cx="2112.62" cy="859.224" r="14.4" fill="#009af9" fill-rule="evenodd" fill-opacity="1" stroke="#000000" stroke-opacity="1" stroke-width="3.2"/>
<circle clip-path="url(#clip592)" cx="2123.07" cy="1040.66" r="14.4" fill="#009af9" fill-rule="evenodd" fill-opacity="1" stroke="#000000" stroke-opacity="1" stroke-width="3.2"/>
<circle clip-path="url(#clip592)" cx="2133.52" cy="1034" r="14.4" fill="#009af9" fill-rule="evenodd" fill-opacity="1" stroke="#000000" stroke-opacity="1" stroke-width="3.2"/>
<circle clip-path="url(#clip592)" cx="2143.98" cy="1248.91" r="14.4" fill="#009af9" fill-rule="evenodd" fill-opacity="1" stroke="#000000" stroke-opacity="1" stroke-width="3.2"/>
<circle clip-path="url(#clip592)" cx="2154.43" cy="753.067" r="14.4" fill="#009af9" fill-rule="evenodd" fill-opacity="1" stroke="#000000" stroke-opacity="1" stroke-width="3.2"/>
<circle clip-path="url(#clip592)" cx="2164.89" cy="1069.77" r="14.4" fill="#009af9" fill-rule="evenodd" fill-opacity="1" stroke="#000000" stroke-opacity="1" stroke-width="3.2"/>
<circle clip-path="url(#clip592)" cx="2175.34" cy="1013.1" r="14.4" fill="#009af9" fill-rule="evenodd" fill-opacity="1" stroke="#000000" stroke-opacity="1" stroke-width="3.2"/>
<circle clip-path="url(#clip592)" cx="2185.8" cy="827.295" r="14.4" fill="#009af9" fill-rule="evenodd" fill-opacity="1" stroke="#000000" stroke-opacity="1" stroke-width="3.2"/>
<circle clip-path="url(#clip592)" cx="2196.25" cy="902.157" r="14.4" fill="#009af9" fill-rule="evenodd" fill-opacity="1" stroke="#000000" stroke-opacity="1" stroke-width="3.2"/>
<circle clip-path="url(#clip592)" cx="2206.71" cy="806.091" r="14.4" fill="#009af9" fill-rule="evenodd" fill-opacity="1" stroke="#000000" stroke-opacity="1" stroke-width="3.2"/>
<circle clip-path="url(#clip592)" cx="2217.16" cy="692.302" r="14.4" fill="#009af9" fill-rule="evenodd" fill-opacity="1" stroke="#000000" stroke-opacity="1" stroke-width="3.2"/>
<circle clip-path="url(#clip592)" cx="2227.62" cy="1194.86" r="14.4" fill="#009af9" fill-rule="evenodd" fill-opacity="1" stroke="#000000" stroke-opacity="1" stroke-width="3.2"/>
<circle clip-path="url(#clip592)" cx="2238.07" cy="1168.91" r="14.4" fill="#009af9" fill-rule="evenodd" fill-opacity="1" stroke="#000000" stroke-opacity="1" stroke-width="3.2"/>
<circle clip-path="url(#clip592)" cx="2248.52" cy="837.524" r="14.4" fill="#009af9" fill-rule="evenodd" fill-opacity="1" stroke="#000000" stroke-opacity="1" stroke-width="3.2"/>
<circle clip-path="url(#clip592)" cx="2258.98" cy="690.329" r="14.4" fill="#009af9" fill-rule="evenodd" fill-opacity="1" stroke="#000000" stroke-opacity="1" stroke-width="3.2"/>
<circle clip-path="url(#clip592)" cx="2269.43" cy="520.884" r="14.4" fill="#009af9" fill-rule="evenodd" fill-opacity="1" stroke="#000000" stroke-opacity="1" stroke-width="3.2"/>
<circle clip-path="url(#clip592)" cx="2279.89" cy="1066.04" r="14.4" fill="#009af9" fill-rule="evenodd" fill-opacity="1" stroke="#000000" stroke-opacity="1" stroke-width="3.2"/>
<circle clip-path="url(#clip592)" cx="2290.34" cy="1193.95" r="14.4" fill="#009af9" fill-rule="evenodd" fill-opacity="1" stroke="#000000" stroke-opacity="1" stroke-width="3.2"/>
<polyline clip-path="url(#clip592)" style="stroke:#000000; stroke-linecap:round; stroke-linejoin:round; stroke-width:16; stroke-opacity:1; fill:none" points="
  209.891,914.796 216.664,914.32 223.436,913.836 286.057,908.928 348.678,903.123 386.311,899.114 423.943,894.645 455.761,890.457 487.579,885.844 522.142,880.287 
  556.705,874.082 588.569,867.707 620.434,860.617 654.595,852.11 688.757,842.534 708.547,836.438 728.337,829.897 748.127,822.879 767.917,815.344 785.503,808.185 
  803.09,800.56 820.677,792.441 838.264,783.801 853.686,775.774 869.108,767.308 884.53,758.387 899.953,749 916.767,738.222 933.581,726.872 950.395,714.953 
  967.21,702.477 984.124,689.393 1001.04,675.817 1017.95,661.815 1034.87,647.473 1072.27,615.173 1109.67,583.58 1118.57,576.425 1127.46,569.484 1136.36,562.796 
  1145.26,556.402 1154.15,550.342 1163.05,544.655 1171.95,539.382 1180.84,534.562 1190.09,530.067 1199.34,526.139 1208.59,522.811 1217.84,520.112 1227.09,518.068 
  1236.35,516.697 1245.6,516.012 1254.85,516.02 1262.63,516.564 1270.42,517.595 1278.21,519.106 1285.99,521.087 1293.78,523.526 1301.57,526.407 1309.35,529.711 
  1317.14,533.419 1326.65,538.459 1336.16,544.024 1345.66,550.065 1355.17,556.537 1364.68,563.388 1374.18,570.57 1383.69,578.034 1393.2,585.732 1428.03,615.231 
  1462.87,645.332 1478.96,659.018 1495.04,672.415 1511.13,685.444 1527.22,698.043 1543.51,710.323 1559.81,722.088 1576.1,733.322 1592.4,744.018 1610.66,755.37 
  1628.92,766.062 1647.19,776.114 1665.45,785.553 1682,793.598 1698.55,801.186 1715.1,808.338 1731.64,815.078 1750.59,822.32 1769.54,829.087 1788.49,835.411 
  1807.43,841.323 1824.98,846.456 1842.52,851.283 1860.06,855.824 1877.61,860.1 1912.2,867.82 1946.79,874.698 1980.38,880.674 2013.96,886.043 2048.39,890.995 
  2082.82,895.457 2120.54,899.851 2158.27,903.794 2213.06,908.833 2267.86,913.183 2279.1,914.001 2290.34,914.796 
  "/>
<polyline clip-path="url(#clip592)" style="stroke:#3da44d; stroke-linecap:round; stroke-linejoin:round; stroke-width:16; stroke-opacity:1; fill:none" points="
  209.891,788.229 220.346,719.755 230.8,738.934 241.255,798.246 251.71,867.035 262.164,927.195 272.619,969.656 283.073,991.569 293.528,994.104 303.982,980.773 
  314.437,956.183 324.891,925.162 335.346,892.166 345.8,860.92 356.255,834.246 366.709,814.01 377.164,801.166 387.618,795.872 398.073,797.629 408.527,805.442 
  418.982,817.985 429.437,833.751 439.891,851.19 450.346,868.816 460.8,885.3 471.255,899.532 481.709,910.661 492.164,918.113 502.618,921.591 513.073,921.058 
  523.527,916.712 533.982,908.946 544.436,898.305 554.891,885.446 565.345,871.087 575.8,855.97 586.254,840.816 596.709,826.296 607.163,812.998 617.618,801.413 
  628.073,791.913 638.527,784.747 648.982,780.038 659.436,777.789 669.891,777.888 680.345,780.123 690.8,784.197 701.254,789.748 711.709,796.364 722.163,803.607 
  732.618,811.029 743.072,818.192 753.527,824.683 763.981,830.129 774.436,834.209 784.89,836.659 795.345,837.285 805.799,835.961 816.254,832.631 826.709,827.304 
  837.163,820.056 847.618,811.018 858.072,800.37 868.527,788.33 878.981,775.149 889.436,761.092 899.89,746.437 910.345,731.46 920.799,716.423 931.254,701.572 
  941.708,687.126 952.163,673.27 962.617,660.156 973.072,647.893 983.526,636.553 993.981,626.167 1004.44,616.728 1014.89,608.194 1025.34,600.494 1035.8,593.531 
  1046.25,587.189 1056.71,581.342 1067.16,575.855 1077.62,570.595 1088.07,565.437 1098.53,560.268 1108.98,554.996 1119.44,549.548 1129.89,543.88 1140.34,537.977 
  1150.8,531.85 1161.25,525.543 1171.71,519.128 1182.16,512.702 1192.62,506.386 1203.07,500.318 1213.53,494.652 1223.98,489.548 1234.44,485.169 1244.89,481.676 
  1255.34,479.218 1265.8,477.928 1276.25,477.921 1286.71,479.282 1297.16,482.069 1307.62,486.307 1318.07,491.984 1328.53,499.055 1338.98,507.438 1349.43,517.015 
  1359.89,527.639 1370.34,539.135 1380.8,551.302 1391.25,563.922 1401.71,576.768 1412.16,589.603 1422.62,602.196 1433.07,614.322 1443.53,625.772 1453.98,636.361 
  1464.43,645.929 1474.89,654.351 1485.34,661.54 1495.8,667.446 1506.25,672.065 1516.71,675.433 1527.16,677.626 1537.62,678.763 1548.07,678.997 1558.53,678.509 
  1568.98,677.507 1579.43,676.219 1589.89,674.878 1600.34,673.723 1610.8,672.987 1621.25,672.888 1631.71,673.622 1642.16,675.357 1652.62,678.229 1663.07,682.332 
  1673.53,687.718 1683.98,694.397 1694.43,702.333 1704.89,711.449 1715.34,721.629 1725.8,732.724 1736.25,744.559 1746.71,756.937 1757.16,769.655 1767.62,782.507 
  1778.07,795.295 1788.53,807.84 1798.98,819.987 1809.43,831.616 1819.89,842.643 1830.34,853.027 1840.8,862.766 1851.25,871.901 1861.71,880.505 1872.16,888.683 
  1882.62,896.553 1893.07,904.243 1903.52,911.873 1913.98,919.541 1924.43,927.314 1934.89,935.207 1945.34,943.182 1955.8,951.136 1966.25,958.9 1976.71,966.245 
  1987.16,972.89 1997.62,978.518 2008.07,982.804 2018.52,985.442 2028.98,986.18 2039.43,984.859 2049.89,981.45 2060.34,976.086 2070.8,969.092 2081.25,960.989 
  2091.71,952.491 2102.16,944.467 2112.62,937.874 2123.07,933.661 2133.52,932.629 2143.98,935.26 2154.43,941.532 2164.89,950.716 2175.34,961.214 2185.8,970.464 
  2196.25,974.993 2206.71,970.725 2217.16,953.65 2227.62,921.079 2238.07,873.677 2248.52,818.62 2258.98,774.245 2269.43,776.709 2279.89,889.275 2290.34,1215.01 
  
  "/>
<polyline clip-path="url(#clip592)" style="stroke:#c271d2; stroke-linecap:round; stroke-linejoin:round; stroke-width:16; stroke-opacity:1; fill:none" points="
  209.891,913.306 216.664,912.809 223.436,912.303 286.057,907.177 348.678,901.105 386.311,896.905 423.943,892.218 455.761,887.82 487.579,882.969 522.142,877.118 
  556.705,870.573 588.569,863.837 620.434,856.33 654.595,847.305 688.757,837.119 708.547,830.62 728.337,823.635 748.127,816.124 767.917,808.046 785.503,800.354 
  803.09,792.144 820.677,783.384 838.264,774.039 853.686,765.336 869.108,756.137 884.53,746.42 899.953,736.169 916.767,724.366 933.581,711.898 950.395,698.761 
  967.21,684.965 984.124,670.446 1001.04,655.325 1017.95,639.669 1034.87,623.573 1072.27,587.09 1109.67,551.102 1118.57,542.912 1127.46,534.953 1136.36,527.271 
  1145.26,519.916 1154.15,512.935 1163.05,506.377 1171.95,500.291 1180.84,494.722 1190.09,489.528 1199.34,484.989 1208.59,481.145 1217.84,478.034 1227.09,475.685 
  1236.35,474.122 1245.6,473.36 1254.85,473.407 1262.63,474.074 1270.42,475.308 1278.21,477.103 1285.99,479.444 1293.78,482.316 1301.57,485.699 1309.35,489.57 
  1317.14,493.905 1326.65,499.785 1336.16,506.261 1345.66,513.276 1355.17,520.772 1364.68,528.688 1374.18,536.966 1383.69,545.548 1393.2,554.377 1428.03,588.004 
  1462.87,622 1478.96,637.353 1495.04,652.321 1511.13,666.82 1527.22,680.788 1543.51,694.352 1559.81,707.302 1576.1,719.626 1592.4,731.323 1610.66,743.697 
  1628.92,755.315 1647.19,766.206 1665.45,776.403 1682,785.074 1698.55,793.233 1715.1,800.908 1731.64,808.127 1750.59,815.868 1769.54,823.087 1788.49,829.821 
  1807.43,836.107 1824.98,841.555 1842.52,846.671 1860.06,851.479 1877.61,855.999 1912.2,864.148 1946.79,871.394 1980.38,877.678 2013.96,883.316 2048.39,888.509 
  2082.82,893.181 2120.54,897.777 2158.27,901.897 2213.06,907.155 2267.86,911.689 2279.1,912.541 2290.34,913.369 
  "/>
<path clip-path="url(#clip590)" d="
M1550.99 484.018 L2279.25 484.018 L2279.25 95.2176 L1550.99 95.2176  Z
  " fill="#ffffff" fill-rule="evenodd" fill-opacity="1"/>
<polyline clip-path="url(#clip590)" style="stroke:#000000; stroke-linecap:round; stroke-linejoin:round; stroke-width:4; stroke-opacity:1; fill:none" points="
  1550.99,484.018 2279.25,484.018 2279.25,95.2176 1550.99,95.2176 1550.99,484.018 
  "/>
<circle clip-path="url(#clip590)" cx="1649" cy="172.978" r="34.56" fill="#009af9" fill-rule="evenodd" fill-opacity="1" stroke="#000000" stroke-opacity="1" stroke-width="7.68"/>
<path clip-path="url(#clip590)" d="M1767.78 202.509 Q1765.07 209.453 1762.5 211.571 Q1759.93 213.689 1755.62 213.689 L1750.52 213.689 L1750.52 208.342 L1754.27 208.342 Q1756.91 208.342 1758.37 207.092 Q1759.83 205.842 1761.6 201.189 L1762.74 198.273 L1747.01 160.009 L1753.78 160.009 L1765.94 190.425 L1778.09 160.009 L1784.86 160.009 L1767.78 202.509 Z" fill="#000000" fill-rule="evenodd" fill-opacity="1" /><path clip-path="url(#clip590)" d="M1795.8 192.995 L1807.26 192.995 L1807.26 153.446 L1794.79 155.946 L1794.79 149.558 L1807.19 147.058 L1814.2 147.058 L1814.2 192.995 L1825.66 192.995 L1825.66 198.898 L1795.8 198.898 L1795.8 192.995 Z" fill="#000000" fill-rule="evenodd" fill-opacity="1" /><polyline clip-path="url(#clip590)" style="stroke:#000000; stroke-linecap:round; stroke-linejoin:round; stroke-width:6; stroke-opacity:1; fill:none" points="
  1575.49,250.738 1722.51,250.738 
  "/>
<path clip-path="url(#clip590)" d="M1771.6 252.352 Q1773.85 253.116 1775.97 255.616 Q1778.12 258.116 1780.28 262.491 L1787.4 276.658 L1779.86 276.658 L1773.23 263.359 Q1770.66 258.151 1768.23 256.449 Q1765.83 254.748 1761.67 254.748 L1754.03 254.748 L1754.03 276.658 L1747.01 276.658 L1747.01 224.818 L1762.85 224.818 Q1771.74 224.818 1776.11 228.533 Q1780.49 232.248 1780.49 239.748 Q1780.49 244.644 1778.19 247.873 Q1775.94 251.102 1771.6 252.352 M1754.03 230.581 L1754.03 248.984 L1762.85 248.984 Q1767.92 248.984 1770.49 246.658 Q1773.09 244.297 1773.09 239.748 Q1773.09 235.199 1770.49 232.908 Q1767.92 230.581 1762.85 230.581 L1754.03 230.581 Z" fill="#000000" fill-rule="evenodd" fill-opacity="1" /><path clip-path="url(#clip590)" d="M1792.29 261.31 L1792.29 237.769 L1798.68 237.769 L1798.68 261.067 Q1798.68 266.588 1800.83 269.366 Q1802.99 272.109 1807.29 272.109 Q1812.46 272.109 1815.45 268.81 Q1818.47 265.512 1818.47 259.817 L1818.47 237.769 L1824.86 237.769 L1824.86 276.658 L1818.47 276.658 L1818.47 270.685 Q1816.15 274.227 1813.06 275.963 Q1810 277.664 1805.94 277.664 Q1799.24 277.664 1795.76 273.498 Q1792.29 269.331 1792.29 261.31 M1808.37 236.831 L1808.37 236.831 Z" fill="#000000" fill-rule="evenodd" fill-opacity="1" /><path clip-path="url(#clip590)" d="M1870.35 253.185 L1870.35 276.658 L1863.96 276.658 L1863.96 253.394 Q1863.96 247.873 1861.8 245.13 Q1859.65 242.387 1855.35 242.387 Q1850.17 242.387 1847.19 245.685 Q1844.2 248.984 1844.2 254.679 L1844.2 276.658 L1837.78 276.658 L1837.78 237.769 L1844.2 237.769 L1844.2 243.811 Q1846.49 240.304 1849.58 238.567 Q1852.71 236.831 1856.77 236.831 Q1863.47 236.831 1866.91 240.998 Q1870.35 245.13 1870.35 253.185 Z" fill="#000000" fill-rule="evenodd" fill-opacity="1" /><path clip-path="url(#clip590)" d="M1908.68 256.762 Q1908.68 249.817 1905.8 245.998 Q1902.95 242.179 1897.78 242.179 Q1892.64 242.179 1889.76 245.998 Q1886.91 249.817 1886.91 256.762 Q1886.91 263.672 1889.76 267.491 Q1892.64 271.31 1897.78 271.31 Q1902.95 271.31 1905.8 267.491 Q1908.68 263.672 1908.68 256.762 M1915.07 271.831 Q1915.07 281.762 1910.66 286.588 Q1906.25 291.449 1897.15 291.449 Q1893.78 291.449 1890.8 290.928 Q1887.81 290.442 1885 289.401 L1885 283.185 Q1887.81 284.713 1890.55 285.442 Q1893.3 286.171 1896.15 286.171 Q1902.43 286.171 1905.55 282.873 Q1908.68 279.609 1908.68 272.977 L1908.68 269.817 Q1906.7 273.255 1903.61 274.956 Q1900.52 276.658 1896.21 276.658 Q1889.06 276.658 1884.69 271.206 Q1880.31 265.755 1880.31 256.762 Q1880.31 247.734 1884.69 242.283 Q1889.06 236.831 1896.21 236.831 Q1900.52 236.831 1903.61 238.533 Q1906.7 240.234 1908.68 243.672 L1908.68 237.769 L1915.07 237.769 L1915.07 271.831 Z" fill="#000000" fill-rule="evenodd" fill-opacity="1" /><path clip-path="url(#clip590)" d="M1961.49 255.616 L1961.49 258.741 L1932.12 258.741 Q1932.53 265.338 1936.08 268.81 Q1939.65 272.248 1946.01 272.248 Q1949.69 272.248 1953.12 271.345 Q1956.6 270.442 1960 268.637 L1960 274.678 Q1956.56 276.137 1952.95 276.901 Q1949.34 277.664 1945.62 277.664 Q1936.32 277.664 1930.87 272.248 Q1925.45 266.831 1925.45 257.595 Q1925.45 248.047 1930.59 242.456 Q1935.76 236.831 1944.51 236.831 Q1952.36 236.831 1956.91 241.901 Q1961.49 246.935 1961.49 255.616 M1955.1 253.741 Q1955.03 248.498 1952.15 245.373 Q1949.3 242.248 1944.58 242.248 Q1939.24 242.248 1936.01 245.269 Q1932.81 248.29 1932.33 253.776 L1955.1 253.741 Z" fill="#000000" fill-rule="evenodd" fill-opacity="1" /><polyline clip-path="url(#clip590)" style="stroke:#3da44d; stroke-linecap:round; stroke-linejoin:round; stroke-width:6; stroke-opacity:1; fill:none" points="
  1575.49,328.498 1722.51,328.498 
  "/>
<path clip-path="url(#clip590)" d="M1788.82 306.571 L1788.82 313.966 Q1785.28 310.668 1781.25 309.036 Q1777.26 307.404 1772.74 307.404 Q1763.85 307.404 1759.13 312.855 Q1754.41 318.272 1754.41 328.55 Q1754.41 338.793 1759.13 344.244 Q1763.85 349.661 1772.74 349.661 Q1777.26 349.661 1781.25 348.029 Q1785.28 346.397 1788.82 343.098 L1788.82 350.425 Q1785.14 352.925 1781.01 354.174 Q1776.91 355.424 1772.33 355.424 Q1760.56 355.424 1753.78 348.237 Q1747.01 341.015 1747.01 328.55 Q1747.01 316.05 1753.78 308.862 Q1760.56 301.64 1772.33 301.64 Q1776.98 301.64 1781.08 302.89 Q1785.21 304.105 1788.82 306.571 Z" fill="#000000" fill-rule="evenodd" fill-opacity="1" /><path clip-path="url(#clip590)" d="M1831.7 330.945 L1831.7 354.418 L1825.31 354.418 L1825.31 331.154 Q1825.31 325.633 1823.16 322.89 Q1821.01 320.147 1816.7 320.147 Q1811.53 320.147 1808.54 323.445 Q1805.56 326.744 1805.56 332.439 L1805.56 354.418 L1799.13 354.418 L1799.13 300.39 L1805.56 300.39 L1805.56 321.571 Q1807.85 318.064 1810.94 316.327 Q1814.06 314.591 1818.12 314.591 Q1824.83 314.591 1828.26 318.758 Q1831.7 322.89 1831.7 330.945 Z" fill="#000000" fill-rule="evenodd" fill-opacity="1" /><path clip-path="url(#clip590)" d="M1877.71 333.376 L1877.71 336.501 L1848.33 336.501 Q1848.75 343.098 1852.29 346.57 Q1855.87 350.008 1862.22 350.008 Q1865.9 350.008 1869.34 349.105 Q1872.81 348.202 1876.21 346.397 L1876.21 352.438 Q1872.78 353.897 1869.17 354.661 Q1865.55 355.424 1861.84 355.424 Q1852.53 355.424 1847.08 350.008 Q1841.67 344.591 1841.67 335.355 Q1841.67 325.807 1846.81 320.216 Q1851.98 314.591 1860.73 314.591 Q1868.58 314.591 1873.12 319.661 Q1877.71 324.695 1877.71 333.376 M1871.32 331.501 Q1871.25 326.258 1868.37 323.133 Q1865.52 320.008 1860.8 320.008 Q1855.45 320.008 1852.22 323.029 Q1849.03 326.05 1848.54 331.536 L1871.32 331.501 Z" fill="#000000" fill-rule="evenodd" fill-opacity="1" /><path clip-path="url(#clip590)" d="M1916.11 335.008 Q1916.11 327.959 1913.19 323.966 Q1910.31 319.939 1905.24 319.939 Q1900.17 319.939 1897.26 323.966 Q1894.37 327.959 1894.37 335.008 Q1894.37 342.057 1897.26 346.084 Q1900.17 350.077 1905.24 350.077 Q1910.31 350.077 1913.19 346.084 Q1916.11 342.057 1916.11 335.008 M1894.37 321.432 Q1896.39 317.959 1899.44 316.293 Q1902.53 314.591 1906.8 314.591 Q1913.89 314.591 1918.3 320.216 Q1922.74 325.841 1922.74 335.008 Q1922.74 344.175 1918.3 349.8 Q1913.89 355.424 1906.8 355.424 Q1902.53 355.424 1899.44 353.758 Q1896.39 352.056 1894.37 348.584 L1894.37 354.418 L1887.95 354.418 L1887.95 300.39 L1894.37 300.39 L1894.37 321.432 Z" fill="#000000" fill-rule="evenodd" fill-opacity="1" /><path clip-path="url(#clip590)" d="M1949.51 358.029 Q1946.8 364.973 1944.24 367.091 Q1941.67 369.209 1937.36 369.209 L1932.26 369.209 L1932.26 363.862 L1936.01 363.862 Q1938.64 363.862 1940.1 362.612 Q1941.56 361.362 1943.33 356.709 L1944.48 353.793 L1928.75 315.529 L1935.52 315.529 L1947.67 345.945 L1959.83 315.529 L1966.6 315.529 L1949.51 358.029 Z" fill="#000000" fill-rule="evenodd" fill-opacity="1" /><path clip-path="url(#clip590)" d="M2000.21 316.675 L2000.21 322.716 Q1997.5 321.327 1994.58 320.633 Q1991.67 319.939 1988.54 319.939 Q1983.78 319.939 1981.39 321.397 Q1979.03 322.855 1979.03 325.772 Q1979.03 327.994 1980.73 329.279 Q1982.43 330.529 1987.57 331.675 L1989.76 332.161 Q1996.56 333.619 1999.41 336.293 Q2002.29 338.932 2002.29 343.688 Q2002.29 349.105 1997.98 352.265 Q1993.71 355.424 1986.21 355.424 Q1983.09 355.424 1979.69 354.799 Q1976.32 354.209 1972.57 352.994 L1972.57 346.397 Q1976.11 348.237 1979.55 349.175 Q1982.98 350.077 1986.35 350.077 Q1990.87 350.077 1993.3 348.55 Q1995.73 346.987 1995.73 344.175 Q1995.73 341.57 1993.96 340.182 Q1992.22 338.793 1986.28 337.508 L1984.06 336.987 Q1978.12 335.737 1975.48 333.168 Q1972.85 330.564 1972.85 326.05 Q1972.85 320.564 1976.73 317.577 Q1980.62 314.591 1987.78 314.591 Q1991.32 314.591 1994.44 315.112 Q1997.57 315.633 2000.21 316.675 Z" fill="#000000" fill-rule="evenodd" fill-opacity="1" /><path clip-path="url(#clip590)" d="M2044.79 330.945 L2044.79 354.418 L2038.4 354.418 L2038.4 331.154 Q2038.4 325.633 2036.25 322.89 Q2034.1 320.147 2029.79 320.147 Q2024.62 320.147 2021.63 323.445 Q2018.64 326.744 2018.64 332.439 L2018.64 354.418 L2012.22 354.418 L2012.22 300.39 L2018.64 300.39 L2018.64 321.571 Q2020.94 318.064 2024.03 316.327 Q2027.15 314.591 2031.21 314.591 Q2037.92 314.591 2041.35 318.758 Q2044.79 322.89 2044.79 330.945 Z" fill="#000000" fill-rule="evenodd" fill-opacity="1" /><path clip-path="url(#clip590)" d="M2090.8 333.376 L2090.8 336.501 L2061.42 336.501 Q2061.84 343.098 2065.38 346.57 Q2068.96 350.008 2075.31 350.008 Q2078.99 350.008 2082.43 349.105 Q2085.9 348.202 2089.3 346.397 L2089.3 352.438 Q2085.87 353.897 2082.26 354.661 Q2078.64 355.424 2074.93 355.424 Q2065.62 355.424 2060.17 350.008 Q2054.76 344.591 2054.76 335.355 Q2054.76 325.807 2059.89 320.216 Q2065.07 314.591 2073.82 314.591 Q2081.66 314.591 2086.21 319.661 Q2090.8 324.695 2090.8 333.376 M2084.41 331.501 Q2084.34 326.258 2081.46 323.133 Q2078.61 320.008 2073.89 320.008 Q2068.54 320.008 2065.31 323.029 Q2062.12 326.05 2061.63 331.536 L2084.41 331.501 Z" fill="#000000" fill-rule="evenodd" fill-opacity="1" /><path clip-path="url(#clip590)" d="M2096.7 315.529 L2103.47 315.529 L2115.62 348.168 L2127.78 315.529 L2134.55 315.529 L2119.96 354.418 L2111.28 354.418 L2096.7 315.529 Z" fill="#000000" fill-rule="evenodd" fill-opacity="1" /><path clip-path="url(#clip590)" d="M2185.66 300.39 L2185.66 305.703 L2179.55 305.703 Q2176.11 305.703 2174.75 307.091 Q2173.44 308.48 2173.44 312.091 L2173.44 315.529 L2183.96 315.529 L2183.96 320.494 L2173.44 320.494 L2173.44 354.418 L2167.01 354.418 L2167.01 320.494 L2160.9 320.494 L2160.9 315.529 L2167.01 315.529 L2167.01 312.821 Q2167.01 306.328 2170.03 303.376 Q2173.05 300.39 2179.62 300.39 L2185.66 300.39 Z" fill="#000000" fill-rule="evenodd" fill-opacity="1" /><path clip-path="url(#clip590)" d="M2191 315.529 L2197.39 315.529 L2197.39 354.418 L2191 354.418 L2191 315.529 M2191 300.39 L2197.39 300.39 L2197.39 308.48 L2191 308.48 L2191 300.39 Z" fill="#000000" fill-rule="evenodd" fill-opacity="1" /><path clip-path="url(#clip590)" d="M2217.08 304.487 L2217.08 315.529 L2230.24 315.529 L2230.24 320.494 L2217.08 320.494 L2217.08 341.605 Q2217.08 346.362 2218.37 347.716 Q2219.68 349.07 2223.68 349.07 L2230.24 349.07 L2230.24 354.418 L2223.68 354.418 Q2216.28 354.418 2213.47 351.675 Q2210.66 348.897 2210.66 341.605 L2210.66 320.494 L2205.97 320.494 L2205.97 315.529 L2210.66 315.529 L2210.66 304.487 L2217.08 304.487 Z" fill="#000000" fill-rule="evenodd" fill-opacity="1" /><polyline clip-path="url(#clip590)" style="stroke:#c271d2; stroke-linecap:round; stroke-linejoin:round; stroke-width:6; stroke-opacity:1; fill:none" points="
  1575.49,406.258 1722.51,406.258 
  "/>
<path clip-path="url(#clip590)" d="M1771.6 407.872 Q1773.85 408.636 1775.97 411.136 Q1778.12 413.636 1780.28 418.011 L1787.4 432.178 L1779.86 432.178 L1773.23 418.879 Q1770.66 413.671 1768.23 411.969 Q1765.83 410.268 1761.67 410.268 L1754.03 410.268 L1754.03 432.178 L1747.01 432.178 L1747.01 380.338 L1762.85 380.338 Q1771.74 380.338 1776.11 384.053 Q1780.49 387.768 1780.49 395.268 Q1780.49 400.164 1778.19 403.393 Q1775.94 406.622 1771.6 407.872 M1754.03 386.101 L1754.03 404.504 L1762.85 404.504 Q1767.92 404.504 1770.49 402.178 Q1773.09 399.817 1773.09 395.268 Q1773.09 390.719 1770.49 388.428 Q1767.92 386.101 1762.85 386.101 L1754.03 386.101 Z" fill="#000000" fill-rule="evenodd" fill-opacity="1" /><path clip-path="url(#clip590)" d="M1812.26 412.629 Q1804.51 412.629 1801.53 414.4 Q1798.54 416.171 1798.54 420.442 Q1798.54 423.844 1800.76 425.858 Q1803.02 427.837 1806.87 427.837 Q1812.19 427.837 1815.38 424.087 Q1818.61 420.303 1818.61 414.053 L1818.61 412.629 L1812.26 412.629 M1825 409.99 L1825 432.178 L1818.61 432.178 L1818.61 426.275 Q1816.42 429.816 1813.16 431.518 Q1809.9 433.184 1805.17 433.184 Q1799.2 433.184 1795.66 429.851 Q1792.15 426.483 1792.15 420.858 Q1792.15 414.296 1796.53 410.962 Q1800.94 407.629 1809.65 407.629 L1818.61 407.629 L1818.61 407.004 Q1818.61 402.594 1815.69 400.199 Q1812.81 397.768 1807.57 397.768 Q1804.24 397.768 1801.08 398.567 Q1797.92 399.365 1795 400.962 L1795 395.06 Q1798.51 393.706 1801.81 393.046 Q1805.1 392.351 1808.23 392.351 Q1816.67 392.351 1820.83 396.726 Q1825 401.101 1825 409.99 Z" fill="#000000" fill-rule="evenodd" fill-opacity="1" /><path clip-path="url(#clip590)" d="M1844.48 382.247 L1844.48 393.289 L1857.64 393.289 L1857.64 398.254 L1844.48 398.254 L1844.48 419.365 Q1844.48 424.122 1845.76 425.476 Q1847.08 426.83 1851.08 426.83 L1857.64 426.83 L1857.64 432.178 L1851.08 432.178 Q1843.68 432.178 1840.87 429.435 Q1838.06 426.657 1838.06 419.365 L1838.06 398.254 L1833.37 398.254 L1833.37 393.289 L1838.06 393.289 L1838.06 382.247 L1844.48 382.247 Z" fill="#000000" fill-rule="evenodd" fill-opacity="1" /><path clip-path="url(#clip590)" d="M1866.04 393.289 L1872.43 393.289 L1872.43 432.178 L1866.04 432.178 L1866.04 393.289 M1866.04 378.15 L1872.43 378.15 L1872.43 386.24 L1866.04 386.24 L1866.04 378.15 Z" fill="#000000" fill-rule="evenodd" fill-opacity="1" /><path clip-path="url(#clip590)" d="M1900.87 397.768 Q1895.73 397.768 1892.74 401.796 Q1889.76 405.789 1889.76 412.768 Q1889.76 419.747 1892.71 423.775 Q1895.69 427.768 1900.87 427.768 Q1905.97 427.768 1908.96 423.74 Q1911.94 419.712 1911.94 412.768 Q1911.94 405.858 1908.96 401.83 Q1905.97 397.768 1900.87 397.768 M1900.87 392.351 Q1909.2 392.351 1913.96 397.768 Q1918.71 403.185 1918.71 412.768 Q1918.71 422.316 1913.96 427.768 Q1909.2 433.184 1900.87 433.184 Q1892.5 433.184 1887.74 427.768 Q1883.02 422.316 1883.02 412.768 Q1883.02 403.185 1887.74 397.768 Q1892.5 392.351 1900.87 392.351 Z" fill="#000000" fill-rule="evenodd" fill-opacity="1" /><path clip-path="url(#clip590)" d="M1961.63 408.705 L1961.63 432.178 L1955.24 432.178 L1955.24 408.914 Q1955.24 403.393 1953.09 400.65 Q1950.94 397.907 1946.63 397.907 Q1941.46 397.907 1938.47 401.205 Q1935.49 404.504 1935.49 410.199 L1935.49 432.178 L1929.06 432.178 L1929.06 393.289 L1935.49 393.289 L1935.49 399.331 Q1937.78 395.824 1940.87 394.087 Q1943.99 392.351 1948.05 392.351 Q1954.76 392.351 1958.19 396.518 Q1961.63 400.65 1961.63 408.705 Z" fill="#000000" fill-rule="evenodd" fill-opacity="1" /><path clip-path="url(#clip590)" d="M1992.05 412.629 Q1984.3 412.629 1981.32 414.4 Q1978.33 416.171 1978.33 420.442 Q1978.33 423.844 1980.55 425.858 Q1982.81 427.837 1986.67 427.837 Q1991.98 427.837 1995.17 424.087 Q1998.4 420.303 1998.4 414.053 L1998.4 412.629 L1992.05 412.629 M2004.79 409.99 L2004.79 432.178 L1998.4 432.178 L1998.4 426.275 Q1996.21 429.816 1992.95 431.518 Q1989.69 433.184 1984.96 433.184 Q1978.99 433.184 1975.45 429.851 Q1971.94 426.483 1971.94 420.858 Q1971.94 414.296 1976.32 410.962 Q1980.73 407.629 1989.44 407.629 L1998.4 407.629 L1998.4 407.004 Q1998.4 402.594 1995.48 400.199 Q1992.6 397.768 1987.36 397.768 Q1984.03 397.768 1980.87 398.567 Q1977.71 399.365 1974.79 400.962 L1974.79 395.06 Q1978.3 393.706 1981.6 393.046 Q1984.89 392.351 1988.02 392.351 Q1996.46 392.351 2000.62 396.726 Q2004.79 401.101 2004.79 409.99 Z" fill="#000000" fill-rule="evenodd" fill-opacity="1" /><path clip-path="url(#clip590)" d="M2017.95 378.15 L2024.34 378.15 L2024.34 432.178 L2017.95 432.178 L2017.95 378.15 Z" fill="#000000" fill-rule="evenodd" fill-opacity="1" /><path clip-path="url(#clip590)" d="M2080 378.15 L2080 383.463 L2073.89 383.463 Q2070.45 383.463 2069.1 384.851 Q2067.78 386.24 2067.78 389.851 L2067.78 393.289 L2078.3 393.289 L2078.3 398.254 L2067.78 398.254 L2067.78 432.178 L2061.35 432.178 L2061.35 398.254 L2055.24 398.254 L2055.24 393.289 L2061.35 393.289 L2061.35 390.581 Q2061.35 384.088 2064.37 381.136 Q2067.39 378.15 2073.96 378.15 L2080 378.15 Z" fill="#000000" fill-rule="evenodd" fill-opacity="1" /><path clip-path="url(#clip590)" d="M2085.35 393.289 L2091.73 393.289 L2091.73 432.178 L2085.35 432.178 L2085.35 393.289 M2085.35 378.15 L2091.73 378.15 L2091.73 386.24 L2085.35 386.24 L2085.35 378.15 Z" fill="#000000" fill-rule="evenodd" fill-opacity="1" /><path clip-path="url(#clip590)" d="M2111.42 382.247 L2111.42 393.289 L2124.58 393.289 L2124.58 398.254 L2111.42 398.254 L2111.42 419.365 Q2111.42 424.122 2112.71 425.476 Q2114.03 426.83 2118.02 426.83 L2124.58 426.83 L2124.58 432.178 L2118.02 432.178 Q2110.62 432.178 2107.81 429.435 Q2105 426.657 2105 419.365 L2105 398.254 L2100.31 398.254 L2100.31 393.289 L2105 393.289 L2105 382.247 L2111.42 382.247 Z" fill="#000000" fill-rule="evenodd" fill-opacity="1" /></svg>
