<?xml version="1.0" encoding="utf-8"?>
<svg xmlns="http://www.w3.org/2000/svg" xmlns:xlink="http://www.w3.org/1999/xlink" width="600" height="400" viewBox="0 0 2400 1600">
<defs>
  <clipPath id="clip210">
    <rect x="0" y="0" width="2400" height="1600"/>
  </clipPath>
</defs>
<path clip-path="url(#clip210)" d="
M0 1600 L2400 1600 L2400 0 L0 0  Z
  " fill="#ffffff" fill-rule="evenodd" fill-opacity="1"/>
<defs>
  <clipPath id="clip211">
    <rect x="480" y="0" width="1681" height="1600"/>
  </clipPath>
</defs>
<path clip-path="url(#clip210)" d="
M202.177 1486.45 L2352.76 1486.45 L2352.76 47.2441 L202.177 47.2441  Z
  " fill="#ffffff" fill-rule="evenodd" fill-opacity="1"/>
<defs>
  <clipPath id="clip212">
    <rect x="202" y="47" width="2152" height="1440"/>
  </clipPath>
</defs>
<polyline clip-path="url(#clip212)" style="stroke:#000000; stroke-linecap:butt; stroke-linejoin:round; stroke-width:2; stroke-opacity:0.1; fill:none" points="
  202.177,1486.45 202.177,47.2441 
  "/>
<polyline clip-path="url(#clip212)" style="stroke:#000000; stroke-linecap:butt; stroke-linejoin:round; stroke-width:2; stroke-opacity:0.1; fill:none" points="
  739.821,1486.45 739.821,47.2441 
  "/>
<polyline clip-path="url(#clip212)" style="stroke:#000000; stroke-linecap:butt; stroke-linejoin:round; stroke-width:2; stroke-opacity:0.1; fill:none" points="
  1277.47,1486.45 1277.47,47.2441 
  "/>
<polyline clip-path="url(#clip212)" style="stroke:#000000; stroke-linecap:butt; stroke-linejoin:round; stroke-width:2; stroke-opacity:0.1; fill:none" points="
  1815.11,1486.45 1815.11,47.2441 
  "/>
<polyline clip-path="url(#clip212)" style="stroke:#000000; stroke-linecap:butt; stroke-linejoin:round; stroke-width:2; stroke-opacity:0.1; fill:none" points="
  2352.76,1486.45 2352.76,47.2441 
  "/>
<polyline clip-path="url(#clip210)" style="stroke:#000000; stroke-linecap:butt; stroke-linejoin:round; stroke-width:4; stroke-opacity:1; fill:none" points="
  202.177,1486.45 2352.76,1486.45 
  "/>
<polyline clip-path="url(#clip210)" style="stroke:#000000; stroke-linecap:butt; stroke-linejoin:round; stroke-width:4; stroke-opacity:1; fill:none" points="
  202.177,1486.45 202.177,1467.55 
  "/>
<polyline clip-path="url(#clip210)" style="stroke:#000000; stroke-linecap:butt; stroke-linejoin:round; stroke-width:4; stroke-opacity:1; fill:none" points="
  739.821,1486.45 739.821,1467.55 
  "/>
<polyline clip-path="url(#clip210)" style="stroke:#000000; stroke-linecap:butt; stroke-linejoin:round; stroke-width:4; stroke-opacity:1; fill:none" points="
  1277.47,1486.45 1277.47,1467.55 
  "/>
<polyline clip-path="url(#clip210)" style="stroke:#000000; stroke-linecap:butt; stroke-linejoin:round; stroke-width:4; stroke-opacity:1; fill:none" points="
  1815.11,1486.45 1815.11,1467.55 
  "/>
<polyline clip-path="url(#clip210)" style="stroke:#000000; stroke-linecap:butt; stroke-linejoin:round; stroke-width:4; stroke-opacity:1; fill:none" points="
  2352.76,1486.45 2352.76,1467.55 
  "/>
<path clip-path="url(#clip210)" d="M171.077 1532.02 L200.753 1532.02 L200.753 1535.95 L171.077 1535.95 L171.077 1532.02 Z" fill="#000000" fill-rule="evenodd" fill-opacity="1" /><path clip-path="url(#clip210)" d="M223.693 1518.36 L211.887 1536.81 L223.693 1536.81 L223.693 1518.36 M222.466 1514.29 L228.346 1514.29 L228.346 1536.81 L233.276 1536.81 L233.276 1540.7 L228.346 1540.7 L228.346 1548.85 L223.693 1548.85 L223.693 1540.7 L208.091 1540.7 L208.091 1536.19 L222.466 1514.29 Z" fill="#000000" fill-rule="evenodd" fill-opacity="1" /><path clip-path="url(#clip210)" d="M709.764 1532.02 L739.44 1532.02 L739.44 1535.95 L709.764 1535.95 L709.764 1532.02 Z" fill="#000000" fill-rule="evenodd" fill-opacity="1" /><path clip-path="url(#clip210)" d="M753.56 1544.91 L769.879 1544.91 L769.879 1548.85 L747.935 1548.85 L747.935 1544.91 Q750.597 1542.16 755.18 1537.53 Q759.787 1532.88 760.967 1531.53 Q763.213 1529.01 764.092 1527.27 Q764.995 1525.51 764.995 1523.82 Q764.995 1521.07 763.051 1519.33 Q761.129 1517.6 758.027 1517.6 Q755.828 1517.6 753.375 1518.36 Q750.944 1519.13 748.166 1520.68 L748.166 1515.95 Q750.99 1514.82 753.444 1514.24 Q755.898 1513.66 757.935 1513.66 Q763.305 1513.66 766.5 1516.35 Q769.694 1519.03 769.694 1523.52 Q769.694 1525.65 768.884 1527.57 Q768.097 1529.47 765.99 1532.07 Q765.412 1532.74 762.31 1535.95 Q759.208 1539.15 753.56 1544.91 Z" fill="#000000" fill-rule="evenodd" fill-opacity="1" /><path clip-path="url(#clip210)" d="M1277.47 1517.37 Q1273.86 1517.37 1272.03 1520.93 Q1270.22 1524.47 1270.22 1531.6 Q1270.22 1538.71 1272.03 1542.27 Q1273.86 1545.82 1277.47 1545.82 Q1281.1 1545.82 1282.91 1542.27 Q1284.73 1538.71 1284.73 1531.6 Q1284.73 1524.47 1282.91 1520.93 Q1281.1 1517.37 1277.47 1517.37 M1277.47 1513.66 Q1283.28 1513.66 1286.33 1518.27 Q1289.41 1522.85 1289.41 1531.6 Q1289.41 1540.33 1286.33 1544.94 Q1283.28 1549.52 1277.47 1549.52 Q1271.66 1549.52 1268.58 1544.94 Q1265.52 1540.33 1265.52 1531.6 Q1265.52 1522.85 1268.58 1518.27 Q1271.66 1513.66 1277.47 1513.66 Z" fill="#000000" fill-rule="evenodd" fill-opacity="1" /><path clip-path="url(#clip210)" d="M1809.76 1544.91 L1826.08 1544.91 L1826.08 1548.85 L1804.14 1548.85 L1804.14 1544.91 Q1806.8 1542.16 1811.38 1537.53 Q1815.99 1532.88 1817.17 1531.53 Q1819.42 1529.01 1820.3 1527.27 Q1821.2 1525.51 1821.2 1523.82 Q1821.2 1521.07 1819.25 1519.33 Q1817.33 1517.6 1814.23 1517.6 Q1812.03 1517.6 1809.58 1518.36 Q1807.15 1519.13 1804.37 1520.68 L1804.37 1515.95 Q1807.19 1514.82 1809.65 1514.24 Q1812.1 1513.66 1814.14 1513.66 Q1819.51 1513.66 1822.7 1516.35 Q1825.9 1519.03 1825.9 1523.52 Q1825.9 1525.65 1825.09 1527.57 Q1824.3 1529.47 1822.19 1532.07 Q1821.62 1532.74 1818.51 1535.95 Q1815.41 1539.15 1809.76 1544.91 Z" fill="#000000" fill-rule="evenodd" fill-opacity="1" /><path clip-path="url(#clip210)" d="M2355.77 1518.36 L2343.96 1536.81 L2355.77 1536.81 L2355.77 1518.36 M2354.54 1514.29 L2360.42 1514.29 L2360.42 1536.81 L2365.35 1536.81 L2365.35 1540.7 L2360.42 1540.7 L2360.42 1548.85 L2355.77 1548.85 L2355.77 1540.7 L2340.16 1540.7 L2340.16 1536.19 L2354.54 1514.29 Z" fill="#000000" fill-rule="evenodd" fill-opacity="1" /><polyline clip-path="url(#clip212)" style="stroke:#000000; stroke-linecap:butt; stroke-linejoin:round; stroke-width:2; stroke-opacity:0.1; fill:none" points="
  202.177,1445.72 2352.76,1445.72 
  "/>
<polyline clip-path="url(#clip212)" style="stroke:#000000; stroke-linecap:butt; stroke-linejoin:round; stroke-width:2; stroke-opacity:0.1; fill:none" points="
  202.177,1105.31 2352.76,1105.31 
  "/>
<polyline clip-path="url(#clip212)" style="stroke:#000000; stroke-linecap:butt; stroke-linejoin:round; stroke-width:2; stroke-opacity:0.1; fill:none" points="
  202.177,764.913 2352.76,764.913 
  "/>
<polyline clip-path="url(#clip212)" style="stroke:#000000; stroke-linecap:butt; stroke-linejoin:round; stroke-width:2; stroke-opacity:0.1; fill:none" points="
  202.177,424.512 2352.76,424.512 
  "/>
<polyline clip-path="url(#clip212)" style="stroke:#000000; stroke-linecap:butt; stroke-linejoin:round; stroke-width:2; stroke-opacity:0.1; fill:none" points="
  202.177,84.1112 2352.76,84.1112 
  "/>
<polyline clip-path="url(#clip210)" style="stroke:#000000; stroke-linecap:butt; stroke-linejoin:round; stroke-width:4; stroke-opacity:1; fill:none" points="
  202.177,1486.45 202.177,47.2441 
  "/>
<polyline clip-path="url(#clip210)" style="stroke:#000000; stroke-linecap:butt; stroke-linejoin:round; stroke-width:4; stroke-opacity:1; fill:none" points="
  202.177,1445.72 221.074,1445.72 
  "/>
<polyline clip-path="url(#clip210)" style="stroke:#000000; stroke-linecap:butt; stroke-linejoin:round; stroke-width:4; stroke-opacity:1; fill:none" points="
  202.177,1105.31 221.074,1105.31 
  "/>
<polyline clip-path="url(#clip210)" style="stroke:#000000; stroke-linecap:butt; stroke-linejoin:round; stroke-width:4; stroke-opacity:1; fill:none" points="
  202.177,764.913 221.074,764.913 
  "/>
<polyline clip-path="url(#clip210)" style="stroke:#000000; stroke-linecap:butt; stroke-linejoin:round; stroke-width:4; stroke-opacity:1; fill:none" points="
  202.177,424.512 221.074,424.512 
  "/>
<polyline clip-path="url(#clip210)" style="stroke:#000000; stroke-linecap:butt; stroke-linejoin:round; stroke-width:4; stroke-opacity:1; fill:none" points="
  202.177,84.1112 221.074,84.1112 
  "/>
<path clip-path="url(#clip210)" d="M154.232 1431.51 Q150.621 1431.51 148.793 1435.08 Q146.987 1438.62 146.987 1445.75 Q146.987 1452.86 148.793 1456.42 Q150.621 1459.96 154.232 1459.96 Q157.867 1459.96 159.672 1456.42 Q161.501 1452.86 161.501 1445.75 Q161.501 1438.62 159.672 1435.08 Q157.867 1431.51 154.232 1431.51 M154.232 1427.81 Q160.042 1427.81 163.098 1432.42 Q166.177 1437 166.177 1445.75 Q166.177 1454.48 163.098 1459.08 Q160.042 1463.67 154.232 1463.67 Q148.422 1463.67 145.343 1459.08 Q142.288 1454.48 142.288 1445.75 Q142.288 1437 145.343 1432.42 Q148.422 1427.81 154.232 1427.81 Z" fill="#000000" fill-rule="evenodd" fill-opacity="1" /><path clip-path="url(#clip210)" d="M54.5569 1118.66 L62.1958 1118.66 L62.1958 1092.29 L53.8856 1093.96 L53.8856 1089.7 L62.1495 1088.03 L66.8254 1088.03 L66.8254 1118.66 L74.4642 1118.66 L74.4642 1122.59 L54.5569 1122.59 L54.5569 1118.66 Z" fill="#000000" fill-rule="evenodd" fill-opacity="1" /><path clip-path="url(#clip210)" d="M93.9086 1091.11 Q90.2975 1091.11 88.4688 1094.68 Q86.6632 1098.22 86.6632 1105.35 Q86.6632 1112.46 88.4688 1116.02 Q90.2975 1119.56 93.9086 1119.56 Q97.5428 1119.56 99.3483 1116.02 Q101.177 1112.46 101.177 1105.35 Q101.177 1098.22 99.3483 1094.68 Q97.5428 1091.11 93.9086 1091.11 M93.9086 1087.41 Q99.7187 1087.41 102.774 1092.02 Q105.853 1096.6 105.853 1105.35 Q105.853 1114.08 102.774 1118.68 Q99.7187 1123.27 93.9086 1123.27 Q88.0984 1123.27 85.0197 1118.68 Q81.9642 1114.08 81.9642 1105.35 Q81.9642 1096.6 85.0197 1092.02 Q88.0984 1087.41 93.9086 1087.41 Z" fill="#000000" fill-rule="evenodd" fill-opacity="1" /><path clip-path="url(#clip210)" d="M124.07 1091.11 Q120.459 1091.11 118.631 1094.68 Q116.825 1098.22 116.825 1105.35 Q116.825 1112.46 118.631 1116.02 Q120.459 1119.56 124.07 1119.56 Q127.705 1119.56 129.51 1116.02 Q131.339 1112.46 131.339 1105.35 Q131.339 1098.22 129.51 1094.68 Q127.705 1091.11 124.07 1091.11 M124.07 1087.41 Q129.881 1087.41 132.936 1092.02 Q136.015 1096.6 136.015 1105.35 Q136.015 1114.08 132.936 1118.68 Q129.881 1123.27 124.07 1123.27 Q118.26 1123.27 115.182 1118.68 Q112.126 1114.08 112.126 1105.35 Q112.126 1096.6 115.182 1092.02 Q118.26 1087.41 124.07 1087.41 Z" fill="#000000" fill-rule="evenodd" fill-opacity="1" /><path clip-path="url(#clip210)" d="M154.232 1091.11 Q150.621 1091.11 148.793 1094.68 Q146.987 1098.22 146.987 1105.35 Q146.987 1112.46 148.793 1116.02 Q150.621 1119.56 154.232 1119.56 Q157.867 1119.56 159.672 1116.02 Q161.501 1112.46 161.501 1105.35 Q161.501 1098.22 159.672 1094.68 Q157.867 1091.11 154.232 1091.11 M154.232 1087.41 Q160.042 1087.41 163.098 1092.02 Q166.177 1096.6 166.177 1105.35 Q166.177 1114.08 163.098 1118.68 Q160.042 1123.27 154.232 1123.27 Q148.422 1123.27 145.343 1118.68 Q142.288 1114.08 142.288 1105.35 Q142.288 1096.6 145.343 1092.02 Q148.422 1087.41 154.232 1087.41 Z" fill="#000000" fill-rule="evenodd" fill-opacity="1" /><path clip-path="url(#clip210)" d="M57.7745 778.258 L74.0939 778.258 L74.0939 782.193 L52.1495 782.193 L52.1495 778.258 Q54.8115 775.504 59.3949 770.874 Q64.0013 766.221 65.1819 764.879 Q67.4272 762.356 68.3068 760.619 Q69.2096 758.86 69.2096 757.17 Q69.2096 754.416 67.2652 752.68 Q65.3439 750.944 62.2421 750.944 Q60.043 750.944 57.5893 751.707 Q55.1588 752.471 52.381 754.022 L52.381 749.3 Q55.2051 748.166 57.6588 747.587 Q60.1124 747.008 62.1495 747.008 Q67.5198 747.008 70.7142 749.694 Q73.9087 752.379 73.9087 756.87 Q73.9087 758.999 73.0985 760.92 Q72.3115 762.819 70.205 765.411 Q69.6263 766.082 66.5245 769.3 Q63.4226 772.494 57.7745 778.258 Z" fill="#000000" fill-rule="evenodd" fill-opacity="1" /><path clip-path="url(#clip210)" d="M93.9086 750.712 Q90.2975 750.712 88.4688 754.277 Q86.6632 757.819 86.6632 764.948 Q86.6632 772.055 88.4688 775.619 Q90.2975 779.161 93.9086 779.161 Q97.5428 779.161 99.3483 775.619 Q101.177 772.055 101.177 764.948 Q101.177 757.819 99.3483 754.277 Q97.5428 750.712 93.9086 750.712 M93.9086 747.008 Q99.7187 747.008 102.774 751.615 Q105.853 756.198 105.853 764.948 Q105.853 773.675 102.774 778.281 Q99.7187 782.865 93.9086 782.865 Q88.0984 782.865 85.0197 778.281 Q81.9642 773.675 81.9642 764.948 Q81.9642 756.198 85.0197 751.615 Q88.0984 747.008 93.9086 747.008 Z" fill="#000000" fill-rule="evenodd" fill-opacity="1" /><path clip-path="url(#clip210)" d="M124.07 750.712 Q120.459 750.712 118.631 754.277 Q116.825 757.819 116.825 764.948 Q116.825 772.055 118.631 775.619 Q120.459 779.161 124.07 779.161 Q127.705 779.161 129.51 775.619 Q131.339 772.055 131.339 764.948 Q131.339 757.819 129.51 754.277 Q127.705 750.712 124.07 750.712 M124.07 747.008 Q129.881 747.008 132.936 751.615 Q136.015 756.198 136.015 764.948 Q136.015 773.675 132.936 778.281 Q129.881 782.865 124.07 782.865 Q118.26 782.865 115.182 778.281 Q112.126 773.675 112.126 764.948 Q112.126 756.198 115.182 751.615 Q118.26 747.008 124.07 747.008 Z" fill="#000000" fill-rule="evenodd" fill-opacity="1" /><path clip-path="url(#clip210)" d="M154.232 750.712 Q150.621 750.712 148.793 754.277 Q146.987 757.819 146.987 764.948 Q146.987 772.055 148.793 775.619 Q150.621 779.161 154.232 779.161 Q157.867 779.161 159.672 775.619 Q161.501 772.055 161.501 764.948 Q161.501 757.819 159.672 754.277 Q157.867 750.712 154.232 750.712 M154.232 747.008 Q160.042 747.008 163.098 751.615 Q166.177 756.198 166.177 764.948 Q166.177 773.675 163.098 778.281 Q160.042 782.865 154.232 782.865 Q148.422 782.865 145.343 778.281 Q142.288 773.675 142.288 764.948 Q142.288 756.198 145.343 751.615 Q148.422 747.008 154.232 747.008 Z" fill="#000000" fill-rule="evenodd" fill-opacity="1" /><path clip-path="url(#clip210)" d="M67.9133 423.158 Q71.2698 423.876 73.1448 426.144 Q75.0429 428.413 75.0429 431.746 Q75.0429 436.862 71.5244 439.663 Q68.0059 442.464 61.5245 442.464 Q59.3486 442.464 57.0338 442.024 Q54.7421 441.607 52.2884 440.751 L52.2884 436.237 Q54.2328 437.371 56.5477 437.95 Q58.8625 438.528 61.3856 438.528 Q65.7837 438.528 68.0754 436.792 Q70.3902 435.056 70.3902 431.746 Q70.3902 428.691 68.2374 426.978 Q66.1078 425.241 62.2884 425.241 L58.2606 425.241 L58.2606 421.399 L62.4735 421.399 Q65.9226 421.399 67.7513 420.033 Q69.58 418.644 69.58 416.052 Q69.58 413.39 67.6819 411.978 Q65.8069 410.542 62.2884 410.542 Q60.3671 410.542 58.168 410.959 Q55.969 411.376 53.3301 412.255 L53.3301 408.089 Q55.9921 407.348 58.3069 406.978 Q60.6449 406.607 62.705 406.607 Q68.0291 406.607 71.1309 409.038 Q74.2327 411.445 74.2327 415.566 Q74.2327 418.436 72.5892 420.427 Q70.9457 422.394 67.9133 423.158 Z" fill="#000000" fill-rule="evenodd" fill-opacity="1" /><path clip-path="url(#clip210)" d="M93.9086 410.311 Q90.2975 410.311 88.4688 413.876 Q86.6632 417.417 86.6632 424.547 Q86.6632 431.653 88.4688 435.218 Q90.2975 438.76 93.9086 438.76 Q97.5428 438.76 99.3483 435.218 Q101.177 431.653 101.177 424.547 Q101.177 417.417 99.3483 413.876 Q97.5428 410.311 93.9086 410.311 M93.9086 406.607 Q99.7187 406.607 102.774 411.214 Q105.853 415.797 105.853 424.547 Q105.853 433.274 102.774 437.88 Q99.7187 442.464 93.9086 442.464 Q88.0984 442.464 85.0197 437.88 Q81.9642 433.274 81.9642 424.547 Q81.9642 415.797 85.0197 411.214 Q88.0984 406.607 93.9086 406.607 Z" fill="#000000" fill-rule="evenodd" fill-opacity="1" /><path clip-path="url(#clip210)" d="M124.07 410.311 Q120.459 410.311 118.631 413.876 Q116.825 417.417 116.825 424.547 Q116.825 431.653 118.631 435.218 Q120.459 438.76 124.07 438.76 Q127.705 438.76 129.51 435.218 Q131.339 431.653 131.339 424.547 Q131.339 417.417 129.51 413.876 Q127.705 410.311 124.07 410.311 M124.07 406.607 Q129.881 406.607 132.936 411.214 Q136.015 415.797 136.015 424.547 Q136.015 433.274 132.936 437.88 Q129.881 442.464 124.07 442.464 Q118.26 442.464 115.182 437.88 Q112.126 433.274 112.126 424.547 Q112.126 415.797 115.182 411.214 Q118.26 406.607 124.07 406.607 Z" fill="#000000" fill-rule="evenodd" fill-opacity="1" /><path clip-path="url(#clip210)" d="M154.232 410.311 Q150.621 410.311 148.793 413.876 Q146.987 417.417 146.987 424.547 Q146.987 431.653 148.793 435.218 Q150.621 438.76 154.232 438.76 Q157.867 438.76 159.672 435.218 Q161.501 431.653 161.501 424.547 Q161.501 417.417 159.672 413.876 Q157.867 410.311 154.232 410.311 M154.232 406.607 Q160.042 406.607 163.098 411.214 Q166.177 415.797 166.177 424.547 Q166.177 433.274 163.098 437.88 Q160.042 442.464 154.232 442.464 Q148.422 442.464 145.343 437.88 Q142.288 433.274 142.288 424.547 Q142.288 415.797 145.343 411.214 Q148.422 406.607 154.232 406.607 Z" fill="#000000" fill-rule="evenodd" fill-opacity="1" /><path clip-path="url(#clip210)" d="M66.5939 70.9052 L54.7884 89.3542 L66.5939 89.3542 L66.5939 70.9052 M65.367 66.8312 L71.2466 66.8312 L71.2466 89.3542 L76.1772 89.3542 L76.1772 93.2431 L71.2466 93.2431 L71.2466 101.391 L66.5939 101.391 L66.5939 93.2431 L50.9921 93.2431 L50.9921 88.7292 L65.367 66.8312 Z" fill="#000000" fill-rule="evenodd" fill-opacity="1" /><path clip-path="url(#clip210)" d="M93.9086 69.9099 Q90.2975 69.9099 88.4688 73.4747 Q86.6632 77.0163 86.6632 84.1459 Q86.6632 91.2524 88.4688 94.8172 Q90.2975 98.3588 93.9086 98.3588 Q97.5428 98.3588 99.3483 94.8172 Q101.177 91.2524 101.177 84.1459 Q101.177 77.0163 99.3483 73.4747 Q97.5428 69.9099 93.9086 69.9099 M93.9086 66.2062 Q99.7187 66.2062 102.774 70.8127 Q105.853 75.396 105.853 84.1459 Q105.853 92.8727 102.774 97.4792 Q99.7187 102.062 93.9086 102.062 Q88.0984 102.062 85.0197 97.4792 Q81.9642 92.8727 81.9642 84.1459 Q81.9642 75.396 85.0197 70.8127 Q88.0984 66.2062 93.9086 66.2062 Z" fill="#000000" fill-rule="evenodd" fill-opacity="1" /><path clip-path="url(#clip210)" d="M124.07 69.9099 Q120.459 69.9099 118.631 73.4747 Q116.825 77.0163 116.825 84.1459 Q116.825 91.2524 118.631 94.8172 Q120.459 98.3588 124.07 98.3588 Q127.705 98.3588 129.51 94.8172 Q131.339 91.2524 131.339 84.1459 Q131.339 77.0163 129.51 73.4747 Q127.705 69.9099 124.07 69.9099 M124.07 66.2062 Q129.881 66.2062 132.936 70.8127 Q136.015 75.396 136.015 84.1459 Q136.015 92.8727 132.936 97.4792 Q129.881 102.062 124.07 102.062 Q118.26 102.062 115.182 97.4792 Q112.126 92.8727 112.126 84.1459 Q112.126 75.396 115.182 70.8127 Q118.26 66.2062 124.07 66.2062 Z" fill="#000000" fill-rule="evenodd" fill-opacity="1" /><path clip-path="url(#clip210)" d="M154.232 69.9099 Q150.621 69.9099 148.793 73.4747 Q146.987 77.0163 146.987 84.1459 Q146.987 91.2524 148.793 94.8172 Q150.621 98.3588 154.232 98.3588 Q157.867 98.3588 159.672 94.8172 Q161.501 91.2524 161.501 84.1459 Q161.501 77.0163 159.672 73.4747 Q157.867 69.9099 154.232 69.9099 M154.232 66.2062 Q160.042 66.2062 163.098 70.8127 Q166.177 75.396 166.177 84.1459 Q166.177 92.8727 163.098 97.4792 Q160.042 102.062 154.232 102.062 Q148.422 102.062 145.343 97.4792 Q142.288 92.8727 142.288 84.1459 Q142.288 75.396 145.343 70.8127 Q148.422 66.2062 154.232 66.2062 Z" fill="#000000" fill-rule="evenodd" fill-opacity="1" /><path clip-path="url(#clip212)" d="
M-66.6457 1444.01 L-66.6457 1445.72 L-12.8812 1445.72 L-12.8812 1444.01 L-66.6457 1444.01 L-66.6457 1444.01  Z
  " fill="#009af9" fill-rule="evenodd" fill-opacity="1"/>
<polyline clip-path="url(#clip212)" style="stroke:#000000; stroke-linecap:butt; stroke-linejoin:round; stroke-width:16; stroke-opacity:1; fill:none" points="
  -66.6457,1444.01 -66.6457,1445.72 -12.8812,1445.72 -12.8812,1444.01 -66.6457,1444.01 
  "/>
<path clip-path="url(#clip212)" d="
M-12.8812 1445.72 L-12.8812 1445.72 L40.8833 1445.72 L40.8833 1445.72 L-12.8812 1445.72 L-12.8812 1445.72  Z
  " fill="#009af9" fill-rule="evenodd" fill-opacity="1"/>
<polyline clip-path="url(#clip212)" style="stroke:#000000; stroke-linecap:butt; stroke-linejoin:round; stroke-width:16; stroke-opacity:1; fill:none" points="
  -12.8812,1445.72 -12.8812,1445.72 40.8833,1445.72 -12.8812,1445.72 
  "/>
<path clip-path="url(#clip212)" d="
M40.8833 1445.72 L40.8833 1445.72 L94.6477 1445.72 L94.6477 1445.72 L40.8833 1445.72 L40.8833 1445.72  Z
  " fill="#009af9" fill-rule="evenodd" fill-opacity="1"/>
<polyline clip-path="url(#clip212)" style="stroke:#000000; stroke-linecap:butt; stroke-linejoin:round; stroke-width:16; stroke-opacity:1; fill:none" points="
  40.8833,1445.72 40.8833,1445.72 94.6477,1445.72 40.8833,1445.72 
  "/>
<path clip-path="url(#clip212)" d="
M94.6477 1445.72 L94.6477 1445.72 L148.412 1445.72 L148.412 1445.72 L94.6477 1445.72 L94.6477 1445.72  Z
  " fill="#009af9" fill-rule="evenodd" fill-opacity="1"/>
<polyline clip-path="url(#clip212)" style="stroke:#000000; stroke-linecap:butt; stroke-linejoin:round; stroke-width:16; stroke-opacity:1; fill:none" points="
  94.6477,1445.72 94.6477,1445.72 148.412,1445.72 94.6477,1445.72 
  "/>
<path clip-path="url(#clip212)" d="
M148.412 1444.01 L148.412 1445.72 L202.177 1445.72 L202.177 1444.01 L148.412 1444.01 L148.412 1444.01  Z
  " fill="#009af9" fill-rule="evenodd" fill-opacity="1"/>
<polyline clip-path="url(#clip212)" style="stroke:#000000; stroke-linecap:butt; stroke-linejoin:round; stroke-width:16; stroke-opacity:1; fill:none" points="
  148.412,1444.01 148.412,1445.72 202.177,1445.72 202.177,1444.01 148.412,1444.01 
  "/>
<path clip-path="url(#clip212)" d="
M202.177 1444.01 L202.177 1445.72 L255.941 1445.72 L255.941 1444.01 L202.177 1444.01 L202.177 1444.01  Z
  " fill="#009af9" fill-rule="evenodd" fill-opacity="1"/>
<polyline clip-path="url(#clip212)" style="stroke:#000000; stroke-linecap:butt; stroke-linejoin:round; stroke-width:16; stroke-opacity:1; fill:none" points="
  202.177,1444.01 202.177,1445.72 255.941,1445.72 255.941,1444.01 202.177,1444.01 
  "/>
<path clip-path="url(#clip212)" d="
M255.941 1445.72 L255.941 1445.72 L309.706 1445.72 L309.706 1445.72 L255.941 1445.72 L255.941 1445.72  Z
  " fill="#009af9" fill-rule="evenodd" fill-opacity="1"/>
<polyline clip-path="url(#clip212)" style="stroke:#000000; stroke-linecap:butt; stroke-linejoin:round; stroke-width:16; stroke-opacity:1; fill:none" points="
  255.941,1445.72 255.941,1445.72 309.706,1445.72 255.941,1445.72 
  "/>
<path clip-path="url(#clip212)" d="
M309.706 1444.01 L309.706 1445.72 L363.47 1445.72 L363.47 1444.01 L309.706 1444.01 L309.706 1444.01  Z
  " fill="#009af9" fill-rule="evenodd" fill-opacity="1"/>
<polyline clip-path="url(#clip212)" style="stroke:#000000; stroke-linecap:butt; stroke-linejoin:round; stroke-width:16; stroke-opacity:1; fill:none" points="
  309.706,1444.01 309.706,1445.72 363.47,1445.72 363.47,1444.01 309.706,1444.01 
  "/>
<path clip-path="url(#clip212)" d="
M363.47 1438.91 L363.47 1445.72 L417.235 1445.72 L417.235 1438.91 L363.47 1438.91 L363.47 1438.91  Z
  " fill="#009af9" fill-rule="evenodd" fill-opacity="1"/>
<polyline clip-path="url(#clip212)" style="stroke:#000000; stroke-linecap:butt; stroke-linejoin:round; stroke-width:16; stroke-opacity:1; fill:none" points="
  363.47,1438.91 363.47,1445.72 417.235,1445.72 417.235,1438.91 363.47,1438.91 
  "/>
<path clip-path="url(#clip212)" d="
M417.235 1432.1 L417.235 1445.72 L470.999 1445.72 L470.999 1432.1 L417.235 1432.1 L417.235 1432.1  Z
  " fill="#009af9" fill-rule="evenodd" fill-opacity="1"/>
<polyline clip-path="url(#clip212)" style="stroke:#000000; stroke-linecap:butt; stroke-linejoin:round; stroke-width:16; stroke-opacity:1; fill:none" points="
  417.235,1432.1 417.235,1445.72 470.999,1445.72 470.999,1432.1 417.235,1432.1 
  "/>
<path clip-path="url(#clip212)" d="
M470.999 1425.29 L470.999 1445.72 L524.764 1445.72 L524.764 1425.29 L470.999 1425.29 L470.999 1425.29  Z
  " fill="#009af9" fill-rule="evenodd" fill-opacity="1"/>
<polyline clip-path="url(#clip212)" style="stroke:#000000; stroke-linecap:butt; stroke-linejoin:round; stroke-width:16; stroke-opacity:1; fill:none" points="
  470.999,1425.29 470.999,1445.72 524.764,1445.72 524.764,1425.29 470.999,1425.29 
  "/>
<path clip-path="url(#clip212)" d="
M524.764 1420.19 L524.764 1445.72 L578.528 1445.72 L578.528 1420.19 L524.764 1420.19 L524.764 1420.19  Z
  " fill="#009af9" fill-rule="evenodd" fill-opacity="1"/>
<polyline clip-path="url(#clip212)" style="stroke:#000000; stroke-linecap:butt; stroke-linejoin:round; stroke-width:16; stroke-opacity:1; fill:none" points="
  524.764,1420.19 524.764,1445.72 578.528,1445.72 578.528,1420.19 524.764,1420.19 
  "/>
<path clip-path="url(#clip212)" d="
M578.528 1382.74 L578.528 1445.72 L632.293 1445.72 L632.293 1382.74 L578.528 1382.74 L578.528 1382.74  Z
  " fill="#009af9" fill-rule="evenodd" fill-opacity="1"/>
<polyline clip-path="url(#clip212)" style="stroke:#000000; stroke-linecap:butt; stroke-linejoin:round; stroke-width:16; stroke-opacity:1; fill:none" points="
  578.528,1382.74 578.528,1445.72 632.293,1445.72 632.293,1382.74 578.528,1382.74 
  "/>
<path clip-path="url(#clip212)" d="
M632.293 1336.79 L632.293 1445.72 L686.057 1445.72 L686.057 1336.79 L632.293 1336.79 L632.293 1336.79  Z
  " fill="#009af9" fill-rule="evenodd" fill-opacity="1"/>
<polyline clip-path="url(#clip212)" style="stroke:#000000; stroke-linecap:butt; stroke-linejoin:round; stroke-width:16; stroke-opacity:1; fill:none" points="
  632.293,1336.79 632.293,1445.72 686.057,1445.72 686.057,1336.79 632.293,1336.79 
  "/>
<path clip-path="url(#clip212)" d="
M686.057 1299.34 L686.057 1445.72 L739.821 1445.72 L739.821 1299.34 L686.057 1299.34 L686.057 1299.34  Z
  " fill="#009af9" fill-rule="evenodd" fill-opacity="1"/>
<polyline clip-path="url(#clip212)" style="stroke:#000000; stroke-linecap:butt; stroke-linejoin:round; stroke-width:16; stroke-opacity:1; fill:none" points="
  686.057,1299.34 686.057,1445.72 739.821,1445.72 739.821,1299.34 686.057,1299.34 
  "/>
<path clip-path="url(#clip212)" d="
M739.821 1200.63 L739.821 1445.72 L793.586 1445.72 L793.586 1200.63 L739.821 1200.63 L739.821 1200.63  Z
  " fill="#009af9" fill-rule="evenodd" fill-opacity="1"/>
<polyline clip-path="url(#clip212)" style="stroke:#000000; stroke-linecap:butt; stroke-linejoin:round; stroke-width:16; stroke-opacity:1; fill:none" points="
  739.821,1200.63 739.821,1445.72 793.586,1445.72 793.586,1200.63 739.821,1200.63 
  "/>
<path clip-path="url(#clip212)" d="
M793.586 1122.33 L793.586 1445.72 L847.35 1445.72 L847.35 1122.33 L793.586 1122.33 L793.586 1122.33  Z
  " fill="#009af9" fill-rule="evenodd" fill-opacity="1"/>
<polyline clip-path="url(#clip212)" style="stroke:#000000; stroke-linecap:butt; stroke-linejoin:round; stroke-width:16; stroke-opacity:1; fill:none" points="
  793.586,1122.33 793.586,1445.72 847.35,1445.72 847.35,1122.33 793.586,1122.33 
  "/>
<path clip-path="url(#clip212)" d="
M847.35 972.558 L847.35 1445.72 L901.115 1445.72 L901.115 972.558 L847.35 972.558 L847.35 972.558  Z
  " fill="#009af9" fill-rule="evenodd" fill-opacity="1"/>
<polyline clip-path="url(#clip212)" style="stroke:#000000; stroke-linecap:butt; stroke-linejoin:round; stroke-width:16; stroke-opacity:1; fill:none" points="
  847.35,972.558 847.35,1445.72 901.115,1445.72 901.115,972.558 847.35,972.558 
  "/>
<path clip-path="url(#clip212)" d="
M901.115 824.484 L901.115 1445.72 L954.879 1445.72 L954.879 824.484 L901.115 824.484 L901.115 824.484  Z
  " fill="#009af9" fill-rule="evenodd" fill-opacity="1"/>
<polyline clip-path="url(#clip212)" style="stroke:#000000; stroke-linecap:butt; stroke-linejoin:round; stroke-width:16; stroke-opacity:1; fill:none" points="
  901.115,824.484 901.115,1445.72 954.879,1445.72 954.879,824.484 901.115,824.484 
  "/>
<path clip-path="url(#clip212)" d="
M954.879 681.515 L954.879 1445.72 L1008.64 1445.72 L1008.64 681.515 L954.879 681.515 L954.879 681.515  Z
  " fill="#009af9" fill-rule="evenodd" fill-opacity="1"/>
<polyline clip-path="url(#clip212)" style="stroke:#000000; stroke-linecap:butt; stroke-linejoin:round; stroke-width:16; stroke-opacity:1; fill:none" points="
  954.879,681.515 954.879,1445.72 1008.64,1445.72 1008.64,681.515 954.879,681.515 
  "/>
<path clip-path="url(#clip212)" d="
M1008.64 560.673 L1008.64 1445.72 L1062.41 1445.72 L1062.41 560.673 L1008.64 560.673 L1008.64 560.673  Z
  " fill="#009af9" fill-rule="evenodd" fill-opacity="1"/>
<polyline clip-path="url(#clip212)" style="stroke:#000000; stroke-linecap:butt; stroke-linejoin:round; stroke-width:16; stroke-opacity:1; fill:none" points="
  1008.64,560.673 1008.64,1445.72 1062.41,1445.72 1062.41,560.673 1008.64,560.673 
  "/>
<path clip-path="url(#clip212)" d="
M1062.41 349.624 L1062.41 1445.72 L1116.17 1445.72 L1116.17 349.624 L1062.41 349.624 L1062.41 349.624  Z
  " fill="#009af9" fill-rule="evenodd" fill-opacity="1"/>
<polyline clip-path="url(#clip212)" style="stroke:#000000; stroke-linecap:butt; stroke-linejoin:round; stroke-width:16; stroke-opacity:1; fill:none" points="
  1062.41,349.624 1062.41,1445.72 1116.17,1445.72 1116.17,349.624 1062.41,349.624 
  "/>
<path clip-path="url(#clip212)" d="
M1116.17 235.59 L1116.17 1445.72 L1169.94 1445.72 L1169.94 235.59 L1116.17 235.59 L1116.17 235.59  Z
  " fill="#009af9" fill-rule="evenodd" fill-opacity="1"/>
<polyline clip-path="url(#clip212)" style="stroke:#000000; stroke-linecap:butt; stroke-linejoin:round; stroke-width:16; stroke-opacity:1; fill:none" points="
  1116.17,235.59 1116.17,1445.72 1169.94,1445.72 1169.94,235.59 1116.17,235.59 
  "/>
<path clip-path="url(#clip212)" d="
M1169.94 157.297 L1169.94 1445.72 L1223.7 1445.72 L1223.7 157.297 L1169.94 157.297 L1169.94 157.297  Z
  " fill="#009af9" fill-rule="evenodd" fill-opacity="1"/>
<polyline clip-path="url(#clip212)" style="stroke:#000000; stroke-linecap:butt; stroke-linejoin:round; stroke-width:16; stroke-opacity:1; fill:none" points="
  1169.94,157.297 1169.94,1445.72 1223.7,1445.72 1223.7,157.297 1169.94,157.297 
  "/>
<path clip-path="url(#clip212)" d="
M1223.7 160.701 L1223.7 1445.72 L1277.47 1445.72 L1277.47 160.701 L1223.7 160.701 L1223.7 160.701  Z
  " fill="#009af9" fill-rule="evenodd" fill-opacity="1"/>
<polyline clip-path="url(#clip212)" style="stroke:#000000; stroke-linecap:butt; stroke-linejoin:round; stroke-width:16; stroke-opacity:1; fill:none" points="
  1223.7,160.701 1223.7,1445.72 1277.47,1445.72 1277.47,160.701 1223.7,160.701 
  "/>
<path clip-path="url(#clip212)" d="
M1277.47 169.211 L1277.47 1445.72 L1331.23 1445.72 L1331.23 169.211 L1277.47 169.211 L1277.47 169.211  Z
  " fill="#009af9" fill-rule="evenodd" fill-opacity="1"/>
<polyline clip-path="url(#clip212)" style="stroke:#000000; stroke-linecap:butt; stroke-linejoin:round; stroke-width:16; stroke-opacity:1; fill:none" points="
  1277.47,169.211 1277.47,1445.72 1331.23,1445.72 1331.23,169.211 1277.47,169.211 
  "/>
<path clip-path="url(#clip212)" d="
M1331.23 114.747 L1331.23 1445.72 L1385 1445.72 L1385 114.747 L1331.23 114.747 L1331.23 114.747  Z
  " fill="#009af9" fill-rule="evenodd" fill-opacity="1"/>
<polyline clip-path="url(#clip212)" style="stroke:#000000; stroke-linecap:butt; stroke-linejoin:round; stroke-width:16; stroke-opacity:1; fill:none" points="
  1331.23,114.747 1331.23,1445.72 1385,1445.72 1385,114.747 1331.23,114.747 
  "/>
<path clip-path="url(#clip212)" d="
M1385 296.862 L1385 1445.72 L1438.76 1445.72 L1438.76 296.862 L1385 296.862 L1385 296.862  Z
  " fill="#009af9" fill-rule="evenodd" fill-opacity="1"/>
<polyline clip-path="url(#clip212)" style="stroke:#000000; stroke-linecap:butt; stroke-linejoin:round; stroke-width:16; stroke-opacity:1; fill:none" points="
  1385,296.862 1385,1445.72 1438.76,1445.72 1438.76,296.862 1385,296.862 
  "/>
<path clip-path="url(#clip212)" d="
M1438.76 421.108 L1438.76 1445.72 L1492.52 1445.72 L1492.52 421.108 L1438.76 421.108 L1438.76 421.108  Z
  " fill="#009af9" fill-rule="evenodd" fill-opacity="1"/>
<polyline clip-path="url(#clip212)" style="stroke:#000000; stroke-linecap:butt; stroke-linejoin:round; stroke-width:16; stroke-opacity:1; fill:none" points="
  1438.76,421.108 1438.76,1445.72 1492.52,1445.72 1492.52,421.108 1438.76,421.108 
  "/>
<path clip-path="url(#clip212)" d="
M1492.52 495.997 L1492.52 1445.72 L1546.29 1445.72 L1546.29 495.997 L1492.52 495.997 L1492.52 495.997  Z
  " fill="#009af9" fill-rule="evenodd" fill-opacity="1"/>
<polyline clip-path="url(#clip212)" style="stroke:#000000; stroke-linecap:butt; stroke-linejoin:round; stroke-width:16; stroke-opacity:1; fill:none" points="
  1492.52,495.997 1492.52,1445.72 1546.29,1445.72 1546.29,495.997 1492.52,495.997 
  "/>
<path clip-path="url(#clip212)" d="
M1546.29 708.747 L1546.29 1445.72 L1600.05 1445.72 L1600.05 708.747 L1546.29 708.747 L1546.29 708.747  Z
  " fill="#009af9" fill-rule="evenodd" fill-opacity="1"/>
<polyline clip-path="url(#clip212)" style="stroke:#000000; stroke-linecap:butt; stroke-linejoin:round; stroke-width:16; stroke-opacity:1; fill:none" points="
  1546.29,708.747 1546.29,1445.72 1600.05,1445.72 1600.05,708.747 1546.29,708.747 
  "/>
<path clip-path="url(#clip212)" d="
M1600.05 834.696 L1600.05 1445.72 L1653.82 1445.72 L1653.82 834.696 L1600.05 834.696 L1600.05 834.696  Z
  " fill="#009af9" fill-rule="evenodd" fill-opacity="1"/>
<polyline clip-path="url(#clip212)" style="stroke:#000000; stroke-linecap:butt; stroke-linejoin:round; stroke-width:16; stroke-opacity:1; fill:none" points="
  1600.05,834.696 1600.05,1445.72 1653.82,1445.72 1653.82,834.696 1600.05,834.696 
  "/>
<path clip-path="url(#clip212)" d="
M1653.82 1054.25 L1653.82 1445.72 L1707.58 1445.72 L1707.58 1054.25 L1653.82 1054.25 L1653.82 1054.25  Z
  " fill="#009af9" fill-rule="evenodd" fill-opacity="1"/>
<polyline clip-path="url(#clip212)" style="stroke:#000000; stroke-linecap:butt; stroke-linejoin:round; stroke-width:16; stroke-opacity:1; fill:none" points="
  1653.82,1054.25 1653.82,1445.72 1707.58,1445.72 1707.58,1054.25 1653.82,1054.25 
  "/>
<path clip-path="url(#clip212)" d="
M1707.58 1127.44 L1707.58 1445.72 L1761.35 1445.72 L1761.35 1127.44 L1707.58 1127.44 L1707.58 1127.44  Z
  " fill="#009af9" fill-rule="evenodd" fill-opacity="1"/>
<polyline clip-path="url(#clip212)" style="stroke:#000000; stroke-linecap:butt; stroke-linejoin:round; stroke-width:16; stroke-opacity:1; fill:none" points="
  1707.58,1127.44 1707.58,1445.72 1761.35,1445.72 1761.35,1127.44 1707.58,1127.44 
  "/>
<path clip-path="url(#clip212)" d="
M1761.35 1200.63 L1761.35 1445.72 L1815.11 1445.72 L1815.11 1200.63 L1761.35 1200.63 L1761.35 1200.63  Z
  " fill="#009af9" fill-rule="evenodd" fill-opacity="1"/>
<polyline clip-path="url(#clip212)" style="stroke:#000000; stroke-linecap:butt; stroke-linejoin:round; stroke-width:16; stroke-opacity:1; fill:none" points="
  1761.35,1200.63 1761.35,1445.72 1815.11,1445.72 1815.11,1200.63 1761.35,1200.63 
  "/>
<path clip-path="url(#clip212)" d="
M1815.11 1302.75 L1815.11 1445.72 L1868.88 1445.72 L1868.88 1302.75 L1815.11 1302.75 L1815.11 1302.75  Z
  " fill="#009af9" fill-rule="evenodd" fill-opacity="1"/>
<polyline clip-path="url(#clip212)" style="stroke:#000000; stroke-linecap:butt; stroke-linejoin:round; stroke-width:16; stroke-opacity:1; fill:none" points="
  1815.11,1302.75 1815.11,1445.72 1868.88,1445.72 1868.88,1302.75 1815.11,1302.75 
  "/>
<path clip-path="url(#clip212)" d="
M1868.88 1324.87 L1868.88 1445.72 L1922.64 1445.72 L1922.64 1324.87 L1868.88 1324.87 L1868.88 1324.87  Z
  " fill="#009af9" fill-rule="evenodd" fill-opacity="1"/>
<polyline clip-path="url(#clip212)" style="stroke:#000000; stroke-linecap:butt; stroke-linejoin:round; stroke-width:16; stroke-opacity:1; fill:none" points="
  1868.88,1324.87 1868.88,1445.72 1922.64,1445.72 1922.64,1324.87 1868.88,1324.87 
  "/>
<path clip-path="url(#clip212)" d="
M1922.64 1377.64 L1922.64 1445.72 L1976.4 1445.72 L1976.4 1377.64 L1922.64 1377.64 L1922.64 1377.64  Z
  " fill="#009af9" fill-rule="evenodd" fill-opacity="1"/>
<polyline clip-path="url(#clip212)" style="stroke:#000000; stroke-linecap:butt; stroke-linejoin:round; stroke-width:16; stroke-opacity:1; fill:none" points="
  1922.64,1377.64 1922.64,1445.72 1976.4,1445.72 1976.4,1377.64 1922.64,1377.64 
  "/>
<path clip-path="url(#clip212)" d="
M1976.4 1413.38 L1976.4 1445.72 L2030.17 1445.72 L2030.17 1413.38 L1976.4 1413.38 L1976.4 1413.38  Z
  " fill="#009af9" fill-rule="evenodd" fill-opacity="1"/>
<polyline clip-path="url(#clip212)" style="stroke:#000000; stroke-linecap:butt; stroke-linejoin:round; stroke-width:16; stroke-opacity:1; fill:none" points="
  1976.4,1413.38 1976.4,1445.72 2030.17,1445.72 2030.17,1413.38 1976.4,1413.38 
  "/>
<path clip-path="url(#clip212)" d="
M2030.17 1426.99 L2030.17 1445.72 L2083.93 1445.72 L2083.93 1426.99 L2030.17 1426.99 L2030.17 1426.99  Z
  " fill="#009af9" fill-rule="evenodd" fill-opacity="1"/>
<polyline clip-path="url(#clip212)" style="stroke:#000000; stroke-linecap:butt; stroke-linejoin:round; stroke-width:16; stroke-opacity:1; fill:none" points="
  2030.17,1426.99 2030.17,1445.72 2083.93,1445.72 2083.93,1426.99 2030.17,1426.99 
  "/>
<path clip-path="url(#clip212)" d="
M2083.93 1432.1 L2083.93 1445.72 L2137.7 1445.72 L2137.7 1432.1 L2083.93 1432.1 L2083.93 1432.1  Z
  " fill="#009af9" fill-rule="evenodd" fill-opacity="1"/>
<polyline clip-path="url(#clip212)" style="stroke:#000000; stroke-linecap:butt; stroke-linejoin:round; stroke-width:16; stroke-opacity:1; fill:none" points="
  2083.93,1432.1 2083.93,1445.72 2137.7,1445.72 2137.7,1432.1 2083.93,1432.1 
  "/>
<path clip-path="url(#clip212)" d="
M2137.7 1444.01 L2137.7 1445.72 L2191.46 1445.72 L2191.46 1444.01 L2137.7 1444.01 L2137.7 1444.01  Z
  " fill="#009af9" fill-rule="evenodd" fill-opacity="1"/>
<polyline clip-path="url(#clip212)" style="stroke:#000000; stroke-linecap:butt; stroke-linejoin:round; stroke-width:16; stroke-opacity:1; fill:none" points="
  2137.7,1444.01 2137.7,1445.72 2191.46,1445.72 2191.46,1444.01 2137.7,1444.01 
  "/>
<path clip-path="url(#clip212)" d="
M2191.46 1442.31 L2191.46 1445.72 L2245.23 1445.72 L2245.23 1442.31 L2191.46 1442.31 L2191.46 1442.31  Z
  " fill="#009af9" fill-rule="evenodd" fill-opacity="1"/>
<polyline clip-path="url(#clip212)" style="stroke:#000000; stroke-linecap:butt; stroke-linejoin:round; stroke-width:16; stroke-opacity:1; fill:none" points="
  2191.46,1442.31 2191.46,1445.72 2245.23,1445.72 2245.23,1442.31 2191.46,1442.31 
  "/>
<path clip-path="url(#clip212)" d="
M2245.23 1444.01 L2245.23 1445.72 L2298.99 1445.72 L2298.99 1444.01 L2245.23 1444.01 L2245.23 1444.01  Z
  " fill="#009af9" fill-rule="evenodd" fill-opacity="1"/>
<polyline clip-path="url(#clip212)" style="stroke:#000000; stroke-linecap:butt; stroke-linejoin:round; stroke-width:16; stroke-opacity:1; fill:none" points="
  2245.23,1444.01 2245.23,1445.72 2298.99,1445.72 2298.99,1444.01 2245.23,1444.01 
  "/>
<circle clip-path="url(#clip212)" style="fill:#009af9; stroke:none; fill-opacity:0" cx="229.059" cy="1444.01" r="2"/>
<circle clip-path="url(#clip212)" style="fill:#009af9; stroke:none; fill-opacity:0" cx="282.823" cy="1445.72" r="2"/>
<circle clip-path="url(#clip212)" style="fill:#009af9; stroke:none; fill-opacity:0" cx="336.588" cy="1444.01" r="2"/>
<circle clip-path="url(#clip212)" style="fill:#009af9; stroke:none; fill-opacity:0" cx="390.352" cy="1438.91" r="2"/>
<circle clip-path="url(#clip212)" style="fill:#009af9; stroke:none; fill-opacity:0" cx="444.117" cy="1432.1" r="2"/>
<circle clip-path="url(#clip212)" style="fill:#009af9; stroke:none; fill-opacity:0" cx="497.881" cy="1425.29" r="2"/>
<circle clip-path="url(#clip212)" style="fill:#009af9; stroke:none; fill-opacity:0" cx="551.646" cy="1420.19" r="2"/>
<circle clip-path="url(#clip212)" style="fill:#009af9; stroke:none; fill-opacity:0" cx="605.41" cy="1382.74" r="2"/>
<circle clip-path="url(#clip212)" style="fill:#009af9; stroke:none; fill-opacity:0" cx="659.175" cy="1336.79" r="2"/>
<circle clip-path="url(#clip212)" style="fill:#009af9; stroke:none; fill-opacity:0" cx="712.939" cy="1299.34" r="2"/>
<circle clip-path="url(#clip212)" style="fill:#009af9; stroke:none; fill-opacity:0" cx="766.704" cy="1200.63" r="2"/>
<circle clip-path="url(#clip212)" style="fill:#009af9; stroke:none; fill-opacity:0" cx="820.468" cy="1122.33" r="2"/>
<circle clip-path="url(#clip212)" style="fill:#009af9; stroke:none; fill-opacity:0" cx="874.233" cy="972.558" r="2"/>
<circle clip-path="url(#clip212)" style="fill:#009af9; stroke:none; fill-opacity:0" cx="927.997" cy="824.484" r="2"/>
<circle clip-path="url(#clip212)" style="fill:#009af9; stroke:none; fill-opacity:0" cx="981.762" cy="681.515" r="2"/>
<circle clip-path="url(#clip212)" style="fill:#009af9; stroke:none; fill-opacity:0" cx="1035.53" cy="560.673" r="2"/>
<circle clip-path="url(#clip212)" style="fill:#009af9; stroke:none; fill-opacity:0" cx="1089.29" cy="349.624" r="2"/>
<circle clip-path="url(#clip212)" style="fill:#009af9; stroke:none; fill-opacity:0" cx="1143.06" cy="235.59" r="2"/>
<circle clip-path="url(#clip212)" style="fill:#009af9; stroke:none; fill-opacity:0" cx="1196.82" cy="157.297" r="2"/>
<circle clip-path="url(#clip212)" style="fill:#009af9; stroke:none; fill-opacity:0" cx="1250.58" cy="160.701" r="2"/>
<circle clip-path="url(#clip212)" style="fill:#009af9; stroke:none; fill-opacity:0" cx="1304.35" cy="169.211" r="2"/>
<circle clip-path="url(#clip212)" style="fill:#009af9; stroke:none; fill-opacity:0" cx="1358.11" cy="114.747" r="2"/>
<circle clip-path="url(#clip212)" style="fill:#009af9; stroke:none; fill-opacity:0" cx="1411.88" cy="296.862" r="2"/>
<circle clip-path="url(#clip212)" style="fill:#009af9; stroke:none; fill-opacity:0" cx="1465.64" cy="421.108" r="2"/>
<circle clip-path="url(#clip212)" style="fill:#009af9; stroke:none; fill-opacity:0" cx="1519.41" cy="495.997" r="2"/>
<circle clip-path="url(#clip212)" style="fill:#009af9; stroke:none; fill-opacity:0" cx="1573.17" cy="708.747" r="2"/>
<circle clip-path="url(#clip212)" style="fill:#009af9; stroke:none; fill-opacity:0" cx="1626.94" cy="834.696" r="2"/>
<circle clip-path="url(#clip212)" style="fill:#009af9; stroke:none; fill-opacity:0" cx="1680.7" cy="1054.25" r="2"/>
<circle clip-path="url(#clip212)" style="fill:#009af9; stroke:none; fill-opacity:0" cx="1734.46" cy="1127.44" r="2"/>
<circle clip-path="url(#clip212)" style="fill:#009af9; stroke:none; fill-opacity:0" cx="1788.23" cy="1200.63" r="2"/>
<circle clip-path="url(#clip212)" style="fill:#009af9; stroke:none; fill-opacity:0" cx="1841.99" cy="1302.75" r="2"/>
<circle clip-path="url(#clip212)" style="fill:#009af9; stroke:none; fill-opacity:0" cx="1895.76" cy="1324.87" r="2"/>
<circle clip-path="url(#clip212)" style="fill:#009af9; stroke:none; fill-opacity:0" cx="1949.52" cy="1377.64" r="2"/>
<circle clip-path="url(#clip212)" style="fill:#009af9; stroke:none; fill-opacity:0" cx="2003.29" cy="1413.38" r="2"/>
<circle clip-path="url(#clip212)" style="fill:#009af9; stroke:none; fill-opacity:0" cx="2057.05" cy="1426.99" r="2"/>
<circle clip-path="url(#clip212)" style="fill:#009af9; stroke:none; fill-opacity:0" cx="2110.82" cy="1432.1" r="2"/>
<circle clip-path="url(#clip212)" style="fill:#009af9; stroke:none; fill-opacity:0" cx="2164.58" cy="1444.01" r="2"/>
<circle clip-path="url(#clip212)" style="fill:#009af9; stroke:none; fill-opacity:0" cx="2218.34" cy="1442.31" r="2"/>
<circle clip-path="url(#clip212)" style="fill:#009af9; stroke:none; fill-opacity:0" cx="2272.11" cy="1444.01" r="2"/>
<polyline clip-path="url(#clip212)" style="stroke:#e26f46; stroke-linecap:butt; stroke-linejoin:round; stroke-width:16; stroke-opacity:1; fill:none" points="
  202.177,1445.26 212.678,1445.18 223.179,1445.09 320.277,1443.32 417.374,1437.59 475.726,1429.81 534.078,1416.04 583.413,1397.25 632.749,1369.17 659.545,1348.98 
  686.341,1324.68 713.137,1295.76 739.933,1261.78 764.637,1225.6 789.341,1184.53 814.044,1138.4 838.748,1087.17 865.233,1026.66 891.718,960.681 918.203,889.73 
  944.688,814.557 1006.06,629.966 1067.43,444.932 1094.7,367.943 1121.97,296.914 1149.24,233.74 1176.51,180.182 1200.42,142.357 1224.33,113.98 1248.25,95.7103 
  1272.16,87.9763 1298.23,91.7569 1324.3,108.167 1350.37,136.749 1376.45,176.712 1402.67,227.3 1428.9,286.953 1455.12,354.125 1481.35,427.144 1539.34,600.774 
  1597.34,776.679 1624.93,856.701 1652.52,932.586 1680.11,1003.38 1707.7,1068.4 1736.38,1129.44 1765.07,1183.61 1793.76,1230.96 1822.44,1271.75 1870.74,1326.79 
  1919.04,1367 1978,1400.19 2036.97,1420.62 2092.39,1432 2147.82,1438.53 2236.62,1443.38 2325.42,1445.04 2339.09,1445.16 2352.76,1445.26 
  "/>
<path clip-path="url(#clip210)" d="
M1963.47 328.498 L2281.07 328.498 L2281.07 95.2176 L1963.47 95.2176  Z
  " fill="#ffffff" fill-rule="evenodd" fill-opacity="1"/>
<polyline clip-path="url(#clip210)" style="stroke:#000000; stroke-linecap:butt; stroke-linejoin:round; stroke-width:4; stroke-opacity:1; fill:none" points="
  1963.47,328.498 2281.07,328.498 2281.07,95.2176 1963.47,95.2176 1963.47,328.498 
  "/>
<path clip-path="url(#clip210)" d="
M1987.37 204.082 L2130.74 204.082 L2130.74 141.874 L1987.37 141.874 L1987.37 204.082  Z
  " fill="#009af9" fill-rule="evenodd" fill-opacity="1"/>
<polyline clip-path="url(#clip210)" style="stroke:#000000; stroke-linecap:butt; stroke-linejoin:round; stroke-width:16; stroke-opacity:1; fill:none" points="
  1987.37,204.082 2130.74,204.082 2130.74,141.874 1987.37,141.874 1987.37,204.082 
  "/>
<path clip-path="url(#clip210)" d="M2175.4 202.509 Q2172.69 209.453 2170.12 211.571 Q2167.55 213.689 2163.24 213.689 L2158.14 213.689 L2158.14 208.342 L2161.89 208.342 Q2164.53 208.342 2165.99 207.092 Q2167.45 205.842 2169.22 201.189 L2170.36 198.273 L2154.63 160.009 L2161.4 160.009 L2173.56 190.425 L2185.71 160.009 L2192.48 160.009 L2175.4 202.509 Z" fill="#000000" fill-rule="evenodd" fill-opacity="1" /><path clip-path="url(#clip210)" d="M2203.42 192.995 L2214.88 192.995 L2214.88 153.446 L2202.41 155.946 L2202.41 149.558 L2214.81 147.058 L2221.82 147.058 L2221.82 192.995 L2233.28 192.995 L2233.28 198.898 L2203.42 198.898 L2203.42 192.995 Z" fill="#000000" fill-rule="evenodd" fill-opacity="1" /><polyline clip-path="url(#clip210)" style="stroke:#e26f46; stroke-linecap:butt; stroke-linejoin:round; stroke-width:6; stroke-opacity:1; fill:none" points="
  1987.37,250.738 2130.74,250.738 
  "/>
<path clip-path="url(#clip210)" d="M2175.4 280.269 Q2172.69 287.213 2170.12 289.331 Q2167.55 291.449 2163.24 291.449 L2158.14 291.449 L2158.14 286.102 L2161.89 286.102 Q2164.53 286.102 2165.99 284.852 Q2167.45 283.602 2169.22 278.949 L2170.36 276.033 L2154.63 237.769 L2161.4 237.769 L2173.56 268.185 L2185.71 237.769 L2192.48 237.769 L2175.4 280.269 Z" fill="#000000" fill-rule="evenodd" fill-opacity="1" /><path clip-path="url(#clip210)" d="M2208.24 270.755 L2232.72 270.755 L2232.72 276.658 L2199.81 276.658 L2199.81 270.755 Q2203.8 266.623 2210.68 259.678 Q2217.58 252.699 2219.36 250.685 Q2222.72 246.901 2224.04 244.297 Q2225.4 241.658 2225.4 239.123 Q2225.4 234.991 2222.48 232.387 Q2219.6 229.783 2214.95 229.783 Q2211.65 229.783 2207.97 230.929 Q2204.32 232.074 2200.15 234.401 L2200.15 227.318 Q2204.39 225.616 2208.07 224.748 Q2211.75 223.88 2214.81 223.88 Q2222.86 223.88 2227.65 227.908 Q2232.45 231.936 2232.45 238.672 Q2232.45 241.866 2231.23 244.748 Q2230.05 247.595 2226.89 251.484 Q2226.02 252.491 2221.37 257.317 Q2216.72 262.109 2208.24 270.755 Z" fill="#000000" fill-rule="evenodd" fill-opacity="1" /></svg>
