<?xml version="1.0" encoding="utf-8"?>
<svg xmlns="http://www.w3.org/2000/svg" xmlns:xlink="http://www.w3.org/1999/xlink" width="600" height="400" viewBox="0 0 2400 1600">
<defs>
  <clipPath id="clip170">
    <rect x="0" y="0" width="2400" height="1600"/>
  </clipPath>
</defs>
<path clip-path="url(#clip170)" d="
M0 1600 L2400 1600 L2400 0 L0 0  Z
  " fill="#ffffff" fill-rule="evenodd" fill-opacity="1"/>
<defs>
  <clipPath id="clip171">
    <rect x="480" y="0" width="1681" height="1600"/>
  </clipPath>
</defs>
<path clip-path="url(#clip170)" d="
M249.704 1423.18 L2352.76 1423.18 L2352.76 47.2441 L249.704 47.2441  Z
  " fill="#ffffff" fill-rule="evenodd" fill-opacity="1"/>
<defs>
  <clipPath id="clip172">
    <rect x="249" y="47" width="2104" height="1377"/>
  </clipPath>
</defs>
<polyline clip-path="url(#clip172)" style="stroke:#000000; stroke-linecap:round; stroke-linejoin:round; stroke-width:2; stroke-opacity:0.1; fill:none" points="
  635.979,1423.18 635.979,47.2441 
  "/>
<polyline clip-path="url(#clip172)" style="stroke:#000000; stroke-linecap:round; stroke-linejoin:round; stroke-width:2; stroke-opacity:0.1; fill:none" points="
  1065.17,1423.18 1065.17,47.2441 
  "/>
<polyline clip-path="url(#clip172)" style="stroke:#000000; stroke-linecap:round; stroke-linejoin:round; stroke-width:2; stroke-opacity:0.1; fill:none" points="
  1494.37,1423.18 1494.37,47.2441 
  "/>
<polyline clip-path="url(#clip172)" style="stroke:#000000; stroke-linecap:round; stroke-linejoin:round; stroke-width:2; stroke-opacity:0.1; fill:none" points="
  1923.56,1423.18 1923.56,47.2441 
  "/>
<polyline clip-path="url(#clip172)" style="stroke:#000000; stroke-linecap:round; stroke-linejoin:round; stroke-width:2; stroke-opacity:0.1; fill:none" points="
  2352.76,1423.18 2352.76,47.2441 
  "/>
<polyline clip-path="url(#clip170)" style="stroke:#000000; stroke-linecap:round; stroke-linejoin:round; stroke-width:4; stroke-opacity:1; fill:none" points="
  249.704,1423.18 2352.76,1423.18 
  "/>
<polyline clip-path="url(#clip170)" style="stroke:#000000; stroke-linecap:round; stroke-linejoin:round; stroke-width:4; stroke-opacity:1; fill:none" points="
  635.979,1423.18 635.979,1404.28 
  "/>
<polyline clip-path="url(#clip170)" style="stroke:#000000; stroke-linecap:round; stroke-linejoin:round; stroke-width:4; stroke-opacity:1; fill:none" points="
  1065.17,1423.18 1065.17,1404.28 
  "/>
<polyline clip-path="url(#clip170)" style="stroke:#000000; stroke-linecap:round; stroke-linejoin:round; stroke-width:4; stroke-opacity:1; fill:none" points="
  1494.37,1423.18 1494.37,1404.28 
  "/>
<polyline clip-path="url(#clip170)" style="stroke:#000000; stroke-linecap:round; stroke-linejoin:round; stroke-width:4; stroke-opacity:1; fill:none" points="
  1923.56,1423.18 1923.56,1404.28 
  "/>
<polyline clip-path="url(#clip170)" style="stroke:#000000; stroke-linecap:round; stroke-linejoin:round; stroke-width:4; stroke-opacity:1; fill:none" points="
  2352.76,1423.18 2352.76,1404.28 
  "/>
<path clip-path="url(#clip170)" d="M626.361 1481.64 L634 1481.64 L634 1455.28 L625.69 1456.95 L625.69 1452.69 L633.953 1451.02 L638.629 1451.02 L638.629 1481.64 L646.268 1481.64 L646.268 1485.58 L626.361 1485.58 L626.361 1481.64 Z" fill="#000000" fill-rule="evenodd" fill-opacity="1" /><path clip-path="url(#clip170)" d="M1059.83 1481.64 L1076.15 1481.64 L1076.15 1485.58 L1054.2 1485.58 L1054.2 1481.64 Q1056.86 1478.89 1061.45 1474.26 Q1066.05 1469.61 1067.23 1468.27 Q1069.48 1465.74 1070.36 1464.01 Q1071.26 1462.25 1071.26 1460.56 Q1071.26 1457.8 1069.32 1456.07 Q1067.4 1454.33 1064.29 1454.33 Q1062.09 1454.33 1059.64 1455.09 Q1057.21 1455.86 1054.43 1457.41 L1054.43 1452.69 Q1057.26 1451.55 1059.71 1450.97 Q1062.16 1450.39 1064.2 1450.39 Q1069.57 1450.39 1072.77 1453.08 Q1075.96 1455.77 1075.96 1460.26 Q1075.96 1462.39 1075.15 1464.31 Q1074.36 1466.2 1072.26 1468.8 Q1071.68 1469.47 1068.58 1472.69 Q1065.47 1475.88 1059.83 1481.64 Z" fill="#000000" fill-rule="evenodd" fill-opacity="1" /><path clip-path="url(#clip170)" d="M1498.62 1466.95 Q1501.97 1467.66 1503.85 1469.93 Q1505.74 1472.2 1505.74 1475.53 Q1505.74 1480.65 1502.23 1483.45 Q1498.71 1486.25 1492.23 1486.25 Q1490.05 1486.25 1487.74 1485.81 Q1485.44 1485.39 1482.99 1484.54 L1482.99 1480.02 Q1484.93 1481.16 1487.25 1481.74 Q1489.56 1482.32 1492.09 1482.32 Q1496.49 1482.32 1498.78 1480.58 Q1501.09 1478.84 1501.09 1475.53 Q1501.09 1472.48 1498.94 1470.77 Q1496.81 1469.03 1492.99 1469.03 L1488.96 1469.03 L1488.96 1465.19 L1493.18 1465.19 Q1496.62 1465.19 1498.45 1463.82 Q1500.28 1462.43 1500.28 1459.84 Q1500.28 1457.18 1498.38 1455.77 Q1496.51 1454.33 1492.99 1454.33 Q1491.07 1454.33 1488.87 1454.75 Q1486.67 1455.16 1484.03 1456.04 L1484.03 1451.88 Q1486.69 1451.14 1489.01 1450.77 Q1491.35 1450.39 1493.41 1450.39 Q1498.73 1450.39 1501.83 1452.83 Q1504.93 1455.23 1504.93 1459.35 Q1504.93 1462.22 1503.29 1464.21 Q1501.65 1466.18 1498.62 1466.95 Z" fill="#000000" fill-rule="evenodd" fill-opacity="1" /><path clip-path="url(#clip170)" d="M1926.57 1455.09 L1914.77 1473.54 L1926.57 1473.54 L1926.57 1455.09 M1925.34 1451.02 L1931.22 1451.02 L1931.22 1473.54 L1936.15 1473.54 L1936.15 1477.43 L1931.22 1477.43 L1931.22 1485.58 L1926.57 1485.58 L1926.57 1477.43 L1910.97 1477.43 L1910.97 1472.92 L1925.34 1451.02 Z" fill="#000000" fill-rule="evenodd" fill-opacity="1" /><path clip-path="url(#clip170)" d="M2343.03 1451.02 L2361.39 1451.02 L2361.39 1454.96 L2347.32 1454.96 L2347.32 1463.43 Q2348.33 1463.08 2349.35 1462.92 Q2350.37 1462.73 2351.39 1462.73 Q2357.18 1462.73 2360.56 1465.9 Q2363.94 1469.08 2363.94 1474.49 Q2363.94 1480.07 2360.46 1483.17 Q2356.99 1486.25 2350.67 1486.25 Q2348.5 1486.25 2346.23 1485.88 Q2343.98 1485.51 2341.58 1484.77 L2341.58 1480.07 Q2343.66 1481.2 2345.88 1481.76 Q2348.1 1482.32 2350.58 1482.32 Q2354.58 1482.32 2356.92 1480.21 Q2359.26 1478.1 2359.26 1474.49 Q2359.26 1470.88 2356.92 1468.77 Q2354.58 1466.67 2350.58 1466.67 Q2348.71 1466.67 2346.83 1467.08 Q2344.98 1467.5 2343.03 1468.38 L2343.03 1451.02 Z" fill="#000000" fill-rule="evenodd" fill-opacity="1" /><path clip-path="url(#clip170)" d="M1185.14 1518.52 L1190.99 1518.52 L1190.99 1568.04 L1185.14 1568.04 L1185.14 1518.52 Z" fill="#000000" fill-rule="evenodd" fill-opacity="1" /><path clip-path="url(#clip170)" d="M1219.45 1550.12 Q1212.35 1550.12 1209.61 1551.75 Q1206.87 1553.37 1206.87 1557.29 Q1206.87 1560.4 1208.91 1562.25 Q1210.98 1564.07 1214.51 1564.07 Q1219.38 1564.07 1222.31 1560.63 Q1225.27 1557.16 1225.27 1551.43 L1225.27 1550.12 L1219.45 1550.12 M1231.13 1547.71 L1231.13 1568.04 L1225.27 1568.04 L1225.27 1562.63 Q1223.27 1565.88 1220.27 1567.44 Q1217.28 1568.97 1212.95 1568.97 Q1207.48 1568.97 1204.23 1565.91 Q1201.02 1562.82 1201.02 1557.67 Q1201.02 1551.65 1205.03 1548.6 Q1209.07 1545.54 1217.06 1545.54 L1225.27 1545.54 L1225.27 1544.97 Q1225.27 1540.93 1222.6 1538.73 Q1219.96 1536.5 1215.15 1536.5 Q1212.09 1536.5 1209.2 1537.23 Q1206.3 1537.97 1203.63 1539.43 L1203.63 1534.02 Q1206.84 1532.78 1209.87 1532.17 Q1212.89 1531.54 1215.75 1531.54 Q1223.49 1531.54 1227.31 1535.55 Q1231.13 1539.56 1231.13 1547.71 Z" fill="#000000" fill-rule="evenodd" fill-opacity="1" /><path clip-path="url(#clip170)" d="M1270.95 1539.24 Q1273.14 1535.29 1276.2 1533.41 Q1279.25 1531.54 1283.39 1531.54 Q1288.96 1531.54 1291.98 1535.45 Q1295.01 1539.33 1295.01 1546.53 L1295.01 1568.04 L1289.12 1568.04 L1289.12 1546.72 Q1289.12 1541.59 1287.31 1539.11 Q1285.49 1536.63 1281.77 1536.63 Q1277.22 1536.63 1274.57 1539.65 Q1271.93 1542.68 1271.93 1547.9 L1271.93 1568.04 L1266.04 1568.04 L1266.04 1546.72 Q1266.04 1541.56 1264.23 1539.11 Q1262.42 1536.63 1258.63 1536.63 Q1254.14 1536.63 1251.5 1539.68 Q1248.86 1542.71 1248.86 1547.9 L1248.86 1568.04 L1242.97 1568.04 L1242.97 1532.4 L1248.86 1532.4 L1248.86 1537.93 Q1250.86 1534.66 1253.66 1533.1 Q1256.46 1531.54 1260.31 1531.54 Q1264.2 1531.54 1266.9 1533.51 Q1269.64 1535.48 1270.95 1539.24 Z" fill="#000000" fill-rule="evenodd" fill-opacity="1" /><path clip-path="url(#clip170)" d="M1332.28 1550.25 Q1332.28 1543.79 1329.61 1540.13 Q1326.96 1536.44 1322.32 1536.44 Q1317.67 1536.44 1315 1540.13 Q1312.35 1543.79 1312.35 1550.25 Q1312.35 1556.71 1315 1560.4 Q1317.67 1564.07 1322.32 1564.07 Q1326.96 1564.07 1329.61 1560.4 Q1332.28 1556.71 1332.28 1550.25 M1312.35 1537.81 Q1314.2 1534.62 1317 1533.1 Q1319.83 1531.54 1323.75 1531.54 Q1330.24 1531.54 1334.28 1536.69 Q1338.36 1541.85 1338.36 1550.25 Q1338.36 1558.65 1334.28 1563.81 Q1330.24 1568.97 1323.75 1568.97 Q1319.83 1568.97 1317 1567.44 Q1314.2 1565.88 1312.35 1562.7 L1312.35 1568.04 L1306.47 1568.04 L1306.47 1518.52 L1312.35 1518.52 L1312.35 1537.81 Z" fill="#000000" fill-rule="evenodd" fill-opacity="1" /><path clip-path="url(#clip170)" d="M1371.52 1537.81 L1371.52 1518.52 L1377.38 1518.52 L1377.38 1568.04 L1371.52 1568.04 L1371.52 1562.7 Q1369.68 1565.88 1366.84 1567.44 Q1364.04 1568.97 1360.1 1568.97 Q1353.64 1568.97 1349.56 1563.81 Q1345.52 1558.65 1345.52 1550.25 Q1345.52 1541.85 1349.56 1536.69 Q1353.64 1531.54 1360.1 1531.54 Q1364.04 1531.54 1366.84 1533.1 Q1369.68 1534.62 1371.52 1537.81 M1351.57 1550.25 Q1351.57 1556.71 1354.21 1560.4 Q1356.88 1564.07 1361.53 1564.07 Q1366.18 1564.07 1368.85 1560.4 Q1371.52 1556.71 1371.52 1550.25 Q1371.52 1543.79 1368.85 1540.13 Q1366.18 1536.44 1361.53 1536.44 Q1356.88 1536.44 1354.21 1540.13 Q1351.57 1543.79 1351.57 1550.25 Z" fill="#000000" fill-rule="evenodd" fill-opacity="1" /><path clip-path="url(#clip170)" d="M1405.64 1550.12 Q1398.55 1550.12 1395.81 1551.75 Q1393.07 1553.37 1393.07 1557.29 Q1393.07 1560.4 1395.11 1562.25 Q1397.18 1564.07 1400.71 1564.07 Q1405.58 1564.07 1408.51 1560.63 Q1411.47 1557.16 1411.47 1551.43 L1411.47 1550.12 L1405.64 1550.12 M1417.32 1547.71 L1417.32 1568.04 L1411.47 1568.04 L1411.47 1562.63 Q1409.46 1565.88 1406.47 1567.44 Q1403.48 1568.97 1399.15 1568.97 Q1393.68 1568.97 1390.43 1565.91 Q1387.21 1562.82 1387.21 1557.67 Q1387.21 1551.65 1391.23 1548.6 Q1395.27 1545.54 1403.26 1545.54 L1411.47 1545.54 L1411.47 1544.97 Q1411.47 1540.93 1408.79 1538.73 Q1406.15 1536.5 1401.35 1536.5 Q1398.29 1536.5 1395.39 1537.23 Q1392.5 1537.97 1389.82 1539.43 L1389.82 1534.02 Q1393.04 1532.78 1396.06 1532.17 Q1399.09 1531.54 1401.95 1531.54 Q1409.69 1531.54 1413.51 1535.55 Q1417.32 1539.56 1417.32 1547.71 Z" fill="#000000" fill-rule="evenodd" fill-opacity="1" /><polyline clip-path="url(#clip172)" style="stroke:#000000; stroke-linecap:round; stroke-linejoin:round; stroke-width:2; stroke-opacity:0.1; fill:none" points="
  249.704,1286.9 2352.76,1286.9 
  "/>
<polyline clip-path="url(#clip172)" style="stroke:#000000; stroke-linecap:round; stroke-linejoin:round; stroke-width:2; stroke-opacity:0.1; fill:none" points="
  249.704,1038.33 2352.76,1038.33 
  "/>
<polyline clip-path="url(#clip172)" style="stroke:#000000; stroke-linecap:round; stroke-linejoin:round; stroke-width:2; stroke-opacity:0.1; fill:none" points="
  249.704,789.76 2352.76,789.76 
  "/>
<polyline clip-path="url(#clip172)" style="stroke:#000000; stroke-linecap:round; stroke-linejoin:round; stroke-width:2; stroke-opacity:0.1; fill:none" points="
  249.704,541.192 2352.76,541.192 
  "/>
<polyline clip-path="url(#clip172)" style="stroke:#000000; stroke-linecap:round; stroke-linejoin:round; stroke-width:2; stroke-opacity:0.1; fill:none" points="
  249.704,292.624 2352.76,292.624 
  "/>
<polyline clip-path="url(#clip170)" style="stroke:#000000; stroke-linecap:round; stroke-linejoin:round; stroke-width:4; stroke-opacity:1; fill:none" points="
  249.704,1423.18 249.704,47.2441 
  "/>
<polyline clip-path="url(#clip170)" style="stroke:#000000; stroke-linecap:round; stroke-linejoin:round; stroke-width:4; stroke-opacity:1; fill:none" points="
  249.704,1286.9 268.602,1286.9 
  "/>
<polyline clip-path="url(#clip170)" style="stroke:#000000; stroke-linecap:round; stroke-linejoin:round; stroke-width:4; stroke-opacity:1; fill:none" points="
  249.704,1038.33 268.602,1038.33 
  "/>
<polyline clip-path="url(#clip170)" style="stroke:#000000; stroke-linecap:round; stroke-linejoin:round; stroke-width:4; stroke-opacity:1; fill:none" points="
  249.704,789.76 268.602,789.76 
  "/>
<polyline clip-path="url(#clip170)" style="stroke:#000000; stroke-linecap:round; stroke-linejoin:round; stroke-width:4; stroke-opacity:1; fill:none" points="
  249.704,541.192 268.602,541.192 
  "/>
<polyline clip-path="url(#clip170)" style="stroke:#000000; stroke-linecap:round; stroke-linejoin:round; stroke-width:4; stroke-opacity:1; fill:none" points="
  249.704,292.624 268.602,292.624 
  "/>
<path clip-path="url(#clip170)" d="M126.205 1272.7 Q122.593 1272.7 120.765 1276.26 Q118.959 1279.8 118.959 1286.93 Q118.959 1294.04 120.765 1297.6 Q122.593 1301.14 126.205 1301.14 Q129.839 1301.14 131.644 1297.6 Q133.473 1294.04 133.473 1286.93 Q133.473 1279.8 131.644 1276.26 Q129.839 1272.7 126.205 1272.7 M126.205 1268.99 Q132.015 1268.99 135.07 1273.6 Q138.149 1278.18 138.149 1286.93 Q138.149 1295.66 135.07 1300.26 Q132.015 1304.85 126.205 1304.85 Q120.394 1304.85 117.316 1300.26 Q114.26 1295.66 114.26 1286.93 Q114.26 1278.18 117.316 1273.6 Q120.394 1268.99 126.205 1268.99 Z" fill="#000000" fill-rule="evenodd" fill-opacity="1" /><path clip-path="url(#clip170)" d="M146.366 1298.3 L151.251 1298.3 L151.251 1304.18 L146.366 1304.18 L146.366 1298.3 Z" fill="#000000" fill-rule="evenodd" fill-opacity="1" /><path clip-path="url(#clip170)" d="M161.575 1303.46 L161.575 1299.2 Q163.334 1300.03 165.14 1300.47 Q166.945 1300.91 168.681 1300.91 Q173.311 1300.91 175.741 1297.81 Q178.195 1294.69 178.542 1288.34 Q177.2 1290.33 175.139 1291.4 Q173.079 1292.46 170.579 1292.46 Q165.394 1292.46 162.362 1289.34 Q159.353 1286.19 159.353 1280.75 Q159.353 1275.43 162.501 1272.21 Q165.649 1268.99 170.88 1268.99 Q176.876 1268.99 180.024 1273.6 Q183.195 1278.18 183.195 1286.93 Q183.195 1295.1 179.306 1299.99 Q175.44 1304.85 168.889 1304.85 Q167.13 1304.85 165.325 1304.5 Q163.519 1304.15 161.575 1303.46 M170.88 1288.81 Q174.028 1288.81 175.857 1286.65 Q177.709 1284.5 177.709 1280.75 Q177.709 1277.02 175.857 1274.87 Q174.028 1272.7 170.88 1272.7 Q167.732 1272.7 165.88 1274.87 Q164.052 1277.02 164.052 1280.75 Q164.052 1284.5 165.88 1286.65 Q167.732 1288.81 170.88 1288.81 Z" fill="#000000" fill-rule="evenodd" fill-opacity="1" /><path clip-path="url(#clip170)" d="M202.176 1285.03 Q199.028 1285.03 197.176 1287.19 Q195.348 1289.34 195.348 1293.09 Q195.348 1296.82 197.176 1298.99 Q199.028 1301.14 202.176 1301.14 Q205.324 1301.14 207.153 1298.99 Q209.005 1296.82 209.005 1293.09 Q209.005 1289.34 207.153 1287.19 Q205.324 1285.03 202.176 1285.03 M211.459 1270.38 L211.459 1274.64 Q209.699 1273.81 207.894 1273.37 Q206.112 1272.93 204.352 1272.93 Q199.723 1272.93 197.269 1276.05 Q194.838 1279.18 194.491 1285.5 Q195.857 1283.48 197.917 1282.42 Q199.977 1281.33 202.454 1281.33 Q207.662 1281.33 210.672 1284.5 Q213.704 1287.65 213.704 1293.09 Q213.704 1298.41 210.556 1301.63 Q207.408 1304.85 202.176 1304.85 Q196.181 1304.85 193.01 1300.26 Q189.838 1295.66 189.838 1286.93 Q189.838 1278.74 193.727 1273.88 Q197.616 1268.99 204.167 1268.99 Q205.926 1268.99 207.709 1269.34 Q209.514 1269.69 211.459 1270.38 Z" fill="#000000" fill-rule="evenodd" fill-opacity="1" /><path clip-path="url(#clip170)" d="M126.552 1024.13 Q122.941 1024.13 121.112 1027.69 Q119.306 1031.23 119.306 1038.36 Q119.306 1045.47 121.112 1049.03 Q122.941 1052.58 126.552 1052.58 Q130.186 1052.58 131.992 1049.03 Q133.82 1045.47 133.82 1038.36 Q133.82 1031.23 131.992 1027.69 Q130.186 1024.13 126.552 1024.13 M126.552 1020.42 Q132.362 1020.42 135.417 1025.03 Q138.496 1029.61 138.496 1038.36 Q138.496 1047.09 135.417 1051.7 Q132.362 1056.28 126.552 1056.28 Q120.742 1056.28 117.663 1051.7 Q114.607 1047.09 114.607 1038.36 Q114.607 1029.61 117.663 1025.03 Q120.742 1020.42 126.552 1020.42 Z" fill="#000000" fill-rule="evenodd" fill-opacity="1" /><path clip-path="url(#clip170)" d="M146.714 1049.73 L151.598 1049.73 L151.598 1055.61 L146.714 1055.61 L146.714 1049.73 Z" fill="#000000" fill-rule="evenodd" fill-opacity="1" /><path clip-path="url(#clip170)" d="M161.922 1054.89 L161.922 1050.63 Q163.681 1051.47 165.487 1051.9 Q167.292 1052.34 169.028 1052.34 Q173.658 1052.34 176.089 1049.24 Q178.542 1046.12 178.889 1039.78 Q177.547 1041.77 175.487 1042.83 Q173.427 1043.9 170.927 1043.9 Q165.741 1043.9 162.709 1040.77 Q159.7 1037.62 159.7 1032.18 Q159.7 1026.86 162.848 1023.64 Q165.996 1020.42 171.227 1020.42 Q177.223 1020.42 180.371 1025.03 Q183.542 1029.61 183.542 1038.36 Q183.542 1046.53 179.653 1051.42 Q175.788 1056.28 169.237 1056.28 Q167.477 1056.28 165.672 1055.93 Q163.866 1055.59 161.922 1054.89 M171.227 1040.24 Q174.376 1040.24 176.204 1038.09 Q178.056 1035.93 178.056 1032.18 Q178.056 1028.46 176.204 1026.3 Q174.376 1024.13 171.227 1024.13 Q168.079 1024.13 166.227 1026.3 Q164.399 1028.46 164.399 1032.18 Q164.399 1035.93 166.227 1038.09 Q168.079 1040.24 171.227 1040.24 Z" fill="#000000" fill-rule="evenodd" fill-opacity="1" /><path clip-path="url(#clip170)" d="M192.084 1054.89 L192.084 1050.63 Q193.843 1051.47 195.649 1051.9 Q197.454 1052.34 199.19 1052.34 Q203.82 1052.34 206.25 1049.24 Q208.704 1046.12 209.051 1039.78 Q207.709 1041.77 205.649 1042.83 Q203.588 1043.9 201.088 1043.9 Q195.903 1043.9 192.871 1040.77 Q189.862 1037.62 189.862 1032.18 Q189.862 1026.86 193.01 1023.64 Q196.158 1020.42 201.389 1020.42 Q207.385 1020.42 210.533 1025.03 Q213.704 1029.61 213.704 1038.36 Q213.704 1046.53 209.815 1051.42 Q205.949 1056.28 199.399 1056.28 Q197.639 1056.28 195.834 1055.93 Q194.028 1055.59 192.084 1054.89 M201.389 1040.24 Q204.537 1040.24 206.366 1038.09 Q208.218 1035.93 208.218 1032.18 Q208.218 1028.46 206.366 1026.3 Q204.537 1024.13 201.389 1024.13 Q198.241 1024.13 196.389 1026.3 Q194.561 1028.46 194.561 1032.18 Q194.561 1035.93 196.389 1038.09 Q198.241 1040.24 201.389 1040.24 Z" fill="#000000" fill-rule="evenodd" fill-opacity="1" /><path clip-path="url(#clip170)" d="M118.774 803.105 L126.413 803.105 L126.413 776.74 L118.103 778.406 L118.103 774.147 L126.367 772.48 L131.042 772.48 L131.042 803.105 L138.681 803.105 L138.681 807.04 L118.774 807.04 L118.774 803.105 Z" fill="#000000" fill-rule="evenodd" fill-opacity="1" /><path clip-path="url(#clip170)" d="M148.126 801.161 L153.01 801.161 L153.01 807.04 L148.126 807.04 L148.126 801.161 Z" fill="#000000" fill-rule="evenodd" fill-opacity="1" /><path clip-path="url(#clip170)" d="M173.195 775.559 Q169.584 775.559 167.755 779.124 Q165.95 782.666 165.95 789.795 Q165.95 796.902 167.755 800.466 Q169.584 804.008 173.195 804.008 Q176.829 804.008 178.635 800.466 Q180.464 796.902 180.464 789.795 Q180.464 782.666 178.635 779.124 Q176.829 775.559 173.195 775.559 M173.195 771.856 Q179.005 771.856 182.061 776.462 Q185.139 781.045 185.139 789.795 Q185.139 798.522 182.061 803.128 Q179.005 807.712 173.195 807.712 Q167.385 807.712 164.306 803.128 Q161.251 798.522 161.251 789.795 Q161.251 781.045 164.306 776.462 Q167.385 771.856 173.195 771.856 Z" fill="#000000" fill-rule="evenodd" fill-opacity="1" /><path clip-path="url(#clip170)" d="M197.385 803.105 L213.704 803.105 L213.704 807.04 L191.76 807.04 L191.76 803.105 Q194.422 800.351 199.005 795.721 Q203.612 791.068 204.792 789.726 Q207.037 787.203 207.917 785.467 Q208.82 783.707 208.82 782.017 Q208.82 779.263 206.875 777.527 Q204.954 775.791 201.852 775.791 Q199.653 775.791 197.2 776.555 Q194.769 777.318 191.991 778.869 L191.991 774.147 Q194.815 773.013 197.269 772.434 Q199.723 771.856 201.76 771.856 Q207.13 771.856 210.324 774.541 Q213.519 777.226 213.519 781.717 Q213.519 783.846 212.709 785.767 Q211.922 787.666 209.815 790.258 Q209.237 790.929 206.135 794.147 Q203.033 797.341 197.385 803.105 Z" fill="#000000" fill-rule="evenodd" fill-opacity="1" /><path clip-path="url(#clip170)" d="M118.172 554.537 L125.811 554.537 L125.811 528.172 L117.501 529.838 L117.501 525.579 L125.765 523.912 L130.441 523.912 L130.441 554.537 L138.079 554.537 L138.079 558.472 L118.172 558.472 L118.172 554.537 Z" fill="#000000" fill-rule="evenodd" fill-opacity="1" /><path clip-path="url(#clip170)" d="M147.524 552.593 L152.408 552.593 L152.408 558.472 L147.524 558.472 L147.524 552.593 Z" fill="#000000" fill-rule="evenodd" fill-opacity="1" /><path clip-path="url(#clip170)" d="M172.593 526.991 Q168.982 526.991 167.153 530.556 Q165.348 534.098 165.348 541.227 Q165.348 548.334 167.153 551.898 Q168.982 555.44 172.593 555.44 Q176.227 555.44 178.033 551.898 Q179.862 548.334 179.862 541.227 Q179.862 534.098 178.033 530.556 Q176.227 526.991 172.593 526.991 M172.593 523.287 Q178.403 523.287 181.459 527.894 Q184.538 532.477 184.538 541.227 Q184.538 549.954 181.459 554.56 Q178.403 559.144 172.593 559.144 Q166.783 559.144 163.704 554.56 Q160.649 549.954 160.649 541.227 Q160.649 532.477 163.704 527.894 Q166.783 523.287 172.593 523.287 Z" fill="#000000" fill-rule="evenodd" fill-opacity="1" /><path clip-path="url(#clip170)" d="M192.801 523.912 L211.158 523.912 L211.158 527.848 L197.084 527.848 L197.084 536.32 Q198.102 535.973 199.121 535.811 Q200.139 535.625 201.158 535.625 Q206.945 535.625 210.324 538.797 Q213.704 541.968 213.704 547.385 Q213.704 552.963 210.232 556.065 Q206.76 559.144 200.44 559.144 Q198.264 559.144 195.996 558.773 Q193.75 558.403 191.343 557.662 L191.343 552.963 Q193.426 554.097 195.649 554.653 Q197.871 555.209 200.348 555.209 Q204.352 555.209 206.69 553.102 Q209.028 550.996 209.028 547.385 Q209.028 543.773 206.69 541.667 Q204.352 539.561 200.348 539.561 Q198.473 539.561 196.598 539.977 Q194.746 540.394 192.801 541.273 L192.801 523.912 Z" fill="#000000" fill-rule="evenodd" fill-opacity="1" /><path clip-path="url(#clip170)" d="M117.269 305.969 L124.908 305.969 L124.908 279.604 L116.598 281.27 L116.598 277.011 L124.862 275.344 L129.538 275.344 L129.538 305.969 L137.177 305.969 L137.177 309.904 L117.269 309.904 L117.269 305.969 Z" fill="#000000" fill-rule="evenodd" fill-opacity="1" /><path clip-path="url(#clip170)" d="M146.621 304.025 L151.505 304.025 L151.505 309.904 L146.621 309.904 L146.621 304.025 Z" fill="#000000" fill-rule="evenodd" fill-opacity="1" /><path clip-path="url(#clip170)" d="M171.69 278.423 Q168.079 278.423 166.251 281.988 Q164.445 285.53 164.445 292.659 Q164.445 299.766 166.251 303.33 Q168.079 306.872 171.69 306.872 Q175.325 306.872 177.13 303.33 Q178.959 299.766 178.959 292.659 Q178.959 285.53 177.13 281.988 Q175.325 278.423 171.69 278.423 M171.69 274.719 Q177.501 274.719 180.556 279.326 Q183.635 283.909 183.635 292.659 Q183.635 301.386 180.556 305.992 Q177.501 310.576 171.69 310.576 Q165.88 310.576 162.802 305.992 Q159.746 301.386 159.746 292.659 Q159.746 283.909 162.802 279.326 Q165.88 274.719 171.69 274.719 Z" fill="#000000" fill-rule="evenodd" fill-opacity="1" /><path clip-path="url(#clip170)" d="M201.852 293.492 Q198.519 293.492 196.598 295.275 Q194.7 297.057 194.7 300.182 Q194.7 303.307 196.598 305.09 Q198.519 306.872 201.852 306.872 Q205.186 306.872 207.107 305.09 Q209.028 303.284 209.028 300.182 Q209.028 297.057 207.107 295.275 Q205.209 293.492 201.852 293.492 M197.176 291.502 Q194.167 290.761 192.477 288.701 Q190.811 286.641 190.811 283.678 Q190.811 279.534 193.75 277.127 Q196.713 274.719 201.852 274.719 Q207.014 274.719 209.954 277.127 Q212.894 279.534 212.894 283.678 Q212.894 286.641 211.204 288.701 Q209.537 290.761 206.551 291.502 Q209.931 292.289 211.806 294.58 Q213.704 296.872 213.704 300.182 Q213.704 305.205 210.625 307.891 Q207.57 310.576 201.852 310.576 Q196.135 310.576 193.056 307.891 Q190 305.205 190 300.182 Q190 296.872 191.899 294.58 Q193.797 292.289 197.176 291.502 M195.463 284.117 Q195.463 286.803 197.13 288.307 Q198.82 289.812 201.852 289.812 Q204.862 289.812 206.551 288.307 Q208.264 286.803 208.264 284.117 Q208.264 281.432 206.551 279.928 Q204.862 278.423 201.852 278.423 Q198.82 278.423 197.13 279.928 Q195.463 281.432 195.463 284.117 Z" fill="#000000" fill-rule="evenodd" fill-opacity="1" /><path clip-path="url(#clip170)" d="M16.4842 733.541 L16.4842 727.112 L60.694 727.112 Q69.2877 727.112 73.1708 730.39 Q77.0539 733.636 77.0539 740.862 L77.0539 743.312 L71.643 743.312 L71.643 741.307 Q71.643 737.042 69.2559 735.292 Q66.8687 733.541 60.694 733.541 L16.4842 733.541 Z" fill="#000000" fill-rule="evenodd" fill-opacity="1" /><polyline clip-path="url(#clip172)" style="stroke:#009af9; stroke-linecap:round; stroke-linejoin:round; stroke-width:16; stroke-opacity:1; fill:none" points="
  249.704,1384.24 251.416,1367.15 253.127,1351.36 254.839,1336.73 256.55,1323.14 258.262,1310.47 259.973,1298.65 260.829,1293.02 261.685,1287.57 262.54,1282.3 
  263.396,1277.19 267.352,1255.47 271.309,1236.46 275.265,1219.68 279.221,1204.75 283.178,1191.37 287.134,1179.32 291.09,1168.4 295.047,1158.46 302.959,1141 
  310.872,1126.16 318.785,1113.36 326.697,1102.2 334.61,1092.35 342.523,1083.58 350.435,1075.71 358.348,1068.58 374.173,1056.13 389.999,1045.54 409.019,1034.61 
  428.04,1025.12 447.061,1016.69 466.081,1009.06 498.245,997.418 530.408,986.851 600.286,965.8 664.706,947.195 733.772,927.034 813.791,902.649 884.903,879.674 
  947.262,858.358 1015.25,833.785 1083.64,807.617 1159.26,776.969 1231.2,746.141 1306.01,712.381 1368.98,682.641 1445.86,644.734 1516.29,608.512 1581.34,573.827 
  1647.23,537.526 1721.07,495.5 1787.99,456.238 1864.6,409.966 1935.54,365.922 2005.47,321.419 2073.37,277.232 2142.98,230.979 2219.24,179.246 2330.03,102.241 
  2352.76,86.1857 
  "/>
<path clip-path="url(#clip170)" d="
M1996.55 196.789 L2282.65 196.789 L2282.65 93.1086 L1996.55 93.1086  Z
  " fill="#ffffff" fill-rule="evenodd" fill-opacity="1"/>
<polyline clip-path="url(#clip170)" style="stroke:#000000; stroke-linecap:round; stroke-linejoin:round; stroke-width:4; stroke-opacity:1; fill:none" points="
  1996.55,196.789 2282.65,196.789 2282.65,93.1086 1996.55,93.1086 1996.55,196.789 
  "/>
<polyline clip-path="url(#clip170)" style="stroke:#009af9; stroke-linecap:round; stroke-linejoin:round; stroke-width:4; stroke-opacity:1; fill:none" points="
  2019.92,144.949 2160.12,144.949 
  "/>
<path clip-path="url(#clip170)" d="M2197.33 164.636 Q2195.53 169.266 2193.81 170.678 Q2192.1 172.09 2189.23 172.09 L2185.83 172.09 L2185.83 168.525 L2188.33 168.525 Q2190.09 168.525 2191.06 167.692 Q2192.03 166.858 2193.21 163.756 L2193.98 161.812 L2183.49 136.303 L2188 136.303 L2196.11 156.581 L2204.21 136.303 L2208.72 136.303 L2197.33 164.636 Z" fill="#000000" fill-rule="evenodd" fill-opacity="1" /><path clip-path="url(#clip170)" d="M2216.01 158.293 L2223.65 158.293 L2223.65 131.928 L2215.34 133.595 L2215.34 129.335 L2223.6 127.669 L2228.28 127.669 L2228.28 158.293 L2235.92 158.293 L2235.92 162.229 L2216.01 162.229 L2216.01 158.293 Z" fill="#000000" fill-rule="evenodd" fill-opacity="1" /></svg>
