<?xml version="1.0" encoding="utf-8"?>
<svg xmlns="http://www.w3.org/2000/svg" xmlns:xlink="http://www.w3.org/1999/xlink" width="600" height="400" viewBox="0 0 2400 1600">
<defs>
  <clipPath id="clip540">
    <rect x="0" y="0" width="2400" height="1600"/>
  </clipPath>
</defs>
<path clip-path="url(#clip540)" d="
M0 1600 L2400 1600 L2400 0 L0 0  Z
  " fill="#ffffff" fill-rule="evenodd" fill-opacity="1"/>
<defs>
  <clipPath id="clip541">
    <rect x="480" y="0" width="1681" height="1600"/>
  </clipPath>
</defs>
<path clip-path="url(#clip540)" d="
M213.607 1486.45 L2352.76 1486.45 L2352.76 47.2441 L213.607 47.2441  Z
  " fill="#ffffff" fill-rule="evenodd" fill-opacity="1"/>
<defs>
  <clipPath id="clip542">
    <rect x="213" y="47" width="2140" height="1440"/>
  </clipPath>
</defs>
<polyline clip-path="url(#clip542)" style="stroke:#000000; stroke-linecap:round; stroke-linejoin:round; stroke-width:2; stroke-opacity:0.1; fill:none" points="
  213.607,1486.45 213.607,47.2441 
  "/>
<polyline clip-path="url(#clip542)" style="stroke:#000000; stroke-linecap:round; stroke-linejoin:round; stroke-width:2; stroke-opacity:0.1; fill:none" points="
  748.395,1486.45 748.395,47.2441 
  "/>
<polyline clip-path="url(#clip542)" style="stroke:#000000; stroke-linecap:round; stroke-linejoin:round; stroke-width:2; stroke-opacity:0.1; fill:none" points="
  1283.18,1486.45 1283.18,47.2441 
  "/>
<polyline clip-path="url(#clip542)" style="stroke:#000000; stroke-linecap:round; stroke-linejoin:round; stroke-width:2; stroke-opacity:0.1; fill:none" points="
  1817.97,1486.45 1817.97,47.2441 
  "/>
<polyline clip-path="url(#clip542)" style="stroke:#000000; stroke-linecap:round; stroke-linejoin:round; stroke-width:2; stroke-opacity:0.1; fill:none" points="
  2352.76,1486.45 2352.76,47.2441 
  "/>
<polyline clip-path="url(#clip540)" style="stroke:#000000; stroke-linecap:round; stroke-linejoin:round; stroke-width:4; stroke-opacity:1; fill:none" points="
  213.607,1486.45 2352.76,1486.45 
  "/>
<polyline clip-path="url(#clip540)" style="stroke:#000000; stroke-linecap:round; stroke-linejoin:round; stroke-width:4; stroke-opacity:1; fill:none" points="
  213.607,1486.45 213.607,1467.55 
  "/>
<polyline clip-path="url(#clip540)" style="stroke:#000000; stroke-linecap:round; stroke-linejoin:round; stroke-width:4; stroke-opacity:1; fill:none" points="
  748.395,1486.45 748.395,1467.55 
  "/>
<polyline clip-path="url(#clip540)" style="stroke:#000000; stroke-linecap:round; stroke-linejoin:round; stroke-width:4; stroke-opacity:1; fill:none" points="
  1283.18,1486.45 1283.18,1467.55 
  "/>
<polyline clip-path="url(#clip540)" style="stroke:#000000; stroke-linecap:round; stroke-linejoin:round; stroke-width:4; stroke-opacity:1; fill:none" points="
  1817.97,1486.45 1817.97,1467.55 
  "/>
<polyline clip-path="url(#clip540)" style="stroke:#000000; stroke-linecap:round; stroke-linejoin:round; stroke-width:4; stroke-opacity:1; fill:none" points="
  2352.76,1486.45 2352.76,1467.55 
  "/>
<path clip-path="url(#clip540)" d="M167.67 1532.02 L197.346 1532.02 L197.346 1535.95 L167.67 1535.95 L167.67 1532.02 Z" fill="#000000" fill-rule="evenodd" fill-opacity="1" /><path clip-path="url(#clip540)" d="M211.466 1544.91 L227.786 1544.91 L227.786 1548.85 L205.841 1548.85 L205.841 1544.91 Q208.503 1542.16 213.087 1537.53 Q217.693 1532.88 218.874 1531.53 Q221.119 1529.01 221.999 1527.27 Q222.901 1525.51 222.901 1523.82 Q222.901 1521.07 220.957 1519.33 Q219.036 1517.6 215.934 1517.6 Q213.735 1517.6 211.281 1518.36 Q208.851 1519.13 206.073 1520.68 L206.073 1515.95 Q208.897 1514.82 211.351 1514.24 Q213.804 1513.66 215.841 1513.66 Q221.212 1513.66 224.406 1516.35 Q227.6 1519.03 227.6 1523.52 Q227.6 1525.65 226.79 1527.57 Q226.003 1529.47 223.897 1532.07 Q223.318 1532.74 220.216 1535.95 Q217.114 1539.15 211.466 1544.91 Z" fill="#000000" fill-rule="evenodd" fill-opacity="1" /><path clip-path="url(#clip540)" d="M247.6 1517.37 Q243.989 1517.37 242.161 1520.93 Q240.355 1524.47 240.355 1531.6 Q240.355 1538.71 242.161 1542.27 Q243.989 1545.82 247.6 1545.82 Q251.235 1545.82 253.04 1542.27 Q254.869 1538.71 254.869 1531.6 Q254.869 1524.47 253.04 1520.93 Q251.235 1517.37 247.6 1517.37 M247.6 1513.66 Q253.411 1513.66 256.466 1518.27 Q259.545 1522.85 259.545 1531.6 Q259.545 1540.33 256.466 1544.94 Q253.411 1549.52 247.6 1549.52 Q241.79 1549.52 238.712 1544.94 Q235.656 1540.33 235.656 1531.6 Q235.656 1522.85 238.712 1518.27 Q241.79 1513.66 247.6 1513.66 Z" fill="#000000" fill-rule="evenodd" fill-opacity="1" /><path clip-path="url(#clip540)" d="M702.457 1532.02 L732.133 1532.02 L732.133 1535.95 L702.457 1535.95 L702.457 1532.02 Z" fill="#000000" fill-rule="evenodd" fill-opacity="1" /><path clip-path="url(#clip540)" d="M743.036 1544.91 L750.675 1544.91 L750.675 1518.55 L742.365 1520.21 L742.365 1515.95 L750.628 1514.29 L755.304 1514.29 L755.304 1544.91 L762.943 1544.91 L762.943 1548.85 L743.036 1548.85 L743.036 1544.91 Z" fill="#000000" fill-rule="evenodd" fill-opacity="1" /><path clip-path="url(#clip540)" d="M782.387 1517.37 Q778.776 1517.37 776.948 1520.93 Q775.142 1524.47 775.142 1531.6 Q775.142 1538.71 776.948 1542.27 Q778.776 1545.82 782.387 1545.82 Q786.022 1545.82 787.827 1542.27 Q789.656 1538.71 789.656 1531.6 Q789.656 1524.47 787.827 1520.93 Q786.022 1517.37 782.387 1517.37 M782.387 1513.66 Q788.198 1513.66 791.253 1518.27 Q794.332 1522.85 794.332 1531.6 Q794.332 1540.33 791.253 1544.94 Q788.198 1549.52 782.387 1549.52 Q776.577 1549.52 773.499 1544.94 Q770.443 1540.33 770.443 1531.6 Q770.443 1522.85 773.499 1518.27 Q776.577 1513.66 782.387 1513.66 Z" fill="#000000" fill-rule="evenodd" fill-opacity="1" /><path clip-path="url(#clip540)" d="M1283.18 1517.37 Q1279.57 1517.37 1277.74 1520.93 Q1275.94 1524.47 1275.94 1531.6 Q1275.94 1538.71 1277.74 1542.27 Q1279.57 1545.82 1283.18 1545.82 Q1286.82 1545.82 1288.62 1542.27 Q1290.45 1538.71 1290.45 1531.6 Q1290.45 1524.47 1288.62 1520.93 Q1286.82 1517.37 1283.18 1517.37 M1283.18 1513.66 Q1288.99 1513.66 1292.05 1518.27 Q1295.13 1522.85 1295.13 1531.6 Q1295.13 1540.33 1292.05 1544.94 Q1288.99 1549.52 1283.18 1549.52 Q1277.37 1549.52 1274.29 1544.94 Q1271.24 1540.33 1271.24 1531.6 Q1271.24 1522.85 1274.29 1518.27 Q1277.37 1513.66 1283.18 1513.66 Z" fill="#000000" fill-rule="evenodd" fill-opacity="1" /><path clip-path="url(#clip540)" d="M1792.66 1544.91 L1800.3 1544.91 L1800.3 1518.55 L1791.99 1520.21 L1791.99 1515.95 L1800.25 1514.29 L1804.92 1514.29 L1804.92 1544.91 L1812.56 1544.91 L1812.56 1548.85 L1792.66 1548.85 L1792.66 1544.91 Z" fill="#000000" fill-rule="evenodd" fill-opacity="1" /><path clip-path="url(#clip540)" d="M1832.01 1517.37 Q1828.4 1517.37 1826.57 1520.93 Q1824.76 1524.47 1824.76 1531.6 Q1824.76 1538.71 1826.57 1542.27 Q1828.4 1545.82 1832.01 1545.82 Q1835.64 1545.82 1837.45 1542.27 Q1839.28 1538.71 1839.28 1531.6 Q1839.28 1524.47 1837.45 1520.93 Q1835.64 1517.37 1832.01 1517.37 M1832.01 1513.66 Q1837.82 1513.66 1840.87 1518.27 Q1843.95 1522.85 1843.95 1531.6 Q1843.95 1540.33 1840.87 1544.94 Q1837.82 1549.52 1832.01 1549.52 Q1826.2 1549.52 1823.12 1544.94 Q1820.06 1540.33 1820.06 1531.6 Q1820.06 1522.85 1823.12 1518.27 Q1826.2 1513.66 1832.01 1513.66 Z" fill="#000000" fill-rule="evenodd" fill-opacity="1" /><path clip-path="url(#clip540)" d="M2331.53 1544.91 L2347.85 1544.91 L2347.85 1548.85 L2325.9 1548.85 L2325.9 1544.91 Q2328.57 1542.16 2333.15 1537.53 Q2337.76 1532.88 2338.94 1531.53 Q2341.18 1529.01 2342.06 1527.27 Q2342.96 1525.51 2342.96 1523.82 Q2342.96 1521.07 2341.02 1519.33 Q2339.1 1517.6 2336 1517.6 Q2333.8 1517.6 2331.34 1518.36 Q2328.91 1519.13 2326.14 1520.68 L2326.14 1515.95 Q2328.96 1514.82 2331.41 1514.24 Q2333.87 1513.66 2335.9 1513.66 Q2341.27 1513.66 2344.47 1516.35 Q2347.66 1519.03 2347.66 1523.52 Q2347.66 1525.65 2346.85 1527.57 Q2346.07 1529.47 2343.96 1532.07 Q2343.38 1532.74 2340.28 1535.95 Q2337.18 1539.15 2331.53 1544.91 Z" fill="#000000" fill-rule="evenodd" fill-opacity="1" /><path clip-path="url(#clip540)" d="M2367.66 1517.37 Q2364.05 1517.37 2362.22 1520.93 Q2360.42 1524.47 2360.42 1531.6 Q2360.42 1538.71 2362.22 1542.27 Q2364.05 1545.82 2367.66 1545.82 Q2371.3 1545.82 2373.1 1542.27 Q2374.93 1538.71 2374.93 1531.6 Q2374.93 1524.47 2373.1 1520.93 Q2371.3 1517.37 2367.66 1517.37 M2367.66 1513.66 Q2373.47 1513.66 2376.53 1518.27 Q2379.61 1522.85 2379.61 1531.6 Q2379.61 1540.33 2376.53 1544.94 Q2373.47 1549.52 2367.66 1549.52 Q2361.85 1549.52 2358.77 1544.94 Q2355.72 1540.33 2355.72 1531.6 Q2355.72 1522.85 2358.77 1518.27 Q2361.85 1513.66 2367.66 1513.66 Z" fill="#000000" fill-rule="evenodd" fill-opacity="1" /><polyline clip-path="url(#clip542)" style="stroke:#000000; stroke-linecap:round; stroke-linejoin:round; stroke-width:2; stroke-opacity:0.1; fill:none" points="
  213.607,908.783 2352.76,908.783 
  "/>
<polyline clip-path="url(#clip542)" style="stroke:#000000; stroke-linecap:round; stroke-linejoin:round; stroke-width:2; stroke-opacity:0.1; fill:none" points="
  213.607,141.737 2352.76,141.737 
  "/>
<polyline clip-path="url(#clip540)" style="stroke:#000000; stroke-linecap:round; stroke-linejoin:round; stroke-width:4; stroke-opacity:1; fill:none" points="
  213.607,1486.45 213.607,47.2441 
  "/>
<polyline clip-path="url(#clip540)" style="stroke:#000000; stroke-linecap:round; stroke-linejoin:round; stroke-width:4; stroke-opacity:1; fill:none" points="
  213.607,908.783 232.505,908.783 
  "/>
<polyline clip-path="url(#clip540)" style="stroke:#000000; stroke-linecap:round; stroke-linejoin:round; stroke-width:4; stroke-opacity:1; fill:none" points="
  213.607,141.737 232.505,141.737 
  "/>
<path clip-path="url(#clip540)" d="M51.6634 928.576 L59.3023 928.576 L59.3023 902.21 L50.9921 903.877 L50.9921 899.618 L59.256 897.951 L63.9319 897.951 L63.9319 928.576 L71.5707 928.576 L71.5707 932.511 L51.6634 932.511 L51.6634 928.576 Z" fill="#000000" fill-rule="evenodd" fill-opacity="1" /><path clip-path="url(#clip540)" d="M91.0151 901.03 Q87.404 901.03 85.5753 904.594 Q83.7697 908.136 83.7697 915.266 Q83.7697 922.372 85.5753 925.937 Q87.404 929.478 91.0151 929.478 Q94.6493 929.478 96.4548 925.937 Q98.2835 922.372 98.2835 915.266 Q98.2835 908.136 96.4548 904.594 Q94.6493 901.03 91.0151 901.03 M91.0151 897.326 Q96.8252 897.326 99.8808 901.932 Q102.959 906.516 102.959 915.266 Q102.959 923.992 99.8808 928.599 Q96.8252 933.182 91.0151 933.182 Q85.2049 933.182 82.1262 928.599 Q79.0707 923.992 79.0707 915.266 Q79.0707 906.516 82.1262 901.932 Q85.2049 897.326 91.0151 897.326 Z" fill="#000000" fill-rule="evenodd" fill-opacity="1" /><path clip-path="url(#clip540)" d="M102.959 891.427 L127.071 891.427 L127.071 894.625 L102.959 894.625 L102.959 891.427 Z" fill="#000000" fill-rule="evenodd" fill-opacity="1" /><path clip-path="url(#clip540)" d="M135.929 901.903 L142.136 901.903 L142.136 880.481 L135.384 881.835 L135.384 878.375 L142.098 877.02 L145.898 877.02 L145.898 901.903 L152.104 901.903 L152.104 905.1 L135.929 905.1 L135.929 901.903 Z" fill="#000000" fill-rule="evenodd" fill-opacity="1" /><path clip-path="url(#clip540)" d="M167.903 879.522 Q164.969 879.522 163.483 882.418 Q162.016 885.296 162.016 891.089 Q162.016 896.863 163.483 899.759 Q164.969 902.637 167.903 902.637 Q170.855 902.637 172.322 899.759 Q173.808 896.863 173.808 891.089 Q173.808 885.296 172.322 882.418 Q170.855 879.522 167.903 879.522 M167.903 876.513 Q172.623 876.513 175.106 880.255 Q177.607 883.979 177.607 891.089 Q177.607 898.179 175.106 901.922 Q172.623 905.646 167.903 905.646 Q163.182 905.646 160.68 901.922 Q158.198 898.179 158.198 891.089 Q158.198 883.979 160.68 880.255 Q163.182 876.513 167.903 876.513 Z" fill="#000000" fill-rule="evenodd" fill-opacity="1" /><path clip-path="url(#clip540)" d="M106.902 161.529 L114.541 161.529 L114.541 135.164 L106.231 136.83 L106.231 132.571 L114.494 130.904 L119.17 130.904 L119.17 161.529 L126.809 161.529 L126.809 165.464 L106.902 165.464 L106.902 161.529 Z" fill="#000000" fill-rule="evenodd" fill-opacity="1" /><path clip-path="url(#clip540)" d="M146.253 133.983 Q142.642 133.983 140.814 137.548 Q139.008 141.09 139.008 148.219 Q139.008 155.326 140.814 158.89 Q142.642 162.432 146.253 162.432 Q149.888 162.432 151.693 158.89 Q153.522 155.326 153.522 148.219 Q153.522 141.09 151.693 137.548 Q149.888 133.983 146.253 133.983 M146.253 130.279 Q152.064 130.279 155.119 134.886 Q158.198 139.469 158.198 148.219 Q158.198 156.946 155.119 161.552 Q152.064 166.136 146.253 166.136 Q140.443 166.136 137.365 161.552 Q134.309 156.946 134.309 148.219 Q134.309 139.469 137.365 134.886 Q140.443 130.279 146.253 130.279 Z" fill="#000000" fill-rule="evenodd" fill-opacity="1" /><path clip-path="url(#clip540)" d="M167.903 112.476 Q164.969 112.476 163.483 115.372 Q162.016 118.25 162.016 124.042 Q162.016 129.816 163.483 132.713 Q164.969 135.59 167.903 135.59 Q170.855 135.59 172.322 132.713 Q173.808 129.816 173.808 124.042 Q173.808 118.25 172.322 115.372 Q170.855 112.476 167.903 112.476 M167.903 109.466 Q172.623 109.466 175.106 113.209 Q177.607 116.933 177.607 124.042 Q177.607 131.133 175.106 134.876 Q172.623 138.6 167.903 138.6 Q163.182 138.6 160.68 134.876 Q158.198 131.133 158.198 124.042 Q158.198 116.933 160.68 113.209 Q163.182 109.466 167.903 109.466 Z" fill="#000000" fill-rule="evenodd" fill-opacity="1" /><polyline clip-path="url(#clip542)" style="stroke:#009af9; stroke-linecap:round; stroke-linejoin:round; stroke-width:16; stroke-opacity:1; fill:none" points="
  213.607,118.938 213.716,133.049 213.825,149.043 213.934,102.314 214.043,137.113 214.152,142.387 214.26,155.679 214.369,117.727 214.478,98.3996 214.587,164.146 
  214.696,125.863 214.804,125.813 214.913,103.723 215.022,192.74 215.131,136.227 215.24,87.9763 215.348,145.616 215.457,136.123 215.566,229.018 215.675,163.057 
  215.784,114.639 215.892,99.891 216.001,110.258 216.11,180.687 216.219,144.562 216.328,138.643 216.436,102.934 216.545,133.584 216.654,114.853 216.763,155.706 
  216.872,110.165 216.98,114.465 217.089,92.9013 217.198,133.788 217.307,120.548 217.416,112.858 217.524,147.414 217.633,139.55 217.742,157.923 217.851,133.901 
  217.96,145.531 218.068,126.401 218.177,109.668 218.286,164.05 218.395,109.225 218.504,170.459 218.613,144.194 218.721,169.543 218.83,131.645 218.939,166.007 
  219.048,121.912 219.157,136.464 219.265,145.996 219.374,207.533 219.483,148.17 219.592,179.696 219.701,121.769 219.809,153.556 219.918,130.526 220.027,162.802 
  220.136,132.087 220.245,106.07 220.353,144.831 220.462,229.113 220.571,138.633 220.68,110.644 220.789,162.915 220.897,220.428 221.006,134.484 221.115,120.196 
  221.224,179.12 221.333,162.533 221.441,116.334 221.55,146.741 221.659,138.662 221.768,208.172 221.877,152.066 221.985,147.559 222.094,127.964 222.203,127.762 
  222.312,130.807 222.421,220.584 222.529,112.034 222.638,136.311 222.747,145.748 222.856,162.914 222.965,150.372 223.074,171.808 223.182,169.483 223.291,120.126 
  223.4,158.263 223.509,133.657 223.618,281.487 223.726,119.749 223.835,183.963 223.944,125.548 224.053,121.411 224.162,134.85 224.27,104.682 224.379,108.421 
  224.488,153.911 224.597,147.072 224.706,215.815 224.814,154.199 224.923,124.511 225.032,127.979 225.141,175.408 225.25,196.021 225.358,158.813 225.467,136.993 
  225.576,111.35 225.685,109.276 225.794,155.5 225.902,104.704 226.011,123.083 226.12,121.398 226.229,175.992 226.338,231.195 226.446,156.5 226.555,122.756 
  226.664,183.338 226.773,152.865 226.882,173.585 226.99,170.786 227.099,208.193 227.208,173.707 227.317,131.423 227.426,296.812 227.535,216.561 228.541,184.879 
  229.547,149.141 230.553,163.764 231.559,137.672 232.565,152.809 233.571,159.391 234.577,185.41 235.583,159.93 236.589,206.091 237.595,266.413 238.601,210.977 
  239.607,202.567 240.613,154.654 241.619,157.298 242.625,152.908 243.631,202.039 244.637,212.41 245.644,176.077 246.65,136.326 247.656,177.184 248.662,179.124 
  249.668,168.172 250.674,219.218 251.68,155.504 252.686,162.33 253.692,251.516 254.698,184.39 255.704,233.558 256.71,253.975 257.716,193.079 258.722,150.29 
  259.728,157.229 260.734,230.267 261.74,184.913 262.747,177.579 263.753,286.717 264.759,207.595 265.765,223.976 266.771,169.453 267.777,166.61 268.783,263.951 
  269.789,222.46 270.795,186.763 271.801,181.605 272.807,252.487 273.813,210.298 274.819,199.728 275.825,199.558 276.831,187.751 277.837,232.185 278.843,168.045 
  279.85,215.247 280.856,226.971 281.862,204.903 282.868,206.035 283.874,312.026 284.88,217.365 285.886,266.743 286.892,224.563 287.898,252.306 288.904,179.148 
  289.91,261.31 290.916,235.652 291.922,251.419 292.928,195.638 293.934,211.986 294.94,295.07 295.946,229.452 296.953,220.991 297.959,358.74 298.965,233.44 
  299.971,233.108 300.977,278.379 301.983,244.094 302.989,221.124 303.995,253.326 305.001,254.444 306.007,237.677 307.013,270.673 308.019,272.007 309.025,232.634 
  310.031,261.662 311.037,230.627 312.043,239.186 313.049,258.897 314.056,231.513 315.062,245.62 316.068,309.893 317.074,248.749 318.08,330.335 319.086,308.299 
  320.092,253.395 321.098,279.82 322.104,267.361 323.11,242.646 324.116,280.771 325.122,250.962 326.128,345.417 327.134,261.832 328.14,252.525 329.146,339.773 
  330.152,269.559 331.158,258.318 332.165,276.884 333.171,268.218 334.177,350.574 335.183,261.185 336.189,383.297 337.195,256.393 338.201,275.273 339.207,275.413 
  340.213,333.386 341.219,431.068 342.225,261.734 343.231,255.517 344.237,290.374 345.243,359.107 346.249,362.585 347.255,296.092 348.261,407.268 349.268,454.707 
  350.274,276.924 351.28,308.196 352.286,274.997 353.292,318.248 354.298,372.279 355.304,273.02 356.31,337.179 356.915,380.307 357.519,305.925 358.124,342.009 
  358.728,331.81 359.333,327.991 359.938,302.808 360.542,306.386 361.147,321.618 361.751,295.001 362.356,272.4 362.961,285.128 363.565,321.971 364.17,384.467 
  364.774,292.124 365.379,305.687 365.984,300.683 366.588,391.862 367.193,362.43 367.797,299.244 368.402,298.199 369.007,353.272 369.611,311.43 370.216,422.957 
  370.82,315.061 371.425,476.007 372.03,312.109 372.634,412.123 373.239,320.589 373.843,306.081 374.448,304.78 375.053,319.044 375.657,320.687 376.262,362.146 
  376.866,311.575 377.471,326.409 378.076,322.179 378.68,375.231 379.285,328.835 379.889,324.175 380.494,327.237 381.099,328.927 381.703,320.728 382.308,343.876 
  382.912,353.619 383.517,325.905 384.122,366.626 384.726,381.975 385.331,358.457 385.935,370.861 386.54,322.357 387.145,352.843 387.749,345.681 388.354,345.387 
  388.958,327.871 389.563,386.264 390.167,348.538 390.772,321.61 391.377,363.549 391.981,395.383 392.586,374.592 393.19,369.057 393.795,350.336 394.4,378.258 
  395.004,400.598 395.609,325.804 396.213,336.255 396.818,373.896 397.423,380.223 398.027,425.911 398.632,330.852 399.236,326.696 399.841,367.365 400.446,356.769 
  401.05,471.637 401.655,401.98 402.259,420.943 402.864,380.164 403.469,358.991 404.073,408.025 404.678,426.004 405.282,342.091 405.887,347.045 406.492,393.752 
  407.096,356.792 407.701,374.12 408.305,472.107 408.91,385.326 409.515,360.794 410.119,354.014 410.724,363.398 411.328,355.502 411.933,422.972 412.538,385.488 
  413.142,361.111 413.747,361.413 414.351,339.739 414.956,359.226 415.561,368.746 416.165,419.064 416.77,381.405 417.374,417.118 417.979,359.652 418.584,403.8 
  419.188,379.133 419.793,409.42 420.397,419.216 421.002,386.44 421.607,435.801 422.211,368.114 422.816,355.182 423.42,382.178 424.025,384.04 424.63,374.755 
  425.234,368.4 425.839,381.937 426.443,397.664 427.048,375.463 427.653,406.681 428.257,414.341 428.862,416.417 429.466,392.594 430.071,366.781 430.676,408.854 
  431.28,430.56 431.885,390.203 432.489,469.559 433.094,385.827 433.699,397.359 434.21,421.359 434.721,440.815 435.232,359.867 435.743,369.633 436.255,402.93 
  436.766,420.502 437.277,451.552 437.788,399.326 438.299,417.566 438.81,366.787 439.322,397.393 439.833,528.877 440.344,504.256 440.855,446.847 441.366,416.67 
  441.878,447.404 442.389,511.326 442.9,383.778 443.411,444.535 443.922,391.893 444.433,434.858 444.945,373.136 445.456,485.865 445.967,574.858 446.478,395.018 
  446.989,387.675 447.501,374.061 448.012,431.482 448.523,399.158 449.034,495.321 449.545,389.755 450.056,419.987 450.568,399.348 451.079,415.213 451.59,416.292 
  452.101,399.91 452.612,401.714 453.123,467.427 453.635,410.795 454.146,427.839 454.657,417.478 455.168,385.163 455.679,426.331 456.191,410.182 456.702,461.475 
  457.213,398.643 457.724,583.536 458.235,465.672 458.746,430.909 459.258,436.842 459.769,402.16 460.28,421.495 460.791,528.079 461.302,456.363 461.814,443.733 
  462.325,445.876 462.836,548.235 463.347,434.806 463.858,445.537 464.369,467.331 464.881,484.724 465.392,444.176 465.903,403.408 466.414,468.638 466.925,405.315 
  467.437,552.859 467.948,460.42 468.459,437.188 468.97,421.193 469.481,447.523 469.992,479.937 470.504,454.639 471.015,472.407 471.526,421.878 472.037,445.168 
  472.548,441.774 473.06,410.573 473.571,445.942 474.082,416.892 474.593,475.775 475.104,423.896 475.615,531.903 476.127,464.103 476.638,599.682 477.149,482.673 
  477.66,549.5 478.171,418.956 478.683,503.578 479.194,451.369 479.705,478.743 480.216,536.211 480.727,507.198 481.238,501.391 481.75,489.497 482.261,438.833 
  482.772,429.774 483.283,467.995 483.794,468.101 484.306,601.344 484.817,448.345 485.328,425.52 485.839,460.774 486.35,532.08 486.861,463.579 487.373,428.736 
  487.884,467.648 488.395,493.498 488.906,469.514 489.417,456.673 489.929,468.026 490.44,455.887 490.951,471.615 491.462,502.51 491.973,489.884 492.484,459.247 
  492.996,438.182 493.507,469.727 494.018,467.602 494.529,474.523 495.04,479.352 495.552,506.321 496.063,527.566 496.574,550.093 497.085,495.249 497.596,471.085 
  498.107,453.009 498.619,466.886 499.13,490.333 499.685,526.606 500.24,467.097 500.796,552.201 501.351,523.786 501.906,567.872 502.461,513.416 503.017,621.47 
  503.572,539.276 504.127,454.618 504.683,512.762 505.238,526.489 505.793,603.118 506.348,459.874 506.904,510.028 507.459,509.52 508.014,478.404 508.57,484.389 
  509.125,508.74 509.68,477.808 510.235,526.479 510.791,510.112 511.346,471.779 511.901,484.856 512.457,472.206 513.012,589.677 513.567,469.548 514.122,675.726 
  514.678,502.07 515.233,667.151 515.788,489.602 516.344,494.536 516.899,478.435 517.454,524.514 518.009,469.49 518.565,472.427 519.12,527.304 519.675,468.109 
  520.231,492.467 520.786,470.752 521.341,479.771 521.896,594.593 522.452,529.273 523.007,539.501 523.562,576.315 524.118,500.412 524.673,521.922 525.228,498.699 
  525.783,594.727 526.339,496.226 526.894,480.871 527.449,517.286 528.005,578.614 528.56,509.786 529.115,516.007 529.67,628.826 530.226,518.98 530.781,544.722 
  531.336,527.884 531.892,533.615 532.447,503.793 533.002,526.413 533.557,573.316 534.113,523.16 534.668,699.007 535.223,512.44 535.779,515.758 536.334,529.412 
  536.889,533.477 537.444,542.42 538,530.098 538.555,563.774 539.11,548.668 539.666,509.31 540.221,521.242 540.776,520.153 541.331,530.542 541.887,491.226 
  542.442,577.391 542.997,520.021 543.553,533.513 544.108,525.635 544.663,555.109 545.218,582.666 545.774,565.662 546.329,551.74 546.884,545.919 547.44,536.697 
  547.995,571.9 548.55,592.534 549.105,561.92 549.661,540.626 550.216,523.379 550.771,521.963 551.327,619.345 551.882,565.859 552.437,581.445 552.992,552.924 
  553.548,602.744 554.103,527.498 554.658,579.144 555.214,535.533 555.769,527.425 556.324,707.508 556.879,532.624 557.435,569.356 557.99,586.504 558.545,513.768 
  559.101,516.486 559.656,554.631 560.211,523.049 560.766,531.608 561.322,529.407 561.877,592.677 562.432,547.375 562.988,514.545 563.543,637.167 564.098,551.207 
  564.653,587.42 565.209,547.599 565.764,565.89 566.319,534.946 566.875,620.902 567.43,610.402 567.985,558.16 568.54,617.253 569.096,682.727 569.651,600.969 
  570.206,587.534 570.718,572.596 571.23,567.829 571.742,527.212 572.254,535.692 572.766,566.917 573.278,599.179 573.79,573.172 574.302,606.653 574.814,575.647 
  575.326,627.37 575.837,627.524 576.349,569.628 576.861,565.533 577.373,560.13 577.885,563.053 578.397,552.356 578.909,605.323 579.421,569.084 579.933,593.088 
  580.445,675.311 580.957,574.21 581.469,618.587 581.981,608.364 582.493,558.628 583.004,660.653 583.516,624.816 584.028,678.949 584.54,585.584 585.052,575.474 
  585.564,556.634 586.076,627.726 586.588,598.552 587.1,607.644 587.612,603.658 588.124,571.372 588.636,596.399 589.148,580.591 589.659,641.979 590.171,593.312 
  590.683,652.493 591.195,601.119 591.707,652.409 592.219,596.168 592.731,610.005 593.243,708.067 593.755,560.338 594.267,691.427 594.779,640.11 595.291,597.708 
  595.803,596.052 596.314,575.15 596.826,590.391 597.338,580.47 597.85,577.219 598.362,630.959 598.874,624.544 599.386,601.939 599.898,601.32 600.41,564.938 
  600.922,614.119 601.434,591.931 601.946,595.978 602.458,620.747 602.969,627.861 603.481,572.094 603.993,615.55 604.505,611.115 605.017,592.444 605.529,636.251 
  606.041,633.808 606.553,580.31 607.065,696.985 607.577,597.269 608.089,598.77 608.601,589.757 609.113,651.883 609.624,641.592 610.136,662.265 610.648,628.431 
  611.16,596.103 611.672,605.035 612.184,605.038 612.696,635.82 613.208,605.402 613.72,654.796 614.232,648.16 614.744,707.96 615.256,619.609 615.768,643.527 
  616.28,632.57 616.791,605.836 617.303,615.891 617.815,662.017 618.327,621.754 618.839,666.468 619.351,607.877 619.863,636.645 620.375,630.212 620.887,619.657 
  621.399,631.875 621.911,642.592 622.423,624.677 622.935,631.383 623.446,628.358 623.958,626.366 624.47,667.727 624.982,615.27 625.494,634.599 626.006,627.192 
  626.518,634.755 627.03,626.606 627.542,669.699 628.054,622.028 628.566,613.324 629.078,652.336 629.59,655.096 630.101,649.305 630.613,626.044 631.125,741.075 
  631.637,634.555 632.149,641.723 632.661,698.877 633.173,599.156 633.685,669.245 634.197,620.358 634.709,647.87 635.221,632.634 635.733,638.254 636.281,691.226 
  636.83,677.043 637.379,621.934 637.928,674.956 638.477,617.808 639.026,658.479 639.574,660.548 640.123,665.534 640.672,659.101 641.221,720.52 641.77,622.81 
  642.319,633.751 642.868,656.429 643.416,644.065 643.965,612.517 644.514,701.882 645.063,673.777 645.612,630.103 646.161,640.974 646.709,699.415 647.258,655.145 
  647.807,689.943 648.356,641.574 648.905,677.141 649.454,664.075 650.002,669.841 650.551,686.845 651.1,668.325 651.649,638.985 652.198,719.002 652.747,744.482 
  653.295,695.494 653.844,691.276 654.393,768.919 654.942,738.825 655.491,667.996 656.04,673.432 656.588,685.358 657.137,701.028 657.686,670.618 658.235,671.226 
  658.784,645.783 659.333,639.07 659.881,649.052 660.43,658.529 660.979,716.726 661.528,673.622 662.077,692.22 662.626,763.118 663.174,682.534 663.723,680.568 
  664.272,706.302 664.821,677.613 665.37,691.222 665.919,761.705 666.467,692.258 667.016,676.242 667.565,656.956 668.114,690.716 668.663,788.341 669.212,689.039 
  669.761,709.733 670.309,695.182 670.858,676.286 671.407,741.192 671.956,648.885 672.505,719 673.054,660.748 673.602,697.962 674.151,662.362 674.7,670.988 
  675.249,671.287 675.798,744.957 676.347,790.985 676.895,712.709 677.444,697.263 677.993,682.56 678.542,678.591 679.091,806.86 679.64,728.889 680.188,709.975 
  680.737,666.188 681.286,673.089 681.835,673.692 682.384,705.118 682.933,753.507 683.481,700.355 684.03,688.988 684.579,698.884 685.128,692.496 685.677,730.641 
  686.226,705.324 686.774,723.284 687.323,702.634 687.872,696.319 688.421,736.252 688.97,808.519 689.519,704.329 690.067,718.225 690.616,704.933 691.165,688.095 
  691.714,807.241 692.263,707.154 692.812,783.231 693.361,700.194 693.909,788.003 694.458,736.667 695.007,754.285 695.556,704.244 696.105,755.854 696.654,721.458 
  697.202,718.117 697.751,719.077 698.3,766.722 698.849,712.622 699.398,714.483 699.947,715.87 700.495,712.094 701.044,698.913 701.593,743.439 702.142,765.325 
  702.691,780.923 703.24,733.581 703.788,731.974 704.337,743.369 704.886,784.145 705.435,762.378 705.984,715.2 706.62,719.373 707.256,753.02 707.891,734.8 
  708.527,752.902 709.163,709.678 709.799,754.587 710.435,715.028 711.071,796.224 711.707,758.255 712.343,730.232 712.978,749.066 713.614,715.83 714.25,741.591 
  714.886,716.803 715.522,746.718 716.158,723.754 716.794,748.538 717.43,791.275 718.065,772.545 718.701,744.859 719.337,920.386 719.973,746.35 720.609,726.642 
  721.245,737.715 721.881,791.236 722.517,744.376 723.153,825.603 723.788,744.041 724.424,760.419 725.06,829.183 725.696,810.023 726.332,752.568 726.968,727.358 
  727.604,759.424 728.24,749.66 728.875,803.572 729.511,805.849 730.147,753.362 730.783,859.761 731.419,773.542 732.055,793.19 732.691,767.777 733.327,775.734 
  733.963,743.178 734.598,796.528 735.234,776.048 735.87,770.651 736.506,757.655 737.142,765.225 737.778,977.198 738.414,843.592 739.05,773.861 739.685,783.996 
  740.321,786.201 740.957,793.25 741.593,784.145 742.229,794.401 742.865,783.445 743.501,764.003 744.137,792.673 744.773,785.521 745.408,813.323 746.044,816.031 
  746.68,753.731 747.316,787.819 747.952,772.045 748.588,827.481 749.224,787.237 749.86,825.782 750.495,864.431 751.131,872.147 751.767,828.245 752.403,750.071 
  753.039,828.102 753.675,797.859 754.311,790.411 754.947,806.903 755.582,823.339 756.218,844.089 756.854,788.322 757.49,816.167 758.126,865.852 758.762,765.481 
  759.398,763.53 760.034,759.153 760.67,898.076 761.305,802.091 761.941,853.075 762.577,771.955 763.213,838.156 763.849,801.225 764.485,833.607 765.121,809.561 
  765.757,783.699 766.392,823.253 767.028,799.11 767.664,834.879 768.3,817.622 768.936,803.963 769.572,863.703 770.208,818.72 770.844,813.993 771.48,814.747 
  772.115,818.969 772.751,786.329 773.387,817.387 774.023,795.74 774.659,818.478 775.295,853.245 775.931,874.367 776.567,823.364 777.202,984.978 777.838,798.684 
  778.474,874.28 779.11,811.099 779.746,824.592 780.382,809.981 781.018,849.478 781.654,854.805 782.29,857.006 782.925,809.187 783.561,830.861 784.197,821.155 
  784.833,891.015 785.469,916.157 786.105,800.144 786.741,806.184 787.377,818.206 787.942,836.014 788.507,813.914 789.072,833.78 789.637,823.998 790.202,842.907 
  790.767,845.794 791.332,860.514 791.897,834.03 792.462,873.631 793.028,807.518 793.593,837.718 794.158,814.612 794.723,850.231 795.288,823.159 795.853,908.587 
  796.418,868.642 796.983,847.777 797.548,938.09 798.113,835.163 798.678,839.185 799.244,838.667 799.809,821.808 800.374,876.35 800.939,875.842 801.504,898.474 
  802.069,853.211 802.634,881.872 803.199,835.553 803.764,851.133 804.329,880.502 804.895,977.583 805.46,883.826 806.025,858.549 806.59,854.987 807.155,882.726 
  807.72,879.824 808.285,860.284 808.85,1017.29 809.415,854.816 809.98,871.807 810.546,846.791 811.111,906.426 811.676,886.296 812.241,866.431 812.806,873.366 
  813.371,855.562 813.936,901.785 814.501,886.734 815.066,863.029 815.631,854.486 816.196,873.257 816.762,829.722 817.327,861.524 817.892,845.265 818.457,865.271 
  819.022,849.863 819.587,861.451 820.152,906.793 820.717,1030.54 821.282,881.189 821.847,853.896 822.413,865.419 822.978,1009.05 823.543,860.972 824.108,884.355 
  824.673,953.704 825.238,887.769 825.803,909.649 826.368,855.424 826.933,895.793 827.498,931.835 828.063,857.167 828.629,892.836 829.194,853.822 829.759,894.007 
  830.324,878.14 830.889,887.227 831.454,914.793 832.019,889.821 832.584,871.492 833.149,939.117 833.714,896.498 834.28,888.928 834.845,922.682 835.41,905.503 
  835.975,855.69 836.54,885.246 837.105,887.482 837.67,870.624 838.235,865.436 838.8,942.722 839.365,861.763 839.931,896.869 840.496,899.599 841.061,994.59 
  841.626,883.244 842.191,859.329 842.756,882.307 843.321,892.26 843.886,915.971 844.451,936.717 845.016,954.308 845.581,911.991 846.147,929.761 846.712,900.883 
  847.277,950.642 847.842,946.104 848.407,920.534 848.972,928.254 849.537,993.88 850.102,972.485 850.667,910.991 851.232,923.904 851.798,888.973 852.363,978.413 
  852.928,977.624 853.493,958.225 854.058,888.879 854.623,884.195 855.188,902.913 855.753,898.464 856.318,986.923 856.883,975.027 857.449,959.918 858.014,916.88 
  858.579,902.892 859.144,940.605 859.709,910.486 860.204,901.634 860.7,983.671 861.196,1038.4 861.691,969.331 862.187,900.698 862.682,958.318 863.178,927.774 
  863.673,936.841 864.169,939.676 864.664,955.415 865.16,953.176 865.655,926.299 866.151,906.51 866.646,920.926 867.142,918.66 867.638,898.594 868.133,1031.51 
  868.629,953.032 869.124,949.047 869.62,970.606 870.115,934.527 870.611,1027.36 871.106,912.216 871.602,961.458 872.097,942.976 872.593,931.702 873.088,985.21 
  873.584,944.277 874.08,986.022 874.575,968.345 875.071,1066.13 875.566,1014.25 876.062,946.613 876.557,916.177 877.053,921.381 877.548,942.975 878.044,941.135 
  878.539,941.361 879.035,953.703 879.53,937.598 880.026,962.692 880.522,977.073 881.017,970.467 881.513,949.954 882.008,937.148 882.504,989.063 882.999,921.971 
  883.495,950.279 883.99,1031.06 884.486,938.521 884.981,941.139 885.477,973.343 885.972,1070.39 886.468,949.265 886.964,990.407 887.459,954.843 887.955,973.762 
  888.45,953.178 888.946,989.567 889.441,976.946 889.937,940.31 890.432,967.331 890.928,963.618 891.423,940.85 891.919,958.017 892.414,969.126 892.91,972.032 
  893.406,980.037 893.901,954.542 894.397,955.815 894.892,980.434 895.388,948.645 895.883,950.87 896.379,1002.08 896.874,978.345 897.37,957.02 897.865,937.792 
  898.361,940.326 898.856,984.43 899.352,965.954 899.848,1126.65 900.343,957.442 900.839,991.951 901.334,982.642 901.83,1005.31 902.325,992.172 902.821,950.78 
  903.316,977.922 903.812,1017.55 904.307,978.563 904.803,974.793 905.298,954.154 905.794,1162.69 906.29,963.843 906.785,955.418 907.281,1032.35 907.776,998.864 
  908.272,1074.53 908.767,958.437 909.263,986.944 909.758,976.635 910.254,959.977 910.749,1070.84 911.245,979.951 911.74,969.39 912.236,1122.78 912.732,958.801 
  913.227,1000.51 913.723,978.969 914.218,1020.49 914.714,1018.93 915.209,1018.92 915.705,1008.06 916.2,1002.3 916.696,981.878 917.191,999.931 917.687,1001.05 
  918.182,964.176 918.678,1077.56 919.174,999.033 919.669,976.314 920.165,1078.13 920.66,972.297 921.156,979.585 921.651,1034.55 922.147,967.512 922.642,989.633 
  923.138,1011.39 923.678,1037.64 924.218,990.054 924.759,1020.19 925.299,1003.38 925.839,994.715 926.379,1018.34 926.92,1048.52 927.46,998.049 928,1117.67 
  928.541,1040.66 929.081,1020.41 929.621,1049.87 930.161,1004.73 930.702,1003.71 931.242,1018.24 931.782,1043.24 932.322,1076.97 932.863,1016.71 933.403,1023.3 
  933.943,1061.93 934.483,1039.82 935.024,989.292 935.564,1057.11 936.104,1049.81 936.645,1028.78 937.185,995.157 937.725,1051.56 938.265,1024.17 938.806,1008.52 
  939.346,1007.93 939.886,1018.45 940.426,1012.99 940.967,1017.39 941.507,1021.04 942.047,1098.81 942.588,1090.96 943.128,1023.2 943.668,1011.44 944.208,1038.64 
  944.749,1016.79 945.289,1108.69 945.829,1002.93 946.369,1032.92 946.91,1054.83 947.45,1021.4 947.99,1059.82 948.531,1028.8 949.071,1107.24 949.611,1011.2 
  950.151,1031.48 950.692,1011.95 951.232,1087.08 951.772,1027.67 952.312,1113.97 952.853,1032.8 953.393,1082.51 953.933,1081.07 954.473,1043.34 955.014,1020.12 
  955.554,1039.41 956.094,1006.97 956.635,1053.84 957.175,1049.31 957.715,1030.44 958.255,1150.14 958.796,1047.06 959.336,1081.61 959.876,1036.49 960.416,1078.29 
  960.957,1021.89 961.497,1049.61 962.037,1058.15 962.578,1050.23 963.118,1101.28 963.658,1100.59 964.198,1018.01 964.739,1141.27 965.279,1095.29 965.819,1114.12 
  966.359,1088.84 966.9,1064.17 967.44,1102.78 967.98,1062.02 968.521,1059.29 969.061,1043.74 969.601,1087.73 970.141,1061.66 970.682,1087.46 971.222,1065.87 
  971.762,1078.9 972.302,1038.07 972.843,1078.65 973.383,1070.87 973.923,1106.5 974.463,1103.16 975.004,1060.13 975.544,1050.43 976.084,1129.99 976.625,1065.78 
  977.165,1084.75 977.705,1082.38 978.245,1065.61 978.786,1142.21 979.326,1043.65 979.866,1154.08 980.406,1095.91 980.947,1059.21 981.487,1092.46 982.027,1087.25 
  982.568,1072.93 983.108,1058.86 983.648,1053.42 984.188,1090.63 984.729,1073.78 985.269,1091.47 985.809,1070.66 986.349,1094.45 986.89,1048.29 987.43,1137.83 
  987.97,1087.36 988.51,1091.54 989.051,1051.59 989.591,1053.12 990.131,1104.78 990.672,1096.62 991.212,1125.02 991.752,1077.47 992.292,1053.93 992.836,1089.74 
  993.379,1150.56 993.923,1086.55 994.466,1080.55 995.01,1103.35 995.553,1170.5 996.097,1174.24 996.64,1127.92 997.184,1070.45 997.727,1073.26 998.271,1174.19 
  998.814,1153.57 999.358,1101.61 999.901,1079.68 1000.44,1153.07 1000.99,1189.47 1001.53,1105.76 1002.08,1171.62 1002.62,1086.39 1003.16,1071.05 1003.71,1092.46 
  1004.25,1139.22 1004.79,1112.28 1005.34,1088.16 1005.88,1121.87 1006.42,1092.51 1006.97,1095.82 1007.51,1148.61 1008.05,1137.31 1008.6,1164.91 1009.14,1164.71 
  1009.68,1121.25 1010.23,1107.83 1010.77,1117.34 1011.31,1108.32 1011.86,1097.34 1012.4,1110 1012.94,1191.02 1013.49,1107.97 1014.03,1112.89 1014.58,1122.97 
  1015.12,1145.19 1015.66,1098.13 1016.21,1107.44 1016.75,1137.29 1017.29,1101.5 1017.84,1113.71 1018.38,1121.59 1018.92,1135.43 1019.47,1154.3 1020.01,1108.18 
  1020.55,1135.51 1021.1,1114.92 1021.64,1112.24 1022.18,1150.12 1022.73,1127.05 1023.27,1095.37 1023.81,1184.72 1024.36,1185.65 1024.9,1114.22 1025.44,1128.64 
  1025.99,1183.54 1026.53,1131.49 1027.08,1130.24 1027.62,1149.83 1028.16,1134.06 1028.71,1158.81 1029.25,1151.91 1029.79,1134.26 1030.34,1170.4 1030.88,1286.94 
  1031.42,1176.55 1031.97,1110.6 1032.51,1146.31 1033.05,1145.27 1033.6,1173.11 1034.14,1124.55 1034.68,1131.86 1035.23,1222.77 1035.77,1135.71 1036.31,1206.44 
  1036.86,1140.92 1037.4,1133.65 1037.94,1192.65 1038.49,1164.29 1039.03,1131.41 1039.58,1136.66 1040.12,1149.52 1040.66,1111.39 1041.21,1155.19 1041.75,1144.96 
  1042.29,1162.81 1042.84,1199.62 1043.38,1146.36 1043.92,1156.2 1044.47,1153.45 1045.01,1162.02 1045.55,1213.09 1046.1,1124.27 1046.64,1309.97 1047.18,1201.38 
  1047.73,1170.41 1048.27,1140.18 1048.81,1206.01 1049.36,1219.84 1049.9,1145.71 1050.44,1166.52 1050.99,1282.48 1051.53,1139.82 1052.08,1154.72 1052.62,1178.29 
  1053.16,1181.56 1053.71,1154.37 1054.25,1194.09 1054.79,1208.7 1055.34,1199.21 1055.88,1212.18 1056.42,1151.54 1056.97,1138.69 1057.51,1159.1 1058.05,1149.75 
  1058.6,1163.75 1059.14,1165.17 1059.68,1171.96 1060.23,1237.58 1060.77,1176.41 1061.31,1163.55 1061.86,1173.83 1062.46,1341.98 1063.06,1176.28 1063.66,1163.81 
  1064.26,1207.1 1064.86,1164.12 1065.46,1150.41 1066.06,1164.57 1066.67,1210.25 1067.27,1167.26 1067.87,1160.73 1068.47,1166.51 1069.07,1166.01 1069.67,1185.56 
  1070.27,1168.82 1070.87,1194 1071.47,1232.57 1072.07,1154.71 1072.67,1200.68 1073.27,1194.55 1073.88,1159.82 1074.48,1208.02 1075.08,1179.86 1075.68,1180.24 
  1076.28,1209.15 1076.88,1216.05 1077.48,1235.32 1078.08,1172.64 1078.68,1184.73 1079.28,1224.28 1079.88,1192.44 1080.49,1224.36 1081.09,1208.68 1081.69,1178.79 
  1082.29,1216.75 1082.89,1198.13 1083.49,1200.29 1084.09,1251 1084.69,1225.67 1085.29,1187.41 1085.89,1168.86 1086.49,1179.08 1087.1,1248.95 1087.7,1202.91 
  1088.3,1335.26 1088.9,1188.47 1089.5,1260.41 1090.1,1224.83 1090.7,1201.86 1091.3,1199.29 1091.9,1263.6 1092.5,1259.11 1093.1,1272.18 1093.7,1221.86 
  1094.31,1237.97 1094.91,1235.38 1095.51,1195.62 1096.11,1212.03 1096.71,1362.01 1097.31,1274.79 1097.91,1248.01 1098.51,1341.37 1099.11,1229.88 1099.71,1225.12 
  1100.31,1320.11 1100.92,1209.06 1101.52,1218.63 1102.12,1254.78 1102.72,1204.41 1103.32,1228.33 1103.92,1237.63 1104.52,1205.05 1105.12,1309.81 1105.72,1221.25 
  1106.32,1346.01 1106.92,1243.57 1107.53,1288.49 1108.13,1268.8 1108.73,1244.69 1109.33,1217.93 1109.93,1217.67 1110.53,1215.05 1111.13,1205.14 1111.73,1243.79 
  1112.33,1255.07 1112.93,1200.83 1113.53,1252.32 1114.14,1315.32 1114.74,1244.35 1115.34,1229.58 1115.94,1243.84 1116.54,1244.22 1117.14,1247.15 1117.74,1330.67 
  1118.34,1231.45 1118.94,1225.89 1119.54,1301.9 1120.14,1246.46 1120.74,1231.36 1121.35,1231.73 1121.95,1292.3 1122.55,1267.46 1123.15,1445.72 1123.75,1244.1 
  1124.35,1282 1124.95,1294.15 1125.55,1242.15 1126.15,1261.85 1126.75,1241 1127.35,1226.09 1127.96,1232.18 1128.56,1235.45 1129.16,1257.38 1129.76,1241.07 
  1130.36,1289.2 1130.96,1263.14 1131.56,1316.57 1132.16,1303.66 1132.76,1233.82 1133.36,1361.77 1133.96,1281.92 1134.57,1272.77 1135.17,1318.76 1135.77,1244.81 
  1136.37,1306.24 1136.97,1258.16 1137.57,1290.17 1138.17,1307.35 1138.77,1307.71 1139.34,1262.29 1139.92,1262.64 1140.49,1344.29 1141.06,1445.72 1141.63,1242.1 
  1142.2,1277.5 1142.77,1267.3 1143.35,1264.77 1143.92,1262.47 1144.49,1268.36 1145.06,1324.78 1145.63,1325.12 1146.2,1347.67 1146.78,1325.82 1147.35,1290.18 
  1147.92,1296.55 1148.49,1260.56 1149.06,1286.15 1149.63,1259.13 1150.21,1314.71 1150.78,1287.21 1151.35,1262.33 1151.92,1253.14 1152.49,1283.86 1153.06,1288.63 
  1153.64,1300.07 1154.21,1289.33 1154.78,1274.74 1155.35,1278.25 1155.92,1331.35 1156.5,1309.15 1157.07,1276.16 1157.64,1266.23 1158.21,1310.2 1158.78,1287.75 
  1159.35,1277.57 1159.93,1292.86 1160.5,1278.28 1161.07,1278.63 1161.64,1285.62 1162.21,1445.72 1162.78,1313 1163.36,1357.7 1163.93,1358.03 1164.5,1300.75 
  1165.07,1323.76 1165.64,1307.44 1166.21,1278.94 1166.79,1337.87 1167.36,1360.01 1167.93,1325.5 1168.5,1298.14 1169.07,1298.49 1169.64,1317.18 1170.22,1326.88 
  1170.79,1295.15 1171.36,1299.9 1171.93,1318.58 1172.5,1341.28 1173.08,1341.63 1173.65,1319.62 1174.22,1342.31 1174.79,1284.24 1175.36,1290.61 1175.93,1284.95 
  1176.51,1298.67 1177.08,1445.72 1177.65,1445.72 1178.22,1309.17 1178.79,1345.02 1179.36,1445.72 1179.94,1323.45 1180.51,1323.79 1181.08,1301.49 1181.65,1311.27 
  1182.22,1324.83 1182.79,1325.18 1183.37,1445.72 1183.94,1312.67 1184.51,1348.4 1185.08,1348.74 1185.65,1313.72 1186.23,1349.41 1186.8,1445.72 1187.37,1445.72 
  1187.94,1305.7 1188.51,1445.72 1189.08,1351.09 1189.66,1351.43 1190.23,1316.51 1190.8,1316.86 1191.37,1330.37 1191.94,1330.71 1192.51,1331.06 1193.09,1353.43 
  1193.66,1318.6 1194.23,1309.55 1194.8,1332.44 1195.37,1354.77 1195.94,1303.29 1196.52,1310.95 1197.09,1445.72 1197.66,1321.04 1198.23,1445.72 1198.8,1334.84 
  1199.37,1322.08 1199.95,1357.42 1200.52,1335.87 1201.09,1358.08 1201.66,1358.41 1202.23,1336.9 1202.81,1314.8 1203.38,1301.86 1203.95,1337.93 1204.52,1338.27 
  1205.09,1325.55 1205.66,1360.72 1206.24,1339.29 1206.81,1309.95 1207.38,1317.59 1207.95,1362.03 1208.52,1445.72 1209.09,1318.64 1209.67,1445.72 1210.24,1445.72 
  1210.81,1319.68 1211.38,1342.36 1211.95,1342.7 1212.55,1320.74 1213.14,1445.72 1213.74,1445.72 1214.33,1445.72 1214.93,1322.18 1215.52,1322.54 1216.11,1322.91 
  1216.71,1445.72 1217.3,1445.72 1217.9,1346.23 1218.49,1445.72 1219.09,1346.93 1219.68,1347.28 1220.28,1445.72 1220.87,1347.98 1221.46,1348.33 1222.06,1348.68 
  1222.65,1326.87 1223.25,1445.72 1223.84,1445.72 1224.44,1305.35 1225.03,1328.31 1225.63,1445.72 1226.22,1329.03 1226.81,1445.72 1227.41,1351.83 1228,1445.72 
  1228.6,1445.72 1229.19,1352.87 1229.79,1318.03 1230.38,1353.56 1230.98,1353.91 1231.57,1445.72 1232.16,1445.72 1232.76,1354.95 1233.35,1445.72 1233.95,1355.64 
  1234.54,1320.93 1235.14,1356.33 1235.73,1356.68 1236.33,1357.02 1236.92,1335.47 1237.51,1335.83 1238.11,1358.05 1238.7,1358.4 1239.3,1358.74 1239.89,1337.25 
  1240.49,1359.43 1241.08,1359.77 1241.68,1338.32 1242.27,1360.45 1242.87,1445.72 1243.46,1361.14 1244.05,1361.48 1244.65,1445.72 1245.24,1340.45 1245.84,1362.5 
  1246.43,1445.72 1247.03,1319.16 1247.62,1341.87 1248.22,1342.22 1248.81,1445.72 1249.4,1342.93 1250,1343.28 1250.59,1343.64 1251.19,1321.69 1251.78,1344.34 
  1252.38,1445.72 1252.97,1345.05 1253.57,1345.4 1254.16,1445.72 1254.75,1346.1 1255.35,1346.45 1255.94,1445.72 1256.54,1347.16 1257.13,1445.72 1257.73,1312.46 
  1258.32,1348.21 1258.92,1348.56 1259.51,1445.72 1260.1,1349.26 1260.7,1445.72 1261.29,1349.96 1261.89,1445.72 1262.48,1445.72 1263.08,1445.72 1263.67,1329.26 
  1264.27,1329.62 1264.86,1329.98 1265.45,1352.4 1266.05,1445.72 1266.64,1353.09 1267.24,1445.72 1267.83,1353.79 1268.43,1445.72 1269.02,1445.72 1269.62,1354.83 
  1270.21,1445.72 1270.81,1445.72 1271.4,1355.86 1271.99,1321.16 1272.59,1356.55 1273.18,1356.9 1273.78,1445.72 1274.37,1357.59 1274.97,1445.72 1275.56,1445.72 
  1276.16,1358.62 1276.75,1358.96 1277.34,1359.3 1277.94,1359.65 1278.53,1445.72 1279.13,1445.72 1279.72,1338.91 1280.32,1361.01 1280.91,1361.36 1281.51,1445.72 
  1282.1,1362.04 1282.69,1445.72 1283.29,1341.03 1283.88,1445.72 1284.48,1341.74 1285.07,1445.72 1285.67,1445.72 1286.26,1320.48 1286.86,1445.72 1287.45,1445.72 
  1288.04,1343.86 1288.55,1344.16 1289.05,1322.17 1289.55,1445.72 1290.05,1445.72 1290.55,1345.35 1291.05,1345.64 1291.55,1345.94 1292.05,1346.24 1292.55,1445.72 
  1293.05,1346.83 1293.55,1347.12 1294.05,1347.42 1294.55,1325.51 1295.05,1445.72 1295.55,1348.3 1296.05,1445.72 1296.55,1348.89 1297.05,1327.03 1297.55,1349.48 
  1298.05,1445.72 1298.55,1350.07 1299.05,1445.72 1299.55,1328.54 1300.05,1445.72 1300.55,1351.25 1301.06,1445.72 1301.56,1329.75 1302.06,1352.13 1302.56,1445.72 
  1303.06,1445.72 1303.56,1353 1304.06,1353.3 1304.56,1353.59 1305.06,1353.88 1305.56,1445.72 1306.06,1354.46 1306.56,1354.75 1307.06,1445.72 1307.56,1355.34 
  1308.06,1445.72 1308.56,1445.72 1309.06,1445.72 1309.56,1445.72 1310.06,1445.72 1310.56,1445.72 1311.06,1357.37 1311.56,1357.66 1312.06,1357.95 1312.56,1445.72 
  1313.07,1445.72 1313.57,1336.98 1314.07,1359.1 1314.57,1359.39 1315.07,1359.68 1315.57,1445.72 1316.07,1325.41 1316.57,1360.54 1317.07,1360.83 1317.57,1445.72 
  1318.07,1445.72 1318.57,1361.69 1319.07,1361.98 1319.57,1445.72 1320.07,1362.55 1320.57,1445.72 1321.07,1445.72 1321.57,1319.41 1322.07,1342.06 1322.57,1320.02 
  1323.07,1342.65 1323.57,1342.95 1324.07,1445.72 1324.57,1445.72 1325.08,1343.84 1325.58,1344.14 1326.08,1322.15 1326.58,1445.72 1327.08,1345.03 1327.58,1445.72 
  1328.08,1345.62 1328.58,1445.72 1329.08,1346.21 1329.58,1311.06 1330.08,1445.72 1330.58,1324.88 1331.08,1445.72 1331.58,1445.72 1332.08,1347.99 1332.58,1445.72 
  1333.08,1445.72 1333.58,1348.87 1334.08,1445.72 1334.58,1349.46 1335.08,1349.75 1335.58,1327.91 1336.08,1445.72 1336.58,1350.64 1337.09,1328.82 1337.59,1329.12 
  1338.09,1351.52 1338.59,1316.56 1339.09,1352.1 1339.59,1352.4 1340.09,1352.69 1340.59,1352.98 1341.09,1331.24 1341.59,1353.57 1342.09,1353.86 1342.59,1354.15 
  1343.09,1445.72 1343.59,1354.73 1344.09,1355.02 1344.59,1333.35 1345.09,1355.61 1345.59,1445.72 1346.09,1445.72 1346.59,1334.55 1347.09,1356.77 1347.59,1357.06 
  1348.09,1445.72 1348.59,1357.64 1349.1,1445.72 1349.6,1336.35 1350.1,1445.72 1350.6,1358.79 1351.1,1445.72 1351.6,1359.37 1352.1,1445.72 1352.71,1360.01 
  1353.32,1360.36 1353.93,1338.95 1354.54,1361.06 1355.15,1445.72 1355.76,1327 1356.37,1445.72 1356.99,1445.72 1358.21,1445.72 1359.43,1445.72 1360.04,1445.72 
  1360.65,1445.72 1361.26,1343.32 1361.87,1343.68 1362.48,1445.72 1363.09,1322.12 1363.71,1322.49 1364.32,1345.13 1364.93,1445.72 1365.54,1345.85 1366.15,1323.97 
  1366.76,1324.35 1367.37,1445.72 1367.98,1311.88 1368.59,1347.66 1369.2,1312.62 1369.82,1348.38 1370.43,1326.57 1371.04,1349.1 1371.65,1327.31 1372.26,1445.72 
  1372.87,1328.05 1373.48,1328.41 1374.09,1445.72 1374.7,1351.25 1375.31,1351.61 1375.92,1445.72 1376.54,1330.26 1377.15,1352.68 1377.76,1353.04 1378.37,1353.4 
  1378.98,1353.75 1379.59,1354.11 1380.2,1354.47 1380.81,1332.84 1381.42,1445.72 1382.03,1445.72 1382.64,1333.94 1383.26,1356.24 1383.87,1356.6 1384.48,1445.72 
  1385.09,1335.41 1385.7,1445.72 1386.31,1358.01 1386.92,1445.72 1387.53,1336.87 1388.14,1359.07 1388.75,1445.72 1389.37,1359.77 1389.98,1338.34 1390.59,1360.48 
  1391.2,1445.72 1391.81,1361.18 1392.42,1445.72 1393.03,1361.88 1393.64,1362.23 1394.25,1362.58 1394.86,1305.64 1395.47,1319.27 1396.09,1445.72 1396.7,1320.01 
  1397.31,1320.38 1397.92,1343.07 1398.53,1343.43 1399.75,1344.16 1400.97,1344.88 1401.58,1345.25 1402.2,1345.61 1402.81,1345.97 1403.42,1324.1 1404.03,1445.72 
  1404.64,1445.72 1405.25,1445.72 1405.86,1347.78 1406.47,1445.72 1407.08,1348.5 1407.69,1348.86 1408.3,1349.22 1408.92,1445.72 1409.53,1445.72 1410.14,1350.29 
  1410.75,1328.54 1411.36,1351.01 1411.97,1329.27 1412.58,1329.64 1413.19,1330.01 1413.8,1352.44 1414.41,1330.75 1415.03,1445.72 1415.64,1353.51 1416.25,1445.72 
  1416.86,1445.72 1417.47,1354.58 1418.08,1445.72 1418.69,1355.29 1419.3,1355.65 1419.91,1320.94 1420.52,1445.72 1421.13,1321.69 1421.75,1445.72 1422.36,1357.42 
  1422.97,1357.77 1423.58,1336.26 1424.19,1323.54 1424.8,1323.91 1425.41,1359.19 1426.02,1445.72 1426.63,1359.89 1427.24,1360.24 1427.86,1360.59 1428.47,1445.72 
  1429.08,1445.72 1429.69,1361.64 1430.3,1327.24 1430.86,1362.31 1431.42,1340.95 1431.98,1445.72 1432.54,1341.61 1433.1,1341.95 1433.66,1342.28 1434.22,1342.61 
  1434.78,1342.95 1435.34,1445.72 1435.9,1321.31 1436.46,1321.65 1437.01,1344.28 1437.57,1322.33 1438.13,1344.94 1438.69,1323.01 1439.25,1345.6 1439.81,1345.93 
  1440.37,1346.26 1440.93,1445.72 1441.49,1324.71 1442.05,1347.26 1442.61,1445.72 1443.17,1325.72 1443.73,1445.72 1444.29,1326.4 1444.85,1348.91 1445.41,1349.24 
  1445.97,1349.57 1446.53,1349.9 1447.09,1328.09 1447.65,1350.55 1448.21,1350.88 1448.77,1445.72 1449.33,1445.72 1449.89,1351.87 1450.45,1445.72 1451.01,1330.46 
  1451.57,1352.85 1452.13,1353.17 1452.69,1318.33 1453.25,1353.83 1453.81,1445.72 1454.36,1445.72 1454.92,1354.81 1455.48,1333.16 1456.04,1320.37 1456.6,1355.78 
  1457.16,1356.11 1457.72,1445.72 1458.28,1334.84 1458.84,1445.72 1459.4,1357.41 1459.96,1445.72 1460.52,1445.72 1461.08,1358.38 1461.64,1358.7 1462.2,1359.02 
  1462.76,1324.45 1463.32,1445.72 1463.88,1325.13 1464.44,1316.11 1465,1338.87 1465.56,1339.2 1466.12,1361.28 1466.68,1339.87 1467.24,1340.2 1467.8,1362.24 
  1468.36,1327.84 1468.92,1318.84 1469.48,1319.18 1470.04,1341.87 1470.6,1445.72 1471.15,1342.54 1471.71,1342.87 1472.27,1320.89 1472.83,1445.72 1473.39,1343.87 
  1473.95,1321.91 1474.51,1344.53 1475.07,1344.86 1475.63,1445.72 1476.19,1345.53 1476.75,1445.72 1477.31,1346.19 1477.87,1324.29 1478.43,1311.41 1478.99,1445.72 
  1479.55,1325.31 1480.11,1347.84 1480.67,1325.98 1481.23,1348.5 1481.79,1348.83 1482.35,1327 1482.91,1445.72 1483.47,1349.82 1484.03,1328.02 1484.59,1350.48 
  1485.15,1328.69 1485.71,1445.72 1486.27,1445.72 1486.83,1329.71 1487.39,1445.72 1487.94,1445.72 1488.5,1317.57 1489.06,1353.1 1489.62,1353.43 1490.18,1318.59 
  1490.74,1445.72 1491.3,1445.72 1491.86,1445.72 1492.42,1355.06 1492.98,1355.38 1493.54,1445.72 1494.1,1320.97 1494.66,1445.72 1495.22,1356.68 1495.78,1357.01 
  1496.34,1357.33 1496.9,1445.72 1497.46,1313.64 1498.02,1313.98 1498.58,1358.63 1499.14,1358.95 1499.7,1337.45 1500.26,1359.59 1500.82,1445.72 1501.38,1360.24 
  1501.94,1445.72 1502.45,1309.4 1502.97,1445.72 1503.49,1339.71 1504,1445.72 1504.52,1340.33 1505.04,1362.34 1505.55,1340.95 1506.07,1445.72 1506.59,1445.72 
  1507.11,1445.72 1507.62,1342.18 1508.14,1320.16 1508.66,1342.79 1509.17,1343.1 1509.69,1343.41 1510.21,1308.17 1510.72,1445.72 1511.24,1322.04 1511.76,1344.63 
  1512.27,1322.67 1512.79,1345.25 1513.31,1310.07 1513.83,1310.39 1514.34,1445.72 1514.86,1346.47 1515.38,1445.72 1515.89,1445.72 1516.41,1325.18 1516.93,1325.49 
  1517.44,1325.81 1517.96,1326.12 1518.48,1348.61 1518.99,1445.72 1519.51,1349.22 1520.03,1349.52 1520.54,1445.72 1521.06,1305.39 1521.58,1350.43 1522.1,1328.62 
  1522.61,1315.76 1523.13,1329.25 1523.65,1329.56 1524.16,1445.72 1524.68,1330.18 1525.2,1352.55 1525.71,1445.72 1526.23,1445.72 1526.75,1331.43 1527.26,1331.74 
  1527.78,1354.06 1528.3,1354.36 1528.82,1445.72 1529.33,1332.98 1529.85,1355.27 1530.37,1355.57 1530.88,1333.92 1531.4,1334.23 1531.92,1356.47 1532.43,1356.77 
  1532.95,1445.72 1533.47,1357.36 1533.98,1335.78 1534.5,1357.96 1535.02,1358.26 1535.53,1445.72 1536.05,1337.02 1536.57,1324.25 1537.09,1337.64 1537.6,1445.72 
  1538.12,1360.05 1538.64,1445.72 1539.15,1338.88 1539.67,1339.18 1540.19,1361.24 1540.7,1361.53 1541.22,1340.11 1541.74,1340.42 1542.25,1362.42 1542.77,1445.72 
  1543.29,1445.72 1543.81,1445.72 1544.32,1341.96 1544.84,1342.27 1545.36,1342.57 1545.87,1342.88 1546.39,1445.72 1546.91,1307.95 1547.42,1445.72 1547.94,1308.58 
  1548.46,1344.42 1548.97,1344.72 1549.49,1309.53 1550.01,1445.72 1550.52,1445.72 1551.04,1345.95 1551.56,1346.25 1552.08,1445.72 1552.59,1346.86 1553.11,1347.17 
  1553.63,1347.47 1554.14,1445.72 1554.66,1348.08 1555.18,1348.39 1555.69,1326.52 1556.21,1445.72 1556.73,1445.72 1557.24,1349.61 1557.76,1327.77 1558.28,1350.21 
  1558.79,1298.47 1559.31,1350.82 1559.83,1329.02 1560.35,1329.33 1560.86,1351.73 1561.38,1329.96 1561.9,1445.72 1562.41,1352.64 1562.93,1330.89 1563.45,1318.06 
  1563.96,1353.54 1564.48,1331.83 1565,1319 1565.51,1445.72 1566.03,1319.63 1566.55,1333.07 1567.07,1320.26 1567.58,1445.72 1568.1,1355.95 1568.62,1334.32 
  1569.15,1321.53 1569.67,1334.95 1570.19,1357.17 1570.72,1445.72 1571.24,1335.89 1571.76,1358.08 1572.29,1445.72 1572.81,1445.72 1573.34,1445.72 1573.86,1445.72 
  1574.38,1337.78 1574.91,1325.02 1575.43,1325.34 1575.95,1360.49 1576.48,1445.72 1577,1316.94 1577.52,1339.65 1578.05,1361.69 1578.57,1327.24 1579.09,1310.93 
  1579.62,1362.59 1580.14,1445.72 1580.67,1319.17 1581.19,1319.49 1581.71,1319.81 1582.24,1306.88 1582.76,1445.72 1583.28,1320.77 1583.81,1321.09 1584.33,1343.71 
  1584.85,1321.72 1585.38,1299.36 1585.9,1344.64 1586.43,1445.72 1586.95,1323 1587.47,1345.57 1588,1323.63 1588.52,1346.19 1589.04,1346.5 1589.57,1346.81 
  1590.09,1311.69 1590.61,1347.43 1591.14,1445.72 1591.66,1348.04 1592.18,1445.72 1592.71,1348.66 1593.23,1445.72 1593.76,1313.93 1594.28,1327.44 1594.8,1327.76 
  1595.33,1445.72 1595.85,1315.21 1596.37,1445.72 1596.9,1329.02 1597.42,1351.43 1597.94,1329.65 1598.47,1352.04 1598.99,1352.35 1599.52,1445.72 1600.04,1445.72 
  1600.56,1445.72 1601.09,1301.68 1601.61,1331.87 1602.13,1319.04 1602.66,1354.49 1603.18,1445.72 1603.7,1333.13 1604.23,1310.93 1604.75,1355.71 1605.27,1356.01 
  1605.8,1334.39 1606.32,1334.7 1606.85,1321.91 1607.37,1357.23 1607.89,1335.64 1608.42,1322.86 1608.94,1323.18 1609.46,1358.44 1609.99,1358.74 1610.51,1359.04 
  1611.03,1359.35 1611.56,1445.72 1612.08,1325.09 1612.61,1445.72 1613.13,1338.78 1613.65,1445.72 1614.18,1361.15 1614.7,1361.45 1615.22,1361.75 1615.75,1340.34 
  1616.27,1445.72 1616.79,1327.94 1617.32,1445.72 1617.84,1445.72 1618.36,1445.72 1618.89,1319.88 1619.41,1342.53 1619.94,1445.72 1620.46,1320.83 1620.98,1307.91 
  1621.51,1343.77 1622.03,1321.79 1622.55,1445.72 1623.08,1322.42 1623.6,1345.01 1624.12,1323.06 1624.65,1345.63 1625.17,1310.48 1625.7,1324.01 1626.22,1324.33 
  1626.74,1346.87 1627.27,1302.32 1627.79,1325.28 1628.31,1325.6 1628.84,1348.11 1629.36,1313.04 1629.88,1348.72 1630.41,1349.03 1630.93,1349.34 1631.45,1445.72 
  1631.98,1445.72 1632.5,1350.26 1633.03,1350.57 1633.55,1328.77 1634.07,1445.72 1634.6,1316.24 1635.12,1316.56 1635.71,1316.91 1636.29,1317.27 1636.88,1317.63 
  1637.47,1353.17 1638.05,1331.49 1638.64,1353.86 1639.23,1445.72 1639.81,1445.72 1640.4,1354.88 1640.99,1333.26 1641.57,1355.57 1642.16,1320.84 1642.75,1445.72 
  1643.34,1445.72 1643.92,1356.93 1644.51,1445.72 1645.1,1357.61 1645.68,1357.95 1646.27,1445.72 1646.86,1358.63 1647.44,1358.97 1648.03,1359.3 1648.62,1315.4 
  1649.2,1359.98 1649.79,1338.54 1650.38,1338.89 1650.96,1360.99 1651.55,1361.33 1652.14,1361.66 1652.72,1362 1653.31,1340.64 1653.9,1318.62 1654.48,1445.72 
  1655.07,1445.72 1655.66,1342.04 1656.24,1289.99 1656.83,1320.41 1657.42,1307.52 1658.01,1343.43 1658.59,1321.48 1659.18,1344.13 1659.77,1344.48 1660.35,1344.82 
  1660.94,1445.72 1661.53,1323.26 1662.11,1323.62 1662.7,1346.21 1663.29,1346.56 1663.87,1346.91 1664.46,1445.72 1665.05,1312.19 1665.63,1325.75 1666.22,1312.91 
  1666.81,1313.27 1667.39,1313.63 1667.98,1313.99 1668.57,1349.68 1669.15,1327.89 1669.74,1350.37 1670.33,1350.71 1670.92,1328.95 1671.5,1351.4 1672.09,1445.72 
  1672.68,1352.09 1673.26,1445.72 1673.85,1330.72 1674.44,1445.72 1675.02,1445.72 1675.61,1353.8 1676.2,1354.14 1676.78,1445.72 1677.37,1332.84 1677.96,1320.07 
  1678.54,1445.72 1679.13,1355.85 1679.72,1293.37 1680.3,1445.72 1680.89,1334.96 1681.48,1312.83 1682.06,1445.72 1682.65,1357.89 1683.24,1313.91 1683.82,1358.57 
  1684.41,1337.07 1685,1337.42 1685.59,1324.7 1686.17,1315.7 1686.76,1445.72 1687.35,1338.83 1687.93,1360.93 1688.52,1361.27 1689.11,1326.84 1689.69,1445.72 
  1690.28,1362.28 1690.87,1340.93 1691.45,1341.28 1692.04,1296.56 1692.63,1341.98 1693.21,1342.33 1693.8,1307.1 1694.39,1343.02 1694.97,1343.37 1695.56,1343.72 
  1696.15,1445.72 1696.73,1344.42 1697.32,1344.77 1697.91,1345.11 1698.5,1345.46 1699.08,1323.56 1699.67,1445.72 1700.26,1445.72 1700.84,1445.72 1701.43,1324.98 
  1702.02,1325.34 1702.6,1347.89 1703.19,1348.24 1703.78,1348.58 1704.36,1304.14 1704.95,1349.27 1705.54,1349.62 1706.12,1327.83 1706.71,1315 1707.3,1315.36 
  1707.88,1445.72 1708.47,1316.08 1709.06,1445.72 1709.64,1352.03 1710.23,1352.37 1710.76,1330.63 1711.29,1330.95 1711.83,1318.12 1712.36,1331.59 1712.89,1331.91 
  1713.42,1332.23 1713.95,1332.55 1714.49,1354.85 1715.02,1333.19 1715.55,1355.47 1716.08,1355.78 1716.61,1321.04 1717.14,1356.4 1717.68,1334.79 1718.21,1299.32 
  1718.74,1322.33 1719.27,1445.72 1719.8,1357.94 1720.33,1358.25 1720.87,1323.62 1721.4,1314.58 1721.93,1359.17 1722.46,1445.72 1722.99,1359.78 1723.52,1325.23 
  1724.06,1308.9 1724.59,1325.88 1725.12,1339.25 1725.65,1339.57 1726.18,1361.61 1726.72,1361.92 1727.25,1340.52 1727.78,1327.81 1728.31,1445.72 1728.84,1341.47 
  1729.37,1319.44 1729.91,1342.1 1730.44,1320.09 1730.97,1445.72 1731.5,1320.73 1732.03,1307.81 1732.56,1298.69 1733.1,1344 1733.63,1445.72 1734.16,1344.63 
  1734.69,1309.44 1735.22,1445.72 1735.76,1345.57 1736.29,1345.89 1736.82,1323.96 1737.35,1311.07 1737.88,1346.83 1738.41,1445.72 1738.95,1325.25 1739.48,1445.72 
  1740.01,1325.9 1740.54,1445.72 1741.07,1313.35 1741.6,1326.86 1742.14,1314 1742.67,1349.65 1743.2,1445.72 1743.73,1328.15 1744.26,1445.72 1744.79,1328.79 
  1745.33,1329.12 1745.86,1329.44 1746.39,1329.76 1746.92,1330.08 1747.45,1352.46 1747.99,1352.77 1748.52,1353.08 1749.05,1445.72 1749.58,1331.68 1750.11,1318.86 
  1750.64,1302.47 1751.18,1310.12 1751.71,1354.94 1752.24,1445.72 1752.77,1320.48 1753.3,1320.81 1753.83,1334.24 1754.37,1356.49 1754.9,1334.88 1755.43,1357.1 
  1755.96,1445.72 1756.49,1445.72 1757.02,1336.16 1757.56,1336.48 1758.09,1445.72 1758.62,1358.95 1759.15,1337.43 1759.68,1359.56 1760.22,1338.07 1760.75,1445.72 
  1761.28,1338.7 1761.81,1339.02 1762.34,1326.29 1762.87,1339.66 1763.41,1339.98 1764.47,1340.61 1765.53,1341.24 1766.06,1341.56 1766.6,1341.88 1767.13,1445.72 
  1767.66,1342.51 1768.19,1320.5 1768.72,1343.14 1769.25,1307.91 1769.79,1321.47 1770.32,1299.11 1770.85,1445.72 1771.38,1322.44 1771.91,1345.04 1772.45,1345.35 
  1772.98,1345.67 1773.51,1310.51 1774.04,1324.06 1774.57,1324.38 1775.1,1346.92 1775.64,1347.24 1776.17,1325.35 1776.7,1445.72 1777.23,1325.99 1777.76,1303.69 
  1778.29,1348.81 1778.9,1313.81 1779.51,1349.52 1780.12,1349.88 1780.73,1445.72 1781.34,1350.6 1781.95,1445.72 1782.56,1351.31 1783.16,1329.58 1783.77,1300.05 
  1784.38,1317.16 1784.99,1445.72 1785.6,1445.72 1786.21,1331.42 1786.82,1331.78 1787.43,1332.15 1788.04,1319.38 1788.64,1303.04 1789.25,1355.22 1789.86,1311.11 
  1790.47,1333.98 1791.08,1321.24 1791.69,1312.22 1792.3,1312.6 1792.91,1335.45 1793.51,1335.81 1794.12,1358.05 1794.73,1314.08 1795.34,1358.75 1795.95,1359.1 
  1796.56,1359.45 1797.17,1359.8 1797.78,1338.36 1798.39,1445.72 1798.99,1316.69 1799.6,1326.41 1800.21,1361.55 1800.82,1340.18 1801.43,1362.25 1802.04,1318.54 
  1802.65,1318.91 1803.26,1306.03 1803.86,1342 1804.47,1320.02 1805.08,1445.72 1805.69,1320.77 1806.3,1321.14 1806.91,1445.72 1807.52,1308.64 1808.13,1322.25 
  1808.73,1445.72 1809.34,1300.32 1809.95,1323.36 1810.56,1345.97 1811.17,1310.88 1811.78,1311.25 1812.39,1324.83 1813,1445.72 1813.61,1325.57 1814.21,1295.97 
  1814.82,1313.11 1815.43,1313.48 1816.04,1327.05 1816.65,1349.56 1817.26,1314.6 1817.87,1350.28 1818.48,1328.52 1819.08,1445.72 1819.69,1351.35 1820.3,1329.62 
  1820.91,1445.72 1821.52,1445.72 1822.13,1352.78 1822.74,1331.09 1823.35,1353.49 1823.96,1445.72 1824.56,1296.34 1825.17,1332.56 1825.78,1319.8 1826.39,1355.26 
  1827,1355.61 1827.61,1334.02 1828.22,1356.32 1828.83,1321.65 1829.43,1357.03 1830.04,1305.7 1830.65,1335.85 1831.26,1445.72 1831.87,1358.44 1832.48,1323.87 
  1833.09,1359.14 1833.7,1359.49 1834.3,1359.84 1834.91,1445.72 1835.52,1360.54 1836.13,1316.73 1836.74,1361.24 1837.35,1339.86 1837.96,1317.84 1838.57,1362.29 
  1839.18,1340.95 1839.78,1305.7 1840.39,1341.67 1841,1342.04 1841.61,1342.4 1842.22,1342.76 1842.83,1320.81 1843.44,1321.18 1844.05,1343.85 1844.65,1445.72 
  1845.26,1344.57 1845.87,1344.93 1846.48,1309.8 1847.09,1345.65 1847.7,1310.55 1848.31,1346.37 1848.92,1311.29 1849.53,1445.72 1850.13,1325.24 1850.74,1325.61 
  1851.35,1348.17 1851.96,1313.15 1852.57,1348.89 1853.18,1297.14 1853.79,1327.46 1854.4,1349.96 1855,1298.26 1855.61,1298.64 1856.22,1315.76 1856.79,1316.1 
  1857.35,1445.72 1857.91,1352.02 1858.48,1352.35 1859.04,1445.72 1859.6,1330.97 1860.17,1445.72 1860.73,1353.67 1861.3,1445.72 1861.86,1319.19 1862.42,1310.14 
  1862.99,1310.49 1863.55,1355.31 1864.11,1445.72 1864.68,1355.97 1865.24,1356.3 1865.81,1334.7 1866.37,1321.94 1866.93,1357.28 1867.5,1445.72 1868.06,1306.28 
  1868.62,1323.31 1869.19,1336.73 1869.75,1445.72 1870.31,1337.41 1870.88,1359.56 1871.44,1359.88 1872.01,1338.42 1872.57,1325.7 1873.13,1360.85 1873.7,1361.18 
  1874.26,1361.5 1874.82,1340.1 1875.39,1445.72 1875.95,1327.75 1876.52,1318.75 1877.08,1341.45 1877.64,1341.78 1878.21,1342.12 1878.77,1445.72 1879.33,1297.76 
  1879.9,1343.12 1880.46,1298.46 1881.03,1445.72 1881.59,1344.13 1882.15,1308.94 1882.72,1322.52 1883.28,1322.86 1883.84,1309.98 1884.41,1445.72 1884.97,1346.13 
  1885.53,1346.46 1886.1,1294.58 1886.66,1347.13 1887.23,1312.05 1887.79,1325.6 1888.35,1312.74 1888.92,1326.28 1889.48,1326.62 1890.04,1326.96 1890.61,1314.12 
  1891.17,1314.46 1891.74,1314.81 1892.3,1350.45 1892.86,1350.78 1893.43,1445.72 1893.99,1306.77 1894.55,1299.79 1895.12,1352.1 1895.68,1330.37 1896.25,1330.71 
  1896.81,1353.09 1897.37,1353.42 1897.94,1331.73 1898.5,1445.72 1899.06,1354.41 1899.63,1296.91 1900.19,1355.06 1900.75,1355.39 1901.32,1320.65 1901.88,1304.29 
  1902.45,1334.44 1903.01,1334.78 1903.57,1357.03 1904.14,1357.36 1904.7,1357.68 1905.26,1445.72 1905.83,1358.33 1906.39,1445.72 1906.96,1307.4 1907.52,1337.49 
  1908.08,1302.11 1908.65,1325.1 1909.21,1325.44 1909.77,1338.84 1910.34,1326.12 1910.9,1326.46 1911.47,1326.81 1912.03,1340.18 1912.59,1327.49 1913.16,1311.2 
  1913.72,1445.72 1914.28,1445.72 1914.85,1341.86 1915.41,1342.2 1915.97,1342.53 1916.54,1297.85 1917.1,1343.2 1917.67,1343.54 1918.23,1343.87 1918.79,1344.21 
  1919.36,1344.54 1919.92,1344.88 1920.48,1322.95 1921.05,1345.54 1921.61,1323.63 1922.18,1346.21 1922.74,1346.55 1923.3,1346.88 1923.87,1347.21 1924.43,1325.34 
  1924.99,1325.68 1925.56,1312.82 1926.12,1348.54 1926.69,1348.87 1927.25,1349.21 1927.81,1349.54 1928.38,1314.55 1928.93,1350.2 1929.49,1328.4 1930.04,1350.85 
  1930.6,1329.07 1931.15,1445.72 1931.71,1445.72 1932.27,1330.08 1932.82,1300.52 1933.38,1308.19 1933.93,1353.13 1934.49,1331.42 1935.05,1301.89 1935.6,1445.72 
  1936.16,1302.57 1936.71,1319.63 1937.27,1333.09 1937.82,1355.39 1938.38,1311.26 1938.94,1445.72 1939.49,1321.32 1940.05,1356.68 1940.6,1321.99 1941.16,1445.72 
  1941.71,1313.29 1942.27,1445.72 1942.83,1445.72 1943.38,1336.76 1943.94,1358.93 1944.49,1324.36 1945.05,1359.57 1945.6,1359.89 1946.16,1360.21 1946.72,1445.72 
  1947.27,1445.72 1947.83,1326.38 1948.38,1361.49 1948.94,1445.72 1949.49,1362.13 1950.05,1327.72 1950.61,1445.72 1951.16,1341.41 1951.72,1341.74 1952.27,1297.03 
  1952.83,1306.82 1953.38,1320.41 1953.94,1445.72 1954.5,1343.4 1955.05,1445.72 1955.61,1445.72 1956.16,1308.87 1956.72,1322.44 1957.27,1300.1 1957.83,1345.38 
  1958.39,1323.45 1958.94,1445.72 1959.5,1346.36 1960.05,1324.46 1960.61,1347.02 1961.17,1302.5 1961.72,1347.68 1962.28,1445.72 1962.83,1445.72 1963.39,1326.48 
  1963.94,1304.2 1964.5,1313.97 1965.06,1314.31 1965.61,1349.97 1966.17,1445.72 1966.72,1315.33 1967.28,1350.95 1967.83,1445.72 1968.39,1351.6 1968.95,1316.68 
  1969.5,1352.25 1970.06,1445.72 1970.61,1330.85 1971.17,1301.31 1971.72,1290.57 1972.28,1318.71 1972.84,1332.19 1973.39,1445.72 1973.95,1319.73 1974.5,1320.07 
  1975.06,1333.53 1975.61,1355.81 1976.17,1321.08 1976.73,1321.42 1977.28,1312.38 1977.84,1445.72 1978.39,1335.53 1978.95,1295.02 1979.5,1336.2 1980.06,1336.53 
  1980.62,1323.78 1981.17,1296.39 1981.73,1359.35 1982.28,1302.15 1982.84,1338.2 1983.39,1302.83 1983.95,1338.86 1984.51,1445.72 1985.06,1339.52 1985.62,1445.72 
  1986.17,1361.9 1986.73,1340.52 1987.29,1340.85 1987.84,1445.72 1988.4,1341.51 1988.95,1319.5 1989.51,1445.72 1990.06,1342.51 1990.62,1445.72 1991.18,1307.61 
  1991.73,1321.19 1992.29,1291.49 1992.84,1445.72 1993.4,1344.49 1993.95,1344.82 1994.51,1322.88 1995.07,1345.47 1995.62,1445.72 1996.18,1346.13 1996.73,1324.23 
  1997.29,1301.92 1997.84,1347.12 1998.4,1347.45 1998.96,1445.72 1999.51,1312.71 2000.05,1445.72 2000.59,1326.57 2001.13,1349.05 2001.67,1349.37 2002.21,1349.69 
  2002.75,1350.01 2003.29,1350.32 2003.83,1350.64 2004.37,1328.85 2004.91,1329.18 2005.45,1351.59 2005.99,1329.83 2006.53,1316.99 2007.07,1445.72 2007.61,1352.85 
  2008.14,1317.98 2008.68,1445.72 2009.22,1353.8 2009.76,1354.11 2010.3,1332.43 2010.84,1354.74 2011.38,1333.08 2011.92,1355.37 2012.46,1355.68 2013,1356 
  2013.54,1334.38 2014.08,1356.62 2014.62,1335.03 2015.16,1299.57 2015.7,1322.58 2016.24,1357.87 2016.78,1445.72 2017.32,1323.56 2017.86,1445.72 2018.4,1296.49 
  2018.94,1445.72 2019.48,1337.94 2020.02,1302.56 2020.56,1338.58 2021.09,1316.5 2021.63,1339.23 2022.17,1361.29 2022.71,1339.87 2023.25,1327.16 2023.79,1299.81 
  2024.33,1362.53 2024.87,1445.72 2025.41,1445.72 2025.95,1445.72 2026.49,1342.12 2027.03,1290.05 2027.57,1320.44 2028.11,1307.52 2028.65,1298.41 2029.19,1343.73 
  2029.73,1344.05 2030.27,1344.37 2030.81,1344.69 2031.35,1292.72 2031.89,1323.07 2032.43,1345.65 2032.97,1323.72 2033.51,1445.72 2034.04,1346.6 2034.58,1346.92 
  2035.12,1311.82 2035.66,1312.15 2036.2,1303.05 2036.74,1326.01 2037.28,1445.72 2037.82,1296.71 2038.36,1445.72 2038.9,1445.72 2039.44,1327.64 2039.98,1327.97 
  2040.52,1315.12 2041.06,1445.72 2041.6,1351.05 2042.14,1351.37 2042.68,1307.02 2043.22,1294.02 2043.76,1330.25 2044.3,1352.63 2044.84,1330.9 2045.38,1308.68 
  2045.92,1353.58 2046.46,1302.02 2046.99,1309.67 2047.53,1332.53 2048.07,1445.72 2048.61,1355.15 2049.15,1297.68 2049.69,1304.01 2050.23,1321.04 2050.77,1311.98 
  2051.31,1356.72 2051.85,1445.72 2052.39,1294.6 2052.93,1445.72 2053.47,1445.72 2054.01,1358.28 2054.55,1323.66 2055.09,1445.72 2055.63,1324.31 2056.17,1337.71 
  2056.71,1308.31 2057.25,1325.3 2057.79,1308.97 2058.33,1325.95 2058.87,1316.92 2059.41,1361.39 2059.94,1326.93 2060.48,1317.91 2061.02,1327.58 2061.56,1340.93 
  2062.1,1318.9 2062.64,1319.23 2063.18,1341.9 2063.72,1319.88 2064.26,1306.96 2064.8,1320.54 2065.34,1307.62 2065.88,1307.95 2066.42,1291.48 2066.96,1344.14 
  2067.5,1344.46 2068.04,1292.48 2068.58,1300.16 2069.13,1300.51 2069.68,1323.51 2070.24,1346.09 2070.79,1310.96 2071.34,1324.51 2071.9,1324.85 2072.45,1445.72 
  2073,1284.44 2073.56,1445.72 2074.11,1445.72 2074.66,1348.7 2075.22,1349.02 2075.77,1314.01 2076.32,1349.68 2076.88,1327.87 2077.43,1350.33 2077.98,1445.72 
  2078.53,1445.72 2079.09,1329.2 2079.64,1329.54 2080.19,1351.95 2080.75,1300.31 2081.3,1307.98 2081.85,1445.72 2082.41,1308.65 2082.96,1301.67 2083.51,1353.89 
  2084.07,1445.72 2084.62,1310.01 2085.17,1354.85 2085.73,1355.18 2086.28,1355.5 2086.83,1320.75 2087.38,1334.2 2087.94,1356.46 2088.49,1356.78 2089.04,1289.94 
  2089.6,1305.75 2090.15,1306.09 2090.7,1445.72 2091.26,1323.44 2091.81,1358.7 2092.36,1307.44 2092.92,1324.45 2093.47,1315.42 2094.02,1359.98 2094.58,1360.3 
  2095.13,1360.61 2095.68,1294.03 2096.24,1317.11 2096.79,1361.57 2097.34,1340.17 2097.89,1310.83 2098.45,1445.72 2099,1305.53 2099.55,1319.13 2100.11,1341.81 
  2100.66,1445.72 2101.21,1320.14 2101.77,1307.23 2102.32,1320.81 2102.87,1343.46 2103.43,1321.49 2103.98,1344.12 2104.53,1445.72 2105.09,1344.77 2105.64,1345.1 
  2106.19,1300.5 2106.74,1300.84 2107.3,1445.72 2107.85,1346.41 2108.4,1301.86 2108.96,1445.72 2109.51,1445.72 2110.06,1445.72 2110.62,1312.65 2111.17,1326.19 
  2111.72,1326.52 2112.28,1445.72 2112.83,1314 2113.38,1297.58 2113.94,1305.26 2114.49,1315.02 2115.04,1328.53 2115.6,1287.85 2116.15,1329.2 2116.7,1316.37 
  2117.25,1329.87 2117.81,1317.04 2118.36,1330.53 2118.91,1352.91 2119.47,1301.33 2120.02,1318.39 2120.57,1318.73 2121.13,1332.2 2121.68,1302.68 2122.23,1354.85 
  2122.79,1292.29 2123.34,1311.02 2123.89,1355.81 2124.45,1311.7 2125,1334.53 2125.55,1299.07 2126.1,1445.72 2126.66,1445.72 2127.21,1313.39 2127.76,1358.06 
  2128.32,1358.38 2128.87,1314.4 2129.42,1337.18 2129.98,1359.34 2130.53,1359.65 2131.08,1445.72 2131.64,1360.29 2132.19,1338.84 2132.74,1316.77 2133.3,1361.24 
  2133.85,1361.56 2134.4,1361.88 2134.96,1362.19 2135.51,1362.51 2136.06,1445.72 2136.61,1305.87 2137.17,1319.46 2137.72,1342.14 2138.27,1445.72 2138.83,1342.8 
  2139.38,1343.12 2139.99,1343.48 2140.59,1343.84 2141.2,1308.68 2141.8,1322.28 2142.41,1309.42 2143.02,1309.79 2143.62,1345.64 2144.23,1323.75 2144.83,1445.72 
  2145.44,1311.28 2146.05,1347.07 2146.65,1445.72 2147.26,1312.39 2147.86,1348.15 2148.47,1445.72 2149.08,1296.74 2149.68,1327.06 2150.29,1314.24 2150.89,1349.93 
  2151.5,1314.98 2152.11,1350.64 2152.71,1315.72 2153.32,1351.35 2153.92,1293.72 2154.53,1300.09 2155.14,1352.42 2155.74,1445.72 2156.35,1331.09 2156.96,1445.72 
  2157.56,1353.84 2158.17,1354.19 2158.77,1332.55 2159.38,1310.39 2159.99,1355.25 2160.59,1445.72 2161.2,1320.89 2161.8,1289.09 2162.41,1304.93 2163.02,1445.72 
  2163.62,1305.68 2164.23,1300.06 2164.83,1358.06 2165.44,1358.41 2166.05,1314.47 2166.65,1337.28 2167.26,1359.46 2167.86,1324.94 2168.47,1445.72 2169.08,1309.02 
  2169.68,1326.04 2170.29,1326.41 2170.89,1361.55 2171.5,1327.14 2172.11,1327.51 2172.71,1340.9 2173.32,1318.9 2173.92,1341.62 2174.53,1296.93 2175.14,1306.76 
  2175.74,1445.72 2176.35,1320.75 2176.95,1343.42 2177.56,1343.78 2178.17,1308.62 2178.77,1322.22 2179.38,1445.72 2179.98,1309.73 2180.59,1345.58 2181.2,1445.72 
  2181.8,1346.3 2182.41,1311.21 2183.01,1324.8 2183.62,1445.72 2184.23,1347.73 2184.83,1325.9 2185.44,1348.45 2186.04,1326.63 2186.65,1313.81 2187.26,1327.37 
  2187.86,1297.79 2188.47,1350.23 2189.07,1315.29 2189.68,1445.72 2190.29,1351.3 2190.89,1351.65 2191.5,1352.01 2192.1,1352.36 2192.71,1352.71 2193.32,1445.72 
  2193.92,1318.25 2194.53,1445.72 2195.14,1318.98 2195.74,1309.96 2196.35,1319.72 2196.95,1355.19 2197.56,1355.54 2198.17,1445.72 2198.77,1334.31 2199.38,1321.57 
  2199.98,1321.93 2200.59,1322.3 2201.2,1357.65 2201.8,1336.13 2202.41,1358.35 2203.01,1314.41 2203.62,1324.14 2204.23,1324.51 2204.83,1359.75 2205.44,1302.61 
  2206.04,1325.61 2206.65,1316.63 2207.26,1445.72 2207.86,1339.76 2208.47,1340.12 2209.07,1362.18 2209.68,1340.84 2210.29,1445.72 2210.89,1341.56 2211.5,1341.92 
  2212.1,1445.72 2212.71,1320.32 2213.32,1445.72 2213.92,1298.36 2214.53,1321.42 2215.13,1321.79 2215.74,1308.93 2216.35,1322.53 2216.95,1445.72 2217.83,1310.21 
  2218.71,1323.97 2219.59,1346.73 2220.47,1445.72 2221.35,1312.36 2222.23,1303.47 2223.11,1326.63 2224,1313.98 2224.88,1349.84 2225.76,1315.05 2226.64,1350.87 
  2227.52,1316.13 2228.4,1329.83 2229.28,1307.79 2230.16,1352.94 2231.04,1301.55 2231.92,1353.96 2232.8,1445.72 2233.68,1354.99 2234.56,1333.54 2235.44,1298.26 
  2236.32,1321.49 2237.2,1357.03 2238.08,1335.66 2238.96,1358.05 2239.84,1358.56 2240.72,1314.8 2241.6,1315.33 2242.48,1308.57 2243.36,1360.59 2244.24,1339.35 
  2245.12,1326.83 2246,1340.4 2246.88,1305.29 2247.76,1319.09 2248.65,1306.37 2249.53,1342.49 2250.41,1343.02 2251.29,1445.72 2252.17,1308.53 2253.05,1445.72 
  2253.93,1345.11 2254.81,1310.15 2255.69,1346.15 2256.57,1311.23 2257.45,1311.77 2258.33,1302.87 2259.21,1348.23 2260.09,1303.96 2260.97,1327.11 2261.85,1445.72 
  2262.73,1445.72 2263.61,1315.53 2264.49,1445.72 2265.37,1316.61 2266.25,1317.14 2267.13,1445.72 2268.01,1318.22 2268.89,1353.91 2269.77,1445.72 2270.65,1332.95 
  2271.53,1445.72 2272.41,1298.2 2273.3,1356.47 2274.18,1321.97 2275.06,1357.49 2275.94,1358 2276.82,1336.66 2277.7,1324.11 2278.58,1315.28 2279.46,1325.17 
  2280.34,1360.54 2281.22,1361.04 2282.1,1317.43 2282.98,1327.31 2283.86,1340.87 2284.74,1319.03 2285.62,1306.32 2286.5,1306.86 2287.38,1284.57 2288.26,1291.13 
  2289.14,1321.71 2290.02,1299.57 2290.9,1309.55 2291.78,1345.57 2292.66,1323.85 2293.54,1324.39 2294.42,1324.92 2295.3,1445.72 2296.18,1325.99 2297.06,1313.32 
  2297.95,1297.1 2298.83,1282.13 2299.71,1350.25 2300.59,1306.06 2301.47,1329.18 2302.35,1445.72 2303.23,1352.31 2304.11,1294.89 2304.99,1308.76 2305.87,1353.85 
  2306.75,1302.52 2307.63,1332.9 2308.51,1320.3 2309.39,1355.9 2310.27,1298.69 2311.15,1335.02 2312.03,1357.44 2312.91,1313.61 2313.79,1323.52 2314.67,1314.68 
  2315.55,1359.47 2316.43,1359.98 2317.31,1338.71 2318.19,1360.99 2319.07,1317.37 2319.95,1317.91 2320.83,1340.81 2321.71,1341.33 2322.6,1319.51 2323.48,1306.8 
  2324.36,1297.89 2325.24,1343.43 2326.12,1445.72 2327,1322.19 2327.88,1322.73 2328.76,1445.72 2329.64,1287.77 2329.82,1445.72 2330,1310.8 2330.18,1324.12 
  2330.36,1294.23 2330.54,1445.72 2330.72,1346.68 2330.9,1324.56 2331.08,1324.67 2331.26,1324.78 2331.44,1311.68 2331.62,1311.79 2331.81,1347.32 2331.99,1347.43 
  2332.17,1325.33 2332.35,1445.72 2332.53,1302.91 2332.71,1347.85 2332.89,1325.77 2333.07,1312.67 2333.25,1348.17 2333.43,1445.72 2333.61,1296.24 2333.79,1326.31 
  2333.97,1303.8 2334.15,1445.72 2334.33,1326.64 2334.51,1313.56 2334.7,1304.24 2334.88,1349.13 2335.06,1297.13 2335.24,1445.72 2335.42,1349.45 2335.6,1304.8 
  2335.78,1314.33 2335.96,1445.72 2336.14,1349.87 2336.32,1349.98 2336.5,1305.35 2336.68,1328.06 2336.86,1328.17 2337.04,1350.4 2337.22,1305.8 2337.4,1328.5 
  2337.58,1350.72 2337.77,1315.54 2337.95,1306.24 2338.13,1351.04 2338.31,1351.15 2338.49,1445.72 2338.67,1293.35 2338.85,1351.46 2339.03,1351.57 2339.21,1351.68 
  2339.39,1445.72 2339.57,1445.72 2339.75,1351.99 2339.93,1316.87 2340.11,1352.2 2340.29,1330.24 2340.47,1307.79 2340.66,1352.52 2340.84,1330.57 2341.02,1317.53 
  2341.2,1330.79 2341.38,1445.72 2341.56,1331.01 2341.74,1308.56 2341.92,1331.22 2342.1,1445.72 2342.28,1353.47 2342.46,1318.41 2342.64,1331.66 2342.82,1295.91 
  2343,1318.74 2343.18,1445.72 2343.36,1445.72 2343.54,1309.67 2343.73,1354.31 2343.91,1332.42 2344.09,1332.53 2344.27,1319.51 2344.45,1354.74 2344.63,1310.33 
  2344.81,1332.97 2344.99,1319.95 2345.17,1333.18 2345.35,1445.72 2345.53,1333.4 2345.71,1333.51 2345.89,1303.79 2346.07,1333.73 2346.25,1304.01 2346.43,1298.13 
  2346.62,1334.05 2346.8,1445.72 2346.98,1445.72 2347.16,1334.38 2347.34,1321.38 2347.52,1321.48 2347.7,1334.7 2347.88,1334.81 2348.06,1334.92 2348.24,1312.54 
  2348.42,1322.03 2348.6,1357.15 2348.78,1335.35 2348.96,1357.36 2349.14,1445.72 2349.32,1335.68 2349.5,1313.32 2349.69,1357.78 2349.87,1336 2350.05,1336.11 
  2350.23,1358.09 2350.41,1336.33 2350.59,1358.3 2350.77,1445.72 2350.95,1336.65 2351.13,1445.72 2351.31,1445.72 2351.49,1358.82 2351.67,1337.09 2351.85,1314.75 
  2352.03,1314.86 2352.21,1359.24 2352.39,1359.34 2352.58,1445.72 2352.76,1324.67 
  "/>
<path clip-path="url(#clip540)" d="
M1991.34 198.898 L2281.45 198.898 L2281.45 95.2176 L1991.34 95.2176  Z
  " fill="#ffffff" fill-rule="evenodd" fill-opacity="1"/>
<polyline clip-path="url(#clip540)" style="stroke:#000000; stroke-linecap:round; stroke-linejoin:round; stroke-width:4; stroke-opacity:1; fill:none" points="
  1991.34,198.898 2281.45,198.898 2281.45,95.2176 1991.34,95.2176 1991.34,198.898 
  "/>
<polyline clip-path="url(#clip540)" style="stroke:#009af9; stroke-linecap:round; stroke-linejoin:round; stroke-width:4; stroke-opacity:1; fill:none" points="
  2015.11,147.058 2157.72,147.058 
  "/>
<path clip-path="url(#clip540)" d="M2195.33 166.745 Q2193.52 171.375 2191.81 172.787 Q2190.1 174.199 2187.22 174.199 L2183.82 174.199 L2183.82 170.634 L2186.32 170.634 Q2188.08 170.634 2189.05 169.8 Q2190.03 168.967 2191.21 165.865 L2191.97 163.921 L2181.48 138.412 L2186 138.412 L2194.1 158.689 L2202.2 138.412 L2206.72 138.412 L2195.33 166.745 Z" fill="#000000" fill-rule="evenodd" fill-opacity="1" /><path clip-path="url(#clip540)" d="M2214.01 160.402 L2221.65 160.402 L2221.65 134.037 L2213.34 135.703 L2213.34 131.444 L2221.6 129.778 L2226.28 129.778 L2226.28 160.402 L2233.91 160.402 L2233.91 164.338 L2214.01 164.338 L2214.01 160.402 Z" fill="#000000" fill-rule="evenodd" fill-opacity="1" /></svg>
