<?xml version="1.0" encoding="utf-8"?>
<svg xmlns="http://www.w3.org/2000/svg" xmlns:xlink="http://www.w3.org/1999/xlink" width="600" height="400" viewBox="0 0 2400 1600">
<defs>
  <clipPath id="clip590">
    <rect x="0" y="0" width="2400" height="1600"/>
  </clipPath>
</defs>
<path clip-path="url(#clip590)" d="
M0 1600 L2400 1600 L2400 0 L0 0  Z
  " fill="#ffffff" fill-rule="evenodd" fill-opacity="1"/>
<defs>
  <clipPath id="clip591">
    <rect x="480" y="0" width="1681" height="1600"/>
  </clipPath>
</defs>
<path clip-path="url(#clip590)" d="
M156.598 1486.45 L2352.76 1486.45 L2352.76 47.2441 L156.598 47.2441  Z
  " fill="#ffffff" fill-rule="evenodd" fill-opacity="1"/>
<defs>
  <clipPath id="clip592">
    <rect x="156" y="47" width="2197" height="1440"/>
  </clipPath>
</defs>
<polyline clip-path="url(#clip592)" style="stroke:#000000; stroke-linecap:round; stroke-linejoin:round; stroke-width:2; stroke-opacity:0.1; fill:none" points="
  156.598,1486.45 156.598,47.2441 
  "/>
<polyline clip-path="url(#clip592)" style="stroke:#000000; stroke-linecap:round; stroke-linejoin:round; stroke-width:2; stroke-opacity:0.1; fill:none" points="
  705.638,1486.45 705.638,47.2441 
  "/>
<polyline clip-path="url(#clip592)" style="stroke:#000000; stroke-linecap:round; stroke-linejoin:round; stroke-width:2; stroke-opacity:0.1; fill:none" points="
  1254.68,1486.45 1254.68,47.2441 
  "/>
<polyline clip-path="url(#clip592)" style="stroke:#000000; stroke-linecap:round; stroke-linejoin:round; stroke-width:2; stroke-opacity:0.1; fill:none" points="
  1803.72,1486.45 1803.72,47.2441 
  "/>
<polyline clip-path="url(#clip592)" style="stroke:#000000; stroke-linecap:round; stroke-linejoin:round; stroke-width:2; stroke-opacity:0.1; fill:none" points="
  2352.76,1486.45 2352.76,47.2441 
  "/>
<polyline clip-path="url(#clip590)" style="stroke:#000000; stroke-linecap:round; stroke-linejoin:round; stroke-width:4; stroke-opacity:1; fill:none" points="
  156.598,1486.45 2352.76,1486.45 
  "/>
<polyline clip-path="url(#clip590)" style="stroke:#000000; stroke-linecap:round; stroke-linejoin:round; stroke-width:4; stroke-opacity:1; fill:none" points="
  156.598,1486.45 156.598,1467.55 
  "/>
<polyline clip-path="url(#clip590)" style="stroke:#000000; stroke-linecap:round; stroke-linejoin:round; stroke-width:4; stroke-opacity:1; fill:none" points="
  705.638,1486.45 705.638,1467.55 
  "/>
<polyline clip-path="url(#clip590)" style="stroke:#000000; stroke-linecap:round; stroke-linejoin:round; stroke-width:4; stroke-opacity:1; fill:none" points="
  1254.68,1486.45 1254.68,1467.55 
  "/>
<polyline clip-path="url(#clip590)" style="stroke:#000000; stroke-linecap:round; stroke-linejoin:round; stroke-width:4; stroke-opacity:1; fill:none" points="
  1803.72,1486.45 1803.72,1467.55 
  "/>
<polyline clip-path="url(#clip590)" style="stroke:#000000; stroke-linecap:round; stroke-linejoin:round; stroke-width:4; stroke-opacity:1; fill:none" points="
  2352.76,1486.45 2352.76,1467.55 
  "/>
<path clip-path="url(#clip590)" d="M103.126 1532.02 L132.802 1532.02 L132.802 1535.95 L103.126 1535.95 L103.126 1532.02 Z" fill="#000000" fill-rule="evenodd" fill-opacity="1" /><path clip-path="url(#clip590)" d="M143.705 1544.91 L151.344 1544.91 L151.344 1518.55 L143.033 1520.21 L143.033 1515.95 L151.297 1514.29 L155.973 1514.29 L155.973 1544.91 L163.612 1544.91 L163.612 1548.85 L143.705 1548.85 L143.705 1544.91 Z" fill="#000000" fill-rule="evenodd" fill-opacity="1" /><path clip-path="url(#clip590)" d="M173.056 1542.97 L177.941 1542.97 L177.941 1548.85 L173.056 1548.85 L173.056 1542.97 Z" fill="#000000" fill-rule="evenodd" fill-opacity="1" /><path clip-path="url(#clip590)" d="M198.126 1517.37 Q194.515 1517.37 192.686 1520.93 Q190.88 1524.47 190.88 1531.6 Q190.88 1538.71 192.686 1542.27 Q194.515 1545.82 198.126 1545.82 Q201.76 1545.82 203.566 1542.27 Q205.394 1538.71 205.394 1531.6 Q205.394 1524.47 203.566 1520.93 Q201.76 1517.37 198.126 1517.37 M198.126 1513.66 Q203.936 1513.66 206.991 1518.27 Q210.07 1522.85 210.07 1531.6 Q210.07 1540.33 206.991 1544.94 Q203.936 1549.52 198.126 1549.52 Q192.316 1549.52 189.237 1544.94 Q186.181 1540.33 186.181 1531.6 Q186.181 1522.85 189.237 1518.27 Q192.316 1513.66 198.126 1513.66 Z" fill="#000000" fill-rule="evenodd" fill-opacity="1" /><path clip-path="url(#clip590)" d="M652.663 1532.02 L682.339 1532.02 L682.339 1535.95 L652.663 1535.95 L652.663 1532.02 Z" fill="#000000" fill-rule="evenodd" fill-opacity="1" /><path clip-path="url(#clip590)" d="M702.432 1517.37 Q698.821 1517.37 696.992 1520.93 Q695.186 1524.47 695.186 1531.6 Q695.186 1538.71 696.992 1542.27 Q698.821 1545.82 702.432 1545.82 Q706.066 1545.82 707.871 1542.27 Q709.7 1538.71 709.7 1531.6 Q709.7 1524.47 707.871 1520.93 Q706.066 1517.37 702.432 1517.37 M702.432 1513.66 Q708.242 1513.66 711.297 1518.27 Q714.376 1522.85 714.376 1531.6 Q714.376 1540.33 711.297 1544.94 Q708.242 1549.52 702.432 1549.52 Q696.621 1549.52 693.543 1544.94 Q690.487 1540.33 690.487 1531.6 Q690.487 1522.85 693.543 1518.27 Q696.621 1513.66 702.432 1513.66 Z" fill="#000000" fill-rule="evenodd" fill-opacity="1" /><path clip-path="url(#clip590)" d="M722.594 1542.97 L727.478 1542.97 L727.478 1548.85 L722.594 1548.85 L722.594 1542.97 Z" fill="#000000" fill-rule="evenodd" fill-opacity="1" /><path clip-path="url(#clip590)" d="M737.709 1514.29 L756.066 1514.29 L756.066 1518.22 L741.992 1518.22 L741.992 1526.7 Q743.01 1526.35 744.029 1526.19 Q745.047 1526 746.066 1526 Q751.853 1526 755.232 1529.17 Q758.612 1532.34 758.612 1537.76 Q758.612 1543.34 755.14 1546.44 Q751.667 1549.52 745.348 1549.52 Q743.172 1549.52 740.904 1549.15 Q738.658 1548.78 736.251 1548.04 L736.251 1543.34 Q738.334 1544.47 740.556 1545.03 Q742.779 1545.58 745.255 1545.58 Q749.26 1545.58 751.598 1543.48 Q753.936 1541.37 753.936 1537.76 Q753.936 1534.15 751.598 1532.04 Q749.26 1529.94 745.255 1529.94 Q743.381 1529.94 741.506 1530.35 Q739.654 1530.77 737.709 1531.65 L737.709 1514.29 Z" fill="#000000" fill-rule="evenodd" fill-opacity="1" /><path clip-path="url(#clip590)" d="M1232.06 1517.37 Q1228.45 1517.37 1226.62 1520.93 Q1224.82 1524.47 1224.82 1531.6 Q1224.82 1538.71 1226.62 1542.27 Q1228.45 1545.82 1232.06 1545.82 Q1235.7 1545.82 1237.5 1542.27 Q1239.33 1538.71 1239.33 1531.6 Q1239.33 1524.47 1237.5 1520.93 Q1235.7 1517.37 1232.06 1517.37 M1232.06 1513.66 Q1237.87 1513.66 1240.93 1518.27 Q1244.01 1522.85 1244.01 1531.6 Q1244.01 1540.33 1240.93 1544.94 Q1237.87 1549.52 1232.06 1549.52 Q1226.25 1549.52 1223.17 1544.94 Q1220.12 1540.33 1220.12 1531.6 Q1220.12 1522.85 1223.17 1518.27 Q1226.25 1513.66 1232.06 1513.66 Z" fill="#000000" fill-rule="evenodd" fill-opacity="1" /><path clip-path="url(#clip590)" d="M1252.22 1542.97 L1257.11 1542.97 L1257.11 1548.85 L1252.22 1548.85 L1252.22 1542.97 Z" fill="#000000" fill-rule="evenodd" fill-opacity="1" /><path clip-path="url(#clip590)" d="M1277.29 1517.37 Q1273.68 1517.37 1271.85 1520.93 Q1270.05 1524.47 1270.05 1531.6 Q1270.05 1538.71 1271.85 1542.27 Q1273.68 1545.82 1277.29 1545.82 Q1280.93 1545.82 1282.73 1542.27 Q1284.56 1538.71 1284.56 1531.6 Q1284.56 1524.47 1282.73 1520.93 Q1280.93 1517.37 1277.29 1517.37 M1277.29 1513.66 Q1283.1 1513.66 1286.16 1518.27 Q1289.24 1522.85 1289.24 1531.6 Q1289.24 1540.33 1286.16 1544.94 Q1283.1 1549.52 1277.29 1549.52 Q1271.48 1549.52 1268.4 1544.94 Q1265.35 1540.33 1265.35 1531.6 Q1265.35 1522.85 1268.4 1518.27 Q1271.48 1513.66 1277.29 1513.66 Z" fill="#000000" fill-rule="evenodd" fill-opacity="1" /><path clip-path="url(#clip590)" d="M1781.6 1517.37 Q1777.99 1517.37 1776.16 1520.93 Q1774.35 1524.47 1774.35 1531.6 Q1774.35 1538.71 1776.16 1542.27 Q1777.99 1545.82 1781.6 1545.82 Q1785.23 1545.82 1787.04 1542.27 Q1788.87 1538.71 1788.87 1531.6 Q1788.87 1524.47 1787.04 1520.93 Q1785.23 1517.37 1781.6 1517.37 M1781.6 1513.66 Q1787.41 1513.66 1790.46 1518.27 Q1793.54 1522.85 1793.54 1531.6 Q1793.54 1540.33 1790.46 1544.94 Q1787.41 1549.52 1781.6 1549.52 Q1775.79 1549.52 1772.71 1544.94 Q1769.65 1540.33 1769.65 1531.6 Q1769.65 1522.85 1772.71 1518.27 Q1775.79 1513.66 1781.6 1513.66 Z" fill="#000000" fill-rule="evenodd" fill-opacity="1" /><path clip-path="url(#clip590)" d="M1801.76 1542.97 L1806.64 1542.97 L1806.64 1548.85 L1801.76 1548.85 L1801.76 1542.97 Z" fill="#000000" fill-rule="evenodd" fill-opacity="1" /><path clip-path="url(#clip590)" d="M1816.88 1514.29 L1835.23 1514.29 L1835.23 1518.22 L1821.16 1518.22 L1821.16 1526.7 Q1822.18 1526.35 1823.2 1526.19 Q1824.21 1526 1825.23 1526 Q1831.02 1526 1834.4 1529.17 Q1837.78 1532.34 1837.78 1537.76 Q1837.78 1543.34 1834.31 1546.44 Q1830.83 1549.52 1824.51 1549.52 Q1822.34 1549.52 1820.07 1549.15 Q1817.83 1548.78 1815.42 1548.04 L1815.42 1543.34 Q1817.5 1544.47 1819.72 1545.03 Q1821.95 1545.58 1824.42 1545.58 Q1828.43 1545.58 1830.76 1543.48 Q1833.1 1541.37 1833.1 1537.76 Q1833.1 1534.15 1830.76 1532.04 Q1828.43 1529.94 1824.42 1529.94 Q1822.55 1529.94 1820.67 1530.35 Q1818.82 1530.77 1816.88 1531.65 L1816.88 1514.29 Z" fill="#000000" fill-rule="evenodd" fill-opacity="1" /><path clip-path="url(#clip590)" d="M2319.91 1544.91 L2327.55 1544.91 L2327.55 1518.55 L2319.24 1520.21 L2319.24 1515.95 L2327.5 1514.29 L2332.18 1514.29 L2332.18 1544.91 L2339.82 1544.91 L2339.82 1548.85 L2319.91 1548.85 L2319.91 1544.91 Z" fill="#000000" fill-rule="evenodd" fill-opacity="1" /><path clip-path="url(#clip590)" d="M2349.26 1542.97 L2354.14 1542.97 L2354.14 1548.85 L2349.26 1548.85 L2349.26 1542.97 Z" fill="#000000" fill-rule="evenodd" fill-opacity="1" /><path clip-path="url(#clip590)" d="M2374.33 1517.37 Q2370.72 1517.37 2368.89 1520.93 Q2367.08 1524.47 2367.08 1531.6 Q2367.08 1538.71 2368.89 1542.27 Q2370.72 1545.82 2374.33 1545.82 Q2377.96 1545.82 2379.77 1542.27 Q2381.6 1538.71 2381.6 1531.6 Q2381.6 1524.47 2379.77 1520.93 Q2377.96 1517.37 2374.33 1517.37 M2374.33 1513.66 Q2380.14 1513.66 2383.2 1518.27 Q2386.27 1522.85 2386.27 1531.6 Q2386.27 1540.33 2383.2 1544.94 Q2380.14 1549.52 2374.33 1549.52 Q2368.52 1549.52 2365.44 1544.94 Q2362.39 1540.33 2362.39 1531.6 Q2362.39 1522.85 2365.44 1518.27 Q2368.52 1513.66 2374.33 1513.66 Z" fill="#000000" fill-rule="evenodd" fill-opacity="1" /><polyline clip-path="url(#clip592)" style="stroke:#000000; stroke-linecap:round; stroke-linejoin:round; stroke-width:2; stroke-opacity:0.1; fill:none" points="
  156.598,1282.75 2352.76,1282.75 
  "/>
<polyline clip-path="url(#clip592)" style="stroke:#000000; stroke-linecap:round; stroke-linejoin:round; stroke-width:2; stroke-opacity:0.1; fill:none" points="
  156.598,983.988 2352.76,983.988 
  "/>
<polyline clip-path="url(#clip592)" style="stroke:#000000; stroke-linecap:round; stroke-linejoin:round; stroke-width:2; stroke-opacity:0.1; fill:none" points="
  156.598,685.224 2352.76,685.224 
  "/>
<polyline clip-path="url(#clip592)" style="stroke:#000000; stroke-linecap:round; stroke-linejoin:round; stroke-width:2; stroke-opacity:0.1; fill:none" points="
  156.598,386.459 2352.76,386.459 
  "/>
<polyline clip-path="url(#clip592)" style="stroke:#000000; stroke-linecap:round; stroke-linejoin:round; stroke-width:2; stroke-opacity:0.1; fill:none" points="
  156.598,87.6942 2352.76,87.6942 
  "/>
<polyline clip-path="url(#clip590)" style="stroke:#000000; stroke-linecap:round; stroke-linejoin:round; stroke-width:4; stroke-opacity:1; fill:none" points="
  156.598,1486.45 156.598,47.2441 
  "/>
<polyline clip-path="url(#clip590)" style="stroke:#000000; stroke-linecap:round; stroke-linejoin:round; stroke-width:4; stroke-opacity:1; fill:none" points="
  156.598,1282.75 175.496,1282.75 
  "/>
<polyline clip-path="url(#clip590)" style="stroke:#000000; stroke-linecap:round; stroke-linejoin:round; stroke-width:4; stroke-opacity:1; fill:none" points="
  156.598,983.988 175.496,983.988 
  "/>
<polyline clip-path="url(#clip590)" style="stroke:#000000; stroke-linecap:round; stroke-linejoin:round; stroke-width:4; stroke-opacity:1; fill:none" points="
  156.598,685.224 175.496,685.224 
  "/>
<polyline clip-path="url(#clip590)" style="stroke:#000000; stroke-linecap:round; stroke-linejoin:round; stroke-width:4; stroke-opacity:1; fill:none" points="
  156.598,386.459 175.496,386.459 
  "/>
<polyline clip-path="url(#clip590)" style="stroke:#000000; stroke-linecap:round; stroke-linejoin:round; stroke-width:4; stroke-opacity:1; fill:none" points="
  156.598,87.6942 175.496,87.6942 
  "/>
<path clip-path="url(#clip590)" d="M65.0198 1268.55 Q61.4087 1268.55 59.58 1272.12 Q57.7745 1275.66 57.7745 1282.79 Q57.7745 1289.89 59.58 1293.46 Q61.4087 1297 65.0198 1297 Q68.6541 1297 70.4596 1293.46 Q72.2883 1289.89 72.2883 1282.79 Q72.2883 1275.66 70.4596 1272.12 Q68.6541 1268.55 65.0198 1268.55 M65.0198 1264.85 Q70.83 1264.85 73.8855 1269.45 Q76.9642 1274.04 76.9642 1282.79 Q76.9642 1291.51 73.8855 1296.12 Q70.83 1300.7 65.0198 1300.7 Q59.2097 1300.7 56.131 1296.12 Q53.0754 1291.51 53.0754 1282.79 Q53.0754 1274.04 56.131 1269.45 Q59.2097 1264.85 65.0198 1264.85 Z" fill="#000000" fill-rule="evenodd" fill-opacity="1" /><path clip-path="url(#clip590)" d="M85.1818 1294.15 L90.066 1294.15 L90.066 1300.03 L85.1818 1300.03 L85.1818 1294.15 Z" fill="#000000" fill-rule="evenodd" fill-opacity="1" /><path clip-path="url(#clip590)" d="M104.279 1296.1 L120.598 1296.1 L120.598 1300.03 L98.6539 1300.03 L98.6539 1296.1 Q101.316 1293.34 105.899 1288.71 Q110.506 1284.06 111.686 1282.72 Q113.932 1280.2 114.811 1278.46 Q115.714 1276.7 115.714 1275.01 Q115.714 1272.26 113.77 1270.52 Q111.848 1268.78 108.746 1268.78 Q106.547 1268.78 104.094 1269.55 Q101.663 1270.31 98.8854 1271.86 L98.8854 1267.14 Q101.709 1266.01 104.163 1265.43 Q106.617 1264.85 108.654 1264.85 Q114.024 1264.85 117.219 1267.53 Q120.413 1270.22 120.413 1274.71 Q120.413 1276.84 119.603 1278.76 Q118.816 1280.66 116.709 1283.25 Q116.131 1283.92 113.029 1287.14 Q109.927 1290.33 104.279 1296.1 Z" fill="#000000" fill-rule="evenodd" fill-opacity="1" /><path clip-path="url(#clip590)" d="M62.9365 969.787 Q59.3254 969.787 57.4967 973.352 Q55.6912 976.894 55.6912 984.023 Q55.6912 991.13 57.4967 994.694 Q59.3254 998.236 62.9365 998.236 Q66.5707 998.236 68.3763 994.694 Q70.205 991.13 70.205 984.023 Q70.205 976.894 68.3763 973.352 Q66.5707 969.787 62.9365 969.787 M62.9365 966.083 Q68.7467 966.083 71.8022 970.69 Q74.8809 975.273 74.8809 984.023 Q74.8809 992.75 71.8022 997.356 Q68.7467 1001.94 62.9365 1001.94 Q57.1264 1001.94 54.0477 997.356 Q50.9921 992.75 50.9921 984.023 Q50.9921 975.273 54.0477 970.69 Q57.1264 966.083 62.9365 966.083 Z" fill="#000000" fill-rule="evenodd" fill-opacity="1" /><path clip-path="url(#clip590)" d="M83.0984 995.389 L87.9827 995.389 L87.9827 1001.27 L83.0984 1001.27 L83.0984 995.389 Z" fill="#000000" fill-rule="evenodd" fill-opacity="1" /><path clip-path="url(#clip590)" d="M111.015 970.782 L99.2095 989.231 L111.015 989.231 L111.015 970.782 M109.788 966.708 L115.668 966.708 L115.668 989.231 L120.598 989.231 L120.598 993.12 L115.668 993.12 L115.668 1001.27 L111.015 1001.27 L111.015 993.12 L95.4132 993.12 L95.4132 988.606 L109.788 966.708 Z" fill="#000000" fill-rule="evenodd" fill-opacity="1" /><path clip-path="url(#clip590)" d="M63.2606 671.022 Q59.6495 671.022 57.8208 674.587 Q56.0152 678.129 56.0152 685.258 Q56.0152 692.365 57.8208 695.93 Q59.6495 699.471 63.2606 699.471 Q66.8948 699.471 68.7004 695.93 Q70.5291 692.365 70.5291 685.258 Q70.5291 678.129 68.7004 674.587 Q66.8948 671.022 63.2606 671.022 M63.2606 667.319 Q69.0707 667.319 72.1263 671.925 Q75.205 676.508 75.205 685.258 Q75.205 693.985 72.1263 698.592 Q69.0707 703.175 63.2606 703.175 Q57.4504 703.175 54.3717 698.592 Q51.3162 693.985 51.3162 685.258 Q51.3162 676.508 54.3717 671.925 Q57.4504 667.319 63.2606 667.319 Z" fill="#000000" fill-rule="evenodd" fill-opacity="1" /><path clip-path="url(#clip590)" d="M83.4225 696.624 L88.3067 696.624 L88.3067 702.504 L83.4225 702.504 L83.4225 696.624 Z" fill="#000000" fill-rule="evenodd" fill-opacity="1" /><path clip-path="url(#clip590)" d="M109.071 683.36 Q105.922 683.36 104.071 685.513 Q102.242 687.666 102.242 691.416 Q102.242 695.143 104.071 697.318 Q105.922 699.471 109.071 699.471 Q112.219 699.471 114.047 697.318 Q115.899 695.143 115.899 691.416 Q115.899 687.666 114.047 685.513 Q112.219 683.36 109.071 683.36 M118.353 668.708 L118.353 672.967 Q116.594 672.133 114.788 671.694 Q113.006 671.254 111.246 671.254 Q106.617 671.254 104.163 674.379 Q101.733 677.504 101.385 683.823 Q102.751 681.809 104.811 680.744 Q106.871 679.657 109.348 679.657 Q114.557 679.657 117.566 682.828 Q120.598 685.976 120.598 691.416 Q120.598 696.74 117.45 699.957 Q114.302 703.175 109.071 703.175 Q103.075 703.175 99.9039 698.592 Q96.7326 693.985 96.7326 685.258 Q96.7326 677.064 100.621 672.203 Q104.51 667.319 111.061 667.319 Q112.82 667.319 114.603 667.666 Q116.408 668.013 118.353 668.708 Z" fill="#000000" fill-rule="evenodd" fill-opacity="1" /><path clip-path="url(#clip590)" d="M63.5152 372.258 Q59.9041 372.258 58.0754 375.822 Q56.2699 379.364 56.2699 386.494 Q56.2699 393.6 58.0754 397.165 Q59.9041 400.707 63.5152 400.707 Q67.1494 400.707 68.955 397.165 Q70.7837 393.6 70.7837 386.494 Q70.7837 379.364 68.955 375.822 Q67.1494 372.258 63.5152 372.258 M63.5152 368.554 Q69.3254 368.554 72.3809 373.16 Q75.4596 377.744 75.4596 386.494 Q75.4596 395.22 72.3809 399.827 Q69.3254 404.41 63.5152 404.41 Q57.7051 404.41 54.6264 399.827 Q51.5708 395.22 51.5708 386.494 Q51.5708 377.744 54.6264 373.16 Q57.7051 368.554 63.5152 368.554 Z" fill="#000000" fill-rule="evenodd" fill-opacity="1" /><path clip-path="url(#clip590)" d="M83.6771 397.859 L88.5614 397.859 L88.5614 403.739 L83.6771 403.739 L83.6771 397.859 Z" fill="#000000" fill-rule="evenodd" fill-opacity="1" /><path clip-path="url(#clip590)" d="M108.746 387.327 Q105.413 387.327 103.492 389.109 Q101.594 390.892 101.594 394.017 Q101.594 397.142 103.492 398.924 Q105.413 400.707 108.746 400.707 Q112.08 400.707 114.001 398.924 Q115.922 397.119 115.922 394.017 Q115.922 390.892 114.001 389.109 Q112.103 387.327 108.746 387.327 M104.071 385.336 Q101.061 384.595 99.3715 382.535 Q97.7048 380.475 97.7048 377.512 Q97.7048 373.369 100.645 370.961 Q103.608 368.554 108.746 368.554 Q113.908 368.554 116.848 370.961 Q119.788 373.369 119.788 377.512 Q119.788 380.475 118.098 382.535 Q116.432 384.595 113.445 385.336 Q116.825 386.123 118.7 388.415 Q120.598 390.707 120.598 394.017 Q120.598 399.04 117.52 401.725 Q114.464 404.41 108.746 404.41 Q103.029 404.41 99.9502 401.725 Q96.8947 399.04 96.8947 394.017 Q96.8947 390.707 98.7928 388.415 Q100.691 386.123 104.071 385.336 M102.358 377.952 Q102.358 380.637 104.024 382.142 Q105.714 383.646 108.746 383.646 Q111.756 383.646 113.445 382.142 Q115.158 380.637 115.158 377.952 Q115.158 375.267 113.445 373.762 Q111.756 372.258 108.746 372.258 Q105.714 372.258 104.024 373.762 Q102.358 375.267 102.358 377.952 Z" fill="#000000" fill-rule="evenodd" fill-opacity="1" /><path clip-path="url(#clip590)" d="M54.2328 101.039 L61.8717 101.039 L61.8717 74.6734 L53.5616 76.3401 L53.5616 72.0808 L61.8254 70.4142 L66.5013 70.4142 L66.5013 101.039 L74.1402 101.039 L74.1402 104.974 L54.2328 104.974 L54.2328 101.039 Z" fill="#000000" fill-rule="evenodd" fill-opacity="1" /><path clip-path="url(#clip590)" d="M83.5845 99.0946 L88.4688 99.0946 L88.4688 104.974 L83.5845 104.974 L83.5845 99.0946 Z" fill="#000000" fill-rule="evenodd" fill-opacity="1" /><path clip-path="url(#clip590)" d="M108.654 73.4928 Q105.043 73.4928 103.214 77.0576 Q101.409 80.5993 101.409 87.7289 Q101.409 94.8353 103.214 98.4001 Q105.043 101.942 108.654 101.942 Q112.288 101.942 114.094 98.4001 Q115.922 94.8353 115.922 87.7289 Q115.922 80.5993 114.094 77.0576 Q112.288 73.4928 108.654 73.4928 M108.654 69.7892 Q114.464 69.7892 117.52 74.3956 Q120.598 78.9789 120.598 87.7289 Q120.598 96.4557 117.52 101.062 Q114.464 105.645 108.654 105.645 Q102.844 105.645 99.765 101.062 Q96.7095 96.4557 96.7095 87.7289 Q96.7095 78.9789 99.765 74.3956 Q102.844 69.7892 108.654 69.7892 Z" fill="#000000" fill-rule="evenodd" fill-opacity="1" /><polyline clip-path="url(#clip592)" style="stroke:#009af9; stroke-linecap:round; stroke-linejoin:round; stroke-width:16; stroke-opacity:1; fill:none" points="
  156.598,1445.72 163.747,1444.09 170.896,1442.44 237,1425.74 303.104,1405.97 342.829,1392.32 382.555,1377.11 416.142,1362.85 449.73,1347.14 486.215,1328.22 
  522.701,1307.1 556.337,1285.39 589.973,1261.25 626.035,1232.29 662.097,1199.68 682.987,1178.93 703.878,1156.66 724.768,1132.76 745.659,1107.11 764.224,1082.73 
  782.789,1056.77 801.354,1029.13 819.919,999.715 836.198,972.385 852.478,943.561 868.758,913.19 885.038,881.229 902.787,844.534 920.537,805.891 938.286,765.309 
  956.035,722.832 973.89,678.284 991.745,632.063 1009.6,584.389 1027.45,535.56 1066.94,425.588 1106.42,318.022 1115.81,293.662 1125.2,270.031 1134.59,247.262 
  1143.98,225.491 1153.38,204.857 1162.77,185.497 1172.16,167.544 1181.55,151.131 1191.31,135.83 1201.08,122.455 1210.84,111.123 1220.61,101.935 1230.37,94.9754 
  1240.14,90.3078 1249.9,87.9763 1259.67,88.0029 1267.89,89.8538 1276.11,93.3634 1284.33,98.5085 1292.55,105.255 1300.77,113.559 1308.99,123.367 1317.21,134.617 
  1325.43,147.24 1335.47,164.401 1345.5,183.346 1355.54,203.917 1365.57,225.949 1375.61,249.276 1385.64,273.728 1395.68,299.141 1405.72,325.352 1442.49,425.785 
  1479.26,528.272 1496.24,574.868 1513.22,620.481 1530.21,664.839 1547.19,707.735 1564.39,749.544 1581.59,789.601 1598.79,827.849 1615.99,864.267 1635.27,902.916 
  1654.55,939.32 1673.83,973.545 1693.11,1005.68 1710.58,1033.07 1728.05,1058.9 1745.52,1083.26 1762.98,1106.21 1782.99,1130.86 1802.99,1153.9 1822.99,1175.43 
  1842.99,1195.56 1861.51,1213.04 1880.03,1229.47 1898.55,1244.93 1917.07,1259.49 1953.58,1285.77 1990.1,1309.19 2025.55,1329.54 2061,1347.82 2097.35,1364.68 
  2133.69,1379.87 2173.51,1394.83 2213.33,1408.26 2271.18,1425.41 2329.02,1440.22 2340.89,1443.01 2352.76,1445.72 
  "/>
<circle clip-path="url(#clip592)" cx="156.598" cy="1445.72" r="14.4" fill="#e26f46" fill-rule="evenodd" fill-opacity="1" stroke="#000000" stroke-opacity="1" stroke-width="3.2"/>
<circle clip-path="url(#clip592)" cx="171.575" cy="1442.29" r="14.4" fill="#e26f46" fill-rule="evenodd" fill-opacity="1" stroke="#000000" stroke-opacity="1" stroke-width="3.2"/>
<circle clip-path="url(#clip592)" cx="216.095" cy="1431.32" r="14.4" fill="#e26f46" fill-rule="evenodd" fill-opacity="1" stroke="#000000" stroke-opacity="1" stroke-width="3.2"/>
<circle clip-path="url(#clip592)" cx="288.946" cy="1410.5" r="14.4" fill="#e26f46" fill-rule="evenodd" fill-opacity="1" stroke="#000000" stroke-opacity="1" stroke-width="3.2"/>
<circle clip-path="url(#clip592)" cx="388.139" cy="1374.83" r="14.4" fill="#e26f46" fill-rule="evenodd" fill-opacity="1" stroke="#000000" stroke-opacity="1" stroke-width="3.2"/>
<circle clip-path="url(#clip592)" cx="510.969" cy="1314.15" r="14.4" fill="#e26f46" fill-rule="evenodd" fill-opacity="1" stroke="#000000" stroke-opacity="1" stroke-width="3.2"/>
<circle clip-path="url(#clip592)" cx="654.085" cy="1207.27" r="14.4" fill="#e26f46" fill-rule="evenodd" fill-opacity="1" stroke="#000000" stroke-opacity="1" stroke-width="3.2"/>
<circle clip-path="url(#clip592)" cx="813.584" cy="1009.96" r="14.4" fill="#e26f46" fill-rule="evenodd" fill-opacity="1" stroke="#000000" stroke-opacity="1" stroke-width="3.2"/>
<circle clip-path="url(#clip592)" cx="985.115" cy="649.411" r="14.4" fill="#e26f46" fill-rule="evenodd" fill-opacity="1" stroke="#000000" stroke-opacity="1" stroke-width="3.2"/>
<circle clip-path="url(#clip592)" cx="1164" cy="183.06" r="14.4" fill="#e26f46" fill-rule="evenodd" fill-opacity="1" stroke="#000000" stroke-opacity="1" stroke-width="3.2"/>
<circle clip-path="url(#clip592)" cx="1345.36" cy="183.06" r="14.4" fill="#e26f46" fill-rule="evenodd" fill-opacity="1" stroke="#000000" stroke-opacity="1" stroke-width="3.2"/>
<circle clip-path="url(#clip592)" cx="1524.24" cy="649.411" r="14.4" fill="#e26f46" fill-rule="evenodd" fill-opacity="1" stroke="#000000" stroke-opacity="1" stroke-width="3.2"/>
<circle clip-path="url(#clip592)" cx="1695.77" cy="1009.96" r="14.4" fill="#e26f46" fill-rule="evenodd" fill-opacity="1" stroke="#000000" stroke-opacity="1" stroke-width="3.2"/>
<circle clip-path="url(#clip592)" cx="1855.27" cy="1207.27" r="14.4" fill="#e26f46" fill-rule="evenodd" fill-opacity="1" stroke="#000000" stroke-opacity="1" stroke-width="3.2"/>
<circle clip-path="url(#clip592)" cx="1998.39" cy="1314.15" r="14.4" fill="#e26f46" fill-rule="evenodd" fill-opacity="1" stroke="#000000" stroke-opacity="1" stroke-width="3.2"/>
<circle clip-path="url(#clip592)" cx="2121.22" cy="1374.83" r="14.4" fill="#e26f46" fill-rule="evenodd" fill-opacity="1" stroke="#000000" stroke-opacity="1" stroke-width="3.2"/>
<circle clip-path="url(#clip592)" cx="2220.41" cy="1410.5" r="14.4" fill="#e26f46" fill-rule="evenodd" fill-opacity="1" stroke="#000000" stroke-opacity="1" stroke-width="3.2"/>
<circle clip-path="url(#clip592)" cx="2293.26" cy="1431.32" r="14.4" fill="#e26f46" fill-rule="evenodd" fill-opacity="1" stroke="#000000" stroke-opacity="1" stroke-width="3.2"/>
<circle clip-path="url(#clip592)" cx="2337.78" cy="1442.29" r="14.4" fill="#e26f46" fill-rule="evenodd" fill-opacity="1" stroke="#000000" stroke-opacity="1" stroke-width="3.2"/>
<circle clip-path="url(#clip592)" cx="2352.76" cy="1445.72" r="14.4" fill="#e26f46" fill-rule="evenodd" fill-opacity="1" stroke="#000000" stroke-opacity="1" stroke-width="3.2"/>
<path clip-path="url(#clip590)" d="
M1956.89 328.498 L2279.55 328.498 L2279.55 95.2176 L1956.89 95.2176  Z
  " fill="#ffffff" fill-rule="evenodd" fill-opacity="1"/>
<polyline clip-path="url(#clip590)" style="stroke:#000000; stroke-linecap:round; stroke-linejoin:round; stroke-width:4; stroke-opacity:1; fill:none" points="
  1956.89,328.498 2279.55,328.498 2279.55,95.2176 1956.89,95.2176 1956.89,328.498 
  "/>
<polyline clip-path="url(#clip590)" style="stroke:#009af9; stroke-linecap:round; stroke-linejoin:round; stroke-width:6; stroke-opacity:1; fill:none" points="
  1981.29,172.978 2127.7,172.978 
  "/>
<path clip-path="url(#clip590)" d="M2172.87 202.509 Q2170.16 209.453 2167.59 211.571 Q2165.02 213.689 2160.71 213.689 L2155.61 213.689 L2155.61 208.342 L2159.36 208.342 Q2162 208.342 2163.46 207.092 Q2164.91 205.842 2166.68 201.189 L2167.83 198.273 L2152.1 160.009 L2158.87 160.009 L2171.03 190.425 L2183.18 160.009 L2189.95 160.009 L2172.87 202.509 Z" fill="#000000" fill-rule="evenodd" fill-opacity="1" /><path clip-path="url(#clip590)" d="M2200.89 192.995 L2212.34 192.995 L2212.34 153.446 L2199.88 155.946 L2199.88 149.558 L2212.28 147.058 L2219.29 147.058 L2219.29 192.995 L2230.75 192.995 L2230.75 198.898 L2200.89 198.898 L2200.89 192.995 Z" fill="#000000" fill-rule="evenodd" fill-opacity="1" /><circle clip-path="url(#clip590)" cx="2054.49" cy="250.738" r="34.56" fill="#e26f46" fill-rule="evenodd" fill-opacity="1" stroke="#000000" stroke-opacity="1" stroke-width="7.68"/>
<path clip-path="url(#clip590)" d="M2172.87 280.269 Q2170.16 287.213 2167.59 289.331 Q2165.02 291.449 2160.71 291.449 L2155.61 291.449 L2155.61 286.102 L2159.36 286.102 Q2162 286.102 2163.46 284.852 Q2164.91 283.602 2166.68 278.949 L2167.83 276.033 L2152.1 237.769 L2158.87 237.769 L2171.03 268.185 L2183.18 237.769 L2189.95 237.769 L2172.87 280.269 Z" fill="#000000" fill-rule="evenodd" fill-opacity="1" /><path clip-path="url(#clip590)" d="M2205.71 270.755 L2230.19 270.755 L2230.19 276.658 L2197.28 276.658 L2197.28 270.755 Q2201.27 266.623 2208.14 259.678 Q2215.05 252.699 2216.82 250.685 Q2220.19 246.901 2221.51 244.297 Q2222.87 241.658 2222.87 239.123 Q2222.87 234.991 2219.95 232.387 Q2217.07 229.783 2212.41 229.783 Q2209.12 229.783 2205.43 230.929 Q2201.79 232.074 2197.62 234.401 L2197.62 227.318 Q2201.86 225.616 2205.54 224.748 Q2209.22 223.88 2212.28 223.88 Q2220.33 223.88 2225.12 227.908 Q2229.91 231.936 2229.91 238.672 Q2229.91 241.866 2228.7 244.748 Q2227.52 247.595 2224.36 251.484 Q2223.49 252.491 2218.84 257.317 Q2214.18 262.109 2205.71 270.755 Z" fill="#000000" fill-rule="evenodd" fill-opacity="1" /></svg>
