<?xml version="1.0" encoding="utf-8"?>
<svg xmlns="http://www.w3.org/2000/svg" xmlns:xlink="http://www.w3.org/1999/xlink" width="600" height="400" viewBox="0 0 2400 1600">
<defs>
  <clipPath id="clip370">
    <rect x="0" y="0" width="2400" height="1600"/>
  </clipPath>
</defs>
<path clip-path="url(#clip370)" d="
M0 1600 L2400 1600 L2400 0 L0 0  Z
  " fill="#ffffff" fill-rule="evenodd" fill-opacity="1"/>
<defs>
  <clipPath id="clip371">
    <rect x="480" y="0" width="1681" height="1600"/>
  </clipPath>
</defs>
<path clip-path="url(#clip370)" d="
M112.177 1486.45 L2352.76 1486.45 L2352.76 47.2441 L112.177 47.2441  Z
  " fill="#ffffff" fill-rule="evenodd" fill-opacity="1"/>
<defs>
  <clipPath id="clip372">
    <rect x="112" y="47" width="2242" height="1440"/>
  </clipPath>
</defs>
<polyline clip-path="url(#clip372)" style="stroke:#000000; stroke-linecap:butt; stroke-linejoin:round; stroke-width:2; stroke-opacity:0.1; fill:none" points="
  112.177,1486.45 112.177,47.2441 
  "/>
<polyline clip-path="url(#clip372)" style="stroke:#000000; stroke-linecap:butt; stroke-linejoin:round; stroke-width:2; stroke-opacity:0.1; fill:none" points="
  672.322,1486.45 672.322,47.2441 
  "/>
<polyline clip-path="url(#clip372)" style="stroke:#000000; stroke-linecap:butt; stroke-linejoin:round; stroke-width:2; stroke-opacity:0.1; fill:none" points="
  1232.47,1486.45 1232.47,47.2441 
  "/>
<polyline clip-path="url(#clip372)" style="stroke:#000000; stroke-linecap:butt; stroke-linejoin:round; stroke-width:2; stroke-opacity:0.1; fill:none" points="
  1792.61,1486.45 1792.61,47.2441 
  "/>
<polyline clip-path="url(#clip372)" style="stroke:#000000; stroke-linecap:butt; stroke-linejoin:round; stroke-width:2; stroke-opacity:0.1; fill:none" points="
  2352.76,1486.45 2352.76,47.2441 
  "/>
<polyline clip-path="url(#clip370)" style="stroke:#000000; stroke-linecap:butt; stroke-linejoin:round; stroke-width:4; stroke-opacity:1; fill:none" points="
  112.177,1486.45 2352.76,1486.45 
  "/>
<polyline clip-path="url(#clip370)" style="stroke:#000000; stroke-linecap:butt; stroke-linejoin:round; stroke-width:4; stroke-opacity:1; fill:none" points="
  112.177,1486.45 112.177,1467.55 
  "/>
<polyline clip-path="url(#clip370)" style="stroke:#000000; stroke-linecap:butt; stroke-linejoin:round; stroke-width:4; stroke-opacity:1; fill:none" points="
  672.322,1486.45 672.322,1467.55 
  "/>
<polyline clip-path="url(#clip370)" style="stroke:#000000; stroke-linecap:butt; stroke-linejoin:round; stroke-width:4; stroke-opacity:1; fill:none" points="
  1232.47,1486.45 1232.47,1467.55 
  "/>
<polyline clip-path="url(#clip370)" style="stroke:#000000; stroke-linecap:butt; stroke-linejoin:round; stroke-width:4; stroke-opacity:1; fill:none" points="
  1792.61,1486.45 1792.61,1467.55 
  "/>
<polyline clip-path="url(#clip370)" style="stroke:#000000; stroke-linecap:butt; stroke-linejoin:round; stroke-width:4; stroke-opacity:1; fill:none" points="
  2352.76,1486.45 2352.76,1467.55 
  "/>
<path clip-path="url(#clip370)" d="M82.1195 1532.02 L111.795 1532.02 L111.795 1535.95 L82.1195 1535.95 L82.1195 1532.02 Z" fill="#000000" fill-rule="evenodd" fill-opacity="1" /><path clip-path="url(#clip370)" d="M125.916 1544.91 L142.235 1544.91 L142.235 1548.85 L120.291 1548.85 L120.291 1544.91 Q122.953 1542.16 127.536 1537.53 Q132.142 1532.88 133.323 1531.53 Q135.568 1529.01 136.448 1527.27 Q137.351 1525.51 137.351 1523.82 Q137.351 1521.07 135.406 1519.33 Q133.485 1517.6 130.383 1517.6 Q128.184 1517.6 125.73 1518.36 Q123.3 1519.13 120.522 1520.68 L120.522 1515.95 Q123.346 1514.82 125.8 1514.24 Q128.253 1513.66 130.291 1513.66 Q135.661 1513.66 138.855 1516.35 Q142.05 1519.03 142.05 1523.52 Q142.05 1525.65 141.24 1527.57 Q140.452 1529.47 138.346 1532.07 Q137.767 1532.74 134.665 1535.95 Q131.564 1539.15 125.916 1544.91 Z" fill="#000000" fill-rule="evenodd" fill-opacity="1" /><path clip-path="url(#clip370)" d="M642.079 1532.02 L671.755 1532.02 L671.755 1535.95 L642.079 1535.95 L642.079 1532.02 Z" fill="#000000" fill-rule="evenodd" fill-opacity="1" /><path clip-path="url(#clip370)" d="M682.657 1544.91 L690.296 1544.91 L690.296 1518.55 L681.986 1520.21 L681.986 1515.95 L690.25 1514.29 L694.926 1514.29 L694.926 1544.91 L702.565 1544.91 L702.565 1548.85 L682.657 1548.85 L682.657 1544.91 Z" fill="#000000" fill-rule="evenodd" fill-opacity="1" /><path clip-path="url(#clip370)" d="M1232.47 1517.37 Q1228.86 1517.37 1227.03 1520.93 Q1225.22 1524.47 1225.22 1531.6 Q1225.22 1538.71 1227.03 1542.27 Q1228.86 1545.82 1232.47 1545.82 Q1236.1 1545.82 1237.91 1542.27 Q1239.74 1538.71 1239.74 1531.6 Q1239.74 1524.47 1237.91 1520.93 Q1236.1 1517.37 1232.47 1517.37 M1232.47 1513.66 Q1238.28 1513.66 1241.33 1518.27 Q1244.41 1522.85 1244.41 1531.6 Q1244.41 1540.33 1241.33 1544.94 Q1238.28 1549.52 1232.47 1549.52 Q1226.66 1549.52 1223.58 1544.94 Q1220.52 1540.33 1220.52 1531.6 Q1220.52 1522.85 1223.58 1518.27 Q1226.66 1513.66 1232.47 1513.66 Z" fill="#000000" fill-rule="evenodd" fill-opacity="1" /><path clip-path="url(#clip370)" d="M1782.99 1544.91 L1790.63 1544.91 L1790.63 1518.55 L1782.32 1520.21 L1782.32 1515.95 L1790.59 1514.29 L1795.26 1514.29 L1795.26 1544.91 L1802.9 1544.91 L1802.9 1548.85 L1782.99 1548.85 L1782.99 1544.91 Z" fill="#000000" fill-rule="evenodd" fill-opacity="1" /><path clip-path="url(#clip370)" d="M2347.41 1544.91 L2363.73 1544.91 L2363.73 1548.85 L2341.78 1548.85 L2341.78 1544.91 Q2344.45 1542.16 2349.03 1537.53 Q2353.64 1532.88 2354.82 1531.53 Q2357.06 1529.01 2357.94 1527.27 Q2358.84 1525.51 2358.84 1523.82 Q2358.84 1521.07 2356.9 1519.33 Q2354.98 1517.6 2351.88 1517.6 Q2349.68 1517.6 2347.22 1518.36 Q2344.79 1519.13 2342.02 1520.68 L2342.02 1515.95 Q2344.84 1514.82 2347.29 1514.24 Q2349.75 1513.66 2351.78 1513.66 Q2357.15 1513.66 2360.35 1516.35 Q2363.54 1519.03 2363.54 1523.52 Q2363.54 1525.65 2362.73 1527.57 Q2361.95 1529.47 2359.84 1532.07 Q2359.26 1532.74 2356.16 1535.95 Q2353.06 1539.15 2347.41 1544.91 Z" fill="#000000" fill-rule="evenodd" fill-opacity="1" /><polyline clip-path="url(#clip372)" style="stroke:#000000; stroke-linecap:butt; stroke-linejoin:round; stroke-width:2; stroke-opacity:0.1; fill:none" points="
  112.177,1471.05 2352.76,1471.05 
  "/>
<polyline clip-path="url(#clip372)" style="stroke:#000000; stroke-linecap:butt; stroke-linejoin:round; stroke-width:2; stroke-opacity:0.1; fill:none" points="
  112.177,1096.69 2352.76,1096.69 
  "/>
<polyline clip-path="url(#clip372)" style="stroke:#000000; stroke-linecap:butt; stroke-linejoin:round; stroke-width:2; stroke-opacity:0.1; fill:none" points="
  112.177,722.334 2352.76,722.334 
  "/>
<polyline clip-path="url(#clip372)" style="stroke:#000000; stroke-linecap:butt; stroke-linejoin:round; stroke-width:2; stroke-opacity:0.1; fill:none" points="
  112.177,347.977 2352.76,347.977 
  "/>
<polyline clip-path="url(#clip370)" style="stroke:#000000; stroke-linecap:butt; stroke-linejoin:round; stroke-width:4; stroke-opacity:1; fill:none" points="
  112.177,1486.45 112.177,47.2441 
  "/>
<polyline clip-path="url(#clip370)" style="stroke:#000000; stroke-linecap:butt; stroke-linejoin:round; stroke-width:4; stroke-opacity:1; fill:none" points="
  112.177,1471.05 131.075,1471.05 
  "/>
<polyline clip-path="url(#clip370)" style="stroke:#000000; stroke-linecap:butt; stroke-linejoin:round; stroke-width:4; stroke-opacity:1; fill:none" points="
  112.177,1096.69 131.075,1096.69 
  "/>
<polyline clip-path="url(#clip370)" style="stroke:#000000; stroke-linecap:butt; stroke-linejoin:round; stroke-width:4; stroke-opacity:1; fill:none" points="
  112.177,722.334 131.075,722.334 
  "/>
<polyline clip-path="url(#clip370)" style="stroke:#000000; stroke-linecap:butt; stroke-linejoin:round; stroke-width:4; stroke-opacity:1; fill:none" points="
  112.177,347.977 131.075,347.977 
  "/>
<path clip-path="url(#clip370)" d="M64.2328 1456.85 Q60.6217 1456.85 58.793 1460.41 Q56.9875 1463.95 56.9875 1471.08 Q56.9875 1478.19 58.793 1481.75 Q60.6217 1485.3 64.2328 1485.3 Q67.867 1485.3 69.6726 1481.75 Q71.5013 1478.19 71.5013 1471.08 Q71.5013 1463.95 69.6726 1460.41 Q67.867 1456.85 64.2328 1456.85 M64.2328 1453.14 Q70.0429 1453.14 73.0985 1457.75 Q76.1772 1462.33 76.1772 1471.08 Q76.1772 1479.81 73.0985 1484.42 Q70.0429 1489 64.2328 1489 Q58.4226 1489 55.344 1484.42 Q52.2884 1479.81 52.2884 1471.08 Q52.2884 1462.33 55.344 1457.75 Q58.4226 1453.14 64.2328 1453.14 Z" fill="#000000" fill-rule="evenodd" fill-opacity="1" /><path clip-path="url(#clip370)" d="M59.8578 1110.04 L76.1772 1110.04 L76.1772 1113.97 L54.2328 1113.97 L54.2328 1110.04 Q56.8949 1107.28 61.4782 1102.65 Q66.0846 1098 67.2652 1096.66 Q69.5105 1094.13 70.3902 1092.4 Q71.2929 1090.64 71.2929 1088.95 Q71.2929 1086.19 69.3485 1084.46 Q67.4272 1082.72 64.3254 1082.72 Q62.1263 1082.72 59.6726 1083.48 Q57.2421 1084.25 54.4643 1085.8 L54.4643 1081.08 Q57.2884 1079.94 59.7421 1079.36 Q62.1958 1078.79 64.2328 1078.79 Q69.6031 1078.79 72.7976 1081.47 Q75.992 1084.16 75.992 1088.65 Q75.992 1090.78 75.1818 1092.7 Q74.3948 1094.6 72.2883 1097.19 Q71.7096 1097.86 68.6078 1101.08 Q65.5059 1104.27 59.8578 1110.04 Z" fill="#000000" fill-rule="evenodd" fill-opacity="1" /><path clip-path="url(#clip370)" d="M66.5939 709.128 L54.7884 727.577 L66.5939 727.577 L66.5939 709.128 M65.367 705.054 L71.2466 705.054 L71.2466 727.577 L76.1772 727.577 L76.1772 731.466 L71.2466 731.466 L71.2466 739.614 L66.5939 739.614 L66.5939 731.466 L50.9921 731.466 L50.9921 726.952 L65.367 705.054 Z" fill="#000000" fill-rule="evenodd" fill-opacity="1" /><path clip-path="url(#clip370)" d="M64.6495 346.114 Q61.5013 346.114 59.6495 348.267 Q57.8208 350.42 57.8208 354.17 Q57.8208 357.896 59.6495 360.072 Q61.5013 362.225 64.6495 362.225 Q67.7976 362.225 69.6263 360.072 Q71.4781 357.896 71.4781 354.17 Q71.4781 350.42 69.6263 348.267 Q67.7976 346.114 64.6495 346.114 M73.9318 331.461 L73.9318 335.721 Q72.1726 334.887 70.367 334.447 Q68.5846 334.008 66.8254 334.008 Q62.1958 334.008 59.7421 337.133 Q57.3115 340.258 56.9643 346.577 Q58.33 344.563 60.3902 343.498 Q62.4504 342.41 64.9272 342.41 Q70.1355 342.41 73.1448 345.582 Q76.1772 348.73 76.1772 354.17 Q76.1772 359.494 73.029 362.711 Q69.8809 365.929 64.6495 365.929 Q58.6541 365.929 55.4828 361.345 Q52.3116 356.739 52.3116 348.012 Q52.3116 339.818 56.2004 334.957 Q60.0893 330.072 66.6402 330.072 Q68.3994 330.072 70.1818 330.42 Q71.9874 330.767 73.9318 331.461 Z" fill="#000000" fill-rule="evenodd" fill-opacity="1" /><polyline clip-path="url(#clip372)" style="stroke:#009af9; stroke-linecap:butt; stroke-linejoin:round; stroke-width:16; stroke-opacity:1; fill:none" points="
  112.177,1445.72 134.058,1444.71 336.381,1433.25 457.968,1424.08 560.768,1414.62 672.438,1402.17 775.388,1388.28 885.762,1370.25 1013.64,1344.4 1127.28,1315.91 
  1226.94,1285.71 1335.59,1246.03 1444.88,1197.55 1565.72,1131.7 1680.7,1054.39 1740.48,1007.46 1800.25,955.257 1850.57,906.778 1900.89,853.744 1962.32,782.191 
  2023.75,702.345 2081.5,618.866 2139.25,526.323 2185.51,444.992 2231.76,356.661 2278.02,260.725 2324.28,156.53 2331.4,139.717 2338.52,122.689 2345.64,105.443 
  2352.76,87.9763 
  "/>
<path clip-path="url(#clip370)" d="
M1976.69 198.898 L2278.07 198.898 L2278.07 95.2176 L1976.69 95.2176  Z
  " fill="#ffffff" fill-rule="evenodd" fill-opacity="1"/>
<polyline clip-path="url(#clip370)" style="stroke:#000000; stroke-linecap:butt; stroke-linejoin:round; stroke-width:4; stroke-opacity:1; fill:none" points="
  1976.69,198.898 2278.07,198.898 2278.07,95.2176 1976.69,95.2176 1976.69,198.898 
  "/>
<polyline clip-path="url(#clip370)" style="stroke:#009af9; stroke-linecap:butt; stroke-linejoin:round; stroke-width:4; stroke-opacity:1; fill:none" points="
  2001.58,147.058 2150.95,147.058 
  "/>
<path clip-path="url(#clip370)" d="M2189.69 166.745 Q2187.89 171.375 2186.17 172.787 Q2184.46 174.199 2181.59 174.199 L2178.19 174.199 L2178.19 170.634 L2180.69 170.634 Q2182.45 170.634 2183.42 169.8 Q2184.39 168.967 2185.57 165.865 L2186.34 163.921 L2175.85 138.412 L2180.36 138.412 L2188.46 158.689 L2196.57 138.412 L2201.08 138.412 L2189.69 166.745 Z" fill="#000000" fill-rule="evenodd" fill-opacity="1" /><path clip-path="url(#clip370)" d="M2208.37 160.402 L2216.01 160.402 L2216.01 134.037 L2207.7 135.703 L2207.7 131.444 L2215.96 129.778 L2220.64 129.778 L2220.64 160.402 L2228.28 160.402 L2228.28 164.338 L2208.37 164.338 L2208.37 160.402 Z" fill="#000000" fill-rule="evenodd" fill-opacity="1" /></svg>
