<?xml version="1.0" encoding="utf-8"?>
<svg xmlns="http://www.w3.org/2000/svg" xmlns:xlink="http://www.w3.org/1999/xlink" width="600" height="400" viewBox="0 0 2400 1600">
<defs>
  <clipPath id="clip770">
    <rect x="0" y="0" width="2400" height="1600"/>
  </clipPath>
</defs>
<path clip-path="url(#clip770)" d="
M0 1600 L2400 1600 L2400 0 L0 0  Z
  " fill="#ffffff" fill-rule="evenodd" fill-opacity="1"/>
<defs>
  <clipPath id="clip771">
    <rect x="480" y="0" width="1681" height="1600"/>
  </clipPath>
</defs>
<path clip-path="url(#clip770)" d="
M210.186 1469.17 L2352.76 1469.17 L2352.76 47.2441 L210.186 47.2441  Z
  " fill="#ffffff" fill-rule="evenodd" fill-opacity="1"/>
<defs>
  <clipPath id="clip772">
    <rect x="210" y="47" width="2144" height="1423"/>
  </clipPath>
</defs>
<polyline clip-path="url(#clip772)" style="stroke:#000000; stroke-linecap:round; stroke-linejoin:round; stroke-width:2; stroke-opacity:0.1; fill:none" points="
  210.186,1469.17 210.186,47.2441 
  "/>
<polyline clip-path="url(#clip772)" style="stroke:#000000; stroke-linecap:round; stroke-linejoin:round; stroke-width:2; stroke-opacity:0.1; fill:none" points="
  924.376,1469.17 924.376,47.2441 
  "/>
<polyline clip-path="url(#clip772)" style="stroke:#000000; stroke-linecap:round; stroke-linejoin:round; stroke-width:2; stroke-opacity:0.1; fill:none" points="
  1638.57,1469.17 1638.57,47.2441 
  "/>
<polyline clip-path="url(#clip772)" style="stroke:#000000; stroke-linecap:round; stroke-linejoin:round; stroke-width:2; stroke-opacity:0.1; fill:none" points="
  2352.76,1469.17 2352.76,47.2441 
  "/>
<polyline clip-path="url(#clip770)" style="stroke:#000000; stroke-linecap:round; stroke-linejoin:round; stroke-width:4; stroke-opacity:1; fill:none" points="
  210.186,1469.17 2352.76,1469.17 
  "/>
<polyline clip-path="url(#clip770)" style="stroke:#000000; stroke-linecap:round; stroke-linejoin:round; stroke-width:4; stroke-opacity:1; fill:none" points="
  210.186,1469.17 210.186,1450.27 
  "/>
<polyline clip-path="url(#clip770)" style="stroke:#000000; stroke-linecap:round; stroke-linejoin:round; stroke-width:4; stroke-opacity:1; fill:none" points="
  924.376,1469.17 924.376,1450.27 
  "/>
<polyline clip-path="url(#clip770)" style="stroke:#000000; stroke-linecap:round; stroke-linejoin:round; stroke-width:4; stroke-opacity:1; fill:none" points="
  1638.57,1469.17 1638.57,1450.27 
  "/>
<polyline clip-path="url(#clip770)" style="stroke:#000000; stroke-linecap:round; stroke-linejoin:round; stroke-width:4; stroke-opacity:1; fill:none" points="
  2352.76,1469.17 2352.76,1450.27 
  "/>
<path clip-path="url(#clip770)" d="M164.822 1527.92 L209.335 1527.92 L209.335 1533.83 L164.822 1533.83 L164.822 1527.92 Z" fill="#000000" fill-rule="evenodd" fill-opacity="1" /><path clip-path="url(#clip770)" d="M225.689 1547.27 L237.148 1547.27 L237.148 1507.72 L224.682 1510.22 L224.682 1503.83 L237.078 1501.33 L244.092 1501.33 L244.092 1547.27 L255.55 1547.27 L255.55 1553.17 L225.689 1553.17 L225.689 1547.27 Z" fill="#000000" fill-rule="evenodd" fill-opacity="1" /><path clip-path="url(#clip770)" d="M924.376 1505.95 Q918.959 1505.95 916.216 1511.29 Q913.508 1516.61 913.508 1527.3 Q913.508 1537.96 916.216 1543.31 Q918.959 1548.62 924.376 1548.62 Q929.827 1548.62 932.536 1543.31 Q935.279 1537.96 935.279 1527.3 Q935.279 1516.61 932.536 1511.29 Q929.827 1505.95 924.376 1505.95 M924.376 1500.39 Q933.091 1500.39 937.674 1507.3 Q942.292 1514.18 942.292 1527.3 Q942.292 1540.39 937.674 1547.3 Q933.091 1554.17 924.376 1554.17 Q915.661 1554.17 911.043 1547.3 Q906.459 1540.39 906.459 1527.3 Q906.459 1514.18 911.043 1507.3 Q915.661 1500.39 924.376 1500.39 Z" fill="#000000" fill-rule="evenodd" fill-opacity="1" /><path clip-path="url(#clip770)" d="M1624.14 1547.27 L1635.6 1547.27 L1635.6 1507.72 L1623.13 1510.22 L1623.13 1503.83 L1635.53 1501.33 L1642.54 1501.33 L1642.54 1547.27 L1654 1547.27 L1654 1553.17 L1624.14 1553.17 L1624.14 1547.27 Z" fill="#000000" fill-rule="evenodd" fill-opacity="1" /><path clip-path="url(#clip770)" d="M2344.74 1547.27 L2369.21 1547.27 L2369.21 1553.17 L2336.3 1553.17 L2336.3 1547.27 Q2340.29 1543.13 2347.17 1536.19 Q2354.08 1529.21 2355.85 1527.2 Q2359.21 1523.41 2360.53 1520.81 Q2361.89 1518.17 2361.89 1515.63 Q2361.89 1511.5 2358.97 1508.9 Q2356.09 1506.29 2351.44 1506.29 Q2348.14 1506.29 2344.46 1507.44 Q2340.81 1508.58 2336.64 1510.91 L2336.64 1503.83 Q2340.88 1502.13 2344.56 1501.26 Q2348.24 1500.39 2351.3 1500.39 Q2359.35 1500.39 2364.14 1504.42 Q2368.94 1508.45 2368.94 1515.18 Q2368.94 1518.38 2367.72 1521.26 Q2366.54 1524.11 2363.38 1527.99 Q2362.51 1529 2357.86 1533.83 Q2353.21 1538.62 2344.74 1547.27 Z" fill="#000000" fill-rule="evenodd" fill-opacity="1" /><polyline clip-path="url(#clip772)" style="stroke:#000000; stroke-linecap:round; stroke-linejoin:round; stroke-width:2; stroke-opacity:0.1; fill:none" points="
  210.186,1469.17 2352.76,1469.17 
  "/>
<polyline clip-path="url(#clip772)" style="stroke:#000000; stroke-linecap:round; stroke-linejoin:round; stroke-width:2; stroke-opacity:0.1; fill:none" points="
  210.186,1184.78 2352.76,1184.78 
  "/>
<polyline clip-path="url(#clip772)" style="stroke:#000000; stroke-linecap:round; stroke-linejoin:round; stroke-width:2; stroke-opacity:0.1; fill:none" points="
  210.186,900.398 2352.76,900.398 
  "/>
<polyline clip-path="url(#clip772)" style="stroke:#000000; stroke-linecap:round; stroke-linejoin:round; stroke-width:2; stroke-opacity:0.1; fill:none" points="
  210.186,616.014 2352.76,616.014 
  "/>
<polyline clip-path="url(#clip772)" style="stroke:#000000; stroke-linecap:round; stroke-linejoin:round; stroke-width:2; stroke-opacity:0.1; fill:none" points="
  210.186,331.629 2352.76,331.629 
  "/>
<polyline clip-path="url(#clip772)" style="stroke:#000000; stroke-linecap:round; stroke-linejoin:round; stroke-width:2; stroke-opacity:0.1; fill:none" points="
  210.186,47.2441 2352.76,47.2441 
  "/>
<polyline clip-path="url(#clip770)" style="stroke:#000000; stroke-linecap:round; stroke-linejoin:round; stroke-width:4; stroke-opacity:1; fill:none" points="
  210.186,1469.17 210.186,47.2441 
  "/>
<polyline clip-path="url(#clip770)" style="stroke:#000000; stroke-linecap:round; stroke-linejoin:round; stroke-width:4; stroke-opacity:1; fill:none" points="
  210.186,1469.17 229.084,1469.17 
  "/>
<polyline clip-path="url(#clip770)" style="stroke:#000000; stroke-linecap:round; stroke-linejoin:round; stroke-width:4; stroke-opacity:1; fill:none" points="
  210.186,1184.78 229.084,1184.78 
  "/>
<polyline clip-path="url(#clip770)" style="stroke:#000000; stroke-linecap:round; stroke-linejoin:round; stroke-width:4; stroke-opacity:1; fill:none" points="
  210.186,900.398 229.084,900.398 
  "/>
<polyline clip-path="url(#clip770)" style="stroke:#000000; stroke-linecap:round; stroke-linejoin:round; stroke-width:4; stroke-opacity:1; fill:none" points="
  210.186,616.014 229.084,616.014 
  "/>
<polyline clip-path="url(#clip770)" style="stroke:#000000; stroke-linecap:round; stroke-linejoin:round; stroke-width:4; stroke-opacity:1; fill:none" points="
  210.186,331.629 229.084,331.629 
  "/>
<polyline clip-path="url(#clip770)" style="stroke:#000000; stroke-linecap:round; stroke-linejoin:round; stroke-width:4; stroke-opacity:1; fill:none" points="
  210.186,47.2441 229.084,47.2441 
  "/>
<path clip-path="url(#clip770)" d="M156.269 1447.87 Q150.853 1447.87 148.11 1453.21 Q145.401 1458.53 145.401 1469.22 Q145.401 1479.88 148.11 1485.23 Q150.853 1490.54 156.269 1490.54 Q161.721 1490.54 164.429 1485.23 Q167.172 1479.88 167.172 1469.22 Q167.172 1458.53 164.429 1453.21 Q161.721 1447.87 156.269 1447.87 M156.269 1442.31 Q164.985 1442.31 169.568 1449.22 Q174.186 1456.1 174.186 1469.22 Q174.186 1482.31 169.568 1489.22 Q164.985 1496.09 156.269 1496.09 Q147.554 1496.09 142.936 1489.22 Q138.353 1482.31 138.353 1469.22 Q138.353 1456.1 142.936 1449.22 Q147.554 1442.31 156.269 1442.31 Z" fill="#000000" fill-rule="evenodd" fill-opacity="1" /><path clip-path="url(#clip770)" d="M102.068 1204.8 L126.547 1204.8 L126.547 1210.7 L93.6308 1210.7 L93.6308 1204.8 Q97.6238 1200.67 104.499 1193.72 Q111.408 1186.74 113.179 1184.73 Q116.547 1180.95 117.867 1178.34 Q119.221 1175.7 119.221 1173.17 Q119.221 1169.04 116.304 1166.43 Q113.422 1163.83 108.77 1163.83 Q105.471 1163.83 101.79 1164.97 Q98.1447 1166.12 93.978 1168.45 L93.978 1161.36 Q98.2141 1159.66 101.895 1158.79 Q105.575 1157.93 108.631 1157.93 Q116.686 1157.93 121.478 1161.95 Q126.27 1165.98 126.27 1172.72 Q126.27 1175.91 125.054 1178.79 Q123.874 1181.64 120.714 1185.53 Q119.846 1186.54 115.193 1191.36 Q110.54 1196.15 102.068 1204.8 Z" fill="#000000" fill-rule="evenodd" fill-opacity="1" /><path clip-path="url(#clip770)" d="M156.269 1163.48 Q150.853 1163.48 148.11 1168.83 Q145.401 1174.14 145.401 1184.84 Q145.401 1195.49 148.11 1200.84 Q150.853 1206.15 156.269 1206.15 Q161.721 1206.15 164.429 1200.84 Q167.172 1195.49 167.172 1184.84 Q167.172 1174.14 164.429 1168.83 Q161.721 1163.48 156.269 1163.48 M156.269 1157.93 Q164.985 1157.93 169.568 1164.84 Q174.186 1171.71 174.186 1184.84 Q174.186 1197.93 169.568 1204.84 Q164.985 1211.71 156.269 1211.71 Q147.554 1211.71 142.936 1204.84 Q138.353 1197.93 138.353 1184.84 Q138.353 1171.71 142.936 1164.84 Q147.554 1157.93 156.269 1157.93 Z" fill="#000000" fill-rule="evenodd" fill-opacity="1" /><path clip-path="url(#clip770)" d="M115.297 880.589 L97.5891 908.263 L115.297 908.263 L115.297 880.589 M113.457 874.478 L122.276 874.478 L122.276 908.263 L129.672 908.263 L129.672 914.096 L122.276 914.096 L122.276 926.318 L115.297 926.318 L115.297 914.096 L91.8947 914.096 L91.8947 907.325 L113.457 874.478 Z" fill="#000000" fill-rule="evenodd" fill-opacity="1" /><path clip-path="url(#clip770)" d="M156.269 879.096 Q150.853 879.096 148.11 884.444 Q145.401 889.756 145.401 900.45 Q145.401 911.11 148.11 916.457 Q150.853 921.77 156.269 921.77 Q161.721 921.77 164.429 916.457 Q167.172 911.11 167.172 900.45 Q167.172 889.756 164.429 884.444 Q161.721 879.096 156.269 879.096 M156.269 873.541 Q164.985 873.541 169.568 880.451 Q174.186 887.326 174.186 900.45 Q174.186 913.541 169.568 920.45 Q164.985 927.325 156.269 927.325 Q147.554 927.325 142.936 920.45 Q138.353 913.541 138.353 900.45 Q138.353 887.326 142.936 880.451 Q147.554 873.541 156.269 873.541 Z" fill="#000000" fill-rule="evenodd" fill-opacity="1" /><path clip-path="url(#clip770)" d="M111.895 613.218 Q107.172 613.218 104.395 616.448 Q101.652 619.677 101.652 625.302 Q101.652 630.892 104.395 634.156 Q107.172 637.385 111.895 637.385 Q116.617 637.385 119.36 634.156 Q122.138 630.892 122.138 625.302 Q122.138 619.677 119.36 616.448 Q116.617 613.218 111.895 613.218 M125.818 591.239 L125.818 597.628 Q123.179 596.378 120.471 595.719 Q117.797 595.059 115.158 595.059 Q108.214 595.059 104.534 599.746 Q100.888 604.434 100.367 613.913 Q102.415 610.892 105.506 609.295 Q108.596 607.663 112.311 607.663 Q120.124 607.663 124.638 612.42 Q129.186 617.142 129.186 625.302 Q129.186 633.288 124.464 638.114 Q119.742 642.941 111.895 642.941 Q102.902 642.941 98.1447 636.066 Q93.3877 629.156 93.3877 616.066 Q93.3877 603.774 99.221 596.482 Q105.054 589.156 114.881 589.156 Q117.52 589.156 120.193 589.677 Q122.901 590.198 125.818 591.239 Z" fill="#000000" fill-rule="evenodd" fill-opacity="1" /><path clip-path="url(#clip770)" d="M156.269 594.712 Q150.853 594.712 148.11 600.059 Q145.401 605.371 145.401 616.066 Q145.401 626.725 148.11 632.073 Q150.853 637.385 156.269 637.385 Q161.721 637.385 164.429 632.073 Q167.172 626.725 167.172 616.066 Q167.172 605.371 164.429 600.059 Q161.721 594.712 156.269 594.712 M156.269 589.156 Q164.985 589.156 169.568 596.066 Q174.186 602.941 174.186 616.066 Q174.186 629.156 169.568 636.066 Q164.985 642.941 156.269 642.941 Q147.554 642.941 142.936 636.066 Q138.353 629.156 138.353 616.066 Q138.353 602.941 142.936 596.066 Q147.554 589.156 156.269 589.156 Z" fill="#000000" fill-rule="evenodd" fill-opacity="1" /><path clip-path="url(#clip770)" d="M111.027 332.931 Q106.027 332.931 103.145 335.605 Q100.297 338.278 100.297 342.966 Q100.297 347.653 103.145 350.327 Q106.027 353 111.027 353 Q116.026 353 118.908 350.327 Q121.79 347.618 121.79 342.966 Q121.79 338.278 118.908 335.605 Q116.061 332.931 111.027 332.931 M104.013 329.945 Q99.4988 328.834 96.9641 325.743 Q94.4641 322.653 94.4641 318.209 Q94.4641 311.994 98.8738 308.382 Q103.318 304.771 111.027 304.771 Q118.77 304.771 123.179 308.382 Q127.589 311.994 127.589 318.209 Q127.589 322.653 125.054 325.743 Q122.554 328.834 118.075 329.945 Q123.145 331.125 125.957 334.563 Q128.804 338 128.804 342.966 Q128.804 350.5 124.186 354.528 Q119.603 358.556 111.027 358.556 Q102.45 358.556 97.8322 354.528 Q93.2488 350.5 93.2488 342.966 Q93.2488 338 96.0961 334.563 Q98.9433 331.125 104.013 329.945 M101.443 318.869 Q101.443 322.896 103.943 325.153 Q106.478 327.41 111.027 327.41 Q115.54 327.41 118.075 325.153 Q120.645 322.896 120.645 318.869 Q120.645 314.841 118.075 312.584 Q115.54 310.327 111.027 310.327 Q106.478 310.327 103.943 312.584 Q101.443 314.841 101.443 318.869 Z" fill="#000000" fill-rule="evenodd" fill-opacity="1" /><path clip-path="url(#clip770)" d="M156.269 310.327 Q150.853 310.327 148.11 315.674 Q145.401 320.987 145.401 331.681 Q145.401 342.341 148.11 347.688 Q150.853 353 156.269 353 Q161.721 353 164.429 347.688 Q167.172 342.341 167.172 331.681 Q167.172 320.987 164.429 315.674 Q161.721 310.327 156.269 310.327 M156.269 304.771 Q164.985 304.771 169.568 311.681 Q174.186 318.556 174.186 331.681 Q174.186 344.771 169.568 351.681 Q164.985 358.556 156.269 358.556 Q147.554 358.556 142.936 351.681 Q138.353 344.771 138.353 331.681 Q138.353 318.556 142.936 311.681 Q147.554 304.771 156.269 304.771 Z" fill="#000000" fill-rule="evenodd" fill-opacity="1" /><path clip-path="url(#clip770)" d="M51.9991 67.2613 L63.4573 67.2613 L63.4573 27.7129 L50.9921 30.2129 L50.9921 23.8241 L63.3879 21.3241 L70.4017 21.3241 L70.4017 67.2613 L81.86 67.2613 L81.86 73.1641 L51.9991 73.1641 L51.9991 67.2613 Z" fill="#000000" fill-rule="evenodd" fill-opacity="1" /><path clip-path="url(#clip770)" d="M111.027 25.9421 Q105.61 25.9421 102.867 31.2893 Q100.159 36.6018 100.159 47.2962 Q100.159 57.9558 102.867 63.303 Q105.61 68.6155 111.027 68.6155 Q116.478 68.6155 119.186 63.303 Q121.929 57.9558 121.929 47.2962 Q121.929 36.6018 119.186 31.2893 Q116.478 25.9421 111.027 25.9421 M111.027 20.3866 Q119.742 20.3866 124.325 27.2963 Q128.943 34.1712 128.943 47.2962 Q128.943 60.3864 124.325 67.2961 Q119.742 74.171 111.027 74.171 Q102.311 74.171 97.6933 67.2961 Q93.11 60.3864 93.11 47.2962 Q93.11 34.1712 97.6933 27.2963 Q102.311 20.3866 111.027 20.3866 Z" fill="#000000" fill-rule="evenodd" fill-opacity="1" /><path clip-path="url(#clip770)" d="M156.269 25.9421 Q150.853 25.9421 148.11 31.2893 Q145.401 36.6018 145.401 47.2962 Q145.401 57.9558 148.11 63.303 Q150.853 68.6155 156.269 68.6155 Q161.721 68.6155 164.429 63.303 Q167.172 57.9558 167.172 47.2962 Q167.172 36.6018 164.429 31.2893 Q161.721 25.9421 156.269 25.9421 M156.269 20.3866 Q164.985 20.3866 169.568 27.2963 Q174.186 34.1712 174.186 47.2962 Q174.186 60.3864 169.568 67.2961 Q164.985 74.171 156.269 74.171 Q147.554 74.171 142.936 67.2961 Q138.353 60.3864 138.353 47.2962 Q138.353 34.1712 142.936 27.2963 Q147.554 20.3866 156.269 20.3866 Z" fill="#000000" fill-rule="evenodd" fill-opacity="1" /><polyline clip-path="url(#clip772)" style="stroke:#009af9; stroke-linecap:round; stroke-linejoin:round; stroke-width:12; stroke-opacity:1; fill:none" points="
  210.295,-9133.22 210.404,-4285.09 210.513,-2568.68 210.622,-1676.45 210.731,-1125.15 210.84,-748.77 210.949,-474.457 211.058,-265.092 211.167,-99.7068 211.276,34.4603 
  211.385,145.636 211.494,239.37 211.603,319.543 211.712,388.958 211.821,449.687 211.93,503.298 212.039,550.999 212.148,593.737 212.257,632.267 212.365,667.194 
  212.583,728.13 212.801,779.558 213.019,823.588 213.237,861.744 213.455,895.153 213.673,924.67 213.891,950.954 214.109,974.52 214.327,995.78 214.545,1015.06 
  214.981,1048.74 215.417,1077.2 215.853,1101.59 216.289,1122.74 216.725,1141.29 217.161,1157.69 217.596,1172.3 218.032,1185.42 218.468,1197.26 218.904,1208.01 
  219.776,1226.8 220.648,1242.7 221.52,1256.35 222.392,1268.2 222.827,1273.56 223.263,1278.6 223.699,1283.34 224.135,1287.81 226.151,1305.55 228.166,1319.63 
  230.181,1331.11 232.197,1340.66 236.227,1355.7 240.258,1367.05 244.289,1375.94 248.319,1383.13 252.35,1389.07 256.381,1394.08 264.442,1402.06 272.503,1408.18 
  280.565,1413.03 288.626,1416.99 304.749,1423.09 320.871,1427.59 336.994,1431.06 353.117,1433.84 372.495,1436.54 391.873,1438.72 411.251,1440.54 430.629,1442.07 
  463.397,1444.2 496.165,1445.9 531.76,1447.41 567.355,1448.66 600.171,1449.63 632.986,1450.47 703.35,1451.96 784.873,1453.29 857.321,1454.22 920.851,1454.91 
  990.116,1455.56 1059.79,1456.11 1136.83,1456.65 1210.13,1457.09 1286.34,1457.5 1350.5,1457.81 1428.82,1458.15 1500.58,1458.43 1566.84,1458.67 1633.97,1458.9 
  1709.2,1459.13 1777.38,1459.32 1855.43,1459.53 1927.7,1459.7 1998.95,1459.86 2068.12,1460.01 2139.04,1460.16 2216.73,1460.3 2329.6,1460.5 2352.76,1460.54 
  
  "/>
<polyline clip-path="url(#clip772)" style="stroke:#e26f46; stroke-linecap:round; stroke-linejoin:round; stroke-width:12; stroke-opacity:1; fill:none" points="
  924.639,1467.37 925.18,1467.07 927.345,1466.57 929.509,1466.29 933.838,1465.88 938.167,1465.57 946.826,1465.06 955.484,1464.63 972.8,1463.88 990.116,1463.21 
  1024.95,1461.91 1059.79,1460.62 1136.83,1457.44 1210.13,1453.65 1286.34,1448.24 1350.5,1441.63 1389.66,1435.98 1428.82,1428.27 1446.76,1423.7 1464.7,1418.2 
  1482.64,1411.44 1500.58,1402.94 1517.14,1392.86 1533.71,1379.62 1541.99,1371.29 1550.28,1361.41 1558.56,1349.49 1566.84,1334.81 1571.04,1326.01 1575.24,1316.04 
  1579.43,1304.65 1583.63,1291.53 1587.82,1276.24 1592.02,1258.19 1596.21,1236.58 1600.41,1210.21 1604.6,1177.32 1608.8,1135.17 1612.99,1079.19 1617.19,1001.23 
  1621.39,885.211 1625.58,694.217 1627.68,543.521 1629.78,320.893 1630.83,164.329 1631.87,-41.3148 1632.92,-323.409 1633.97,-734.317 1634.56,-1058.64 1635.15,-1494.49 
  1635.74,-2111.33 1636.32,-3051.46 1636.91,-4659.28 1637.5,-8037.75 1638.09,-19695.9 1638.67,-92482.7 1639.26,-13132 1639.85,-6449.52 1640.44,-3964.66 1641.02,-2667.62 
  1641.61,-1870.98 1642.2,-1332 1642.79,-943.062 1643.38,-649.177 1644.55,-234.552 1645.73,43.9515 1646.9,243.915 1648.08,394.456 1650.43,606.038 1652.78,747.63 
  1657.48,925.23 1662.18,1032.12 1666.89,1103.51 1671.59,1154.58 1676.29,1192.92 1680.99,1222.76 1685.69,1246.65 1690.4,1266.21 1695.1,1282.51 1699.8,1296.31 
  1704.5,1308.15 1709.2,1318.4 1717.73,1333.89 1726.25,1346.37 1734.77,1356.65 1743.29,1365.25 1760.33,1378.85 1777.38,1389.11 1796.89,1398.15 1816.4,1405.22 
  1835.91,1410.89 1855.43,1415.54 1891.56,1422.28 1927.7,1427.34 1998.95,1434.36 2068.12,1438.97 2139.04,1442.39 2216.73,1445.19 2329.6,1448.16 2352.76,1448.65 
  
  "/>
<path clip-path="url(#clip770)" d="
M1964.63 327.922 L2281.34 327.922 L2281.34 94.6416 L1964.63 94.6416  Z
  " fill="#ffffff" fill-rule="evenodd" fill-opacity="1"/>
<polyline clip-path="url(#clip770)" style="stroke:#000000; stroke-linecap:round; stroke-linejoin:round; stroke-width:4; stroke-opacity:1; fill:none" points="
  1964.63,327.922 2281.34,327.922 2281.34,94.6416 1964.63,94.6416 1964.63,327.922 
  "/>
<polyline clip-path="url(#clip770)" style="stroke:#009af9; stroke-linecap:round; stroke-linejoin:round; stroke-width:6; stroke-opacity:1; fill:none" points="
  1988.43,172.402 2131.27,172.402 
  "/>
<path clip-path="url(#clip770)" d="M2175.84 201.933 Q2173.13 208.877 2170.56 210.995 Q2168 213.113 2163.69 213.113 L2158.59 213.113 L2158.59 207.766 L2162.34 207.766 Q2164.97 207.766 2166.43 206.516 Q2167.89 205.266 2169.66 200.613 L2170.81 197.697 L2155.08 159.433 L2161.85 159.433 L2174 189.849 L2186.16 159.433 L2192.93 159.433 L2175.84 201.933 Z" fill="#000000" fill-rule="evenodd" fill-opacity="1" /><path clip-path="url(#clip770)" d="M2203.86 192.419 L2215.32 192.419 L2215.32 152.87 L2202.86 155.37 L2202.86 148.982 L2215.25 146.482 L2222.27 146.482 L2222.27 192.419 L2233.72 192.419 L2233.72 198.322 L2203.86 198.322 L2203.86 192.419 Z" fill="#000000" fill-rule="evenodd" fill-opacity="1" /><polyline clip-path="url(#clip770)" style="stroke:#e26f46; stroke-linecap:round; stroke-linejoin:round; stroke-width:6; stroke-opacity:1; fill:none" points="
  1988.43,250.162 2131.27,250.162 
  "/>
<path clip-path="url(#clip770)" d="M2175.84 279.693 Q2173.13 286.637 2170.56 288.755 Q2168 290.873 2163.69 290.873 L2158.59 290.873 L2158.59 285.526 L2162.34 285.526 Q2164.97 285.526 2166.43 284.276 Q2167.89 283.026 2169.66 278.373 L2170.81 275.457 L2155.08 237.193 L2161.85 237.193 L2174 267.609 L2186.16 237.193 L2192.93 237.193 L2175.84 279.693 Z" fill="#000000" fill-rule="evenodd" fill-opacity="1" /><path clip-path="url(#clip770)" d="M2208.69 270.179 L2233.17 270.179 L2233.17 276.082 L2200.25 276.082 L2200.25 270.179 Q2204.25 266.047 2211.12 259.102 Q2218.03 252.123 2219.8 250.109 Q2223.17 246.325 2224.49 243.721 Q2225.84 241.082 2225.84 238.547 Q2225.84 234.415 2222.93 231.811 Q2220.04 229.207 2215.39 229.207 Q2212.09 229.207 2208.41 230.353 Q2204.77 231.498 2200.6 233.825 L2200.6 226.742 Q2204.84 225.04 2208.52 224.172 Q2212.2 223.304 2215.25 223.304 Q2223.31 223.304 2228.1 227.332 Q2232.89 231.36 2232.89 238.096 Q2232.89 241.29 2231.68 244.172 Q2230.5 247.019 2227.34 250.908 Q2226.47 251.915 2221.81 256.741 Q2217.16 261.533 2208.69 270.179 Z" fill="#000000" fill-rule="evenodd" fill-opacity="1" /></svg>
