<?xml version="1.0" encoding="utf-8"?>
<svg xmlns="http://www.w3.org/2000/svg" xmlns:xlink="http://www.w3.org/1999/xlink" width="600" height="400" viewBox="0 0 2400 1600">
<defs>
  <clipPath id="clip330">
    <rect x="0" y="0" width="2400" height="1600"/>
  </clipPath>
</defs>
<path clip-path="url(#clip330)" d="
M0 1600 L2400 1600 L2400 0 L0 0  Z
  " fill="#ffffff" fill-rule="evenodd" fill-opacity="1"/>
<defs>
  <clipPath id="clip331">
    <rect x="480" y="0" width="1681" height="1600"/>
  </clipPath>
</defs>
<path clip-path="url(#clip330)" d="
M156.598 1486.45 L2352.76 1486.45 L2352.76 47.2441 L156.598 47.2441  Z
  " fill="#ffffff" fill-rule="evenodd" fill-opacity="1"/>
<defs>
  <clipPath id="clip332">
    <rect x="156" y="47" width="2197" height="1440"/>
  </clipPath>
</defs>
<polyline clip-path="url(#clip332)" style="stroke:#000000; stroke-linecap:round; stroke-linejoin:round; stroke-width:2; stroke-opacity:0.1; fill:none" points="
  156.598,1486.45 156.598,47.2441 
  "/>
<polyline clip-path="url(#clip332)" style="stroke:#000000; stroke-linecap:round; stroke-linejoin:round; stroke-width:2; stroke-opacity:0.1; fill:none" points="
  705.638,1486.45 705.638,47.2441 
  "/>
<polyline clip-path="url(#clip332)" style="stroke:#000000; stroke-linecap:round; stroke-linejoin:round; stroke-width:2; stroke-opacity:0.1; fill:none" points="
  1254.68,1486.45 1254.68,47.2441 
  "/>
<polyline clip-path="url(#clip332)" style="stroke:#000000; stroke-linecap:round; stroke-linejoin:round; stroke-width:2; stroke-opacity:0.1; fill:none" points="
  1803.72,1486.45 1803.72,47.2441 
  "/>
<polyline clip-path="url(#clip332)" style="stroke:#000000; stroke-linecap:round; stroke-linejoin:round; stroke-width:2; stroke-opacity:0.1; fill:none" points="
  2352.76,1486.45 2352.76,47.2441 
  "/>
<polyline clip-path="url(#clip330)" style="stroke:#000000; stroke-linecap:round; stroke-linejoin:round; stroke-width:4; stroke-opacity:1; fill:none" points="
  156.598,1486.45 2352.76,1486.45 
  "/>
<polyline clip-path="url(#clip330)" style="stroke:#000000; stroke-linecap:round; stroke-linejoin:round; stroke-width:4; stroke-opacity:1; fill:none" points="
  156.598,1486.45 156.598,1467.55 
  "/>
<polyline clip-path="url(#clip330)" style="stroke:#000000; stroke-linecap:round; stroke-linejoin:round; stroke-width:4; stroke-opacity:1; fill:none" points="
  705.638,1486.45 705.638,1467.55 
  "/>
<polyline clip-path="url(#clip330)" style="stroke:#000000; stroke-linecap:round; stroke-linejoin:round; stroke-width:4; stroke-opacity:1; fill:none" points="
  1254.68,1486.45 1254.68,1467.55 
  "/>
<polyline clip-path="url(#clip330)" style="stroke:#000000; stroke-linecap:round; stroke-linejoin:round; stroke-width:4; stroke-opacity:1; fill:none" points="
  1803.72,1486.45 1803.72,1467.55 
  "/>
<polyline clip-path="url(#clip330)" style="stroke:#000000; stroke-linecap:round; stroke-linejoin:round; stroke-width:4; stroke-opacity:1; fill:none" points="
  2352.76,1486.45 2352.76,1467.55 
  "/>
<path clip-path="url(#clip330)" d="M103.126 1532.02 L132.802 1532.02 L132.802 1535.95 L103.126 1535.95 L103.126 1532.02 Z" fill="#000000" fill-rule="evenodd" fill-opacity="1" /><path clip-path="url(#clip330)" d="M143.705 1544.91 L151.344 1544.91 L151.344 1518.55 L143.033 1520.21 L143.033 1515.95 L151.297 1514.29 L155.973 1514.29 L155.973 1544.91 L163.612 1544.91 L163.612 1548.85 L143.705 1548.85 L143.705 1544.91 Z" fill="#000000" fill-rule="evenodd" fill-opacity="1" /><path clip-path="url(#clip330)" d="M173.056 1542.97 L177.941 1542.97 L177.941 1548.85 L173.056 1548.85 L173.056 1542.97 Z" fill="#000000" fill-rule="evenodd" fill-opacity="1" /><path clip-path="url(#clip330)" d="M198.126 1517.37 Q194.515 1517.37 192.686 1520.93 Q190.88 1524.47 190.88 1531.6 Q190.88 1538.71 192.686 1542.27 Q194.515 1545.82 198.126 1545.82 Q201.76 1545.82 203.566 1542.27 Q205.394 1538.71 205.394 1531.6 Q205.394 1524.47 203.566 1520.93 Q201.76 1517.37 198.126 1517.37 M198.126 1513.66 Q203.936 1513.66 206.991 1518.27 Q210.07 1522.85 210.07 1531.6 Q210.07 1540.33 206.991 1544.94 Q203.936 1549.52 198.126 1549.52 Q192.316 1549.52 189.237 1544.94 Q186.181 1540.33 186.181 1531.6 Q186.181 1522.85 189.237 1518.27 Q192.316 1513.66 198.126 1513.66 Z" fill="#000000" fill-rule="evenodd" fill-opacity="1" /><path clip-path="url(#clip330)" d="M652.663 1532.02 L682.339 1532.02 L682.339 1535.95 L652.663 1535.95 L652.663 1532.02 Z" fill="#000000" fill-rule="evenodd" fill-opacity="1" /><path clip-path="url(#clip330)" d="M702.432 1517.37 Q698.821 1517.37 696.992 1520.93 Q695.186 1524.47 695.186 1531.6 Q695.186 1538.71 696.992 1542.27 Q698.821 1545.82 702.432 1545.82 Q706.066 1545.82 707.871 1542.27 Q709.7 1538.71 709.7 1531.6 Q709.7 1524.47 707.871 1520.93 Q706.066 1517.37 702.432 1517.37 M702.432 1513.66 Q708.242 1513.66 711.297 1518.27 Q714.376 1522.85 714.376 1531.6 Q714.376 1540.33 711.297 1544.94 Q708.242 1549.52 702.432 1549.52 Q696.621 1549.52 693.543 1544.94 Q690.487 1540.33 690.487 1531.6 Q690.487 1522.85 693.543 1518.27 Q696.621 1513.66 702.432 1513.66 Z" fill="#000000" fill-rule="evenodd" fill-opacity="1" /><path clip-path="url(#clip330)" d="M722.594 1542.97 L727.478 1542.97 L727.478 1548.85 L722.594 1548.85 L722.594 1542.97 Z" fill="#000000" fill-rule="evenodd" fill-opacity="1" /><path clip-path="url(#clip330)" d="M737.709 1514.29 L756.066 1514.29 L756.066 1518.22 L741.992 1518.22 L741.992 1526.7 Q743.01 1526.35 744.029 1526.19 Q745.047 1526 746.066 1526 Q751.853 1526 755.232 1529.17 Q758.612 1532.34 758.612 1537.76 Q758.612 1543.34 755.14 1546.44 Q751.667 1549.52 745.348 1549.52 Q743.172 1549.52 740.904 1549.15 Q738.658 1548.78 736.251 1548.04 L736.251 1543.34 Q738.334 1544.47 740.556 1545.03 Q742.779 1545.58 745.255 1545.58 Q749.26 1545.58 751.598 1543.48 Q753.936 1541.37 753.936 1537.76 Q753.936 1534.15 751.598 1532.04 Q749.26 1529.94 745.255 1529.94 Q743.381 1529.94 741.506 1530.35 Q739.654 1530.77 737.709 1531.65 L737.709 1514.29 Z" fill="#000000" fill-rule="evenodd" fill-opacity="1" /><path clip-path="url(#clip330)" d="M1232.06 1517.37 Q1228.45 1517.37 1226.62 1520.93 Q1224.82 1524.47 1224.82 1531.6 Q1224.82 1538.71 1226.62 1542.27 Q1228.45 1545.82 1232.06 1545.82 Q1235.7 1545.82 1237.5 1542.27 Q1239.33 1538.71 1239.33 1531.6 Q1239.33 1524.47 1237.5 1520.93 Q1235.7 1517.37 1232.06 1517.37 M1232.06 1513.66 Q1237.87 1513.66 1240.93 1518.27 Q1244.01 1522.85 1244.01 1531.6 Q1244.01 1540.33 1240.93 1544.94 Q1237.87 1549.52 1232.06 1549.52 Q1226.25 1549.52 1223.17 1544.94 Q1220.12 1540.33 1220.12 1531.6 Q1220.12 1522.85 1223.17 1518.27 Q1226.25 1513.66 1232.06 1513.66 Z" fill="#000000" fill-rule="evenodd" fill-opacity="1" /><path clip-path="url(#clip330)" d="M1252.22 1542.97 L1257.11 1542.97 L1257.11 1548.85 L1252.22 1548.85 L1252.22 1542.97 Z" fill="#000000" fill-rule="evenodd" fill-opacity="1" /><path clip-path="url(#clip330)" d="M1277.29 1517.37 Q1273.68 1517.37 1271.85 1520.93 Q1270.05 1524.47 1270.05 1531.6 Q1270.05 1538.71 1271.85 1542.27 Q1273.68 1545.82 1277.29 1545.82 Q1280.93 1545.82 1282.73 1542.27 Q1284.56 1538.71 1284.56 1531.6 Q1284.56 1524.47 1282.73 1520.93 Q1280.93 1517.37 1277.29 1517.37 M1277.29 1513.66 Q1283.1 1513.66 1286.16 1518.27 Q1289.24 1522.85 1289.24 1531.6 Q1289.24 1540.33 1286.16 1544.94 Q1283.1 1549.52 1277.29 1549.52 Q1271.48 1549.52 1268.4 1544.94 Q1265.35 1540.33 1265.35 1531.6 Q1265.35 1522.85 1268.4 1518.27 Q1271.48 1513.66 1277.29 1513.66 Z" fill="#000000" fill-rule="evenodd" fill-opacity="1" /><path clip-path="url(#clip330)" d="M1781.6 1517.37 Q1777.99 1517.37 1776.16 1520.93 Q1774.35 1524.47 1774.35 1531.6 Q1774.35 1538.71 1776.16 1542.27 Q1777.99 1545.82 1781.6 1545.82 Q1785.23 1545.82 1787.04 1542.27 Q1788.87 1538.71 1788.87 1531.6 Q1788.87 1524.47 1787.04 1520.93 Q1785.23 1517.37 1781.6 1517.37 M1781.6 1513.66 Q1787.41 1513.66 1790.46 1518.27 Q1793.54 1522.85 1793.54 1531.6 Q1793.54 1540.33 1790.46 1544.94 Q1787.41 1549.52 1781.6 1549.52 Q1775.79 1549.52 1772.71 1544.94 Q1769.65 1540.33 1769.65 1531.6 Q1769.65 1522.85 1772.71 1518.27 Q1775.79 1513.66 1781.6 1513.66 Z" fill="#000000" fill-rule="evenodd" fill-opacity="1" /><path clip-path="url(#clip330)" d="M1801.76 1542.97 L1806.64 1542.97 L1806.64 1548.85 L1801.76 1548.85 L1801.76 1542.97 Z" fill="#000000" fill-rule="evenodd" fill-opacity="1" /><path clip-path="url(#clip330)" d="M1816.88 1514.29 L1835.23 1514.29 L1835.23 1518.22 L1821.16 1518.22 L1821.16 1526.7 Q1822.18 1526.35 1823.2 1526.19 Q1824.21 1526 1825.23 1526 Q1831.02 1526 1834.4 1529.17 Q1837.78 1532.34 1837.78 1537.76 Q1837.78 1543.34 1834.31 1546.44 Q1830.83 1549.52 1824.51 1549.52 Q1822.34 1549.52 1820.07 1549.15 Q1817.83 1548.78 1815.42 1548.04 L1815.42 1543.34 Q1817.5 1544.47 1819.72 1545.03 Q1821.95 1545.58 1824.42 1545.58 Q1828.43 1545.58 1830.76 1543.48 Q1833.1 1541.37 1833.1 1537.76 Q1833.1 1534.15 1830.76 1532.04 Q1828.43 1529.94 1824.42 1529.94 Q1822.55 1529.94 1820.67 1530.35 Q1818.82 1530.77 1816.88 1531.65 L1816.88 1514.29 Z" fill="#000000" fill-rule="evenodd" fill-opacity="1" /><path clip-path="url(#clip330)" d="M2319.91 1544.91 L2327.55 1544.91 L2327.55 1518.55 L2319.24 1520.21 L2319.24 1515.95 L2327.5 1514.29 L2332.18 1514.29 L2332.18 1544.91 L2339.82 1544.91 L2339.82 1548.85 L2319.91 1548.85 L2319.91 1544.91 Z" fill="#000000" fill-rule="evenodd" fill-opacity="1" /><path clip-path="url(#clip330)" d="M2349.26 1542.97 L2354.14 1542.97 L2354.14 1548.85 L2349.26 1548.85 L2349.26 1542.97 Z" fill="#000000" fill-rule="evenodd" fill-opacity="1" /><path clip-path="url(#clip330)" d="M2374.33 1517.37 Q2370.72 1517.37 2368.89 1520.93 Q2367.08 1524.47 2367.08 1531.6 Q2367.08 1538.71 2368.89 1542.27 Q2370.72 1545.82 2374.33 1545.82 Q2377.96 1545.82 2379.77 1542.27 Q2381.6 1538.71 2381.6 1531.6 Q2381.6 1524.47 2379.77 1520.93 Q2377.96 1517.37 2374.33 1517.37 M2374.33 1513.66 Q2380.14 1513.66 2383.2 1518.27 Q2386.27 1522.85 2386.27 1531.6 Q2386.27 1540.33 2383.2 1544.94 Q2380.14 1549.52 2374.33 1549.52 Q2368.52 1549.52 2365.44 1544.94 Q2362.39 1540.33 2362.39 1531.6 Q2362.39 1522.85 2365.44 1518.27 Q2368.52 1513.66 2374.33 1513.66 Z" fill="#000000" fill-rule="evenodd" fill-opacity="1" /><polyline clip-path="url(#clip332)" style="stroke:#000000; stroke-linecap:round; stroke-linejoin:round; stroke-width:2; stroke-opacity:0.1; fill:none" points="
  156.598,1282.79 2352.76,1282.79 
  "/>
<polyline clip-path="url(#clip332)" style="stroke:#000000; stroke-linecap:round; stroke-linejoin:round; stroke-width:2; stroke-opacity:0.1; fill:none" points="
  156.598,984.084 2352.76,984.084 
  "/>
<polyline clip-path="url(#clip332)" style="stroke:#000000; stroke-linecap:round; stroke-linejoin:round; stroke-width:2; stroke-opacity:0.1; fill:none" points="
  156.598,685.382 2352.76,685.382 
  "/>
<polyline clip-path="url(#clip332)" style="stroke:#000000; stroke-linecap:round; stroke-linejoin:round; stroke-width:2; stroke-opacity:0.1; fill:none" points="
  156.598,386.679 2352.76,386.679 
  "/>
<polyline clip-path="url(#clip332)" style="stroke:#000000; stroke-linecap:round; stroke-linejoin:round; stroke-width:2; stroke-opacity:0.1; fill:none" points="
  156.598,87.9763 2352.76,87.9763 
  "/>
<polyline clip-path="url(#clip330)" style="stroke:#000000; stroke-linecap:round; stroke-linejoin:round; stroke-width:4; stroke-opacity:1; fill:none" points="
  156.598,1486.45 156.598,47.2441 
  "/>
<polyline clip-path="url(#clip330)" style="stroke:#000000; stroke-linecap:round; stroke-linejoin:round; stroke-width:4; stroke-opacity:1; fill:none" points="
  156.598,1282.79 175.496,1282.79 
  "/>
<polyline clip-path="url(#clip330)" style="stroke:#000000; stroke-linecap:round; stroke-linejoin:round; stroke-width:4; stroke-opacity:1; fill:none" points="
  156.598,984.084 175.496,984.084 
  "/>
<polyline clip-path="url(#clip330)" style="stroke:#000000; stroke-linecap:round; stroke-linejoin:round; stroke-width:4; stroke-opacity:1; fill:none" points="
  156.598,685.382 175.496,685.382 
  "/>
<polyline clip-path="url(#clip330)" style="stroke:#000000; stroke-linecap:round; stroke-linejoin:round; stroke-width:4; stroke-opacity:1; fill:none" points="
  156.598,386.679 175.496,386.679 
  "/>
<polyline clip-path="url(#clip330)" style="stroke:#000000; stroke-linecap:round; stroke-linejoin:round; stroke-width:4; stroke-opacity:1; fill:none" points="
  156.598,87.9763 175.496,87.9763 
  "/>
<path clip-path="url(#clip330)" d="M65.0198 1268.59 Q61.4087 1268.59 59.58 1272.15 Q57.7745 1275.69 57.7745 1282.82 Q57.7745 1289.93 59.58 1293.49 Q61.4087 1297.03 65.0198 1297.03 Q68.6541 1297.03 70.4596 1293.49 Q72.2883 1289.93 72.2883 1282.82 Q72.2883 1275.69 70.4596 1272.15 Q68.6541 1268.59 65.0198 1268.59 M65.0198 1264.88 Q70.83 1264.88 73.8855 1269.49 Q76.9642 1274.07 76.9642 1282.82 Q76.9642 1291.55 73.8855 1296.15 Q70.83 1300.74 65.0198 1300.74 Q59.2097 1300.74 56.131 1296.15 Q53.0754 1291.55 53.0754 1282.82 Q53.0754 1274.07 56.131 1269.49 Q59.2097 1264.88 65.0198 1264.88 Z" fill="#000000" fill-rule="evenodd" fill-opacity="1" /><path clip-path="url(#clip330)" d="M85.1818 1294.19 L90.066 1294.19 L90.066 1300.07 L85.1818 1300.07 L85.1818 1294.19 Z" fill="#000000" fill-rule="evenodd" fill-opacity="1" /><path clip-path="url(#clip330)" d="M104.279 1296.13 L120.598 1296.13 L120.598 1300.07 L98.6539 1300.07 L98.6539 1296.13 Q101.316 1293.38 105.899 1288.75 Q110.506 1284.09 111.686 1282.75 Q113.932 1280.23 114.811 1278.49 Q115.714 1276.73 115.714 1275.04 Q115.714 1272.29 113.77 1270.55 Q111.848 1268.82 108.746 1268.82 Q106.547 1268.82 104.094 1269.58 Q101.663 1270.34 98.8854 1271.9 L98.8854 1267.17 Q101.709 1266.04 104.163 1265.46 Q106.617 1264.88 108.654 1264.88 Q114.024 1264.88 117.219 1267.57 Q120.413 1270.25 120.413 1274.74 Q120.413 1276.87 119.603 1278.79 Q118.816 1280.69 116.709 1283.28 Q116.131 1283.96 113.029 1287.17 Q109.927 1290.37 104.279 1296.13 Z" fill="#000000" fill-rule="evenodd" fill-opacity="1" /><path clip-path="url(#clip330)" d="M62.9365 969.883 Q59.3254 969.883 57.4967 973.448 Q55.6912 976.989 55.6912 984.119 Q55.6912 991.225 57.4967 994.79 Q59.3254 998.332 62.9365 998.332 Q66.5707 998.332 68.3763 994.79 Q70.205 991.225 70.205 984.119 Q70.205 976.989 68.3763 973.448 Q66.5707 969.883 62.9365 969.883 M62.9365 966.179 Q68.7467 966.179 71.8022 970.786 Q74.8809 975.369 74.8809 984.119 Q74.8809 992.846 71.8022 997.452 Q68.7467 1002.04 62.9365 1002.04 Q57.1264 1002.04 54.0477 997.452 Q50.9921 992.846 50.9921 984.119 Q50.9921 975.369 54.0477 970.786 Q57.1264 966.179 62.9365 966.179 Z" fill="#000000" fill-rule="evenodd" fill-opacity="1" /><path clip-path="url(#clip330)" d="M83.0984 995.485 L87.9827 995.485 L87.9827 1001.36 L83.0984 1001.36 L83.0984 995.485 Z" fill="#000000" fill-rule="evenodd" fill-opacity="1" /><path clip-path="url(#clip330)" d="M111.015 970.878 L99.2095 989.327 L111.015 989.327 L111.015 970.878 M109.788 966.804 L115.668 966.804 L115.668 989.327 L120.598 989.327 L120.598 993.216 L115.668 993.216 L115.668 1001.36 L111.015 1001.36 L111.015 993.216 L95.4132 993.216 L95.4132 988.702 L109.788 966.804 Z" fill="#000000" fill-rule="evenodd" fill-opacity="1" /><path clip-path="url(#clip330)" d="M63.2606 671.18 Q59.6495 671.18 57.8208 674.745 Q56.0152 678.287 56.0152 685.416 Q56.0152 692.523 57.8208 696.088 Q59.6495 699.629 63.2606 699.629 Q66.8948 699.629 68.7004 696.088 Q70.5291 692.523 70.5291 685.416 Q70.5291 678.287 68.7004 674.745 Q66.8948 671.18 63.2606 671.18 M63.2606 667.477 Q69.0707 667.477 72.1263 672.083 Q75.205 676.666 75.205 685.416 Q75.205 694.143 72.1263 698.75 Q69.0707 703.333 63.2606 703.333 Q57.4504 703.333 54.3717 698.75 Q51.3162 694.143 51.3162 685.416 Q51.3162 676.666 54.3717 672.083 Q57.4504 667.477 63.2606 667.477 Z" fill="#000000" fill-rule="evenodd" fill-opacity="1" /><path clip-path="url(#clip330)" d="M83.4225 696.782 L88.3067 696.782 L88.3067 702.662 L83.4225 702.662 L83.4225 696.782 Z" fill="#000000" fill-rule="evenodd" fill-opacity="1" /><path clip-path="url(#clip330)" d="M109.071 683.518 Q105.922 683.518 104.071 685.671 Q102.242 687.824 102.242 691.574 Q102.242 695.301 104.071 697.476 Q105.922 699.629 109.071 699.629 Q112.219 699.629 114.047 697.476 Q115.899 695.301 115.899 691.574 Q115.899 687.824 114.047 685.671 Q112.219 683.518 109.071 683.518 M118.353 668.866 L118.353 673.125 Q116.594 672.291 114.788 671.852 Q113.006 671.412 111.246 671.412 Q106.617 671.412 104.163 674.537 Q101.733 677.662 101.385 683.981 Q102.751 681.967 104.811 680.902 Q106.871 679.815 109.348 679.815 Q114.557 679.815 117.566 682.986 Q120.598 686.134 120.598 691.574 Q120.598 696.898 117.45 700.115 Q114.302 703.333 109.071 703.333 Q103.075 703.333 99.9039 698.75 Q96.7326 694.143 96.7326 685.416 Q96.7326 677.222 100.621 672.361 Q104.51 667.477 111.061 667.477 Q112.82 667.477 114.603 667.824 Q116.408 668.171 118.353 668.866 Z" fill="#000000" fill-rule="evenodd" fill-opacity="1" /><path clip-path="url(#clip330)" d="M63.5152 372.478 Q59.9041 372.478 58.0754 376.042 Q56.2699 379.584 56.2699 386.714 Q56.2699 393.82 58.0754 397.385 Q59.9041 400.927 63.5152 400.927 Q67.1494 400.927 68.955 397.385 Q70.7837 393.82 70.7837 386.714 Q70.7837 379.584 68.955 376.042 Q67.1494 372.478 63.5152 372.478 M63.5152 368.774 Q69.3254 368.774 72.3809 373.38 Q75.4596 377.964 75.4596 386.714 Q75.4596 395.44 72.3809 400.047 Q69.3254 404.63 63.5152 404.63 Q57.7051 404.63 54.6264 400.047 Q51.5708 395.44 51.5708 386.714 Q51.5708 377.964 54.6264 373.38 Q57.7051 368.774 63.5152 368.774 Z" fill="#000000" fill-rule="evenodd" fill-opacity="1" /><path clip-path="url(#clip330)" d="M83.6771 398.079 L88.5614 398.079 L88.5614 403.959 L83.6771 403.959 L83.6771 398.079 Z" fill="#000000" fill-rule="evenodd" fill-opacity="1" /><path clip-path="url(#clip330)" d="M108.746 387.547 Q105.413 387.547 103.492 389.329 Q101.594 391.112 101.594 394.237 Q101.594 397.362 103.492 399.144 Q105.413 400.927 108.746 400.927 Q112.08 400.927 114.001 399.144 Q115.922 397.339 115.922 394.237 Q115.922 391.112 114.001 389.329 Q112.103 387.547 108.746 387.547 M104.071 385.556 Q101.061 384.816 99.3715 382.755 Q97.7048 380.695 97.7048 377.732 Q97.7048 373.589 100.645 371.181 Q103.608 368.774 108.746 368.774 Q113.908 368.774 116.848 371.181 Q119.788 373.589 119.788 377.732 Q119.788 380.695 118.098 382.755 Q116.432 384.816 113.445 385.556 Q116.825 386.343 118.7 388.635 Q120.598 390.927 120.598 394.237 Q120.598 399.26 117.52 401.945 Q114.464 404.63 108.746 404.63 Q103.029 404.63 99.9502 401.945 Q96.8947 399.26 96.8947 394.237 Q96.8947 390.927 98.7928 388.635 Q100.691 386.343 104.071 385.556 M102.358 378.172 Q102.358 380.857 104.024 382.362 Q105.714 383.866 108.746 383.866 Q111.756 383.866 113.445 382.362 Q115.158 380.857 115.158 378.172 Q115.158 375.487 113.445 373.982 Q111.756 372.478 108.746 372.478 Q105.714 372.478 104.024 373.982 Q102.358 375.487 102.358 378.172 Z" fill="#000000" fill-rule="evenodd" fill-opacity="1" /><path clip-path="url(#clip330)" d="M54.2328 101.321 L61.8717 101.321 L61.8717 74.9555 L53.5616 76.6222 L53.5616 72.3629 L61.8254 70.6963 L66.5013 70.6963 L66.5013 101.321 L74.1402 101.321 L74.1402 105.256 L54.2328 105.256 L54.2328 101.321 Z" fill="#000000" fill-rule="evenodd" fill-opacity="1" /><path clip-path="url(#clip330)" d="M83.5845 99.3767 L88.4688 99.3767 L88.4688 105.256 L83.5845 105.256 L83.5845 99.3767 Z" fill="#000000" fill-rule="evenodd" fill-opacity="1" /><path clip-path="url(#clip330)" d="M108.654 73.775 Q105.043 73.775 103.214 77.3398 Q101.409 80.8814 101.409 88.011 Q101.409 95.1174 103.214 98.6822 Q105.043 102.224 108.654 102.224 Q112.288 102.224 114.094 98.6822 Q115.922 95.1174 115.922 88.011 Q115.922 80.8814 114.094 77.3398 Q112.288 73.775 108.654 73.775 M108.654 70.0713 Q114.464 70.0713 117.52 74.6777 Q120.598 79.261 120.598 88.011 Q120.598 96.7378 117.52 101.344 Q114.464 105.928 108.654 105.928 Q102.844 105.928 99.765 101.344 Q96.7095 96.7378 96.7095 88.011 Q96.7095 79.261 99.765 74.6777 Q102.844 70.0713 108.654 70.0713 Z" fill="#000000" fill-rule="evenodd" fill-opacity="1" /><polyline clip-path="url(#clip332)" style="stroke:#009af9; stroke-linecap:round; stroke-linejoin:round; stroke-width:16; stroke-opacity:1; fill:none" points="
  156.598,1445.72 163.747,1444.09 170.896,1442.45 237,1425.74 303.104,1405.98 342.829,1392.33 382.555,1377.12 416.142,1362.87 449.73,1347.16 486.215,1328.25 
  522.701,1307.12 556.337,1285.42 589.973,1261.29 626.035,1232.33 662.097,1199.74 682.987,1178.98 703.878,1156.72 724.768,1132.83 745.659,1107.18 764.224,1082.81 
  782.789,1056.85 801.354,1029.22 819.919,999.808 836.198,972.483 852.478,943.665 868.758,913.301 885.038,881.346 902.787,844.659 920.537,806.024 938.286,765.45 
  956.035,722.982 973.89,678.444 991.745,632.232 1009.6,584.568 1027.45,535.749 1066.94,425.8 1106.42,318.257 1115.81,293.902 1125.2,270.275 1134.59,247.511 
  1143.98,225.745 1153.38,205.115 1162.77,185.758 1172.16,167.81 1181.55,151.4 1191.31,136.102 1201.08,122.73 1210.84,111.4 1220.61,102.215 1230.37,95.256 
  1240.14,90.5894 1249.9,88.2583 1259.67,88.2849 1267.89,90.1354 1276.11,93.6444 1284.33,98.7884 1292.55,105.533 1300.77,113.836 1308.99,123.642 1317.21,134.889 
  1325.43,147.51 1335.47,164.667 1345.5,183.608 1355.54,204.175 1365.57,226.202 1375.61,249.524 1385.64,273.972 1395.68,299.379 1405.72,325.585 1442.49,425.997 
  1479.26,528.463 1496.24,575.049 1513.22,620.653 1530.21,665.001 1547.19,707.888 1564.39,749.689 1581.59,789.738 1598.79,827.977 1615.99,864.388 1635.27,903.029 
  1654.55,939.425 1673.83,973.644 1693.11,1005.77 1710.58,1033.16 1728.05,1058.99 1745.52,1083.33 1762.98,1106.28 1782.99,1130.93 1802.99,1153.96 1822.99,1175.49 
  1842.99,1195.61 1861.51,1213.08 1880.03,1229.52 1898.55,1244.98 1917.07,1259.53 1953.58,1285.81 1990.1,1309.22 2025.55,1329.56 2061,1347.84 2097.35,1364.7 
  2133.69,1379.88 2173.51,1394.84 2213.33,1408.26 2271.18,1425.42 2329.02,1440.22 2340.89,1443.01 2352.76,1445.72 
  "/>
<polyline clip-path="url(#clip332)" style="stroke:#e26f46; stroke-linecap:round; stroke-linejoin:round; stroke-width:16; stroke-opacity:1; fill:none" points="
  156.598,1445.72 163.747,1443.81 170.896,1441.9 237,1423.88 303.104,1404.17 342.829,1390.94 382.555,1376.3 416.142,1362.6 449.73,1347.5 486.215,1329.19 
  522.701,1308.52 556.337,1287.01 589.973,1262.82 626.035,1233.55 662.097,1200.44 682.987,1179.34 703.878,1156.75 724.768,1132.57 745.659,1106.7 764.224,1082.19 
  782.789,1056.15 801.354,1028.5 819.919,999.152 836.198,971.95 852.478,943.317 868.758,913.192 885.038,881.518 902.787,845.15 920.537,806.794 938.286,766.374 
  956.035,723.813 973.89,678.763 991.745,631.428 1009.6,582.207 1027.45,531.797 1047.2,475.528 1066.94,419.615 1086.68,365.01 1106.42,312.664 1115.81,288.829 
  1125.2,265.822 1134.59,243.746 1143.98,222.704 1153.38,202.797 1162.77,184.127 1172.16,166.798 1181.55,150.912 1191.31,136.033 1201.08,122.94 1210.84,111.747 
  1220.61,102.569 1230.37,95.5208 1240.14,90.7184 1249.9,88.2764 1259.67,88.3046 1267.89,90.2462 1276.11,93.8713 1284.33,99.1115 1292.55,105.898 1300.77,114.162 
  1308.99,123.836 1317.21,134.85 1325.43,147.136 1335.47,163.76 1345.5,182.053 1355.54,201.89 1365.57,223.146 1375.61,245.696 1385.64,269.415 1395.68,294.178 
  1405.72,319.862 1424.1,368.888 1442.49,419.814 1460.88,471.872 1479.26,524.293 1496.24,572.366 1513.22,619.49 1530.21,665.059 1547.19,708.601 1564.39,750.615 
  1581.59,790.591 1598.79,828.6 1615.99,864.71 1635.27,903.009 1654.55,939.108 1673.83,973.104 1693.11,1005.1 1710.58,1032.44 1728.05,1058.28 1745.52,1082.71 
  1762.98,1105.79 1782.99,1130.65 1802.99,1153.95 1822.99,1175.79 1842.99,1196.24 1861.51,1214.01 1880.03,1230.69 1898.55,1246.36 1917.07,1261.05 1953.58,1287.39 
  1990.1,1310.58 2025.55,1330.47 2061,1348.15 2097.35,1364.36 2133.69,1378.96 2173.51,1393.36 2213.33,1406.41 2271.18,1423.55 2329.02,1439.38 2340.89,1442.55 
  2352.76,1445.72 
  "/>
<circle clip-path="url(#clip332)" cx="156.598" cy="1445.72" r="14.4" fill="#3da44d" fill-rule="evenodd" fill-opacity="1" stroke="#000000" stroke-opacity="1" stroke-width="3.2"/>
<circle clip-path="url(#clip332)" cx="431.118" cy="1356.05" r="14.4" fill="#3da44d" fill-rule="evenodd" fill-opacity="1" stroke="#000000" stroke-opacity="1" stroke-width="3.2"/>
<circle clip-path="url(#clip332)" cx="705.638" cy="1154.77" r="14.4" fill="#3da44d" fill-rule="evenodd" fill-opacity="1" stroke="#000000" stroke-opacity="1" stroke-width="3.2"/>
<circle clip-path="url(#clip332)" cx="980.157" cy="662.404" r="14.4" fill="#3da44d" fill-rule="evenodd" fill-opacity="1" stroke="#000000" stroke-opacity="1" stroke-width="3.2"/>
<circle clip-path="url(#clip332)" cx="1254.68" cy="87.9763" r="14.4" fill="#3da44d" fill-rule="evenodd" fill-opacity="1" stroke="#000000" stroke-opacity="1" stroke-width="3.2"/>
<circle clip-path="url(#clip332)" cx="1529.2" cy="662.404" r="14.4" fill="#3da44d" fill-rule="evenodd" fill-opacity="1" stroke="#000000" stroke-opacity="1" stroke-width="3.2"/>
<circle clip-path="url(#clip332)" cx="1803.72" cy="1154.77" r="14.4" fill="#3da44d" fill-rule="evenodd" fill-opacity="1" stroke="#000000" stroke-opacity="1" stroke-width="3.2"/>
<circle clip-path="url(#clip332)" cx="2078.24" cy="1356.05" r="14.4" fill="#3da44d" fill-rule="evenodd" fill-opacity="1" stroke="#000000" stroke-opacity="1" stroke-width="3.2"/>
<circle clip-path="url(#clip332)" cx="2352.76" cy="1445.72" r="14.4" fill="#3da44d" fill-rule="evenodd" fill-opacity="1" stroke="#000000" stroke-opacity="1" stroke-width="3.2"/>
<path clip-path="url(#clip330)" d="
M1956.02 406.258 L2279.55 406.258 L2279.55 95.2176 L1956.02 95.2176  Z
  " fill="#ffffff" fill-rule="evenodd" fill-opacity="1"/>
<polyline clip-path="url(#clip330)" style="stroke:#000000; stroke-linecap:round; stroke-linejoin:round; stroke-width:4; stroke-opacity:1; fill:none" points="
  1956.02,406.258 2279.55,406.258 2279.55,95.2176 1956.02,95.2176 1956.02,406.258 
  "/>
<polyline clip-path="url(#clip330)" style="stroke:#009af9; stroke-linecap:round; stroke-linejoin:round; stroke-width:6; stroke-opacity:1; fill:none" points="
  1980.42,172.978 2126.83,172.978 
  "/>
<path clip-path="url(#clip330)" d="M2172 202.509 Q2169.29 209.453 2166.72 211.571 Q2164.15 213.689 2159.84 213.689 L2154.74 213.689 L2154.74 208.342 L2158.49 208.342 Q2161.13 208.342 2162.59 207.092 Q2164.05 205.842 2165.82 201.189 L2166.96 198.273 L2151.23 160.009 L2158 160.009 L2170.16 190.425 L2182.31 160.009 L2189.08 160.009 L2172 202.509 Z" fill="#000000" fill-rule="evenodd" fill-opacity="1" /><path clip-path="url(#clip330)" d="M2200.02 192.995 L2211.48 192.995 L2211.48 153.446 L2199.01 155.946 L2199.01 149.558 L2211.41 147.058 L2218.42 147.058 L2218.42 192.995 L2229.88 192.995 L2229.88 198.898 L2200.02 198.898 L2200.02 192.995 Z" fill="#000000" fill-rule="evenodd" fill-opacity="1" /><polyline clip-path="url(#clip330)" style="stroke:#e26f46; stroke-linecap:round; stroke-linejoin:round; stroke-width:6; stroke-opacity:1; fill:none" points="
  1980.42,250.738 2126.83,250.738 
  "/>
<path clip-path="url(#clip330)" d="M2172 280.269 Q2169.29 287.213 2166.72 289.331 Q2164.15 291.449 2159.84 291.449 L2154.74 291.449 L2154.74 286.102 L2158.49 286.102 Q2161.13 286.102 2162.59 284.852 Q2164.05 283.602 2165.82 278.949 L2166.96 276.033 L2151.23 237.769 L2158 237.769 L2170.16 268.185 L2182.31 237.769 L2189.08 237.769 L2172 280.269 Z" fill="#000000" fill-rule="evenodd" fill-opacity="1" /><path clip-path="url(#clip330)" d="M2204.84 270.755 L2229.32 270.755 L2229.32 276.658 L2196.41 276.658 L2196.41 270.755 Q2200.4 266.623 2207.28 259.678 Q2214.18 252.699 2215.96 250.685 Q2219.32 246.901 2220.64 244.297 Q2222 241.658 2222 239.123 Q2222 234.991 2219.08 232.387 Q2216.2 229.783 2211.55 229.783 Q2208.25 229.783 2204.57 230.929 Q2200.92 232.074 2196.75 234.401 L2196.75 227.318 Q2200.99 225.616 2204.67 224.748 Q2208.35 223.88 2211.41 223.88 Q2219.46 223.88 2224.25 227.908 Q2229.05 231.936 2229.05 238.672 Q2229.05 241.866 2227.83 244.748 Q2226.65 247.595 2223.49 251.484 Q2222.62 252.491 2217.97 257.317 Q2213.32 262.109 2204.84 270.755 Z" fill="#000000" fill-rule="evenodd" fill-opacity="1" /><circle clip-path="url(#clip330)" cx="2053.63" cy="328.498" r="34.56" fill="#3da44d" fill-rule="evenodd" fill-opacity="1" stroke="#000000" stroke-opacity="1" stroke-width="7.68"/>
<path clip-path="url(#clip330)" d="M2172 358.029 Q2169.29 364.973 2166.72 367.091 Q2164.15 369.209 2159.84 369.209 L2154.74 369.209 L2154.74 363.862 L2158.49 363.862 Q2161.13 363.862 2162.59 362.612 Q2164.05 361.362 2165.82 356.709 L2166.96 353.793 L2151.23 315.529 L2158 315.529 L2170.16 345.945 L2182.31 315.529 L2189.08 315.529 L2172 358.029 Z" fill="#000000" fill-rule="evenodd" fill-opacity="1" /><path clip-path="url(#clip330)" d="M2220.05 326.466 Q2225.09 327.543 2227.9 330.945 Q2230.75 334.348 2230.75 339.348 Q2230.75 347.022 2225.47 351.223 Q2220.19 355.424 2210.47 355.424 Q2207.21 355.424 2203.73 354.765 Q2200.3 354.14 2196.62 352.855 L2196.62 346.084 Q2199.53 347.786 2203 348.654 Q2206.48 349.522 2210.26 349.522 Q2216.86 349.522 2220.3 346.918 Q2223.77 344.313 2223.77 339.348 Q2223.77 334.765 2220.54 332.195 Q2217.34 329.591 2211.62 329.591 L2205.57 329.591 L2205.57 323.827 L2211.89 323.827 Q2217.07 323.827 2219.81 321.779 Q2222.55 319.696 2222.55 315.807 Q2222.55 311.814 2219.71 309.696 Q2216.89 307.543 2211.62 307.543 Q2208.73 307.543 2205.43 308.168 Q2202.14 308.793 2198.18 310.112 L2198.18 303.862 Q2202.17 302.751 2205.64 302.196 Q2209.15 301.64 2212.24 301.64 Q2220.23 301.64 2224.88 305.286 Q2229.53 308.897 2229.53 315.077 Q2229.53 319.383 2227.07 322.369 Q2224.6 325.32 2220.05 326.466 Z" fill="#000000" fill-rule="evenodd" fill-opacity="1" /></svg>
