<?xml version="1.0" encoding="utf-8"?>
<svg xmlns="http://www.w3.org/2000/svg" xmlns:xlink="http://www.w3.org/1999/xlink" width="600" height="400" viewBox="0 0 2400 1600">
<defs>
  <clipPath id="clip280">
    <rect x="0" y="0" width="2400" height="1600"/>
  </clipPath>
</defs>
<path clip-path="url(#clip280)" d="
M0 1600 L2400 1600 L2400 0 L0 0  Z
  " fill="#ffffff" fill-rule="evenodd" fill-opacity="1"/>
<defs>
  <clipPath id="clip281">
    <rect x="480" y="0" width="1681" height="1600"/>
  </clipPath>
</defs>
<path clip-path="url(#clip280)" d="
M194.422 1474.16 L2352.76 1474.16 L2352.76 47.2441 L194.422 47.2441  Z
  " fill="#ffffff" fill-rule="evenodd" fill-opacity="1"/>
<defs>
  <clipPath id="clip282">
    <rect x="194" y="47" width="2159" height="1428"/>
  </clipPath>
</defs>
<polyline clip-path="url(#clip282)" style="stroke:#000000; stroke-linecap:butt; stroke-linejoin:round; stroke-width:2; stroke-opacity:0.1; fill:none" points="
  255.507,1474.16 255.507,47.2441 
  "/>
<polyline clip-path="url(#clip282)" style="stroke:#000000; stroke-linecap:butt; stroke-linejoin:round; stroke-width:2; stroke-opacity:0.1; fill:none" points="
  1608.31,1474.16 1608.31,47.2441 
  "/>
<polyline clip-path="url(#clip280)" style="stroke:#000000; stroke-linecap:butt; stroke-linejoin:round; stroke-width:4; stroke-opacity:1; fill:none" points="
  194.422,1474.16 2352.76,1474.16 
  "/>
<polyline clip-path="url(#clip280)" style="stroke:#000000; stroke-linecap:butt; stroke-linejoin:round; stroke-width:4; stroke-opacity:1; fill:none" points="
  255.507,1474.16 255.507,1455.27 
  "/>
<polyline clip-path="url(#clip280)" style="stroke:#000000; stroke-linecap:butt; stroke-linejoin:round; stroke-width:4; stroke-opacity:1; fill:none" points="
  1608.31,1474.16 1608.31,1455.27 
  "/>
<path clip-path="url(#clip280)" d="M220.49 1548.29 L228.129 1548.29 L228.129 1521.92 L219.819 1523.59 L219.819 1519.33 L228.082 1517.66 L232.758 1517.66 L232.758 1548.29 L240.397 1548.29 L240.397 1552.22 L220.49 1552.22 L220.49 1548.29 Z" fill="#000000" fill-rule="evenodd" fill-opacity="1" /><path clip-path="url(#clip280)" d="M259.841 1520.74 Q256.23 1520.74 254.402 1524.31 Q252.596 1527.85 252.596 1534.98 Q252.596 1542.09 254.402 1545.65 Q256.23 1549.19 259.841 1549.19 Q263.476 1549.19 265.281 1545.65 Q267.11 1542.09 267.11 1534.98 Q267.11 1527.85 265.281 1524.31 Q263.476 1520.74 259.841 1520.74 M259.841 1517.04 Q265.652 1517.04 268.707 1521.65 Q271.786 1526.23 271.786 1534.98 Q271.786 1543.71 268.707 1548.31 Q265.652 1552.9 259.841 1552.9 Q254.031 1552.9 250.953 1548.31 Q247.897 1543.71 247.897 1534.98 Q247.897 1526.23 250.953 1521.65 Q254.031 1517.04 259.841 1517.04 Z" fill="#000000" fill-rule="evenodd" fill-opacity="1" /><path clip-path="url(#clip280)" d="M281.491 1499.24 Q278.557 1499.24 277.071 1502.13 Q275.604 1505.01 275.604 1510.8 Q275.604 1516.58 277.071 1519.47 Q278.557 1522.35 281.491 1522.35 Q284.444 1522.35 285.911 1519.47 Q287.396 1516.58 287.396 1510.8 Q287.396 1505.01 285.911 1502.13 Q284.444 1499.24 281.491 1499.24 M281.491 1496.23 Q286.211 1496.23 288.694 1499.97 Q291.195 1503.69 291.195 1510.8 Q291.195 1517.89 288.694 1521.64 Q286.211 1525.36 281.491 1525.36 Q276.77 1525.36 274.268 1521.64 Q271.786 1517.89 271.786 1510.8 Q271.786 1503.69 274.268 1499.97 Q276.77 1496.23 281.491 1496.23 Z" fill="#000000" fill-rule="evenodd" fill-opacity="1" /><path clip-path="url(#clip280)" d="M1574.08 1548.29 L1581.72 1548.29 L1581.72 1521.92 L1573.41 1523.59 L1573.41 1519.33 L1581.67 1517.66 L1586.35 1517.66 L1586.35 1548.29 L1593.99 1548.29 L1593.99 1552.22 L1574.08 1552.22 L1574.08 1548.29 Z" fill="#000000" fill-rule="evenodd" fill-opacity="1" /><path clip-path="url(#clip280)" d="M1613.43 1520.74 Q1609.82 1520.74 1607.99 1524.31 Q1606.18 1527.85 1606.18 1534.98 Q1606.18 1542.09 1607.99 1545.65 Q1609.82 1549.19 1613.43 1549.19 Q1617.06 1549.19 1618.87 1545.65 Q1620.7 1542.09 1620.7 1534.98 Q1620.7 1527.85 1618.87 1524.31 Q1617.06 1520.74 1613.43 1520.74 M1613.43 1517.04 Q1619.24 1517.04 1622.3 1521.65 Q1625.37 1526.23 1625.37 1534.98 Q1625.37 1543.71 1622.3 1548.31 Q1619.24 1552.9 1613.43 1552.9 Q1607.62 1552.9 1604.54 1548.31 Q1601.49 1543.71 1601.49 1534.98 Q1601.49 1526.23 1604.54 1521.65 Q1607.62 1517.04 1613.43 1517.04 Z" fill="#000000" fill-rule="evenodd" fill-opacity="1" /><path clip-path="url(#clip280)" d="M1629.94 1521.62 L1643.2 1521.62 L1643.2 1524.81 L1625.37 1524.81 L1625.37 1521.62 Q1627.54 1519.38 1631.26 1515.62 Q1635 1511.84 1635.96 1510.75 Q1637.79 1508.7 1638.5 1507.29 Q1639.24 1505.86 1639.24 1504.48 Q1639.24 1502.24 1637.66 1500.83 Q1636.09 1499.42 1633.57 1499.42 Q1631.79 1499.42 1629.79 1500.04 Q1627.82 1500.67 1625.56 1501.93 L1625.56 1498.09 Q1627.86 1497.17 1629.85 1496.7 Q1631.84 1496.23 1633.5 1496.23 Q1637.86 1496.23 1640.46 1498.41 Q1643.05 1500.59 1643.05 1504.24 Q1643.05 1505.97 1642.39 1507.53 Q1641.76 1509.07 1640.04 1511.18 Q1639.57 1511.72 1637.05 1514.34 Q1634.53 1516.93 1629.94 1521.62 Z" fill="#000000" fill-rule="evenodd" fill-opacity="1" /><polyline clip-path="url(#clip282)" style="stroke:#000000; stroke-linecap:butt; stroke-linejoin:round; stroke-width:2; stroke-opacity:0.1; fill:none" points="
  194.422,1339.85 2352.76,1339.85 
  "/>
<polyline clip-path="url(#clip282)" style="stroke:#000000; stroke-linecap:butt; stroke-linejoin:round; stroke-width:2; stroke-opacity:0.1; fill:none" points="
  194.422,1130.81 2352.76,1130.81 
  "/>
<polyline clip-path="url(#clip282)" style="stroke:#000000; stroke-linecap:butt; stroke-linejoin:round; stroke-width:2; stroke-opacity:0.1; fill:none" points="
  194.422,921.762 2352.76,921.762 
  "/>
<polyline clip-path="url(#clip282)" style="stroke:#000000; stroke-linecap:butt; stroke-linejoin:round; stroke-width:2; stroke-opacity:0.1; fill:none" points="
  194.422,712.718 2352.76,712.718 
  "/>
<polyline clip-path="url(#clip282)" style="stroke:#000000; stroke-linecap:butt; stroke-linejoin:round; stroke-width:2; stroke-opacity:0.1; fill:none" points="
  194.422,503.675 2352.76,503.675 
  "/>
<polyline clip-path="url(#clip282)" style="stroke:#000000; stroke-linecap:butt; stroke-linejoin:round; stroke-width:2; stroke-opacity:0.1; fill:none" points="
  194.422,294.632 2352.76,294.632 
  "/>
<polyline clip-path="url(#clip282)" style="stroke:#000000; stroke-linecap:butt; stroke-linejoin:round; stroke-width:2; stroke-opacity:0.1; fill:none" points="
  194.422,85.5882 2352.76,85.5882 
  "/>
<polyline clip-path="url(#clip280)" style="stroke:#000000; stroke-linecap:butt; stroke-linejoin:round; stroke-width:4; stroke-opacity:1; fill:none" points="
  194.422,1474.16 194.422,47.2441 
  "/>
<polyline clip-path="url(#clip280)" style="stroke:#000000; stroke-linecap:butt; stroke-linejoin:round; stroke-width:4; stroke-opacity:1; fill:none" points="
  194.422,1339.85 213.32,1339.85 
  "/>
<polyline clip-path="url(#clip280)" style="stroke:#000000; stroke-linecap:butt; stroke-linejoin:round; stroke-width:4; stroke-opacity:1; fill:none" points="
  194.422,1130.81 213.32,1130.81 
  "/>
<polyline clip-path="url(#clip280)" style="stroke:#000000; stroke-linecap:butt; stroke-linejoin:round; stroke-width:4; stroke-opacity:1; fill:none" points="
  194.422,921.762 213.32,921.762 
  "/>
<polyline clip-path="url(#clip280)" style="stroke:#000000; stroke-linecap:butt; stroke-linejoin:round; stroke-width:4; stroke-opacity:1; fill:none" points="
  194.422,712.718 213.32,712.718 
  "/>
<polyline clip-path="url(#clip280)" style="stroke:#000000; stroke-linecap:butt; stroke-linejoin:round; stroke-width:4; stroke-opacity:1; fill:none" points="
  194.422,503.675 213.32,503.675 
  "/>
<polyline clip-path="url(#clip280)" style="stroke:#000000; stroke-linecap:butt; stroke-linejoin:round; stroke-width:4; stroke-opacity:1; fill:none" points="
  194.422,294.632 213.32,294.632 
  "/>
<polyline clip-path="url(#clip280)" style="stroke:#000000; stroke-linecap:butt; stroke-linejoin:round; stroke-width:4; stroke-opacity:1; fill:none" points="
  194.422,85.5882 213.32,85.5882 
  "/>
<path clip-path="url(#clip280)" d="M51.3162 1340.3 L80.992 1340.3 L80.992 1344.23 L51.3162 1344.23 L51.3162 1340.3 Z" fill="#000000" fill-rule="evenodd" fill-opacity="1" /><path clip-path="url(#clip280)" d="M101.084 1325.65 Q97.4734 1325.65 95.6447 1329.21 Q93.8391 1332.75 93.8391 1339.88 Q93.8391 1346.99 95.6447 1350.55 Q97.4734 1354.1 101.084 1354.1 Q104.719 1354.1 106.524 1350.55 Q108.353 1346.99 108.353 1339.88 Q108.353 1332.75 106.524 1329.21 Q104.719 1325.65 101.084 1325.65 M101.084 1321.94 Q106.895 1321.94 109.95 1326.55 Q113.029 1331.13 113.029 1339.88 Q113.029 1348.61 109.95 1353.22 Q106.895 1357.8 101.084 1357.8 Q95.2743 1357.8 92.1956 1353.22 Q89.1401 1348.61 89.1401 1339.88 Q89.1401 1331.13 92.1956 1326.55 Q95.2743 1321.94 101.084 1321.94 Z" fill="#000000" fill-rule="evenodd" fill-opacity="1" /><path clip-path="url(#clip280)" d="M121.246 1351.25 L126.131 1351.25 L126.131 1357.13 L121.246 1357.13 L121.246 1351.25 Z" fill="#000000" fill-rule="evenodd" fill-opacity="1" /><path clip-path="url(#clip280)" d="M146.894 1337.99 Q143.746 1337.99 141.894 1340.14 Q140.066 1342.29 140.066 1346.04 Q140.066 1349.77 141.894 1351.94 Q143.746 1354.1 146.894 1354.1 Q150.043 1354.1 151.871 1351.94 Q153.723 1349.77 153.723 1346.04 Q153.723 1342.29 151.871 1340.14 Q150.043 1337.99 146.894 1337.99 M156.177 1323.33 L156.177 1327.59 Q154.417 1326.76 152.612 1326.32 Q150.83 1325.88 149.07 1325.88 Q144.441 1325.88 141.987 1329 Q139.556 1332.13 139.209 1338.45 Q140.575 1336.43 142.635 1335.37 Q144.695 1334.28 147.172 1334.28 Q152.38 1334.28 155.39 1337.45 Q158.422 1340.6 158.422 1346.04 Q158.422 1351.36 155.274 1354.58 Q152.126 1357.8 146.894 1357.8 Q140.899 1357.8 137.728 1353.22 Q134.556 1348.61 134.556 1339.88 Q134.556 1331.69 138.445 1326.83 Q142.334 1321.94 148.885 1321.94 Q150.644 1321.94 152.427 1322.29 Q154.232 1322.64 156.177 1323.33 Z" fill="#000000" fill-rule="evenodd" fill-opacity="1" /><path clip-path="url(#clip280)" d="M52.4736 1131.26 L82.1494 1131.26 L82.1494 1135.19 L52.4736 1135.19 L52.4736 1131.26 Z" fill="#000000" fill-rule="evenodd" fill-opacity="1" /><path clip-path="url(#clip280)" d="M102.242 1116.6 Q98.6308 1116.6 96.8021 1120.17 Q94.9965 1123.71 94.9965 1130.84 Q94.9965 1137.95 96.8021 1141.51 Q98.6308 1145.05 102.242 1145.05 Q105.876 1145.05 107.682 1141.51 Q109.51 1137.95 109.51 1130.84 Q109.51 1123.71 107.682 1120.17 Q105.876 1116.6 102.242 1116.6 M102.242 1112.9 Q108.052 1112.9 111.108 1117.51 Q114.186 1122.09 114.186 1130.84 Q114.186 1139.57 111.108 1144.17 Q108.052 1148.76 102.242 1148.76 Q96.4317 1148.76 93.353 1144.17 Q90.2975 1139.57 90.2975 1130.84 Q90.2975 1122.09 93.353 1117.51 Q96.4317 1112.9 102.242 1112.9 Z" fill="#000000" fill-rule="evenodd" fill-opacity="1" /><path clip-path="url(#clip280)" d="M122.404 1142.21 L127.288 1142.21 L127.288 1148.09 L122.404 1148.09 L122.404 1142.21 Z" fill="#000000" fill-rule="evenodd" fill-opacity="1" /><path clip-path="url(#clip280)" d="M137.519 1113.53 L155.876 1113.53 L155.876 1117.46 L141.802 1117.46 L141.802 1125.93 Q142.82 1125.59 143.839 1125.42 Q144.857 1125.24 145.876 1125.24 Q151.663 1125.24 155.042 1128.41 Q158.422 1131.58 158.422 1137 Q158.422 1142.58 154.95 1145.68 Q151.478 1148.76 145.158 1148.76 Q142.982 1148.76 140.714 1148.39 Q138.469 1148.02 136.061 1147.27 L136.061 1142.58 Q138.144 1143.71 140.367 1144.27 Q142.589 1144.82 145.066 1144.82 Q149.07 1144.82 151.408 1142.71 Q153.746 1140.61 153.746 1137 Q153.746 1133.39 151.408 1131.28 Q149.07 1129.17 145.066 1129.17 Q143.191 1129.17 141.316 1129.59 Q139.464 1130.01 137.519 1130.89 L137.519 1113.53 Z" fill="#000000" fill-rule="evenodd" fill-opacity="1" /><path clip-path="url(#clip280)" d="M50.9921 922.213 L80.6679 922.213 L80.6679 926.148 L50.9921 926.148 L50.9921 922.213 Z" fill="#000000" fill-rule="evenodd" fill-opacity="1" /><path clip-path="url(#clip280)" d="M100.76 907.56 Q97.1493 907.56 95.3206 911.125 Q93.515 914.667 93.515 921.796 Q93.515 928.903 95.3206 932.468 Q97.1493 936.009 100.76 936.009 Q104.395 936.009 106.2 932.468 Q108.029 928.903 108.029 921.796 Q108.029 914.667 106.2 911.125 Q104.395 907.56 100.76 907.56 M100.76 903.857 Q106.571 903.857 109.626 908.463 Q112.705 913.046 112.705 921.796 Q112.705 930.523 109.626 935.13 Q106.571 939.713 100.76 939.713 Q94.9502 939.713 91.8715 935.13 Q88.816 930.523 88.816 921.796 Q88.816 913.046 91.8715 908.463 Q94.9502 903.857 100.76 903.857 Z" fill="#000000" fill-rule="evenodd" fill-opacity="1" /><path clip-path="url(#clip280)" d="M120.922 933.162 L125.807 933.162 L125.807 939.042 L120.922 939.042 L120.922 933.162 Z" fill="#000000" fill-rule="evenodd" fill-opacity="1" /><path clip-path="url(#clip280)" d="M148.839 908.556 L137.033 927.005 L148.839 927.005 L148.839 908.556 M147.612 904.482 L153.492 904.482 L153.492 927.005 L158.422 927.005 L158.422 930.894 L153.492 930.894 L153.492 939.042 L148.839 939.042 L148.839 930.894 L133.237 930.894 L133.237 926.38 L147.612 904.482 Z" fill="#000000" fill-rule="evenodd" fill-opacity="1" /><path clip-path="url(#clip280)" d="M52.1264 713.17 L81.8021 713.17 L81.8021 717.105 L52.1264 717.105 L52.1264 713.17 Z" fill="#000000" fill-rule="evenodd" fill-opacity="1" /><path clip-path="url(#clip280)" d="M101.895 698.517 Q98.2835 698.517 96.4548 702.082 Q94.6493 705.623 94.6493 712.753 Q94.6493 719.859 96.4548 723.424 Q98.2835 726.966 101.895 726.966 Q105.529 726.966 107.334 723.424 Q109.163 719.859 109.163 712.753 Q109.163 705.623 107.334 702.082 Q105.529 698.517 101.895 698.517 M101.895 694.813 Q107.705 694.813 110.76 699.42 Q113.839 704.003 113.839 712.753 Q113.839 721.48 110.76 726.086 Q107.705 730.67 101.895 730.67 Q96.0845 730.67 93.0058 726.086 Q89.9503 721.48 89.9503 712.753 Q89.9503 704.003 93.0058 699.42 Q96.0845 694.813 101.895 694.813 Z" fill="#000000" fill-rule="evenodd" fill-opacity="1" /><path clip-path="url(#clip280)" d="M122.057 724.119 L126.941 724.119 L126.941 729.998 L122.057 729.998 L122.057 724.119 Z" fill="#000000" fill-rule="evenodd" fill-opacity="1" /><path clip-path="url(#clip280)" d="M151.293 711.364 Q154.649 712.082 156.524 714.35 Q158.422 716.619 158.422 719.952 Q158.422 725.068 154.904 727.869 Q151.385 730.67 144.904 730.67 Q142.728 730.67 140.413 730.23 Q138.121 729.813 135.668 728.957 L135.668 724.443 Q137.612 725.577 139.927 726.156 Q142.242 726.734 144.765 726.734 Q149.163 726.734 151.455 724.998 Q153.769 723.262 153.769 719.952 Q153.769 716.897 151.617 715.184 Q149.487 713.447 145.668 713.447 L141.64 713.447 L141.64 709.605 L145.853 709.605 Q149.302 709.605 151.13 708.239 Q152.959 706.85 152.959 704.258 Q152.959 701.596 151.061 700.184 Q149.186 698.748 145.668 698.748 Q143.746 698.748 141.547 699.165 Q139.348 699.582 136.709 700.461 L136.709 696.295 Q139.371 695.554 141.686 695.184 Q144.024 694.813 146.084 694.813 Q151.408 694.813 154.51 697.244 Q157.612 699.651 157.612 703.772 Q157.612 706.642 155.968 708.633 Q154.325 710.6 151.293 711.364 Z" fill="#000000" fill-rule="evenodd" fill-opacity="1" /><path clip-path="url(#clip280)" d="M53.0754 504.126 L82.7512 504.126 L82.7512 508.061 L53.0754 508.061 L53.0754 504.126 Z" fill="#000000" fill-rule="evenodd" fill-opacity="1" /><path clip-path="url(#clip280)" d="M102.844 489.474 Q99.2326 489.474 97.4039 493.038 Q95.5984 496.58 95.5984 503.71 Q95.5984 510.816 97.4039 514.381 Q99.2326 517.923 102.844 517.923 Q106.478 517.923 108.283 514.381 Q110.112 510.816 110.112 503.71 Q110.112 496.58 108.283 493.038 Q106.478 489.474 102.844 489.474 M102.844 485.77 Q108.654 485.77 111.709 490.376 Q114.788 494.96 114.788 503.71 Q114.788 512.436 111.709 517.043 Q108.654 521.626 102.844 521.626 Q97.0335 521.626 93.9549 517.043 Q90.8993 512.436 90.8993 503.71 Q90.8993 494.96 93.9549 490.376 Q97.0335 485.77 102.844 485.77 Z" fill="#000000" fill-rule="evenodd" fill-opacity="1" /><path clip-path="url(#clip280)" d="M123.006 515.075 L127.89 515.075 L127.89 520.955 L123.006 520.955 L123.006 515.075 Z" fill="#000000" fill-rule="evenodd" fill-opacity="1" /><path clip-path="url(#clip280)" d="M142.103 517.02 L158.422 517.02 L158.422 520.955 L136.478 520.955 L136.478 517.02 Q139.14 514.265 143.723 509.636 Q148.33 504.983 149.51 503.64 Q151.755 501.117 152.635 499.381 Q153.538 497.622 153.538 495.932 Q153.538 493.177 151.593 491.441 Q149.672 489.705 146.57 489.705 Q144.371 489.705 141.918 490.469 Q139.487 491.233 136.709 492.784 L136.709 488.062 Q139.533 486.927 141.987 486.349 Q144.441 485.77 146.478 485.77 Q151.848 485.77 155.042 488.455 Q158.237 491.14 158.237 495.631 Q158.237 497.761 157.427 499.682 Q156.64 501.58 154.533 504.173 Q153.955 504.844 150.853 508.061 Q147.751 511.256 142.103 517.02 Z" fill="#000000" fill-rule="evenodd" fill-opacity="1" /><path clip-path="url(#clip280)" d="M52.7051 295.083 L82.3808 295.083 L82.3808 299.018 L52.7051 299.018 L52.7051 295.083 Z" fill="#000000" fill-rule="evenodd" fill-opacity="1" /><path clip-path="url(#clip280)" d="M102.473 280.43 Q98.8622 280.43 97.0335 283.995 Q95.228 287.537 95.228 294.666 Q95.228 301.773 97.0335 305.338 Q98.8622 308.879 102.473 308.879 Q106.108 308.879 107.913 305.338 Q109.742 301.773 109.742 294.666 Q109.742 287.537 107.913 283.995 Q106.108 280.43 102.473 280.43 M102.473 276.727 Q108.283 276.727 111.339 281.333 Q114.418 285.916 114.418 294.666 Q114.418 303.393 111.339 308 Q108.283 312.583 102.473 312.583 Q96.6632 312.583 93.5845 308 Q90.529 303.393 90.529 294.666 Q90.529 285.916 93.5845 281.333 Q96.6632 276.727 102.473 276.727 Z" fill="#000000" fill-rule="evenodd" fill-opacity="1" /><path clip-path="url(#clip280)" d="M122.635 306.032 L127.519 306.032 L127.519 311.912 L122.635 311.912 L122.635 306.032 Z" fill="#000000" fill-rule="evenodd" fill-opacity="1" /><path clip-path="url(#clip280)" d="M138.515 307.976 L146.154 307.976 L146.154 281.611 L137.844 283.277 L137.844 279.018 L146.107 277.352 L150.783 277.352 L150.783 307.976 L158.422 307.976 L158.422 311.912 L138.515 311.912 L138.515 307.976 Z" fill="#000000" fill-rule="evenodd" fill-opacity="1" /><path clip-path="url(#clip280)" d="M101.246 71.3869 Q97.6354 71.3869 95.8067 74.9517 Q94.0012 78.4933 94.0012 85.6229 Q94.0012 92.7294 95.8067 96.2942 Q97.6354 99.8358 101.246 99.8358 Q104.881 99.8358 106.686 96.2942 Q108.515 92.7294 108.515 85.6229 Q108.515 78.4933 106.686 74.9517 Q104.881 71.3869 101.246 71.3869 M101.246 67.6832 Q107.057 67.6832 110.112 72.2897 Q113.191 76.873 113.191 85.6229 Q113.191 94.3497 110.112 98.9562 Q107.057 103.539 101.246 103.539 Q95.4363 103.539 92.3576 98.9562 Q89.3021 94.3497 89.3021 85.6229 Q89.3021 76.873 92.3576 72.2897 Q95.4363 67.6832 101.246 67.6832 Z" fill="#000000" fill-rule="evenodd" fill-opacity="1" /><path clip-path="url(#clip280)" d="M121.408 96.9886 L126.293 96.9886 L126.293 102.868 L121.408 102.868 L121.408 96.9886 Z" fill="#000000" fill-rule="evenodd" fill-opacity="1" /><path clip-path="url(#clip280)" d="M146.478 71.3869 Q142.867 71.3869 141.038 74.9517 Q139.232 78.4933 139.232 85.6229 Q139.232 92.7294 141.038 96.2942 Q142.867 99.8358 146.478 99.8358 Q150.112 99.8358 151.918 96.2942 Q153.746 92.7294 153.746 85.6229 Q153.746 78.4933 151.918 74.9517 Q150.112 71.3869 146.478 71.3869 M146.478 67.6832 Q152.288 67.6832 155.343 72.2897 Q158.422 76.873 158.422 85.6229 Q158.422 94.3497 155.343 98.9562 Q152.288 103.539 146.478 103.539 Q140.668 103.539 137.589 98.9562 Q134.533 94.3497 134.533 85.6229 Q134.533 76.873 137.589 72.2897 Q140.668 67.6832 146.478 67.6832 Z" fill="#000000" fill-rule="evenodd" fill-opacity="1" /><polyline clip-path="url(#clip282)" style="stroke:#009af9; stroke-linecap:butt; stroke-linejoin:round; stroke-width:4; stroke-opacity:1; fill:none" points="
  255.507,1433.78 459.123,911.172 662.74,548.249 866.356,331.239 1069.97,212.242 1273.59,149.904 1477.21,117.997 1680.82,101.856 1884.44,93.738 2088.05,89.6671 
  2291.67,87.6286 
  "/>
<path clip-path="url(#clip280)" d="
M1988.57 198.488 L2280.81 198.488 L2280.81 94.8081 L1988.57 94.8081  Z
  " fill="#ffffff" fill-rule="evenodd" fill-opacity="1"/>
<polyline clip-path="url(#clip280)" style="stroke:#000000; stroke-linecap:butt; stroke-linejoin:round; stroke-width:4; stroke-opacity:1; fill:none" points="
  1988.57,198.488 2280.81,198.488 2280.81,94.8081 1988.57,94.8081 1988.57,198.488 
  "/>
<polyline clip-path="url(#clip280)" style="stroke:#009af9; stroke-linecap:butt; stroke-linejoin:round; stroke-width:4; stroke-opacity:1; fill:none" points="
  2012.55,146.648 2156.44,146.648 
  "/>
<path clip-path="url(#clip280)" d="M2194.26 166.336 Q2192.46 170.965 2190.74 172.377 Q2189.03 173.789 2186.16 173.789 L2182.76 173.789 L2182.76 170.224 L2185.26 170.224 Q2187.02 170.224 2187.99 169.391 Q2188.96 168.558 2190.14 165.456 L2190.9 163.511 L2180.42 138.002 L2184.93 138.002 L2193.03 158.28 L2201.14 138.002 L2205.65 138.002 L2194.26 166.336 Z" fill="#000000" fill-rule="evenodd" fill-opacity="1" /><path clip-path="url(#clip280)" d="M2212.94 159.993 L2220.58 159.993 L2220.58 133.627 L2212.27 135.294 L2212.27 131.035 L2220.53 129.368 L2225.21 129.368 L2225.21 159.993 L2232.85 159.993 L2232.85 163.928 L2212.94 163.928 L2212.94 159.993 Z" fill="#000000" fill-rule="evenodd" fill-opacity="1" /></svg>
