<?xml version="1.0" encoding="utf-8"?>
<svg xmlns="http://www.w3.org/2000/svg" xmlns:xlink="http://www.w3.org/1999/xlink" width="600" height="400" viewBox="0 0 2400 1600">
<defs>
  <clipPath id="clip200">
    <rect x="0" y="0" width="2400" height="1600"/>
  </clipPath>
</defs>
<path clip-path="url(#clip200)" d="
M0 1600 L2400 1600 L2400 0 L0 0  Z
  " fill="#ffffff" fill-rule="evenodd" fill-opacity="1"/>
<defs>
  <clipPath id="clip201">
    <rect x="480" y="0" width="1681" height="1600"/>
  </clipPath>
</defs>
<path clip-path="url(#clip200)" d="
M154.515 1486.45 L2352.76 1486.45 L2352.76 47.2441 L154.515 47.2441  Z
  " fill="#ffffff" fill-rule="evenodd" fill-opacity="1"/>
<defs>
  <clipPath id="clip202">
    <rect x="154" y="47" width="2199" height="1440"/>
  </clipPath>
</defs>
<polyline clip-path="url(#clip202)" style="stroke:#000000; stroke-linecap:butt; stroke-linejoin:round; stroke-width:2; stroke-opacity:0.1; fill:none" points="
  214.702,1486.45 214.702,47.2441 
  "/>
<polyline clip-path="url(#clip202)" style="stroke:#000000; stroke-linecap:butt; stroke-linejoin:round; stroke-width:2; stroke-opacity:0.1; fill:none" points="
  721.499,1486.45 721.499,47.2441 
  "/>
<polyline clip-path="url(#clip202)" style="stroke:#000000; stroke-linecap:butt; stroke-linejoin:round; stroke-width:2; stroke-opacity:0.1; fill:none" points="
  1228.3,1486.45 1228.3,47.2441 
  "/>
<polyline clip-path="url(#clip202)" style="stroke:#000000; stroke-linecap:butt; stroke-linejoin:round; stroke-width:2; stroke-opacity:0.1; fill:none" points="
  1735.09,1486.45 1735.09,47.2441 
  "/>
<polyline clip-path="url(#clip202)" style="stroke:#000000; stroke-linecap:butt; stroke-linejoin:round; stroke-width:2; stroke-opacity:0.1; fill:none" points="
  2241.89,1486.45 2241.89,47.2441 
  "/>
<polyline clip-path="url(#clip200)" style="stroke:#000000; stroke-linecap:butt; stroke-linejoin:round; stroke-width:4; stroke-opacity:1; fill:none" points="
  154.515,1486.45 2352.76,1486.45 
  "/>
<polyline clip-path="url(#clip200)" style="stroke:#000000; stroke-linecap:butt; stroke-linejoin:round; stroke-width:4; stroke-opacity:1; fill:none" points="
  214.702,1486.45 214.702,1467.55 
  "/>
<polyline clip-path="url(#clip200)" style="stroke:#000000; stroke-linecap:butt; stroke-linejoin:round; stroke-width:4; stroke-opacity:1; fill:none" points="
  721.499,1486.45 721.499,1467.55 
  "/>
<polyline clip-path="url(#clip200)" style="stroke:#000000; stroke-linecap:butt; stroke-linejoin:round; stroke-width:4; stroke-opacity:1; fill:none" points="
  1228.3,1486.45 1228.3,1467.55 
  "/>
<polyline clip-path="url(#clip200)" style="stroke:#000000; stroke-linecap:butt; stroke-linejoin:round; stroke-width:4; stroke-opacity:1; fill:none" points="
  1735.09,1486.45 1735.09,1467.55 
  "/>
<polyline clip-path="url(#clip200)" style="stroke:#000000; stroke-linecap:butt; stroke-linejoin:round; stroke-width:4; stroke-opacity:1; fill:none" points="
  2241.89,1486.45 2241.89,1467.55 
  "/>
<path clip-path="url(#clip200)" d="M214.702 1517.37 Q211.091 1517.37 209.262 1520.93 Q207.457 1524.47 207.457 1531.6 Q207.457 1538.71 209.262 1542.27 Q211.091 1545.82 214.702 1545.82 Q218.336 1545.82 220.142 1542.27 Q221.971 1538.71 221.971 1531.6 Q221.971 1524.47 220.142 1520.93 Q218.336 1517.37 214.702 1517.37 M214.702 1513.66 Q220.512 1513.66 223.568 1518.27 Q226.646 1522.85 226.646 1531.6 Q226.646 1540.33 223.568 1544.94 Q220.512 1549.52 214.702 1549.52 Q208.892 1549.52 205.813 1544.94 Q202.758 1540.33 202.758 1531.6 Q202.758 1522.85 205.813 1518.27 Q208.892 1513.66 214.702 1513.66 Z" fill="#000000" fill-rule="evenodd" fill-opacity="1" /><path clip-path="url(#clip200)" d="M685.191 1544.91 L701.511 1544.91 L701.511 1548.85 L679.566 1548.85 L679.566 1544.91 Q682.228 1542.16 686.812 1537.53 Q691.418 1532.88 692.599 1531.53 Q694.844 1529.01 695.724 1527.27 Q696.626 1525.51 696.626 1523.82 Q696.626 1521.07 694.682 1519.33 Q692.761 1517.6 689.659 1517.6 Q687.46 1517.6 685.006 1518.36 Q682.575 1519.13 679.798 1520.68 L679.798 1515.95 Q682.622 1514.82 685.075 1514.24 Q687.529 1513.66 689.566 1513.66 Q694.936 1513.66 698.131 1516.35 Q701.325 1519.03 701.325 1523.52 Q701.325 1525.65 700.515 1527.57 Q699.728 1529.47 697.622 1532.07 Q697.043 1532.74 693.941 1535.95 Q690.839 1539.15 685.191 1544.91 Z" fill="#000000" fill-rule="evenodd" fill-opacity="1" /><path clip-path="url(#clip200)" d="M711.372 1514.29 L729.728 1514.29 L729.728 1518.22 L715.654 1518.22 L715.654 1526.7 Q716.672 1526.35 717.691 1526.19 Q718.709 1526 719.728 1526 Q725.515 1526 728.895 1529.17 Q732.274 1532.34 732.274 1537.76 Q732.274 1543.34 728.802 1546.44 Q725.33 1549.52 719.01 1549.52 Q716.835 1549.52 714.566 1549.15 Q712.321 1548.78 709.913 1548.04 L709.913 1543.34 Q711.997 1544.47 714.219 1545.03 Q716.441 1545.58 718.918 1545.58 Q722.922 1545.58 725.26 1543.48 Q727.598 1541.37 727.598 1537.76 Q727.598 1534.15 725.26 1532.04 Q722.922 1529.94 718.918 1529.94 Q717.043 1529.94 715.168 1530.35 Q713.316 1530.77 711.372 1531.65 L711.372 1514.29 Z" fill="#000000" fill-rule="evenodd" fill-opacity="1" /><path clip-path="url(#clip200)" d="M751.487 1517.37 Q747.876 1517.37 746.047 1520.93 Q744.242 1524.47 744.242 1531.6 Q744.242 1538.71 746.047 1542.27 Q747.876 1545.82 751.487 1545.82 Q755.121 1545.82 756.927 1542.27 Q758.756 1538.71 758.756 1531.6 Q758.756 1524.47 756.927 1520.93 Q755.121 1517.37 751.487 1517.37 M751.487 1513.66 Q757.297 1513.66 760.353 1518.27 Q763.431 1522.85 763.431 1531.6 Q763.431 1540.33 760.353 1544.94 Q757.297 1549.52 751.487 1549.52 Q745.677 1549.52 742.598 1544.94 Q739.543 1540.33 739.543 1531.6 Q739.543 1522.85 742.598 1518.27 Q745.677 1513.66 751.487 1513.66 Z" fill="#000000" fill-rule="evenodd" fill-opacity="1" /><path clip-path="url(#clip200)" d="M1187.91 1514.29 L1206.27 1514.29 L1206.27 1518.22 L1192.2 1518.22 L1192.2 1526.7 Q1193.21 1526.35 1194.23 1526.19 Q1195.25 1526 1196.27 1526 Q1202.06 1526 1205.44 1529.17 Q1208.82 1532.34 1208.82 1537.76 Q1208.82 1543.34 1205.34 1546.44 Q1201.87 1549.52 1195.55 1549.52 Q1193.38 1549.52 1191.11 1549.15 Q1188.86 1548.78 1186.46 1548.04 L1186.46 1543.34 Q1188.54 1544.47 1190.76 1545.03 Q1192.98 1545.58 1195.46 1545.58 Q1199.46 1545.58 1201.8 1543.48 Q1204.14 1541.37 1204.14 1537.76 Q1204.14 1534.15 1201.8 1532.04 Q1199.46 1529.94 1195.46 1529.94 Q1193.59 1529.94 1191.71 1530.35 Q1189.86 1530.77 1187.91 1531.65 L1187.91 1514.29 Z" fill="#000000" fill-rule="evenodd" fill-opacity="1" /><path clip-path="url(#clip200)" d="M1228.03 1517.37 Q1224.42 1517.37 1222.59 1520.93 Q1220.78 1524.47 1220.78 1531.6 Q1220.78 1538.71 1222.59 1542.27 Q1224.42 1545.82 1228.03 1545.82 Q1231.66 1545.82 1233.47 1542.27 Q1235.3 1538.71 1235.3 1531.6 Q1235.3 1524.47 1233.47 1520.93 Q1231.66 1517.37 1228.03 1517.37 M1228.03 1513.66 Q1233.84 1513.66 1236.9 1518.27 Q1239.97 1522.85 1239.97 1531.6 Q1239.97 1540.33 1236.9 1544.94 Q1233.84 1549.52 1228.03 1549.52 Q1222.22 1549.52 1219.14 1544.94 Q1216.08 1540.33 1216.08 1531.6 Q1216.08 1522.85 1219.14 1518.27 Q1222.22 1513.66 1228.03 1513.66 Z" fill="#000000" fill-rule="evenodd" fill-opacity="1" /><path clip-path="url(#clip200)" d="M1258.19 1517.37 Q1254.58 1517.37 1252.75 1520.93 Q1250.95 1524.47 1250.95 1531.6 Q1250.95 1538.71 1252.75 1542.27 Q1254.58 1545.82 1258.19 1545.82 Q1261.83 1545.82 1263.63 1542.27 Q1265.46 1538.71 1265.46 1531.6 Q1265.46 1524.47 1263.63 1520.93 Q1261.83 1517.37 1258.19 1517.37 M1258.19 1513.66 Q1264 1513.66 1267.06 1518.27 Q1270.14 1522.85 1270.14 1531.6 Q1270.14 1540.33 1267.06 1544.94 Q1264 1549.52 1258.19 1549.52 Q1252.38 1549.52 1249.3 1544.94 Q1246.25 1540.33 1246.25 1531.6 Q1246.25 1522.85 1249.3 1518.27 Q1252.38 1513.66 1258.19 1513.66 Z" fill="#000000" fill-rule="evenodd" fill-opacity="1" /><path clip-path="url(#clip200)" d="M1693.37 1514.29 L1715.59 1514.29 L1715.59 1516.28 L1703.04 1548.85 L1698.16 1548.85 L1709.97 1518.22 L1693.37 1518.22 L1693.37 1514.29 Z" fill="#000000" fill-rule="evenodd" fill-opacity="1" /><path clip-path="url(#clip200)" d="M1724.76 1514.29 L1743.11 1514.29 L1743.11 1518.22 L1729.04 1518.22 L1729.04 1526.7 Q1730.06 1526.35 1731.08 1526.19 Q1732.09 1526 1733.11 1526 Q1738.9 1526 1742.28 1529.17 Q1745.66 1532.34 1745.66 1537.76 Q1745.66 1543.34 1742.19 1546.44 Q1738.71 1549.52 1732.4 1549.52 Q1730.22 1549.52 1727.95 1549.15 Q1725.71 1548.78 1723.3 1548.04 L1723.3 1543.34 Q1725.38 1544.47 1727.6 1545.03 Q1729.83 1545.58 1732.3 1545.58 Q1736.31 1545.58 1738.65 1543.48 Q1740.98 1541.37 1740.98 1537.76 Q1740.98 1534.15 1738.65 1532.04 Q1736.31 1529.94 1732.3 1529.94 Q1730.43 1529.94 1728.55 1530.35 Q1726.7 1530.77 1724.76 1531.65 L1724.76 1514.29 Z" fill="#000000" fill-rule="evenodd" fill-opacity="1" /><path clip-path="url(#clip200)" d="M1764.87 1517.37 Q1761.26 1517.37 1759.43 1520.93 Q1757.63 1524.47 1757.63 1531.6 Q1757.63 1538.71 1759.43 1542.27 Q1761.26 1545.82 1764.87 1545.82 Q1768.51 1545.82 1770.31 1542.27 Q1772.14 1538.71 1772.14 1531.6 Q1772.14 1524.47 1770.31 1520.93 Q1768.51 1517.37 1764.87 1517.37 M1764.87 1513.66 Q1770.68 1513.66 1773.74 1518.27 Q1776.82 1522.85 1776.82 1531.6 Q1776.82 1540.33 1773.74 1544.94 Q1770.68 1549.52 1764.87 1549.52 Q1759.06 1549.52 1755.98 1544.94 Q1752.93 1540.33 1752.93 1531.6 Q1752.93 1522.85 1755.98 1518.27 Q1759.06 1513.66 1764.87 1513.66 Z" fill="#000000" fill-rule="evenodd" fill-opacity="1" /><path clip-path="url(#clip200)" d="M2186.41 1544.91 L2194.05 1544.91 L2194.05 1518.55 L2185.74 1520.21 L2185.74 1515.95 L2194.01 1514.29 L2198.68 1514.29 L2198.68 1544.91 L2206.32 1544.91 L2206.32 1548.85 L2186.41 1548.85 L2186.41 1544.91 Z" fill="#000000" fill-rule="evenodd" fill-opacity="1" /><path clip-path="url(#clip200)" d="M2225.77 1517.37 Q2222.16 1517.37 2220.33 1520.93 Q2218.52 1524.47 2218.52 1531.6 Q2218.52 1538.71 2220.33 1542.27 Q2222.16 1545.82 2225.77 1545.82 Q2229.4 1545.82 2231.21 1542.27 Q2233.03 1538.71 2233.03 1531.6 Q2233.03 1524.47 2231.21 1520.93 Q2229.4 1517.37 2225.77 1517.37 M2225.77 1513.66 Q2231.58 1513.66 2234.63 1518.27 Q2237.71 1522.85 2237.71 1531.6 Q2237.71 1540.33 2234.63 1544.94 Q2231.58 1549.52 2225.77 1549.52 Q2219.96 1549.52 2216.88 1544.94 Q2213.82 1540.33 2213.82 1531.6 Q2213.82 1522.85 2216.88 1518.27 Q2219.96 1513.66 2225.77 1513.66 Z" fill="#000000" fill-rule="evenodd" fill-opacity="1" /><path clip-path="url(#clip200)" d="M2255.93 1517.37 Q2252.32 1517.37 2250.49 1520.93 Q2248.68 1524.47 2248.68 1531.6 Q2248.68 1538.71 2250.49 1542.27 Q2252.32 1545.82 2255.93 1545.82 Q2259.56 1545.82 2261.37 1542.27 Q2263.2 1538.71 2263.2 1531.6 Q2263.2 1524.47 2261.37 1520.93 Q2259.56 1517.37 2255.93 1517.37 M2255.93 1513.66 Q2261.74 1513.66 2264.79 1518.27 Q2267.87 1522.85 2267.87 1531.6 Q2267.87 1540.33 2264.79 1544.94 Q2261.74 1549.52 2255.93 1549.52 Q2250.12 1549.52 2247.04 1544.94 Q2243.98 1540.33 2243.98 1531.6 Q2243.98 1522.85 2247.04 1518.27 Q2250.12 1513.66 2255.93 1513.66 Z" fill="#000000" fill-rule="evenodd" fill-opacity="1" /><path clip-path="url(#clip200)" d="M2286.09 1517.37 Q2282.48 1517.37 2280.65 1520.93 Q2278.84 1524.47 2278.84 1531.6 Q2278.84 1538.71 2280.65 1542.27 Q2282.48 1545.82 2286.09 1545.82 Q2289.72 1545.82 2291.53 1542.27 Q2293.36 1538.71 2293.36 1531.6 Q2293.36 1524.47 2291.53 1520.93 Q2289.72 1517.37 2286.09 1517.37 M2286.09 1513.66 Q2291.9 1513.66 2294.96 1518.27 Q2298.03 1522.85 2298.03 1531.6 Q2298.03 1540.33 2294.96 1544.94 Q2291.9 1549.52 2286.09 1549.52 Q2280.28 1549.52 2277.2 1544.94 Q2274.15 1540.33 2274.15 1531.6 Q2274.15 1522.85 2277.2 1518.27 Q2280.28 1513.66 2286.09 1513.66 Z" fill="#000000" fill-rule="evenodd" fill-opacity="1" /><polyline clip-path="url(#clip202)" style="stroke:#000000; stroke-linecap:butt; stroke-linejoin:round; stroke-width:2; stroke-opacity:0.1; fill:none" points="
  154.515,1445.72 2352.76,1445.72 
  "/>
<polyline clip-path="url(#clip202)" style="stroke:#000000; stroke-linecap:butt; stroke-linejoin:round; stroke-width:2; stroke-opacity:0.1; fill:none" points="
  154.515,1235.19 2352.76,1235.19 
  "/>
<polyline clip-path="url(#clip202)" style="stroke:#000000; stroke-linecap:butt; stroke-linejoin:round; stroke-width:2; stroke-opacity:0.1; fill:none" points="
  154.515,1024.67 2352.76,1024.67 
  "/>
<polyline clip-path="url(#clip202)" style="stroke:#000000; stroke-linecap:butt; stroke-linejoin:round; stroke-width:2; stroke-opacity:0.1; fill:none" points="
  154.515,814.144 2352.76,814.144 
  "/>
<polyline clip-path="url(#clip202)" style="stroke:#000000; stroke-linecap:butt; stroke-linejoin:round; stroke-width:2; stroke-opacity:0.1; fill:none" points="
  154.515,603.621 2352.76,603.621 
  "/>
<polyline clip-path="url(#clip202)" style="stroke:#000000; stroke-linecap:butt; stroke-linejoin:round; stroke-width:2; stroke-opacity:0.1; fill:none" points="
  154.515,393.097 2352.76,393.097 
  "/>
<polyline clip-path="url(#clip202)" style="stroke:#000000; stroke-linecap:butt; stroke-linejoin:round; stroke-width:2; stroke-opacity:0.1; fill:none" points="
  154.515,182.573 2352.76,182.573 
  "/>
<polyline clip-path="url(#clip200)" style="stroke:#000000; stroke-linecap:butt; stroke-linejoin:round; stroke-width:4; stroke-opacity:1; fill:none" points="
  154.515,1486.45 154.515,47.2441 
  "/>
<polyline clip-path="url(#clip200)" style="stroke:#000000; stroke-linecap:butt; stroke-linejoin:round; stroke-width:4; stroke-opacity:1; fill:none" points="
  154.515,1445.72 173.413,1445.72 
  "/>
<polyline clip-path="url(#clip200)" style="stroke:#000000; stroke-linecap:butt; stroke-linejoin:round; stroke-width:4; stroke-opacity:1; fill:none" points="
  154.515,1235.19 173.413,1235.19 
  "/>
<polyline clip-path="url(#clip200)" style="stroke:#000000; stroke-linecap:butt; stroke-linejoin:round; stroke-width:4; stroke-opacity:1; fill:none" points="
  154.515,1024.67 173.413,1024.67 
  "/>
<polyline clip-path="url(#clip200)" style="stroke:#000000; stroke-linecap:butt; stroke-linejoin:round; stroke-width:4; stroke-opacity:1; fill:none" points="
  154.515,814.144 173.413,814.144 
  "/>
<polyline clip-path="url(#clip200)" style="stroke:#000000; stroke-linecap:butt; stroke-linejoin:round; stroke-width:4; stroke-opacity:1; fill:none" points="
  154.515,603.621 173.413,603.621 
  "/>
<polyline clip-path="url(#clip200)" style="stroke:#000000; stroke-linecap:butt; stroke-linejoin:round; stroke-width:4; stroke-opacity:1; fill:none" points="
  154.515,393.097 173.413,393.097 
  "/>
<polyline clip-path="url(#clip200)" style="stroke:#000000; stroke-linecap:butt; stroke-linejoin:round; stroke-width:4; stroke-opacity:1; fill:none" points="
  154.515,182.573 173.413,182.573 
  "/>
<path clip-path="url(#clip200)" d="M52.1495 1459.06 L59.7884 1459.06 L59.7884 1432.69 L51.4782 1434.36 L51.4782 1430.1 L59.7421 1428.44 L64.418 1428.44 L64.418 1459.06 L72.0568 1459.06 L72.0568 1463 L52.1495 1463 L52.1495 1459.06 Z" fill="#000000" fill-rule="evenodd" fill-opacity="1" /><path clip-path="url(#clip200)" d="M81.5012 1457.12 L86.3855 1457.12 L86.3855 1463 L81.5012 1463 L81.5012 1457.12 Z" fill="#000000" fill-rule="evenodd" fill-opacity="1" /><path clip-path="url(#clip200)" d="M106.571 1431.51 Q102.959 1431.51 101.131 1435.08 Q99.3252 1438.62 99.3252 1445.75 Q99.3252 1452.86 101.131 1456.42 Q102.959 1459.96 106.571 1459.96 Q110.205 1459.96 112.01 1456.42 Q113.839 1452.86 113.839 1445.75 Q113.839 1438.62 112.01 1435.08 Q110.205 1431.51 106.571 1431.51 M106.571 1427.81 Q112.381 1427.81 115.436 1432.42 Q118.515 1437 118.515 1445.75 Q118.515 1454.48 115.436 1459.08 Q112.381 1463.67 106.571 1463.67 Q100.76 1463.67 97.6817 1459.08 Q94.6262 1454.48 94.6262 1445.75 Q94.6262 1437 97.6817 1432.42 Q100.76 1427.81 106.571 1427.81 Z" fill="#000000" fill-rule="evenodd" fill-opacity="1" /><path clip-path="url(#clip200)" d="M53.3764 1248.54 L61.0152 1248.54 L61.0152 1222.17 L52.7051 1223.84 L52.7051 1219.58 L60.9689 1217.91 L65.6448 1217.91 L65.6448 1248.54 L73.2837 1248.54 L73.2837 1252.47 L53.3764 1252.47 L53.3764 1248.54 Z" fill="#000000" fill-rule="evenodd" fill-opacity="1" /><path clip-path="url(#clip200)" d="M82.7281 1246.59 L87.6123 1246.59 L87.6123 1252.47 L82.7281 1252.47 L82.7281 1246.59 Z" fill="#000000" fill-rule="evenodd" fill-opacity="1" /><path clip-path="url(#clip200)" d="M98.6076 1248.54 L106.246 1248.54 L106.246 1222.17 L97.9363 1223.84 L97.9363 1219.58 L106.2 1217.91 L110.876 1217.91 L110.876 1248.54 L118.515 1248.54 L118.515 1252.47 L98.6076 1252.47 L98.6076 1248.54 Z" fill="#000000" fill-rule="evenodd" fill-opacity="1" /><path clip-path="url(#clip200)" d="M53.7467 1038.01 L61.3856 1038.01 L61.3856 1011.65 L53.0754 1013.31 L53.0754 1009.05 L61.3393 1007.39 L66.0152 1007.39 L66.0152 1038.01 L73.654 1038.01 L73.654 1041.95 L53.7467 1041.95 L53.7467 1038.01 Z" fill="#000000" fill-rule="evenodd" fill-opacity="1" /><path clip-path="url(#clip200)" d="M83.0984 1036.07 L87.9827 1036.07 L87.9827 1041.95 L83.0984 1041.95 L83.0984 1036.07 Z" fill="#000000" fill-rule="evenodd" fill-opacity="1" /><path clip-path="url(#clip200)" d="M102.196 1038.01 L118.515 1038.01 L118.515 1041.95 L96.5706 1041.95 L96.5706 1038.01 Q99.2326 1035.26 103.816 1030.63 Q108.422 1025.98 109.603 1024.63 Q111.848 1022.11 112.728 1020.37 Q113.631 1018.61 113.631 1016.93 Q113.631 1014.17 111.686 1012.43 Q109.765 1010.7 106.663 1010.7 Q104.464 1010.7 102.01 1011.46 Q99.5798 1012.23 96.8021 1013.78 L96.8021 1009.05 Q99.6261 1007.92 102.08 1007.34 Q104.534 1006.76 106.571 1006.76 Q111.941 1006.76 115.135 1009.45 Q118.33 1012.13 118.33 1016.62 Q118.33 1018.75 117.52 1020.68 Q116.733 1022.57 114.626 1025.17 Q114.047 1025.84 110.946 1029.05 Q107.844 1032.25 102.196 1038.01 Z" fill="#000000" fill-rule="evenodd" fill-opacity="1" /><path clip-path="url(#clip200)" d="M52.7977 827.489 L60.4365 827.489 L60.4365 801.124 L52.1264 802.79 L52.1264 798.531 L60.3902 796.864 L65.0661 796.864 L65.0661 827.489 L72.705 827.489 L72.705 831.424 L52.7977 831.424 L52.7977 827.489 Z" fill="#000000" fill-rule="evenodd" fill-opacity="1" /><path clip-path="url(#clip200)" d="M82.1494 825.545 L87.0336 825.545 L87.0336 831.424 L82.1494 831.424 L82.1494 825.545 Z" fill="#000000" fill-rule="evenodd" fill-opacity="1" /><path clip-path="url(#clip200)" d="M111.385 812.79 Q114.742 813.508 116.617 815.776 Q118.515 818.045 118.515 821.378 Q118.515 826.494 114.996 829.295 Q111.478 832.096 104.996 832.096 Q102.821 832.096 100.506 831.656 Q98.2141 831.239 95.7604 830.383 L95.7604 825.869 Q97.7048 827.003 100.02 827.582 Q102.334 828.161 104.858 828.161 Q109.256 828.161 111.547 826.424 Q113.862 824.688 113.862 821.378 Q113.862 818.323 111.709 816.61 Q109.58 814.874 105.76 814.874 L101.733 814.874 L101.733 811.031 L105.946 811.031 Q109.395 811.031 111.223 809.665 Q113.052 808.276 113.052 805.684 Q113.052 803.022 111.154 801.61 Q109.279 800.175 105.76 800.175 Q103.839 800.175 101.64 800.591 Q99.4409 801.008 96.8021 801.888 L96.8021 797.721 Q99.4641 796.98 101.779 796.61 Q104.117 796.239 106.177 796.239 Q111.501 796.239 114.603 798.67 Q117.705 801.077 117.705 805.198 Q117.705 808.068 116.061 810.059 Q114.418 812.026 111.385 812.79 Z" fill="#000000" fill-rule="evenodd" fill-opacity="1" /><path clip-path="url(#clip200)" d="M51.6634 616.966 L59.3023 616.966 L59.3023 590.6 L50.9921 592.267 L50.9921 588.007 L59.256 586.341 L63.9319 586.341 L63.9319 616.966 L71.5707 616.966 L71.5707 620.901 L51.6634 620.901 L51.6634 616.966 Z" fill="#000000" fill-rule="evenodd" fill-opacity="1" /><path clip-path="url(#clip200)" d="M81.0151 615.021 L85.8993 615.021 L85.8993 620.901 L81.0151 620.901 L81.0151 615.021 Z" fill="#000000" fill-rule="evenodd" fill-opacity="1" /><path clip-path="url(#clip200)" d="M108.932 590.415 L97.1261 608.864 L108.932 608.864 L108.932 590.415 M107.705 586.341 L113.584 586.341 L113.584 608.864 L118.515 608.864 L118.515 612.753 L113.584 612.753 L113.584 620.901 L108.932 620.901 L108.932 612.753 L93.3299 612.753 L93.3299 608.239 L107.705 586.341 Z" fill="#000000" fill-rule="evenodd" fill-opacity="1" /><path clip-path="url(#clip200)" d="M53.1449 406.442 L60.7837 406.442 L60.7837 380.076 L52.4736 381.743 L52.4736 377.484 L60.7374 375.817 L65.4133 375.817 L65.4133 406.442 L73.0522 406.442 L73.0522 410.377 L53.1449 410.377 L53.1449 406.442 Z" fill="#000000" fill-rule="evenodd" fill-opacity="1" /><path clip-path="url(#clip200)" d="M82.4966 404.497 L87.3808 404.497 L87.3808 410.377 L82.4966 410.377 L82.4966 404.497 Z" fill="#000000" fill-rule="evenodd" fill-opacity="1" /><path clip-path="url(#clip200)" d="M97.6122 375.817 L115.969 375.817 L115.969 379.752 L101.895 379.752 L101.895 388.224 Q102.913 387.877 103.932 387.715 Q104.95 387.53 105.969 387.53 Q111.756 387.53 115.135 390.701 Q118.515 393.872 118.515 399.289 Q118.515 404.868 115.043 407.97 Q111.571 411.048 105.251 411.048 Q103.075 411.048 100.807 410.678 Q98.5613 410.307 96.1539 409.567 L96.1539 404.868 Q98.2372 406.002 100.459 406.557 Q102.682 407.113 105.159 407.113 Q109.163 407.113 111.501 405.007 Q113.839 402.9 113.839 399.289 Q113.839 395.678 111.501 393.571 Q109.163 391.465 105.159 391.465 Q103.284 391.465 101.409 391.882 Q99.5567 392.298 97.6122 393.178 L97.6122 375.817 Z" fill="#000000" fill-rule="evenodd" fill-opacity="1" /><path clip-path="url(#clip200)" d="M51.9875 195.918 L59.6263 195.918 L59.6263 169.552 L51.3162 171.219 L51.3162 166.96 L59.58 165.293 L64.2559 165.293 L64.2559 195.918 L71.8948 195.918 L71.8948 199.853 L51.9875 199.853 L51.9875 195.918 Z" fill="#000000" fill-rule="evenodd" fill-opacity="1" /><path clip-path="url(#clip200)" d="M81.3392 193.974 L86.2234 193.974 L86.2234 199.853 L81.3392 199.853 L81.3392 193.974 Z" fill="#000000" fill-rule="evenodd" fill-opacity="1" /><path clip-path="url(#clip200)" d="M106.987 180.71 Q103.839 180.71 101.987 182.863 Q100.159 185.015 100.159 188.765 Q100.159 192.492 101.987 194.668 Q103.839 196.821 106.987 196.821 Q110.135 196.821 111.964 194.668 Q113.816 192.492 113.816 188.765 Q113.816 185.015 111.964 182.863 Q110.135 180.71 106.987 180.71 M116.27 166.057 L116.27 170.316 Q114.51 169.483 112.705 169.043 Q110.922 168.603 109.163 168.603 Q104.534 168.603 102.08 171.728 Q99.6493 174.853 99.3021 181.173 Q100.668 179.159 102.728 178.094 Q104.788 177.006 107.265 177.006 Q112.473 177.006 115.483 180.177 Q118.515 183.325 118.515 188.765 Q118.515 194.089 115.367 197.307 Q112.219 200.524 106.987 200.524 Q100.992 200.524 97.8206 195.941 Q94.6493 191.335 94.6493 182.608 Q94.6493 174.413 98.5382 169.552 Q102.427 164.668 108.978 164.668 Q110.737 164.668 112.52 165.015 Q114.325 165.363 116.27 166.057 Z" fill="#000000" fill-rule="evenodd" fill-opacity="1" /><polyline clip-path="url(#clip202)" style="stroke:#009af9; stroke-linecap:butt; stroke-linejoin:round; stroke-width:4; stroke-opacity:1; fill:none" points="
  216.729,1445.72 218.756,919.406 222.811,553.914 230.92,335.367 247.137,215.527 279.572,152.748 344.442,120.615 474.182,104.359 733.662,96.1838 1252.62,92.0841 
  2290.54,90.0312 
  "/>
<polyline clip-path="url(#clip202)" style="stroke:#e26f46; stroke-linecap:butt; stroke-linejoin:round; stroke-width:4; stroke-opacity:1; fill:none" points="
  216.729,87.9763 218.756,87.9763 222.811,87.9763 230.92,87.9763 247.137,87.9763 279.572,87.9763 344.442,87.9763 474.182,87.9763 733.662,87.9763 1252.62,87.9763 
  2290.54,87.9763 
  "/>
<path clip-path="url(#clip200)" d="
M1982.8 250.738 L2279.48 250.738 L2279.48 95.2176 L1982.8 95.2176  Z
  " fill="#ffffff" fill-rule="evenodd" fill-opacity="1"/>
<polyline clip-path="url(#clip200)" style="stroke:#000000; stroke-linecap:butt; stroke-linejoin:round; stroke-width:4; stroke-opacity:1; fill:none" points="
  1982.8,250.738 2279.48,250.738 2279.48,95.2176 1982.8,95.2176 1982.8,250.738 
  "/>
<polyline clip-path="url(#clip200)" style="stroke:#009af9; stroke-linecap:butt; stroke-linejoin:round; stroke-width:4; stroke-opacity:1; fill:none" points="
  2007.23,147.058 2153.78,147.058 
  "/>
<path clip-path="url(#clip200)" d="M2192.04 166.745 Q2190.24 171.375 2188.53 172.787 Q2186.81 174.199 2183.94 174.199 L2180.54 174.199 L2180.54 170.634 L2183.04 170.634 Q2184.8 170.634 2185.77 169.8 Q2186.74 168.967 2187.92 165.865 L2188.69 163.921 L2178.2 138.412 L2182.71 138.412 L2190.82 158.689 L2198.92 138.412 L2203.43 138.412 L2192.04 166.745 Z" fill="#000000" fill-rule="evenodd" fill-opacity="1" /><path clip-path="url(#clip200)" d="M2210.72 160.402 L2218.36 160.402 L2218.36 134.037 L2210.05 135.703 L2210.05 131.444 L2218.32 129.778 L2222.99 129.778 L2222.99 160.402 L2230.63 160.402 L2230.63 164.338 L2210.72 164.338 L2210.72 160.402 Z" fill="#000000" fill-rule="evenodd" fill-opacity="1" /><polyline clip-path="url(#clip200)" style="stroke:#e26f46; stroke-linecap:butt; stroke-linejoin:round; stroke-width:4; stroke-opacity:1; fill:none" points="
  2007.23,198.898 2153.78,198.898 
  "/>
<path clip-path="url(#clip200)" d="M2192.04 218.585 Q2190.24 223.215 2188.53 224.627 Q2186.81 226.039 2183.94 226.039 L2180.54 226.039 L2180.54 222.474 L2183.04 222.474 Q2184.8 222.474 2185.77 221.64 Q2186.74 220.807 2187.92 217.705 L2188.69 215.761 L2178.2 190.252 L2182.71 190.252 L2190.82 210.529 L2198.92 190.252 L2203.43 190.252 L2192.04 218.585 Z" fill="#000000" fill-rule="evenodd" fill-opacity="1" /><path clip-path="url(#clip200)" d="M2213.94 212.242 L2230.26 212.242 L2230.26 216.178 L2208.32 216.178 L2208.32 212.242 Q2210.98 209.488 2215.56 204.858 Q2220.17 200.205 2221.35 198.863 Q2223.59 196.34 2224.47 194.604 Q2225.38 192.844 2225.38 191.155 Q2225.38 188.4 2223.43 186.664 Q2221.51 184.928 2218.41 184.928 Q2216.21 184.928 2213.76 185.692 Q2211.33 186.455 2208.55 188.006 L2208.55 183.284 Q2211.37 182.15 2213.83 181.571 Q2216.28 180.993 2218.32 180.993 Q2223.69 180.993 2226.88 183.678 Q2230.08 186.363 2230.08 190.854 Q2230.08 192.983 2229.27 194.905 Q2228.48 196.803 2226.37 199.395 Q2225.79 200.067 2222.69 203.284 Q2219.59 206.479 2213.94 212.242 Z" fill="#000000" fill-rule="evenodd" fill-opacity="1" /></svg>
