<?xml version="1.0" encoding="utf-8"?>
<svg xmlns="http://www.w3.org/2000/svg" xmlns:xlink="http://www.w3.org/1999/xlink" width="600" height="400" viewBox="0 0 2400 1600">
<defs>
  <clipPath id="clip400">
    <rect x="0" y="0" width="2400" height="1600"/>
  </clipPath>
</defs>
<path clip-path="url(#clip400)" d="
M0 1600 L2400 1600 L2400 0 L0 0  Z
  " fill="#ffffff" fill-rule="evenodd" fill-opacity="1"/>
<defs>
  <clipPath id="clip401">
    <rect x="480" y="0" width="1681" height="1600"/>
  </clipPath>
</defs>
<path clip-path="url(#clip400)" d="
M213.607 1474.16 L2352.76 1474.16 L2352.76 47.2441 L213.607 47.2441  Z
  " fill="#ffffff" fill-rule="evenodd" fill-opacity="1"/>
<defs>
  <clipPath id="clip402">
    <rect x="213" y="47" width="2140" height="1428"/>
  </clipPath>
</defs>
<polyline clip-path="url(#clip402)" style="stroke:#000000; stroke-linecap:butt; stroke-linejoin:round; stroke-width:2; stroke-opacity:0.1; fill:none" points="
  274.149,1474.16 274.149,47.2441 
  "/>
<polyline clip-path="url(#clip402)" style="stroke:#000000; stroke-linecap:butt; stroke-linejoin:round; stroke-width:2; stroke-opacity:0.1; fill:none" points="
  1614.92,1474.16 1614.92,47.2441 
  "/>
<polyline clip-path="url(#clip400)" style="stroke:#000000; stroke-linecap:butt; stroke-linejoin:round; stroke-width:4; stroke-opacity:1; fill:none" points="
  213.607,1474.16 2352.76,1474.16 
  "/>
<polyline clip-path="url(#clip400)" style="stroke:#000000; stroke-linecap:butt; stroke-linejoin:round; stroke-width:4; stroke-opacity:1; fill:none" points="
  274.149,1474.16 274.149,1455.27 
  "/>
<polyline clip-path="url(#clip400)" style="stroke:#000000; stroke-linecap:butt; stroke-linejoin:round; stroke-width:4; stroke-opacity:1; fill:none" points="
  1614.92,1474.16 1614.92,1455.27 
  "/>
<path clip-path="url(#clip400)" d="M239.132 1548.29 L246.771 1548.29 L246.771 1521.92 L238.461 1523.59 L238.461 1519.33 L246.725 1517.66 L251.401 1517.66 L251.401 1548.29 L259.04 1548.29 L259.04 1552.22 L239.132 1552.22 L239.132 1548.29 Z" fill="#000000" fill-rule="evenodd" fill-opacity="1" /><path clip-path="url(#clip400)" d="M278.484 1520.74 Q274.873 1520.74 273.044 1524.31 Q271.239 1527.85 271.239 1534.98 Q271.239 1542.09 273.044 1545.65 Q274.873 1549.19 278.484 1549.19 Q282.118 1549.19 283.924 1545.65 Q285.752 1542.09 285.752 1534.98 Q285.752 1527.85 283.924 1524.31 Q282.118 1520.74 278.484 1520.74 M278.484 1517.04 Q284.294 1517.04 287.35 1521.65 Q290.428 1526.23 290.428 1534.98 Q290.428 1543.71 287.35 1548.31 Q284.294 1552.9 278.484 1552.9 Q272.674 1552.9 269.595 1548.31 Q266.54 1543.71 266.54 1534.98 Q266.54 1526.23 269.595 1521.65 Q272.674 1517.04 278.484 1517.04 Z" fill="#000000" fill-rule="evenodd" fill-opacity="1" /><path clip-path="url(#clip400)" d="M300.133 1499.24 Q297.199 1499.24 295.713 1502.13 Q294.246 1505.01 294.246 1510.8 Q294.246 1516.58 295.713 1519.47 Q297.199 1522.35 300.133 1522.35 Q303.086 1522.35 304.553 1519.47 Q306.039 1516.58 306.039 1510.8 Q306.039 1505.01 304.553 1502.13 Q303.086 1499.24 300.133 1499.24 M300.133 1496.23 Q304.854 1496.23 307.336 1499.97 Q309.838 1503.69 309.838 1510.8 Q309.838 1517.89 307.336 1521.64 Q304.854 1525.36 300.133 1525.36 Q295.412 1525.36 292.911 1521.64 Q290.428 1517.89 290.428 1510.8 Q290.428 1503.69 292.911 1499.97 Q295.412 1496.23 300.133 1496.23 Z" fill="#000000" fill-rule="evenodd" fill-opacity="1" /><path clip-path="url(#clip400)" d="M1580.7 1548.29 L1588.33 1548.29 L1588.33 1521.92 L1580.02 1523.59 L1580.02 1519.33 L1588.29 1517.66 L1592.96 1517.66 L1592.96 1548.29 L1600.6 1548.29 L1600.6 1552.22 L1580.7 1552.22 L1580.7 1548.29 Z" fill="#000000" fill-rule="evenodd" fill-opacity="1" /><path clip-path="url(#clip400)" d="M1620.05 1520.74 Q1616.44 1520.74 1614.61 1524.31 Q1612.8 1527.85 1612.8 1534.98 Q1612.8 1542.09 1614.61 1545.65 Q1616.44 1549.19 1620.05 1549.19 Q1623.68 1549.19 1625.49 1545.65 Q1627.32 1542.09 1627.32 1534.98 Q1627.32 1527.85 1625.49 1524.31 Q1623.68 1520.74 1620.05 1520.74 M1620.05 1517.04 Q1625.86 1517.04 1628.91 1521.65 Q1631.99 1526.23 1631.99 1534.98 Q1631.99 1543.71 1628.91 1548.31 Q1625.86 1552.9 1620.05 1552.9 Q1614.24 1552.9 1611.16 1548.31 Q1608.1 1543.71 1608.1 1534.98 Q1608.1 1526.23 1611.16 1521.65 Q1614.24 1517.04 1620.05 1517.04 Z" fill="#000000" fill-rule="evenodd" fill-opacity="1" /><path clip-path="url(#clip400)" d="M1636.56 1521.62 L1649.82 1521.62 L1649.82 1524.81 L1631.99 1524.81 L1631.99 1521.62 Q1634.15 1519.38 1637.88 1515.62 Q1641.62 1511.84 1642.58 1510.75 Q1644.4 1508.7 1645.12 1507.29 Q1645.85 1505.86 1645.85 1504.48 Q1645.85 1502.24 1644.27 1500.83 Q1642.71 1499.42 1640.19 1499.42 Q1638.4 1499.42 1636.41 1500.04 Q1634.44 1500.67 1632.18 1501.93 L1632.18 1498.09 Q1634.47 1497.17 1636.47 1496.7 Q1638.46 1496.23 1640.12 1496.23 Q1644.48 1496.23 1647.08 1498.41 Q1649.67 1500.59 1649.67 1504.24 Q1649.67 1505.97 1649.01 1507.53 Q1648.37 1509.07 1646.66 1511.18 Q1646.19 1511.72 1643.67 1514.34 Q1641.15 1516.93 1636.56 1521.62 Z" fill="#000000" fill-rule="evenodd" fill-opacity="1" /><polyline clip-path="url(#clip402)" style="stroke:#000000; stroke-linecap:butt; stroke-linejoin:round; stroke-width:2; stroke-opacity:0.1; fill:none" points="
  213.607,959.856 2352.76,959.856 
  "/>
<polyline clip-path="url(#clip402)" style="stroke:#000000; stroke-linecap:butt; stroke-linejoin:round; stroke-width:2; stroke-opacity:0.1; fill:none" points="
  213.607,87.6286 2352.76,87.6286 
  "/>
<polyline clip-path="url(#clip400)" style="stroke:#000000; stroke-linecap:butt; stroke-linejoin:round; stroke-width:4; stroke-opacity:1; fill:none" points="
  213.607,1474.16 213.607,47.2441 
  "/>
<polyline clip-path="url(#clip400)" style="stroke:#000000; stroke-linecap:butt; stroke-linejoin:round; stroke-width:4; stroke-opacity:1; fill:none" points="
  213.607,959.856 232.505,959.856 
  "/>
<polyline clip-path="url(#clip400)" style="stroke:#000000; stroke-linecap:butt; stroke-linejoin:round; stroke-width:4; stroke-opacity:1; fill:none" points="
  213.607,87.6286 232.505,87.6286 
  "/>
<path clip-path="url(#clip400)" d="M51.6634 979.649 L59.3023 979.649 L59.3023 953.283 L50.9921 954.95 L50.9921 950.691 L59.256 949.024 L63.9319 949.024 L63.9319 979.649 L71.5707 979.649 L71.5707 983.584 L51.6634 983.584 L51.6634 979.649 Z" fill="#000000" fill-rule="evenodd" fill-opacity="1" /><path clip-path="url(#clip400)" d="M91.0151 952.103 Q87.404 952.103 85.5753 955.667 Q83.7697 959.209 83.7697 966.339 Q83.7697 973.445 85.5753 977.01 Q87.404 980.551 91.0151 980.551 Q94.6493 980.551 96.4548 977.01 Q98.2835 973.445 98.2835 966.339 Q98.2835 959.209 96.4548 955.667 Q94.6493 952.103 91.0151 952.103 M91.0151 948.399 Q96.8252 948.399 99.8808 953.005 Q102.959 957.589 102.959 966.339 Q102.959 975.065 99.8808 979.672 Q96.8252 984.255 91.0151 984.255 Q85.2049 984.255 82.1262 979.672 Q79.0707 975.065 79.0707 966.339 Q79.0707 957.589 82.1262 953.005 Q85.2049 948.399 91.0151 948.399 Z" fill="#000000" fill-rule="evenodd" fill-opacity="1" /><path clip-path="url(#clip400)" d="M102.959 942.5 L127.071 942.5 L127.071 945.698 L102.959 945.698 L102.959 942.5 Z" fill="#000000" fill-rule="evenodd" fill-opacity="1" /><path clip-path="url(#clip400)" d="M135.929 952.976 L142.136 952.976 L142.136 931.554 L135.384 932.908 L135.384 929.448 L142.098 928.093 L145.898 928.093 L145.898 952.976 L152.104 952.976 L152.104 956.173 L135.929 956.173 L135.929 952.976 Z" fill="#000000" fill-rule="evenodd" fill-opacity="1" /><path clip-path="url(#clip400)" d="M167.903 930.595 Q164.969 930.595 163.483 933.491 Q162.016 936.369 162.016 942.162 Q162.016 947.936 163.483 950.832 Q164.969 953.71 167.903 953.71 Q170.855 953.71 172.322 950.832 Q173.808 947.936 173.808 942.162 Q173.808 936.369 172.322 933.491 Q170.855 930.595 167.903 930.595 M167.903 927.586 Q172.623 927.586 175.106 931.328 Q177.607 935.052 177.607 942.162 Q177.607 949.252 175.106 952.995 Q172.623 956.719 167.903 956.719 Q163.182 956.719 160.68 952.995 Q158.198 949.252 158.198 942.162 Q158.198 935.052 160.68 931.328 Q163.182 927.586 167.903 927.586 Z" fill="#000000" fill-rule="evenodd" fill-opacity="1" /><path clip-path="url(#clip400)" d="M106.902 107.421 L114.541 107.421 L114.541 81.0555 L106.231 82.7221 L106.231 78.4629 L114.494 76.7962 L119.17 76.7962 L119.17 107.421 L126.809 107.421 L126.809 111.356 L106.902 111.356 L106.902 107.421 Z" fill="#000000" fill-rule="evenodd" fill-opacity="1" /><path clip-path="url(#clip400)" d="M146.253 79.8749 Q142.642 79.8749 140.814 83.4397 Q139.008 86.9814 139.008 94.111 Q139.008 101.217 140.814 104.782 Q142.642 108.324 146.253 108.324 Q149.888 108.324 151.693 104.782 Q153.522 101.217 153.522 94.111 Q153.522 86.9814 151.693 83.4397 Q149.888 79.8749 146.253 79.8749 M146.253 76.1712 Q152.064 76.1712 155.119 80.7777 Q158.198 85.361 158.198 94.111 Q158.198 102.838 155.119 107.444 Q152.064 112.028 146.253 112.028 Q140.443 112.028 137.365 107.444 Q134.309 102.838 134.309 94.111 Q134.309 85.361 137.365 80.7777 Q140.443 76.1712 146.253 76.1712 Z" fill="#000000" fill-rule="evenodd" fill-opacity="1" /><path clip-path="url(#clip400)" d="M167.903 58.3673 Q164.969 58.3673 163.483 61.2637 Q162.016 64.1413 162.016 69.934 Q162.016 75.708 163.483 78.6044 Q164.969 81.482 167.903 81.482 Q170.855 81.482 172.322 78.6044 Q173.808 75.708 173.808 69.934 Q173.808 64.1413 172.322 61.2637 Q170.855 58.3673 167.903 58.3673 M167.903 55.358 Q172.623 55.358 175.106 59.1008 Q177.607 62.8247 177.607 69.934 Q177.607 77.0246 175.106 80.7673 Q172.623 84.4913 167.903 84.4913 Q163.182 84.4913 160.68 80.7673 Q158.198 77.0246 158.198 69.934 Q158.198 62.8247 160.68 59.1008 Q163.182 55.358 167.903 55.358 Z" fill="#000000" fill-rule="evenodd" fill-opacity="1" /><polyline clip-path="url(#clip402)" style="stroke:#009af9; stroke-linecap:butt; stroke-linejoin:round; stroke-width:4; stroke-opacity:1; fill:none" points="
  274.149,87.6286 475.956,87.6287 677.762,87.6293 879.569,87.7078 1081.38,97.0926 1283.18,290.454 1484.99,1396.63 1686.79,1433.78 1888.6,1433.78 2090.41,1433.78 
  2292.21,1433.78 
  "/>
<path clip-path="url(#clip400)" d="
M1991.34 198.488 L2281.45 198.488 L2281.45 94.8081 L1991.34 94.8081  Z
  " fill="#ffffff" fill-rule="evenodd" fill-opacity="1"/>
<polyline clip-path="url(#clip400)" style="stroke:#000000; stroke-linecap:butt; stroke-linejoin:round; stroke-width:4; stroke-opacity:1; fill:none" points="
  1991.34,198.488 2281.45,198.488 2281.45,94.8081 1991.34,94.8081 1991.34,198.488 
  "/>
<polyline clip-path="url(#clip400)" style="stroke:#009af9; stroke-linecap:butt; stroke-linejoin:round; stroke-width:4; stroke-opacity:1; fill:none" points="
  2015.11,146.648 2157.72,146.648 
  "/>
<path clip-path="url(#clip400)" d="M2195.33 166.336 Q2193.52 170.965 2191.81 172.377 Q2190.1 173.789 2187.22 173.789 L2183.82 173.789 L2183.82 170.224 L2186.32 170.224 Q2188.08 170.224 2189.05 169.391 Q2190.03 168.558 2191.21 165.456 L2191.97 163.511 L2181.48 138.002 L2186 138.002 L2194.1 158.28 L2202.2 138.002 L2206.72 138.002 L2195.33 166.336 Z" fill="#000000" fill-rule="evenodd" fill-opacity="1" /><path clip-path="url(#clip400)" d="M2214.01 159.993 L2221.65 159.993 L2221.65 133.627 L2213.34 135.294 L2213.34 131.035 L2221.6 129.368 L2226.28 129.368 L2226.28 159.993 L2233.91 159.993 L2233.91 163.928 L2214.01 163.928 L2214.01 159.993 Z" fill="#000000" fill-rule="evenodd" fill-opacity="1" /></svg>
