<?xml version="1.0" encoding="utf-8"?>
<svg xmlns="http://www.w3.org/2000/svg" xmlns:xlink="http://www.w3.org/1999/xlink" width="600" height="400" viewBox="0 0 2400 1600">
<defs>
  <clipPath id="clip550">
    <rect x="0" y="0" width="2400" height="1600"/>
  </clipPath>
</defs>
<path clip-path="url(#clip550)" d="
M0 1600 L2400 1600 L2400 0 L0 0  Z
  " fill="#ffffff" fill-rule="evenodd" fill-opacity="1"/>
<defs>
  <clipPath id="clip551">
    <rect x="480" y="0" width="1681" height="1600"/>
  </clipPath>
</defs>
<path clip-path="url(#clip550)" d="
M169.283 1469.17 L2352.76 1469.17 L2352.76 47.2441 L169.283 47.2441  Z
  " fill="#ffffff" fill-rule="evenodd" fill-opacity="1"/>
<defs>
  <clipPath id="clip552">
    <rect x="169" y="47" width="2184" height="1423"/>
  </clipPath>
</defs>
<polyline clip-path="url(#clip552)" style="stroke:#000000; stroke-linecap:round; stroke-linejoin:round; stroke-width:2; stroke-opacity:0.1; fill:none" points="
  198.383,1469.17 198.383,47.2441 
  "/>
<polyline clip-path="url(#clip552)" style="stroke:#000000; stroke-linecap:round; stroke-linejoin:round; stroke-width:2; stroke-opacity:0.1; fill:none" points="
  525.348,1469.17 525.348,47.2441 
  "/>
<polyline clip-path="url(#clip552)" style="stroke:#000000; stroke-linecap:round; stroke-linejoin:round; stroke-width:2; stroke-opacity:0.1; fill:none" points="
  852.313,1469.17 852.313,47.2441 
  "/>
<polyline clip-path="url(#clip552)" style="stroke:#000000; stroke-linecap:round; stroke-linejoin:round; stroke-width:2; stroke-opacity:0.1; fill:none" points="
  1179.28,1469.17 1179.28,47.2441 
  "/>
<polyline clip-path="url(#clip552)" style="stroke:#000000; stroke-linecap:round; stroke-linejoin:round; stroke-width:2; stroke-opacity:0.1; fill:none" points="
  1506.24,1469.17 1506.24,47.2441 
  "/>
<polyline clip-path="url(#clip552)" style="stroke:#000000; stroke-linecap:round; stroke-linejoin:round; stroke-width:2; stroke-opacity:0.1; fill:none" points="
  1833.21,1469.17 1833.21,47.2441 
  "/>
<polyline clip-path="url(#clip552)" style="stroke:#000000; stroke-linecap:round; stroke-linejoin:round; stroke-width:2; stroke-opacity:0.1; fill:none" points="
  2160.17,1469.17 2160.17,47.2441 
  "/>
<polyline clip-path="url(#clip550)" style="stroke:#000000; stroke-linecap:round; stroke-linejoin:round; stroke-width:4; stroke-opacity:1; fill:none" points="
  169.283,1469.17 2352.76,1469.17 
  "/>
<polyline clip-path="url(#clip550)" style="stroke:#000000; stroke-linecap:round; stroke-linejoin:round; stroke-width:4; stroke-opacity:1; fill:none" points="
  198.383,1469.17 198.383,1450.27 
  "/>
<polyline clip-path="url(#clip550)" style="stroke:#000000; stroke-linecap:round; stroke-linejoin:round; stroke-width:4; stroke-opacity:1; fill:none" points="
  525.348,1469.17 525.348,1450.27 
  "/>
<polyline clip-path="url(#clip550)" style="stroke:#000000; stroke-linecap:round; stroke-linejoin:round; stroke-width:4; stroke-opacity:1; fill:none" points="
  852.313,1469.17 852.313,1450.27 
  "/>
<polyline clip-path="url(#clip550)" style="stroke:#000000; stroke-linecap:round; stroke-linejoin:round; stroke-width:4; stroke-opacity:1; fill:none" points="
  1179.28,1469.17 1179.28,1450.27 
  "/>
<polyline clip-path="url(#clip550)" style="stroke:#000000; stroke-linecap:round; stroke-linejoin:round; stroke-width:4; stroke-opacity:1; fill:none" points="
  1506.24,1469.17 1506.24,1450.27 
  "/>
<polyline clip-path="url(#clip550)" style="stroke:#000000; stroke-linecap:round; stroke-linejoin:round; stroke-width:4; stroke-opacity:1; fill:none" points="
  1833.21,1469.17 1833.21,1450.27 
  "/>
<polyline clip-path="url(#clip550)" style="stroke:#000000; stroke-linecap:round; stroke-linejoin:round; stroke-width:4; stroke-opacity:1; fill:none" points="
  2160.17,1469.17 2160.17,1450.27 
  "/>
<path clip-path="url(#clip550)" d="M198.383 1505.95 Q192.967 1505.95 190.224 1511.29 Q187.515 1516.61 187.515 1527.3 Q187.515 1537.96 190.224 1543.31 Q192.967 1548.62 198.383 1548.62 Q203.835 1548.62 206.543 1543.31 Q209.286 1537.96 209.286 1527.3 Q209.286 1516.61 206.543 1511.29 Q203.835 1505.95 198.383 1505.95 M198.383 1500.39 Q207.098 1500.39 211.682 1507.3 Q216.3 1514.18 216.3 1527.3 Q216.3 1540.39 211.682 1547.3 Q207.098 1554.17 198.383 1554.17 Q189.668 1554.17 185.05 1547.3 Q180.467 1540.39 180.467 1527.3 Q180.467 1514.18 185.05 1507.3 Q189.668 1500.39 198.383 1500.39 Z" fill="#000000" fill-rule="evenodd" fill-opacity="1" /><path clip-path="url(#clip550)" d="M487.38 1547.27 L498.838 1547.27 L498.838 1507.72 L486.373 1510.22 L486.373 1503.83 L498.769 1501.33 L505.782 1501.33 L505.782 1547.27 L517.241 1547.27 L517.241 1553.17 L487.38 1553.17 L487.38 1547.27 Z" fill="#000000" fill-rule="evenodd" fill-opacity="1" /><path clip-path="url(#clip550)" d="M546.407 1505.95 Q540.991 1505.95 538.248 1511.29 Q535.539 1516.61 535.539 1527.3 Q535.539 1537.96 538.248 1543.31 Q540.991 1548.62 546.407 1548.62 Q551.859 1548.62 554.567 1543.31 Q557.31 1537.96 557.31 1527.3 Q557.31 1516.61 554.567 1511.29 Q551.859 1505.95 546.407 1505.95 M546.407 1500.39 Q555.122 1500.39 559.706 1507.3 Q564.324 1514.18 564.324 1527.3 Q564.324 1540.39 559.706 1547.3 Q555.122 1554.17 546.407 1554.17 Q537.692 1554.17 533.074 1547.3 Q528.491 1540.39 528.491 1527.3 Q528.491 1514.18 533.074 1507.3 Q537.692 1500.39 546.407 1500.39 Z" fill="#000000" fill-rule="evenodd" fill-opacity="1" /><path clip-path="url(#clip550)" d="M820.473 1547.27 L844.952 1547.27 L844.952 1553.17 L812.036 1553.17 L812.036 1547.27 Q816.029 1543.13 822.904 1536.19 Q829.813 1529.21 831.584 1527.2 Q834.952 1523.41 836.272 1520.81 Q837.626 1518.17 837.626 1515.63 Q837.626 1511.5 834.709 1508.9 Q831.827 1506.29 827.175 1506.29 Q823.876 1506.29 820.195 1507.44 Q816.55 1508.58 812.383 1510.91 L812.383 1503.83 Q816.619 1502.13 820.3 1501.26 Q823.98 1500.39 827.036 1500.39 Q835.091 1500.39 839.883 1504.42 Q844.674 1508.45 844.674 1515.18 Q844.674 1518.38 843.459 1521.26 Q842.279 1524.11 839.119 1527.99 Q838.251 1529 833.598 1533.83 Q828.945 1538.62 820.473 1547.27 Z" fill="#000000" fill-rule="evenodd" fill-opacity="1" /><path clip-path="url(#clip550)" d="M874.674 1505.95 Q869.258 1505.95 866.515 1511.29 Q863.806 1516.61 863.806 1527.3 Q863.806 1537.96 866.515 1543.31 Q869.258 1548.62 874.674 1548.62 Q880.126 1548.62 882.834 1543.31 Q885.577 1537.96 885.577 1527.3 Q885.577 1516.61 882.834 1511.29 Q880.126 1505.95 874.674 1505.95 M874.674 1500.39 Q883.39 1500.39 887.973 1507.3 Q892.591 1514.18 892.591 1527.3 Q892.591 1540.39 887.973 1547.3 Q883.39 1554.17 874.674 1554.17 Q865.959 1554.17 861.341 1547.3 Q856.758 1540.39 856.758 1527.3 Q856.758 1514.18 861.341 1507.3 Q865.959 1500.39 874.674 1500.39 Z" fill="#000000" fill-rule="evenodd" fill-opacity="1" /><path clip-path="url(#clip550)" d="M1162.54 1525.22 Q1167.58 1526.29 1170.39 1529.7 Q1173.24 1533.1 1173.24 1538.1 Q1173.24 1545.77 1167.96 1549.97 Q1162.68 1554.17 1152.96 1554.17 Q1149.7 1554.17 1146.22 1553.52 Q1142.79 1552.89 1139.1 1551.61 L1139.1 1544.83 Q1142.02 1546.54 1145.49 1547.4 Q1148.97 1548.27 1152.75 1548.27 Q1159.35 1548.27 1162.79 1545.67 Q1166.26 1543.06 1166.26 1538.1 Q1166.26 1533.52 1163.03 1530.95 Q1159.83 1528.34 1154.1 1528.34 L1148.06 1528.34 L1148.06 1522.58 L1154.38 1522.58 Q1159.56 1522.58 1162.3 1520.53 Q1165.04 1518.45 1165.04 1514.56 Q1165.04 1510.56 1162.2 1508.45 Q1159.38 1506.29 1154.1 1506.29 Q1151.22 1506.29 1147.92 1506.92 Q1144.63 1507.54 1140.67 1508.86 L1140.67 1502.61 Q1144.66 1501.5 1148.13 1500.95 Q1151.64 1500.39 1154.73 1500.39 Q1162.72 1500.39 1167.37 1504.04 Q1172.02 1507.65 1172.02 1513.83 Q1172.02 1518.13 1169.56 1521.12 Q1167.09 1524.07 1162.54 1525.22 Z" fill="#000000" fill-rule="evenodd" fill-opacity="1" /><path clip-path="url(#clip550)" d="M1201.54 1505.95 Q1196.12 1505.95 1193.38 1511.29 Q1190.67 1516.61 1190.67 1527.3 Q1190.67 1537.96 1193.38 1543.31 Q1196.12 1548.62 1201.54 1548.62 Q1206.99 1548.62 1209.69 1543.31 Q1212.44 1537.96 1212.44 1527.3 Q1212.44 1516.61 1209.69 1511.29 Q1206.99 1505.95 1201.54 1505.95 M1201.54 1500.39 Q1210.25 1500.39 1214.83 1507.3 Q1219.45 1514.18 1219.45 1527.3 Q1219.45 1540.39 1214.83 1547.3 Q1210.25 1554.17 1201.54 1554.17 Q1192.82 1554.17 1188.2 1547.3 Q1183.62 1540.39 1183.62 1527.3 Q1183.62 1514.18 1188.2 1507.3 Q1192.82 1500.39 1201.54 1500.39 Z" fill="#000000" fill-rule="evenodd" fill-opacity="1" /><path clip-path="url(#clip550)" d="M1488.5 1507.44 L1470.79 1535.11 L1488.5 1535.11 L1488.5 1507.44 M1486.66 1501.33 L1495.48 1501.33 L1495.48 1535.11 L1502.88 1535.11 L1502.88 1540.95 L1495.48 1540.95 L1495.48 1553.17 L1488.5 1553.17 L1488.5 1540.95 L1465.1 1540.95 L1465.1 1534.17 L1486.66 1501.33 Z" fill="#000000" fill-rule="evenodd" fill-opacity="1" /><path clip-path="url(#clip550)" d="M1529.47 1505.95 Q1524.06 1505.95 1521.31 1511.29 Q1518.6 1516.61 1518.6 1527.3 Q1518.6 1537.96 1521.31 1543.31 Q1524.06 1548.62 1529.47 1548.62 Q1534.92 1548.62 1537.63 1543.31 Q1540.38 1537.96 1540.38 1527.3 Q1540.38 1516.61 1537.63 1511.29 Q1534.92 1505.95 1529.47 1505.95 M1529.47 1500.39 Q1538.19 1500.39 1542.77 1507.3 Q1547.39 1514.18 1547.39 1527.3 Q1547.39 1540.39 1542.77 1547.3 Q1538.19 1554.17 1529.47 1554.17 Q1520.76 1554.17 1516.14 1547.3 Q1511.56 1540.39 1511.56 1527.3 Q1511.56 1514.18 1516.14 1507.3 Q1520.76 1500.39 1529.47 1500.39 Z" fill="#000000" fill-rule="evenodd" fill-opacity="1" /><path clip-path="url(#clip550)" d="M1795.26 1501.33 L1822.79 1501.33 L1822.79 1507.23 L1801.68 1507.23 L1801.68 1519.94 Q1803.21 1519.42 1804.74 1519.18 Q1806.26 1518.9 1807.79 1518.9 Q1816.47 1518.9 1821.54 1523.65 Q1826.61 1528.41 1826.61 1536.54 Q1826.61 1544.9 1821.4 1549.56 Q1816.19 1554.17 1806.72 1554.17 Q1803.45 1554.17 1800.05 1553.62 Q1796.68 1553.06 1793.07 1551.95 L1793.07 1544.9 Q1796.19 1546.61 1799.53 1547.44 Q1802.86 1548.27 1806.58 1548.27 Q1812.58 1548.27 1816.09 1545.11 Q1819.6 1541.95 1819.6 1536.54 Q1819.6 1531.12 1816.09 1527.96 Q1812.58 1524.8 1806.58 1524.8 Q1803.76 1524.8 1800.95 1525.42 Q1798.17 1526.05 1795.26 1527.37 L1795.26 1501.33 Z" fill="#000000" fill-rule="evenodd" fill-opacity="1" /><path clip-path="url(#clip550)" d="M1855.43 1505.95 Q1850.01 1505.95 1847.27 1511.29 Q1844.56 1516.61 1844.56 1527.3 Q1844.56 1537.96 1847.27 1543.31 Q1850.01 1548.62 1855.43 1548.62 Q1860.88 1548.62 1863.59 1543.31 Q1866.33 1537.96 1866.33 1527.3 Q1866.33 1516.61 1863.59 1511.29 Q1860.88 1505.95 1855.43 1505.95 M1855.43 1500.39 Q1864.15 1500.39 1868.73 1507.3 Q1873.35 1514.18 1873.35 1527.3 Q1873.35 1540.39 1868.73 1547.3 Q1864.15 1554.17 1855.43 1554.17 Q1846.72 1554.17 1842.1 1547.3 Q1837.51 1540.39 1837.51 1527.3 Q1837.51 1514.18 1842.1 1507.3 Q1846.72 1500.39 1855.43 1500.39 Z" fill="#000000" fill-rule="evenodd" fill-opacity="1" /><path clip-path="url(#clip550)" d="M2138.28 1524.45 Q2133.56 1524.45 2130.78 1527.68 Q2128.04 1530.91 2128.04 1536.54 Q2128.04 1542.13 2130.78 1545.39 Q2133.56 1548.62 2138.28 1548.62 Q2143 1548.62 2145.75 1545.39 Q2148.52 1542.13 2148.52 1536.54 Q2148.52 1530.91 2145.75 1527.68 Q2143 1524.45 2138.28 1524.45 M2152.2 1502.47 L2152.2 1508.86 Q2149.57 1507.61 2146.86 1506.95 Q2144.18 1506.29 2141.55 1506.29 Q2134.6 1506.29 2130.92 1510.98 Q2127.27 1515.67 2126.75 1525.15 Q2128.8 1522.13 2131.89 1520.53 Q2134.98 1518.9 2138.7 1518.9 Q2146.51 1518.9 2151.02 1523.65 Q2155.57 1528.38 2155.57 1536.54 Q2155.57 1544.52 2150.85 1549.35 Q2146.13 1554.17 2138.28 1554.17 Q2129.29 1554.17 2124.53 1547.3 Q2119.77 1540.39 2119.77 1527.3 Q2119.77 1515.01 2125.61 1507.72 Q2131.44 1500.39 2141.27 1500.39 Q2143.91 1500.39 2146.58 1500.91 Q2149.29 1501.43 2152.2 1502.47 Z" fill="#000000" fill-rule="evenodd" fill-opacity="1" /><path clip-path="url(#clip550)" d="M2182.66 1505.95 Q2177.24 1505.95 2174.5 1511.29 Q2171.79 1516.61 2171.79 1527.3 Q2171.79 1537.96 2174.5 1543.31 Q2177.24 1548.62 2182.66 1548.62 Q2188.11 1548.62 2190.82 1543.31 Q2193.56 1537.96 2193.56 1527.3 Q2193.56 1516.61 2190.82 1511.29 Q2188.11 1505.95 2182.66 1505.95 M2182.66 1500.39 Q2191.37 1500.39 2195.95 1507.3 Q2200.57 1514.18 2200.57 1527.3 Q2200.57 1540.39 2195.95 1547.3 Q2191.37 1554.17 2182.66 1554.17 Q2173.94 1554.17 2169.32 1547.3 Q2164.74 1540.39 2164.74 1527.3 Q2164.74 1514.18 2169.32 1507.3 Q2173.94 1500.39 2182.66 1500.39 Z" fill="#000000" fill-rule="evenodd" fill-opacity="1" /><polyline clip-path="url(#clip552)" style="stroke:#000000; stroke-linecap:round; stroke-linejoin:round; stroke-width:2; stroke-opacity:0.1; fill:none" points="
  169.283,1428.92 2352.76,1428.92 
  "/>
<polyline clip-path="url(#clip552)" style="stroke:#000000; stroke-linecap:round; stroke-linejoin:round; stroke-width:2; stroke-opacity:0.1; fill:none" points="
  169.283,1219.33 2352.76,1219.33 
  "/>
<polyline clip-path="url(#clip552)" style="stroke:#000000; stroke-linecap:round; stroke-linejoin:round; stroke-width:2; stroke-opacity:0.1; fill:none" points="
  169.283,1009.73 2352.76,1009.73 
  "/>
<polyline clip-path="url(#clip552)" style="stroke:#000000; stroke-linecap:round; stroke-linejoin:round; stroke-width:2; stroke-opacity:0.1; fill:none" points="
  169.283,800.126 2352.76,800.126 
  "/>
<polyline clip-path="url(#clip552)" style="stroke:#000000; stroke-linecap:round; stroke-linejoin:round; stroke-width:2; stroke-opacity:0.1; fill:none" points="
  169.283,590.526 2352.76,590.526 
  "/>
<polyline clip-path="url(#clip552)" style="stroke:#000000; stroke-linecap:round; stroke-linejoin:round; stroke-width:2; stroke-opacity:0.1; fill:none" points="
  169.283,380.927 2352.76,380.927 
  "/>
<polyline clip-path="url(#clip552)" style="stroke:#000000; stroke-linecap:round; stroke-linejoin:round; stroke-width:2; stroke-opacity:0.1; fill:none" points="
  169.283,171.327 2352.76,171.327 
  "/>
<polyline clip-path="url(#clip550)" style="stroke:#000000; stroke-linecap:round; stroke-linejoin:round; stroke-width:4; stroke-opacity:1; fill:none" points="
  169.283,1469.17 169.283,47.2441 
  "/>
<polyline clip-path="url(#clip550)" style="stroke:#000000; stroke-linecap:round; stroke-linejoin:round; stroke-width:4; stroke-opacity:1; fill:none" points="
  169.283,1428.92 188.181,1428.92 
  "/>
<polyline clip-path="url(#clip550)" style="stroke:#000000; stroke-linecap:round; stroke-linejoin:round; stroke-width:4; stroke-opacity:1; fill:none" points="
  169.283,1219.33 188.181,1219.33 
  "/>
<polyline clip-path="url(#clip550)" style="stroke:#000000; stroke-linecap:round; stroke-linejoin:round; stroke-width:4; stroke-opacity:1; fill:none" points="
  169.283,1009.73 188.181,1009.73 
  "/>
<polyline clip-path="url(#clip550)" style="stroke:#000000; stroke-linecap:round; stroke-linejoin:round; stroke-width:4; stroke-opacity:1; fill:none" points="
  169.283,800.126 188.181,800.126 
  "/>
<polyline clip-path="url(#clip550)" style="stroke:#000000; stroke-linecap:round; stroke-linejoin:round; stroke-width:4; stroke-opacity:1; fill:none" points="
  169.283,590.526 188.181,590.526 
  "/>
<polyline clip-path="url(#clip550)" style="stroke:#000000; stroke-linecap:round; stroke-linejoin:round; stroke-width:4; stroke-opacity:1; fill:none" points="
  169.283,380.927 188.181,380.927 
  "/>
<polyline clip-path="url(#clip550)" style="stroke:#000000; stroke-linecap:round; stroke-linejoin:round; stroke-width:4; stroke-opacity:1; fill:none" points="
  169.283,171.327 188.181,171.327 
  "/>
<path clip-path="url(#clip550)" d="M115.367 1407.62 Q109.95 1407.62 107.207 1412.97 Q104.499 1418.28 104.499 1428.98 Q104.499 1439.64 107.207 1444.98 Q109.95 1450.3 115.367 1450.3 Q120.818 1450.3 123.526 1444.98 Q126.27 1439.64 126.27 1428.98 Q126.27 1418.28 123.526 1412.97 Q120.818 1407.62 115.367 1407.62 M115.367 1402.07 Q124.082 1402.07 128.665 1408.98 Q133.283 1415.85 133.283 1428.98 Q133.283 1442.07 128.665 1448.98 Q124.082 1455.85 115.367 1455.85 Q106.652 1455.85 102.034 1448.98 Q97.4502 1442.07 97.4502 1428.98 Q97.4502 1415.85 102.034 1408.98 Q106.652 1402.07 115.367 1402.07 Z" fill="#000000" fill-rule="evenodd" fill-opacity="1" /><path clip-path="url(#clip550)" d="M56.3393 1239.34 L67.7976 1239.34 L67.7976 1199.79 L55.3324 1202.29 L55.3324 1195.91 L67.7281 1193.41 L74.742 1193.41 L74.742 1239.34 L86.2003 1239.34 L86.2003 1245.25 L56.3393 1245.25 L56.3393 1239.34 Z" fill="#000000" fill-rule="evenodd" fill-opacity="1" /><path clip-path="url(#clip550)" d="M115.367 1198.02 Q109.95 1198.02 107.207 1203.37 Q104.499 1208.68 104.499 1219.38 Q104.499 1230.04 107.207 1235.38 Q109.95 1240.7 115.367 1240.7 Q120.818 1240.7 123.526 1235.38 Q126.27 1230.04 126.27 1219.38 Q126.27 1208.68 123.526 1203.37 Q120.818 1198.02 115.367 1198.02 M115.367 1192.47 Q124.082 1192.47 128.665 1199.38 Q133.283 1206.25 133.283 1219.38 Q133.283 1232.47 128.665 1239.38 Q124.082 1246.25 115.367 1246.25 Q106.652 1246.25 102.034 1239.38 Q97.4502 1232.47 97.4502 1219.38 Q97.4502 1206.25 102.034 1199.38 Q106.652 1192.47 115.367 1192.47 Z" fill="#000000" fill-rule="evenodd" fill-opacity="1" /><path clip-path="url(#clip550)" d="M61.1657 1029.74 L85.6447 1029.74 L85.6447 1035.65 L52.7282 1035.65 L52.7282 1029.74 Q56.7213 1025.61 63.5962 1018.67 Q70.5059 1011.69 72.2767 1009.67 Q75.6448 1005.89 76.9642 1003.28 Q78.3184 1000.65 78.3184 998.111 Q78.3184 993.979 75.4017 991.375 Q72.5198 988.771 67.867 988.771 Q64.5684 988.771 60.8879 989.917 Q57.2421 991.062 53.0754 993.389 L53.0754 986.306 Q57.3115 984.604 60.9921 983.736 Q64.6726 982.868 67.7281 982.868 Q75.7837 982.868 80.5753 986.896 Q85.3669 990.924 85.3669 997.66 Q85.3669 1000.85 84.1517 1003.74 Q82.9711 1006.58 79.8114 1010.47 Q78.9434 1011.48 74.2906 1016.31 Q69.6379 1021.1 61.1657 1029.74 Z" fill="#000000" fill-rule="evenodd" fill-opacity="1" /><path clip-path="url(#clip550)" d="M115.367 988.424 Q109.95 988.424 107.207 993.771 Q104.499 999.083 104.499 1009.78 Q104.499 1020.44 107.207 1025.78 Q109.95 1031.1 115.367 1031.1 Q120.818 1031.1 123.526 1025.78 Q126.27 1020.44 126.27 1009.78 Q126.27 999.083 123.526 993.771 Q120.818 988.424 115.367 988.424 M115.367 982.868 Q124.082 982.868 128.665 989.778 Q133.283 996.653 133.283 1009.78 Q133.283 1022.87 128.665 1029.78 Q124.082 1036.65 115.367 1036.65 Q106.652 1036.65 102.034 1029.78 Q97.4502 1022.87 97.4502 1009.78 Q97.4502 996.653 102.034 989.778 Q106.652 982.868 115.367 982.868 Z" fill="#000000" fill-rule="evenodd" fill-opacity="1" /><path clip-path="url(#clip550)" d="M76.3739 798.095 Q81.4086 799.171 84.2211 802.574 Q87.0683 805.977 87.0683 810.977 Q87.0683 818.65 81.7906 822.851 Q76.5128 827.053 66.7907 827.053 Q63.5268 827.053 60.0546 826.393 Q56.6171 825.768 52.9366 824.483 L52.9366 817.713 Q55.8532 819.414 59.3254 820.282 Q62.7976 821.15 66.5823 821.15 Q73.1795 821.15 76.617 818.546 Q80.0892 815.942 80.0892 810.977 Q80.0892 806.393 76.86 803.824 Q73.6656 801.22 67.9365 801.22 L61.8948 801.22 L61.8948 795.456 L68.2143 795.456 Q73.3878 795.456 76.1309 793.407 Q78.8739 791.324 78.8739 787.435 Q78.8739 783.442 76.0267 781.324 Q73.2142 779.171 67.9365 779.171 Q65.0546 779.171 61.756 779.796 Q58.4574 780.421 54.4991 781.741 L54.4991 775.491 Q58.4921 774.38 61.9643 773.824 Q65.4712 773.268 68.5615 773.268 Q76.5475 773.268 81.2003 776.914 Q85.8531 780.525 85.8531 786.706 Q85.8531 791.011 83.3878 793.997 Q80.9225 796.949 76.3739 798.095 Z" fill="#000000" fill-rule="evenodd" fill-opacity="1" /><path clip-path="url(#clip550)" d="M115.367 778.824 Q109.95 778.824 107.207 784.171 Q104.499 789.484 104.499 800.178 Q104.499 810.838 107.207 816.185 Q109.95 821.497 115.367 821.497 Q120.818 821.497 123.526 816.185 Q126.27 810.838 126.27 800.178 Q126.27 789.484 123.526 784.171 Q120.818 778.824 115.367 778.824 M115.367 773.268 Q124.082 773.268 128.665 780.178 Q133.283 787.053 133.283 800.178 Q133.283 813.268 128.665 820.178 Q124.082 827.053 115.367 827.053 Q106.652 827.053 102.034 820.178 Q97.4502 813.268 97.4502 800.178 Q97.4502 787.053 102.034 780.178 Q106.652 773.268 115.367 773.268 Z" fill="#000000" fill-rule="evenodd" fill-opacity="1" /><path clip-path="url(#clip550)" d="M74.3948 570.717 L56.6865 598.391 L74.3948 598.391 L74.3948 570.717 M72.5545 564.606 L81.3739 564.606 L81.3739 598.391 L88.7697 598.391 L88.7697 604.224 L81.3739 604.224 L81.3739 616.446 L74.3948 616.446 L74.3948 604.224 L50.9921 604.224 L50.9921 597.453 L72.5545 564.606 Z" fill="#000000" fill-rule="evenodd" fill-opacity="1" /><path clip-path="url(#clip550)" d="M115.367 569.224 Q109.95 569.224 107.207 574.572 Q104.499 579.884 104.499 590.578 Q104.499 601.238 107.207 606.585 Q109.95 611.898 115.367 611.898 Q120.818 611.898 123.526 606.585 Q126.27 601.238 126.27 590.578 Q126.27 579.884 123.526 574.572 Q120.818 569.224 115.367 569.224 M115.367 563.669 Q124.082 563.669 128.665 570.578 Q133.283 577.453 133.283 590.578 Q133.283 603.669 128.665 610.578 Q124.082 617.453 115.367 617.453 Q106.652 617.453 102.034 610.578 Q97.4502 603.669 97.4502 590.578 Q97.4502 577.453 102.034 570.578 Q106.652 563.669 115.367 563.669 Z" fill="#000000" fill-rule="evenodd" fill-opacity="1" /><path clip-path="url(#clip550)" d="M55.1935 355.007 L82.7281 355.007 L82.7281 360.909 L61.6171 360.909 L61.6171 373.618 Q63.1448 373.097 64.6726 372.854 Q66.2004 372.576 67.7281 372.576 Q76.4087 372.576 81.4781 377.333 Q86.5475 382.09 86.5475 390.215 Q86.5475 398.583 81.3392 403.236 Q76.1309 407.854 66.6518 407.854 Q63.3879 407.854 59.9851 407.298 Q56.6171 406.743 53.006 405.631 L53.006 398.583 Q56.131 400.284 59.4643 401.118 Q62.7976 401.951 66.5129 401.951 Q72.5198 401.951 76.0267 398.791 Q79.5336 395.631 79.5336 390.215 Q79.5336 384.798 76.0267 381.638 Q72.5198 378.479 66.5129 378.479 Q63.7004 378.479 60.8879 379.104 Q58.1101 379.729 55.1935 381.048 L55.1935 355.007 Z" fill="#000000" fill-rule="evenodd" fill-opacity="1" /><path clip-path="url(#clip550)" d="M115.367 359.625 Q109.95 359.625 107.207 364.972 Q104.499 370.284 104.499 380.979 Q104.499 391.638 107.207 396.986 Q109.95 402.298 115.367 402.298 Q120.818 402.298 123.526 396.986 Q126.27 391.638 126.27 380.979 Q126.27 370.284 123.526 364.972 Q120.818 359.625 115.367 359.625 M115.367 354.069 Q124.082 354.069 128.665 360.979 Q133.283 367.854 133.283 380.979 Q133.283 394.069 128.665 400.979 Q124.082 407.854 115.367 407.854 Q106.652 407.854 102.034 400.979 Q97.4502 394.069 97.4502 380.979 Q97.4502 367.854 102.034 360.979 Q106.652 354.069 115.367 354.069 Z" fill="#000000" fill-rule="evenodd" fill-opacity="1" /><path clip-path="url(#clip550)" d="M70.992 168.532 Q66.2698 168.532 63.4921 171.761 Q60.749 174.99 60.749 180.615 Q60.749 186.205 63.4921 189.469 Q66.2698 192.698 70.992 192.698 Q75.7142 192.698 78.4573 189.469 Q81.235 186.205 81.235 180.615 Q81.235 174.99 78.4573 171.761 Q75.7142 168.532 70.992 168.532 M84.9156 146.553 L84.9156 152.942 Q82.2767 151.692 79.5684 151.032 Q76.8948 150.372 74.2559 150.372 Q67.3115 150.372 63.6309 155.06 Q59.9851 159.747 59.4643 169.226 Q61.5129 166.206 64.6032 164.608 Q67.6934 162.976 71.4087 162.976 Q79.2211 162.976 83.735 167.733 Q88.2836 172.456 88.2836 180.615 Q88.2836 188.601 83.5614 193.428 Q78.8392 198.254 70.992 198.254 Q61.999 198.254 57.2421 191.379 Q52.4852 184.469 52.4852 171.379 Q52.4852 159.088 58.3185 151.796 Q64.1518 144.47 73.9781 144.47 Q76.617 144.47 79.2906 144.99 Q81.9989 145.511 84.9156 146.553 Z" fill="#000000" fill-rule="evenodd" fill-opacity="1" /><path clip-path="url(#clip550)" d="M115.367 150.025 Q109.95 150.025 107.207 155.372 Q104.499 160.685 104.499 171.379 Q104.499 182.039 107.207 187.386 Q109.95 192.698 115.367 192.698 Q120.818 192.698 123.526 187.386 Q126.27 182.039 126.27 171.379 Q126.27 160.685 123.526 155.372 Q120.818 150.025 115.367 150.025 M115.367 144.47 Q124.082 144.47 128.665 151.379 Q133.283 158.254 133.283 171.379 Q133.283 184.469 128.665 191.379 Q124.082 198.254 115.367 198.254 Q106.652 198.254 102.034 191.379 Q97.4502 184.469 97.4502 171.379 Q97.4502 158.254 102.034 151.379 Q106.652 144.47 115.367 144.47 Z" fill="#000000" fill-rule="evenodd" fill-opacity="1" /><circle clip-path="url(#clip552)" cx="231.08" cy="1428.92" r="14.4" fill="#009af9" fill-rule="evenodd" fill-opacity="1" stroke="#000000" stroke-opacity="1" stroke-width="3.2"/>
<circle clip-path="url(#clip552)" cx="263.776" cy="1428.92" r="14.4" fill="#009af9" fill-rule="evenodd" fill-opacity="1" stroke="#000000" stroke-opacity="1" stroke-width="3.2"/>
<circle clip-path="url(#clip552)" cx="296.473" cy="87.4872" r="14.4" fill="#009af9" fill-rule="evenodd" fill-opacity="1" stroke="#000000" stroke-opacity="1" stroke-width="3.2"/>
<circle clip-path="url(#clip552)" cx="329.169" cy="1428.92" r="14.4" fill="#009af9" fill-rule="evenodd" fill-opacity="1" stroke="#000000" stroke-opacity="1" stroke-width="3.2"/>
<circle clip-path="url(#clip552)" cx="361.866" cy="1428.92" r="14.4" fill="#009af9" fill-rule="evenodd" fill-opacity="1" stroke="#000000" stroke-opacity="1" stroke-width="3.2"/>
<circle clip-path="url(#clip552)" cx="394.562" cy="1428.92" r="14.4" fill="#009af9" fill-rule="evenodd" fill-opacity="1" stroke="#000000" stroke-opacity="1" stroke-width="3.2"/>
<circle clip-path="url(#clip552)" cx="427.259" cy="1428.92" r="14.4" fill="#009af9" fill-rule="evenodd" fill-opacity="1" stroke="#000000" stroke-opacity="1" stroke-width="3.2"/>
<circle clip-path="url(#clip552)" cx="459.955" cy="1428.92" r="14.4" fill="#009af9" fill-rule="evenodd" fill-opacity="1" stroke="#000000" stroke-opacity="1" stroke-width="3.2"/>
<circle clip-path="url(#clip552)" cx="492.652" cy="1428.92" r="14.4" fill="#009af9" fill-rule="evenodd" fill-opacity="1" stroke="#000000" stroke-opacity="1" stroke-width="3.2"/>
<circle clip-path="url(#clip552)" cx="525.348" cy="1428.92" r="14.4" fill="#009af9" fill-rule="evenodd" fill-opacity="1" stroke="#000000" stroke-opacity="1" stroke-width="3.2"/>
<circle clip-path="url(#clip552)" cx="558.045" cy="1428.92" r="14.4" fill="#009af9" fill-rule="evenodd" fill-opacity="1" stroke="#000000" stroke-opacity="1" stroke-width="3.2"/>
<circle clip-path="url(#clip552)" cx="590.741" cy="1428.92" r="14.4" fill="#009af9" fill-rule="evenodd" fill-opacity="1" stroke="#000000" stroke-opacity="1" stroke-width="3.2"/>
<circle clip-path="url(#clip552)" cx="623.438" cy="1428.92" r="14.4" fill="#009af9" fill-rule="evenodd" fill-opacity="1" stroke="#000000" stroke-opacity="1" stroke-width="3.2"/>
<circle clip-path="url(#clip552)" cx="656.134" cy="1428.92" r="14.4" fill="#009af9" fill-rule="evenodd" fill-opacity="1" stroke="#000000" stroke-opacity="1" stroke-width="3.2"/>
<circle clip-path="url(#clip552)" cx="688.831" cy="1428.92" r="14.4" fill="#009af9" fill-rule="evenodd" fill-opacity="1" stroke="#000000" stroke-opacity="1" stroke-width="3.2"/>
<circle clip-path="url(#clip552)" cx="721.527" cy="1428.92" r="14.4" fill="#009af9" fill-rule="evenodd" fill-opacity="1" stroke="#000000" stroke-opacity="1" stroke-width="3.2"/>
<circle clip-path="url(#clip552)" cx="754.224" cy="1428.92" r="14.4" fill="#009af9" fill-rule="evenodd" fill-opacity="1" stroke="#000000" stroke-opacity="1" stroke-width="3.2"/>
<circle clip-path="url(#clip552)" cx="786.92" cy="1428.92" r="14.4" fill="#009af9" fill-rule="evenodd" fill-opacity="1" stroke="#000000" stroke-opacity="1" stroke-width="3.2"/>
<circle clip-path="url(#clip552)" cx="819.617" cy="1428.92" r="14.4" fill="#009af9" fill-rule="evenodd" fill-opacity="1" stroke="#000000" stroke-opacity="1" stroke-width="3.2"/>
<circle clip-path="url(#clip552)" cx="852.313" cy="1428.92" r="14.4" fill="#009af9" fill-rule="evenodd" fill-opacity="1" stroke="#000000" stroke-opacity="1" stroke-width="3.2"/>
<circle clip-path="url(#clip552)" cx="885.01" cy="1428.92" r="14.4" fill="#009af9" fill-rule="evenodd" fill-opacity="1" stroke="#000000" stroke-opacity="1" stroke-width="3.2"/>
<circle clip-path="url(#clip552)" cx="917.706" cy="1428.92" r="14.4" fill="#009af9" fill-rule="evenodd" fill-opacity="1" stroke="#000000" stroke-opacity="1" stroke-width="3.2"/>
<circle clip-path="url(#clip552)" cx="950.403" cy="1428.92" r="14.4" fill="#009af9" fill-rule="evenodd" fill-opacity="1" stroke="#000000" stroke-opacity="1" stroke-width="3.2"/>
<circle clip-path="url(#clip552)" cx="983.099" cy="1428.92" r="14.4" fill="#009af9" fill-rule="evenodd" fill-opacity="1" stroke="#000000" stroke-opacity="1" stroke-width="3.2"/>
<circle clip-path="url(#clip552)" cx="1015.8" cy="1428.92" r="14.4" fill="#009af9" fill-rule="evenodd" fill-opacity="1" stroke="#000000" stroke-opacity="1" stroke-width="3.2"/>
<circle clip-path="url(#clip552)" cx="1048.49" cy="1428.92" r="14.4" fill="#009af9" fill-rule="evenodd" fill-opacity="1" stroke="#000000" stroke-opacity="1" stroke-width="3.2"/>
<circle clip-path="url(#clip552)" cx="1081.19" cy="1428.92" r="14.4" fill="#009af9" fill-rule="evenodd" fill-opacity="1" stroke="#000000" stroke-opacity="1" stroke-width="3.2"/>
<circle clip-path="url(#clip552)" cx="1113.89" cy="1428.92" r="14.4" fill="#009af9" fill-rule="evenodd" fill-opacity="1" stroke="#000000" stroke-opacity="1" stroke-width="3.2"/>
<circle clip-path="url(#clip552)" cx="1146.58" cy="1428.92" r="14.4" fill="#009af9" fill-rule="evenodd" fill-opacity="1" stroke="#000000" stroke-opacity="1" stroke-width="3.2"/>
<circle clip-path="url(#clip552)" cx="1179.28" cy="1428.92" r="14.4" fill="#009af9" fill-rule="evenodd" fill-opacity="1" stroke="#000000" stroke-opacity="1" stroke-width="3.2"/>
<circle clip-path="url(#clip552)" cx="1211.97" cy="1428.92" r="14.4" fill="#009af9" fill-rule="evenodd" fill-opacity="1" stroke="#000000" stroke-opacity="1" stroke-width="3.2"/>
<circle clip-path="url(#clip552)" cx="1244.67" cy="1428.92" r="14.4" fill="#009af9" fill-rule="evenodd" fill-opacity="1" stroke="#000000" stroke-opacity="1" stroke-width="3.2"/>
<circle clip-path="url(#clip552)" cx="1277.37" cy="1428.92" r="14.4" fill="#009af9" fill-rule="evenodd" fill-opacity="1" stroke="#000000" stroke-opacity="1" stroke-width="3.2"/>
<circle clip-path="url(#clip552)" cx="1310.06" cy="1428.92" r="14.4" fill="#009af9" fill-rule="evenodd" fill-opacity="1" stroke="#000000" stroke-opacity="1" stroke-width="3.2"/>
<circle clip-path="url(#clip552)" cx="1342.76" cy="1428.92" r="14.4" fill="#009af9" fill-rule="evenodd" fill-opacity="1" stroke="#000000" stroke-opacity="1" stroke-width="3.2"/>
<circle clip-path="url(#clip552)" cx="1375.46" cy="1428.92" r="14.4" fill="#009af9" fill-rule="evenodd" fill-opacity="1" stroke="#000000" stroke-opacity="1" stroke-width="3.2"/>
<circle clip-path="url(#clip552)" cx="1408.15" cy="1428.92" r="14.4" fill="#009af9" fill-rule="evenodd" fill-opacity="1" stroke="#000000" stroke-opacity="1" stroke-width="3.2"/>
<circle clip-path="url(#clip552)" cx="1440.85" cy="1428.92" r="14.4" fill="#009af9" fill-rule="evenodd" fill-opacity="1" stroke="#000000" stroke-opacity="1" stroke-width="3.2"/>
<circle clip-path="url(#clip552)" cx="1473.55" cy="1428.92" r="14.4" fill="#009af9" fill-rule="evenodd" fill-opacity="1" stroke="#000000" stroke-opacity="1" stroke-width="3.2"/>
<circle clip-path="url(#clip552)" cx="1506.24" cy="1428.92" r="14.4" fill="#009af9" fill-rule="evenodd" fill-opacity="1" stroke="#000000" stroke-opacity="1" stroke-width="3.2"/>
<circle clip-path="url(#clip552)" cx="1538.94" cy="1428.92" r="14.4" fill="#009af9" fill-rule="evenodd" fill-opacity="1" stroke="#000000" stroke-opacity="1" stroke-width="3.2"/>
<circle clip-path="url(#clip552)" cx="1571.64" cy="1428.92" r="14.4" fill="#009af9" fill-rule="evenodd" fill-opacity="1" stroke="#000000" stroke-opacity="1" stroke-width="3.2"/>
<circle clip-path="url(#clip552)" cx="1604.33" cy="1428.92" r="14.4" fill="#009af9" fill-rule="evenodd" fill-opacity="1" stroke="#000000" stroke-opacity="1" stroke-width="3.2"/>
<circle clip-path="url(#clip552)" cx="1637.03" cy="1428.92" r="14.4" fill="#009af9" fill-rule="evenodd" fill-opacity="1" stroke="#000000" stroke-opacity="1" stroke-width="3.2"/>
<circle clip-path="url(#clip552)" cx="1669.73" cy="1428.92" r="14.4" fill="#009af9" fill-rule="evenodd" fill-opacity="1" stroke="#000000" stroke-opacity="1" stroke-width="3.2"/>
<circle clip-path="url(#clip552)" cx="1702.42" cy="1428.92" r="14.4" fill="#009af9" fill-rule="evenodd" fill-opacity="1" stroke="#000000" stroke-opacity="1" stroke-width="3.2"/>
<circle clip-path="url(#clip552)" cx="1735.12" cy="1428.92" r="14.4" fill="#009af9" fill-rule="evenodd" fill-opacity="1" stroke="#000000" stroke-opacity="1" stroke-width="3.2"/>
<circle clip-path="url(#clip552)" cx="1767.82" cy="1428.92" r="14.4" fill="#009af9" fill-rule="evenodd" fill-opacity="1" stroke="#000000" stroke-opacity="1" stroke-width="3.2"/>
<circle clip-path="url(#clip552)" cx="1800.51" cy="1428.92" r="14.4" fill="#009af9" fill-rule="evenodd" fill-opacity="1" stroke="#000000" stroke-opacity="1" stroke-width="3.2"/>
<circle clip-path="url(#clip552)" cx="1833.21" cy="1428.92" r="14.4" fill="#009af9" fill-rule="evenodd" fill-opacity="1" stroke="#000000" stroke-opacity="1" stroke-width="3.2"/>
<circle clip-path="url(#clip552)" cx="1865.9" cy="1428.92" r="14.4" fill="#009af9" fill-rule="evenodd" fill-opacity="1" stroke="#000000" stroke-opacity="1" stroke-width="3.2"/>
<circle clip-path="url(#clip552)" cx="1898.6" cy="1428.92" r="14.4" fill="#009af9" fill-rule="evenodd" fill-opacity="1" stroke="#000000" stroke-opacity="1" stroke-width="3.2"/>
<circle clip-path="url(#clip552)" cx="1931.3" cy="1428.92" r="14.4" fill="#009af9" fill-rule="evenodd" fill-opacity="1" stroke="#000000" stroke-opacity="1" stroke-width="3.2"/>
<circle clip-path="url(#clip552)" cx="1963.99" cy="1428.92" r="14.4" fill="#009af9" fill-rule="evenodd" fill-opacity="1" stroke="#000000" stroke-opacity="1" stroke-width="3.2"/>
<circle clip-path="url(#clip552)" cx="1996.69" cy="1428.92" r="14.4" fill="#009af9" fill-rule="evenodd" fill-opacity="1" stroke="#000000" stroke-opacity="1" stroke-width="3.2"/>
<circle clip-path="url(#clip552)" cx="2029.39" cy="1428.92" r="14.4" fill="#009af9" fill-rule="evenodd" fill-opacity="1" stroke="#000000" stroke-opacity="1" stroke-width="3.2"/>
<circle clip-path="url(#clip552)" cx="2062.08" cy="1428.92" r="14.4" fill="#009af9" fill-rule="evenodd" fill-opacity="1" stroke="#000000" stroke-opacity="1" stroke-width="3.2"/>
<circle clip-path="url(#clip552)" cx="2094.78" cy="1428.92" r="14.4" fill="#009af9" fill-rule="evenodd" fill-opacity="1" stroke="#000000" stroke-opacity="1" stroke-width="3.2"/>
<circle clip-path="url(#clip552)" cx="2127.48" cy="1428.92" r="14.4" fill="#009af9" fill-rule="evenodd" fill-opacity="1" stroke="#000000" stroke-opacity="1" stroke-width="3.2"/>
<circle clip-path="url(#clip552)" cx="2160.17" cy="1428.92" r="14.4" fill="#009af9" fill-rule="evenodd" fill-opacity="1" stroke="#000000" stroke-opacity="1" stroke-width="3.2"/>
<circle clip-path="url(#clip552)" cx="2192.87" cy="1428.92" r="14.4" fill="#009af9" fill-rule="evenodd" fill-opacity="1" stroke="#000000" stroke-opacity="1" stroke-width="3.2"/>
<circle clip-path="url(#clip552)" cx="2225.57" cy="1428.92" r="14.4" fill="#009af9" fill-rule="evenodd" fill-opacity="1" stroke="#000000" stroke-opacity="1" stroke-width="3.2"/>
<circle clip-path="url(#clip552)" cx="2258.26" cy="1428.92" r="14.4" fill="#009af9" fill-rule="evenodd" fill-opacity="1" stroke="#000000" stroke-opacity="1" stroke-width="3.2"/>
<circle clip-path="url(#clip552)" cx="2290.96" cy="1428.92" r="14.4" fill="#009af9" fill-rule="evenodd" fill-opacity="1" stroke="#000000" stroke-opacity="1" stroke-width="3.2"/>
<circle clip-path="url(#clip552)" cx="231.08" cy="1428.92" r="14.4" fill="#e26f46" fill-rule="evenodd" fill-opacity="1" stroke="#000000" stroke-opacity="1" stroke-width="3.2"/>
<circle clip-path="url(#clip552)" cx="263.776" cy="1428.92" r="14.4" fill="#e26f46" fill-rule="evenodd" fill-opacity="1" stroke="#000000" stroke-opacity="1" stroke-width="3.2"/>
<circle clip-path="url(#clip552)" cx="296.473" cy="1428.92" r="14.4" fill="#e26f46" fill-rule="evenodd" fill-opacity="1" stroke="#000000" stroke-opacity="1" stroke-width="3.2"/>
<circle clip-path="url(#clip552)" cx="329.169" cy="1428.92" r="14.4" fill="#e26f46" fill-rule="evenodd" fill-opacity="1" stroke="#000000" stroke-opacity="1" stroke-width="3.2"/>
<circle clip-path="url(#clip552)" cx="361.866" cy="1428.92" r="14.4" fill="#e26f46" fill-rule="evenodd" fill-opacity="1" stroke="#000000" stroke-opacity="1" stroke-width="3.2"/>
<circle clip-path="url(#clip552)" cx="394.562" cy="1428.92" r="14.4" fill="#e26f46" fill-rule="evenodd" fill-opacity="1" stroke="#000000" stroke-opacity="1" stroke-width="3.2"/>
<circle clip-path="url(#clip552)" cx="427.259" cy="1428.92" r="14.4" fill="#e26f46" fill-rule="evenodd" fill-opacity="1" stroke="#000000" stroke-opacity="1" stroke-width="3.2"/>
<circle clip-path="url(#clip552)" cx="459.955" cy="1428.92" r="14.4" fill="#e26f46" fill-rule="evenodd" fill-opacity="1" stroke="#000000" stroke-opacity="1" stroke-width="3.2"/>
<circle clip-path="url(#clip552)" cx="492.652" cy="1428.92" r="14.4" fill="#e26f46" fill-rule="evenodd" fill-opacity="1" stroke="#000000" stroke-opacity="1" stroke-width="3.2"/>
<circle clip-path="url(#clip552)" cx="525.348" cy="1428.92" r="14.4" fill="#e26f46" fill-rule="evenodd" fill-opacity="1" stroke="#000000" stroke-opacity="1" stroke-width="3.2"/>
<circle clip-path="url(#clip552)" cx="558.045" cy="1428.92" r="14.4" fill="#e26f46" fill-rule="evenodd" fill-opacity="1" stroke="#000000" stroke-opacity="1" stroke-width="3.2"/>
<circle clip-path="url(#clip552)" cx="590.741" cy="1428.92" r="14.4" fill="#e26f46" fill-rule="evenodd" fill-opacity="1" stroke="#000000" stroke-opacity="1" stroke-width="3.2"/>
<circle clip-path="url(#clip552)" cx="623.438" cy="1428.92" r="14.4" fill="#e26f46" fill-rule="evenodd" fill-opacity="1" stroke="#000000" stroke-opacity="1" stroke-width="3.2"/>
<circle clip-path="url(#clip552)" cx="656.134" cy="1428.92" r="14.4" fill="#e26f46" fill-rule="evenodd" fill-opacity="1" stroke="#000000" stroke-opacity="1" stroke-width="3.2"/>
<circle clip-path="url(#clip552)" cx="688.831" cy="1428.92" r="14.4" fill="#e26f46" fill-rule="evenodd" fill-opacity="1" stroke="#000000" stroke-opacity="1" stroke-width="3.2"/>
<circle clip-path="url(#clip552)" cx="721.527" cy="1428.92" r="14.4" fill="#e26f46" fill-rule="evenodd" fill-opacity="1" stroke="#000000" stroke-opacity="1" stroke-width="3.2"/>
<circle clip-path="url(#clip552)" cx="754.224" cy="1428.92" r="14.4" fill="#e26f46" fill-rule="evenodd" fill-opacity="1" stroke="#000000" stroke-opacity="1" stroke-width="3.2"/>
<circle clip-path="url(#clip552)" cx="786.92" cy="1428.92" r="14.4" fill="#e26f46" fill-rule="evenodd" fill-opacity="1" stroke="#000000" stroke-opacity="1" stroke-width="3.2"/>
<circle clip-path="url(#clip552)" cx="819.617" cy="1428.92" r="14.4" fill="#e26f46" fill-rule="evenodd" fill-opacity="1" stroke="#000000" stroke-opacity="1" stroke-width="3.2"/>
<circle clip-path="url(#clip552)" cx="852.313" cy="1428.92" r="14.4" fill="#e26f46" fill-rule="evenodd" fill-opacity="1" stroke="#000000" stroke-opacity="1" stroke-width="3.2"/>
<circle clip-path="url(#clip552)" cx="885.01" cy="1428.92" r="14.4" fill="#e26f46" fill-rule="evenodd" fill-opacity="1" stroke="#000000" stroke-opacity="1" stroke-width="3.2"/>
<circle clip-path="url(#clip552)" cx="917.706" cy="1428.92" r="14.4" fill="#e26f46" fill-rule="evenodd" fill-opacity="1" stroke="#000000" stroke-opacity="1" stroke-width="3.2"/>
<circle clip-path="url(#clip552)" cx="950.403" cy="1428.92" r="14.4" fill="#e26f46" fill-rule="evenodd" fill-opacity="1" stroke="#000000" stroke-opacity="1" stroke-width="3.2"/>
<circle clip-path="url(#clip552)" cx="983.099" cy="1428.92" r="14.4" fill="#e26f46" fill-rule="evenodd" fill-opacity="1" stroke="#000000" stroke-opacity="1" stroke-width="3.2"/>
<circle clip-path="url(#clip552)" cx="1015.8" cy="1428.92" r="14.4" fill="#e26f46" fill-rule="evenodd" fill-opacity="1" stroke="#000000" stroke-opacity="1" stroke-width="3.2"/>
<circle clip-path="url(#clip552)" cx="1048.49" cy="1428.92" r="14.4" fill="#e26f46" fill-rule="evenodd" fill-opacity="1" stroke="#000000" stroke-opacity="1" stroke-width="3.2"/>
<circle clip-path="url(#clip552)" cx="1081.19" cy="1428.92" r="14.4" fill="#e26f46" fill-rule="evenodd" fill-opacity="1" stroke="#000000" stroke-opacity="1" stroke-width="3.2"/>
<circle clip-path="url(#clip552)" cx="1113.89" cy="1428.92" r="14.4" fill="#e26f46" fill-rule="evenodd" fill-opacity="1" stroke="#000000" stroke-opacity="1" stroke-width="3.2"/>
<circle clip-path="url(#clip552)" cx="1146.58" cy="1428.92" r="14.4" fill="#e26f46" fill-rule="evenodd" fill-opacity="1" stroke="#000000" stroke-opacity="1" stroke-width="3.2"/>
<circle clip-path="url(#clip552)" cx="1179.28" cy="1428.92" r="14.4" fill="#e26f46" fill-rule="evenodd" fill-opacity="1" stroke="#000000" stroke-opacity="1" stroke-width="3.2"/>
<circle clip-path="url(#clip552)" cx="1211.97" cy="1428.92" r="14.4" fill="#e26f46" fill-rule="evenodd" fill-opacity="1" stroke="#000000" stroke-opacity="1" stroke-width="3.2"/>
<circle clip-path="url(#clip552)" cx="1244.67" cy="1428.92" r="14.4" fill="#e26f46" fill-rule="evenodd" fill-opacity="1" stroke="#000000" stroke-opacity="1" stroke-width="3.2"/>
<circle clip-path="url(#clip552)" cx="1277.37" cy="1428.92" r="14.4" fill="#e26f46" fill-rule="evenodd" fill-opacity="1" stroke="#000000" stroke-opacity="1" stroke-width="3.2"/>
<circle clip-path="url(#clip552)" cx="1310.06" cy="1428.92" r="14.4" fill="#e26f46" fill-rule="evenodd" fill-opacity="1" stroke="#000000" stroke-opacity="1" stroke-width="3.2"/>
<circle clip-path="url(#clip552)" cx="1342.76" cy="87.4872" r="14.4" fill="#e26f46" fill-rule="evenodd" fill-opacity="1" stroke="#000000" stroke-opacity="1" stroke-width="3.2"/>
<circle clip-path="url(#clip552)" cx="1375.46" cy="1428.92" r="14.4" fill="#e26f46" fill-rule="evenodd" fill-opacity="1" stroke="#000000" stroke-opacity="1" stroke-width="3.2"/>
<circle clip-path="url(#clip552)" cx="1408.15" cy="1428.92" r="14.4" fill="#e26f46" fill-rule="evenodd" fill-opacity="1" stroke="#000000" stroke-opacity="1" stroke-width="3.2"/>
<circle clip-path="url(#clip552)" cx="1440.85" cy="1428.92" r="14.4" fill="#e26f46" fill-rule="evenodd" fill-opacity="1" stroke="#000000" stroke-opacity="1" stroke-width="3.2"/>
<circle clip-path="url(#clip552)" cx="1473.55" cy="1428.92" r="14.4" fill="#e26f46" fill-rule="evenodd" fill-opacity="1" stroke="#000000" stroke-opacity="1" stroke-width="3.2"/>
<circle clip-path="url(#clip552)" cx="1506.24" cy="1428.92" r="14.4" fill="#e26f46" fill-rule="evenodd" fill-opacity="1" stroke="#000000" stroke-opacity="1" stroke-width="3.2"/>
<circle clip-path="url(#clip552)" cx="1538.94" cy="1428.92" r="14.4" fill="#e26f46" fill-rule="evenodd" fill-opacity="1" stroke="#000000" stroke-opacity="1" stroke-width="3.2"/>
<circle clip-path="url(#clip552)" cx="1571.64" cy="1428.92" r="14.4" fill="#e26f46" fill-rule="evenodd" fill-opacity="1" stroke="#000000" stroke-opacity="1" stroke-width="3.2"/>
<circle clip-path="url(#clip552)" cx="1604.33" cy="1428.92" r="14.4" fill="#e26f46" fill-rule="evenodd" fill-opacity="1" stroke="#000000" stroke-opacity="1" stroke-width="3.2"/>
<circle clip-path="url(#clip552)" cx="1637.03" cy="1428.92" r="14.4" fill="#e26f46" fill-rule="evenodd" fill-opacity="1" stroke="#000000" stroke-opacity="1" stroke-width="3.2"/>
<circle clip-path="url(#clip552)" cx="1669.73" cy="1428.92" r="14.4" fill="#e26f46" fill-rule="evenodd" fill-opacity="1" stroke="#000000" stroke-opacity="1" stroke-width="3.2"/>
<circle clip-path="url(#clip552)" cx="1702.42" cy="1428.92" r="14.4" fill="#e26f46" fill-rule="evenodd" fill-opacity="1" stroke="#000000" stroke-opacity="1" stroke-width="3.2"/>
<circle clip-path="url(#clip552)" cx="1735.12" cy="1428.92" r="14.4" fill="#e26f46" fill-rule="evenodd" fill-opacity="1" stroke="#000000" stroke-opacity="1" stroke-width="3.2"/>
<circle clip-path="url(#clip552)" cx="1767.82" cy="1428.92" r="14.4" fill="#e26f46" fill-rule="evenodd" fill-opacity="1" stroke="#000000" stroke-opacity="1" stroke-width="3.2"/>
<circle clip-path="url(#clip552)" cx="1800.51" cy="1428.92" r="14.4" fill="#e26f46" fill-rule="evenodd" fill-opacity="1" stroke="#000000" stroke-opacity="1" stroke-width="3.2"/>
<circle clip-path="url(#clip552)" cx="1833.21" cy="1428.92" r="14.4" fill="#e26f46" fill-rule="evenodd" fill-opacity="1" stroke="#000000" stroke-opacity="1" stroke-width="3.2"/>
<circle clip-path="url(#clip552)" cx="1865.9" cy="1428.92" r="14.4" fill="#e26f46" fill-rule="evenodd" fill-opacity="1" stroke="#000000" stroke-opacity="1" stroke-width="3.2"/>
<circle clip-path="url(#clip552)" cx="1898.6" cy="1428.92" r="14.4" fill="#e26f46" fill-rule="evenodd" fill-opacity="1" stroke="#000000" stroke-opacity="1" stroke-width="3.2"/>
<circle clip-path="url(#clip552)" cx="1931.3" cy="1428.92" r="14.4" fill="#e26f46" fill-rule="evenodd" fill-opacity="1" stroke="#000000" stroke-opacity="1" stroke-width="3.2"/>
<circle clip-path="url(#clip552)" cx="1963.99" cy="1428.92" r="14.4" fill="#e26f46" fill-rule="evenodd" fill-opacity="1" stroke="#000000" stroke-opacity="1" stroke-width="3.2"/>
<circle clip-path="url(#clip552)" cx="1996.69" cy="1428.92" r="14.4" fill="#e26f46" fill-rule="evenodd" fill-opacity="1" stroke="#000000" stroke-opacity="1" stroke-width="3.2"/>
<circle clip-path="url(#clip552)" cx="2029.39" cy="1428.92" r="14.4" fill="#e26f46" fill-rule="evenodd" fill-opacity="1" stroke="#000000" stroke-opacity="1" stroke-width="3.2"/>
<circle clip-path="url(#clip552)" cx="2062.08" cy="1428.92" r="14.4" fill="#e26f46" fill-rule="evenodd" fill-opacity="1" stroke="#000000" stroke-opacity="1" stroke-width="3.2"/>
<circle clip-path="url(#clip552)" cx="2094.78" cy="1428.92" r="14.4" fill="#e26f46" fill-rule="evenodd" fill-opacity="1" stroke="#000000" stroke-opacity="1" stroke-width="3.2"/>
<circle clip-path="url(#clip552)" cx="2127.48" cy="1428.92" r="14.4" fill="#e26f46" fill-rule="evenodd" fill-opacity="1" stroke="#000000" stroke-opacity="1" stroke-width="3.2"/>
<circle clip-path="url(#clip552)" cx="2160.17" cy="1428.92" r="14.4" fill="#e26f46" fill-rule="evenodd" fill-opacity="1" stroke="#000000" stroke-opacity="1" stroke-width="3.2"/>
<circle clip-path="url(#clip552)" cx="2192.87" cy="1428.92" r="14.4" fill="#e26f46" fill-rule="evenodd" fill-opacity="1" stroke="#000000" stroke-opacity="1" stroke-width="3.2"/>
<circle clip-path="url(#clip552)" cx="2225.57" cy="1428.92" r="14.4" fill="#e26f46" fill-rule="evenodd" fill-opacity="1" stroke="#000000" stroke-opacity="1" stroke-width="3.2"/>
<circle clip-path="url(#clip552)" cx="2258.26" cy="1428.92" r="14.4" fill="#e26f46" fill-rule="evenodd" fill-opacity="1" stroke="#000000" stroke-opacity="1" stroke-width="3.2"/>
<circle clip-path="url(#clip552)" cx="2290.96" cy="1428.92" r="14.4" fill="#e26f46" fill-rule="evenodd" fill-opacity="1" stroke="#000000" stroke-opacity="1" stroke-width="3.2"/>
<path clip-path="url(#clip550)" d="
M1958.72 327.922 L2279.97 327.922 L2279.97 94.6416 L1958.72 94.6416  Z
  " fill="#ffffff" fill-rule="evenodd" fill-opacity="1"/>
<polyline clip-path="url(#clip550)" style="stroke:#000000; stroke-linecap:round; stroke-linejoin:round; stroke-width:4; stroke-opacity:1; fill:none" points="
  1958.72,327.922 2279.97,327.922 2279.97,94.6416 1958.72,94.6416 1958.72,327.922 
  "/>
<circle clip-path="url(#clip550)" cx="2055.76" cy="172.402" r="34.56" fill="#009af9" fill-rule="evenodd" fill-opacity="1" stroke="#000000" stroke-opacity="1" stroke-width="7.68"/>
<path clip-path="url(#clip550)" d="M2173.57 201.933 Q2170.86 208.877 2168.29 210.995 Q2165.72 213.113 2161.42 213.113 L2156.31 213.113 L2156.31 207.766 L2160.06 207.766 Q2162.7 207.766 2164.16 206.516 Q2165.62 205.266 2167.39 200.613 L2168.54 197.697 L2152.81 159.433 L2159.58 159.433 L2171.73 189.849 L2183.88 159.433 L2190.65 159.433 L2173.57 201.933 Z" fill="#000000" fill-rule="evenodd" fill-opacity="1" /><path clip-path="url(#clip550)" d="M2201.59 192.419 L2213.05 192.419 L2213.05 152.87 L2200.58 155.37 L2200.58 148.982 L2212.98 146.482 L2219.99 146.482 L2219.99 192.419 L2231.45 192.419 L2231.45 198.322 L2201.59 198.322 L2201.59 192.419 Z" fill="#000000" fill-rule="evenodd" fill-opacity="1" /><circle clip-path="url(#clip550)" cx="2055.76" cy="250.162" r="34.56" fill="#e26f46" fill-rule="evenodd" fill-opacity="1" stroke="#000000" stroke-opacity="1" stroke-width="7.68"/>
<path clip-path="url(#clip550)" d="M2173.57 279.693 Q2170.86 286.637 2168.29 288.755 Q2165.72 290.873 2161.42 290.873 L2156.31 290.873 L2156.31 285.526 L2160.06 285.526 Q2162.7 285.526 2164.16 284.276 Q2165.62 283.026 2167.39 278.373 L2168.54 275.457 L2152.81 237.193 L2159.58 237.193 L2171.73 267.609 L2183.88 237.193 L2190.65 237.193 L2173.57 279.693 Z" fill="#000000" fill-rule="evenodd" fill-opacity="1" /><path clip-path="url(#clip550)" d="M2206.42 270.179 L2230.9 270.179 L2230.9 276.082 L2197.98 276.082 L2197.98 270.179 Q2201.97 266.047 2208.85 259.102 Q2215.76 252.123 2217.53 250.109 Q2220.9 246.325 2222.22 243.721 Q2223.57 241.082 2223.57 238.547 Q2223.57 234.415 2220.65 231.811 Q2217.77 229.207 2213.12 229.207 Q2209.82 229.207 2206.14 230.353 Q2202.49 231.498 2198.33 233.825 L2198.33 226.742 Q2202.56 225.04 2206.24 224.172 Q2209.92 223.304 2212.98 223.304 Q2221.04 223.304 2225.83 227.332 Q2230.62 231.36 2230.62 238.096 Q2230.62 241.29 2229.4 244.172 Q2228.22 247.019 2225.06 250.908 Q2224.19 251.915 2219.54 256.741 Q2214.89 261.533 2206.42 270.179 Z" fill="#000000" fill-rule="evenodd" fill-opacity="1" /></svg>
