<?xml version="1.0" encoding="utf-8"?>
<svg xmlns="http://www.w3.org/2000/svg" xmlns:xlink="http://www.w3.org/1999/xlink" width="600" height="400" viewBox="0 0 2400 1600">
<defs>
  <clipPath id="clip280">
    <rect x="0" y="0" width="2400" height="1600"/>
  </clipPath>
</defs>
<path clip-path="url(#clip280)" d="
M0 1600 L2400 1600 L2400 0 L0 0  Z
  " fill="#ffffff" fill-rule="evenodd" fill-opacity="1"/>
<defs>
  <clipPath id="clip281">
    <rect x="480" y="0" width="1681" height="1600"/>
  </clipPath>
</defs>
<path clip-path="url(#clip280)" d="
M247.408 1469.17 L2352.76 1469.17 L2352.76 47.2441 L247.408 47.2441  Z
  " fill="#ffffff" fill-rule="evenodd" fill-opacity="1"/>
<defs>
  <clipPath id="clip282">
    <rect x="247" y="47" width="2106" height="1423"/>
  </clipPath>
</defs>
<polyline clip-path="url(#clip282)" style="stroke:#000000; stroke-linecap:round; stroke-linejoin:round; stroke-width:2; stroke-opacity:0.1; fill:none" points="
  247.408,1469.17 247.408,47.2441 
  "/>
<polyline clip-path="url(#clip282)" style="stroke:#000000; stroke-linecap:round; stroke-linejoin:round; stroke-width:2; stroke-opacity:0.1; fill:none" points="
  773.745,1469.17 773.745,47.2441 
  "/>
<polyline clip-path="url(#clip282)" style="stroke:#000000; stroke-linecap:round; stroke-linejoin:round; stroke-width:2; stroke-opacity:0.1; fill:none" points="
  1300.08,1469.17 1300.08,47.2441 
  "/>
<polyline clip-path="url(#clip282)" style="stroke:#000000; stroke-linecap:round; stroke-linejoin:round; stroke-width:2; stroke-opacity:0.1; fill:none" points="
  1826.42,1469.17 1826.42,47.2441 
  "/>
<polyline clip-path="url(#clip282)" style="stroke:#000000; stroke-linecap:round; stroke-linejoin:round; stroke-width:2; stroke-opacity:0.1; fill:none" points="
  2352.76,1469.17 2352.76,47.2441 
  "/>
<polyline clip-path="url(#clip280)" style="stroke:#000000; stroke-linecap:round; stroke-linejoin:round; stroke-width:4; stroke-opacity:1; fill:none" points="
  247.408,1469.17 2352.76,1469.17 
  "/>
<polyline clip-path="url(#clip280)" style="stroke:#000000; stroke-linecap:round; stroke-linejoin:round; stroke-width:4; stroke-opacity:1; fill:none" points="
  247.408,1469.17 247.408,1450.27 
  "/>
<polyline clip-path="url(#clip280)" style="stroke:#000000; stroke-linecap:round; stroke-linejoin:round; stroke-width:4; stroke-opacity:1; fill:none" points="
  773.745,1469.17 773.745,1450.27 
  "/>
<polyline clip-path="url(#clip280)" style="stroke:#000000; stroke-linecap:round; stroke-linejoin:round; stroke-width:4; stroke-opacity:1; fill:none" points="
  1300.08,1469.17 1300.08,1450.27 
  "/>
<polyline clip-path="url(#clip280)" style="stroke:#000000; stroke-linecap:round; stroke-linejoin:round; stroke-width:4; stroke-opacity:1; fill:none" points="
  1826.42,1469.17 1826.42,1450.27 
  "/>
<polyline clip-path="url(#clip280)" style="stroke:#000000; stroke-linecap:round; stroke-linejoin:round; stroke-width:4; stroke-opacity:1; fill:none" points="
  2352.76,1469.17 2352.76,1450.27 
  "/>
<path clip-path="url(#clip280)" d="M167.2 1527.92 L211.714 1527.92 L211.714 1533.83 L167.2 1533.83 L167.2 1527.92 Z" fill="#000000" fill-rule="evenodd" fill-opacity="1" /><path clip-path="url(#clip280)" d="M228.068 1547.27 L239.526 1547.27 L239.526 1507.72 L227.061 1510.22 L227.061 1503.83 L239.457 1501.33 L246.47 1501.33 L246.47 1547.27 L257.929 1547.27 L257.929 1553.17 L228.068 1553.17 L228.068 1547.27 Z" fill="#000000" fill-rule="evenodd" fill-opacity="1" /><path clip-path="url(#clip280)" d="M272.095 1544.35 L279.422 1544.35 L279.422 1553.17 L272.095 1553.17 L272.095 1544.35 Z" fill="#000000" fill-rule="evenodd" fill-opacity="1" /><path clip-path="url(#clip280)" d="M309.699 1505.95 Q304.283 1505.95 301.54 1511.29 Q298.831 1516.61 298.831 1527.3 Q298.831 1537.96 301.54 1543.31 Q304.283 1548.62 309.699 1548.62 Q315.151 1548.62 317.859 1543.31 Q320.602 1537.96 320.602 1527.3 Q320.602 1516.61 317.859 1511.29 Q315.151 1505.95 309.699 1505.95 M309.699 1500.39 Q318.414 1500.39 322.998 1507.3 Q327.616 1514.18 327.616 1527.3 Q327.616 1540.39 322.998 1547.3 Q318.414 1554.17 309.699 1554.17 Q300.984 1554.17 296.366 1547.3 Q291.783 1540.39 291.783 1527.3 Q291.783 1514.18 296.366 1507.3 Q300.984 1500.39 309.699 1500.39 Z" fill="#000000" fill-rule="evenodd" fill-opacity="1" /><path clip-path="url(#clip280)" d="M694.284 1527.92 L738.797 1527.92 L738.797 1533.83 L694.284 1533.83 L694.284 1527.92 Z" fill="#000000" fill-rule="evenodd" fill-opacity="1" /><path clip-path="url(#clip280)" d="M768.936 1505.95 Q763.519 1505.95 760.776 1511.29 Q758.068 1516.61 758.068 1527.3 Q758.068 1537.96 760.776 1543.31 Q763.519 1548.62 768.936 1548.62 Q774.387 1548.62 777.096 1543.31 Q779.839 1537.96 779.839 1527.3 Q779.839 1516.61 777.096 1511.29 Q774.387 1505.95 768.936 1505.95 M768.936 1500.39 Q777.651 1500.39 782.234 1507.3 Q786.852 1514.18 786.852 1527.3 Q786.852 1540.39 782.234 1547.3 Q777.651 1554.17 768.936 1554.17 Q760.221 1554.17 755.603 1547.3 Q751.019 1540.39 751.019 1527.3 Q751.019 1514.18 755.603 1507.3 Q760.221 1500.39 768.936 1500.39 Z" fill="#000000" fill-rule="evenodd" fill-opacity="1" /><path clip-path="url(#clip280)" d="M799.179 1544.35 L806.505 1544.35 L806.505 1553.17 L799.179 1553.17 L799.179 1544.35 Z" fill="#000000" fill-rule="evenodd" fill-opacity="1" /><path clip-path="url(#clip280)" d="M821.852 1501.33 L849.387 1501.33 L849.387 1507.23 L828.276 1507.23 L828.276 1519.94 Q829.804 1519.42 831.331 1519.18 Q832.859 1518.9 834.387 1518.9 Q843.067 1518.9 848.137 1523.65 Q853.206 1528.41 853.206 1536.54 Q853.206 1544.9 847.998 1549.56 Q842.79 1554.17 833.311 1554.17 Q830.047 1554.17 826.644 1553.62 Q823.276 1553.06 819.665 1551.95 L819.665 1544.9 Q822.79 1546.61 826.123 1547.44 Q829.456 1548.27 833.172 1548.27 Q839.179 1548.27 842.686 1545.11 Q846.192 1541.95 846.192 1536.54 Q846.192 1531.12 842.686 1527.96 Q839.179 1524.8 833.172 1524.8 Q830.359 1524.8 827.547 1525.42 Q824.769 1526.05 821.852 1527.37 L821.852 1501.33 Z" fill="#000000" fill-rule="evenodd" fill-opacity="1" /><path clip-path="url(#clip280)" d="M1266.16 1505.95 Q1260.74 1505.95 1258 1511.29 Q1255.29 1516.61 1255.29 1527.3 Q1255.29 1537.96 1258 1543.31 Q1260.74 1548.62 1266.16 1548.62 Q1271.61 1548.62 1274.32 1543.31 Q1277.06 1537.96 1277.06 1527.3 Q1277.06 1516.61 1274.32 1511.29 Q1271.61 1505.95 1266.16 1505.95 M1266.16 1500.39 Q1274.87 1500.39 1279.46 1507.3 Q1284.08 1514.18 1284.08 1527.3 Q1284.08 1540.39 1279.46 1547.3 Q1274.87 1554.17 1266.16 1554.17 Q1257.44 1554.17 1252.83 1547.3 Q1248.24 1540.39 1248.24 1527.3 Q1248.24 1514.18 1252.83 1507.3 Q1257.44 1500.39 1266.16 1500.39 Z" fill="#000000" fill-rule="evenodd" fill-opacity="1" /><path clip-path="url(#clip280)" d="M1296.4 1544.35 L1303.73 1544.35 L1303.73 1553.17 L1296.4 1553.17 L1296.4 1544.35 Z" fill="#000000" fill-rule="evenodd" fill-opacity="1" /><path clip-path="url(#clip280)" d="M1334.01 1505.95 Q1328.59 1505.95 1325.85 1511.29 Q1323.14 1516.61 1323.14 1527.3 Q1323.14 1537.96 1325.85 1543.31 Q1328.59 1548.62 1334.01 1548.62 Q1339.46 1548.62 1342.17 1543.31 Q1344.91 1537.96 1344.91 1527.3 Q1344.91 1516.61 1342.17 1511.29 Q1339.46 1505.95 1334.01 1505.95 M1334.01 1500.39 Q1342.72 1500.39 1347.3 1507.3 Q1351.92 1514.18 1351.92 1527.3 Q1351.92 1540.39 1347.3 1547.3 Q1342.72 1554.17 1334.01 1554.17 Q1325.29 1554.17 1320.67 1547.3 Q1316.09 1540.39 1316.09 1527.3 Q1316.09 1514.18 1320.67 1507.3 Q1325.29 1500.39 1334.01 1500.39 Z" fill="#000000" fill-rule="evenodd" fill-opacity="1" /><path clip-path="url(#clip280)" d="M1793.24 1505.95 Q1787.83 1505.95 1785.08 1511.29 Q1782.37 1516.61 1782.37 1527.3 Q1782.37 1537.96 1785.08 1543.31 Q1787.83 1548.62 1793.24 1548.62 Q1798.69 1548.62 1801.4 1543.31 Q1804.14 1537.96 1804.14 1527.3 Q1804.14 1516.61 1801.4 1511.29 Q1798.69 1505.95 1793.24 1505.95 M1793.24 1500.39 Q1801.96 1500.39 1806.54 1507.3 Q1811.16 1514.18 1811.16 1527.3 Q1811.16 1540.39 1806.54 1547.3 Q1801.96 1554.17 1793.24 1554.17 Q1784.53 1554.17 1779.91 1547.3 Q1775.33 1540.39 1775.33 1527.3 Q1775.33 1514.18 1779.91 1507.3 Q1784.53 1500.39 1793.24 1500.39 Z" fill="#000000" fill-rule="evenodd" fill-opacity="1" /><path clip-path="url(#clip280)" d="M1823.48 1544.35 L1830.81 1544.35 L1830.81 1553.17 L1823.48 1553.17 L1823.48 1544.35 Z" fill="#000000" fill-rule="evenodd" fill-opacity="1" /><path clip-path="url(#clip280)" d="M1846.16 1501.33 L1873.69 1501.33 L1873.69 1507.23 L1852.58 1507.23 L1852.58 1519.94 Q1854.11 1519.42 1855.64 1519.18 Q1857.17 1518.9 1858.69 1518.9 Q1867.37 1518.9 1872.44 1523.65 Q1877.51 1528.41 1877.51 1536.54 Q1877.51 1544.9 1872.3 1549.56 Q1867.1 1554.17 1857.62 1554.17 Q1854.35 1554.17 1850.95 1553.62 Q1847.58 1553.06 1843.97 1551.95 L1843.97 1544.9 Q1847.1 1546.61 1850.43 1547.44 Q1853.76 1548.27 1857.48 1548.27 Q1863.48 1548.27 1866.99 1545.11 Q1870.5 1541.95 1870.5 1536.54 Q1870.5 1531.12 1866.99 1527.96 Q1863.48 1524.8 1857.48 1524.8 Q1854.67 1524.8 1851.85 1525.42 Q1849.08 1526.05 1846.16 1527.37 L1846.16 1501.33 Z" fill="#000000" fill-rule="evenodd" fill-opacity="1" /><path clip-path="url(#clip280)" d="M2303.49 1547.27 L2314.94 1547.27 L2314.94 1507.72 L2302.48 1510.22 L2302.48 1503.83 L2314.87 1501.33 L2321.89 1501.33 L2321.89 1547.27 L2333.35 1547.27 L2333.35 1553.17 L2303.49 1553.17 L2303.49 1547.27 Z" fill="#000000" fill-rule="evenodd" fill-opacity="1" /><path clip-path="url(#clip280)" d="M2347.51 1544.35 L2354.84 1544.35 L2354.84 1553.17 L2347.51 1553.17 L2347.51 1544.35 Z" fill="#000000" fill-rule="evenodd" fill-opacity="1" /><path clip-path="url(#clip280)" d="M2385.12 1505.95 Q2379.7 1505.95 2376.96 1511.29 Q2374.25 1516.61 2374.25 1527.3 Q2374.25 1537.96 2376.96 1543.31 Q2379.7 1548.62 2385.12 1548.62 Q2390.57 1548.62 2393.28 1543.31 Q2396.02 1537.96 2396.02 1527.3 Q2396.02 1516.61 2393.28 1511.29 Q2390.57 1505.95 2385.12 1505.95 M2385.12 1500.39 Q2393.83 1500.39 2398.42 1507.3 Q2403.03 1514.18 2403.03 1527.3 Q2403.03 1540.39 2398.42 1547.3 Q2393.83 1554.17 2385.12 1554.17 Q2376.4 1554.17 2371.78 1547.3 Q2367.2 1540.39 2367.2 1527.3 Q2367.2 1514.18 2371.78 1507.3 Q2376.4 1500.39 2385.12 1500.39 Z" fill="#000000" fill-rule="evenodd" fill-opacity="1" /><polyline clip-path="url(#clip282)" style="stroke:#000000; stroke-linecap:round; stroke-linejoin:round; stroke-width:2; stroke-opacity:0.1; fill:none" points="
  247.408,1428.92 2352.76,1428.92 
  "/>
<polyline clip-path="url(#clip282)" style="stroke:#000000; stroke-linecap:round; stroke-linejoin:round; stroke-width:2; stroke-opacity:0.1; fill:none" points="
  247.408,1093.57 2352.76,1093.57 
  "/>
<polyline clip-path="url(#clip282)" style="stroke:#000000; stroke-linecap:round; stroke-linejoin:round; stroke-width:2; stroke-opacity:0.1; fill:none" points="
  247.408,758.206 2352.76,758.206 
  "/>
<polyline clip-path="url(#clip282)" style="stroke:#000000; stroke-linecap:round; stroke-linejoin:round; stroke-width:2; stroke-opacity:0.1; fill:none" points="
  247.408,422.847 2352.76,422.847 
  "/>
<polyline clip-path="url(#clip282)" style="stroke:#000000; stroke-linecap:round; stroke-linejoin:round; stroke-width:2; stroke-opacity:0.1; fill:none" points="
  247.408,87.4872 2352.76,87.4872 
  "/>
<polyline clip-path="url(#clip280)" style="stroke:#000000; stroke-linecap:round; stroke-linejoin:round; stroke-width:4; stroke-opacity:1; fill:none" points="
  247.408,1469.17 247.408,47.2441 
  "/>
<polyline clip-path="url(#clip280)" style="stroke:#000000; stroke-linecap:round; stroke-linejoin:round; stroke-width:4; stroke-opacity:1; fill:none" points="
  247.408,1428.92 266.306,1428.92 
  "/>
<polyline clip-path="url(#clip280)" style="stroke:#000000; stroke-linecap:round; stroke-linejoin:round; stroke-width:4; stroke-opacity:1; fill:none" points="
  247.408,1093.57 266.306,1093.57 
  "/>
<polyline clip-path="url(#clip280)" style="stroke:#000000; stroke-linecap:round; stroke-linejoin:round; stroke-width:4; stroke-opacity:1; fill:none" points="
  247.408,758.206 266.306,758.206 
  "/>
<polyline clip-path="url(#clip280)" style="stroke:#000000; stroke-linecap:round; stroke-linejoin:round; stroke-width:4; stroke-opacity:1; fill:none" points="
  247.408,422.847 266.306,422.847 
  "/>
<polyline clip-path="url(#clip280)" style="stroke:#000000; stroke-linecap:round; stroke-linejoin:round; stroke-width:4; stroke-opacity:1; fill:none" points="
  247.408,87.4872 266.306,87.4872 
  "/>
<path clip-path="url(#clip280)" d="M50.9921 1429.6 L95.5058 1429.6 L95.5058 1435.5 L50.9921 1435.5 L50.9921 1429.6 Z" fill="#000000" fill-rule="evenodd" fill-opacity="1" /><path clip-path="url(#clip280)" d="M111.86 1448.94 L123.318 1448.94 L123.318 1409.39 L110.853 1411.89 L110.853 1405.5 L123.249 1403 L130.263 1403 L130.263 1448.94 L141.721 1448.94 L141.721 1454.84 L111.86 1454.84 L111.86 1448.94 Z" fill="#000000" fill-rule="evenodd" fill-opacity="1" /><path clip-path="url(#clip280)" d="M155.887 1446.03 L163.214 1446.03 L163.214 1454.84 L155.887 1454.84 L155.887 1446.03 Z" fill="#000000" fill-rule="evenodd" fill-opacity="1" /><path clip-path="url(#clip280)" d="M193.491 1407.62 Q188.075 1407.62 185.332 1412.97 Q182.623 1418.28 182.623 1428.98 Q182.623 1439.64 185.332 1444.98 Q188.075 1450.3 193.491 1450.3 Q198.943 1450.3 201.651 1444.98 Q204.394 1439.64 204.394 1428.98 Q204.394 1418.28 201.651 1412.97 Q198.943 1407.62 193.491 1407.62 M193.491 1402.07 Q202.207 1402.07 206.79 1408.98 Q211.408 1415.85 211.408 1428.98 Q211.408 1442.07 206.79 1448.98 Q202.207 1455.85 193.491 1455.85 Q184.776 1455.85 180.158 1448.98 Q175.575 1442.07 175.575 1428.98 Q175.575 1415.85 180.158 1408.98 Q184.776 1402.07 193.491 1402.07 Z" fill="#000000" fill-rule="evenodd" fill-opacity="1" /><path clip-path="url(#clip280)" d="M52.4852 1094.24 L96.9988 1094.24 L96.9988 1100.15 L52.4852 1100.15 L52.4852 1094.24 Z" fill="#000000" fill-rule="evenodd" fill-opacity="1" /><path clip-path="url(#clip280)" d="M127.138 1072.26 Q121.721 1072.26 118.978 1077.61 Q116.27 1082.92 116.27 1093.62 Q116.27 1104.28 118.978 1109.62 Q121.721 1114.94 127.138 1114.94 Q132.589 1114.94 135.297 1109.62 Q138.04 1104.28 138.04 1093.62 Q138.04 1082.92 135.297 1077.61 Q132.589 1072.26 127.138 1072.26 M127.138 1066.71 Q135.853 1066.71 140.436 1073.62 Q145.054 1080.49 145.054 1093.62 Q145.054 1106.71 140.436 1113.62 Q135.853 1120.49 127.138 1120.49 Q118.422 1120.49 113.804 1113.62 Q109.221 1106.71 109.221 1093.62 Q109.221 1080.49 113.804 1073.62 Q118.422 1066.71 127.138 1066.71 Z" fill="#000000" fill-rule="evenodd" fill-opacity="1" /><path clip-path="url(#clip280)" d="M157.38 1110.67 L164.707 1110.67 L164.707 1119.49 L157.38 1119.49 L157.38 1110.67 Z" fill="#000000" fill-rule="evenodd" fill-opacity="1" /><path clip-path="url(#clip280)" d="M180.054 1067.65 L207.589 1067.65 L207.589 1073.55 L186.478 1073.55 L186.478 1086.26 Q188.005 1085.74 189.533 1085.49 Q191.061 1085.21 192.589 1085.21 Q201.269 1085.21 206.339 1089.97 Q211.408 1094.73 211.408 1102.85 Q211.408 1111.22 206.2 1115.87 Q200.991 1120.49 191.512 1120.49 Q188.248 1120.49 184.846 1119.94 Q181.478 1119.38 177.866 1118.27 L177.866 1111.22 Q180.991 1112.92 184.325 1113.76 Q187.658 1114.59 191.373 1114.59 Q197.38 1114.59 200.887 1111.43 Q204.394 1108.27 204.394 1102.85 Q204.394 1097.44 200.887 1094.28 Q197.38 1091.12 191.373 1091.12 Q188.561 1091.12 185.748 1091.74 Q182.971 1092.37 180.054 1093.69 L180.054 1067.65 Z" fill="#000000" fill-rule="evenodd" fill-opacity="1" /><path clip-path="url(#clip280)" d="M125.645 736.904 Q120.228 736.904 117.485 742.251 Q114.777 747.564 114.777 758.258 Q114.777 768.918 117.485 774.265 Q120.228 779.577 125.645 779.577 Q131.096 779.577 133.804 774.265 Q136.547 768.918 136.547 758.258 Q136.547 747.564 133.804 742.251 Q131.096 736.904 125.645 736.904 M125.645 731.348 Q134.36 731.348 138.943 738.258 Q143.561 745.133 143.561 758.258 Q143.561 771.348 138.943 778.258 Q134.36 785.133 125.645 785.133 Q116.929 785.133 112.311 778.258 Q107.728 771.348 107.728 758.258 Q107.728 745.133 112.311 738.258 Q116.929 731.348 125.645 731.348 Z" fill="#000000" fill-rule="evenodd" fill-opacity="1" /><path clip-path="url(#clip280)" d="M155.887 775.307 L163.214 775.307 L163.214 784.126 L155.887 784.126 L155.887 775.307 Z" fill="#000000" fill-rule="evenodd" fill-opacity="1" /><path clip-path="url(#clip280)" d="M193.491 736.904 Q188.075 736.904 185.332 742.251 Q182.623 747.564 182.623 758.258 Q182.623 768.918 185.332 774.265 Q188.075 779.577 193.491 779.577 Q198.943 779.577 201.651 774.265 Q204.394 768.918 204.394 758.258 Q204.394 747.564 201.651 742.251 Q198.943 736.904 193.491 736.904 M193.491 731.348 Q202.207 731.348 206.79 738.258 Q211.408 745.133 211.408 758.258 Q211.408 771.348 206.79 778.258 Q202.207 785.133 193.491 785.133 Q184.776 785.133 180.158 778.258 Q175.575 771.348 175.575 758.258 Q175.575 745.133 180.158 738.258 Q184.776 731.348 193.491 731.348 Z" fill="#000000" fill-rule="evenodd" fill-opacity="1" /><path clip-path="url(#clip280)" d="M127.138 401.545 Q121.721 401.545 118.978 406.892 Q116.27 412.204 116.27 422.899 Q116.27 433.558 118.978 438.906 Q121.721 444.218 127.138 444.218 Q132.589 444.218 135.297 438.906 Q138.04 433.558 138.04 422.899 Q138.04 412.204 135.297 406.892 Q132.589 401.545 127.138 401.545 M127.138 395.989 Q135.853 395.989 140.436 402.899 Q145.054 409.774 145.054 422.899 Q145.054 435.989 140.436 442.899 Q135.853 449.774 127.138 449.774 Q118.422 449.774 113.804 442.899 Q109.221 435.989 109.221 422.899 Q109.221 409.774 113.804 402.899 Q118.422 395.989 127.138 395.989 Z" fill="#000000" fill-rule="evenodd" fill-opacity="1" /><path clip-path="url(#clip280)" d="M157.38 439.947 L164.707 439.947 L164.707 448.767 L157.38 448.767 L157.38 439.947 Z" fill="#000000" fill-rule="evenodd" fill-opacity="1" /><path clip-path="url(#clip280)" d="M180.054 396.927 L207.589 396.927 L207.589 402.829 L186.478 402.829 L186.478 415.538 Q188.005 415.017 189.533 414.774 Q191.061 414.496 192.589 414.496 Q201.269 414.496 206.339 419.253 Q211.408 424.01 211.408 432.135 Q211.408 440.503 206.2 445.156 Q200.991 449.774 191.512 449.774 Q188.248 449.774 184.846 449.218 Q181.478 448.662 177.866 447.551 L177.866 440.503 Q180.991 442.204 184.325 443.037 Q187.658 443.871 191.373 443.871 Q197.38 443.871 200.887 440.711 Q204.394 437.551 204.394 432.135 Q204.394 426.718 200.887 423.558 Q197.38 420.399 191.373 420.399 Q188.561 420.399 185.748 421.024 Q182.971 421.649 180.054 422.968 L180.054 396.927 Z" fill="#000000" fill-rule="evenodd" fill-opacity="1" /><path clip-path="url(#clip280)" d="M111.86 107.504 L123.318 107.504 L123.318 67.9561 L110.853 70.4561 L110.853 64.0672 L123.249 61.5672 L130.263 61.5672 L130.263 107.504 L141.721 107.504 L141.721 113.407 L111.86 113.407 L111.86 107.504 Z" fill="#000000" fill-rule="evenodd" fill-opacity="1" /><path clip-path="url(#clip280)" d="M155.887 104.588 L163.214 104.588 L163.214 113.407 L155.887 113.407 L155.887 104.588 Z" fill="#000000" fill-rule="evenodd" fill-opacity="1" /><path clip-path="url(#clip280)" d="M193.491 66.1853 Q188.075 66.1853 185.332 71.5324 Q182.623 76.8449 182.623 87.5393 Q182.623 98.199 185.332 103.546 Q188.075 108.859 193.491 108.859 Q198.943 108.859 201.651 103.546 Q204.394 98.199 204.394 87.5393 Q204.394 76.8449 201.651 71.5324 Q198.943 66.1853 193.491 66.1853 M193.491 60.6297 Q202.207 60.6297 206.79 67.5394 Q211.408 74.4144 211.408 87.5393 Q211.408 100.63 206.79 107.539 Q202.207 114.414 193.491 114.414 Q184.776 114.414 180.158 107.539 Q175.575 100.63 175.575 87.5393 Q175.575 74.4144 180.158 67.5394 Q184.776 60.6297 193.491 60.6297 Z" fill="#000000" fill-rule="evenodd" fill-opacity="1" /><polyline clip-path="url(#clip282)" style="stroke:#009af9; stroke-linecap:round; stroke-linejoin:round; stroke-width:12; stroke-opacity:1; fill:none" points="
  247.408,1428.92 250.835,1423.7 254.261,1418.5 257.688,1413.34 261.115,1408.2 292.8,1362.09 324.485,1318.43 356.17,1277.13 387.856,1238.11 406.897,1215.74 
  425.939,1194.14 444.98,1173.31 464.021,1153.23 496.22,1120.94 528.419,1090.65 563.395,1059.94 598.372,1031.4 630.618,1006.94 662.863,984.15 697.434,961.495 
  732.004,940.579 772.058,918.39 812.111,898.247 847.706,881.938 883.3,867.012 914.514,854.977 945.727,843.849 1013.79,822.375 1082.26,804.003 1157.95,786.529 
  1229.98,771.745 1304.87,757.291 1367.91,745.115 1444.87,729.307 1515.38,713.036 1580.5,695.73 1646.46,675.27 1683.42,662.259 1720.38,647.982 1753.88,633.851 
  1787.37,618.491 1825.72,599.278 1864.07,578.198 1899.57,556.897 1935.08,533.771 1970.09,509.079 2005.09,482.404 2039.08,454.51 2073.07,424.555 2107.91,391.607 
  2142.75,356.292 2161.84,335.905 2180.92,314.76 2200.01,292.84 2219.1,270.128 2246.82,235.69 2274.55,199.495 2302.28,161.491 2330,121.627 2335.69,113.214 
  2341.38,104.72 2347.07,96.1443 2352.76,87.4872 
  "/>
</svg>
