<?xml version="1.0" encoding="utf-8"?>
<svg xmlns="http://www.w3.org/2000/svg" xmlns:xlink="http://www.w3.org/1999/xlink" width="600" height="400" viewBox="0 0 2400 1600">
<defs>
  <clipPath id="clip130">
    <rect x="0" y="0" width="2400" height="1600"/>
  </clipPath>
</defs>
<path clip-path="url(#clip130)" d="
M0 1600 L2400 1600 L2400 0 L0 0  Z
  " fill="#ffffff" fill-rule="evenodd" fill-opacity="1"/>
<defs>
  <clipPath id="clip131">
    <rect x="480" y="0" width="1681" height="1600"/>
  </clipPath>
</defs>
<path clip-path="url(#clip130)" d="
M178.589 1469.17 L2352.76 1469.17 L2352.76 47.2441 L178.589 47.2441  Z
  " fill="#ffffff" fill-rule="evenodd" fill-opacity="1"/>
<defs>
  <clipPath id="clip132">
    <rect x="178" y="47" width="2175" height="1423"/>
  </clipPath>
</defs>
<polyline clip-path="url(#clip132)" style="stroke:#000000; stroke-linecap:round; stroke-linejoin:round; stroke-width:2; stroke-opacity:0.1; fill:none" points="
  240.122,1469.17 240.122,47.2441 
  "/>
<polyline clip-path="url(#clip132)" style="stroke:#000000; stroke-linecap:round; stroke-linejoin:round; stroke-width:2; stroke-opacity:0.1; fill:none" points="
  752.897,1469.17 752.897,47.2441 
  "/>
<polyline clip-path="url(#clip132)" style="stroke:#000000; stroke-linecap:round; stroke-linejoin:round; stroke-width:2; stroke-opacity:0.1; fill:none" points="
  1265.67,1469.17 1265.67,47.2441 
  "/>
<polyline clip-path="url(#clip132)" style="stroke:#000000; stroke-linecap:round; stroke-linejoin:round; stroke-width:2; stroke-opacity:0.1; fill:none" points="
  1778.45,1469.17 1778.45,47.2441 
  "/>
<polyline clip-path="url(#clip132)" style="stroke:#000000; stroke-linecap:round; stroke-linejoin:round; stroke-width:2; stroke-opacity:0.1; fill:none" points="
  2291.22,1469.17 2291.22,47.2441 
  "/>
<polyline clip-path="url(#clip130)" style="stroke:#000000; stroke-linecap:round; stroke-linejoin:round; stroke-width:4; stroke-opacity:1; fill:none" points="
  178.589,1469.17 2352.76,1469.17 
  "/>
<polyline clip-path="url(#clip130)" style="stroke:#000000; stroke-linecap:round; stroke-linejoin:round; stroke-width:4; stroke-opacity:1; fill:none" points="
  240.122,1469.17 240.122,1450.27 
  "/>
<polyline clip-path="url(#clip130)" style="stroke:#000000; stroke-linecap:round; stroke-linejoin:round; stroke-width:4; stroke-opacity:1; fill:none" points="
  752.897,1469.17 752.897,1450.27 
  "/>
<polyline clip-path="url(#clip130)" style="stroke:#000000; stroke-linecap:round; stroke-linejoin:round; stroke-width:4; stroke-opacity:1; fill:none" points="
  1265.67,1469.17 1265.67,1450.27 
  "/>
<polyline clip-path="url(#clip130)" style="stroke:#000000; stroke-linecap:round; stroke-linejoin:round; stroke-width:4; stroke-opacity:1; fill:none" points="
  1778.45,1469.17 1778.45,1450.27 
  "/>
<polyline clip-path="url(#clip130)" style="stroke:#000000; stroke-linecap:round; stroke-linejoin:round; stroke-width:4; stroke-opacity:1; fill:none" points="
  2291.22,1469.17 2291.22,1450.27 
  "/>
<path clip-path="url(#clip130)" d="M159.914 1527.92 L204.428 1527.92 L204.428 1533.83 L159.914 1533.83 L159.914 1527.92 Z" fill="#000000" fill-rule="evenodd" fill-opacity="1" /><path clip-path="url(#clip130)" d="M220.782 1547.27 L232.24 1547.27 L232.24 1507.72 L219.775 1510.22 L219.775 1503.83 L232.171 1501.33 L239.184 1501.33 L239.184 1547.27 L250.643 1547.27 L250.643 1553.17 L220.782 1553.17 L220.782 1547.27 Z" fill="#000000" fill-rule="evenodd" fill-opacity="1" /><path clip-path="url(#clip130)" d="M264.809 1544.35 L272.136 1544.35 L272.136 1553.17 L264.809 1553.17 L264.809 1544.35 Z" fill="#000000" fill-rule="evenodd" fill-opacity="1" /><path clip-path="url(#clip130)" d="M302.413 1505.95 Q296.997 1505.95 294.254 1511.29 Q291.545 1516.61 291.545 1527.3 Q291.545 1537.96 294.254 1543.31 Q296.997 1548.62 302.413 1548.62 Q307.865 1548.62 310.573 1543.31 Q313.316 1537.96 313.316 1527.3 Q313.316 1516.61 310.573 1511.29 Q307.865 1505.95 302.413 1505.95 M302.413 1500.39 Q311.128 1500.39 315.712 1507.3 Q320.33 1514.18 320.33 1527.3 Q320.33 1540.39 315.712 1547.3 Q311.128 1554.17 302.413 1554.17 Q293.698 1554.17 289.08 1547.3 Q284.497 1540.39 284.497 1527.3 Q284.497 1514.18 289.08 1507.3 Q293.698 1500.39 302.413 1500.39 Z" fill="#000000" fill-rule="evenodd" fill-opacity="1" /><path clip-path="url(#clip130)" d="M673.436 1527.92 L717.949 1527.92 L717.949 1533.83 L673.436 1533.83 L673.436 1527.92 Z" fill="#000000" fill-rule="evenodd" fill-opacity="1" /><path clip-path="url(#clip130)" d="M748.088 1505.95 Q742.671 1505.95 739.928 1511.29 Q737.22 1516.61 737.22 1527.3 Q737.22 1537.96 739.928 1543.31 Q742.671 1548.62 748.088 1548.62 Q753.539 1548.62 756.248 1543.31 Q758.991 1537.96 758.991 1527.3 Q758.991 1516.61 756.248 1511.29 Q753.539 1505.95 748.088 1505.95 M748.088 1500.39 Q756.803 1500.39 761.387 1507.3 Q766.005 1514.18 766.005 1527.3 Q766.005 1540.39 761.387 1547.3 Q756.803 1554.17 748.088 1554.17 Q739.373 1554.17 734.755 1547.3 Q730.172 1540.39 730.172 1527.3 Q730.172 1514.18 734.755 1507.3 Q739.373 1500.39 748.088 1500.39 Z" fill="#000000" fill-rule="evenodd" fill-opacity="1" /><path clip-path="url(#clip130)" d="M778.331 1544.35 L785.657 1544.35 L785.657 1553.17 L778.331 1553.17 L778.331 1544.35 Z" fill="#000000" fill-rule="evenodd" fill-opacity="1" /><path clip-path="url(#clip130)" d="M801.005 1501.33 L828.539 1501.33 L828.539 1507.23 L807.428 1507.23 L807.428 1519.94 Q808.956 1519.42 810.484 1519.18 Q812.011 1518.9 813.539 1518.9 Q822.22 1518.9 827.289 1523.65 Q832.359 1528.41 832.359 1536.54 Q832.359 1544.9 827.15 1549.56 Q821.942 1554.17 812.463 1554.17 Q809.199 1554.17 805.796 1553.62 Q802.428 1553.06 798.817 1551.95 L798.817 1544.9 Q801.942 1546.61 805.275 1547.44 Q808.609 1548.27 812.324 1548.27 Q818.331 1548.27 821.838 1545.11 Q825.345 1541.95 825.345 1536.54 Q825.345 1531.12 821.838 1527.96 Q818.331 1524.8 812.324 1524.8 Q809.511 1524.8 806.699 1525.42 Q803.921 1526.05 801.005 1527.37 L801.005 1501.33 Z" fill="#000000" fill-rule="evenodd" fill-opacity="1" /><path clip-path="url(#clip130)" d="M1231.75 1505.95 Q1226.33 1505.95 1223.59 1511.29 Q1220.88 1516.61 1220.88 1527.3 Q1220.88 1537.96 1223.59 1543.31 Q1226.33 1548.62 1231.75 1548.62 Q1237.2 1548.62 1239.91 1543.31 Q1242.65 1537.96 1242.65 1527.3 Q1242.65 1516.61 1239.91 1511.29 Q1237.2 1505.95 1231.75 1505.95 M1231.75 1500.39 Q1240.46 1500.39 1245.05 1507.3 Q1249.67 1514.18 1249.67 1527.3 Q1249.67 1540.39 1245.05 1547.3 Q1240.46 1554.17 1231.75 1554.17 Q1223.03 1554.17 1218.42 1547.3 Q1213.83 1540.39 1213.83 1527.3 Q1213.83 1514.18 1218.42 1507.3 Q1223.03 1500.39 1231.75 1500.39 Z" fill="#000000" fill-rule="evenodd" fill-opacity="1" /><path clip-path="url(#clip130)" d="M1261.99 1544.35 L1269.32 1544.35 L1269.32 1553.17 L1261.99 1553.17 L1261.99 1544.35 Z" fill="#000000" fill-rule="evenodd" fill-opacity="1" /><path clip-path="url(#clip130)" d="M1299.6 1505.95 Q1294.18 1505.95 1291.44 1511.29 Q1288.73 1516.61 1288.73 1527.3 Q1288.73 1537.96 1291.44 1543.31 Q1294.18 1548.62 1299.6 1548.62 Q1305.05 1548.62 1307.76 1543.31 Q1310.5 1537.96 1310.5 1527.3 Q1310.5 1516.61 1307.76 1511.29 Q1305.05 1505.95 1299.6 1505.95 M1299.6 1500.39 Q1308.31 1500.39 1312.89 1507.3 Q1317.51 1514.18 1317.51 1527.3 Q1317.51 1540.39 1312.89 1547.3 Q1308.31 1554.17 1299.6 1554.17 Q1290.88 1554.17 1286.26 1547.3 Q1281.68 1540.39 1281.68 1527.3 Q1281.68 1514.18 1286.26 1507.3 Q1290.88 1500.39 1299.6 1500.39 Z" fill="#000000" fill-rule="evenodd" fill-opacity="1" /><path clip-path="url(#clip130)" d="M1745.27 1505.95 Q1739.85 1505.95 1737.11 1511.29 Q1734.4 1516.61 1734.4 1527.3 Q1734.4 1537.96 1737.11 1543.31 Q1739.85 1548.62 1745.27 1548.62 Q1750.72 1548.62 1753.43 1543.31 Q1756.17 1537.96 1756.17 1527.3 Q1756.17 1516.61 1753.43 1511.29 Q1750.72 1505.95 1745.27 1505.95 M1745.27 1500.39 Q1753.99 1500.39 1758.57 1507.3 Q1763.19 1514.18 1763.19 1527.3 Q1763.19 1540.39 1758.57 1547.3 Q1753.99 1554.17 1745.27 1554.17 Q1736.56 1554.17 1731.94 1547.3 Q1727.35 1540.39 1727.35 1527.3 Q1727.35 1514.18 1731.94 1507.3 Q1736.56 1500.39 1745.27 1500.39 Z" fill="#000000" fill-rule="evenodd" fill-opacity="1" /><path clip-path="url(#clip130)" d="M1775.51 1544.35 L1782.84 1544.35 L1782.84 1553.17 L1775.51 1553.17 L1775.51 1544.35 Z" fill="#000000" fill-rule="evenodd" fill-opacity="1" /><path clip-path="url(#clip130)" d="M1798.19 1501.33 L1825.72 1501.33 L1825.72 1507.23 L1804.61 1507.23 L1804.61 1519.94 Q1806.14 1519.42 1807.67 1519.18 Q1809.19 1518.9 1810.72 1518.9 Q1819.4 1518.9 1824.47 1523.65 Q1829.54 1528.41 1829.54 1536.54 Q1829.54 1544.9 1824.33 1549.56 Q1819.12 1554.17 1809.65 1554.17 Q1806.38 1554.17 1802.98 1553.62 Q1799.61 1553.06 1796 1551.95 L1796 1544.9 Q1799.12 1546.61 1802.46 1547.44 Q1805.79 1548.27 1809.51 1548.27 Q1815.51 1548.27 1819.02 1545.11 Q1822.53 1541.95 1822.53 1536.54 Q1822.53 1531.12 1819.02 1527.96 Q1815.51 1524.8 1809.51 1524.8 Q1806.69 1524.8 1803.88 1525.42 Q1801.1 1526.05 1798.19 1527.37 L1798.19 1501.33 Z" fill="#000000" fill-rule="evenodd" fill-opacity="1" /><path clip-path="url(#clip130)" d="M2241.95 1547.27 L2253.41 1547.27 L2253.41 1507.72 L2240.95 1510.22 L2240.95 1503.83 L2253.34 1501.33 L2260.35 1501.33 L2260.35 1547.27 L2271.81 1547.27 L2271.81 1553.17 L2241.95 1553.17 L2241.95 1547.27 Z" fill="#000000" fill-rule="evenodd" fill-opacity="1" /><path clip-path="url(#clip130)" d="M2285.98 1544.35 L2293.31 1544.35 L2293.31 1553.17 L2285.98 1553.17 L2285.98 1544.35 Z" fill="#000000" fill-rule="evenodd" fill-opacity="1" /><path clip-path="url(#clip130)" d="M2323.58 1505.95 Q2318.17 1505.95 2315.42 1511.29 Q2312.72 1516.61 2312.72 1527.3 Q2312.72 1537.96 2315.42 1543.31 Q2318.17 1548.62 2323.58 1548.62 Q2329.04 1548.62 2331.74 1543.31 Q2334.49 1537.96 2334.49 1527.3 Q2334.49 1516.61 2331.74 1511.29 Q2329.04 1505.95 2323.58 1505.95 M2323.58 1500.39 Q2332.3 1500.39 2336.88 1507.3 Q2341.5 1514.18 2341.5 1527.3 Q2341.5 1540.39 2336.88 1547.3 Q2332.3 1554.17 2323.58 1554.17 Q2314.87 1554.17 2310.25 1547.3 Q2305.67 1540.39 2305.67 1527.3 Q2305.67 1514.18 2310.25 1507.3 Q2314.87 1500.39 2323.58 1500.39 Z" fill="#000000" fill-rule="evenodd" fill-opacity="1" /><polyline clip-path="url(#clip132)" style="stroke:#000000; stroke-linecap:round; stroke-linejoin:round; stroke-width:2; stroke-opacity:0.1; fill:none" points="
  178.589,1428.94 2352.76,1428.94 
  "/>
<polyline clip-path="url(#clip132)" style="stroke:#000000; stroke-linecap:round; stroke-linejoin:round; stroke-width:2; stroke-opacity:0.1; fill:none" points="
  178.589,1205.36 2352.76,1205.36 
  "/>
<polyline clip-path="url(#clip132)" style="stroke:#000000; stroke-linecap:round; stroke-linejoin:round; stroke-width:2; stroke-opacity:0.1; fill:none" points="
  178.589,981.785 2352.76,981.785 
  "/>
<polyline clip-path="url(#clip132)" style="stroke:#000000; stroke-linecap:round; stroke-linejoin:round; stroke-width:2; stroke-opacity:0.1; fill:none" points="
  178.589,758.21 2352.76,758.21 
  "/>
<polyline clip-path="url(#clip132)" style="stroke:#000000; stroke-linecap:round; stroke-linejoin:round; stroke-width:2; stroke-opacity:0.1; fill:none" points="
  178.589,534.634 2352.76,534.634 
  "/>
<polyline clip-path="url(#clip132)" style="stroke:#000000; stroke-linecap:round; stroke-linejoin:round; stroke-width:2; stroke-opacity:0.1; fill:none" points="
  178.589,311.058 2352.76,311.058 
  "/>
<polyline clip-path="url(#clip132)" style="stroke:#000000; stroke-linecap:round; stroke-linejoin:round; stroke-width:2; stroke-opacity:0.1; fill:none" points="
  178.589,87.482 2352.76,87.482 
  "/>
<polyline clip-path="url(#clip130)" style="stroke:#000000; stroke-linecap:round; stroke-linejoin:round; stroke-width:4; stroke-opacity:1; fill:none" points="
  178.589,1469.17 178.589,47.2441 
  "/>
<polyline clip-path="url(#clip130)" style="stroke:#000000; stroke-linecap:round; stroke-linejoin:round; stroke-width:4; stroke-opacity:1; fill:none" points="
  178.589,1428.94 197.486,1428.94 
  "/>
<polyline clip-path="url(#clip130)" style="stroke:#000000; stroke-linecap:round; stroke-linejoin:round; stroke-width:4; stroke-opacity:1; fill:none" points="
  178.589,1205.36 197.486,1205.36 
  "/>
<polyline clip-path="url(#clip130)" style="stroke:#000000; stroke-linecap:round; stroke-linejoin:round; stroke-width:4; stroke-opacity:1; fill:none" points="
  178.589,981.785 197.486,981.785 
  "/>
<polyline clip-path="url(#clip130)" style="stroke:#000000; stroke-linecap:round; stroke-linejoin:round; stroke-width:4; stroke-opacity:1; fill:none" points="
  178.589,758.21 197.486,758.21 
  "/>
<polyline clip-path="url(#clip130)" style="stroke:#000000; stroke-linecap:round; stroke-linejoin:round; stroke-width:4; stroke-opacity:1; fill:none" points="
  178.589,534.634 197.486,534.634 
  "/>
<polyline clip-path="url(#clip130)" style="stroke:#000000; stroke-linecap:round; stroke-linejoin:round; stroke-width:4; stroke-opacity:1; fill:none" points="
  178.589,311.058 197.486,311.058 
  "/>
<polyline clip-path="url(#clip130)" style="stroke:#000000; stroke-linecap:round; stroke-linejoin:round; stroke-width:4; stroke-opacity:1; fill:none" points="
  178.589,87.482 197.486,87.482 
  "/>
<path clip-path="url(#clip130)" d="M50.9921 1429.61 L95.5058 1429.61 L95.5058 1435.52 L50.9921 1435.52 L50.9921 1429.61 Z" fill="#000000" fill-rule="evenodd" fill-opacity="1" /><path clip-path="url(#clip130)" d="M131.894 1426.91 Q136.929 1427.98 139.742 1431.39 Q142.589 1434.79 142.589 1439.79 Q142.589 1447.46 137.311 1451.66 Q132.033 1455.86 122.311 1455.86 Q119.047 1455.86 115.575 1455.2 Q112.138 1454.58 108.457 1453.29 L108.457 1446.52 Q111.374 1448.23 114.846 1449.09 Q118.318 1449.96 122.103 1449.96 Q128.7 1449.96 132.138 1447.36 Q135.61 1444.75 135.61 1439.79 Q135.61 1435.2 132.381 1432.64 Q129.186 1430.03 123.457 1430.03 L117.415 1430.03 L117.415 1424.27 L123.735 1424.27 Q128.908 1424.27 131.651 1422.22 Q134.394 1420.14 134.394 1416.25 Q134.394 1412.25 131.547 1410.14 Q128.735 1407.98 123.457 1407.98 Q120.575 1407.98 117.276 1408.61 Q113.978 1409.23 110.02 1410.55 L110.02 1404.3 Q114.013 1403.19 117.485 1402.64 Q120.992 1402.08 124.082 1402.08 Q132.068 1402.08 136.721 1405.73 Q141.374 1409.34 141.374 1415.52 Q141.374 1419.82 138.908 1422.81 Q136.443 1425.76 131.894 1426.91 Z" fill="#000000" fill-rule="evenodd" fill-opacity="1" /><path clip-path="url(#clip130)" d="M52.4157 1206.04 L96.9294 1206.04 L96.9294 1211.94 L52.4157 1211.94 L52.4157 1206.04 Z" fill="#000000" fill-rule="evenodd" fill-opacity="1" /><path clip-path="url(#clip130)" d="M118.11 1225.38 L142.589 1225.38 L142.589 1231.28 L109.672 1231.28 L109.672 1225.38 Q113.665 1221.25 120.54 1214.3 Q127.45 1207.32 129.221 1205.31 Q132.589 1201.52 133.908 1198.92 Q135.263 1196.28 135.263 1193.75 Q135.263 1189.61 132.346 1187.01 Q129.464 1184.41 124.811 1184.41 Q121.513 1184.41 117.832 1185.55 Q114.186 1186.7 110.02 1189.02 L110.02 1181.94 Q114.256 1180.24 117.936 1179.37 Q121.617 1178.5 124.672 1178.5 Q132.728 1178.5 137.519 1182.53 Q142.311 1186.56 142.311 1193.3 Q142.311 1196.49 141.096 1199.37 Q139.915 1202.22 136.756 1206.11 Q135.888 1207.11 131.235 1211.94 Q126.582 1216.73 118.11 1225.38 Z" fill="#000000" fill-rule="evenodd" fill-opacity="1" /><path clip-path="url(#clip130)" d="M51.8602 982.463 L96.3738 982.463 L96.3738 988.365 L51.8602 988.365 L51.8602 982.463 Z" fill="#000000" fill-rule="evenodd" fill-opacity="1" /><path clip-path="url(#clip130)" d="M112.728 1001.8 L124.186 1001.8 L124.186 962.254 L111.721 964.754 L111.721 958.365 L124.117 955.865 L131.131 955.865 L131.131 1001.8 L142.589 1001.8 L142.589 1007.71 L112.728 1007.71 L112.728 1001.8 Z" fill="#000000" fill-rule="evenodd" fill-opacity="1" /><path clip-path="url(#clip130)" d="M124.672 736.908 Q119.256 736.908 116.513 742.255 Q113.804 747.567 113.804 758.262 Q113.804 768.921 116.513 774.269 Q119.256 779.581 124.672 779.581 Q130.124 779.581 132.832 774.269 Q135.575 768.921 135.575 758.262 Q135.575 747.567 132.832 742.255 Q130.124 736.908 124.672 736.908 M124.672 731.352 Q133.388 731.352 137.971 738.262 Q142.589 745.137 142.589 758.262 Q142.589 771.352 137.971 778.262 Q133.388 785.137 124.672 785.137 Q115.957 785.137 111.339 778.262 Q106.756 771.352 106.756 758.262 Q106.756 745.137 111.339 738.262 Q115.957 731.352 124.672 731.352 Z" fill="#000000" fill-rule="evenodd" fill-opacity="1" /><path clip-path="url(#clip130)" d="M112.728 554.651 L124.186 554.651 L124.186 515.103 L111.721 517.603 L111.721 511.214 L124.117 508.714 L131.131 508.714 L131.131 554.651 L142.589 554.651 L142.589 560.554 L112.728 560.554 L112.728 554.651 Z" fill="#000000" fill-rule="evenodd" fill-opacity="1" /><path clip-path="url(#clip130)" d="M118.11 331.075 L142.589 331.075 L142.589 336.978 L109.672 336.978 L109.672 331.075 Q113.665 326.943 120.54 319.999 Q127.45 313.02 129.221 311.006 Q132.589 307.221 133.908 304.617 Q135.263 301.978 135.263 299.443 Q135.263 295.311 132.346 292.707 Q129.464 290.103 124.811 290.103 Q121.513 290.103 117.832 291.249 Q114.186 292.395 110.02 294.721 L110.02 287.638 Q114.256 285.936 117.936 285.068 Q121.617 284.2 124.672 284.2 Q132.728 284.2 137.519 288.228 Q142.311 292.256 142.311 298.992 Q142.311 302.186 141.096 305.068 Q139.915 307.916 136.756 311.804 Q135.888 312.811 131.235 317.638 Q126.582 322.429 118.11 331.075 Z" fill="#000000" fill-rule="evenodd" fill-opacity="1" /><path clip-path="url(#clip130)" d="M131.894 85.4508 Q136.929 86.5271 139.742 89.9299 Q142.589 93.3327 142.589 98.3326 Q142.589 106.006 137.311 110.208 Q132.033 114.409 122.311 114.409 Q119.047 114.409 115.575 113.749 Q112.138 113.124 108.457 111.84 L108.457 105.069 Q111.374 106.77 114.846 107.638 Q118.318 108.506 122.103 108.506 Q128.7 108.506 132.138 105.902 Q135.61 103.298 135.61 98.3326 Q135.61 93.7493 132.381 91.1799 Q129.186 88.5757 123.457 88.5757 L117.415 88.5757 L117.415 82.8119 L123.735 82.8119 Q128.908 82.8119 131.651 80.7633 Q134.394 78.68 134.394 74.7911 Q134.394 70.7981 131.547 68.68 Q128.735 66.5272 123.457 66.5272 Q120.575 66.5272 117.276 67.1522 Q113.978 67.7772 110.02 69.0967 L110.02 62.8467 Q114.013 61.7356 117.485 61.18 Q120.992 60.6245 124.082 60.6245 Q132.068 60.6245 136.721 64.2703 Q141.374 67.8814 141.374 74.0619 Q141.374 78.3675 138.908 81.3536 Q136.443 84.3049 131.894 85.4508 Z" fill="#000000" fill-rule="evenodd" fill-opacity="1" /><polyline clip-path="url(#clip132)" style="stroke:#009af9; stroke-linecap:round; stroke-linejoin:round; stroke-width:12; stroke-opacity:1; fill:none" points="
  2291.22,1368.1 2287.9,1370.79 2277.94,1378.48 2261.42,1390.09 2238.44,1403.77 2209.16,1416.98 2173.75,1426.48 2132.46,1428.52 2085.54,1418.99 2033.31,1393.77 
  1976.1,1349.18 1914.28,1282.5 1848.25,1192.45 1778.45,1079.77 1705.32,947.483 1629.34,800.983 1551,647.811 1470.81,497.064 1389.29,358.521 1306.97,241.595 
  1224.38,154.254 1142.06,102.104 1060.54,87.7695 980.346,110.695 902.007,167.36 826.027,251.871 752.897,356.798 683.093,474.1 617.068,596.004 555.249,715.701 
  498.037,827.799 445.803,928.524 398.887,1015.68 357.593,1088.44 322.187,1147.02 292.9,1192.36 269.923,1225.72 253.402,1248.41 243.447,1261.53 240.122,1265.82 
  
  "/>
<circle clip-path="url(#clip132)" cx="2291.22" cy="1368.1" r="14.4" fill="#009af9" fill-rule="evenodd" fill-opacity="1" stroke="#000000" stroke-opacity="1" stroke-width="3.2"/>
<circle clip-path="url(#clip132)" cx="2287.9" cy="1370.79" r="14.4" fill="#009af9" fill-rule="evenodd" fill-opacity="1" stroke="#000000" stroke-opacity="1" stroke-width="3.2"/>
<circle clip-path="url(#clip132)" cx="2277.94" cy="1378.48" r="14.4" fill="#009af9" fill-rule="evenodd" fill-opacity="1" stroke="#000000" stroke-opacity="1" stroke-width="3.2"/>
<circle clip-path="url(#clip132)" cx="2261.42" cy="1390.09" r="14.4" fill="#009af9" fill-rule="evenodd" fill-opacity="1" stroke="#000000" stroke-opacity="1" stroke-width="3.2"/>
<circle clip-path="url(#clip132)" cx="2238.44" cy="1403.77" r="14.4" fill="#009af9" fill-rule="evenodd" fill-opacity="1" stroke="#000000" stroke-opacity="1" stroke-width="3.2"/>
<circle clip-path="url(#clip132)" cx="2209.16" cy="1416.98" r="14.4" fill="#009af9" fill-rule="evenodd" fill-opacity="1" stroke="#000000" stroke-opacity="1" stroke-width="3.2"/>
<circle clip-path="url(#clip132)" cx="2173.75" cy="1426.48" r="14.4" fill="#009af9" fill-rule="evenodd" fill-opacity="1" stroke="#000000" stroke-opacity="1" stroke-width="3.2"/>
<circle clip-path="url(#clip132)" cx="2132.46" cy="1428.52" r="14.4" fill="#009af9" fill-rule="evenodd" fill-opacity="1" stroke="#000000" stroke-opacity="1" stroke-width="3.2"/>
<circle clip-path="url(#clip132)" cx="2085.54" cy="1418.99" r="14.4" fill="#009af9" fill-rule="evenodd" fill-opacity="1" stroke="#000000" stroke-opacity="1" stroke-width="3.2"/>
<circle clip-path="url(#clip132)" cx="2033.31" cy="1393.77" r="14.4" fill="#009af9" fill-rule="evenodd" fill-opacity="1" stroke="#000000" stroke-opacity="1" stroke-width="3.2"/>
<circle clip-path="url(#clip132)" cx="1976.1" cy="1349.18" r="14.4" fill="#009af9" fill-rule="evenodd" fill-opacity="1" stroke="#000000" stroke-opacity="1" stroke-width="3.2"/>
<circle clip-path="url(#clip132)" cx="1914.28" cy="1282.5" r="14.4" fill="#009af9" fill-rule="evenodd" fill-opacity="1" stroke="#000000" stroke-opacity="1" stroke-width="3.2"/>
<circle clip-path="url(#clip132)" cx="1848.25" cy="1192.45" r="14.4" fill="#009af9" fill-rule="evenodd" fill-opacity="1" stroke="#000000" stroke-opacity="1" stroke-width="3.2"/>
<circle clip-path="url(#clip132)" cx="1778.45" cy="1079.77" r="14.4" fill="#009af9" fill-rule="evenodd" fill-opacity="1" stroke="#000000" stroke-opacity="1" stroke-width="3.2"/>
<circle clip-path="url(#clip132)" cx="1705.32" cy="947.483" r="14.4" fill="#009af9" fill-rule="evenodd" fill-opacity="1" stroke="#000000" stroke-opacity="1" stroke-width="3.2"/>
<circle clip-path="url(#clip132)" cx="1629.34" cy="800.983" r="14.4" fill="#009af9" fill-rule="evenodd" fill-opacity="1" stroke="#000000" stroke-opacity="1" stroke-width="3.2"/>
<circle clip-path="url(#clip132)" cx="1551" cy="647.811" r="14.4" fill="#009af9" fill-rule="evenodd" fill-opacity="1" stroke="#000000" stroke-opacity="1" stroke-width="3.2"/>
<circle clip-path="url(#clip132)" cx="1470.81" cy="497.064" r="14.4" fill="#009af9" fill-rule="evenodd" fill-opacity="1" stroke="#000000" stroke-opacity="1" stroke-width="3.2"/>
<circle clip-path="url(#clip132)" cx="1389.29" cy="358.521" r="14.4" fill="#009af9" fill-rule="evenodd" fill-opacity="1" stroke="#000000" stroke-opacity="1" stroke-width="3.2"/>
<circle clip-path="url(#clip132)" cx="1306.97" cy="241.595" r="14.4" fill="#009af9" fill-rule="evenodd" fill-opacity="1" stroke="#000000" stroke-opacity="1" stroke-width="3.2"/>
<circle clip-path="url(#clip132)" cx="1224.38" cy="154.254" r="14.4" fill="#009af9" fill-rule="evenodd" fill-opacity="1" stroke="#000000" stroke-opacity="1" stroke-width="3.2"/>
<circle clip-path="url(#clip132)" cx="1142.06" cy="102.104" r="14.4" fill="#009af9" fill-rule="evenodd" fill-opacity="1" stroke="#000000" stroke-opacity="1" stroke-width="3.2"/>
<circle clip-path="url(#clip132)" cx="1060.54" cy="87.7695" r="14.4" fill="#009af9" fill-rule="evenodd" fill-opacity="1" stroke="#000000" stroke-opacity="1" stroke-width="3.2"/>
<circle clip-path="url(#clip132)" cx="980.346" cy="110.695" r="14.4" fill="#009af9" fill-rule="evenodd" fill-opacity="1" stroke="#000000" stroke-opacity="1" stroke-width="3.2"/>
<circle clip-path="url(#clip132)" cx="902.007" cy="167.36" r="14.4" fill="#009af9" fill-rule="evenodd" fill-opacity="1" stroke="#000000" stroke-opacity="1" stroke-width="3.2"/>
<circle clip-path="url(#clip132)" cx="826.027" cy="251.871" r="14.4" fill="#009af9" fill-rule="evenodd" fill-opacity="1" stroke="#000000" stroke-opacity="1" stroke-width="3.2"/>
<circle clip-path="url(#clip132)" cx="752.897" cy="356.798" r="14.4" fill="#009af9" fill-rule="evenodd" fill-opacity="1" stroke="#000000" stroke-opacity="1" stroke-width="3.2"/>
<circle clip-path="url(#clip132)" cx="683.093" cy="474.1" r="14.4" fill="#009af9" fill-rule="evenodd" fill-opacity="1" stroke="#000000" stroke-opacity="1" stroke-width="3.2"/>
<circle clip-path="url(#clip132)" cx="617.068" cy="596.004" r="14.4" fill="#009af9" fill-rule="evenodd" fill-opacity="1" stroke="#000000" stroke-opacity="1" stroke-width="3.2"/>
<circle clip-path="url(#clip132)" cx="555.249" cy="715.701" r="14.4" fill="#009af9" fill-rule="evenodd" fill-opacity="1" stroke="#000000" stroke-opacity="1" stroke-width="3.2"/>
<circle clip-path="url(#clip132)" cx="498.037" cy="827.799" r="14.4" fill="#009af9" fill-rule="evenodd" fill-opacity="1" stroke="#000000" stroke-opacity="1" stroke-width="3.2"/>
<circle clip-path="url(#clip132)" cx="445.803" cy="928.524" r="14.4" fill="#009af9" fill-rule="evenodd" fill-opacity="1" stroke="#000000" stroke-opacity="1" stroke-width="3.2"/>
<circle clip-path="url(#clip132)" cx="398.887" cy="1015.68" r="14.4" fill="#009af9" fill-rule="evenodd" fill-opacity="1" stroke="#000000" stroke-opacity="1" stroke-width="3.2"/>
<circle clip-path="url(#clip132)" cx="357.593" cy="1088.44" r="14.4" fill="#009af9" fill-rule="evenodd" fill-opacity="1" stroke="#000000" stroke-opacity="1" stroke-width="3.2"/>
<circle clip-path="url(#clip132)" cx="322.187" cy="1147.02" r="14.4" fill="#009af9" fill-rule="evenodd" fill-opacity="1" stroke="#000000" stroke-opacity="1" stroke-width="3.2"/>
<circle clip-path="url(#clip132)" cx="292.9" cy="1192.36" r="14.4" fill="#009af9" fill-rule="evenodd" fill-opacity="1" stroke="#000000" stroke-opacity="1" stroke-width="3.2"/>
<circle clip-path="url(#clip132)" cx="269.923" cy="1225.72" r="14.4" fill="#009af9" fill-rule="evenodd" fill-opacity="1" stroke="#000000" stroke-opacity="1" stroke-width="3.2"/>
<circle clip-path="url(#clip132)" cx="253.402" cy="1248.41" r="14.4" fill="#009af9" fill-rule="evenodd" fill-opacity="1" stroke="#000000" stroke-opacity="1" stroke-width="3.2"/>
<circle clip-path="url(#clip132)" cx="243.447" cy="1261.53" r="14.4" fill="#009af9" fill-rule="evenodd" fill-opacity="1" stroke="#000000" stroke-opacity="1" stroke-width="3.2"/>
<circle clip-path="url(#clip132)" cx="240.122" cy="1265.82" r="14.4" fill="#009af9" fill-rule="evenodd" fill-opacity="1" stroke="#000000" stroke-opacity="1" stroke-width="3.2"/>
<polyline clip-path="url(#clip132)" style="stroke:#e26f46; stroke-linecap:round; stroke-linejoin:round; stroke-width:12; stroke-opacity:1; fill:none" points="
  240.122,1265.82 243.46,1261.51 246.799,1257.16 250.137,1252.76 253.476,1248.31 284.344,1205.02 315.213,1158.09 346.082,1107.9 376.951,1054.86 414.052,987.958 
  451.154,918.349 482.523,857.992 513.892,796.795 582.043,663.418 644.872,543.664 678.552,482.196 712.232,423.405 731.743,390.797 751.253,359.386 770.764,329.274 
  790.275,300.559 807.613,276.288 824.952,253.256 842.291,231.524 859.63,211.146 874.834,194.432 890.039,178.834 905.243,164.381 920.448,151.103 937.025,137.996 
  953.602,126.347 970.179,116.183 986.756,107.529 1003.43,100.367 1020.11,94.7695 1036.78,90.7506 1053.46,88.3197 1071.9,87.4872 1090.33,88.6052 1108.77,91.6705 
  1127.21,96.6741 1144.75,103.221 1162.29,111.493 1179.83,121.467 1197.38,133.117 1215.62,146.976 1233.86,162.574 1252.1,179.867 1270.34,198.807 1285.69,215.987 
  1301.04,234.26 1316.4,253.59 1331.75,273.939 1350.5,300.101 1369.24,327.641 1387.99,356.475 1406.73,386.517 1441.08,444.389 1475.42,505.426 1507.14,564.078 
  1538.86,624.399 1570.99,686.674 1603.12,749.581 1639.13,820.146 1675.14,890.024 1707.78,952.104 1740.41,1012.42 1759.09,1045.94 1777.77,1078.6 1796.45,1110.31 
  1815.13,1140.96 1832.42,1168.33 1849.72,1194.64 1867.01,1219.84 1884.31,1243.86 1901.36,1266.32 1918.41,1287.52 1935.47,1307.4 1952.52,1325.92 1969.07,1342.54 
  1985.63,1357.8 2002.19,1371.65 2018.74,1384.06 2035.71,1395.26 2052.69,1404.89 2069.66,1412.93 2086.63,1419.35 2105.22,1424.52 2123.82,1427.71 2142.41,1428.92 
  2161.01,1428.16 2174.51,1426.35 2188.02,1423.51 2201.53,1419.63 2215.03,1414.71 2242.04,1401.82 2269.06,1384.9 2274.6,1380.95 2280.14,1376.83 2285.68,1372.54 
  2291.22,1368.1 
  "/>
<path clip-path="url(#clip130)" d="
M1960.06 327.922 L2280.28 327.922 L2280.28 94.6416 L1960.06 94.6416  Z
  " fill="#ffffff" fill-rule="evenodd" fill-opacity="1"/>
<polyline clip-path="url(#clip130)" style="stroke:#000000; stroke-linecap:round; stroke-linejoin:round; stroke-width:4; stroke-opacity:1; fill:none" points="
  1960.06,327.922 2280.28,327.922 2280.28,94.6416 1960.06,94.6416 1960.06,327.922 
  "/>
<polyline clip-path="url(#clip130)" style="stroke:#009af9; stroke-linecap:round; stroke-linejoin:round; stroke-width:6; stroke-opacity:1; fill:none" points="
  1984.22,172.402 2129.17,172.402 
  "/>
<circle clip-path="url(#clip130)" cx="2056.69" cy="172.402" r="13.4208" fill="#009af9" fill-rule="evenodd" fill-opacity="1" stroke="#000000" stroke-opacity="1" stroke-width="7.68"/>
<path clip-path="url(#clip130)" d="M2174.09 201.933 Q2171.38 208.877 2168.81 210.995 Q2166.24 213.113 2161.93 213.113 L2156.83 213.113 L2156.83 207.766 L2160.58 207.766 Q2163.22 207.766 2164.68 206.516 Q2166.14 205.266 2167.91 200.613 L2169.05 197.697 L2153.32 159.433 L2160.09 159.433 L2172.25 189.849 L2184.4 159.433 L2191.17 159.433 L2174.09 201.933 Z" fill="#000000" fill-rule="evenodd" fill-opacity="1" /><path clip-path="url(#clip130)" d="M2202.11 192.419 L2213.57 192.419 L2213.57 152.87 L2201.1 155.37 L2201.1 148.982 L2213.5 146.482 L2220.51 146.482 L2220.51 192.419 L2231.97 192.419 L2231.97 198.322 L2202.11 198.322 L2202.11 192.419 Z" fill="#000000" fill-rule="evenodd" fill-opacity="1" /><polyline clip-path="url(#clip130)" style="stroke:#e26f46; stroke-linecap:round; stroke-linejoin:round; stroke-width:6; stroke-opacity:1; fill:none" points="
  1984.22,250.162 2129.17,250.162 
  "/>
<path clip-path="url(#clip130)" d="M2174.09 279.693 Q2171.38 286.637 2168.81 288.755 Q2166.24 290.873 2161.93 290.873 L2156.83 290.873 L2156.83 285.526 L2160.58 285.526 Q2163.22 285.526 2164.68 284.276 Q2166.14 283.026 2167.91 278.373 L2169.05 275.457 L2153.32 237.193 L2160.09 237.193 L2172.25 267.609 L2184.4 237.193 L2191.17 237.193 L2174.09 279.693 Z" fill="#000000" fill-rule="evenodd" fill-opacity="1" /><path clip-path="url(#clip130)" d="M2206.93 270.179 L2231.41 270.179 L2231.41 276.082 L2198.5 276.082 L2198.5 270.179 Q2202.49 266.047 2209.36 259.102 Q2216.27 252.123 2218.05 250.109 Q2221.41 246.325 2222.73 243.721 Q2224.09 241.082 2224.09 238.547 Q2224.09 234.415 2221.17 231.811 Q2218.29 229.207 2213.64 229.207 Q2210.34 229.207 2206.66 230.353 Q2203.01 231.498 2198.84 233.825 L2198.84 226.742 Q2203.08 225.04 2206.76 224.172 Q2210.44 223.304 2213.5 223.304 Q2221.55 223.304 2226.34 227.332 Q2231.14 231.36 2231.14 238.096 Q2231.14 241.29 2229.92 244.172 Q2228.74 247.019 2225.58 250.908 Q2224.71 251.915 2220.06 256.741 Q2215.41 261.533 2206.93 270.179 Z" fill="#000000" fill-rule="evenodd" fill-opacity="1" /></svg>
