<?xml version="1.0" encoding="utf-8"?>
<svg xmlns="http://www.w3.org/2000/svg" xmlns:xlink="http://www.w3.org/1999/xlink" width="600" height="400" viewBox="0 0 2400 1600">
<defs>
  <clipPath id="clip430">
    <rect x="0" y="0" width="2400" height="1600"/>
  </clipPath>
</defs>
<path clip-path="url(#clip430)" d="
M0 1600 L2400 1600 L2400 0 L0 0  Z
  " fill="#ffffff" fill-rule="evenodd" fill-opacity="1"/>
<defs>
  <clipPath id="clip431">
    <rect x="480" y="0" width="1681" height="1600"/>
  </clipPath>
</defs>
<path clip-path="url(#clip430)" d="
M247.408 1469.17 L2352.76 1469.17 L2352.76 47.2441 L247.408 47.2441  Z
  " fill="#ffffff" fill-rule="evenodd" fill-opacity="1"/>
<defs>
  <clipPath id="clip432">
    <rect x="247" y="47" width="2106" height="1423"/>
  </clipPath>
</defs>
<polyline clip-path="url(#clip432)" style="stroke:#000000; stroke-linecap:round; stroke-linejoin:round; stroke-width:2; stroke-opacity:0.1; fill:none" points="
  505.611,1469.17 505.611,47.2441 
  "/>
<polyline clip-path="url(#clip432)" style="stroke:#000000; stroke-linecap:round; stroke-linejoin:round; stroke-width:2; stroke-opacity:0.1; fill:none" points="
  902.846,1469.17 902.846,47.2441 
  "/>
<polyline clip-path="url(#clip432)" style="stroke:#000000; stroke-linecap:round; stroke-linejoin:round; stroke-width:2; stroke-opacity:0.1; fill:none" points="
  1300.08,1469.17 1300.08,47.2441 
  "/>
<polyline clip-path="url(#clip432)" style="stroke:#000000; stroke-linecap:round; stroke-linejoin:round; stroke-width:2; stroke-opacity:0.1; fill:none" points="
  1697.32,1469.17 1697.32,47.2441 
  "/>
<polyline clip-path="url(#clip432)" style="stroke:#000000; stroke-linecap:round; stroke-linejoin:round; stroke-width:2; stroke-opacity:0.1; fill:none" points="
  2094.55,1469.17 2094.55,47.2441 
  "/>
<polyline clip-path="url(#clip430)" style="stroke:#000000; stroke-linecap:round; stroke-linejoin:round; stroke-width:4; stroke-opacity:1; fill:none" points="
  247.408,1469.17 2352.76,1469.17 
  "/>
<polyline clip-path="url(#clip430)" style="stroke:#000000; stroke-linecap:round; stroke-linejoin:round; stroke-width:4; stroke-opacity:1; fill:none" points="
  505.611,1469.17 505.611,1450.27 
  "/>
<polyline clip-path="url(#clip430)" style="stroke:#000000; stroke-linecap:round; stroke-linejoin:round; stroke-width:4; stroke-opacity:1; fill:none" points="
  902.846,1469.17 902.846,1450.27 
  "/>
<polyline clip-path="url(#clip430)" style="stroke:#000000; stroke-linecap:round; stroke-linejoin:round; stroke-width:4; stroke-opacity:1; fill:none" points="
  1300.08,1469.17 1300.08,1450.27 
  "/>
<polyline clip-path="url(#clip430)" style="stroke:#000000; stroke-linecap:round; stroke-linejoin:round; stroke-width:4; stroke-opacity:1; fill:none" points="
  1697.32,1469.17 1697.32,1450.27 
  "/>
<polyline clip-path="url(#clip430)" style="stroke:#000000; stroke-linecap:round; stroke-linejoin:round; stroke-width:4; stroke-opacity:1; fill:none" points="
  2094.55,1469.17 2094.55,1450.27 
  "/>
<path clip-path="url(#clip430)" d="M458.962 1527.92 L503.476 1527.92 L503.476 1533.83 L458.962 1533.83 L458.962 1527.92 Z" fill="#000000" fill-rule="evenodd" fill-opacity="1" /><path clip-path="url(#clip430)" d="M537.885 1507.44 L520.177 1535.11 L537.885 1535.11 L537.885 1507.44 M536.045 1501.33 L544.864 1501.33 L544.864 1535.11 L552.26 1535.11 L552.26 1540.95 L544.864 1540.95 L544.864 1553.17 L537.885 1553.17 L537.885 1540.95 L514.482 1540.95 L514.482 1534.17 L536.045 1501.33 Z" fill="#000000" fill-rule="evenodd" fill-opacity="1" /><path clip-path="url(#clip430)" d="M857.76 1527.92 L902.274 1527.92 L902.274 1533.83 L857.76 1533.83 L857.76 1527.92 Z" fill="#000000" fill-rule="evenodd" fill-opacity="1" /><path clip-path="url(#clip430)" d="M923.454 1547.27 L947.933 1547.27 L947.933 1553.17 L915.017 1553.17 L915.017 1547.27 Q919.01 1543.13 925.885 1536.19 Q932.794 1529.21 934.565 1527.2 Q937.933 1523.41 939.253 1520.81 Q940.607 1518.17 940.607 1515.63 Q940.607 1511.5 937.69 1508.9 Q934.808 1506.29 930.155 1506.29 Q926.857 1506.29 923.176 1507.44 Q919.53 1508.58 915.364 1510.91 L915.364 1503.83 Q919.6 1502.13 923.28 1501.26 Q926.961 1500.39 930.016 1500.39 Q938.072 1500.39 942.864 1504.42 Q947.655 1508.45 947.655 1515.18 Q947.655 1518.38 946.44 1521.26 Q945.259 1524.11 942.1 1527.99 Q941.232 1529 936.579 1533.83 Q931.926 1538.62 923.454 1547.27 Z" fill="#000000" fill-rule="evenodd" fill-opacity="1" /><path clip-path="url(#clip430)" d="M1300.08 1505.95 Q1294.67 1505.95 1291.92 1511.29 Q1289.21 1516.61 1289.21 1527.3 Q1289.21 1537.96 1291.92 1543.31 Q1294.67 1548.62 1300.08 1548.62 Q1305.53 1548.62 1308.24 1543.31 Q1310.98 1537.96 1310.98 1527.3 Q1310.98 1516.61 1308.24 1511.29 Q1305.53 1505.95 1300.08 1505.95 M1300.08 1500.39 Q1308.8 1500.39 1313.38 1507.3 Q1318 1514.18 1318 1527.3 Q1318 1540.39 1313.38 1547.3 Q1308.8 1554.17 1300.08 1554.17 Q1291.37 1554.17 1286.75 1547.3 Q1282.17 1540.39 1282.17 1527.3 Q1282.17 1514.18 1286.75 1507.3 Q1291.37 1500.39 1300.08 1500.39 Z" fill="#000000" fill-rule="evenodd" fill-opacity="1" /><path clip-path="url(#clip430)" d="M1689.3 1547.27 L1713.78 1547.27 L1713.78 1553.17 L1680.86 1553.17 L1680.86 1547.27 Q1684.85 1543.13 1691.73 1536.19 Q1698.64 1529.21 1700.41 1527.2 Q1703.78 1523.41 1705.1 1520.81 Q1706.45 1518.17 1706.45 1515.63 Q1706.45 1511.5 1703.53 1508.9 Q1700.65 1506.29 1696 1506.29 Q1692.7 1506.29 1689.02 1507.44 Q1685.37 1508.58 1681.21 1510.91 L1681.21 1503.83 Q1685.44 1502.13 1689.12 1501.26 Q1692.8 1500.39 1695.86 1500.39 Q1703.91 1500.39 1708.71 1504.42 Q1713.5 1508.45 1713.5 1515.18 Q1713.5 1518.38 1712.28 1521.26 Q1711.1 1524.11 1707.94 1527.99 Q1707.07 1529 1702.42 1533.83 Q1697.77 1538.62 1689.3 1547.27 Z" fill="#000000" fill-rule="evenodd" fill-opacity="1" /><path clip-path="url(#clip430)" d="M2099.07 1507.44 L2081.36 1535.11 L2099.07 1535.11 L2099.07 1507.44 M2097.23 1501.33 L2106.05 1501.33 L2106.05 1535.11 L2113.44 1535.11 L2113.44 1540.95 L2106.05 1540.95 L2106.05 1553.17 L2099.07 1553.17 L2099.07 1540.95 L2075.66 1540.95 L2075.66 1534.17 L2097.23 1501.33 Z" fill="#000000" fill-rule="evenodd" fill-opacity="1" /><polyline clip-path="url(#clip432)" style="stroke:#000000; stroke-linecap:round; stroke-linejoin:round; stroke-width:2; stroke-opacity:0.1; fill:none" points="
  247.408,1428.92 2352.76,1428.92 
  "/>
<polyline clip-path="url(#clip432)" style="stroke:#000000; stroke-linecap:round; stroke-linejoin:round; stroke-width:2; stroke-opacity:0.1; fill:none" points="
  247.408,1093.57 2352.76,1093.57 
  "/>
<polyline clip-path="url(#clip432)" style="stroke:#000000; stroke-linecap:round; stroke-linejoin:round; stroke-width:2; stroke-opacity:0.1; fill:none" points="
  247.408,758.206 2352.76,758.206 
  "/>
<polyline clip-path="url(#clip432)" style="stroke:#000000; stroke-linecap:round; stroke-linejoin:round; stroke-width:2; stroke-opacity:0.1; fill:none" points="
  247.408,422.847 2352.76,422.847 
  "/>
<polyline clip-path="url(#clip432)" style="stroke:#000000; stroke-linecap:round; stroke-linejoin:round; stroke-width:2; stroke-opacity:0.1; fill:none" points="
  247.408,87.4872 2352.76,87.4872 
  "/>
<polyline clip-path="url(#clip430)" style="stroke:#000000; stroke-linecap:round; stroke-linejoin:round; stroke-width:4; stroke-opacity:1; fill:none" points="
  247.408,1469.17 247.408,47.2441 
  "/>
<polyline clip-path="url(#clip430)" style="stroke:#000000; stroke-linecap:round; stroke-linejoin:round; stroke-width:4; stroke-opacity:1; fill:none" points="
  247.408,1428.92 266.306,1428.92 
  "/>
<polyline clip-path="url(#clip430)" style="stroke:#000000; stroke-linecap:round; stroke-linejoin:round; stroke-width:4; stroke-opacity:1; fill:none" points="
  247.408,1093.57 266.306,1093.57 
  "/>
<polyline clip-path="url(#clip430)" style="stroke:#000000; stroke-linecap:round; stroke-linejoin:round; stroke-width:4; stroke-opacity:1; fill:none" points="
  247.408,758.206 266.306,758.206 
  "/>
<polyline clip-path="url(#clip430)" style="stroke:#000000; stroke-linecap:round; stroke-linejoin:round; stroke-width:4; stroke-opacity:1; fill:none" points="
  247.408,422.847 266.306,422.847 
  "/>
<polyline clip-path="url(#clip430)" style="stroke:#000000; stroke-linecap:round; stroke-linejoin:round; stroke-width:4; stroke-opacity:1; fill:none" points="
  247.408,87.4872 266.306,87.4872 
  "/>
<path clip-path="url(#clip430)" d="M50.9921 1429.6 L95.5058 1429.6 L95.5058 1435.5 L50.9921 1435.5 L50.9921 1429.6 Z" fill="#000000" fill-rule="evenodd" fill-opacity="1" /><path clip-path="url(#clip430)" d="M111.86 1448.94 L123.318 1448.94 L123.318 1409.39 L110.853 1411.89 L110.853 1405.5 L123.249 1403 L130.263 1403 L130.263 1448.94 L141.721 1448.94 L141.721 1454.84 L111.86 1454.84 L111.86 1448.94 Z" fill="#000000" fill-rule="evenodd" fill-opacity="1" /><path clip-path="url(#clip430)" d="M155.887 1446.03 L163.214 1446.03 L163.214 1454.84 L155.887 1454.84 L155.887 1446.03 Z" fill="#000000" fill-rule="evenodd" fill-opacity="1" /><path clip-path="url(#clip430)" d="M193.491 1407.62 Q188.075 1407.62 185.332 1412.97 Q182.623 1418.28 182.623 1428.98 Q182.623 1439.64 185.332 1444.98 Q188.075 1450.3 193.491 1450.3 Q198.943 1450.3 201.651 1444.98 Q204.394 1439.64 204.394 1428.98 Q204.394 1418.28 201.651 1412.97 Q198.943 1407.62 193.491 1407.62 M193.491 1402.07 Q202.207 1402.07 206.79 1408.98 Q211.408 1415.85 211.408 1428.98 Q211.408 1442.07 206.79 1448.98 Q202.207 1455.85 193.491 1455.85 Q184.776 1455.85 180.158 1448.98 Q175.575 1442.07 175.575 1428.98 Q175.575 1415.85 180.158 1408.98 Q184.776 1402.07 193.491 1402.07 Z" fill="#000000" fill-rule="evenodd" fill-opacity="1" /><path clip-path="url(#clip430)" d="M52.4852 1094.24 L96.9988 1094.24 L96.9988 1100.15 L52.4852 1100.15 L52.4852 1094.24 Z" fill="#000000" fill-rule="evenodd" fill-opacity="1" /><path clip-path="url(#clip430)" d="M127.138 1072.26 Q121.721 1072.26 118.978 1077.61 Q116.27 1082.92 116.27 1093.62 Q116.27 1104.28 118.978 1109.62 Q121.721 1114.94 127.138 1114.94 Q132.589 1114.94 135.297 1109.62 Q138.04 1104.28 138.04 1093.62 Q138.04 1082.92 135.297 1077.61 Q132.589 1072.26 127.138 1072.26 M127.138 1066.71 Q135.853 1066.71 140.436 1073.62 Q145.054 1080.49 145.054 1093.62 Q145.054 1106.71 140.436 1113.62 Q135.853 1120.49 127.138 1120.49 Q118.422 1120.49 113.804 1113.62 Q109.221 1106.71 109.221 1093.62 Q109.221 1080.49 113.804 1073.62 Q118.422 1066.71 127.138 1066.71 Z" fill="#000000" fill-rule="evenodd" fill-opacity="1" /><path clip-path="url(#clip430)" d="M157.38 1110.67 L164.707 1110.67 L164.707 1119.49 L157.38 1119.49 L157.38 1110.67 Z" fill="#000000" fill-rule="evenodd" fill-opacity="1" /><path clip-path="url(#clip430)" d="M180.054 1067.65 L207.589 1067.65 L207.589 1073.55 L186.478 1073.55 L186.478 1086.26 Q188.005 1085.74 189.533 1085.49 Q191.061 1085.21 192.589 1085.21 Q201.269 1085.21 206.339 1089.97 Q211.408 1094.73 211.408 1102.85 Q211.408 1111.22 206.2 1115.87 Q200.991 1120.49 191.512 1120.49 Q188.248 1120.49 184.846 1119.94 Q181.478 1119.38 177.866 1118.27 L177.866 1111.22 Q180.991 1112.92 184.325 1113.76 Q187.658 1114.59 191.373 1114.59 Q197.38 1114.59 200.887 1111.43 Q204.394 1108.27 204.394 1102.85 Q204.394 1097.44 200.887 1094.28 Q197.38 1091.12 191.373 1091.12 Q188.561 1091.12 185.748 1091.74 Q182.971 1092.37 180.054 1093.69 L180.054 1067.65 Z" fill="#000000" fill-rule="evenodd" fill-opacity="1" /><path clip-path="url(#clip430)" d="M125.645 736.904 Q120.228 736.904 117.485 742.251 Q114.777 747.564 114.777 758.258 Q114.777 768.918 117.485 774.265 Q120.228 779.577 125.645 779.577 Q131.096 779.577 133.804 774.265 Q136.547 768.918 136.547 758.258 Q136.547 747.564 133.804 742.251 Q131.096 736.904 125.645 736.904 M125.645 731.348 Q134.36 731.348 138.943 738.258 Q143.561 745.133 143.561 758.258 Q143.561 771.348 138.943 778.258 Q134.36 785.133 125.645 785.133 Q116.929 785.133 112.311 778.258 Q107.728 771.348 107.728 758.258 Q107.728 745.133 112.311 738.258 Q116.929 731.348 125.645 731.348 Z" fill="#000000" fill-rule="evenodd" fill-opacity="1" /><path clip-path="url(#clip430)" d="M155.887 775.307 L163.214 775.307 L163.214 784.126 L155.887 784.126 L155.887 775.307 Z" fill="#000000" fill-rule="evenodd" fill-opacity="1" /><path clip-path="url(#clip430)" d="M193.491 736.904 Q188.075 736.904 185.332 742.251 Q182.623 747.564 182.623 758.258 Q182.623 768.918 185.332 774.265 Q188.075 779.577 193.491 779.577 Q198.943 779.577 201.651 774.265 Q204.394 768.918 204.394 758.258 Q204.394 747.564 201.651 742.251 Q198.943 736.904 193.491 736.904 M193.491 731.348 Q202.207 731.348 206.79 738.258 Q211.408 745.133 211.408 758.258 Q211.408 771.348 206.79 778.258 Q202.207 785.133 193.491 785.133 Q184.776 785.133 180.158 778.258 Q175.575 771.348 175.575 758.258 Q175.575 745.133 180.158 738.258 Q184.776 731.348 193.491 731.348 Z" fill="#000000" fill-rule="evenodd" fill-opacity="1" /><path clip-path="url(#clip430)" d="M127.138 401.545 Q121.721 401.545 118.978 406.892 Q116.27 412.204 116.27 422.899 Q116.27 433.558 118.978 438.906 Q121.721 444.218 127.138 444.218 Q132.589 444.218 135.297 438.906 Q138.04 433.558 138.04 422.899 Q138.04 412.204 135.297 406.892 Q132.589 401.545 127.138 401.545 M127.138 395.989 Q135.853 395.989 140.436 402.899 Q145.054 409.774 145.054 422.899 Q145.054 435.989 140.436 442.899 Q135.853 449.774 127.138 449.774 Q118.422 449.774 113.804 442.899 Q109.221 435.989 109.221 422.899 Q109.221 409.774 113.804 402.899 Q118.422 395.989 127.138 395.989 Z" fill="#000000" fill-rule="evenodd" fill-opacity="1" /><path clip-path="url(#clip430)" d="M157.38 439.947 L164.707 439.947 L164.707 448.767 L157.38 448.767 L157.38 439.947 Z" fill="#000000" fill-rule="evenodd" fill-opacity="1" /><path clip-path="url(#clip430)" d="M180.054 396.927 L207.589 396.927 L207.589 402.829 L186.478 402.829 L186.478 415.538 Q188.005 415.017 189.533 414.774 Q191.061 414.496 192.589 414.496 Q201.269 414.496 206.339 419.253 Q211.408 424.01 211.408 432.135 Q211.408 440.503 206.2 445.156 Q200.991 449.774 191.512 449.774 Q188.248 449.774 184.846 449.218 Q181.478 448.662 177.866 447.551 L177.866 440.503 Q180.991 442.204 184.325 443.037 Q187.658 443.871 191.373 443.871 Q197.38 443.871 200.887 440.711 Q204.394 437.551 204.394 432.135 Q204.394 426.718 200.887 423.558 Q197.38 420.399 191.373 420.399 Q188.561 420.399 185.748 421.024 Q182.971 421.649 180.054 422.968 L180.054 396.927 Z" fill="#000000" fill-rule="evenodd" fill-opacity="1" /><path clip-path="url(#clip430)" d="M111.86 107.504 L123.318 107.504 L123.318 67.9561 L110.853 70.4561 L110.853 64.0672 L123.249 61.5672 L130.263 61.5672 L130.263 107.504 L141.721 107.504 L141.721 113.407 L111.86 113.407 L111.86 107.504 Z" fill="#000000" fill-rule="evenodd" fill-opacity="1" /><path clip-path="url(#clip430)" d="M155.887 104.588 L163.214 104.588 L163.214 113.407 L155.887 113.407 L155.887 104.588 Z" fill="#000000" fill-rule="evenodd" fill-opacity="1" /><path clip-path="url(#clip430)" d="M193.491 66.1853 Q188.075 66.1853 185.332 71.5324 Q182.623 76.8449 182.623 87.5393 Q182.623 98.199 185.332 103.546 Q188.075 108.859 193.491 108.859 Q198.943 108.859 201.651 103.546 Q204.394 98.199 204.394 87.5393 Q204.394 76.8449 201.651 71.5324 Q198.943 66.1853 193.491 66.1853 M193.491 60.6297 Q202.207 60.6297 206.79 67.5394 Q211.408 74.4144 211.408 87.5393 Q211.408 100.63 206.79 107.539 Q202.207 114.414 193.491 114.414 Q184.776 114.414 180.158 107.539 Q175.575 100.63 175.575 87.5393 Q175.575 74.4144 180.158 67.5394 Q184.776 60.6297 193.491 60.6297 Z" fill="#000000" fill-rule="evenodd" fill-opacity="1" /><polyline clip-path="url(#clip432)" style="stroke:#009af9; stroke-linecap:round; stroke-linejoin:round; stroke-width:12; stroke-opacity:1; fill:none" points="
  306.993,1267.74 310.226,1245.85 313.459,1222.79 316.692,1198.62 319.924,1173.41 323.661,1143.03 327.397,1111.43 331.134,1078.71 334.87,1044.96 342.343,974.846 
  349.816,901.971 364.762,751.682 379.708,601.724 387.181,529.259 394.654,459.707 398.39,426.303 402.126,393.955 405.863,362.767 409.599,332.838 413.336,304.264 
  417.072,277.135 420.809,251.538 424.545,227.554 428.282,205.26 432.018,184.727 435.755,166.02 439.491,149.199 441.736,140.02 443.982,131.552 446.227,123.804 
  448.473,116.787 452.964,104.972 457.455,96.1614 461.946,90.3962 466.437,87.7025 470.927,88.0928 475.418,91.5652 479.909,98.1039 484.4,107.679 488.891,120.246 
  493.382,135.747 497.873,154.111 502.364,175.254 506.855,199.078 511.346,225.473 515.143,249.707 518.94,275.613 522.737,303.106 526.534,332.096 530.331,362.487 
  534.128,394.179 537.925,427.068 541.722,461.046 549.316,531.818 556.91,605.565 564.504,681.319 572.098,758.083 580.347,841.439 588.596,923.505 596.845,1003.01 
  605.095,1078.71 609.219,1114.78 613.344,1149.45 617.469,1182.61 621.593,1214.12 625.718,1243.87 629.842,1271.73 633.967,1297.59 638.092,1321.37 641.894,1341.35 
  645.697,1359.41 649.499,1375.49 653.302,1389.53 657.104,1401.49 660.907,1411.33 664.709,1419.01 668.512,1424.52 672.314,1427.83 676.117,1428.92 679.919,1427.81 
  683.722,1424.49 687.525,1418.97 691.327,1411.28 695.13,1401.43 698.932,1389.45 703.009,1374.31 707.086,1356.83 711.162,1337.07 715.239,1315.13 719.316,1291.07 
  723.392,1265 727.469,1237 731.546,1207.19 735.623,1175.68 739.699,1142.58 743.776,1108.03 747.853,1072.15 751.929,1035.08 756.006,996.962 760.083,957.939 
  764.16,918.158 773.606,823.908 783.053,728.322 792.499,633.344 801.946,540.904 806.669,496.225 811.392,452.88 816.116,411.087 820.839,371.061 825.562,333.004 
  830.285,297.111 835.009,263.563 839.732,232.532 843.929,207.195 848.127,184.073 852.324,163.257 856.522,144.832 860.719,128.871 864.917,115.44 869.114,104.591 
  873.312,96.3686 877.509,90.8057 881.707,87.9246 885.904,87.7369 890.102,90.2433 894.299,95.4337 898.497,103.287 902.694,113.773 906.892,126.848 910.573,140.403 
  914.253,155.867 917.934,173.193 921.615,192.326 925.296,213.209 928.977,235.775 932.658,259.956 936.338,285.676 940.019,312.857 943.7,341.413 947.381,371.258 
  951.062,402.299 954.742,434.439 958.423,467.58 962.104,501.619 965.785,536.451 973.811,614.629 981.837,694.915 989.863,776.13 997.89,857.082 1005.92,936.582 
  1013.94,1013.46 1017.95,1050.57 1021.97,1086.6 1025.98,1121.42 1029.99,1154.91 1034.03,1187.13 1038.07,1217.76 1042.1,1246.68 1046.14,1273.78 1050.18,1298.96 
  1054.22,1322.14 1058.25,1343.21 1062.29,1362.12 1066.33,1378.78 1070.36,1393.13 1074.4,1405.13 1078.44,1414.71 1082.47,1421.86 1086.51,1426.55 1090.55,1428.74 
  1094.59,1428.45 1099.05,1425.22 1103.51,1418.97 1107.98,1409.71 1112.44,1397.49 1116.9,1382.37 1121.37,1364.41 1125.83,1343.7 1130.29,1320.33 1134.76,1294.41 
  1139.22,1266.04 1143.68,1235.38 1148.15,1202.54 1152.61,1167.68 1157.07,1130.97 1161.54,1092.56 1166,1052.63 1174.49,973.11 1182.99,890.058 1191.48,804.838 
  1199.97,718.852 1208.47,633.513 1216.96,550.224 1221.21,509.777 1225.45,470.352 1229.7,432.112 1233.95,395.212 1238.36,358.43 1242.78,323.427 1247.19,290.356 
  1251.61,259.366 1256.02,230.594 1260.44,204.168 1264.86,180.205 1269.27,158.813 1273.69,140.086 1278.1,124.108 1282.52,110.949 1286.93,100.669 1291.35,93.3122 
  1295.77,88.912 1297.97,87.8273 1300.18,87.488 1302.39,87.8945 1304.6,89.0464 1308.31,92.6655 1312.03,98.382 1315.75,106.178 1319.47,116.028 1323.18,127.902 
  1326.9,141.763 1330.62,157.566 1334.33,175.261 1338.05,194.794 1341.77,216.102 1345.48,239.119 1349.2,263.771 1352.92,289.981 1356.64,317.667 1360.35,346.741 
  1364.07,377.112 1368.61,415.81 1373.15,456.115 1377.68,497.84 1382.22,540.787 1391.3,629.538 1400.37,720.704 1409.45,812.573 1418.53,903.423 1423.06,947.93 
  1427.6,991.547 1432.14,1034.07 1436.68,1075.29 1440.84,1111.76 1444.99,1146.82 1449.15,1180.36 1453.31,1212.23 1457.46,1242.32 1461.62,1270.49 1465.78,1296.65 
  1469.94,1320.69 1474.09,1342.5 1478.25,1362.02 1482.41,1379.15 1486.56,1393.84 1490.72,1406.02 1494.88,1415.65 1499.04,1422.69 1503.19,1427.1 1507.03,1428.84 
  1510.87,1428.33 1514.71,1425.56 1518.55,1420.54 1522.39,1413.3 1526.23,1403.86 1530.07,1392.25 1533.91,1378.5 1537.75,1362.67 1541.59,1344.81 1545.43,1324.97 
  1549.27,1303.23 1553.11,1279.66 1556.95,1254.33 1560.79,1227.34 1564.62,1198.77 1568.51,1168.31 1572.4,1136.45 1576.29,1103.27 1580.18,1068.91 1584.07,1033.48 
  1587.96,997.092 1591.85,959.884 1595.74,921.98 1611.3,766.047 1626.85,609.684 1631.21,566.975 1635.57,525.095 1639.93,484.225 1644.29,444.542 1648.65,406.218 
  1653.01,369.419 1657.36,334.305 1661.72,301.028 1666.08,269.731 1670.44,240.551 1674.8,213.614 1679.16,189.037 1683.52,166.925 1687.88,147.376 1692.23,130.473 
  1696.59,116.29 1700.54,105.839 1704.49,97.7089 1708.44,91.9289 1712.39,88.5196 1716.34,87.493 1720.29,88.853 1724.24,92.5945 1728.19,98.7043 1732.14,107.161 
  1736.09,117.934 1740.04,130.985 1743.99,146.267 1747.94,163.727 1751.89,183.303 1755.84,204.923 1759.79,228.513 1764.31,257.83 1768.83,289.481 1773.36,323.317 
  1777.88,359.183 1782.4,396.908 1786.92,436.319 1791.44,477.232 1795.97,519.454 1805.01,607.037 1814.06,697.438 1823.1,788.97 1832.14,879.929 1836.33,921.373 
  1840.52,962.164 1844.71,1002.14 1848.89,1041.14 1853.08,1079.01 1857.27,1115.59 1861.45,1150.75 1865.64,1184.34 1869.83,1216.22 1874.02,1246.28 1878.2,1274.38 
  1882.39,1300.41 1886.58,1324.28 1890.76,1345.89 1894.95,1365.14 1899.14,1381.97 1903.27,1396.12 1907.39,1407.79 1911.52,1416.94 1915.65,1423.52 1919.78,1427.52 
  1923.91,1428.92 1928.03,1427.72 1932.16,1423.91 1936.29,1417.51 1940.42,1408.55 1944.55,1397.06 1948.67,1383.09 1952.8,1366.69 1956.93,1347.93 1961.06,1326.88 
  1965.19,1303.61 1969.19,1278.99 1973.2,1252.47 1977.21,1224.13 1981.22,1194.09 1985.23,1162.45 1989.23,1129.33 1993.24,1094.84 1997.25,1059.13 2005.27,984.529 
  2013.28,906.613 2021.3,826.525 2029.31,745.437 2037.53,662.515 2045.75,581.065 2049.86,541.286 2053.97,502.341 2058.08,464.382 2062.18,427.554 2066.29,391.999 
  2070.4,357.854 2074.51,325.25 2078.62,294.313 2082.73,265.163 2086.84,237.91 2090.94,212.661 2095.05,189.512 2097.3,177.754 2099.56,166.667 2101.81,156.263 
  2104.06,146.555 2108.56,129.269 2113.06,114.89 2117.56,103.484 2122.06,95.1041 2126.56,89.7883 2131.07,87.5613 2135.57,88.4336 2140.07,92.4011 2144.57,99.4455 
  2149.07,109.534 2153.57,122.621 2158.08,138.644 2162.58,157.531 2167.08,179.194 2170.35,196.612 2173.62,215.399 2176.89,235.51 2180.16,256.896 2183.43,279.504 
  2186.7,303.279 2189.97,328.164 2193.24,354.097 2196.5,381.016 2199.77,408.854 2203.04,437.545 2206.31,467.017 2212.85,528.018 2219.39,591.263 2232.47,722.002 
  2245.55,854.149 2252.09,919.142 2258.63,982.565 2265.17,1043.8 2271.71,1102.25 2274.39,1125.3 2277.07,1147.74 2279.76,1169.54 2282.44,1190.67 2285.12,1211.08 
  2287.8,1230.76 2290.49,1249.65 2293.17,1267.74 
  "/>
<polyline clip-path="url(#clip432)" style="stroke:#e26f46; stroke-linecap:round; stroke-linejoin:round; stroke-width:12; stroke-opacity:1; fill:none" points="
  306.993,1267.74 308.61,1233.37 310.226,1196.29 311.842,1156.7 313.459,1114.85 315.075,1070.96 316.692,1025.28 318.308,978.081 319.924,929.628 323.661,814.352 
  327.397,697.369 329.265,639.35 331.134,582.236 333.002,526.463 334.87,472.456 336.738,420.627 338.607,371.369 340.475,325.06 342.343,282.051 343.277,261.887 
  344.211,242.67 345.145,224.435 346.08,207.217 347.014,191.049 347.948,175.962 348.882,161.985 349.816,149.145 350.75,137.465 351.684,126.968 352.618,117.674 
  353.552,109.601 354.487,102.764 355.421,97.1763 356.355,92.8484 357.289,89.7885 358.223,88.0025 359.157,87.4939 360.091,88.2635 361.025,90.31 361.96,93.6293 
  362.894,98.2152 363.828,104.059 364.762,111.15 365.696,119.473 366.63,129.014 367.564,139.754 368.498,151.673 369.432,164.748 370.367,178.954 371.301,194.264 
  372.235,210.648 373.169,228.076 374.103,246.515 375.037,265.929 375.971,286.281 377.839,329.642 379.708,376.27 381.576,425.807 383.444,477.877 385.312,532.084 
  387.181,588.013 390.917,703.326 394.654,820.309 396.522,878.313 398.39,935.402 400.258,991.141 402.126,1045.1 403.995,1096.88 405.863,1146.08 407.731,1192.32 
  409.599,1235.26 410.533,1255.38 411.468,1274.55 412.402,1292.75 413.336,1309.92 414.27,1326.04 415.204,1341.08 416.138,1355.01 417.072,1367.8 418.006,1379.43 
  418.941,1389.87 419.875,1399.11 420.809,1407.13 421.743,1413.92 422.677,1419.45 423.611,1423.72 424.545,1426.73 425.479,1428.46 426.413,1428.91 427.348,1428.09 
  428.282,1425.98 429.216,1422.61 430.15,1417.97 431.084,1412.07 432.018,1404.93 432.952,1396.55 433.886,1386.96 434.82,1376.16 435.755,1364.2 436.689,1351.07 
  437.623,1336.82 438.557,1321.46 439.491,1305.03 440.614,1283.9 441.736,1261.33 442.859,1237.38 443.982,1212.1 445.105,1185.58 446.227,1157.87 447.35,1129.07 
  448.473,1099.25 450.718,1036.87 452.964,971.424 455.209,903.633 457.455,834.241 461.946,693.721 466.437,556.031 467.559,522.766 468.682,490.148 469.805,458.269 
  470.927,427.216 472.05,397.073 473.173,367.925 474.296,339.852 475.418,312.93 476.541,287.234 477.664,262.835 478.787,239.799 479.909,218.19 481.032,198.069 
  482.155,179.489 483.277,162.502 484.4,147.156 485.523,133.491 486.646,121.547 487.768,111.355 488.891,102.944 490.014,96.337 491.137,91.5521 492.259,88.6025 
  493.382,87.4963 494.505,88.2366 495.627,90.8213 496.75,95.2433 497.873,101.49 498.996,109.546 500.118,119.386 501.241,130.986 502.364,144.312 503.487,159.329 
  504.609,175.994 505.732,194.262 506.855,214.082 507.977,235.401 509.1,258.158 510.223,282.293 511.346,307.737 513.244,353.546 515.143,402.54 517.041,454.332 
  518.94,508.515 522.737,622.333 526.534,740.419 530.331,859.065 534.128,974.542 536.026,1029.95 537.925,1083.22 539.823,1133.94 541.722,1181.69 542.671,1204.35 
  543.62,1226.12 544.569,1246.97 545.519,1266.86 546.468,1285.75 547.417,1303.6 548.366,1320.38 549.316,1336.05 550.265,1350.59 551.214,1363.96 552.163,1376.13 
  553.113,1387.09 554.062,1396.82 555.011,1405.28 555.96,1412.47 556.91,1418.38 557.859,1422.98 558.808,1426.28 559.757,1428.26 560.707,1428.92 561.656,1428.27 
  562.605,1426.29 563.554,1423 564.504,1418.4 565.453,1412.5 566.402,1405.32 567.352,1396.86 568.301,1387.14 569.25,1376.19 570.199,1364.02 571.149,1350.65 
  572.098,1336.13 573.129,1319.05 574.16,1300.68 575.191,1281.05 576.222,1260.2 577.254,1238.19 578.285,1215.06 579.316,1190.87 580.347,1165.68 582.409,1112.52 
  584.472,1056.06 586.534,996.845 588.596,935.41 592.721,808.192 596.845,679.121 598.908,615.388 600.97,552.981 603.032,492.478 605.095,434.443 606.126,406.52 
  607.157,379.414 608.188,353.188 609.219,327.902 610.25,303.615 611.282,280.384 612.313,258.263 613.344,237.302 614.375,217.552 615.406,199.056 616.437,181.86 
  617.469,166.002 618.5,151.519 619.531,138.445 620.562,126.811 621.593,116.642 622.624,107.964 623.655,100.796 624.687,95.154 625.718,91.0522 626.749,88.4997 
  627.78,87.5025 628.811,88.0629 629.842,90.1796 630.874,93.8477 631.905,99.0586 632.936,105.8 633.967,114.057 634.998,123.81 636.029,135.036 637.06,147.709 
  638.092,161.8 639.042,176.018 639.993,191.385 640.944,207.872 641.894,225.444 642.845,244.069 643.795,263.708 644.746,284.323 645.697,305.873 647.598,351.608 
  649.499,400.552 651.4,452.318 653.302,506.498 655.203,562.665 657.104,620.374 659.006,679.172 660.907,738.593 664.709,857.429 668.512,973.139 670.413,1028.68 
  672.314,1082.08 674.216,1132.92 676.117,1180.81 677.068,1203.53 678.018,1225.37 678.969,1246.28 679.919,1266.24 680.87,1285.19 681.821,1303.09 682.771,1319.93 
  683.722,1335.65 684.673,1350.24 685.623,1363.66 686.574,1375.88 687.525,1386.88 688.475,1396.64 689.426,1405.14 690.376,1412.37 691.327,1418.3 692.278,1422.93 
  693.228,1426.25 694.179,1428.25 695.13,1428.92 696.08,1428.28 697.031,1426.31 697.981,1423.02 698.932,1418.42 699.951,1412.04 700.97,1404.18 701.99,1394.85 
  703.009,1384.08 704.028,1371.88 705.047,1358.3 706.066,1343.35 707.086,1327.08 708.105,1309.52 709.124,1290.7 710.143,1270.68 711.162,1249.49 712.181,1227.19 
  713.201,1203.83 714.22,1179.45 715.239,1154.12 717.277,1100.82 719.316,1044.42 721.354,985.418 723.392,924.357 727.469,798.282 731.546,670.756 733.584,607.894 
  735.623,546.395 737.661,486.817 739.699,429.701 740.718,402.229 741.738,375.564 742.757,349.767 743.776,324.898 744.795,301.011 745.814,278.161 746.834,256.401 
  747.853,235.778 748.872,216.342 749.891,198.134 750.91,181.197 751.929,165.569 752.949,151.286 753.968,138.38 754.987,126.879 756.006,116.811 757.025,108.199 
  758.044,101.06 759.064,95.4132 760.083,91.2696 761.102,88.6391 762.121,87.5277 763.14,87.9378 764.16,89.8685 765.34,94.001 766.521,100.156 767.702,108.315 
  768.883,118.453 770.064,130.539 771.244,144.537 772.425,160.403 773.606,178.09 774.787,197.544 775.968,218.704 777.149,241.508 778.329,265.885 779.51,291.761 
  780.691,319.057 781.872,347.691 783.053,377.575 785.414,440.726 787.776,507.741 790.138,577.804 792.499,650.064 797.222,797.635 801.946,943.293 803.127,978.573 
  804.307,1013.18 805.488,1047.01 806.669,1079.97 807.85,1111.94 809.031,1142.84 810.211,1172.56 811.392,1201.02 812.573,1228.14 813.754,1253.82 814.935,1278 
  816.116,1300.59 817.296,1321.53 818.477,1340.75 819.658,1358.2 820.839,1373.82 822.02,1387.57 823.2,1399.4 824.381,1409.28 825.562,1417.18 826.743,1423.07 
  827.924,1426.94 829.105,1428.76 830.285,1428.55 831.466,1426.3 832.647,1422.01 833.828,1415.7 835.009,1407.39 836.189,1397.1 837.37,1384.86 838.551,1370.72 
  839.732,1354.71 840.781,1338.96 841.831,1321.81 842.88,1303.3 843.929,1283.49 844.979,1262.41 846.028,1240.12 847.078,1216.67 848.127,1192.11 850.226,1139.94 
  852.324,1084.09 854.423,1025.11 856.522,963.568 860.719,835.164 864.917,703.808 867.016,638.598 869.114,574.539 871.213,512.245 873.312,452.316 874.361,423.42 
  875.411,395.328 876.46,368.11 877.509,341.829 878.559,316.55 879.608,292.334 880.657,269.237 881.707,247.317 882.756,226.626 883.806,207.213 884.855,189.125 
  885.904,172.405 886.954,157.095 888.003,143.231 889.052,130.845 890.102,119.969 891.151,110.627 892.201,102.843 893.25,96.6348 894.299,92.018 895.349,89.0035 
  896.398,87.5984 897.447,87.8062 898.497,89.6263 899.546,93.0545 900.596,98.0824 901.645,104.698 902.694,112.885 903.744,122.625 904.793,133.892 905.842,146.662 
  906.892,160.902 907.812,174.573 908.732,189.324 909.652,205.126 910.573,221.951 911.493,239.769 912.413,258.545 913.333,278.245 914.253,298.833 916.094,342.518 
  917.934,389.277 919.775,438.764 921.615,490.614 923.455,544.442 925.296,599.85 927.136,656.43 928.977,713.763 932.658,828.987 936.338,942.121 938.179,996.856 
  940.019,1049.83 941.86,1100.64 943.7,1148.92 945.54,1194.31 947.381,1236.48 948.301,1256.26 949.221,1275.11 950.141,1293.01 951.062,1309.92 951.982,1325.81 
  952.902,1340.65 953.822,1354.41 954.742,1367.07 955.663,1378.6 956.583,1388.99 957.503,1398.21 958.423,1406.24 959.343,1413.08 960.264,1418.71 961.184,1423.11 
  962.104,1426.28 963.024,1428.22 963.944,1428.92 964.865,1428.38 965.785,1426.6 966.788,1423.25 967.791,1418.44 968.795,1412.18 969.798,1404.48 970.801,1395.35 
  971.805,1384.83 972.808,1372.93 973.811,1359.68 974.814,1345.11 975.818,1329.24 976.821,1312.12 977.824,1293.79 978.827,1274.27 979.831,1253.62 980.834,1231.88 
  981.837,1209.1 982.84,1185.33 983.844,1160.62 984.847,1135.03 985.85,1108.61 987.857,1053.51 989.863,995.816 993.876,874.691 997.89,749.48 999.896,686.713 
  1001.9,624.575 1003.91,563.611 1005.92,504.358 1007.92,447.335 1009.93,393.045 1010.93,367.075 1011.94,341.964 1012.94,317.769 1013.94,294.542 1014.95,272.334 
  1015.95,251.194 1016.95,231.169 1017.95,212.303 1018.96,194.637 1019.96,178.209 1020.96,163.057 1021.97,149.213 1022.97,136.709 1023.97,125.57 1024.98,115.822 
  1025.98,107.487 1026.98,100.582 1027.99,95.1224 1028.99,91.1209 1029.99,88.586 1031,87.5213 1032.01,87.9486 1033.02,89.867 1034.03,93.2722 1035.04,98.1566 
  1036.05,104.509 1037.06,112.317 1038.07,121.56 1039.08,132.221 1040.09,144.274 1041.1,157.692 1042.1,172.447 1043.11,188.504 1044.12,205.829 1045.13,224.383 
  1046.14,244.125 1047.15,265.01 1048.16,286.992 1049.17,310.023 1050.18,334.05 1052.2,384.881 1054.22,439.031 1056.23,496.021 1058.25,555.342 1060.27,616.467 
  1062.29,678.853 1066.33,805.181 1070.36,929.841 1072.38,990.157 1074.4,1048.41 1076.42,1104.08 1078.44,1156.68 1079.45,1181.67 1080.46,1205.73 1081.47,1228.79 
  1082.47,1250.8 1083.48,1271.72 1084.49,1291.49 1085.5,1310.08 1086.51,1327.44 1087.52,1343.53 1088.53,1358.32 1089.54,1371.78 1090.55,1383.87 1091.56,1394.57 
  1092.57,1403.86 1093.58,1411.7 1094.59,1418.1 1095.7,1423.46 1096.82,1427.01 1097.93,1428.74 1099.05,1428.65 1100.16,1426.73 1101.28,1423 1102.4,1417.46 
  1103.51,1410.13 1104.63,1401.02 1105.74,1390.17 1106.86,1377.6 1107.98,1363.34 1109.09,1347.44 1110.21,1329.94 1111.32,1310.88 1112.44,1290.31 1113.55,1268.31 
  1114.67,1244.91 1115.79,1220.19 1116.9,1194.21 1118.02,1167.05 1119.13,1138.78 1120.25,1109.47 1121.37,1079.21 1123.6,1016.15 1125.83,950.283 1128.06,882.33 
  1130.29,813.029 1134.76,673.397 1139.22,537.444 1140.33,504.728 1141.45,472.701 1142.57,441.451 1143.68,411.063 1144.8,381.618 1145.91,353.197 1147.03,325.878 
  1148.15,299.734 1149.26,274.837 1150.38,251.254 1151.49,229.05 1152.61,208.285 1153.72,189.016 1154.84,171.294 1155.96,155.168 1157.07,140.682 1158.19,127.875 
  1159.3,116.783 1160.42,107.434 1161.54,99.8556 1162.65,94.0671 1163.77,90.0846 1164.88,87.9189 1166,87.576 1167.06,88.9428 1168.12,91.9573 1169.18,96.612 
  1170.25,102.895 1171.31,110.792 1172.37,120.283 1173.43,131.344 1174.49,143.948 1175.55,158.064 1176.62,173.658 1177.68,190.692 1178.74,209.122 1179.8,228.904 
  1180.86,249.989 1181.92,272.325 1182.99,295.857 1184.05,320.528 1185.11,346.276 1186.17,373.038 1187.23,400.749 1188.29,429.339 1189.36,458.739 1190.42,488.877 
  1191.48,519.677 1193.6,582.962 1195.73,647.972 1197.85,714.067 1199.97,780.596 1202.1,846.905 1204.22,912.341 1206.34,976.26 1208.47,1038.03 1209.53,1067.92 
  1210.59,1097.05 1211.65,1125.35 1212.71,1152.74 1213.77,1179.15 1214.84,1204.54 1215.9,1228.82 1216.96,1251.95 1218.02,1273.86 1219.08,1294.5 1220.14,1313.82 
  1221.21,1331.77 1222.27,1348.31 1223.33,1363.4 1224.39,1376.99 1225.45,1389.07 1226.51,1399.59 1227.58,1408.53 1228.64,1415.87 1229.7,1421.59 1230.76,1425.68 
  1231.82,1428.13 1232.89,1428.92 1233.95,1428.07 1235.05,1425.43 1236.15,1421.02 1237.26,1414.84 1238.36,1406.92 1239.47,1397.26 1240.57,1385.91 1241.67,1372.89 
  1242.78,1358.23 1243.88,1341.97 1244.99,1324.16 1246.09,1304.85 1247.19,1284.07 1248.3,1261.9 1249.4,1238.39 1250.51,1213.6 1251.61,1187.6 1252.71,1160.46 
  1253.82,1132.24 1254.92,1103.03 1256.02,1072.9 1258.23,1010.22 1260.44,944.849 1264.86,808.873 1269.27,670.746 1271.48,602.712 1273.69,536.332 1275.9,472.312 
  1278.1,411.334 1279.21,382.19 1280.31,354.046 1281.41,326.979 1282.52,301.059 1283.62,276.355 1284.73,252.934 1285.83,230.858 1286.93,210.186 1288.04,190.972 
  1289.14,173.268 1290.25,157.12 1291.35,142.573 1292.45,129.664 1293.56,118.427 1294.66,108.894 1295.77,101.089 1296.87,95.0322 1297.97,90.7409 1299.08,88.2261 
  1300.18,87.4945 1301.29,88.5479 1302.39,91.3837 1303.49,95.9942 1304.6,102.367 1305.53,109.086 1306.46,117.029 1307.38,126.181 1308.31,136.526 1309.24,148.042 
  1310.17,160.71 1311.1,174.505 1312.03,189.4 1312.96,205.369 1313.89,222.38 1314.82,240.402 1315.75,259.4 1316.68,279.339 1317.61,300.181 1318.54,321.888 
  1319.47,344.417 1321.32,391.772 1323.18,441.891 1325.04,494.395 1326.9,548.889 1330.62,662.188 1334.33,778.378 1338.05,893.961 1341.77,1005.46 1343.63,1058.61 
  1345.48,1109.51 1347.34,1157.75 1349.2,1202.98 1350.13,1224.36 1351.06,1244.86 1351.99,1264.44 1352.92,1283.07 1353.85,1300.7 1354.78,1317.32 1355.71,1332.88 
  1356.64,1347.35 1357.56,1360.72 1358.49,1372.94 1359.42,1384.01 1360.35,1393.9 1361.28,1402.59 1362.21,1410.06 1363.14,1416.3 1364.07,1421.31 1365.2,1425.72 
  1366.34,1428.25 1367.47,1428.9 1368.61,1427.67 1369.74,1424.55 1370.88,1419.56 1372.01,1412.71 1373.15,1404.03 1374.28,1393.52 1375.41,1381.23 1376.55,1367.19 
  1377.68,1351.44 1378.82,1334.02 1379.95,1314.98 1381.09,1294.37 1382.22,1272.26 1383.36,1248.7 1384.49,1223.77 1385.63,1197.52 1386.76,1170.04 1387.89,1141.41 
  1389.03,1111.69 1390.16,1080.98 1391.3,1049.37 1393.57,983.771 1395.84,915.641 1398.11,845.742 1400.37,774.86 1402.64,703.79 1404.91,633.332 1407.18,564.276 
  1409.45,497.4 1410.58,465.016 1411.72,433.455 1412.85,402.807 1413.99,373.158 1415.12,344.592 1416.26,317.189 1417.39,291.025 1418.53,266.174 1419.66,242.707 
  1420.8,220.689 1421.93,200.182 1423.06,181.243 1424.2,163.927 1425.33,148.281 1426.47,134.349 1427.6,122.172 1428.74,111.782 1429.87,103.209 1431.01,96.4781 
  1432.14,91.6071 1433.28,88.6099 1434.41,87.4951 1435.54,88.2657 1436.68,90.9196 1437.72,94.9972 1438.76,100.639 1439.8,107.833 1440.84,116.561 1441.88,126.802 
  1442.91,138.533 1443.95,151.726 1444.99,166.35 1446.03,182.37 1447.07,199.748 1448.11,218.444 1449.15,238.413 1450.19,259.609 1451.23,281.98 1452.27,305.476 
  1453.31,330.039 1454.35,355.612 1455.39,382.135 1456.43,409.545 1457.46,437.778 1459.54,496.443 1461.62,557.577 1465.78,684.926 1469.94,815.032 1472.01,879.589 
  1474.09,943.001 1476.17,1004.67 1478.25,1064.01 1479.29,1092.64 1480.33,1120.47 1481.37,1147.46 1482.41,1173.52 1483.45,1198.6 1484.49,1222.65 1485.53,1245.59 
  1486.56,1267.39 1487.6,1287.99 1488.64,1307.34 1489.68,1325.39 1490.72,1342.11 1491.76,1357.44 1492.8,1371.36 1493.84,1383.84 1494.88,1394.84 1495.92,1404.34 
  1496.96,1412.32 1498,1418.75 1499.04,1423.62 1500.08,1426.92 1501.11,1428.65 1502.15,1428.79 1503.19,1427.35 1504.15,1424.62 1505.11,1420.55 1506.07,1415.15 
  1507.03,1408.42 1507.99,1400.39 1508.95,1391.06 1509.91,1380.46 1510.87,1368.61 1511.83,1355.52 1512.79,1341.24 1513.75,1325.78 1514.71,1309.19 1515.67,1291.48 
  1516.63,1272.7 1517.59,1252.88 1518.55,1232.07 1519.51,1210.31 1520.47,1187.63 1521.43,1164.09 1522.39,1139.74 1524.31,1088.77 1526.23,1035.15 1528.15,979.296 
  1530.07,921.665 1531.99,862.72 1533.91,802.933 1537.75,682.764 1541.59,565.018 1543.51,508.242 1545.43,453.477 1547.35,401.163 1549.27,351.722 1550.23,328.204 
  1551.19,305.552 1552.15,283.81 1553.11,263.023 1554.07,243.232 1555.03,224.478 1555.99,206.798 1556.95,190.227 1557.91,174.8 1558.87,160.546 1559.83,147.495 
  1560.79,135.673 1561.75,125.104 1562.71,115.809 1563.66,107.806 1564.62,101.113 1565.6,95.6807 1566.57,91.6166 1567.54,88.9289 1568.51,87.6231 1569.49,87.7021 
  1570.46,89.1656 1571.43,92.0105 1572.4,96.2311 1573.38,101.819 1574.35,108.761 1575.32,117.045 1576.29,126.653 1577.26,137.565 1578.24,149.758 1579.21,163.208 
  1580.18,177.887 1581.15,193.763 1582.13,210.806 1583.1,228.978 1584.07,248.244 1585.04,268.562 1586.02,289.891 1586.99,312.188 1587.96,335.405 1589.9,384.409 
  1591.85,436.499 1593.79,491.245 1595.74,548.195 1599.63,666.811 1603.52,788.438 1605.46,849.129 1607.41,909.069 1609.35,967.764 1611.3,1024.73 1613.24,1079.49 
  1615.19,1131.61 1616.16,1156.53 1617.13,1180.64 1618.1,1203.87 1619.07,1226.18 1620.05,1247.52 1621.02,1267.86 1621.99,1287.14 1622.96,1305.33 1623.94,1322.39 
  1624.91,1338.29 1625.88,1352.98 1626.85,1366.45 1627.94,1380.05 1629.03,1392.04 1630.12,1402.39 1631.21,1411.06 1632.3,1418.04 1633.39,1423.31 1634.48,1426.86 
  1635.57,1428.67 1636.66,1428.74 1637.75,1427.08 1638.84,1423.67 1639.93,1418.55 1641.02,1411.71 1642.11,1403.17 1643.2,1392.96 1644.29,1381.11 1645.38,1367.64 
  1646.47,1352.59 1647.56,1336 1648.65,1317.91 1649.74,1298.37 1650.83,1277.43 1651.92,1255.14 1653.01,1231.57 1654.1,1206.76 1655.18,1180.79 1656.27,1153.73 
  1657.36,1125.64 1658.45,1096.6 1659.54,1066.68 1660.63,1035.96 1661.72,1004.52 1663.9,939.801 1666.08,873.205 1668.26,805.416 1670.44,737.138 1672.62,669.078 
  1674.8,601.942 1676.98,536.426 1679.16,473.209 1680.25,442.669 1681.34,412.947 1682.43,384.121 1683.52,356.264 1684.61,329.45 1685.7,303.748 1686.79,279.225 
  1687.88,255.943 1688.97,233.965 1690.06,213.346 1691.14,194.14 1692.23,176.396 1693.32,160.162 1694.41,145.479 1695.5,132.384 1696.59,120.913 1697.58,111.945 
  1698.57,104.353 1699.56,98.1536 1700.54,93.3599 1701.53,89.9819 1702.52,88.0271 1703.51,87.4994 1704.49,88.4001 1705.48,90.7272 1706.47,94.4758 1707.45,99.6378 
  1708.44,106.202 1709.43,114.155 1710.42,123.48 1711.4,134.156 1712.39,146.162 1713.38,159.47 1714.37,174.054 1715.35,189.882 1716.34,206.92 1717.33,225.132 
  1718.32,244.48 1719.3,264.921 1720.29,286.413 1721.28,308.91 1722.27,332.363 1723.25,356.724 1724.24,381.939 1725.23,407.956 1726.22,434.718 1727.2,462.17 
  1728.19,490.251 1730.17,548.066 1732.14,607.67 1734.12,668.555 1736.09,730.204 1740.04,853.69 1743.99,973.931 1745.96,1031.55 1747.94,1086.84 1749.91,1139.33 
  1751.89,1188.58 1752.88,1211.86 1753.86,1234.17 1754.85,1255.46 1755.84,1275.7 1756.83,1294.83 1757.81,1312.82 1758.8,1329.64 1759.79,1345.23 1760.92,1361.55 
  1762.05,1376.18 1763.18,1389.09 1764.31,1400.23 1765.44,1409.59 1766.57,1417.12 1767.7,1422.82 1768.83,1426.66 1769.96,1428.64 1771.09,1428.74 1772.23,1426.97 
  1773.36,1423.34 1774.49,1417.85 1775.62,1410.51 1776.75,1401.36 1777.88,1390.41 1779.01,1377.7 1780.14,1363.25 1781.27,1347.12 1782.4,1329.34 1783.53,1309.97 
  1784.66,1289.06 1785.79,1266.67 1786.92,1242.86 1788.05,1217.69 1789.18,1191.25 1790.31,1163.59 1791.44,1134.8 1792.57,1104.96 1793.71,1074.16 1794.84,1042.47 
  1795.97,1009.99 1798.23,943.004 1800.49,873.961 1802.75,803.626 1805.01,732.785 1807.27,662.227 1809.53,592.74 1811.79,525.1 1814.06,460.06 1815.19,428.744 
  1816.32,398.348 1817.45,368.955 1818.58,340.65 1819.71,313.51 1820.84,287.612 1821.97,263.027 1823.1,239.824 1824.23,218.069 1825.36,197.821 1826.49,179.138 
  1827.62,162.071 1828.75,146.668 1829.88,132.972 1831.01,121.022 1832.14,110.85 1833.19,103.042 1834.24,96.8029 1835.28,92.1463 1836.33,89.0837 1837.38,87.6225 
  1838.42,87.7662 1839.47,89.5143 1840.52,92.8629 1841.57,97.8037 1842.61,104.325 1843.66,112.411 1844.71,122.043 1845.75,133.197 1846.8,145.848 1847.85,159.963 
  1848.89,175.51 1849.94,192.452 1850.99,210.748 1852.03,230.354 1853.08,251.224 1854.13,273.306 1855.17,296.549 1856.22,320.898 1857.27,346.292 1858.31,372.673 
  1859.36,399.976 1860.41,428.136 1861.45,457.086 1863.55,517.078 1865.64,579.377 1869.83,708.494 1874.02,839.509 1876.11,904.163 1878.2,967.421 1880.3,1028.68 
  1882.39,1087.35 1883.44,1115.53 1884.48,1142.86 1885.53,1169.28 1886.58,1194.7 1887.62,1219.09 1888.67,1242.37 1889.72,1264.49 1890.76,1285.4 1891.81,1305.05 
  1892.86,1323.38 1893.9,1340.37 1894.95,1355.96 1896,1370.13 1897.04,1382.83 1898.09,1394.03 1899.14,1403.71 1900.17,1411.74 1901.2,1418.26 1902.23,1423.23 
  1903.27,1426.66 1904.3,1428.54 1905.33,1428.86 1906.36,1427.61 1907.39,1424.81 1908.43,1420.46 1909.46,1414.57 1910.49,1407.15 1911.52,1398.22 1912.55,1387.8 
  1913.59,1375.92 1914.62,1362.6 1915.65,1347.88 1916.68,1331.78 1917.71,1314.35 1918.75,1295.62 1919.78,1275.65 1920.81,1254.47 1921.84,1232.14 1922.87,1208.7 
  1923.91,1184.22 1924.94,1158.75 1925.97,1132.34 1927,1105.07 1928.03,1076.98 1930.1,1018.66 1932.16,957.916 1936.29,831.437 1940.42,702.24 1942.48,638.121 
  1944.55,575.12 1946.61,513.821 1948.67,454.794 1949.71,426.306 1950.74,398.589 1951.77,371.709 1952.8,345.728 1953.83,320.707 1954.87,296.703 1955.9,273.773 
  1956.93,251.97 1957.96,231.344 1958.99,211.944 1960.03,193.814 1961.06,176.998 1962.09,161.533 1963.12,147.456 1964.15,134.8 1965.19,123.595 1966.19,114.127 
  1967.19,106.072 1968.19,99.4463 1969.19,94.2655 1970.2,90.5407 1971.2,88.28 1972.2,87.4883 1973.2,88.1674 1974.2,90.3158 1975.21,93.9288 1976.21,98.9984 
  1977.21,105.514 1978.21,113.46 1979.21,122.82 1980.22,133.574 1981.22,145.697 1982.22,159.164 1983.22,173.944 1984.22,190.005 1985.23,207.312 1986.23,225.827 
  1987.23,245.51 1988.23,266.317 1989.23,288.203 1990.24,311.119 1991.24,335.015 1992.24,359.84 1993.24,385.538 1994.24,412.054 1995.25,439.328 1996.25,467.302 
  1997.25,495.913 1999.25,554.798 2001.26,615.466 2003.26,677.385 2005.27,740.013 2009.27,865.197 2013.28,986.637 2015.29,1044.62 2017.29,1100.08 2018.29,1126.72 
  2019.29,1152.56 2020.3,1177.52 2021.3,1201.57 2022.3,1224.64 2023.3,1246.7 2024.3,1267.68 2025.31,1287.54 2026.31,1306.24 2027.31,1323.75 2028.31,1340.01 
  2029.31,1354.99 2030.34,1369 2031.37,1381.59 2032.4,1392.75 2033.42,1402.45 2034.45,1410.66 2035.48,1417.37 2036.5,1422.56 2037.53,1426.22 2038.56,1428.34 
  2039.59,1428.91 2040.61,1427.94 2041.64,1425.43 2042.67,1421.38 2043.69,1415.8 2044.72,1408.7 2045.75,1400.11 2046.78,1390.04 2047.8,1378.51 2048.83,1365.55 
  2049.86,1351.19 2050.89,1335.47 2051.91,1318.41 2052.94,1300.06 2053.97,1280.47 2054.99,1259.67 2056.02,1237.72 2057.05,1214.66 2058.08,1190.55 2059.1,1165.44 
  2060.13,1139.4 2061.16,1112.47 2062.18,1084.74 2064.24,1027.06 2066.29,966.915 2068.35,904.844 2070.4,841.422 2074.51,712.87 2078.62,585.984 2080.67,524.631 
  2082.73,465.43 2084.78,408.926 2086.84,355.64 2087.86,330.358 2088.89,306.062 2089.92,282.808 2090.94,260.65 2091.97,239.638 2093,219.821 2094.03,201.245 
  2095.05,183.952 2096.18,166.526 2097.3,150.737 2098.43,136.629 2099.56,124.239 2100.68,113.603 2101.81,104.751 2102.93,97.7053 2104.06,92.487 2105.18,89.11 
  2106.31,87.5839 2107.43,87.9127 2108.56,90.0956 2109.68,94.1265 2110.81,99.9943 2111.93,107.683 2113.06,117.171 2114.19,128.432 2115.31,141.435 2116.44,156.144 
  2117.56,172.518 2118.69,190.512 2119.81,210.077 2120.94,231.158 2122.06,253.696 2123.19,277.631 2124.31,302.894 2125.44,329.417 2126.56,357.126 2127.69,385.944 
  2128.82,415.792 2129.94,446.587 2131.07,478.244 2133.32,543.792 2135.57,611.711 2137.82,681.249 2140.07,751.638 2142.32,822.099 2144.57,891.855 2146.82,960.132 
  2149.07,1026.18 2150.2,1058.13 2151.32,1089.26 2152.45,1119.47 2153.57,1148.68 2154.7,1176.81 2155.82,1203.79 2156.95,1229.53 2158.08,1253.96 2159.2,1277.03 
  2160.33,1298.66 2161.45,1318.8 2162.58,1337.38 2163.7,1354.36 2164.83,1369.7 2165.95,1383.34 2167.08,1395.25 2167.9,1402.8 2168.71,1409.41 2169.53,1415.07 
  2170.35,1419.77 2171.17,1423.51 2171.98,1426.27 2172.8,1428.06 2173.62,1428.87 2174.43,1428.7 2175.25,1427.56 2176.07,1425.44 2176.89,1422.34 2177.7,1418.27 
  2178.52,1413.24 2179.34,1407.26 2180.16,1400.33 2180.97,1392.46 2181.79,1383.66 2182.61,1373.95 2183.43,1363.35 2184.24,1351.86 2185.06,1339.5 2185.88,1326.3 
  2186.7,1312.26 2188.33,1281.79 2189.97,1248.27 2191.6,1211.88 2193.24,1172.85 2194.87,1131.39 2196.5,1087.76 2198.14,1042.21 2199.77,994.995 2203.04,896.71 
  2206.31,795.197 2209.58,692.821 2212.85,591.97 2214.49,542.853 2216.12,494.993 2217.76,448.669 2219.39,404.151 2221.03,361.7 2222.66,321.562 2224.3,283.972 
  2225.93,249.15 2227.57,217.298 2229.2,188.603 2230.02,175.492 2230.84,163.231 2231.65,151.839 2232.47,141.332 2233.29,131.725 2234.11,123.032 2234.92,115.267 
  2235.74,108.439 2236.56,102.56 2237.37,97.6382 2238.19,93.68 2239.01,90.6917 2239.83,88.6776 2240.64,87.6405 2241.46,87.5821 2242.28,88.5025 2243.1,90.4001 
  2243.91,93.2724 2244.73,97.1152 2245.55,101.923 2246.37,107.688 2247.18,114.403 2248,122.057 2248.82,130.64 2249.64,140.138 2250.45,150.539 2251.27,161.826 
  2252.09,173.984 2253.72,200.838 2255.36,230.945 2256.99,264.129 2258.63,300.196 2260.26,338.936 2261.9,380.122 2263.53,423.515 2265.17,468.861 2266.8,515.895 
  2268.44,564.343 2270.07,613.923 2271.71,664.345 2274.39,748.147 2277.07,832.107 2279.76,914.907 2282.44,995.246 2283.78,1034.1 2285.12,1071.86 2286.46,1108.39 
  2287.8,1143.55 2289.15,1177.19 2290.49,1209.19 2291.83,1239.41 2293.17,1267.74 
  "/>
<polyline clip-path="url(#clip432)" style="stroke:#3da44d; stroke-linecap:round; stroke-linejoin:round; stroke-width:12; stroke-opacity:1; fill:none" points="
  306.993,1267.74 310.226,1290.31 313.459,1311.36 316.692,1330.83 319.924,1348.67 323.661,1367.18 327.397,1383.37 331.134,1397.18 334.87,1408.54 338.607,1417.43 
  342.343,1423.81 346.08,1427.64 349.816,1428.92 353.552,1427.65 357.289,1423.82 361.025,1417.46 364.762,1408.57 368.498,1397.21 372.235,1383.42 375.971,1367.23 
  379.708,1348.73 383.444,1327.97 387.181,1305.04 390.917,1280.03 394.654,1253.02 398.39,1224.13 402.126,1193.46 405.863,1161.13 409.599,1127.27 413.336,1092 
  417.072,1055.45 420.809,1017.77 424.545,979.101 432.018,899.386 439.491,817.52 448.473,718.039 457.455,619.442 461.946,571.155 466.437,523.898 470.927,477.932 
  475.418,433.51 479.909,390.877 484.4,350.266 488.891,311.903 493.382,275.999 497.873,242.75 502.364,212.341 506.855,184.938 511.346,160.694 515.143,142.758 
  518.94,127.247 522.737,114.22 526.534,103.729 530.331,95.8154 534.128,90.5106 537.925,87.8353 541.722,87.8001 545.519,90.405 549.316,95.6399 553.113,103.484 
  556.91,113.907 560.707,126.867 564.504,142.313 568.301,160.185 572.098,180.412 576.222,204.959 580.347,232.078 584.472,261.641 588.596,293.512 592.721,327.542 
  596.845,363.573 600.97,401.438 605.095,440.961 609.219,481.958 613.344,524.239 617.469,567.607 621.593,611.86 629.842,702.199 638.092,793.577 645.697,877.277 
  653.302,959.098 657.104,998.898 660.907,1037.75 664.709,1075.49 668.512,1111.99 672.314,1147.08 676.117,1180.64 679.919,1212.53 683.722,1242.63 687.525,1270.81 
  691.327,1296.97 695.13,1321 698.932,1342.81 700.97,1353.55 703.009,1363.62 705.047,1373 707.086,1381.69 711.162,1396.92 715.239,1409.26 719.316,1418.64 
  723.392,1425.02 727.469,1428.37 731.546,1428.68 735.623,1425.95 739.699,1420.19 743.776,1411.42 747.853,1399.69 751.929,1385.05 756.006,1367.56 760.083,1347.3 
  764.16,1324.37 768.883,1294.59 773.606,1261.55 775.968,1243.87 778.329,1225.44 780.691,1206.31 783.053,1186.49 787.776,1144.92 792.499,1101 797.222,1054.99 
  801.946,1007.17 811.392,907.286 820.839,803.772 830.285,699.149 839.732,595.963 843.929,551.234 848.127,507.5 852.324,464.974 856.522,423.858 860.719,384.351 
  864.917,346.644 869.114,310.917 873.312,277.343 877.509,246.082 881.707,217.287 885.904,191.094 890.102,167.63 894.299,147.009 898.497,129.329 902.694,114.675 
  906.892,103.118 910.573,95.5769 914.253,90.4878 917.934,87.8699 921.615,87.7328 925.296,90.0771 928.977,94.8941 932.658,102.166 936.338,111.866 940.019,123.958 
  943.7,138.397 947.381,155.13 951.062,174.095 954.742,195.221 958.423,218.432 962.104,243.64 965.785,270.752 969.798,302.364 973.811,335.981 977.824,371.455 
  981.837,408.631 985.85,447.344 989.863,487.425 993.876,528.697 997.89,570.979 1013.94,746.432 1029.99,922.709 1034.03,965.702 1038.07,1007.77 1042.1,1048.73 
  1046.14,1088.39 1050.18,1126.59 1054.22,1163.14 1058.25,1197.9 1062.29,1230.69 1066.33,1261.38 1070.36,1289.84 1074.4,1315.92 1078.44,1339.52 1080.46,1350.36 
  1082.47,1360.54 1084.49,1370.05 1086.51,1378.87 1090.55,1394.45 1094.59,1407.18 1096.82,1412.99 1099.05,1417.9 1101.28,1421.92 1103.51,1425.04 1105.74,1427.24 
  1107.98,1428.54 1110.21,1428.92 1112.44,1428.39 1114.67,1426.95 1116.9,1424.6 1119.13,1421.34 1121.37,1417.19 1123.6,1412.13 1125.83,1406.18 1128.06,1399.35 
  1130.29,1391.65 1134.76,1373.68 1139.22,1352.36 1143.68,1327.8 1148.15,1300.14 1152.61,1269.54 1157.07,1236.15 1161.54,1200.17 1166,1161.78 1170.25,1123.2 
  1174.49,1082.84 1178.74,1040.87 1182.99,997.509 1191.48,907.472 1199.97,814.498 1208.47,720.416 1216.96,627.077 1221.21,581.262 1225.45,536.319 1229.7,492.469 
  1233.95,449.928 1236.15,428.399 1238.36,407.308 1240.57,386.685 1242.78,366.557 1247.19,327.892 1251.61,291.518 1256.02,257.63 1260.44,226.407 1264.86,198.016 
  1269.27,172.609 1273.69,150.32 1278.1,131.268 1280.31,122.989 1282.52,115.555 1284.73,108.978 1286.93,103.265 1289.14,98.4238 1291.35,94.4618 1293.56,91.3836 
  1295.77,89.1936 1297.97,87.8945 1300.18,87.4881 1302.39,87.975 1304.6,89.3545 1308.31,93.6877 1312.03,100.529 1315.75,109.852 1319.47,121.622 1323.18,135.795 
  1326.9,152.317 1330.62,171.125 1334.33,192.149 1338.05,215.31 1341.77,240.519 1345.48,267.682 1349.2,296.697 1352.92,327.453 1356.64,359.835 1360.35,393.72 
  1364.07,428.981 1368.61,473.702 1373.15,520.023 1377.68,567.683 1382.22,616.415 1391.3,715.993 1400.37,816.52 1404.91,866.433 1409.45,915.736 1413.99,964.154 
  1418.53,1011.41 1423.06,1057.25 1427.6,1101.4 1432.14,1143.62 1436.68,1183.68 1440.84,1218.28 1444.99,1250.7 1449.15,1280.81 1453.31,1308.44 1457.46,1333.48 
  1461.62,1355.8 1465.78,1375.3 1469.94,1391.89 1474.09,1405.48 1478.25,1416.03 1482.41,1423.46 1486.56,1427.76 1490.72,1428.89 1494.88,1426.86 1499.04,1421.68 
  1503.19,1413.36 1507.03,1402.93 1510.87,1389.9 1514.71,1374.33 1518.55,1356.28 1522.39,1335.82 1526.23,1313.03 1530.07,1288.01 1533.91,1260.86 1537.75,1231.68 
  1541.59,1200.59 1545.43,1167.73 1549.27,1133.21 1553.11,1097.19 1556.95,1059.8 1560.79,1021.2 1564.62,981.534 1572.4,898.594 1580.18,813.336 1587.96,727.169 
  1595.74,641.513 1599.63,599.321 1603.52,557.785 1607.41,517.077 1611.3,477.365 1615.19,438.814 1619.07,401.582 1622.96,365.824 1626.85,331.687 1631.21,295.53 
  1635.57,261.773 1639.93,230.593 1644.29,202.15 1648.65,176.593 1653.01,154.054 1657.36,134.651 1661.72,118.482 1663.9,111.638 1666.08,105.634 1668.26,100.476 
  1670.44,96.1713 1672.62,92.726 1674.8,90.1443 1676.98,88.4296 1679.16,87.584 1681.34,87.6087 1683.52,88.5037 1685.7,90.2677 1687.88,92.8984 1692.23,100.746 
  1696.59,112.004 1700.54,125.105 1704.49,140.903 1708.44,159.331 1712.39,180.312 1716.34,203.755 1720.29,229.56 1724.24,257.619 1728.19,287.81 1732.14,320.006 
  1736.09,354.07 1740.04,389.855 1743.99,427.21 1747.94,465.976 1751.89,505.986 1755.84,547.072 1759.79,589.057 1768.83,687.618 1777.88,787.753 1786.92,887.229 
  1795.97,983.827 1800.49,1030.37 1805.01,1075.39 1809.53,1118.64 1814.06,1159.88 1818.58,1198.87 1823.1,1235.4 1827.62,1269.27 1832.14,1300.28 1836.33,1326.3 
  1840.52,1349.6 1844.71,1370.07 1848.89,1387.6 1853.08,1402.13 1857.27,1413.57 1861.45,1421.87 1865.64,1426.99 1869.83,1428.91 1874.02,1427.62 1878.2,1423.12 
  1882.39,1415.44 1886.58,1404.61 1890.76,1390.69 1894.95,1373.73 1899.14,1353.83 1903.27,1331.42 1907.39,1306.34 1911.52,1278.71 1915.65,1248.65 1919.78,1216.32 
  1923.91,1181.85 1928.03,1145.41 1932.16,1107.16 1936.29,1067.3 1940.42,1025.99 1944.55,983.437 1948.67,939.837 1956.93,850.305 1965.19,759.062 1973.2,670.44 
  1981.22,583.358 1985.23,540.872 1989.23,499.341 1993.24,458.945 1997.25,419.862 2001.26,382.264 2005.27,346.315 2009.27,312.174 2013.28,279.989 2017.29,249.904 
  2021.3,222.048 2025.31,196.545 2029.31,173.506 2031.37,162.686 2033.42,152.552 2035.48,143.117 2037.53,134.391 2041.64,119.107 2045.75,106.769 2049.86,97.4352 
  2053.97,91.148 2058.08,87.9366 2062.18,87.8159 2066.29,90.7863 2070.4,96.8342 2074.51,105.932 2078.62,118.037 2082.73,133.094 2086.84,151.033 2090.94,171.772 
  2095.05,195.215 2099.56,223.875 2104.06,255.493 2108.56,289.893 2113.06,326.884 2117.56,366.263 2122.06,407.811 2126.56,451.299 2131.07,496.485 2140.07,590.944 
  2149.07,689.101 2158.08,788.786 2167.08,887.794 2173.62,958.035 2180.16,1025.94 2183.43,1058.77 2186.7,1090.72 2189.97,1121.71 2193.24,1151.63 2196.5,1180.4 
  2199.77,1207.93 2203.04,1234.16 2206.31,1258.99 2209.58,1282.36 2212.85,1304.21 2216.12,1324.45 2219.39,1343.04 2222.66,1359.93 2225.93,1375.06 2229.2,1388.38 
  2232.47,1399.87 2235.74,1409.48 2239.01,1417.19 2242.28,1422.98 2245.55,1426.82 2248.82,1428.71 2252.09,1428.65 2255.36,1426.62 2258.63,1422.64 2261.9,1416.73 
  2265.17,1408.89 2268.44,1399.15 2271.71,1387.53 2274.39,1376.63 2277.07,1364.51 2279.76,1351.2 2282.44,1336.72 2285.12,1321.1 2287.8,1304.38 2290.49,1286.58 
  2293.17,1267.74 
  "/>
<circle clip-path="url(#clip432)" cx="505.611" cy="192.217" r="14.4" fill="#000000" fill-rule="evenodd" fill-opacity="1" stroke="none"/>
<circle clip-path="url(#clip432)" cx="704.229" cy="1369.32" r="14.4" fill="#000000" fill-rule="evenodd" fill-opacity="1" stroke="none"/>
<circle clip-path="url(#clip432)" cx="902.846" cy="114.202" r="14.4" fill="#000000" fill-rule="evenodd" fill-opacity="1" stroke="none"/>
<circle clip-path="url(#clip432)" cx="1101.46" cy="1422.21" r="14.4" fill="#000000" fill-rule="evenodd" fill-opacity="1" stroke="none"/>
<circle clip-path="url(#clip432)" cx="1300.08" cy="87.4872" r="14.4" fill="#000000" fill-rule="evenodd" fill-opacity="1" stroke="none"/>
<circle clip-path="url(#clip432)" cx="1498.7" cy="1422.21" r="14.4" fill="#000000" fill-rule="evenodd" fill-opacity="1" stroke="none"/>
<circle clip-path="url(#clip432)" cx="1697.32" cy="114.202" r="14.4" fill="#000000" fill-rule="evenodd" fill-opacity="1" stroke="none"/>
<circle clip-path="url(#clip432)" cx="1895.94" cy="1369.32" r="14.4" fill="#000000" fill-rule="evenodd" fill-opacity="1" stroke="none"/>
<circle clip-path="url(#clip432)" cx="2094.55" cy="192.217" r="14.4" fill="#000000" fill-rule="evenodd" fill-opacity="1" stroke="none"/>
<path clip-path="url(#clip430)" d="
M1967.44 483.442 L2282.58 483.442 L2282.58 94.6416 L1967.44 94.6416  Z
  " fill="#ffffff" fill-rule="evenodd" fill-opacity="1"/>
<polyline clip-path="url(#clip430)" style="stroke:#000000; stroke-linecap:round; stroke-linejoin:round; stroke-width:4; stroke-opacity:1; fill:none" points="
  1967.44,483.442 2282.58,483.442 2282.58,94.6416 1967.44,94.6416 1967.44,483.442 
  "/>
<polyline clip-path="url(#clip430)" style="stroke:#009af9; stroke-linecap:round; stroke-linejoin:round; stroke-width:6; stroke-opacity:1; fill:none" points="
  1990.83,172.402 2131.18,172.402 
  "/>
<path clip-path="url(#clip430)" d="M2175.34 201.933 Q2172.63 208.877 2170.06 210.995 Q2167.49 213.113 2163.19 213.113 L2158.08 213.113 L2158.08 207.766 L2161.83 207.766 Q2164.47 207.766 2165.93 206.516 Q2167.39 205.266 2169.16 200.613 L2170.31 197.697 L2154.58 159.433 L2161.35 159.433 L2173.5 189.849 L2185.65 159.433 L2192.42 159.433 L2175.34 201.933 Z" fill="#000000" fill-rule="evenodd" fill-opacity="1" /><path clip-path="url(#clip430)" d="M2203.36 192.419 L2214.82 192.419 L2214.82 152.87 L2202.35 155.37 L2202.35 148.982 L2214.75 146.482 L2221.76 146.482 L2221.76 192.419 L2233.22 192.419 L2233.22 198.322 L2203.36 198.322 L2203.36 192.419 Z" fill="#000000" fill-rule="evenodd" fill-opacity="1" /><polyline clip-path="url(#clip430)" style="stroke:#e26f46; stroke-linecap:round; stroke-linejoin:round; stroke-width:6; stroke-opacity:1; fill:none" points="
  1990.83,250.162 2131.18,250.162 
  "/>
<path clip-path="url(#clip430)" d="M2175.34 279.693 Q2172.63 286.637 2170.06 288.755 Q2167.49 290.873 2163.19 290.873 L2158.08 290.873 L2158.08 285.526 L2161.83 285.526 Q2164.47 285.526 2165.93 284.276 Q2167.39 283.026 2169.16 278.373 L2170.31 275.457 L2154.58 237.193 L2161.35 237.193 L2173.5 267.609 L2185.65 237.193 L2192.42 237.193 L2175.34 279.693 Z" fill="#000000" fill-rule="evenodd" fill-opacity="1" /><path clip-path="url(#clip430)" d="M2208.19 270.179 L2232.67 270.179 L2232.67 276.082 L2199.75 276.082 L2199.75 270.179 Q2203.74 266.047 2210.62 259.102 Q2217.53 252.123 2219.3 250.109 Q2222.67 246.325 2223.99 243.721 Q2225.34 241.082 2225.34 238.547 Q2225.34 234.415 2222.42 231.811 Q2219.54 229.207 2214.89 229.207 Q2211.59 229.207 2207.91 230.353 Q2204.26 231.498 2200.1 233.825 L2200.1 226.742 Q2204.33 225.04 2208.01 224.172 Q2211.7 223.304 2214.75 223.304 Q2222.81 223.304 2227.6 227.332 Q2232.39 231.36 2232.39 238.096 Q2232.39 241.29 2231.17 244.172 Q2229.99 247.019 2226.83 250.908 Q2225.97 251.915 2221.31 256.741 Q2216.66 261.533 2208.19 270.179 Z" fill="#000000" fill-rule="evenodd" fill-opacity="1" /><polyline clip-path="url(#clip430)" style="stroke:#3da44d; stroke-linecap:round; stroke-linejoin:round; stroke-width:6; stroke-opacity:1; fill:none" points="
  1990.83,327.922 2131.18,327.922 
  "/>
<path clip-path="url(#clip430)" d="M2175.34 357.453 Q2172.63 364.397 2170.06 366.515 Q2167.49 368.633 2163.19 368.633 L2158.08 368.633 L2158.08 363.286 L2161.83 363.286 Q2164.47 363.286 2165.93 362.036 Q2167.39 360.786 2169.16 356.133 L2170.31 353.217 L2154.58 314.953 L2161.35 314.953 L2173.5 345.369 L2185.65 314.953 L2192.42 314.953 L2175.34 357.453 Z" fill="#000000" fill-rule="evenodd" fill-opacity="1" /><path clip-path="url(#clip430)" d="M2223.4 325.89 Q2228.43 326.967 2231.24 330.369 Q2234.09 333.772 2234.09 338.772 Q2234.09 346.446 2228.81 350.647 Q2223.54 354.848 2213.81 354.848 Q2210.55 354.848 2207.08 354.189 Q2203.64 353.564 2199.96 352.279 L2199.96 345.508 Q2202.88 347.21 2206.35 348.078 Q2209.82 348.946 2213.6 348.946 Q2220.2 348.946 2223.64 346.342 Q2227.11 343.737 2227.11 338.772 Q2227.11 334.189 2223.88 331.619 Q2220.69 329.015 2214.96 329.015 L2208.92 329.015 L2208.92 323.251 L2215.24 323.251 Q2220.41 323.251 2223.15 321.203 Q2225.9 319.12 2225.9 315.231 Q2225.9 311.238 2223.05 309.12 Q2220.24 306.967 2214.96 306.967 Q2212.08 306.967 2208.78 307.592 Q2205.48 308.217 2201.52 309.536 L2201.52 303.286 Q2205.51 302.175 2208.99 301.62 Q2212.49 301.064 2215.58 301.064 Q2223.57 301.064 2228.22 304.71 Q2232.88 308.321 2232.88 314.501 Q2232.88 318.807 2230.41 321.793 Q2227.94 324.744 2223.4 325.89 Z" fill="#000000" fill-rule="evenodd" fill-opacity="1" /><circle clip-path="url(#clip430)" cx="2061.01" cy="405.682" r="34.56" fill="#000000" fill-rule="evenodd" fill-opacity="1" stroke="none"/>
<path clip-path="url(#clip430)" d="M2175.34 435.213 Q2172.63 442.157 2170.06 444.275 Q2167.49 446.393 2163.19 446.393 L2158.08 446.393 L2158.08 441.046 L2161.83 441.046 Q2164.47 441.046 2165.93 439.796 Q2167.39 438.546 2169.16 433.893 L2170.31 430.977 L2154.58 392.713 L2161.35 392.713 L2173.5 423.129 L2185.65 392.713 L2192.42 392.713 L2175.34 435.213 Z" fill="#000000" fill-rule="evenodd" fill-opacity="1" /><path clip-path="url(#clip430)" d="M2221.42 385.873 L2203.71 413.546 L2221.42 413.546 L2221.42 385.873 M2219.58 379.762 L2228.4 379.762 L2228.4 413.546 L2235.79 413.546 L2235.79 419.379 L2228.4 419.379 L2228.4 431.602 L2221.42 431.602 L2221.42 419.379 L2198.01 419.379 L2198.01 412.609 L2219.58 379.762 Z" fill="#000000" fill-rule="evenodd" fill-opacity="1" /></svg>
